<svg xmlns="http://www.w3.org/2000/svg" xmlns:xlink="http://www.w3.org/1999/xlink" viewBox="0 0 126.36 149.9"><defs><style>.cls-1{fill:url(#未命名的渐变_105);}.cls-2{fill:url(#未命名的渐变_105-2);}.cls-3{fill:url(#未命名的渐变_105-3);}.cls-4{fill:url(#未命名的渐变_105-4);}.cls-5{fill:url(#未命名的渐变_105-5);}.cls-6{fill:url(#未命名的渐变_67);}.cls-7{fill:url(#未命名的渐变_67-2);}.cls-8{fill:url(#未命名的渐变_105-6);}.cls-9{fill:url(#未命名的渐变_105-7);}.cls-10{fill:url(#未命名的渐变_105-8);}.cls-11{fill:url(#未命名的渐变_105-9);}.cls-12{fill:url(#未命名的渐变_67-3);}.cls-13{opacity:0.2;}</style><linearGradient id="未命名的渐变_105" x1="2" y1="79.21" x2="124.57" y2="79.21" gradientUnits="userSpaceOnUse"><stop offset="0" stop-color="#e2e2e2"/><stop offset="0.03" stop-color="#d0d0d0"/><stop offset="0.06" stop-color="#bcbcbc"/><stop offset="0.09" stop-color="#b5b5b5"/><stop offset="0.49" stop-color="#f6f6f6"/><stop offset="0.63" stop-color="#f3f3f3"/><stop offset="0.73" stop-color="#eaeaea"/><stop offset="0.82" stop-color="#dbdbdb"/><stop offset="0.9" stop-color="#c6c6c6"/><stop offset="0.97" stop-color="#aaa"/><stop offset="1" stop-color="#9b9b9b"/></linearGradient><linearGradient id="未命名的渐变_105-2" x1="2" y1="40.08" x2="124.57" y2="40.08" xlink:href="#未命名的渐变_105"/><linearGradient id="未命名的渐变_105-3" x1="2" y1="108.65" x2="11.66" y2="108.65" xlink:href="#未命名的渐变_105"/><linearGradient id="未命名的渐变_105-4" x1="0" y1="147.34" x2="13.39" y2="147.34" xlink:href="#未命名的渐变_105"/><linearGradient id="未命名的渐变_105-5" x1="52.22" y1="93.06" x2="75.62" y2="93.06" xlink:href="#未命名的渐变_105"/><linearGradient id="未命名的渐变_67" x1="52.22" y1="101.41" x2="75.62" y2="101.41" gradientUnits="userSpaceOnUse"><stop offset="0" stop-color="#6b6b6b"/><stop offset="0.11" stop-color="#767676"/><stop offset="0.3" stop-color="#959595"/><stop offset="0.41" stop-color="#aaa"/><stop offset="0.56" stop-color="#ccc"/><stop offset="0.71" stop-color="#eaeaea"/><stop offset="0.8" stop-color="#f6f6f6"/><stop offset="0.83" stop-color="#ededed"/><stop offset="0.87" stop-color="#d4d4d4"/><stop offset="0.92" stop-color="#ababab"/><stop offset="0.98" stop-color="#737373"/><stop offset="0.99" stop-color="#666"/></linearGradient><linearGradient id="未命名的渐变_67-2" x1="59.95" y1="109.87" x2="66.93" y2="109.87" xlink:href="#未命名的渐变_67"/><linearGradient id="未命名的渐变_105-6" x1="48.81" y1="105.12" x2="78.25" y2="105.12" xlink:href="#未命名的渐变_105"/><linearGradient id="未命名的渐变_105-7" x1="114.96" y1="108.65" x2="124.62" y2="108.65" xlink:href="#未命名的渐变_105"/><linearGradient id="未命名的渐变_105-8" x1="112.97" y1="147.34" x2="126.36" y2="147.34" xlink:href="#未命名的渐变_105"/><linearGradient id="未命名的渐变_105-9" x1="1.4" y1="2.91" x2="125.92" y2="2.91" xlink:href="#未命名的渐变_105"/><linearGradient id="未命名的渐变_67-3" x1="2" y1="6.75" x2="124.57" y2="6.75" xlink:href="#未命名的渐变_67"/></defs><title>Day tank（日用油箱）</title><g id="图层_2" data-name="图层 2"><g id="图层_104" data-name="图层 104"><g id="Day_tank_日用油箱_" data-name="Day tank（日用油箱）"><polygon class="cls-1" points="75.74 85.92 52.02 85.92 2 72.5 124.56 72.5 75.74 85.92"/><rect class="cls-2" x="2" y="7.67" width="122.57" height="64.84"/><rect class="cls-3" x="2" y="72.5" width="9.66" height="72.28"/><rect class="cls-4" y="144.79" width="13.39" height="5.11"/><rect class="cls-5" x="52.22" y="85.92" width="23.4" height="14.29"/><rect class="cls-6" x="52.22" y="100.21" width="23.4" height="2.4"/><rect class="cls-7" x="59.95" y="107.63" width="6.99" height="4.49"/><rect class="cls-8" x="48.81" y="102.61" width="29.44" height="5.02"/><rect class="cls-9" x="114.96" y="72.5" width="9.66" height="72.28"/><rect class="cls-10" x="112.97" y="144.79" width="13.39" height="5.11"/><rect class="cls-11" x="1.4" width="124.53" height="5.83"/><rect class="cls-12" x="2" y="5.83" width="122.57" height="1.84"/></g></g></g></svg>