<svg xmlns="http://www.w3.org/2000/svg" xmlns:xlink="http://www.w3.org/1999/xlink" viewBox="0 0 134.58 150"><defs><style>.cls-1{fill:url(#未命名的渐变_67);}.cls-2{fill:url(#未命名的渐变_74);}.cls-3{fill:url(#未命名的渐变_74-2);}.cls-4{fill:url(#未命名的渐变_105);}.cls-5{fill:url(#未命名的渐变_105-2);}.cls-6{fill:url(#未命名的渐变_105-3);}.cls-7{fill:url(#未命名的渐变_105-4);}.cls-8{fill:url(#未命名的渐变_74-3);}.cls-9{fill:url(#未命名的渐变_67-2);}.cls-10{fill:url(#未命名的渐变_67-3);}.cls-11{fill:url(#未命名的渐变_67-4);}.cls-12{fill:url(#未命名的渐变_67-5);}.cls-13{fill:url(#未命名的渐变_67-6);}.cls-14{fill:url(#未命名的渐变_67-7);}.cls-15{fill:url(#未命名的渐变_67-8);}.cls-16{fill:url(#未命名的渐变_74-4);}.cls-17{fill:url(#未命名的渐变_74-5);}.cls-18{fill:url(#未命名的渐变_67-9);}.cls-19{fill:url(#未命名的渐变_67-10);}.cls-20{fill:url(#未命名的渐变_105-5);}.cls-21{fill:url(#未命名的渐变_105-6);}.cls-22{fill:url(#未命名的渐变_67-11);}.cls-23{fill:url(#未命名的渐变_67-12);}.cls-24{opacity:0.2;}</style><linearGradient id="未命名的渐变_67" x1="108.18" y1="218.79" x2="131.38" y2="218.79" gradientTransform="matrix(1, 0, 0, -1, 0, 252.98)" gradientUnits="userSpaceOnUse"><stop offset="0" stop-color="#6b6b6b"/><stop offset="0.11" stop-color="#767676"/><stop offset="0.3" stop-color="#959595"/><stop offset="0.41" stop-color="#aaa"/><stop offset="0.56" stop-color="#ccc"/><stop offset="0.71" stop-color="#eaeaea"/><stop offset="0.8" stop-color="#f6f6f6"/><stop offset="0.83" stop-color="#ededed"/><stop offset="0.87" stop-color="#d4d4d4"/><stop offset="0.92" stop-color="#ababab"/><stop offset="0.98" stop-color="#737373"/><stop offset="0.99" stop-color="#666"/></linearGradient><linearGradient id="未命名的渐变_74" x1="41.19" y1="46.13" x2="41.19" y2="18.05" gradientUnits="userSpaceOnUse"><stop offset="0" stop-color="#6b6b6b"/><stop offset="0.01" stop-color="#767676"/><stop offset="0.03" stop-color="#959595"/><stop offset="0.04" stop-color="#aaa"/><stop offset="0.37" stop-color="#ccc"/><stop offset="0.74" stop-color="#eaeaea"/><stop offset="0.94" stop-color="#f6f6f6"/><stop offset="0.95" stop-color="#ededed"/><stop offset="0.96" stop-color="#d4d4d4"/><stop offset="0.97" stop-color="#ababab"/><stop offset="0.99" stop-color="#737373"/><stop offset="0.99" stop-color="#666"/></linearGradient><linearGradient id="未命名的渐变_74-2" x1="86.34" y1="51.35" x2="86.34" y2="5.13" xlink:href="#未命名的渐变_74"/><linearGradient id="未命名的渐变_105" x1="112.21" y1="134.04" x2="112.21" y2="116.46" gradientUnits="userSpaceOnUse"><stop offset="0" stop-color="#e2e2e2"/><stop offset="0.03" stop-color="#d0d0d0"/><stop offset="0.06" stop-color="#bcbcbc"/><stop offset="0.09" stop-color="#b5b5b5"/><stop offset="0.49" stop-color="#f6f6f6"/><stop offset="0.63" stop-color="#f3f3f3"/><stop offset="0.73" stop-color="#eaeaea"/><stop offset="0.82" stop-color="#dbdbdb"/><stop offset="0.9" stop-color="#c6c6c6"/><stop offset="0.97" stop-color="#aaa"/><stop offset="1" stop-color="#9b9b9b"/></linearGradient><linearGradient id="未命名的渐变_105-2" x1="105.97" y1="129.81" x2="105.97" y2="120.65" xlink:href="#未命名的渐变_105"/><linearGradient id="未命名的渐变_105-3" x1="-17.28" y1="74.64" x2="-17.28" y2="57.06" gradientTransform="matrix(1, 0, 0, -1, 18.64, 131.7)" xlink:href="#未命名的渐变_105"/><linearGradient id="未命名的渐变_105-4" x1="-23.52" y1="70.41" x2="-23.52" y2="61.25" gradientTransform="matrix(1, 0, 0, -1, 31.13, 131.65)" xlink:href="#未命名的渐变_105"/><linearGradient id="未命名的渐变_74-3" x1="43.79" y1="51.35" x2="43.79" y2="42.19" gradientTransform="translate(87.57 93.53) rotate(-180)" xlink:href="#未命名的渐变_74"/><linearGradient id="未命名的渐变_67-2" x1="45.26" y1="31.05" x2="58.24" y2="31.05" gradientTransform="translate(103.51 62.11) rotate(-180)" xlink:href="#未命名的渐变_67"/><linearGradient id="未命名的渐变_67-3" x1="110.23" y1="30.33" x2="111.68" y2="30.33" gradientTransform="translate(221.91 60.67) rotate(-180)" xlink:href="#未命名的渐变_67"/><linearGradient id="未命名的渐变_67-4" x1="114.32" y1="30.33" x2="115.77" y2="30.33" gradientTransform="translate(230.09 60.67) rotate(-180)" xlink:href="#未命名的渐变_67"/><linearGradient id="未命名的渐变_67-5" x1="118.4" y1="30.33" x2="119.86" y2="30.33" gradientTransform="translate(238.26 60.67) rotate(-180)" xlink:href="#未命名的渐变_67"/><linearGradient id="未命名的渐变_67-6" x1="122.49" y1="30.33" x2="123.95" y2="30.33" gradientTransform="translate(246.44 60.67) rotate(-180)" xlink:href="#未命名的渐变_67"/><linearGradient id="未命名的渐变_67-7" x1="126.58" y1="30.33" x2="128.03" y2="30.33" gradientTransform="translate(254.61 60.67) rotate(-180)" xlink:href="#未命名的渐变_67"/><linearGradient id="未命名的渐变_67-8" x1="43" y1="15.1" x2="60.98" y2="15.1" gradientTransform="translate(103.97 30.19) rotate(-180)" xlink:href="#未命名的渐变_67"/><linearGradient id="未命名的渐变_74-4" x1="83.84" y1="10.27" x2="83.84" y2="0" gradientTransform="translate(167.68 10.27) rotate(-180)" xlink:href="#未命名的渐变_74"/><linearGradient id="未命名的渐变_74-5" x1="81.42" y1="55.68" x2="81.42" y2="46.52" gradientTransform="translate(162.83 102.2) rotate(-180)" xlink:href="#未命名的渐变_74"/><linearGradient id="未命名的渐变_67-9" x1="-26.73" y1="57.81" x2="-118.63" y2="57.81" gradientTransform="matrix(1, 0, 0, -1, 129.45, 115.62)" xlink:href="#未命名的渐变_67"/><linearGradient id="未命名的渐变_67-10" x1="-21.63" y1="52.93" x2="-123.45" y2="52.93" gradientTransform="matrix(1, 0, 0, -1, 129.18, 105.87)" xlink:href="#未命名的渐变_67"/><linearGradient id="未命名的渐变_105-5" x1="10.54" y1="168.97" x2="102.72" y2="168.97" gradientTransform="matrix(1, 0, 0, -1, 0, 273.45)" xlink:href="#未命名的渐变_105"/><linearGradient id="未命名的渐变_105-6" x1="106.6" y1="17.64" x2="132.19" y2="17.64" gradientTransform="translate(238.79 35.28) rotate(180)" xlink:href="#未命名的渐变_105"/><linearGradient id="未命名的渐变_67-11" x1="115.26" y1="11.3" x2="124.14" y2="11.3" gradientTransform="translate(239.4 22.6) rotate(180)" xlink:href="#未命名的渐变_67"/><linearGradient id="未命名的渐变_67-12" x1="108.87" y1="14.58" x2="130.57" y2="14.58" gradientTransform="matrix(1, 0, 0, 1, 0, 0)" xlink:href="#未命名的渐变_67"/></defs><title>Reinforced tank with mixer（带混合器的加强水箱）</title><g id="图层_2" data-name="图层 2"><g id="图层_104" data-name="图层 104"><g id="Reinforced_tank_with_mixer_带混合器的加强水箱_" data-name="Reinforced tank with mixer（带混合器的加强水箱）"><path class="cls-1" d="M131.35,18.19H108.23V46.33s-1.41,3.86,11.56,3.86c12.8,0,11.56-3.86,11.56-3.86Z"/><polygon class="cls-2" points="31.53 45.31 47.21 18.05 50.85 46.13 31.53 45.31"/><polygon class="cls-3" points="69.96 47.16 102.72 5.13 102.72 51.35 69.96 47.16"/><rect class="cls-4" x="110.84" y="116.46" width="2.73" height="17.58" rx="0.3"/><rect class="cls-5" x="101.09" y="120.65" width="9.75" height="9.16"/><rect class="cls-6" y="57.06" width="2.73" height="17.58" rx="0.3" transform="translate(2.73 131.7) rotate(180)"/><rect class="cls-7" x="2.73" y="61.25" width="9.75" height="9.16" transform="translate(15.22 131.65) rotate(180)"/><rect class="cls-8" x="24.97" y="42.19" width="37.63" height="9.16" transform="translate(87.57 93.53) rotate(180)"/><rect class="cls-9" x="45.26" y="19.92" width="12.98" height="22.26" transform="translate(103.51 62.11) rotate(180)"/><rect class="cls-10" x="110.23" y="19.58" width="1.45" height="21.51" transform="translate(221.91 60.67) rotate(180)"/><rect class="cls-11" x="114.32" y="19.58" width="1.45" height="21.51" transform="translate(230.09 60.67) rotate(180)"/><rect class="cls-12" x="118.4" y="19.58" width="1.45" height="21.51" transform="translate(238.26 60.67) rotate(180)"/><rect class="cls-13" x="122.49" y="19.58" width="1.45" height="21.51" transform="translate(246.44 60.67) rotate(180)"/><rect class="cls-14" x="126.58" y="19.58" width="1.45" height="21.51" transform="translate(254.61 60.67) rotate(180)"/><rect class="cls-15" x="43" y="10.27" width="17.98" height="9.65" transform="translate(103.97 30.19) rotate(180)"/><rect class="cls-16" x="33.1" width="101.49" height="10.27" transform="translate(167.68 10.27) rotate(180)"/><rect class="cls-17" x="62.6" y="46.52" width="37.63" height="9.16" transform="translate(162.83 102.2) rotate(180)"/><rect class="cls-18" x="10.82" y="56.67" width="91.9" height="2.29" transform="translate(113.54 115.62) rotate(180)"/><rect class="cls-19" x="5.72" y="49.2" width="101.82" height="7.46" transform="translate(113.27 105.87) rotate(180)"/><path class="cls-20" d="M102.59,59H10.72v77.85S5.11,150,56.65,150c50.83,0,45.94-13.19,45.94-13.19Z"/><rect class="cls-21" x="106.6" y="16.87" width="25.59" height="1.54" rx="0.17" transform="translate(238.79 35.28) rotate(-180)"/><rect class="cls-22" x="115.26" y="10.27" width="8.88" height="2.06" transform="matrix(-1, 0, 0, -1, 239.4, 22.6)"/><path class="cls-23" d="M108.87,16.84h21.7a16.55,16.55,0,0,0-6.43-4.51h-8.88C111.88,13.06,108.87,16.84,108.87,16.84Z"/></g></g></g></svg>