<svg xmlns="http://www.w3.org/2000/svg" xmlns:xlink="http://www.w3.org/1999/xlink" viewBox="0 0 103.61 150"><defs><style>.cls-1{fill:url(#未命名的渐变_143);}.cls-2{fill:url(#未命名的渐变_143-2);}.cls-3{fill:url(#未命名的渐变_143-3);}.cls-4{fill:url(#未命名的渐变_143-4);}.cls-5{fill:url(#未命名的渐变_105);}.cls-6{fill:url(#未命名的渐变_143-5);}.cls-7{fill:url(#未命名的渐变_143-6);}.cls-8{fill:url(#未命名的渐变_143-7);}.cls-9{fill:url(#未命名的渐变_143-8);}.cls-10{fill:url(#未命名的渐变_143-9);}.cls-11{fill:url(#未命名的渐变_143-10);}.cls-12{opacity:0.2;}</style><linearGradient id="未命名的渐变_143" x1="43.44" y1="12.38" x2="51.05" y2="12.38" gradientUnits="userSpaceOnUse"><stop offset="0" stop-color="#b7b7b7"/><stop offset="0.03" stop-color="#9b9d9d"/><stop offset="0.07" stop-color="#878b8b"/><stop offset="0.09" stop-color="#808484"/><stop offset="0.2" stop-color="#a3a6a6"/><stop offset="0.49" stop-color="#f6f6f6"/><stop offset="0.61" stop-color="#f3f3f3"/><stop offset="0.7" stop-color="#eaeaea"/><stop offset="0.77" stop-color="#dbdbdb"/><stop offset="0.83" stop-color="#c5c5c5"/><stop offset="0.9" stop-color="#aaa"/><stop offset="0.95" stop-color="#888"/><stop offset="1" stop-color="#666"/></linearGradient><linearGradient id="未命名的渐变_143-2" x1="68.22" y1="9.79" x2="68.22" y2="0" gradientTransform="translate(-20.05)" xlink:href="#未命名的渐变_143"/><linearGradient id="未命名的渐变_143-3" x1="137.84" y1="9.87" x2="137.84" y2="0.08" gradientTransform="matrix(-1, 0, 0, 1, 236.31, 0)" xlink:href="#未命名的渐变_143"/><linearGradient id="未命名的渐变_143-4" x1="73.23" y1="6.27" x2="73.23" y2="0" xlink:href="#未命名的渐变_143"/><linearGradient id="未命名的渐变_105" y1="81.47" x2="95.81" y2="81.47" gradientUnits="userSpaceOnUse"><stop offset="0" stop-color="#e2e2e2"/><stop offset="0.03" stop-color="#d0d0d0"/><stop offset="0.06" stop-color="#bcbcbc"/><stop offset="0.09" stop-color="#b5b5b5"/><stop offset="0.49" stop-color="#f6f6f6"/><stop offset="0.63" stop-color="#f3f3f3"/><stop offset="0.73" stop-color="#eaeaea"/><stop offset="0.82" stop-color="#dbdbdb"/><stop offset="0.9" stop-color="#c6c6c6"/><stop offset="0.97" stop-color="#aaa"/><stop offset="1" stop-color="#9b9b9b"/></linearGradient><linearGradient id="未命名的渐变_143-5" x1="-774.03" y1="-658.13" x2="-774.03" y2="-562.32" gradientTransform="translate(821.94 645.02)" xlink:href="#未命名的渐变_143"/><linearGradient id="未命名的渐变_143-6" x1="-780.22" y1="-658.13" x2="-780.22" y2="-562.32" gradientTransform="translate(828.13 651.21)" xlink:href="#未命名的渐变_143"/><linearGradient id="未命名的渐变_143-7" x1="-786.42" y1="-658.13" x2="-786.42" y2="-562.32" gradientTransform="translate(834.32 657.4)" xlink:href="#未命名的渐变_143"/><linearGradient id="未命名的渐变_143-8" x1="-868.75" y1="-657.96" x2="-868.75" y2="-562.15" gradientTransform="translate(916.83 739.56)" xlink:href="#未命名的渐变_143"/><linearGradient id="未命名的渐变_143-9" x1="-874.86" y1="-657.96" x2="-874.86" y2="-562.15" gradientTransform="translate(922.94 745.66)" xlink:href="#未命名的渐变_143"/><linearGradient id="未命名的渐变_143-10" x1="4.37" y1="97.18" x2="8.59" y2="97.18" gradientTransform="matrix(1, 0, 0, -1, 55.16, 194.36)" xlink:href="#未命名的渐变_143"/></defs><title>Tank 1（油箱） (3)</title><g id="图层_2" data-name="图层 2"><g id="图层_104" data-name="图层 104"><g id="Tank_1_油箱_" data-name="Tank 1（油箱）"><rect class="cls-1" x="43.44" y="9.79" width="7.61" height="5.17"/><path class="cls-2" d="M53.12,6.31V.06S47.43-.61,44.66,2.5c-2.16,2.44-1.22,7.29-1.22,7.29h8A3.77,3.77,0,0,1,52,6.94C52.76,6.07,53.12,6.31,53.12,6.31Z"/><path class="cls-3" d="M93.34,6.39V.14s5.91-.67,8.79,2.44c2.25,2.44,1.27,7.29,1.27,7.29H95.11A3.59,3.59,0,0,0,94.53,7C93.71,6.15,93.34,6.39,93.34,6.39Z"/><rect class="cls-4" x="53.12" width="40.23" height="6.27"/><path class="cls-5" d="M95.68,144.61s-4.94,4.47-47.78,5.31C6.28,150.75.19,144.61.19,144.61V39.05S-5.67,12.94,47.9,12.94c52.84,0,47.78,26.11,47.78,26.11Z"/><rect class="cls-6" x="46.43" y="-13.12" width="2.96" height="95.81" transform="translate(13.12 82.69) rotate(-90)"/><rect class="cls-7" x="46.43" y="-6.92" width="2.96" height="95.81" transform="translate(6.92 88.89) rotate(-90)"/><rect class="cls-8" x="46.43" y="-0.73" width="2.96" height="95.81" transform="translate(0.73 95.08) rotate(-90)"/><rect class="cls-9" x="46.6" y="81.6" width="2.96" height="95.81" transform="translate(-81.43 177.59) rotate(-90)"/><rect class="cls-10" x="46.6" y="87.71" width="2.96" height="95.81" transform="translate(-87.53 183.69) rotate(-90)"/><rect class="cls-11" x="59.52" y="62.76" width="4.22" height="68.84" transform="translate(123.27 194.36) rotate(180)"/></g></g></g></svg>