<svg xmlns="http://www.w3.org/2000/svg" xmlns:xlink="http://www.w3.org/1999/xlink" viewBox="0 0 116.39 149"><defs><style>.cls-1{fill:none;stroke-miterlimit:10;stroke-width:0.75px;stroke:url(#未命名的渐变_143);}.cls-2{fill:url(#未命名的渐变_105);}.cls-3{fill:url(#未命名的渐变_143-2);}.cls-4{fill:url(#未命名的渐变_143-3);}.cls-5{fill:url(#未命名的渐变_143-4);}.cls-6{fill:url(#未命名的渐变_143-5);}.cls-7{fill:url(#未命名的渐变_143-6);}.cls-8{fill:url(#未命名的渐变_143-7);}.cls-9{opacity:0.2;}</style><linearGradient id="未命名的渐变_143" x1="72.09" y1="13.89" x2="44.31" y2="13.89" gradientUnits="userSpaceOnUse"><stop offset="0" stop-color="#b7b7b7"/><stop offset="0.03" stop-color="#9b9d9d"/><stop offset="0.07" stop-color="#878b8b"/><stop offset="0.09" stop-color="#808484"/><stop offset="0.2" stop-color="#a3a6a6"/><stop offset="0.49" stop-color="#f6f6f6"/><stop offset="0.61" stop-color="#f3f3f3"/><stop offset="0.7" stop-color="#eaeaea"/><stop offset="0.77" stop-color="#dbdbdb"/><stop offset="0.83" stop-color="#c5c5c5"/><stop offset="0.9" stop-color="#aaa"/><stop offset="0.95" stop-color="#888"/><stop offset="1" stop-color="#666"/></linearGradient><linearGradient id="未命名的渐变_105" x1="0.01" y1="76.88" x2="116.39" y2="76.88" gradientUnits="userSpaceOnUse"><stop offset="0" stop-color="#e2e2e2"/><stop offset="0.03" stop-color="#d0d0d0"/><stop offset="0.06" stop-color="#bcbcbc"/><stop offset="0.09" stop-color="#b5b5b5"/><stop offset="0.49" stop-color="#f6f6f6"/><stop offset="0.63" stop-color="#f3f3f3"/><stop offset="0.73" stop-color="#eaeaea"/><stop offset="0.82" stop-color="#dbdbdb"/><stop offset="0.9" stop-color="#c6c6c6"/><stop offset="0.97" stop-color="#aaa"/><stop offset="1" stop-color="#9b9b9b"/></linearGradient><linearGradient id="未命名的渐变_143-2" x1="-1769.81" y1="-1277.39" x2="-1769.81" y2="-1161.24" gradientTransform="matrix(1, 0, 0, -1, 1827.89, -1170.92)" xlink:href="#未命名的渐变_143"/><linearGradient id="未命名的渐变_143-3" x1="-1824.09" y1="-1277.39" x2="-1824.09" y2="-1161.24" gradientTransform="matrix(1, 0, 0, -1, 1882.16, -1116.65)" xlink:href="#未命名的渐变_143"/><linearGradient id="未命名的渐变_143-4" x1="-1744.04" y1="-1277.63" x2="-1744.04" y2="-1161.24" gradientTransform="matrix(1, 0, 0, -1, 1802.23, -1196.82)" xlink:href="#未命名的渐变_143"/><linearGradient id="未命名的渐变_143-5" x1="-1747.8" y1="-1277.63" x2="-1747.8" y2="-1161.24" gradientTransform="matrix(1, 0, 0, -1, 1805.99, -1193.06)" xlink:href="#未命名的渐变_143"/><linearGradient id="未命名的渐变_143-6" x1="-1849.45" y1="-1277.39" x2="-1849.45" y2="-1161.24" gradientTransform="matrix(1, 0, 0, -1, 1907.53, -1091.28)" xlink:href="#未命名的渐变_143"/><linearGradient id="未命名的渐变_143-7" x1="-1852.76" y1="-1277.39" x2="-1852.76" y2="-1161.24" gradientTransform="matrix(1, 0, 0, -1, 1910.83, -1087.97)" xlink:href="#未命名的渐变_143"/></defs><title>Very smooth tank（很光滑的邮箱）</title><g id="图层_2" data-name="图层 2"><g id="图层_104" data-name="图层 104"><g id="Very_smooth_tank_很光滑的邮箱_" data-name="Very smooth tank（很光滑的邮箱）"><circle class="cls-1" cx="58.2" cy="13.89" r="13.51"/><path class="cls-2" d="M116.39,136.24S109.08,149,58.2,149C11.41,149,0,136.24,0,136.24V19.75s12.12-15,58.19-15c45.69,0,58.19,15,58.19,15Z"/><rect class="cls-3" x="56.02" y="-9.68" width="4.11" height="116.15" transform="translate(9.68 106.46) rotate(-90)"/><rect class="cls-4" x="56.02" y="44.59" width="4.11" height="116.15" transform="translate(-44.59 160.74) rotate(-90)"/><rect class="cls-5" x="57.17" y="-35.58" width="2.05" height="116.39" transform="translate(35.58 80.81) rotate(-90)"/><rect class="cls-6" x="57.17" y="-31.82" width="2.05" height="116.39" transform="translate(31.82 84.57) rotate(-90)"/><rect class="cls-7" x="57.05" y="69.96" width="2.05" height="116.15" transform="translate(-69.96 186.1) rotate(-90)"/><rect class="cls-8" x="57.05" y="73.27" width="2.05" height="116.15" transform="translate(-73.27 189.41) rotate(-90)"/></g></g></g></svg>