<svg xmlns="http://www.w3.org/2000/svg" viewBox="0 0 150 45.69"><defs><style>.cls-1{fill:#ffec00;}.cls-2{opacity:0.2;}</style></defs><title>Small caution sign（小型警示标志）</title><g id="图层_2" data-name="图层 2"><g id="图层_28" data-name="图层 28"><g id="Small_caution_sign_小型警示标志_" data-name="Small caution sign（小型警示标志）"><rect class="cls-1" width="150" height="45.69"/><path d="M42.26,24.06q-.09,3.18-1.58,4.52a5.11,5.11,0,0,1-3.55,1.34,5.58,5.58,0,0,1-4-1.64c-1.13-1.08-1.68-2.83-1.68-5.23q0-3.93,1.63-5.86a5.24,5.24,0,0,1,4.19-1.93,5,5,0,0,1,3.6,1.38,4.93,4.93,0,0,1,1.33,3.9H40a4.56,4.56,0,0,0-.69-2.76,2.4,2.4,0,0,0-2.07-.93,2.9,2.9,0,0,0-2.52,1.39,8.55,8.55,0,0,0-.93,4.64c0,2,.3,3.43.93,4.23a2.93,2.93,0,0,0,2.42,1.22,2.75,2.75,0,0,0,2-.88c.6-.59.89-1.72.89-3.39Z"/><path d="M55.29,29.75H52.92l-1.38-4.44H47.2l-1.39,4.44H43.45l4.93-14.49h2Zm-4.25-6-1.58-5.11h-.19l-1.58,5.11Z"/><path d="M67.13,25.56a4.17,4.17,0,0,1-1.24,3.19A5.5,5.5,0,0,1,62,29.92a5.51,5.51,0,0,1-3.9-1.17,4.17,4.17,0,0,1-1.24-3.19V15.43h2.27V25.56a2.59,2.59,0,0,0,.79,2.1,3.55,3.55,0,0,0,4.15,0,2.59,2.59,0,0,0,.79-2.1V15.43h2.27Z"/><path d="M79.66,17h-4V29.75H73.44V17h-4V15.43H79.66Z"/><path d="M88.34,29.75H86.07V15.43h2.27Z"/><path d="M105.31,22.55q0,3.94-1.43,5.65a4.89,4.89,0,0,1-4,1.72,5,5,0,0,1-4-1.72q-1.49-1.71-1.48-5.65t1.48-5.61a5.09,5.09,0,0,1,4-1.68,5,5,0,0,1,4,1.68Q105.31,18.62,105.31,22.55Zm-2.37,0c0-2.35-.29-3.88-.89-4.61a2.73,2.73,0,0,0-2.17-1.09,2.88,2.88,0,0,0-2.22,1.09c-.63.73-.93,2.26-.93,4.61s.3,3.89.93,4.65a2.83,2.83,0,0,0,2.22,1.13,2.69,2.69,0,0,0,2.17-1.13C102.65,26.44,102.94,24.89,102.94,22.55Z"/><path d="M117.54,29.75h-2.46l-5.43-10.38h-.1V29.75h-2.27V15.43h2.47l5.43,10.38h.1V15.43h2.26Z"/></g></g></g></svg>