<svg xmlns="http://www.w3.org/2000/svg" xmlns:xlink="http://www.w3.org/1999/xlink" viewBox="0 0 150 150"><defs><style>.cls-1,.cls-2{fill:none;}.cls-2{stroke:#fff;stroke-miterlimit:10;stroke-width:0.1px;}.cls-3{opacity:0;}.cls-139,.cls-168,.cls-169,.cls-205,.cls-4{fill:#000714;}.cls-5{opacity:0.1;fill:url(#新建图案);}.cls-6{isolation:isolate;}.cls-7{fill:url(#未命名的渐变_119);}.cls-8{fill:url(#未命名的渐变_119-2);}.cls-9{fill:url(#未命名的渐变_119-3);}.cls-10{fill:url(#未命名的渐变_119-4);}.cls-11{fill:url(#未命名的渐变_119-5);}.cls-12{fill:url(#未命名的渐变_119-6);}.cls-13{fill:url(#未命名的渐变_119-7);}.cls-14{fill:url(#未命名的渐变_119-8);}.cls-15{fill:url(#未命名的渐变_119-9);}.cls-16{fill:url(#未命名的渐变_119-10);}.cls-17{fill:url(#未命名的渐变_119-11);}.cls-18{fill:url(#未命名的渐变_119-12);}.cls-19{fill:url(#未命名的渐变_119-13);}.cls-20{fill:url(#未命名的渐变_119-14);}.cls-21{fill:url(#未命名的渐变_119-15);}.cls-22{fill:url(#未命名的渐变_119-16);}.cls-23{fill:url(#未命名的渐变_119-17);}.cls-24{fill:url(#未命名的渐变_119-18);}.cls-25{fill:url(#未命名的渐变_119-19);}.cls-26{fill:url(#未命名的渐变_119-20);}.cls-27{fill:url(#未命名的渐变_119-21);}.cls-28{fill:url(#未命名的渐变_119-22);}.cls-29{fill:url(#未命名的渐变_119-23);}.cls-30{fill:url(#未命名的渐变_119-24);}.cls-31{fill:url(#未命名的渐变_119-25);}.cls-32{fill:url(#未命名的渐变_119-26);}.cls-33{fill:url(#未命名的渐变_119-27);}.cls-34{fill:url(#未命名的渐变_119-28);}.cls-35{fill:url(#未命名的渐变_119-29);}.cls-36{fill:url(#未命名的渐变_119-30);}.cls-37{fill:url(#未命名的渐变_119-31);}.cls-38{fill:url(#未命名的渐变_119-32);}.cls-39{fill:url(#未命名的渐变_119-33);}.cls-40{fill:url(#未命名的渐变_119-34);}.cls-41{fill:url(#未命名的渐变_119-35);}.cls-42{fill:url(#未命名的渐变_119-36);}.cls-43{fill:url(#未命名的渐变_119-37);}.cls-44{fill:url(#未命名的渐变_119-38);}.cls-45{fill:url(#未命名的渐变_119-39);}.cls-46{fill:url(#未命名的渐变_119-40);}.cls-47{fill:url(#未命名的渐变_119-41);}.cls-48{fill:url(#未命名的渐变_119-42);}.cls-49{fill:url(#未命名的渐变_119-43);}.cls-50{fill:url(#未命名的渐变_119-44);}.cls-51{fill:url(#未命名的渐变_119-45);}.cls-52{fill:url(#未命名的渐变_119-46);}.cls-53{fill:url(#未命名的渐变_119-47);}.cls-54{fill:url(#未命名的渐变_119-48);}.cls-55{fill:url(#未命名的渐变_119-49);}.cls-56{fill:url(#未命名的渐变_119-50);}.cls-57{fill:url(#未命名的渐变_119-51);}.cls-58{fill:url(#未命名的渐变_119-52);}.cls-59{fill:url(#未命名的渐变_119-53);}.cls-60{fill:url(#未命名的渐变_119-54);}.cls-61{fill:url(#未命名的渐变_119-55);}.cls-62{fill:url(#未命名的渐变_119-56);}.cls-63{fill:url(#未命名的渐变_119-57);}.cls-64{fill:url(#未命名的渐变_119-58);}.cls-65{fill:url(#未命名的渐变_119-59);}.cls-66{fill:url(#未命名的渐变_119-60);}.cls-67{fill:url(#未命名的渐变_119-61);}.cls-68{fill:url(#未命名的渐变_119-62);}.cls-69{fill:url(#未命名的渐变_119-63);}.cls-70{fill:url(#未命名的渐变_119-64);}.cls-71{fill:url(#未命名的渐变_119-65);}.cls-72{fill:url(#未命名的渐变_119-66);}.cls-73{fill:url(#未命名的渐变_119-67);}.cls-74{fill:url(#未命名的渐变_119-68);}.cls-75{fill:url(#未命名的渐变_119-69);}.cls-76{fill:url(#未命名的渐变_119-70);}.cls-77{fill:url(#未命名的渐变_119-71);}.cls-78{fill:url(#未命名的渐变_119-72);}.cls-79{fill:url(#未命名的渐变_119-73);}.cls-80{fill:url(#未命名的渐变_119-74);}.cls-81{fill:url(#未命名的渐变_119-75);}.cls-82{fill:url(#未命名的渐变_119-76);}.cls-83{fill:url(#未命名的渐变_119-77);}.cls-84{fill:url(#未命名的渐变_119-78);}.cls-85{fill:url(#未命名的渐变_119-79);}.cls-86{fill:url(#未命名的渐变_119-80);}.cls-87{fill:url(#未命名的渐变_119-81);}.cls-88{fill:url(#未命名的渐变_119-82);}.cls-89{fill:url(#未命名的渐变_119-83);}.cls-90{fill:url(#未命名的渐变_119-84);}.cls-91{fill:url(#未命名的渐变_119-85);}.cls-92{fill:url(#未命名的渐变_119-86);}.cls-93{fill:url(#未命名的渐变_119-87);}.cls-94{fill:url(#未命名的渐变_119-88);}.cls-95{fill:url(#未命名的渐变_119-89);}.cls-96{fill:url(#未命名的渐变_119-90);}.cls-97{fill:url(#未命名的渐变_119-91);}.cls-98{fill:url(#未命名的渐变_119-92);}.cls-99{fill:url(#未命名的渐变_119-93);}.cls-100{fill:url(#未命名的渐变_119-94);}.cls-101{fill:url(#未命名的渐变_119-95);}.cls-102{fill:url(#未命名的渐变_119-96);}.cls-103{fill:url(#未命名的渐变_119-97);}.cls-104{fill:url(#未命名的渐变_119-98);}.cls-105{fill:url(#未命名的渐变_119-99);}.cls-106{fill:url(#未命名的渐变_119-100);}.cls-107{fill:url(#未命名的渐变_119-101);}.cls-108{fill:url(#未命名的渐变_119-102);}.cls-109{fill:url(#未命名的渐变_119-103);}.cls-110{fill:url(#未命名的渐变_119-104);}.cls-111{fill:url(#未命名的渐变_119-105);}.cls-112{fill:url(#未命名的渐变_119-106);}.cls-113{fill:url(#未命名的渐变_119-107);}.cls-114{fill:url(#未命名的渐变_119-108);}.cls-115{fill:url(#未命名的渐变_119-109);}.cls-116{fill:url(#未命名的渐变_119-110);}.cls-117{fill:url(#未命名的渐变_119-111);}.cls-118{fill:url(#未命名的渐变_119-112);}.cls-119{fill:url(#未命名的渐变_119-113);}.cls-120{fill:url(#未命名的渐变_119-114);}.cls-121{fill:url(#未命名的渐变_119-115);}.cls-122{fill:url(#未命名的渐变_119-116);}.cls-123{fill:url(#未命名的渐变_119-117);}.cls-124{fill:url(#未命名的渐变_119-118);}.cls-125{fill:url(#未命名的渐变_119-119);}.cls-126{fill:url(#未命名的渐变_119-120);}.cls-127{fill:url(#未命名的渐变_119-121);}.cls-128{fill:url(#未命名的渐变_119-122);}.cls-129{fill:url(#未命名的渐变_119-123);}.cls-130{fill:url(#未命名的渐变_119-124);}.cls-131{fill:url(#未命名的渐变_119-125);}.cls-132{fill:url(#未命名的渐变_119-126);}.cls-133{fill:url(#未命名的渐变_119-127);}.cls-134{fill:url(#未命名的渐变_119-128);}.cls-135{fill:url(#未命名的渐变_119-129);}.cls-136{fill:url(#未命名的渐变_119-130);}.cls-137{fill:url(#未命名的渐变_119-131);}.cls-138{fill:url(#未命名的渐变_1822);}.cls-139,.cls-178{opacity:0.45;}.cls-139,.cls-178,.cls-205{mix-blend-mode:multiply;}.cls-140{fill:url(#未命名的渐变_1815);}.cls-141{fill:url(#未命名的渐变_1772);}.cls-142{fill:url(#未命名的渐变_119-132);}.cls-143{fill:url(#未命名的渐变_1815-2);}.cls-144{fill:url(#未命名的渐变_107);}.cls-145{fill:url(#未命名的渐变_119-133);}.cls-146{fill:url(#未命名的渐变_119-134);}.cls-147{fill:url(#未命名的渐变_119-135);}.cls-148{fill:#409af4;}.cls-149{fill:#1242cf;}.cls-150{fill:#0a59db;}.cls-151{fill:#4abaff;}.cls-152{fill:url(#未命名的渐变_126);}.cls-153{fill:url(#未命名的渐变_256);}.cls-154{fill:#7696cb;}.cls-155{fill:url(#未命名的渐变_256-2);}.cls-156{fill:#dcdcdc;}.cls-157{fill:url(#未命名的渐变_119-136);}.cls-158{fill:url(#未命名的渐变_107-2);}.cls-159{fill:url(#未命名的渐变_119-137);}.cls-160{fill:url(#未命名的渐变_107-3);}.cls-161{fill:url(#未命名的渐变_107-4);}.cls-162{fill:url(#未命名的渐变_119-138);}.cls-163{fill:url(#未命名的渐变_119-139);}.cls-164{fill:url(#未命名的渐变_119-140);}.cls-165{fill:url(#未命名的渐变_178);}.cls-166{fill:url(#未命名的渐变_17280);}.cls-167{fill:url(#未命名的渐变_178-2);}.cls-168,.cls-169,.cls-198,.cls-203{mix-blend-mode:overlay;}.cls-169,.cls-203{opacity:0.2;}.cls-170{fill:url(#未命名的渐变_119-141);}.cls-171{fill:url(#未命名的渐变_111);}.cls-172{fill:url(#未命名的渐变_119-142);}.cls-173{fill:url(#未命名的渐变_119-143);}.cls-174{fill:url(#未命名的渐变_119-144);}.cls-175{fill:url(#未命名的渐变_178-3);}.cls-176{fill:url(#未命名的渐变_126-2);}.cls-177{fill:url(#未命名的渐变_94);}.cls-179{fill:url(#未命名的渐变_126-3);}.cls-180{fill:url(#未命名的渐变_256-3);}.cls-181{fill:url(#未命名的渐变_119-145);}.cls-182{fill:url(#未命名的渐变_119-146);}.cls-183{fill:url(#未命名的渐变_126-4);}.cls-184{fill:url(#未命名的渐变_119-147);}.cls-185{fill:url(#未命名的渐变_247);}.cls-186{fill:url(#未命名的渐变_107-5);}.cls-187{fill:url(#未命名的渐变_119-148);}.cls-188{fill:url(#未命名的渐变_107-6);}.cls-189{fill:url(#未命名的渐变_247-2);}.cls-190{fill:url(#未命名的渐变_107-7);}.cls-191{fill:url(#未命名的渐变_119-149);}.cls-192{fill:url(#未命名的渐变_107-8);}.cls-193{fill:#fff;}.cls-194{fill:url(#未命名的渐变_247-3);}.cls-195{fill:url(#未命名的渐变_107-9);}.cls-196{fill:url(#未命名的渐变_313);}.cls-197{fill:url(#未命名的渐变_107-10);}.cls-198{opacity:0.12;}.cls-199{fill:url(#未命名的渐变_313-2);}.cls-200{fill:url(#未命名的渐变_13);}.cls-201{fill:url(#未命名的渐变_119-150);}.cls-202{fill:url(#未命名的渐变_107-11);}.cls-204{fill:url(#未命名的渐变_119-151);}.cls-205{opacity:0.3;}.cls-206{fill:url(#未命名的渐变_112);}.cls-207{fill:url(#未命名的渐变_329);}.cls-208{fill:url(#未命名的渐变_21);}.cls-209{fill:url(#未命名的渐变_112-2);}.cls-210{fill:url(#未命名的渐变_21-2);}.cls-211{opacity:0.2;}</style><pattern id="新建图案" data-name="新建图案" width="18.57" height="32.16" patternTransform="translate(2500.26 974.22)" patternUnits="userSpaceOnUse" viewBox="0 0 18.57 32.16"><rect class="cls-1" width="18.57" height="32.16"/><polyline class="cls-2" points="18.57 21.44 18.57 32.16 18.57 42.88"/><polyline class="cls-2" points="9.29 26.8 18.57 32.16 27.85 37.51 27.85 37.52"/><polyline class="cls-2" points="9.29 37.52 9.29 37.51 18.57 32.16 27.85 26.8"/><polygon class="cls-2" points="27.85 37.52 27.85 26.8 18.57 21.44 9.28 26.8 9.28 37.52 18.57 42.88 27.85 37.52"/><polyline class="cls-2" points="0 21.44 0 32.16 0 42.88"/><polyline class="cls-2" points="-9.28 26.8 0 32.16 9.28 37.51 9.28 37.52"/><polyline class="cls-2" points="-9.28 37.52 -9.28 37.51 0 32.16 9.28 26.8"/><polygon class="cls-2" points="9.28 37.52 9.28 26.8 0 21.44 -9.29 26.8 -9.29 37.52 0 42.88 9.28 37.52"/><polyline class="cls-2" points="18.57 10.72 27.85 16.08 37.13 21.43 37.13 21.44"/><polyline class="cls-2" points="18.57 21.44 18.57 21.43 27.85 16.08 37.13 10.72"/><polygon class="cls-2" points="37.14 21.44 37.14 10.72 27.85 5.36 18.57 10.72 18.57 21.44 27.85 26.8 37.14 21.44"/><polyline class="cls-2" points="9.29 5.36 9.29 16.08 9.29 26.8"/><polyline class="cls-2" points="0.01 10.72 9.29 16.08 18.57 21.43 18.57 21.44"/><polyline class="cls-2" points="0.01 21.44 0.01 21.43 9.29 16.08 18.57 10.72"/><polygon class="cls-2" points="18.57 21.44 18.57 10.72 9.28 5.36 0 10.72 0 21.44 9.28 26.8 18.57 21.44"/><polyline class="cls-2" points="-18.56 10.72 -9.28 16.08 0 21.43 0 21.44"/><polyline class="cls-2" points="-18.56 21.44 -18.56 21.43 -9.28 16.08 0 10.72"/><polygon class="cls-2" points="0 21.44 0 10.72 -9.29 5.36 -18.57 10.72 -18.57 21.44 -9.29 26.8 0 21.44"/><polyline class="cls-2" points="18.57 -10.72 18.57 0 18.57 10.72"/><polyline class="cls-2" points="9.29 -5.36 18.57 0 27.85 5.35 27.85 5.36"/><polyline class="cls-2" points="9.29 5.36 9.29 5.35 18.57 0 27.85 -5.36"/><polygon class="cls-2" points="27.85 5.36 27.85 -5.36 18.57 -10.72 9.28 -5.36 9.28 5.36 18.57 10.72 27.85 5.36"/><polyline class="cls-2" points="0 -10.72 0 0 0 10.72"/><polyline class="cls-2" points="-9.28 -5.36 0 0 9.28 5.35 9.28 5.36"/><polyline class="cls-2" points="-9.28 5.36 -9.28 5.35 0 0 9.28 -5.36"/><polygon class="cls-2" points="9.28 5.36 9.28 -5.36 0 -10.72 -9.29 -5.36 -9.29 5.36 0 10.72 9.28 5.36"/></pattern><linearGradient id="未命名的渐变_119" x1="18.73" y1="33.56" x2="23.67" y2="25.01" gradientUnits="userSpaceOnUse"><stop offset="0" stop-color="#283140"/><stop offset="0.1" stop-color="#12161a"/><stop offset="0.75" stop-color="#7a98cc"/><stop offset="0.85" stop-color="#7a98cc"/><stop offset="1" stop-color="#38455a"/></linearGradient><linearGradient id="未命名的渐变_119-2" x1="18.99" y1="33.12" x2="23.93" y2="24.57" xlink:href="#未命名的渐变_119"/><linearGradient id="未命名的渐变_119-3" x1="19.24" y1="32.68" x2="24.18" y2="24.13" xlink:href="#未命名的渐变_119"/><linearGradient id="未命名的渐变_119-4" x1="19.5" y1="32.24" x2="24.44" y2="23.69" xlink:href="#未命名的渐变_119"/><linearGradient id="未命名的渐变_119-5" x1="19.76" y1="31.8" x2="24.7" y2="23.25" xlink:href="#未命名的渐变_119"/><linearGradient id="未命名的渐变_119-6" x1="20.02" y1="31.36" x2="24.95" y2="22.81" xlink:href="#未命名的渐变_119"/><linearGradient id="未命名的渐变_119-7" x1="20.27" y1="30.92" x2="25.21" y2="22.37" xlink:href="#未命名的渐变_119"/><linearGradient id="未命名的渐变_119-8" x1="20.53" y1="30.48" x2="25.47" y2="21.93" xlink:href="#未命名的渐变_119"/><linearGradient id="未命名的渐变_119-9" x1="20.79" y1="30.04" x2="25.73" y2="21.49" xlink:href="#未命名的渐变_119"/><linearGradient id="未命名的渐变_119-10" x1="21.04" y1="29.6" x2="25.98" y2="21.05" xlink:href="#未命名的渐变_119"/><linearGradient id="未命名的渐变_119-11" x1="21.3" y1="29.16" x2="26.24" y2="20.61" xlink:href="#未命名的渐变_119"/><linearGradient id="未命名的渐变_119-12" x1="21.56" y1="28.72" x2="26.5" y2="20.17" xlink:href="#未命名的渐变_119"/><linearGradient id="未命名的渐变_119-13" x1="21.81" y1="28.28" x2="26.75" y2="19.73" xlink:href="#未命名的渐变_119"/><linearGradient id="未命名的渐变_119-14" x1="22.07" y1="27.84" x2="27.01" y2="19.29" xlink:href="#未命名的渐变_119"/><linearGradient id="未命名的渐变_119-15" x1="22.33" y1="27.41" x2="27.27" y2="18.85" xlink:href="#未命名的渐变_119"/><linearGradient id="未命名的渐变_119-16" x1="22.58" y1="26.97" x2="27.52" y2="18.41" xlink:href="#未命名的渐变_119"/><linearGradient id="未命名的渐变_119-17" x1="22.84" y1="26.53" x2="27.78" y2="17.97" xlink:href="#未命名的渐变_119"/><linearGradient id="未命名的渐变_119-18" x1="23.1" y1="26.09" x2="28.04" y2="17.53" xlink:href="#未命名的渐变_119"/><linearGradient id="未命名的渐变_119-19" x1="23.35" y1="25.65" x2="28.29" y2="17.09" xlink:href="#未命名的渐变_119"/><linearGradient id="未命名的渐变_119-20" x1="23.61" y1="25.21" x2="28.55" y2="16.65" xlink:href="#未命名的渐变_119"/><linearGradient id="未命名的渐变_119-21" x1="23.87" y1="24.77" x2="28.81" y2="16.21" xlink:href="#未命名的渐变_119"/><linearGradient id="未命名的渐变_119-22" x1="24.13" y1="24.33" x2="29.06" y2="15.77" xlink:href="#未命名的渐变_119"/><linearGradient id="未命名的渐变_119-23" x1="24.38" y1="23.89" x2="29.32" y2="15.33" xlink:href="#未命名的渐变_119"/><linearGradient id="未命名的渐变_119-24" x1="24.64" y1="23.45" x2="29.58" y2="14.89" xlink:href="#未命名的渐变_119"/><linearGradient id="未命名的渐变_119-25" x1="24.9" y1="23.01" x2="29.84" y2="14.45" xlink:href="#未命名的渐变_119"/><linearGradient id="未命名的渐变_119-26" x1="25.15" y1="22.57" x2="30.09" y2="14.01" xlink:href="#未命名的渐变_119"/><linearGradient id="未命名的渐变_119-27" x1="25.41" y1="22.13" x2="30.35" y2="13.57" xlink:href="#未命名的渐变_119"/><linearGradient id="未命名的渐变_119-28" x1="25.67" y1="21.69" x2="30.61" y2="13.13" xlink:href="#未命名的渐变_119"/><linearGradient id="未命名的渐变_119-29" x1="25.92" y1="21.25" x2="30.86" y2="12.7" xlink:href="#未命名的渐变_119"/><linearGradient id="未命名的渐变_119-30" x1="26.18" y1="20.81" x2="31.12" y2="12.26" xlink:href="#未命名的渐变_119"/><linearGradient id="未命名的渐变_119-31" x1="26.44" y1="20.37" x2="31.38" y2="11.82" xlink:href="#未命名的渐变_119"/><linearGradient id="未命名的渐变_119-32" x1="26.69" y1="19.93" x2="31.63" y2="11.38" xlink:href="#未命名的渐变_119"/><linearGradient id="未命名的渐变_119-33" x1="26.95" y1="19.49" x2="31.89" y2="10.94" xlink:href="#未命名的渐变_119"/><linearGradient id="未命名的渐变_119-34" x1="27.21" y1="19.05" x2="32.15" y2="10.5" xlink:href="#未命名的渐变_119"/><linearGradient id="未命名的渐变_119-35" x1="27.47" y1="18.61" x2="32.4" y2="10.06" xlink:href="#未命名的渐变_119"/><linearGradient id="未命名的渐变_119-36" x1="27.72" y1="18.17" x2="32.66" y2="9.62" xlink:href="#未命名的渐变_119"/><linearGradient id="未命名的渐变_119-37" x1="27.98" y1="17.73" x2="32.92" y2="9.18" xlink:href="#未命名的渐变_119"/><linearGradient id="未命名的渐变_119-38" x1="28.24" y1="17.29" x2="33.18" y2="8.73" xlink:href="#未命名的渐变_119"/><linearGradient id="未命名的渐变_119-39" x1="28.52" y1="16.83" x2="33.46" y2="8.28" xlink:href="#未命名的渐变_119"/><linearGradient id="未命名的渐变_119-40" x1="28.81" y1="16.39" x2="33.75" y2="7.84" xlink:href="#未命名的渐变_119"/><linearGradient id="未命名的渐变_119-41" x1="29.12" y1="15.97" x2="34.06" y2="7.41" xlink:href="#未命名的渐变_119"/><linearGradient id="未命名的渐变_119-42" x1="29.44" y1="15.56" x2="34.38" y2="7" xlink:href="#未命名的渐变_119"/><linearGradient id="未命名的渐变_119-43" x1="29.78" y1="15.16" x2="34.71" y2="6.6" xlink:href="#未命名的渐变_119"/><linearGradient id="未命名的渐变_119-44" x1="30.12" y1="14.77" x2="35.06" y2="6.22" xlink:href="#未命名的渐变_119"/><linearGradient id="未命名的渐变_119-45" x1="30.48" y1="14.4" x2="35.42" y2="5.85" xlink:href="#未命名的渐变_119"/><linearGradient id="未命名的渐变_119-46" x1="30.84" y1="14.05" x2="35.78" y2="5.49" xlink:href="#未命名的渐变_119"/><linearGradient id="未命名的渐变_119-47" x1="31.22" y1="13.71" x2="36.16" y2="5.15" xlink:href="#未命名的渐变_119"/><linearGradient id="未命名的渐变_119-48" x1="31.61" y1="13.38" x2="36.55" y2="4.83" xlink:href="#未命名的渐变_119"/><linearGradient id="未命名的渐变_119-49" x1="32.01" y1="13.07" x2="36.95" y2="4.51" xlink:href="#未命名的渐变_119"/><linearGradient id="未命名的渐变_119-50" x1="32.42" y1="12.77" x2="37.36" y2="4.22" xlink:href="#未命名的渐变_119"/><linearGradient id="未命名的渐变_119-51" x1="32.83" y1="12.49" x2="37.77" y2="3.93" xlink:href="#未命名的渐变_119"/><linearGradient id="未命名的渐变_119-52" x1="33.26" y1="12.22" x2="38.2" y2="3.67" xlink:href="#未命名的渐变_119"/><linearGradient id="未命名的渐变_119-53" x1="33.69" y1="11.97" x2="38.63" y2="3.41" xlink:href="#未命名的渐变_119"/><linearGradient id="未命名的渐变_119-54" x1="34.13" y1="11.73" x2="39.07" y2="3.18" xlink:href="#未命名的渐变_119"/><linearGradient id="未命名的渐变_119-55" x1="34.58" y1="11.51" x2="39.52" y2="2.96" xlink:href="#未命名的渐变_119"/><linearGradient id="未命名的渐变_119-56" x1="35.04" y1="11.3" x2="39.98" y2="2.75" xlink:href="#未命名的渐变_119"/><linearGradient id="未命名的渐变_119-57" x1="35.5" y1="11.11" x2="40.44" y2="2.56" xlink:href="#未命名的渐变_119"/><linearGradient id="未命名的渐变_119-58" x1="35.96" y1="10.94" x2="40.9" y2="2.38" xlink:href="#未命名的渐变_119"/><linearGradient id="未命名的渐变_119-59" x1="36.44" y1="10.78" x2="41.37" y2="2.23" xlink:href="#未命名的渐变_119"/><linearGradient id="未命名的渐变_119-60" x1="36.91" y1="10.64" x2="41.85" y2="2.08" xlink:href="#未命名的渐变_119"/><linearGradient id="未命名的渐变_119-61" x1="37.39" y1="10.51" x2="42.33" y2="1.96" xlink:href="#未命名的渐变_119"/><linearGradient id="未命名的渐变_119-62" x1="37.88" y1="10.4" x2="42.82" y2="1.85" xlink:href="#未命名的渐变_119"/><linearGradient id="未命名的渐变_119-63" x1="38.37" y1="10.31" x2="43.31" y2="1.75" xlink:href="#未命名的渐变_119"/><linearGradient id="未命名的渐变_119-64" x1="38.86" y1="10.23" x2="43.8" y2="1.67" xlink:href="#未命名的渐变_119"/><linearGradient id="未命名的渐变_119-65" x1="39.36" y1="10.17" x2="44.3" y2="1.61" xlink:href="#未命名的渐变_119"/><linearGradient id="未命名的渐变_119-66" x1="39.85" y1="10.12" x2="44.79" y2="1.57" xlink:href="#未命名的渐变_119"/><linearGradient id="未命名的渐变_119-67" x1="40.35" y1="10.1" x2="45.29" y2="1.54" xlink:href="#未命名的渐变_119"/><linearGradient id="未命名的渐变_119-68" x1="40.85" y1="10.09" x2="45.79" y2="1.53" xlink:href="#未命名的渐变_119"/><linearGradient id="未命名的渐变_119-69" x1="41.36" y1="10.09" x2="46.29" y2="1.54" xlink:href="#未命名的渐变_119"/><linearGradient id="未命名的渐变_119-70" x1="41.86" y1="10.12" x2="46.8" y2="1.56" xlink:href="#未命名的渐变_119"/><linearGradient id="未命名的渐变_119-71" x1="42.36" y1="10.16" x2="47.3" y2="1.6" xlink:href="#未命名的渐变_119"/><linearGradient id="未命名的渐变_119-72" x1="42.86" y1="10.22" x2="47.8" y2="1.66" xlink:href="#未命名的渐变_119"/><linearGradient id="未命名的渐变_119-73" x1="43.36" y1="10.29" x2="48.3" y2="1.74" xlink:href="#未命名的渐变_119"/><linearGradient id="未命名的渐变_119-74" x1="43.86" y1="10.39" x2="48.8" y2="1.83" xlink:href="#未命名的渐变_119"/><linearGradient id="未命名的渐变_119-75" x1="44.36" y1="10.5" x2="49.3" y2="1.94" xlink:href="#未命名的渐变_119"/><linearGradient id="未命名的渐变_119-76" x1="44.86" y1="10.63" x2="49.8" y2="2.07" xlink:href="#未命名的渐变_119"/><linearGradient id="未命名的渐变_119-77" x1="45.35" y1="10.77" x2="50.29" y2="2.22" xlink:href="#未命名的渐变_119"/><linearGradient id="未命名的渐变_119-78" x1="45.84" y1="10.94" x2="50.78" y2="2.38" xlink:href="#未命名的渐变_119"/><linearGradient id="未命名的渐变_119-79" x1="46.33" y1="11.12" x2="51.27" y2="2.57" xlink:href="#未命名的渐变_119"/><linearGradient id="未命名的渐变_119-80" x1="46.81" y1="11.33" x2="51.75" y2="2.77" xlink:href="#未命名的渐变_119"/><linearGradient id="未命名的渐变_119-81" x1="47.29" y1="11.55" x2="52.23" y2="2.99" xlink:href="#未命名的渐变_119"/><linearGradient id="未命名的渐变_119-82" x1="47.76" y1="11.79" x2="52.7" y2="3.23" xlink:href="#未命名的渐变_119"/><linearGradient id="未命名的渐变_119-83" x1="48.23" y1="12.04" x2="53.17" y2="3.48" xlink:href="#未命名的渐变_119"/><linearGradient id="未命名的渐变_119-84" x1="48.67" y1="12.29" x2="53.61" y2="3.73" xlink:href="#未命名的渐变_119"/><linearGradient id="未命名的渐变_119-85" x1="49.12" y1="12.54" x2="54.06" y2="3.98" xlink:href="#未命名的渐变_119"/><linearGradient id="未命名的渐变_119-86" x1="49.56" y1="12.78" x2="54.5" y2="4.23" xlink:href="#未命名的渐变_119"/><linearGradient id="未命名的渐变_119-87" x1="50.01" y1="13.03" x2="54.95" y2="4.48" xlink:href="#未命名的渐变_119"/><linearGradient id="未命名的渐变_119-88" x1="50.45" y1="13.28" x2="55.39" y2="4.73" xlink:href="#未命名的渐变_119"/><linearGradient id="未命名的渐变_119-89" x1="50.89" y1="13.53" x2="55.83" y2="4.98" xlink:href="#未命名的渐变_119"/><linearGradient id="未命名的渐变_119-90" x1="51.34" y1="13.78" x2="56.28" y2="5.22" xlink:href="#未命名的渐变_119"/><linearGradient id="未命名的渐变_119-91" x1="51.78" y1="14.03" x2="56.72" y2="5.47" xlink:href="#未命名的渐变_119"/><linearGradient id="未命名的渐变_119-92" x1="52.23" y1="14.28" x2="57.17" y2="5.72" xlink:href="#未命名的渐变_119"/><linearGradient id="未命名的渐变_119-93" x1="52.67" y1="14.52" x2="57.61" y2="5.97" xlink:href="#未命名的渐变_119"/><linearGradient id="未命名的渐变_119-94" x1="53.12" y1="14.77" x2="58.06" y2="6.22" xlink:href="#未命名的渐变_119"/><linearGradient id="未命名的渐变_119-95" x1="53.56" y1="15.02" x2="58.5" y2="6.47" xlink:href="#未命名的渐变_119"/><linearGradient id="未命名的渐变_119-96" x1="54.01" y1="15.27" x2="58.95" y2="6.71" xlink:href="#未命名的渐变_119"/><linearGradient id="未命名的渐变_119-97" x1="54.45" y1="15.52" x2="59.39" y2="6.96" xlink:href="#未命名的渐变_119"/><linearGradient id="未命名的渐变_119-98" x1="54.9" y1="15.77" x2="59.83" y2="7.21" xlink:href="#未命名的渐变_119"/><linearGradient id="未命名的渐变_119-99" x1="55.34" y1="16.01" x2="60.28" y2="7.46" xlink:href="#未命名的渐变_119"/><linearGradient id="未命名的渐变_119-100" x1="55.78" y1="16.26" x2="60.72" y2="7.71" xlink:href="#未命名的渐变_119"/><linearGradient id="未命名的渐变_119-101" x1="56.23" y1="16.51" x2="61.17" y2="7.96" xlink:href="#未命名的渐变_119"/><linearGradient id="未命名的渐变_119-102" x1="56.67" y1="16.76" x2="61.61" y2="8.2" xlink:href="#未命名的渐变_119"/><linearGradient id="未命名的渐变_119-103" x1="57.12" y1="17.01" x2="62.06" y2="8.45" xlink:href="#未命名的渐变_119"/><linearGradient id="未命名的渐变_119-104" x1="57.56" y1="17.26" x2="62.5" y2="8.7" xlink:href="#未命名的渐变_119"/><linearGradient id="未命名的渐变_119-105" x1="58.01" y1="17.51" x2="62.95" y2="8.95" xlink:href="#未命名的渐变_119"/><linearGradient id="未命名的渐变_119-106" x1="58.45" y1="17.75" x2="63.39" y2="9.2" xlink:href="#未命名的渐变_119"/><linearGradient id="未命名的渐变_119-107" x1="58.9" y1="18" x2="63.83" y2="9.45" xlink:href="#未命名的渐变_119"/><linearGradient id="未命名的渐变_119-108" x1="59.34" y1="18.25" x2="64.28" y2="9.7" xlink:href="#未命名的渐变_119"/><linearGradient id="未命名的渐变_119-109" x1="59.78" y1="18.5" x2="64.72" y2="9.94" xlink:href="#未命名的渐变_119"/><linearGradient id="未命名的渐变_119-110" x1="60.23" y1="18.75" x2="65.17" y2="10.19" xlink:href="#未命名的渐变_119"/><linearGradient id="未命名的渐变_119-111" x1="60.67" y1="19" x2="65.61" y2="10.44" xlink:href="#未命名的渐变_119"/><linearGradient id="未命名的渐变_119-112" x1="61.12" y1="19.24" x2="66.06" y2="10.69" xlink:href="#未命名的渐变_119"/><linearGradient id="未命名的渐变_119-113" x1="61.56" y1="19.49" x2="66.5" y2="10.94" xlink:href="#未命名的渐变_119"/><linearGradient id="未命名的渐变_119-114" x1="62.01" y1="19.74" x2="66.95" y2="11.19" xlink:href="#未命名的渐变_119"/><linearGradient id="未命名的渐变_119-115" x1="62.45" y1="19.99" x2="67.39" y2="11.43" xlink:href="#未命名的渐变_119"/><linearGradient id="未命名的渐变_119-116" x1="62.9" y1="20.24" x2="67.83" y2="11.68" xlink:href="#未命名的渐变_119"/><linearGradient id="未命名的渐变_119-117" x1="63.34" y1="20.49" x2="68.28" y2="11.93" xlink:href="#未命名的渐变_119"/><linearGradient id="未命名的渐变_119-118" x1="63.78" y1="20.74" x2="68.72" y2="12.18" xlink:href="#未命名的渐变_119"/><linearGradient id="未命名的渐变_119-119" x1="64.23" y1="20.98" x2="69.17" y2="12.43" xlink:href="#未命名的渐变_119"/><linearGradient id="未命名的渐变_119-120" x1="64.67" y1="21.23" x2="69.61" y2="12.68" xlink:href="#未命名的渐变_119"/><linearGradient id="未命名的渐变_119-121" x1="65.12" y1="21.48" x2="70.06" y2="12.93" xlink:href="#未命名的渐变_119"/><linearGradient id="未命名的渐变_119-122" x1="65.56" y1="21.73" x2="70.5" y2="13.17" xlink:href="#未命名的渐变_119"/><linearGradient id="未命名的渐变_119-123" x1="66.01" y1="21.98" x2="70.95" y2="13.42" xlink:href="#未命名的渐变_119"/><linearGradient id="未命名的渐变_119-124" x1="66.45" y1="22.23" x2="71.39" y2="13.67" xlink:href="#未命名的渐变_119"/><linearGradient id="未命名的渐变_119-125" x1="66.9" y1="22.47" x2="71.83" y2="13.92" xlink:href="#未命名的渐变_119"/><linearGradient id="未命名的渐变_119-126" x1="67.34" y1="22.72" x2="72.28" y2="14.17" xlink:href="#未命名的渐变_119"/><linearGradient id="未命名的渐变_119-127" x1="67.78" y1="22.97" x2="72.72" y2="14.42" xlink:href="#未命名的渐变_119"/><linearGradient id="未命名的渐变_119-128" x1="68.23" y1="23.22" x2="73.17" y2="14.66" xlink:href="#未命名的渐变_119"/><linearGradient id="未命名的渐变_119-129" x1="68.67" y1="23.47" x2="73.61" y2="14.91" xlink:href="#未命名的渐变_119"/><linearGradient id="未命名的渐变_119-130" x1="69.12" y1="23.72" x2="74.06" y2="15.16" xlink:href="#未命名的渐变_119"/><linearGradient id="未命名的渐变_119-131" x1="31.67" y1="58.36" x2="13.47" y2="26.84" xlink:href="#未命名的渐变_119"/><linearGradient id="未命名的渐变_1822" x1="56.47" y1="36.84" x2="12.37" y2="62.3" gradientUnits="userSpaceOnUse"><stop offset="0" stop-color="#38455a"/><stop offset="0.28" stop-color="#7a98cc"/><stop offset="0.38" stop-color="#7a98cc"/><stop offset="0.9" stop-color="#12161a"/><stop offset="1" stop-color="#283140"/></linearGradient><linearGradient id="未命名的渐变_1815" x1="54.73" y1="30.34" x2="16" y2="69.07" gradientUnits="userSpaceOnUse"><stop offset="0" stop-color="#38455a"/><stop offset="0.2" stop-color="#89abe6"/><stop offset="0.3" stop-color="#89abe6"/><stop offset="1" stop-color="#283140"/></linearGradient><linearGradient id="未命名的渐变_1772" x1="74.32" y1="44.98" x2="26.34" y2="72.68" gradientUnits="userSpaceOnUse"><stop offset="0" stop-color="#38455a"/><stop offset="0.28" stop-color="#89abe6"/><stop offset="0.38" stop-color="#89abe6"/><stop offset="1" stop-color="#283140"/></linearGradient><linearGradient id="未命名的渐变_119-132" x1="8.28" y1="66.44" x2="36.05" y2="18.34" xlink:href="#未命名的渐变_119"/><linearGradient id="未命名的渐变_1815-2" x1="70.21" y1="39.34" x2="31.48" y2="78.07" xlink:href="#未命名的渐变_1815"/><linearGradient id="未命名的渐变_107" x1="55.33" y1="90.83" x2="92.25" y2="53.91" gradientUnits="userSpaceOnUse"><stop offset="0" stop-color="#283140"/><stop offset="0.34" stop-color="#232b37"/><stop offset="0.9" stop-color="#15191f"/><stop offset="1" stop-color="#12161a"/></linearGradient><linearGradient id="未命名的渐变_119-133" x1="21.89" y1="77.19" x2="52.11" y2="24.86" xlink:href="#未命名的渐变_119"/><linearGradient id="未命名的渐变_119-134" x1="69.15" y1="80.26" x2="78.29" y2="64.43" xlink:href="#未命名的渐变_119"/><linearGradient id="未命名的渐变_119-135" x1="43.32" y1="85.6" x2="70.04" y2="39.31" xlink:href="#未命名的渐变_119"/><linearGradient id="未命名的渐变_126" x1="116.65" y1="130" x2="75.17" y2="88.52" gradientUnits="userSpaceOnUse"><stop offset="0" stop-color="#425266"/><stop offset="1" stop-color="#596b8c"/></linearGradient><linearGradient id="未命名的渐变_256" x1="90.72" y1="109.39" x2="87.34" y2="106.01" xlink:href="#未命名的渐变_107"/><linearGradient id="未命名的渐变_256-2" x1="132.06" y1="122.37" x2="117.8" y2="108.11" xlink:href="#未命名的渐变_107"/><linearGradient id="未命名的渐变_119-136" x1="71.07" y1="91.26" x2="88.75" y2="60.64" xlink:href="#未命名的渐变_119"/><linearGradient id="未命名的渐变_107-2" x1="74.97" y1="92.38" x2="99.41" y2="67.94" xlink:href="#未命名的渐变_107"/><linearGradient id="未命名的渐变_119-137" x1="91.17" y1="101.92" x2="107.97" y2="72.82" xlink:href="#未命名的渐变_119"/><linearGradient id="未命名的渐变_107-3" x1="113.83" y1="114.97" x2="138.27" y2="90.52" xlink:href="#未命名的渐变_107"/><linearGradient id="未命名的渐变_107-4" x1="120.6" y1="113.77" x2="138.55" y2="95.81" xlink:href="#未命名的渐变_107"/><linearGradient id="未命名的渐变_119-138" x1="127.11" y1="109.31" x2="132.25" y2="100.41" xlink:href="#未命名的渐变_119"/><linearGradient id="未命名的渐变_119-139" x1="118.14" y1="113.18" x2="131.12" y2="90.69" xlink:href="#未命名的渐变_119"/><linearGradient id="未命名的渐变_119-140" x1="109.93" y1="113.84" x2="127.61" y2="83.22" xlink:href="#未命名的渐变_119"/><linearGradient id="未命名的渐变_178" x1="126.7" y1="119.86" x2="141.08" y2="94.95" gradientUnits="userSpaceOnUse"><stop offset="0" stop-color="#0073e6"/><stop offset="0.1" stop-color="#1433cc"/><stop offset="0.68" stop-color="#59c8ff"/><stop offset="0.88" stop-color="#59c8ff"/><stop offset="1" stop-color="#0073e6"/></linearGradient><linearGradient id="未命名的渐变_17280" x1="129.61" y1="110.83" x2="150" y2="110.83" gradientUnits="userSpaceOnUse"><stop offset="0" stop-color="#0073e6"/><stop offset="1" stop-color="#143ccc"/></linearGradient><linearGradient id="未命名的渐变_178-2" x1="139.22" y1="114.19" x2="142.44" y2="108.62" xlink:href="#未命名的渐变_178"/><linearGradient id="未命名的渐变_119-141" x1="46.34" y1="84.31" x2="38.8" y2="71.25" xlink:href="#未命名的渐变_119"/><linearGradient id="未命名的渐变_111" x1="40.33" y1="93.2" x2="22.44" y2="75.32" xlink:href="#未命名的渐变_126"/><linearGradient id="未命名的渐变_119-142" x1="45.51" y1="91.03" x2="32.57" y2="68.63" xlink:href="#未命名的渐变_119"/><linearGradient id="未命名的渐变_119-143" x1="33.54" y1="93.3" x2="24.67" y2="77.93" xlink:href="#未命名的渐变_119"/><linearGradient id="未命名的渐变_119-144" x1="42.42" y1="92.82" x2="29.49" y2="70.42" xlink:href="#未命名的渐变_119"/><linearGradient id="未命名的渐变_178-3" x1="-1.58" y1="103.16" x2="16.23" y2="72.32" gradientTransform="matrix(-1, 0, 0, 1, 33.02, 0)" xlink:href="#未命名的渐变_178"/><linearGradient id="未命名的渐变_126-2" x1="7.18" y1="91.14" x2="32.44" y2="91.14" xlink:href="#未命名的渐变_126"/><linearGradient id="未命名的渐变_94" x1="24.68" y1="100.05" x2="14.98" y2="83.24" gradientUnits="userSpaceOnUse"><stop offset="0" stop-color="#38455a"/><stop offset="0.15" stop-color="#7a98cc"/><stop offset="0.25" stop-color="#7a98cc"/><stop offset="0.9" stop-color="#12161a"/><stop offset="1" stop-color="#283140"/></linearGradient><linearGradient id="未命名的渐变_126-3" x1="107.1" y1="116.85" x2="74.83" y2="84.58" xlink:href="#未命名的渐变_126"/><linearGradient id="未命名的渐变_256-3" x1="112.01" y1="112.58" x2="109.2" y2="109.78" xlink:href="#未命名的渐变_107"/><linearGradient id="未命名的渐变_119-145" x1="76.08" y1="26.13" x2="65.03" y2="6.99" xlink:href="#未命名的渐变_119"/><linearGradient id="未命名的渐变_119-146" x1="72.76" y1="28.06" x2="61.71" y2="8.92" xlink:href="#未命名的渐变_119"/><linearGradient id="未命名的渐变_126-4" x1="70.87" y1="28.45" x2="55.6" y2="13.17" xlink:href="#未命名的渐变_126"/><linearGradient id="未命名的渐变_119-147" x1="57.23" y1="31.04" x2="51.38" y2="20.9" xlink:href="#未命名的渐变_119"/><linearGradient id="未命名的渐变_247" x1="21.38" y1="29.42" x2="29.11" y2="16.03" gradientUnits="userSpaceOnUse"><stop offset="0" stop-color="#8098c5"/><stop offset="0.75" stop-color="#a7c3f5"/><stop offset="0.85" stop-color="#a7c3f5"/><stop offset="1" stop-color="#526687"/></linearGradient><linearGradient id="未命名的渐变_107-5" x1="23.14" y1="30.18" x2="33.65" y2="19.67" xlink:href="#未命名的渐变_107"/><linearGradient id="未命名的渐变_119-148" x1="36.83" y1="26.94" x2="38.59" y2="23.89" xlink:href="#未命名的渐变_119"/><linearGradient id="未命名的渐变_107-6" x1="45.18" y1="31.65" x2="47.54" y2="29.28" xlink:href="#未命名的渐变_107"/><linearGradient id="未命名的渐变_247-2" x1="37.19" y1="36.47" x2="43.64" y2="25.3" xlink:href="#未命名的渐变_247"/><linearGradient id="未命名的渐变_107-7" x1="38.91" y1="37.26" x2="47.68" y2="28.49" xlink:href="#未命名的渐变_107"/><linearGradient id="未命名的渐变_119-149" x1="51.99" y1="35.77" x2="53.77" y2="32.7" xlink:href="#未命名的渐变_119"/><linearGradient id="未命名的渐变_107-8" x1="60.95" y1="40.83" x2="63.31" y2="38.47" xlink:href="#未命名的渐变_107"/><linearGradient id="未命名的渐变_247-3" x1="56.41" y1="52.56" x2="65.54" y2="36.75" xlink:href="#未命名的渐变_247"/><linearGradient id="未命名的渐变_107-9" x1="59.66" y1="46.36" x2="74.03" y2="46.36" xlink:href="#未命名的渐变_107"/><linearGradient id="未命名的渐变_313" x1="66.96" y1="45.76" x2="64.89" y2="43.69" gradientUnits="userSpaceOnUse"><stop offset="0" stop-color="#425266"/><stop offset="1" stop-color="#596b8c"/></linearGradient><linearGradient id="未命名的渐变_107-10" x1="66.3" y1="45.02" x2="69.49" y2="41.83" xlink:href="#未命名的渐变_107"/><linearGradient id="未命名的渐变_313-2" x1="66.77" y1="43.79" x2="65.07" y2="42.09" xlink:href="#未命名的渐变_313"/><linearGradient id="未命名的渐变_13" x1="65.74" y1="41.27" x2="68.79" y2="41.27" gradientUnits="userSpaceOnUse"><stop offset="0" stop-color="#89abe6"/><stop offset="1" stop-color="#547099"/></linearGradient><linearGradient id="未命名的渐变_119-150" x1="67.27" y1="45.17" x2="69.05" y2="42.09" xlink:href="#未命名的渐变_119"/><linearGradient id="未命名的渐变_107-11" x1="68" y1="45.48" x2="70.46" y2="43.02" xlink:href="#未命名的渐变_107"/><linearGradient id="未命名的渐变_119-151" x1="-63.08" y1="31.06" x2="-53.13" y2="31.06" gradientTransform="matrix(-1, 0, 0, 1, -45.99, 0)" xlink:href="#未命名的渐变_119"/><linearGradient id="未命名的渐变_112" x1="-64.3" y1="43.13" x2="-51.88" y2="43.13" gradientTransform="matrix(-1, 0, 0, 1, -45.99, 0)" xlink:href="#未命名的渐变_94"/><linearGradient id="未命名的渐变_329" x1="-70.18" y1="31.27" x2="-45.99" y2="31.27" gradientTransform="matrix(-1, 0, 0, 1, -45.99, 0)" gradientUnits="userSpaceOnUse"><stop offset="0" stop-color="#0073e6"/><stop offset="0.12" stop-color="#59c8ff"/><stop offset="0.32" stop-color="#59c8ff"/><stop offset="0.9" stop-color="#1433cc"/><stop offset="1" stop-color="#0073e6"/></linearGradient><linearGradient id="未命名的渐变_21" x1="-70.18" y1="26.68" x2="-45.99" y2="26.68" gradientTransform="matrix(-1, 0, 0, 1, -45.99, 0)" xlink:href="#未命名的渐变_13"/><linearGradient id="未命名的渐变_112-2" x1="-66.36" y1="28.85" x2="-49.81" y2="28.85" gradientTransform="matrix(-1, 0, 0, 1, -45.99, 0)" xlink:href="#未命名的渐变_94"/><linearGradient id="未命名的渐变_21-2" x1="-66.35" y1="26.12" x2="-49.81" y2="26.12" gradientTransform="matrix(-1, 0, 0, 1, -45.99, 0)" xlink:href="#未命名的渐变_13"/></defs><title>回流泵</title><g id="图层_2" data-name="图层 2"><g id="图元"><g id="回流泵"><g class="cls-3"><rect class="cls-4" width="150" height="150"/><rect id="网格" class="cls-5" width="150" height="150"/></g><g class="cls-6"><circle class="cls-7" cx="21.2" cy="29.28" r="4.94"/><circle class="cls-8" cx="21.46" cy="28.84" r="4.94"/><circle class="cls-9" cx="21.71" cy="28.4" r="4.94"/><circle class="cls-10" cx="21.97" cy="27.96" r="4.94"/><circle class="cls-11" cx="22.23" cy="27.52" r="4.94"/><circle class="cls-12" cx="22.48" cy="27.08" r="4.94"/><circle class="cls-13" cx="22.74" cy="26.64" r="4.94"/><circle class="cls-14" cx="23" cy="26.21" r="4.94"/><circle class="cls-15" cx="23.26" cy="25.77" r="4.94"/><circle class="cls-16" cx="23.51" cy="25.33" r="4.94"/><circle class="cls-17" cx="23.77" cy="24.89" r="4.94"/><circle class="cls-18" cx="24.03" cy="24.45" r="4.94"/><circle class="cls-19" cx="24.28" cy="24.01" r="4.94"/><circle class="cls-20" cx="24.54" cy="23.57" r="4.94"/><circle class="cls-21" cx="24.8" cy="23.13" r="4.94"/><circle class="cls-22" cx="25.05" cy="22.69" r="4.94"/><circle class="cls-23" cx="25.31" cy="22.25" r="4.94"/><circle class="cls-24" cx="25.57" cy="21.81" r="4.94"/><circle class="cls-25" cx="25.82" cy="21.37" r="4.94"/><circle class="cls-26" cx="26.08" cy="20.93" r="4.94"/><circle class="cls-27" cx="26.34" cy="20.49" r="4.94"/><circle class="cls-28" cx="26.6" cy="20.05" r="4.94"/><circle class="cls-29" cx="26.85" cy="19.61" r="4.94"/><circle class="cls-30" cx="27.11" cy="19.17" r="4.94"/><circle class="cls-31" cx="27.37" cy="18.73" r="4.94"/><circle class="cls-32" cx="27.62" cy="18.29" r="4.94"/><circle class="cls-33" cx="27.88" cy="17.85" r="4.94"/><circle class="cls-34" cx="28.14" cy="17.41" r="4.94"/><circle class="cls-35" cx="28.39" cy="16.97" r="4.94"/><circle class="cls-36" cx="28.65" cy="16.53" r="4.94"/><circle class="cls-37" cx="28.91" cy="16.09" r="4.94"/><circle class="cls-38" cx="29.16" cy="15.65" r="4.94"/><circle class="cls-39" cx="29.42" cy="15.21" r="4.94"/><circle class="cls-40" cx="29.68" cy="14.77" r="4.94"/><circle class="cls-41" cx="29.93" cy="14.33" r="4.94"/><circle class="cls-42" cx="30.19" cy="13.9" r="4.94"/><circle class="cls-43" cx="30.45" cy="13.46" r="4.94"/><circle class="cls-44" cx="30.71" cy="13.01" r="4.94"/><circle class="cls-45" cx="30.99" cy="12.56" r="4.94"/><circle class="cls-46" cx="31.28" cy="12.12" r="4.94"/><circle class="cls-47" cx="31.59" cy="11.69" r="4.94"/><circle class="cls-48" cx="31.91" cy="11.28" r="4.94"/><circle class="cls-49" cx="32.25" cy="10.88" r="4.94"/><circle class="cls-50" cx="32.59" cy="10.5" r="4.94"/><circle class="cls-51" cx="32.95" cy="10.13" r="4.94"/><circle class="cls-52" cx="33.31" cy="9.77" r="4.94"/><circle class="cls-53" cx="33.69" cy="9.43" r="4.94"/><circle class="cls-54" cx="34.08" cy="9.1" r="4.94"/><circle class="cls-55" cx="34.48" cy="8.79" r="4.94"/><circle class="cls-56" cx="34.89" cy="8.49" r="4.94"/><circle class="cls-57" cx="35.3" cy="8.21" r="4.94"/><circle class="cls-58" cx="35.73" cy="7.94" r="4.94"/><circle class="cls-59" cx="36.16" cy="7.69" r="4.94"/><circle class="cls-60" cx="36.6" cy="7.45" r="4.94"/><circle class="cls-61" cx="37.05" cy="7.23" r="4.94"/><circle class="cls-62" cx="37.51" cy="7.03" r="4.94"/><circle class="cls-63" cx="37.97" cy="6.84" r="4.94"/><circle class="cls-64" cx="38.43" cy="6.66" r="4.94"/><circle class="cls-65" cx="38.91" cy="6.5" r="4.94"/><circle class="cls-66" cx="39.38" cy="6.36" r="4.94"/><circle class="cls-67" cx="39.86" cy="6.23" r="4.94"/><circle class="cls-68" cx="40.35" cy="6.12" r="4.94"/><circle class="cls-69" cx="40.84" cy="6.03" r="4.94"/><circle class="cls-70" cx="41.33" cy="5.95" r="4.94"/><circle class="cls-71" cx="41.83" cy="5.89" r="4.94"/><circle class="cls-72" cx="42.32" cy="5.85" r="4.94"/><circle class="cls-73" cx="42.82" cy="5.82" r="4.94"/><circle class="cls-74" cx="43.32" cy="5.81" r="4.94"/><circle class="cls-75" cx="43.83" cy="5.81" r="4.94"/><circle class="cls-76" cx="44.33" cy="5.84" r="4.94"/><circle class="cls-77" cx="44.83" cy="5.88" r="4.94"/><circle class="cls-78" cx="45.33" cy="5.94" r="4.94"/><circle class="cls-79" cx="45.83" cy="6.01" r="4.94"/><circle class="cls-80" cx="46.33" cy="6.11" r="4.94"/><circle class="cls-81" cx="46.83" cy="6.22" r="4.94"/><circle class="cls-82" cx="47.33" cy="6.35" r="4.94"/><circle class="cls-83" cx="47.82" cy="6.5" r="4.94"/><circle class="cls-84" cx="48.31" cy="6.66" r="4.94"/><circle class="cls-85" cx="48.8" cy="6.85" r="4.94"/><circle class="cls-86" cx="49.28" cy="7.05" r="4.94"/><circle class="cls-87" cx="49.76" cy="7.27" r="4.94"/><circle class="cls-88" cx="50.23" cy="7.51" r="4.94"/><circle class="cls-89" cx="50.7" cy="7.76" r="4.94"/><circle class="cls-90" cx="51.14" cy="8.01" r="4.94"/><circle class="cls-91" cx="51.59" cy="8.26" r="4.94"/><circle class="cls-92" cx="52.03" cy="8.51" r="4.94"/><circle class="cls-93" cx="52.48" cy="8.76" r="4.94"/><circle class="cls-94" cx="52.92" cy="9" r="4.94"/><circle class="cls-95" cx="53.36" cy="9.25" r="4.94"/><circle class="cls-96" cx="53.81" cy="9.5" r="4.94"/><circle class="cls-97" cx="54.25" cy="9.75" r="4.94"/><circle class="cls-98" cx="54.7" cy="10" r="4.94"/><circle class="cls-99" cx="55.14" cy="10.25" r="4.94"/><circle class="cls-100" cx="55.59" cy="10.49" r="4.94"/><circle class="cls-101" cx="56.03" cy="10.74" r="4.94"/><circle class="cls-102" cx="56.48" cy="10.99" r="4.94"/><circle class="cls-103" cx="56.92" cy="11.24" r="4.94"/><circle class="cls-104" cx="57.36" cy="11.49" r="4.94"/><circle class="cls-105" cx="57.81" cy="11.74" r="4.94"/><circle class="cls-106" cx="58.25" cy="11.99" r="4.94"/><circle class="cls-107" cx="58.7" cy="12.23" r="4.94"/><circle class="cls-108" cx="59.14" cy="12.48" r="4.94"/><circle class="cls-109" cx="59.59" cy="12.73" r="4.94"/><circle class="cls-110" cx="60.03" cy="12.98" r="4.94"/><circle class="cls-111" cx="60.48" cy="13.23" r="4.94"/><circle class="cls-112" cx="60.92" cy="13.48" r="4.94"/><circle class="cls-113" cx="61.36" cy="13.72" r="4.94"/><circle class="cls-114" cx="61.81" cy="13.97" r="4.94"/><circle class="cls-115" cx="62.25" cy="14.22" r="4.94"/><circle class="cls-116" cx="62.7" cy="14.47" r="4.94"/><circle class="cls-117" cx="63.14" cy="14.72" r="4.94"/><circle class="cls-118" cx="63.59" cy="14.97" r="4.94"/><circle class="cls-119" cx="64.03" cy="15.22" r="4.94"/><circle class="cls-120" cx="64.48" cy="15.46" r="4.94"/><circle class="cls-121" cx="64.92" cy="15.71" r="4.94"/><circle class="cls-122" cx="65.37" cy="15.96" r="4.94"/><circle class="cls-123" cx="65.81" cy="16.21" r="4.94"/><circle class="cls-124" cx="66.25" cy="16.46" r="4.94"/><circle class="cls-125" cx="66.7" cy="16.71" r="4.94"/><circle class="cls-126" cx="67.14" cy="16.95" r="4.94"/><circle class="cls-127" cx="67.59" cy="17.2" r="4.94"/><circle class="cls-128" cx="68.03" cy="17.45" r="4.94"/><circle class="cls-129" cx="68.48" cy="17.7" r="4.94"/><circle class="cls-130" cx="68.92" cy="17.95" r="4.94"/><circle class="cls-131" cx="69.37" cy="18.2" r="4.94"/><circle class="cls-132" cx="69.81" cy="18.45" r="4.94"/><circle class="cls-133" cx="70.25" cy="18.69" r="4.94"/><circle class="cls-134" cx="70.7" cy="18.94" r="4.94"/><circle class="cls-135" cx="71.14" cy="19.19" r="4.94"/><circle class="cls-136" cx="71.59" cy="19.44" r="4.94"/><path class="cls-137" d="M22.83,21.44c10.08-5.61,18.13-.7,18,11S32.39,58.14,22.31,63.76s-18.14.7-18-11S12.75,27.06,22.83,21.44Z"/><path class="cls-138" d="M14.51,60.33c-.08,6.4,2.13,10.92,5.74,13,.45.24,1.07.54,1.54.74a9.32,9.32,0,0,0,1.13.37,12.22,12.22,0,0,0,3.3.4,16.71,16.71,0,0,0,2.91-.33,19,19,0,0,0,3.69-1.21,24.8,24.8,0,0,0,3.57-1.92,32.06,32.06,0,0,0,3.17-2.34,37.67,37.67,0,0,0,2.93-2.74,39,39,0,0,0,2.67-3.07c.8-1,2.1-2.85,2.41-3.34a49.34,49.34,0,0,0,3-5.4s.81-1.66,1.58-3.75c.63-1.71.94-2.86,1.19-3.79a32.68,32.68,0,0,0,1.1-7.76,21.32,21.32,0,0,0-.95-6.82A13.78,13.78,0,0,0,51.22,28a11.78,11.78,0,0,0-1.3-1.37,11.14,11.14,0,0,0-1.78-1.3c-3.5-2-8.32-1.8-13.67,1.18C23.6,32.6,14.66,47.72,14.51,60.33Zm2.85,0C17.51,48.67,25.79,34.64,35.88,29s18.13-.7,18,11S45.44,65.72,35.36,71.34,17.22,72,17.36,60.36Z"/><path class="cls-139" d="M14.51,60.33c-.08,6.4,2.13,10.92,5.74,13,.45.24,1.07.54,1.54.74a9.32,9.32,0,0,0,1.13.37,12.22,12.22,0,0,0,3.3.4,16.71,16.71,0,0,0,2.91-.33,19,19,0,0,0,3.69-1.21,24.8,24.8,0,0,0,3.57-1.92,32.06,32.06,0,0,0,3.17-2.34,37.67,37.67,0,0,0,2.93-2.74,39,39,0,0,0,2.67-3.07c.8-1,2.1-2.85,2.41-3.34a49.34,49.34,0,0,0,3-5.4s.81-1.66,1.58-3.75c.63-1.71.94-2.86,1.19-3.79a32.68,32.68,0,0,0,1.1-7.76,21.32,21.32,0,0,0-.95-6.82A13.78,13.78,0,0,0,51.22,28a11.78,11.78,0,0,0-1.3-1.37,11.14,11.14,0,0,0-1.78-1.3c-3.5-2-8.32-1.8-13.67,1.18C23.6,32.6,14.66,47.72,14.51,60.33Zm2.85,0C17.51,48.67,25.79,34.64,35.88,29s18.13-.7,18,11S45.44,65.72,35.36,71.34,17.22,72,17.36,60.36Z"/><path class="cls-140" d="M36.45,27.49c9.22-5.14,16.89-2.18,19,6.46l.37,1.51c-2-8.23-9.32-11.06-18.12-6.16C27.25,35.13,18.65,49.68,18.5,61.8c-.13,10.38,6,15.61,14.32,13.24l-.15,0-.08,0-.15.05-.15,0-.07,0-.15,0-.15,0-.08,0-.15,0-.15,0-.07,0-.15,0c-8.74,2.49-15.15-3-15-13.89C16.46,48.86,25.48,33.6,36.45,27.49Z"/><path class="cls-141" d="M28.67,70.54c-.08,7,2.32,11.88,6.25,14.17.49.26,1.16.59,1.68.8a7.73,7.73,0,0,0,1.26.41,13.29,13.29,0,0,0,3.59.43A17.49,17.49,0,0,0,44.61,86a20.84,20.84,0,0,0,4-1.31,24.22,24.22,0,0,0,3.86-2.09A33.17,33.17,0,0,0,55.92,80a37,37,0,0,0,3.19-3A42,42,0,0,0,62,73.72c.87-1.07,2.28-3.11,2.61-3.64a50.42,50.42,0,0,0,3.3-5.87s.87-1.77,1.73-4.1c.44-1.21,1-2.86,1.29-4.11a35.8,35.8,0,0,0,1.19-8.44,23.63,23.63,0,0,0-1-7.42,14.94,14.94,0,0,0-2.51-4.75A13.56,13.56,0,0,0,67.2,33.9a12.13,12.13,0,0,0-1.94-1.41c-3.8-2.21-9.05-2-14.86,1.28C38.57,40.37,28.84,56.83,28.67,70.54Zm3.11,0c.15-12.71,9.17-28,20.14-34.09s19.74-.76,19.58,12-9.17,28-20.14,34.09S31.62,83.28,31.78,70.57Z"/><path class="cls-139" d="M28.67,70.54c-.08,7,2.32,11.88,6.25,14.17.49.26,1.16.59,1.68.8a7.73,7.73,0,0,0,1.26.41,13.29,13.29,0,0,0,3.59.43A17.49,17.49,0,0,0,44.61,86a20.84,20.84,0,0,0,4-1.31,24.22,24.22,0,0,0,3.86-2.09A33.17,33.17,0,0,0,55.92,80a37,37,0,0,0,3.19-3A42,42,0,0,0,62,73.72c.87-1.07,2.28-3.11,2.61-3.64a50.42,50.42,0,0,0,3.3-5.87s.87-1.77,1.73-4.1c.44-1.21,1-2.86,1.29-4.11a35.8,35.8,0,0,0,1.19-8.44,23.63,23.63,0,0,0-1-7.42,14.94,14.94,0,0,0-2.51-4.75A13.56,13.56,0,0,0,67.2,33.9a12.13,12.13,0,0,0-1.94-1.41c-3.8-2.21-9.05-2-14.86,1.28C38.57,40.37,28.84,56.83,28.67,70.54Zm3.11,0c.15-12.71,9.17-28,20.14-34.09s19.74-.76,19.58,12-9.17,28-20.14,34.09S31.62,83.28,31.78,70.57Z"/><path class="cls-142" d="M24.27,20.61c5.35-3,10.17-3.21,13.66-1.18l10.21,5.93c-3.5-2-8.32-1.8-13.67,1.18-10.87,6.06-19.81,21.18-20,33.79-.08,6.4,2.13,10.92,5.74,13l-10.2-5.93c-3.62-2.1-5.82-6.62-5.74-13C4.46,41.8,13.4,26.67,24.27,20.61Z"/><path class="cls-143" d="M51.92,36.48c9.25-5.15,16.93-2.16,19,6.52l.36,1.51c-2-8.28-9.31-11.14-18.13-6.22C42.71,44.12,34.11,58.67,34,70.79,33.84,81.2,40,86.43,48.34,84l-.15,0-.07,0-.15.05-.15,0-.07,0-.15,0-.15,0-.07,0-.15,0-.15,0-.07,0-.15,0c-8.77,2.54-15.22-3-15.08-13.87C31.93,57.86,41,42.59,51.92,36.48Z"/><path class="cls-144" d="M54.85,82.92c-.15,12.13,8.21,17.23,18.67,11.4s19-20.38,19.2-32.5S84.51,44.6,74.05,50.42,55,70.8,54.85,82.92ZM67.31,76a14.25,14.25,0,0,1,6.57-11.12c3.58-2,6.43-.24,6.38,3.9a14.21,14.21,0,0,1-6.57,11.12C70.12,81.87,67.26,80.13,67.31,76Z"/><path class="cls-145" d="M39.29,27.32C45.1,24.08,50.35,23.83,54.15,26l11.11,6.45c-3.8-2.21-9.05-2-14.86,1.28-11.83,6.6-21.56,23.06-21.73,36.77-.08,7,2.32,11.88,6.25,14.17L23.81,78.26c-3.93-2.29-6.33-7.21-6.25-14.18C17.73,50.37,27.46,33.91,39.29,27.32Z"/><path class="cls-146" d="M73.88,64.86c1.76-1,3.34-1,4.49-.38l4.44,2.57c-1.15-.67-2.74-.59-4.5.39a14.24,14.24,0,0,0-6.57,11.12c0,2.11.7,3.59,1.89,4.29L69.2,80.27C68,79.58,67.28,78.09,67.31,76A14.25,14.25,0,0,1,73.88,64.86Z"/><path class="cls-147" d="M53.17,38.29c5.14-2.87,9.78-3.09,13.14-1.14L87.2,49.29c-3.37-1.95-8-1.73-13.15,1.13C63.6,56.25,55,70.8,54.85,82.92c-.07,6.16,2,10.51,5.52,12.53L39.49,83.32C36,81.29,33.89,77,34,70.79,34.11,58.67,42.71,44.12,53.17,38.29Z"/><g class="cls-6"><polygon class="cls-148" points="103.95 104.62 103.96 105.85 102.02 111.75 102.01 110.52 103.95 104.62"/><polygon class="cls-149" points="76.6 120.41 76.6 121.64 63.3 113.91 63.3 112.68 76.6 120.41"/><polygon class="cls-150" points="86.78 119.31 86.79 120.54 76.6 121.64 76.6 120.41 86.78 119.31"/><polygon class="cls-149" points="105.31 130.08 105.31 131.31 86.79 120.54 86.78 119.31 105.31 130.08"/><polygon class="cls-151" points="90.65 96.89 103.95 104.62 102.01 110.52 120.54 121.29 130.73 120.18 142.76 127.17 115.4 142.96 103.38 135.97 105.31 130.08 86.78 119.31 76.6 120.41 63.3 112.68 90.65 96.89"/><polygon class="cls-149" points="115.4 142.96 115.41 144.19 103.38 137.2 103.38 135.97 115.4 142.96"/><polygon class="cls-148" points="142.76 127.17 142.76 128.4 115.41 144.19 115.4 142.96 142.76 127.17"/></g><g class="cls-6"><path class="cls-152" d="M76.22,87.48l-.06,20.8L115.61,131l0-20.8ZM99.9,116.4l-10.26-5.92V104.9l10.26,5.93Z"/><g class="cls-6"><polygon class="cls-153" points="89.65 104.91 89.64 110.48 88.86 110.93 88.88 104.47 89.65 104.91"/><polygon class="cls-154" points="99.89 116.4 99.89 117.29 88.86 110.93 89.64 110.48 99.89 116.4"/></g><polygon class="cls-155" points="115.66 110.24 115.6 131.04 134.2 120.24 134.25 99.44 115.66 110.24"/><polygon class="cls-156" points="94.82 76.67 76.22 87.47 115.66 110.24 134.25 99.44 94.82 76.67"/></g><g class="cls-6"><polygon class="cls-148" points="120.48 113.77 137.56 103.91 142.76 127.17 115.41 142.96 120.48 113.77"/><polygon class="cls-150" points="119.42 113.16 120.48 113.77 115.41 142.96 114.35 142.34 119.42 113.16"/><polygon class="cls-151" points="136.49 103.3 137.56 103.91 120.48 113.77 119.42 113.16 136.49 103.3"/></g><g class="cls-6"><polygon class="cls-148" points="91.44 96.26 76.22 87.47 76.17 106.47 64.35 113.3 69.43 84.11 86.5 74.25 91.44 96.26"/><polygon class="cls-150" points="68.37 83.49 69.43 84.11 64.36 113.3 63.3 112.68 68.37 83.49"/><polygon class="cls-151" points="85.44 73.63 86.5 74.25 69.43 84.11 68.37 83.49 85.44 73.63"/></g><path class="cls-157" d="M81.63,62.3c3.4-1.9,6.47-2,8.7-.75l5.74,3.33c-2.23-1.29-5.3-1.14-8.7.75-6.93,3.86-12.62,13.49-12.72,21.52-.05,4.07,1.36,6.95,3.66,8.29L72.57,92.1c-2.3-1.33-3.7-4.21-3.65-8.29C69,75.79,74.71,66.15,81.63,62.3Z"/><path class="cls-158" d="M74.65,87.15c-.09,8,5.44,11.4,12.36,7.54S99.63,81.2,99.72,73.18s-5.43-11.41-12.35-7.55S74.75,79.12,74.65,87.15Zm.66-.37c.09-7.6,5.49-16.73,12-20.39s11.8-.46,11.71,7.15S93.58,90.28,87,93.93,75.21,94.39,75.31,86.78Z"/><path class="cls-159" d="M87.36,66.39c3.22-1.8,6.13-1.94,8.24-.71l33.13,19.25c-2.11-1.23-5-1.09-8.25.71-6.56,3.65-12,12.79-12,20.39-.05,3.87,1.28,6.59,3.47,7.86L78.77,94.64c-2.18-1.26-3.51-4-3.46-7.86C75.4,79.18,80.8,70.05,87.36,66.39Z"/><path class="cls-160" d="M113.52,109.73c-.1,8,5.43,11.4,12.35,7.54s12.62-13.49,12.72-21.51-5.44-11.4-12.36-7.54S113.61,101.71,113.52,109.73ZM117,108c.07-5.9,4.25-13,9.34-15.81s9.15-.35,9.08,5.54-4.26,13-9.34,15.81S116.89,113.84,117,108Z"/><path class="cls-161" d="M120.36,109.92c-.07,5.9,4,8.38,9.08,5.54s9.27-9.91,9.34-15.8-4-8.38-9.08-5.54S120.44,104,120.36,109.92Zm5.57-3.1a8,8,0,0,1,3.69-6.25c2-1.12,3.62-.14,3.59,2.19a8,8,0,0,1-3.69,6.25C127.51,110.13,125.9,109.15,125.93,106.82Z"/><path class="cls-162" d="M129.62,100.57a2.56,2.56,0,0,1,2.53-.22l2.78,1.61a2.56,2.56,0,0,0-2.53.22,8,8,0,0,0-3.69,6.25,2.56,2.56,0,0,0,1.06,2.41L127,109.23a2.59,2.59,0,0,1-1.06-2.41A8,8,0,0,1,129.62,100.57Z"/><path class="cls-163" d="M126.3,92.14c2.5-1.39,4.75-1.5,6.39-.55l3.4,2c-1.63-.95-3.89-.84-6.39.55-5.08,2.83-9.26,9.91-9.34,15.8,0,3,1,5.11,2.69,6.1l-3.4-2c-1.69-1-2.73-3.1-2.69-6.09C117,102.05,121.21,95,126.3,92.14Z"/><path class="cls-164" d="M120.49,84.88c3.4-1.9,6.47-2,8.7-.75l5.74,3.34c-2.23-1.3-5.3-1.15-8.7.75-6.92,3.85-12.62,13.49-12.71,21.51,0,4.08,1.35,7,3.65,8.29l-5.74-3.33c-2.3-1.34-3.7-4.22-3.65-8.3C107.88,98.37,113.57,88.74,120.49,84.88Z"/><g class="cls-6"><path class="cls-165" d="M142.37,95.7c-1.85-1.08-4.42-.93-7.25.71C129.49,99.66,124.94,107.55,125,114c0,3.21,1.14,5.47,3,6.54l4.65,2.7c-1.83-1.07-3-3.33-3-6.54,0-6.47,4.53-14.36,10.16-17.61,2.83-1.64,5.4-1.79,7.25-.71Z"/><path class="cls-166" d="M139.77,99.11c-5.63,3.25-10.18,11.14-10.16,17.61s4.6,9.08,10.22,5.83S150,111.42,150,105,145.4,95.85,139.77,99.11Zm-7.41,11.09a1.73,1.73,0,0,1,.67-.85.68.68,0,0,1,.4-.1c.37,0,.5.5.28,1.06a1.62,1.62,0,0,1-.67.83.65.65,0,0,1-.39.11C132.27,111.22,132.15,110.74,132.36,110.2Zm-1.14,5.59a1.72,1.72,0,0,1,.78-1.35c.44-.25.78,0,.78.45a1.71,1.71,0,0,1-.77,1.34C131.58,116.48,131.23,116.28,131.22,115.79Zm2.24,4a1.48,1.48,0,0,1-.39.34c-.27.16-.53.15-.68,0a1.33,1.33,0,0,1,.28-1.39,1.37,1.37,0,0,1,.39-.35c.27-.16.53-.14.67.07A1.29,1.29,0,0,1,133.46,119.76Zm2-15a1.34,1.34,0,0,1,.39-.34c.27-.16.53-.15.67.06s.1.92-.28,1.38a1.23,1.23,0,0,1-.39.34c-.27.16-.53.15-.68,0A1.34,1.34,0,0,1,135.49,104.77Zm1.11,16.14a1.64,1.64,0,0,1-.67.82.67.67,0,0,1-.39.11c-.38,0-.5-.51-.29-1.06a1.66,1.66,0,0,1,.68-.84.62.62,0,0,1,.38-.1C136.69,119.87,136.82,120.35,136.6,120.91ZM139.77,101c.44-.25.79-.07.79.44a1.74,1.74,0,0,1-.78,1.35c-.43.25-.78,0-.78-.44A1.72,1.72,0,0,1,139.77,101Zm.06,19.71c-.43.25-.78,0-.78-.44a1.74,1.74,0,0,1,.77-1.35c.44-.25.79-.06.79.44A1.74,1.74,0,0,1,139.83,120.69ZM143,100.77a1.74,1.74,0,0,1,.68-.85.67.67,0,0,1,.39-.11c.38,0,.5.52.29,1.07a1.73,1.73,0,0,1-.68.83.65.65,0,0,1-.39.11C142.92,101.79,142.79,101.31,143,100.77Zm1.12,16.11a1.47,1.47,0,0,1-.4.36c-.27.15-.53.14-.67,0a1.32,1.32,0,0,1,.28-1.4,1.39,1.39,0,0,1,.39-.35c.27-.16.54-.15.68.06A1.29,1.29,0,0,1,144.12,116.88Zm2-15a1.42,1.42,0,0,1,.4-.35.47.47,0,0,1,.67.07,1.31,1.31,0,0,1-.28,1.38,1.48,1.48,0,0,1-.39.34c-.27.16-.53.15-.68,0A1.33,1.33,0,0,1,146.15,101.9Zm1.1,9.57a1.76,1.76,0,0,1-.68.84.71.71,0,0,1-.39.1c-.37,0-.5-.51-.29-1a1.74,1.74,0,0,1,.68-.85.71.71,0,0,1,.39-.1C147.34,110.44,147.46,110.92,147.25,111.47Zm.36-4.25c-.44.26-.79.06-.79-.44a1.74,1.74,0,0,1,.78-1.35c.43-.24.78-.05.79.45A1.7,1.7,0,0,1,147.61,107.22Z"/><g class="cls-6"><path d="M141.4,108.14a1.9,1.9,0,0,0-1.19.29,5,5,0,0,0-2.27,3.94,1.94,1.94,0,0,0,.33,1.15,1,1,0,0,0,.34.32,1.6,1.6,0,0,0,1.62-.16,5,5,0,0,0,2.27-3.94,1.56,1.56,0,0,0-.66-1.46,1,1,0,0,0-.42-.14"/><path class="cls-167" d="M141.84,108.28a1,1,0,0,0-.42-.14,1.94,1.94,0,0,1,.31,1.15,5,5,0,0,1-2.28,3.94,1.81,1.81,0,0,1-1.18.29,1,1,0,0,0,.34.32,1.6,1.6,0,0,0,1.62-.16,5,5,0,0,0,2.27-3.94A1.56,1.56,0,0,0,141.84,108.28Z"/><path class="cls-168" d="M141.84,108.28a1,1,0,0,0-.42-.14,1.94,1.94,0,0,1,.31,1.15,5,5,0,0,1-2.28,3.94,1.81,1.81,0,0,1-1.18.29,1,1,0,0,0,.34.32,1.6,1.6,0,0,0,1.62-.16,5,5,0,0,0,2.27-3.94A1.56,1.56,0,0,0,141.84,108.28Z"/><path class="cls-169" d="M141.84,108.28a1,1,0,0,0-.42-.14,1.94,1.94,0,0,1,.31,1.15,5,5,0,0,1-2.28,3.94,1.81,1.81,0,0,1-1.18.29,1,1,0,0,0,.34.32,1.6,1.6,0,0,0,1.62-.16,5,5,0,0,0,2.27-3.94A1.56,1.56,0,0,0,141.84,108.28Z"/></g><path class="cls-4" d="M132.36,110.2a1.73,1.73,0,0,1,.67-.85.68.68,0,0,1,.4-.1c.37,0,.5.5.28,1.06a1.62,1.62,0,0,1-.67.83.65.65,0,0,1-.39.11C132.27,111.22,132.15,110.74,132.36,110.2Zm-1.14,5.59a1.72,1.72,0,0,1,.78-1.35c.44-.25.78,0,.78.45a1.71,1.71,0,0,1-.77,1.34C131.58,116.48,131.23,116.28,131.22,115.79Zm2.24,4a1.48,1.48,0,0,1-.39.34c-.27.16-.53.15-.68,0a1.33,1.33,0,0,1,.28-1.39,1.37,1.37,0,0,1,.39-.35c.27-.16.53-.14.67.07A1.29,1.29,0,0,1,133.46,119.76Zm2-15a1.34,1.34,0,0,1,.39-.34c.27-.16.53-.15.67.06s.1.92-.28,1.38a1.23,1.23,0,0,1-.39.34c-.27.16-.53.15-.68,0A1.34,1.34,0,0,1,135.49,104.77Zm1.11,16.14a1.64,1.64,0,0,1-.67.82.67.67,0,0,1-.39.11c-.38,0-.5-.51-.29-1.06a1.66,1.66,0,0,1,.68-.84.62.62,0,0,1,.38-.1C136.69,119.87,136.82,120.35,136.6,120.91ZM139.77,101c.44-.25.79-.07.79.44a1.74,1.74,0,0,1-.78,1.35c-.43.25-.78,0-.78-.44A1.72,1.72,0,0,1,139.77,101Zm.06,19.71c-.43.25-.78,0-.78-.44a1.74,1.74,0,0,1,.77-1.35c.44-.25.79-.06.79.44A1.74,1.74,0,0,1,139.83,120.69ZM143,100.77a1.74,1.74,0,0,1,.68-.85.67.67,0,0,1,.39-.11c.38,0,.5.52.29,1.07a1.73,1.73,0,0,1-.68.83.65.65,0,0,1-.39.11C142.92,101.79,142.79,101.31,143,100.77Zm1.12,16.11a1.47,1.47,0,0,1-.4.36c-.27.15-.53.14-.67,0a1.32,1.32,0,0,1,.28-1.4,1.39,1.39,0,0,1,.39-.35c.27-.16.54-.15.68.06A1.29,1.29,0,0,1,144.12,116.88Zm2-15a1.42,1.42,0,0,1,.4-.35.47.47,0,0,1,.67.07,1.31,1.31,0,0,1-.28,1.38,1.48,1.48,0,0,1-.39.34c-.27.16-.53.15-.68,0A1.33,1.33,0,0,1,146.15,101.9Zm1.1,9.57a1.76,1.76,0,0,1-.68.84.71.71,0,0,1-.39.1c-.37,0-.5-.51-.29-1a1.74,1.74,0,0,1,.68-.85.71.71,0,0,1,.39-.1C147.34,110.44,147.46,110.92,147.25,111.47Zm.36-4.25c-.44.26-.79.06-.79-.44a1.74,1.74,0,0,1,.78-1.35c.43-.24.78-.05.79.45A1.7,1.7,0,0,1,147.61,107.22Z"/></g><g class="cls-6"><path class="cls-170" d="M44.29,71.05a3.51,3.51,0,0,0-3.24-.38L40.3,71l-.37.18-.75.37-.76.36-.37.18-.75.36-.75.36-.38.18-.75.36-.75.37-.38.18-.75.36a3.84,3.84,0,0,1,3.54.41,11.76,11.76,0,0,1,5.43,9.19,3.94,3.94,0,0,1-1.39,3.44L48,82.59a3.57,3.57,0,0,0,1.27-3.14A10.74,10.74,0,0,0,44.29,71.05Z"/><path class="cls-4" d="M34.34,71.84c-5.07-2.82-9.11-.35-9,5.52s4.24,12.92,9.3,15.74,9.11.35,9-5.52S39.41,74.66,34.34,71.84Zm.21,17a12.12,12.12,0,0,1-5.61-9.49c0-3.54,2.4-5,5.45-3.33A12.12,12.12,0,0,1,40,85.55C40,89.09,37.6,90.58,34.55,88.88Z"/><path class="cls-171" d="M31.26,73.63c-5.07-2.82-9.12-.35-9,5.52s4.24,12.92,9.31,15.74,9.11.35,9-5.52S36.32,76.45,31.26,73.63Zm.21,17.28a12.57,12.57,0,0,1-5.82-9.85c0-3.67,2.49-5.21,5.65-3.45a12.6,12.6,0,0,1,5.82,9.85C37.17,91.13,34.64,92.68,31.47,90.91Z"/><path class="cls-172" d="M37,70.28c-2.49-1.39-4.74-1.5-6.37-.55L28,71.29c1.63-1,3.88-.84,6.37.55,5.07,2.82,9.23,9.87,9.3,15.74,0,3-1,5.09-2.67,6.07l2.68-1.56c1.69-1,2.71-3.09,2.68-6.07C46.26,80.15,42.09,73.1,37,70.28Z"/><path class="cls-173" d="M31.3,77.61a4.13,4.13,0,0,0-3.79-.44l-.92.44-.46.22-.92.45-.92.44-.46.22-.92.44-.92.44-.46.23-.92.44-.92.44-.46.22-.92.44a4.58,4.58,0,0,1,4.17.49A13.84,13.84,0,0,1,28.87,92.9a4.61,4.61,0,0,1-1.64,4l8.4-5.8a4.16,4.16,0,0,0,1.49-3.68A12.6,12.6,0,0,0,31.3,77.61Z"/><path class="cls-174" d="M33.93,72.08c-2.49-1.39-4.73-1.5-6.36-.55l-2.68,1.55c1.63-.94,3.88-.84,6.37.55,5.06,2.82,9.23,9.87,9.3,15.74,0,3-1,5.09-2.68,6.07l2.68-1.55c1.68-1,2.71-3.09,2.68-6.07C43.16,82,39,74.9,33.93,72.08Z"/><g class="cls-6"><path class="cls-175" d="M13.75,74.07c2.29-1.33,5.47-1.15,9,.88,7,4,12.61,13.8,12.58,21.81,0,4-1.41,6.79-3.68,8.1l-2.88,1.68c2.27-1.32,3.67-4.12,3.69-8.1,0-8-5.61-17.79-12.59-21.82-3.51-2-6.69-2.21-9-.87Z"/><path class="cls-176" d="M7.18,83.86c0,8,5.61,17.76,12.59,21.8s12.64.79,12.67-7.22S26.83,80.65,19.85,76.62,7.2,75.84,7.18,83.86Zm21.49,7.8a.79.79,0,0,1-.48-.13,2,2,0,0,1-.83-1c-.27-.69-.11-1.27.35-1.32a.86.86,0,0,1,.49.13,2.09,2.09,0,0,1,.83,1C29.29,91,29.14,91.63,28.67,91.66Zm.8,6.18a2.11,2.11,0,0,1-1-1.67c0-.62.42-.86,1-.55a2.11,2.11,0,0,1,1,1.66C30.43,97.89,30,98.14,29.47,97.84Zm-2.14,2.65c.17-.26.5-.28.83-.09a1.94,1.94,0,0,1,.48.44,1.6,1.6,0,0,1,.35,1.72c-.18.25-.5.26-.84.07a1.71,1.71,0,0,1-.48-.43A1.59,1.59,0,0,1,27.33,100.49ZM25.51,85.36c-.19.25-.51.26-.85.06a1.66,1.66,0,0,1-.48-.42,1.56,1.56,0,0,1-.34-1.71c.18-.26.5-.27.83-.08a1.71,1.71,0,0,1,.48.43A1.64,1.64,0,0,1,25.51,85.36ZM24.13,102.3a.79.79,0,0,1,.48.13,2.07,2.07,0,0,1,.84,1c.26.68.11,1.28-.36,1.31a1,1,0,0,1-.49-.13,2.09,2.09,0,0,1-.82-1C23.51,102.93,23.66,102.34,24.13,102.3ZM20.81,80.61c0,.61-.44.86-1,.55a2.13,2.13,0,0,1-1-1.67c0-.63.44-.86,1-.55A2.11,2.11,0,0,1,20.81,80.61Zm-2,21.08c0-.62.43-.86,1-.55a2.14,2.14,0,0,1,1,1.67c0,.61-.44.85-1,.55A2.1,2.1,0,0,1,18.81,101.69ZM15.49,80a.93.93,0,0,1-.49-.13,2.12,2.12,0,0,1-.83-1c-.27-.69-.11-1.28.35-1.32a.79.79,0,0,1,.49.13,2.11,2.11,0,0,1,.84,1.05C16.11,79.35,16,79.94,15.49,80Zm-1.37,17c.17-.26.5-.27.84-.08a1.89,1.89,0,0,1,.48.43A1.67,1.67,0,0,1,15.79,99c-.18.24-.5.25-.84.06a2.16,2.16,0,0,1-.49-.44A1.59,1.59,0,0,1,14.12,96.93ZM12.3,81.81a.63.63,0,0,1-.85.06,1.71,1.71,0,0,1-.48-.43,1.62,1.62,0,0,1-.35-1.71c.18-.26.5-.28.84-.08a1.71,1.71,0,0,1,.48.43A1.66,1.66,0,0,1,12.3,81.81ZM11,90.62a.81.81,0,0,1,.48.13,2.06,2.06,0,0,1,.84,1c.26.67.1,1.27-.36,1.3a.93.93,0,0,1-.49-.13,2.13,2.13,0,0,1-.83-1C10.33,91.25,10.48,90.66,11,90.62ZM9.18,85c0-.62.44-.86,1-.55a2.11,2.11,0,0,1,1,1.67c0,.61-.44.86-1,.55A2.15,2.15,0,0,1,9.18,85Z"/><path class="cls-177" d="M16.27,82.86a5.54,5.54,0,0,1,3.59.86A15.14,15.14,0,0,1,26.72,95.6a5.85,5.85,0,0,1-1,3.48,3.47,3.47,0,0,1-1,1c-1.26.73-3,.63-4.91-.46A15.1,15.1,0,0,1,13,87.67c0-2.19.76-3.72,2-4.41a3,3,0,0,1,1.26-.4"/><g class="cls-178"><path class="cls-4" d="M16.27,82.86a5.54,5.54,0,0,1,3.59.86A15.14,15.14,0,0,1,26.72,95.6a5.85,5.85,0,0,1-1,3.48,3.47,3.47,0,0,1-1,1c-1.26.73-3,.63-4.91-.46A15.1,15.1,0,0,1,13,87.67c0-2.19.76-3.72,2-4.41a3,3,0,0,1,1.26-.4"/></g><path class="cls-4" d="M28.67,91.66a.79.79,0,0,1-.48-.13,2,2,0,0,1-.83-1c-.27-.69-.11-1.27.35-1.32a.86.86,0,0,1,.49.13,2.09,2.09,0,0,1,.83,1C29.29,91,29.14,91.63,28.67,91.66Zm.8,6.18a2.11,2.11,0,0,1-1-1.67c0-.62.42-.86,1-.55a2.11,2.11,0,0,1,1,1.66C30.43,97.89,30,98.14,29.47,97.84Zm-2.14,2.65c.17-.26.5-.28.83-.09a1.94,1.94,0,0,1,.48.44,1.6,1.6,0,0,1,.35,1.72c-.18.25-.5.26-.84.07a1.71,1.71,0,0,1-.48-.43A1.59,1.59,0,0,1,27.33,100.49ZM25.51,85.36c-.19.25-.51.26-.85.06a1.66,1.66,0,0,1-.48-.42,1.56,1.56,0,0,1-.34-1.71c.18-.26.5-.27.83-.08a1.71,1.71,0,0,1,.48.43A1.64,1.64,0,0,1,25.51,85.36ZM24.13,102.3a.79.79,0,0,1,.48.13,2.07,2.07,0,0,1,.84,1c.26.68.11,1.28-.36,1.31a1,1,0,0,1-.49-.13,2.09,2.09,0,0,1-.82-1C23.51,102.93,23.66,102.34,24.13,102.3ZM20.81,80.61c0,.61-.44.86-1,.55a2.13,2.13,0,0,1-1-1.67c0-.63.44-.86,1-.55A2.11,2.11,0,0,1,20.81,80.61Zm-2,21.08c0-.62.43-.86,1-.55a2.14,2.14,0,0,1,1,1.67c0,.61-.44.85-1,.55A2.1,2.1,0,0,1,18.81,101.69ZM15.49,80a.93.93,0,0,1-.49-.13,2.12,2.12,0,0,1-.83-1c-.27-.69-.11-1.28.35-1.32a.79.79,0,0,1,.49.13,2.11,2.11,0,0,1,.84,1.05C16.11,79.35,16,79.94,15.49,80Zm-1.37,17c.17-.26.5-.27.84-.08a1.89,1.89,0,0,1,.48.43A1.67,1.67,0,0,1,15.79,99c-.18.24-.5.25-.84.06a2.16,2.16,0,0,1-.49-.44A1.59,1.59,0,0,1,14.12,96.93ZM12.3,81.81a.63.63,0,0,1-.85.06,1.71,1.71,0,0,1-.48-.43,1.62,1.62,0,0,1-.35-1.71c.18-.26.5-.28.84-.08a1.71,1.71,0,0,1,.48.43A1.66,1.66,0,0,1,12.3,81.81ZM11,90.62a.81.81,0,0,1,.48.13,2.06,2.06,0,0,1,.84,1c.26.67.1,1.27-.36,1.3a.93.93,0,0,1-.49-.13,2.13,2.13,0,0,1-.83-1C10.33,91.25,10.48,90.66,11,90.62ZM9.18,85c0-.62.44-.86,1-.55a2.11,2.11,0,0,1,1,1.67c0,.61-.44.86-1,.55A2.15,2.15,0,0,1,9.18,85Z"/></g></g><g class="cls-6"><polygon class="cls-179" points="72.09 87.32 72.07 92.3 109.84 114.11 109.86 109.13 72.09 87.32"/><polygon class="cls-180" points="109.86 109.13 109.84 114.11 111.35 113.23 111.37 108.25 109.86 109.13"/><polygon class="cls-154" points="73.59 86.44 72.09 87.32 109.86 109.13 111.37 108.25 73.59 86.44"/></g><g class="cls-6"><path class="cls-181" d="M68.93,8.35c-2.13-1.19-4.05-1.28-5.44-.47L61,9.32c1.39-.81,3.31-.71,5.44.47,4.33,2.41,7.88,8.43,8,13.45,0,2.55-.85,4.35-2.29,5.19L74.59,27c1.44-.83,2.32-2.63,2.29-5.18C76.82,16.78,73.26,10.76,68.93,8.35Z"/><path class="cls-4" d="M66.45,9.79c-4.33-2.41-7.79-.3-7.73,4.72s3.62,11,8,13.45,7.79.3,7.73-4.72S70.78,12.2,66.45,9.79Zm.17,13.89a9.14,9.14,0,0,1-4.21-7.12c0-2.65,1.8-3.77,4.09-2.49a9.12,9.12,0,0,1,4.21,7.11C70.74,23.84,68.91,25,66.62,23.68Z"/><path class="cls-182" d="M65.61,10.28c-2.13-1.19-4-1.28-5.44-.47l-2.49,1.45c1.4-.81,3.32-.72,5.44.46,4.33,2.42,7.89,8.44,7.95,13.45,0,2.55-.85,4.35-2.29,5.19l2.49-1.45c1.44-.83,2.32-2.63,2.29-5.18C73.5,18.71,69.94,12.69,65.61,10.28Z"/><path class="cls-183" d="M63.12,11.72c-4.32-2.41-7.78-.3-7.72,4.72s3.62,11,8,13.45,7.78.3,7.72-4.72S67.45,14.14,63.12,11.72Zm.17,13.89a9.08,9.08,0,0,1-4.2-7.11c0-2.66,1.8-3.78,4.09-2.5a9.1,9.1,0,0,1,4.2,7.12C67.41,25.77,65.58,26.89,63.29,25.61Z"/><path class="cls-184" d="M63.18,16a2.88,2.88,0,0,0-2.88-.25l-20.77,12,7,4s6.8,1,12.46-1.76l7.14-4.14a2.93,2.93,0,0,0,1.21-2.74A9.1,9.1,0,0,0,63.18,16Z"/></g><g class="cls-6"><path class="cls-4" d="M31.05,19.06l-3.39-2a1.1,1.1,0,0,1,.45,1,3.39,3.39,0,0,1-1.54,2.68,1.11,1.11,0,0,1-1.12.11l3.39,2A1.11,1.11,0,0,0,30,22.74a3.39,3.39,0,0,0,1.54-2.68A1.1,1.1,0,0,0,31.05,19.06Z"/><path class="cls-185" d="M28.13,15.47a1.36,1.36,0,0,0-1.37.14,4.17,4.17,0,0,0-1.66,2.07L20.71,29l3,1.75,4.38-11.34a4.18,4.18,0,0,1,1.67-2.07,1.39,1.39,0,0,1,1.37-.14Z"/><path class="cls-186" d="M31.46,17.5c-.38-.52-1-.51-1.68-.14a4.18,4.18,0,0,0-1.67,2.07L23.73,30.77A17.11,17.11,0,0,1,29.8,24.9c4.09-2.36,6-1.21,6.09-1.15ZM30,22.74c-.86.5-1.56.11-1.57-.88A3.39,3.39,0,0,1,30,19.18c.86-.5,1.55-.11,1.55.88A3.39,3.39,0,0,1,30,22.74Z"/></g><g class="cls-6"><path class="cls-187" d="M30.78,19.37a.86.86,0,0,0-.86.09,2.67,2.67,0,0,0-1.21,2.09.87.87,0,0,0,.35.78L45.5,31.94a.82.82,0,0,1-.35-.77,2.68,2.68,0,0,1,1.2-2.1.87.87,0,0,1,.87-.08Z"/><path class="cls-188" d="M46.35,29.07a2.68,2.68,0,0,0-1.2,2.1c0,.77.54,1.08,1.21.69a2.67,2.67,0,0,0,1.21-2.09C47.57,29,47,28.69,46.35,29.07Z"/></g><g class="cls-6"><path class="cls-4" d="M45.52,27.66l-3-1.76a1,1,0,0,1,.43,1,3.23,3.23,0,0,1-1.48,2.56,1,1,0,0,1-1.06.11l3,1.75a1.06,1.06,0,0,0,1.07-.1A3.29,3.29,0,0,0,46,28.61,1,1,0,0,0,45.52,27.66Z"/><path class="cls-189" d="M42.58,24.69a1.13,1.13,0,0,0-1.15.11,3.47,3.47,0,0,0-1.38,1.73L36.38,36l3,1.75,3.66-9.47a3.46,3.46,0,0,1,1.39-1.72,1.15,1.15,0,0,1,1.14-.12Z"/><path class="cls-190" d="M45.85,26.67c-.31-.43-.86-.43-1.4-.11a3.46,3.46,0,0,0-1.39,1.72L39.4,37.75a36.06,36.06,0,0,1,5.08-3.38,28.27,28.27,0,0,1,5.08-2.49Zm-1.38,4.51c-.83.47-1.5.09-1.5-.85a3.26,3.26,0,0,1,1.49-2.57c.82-.47,1.49-.1,1.49.85A3.29,3.29,0,0,1,44.47,31.18Z"/></g><g class="cls-6"><path class="cls-191" d="M45.34,27.83a.86.86,0,0,0-.86.09A2.65,2.65,0,0,0,43.27,30a.87.87,0,0,0,.35.78L61.27,41.13a.87.87,0,0,1-.35-.78,2.65,2.65,0,0,1,1.21-2.09.84.84,0,0,1,.86-.09Z"/><path class="cls-192" d="M62.13,38.26a2.65,2.65,0,0,0-1.21,2.09c0,.77.55,1.08,1.22.69A2.64,2.64,0,0,0,63.34,39C63.34,38.18,62.8,37.87,62.13,38.26Z"/></g><g class="cls-6"><path class="cls-193" d="M67.88,40.9l-4.53-2.63a1.06,1.06,0,0,1,.44,1,3.29,3.29,0,0,1-1.49,2.57,1.09,1.09,0,0,1-1.07.11l4.52,2.63a1.11,1.11,0,0,0,1.08-.11,3.28,3.28,0,0,0,1.48-2.57A1.07,1.07,0,0,0,67.88,40.9Z"/><path class="cls-194" d="M63.9,35.8a1.62,1.62,0,0,0-1.62.17,4.87,4.87,0,0,0-2,2.45L55.13,51.81l4.53,2.63,5.18-13.39a4.83,4.83,0,0,1,2-2.45,1.62,1.62,0,0,1,1.62-.17Z"/><path class="cls-195" d="M68.79,38.77c-.44-.62-1.21-.62-2-.17a4.83,4.83,0,0,0-2,2.45L59.66,54.44a20,20,0,0,1,7.18-6.94c4.83-2.79,7.07-1.43,7.19-1.36Zm-2,5.67c-.84.48-1.51.1-1.51-.85A3.27,3.27,0,0,1,66.82,41c.82-.48,1.49-.1,1.49.86A3.28,3.28,0,0,1,66.83,44.44Z"/></g><g class="cls-6"><polygon class="cls-196" points="66.1 44.46 64.85 43.73 65.75 44.99 67 45.72 66.1 44.46"/><polygon class="cls-197" points="68.79 41.12 66.99 42.16 66.1 44.46 67 45.72 68.8 44.69 69.69 42.39 68.79 41.12"/><g class="cls-198"><polygon class="cls-193" points="68.79 41.12 66.99 42.16 66.1 44.46 67 45.72 68.8 44.69 69.69 42.39 68.79 41.12"/></g><polygon class="cls-199" points="65.74 41.43 64.85 43.73 66.1 44.46 66.99 42.16 65.74 41.43"/><polygon class="cls-200" points="67.53 40.39 65.74 41.43 66.99 42.16 68.79 41.12 67.53 40.39"/></g><g class="cls-6"><path class="cls-201" d="M68.87,42a.91.91,0,0,0-.9.09,2.76,2.76,0,0,0-1.25,2.18.91.91,0,0,0,.36.81l1.26.72A.86.86,0,0,1,68,45a2.77,2.77,0,0,1,1.25-2.18.91.91,0,0,1,.9-.09Z"/><path class="cls-202" d="M69.22,42.8A2.77,2.77,0,0,0,68,45c0,.8.57,1.12,1.26.72a2.79,2.79,0,0,0,1.26-2.18C70.49,42.72,69.92,42.4,69.22,42.8Z"/><g class="cls-203"><path class="cls-193" d="M69.22,42.8A2.77,2.77,0,0,0,68,45c0,.8.57,1.12,1.26.72a2.79,2.79,0,0,0,1.26-2.18C70.49,42.72,69.92,42.4,69.22,42.8Z"/></g></g><g class="cls-6"><path class="cls-204" d="M8.54,24.12a7.71,7.71,0,0,1,7-.07A2.49,2.49,0,0,1,17,26.1l.05,12.74a2.51,2.51,0,0,0-1.51-2.05,7.71,7.71,0,0,0-7,.07,2.44,2.44,0,0,0-1.4,2l0-12.74A2.45,2.45,0,0,1,8.54,24.12Z"/><path class="cls-205" d="M8.54,24.12a7.71,7.71,0,0,1,7-.07A2.49,2.49,0,0,1,17,26.1l.05,12.74a2.51,2.51,0,0,0-1.51-2.05,7.71,7.71,0,0,0-7,.07,2.44,2.44,0,0,0-1.4,2l0-12.74A2.45,2.45,0,0,1,8.54,24.12Z"/><path class="cls-206" d="M7.77,31.12A9.65,9.65,0,0,0,16.54,31a3.06,3.06,0,0,0,1.76-2.52V42.36s-1,7.08-6.11,10.4a10.58,10.58,0,0,0-4.4,5,4.43,4.43,0,0,1-1.88-3.43l0-25.77A3.12,3.12,0,0,0,7.77,31.12Z"/><path class="cls-207" d="M3.66,31.71c4.79,2.69,12.45,2.61,17.1-.17,2.29-1.37,3.43-3.14,3.43-4.9v2.22c0,1.77-1.13,3.53-3.42,4.9-4.65,2.79-12.31,2.86-17.1.18C1.24,32.57,0,30.75,0,28.93V26.71C0,28.53,1.23,30.35,3.66,31.71Z"/><path class="cls-208" d="M3.66,31.71c4.79,2.69,12.45,2.61,17.1-.17s4.55-7.22-.24-9.9S8.08,19,3.42,21.81-1.12,29,3.66,31.71Zm3-8.11a11.91,11.91,0,0,1,10.81-.11c3,1.7,3.1,4.5.15,6.26a11.91,11.91,0,0,1-10.81.11C3.74,28.16,3.67,25.36,6.61,23.6Z"/><path class="cls-209" d="M6.33,29.56A12.85,12.85,0,0,0,18,29.44a4.07,4.07,0,0,0,2.34-3.35v.71A4,4,0,0,1,18,30.15a12.85,12.85,0,0,1-11.69.12c-1.67-.93-2.5-2.18-2.51-3.42v-.71C3.82,27.39,4.66,28.63,6.33,29.56Z"/><path class="cls-210" d="M6.33,29.56A12.85,12.85,0,0,0,18,29.44c3.18-1.9,3.11-4.93-.16-6.77a12.9,12.9,0,0,0-11.7.12C3,24.69,3.05,27.72,6.33,29.56Zm2.21-5.44a7.71,7.71,0,0,1,7-.07c2,1.1,2,2.92.1,4.06a7.71,7.71,0,0,1-7,.07C6.68,27.08,6.63,25.26,8.54,24.12Z"/></g></g></g></g></g></svg>