<svg xmlns="http://www.w3.org/2000/svg" xmlns:xlink="http://www.w3.org/1999/xlink" viewBox="0 0 150 150"><defs><style>.cls-1,.cls-10,.cls-2,.cls-9{fill:none;}.cls-10,.cls-2,.cls-9{stroke:#fff;stroke-miterlimit:10;}.cls-2{stroke-width:0.1px;}.cls-3{isolation:isolate;}.cls-4{opacity:0;}.cls-5{fill:#000714;}.cls-6{opacity:0.1;fill:url(#新建图案);}.cls-7{fill:#00d5ff;}.cls-8{fill:#00a9e6;}.cls-10,.cls-9{stroke-linecap:round;}.cls-10{opacity:0.6;}.cls-11{fill:url(#未命名的渐变_95);}.cls-12{fill:url(#未命名的渐变_95-2);}.cls-13{fill:url(#未命名的渐变_133);}.cls-14{fill:#475466;}.cls-15{fill:url(#未命名的渐变_133-2);}.cls-16{fill:#06c;}.cls-17{fill:#dce1e6;}.cls-18{fill:#15d1d1;}.cls-19{fill:#fff;}.cls-20{fill:#cfdbe6;}.cls-21{fill:url(#未命名的渐变_217);}.cls-22{fill:url(#未命名的渐变_319);}.cls-23{fill:url(#未命名的渐变_322);}.cls-24{fill:url(#未命名的渐变_319-2);}.cls-25{fill:url(#未命名的渐变_322-2);}.cls-26{fill:url(#未命名的渐变_319-3);}.cls-27{fill:url(#未命名的渐变_322-3);}.cls-28{fill:url(#未命名的渐变_319-4);}.cls-29{fill:url(#未命名的渐变_322-4);}.cls-30{fill:url(#未命名的渐变_319-5);}.cls-31{fill:url(#未命名的渐变_323);}.cls-32{fill:url(#未命名的渐变_322-5);}.cls-33{fill:url(#未命名的渐变_217-2);}.cls-34{fill:url(#未命名的渐变_133-3);}.cls-35{mix-blend-mode:multiply;fill:url(#未命名的渐变_154);}.cls-36{fill:url(#未命名的渐变_107);}.cls-37{fill:url(#未命名的渐变_95-3);}.cls-38{fill:url(#未命名的渐变_217-3);}.cls-39{fill:url(#未命名的渐变_133-4);}.cls-40{fill:url(#未命名的渐变_95-4);}.cls-41{fill:url(#未命名的渐变_95-5);}.cls-42{fill:url(#未命名的渐变_133-5);}.cls-43{fill:#0f8299;}.cls-44{fill:url(#未命名的渐变_133-6);}.cls-45{fill:url(#未命名的渐变_217-4);}.cls-46{fill:url(#未命名的渐变_319-6);}.cls-47{fill:url(#未命名的渐变_322-6);}.cls-48{fill:url(#未命名的渐变_319-7);}.cls-49{fill:url(#未命名的渐变_322-7);}.cls-50{fill:url(#未命名的渐变_319-8);}.cls-51{fill:url(#未命名的渐变_322-8);}.cls-52{fill:url(#未命名的渐变_319-9);}.cls-53{fill:url(#未命名的渐变_322-9);}.cls-54{fill:url(#未命名的渐变_319-10);}.cls-55{fill:url(#未命名的渐变_323-2);}.cls-56{fill:url(#未命名的渐变_322-10);}.cls-57{fill:url(#未命名的渐变_95-6);}.cls-58{fill:url(#未命名的渐变_95-7);}.cls-59{fill:url(#未命名的渐变_133-7);}.cls-60{fill:url(#未命名的渐变_133-8);}.cls-61{fill:url(#未命名的渐变_217-5);}.cls-62{fill:url(#未命名的渐变_319-11);}.cls-63{fill:url(#未命名的渐变_322-11);}.cls-64{fill:url(#未命名的渐变_319-12);}.cls-65{fill:url(#未命名的渐变_322-12);}.cls-66{fill:url(#未命名的渐变_319-13);}.cls-67{fill:url(#未命名的渐变_322-13);}.cls-68{fill:url(#未命名的渐变_319-14);}.cls-69{fill:url(#未命名的渐变_322-14);}.cls-70{fill:url(#未命名的渐变_319-15);}.cls-71{fill:url(#未命名的渐变_323-3);}.cls-72{fill:url(#未命名的渐变_322-15);}.cls-73{fill:url(#未命名的渐变_95-8);}.cls-74{fill:url(#未命名的渐变_95-9);}.cls-75{fill:url(#未命名的渐变_133-9);}.cls-76{fill:url(#未命名的渐变_133-10);}.cls-77{fill:url(#未命名的渐变_217-6);}.cls-78{fill:url(#未命名的渐变_319-16);}.cls-79{fill:url(#未命名的渐变_322-16);}.cls-80{fill:url(#未命名的渐变_319-17);}.cls-81{fill:url(#未命名的渐变_322-17);}.cls-82{fill:url(#未命名的渐变_319-18);}.cls-83{fill:url(#未命名的渐变_322-18);}.cls-84{fill:url(#未命名的渐变_319-19);}.cls-85{fill:url(#未命名的渐变_322-19);}.cls-86{fill:url(#未命名的渐变_319-20);}.cls-87{fill:url(#未命名的渐变_323-4);}.cls-88{fill:url(#未命名的渐变_322-20);}.cls-89{fill:url(#未命名的渐变_159);}.cls-90{fill:url(#未命名的渐变_155);}.cls-91{opacity:0.2;}</style><pattern id="新建图案" data-name="新建图案" width="18.57" height="32.16" patternTransform="translate(2574.53 277.16)" patternUnits="userSpaceOnUse" viewBox="0 0 18.57 32.16"><rect class="cls-1" width="18.57" height="32.16"/><polyline class="cls-2" points="18.57 21.44 18.57 32.16 18.57 42.88"/><polyline class="cls-2" points="9.29 26.8 18.57 32.16 27.85 37.51 27.85 37.52"/><polyline class="cls-2" points="9.29 37.52 9.29 37.51 18.57 32.16 27.85 26.8"/><polygon class="cls-2" points="27.85 37.52 27.85 26.8 18.57 21.44 9.28 26.8 9.28 37.52 18.57 42.88 27.85 37.52"/><polyline class="cls-2" points="0 21.44 0 32.16 0 42.88"/><polyline class="cls-2" points="-9.28 26.8 0 32.16 9.28 37.51 9.28 37.52"/><polyline class="cls-2" points="-9.28 37.52 -9.28 37.51 0 32.16 9.28 26.8"/><polygon class="cls-2" points="9.28 37.52 9.28 26.8 0 21.44 -9.29 26.8 -9.29 37.52 0 42.88 9.28 37.52"/><polyline class="cls-2" points="18.57 10.72 27.85 16.08 37.13 21.43 37.13 21.44"/><polyline class="cls-2" points="18.57 21.44 18.57 21.43 27.85 16.08 37.13 10.72"/><polygon class="cls-2" points="37.14 21.44 37.14 10.72 27.85 5.36 18.57 10.72 18.57 21.44 27.85 26.8 37.14 21.44"/><polyline class="cls-2" points="9.29 5.36 9.29 16.08 9.29 26.8"/><polyline class="cls-2" points="0.01 10.72 9.29 16.08 18.57 21.43 18.57 21.44"/><polyline class="cls-2" points="0.01 21.44 0.01 21.43 9.29 16.08 18.57 10.72"/><polygon class="cls-2" points="18.57 21.44 18.57 10.72 9.28 5.36 0 10.72 0 21.44 9.28 26.8 18.57 21.44"/><polyline class="cls-2" points="-18.56 10.72 -9.28 16.08 0 21.43 0 21.44"/><polyline class="cls-2" points="-18.56 21.44 -18.56 21.43 -9.28 16.08 0 10.72"/><polygon class="cls-2" points="0 21.44 0 10.72 -9.29 5.36 -18.57 10.72 -18.57 21.44 -9.29 26.8 0 21.44"/><polyline class="cls-2" points="18.57 -10.72 18.57 0 18.57 10.72"/><polyline class="cls-2" points="9.29 -5.36 18.57 0 27.85 5.35 27.85 5.36"/><polyline class="cls-2" points="9.29 5.36 9.29 5.35 18.57 0 27.85 -5.36"/><polygon class="cls-2" points="27.85 5.36 27.85 -5.36 18.57 -10.72 9.28 -5.36 9.28 5.36 18.57 10.72 27.85 5.36"/><polyline class="cls-2" points="0 -10.72 0 0 0 10.72"/><polyline class="cls-2" points="-9.28 -5.36 0 0 9.28 5.35 9.28 5.36"/><polyline class="cls-2" points="-9.28 5.36 -9.28 5.35 0 0 9.28 -5.36"/><polygon class="cls-2" points="9.28 5.36 9.28 -5.36 0 -10.72 -9.29 -5.36 -9.29 5.36 0 10.72 9.28 5.36"/></pattern><linearGradient id="未命名的渐变_95" x1="52.78" y1="41.03" x2="97.25" y2="41.03" gradientUnits="userSpaceOnUse"><stop offset="0" stop-color="#283140"/><stop offset="0.1" stop-color="#12161a"/><stop offset="0.8" stop-color="#89abe6"/><stop offset="1" stop-color="#283140"/></linearGradient><linearGradient id="未命名的渐变_95-2" x1="56.12" y1="43.14" x2="93.88" y2="43.14" xlink:href="#未命名的渐变_95"/><linearGradient id="未命名的渐变_133" x1="55.06" y1="48.08" x2="94.94" y2="48.08" gradientUnits="userSpaceOnUse"><stop offset="0" stop-color="#89abe6"/><stop offset="1" stop-color="#547099"/></linearGradient><linearGradient id="未命名的渐变_133-2" x1="49.1" y1="45.75" x2="100.93" y2="45.75" xlink:href="#未命名的渐变_133"/><linearGradient id="未命名的渐变_217" x1="49.07" y1="59.21" x2="100.92" y2="59.21" gradientUnits="userSpaceOnUse"><stop offset="0" stop-color="#283140"/><stop offset="0.2" stop-color="#89abe6"/><stop offset="0.9" stop-color="#12161a"/><stop offset="1" stop-color="#283140"/></linearGradient><linearGradient id="未命名的渐变_319" x1="74.74" y1="29.97" x2="75.3" y2="29.97" gradientUnits="userSpaceOnUse"><stop offset="0" stop-color="#506381"/><stop offset="0.2" stop-color="#98bdff"/><stop offset="0.9" stop-color="#3f4d5b"/><stop offset="1" stop-color="#506381"/></linearGradient><linearGradient id="未命名的渐变_322" x1="74.74" y1="28.69" x2="75.29" y2="28.69" gradientUnits="userSpaceOnUse"><stop offset="0" stop-color="#a6c7ff"/><stop offset="1" stop-color="#7b9ccc"/></linearGradient><linearGradient id="未命名的渐变_319-2" x1="100.26" y1="44.97" x2="100.81" y2="44.97" xlink:href="#未命名的渐变_319"/><linearGradient id="未命名的渐变_322-2" x1="100.26" y1="43.76" x2="100.81" y2="43.76" xlink:href="#未命名的渐变_322"/><linearGradient id="未命名的渐变_319-3" x1="49.23" y1="44.97" x2="49.79" y2="44.97" xlink:href="#未命名的渐变_319"/><linearGradient id="未命名的渐变_322-3" x1="49.23" y1="43.76" x2="49.78" y2="43.76" xlink:href="#未命名的渐变_322"/><linearGradient id="未命名的渐变_319-4" x1="74.74" y1="59.5" x2="75.3" y2="59.5" xlink:href="#未命名的渐变_319"/><linearGradient id="未命名的渐变_322-4" x1="74.74" y1="58.22" x2="75.29" y2="58.22" xlink:href="#未命名的渐变_322"/><linearGradient id="未命名的渐变_319-5" x1="49.08" y1="50.87" x2="100.92" y2="50.87" xlink:href="#未命名的渐变_319"/><linearGradient id="未命名的渐变_323" x1="49.58" y1="36.07" x2="100.42" y2="36.07" gradientUnits="userSpaceOnUse"><stop offset="0" stop-color="#506381"/><stop offset="0.1" stop-color="#3f4d5b"/><stop offset="0.8" stop-color="#98bdff"/><stop offset="1" stop-color="#506381"/></linearGradient><linearGradient id="未命名的渐变_322-5" x1="49.08" y1="43.2" x2="100.92" y2="43.2" xlink:href="#未命名的渐变_322"/><linearGradient id="未命名的渐变_217-2" x1="63.92" y1="82.53" x2="86.08" y2="82.53" xlink:href="#未命名的渐变_217"/><linearGradient id="未命名的渐变_133-3" x1="64.01" y1="69.17" x2="86.08" y2="69.17" xlink:href="#未命名的渐变_133"/><linearGradient id="未命名的渐变_154" x1="74.79" y1="69.74" x2="86.08" y2="69.74" gradientUnits="userSpaceOnUse"><stop offset="0" stop-color="#142439" stop-opacity="0.6"/><stop offset="1" stop-color="#142439" stop-opacity="0"/></linearGradient><linearGradient id="未命名的渐变_107" x1="69.74" y1="68.46" x2="80.27" y2="68.46" gradientUnits="userSpaceOnUse"><stop offset="0" stop-color="#283140"/><stop offset="0.34" stop-color="#232b37"/><stop offset="0.9" stop-color="#15191f"/><stop offset="1" stop-color="#12161a"/></linearGradient><linearGradient id="未命名的渐变_95-3" x1="70.61" y1="67.7" x2="79.4" y2="67.7" xlink:href="#未命名的渐变_95"/><linearGradient id="未命名的渐变_217-3" x1="69.73" y1="70.48" x2="80.27" y2="70.48" xlink:href="#未命名的渐变_217"/><linearGradient id="未命名的渐变_133-4" x1="69.74" y1="68.46" x2="80.27" y2="68.46" xlink:href="#未命名的渐变_133"/><linearGradient id="未命名的渐变_95-4" x1="3.71" y1="64.34" x2="48.18" y2="64.34" xlink:href="#未命名的渐变_95"/><linearGradient id="未命名的渐变_95-5" x1="7.05" y1="66.45" x2="44.81" y2="66.45" xlink:href="#未命名的渐变_95"/><linearGradient id="未命名的渐变_133-5" x1="5.99" y1="71.39" x2="45.87" y2="71.39" xlink:href="#未命名的渐变_133"/><linearGradient id="未命名的渐变_133-6" x1="0.03" y1="69.06" x2="51.86" y2="69.06" xlink:href="#未命名的渐变_133"/><linearGradient id="未命名的渐变_217-4" x1="0" y1="82.52" x2="51.86" y2="82.52" xlink:href="#未命名的渐变_217"/><linearGradient id="未命名的渐变_319-6" x1="25.66" y1="53.18" x2="26.21" y2="53.18" xlink:href="#未命名的渐变_319"/><linearGradient id="未命名的渐变_322-6" x1="25.66" y1="51.89" x2="26.21" y2="51.89" xlink:href="#未命名的渐变_322"/><linearGradient id="未命名的渐变_319-7" x1="51.17" y1="68.18" x2="51.73" y2="68.18" xlink:href="#未命名的渐变_319"/><linearGradient id="未命名的渐变_322-7" x1="51.17" y1="66.97" x2="51.73" y2="66.97" xlink:href="#未命名的渐变_322"/><linearGradient id="未命名的渐变_319-8" x1="0.15" y1="68.18" x2="0.7" y2="68.18" xlink:href="#未命名的渐变_319"/><linearGradient id="未命名的渐变_322-8" x1="0.15" y1="66.97" x2="0.7" y2="66.97" xlink:href="#未命名的渐变_322"/><linearGradient id="未命名的渐变_319-9" x1="25.66" y1="82.7" x2="26.21" y2="82.7" xlink:href="#未命名的渐变_319"/><linearGradient id="未命名的渐变_322-9" x1="25.66" y1="81.42" x2="26.21" y2="81.42" xlink:href="#未命名的渐变_322"/><linearGradient id="未命名的渐变_319-10" x1="0" y1="74.07" x2="51.83" y2="74.07" xlink:href="#未命名的渐变_319"/><linearGradient id="未命名的渐变_323-2" x1="0.5" y1="59.28" x2="51.34" y2="59.28" xlink:href="#未命名的渐变_323"/><linearGradient id="未命名的渐变_322-10" x1="0" y1="66.4" x2="51.83" y2="66.4" xlink:href="#未命名的渐变_322"/><linearGradient id="未命名的渐变_95-6" x1="101.82" y1="64.34" x2="146.29" y2="64.34" xlink:href="#未命名的渐变_95"/><linearGradient id="未命名的渐变_95-7" x1="105.19" y1="66.45" x2="142.95" y2="66.45" xlink:href="#未命名的渐变_95"/><linearGradient id="未命名的渐变_133-7" x1="104.13" y1="71.39" x2="144.01" y2="71.39" xlink:href="#未命名的渐变_133"/><linearGradient id="未命名的渐变_133-8" x1="98.14" y1="69.06" x2="149.97" y2="69.06" xlink:href="#未命名的渐变_133"/><linearGradient id="未命名的渐变_217-5" x1="98.14" y1="82.52" x2="150" y2="82.52" xlink:href="#未命名的渐变_217"/><linearGradient id="未命名的渐变_319-11" x1="123.79" y1="53.18" x2="124.35" y2="53.18" xlink:href="#未命名的渐变_319"/><linearGradient id="未命名的渐变_322-11" x1="123.79" y1="51.89" x2="124.35" y2="51.89" xlink:href="#未命名的渐变_322"/><linearGradient id="未命名的渐变_319-12" x1="149.31" y1="68.18" x2="149.87" y2="68.18" xlink:href="#未命名的渐变_319"/><linearGradient id="未命名的渐变_322-12" x1="149.31" y1="66.97" x2="149.86" y2="66.97" xlink:href="#未命名的渐变_322"/><linearGradient id="未命名的渐变_319-13" x1="98.28" y1="68.18" x2="98.84" y2="68.18" xlink:href="#未命名的渐变_319"/><linearGradient id="未命名的渐变_322-13" x1="98.28" y1="66.97" x2="98.84" y2="66.97" xlink:href="#未命名的渐变_322"/><linearGradient id="未命名的渐变_319-14" x1="123.79" y1="82.7" x2="124.35" y2="82.7" xlink:href="#未命名的渐变_319"/><linearGradient id="未命名的渐变_322-14" x1="123.79" y1="81.42" x2="124.35" y2="81.42" xlink:href="#未命名的渐变_322"/><linearGradient id="未命名的渐变_319-15" x1="98.14" y1="74.07" x2="149.97" y2="74.07" xlink:href="#未命名的渐变_319"/><linearGradient id="未命名的渐变_323-3" x1="98.64" y1="59.28" x2="149.48" y2="59.28" xlink:href="#未命名的渐变_323"/><linearGradient id="未命名的渐变_322-15" x1="98.14" y1="66.4" x2="149.97" y2="66.4" xlink:href="#未命名的渐变_322"/><linearGradient id="未命名的渐变_95-8" x1="52.78" y1="90.1" x2="97.25" y2="90.1" xlink:href="#未命名的渐变_95"/><linearGradient id="未命名的渐变_95-9" x1="56.12" y1="92.21" x2="93.88" y2="92.21" xlink:href="#未命名的渐变_95"/><linearGradient id="未命名的渐变_133-9" x1="55.06" y1="97.15" x2="94.94" y2="97.15" xlink:href="#未命名的渐变_133"/><linearGradient id="未命名的渐变_133-10" x1="49.1" y1="94.82" x2="100.93" y2="94.82" xlink:href="#未命名的渐变_133"/><linearGradient id="未命名的渐变_217-6" x1="49.07" y1="108.28" x2="100.92" y2="108.28" xlink:href="#未命名的渐变_217"/><linearGradient id="未命名的渐变_319-16" x1="74.74" y1="79.04" x2="75.3" y2="79.04" xlink:href="#未命名的渐变_319"/><linearGradient id="未命名的渐变_322-16" x1="74.74" y1="77.76" x2="75.29" y2="77.76" xlink:href="#未命名的渐变_322"/><linearGradient id="未命名的渐变_319-17" x1="100.26" y1="94.04" x2="100.81" y2="94.04" xlink:href="#未命名的渐变_319"/><linearGradient id="未命名的渐变_322-17" x1="100.26" y1="92.83" x2="100.81" y2="92.83" xlink:href="#未命名的渐变_322"/><linearGradient id="未命名的渐变_319-18" x1="49.23" y1="94.04" x2="49.79" y2="94.04" xlink:href="#未命名的渐变_319"/><linearGradient id="未命名的渐变_322-18" x1="49.23" y1="92.83" x2="49.78" y2="92.83" xlink:href="#未命名的渐变_322"/><linearGradient id="未命名的渐变_319-19" x1="74.74" y1="108.57" x2="75.3" y2="108.57" xlink:href="#未命名的渐变_319"/><linearGradient id="未命名的渐变_322-19" x1="74.74" y1="107.29" x2="75.29" y2="107.29" xlink:href="#未命名的渐变_322"/><linearGradient id="未命名的渐变_319-20" x1="49.08" y1="99.94" x2="100.92" y2="99.94" xlink:href="#未命名的渐变_319"/><linearGradient id="未命名的渐变_323-4" x1="49.58" y1="85.14" x2="100.42" y2="85.14" xlink:href="#未命名的渐变_323"/><linearGradient id="未命名的渐变_322-20" x1="49.08" y1="92.27" x2="100.92" y2="92.27" xlink:href="#未命名的渐变_322"/><linearGradient id="未命名的渐变_159" x1="75" y1="71.12" x2="75" y2="53.73" gradientUnits="userSpaceOnUse"><stop offset="0" stop-color="#2f77eb"/><stop offset="0.12" stop-color="#2c7aee" stop-opacity="0.84"/><stop offset="0.36" stop-color="#2581f4" stop-opacity="0.55"/><stop offset="0.58" stop-color="#2085f9" stop-opacity="0.31"/><stop offset="0.76" stop-color="#1c89fc" stop-opacity="0.14"/><stop offset="0.91" stop-color="#1a8bfe" stop-opacity="0.04"/><stop offset="1" stop-color="#198cff" stop-opacity="0"/></linearGradient><linearGradient id="未命名的渐变_155" x1="75" y1="71.12" x2="75" y2="53.73" gradientUnits="userSpaceOnUse"><stop offset="0" stop-color="#4cfafe" stop-opacity="0.8"/><stop offset="0.01" stop-color="#4bf7fe" stop-opacity="0.78"/><stop offset="0.05" stop-color="#40e1fe" stop-opacity="0.62"/><stop offset="0.1" stop-color="#37ccfe" stop-opacity="0.47"/><stop offset="0.16" stop-color="#2fbbff" stop-opacity="0.34"/><stop offset="0.22" stop-color="#28acff" stop-opacity="0.23"/><stop offset="0.29" stop-color="#22a0ff" stop-opacity="0.15"/><stop offset="0.37" stop-color="#1e97ff" stop-opacity="0.08"/><stop offset="0.47" stop-color="#1b91ff" stop-opacity="0.03"/><stop offset="0.61" stop-color="#198dff" stop-opacity="0.01"/><stop offset="1" stop-color="#198cff" stop-opacity="0"/></linearGradient></defs><title>沉淀池 (2)</title><g class="cls-3"><g id="图层_2" data-name="图层 2"><g id="图元"><g id="沉淀池"><g class="cls-4"><rect class="cls-5" width="150" height="150"/><rect id="网格" class="cls-6" width="150" height="150"/></g><g id="水"><path class="cls-7" d="M96.91,47.64c-.73,2-2.59,3.94-5.36,5.55-4.26,2.46-10.26,3.88-16.45,3.88s-12.21-1.42-16.5-3.9c-2.85-1.63-4.75-3.63-5.46-5.65.72-2,2.58-3.91,5.35-5.52,4.25-2.48,10.25-3.9,16.45-3.9s12.2,1.42,16.5,3.91C94.27,43.64,96.17,45.62,96.91,47.64Z"/></g><g id="水-2" data-name="水"><path class="cls-8" d="M96.91,51.64c-.73,2-2.59,3.94-5.36,5.55-4.26,2.46-10.26,3.88-16.45,3.88s-12.21-1.42-16.5-3.9c-2.85-1.63-4.75-3.63-5.46-5.65.72-2,2.58-3.91,5.35-5.52,4.25-2.48,10.25-3.9,16.45-3.9s12.2,1.42,16.5,3.91C94.27,47.64,96.17,49.62,96.91,51.64Z"/></g><g id="水流"><line class="cls-9" x1="66.36" y1="44.46" x2="69.82" y2="44.46"/><line class="cls-9" x1="83.41" y1="47.92" x2="86.86" y2="47.92"/><line class="cls-9" x1="64.36" y1="52.49" x2="66.03" y2="52.49"/><line class="cls-10" x1="74.5" y1="50.48" x2="77.06" y2="50.48"/><line class="cls-10" x1="60.79" y1="48.14" x2="63.36" y2="48.14"/><line class="cls-10" x1="81.74" y1="42.24" x2="84.3" y2="42.24"/><line class="cls-10" x1="82.82" y1="52.96" x2="85.39" y2="52.96"/></g><g class="cls-3"><path class="cls-11" d="M97.25,45.79a5.25,5.25,0,0,1-.34,1.85c-.74-2-2.64-4-5.47-5.63-4.3-2.49-10.31-3.91-16.5-3.91S62.74,39.52,58.49,42c-2.77,1.61-4.63,3.54-5.35,5.52a4.92,4.92,0,0,1-.36-1.82c0-2.59,2.07-5.27,5.71-7.38,4.25-2.48,10.25-3.9,16.45-3.9s12.2,1.42,16.5,3.91C95.13,40.45,97.24,43.18,97.25,45.79Z"/><g class="cls-3"><path class="cls-12" d="M88.31,40.35a15,15,0,0,0-1.38-.72c-.15-.08-.32-.14-.48-.22s-.56-.25-.85-.36l-.11,0c-.65-.26-1.33-.48-2-.68l-.16-.06c-.16,0-.32-.07-.48-.12-.39-.1-.78-.2-1.18-.28l-.31-.08-.47-.08-1-.18-.39-.07L79,37.41l-1-.1-.45-.05-.42,0-1-.06-.48,0H73.82l-.31,0-1.28.08-.52,0-.15,0c-.72.07-1.44.17-2.15.3H69.3l-.61.13c-.35.07-.69.14-1,.23l-.74.2c-.33.08-.65.17-1,.27l-.22.06-.33.13c-.51.17-1,.36-1.48.56l-.54.23a19.56,19.56,0,0,0-1.77.9l-.23.13-.49.33c-.23.15-.46.29-.67.45s-.36.28-.53.42-.4.31-.58.47l-.11.09c-.24.23-.47.46-.68.69l-.13.15c-.12.14-.25.28-.36.42l-.13.2a6.75,6.75,0,0,0-.44.65c-.06.1-.14.19-.19.28s0,.1-.07.14c-.1.2-.19.4-.27.59s-.12.23-.16.34,0,.08,0,.12-.11.38-.16.57-.08.25-.11.38a.34.34,0,0,1,0,.1c0,.2-.05.4-.07.6s0,.26,0,.39V49a5.35,5.35,0,0,1,.05-.55c0-.2,0-.4.07-.6s.08-.32.12-.48.09-.38.16-.57.13-.3.19-.46.18-.39.28-.59l.25-.42c.14-.22.29-.44.45-.65a7,7,0,0,1,.49-.62l.13-.15c.24-.26.51-.52.79-.78s.38-.32.58-.47.34-.29.53-.42.44-.3.67-.45.46-.32.72-.46a19.56,19.56,0,0,1,1.77-.9l.54-.23c.48-.2,1-.39,1.47-.56l.56-.19c.31-.1.64-.19,1-.27l.75-.2c.34-.09.69-.16,1-.23l.72-.14c.7-.13,1.42-.23,2.15-.3l.67-.06,1.28-.08.82,0h1l.86,0c.32,0,.65,0,1,.06l.87.07,1,.1.84.12c.34,0,.67.11,1,.18l.79.16c.39.08.79.18,1.18.28.21.06.43.11.64.18.69.2,1.37.43,2,.68l1,.4.49.22a15,15,0,0,1,1.38.72c3.72,2.14,5.57,5,5.56,7.78v-1C93.88,45.31,92,42.49,88.31,40.35Z"/><path class="cls-13" d="M89.06,39.91c-7.81-4.51-20.45-4.51-28.21,0s-7.72,11.84.09,16.34,20.46,4.51,28.21,0S96.86,44.42,89.06,39.91Zm-.67,15.91c-7.33,4.26-19.31,4.26-26.7,0s-7.43-11.21-.09-15.47,19.33-4.27,26.71,0S95.73,51.55,88.39,55.82Z"/><path class="cls-14" d="M94.89,48.72c0,.21,0,.42-.07.63a4.39,4.39,0,0,1-.13.52c0,.19-.1.39-.17.59s-.13.33-.2.49-.18.42-.29.62l-.27.45c-.15.23-.3.46-.47.69a7.79,7.79,0,0,1-.52.65l-.14.16a11,11,0,0,1-.84.83c-.19.17-.4.33-.6.5s-.37.3-.57.44-.47.32-.71.48-.49.33-.76.48a18.19,18.19,0,0,1-1.87,1l-.57.24c-.51.22-1,.41-1.56.59l-.58.2c-.33.11-.68.2-1,.3l-.79.21L81.67,59l-.77.16c-.74.13-1.5.23-2.27.31-.23,0-.47,0-.7.06-.45,0-.9.07-1.36.09l-.86,0h-1.1c-.31,0-.61,0-.92,0l-1-.05-.92-.08-1-.11-.89-.12L68.81,59,68,58.87c-.42-.09-.83-.19-1.25-.3l-.67-.18c-.74-.22-1.45-.46-2.14-.72l-1-.43L62.4,57c-.5-.24-1-.49-1.46-.77C57,54,55.05,51,55.06,48v1c0,3,1.95,6,5.88,8.22.47.28,1,.53,1.46.77.16.08.34.14.51.22s.59.27.89.39l.11,0c.7.26,1.41.5,2.14.72l.17,0,.51.13c.41.11.83.21,1.25.3l.32.08.5.09,1.06.19.42.07.48.05,1,.11.48.06.45,0,1,.05.51,0h2l.32,0,1.36-.09.54,0,.16,0c.77-.08,1.52-.18,2.27-.31l.12,0,.64-.14,1.1-.23.79-.21c.34-.1.68-.19,1-.3l.23-.06.35-.14c.53-.18,1-.37,1.56-.59l.57-.24a19.27,19.27,0,0,0,1.87-1l.24-.14c.19-.11.35-.23.52-.34s.49-.32.71-.48.38-.29.56-.44.42-.33.61-.5l.12-.1a9.88,9.88,0,0,0,.72-.73l.14-.16c.13-.15.26-.29.38-.44l.14-.21c.17-.23.32-.46.46-.69l.2-.3a1,1,0,0,0,.07-.15c.11-.2.2-.41.29-.62a2.92,2.92,0,0,0,.17-.36s0-.09,0-.13c.07-.2.12-.4.17-.6s.09-.26.12-.4a.45.45,0,0,1,0-.11c0-.21.05-.42.07-.63s0-.27,0-.4V48.14A5.44,5.44,0,0,1,94.89,48.72Z"/></g><path class="cls-15" d="M93.28,35.14c-10.15-5.86-26.56-5.86-36.65,0s-10,15.36.13,21.22,26.55,5.87,36.64,0S103.43,41,93.28,35.14Zm3.63,12.5c-.73,2-2.59,3.94-5.36,5.55-4.26,2.46-10.26,3.88-16.45,3.88s-12.21-1.42-16.5-3.9c-2.85-1.63-4.75-3.63-5.46-5.65a4.92,4.92,0,0,1-.36-1.82c0-2.59,2.07-5.27,5.71-7.38,4.25-2.48,10.25-3.9,16.45-3.9s12.2,1.42,16.5,3.91c3.69,2.12,5.8,4.85,5.81,7.46A5.25,5.25,0,0,1,96.91,47.64Z"/><rect class="cls-16" x="72.27" y="46.94" width="5.45" height="0.83"/><g class="cls-3"><rect class="cls-17" x="73.16" y="44.85" width="3.68" height="2.13"/><rect class="cls-18" x="73.16" y="46.94" width="3.68" height="9.85"/></g><g class="cls-3"><rect class="cls-17" x="71.93" y="46.12" width="6.13" height="0.82"/><rect class="cls-19" x="71.93" y="42.35" width="6.13" height="3.76"/></g><g class="cls-3"><rect class="cls-19" x="71.93" y="46.94" width="0.22" height="0.83"/></g><rect class="cls-20" x="72.15" y="46.94" width="0.12" height="0.83"/><g class="cls-3"><rect class="cls-19" x="77.72" y="46.94" width="0.22" height="0.83"/></g><rect class="cls-20" x="77.94" y="46.94" width="0.12" height="0.83"/><rect class="cls-19" x="74.6" y="38.83" width="0.79" height="4.7"/><rect class="cls-19" x="73.35" y="48.05" width="0.21" height="8.66" rx="0.08" transform="translate(146.9 104.76) rotate(-180)"/><rect class="cls-19" x="76.44" y="48.05" width="0.21" height="8.66" rx="0.08" transform="translate(153.08 104.76) rotate(-180)"/><path class="cls-21" d="M100.86,46.58a7.34,7.34,0,0,1-.09.82c0,.22-.11.44-.17.66s-.13.52-.22.78-.18.42-.27.63-.23.54-.38.81a10.55,10.55,0,0,1-.66,1.09l-.12.17c-.26.36-.55.72-.85,1.07l-.18.2c-.33.36-.7.72-1.09,1.07s-.52.44-.79.66-.47.38-.73.57-.61.42-.93.62-.63.43-1,.63A26.73,26.73,0,0,1,91,57.6l-.74.31c-.66.28-1.34.54-2,.78l-.75.25c-.43.14-.88.26-1.33.38l-1,.28c-.47.11-1,.21-1.43.3l-1,.2c-1,.17-2,.31-3,.41l-.92.08c-.58,0-1.16.09-1.75.12l-1.12,0H74.51c-.4,0-.79,0-1.19,0L72,60.64l-1.2-.1-1.29-.14-1.16-.17c-.47-.07-.92-.15-1.38-.24l-1.07-.22c-.54-.11-1.08-.25-1.61-.39-.3-.08-.6-.15-.89-.24-.95-.28-1.88-.59-2.78-.94-.45-.17-.88-.36-1.31-.55l-.67-.29c-.65-.31-1.29-.64-1.9-1a17.6,17.6,0,0,1-5.74-5,9.81,9.81,0,0,1-1.91-5.68l0,12c0,3.86,2.54,7.73,7.65,10.68.61.36,1.24.68,1.9,1l.67.29c.39.17.77.35,1.16.51l.15,0c.9.35,1.83.66,2.78.94l.22.08.66.16c.54.14,1.07.28,1.61.39l.43.11L67,72c.45.09.91.17,1.37.24l.55.1c.2,0,.41,0,.61.06.43.06.86.11,1.3.15l.61.07.58,0,1.32.07c.22,0,.43,0,.65,0s.36,0,.53,0c.48,0,1,0,1.42,0h.71c.14,0,.28,0,.42,0,.58,0,1.17-.06,1.75-.11l.7,0,.22,0c1-.1,2-.24,3-.41l.14,0c.28,0,.55-.12.83-.18q.72-.14,1.44-.3l1-.28c.45-.12.9-.24,1.34-.38l.29-.08.45-.17q1-.36,2-.78l.74-.31a26.55,26.55,0,0,0,2.44-1.24l.32-.18c.24-.15.44-.3.67-.45s.64-.41.93-.62l.72-.57c.27-.22.55-.44.8-.66l.16-.13c.33-.31.64-.62.93-.94.06-.07.11-.14.17-.2s.35-.39.51-.59l.34-.48.13-.17c.2-.3.4-.6.57-.9a1.63,1.63,0,0,1,.09-.19c.14-.27.26-.54.38-.81s.16-.31.22-.47a1.24,1.24,0,0,0,0-.16,7.67,7.67,0,0,0,.23-.78c0-.17.11-.35.15-.52s0-.09,0-.14c0-.27.07-.54.1-.82s0-.35.06-.53v-.23l0-12C100.92,46.08,100.88,46.33,100.86,46.58Z"/></g><g class="cls-3"><path class="cls-22" d="M74.74,28.72h0a0,0,0,0,0,0,0h0l0,0,0,0h0l.06,0h.24l0,0h0l0,0a.12.12,0,0,0,.08-.11v2.4a.14.14,0,0,1-.09.12l0,0h-.29l-.06,0h0l0,0h0v0h0V28.72Z"/><path class="cls-23" d="M74.82,28.57c-.11.07-.11.17,0,.23a.44.44,0,0,0,.39,0c.11-.06.11-.16,0-.23A.44.44,0,0,0,74.82,28.57Z"/></g><g class="cls-3">
<path class="cls-24" d="M100.26,43.79h0l0,0h0l0,0h0l0,0,0,0h.3l0,0a.17.17,0,0,0,.08-.12V46a.14.14,0,0,1-.08.12h-.34l0,0h0l0,0h0V43.79Z"/>
<path class="cls-25" d="M100.34,43.65c-.11.06-.11.16,0,.23a.44.44,0,0,0,.39,0c.11-.07.11-.17,0-.23A.44.44,0,0,0,100.34,43.65Z"/>
</g><g class="cls-3"><path class="cls-26" d="M49.23,43.79h0a0,0,0,0,0,0,0h0l0,0h0l0,0,.06,0h.29l0,0a.14.14,0,0,0,.08-.12V46s0,.08-.09.12h-.33l-.06,0h0v0h0V43.79Z"/><path class="cls-27" d="M49.31,43.65c-.11.06-.11.16,0,.23a.45.45,0,0,0,.39,0c.11-.07.11-.17,0-.23A.44.44,0,0,0,49.31,43.65Z"/></g><g class="cls-3"><path class="cls-28" d="M74.74,58.25h0s0,0,0,0h0l0,0,0,0h0l.06,0h.29l0,0a.12.12,0,0,0,.08-.11v2.4s0,.08-.09.12l0,0h-.29l-.06,0h0v0h0V58.25Z"/><path class="cls-29" d="M74.82,58.1c-.11.07-.11.17,0,.23a.44.44,0,0,0,.39,0c.11-.06.11-.16,0-.23A.44.44,0,0,0,74.82,58.1Z"/></g><g class="cls-3"><path class="cls-30" d="M93.4,53.82c-10.08,5.85-26.53,5.85-36.67,0-5.11-3-7.66-6.83-7.65-10.7v.41c0,3.87,2.54,7.75,7.65,10.69,10.14,5.86,26.59,5.86,36.67,0,5-2.9,7.51-6.72,7.52-10.54v-.41C100.91,47.09,98.4,50.91,93.4,53.82Z"/><path class="cls-31" d="M92.93,32.78C83,27,66.84,27,57,32.78c-4.91,2.85-7.37,6.6-7.38,10.34v.41c0-3.75,2.47-7.49,7.38-10.34,9.88-5.75,26-5.75,36,0,5,2.89,7.5,6.69,7.49,10.49v-.41C100.43,39.47,97.93,35.67,92.93,32.78Z"/><path class="cls-32" d="M93.28,32.58c-10.15-5.86-26.6-5.86-36.67,0s-10,15.38.12,21.24,26.59,5.85,36.67,0S103.42,38.43,93.28,32.58Zm-.23,21c-9.89,5.75-26,5.75-36,0s-10-15.09-.12-20.83,26-5.74,36,0S102.93,47.87,93.05,53.61Z"/></g><g class="cls-3"><rect class="cls-17" x="73.16" y="68.34" width="3.68" height="2.13"/><rect class="cls-19" x="73.16" y="58.52" width="3.68" height="9.81"/></g><g class="cls-3"><path class="cls-33" d="M85.89,70.32l0,.12a4.8,4.8,0,0,1-.53,1l-.12.18a6.08,6.08,0,0,1-.88,1c-.22.2-.51.38-.77.57s-.43.34-.69.5a13.41,13.41,0,0,1-2.18,1c-.27.09-.55.18-.83.25s-.73.2-1.1.28-.89.17-1.34.23l-.33,0c-.61.06-1.23.09-1.85.1h-.3c-.61,0-1.22,0-1.83-.1l-.27,0a16.76,16.76,0,0,1-1.77-.31L70.75,75a14.35,14.35,0,0,1-1.53-.47L69,74.48a12.35,12.35,0,0,1-1.68-.79C65.09,72.43,64,70.78,64,69.14L63.92,89.5c0,1.65,1.08,3.3,3.25,4.55a12.46,12.46,0,0,0,1.6.77l.09,0,.26.09c.32.11.65.23,1,.33l.54.13.32.08.29.07c.36.08.72.14,1.09.19l.39,0,.28,0,.4,0c.36,0,.72,0,1.09.06h1.12c.41,0,.82,0,1.23-.08l.13,0,.33,0,.94-.13c.14,0,.26-.08.4-.1.38-.08.74-.18,1.11-.28.19-.05.39-.08.58-.14L80.6,95a12.19,12.19,0,0,0,2.17-1L82.9,94c.21-.12.36-.27.55-.4a8.32,8.32,0,0,0,.78-.58l.08-.06A6.61,6.61,0,0,0,85,92.2a1.88,1.88,0,0,0,.12-.18l.13-.18c.06-.11.14-.21.2-.31a4.5,4.5,0,0,0,.3-.63s0-.06,0-.09a.93.93,0,0,0,0-.13,3,3,0,0,0,.11-.4,3.5,3.5,0,0,0,.08-.64v-.1l.09-20.36A3.78,3.78,0,0,1,85.89,70.32Z"/><path class="cls-34" d="M84.46,72.51a8.19,8.19,0,0,1-1.6,1.18c-4.29,2.49-11.27,2.49-15.59,0s-4.35-6.54,0-9a17.23,17.23,0,0,1,15.62,0A7.28,7.28,0,0,1,85.41,67C86.55,68.78,86.24,70.83,84.46,72.51Z"/></g><path class="cls-35" d="M84.46,72.51H74.79V67H85.41C86.55,68.78,86.24,70.83,84.46,72.51Z"/><g class="cls-3"><path class="cls-36" d="M78.71,66.31c2.06,1.18,2.07,3.12,0,4.31a8.22,8.22,0,0,1-7.45,0c-2.06-1.19-2.07-3.13,0-4.31A8.2,8.2,0,0,1,78.71,66.31Z"/><path class="cls-37" d="M78.1,66.66a6.09,6.09,0,0,0-.63-.3h0l-.11,0a3.56,3.56,0,0,0-.39-.13l-.22-.05a.53.53,0,0,0-.12,0l-.11,0L76,66l-.16,0h-.11l-.16,0-.43,0h-.45l-.49,0h0l-.13,0-.38,0-.16,0-.44.11-.24.06-.09,0a5.71,5.71,0,0,0-.87.38l0,0-.22.17a1.79,1.79,0,0,0-.3.22l0,0a2.52,2.52,0,0,0-.27.3l-.05.07,0,.07a.83.83,0,0,0-.08.12,1.15,1.15,0,0,0-.12.25.06.06,0,0,1,0,0s0,0,0,0a.75.75,0,0,0,0,.16,2.13,2.13,0,0,0,0,.25v1a1.76,1.76,0,0,1,.07-.45l0,0a1.77,1.77,0,0,1,.21-.41l0-.07a2.44,2.44,0,0,1,.34-.39,3.3,3.3,0,0,1,.3-.22c.1-.07.18-.14.28-.2a5.59,5.59,0,0,1,.86-.38l.34-.1.44-.11c.17,0,.35-.07.54-.09l.12,0c.25,0,.49,0,.74,0H75c.25,0,.49,0,.73,0h.11a5.55,5.55,0,0,1,.71.13.53.53,0,0,1,.12,0,6.13,6.13,0,0,1,.61.18l.11,0a5.11,5.11,0,0,1,.67.31,2.19,2.19,0,0,1,1.29,1.81v-1A2.2,2.2,0,0,0,78.1,66.66Z"/><path class="cls-38" d="M80.17,69s0,0,0,.06a2.84,2.84,0,0,1-.25.49l-.06.08a2.57,2.57,0,0,1-.42.46,2.42,2.42,0,0,1-.36.27,4,4,0,0,1-.33.24,5.73,5.73,0,0,1-1,.45,2.91,2.91,0,0,1-.39.12l-.53.14-.64.11-.16,0c-.29,0-.59,0-.88.05H75a8.46,8.46,0,0,1-.87-.05l-.13,0a7.93,7.93,0,0,1-.85-.14l-.15,0a6.14,6.14,0,0,1-.73-.22l-.13,0a6.55,6.55,0,0,1-.8-.38A3,3,0,0,1,69.83,69a2,2,0,0,1-.09-.58v1a2.65,2.65,0,0,0,1.56,2.17A4.71,4.71,0,0,0,72,72l0,0,.13,0,.46.16.27.06.15,0,.13,0a4.71,4.71,0,0,0,.52.09l.19,0,.14,0,.19,0,.52,0h.54l.58,0H76l.15,0,.46-.07.19,0,.52-.14.28-.06.12-.06a5.34,5.34,0,0,0,1-.45l.07,0c.1-.06.17-.13.26-.19a3.58,3.58,0,0,0,.37-.28l0,0a2.69,2.69,0,0,0,.33-.35l.06-.09.06-.08.09-.15a1.38,1.38,0,0,0,.14-.3s0,0,0,0,0,0,0-.06l.06-.19a1.55,1.55,0,0,0,0-.31v-1A2.05,2.05,0,0,1,80.17,69Z"/><path class="cls-39" d="M78.71,66.31c2.06,1.18,2.07,3.12,0,4.31a8.22,8.22,0,0,1-7.45,0c-2.06-1.19-2.07-3.13,0-4.31A8.2,8.2,0,0,1,78.71,66.31Zm-6.81,4a6.85,6.85,0,0,0,6.22,0c1.71-1,1.7-2.6,0-3.6a6.88,6.88,0,0,0-6.22,0c-1.7,1-1.69,2.61,0,3.6"/></g><g class="cls-3"><rect class="cls-17" x="45.59" y="72.85" width="18.39" height="0.9"/><rect class="cls-19" x="45.59" y="70.4" width="18.39" height="2.45"/></g><g id="水-3" data-name="水"><path class="cls-7" d="M47.84,71c-.73,2-2.59,3.94-5.36,5.54C38.22,79,32.22,80.38,26,80.38S13.82,79,9.53,76.48c-2.85-1.63-4.75-3.63-5.46-5.65.72-2,2.59-3.92,5.35-5.52,4.25-2.48,10.25-3.91,16.45-3.91s12.2,1.43,16.5,3.92C45.2,67,47.1,68.92,47.84,71Z"/></g><g id="水-4" data-name="水"><path class="cls-8" d="M47.84,75c-.73,2-2.59,3.94-5.36,5.54C38.22,83,32.22,84.38,26,84.38S13.82,83,9.53,80.48c-2.85-1.63-4.75-3.63-5.46-5.65.72-2,2.59-3.92,5.35-5.52,4.25-2.48,10.25-3.91,16.45-3.91s12.2,1.43,16.5,3.92C45.2,71,47.1,72.92,47.84,75Z"/></g><g id="水流-2" data-name="水流"><line class="cls-9" x1="17.96" y1="70.06" x2="17.96" y2="68.79"/><line class="cls-9" x1="26.93" y1="65.71" x2="26.93" y2="63.34"/><line class="cls-9" x1="36.73" y1="67.66" x2="36.73" y2="65.28"/><line class="cls-9" x1="30.5" y1="78.36" x2="30.5" y2="75.98"/><line class="cls-10" x1="14.4" y1="76.02" x2="14.4" y2="73.64"/><line class="cls-10" x1="40.24" y1="74.29" x2="40.24" y2="71.73"/><line class="cls-10" x1="33.45" y1="71.91" x2="33.45" y2="70.61"/><line class="cls-10" x1="24.81" y1="73.79" x2="24.81" y2="71.23"/></g><g class="cls-3"><path class="cls-40" d="M48.18,69.1A5.25,5.25,0,0,1,47.84,71c-.74-2-2.64-4-5.47-5.63-4.3-2.49-10.31-3.92-16.5-3.92s-12.2,1.43-16.45,3.91c-2.76,1.6-4.63,3.54-5.35,5.52A4.92,4.92,0,0,1,3.71,69c0-2.59,2.08-5.27,5.71-7.38,4.25-2.48,10.25-3.91,16.45-3.91s12.2,1.43,16.5,3.92C46.06,63.76,48.17,66.48,48.18,69.1Z"/><g class="cls-3"><path class="cls-41" d="M39.25,63.65c-.45-.25-.91-.49-1.39-.72l-.48-.21-.85-.37-.1,0c-.66-.26-1.33-.48-2-.69l-.16-.05-.48-.12-1.18-.29-.31-.07L31.8,61l-1-.17-.4-.07L30,60.72l-.95-.1-.44,0-.43,0-1,0-.48,0H24.75l-.31,0c-.43,0-.85,0-1.28.08l-.52,0-.15,0c-.72.07-1.44.17-2.15.3h-.11l-.61.13-1,.22-.74.2-1,.28-.22.06-.33.13c-.51.17-1,.36-1.48.56l-.53.23a18.46,18.46,0,0,0-1.78.89l-.23.14c-.17.1-.32.22-.49.33s-.46.29-.67.44-.36.28-.53.42-.4.32-.58.48l-.11.09c-.24.23-.47.46-.68.69l-.13.15c-.12.14-.25.28-.36.42s-.08.13-.13.19c-.16.22-.31.44-.44.66s-.13.18-.19.28,0,.09-.07.14c-.1.2-.19.39-.27.59s-.12.23-.16.34,0,.08,0,.12c-.06.19-.11.38-.16.57s-.08.25-.11.38a.34.34,0,0,1,0,.1c0,.2,0,.4-.07.6s0,.26,0,.38v1.17a5.11,5.11,0,0,1,0-.55c0-.2,0-.4.07-.6s.08-.32.12-.48.1-.38.16-.57.13-.3.2-.46.17-.39.27-.59l.25-.42q.21-.33.45-.66c.15-.2.31-.41.49-.61l.13-.15a9.71,9.71,0,0,1,.79-.78c.18-.16.38-.32.58-.48s.34-.28.53-.42.44-.3.67-.44.46-.32.72-.47a19.5,19.5,0,0,1,1.77-.89l.54-.23c.48-.2,1-.39,1.47-.56l.56-.19,1-.28.75-.2,1-.22.72-.14c.7-.13,1.42-.23,2.15-.3.22,0,.44,0,.67-.06.42,0,.85-.07,1.28-.08.27,0,.55,0,.82,0h1l.86,0,1,0,.87.08.95.1.84.12c.34,0,.67.11,1,.18l.78.15,1.18.29.64.17c.69.21,1.37.43,2,.69.33.12.64.26.95.4l.49.21q.72.34,1.38.72c3.72,2.15,5.57,5,5.56,7.79v-1C44.81,68.62,43,65.8,39.25,63.65Z"/><path class="cls-42" d="M40,63.22c-7.81-4.51-20.45-4.51-28.21,0s-7.72,11.83.09,16.34,20.46,4.51,28.21,0S47.79,67.72,40,63.22Zm-.67,15.9C32,83.39,20,83.39,12.63,79.12s-7.44-11.2-.1-15.47,19.33-4.26,26.72,0S46.66,74.86,39.32,79.12Z"/><path class="cls-14" d="M45.82,72a4.5,4.5,0,0,1-.07.63,4.77,4.77,0,0,1-.13.51c0,.2-.1.4-.17.6s-.13.33-.2.49-.18.41-.29.62-.18.3-.27.44-.3.47-.47.7a7.79,7.79,0,0,1-.52.65l-.14.16a10.92,10.92,0,0,1-.84.82l-.6.51-.56.44c-.23.16-.47.32-.72.47s-.49.34-.76.49a18.19,18.19,0,0,1-1.87,1l-.57.24c-.5.21-1,.41-1.56.59l-.58.2c-.33.11-.68.2-1,.29l-.79.22-1.09.23-.76.15c-.75.13-1.51.24-2.27.32l-.71.06c-.45,0-.9.07-1.36.09l-.86,0h-1.1l-.91,0-1-.05-.92-.08-1-.11-.89-.13c-.36,0-.71-.11-1.06-.18l-.83-.17c-.42-.09-.83-.19-1.24-.3L17,81.7c-.74-.22-1.45-.46-2.14-.73-.34-.13-.67-.28-1-.42l-.52-.23c-.5-.23-1-.49-1.46-.76C7.94,77.29,6,74.31,6,71.33v1c0,3,2,6,5.88,8.23.47.27,1,.53,1.46.76l.51.23c.3.13.59.27.89.39l.12,0c.69.27,1.4.51,2.13.73l.17,0,.52.13c.41.11.82.21,1.24.3l.32.08.51.09q.53.11,1.05.18l.42.08.48,0,1,.11.47,0c.15,0,.3,0,.45,0l1,.05c.17,0,.34,0,.51,0h1.51c.18,0,.36,0,.54,0l.32,0c.45,0,.91-.05,1.36-.09l.54,0,.16,0c.77-.08,1.53-.19,2.27-.32H32l.64-.14,1.1-.23.79-.22c.34-.09.68-.18,1-.29l.23-.06.35-.14c.53-.18,1.05-.38,1.56-.59l.57-.24a18.19,18.19,0,0,0,1.87-1l.24-.14c.19-.11.35-.23.52-.35s.49-.31.71-.47l.56-.44c.21-.17.42-.34.61-.51a.58.58,0,0,0,.12-.1,9.78,9.78,0,0,0,.72-.72l.14-.16.38-.45c.05-.06.09-.13.14-.2.17-.23.32-.46.47-.7a2.9,2.9,0,0,0,.19-.29,1,1,0,0,0,.07-.15c.11-.21.2-.41.29-.62a2.92,2.92,0,0,0,.17-.36s0-.09,0-.13c.07-.2.12-.4.17-.6s.09-.26.12-.4a.45.45,0,0,1,0-.11c0-.21,0-.42.07-.63s0-.27,0-.41V71.45A5.67,5.67,0,0,1,45.82,72Z"/></g><g class="cls-3"><rect class="cls-43" x="32.26" y="72.85" width="18.39" height="0.9"/><rect class="cls-18" x="32.26" y="70.4" width="18.39" height="2.45"/></g><g class="cls-3"><rect class="cls-17" x="18.35" y="71.68" width="10.35" height="0.4"/><rect class="cls-19" x="18.35" y="71.16" width="10.35" height="0.52"/></g><g class="cls-3"><path class="cls-17" d="M33.05,69.55h0l0,0h-.16a.05.05,0,0,1,0,0v1.09a.05.05,0,0,0,0,0h.22V69.55Z"/><path class="cls-19" d="M33,69.48s0,.08,0,.1a.19.19,0,0,1-.18,0c-.05,0-.05-.07,0-.1A.19.19,0,0,1,33,69.48Z"/></g><g class="cls-3"><path class="cls-17" d="M34.28,69.55h0l0,0h-.15a.07.07,0,0,1,0,0v1.09a.05.05,0,0,0,0,0h.21V69.55Z"/><path class="cls-19" d="M34.25,69.48s0,.08,0,.1a.19.19,0,0,1-.18,0s0-.07,0-.1A.19.19,0,0,1,34.25,69.48Z"/></g><g class="cls-3"><path class="cls-17" d="M35.51,69.55h0s0,0,0,0H35.3a.05.05,0,0,1,0,0v1.09a.05.05,0,0,0,0,0h.15s0,0,0,0h0V69.55Z"/><path class="cls-19" d="M35.47,69.48c.05,0,.05.08,0,.1a.17.17,0,0,1-.17,0s0-.07,0-.1A.17.17,0,0,1,35.47,69.48Z"/></g><g class="cls-3"><path class="cls-17" d="M36.74,69.55h0l0,0h-.16a.05.05,0,0,1,0,0v1.09a.05.05,0,0,0,0,0h.22V69.55Z"/><path class="cls-19" d="M36.7,69.48s0,.08,0,.1a.19.19,0,0,1-.18,0,.05.05,0,0,1,0-.1A.19.19,0,0,1,36.7,69.48Z"/></g><g class="cls-3"><path class="cls-17" d="M38,69.55h0l0,0h-.15a.07.07,0,0,1,0,0v1.09a.07.07,0,0,0,0,0H38V69.55Z"/><path class="cls-19" d="M37.93,69.48s0,.08,0,.1a.19.19,0,0,1-.18,0s0-.07,0-.1A.19.19,0,0,1,37.93,69.48Z"/></g><g class="cls-3"><path class="cls-17" d="M39.19,69.55h0s0,0,0,0H39a.05.05,0,0,1,0,0v1.09a.05.05,0,0,0,0,0h.15s0,0,0,0h0V69.55Z"/><path class="cls-19" d="M39.15,69.48c.05,0,.05.08,0,.1a.17.17,0,0,1-.17,0s0-.07,0-.1A.17.17,0,0,1,39.15,69.48Z"/></g><g class="cls-3"><path class="cls-17" d="M40.42,69.55h0l0,0H40.2a.05.05,0,0,1,0,0v1.09a.05.05,0,0,0,0,0h.22V69.55Z"/><path class="cls-19" d="M40.38,69.48s0,.08,0,.1a.19.19,0,0,1-.18,0,.06.06,0,0,1,0-.1A.19.19,0,0,1,40.38,69.48Z"/></g><g class="cls-3"><path class="cls-17" d="M41.64,69.55h0l0,0h-.15a.07.07,0,0,1,0,0v1.09a.07.07,0,0,0,0,0h.21V69.55Z"/><path class="cls-19" d="M41.61,69.48s0,.08,0,.1a.19.19,0,0,1-.18,0s0-.07,0-.1A.19.19,0,0,1,41.61,69.48Z"/></g><g class="cls-3"><path class="cls-17" d="M42.87,69.55h0s0,0,0,0h-.15a.05.05,0,0,1,0,0v1.09a.05.05,0,0,0,0,0h.15s0,0,0,0h0V69.55Z"/><path class="cls-19" d="M42.83,69.48c.05,0,.05.08,0,.1a.17.17,0,0,1-.17,0s0-.07,0-.1A.17.17,0,0,1,42.83,69.48Z"/></g><g class="cls-3"><path class="cls-17" d="M44.1,69.55h0l0,0h-.16a.05.05,0,0,1,0,0v1.09a.05.05,0,0,0,0,0h.22V69.55Z"/><path class="cls-19" d="M44.06,69.48s0,.08,0,.1a.19.19,0,0,1-.18,0,.06.06,0,0,1,0-.1A.19.19,0,0,1,44.06,69.48Z"/></g><g class="cls-3"><path class="cls-17" d="M45.32,69.55h0l0,0h-.15a.07.07,0,0,1,0,0v1.09a.07.07,0,0,0,0,0h.21V69.55Z"/><path class="cls-19" d="M45.29,69.48c.05,0,.05.08,0,.1a.19.19,0,0,1-.18,0s0-.07,0-.1A.19.19,0,0,1,45.29,69.48Z"/></g><g class="cls-3"><path class="cls-17" d="M46.55,69.55h0s0,0,0,0h-.15a.05.05,0,0,1,0,0v1.09a.05.05,0,0,0,0,0h.15s0,0,0,0h0V69.55Z"/><path class="cls-19" d="M46.51,69.48c.05,0,.05.08,0,.1a.17.17,0,0,1-.17,0c-.05,0-.05-.07,0-.1A.17.17,0,0,1,46.51,69.48Z"/></g><g class="cls-3"><path class="cls-17" d="M47.78,69.55h0l0,0h-.16a.05.05,0,0,1,0,0v1.09a.05.05,0,0,0,0,0h.22V69.55Z"/><path class="cls-19" d="M47.74,69.48s0,.08,0,.1a.19.19,0,0,1-.18,0,.06.06,0,0,1,0-.1A.19.19,0,0,1,47.74,69.48Z"/></g><rect class="cls-19" x="40.11" y="61.69" width="0.21" height="15.63" rx="0.09" transform="translate(109.72 29.29) rotate(90)"/><g class="cls-3"><path class="cls-17" d="M33.05,71.57h0s0,0,0,0h-.16a.09.09,0,0,1,0-.06v1.09a.05.05,0,0,0,0,0h.22V71.57Z"/><path class="cls-19" d="M33,71.5a.06.06,0,0,1,0,.11.28.28,0,0,1-.18,0,.06.06,0,0,1,0-.11A.28.28,0,0,1,33,71.5Z"/></g><g class="cls-3"><path class="cls-17" d="M34.28,71.57h-.21s0,0,0-.06v1.09a.05.05,0,0,0,0,0h.21V71.57Z"/><path class="cls-19" d="M34.25,71.5a.06.06,0,0,1,0,.11.28.28,0,0,1-.18,0,.06.06,0,0,1,0-.11A.28.28,0,0,1,34.25,71.5Z"/></g><g class="cls-3"><path class="cls-17" d="M35.51,71.57H35.3a.07.07,0,0,1,0-.06v1.09a.05.05,0,0,0,0,0h.15s0,0,0,0h0V71.57Z"/><path class="cls-19" d="M35.47,71.5a.06.06,0,0,1,0,.11.25.25,0,0,1-.17,0,.06.06,0,0,1,0-.11A.25.25,0,0,1,35.47,71.5Z"/></g><g class="cls-3"><path class="cls-17" d="M36.74,71.57h0s0,0,0,0h-.16a.09.09,0,0,1,0-.06v1.09a.05.05,0,0,0,0,0h.22V71.57Z"/><path class="cls-19" d="M36.7,71.5a.06.06,0,0,1,0,.11.28.28,0,0,1-.18,0s-.05-.08,0-.11A.28.28,0,0,1,36.7,71.5Z"/></g><g class="cls-3"><path class="cls-17" d="M38,71.57h-.21s0,0,0-.06v1.09a.07.07,0,0,0,0,0H38V71.57Z"/><path class="cls-19" d="M37.93,71.5a.06.06,0,0,1,0,.11.28.28,0,0,1-.18,0,.06.06,0,0,1,0-.11A.28.28,0,0,1,37.93,71.5Z"/></g><g class="cls-3"><path class="cls-17" d="M39.19,71.57H39a.07.07,0,0,1,0-.06v1.09a.05.05,0,0,0,0,0h.15s0,0,0,0h0V71.57Z"/><path class="cls-19" d="M39.15,71.5a.06.06,0,0,1,0,.11.25.25,0,0,1-.17,0,.06.06,0,0,1,0-.11A.25.25,0,0,1,39.15,71.5Z"/></g><g class="cls-3"><path class="cls-17" d="M40.42,71.57H40.2a.09.09,0,0,1,0-.06v1.09a.05.05,0,0,0,0,0h.22V71.57Z"/><path class="cls-19" d="M40.38,71.5a.06.06,0,0,1,0,.11.28.28,0,0,1-.18,0,.07.07,0,0,1,0-.11A.28.28,0,0,1,40.38,71.5Z"/></g><g class="cls-3"><path class="cls-17" d="M41.64,71.57h-.21s0,0,0-.06v1.09a.07.07,0,0,0,0,0h.21V71.57Z"/><path class="cls-19" d="M41.61,71.5a.06.06,0,0,1,0,.11.28.28,0,0,1-.18,0,.06.06,0,0,1,0-.11A.28.28,0,0,1,41.61,71.5Z"/></g><g class="cls-3"><path class="cls-17" d="M42.87,71.57h-.21a.07.07,0,0,1,0-.06v1.09a.05.05,0,0,0,0,0h.15s0,0,0,0h0V71.57Z"/><path class="cls-19" d="M42.83,71.5a.06.06,0,0,1,0,.11.25.25,0,0,1-.17,0,.06.06,0,0,1,0-.11A.25.25,0,0,1,42.83,71.5Z"/></g><g class="cls-3"><path class="cls-17" d="M44.1,71.57h-.22a.09.09,0,0,1,0-.06v1.09a.05.05,0,0,0,0,0h.22V71.57Z"/><path class="cls-19" d="M44.06,71.5a.06.06,0,0,1,0,.11.28.28,0,0,1-.18,0,.07.07,0,0,1,0-.11A.28.28,0,0,1,44.06,71.5Z"/></g><g class="cls-3"><path class="cls-17" d="M45.32,71.57h-.21s0,0,0-.06v1.09a.07.07,0,0,0,0,0h.21V71.57Z"/><path class="cls-19" d="M45.29,71.5a.06.06,0,0,1,0,.11.28.28,0,0,1-.18,0,.06.06,0,0,1,0-.11A.28.28,0,0,1,45.29,71.5Z"/></g><g class="cls-3"><path class="cls-17" d="M46.55,71.57h-.21a.07.07,0,0,1,0-.06v1.09a.05.05,0,0,0,0,0h.15s0,0,0,0h0V71.57Z"/><path class="cls-19" d="M46.51,71.5a.06.06,0,0,1,0,.11.25.25,0,0,1-.17,0,.06.06,0,0,1,0-.11A.25.25,0,0,1,46.51,71.5Z"/></g><g class="cls-3"><path class="cls-17" d="M47.78,71.57h-.22a.09.09,0,0,1,0-.06v1.09a.05.05,0,0,0,0,0h.22V71.57Z"/><path class="cls-19" d="M47.74,71.5a.06.06,0,0,1,0,.11.28.28,0,0,1-.18,0,.07.07,0,0,1,0-.11A.28.28,0,0,1,47.74,71.5Z"/></g><rect class="cls-19" x="40.11" y="63.71" width="0.21" height="15.63" rx="0.09" transform="translate(111.74 31.31) rotate(90)"/><g class="cls-3"><rect class="cls-17" x="27.69" y="73.44" width="4.59" height="0.9"/><rect class="cls-19" x="27.69" y="68.65" width="4.59" height="4.78"/></g><g class="cls-3"><rect class="cls-19" x="27.69" y="74.32" width="0.22" height="0.83"/></g><rect class="cls-20" x="27.91" y="74.32" width="0.12" height="0.83"/><g class="cls-3"><rect class="cls-19" x="31.94" y="74.32" width="0.22" height="0.83"/></g><rect class="cls-20" x="32.16" y="74.32" width="0.12" height="0.83"/><rect class="cls-16" x="28.03" y="74.33" width="3.9" height="0.83"/><path class="cls-44" d="M44.21,58.45c-10.15-5.87-26.56-5.87-36.65,0s-10,15.36.13,21.22,26.56,5.86,36.64,0S54.36,64.3,44.21,58.45ZM47.84,71c-.73,2-2.59,3.94-5.36,5.54C38.22,79,32.22,80.38,26,80.38S13.82,79,9.53,76.48c-2.85-1.63-4.75-3.63-5.46-5.65A4.92,4.92,0,0,1,3.71,69c0-2.59,2.08-5.27,5.71-7.38,4.25-2.48,10.25-3.91,16.45-3.91s12.2,1.43,16.5,3.92c3.69,2.12,5.8,4.84,5.81,7.46A5.25,5.25,0,0,1,47.84,71Z"/><path class="cls-45" d="M51.79,69.89a7.61,7.61,0,0,1-.09.82c0,.22-.11.44-.17.66s-.13.52-.22.77-.18.43-.27.64a8.25,8.25,0,0,1-.37.8,11.55,11.55,0,0,1-.67,1.1l-.12.17c-.26.36-.55.72-.85,1.07l-.18.2c-.33.36-.7.72-1.09,1.07-.24.22-.52.44-.79.65s-.47.39-.73.58-.61.41-.93.62-.63.43-1,.63a26.73,26.73,0,0,1-2.45,1.24l-.74.31c-.66.28-1.34.54-2,.77-.25.09-.49.18-.75.26-.43.14-.88.26-1.33.38s-.67.19-1,.27-.95.21-1.43.31l-1,.2c-1,.17-2,.31-3,.41l-.92.08c-.58,0-1.16.09-1.75.11-.37,0-.75,0-1.12,0s-.95,0-1.42,0-.79,0-1.19,0L22.94,84l-1.2-.1q-.64-.06-1.29-.15l-1.16-.16q-.69-.11-1.38-.24l-1.07-.22c-.54-.12-1.08-.25-1.61-.39-.3-.08-.6-.15-.89-.24-.95-.28-1.88-.59-2.78-.94-.44-.17-.87-.36-1.3-.55-.23-.1-.46-.19-.68-.3-.65-.31-1.29-.64-1.9-1a17.6,17.6,0,0,1-5.74-5A9.82,9.82,0,0,1,0,69L0,81c0,3.87,2.54,7.74,7.65,10.69.61.35,1.24.68,1.9,1,.22.11.45.2.67.3.39.17.77.35,1.16.5l.15.05c.9.35,1.83.66,2.78.94l.22.08.66.16c.54.14,1.07.27,1.61.39l.43.11.65.11c.46.09.91.17,1.37.24l.55.09.61.07c.43.06.86.11,1.3.15l.61.07c.2,0,.39,0,.58,0l1.32.07c.22,0,.44,0,.66,0s.35,0,.52,0c.48,0,1,0,1.43,0h.7c.14,0,.28,0,.42,0,.58,0,1.17-.07,1.75-.11l.71-.05.21,0c1-.1,2-.24,2.95-.41l.14,0c.28,0,.55-.12.83-.18.48-.1,1-.19,1.44-.31s.68-.18,1-.27.9-.24,1.34-.38l.29-.08.46-.18c.69-.23,1.37-.49,2-.77l.74-.31a26.55,26.55,0,0,0,2.44-1.24l.32-.19c.24-.14.44-.29.67-.44s.64-.41.93-.62.49-.38.73-.58.54-.43.79-.65l.16-.13c.33-.31.64-.63.93-.94.06-.07.11-.14.17-.2s.35-.39.51-.59l.34-.48.13-.17c.2-.3.4-.6.57-.9a1.76,1.76,0,0,0,.09-.2c.14-.26.26-.53.38-.8s.16-.32.22-.47l.05-.17c.09-.25.15-.51.22-.77s.11-.35.15-.52a.71.71,0,0,0,0-.14c.05-.27.07-.55.1-.82s.05-.35.06-.53v-.23l0-12C51.85,69.39,51.81,69.64,51.79,69.89Z"/></g><g class="cls-3"><path class="cls-46" d="M25.66,51.92h0s0,0,0,0h0l0,0h0l0,0,.05,0h.3l0,0a.15.15,0,0,0,.08-.12V54.3a.12.12,0,0,1-.08.11l0,0h-.3l-.05,0h-.07v0h0v0h0V51.92Z"/><path class="cls-47" d="M25.74,51.78c-.11.06-.11.16,0,.23a.45.45,0,0,0,.39,0c.11-.07.11-.17,0-.23A.45.45,0,0,0,25.74,51.78Z"/></g><g class="cls-3"><path class="cls-48" d="M51.18,67h0s0,0,0,0h0a0,0,0,0,0,0,0l0,0h0l.06,0h.29l0,0a.14.14,0,0,0,.08-.11v2.26a.14.14,0,0,1-.08.11l0,0h-.3l-.05,0h0l0,0h0l0,0h0v0h0v0h0V67S51.18,67,51.18,67Z"/><path class="cls-49" d="M51.26,66.85c-.11.07-.11.17,0,.23a.47.47,0,0,0,.4,0c.1-.06.1-.16,0-.23A.44.44,0,0,0,51.26,66.85Z"/></g><g class="cls-3"><path class="cls-50" d="M.15,67h0l0,0h0s0,0,0,0l0,0h0l.05,0h.3l0,0A.14.14,0,0,0,.7,67v2.26a.12.12,0,0,1-.08.11l0,0H.28l-.05,0h0l0,0h0l0,0h0v0h0v0h0V67Z"/><path class="cls-51" d="M.23,66.85c-.11.07-.11.17,0,.23a.45.45,0,0,0,.39,0c.11-.06.11-.16,0-.23A.45.45,0,0,0,.23,66.85Z"/></g><g class="cls-3"><path class="cls-52" d="M25.66,81.45h0l0,0h0l0,0h0l.05,0h.3l0,0a.14.14,0,0,0,.08-.11v2.41a.12.12,0,0,1-.08.11l0,0h-.3l-.05,0h0l0,0h0l0,0h0v0h0v0h0V81.45Z"/><path class="cls-53" d="M25.74,81.31c-.11.06-.11.16,0,.22a.39.39,0,0,0,.39,0c.11-.06.11-.16,0-.22A.44.44,0,0,0,25.74,81.31Z"/></g><g class="cls-3"><path class="cls-54" d="M44.31,77c-10.08,5.86-26.53,5.86-36.66,0C2.54,74.07,0,70.2,0,66.33v.4c0,3.88,2.54,7.75,7.64,10.7,10.14,5.85,26.59,5.86,36.67,0,5-2.91,7.51-6.72,7.52-10.55v-.4C51.82,70.3,49.32,74.11,44.31,77Z"/><path class="cls-55" d="M43.85,56c-10-5.74-26.09-5.74-36,0C3,58.84.51,62.58.5,66.33v.41C.51,63,3,59.25,7.88,56.39c9.88-5.74,26-5.74,36,0,5,2.89,7.51,6.69,7.5,10.49v-.41C51.35,62.68,48.85,58.87,43.85,56Z"/><path class="cls-56" d="M44.19,55.78c-10.14-5.86-26.59-5.85-36.66,0S-2.5,71.16,7.65,77s26.58,5.86,36.66,0S54.33,61.64,44.19,55.78Zm-.23,21c-9.88,5.74-26,5.74-36,0S-2,61.73,7.88,56s26-5.74,36,0S53.85,71.08,44,76.82Z"/></g><g class="cls-3"><rect class="cls-17" x="86.1" y="72.85" width="18.39" height="0.9"/><rect class="cls-19" x="86.1" y="70.4" width="18.39" height="2.45"/></g><g id="水-5" data-name="水"><path class="cls-7" d="M102.16,71c.73,2,2.59,3.94,5.36,5.54,4.26,2.47,10.26,3.89,16.45,3.89s12.21-1.42,16.5-3.9c2.85-1.63,4.75-3.63,5.46-5.65-.72-2-2.59-3.92-5.35-5.52-4.25-2.48-10.25-3.91-16.45-3.91s-12.2,1.43-16.5,3.92C104.8,67,102.9,68.92,102.16,71Z"/></g><g id="水-6" data-name="水"><path class="cls-8" d="M102.16,75c.73,2,2.59,3.94,5.36,5.54,4.26,2.47,10.26,3.89,16.45,3.89s12.21-1.42,16.5-3.9c2.85-1.63,4.75-3.63,5.46-5.65-.72-2-2.59-3.92-5.35-5.52-4.25-2.48-10.25-3.91-16.45-3.91s-12.2,1.43-16.5,3.92C104.8,71,102.9,72.92,102.16,75Z"/></g><g id="水流-3" data-name="水流"><line class="cls-9" x1="132.04" y1="70.06" x2="132.04" y2="68.79"/><line class="cls-9" x1="123.07" y1="65.71" x2="123.07" y2="63.34"/><line class="cls-9" x1="113.27" y1="67.66" x2="113.27" y2="65.28"/><line class="cls-9" x1="119.5" y1="78.36" x2="119.5" y2="75.98"/><line class="cls-10" x1="135.6" y1="76.02" x2="135.6" y2="73.64"/><line class="cls-10" x1="109.76" y1="74.29" x2="109.76" y2="71.73"/><line class="cls-10" x1="116.55" y1="71.91" x2="116.55" y2="70.61"/><line class="cls-10" x1="125.19" y1="73.79" x2="125.19" y2="71.23"/></g><g class="cls-3"><path class="cls-57" d="M101.82,69.1a5.25,5.25,0,0,0,.34,1.85c.74-2,2.64-4,5.47-5.63,4.3-2.49,10.31-3.92,16.5-3.92s12.2,1.43,16.45,3.91c2.76,1.6,4.63,3.54,5.35,5.52a4.92,4.92,0,0,0,.36-1.82c0-2.59-2.08-5.27-5.71-7.38-4.25-2.48-10.25-3.91-16.45-3.91s-12.2,1.43-16.5,3.92C103.94,63.76,101.83,66.48,101.82,69.1Z"/><g class="cls-3"><path class="cls-58" d="M110.75,63.65c.45-.25.91-.49,1.39-.72l.48-.21.85-.37.1,0c.66-.26,1.33-.48,2-.69l.16-.05.48-.12,1.18-.29.31-.07.47-.09,1-.17.4-.07.45-.05,1-.1.44,0,.43,0,1,0,.48,0h1.94l.31,0c.43,0,.85,0,1.28.08l.52,0,.15,0c.72.07,1.44.17,2.15.3h.11l.61.13,1,.22.74.2,1,.28.22.06.33.13c.51.17,1,.36,1.48.56l.53.23a18.46,18.46,0,0,1,1.78.89l.23.14c.17.1.32.22.49.33s.46.29.67.44.36.28.53.42.4.32.58.48l.11.09c.24.23.47.46.68.69l.13.15c.12.14.25.28.36.42s.08.13.13.19c.16.22.31.44.44.66s.13.18.19.28l.07.14c.1.2.19.39.27.59s.12.23.16.34,0,.08,0,.12c.06.19.11.38.16.57s.08.25.11.38a.34.34,0,0,0,0,.1c0,.2,0,.4.07.6s0,.26,0,.38v1.17a5.11,5.11,0,0,0,0-.55c0-.2,0-.4-.07-.6s-.08-.32-.12-.48-.1-.38-.16-.57-.13-.3-.2-.46-.17-.39-.27-.59l-.25-.42q-.21-.33-.45-.66c-.15-.2-.31-.41-.49-.61l-.13-.15a9.71,9.71,0,0,0-.79-.78c-.18-.16-.38-.32-.58-.48s-.34-.28-.53-.42-.44-.3-.67-.44-.46-.32-.72-.47a19.5,19.5,0,0,0-1.77-.89l-.54-.23c-.48-.2-1-.39-1.47-.56l-.56-.19-1-.28-.75-.2-1-.22-.72-.14c-.7-.13-1.42-.23-2.15-.3-.22,0-.44,0-.67-.06-.42,0-.85-.07-1.28-.08-.27,0-.55,0-.82,0h-1l-.86,0-1,0-.87.08-1,.1-.84.12c-.34,0-.67.11-1,.18l-.78.15-1.18.29-.64.17c-.69.21-1.37.43-2,.69-.33.12-.64.26-1,.4l-.49.21q-.72.34-1.38.72c-3.72,2.15-5.57,5-5.56,7.79v-1C105.19,68.62,107,65.8,110.75,63.65Z"/><path class="cls-59" d="M109.92,79.56c7.75,4.51,20.41,4.51,28.21,0s7.84-11.84.09-16.34-20.4-4.51-28.21,0S102.16,75.05,109.92,79.56Zm.83-15.91c7.39-4.26,19.38-4.26,26.72,0s7.29,11.21-.1,15.47-19.36,4.27-26.69,0S103.37,67.92,110.75,63.65Z"/><path class="cls-14" d="M104.18,72a4.5,4.5,0,0,0,.07.63,4.77,4.77,0,0,0,.13.51c.05.2.1.4.17.6s.13.33.2.49.18.41.29.62.18.3.27.44.3.47.47.7a7.79,7.79,0,0,0,.52.65l.14.16a10.92,10.92,0,0,0,.84.82l.6.51.56.44c.23.16.47.32.72.47s.49.34.76.49a18.19,18.19,0,0,0,1.87,1l.57.24c.5.21,1,.41,1.56.59l.58.2c.33.11.68.2,1,.29l.79.22,1.09.23.76.15c.75.13,1.51.24,2.27.32l.71.06c.45,0,.9.07,1.36.09l.86,0h1.1l.91,0,1-.05.92-.08,1-.11.89-.13c.36,0,.71-.11,1.06-.18l.83-.17c.42-.09.83-.19,1.24-.3l.68-.18c.74-.22,1.45-.46,2.14-.73.34-.13.67-.28,1-.42l.52-.23c.5-.23,1-.49,1.46-.76,3.93-2.27,5.89-5.25,5.88-8.23v1c0,3-1.95,6-5.88,8.23-.47.27-1,.53-1.46.76l-.51.23c-.3.13-.59.27-.89.39l-.12,0c-.69.27-1.4.51-2.13.73l-.17,0-.52.13c-.41.11-.82.21-1.24.3l-.32.08-.51.09q-.52.11-1,.18l-.42.08-.48,0-1,.11-.47,0c-.15,0-.3,0-.45,0l-1,.05c-.17,0-.34,0-.51,0h-1.51c-.18,0-.36,0-.54,0l-.32,0c-.45,0-.91-.05-1.36-.09l-.54,0-.16,0c-.77-.08-1.53-.19-2.27-.32h-.12l-.64-.14-1.1-.23-.79-.22c-.34-.09-.68-.18-1-.29l-.23-.06-.35-.14c-.53-.18-1-.38-1.56-.59l-.57-.24a18.19,18.19,0,0,1-1.87-1l-.24-.14c-.19-.11-.35-.23-.52-.35s-.49-.31-.71-.47l-.56-.44c-.21-.17-.42-.34-.61-.51a.58.58,0,0,1-.12-.1,9.78,9.78,0,0,1-.72-.72l-.14-.16-.38-.45c0-.06-.09-.13-.14-.2-.17-.23-.32-.46-.47-.7a2.9,2.9,0,0,1-.19-.29,1,1,0,0,1-.07-.15c-.11-.21-.2-.41-.29-.62a2.92,2.92,0,0,1-.17-.36s0-.09,0-.13c-.07-.2-.12-.4-.17-.6s-.09-.26-.12-.4a.45.45,0,0,0,0-.11c0-.21,0-.42-.07-.63s0-.27-.05-.41V71.45A5.67,5.67,0,0,0,104.18,72Z"/></g><g class="cls-3"><rect class="cls-43" x="99.35" y="72.85" width="18.39" height="0.9"/><rect class="cls-18" x="99.35" y="70.4" width="18.39" height="2.45"/></g><g class="cls-3"><rect class="cls-17" x="121.3" y="71.68" width="10.35" height="0.4"/><rect class="cls-19" x="121.3" y="71.16" width="10.35" height="0.52"/></g><g class="cls-3"><path class="cls-17" d="M117,69.55h0l0,0h.16a.05.05,0,0,0,0,0v1.09a.05.05,0,0,1,0,0h-.22V69.55Z"/><path class="cls-19" d="M117,69.48s0,.08,0,.1a.19.19,0,0,0,.18,0s0-.07,0-.1A.19.19,0,0,0,117,69.48Z"/></g><g class="cls-3"><path class="cls-17" d="M115.72,69.55h0l0,0h.15a.07.07,0,0,0,0,0v1.09a.05.05,0,0,1,0,0h-.21V69.55Z"/><path class="cls-19" d="M115.75,69.48s0,.08,0,.1a.19.19,0,0,0,.18,0s0-.07,0-.1A.19.19,0,0,0,115.75,69.48Z"/></g><g class="cls-3"><path class="cls-17" d="M114.49,69.55h0s0,0,0,0h.15a.05.05,0,0,0,0,0v1.09a.05.05,0,0,1,0,0h-.15s0,0,0,0h0V69.55Z"/><path class="cls-19" d="M114.53,69.48s0,.08,0,.1a.17.17,0,0,0,.17,0s0-.07,0-.1A.17.17,0,0,0,114.53,69.48Z"/></g><g class="cls-3"><path class="cls-17" d="M113.26,69.55h0l0,0h.16a.05.05,0,0,0,0,0v1.09a.05.05,0,0,1,0,0h-.22V69.55Z"/><path class="cls-19" d="M113.3,69.48s0,.08,0,.1a.19.19,0,0,0,.18,0,.05.05,0,0,0,0-.1A.19.19,0,0,0,113.3,69.48Z"/></g><g class="cls-3"><path class="cls-17" d="M112,69.55h0l0,0h.15a.07.07,0,0,0,0,0v1.09a.07.07,0,0,1,0,0H112V69.55Z"/><path class="cls-19" d="M112.07,69.48s0,.08,0,.1a.19.19,0,0,0,.18,0s0-.07,0-.1A.19.19,0,0,0,112.07,69.48Z"/></g><g class="cls-3"><path class="cls-17" d="M110.81,69.55h0s0,0,0,0H111a.05.05,0,0,0,0,0v1.09a.05.05,0,0,1,0,0h-.15s0,0,0,0h0V69.55Z"/><path class="cls-19" d="M110.85,69.48s0,.08,0,.1a.17.17,0,0,0,.17,0s0-.07,0-.1A.17.17,0,0,0,110.85,69.48Z"/></g><g class="cls-3"><path class="cls-17" d="M109.58,69.55h0l0,0h.16a.05.05,0,0,0,0,0v1.09a.05.05,0,0,1,0,0h-.22V69.55Z"/><path class="cls-19" d="M109.62,69.48c-.05,0-.05.08,0,.1a.19.19,0,0,0,.18,0,.06.06,0,0,0,0-.1A.19.19,0,0,0,109.62,69.48Z"/></g><g class="cls-3"><path class="cls-17" d="M108.36,69.55h0l0,0h.15a.07.07,0,0,0,0,0v1.09a.07.07,0,0,1,0,0h-.21V69.55Z"/><path class="cls-19" d="M108.39,69.48s0,.08,0,.1a.19.19,0,0,0,.18,0c.05,0,.05-.07,0-.1A.19.19,0,0,0,108.39,69.48Z"/></g><g class="cls-3"><path class="cls-17" d="M107.13,69.55h0s0,0,0,0h.15a.05.05,0,0,0,0,0v1.09a.05.05,0,0,1,0,0h-.15s0,0,0,0h0V69.55Z"/><path class="cls-19" d="M107.17,69.48s0,.08,0,.1a.17.17,0,0,0,.17,0s0-.07,0-.1A.17.17,0,0,0,107.17,69.48Z"/></g><g class="cls-3"><path class="cls-17" d="M105.9,69.55h0l0,0h.16a.05.05,0,0,0,0,0v1.09a.05.05,0,0,1,0,0h-.22V69.55Z"/><path class="cls-19" d="M105.94,69.48s0,.08,0,.1a.19.19,0,0,0,.18,0,.06.06,0,0,0,0-.1A.19.19,0,0,0,105.94,69.48Z"/></g><g class="cls-3"><path class="cls-17" d="M104.68,69.55h0l0,0h.15a.07.07,0,0,0,0,0v1.09a.07.07,0,0,1,0,0h-.21V69.55Z"/><path class="cls-19" d="M104.71,69.48s0,.08,0,.1a.19.19,0,0,0,.18,0s0-.07,0-.1A.19.19,0,0,0,104.71,69.48Z"/></g><g class="cls-3"><path class="cls-17" d="M103.45,69.55h0s0,0,0,0h.15a.05.05,0,0,0,0,0v1.09a.05.05,0,0,1,0,0h-.15s0,0,0,0h0V69.55Z"/><path class="cls-19" d="M103.49,69.48s0,.08,0,.1a.17.17,0,0,0,.17,0s0-.07,0-.1A.17.17,0,0,0,103.49,69.48Z"/></g><g class="cls-3"><path class="cls-17" d="M102.22,69.55h0l0,0h.16a.05.05,0,0,0,0,0v1.09a.05.05,0,0,1,0,0h-.22V69.55Z"/><path class="cls-19" d="M102.26,69.48c-.05,0-.05.08,0,.1a.19.19,0,0,0,.18,0,.06.06,0,0,0,0-.1A.19.19,0,0,0,102.26,69.48Z"/></g><rect class="cls-19" x="109.68" y="61.69" width="0.21" height="15.63" rx="0.09" transform="translate(179.29 -40.28) rotate(90)"/><g class="cls-3"><path class="cls-17" d="M117,71.57h0s0,0,0,0h.16a.09.09,0,0,0,0-.06v1.09a.05.05,0,0,1,0,0h-.22V71.57Z"/><path class="cls-19" d="M117,71.5a.06.06,0,0,0,0,.11.28.28,0,0,0,.18,0,.06.06,0,0,0,0-.11A.28.28,0,0,0,117,71.5Z"/></g><g class="cls-3"><path class="cls-17" d="M115.72,71.57h.21s0,0,0-.06v1.09a.05.05,0,0,1,0,0h-.21V71.57Z"/><path class="cls-19" d="M115.75,71.5a.06.06,0,0,0,0,.11.28.28,0,0,0,.18,0,.06.06,0,0,0,0-.11A.28.28,0,0,0,115.75,71.5Z"/></g><g class="cls-3"><path class="cls-17" d="M114.49,71.57h.21a.07.07,0,0,0,0-.06v1.09a.05.05,0,0,1,0,0h-.15s0,0,0,0h0V71.57Z"/><path class="cls-19" d="M114.53,71.5a.06.06,0,0,0,0,.11.25.25,0,0,0,.17,0,.06.06,0,0,0,0-.11A.25.25,0,0,0,114.53,71.5Z"/></g><g class="cls-3"><path class="cls-17" d="M113.26,71.57h0s0,0,0,0h.16a.09.09,0,0,0,0-.06v1.09a.05.05,0,0,1,0,0h-.22V71.57Z"/><path class="cls-19" d="M113.3,71.5a.06.06,0,0,0,0,.11.28.28,0,0,0,.18,0s0-.08,0-.11A.28.28,0,0,0,113.3,71.5Z"/></g><g class="cls-3"><path class="cls-17" d="M112,71.57h.21s0,0,0-.06v1.09a.07.07,0,0,1,0,0H112V71.57Z"/><path class="cls-19" d="M112.07,71.5a.06.06,0,0,0,0,.11.28.28,0,0,0,.18,0,.06.06,0,0,0,0-.11A.28.28,0,0,0,112.07,71.5Z"/></g><g class="cls-3"><path class="cls-17" d="M110.81,71.57H111a.07.07,0,0,0,0-.06v1.09a.05.05,0,0,1,0,0h-.15s0,0,0,0h0V71.57Z"/><path class="cls-19" d="M110.85,71.5a.06.06,0,0,0,0,.11.25.25,0,0,0,.17,0,.06.06,0,0,0,0-.11A.25.25,0,0,0,110.85,71.5Z"/></g><g class="cls-3"><path class="cls-17" d="M109.58,71.57h.22a.09.09,0,0,0,0-.06v1.09a.05.05,0,0,1,0,0h-.22V71.57Z"/><path class="cls-19" d="M109.62,71.5a.06.06,0,0,0,0,.11.28.28,0,0,0,.18,0,.07.07,0,0,0,0-.11A.28.28,0,0,0,109.62,71.5Z"/></g><g class="cls-3"><path class="cls-17" d="M108.36,71.57h.21s0,0,0-.06v1.09a.07.07,0,0,1,0,0h-.21V71.57Z"/><path class="cls-19" d="M108.39,71.5a.06.06,0,0,0,0,.11.28.28,0,0,0,.18,0,.06.06,0,0,0,0-.11A.28.28,0,0,0,108.39,71.5Z"/></g><g class="cls-3"><path class="cls-17" d="M107.13,71.57h.21a.07.07,0,0,0,0-.06v1.09a.05.05,0,0,1,0,0h-.15s0,0,0,0h0V71.57Z"/><path class="cls-19" d="M107.17,71.5a.06.06,0,0,0,0,.11.25.25,0,0,0,.17,0,.06.06,0,0,0,0-.11A.25.25,0,0,0,107.17,71.5Z"/></g><g class="cls-3"><path class="cls-17" d="M105.9,71.57h.22a.09.09,0,0,0,0-.06v1.09a.05.05,0,0,1,0,0h-.22V71.57Z"/><path class="cls-19" d="M105.94,71.5a.06.06,0,0,0,0,.11.28.28,0,0,0,.18,0,.07.07,0,0,0,0-.11A.28.28,0,0,0,105.94,71.5Z"/></g><g class="cls-3"><path class="cls-17" d="M104.68,71.57h.21s0,0,0-.06v1.09a.07.07,0,0,1,0,0h-.21V71.57Z"/><path class="cls-19" d="M104.71,71.5a.06.06,0,0,0,0,.11.28.28,0,0,0,.18,0,.06.06,0,0,0,0-.11A.28.28,0,0,0,104.71,71.5Z"/></g><g class="cls-3"><path class="cls-17" d="M103.45,71.57h.21a.07.07,0,0,0,0-.06v1.09a.05.05,0,0,1,0,0h-.15s0,0,0,0h0V71.57Z"/><path class="cls-19" d="M103.49,71.5a.06.06,0,0,0,0,.11.25.25,0,0,0,.17,0,.06.06,0,0,0,0-.11A.25.25,0,0,0,103.49,71.5Z"/></g><g class="cls-3"><path class="cls-17" d="M102.22,71.57h.22a.09.09,0,0,0,0-.06v1.09a.05.05,0,0,1,0,0h-.22V71.57Z"/><path class="cls-19" d="M102.26,71.5a.06.06,0,0,0,0,.11.28.28,0,0,0,.18,0,.07.07,0,0,0,0-.11A.28.28,0,0,0,102.26,71.5Z"/></g><rect class="cls-19" x="109.68" y="63.71" width="0.21" height="15.63" rx="0.09" transform="translate(181.31 -38.26) rotate(90)"/><g class="cls-3"><rect class="cls-17" x="117.72" y="73.44" width="4.59" height="0.9"/><rect class="cls-19" x="117.72" y="68.65" width="4.59" height="4.78"/></g><g class="cls-3"><rect class="cls-19" x="122.09" y="74.32" width="0.22" height="0.83"/></g><rect class="cls-20" x="121.97" y="74.32" width="0.12" height="0.83"/><g class="cls-3"><rect class="cls-19" x="117.84" y="74.32" width="0.22" height="0.83"/></g><rect class="cls-20" x="117.73" y="74.32" width="0.12" height="0.83"/><rect class="cls-16" x="118.08" y="74.33" width="3.9" height="0.83"/><path class="cls-60" d="M105.67,79.67c10.08,5.86,26.5,5.86,36.64,0s10.21-15.37.13-21.22-26.5-5.87-36.65,0S95.59,73.81,105.67,79.67ZM101.82,69.1c0-2.62,2.12-5.34,5.81-7.46,4.3-2.49,10.31-3.92,16.5-3.92s12.2,1.43,16.45,3.91c3.63,2.11,5.71,4.79,5.71,7.38a4.92,4.92,0,0,1-.36,1.82c-.71,2-2.61,4-5.46,5.65-4.29,2.48-10.3,3.9-16.5,3.9S111.78,79,107.52,76.49c-2.77-1.6-4.63-3.55-5.36-5.54A5.25,5.25,0,0,1,101.82,69.1Z"/><path class="cls-61" d="M98.21,69.89a7.61,7.61,0,0,0,.09.82c0,.22.11.44.17.66s.13.52.22.77.18.43.27.64a8.25,8.25,0,0,0,.37.8,11.55,11.55,0,0,0,.67,1.1l.12.17c.26.36.55.72.85,1.07l.18.2c.33.36.7.72,1.09,1.07s.52.44.79.65.47.39.73.58.61.41.93.62.63.43,1,.63a26.73,26.73,0,0,0,2.45,1.24l.74.31c.66.28,1.34.54,2,.77.25.09.49.18.75.26.43.14.88.26,1.33.38s.67.19,1,.27,1,.21,1.43.31l1,.2c1,.17,1.95.31,2.95.41l.92.08c.58,0,1.16.09,1.75.11.37,0,.75,0,1.12,0s1,0,1.42,0,.79,0,1.19,0l1.31-.07,1.2-.1q.65-.06,1.29-.15l1.16-.16q.69-.11,1.38-.24l1.07-.22c.54-.12,1.08-.25,1.61-.39.3-.08.6-.15.89-.24,1-.28,1.88-.59,2.78-.94.44-.17.87-.36,1.3-.55.23-.1.46-.19.68-.3.65-.31,1.29-.64,1.9-1a17.6,17.6,0,0,0,5.74-5A9.82,9.82,0,0,0,150,69l0,12c0,3.87-2.54,7.74-7.65,10.69-.61.35-1.24.68-1.9,1-.22.11-.45.2-.67.3-.39.17-.77.35-1.16.5l-.15.05c-.9.35-1.83.66-2.78.94l-.22.08-.66.16c-.54.14-1.07.27-1.61.39l-.43.11-.65.11c-.46.09-.91.17-1.37.24l-.55.09-.61.07c-.43.06-.86.11-1.3.15l-.61.07c-.2,0-.39,0-.58,0l-1.32.07c-.22,0-.44,0-.66,0s-.35,0-.52,0c-.48,0-.95,0-1.43,0h-.7c-.14,0-.28,0-.42,0-.58,0-1.17-.07-1.75-.11l-.71-.05-.21,0c-1-.1-2-.24-2.95-.41l-.14,0c-.28,0-.55-.12-.83-.18-.48-.1-1-.19-1.44-.31s-.68-.18-1-.27-.9-.24-1.34-.38l-.29-.08-.46-.18c-.69-.23-1.37-.49-2-.77l-.74-.31a26.55,26.55,0,0,1-2.44-1.24l-.32-.19c-.24-.14-.44-.29-.67-.44s-.64-.41-.93-.62-.49-.38-.73-.58-.54-.43-.79-.65l-.16-.13c-.33-.31-.64-.63-.93-.94-.06-.07-.11-.14-.17-.2s-.35-.39-.51-.59l-.34-.48-.13-.17c-.2-.3-.4-.6-.57-.9a1.76,1.76,0,0,1-.09-.2c-.14-.26-.26-.53-.38-.8s-.16-.32-.22-.47l0-.17c-.09-.25-.15-.51-.22-.77s-.11-.35-.15-.52a.71.71,0,0,1,0-.14c0-.27-.07-.55-.1-.82s0-.35-.06-.53v-.23l0-12C98.15,69.39,98.19,69.64,98.21,69.89Z"/></g><g class="cls-3"><path class="cls-62" d="M123.8,51.92h0s0,0,0,0h0l0,0h0v0l.06,0h.29l0,0a.17.17,0,0,0,.08-.12V54.3a.14.14,0,0,1-.08.11l0,0h-.3l-.05,0h-.07v0h0v0h0V51.89S123.8,51.91,123.8,51.92Z"/><path class="cls-63" d="M123.88,51.78a.12.12,0,0,0,0,.23.47.47,0,0,0,.4,0c.1-.07.11-.17,0-.23A.44.44,0,0,0,123.88,51.78Z"/></g><g class="cls-3"><path class="cls-64" d="M149.32,67h0s0,0,0,0h0l0,0v0h0l.06,0h.29l0,0a.12.12,0,0,0,.08-.11v2.26a.14.14,0,0,1-.08.11l0,0h-.3l-.06,0h0l0,0h0l0,0h0v0h0v0h0V67A0,0,0,0,0,149.32,67Z"/><path class="cls-65" d="M149.39,66.85c-.11.07-.11.17,0,.23a.44.44,0,0,0,.39,0c.11-.06.11-.16,0-.23A.44.44,0,0,0,149.39,66.85Z"/></g><g class="cls-3"><path class="cls-66" d="M98.29,67h0a0,0,0,0,0,0,0h0a0,0,0,0,0,0,0l0,0h0l.06,0h.29l.05,0a.14.14,0,0,0,.08-.11v2.26a.14.14,0,0,1-.08.11l0,0h-.3l0,0h0l0,0h0l0,0h0v0h0v0h0V67S98.29,67,98.29,67Z"/><path class="cls-67" d="M98.37,66.85c-.11.07-.11.17,0,.23a.47.47,0,0,0,.4,0c.1-.06.1-.16,0-.23A.44.44,0,0,0,98.37,66.85Z"/></g><g class="cls-3"><path class="cls-68" d="M123.8,81.45h0s0,0,0,0h0l0,0h0l.06,0h.29l0,0a.14.14,0,0,0,.08-.11v2.41a.14.14,0,0,1-.08.11l0,0h-.3l-.05,0h0l0,0h0l0,0h0v0h0v0h0V81.42S123.8,81.44,123.8,81.45Z"/><path class="cls-69" d="M123.88,81.31c-.11.06-.11.16,0,.22a.41.41,0,0,0,.4,0c.1-.06.11-.16,0-.22A.41.41,0,0,0,123.88,81.31Z"/></g><g class="cls-3"><path class="cls-70" d="M142.45,77c-10.08,5.86-26.53,5.85-36.67,0-5.1-3-7.65-6.82-7.64-10.69v.4c0,3.87,2.54,7.75,7.64,10.7,10.14,5.85,26.59,5.86,36.67,0,5-2.91,7.51-6.73,7.52-10.55v-.4C150,70.3,147.46,74.11,142.45,77Z"/><path class="cls-71" d="M142,56c-9.94-5.74-26.08-5.74-36,0-4.91,2.86-7.36,6.6-7.37,10.35v.41c0-3.75,2.46-7.5,7.37-10.35,9.89-5.74,26-5.74,36,0,5,2.89,7.51,6.69,7.5,10.49v-.41C149.49,62.68,147,58.87,142,56Z"/><path class="cls-72" d="M142.33,55.78c-10.14-5.86-26.59-5.85-36.67,0s-10,15.38.12,21.24,26.59,5.86,36.67,0S152.47,61.63,142.33,55.78Zm-.23,21c-9.88,5.74-26,5.74-36,0S96.13,61.73,106,56s26-5.74,36,0S152,71.08,142.1,76.82Z"/></g><g class="cls-3"><rect class="cls-17" x="73.16" y="86.55" width="3.68" height="2.13"/><rect class="cls-19" x="73.16" y="76.74" width="3.68" height="9.81"/></g><g id="水-7" data-name="水"><path class="cls-7" d="M96.91,96.71c-.73,2-2.59,3.94-5.36,5.54-4.26,2.47-10.26,3.89-16.45,3.89s-12.21-1.42-16.5-3.9c-2.85-1.63-4.75-3.63-5.46-5.65.72-2,2.58-3.92,5.35-5.52,4.25-2.48,10.25-3.9,16.45-3.9s12.2,1.42,16.5,3.91C94.27,92.71,96.17,94.69,96.91,96.71Z"/></g><g id="水-8" data-name="水"><path class="cls-8" d="M96.91,100.71c-.73,2-2.59,3.94-5.36,5.54-4.26,2.47-10.26,3.89-16.45,3.89s-12.21-1.42-16.5-3.9c-2.85-1.63-4.75-3.63-5.46-5.65.72-2,2.58-3.92,5.35-5.52,4.25-2.48,10.25-3.9,16.45-3.9s12.2,1.42,16.5,3.91C94.27,96.71,96.17,98.69,96.91,100.71Z"/></g><g id="水流-4" data-name="水流"><line class="cls-9" x1="66.36" y1="93.53" x2="69.82" y2="93.53"/><line class="cls-9" x1="83.41" y1="96.99" x2="86.86" y2="96.99"/><line class="cls-9" x1="64.36" y1="101.55" x2="66.03" y2="101.55"/><line class="cls-10" x1="74.5" y1="99.55" x2="77.06" y2="99.55"/><line class="cls-10" x1="60.79" y1="97.21" x2="63.36" y2="97.21"/><line class="cls-10" x1="81.74" y1="91.31" x2="84.3" y2="91.31"/><line class="cls-10" x1="82.82" y1="102.03" x2="85.39" y2="102.03"/></g><g class="cls-3"><path class="cls-73" d="M97.25,94.86a5.25,5.25,0,0,1-.34,1.85c-.74-2-2.64-4-5.47-5.63-4.3-2.49-10.31-3.91-16.5-3.91s-12.2,1.42-16.45,3.9c-2.77,1.6-4.63,3.54-5.35,5.52a4.92,4.92,0,0,1-.36-1.82c0-2.59,2.07-5.27,5.71-7.38,4.25-2.48,10.25-3.9,16.45-3.9s12.2,1.42,16.5,3.91C95.13,89.52,97.24,92.24,97.25,94.86Z"/><g class="cls-3"><path class="cls-74" d="M88.31,89.42c-.44-.26-.9-.5-1.38-.73l-.48-.21-.85-.37-.11,0c-.65-.26-1.33-.48-2-.68l-.16-.06-.48-.12-1.18-.29-.31-.07-.47-.08c-.34-.07-.67-.13-1-.18l-.39-.07-.45,0-1-.1-.45,0-.42,0-1,0-.48,0c-.13,0-.26,0-.39,0-.34,0-.69,0-1,0h-.51l-.31,0c-.43,0-.85,0-1.28.08l-.52,0-.15,0c-.72.07-1.44.17-2.15.3H69.3l-.61.13-1,.22-.74.2-1,.28-.22.06-.33.13c-.51.17-1,.36-1.48.56l-.54.23a17.27,17.27,0,0,0-1.77.9l-.23.13-.49.33c-.23.15-.46.29-.67.45s-.36.27-.53.41-.4.32-.58.48l-.11.09c-.24.23-.47.46-.68.69l-.13.15c-.12.14-.25.28-.36.42s-.08.13-.13.2a6.75,6.75,0,0,0-.44.65c-.06.1-.14.18-.19.28s0,.1-.07.14c-.1.2-.19.4-.27.59s-.12.23-.16.34,0,.08,0,.12-.11.38-.16.57-.08.25-.11.38a.34.34,0,0,1,0,.1c0,.2-.05.4-.07.6s0,.26,0,.39v1.16a5.11,5.11,0,0,1,.05-.55c0-.2,0-.4.07-.6s.08-.32.12-.48.09-.38.16-.57.13-.3.19-.46.18-.39.28-.59l.25-.42c.14-.22.29-.44.45-.65a7,7,0,0,1,.49-.62l.13-.15c.24-.27.51-.52.79-.78s.38-.32.58-.48.34-.28.53-.41.44-.3.67-.45.46-.32.72-.46a17.27,17.27,0,0,1,1.77-.9l.54-.23c.48-.2,1-.39,1.47-.56l.56-.19,1-.28.75-.2,1-.22.72-.14c.7-.13,1.42-.23,2.15-.3.22,0,.44,0,.67-.06.42,0,.85-.07,1.28-.08.27,0,.55,0,.82,0s.69,0,1,0l.86,0,1,0,.87.08,1,.1.84.12c.34.05.67.11,1,.18l.79.15,1.18.29c.21.06.43.11.64.18.69.2,1.37.42,2,.68.33.12.64.26,1,.4l.49.21q.72.34,1.38.72c3.72,2.15,5.57,5,5.56,7.79v-1C93.88,94.38,92,91.56,88.31,89.42Z"/><path class="cls-75" d="M89.06,89c-7.81-4.51-20.45-4.51-28.21,0s-7.72,11.84.09,16.34,20.46,4.51,28.21,0S96.86,93.48,89.06,89Zm-.67,15.9c-7.33,4.27-19.31,4.27-26.7,0s-7.43-11.2-.09-15.46,19.33-4.27,26.71,0S95.73,100.62,88.39,104.88Z"/><path class="cls-14" d="M94.89,97.79c0,.21,0,.42-.07.63a4.77,4.77,0,0,1-.13.51c0,.2-.1.4-.17.6s-.13.33-.2.49-.18.41-.29.62l-.27.45c-.15.23-.3.46-.47.69a7.79,7.79,0,0,1-.52.65l-.14.16a10.92,10.92,0,0,1-.84.82c-.19.18-.4.34-.6.51s-.37.3-.57.44-.47.32-.71.47-.49.34-.76.49a18.19,18.19,0,0,1-1.87,1c-.19.09-.38.16-.57.24-.51.22-1,.41-1.56.59l-.58.2c-.33.11-.68.2-1,.29l-.79.22-1.09.23c-.26,0-.51.11-.77.15-.74.14-1.5.24-2.27.32l-.7.06c-.45,0-.9.07-1.36.09l-.86,0h-1.1l-.92,0-1,0-.92-.08-1-.11-.89-.13c-.36-.05-.71-.11-1.06-.18l-.83-.17c-.42-.09-.83-.19-1.25-.3l-.67-.18c-.74-.22-1.45-.46-2.14-.72l-1-.43-.51-.23c-.5-.23-1-.49-1.46-.76-3.93-2.26-5.89-5.25-5.88-8.22v1c0,3,1.95,6,5.88,8.22.47.27,1,.53,1.46.76l.51.23c.3.13.59.27.89.39l.11,0c.7.27,1.41.51,2.14.73l.17.05.51.13c.41.11.83.21,1.25.3l.32.08.5.09c.35.07.71.13,1.06.18l.42.08.48,0,1,.11.48.06.45,0,1,0c.17,0,.34,0,.51,0h2l.32,0,1.36-.09.54,0,.16,0c.77-.08,1.52-.18,2.27-.32H81l.64-.14,1.1-.23.79-.22c.34-.09.68-.18,1-.29l.23-.06.35-.14c.53-.18,1-.37,1.56-.59.19-.08.38-.15.57-.24a19.27,19.27,0,0,0,1.87-1l.24-.14c.19-.11.35-.23.52-.35s.49-.31.71-.47.38-.29.56-.44.42-.33.61-.51l.12-.09a9.88,9.88,0,0,0,.72-.73l.14-.16c.13-.15.26-.29.38-.44l.14-.21a7.66,7.66,0,0,0,.46-.7c.06-.09.14-.19.2-.29a1,1,0,0,0,.07-.15c.11-.21.2-.41.29-.62a2.92,2.92,0,0,0,.17-.36s0-.09,0-.13c.07-.2.12-.4.17-.6s.09-.26.12-.4a.45.45,0,0,1,0-.11c0-.21.05-.42.07-.63s0-.27,0-.4V97.21A5.67,5.67,0,0,1,94.89,97.79Z"/></g><path class="cls-76" d="M93.28,84.21c-10.15-5.86-26.56-5.86-36.65,0s-10,15.36.13,21.22,26.55,5.87,36.64,0S103.43,90.06,93.28,84.21Zm3.63,12.5c-.73,2-2.59,3.94-5.36,5.54-4.26,2.47-10.26,3.89-16.45,3.89s-12.21-1.42-16.5-3.9c-2.85-1.63-4.75-3.63-5.46-5.65a4.92,4.92,0,0,1-.36-1.82c0-2.59,2.07-5.27,5.71-7.38,4.25-2.48,10.25-3.9,16.45-3.9s12.2,1.42,16.5,3.91c3.69,2.12,5.8,4.84,5.81,7.46A5.25,5.25,0,0,1,96.91,96.71Z"/><g class="cls-3"><rect class="cls-17" x="73.16" y="94.25" width="3.68" height="2.13"/><rect class="cls-18" x="73.16" y="84.44" width="3.68" height="9.81"/></g><g class="cls-3"><rect class="cls-17" x="71.93" y="97.23" width="6.13" height="0.82"/><rect class="cls-19" x="71.93" y="93.46" width="6.13" height="3.76"/></g><g class="cls-3"><rect class="cls-19" x="71.93" y="98.05" width="0.22" height="0.83"/></g><rect class="cls-20" x="72.15" y="98.05" width="0.12" height="0.83"/><g class="cls-3"><rect class="cls-19" x="77.72" y="98.05" width="0.22" height="0.83"/></g><rect class="cls-20" x="77.94" y="98.05" width="0.12" height="0.83"/><rect class="cls-16" x="72.27" y="98.05" width="5.45" height="0.83"/><rect class="cls-19" x="74.6" y="97.71" width="0.79" height="4.7"/><rect class="cls-19" x="73.35" y="84.53" width="0.21" height="8.66" rx="0.08" transform="translate(146.91 177.71) rotate(180)"/><rect class="cls-19" x="76.44" y="84.53" width="0.21" height="8.66" rx="0.08" transform="translate(153.09 177.71) rotate(180)"/><path class="cls-77" d="M100.86,95.65a7.34,7.34,0,0,1-.09.82c0,.22-.11.44-.17.66s-.13.52-.22.78-.18.42-.27.63a8.34,8.34,0,0,1-.38.8,9.7,9.7,0,0,1-.66,1.1l-.12.17c-.26.36-.55.72-.85,1.07l-.18.2c-.33.36-.7.72-1.09,1.07s-.52.44-.79.65-.47.39-.73.58-.61.41-.93.62-.63.43-1,.63A26.73,26.73,0,0,1,91,106.67l-.74.31c-.66.28-1.34.54-2,.77-.25.09-.49.18-.75.26-.43.14-.88.26-1.33.38l-1,.28c-.47.11-1,.2-1.43.3l-1,.2c-1,.17-2,.31-3,.41l-.92.08c-.58,0-1.16.09-1.75.11l-1.12,0H74.51c-.4,0-.79,0-1.19,0L72,109.71l-1.2-.1c-.43,0-.87-.09-1.29-.15l-1.16-.16c-.47-.07-.92-.15-1.38-.24l-1.07-.22c-.54-.11-1.08-.25-1.61-.39-.3-.08-.6-.15-.89-.24-.95-.28-1.88-.59-2.78-.94-.45-.17-.88-.36-1.31-.55-.22-.1-.45-.19-.67-.3-.65-.31-1.29-.63-1.9-1a17.6,17.6,0,0,1-5.74-5,9.81,9.81,0,0,1-1.91-5.68l0,12c0,3.86,2.54,7.73,7.65,10.68.61.36,1.24.68,1.9,1,.22.11.45.2.67.3.39.17.77.35,1.16.5l.15,0c.9.35,1.83.66,2.78.94l.22.08.66.16c.54.14,1.07.27,1.61.39l.43.11.65.11c.45.09.91.17,1.37.24l.55.1.61.06c.43.06.86.11,1.3.15l.61.07.58,0,1.32.07c.22,0,.43,0,.65,0h.53c.48,0,1,0,1.42,0,.24,0,.47,0,.71,0s.28,0,.42,0c.58,0,1.17-.06,1.75-.11l.7,0,.22,0c1-.1,2-.24,3-.41l.14,0c.28-.05.55-.12.83-.18.48-.1,1-.19,1.44-.3l1-.28c.45-.12.9-.24,1.34-.38l.29-.08.45-.18c.7-.23,1.38-.49,2-.77l.74-.31a26.55,26.55,0,0,0,2.44-1.24l.32-.18c.24-.15.44-.3.67-.45s.64-.41.93-.62.49-.38.72-.58.55-.43.8-.65l.16-.13c.33-.31.64-.62.93-.94.06-.07.11-.14.17-.2s.35-.39.51-.59l.34-.48.13-.17c.2-.3.4-.6.57-.9,0-.06,0-.13.09-.2.14-.26.26-.53.38-.8s.16-.31.22-.47a1.24,1.24,0,0,0,0-.16,7.67,7.67,0,0,0,.23-.78c0-.17.11-.35.15-.52s0-.1,0-.14c0-.27.07-.55.1-.82s0-.35.06-.53v-.23l0-12C100.92,95.15,100.88,95.4,100.86,95.65Z"/></g><g class="cls-3"><path class="cls-78" d="M74.74,77.79h0s0,0,0,0h0l0,0,0,0h0l.06,0h.29l0,0a.12.12,0,0,0,.08-.11v2.4a.15.15,0,0,1-.09.12l0,0h-.29l-.06,0h0v0h0V77.79Z"/><path class="cls-79" d="M74.82,77.64c-.11.07-.11.17,0,.23a.44.44,0,0,0,.39,0c.11-.06.11-.16,0-.23A.44.44,0,0,0,74.82,77.64Z"/></g><g class="cls-3"><path class="cls-80" d="M100.26,92.86h0l0,0h0l0,0h0l0,0h.3l0,0a.14.14,0,0,0,.08-.11v2.26a.12.12,0,0,1-.08.11l0,0h-.3l0,0h0l0,0h0v0h0V92.86Z"/><path class="cls-81" d="M100.34,92.72c-.11.06-.11.16,0,.22a.39.39,0,0,0,.39,0c.11-.06.11-.16,0-.22A.44.44,0,0,0,100.34,92.72Z"/></g><g class="cls-3"><path class="cls-82" d="M49.23,92.86h0a0,0,0,0,0,0,0h0s0,0,0,0h0l.06,0h.29l0,0a.12.12,0,0,0,.08-.11v2.26s0,.08-.09.11l0,0h-.29l-.06,0h0v0h0v0h0V92.86Z"/><path class="cls-83" d="M49.31,92.72c-.11.06-.11.16,0,.22a.39.39,0,0,0,.39,0c.11-.06.11-.16,0-.22A.44.44,0,0,0,49.31,92.72Z"/></g><g class="cls-3"><path class="cls-84" d="M74.74,107.31h0s0,0,0,0h0s0,0,0,0l0,0h0l.06,0h.29l0,0a.12.12,0,0,0,.08-.12v2.41s0,.08-.09.12h-.33l-.06,0h0v0h0v0h0v-2.38Z"/><path class="cls-85" d="M74.82,107.17a.12.12,0,0,0,0,.23.44.44,0,0,0,.39,0,.12.12,0,0,0,0-.23A.44.44,0,0,0,74.82,107.17Z"/></g><g class="cls-3"><path class="cls-86" d="M93.4,102.89c-10.08,5.85-26.53,5.85-36.67,0-5.11-3-7.66-6.83-7.65-10.7v.41c0,3.87,2.54,7.75,7.65,10.69,10.14,5.86,26.59,5.86,36.67,0,5-2.9,7.51-6.72,7.52-10.54v-.41C100.91,96.16,98.4,100,93.4,102.89Z"/><path class="cls-87" d="M92.93,81.85c-10-5.74-26.09-5.74-36,0-4.91,2.85-7.37,6.59-7.38,10.34v.41c0-3.75,2.47-7.49,7.38-10.34,9.88-5.75,26-5.75,36,0,5,2.89,7.5,6.69,7.49,10.49v-.41C100.43,88.54,97.93,84.74,92.93,81.85Z"/><path class="cls-88" d="M93.28,81.65c-10.15-5.86-26.6-5.86-36.67,0s-10,15.38.12,21.24,26.59,5.85,36.67,0S103.42,87.5,93.28,81.65Zm-.23,21c-9.89,5.75-26,5.75-36,0s-10-15.09-.12-20.83,26-5.74,36,0S102.93,96.94,93.05,102.68Z"/></g><path class="cls-89" d="M79.4,53.73V68.58a2.16,2.16,0,0,1-1.27,1.79,6.88,6.88,0,0,1-6.22,0,2.19,2.19,0,0,1-1.3-1.81V53.73Z"/><path class="cls-90" d="M79.4,53.73V68.58a2.16,2.16,0,0,1-1.27,1.79,6.88,6.88,0,0,1-6.22,0,2.19,2.19,0,0,1-1.3-1.81V53.73Z"/>
</g></g></g></g></svg>