<svg xmlns="http://www.w3.org/2000/svg" viewBox="0 0 108.86 150.06"><defs><style>.cls-1{fill:#fff;}.cls-2{fill:#e90000;}.cls-3{opacity:0.2;}</style></defs><title>Lockout tag background（锁定标签背景）</title><g id="图层_2" data-name="图层 2"><g id="图层_28" data-name="图层 28"><g id="Lockout_tag_background_锁定标签背景_" data-name="Lockout tag background（锁定标签背景）"><rect class="cls-1" x="0.25" y="0.12" width="108.62" height="149.94"/><polygon class="cls-2" points="91.11 0 81.49 0 0 123.28 0 137.83 91.11 0"/><polygon class="cls-2" points="63.35 0 53.74 0 0 81.3 0 95.85 63.35 0"/><polygon class="cls-2" points="24.62 0 0 37.25 0 53.86 35.6 0 24.62 0"/><polygon class="cls-2" points="108.86 14.93 108.86 0.58 10.05 150.06 19.54 150.06 108.86 14.93"/><polygon class="cls-2" points="99.01 150.06 108.86 150.06 108.86 135.16 99.01 150.06"/><polygon class="cls-2" points="108.86 63.6 108.86 48.53 41.75 150.06 51.71 150.06 108.86 63.6"/><polygon class="cls-2" points="10.13 0 0 0 0 15.32 10.13 0"/><polygon class="cls-2" points="108.86 109.59 108.86 94.3 72 150.06 82.11 150.06 108.86 109.59"/><rect class="cls-1" x="11.82" y="10.86" width="85.46" height="128.46"/>
</g></g></g></svg>