<svg xmlns="http://www.w3.org/2000/svg" viewBox="0 0 150.25 113.29"><defs><style>.cls-1,.cls-4{fill:#fff;}.cls-1{stroke:#000;}.cls-1,.cls-3{stroke-miterlimit:10;stroke-width:0.25px;}.cls-2{fill:#ffec00;}.cls-3{fill:#e90000;stroke:#fff;}.cls-5{opacity:0.2;}</style></defs><title>White danger sign（白色危险标志）</title><g id="图层_2" data-name="图层 2"><g id="图层_28" data-name="图层 28"><g id="White_danger_sign_白色危险标志_" data-name="White danger sign（白色危险标志）"><rect class="cls-1" x="0.13" y="0.13" width="150" height="113.04"/><rect class="cls-2" x="3.73" y="4.03" width="141.49" height="43.31"/><rect class="cls-3" x="7.44" y="8.39" width="134.06" height="33.59" rx="3.21"/><path class="cls-4" d="M51.54,25.17c0,2.09-.56,3.57-1.67,4.46A7,7,0,0,1,45.39,31H42.48V19.32h2.91A6.78,6.78,0,0,1,50,20.68C51,21.59,51.54,23.09,51.54,25.17Zm-2,0a4.91,4.91,0,0,0-1-3.54,4.17,4.17,0,0,0-3.07-1h-.94v9.05h.94a4.24,4.24,0,0,0,3.07-1A4.76,4.76,0,0,0,49.49,25.17Z"/><path class="cls-4" d="M63,31H60.94l-1.2-3.61H56L54.79,31h-2L57,19.19h1.7Zm-3.68-4.9L58,21.91h-.18l-1.36,4.15Z"/><path class="cls-4" d="M73.15,31H71l-4.7-8.44h-.09V31h-2V19.32H66.4l4.7,8.44h.09V19.32h2Z"/><path class="cls-4" d="M84.08,31.09H82.63l-.25-.95a2.57,2.57,0,0,1-1.07.68,4.6,4.6,0,0,1-4.79-1.06,5.63,5.63,0,0,1-1.4-4.25,7.39,7.39,0,0,1,1.28-4.76,4.27,4.27,0,0,1,3.5-1.56A4,4,0,0,1,83,20.34a4.17,4.17,0,0,1,1.11,3H82.21a3.34,3.34,0,0,0-.6-2.15,2.12,2.12,0,0,0-1.71-.71,2.24,2.24,0,0,0-2.05,1.12,7.64,7.64,0,0,0-.68,3.78A5.29,5.29,0,0,0,78,28.85a2.6,2.6,0,0,0,2,.95,2.35,2.35,0,0,0,1.76-.65,2.76,2.76,0,0,0,.64-2V26.4H79.73V25.1h4.35Z"/><path class="cls-4" d="M95.19,31H86.48V19.32h8.28v1.29H88.44v3.61h5.81v1.29H88.44v4.15h6.75Z"/><path class="cls-4" d="M106.46,31h-2l-3.07-5H99.12v5h-2V19.32h4.27a6.47,6.47,0,0,1,3.34.78A2.79,2.79,0,0,1,106,22.66a2.62,2.62,0,0,1-.86,2.1,3.94,3.94,0,0,1-2,1Zm-2.39-8.3a1.77,1.77,0,0,0-.72-1.5,4,4,0,0,0-2.35-.55H99.12v4h2.39a3.57,3.57,0,0,0,1.79-.44A1.61,1.61,0,0,0,104.07,22.66Z"/>
</g></g></g></svg>