<svg xmlns="http://www.w3.org/2000/svg" xmlns:xlink="http://www.w3.org/1999/xlink" viewBox="0 0 150 76.14"><defs><style>.cls-1{fill:url(#未命名的渐变_103);}.cls-2{fill:url(#未命名的渐变_103-2);}.cls-3{fill:url(#未命名的渐变_103-3);}.cls-4{fill:url(#未命名的渐变_103-4);}.cls-5{fill:url(#未命名的渐变_103-5);}.cls-6{fill:url(#未命名的渐变_103-6);}.cls-7{fill:url(#未命名的渐变_386);}.cls-8{fill:url(#未命名的渐变_103-7);}.cls-9{fill:url(#未命名的渐变_103-8);}.cls-10{fill:url(#未命名的渐变_103-9);}.cls-11,.cls-16{opacity:0.1;}.cls-11{fill:url(#未命名的渐变_190);}.cls-12{fill:url(#未命名的渐变_103-10);}.cls-13{fill:url(#未命名的渐变_103-11);}.cls-14{fill:url(#未命名的渐变_103-12);}.cls-15{fill:#fff;}.cls-15,.cls-24{opacity:0.2;}.cls-16{fill:url(#未命名的渐变_190-2);}.cls-17{fill:url(#未命名的渐变_386-2);}.cls-18{fill:url(#未命名的渐变_386-3);}.cls-19{fill:url(#未命名的渐变_386-4);}.cls-20{fill:url(#未命名的渐变_386-5);}.cls-21{fill:url(#未命名的渐变_386-6);}.cls-22{fill:url(#未命名的渐变_386-7);}.cls-23{fill:url(#未命名的渐变_386-8);}</style><linearGradient id="未命名的渐变_103" x1="16.25" y1="72.01" x2="16.25" y2="66.48" gradientUnits="userSpaceOnUse"><stop offset="0" stop-color="#7a8088"/><stop offset="0.09" stop-color="#2d2f33"/><stop offset="0.15" stop-color="#35373b"/><stop offset="0.24" stop-color="#4a4d51"/><stop offset="0.35" stop-color="#6d7176"/><stop offset="0.48" stop-color="#9da3a9"/><stop offset="0.62" stop-color="#d7dfe6"/><stop offset="0.93" stop-color="#6d7177"/><stop offset="1" stop-color="#5c6067"/></linearGradient><linearGradient id="未命名的渐变_103-2" x1="16.25" y1="52.12" x2="16.25" y2="46.59" xlink:href="#未命名的渐变_103"/><linearGradient id="未命名的渐变_103-3" x1="16.25" y1="30.03" x2="16.25" y2="24.5" xlink:href="#未命名的渐变_103"/><linearGradient id="未命名的渐变_103-4" x1="112.68" y1="44.49" x2="112.68" y2="31.65" xlink:href="#未命名的渐变_103"/><linearGradient id="未命名的渐变_103-5" x1="102.77" y1="46.09" x2="102.77" y2="30.04" xlink:href="#未命名的渐变_103"/><linearGradient id="未命名的渐变_103-6" x1="16.25" y1="11.05" x2="16.25" y2="5.52" xlink:href="#未命名的渐变_103"/><linearGradient id="未命名的渐变_386" x1="1.23" y1="12.09" x2="1.23" y2="4.48" gradientUnits="userSpaceOnUse"><stop offset="0" stop-color="#676b70"/><stop offset="0.02" stop-color="#484b4d"/><stop offset="0.19" stop-color="#747980"/><stop offset="0.2" stop-color="#d1d5db"/><stop offset="0.79" stop-color="#c7cfdb"/><stop offset="0.8" stop-color="#edf5ff"/><stop offset="0.81" stop-color="#c3c7cc"/><stop offset="1" stop-color="#929599"/></linearGradient><linearGradient id="未命名的渐变_103-7" x1="68.92" y1="65.54" x2="68.92" y2="10.6" xlink:href="#未命名的渐变_103"/><linearGradient id="未命名的渐变_103-8" x1="121.15" y1="68.96" x2="121.15" y2="7.18" xlink:href="#未命名的渐变_103"/><linearGradient id="未命名的渐变_103-9" x1="116.8" y1="68.54" x2="106.23" y2="8.63" xlink:href="#未命名的渐变_103"/><linearGradient id="未命名的渐变_190" x1="107.8" y1="38.07" x2="114.45" y2="38.07" gradientUnits="userSpaceOnUse"><stop offset="0" stop-color="#9ba1ab" stop-opacity="0"/><stop offset="1" stop-color="#2e3033"/></linearGradient><linearGradient id="未命名的渐变_103-10" x1="146.43" y1="68.54" x2="135.87" y2="8.63" gradientTransform="matrix(-1, 0, 0, 1, 271.93, 0)" xlink:href="#未命名的渐变_103"/><linearGradient id="未命名的渐变_103-11" x1="24.22" y1="76.14" x2="24.22" y2="0" xlink:href="#未命名的渐变_103"/><linearGradient id="未命名的渐变_103-12" x1="6.25" y1="76.14" x2="6.25" y2="0" xlink:href="#未命名的渐变_103"/><linearGradient id="未命名的渐变_190-2" x1="113.82" y1="38.07" x2="120.47" y2="38.07" gradientTransform="matrix(-1, 0, 0, 1, 248.32, 0)" xlink:href="#未命名的渐变_190"/><linearGradient id="未命名的渐变_386-2" x1="31.27" y1="12.09" x2="31.27" y2="4.48" xlink:href="#未命名的渐变_386"/><linearGradient id="未命名的渐变_386-3" x1="1.23" y1="31.08" x2="1.23" y2="23.46" xlink:href="#未命名的渐变_386"/><linearGradient id="未命名的渐变_386-4" x1="31.27" y1="31.08" x2="31.27" y2="23.46" xlink:href="#未命名的渐变_386"/><linearGradient id="未命名的渐变_386-5" x1="1.23" y1="53.17" x2="1.23" y2="45.55" xlink:href="#未命名的渐变_386"/><linearGradient id="未命名的渐变_386-6" x1="31.27" y1="53.17" x2="31.27" y2="45.55" xlink:href="#未命名的渐变_386"/><linearGradient id="未命名的渐变_386-7" x1="1.23" y1="73.05" x2="1.23" y2="65.43" xlink:href="#未命名的渐变_386"/><linearGradient id="未命名的渐变_386-8" x1="31.27" y1="73.05" x2="31.27" y2="65.43" xlink:href="#未命名的渐变_386"/></defs><title>Contaminent barrier 2( 污染物隔离2)</title><g id="图层_2" data-name="图层 2"><g id="图层_6" data-name="图层 6"><g id="Contaminent_barrier_2_污染物隔离2_" data-name="Contaminent barrier 2( 污染物隔离2)"><rect class="cls-1" x="2.46" y="66.48" width="27.58" height="5.53"/><rect class="cls-2" x="2.46" y="46.59" width="27.58" height="5.53"/><rect class="cls-3" x="2.46" y="24.5" width="27.58" height="5.53"/><rect class="cls-4" x="75.36" y="31.65" width="74.64" height="12.84"/><rect class="cls-5" x="63.89" y="30.04" width="77.76" height="16.05"/><rect class="cls-6" x="2.46" y="5.52" width="27.58" height="5.53"/><rect class="cls-7" y="4.48" width="2.46" height="7.61"/><rect class="cls-8" x="30.04" y="10.6" width="77.76" height="54.95"/><rect class="cls-9" x="114.45" y="7.18" width="13.41" height="61.78"/><polygon class="cls-10" points="114.45 68.96 107.8 65.54 107.8 10.6 114.45 7.18 114.45 68.96"/><polygon class="cls-11" points="114.45 68.96 107.8 65.54 107.8 10.6 114.45 7.18 114.45 68.96"/><polygon class="cls-12" points="127.85 68.96 134.5 65.54 134.5 10.6 127.85 7.18 127.85 68.96"/><rect class="cls-13" x="18.4" width="11.64" height="76.14"/><rect class="cls-14" x="2.46" width="7.57" height="76.14"/><rect class="cls-15" x="2.46" width="7.57" height="76.14"/><polygon class="cls-16" points="127.85 68.96 134.5 65.54 134.5 10.6 127.85 7.18 127.85 68.96"/><rect class="cls-17" x="30.04" y="4.48" width="2.46" height="7.61"/><rect class="cls-18" y="23.46" width="2.46" height="7.61"/><rect class="cls-19" x="30.04" y="23.46" width="2.46" height="7.61"/><rect class="cls-20" y="45.55" width="2.46" height="7.61"/><rect class="cls-21" x="30.04" y="45.55" width="2.46" height="7.61"/><rect class="cls-22" y="65.43" width="2.46" height="7.61"/><rect class="cls-23" x="30.04" y="65.43" width="2.46" height="7.61"/></g></g></g></svg>