<svg xmlns="http://www.w3.org/2000/svg" xmlns:xlink="http://www.w3.org/1999/xlink" viewBox="0 0 150 147.29"><defs><style>.cls-1{fill:none;}.cls-2{fill:#050d1a;}.cls-3{isolation:isolate;}.cls-4{fill:#f9fafc;}.cls-5{fill:#7a8799;}.cls-6{fill:#c3ccd9;}.cls-7{fill:#cfd8e6;}.cls-8{fill:#3d4e66;}.cls-9{fill:#596980;}.cls-10{fill:url(#新建图案_3);}.cls-11{fill:#152133;}.cls-12{opacity:0.2;}</style><pattern id="新建图案_3" data-name="新建图案 3" width="3" height="3.46" patternTransform="translate(-45)" patternUnits="userSpaceOnUse" viewBox="0 0 3 3.46"><rect class="cls-1" width="3" height="3.46"/><polygon class="cls-2" points="2.25 0.87 0.75 0 0 0.87 0.75 2.6 2.25 3.46 3 2.6 2.25 0.87"/></pattern></defs><title>Primary filter screen（初效滤网）</title><g id="图层_2" data-name="图层 2"><g id="风格1"><g id="Primary_filter_screen_初效滤网_" data-name="Primary filter screen（初效滤网）"><g id="图层_37" data-name="图层 37"><g class="cls-3"><polygon class="cls-4" points="150 100.31 75.25 143.74 0.02 100.31 74.77 56.87 150 100.31"/><polygon class="cls-5" points="150 100.31 149.98 103.86 75.23 147.29 75.25 143.74 150 100.31"/><polygon class="cls-6" points="75.25 143.74 75.23 147.29 0 103.86 0.02 100.31 75.25 143.74"/></g><g class="cls-3"><polygon class="cls-6" points="102.95 46.05 102.74 123.03 35.75 84.35 35.97 7.37 102.95 46.05"/><polygon class="cls-5" points="102.95 46.05 115.64 38.67 115.42 115.66 102.74 123.03 102.95 46.05"/><polygon class="cls-7" points="35.97 7.37 48.65 0 115.64 38.67 102.95 46.05 35.97 7.37"/></g><g class="cls-3"><polygon class="cls-8" points="101.56 46.86 101.35 123.84 34.36 85.17 34.58 8.19 101.56 46.86"/><polygon class="cls-9" points="97.56 49.16 97.36 115.35 97.36 116.92 38.37 82.86 38.55 15.1 39.55 15.67 97.56 49.16"/><polygon class="cls-8" points="97.56 49.16 97.36 115.35 39.37 81.86 39.55 15.67 97.56 49.16"/><polygon class="cls-10" points="97.56 49.16 97.36 115.35 39.37 81.86 39.55 15.67 97.56 49.16"/><polygon class="cls-11" points="101.56 46.86 102.97 46.04 102.76 123.02 101.35 123.84 101.56 46.86"/><polygon class="cls-9" points="34.58 8.19 35.99 7.37 102.97 46.04 101.56 46.86 34.58 8.19"/></g></g></g></g></g></svg>