<svg xmlns="http://www.w3.org/2000/svg" xmlns:xlink="http://www.w3.org/1999/xlink" viewBox="0 0 150 150"><defs><style>.cls-1,.cls-2{fill:none;}.cls-2{stroke:#fff;stroke-miterlimit:10;stroke-width:0.1px;}.cls-3{opacity:0;}.cls-16,.cls-4{fill:#000714;}.cls-5{opacity:0.1;fill:url(#新建图案);}.cls-6{isolation:isolate;}.cls-7{fill:url(#未命名的渐变_125);}.cls-8{fill:url(#未命名的渐变_122);}.cls-9{fill:url(#未命名的渐变_137);}.cls-10{fill:url(#未命名的渐变_125-2);}.cls-11{fill:url(#未命名的渐变_122-2);}.cls-12{fill:url(#未命名的渐变_137-2);}.cls-13{fill:url(#未命名的渐变_125-3);}.cls-14{fill:url(#未命名的渐变_122-3);}.cls-15{fill:url(#未命名的渐变_127);}.cls-16{opacity:0.2;mix-blend-mode:multiply;}.cls-17{fill:url(#未命名的渐变_137-3);}.cls-18{fill:url(#未命名的渐变_125-4);}.cls-19{fill:url(#未命名的渐变_122-4);}.cls-20{fill:url(#未命名的渐变_137-4);}.cls-21{fill:url(#未命名的渐变_125-5);}.cls-22{fill:url(#未命名的渐变_122-5);}.cls-23{fill:url(#未命名的渐变_137-5);}.cls-24{fill:url(#未命名的渐变_137-6);}.cls-25{fill:url(#未命名的渐变_125-6);}.cls-26{fill:url(#未命名的渐变_13);}.cls-27{fill:#dcdcdc;}.cls-28{clip-path:url(#clip-path);}.cls-29{fill:#9e9e9e;}.cls-30{fill:#a3a3a3;}.cls-31{fill:gray;}.cls-32{fill:#c5c5c5;}.cls-33{clip-path:url(#clip-path-2);}.cls-34{fill:#858585;}.cls-35{fill:#415066;}.cls-36{clip-path:url(#clip-path-3);}.cls-37{fill:#b8b8b8;}.cls-38{fill:#b3b3b3;}.cls-39{fill:#898989;}.cls-40{fill:#171d23;}.cls-41{fill:#4e5f79;}.cls-42{clip-path:url(#clip-path-4);}.cls-43{fill:#999;}.cls-44{fill:#949494;}.cls-45{fill:url(#未命名的渐变_209);}.cls-46{opacity:0.2;}</style><pattern id="新建图案" data-name="新建图案" width="18.57" height="32.16" patternTransform="translate(2155.29 974.22)" patternUnits="userSpaceOnUse" viewBox="0 0 18.57 32.16"><rect class="cls-1" width="18.57" height="32.16"/><polyline class="cls-2" points="18.57 21.44 18.57 32.16 18.57 42.88"/><polyline class="cls-2" points="9.29 26.8 18.57 32.16 27.85 37.51 27.85 37.52"/><polyline class="cls-2" points="9.29 37.52 9.29 37.51 18.57 32.16 27.85 26.8"/><polygon class="cls-2" points="27.85 37.52 27.85 26.8 18.57 21.44 9.28 26.8 9.28 37.52 18.57 42.88 27.85 37.52"/><polyline class="cls-2" points="0 21.44 0 32.16 0 42.88"/><polyline class="cls-2" points="-9.28 26.8 0 32.16 9.28 37.51 9.28 37.52"/><polyline class="cls-2" points="-9.28 37.52 -9.28 37.51 0 32.16 9.28 26.8"/><polygon class="cls-2" points="9.28 37.52 9.28 26.8 0 21.44 -9.29 26.8 -9.29 37.52 0 42.88 9.28 37.52"/><polyline class="cls-2" points="18.57 10.72 27.85 16.08 37.13 21.43 37.13 21.44"/><polyline class="cls-2" points="18.57 21.44 18.57 21.43 27.85 16.08 37.13 10.72"/><polygon class="cls-2" points="37.14 21.44 37.14 10.72 27.85 5.36 18.57 10.72 18.57 21.44 27.85 26.8 37.14 21.44"/><polyline class="cls-2" points="9.29 5.36 9.29 16.08 9.29 26.8"/><polyline class="cls-2" points="0.01 10.72 9.29 16.08 18.57 21.43 18.57 21.44"/><polyline class="cls-2" points="0.01 21.44 0.01 21.43 9.29 16.08 18.57 10.72"/><polygon class="cls-2" points="18.57 21.44 18.57 10.72 9.28 5.36 0 10.72 0 21.44 9.28 26.8 18.57 21.44"/><polyline class="cls-2" points="-18.56 10.72 -9.28 16.08 0 21.43 0 21.44"/><polyline class="cls-2" points="-18.56 21.44 -18.56 21.43 -9.28 16.08 0 10.72"/><polygon class="cls-2" points="0 21.44 0 10.72 -9.29 5.36 -18.57 10.72 -18.57 21.44 -9.29 26.8 0 21.44"/><polyline class="cls-2" points="18.57 -10.72 18.57 0 18.57 10.72"/><polyline class="cls-2" points="9.29 -5.36 18.57 0 27.85 5.35 27.85 5.36"/><polyline class="cls-2" points="9.29 5.36 9.29 5.35 18.57 0 27.85 -5.36"/><polygon class="cls-2" points="27.85 5.36 27.85 -5.36 18.57 -10.72 9.28 -5.36 9.28 5.36 18.57 10.72 27.85 5.36"/><polyline class="cls-2" points="0 -10.72 0 0 0 10.72"/><polyline class="cls-2" points="-9.28 -5.36 0 0 9.28 5.35 9.28 5.36"/><polyline class="cls-2" points="-9.28 5.36 -9.28 5.35 0 0 9.28 -5.36"/><polygon class="cls-2" points="9.28 5.36 9.28 -5.36 0 -10.72 -9.29 -5.36 -9.29 5.36 0 10.72 9.28 5.36"/></pattern><linearGradient id="未命名的渐变_125" x1="61.24" y1="89.36" x2="88.66" y2="89.36" gradientUnits="userSpaceOnUse"><stop offset="0" stop-color="#0073e6"/><stop offset="0.12" stop-color="#59c8ff"/><stop offset="0.32" stop-color="#59c8ff"/><stop offset="0.9" stop-color="#1433cc"/><stop offset="1" stop-color="#0073e6"/></linearGradient><linearGradient id="未命名的渐变_122" x1="64.11" y1="91.25" x2="85.78" y2="78.74" gradientUnits="userSpaceOnUse"><stop offset="0" stop-color="#89abe6"/><stop offset="0.63" stop-color="#6583b1"/><stop offset="0.8" stop-color="#13161a"/><stop offset="1" stop-color="#374760"/></linearGradient><linearGradient id="未命名的渐变_137" x1="62.2" y1="79.53" x2="87.74" y2="79.53" gradientUnits="userSpaceOnUse"><stop offset="0" stop-color="#38455a"/><stop offset="0.15" stop-color="#89abe6"/><stop offset="0.25" stop-color="#89abe6"/><stop offset="0.9" stop-color="#12161a"/><stop offset="1" stop-color="#283140"/></linearGradient><linearGradient id="未命名的渐变_125-2" x1="61.29" y1="70.26" x2="88.71" y2="70.26" xlink:href="#未命名的渐变_125"/><linearGradient id="未命名的渐变_122-2" x1="64.17" y1="72.15" x2="85.83" y2="59.64" xlink:href="#未命名的渐变_122"/><linearGradient id="未命名的渐变_137-2" x1="62.26" y1="60.42" x2="87.8" y2="60.42" xlink:href="#未命名的渐变_137"/><linearGradient id="未命名的渐变_125-3" x1="61.34" y1="51.15" x2="88.76" y2="51.15" xlink:href="#未命名的渐变_125"/><linearGradient id="未命名的渐变_122-3" x1="64.22" y1="53.04" x2="85.89" y2="40.53" xlink:href="#未命名的渐变_122"/><linearGradient id="未命名的渐变_127" x1="61.4" y1="33.69" x2="88.81" y2="33.69" gradientUnits="userSpaceOnUse"><stop offset="0" stop-color="#283140"/><stop offset="0.1" stop-color="#12161a"/><stop offset="0.75" stop-color="#89abe6"/><stop offset="0.85" stop-color="#89abe6"/><stop offset="1" stop-color="#38455a"/></linearGradient><linearGradient id="未命名的渐变_137-3" x1="62.15" y1="100.1" x2="87.68" y2="100.1" xlink:href="#未命名的渐变_137"/><linearGradient id="未命名的渐变_125-4" x1="61.18" y1="108.47" x2="88.6" y2="108.47" xlink:href="#未命名的渐变_125"/><linearGradient id="未命名的渐变_122-4" x1="64.26" y1="110.7" x2="85.92" y2="98.19" xlink:href="#未命名的渐变_122"/><linearGradient id="未命名的渐变_137-4" x1="62.11" y1="119.52" x2="87.63" y2="119.52" xlink:href="#未命名的渐变_137"/><linearGradient id="未命名的渐变_125-5" x1="61.18" y1="127.26" x2="88.6" y2="127.26" xlink:href="#未命名的渐变_125"/><linearGradient id="未命名的渐变_122-5" x1="64.26" y1="129.49" x2="85.92" y2="116.98" xlink:href="#未命名的渐变_122"/><linearGradient id="未命名的渐变_137-5" x1="62.11" y1="138.31" x2="87.63" y2="138.31" xlink:href="#未命名的渐变_137"/><linearGradient id="未命名的渐变_137-6" x1="62.31" y1="41.32" x2="87.85" y2="41.32" xlink:href="#未命名的渐变_137"/><linearGradient id="未命名的渐变_125-6" x1="61.4" y1="32.04" x2="88.82" y2="32.04" xlink:href="#未命名的渐变_125"/><linearGradient id="未命名的渐变_13" x1="64.28" y1="33.94" x2="85.94" y2="21.43" gradientUnits="userSpaceOnUse"><stop offset="0" stop-color="#89abe6"/><stop offset="1" stop-color="#547099"/></linearGradient><clipPath id="clip-path"><path class="cls-1" d="M75.52,13.66l0,6.6c-.37,0-.74,0-1.1,0l0-6.6C74.78,13.65,75.15,13.64,75.52,13.66Z"/></clipPath><clipPath id="clip-path-2"><path class="cls-1" d="M84.42,16.05l0,6.6c-.13-.07-.24-.16-.37-.24l-.41-.21,0-6.6.41.22C84.18,15.89,84.29,16,84.42,16.05Z"/></clipPath><clipPath id="clip-path-3"><path class="cls-1" d="M66.32,15.6l0,6.6-.4.21-.37.24,0-6.6c.12-.08.24-.16.37-.23S66.19,15.67,66.32,15.6Z"/></clipPath><clipPath id="clip-path-4"><path class="cls-1" d="M62.19,27.66v-6.6c0-.1,0-.21,0-.31v6.6C62.19,27.45,62.19,27.56,62.19,27.66Z"/></clipPath><linearGradient id="未命名的渐变_209" x1="84.12" y1="30.68" x2="65.88" y2="-0.9" gradientTransform="translate(89.67 -60.16) rotate(89.84)" gradientUnits="userSpaceOnUse"><stop offset="0" stop-color="#283140"/><stop offset="0.4" stop-color="#89abe6"/><stop offset="0.5" stop-color="#89abe6"/><stop offset="1" stop-color="#38455a"/></linearGradient></defs><title>排放口</title><g id="图层_2" data-name="图层 2"><g id="图元"><g id="排放口"><g class="cls-3"><rect class="cls-4" width="150" height="150"/><rect id="网格" class="cls-5" width="150" height="150"/></g><g class="cls-6"><path class="cls-7" d="M84.5,90.71c-5.43,3-14.11,3-19.38-.2C62.52,89,61.23,87,61.24,85v.82c0,2,1.28,4,3.87,5.55,5.28,3.16,14,3.25,19.39.2,2.76-1.55,4.15-3.61,4.15-5.67V85C88.65,87.1,87.26,89.16,84.5,90.71Z"/><path class="cls-8" d="M84.78,79.48c-5.28-3.16-14-3.25-19.39-.2s-5.55,8.07-.27,11.23,13.95,3.24,19.38.2S90.05,82.63,84.78,79.48Zm-1,10.82c-5,2.84-13.12,2.75-18-.18s-4.79-7.6.25-10.44,13.12-2.75,18,.19S88.88,87.47,83.83,90.3Z"/><path class="cls-9" d="M83.88,72c-5,2.83-13.11,2.75-18-.19-2.41-1.44-3.61-3.3-3.61-5.16L62.2,85c0,1.86,1.2,3.72,3.61,5.16,4.9,2.93,13,3,18,.18C86.39,88.86,87.69,87,87.69,85l0-18.28C87.74,68.67,86.45,70.59,83.88,72Z"/><path class="cls-10" d="M84.56,71.6c-5.43,3.05-14.11,3-19.39-.19-2.59-1.55-3.88-3.56-3.88-5.56v.83c0,2,1.28,4,3.88,5.55,5.28,3.16,14,3.24,19.38.2,2.76-1.55,4.15-3.61,4.16-5.68v-.82C88.7,68,87.32,70.06,84.56,71.6Z"/><path class="cls-11" d="M84.83,60.38c-5.28-3.16-14-3.25-19.38-.2s-5.56,8.07-.28,11.23,14,3.24,19.39.19S90.11,63.53,84.83,60.38Zm-1,10.82c-5,2.83-13.11,2.75-18-.18s-4.79-7.61.26-10.44,13.11-2.75,18,.18S88.93,68.37,83.88,71.2Z"/><path class="cls-12" d="M83.94,52.92c-5,2.83-13.12,2.75-18-.19-2.41-1.44-3.61-3.3-3.6-5.16l-.05,18.29c0,1.85,1.19,3.72,3.6,5.16,4.91,2.93,13,3,18,.18,2.57-1.44,3.86-3.35,3.87-5.27l0-18.29C87.79,49.56,86.5,51.48,83.94,52.92Z"/><path class="cls-13" d="M84.61,52.49c-5.43,3-14.11,3-19.39-.19-2.59-1.55-3.88-3.56-3.87-5.56v.83c0,2,1.29,4,3.88,5.55,5.28,3.16,14,3.25,19.39.2,2.76-1.55,4.15-3.61,4.15-5.67v-.83C88.76,48.89,87.37,51,84.61,52.49Z"/><path class="cls-14" d="M84.89,41.27c-5.28-3.16-14-3.25-19.39-.2S60,49.14,65.22,52.3s14,3.24,19.39.19S90.16,44.42,84.89,41.27Zm-1,10.82c-5,2.83-13.12,2.75-18-.18s-4.79-7.61.25-10.44,13.12-2.75,18,.18S89,49.26,83.94,52.09Z"/><path class="cls-15" d="M84.94,23c-5.28-3.16-14-3.24-19.39-.2-4.09,2.3-5.16,5.71-3.2,8.61,0,5,0,10.79,0,15.35,0-1.92,1.3-3.84,3.86-5.28,5-2.83,13.12-2.75,18,.18C86.61,43.1,87.8,45,87.8,46.82c0-4.56,0-10.38,0-15.36C89.77,28.64,88.82,25.31,84.94,23Z"/><path class="cls-16" d="M84.94,23c-5.28-3.16-14-3.24-19.39-.2-4.09,2.3-5.16,5.71-3.2,8.61,0,5,0,10.79,0,15.35,0-1.92,1.3-3.84,3.86-5.28,5-2.83,13.12-2.75,18,.18C86.61,43.1,87.8,45,87.8,46.82c0-4.56,0-10.38,0-15.36C89.77,28.64,88.82,25.31,84.94,23Z"/><path class="cls-17" d="M84.5,91.53c-5.43,3-14.11,3-19.39-.2a9.21,9.21,0,0,1-2.92-2.62l0,15.36c0,1.85,1.19,3.72,3.6,5.16,4.91,2.93,13,3,18,.18,2.56-1.44,3.85-3.35,3.86-5.27l0-15.36A9.23,9.23,0,0,1,84.5,91.53Z"/><path class="cls-18" d="M84.45,109.81c-5.43,3-14.11,3-19.39-.19-2.59-1.55-3.88-3.56-3.88-5.56v.83c0,2,1.28,4,3.88,5.55,5.28,3.16,14,3.25,19.39.2,2.76-1.55,4.14-3.61,4.15-5.68v-.82C88.6,106.21,87.21,108.27,84.45,109.81Z"/><path class="cls-19" d="M87.64,101.21v2.93s0,0,0,0v.19a1,1,0,0,0,0,.17l0,.19s0,.11,0,.17a1.16,1.16,0,0,0,0,.18,1.36,1.36,0,0,0,0,.17l-.06.19s0,.11-.05.16,0,.13-.07.19l-.07.16-.09.19-.08.16-.1.18-.09.16-.12.18-.11.16a2.09,2.09,0,0,1-.14.17,1.67,1.67,0,0,1-.12.16l-.15.17-.13.15c-.06.06-.11.12-.17.17l-.15.15a1.54,1.54,0,0,1-.19.17l-.15.14-.21.17-.17.13-.22.16-.18.14-.25.16-.18.12-.46.27c-5,2.83-13.12,2.75-18-.18l-.44-.28-.14-.1-.27-.19-.14-.1-.24-.19-.16-.13-.2-.17-.15-.14-.17-.18a.93.93,0,0,1-.14-.14l-.16-.17a1.83,1.83,0,0,1-.13-.16,1.15,1.15,0,0,1-.14-.17l-.12-.16-.12-.17s-.07-.1-.1-.16a1.63,1.63,0,0,1-.11-.17l-.09-.17-.09-.17-.08-.17c0-.06-.05-.12-.07-.17s-.05-.12-.07-.17l-.06-.18,0-.17c0-.06,0-.12,0-.18a.85.85,0,0,1,0-.17l0-.18a.88.88,0,0,1,0-.17,1.1,1.1,0,0,1,0-.18,1,1,0,0,0,0-.17v-1.83c0-.4,0-.81,0-1.23-1.94,2.82-1,6.15,2.9,8.48,5.28,3.15,14,3.24,19.39.19C88.54,107.52,89.61,104.1,87.64,101.21Z"/><path class="cls-20" d="M84.45,110.64c-5.43,3-14.11,3-19.39-.2a9.1,9.1,0,0,1-2.92-2.62l0,16c0,1.86,1.2,3.72,3.61,5.17,4.9,2.93,13,3,18,.18,2.56-1.44,3.86-3.36,3.86-5.28l0-16A9.33,9.33,0,0,1,84.45,110.64Z"/><path class="cls-21" d="M84.45,128.6c-5.43,3.05-14.11,3-19.39-.19-2.59-1.55-3.88-3.56-3.88-5.56v.83c0,2,1.28,4,3.88,5.55,5.28,3.16,14,3.24,19.39.2,2.76-1.55,4.14-3.61,4.15-5.68v-.82C88.6,125,87.21,127.06,84.45,128.6Z"/><path class="cls-22" d="M87.64,120v2.93s0,0,0,0v.19a1,1,0,0,0,0,.17l0,.19s0,.11,0,.17a1.16,1.16,0,0,0,0,.18,1,1,0,0,0,0,.17l-.06.19s0,.11-.05.16l-.07.19-.07.16-.09.19-.08.16-.1.18-.09.16-.12.18-.11.16a2.09,2.09,0,0,1-.14.17,1.67,1.67,0,0,1-.12.16l-.15.17-.13.15c-.06.06-.11.12-.17.17l-.15.15a1.54,1.54,0,0,1-.19.17l-.15.14-.21.17-.17.13-.22.16-.18.14-.25.16-.18.12-.46.27c-5,2.83-13.12,2.75-18-.18l-.44-.28-.14-.1-.27-.19-.14-.1-.24-.19-.16-.13-.2-.17-.15-.14-.17-.18a.93.93,0,0,1-.14-.14l-.16-.17a1.83,1.83,0,0,1-.13-.16,1.15,1.15,0,0,1-.14-.17l-.12-.16-.12-.17s-.07-.1-.1-.16a1.63,1.63,0,0,1-.11-.17l-.09-.17-.09-.17-.08-.17c0-.06-.05-.12-.07-.17s-.05-.12-.07-.17l-.06-.18,0-.17c0-.06,0-.12,0-.18a.85.85,0,0,1,0-.17l0-.18a.88.88,0,0,1,0-.17,1.1,1.1,0,0,1,0-.18,1,1,0,0,0,0-.17v-1.83c0-.4,0-.81,0-1.23-1.94,2.82-1,6.15,2.9,8.48,5.28,3.15,14,3.24,19.39.19C88.54,126.31,89.61,122.89,87.64,120Z"/><path class="cls-23" d="M84.45,129.43c-5.43,3-14.11,3-19.39-.2a9.1,9.1,0,0,1-2.92-2.62l0,16c0,1.86,1.2,3.72,3.61,5.17,4.9,2.93,13,3,18,.18,2.56-1.44,3.86-3.36,3.86-5.28l0-16A9.33,9.33,0,0,1,84.45,129.43Z"/><path class="cls-24" d="M84,33.82c-5,2.83-13.12,2.75-18-.19-2.41-1.44-3.61-3.3-3.61-5.16l0,18.28c0,1.86,1.19,3.72,3.61,5.16,4.9,2.93,13,3,18,.18,2.56-1.44,3.85-3.35,3.86-5.27l0-18.28C87.85,30.46,86.55,32.38,84,33.82Z"/><path class="cls-25" d="M84.66,33.39c-5.42,3-14.1,3-19.38-.19-2.6-1.55-3.89-3.56-3.88-5.56v.83c0,2,1.28,4,3.88,5.55,5.27,3.16,14,3.24,19.38.2,2.76-1.55,4.15-3.61,4.16-5.68v-.82C88.81,29.79,87.42,31.85,84.66,33.39Z"/><path class="cls-26" d="M84.94,22.16C79.66,19,71,18.92,65.55,22S60,30,65.28,33.2s14,3.24,19.38.19S90.22,25.32,84.94,22.16ZM83.57,32.74c-4.81,2.7-12.49,2.62-17.17-.17s-4.56-7.25.25-9.95S79.14,20,83.82,22.8,88.38,30,83.57,32.74Z"/><g class="cls-6"><path class="cls-27" d="M75.52,13.38v.28c-.37,0-.74,0-1.1,0v-.28Z"/><g class="cls-6"><g class="cls-28"><g class="cls-6"><path class="cls-29" d="M75.52,13.66l0,6.6h-.08l0-6.6h.08"/><path class="cls-30" d="M75.44,13.65l0,6.6c-.34,0-.68,0-1,0l0-6.6h1"/></g></g></g><polygon class="cls-31" points="74.42 13.66 74.4 20.25 74.4 19.98 74.42 13.38 74.42 13.66"/></g><g class="cls-6"><path class="cls-27" d="M84.75,15.86l-.33.19c-.13-.07-.24-.16-.37-.23l-.41-.22.33-.19Z"/><polygon class="cls-32" points="84.75 15.86 84.73 22.46 84.4 22.65 84.42 16.05 84.75 15.86"/><g class="cls-6"><g class="cls-33"><g class="cls-6"><path class="cls-34" d="M84.42,16.05l0,6.6c-.13-.07-.24-.16-.37-.24l-.41-.21,0-6.6.41.22c.13.07.24.16.37.23"/></g></g></g></g><g class="cls-6"><path class="cls-27" d="M88.28,20.75H87.8a4.42,4.42,0,0,1,0,.63h.48Z"/><polygon class="cls-35" points="87.8 21.38 87.78 27.98 88.26 27.98 88.28 21.38 87.8 21.38"/></g><g class="cls-6"><path class="cls-27" d="M66.32,15.6c-.13.07-.28.14-.4.22s-.25.15-.37.23l-.34-.2.77-.44Z"/><g class="cls-6"><g class="cls-36"><g class="cls-6"><path class="cls-37" d="M66.32,15.6l0,6.6-.4.21-.05,0,0-6.6,0,0c.12-.08.27-.15.4-.22"/><path class="cls-38" d="M65.87,15.84l0,6.6-.32.21,0-6.6.32-.21"/></g></g></g><polygon class="cls-39" points="65.55 16.05 65.53 22.65 65.19 22.45 65.21 15.85 65.55 16.05"/></g><g class="cls-6"><path class="cls-27" d="M66,26.32l-.37-.24-.33.2.78.45.33-.2Z"/><polygon class="cls-40" points="66.05 26.73 66.03 33.33 66.36 33.13 66.38 26.53 66.05 26.73"/><polygon class="cls-41" points="65.27 26.27 65.25 32.87 66.03 33.33 66.05 26.73 65.27 26.27"/></g><g class="cls-6"><path class="cls-27" d="M84.47,26.08l-.37.24-.4.21.34.2.77-.45Z"/><polygon class="cls-40" points="84.04 26.73 84.02 33.33 84.79 32.88 84.81 26.28 84.04 26.73"/><polygon class="cls-41" points="83.7 26.53 83.68 33.13 84.02 33.33 84.04 26.73 83.7 26.53"/></g><g class="cls-6"><path class="cls-27" d="M75.59,28.48H74.5v.27h1.1Z"/><polygon class="cls-35" points="74.5 28.75 74.48 35.35 75.58 35.35 75.6 28.75 74.5 28.75"/></g><g class="cls-6"><g class="cls-6"><g class="cls-42"><g class="cls-6"><path class="cls-43" d="M62.21,20.75v6.6a1.15,1.15,0,0,0,0,.19l0-6.6v-.19"/><path class="cls-44" d="M62.21,20.94l0,6.6V21.06s0-.08,0-.12"/></g></g></g><path class="cls-27" d="M62.21,20.75h-.47v.64h.48A4.58,4.58,0,0,1,62.21,20.75Z"/><polygon class="cls-35" points="61.74 21.39 61.72 27.98 62.2 27.98 62.22 21.39 61.74 21.39"/></g><ellipse class="cls-45" cx="75" cy="14.89" rx="14.89" ry="25.7" transform="translate(59.9 89.84) rotate(-89.84)"/></g></g></g></g></svg>