<svg xmlns="http://www.w3.org/2000/svg" viewBox="0 0 150 108.09"><defs><style>.cls-1{fill:#b6e1f3;}.cls-2{fill:#fff;}.cls-3{fill:#e2e2e2;}.cls-4{opacity:0.2;}</style></defs><title>Aeration basin 1（曝气池）</title><g id="图层_2" data-name="图层 2"><g id="图层_125" data-name="图层 125"><g id="Aeration_basin_1_曝气池_" data-name="Aeration basin 1（曝气池）"><rect class="cls-1" x="4.41" y="5.26" width="140.74" height="99.04"/><path class="cls-2" d="M85.35,67.73a.91.91,0,0,0,1,0s.3-.36.42-.31.06.59.16.75h0a1.71,1.71,0,0,0,1.24,0s.24-.16.31-.12.12.4.09.69a1.49,1.49,0,0,1-.26.8s-.28.37-.4.37-.58-.42-.58-.42a.78.78,0,0,0-1.16-.13h0a.18.18,0,0,1-.2,0l-.68-.54a1,1,0,0,1-.42-.65s0-.51.12-.58S85.35,67.73,85.35,67.73Z"/><path class="cls-2" d="M89.32,15.89c0,1.62-.67,2.93-1.5,2.93-.31,0-.4-1.48-.65-1.8-.39-.53-.85-.13-.85-1.13,0-1.62.67-2.93,1.5-2.93.47,0,.61,1.95.88,2.63C88.91,16.09,89.32,15.2,89.32,15.89Z"/><path class="cls-2" d="M68.45,31.4c0,.54-.71,1-1.59,1-.34,0-.43-.49-.69-.6-.42-.17-.91,0-.91-.37,0-.54.72-1,1.6-1,.5,0,.65.65.94.88S68.45,31.17,68.45,31.4Z"/><path class="cls-2" d="M64.08,89.44c1,0,0,.32,0,1.2,0,.33-.93.43-1.13.68-.33.42-.08.9-.71.9-1,0-3.23-.17-3.23-1,0-.51,2.62-1.19,3-1.48A6.32,6.32,0,0,1,64.08,89.44Z"/><path class="cls-2" d="M93.12,44.81c.7.36-.29.57-1.08,2.1-.29.58-1,.42-1.39.8-.6.61-.86,1.55-1.3,1.33-.7-.36-2.08-1.44-1.3-3,.45-.88,2.87-1.16,3.42-1.52S92.82,44.65,93.12,44.81Z"/><path class="cls-2" d="M79.67,55.12c.54.27-.22.43-.82,1.61-.23.45-.79.32-1.07.61-.46.47-.66,1.19-1,1a1.72,1.72,0,0,1-1-2.28c.35-.67,2.2-.88,2.62-1.16S79.44,55,79.67,55.12Z"/><path class="cls-2" d="M71.12,45.56c.88.45-.36.71-1.33,2.62-.37.72-1.28.52-1.73,1-.75.77-1.07,1.94-1.62,1.66-.87-.45-2.58-1.79-1.61-3.7.56-1.09,3.56-1.43,4.25-1.88C69.59,44.91,70.75,45.37,71.12,45.56Z"/><path class="cls-2" d="M77.11,90.42c1.2-.76.19.32.73,1.17.2.32-.84,1.11-.93,1.51-.14.65.46.93-.29,1.41-1.2.76-3.93,2.24-4.46,1.39-.31-.49,2.37-3.1,2.7-3.7A10.28,10.28,0,0,1,77.11,90.42Z"/><path class="cls-2" d="M63.34,25.29c0,.88-.7,0-2.6,0-.73,0-.93-.8-1.49-1-.9-.28-2-.07-2-.61,0-.87.37-2.77,2.28-2.77,1.09,0,2.57,2.25,3.2,2.61C63.24,23.82,63.34,24.92,63.34,25.29Z"/><path class="cls-2" d="M62.39,67.23c0,1-.32,0-1.17,0-.33,0-.42-.93-.67-1.13s-.88-.08-.88-.71c0-1,.17-3.22,1-3.22.49,0,1.16,2.61,1.44,3A6.32,6.32,0,0,1,62.39,67.23Z"/><path class="cls-2" d="M67.31,5.4c.88-.51.16.27.58,1,.17.28-.59.83-.65,1.14-.08.52.38.81-.17,1.12-.88.51-2.88,1.46-3.3.72-.25-.42,1.68-2.3,1.91-2.76A6.24,6.24,0,0,1,67.31,5.4Z"/><path class="cls-2" d="M73.64,18.75c-.68.93-2.89.45-3.9-.29s-.43-1.48.25-2.4,1.19,1.47,2.2,2.21S74.32,17.83,73.64,18.75Z"/><path class="cls-2" d="M85.11,30c-2.17,2.94-3,6-2.41,6.43s2.3-2,4.47-4.91-1.73.61-2.3.19S87.27,27.09,85.11,30Z"/><path class="cls-2" d="M59.45,40c1,.48.94,2.66.42,3.75s-1.32.67-2.32.19,1.18-1.39,1.7-2.47S58.46,39.54,59.45,40Z"/><path class="cls-2" d="M84.56,83.71c-1-2,0-4.45,1-5s1.86,1,2.86,3-2,0-3,.54S85.56,85.66,84.56,83.71Z"/><path class="cls-2" d="M78.18,78.42c-1.18,1.61-5,.78-6.8-.52s-.75-2.57.44-4.18,2.07,2.56,3.82,3.85S79.37,76.81,78.18,78.42Z"/><polygon class="cls-3" points="145.15 0 145.15 104.3 99.56 104.3 95.29 98.9 54.56 98.97 50.59 104.3 4.41 104.3 4.41 0 0 0 0 108.09 150 108.09 150 0 145.15 0"/></g></g></g></svg>