<svg xmlns="http://www.w3.org/2000/svg" xmlns:xlink="http://www.w3.org/1999/xlink" viewBox="0 0 149.97 95.46"><defs><style>.cls-1{fill:url(#未命名的渐变_105);}.cls-2{fill:url(#未命名的渐变_105-2);}.cls-3{fill:#eaeaea;}.cls-4{fill:url(#未命名的渐变_105-3);}.cls-5{fill:#cacaca;}.cls-6{fill:#595757;}.cls-7{fill:#bcbcbc;}.cls-8{fill:url(#未命名的渐变_105-4);}.cls-9{fill:url(#未命名的渐变_105-5);}.cls-10{fill:url(#未命名的渐变_105-6);}.cls-11{fill:url(#未命名的渐变_105-7);}.cls-12{fill:url(#未命名的渐变_105-8);}.cls-13{fill:url(#未命名的渐变_105-9);}.cls-14{fill:url(#未命名的渐变_105-10);}.cls-15{fill:url(#未命名的渐变_105-11);}.cls-16{fill:url(#未命名的渐变_105-12);}.cls-17{fill:url(#未命名的渐变_105-13);}.cls-18{fill:url(#未命名的渐变_105-14);}.cls-19{fill:url(#未命名的渐变_105-15);}.cls-20{fill:url(#未命名的渐变_105-16);}.cls-21{fill:url(#未命名的渐变_105-17);}.cls-22{fill:url(#未命名的渐变_105-18);}.cls-23{fill:url(#未命名的渐变_74);}.cls-24{fill:#fff;}.cls-25{fill:#7f7f7f;}.cls-26{fill:#c1c1c1;opacity:0.51;}.cls-27,.cls-38{fill:none;stroke-miterlimit:10;stroke-width:0.25px;}.cls-27{stroke:#7f7f7f;}.cls-28{fill:#dedede;}.cls-29{fill:#424242;}.cls-30{fill:url(#未命名的渐变_105-19);}.cls-31{fill:url(#未命名的渐变_74-2);}.cls-32{fill:url(#未命名的渐变_74-3);}.cls-33{fill:#c8c8c9;}.cls-34{fill:url(#未命名的渐变_105-20);}.cls-35{fill:#e7e7e7;}.cls-36{fill:url(#未命名的渐变_105-21);}.cls-37{fill:url(#未命名的渐变_105-22);}.cls-38{stroke:#d4d4d4;}.cls-39{fill:#a9a9a9;}.cls-40{fill:#faf8f8;}.cls-41{fill:#a95e63;}.cls-42{fill:#d3d3d3;}.cls-43{fill:#69bdc0;}.cls-44{opacity:0.2;}</style><linearGradient id="未命名的渐变_105" x1="133.54" y1="86.49" x2="138.89" y2="86.49" gradientUnits="userSpaceOnUse"><stop offset="0" stop-color="#e2e2e2"/><stop offset="0.03" stop-color="#d0d0d0"/><stop offset="0.06" stop-color="#bcbcbc"/><stop offset="0.09" stop-color="#b5b5b5"/><stop offset="0.49" stop-color="#f6f6f6"/><stop offset="0.63" stop-color="#f3f3f3"/><stop offset="0.73" stop-color="#eaeaea"/><stop offset="0.82" stop-color="#dbdbdb"/><stop offset="0.9" stop-color="#c6c6c6"/><stop offset="0.97" stop-color="#aaa"/><stop offset="1" stop-color="#9b9b9b"/></linearGradient><linearGradient id="未命名的渐变_105-2" x1="132.81" y1="94.33" x2="139.42" y2="94.33" xlink:href="#未命名的渐变_105"/><linearGradient id="未命名的渐变_105-3" x1="74.66" y1="86.49" x2="80.01" y2="86.49" xlink:href="#未命名的渐变_105"/><linearGradient id="未命名的渐变_105-4" x1="72.72" y1="27.05" x2="72.72" y2="6.07" xlink:href="#未命名的渐变_105"/><linearGradient id="未命名的渐变_105-5" x1="28.39" y1="29.38" x2="28.39" y2="0" xlink:href="#未命名的渐变_105"/><linearGradient id="未命名的渐变_105-6" x1="35.17" y1="29.38" x2="35.17" y2="0" xlink:href="#未命名的渐变_105"/><linearGradient id="未命名的渐变_105-7" x1="41.58" y1="29.38" x2="41.58" y2="0" xlink:href="#未命名的渐变_105"/><linearGradient id="未命名的渐变_105-8" x1="48.92" y1="29.38" x2="48.92" y2="0" xlink:href="#未命名的渐变_105"/><linearGradient id="未命名的渐变_105-9" x1="55.51" y1="29.38" x2="55.51" y2="0" xlink:href="#未命名的渐变_105"/><linearGradient id="未命名的渐变_105-10" x1="62.66" y1="29.38" x2="62.66" y2="0" xlink:href="#未命名的渐变_105"/><linearGradient id="未命名的渐变_105-11" x1="69.44" y1="29.38" x2="69.44" y2="0" xlink:href="#未命名的渐变_105"/><linearGradient id="未命名的渐变_105-12" x1="76.21" y1="29.38" x2="76.21" y2="0" xlink:href="#未命名的渐变_105"/><linearGradient id="未命名的渐变_105-13" x1="83.21" y1="29.38" x2="83.21" y2="0" xlink:href="#未命名的渐变_105"/><linearGradient id="未命名的渐变_105-14" x1="89.88" y1="29.38" x2="89.88" y2="0" xlink:href="#未命名的渐变_105"/><linearGradient id="未命名的渐变_105-15" x1="96.7" y1="29.38" x2="96.7" y2="0" xlink:href="#未命名的渐变_105"/><linearGradient id="未命名的渐变_105-16" x1="103.51" y1="29.38" x2="103.51" y2="0" xlink:href="#未命名的渐变_105"/><linearGradient id="未命名的渐变_105-17" x1="110.48" y1="29.38" x2="110.48" y2="0" xlink:href="#未命名的渐变_105"/><linearGradient id="未命名的渐变_105-18" x1="117.13" y1="29.38" x2="117.13" y2="0" xlink:href="#未命名的渐变_105"/><linearGradient id="未命名的渐变_74" x1="0.92" y1="17.36" x2="22.38" y2="17.36" gradientUnits="userSpaceOnUse"><stop offset="0" stop-color="#6b6b6b"/><stop offset="0.01" stop-color="#767676"/><stop offset="0.03" stop-color="#959595"/><stop offset="0.04" stop-color="#aaa"/><stop offset="0.37" stop-color="#ccc"/><stop offset="0.74" stop-color="#eaeaea"/><stop offset="0.94" stop-color="#f6f6f6"/><stop offset="0.95" stop-color="#ededed"/><stop offset="0.96" stop-color="#d4d4d4"/><stop offset="0.97" stop-color="#ababab"/><stop offset="0.99" stop-color="#737373"/><stop offset="0.99" stop-color="#666"/></linearGradient><linearGradient id="未命名的渐变_105-19" x1="0.85" y1="27.05" x2="22.31" y2="27.05" xlink:href="#未命名的渐变_105"/><linearGradient id="未命名的渐变_74-2" x1="22.38" y1="31.71" x2="127.34" y2="31.71" xlink:href="#未命名的渐变_74"/><linearGradient id="未命名的渐变_74-3" x1="0" y1="37.1" x2="149.97" y2="37.1" xlink:href="#未命名的渐变_74"/><linearGradient id="未命名的渐变_105-20" x1="15.96" y1="86.82" x2="21.31" y2="86.82" xlink:href="#未命名的渐变_105"/><linearGradient id="未命名的渐变_105-21" x1="15.23" y1="94.66" x2="21.84" y2="94.66" xlink:href="#未命名的渐变_105"/><linearGradient id="未命名的渐变_105-22" x1="73.93" y1="94.33" x2="80.54" y2="94.33" xlink:href="#未命名的渐变_105"/></defs><title>Disc and drum filter（盘式鼓式过滤器）</title><g id="图层_2" data-name="图层 2"><g id="图层_125" data-name="图层 125"><g id="Disc_and_drum_filter_盘式鼓式过滤器_" data-name="Disc and drum filter（盘式鼓式过滤器）"><rect class="cls-1" x="133.54" y="79.45" width="5.35" height="14.09"/><rect class="cls-2" x="132.81" y="93.54" width="6.61" height="1.59"/><rect class="cls-3" x="123.06" y="2.35" width="11.15" height="31.81"/><rect class="cls-4" x="74.66" y="79.45" width="5.35" height="14.09"/><rect class="cls-5" x="134.2" y="8.55" width="15.76" height="25.61"/><rect class="cls-6" x="21.1" y="39.85" width="112.28" height="21.73"/><rect class="cls-7" x="21.01" y="61.58" width="112.36" height="11.47"/><rect class="cls-8" x="22.38" y="6.07" width="100.68" height="20.98"/><rect class="cls-9" x="27.45" width="1.87" height="29.38" rx="0.24"/><rect class="cls-10" x="34.23" width="1.87" height="29.38" rx="0.24"/><rect class="cls-11" x="40.64" width="1.87" height="29.38" rx="0.24"/><rect class="cls-12" x="47.98" width="1.87" height="29.38" rx="0.24"/><rect class="cls-13" x="54.57" width="1.87" height="29.38" rx="0.24"/><rect class="cls-14" x="61.73" width="1.87" height="29.38" rx="0.24"/><rect class="cls-15" x="68.51" width="1.87" height="29.38" rx="0.24"/><rect class="cls-16" x="75.28" width="1.87" height="29.38" rx="0.24"/><rect class="cls-17" x="82.27" width="1.87" height="29.38" rx="0.24"/><rect class="cls-18" x="88.94" width="1.87" height="29.38" rx="0.24"/><rect class="cls-19" x="95.76" width="1.87" height="29.38" rx="0.24"/><rect class="cls-20" x="102.57" width="1.87" height="29.38" rx="0.24"/><rect class="cls-21" x="109.54" width="1.87" height="29.38" rx="0.24"/><rect class="cls-22" x="116.19" width="1.87" height="29.38" rx="0.24"/><rect class="cls-23" x="0.92" y="0.56" width="21.46" height="33.6"/><circle class="cls-24" cx="4.1" cy="30.62" r="1.76"/><path class="cls-3" d="M2.34,30.62a1.75,1.75,0,0,0,.77,1.45l.26,0a1.92,1.92,0,0,0,1.52-3,1.76,1.76,0,0,0-2.55,1.57Z"/><path class="cls-25" d="M4.1,28.69A1.93,1.93,0,1,0,6,30.62,1.92,1.92,0,0,0,4.1,28.69Zm0,3.69a1.76,1.76,0,1,1,1.76-1.76A1.76,1.76,0,0,1,4.1,32.38Z"/><circle class="cls-26" cx="4.1" cy="30.62" r="1.69"/><path class="cls-25" d="M4.59,31.1l.14-.23a.08.08,0,0,0,0-.1h0a1.31,1.31,0,0,1-.35-.12c-.31-.18-1.5-1-1.5-1s1.12.86,1.44,1.14a1.43,1.43,0,0,1,.2.27v0h0s0,0,0,0A.07.07,0,0,0,4.59,31.1Z"/><circle class="cls-25" cx="4.16" cy="30.64" r="0.15"/><line class="cls-27" x1="4.85" y1="29.22" x2="4.73" y2="29.45"/><line class="cls-27" x1="3.39" y1="29.22" x2="3.52" y2="29.45"/><line class="cls-27" x1="2.55" y1="30.41" x2="2.81" y2="30.45"/><line class="cls-27" x1="5.71" y1="30.4" x2="5.45" y2="30.44"/><circle class="cls-28" cx="4.16" cy="30.64" r="0.09"/><circle class="cls-24" cx="8.87" cy="30.73" r="1.76"/><path class="cls-3" d="M7.11,30.73a1.75,1.75,0,0,0,.77,1.45l.26,0A1.91,1.91,0,0,0,10,30.28a1.88,1.88,0,0,0-.37-1.12A1.71,1.71,0,0,0,8.87,29,1.76,1.76,0,0,0,7.11,30.73Z"/><path class="cls-25" d="M8.87,28.8a1.93,1.93,0,1,0,1.93,1.93A1.92,1.92,0,0,0,8.87,28.8Zm0,3.69a1.76,1.76,0,1,1,1.76-1.76A1.76,1.76,0,0,1,8.87,32.49Z"/><circle class="cls-26" cx="8.87" cy="30.73" r="1.69"/><path class="cls-25" d="M9.36,31.21,9.5,31a.08.08,0,0,0,0-.1h0a1.31,1.31,0,0,1-.35-.12c-.31-.18-1.5-1-1.5-1s1.12.86,1.44,1.14a2.22,2.22,0,0,1,.21.27s0,0,0,0h0s0,0,0,0A.07.07,0,0,0,9.36,31.21Z"/><circle class="cls-25" cx="8.93" cy="30.75" r="0.15"/><line class="cls-27" x1="9.63" y1="29.33" x2="9.5" y2="29.56"/><line class="cls-27" x1="8.16" y1="29.33" x2="8.29" y2="29.56"/><line class="cls-27" x1="7.32" y1="30.52" x2="7.58" y2="30.56"/><line class="cls-27" x1="10.49" y1="30.51" x2="10.22" y2="30.55"/><circle class="cls-28" cx="8.93" cy="30.75" r="0.09"/><circle class="cls-24" cx="14.39" cy="30.66" r="1.76"/><path class="cls-3" d="M12.63,30.66a1.78,1.78,0,0,0,.77,1.46l.26,0a1.91,1.91,0,0,0,1.89-1.92,2,2,0,0,0-.36-1.13,1.76,1.76,0,0,0-2.56,1.57Z"/><path class="cls-25" d="M14.39,28.74a1.93,1.93,0,1,0,1.93,1.92A1.92,1.92,0,0,0,14.39,28.74Zm0,3.68a1.76,1.76,0,1,1,1.76-1.76A1.76,1.76,0,0,1,14.39,32.42Z"/><circle class="cls-26" cx="14.39" cy="30.66" r="1.69"/><path class="cls-25" d="M14.89,31.15l.14-.23a.07.07,0,0,0,0-.1h0a1.46,1.46,0,0,1-.36-.13c-.3-.17-1.49-.95-1.49-.95s1.12.86,1.43,1.13a1.2,1.2,0,0,1,.21.28,0,0,0,0,1,0,0h0A.08.08,0,0,0,14.89,31.15Z"/><circle class="cls-25" cx="14.45" cy="30.68" r="0.15"/><line class="cls-27" x1="15.15" y1="29.26" x2="15.03" y2="29.5"/><line class="cls-27" x1="13.69" y1="29.26" x2="13.81" y2="29.5"/><line class="cls-27" x1="12.84" y1="30.45" x2="13.11" y2="30.49"/><line class="cls-27" x1="16.01" y1="30.45" x2="15.75" y2="30.48"/><circle class="cls-28" cx="14.45" cy="30.68" r="0.09"/><circle class="cls-24" cx="19.17" cy="30.77" r="1.76"/><path class="cls-3" d="M17.41,30.77a1.75,1.75,0,0,0,.77,1.46l.26,0a1.91,1.91,0,0,0,1.89-1.92A2,2,0,0,0,20,29.2a1.76,1.76,0,0,0-2.56,1.57Z"/><path class="cls-25" d="M19.17,28.84a1.93,1.93,0,1,0,1.93,1.93A1.94,1.94,0,0,0,19.17,28.84Zm0,3.69a1.76,1.76,0,1,1,1.76-1.76A1.76,1.76,0,0,1,19.17,32.53Z"/><circle class="cls-26" cx="19.17" cy="30.77" r="1.69"/><path class="cls-25" d="M19.67,31.26,19.8,31a.08.08,0,0,0,0-.1h0a1.58,1.58,0,0,1-.35-.13c-.31-.17-1.49-1-1.49-1S19,30.7,19.33,31a2.26,2.26,0,0,1,.21.28,0,0,0,0,0,0,0h0A.09.09,0,0,0,19.67,31.26Z"/><circle class="cls-25" cx="19.23" cy="30.79" r="0.15"/><line class="cls-27" x1="19.93" y1="29.37" x2="19.8" y2="29.61"/><line class="cls-27" x1="18.46" y1="29.37" x2="18.59" y2="29.61"/><line class="cls-27" x1="17.62" y1="30.56" x2="17.88" y2="30.6"/><line class="cls-27" x1="20.79" y1="30.55" x2="20.53" y2="30.59"/><circle class="cls-28" cx="19.23" cy="30.79" r="0.09"/><rect class="cls-29" x="4.93" y="4.8" width="6.37" height="5.77"/><rect class="cls-30" x="0.85" y="26.61" width="21.46" height="0.87"/><rect class="cls-31" x="22.38" y="29.26" width="104.96" height="4.89"/><rect class="cls-32" y="34.16" width="149.97" height="5.88"/><rect class="cls-3" x="22.31" y="27.05" width="104.96" height="2.18"/><rect class="cls-33" x="25.74" y="64.01" width="3.61" height="9.04"/><rect class="cls-3" x="15.61" y="40.03" width="5.49" height="14.09"/><rect class="cls-34" x="15.96" y="79.78" width="5.35" height="14.09"/><rect class="cls-5" x="21.1" y="54.12" width="5.49" height="32.83"/><rect class="cls-3" x="133.37" y="40.03" width="5.49" height="14.09"/><rect class="cls-5" x="133.37" y="54.12" width="5.49" height="32.83"/><rect class="cls-5" x="21.1" y="72.93" width="112.28" height="14.02"/><rect class="cls-35" x="25.74" y="39.85" width="3.61" height="24.56"/><rect class="cls-33" x="32.97" y="64.01" width="3.61" height="9.04"/><rect class="cls-35" x="32.97" y="39.85" width="3.61" height="24.56"/><rect class="cls-33" x="40.19" y="64.01" width="3.61" height="9.04"/><rect class="cls-35" x="40.19" y="39.85" width="3.61" height="24.56"/><rect class="cls-33" x="47.41" y="64.01" width="3.61" height="9.04"/><rect class="cls-35" x="47.41" y="39.85" width="3.61" height="24.56"/><rect class="cls-33" x="54.63" y="64.01" width="3.61" height="9.04"/><rect class="cls-35" x="54.63" y="39.85" width="3.61" height="24.56"/><rect class="cls-33" x="61.85" y="64.01" width="3.61" height="9.04"/><rect class="cls-35" x="61.85" y="39.85" width="3.61" height="24.56"/><rect class="cls-33" x="69.08" y="64.01" width="3.61" height="9.04"/><rect class="cls-35" x="69.08" y="39.85" width="3.61" height="24.56"/><rect class="cls-33" x="76.3" y="64.01" width="3.61" height="9.04"/><rect class="cls-35" x="76.3" y="39.85" width="3.61" height="24.56"/><rect class="cls-33" x="83.52" y="64.01" width="3.61" height="9.04"/><rect class="cls-35" x="83.52" y="39.85" width="3.61" height="24.56"/><rect class="cls-33" x="90.74" y="64.01" width="3.61" height="9.04"/><rect class="cls-35" x="90.74" y="39.85" width="3.61" height="24.56"/><rect class="cls-33" x="97.97" y="64.01" width="3.61" height="9.04"/><rect class="cls-35" x="97.97" y="39.85" width="3.61" height="24.56"/><rect class="cls-33" x="105.19" y="64.01" width="3.61" height="9.04"/><rect class="cls-35" x="105.19" y="39.85" width="3.61" height="24.56"/><rect class="cls-33" x="112.41" y="64.01" width="3.61" height="9.04"/><rect class="cls-35" x="112.41" y="39.85" width="3.61" height="24.56"/><rect class="cls-33" x="119.63" y="64.01" width="3.61" height="9.04"/><rect class="cls-35" x="119.63" y="39.85" width="3.61" height="24.56"/><rect class="cls-33" x="126.85" y="64.01" width="3.61" height="9.04"/><rect class="cls-35" x="126.85" y="39.85" width="3.61" height="24.56"/><rect class="cls-36" x="15.23" y="93.87" width="6.61" height="1.59"/><rect class="cls-37" x="73.93" y="93.54" width="6.61" height="1.59"/><rect class="cls-38" x="2.1" y="2.35" width="19.1" height="21.98"/><rect class="cls-39" x="5.62" y="5.43" width="4.99" height="4.52"/><circle class="cls-40" cx="4.75" cy="14.9" r="0.75"/><circle class="cls-41" cx="4.75" cy="14.9" r="0.53"/><circle class="cls-40" cx="8.23" cy="14.9" r="0.75"/><circle class="cls-41" cx="8.23" cy="14.9" r="0.53"/><circle class="cls-40" cx="11.52" cy="14.9" r="0.75"/><circle class="cls-41" cx="11.52" cy="14.9" r="0.53"/><circle class="cls-40" cx="15" cy="14.84" r="0.75"/><circle class="cls-41" cx="15" cy="14.84" r="0.53"/><circle class="cls-40" cx="18.34" cy="14.84" r="0.75"/><circle class="cls-41" cx="18.34" cy="14.84" r="0.53"/><circle class="cls-40" cx="15.22" cy="7.69" r="0.75"/><circle class="cls-42" cx="15.22" cy="7.69" r="0.53"/><circle class="cls-40" cx="18.56" cy="7.69" r="0.75"/><circle class="cls-42" cx="18.56" cy="7.69" r="0.53"/><circle class="cls-40" cx="4.75" cy="19.22" r="0.75"/><circle class="cls-43" cx="4.75" cy="19.22" r="0.53"/><circle class="cls-40" cx="8.23" cy="19.22" r="0.75"/><circle class="cls-43" cx="8.23" cy="19.22" r="0.53"/><circle class="cls-40" cx="11.74" cy="19.22" r="0.75"/><circle class="cls-43" cx="11.74" cy="19.22" r="0.53"/><circle class="cls-40" cx="15.22" cy="19.22" r="0.75"/><circle class="cls-43" cx="15.22" cy="19.22" r="0.53"/><circle class="cls-40" cx="18.56" cy="19.22" r="0.75"/><circle class="cls-43" cx="18.56" cy="19.22" r="0.53"/></g></g></g></svg>