<svg xmlns="http://www.w3.org/2000/svg" xmlns:xlink="http://www.w3.org/1999/xlink" viewBox="0 0 137.81 148.89"><defs><style>.cls-1{fill:url(#未命名的渐变_105);}.cls-2{fill:url(#未命名的渐变_105-2);}.cls-3{fill:url(#未命名的渐变_105-3);}.cls-4{fill:url(#未命名的渐变_105-4);}.cls-5{fill:url(#未命名的渐变_105-5);}.cls-6{fill:url(#未命名的渐变_105-6);}.cls-7{fill:url(#未命名的渐变_105-7);}.cls-8{fill:url(#未命名的渐变_105-8);}.cls-9{fill:url(#未命名的渐变_105-9);}.cls-10{fill:url(#未命名的渐变_105-10);}.cls-11{fill:url(#未命名的渐变_105-11);}.cls-12{fill:url(#未命名的渐变_105-12);}.cls-13{fill:url(#未命名的渐变_105-13);}.cls-14{fill:url(#未命名的渐变_105-14);}.cls-15{fill:url(#未命名的渐变_105-15);}.cls-16{opacity:0.2;}</style><linearGradient id="未命名的渐变_105" x1="18.98" y1="7.71" x2="43.12" y2="7.71" gradientUnits="userSpaceOnUse"><stop offset="0" stop-color="#e2e2e2"/><stop offset="0.03" stop-color="#d0d0d0"/><stop offset="0.06" stop-color="#bcbcbc"/><stop offset="0.09" stop-color="#b5b5b5"/><stop offset="0.49" stop-color="#f6f6f6"/><stop offset="0.63" stop-color="#f3f3f3"/><stop offset="0.73" stop-color="#eaeaea"/><stop offset="0.82" stop-color="#dbdbdb"/><stop offset="0.9" stop-color="#c6c6c6"/><stop offset="0.97" stop-color="#aaa"/><stop offset="1" stop-color="#9b9b9b"/></linearGradient><linearGradient id="未命名的渐变_105-2" x1="0.23" y1="19.08" x2="24.38" y2="19.08" gradientTransform="matrix(1, 0, 0, -1, 0, 164.43)" xlink:href="#未命名的渐变_105"/><linearGradient id="未命名的渐变_105-3" x1="37.72" y1="19.08" x2="61.16" y2="19.08" gradientTransform="matrix(1, 0, 0, -1, 0, 164.43)" xlink:href="#未命名的渐变_105"/><linearGradient id="未命名的渐变_105-4" x1="74.53" y1="19.08" x2="99.84" y2="19.08" gradientTransform="matrix(1, 0, 0, -1, 0, 164.43)" xlink:href="#未命名的渐变_105"/><linearGradient id="未命名的渐变_105-5" x1="113.22" y1="19.08" x2="137.81" y2="19.08" gradientTransform="matrix(1, 0, 0, -1, 0, 164.43)" xlink:href="#未命名的渐变_105"/><linearGradient id="未命名的渐变_105-6" x1="55.76" y1="7.71" x2="79.91" y2="7.71" xlink:href="#未命名的渐变_105"/><linearGradient id="未命名的渐变_105-7" x1="94.44" y1="7.71" x2="118.59" y2="7.71" xlink:href="#未命名的渐变_105"/><linearGradient id="未命名的渐变_105-8" x1="81.97" y1="-438.33" x2="87.37" y2="-438.33" gradientTransform="matrix(1, 0, 0, -1, -81.97, -367.43)" xlink:href="#未命名的渐变_105"/><linearGradient id="未命名的渐变_105-9" x1="100.95" y1="-443.96" x2="106.35" y2="-443.96" gradientTransform="matrix(1, 0, 0, -1, -81.97, -367.43)" xlink:href="#未命名的渐变_105"/><linearGradient id="未命名的渐变_105-10" x1="119.69" y1="-443.96" x2="125.1" y2="-443.96" gradientTransform="matrix(1, 0, 0, -1, -81.97, -367.43)" xlink:href="#未命名的渐变_105"/><linearGradient id="未命名的渐变_105-11" x1="137.73" y1="-443.96" x2="143.13" y2="-443.96" gradientTransform="matrix(1, 0, 0, -1, -81.97, -367.43)" xlink:href="#未命名的渐变_105"/><linearGradient id="未命名的渐变_105-12" x1="156.5" y1="-443.96" x2="161.9" y2="-443.96" gradientTransform="matrix(1, 0, 0, -1, -81.97, -367.43)" xlink:href="#未命名的渐变_105"/><linearGradient id="未命名的渐变_105-13" x1="176.41" y1="-443.96" x2="181.81" y2="-443.96" gradientTransform="matrix(1, 0, 0, -1, -81.97, -367.43)" xlink:href="#未命名的渐变_105"/><linearGradient id="未命名的渐变_105-14" x1="195.19" y1="-443.96" x2="200.59" y2="-443.96" gradientTransform="matrix(1, 0, 0, -1, -81.97, -367.43)" xlink:href="#未命名的渐变_105"/><linearGradient id="未命名的渐变_105-15" x1="214.38" y1="-438.33" x2="219.78" y2="-438.33" gradientTransform="matrix(1, 0, 0, -1, -81.97, -367.43)" xlink:href="#未命名的渐变_105"/></defs><title>Membranes（膜）</title><g id="图层_2" data-name="图层 2"><g id="图层_125" data-name="图层 125"><g id="Membranes_膜_" data-name="Membranes（膜）"><path class="cls-1" d="M24.82,11.26a9,9,0,0,1,12.46,0h5.84a13.82,13.82,0,0,0-24.14,0Z"/><path class="cls-2" d="M6.07,141.8a9.42,9.42,0,0,0,6.23,2.5,9.38,9.38,0,0,0,6.23-2.5h5.85a14.06,14.06,0,0,1-12.08,7.09A14,14,0,0,1,.23,141.8Z"/><path class="cls-3" d="M43.39,141.8a8.57,8.57,0,0,0,12.1,0h5.67a13.23,13.23,0,0,1-23.44,0Z"/><path class="cls-4" d="M80.65,141.8a9.79,9.79,0,0,0,13.07,0h6.12a14.84,14.84,0,0,1-25.31,0Z"/><path class="cls-5" d="M119.17,141.8a9.3,9.3,0,0,0,12.69,0h5.95a14.21,14.21,0,0,1-24.59,0Z"/><path class="cls-6" d="M61.6,11.26a9,9,0,0,1,12.47,0h5.84a13.83,13.83,0,0,0-24.15,0Z"/><path class="cls-7" d="M100.28,11.26a9,9,0,0,1,12.47,0h5.84a13.83,13.83,0,0,0-24.15,0Z"/><rect class="cls-8" width="5.4" height="141.8"/><rect class="cls-9" x="18.98" y="11.26" width="5.4" height="130.54"/><rect class="cls-10" x="37.72" y="11.26" width="5.4" height="130.54"/><rect class="cls-11" x="55.76" y="11.26" width="5.4" height="130.54"/><rect class="cls-12" x="74.53" y="11.26" width="5.4" height="130.54"/><rect class="cls-13" x="94.44" y="11.26" width="5.4" height="130.54"/><rect class="cls-14" x="113.22" y="11.26" width="5.4" height="130.54"/><rect class="cls-15" x="132.41" width="5.4" height="141.8"/></g></g></g></svg>