<svg xmlns="http://www.w3.org/2000/svg" xmlns:xlink="http://www.w3.org/1999/xlink" viewBox="0 0 113.36 150"><defs><style>.cls-1{fill:#7d7d7e;}.cls-2{fill:#c1c1c1;}.cls-3{fill:none;stroke:#7d7d7e;stroke-miterlimit:10;stroke-width:0.25px;}.cls-4{fill:url(#未命名的渐变_105);}.cls-5{fill:url(#未命名的渐变_105-2);}.cls-6{fill:url(#未命名的渐变_105-3);}.cls-7{fill:url(#未命名的渐变_105-4);}.cls-8{fill:url(#未命名的渐变_105-5);}.cls-9{fill:url(#未命名的渐变_105-6);}.cls-10{fill:url(#未命名的渐变_105-7);}.cls-11{fill:url(#未命名的渐变_105-8);}.cls-12{fill:url(#未命名的渐变_105-9);}.cls-13{fill:url(#未命名的渐变_105-10);}.cls-14{fill:url(#未命名的渐变_105-11);}.cls-15{fill:url(#未命名的渐变_105-12);}.cls-16{fill:url(#未命名的渐变_105-13);}.cls-17{fill:url(#未命名的渐变_105-14);}.cls-18{fill:url(#未命名的渐变_105-15);}.cls-19{fill:url(#未命名的渐变_105-16);}.cls-20{fill:url(#未命名的渐变_74);}.cls-21{fill:#3e3938;}.cls-22{fill:#6b6b6b;}.cls-23{fill:url(#未命名的渐变_105-17);}.cls-24{fill:url(#未命名的渐变_105-18);}.cls-25{fill:url(#未命名的渐变_105-19);}.cls-26{fill:url(#未命名的渐变_105-20);}.cls-27{fill:url(#未命名的渐变_105-21);}.cls-28{fill:url(#未命名的渐变_105-22);}.cls-29{fill:url(#未命名的渐变_105-23);}.cls-30{fill:url(#未命名的渐变_105-24);}.cls-31{fill:url(#未命名的渐变_105-25);}.cls-32{fill:url(#未命名的渐变_105-26);}.cls-33{fill:url(#未命名的渐变_105-27);}.cls-34{fill:url(#未命名的渐变_105-28);}.cls-35{fill:url(#未命名的渐变_105-29);}.cls-36{fill:url(#未命名的渐变_105-30);}.cls-37{fill:url(#未命名的渐变_105-31);}.cls-38{fill:url(#未命名的渐变_105-32);}.cls-39{fill:url(#未命名的渐变_105-33);}.cls-40{fill:url(#未命名的渐变_105-34);}.cls-41{fill:url(#未命名的渐变_67);}.cls-42{fill:url(#未命名的渐变_67-2);}.cls-43{fill:url(#未命名的渐变_67-3);}.cls-44{fill:url(#未命名的渐变_105-35);}.cls-45{fill:url(#未命名的渐变_105-36);}.cls-46{fill:url(#未命名的渐变_105-37);}.cls-47{fill:url(#未命名的渐变_67-4);}.cls-48{fill:url(#未命名的渐变_67-5);}.cls-49{fill:url(#未命名的渐变_105-38);}.cls-50{fill:url(#未命名的渐变_105-39);}.cls-51{fill:#b75356;}.cls-52{fill:#c7a900;}.cls-53{fill:#389967;}.cls-54{opacity:0.2;}</style><linearGradient id="未命名的渐变_105" x1="504.4" y1="-809.19" x2="504.4" y2="-813.77" gradientTransform="matrix(1, 0, 0, -3.25, -408.16, -2536.7)" gradientUnits="userSpaceOnUse"><stop offset="0" stop-color="#e2e2e2"/><stop offset="0.03" stop-color="#d0d0d0"/><stop offset="0.06" stop-color="#bcbcbc"/><stop offset="0.09" stop-color="#b5b5b5"/><stop offset="0.49" stop-color="#f6f6f6"/><stop offset="0.63" stop-color="#f3f3f3"/><stop offset="0.73" stop-color="#eaeaea"/><stop offset="0.82" stop-color="#dbdbdb"/><stop offset="0.9" stop-color="#c6c6c6"/><stop offset="0.97" stop-color="#aaa"/><stop offset="1" stop-color="#9b9b9b"/></linearGradient><linearGradient id="未命名的渐变_105-2" x1="532.68" y1="-808.51" x2="532.68" y2="-814.31" gradientTransform="matrix(0, 1, 3.25, 0, 2731, -406.33)" xlink:href="#未命名的渐变_105"/><linearGradient id="未命名的渐变_105-3" x1="-669.55" y1="-546.08" x2="-669.55" y2="-564.96" gradientTransform="translate(708.09 653.2)" xlink:href="#未命名的渐变_105"/><linearGradient id="未命名的渐变_105-4" x1="-273.74" y1="-1729.26" x2="-244.96" y2="-1729.26" gradientTransform="translate(-221.74 -1606.06) rotate(180)" xlink:href="#未命名的渐变_105"/><linearGradient id="未命名的渐变_105-5" x1="-672.34" y1="-567.96" x2="-672.34" y2="-570.17" gradientTransform="translate(697.35 669.54)" xlink:href="#未命名的渐变_105"/><linearGradient id="未命名的渐变_105-6" x1="-672.34" y1="-559.45" x2="-672.34" y2="-561.66" gradientTransform="translate(705.86 661.03)" xlink:href="#未命名的渐变_105"/><linearGradient id="未命名的渐变_105-7" x1="-672.34" y1="-550.94" x2="-672.34" y2="-553.14" gradientTransform="translate(714.37 652.52)" xlink:href="#未命名的渐变_105"/><linearGradient id="未命名的渐变_105-8" x1="-663.07" y1="-550.94" x2="-663.07" y2="-559.83" gradientTransform="translate(701.75 646.58)" xlink:href="#未命名的渐变_105"/><linearGradient id="未命名的渐变_105-9" x1="-661.61" y1="-488.73" x2="-661.61" y2="-506.49" gradientTransform="translate(758.08 587.35)" xlink:href="#未命名的渐变_105"/><linearGradient id="未命名的渐变_105-10" x1="-678.41" y1="-487.19" x2="-678.41" y2="-508.16" gradientTransform="translate(774.81 604.21)" xlink:href="#未命名的渐变_105"/><linearGradient id="未命名的渐变_105-11" x1="-657.08" y1="-549.75" x2="-657.08" y2="-561.66" gradientTransform="translate(695.45 640.91)" xlink:href="#未命名的渐变_105"/><linearGradient id="未命名的渐变_105-12" x1="-672.34" y1="-542.43" x2="-672.34" y2="-544.63" gradientTransform="translate(722.89 644.01)" xlink:href="#未命名的渐变_105"/><linearGradient id="未命名的渐变_105-13" x1="525.23" y1="-832.95" x2="525.23" y2="-833.17" gradientTransform="matrix(1, 0, 0, -3.25, -499.05, -2585.93)" xlink:href="#未命名的渐变_105"/><linearGradient id="未命名的渐变_105-14" x1="525.23" y1="-832.34" x2="525.23" y2="-832.56" gradientTransform="matrix(1, 0, 0, -3.25, -497.07, -2583.95)" xlink:href="#未命名的渐变_105"/><linearGradient id="未命名的渐变_105-15" x1="525.23" y1="-833.57" x2="525.23" y2="-833.79" gradientTransform="matrix(1, 0, 0, -3.25, -501.06, -2587.94)" xlink:href="#未命名的渐变_105"/><linearGradient id="未命名的渐变_105-16" x1="-727.74" y1="-693.95" x2="-727.74" y2="-695.97" gradientTransform="matrix(1, 0, 0, -3.25, 797.25, -2128.67)" xlink:href="#未命名的渐变_105"/><linearGradient id="未命名的渐变_74" x1="512.32" y1="-825.42" x2="525.73" y2="-825.42" gradientTransform="matrix(1, 0, 0, -3.25, -468.03, -2567.33)" gradientUnits="userSpaceOnUse"><stop offset="0" stop-color="#6b6b6b"/><stop offset="0.01" stop-color="#767676"/><stop offset="0.03" stop-color="#959595"/><stop offset="0.04" stop-color="#aaa"/><stop offset="0.37" stop-color="#ccc"/><stop offset="0.74" stop-color="#eaeaea"/><stop offset="0.94" stop-color="#f6f6f6"/><stop offset="0.95" stop-color="#ededed"/><stop offset="0.96" stop-color="#d4d4d4"/><stop offset="0.97" stop-color="#ababab"/><stop offset="0.99" stop-color="#737373"/><stop offset="0.99" stop-color="#666"/></linearGradient><linearGradient id="未命名的渐变_105-17" x1="525.23" y1="-825.5" x2="525.23" y2="-825.72" gradientTransform="matrix(1, 0, 0, -3.25, -474.86, -2561.74)" xlink:href="#未命名的渐变_105"/><linearGradient id="未命名的渐变_105-18" x1="525.23" y1="-826.12" x2="525.23" y2="-826.34" gradientTransform="matrix(1, 0, 0, -3.25, -476.88, -2563.76)" xlink:href="#未命名的渐变_105"/><linearGradient id="未命名的渐变_105-19" x1="525.23" y1="-826.74" x2="525.23" y2="-826.96" gradientTransform="matrix(1, 0, 0, -3.25, -478.9, -2565.78)" xlink:href="#未命名的渐变_105"/><linearGradient id="未命名的渐变_105-20" x1="525.23" y1="-827.36" x2="525.23" y2="-827.58" gradientTransform="matrix(1, 0, 0, -3.25, -480.91, -2567.79)" xlink:href="#未命名的渐变_105"/><linearGradient id="未命名的渐变_105-21" x1="525.23" y1="-827.98" x2="525.23" y2="-828.2" gradientTransform="matrix(1, 0, 0, -3.25, -482.93, -2569.81)" xlink:href="#未命名的渐变_105"/><linearGradient id="未命名的渐变_105-22" x1="525.23" y1="-828.6" x2="525.23" y2="-828.82" gradientTransform="matrix(1, 0, 0, -3.25, -484.94, -2571.82)" xlink:href="#未命名的渐变_105"/><linearGradient id="未命名的渐变_105-23" x1="527.68" y1="-809.19" x2="527.68" y2="-809.49" gradientTransform="matrix(1, 0, 0, -3.25, -424.49, -2506.47)" xlink:href="#未命名的渐变_105"/><linearGradient id="未命名的渐变_105-24" x1="527.68" y1="-810.03" x2="527.68" y2="-810.33" gradientTransform="matrix(1, 0, 0, -3.25, -427.22, -2509.2)" xlink:href="#未命名的渐变_105"/><linearGradient id="未命名的渐变_105-25" x1="527.68" y1="-810.87" x2="527.68" y2="-811.17" gradientTransform="matrix(1, 0, 0, -3.25, -429.95, -2511.94)" xlink:href="#未命名的渐变_105"/><linearGradient id="未命名的渐变_105-26" x1="527.68" y1="-811.72" x2="527.68" y2="-812.02" gradientTransform="matrix(1, 0, 0, -3.25, -432.69, -2514.67)" xlink:href="#未命名的渐变_105"/><linearGradient id="未命名的渐变_105-27" x1="527.68" y1="-812.56" x2="527.68" y2="-812.86" gradientTransform="matrix(1, 0, 0, -3.25, -435.42, -2517.4)" xlink:href="#未命名的渐变_105"/><linearGradient id="未命名的渐变_105-28" x1="527.68" y1="-813.4" x2="527.68" y2="-813.7" gradientTransform="matrix(1, 0, 0, -3.25, -438.15, -2520.14)" xlink:href="#未命名的渐变_105"/><linearGradient id="未命名的渐变_105-29" x1="525.23" y1="-829.22" x2="525.23" y2="-829.45" gradientTransform="matrix(1, 0, 0, -3.25, -486.96, -2573.84)" xlink:href="#未命名的渐变_105"/><linearGradient id="未命名的渐变_105-30" x1="525.23" y1="-829.84" x2="525.23" y2="-830.07" gradientTransform="matrix(1, 0, 0, -3.25, -488.97, -2575.85)" xlink:href="#未命名的渐变_105"/><linearGradient id="未命名的渐变_105-31" x1="525.23" y1="-830.47" x2="525.23" y2="-830.69" gradientTransform="matrix(1, 0, 0, -3.25, -490.99, -2577.87)" xlink:href="#未命名的渐变_105"/><linearGradient id="未命名的渐变_105-32" x1="525.23" y1="-831.09" x2="525.23" y2="-831.31" gradientTransform="matrix(1, 0, 0, -3.25, -493, -2579.88)" xlink:href="#未命名的渐变_105"/><linearGradient id="未命名的渐变_105-33" x1="525.23" y1="-831.71" x2="525.23" y2="-831.93" gradientTransform="matrix(1, 0, 0, -3.25, -495.02, -2581.9)" xlink:href="#未命名的渐变_105"/><linearGradient id="未命名的渐变_105-34" x1="511.37" y1="-822.53" x2="526.89" y2="-822.53" gradientTransform="matrix(1, 0, 0, -3.25, -458.76, -2557.84)" xlink:href="#未命名的渐变_105"/><linearGradient id="未命名的渐变_67" x1="-710.19" y1="-691.5" x2="-681.69" y2="-691.5" gradientTransform="matrix(1, 0, 0, -3.25, 733.64, -2106.19)" gradientUnits="userSpaceOnUse"><stop offset="0" stop-color="#6b6b6b"/><stop offset="0.11" stop-color="#767676"/><stop offset="0.3" stop-color="#959595"/><stop offset="0.41" stop-color="#aaa"/><stop offset="0.56" stop-color="#ccc"/><stop offset="0.71" stop-color="#eaeaea"/><stop offset="0.8" stop-color="#f6f6f6"/><stop offset="0.83" stop-color="#ededed"/><stop offset="0.87" stop-color="#d4d4d4"/><stop offset="0.92" stop-color="#ababab"/><stop offset="0.98" stop-color="#737373"/><stop offset="0.99" stop-color="#666"/></linearGradient><linearGradient id="未命名的渐变_67-2" x1="510.9" y1="-822.49" x2="527.35" y2="-822.49" gradientTransform="matrix(1, 0, 0, -3.25, -458.62, -2557.71)" xlink:href="#未命名的渐变_67"/><linearGradient id="未命名的渐变_67-3" x1="510.9" y1="-822.09" x2="527.35" y2="-822.09" gradientTransform="matrix(1, 0, 0, -3.25, -457.33, -2556.42)" xlink:href="#未命名的渐变_67"/><linearGradient id="未命名的渐变_105-35" x1="457.68" y1="-830.19" x2="457.68" y2="-828.22" gradientTransform="matrix(1, 0, 0, -3.25, -418.98, -2640.97)" xlink:href="#未命名的渐变_105"/><linearGradient id="未命名的渐变_105-36" x1="461.18" y1="-812.4" x2="461.18" y2="-810.43" gradientTransform="matrix(1, 0, 0, -3.25, -364.72, -2579.7)" xlink:href="#未命名的渐变_105"/><linearGradient id="未命名的渐变_105-37" x1="417.49" y1="-820.3" x2="424.5" y2="-820.3" gradientTransform="matrix(1, 0, 0, -3.25, -353.39, -2648.75)" xlink:href="#未命名的渐变_105"/><linearGradient id="未命名的渐变_67-4" x1="-710.6" y1="-702.15" x2="-681.63" y2="-702.15" gradientTransform="matrix(1, 0, 0, -3.25, 734, -2175.37)" xlink:href="#未命名的渐变_67"/><linearGradient id="未命名的渐变_67-5" x1="55.31" y1="105.98" x2="55.31" y2="119.39" gradientTransform="matrix(1, 0, 0, 1, 0, 0)" xlink:href="#未命名的渐变_67"/><linearGradient id="未命名的渐变_105-38" x1="3.42" y1="-1216.21" x2="9.63" y2="-1222.43" gradientTransform="matrix(1, 0, 0, -1, 33.83, -1202.79)" xlink:href="#未命名的渐变_105"/><linearGradient id="未命名的渐变_105-39" x1="-126.72" y1="-1216.21" x2="-120.5" y2="-1222.43" gradientTransform="translate(-28.76 -1202.79) rotate(180)" xlink:href="#未命名的渐变_105"/></defs><title>Polymer mixing system（聚合式混合系统）</title><g id="图层_2" data-name="图层 2"><g id="图层_125" data-name="图层 125"><g id="Polymer_mixing_system_聚合式混合系统_" data-name="Polymer mixing system（聚合式混合系统）"><rect class="cls-1" x="-18.32" y="18.32" width="150" height="113.36" transform="translate(131.68 18.32) rotate(90)"/><rect class="cls-2" x="-58.97" y="63.44" width="150" height="23.12" transform="translate(91.03 58.97) rotate(90)"/><rect class="cls-2" x="-31.68" y="63.44" width="150" height="23.12" transform="translate(118.32 31.68) rotate(90)"/><rect class="cls-2" x="-4.39" y="63.44" width="150" height="23.12" transform="translate(145.61 4.39) rotate(90)"/><rect class="cls-2" x="22.54" y="63.44" width="150" height="23.12" transform="translate(172.54 -22.54) rotate(90)"/><path class="cls-3" d="M16,25.87l-.26,104.69a4.82,4.82,0,0,0,4.82,4.84h3.57"/><rect class="cls-4" x="88.79" y="90.62" width="14.88" height="14.88" transform="translate(194.3 1.83) rotate(90)"/><path class="cls-5" d="M105.89,142.34V108H87.06v34.3s2.27,2.32,9.42,2.32C104.23,144.66,105.89,142.34,105.89,142.34Z"/><rect class="cls-6" x="34.33" y="88.24" width="8.45" height="18.88" transform="translate(-59.13 136.23) rotate(-90)"/><path class="cls-7" d="M23.22,101.4H52v38.77S51,145,37.61,145c-13.6,0-14.39-4.85-14.39-4.85Z"/><rect class="cls-8" x="24.24" y="99.37" width="1.54" height="2.21" transform="translate(-75.47 125.48) rotate(-90)"/><rect class="cls-9" x="32.75" y="99.37" width="1.54" height="2.21" transform="translate(-66.96 133.99) rotate(-90)"/><rect class="cls-10" x="41.26" y="99.37" width="1.54" height="2.21" transform="translate(-58.45 142.51) rotate(-90)"/><rect class="cls-11" x="36.43" y="86.75" width="4.51" height="8.89" transform="translate(-52.51 129.88) rotate(-90)"/><rect class="cls-12" x="95.19" y="80.86" width="2.53" height="17.77" rx="0.23" transform="translate(6.72 186.21) rotate(-90)"/><rect class="cls-13" x="94.89" y="96.05" width="3.01" height="20.98" rx="0.23" transform="translate(-10.14 202.94) rotate(-90)"/><rect class="cls-14" x="34.64" y="79.26" width="7.46" height="11.9" transform="translate(-46.84 123.58) rotate(-90)"/><rect class="cls-15" x="49.77" y="99.37" width="1.54" height="2.21" transform="translate(-49.93 151.02) rotate(-90)"/><rect class="cls-16" x="13.27" y="118.54" width="25.83" height="0.72" transform="translate(145.08 92.72) rotate(90)"/><rect class="cls-17" x="15.25" y="118.54" width="25.83" height="0.72" transform="translate(147.06 90.73) rotate(90)"/><rect class="cls-18" x="11.25" y="118.54" width="25.83" height="0.72" transform="translate(143.06 94.73) rotate(90)"/><rect class="cls-19" x="51.95" y="124.49" width="35.11" height="6.56" transform="translate(139.01 255.54) rotate(180)"/><rect class="cls-20" x="44.28" y="108.58" width="13.41" height="8.22" transform="translate(163.67 61.7) rotate(90)"/><rect class="cls-1" x="5.89" y="6.52" width="20.67" height="20.01" transform="translate(32.76 0.29) rotate(90)"/><rect class="cls-1" x="5.89" y="31" width="20.67" height="20.01" transform="translate(57.24 24.77) rotate(90)"/><rect class="cls-2" x="6.63" y="117.79" width="24.78" height="1.75" transform="translate(137.68 99.64) rotate(90)"/><rect class="cls-2" x="11.78" y="117.79" width="24.78" height="1.75" transform="translate(142.83 94.5) rotate(90)"/><rect class="cls-21" x="10.41" y="5.49" width="10.92" height="16.09" transform="translate(29.41 -2.34) rotate(90)"/><rect class="cls-22" x="9.26" y="116.91" width="24.78" height="3.49" transform="translate(140.31 97.02) rotate(90)"/><rect class="cls-23" x="37.45" y="118.54" width="25.83" height="0.72" transform="translate(169.26 68.53) rotate(90)"/><rect class="cls-24" x="35.44" y="118.54" width="25.83" height="0.72" transform="translate(167.24 70.55) rotate(90)"/><rect class="cls-25" x="33.42" y="118.54" width="25.83" height="0.72" transform="translate(165.23 72.56) rotate(90)"/><rect class="cls-26" x="31.4" y="118.54" width="25.83" height="0.72" transform="translate(163.21 74.58) rotate(90)"/><rect class="cls-27" x="29.39" y="118.54" width="25.83" height="0.72" transform="translate(161.2 76.59) rotate(90)"/><rect class="cls-28" x="27.37" y="118.54" width="25.83" height="0.72" transform="translate(159.18 78.61) rotate(90)"/><rect class="cls-29" x="92.94" y="120.86" width="20.49" height="0.98" transform="translate(224.53 18.15) rotate(90)"/><rect class="cls-30" x="90.21" y="120.86" width="20.49" height="0.98" transform="translate(221.8 20.89) rotate(90)"/><rect class="cls-31" x="87.48" y="120.86" width="20.49" height="0.98" transform="translate(219.07 23.62) rotate(90)"/><rect class="cls-32" x="84.74" y="120.86" width="20.49" height="0.98" transform="translate(216.33 26.35) rotate(90)"/><rect class="cls-33" x="82.01" y="120.86" width="20.49" height="0.98" transform="translate(213.6 29.09) rotate(90)"/><rect class="cls-34" x="79.28" y="120.86" width="20.49" height="0.98" transform="translate(210.87 31.82) rotate(90)"/><rect class="cls-35" x="25.36" y="118.54" width="25.83" height="0.72" transform="translate(157.17 80.62) rotate(90)"/><rect class="cls-36" x="23.34" y="118.54" width="25.83" height="0.72" transform="translate(155.15 82.64) rotate(90)"/><rect class="cls-37" x="21.33" y="118.54" width="25.83" height="0.72" transform="translate(153.14 84.65) rotate(90)"/><rect class="cls-38" x="19.31" y="118.54" width="25.83" height="0.72" transform="translate(151.12 86.67) rotate(90)"/><rect class="cls-39" x="17.3" y="118.54" width="25.83" height="0.72" transform="translate(149.11 88.68) rotate(90)"/><rect class="cls-40" x="52.61" y="108.37" width="15.52" height="8.85" transform="translate(173.16 52.43) rotate(90)"/><rect class="cls-41" x="23.45" y="138.4" width="28.5" height="1.22" transform="translate(75.4 278.02) rotate(180)"/><rect class="cls-42" x="52.28" y="112.33" width="16.45" height="0.92" rx="0.08" transform="translate(173.3 52.28) rotate(90)"/><rect class="cls-43" x="53.56" y="112.33" width="16.45" height="0.92" rx="0.08" transform="translate(174.58 51) rotate(90)"/><rect class="cls-44" x="8.56" y="48.14" width="60.27" height="6.4" transform="translate(90.04 12.65) rotate(90)"/><rect class="cls-45" x="62.83" y="51.64" width="67.27" height="6.4" transform="translate(151.3 -41.62) rotate(90)"/><rect class="cls-46" x="64.1" y="-8.42" width="7.01" height="46.15" transform="translate(82.26 -52.94) rotate(90)"/><rect class="cls-47" x="23.39" y="104.04" width="28.97" height="0.76" transform="translate(75.76 208.84) rotate(180)"/><rect class="cls-48" x="54.67" y="105.98" width="1.27" height="13.41"/><path class="cls-49" d="M42.61,19.31a3.87,3.87,0,0,0-.72,1.9H35.5s0-6.14,1.77-7.82c2.35-2.21,7.26-2.24,7.26-2.24v7.22A7,7,0,0,0,42.61,19.31Z"/><path class="cls-50" d="M92.59,19.31a3.87,3.87,0,0,1,.72,1.9h6.4s0-6.14-1.78-7.82c-2.34-2.21-7.25-2.24-7.25-2.24v7.22A7,7,0,0,1,92.59,19.31Z"/><circle class="cls-51" cx="11.56" cy="22.83" r="1.62"/><circle class="cls-51" cx="11.56" cy="38.05" r="1.62"/><circle class="cls-52" cx="20.7" cy="23.05" r="1.62"/><circle class="cls-53" cx="20.7" cy="38.05" r="1.62"/></g></g></g></svg>