<svg xmlns="http://www.w3.org/2000/svg" xmlns:xlink="http://www.w3.org/1999/xlink" viewBox="0 0 149.92 102.49"><defs><style>.cls-1{fill:url(#未命名的渐变_74);}.cls-2{fill:url(#未命名的渐变_105);}.cls-3{fill:url(#未命名的渐变_105-2);}.cls-4{fill:url(#未命名的渐变_105-3);}.cls-5{fill:url(#未命名的渐变_105-4);}.cls-6{fill:url(#未命名的渐变_105-5);}.cls-7{fill:url(#未命名的渐变_67);}.cls-8{fill:url(#未命名的渐变_67-2);}.cls-9{fill:url(#未命名的渐变_105-6);}.cls-10{fill:url(#未命名的渐变_105-7);}.cls-11{fill:url(#未命名的渐变_105-8);}.cls-12{fill:url(#未命名的渐变_105-9);}.cls-13{fill:url(#未命名的渐变_105-10);}.cls-14{fill:url(#未命名的渐变_105-11);}.cls-15{fill:url(#未命名的渐变_105-12);}.cls-16{fill:url(#未命名的渐变_105-13);}.cls-17{fill:url(#未命名的渐变_105-14);}.cls-18{fill:url(#未命名的渐变_105-15);}.cls-19{fill:#7d7d7e;}.cls-20{fill:#6b6b6b;}.cls-21{fill:url(#未命名的渐变_105-16);}.cls-22{fill:url(#未命名的渐变_105-17);}.cls-23{fill:url(#未命名的渐变_105-18);}.cls-24{fill:url(#未命名的渐变_105-19);}.cls-25{fill:url(#未命名的渐变_105-20);}.cls-26{fill:url(#未命名的渐变_105-21);}.cls-27{fill:url(#未命名的渐变_105-22);}.cls-28{fill:url(#未命名的渐变_105-23);}.cls-29{fill:url(#未命名的渐变_105-24);}.cls-30{fill:url(#未命名的渐变_105-25);}.cls-31{fill:url(#未命名的渐变_105-26);}.cls-32{fill:url(#未命名的渐变_67-3);}.cls-33{fill:url(#未命名的渐变_67-4);}.cls-34{fill:url(#未命名的渐变_105-27);}.cls-35{fill:url(#未命名的渐变_67-5);}.cls-36{fill:url(#未命名的渐变_67-6);}.cls-37{fill:url(#未命名的渐变_67-7);}.cls-38{fill:url(#未命名的渐变_67-8);}.cls-39{fill:url(#未命名的渐变_67-9);}.cls-40{fill:url(#未命名的渐变_67-10);}.cls-41{fill:url(#未命名的渐变_105-28);}.cls-42{fill:url(#未命名的渐变_105-29);}.cls-43{fill:url(#未命名的渐变_105-30);}.cls-44{fill:url(#未命名的渐变_67-11);}.cls-45{fill:url(#未命名的渐变_67-12);}.cls-46{fill:url(#未命名的渐变_67-13);}.cls-47{fill:url(#未命名的渐变_67-14);}.cls-48{fill:url(#未命名的渐变_67-15);}.cls-49{fill:#c1c1c1;}.cls-50{opacity:0.2;}</style><linearGradient id="未命名的渐变_74" x1="1018.53" y1="-530.8" x2="1071.15" y2="-530.8" gradientTransform="matrix(1, 0, 0, -3.25, -1017.2, -1638.76)" gradientUnits="userSpaceOnUse"><stop offset="0" stop-color="#6b6b6b"/><stop offset="0.01" stop-color="#767676"/><stop offset="0.03" stop-color="#959595"/><stop offset="0.04" stop-color="#aaa"/><stop offset="0.37" stop-color="#ccc"/><stop offset="0.74" stop-color="#eaeaea"/><stop offset="0.94" stop-color="#f6f6f6"/><stop offset="0.95" stop-color="#ededed"/><stop offset="0.96" stop-color="#d4d4d4"/><stop offset="0.97" stop-color="#ababab"/><stop offset="0.99" stop-color="#737373"/><stop offset="0.99" stop-color="#666"/></linearGradient><linearGradient id="未命名的渐变_105" x1="31.4" y1="-0.67" x2="50.24" y2="-0.67" gradientTransform="translate(-1.42 48.07)" gradientUnits="userSpaceOnUse"><stop offset="0" stop-color="#e2e2e2"/><stop offset="0.03" stop-color="#d0d0d0"/><stop offset="0.06" stop-color="#bcbcbc"/><stop offset="0.09" stop-color="#b5b5b5"/><stop offset="0.49" stop-color="#f6f6f6"/><stop offset="0.63" stop-color="#f3f3f3"/><stop offset="0.73" stop-color="#eaeaea"/><stop offset="0.82" stop-color="#dbdbdb"/><stop offset="0.9" stop-color="#c6c6c6"/><stop offset="0.97" stop-color="#aaa"/><stop offset="1" stop-color="#9b9b9b"/></linearGradient><linearGradient id="未命名的渐变_105-2" x1="73.16" y1="-1.82" x2="85.02" y2="-1.82" xlink:href="#未命名的渐变_105"/><linearGradient id="未命名的渐变_105-3" x1="59.27" y1="46.51" x2="59.27" y2="30.52" xlink:href="#未命名的渐变_105"/><linearGradient id="未命名的渐变_105-4" x1="-80.56" y1="-1455.11" x2="-52.91" y2="-1455.11" gradientTransform="translate(1484.74 19.71) rotate(-90)" xlink:href="#未命名的渐变_105"/><linearGradient id="未命名的渐变_105-5" x1="36.01" y1="-3.69" x2="36.01" y2="-5.2" xlink:href="#未命名的渐变_105"/><linearGradient id="未命名的渐变_67" x1="58.3" y1="47.05" x2="58.3" y2="30.16" gradientTransform="translate(-1.42 48.07)" gradientUnits="userSpaceOnUse"><stop offset="0" stop-color="#6b6b6b"/><stop offset="0.11" stop-color="#767676"/><stop offset="0.3" stop-color="#959595"/><stop offset="0.41" stop-color="#aaa"/><stop offset="0.56" stop-color="#ccc"/><stop offset="0.71" stop-color="#eaeaea"/><stop offset="0.8" stop-color="#f6f6f6"/><stop offset="0.83" stop-color="#ededed"/><stop offset="0.87" stop-color="#d4d4d4"/><stop offset="0.92" stop-color="#ababab"/><stop offset="0.98" stop-color="#737373"/><stop offset="0.99" stop-color="#666"/></linearGradient><linearGradient id="未命名的渐变_67-2" x1="63.22" y1="44.78" x2="63.22" y2="32.42" xlink:href="#未命名的渐变_67"/><linearGradient id="未命名的渐变_105-6" x1="53.85" y1="43.94" x2="53.85" y2="32.6" xlink:href="#未命名的渐变_105"/><linearGradient id="未命名的渐变_105-7" x1="55.37" y1="40.6" x2="55.37" y2="36.03" xlink:href="#未命名的渐变_105"/><linearGradient id="未命名的渐变_105-8" x1="36.01" y1="8.01" x2="36.01" y2="6.5" xlink:href="#未命名的渐变_105"/><linearGradient id="未命名的渐变_105-9" x1="99.84" y1="-36.28" x2="99.84" y2="-48.07" xlink:href="#未命名的渐变_105"/><linearGradient id="未命名的渐变_105-10" x1="66" y1="44.78" x2="66" y2="32.42" xlink:href="#未命名的渐变_105"/><linearGradient id="未命名的渐变_105-11" x1="-476.68" y1="-580.37" x2="-476.68" y2="-597.6" gradientTransform="matrix(0, -1, -3.25, 0, -1793.16, -416.78)" xlink:href="#未命名的渐变_105"/><linearGradient id="未命名的渐变_105-12" x1="36.01" y1="13.86" x2="36.01" y2="12.35" xlink:href="#未命名的渐变_105"/><linearGradient id="未命名的渐变_105-13" x1="1042.38" y1="-533.22" x2="1042.38" y2="-533.41" gradientTransform="matrix(1, 0, 0, -3.25, -1012.28, -1655.08)" xlink:href="#未命名的渐变_105"/><linearGradient id="未命名的渐变_105-14" x1="1042.38" y1="-532.68" x2="1042.38" y2="-532.87" gradientTransform="matrix(1, 0, 0, -3.25, -1012.28, -1651.58)" xlink:href="#未命名的渐变_105"/><linearGradient id="未命名的渐变_105-15" x1="1042.38" y1="-533.76" x2="1042.38" y2="-533.96" gradientTransform="matrix(1, 0, 0, -3.25, -1012.28, -1658.64)" xlink:href="#未命名的渐变_105"/><linearGradient id="未命名的渐变_105-16" x1="1042.38" y1="-526.64" x2="1042.38" y2="-526.84" gradientTransform="matrix(1, 0, 0, -3.25, -1012.28, -1612.39)" xlink:href="#未命名的渐变_105"/><linearGradient id="未命名的渐变_105-17" x1="1042.38" y1="-527.19" x2="1042.38" y2="-527.39" gradientTransform="matrix(1, 0, 0, -3.25, -1012.28, -1615.94)" xlink:href="#未命名的渐变_105"/><linearGradient id="未命名的渐变_105-18" x1="1042.38" y1="-527.74" x2="1042.38" y2="-527.93" gradientTransform="matrix(1, 0, 0, -3.25, -1012.28, -1619.5)" xlink:href="#未命名的渐变_105"/><linearGradient id="未命名的渐变_105-19" x1="1042.38" y1="-528.29" x2="1042.38" y2="-528.48" gradientTransform="matrix(1, 0, 0, -3.25, -1012.28, -1623.06)" xlink:href="#未命名的渐变_105"/><linearGradient id="未命名的渐变_105-20" x1="1042.38" y1="-528.83" x2="1042.38" y2="-529.03" gradientTransform="matrix(1, 0, 0, -3.25, -1012.28, -1626.62)" xlink:href="#未命名的渐变_105"/><linearGradient id="未命名的渐变_105-21" x1="1042.38" y1="-529.38" x2="1042.38" y2="-529.58" gradientTransform="matrix(1, 0, 0, -3.25, -1012.28, -1630.18)" xlink:href="#未命名的渐变_105"/><linearGradient id="未命名的渐变_105-22" x1="1042.38" y1="-529.93" x2="1042.38" y2="-530.13" gradientTransform="matrix(1, 0, 0, -3.25, -1012.28, -1633.73)" xlink:href="#未命名的渐变_105"/><linearGradient id="未命名的渐变_105-23" x1="1042.38" y1="-530.48" x2="1042.38" y2="-530.67" gradientTransform="matrix(1, 0, 0, -3.25, -1012.28, -1637.29)" xlink:href="#未命名的渐变_105"/><linearGradient id="未命名的渐变_105-24" x1="1042.38" y1="-531.03" x2="1042.38" y2="-531.22" gradientTransform="matrix(1, 0, 0, -3.25, -1012.28, -1640.85)" xlink:href="#未命名的渐变_105"/><linearGradient id="未命名的渐变_105-25" x1="1042.38" y1="-531.57" x2="1042.38" y2="-531.77" gradientTransform="matrix(1, 0, 0, -3.25, -1012.28, -1644.41)" xlink:href="#未命名的渐变_105"/><linearGradient id="未命名的渐变_105-26" x1="1042.38" y1="-532.12" x2="1042.38" y2="-532.32" gradientTransform="matrix(1, 0, 0, -3.25, -1012.28, -1647.97)" xlink:href="#未命名的渐变_105"/><linearGradient id="未命名的渐变_67-3" x1="-517.34" y1="-566" x2="-489.05" y2="-566" gradientTransform="matrix(1, 0, 0, -3.25, 547.76, -1751.31)" xlink:href="#未命名的渐变_67"/><linearGradient id="未命名的渐变_67-4" x1="-516.79" y1="-557.55" x2="-489.41" y2="-557.55" gradientTransform="matrix(1, 0, 0, -3.25, 520.21, -1723.96)" xlink:href="#未命名的渐变_67"/><linearGradient id="未命名的渐变_105-27" x1="-517.34" y1="-566.27" x2="-489.05" y2="-566.27" gradientTransform="matrix(1, 0, 0, -3.25, 548.64, -1752.2)" xlink:href="#未命名的渐变_105"/><linearGradient id="未命名的渐变_67-5" x1="1066.02" y1="168.2" x2="1066.02" y2="180.6" gradientTransform="translate(-1026.26 -106.36)" xlink:href="#未命名的渐变_67"/><linearGradient id="未命名的渐变_67-6" x1="1040.37" y1="168.24" x2="1040.37" y2="180.6" gradientTransform="translate(-1000.63 -132.02)" xlink:href="#未命名的渐变_67"/><linearGradient id="未命名的渐变_67-7" x1="1018.25" y1="168.22" x2="1018.25" y2="180.61" gradientTransform="translate(-978.51 -154.14)" xlink:href="#未命名的渐变_67"/><linearGradient id="未命名的渐变_67-8" x1="1017.04" y1="167.74" x2="1017.04" y2="181.59" gradientTransform="translate(-977.54 -155.6)" xlink:href="#未命名的渐变_67"/><linearGradient id="未命名的渐变_67-9" x1="1017.42" y1="88.5" x2="1017.42" y2="101.73" gradientTransform="translate(-898.38 -75.67)" xlink:href="#未命名的渐变_67"/><linearGradient id="未命名的渐变_67-10" x1="1030.03" y1="64.63" x2="1030.03" y2="125.57" gradientTransform="translate(-910.97 -63.05)" xlink:href="#未命名的渐变_67"/><linearGradient id="未命名的渐变_105-28" x1="1089.1" y1="-871.48" x2="1100.87" y2="-883.25" gradientTransform="translate(1210.67 -867.31) rotate(180)" xlink:href="#未命名的渐变_105"/><linearGradient id="未命名的渐变_105-29" x1="50.41" y1="-871.48" x2="62.18" y2="-883.25" gradientTransform="matrix(1, 0, 0, -1, 24.76, -867.31)" xlink:href="#未命名的渐变_105"/><linearGradient id="未命名的渐变_105-30" x1="1125.01" y1="-88.77" x2="1136.78" y2="-100.54" gradientTransform="matrix(-1, 0, 0, 1, 1205.59, 177.1)" xlink:href="#未命名的渐变_105"/><linearGradient id="未命名的渐变_67-11" x1="119.39" y1="36.91" x2="119.39" y2="52.81" gradientTransform="matrix(1, 0, 0, 1, 0, 0)" xlink:href="#未命名的渐变_67"/><linearGradient id="未命名的渐变_67-12" x1="119.39" y1="38.58" x2="119.39" y2="51.14" gradientTransform="matrix(1, 0, 0, 1, 0, 0)" xlink:href="#未命名的渐变_67"/><linearGradient id="未命名的渐变_67-13" x1="119.39" y1="65.71" x2="119.39" y2="81.61" gradientTransform="matrix(1, 0, 0, 1, 0, 0)" xlink:href="#未命名的渐变_67"/><linearGradient id="未命名的渐变_67-14" x1="119.39" y1="67.38" x2="119.39" y2="79.94" gradientTransform="matrix(1, 0, 0, 1, 0, 0)" xlink:href="#未命名的渐变_67"/><linearGradient id="未命名的渐变_67-15" x1="105.07" y1="85.99" x2="105.07" y2="88.12" gradientTransform="matrix(1, 0, 0, 1, 0, 0)" xlink:href="#未命名的渐变_67"/></defs><title>Scrubber module(洗涤器模块)</title><g id="图层_2" data-name="图层 2"><g id="图层_125" data-name="图层 125"><g id="Scrubber_module_洗涤器模块_" data-name="Scrubber module(洗涤器模块)"><rect class="cls-1" x="1.33" y="69.09" width="52.62" height="31.18" transform="translate(55.27 169.35) rotate(180)"/><polygon class="cls-2" points="45.93 68.98 48.82 73.91 29.98 73.91 33.56 68.98 33.56 20.88 45.93 20.88 45.93 68.98"/><rect class="cls-3" x="71.73" y="18.84" width="11.86" height="54.82"/><polygon class="cls-4" points="61.08 92.85 54.61 94.58 54.61 78.59 61.08 80.48 61.08 92.85"/><path class="cls-5" d="M45.88,72.62l4.3,6a13.42,13.42,0,0,1,0,15.55l-4.3,6H11s-4.36-1-4.36-13.83C6.59,73.38,11,72.62,11,72.62Z"/><rect class="cls-6" x="34.05" y="42.87" width="1.06" height="1.52"/><rect class="cls-7" x="56.12" y="78.23" width="1.52" height="16.89"/><rect class="cls-8" x="61.08" y="80.48" width="1.42" height="12.37"/><rect class="cls-9" x="51.35" y="80.67" width="2.15" height="11.34"/><rect class="cls-10" x="53.28" y="84.1" width="1.34" height="4.57"/><rect class="cls-11" x="34.05" y="54.56" width="1.06" height="1.52"/><rect class="cls-12" x="89.2" width="18.43" height="11.79"/><rect class="cls-13" x="62.51" y="80.48" width="4.14" height="12.37"/><polygon class="cls-14" points="91.2 30.84 91.2 100.35 147.15 100.35 147.15 30.84 123.39 19.45 114.37 19.45 91.2 30.84"/><rect class="cls-15" x="34.05" y="60.41" width="1.06" height="1.52"/><rect class="cls-16" x="17.55" y="76.2" width="25.09" height="0.64" transform="translate(60.19 153.03) rotate(180)"/><rect class="cls-17" x="17.55" y="77.95" width="25.09" height="0.64" transform="translate(60.19 156.53) rotate(180)"/><rect class="cls-18" x="17.55" y="74.42" width="25.09" height="0.64" transform="translate(60.19 149.47) rotate(180)"/><rect class="cls-19" x="91.6" y="58.21" width="55.53" height="1.9" transform="translate(238.73 118.32) rotate(180)"/><rect class="cls-19" x="91.62" y="72.71" width="55.53" height="1.9" transform="translate(238.77 147.32) rotate(180)"/><rect class="cls-19" x="91.62" y="86.47" width="55.53" height="1.9" transform="translate(238.77 174.85) rotate(180)"/><rect class="cls-19" x="91.6" y="44.79" width="55.53" height="1.9" transform="translate(238.73 91.48) rotate(180)"/><rect class="cls-20" y="100.27" width="55.04" height="1.98" transform="translate(55.04 202.52) rotate(180)"/><rect class="cls-21" x="17.55" y="97.55" width="25.09" height="0.64" transform="translate(60.19 195.73) rotate(180)"/><rect class="cls-22" x="17.55" y="95.77" width="25.09" height="0.64" transform="translate(60.19 192.17) rotate(180)"/><rect class="cls-23" x="17.55" y="93.99" width="25.09" height="0.64" transform="translate(60.19 188.61) rotate(180)"/><rect class="cls-24" x="17.55" y="92.21" width="25.09" height="0.64" transform="translate(60.19 185.05) rotate(180)"/><rect class="cls-25" x="17.55" y="90.43" width="25.09" height="0.64" transform="translate(60.19 181.5) rotate(180)"/><rect class="cls-26" x="17.55" y="88.65" width="25.09" height="0.64" transform="translate(60.19 177.94) rotate(180)"/><rect class="cls-27" x="17.55" y="86.87" width="25.09" height="0.64" transform="translate(60.19 174.38) rotate(180)"/><rect class="cls-28" x="17.55" y="85.09" width="25.09" height="0.64" transform="translate(60.19 170.82) rotate(180)"/><rect class="cls-29" x="17.55" y="83.31" width="25.09" height="0.64" transform="translate(60.19 167.26) rotate(180)"/><rect class="cls-30" x="17.55" y="81.54" width="25.09" height="0.64" transform="translate(60.19 163.71) rotate(180)"/><rect class="cls-31" x="17.55" y="79.76" width="25.09" height="0.64" transform="translate(60.19 160.15) rotate(180)"/><rect class="cls-32" x="30.42" y="85.97" width="28.29" height="0.88" transform="translate(-41.85 130.97) rotate(-90)"/><rect class="cls-33" x="3.42" y="85.87" width="27.38" height="0.88" transform="translate(-69.2 103.43) rotate(-90)"/><rect class="cls-34" x="31.3" y="85.97" width="28.29" height="0.88" rx="0.12" transform="translate(-40.96 131.85) rotate(-90)"/><rect class="cls-35" x="39.16" y="61.84" width="1.21" height="12.41" transform="translate(107.81 28.28) rotate(90)"/><rect class="cls-36" x="39.14" y="36.21" width="1.21" height="12.37" transform="translate(82.14 2.65) rotate(90)"/><rect class="cls-37" x="39.14" y="14.08" width="1.21" height="12.39" transform="translate(60.02 -19.47) rotate(90)"/><rect class="cls-38" x="38.89" y="12.13" width="1.21" height="13.86" transform="translate(58.56 -20.44) rotate(90)"/><rect class="cls-39" x="118.44" y="12.83" width="1.21" height="13.24" rx="0.16" transform="translate(138.49 -99.6) rotate(90)"/><rect class="cls-40" x="117.84" y="1.58" width="2.44" height="60.94" transform="translate(151.12 -87.01) rotate(90)"/><path class="cls-41" d="M111.06,14.25c1.13,1.16,1.64,4.59,1.64,4.59H125s0-11.51-3.42-14.65c-4.51-4.14-14-4.19-14-4.19V11.79A27.5,27.5,0,0,1,111.06,14.25Z"/><path class="cls-42" d="M85.68,14.25C84.55,15.41,84,18.84,84,18.84H71.73s0-11.51,3.43-14.65C79.66.05,89.1,0,89.1,0V11.79A28.28,28.28,0,0,0,85.68,14.25Z"/><path class="cls-43" d="M70.07,78.25c1.13-1.16,1.64-4.59,1.64-4.59H84s0,11.51-3.42,14.65c-4.5,4.14-14,4.19-14,4.19V80.71A28.18,28.18,0,0,0,70.07,78.25Z"/><circle class="cls-44" cx="119.39" cy="44.86" r="7.95"/><circle class="cls-45" cx="119.39" cy="44.86" r="6.28"/><circle class="cls-46" cx="119.39" cy="73.66" r="7.95"/><circle class="cls-47" cx="119.39" cy="73.66" r="6.28"/><polygon class="cls-48" points="101.75 85.99 101.75 88.12 102.77 88.12 102.77 86.98 107.4 86.98 107.4 88.12 108.39 88.12 108.39 85.99 101.75 85.99"/><rect class="cls-49" x="92.41" y="88.12" width="25.29" height="12.82"/><rect class="cls-19" x="88.68" y="100.35" width="61.24" height="2.15" transform="translate(238.61 202.84) rotate(180)"/></g></g></g></svg>