<svg xmlns="http://www.w3.org/2000/svg" xmlns:xlink="http://www.w3.org/1999/xlink" viewBox="0 0 96.53 150.4"><defs><style>.cls-1{fill:url(#未命名的渐变_105);}.cls-2{fill:url(#未命名的渐变_105-2);}.cls-3{fill:#cdcece;}.cls-4{fill:#e6e6e6;}.cls-5{fill:url(#未命名的渐变_105-3);}.cls-6{fill:url(#未命名的渐变_105-4);}.cls-7{fill:url(#未命名的渐变_105-5);}.cls-8{fill:url(#未命名的渐变_105-6);}.cls-9{fill:url(#未命名的渐变_105-7);}.cls-10{fill:url(#未命名的渐变_105-8);}.cls-11{fill:url(#未命名的渐变_105-9);}.cls-12{fill:url(#未命名的渐变_105-10);}.cls-13{fill:url(#未命名的渐变_105-11);}.cls-14{fill:url(#未命名的渐变_105-12);}.cls-15{opacity:0.2;}</style><linearGradient id="未命名的渐变_105" x1="14.15" y1="63.45" x2="18.51" y2="63.45" gradientTransform="translate(-1.42 48.07)" gradientUnits="userSpaceOnUse"><stop offset="0" stop-color="#e2e2e2"/><stop offset="0.03" stop-color="#d0d0d0"/><stop offset="0.06" stop-color="#bcbcbc"/><stop offset="0.09" stop-color="#b5b5b5"/><stop offset="0.49" stop-color="#f6f6f6"/><stop offset="0.63" stop-color="#f3f3f3"/><stop offset="0.73" stop-color="#eaeaea"/><stop offset="0.82" stop-color="#dbdbdb"/><stop offset="0.9" stop-color="#c6c6c6"/><stop offset="0.97" stop-color="#aaa"/><stop offset="1" stop-color="#9b9b9b"/></linearGradient><linearGradient id="未命名的渐变_105-2" x1="87.35" y1="62.6" x2="91.7" y2="62.6" xlink:href="#未命名的渐变_105"/><linearGradient id="未命名的渐变_105-3" x1="33.61" y1="23.88" x2="62.91" y2="23.88" gradientTransform="matrix(1, 0, 0, 1, 0, 0)" xlink:href="#未命名的渐变_105"/><linearGradient id="未命名的渐变_105-4" x1="26.07" y1="-37.64" x2="27.68" y2="-37.64" xlink:href="#未命名的渐变_105"/><linearGradient id="未命名的渐变_105-5" x1="7.83" y1="63.45" x2="12.18" y2="63.45" xlink:href="#未命名的渐变_105"/><linearGradient id="未命名的渐变_105-6" x1="81.02" y1="62.6" x2="85.37" y2="62.6" xlink:href="#未命名的渐变_105"/><linearGradient id="未命名的渐变_105-7" x1="37.79" y1="-37.64" x2="39.4" y2="-37.64" xlink:href="#未命名的渐变_105"/><linearGradient id="未命名的渐变_105-8" x1="49.25" y1="-37.64" x2="50.85" y2="-37.64" xlink:href="#未命名的渐变_105"/><linearGradient id="未命名的渐变_105-9" x1="72.16" y1="-37.64" x2="73.77" y2="-37.64" xlink:href="#未命名的渐变_105"/><linearGradient id="未命名的渐变_105-10" x1="23.01" y1="1.37" x2="73.97" y2="1.37" gradientTransform="matrix(1, 0, 0, 1, 0, 0)" xlink:href="#未命名的渐变_105"/><linearGradient id="未命名的渐变_105-11" x1="23.15" y1="10.77" x2="74.11" y2="10.77" gradientTransform="matrix(1, 0, 0, 1, 0, 0)" xlink:href="#未命名的渐变_105"/><linearGradient id="未命名的渐变_105-12" x1="23.28" y1="20.18" x2="74.24" y2="20.18" gradientTransform="matrix(1, 0, 0, 1, 0, 0)" xlink:href="#未命名的渐变_105"/></defs><title>Spherical storage tank 1（球罐）</title><g id="图层_2" data-name="图层 2"><g id="图层_125" data-name="图层 125"><g id="Spherical_storage_tank_1_球罐_" data-name="Spherical storage tank 1（球罐）"><rect class="cls-1" x="12.73" y="72.64" width="4.35" height="77.76"/><rect class="cls-2" x="85.92" y="71.79" width="4.35" height="77.76"/><ellipse class="cls-3" cx="48.26" cy="72.64" rx="48.26" ry="48.75"/><path class="cls-4" d="M74.68,35.49H21.87c-.62.47-1.22,1-1.82,1.46v.46h57C76.29,36.74,75.49,36.11,74.68,35.49Z"/><path class="cls-4" d="M30.45,115.27h34c.49-.62,1-1.25,1.44-1.92H29C29.48,114,30,114.65,30.45,115.27Z"/><path class="cls-4" d="M9.75,102.47h77c.38-.63.73-1.27,1.09-1.91H8.67C9,101.2,9.37,101.84,9.75,102.47Z"/><path class="cls-4" d="M4.23,89.52H92.32c.17-.63.31-1.27.46-1.91h-89C3.92,88.25,4.06,88.89,4.23,89.52Z"/><path class="cls-4" d="M2.37,75.74c0,.42,0,.83.06,1.25H94.11c0-.42.06-.83.06-1.25,0-.22,0-.44,0-.67H2.4C2.4,75.3,2.37,75.52,2.37,75.74Z"/><path class="cls-4" d="M3.85,63.52H92.69c-.15-.64-.28-1.29-.46-1.91H4.31C4.14,62.23,4,62.88,3.85,63.52Z"/><path class="cls-4" d="M9.16,50.06H87.38c-.36-.64-.7-1.3-1.09-1.92h-76C9.86,48.76,9.53,49.42,9.16,50.06Z"/><rect class="cls-5" x="33.61" y="20.86" width="29.3" height="6.04"/><rect class="cls-6" x="24.65" y="1.63" width="1.61" height="17.59"/><rect class="cls-7" x="6.4" y="72.64" width="4.35" height="77.76"/><rect class="cls-8" x="79.6" y="71.79" width="4.35" height="77.76"/><rect class="cls-9" x="36.37" y="1.63" width="1.61" height="17.59"/><rect class="cls-10" x="47.82" y="1.63" width="1.61" height="17.59"/><rect class="cls-11" x="70.74" y="1.63" width="1.61" height="17.59"/><rect class="cls-12" x="23.01" width="50.96" height="2.74"/><rect class="cls-13" x="23.15" y="9.41" width="50.96" height="2.74"/><rect class="cls-14" x="23.28" y="18.81" width="50.96" height="2.74"/></g></g></g></svg>