<svg xmlns="http://www.w3.org/2000/svg" xmlns:xlink="http://www.w3.org/1999/xlink" viewBox="0 0 150 97.29"><defs><style>.cls-1{fill:url(#未命名的渐变_143);}.cls-2{fill:url(#未命名的渐变_143-2);}.cls-3{fill:url(#未命名的渐变_67);}.cls-4{fill:url(#未命名的渐变_143-3);}.cls-5{fill:url(#未命名的渐变_143-4);}.cls-6{fill:url(#未命名的渐变_143-5);}.cls-7{fill:url(#未命名的渐变_67-2);}.cls-8{fill:url(#未命名的渐变_143-6);}.cls-9{fill:#c1c1c1;}.cls-10{opacity:0.2;}</style><linearGradient id="未命名的渐变_143" x1="603.48" y1="-10.98" x2="645.57" y2="-10.98" gradientTransform="translate(-0.83 -551.18) rotate(90)" gradientUnits="userSpaceOnUse"><stop offset="0" stop-color="#b7b7b7"/><stop offset="0.03" stop-color="#9b9d9d"/><stop offset="0.07" stop-color="#878b8b"/><stop offset="0.09" stop-color="#808484"/><stop offset="0.2" stop-color="#a3a6a6"/><stop offset="0.49" stop-color="#f6f6f6"/><stop offset="0.61" stop-color="#f3f3f3"/><stop offset="0.7" stop-color="#eaeaea"/><stop offset="0.77" stop-color="#dbdbdb"/><stop offset="0.83" stop-color="#c5c5c5"/><stop offset="0.9" stop-color="#aaa"/><stop offset="0.95" stop-color="#888"/><stop offset="1" stop-color="#666"/></linearGradient><linearGradient id="未命名的渐变_143-2" x1="-46.46" y1="-919.65" x2="-8.89" y2="-919.65" gradientTransform="translate(929.8 -8.89) rotate(-90)" xlink:href="#未命名的渐变_143"/><linearGradient id="未命名的渐变_67" x1="-64.46" y1="-918.84" x2="-44.41" y2="-918.84" gradientTransform="translate(929.8 -8.89) rotate(-90)" gradientUnits="userSpaceOnUse"><stop offset="0" stop-color="#6b6b6b"/><stop offset="0.11" stop-color="#767676"/><stop offset="0.3" stop-color="#959595"/><stop offset="0.41" stop-color="#aaa"/><stop offset="0.56" stop-color="#ccc"/><stop offset="0.71" stop-color="#eaeaea"/><stop offset="0.8" stop-color="#f6f6f6"/><stop offset="0.83" stop-color="#ededed"/><stop offset="0.87" stop-color="#d4d4d4"/><stop offset="0.92" stop-color="#ababab"/><stop offset="0.98" stop-color="#737373"/><stop offset="0.99" stop-color="#666"/></linearGradient><linearGradient id="未命名的渐变_143-3" x1="-64.46" y1="-918.47" x2="-44.41" y2="-918.47" gradientTransform="translate(65.76 964.02)" xlink:href="#未命名的渐变_143"/><linearGradient id="未命名的渐变_143-4" x1="-66.21" y1="-904.94" x2="-42.82" y2="-904.94" gradientTransform="translate(79.37 950.56)" xlink:href="#未命名的渐变_143"/><linearGradient id="未命名的渐变_143-5" x1="-87.63" y1="-840.89" x2="-20.9" y2="-840.89" gradientTransform="translate(143.17 886.26)" xlink:href="#未命名的渐变_143"/><linearGradient id="未命名的渐变_67-2" x1="-87.63" y1="-841.11" x2="-20.85" y2="-841.11" gradientTransform="translate(142.92 886.46)" xlink:href="#未命名的渐变_67"/><linearGradient id="未命名的渐变_143-6" x1="-88.9" y1="-841.23" x2="-20.13" y2="-841.23" gradientTransform="translate(143.08 886.86)" xlink:href="#未命名的渐变_143"/></defs><title>Submersible mixer（潜水搅拌机）</title><g id="图层_2" data-name="图层 2"><g id="图层_125" data-name="图层 125"><g id="Submersible_mixer_潜水搅拌机_" data-name="Submersible mixer（潜水搅拌机）"><path class="cls-1" d="M17.39,52.3H5.63C-.11,62.73-1.27,77.23,1.28,85.17c1.44,4.49,6.06,10.21,11.84,9.08,4.93-1,6.85-5.42,7.11-8.11a52.15,52.15,0,0,0-.79-10.79c-1.06-5.69-3.26-13.52-2.05-23Z"/><path class="cls-2" d="M3.69,37.57H14.18c5.13-9.31,6.16-22.25,3.88-29.33C16.78,4.23,12.65-.88,7.49.13A8.12,8.12,0,0,0,1.15,7.37,46.54,46.54,0,0,0,1.86,17c.94,5.07,2.91,12.07,1.83,20.57Z"/><path class="cls-3" d="M21.91,35.52v20H2.8S0,54.13,0,45.54c0-6.86,2.8-10,2.8-10Z"/><rect class="cls-4" x="1.3" y="37.02" width="20.04" height="17.04" transform="translate(-34.22 56.87) rotate(-90)"/><rect class="cls-5" x="13.17" y="42.68" width="23.39" height="5.89" transform="translate(-20.76 70.48) rotate(-90)"/><rect class="cls-6" x="55.54" y="-15.73" width="66.73" height="122.19" transform="translate(43.53 134.27) rotate(-90)"/><rect class="cls-7" x="55.29" y="36.94" width="66.78" height="16.8" transform="translate(43.34 134.03) rotate(-90)"/><rect class="cls-8" x="54.18" y="38.94" width="68.77" height="13.38" transform="translate(42.94 134.19) rotate(-90)"/><rect class="cls-9" x="35.03" y="77.14" width="21.9" height="17.25"/><rect class="cls-9" x="32.9" y="94.4" width="25.48" height="2.9"/><rect class="cls-9" x="121.35" y="77.14" width="21.9" height="17.25"/><rect class="cls-9" x="119.22" y="94.4" width="25.48" height="2.9"/></g></g></g></svg>