<svg xmlns="http://www.w3.org/2000/svg" xmlns:xlink="http://www.w3.org/1999/xlink" viewBox="0 0 146.19 150.14"><defs><style>.cls-1{fill:url(#未命名的渐变_74);}.cls-2{fill:#c1c1c1;}.cls-3{fill:#f8f8f8;}.cls-4{fill:url(#未命名的渐变_105);}.cls-5{fill:url(#未命名的渐变_105-2);}.cls-6{fill:url(#未命名的渐变_74-2);}.cls-7{fill:url(#未命名的渐变_105-3);}.cls-8{fill:url(#未命名的渐变_105-4);}.cls-9{fill:url(#未命名的渐变_105-5);}.cls-10{fill:url(#未命名的渐变_105-6);}.cls-11{fill:url(#未命名的渐变_74-3);}.cls-12{fill:url(#未命名的渐变_67);}.cls-13{fill:url(#未命名的渐变_105-7);}.cls-14{fill:url(#未命名的渐变_105-8);}.cls-15{fill:url(#未命名的渐变_105-9);}.cls-16{fill:url(#未命名的渐变_105-10);}.cls-17{fill:url(#未命名的渐变_105-11);}.cls-18{fill:url(#未命名的渐变_105-12);}.cls-19{fill:url(#未命名的渐变_74-4);}.cls-20{fill:url(#未命名的渐变_105-13);}.cls-21{fill:url(#未命名的渐变_105-14);}.cls-22{fill:url(#未命名的渐变_105-15);}.cls-23{opacity:0.2;}</style><linearGradient id="未命名的渐变_74" x1="3.64" y1="88.33" x2="58.89" y2="88.33" gradientUnits="userSpaceOnUse"><stop offset="0" stop-color="#6b6b6b"/><stop offset="0.01" stop-color="#767676"/><stop offset="0.03" stop-color="#959595"/><stop offset="0.04" stop-color="#aaa"/><stop offset="0.37" stop-color="#ccc"/><stop offset="0.74" stop-color="#eaeaea"/><stop offset="0.94" stop-color="#f6f6f6"/><stop offset="0.95" stop-color="#ededed"/><stop offset="0.96" stop-color="#d4d4d4"/><stop offset="0.97" stop-color="#ababab"/><stop offset="0.99" stop-color="#737373"/><stop offset="0.99" stop-color="#666"/></linearGradient><linearGradient id="未命名的渐变_105" x1="80.08" y1="-1430.64" x2="80.08" y2="-1442.01" gradientTransform="translate(-81.3 999.74) scale(1.75 0.68)" gradientUnits="userSpaceOnUse"><stop offset="0" stop-color="#e2e2e2"/><stop offset="0.03" stop-color="#d0d0d0"/><stop offset="0.06" stop-color="#bcbcbc"/><stop offset="0.09" stop-color="#b5b5b5"/><stop offset="0.49" stop-color="#f6f6f6"/><stop offset="0.63" stop-color="#f3f3f3"/><stop offset="0.73" stop-color="#eaeaea"/><stop offset="0.82" stop-color="#dbdbdb"/><stop offset="0.9" stop-color="#c6c6c6"/><stop offset="0.97" stop-color="#aaa"/><stop offset="1" stop-color="#9b9b9b"/></linearGradient><linearGradient id="未命名的渐变_105-2" x1="609.92" y1="-617.11" x2="609.92" y2="-628.48" gradientTransform="translate(-577.74 -578.13) rotate(90)" xlink:href="#未命名的渐变_105"/><linearGradient id="未命名的渐变_74-2" x1="5.17" y1="140.27" x2="57.31" y2="140.27" xlink:href="#未命名的渐变_74"/><linearGradient id="未命名的渐变_105-3" x1="75.08" y1="39.14" x2="124.48" y2="39.14" gradientTransform="matrix(1, 0, 0, 1, 0, 0)" xlink:href="#未命名的渐变_105"/><linearGradient id="未命名的渐变_105-4" x1="-154.42" y1="-326.53" x2="-138.41" y2="-342.54" gradientTransform="matrix(-1, 0, 0, 1, -50.51, 452.95)" xlink:href="#未命名的渐变_105"/><linearGradient id="未命名的渐变_105-5" x1="11.95" y1="138.01" x2="14.38" y2="138.01" gradientTransform="matrix(1, 0, 0, 1, 0, 0)" xlink:href="#未命名的渐变_105"/><linearGradient id="未命名的渐变_105-6" x1="37.67" y1="39.63" x2="52.48" y2="39.63" gradientTransform="matrix(1, 0, 0, 1, 0, 0)" xlink:href="#未命名的渐变_105"/><linearGradient id="未命名的渐变_74-3" x1="34.78" y1="31.79" x2="55.32" y2="31.79" xlink:href="#未命名的渐变_74"/><linearGradient id="未命名的渐变_67" x1="34.78" y1="35" x2="55.32" y2="35" gradientUnits="userSpaceOnUse"><stop offset="0" stop-color="#6b6b6b"/><stop offset="0.11" stop-color="#767676"/><stop offset="0.3" stop-color="#959595"/><stop offset="0.41" stop-color="#aaa"/><stop offset="0.56" stop-color="#ccc"/><stop offset="0.71" stop-color="#eaeaea"/><stop offset="0.8" stop-color="#f6f6f6"/><stop offset="0.83" stop-color="#ededed"/><stop offset="0.87" stop-color="#d4d4d4"/><stop offset="0.92" stop-color="#ababab"/><stop offset="0.98" stop-color="#737373"/><stop offset="0.99" stop-color="#666"/></linearGradient><linearGradient id="未命名的渐变_105-7" x1="74.91" y1="72.16" x2="124.48" y2="72.16" gradientTransform="matrix(1, 0, 0, 1, 0, 0)" xlink:href="#未命名的渐变_105"/><linearGradient id="未命名的渐变_105-8" x1="74.91" y1="6.35" x2="124.48" y2="6.35" gradientTransform="matrix(1, 0, 0, 1, 0, 0)" xlink:href="#未命名的渐变_105"/><linearGradient id="未命名的渐变_105-9" x1="69.09" y1="65.36" x2="69.09" y2="49.38" gradientTransform="matrix(1, 0, 0, 1, 0, 0)" xlink:href="#未命名的渐变_105"/><linearGradient id="未命名的渐变_105-10" x1="624.15" y1="-638.03" x2="645.93" y2="-638.03" gradientTransform="translate(-574.75 694.94)" xlink:href="#未命名的渐变_105"/><linearGradient id="未命名的渐变_105-11" x1="690.62" y1="-638.03" x2="712.4" y2="-638.03" gradientTransform="translate(-641.22 761.41)" xlink:href="#未命名的渐变_105"/><linearGradient id="未命名的渐变_105-12" x1="673.42" y1="-670.21" x2="673.42" y2="-685.11" gradientTransform="translate(-573.5 772.95)" xlink:href="#未命名的渐变_105"/><linearGradient id="未命名的渐变_74-4" x1="655.21" y1="-677.57" x2="667.15" y2="-677.57" gradientTransform="translate(-561.35 760.62)" xlink:href="#未命名的渐变_74"/><linearGradient id="未命名的渐变_105-13" x1="73.42" y1="131.37" x2="73.42" y2="115.39" gradientTransform="matrix(1, 0, 0, 1, 0, 0)" xlink:href="#未命名的渐变_105"/><linearGradient id="未命名的渐变_105-14" x1="0" y1="147.81" x2="146.19" y2="147.81" gradientTransform="matrix(1, 0, 0, 1, 0, 0)" xlink:href="#未命名的渐变_105"/><linearGradient id="未命名的渐变_105-15" x1="689.96" y1="-623.38" x2="692.39" y2="-623.38" gradientTransform="translate(-637.56 765.54)" xlink:href="#未命名的渐变_105"/></defs><title>Wastewater evaporator（废水蒸发器）</title><g id="图层_2" data-name="图层 2"><g id="图层_125" data-name="图层 125"><g id="Wastewater_evaporator_废水蒸发器_" data-name="Wastewater evaporator（废水蒸发器）"><rect class="cls-1" x="3.64" y="41.61" width="55.25" height="93.45"/><rect class="cls-2" x="16.18" y="85.5" width="5.51" height="4.06"/><rect class="cls-3" x="11.78" y="104.18" width="39.02" height="9.14"/><rect class="cls-2" x="28.68" y="85.5" width="5.51" height="4.06"/><rect class="cls-2" x="41.17" y="85.5" width="5.51" height="4.06"/><rect class="cls-2" x="19.02" y="55.72" width="24.83" height="18.45"/><rect class="cls-4" x="39.53" y="13.84" width="38.04" height="7.78" transform="translate(119.61 14.01) rotate(159.66)"/><polygon class="cls-5" points="39.36 42.68 39.36 20.9 50.74 24.77 50.74 42.68 39.36 42.68"/><rect class="cls-6" x="5.17" y="135.06" width="52.14" height="10.43"/><path class="cls-7" d="M124.48,74.51s-4.4,3.76-24.7,3.76c-20.88,0-24.7-3.76-24.7-3.76V6.66S76.4,0,99.37,0s25.11,6.66,25.11,6.66Z"/><path class="cls-8" d="M90,113c1.55-1.51,2.11-6.81,2.11-6.81h15.26s2.06,15.29-2.65,19.4c-6.21,5.43-19.56,5.79-19.56,5.79V115.2S88.88,114.08,90,113Z"/><rect class="cls-9" x="11.95" y="135.06" width="2.43" height="5.89"/><rect class="cls-10" x="37.67" y="37.65" width="14.81" height="3.96"/><rect class="cls-11" x="34.78" y="25.93" width="20.54" height="11.71"/><rect class="cls-12" x="34.78" y="33.58" width="20.54" height="2.83"/><rect class="cls-13" x="74.91" y="70.75" width="49.56" height="2.83"/><rect class="cls-14" x="74.91" y="4.93" width="49.56" height="2.83"/><rect class="cls-15" x="61.69" y="49.38" width="14.81" height="15.98"/><rect class="cls-16" x="49.4" y="55.51" width="21.78" height="2.8" transform="translate(117.2 -3.38) rotate(90)"/><rect class="cls-17" x="49.4" y="121.98" width="21.78" height="2.8" transform="translate(183.67 63.09) rotate(90)"/><rect class="cls-18" x="89.03" y="87.84" width="21.78" height="14.9" transform="translate(195.21 -4.63) rotate(90)"/><rect class="cls-19" x="93.86" y="74.06" width="11.94" height="17.97" transform="translate(182.88 -16.78) rotate(90)"/><rect class="cls-20" x="61.69" y="115.39" width="23.47" height="15.98"/><rect class="cls-2" x="95.27" y="38.23" width="9.03" height="107.25"/><rect class="cls-2" x="80.88" y="137.52" width="21.78" height="2.8" transform="translate(254.9 172.26) rotate(135)"/><rect class="cls-2" x="98.22" y="138.88" width="21.78" height="2.8" transform="translate(131.15 -36.07) rotate(45)"/><rect class="cls-21" y="145.49" width="146.19" height="4.65"/><rect class="cls-22" x="52.4" y="100.51" width="2.43" height="83.32" transform="translate(195.78 88.55) rotate(90)"/></g></g></g></svg>