<svg xmlns="http://www.w3.org/2000/svg" xmlns:xlink="http://www.w3.org/1999/xlink" viewBox="0 0 94.94 150"><defs><style>.cls-1{fill:url(#未命名的渐变_98);}.cls-2{fill:url(#未命名的渐变_99);}.cls-3{fill:url(#未命名的渐变_3);}.cls-4{fill:url(#未命名的渐变_102);}.cls-5{fill:url(#未命名的渐变_102-2);}.cls-6,.cls-8{fill:#fff;}.cls-12,.cls-13,.cls-6{opacity:0.3;}.cls-7{fill:url(#未命名的渐变_3-2);}.cls-14,.cls-29,.cls-8{opacity:0.2;}.cls-9{fill:#a0a7b2;stroke:#858c96;}.cls-12,.cls-23,.cls-27,.cls-9{stroke-miterlimit:10;}.cls-10{fill:url(#未命名的渐变_3-3);}.cls-11{fill:url(#未命名的渐变_99-2);}.cls-12{fill:none;stroke:#000;}.cls-15{fill:url(#未命名的渐变_26);}.cls-16{fill:url(#未命名的渐变_26-2);}.cls-17{fill:url(#未命名的渐变_26-3);}.cls-18{fill:url(#未命名的渐变_26-4);}.cls-19{fill:url(#未命名的渐变_26-5);}.cls-20{fill:url(#未命名的渐变_26-6);}.cls-21{fill:url(#未命名的渐变_109);}.cls-22{fill:url(#未命名的渐变_11);}.cls-23{fill:#5d646c;stroke:#b4bcc5;stroke-width:0.5px;}.cls-24{fill:#cfd5db;}.cls-25{fill:#a63c27;}.cls-26{fill:#a8afb5;}.cls-27{fill:#b4bcc5;stroke:#747c82;stroke-width:0.75px;}.cls-28{fill:url(#未命名的渐变_26-7);}</style><linearGradient id="未命名的渐变_98" x1="2654.82" y1="21.47" x2="2669.32" y2="21.47" gradientTransform="translate(-12460.61 -18.5) scale(4.7 1)" gradientUnits="userSpaceOnUse"><stop offset="0" stop-color="#767b82"/><stop offset="0.01" stop-color="#a5aaaf"/><stop offset="0.03" stop-color="#d7dce0"/><stop offset="0.06" stop-color="#9ba1ab"/><stop offset="0.96" stop-color="#a9b1bb"/><stop offset="0.97" stop-color="#9da4ae"/><stop offset="1" stop-color="#7d838a"/><stop offset="1" stop-color="#767b82"/></linearGradient><linearGradient id="未命名的渐变_99" x1="2668.47" y1="11.69" x2="2655.68" y2="11.69" gradientTransform="matrix(4.7, 0, 0, 1, -12460.61, 1.02)" gradientUnits="userSpaceOnUse"><stop offset="0" stop-color="#767b82"/><stop offset="0" stop-color="#7d838a"/><stop offset="0.03" stop-color="#9da4ae"/><stop offset="0.04" stop-color="#a9b1bb"/><stop offset="0.94" stop-color="#9ba1ab"/><stop offset="0.97" stop-color="#d7dce0"/><stop offset="0.99" stop-color="#a5aaaf"/><stop offset="1" stop-color="#767b82"/></linearGradient><linearGradient id="未命名的渐变_3" x1="2653.56" y1="-122.61" x2="2670.58" y2="-122.61" gradientTransform="translate(-12460.61 269.66) scale(4.7 1)" gradientUnits="userSpaceOnUse"><stop offset="0" stop-color="#767b82"/><stop offset="0.04" stop-color="#a5aaaf"/><stop offset="0.08" stop-color="#d7dce0"/><stop offset="0.16" stop-color="#9ba1ab"/><stop offset="0.92" stop-color="#a9b1bb"/><stop offset="0.95" stop-color="#9da4ae"/><stop offset="0.99" stop-color="#7d838a"/><stop offset="1" stop-color="#767b82"/></linearGradient><linearGradient id="未命名的渐变_102" x1="2654.82" y1="-93.53" x2="2669.32" y2="-93.53" gradientTransform="matrix(4.7, 0, 0, 4.67, -12460.61, 518.21)" xlink:href="#未命名的渐变_98"/><linearGradient id="未命名的渐变_102-2" x1="2655.66" y1="-135.84" x2="2668.48" y2="-135.84" gradientTransform="matrix(4.7, 0, 0, 3.31, -12460.61, 573.9)" xlink:href="#未命名的渐变_98"/><linearGradient id="未命名的渐变_3-2" x1="2656.08" y1="-125.4" x2="2668.06" y2="-125.4" gradientTransform="matrix(4.7, 0, 0, 3.31, -12460.61, 504.76)" xlink:href="#未命名的渐变_3"/><linearGradient id="未命名的渐变_3-3" x1="2656.92" y1="-113.05" x2="2667.22" y2="-113.05" gradientTransform="matrix(4.7, 0, 0, 3.31, -12460.61, 422.9)" xlink:href="#未命名的渐变_3"/><linearGradient id="未命名的渐变_99-2" x1="15.79" y1="48.35" x2="64.14" y2="48.35" gradientTransform="translate(79.93 96.71) rotate(-180)" xlink:href="#未命名的渐变_99"/><linearGradient id="未命名的渐变_26" x1="2140.43" y1="-1722.43" x2="2128.74" y2="-1722.43" gradientTransform="translate(-2057.8 1763.73)" gradientUnits="userSpaceOnUse"><stop offset="0" stop-color="#767b82"/><stop offset="0.07" stop-color="#9ba1ab"/><stop offset="0.22" stop-color="#e2eaf2"/><stop offset="0.94" stop-color="#767b82"/><stop offset="1" stop-color="#a9b1bb"/></linearGradient><linearGradient id="未命名的渐变_26-2" x1="2141.64" y1="-1721.02" x2="2127.54" y2="-1721.02" gradientTransform="translate(-2056.39 1762.32)" xlink:href="#未命名的渐变_26"/><linearGradient id="未命名的渐变_26-3" x1="2055.15" y1="-1717.83" x2="2048.23" y2="-1717.83" gradientTransform="translate(-1970.32 1842.03)" xlink:href="#未命名的渐变_26"/><linearGradient id="未命名的渐变_26-4" x1="135.83" y1="181.8" x2="132.21" y2="181.8" gradientTransform="matrix(1, 0, 0, 2.44, -42.77, -357.44)" xlink:href="#未命名的渐变_26"/><linearGradient id="未命名的渐变_26-5" x1="2055.86" y1="-1721.02" x2="2047.52" y2="-1721.02" gradientTransform="translate(-1973.5 1845.21)" xlink:href="#未命名的渐变_26"/><linearGradient id="未命名的渐变_26-6" x1="2055.86" y1="-1708.31" x2="2047.52" y2="-1708.31" gradientTransform="translate(-1960.79 1832.5)" xlink:href="#未命名的渐变_26"/><linearGradient id="未命名的渐变_109" x1="4123.09" y1="-247.22" x2="4134.44" y2="-247.22" gradientTransform="matrix(1, 0, 0, -1, -4049.57, -157.42)" gradientUnits="userSpaceOnUse"><stop offset="0.02" stop-color="#767b82"/><stop offset="0.14" stop-color="#d7dce0"/><stop offset="0.26" stop-color="#9ba1ab"/><stop offset="0.91" stop-color="#a9b1bb"/><stop offset="1" stop-color="#767b82"/></linearGradient><linearGradient id="未命名的渐变_11" x1="-553" y1="-1069.81" x2="-545.99" y2="-1069.81" gradientTransform="translate(640.94 1113.61)" gradientUnits="userSpaceOnUse"><stop offset="0.02" stop-color="#252628"/><stop offset="0.21" stop-color="#b4bbc1"/><stop offset="0.41" stop-color="#4c4e51"/><stop offset="1" stop-color="#252628"/></linearGradient><linearGradient id="未命名的渐变_26-7" x1="37.59" y1="37.99" x2="41.55" y2="37.99" gradientTransform="matrix(1, 0, 0, 1, 0, 0)" xlink:href="#未命名的渐变_26"/></defs><title>Boiler 4(锅炉4)</title><g id="图层_2" data-name="图层 2"><g id="图层_21" data-name="图层 21"><g id="Boiler_4_锅炉4_" data-name="Boiler 4(锅炉4)"><rect class="cls-1" x="5.92" width="68.09" height="5.92" transform="translate(79.94 5.92) rotate(180)"/><rect class="cls-2" x="9.93" y="5.74" width="60.08" height="14" transform="translate(79.93 25.47) rotate(180)"/><rect class="cls-3" y="144.08" width="79.93" height="5.92" transform="translate(79.94 294.08) rotate(180)"/><rect class="cls-4" x="5.92" y="19.55" width="68.09" height="124.53" transform="translate(79.93 163.62) rotate(180)"/><rect class="cls-5" x="9.87" y="106.58" width="60.2" height="34.54" transform="translate(79.94 247.69) rotate(180)"/><rect class="cls-6" x="9.87" y="106.58" width="60.2" height="34.54" transform="translate(79.94 247.69) rotate(180)"/><rect class="cls-7" x="11.84" y="79.86" width="56.25" height="18.82" transform="translate(79.94 178.55) rotate(180)"/><rect class="cls-8" x="11.84" y="79.86" width="56.25" height="18.82" transform="translate(79.94 178.55) rotate(180)"/><rect class="cls-9" x="15.79" y="82.82" width="48.35" height="12.9" transform="matrix(-1, 0, 0, -1, 79.94, 178.55)"/><rect class="cls-10" x="15.79" y="26.64" width="48.36" height="43.42" transform="translate(79.93 96.71) rotate(180)"/><rect class="cls-11" x="15.79" y="26.64" width="48.36" height="43.42" transform="translate(79.93 96.71) rotate(180)"/><rect class="cls-6" x="15.79" y="26.64" width="48.36" height="43.42" transform="translate(79.93 96.71) rotate(180)"/><rect class="cls-12" x="20.72" y="53.29" width="2.47" height="12.82" transform="translate(43.91 119.4) rotate(180)"/><rect class="cls-12" x="26.8" y="53.29" width="2.47" height="12.82" transform="translate(56.08 119.4) rotate(180)"/><rect class="cls-12" x="32.89" y="53.29" width="2.47" height="12.82" transform="translate(68.25 119.4) rotate(180)"/><rect class="cls-12" x="38.98" y="53.29" width="2.47" height="12.82" transform="translate(80.42 119.4) rotate(180)"/><rect class="cls-12" x="45.06" y="53.29" width="2.47" height="12.82" transform="translate(92.6 119.4) rotate(180)"/><rect class="cls-12" x="51.15" y="53.29" width="2.47" height="12.82" transform="translate(104.77 119.4) rotate(180)"/><rect class="cls-12" x="57.23" y="53.29" width="2.47" height="12.82" transform="translate(116.94 119.4) rotate(180)"/><rect class="cls-13" x="9.93" y="5.76" width="60.07" height="1.02" transform="translate(79.94 12.54) rotate(180)"/><rect class="cls-13" x="9.93" y="18.59" width="60.07" height="1.02" transform="translate(79.94 38.2) rotate(180)"/><rect class="cls-14" x="5.92" y="101.65" width="68.09" height="2.83" transform="translate(79.94 206.12) rotate(180)"/><rect class="cls-15" x="70.94" y="38.46" width="11.69" height="5.7" transform="translate(35.48 118.09) rotate(-90)"/><rect class="cls-16" x="71.15" y="39.87" width="14.1" height="2.88" transform="translate(36.89 119.5) rotate(-90)"/><rect class="cls-17" x="77.92" y="116.76" width="6.92" height="14.88" transform="translate(-42.83 205.58) rotate(-90)"/><rect class="cls-18" x="89.44" y="50.67" width="3.62" height="69.45"/><rect class="cls-19" x="74.02" y="122.76" width="8.34" height="2.88" transform="translate(-46.01 202.4) rotate(-90)"/><rect class="cls-20" x="86.73" y="120.91" width="8.34" height="6.58" transform="translate(-33.3 215.11) rotate(-90)"/><rect class="cls-21" x="73.53" y="71.04" width="11.34" height="37.51" transform="translate(158.39 179.59) rotate(-180)"/><rect class="cls-22" x="87.94" y="34.65" width="7.01" height="18.31" transform="translate(182.88 87.61) rotate(180)"/><circle class="cls-23" cx="25.76" cy="37.99" r="6.81"/><circle class="cls-24" cx="25.76" cy="37.99" r="5.54"/><polygon class="cls-25" points="28.98 34.84 22.68 40.11 23.71 41.14 28.98 34.84"/><circle class="cls-26" cx="25.76" cy="37.99" r="0.89"/><circle class="cls-27" cx="39.57" cy="37.99" r="3.46"/><circle class="cls-28" cx="39.57" cy="37.99" r="1.98"/><circle class="cls-23" cx="53.39" cy="37.99" r="6.81"/><circle class="cls-24" cx="53.39" cy="37.99" r="5.54"/><polygon class="cls-25" points="56.54 41.21 51.27 34.91 50.24 35.94 56.54 41.21"/><circle class="cls-26" cx="53.39" cy="37.99" r="0.89"/></g></g></g></svg>