<svg xmlns="http://www.w3.org/2000/svg" xmlns:xlink="http://www.w3.org/1999/xlink" viewBox="0 0 150 150"><defs><style>.cls-1,.cls-2{fill:none;}.cls-2{stroke:#fff;stroke-miterlimit:10;stroke-width:0.1px;}.cls-3{opacity:0;}.cls-4{fill:#000714;}.cls-5{opacity:0.1;fill:url(#新建图案);}.cls-6{isolation:isolate;}.cls-7{fill:#7696cb;}.cls-8{fill:url(#未命名的渐变_10);}.cls-9{fill:#4e5f79;}.cls-10{fill:url(#未命名的渐变_10-2);}.cls-11{fill:url(#未命名的渐变_29);}.cls-12{fill:url(#未命名的渐变_13);}.cls-13{fill:url(#未命名的渐变_10-3);}.cls-14{fill:url(#未命名的渐变_178);}.cls-15{fill:url(#未命名的渐变_11);}.cls-16{fill:url(#未命名的渐变_70);}.cls-17{fill:url(#未命名的渐变_10-4);}.cls-18{fill:url(#未命名的渐变_17280);}.cls-19{fill:url(#未命名的渐变_4);}.cls-20{fill:url(#未命名的渐变_96);}.cls-21{opacity:0.2;mix-blend-mode:overlay;}.cls-22{fill:#ebf2ff;}.cls-23{fill:url(#未命名的渐变_10-5);}.cls-24{fill:url(#未命名的渐变_178-2);}.cls-25{fill:url(#未命名的渐变_11-2);}.cls-26{fill:url(#未命名的渐变_70-2);}.cls-27{fill:url(#未命名的渐变_10-6);}.cls-28{fill:url(#未命名的渐变_17280-2);}.cls-29{fill:url(#未命名的渐变_4-2);}.cls-30{fill:url(#未命名的渐变_96-2);}.cls-31{fill:url(#未命名的渐变_10-7);}.cls-32{fill:url(#未命名的渐变_10-8);}.cls-33{fill:url(#未命名的渐变_10-9);}.cls-34{fill:#85a9e5;}.cls-35{fill:#7c9fd6;}.cls-36{fill:url(#未命名的渐变_10-10);}.cls-37{fill:url(#未命名的渐变_18);}.cls-38{fill:#2d3746;}.cls-39{fill:#171d23;}.cls-40{fill:url(#未命名的渐变_18-2);}.cls-41{opacity:0.2;}</style><pattern id="新建图案" data-name="新建图案" width="18.57" height="32.16" patternTransform="translate(2661.55 1058.25)" patternUnits="userSpaceOnUse" viewBox="0 0 18.57 32.16"><rect class="cls-1" width="18.57" height="32.16"/><polyline class="cls-2" points="18.57 21.44 18.57 32.16 18.57 42.88"/><polyline class="cls-2" points="9.29 26.8 18.57 32.16 27.85 37.51 27.85 37.52"/><polyline class="cls-2" points="9.29 37.52 9.29 37.51 18.57 32.16 27.85 26.8"/><polygon class="cls-2" points="27.85 37.52 27.85 26.8 18.57 21.44 9.28 26.8 9.28 37.52 18.57 42.88 27.85 37.52"/><polyline class="cls-2" points="0 21.44 0 32.16 0 42.88"/><polyline class="cls-2" points="-9.28 26.8 0 32.16 9.28 37.51 9.28 37.52"/><polyline class="cls-2" points="-9.28 37.52 -9.28 37.51 0 32.16 9.28 26.8"/><polygon class="cls-2" points="9.28 37.52 9.28 26.8 0 21.44 -9.29 26.8 -9.29 37.52 0 42.88 9.28 37.52"/><polyline class="cls-2" points="18.57 10.72 27.85 16.08 37.13 21.43 37.13 21.44"/><polyline class="cls-2" points="18.57 21.44 18.57 21.43 27.85 16.08 37.13 10.72"/><polygon class="cls-2" points="37.14 21.44 37.14 10.72 27.85 5.36 18.57 10.72 18.57 21.44 27.85 26.8 37.14 21.44"/><polyline class="cls-2" points="9.29 5.36 9.29 16.08 9.29 26.8"/><polyline class="cls-2" points="0.01 10.72 9.29 16.08 18.57 21.43 18.57 21.44"/><polyline class="cls-2" points="0.01 21.44 0.01 21.43 9.29 16.08 18.57 10.72"/><polygon class="cls-2" points="18.57 21.44 18.57 10.72 9.28 5.36 0 10.72 0 21.44 9.28 26.8 18.57 21.44"/><polyline class="cls-2" points="-18.56 10.72 -9.28 16.08 0 21.43 0 21.44"/><polyline class="cls-2" points="-18.56 21.44 -18.56 21.43 -9.28 16.08 0 10.72"/><polygon class="cls-2" points="0 21.44 0 10.72 -9.29 5.36 -18.57 10.72 -18.57 21.44 -9.29 26.8 0 21.44"/><polyline class="cls-2" points="18.57 -10.72 18.57 0 18.57 10.72"/><polyline class="cls-2" points="9.29 -5.36 18.57 0 27.85 5.35 27.85 5.36"/><polyline class="cls-2" points="9.29 5.36 9.29 5.35 18.57 0 27.85 -5.36"/><polygon class="cls-2" points="27.85 5.36 27.85 -5.36 18.57 -10.72 9.28 -5.36 9.28 5.36 18.57 10.72 27.85 5.36"/><polyline class="cls-2" points="0 -10.72 0 0 0 10.72"/><polyline class="cls-2" points="-9.28 -5.36 0 0 9.28 5.35 9.28 5.36"/><polyline class="cls-2" points="-9.28 5.36 -9.28 5.35 0 0 9.28 -5.36"/><polygon class="cls-2" points="9.28 5.36 9.28 -5.36 0 -10.72 -9.29 -5.36 -9.29 5.36 0 10.72 9.28 5.36"/></pattern><linearGradient id="未命名的渐变_10" x1="81.39" y1="113.38" x2="128.97" y2="65.81" gradientUnits="userSpaceOnUse"><stop offset="0" stop-color="#283140"/><stop offset="1" stop-color="#12161a"/></linearGradient><linearGradient id="未命名的渐变_10-2" x1="55.22" y1="81.33" x2="121.92" y2="14.64" xlink:href="#未命名的渐变_10"/><linearGradient id="未命名的渐变_29" x1="116.34" y1="62.39" x2="137.87" y2="25.1" gradientUnits="userSpaceOnUse"><stop offset="0" stop-color="#89abe6"/><stop offset="1" stop-color="#547099"/></linearGradient><linearGradient id="未命名的渐变_13" x1="56.65" y1="76.33" x2="129.35" y2="76.33" xlink:href="#未命名的渐变_29"/><linearGradient id="未命名的渐变_10-3" x1="80.35" y1="95.93" x2="147.04" y2="29.24" xlink:href="#未命名的渐变_10"/><linearGradient id="未命名的渐变_178" x1="63.77" y1="126.44" x2="72.61" y2="111.13" gradientUnits="userSpaceOnUse"><stop offset="0" stop-color="#38455a"/><stop offset="0.15" stop-color="#89abe6"/><stop offset="0.25" stop-color="#89abe6"/><stop offset="0.9" stop-color="#12161a"/><stop offset="1" stop-color="#283140"/></linearGradient><linearGradient id="未命名的渐变_11" x1="64.07" y1="125.26" x2="71.74" y2="111.97" gradientUnits="userSpaceOnUse"><stop offset="0" stop-color="#0073e6"/><stop offset="0.15" stop-color="#59c8ff"/><stop offset="0.25" stop-color="#59c8ff"/><stop offset="0.85" stop-color="#1433cc"/><stop offset="1" stop-color="#0073e6"/></linearGradient><linearGradient id="未命名的渐变_70" x1="61.74" y1="121.75" x2="67.35" y2="112.03" gradientUnits="userSpaceOnUse"><stop offset="0" stop-color="#141820"/><stop offset="0.1" stop-color="#12161a"/><stop offset="0.75" stop-color="#445573"/><stop offset="0.85" stop-color="#445573"/><stop offset="1" stop-color="#1c222d"/></linearGradient><linearGradient id="未命名的渐变_10-4" x1="66.22" y1="123.98" x2="73.95" y2="116.24" xlink:href="#未命名的渐变_10"/><linearGradient id="未命名的渐变_17280" x1="64.03" y1="126.02" x2="76.24" y2="113.81" gradientUnits="userSpaceOnUse"><stop offset="0" stop-color="#0073e6"/><stop offset="1" stop-color="#143ccc"/></linearGradient><linearGradient id="未命名的渐变_4" x1="59.37" y1="123.89" x2="68.21" y2="108.58" gradientUnits="userSpaceOnUse"><stop offset="0" stop-color="#0073e6"/><stop offset="0.15" stop-color="#1433cc"/><stop offset="0.75" stop-color="#59c8ff"/><stop offset="0.85" stop-color="#59c8ff"/><stop offset="1" stop-color="#0073e6"/></linearGradient><linearGradient id="未命名的渐变_96" x1="55.58" y1="127.55" x2="69.48" y2="103.47" gradientUnits="userSpaceOnUse"><stop offset="0" stop-color="#283140"/><stop offset="0.1" stop-color="#12161a"/><stop offset="0.75" stop-color="#6b85b3"/><stop offset="0.85" stop-color="#6a85b3"/><stop offset="1" stop-color="#38455a"/></linearGradient><linearGradient id="未命名的渐变_10-5" x1="60.53" y1="129.53" x2="79.74" y2="110.31" xlink:href="#未命名的渐变_10"/><linearGradient id="未命名的渐变_178-2" x1="115.64" y1="93.51" x2="123.13" y2="80.54" xlink:href="#未命名的渐变_178"/><linearGradient id="未命名的渐变_11-2" x1="115.89" y1="92.51" x2="122.39" y2="81.25" xlink:href="#未命名的渐变_11"/><linearGradient id="未命名的渐变_70-2" x1="113.92" y1="89.54" x2="118.67" y2="81.3" xlink:href="#未命名的渐变_70"/><linearGradient id="未命名的渐变_10-6" x1="117.72" y1="91.43" x2="124.27" y2="84.87" xlink:href="#未命名的渐变_10"/><linearGradient id="未命名的渐变_17280-2" x1="115.86" y1="93.16" x2="126.21" y2="82.81" xlink:href="#未命名的渐变_17280"/><linearGradient id="未命名的渐变_4-2" x1="111.91" y1="91.35" x2="119.4" y2="78.38" xlink:href="#未命名的渐变_4"/><linearGradient id="未命名的渐变_96-2" x1="108.69" y1="94.46" x2="120.48" y2="74.05" xlink:href="#未命名的渐变_96"/><linearGradient id="未命名的渐变_10-7" x1="112.89" y1="96.13" x2="129.17" y2="79.84" xlink:href="#未命名的渐变_10"/><linearGradient id="未命名的渐变_10-8" x1="37.49" y1="134.71" x2="55.28" y2="116.91" xlink:href="#未命名的渐变_10"/><linearGradient id="未命名的渐变_10-9" x1="40.11" y1="126.04" x2="80.88" y2="85.26" xlink:href="#未命名的渐变_10"/><linearGradient id="未命名的渐变_10-10" x1="59.16" y1="93.77" x2="81.05" y2="71.88" xlink:href="#未命名的渐变_10"/><linearGradient id="未命名的渐变_18" x1="43.47" y1="85.58" x2="53.1" y2="68.9" gradientUnits="userSpaceOnUse"><stop offset="0" stop-color="#198cff" stop-opacity="0"/><stop offset="0.13" stop-color="#1e96ff" stop-opacity="0.05"/><stop offset="0.38" stop-color="#2ab0ff" stop-opacity="0.2"/><stop offset="0.72" stop-color="#3ddafe" stop-opacity="0.42"/><stop offset="0.96" stop-color="#4cfafe" stop-opacity="0.6"/><stop offset="1" stop-color="#4cfafe"/></linearGradient><linearGradient id="未命名的渐变_18-2" x1="74.97" y1="92.33" x2="66.66" y2="77.94" xlink:href="#未命名的渐变_18"/></defs><title>铰接式自卸车</title><g id="图层_2" data-name="图层 2"><g id="图元"><g id="铰接式自卸车"><g class="cls-3"><rect class="cls-4" width="150" height="150"/><rect id="网格" class="cls-5" width="150" height="150"/></g><g class="cls-6"><polygon class="cls-7" points="105.28 53.83 49.72 86.12 77.41 102.11 132.97 69.81 105.28 53.83"/><polygon class="cls-8" points="77.41 102.11 77.39 109.37 132.95 77.08 132.97 69.81 77.41 102.11"/><polygon class="cls-9" points="49.72 86.12 49.7 93.39 77.39 109.37 77.41 102.11 49.72 86.12"/></g><polygon class="cls-10" points="124.87 17.59 104.22 55.29 56.65 82.76 56.58 57.02 124.87 17.59"/><polygon class="cls-11" points="150 32.2 129.35 69.89 104.22 55.29 124.87 17.59 150 32.2"/><polygon class="cls-12" points="129.35 69.89 81.78 97.36 56.65 82.76 104.22 55.29 129.35 69.89"/><polygon class="cls-9" points="81.78 97.36 56.65 82.76 56.58 57.02 81.7 71.63 81.78 97.36"/><path class="cls-7" d="M124.87,17.59,56.57,57,81.7,71.63,150,32.2ZM58.35,57l66.52-38.41,23.35,13.57L81.71,70.6Z"/><polygon class="cls-13" points="150 32.2 129.35 69.89 81.78 97.36 81.7 71.63 150 32.2"/><g class="cls-6"><path class="cls-14" d="M74.57,112.29l-8.28-4.81c1.12.65,1.82,2,1.82,4a10.21,10.21,0,0,1-.27,2.29c-.06.27-.13.52-.21.78a14,14,0,0,1-1.34,3.07,12.82,12.82,0,0,1-4.42,4.66c-1.73,1-3.3,1.1-4.43.45h0l8.29,4.81h0c1.14.65,2.7.56,4.43-.44a12.69,12.69,0,0,0,4.42-4.67,13.57,13.57,0,0,0,1.34-3.07q.12-.37.21-.78a10.24,10.24,0,0,0,.28-2.29C76.39,114.34,75.69,113,74.57,112.29Z"/><g class="cls-6"><path class="cls-15" d="M74,113.3l-8.29-4.82A3.81,3.81,0,0,1,67.29,112a11.92,11.92,0,0,1-5.42,9.38,3.85,3.85,0,0,1-3.87.38l8.28,4.81a3.87,3.87,0,0,0,3.88-.38,11.92,11.92,0,0,0,5.41-9.38A3.79,3.79,0,0,0,74,113.3Z"/><path class="cls-16" d="M64.6,110.45a2.78,2.78,0,0,0-2.82.27,8.71,8.71,0,0,0-4,6.85A2.76,2.76,0,0,0,59,120.11l8.3,4.83a2.78,2.78,0,0,1-1.16-2.54,8.73,8.73,0,0,1,3.95-6.84,2.8,2.8,0,0,1,2.83-.28Z"/><path class="cls-17" d="M70.07,115.56a8.73,8.73,0,0,0-3.95,6.84c0,2.52,1.79,3.53,4,2.27a8.75,8.75,0,0,0,4-6.85C74.05,115.3,72.27,114.29,70.07,115.56Z"/><path class="cls-18" d="M70.12,112.72a13.75,13.75,0,0,0-6.25,10.81,6.47,6.47,0,0,0,.3,2,2.89,2.89,0,0,0,.21.54,3.09,3.09,0,0,0,1.35,1.51c1.13.66,2.69.57,4.43-.43a12.72,12.72,0,0,0,4.42-4.68,13.71,13.71,0,0,0,1.33-3.06,6.9,6.9,0,0,0,.21-.78,10.32,10.32,0,0,0,.28-2.3C76.39,112.33,73.58,110.72,70.12,112.72Zm0,13.44c-3,1.73-5.45.35-5.46-3.1a11.93,11.93,0,0,1,5.42-9.38c3-1.74,5.44-.35,5.45,3.1A11.92,11.92,0,0,1,70.16,126.16Z"/><path class="cls-19" d="M66.29,107.47c-1.14-.66-2.71-.57-4.45.43a13.78,13.78,0,0,0-6.25,10.82,6.28,6.28,0,0,0,.29,2,4.33,4.33,0,0,0,.21.54,3.2,3.2,0,0,0,1.28,1.47l8.28,4.81A3.13,3.13,0,0,1,64.38,126a2.89,2.89,0,0,1-.21-.54,6.47,6.47,0,0,1-.3-2,13.75,13.75,0,0,1,6.25-10.81c1.74-1,3.31-1.1,4.45-.44Z"/></g><path class="cls-20" d="M68.84,103.1c-1.8-1-4.28-.9-7,.68-5.44,3.15-9.84,10.76-9.82,17,0,3.11,1.1,5.3,2.87,6.32l8.28,4.82c-1.76-1-2.86-3.21-2.87-6.32,0-6.25,4.38-13.87,9.82-17,2.74-1.58,5.23-1.73,7-.69Z"/><path class="cls-4" d="M77,108.18a4.89,4.89,0,0,0-2-.63,37.5,37.5,0,0,0-3.9-1.27,13.81,13.81,0,0,0-1.79-2.16,37.77,37.77,0,0,0-3.85-1.37c.3,0,.61,0,.9,0,1.34.43,2.33.83,3,1.1A14.92,14.92,0,0,1,71.14,106a34.78,34.78,0,0,1,3.9,1.28l.36,0C75.88,107.55,76.41,107.84,77,108.18Z"/><path class="cls-4" d="M73.87,107.55a8.31,8.31,0,0,0-2.52.67c-1-.13-1.69-.21-2.93-.3L66.84,107c-.2-.5-.59-1.39-1.12-2.41-1-.14-2-.3-3.74-.41l-.21-.13.32-.18c1.75.12,2.74.27,3.69.41.53,1,.91,1.93,1.11,2.41l1.59.93c1.23.07,1.93.15,2.93.28a8.36,8.36,0,0,1,1.82-.55Z"/><path class="cls-4" d="M62.3,131.44a4.5,4.5,0,0,1-.86-.36L60,130.25c-1-.6-2.25-1.34-3.9-2.48a4.06,4.06,0,0,1-1.12-.43l-.14-.08a5,5,0,0,1-1.5-1.37,1.67,1.67,0,0,1,.3,0,5.09,5.09,0,0,0,1.25,1l.15.08a3.57,3.57,0,0,0,1.12.44c1.65,1.15,2.87,1.88,3.9,2.49l1.42.82.35.18A4.06,4.06,0,0,0,62.3,131.44Z"/><path class="cls-4" d="M60.62,128.49a10.15,10.15,0,0,1-1.69.22,53,53,0,0,1-4.38-4,13.7,13.7,0,0,1-1.75.28,8.17,8.17,0,0,1-.7-2.49l.09,0a8.37,8.37,0,0,0,.67,2.22,10.86,10.86,0,0,0,1.75-.28,59.4,59.4,0,0,0,4.37,4,12.25,12.25,0,0,0,1.57-.19A2.68,2.68,0,0,0,60.62,128.49Z"/><path class="cls-4" d="M58,124.62l2.39-.83a2.93,2.93,0,0,0,0,.29l-2.39.85c-.56-.69-1.85-2.29-3.54-4.76-.81.28-1.64.56-2.46.86V121a14.72,14.72,0,0,1,.25-2.69,16.34,16.34,0,0,0-.19,2.38v.06l2.46-.86C56.2,122.33,57.49,123.94,58,124.62Z"/><path class="cls-4" d="M61.09,120.78a17,17,0,0,0-.44,1.66c.11-.54.24-1.09.4-1.65Z"/><path class="cls-4" d="M63.23,116a25,25,0,0,0-1.58,3.2c-.69.2-1.63.47-3.07.92-.5-.85-1.45-2.42-2.72-4.83-.67.19-1.68.46-3.12.92,0-.11.06-.21.11-.32,1.41-.45,2.41-.72,3.07-.9,1.27,2.4,2.22,4,2.72,4.84,1.43-.46,2.38-.73,3.07-.93a23.16,23.16,0,0,1,1.4-2.88Z"/><path class="cls-4" d="M66.39,111.8a21.26,21.26,0,0,0-2.23,2.75c-.83.15-1.94.35-3.59.73-.36-.74-1.1-2.28-2.13-4.59-.82.14-1.95.34-3.62.7l.2-.34c1.6-.34,2.68-.53,3.48-.67,1,2.32,1.77,3.85,2.12,4.61,1.66-.39,2.77-.59,3.58-.74a21.87,21.87,0,0,1,1.94-2.42A2.13,2.13,0,0,1,66.39,111.8Z"/><path class="cls-4" d="M70,108.88a15.84,15.84,0,0,0-2.48,1.79c-.9,0-2.14.11-4,.31-.53-1.26-.78-1.87-1.68-4.08-.86,0-2.15.08-4,.26.1-.12.21-.22.32-.33,1.69-.15,2.9-.2,3.72-.23.89,2.21,1.15,2.82,1.67,4.07,1.83-.2,3.07-.25,4-.3a17.68,17.68,0,0,1,2.2-1.64h0Z"/><g class="cls-21"><path class="cls-22" d="M59.58,129.3a7.36,7.36,0,0,0,1.49,0,5.59,5.59,0,0,0,1.29,1.82,3.5,3.5,0,0,1-.86-.36L60.08,130c-1-.6-2.25-1.34-3.91-2.48a4,4,0,0,1-1.11-.43l-.15-.09a4.81,4.81,0,0,1-1.49-1.36,7.17,7.17,0,0,0,1.54,0,55.71,55.71,0,0,0,4.62,3.76Z"/><path class="cls-22" d="M58.19,126c.73-.21,1.14-.34,2.15-.69v.16a10.7,10.7,0,0,0,.33,2.71,11.15,11.15,0,0,1-1.69.22,57.16,57.16,0,0,1-4.37-4,11.06,11.06,0,0,1-1.75.28,8.15,8.15,0,0,1-.71-2.5c.77-.23.8-.24,2.22-.74a55.09,55.09,0,0,0,3.82,4.6Z"/><path class="cls-22" d="M58.29,121.39c.63-.21,1.59-.53,2.86-.91a17.41,17.41,0,0,0-.71,3.3l-2.4.84c-.55-.68-1.84-2.29-3.53-4.75l-2.46.86v-.07a15.49,15.49,0,0,1,.35-3.19c.56-.18,1.62-.53,2.91-.91.73,1.26,1.62,2.78,3,4.83Z"/><path class="cls-22" d="M59.86,116.51c.79-.21,1.88-.49,3.43-.82a23.75,23.75,0,0,0-1.58,3.2c-.69.2-1.64.47-3.06.92-.51-.84-1.46-2.42-2.74-4.83-.66.18-1.67.46-3.11.91a21.72,21.72,0,0,1,1.28-3.29c.72-.18,1.91-.48,3.48-.8.57,1.23,1.27,2.71,2.3,4.71Z"/><path class="cls-22" d="M62.58,112c.9-.13,2.12-.31,3.86-.47a22.3,22.3,0,0,0-2.23,2.75c-.82.15-1.94.35-3.59.73-.35-.74-1.09-2.28-2.12-4.6-.82.14-2,.34-3.62.71a23.5,23.5,0,0,1,2-3c.85-.11,2.14-.29,3.88-.43.59,1.44,1.07,2.58,1.8,4.28Z"/><path class="cls-22" d="M65,105.62c.38.9.75,1.81,1.12,2.72,1,0,2,0,3.73.1l.23.13a14.94,14.94,0,0,0-2.49,1.8c-.9,0-2.14.11-4,.31-.53-1.26-.78-1.88-1.68-4.08-.86,0-2.15.08-4,.26a18.45,18.45,0,0,1,2.54-2.26c.87,0,1.62,0,2.92.1l1.58.92Z"/><path class="cls-22" d="M71.67,104.74A12.16,12.16,0,0,1,73.43,106a38.93,38.93,0,0,1,3.63,1.86,4.89,4.89,0,0,0-2-.63,39.54,39.54,0,0,0-3.9-1.28,14.8,14.8,0,0,0-1.79-2.16,40.43,40.43,0,0,0-3.86-1.36,5.67,5.67,0,0,1,2.24.17c1.2.58,1.8.9,2.93,1.54l1,.58"/><path class="cls-22" d="M69.94,106.26a39.69,39.69,0,0,1,4,1,8.21,8.21,0,0,0-2.53.67c-1-.13-1.7-.22-2.93-.3l-1.59-.92c-.2-.48-.58-1.39-1.11-2.4-1-.15-2-.3-3.73-.42l-.23-.12a10.27,10.27,0,0,1,2.49-1.07,38.36,38.36,0,0,1,4,1.06,18.38,18.38,0,0,1,1.67,2.51"/></g><path class="cls-23" d="M70.1,108.6c-5.44,3.14-9.84,10.76-9.82,17s4.44,8.77,9.88,5.63,9.85-10.75,9.83-17S75.55,105.45,70.1,108.6Zm6,10q-.09.41-.21.78a13.57,13.57,0,0,1-1.34,3.07,12.69,12.69,0,0,1-4.42,4.67c-1.73,1-3.29,1.09-4.43.44A3.21,3.21,0,0,1,64.37,126a2.54,2.54,0,0,1-.2-.53,6.57,6.57,0,0,1-.3-2,13.76,13.76,0,0,1,6.24-10.81c3.46-2,6.28-.39,6.29,3.58A10.24,10.24,0,0,1,76.12,118.6Z"/></g><g class="cls-6"><path class="cls-24" d="M124.79,81.52l-7-4.08a3.76,3.76,0,0,1,1.55,3.41,8.8,8.8,0,0,1-.24,1.94,6.36,6.36,0,0,1-.17.66,11.89,11.89,0,0,1-1.14,2.6A10.75,10.75,0,0,1,114,90a3.74,3.74,0,0,1-3.76.37h0l7,4.08h0a3.74,3.74,0,0,0,3.76-.37,10.75,10.75,0,0,0,3.74-4,11.89,11.89,0,0,0,1.14-2.6,6.36,6.36,0,0,0,.17-.66,8.8,8.8,0,0,0,.24-1.94A3.74,3.74,0,0,0,124.79,81.52Z"/><g class="cls-6"><path class="cls-25" d="M124.3,82.37l-7-4.08a3.24,3.24,0,0,1,1.34,3,10.13,10.13,0,0,1-4.59,8,3.24,3.24,0,0,1-3.28.32l7,4.08a3.27,3.27,0,0,0,3.28-.32,10.13,10.13,0,0,0,4.59-8A3.24,3.24,0,0,0,124.3,82.37Z"/><path class="cls-26" d="M116.34,80a2.35,2.35,0,0,0-2.39.23A7.36,7.36,0,0,0,110.6,86a2.36,2.36,0,0,0,1,2.16l7,4.1a2.37,2.37,0,0,1-1-2.16,7.36,7.36,0,0,1,3.35-5.8,2.38,2.38,0,0,1,2.39-.24Z"/><path class="cls-27" d="M121,84.29a7.36,7.36,0,0,0-3.35,5.8c0,2.13,1.52,3,3.37,1.92a7.36,7.36,0,0,0,3.35-5.8C124.35,84.08,122.84,83.22,121,84.29Z"/><path class="cls-28" d="M121,81.88a11.66,11.66,0,0,0-5.29,9.17,5.34,5.34,0,0,0,.24,1.67,3.66,3.66,0,0,0,.18.46,2.68,2.68,0,0,0,1.15,1.28,3.7,3.7,0,0,0,3.75-.37,10.81,10.81,0,0,0,3.75-4,11.84,11.84,0,0,0,1.13-2.59c.07-.22.12-.44.17-.66a8.38,8.38,0,0,0,.24-2C126.33,81.55,124,80.19,121,81.88Zm0,11.4c-2.54,1.46-4.62.29-4.62-2.63a10.1,10.1,0,0,1,4.59-8c2.54-1.47,4.61-.3,4.62,2.63A10.13,10.13,0,0,1,121.05,93.28Z"/><path class="cls-29" d="M117.77,77.44a3.73,3.73,0,0,0-3.77.36A11.66,11.66,0,0,0,108.71,87a5.34,5.34,0,0,0,.24,1.67,3.66,3.66,0,0,0,.18.46,2.69,2.69,0,0,0,1.08,1.24l7,4.08a2.69,2.69,0,0,1-1.08-1.24,3.66,3.66,0,0,1-.18-.46,5.34,5.34,0,0,1-.24-1.67A11.66,11.66,0,0,1,121,81.88a3.74,3.74,0,0,1,3.77-.37Z"/></g><path class="cls-30" d="M119.93,73.73c-1.52-.88-3.62-.76-6,.58-4.61,2.67-8.33,9.12-8.32,14.42,0,2.63.94,4.48,2.43,5.35l7,4.08c-1.49-.87-2.42-2.72-2.43-5.35,0-5.3,3.71-11.76,8.32-14.42,2.33-1.34,4.43-1.46,6-.58Z"/><path class="cls-4" d="M126.85,78a4.14,4.14,0,0,0-1.71-.54,33.74,33.74,0,0,0-3.31-1.07,12.07,12.07,0,0,0-1.51-1.84c-.7-.28-1.76-.7-3.27-1.15a6.74,6.74,0,0,1,.77,0c1.13.37,2,.71,2.55.94a12.06,12.06,0,0,1,1.51,1.83,30.74,30.74,0,0,1,3.31,1.08l.31,0Q126.1,77.6,126.85,78Z"/><path class="cls-4" d="M124.2,77.5a7.11,7.11,0,0,0-2.14.57c-.85-.11-1.43-.18-2.48-.25L118.23,77c-.16-.41-.49-1.17-.94-2-.82-.12-1.66-.25-3.17-.35l-.18-.11.27-.15c1.49.1,2.32.23,3.13.35.45.87.78,1.64.94,2.05l1.35.78c1.05.06,1.63.13,2.48.24a7.08,7.08,0,0,1,1.54-.47Z"/><path class="cls-4" d="M114.39,97.75a3.26,3.26,0,0,1-.73-.31l-1.2-.7c-.87-.5-1.9-1.13-3.31-2.1a3.44,3.44,0,0,1-.94-.37l-.12-.07a4.23,4.23,0,0,1-1.28-1.15h.26a4.22,4.22,0,0,0,1.06.89l.13.07a3.35,3.35,0,0,0,.94.36c1.41,1,2.44,1.6,3.31,2.12l1.2.69.3.15A3.69,3.69,0,0,0,114.39,97.75Z"/><path class="cls-4" d="M113,95.25a8.73,8.73,0,0,1-1.44.19,45.74,45.74,0,0,1-3.7-3.43,11.06,11.06,0,0,1-1.49.24,6.78,6.78,0,0,1-.59-2.11l.08,0a6.38,6.38,0,0,0,.56,1.88,8.58,8.58,0,0,0,1.49-.24,45.74,45.74,0,0,0,3.7,3.43,9.5,9.5,0,0,0,1.33-.16Z"/><path class="cls-4" d="M110.79,92l2-.7a2.17,2.17,0,0,0,0,.25l-2,.71c-.47-.58-1.57-1.94-3-4l-2.08.73v-.05a13.78,13.78,0,0,1,.2-2.28,15.51,15.51,0,0,0-.15,2v0l2.08-.73C109.22,90,110.32,91.4,110.79,92Z"/><path class="cls-4" d="M113.36,88.72c-.14.47-.26.93-.36,1.4.09-.46.2-.92.33-1.39Z"/><path class="cls-4" d="M115.18,84.65a21.42,21.42,0,0,0-1.34,2.72c-.58.17-1.38.4-2.6.78-.43-.72-1.23-2.05-2.31-4.09-.57.16-1.42.38-2.64.77,0-.09,0-.18.09-.27,1.2-.37,2-.6,2.6-.76,1.08,2,1.88,3.38,2.31,4.1,1.21-.39,2-.62,2.6-.79a20.32,20.32,0,0,1,1.19-2.44Z"/><path class="cls-4" d="M117.86,81.11a16.64,16.64,0,0,0-1.9,2.33c-.69.13-1.64.3-3,.62-.31-.63-.94-1.94-1.81-3.9-.69.12-1.65.29-3.06.6.06-.1.11-.2.17-.29,1.35-.29,2.27-.45,2.94-.57.87,2,1.5,3.27,1.8,3.91,1.4-.33,2.35-.5,3-.63a18.27,18.27,0,0,1,1.65-2.05Z"/><path class="cls-4" d="M121,78.63a13.44,13.44,0,0,0-2.1,1.52c-.76,0-1.81.09-3.35.26-.45-1.07-.67-1.58-1.43-3.46-.73,0-1.82.07-3.37.22l.26-.28c1.44-.12,2.46-.16,3.16-.19.76,1.87,1,2.39,1.42,3.45,1.55-.17,2.6-.22,3.36-.26a14.89,14.89,0,0,1,1.86-1.38h0Z"/><g class="cls-21"><path class="cls-22" d="M112.08,95.93a5.39,5.39,0,0,0,1.27,0,4.8,4.8,0,0,0,1.09,1.55,3.47,3.47,0,0,1-.73-.31l-1.2-.7c-.87-.51-1.91-1.13-3.31-2.11a3.07,3.07,0,0,1-.94-.36l-.13-.07a4.23,4.23,0,0,1-1.27-1.16,6.28,6.28,0,0,0,1.32,0,44.13,44.13,0,0,0,3.9,3.18Z"/><path class="cls-22" d="M110.9,93.15c.63-.18,1-.29,1.83-.59v.14A9,9,0,0,0,113,95a8.59,8.59,0,0,1-1.43.18,46.42,46.42,0,0,1-3.71-3.42,10.88,10.88,0,0,1-1.48.24,6.93,6.93,0,0,1-.6-2.12c.65-.2.68-.2,1.88-.63a48.68,48.68,0,0,0,3.23,3.9Z"/><path class="cls-22" d="M111,89.23c.54-.17,1.35-.44,2.43-.77a15.12,15.12,0,0,0-.61,2.8l-2,.71c-.46-.58-1.56-1.94-3-4l-2.08.73v0a13.44,13.44,0,0,1,.29-2.71c.48-.15,1.37-.45,2.47-.77.62,1.07,1.37,2.35,2.52,4.09Z"/><path class="cls-22" d="M112.32,85.09c.68-.17,1.6-.41,2.91-.69a19.06,19.06,0,0,0-1.34,2.72c-.58.17-1.39.4-2.59.78-.44-.72-1.24-2.06-2.32-4.1-.57.16-1.42.39-2.64.77a18.73,18.73,0,0,1,1.09-2.79c.6-.15,1.62-.4,2.94-.68.49,1.05,1.08,2.3,1.95,4Z"/><path class="cls-22" d="M114.63,81.25c.76-.11,1.8-.26,3.27-.4A18.83,18.83,0,0,0,116,83.18c-.69.13-1.64.3-3,.62-.3-.63-.93-1.93-1.8-3.9-.7.12-1.65.29-3.06.6A18.81,18.81,0,0,1,109.82,78c.72-.1,1.81-.25,3.29-.36.5,1.21.9,2.18,1.52,3.62Z"/><path class="cls-22" d="M116.7,75.87l1,2.3c.83,0,1.69,0,3.16.09l.19.11a13.06,13.06,0,0,0-2.11,1.52c-.76,0-1.81.09-3.36.27-.45-1.08-.66-1.59-1.42-3.46-.73,0-1.82.07-3.38.22A16,16,0,0,1,112.89,75c.74,0,1.37,0,2.47.09l1.34.78Z"/><path class="cls-22" d="M122.33,75.12a9.33,9.33,0,0,1,1.49,1.09,31.31,31.31,0,0,1,3.08,1.57,4.23,4.23,0,0,0-1.71-.53,32.33,32.33,0,0,0-3.31-1.08,12,12,0,0,0-1.51-1.84c-.7-.28-1.76-.7-3.27-1.15a4.89,4.89,0,0,1,1.89.15c1,.49,1.53.76,2.49,1.3l.85.49"/><path class="cls-22" d="M120.87,76.41a34.74,34.74,0,0,1,3.38.84,7.39,7.39,0,0,0-2.14.56c-.85-.11-1.44-.18-2.48-.24l-1.34-.78c-.18-.42-.5-1.18-1-2a31.76,31.76,0,0,0-3.16-.35l-.19-.11a9.15,9.15,0,0,1,2.1-.91,32.68,32.68,0,0,1,3.36.91,15.68,15.68,0,0,1,1.42,2.12"/></g><path class="cls-31" d="M121,78.39c-4.61,2.66-8.34,9.12-8.32,14.42s3.77,7.43,8.38,4.77,8.34-9.11,8.32-14.42S125.62,75.73,121,78.39Zm5.1,8.48a6.36,6.36,0,0,1-.17.66,11.89,11.89,0,0,1-1.14,2.6,10.75,10.75,0,0,1-3.74,4,3.74,3.74,0,0,1-3.76.37,2.66,2.66,0,0,1-1.14-1.28,2.75,2.75,0,0,1-.18-.46,5.28,5.28,0,0,1-.24-1.66A11.67,11.67,0,0,1,121,81.89c2.93-1.69,5.32-.33,5.33,3A8.8,8.8,0,0,1,126.1,86.87Z"/></g><g class="cls-6"><polygon class="cls-32" points="55.64 117.28 35.18 129.09 35.19 132.41 48.32 128.69 55.66 124.46 55.64 117.28"/><polygon class="cls-9" points="35.18 129.09 0 108.65 0.01 111.96 35.19 132.41 35.18 129.09"/><polygon class="cls-7" points="20.46 96.83 0 108.65 35.18 129.09 55.64 117.28 20.46 96.83"/></g><g class="cls-6"><polygon class="cls-7" points="50.14 67.15 30.98 78.21 61.14 95.73 80.29 84.67 50.14 67.15"/><polygon class="cls-33" points="81.57 87.17 80.29 84.67 61.14 95.73 41.41 109.1 38.91 124.84 81.6 100.18 81.57 87.17"/><polygon class="cls-34" points="25.72 99.99 19.56 117.5 8.26 107.73 11.25 91.58 25.72 99.99"/><polygon class="cls-35" points="41.41 109.11 38.91 124.84 19.56 117.5 25.72 99.99 41.41 109.11"/><polygon class="cls-7" points="30.98 78.21 11.25 91.58 24.83 101.55 41.41 109.1 61.14 95.73 30.98 78.21"/></g><g class="cls-6"><polygon class="cls-36" points="78.08 68.91 65.5 76.18 61.22 95.83 78.13 86.07 78.08 68.91"/><polygon class="cls-4" points="35.34 58.65 31.07 78.31 61.22 95.83 65.5 76.18 35.34 58.65"/><polygon class="cls-37" points="35.34 58.65 31.07 78.31 61.22 95.83 65.5 76.18 35.34 58.65"/><polygon class="cls-7" points="47.92 51.39 35.34 58.65 65.5 76.18 78.08 68.91 47.92 51.39"/></g><g class="cls-6"><polygon class="cls-38" points="75.84 102.11 70.82 99.19 74.45 105.02 79.48 107.94 75.84 102.11"/><polygon class="cls-39" points="76.6 100.21 62.87 108.14 58.92 119.14 60.05 119.16 63.64 109.16 75.84 102.11 79.48 107.94 80.6 106.62 76.6 100.21"/><polygon class="cls-34" points="57.84 105.22 53.9 116.22 58.92 119.14 62.87 108.14 57.84 105.22"/><polygon class="cls-7" points="71.58 97.29 57.84 105.22 62.87 108.14 76.6 100.21 71.58 97.29"/></g><polygon class="cls-4" points="74.59 92.55 67.05 96.91 67.05 77.72 74.59 73.37 74.59 92.55"/><polygon class="cls-40" points="74.59 92.55 67.05 96.91 67.05 77.72 74.59 73.37 74.59 92.55"/></g></g></g></svg>