<svg xmlns="http://www.w3.org/2000/svg" xmlns:xlink="http://www.w3.org/1999/xlink" viewBox="0 0 56 150"><defs><style>.cls-1{fill:#a3a4a4;}.cls-2{fill:#c4c4c4;}.cls-3{fill:#dbdbdb;}.cls-4{fill:#3d3b3b;}.cls-5{fill:url(#未命名的渐变_105);}.cls-6{fill:url(#未命名的渐变_105-2);}.cls-7{opacity:0.2;}</style><linearGradient id="未命名的渐变_105" x1="15.57" y1="31.92" x2="18.23" y2="31.92" gradientUnits="userSpaceOnUse"><stop offset="0" stop-color="#e2e2e2"/><stop offset="0.03" stop-color="#d0d0d0"/><stop offset="0.06" stop-color="#bcbcbc"/><stop offset="0.09" stop-color="#b5b5b5"/><stop offset="0.49" stop-color="#f6f6f6"/><stop offset="0.63" stop-color="#f3f3f3"/><stop offset="0.73" stop-color="#eaeaea"/><stop offset="0.82" stop-color="#dbdbdb"/><stop offset="0.9" stop-color="#c6c6c6"/><stop offset="0.97" stop-color="#aaa"/><stop offset="1" stop-color="#9b9b9b"/></linearGradient><linearGradient id="未命名的渐变_105-2" x1="38.23" y1="31.92" x2="40.89" y2="31.92" xlink:href="#未命名的渐变_105"/></defs><title>Luxury Pipeline Machines（豪华管道机械）</title><g id="图层_2" data-name="图层 2"><g id="图层_125" data-name="图层 125"><g id="Luxury_Pipeline_Machines_豪华管道机械_" data-name="Luxury Pipeline Machines（豪华管道机械）"><rect class="cls-1" x="9.85" y="30.7" width="36.99" height="28.34"/><rect class="cls-1" x="0.19" width="55.72" height="74.94"/><rect class="cls-2" x="0.28" y="5.49" width="55.72" height="11.56"/><rect class="cls-3" x="0.3" y="74.94" width="55.71" height="75.06"/><rect class="cls-4" x="22.93" y="8.7" width="10.24" height="4.23"/><rect class="cls-2" x="6.99" y="80.34" width="41.8" height="63.37"/><rect class="cls-4" x="13.06" y="22.35" width="7.13" height="1.72"/><rect class="cls-4" x="9.85" y="28.99" width="36.99" height="30.34"/><rect class="cls-2" x="9.85" y="30.7" width="36.99" height="28.11"/><rect class="cls-5" x="15.57" y="30.7" width="2.66" height="2.43"/><rect class="cls-6" x="38.23" y="30.7" width="2.66" height="2.43"/><rect class="cls-4" x="0.28" y="25.87" width="55.72" height="0.59"/><rect class="cls-4" x="-10.39" y="45.79" width="40.43" height="0.59" transform="translate(55.91 36.26) rotate(90)"/><rect class="cls-4" x="26.4" y="45.79" width="40.43" height="0.59" transform="translate(92.7 -0.53) rotate(90)"/><rect class="cls-4" x="36" y="22.01" width="7.13" height="1.72"/><rect class="cls-2" x="0.3" y="65.9" width="55.71" height="1.82"/><rect class="cls-2" x="0.3" y="72.91" width="55.71" height="1.42"/></g></g></g></svg>