<svg xmlns="http://www.w3.org/2000/svg" xmlns:xlink="http://www.w3.org/1999/xlink" viewBox="0 0 150 116.86"><defs><style>.cls-1{fill:url(#未命名的渐变_105);}.cls-2{fill:url(#未命名的渐变_105-2);}.cls-3{fill:url(#未命名的渐变_143);}.cls-4{fill:url(#未命名的渐变_105-3);}.cls-5{fill:url(#未命名的渐变_105-4);}.cls-6{fill:url(#未命名的渐变_143-2);}.cls-7{fill:url(#未命名的渐变_105-5);}.cls-8{fill:url(#未命名的渐变_105-6);}.cls-9{fill:url(#未命名的渐变_143-3);}.cls-10{fill:url(#未命名的渐变_105-7);}.cls-11{fill:url(#未命名的渐变_105-8);}.cls-12{fill:url(#未命名的渐变_143-4);}.cls-13{fill:url(#未命名的渐变_105-9);}.cls-14{fill:url(#未命名的渐变_105-10);}.cls-15{fill:url(#未命名的渐变_143-5);}.cls-16{fill:url(#未命名的渐变_143-6);}.cls-17{fill:url(#未命名的渐变_105-11);}.cls-18{opacity:0.2;}</style><linearGradient id="未命名的渐变_105" x1="2.8" y1="5.4" x2="27.4" y2="5.4" gradientUnits="userSpaceOnUse"><stop offset="0" stop-color="#e2e2e2"/><stop offset="0.03" stop-color="#d0d0d0"/><stop offset="0.06" stop-color="#bcbcbc"/><stop offset="0.09" stop-color="#b5b5b5"/><stop offset="0.49" stop-color="#f6f6f6"/><stop offset="0.63" stop-color="#f3f3f3"/><stop offset="0.73" stop-color="#eaeaea"/><stop offset="0.82" stop-color="#dbdbdb"/><stop offset="0.9" stop-color="#c6c6c6"/><stop offset="0.97" stop-color="#aaa"/><stop offset="1" stop-color="#9b9b9b"/></linearGradient><linearGradient id="未命名的渐变_105-2" x1="6.33" y1="13.65" x2="24.58" y2="13.65" xlink:href="#未命名的渐变_105"/><linearGradient id="未命名的渐变_143" x1="6.33" y1="11.92" x2="24.58" y2="11.92" gradientUnits="userSpaceOnUse"><stop offset="0" stop-color="#b7b7b7"/><stop offset="0.03" stop-color="#9b9d9d"/><stop offset="0.07" stop-color="#878b8b"/><stop offset="0.09" stop-color="#808484"/><stop offset="0.2" stop-color="#a3a6a6"/><stop offset="0.49" stop-color="#f6f6f6"/><stop offset="0.61" stop-color="#f3f3f3"/><stop offset="0.7" stop-color="#eaeaea"/><stop offset="0.77" stop-color="#dbdbdb"/><stop offset="0.83" stop-color="#c5c5c5"/><stop offset="0.9" stop-color="#aaa"/><stop offset="0.95" stop-color="#888"/><stop offset="1" stop-color="#666"/></linearGradient><linearGradient id="未命名的渐变_105-3" x1="32.78" y1="5.4" x2="57.37" y2="5.4" xlink:href="#未命名的渐变_105"/><linearGradient id="未命名的渐变_105-4" x1="36.31" y1="13.65" x2="54.55" y2="13.65" xlink:href="#未命名的渐变_105"/><linearGradient id="未命名的渐变_143-2" x1="36.31" y1="11.92" x2="54.55" y2="11.92" xlink:href="#未命名的渐变_143"/><linearGradient id="未命名的渐变_105-5" x1="62.7" y1="5.4" x2="87.3" y2="5.4" xlink:href="#未命名的渐变_105"/><linearGradient id="未命名的渐变_105-6" x1="66.23" y1="13.65" x2="84.47" y2="13.65" xlink:href="#未命名的渐变_105"/><linearGradient id="未命名的渐变_143-3" x1="66.23" y1="11.92" x2="84.47" y2="11.92" xlink:href="#未命名的渐变_143"/><linearGradient id="未命名的渐变_105-7" x1="92.58" y1="5.4" x2="117.18" y2="5.4" xlink:href="#未命名的渐变_105"/><linearGradient id="未命名的渐变_105-8" x1="96.11" y1="13.65" x2="114.36" y2="13.65" xlink:href="#未命名的渐变_105"/><linearGradient id="未命名的渐变_143-4" x1="96.11" y1="11.92" x2="114.36" y2="11.92" xlink:href="#未命名的渐变_143"/><linearGradient id="未命名的渐变_105-9" x1="122.93" y1="5.4" x2="147.53" y2="5.4" xlink:href="#未命名的渐变_105"/><linearGradient id="未命名的渐变_105-10" x1="126.46" y1="13.65" x2="144.7" y2="13.65" xlink:href="#未命名的渐变_105"/><linearGradient id="未命名的渐变_143-5" x1="126.46" y1="11.92" x2="144.7" y2="11.92" xlink:href="#未命名的渐变_143"/><linearGradient id="未命名的渐变_143-6" x1="0" y1="66.68" x2="150" y2="66.68" xlink:href="#未命名的渐变_143"/><linearGradient id="未命名的渐变_105-11" x1="0" y1="67.03" x2="150" y2="67.03" xlink:href="#未命名的渐变_105"/></defs><title>Simple evaporator（简易蒸发器）</title><g id="图层_2" data-name="图层 2"><g id="图层_125" data-name="图层 125"><g id="Simple_evaporator_简易蒸发器_" data-name="Simple evaporator（简易蒸发器）"><rect class="cls-1" x="2.8" width="24.6" height="10.8" rx="0.35"/><rect class="cls-2" x="6.33" y="10.8" width="18.25" height="5.71"/><rect class="cls-3" x="6.33" y="10.8" width="18.25" height="2.23"/><rect class="cls-4" x="32.78" width="24.6" height="10.8" rx="0.35"/><rect class="cls-5" x="36.31" y="10.8" width="18.25" height="5.71"/><rect class="cls-6" x="36.31" y="10.8" width="18.25" height="2.23"/><rect class="cls-7" x="62.7" width="24.6" height="10.8" rx="0.35"/><rect class="cls-8" x="66.23" y="10.8" width="18.25" height="5.71"/><rect class="cls-9" x="66.23" y="10.8" width="18.25" height="2.23"/><rect class="cls-10" x="92.58" width="24.6" height="10.8" rx="0.35"/><rect class="cls-11" x="96.11" y="10.8" width="18.25" height="5.71"/><rect class="cls-12" x="96.11" y="10.8" width="18.25" height="2.23"/><rect class="cls-13" x="122.93" width="24.6" height="10.8" rx="0.35"/><rect class="cls-14" x="126.46" y="10.8" width="18.25" height="5.71"/><rect class="cls-15" x="126.46" y="10.8" width="18.25" height="2.23"/><rect class="cls-16" y="16.51" width="150" height="100.35"/><rect class="cls-17" y="21.85" width="150" height="90.36"/></g></g></g></svg>