<svg xmlns="http://www.w3.org/2000/svg" xmlns:xlink="http://www.w3.org/1999/xlink" viewBox="0 0 150 123.74"><defs><style>.cls-1{fill:url(#未命名的渐变_143);}.cls-2{fill:url(#未命名的渐变_143-2);}.cls-3{fill:url(#未命名的渐变_143-3);}.cls-4{fill:url(#未命名的渐变_143-4);}.cls-5{fill:url(#未命名的渐变_143-5);}.cls-6{fill:url(#未命名的渐变_143-6);}.cls-7{fill:url(#未命名的渐变_143-7);}.cls-8{fill:url(#未命名的渐变_143-8);}.cls-9{fill:url(#未命名的渐变_143-9);}.cls-10{fill:url(#未命名的渐变_143-10);}.cls-11{fill:url(#未命名的渐变_143-11);}.cls-12{fill:url(#未命名的渐变_143-12);}.cls-13{fill:url(#未命名的渐变_143-13);}.cls-14{fill:url(#未命名的渐变_143-14);}.cls-15{fill:url(#未命名的渐变_143-15);}.cls-16{fill:url(#未命名的渐变_143-16);}.cls-17{fill:url(#未命名的渐变_143-17);}.cls-18{fill:url(#未命名的渐变_143-18);}.cls-19{fill:url(#未命名的渐变_143-19);}.cls-20{fill:url(#未命名的渐变_143-20);}.cls-21{fill:url(#未命名的渐变_143-21);}.cls-22{fill:url(#未命名的渐变_143-22);}.cls-23{fill:url(#未命名的渐变_143-23);}.cls-24{fill:url(#未命名的渐变_143-24);}.cls-25{fill:url(#未命名的渐变_143-25);}.cls-26{fill:url(#未命名的渐变_143-26);}.cls-27{fill:url(#未命名的渐变_143-27);}.cls-28{fill:url(#未命名的渐变_143-28);}.cls-29{fill:url(#未命名的渐变_143-29);}.cls-30{fill:url(#未命名的渐变_143-30);}.cls-31{fill:url(#未命名的渐变_143-31);}.cls-32{fill:url(#未命名的渐变_143-32);}.cls-33{fill:url(#未命名的渐变_143-33);}.cls-34{fill:url(#未命名的渐变_143-34);}.cls-35{fill:url(#未命名的渐变_143-35);}.cls-36{fill:url(#未命名的渐变_143-36);}.cls-37{fill:url(#未命名的渐变_143-37);}.cls-38{fill:url(#未命名的渐变_143-38);}.cls-39{fill:url(#未命名的渐变_143-39);}.cls-40{fill:url(#未命名的渐变_143-40);}.cls-41{fill:url(#未命名的渐变_143-41);}.cls-42{fill:url(#未命名的渐变_143-42);}.cls-43{fill:url(#未命名的渐变_143-43);}.cls-44{fill:url(#未命名的渐变_143-44);}.cls-45{fill:url(#未命名的渐变_143-45);}.cls-46{fill:url(#未命名的渐变_143-46);}.cls-47{fill:url(#未命名的渐变_143-47);}.cls-48{fill:url(#未命名的渐变_143-48);}.cls-49{fill:url(#未命名的渐变_143-49);}.cls-50{fill:url(#未命名的渐变_143-50);}.cls-51{fill:url(#未命名的渐变_143-51);}.cls-52{fill:url(#未命名的渐变_143-52);}.cls-53{fill:url(#未命名的渐变_143-53);}.cls-54{fill:url(#未命名的渐变_143-54);}.cls-55{fill:url(#未命名的渐变_143-55);}.cls-56{fill:url(#未命名的渐变_143-56);}.cls-57{fill:url(#未命名的渐变_143-57);}.cls-58{fill:url(#未命名的渐变_143-58);}.cls-59{fill:url(#未命名的渐变_143-59);}.cls-60{fill:url(#未命名的渐变_143-60);}.cls-61{fill:url(#未命名的渐变_143-61);}.cls-62{fill:url(#未命名的渐变_143-62);}.cls-63{fill:url(#未命名的渐变_143-63);}.cls-64{fill:url(#未命名的渐变_143-64);}.cls-65{fill:url(#未命名的渐变_143-65);}.cls-66{fill:url(#未命名的渐变_143-66);}.cls-67{fill:url(#未命名的渐变_143-67);}.cls-68{fill:url(#未命名的渐变_143-68);}.cls-69{fill:url(#未命名的渐变_143-69);}.cls-70{fill:url(#未命名的渐变_143-70);}.cls-71{fill:url(#未命名的渐变_143-71);}.cls-72{fill:url(#未命名的渐变_143-72);}.cls-73{fill:url(#未命名的渐变_143-73);}.cls-74{fill:url(#未命名的渐变_143-74);}.cls-75{fill:url(#未命名的渐变_143-75);}.cls-76{fill:url(#未命名的渐变_143-76);}.cls-77{fill:url(#未命名的渐变_143-77);}.cls-78{fill:url(#未命名的渐变_143-78);}.cls-79{fill:url(#未命名的渐变_143-79);}.cls-80{fill:url(#未命名的渐变_143-80);}.cls-81{fill:url(#未命名的渐变_143-81);}.cls-82{fill:url(#未命名的渐变_143-82);}.cls-83{fill:url(#未命名的渐变_143-83);}.cls-84{fill:url(#未命名的渐变_143-84);}.cls-85{fill:url(#未命名的渐变_143-85);}.cls-86{fill:url(#未命名的渐变_143-86);}.cls-87{fill:url(#未命名的渐变_143-87);}.cls-88{fill:url(#未命名的渐变_143-88);}.cls-89{fill:url(#未命名的渐变_143-89);}.cls-90{fill:url(#未命名的渐变_143-90);}.cls-91{fill:url(#未命名的渐变_143-91);}.cls-92{fill:url(#未命名的渐变_143-92);}.cls-93{fill:url(#未命名的渐变_143-93);}.cls-94{fill:url(#未命名的渐变_143-94);}.cls-95{fill:url(#未命名的渐变_143-95);}.cls-96{fill:url(#未命名的渐变_143-96);}.cls-97{fill:url(#未命名的渐变_143-97);}.cls-98{fill:url(#未命名的渐变_143-98);}.cls-99{fill:url(#未命名的渐变_143-99);}.cls-100{fill:url(#未命名的渐变_143-100);}.cls-101{fill:url(#未命名的渐变_143-101);}.cls-102{fill:url(#未命名的渐变_143-102);}.cls-103{fill:url(#未命名的渐变_143-103);}.cls-104{fill:url(#未命名的渐变_143-104);}.cls-105{fill:url(#未命名的渐变_143-105);}.cls-106{fill:url(#未命名的渐变_143-106);}.cls-107{fill:url(#未命名的渐变_143-107);}.cls-108{fill:url(#未命名的渐变_143-108);}.cls-109{fill:url(#未命名的渐变_143-109);}.cls-110{fill:url(#未命名的渐变_143-110);}.cls-111{fill:url(#未命名的渐变_143-111);}.cls-112{fill:url(#未命名的渐变_143-112);}.cls-113{fill:url(#未命名的渐变_143-113);}.cls-114{fill:url(#未命名的渐变_143-114);}.cls-115{fill:url(#未命名的渐变_143-115);}.cls-116{fill:url(#未命名的渐变_143-116);}.cls-117{fill:url(#未命名的渐变_143-117);}.cls-118{fill:url(#未命名的渐变_143-118);}.cls-119{fill:url(#未命名的渐变_143-119);}.cls-120{fill:url(#未命名的渐变_143-120);}.cls-121{fill:url(#未命名的渐变_143-121);}.cls-122{fill:url(#未命名的渐变_143-122);}.cls-123{fill:url(#未命名的渐变_143-123);}.cls-124{fill:url(#未命名的渐变_143-124);}.cls-125{fill:url(#未命名的渐变_143-125);}.cls-126{fill:url(#未命名的渐变_143-126);}.cls-127{fill:url(#未命名的渐变_143-127);}.cls-128{fill:url(#未命名的渐变_143-128);}.cls-129{fill:url(#未命名的渐变_143-129);}.cls-130{fill:url(#未命名的渐变_143-130);}.cls-131{opacity:0.6;}.cls-132,.cls-133{fill:#ff2727;}.cls-133{stroke:#fff;stroke-miterlimit:10;}.cls-134{fill:#fff;}.cls-135{opacity:0.2;}</style><linearGradient id="未命名的渐变_143" x1="26.35" y1="388.59" x2="91.02" y2="388.59" gradientTransform="matrix(1, 0, 0, -1, 16.15, 485.73)" gradientUnits="userSpaceOnUse"><stop offset="0" stop-color="#b7b7b7"/><stop offset="0.03" stop-color="#9b9d9d"/><stop offset="0.07" stop-color="#878b8b"/><stop offset="0.09" stop-color="#808484"/><stop offset="0.2" stop-color="#a3a6a6"/><stop offset="0.49" stop-color="#f6f6f6"/><stop offset="0.61" stop-color="#f3f3f3"/><stop offset="0.7" stop-color="#eaeaea"/><stop offset="0.77" stop-color="#dbdbdb"/><stop offset="0.83" stop-color="#c5c5c5"/><stop offset="0.9" stop-color="#aaa"/><stop offset="0.95" stop-color="#888"/><stop offset="1" stop-color="#666"/></linearGradient><linearGradient id="未命名的渐变_143-2" x1="49.62" y1="356.31" x2="68.05" y2="356.31" gradientTransform="matrix(1, 0, 0, -1, 15.86, 421.17)" xlink:href="#未命名的渐变_143"/><linearGradient id="未命名的渐变_143-3" x1="17.63" y1="409.97" x2="100.04" y2="409.97" gradientTransform="matrix(1, 0, 0, -1, 15.86, 528.48)" xlink:href="#未命名的渐变_143"/><linearGradient id="未命名的渐变_143-4" x1="88.21" y1="112.28" x2="88.21" y2="77.56" gradientTransform="matrix(-1, 0, 0, 1, 216.32, -54)" xlink:href="#未命名的渐变_143"/><linearGradient id="未命名的渐变_143-5" x1="89.06" y1="112.28" x2="89.06" y2="77.56" gradientTransform="matrix(-1, 0, 0, 1, 216.32, -54)" xlink:href="#未命名的渐变_143"/><linearGradient id="未命名的渐变_143-6" x1="89.9" y1="112.28" x2="89.9" y2="77.56" gradientTransform="matrix(-1, 0, 0, 1, 216.32, -54)" xlink:href="#未命名的渐变_143"/><linearGradient id="未命名的渐变_143-7" x1="90.75" y1="112.28" x2="90.75" y2="77.56" gradientTransform="matrix(-1, 0, 0, 1, 216.32, -54)" xlink:href="#未命名的渐变_143"/><linearGradient id="未命名的渐变_143-8" x1="91.6" y1="112.28" x2="91.6" y2="77.56" gradientTransform="matrix(-1, 0, 0, 1, 216.32, -54)" xlink:href="#未命名的渐变_143"/><linearGradient id="未命名的渐变_143-9" x1="92.45" y1="112.28" x2="92.45" y2="77.56" gradientTransform="matrix(-1, 0, 0, 1, 216.32, -54)" xlink:href="#未命名的渐变_143"/><linearGradient id="未命名的渐变_143-10" x1="93.3" y1="112.28" x2="93.3" y2="77.56" gradientTransform="matrix(-1, 0, 0, 1, 216.32, -54)" xlink:href="#未命名的渐变_143"/><linearGradient id="未命名的渐变_143-11" x1="94.14" y1="112.28" x2="94.14" y2="77.56" gradientTransform="matrix(-1, 0, 0, 1, 216.32, -54)" xlink:href="#未命名的渐变_143"/><linearGradient id="未命名的渐变_143-12" x1="94.99" y1="112.28" x2="94.99" y2="77.56" gradientTransform="matrix(-1, 0, 0, 1, 216.32, -54)" xlink:href="#未命名的渐变_143"/><linearGradient id="未命名的渐变_143-13" x1="95.84" y1="112.28" x2="95.84" y2="77.56" gradientTransform="matrix(-1, 0, 0, 1, 216.32, -54)" xlink:href="#未命名的渐变_143"/><linearGradient id="未命名的渐变_143-14" x1="96.69" y1="112.28" x2="96.69" y2="77.56" gradientTransform="matrix(-1, 0, 0, 1, 216.32, -54)" xlink:href="#未命名的渐变_143"/><linearGradient id="未命名的渐变_143-15" x1="97.54" y1="112.28" x2="97.54" y2="77.56" gradientTransform="matrix(-1, 0, 0, 1, 216.32, -54)" xlink:href="#未命名的渐变_143"/><linearGradient id="未命名的渐变_143-16" x1="98.38" y1="112.28" x2="98.38" y2="77.56" gradientTransform="matrix(-1, 0, 0, 1, 216.32, -54)" xlink:href="#未命名的渐变_143"/><linearGradient id="未命名的渐变_143-17" x1="99.23" y1="112.28" x2="99.23" y2="77.56" gradientTransform="matrix(-1, 0, 0, 1, 216.32, -54)" xlink:href="#未命名的渐变_143"/><linearGradient id="未命名的渐变_143-18" x1="100.08" y1="112.28" x2="100.08" y2="77.56" gradientTransform="matrix(-1, 0, 0, 1, 216.32, -54)" xlink:href="#未命名的渐变_143"/><linearGradient id="未命名的渐变_143-19" x1="100.93" y1="112.28" x2="100.93" y2="77.56" gradientTransform="matrix(-1, 0, 0, 1, 216.32, -54)" xlink:href="#未命名的渐变_143"/><linearGradient id="未命名的渐变_143-20" x1="101.78" y1="112.28" x2="101.78" y2="77.56" gradientTransform="matrix(-1, 0, 0, 1, 216.32, -54)" xlink:href="#未命名的渐变_143"/><linearGradient id="未命名的渐变_143-21" x1="102.62" y1="112.28" x2="102.62" y2="77.56" gradientTransform="matrix(-1, 0, 0, 1, 216.32, -54)" xlink:href="#未命名的渐变_143"/><linearGradient id="未命名的渐变_143-22" x1="103.47" y1="112.28" x2="103.47" y2="77.56" gradientTransform="matrix(-1, 0, 0, 1, 216.32, -54)" xlink:href="#未命名的渐变_143"/><linearGradient id="未命名的渐变_143-23" x1="104.32" y1="112.28" x2="104.32" y2="77.56" gradientTransform="matrix(-1, 0, 0, 1, 216.32, -54)" xlink:href="#未命名的渐变_143"/><linearGradient id="未命名的渐变_143-24" x1="105.17" y1="112.28" x2="105.17" y2="77.56" gradientTransform="matrix(-1, 0, 0, 1, 216.32, -54)" xlink:href="#未命名的渐变_143"/><linearGradient id="未命名的渐变_143-25" x1="106.02" y1="112.28" x2="106.02" y2="77.56" gradientTransform="matrix(-1, 0, 0, 1, 216.32, -54)" xlink:href="#未命名的渐变_143"/><linearGradient id="未命名的渐变_143-26" x1="106.86" y1="112.28" x2="106.86" y2="77.56" gradientTransform="matrix(-1, 0, 0, 1, 216.32, -54)" xlink:href="#未命名的渐变_143"/><linearGradient id="未命名的渐变_143-27" x1="107.71" y1="112.28" x2="107.71" y2="77.56" gradientTransform="matrix(-1, 0, 0, 1, 216.32, -54)" xlink:href="#未命名的渐变_143"/><linearGradient id="未命名的渐变_143-28" x1="108.56" y1="112.28" x2="108.56" y2="77.56" gradientTransform="matrix(-1, 0, 0, 1, 216.32, -54)" xlink:href="#未命名的渐变_143"/><linearGradient id="未命名的渐变_143-29" x1="109.41" y1="112.28" x2="109.41" y2="77.56" gradientTransform="matrix(-1, 0, 0, 1, 216.32, -54)" xlink:href="#未命名的渐变_143"/><linearGradient id="未命名的渐变_143-30" x1="110.25" y1="112.28" x2="110.25" y2="77.56" gradientTransform="matrix(-1, 0, 0, 1, 216.32, -54)" xlink:href="#未命名的渐变_143"/><linearGradient id="未命名的渐变_143-31" x1="111.1" y1="112.28" x2="111.1" y2="77.56" gradientTransform="matrix(-1, 0, 0, 1, 216.32, -54)" xlink:href="#未命名的渐变_143"/><linearGradient id="未命名的渐变_143-32" x1="111.95" y1="112.28" x2="111.95" y2="77.56" gradientTransform="matrix(-1, 0, 0, 1, 216.32, -54)" xlink:href="#未命名的渐变_143"/><linearGradient id="未命名的渐变_143-33" x1="112.8" y1="112.28" x2="112.8" y2="77.56" gradientTransform="matrix(-1, 0, 0, 1, 216.32, -54)" xlink:href="#未命名的渐变_143"/><linearGradient id="未命名的渐变_143-34" x1="113.65" y1="112.28" x2="113.65" y2="77.56" gradientTransform="matrix(-1, 0, 0, 1, 216.32, -54)" xlink:href="#未命名的渐变_143"/><linearGradient id="未命名的渐变_143-35" x1="114.49" y1="112.28" x2="114.49" y2="77.56" gradientTransform="matrix(-1, 0, 0, 1, 216.32, -54)" xlink:href="#未命名的渐变_143"/><linearGradient id="未命名的渐变_143-36" x1="115.34" y1="112.28" x2="115.34" y2="77.56" gradientTransform="matrix(-1, 0, 0, 1, 216.32, -54)" xlink:href="#未命名的渐变_143"/><linearGradient id="未命名的渐变_143-37" x1="116.19" y1="112.28" x2="116.19" y2="77.56" gradientTransform="matrix(-1, 0, 0, 1, 216.32, -54)" xlink:href="#未命名的渐变_143"/><linearGradient id="未命名的渐变_143-38" x1="117.04" y1="112.28" x2="117.04" y2="77.56" gradientTransform="matrix(-1, 0, 0, 1, 216.32, -54)" xlink:href="#未命名的渐变_143"/><linearGradient id="未命名的渐变_143-39" x1="117.89" y1="112.28" x2="117.89" y2="77.56" gradientTransform="matrix(-1, 0, 0, 1, 216.32, -54)" xlink:href="#未命名的渐变_143"/><linearGradient id="未命名的渐变_143-40" x1="118.73" y1="112.28" x2="118.73" y2="77.56" gradientTransform="matrix(-1, 0, 0, 1, 216.32, -54)" xlink:href="#未命名的渐变_143"/><linearGradient id="未命名的渐变_143-41" x1="119.58" y1="112.28" x2="119.58" y2="77.56" gradientTransform="matrix(-1, 0, 0, 1, 216.32, -54)" xlink:href="#未命名的渐变_143"/><linearGradient id="未命名的渐变_143-42" x1="120.43" y1="112.28" x2="120.43" y2="77.56" gradientTransform="matrix(-1, 0, 0, 1, 216.32, -54)" xlink:href="#未命名的渐变_143"/><linearGradient id="未命名的渐变_143-43" x1="121.28" y1="112.28" x2="121.28" y2="77.56" gradientTransform="matrix(-1, 0, 0, 1, 216.32, -54)" xlink:href="#未命名的渐变_143"/><linearGradient id="未命名的渐变_143-44" x1="122.13" y1="112.28" x2="122.13" y2="77.56" gradientTransform="matrix(-1, 0, 0, 1, 216.32, -54)" xlink:href="#未命名的渐变_143"/><linearGradient id="未命名的渐变_143-45" x1="122.97" y1="112.28" x2="122.97" y2="77.56" gradientTransform="matrix(-1, 0, 0, 1, 216.32, -54)" xlink:href="#未命名的渐变_143"/><linearGradient id="未命名的渐变_143-46" x1="123.82" y1="112.28" x2="123.82" y2="77.56" gradientTransform="matrix(-1, 0, 0, 1, 216.32, -54)" xlink:href="#未命名的渐变_143"/><linearGradient id="未命名的渐变_143-47" x1="124.67" y1="112.28" x2="124.67" y2="77.56" gradientTransform="matrix(-1, 0, 0, 1, 216.32, -54)" xlink:href="#未命名的渐变_143"/><linearGradient id="未命名的渐变_143-48" x1="125.52" y1="112.28" x2="125.52" y2="77.56" gradientTransform="matrix(-1, 0, 0, 1, 216.32, -54)" xlink:href="#未命名的渐变_143"/><linearGradient id="未命名的渐变_143-49" x1="126.37" y1="112.28" x2="126.37" y2="77.56" gradientTransform="matrix(-1, 0, 0, 1, 216.32, -54)" xlink:href="#未命名的渐变_143"/><linearGradient id="未命名的渐变_143-50" x1="127.21" y1="112.28" x2="127.21" y2="77.56" gradientTransform="matrix(-1, 0, 0, 1, 216.32, -54)" xlink:href="#未命名的渐变_143"/><linearGradient id="未命名的渐变_143-51" x1="128.06" y1="112.28" x2="128.06" y2="77.56" gradientTransform="matrix(-1, 0, 0, 1, 216.32, -54)" xlink:href="#未命名的渐变_143"/><linearGradient id="未命名的渐变_143-52" x1="128.91" y1="112.28" x2="128.91" y2="77.56" gradientTransform="matrix(-1, 0, 0, 1, 216.32, -54)" xlink:href="#未命名的渐变_143"/><linearGradient id="未命名的渐变_143-53" x1="129.76" y1="112.28" x2="129.76" y2="77.56" gradientTransform="matrix(-1, 0, 0, 1, 216.32, -54)" xlink:href="#未命名的渐变_143"/><linearGradient id="未命名的渐变_143-54" x1="130.6" y1="112.28" x2="130.6" y2="77.56" gradientTransform="matrix(-1, 0, 0, 1, 216.32, -54)" xlink:href="#未命名的渐变_143"/><linearGradient id="未命名的渐变_143-55" x1="131.45" y1="112.28" x2="131.45" y2="77.56" gradientTransform="matrix(-1, 0, 0, 1, 216.32, -54)" xlink:href="#未命名的渐变_143"/><linearGradient id="未命名的渐变_143-56" x1="132.3" y1="112.28" x2="132.3" y2="77.56" gradientTransform="matrix(-1, 0, 0, 1, 216.32, -54)" xlink:href="#未命名的渐变_143"/><linearGradient id="未命名的渐变_143-57" x1="133.15" y1="112.28" x2="133.15" y2="77.56" gradientTransform="matrix(-1, 0, 0, 1, 216.32, -54)" xlink:href="#未命名的渐变_143"/><linearGradient id="未命名的渐变_143-58" x1="134" y1="112.28" x2="134" y2="77.56" gradientTransform="matrix(-1, 0, 0, 1, 216.32, -54)" xlink:href="#未命名的渐变_143"/><linearGradient id="未命名的渐变_143-59" x1="134.84" y1="112.28" x2="134.84" y2="77.56" gradientTransform="matrix(-1, 0, 0, 1, 216.32, -54)" xlink:href="#未命名的渐变_143"/><linearGradient id="未命名的渐变_143-60" x1="135.69" y1="112.28" x2="135.69" y2="77.56" gradientTransform="matrix(-1, 0, 0, 1, 216.32, -54)" xlink:href="#未命名的渐变_143"/><linearGradient id="未命名的渐变_143-61" x1="136.54" y1="112.28" x2="136.54" y2="77.56" gradientTransform="matrix(-1, 0, 0, 1, 216.32, -54)" xlink:href="#未命名的渐变_143"/><linearGradient id="未命名的渐变_143-62" x1="137.39" y1="112.28" x2="137.39" y2="77.56" gradientTransform="matrix(-1, 0, 0, 1, 216.32, -54)" xlink:href="#未命名的渐变_143"/><linearGradient id="未命名的渐变_143-63" x1="138.24" y1="112.28" x2="138.24" y2="77.56" gradientTransform="matrix(-1, 0, 0, 1, 216.32, -54)" xlink:href="#未命名的渐变_143"/><linearGradient id="未命名的渐变_143-64" x1="139.08" y1="112.28" x2="139.08" y2="77.56" gradientTransform="matrix(-1, 0, 0, 1, 216.32, -54)" xlink:href="#未命名的渐变_143"/><linearGradient id="未命名的渐变_143-65" x1="139.93" y1="112.28" x2="139.93" y2="77.56" gradientTransform="matrix(-1, 0, 0, 1, 216.32, -54)" xlink:href="#未命名的渐变_143"/><linearGradient id="未命名的渐变_143-66" x1="140.78" y1="112.28" x2="140.78" y2="77.56" gradientTransform="matrix(-1, 0, 0, 1, 216.32, -54)" xlink:href="#未命名的渐变_143"/><linearGradient id="未命名的渐变_143-67" x1="141.63" y1="112.28" x2="141.63" y2="77.56" gradientTransform="matrix(-1, 0, 0, 1, 216.32, -54)" xlink:href="#未命名的渐变_143"/><linearGradient id="未命名的渐变_143-68" x1="142.48" y1="112.28" x2="142.48" y2="77.56" gradientTransform="matrix(-1, 0, 0, 1, 216.32, -54)" xlink:href="#未命名的渐变_143"/><linearGradient id="未命名的渐变_143-69" x1="143.32" y1="112.28" x2="143.32" y2="77.56" gradientTransform="matrix(-1, 0, 0, 1, 216.32, -54)" xlink:href="#未命名的渐变_143"/><linearGradient id="未命名的渐变_143-70" x1="144.17" y1="112.28" x2="144.17" y2="77.56" gradientTransform="matrix(-1, 0, 0, 1, 216.32, -54)" xlink:href="#未命名的渐变_143"/><linearGradient id="未命名的渐变_143-71" x1="145.02" y1="112.28" x2="145.02" y2="77.56" gradientTransform="matrix(-1, 0, 0, 1, 216.32, -54)" xlink:href="#未命名的渐变_143"/><linearGradient id="未命名的渐变_143-72" x1="145.87" y1="112.28" x2="145.87" y2="77.56" gradientTransform="matrix(-1, 0, 0, 1, 216.32, -54)" xlink:href="#未命名的渐变_143"/><linearGradient id="未命名的渐变_143-73" x1="146.72" y1="112.28" x2="146.72" y2="77.56" gradientTransform="matrix(-1, 0, 0, 1, 216.32, -54)" xlink:href="#未命名的渐变_143"/><linearGradient id="未命名的渐变_143-74" x1="147.56" y1="112.28" x2="147.56" y2="77.56" gradientTransform="matrix(-1, 0, 0, 1, 216.32, -54)" xlink:href="#未命名的渐变_143"/><linearGradient id="未命名的渐变_143-75" x1="148.41" y1="112.28" x2="148.41" y2="77.56" gradientTransform="matrix(-1, 0, 0, 1, 216.32, -54)" xlink:href="#未命名的渐变_143"/><linearGradient id="未命名的渐变_143-76" x1="149.26" y1="112.28" x2="149.26" y2="77.56" gradientTransform="matrix(-1, 0, 0, 1, 216.32, -54)" xlink:href="#未命名的渐变_143"/><linearGradient id="未命名的渐变_143-77" x1="150.11" y1="112.28" x2="150.11" y2="77.56" gradientTransform="matrix(-1, 0, 0, 1, 216.32, -54)" xlink:href="#未命名的渐变_143"/><linearGradient id="未命名的渐变_143-78" x1="150.95" y1="112.28" x2="150.95" y2="77.56" gradientTransform="matrix(-1, 0, 0, 1, 216.32, -54)" xlink:href="#未命名的渐变_143"/><linearGradient id="未命名的渐变_143-79" x1="151.8" y1="112.28" x2="151.8" y2="77.56" gradientTransform="matrix(-1, 0, 0, 1, 216.32, -54)" xlink:href="#未命名的渐变_143"/><linearGradient id="未命名的渐变_143-80" x1="152.65" y1="112.28" x2="152.65" y2="77.56" gradientTransform="matrix(-1, 0, 0, 1, 216.32, -54)" xlink:href="#未命名的渐变_143"/><linearGradient id="未命名的渐变_143-81" x1="153.5" y1="112.28" x2="153.5" y2="77.56" gradientTransform="matrix(-1, 0, 0, 1, 216.32, -54)" xlink:href="#未命名的渐变_143"/><linearGradient id="未命名的渐变_143-82" x1="154.35" y1="112.28" x2="154.35" y2="77.56" gradientTransform="matrix(-1, 0, 0, 1, 216.32, -54)" xlink:href="#未命名的渐变_143"/><linearGradient id="未命名的渐变_143-83" x1="155.19" y1="112.28" x2="155.19" y2="77.56" gradientTransform="matrix(-1, 0, 0, 1, 216.32, -54)" xlink:href="#未命名的渐变_143"/><linearGradient id="未命名的渐变_143-84" x1="156.04" y1="112.28" x2="156.04" y2="77.56" gradientTransform="matrix(-1, 0, 0, 1, 216.32, -54)" xlink:href="#未命名的渐变_143"/><linearGradient id="未命名的渐变_143-85" x1="156.89" y1="112.28" x2="156.89" y2="77.56" gradientTransform="matrix(-1, 0, 0, 1, 216.32, -54)" xlink:href="#未命名的渐变_143"/><linearGradient id="未命名的渐变_143-86" x1="157.74" y1="112.28" x2="157.74" y2="77.56" gradientTransform="matrix(-1, 0, 0, 1, 216.32, -54)" xlink:href="#未命名的渐变_143"/><linearGradient id="未命名的渐变_143-87" x1="158.59" y1="112.28" x2="158.59" y2="77.56" gradientTransform="matrix(-1, 0, 0, 1, 216.32, -54)" xlink:href="#未命名的渐变_143"/><linearGradient id="未命名的渐变_143-88" x1="159.43" y1="112.28" x2="159.43" y2="77.56" gradientTransform="matrix(-1, 0, 0, 1, 216.32, -54)" xlink:href="#未命名的渐变_143"/><linearGradient id="未命名的渐变_143-89" x1="160.28" y1="112.28" x2="160.28" y2="77.56" gradientTransform="matrix(-1, 0, 0, 1, 216.32, -54)" xlink:href="#未命名的渐变_143"/><linearGradient id="未命名的渐变_143-90" x1="161.13" y1="112.28" x2="161.13" y2="77.56" gradientTransform="matrix(-1, 0, 0, 1, 216.32, -54)" xlink:href="#未命名的渐变_143"/><linearGradient id="未命名的渐变_143-91" x1="161.98" y1="112.28" x2="161.98" y2="77.56" gradientTransform="matrix(-1, 0, 0, 1, 216.32, -54)" xlink:href="#未命名的渐变_143"/><linearGradient id="未命名的渐变_143-92" x1="162.83" y1="112.28" x2="162.83" y2="77.56" gradientTransform="matrix(-1, 0, 0, 1, 216.32, -54)" xlink:href="#未命名的渐变_143"/><linearGradient id="未命名的渐变_143-93" x1="163.67" y1="112.28" x2="163.67" y2="77.56" gradientTransform="matrix(-1, 0, 0, 1, 216.32, -54)" xlink:href="#未命名的渐变_143"/><linearGradient id="未命名的渐变_143-94" x1="164.52" y1="112.28" x2="164.52" y2="77.56" gradientTransform="matrix(-1, 0, 0, 1, 216.32, -54)" xlink:href="#未命名的渐变_143"/><linearGradient id="未命名的渐变_143-95" x1="165.37" y1="112.28" x2="165.37" y2="77.56" gradientTransform="matrix(-1, 0, 0, 1, 216.32, -54)" xlink:href="#未命名的渐变_143"/><linearGradient id="未命名的渐变_143-96" x1="166.22" y1="112.28" x2="166.22" y2="77.56" gradientTransform="matrix(-1, 0, 0, 1, 216.32, -54)" xlink:href="#未命名的渐变_143"/><linearGradient id="未命名的渐变_143-97" x1="167.07" y1="112.28" x2="167.07" y2="77.56" gradientTransform="matrix(-1, 0, 0, 1, 216.32, -54)" xlink:href="#未命名的渐变_143"/><linearGradient id="未命名的渐变_143-98" x1="167.91" y1="112.28" x2="167.91" y2="77.56" gradientTransform="matrix(-1, 0, 0, 1, 216.32, -54)" xlink:href="#未命名的渐变_143"/><linearGradient id="未命名的渐变_143-99" x1="168.76" y1="112.28" x2="168.76" y2="77.56" gradientTransform="matrix(-1, 0, 0, 1, 216.32, -54)" xlink:href="#未命名的渐变_143"/><linearGradient id="未命名的渐变_143-100" x1="169.61" y1="112.28" x2="169.61" y2="77.56" gradientTransform="matrix(-1, 0, 0, 1, 216.32, -54)" xlink:href="#未命名的渐变_143"/><linearGradient id="未命名的渐变_143-101" x1="170.46" y1="112.28" x2="170.46" y2="77.56" gradientTransform="matrix(-1, 0, 0, 1, 216.32, -54)" xlink:href="#未命名的渐变_143"/><linearGradient id="未命名的渐变_143-102" x1="171.31" y1="112.28" x2="171.31" y2="77.56" gradientTransform="matrix(-1, 0, 0, 1, 216.32, -54)" xlink:href="#未命名的渐变_143"/><linearGradient id="未命名的渐变_143-103" x1="172.15" y1="112.28" x2="172.15" y2="77.56" gradientTransform="matrix(-1, 0, 0, 1, 216.32, -54)" xlink:href="#未命名的渐变_143"/><linearGradient id="未命名的渐变_143-104" x1="173" y1="112.28" x2="173" y2="77.56" gradientTransform="matrix(-1, 0, 0, 1, 216.32, -54)" xlink:href="#未命名的渐变_143"/><linearGradient id="未命名的渐变_143-105" x1="173.85" y1="112.28" x2="173.85" y2="77.56" gradientTransform="matrix(-1, 0, 0, 1, 216.32, -54)" xlink:href="#未命名的渐变_143"/><linearGradient id="未命名的渐变_143-106" x1="174.7" y1="112.28" x2="174.7" y2="77.56" gradientTransform="matrix(-1, 0, 0, 1, 216.32, -54)" xlink:href="#未命名的渐变_143"/><linearGradient id="未命名的渐变_143-107" x1="175.54" y1="112.28" x2="175.54" y2="77.56" gradientTransform="matrix(-1, 0, 0, 1, 216.32, -54)" xlink:href="#未命名的渐变_143"/><linearGradient id="未命名的渐变_143-108" x1="176.39" y1="112.28" x2="176.39" y2="77.56" gradientTransform="matrix(-1, 0, 0, 1, 216.32, -54)" xlink:href="#未命名的渐变_143"/><linearGradient id="未命名的渐变_143-109" x1="177.24" y1="112.28" x2="177.24" y2="77.56" gradientTransform="matrix(-1, 0, 0, 1, 216.32, -54)" xlink:href="#未命名的渐变_143"/><linearGradient id="未命名的渐变_143-110" x1="178.09" y1="112.28" x2="178.09" y2="77.56" gradientTransform="matrix(-1, 0, 0, 1, 216.32, -54)" xlink:href="#未命名的渐变_143"/><linearGradient id="未命名的渐变_143-111" x1="178.94" y1="112.28" x2="178.94" y2="77.56" gradientTransform="matrix(-1, 0, 0, 1, 216.32, -54)" xlink:href="#未命名的渐变_143"/><linearGradient id="未命名的渐变_143-112" x1="179.78" y1="112.28" x2="179.78" y2="77.56" gradientTransform="matrix(-1, 0, 0, 1, 216.32, -54)" xlink:href="#未命名的渐变_143"/><linearGradient id="未命名的渐变_143-113" x1="180.63" y1="112.28" x2="180.63" y2="77.56" gradientTransform="matrix(-1, 0, 0, 1, 216.32, -54)" xlink:href="#未命名的渐变_143"/><linearGradient id="未命名的渐变_143-114" x1="181.48" y1="112.28" x2="181.48" y2="77.56" gradientTransform="matrix(-1, 0, 0, 1, 216.32, -54)" xlink:href="#未命名的渐变_143"/><linearGradient id="未命名的渐变_143-115" x1="182.33" y1="112.28" x2="182.33" y2="77.56" gradientTransform="matrix(-1, 0, 0, 1, 216.32, -54)" xlink:href="#未命名的渐变_143"/><linearGradient id="未命名的渐变_143-116" x1="183.18" y1="112.28" x2="183.18" y2="77.56" gradientTransform="matrix(-1, 0, 0, 1, 216.32, -54)" xlink:href="#未命名的渐变_143"/><linearGradient id="未命名的渐变_143-117" x1="184.02" y1="112.28" x2="184.02" y2="77.56" gradientTransform="matrix(-1, 0, 0, 1, 216.32, -54)" xlink:href="#未命名的渐变_143"/><linearGradient id="未命名的渐变_143-118" x1="184.87" y1="112.28" x2="184.87" y2="77.56" gradientTransform="matrix(-1, 0, 0, 1, 216.32, -54)" xlink:href="#未命名的渐变_143"/><linearGradient id="未命名的渐变_143-119" x1="185.72" y1="112.28" x2="185.72" y2="77.56" gradientTransform="matrix(-1, 0, 0, 1, 216.32, -54)" xlink:href="#未命名的渐变_143"/><linearGradient id="未命名的渐变_143-120" x1="186.57" y1="112.28" x2="186.57" y2="77.56" gradientTransform="matrix(-1, 0, 0, 1, 216.32, -54)" xlink:href="#未命名的渐变_143"/><linearGradient id="未命名的渐变_143-121" x1="187.42" y1="112.28" x2="187.42" y2="77.56" gradientTransform="matrix(-1, 0, 0, 1, 216.32, -54)" xlink:href="#未命名的渐变_143"/><linearGradient id="未命名的渐变_143-122" x1="188.26" y1="112.28" x2="188.26" y2="77.56" gradientTransform="matrix(-1, 0, 0, 1, 216.32, -54)" xlink:href="#未命名的渐变_143"/><linearGradient id="未命名的渐变_143-123" x1="189.11" y1="112.28" x2="189.11" y2="77.56" gradientTransform="matrix(-1, 0, 0, 1, 216.32, -54)" xlink:href="#未命名的渐变_143"/><linearGradient id="未命名的渐变_143-124" x1="189.96" y1="112.28" x2="189.96" y2="77.56" gradientTransform="matrix(-1, 0, 0, 1, 216.32, -54)" xlink:href="#未命名的渐变_143"/><linearGradient id="未命名的渐变_143-125" x1="190.81" y1="112.28" x2="190.81" y2="77.56" gradientTransform="matrix(-1, 0, 0, 1, 216.32, -54)" xlink:href="#未命名的渐变_143"/><linearGradient id="未命名的渐变_143-126" x1="191.66" y1="112.28" x2="191.66" y2="77.56" gradientTransform="matrix(-1, 0, 0, 1, 216.32, -54)" xlink:href="#未命名的渐变_143"/><linearGradient id="未命名的渐变_143-127" x1="192.5" y1="112.28" x2="192.5" y2="77.56" gradientTransform="matrix(-1, 0, 0, 1, 216.32, -54)" xlink:href="#未命名的渐变_143"/><linearGradient id="未命名的渐变_143-128" x1="193.35" y1="112.28" x2="193.35" y2="77.56" gradientTransform="matrix(-1, 0, 0, 1, 216.32, -54)" xlink:href="#未命名的渐变_143"/><linearGradient id="未命名的渐变_143-129" x1="194.2" y1="112.28" x2="194.2" y2="77.56" gradientTransform="matrix(-1, 0, 0, 1, 216.32, -54)" xlink:href="#未命名的渐变_143"/><linearGradient id="未命名的渐变_143-130" x1="195.05" y1="112.28" x2="195.05" y2="77.56" gradientTransform="matrix(-1, 0, 0, 1, 216.32, -54)" xlink:href="#未命名的渐变_143"/></defs><title>iot-管道(21)</title><g id="图层_15" data-name="图层 15"><rect class="cls-1" x="42.51" y="81" width="64.67" height="32.28" transform="translate(149.68 194.27) rotate(180)"/><rect class="cls-2" x="65.48" y="48.72" width="18.43" height="32.28" transform="translate(149.39 129.71) rotate(180)"/><rect class="cls-3" x="33.49" y="113.28" width="82.41" height="10.47" transform="translate(149.39 237.02) rotate(180)"/><ellipse class="cls-4" cx="128.12" cy="40.92" rx="21.28" ry="17.36"/><ellipse class="cls-5" cx="127.27" cy="40.92" rx="21.28" ry="17.36"/><ellipse class="cls-6" cx="126.42" cy="40.92" rx="21.28" ry="17.36"/><ellipse class="cls-7" cx="125.57" cy="40.92" rx="21.28" ry="17.36"/><ellipse class="cls-8" cx="124.72" cy="40.92" rx="21.28" ry="17.36"/><ellipse class="cls-9" cx="123.88" cy="40.92" rx="21.28" ry="17.36"/><ellipse class="cls-10" cx="123.03" cy="40.92" rx="21.28" ry="17.36"/><ellipse class="cls-11" cx="122.18" cy="40.92" rx="21.28" ry="17.36"/><ellipse class="cls-12" cx="121.33" cy="40.92" rx="21.28" ry="17.36"/><ellipse class="cls-13" cx="120.48" cy="40.92" rx="21.28" ry="17.36"/><ellipse class="cls-14" cx="119.64" cy="40.92" rx="21.28" ry="17.36"/><ellipse class="cls-15" cx="118.79" cy="40.92" rx="21.28" ry="17.36"/><ellipse class="cls-16" cx="117.94" cy="40.92" rx="21.28" ry="17.36"/><ellipse class="cls-17" cx="117.09" cy="40.92" rx="21.28" ry="17.36"/><ellipse class="cls-18" cx="116.24" cy="40.92" rx="21.28" ry="17.36"/><ellipse class="cls-19" cx="115.4" cy="40.92" rx="21.28" ry="17.36"/><ellipse class="cls-20" cx="114.55" cy="40.92" rx="21.28" ry="17.36"/><ellipse class="cls-21" cx="113.7" cy="40.92" rx="21.28" ry="17.36"/><ellipse class="cls-22" cx="112.85" cy="40.92" rx="21.28" ry="17.36"/><ellipse class="cls-23" cx="112" cy="40.92" rx="21.28" ry="17.36"/><ellipse class="cls-24" cx="111.16" cy="40.92" rx="21.28" ry="17.36"/><ellipse class="cls-25" cx="110.31" cy="40.92" rx="21.28" ry="17.36"/><ellipse class="cls-26" cx="109.46" cy="40.92" rx="21.28" ry="17.36"/><ellipse class="cls-27" cx="108.61" cy="40.92" rx="21.28" ry="17.36"/><ellipse class="cls-28" cx="107.76" cy="40.92" rx="21.28" ry="17.36"/><ellipse class="cls-29" cx="106.92" cy="40.92" rx="21.28" ry="17.36"/><ellipse class="cls-30" cx="106.07" cy="40.92" rx="21.28" ry="17.36"/><ellipse class="cls-31" cx="105.22" cy="40.92" rx="21.28" ry="17.36"/><ellipse class="cls-32" cx="104.37" cy="40.92" rx="21.28" ry="17.36"/><ellipse class="cls-33" cx="103.53" cy="40.92" rx="21.28" ry="17.36"/><ellipse class="cls-34" cx="102.68" cy="40.92" rx="21.28" ry="17.36"/><ellipse class="cls-35" cx="101.83" cy="40.92" rx="21.28" ry="17.36"/><ellipse class="cls-36" cx="100.98" cy="40.92" rx="21.28" ry="17.36"/><ellipse class="cls-37" cx="100.13" cy="40.92" rx="21.28" ry="17.36"/><ellipse class="cls-38" cx="99.29" cy="40.92" rx="21.28" ry="17.36"/><ellipse class="cls-39" cx="98.44" cy="40.92" rx="21.28" ry="17.36"/><ellipse class="cls-40" cx="97.59" cy="40.92" rx="21.28" ry="17.36"/><ellipse class="cls-41" cx="96.74" cy="40.92" rx="21.28" ry="17.36"/><ellipse class="cls-42" cx="95.89" cy="40.92" rx="21.28" ry="17.36"/><ellipse class="cls-43" cx="95.05" cy="40.92" rx="21.28" ry="17.36"/><ellipse class="cls-44" cx="94.2" cy="40.92" rx="21.28" ry="17.36"/><ellipse class="cls-45" cx="93.35" cy="40.92" rx="21.28" ry="17.36"/><ellipse class="cls-46" cx="92.5" cy="40.92" rx="21.28" ry="17.36"/><ellipse class="cls-47" cx="91.65" cy="40.92" rx="21.28" ry="17.36"/><ellipse class="cls-48" cx="90.81" cy="40.92" rx="21.28" ry="17.36"/><ellipse class="cls-49" cx="89.96" cy="40.92" rx="21.28" ry="17.36"/><ellipse class="cls-50" cx="89.11" cy="40.92" rx="21.28" ry="17.36"/><ellipse class="cls-51" cx="88.26" cy="40.92" rx="21.28" ry="17.36"/><ellipse class="cls-52" cx="87.41" cy="40.92" rx="21.28" ry="17.36"/><ellipse class="cls-53" cx="86.57" cy="40.92" rx="21.28" ry="17.36"/><ellipse class="cls-54" cx="85.72" cy="40.92" rx="21.28" ry="17.36"/><ellipse class="cls-55" cx="84.87" cy="40.92" rx="21.28" ry="17.36"/><ellipse class="cls-56" cx="84.02" cy="40.92" rx="21.28" ry="17.36"/><ellipse class="cls-57" cx="83.18" cy="40.92" rx="21.28" ry="17.36"/><ellipse class="cls-58" cx="82.33" cy="40.92" rx="21.28" ry="17.36"/><ellipse class="cls-59" cx="81.48" cy="40.92" rx="21.28" ry="17.36"/><ellipse class="cls-60" cx="80.63" cy="40.92" rx="21.28" ry="17.36"/><ellipse class="cls-61" cx="79.78" cy="40.92" rx="21.28" ry="17.36"/><ellipse class="cls-62" cx="78.94" cy="40.92" rx="21.28" ry="17.36"/><ellipse class="cls-63" cx="78.09" cy="40.92" rx="21.28" ry="17.36"/><ellipse class="cls-64" cx="77.24" cy="40.92" rx="21.28" ry="17.36"/><ellipse class="cls-65" cx="76.39" cy="40.92" rx="21.28" ry="17.36"/><ellipse class="cls-66" cx="75.54" cy="40.92" rx="21.28" ry="17.36"/><ellipse class="cls-67" cx="74.7" cy="40.92" rx="21.28" ry="17.36"/><ellipse class="cls-68" cx="73.85" cy="40.92" rx="21.28" ry="17.36"/><ellipse class="cls-69" cx="73" cy="40.92" rx="21.28" ry="17.36"/><ellipse class="cls-70" cx="72.15" cy="40.92" rx="21.28" ry="17.36"/><ellipse class="cls-71" cx="71.3" cy="40.92" rx="21.28" ry="17.36"/><ellipse class="cls-72" cx="70.46" cy="40.92" rx="21.28" ry="17.36"/><ellipse class="cls-73" cx="69.61" cy="40.92" rx="21.28" ry="17.36"/><ellipse class="cls-74" cx="68.76" cy="40.92" rx="21.28" ry="17.36"/><ellipse class="cls-75" cx="67.91" cy="40.92" rx="21.28" ry="17.36"/><ellipse class="cls-76" cx="67.06" cy="40.92" rx="21.28" ry="17.36"/><ellipse class="cls-77" cx="66.22" cy="40.92" rx="21.28" ry="17.36"/><ellipse class="cls-78" cx="65.37" cy="40.92" rx="21.28" ry="17.36"/><ellipse class="cls-79" cx="64.52" cy="40.92" rx="21.28" ry="17.36"/><ellipse class="cls-80" cx="63.67" cy="40.92" rx="21.28" ry="17.36"/><ellipse class="cls-81" cx="62.82" cy="40.92" rx="21.28" ry="17.36"/><ellipse class="cls-82" cx="61.98" cy="40.92" rx="21.28" ry="17.36"/><ellipse class="cls-83" cx="61.13" cy="40.92" rx="21.28" ry="17.36"/><ellipse class="cls-84" cx="60.28" cy="40.92" rx="21.28" ry="17.36"/><ellipse class="cls-85" cx="59.43" cy="40.92" rx="21.28" ry="17.36"/><ellipse class="cls-86" cx="58.59" cy="40.92" rx="21.28" ry="17.36"/><ellipse class="cls-87" cx="57.74" cy="40.92" rx="21.28" ry="17.36"/><ellipse class="cls-88" cx="56.89" cy="40.92" rx="21.28" ry="17.36"/><ellipse class="cls-89" cx="56.04" cy="40.92" rx="21.28" ry="17.36"/><ellipse class="cls-90" cx="55.19" cy="40.92" rx="21.28" ry="17.36"/><ellipse class="cls-91" cx="54.35" cy="40.92" rx="21.28" ry="17.36"/><ellipse class="cls-92" cx="53.5" cy="40.92" rx="21.28" ry="17.36"/><ellipse class="cls-93" cx="52.65" cy="40.92" rx="21.28" ry="17.36"/><ellipse class="cls-94" cx="51.8" cy="40.92" rx="21.28" ry="17.36"/><ellipse class="cls-95" cx="50.95" cy="40.92" rx="21.28" ry="17.36"/><ellipse class="cls-96" cx="50.11" cy="40.92" rx="21.28" ry="17.36"/><ellipse class="cls-97" cx="49.26" cy="40.92" rx="21.28" ry="17.36"/><ellipse class="cls-98" cx="48.41" cy="40.92" rx="21.28" ry="17.36"/><ellipse class="cls-99" cx="47.56" cy="40.92" rx="21.28" ry="17.36"/><ellipse class="cls-100" cx="46.71" cy="40.92" rx="21.28" ry="17.36"/><ellipse class="cls-101" cx="45.87" cy="40.92" rx="21.28" ry="17.36"/><ellipse class="cls-102" cx="45.02" cy="40.92" rx="21.28" ry="17.36"/><ellipse class="cls-103" cx="44.17" cy="40.92" rx="21.28" ry="17.36"/><ellipse class="cls-104" cx="43.32" cy="40.92" rx="21.28" ry="17.36"/><ellipse class="cls-105" cx="42.47" cy="40.92" rx="21.28" ry="17.36"/><ellipse class="cls-106" cx="41.63" cy="40.92" rx="21.28" ry="17.36"/><ellipse class="cls-107" cx="40.78" cy="40.92" rx="21.28" ry="17.36"/><ellipse class="cls-108" cx="39.93" cy="40.92" rx="21.28" ry="17.36"/><ellipse class="cls-109" cx="39.08" cy="40.92" rx="21.28" ry="17.36"/><ellipse class="cls-110" cx="38.24" cy="40.92" rx="21.28" ry="17.36"/><ellipse class="cls-111" cx="37.39" cy="40.92" rx="21.28" ry="17.36"/><ellipse class="cls-112" cx="36.54" cy="40.92" rx="21.28" ry="17.36"/><ellipse class="cls-113" cx="35.69" cy="40.92" rx="21.28" ry="17.36"/><ellipse class="cls-114" cx="34.84" cy="40.92" rx="21.28" ry="17.36"/><ellipse class="cls-115" cx="34" cy="40.92" rx="21.28" ry="17.36"/><ellipse class="cls-116" cx="33.15" cy="40.92" rx="21.28" ry="17.36"/><ellipse class="cls-117" cx="32.3" cy="40.92" rx="21.28" ry="17.36"/><ellipse class="cls-118" cx="31.45" cy="40.92" rx="21.28" ry="17.36"/><ellipse class="cls-119" cx="30.6" cy="40.92" rx="21.28" ry="17.36"/><ellipse class="cls-120" cx="29.76" cy="40.92" rx="21.28" ry="17.36"/><ellipse class="cls-121" cx="28.91" cy="40.92" rx="21.28" ry="17.36"/><ellipse class="cls-122" cx="28.06" cy="40.92" rx="21.28" ry="17.36"/><ellipse class="cls-123" cx="27.21" cy="40.92" rx="21.28" ry="17.36"/><ellipse class="cls-124" cx="26.36" cy="40.92" rx="21.28" ry="17.36"/><ellipse class="cls-125" cx="25.52" cy="40.92" rx="21.28" ry="17.36"/><ellipse class="cls-126" cx="24.67" cy="40.92" rx="21.28" ry="17.36"/><ellipse class="cls-127" cx="23.82" cy="40.92" rx="21.28" ry="17.36"/><ellipse class="cls-128" cx="22.97" cy="40.92" rx="21.28" ry="17.36"/><ellipse class="cls-129" cx="22.12" cy="40.92" rx="21.28" ry="17.36"/><ellipse class="cls-130" cx="21.28" cy="40.92" rx="21.28" ry="17.36"/><g class="cls-131"><circle class="cls-132" cx="74.84" cy="40.92" r="40.92"/><circle class="cls-133" cx="74.84" cy="40.92" r="34.45"/><rect class="cls-134" x="50.12" y="32.6" width="49.44" height="16.65" transform="translate(149.68 81.85) rotate(180)"/></g></g><g id="图层_21" data-name="图层 21"></g></svg>