<svg xmlns="http://www.w3.org/2000/svg" xmlns:xlink="http://www.w3.org/1999/xlink" viewBox="0 0 123.05 150"><defs><style>.cls-1{fill:url(#未命名的渐变_43);}.cls-2{fill:url(#未命名的渐变_43-2);}.cls-3{fill:url(#未命名的渐变_43-3);}.cls-12,.cls-4,.cls-6{opacity:0.8;}.cls-4{fill:url(#未命名的渐变_376);}.cls-5{fill:url(#未命名的渐变_43-4);}.cls-6{fill:url(#未命名的渐变_376-2);}.cls-7{fill:url(#未命名的渐变_43-5);}.cls-8{fill:url(#未命名的渐变_43-6);}.cls-9{fill:url(#未命名的渐变_397);}.cls-10{fill:url(#未命名的渐变_397-2);}.cls-11,.cls-14{opacity:0.2;}.cls-11{fill:url(#未命名的渐变_376-3);}.cls-12{fill:#222a34;}.cls-13{fill:url(#未命名的渐变_43-7);}</style><linearGradient id="未命名的渐变_43" x1="110.26" y1="52.85" x2="110.26" y2="49.2" gradientUnits="userSpaceOnUse"><stop offset="0" stop-color="#767b82"/><stop offset="0.48" stop-color="#9ba1ab"/><stop offset="0.8" stop-color="#d7dce0"/><stop offset="1" stop-color="#767b82"/></linearGradient><linearGradient id="未命名的渐变_43-2" x1="115.89" y1="72.82" x2="115.89" y2="69.17" gradientTransform="translate(2.5 -31.82)" xlink:href="#未命名的渐变_43"/><linearGradient id="未命名的渐变_43-3" x1="2199.16" y1="409.14" x2="2202.09" y2="409.14" gradientTransform="matrix(-4.7, 0, 0, -8.92, 10342.27, 3792.28)" xlink:href="#未命名的渐变_43"/><linearGradient id="未命名的渐变_376" x1="2200.62" y1="409.81" x2="2200.62" y2="408.48" gradientTransform="matrix(-4.7, 0, 0, -8.92, 10342.27, 3792.28)" gradientUnits="userSpaceOnUse"><stop offset="0" stop-color="#2e3033"/><stop offset="1" stop-color="#9ba1ab" stop-opacity="0"/></linearGradient><linearGradient id="未命名的渐变_43-4" x1="2191.99" y1="409.14" x2="2194.92" y2="409.14" gradientTransform="matrix(4.7, 0, 0, -8.92, -10203.66, 3792.28)" xlink:href="#未命名的渐变_43"/><linearGradient id="未命名的渐变_376-2" x1="2193.46" y1="409.81" x2="2193.46" y2="408.48" gradientTransform="matrix(4.7, 0, 0, -8.92, -10203.66, 3792.28)" xlink:href="#未命名的渐变_376"/><linearGradient id="未命名的渐变_43-5" x1="-1343.68" y1="-252.37" x2="-1353" y2="-252.37" gradientTransform="translate(1466.73 278.73)" xlink:href="#未命名的渐变_43"/><linearGradient id="未命名的渐变_43-6" x1="1.69" y1="77.61" x2="103.17" y2="77.61" xlink:href="#未命名的渐变_43"/><linearGradient id="未命名的渐变_397" x1="103.17" y1="77.62" x2="1.69" y2="77.62" gradientUnits="userSpaceOnUse"><stop offset="0" stop-color="#767b82"/><stop offset="0.07" stop-color="#9ba1ab"/><stop offset="0.22" stop-color="#e2eaf2"/><stop offset="0.28" stop-color="#d1d8e0"/><stop offset="0.49" stop-color="#a1a7ae"/><stop offset="0.67" stop-color="#7e8489"/><stop offset="0.81" stop-color="#696e73"/><stop offset="0.91" stop-color="#61666b"/><stop offset="1" stop-color="#a9b1bb"/></linearGradient><linearGradient id="未命名的渐变_397-2" x1="78.05" y1="-9" x2="26.81" y2="42.24" xlink:href="#未命名的渐变_397"/><linearGradient id="未命名的渐变_376-3" x1="52.43" y1="17.12" x2="52.43" y2="58.84" gradientTransform="matrix(1, 0, 0, 1, 0, 0)" xlink:href="#未命名的渐变_376"/><linearGradient id="未命名的渐变_43-7" x1="0" y1="79.53" x2="104.86" y2="79.53" xlink:href="#未命名的渐变_43"/></defs><title>Reciprocating compressor(往复式压缩机)</title><g id="图层_2" data-name="图层 2"><g id="图层_16" data-name="图层 16"><g id="Reciprocating_compressor_往复式压缩机_" data-name="Reciprocating compressor(往复式压缩机)"><rect class="cls-1" x="100.31" y="49.2" width="19.91" height="3.65" rx="1.82"/><rect class="cls-2" x="104.71" y="37.34" width="27.35" height="3.65" rx="1.82" transform="translate(79.22 157.56) rotate(-90)"/><polygon class="cls-3" points="1.69 138.11 15.46 138.11 5.61 150 1.69 150 1.69 138.11"/><polygon class="cls-4" points="1.69 138.11 15.46 138.11 5.61 150 1.69 150 1.69 138.11"/><polygon class="cls-5" points="103.28 138.11 89.51 138.11 99.36 150 103.28 150 103.28 138.11"/><polygon class="cls-6" points="103.28 138.11 89.51 138.11 99.36 150 103.28 150 103.28 138.11"/><rect class="cls-7" x="113.73" y="24.57" width="9.32" height="3.59" transform="translate(236.78 52.73) rotate(180)"/><rect class="cls-8" x="1.69" y="17.12" width="101.47" height="120.99"/><rect class="cls-9" x="1.69" y="17.12" width="101.47" height="120.99"/><path class="cls-10" d="M103.17,17.12S96.1,0,52.42,0,1.69,17.12,1.69,17.12Z"/><rect class="cls-11" x="1.69" y="17.12" width="101.48" height="41.72"/><rect class="cls-12" x="1.69" y="73.96" width="101.47" height="11.15"/><rect class="cls-13" y="75.76" width="104.86" height="7.55"/></g></g></g></svg>