<?xml version="1.0" encoding="UTF-8"?>
<svg id="_图层_2" data-name="图层 2" xmlns="http://www.w3.org/2000/svg" xmlns:xlink="http://www.w3.org/1999/xlink" viewBox="0 0 150 150">
  <defs>
    <style>
      .cls-1 {
        fill: url(#_未命名的渐变_13);
      }

      .cls-1, .cls-2, .cls-3, .cls-4, .cls-5, .cls-6, .cls-7, .cls-8, .cls-9, .cls-10, .cls-11, .cls-12, .cls-13, .cls-14, .cls-15, .cls-16, .cls-17, .cls-18, .cls-19, .cls-20, .cls-21, .cls-22, .cls-23, .cls-24, .cls-25, .cls-26, .cls-27, .cls-28, .cls-29, .cls-30, .cls-31, .cls-32, .cls-33, .cls-34, .cls-35, .cls-36, .cls-37, .cls-38, .cls-39, .cls-40, .cls-41 {
        stroke-width: 0px;
      }

      .cls-2 {
        fill: url(#_未命名的渐变_10);
      }

      .cls-3 {
        fill: url(#_未命名的渐变_21);
      }

      .cls-4 {
        fill: url(#_未命名的渐变_39);
      }

      .cls-5, .cls-42, .cls-43 {
        fill: none;
      }

      .cls-6 {
        fill: url(#_未命名的渐变_1827-2);
      }

      .cls-7 {
        fill: url(#_未命名的渐变_1827-3);
      }

      .cls-42 {
        stroke: #fff;
        stroke-width: .1px;
      }

      .cls-42, .cls-43 {
        stroke-miterlimit: 10;
      }

      .cls-8 {
        fill: url(#_未命名的渐变_39-7);
      }

      .cls-9 {
        fill: url(#_未命名的渐变_39-8);
      }

      .cls-10 {
        fill: url(#_未命名的渐变_39-6);
      }

      .cls-11 {
        fill: url(#_未命名的渐变_39-5);
      }

      .cls-12 {
        fill: url(#_未命名的渐变_39-2);
      }

      .cls-13 {
        fill: url(#_未命名的渐变_39-9);
      }

      .cls-14 {
        fill: url(#_未命名的渐变_39-3);
      }

      .cls-15 {
        fill: url(#_未命名的渐变_39-4);
      }

      .cls-16 {
        fill: url(#_未命名的渐变_10-2);
      }

      .cls-17 {
        fill: url(#_未命名的渐变_10-3);
      }

      .cls-18 {
        fill: url(#_未命名的渐变_13-3);
      }

      .cls-19 {
        fill: url(#_未命名的渐变_13-2);
      }

      .cls-20 {
        fill: url(#_未命名的渐变_13-4);
      }

      .cls-21 {
        fill: url(#_未命名的渐变_1827);
      }

      .cls-22 {
        fill: url(#_未命名的渐变_21-2);
      }

      .cls-23 {
        fill: url(#_未命名的渐变_21-3);
      }

      .cls-24 {
        fill: url(#_未命名的渐变_39-10);
      }

      .cls-25 {
        fill: url(#_新建图案);
        opacity: .1;
      }

      .cls-43 {
        stroke: #000;
        stroke-width: 0px;
      }

      .cls-44 {
        opacity: .2;
      }

      .cls-26 {
        fill: url(#_未命名的渐变_2);
      }

      .cls-27 {
        fill: url(#_未命名的渐变_4);
      }

      .cls-45 {
        isolation: isolate;
      }

      .cls-29 {
        fill: url(#_未命名的渐变_4-3);
      }

      .cls-30 {
        fill: url(#_未命名的渐变_4-2);
      }

      .cls-31 {
        fill: url(#_未命名的渐变_2-3);
      }

      .cls-32 {
        fill: url(#_未命名的渐变_2-5);
      }

      .cls-33 {
        fill: url(#_未命名的渐变_2-6);
      }

      .cls-34 {
        fill: url(#_未命名的渐变_2-2);
      }

      .cls-35 {
        fill: url(#_未命名的渐变_2-4);
      }

      .cls-36 {
        fill: url(#_未命名的渐变_124);
      }

      .cls-46 {
        opacity: 0;
      }

      .cls-37 {
        fill: #7693c8;
      }

      .cls-38 {
        fill: #4e5f79;
      }

      .cls-39 {
        fill: #171d23;
      }

      .cls-40 {
        fill: #c2c2c2;
      }

      .cls-41 {
        fill: #010714;
      }
    </style>
    <pattern id="_新建图案" data-name="新建图案" x="0" y="0" width="18.57" height="32.16" patternTransform="translate(2127.65 730.69)" patternUnits="userSpaceOnUse" viewBox="0 0 18.57 32.16">
      <g>
        <rect class="cls-5" x="0" y="0" width="18.57" height="32.16"/>
        <g>
          <g>
            <polyline class="cls-42" points="18.57 21.44 18.57 32.16 18.57 42.88"/>
            <polyline class="cls-42" points="9.29 26.8 18.57 32.16 27.85 37.51 27.85 37.52"/>
            <polyline class="cls-42" points="9.29 37.52 9.29 37.51 18.57 32.16 27.85 26.8"/>
          </g>
          <polygon class="cls-42" points="27.85 37.52 27.85 26.8 18.57 21.44 9.28 26.8 9.28 37.52 18.57 42.88 27.85 37.52"/>
        </g>
        <g>
          <g>
            <polyline class="cls-42" points="0 21.44 0 32.16 0 42.88"/>
            <polyline class="cls-42" points="-9.28 26.8 0 32.16 9.28 37.51 9.28 37.52"/>
            <polyline class="cls-42" points="-9.28 37.52 -9.28 37.51 0 32.16 9.28 26.8"/>
          </g>
          <polygon class="cls-42" points="9.28 37.52 9.28 26.8 0 21.44 -9.28 26.8 -9.28 37.52 0 42.88 9.28 37.52"/>
        </g>
        <g>
          <g>
            <polyline class="cls-42" points="18.57 10.72 27.85 16.08 37.13 21.43 37.13 21.44"/>
            <polyline class="cls-42" points="18.57 21.44 18.57 21.43 27.85 16.08 37.13 10.72"/>
          </g>
          <polygon class="cls-42" points="37.14 21.44 37.14 10.72 27.85 5.36 18.57 10.72 18.57 21.44 27.85 26.8 37.14 21.44"/>
        </g>
        <g>
          <g>
            <polyline class="cls-42" points="9.28 5.36 9.28 16.08 9.28 26.8"/>
            <polyline class="cls-42" points="0 10.72 9.28 16.08 18.56 21.43 18.56 21.44"/>
            <polyline class="cls-42" points="0 21.44 0 21.43 9.28 16.08 18.56 10.72"/>
          </g>
          <polygon class="cls-42" points="18.57 21.44 18.57 10.72 9.28 5.36 0 10.72 0 21.44 9.28 26.8 18.57 21.44"/>
        </g>
        <g>
          <g>
            <polyline class="cls-42" points="-18.56 10.72 -9.28 16.08 0 21.43 0 21.44"/>
            <polyline class="cls-42" points="-18.56 21.44 -18.56 21.43 -9.28 16.08 0 10.72"/>
          </g>
          <polygon class="cls-42" points="0 21.44 0 10.72 -9.28 5.36 -18.57 10.72 -18.57 21.44 -9.28 26.8 0 21.44"/>
        </g>
        <g>
          <g>
            <polyline class="cls-42" points="18.57 -10.72 18.57 0 18.57 10.72"/>
            <polyline class="cls-42" points="9.29 -5.36 18.57 0 27.85 5.35 27.85 5.36"/>
            <polyline class="cls-42" points="9.29 5.36 9.29 5.35 18.57 0 27.85 -5.36"/>
          </g>
          <polygon class="cls-42" points="27.85 5.36 27.85 -5.36 18.57 -10.72 9.28 -5.36 9.28 5.36 18.57 10.72 27.85 5.36"/>
        </g>
        <g>
          <g>
            <polyline class="cls-42" points="0 -10.72 0 0 0 10.72"/>
            <polyline class="cls-42" points="-9.28 -5.36 0 0 9.28 5.35 9.28 5.36"/>
            <polyline class="cls-42" points="-9.28 5.36 -9.28 5.35 0 0 9.28 -5.36"/>
          </g>
          <polygon class="cls-42" points="9.28 5.36 9.28 -5.36 0 -10.72 -9.28 -5.36 -9.28 5.36 0 10.72 9.28 5.36"/>
        </g>
      </g>
    </pattern>
    <linearGradient id="_未命名的渐变_10" data-name="未命名的渐变 10" x1="91.05" y1="134.7" x2="95.64" y2="134.7" gradientUnits="userSpaceOnUse">
      <stop offset="0" stop-color="#283140"/>
      <stop offset="1" stop-color="#12161a"/>
    </linearGradient>
    <linearGradient id="_未命名的渐变_1827" data-name="未命名的渐变 1827" x1="89.29" y1="136.36" x2="89.29" y2="133.65" gradientUnits="userSpaceOnUse">
      <stop offset="0" stop-color="#425266"/>
      <stop offset="1" stop-color="#596b8b"/>
    </linearGradient>
    <linearGradient id="_未命名的渐变_13" data-name="未命名的渐变 13" x1="87.53" y1="133.35" x2="95.64" y2="133.35" gradientUnits="userSpaceOnUse">
      <stop offset="0" stop-color="#88aae5"/>
      <stop offset="1" stop-color="#547098"/>
    </linearGradient>
    <linearGradient id="_未命名的渐变_10-2" data-name="未命名的渐变 10" x1="50.99" y1="132.78" x2="55.58" y2="132.78" xlink:href="#_未命名的渐变_10"/>
    <linearGradient id="_未命名的渐变_1827-2" data-name="未命名的渐变 1827" x1="49.23" y1="134.43" x2="49.23" y2="131.73" xlink:href="#_未命名的渐变_1827"/>
    <linearGradient id="_未命名的渐变_13-2" data-name="未命名的渐变 13" x1="47.47" y1="131.42" x2="55.58" y2="131.42" xlink:href="#_未命名的渐变_13"/>
    <linearGradient id="_未命名的渐变_10-3" data-name="未命名的渐变 10" x1="71.3" y1="147.7" x2="75.89" y2="147.7" xlink:href="#_未命名的渐变_10"/>
    <linearGradient id="_未命名的渐变_1827-3" data-name="未命名的渐变 1827" x1="69.54" y1="149.36" x2="69.54" y2="146.65" xlink:href="#_未命名的渐变_1827"/>
    <linearGradient id="_未命名的渐变_13-3" data-name="未命名的渐变 13" x1="67.78" y1="146.35" x2="75.89" y2="146.35" xlink:href="#_未命名的渐变_13"/>
    <linearGradient id="_未命名的渐变_2" data-name="未命名的渐变 2" x1="1698.06" y1="77.96" x2="1701.53" y2="77.96" gradientTransform="translate(1750.54) rotate(-180) scale(1 -1)" gradientUnits="userSpaceOnUse">
      <stop offset="0" stop-color="#86a8e3"/>
      <stop offset="1" stop-color="#547096"/>
    </linearGradient>
    <linearGradient id="_未命名的渐变_2-2" data-name="未命名的渐变 2" x1="1698.06" y1="41.03" x2="1701.53" y2="41.03" xlink:href="#_未命名的渐变_2"/>
    <linearGradient id="_未命名的渐变_21" data-name="未命名的渐变 21" x1="49.36" y1="56.11" x2="93.94" y2="56.11" gradientUnits="userSpaceOnUse">
      <stop offset="0" stop-color="#38455a"/>
      <stop offset=".15" stop-color="#7a97cb"/>
      <stop offset=".25" stop-color="#7a97cb"/>
      <stop offset=".9" stop-color="#12161a"/>
      <stop offset="1" stop-color="#283140"/>
    </linearGradient>
    <linearGradient id="_未命名的渐变_21-2" data-name="未命名的渐变 21" x1="51.36" y1="92.29" x2="95.78" y2="92.29" xlink:href="#_未命名的渐变_21"/>
    <linearGradient id="_未命名的渐变_2-3" data-name="未命名的渐变 2" x1="1657.29" y1="79.9" x2="1660.76" y2="79.9" xlink:href="#_未命名的渐变_2"/>
    <linearGradient id="_未命名的渐变_4" data-name="未命名的渐变 4" x1="67.05" y1="90.62" x2="59" y2="104.57" gradientUnits="userSpaceOnUse">
      <stop offset="0" stop-color="#38455a"/>
      <stop offset=".15" stop-color="#7a95c9"/>
      <stop offset=".25" stop-color="#7a95c9"/>
      <stop offset=".9" stop-color="#12161a"/>
      <stop offset="1" stop-color="#283140"/>
    </linearGradient>
    <linearGradient id="_未命名的渐变_4-2" data-name="未命名的渐变 4" x1="65.51" y1="77" x2="56.33" y2="92.9" xlink:href="#_未命名的渐变_4"/>
    <linearGradient id="_未命名的渐变_4-3" data-name="未命名的渐变 4" x1="68.12" y1="107" x2="62.07" y2="117.48" xlink:href="#_未命名的渐变_4"/>
    <linearGradient id="_未命名的渐变_2-4" data-name="未命名的渐变 2" x1="1657.29" y1="50.77" x2="1660.76" y2="50.77" xlink:href="#_未命名的渐变_2"/>
    <linearGradient id="_未命名的渐变_2-5" data-name="未命名的渐变 2" x1="1677.5" y1="92.88" x2="1680.97" y2="92.88" xlink:href="#_未命名的渐变_2"/>
    <linearGradient id="_未命名的渐变_2-6" data-name="未命名的渐变 2" x1="1677.5" y1="55.95" x2="1680.97" y2="55.95" xlink:href="#_未命名的渐变_2"/>
    <linearGradient id="_未命名的渐变_124" data-name="未命名的渐变 124" x1="48.45" y1="46.35" x2="66.38" y2="46.35" gradientUnits="userSpaceOnUse">
      <stop offset="0" stop-color="#38455a"/>
      <stop offset=".15" stop-color="#7a95c9"/>
      <stop offset=".25" stop-color="#7a95c9"/>
      <stop offset="1" stop-color="#637ba2"/>
    </linearGradient>
    <linearGradient id="_未命名的渐变_21-3" data-name="未命名的渐变 21" x1="66.38" y1="31.92" x2="104.36" y2="31.92" xlink:href="#_未命名的渐变_21"/>
    <linearGradient id="_未命名的渐变_13-4" data-name="未命名的渐变 13" x1="69.25" y1="5.94" x2="91.52" y2="44.51" xlink:href="#_未命名的渐变_13"/>
    <linearGradient id="_未命名的渐变_39" data-name="未命名的渐变 39" x1="69.22" y1="13.16" x2="83.65" y2="13.5" gradientUnits="userSpaceOnUse">
      <stop offset="0" stop-color="#2a73e3"/>
      <stop offset=".15" stop-color="#59c5f8"/>
      <stop offset=".31" stop-color="#59c5f8"/>
      <stop offset=".8" stop-color="#1433c9"/>
      <stop offset="1" stop-color="#2a73e3"/>
    </linearGradient>
    <linearGradient id="_未命名的渐变_39-2" data-name="未命名的渐变 39" x1="75.84" y1="8.75" x2="76.25" y2="8.75" xlink:href="#_未命名的渐变_39"/>
    <linearGradient id="_未命名的渐变_39-3" data-name="未命名的渐变 39" x1="75.09" y1="14.02" x2="75.59" y2="14.02" xlink:href="#_未命名的渐变_39"/>
    <linearGradient id="_未命名的渐变_39-4" data-name="未命名的渐变 39" x1="75.6" y1="8.75" x2="75.84" y2="8.75" xlink:href="#_未命名的渐变_39"/>
    <linearGradient id="_未命名的渐变_39-5" data-name="未命名的渐变 39" x1="74.65" y1="14.06" x2="75.09" y2="14.06" xlink:href="#_未命名的渐变_39"/>
    <linearGradient id="_未命名的渐变_39-6" data-name="未命名的渐变 39" x1="70.17" y1="10.91" x2="70.33" y2="10.91" xlink:href="#_未命名的渐变_39"/>
    <linearGradient id="_未命名的渐变_39-7" data-name="未命名的渐变 39" x1="65.51" y1="21.49" x2="86.59" y2="20.62" xlink:href="#_未命名的渐变_39"/>
    <linearGradient id="_未命名的渐变_39-8" data-name="未命名的渐变 39" x1="65.35" y1="17.72" x2="86.44" y2="16.85" xlink:href="#_未命名的渐变_39"/>
    <linearGradient id="_未命名的渐变_39-9" data-name="未命名的渐变 39" x1="84.84" y1="16.85" x2="61.13" y2="5.15" xlink:href="#_未命名的渐变_39"/>
    <linearGradient id="_未命名的渐变_39-10" data-name="未命名的渐变 39" x1="64.91" y1="12.6" x2="84.24" y2="12.62" xlink:href="#_未命名的渐变_39"/>
  </defs>
  <g id="_图元" data-name="图元">
    <g id="_旋风分离器" data-name="旋风分离器">
      <g id="_背景" data-name="背景" class="cls-46">
        <rect class="cls-41" width="150" height="150"/>
        <rect id="_网格" data-name="网格" class="cls-25" width="150" height="150"/>
      </g>
      <g>
        <g class="cls-45">
          <polygon class="cls-2" points="95.64 133.05 95.64 133.7 91.05 136.36 91.05 135.7 92.42 134.9 94.36 133.78 95.64 133.05"/>
          <polygon class="cls-21" points="91.05 136.36 87.53 134.31 87.53 133.65 91.05 135.7 91.05 136.36"/>
          <polygon class="cls-1" points="92.12 131 90.84 131.74 88.9 132.86 87.53 133.65 91.05 135.7 92.42 134.9 94.36 133.78 95.64 133.05 92.12 131"/>
        </g>
        <g class="cls-45">
          <polygon class="cls-16" points="55.58 131.12 55.58 131.78 50.99 134.43 50.99 133.77 52.36 132.98 54.3 131.86 55.58 131.12"/>
          <polygon class="cls-6" points="50.99 134.43 47.47 132.39 47.47 131.73 50.99 133.77 50.99 134.43"/>
          <polygon class="cls-19" points="52.06 129.08 50.79 129.81 48.84 130.93 47.47 131.73 50.99 133.77 52.36 132.98 54.3 131.86 55.58 131.12 52.06 129.08"/>
        </g>
        <g class="cls-45">
          <polygon class="cls-17" points="75.89 146.05 75.89 146.7 71.3 149.36 71.3 148.7 72.67 147.9 74.62 146.78 75.89 146.05"/>
          <polygon class="cls-7" points="71.3 149.36 67.78 147.31 67.78 146.65 71.3 148.7 71.3 149.36"/>
          <polygon class="cls-18" points="72.37 144 71.1 144.74 69.15 145.86 67.78 146.65 71.3 148.7 72.67 147.9 74.62 146.78 75.89 146.05 72.37 144"/>
        </g>
        <g>
          <g class="cls-45">
            <polygon class="cls-26" points="50.76 76.96 52.49 77.96 50.75 78.97 49.02 77.96 50.76 76.96"/>
            <polygon class="cls-39" points="50.75 78.97 50.81 132.49 49.09 131.49 49.02 77.96 50.75 78.97"/>
            <polygon class="cls-38" points="52.49 77.96 52.55 131.49 50.81 132.49 50.75 78.97 52.49 77.96"/>
          </g>
          <g class="cls-45">
            <polygon class="cls-34" points="50.76 40.03 52.49 41.03 50.75 42.04 49.02 41.03 50.76 40.03"/>
            <polygon class="cls-39" points="50.75 42.04 50.81 85.6 49.09 84.59 49.02 41.03 50.75 42.04"/>
            <polygon class="cls-38" points="52.49 41.03 52.55 84.59 50.81 85.6 50.75 42.04 52.49 41.03"/>
          </g>
        </g>
        <path class="cls-3" d="m93.6,32.22c-.03,12.11-.05,24.24-.08,36.35-.05.18-.08.37-.13.55-.69,1.42-1.87,3.32-3.75,5.14-6.17,6.01-14.67,5.78-17.65,5.7-12.5-.34-20.81-9.1-22.87-11.4-.03-.05-.08-.08-.11-.13v-36.22h44.58Z"/>
        <path class="cls-43" d="m93.52,68.57v.29c-.03.08-.08.16-.13.26.05-.18.08-.37.13-.55Z"/>
        <path class="cls-22" d="m93.39,69.04c-3.98,14.31-7.99,28.64-11.98,42.95-.24.44-.66,1.08-1.4,1.7-.32.24-1.13.91-3.06,1.5-.47.15-2.59.79-5.67.82-1.24,0-3.19-.02-5.46-.73-1.69-.53-2.56-1.15-2.85-1.37-.9-.66-1.42-1.37-1.74-1.85-4.04-14.49-8.07-28.99-12.11-43.48,2.06,1.92,10.37,9.25,22.87,9.54,2.98.07,11.48.26,17.65-4.77,1.87-1.52,3.06-3.11,3.75-4.31Z"/>
        <g class="cls-45">
          <polygon class="cls-31" points="91.53 78.9 93.25 79.9 91.52 80.9 89.79 79.9 91.53 78.9"/>
          <polygon class="cls-39" points="91.52 80.9 91.58 134.43 89.86 133.43 89.79 79.9 91.52 80.9"/>
          <polygon class="cls-38" points="93.25 79.9 93.32 133.43 91.58 134.43 91.52 80.9 93.25 79.9"/>
        </g>
        <path class="cls-27" d="m71.26,88.24c-10.32,0-18.41-2.25-18.41-5.13h.32c0,2.61,8.28,4.81,18.09,4.81s18.09-2.2,18.09-4.81h.32c0,2.88-8.09,5.13-18.41,5.13Z"/>
        <path class="cls-30" d="m70.27,73.7c-11.92,0-21.25-2.25-21.25-5.13h.37c0,2.61,9.56,4.81,20.88,4.81s20.88-2.2,20.88-4.81h.37c0,2.88-9.33,5.13-21.25,5.13Z"/>
        <path class="cls-29" d="m71.38,106.19c-7.42,0-13.23-2.25-13.23-5.13h.23c0,2.61,5.95,4.81,13,4.81s13.01-2.2,13.01-4.81h.23c0,2.88-5.81,5.13-13.24,5.13Z"/>
        <g class="cls-45">
          <polygon class="cls-35" points="91.53 49.94 93.26 50.77 91.52 51.6 89.79 50.77 91.53 49.94"/>
          <polygon class="cls-39" points="91.52 51.6 91.58 87.53 89.86 86.7 89.79 50.77 91.52 51.6"/>
          <polygon class="cls-38" points="93.26 50.77 93.32 86.7 91.58 87.53 91.52 51.6 93.26 50.77"/>
        </g>
        <g class="cls-45">
          <polygon class="cls-40" points="71.83 112.22 71.84 114.22 70.1 115.22 70.09 113.22 71.83 112.22"/>
          <polygon class="cls-39" points="70.09 113.22 70.1 115.22 51.53 104.43 51.53 102.43 70.09 113.22"/>
          <polygon class="cls-37" points="53.27 101.43 71.83 112.22 70.09 113.22 51.53 102.43 53.27 101.43"/>
        </g>
        <g class="cls-45">
          <polygon class="cls-40" points="71.19 112.22 71.18 114.22 72.92 115.22 72.93 113.22 71.19 112.22"/>
          <polygon class="cls-38" points="72.93 113.22 72.92 115.22 91.51 104.43 91.52 102.43 72.93 113.22"/>
          <polygon class="cls-37" points="89.78 101.43 71.19 112.22 72.93 113.22 91.52 102.43 89.78 101.43"/>
        </g>
        <g class="cls-45">
          <polygon class="cls-32" points="71.32 91.88 73.05 92.88 71.31 93.89 69.58 92.88 71.32 91.88"/>
          <polygon class="cls-39" points="71.31 93.89 71.37 147.41 69.65 146.41 69.58 92.88 71.31 93.89"/>
          <polygon class="cls-38" points="73.05 92.88 73.11 146.41 71.37 147.41 71.31 93.89 73.05 92.88"/>
        </g>
        <g class="cls-45">
          <polygon class="cls-33" points="71.32 54.95 73.05 55.95 71.31 56.95 69.58 55.95 71.32 54.95"/>
          <polygon class="cls-39" points="71.31 56.95 71.37 100.51 69.65 99.51 69.58 55.95 71.31 56.95"/>
          <polygon class="cls-38" points="73.05 55.95 73.11 99.51 71.37 100.51 71.31 56.95 73.05 55.95"/>
        </g>
        <path class="cls-36" d="m48.45,19.44c.18,1.05.57,2.61,1.51,4.27.35.62,1.4,2.36,3.91,4.31,4.5,3.5,10.25,5.02,12.51,5.54v39.69c-3.84.09-6.8-.31-8.71-.68-1.63-.31-2.46-.6-4.12-1.18-2.09-.73-2.93-1.22-3.6-1.99-.55-.63-.85-1.27-1.01-1.72-.16-16.08-.32-32.17-.47-48.25Z"/>
        <path class="cls-23" d="m104.2,30.34c-.34,1.73-1.21,4.79-3.72,7.4-1.08,1.12-2.57,2.29-6.46,3.79-3.32,1.28-10.06,3.78-19.59,3.42-2.13-.08-4.87-.32-8.04-.97v-10.41c10.77,1.01,19.38.28,24.05-1.16,3.69-1.14,6.52-3,6.52-3,.58-.38,1.29-.86,2.06-1.49.14-.12,1.44-1.21,2.44-2.46,1.92-2.41,2.65-5.32,2.92-6.58-.05,3.83-.1,7.66-.16,11.49Z"/>
        <ellipse class="cls-20" cx="76.71" cy="18.86" rx="27.97" ry="16.2"/>
        <path class="cls-5" d="m75.83,13.98h.4c-.19,0-.37,0-.56.02.05-.02.11-.02.16-.02Z"/>
        <g>
          <path class="cls-4" d="m82.96,12.63l-.02,5.24c0-1-.66-1.99-1.98-2.75-.29-.18-.63-.34-.96-.47-.03-.02-.05-.02-.08-.03-.24-.1-.48-.18-.72-.24-.22-.06-.45-.13-.69-.18h-.02c-.22-.05-.43-.08-.66-.11-.22-.03-.43-.05-.66-.08-.22-.02-.43-.02-.66-.03h-.69s-.11,0-.16.02h-.08c-.16.02-.34.02-.5.03-.14.02-.29.03-.43.06-.14.02-.29.03-.43.06-.24.05-.47.1-.71.14-.19.06-.39.11-.56.18-.27.08-.51.18-.76.29-.26.1-.48.23-.71.35-.03.02-.06.03-.08.05-.16.1-.32.19-.45.31-.14.1-.27.19-.39.31l-.02.02c-.14.14-.29.29-.4.43-.02.02-.03.03-.03.05-.05.05-.08.1-.11.16-.05.06-.08.13-.13.19-.08.13-.13.26-.18.39-.05.13-.08.26-.11.37-.03.13-.05.26-.05.39l.02-5.17v-.06c0-.11.02-.24.05-.35v-.03c.02-.13.06-.22.11-.35v-.02c.05-.13.1-.24.18-.37v-.02c.08-.13.16-.26.27-.39.05-.06.1-.13.16-.19.06-.1.16-.18.24-.26l.02-.02c.11-.11.24-.21.39-.31.14-.11.29-.21.45-.31.02-.02.05-.03.08-.05.22-.13.45-.26.71-.35.24-.11.48-.21.76-.29.18-.06.37-.11.56-.18.22-.05.47-.1.71-.14.29-.05.58-.1.87-.13.16-.02.32-.02.5-.03h.24c.13-.02.27-.02.4-.02h.29c.22,0,.43.02.66.03.05,0,.1,0,.14.02.16.02.32.03.48.06h.03c.22.03.43.06.66.11h.02c.24.05.45.11.69.18.13.03.27.08.4.13.14.03.27.1.4.14.34.13.67.29.96.47,1.32.76,1.98,1.75,1.98,2.75Z"/>
          <path class="cls-12" d="m76.25,8.74c-.13,0-.27,0-.4.02v-.02h.4Z"/>
          <path class="cls-14" d="m75.09,14.03c.16-.02.34-.02.5-.03-.18.02-.34.03-.5.05v-.02Z"/>
          <path class="cls-15" d="m75.84,8.74v.02h-.24c.08,0,.16-.02.24-.02Z"/>
          <path class="cls-11" d="m75.09,14.03v.02c-.14.02-.29.02-.43.05.14-.03.29-.05.43-.06Z"/>
          <path class="cls-10" d="m70.33,10.81c-.06.06-.11.13-.16.19v-.02c.05-.06.1-.11.16-.18Z"/>
        </g>
        <path class="cls-5" d="m72.04,21.45c.42.18.85.31,1.3.42-.13-.03-.26-.06-.39-.11-.32-.08-.63-.19-.92-.31Z"/>
        <path class="cls-5" d="m75.21,22.16c.5.04,1,.06,1.5.05h-.77c-.24,0-.48-.02-.73-.05Z"/>
        <path class="cls-5" d="m73.34,21.87c.45.11.92.18,1.39.24-.08-.01-.16-.01-.25-.03-.26-.03-.5-.08-.76-.13-.13-.02-.26-.05-.39-.08Z"/>
        <path class="cls-5" d="m75.2,22.16s0,0,0,0c-.16-.01-.32-.03-.48-.05.16.02.32.04.48.05Z"/>
        <path class="cls-5" d="m76.73,16.97h-.45c.21,0,.42,0,.63-.02-.05.02-.11.02-.18.02Z"/>
        <path class="cls-5" d="m76.71,22.2c.61-.02,1.22-.08,1.8-.19-.32.05-.63.1-.96.13-.27.03-.55.05-.84.06Z"/>
        <path class="cls-5" d="m79.94,16.42c-.06.02-.11.03-.18.05.22-.06.43-.14.64-.22-.14.06-.31.13-.47.18Z"/>
        <path class="cls-5" d="m82.09,15.36c-.13.1-.27.19-.42.29-.03.02-.06.03-.1.05.18-.11.35-.21.51-.34Z"/>
        <g>
          <path class="cls-8" d="m81.66,20.87c.06-.03.13-.06.19-.11-.06.05-.13.1-.19.13v-.02Z"/>
          <path class="cls-9" d="m83.77,12.71l-.02,5.24c0,.13-.02.27-.05.4v.03c-.02.14-.06.26-.11.4v.02c-.06.14-.13.27-.21.42v.02c-.05.1-.11.19-.18.27-.03.05-.06.11-.13.16v.02c-.13.16-.29.34-.47.5-.13.11-.27.24-.43.35-.1.08-.21.16-.32.22-.06.05-.13.08-.19.11v.02s-.06.03-.1.05c-.24.14-.5.27-.77.39-.02.02-.03.02-.06.03-.26.11-.51.21-.79.31-.47.14-.93.26-1.43.35-.32.05-.63.1-.96.13-.27.03-.55.05-.84.06h-.77c-.24,0-.48-.02-.74-.05-.24-.02-.48-.03-.72-.08-.26-.03-.5-.08-.76-.13-.13-.02-.26-.05-.39-.08-.13-.03-.26-.06-.39-.11-.32-.08-.63-.19-.92-.31-.39-.14-.74-.32-1.08-.51-1.48-.85-2.22-1.98-2.22-3.1l.02-5.21c0,1.11.76,2.23,2.22,3.07.34.19.69.37,1.08.51.29.11.59.22.9.31.26.08.53.14.79.19.05.02.08.02.13.02.21.05.42.08.63.11.24.03.48.06.72.08.24.03.5.03.74.05h.77c.06,0,.13,0,.18-.02.22,0,.45-.02.66-.05.32-.03.64-.08.96-.13.42-.08.84-.18,1.24-.31.06-.02.11-.03.18-.05.16-.05.32-.11.47-.18.19-.06.39-.14.58-.24.21-.1.4-.19.59-.31.03-.02.06-.03.1-.05.14-.1.29-.19.42-.29.08-.05.16-.1.22-.16.11-.1.21-.18.31-.26.18-.16.34-.34.47-.5.05-.06.1-.13.13-.18.08-.1.13-.19.18-.27.08-.14.14-.29.21-.43.05-.14.08-.29.11-.42.03-.14.05-.29.05-.43Z"/>
        </g>
        <path class="cls-13" d="m81.56,9.54c-2.94-1.7-7.71-1.7-10.64,0-2.91,1.69-2.89,4.45.05,6.15,2.92,1.69,7.7,1.69,10.61,0,2.92-1.7,2.91-4.47-.02-6.15Zm-.55,5.82c-2.6,1.51-6.86,1.51-9.48,0-2.62-1.51-2.64-3.97-.03-5.48,2.6-1.53,6.86-1.53,9.48,0,2.62,1.51,2.64,3.97.03,5.48Z"/>
        <path class="cls-24" d="m81.02,15.36c-2.6,1.51-6.86,1.51-9.48,0-2.62-1.51-2.64-3.97-.03-5.48,2.6-1.53,6.86-1.53,9.48,0,2.62,1.51,2.64,3.97.03,5.48Z"/>
      </g>
    </g>
  </g>
</svg>