<svg xmlns="http://www.w3.org/2000/svg" xmlns:xlink="http://www.w3.org/1999/xlink" viewBox="0 0 94.06 150"><defs><style>.cls-1{fill:#3d3938;}.cls-2{fill:url(#未命名的渐变_105);}.cls-3{fill:url(#未命名的渐变_105-2);}.cls-4{fill:url(#未命名的渐变_105-3);}.cls-5{fill:url(#未命名的渐变_105-4);}.cls-6{fill:url(#未命名的渐变_105-5);}.cls-7{fill:url(#未命名的渐变_105-6);}.cls-8{fill:url(#未命名的渐变_105-7);}.cls-9{fill:url(#未命名的渐变_105-8);}.cls-10{fill:url(#未命名的渐变_105-9);}.cls-11{fill:url(#未命名的渐变_105-10);}.cls-12{fill:url(#未命名的渐变_67);}.cls-13{fill:url(#未命名的渐变_67-2);}.cls-14{fill:url(#未命名的渐变_105-11);}.cls-15{fill:url(#未命名的渐变_105-12);}.cls-16{fill:url(#未命名的渐变_105-13);}.cls-17{fill:url(#未命名的渐变_105-14);}.cls-18{fill:url(#未命名的渐变_105-15);}.cls-19{fill:url(#未命名的渐变_105-16);}.cls-20{fill:url(#未命名的渐变_105-17);}.cls-21{fill:url(#未命名的渐变_105-18);}.cls-22{fill:url(#未命名的渐变_105-19);}.cls-23{fill:url(#未命名的渐变_105-20);}.cls-24{fill:url(#未命名的渐变_105-21);}.cls-25{fill:url(#未命名的渐变_105-22);}.cls-26{fill:url(#未命名的渐变_105-23);}.cls-27{fill:url(#未命名的渐变_105-24);}.cls-28{fill:url(#未命名的渐变_105-25);}.cls-29{fill:url(#未命名的渐变_105-26);}.cls-30{fill:url(#未命名的渐变_105-27);}.cls-31{fill:url(#未命名的渐变_105-28);}.cls-32{fill:url(#未命名的渐变_105-29);}.cls-33{opacity:0.2;}</style><linearGradient id="未命名的渐变_105" x1="1.8" y1="13.81" x2="94.06" y2="13.81" gradientUnits="userSpaceOnUse"><stop offset="0" stop-color="#e2e2e2"/><stop offset="0.03" stop-color="#d0d0d0"/><stop offset="0.06" stop-color="#bcbcbc"/><stop offset="0.09" stop-color="#b5b5b5"/><stop offset="0.49" stop-color="#f6f6f6"/><stop offset="0.63" stop-color="#f3f3f3"/><stop offset="0.73" stop-color="#eaeaea"/><stop offset="0.82" stop-color="#dbdbdb"/><stop offset="0.9" stop-color="#c6c6c6"/><stop offset="0.97" stop-color="#aaa"/><stop offset="1" stop-color="#9b9b9b"/></linearGradient><linearGradient id="未命名的渐变_105-2" x1="1.28" y1="10.96" x2="4.85" y2="10.96" xlink:href="#未命名的渐变_105"/><linearGradient id="未命名的渐变_105-3" x1="12.18" y1="10.96" x2="15.75" y2="10.96" xlink:href="#未命名的渐变_105"/><linearGradient id="未命名的渐变_105-4" x1="23.41" y1="10.96" x2="26.98" y2="10.96" xlink:href="#未命名的渐变_105"/><linearGradient id="未命名的渐变_105-5" x1="36.81" y1="10.96" x2="40.39" y2="10.96" xlink:href="#未命名的渐变_105"/><linearGradient id="未命名的渐变_105-6" x1="53.66" y1="10.96" x2="57.23" y2="10.96" xlink:href="#未命名的渐变_105"/><linearGradient id="未命名的渐变_105-7" x1="67.12" y1="10.96" x2="70.69" y2="10.96" xlink:href="#未命名的渐变_105"/><linearGradient id="未命名的渐变_105-8" x1="78.43" y1="10.96" x2="82" y2="10.96" xlink:href="#未命名的渐变_105"/><linearGradient id="未命名的渐变_105-9" x1="89.47" y1="10.96" x2="93.04" y2="10.96" xlink:href="#未命名的渐变_105"/><linearGradient id="未命名的渐变_105-10" x1="-1057.29" y1="475.64" x2="-1057.29" y2="385.27" gradientTransform="translate(1104.5 -406.77)" xlink:href="#未命名的渐变_105"/><linearGradient id="未命名的渐变_67" x1="-1067.3" y1="477.61" x2="-1067.3" y2="383.61" gradientTransform="translate(1114.36 -416.93)" gradientUnits="userSpaceOnUse"><stop offset="0" stop-color="#6b6b6b"/><stop offset="0.11" stop-color="#767676"/><stop offset="0.3" stop-color="#959595"/><stop offset="0.41" stop-color="#aaa"/><stop offset="0.56" stop-color="#ccc"/><stop offset="0.71" stop-color="#eaeaea"/><stop offset="0.8" stop-color="#f6f6f6"/><stop offset="0.83" stop-color="#ededed"/><stop offset="0.87" stop-color="#d4d4d4"/><stop offset="0.92" stop-color="#ababab"/><stop offset="0.98" stop-color="#737373"/><stop offset="0.99" stop-color="#666"/></linearGradient><linearGradient id="未命名的渐变_67-2" x1="-943.88" y1="477.67" x2="-943.88" y2="383.68" gradientTransform="translate(990.88 -293.58)" xlink:href="#未命名的渐变_67"/><linearGradient id="未命名的渐变_105-11" x1="-1045.51" y1="475.64" x2="-1045.51" y2="385.27" gradientTransform="translate(1092.73 -394.99)" xlink:href="#未命名的渐变_105"/><linearGradient id="未命名的渐变_105-12" x1="-1034.1" y1="476.07" x2="-1034.1" y2="385.7" gradientTransform="translate(1080.89 -384.01)" xlink:href="#未命名的渐变_105"/><linearGradient id="未命名的渐变_105-13" x1="-1022.48" y1="476.07" x2="-1022.48" y2="385.7" gradientTransform="translate(1069.26 -372.38)" xlink:href="#未命名的渐变_105"/><linearGradient id="未命名的渐变_105-14" x1="-1010.7" y1="476.07" x2="-1010.7" y2="385.7" gradientTransform="translate(1057.49 -360.61)" xlink:href="#未命名的渐变_105"/><linearGradient id="未命名的渐变_105-15" x1="-999.31" y1="475.64" x2="-999.31" y2="385.27" gradientTransform="translate(1046.52 -348.79)" xlink:href="#未命名的渐变_105"/><linearGradient id="未命名的渐变_105-16" x1="-987.42" y1="475.64" x2="-987.42" y2="385.27" gradientTransform="translate(1034.63 -336.9)" xlink:href="#未命名的渐变_105"/><linearGradient id="未命名的渐变_105-17" x1="-975.95" y1="475.64" x2="-975.95" y2="385.27" gradientTransform="translate(1023.16 -325.43)" xlink:href="#未命名的渐变_105"/><linearGradient id="未命名的渐变_105-18" x1="-964.27" y1="475.64" x2="-964.27" y2="385.27" gradientTransform="translate(1011.48 -313.74)" xlink:href="#未命名的渐变_105"/><linearGradient id="未命名的渐变_105-19" x1="-952.93" y1="476.07" x2="-952.93" y2="385.7" gradientTransform="translate(999.71 -302.83)" xlink:href="#未命名的渐变_105"/><linearGradient id="未命名的渐变_105-20" x1="1.28" y1="75.39" x2="2.78" y2="75.39" xlink:href="#未命名的渐变_105"/><linearGradient id="未命名的渐变_105-21" x1="6.4" y1="75.39" x2="7.9" y2="75.39" xlink:href="#未命名的渐变_105"/><linearGradient id="未命名的渐变_105-22" x1="14.61" y1="75.39" x2="16.12" y2="75.39" xlink:href="#未命名的渐变_105"/><linearGradient id="未命名的渐变_105-23" x1="24.97" y1="75.39" x2="26.47" y2="75.39" xlink:href="#未命名的渐变_105"/><linearGradient id="未命名的渐变_105-24" x1="38.18" y1="75.61" x2="39.68" y2="75.61" xlink:href="#未命名的渐变_105"/><linearGradient id="未命名的渐变_105-25" x1="54.58" y1="75.39" x2="56.09" y2="75.39" xlink:href="#未命名的渐变_105"/><linearGradient id="未命名的渐变_105-26" x1="68.15" y1="75.61" x2="69.66" y2="75.61" xlink:href="#未命名的渐变_105"/><linearGradient id="未命名的渐变_105-27" x1="77.97" y1="75.61" x2="79.47" y2="75.61" xlink:href="#未命名的渐变_105"/><linearGradient id="未命名的渐变_105-28" x1="86.2" y1="75.39" x2="87.7" y2="75.39" xlink:href="#未命名的渐变_105"/><linearGradient id="未命名的渐变_105-29" x1="91.65" y1="75.39" x2="93.15" y2="75.39" xlink:href="#未命名的渐变_105"/></defs><title>Glass lined tank（搪玻璃罐）</title><g id="图层_2" data-name="图层 2"><g id="图层_104" data-name="图层 104"><g id="Glass_lined_tank_搪玻璃罐_" data-name="Glass lined tank（搪玻璃罐）"><rect class="cls-1" x="36.17" y="1.89" width="21.95" height="3.85"/><rect class="cls-1" x="33.07" width="28.14" height="1.89"/><ellipse class="cls-2" cx="47.93" cy="13.81" rx="46.13" ry="9.88"/><rect class="cls-1" x="4.71" y="138.64" width="10.32" height="11.36"/><rect class="cls-1" x="79.47" y="138.64" width="10.32" height="11.36"/><rect class="cls-3" x="1.28" y="9.78" width="3.58" height="2.35"/><rect class="cls-4" x="12.18" y="9.78" width="3.58" height="2.35"/><rect class="cls-5" x="23.41" y="9.78" width="3.58" height="2.35"/><rect class="cls-6" x="36.81" y="9.78" width="3.58" height="2.35"/><rect class="cls-7" x="53.66" y="9.78" width="3.58" height="2.35"/><rect class="cls-8" x="67.12" y="9.78" width="3.58" height="2.35"/><rect class="cls-9" x="78.43" y="9.78" width="3.58" height="2.35"/><rect class="cls-10" x="89.47" y="9.78" width="3.58" height="2.35"/><rect class="cls-1" x="1.8" y="15.22" width="90.17" height="120.33"/><rect class="cls-11" x="46.05" y="-21.49" width="2.32" height="90.37" transform="translate(70.91 -23.52) rotate(90)"/><rect class="cls-12" x="45.52" y="-33.32" width="3.09" height="93.99" transform="translate(60.74 -33.38) rotate(90)"/><rect class="cls-13" x="45.45" y="90.1" width="3.09" height="93.99" transform="translate(184.1 90.1) rotate(90)"/><rect class="cls-14" x="46.05" y="-9.72" width="2.32" height="90.37" transform="translate(82.68 -11.75) rotate(90)"/><rect class="cls-15" x="45.62" y="1.69" width="2.32" height="90.37" transform="translate(93.66 0.09) rotate(90)"/><rect class="cls-16" x="45.62" y="13.32" width="2.32" height="90.37" transform="translate(105.29 11.72) rotate(90)"/><rect class="cls-17" x="45.62" y="25.09" width="2.32" height="90.37" transform="translate(117.06 23.49) rotate(90)"/><rect class="cls-18" x="46.05" y="36.48" width="2.32" height="90.37" transform="translate(128.88 34.46) rotate(90)"/><rect class="cls-19" x="46.05" y="48.38" width="2.32" height="90.37" transform="translate(140.77 46.35) rotate(90)"/><rect class="cls-20" x="46.05" y="59.84" width="2.32" height="90.37" transform="translate(152.24 57.82) rotate(90)"/><rect class="cls-21" x="46.05" y="71.53" width="2.32" height="90.37" transform="translate(163.93 69.5) rotate(90)"/><rect class="cls-22" x="45.62" y="82.87" width="2.32" height="90.37" transform="translate(174.84 81.27) rotate(90)"/><rect class="cls-23" x="1.28" y="15.22" width="1.5" height="120.33"/><rect class="cls-24" x="6.4" y="15.22" width="1.5" height="120.33"/><rect class="cls-25" x="14.61" y="15.22" width="1.5" height="120.33"/><rect class="cls-26" x="24.97" y="15.22" width="1.5" height="120.33"/><rect class="cls-27" x="38.18" y="15.44" width="1.5" height="120.33"/><rect class="cls-28" x="54.58" y="15.22" width="1.5" height="120.33"/><rect class="cls-29" x="68.15" y="15.44" width="1.5" height="120.33"/><rect class="cls-30" x="77.97" y="15.44" width="1.5" height="120.33"/><rect class="cls-31" x="86.2" y="15.22" width="1.5" height="120.33"/><rect class="cls-32" x="91.65" y="15.22" width="1.5" height="120.33"/></g></g></g></svg>