<svg xmlns="http://www.w3.org/2000/svg" xmlns:xlink="http://www.w3.org/1999/xlink" viewBox="0 0 66.93 150"><defs><style>.cls-1{fill:url(#未命名的渐变_67);}.cls-2{fill:url(#未命名的渐变_105);}.cls-3{fill:#dadbe0;}.cls-4{fill:url(#未命名的渐变_67-2);}.cls-5{fill:url(#未命名的渐变_67-3);}.cls-6{fill:url(#未命名的渐变_67-4);}.cls-7{fill:url(#未命名的渐变_67-5);}.cls-8{fill:url(#未命名的渐变_67-6);}.cls-9{fill:url(#未命名的渐变_67-7);}.cls-10{fill:url(#未命名的渐变_67-8);}.cls-11{fill:url(#未命名的渐变_67-9);}.cls-12{fill:url(#未命名的渐变_67-10);}.cls-13{fill:url(#未命名的渐变_67-11);}.cls-14{fill:url(#未命名的渐变_67-12);}.cls-15{fill:url(#未命名的渐变_67-13);}.cls-16{fill:url(#未命名的渐变_67-14);}.cls-17{opacity:0.2;}</style><linearGradient id="未命名的渐变_67" x1="18.4" y1="12.05" x2="48.32" y2="12.05" gradientUnits="userSpaceOnUse"><stop offset="0" stop-color="#6b6b6b"/><stop offset="0.11" stop-color="#767676"/><stop offset="0.3" stop-color="#959595"/><stop offset="0.41" stop-color="#aaa"/><stop offset="0.56" stop-color="#ccc"/><stop offset="0.71" stop-color="#eaeaea"/><stop offset="0.8" stop-color="#f6f6f6"/><stop offset="0.83" stop-color="#ededed"/><stop offset="0.87" stop-color="#d4d4d4"/><stop offset="0.92" stop-color="#ababab"/><stop offset="0.98" stop-color="#737373"/><stop offset="0.99" stop-color="#666"/></linearGradient><linearGradient id="未命名的渐变_105" x1="-1125.81" y1="61.84" x2="-1125.81" y2="-5.04" gradientTransform="translate(61.89 1202.2) rotate(90)" gradientUnits="userSpaceOnUse"><stop offset="0" stop-color="#e2e2e2"/><stop offset="0.03" stop-color="#d0d0d0"/><stop offset="0.06" stop-color="#bcbcbc"/><stop offset="0.09" stop-color="#b5b5b5"/><stop offset="0.49" stop-color="#f6f6f6"/><stop offset="0.63" stop-color="#f3f3f3"/><stop offset="0.73" stop-color="#eaeaea"/><stop offset="0.82" stop-color="#dbdbdb"/><stop offset="0.9" stop-color="#c6c6c6"/><stop offset="0.97" stop-color="#aaa"/><stop offset="1" stop-color="#9b9b9b"/></linearGradient><linearGradient id="未命名的渐变_67-2" x1="0" y1="25.86" x2="66.84" y2="25.86" xlink:href="#未命名的渐变_67"/><linearGradient id="未命名的渐变_67-3" x1="12.7" y1="4.73" x2="16.08" y2="4.73" xlink:href="#未命名的渐变_67"/><linearGradient id="未命名的渐变_67-4" x1="20.28" y1="4.73" x2="23.66" y2="4.73" xlink:href="#未命名的渐变_67"/><linearGradient id="未命名的渐变_67-5" x1="27.87" y1="4.73" x2="31.24" y2="4.73" xlink:href="#未命名的渐变_67"/><linearGradient id="未命名的渐变_67-6" x1="35.45" y1="4.73" x2="38.83" y2="4.73" xlink:href="#未命名的渐变_67"/><linearGradient id="未命名的渐变_67-7" x1="43.04" y1="4.73" x2="46.41" y2="4.73" xlink:href="#未命名的渐变_67"/><linearGradient id="未命名的渐变_67-8" x1="50.62" y1="4.73" x2="54" y2="4.73" xlink:href="#未命名的渐变_67"/><linearGradient id="未命名的渐变_67-9" x1="0" y1="59.07" x2="66.84" y2="59.07" xlink:href="#未命名的渐变_67"/><linearGradient id="未命名的渐变_67-10" x1="0" y1="92.27" x2="66.84" y2="92.27" xlink:href="#未命名的渐变_67"/><linearGradient id="未命名的渐变_67-11" x1="0" y1="125.48" x2="66.84" y2="125.48" xlink:href="#未命名的渐变_67"/><linearGradient id="未命名的渐变_67-12" x1="11.57" y1="4.4" x2="55.18" y2="4.4" xlink:href="#未命名的渐变_67"/><linearGradient id="未命名的渐变_67-13" x1="10.13" y1="144.54" x2="56.6" y2="144.54" xlink:href="#未命名的渐变_67"/><linearGradient id="未命名的渐变_67-14" x1="10.13" y1="143.04" x2="56.6" y2="143.04" xlink:href="#未命名的渐变_67"/></defs><title>Hydropneumatic tank（液压气动油箱）</title><g id="图层_2" data-name="图层 2"><g id="图层_104" data-name="图层 104"><g id="Hydropneumatic_tank_液压气动油箱_" data-name="Hydropneumatic tank（液压气动油箱）"><rect class="cls-1" x="18.4" y="6.6" width="29.92" height="10.91"/><path class="cls-2" d="M66.93,125.79V24.73S65.55,11,32.46,11C2.55,11,.05,24.73.05,24.73V125.79s0,15.93,33.44,15.93S66.93,125.79,66.93,125.79Z"/><rect class="cls-3" x="19.41" y="31.29" width="27.73" height="21.73" rx="0.86"/><rect class="cls-4" y="25.23" width="66.84" height="1.26"/><rect class="cls-5" x="12.7" width="3.38" height="9.45"/><rect class="cls-6" x="20.28" width="3.38" height="9.45"/><rect class="cls-7" x="27.87" width="3.38" height="9.45"/><rect class="cls-8" x="35.45" width="3.38" height="9.45"/><rect class="cls-9" x="43.04" width="3.38" height="9.45"/><rect class="cls-10" x="50.62" width="3.38" height="9.45"/><rect class="cls-11" y="58.44" width="66.84" height="1.26"/><rect class="cls-12" y="91.64" width="66.84" height="1.26"/><rect class="cls-13" y="124.85" width="66.84" height="1.26"/><rect class="cls-14" x="11.57" y="2.2" width="43.61" height="4.4"/><rect class="cls-15" x="10.13" y="139.09" width="46.47" height="10.91"/><rect class="cls-3" x="15.44" y="140.99" width="12.98" height="6.91"/><rect class="cls-3" x="38.86" y="140.99" width="12.98" height="6.91"/><rect class="cls-16" x="10.13" y="137.58" width="46.47" height="10.91"/><rect class="cls-3" x="15.44" y="139.49" width="12.98" height="6.91"/><rect class="cls-3" x="38.86" y="139.49" width="12.98" height="6.91"/></g></g></g></svg>