<svg xmlns="http://www.w3.org/2000/svg" xmlns:xlink="http://www.w3.org/1999/xlink" viewBox="0 0 49.29 150.15"><defs><style>.cls-1{fill:url(#未命名的渐变_143);}.cls-2{fill:url(#未命名的渐变_105);}.cls-3{fill:url(#未命名的渐变_67);}.cls-4{fill:url(#未命名的渐变_67-2);}.cls-5{fill:url(#未命名的渐变_143-2);}.cls-6{fill:url(#未命名的渐变_143-3);}.cls-7{fill:url(#未命名的渐变_143-4);}.cls-8{fill:url(#未命名的渐变_143-5);}.cls-9{opacity:0.2;}</style><linearGradient id="未命名的渐变_143" x1="25.37" y1="5.97" x2="29.37" y2="5.97" gradientUnits="userSpaceOnUse"><stop offset="0" stop-color="#b7b7b7"/><stop offset="0.03" stop-color="#9b9d9d"/><stop offset="0.07" stop-color="#878b8b"/><stop offset="0.09" stop-color="#808484"/><stop offset="0.2" stop-color="#a3a6a6"/><stop offset="0.49" stop-color="#f6f6f6"/><stop offset="0.61" stop-color="#f3f3f3"/><stop offset="0.7" stop-color="#eaeaea"/><stop offset="0.77" stop-color="#dbdbdb"/><stop offset="0.83" stop-color="#c5c5c5"/><stop offset="0.9" stop-color="#aaa"/><stop offset="0.95" stop-color="#888"/><stop offset="1" stop-color="#666"/></linearGradient><linearGradient id="未命名的渐变_105" x1="818.99" y1="-1788.57" x2="818.99" y2="-1836.15" gradientTransform="matrix(0, 1, 1, 0, 1837.86, -741.03)" gradientUnits="userSpaceOnUse"><stop offset="0" stop-color="#e2e2e2"/><stop offset="0.03" stop-color="#d0d0d0"/><stop offset="0.06" stop-color="#bcbcbc"/><stop offset="0.09" stop-color="#b5b5b5"/><stop offset="0.49" stop-color="#f6f6f6"/><stop offset="0.63" stop-color="#f3f3f3"/><stop offset="0.73" stop-color="#eaeaea"/><stop offset="0.82" stop-color="#dbdbdb"/><stop offset="0.9" stop-color="#c6c6c6"/><stop offset="0.97" stop-color="#aaa"/><stop offset="1" stop-color="#9b9b9b"/></linearGradient><linearGradient id="未命名的渐变_67" x1="2.3" y1="-2297.51" x2="49.2" y2="-2297.51" gradientTransform="matrix(1, 0, 0, -0.72, 0, -1635.28)" gradientUnits="userSpaceOnUse"><stop offset="0" stop-color="#6b6b6b"/><stop offset="0.11" stop-color="#767676"/><stop offset="0.3" stop-color="#959595"/><stop offset="0.41" stop-color="#aaa"/><stop offset="0.56" stop-color="#ccc"/><stop offset="0.71" stop-color="#eaeaea"/><stop offset="0.8" stop-color="#f6f6f6"/><stop offset="0.83" stop-color="#ededed"/><stop offset="0.87" stop-color="#d4d4d4"/><stop offset="0.92" stop-color="#ababab"/><stop offset="0.98" stop-color="#737373"/><stop offset="0.99" stop-color="#666"/></linearGradient><linearGradient id="未命名的渐变_67-2" x1="2.3" y1="-2303" x2="49.2" y2="-2303" xlink:href="#未命名的渐变_67"/><linearGradient id="未命名的渐变_143-2" x1="955.76" y1="4.69" x2="955.76" y2="0" gradientTransform="matrix(-1, 0, 0, 1, 982.77, 0)" xlink:href="#未命名的渐变_143"/><linearGradient id="未命名的渐变_143-3" x1="307.14" y1="4.69" x2="307.14" y2="0" gradientTransform="translate(-304.61)" xlink:href="#未命名的渐变_143"/><linearGradient id="未命名的渐变_143-4" x1="14.77" y1="2.95" x2="14.77" y2="0" xlink:href="#未命名的渐变_143"/><linearGradient id="未命名的渐变_143-5" x1="810.85" y1="75.9" x2="814.5" y2="75.9" gradientTransform="matrix(1, 0, 0, -1, -810.78, 151.81)" xlink:href="#未命名的渐变_143"/></defs><title>Tank 1（油箱） (8)</title><g id="图层_2" data-name="图层 2"><g id="图层_104" data-name="图层 104"><g id="Tank_1_油箱_" data-name="Tank 1（油箱）"><rect class="cls-1" x="25.37" y="4.69" width="3.99" height="2.55"/><path class="cls-2" d="M1.71,146.85V19.79s0-14,23.79-14c25,0,23.78,14,23.78,14V146.85s-1,3.3-23.78,3.3C1.72,150.15,1.71,146.85,1.71,146.85Z"/><rect class="cls-3" x="2.3" y="18.15" width="46.9" height="1.54"/><rect class="cls-4" x="2.3" y="22.11" width="46.9" height="1.54"/><path class="cls-5" d="M24.55,3V0s2.83-.32,4.21,1.17c1.07,1.17.6,3.49.6,3.49h-4a1.75,1.75,0,0,0-.28-1.37C24.72,2.91,24.55,3,24.55,3Z"/><path class="cls-6" d="M5,3V0S2.16-.29.78,1.2C-.3,2.37.17,4.69.17,4.69h4a1.75,1.75,0,0,1,.28-1.37C4.81,2.91,5,3,5,3Z"/><rect class="cls-7" x="4.99" width="19.56" height="2.95"/><rect class="cls-8" x="0.07" y="4.31" width="3.65" height="143.18" transform="translate(3.79 151.81) rotate(180)"/></g></g></g></svg>