<svg xmlns="http://www.w3.org/2000/svg" viewBox="0 0 84 150"><defs><style>.cls-1{fill:#3a4197;}.cls-2{opacity:0.2;}</style></defs><title>高压线铁塔</title><g id="图层_2" data-name="图层 2"><g id="图层_1-2" data-name="图层 1"><g id="高压线铁塔"><rect class="cls-1" x="11.9" y="147.01" width="60.2" height="2.99"/><polygon class="cls-1" points="54.42 112.87 64.24 149.4 62.07 149.98 52.25 113.45 54.42 112.87"/><polygon class="cls-1" points="27.89 112.87 18.07 149.4 20.24 149.98 30.06 113.45 27.89 112.87"/><rect class="cls-1" y="75.75" width="84" height="2.99"/><path class="cls-1" d="M81.38,78.36H2.51L28.18,54.54H53.79ZM8.22,76.12H75.35L53,56.78H29.06Z"/><rect class="cls-1" x="-35.89" y="82.97" width="131.26" height="2.25" transform="translate(-54.35 113.84) rotate(-90)"/><rect class="cls-1" x="13.33" y="68.87" width="14.5" height="2.25" transform="translate(-49.41 90.57) rotate(-90)"/><rect class="cls-1" x="54.46" y="68.87" width="14.5" height="2.25" transform="translate(-8.28 131.7) rotate(-90)"/><rect class="cls-1" y="38.56" width="84" height="2.99"/><path class="cls-1" d="M81.38,41.17H2.51L28.18,17.35H53.79ZM8.22,38.93H75.35L53,19.59H29.06Z"/><rect class="cls-1" x="13.33" y="31.67" width="14.5" height="2.25" transform="translate(-12.22 53.38) rotate(-90)"/><rect class="cls-1" x="-3.07" y="43.18" width="8.51" height="2.25" transform="matrix(0, -1, 1, 0, -43.12, 45.49)"/><rect class="cls-1" x="78.62" y="43.18" width="8.51" height="2.25" transform="matrix(0, -1, 1, 0, 38.57, 127.18)"/><rect class="cls-1" x="-3.07" y="80.37" width="8.51" height="2.25" transform="matrix(0, -1, 1, 0, -80.31, 82.68)"/><rect class="cls-1" x="78.62" y="80.37" width="8.51" height="2.25" transform="matrix(0, -1, 1, 0, 1.38, 164.38)"/><rect class="cls-1" x="54.46" y="31.67" width="14.5" height="2.25" transform="translate(28.91 94.51) rotate(-90)"/><rect class="cls-1" x="-13.38" y="82.97" width="131.26" height="2.25" transform="translate(-31.85 136.35) rotate(-90)"/><polygon class="cls-1" points="53.37 124.68 29.91 148.07 28.77 146.94 52.24 123.55 53.37 124.68"/><polygon class="cls-1" points="28.77 124.68 52.24 148.07 53.37 146.94 29.91 123.55 28.77 124.68"/><polygon class="cls-1" points="53.37 101.75 29.91 125.14 28.77 124 52.24 100.61 53.37 101.75"/><polygon class="cls-1" points="28.77 101.75 52.24 125.14 53.37 124 29.91 100.61 28.77 101.75"/><polygon class="cls-1" points="53.37 78.15 29.91 101.54 28.77 100.41 52.24 77.02 53.37 78.15"/><polygon class="cls-1" points="28.77 78.15 52.24 101.54 53.37 100.41 29.91 77.02 28.77 78.15"/><polygon class="cls-1" points="53.37 55.35 29.91 78.74 28.77 77.6 52.24 54.21 53.37 55.35"/><polygon class="cls-1" points="28.77 55.35 52.24 78.74 53.37 77.6 29.91 54.21 28.77 55.35"/><polygon class="cls-1" points="53.37 18.93 29.91 41.61 28.77 40.51 52.24 17.82 53.37 18.93"/><polygon class="cls-1" points="28.77 18.93 52.24 41.61 53.37 40.51 29.91 17.82 28.77 18.93"/><polygon class="cls-1" points="36.56 17.8 35.92 17.42 45.13 1.79 45.78 2.17 36.56 17.8"/><polygon class="cls-1" points="45.58 17.8 36.36 2.17 37.01 1.79 46.23 17.42 45.58 17.8"/><path class="cls-1" d="M47.37,19.59H34.77V0h12.6ZM37,17.35h8.1V2.24H37Z"/></g></g></g></svg>