<svg xmlns="http://www.w3.org/2000/svg" xmlns:xlink="http://www.w3.org/1999/xlink" viewBox="0 0 119.89 150"><defs><style>.cls-1{fill:url(#未命名的渐变_103);}.cls-2{fill:url(#未命名的渐变_103-2);}.cls-3{fill:url(#未命名的渐变_103-3);}.cls-4{fill:url(#未命名的渐变_121);}.cls-5{fill:url(#未命名的渐变_121-2);}.cls-6{fill:url(#未命名的渐变_103-4);}.cls-7{fill:url(#未命名的渐变_103-5);}.cls-8{opacity:0.3;}.cls-9{opacity:0.2;}</style><linearGradient id="未命名的渐变_103" x1="4.84" y1="116.7" x2="4.84" y2="33.3" gradientUnits="userSpaceOnUse"><stop offset="0" stop-color="#7a8088"/><stop offset="0.09" stop-color="#2d2f33"/><stop offset="0.15" stop-color="#35373b"/><stop offset="0.24" stop-color="#4a4d51"/><stop offset="0.35" stop-color="#6d7176"/><stop offset="0.48" stop-color="#9da3a9"/><stop offset="0.62" stop-color="#d7dfe6"/><stop offset="0.93" stop-color="#6d7177"/><stop offset="1" stop-color="#5c6067"/></linearGradient><linearGradient id="未命名的渐变_103-2" x1="115.05" y1="116.7" x2="115.05" y2="33.3" xlink:href="#未命名的渐变_103"/><linearGradient id="未命名的渐变_103-3" x1="59.98" y1="116.7" x2="59.98" y2="33.3" xlink:href="#未命名的渐变_103"/><linearGradient id="未命名的渐变_121" x1="19.21" y1="150" x2="19.21" gradientUnits="userSpaceOnUse"><stop offset="0" stop-color="#a9b1bb"/><stop offset="0.09" stop-color="#61666b"/><stop offset="0.18" stop-color="#696e73"/><stop offset="0.32" stop-color="#7e8489"/><stop offset="0.49" stop-color="#a1a7ae"/><stop offset="0.69" stop-color="#d1d8e0"/><stop offset="0.75" stop-color="#e2eaf2"/><stop offset="0.93" stop-color="#9ba1ab"/><stop offset="1" stop-color="#767b82"/></linearGradient><linearGradient id="未命名的渐变_121-2" x1="100.75" x2="100.75" xlink:href="#未命名的渐变_121"/><linearGradient id="未命名的渐变_103-4" x1="33.62" y1="113.46" x2="33.62" y2="36.54" xlink:href="#未命名的渐变_103"/><linearGradient id="未命名的渐变_103-5" x1="57.78" y1="113.46" x2="57.78" y2="36.54" gradientTransform="matrix(-1, 0, 0, 1, 144.12, 0)" xlink:href="#未命名的渐变_103"/></defs><title>Expansion joint(伸缩缝)</title><g id="图层_2" data-name="图层 2"><g id="图层_6" data-name="图层 6"><g id="Expansion_joint_伸缩缝_" data-name="Expansion joint(伸缩缝)"><rect class="cls-1" y="33.3" width="9.68" height="83.4"/><rect class="cls-2" x="110.22" y="33.3" width="9.68" height="83.4"/><path class="cls-3" d="M81.4,36.54v76.92s-.57.19-1.62.48A75.63,75.63,0,0,1,60,116.7a75.67,75.67,0,0,1-19.81-2.76c-1.06-.29-1.62-.48-1.62-.48V36.54s.55-.23,1.62-.55A68.22,68.22,0,0,1,60,33.3,67.92,67.92,0,0,1,79.78,36C80.85,36.31,81.4,36.54,81.4,36.54Z"/><rect class="cls-4" x="9.75" width="18.93" height="150"/><rect class="cls-5" x="91.28" width="18.93" height="150"/><polygon class="cls-6" points="38.56 113.46 28.68 109.42 28.68 40.58 38.56 36.54 38.56 113.46"/><polygon class="cls-7" points="81.4 113.46 91.28 109.42 91.28 40.58 81.4 36.54 81.4 113.46"/><path class="cls-8" d="M40.18,36v77.95c-1.06-.29-1.62-.48-1.62-.48V36.54S39.11,36.31,40.18,36Z"/><path class="cls-8" d="M81.4,36.54v76.92s-.57.19-1.62.48V36C80.85,36.31,81.4,36.54,81.4,36.54Z"/></g></g></g></svg>