<svg xmlns="http://www.w3.org/2000/svg" xmlns:xlink="http://www.w3.org/1999/xlink" viewBox="0 0 150 110.04"><defs><style>.cls-1,.cls-49{fill:none;}.cls-2{isolation:isolate;}.cls-3{fill:#fff;}.cls-4{fill:#7a8799;}.cls-5{fill:#c3ccd9;}.cls-6{fill:#003899;}.cls-7{fill:#1461cc;}.cls-8{fill:#dcdcdc;}.cls-9{fill:#898989;}.cls-10{clip-path:url(#clip-path);}.cls-11{fill:#858585;}.cls-12{fill:#8a8a8a;}.cls-13{fill:#8f8f8f;}.cls-14{fill:#949494;}.cls-15{fill:#999;}.cls-16{fill:#9e9e9e;}.cls-17{fill:#a3a3a3;}.cls-18{fill:#a8a8a8;}.cls-19{fill:#adadad;}.cls-20{fill:#b3b3b3;}.cls-21{fill:#b8b8b8;}.cls-22{fill:#bdbdbd;}.cls-23{fill:#c2c2c2;}.cls-24{fill:#c7c7c7;}.cls-25{fill:#ccc;}.cls-26{fill:#d1d1d1;}.cls-27{fill:#d6d6d6;}.cls-28{fill:#dbdbdb;}.cls-29{fill:#e0e0e0;}.cls-30{fill:#e6e6e6;}.cls-31{fill:#ebebeb;}.cls-32{fill:#f0f0f0;}.cls-33{fill:#f5f5f5;}.cls-34{fill:#fafafa;}.cls-35{clip-path:url(#clip-path-2);}.cls-36{clip-path:url(#clip-path-3);}.cls-37{clip-path:url(#clip-path-4);}.cls-38{fill:url(#未命名的渐变_4);}.cls-39{fill:#2e8be6;}.cls-40{clip-path:url(#clip-path-5);}.cls-41{fill:url(#未命名的渐变_4-2);}.cls-42{clip-path:url(#clip-path-6);}.cls-43{clip-path:url(#clip-path-7);}.cls-44{fill:url(#未命名的渐变_4-3);}.cls-45{fill:url(#未命名的渐变_6);}.cls-46{fill:#3af;}.cls-47{fill:#004ab3;}.cls-48{opacity:0.6;}.cls-49{stroke:#3af;stroke-linecap:round;stroke-miterlimit:10;stroke-width:0.5px;}.cls-50{fill:#e6f5ff;}.cls-51{opacity:0.2;}</style><clipPath id="clip-path"><path class="cls-1" d="M113.16,48.24c-2.93,1.71-7,1.51-11.47-1-9.12-5.08-16.63-17.78-16.75-28.36C84.87,13.52,86.72,9.72,89.76,8L96,4.33c-3,1.77-4.89,5.56-4.82,10.94.13,10.57,7.63,23.27,16.76,28.36,4.48,2.5,8.53,2.69,11.46,1Z"/></clipPath><clipPath id="clip-path-2"><path class="cls-1" d="M74.24,62.8c-9-5.22-16.28-17.72-16.4-28.16l0-3.66C58,43.46,66.7,58.41,77.41,64.65Z"/></clipPath><clipPath id="clip-path-3"><path class="cls-1" d="M101.6,9.16,101.22,9c-9.12-5.09-16.41-.64-16.28,9.94s7.63,23.28,16.75,28.36,16.42.64,16.29-9.94L118,41c.15,12.65-8.57,18-19.48,11.89S78.66,31.6,78.51,19,87.07,1,98,7.06l.44.25Z"/></clipPath><clipPath id="clip-path-4"><path class="cls-1" d="M91.55,66.07c-3.51,2-8.34,1.81-13.71-1.18C66.93,58.81,58,43.63,57.8,31c-.07-6.43,2.14-11,5.77-13.07l20.7-12C80.64,8,78.43,12.52,78.51,19c.15,12.65,9.12,27.83,20,33.91,5.37,3,10.2,3.22,13.72,1.18Z"/></clipPath><linearGradient id="未命名的渐变_4" x1="92.66" y1="65.43" x2="64.82" y2="17.19" gradientUnits="userSpaceOnUse"><stop offset="0" stop-color="#a9b1bb"/><stop offset="0.09" stop-color="#61666b"/><stop offset="0.18" stop-color="#696e73"/><stop offset="0.32" stop-color="#7e8489"/><stop offset="0.49" stop-color="#a1a7ae"/><stop offset="0.69" stop-color="#d1d8e0"/><stop offset="0.75" stop-color="#e2eaf2"/><stop offset="0.93" stop-color="#9ba1ab"/><stop offset="1" stop-color="#767b82"/></linearGradient><clipPath id="clip-path-5"><path class="cls-1" d="M79.82,67.62c-2.93,1.7-7,1.51-11.47-1C59.23,61.54,51.72,48.85,51.6,38.27c-.07-5.38,1.78-9.17,4.82-10.94l6.24-3.62c-3,1.76-4.89,5.55-4.82,10.93C58,45.22,65.47,57.92,74.6,63c4.48,2.5,8.53,2.7,11.46,1Z"/></clipPath><linearGradient id="未命名的渐变_4-2" x1="120.38" y1="39.61" x2="100.9" y2="5.88" xlink:href="#未命名的渐变_4"/><clipPath id="clip-path-6"><path class="cls-1" d="M69.41,84.43c-4.14,2.85-10.09,2.77-16.73-.93-12.74-7.1-23.22-24.84-23.4-39.61A59.4,59.4,0,0,1,49.55,38c.14,11.46,8.27,25.2,18.15,30.71,8.17,4.55,15,2,17-5.45-.44,1.6-.83,2.65-.88,2.76-.26.71-.64,1.64-.94,2.34-.16.38-.41.88-.59,1.26-.47,1-1.12,2.12-1.24,2.32s-.49.83-.72,1.17c-.41.64-1,1.48-1.42,2.09-.63.87-1.45,1.87-1.69,2.14-.5.58-1.19,1.34-1.71,1.89-.28.3-.67.69-1,1s-.69.67-1,.94c-.58.51-1.38,1.18-2,1.67S70.39,83.75,69.41,84.43Z"/></clipPath><clipPath id="clip-path-7"><path class="cls-1" d="M62.71,25.4c-7.68-2-13.27,3-13.16,12.61a59.4,59.4,0,0,0-20.27,5.88c-.1-7.94,2.8-13.41,7.48-15.66,1.46-.71,2.53-1.12,2.54-1.13.73-.27,1.7-.63,2.44-.88.39-.14.91-.29,1.31-.41a39.92,39.92,0,0,1,6.53-1.3c.75-.08,1.76-.15,2.52-.19.41,0,1,0,1.38,0,0,0,1.3,0,2.66.08.42,0,1,.06,1.41.12.75.09,1.74.23,2.49.34.44.07,1,.2,1.45.29Z"/></clipPath><linearGradient id="未命名的渐变_4-3" x1="41.08" y1="26.49" x2="41.03" y2="26.42" xlink:href="#未命名的渐变_4"/><linearGradient id="未命名的渐变_6" x1="38.19" y1="70.92" x2="66.52" y2="42.58" gradientTransform="translate(35.6 -18.62) rotate(30.16)" gradientUnits="userSpaceOnUse"><stop offset="0" stop-color="#d7dce0"/><stop offset="1" stop-color="#8a9099"/></linearGradient></defs><title>Fan（风机）</title><g id="图层_2" data-name="图层 2"><g id="风格1"><g id="Fan_风机_" data-name="Fan（风机）"><g class="cls-2"><polygon class="cls-3" points="150 63.05 75.25 106.49 0.02 63.05 74.77 19.61 150 63.05"/><polygon class="cls-4" points="150 63.05 149.98 66.6 75.23 110.04 75.25 106.49 150 63.05"/><polygon class="cls-5" points="75.25 106.49 75.23 110.04 0 66.6 0.02 63.05 75.25 106.49"/></g><g class="cls-2"><polygon class="cls-6" points="74.98 63.69 79.56 82.87 71.92 78.46 69.94 60.78 74.98 63.69"/><polygon class="cls-7" points="74.98 63.69 80.31 60.59 84.88 79.78 79.56 82.87 74.98 63.69"/><polygon class="cls-8" points="69.94 60.78 75.27 57.68 80.31 60.59 74.98 63.69 69.94 60.78"/></g><g class="cls-2"><polygon class="cls-6" points="110.26 44.24 114.84 63.42 107.2 59.02 105.22 41.33 110.26 44.24"/><polygon class="cls-7" points="110.26 44.24 115.59 41.14 120.16 60.33 114.84 63.42 110.26 44.24"/><polygon class="cls-8" points="105.22 41.33 110.55 38.23 115.59 41.14 110.26 44.24 105.22 41.33"/></g><g class="cls-2"><ellipse class="cls-9" cx="107.7" cy="24.47" rx="13.49" ry="23.3" transform="translate(2.29 57.43) rotate(-30.16)"/><g class="cls-2"><g class="cls-10"><g class="cls-2"><path class="cls-11" d="M113.16,48.24l6.24-3.62a7.65,7.65,0,0,1-1.33.61l-6.24,3.63a7.68,7.68,0,0,0,1.33-.62"/><path class="cls-12" d="M111.83,48.86l6.24-3.63a7.35,7.35,0,0,1-1.16.32l-6.24,3.63a9,9,0,0,0,1.16-.32"/><path class="cls-13" d="M110.67,49.18l6.24-3.63c-.31.06-.63.11-1,.14l-6.24,3.63c.32,0,.64-.08,1-.14"/><path class="cls-14" d="M109.72,49.32,116,45.69c-.27,0-.56,0-.84,0l-6.25,3.63c.29,0,.57,0,.85,0"/><path class="cls-15" d="M108.87,49.36l6.25-3.63c-.27,0-.53,0-.8,0l-6.24,3.63.79,0"/><path class="cls-16" d="M108.08,49.33l6.24-3.63c-.24,0-.48,0-.73-.07l-6.24,3.63.73.07"/><path class="cls-17" d="M107.35,49.26l6.24-3.63-.71-.12-6.24,3.63.71.12"/><path class="cls-18" d="M106.64,49.14l6.24-3.63q-.34-.06-.69-.15L106,49l.69.15"/><path class="cls-19" d="M106,49l6.24-3.63-.67-.19-6.25,3.63L106,49"/><path class="cls-20" d="M105.27,48.8l6.25-3.63c-.23-.06-.45-.14-.67-.22l-6.25,3.63.67.22"/><path class="cls-21" d="M104.6,48.58,110.85,45c-.22-.07-.44-.16-.67-.25l-6.24,3.63.66.25"/><path class="cls-22" d="M103.94,48.33l6.24-3.63c-.22-.08-.44-.18-.66-.28l-6.24,3.63.66.28"/><path class="cls-23" d="M103.28,48.05l6.24-3.63-.67-.31-6.25,3.62.68.32"/><path class="cls-24" d="M102.6,47.73l6.25-3.62-.68-.36-6.24,3.63.67.35"/><path class="cls-25" d="M101.93,47.38l6.24-3.63-.23-.12-.46-.27L101.24,47l.45.26.24.13"/><path class="cls-26" d="M101.24,47l6.24-3.63c-.23-.13-.47-.27-.69-.42l-6.25,3.63.7.42"/><path class="cls-27" d="M100.54,46.57l6.25-3.63-.71-.47L99.84,46.1l.7.47"/><path class="cls-28" d="M99.84,46.1l6.24-3.63-.71-.5L99.13,45.6l.71.5"/><path class="cls-29" d="M99.13,45.6,105.37,42c-.25-.18-.49-.37-.73-.56L98.4,45c.24.19.48.38.73.56"/><path class="cls-30" d="M98.4,45l6.24-3.63c-.25-.19-.49-.39-.73-.59l-6.24,3.62c.24.21.48.41.73.6"/><path class="cls-31" d="M97.67,44.44l6.24-3.62-.74-.65L96.93,43.8c.24.22.49.43.74.64"/><path class="cls-32" d="M96.93,43.8l6.24-3.63-.72-.67-6.24,3.63.72.67"/><path class="cls-33" d="M96.21,43.13l6.24-3.63-.7-.69-6.24,3.62c.23.24.46.47.7.7"/><path class="cls-34" d="M95.51,42.43l6.24-3.62c-.23-.23-.45-.47-.67-.71l-6.25,3.63.68.7"/><path class="cls-3" d="M94.83,41.73l6.25-3.63c-.22-.23-.44-.47-.65-.71L94.19,41c.21.25.43.49.64.72"/><path class="cls-3" d="M94.19,41l6.24-3.62-.64-.75-6.24,3.63c.21.25.42.5.64.74"/><path class="cls-3" d="M93.55,40.27l6.24-3.63-.63-.78-6.24,3.63q.3.39.63.78"/><path class="cls-3" d="M92.92,39.49l6.24-3.63c-.25-.31-.49-.63-.73-1l-6.24,3.63.73,1"/><path class="cls-3" d="M92.19,38.54l6.24-3.63c-.34-.47-.68-.95-1-1.44l-6.24,3.62c.33.49.66,1,1,1.45"/><path class="cls-3" d="M91.18,37.09l6.24-3.62c-.46-.69-.91-1.4-1.33-2.12L89.85,35c.42.72.86,1.42,1.33,2.11"/><path class="cls-3" d="M89.85,35l6.24-3.63c-.28-.47-.54-1-.8-1.43l-6.24,3.63c.26.48.52,1,.8,1.43"/><path class="cls-3" d="M89.05,33.55l6.24-3.63L94.82,29l-6.24,3.63.47.91"/><path class="cls-3" d="M88.58,32.64,94.82,29c-.14-.29-.29-.59-.42-.88l-6.25,3.62c.14.3.29.59.43.89"/><path class="cls-3" d="M88.15,31.75l6.25-3.62c-.13-.27-.25-.53-.37-.8L87.79,31l.36.79"/><path class="cls-3" d="M87.79,31,94,27.33l-.34-.79-6.24,3.62c.11.27.23.54.34.8"/><path class="cls-34" d="M87.45,30.16l6.24-3.62-.32-.8-6.24,3.63c.1.26.21.53.32.79"/><path class="cls-33" d="M87.13,29.37l6.24-3.63-.3-.81-6.24,3.63.3.81"/><path class="cls-32" d="M86.83,28.56l6.24-3.63c-.1-.28-.2-.56-.29-.84l-6.25,3.63.3.84"/><path class="cls-31" d="M86.53,27.72l6.25-3.63c-.1-.29-.19-.57-.28-.85l-6.24,3.62.27.86"/><path class="cls-30" d="M86.26,26.86l6.24-3.62c-.09-.29-.17-.59-.25-.88L86,26c.08.29.16.58.25.87"/><path class="cls-29" d="M86,26l6.24-3.63c-.08-.29-.16-.58-.23-.87l-6.24,3.63c.07.29.14.58.23.87"/><path class="cls-28" d="M85.78,25.12,92,21.49l-.21-.87-6.24,3.63c.07.29.13.58.21.87"/><path class="cls-27" d="M85.57,24.25l6.24-3.63c-.06-.29-.12-.57-.17-.86L85.4,23.39c0,.28.11.57.17.86"/><path class="cls-26" d="M85.4,23.39l6.24-3.63c0-.28-.1-.56-.14-.84l-6.25,3.63.15.84"/><path class="cls-25" d="M85.25,22.55l6.25-3.63c0-.28-.09-.55-.12-.83l-6.24,3.63c0,.28.07.55.11.83"/><path class="cls-24" d="M85.14,21.72l6.24-3.63q-.06-.4-.09-.81l-6.24,3.63q0,.4.09.81"/><path class="cls-23" d="M85.05,20.91l6.24-3.63c0-.27-.05-.54-.07-.81L85,20.1c0,.27,0,.54.07.81"/><path class="cls-22" d="M85,20.1l6.24-3.63c0-.26,0-.53,0-.8L84.94,19.3c0,.27,0,.53,0,.8"/><path class="cls-21" d="M84.94,19.3l6.25-3.63c0-.13,0-.27,0-.4a2.67,2.67,0,0,1,0-.4L84.93,18.5c0,.13,0,.26,0,.39v.41"/><path class="cls-20" d="M84.93,18.5l6.25-3.63c0-.26,0-.53,0-.79L85,17.71c0,.26,0,.52,0,.79"/><path class="cls-19" d="M85,17.71l6.24-3.63c0-.26,0-.52,0-.78L85,16.92c0,.26,0,.53,0,.79"/><path class="cls-18" d="M85,16.92l6.24-3.62c0-.27.05-.53.08-.78l-6.24,3.62c0,.26-.06.52-.08.78"/><path class="cls-17" d="M85.08,16.14l6.24-3.62c0-.28.08-.54.12-.8L85.2,15.34l-.12.8"/><path class="cls-16" d="M85.2,15.34l6.24-3.62c0-.27.1-.54.16-.79l-6.24,3.62c-.06.26-.11.52-.16.79"/><path class="cls-15" d="M85.36,14.55l6.24-3.62c.07-.29.14-.58.22-.86L85.58,13.7c-.08.28-.15.56-.22.85"/><path class="cls-14" d="M85.58,13.7l6.24-3.63c.09-.3.19-.59.3-.88l-6.25,3.63c-.1.28-.2.58-.29.88"/><path class="cls-13" d="M85.87,12.82l6.25-3.63a9,9,0,0,1,.4-.95l-6.24,3.62c-.15.31-.28.63-.41,1"/><path class="cls-12" d="M86.28,11.86l6.24-3.62a9.42,9.42,0,0,1,.63-1.13L86.9,10.74a12,12,0,0,0-.62,1.12"/><path class="cls-11" d="M86.9,10.74l6.25-3.63A8.4,8.4,0,0,1,96,4.33L89.76,8a8.43,8.43,0,0,0-2.86,2.78"/></g></g></g><g class="cls-2"><g class="cls-35"><g class="cls-2"><path class="cls-16" d="M74.24,62.8l3.17,1.85-.21-.13-3.14-1.83.18.11"/><path class="cls-17" d="M74.06,62.69l3.14,1.83q-1-.57-1.89-1.23l-2.83-1.62c.52.36,1,.71,1.58,1"/><path class="cls-18" d="M72.48,61.67l2.83,1.62c-.68-.47-1.35-1-2-1.53l-2.5-1.37c.54.45,1.1.88,1.67,1.28"/><path class="cls-19" d="M70.81,60.39l2.5,1.37c-.78-.64-1.55-1.33-2.29-2.06l-2.13-1c.62.61,1.26,1.19,1.92,1.73"/><path class="cls-20" d="M68.89,58.66l2.13,1a40.71,40.71,0,0,1-3.12-3.41l-1.62-.48a35.57,35.57,0,0,0,2.61,2.85"/><path class="cls-21" d="M66.28,55.81l1.62.48a47.44,47.44,0,0,1-5.52-8.45l-.71.91a39.69,39.69,0,0,0,4.61,7.06"/><path class="cls-20" d="M61.67,48.75l.71-.91a46,46,0,0,1-2-4.37L60,45.09a37.32,37.32,0,0,0,1.65,3.66"/><path class="cls-19" d="M60,45.09l.4-1.62c-.4-1-.75-2-1.06-3.06l-.22,2.12c.26.85.55,1.71.88,2.56"/><path class="cls-18" d="M59.14,42.53l.22-2.12q-.39-1.29-.69-2.58l-.11,2.54c.16.72.36,1.44.58,2.16"/><path class="cls-17" d="M58.56,40.37l.11-2.54c-.18-.79-.34-1.57-.47-2.35l0,2.92c.11.66.24,1.31.39,2"/><path class="cls-16" d="M58.17,38.4l0-2.92c-.12-.75-.21-1.5-.28-2.24l0,3.29c.05.62.13,1.25.23,1.87"/><path class="cls-15" d="M57.94,36.53l0-3.29q-.09-1.1-.12-2.19l0,3.65c0,.61,0,1.22.1,1.83"/><path class="cls-14" d="M57.84,34.7l0-3.65V31l0,3.66v.06"/></g></g></g><path class="cls-7" d="M124.21,34.86v-.11a2.62,2.62,0,0,1,0-.28c0-.13,0-.26,0-.4s0-.26,0-.39v-.41c0-.13,0-.26,0-.39s0-.19,0-.29v-.12l-.06-.76v0h0c0-.27,0-.54-.09-.82,0,0,0-.07,0-.11s0-.2,0-.29l-.06-.42a2.23,2.23,0,0,1,0-.23l-.06-.35c0-.09,0-.18,0-.27s-.05-.24-.07-.36a3.4,3.4,0,0,1-.07-.34l0-.15c0-.18-.09-.36-.13-.54l-.06-.27s0,0,0-.06c-.07-.29-.14-.58-.23-.87v0a1.21,1.21,0,0,1-.05-.18c-.07-.22-.13-.45-.2-.67l0-.12-.1-.31c0-.14-.09-.28-.13-.42a2.09,2.09,0,0,1-.08-.23l-.12-.34c0-.09-.06-.18-.1-.27s-.09-.26-.14-.38l-.11-.3s0-.09,0-.13c-.1-.26-.2-.51-.31-.77v0h0c-.11-.27-.23-.53-.34-.8l-.06-.12c0-.09-.08-.19-.13-.28l-.17-.39-.12-.24c-.06-.13-.12-.26-.19-.39l-.12-.25c0-.1-.1-.2-.16-.3l-.21-.41c0-.07-.07-.14-.1-.2l-.11-.19c-.19-.36-.39-.72-.59-1.07l-.1-.17a.43.43,0,0,0,0-.07c-.16-.28-.33-.54-.49-.81l-.13-.21c-.21-.34-.43-.67-.64-1l0,0-.06-.09c-.27-.4-.55-.8-.84-1.19L117,14l-.11-.14-.4-.53c-.07-.09-.14-.19-.22-.28l-.09-.12c-.09-.11-.18-.23-.28-.34a4,4,0,0,0-.26-.32c0-.05-.09-.1-.13-.16l-.28-.33c-.08-.08-.15-.17-.23-.26l-.18-.2-.28-.31-.18-.21-.23-.24-.3-.31-.15-.15-.27-.27-.32-.31L113,9.45c-.1-.11-.21-.2-.32-.3l-.32-.3-.08-.07c-.12-.12-.25-.22-.37-.33l-.31-.27-.06,0L111,7.71l-.19-.16h0c-.24-.2-.48-.38-.73-.56l0,0-.17-.12-.52-.37-.09-.06L109,6.24,108.62,6l-.18-.11a2.61,2.61,0,0,0-.28-.17l-.24-.15-.45-.26-.24-.13L106.78,5l-.18-.1,0,0-.68-.32h0l-.18-.08-.44-.19-.13,0-.26-.1-.27-.1-.22-.07-.28-.09-.17-.06-.29-.07-.28-.08-.11,0-.36-.08-.27-.06h-.06l-.38-.07-.29-.05h0l-.36,0-.33,0h-.24l-.53,0h-.24l-.55,0h-.12l-.29,0-.13,0-.53.08,0,0-.24,0-.37.1-.25.08-.25.07-.08,0-.43.17L96.61,4c-.21.1-.41.21-.61.32L89.76,8a5.86,5.86,0,0,1,.61-.32l.2-.09L91,7.37l.33-.11.25-.08L92,7.09,92.2,7l.58-.1h.13l.41,0c.18,0,.36,0,.55,0h1l.33,0,.4,0,.29,0,.44.08a2.61,2.61,0,0,1,.27.06,4,4,0,0,1,.47.11l.28.07.46.14.28.09.48.17.27.1a5.55,5.55,0,0,1,.56.24l.19.07.76.36.17.09.69.37c.24.13.47.27.7.41l.28.17.52.33L103,10l.61.43.16.12c.27.19.52.39.78.59l.19.15.58.48.31.27.45.4.32.29.43.41.32.31c.14.14.28.28.41.43s.2.2.3.31l.42.44.28.32.41.46.28.33.39.48c.09.11.19.22.28.34s.2.27.31.4l.4.53.22.3c.29.39.57.78.84,1.19l.08.12c.22.33.44.66.65,1a2.39,2.39,0,0,0,.13.21l.49.8.13.24q.32.54.6,1.08l.21.38.21.42c.1.18.19.37.28.55l.19.39.29.62c0,.1.09.19.13.29.14.3.27.61.4.92v0l.36.9c0,.1.07.2.11.29l.24.65.12.35.21.65.1.31.24.79a1.21,1.21,0,0,0,0,.18c.08.32.17.64.25,1l.06.27c.06.23.11.46.16.69s0,.23.07.34l.12.63.06.34.09.65c0,.1,0,.2,0,.3,0,.31.07.62.1.93v0c0,.3.05.6.06.89,0,.1,0,.19,0,.29,0,.27,0,.53,0,.8s0,.53,0,.79a2.62,2.62,0,0,0,0,.28c0,.26,0,.52,0,.78a.34.34,0,0,0,0,.1l-.09.85c0,.1,0,.2,0,.3s0,.36-.08.54,0,.23-.07.35-.06.3-.1.45l-.12.47a3.57,3.57,0,0,1-.1.35c-.07.24-.14.46-.22.68,0,0,0,.1,0,.15-.11.29-.24.58-.36.85s-.12.25-.19.37a1.67,1.67,0,0,1-.12.23c-.08.15-.16.3-.25.44l-.09.15-.36.52-.1.14-.3.36-.12.14c-.12.14-.25.27-.38.4l0,0c-.14.14-.29.27-.44.4l-.13.1a4.22,4.22,0,0,1-.36.27.71.71,0,0,1-.14.1,5.29,5.29,0,0,1-.5.32l6.24-3.62.5-.32.14-.1.36-.27.13-.11.45-.4a.08.08,0,0,1,0,0c.13-.13.25-.27.37-.41a1.42,1.42,0,0,0,.12-.13c.11-.12.2-.25.3-.37a1.47,1.47,0,0,1,.1-.13c.12-.17.24-.33.35-.5v0l.09-.16.26-.43c0-.08.07-.16.11-.23l.15-.29a.36.36,0,0,1,0-.09c.13-.27.25-.55.36-.85h0a.74.74,0,0,1,0-.14c.08-.22.15-.44.22-.67l0-.08c0-.09,0-.18.07-.27l.12-.47,0-.11c0-.11,0-.23.07-.35s0-.23.07-.35,0-.06,0-.09,0-.3.07-.44,0-.2,0-.3,0,0,0-.06c0-.26.06-.52.08-.78v0a.34.34,0,0,1,0-.1C124.18,35.31,124.2,35.09,124.21,34.86Z"/><g class="cls-2"><g class="cls-36"><g class="cls-2"><path class="cls-11" d="M118,41l0-3.66c.08,6.13-2.34,10.21-6.17,11.56l-1.17,5.92c4.58-1.62,7.47-6.49,7.38-13.82"/><path class="cls-12" d="M110.64,54.79l1.17-5.92a8.94,8.94,0,0,1-1.66.4l-1.5,6a10.71,10.71,0,0,0,2-.48"/><path class="cls-13" d="M108.65,55.27l1.5-6a10.74,10.74,0,0,1-1.4.09l-1.77,6a11.44,11.44,0,0,0,1.67-.1"/><path class="cls-14" d="M107,55.37l1.77-6a11.5,11.5,0,0,1-1.29-.09l-2,6a11.48,11.48,0,0,0,1.54.1"/><path class="cls-15" d="M105.44,55.27l2-6a10.81,10.81,0,0,1-1.22-.22L104,55c.49.11,1,.2,1.46.26"/><path class="cls-16" d="M104,55l2.26-6a11.09,11.09,0,0,1-1.19-.32l-2.5,5.89A13.26,13.26,0,0,0,104,55"/><path class="cls-17" d="M102.55,54.62l2.5-5.89c-.39-.12-.79-.27-1.18-.43l-2.73,5.81q.72.28,1.41.51"/><path class="cls-18" d="M101.14,54.11l2.73-5.81q-.6-.24-1.2-.54l-3,5.71c.48.24,1,.45,1.43.64"/><path class="cls-19" d="M99.71,53.47l3-5.71c-.32-.15-.65-.32-1-.51l-.25-.14-3.2,5.58.3.17c.39.22.78.42,1.17.61"/><path class="cls-20" d="M98.24,52.69l3.2-5.58q-.63-.36-1.26-.78l-3.45,5.43c.5.32,1,.63,1.51.93"/><path class="cls-21" d="M96.73,51.76l3.45-5.43c-.44-.29-.87-.59-1.3-.92l-3.7,5.25c.51.38,1,.75,1.55,1.1"/><path class="cls-22" d="M95.18,50.66l3.7-5.25c-.46-.34-.91-.71-1.35-1.09l-4,5c.53.46,1.07.9,1.62,1.31"/><path class="cls-23" d="M93.56,49.35l4-5c-.49-.41-1-.85-1.44-1.3l-4.25,4.77c.57.55,1.14,1.07,1.72,1.56"/><path class="cls-24" d="M91.84,47.79,96.09,43c-.53-.51-1-1.05-1.54-1.6L90,45.88c.6.66,1.21,1.3,1.84,1.91"/><path class="cls-25" d="M90,45.88l4.55-4.46c-.65-.72-1.27-1.47-1.87-2.24l-4.92,4c.72.93,1.46,1.83,2.24,2.68"/><path class="cls-26" d="M87.76,43.2l4.92-4A40.41,40.41,0,0,1,89,33.48l-5.63,2.91a48.77,48.77,0,0,0,4.38,6.81"/><path class="cls-25" d="M83.38,36.39,89,33.48c-.43-.82-.83-1.66-1.21-2.5L81.93,33.4c.45,1,.93,2,1.45,3"/><path class="cls-24" d="M81.93,33.4,87.8,31c-.29-.67-.57-1.34-.82-2l-6,2c.3.8.63,1.61,1,2.4"/><path class="cls-23" d="M81,31l6-2c-.23-.61-.44-1.21-.63-1.82L80.2,28.82c.23.73.48,1.45.75,2.18"/><path class="cls-22" d="M80.2,28.82l6.15-1.67c-.18-.57-.34-1.14-.49-1.7l-6.25,1.33c.18.68.37,1.36.59,2"/><path class="cls-21" d="M79.61,26.78l6.25-1.33c-.14-.54-.26-1.08-.37-1.61l-6.33,1c.14.64.28,1.28.45,1.92"/><path class="cls-20" d="M79.16,24.86l6.33-1c-.11-.52-.2-1-.27-1.54L78.84,23c.09.61.2,1.22.32,1.83"/><path class="cls-19" d="M78.84,23l6.38-.73q-.12-.74-.18-1.47l-6.41.44c.05.58.12,1.17.21,1.76"/><path class="cls-18" d="M78.63,21.27,85,20.83Q85,20.11,85,19.39l-6.43.15c0,.57,0,1.15.11,1.73"/><path class="cls-17" d="M78.52,19.54,85,19.39c0-.17,0-.33,0-.5s0-.61,0-.92l-6.43-.12c0,.36,0,.73,0,1.1,0,.2,0,.4,0,.59"/><path class="cls-16" d="M78.51,17.85l6.43.12q0-.7.09-1.38l-6.41-.39c-.05.53-.09,1.09-.11,1.65"/><path class="cls-15" d="M78.62,16.2l6.41.39c0-.47.11-.93.19-1.37l-6.37-.66c-.1.53-.17,1.08-.23,1.64"/><path class="cls-14" d="M78.85,14.56l6.37.66c.09-.48.2-.94.32-1.39l-6.31-.93a16.77,16.77,0,0,0-.38,1.66"/><path class="cls-13" d="M79.23,12.9l6.31.93a12.2,12.2,0,0,1,.51-1.44l-6.22-1.22a14.65,14.65,0,0,0-.6,1.73"/><path class="cls-12" d="M79.83,11.17l6.22,1.22a11,11,0,0,1,.84-1.64l-6-1.53a13.26,13.26,0,0,0-1,1.95"/><path class="cls-11" d="M80.85,9.22l6,1.53C89.64,6.44,95,5.48,101.22,9l.38.21L98.42,7.31,98,7.06c-7.43-4.14-13.84-3-17.13,2.16"/></g></g></g><g class="cls-2"><g class="cls-37"><g class="cls-2"><path class="cls-11" d="M91.55,66.07l20.71-12a10.11,10.11,0,0,1-1.6.74L90,66.81a9.61,9.61,0,0,0,1.59-.74"/><path class="cls-12" d="M90,66.81l20.7-12a9.19,9.19,0,0,1-1.39.38l-20.7,12A9.19,9.19,0,0,0,90,66.81"/><path class="cls-13" d="M88.57,67.19l20.7-12a10.24,10.24,0,0,1-1.13.16l-20.7,12c.38,0,.76-.1,1.13-.17"/><path class="cls-14" d="M87.44,67.36l20.7-12a8.44,8.44,0,0,1-1,0l-20.7,12c.34,0,.68,0,1,0"/><path class="cls-15" d="M86.43,67.4l20.7-12-1,0-20.7,12c.32,0,.64,0,1,0"/><path class="cls-16" d="M85.47,67.37l20.7-12-.86-.09-20.7,12,.86.09"/><path class="cls-17" d="M84.61,67.28l20.7-12c-.28,0-.57-.08-.86-.14l-20.7,12c.29.06.58.11.86.14"/><path class="cls-18" d="M83.75,67.14l20.7-12-.82-.18L82.93,67l.82.18"/><path class="cls-19" d="M82.93,67l20.7-12-.81-.22-20.7,12,.81.22"/><path class="cls-20" d="M82.12,66.74l20.7-12-.8-.26-20.7,12,.8.26"/><path class="cls-21" d="M81.32,66.48l20.7-12-.79-.3-20.7,12,.79.3"/><path class="cls-22" d="M80.53,66.18l20.7-12-.8-.34-20.7,12,.8.34"/><path class="cls-23" d="M79.73,65.84l20.7-12-.8-.38-20.7,12,.8.38"/><path class="cls-24" d="M78.93,65.46l20.7-12L98.82,53,78.12,65q.41.22.81.42"/><path class="cls-25" d="M78.12,65l20.7-12-.28-.15L98,52.54l-20.7,12,.55.32.28.15"/><path class="cls-26" d="M77.29,64.57l20.7-12-.82-.5-20.7,12,.82.5"/><path class="cls-27" d="M76.47,64.07l20.7-12c-.29-.18-.57-.37-.85-.56l-20.7,12c.28.19.56.38.85.56"/><path class="cls-28" d="M75.62,63.51l20.7-12-.84-.6-20.71,12,.85.6"/><path class="cls-29" d="M74.77,62.91l20.71-12-.88-.67-20.7,12,.87.67"/><path class="cls-30" d="M73.9,62.24l20.7-12-.87-.71L73,61.53l.87.71"/><path class="cls-31" d="M73,61.53l20.7-12c-.3-.25-.59-.51-.88-.77l-20.71,12,.89.77"/><path class="cls-32" d="M72.14,60.76l20.71-12c-.3-.26-.58-.53-.87-.81L71.28,60l.86.8"/><path class="cls-33" d="M71.28,60l20.7-12-.84-.82-20.7,12,.84.83"/><path class="cls-34" d="M70.44,59.13l20.7-12-.8-.85-20.7,12c.26.29.53.57.8.85"/><path class="cls-3" d="M69.64,58.28l20.7-12c-.26-.28-.52-.56-.77-.85l-20.7,12c.25.29.51.57.77.85"/><path class="cls-3" d="M68.87,57.43l20.7-12c-.26-.3-.52-.59-.77-.9l-20.7,12c.25.31.51.6.77.9"/><path class="cls-3" d="M68.1,56.53l20.7-12q-.37-.45-.75-.93l-20.7,12,.75.93"/><path class="cls-3" d="M67.35,55.6l20.7-12-.87-1.13-20.7,12c.28.38.57.76.87,1.13"/><path class="cls-3" d="M66.48,54.47l20.7-12c-.41-.57-.82-1.14-1.21-1.73l-20.7,12c.39.59.8,1.16,1.21,1.73"/><path class="cls-3" d="M65.27,52.74l20.7-12c-.56-.82-1.09-1.67-1.59-2.53l-20.7,12c.5.86,1,1.71,1.59,2.53"/><path class="cls-3" d="M63.68,50.21l20.7-12c-.33-.56-.65-1.13-.95-1.71l-20.7,12c.3.58.62,1.15,1,1.71"/><path class="cls-3" d="M62.73,48.5l20.7-12c-.2-.36-.38-.72-.56-1.09l-20.71,12c.19.37.37.73.57,1.09"/><path class="cls-3" d="M62.16,47.41l20.71-12c-.18-.35-.35-.7-.52-1.05l-20.7,12,.51,1"/><path class="cls-3" d="M61.65,46.36l20.7-12c-.14-.32-.29-.63-.43-.95l-20.7,12c.14.32.29.63.43,1"/><path class="cls-3" d="M61.22,45.41l20.7-12c-.14-.32-.27-.64-.41-1l-20.7,12c.14.31.27.63.41.95"/><path class="cls-34" d="M60.81,44.46l20.7-12c-.13-.32-.26-.64-.38-1l-20.7,12c.12.32.25.64.38,1"/><path class="cls-33" d="M60.43,43.5l20.7-12c-.12-.32-.25-.64-.36-1l-20.7,12q.16.48.36,1"/><path class="cls-32" d="M60.07,42.54l20.7-12c-.12-.34-.24-.68-.35-1l-20.7,12c.11.33.22.67.35,1"/><path class="cls-31" d="M59.72,41.53l20.7-12q-.18-.51-.33-1l-20.7,12q.15.51.33,1"/><path class="cls-30" d="M59.39,40.51l20.7-12c-.11-.35-.21-.7-.31-1.05l-20.7,12c.1.35.2.7.31,1"/><path class="cls-29" d="M59.08,39.46l20.7-12-.27-1-20.7,12,.27,1"/><path class="cls-28" d="M58.81,38.42l20.7-12c-.09-.35-.17-.69-.24-1l-20.7,12c.07.35.15.69.24,1"/><path class="cls-27" d="M58.57,37.38l20.7-12q-.12-.51-.21-1l-20.7,12q.09.51.21,1"/><path class="cls-26" d="M58.36,36.36l20.7-12c-.06-.34-.12-.68-.17-1l-20.71,12,.18,1"/><path class="cls-25" d="M58.18,35.35l20.71-12c-.06-.33-.1-.66-.14-1L58,34.36c.05.33.09.66.14,1"/><path class="cls-24" d="M58,34.36l20.71-12c0-.32-.08-.65-.11-1l-20.7,12c0,.32.06.65.1,1"/><path class="cls-23" d="M57.94,33.39l20.7-12c0-.32-.06-.65-.08-1l-20.7,12c0,.32,0,.65.08,1"/><path class="cls-22" d="M57.86,32.42l20.7-12c0-.32,0-.64,0-.95l-20.71,12c0,.32,0,.63,0,1"/><path class="cls-21" d="M57.81,31.47l20.71-12c0-.17,0-.33,0-.49s0-.31,0-.47l-20.7,12V31c0,.16,0,.32,0,.49"/><path class="cls-20" d="M57.8,30.51l20.7-12c0-.32,0-.63,0-.94l-20.71,12c0,.31,0,.62,0,.94"/><path class="cls-19" d="M57.82,29.57l20.71-12c0-.32,0-.64,0-.94l-20.7,12-.06.94"/><path class="cls-18" d="M57.88,28.63l20.7-12c0-.32.06-.63.1-.94L58,27.69c0,.31-.07.62-.1.94"/><path class="cls-17" d="M58,27.69l20.7-12c0-.32.09-.64.14-.95l-20.7,12c0,.31-.1.63-.14,1"/><path class="cls-16" d="M58.12,26.74l20.7-12c.06-.33.12-.64.19-1l-20.7,12c-.07.31-.13.62-.19.95"/><path class="cls-15" d="M58.31,25.79l20.7-12q.12-.53.27-1l-20.7,12q-.15.5-.27,1"/><path class="cls-14" d="M58.58,24.77l20.7-12c.1-.36.22-.71.35-1.05l-20.7,12c-.13.34-.25.69-.35,1.05"/><path class="cls-13" d="M58.93,23.72l20.7-12q.23-.6.48-1.14l-20.7,12a11.82,11.82,0,0,0-.48,1.14"/><path class="cls-12" d="M59.41,22.58l20.7-12a12.41,12.41,0,0,1,.75-1.35l-20.7,12a12.41,12.41,0,0,0-.75,1.35"/><path class="cls-11" d="M60.16,21.23l20.7-12a10,10,0,0,1,3.41-3.32l-20.7,12a10,10,0,0,0-3.41,3.32"/></g></g></g><path class="cls-38" d="M97.3,54.28a.61.61,0,0,1,0-.14v0c0-.36,0-.73,0-1.1,0-.2,0-.39,0-.59s0-.28,0-.43,0-.18,0-.27c0-.34,0-.68-.08-1v0c0-.06,0-.12,0-.18,0-.31-.07-.61-.11-.92,0-.11,0-.21,0-.32a2.89,2.89,0,0,0,0-.29l-.09-.59a2,2,0,0,1,0-.24c-.06-.33-.12-.67-.19-1,0,0,0-.07,0-.1l-.06-.29c-.06-.28-.13-.56-.19-.84,0-.13-.07-.25-.1-.37s-.05-.22-.07-.32-.09-.31-.13-.46-.07-.26-.11-.39c-.08-.31-.17-.61-.27-.92a1.87,1.87,0,0,0-.07-.22v0c-.12-.37-.24-.75-.37-1.12,0-.1-.07-.19-.1-.28-.09-.26-.18-.51-.28-.77,0,0,0-.07,0-.11s-.15-.38-.23-.57-.16-.43-.25-.64l-.25-.58c-.07-.16-.13-.33-.21-.49a.61.61,0,0,0-.05-.12c-.2-.45-.41-.91-.63-1.36l0-.1c-.21-.42-.42-.84-.64-1.26l-.06-.13-.12-.21c-.25-.47-.51-.94-.78-1.4l-.16-.28c-.3-.51-.61-1-.94-1.53a4,4,0,0,0-.22-.34c-.3-.46-.6-.92-.92-1.37l-.12-.18c-.35-.49-.71-1-1.07-1.45L88,28.7a1.73,1.73,0,0,0-.17-.21c-.24-.31-.48-.61-.73-.91l-.27-.33q-.5-.6-1-1.17l0,0-.33-.36-.53-.57-.39-.4L84,24.2,84,24.14l-.56-.53-.26-.24c-.29-.27-.59-.53-.89-.79h0l-.1-.08-.79-.65-.3-.24-.42-.32-.2-.15-.3-.22-.64-.44-.28-.2-.13-.09-.77-.49-.09-.05-.64-.38-.3-.17c-.31-.17-.62-.34-.93-.49l-.14-.07-.1-.05c-.27-.14-.53-.26-.8-.37L75.12,18c-.15-.06-.29-.13-.44-.18l-.27-.11-.25-.09-.78-.28-.09,0h0l-.83-.24L72.19,17l-.35-.09-.26-.05-.29-.06-.61-.1-.23,0h-.07l-.72-.07h0l-.77,0H68l-.41,0-.37,0h-.06l-.12,0c-.21,0-.41.07-.62.12l-.13,0c-.23.05-.45.11-.67.18l-.14,0-.25.08-.17.07-.48.2-.31.14c-.16.07-.32.16-.48.25l-.26.14a5.07,5.07,0,0,0-.54.36l-.17.11c-.22.16-.45.34-.66.52L62,19.1c-.16.14-.31.29-.46.44l-.22.24-.36.42a3,3,0,0,0-.22.28,5.15,5.15,0,0,0-.32.45,3,3,0,0,0-.2.29,5.09,5.09,0,0,0-.3.5c-.06.1-.12.2-.17.3s-.21.4-.31.61l-.12.25c-.13.3-.26.6-.37.91l-.06.17c-.09.27-.18.53-.26.81l-.09.35-.18.68c0,.14-.05.28-.08.41s-.09.45-.13.68-.05.3-.07.45-.06.47-.09.72,0,.29,0,.44,0,.55-.06.82,0,.26,0,.4c0,.41,0,.83,0,1.26l0,3.66c0-.36,0-.71,0-1,0-.12,0-.23,0-.34s0-.46,0-.68,0-.25,0-.37,0-.41.08-.61,0-.24.06-.37.06-.38.1-.56.05-.24.07-.35l.15-.57c0-.1.05-.2.08-.3s.14-.45.22-.67c0,0,0-.09,0-.14.1-.26.2-.52.31-.76l.11-.21c.08-.18.16-.35.25-.51a2,2,0,0,1,.14-.25l.25-.42.17-.25.27-.37.18-.23c.1-.13.2-.24.31-.36l.18-.19c.12-.13.25-.25.38-.37l.14-.13c.18-.15.36-.3.55-.44l.14-.09.45-.3.22-.12.41-.21.25-.11.4-.17.26-.09a5.15,5.15,0,0,1,.56-.16l.19-.06c.25-.06.51-.1.77-.14l.34,0c.11,0,.22,0,.34,0l.35,0H67l.68,0h0l.66.07.19,0,.52.08.24.05a4.7,4.7,0,0,1,.51.12l.2.05.72.2.07,0,.66.23.21.08.59.25.16.06.73.34c.3.15.61.31.92.49s.52.3.78.46l.08,0,.75.49a1.88,1.88,0,0,1,.23.16l.54.37.25.18.51.4.26.2.65.53.09.08.76.67.21.2.53.49.43.44.33.33c.15.16.3.31.44.47l.31.33c.29.32.57.65.85,1l.23.28.61.75.24.31c.3.4.6.8.89,1.21l.11.15c.26.38.51.76.76,1.14l.19.29c.27.42.53.85.79,1.29l.13.23c.22.39.44.77.65,1.17l.15.29c.19.34.36.69.53,1l0,.09c.18.37.35.76.53,1.14.07.17.14.34.22.51s.13.32.2.48l.21.53c.07.16.13.33.19.49l.27.72a2.25,2.25,0,0,1,.08.24c.12.33.22.65.33,1,0,.06,0,.13.05.19.08.25.16.51.23.76l.09.33c.06.22.11.44.17.65a2.81,2.81,0,0,0,.08.31l.15.71.06.24c.06.31.12.61.17.92a1.42,1.42,0,0,0,0,.2c0,.25.07.49.11.74l0,.26c0,.26.07.52.09.77,0,0,0,.1,0,.15,0,.3,0,.6.07.9a1.85,1.85,0,0,0,0,.23c0,.28,0,.57,0,.85s0,.64,0,.95a.49.49,0,0,0,0,.12c0,.24,0,.49,0,.73,0,.08,0,.16,0,.25l-.06.59,0,.25-.12.78h0c0,.26-.1.51-.16.76a2.1,2.1,0,0,1-.06.24c0,.17-.08.33-.13.49s-.07.24-.11.36S90,58.85,90,59s-.09.23-.13.35-.09.22-.14.34-.2.44-.31.66a1.17,1.17,0,0,0,0,.11c-.13.25-.27.48-.41.71l-.33.49-.07.09c-.1.14-.2.27-.31.4l-.1.12c-.13.15-.26.29-.4.43l0,.06-.38.35-.11.1-.45.36,0,0a3.52,3.52,0,0,1-.45.3l-.12.08-.49.27h0c-.17.09-.35.16-.52.24l-.14.05c-.16.07-.33.12-.49.18l-.07,0a5.29,5.29,0,0,1-.57.15l-.14,0-.5.09-.11,0q-.3,0-.6.06h-.15l-.52,0H81.7c-.21,0-.43,0-.64,0h-.15l-.55,0-.15,0-.67-.11-.14,0-.58-.14-.17,0-.7-.2-.11,0-.63-.22L77,64.15c-.24-.09-.49-.19-.73-.3l-.07,0-.68-.32-.2-.1L74.6,63l-.36-.2,3.17,1.85.43.24c.3.17.61.32.91.48l.23.11q.4.21.81.39l.09,0q.44.19.87.36l.22.09.75.26.13,0,.84.25.2,0,.7.16.16,0c.27,0,.54.1.8.13l.19,0,.65.06.18,0,.76,0h.16l.62,0h.18l.72-.08.13,0c.2,0,.4-.07.6-.12l.17,0c.23,0,.46-.11.68-.18l.08,0,.58-.2.17-.07c.21-.09.42-.18.63-.29h0c.2-.1.39-.21.58-.32l.15-.09.54-.36,0,0c.18-.13.36-.28.54-.43l.14-.12.45-.42.06-.06c.17-.17.33-.34.48-.52l.12-.14c.13-.16.25-.32.37-.49l.08-.1c.12-.17.24-.34.35-.52l0-.06c.17-.28.34-.56.49-.86a.83.83,0,0,0,.07-.13c.13-.26.25-.52.37-.79a.54.54,0,0,1,0-.11l.11-.3c.06-.13.11-.27.16-.41l.15-.46c0-.14.1-.28.14-.43l0-.13c0-.15.08-.3.11-.45s.06-.19.08-.29c.07-.3.13-.6.19-.91h0c.06-.31.11-.62.15-.94l0-.29c0-.14,0-.27,0-.41l0-.3c0-.1,0-.2,0-.3C97.27,54.86,97.29,54.57,97.3,54.28Z"/><path class="cls-39" d="M97.3,54.28a.61.61,0,0,1,0-.14v0c0-.36,0-.73,0-1.1,0-.2,0-.39,0-.59s0-.28,0-.43,0-.18,0-.27c0-.34,0-.68-.08-1v0c0-.06,0-.12,0-.18,0-.31-.07-.61-.11-.92,0-.11,0-.21,0-.32a2.89,2.89,0,0,0,0-.29l-.09-.59a2,2,0,0,1,0-.24c-.06-.33-.12-.67-.19-1,0,0,0-.07,0-.1l-.06-.29c-.06-.28-.13-.56-.19-.84,0-.13-.07-.25-.1-.37s-.05-.22-.07-.32-.09-.31-.13-.46-.07-.26-.11-.39c-.08-.31-.17-.61-.27-.92a1.87,1.87,0,0,0-.07-.22v0c-.12-.37-.24-.75-.37-1.12,0-.1-.07-.19-.1-.28-.09-.26-.18-.51-.28-.77,0,0,0-.07,0-.11s-.15-.38-.23-.57-.16-.43-.25-.64l-.25-.58c-.07-.16-.13-.33-.21-.49a.61.61,0,0,0-.05-.12c-.2-.45-.41-.91-.63-1.36l0-.1c-.21-.42-.42-.84-.64-1.26l-.06-.13-.12-.21c-.25-.47-.51-.94-.78-1.4l-.16-.28c-.3-.51-.61-1-.94-1.53a4,4,0,0,0-.22-.34c-.3-.46-.6-.92-.92-1.37l-.12-.18c-.35-.49-.71-1-1.07-1.45L88,28.7a1.73,1.73,0,0,0-.17-.21c-.24-.31-.48-.61-.73-.91l-.27-.33q-.5-.6-1-1.17l0,0-.33-.36-.53-.57-.39-.4L84,24.2,84,24.14l-.56-.53-.26-.24c-.29-.27-.59-.53-.89-.79h0l-.1-.08-.79-.65-.3-.24-.42-.32-.2-.15-.3-.22-.64-.44-.28-.2-.13-.09-.77-.49-.09-.05-.64-.38-.3-.17c-.31-.17-.62-.34-.93-.49l-.14-.07-.1-.05c-.27-.14-.53-.26-.8-.37L75.12,18c-.15-.06-.29-.13-.44-.18l-.27-.11-.25-.09-.78-.28-.09,0h0l-.83-.24L72.19,17l-.35-.09-.26-.05-.29-.06-.61-.1-.23,0h-.07l-.72-.07h0l-.77,0H68l-.41,0-.37,0h-.06l-.12,0c-.21,0-.41.07-.62.12l-.13,0c-.23.05-.45.11-.67.18l-.14,0-.25.08-.17.07-.48.2-.31.14c-.16.07-.32.16-.48.25l-.26.14a5.07,5.07,0,0,0-.54.36l-.17.11c-.22.16-.45.34-.66.52L62,19.1c-.16.14-.31.29-.46.44l-.22.24-.36.42a3,3,0,0,0-.22.28,5.15,5.15,0,0,0-.32.45,3,3,0,0,0-.2.29,5.09,5.09,0,0,0-.3.5c-.06.1-.12.2-.17.3s-.21.4-.31.61l-.12.25c-.13.3-.26.6-.37.91l-.06.17c-.09.27-.18.53-.26.81l-.09.35-.18.68c0,.14-.05.28-.08.41s-.09.45-.13.68-.05.3-.07.45-.06.47-.09.72,0,.29,0,.44,0,.55-.06.82,0,.26,0,.4c0,.41,0,.83,0,1.26l0,3.66c0-.36,0-.71,0-1,0-.12,0-.23,0-.34s0-.46,0-.68,0-.25,0-.37,0-.41.08-.61,0-.24.06-.37.06-.38.1-.56.05-.24.07-.35l.15-.57c0-.1.05-.2.08-.3s.14-.45.22-.67c0,0,0-.09,0-.14.1-.26.2-.52.31-.76l.11-.21c.08-.18.16-.35.25-.51a2,2,0,0,1,.14-.25l.25-.42.17-.25.27-.37.18-.23c.1-.13.2-.24.31-.36l.18-.19c.12-.13.25-.25.38-.37l.14-.13c.18-.15.36-.3.55-.44l.14-.09.45-.3.22-.12.41-.21.25-.11.4-.17.26-.09a5.15,5.15,0,0,1,.56-.16l.19-.06c.25-.06.51-.1.77-.14l.34,0c.11,0,.22,0,.34,0l.35,0H67l.68,0h0l.66.07.19,0,.52.08.24.05a4.7,4.7,0,0,1,.51.12l.2.05.72.2.07,0,.66.23.21.08.59.25.16.06.73.34c.3.15.61.31.92.49s.52.3.78.46l.08,0,.75.49a1.88,1.88,0,0,1,.23.16l.54.37.25.18.51.4.26.2.65.53.09.08.76.67.21.2.53.49.43.44.33.33c.15.16.3.31.44.47l.31.33c.29.32.57.65.85,1l.23.28.61.75.24.31c.3.4.6.8.89,1.21l.11.15c.26.38.51.76.76,1.14l.19.29c.27.42.53.85.79,1.29l.13.23c.22.39.44.77.65,1.17l.15.29c.19.34.36.69.53,1l0,.09c.18.37.35.76.53,1.14.07.17.14.34.22.51s.13.32.2.48l.21.53c.07.16.13.33.19.49l.27.72a2.25,2.25,0,0,1,.08.24c.12.33.22.65.33,1,0,.06,0,.13.05.19.08.25.16.51.23.76l.09.33c.06.22.11.44.17.65a2.81,2.81,0,0,0,.08.31l.15.71.06.24c.06.31.12.61.17.92a1.42,1.42,0,0,0,0,.2c0,.25.07.49.11.74l0,.26c0,.26.07.52.09.77,0,0,0,.1,0,.15,0,.3,0,.6.07.9a1.85,1.85,0,0,0,0,.23c0,.28,0,.57,0,.85s0,.64,0,.95a.49.49,0,0,0,0,.12c0,.24,0,.49,0,.73,0,.08,0,.16,0,.25l-.06.59,0,.25-.12.78h0c0,.26-.1.51-.16.76a2.1,2.1,0,0,1-.06.24c0,.17-.08.33-.13.49s-.07.24-.11.36S90,58.85,90,59s-.09.23-.13.35-.09.22-.14.34-.2.44-.31.66a1.17,1.17,0,0,0,0,.11c-.13.25-.27.48-.41.71l-.33.49-.07.09c-.1.14-.2.27-.31.4l-.1.12c-.13.15-.26.29-.4.43l0,.06-.38.35-.11.1-.45.36,0,0a3.52,3.52,0,0,1-.45.3l-.12.08-.49.27h0c-.17.09-.35.16-.52.24l-.14.05c-.16.07-.33.12-.49.18l-.07,0a5.29,5.29,0,0,1-.57.15l-.14,0-.5.09-.11,0q-.3,0-.6.06h-.15l-.52,0H81.7c-.21,0-.43,0-.64,0h-.15l-.55,0-.15,0-.67-.11-.14,0-.58-.14-.17,0-.7-.2-.11,0-.63-.22L77,64.15c-.24-.09-.49-.19-.73-.3l-.07,0-.68-.32-.2-.1L74.6,63l-.36-.2,3.17,1.85.43.24c.3.17.61.32.91.48l.23.11q.4.21.81.39l.09,0q.44.19.87.36l.22.09.75.26.13,0,.84.25.2,0,.7.16.16,0c.27,0,.54.1.8.13l.19,0,.65.06.18,0,.76,0h.16l.62,0h.18l.72-.08.13,0c.2,0,.4-.07.6-.12l.17,0c.23,0,.46-.11.68-.18l.08,0,.58-.2.17-.07c.21-.09.42-.18.63-.29h0c.2-.1.39-.21.58-.32l.15-.09.54-.36,0,0c.18-.13.36-.28.54-.43l.14-.12.45-.42.06-.06c.17-.17.33-.34.48-.52l.12-.14c.13-.16.25-.32.37-.49l.08-.1c.12-.17.24-.34.35-.52l0-.06c.17-.28.34-.56.49-.86a.83.83,0,0,0,.07-.13c.13-.26.25-.52.37-.79a.54.54,0,0,1,0-.11l.11-.3c.06-.13.11-.27.16-.41l.15-.46c0-.14.1-.28.14-.43l0-.13c0-.15.08-.3.11-.45s.06-.19.08-.29c.07-.3.13-.6.19-.91h0c.06-.31.11-.62.15-.94l0-.29c0-.14,0-.27,0-.41l0-.3c0-.1,0-.2,0-.3C97.27,54.86,97.29,54.57,97.3,54.28Z"/><g class="cls-2"><g class="cls-40"><g class="cls-2"><path class="cls-11" d="M79.82,67.62,86.06,64a7.68,7.68,0,0,1-1.33.62l-6.24,3.62a7.65,7.65,0,0,0,1.33-.61"/><path class="cls-12" d="M78.49,68.23l6.24-3.62a8.6,8.6,0,0,1-1.16.32l-6.24,3.62a7.65,7.65,0,0,0,1.16-.32"/><path class="cls-13" d="M77.33,68.55l6.24-3.62c-.31.06-.63.1-.95.13l-6.24,3.63a7.5,7.5,0,0,0,1-.14"/><path class="cls-14" d="M76.38,68.69l6.24-3.63a7.75,7.75,0,0,1-.84,0l-6.25,3.63a7.94,7.94,0,0,0,.85,0"/><path class="cls-15" d="M75.53,68.73l6.25-3.63a7.12,7.12,0,0,1-.8,0l-6.24,3.63.79,0"/><path class="cls-16" d="M74.74,68.71,81,65.08c-.24,0-.48,0-.73-.08L74,68.63l.73.08"/><path class="cls-17" d="M74,68.63,80.25,65l-.71-.11L73.3,68.51l.71.12"/><path class="cls-18" d="M73.3,68.51l6.24-3.62-.69-.16-6.24,3.63q.35.09.69.15"/><path class="cls-19" d="M72.61,68.36l6.24-3.63-.68-.18-6.24,3.62c.23.07.46.14.68.19"/><path class="cls-20" d="M71.93,68.17l6.24-3.62-.66-.22L71.26,68l.67.21"/><path class="cls-21" d="M71.26,68l6.25-3.63-.67-.25L70.6,67.71l.66.25"/><path class="cls-22" d="M70.6,67.71l6.24-3.63-.66-.28-6.24,3.62.66.29"/><path class="cls-23" d="M69.94,67.42l6.24-3.62-.67-.32-6.25,3.63.68.31"/><path class="cls-24" d="M69.26,67.11l6.25-3.63-.68-.35-6.24,3.63.67.35"/><path class="cls-25" d="M68.59,66.76l6.24-3.63A1.71,1.71,0,0,1,74.6,63c-.16-.08-.31-.17-.46-.26L67.9,66.37l.45.26.24.13"/><path class="cls-26" d="M67.9,66.37l6.24-3.63-.69-.42L67.2,65.94l.7.43"/><path class="cls-27" d="M67.2,65.94l6.25-3.62-.71-.47L66.5,65.48l.7.46"/><path class="cls-28" d="M66.5,65.48l6.24-3.63c-.24-.16-.48-.33-.71-.51L65.79,65l.71.51"/><path class="cls-29" d="M65.79,65,72,61.34l-.73-.55-6.24,3.62c.24.19.48.38.73.56"/><path class="cls-30" d="M65.06,64.41l6.24-3.62-.73-.6-6.24,3.63c.24.2.48.4.73.59"/><path class="cls-31" d="M64.33,63.82l6.24-3.63c-.25-.21-.5-.42-.74-.64l-6.24,3.62.74.65"/><path class="cls-32" d="M63.59,63.17l6.24-3.62-.72-.67L62.87,62.5l.72.67"/><path class="cls-33" d="M62.87,62.5l6.24-3.62-.7-.7-6.24,3.63c.23.23.46.47.7.69"/><path class="cls-34" d="M62.17,61.81l6.24-3.63c-.23-.23-.45-.46-.67-.7l-6.25,3.63.68.7"/><path class="cls-3" d="M61.49,61.11l6.25-3.63-.65-.72-6.24,3.63.64.72"/><path class="cls-3" d="M60.85,60.39l6.24-3.63c-.22-.24-.43-.49-.64-.75l-6.24,3.63.64.75"/><path class="cls-3" d="M60.21,59.64,66.45,56q-.32-.37-.63-.78l-6.24,3.63q.3.39.63.78"/><path class="cls-3" d="M59.58,58.86l6.24-3.63c-.25-.31-.49-.62-.73-.95l-6.24,3.63c.24.32.48.64.73,1"/><path class="cls-3" d="M58.85,57.91l6.24-3.63c-.34-.47-.68-1-1-1.44l-6.24,3.63c.33.49.66,1,1,1.44"/><path class="cls-3" d="M57.84,56.47l6.24-3.63c-.46-.69-.91-1.4-1.33-2.12l-6.24,3.63c.42.72.86,1.43,1.33,2.12"/><path class="cls-3" d="M56.51,54.35l6.24-3.63c-.28-.47-.54-.94-.8-1.43l-6.24,3.63c.26.48.52,1,.8,1.43"/><path class="cls-3" d="M55.71,52.92,62,49.29l-.47-.91L55.24,52c.15.31.31.61.47.91"/><path class="cls-3" d="M55.24,52l6.24-3.63c-.14-.29-.29-.58-.42-.88l-6.25,3.63.43.88"/><path class="cls-3" d="M54.81,51.13l6.25-3.63c-.13-.26-.25-.53-.37-.79l-6.24,3.63.36.79"/><path class="cls-3" d="M54.45,50.34l6.24-3.63c-.11-.27-.23-.53-.34-.8l-6.24,3.63c.11.27.23.53.34.8"/><path class="cls-34" d="M54.11,49.54l6.24-3.63c-.11-.26-.21-.53-.32-.8l-6.24,3.63c.1.27.21.53.32.8"/><path class="cls-33" d="M53.79,48.74,60,45.11l-.3-.8-6.24,3.62.3.81"/><path class="cls-32" d="M53.49,47.93l6.24-3.62c-.1-.28-.2-.57-.29-.85l-6.25,3.63.3.84"/><path class="cls-31" d="M53.19,47.09l6.25-3.63c-.1-.28-.19-.56-.28-.85l-6.24,3.63.27.85"/><path class="cls-30" d="M52.92,46.24l6.24-3.63c-.09-.29-.17-.58-.25-.87l-6.24,3.62c.08.3.16.59.25.88"/><path class="cls-29" d="M52.67,45.36l6.24-3.62c-.08-.29-.16-.59-.23-.88l-6.24,3.63c.07.29.14.58.23.87"/><path class="cls-28" d="M52.44,44.49l6.24-3.63L58.47,40l-6.24,3.63c.07.29.13.58.21.87"/><path class="cls-27" d="M52.23,43.62,58.47,40c-.06-.28-.12-.57-.17-.85l-6.24,3.62c0,.29.11.58.17.86"/><path class="cls-26" d="M52.06,42.76l6.24-3.62-.15-.84-6.24,3.62.15.84"/><path class="cls-25" d="M51.91,41.92l6.24-3.62c0-.28-.08-.56-.11-.83L51.8,41.1c0,.27.07.55.11.82"/><path class="cls-24" d="M51.8,41.1,58,37.47q-.06-.4-.09-.81l-6.24,3.62c0,.27,0,.54.09.82"/><path class="cls-23" d="M51.71,40.28,58,36.66c0-.27-.05-.54-.07-.81l-6.24,3.63c0,.26,0,.53.07.8"/><path class="cls-22" d="M51.64,39.48l6.24-3.63c0-.27,0-.54,0-.8L51.6,38.68c0,.26,0,.53,0,.8"/><path class="cls-21" d="M51.6,38.68l6.25-3.63c0-.14,0-.27,0-.41a2.54,2.54,0,0,1,0-.39l-6.25,3.63c0,.13,0,.26,0,.39v.41"/><path class="cls-20" d="M51.59,37.88l6.25-3.63c0-.27,0-.53,0-.79l-6.24,3.63c0,.26,0,.52,0,.79"/><path class="cls-19" d="M51.61,37.09l6.24-3.63c0-.27,0-.53,0-.79L51.66,36.3c0,.26,0,.52,0,.79"/><path class="cls-18" d="M51.66,36.3l6.24-3.63c0-.26.05-.52.08-.78l-6.24,3.63c0,.25-.06.51-.08.78"/><path class="cls-17" d="M51.74,35.52,58,31.89l.12-.8-6.24,3.63-.12.8"/><path class="cls-16" d="M51.86,34.72l6.24-3.63c0-.27.1-.53.16-.79L52,33.93c-.06.26-.11.52-.16.79"/><path class="cls-15" d="M52,33.93l6.24-3.63c.07-.29.14-.57.22-.85l-6.24,3.63c-.08.27-.15.56-.22.85"/><path class="cls-14" d="M52.24,33.08l6.24-3.63c.09-.3.19-.6.3-.88l-6.25,3.62c-.1.29-.2.58-.29.89"/><path class="cls-13" d="M52.53,32.19l6.25-3.62a10.2,10.2,0,0,1,.4-1l-6.24,3.63c-.15.3-.28.62-.41.95"/><path class="cls-12" d="M52.94,31.24l6.24-3.63a10.26,10.26,0,0,1,.63-1.13l-6.25,3.63a12.17,12.17,0,0,0-.62,1.13"/><path class="cls-11" d="M53.56,30.11l6.25-3.63a8.28,8.28,0,0,1,2.85-2.77l-6.24,3.62a8.52,8.52,0,0,0-2.86,2.78"/></g></g></g><path class="cls-41" d="M99.5,8l.56.38.41.27.42.31.57.42.43.34.54.43.33.28c.26.21.51.43.76.65l.37.34c.24.22.48.44.71.67s.25.23.37.36.24.24.36.36l.49.5.36.39.48.52.35.39.46.54.34.41c.15.17.29.36.44.54l.36.45.42.56c.12.15.24.3.35.46l.42.58c.11.15.22.3.32.46l.42.61.3.45.42.65.27.43c.16.25.3.5.45.75s.15.24.21.36c.22.37.43.74.64,1.12l0,.09.55,1,.16.33c.14.27.27.54.4.81s.14.29.2.43l.33.71.21.48.29.68c.07.16.13.33.2.5l.24.61c.14.37.28.74.41,1.11A2.49,2.49,0,0,0,116,30q.24.7.45,1.41l.15.52c.07.24.15.48.21.72s.1.37.14.55l.18.71c0,.21.1.42.14.63l.12.56.12.64c0,.18.07.37.1.55s.07.47.11.7l.06.47c0,.25.06.51.09.76s0,.26,0,.4c0,.37.07.73.09,1.1v0c0,.4,0,.79,0,1.18l0-3.66v-.07c0-.3,0-.61,0-.91h0c0-.31,0-.61-.07-.91v0c0-.11,0-.22,0-.33s0-.43-.07-.64l-.06-.39-.06-.47a.5.5,0,0,1,0-.12l-.09-.46c0-.18-.06-.36-.1-.54s-.06-.31-.1-.46,0-.26-.08-.39,0-.1,0-.14c0-.2-.09-.4-.14-.59l-.12-.46-.18-.61c0-.12-.06-.24-.1-.36a.25.25,0,0,1,0-.07c-.12-.39-.25-.79-.39-1.18a2.25,2.25,0,0,0-.08-.24c-.11-.31-.23-.62-.35-.93,0,0,0-.1,0-.16l-.15-.35c0-.14-.11-.28-.17-.42s-.16-.38-.24-.57-.11-.26-.17-.4-.18-.39-.28-.59-.11-.24-.17-.36-.22-.46-.33-.69a2.1,2.1,0,0,1-.13-.26l0,0-.45-.85a.43.43,0,0,0,0-.07c-.17-.32-.35-.63-.53-.94l-.18-.3c-.12-.21-.24-.42-.37-.62l-.23-.36c-.11-.19-.23-.37-.35-.55l-.25-.38-.35-.51-.27-.39-.35-.48c-.1-.13-.19-.26-.29-.38l-.36-.47-.3-.38-.24-.3-.12-.15-.29-.34c-.13-.15-.25-.3-.39-.45l-.29-.33-.4-.44-.3-.32-.41-.42-.3-.3L107,13.3l-.19-.17-.59-.56-.31-.28-.64-.55-.19-.17-.08-.06-.45-.36-.37-.29c-.15-.12-.31-.23-.47-.34a3.55,3.55,0,0,0-.31-.23l0,0A4,4,0,0,0,103,10l-.46-.32-.36-.22-.37-.23-.17-.1L98.42,7.31c.22.13.44.26.65.4Z"/><path class="cls-6" d="M99.5,8l.56.38.41.27.42.31.57.42.43.34.54.43.33.28c.26.21.51.43.76.65l.37.34c.24.22.48.44.71.67s.25.23.37.36.24.24.36.36l.49.5.36.39.48.52.35.39.46.54.34.41c.15.17.29.36.44.54l.36.45.42.56c.12.15.24.3.35.46l.42.58c.11.15.22.3.32.46l.42.61.3.45.42.65.27.43c.16.25.3.5.45.75s.15.24.21.36c.22.37.43.74.64,1.12l0,.09.55,1,.16.33c.14.27.27.54.4.81s.14.29.2.43l.33.71.21.48.29.68c.07.16.13.33.2.5l.24.61c.14.37.28.74.41,1.11A2.49,2.49,0,0,0,116,30q.24.7.45,1.41l.15.52c.07.24.15.48.21.72s.1.37.14.55l.18.71c0,.21.1.42.14.63l.12.56.12.64c0,.18.07.37.1.55s.07.47.11.7l.06.47c0,.25.06.51.09.76s0,.26,0,.4c0,.37.07.73.09,1.1v0c0,.4,0,.79,0,1.18l0-3.66v-.07c0-.3,0-.61,0-.91h0c0-.31,0-.61-.07-.91v0c0-.11,0-.22,0-.33s0-.43-.07-.64l-.06-.39-.06-.47a.5.5,0,0,1,0-.12l-.09-.46c0-.18-.06-.36-.1-.54s-.06-.31-.1-.46,0-.26-.08-.39,0-.1,0-.14c0-.2-.09-.4-.14-.59l-.12-.46-.18-.61c0-.12-.06-.24-.1-.36a.25.25,0,0,1,0-.07c-.12-.39-.25-.79-.39-1.18a2.25,2.25,0,0,0-.08-.24c-.11-.31-.23-.62-.35-.93,0,0,0-.1,0-.16l-.15-.35c0-.14-.11-.28-.17-.42s-.16-.38-.24-.57-.11-.26-.17-.4-.18-.39-.28-.59-.11-.24-.17-.36-.22-.46-.33-.69a2.1,2.1,0,0,1-.13-.26l0,0-.45-.85a.43.43,0,0,0,0-.07c-.17-.32-.35-.63-.53-.94l-.18-.3c-.12-.21-.24-.42-.37-.62l-.23-.36c-.11-.19-.23-.37-.35-.55l-.25-.38-.35-.51-.27-.39-.35-.48c-.1-.13-.19-.26-.29-.38l-.36-.47-.3-.38-.24-.3-.12-.15-.29-.34c-.13-.15-.25-.3-.39-.45l-.29-.33-.4-.44-.3-.32-.41-.42-.3-.3L107,13.3l-.19-.17-.59-.56-.31-.28-.64-.55-.19-.17-.08-.06-.45-.36-.37-.29c-.15-.12-.31-.23-.47-.34a3.55,3.55,0,0,0-.31-.23l0,0A4,4,0,0,0,103,10l-.46-.32-.36-.22-.37-.23-.17-.1L98.42,7.31c.22.13.44.26.65.4Z"/><path class="cls-7" d="M118,42.38v-.13c0-.11,0-.23,0-.34s0-.31,0-.47V41c0-.16,0-.33,0-.49s0-.31,0-.47,0-.23,0-.34a.76.76,0,0,0,0-.15c0-.3,0-.6-.07-.91v0h0c0-.32-.07-.65-.11-1,0-.05,0-.09,0-.14s0-.23-.05-.35,0-.33-.07-.5,0-.19,0-.28,0-.27-.07-.41l-.06-.32c0-.14,0-.29-.08-.43l-.09-.41,0-.18-.15-.64c0-.11,0-.22-.08-.33s0-.05,0-.07q-.12-.53-.27-1.05v0l-.06-.21c-.08-.27-.15-.53-.24-.8,0-.05,0-.1,0-.14l-.12-.38c-.06-.17-.11-.33-.16-.5l-.1-.27c0-.14-.09-.28-.14-.42s-.07-.21-.11-.32-.12-.3-.17-.45-.09-.24-.14-.35l-.06-.16c-.12-.31-.24-.62-.37-.92v0h0c-.13-.32-.27-.63-.41-.95a1,1,0,0,0-.07-.15l-.15-.33-.21-.47-.14-.28c-.07-.16-.15-.31-.22-.47l-.15-.3-.18-.36-.26-.5-.12-.23-.13-.23c-.23-.43-.47-.86-.71-1.28l-.12-.2a.41.41,0,0,0,0-.09l-.59-1c0-.08-.09-.16-.15-.24-.25-.4-.51-.8-.77-1.19l0,0-.07-.11c-.32-.48-.66-1-1-1.43l-.14-.19a1.83,1.83,0,0,0-.13-.16c-.15-.22-.31-.43-.48-.64l-.25-.33-.12-.14L108,15.8l-.31-.39-.16-.18c-.11-.13-.22-.27-.34-.4l-.26-.31-.22-.24-.34-.38-.22-.24-.27-.29-.36-.37-.17-.18-.33-.33-.38-.37-.13-.13-.38-.36-.38-.35-.1-.09-.45-.39c-.12-.11-.24-.22-.37-.32l-.06-.06-.62-.5L102,9.73l0,0L101.05,9l0,0-.2-.14-.62-.44a.41.41,0,0,0-.11-.07,3.62,3.62,0,0,0-.32-.22l-.41-.27-.21-.13-.34-.2-.28-.18L98,7.06l-.28-.15-.54-.29-.22-.11,0,0c-.27-.14-.53-.26-.8-.38l0,0L95.82,6l-.52-.22-.16-.06-.32-.12-.32-.12-.25-.08-.34-.11-.21-.07-.34-.09L93,5l-.13,0-.42-.1-.33-.07-.07,0-.45-.07-.36-.06h0l-.43,0-.4,0h-.28l-.63,0H89.4l-.61,0h-.14l-.27,0-.34,0-.16,0-.63.11h-.06l-.29.07L86.46,5l-.3.1c-.1,0-.2,0-.3.09l-.09,0c-.18.06-.35.14-.52.21L85,5.5a7.24,7.24,0,0,0-.73.38l-20.7,12a6.31,6.31,0,0,1,.73-.38l.25-.11c.17-.07.34-.15.52-.21l.39-.13.3-.1.44-.11.29-.07q.35-.07.69-.12l.16,0L68,16.6h.83l.63,0h.28l.4,0,.47.05.36.06.52.09.32.07.56.13.34.1.55.16.34.11.57.2.32.12.67.28.23.1q.45.19.9.42l.21.11c.28.14.55.28.83.44s.56.32.83.49l.34.2.62.4.32.22c.24.16.49.33.73.51l.2.14c.31.23.62.46.93.71l.23.18.68.57c.13.1.25.21.37.32l.55.48.37.35.52.49.38.37.5.51.36.38c.16.17.33.34.49.52l.34.38.48.55c.12.13.23.27.34.4l.47.57.33.41.37.48.48.63.27.35c.34.47.67.95,1,1.43l.1.15c.26.39.52.79.77,1.19l.15.24.59,1,.16.29c.25.42.49.85.72,1.28.08.16.17.31.25.46s.17.34.25.5.23.44.33.66.16.31.23.47.24.5.35.75l.15.33q.26.55.48,1.11v0c.15.36.29.72.43,1.08a3.62,3.62,0,0,1,.13.35c.1.26.2.52.29.78s.09.27.14.41.17.51.26.77l.12.38.28.94.06.21c.11.39.21.77.3,1.15,0,.11,0,.22.07.33.07.27.13.55.19.82s.06.28.08.41.1.5.15.75.05.28.07.41l.12.78c0,.12,0,.24,0,.35,0,.38.09.75.13,1.12v0c0,.35.06.71.08,1.06,0,.11,0,.23,0,.34,0,.32,0,.64,0,1s0,.63,0,.94c0,.11,0,.23,0,.34,0,.31,0,.62,0,.93a.49.49,0,0,0,0,.12c0,.35-.07.69-.11,1,0,.12,0,.24,0,.36s-.07.43-.1.64l-.09.42c0,.18-.07.36-.11.54l-.15.57c0,.14-.07.28-.11.41s-.18.55-.27.81c0,.06,0,.13-.07.19l0,.08c-.09.23-.18.46-.28.68l-.09.19c-.08.17-.16.34-.25.5a2.44,2.44,0,0,1-.14.28l-.3.52c0,.06-.07.13-.11.18-.14.22-.28.42-.43.63l-.12.15c-.12.15-.23.3-.35.44l-.15.17a5.11,5.11,0,0,1-.45.48l0,0c-.17.17-.35.33-.53.48l-.16.13-.42.32-.17.12-.59.38h0l20.71-12,.59-.38.17-.12c.14-.1.29-.21.42-.32l.16-.13c.18-.15.36-.31.53-.48l.05,0c.16-.15.31-.32.45-.48l.15-.17c.12-.14.24-.29.35-.44l.12-.16c.14-.19.28-.39.41-.59l0,0s.07-.12.11-.18.21-.34.3-.52l.15-.28c.05-.11.12-.22.17-.34s0-.11.08-.16a1.54,1.54,0,0,1,.08-.19c.1-.22.19-.45.28-.68a.2.2,0,0,1,0-.08v0a1.42,1.42,0,0,1,0-.16q.14-.39.27-.81l0-.09c0-.1,0-.22.08-.32l.15-.57,0-.13c0-.13.06-.27.08-.41l.09-.42a.43.43,0,0,1,0-.11c0-.17,0-.35.08-.53s0-.24,0-.36a.15.15,0,0,0,0-.07c0-.3.07-.61.1-.93v0s0-.08,0-.13C118,42.91,118,42.65,118,42.38Z"/><path class="cls-7" d="M90.87,54.24v-.11a2.53,2.53,0,0,1,0-.28c0-.14,0-.27,0-.4s0-.26,0-.39v-.41c0-.13,0-.26,0-.39s0-.2,0-.29v-.12l-.06-.76v0h0q0-.4-.09-.81s0-.08,0-.11,0-.2,0-.3l-.06-.42a1.85,1.85,0,0,1,0-.23l-.06-.34c0-.09,0-.18,0-.27s0-.24-.07-.36,0-.23-.07-.34l0-.16c0-.18-.09-.36-.13-.54l-.06-.26s0,0,0-.07c-.07-.29-.14-.58-.23-.87v0a.84.84,0,0,1,0-.17c-.07-.23-.13-.45-.2-.67l0-.12c0-.11-.07-.21-.1-.32s-.09-.28-.13-.42a2,2,0,0,1-.08-.22l-.12-.35c0-.09-.06-.18-.1-.27s-.09-.25-.14-.38l-.11-.29,0-.14c-.1-.25-.2-.51-.31-.76v0h0c-.11-.27-.23-.54-.34-.8L88,40.86l-.13-.28c-.06-.13-.11-.26-.17-.38L87.55,40c-.06-.13-.12-.26-.19-.39l-.12-.26c0-.1-.1-.2-.16-.3l-.21-.41c0-.07-.07-.13-.1-.2l-.11-.19c-.19-.36-.39-.71-.59-1.07A1,1,0,0,1,86,37a.43.43,0,0,1,0-.07c-.16-.27-.32-.54-.49-.8l-.13-.22c-.21-.33-.43-.66-.65-1l0,0-.06-.08c-.27-.41-.55-.8-.84-1.2l-.11-.16a1.71,1.71,0,0,1-.11-.14l-.4-.52-.22-.29-.09-.11c-.09-.12-.18-.23-.28-.34l-.26-.33-.13-.15-.28-.33c-.08-.09-.15-.18-.23-.26l-.18-.2-.28-.32-.18-.2L80.75,30c-.09-.11-.19-.21-.29-.32l-.15-.14L80,29.24l-.32-.31-.11-.11-.32-.3L79,28.23a.6.6,0,0,0-.08-.08l-.37-.32-.31-.27-.06,0-.51-.43-.2-.15,0,0c-.24-.19-.48-.38-.73-.56l0,0-.17-.11L76,25.85l-.09-.06-.27-.18-.34-.23-.18-.11-.28-.17L74.58,25l-.45-.26-.24-.13-.45-.24-.18-.09,0,0-.68-.32,0,0-.18-.08-.44-.18-.13-.05-.26-.1-.27-.1L71,23.3l-.28-.09-.17-.06-.29-.08L70,23l-.11,0-.36-.08-.27-.06h-.06l-.37-.06-.3-.05h0l-.35,0-.34,0h-.24l-.53,0h-.24a4.93,4.93,0,0,0-.55,0H66.1l-.29,0h-.13l-.53.09H65.1l-.24.06-.37.09-.25.08-.25.08-.08,0-.43.18-.21.09c-.21.1-.41.2-.61.32h0l-6.24,3.62A5.81,5.81,0,0,1,57,27a1.21,1.21,0,0,1,.2-.09,4.07,4.07,0,0,1,.44-.18l.33-.11.25-.08.37-.09.24-.06.58-.1.13,0,.41,0,.55,0h.24l.53,0h.24l.33,0,.4,0,.29.05.44.07.27.06.47.11.28.08.46.13.28.1.48.17.27.1.56.23.19.08.76.35.18.1.68.36c.24.13.47.27.7.41l.28.17.52.34.27.18.61.42.17.12.77.59.2.16.57.47.31.27.45.4.32.3.43.41.32.31.41.42c.11.1.2.21.3.31l.42.45.28.31.41.47.28.33.39.47c.09.12.19.23.28.34s.2.27.31.4l.4.53.22.3c.29.39.57.79.84,1.19a.91.91,0,0,1,.08.13c.22.32.44.66.65,1l.13.21.49.81.13.24c.21.35.41.71.6,1.07l.21.39.21.41.28.56.19.38c.1.21.2.42.29.63l.13.28c.14.31.27.62.4.93v0l.36.91c0,.09.07.19.11.29l.24.65.12.34.21.65c0,.11.07.21.1.32s.16.52.23.79l.06.17c.08.32.17.64.25,1l.06.27c.06.23.11.47.16.7s0,.22.07.34l.12.62.06.35.09.65c0,.1,0,.2.05.3,0,.31.07.62.1.92v0c0,.3,0,.59.06.89,0,.09,0,.19,0,.28,0,.27,0,.54,0,.8s0,.53,0,.79a2.72,2.72,0,0,0,0,.28c0,.27,0,.53,0,.78a.41.41,0,0,0,0,.11l-.09.85c0,.1,0,.2,0,.3s0,.36-.08.54,0,.23-.07.34-.06.31-.1.46l-.12.47c0,.12-.06.23-.1.35s-.14.45-.22.68c0,0,0,.1,0,.14-.11.3-.24.58-.36.86-.06.12-.12.25-.19.37s-.07.15-.12.23l-.25.44-.09.15-.36.52-.1.13-.3.37-.12.14c-.12.14-.25.27-.38.4l0,0c-.14.14-.29.27-.44.4l-.13.11-.36.27-.14.1-.5.32L86.06,64l.5-.32.14-.1.36-.27.13-.11c.15-.12.3-.26.45-.4l0,0c.13-.13.25-.26.37-.4l.12-.14c.11-.12.2-.24.3-.37a1.47,1.47,0,0,0,.1-.13c.12-.16.24-.33.35-.5v0L89,61c.09-.14.17-.29.26-.44s.07-.15.11-.23l.15-.29,0-.08c.13-.28.25-.56.36-.85v0A.65.65,0,0,1,90,59c.08-.22.15-.45.22-.68l0-.07c0-.09.05-.19.07-.28l.12-.47,0-.11c0-.11.05-.23.07-.34s0-.23.07-.35,0-.06,0-.09l.06-.45c0-.1,0-.2,0-.3a.43.43,0,0,1,0,0c0-.26.06-.52.08-.79h0a.41.41,0,0,1,0-.11C90.84,54.68,90.86,54.46,90.87,54.24Z"/><ellipse class="cls-9" cx="68.12" cy="47.48" rx="13.49" ry="23.3" transform="translate(-14.63 40.65) rotate(-30.16)"/></g><g class="cls-2"><ellipse class="cls-9" cx="67.44" cy="47.98" rx="14.61" ry="25.22" transform="translate(-14.98 40.38) rotate(-30.16)"/><g class="cls-2"><g class="cls-42"><g class="cls-2"><path class="cls-3" d="M69.41,84.43c7.81-5.57,12.66-12.23,15.25-21-2,7.29-8.79,9.8-17,5.25-9.88-5.51-18-19.25-18.15-30.71a59.4,59.4,0,0,0-20.27,5.88c.18,14.77,10.66,32.51,23.4,39.61,6.64,3.7,12.59,3.78,16.73.93"/><path class="cls-3" d="M29.28,43.89c.09,7,2.51,14.74,6.39,21.64L35.82,64c.62-8.94,11.59-11.63,16.24-7.43,5.52,5,.14,14.89-8.11,14.91a10.68,10.68,0,0,1-5.56-1.61A44.41,44.41,0,0,0,52.68,83.5c6.64,3.7,12.59,3.78,16.73.93l1.07-.77c.33-.25.78-.58,1.1-.84l1-.82c.31-.27.73-.63,1-.91l.94-.88c.29-.29.69-.67,1-1l.88-.93.89-1,.81-1c.24-.32.58-.75.82-1.08l.73-1c.23-.34.53-.79.75-1.14L81.07,72c.2-.36.47-.83.67-1.2l.57-1.12c.18-.38.42-.88.59-1.26l.5-1.17c.15-.39.36-.92.5-1.32l.41-1.21c.12-.42.29-1,.41-1.4-2,7.49-8.85,10-17,5.45-9.88-5.51-18-19.25-18.15-30.71a59.4,59.4,0,0,0-20.27,5.88"/><path class="cls-3" d="M29.28,43.89c.08,6.66,2.26,13.93,5.79,20.55L35.28,63C38.08,52.44,50.59,52,54,58.34c2.39,4.49-1.32,16.13-14.6,12.9A43.24,43.24,0,0,0,52.68,83.5c6.64,3.7,12.59,3.78,16.73.93h0c1.41-1,1.44-1,2.17-1.61l1-.82c.31-.27.73-.63,1-.91l.94-.88c.29-.29.69-.67,1-1l.88-.93.89-1,.81-1c.24-.32.58-.75.82-1.08l.73-1c.23-.34.53-.79.75-1.14L81.07,72c.2-.36.47-.83.67-1.2l.57-1.12c.18-.38.42-.88.59-1.26l.5-1.17c.15-.39.36-.92.5-1.32l.41-1.21c.12-.42.29-1,.41-1.4-2,7.49-8.85,10-17,5.45-9.88-5.51-18-19.25-18.15-30.71a59.4,59.4,0,0,0-20.27,5.88"/><path class="cls-3" d="M29.28,43.89A45.38,45.38,0,0,0,34.5,63.33v-.11C39,50.4,51.43,52.71,54.32,58.11c2.74,5.13-1.81,16.47-14.34,14A42.89,42.89,0,0,0,52.68,83.5c6.64,3.7,12.59,3.78,16.73.93l1.07-.77c.33-.25.78-.58,1.1-.84l1-.82c.31-.27.73-.63,1-.91l.94-.88c.29-.29.69-.67,1-1l.88-.93.89-1,.81-1c.24-.32.58-.75.82-1.08l.73-1c.23-.34.53-.79.75-1.14L81.07,72c.2-.36.47-.83.67-1.2l.57-1.12c.18-.38.42-.88.59-1.26l.5-1.17c.15-.39.36-.92.5-1.32l.41-1.21c.12-.42.29-1,.41-1.4-2,7.49-8.85,10-17,5.45-9.88-5.51-18-19.25-18.15-30.71a59.4,59.4,0,0,0-20.27,5.88"/><path class="cls-3" d="M29.28,43.89a44.93,44.93,0,0,0,4.81,18.62l.43-1.1c4.37-10.22,16.71-9.87,20.16-3.54,3.36,6.16-3.3,16.82-14.06,15A42.22,42.22,0,0,0,52.68,83.5c6.64,3.7,12.59,3.78,16.73.93l1.07-.77c.33-.25.78-.58,1.1-.84l1-.82c.31-.27.73-.63,1-.91l.94-.88c.29-.29.69-.67,1-1l.88-.93.89-1,.81-1c.24-.32.58-.75.82-1.08l.73-1c.23-.34.53-.79.75-1.14L81.07,72c.2-.36.47-.83.67-1.2l.57-1.12c.18-.38.42-.88.59-1.26l.5-1.17c.15-.39.36-.92.5-1.32l.41-1.21c.12-.42.29-1,.41-1.4-2,7.49-8.85,10-17,5.45-9.88-5.51-18-19.25-18.15-30.71a59.4,59.4,0,0,0-20.27,5.88"/><path class="cls-3" d="M29.28,43.89a44.39,44.39,0,0,0,4.43,17.82l.46-1.06C39.6,49.89,53.8,51,55.89,60c1.35,5.86-4.32,14.38-14.64,13.69A41.51,41.51,0,0,0,52.68,83.5c6.64,3.7,12.59,3.78,16.73.93l1.07-.77c.33-.25.78-.58,1.1-.84l1-.82c.31-.27.73-.63,1-.91l.94-.88c.29-.29.69-.67,1-1l.88-.93.89-1,.81-1c.24-.32.58-.75.82-1.08l.73-1c.23-.34.53-.79.75-1.14L81.07,72c.2-.36.47-.83.67-1.2l.57-1.12c.18-.38.42-.88.59-1.26l.5-1.17c.15-.39.36-.92.5-1.32l.41-1.21c.12-.42.29-1,.41-1.4-2,7.49-8.85,10-17,5.45-9.88-5.51-18-19.25-18.15-30.71a59.4,59.4,0,0,0-20.27,5.88"/><path class="cls-3" d="M29.28,43.89a44.09,44.09,0,0,0,4.06,17h0c5-10.67,18.52-10.21,22.14-3.54,3.44,6.33-2,17.14-13.62,17a41,41,0,0,0,10.82,9.1c6.64,3.7,12.59,3.78,16.73.93l1.07-.77c.33-.25.78-.58,1.1-.84l1-.82c.31-.27.73-.63,1-.91l.94-.88c.29-.29.69-.67,1-1l.88-.93.89-1,.81-1c.24-.32.58-.75.82-1.08l.73-1c.23-.34.53-.79.75-1.14L81.07,72c.2-.36.47-.83.67-1.2l.57-1.12c.18-.38.42-.88.59-1.26l.5-1.17c.15-.39.36-.92.5-1.32l.41-1.21c.12-.42.29-1,.41-1.4-2,7.49-8.85,10-17,5.45-9.88-5.51-18-19.25-18.15-30.71a59.4,59.4,0,0,0-20.27,5.88"/><path class="cls-3" d="M56.72,59.38c1.49,6.85-4.39,15.22-14.23,15.73A40.2,40.2,0,0,0,52.68,83.5c6.64,3.7,12.59,3.78,16.73.93l1.07-.77c.33-.25.78-.58,1.1-.84l1-.82c.31-.27.73-.63,1-.91l.94-.88c.29-.29.69-.67,1-1l.88-.93.89-1,.81-1c.24-.32.58-.75.82-1.08l.73-1c.23-.34.53-.79.75-1.14L81.07,72c.2-.36.47-.83.67-1.2l.57-1.12c.18-.38.42-.88.59-1.26l.5-1.17c.15-.39.36-.92.5-1.32l.41-1.21c.12-.42.29-1,.41-1.4-2,7.49-8.85,10-17,5.45A34.92,34.92,0,0,1,56,57.23l.57,1.7c0,.14.13.31.16.45"/><path class="cls-3" d="M57.18,59c1.36,15.19-13.87,16.79-14,16.81a39.64,39.64,0,0,0,9.52,7.65c6.64,3.7,12.59,3.78,16.73.93l1.07-.77c.33-.25.78-.58,1.1-.84l1-.82c.31-.27.73-.63,1-.91l.94-.88c.29-.29.69-.67,1-1l.88-.93.89-1,.81-1c.24-.32.58-.75.82-1.08l.73-1c.23-.34.53-.79.75-1.14L81.07,72c.2-.36.47-.83.67-1.2l.57-1.12c.18-.38.42-.88.59-1.26l.5-1.17c.15-.39.36-.92.5-1.32l.41-1.21c.12-.42.29-1,.41-1.4-2,7.49-8.85,10-17,5.45A33.91,33.91,0,0,1,57.13,58.9a.78.78,0,0,1,0,.14"/><path class="cls-34" d="M57.92,61.41c.24,8.31-8.13,14.27-14,15.21a39,39,0,0,0,8.78,6.88c6.64,3.7,12.59,3.78,16.73.93l1.07-.77c.33-.25.78-.58,1.1-.84l1-.82c.31-.27.73-.63,1-.91l.94-.88c.29-.29.69-.67,1-1l.88-.93.89-1,.81-1c.24-.32.58-.75.82-1.08l.73-1c.23-.34.53-.79.75-1.14L81.07,72c.2-.36.47-.83.67-1.2l.57-1.12c.18-.38.42-.88.59-1.26l.5-1.17c.15-.39.36-.92.5-1.32l.41-1.21c.12-.42.29-1,.41-1.4-2,7.49-8.85,10-17,5.45a33.25,33.25,0,0,1-9.92-8.95l.12,1.5s0,.1,0,.14"/><path class="cls-33" d="M58.44,61c-.15,10.22-8.74,15.1-13.78,16.37a38,38,0,0,0,8,6.12c6.64,3.7,12.59,3.78,16.73.93l1.07-.77c.33-.25.78-.58,1.1-.84l1-.82c.31-.27.73-.63,1-.91l.94-.88c.29-.29.69-.67,1-1l.88-.93.89-1,.81-1c.24-.32.58-.75.82-1.08l.73-1c.23-.34.53-.79.75-1.14L81.07,72c.2-.36.47-.83.67-1.2l.57-1.12c.18-.38.42-.88.59-1.26l.5-1.17c.15-.39.36-.92.5-1.32l.41-1.21c.12-.42.29-1,.41-1.4-2,7.49-8.85,10-17,5.45a32.55,32.55,0,0,1-9.29-8.15c0,.13,0,.31,0,.44"/><path class="cls-32" d="M59,62.63C57.88,71.45,51,76.52,45.49,78.18a37.38,37.38,0,0,0,7.19,5.32c6.64,3.7,12.59,3.78,16.73.93l1.07-.77c.33-.25.78-.58,1.1-.84l1-.82c.31-.27.73-.63,1-.91l.94-.88c.29-.29.69-.67,1-1l.88-.93.89-1,.81-1c.24-.32.58-.75.82-1.08l.73-1c.23-.34.53-.79.75-1.14L81.07,72c.2-.36.47-.83.67-1.2l.57-1.12c.18-.38.42-.88.59-1.26l.5-1.17c.15-.39.36-.92.5-1.32l.41-1.21c.12-.42.29-1,.41-1.4-2,7.49-8.85,10-17,5.45A32.18,32.18,0,0,1,59,61.29c0,.4,0,.94,0,1.34"/><path class="cls-31" d="M59.49,63.16c-.67,7.59-7.06,13.43-13.1,15.84a37,37,0,0,0,6.29,4.5c6.64,3.7,12.59,3.78,16.73.93l1.07-.77c.33-.25.78-.58,1.1-.84l1-.82c.31-.27.73-.63,1-.91l.94-.88c.29-.29.69-.67,1-1l.88-.93.89-1,.81-1c.24-.32.58-.75.82-1.08l.73-1c.23-.34.53-.79.75-1.14L81.07,72c.2-.36.47-.83.67-1.2l.57-1.12c.18-.38.42-.88.59-1.26l.5-1.17c.15-.39.36-.92.5-1.32l.41-1.21c.12-.42.29-1,.41-1.4-2,7.49-8.85,10-17,5.45A31.54,31.54,0,0,1,59.56,62h0c0,.36-.05.85-.07,1.21"/><path class="cls-30" d="M60.07,63.85c-1.7,9.88-10.19,14.7-12.75,15.94a35.73,35.73,0,0,0,5.36,3.71c6.64,3.7,12.59,3.78,16.73.93l1.07-.77c.33-.25.78-.58,1.1-.84l1-.82c.31-.27.73-.63,1-.91l.94-.88c.29-.29.69-.67,1-1l.88-.93.89-1,.81-1c.24-.32.58-.75.82-1.08l.73-1c.23-.34.53-.79.75-1.14L81.07,72c.2-.36.47-.83.67-1.2l.57-1.12c.18-.38.42-.88.59-1.26l.5-1.17c.15-.39.36-.92.5-1.32l.41-1.21c.12-.42.29-1,.41-1.4-2,7.49-8.85,10-17,5.45a30.64,30.64,0,0,1-7.56-6.13c0,.38,0,.88-.07,1.26"/><path class="cls-29" d="M60.67,64.46C59,71.71,55.09,76.83,48.29,80.57a35.29,35.29,0,0,0,4.39,2.93c6.64,3.7,12.59,3.78,16.73.93l1.07-.77c.33-.25.78-.58,1.1-.84l1-.82c.31-.27.73-.63,1-.91l.94-.88c.29-.29.69-.67,1-1l.88-.93.89-1,.81-1c.24-.32.58-.75.82-1.08l.73-1c.23-.34.53-.79.75-1.14L81.07,72c.2-.36.47-.83.67-1.2l.57-1.12c.18-.38.42-.88.59-1.26l.5-1.17c.15-.39.36-.92.5-1.32l.41-1.21c.12-.42.29-1,.41-1.4-2,7.49-8.85,10-17,5.45a30.18,30.18,0,0,1-6.92-5.44c0,.35-.05.83-.11,1.18"/><path class="cls-28" d="M61.37,64.54c-.13,1.63-1.3,10.1-12.09,16.77a34.94,34.94,0,0,0,3.4,2.19c6.64,3.7,12.59,3.78,16.73.93l1.07-.77c.33-.25.78-.58,1.1-.84l1-.82c.31-.27.73-.63,1-.91l.94-.88c.29-.29.69-.67,1-1l.88-.93.89-1,.81-1c.24-.32.58-.75.82-1.08l.73-1c.23-.34.53-.79.75-1.14L81.07,72c.2-.36.47-.83.67-1.2l.57-1.12c.18-.38.42-.88.59-1.26l.5-1.17c.15-.39.36-.92.5-1.32l.41-1.21c.12-.42.29-1,.41-1.4-2,7.49-8.85,10-17,5.45a29.65,29.65,0,0,1-6.26-4.78l-.07.6"/><path class="cls-27" d="M62.07,65.77c-1.67,7-5.42,12.16-11.83,16.22.81.55,1.62,1.05,2.44,1.51,6.64,3.7,12.59,3.78,16.73.93l1.07-.77c.33-.25.78-.58,1.1-.84l1-.82c.31-.27.73-.63,1-.91l.94-.88c.29-.29.69-.67,1-1l.88-.93.89-1,.81-1c.24-.32.58-.75.82-1.08l.73-1c.23-.34.53-.79.75-1.14L81.07,72c.2-.36.47-.83.67-1.2l.57-1.12c.18-.38.42-.88.59-1.26l.5-1.17c.15-.39.36-.92.5-1.32l.41-1.21c.12-.42.29-1,.41-1.4-2,7.49-8.85,10-17,5.45a28.93,28.93,0,0,1-5.51-4.06c0,.33-.07.78-.12,1.11"/><path class="cls-26" d="M62.87,66.21c-.22,1.62-1.78,10-11.65,16.42.49.31,1,.59,1.46.87,6.64,3.7,12.59,3.78,16.73.93h0c1.41-1,1.44-1,2.17-1.61l1-.82c.31-.27.73-.63,1-.91l.94-.88c.29-.29.69-.67,1-1l.88-.93.89-1,.81-1c.24-.32.58-.75.82-1.08l.73-1c.23-.34.53-.79.75-1.14L81.07,72c.2-.36.47-.83.67-1.2l.57-1.12c.18-.38.42-.88.59-1.26l.5-1.17c.15-.39.36-.92.5-1.32l.41-1.21c.12-.42.29-1,.41-1.4-2,7.49-8.85,10-17,5.45A28.6,28.6,0,0,1,63,65.39c0,.24-.1.57-.13.82"/><path class="cls-25" d="M63.73,67.15A25.55,25.55,0,0,1,52.18,83.21l.5.29c6.64,3.7,12.59,3.78,16.73.93l1.07-.77c.33-.25.78-.58,1.1-.84l1-.82c.31-.27.73-.63,1-.91l.94-.88c.29-.29.69-.67,1-1l.88-.93.89-1,.81-1c.24-.32.58-.75.82-1.08l.73-1c.23-.34.53-.79.75-1.14L81.07,72c.2-.36.47-.83.67-1.2l.57-1.12c.18-.38.42-.88.59-1.26l.5-1.17c.15-.39.36-.92.5-1.32l.41-1.21c.12-.42.29-1,.41-1.4-2,7.49-8.85,10-17,5.45a27.25,27.25,0,0,1-3.81-2.59c0,.31-.1.72-.16,1"/><path class="cls-24" d="M64.74,67.4c-1,4.65-3.75,11.27-11.6,16.35,6.46,3.45,12.22,3.47,16.27.68l1.07-.77c.33-.25.78-.58,1.1-.84l1-.82c.31-.27.73-.63,1-.91l.94-.88c.29-.29.69-.67,1-1l.88-.93.89-1,.81-1c.24-.32.58-.75.82-1.08l.73-1c.23-.34.53-.79.75-1.14L81.07,72c.2-.36.47-.83.67-1.2l.57-1.12c.18-.38.42-.88.59-1.26l.5-1.17c.15-.39.36-.92.5-1.32l.41-1.21c.12-.42.29-1,.41-1.4-2,7.49-8.85,10-17,5.45a26.1,26.1,0,0,1-2.85-1.85c0,.16-.08.37-.11.53"/><path class="cls-23" d="M65.63,68.51A25.71,25.71,0,0,1,54.09,84.23c6.07,3,11.47,2.85,15.32.2l1.07-.77c.33-.25.78-.58,1.1-.84l1-.82c.31-.27.73-.63,1-.91l.94-.88c.29-.29.69-.67,1-1l.88-.93.89-1,.81-1c.24-.32.58-.75.82-1.08l.73-1c.23-.34.53-.79.75-1.14L81.07,72c.2-.36.47-.83.67-1.2l.57-1.12c.18-.38.42-.88.59-1.26l.5-1.17c.15-.39.36-.92.5-1.32l.41-1.21c.12-.42.29-1,.41-1.4-2,7.49-8.85,10-17,5.45-.63-.35-1.25-.73-1.86-1.15-.06.29-.14.66-.21.94"/><path class="cls-22" d="M66.63,69.13A26.21,26.21,0,0,1,55,84.66c5.69,2.52,10.74,2.28,14.39-.23l1.07-.77c.33-.25.78-.58,1.1-.84l1-.82c.31-.27.73-.63,1-.91l.94-.88c.29-.29.69-.67,1-1l.88-.93.89-1,.81-1c.24-.32.58-.75.82-1.08l.73-1c.23-.34.53-.79.75-1.14L81.07,72c.2-.36.47-.83.67-1.2l.57-1.12c.18-.38.42-.88.59-1.26l.5-1.17c.15-.39.36-.92.5-1.32l.41-1.21c.12-.42.29-1,.41-1.4-2,7.49-8.85,10-17,5.45l-.84-.49-.23.9"/><path class="cls-21" d="M67.63,69.7A27,27,0,0,1,55.94,85.05c5.31,2.09,10,1.76,13.47-.62l1.07-.77c.33-.25.78-.58,1.1-.84l1-.82c.31-.27.73-.63,1-.91l.94-.88c.29-.29.69-.67,1-1l.88-.93.89-1,.81-1c.24-.32.58-.75.82-1.08l.73-1c.23-.34.53-.79.75-1.14L81.07,72c.2-.36.47-.83.67-1.2l.57-1.12c.18-.38.42-.88.59-1.26l.5-1.17c.15-.39.36-.92.5-1.32l.41-1.21c.12-.42.29-1,.41-1.4-2,7.44-8.75,10-16.85,5.55-.07.26-.16.61-.24.88"/><path class="cls-20" d="M68.63,70.19a27.63,27.63,0,0,1-11,14.74l-.74.46c4.93,1.71,9.29,1.28,12.54-1l1.07-.77c.33-.25.78-.58,1.1-.84l1-.82c.31-.27.73-.63,1-.91l.94-.88c.29-.29.69-.67,1-1l.88-.93.89-1,.81-1c.24-.32.58-.75.82-1.08l.73-1c.23-.34.53-.79.75-1.14L81.07,72c.2-.36.47-.83.67-1.2l.57-1.12c.18-.38.42-.88.59-1.26l.5-1.17c.15-.39.36-.92.5-1.32l.41-1.21c.12-.42.29-1,.41-1.4-1.93,7.13-8.2,9.75-15.84,6.06-.07.26-.17.61-.25.86"/><path class="cls-19" d="M69.61,70.62A28.31,28.31,0,0,1,58.54,85.23l-.74.46c4.55,1.35,8.57.84,11.61-1.26l1.07-.77c.33-.25.78-.58,1.1-.84l1-.82c.31-.27.73-.63,1-.91l.94-.88c.29-.29.69-.67,1-1l.88-.93.89-1,.81-1c.24-.32.58-.75.82-1.08l.73-1c.23-.34.53-.79.75-1.14L81.07,72c.2-.36.47-.83.67-1.2l.57-1.12c.18-.38.42-.88.59-1.26l.5-1.17c.15-.39.36-.92.5-1.32l.41-1.21c.12-.42.29-1,.41-1.4-1.85,6.82-7.66,9.51-14.85,6.51-.07.25-.17.59-.26.84"/><path class="cls-18" d="M70.6,71a29,29,0,0,1-11.11,14.5l-.75.47c4.16,1,7.84.43,10.67-1.52l1.07-.77c.33-.25.78-.58,1.1-.84l1-.82c.31-.27.73-.63,1-.91l.94-.88c.29-.29.69-.67,1-1l.88-.93.89-1,.81-1c.24-.32.58-.75.82-1.08l.73-1c.23-.34.53-.79.75-1.14L81.07,72c.2-.36.47-.83.67-1.2l.57-1.12c.18-.38.42-.88.59-1.26l.5-1.17c.15-.39.36-.92.5-1.32l.41-1.21c.12-.42.29-1,.41-1.4-1.77,6.5-7.13,9.25-13.86,6.89-.08.25-.18.58-.26.82"/><path class="cls-17" d="M71.58,71.28A29.14,29.14,0,0,1,60.46,85.69l-.75.46a12.58,12.58,0,0,0,9.7-1.72l1.07-.77c.33-.25.78-.58,1.1-.84l1-.82c.31-.27.73-.63,1-.91l.94-.88c.29-.29.69-.67,1-1l.88-.93.89-1,.81-1c.24-.32.58-.75.82-1.08l.73-1c.23-.34.53-.79.75-1.14L81.07,72c.2-.36.47-.83.67-1.2l.57-1.12c.18-.38.42-.88.59-1.26l.5-1.17c.15-.39.36-.92.5-1.32l.41-1.21c.12-.42.29-1,.41-1.4-1.68,6.18-6.61,9-12.88,7.2l-.26.81"/><path class="cls-16" d="M72.59,71.52A30,30,0,0,1,61.45,85.84l-.76.47a12.29,12.29,0,0,0,8.72-1.88l1.07-.77c.33-.25.78-.58,1.1-.84l1-.82c.31-.27.73-.63,1-.91l.94-.88c.29-.29.69-.67,1-1l.88-.93.89-1,.81-1c.24-.32.58-.75.82-1.08l.73-1c.23-.34.53-.79.75-1.14L81.07,72c.2-.36.47-.83.67-1.2l.57-1.12c.18-.38.42-.88.59-1.26l.5-1.17c.15-.39.36-.92.5-1.32l.41-1.21c.12-.42.29-1,.41-1.4-1.59,5.85-6.09,8.66-11.87,7.45l-.26.8"/><path class="cls-15" d="M73.62,71.68A29.85,29.85,0,0,1,62.5,85.93l-.77.48a12,12,0,0,0,7.68-2l1.07-.77c.33-.25.78-.58,1.1-.84l1-.82c.31-.27.73-.63,1-.91l.94-.88c.29-.29.69-.67,1-1l.88-.93.89-1,.81-1c.24-.32.58-.75.82-1.08l.73-1c.23-.34.53-.79.75-1.14L81.07,72c.2-.36.47-.83.67-1.2l.57-1.12c.18-.38.42-.88.59-1.26l.5-1.17c.15-.39.36-.92.5-1.32l.41-1.21c.12-.42.29-1,.41-1.4-1.49,5.5-5.56,8.32-10.86,7.62-.07.24-.16.56-.24.79"/><path class="cls-14" d="M74.68,71.76A30.15,30.15,0,0,1,63.6,86l-.79.48a11.72,11.72,0,0,0,6.6-2l1.07-.77c.33-.25.78-.58,1.1-.84l1-.82c.31-.27.73-.63,1-.91l.94-.88c.29-.29.69-.67,1-1l.88-.93.89-1,.81-1c.24-.32.58-.75.82-1.08l.73-1c.23-.34.53-.79.75-1.14L81.07,72c.2-.36.47-.83.67-1.2l.57-1.12c.18-.38.42-.88.59-1.26l.5-1.17c.15-.39.36-.92.5-1.32l.41-1.21c.12-.42.29-1,.41-1.4-1.39,5.12-5,7.92-9.79,7.72-.07.23-.16.54-.25.77"/><path class="cls-13" d="M75.85,71.74A30.66,30.66,0,0,1,64.76,85.88l-.78.49a11.45,11.45,0,0,0,5.43-1.94l1.07-.77c.33-.25.78-.58,1.1-.84l1-.82c.31-.27.73-.63,1-.91l.94-.88c.29-.29.69-.67,1-1l.88-.93.89-1,.81-1c.24-.32.58-.75.82-1.08l.73-1c.23-.34.53-.79.75-1.14L81.07,72c.2-.36.47-.83.67-1.2l.57-1.12c.18-.38.42-.88.59-1.26l.5-1.17c.15-.39.36-.92.5-1.32l.41-1.21c.12-.42.29-1,.41-1.4-1.28,4.7-4.44,7.44-8.63,7.7-.07.23-.16.54-.24.77"/><path class="cls-12" d="M77.14,71.56a30.41,30.41,0,0,1-11,14.1l-.81.5a11.17,11.17,0,0,0,4.08-1.73l1.07-.77c.33-.25.78-.58,1.1-.84l1-.82c.31-.27.73-.63,1-.91l.94-.88c.29-.29.69-.67,1-1l.88-.93.89-1,.81-1c.24-.32.58-.75.82-1.08l.73-1c.23-.34.53-.79.75-1.14L81.07,72c.2-.36.47-.83.67-1.2l.57-1.12c.18-.38.42-.88.59-1.26l.5-1.17c.15-.39.36-.92.5-1.32l.41-1.21c.12-.42.29-1,.41-1.4-1.14,4.22-3.8,6.85-7.36,7.54-.07.23-.15.53-.22.75"/><path class="cls-11" d="M69.41,84.43h0c1.41-1,1.44-1,2.17-1.61l1-.82c.31-.27.73-.63,1-.91l.94-.88c.29-.29.69-.67,1-1l.88-.93.89-1,.81-1c.24-.32.58-.75.82-1.08l.73-1c.23-.34.53-.79.75-1.14L81.07,72c.2-.36.47-.83.67-1.2l.57-1.12c.18-.38.42-.88.59-1.26l.5-1.17c.15-.39.36-.92.5-1.32l.41-1.21c.12-.42.29-1,.41-1.4-1,3.59-3,6-5.84,7.11-.23.85-2.49,8.44-11.08,14.78L67,85.7a11.17,11.17,0,0,0,2.45-1.27"/><path class="cls-3" d="M29.28,43.89A43.37,43.37,0,0,0,33,60.07l.53-1C38.62,51.66,49.42,49,55.7,56.78,52,50.94,49.63,44.15,49.55,38a59.4,59.4,0,0,0-20.27,5.88"/><path class="cls-3" d="M29.28,43.89a42.92,42.92,0,0,0,3.35,15.35l.57-.89c1-1.22,9.79-11.7,21.14-3.87A36.15,36.15,0,0,1,49.55,38a59.4,59.4,0,0,0-20.27,5.88"/><path class="cls-34" d="M29.28,43.89a42.39,42.39,0,0,0,3,14.51l.6-.83c10.32-11.37,20.77-4.22,20.87-4.15A35.57,35.57,0,0,1,49.55,38a59.4,59.4,0,0,0-20.27,5.88"/><path class="cls-33" d="M29.28,43.89A41.66,41.66,0,0,0,32,57.53l.61-.82c3.43-3.57,10.67-8.87,20.75-4.17A34.89,34.89,0,0,1,49.55,38a59.4,59.4,0,0,0-20.27,5.88"/><path class="cls-32" d="M29.28,43.89a41,41,0,0,0,2.35,12.66l.64-.74c3-2.72,11-8.56,20.69-4.05A34.37,34.37,0,0,1,49.55,38a59.4,59.4,0,0,0-20.27,5.88"/><path class="cls-31" d="M29.28,43.89a40.34,40.34,0,0,0,2,11.68l.68-.66C42.06,47,50.32,49.9,52.61,51a33.93,33.93,0,0,1-3.06-13,59.4,59.4,0,0,0-20.27,5.88"/><path class="cls-30" d="M29.28,43.89A39.58,39.58,0,0,0,31,54.54l.7-.63c6.67-4.95,14-6.26,20.59-3.7A33.5,33.5,0,0,1,49.55,38a59.4,59.4,0,0,0-20.27,5.88"/><path class="cls-29" d="M29.28,43.89a38.58,38.58,0,0,0,1.39,9.52l.71-.56c7-4.63,13.88-5.79,20.58-3.42A33,33,0,0,1,49.55,38a59.4,59.4,0,0,0-20.27,5.88"/><path class="cls-3" d="M41.05,56.47c-4.66,2.78-4.69,6.63-4.71,9.18,0,3.19,4.57,4.84,4.61,4.86,9.42,2.62,14.74-6.87,12.29-11.71-1.76-3.48-7.35-5.22-12.19-2.33"/><path class="cls-28" d="M29.28,43.89a38.07,38.07,0,0,0,1.1,8.4l.74-.49c7.11-4.28,14.6-5.44,20.54-3.18A32.38,32.38,0,0,1,49.55,38a59.4,59.4,0,0,0-20.27,5.88"/><path class="cls-3" d="M41.22,56.85a8.66,8.66,0,0,0-4.29,8.46c.09,1.82,2.19,4.31,4.89,4.91C49.94,72,55.34,63.85,52.88,59c-2.14-4.2-7.86-4.52-11.66-2.18"/><path class="cls-27" d="M29.28,43.89a37.25,37.25,0,0,0,.84,7.24l.74-.47c6.7-3.84,14.35-4.94,20.47-2.95A31.93,31.93,0,0,1,49.55,38a59.4,59.4,0,0,0-20.27,5.88"/><path class="cls-3" d="M41.39,57.23c-5.33,3.38-5.31,10.33,0,12.38C47.74,72.05,55.31,65,52.52,59.26c-1.81-3.7-7-4.65-11.13-2"/><path class="cls-26" d="M29.28,43.89A35.6,35.6,0,0,0,29.89,50l.75-.44c9-4.93,16.66-3.83,20.4-2.73A31.34,31.34,0,0,1,49.55,38a59.4,59.4,0,0,0-20.27,5.88"/><path class="cls-3" d="M41.57,57.61a7.51,7.51,0,0,0-3.64,7.12c.16,2.67,3.49,4.45,4.33,4.6a8.67,8.67,0,0,0,8.29-2.5c.69-.69,3.15-4.17,1.6-7.34-1.93-3.93-7.12-4.14-10.58-1.88"/><path class="cls-25" d="M29.28,43.89a34.91,34.91,0,0,0,.42,4.93l.75-.42c9.76-5.15,18-3.32,20.28-2.64A30.44,30.44,0,0,1,49.55,38a59.4,59.4,0,0,0-20.27,5.88"/><path class="cls-3" d="M41.75,58c-4.42,3-4.75,9.13.8,10.93a8.2,8.2,0,0,0,7.72-2.44c1.22-1.22,2.72-4.13,1.5-6.75-1.54-3.33-6.42-4.17-10-1.74"/><path class="cls-3" d="M41.93,58.36a6.82,6.82,0,0,0-3,5.79,5.32,5.32,0,0,0,4.2,4.4c4.41,1.08,10.33-4.11,8.25-8.57a5.11,5.11,0,0,0-1.71-2,10.91,10.91,0,0,0-3.33-1,7.31,7.31,0,0,0-4.42,1.37"/><path class="cls-24" d="M29.28,43.89a32.62,32.62,0,0,0,.26,3.79l.76-.42a28.31,28.31,0,0,1,20.15-2.58,29.43,29.43,0,0,1-.9-6.67,59.4,59.4,0,0,0-20.27,5.88"/><path class="cls-3" d="M42.11,58.74a7.33,7.33,0,0,0-2.66,5.11,5.7,5.7,0,0,0,1.18,2.77,14.93,14.93,0,0,0,3.13,1.54,7.21,7.21,0,0,0,7.42-4.89,18.7,18.7,0,0,0-.2-3c-1.3-2.95-5.78-3.7-8.87-1.49"/><path class="cls-23" d="M29.28,43.89c0,.88.06,1.76.14,2.66h0a29.15,29.15,0,0,1,20.76-3A29.28,29.28,0,0,1,49.55,38a59.4,59.4,0,0,0-20.27,5.88"/><path class="cls-3" d="M42.33,59.18A7.07,7.07,0,0,0,40,63.54a6.14,6.14,0,0,0,1.13,2.78,11,11,0,0,0,3.33,1.4,6.87,6.87,0,0,0,6.07-3.92,13.29,13.29,0,0,0,0-3.31l-1.8-2s-3.71-1.53-6.44.7"/><path class="cls-3" d="M42.6,59.69a6.39,6.39,0,0,0-2,3.52c.36,1.1,1.08,2.79,1.09,2.79a10,10,0,0,0,3.45,1.18,6.17,6.17,0,0,0,4.08-2.12,3.18,3.18,0,0,0,.87-1.93,4.48,4.48,0,0,0,.06-2.35l-1.84-2a2.49,2.49,0,0,0-1.1-.23,5.56,5.56,0,0,0-4.57,1.15"/><path class="cls-22" d="M29.28,43.89c0,.51,0,1,0,1.54l.76-.41A29.68,29.68,0,0,1,50,42.34,28,28,0,0,1,49.55,38a59.4,59.4,0,0,0-20.27,5.88"/><path class="cls-3" d="M42.87,60.2a5.82,5.82,0,0,0-1.7,2.66,4,4,0,0,0,1,2.81s2.92,1.69,5.32.21,2.12-4.77,2.11-4.8-1.6-2-2.17-2a5.6,5.6,0,0,0-4.59,1.15"/><path class="cls-3" d="M43.15,60.71a5.67,5.67,0,0,0-1.26,1.73,4.06,4.06,0,0,0,.9,2.87c.08.08,2.64,1,4.31,0a4.72,4.72,0,0,0,2-3.87s-2-1.94-2.07-1.94a5,5,0,0,0-3.86,1.22"/><path class="cls-21" d="M29.28,43.89c0,.14,0,.29,0,.43l.76-.41a30.15,30.15,0,0,1,19.73-2.77A27.8,27.8,0,0,1,49.55,38a59.4,59.4,0,0,0-20.27,5.88"/><path class="cls-3" d="M43.43,61.22c-.19.18-.58.4-.57.67a26.8,26.8,0,0,0,.62,3,4.56,4.56,0,0,0,3.15-.26,3.79,3.79,0,0,0,1.8-2.79A3.26,3.26,0,0,0,46.13,60a4.7,4.7,0,0,0-2.7,1.21"/><path class="cls-20" d="M40.73,39.62a31.05,31.05,0,0,1,8.92.33c-.06-.65-.09-1.3-.1-1.94a64.23,64.23,0,0,0-8.82,1.61"/><path class="cls-3" d="M44.32,62.74c-.08.47-.28,1.27.08,1.59s1.31-.1,1.77-.39c1.26-.78,1.4-1.56,1.4-1.57S45.7,61,44.78,61.72a1.92,1.92,0,0,0-.46,1"/><path class="cls-19" d="M46.63,38.41c1.22.09,2,.21,2.94.35,0-.25,0-.5,0-.75-1,.11-1.95.24-2.92.4"/></g></g></g><g class="cls-2"><g class="cls-43"><g class="cls-2"><path class="cls-3" d="M62.71,25.4c-8.9-2.13-17.12-1.24-25.88,2.79-4.75,2.29-7.65,7.76-7.55,15.7A59.4,59.4,0,0,1,49.55,38C49.44,28.36,55,23.42,62.71,25.4"/><path class="cls-3" d="M60,24.82c-1.59-.25-1.69-.26-2.66-.36l-1.24-.1c-.42,0-1-.06-1.41-.07H53.48l-1.38,0-1.26.07-1.37.13-1.25.17-1.35.22-1.25.25-1.33.32-1.24.33-1.31.41-1.22.42c-.39.15-.91.34-1.3.5l-1.2.5c-.38.18-.88.4-1.26.59-4.68,2.25-7.58,7.72-7.48,15.66A59.4,59.4,0,0,1,49.55,38C49.44,28.36,55,23.42,62.71,25.4l-1.22-.29L60,24.82"/><path class="cls-3" d="M60,24.82c-1.59-.25-1.69-.26-2.66-.36l-1.24-.1c-.42,0-1-.06-1.41-.07H53.48l-1.38,0-1.26.07-1.37.13-1.25.17-1.35.22-1.25.25-1.33.32-1.24.33-1.31.41-1.22.42c-.39.15-.91.34-1.3.5l-1.2.5c-.38.18-.88.4-1.26.59-4.68,2.25-7.58,7.72-7.48,15.66A59.4,59.4,0,0,1,49.55,38C49.44,28.36,55,23.42,62.71,25.4l-1.22-.29L60,24.82"/><path class="cls-3" d="M60,24.82c-1.59-.25-1.69-.26-2.66-.36l-1.24-.1c-.42,0-1-.06-1.41-.07H53.48l-1.38,0-1.26.07-1.37.13-1.25.17-1.35.22-1.25.25-1.33.32-1.24.33-1.31.41-1.22.42c-.39.15-.91.34-1.3.5l-1.2.5c-.38.18-.88.4-1.26.59-4.68,2.25-7.58,7.72-7.48,15.66A59.4,59.4,0,0,1,49.55,38C49.44,28.36,55,23.42,62.71,25.4l-1.22-.29L60,24.82"/><path class="cls-3" d="M60,24.82c-1.59-.25-1.69-.26-2.66-.36l-1.24-.1c-.42,0-1-.06-1.41-.07H53.48l-1.38,0-1.26.07-1.37.13-1.25.17-1.35.22-1.25.25-1.33.32-1.24.33-1.31.41-1.22.42c-.39.15-.91.34-1.3.5l-1.2.5c-.38.18-.88.4-1.26.59-4.68,2.25-7.58,7.72-7.48,15.66A59.4,59.4,0,0,1,49.55,38C49.44,28.36,55,23.42,62.71,25.4l-1.22-.29L60,24.82"/><path class="cls-3" d="M60,24.82c-1.59-.25-1.69-.26-2.66-.36l-1.24-.1c-.42,0-1-.06-1.41-.07H53.48l-1.38,0-1.26.07-1.37.13-1.25.17-1.35.22-1.25.25-1.33.32-1.24.33-1.31.41-1.22.42c-.39.15-.91.34-1.3.5l-1.2.5c-.38.18-.88.4-1.26.59-4.68,2.25-7.58,7.72-7.48,15.66A59.4,59.4,0,0,1,49.55,38C49.44,28.36,55,23.42,62.71,25.4l-1.22-.29L60,24.82"/><path class="cls-3" d="M60,24.82c-1.59-.25-1.69-.26-2.66-.36l-1.24-.1c-.42,0-1-.06-1.41-.07H53.48l-1.38,0-1.26.07-1.37.13-1.25.17-1.35.22-1.25.25-1.33.32-1.24.33-1.31.41-1.22.42c-.39.15-.91.34-1.3.5l-1.2.5c-.38.18-.88.4-1.26.59-4.68,2.25-7.58,7.72-7.48,15.66A59.4,59.4,0,0,1,49.55,38C49.44,28.36,55,23.42,62.71,25.4l-1.22-.29L60,24.82"/><path class="cls-3" d="M60,24.82c-1.59-.25-1.69-.26-2.66-.36l-1.24-.1c-.42,0-1-.06-1.41-.07H53.48l-1.38,0-1.26.07-1.37.13-1.25.17-1.35.22-1.25.25-1.33.32-1.24.33-1.31.41-1.22.42c-.39.15-.91.34-1.3.5l-1.2.5c-.38.18-.88.4-1.26.59-4.68,2.25-7.58,7.72-7.48,15.66A59.4,59.4,0,0,1,49.55,38C49.44,28.36,55,23.42,62.71,25.4l-1.22-.29L60,24.82"/><path class="cls-3" d="M60,24.82c-1.59-.25-1.69-.26-2.66-.36l-1.24-.1c-.42,0-1-.06-1.41-.07H53.48l-1.38,0-1.26.07-1.37.13-1.25.17-1.35.22-1.25.25-1.33.32-1.24.33-1.31.41-1.22.42c-.39.15-.91.34-1.3.5l-1.2.5c-.38.18-.88.4-1.26.59-4.68,2.25-7.58,7.72-7.48,15.66A59.4,59.4,0,0,1,49.55,38C49.44,28.36,55,23.42,62.71,25.4l-1.22-.29L60,24.82"/><path class="cls-34" d="M60,24.82c-1.59-.25-1.69-.26-2.66-.36l-1.24-.1c-.42,0-1-.06-1.41-.07H53.48l-1.38,0-1.26.07-1.37.13-1.25.17-1.35.22-1.25.25-1.33.32-1.24.33-1.31.41-1.22.42c-.39.15-.91.34-1.3.5l-1.2.5c-.38.18-.88.4-1.26.59-4.68,2.25-7.58,7.72-7.48,15.66A59.4,59.4,0,0,1,49.55,38C49.44,28.36,55,23.42,62.71,25.4l-1.22-.29L60,24.82"/><path class="cls-33" d="M60,24.82c-1.59-.25-1.69-.26-2.66-.36l-1.24-.1c-.42,0-1-.06-1.41-.07H53.48l-1.38,0-1.26.07-1.37.13-1.25.17-1.35.22-1.25.25-1.33.32-1.24.33-1.31.41-1.22.42c-.39.15-.91.34-1.3.5l-1.2.5c-.38.18-.88.4-1.26.59-4.68,2.25-7.58,7.72-7.48,15.66A59.4,59.4,0,0,1,49.55,38C49.44,28.36,55,23.42,62.71,25.4l-1.22-.29L60,24.82"/><path class="cls-32" d="M60,24.82c-1.59-.25-1.69-.26-2.66-.36l-1.24-.1c-.42,0-1-.06-1.41-.07H53.48l-1.38,0-1.26.07-1.37.13-1.25.17-1.35.22-1.25.25-1.33.32-1.24.33-1.31.41-1.22.42c-.39.15-.91.34-1.3.5l-1.2.5c-.38.18-.88.4-1.26.59-4.68,2.25-7.58,7.72-7.48,15.66A59.4,59.4,0,0,1,49.55,38C49.44,28.36,55,23.42,62.71,25.4l-1.22-.29L60,24.82"/><path class="cls-31" d="M60,24.82c-1.59-.25-1.69-.26-2.66-.36l-1.24-.1c-.42,0-1-.06-1.41-.07H53.48l-1.38,0-1.26.07-1.37.13-1.25.17-1.35.22-1.25.25-1.33.32-1.24.33-1.31.41-1.22.42c-.39.15-.91.34-1.3.5l-1.2.5c-.38.18-.88.4-1.26.59-4.68,2.25-7.58,7.72-7.48,15.66A59.4,59.4,0,0,1,49.55,38C49.44,28.36,55,23.42,62.71,25.4l-1.22-.29L60,24.82"/><path class="cls-30" d="M60,24.82c-1.59-.25-1.69-.26-2.66-.36l-1.24-.1c-.42,0-1-.06-1.41-.07H53.48l-1.38,0-1.26.07-1.37.13-1.25.17-1.35.22-1.25.25-1.33.32-1.24.33-1.31.41-1.22.42c-.39.15-.91.34-1.3.5l-1.2.5c-.38.18-.88.4-1.26.59-4.68,2.25-7.58,7.72-7.48,15.66A59.4,59.4,0,0,1,49.55,38C49.44,28.36,55,23.42,62.71,25.4l-1.22-.29L60,24.82"/><path class="cls-29" d="M60,24.82c-1.59-.25-1.69-.26-2.66-.36l-1.24-.1c-.42,0-1-.06-1.41-.07H53.48l-1.38,0-1.26.07-1.37.13-1.25.17-1.35.22-1.25.25-1.33.32-1.24.33-1.31.41-1.22.42c-.39.15-.91.34-1.3.5l-1.2.5c-.38.18-.88.4-1.26.59-4.68,2.25-7.58,7.72-7.48,15.66A59.4,59.4,0,0,1,49.55,38C49.44,28.36,55,23.42,62.71,25.4l-1.22-.29L60,24.82"/><path class="cls-28" d="M60,24.82c-1.59-.25-1.69-.26-2.66-.36l-1.24-.1c-.42,0-1-.06-1.41-.07H53.48l-1.38,0-1.26.07-1.37.13-1.25.17-1.35.22-1.25.25-1.33.32-1.24.33-1.31.41-1.22.42c-.39.15-.91.34-1.3.5l-1.2.5c-.38.18-.88.4-1.26.59-4.68,2.25-7.58,7.72-7.48,15.66A59.4,59.4,0,0,1,49.55,38C49.44,28.36,55,23.42,62.71,25.4l-1.22-.29L60,24.82"/><path class="cls-27" d="M60,24.82c-1.59-.25-1.69-.26-2.66-.36l-1.24-.1c-.42,0-1-.06-1.41-.07H53.48l-1.38,0-1.26.07-1.37.13-1.25.17-1.35.22-1.25.25-1.33.32-1.24.33-1.31.41-1.22.42c-.39.15-.91.34-1.3.5l-1.2.5c-.38.18-.88.4-1.26.59-4.68,2.25-7.58,7.72-7.48,15.66A59.4,59.4,0,0,1,49.55,38C49.44,28.36,55,23.42,62.71,25.4l-1.22-.29L60,24.82"/><path class="cls-26" d="M60,24.82c-1.59-.25-1.69-.26-2.66-.36l-1.24-.1c-.42,0-1-.06-1.41-.07H53.48l-1.38,0-1.26.07-1.37.13-1.25.17-1.35.22-1.25.25-1.33.32-1.24.33-1.31.41-1.22.42c-.39.15-.91.34-1.3.5l-1.2.5c-.38.18-.88.4-1.26.59-4.68,2.25-7.58,7.72-7.48,15.66A59.4,59.4,0,0,1,49.55,38C49.44,28.36,55,23.42,62.71,25.4l-1.22-.29L60,24.82"/><path class="cls-25" d="M60,24.82c-1.59-.25-1.69-.26-2.66-.36l-1.24-.1c-.42,0-1-.06-1.41-.07H53.48l-1.38,0-1.26.07-1.37.13-1.25.17-1.35.22-1.25.25-1.33.32-1.24.33-1.31.41-1.22.42c-.39.15-.91.34-1.3.5l-1.2.5c-.38.18-.88.4-1.26.59-4.68,2.25-7.58,7.72-7.48,15.66A59.4,59.4,0,0,1,49.55,38C49.44,28.36,55,23.42,62.71,25.4l-1.22-.29L60,24.82"/><path class="cls-24" d="M60,24.82c-1.59-.25-1.69-.26-2.66-.36l-1.24-.1c-.42,0-1-.06-1.41-.07H53.48l-1.38,0-1.26.07-1.37.13-1.25.17-1.35.22-1.25.25-1.33.32-1.24.33-1.31.41-1.22.42c-.39.15-.91.34-1.3.5l-1.2.5c-.38.18-.88.4-1.26.59-4.68,2.25-7.58,7.72-7.48,15.66A59.4,59.4,0,0,1,49.55,38C49.44,28.36,55,23.42,62.71,25.4l-1.22-.29L60,24.82"/><path class="cls-23" d="M60,24.82c-1.59-.25-1.69-.26-2.66-.36l-1.24-.1c-.42,0-1-.06-1.41-.07H53.48l-1.38,0-1.26.07-1.37.13-1.25.17-1.35.22-1.25.25-1.33.32-1.24.33-1.31.41-1.22.42c-.39.15-.91.34-1.3.5l-1.2.5c-.38.18-.88.4-1.26.59-4.68,2.25-7.58,7.72-7.48,15.66A59.4,59.4,0,0,1,49.55,38C49.44,28.36,55,23.42,62.71,25.4l-1.22-.29L60,24.82"/><path class="cls-22" d="M60,24.82c-1.59-.25-1.69-.26-2.66-.36l-1.24-.1c-.42,0-1-.06-1.41-.07H53.48l-1.38,0-1.26.07-1.37.13-1.25.17-1.35.22-1.25.25-1.33.32-1.24.33-1.31.41-1.22.42c-.39.15-.91.34-1.3.5l-1.2.5c-.38.18-.88.4-1.26.59-4.68,2.25-7.58,7.72-7.48,15.66A59.4,59.4,0,0,1,49.55,38C49.44,28.36,55,23.42,62.71,25.4l-1.22-.29L60,24.82"/><path class="cls-21" d="M60,24.82c-1.59-.25-1.69-.26-2.66-.36l-1.24-.1c-.42,0-1-.06-1.41-.07H53.48l-1.38,0-1.26.07-1.37.13-1.25.17-1.35.22-1.25.25-1.33.32-1.24.33-1.31.41-1.22.42c-.39.15-.91.34-1.3.5l-1.2.5c-.38.18-.88.4-1.26.59-4.68,2.25-7.58,7.72-7.48,15.66A59.4,59.4,0,0,1,49.55,38C49.44,28.36,55,23.42,62.71,25.4l-1.22-.29L60,24.82"/><path class="cls-20" d="M60,24.82c-1.59-.25-1.69-.26-2.66-.36l-1.24-.1c-.42,0-1-.06-1.41-.07H53.48l-1.38,0-1.26.07-1.37.13-1.25.17-1.35.22-1.25.25-1.33.32-1.24.33-1.31.41-1.22.42c-.39.15-.91.34-1.3.5l-1.2.5c-.38.18-.88.4-1.26.59-4.54,2.19-7.41,7.41-7.48,15l.76-.42a30.06,30.06,0,0,1,10.69-3.16A64.23,64.23,0,0,1,49.55,38C49.44,28.36,55,23.42,62.71,25.4l-1.22-.29L60,24.82"/><path class="cls-19" d="M60,24.82c-1.59-.25-1.69-.26-2.66-.36l-1.24-.1c-.42,0-1-.06-1.41-.07H53.48l-1.38,0-1.26.07-1.37.13-1.25.17-1.35.22-1.25.25-1.33.32-1.24.33-1.31.41-1.22.42c-.39.15-.91.34-1.3.5l-1.2.5c-.38.18-.88.4-1.26.59-4.32,2.08-7.12,6.9-7.45,13.87l.76-.43a30.69,30.69,0,0,1,16.56-3.26c1-.16,1.95-.29,2.92-.4C49.44,28.36,55,23.42,62.71,25.4l-1.22-.29L60,24.82"/><path class="cls-18" d="M60,24.82c-1.59-.25-1.69-.26-2.66-.36l-1.24-.1c-.42,0-1-.06-1.41-.07H53.48l-1.38,0-1.26.07-1.37.13-1.25.17-1.35.22-1.25.25-1.33.32-1.24.33-1.31.41-1.22.42c-.39.15-.91.34-1.3.5l-1.2.5c-.38.18-.88.4-1.26.59-4.09,2-6.82,6.4-7.38,12.79l.77-.44a32,32,0,0,1,19.4-3c.05-9.37,5.59-14.13,13.16-12.18l-1.22-.29L60,24.82"/><path class="cls-17" d="M60,24.82c-1.59-.25-1.69-.26-2.66-.36l-1.24-.1c-.42,0-1-.06-1.41-.07H53.48l-1.38,0-1.26.07-1.37.13-1.25.17-1.35.22-1.25.25-1.33.32-1.24.33-1.31.41-1.22.42c-.39.15-.91.34-1.3.5l-1.2.5c-.38.18-.88.4-1.26.59-3.85,1.85-6.5,5.89-7.26,11.68l.77-.44a32.28,32.28,0,0,1,19.32-3c.48-8.6,5.87-12.89,13.12-11l-1.22-.29L60,24.82"/><path class="cls-16" d="M60,24.82c-1.59-.25-1.69-.26-2.66-.36l-1.24-.1c-.42,0-1-.06-1.41-.07H53.48l-1.38,0-1.26.07-1.37.13-1.25.17-1.35.22-1.25.25-1.33.32-1.24.33-1.31.41-1.22.42c-.39.15-.91.34-1.3.5l-1.2.5c-.38.18-.88.4-1.26.59C33.15,30,30.6,33.62,29.67,38.84l.77-.46a32.64,32.64,0,0,1,19.25-3.11c.88-7.83,6.1-11.65,13-9.87l-1.22-.29L60,24.82"/><path class="cls-15" d="M60,24.82c-1.59-.25-1.69-.26-2.66-.36l-1.24-.1c-.42,0-1-.06-1.41-.07H53.48l-1.38,0-1.26.07-1.37.13-1.25.17-1.35.22-1.25.25-1.33.32-1.24.33-1.31.41-1.22.42c-.39.15-.91.34-1.3.5l-1.2.5c-.38.18-.88.4-1.26.59-3.34,1.61-5.77,4.85-6.85,9.45l.78-.46a32.42,32.42,0,0,1,19.16-3.08c1.24-7.06,6.28-10.44,12.86-8.74l-1.22-.29L60,24.82"/><path class="cls-14" d="M60,24.82c-1.59-.25-1.69-.26-2.66-.36l-1.24-.1c-.42,0-1-.06-1.41-.07H53.48l-1.38,0-1.26.07-1.37.13-1.25.17-1.35.22-1.25.25-1.33.32-1.24.33-1.31.41-1.22.42c-.39.15-.91.34-1.3.5l-1.2.5c-.38.18-.88.4-1.26.59-3.06,1.47-5.35,4.31-6.55,8.32l.79-.47A32.83,32.83,0,0,1,50.1,33c1.58-6.25,6.41-9.16,12.61-7.56l-1.22-.29L60,24.82"/><path class="cls-13" d="M60,24.82c-1.59-.25-1.69-.26-2.66-.36l-1.24-.1c-.42,0-1-.06-1.41-.07H53.48l-1.38,0-1.26.07-1.37.13-1.25.17-1.35.22-1.25.25-1.33.32-1.24.33-1.31.41-1.22.42c-.39.15-.91.34-1.3.5l-1.2.5c-.38.18-.88.4-1.26.59a12.43,12.43,0,0,0-6.13,7.07l.8-.47a33.05,33.05,0,0,1,19-3.08c1.87-5.41,6.47-7.84,12.25-6.35l-1.22-.29L60,24.82"/><path class="cls-12" d="M60,24.82c-1.59-.25-1.69-.26-2.66-.36l-1.24-.1c-.42,0-1-.06-1.41-.07H53.48l-1.38,0-1.26.07-1.37.13-1.25.17-1.35.22-1.25.25-1.33.32-1.24.33-1.31.41-1.22.42c-.39.15-.91.34-1.3.5l-1.2.5c-.38.18-.88.4-1.26.59A12,12,0,0,0,31.21,34l.83-.5c9.86-4.62,18-3.18,18.94-3C53.1,26,57.41,24,62.71,25.4l-1.22-.29L60,24.82"/><path class="cls-11" d="M60,24.82c-1.59-.25-1.69-.26-2.66-.36l-1.24-.1c-.42,0-1-.06-1.41-.07H53.48l-1.38,0-1.26.07-1.37.13-1.25.17-1.35.22-1.25.25-1.33.32-1.24.33-1.31.41-1.22.42c-.39.15-.91.34-1.3.5l-1.2.5c-.38.18-.88.4-1.26.59A11.48,11.48,0,0,0,32.1,32.4l.87-.53C43.33,27.07,51.73,29,51.82,29c2.31-3.44,6.21-4.8,10.89-3.59l-1.22-.29L60,24.82"/></g></g></g><path class="cls-39" d="M85.25,60.19q0-.46.06-1s0,0,0-.08h0c0-.39,0-.8,0-1.21v-.22h0c0-.18,0-.36,0-.54V57a.37.37,0,0,1,0-.11v-.12a.57.57,0,0,0,0-.13v-.09a.22.22,0,0,0,0-.08v-.19h0v0c0-.06,0-.12,0-.18s0-.13,0-.2v0a.57.57,0,0,0,0-.13v0h0v-.08s0-.05,0-.08,0-.06,0-.09l0-.26a.34.34,0,0,0,0-.1h0V55s0-.08,0-.12v0h0a.43.43,0,0,1,0-.11c0-.05,0-.1,0-.16l0-.12v-.08s0-.07,0-.11l0-.15A.77.77,0,0,0,85,54c0-.09,0-.17,0-.26a.68.68,0,0,1,0-.14l0-.07v-.11h0a.5.5,0,0,0,0-.12s0-.07,0-.1,0-.15,0-.22,0-.24-.07-.36a.52.52,0,0,0,0-.11c0-.06,0-.12,0-.18l0-.15v-.08l0-.13a.29.29,0,0,0,0-.09h0l-.09-.41c0-.07,0-.14,0-.21s0-.17-.07-.26,0-.07,0-.1l0-.1,0-.07,0-.12a.74.74,0,0,0,0-.14l-.06-.25h0a1,1,0,0,1,0-.16c0-.12-.07-.23-.1-.35l-.09-.3v0c0-.07,0-.14-.07-.22a.65.65,0,0,0,0-.13c0-.15-.09-.29-.14-.43l-.06-.19h0c0-.14-.09-.28-.14-.42a1.42,1.42,0,0,0,0-.16l-.09-.23c-.07-.21-.15-.42-.23-.63L83,46.64a1.86,1.86,0,0,1-.1-.25l0-.06h0L82.69,46l-.15-.36c-.1-.24-.2-.48-.31-.72s-.08-.2-.13-.3l-.45-1h0a43.54,43.54,0,0,0-6.11-9.35v0c-.06-.08-.13-.15-.2-.23l-.6-.67L74.43,33l-.61-.63-.24-.24h0L73.46,32l-.33-.32-.44-.42-.13-.12L72.32,31,72,30.71h0l-.26-.22-.17-.15-.09-.07-.17-.15-.2-.16-.32-.26-.11-.08-.07-.06h0l-.08-.07,0,0,0,0-.09-.07L70,29.09,69.87,29l-.12-.08,0,0,0,0-.18-.13-.12-.09h0a.47.47,0,0,0-.09-.06L69,28.38l0,0-.09-.05-.18-.12-.37-.24,0,0-.09-.06-.08-.05h0l0,0,0,0-.11-.06-.75-.44-.27-.15h0l-.09,0c-.31-.17-.63-.34-.95-.49l-.13-.06,0,0h0l-.11-.05-.57-.25-.13-.05-.12-.05-.11-.05L64.55,26h0l-.07,0-.25-.09-.17-.06-.34-.12-.06,0-.13,0-.19-.06h0l-.06,0-.62-.18-.17,0h0l-1.19-.28h0c-.81-.18-1.32-.26-1.4-.27h-.06l-.25-.05h-.08l-.85-.13-1.26-.15c-.41-.05-1-.09-1.38-.11s-.84-.05-1.23-.06H52.72l-.73,0h-.08l-.33,0-.8.06h-.16l-1.41.14-.91.13-.54.08c-.45.07-.82.13-1,.17h-.06l-.25,0-.16,0-.78.16-1.24.3c-.4.09-.93.24-1.32.36s-.92.27-1.31.41h0l-.83.29.06,0-.4.14-1.22.47c-.37.14-.7.28-1.16.49l-.11.05-1.19.55c.24-.12.49-.22.74-.32h0l0,0h0l0,0h.06l.06,0h0l.07,0,.47-.16.06,0,.06,0h0l.11,0h0l0,0,.09,0,.43-.11h0l.09,0,.12,0h.13l.12,0,.44-.07.11,0h.21l.16,0,.44-.05h.29l.21,0h1l.54,0h.16l.29,0,.55.06h.12l.3.05.39.06h.06l.24.05.27.05.35.08.15,0,.24.06.25.07.3.08.2.06.27.08.24.07.25.08.22.08h0l.31.11.24.09.19.07.26.1.38.16.23.1.16.06.24.11c.15.06.3.14.44.21l.3.14.29.14.5.26L52,30c.38.21.75.44,1.13.67l0,0,.1.06,0,0,.1.06.12.08.11.07.06,0,.63.41.17.12.23.15.19.14.1.07.53.38a3.55,3.55,0,0,1,.31.23l.28.21.13.1.44.34.26.21.35.29.5.42.23.19.42.38.55.49.09.08.48.46c.21.19.41.39.6.58l.5.5.59.61.61.66.31.35c.23.25.45.5.67.76l.14.16.14.16c.29.34.57.69.85,1l.16.2.71.91.27.37A56,56,0,0,1,70,49.65c0,.07.07.15.11.23l.48.95.21.43.1.22.32.68c0,.12.11.24.16.37l.18.39c.09.21.19.43.28.65l.06.14.05.13c.07.16.13.32.2.49s.21.51.31.77v0c.08.2.15.4.22.6s.2.52.29.78l.09.26c.12.34.23.69.35,1l0,.1c0,.11.07.22.1.33s.07.22.1.33c.09.29.18.59.26.88,0,.09,0,.18.08.27s.08.32.13.48.15.6.23.9h0l0,.08c0,.18.08.37.13.55l0,.11c.07.29.13.59.19.88s.06.32.1.49l0,.14c0,.21.08.41.11.62l.06.34.06.37,0,.19V65c0,.24.07.47.1.7l0,.24,0,.25s0,.09,0,.13v.28c0,.29,0,.57.07.85v.07s0,.07,0,.11a.38.38,0,0,0,0,.1v.17a.28.28,0,0,0,0,.09v.17h0c0,.48.05,1,.05,1.45,0,.28,0,.55,0,.83s0,.41,0,.62,0,.43,0,.64,0,.4,0,.6l-.06.62c0,.17,0,.34,0,.51s0,.16,0,.25l-.06.41c0,.15,0,.29-.07.43s0,.17,0,.25a.52.52,0,0,0,0,.11c0,.12,0,.23-.07.34s-.05.23-.07.35a10701109968655.35,10701109968655.35,0,0,1-.1.42c0,.1-.05.2-.08.3s-.05.2-.08.3a1.24,1.24,0,0,0,0,.16l-.09.27-.09.3-.09.29,0,.06-.12.33c0,.09-.07.18-.11.28s-.13.33-.2.49l-.06.15c0,.1-.09.2-.14.3l0,.06c-.07.17-.15.33-.23.49l0,0-.15.28-.06.11-.27.47-.15.24-.09.15h0l-.3.44-.13.18-.09.12a.86.86,0,0,0-.07.1c-.1.12-.2.25-.31.37a1.47,1.47,0,0,1-.1.13l-.07.08-.08.09,0,.06h0l-.33.35-.08.08-.05.06-.06,0,0,0-.07.07,0,0-.4.36,0,0,0,0,0,0,0,0,0,0-.06,0,0,0c-.22.17-.44.35-.68.51l.09-.06h0c.38-.27.72-.51,1-.73l0,0,0,0c.67-.49,1.07-.83,1.08-.83l0,0,1-.79,1-.86c.31-.27.71-.65,1-.94s.57-.57.84-.84l.06-.07.2-.2.56-.61.18-.19.14-.17.37-.41.22-.26.1-.12.26-.31.28-.35c.21-.25.41-.5.6-.76l.29-.38c.55-.74,1.07-1.49,1.56-2.27l.12-.18.27-.45c.09-.13.17-.27.25-.4v0c.06-.11.13-.22.19-.31l.32-.59.26-.45,0-.06v0h0c.19-.37.44-.86.62-1.23s.44-.89.6-1.29l0-.09c.15-.35.31-.75.45-1.07l.44-1.17c.15-.41.28-.78.43-1.27l0-.13v0l0-.05,0,0c.11-.35.24-.8.34-1.15l.15-.61v0a1.29,1.29,0,0,1,0-.19v0c0-.06,0-.13,0-.19s0-.14,0-.21v0h0c0-.08,0-.16,0-.25s0-.26.07-.39v-.06c0-.08,0-.16,0-.24s0-.26,0-.39,0-.07,0-.1h0a1.23,1.23,0,0,0,0-.2A1.1,1.1,0,0,0,85.25,60.19Z"/><path class="cls-44" d="M41,26.48h0l-.14.05.43-.15Z"/><ellipse class="cls-45" cx="52.36" cy="56.75" rx="18.84" ry="32.53" transform="translate(-21.43 33.99) rotate(-30.16)"/></g><g class="cls-2"><path class="cls-7" d="M75.77,69.21V69c0-.14,0-.28,0-.42l0-.51,0-.38c0-.15,0-.3,0-.46s0-.19,0-.29,0-.43-.07-.65,0-.25,0-.37,0-.09,0-.13c0-.39-.1-.78-.16-1.17v0l0-.17c0-.33-.11-.65-.17-1l0-.18c0-.16-.07-.31-.1-.47s-.07-.38-.12-.57,0-.22-.07-.32l-.12-.52L74.6,61l-.12-.47c0-.17-.09-.34-.14-.52s0-.16-.07-.25l-.19-.67c0-.15-.09-.29-.13-.44a.56.56,0,0,0,0-.12c-.12-.41-.25-.81-.38-1.21v0s0-.07,0-.11c-.12-.35-.24-.71-.37-1.06L73.05,56l-.15-.4c-.08-.2-.15-.39-.22-.58l-.15-.36-.18-.45a3.05,3.05,0,0,0-.13-.32L72,53.19l-.15-.35a.61.61,0,0,1,0-.12c-.17-.38-.34-.75-.52-1.13l0,0-.16-.33c-.14-.29-.27-.57-.42-.86a.91.91,0,0,0-.07-.14c-.11-.23-.24-.47-.36-.7s-.19-.38-.29-.56l-.09-.16-.18-.34-.53-.94-.21-.37-.14-.25-.28-.45c-.14-.24-.29-.48-.44-.72s-.27-.43-.4-.64l-.47-.72L67,44.14c-.12-.19-.25-.37-.37-.55l-.26-.38c-.28-.4-.56-.79-.85-1.18h0v0c-.32-.44-.65-.86-1-1.29l0,0c-.24-.32-.49-.62-.75-.93l-.14-.18h0l-.9-1.06-.05-.05c-.09-.1-.19-.2-.28-.31l-.58-.64-.11-.12-.4-.42-.45-.47-.17-.16-.43-.44-.38-.37-.22-.2-.48-.45-.33-.31-.27-.23-.48-.42-.29-.25-.32-.27L57,33l-.24-.2-.41-.31c-.14-.12-.29-.23-.44-.34L55.71,32l-.55-.39-.37-.26-.09-.07-1-.66h0l-.06,0L52.71,30l-.23-.14-.74-.41-.28-.15-.38-.19-.3-.16-.47-.22L50,28.6l-.14-.06c-.31-.14-.62-.28-.93-.4L48,27.78l-.13,0-.33-.11L47,27.48l-.24-.07-.41-.11-.32-.09-.33-.07-.41-.09L45.1,27c-.13,0-.26,0-.39-.06l-.47-.08-.17,0-.39,0-.5-.05-.15,0h-.34l-.59,0h-.17l-.64,0h-.08l-.49,0c-.1,0-.2,0-.3,0l-.23,0c-.27,0-.55.08-.82.13h0l-.22.05-.66.16-.31.1-.42.13-.16.06-.14.05-.74.32-.1.05a6.72,6.72,0,0,0-.75.4l-2.67,1.54q.38-.21.75-.39l.11-.05c.24-.12.49-.22.74-.32l.14-.05.57-.19.32-.1.66-.16.22-.06c.27,0,.55-.1.84-.13l.23,0c.26,0,.52-.06.78-.07h.9l.59,0,.49,0,.5.05.56.07.47.07c.2,0,.4.07.6.12a3,3,0,0,1,.41.09l.65.16.41.11.71.22.34.11c.7.25,1.42.53,2.14.86l.34.16.76.37.38.2c.34.18.69.36,1,.56s.76.46,1.14.7l.07,0c.37.23.74.48,1.1.73l.37.26.73.53.44.34c.22.16.44.33.65.51l.47.38c.21.17.42.34.62.52l.48.42.6.54.47.44c.21.19.4.39.6.58l.44.44c.21.2.41.41.61.63s.27.27.4.42.47.5.7.76L60,40l1,1.12.14.18.79,1c.34.42.66.85,1,1.29l0,0h0c.29.39.57.78.84,1.18l.26.37.53.79.46.71.41.64.44.73.42.7.21.37c.18.31.35.62.52.94a3.72,3.72,0,0,1,.19.34l.38.72.36.7c.17.33.33.67.49,1,0,.11.1.21.16.32.2.43.39.87.58,1.3l.15.35c.14.32.28.64.41,1l.18.44.36.94.15.41c.15.41.3.82.44,1.23a.36.36,0,0,0,0,.11c.15.45.29.9.43,1.35l.12.43.27.93c0,.17.09.35.13.52s.15.57.22.86l.12.52c.06.29.13.59.19.89l.09.47c.08.39.15.77.21,1.16l0,.17q.1.66.18,1.32c0,.13,0,.25.05.38l.09.94c0,.15,0,.3,0,.46s0,.59,0,.88,0,.29,0,.43q0,.63,0,1.26c0,.43,0,.86,0,1.28,0,.12,0,.24,0,.36,0,.29,0,.57-.06.85s0,.33-.05.49,0,.47-.08.7,0,.34-.08.51-.07.43-.11.64-.07.37-.11.56-.09.37-.13.56-.11.43-.17.64-.09.33-.14.49-.16.5-.25.74-.1.31-.16.45l-.09.23c-.1.25-.2.5-.31.74a.61.61,0,0,1-.07.14c-.14.3-.28.59-.44.87v0c-.15.28-.32.55-.49.82l-.1.15c-.13.2-.27.39-.4.58a1.84,1.84,0,0,0-.17.22c-.13.17-.27.33-.41.49l-.15.18c-.19.21-.38.42-.58.61l-.09.08q-.27.26-.54.48l-.2.17-.48.36-.2.14q-.34.24-.69.45L69,85.26c.24-.14.47-.29.69-.44l.2-.15.48-.36.2-.17a6.17,6.17,0,0,0,.54-.48l.09-.07c.2-.2.39-.4.58-.62l.16-.18c.14-.16.27-.32.4-.49l.17-.22c.14-.19.27-.38.4-.58l.11-.15,0,0c.16-.25.31-.51.46-.77h0c.15-.26.29-.54.42-.82l0-.06L74,79.5c.11-.24.22-.49.32-.74l.09-.22.06-.17c0-.09.06-.19.1-.29s.17-.49.24-.74c0-.07,0-.13.07-.2s0-.19.08-.29.11-.42.16-.64,0-.17.07-.26l.06-.3c0-.18.08-.37.11-.56l.06-.29c0-.11,0-.23,0-.34s.06-.34.08-.51,0-.18,0-.26,0-.3,0-.45,0-.32,0-.49a1.11,1.11,0,0,0,0-.19c0-.22,0-.44,0-.66l0-.36v-.08c0-.37,0-.75,0-1.13v-.07C75.79,69.91,75.78,69.56,75.77,69.21Z"/><path class="cls-46" d="M49.82,31.44C62.73,38.9,73.17,57,73.13,71.81S62.58,92.63,49.67,85.18,26.32,59.65,26.36,44.81,36.91,24,49.82,31.44Z"/><path class="cls-6" d="M60.16,84.6a17.74,17.74,0,0,1-8.6-2.7c-5.68-3.28-11.05-9-15.13-16s-6.31-14.53-6.29-21.05c0-8,3.46-12.81,9.19-12.81a17.84,17.84,0,0,1,8.6,2.7c5.68,3.28,11,9,15.13,16s6.31,14.53,6.29,21C69.32,79.82,65.89,84.6,60.16,84.6Z"/></g><g class="cls-2"><polygon class="cls-39" points="67.36 15.57 84.9 25.76 109.58 11.51 92.03 1.32 67.36 15.57"/><polygon class="cls-7" points="67.36 15.57 67.37 22.77 84.91 32.96 84.9 25.76 67.36 15.57"/><polygon class="cls-47" points="84.9 25.76 84.91 32.96 109.59 18.71 109.58 11.51 84.9 25.76"/></g><g class="cls-2"><polygon class="cls-39" points="87.38 20.55 85.95 21.38 83.3 19.85 84.72 19.02 87.38 20.55"/><polygon class="cls-47" points="87.38 20.55 87.37 21.62 85.94 22.45 85.95 21.38 87.38 20.55"/><polygon class="cls-7" points="85.95 21.38 85.94 22.45 83.29 20.92 83.3 19.85 85.95 21.38"/></g><g class="cls-2"><polygon class="cls-39" points="104.7 10.41 103.27 11.24 100.62 9.71 102.05 8.88 104.7 10.41"/><polygon class="cls-47" points="104.7 10.41 104.69 11.48 103.27 12.31 103.27 11.24 104.7 10.41"/><polygon class="cls-7" points="103.27 11.24 103.27 12.31 100.62 10.78 100.62 9.71 103.27 11.24"/></g><path class="cls-46" d="M105.71,7.37h0a2.45,2.45,0,0,0-.09-.63s0-.1,0-.16a2.66,2.66,0,0,0-.23-.54l0-.07a2.77,2.77,0,0,0-.38-.48s0,0,0,0a3.23,3.23,0,0,0-.55-.41l-.23-.11-.07,0-.21-.08-.07,0-.24,0-.08,0-.24,0h-.33l-.23,0-.12,0a3.06,3.06,0,0,0-.38.1h0a2.67,2.67,0,0,0-.46.2h0L82,16.45l-.12.09-.07,0-.17.13a2.71,2.71,0,0,0-.38.38v0l-.05.07a2.81,2.81,0,0,0-.42.78,4.15,4.15,0,0,0-.11.48.41.41,0,0,1,0,.11c0,.1,0,.2,0,.3s0,.14,0,.21,0,.09,0,.14a1.55,1.55,0,0,0,0,.29s0,0,0,0a2.89,2.89,0,0,0,.26.63s0,0,0,0a2.73,2.73,0,0,0,.35.47l0,0,.21.2.07.05.24.17.07.05,0,0,.25.12.15.06.23.07.11,0a2.28,2.28,0,0,0,.39.06h.45l.18,0,.24-.06.18-.05.18-.07.33-.15,2.79-1.63,8.37-4.86,3-1.71,5.51-3.2a3.11,3.11,0,0,0,.54-.43l0,0a2.44,2.44,0,0,0,.38-.5l0-.07a2.65,2.65,0,0,0,.22-.54l0-.17a3.46,3.46,0,0,0,.06-.49s0,0,0,0V7.37Z"/><g class="cls-2"><polygon class="cls-39" points="78.42 15.86 76.99 16.69 74.34 15.16 75.77 14.33 78.42 15.86"/><polygon class="cls-47" points="78.42 15.86 78.42 16.93 76.99 17.76 76.99 16.69 78.42 15.86"/><polygon class="cls-7" points="76.99 16.69 76.99 17.76 74.34 16.23 74.34 15.16 76.99 16.69"/></g><g class="cls-2"><polygon class="cls-39" points="95.74 5.72 94.31 6.55 91.66 5.02 93.09 4.19 95.74 5.72"/><polygon class="cls-47" points="95.74 5.72 95.74 6.79 94.31 7.62 94.31 6.55 95.74 5.72"/><polygon class="cls-7" points="94.31 6.55 94.31 7.62 91.66 6.09 91.66 5.02 94.31 6.55"/></g><path class="cls-46" d="M96.76,2.68h0a3,3,0,0,0-.1-.63.94.94,0,0,0,0-.16,2.66,2.66,0,0,0-.23-.54l0-.07A2.06,2.06,0,0,0,96,.8s0,0,0-.05a2.88,2.88,0,0,0-.55-.41,1.67,1.67,0,0,0-.23-.11l-.07,0L94.85.12l-.07,0L94.54,0h-.07l-.25,0H93.9l-.23,0-.13,0a2.54,2.54,0,0,0-.37.1h0a2.22,2.22,0,0,0-.45.2h0L73.08,11.76l-.12.08-.06,0-.18.13a3.38,3.38,0,0,0-.38.38h0a.56.56,0,0,1,0,.08l-.2.29a4.31,4.31,0,0,0-.22.49,2.73,2.73,0,0,0-.1.48.41.41,0,0,0,0,.11c0,.1,0,.2,0,.3a1.36,1.36,0,0,0,0,.21.71.71,0,0,0,0,.14c0,.12,0,.22,0,.29v0a2.89,2.89,0,0,0,.26.63l0,0a2.25,2.25,0,0,0,.34.47l0,0a2,2,0,0,0,.21.2l.07.05a1.54,1.54,0,0,0,.24.17l.07.05,0,0,.25.12.15.06.22.07.11,0,.39.06h.45l.18,0,.24-.05.18,0,.18-.07.33-.15,2.79-1.63L87,10l2.94-1.71,5.51-3.2A3.67,3.67,0,0,0,96,4.62l0,0a3.07,3.07,0,0,0,.38-.51l0-.06a2.65,2.65,0,0,0,.22-.54c0-.06,0-.11,0-.17a2.53,2.53,0,0,0,.06-.49.09.09,0,0,0,0,0,.31.31,0,0,0,0-.09Z"/><g class="cls-48"><polyline class="cls-49" points="84.11 33.58 89.61 31.43 110.32 19.25 110.76 18.04"/><polyline class="cls-49" points="84.9 34.75 90.67 32.49 111.25 20.38 111.64 19.33"/><polyline class="cls-49" points="85.78 36.04 91.59 33.76 112.18 21.64 112.54 20.66"/><polyline class="cls-49" points="86.58 37.48 92.28 35.24 112.87 23.13 113.25 22.08"/><polyline class="cls-49" points="87.48 38.8 93.07 36.6 113.66 24.49 113.99 23.58"/><polyline class="cls-49" points="88.07 40.25 93.72 38.03 114.31 25.92 114.66 24.97"/><polyline class="cls-49" points="88.67 41.92 94.31 39.71 114.9 27.6 115.47 26.75"/><polyline class="cls-49" points="89.33 43.55 95.08 41.29 115.67 29.18 116.19 28.45"/><polyline class="cls-49" points="89.86 45 95.62 42.74 116.21 30.63 116.65 30.06"/><polyline class="cls-49" points="90.18 46.43 96.2 44.07 116.79 31.96 117.07 31.61"/><polyline class="cls-49" points="90.47 47.79 96.8 45.4 117.01 33.53 117.29 33.24"/><polyline class="cls-49" points="90.83 49.35 96.67 47.22 117.38 35.03 117.6 34.61"/><polyline class="cls-49" points="91.14 51.05 96.76 49 117.65 36.71 117.94 36.22"/><polyline class="cls-49" points="91.17 52.69 97.2 50.75 117.7 38.69"/><polyline class="cls-49" points="91.14 54.8 97.32 52.79 117.6 40.87"/><polyline class="cls-49" points="90.83 56.96 97.26 54.99 117.6 43.02"/><polyline class="cls-49" points="90.17 59.23 97.04 57.35 117.21 45.49"/><polyline class="cls-49" points="88.78 61.76 96.19 59.83 116.79 47.71"/><polyline class="cls-49" points="84.64 65.38 95.03 62.41 116.48 49.64"/></g><path class="cls-50" d="M69,67,52.94,59.43l10.58-2.51c1-3.61-2.14-6.91-2.14-6.91L51.19,56.67,52.58,43.9c-2.26-4.95-5.53-5.7-5.53-5.7l1.67,17L40.1,39.69c-4.17-3.39-5.68-1.14-5.68-1.14L47,56,33.4,46.76c-3.65.15-2.5,4.09-2.5,4.09L47,58.46,36.39,61c-1,3.61,2.14,6.91,2.14,6.91l10.19-6.67L47.34,74c2.25,5,5.52,5.69,5.52,5.69l-1.67-17L59.81,78.2c4.18,3.39,5.68,1.14,5.68,1.14L52.94,61.9l13.58,9.23C70.16,71,69,67,69,67Z"/><g class="cls-2"><path class="cls-7" d="M61.26,64.61v-.08a1.28,1.28,0,0,1,0-.19,1.62,1.62,0,0,1,0-.22c0-.06,0-.12,0-.17s0-.13,0-.2a.57.57,0,0,1,0-.13,2.7,2.7,0,0,0,0-.28c0-.06,0-.11,0-.17v-.05c0-.17,0-.35-.07-.52h0a.15.15,0,0,0,0-.07c0-.15,0-.29-.07-.44s0,0,0-.08,0-.13,0-.2,0-.17-.05-.25l0-.14-.06-.23a1,1,0,0,0,0-.17,1.6,1.6,0,0,0-.05-.21l-.06-.22,0-.12-.09-.29c0-.07,0-.13,0-.19l0-.06c0-.18-.11-.35-.17-.53h0l0,0c0-.16-.1-.31-.16-.47l0-.08a1.22,1.22,0,0,0-.07-.17l-.09-.25-.06-.16-.08-.2-.06-.14-.12-.29a1,1,0,0,0-.07-.15l0,0c-.07-.17-.15-.33-.23-.5v0a.61.61,0,0,0-.07-.14L59,56.34l0-.06c0-.1-.1-.21-.16-.31l-.13-.25,0,0c-.14-.27-.29-.53-.44-.79a.25.25,0,0,1,0-.07l0-.07c-.22-.37-.44-.73-.68-1.08l0-.06a.86.86,0,0,1-.07-.1c-.19-.28-.38-.56-.58-.83h0l-.43-.57,0,0L56,51.67l-.06-.07h0l-.39-.47,0,0L55.38,51l-.26-.28s0,0,0,0l-.18-.19-.19-.2-.07-.07-.2-.2-.16-.16-.1-.09L54,49.54l-.14-.14-.12-.1-.21-.19a.69.69,0,0,1-.13-.11l-.14-.11L53,48.72l-.11-.09-.18-.14a1.33,1.33,0,0,0-.19-.14l-.08-.06-.24-.17L52.05,48l0,0-.44-.29h0l0,0-.4-.25-.1,0-.32-.19-.13-.06L50.42,47,50.29,47l-.21-.1-.15-.07-.06,0-.41-.17-.41-.16-.06,0-.14,0-.22-.07-.1,0-.18-.05-.14,0-.14,0-.18,0-.1,0-.17,0-.21,0h-.07l-.17,0L47,46h-.66L46,46H45.8l-.48.07h0l-.1,0-.29.08-.14,0a1.27,1.27,0,0,0-.18.06h0l-.28.11-.13.06-.38.2L41.6,47.88l.38-.2.13-.06.28-.11.22-.07.14,0,.29-.07.1,0h0l.48-.07h.17l.32,0h.66l.22,0,.24,0,.21,0,.26.05.19,0,.28.07.18,0,.31.1.15,0c.31.11.62.23.94.38l.15.07.34.16.16.09.45.24c.17.1.34.2.5.31l0,0c.17.1.33.21.49.32l.16.11.32.23.19.15.29.23.21.17.27.22.21.19.26.23L52,51l.26.25.19.19.27.28.18.18c.1.12.2.23.31.34l.12.14.42.49.06.07.35.44.43.57h0c.2.27.39.55.58.83,0,0,.07.1.1.16.24.35.46.71.68,1.08l.09.14c.15.26.3.52.44.79l.15.29.16.31.21.43a1,1,0,0,1,.07.15c.09.19.18.38.26.57l.07.15.18.43a1.54,1.54,0,0,0,.08.19l.15.42a.87.87,0,0,1,.07.17c.07.18.13.37.19.55l0,0c.06.2.13.4.19.6s0,.12.05.18l.12.41.06.23.09.38.06.22c0,.14,0,.27.08.4s0,.13,0,.2l.09.51a.22.22,0,0,1,0,.08c0,.19.06.39.09.58s0,.11,0,.16,0,.28,0,.42,0,.13,0,.2l0,.39v.18a5.23,5.23,0,0,1,0,.56c0,.19,0,.38,0,.56s0,.1,0,.16,0,.25,0,.37a1.49,1.49,0,0,1,0,.21l0,.31a1.85,1.85,0,0,0,0,.23,2.74,2.74,0,0,1-.05.28,2,2,0,0,1,0,.24,1.84,1.84,0,0,1,0,.25c0,.09-.05.19-.08.28l-.06.21c0,.11-.07.22-.11.33l-.06.17a4.06,4.06,0,0,1-.22.52s0,0,0,.06c-.11.22-.23.43-.35.63l0,.05-.33.46-.09.11-.35.39,0,0a4.59,4.59,0,0,1-.41.36l-.11.08a3.52,3.52,0,0,1-.45.3l2.13-1.24a3.52,3.52,0,0,0,.45-.3l.11-.08.41-.35,0,0c.12-.12.24-.26.35-.39l.09-.11c.11-.14.22-.3.33-.46h0l0,0c.12-.2.24-.41.35-.63,0,0,0,0,0,0h0a4.93,4.93,0,0,0,.22-.53.05.05,0,0,0,0,0,.65.65,0,0,0,0-.13,3,3,0,0,0,.11-.32l0-.09a.65.65,0,0,1,0-.13c0-.09.05-.19.07-.28l0-.11a.69.69,0,0,0,0-.13c0-.09,0-.17,0-.25l0-.13s0-.1,0-.15,0-.15,0-.22,0-.08,0-.12a1.23,1.23,0,0,0,0-.19l0-.22v-.08a2.83,2.83,0,0,0,0-.29s0-.11,0-.16v0c0-.16,0-.32,0-.49v0C61.27,64.92,61.26,64.77,61.26,64.61Z"/><ellipse class="cls-46" cx="48.87" cy="60.39" rx="8.38" ry="14.47" transform="translate(-23.73 32.73) rotate(-30.16)"/></g><g class="cls-2"><path class="cls-7" d="M53.87,62.55v0a.28.28,0,0,1,0-.09v-.1a.25.25,0,0,1,0-.08s0-.07,0-.1v-.06s0-.09,0-.13a.19.19,0,0,0,0-.08v0l0-.24h0v0a1.55,1.55,0,0,0,0-.21v0a.29.29,0,0,1,0-.09l0-.12s0-.05,0-.07l0-.11s0-.05,0-.08a.3.3,0,0,1,0-.1l0-.1,0-.06a1,1,0,0,0,0-.14s0-.06,0-.09v0l-.08-.26h0v0l-.08-.23v0l0-.08-.05-.12,0-.08,0-.09a.14.14,0,0,0,0-.07l-.06-.14,0-.07v0l-.11-.24h0a.16.16,0,0,1,0-.07c0-.06-.05-.12-.08-.17l0,0-.07-.15-.06-.12,0,0a3.47,3.47,0,0,0-.21-.37l0,0,0,0c-.1-.17-.21-.35-.32-.51l0,0,0,0-.27-.39h0l-.2-.27h0l-.16-.2,0,0h0l-.19-.22h0l-.06-.06L51,55.94l0,0-.08-.09a.94.94,0,0,1-.1-.1l0,0-.09-.09-.08-.08,0,0-.1-.09a.23.23,0,0,0-.07-.07l0,0-.1-.08-.06-.06-.07,0A.39.39,0,0,0,50,55l-.05,0-.08-.07-.1-.07,0,0-.12-.08-.07,0,0,0-.21-.13h0l-.19-.12-.05,0-.15-.09-.06,0-.08,0-.06,0-.1,0-.07,0h0L48.27,54l-.2-.08h0l-.07,0-.1,0-.05,0-.09,0-.07,0h-.06l-.09,0h-.05l-.08,0h-.86l-.23,0h-.07l-.14,0-.06,0-.09,0h0l-.13,0-.06,0-.18.09-1,.59.18-.1.06,0,.13-.05.11,0,.06,0,.14,0,.05,0h0l.23,0h.65l.12,0h.09l.13,0h.08l.14,0,.09,0,.14,0,.07,0a4.22,4.22,0,0,1,.45.18l.07,0,.16.08.08,0L48,55l.24.14h0l.22.15.08.06.15.11.1.07.13.11.1.08.13.1.1.09.12.11.1.1.13.12.09.09.12.13.09.09a1.07,1.07,0,0,1,.14.16l.06.06c.07.08.14.15.2.23l0,0c.06.07.11.14.17.2a2.83,2.83,0,0,1,.2.28h0l.28.39,0,.07c.11.17.22.34.32.52l0,.06.21.38a.91.91,0,0,1,.07.14l.08.14.1.21,0,.07c.05.09.09.18.13.27l0,.07.08.2,0,.1c0,.06,0,.13.08.19l0,.09.09.26v0l.09.28a.29.29,0,0,0,0,.09l.06.19,0,.11c0,.06,0,.12,0,.18l0,.11,0,.18a.44.44,0,0,1,0,.1c0,.08,0,.16,0,.24v0a2.51,2.51,0,0,1,0,.27.25.25,0,0,1,0,.08,1.36,1.36,0,0,1,0,.2s0,.06,0,.09,0,.13,0,.19v.09a2.26,2.26,0,0,1,0,.26,2.44,2.44,0,0,1,0,.27v.07a1.09,1.09,0,0,0,0,.18s0,.07,0,.1,0,.1,0,.15,0,.07,0,.1,0,.09,0,.14l0,.11a.5.5,0,0,1,0,.12.65.65,0,0,1,0,.13l0,.1a.75.75,0,0,1,0,.16l0,.08a1.86,1.86,0,0,1-.1.25v0a2.14,2.14,0,0,1-.17.3v0l-.16.22,0,0-.17.18h0a1.06,1.06,0,0,1-.2.17l-.05,0-.21.14,1-.58c.07-.05.14-.09.21-.15l.05,0,.2-.17v0a1.45,1.45,0,0,0,.17-.18l0,0a1.77,1.77,0,0,0,.16-.22h0c.06-.1.12-.2.17-.3v0h0a1.86,1.86,0,0,0,.1-.25v0a.14.14,0,0,0,0-.06l.06-.15s0,0,0,0,0,0,0-.06a.74.74,0,0,0,0-.14s0,0,0-.05l0-.06a.5.5,0,0,1,0-.12s0,0,0-.06a.17.17,0,0,0,0-.07s0-.07,0-.11a.07.07,0,0,1,0,0,.34.34,0,0,1,0-.1.38.38,0,0,1,0-.1v0s0-.09,0-.14V63a1.77,1.77,0,0,0,0-.23v-.24Z"/><ellipse class="cls-46" cx="47.99" cy="60.55" rx="3.98" ry="6.87" transform="translate(-23.92 32.31) rotate(-30.16)"/></g></g></g></g></svg>