<svg xmlns="http://www.w3.org/2000/svg" xmlns:xlink="http://www.w3.org/1999/xlink" viewBox="0 0 150 55.92"><defs><style>.cls-1,.cls-2,.cls-4{fill:none;}.cls-14,.cls-2{stroke:#000;}.cls-2{stroke-linecap:round;stroke-width:0.1px;}.cls-14,.cls-2,.cls-4{stroke-miterlimit:10;}.cls-3{fill:url(#未命名的渐变_5);}.cls-4{stroke:#5b5f66;stroke-width:0.25px;}.cls-5{fill:#ced3d7;}.cls-6{fill:#777b7f;}.cls-7{fill:#eaeff5;}.cls-8{fill:url(#未命名的渐变_58);}.cls-9{fill:#45484d;}.cls-10{fill:#959ba4;}.cls-11{fill:url(#未命名的渐变_32);}.cls-12{fill:#5c6066;}.cls-13{fill:#2e3033;}.cls-14{stroke-width:0.25px;opacity:0.6;fill:url(#新建图案色板_1);}.cls-15{opacity:0.2;}</style><linearGradient id="未命名的渐变_5" x1="-1483.83" y1="-19.76" x2="-1579.28" y2="75.69" gradientTransform="translate(1614.07)" gradientUnits="userSpaceOnUse"><stop offset="0" stop-color="#d7dce0"/><stop offset="1" stop-color="#8a9099"/></linearGradient><linearGradient id="未命名的渐变_58" x1="-1606.18" y1="-0.26" x2="-1593.39" y2="12.53" gradientTransform="matrix(1, 0, 0, -1, 1614.07, 22.19)" gradientUnits="userSpaceOnUse"><stop offset="0" stop-color="#45484d"/><stop offset="1" stop-color="#abafb3"/></linearGradient><linearGradient id="未命名的渐变_32" x1="17.54" y1="33" x2="4.49" y2="46.05" gradientUnits="userSpaceOnUse"><stop offset="0" stop-color="#abafb3"/><stop offset="1" stop-color="#45484d"/></linearGradient><pattern id="新建图案色板_1" data-name="新建图案色板 1" width="2" height="2" patternUnits="userSpaceOnUse" viewBox="0 0 2 2"><rect class="cls-1" width="2" height="2"/><line class="cls-2" x1="0.42" y1="0.42" x2="9.58" y2="9.58"/><line class="cls-2" x1="0.42" y1="9.58" x2="9.58" y2="0.42"/><line class="cls-2" x1="-1.58" y1="0.42" x2="7.58" y2="9.58"/><line class="cls-2" x1="-1.58" y1="9.58" x2="7.58" y2="0.42"/><line class="cls-2" x1="-3.58" y1="0.42" x2="5.58" y2="9.58"/><line class="cls-2" x1="-3.58" y1="9.58" x2="5.58" y2="0.42"/><line class="cls-2" x1="-5.58" y1="0.42" x2="3.58" y2="9.58"/><line class="cls-2" x1="-5.58" y1="9.58" x2="3.58" y2="0.42"/><line class="cls-2" x1="-7.58" y1="0.42" x2="1.58" y2="9.58"/><line class="cls-2" x1="-7.58" y1="9.58" x2="1.58" y2="0.42"/><line class="cls-2" x1="0.42" y1="-1.58" x2="9.58" y2="7.58"/><line class="cls-2" x1="0.42" y1="7.58" x2="9.58" y2="-1.58"/><line class="cls-2" x1="-1.58" y1="-1.58" x2="7.58" y2="7.58"/><line class="cls-2" x1="-1.58" y1="7.58" x2="7.58" y2="-1.58"/><line class="cls-2" x1="-3.58" y1="-1.58" x2="5.58" y2="7.58"/><line class="cls-2" x1="-3.58" y1="7.58" x2="5.58" y2="-1.58"/><line class="cls-2" x1="-5.58" y1="-1.58" x2="3.58" y2="7.58"/><line class="cls-2" x1="-5.58" y1="7.58" x2="3.58" y2="-1.58"/><line class="cls-2" x1="-7.58" y1="-1.58" x2="1.58" y2="7.58"/><line class="cls-2" x1="-7.58" y1="7.58" x2="1.58" y2="-1.58"/><line class="cls-2" x1="0.42" y1="-3.58" x2="9.58" y2="5.58"/><line class="cls-2" x1="0.42" y1="5.58" x2="9.58" y2="-3.58"/><line class="cls-2" x1="-1.58" y1="-3.58" x2="7.58" y2="5.58"/><line class="cls-2" x1="-1.58" y1="5.58" x2="7.58" y2="-3.58"/><line class="cls-2" x1="-3.58" y1="-3.58" x2="5.58" y2="5.58"/><line class="cls-2" x1="-3.58" y1="5.58" x2="5.58" y2="-3.58"/><line class="cls-2" x1="-5.58" y1="-3.58" x2="3.58" y2="5.58"/><line class="cls-2" x1="-5.58" y1="5.58" x2="3.58" y2="-3.58"/><line class="cls-2" x1="-7.58" y1="-3.58" x2="1.58" y2="5.58"/><line class="cls-2" x1="-7.58" y1="5.58" x2="1.58" y2="-3.58"/><line class="cls-2" x1="0.42" y1="-5.58" x2="9.58" y2="3.58"/><line class="cls-2" x1="0.42" y1="3.58" x2="9.58" y2="-5.58"/><line class="cls-2" x1="-1.58" y1="-5.58" x2="7.58" y2="3.58"/><line class="cls-2" x1="-1.58" y1="3.58" x2="7.58" y2="-5.58"/><line class="cls-2" x1="-3.58" y1="-5.58" x2="5.58" y2="3.58"/><line class="cls-2" x1="-3.58" y1="3.58" x2="5.58" y2="-5.58"/><line class="cls-2" x1="-5.58" y1="-5.58" x2="3.58" y2="3.58"/><line class="cls-2" x1="-5.58" y1="3.58" x2="3.58" y2="-5.58"/><line class="cls-2" x1="-7.58" y1="-5.58" x2="1.58" y2="3.58"/><line class="cls-2" x1="-7.58" y1="3.58" x2="1.58" y2="-5.58"/><line class="cls-2" x1="0.42" y1="-7.58" x2="9.58" y2="1.58"/><line class="cls-2" x1="0.42" y1="1.58" x2="9.58" y2="-7.58"/><line class="cls-2" x1="-1.58" y1="-7.58" x2="7.58" y2="1.58"/><line class="cls-2" x1="-1.58" y1="1.58" x2="7.58" y2="-7.58"/><line class="cls-2" x1="-3.58" y1="-7.58" x2="5.58" y2="1.58"/><line class="cls-2" x1="-3.58" y1="1.58" x2="5.58" y2="-7.58"/><line class="cls-2" x1="-5.58" y1="-7.58" x2="3.58" y2="1.58"/><line class="cls-2" x1="-5.58" y1="1.58" x2="3.58" y2="-7.58"/><line class="cls-2" x1="-7.58" y1="-7.58" x2="1.58" y2="1.58"/><line class="cls-2" x1="-7.58" y1="1.58" x2="1.58" y2="-7.58"/></pattern></defs><title>Rooftop unit(屋顶机)</title><g id="图层_2" data-name="图层 2"><g id="图层_6" data-name="图层 6"><g id="Rooftop_unit_屋顶机_" data-name="Rooftop unit(屋顶机)"><rect class="cls-3" x="15.02" width="134.98" height="55.92"/><rect class="cls-4" x="55.95" y="4.01" width="11.24" height="47.91"/><rect class="cls-4" x="69.22" y="4.01" width="13.32" height="47.91"/><rect class="cls-4" x="82.54" y="4.01" width="11.83" height="47.91"/><rect class="cls-4" x="94.37" y="4.01" width="11.83" height="47.91"/><rect class="cls-4" x="106.2" y="4.01" width="11.95" height="47.91"/><rect class="cls-4" x="18.86" y="4.01" width="17.49" height="47.91"/><rect class="cls-5" x="18.86" y="4.01" width="17.49" height="29.42"/><rect class="cls-6" x="18.86" y="23.29" width="17.49" height="10.13"/><polygon class="cls-7" points="36.35 33.42 18.86 33.42 20.31 25.81 34.9 25.81 36.35 33.42"/><rect class="cls-4" x="53.91" y="4.01" width="2.04" height="47.91"/><rect class="cls-4" x="67.18" y="4.01" width="2.04" height="47.91"/><rect class="cls-4" x="42.75" y="4.01" width="11.16" height="47.91"/><rect class="cls-4" x="36.35" y="4.01" width="6.4" height="47.91"/><polygon class="cls-8" points="15.02 4.01 3.76 18.32 13.57 26.63 15.02 26.63 15.02 4.01"/><rect class="cls-9" x="42.04" y="10.95" width="1.41" height="0.85" transform="translate(85.5 22.76) rotate(-180)"/><rect class="cls-9" x="42.04" y="25.38" width="1.41" height="0.85" transform="translate(85.5 51.62) rotate(-180)"/><rect class="cls-9" x="42.04" y="41.88" width="1.41" height="0.85" transform="translate(85.5 84.61) rotate(-180)"/><rect class="cls-9" x="55.44" y="10.95" width="1.41" height="0.85" transform="translate(112.3 22.76) rotate(-180)"/><rect class="cls-9" x="55.44" y="25.38" width="1.41" height="0.85" transform="translate(112.3 51.62) rotate(-180)"/><rect class="cls-9" x="55.44" y="41.88" width="1.41" height="0.85" transform="translate(112.3 84.61) rotate(-180)"/><rect class="cls-9" x="68.5" y="10.95" width="1.41" height="0.85" transform="translate(138.4 22.76) rotate(-180)"/><rect class="cls-9" x="68.5" y="25.38" width="1.41" height="0.85" transform="translate(138.4 51.62) rotate(-180)"/><rect class="cls-9" x="68.5" y="41.88" width="1.41" height="0.85" transform="translate(138.4 84.61) rotate(-180)"/><rect class="cls-9" x="81.9" y="10.95" width="1.41" height="0.85" transform="translate(165.2 22.76) rotate(-180)"/><rect class="cls-9" x="81.9" y="25.38" width="1.41" height="0.85" transform="translate(165.2 51.62) rotate(-180)"/><rect class="cls-9" x="81.9" y="41.88" width="1.41" height="0.85" transform="translate(165.2 84.61) rotate(-180)"/><rect class="cls-9" x="105.61" y="10.95" width="1.41" height="0.85" transform="translate(212.62 22.76) rotate(-180)"/><rect class="cls-9" x="105.61" y="25.38" width="1.41" height="0.85" transform="translate(212.62 51.62) rotate(-180)"/><rect class="cls-9" x="105.61" y="41.88" width="1.41" height="0.85" transform="translate(212.62 84.61) rotate(-180)"/><rect class="cls-9" x="33.15" y="52.99" width="6.4" height="1.53" transform="translate(72.7 107.5) rotate(-180)"/><rect class="cls-10" x="34.9" y="52.99" width="0.26" height="1.53"/><rect class="cls-10" x="37.56" y="52.99" width="0.26" height="1.53"/><rect class="cls-9" x="72.32" y="52.99" width="6.4" height="1.53" transform="translate(151.04 107.5) rotate(-180)"/><rect class="cls-10" x="74.07" y="52.99" width="0.26" height="1.53"/><rect class="cls-10" x="76.73" y="52.99" width="0.26" height="1.53"/><rect class="cls-9" x="96.03" y="52.99" width="6.4" height="1.53" transform="translate(198.46 107.5) rotate(-180)"/><rect class="cls-10" x="97.78" y="52.99" width="0.26" height="1.53"/><rect class="cls-10" x="100.44" y="52.99" width="0.26" height="1.53"/><rect class="cls-9" x="132.11" y="52.99" width="6.4" height="1.53" transform="translate(270.61 107.5) rotate(-180)"/><rect class="cls-10" x="133.86" y="52.99" width="0.26" height="1.53"/><rect class="cls-10" x="136.52" y="52.99" width="0.26" height="1.53"/><polygon class="cls-11" points="15.02 48.24 7.35 48.24 0 41.56 7.35 30.48 15.02 30.48 15.02 48.24"/><rect class="cls-12" x="120.45" y="4.01" width="27.41" height="20.74"/><rect class="cls-13" x="120.45" y="11.8" width="18.29" height="5.15"/><rect class="cls-13" x="135.31" y="16.95" width="3.44" height="7.8"/><rect class="cls-14" x="120.45" y="4.01" width="27.41" height="20.74"/><rect class="cls-12" x="120.45" y="31.17" width="27.41" height="20.74"/><rect class="cls-13" x="120.45" y="31.17" width="18.29" height="10.37"/><rect class="cls-13" x="135.31" y="35.89" width="9.42" height="16.03"/><rect class="cls-14" x="120.45" y="31.17" width="27.41" height="20.74"/></g></g></g></svg>