<svg xmlns="http://www.w3.org/2000/svg" xmlns:xlink="http://www.w3.org/1999/xlink" viewBox="0 0 150 59.74"><defs><style>.cls-1{fill:url(#未命名的渐变_121);}.cls-2{fill:url(#未命名的渐变_121-2);}.cls-3{fill:url(#未命名的渐变_51);}.cls-4{fill:url(#未命名的渐变_121-3);}.cls-5,.cls-7{opacity:0.1;}.cls-5{fill:url(#未命名的渐变_278);}.cls-6{fill:url(#未命名的渐变_121-4);}.cls-7{fill:url(#未命名的渐变_278-2);}.cls-8{opacity:0.2;}</style><linearGradient id="未命名的渐变_121" y1="56.53" x2="150" y2="56.53" gradientUnits="userSpaceOnUse"><stop offset="0" stop-color="#a9b1bb"/><stop offset="0.09" stop-color="#61666b"/><stop offset="0.18" stop-color="#696e73"/><stop offset="0.32" stop-color="#7e8489"/><stop offset="0.49" stop-color="#a1a7ae"/><stop offset="0.69" stop-color="#d1d8e0"/><stop offset="0.75" stop-color="#e2eaf2"/><stop offset="0.93" stop-color="#9ba1ab"/><stop offset="1" stop-color="#767b82"/></linearGradient><linearGradient id="未命名的渐变_121-2" x1="58.15" y1="31.03" x2="91.85" y2="31.03" xlink:href="#未命名的渐变_121"/><linearGradient id="未命名的渐变_51" x1="64.46" y1="1.64" x2="85.54" y2="1.64" gradientUnits="userSpaceOnUse"><stop offset="0" stop-color="#a9b1bb"/><stop offset="0.09" stop-color="#61666b"/><stop offset="0.16" stop-color="#696e73"/><stop offset="0.27" stop-color="#7e8489"/><stop offset="0.41" stop-color="#a1a7ae"/><stop offset="0.56" stop-color="#d1d8e0"/><stop offset="0.61" stop-color="#e2eaf2"/><stop offset="0.93" stop-color="#9ba1ab"/><stop offset="1" stop-color="#767b82"/></linearGradient><linearGradient id="未命名的渐变_121-3" x1="56.54" y1="20.86" x2="88" y2="12.43" xlink:href="#未命名的渐变_121"/><linearGradient id="未命名的渐变_278" x1="75" y1="26.84" x2="75" y2="3.29" gradientUnits="userSpaceOnUse"><stop offset="0" stop-color="#2e3033"/><stop offset="1" stop-color="#878d93" stop-opacity="0"/></linearGradient><linearGradient id="未命名的渐变_121-4" x1="17.21" y1="83.12" x2="129.71" y2="18.17" xlink:href="#未命名的渐变_121"/><linearGradient id="未命名的渐变_278-2" x1="75" y1="53.31" x2="75" y2="35.23" xlink:href="#未命名的渐变_278"/></defs><title>Vent hood(通风罩)</title><g id="图层_2" data-name="图层 2"><g id="图层_6" data-name="图层 6"><g id="Vent_hood_通风罩_" data-name="Vent hood(通风罩)"><rect class="cls-1" y="53.31" width="150" height="6.42"/><rect class="cls-2" x="58.15" y="26.84" width="33.71" height="8.38"/><rect class="cls-3" x="64.46" width="21.08" height="3.29"/><polygon class="cls-4" points="91.85 26.84 58.15 26.84 64.44 3.29 85.56 3.29 91.85 26.84"/><polygon class="cls-5" points="91.85 26.84 58.15 26.84 64.44 3.29 85.56 3.29 91.85 26.84"/><polygon class="cls-6" points="150 53.31 0 53.31 19 35.23 131 35.23 150 53.31"/><polygon class="cls-7" points="150 53.31 0 53.31 19 35.23 131 35.23 150 53.31"/></g></g></g></svg>