<svg xmlns="http://www.w3.org/2000/svg" xmlns:xlink="http://www.w3.org/1999/xlink" viewBox="0 0 150 150"><defs><style>.cls-1{fill:url(#未命名的渐变_192);}.cls-13,.cls-2{opacity:0.3;}.cls-2{fill:url(#未命名的渐变_196);}.cls-14,.cls-3{opacity:0.1;}.cls-3{fill:url(#未命名的渐变_202);}.cls-4{fill:url(#未命名的渐变_192-2);}.cls-5{fill:url(#未命名的渐变_192-3);}.cls-6{fill:url(#未命名的渐变_5);}.cls-7{fill:#2f3134;}.cls-8{opacity:0.6;fill:url(#未命名的渐变_199);}.cls-9{fill:url(#未命名的渐变_192-4);}.cls-10{fill:url(#未命名的渐变_192-5);}.cls-11{opacity:0.5;}.cls-12{fill:url(#未命名的渐变_192-6);}.cls-13{fill:url(#未命名的渐变_196-2);}.cls-14{fill:url(#未命名的渐变_202-2);}.cls-15{fill:url(#未命名的渐变_192-7);}.cls-16{fill:url(#未命名的渐变_192-8);}.cls-17{opacity:0.2;}</style><linearGradient id="未命名的渐变_192" x1="-247.7" y1="-989.36" x2="-247.7" y2="-1139.36" gradientTransform="matrix(0, -1, -1, 0, -989.36, -177.95)" gradientUnits="userSpaceOnUse"><stop offset="0" stop-color="#a9b1bb"/><stop offset="0.09" stop-color="#61666b"/><stop offset="0.18" stop-color="#696e73"/><stop offset="0.32" stop-color="#7e8489"/><stop offset="0.49" stop-color="#a1a7ae"/><stop offset="0.69" stop-color="#d1d8e0"/><stop offset="0.75" stop-color="#e2eaf2"/><stop offset="0.93" stop-color="#9ba1ab"/><stop offset="1" stop-color="#767b82"/></linearGradient><linearGradient id="未命名的渐变_196" x1="-282" y1="-1064.36" x2="-264.48" y2="-1064.36" gradientTransform="matrix(0, -1, -1, 0, -989.36, -177.95)" gradientUnits="userSpaceOnUse"><stop offset="0" stop-color="#2e3033"/><stop offset="1" stop-color="#9ba1ab" stop-opacity="0"/></linearGradient><linearGradient id="未命名的渐变_202" x1="-230.93" y1="-1064.36" x2="-213.41" y2="-1064.36" gradientTransform="matrix(0, -1, -1, 0, -989.36, -177.95)" gradientUnits="userSpaceOnUse"><stop offset="0" stop-color="#9ba1ab" stop-opacity="0"/><stop offset="1" stop-color="#2e3033"/></linearGradient><linearGradient id="未命名的渐变_192-2" x1="-201.68" y1="-1022.04" x2="-201.68" y2="-1106.68" xlink:href="#未命名的渐变_192"/><linearGradient id="未命名的渐变_192-3" x1="-305.5" y1="-1022.04" x2="-305.5" y2="-1106.68" xlink:href="#未命名的渐变_192"/><linearGradient id="未命名的渐变_5" x1="-285.43" y1="-1103.53" x2="-363.77" y2="-1025.19" gradientTransform="matrix(0, -1, -1, 0, -989.36, -177.95)" gradientUnits="userSpaceOnUse"><stop offset="0" stop-color="#d7dce0"/><stop offset="1" stop-color="#8a9099"/></linearGradient><linearGradient id="未命名的渐变_199" x1="-309.3" y1="-1064.36" x2="-289.74" y2="-1064.36" gradientTransform="matrix(0, -1, -1, 0, -989.36, -177.95)" gradientUnits="userSpaceOnUse"><stop offset="0" stop-color="#9ba1ab" stop-opacity="0"/><stop offset="0.39" stop-color="#61656b" stop-opacity="0.53"/><stop offset="0.74" stop-color="#3b3e42" stop-opacity="0.88"/><stop offset="1" stop-color="#2e3033"/></linearGradient><linearGradient id="未命名的渐变_192-4" x1="-250.91" y1="-1026.86" x2="-175.91" y2="-1101.86" xlink:href="#未命名的渐变_192"/><linearGradient id="未命名的渐变_192-5" x1="-299.42" y1="-1026.86" x2="-224.42" y2="-1101.86" gradientTransform="translate(-989.36 365.97) rotate(90)" xlink:href="#未命名的渐变_192"/><linearGradient id="未命名的渐变_192-6" x1="-187.82" y1="-1017.11" x2="-187.82" y2="-1111.61" xlink:href="#未命名的渐变_192"/><linearGradient id="未命名的渐变_196-2" x1="-194.88" y1="-1064.36" x2="-188.46" y2="-1064.36" xlink:href="#未命名的渐变_196"/><linearGradient id="未命名的渐变_202-2" x1="-186.29" y1="-1064.36" x2="-180.76" y2="-1064.36" xlink:href="#未命名的渐变_202"/><linearGradient id="未命名的渐变_192-7" x1="-204.38" y1="-1040.73" x2="-157.13" y2="-1087.98" xlink:href="#未命名的渐变_192"/><linearGradient id="未命名的渐变_192-8" x1="-372.67" y1="-1040.73" x2="-325.42" y2="-1087.98" gradientTransform="translate(-989.36 365.97) rotate(90)" xlink:href="#未命名的渐变_192"/></defs><title>Ventilator(通风机)</title><g id="图层_2" data-name="图层 2"><g id="图层_6" data-name="图层 6"><g id="Ventilator_通风机_" data-name="Ventilator(通风机)"><rect class="cls-1" y="35.47" width="150" height="68.59"/><rect class="cls-2" y="86.53" width="150" height="17.52"/><rect class="cls-3" y="35.47" width="150" height="17.52"/><rect class="cls-4" x="32.68" y="19.74" width="84.63" height="7.98"/><rect class="cls-5" x="32.68" y="111.79" width="84.63" height="31.52"/><rect class="cls-6" y="143.31" width="150" height="6.69"/><rect class="cls-7" x="11.97" y="145.89" width="1.95" height="1.54"/><rect class="cls-7" x="136.01" y="145.89" width="1.95" height="1.54"/><rect class="cls-8" x="32.68" y="111.79" width="84.63" height="19.56"/><polygon class="cls-9" points="140.02 27.73 9.98 27.73 0 35.47 150 35.47 140.02 27.73"/><polygon class="cls-10" points="140.02 111.79 9.98 111.79 0 104.05 150 104.05 140.02 111.79"/><g class="cls-11"><polygon class="cls-7" points="140.02 111.79 9.98 111.79 0 104.05 150 104.05 140.02 111.79"/></g><rect class="cls-12" x="27.75" y="2.81" width="94.5" height="14.12"/><rect class="cls-13" x="27.75" y="10.52" width="94.5" height="6.41"/><rect class="cls-14" x="27.75" y="2.81" width="94.5" height="5.53"/><polygon class="cls-15" points="117.32 0 32.68 0 27.75 2.81 122.25 2.81 117.32 0"/><polygon class="cls-16" points="117.32 19.74 32.68 19.74 27.75 16.93 122.25 16.93 117.32 19.74"/></g></g></g></svg>