<svg xmlns="http://www.w3.org/2000/svg" xmlns:xlink="http://www.w3.org/1999/xlink" viewBox="0 0 150 150"><defs><style>.cls-1,.cls-2{fill:none;}.cls-2{stroke:#fff;stroke-width:0.1px;}.cls-17,.cls-2,.cls-22,.cls-27{stroke-miterlimit:10;}.cls-3{opacity:0;}.cls-4{fill:#000714;}.cls-5{opacity:0.1;fill:url(#新建图案);}.cls-6{isolation:isolate;}.cls-7{fill:url(#未命名的渐变_489);}.cls-8{fill:#c5c5c5;}.cls-9{fill:url(#未命名的渐变_107);}.cls-10{fill:url(#未命名的渐变_107-2);}.cls-11{fill:url(#未命名的渐变_482);}.cls-12{fill:#dcdcdc;}.cls-13{fill:url(#未命名的渐变_71);}.cls-14{fill:url(#未命名的渐变_468);}.cls-15{fill:#fff;opacity:0.2;mix-blend-mode:overlay;}.cls-16{fill:url(#未命名的渐变_496);}.cls-17,.cls-22,.cls-27{stroke-width:0.25px;}.cls-17{fill:url(#未命名的渐变_81);stroke:url(#未命名的渐变_75);}.cls-18{fill:url(#未命名的渐变_107-3);}.cls-19{fill:url(#未命名的渐变_71-2);}.cls-20{fill:url(#未命名的渐变_468-2);}.cls-21{fill:url(#未命名的渐变_496-2);}.cls-22{fill:url(#未命名的渐变_81-2);stroke:url(#未命名的渐变_75-2);}.cls-23{fill:url(#未命名的渐变_107-4);}.cls-24{fill:url(#未命名的渐变_71-3);}.cls-25{fill:url(#未命名的渐变_468-3);}.cls-26{fill:url(#未命名的渐变_496-3);}.cls-27{fill:url(#未命名的渐变_81-3);stroke:url(#未命名的渐变_75-3);}.cls-28{fill:url(#未命名的渐变_107-5);}.cls-29{fill:url(#未命名的渐变_107-6);}.cls-30{fill:url(#未命名的渐变_468-4);}.cls-31{fill:url(#未命名的渐变_496-4);}.cls-32{fill:url(#未命名的渐变_81-4);}.cls-33{fill:url(#未命名的渐变_75-4);}.cls-34{fill:url(#未命名的渐变_107-7);}.cls-35{opacity:0.2;}</style><pattern id="新建图案" data-name="新建图案" width="18.57" height="32.16" patternTransform="translate(3626.65 663.11)" patternUnits="userSpaceOnUse" viewBox="0 0 18.57 32.16"><rect class="cls-1" width="18.57" height="32.16"/><polyline class="cls-2" points="18.57 21.44 18.57 32.16 18.57 42.88"/><polyline class="cls-2" points="9.29 26.8 18.57 32.16 27.85 37.51 27.85 37.52"/><polyline class="cls-2" points="9.29 37.52 9.29 37.51 18.57 32.16 27.85 26.8"/><polygon class="cls-2" points="27.85 37.52 27.85 26.8 18.57 21.44 9.28 26.8 9.28 37.52 18.57 42.88 27.85 37.52"/><polyline class="cls-2" points="0 21.44 0 32.16 0 42.88"/><polyline class="cls-2" points="-9.28 26.8 0 32.16 9.28 37.51 9.28 37.52"/><polyline class="cls-2" points="-9.28 37.52 -9.28 37.51 0 32.16 9.28 26.8"/><polygon class="cls-2" points="9.28 37.52 9.28 26.8 0 21.44 -9.29 26.8 -9.29 37.52 0 42.88 9.28 37.52"/><polyline class="cls-2" points="18.57 10.72 27.85 16.08 37.13 21.43 37.13 21.44"/><polyline class="cls-2" points="18.57 21.44 18.57 21.43 27.85 16.08 37.13 10.72"/><polygon class="cls-2" points="37.14 21.44 37.14 10.72 27.85 5.36 18.57 10.72 18.57 21.44 27.85 26.8 37.14 21.44"/><polyline class="cls-2" points="9.29 5.36 9.29 16.08 9.29 26.8"/><polyline class="cls-2" points="0.01 10.72 9.29 16.08 18.57 21.43 18.57 21.44"/><polyline class="cls-2" points="0.01 21.44 0.01 21.43 9.29 16.08 18.57 10.72"/><polygon class="cls-2" points="18.57 21.44 18.57 10.72 9.28 5.36 0 10.72 0 21.44 9.28 26.8 18.57 21.44"/><polyline class="cls-2" points="-18.56 10.72 -9.28 16.08 0 21.43 0 21.44"/><polyline class="cls-2" points="-18.56 21.44 -18.56 21.43 -9.28 16.08 0 10.72"/><polygon class="cls-2" points="0 21.44 0 10.72 -9.29 5.36 -18.57 10.72 -18.57 21.44 -9.29 26.8 0 21.44"/><polyline class="cls-2" points="18.57 -10.72 18.57 0 18.57 10.72"/><polyline class="cls-2" points="9.29 -5.36 18.57 0 27.85 5.35 27.85 5.36"/><polyline class="cls-2" points="9.29 5.36 9.29 5.35 18.57 0 27.85 -5.36"/><polygon class="cls-2" points="27.85 5.36 27.85 -5.36 18.57 -10.72 9.28 -5.36 9.28 5.36 18.57 10.72 27.85 5.36"/><polyline class="cls-2" points="0 -10.72 0 0 0 10.72"/><polyline class="cls-2" points="-9.28 -5.36 0 0 9.28 5.35 9.28 5.36"/><polyline class="cls-2" points="-9.28 5.36 -9.28 5.35 0 0 9.28 -5.36"/><polygon class="cls-2" points="9.28 5.36 9.28 -5.36 0 -10.72 -9.29 -5.36 -9.29 5.36 0 10.72 9.28 5.36"/></pattern><linearGradient id="未命名的渐变_489" x1="2.26" y1="118.05" x2="40.86" y2="118.05" gradientTransform="matrix(-1, 0, 0, 1, 150, 0)" gradientUnits="userSpaceOnUse"><stop offset="0" stop-color="#435367"/><stop offset="1" stop-color="#4f5f78"/></linearGradient><linearGradient id="未命名的渐变_107" x1="35.96" y1="133.63" x2="6.07" y2="103.74" gradientTransform="matrix(-1, 0, 0, 1, 150, 0)" gradientUnits="userSpaceOnUse"><stop offset="0" stop-color="#283140"/><stop offset="0.34" stop-color="#232b37"/><stop offset="0.9" stop-color="#15191f"/><stop offset="1" stop-color="#12161a"/></linearGradient><linearGradient id="未命名的渐变_107-2" x1="9.11" y1="102.33" x2="-3.03" y2="90.19" xlink:href="#未命名的渐变_107"/><linearGradient id="未命名的渐变_482" x1="-2.45" y1="102.42" x2="10.19" y2="89.77" gradientTransform="matrix(-1, 0, 0, 1, 150, 0)" gradientUnits="userSpaceOnUse"><stop offset="0" stop-color="#323e4d"/><stop offset="1" stop-color="#3e4b5f"/></linearGradient><linearGradient id="未命名的渐变_71" x1="124.41" y1="80.82" x2="80.86" y2="37.27" gradientTransform="matrix(-1, 0, 0, 1, 150, 0)" gradientUnits="userSpaceOnUse"><stop offset="0" stop-color="#425266"/><stop offset="1" stop-color="#596b8c"/></linearGradient><linearGradient id="未命名的渐变_468" x1="132.12" y1="76.88" x2="101.59" y2="23.99" gradientTransform="matrix(-1, 0, 0, 1, 150, 0)" gradientUnits="userSpaceOnUse"><stop offset="0" stop-color="#0073e6"/><stop offset="1" stop-color="#143ccc"/></linearGradient><linearGradient id="未命名的渐变_496" x1="138.44" y1="76.15" x2="95.27" y2="24.71" gradientTransform="matrix(-1, 0, 0, 1, 150, 0)" gradientUnits="userSpaceOnUse"><stop offset="0" stop-color="#6f8ec0"/><stop offset="1" stop-color="#7c9dd3"/></linearGradient><linearGradient id="未命名的渐变_81" x1="131.34" y1="75.52" x2="102.37" y2="25.35" gradientTransform="matrix(-1, 0, 0, 1, 150, 0)" gradientUnits="userSpaceOnUse"><stop offset="0" stop-color="#4cfafe"/><stop offset="0.04" stop-color="#4cfafe" stop-opacity="0.6"/><stop offset="0.09" stop-color="#41e1fe" stop-opacity="0.46"/><stop offset="0.14" stop-color="#36cafe" stop-opacity="0.34"/><stop offset="0.21" stop-color="#2db7ff" stop-opacity="0.23"/><stop offset="0.28" stop-color="#26a7ff" stop-opacity="0.15"/><stop offset="0.36" stop-color="#209bff" stop-opacity="0.08"/><stop offset="0.46" stop-color="#1c92ff" stop-opacity="0.03"/><stop offset="0.6" stop-color="#1a8dff" stop-opacity="0.01"/><stop offset="1" stop-color="#198cff" stop-opacity="0"/></linearGradient><linearGradient id="未命名的渐变_75" x1="18.6" y1="75.62" x2="47.69" y2="25.24" gradientUnits="userSpaceOnUse"><stop offset="0" stop-color="#4cfafe"/><stop offset="0.04" stop-color="#4cfafe" stop-opacity="0.6"/><stop offset="0.28" stop-color="#3ddafe" stop-opacity="0.42"/><stop offset="0.62" stop-color="#2ab0ff" stop-opacity="0.2"/><stop offset="0.87" stop-color="#1e96ff" stop-opacity="0.05"/><stop offset="1" stop-color="#198cff" stop-opacity="0"/></linearGradient><linearGradient id="未命名的渐变_107-3" x1="121.55" y1="75.06" x2="150" y2="75.06" xlink:href="#未命名的渐变_107"/><linearGradient id="未命名的渐变_71-2" x1="96.77" y1="96.8" x2="53.22" y2="53.25" xlink:href="#未命名的渐变_71"/><linearGradient id="未命名的渐变_468-2" x1="104.49" y1="92.85" x2="73.95" y2="39.97" xlink:href="#未命名的渐变_468"/><linearGradient id="未命名的渐变_496-2" x1="110.8" y1="92.13" x2="67.64" y2="40.69" xlink:href="#未命名的渐变_496"/><linearGradient id="未命名的渐变_81-2" x1="103.7" y1="91.49" x2="74.74" y2="41.33" xlink:href="#未命名的渐变_81"/><linearGradient id="未命名的渐变_75-2" x1="46.23" y1="91.6" x2="75.32" y2="41.22" xlink:href="#未命名的渐变_75"/><linearGradient id="未命名的渐变_107-4" x1="93.92" y1="91.04" x2="122.37" y2="91.04" xlink:href="#未命名的渐变_107"/><linearGradient id="未命名的渐变_71-3" x1="69.17" y1="112.8" x2="25.61" y2="69.25" xlink:href="#未命名的渐变_71"/><linearGradient id="未命名的渐变_468-3" x1="76.88" y1="108.85" x2="46.35" y2="55.97" xlink:href="#未命名的渐变_468"/><linearGradient id="未命名的渐变_496-3" x1="83.2" y1="108.13" x2="40.03" y2="56.69" xlink:href="#未命名的渐变_496"/><linearGradient id="未命名的渐变_81-3" x1="76.1" y1="107.49" x2="47.13" y2="57.33" xlink:href="#未命名的渐变_81"/><linearGradient id="未命名的渐变_75-3" x1="73.84" y1="107.6" x2="102.93" y2="57.22" xlink:href="#未命名的渐变_75"/><linearGradient id="未命名的渐变_107-5" x1="66.31" y1="107.04" x2="94.76" y2="107.04" xlink:href="#未命名的渐变_107"/><linearGradient id="未命名的渐变_107-6" x1="41.53" y1="128.78" x2="-2.02" y2="85.22" xlink:href="#未命名的渐变_107"/><linearGradient id="未命名的渐变_468-4" x1="49.24" y1="124.83" x2="18.71" y2="71.94" xlink:href="#未命名的渐变_468"/><linearGradient id="未命名的渐变_496-4" x1="129.52" y1="114.48" x2="102.52" y2="82.29" gradientTransform="matrix(1, 0, 0, 1, 0, 0)" xlink:href="#未命名的渐变_496"/><linearGradient id="未命名的渐变_81-4" x1="101.54" y1="123.47" x2="130.5" y2="73.3" gradientTransform="matrix(1, 0, 0, 1, 0, 0)" xlink:href="#未命名的渐变_81"/><linearGradient id="未命名的渐变_75-4" x1="101.54" y1="123.47" x2="130.5" y2="73.3" xlink:href="#未命名的渐变_75"/><linearGradient id="未命名的渐变_107-7" x1="38.68" y1="123.02" x2="67.12" y2="123.02" xlink:href="#未命名的渐变_107"/></defs><title>太阳能电池板</title><g id="图层_2" data-name="图层 2"><g id="图层_1-2" data-name="图层 1"><g id="太阳能电池板"><g class="cls-3"><rect class="cls-4" width="150" height="150"/><rect id="网格" class="cls-5" width="150" height="150"/></g><g class="cls-6"><polygon class="cls-7" points="146.63 106.9 147.74 107.55 110.24 129.19 109.14 128.55 146.63 106.9"/><polygon class="cls-8" points="110.24 129.19 110.24 129.83 109.14 129.19 109.14 128.55 110.24 129.19"/><polygon class="cls-9" points="147.74 107.55 147.74 108.18 110.24 129.83 110.24 129.19 147.74 107.55"/></g><g class="cls-6"><polygon class="cls-10" points="147.2 84.36 147.27 107.83 146.71 108.15 146.65 84.68 147.2 84.36"/><polygon class="cls-11" points="146.65 84.68 146.71 108.15 145.61 107.51 145.54 84.04 146.65 84.68"/><polygon class="cls-12" points="146.1 83.72 147.2 84.36 146.65 84.68 145.54 84.04 146.1 83.72"/></g><g class="cls-6"><polygon class="cls-13" points="66.29 34.42 67.13 35.59 28.45 83.68 27.61 82.5 66.29 34.42"/><polygon class="cls-14" points="0 66.45 0.02 66.46 3.29 68.36 3.64 68.56 6.91 70.46 7.25 70.67 10.53 72.57 10.87 72.77 14.15 74.67 14.49 74.87 17.77 76.77 18.11 76.97 21.39 78.88 21.72 79.07 25 80.98 25.34 81.17 27.61 82.5 29.82 79.76 30.07 79.46 32.43 76.5 32.69 76.19 35.06 73.24 35.31 72.93 37.68 69.98 37.94 69.67 40.31 66.72 40.55 66.42 42.93 63.47 43.18 63.15 45.55 60.2 45.8 59.89 48.17 56.95 48.42 56.63 50.79 53.68 51.04 53.37 53.42 50.42 53.67 50.11 56.04 47.17 56.28 46.85 58.66 43.91 58.91 43.59 61.28 40.64 61.53 40.34 63.91 37.38 64.16 37.08 66.29 34.42 64.19 33.2 63.85 33 60.57 31.1 60.23 30.9 56.96 29 56.61 28.8 53.34 26.9 53 26.69 49.73 24.79 49.38 24.59 46.11 22.69 45.76 22.49 42.49 20.59 42.14 20.39 38.87 18.48 38.68 18.37 0 66.45"/><path class="cls-15" d="M0,66.45H0L2.17,63.8l3.29,1.9L3.29,68.36l.35.2,2.15-2.67,3.29,1.9L6.91,70.46l.34.21L9.42,68l3.28,1.89-2.17,2.69.34.2,2.18-2.69L16.33,72l-2.18,2.7.34.2,2.18-2.69L20,74.07l-2.18,2.7.34.2,2.19-2.7,3.28,1.9-2.19,2.71.33.19,2.2-2.71,3.29,1.9L25,81l.34.19,2.2-2.72,2.28,1.31.25-.3L27.8,78.15l2.39-3,2.24,1.3.25-.31-2.25-1.3L32.82,72l2.24,1.29.25-.31-2.24-1.29,2.38-3L37.68,70l.25-.31L35.7,68.39l2.38-3,2.23,1.28.24-.3-2.22-1.29,2.39-2.94,2.21,1.27.25-.31L41,61.88l2.39-2.94,2.19,1.27.25-.32-2.2-1.26,2.39-3L48.17,57l.25-.32-2.18-1.26,2.38-2.94,2.17,1.25.25-.31-2.17-1.25,2.38-2.95,2.17,1.25.25-.31-2.16-1.24,2.38-2.95L56,47.17l.25-.32-2.15-1.23,2.39-2.95,2.13,1.24.25-.32-2.14-1.23,2.39-2.94,2.12,1.22.26-.31L59.41,39.1l2.38-2.93,2.12,1.21.25-.3L62,35.85l2.15-2.65-.34-.2L61.7,35.66l-3.28-1.9,2.15-2.66-.34-.2-2.16,2.66L54.8,31.67,57,29l-.35-.2-2.16,2.67-3.28-1.89,2.17-2.68L53,26.69l-2.18,2.69-3.28-1.9,2.19-2.69-.35-.2-2.18,2.7-3.28-1.9,2.19-2.7-.35-.2-2.18,2.7L40.29,23.3l2.2-2.71-.35-.2L40,23.1l-3.28-1.9,2.2-2.72-.19-.11ZM7.44,57.3l3.28,1.89L8.34,62.13,5.06,60.24ZM40,42.7l-2.38,2.94-3.28-1.89,2.39-3Zm-3-2.2,2.39-3,3.29,1.89-2.39,3ZM37.4,46,35,48.9,31.74,47l2.38-2.94ZM34.77,49.2l-2.38,2.95-3.29-1.9,2.39-2.94Zm-2.63,3.26L29.75,55.4l-3.28-1.89,2.38-2.95ZM29.5,55.71l-2.39,2.94-3.28-1.89,2.39-2.94ZM26.86,59l-2.38,2.94L21.2,60l2.39-3Zm-6,.84-3.27-1.89L20,55l3.28,1.89Zm-.64-5.14,2.38-3,3.29,1.9-2.39,2.94Zm2.63-3.26,2.39-2.94,3.28,1.89-2.38,3Zm2.64-3.25,2.38-2.94,3.28,1.89-2.38,3Zm2.63-3.25L30.5,42l3.28,1.9-2.39,3Zm2.64-3.25,2.38-2.95,3.28,1.9L34,43.55Zm2.63-3.26,2.38-2.94,3.29,1.89L36.67,40.3ZM36,35.15,38.4,32.2l3.28,1.9L39.3,37Zm6-.85,3.29,1.89-2.39,3-3.28-1.9Zm3.63,2.09,3.28,1.89-2.38,2.95-3.29-1.9Zm.65,5.15-2.39,2.94-3.28-1.89L43,39.65Zm-2.64,3.25-2.38,3L38,45.84l2.38-2.94ZM41,48l-2.39,3-3.28-1.9,2.39-2.94ZM38.4,51.3,36,54.24l-3.29-1.89,2.39-3Zm-2.64,3.25-2.39,2.94L30.09,55.6l2.39-2.94ZM33.12,57.8l-2.38,3-3.28-1.89,2.38-3Zm-2.63,3.26L28.11,64l-3.28-1.89,2.38-3Zm-2.63,3.25-2.39,3-3.28-1.9,2.39-2.94Zm-6,.86-3.28-1.9,2.38-3,3.28,1.9Zm-3.63-2.1-3.28-1.89,2.39-3,3.28,1.9ZM14.59,61l-3.27-1.89,2.38-2.94L17,58ZM14,55.83l2.38-2.94,3.29,1.89-2.39,2.94Zm2.63-3.26L19,49.63l3.28,1.89-2.38,2.95Zm2.64-3.25,2.39-2.94,3.27,1.89L22.5,51.22Zm2.63-3.25,2.39-3L27.52,45,25.13,48Zm2.64-3.25,2.38-3,3.28,1.9-2.38,2.94Zm2.63-3.26,2.38-2.94,3.29,1.89-2.39,3Zm2.63-3.25,2.39-3,3.28,1.9L33,38.2Zm2.64-3.25,2.39-3L38.05,32,35.67,35ZM35,29.8l2.39-2.94,3.28,1.89L38.3,31.7ZM41,29l3.27,1.9-2.38,2.94L38.65,31.9ZM44.66,31l3.28,1.9-2.38,2.94L42.28,34Zm3.63,2.09L51.57,35,49.18,38l-3.28-1.9Zm3.62,2.1,3.28,1.89-2.38,3-3.29-1.9Zm.65,5.15-2.39,2.94-3.28-1.89,2.38-2.94Zm-2.64,3.25-2.38,2.95-3.28-1.9,2.38-2.94Zm-2.63,3.26L44.9,49.83l-3.27-1.89L44,45Zm-2.63,3.25-2.39,2.94L39,51.19l2.39-2.95ZM42,53.39l-2.39,2.94-3.28-1.89,2.38-2.95Zm-2.64,3.25-2.38,3-3.28-1.9,2.38-2.94ZM36.75,59.9l-2.38,2.94L31.09,61l2.38-3Zm-2.63,3.25L31.73,66.1l-3.28-1.9,2.39-2.94ZM31.48,66.4,29.1,69.35l-3.29-1.9,2.39-2.94Zm-2.63,3.25L26.46,72.6l-3.28-1.9,2.38-2.94Zm-6,.86-3.29-1.9,2.39-2.94,3.29,1.89Zm-3.62-2.09-3.29-1.9,2.38-2.95,3.29,1.9Zm-3.63-2.1L12.3,64.43l2.39-3L18,63.38ZM12,64.23,8.68,62.34l2.39-3,3.28,1.9ZM10.07,54.05l3.28,1.89L11,58.88,7.69,57Zm2.64-3.26L16,52.68l-2.38,3-3.29-1.9Zm2.64-3.25,3.28,1.89-2.39,3L13,50.48ZM18,44.28l3.28,1.9-2.39,3-3.27-1.9ZM20.61,41l3.28,1.9-2.38,2.94L18.23,44Zm2.63-3.25,3.29,1.89-2.39,2.94-3.28-1.88Zm2.64-3.25,3.28,1.89-2.38,2.94-3.29-1.89Zm2.64-3.26,3.28,1.9-2.39,2.94-3.28-1.89ZM31.15,28l3.28,1.89L32,32.86,28.77,31Zm2.63-3.25,3.28,1.89-2.38,2.95-3.28-1.9Zm5.92-1.36-2.38,2.94L34,24.46l2.38-2.95Zm3.63,2.09-2.39,2.95-3.28-1.9L40,23.61ZM47,27.59l-2.39,2.95-3.28-1.9,2.39-2.94Zm3.62,2.1-2.38,2.94-3.28-1.89,2.38-2.95Zm3.63,2.09-2.39,2.94-3.27-1.89,2.38-2.95Zm3.63,2.09-2.39,3-3.28-1.9,2.39-3Zm1.24,5L55.78,37l2.39-2.94L61.45,36Zm-2.64,3.25-3.28-1.89,2.38-2.94,3.29,1.88Zm-2.64,3.26-3.27-1.9,2.38-2.94,3.28,1.89Zm-2.63,3.25-3.28-1.89,2.39-3,3.28,1.9Zm-2.63,3.25L45.25,50l2.38-3L50.91,49ZM45.9,55.18l-3.29-1.9,2.38-3,3.29,1.9Zm-2.64,3.25L40,56.53l2.38-2.94,3.28,1.89Zm-2.64,3.25-3.27-1.89,2.38-2.95L43,58.74ZM38,64.94,34.71,63,37.1,60.1,40.38,62Zm-2.63,3.25-3.29-1.9,2.39-2.94,3.28,1.89Zm-2.64,3.25-3.28-1.89,2.38-3,3.29,1.9Zm-2.63,3.25L26.81,72.8l2.38-3,3.28,1.9Zm-5.91,1.36,2.38-2.94L29.84,75l-2.39,2.94ZM20.55,74,22.93,71l3.28,1.89-2.38,2.94Zm-3.63-2.1,2.39-2.94,3.27,1.89-2.38,3ZM13.3,69.77l2.38-2.94L19,68.72l-2.39,3ZM9.67,67.68l2.38-3,3.29,1.9-2.38,3ZM6,65.59l2.39-3,3.28,1.9L9.33,67.48ZM2.42,63.5l2.39-3,3.28,1.9L5.7,65.39Z"/><path class="cls-16" d="M39.05,20.4,63.93,34.86,27.24,80.46,2.36,66,39.05,20.4m-.37-2L0,66.45l27.61,16L66.29,34.42l-27.61-16Z"/><path class="cls-17" d="M39.05,20.4,63.93,34.86,27.24,80.46,2.36,66,39.05,20.4"/><polygon class="cls-18" points="27.61 82.5 28.45 83.68 0.83 67.63 0 66.45 27.61 82.5"/></g><g class="cls-6"><polygon class="cls-19" points="93.92 50.39 94.76 51.57 56.08 99.66 55.25 98.47 93.92 50.39"/><polygon class="cls-20" points="27.64 82.43 27.65 82.44 30.93 84.34 31.27 84.53 34.55 86.44 34.88 86.64 38.16 88.55 38.51 88.74 41.78 90.65 42.13 90.85 45.4 92.75 45.74 92.95 49.02 94.85 49.36 95.05 52.63 96.95 52.98 97.15 55.25 98.47 57.45 95.74 57.7 95.43 60.07 92.48 60.32 92.17 62.69 89.22 62.94 88.91 65.32 85.96 65.57 85.65 67.94 82.7 68.19 82.4 70.56 79.44 70.81 79.13 73.19 76.18 73.44 75.87 75.8 72.92 76.05 72.61 78.43 69.66 78.68 69.35 81.05 66.4 81.3 66.09 83.68 63.14 83.92 62.83 86.29 59.88 86.54 59.57 88.92 56.62 89.17 56.31 91.54 53.36 91.79 53.05 93.92 50.4 91.83 49.17 91.49 48.98 88.2 47.07 87.87 46.88 84.59 44.97 84.25 44.78 80.97 42.87 80.64 42.67 77.36 40.77 77.02 40.57 73.74 38.67 73.4 38.46 70.12 36.57 69.78 36.36 66.5 34.46 66.31 34.35 27.64 82.43"/><path class="cls-15" d="M27.64,82.43h0l2.16-2.66,3.28,1.89-2.16,2.67.34.19,2.16-2.66,3.28,1.9-2.16,2.67.34.2L37.06,84l3.28,1.9-2.18,2.69.35.19,2.17-2.69L44,88l-2.19,2.7.35.2,2.17-2.7L47.59,90,45.4,92.75l.35.2,2.18-2.7,3.28,1.89L49,94.85l.34.2,2.2-2.71,3.28,1.9L52.63,97l.35.2,2.2-2.72,2.27,1.31.25-.31-2.27-1.3,2.39-2.95,2.25,1.3.25-.31-2.26-1.3,2.39-2.94,2.24,1.29.25-.31-2.24-1.3,2.38-2.94L65.32,86l.25-.31-2.23-1.29,2.38-2.94,2.22,1.28.25-.3L66,81.11l2.38-3,2.21,1.28.25-.31L68.6,77.86l2.39-3,2.19,1.27.26-.31-2.21-1.26,2.39-3,2.18,1.26.25-.31-2.18-1.26,2.39-2.94,2.17,1.25.25-.31L76.51,68.1l2.38-2.95,2.16,1.25.25-.31-2.16-1.25,2.38-2.94,2.16,1.24.24-.31-2.15-1.24,2.39-2.94,2.13,1.23.25-.31-2.13-1.23,2.39-3,2.12,1.23.25-.31-2.12-1.23,2.38-2.94,2.11,1.22.25-.31-2.11-1.22,2.15-2.66L91.49,49l-2.16,2.65-3.28-1.89,2.16-2.67-.34-.19-2.16,2.66-3.28-1.89L84.59,45l-.34-.19-2.16,2.67-3.29-1.9L81,42.87l-.33-.2-2.18,2.69-3.28-1.9,2.18-2.69-.34-.2-2.19,2.7-3.27-1.9,2.18-2.7-.34-.21-2.19,2.71-3.28-1.89,2.19-2.71-.34-.21-2.2,2.71L64.3,37.18l2.2-2.72-.19-.11Zm7.43-9.15,3.29,1.89L36,78.11l-3.28-1.89Zm32.6-14.6-2.38,2.94L62,59.73l2.39-2.95Zm-3-2.2L67,53.53l3.28,1.89-2.39,2.94Zm.4,5.45-2.39,2.95L59.37,63,61.75,60ZM62.4,65.18,60,68.13l-3.28-1.9,2.38-2.94Zm-2.63,3.25-2.39,2.95-3.27-1.9,2.38-2.94Zm-2.63,3.25-2.39,2.95-3.28-1.9,2.38-2.93ZM54.5,74.94l-2.38,2.94L48.83,76l2.39-2.94Zm-6,.85-3.28-1.9L47.59,71l3.29,1.88Zm-.64-5.15,2.38-2.94,3.28,1.89-2.38,3Zm2.63-3.25,2.38-3,3.28,1.9-2.38,3Zm2.63-3.25,2.38-3,3.29,1.9-2.39,3Zm2.63-3.25,2.39-3,3.29,1.9L59,62.78Zm2.64-3.25,2.39-3,3.28,1.9-2.39,2.93ZM61,54.38l2.38-2.94,3.28,1.89L64.3,56.27Zm2.63-3.26L66,48.18l3.28,1.89-2.38,3Zm6-.84,3.28,1.89-2.39,2.94-3.27-1.89Zm3.63,2.09,3.27,1.89L74.18,57.2,70.9,55.31Zm.64,5.15-2.38,2.94-3.29-1.89,2.39-3ZM71.3,60.77l-2.39,2.95-3.28-1.9,2.38-3ZM68.66,64l-2.39,3L63,65.07l2.38-2.94ZM66,67.27l-2.39,3-3.28-1.9,2.39-2.94Zm-2.64,3.26L61,73.47l-3.28-1.89,2.39-2.94Zm-2.63,3.25-2.38,2.94-3.29-1.89,2.38-2.94ZM58.13,77,55.74,80l-3.28-1.88,2.38-3Zm-2.64,3.25L53.1,83.23l-3.27-1.89,2.38-3Zm-6,.85L46.2,79.25l2.38-3,3.28,1.9ZM45.85,79l-3.28-1.89L45,74.21l3.28,1.89ZM42.23,77,39,75.06l2.38-2.94L44.62,74Zm-.65-5.15L44,68.86l3.28,1.89-2.38,3Zm2.64-3.25,2.38-3,3.28,1.9-2.38,3Zm2.63-3.25,2.39-2.95,3.27,1.9-2.38,3Zm2.63-3.25,2.39-2.95L55.16,61l-2.39,2.94Zm2.64-3.25,2.39-2.95,3.28,1.9-2.38,2.93Zm2.64-3.26,2.38-2.94,3.28,1.89L58,57.43Zm2.63-3.26,2.38-2.94,3.28,1.89-2.38,3ZM60,49l2.39-2.94L65.69,48l-2.39,3Zm2.63-3.25,2.39-3,3.29,1.9-2.39,3Zm6-.85L72,46.82l-2.39,3-3.28-1.9ZM72.29,47l3.28,1.89-2.38,3L69.91,50Zm3.63,2.09L79.2,51,76.81,54l-3.28-1.89Zm3.62,2.1,3.28,1.89-2.38,2.95-3.28-1.9Zm.65,5.15L77.81,59.3l-3.29-1.89,2.39-2.95Zm-2.63,3.25-2.38,3-3.29-1.9,2.38-2.95Zm-2.64,3.25-2.39,3-3.27-1.9L71.64,61Zm-2.63,3.25-2.39,3-3.28-1.9L69,64.22Zm-2.64,3.26-2.38,2.94L64,70.42l2.38-3ZM67,72.62l-2.38,2.94-3.29-1.89,2.39-2.94Zm-2.63,3.26L62,78.81l-3.28-1.88,2.38-3Zm-2.64,3.25-2.39,2.94-3.27-1.89,2.38-3Zm-2.64,3.25-2.38,3-3.28-1.9,2.39-3Zm-2.63,3.25-2.38,3-3.29-1.9,2.39-2.94Zm-6,.86-3.28-1.9,2.39-3,3.28,1.9Zm-3.62-2.1L43.57,82.5l2.38-3,3.28,1.9ZM43.22,82.3l-3.28-1.89,2.38-3,3.28,1.9Zm-3.63-2.09-3.28-1.9,2.39-2.94L42,77.26ZM37.71,70,41,71.91l-2.38,3L35.32,73Zm2.64-3.26,3.27,1.9-2.38,3L38,69.71ZM43,63.51l3.28,1.9-2.39,2.94-3.28-1.89Zm2.63-3.25,3.28,1.9L46.51,65.1l-3.28-1.89ZM48.24,57l3.29,1.9-2.38,2.94L45.86,60Zm2.64-3.25,3.28,1.89-2.38,2.94L48.5,56.7Zm2.64-3.25,3.27,1.88-2.38,3-3.28-1.9Zm2.63-3.26,3.28,1.89-2.39,3-3.28-1.9ZM58.78,44l3.29,1.9-2.39,3-3.28-1.9Zm2.64-3.25,3.28,1.9-2.38,2.94L59,43.69Zm5.91-1.35L65,42.33l-3.28-1.89,2.38-2.95ZM71,41.48l-2.38,3-3.29-1.9,2.39-3Zm3.63,2.09-2.39,3-3.29-1.9,2.39-2.95Zm3.62,2.09-2.38,3-3.29-1.9,2.38-2.94Zm3.63,2.1L79.45,50.7l-3.28-1.89,2.38-3Zm3.62,2.09-2.39,2.94L79.79,50.9,82.18,48Zm1.24,5L83.42,53l2.38-3,3.28,1.9Zm-2.63,3.25-3.28-1.89,2.38-3,3.28,1.89ZM81.43,61.4l-3.28-1.9,2.38-3,3.29,1.9ZM78.8,64.65l-3.29-1.9,2.39-2.94,3.28,1.89ZM76.16,67.9,72.88,66l2.39-2.94L78.54,65Zm-2.63,3.25-3.28-1.89,2.38-3,3.28,1.9ZM70.9,74.4l-3.29-1.89L70,69.57l3.28,1.89Zm-2.64,3.26L65,75.77l2.38-3,3.29,1.9Zm-2.64,3.25L62.34,79l2.39-3L68,78ZM63,84.17l-3.28-1.9,2.39-3,3.27,1.9Zm-2.63,3.25-3.28-1.9,2.38-2.94,3.28,1.89Zm-2.63,3.25-3.29-1.9,2.38-2.94,3.29,1.89ZM51.81,92l2.38-2.94L57.47,91l-2.39,2.94Zm-3.63-2.1L50.56,87l3.29,1.88-2.38,3Zm-3.63-2.09,2.39-2.94,3.28,1.89-2.38,2.95Zm-3.62-2.09,2.39-3,3.28,1.9-2.39,3Zm-3.62-2.09,2.38-3L43,82.61l-2.38,2.94Zm-3.63-2.09,2.39-2.95,3.27,1.9L37,83.46Zm-3.62-2.1,2.38-2.94,3.28,1.89-2.39,3Z"/><path class="cls-21" d="M66.69,36.38,91.56,50.83,54.87,96.44,30,82,66.69,36.38m-.38-2L27.63,82.43l27.62,16L93.92,50.39l-27.61-16Z"/><path class="cls-22" d="M66.69,36.38,91.56,50.83,54.87,96.44,30,82,66.69,36.38"/><polygon class="cls-23" points="55.25 98.47 56.08 99.66 28.47 83.61 27.63 82.43 55.25 98.47"/></g><g class="cls-6"><polygon class="cls-24" points="121.53 66.39 122.37 67.57 83.69 115.65 82.85 114.47 121.53 66.39"/><polygon class="cls-25" points="55.24 98.42 55.26 98.43 58.53 100.34 58.88 100.53 62.16 102.44 62.49 102.64 65.77 104.54 66.11 104.74 69.39 106.64 69.73 106.85 73.01 108.74 73.35 108.95 76.63 110.85 76.96 111.05 80.24 112.95 80.58 113.15 82.86 114.47 85.06 111.74 85.31 111.43 87.67 108.48 87.93 108.16 90.3 105.22 90.55 104.91 92.92 101.96 93.18 101.64 95.55 98.7 95.79 98.39 98.17 95.44 98.42 95.13 100.79 92.18 101.04 91.87 103.41 88.92 103.66 88.61 106.03 85.65 106.28 85.35 108.66 82.39 108.91 82.09 111.28 79.14 111.53 78.83 113.9 75.88 114.15 75.57 116.53 72.61 116.78 72.31 119.15 69.36 119.4 69.05 121.53 66.39 119.43 65.17 119.09 64.97 115.81 63.07 115.47 62.88 112.2 60.97 111.86 60.78 108.58 58.87 108.24 58.67 104.97 56.76 104.62 56.57 101.35 54.66 101 54.46 97.73 52.56 97.38 52.36 94.11 50.46 93.92 50.35 55.24 98.42"/><path class="cls-15" d="M55.24,98.42h0l2.15-2.65,3.29,1.89-2.16,2.67.34.19L61,97.87l3.29,1.89-2.17,2.68.34.2L64.66,100l3.29,1.9-2.18,2.68.34.2,2.18-2.69,3.28,1.9-2.18,2.69.34.21,2.18-2.7L75.19,106,73,108.74l.34.21,2.19-2.71,3.28,1.9-2.19,2.71.33.2,2.21-2.71,3.28,1.89L80.24,113l.34.2,2.21-2.72,2.27,1.31.25-.31L83,110.12l2.39-2.94,2.25,1.3.25-.32-2.26-1.3,2.39-2.93,2.24,1.29.25-.32-2.24-1.29,2.38-2.94L92.92,102l.26-.31-2.24-1.29,2.38-3,2.23,1.29.24-.31-2.21-1.28,2.38-3,2.21,1.28.25-.31-2.21-1.27,2.39-3,2.19,1.27.25-.31-2.2-1.26,2.39-3,2.18,1.26.25-.31-2.18-1.26,2.38-2.94L106,85.65l.25-.3-2.17-1.26,2.39-2.94,2.16,1.24.25-.3-2.16-1.25,2.38-2.94,2.15,1.24.25-.31-2.15-1.24,2.39-3,2.13,1.24.25-.31L112,74.34l2.39-3,2.13,1.22.25-.3-2.13-1.23L117,68.14l2.12,1.22.25-.31-2.11-1.22,2.14-2.66L119.1,65l-2.16,2.65-3.28-1.89,2.15-2.67-.33-.19-2.17,2.66L110,63.64,112.2,61l-.34-.19-2.17,2.67-3.28-1.9,2.17-2.68-.34-.2-2.18,2.69-3.28-1.9,2.19-2.7-.35-.19-2.18,2.69-3.28-1.89,2.19-2.71-.35-.2-2.18,2.7-3.29-1.88,2.2-2.72-.35-.2-2.19,2.71-3.28-1.89,2.2-2.72-.19-.11Zm7.44-9.15L66,91.17l-2.38,2.94L60.3,92.22Zm32.6-14.59-2.39,2.93-3.28-1.88,2.39-3Zm-3-2.21,2.39-2.94,3.29,1.89-2.39,2.94Zm.4,5.46-2.38,2.94L87,79l2.38-3ZM90,81.18l-2.38,2.95-3.29-1.9,2.39-3Zm-2.63,3.25L85,87.38l-3.28-1.9,2.38-3Zm-2.64,3.25-2.39,2.95-3.28-1.9,2.39-2.94ZM82.1,90.94l-2.38,2.94L76.44,92l2.39-2.94Zm-6,.85-3.27-1.9L75.2,87l3.28,1.89Zm-.64-5.15,2.38-3,3.29,1.9-2.39,3Zm2.63-3.25,2.39-3,3.28,1.9-2.38,2.94Zm2.64-3.25,2.38-3,3.28,1.9L84,82Zm2.63-3.25,2.39-3L89,75.84l-2.39,2.94ZM86,73.63l2.38-2.94,3.29,1.89-2.39,2.94Zm2.63-3.26L91,67.44l3.28,1.88-2.38,3Zm2.64-3.25,2.38-2.94,3.28,1.89-2.38,3Zm6-.84,3.28,1.88-2.39,3-3.28-1.9Zm3.62,2.09,3.28,1.89-2.38,2.94L98.5,71.31Zm.65,5.15-2.39,2.93-3.28-1.88,2.38-2.95ZM98.9,76.77l-2.38,2.94-3.28-1.89,2.38-2.95ZM96.27,80l-2.39,3-3.27-1.9L93,78.12Zm-2.63,3.25-2.39,3L88,84.32l2.39-2.94ZM91,86.52l-2.38,3-3.29-1.9,2.39-2.94Zm-2.64,3.25-2.38,3L82.7,90.83l2.38-2.94ZM85.73,93,83.35,96l-3.28-1.89,2.38-2.94ZM83.1,96.29l-2.39,2.94-3.28-1.89,2.39-3Zm-6,.85-3.28-1.9,2.38-2.94,3.28,1.89ZM73.46,95l-3.28-1.89,2.39-2.94,3.28,1.89ZM69.83,93l-3.27-1.89,2.38-3L72.22,90Zm-.64-5.15,2.38-2.94,3.29,1.89-2.39,3Zm2.63-3.25,2.39-3,3.28,1.9-2.38,2.94Zm2.64-3.25,2.39-3,3.27,1.9-2.38,2.94ZM77.09,78l2.39-2.94L82.76,77l-2.39,3Zm2.64-3.25,2.38-2.94,3.28,1.89L83,76.68Zm2.63-3.26,2.38-2.93L88,70.48l-2.38,3ZM85,68.28l2.38-2.94,3.28,1.89-2.38,3ZM87.63,65l2.39-3L93.29,64l-2.38,3Zm2.63-3.25,2.39-3,3.28,1.9-2.39,2.94Zm6-.86,3.27,1.9-2.38,2.95-3.28-1.9ZM99.9,63l3.28,1.89-2.38,3L97.52,66Zm3.63,2.09L106.81,67l-2.39,3-3.28-1.9Zm3.62,2.1,3.28,1.89L108.05,72l-3.29-1.89Zm.65,5.15-2.39,2.93-3.28-1.88,2.38-3Zm-2.64,3.25-2.38,2.94L99.5,76.66l2.38-3Zm-2.63,3.25-2.39,3-3.27-1.9,2.38-3ZM99.9,82.11l-2.39,3-3.28-1.9,2.39-2.94Zm-2.64,3.25-2.38,3-3.29-1.9L94,83.47Zm-2.63,3.25-2.39,3L89,89.66l2.38-2.93ZM92,91.87l-2.38,2.94-3.28-1.89L88.71,90Zm-2.63,3.26L87,98.07l-3.28-1.89,2.39-3Zm-2.64,3.25-2.38,2.94-3.29-1.89,2.39-3Zm-2.63,3.25-2.39,3-3.28-1.9,2.38-3Zm-6,.85-3.29-1.89,2.39-3,3.29,1.9Zm-3.62-2.09L71.17,98.5l2.39-3,3.28,1.9ZM70.83,98.3l-3.28-1.9,2.38-2.94,3.28,1.89ZM67.2,96.21l-3.28-1.9,2.39-2.94,3.28,1.89ZM65.31,86l3.29,1.89-2.39,3L62.93,89ZM68,82.76l3.28,1.9L68.85,87.6l-3.29-1.89Zm2.64-3.25,3.28,1.9-2.39,2.94L68.2,82.46Zm2.63-3.25,3.28,1.89L74.11,81.1l-3.27-1.9ZM75.85,73l3.28,1.89-2.38,2.95L73.47,76Zm2.63-3.25,3.29,1.88-2.38,3L76.1,72.7Zm2.64-3.26,3.28,1.89-2.38,3-3.29-1.9Zm2.64-3.26L87,65.14l-2.39,3-3.28-1.9ZM86.39,60l3.28,1.9-2.39,2.94L84,62.94ZM89,56.74l3.29,1.9-2.39,2.94-3.28-1.89Zm5.92-1.36-2.38,2.94-3.29-1.89,2.39-2.94Zm3.63,2.1-2.39,2.94L92.9,58.53l2.38-3Zm3.62,2.09-2.39,3-3.28-1.9,2.39-2.95Zm3.62,2.09-2.38,3-3.28-1.9,2.38-3Zm3.63,2.09-2.39,3-3.27-1.9,2.38-2.94Zm3.63,2.1-2.39,2.94L107.4,66.9l2.39-3Zm1.24,5L111,69,113.41,66l3.28,1.9Zm-2.63,3.26-3.29-1.89,2.38-3,3.29,1.89ZM109,77.39l-3.27-1.89,2.38-3,3.28,1.9Zm-2.63,3.26-3.28-1.9,2.39-3,3.28,1.9Zm-2.63,3.25L100.49,82l2.39-2.94L106.15,81Zm-2.63,3.25-3.29-1.9,2.39-2.94,3.28,1.89ZM98.5,90.4l-3.28-1.89,2.38-2.94,3.29,1.89Zm-2.64,3.25-3.27-1.89L95,88.82l3.28,1.89Zm-2.63,3.26L90,95l2.39-3L95.62,94Zm-2.63,3.25-3.29-1.89,2.39-3L93,97.22ZM88,103.42l-3.28-1.9,2.38-3,3.29,1.9Zm-2.63,3.25-3.28-1.9,2.38-2.94,3.28,1.89ZM79.42,108l2.38-2.93L85.08,107l-2.39,3Zm-3.63-2.09L78.17,103l3.28,1.89-2.38,3Zm-3.63-2.09,2.39-3,3.28,1.9-2.39,2.95Zm-3.62-2.09,2.38-3,3.29,1.9-2.39,2.94Zm-3.63-2.09,2.39-3,3.28,1.9-2.38,2.94Zm-3.62-2.1,2.39-2.94L67,96.51l-2.38,2.95Zm-3.62-2.09,2.38-3,3.28,1.9-2.39,3Z"/><path class="cls-26" d="M94.3,52.38l24.87,14.45L82.48,112.44,57.6,98,94.3,52.38m-.38-2L55.24,98.42l27.61,16,38.68-48.08-27.61-16Z"/><path class="cls-27" d="M94.3,52.38l24.87,14.45L82.48,112.44,57.6,98,94.3,52.38"/><polygon class="cls-28" points="82.85 114.47 83.69 115.65 56.08 99.61 55.24 98.42 82.85 114.47"/></g><g class="cls-6"><polygon class="cls-29" points="149.16 82.37 150 83.54 111.32 131.63 110.49 130.45 149.16 82.37"/><polygon class="cls-30" points="82.88 114.4 82.89 114.41 86.17 116.31 86.51 116.51 89.79 118.41 90.13 118.62 93.4 120.52 93.75 120.72 97.02 122.62 97.37 122.83 100.64 124.72 100.99 124.92 104.26 126.83 104.6 127.03 107.87 128.93 108.22 129.13 110.49 130.45 112.69 127.71 112.94 127.41 115.31 124.45 115.56 124.14 117.93 121.19 118.19 120.88 120.56 117.94 120.81 117.62 123.18 114.68 123.43 114.37 125.8 111.42 126.05 111.1 128.43 108.16 128.68 107.84 131.04 104.9 131.29 104.58 133.67 101.63 133.92 101.32 136.29 98.37 136.54 98.06 138.92 95.12 139.16 94.81 141.53 91.86 141.78 91.55 144.16 88.59 144.41 88.29 146.78 85.33 147.03 85.03 149.17 82.37 147.07 81.15 146.73 80.95 143.45 79.05 143.11 78.85 139.83 76.95 139.49 76.75 136.21 74.85 135.88 74.64 132.6 72.74 132.26 72.55 128.98 70.64 128.64 70.44 125.36 68.54 125.02 68.34 121.74 66.43 121.55 66.32 82.88 114.4"/><path class="cls-15" d="M147.07,81.15l-.34-.2-2.16,2.66-3.28-1.9,2.16-2.66-.34-.2L141,81.52l-3.28-1.9L139.83,77l-.34-.2-2.16,2.67L134,77.53l2.17-2.68-.33-.21-2.18,2.69-3.28-1.89,2.18-2.7-.34-.2-2.19,2.7-3.27-1.9,2.18-2.7-.34-.2-2.19,2.7-3.28-1.89,2.19-2.71-.34-.2-2.2,2.71-3.28-1.9,2.2-2.72-.19-.11L82.88,114.4h0l2.16-2.66,3.28,1.9-2.16,2.66.34.2,2.16-2.66L92,115.74l-2.16,2.67.34.21,2.17-2.68,3.28,1.89-2.18,2.69.35.2L95.92,118l3.29,1.9L97,122.62l.35.2,2.17-2.69,3.29,1.89-2.19,2.7.35.2,2.18-2.7,3.29,1.9-2.2,2.71.34.19,2.2-2.71,3.28,1.9-2.21,2.72.35.19,2.2-2.71,2.27,1.3.25-.3-2.27-1.31,2.39-2.95,2.25,1.3.25-.31-2.26-1.3,2.39-2.94,2.24,1.3.25-.32-2.24-1.29,2.39-3,2.23,1.3.25-.32-2.23-1.28,2.38-3,2.22,1.29.25-.31-2.22-1.28,2.38-3,2.21,1.28.25-.32-2.21-1.27,2.39-2.94,2.2,1.27.25-.32-2.21-1.26,2.39-2.94L131,104.9l.25-.32-2.17-1.26,2.38-2.94,2.17,1.25.25-.31-2.17-1.25,2.38-2.95,2.16,1.25.25-.31-2.16-1.24,2.38-2.95,2.16,1.25.24-.31L137,93.57l2.39-2.95,2.13,1.24.26-.31-2.14-1.23L142,87.37l2.12,1.22.25-.3-2.12-1.23,2.38-2.94,2.11,1.21L147,85l-2.11-1.23Zm-9.65-1.22,3.28,1.89-2.39,3L135,82.87Zm-30.71,24.78,2.39-2.94,3.28,1.89-2.39,3Zm3,2.21-2.38,2.94L104.07,108l2.39-3Zm-.39-5.46,2.38-2.95,3.28,1.9-2.39,2.94ZM112,98.21l2.38-2.95,3.28,1.9-2.38,2.94ZM114.61,95,117,92l3.29,1.89-2.39,2.95Zm2.63-3.25,2.39-2.94,3.28,1.89-2.38,2.94Zm2.64-3.25,2.39-3,3.28,1.89-2.39,3Zm2.64-3.26,2.38-2.94,3.28,1.89-2.39,3Zm-.35-.19-3.28-1.9,2.38-2.95,3.29,1.9Zm-.25.3-2.38,3-3.28-1.9,2.38-2.94Zm-2.63,3.26L116.9,91.5l-3.28-1.89,2.39-3Zm-2.63,3.25-2.39,3L111,92.86l2.39-2.94ZM114,95.06l-2.39,3-3.28-1.9,2.38-2.94Zm-2.64,3.26L109,101.26l-3.28-1.89,2.38-3Zm-2.63,3.25-2.38,2.94-3.28-1.89,2.38-3Zm-2.63,3.25-2.39,3-3.28-1.9,2.39-2.94Zm-2.63,3.26L101.1,111l-3.29-1.89,2.39-2.95Zm.33.19,3.29,1.9-2.39,3-3.28-1.9Zm3.63,2.1,3.28,1.89-2.39,2.95-3.27-1.9Zm.25-.31,2.38-3,3.29,1.9L111,112Zm2.63-3.25,2.39-3,3.28,1.89-2.38,3Zm2.64-3.26,2.39-2.94,3.27,1.89-2.38,3Zm2.63-3.25,2.39-3,3.28,1.9-2.39,2.94Zm2.64-3.25,2.38-3L123.9,96l-2.39,2.94Zm2.63-3.26,2.38-2.94,3.29,1.89-2.38,3Zm2.64-3.25,2.38-2.94,3.28,1.89-2.38,2.94Zm2.63-3.26,2.39-2.93,3.27,1.88-2.38,3ZM128.77,84l2.39-2.94L134.44,83l-2.39,3Zm-.34-.19-3.28-1.9,2.38-3,3.29,1.9Zm-3.62-2.1-3.29-1.89,2.39-2.95,3.28,1.9Zm-3.63-2.09-3.29-1.89,2.39-3,3.29,1.9Zm-.25.31-2.38,2.94L115.26,81l2.39-3Zm-2.64,3.25-2.38,3-3.28-1.9,2.38-3Zm-2.63,3.25-2.38,3L110,87.51l2.38-2.94ZM113,89.72l-2.38,2.94-3.29-1.89,2.39-3ZM110.4,93l-2.39,3L104.72,94l2.39-2.94Zm-2.64,3.25-2.39,3-3.28-1.9,2.39-2.94Zm-2.64,3.26-2.38,2.94-3.28-1.89,2.38-3Zm-2.63,3.25-2.38,2.94-3.28-1.89,2.38-2.94ZM99.86,106l-2.39,2.94L94.19,107l2.38-3Zm-2.63,3.26-2.39,2.94-3.29-1.89,2.39-3Zm.33.19,3.28,1.9-2.38,3-3.28-1.9Zm3.63,2.1,3.28,1.89-2.38,3-3.28-1.9Zm3.63,2.09,3.28,1.89-2.39,2.95-3.28-1.9Zm3.62,2.09,3.28,1.9-2.38,2.94-3.28-1.89Zm.25-.31,2.39-2.94,3.27,1.89-2.38,3Zm2.64-3.25,2.38-2.94L117,111.1l-2.39,3ZM114,108.9l2.38-2.94,3.29,1.89-2.39,2.94Zm2.63-3.26L119,102.7l3.28,1.89-2.38,3Zm2.64-3.25,2.38-3,3.28,1.9-2.38,3Zm2.63-3.25,2.39-3,3.28,1.9L125.14,101Zm2.64-3.25,2.38-3,3.29,1.9-2.39,2.94Zm2.63-3.26,2.38-2.94,3.29,1.9-2.38,2.94Zm2.64-3.25,2.38-2.94,3.28,1.89-2.38,2.94Zm2.63-3.26,2.38-2.93,3.28,1.88-2.38,3Zm1.39-8.29,3.29,1.9-2.39,3-3.28-1.9Zm-3.62-2.09,3.28,1.9-2.38,2.94-3.29-1.89Zm-3.62-2.09,3.28,1.9-2.39,2.94-3.28-1.89Zm-3.63-2.09,3.28,1.89-2.38,3-3.28-1.9Zm-3.63-2.09,3.28,1.89-2.38,2.94-3.28-1.89Zm-2.63,3.25,3.28,1.89-2.38,3-3.29-1.9ZM114,76l3.29,1.9-2.39,2.94-3.28-1.89Zm-2.63,3.25,3.28,1.9-2.39,2.94L109,82.17Zm-2.63,3.26L112,84.37l-2.38,2.94-3.28-1.89Zm-2.64,3.25,3.28,1.89L107,90.57l-3.28-1.89ZM103.49,89l3.28,1.9-2.38,3-3.29-1.9Zm-2.64,3.26,3.29,1.89-2.39,3-3.28-1.9Zm-2.63,3.25,3.28,1.89-2.39,3-3.28-1.9Zm-2.63,3.25,3.27,1.89-2.38,3-3.28-1.9ZM93,102l3.28,1.89-2.38,2.94-3.29-1.89Zm-2.64,3.25,3.29,1.9-2.38,2.93-3.29-1.88Zm-1.74,8.09-3.27-1.89,2.38-3L91,110.4Zm3.63,2.1-3.28-1.9,2.39-3,3.27,1.9Zm3.63,2.09-3.28-1.9,2.38-2.94,3.28,1.89Zm3.62,2.09-3.27-1.9,2.38-2.94,3.28,1.89Zm3.63,2.09-3.28-1.89,2.38-2.95,3.28,1.9Zm3.63,2.09-3.29-1.89L105.8,119l3.29,1.89Zm3.62,2.1-3.28-1.9,2.38-2.94,3.29,1.89Zm2.64-3.26-3.29-1.89,2.39-3,3.28,1.9Zm2.63-3.25-3.28-1.89,2.38-3,3.28,1.9Zm2.63-3.25L115,114.25l2.39-3,3.27,1.9Zm2.63-3.25-3.28-1.9,2.39-2.94,3.28,1.89Zm2.64-3.26-3.28-1.89,2.38-2.94,3.29,1.89Zm2.64-3.25-3.29-1.9,2.39-2.94,3.28,1.89Zm2.63-3.25-3.28-1.9,2.38-3,3.28,1.9Zm2.63-3.26L128.12,98l2.39-3,3.28,1.9ZM134,96.62l-3.29-1.89,2.39-3,3.29,1.9Zm2.63-3.25-3.28-1.89,2.39-3,3.28,1.9Zm2.64-3.26L136,88.22l2.38-2.94,3.28,1.89Zm2.63-3.25L138.66,85,141,82l3.28,1.89Z"/><path class="cls-31" d="M121.55,66.32,82.88,114.4l27.61,16,38.67-48.08Zm-11.44,62.1L85.24,114l36.69-45.61L146.8,82.81Z"/><path class="cls-32" d="M110.11,128.42,85.24,114l36.69-45.61L146.8,82.81Z"/><path class="cls-33" d="M122,68.68l24.43,14.2-36.37,45.21-24.43-14.2L122,68.68m-.06-.33L85.24,114l24.87,14.46L146.8,82.81,121.93,68.35Z"/><polygon class="cls-34" points="110.49 130.45 111.32 131.63 83.71 115.58 82.88 114.4 110.49 130.45"/></g></g></g></g></svg>