<?xml version="1.0" encoding="UTF-8"?>
<svg id="_图层_2" data-name="图层 2" xmlns="http://www.w3.org/2000/svg" xmlns:xlink="http://www.w3.org/1999/xlink" viewBox="0 0 150 150">
  <defs>
    <style>
      .cls-1 {
        fill: url(#_未命名的渐变_17);
      }

      .cls-1, .cls-2, .cls-3, .cls-4, .cls-5, .cls-6, .cls-7, .cls-8, .cls-9, .cls-10, .cls-11, .cls-12, .cls-13, .cls-14, .cls-15, .cls-16, .cls-17, .cls-18, .cls-19, .cls-20, .cls-21, .cls-22, .cls-23, .cls-24, .cls-25, .cls-26, .cls-27 {
        stroke-width: 0px;
      }

      .cls-2 {
        fill: url(#_未命名的渐变_10);
      }

      .cls-3 {
        fill: url(#_未命名的渐变_21);
      }

      .cls-4 {
        fill: url(#_未命名的渐变_78);
      }

      .cls-5 {
        fill: url(#_未命名的渐变_73);
      }

      .cls-6 {
        fill: url(#_未命名的渐变_16825-2);
      }

      .cls-7, .cls-28 {
        fill: none;
      }

      .cls-8 {
        fill: url(#_未命名的渐变_2003-2);
      }

      .cls-9 {
        fill: url(#_未命名的渐变_2003-3);
      }

      .cls-10 {
        fill: url(#_未命名的渐变_2003-4);
      }

      .cls-11 {
        fill: url(#_未命名的渐变_1827-2);
      }

      .cls-12 {
        fill: url(#_未命名的渐变_1827-3);
      }

      .cls-13 {
        fill: url(#_未命名的渐变_1827-4);
      }

      .cls-28 {
        stroke: #fff;
        stroke-miterlimit: 10;
        stroke-width: .1px;
      }

      .cls-14 {
        fill: url(#_未命名的渐变_78-2);
      }

      .cls-15 {
        fill: url(#_未命名的渐变_73-2);
      }

      .cls-16 {
        fill: url(#_未命名的渐变_10-4);
      }

      .cls-17 {
        fill: url(#_未命名的渐变_10-2);
      }

      .cls-18 {
        fill: url(#_未命名的渐变_10-3);
      }

      .cls-19 {
        fill: url(#_未命名的渐变_1827);
      }

      .cls-20 {
        fill: url(#_未命名的渐变_21-2);
      }

      .cls-21 {
        fill: url(#_未命名的渐变_21-3);
      }

      .cls-22 {
        fill: url(#_未命名的渐变_2003);
      }

      .cls-23 {
        fill: url(#_未命名的渐变_17161);
      }

      .cls-24 {
        fill: url(#_未命名的渐变_16825);
      }

      .cls-25 {
        fill: url(#_新建图案);
        opacity: .1;
      }

      .cls-29 {
        opacity: .2;
      }

      .cls-30 {
        opacity: 0;
      }

      .cls-27 {
        fill: #000714;
      }
    </style>
    <pattern id="_新建图案" data-name="新建图案" x="0" y="0" width="18.57" height="32.16" patternTransform="translate(319.29 1220.96)" patternUnits="userSpaceOnUse" viewBox="0 0 18.57 32.16">
      <g>
        <rect class="cls-7" x="0" y="0" width="18.57" height="32.16"/>
        <g>
          <g>
            <polyline class="cls-28" points="18.57 21.44 18.57 32.16 18.57 42.88"/>
            <polyline class="cls-28" points="9.29 26.8 18.57 32.16 27.85 37.51 27.85 37.52"/>
            <polyline class="cls-28" points="9.29 37.52 9.29 37.51 18.57 32.16 27.85 26.8"/>
          </g>
          <polygon class="cls-28" points="27.85 37.52 27.85 26.8 18.57 21.44 9.28 26.8 9.28 37.52 18.57 42.88 27.85 37.52"/>
        </g>
        <g>
          <g>
            <polyline class="cls-28" points="0 21.44 0 32.16 0 42.88"/>
            <polyline class="cls-28" points="-9.28 26.8 0 32.16 9.28 37.51 9.28 37.52"/>
            <polyline class="cls-28" points="-9.28 37.52 -9.28 37.51 0 32.16 9.28 26.8"/>
          </g>
          <polygon class="cls-28" points="9.28 37.52 9.28 26.8 0 21.44 -9.28 26.8 -9.28 37.52 0 42.88 9.28 37.52"/>
        </g>
        <g>
          <g>
            <polyline class="cls-28" points="18.57 10.72 27.85 16.08 37.13 21.43 37.13 21.44"/>
            <polyline class="cls-28" points="18.57 21.44 18.57 21.43 27.85 16.08 37.13 10.72"/>
          </g>
          <polygon class="cls-28" points="37.14 21.44 37.14 10.72 27.85 5.36 18.57 10.72 18.57 21.44 27.85 26.8 37.14 21.44"/>
        </g>
        <g>
          <g>
            <polyline class="cls-28" points="9.28 5.36 9.28 16.08 9.28 26.8"/>
            <polyline class="cls-28" points="0 10.72 9.28 16.08 18.56 21.43 18.56 21.44"/>
            <polyline class="cls-28" points="0 21.44 0 21.43 9.28 16.08 18.56 10.72"/>
          </g>
          <polygon class="cls-28" points="18.57 21.44 18.57 10.72 9.28 5.36 0 10.72 0 21.44 9.28 26.8 18.57 21.44"/>
        </g>
        <g>
          <g>
            <polyline class="cls-28" points="-18.56 10.72 -9.28 16.08 0 21.43 0 21.44"/>
            <polyline class="cls-28" points="-18.56 21.44 -18.56 21.43 -9.28 16.08 0 10.72"/>
          </g>
          <polygon class="cls-28" points="0 21.44 0 10.72 -9.28 5.36 -18.57 10.72 -18.57 21.44 -9.28 26.8 0 21.44"/>
        </g>
        <g>
          <g>
            <polyline class="cls-28" points="18.57 -10.72 18.57 0 18.57 10.72"/>
            <polyline class="cls-28" points="9.29 -5.36 18.57 0 27.85 5.35 27.85 5.36"/>
            <polyline class="cls-28" points="9.29 5.36 9.29 5.35 18.57 0 27.85 -5.36"/>
          </g>
          <polygon class="cls-28" points="27.85 5.36 27.85 -5.36 18.57 -10.72 9.28 -5.36 9.28 5.36 18.57 10.72 27.85 5.36"/>
        </g>
        <g>
          <g>
            <polyline class="cls-28" points="0 -10.72 0 0 0 10.72"/>
            <polyline class="cls-28" points="-9.28 -5.36 0 0 9.28 5.35 9.28 5.36"/>
            <polyline class="cls-28" points="-9.28 5.36 -9.28 5.35 0 0 9.28 -5.36"/>
          </g>
          <polygon class="cls-28" points="9.28 5.36 9.28 -5.36 0 -10.72 -9.28 -5.36 -9.28 5.36 0 10.72 9.28 5.36"/>
        </g>
      </g>
    </pattern>
    <linearGradient id="_未命名的渐变_1827" data-name="未命名的渐变 1827" x1="100.75" y1="123.92" x2="88.87" y2="112.03" gradientUnits="userSpaceOnUse">
      <stop offset="0" stop-color="#3e5268"/>
      <stop offset="1" stop-color="#556b8e"/>
    </linearGradient>
    <linearGradient id="_未命名的渐变_10" data-name="未命名的渐变 10" x1="104.74" y1="125.92" x2="131.75" y2="98.9" gradientUnits="userSpaceOnUse">
      <stop offset="0" stop-color="#263141"/>
      <stop offset="1" stop-color="#11161a"/>
    </linearGradient>
    <linearGradient id="_未命名的渐变_2003" data-name="未命名的渐变 2003" x1="87.87" y1="107.46" x2="134.75" y2="107.46" gradientUnits="userSpaceOnUse">
      <stop offset="0" stop-color="#7a98cc"/>
      <stop offset=".04" stop-color="#6983af"/>
      <stop offset=".1" stop-color="#576c8f"/>
      <stop offset=".17" stop-color="#475874"/>
      <stop offset=".24" stop-color="#3b485e"/>
      <stop offset=".33" stop-color="#313c4d"/>
      <stop offset=".43" stop-color="#2a3441"/>
      <stop offset=".58" stop-color="#272f3a"/>
      <stop offset="1" stop-color="#262e39"/>
    </linearGradient>
    <linearGradient id="_未命名的渐变_1827-2" data-name="未命名的渐变 1827" x1="99.59" y1="119.74" x2="90.69" y2="110.85" xlink:href="#_未命名的渐变_1827"/>
    <linearGradient id="_未命名的渐变_10-2" data-name="未命名的渐变 10" x1="102.12" y1="122.23" x2="129.94" y2="94.41" xlink:href="#_未命名的渐变_10"/>
    <linearGradient id="_未命名的渐变_2003-2" data-name="未命名的渐变 2003" x1="90.67" y1="103.89" x2="132.46" y2="103.89" xlink:href="#_未命名的渐变_2003"/>
    <linearGradient id="_未命名的渐变_1827-3" data-name="未命名的渐变 1827" x1="45.39" y1="90.81" x2="33.5" y2="78.93" xlink:href="#_未命名的渐变_1827"/>
    <linearGradient id="_未命名的渐变_10-3" data-name="未命名的渐变 10" x1="49.38" y1="92.81" x2="76.39" y2="65.8" xlink:href="#_未命名的渐变_10"/>
    <linearGradient id="_未命名的渐变_2003-3" data-name="未命名的渐变 2003" x1="32.51" y1="74.36" x2="79.39" y2="74.36" xlink:href="#_未命名的渐变_2003"/>
    <linearGradient id="_未命名的渐变_1827-4" data-name="未命名的渐变 1827" x1="41.65" y1="80.32" x2="37.9" y2="84.07" xlink:href="#_未命名的渐变_1827"/>
    <linearGradient id="_未命名的渐变_10-4" data-name="未命名的渐变 10" x1="46.76" y1="89.12" x2="74.58" y2="61.3" xlink:href="#_未命名的渐变_10"/>
    <linearGradient id="_未命名的渐变_2003-4" data-name="未命名的渐变 2003" x1="35.31" y1="70.79" x2="77.09" y2="70.79" xlink:href="#_未命名的渐变_2003"/>
    <linearGradient id="_未命名的渐变_21" data-name="未命名的渐变 21" x1="26.77" y1="16.5" x2=".75" y2="61.57" gradientUnits="userSpaceOnUse">
      <stop offset="0" stop-color="#35455c"/>
      <stop offset=".15" stop-color="#7497d0"/>
      <stop offset=".25" stop-color="#7497d0"/>
      <stop offset=".9" stop-color="#11161a"/>
      <stop offset="1" stop-color="#263141"/>
    </linearGradient>
    <linearGradient id="_未命名的渐变_16825" data-name="未命名的渐变 16825" x1="4.12" y1="61.72" x2="40.03" y2="25.81" gradientUnits="userSpaceOnUse">
      <stop offset="0" stop-color="#283140"/>
      <stop offset=".34" stop-color="#222a37"/>
      <stop offset=".9" stop-color="#14191e"/>
      <stop offset="1" stop-color="#12161a"/>
    </linearGradient>
    <linearGradient id="_未命名的渐变_21-2" data-name="未命名的渐变 21" x1="83.19" y1="51.87" x2="59.21" y2="93.41" xlink:href="#_未命名的渐变_21"/>
    <linearGradient id="_未命名的渐变_21-3" data-name="未命名的渐变 21" x1="140.44" y1="86.82" x2="117.28" y2="126.94" xlink:href="#_未命名的渐变_21"/>
    <linearGradient id="_未命名的渐变_17161" data-name="未命名的渐变 17161" x1="109.58" y1="126.01" x2="135.61" y2="80.94" gradientUnits="userSpaceOnUse">
      <stop offset="0" stop-color="#283140"/>
      <stop offset=".1" stop-color="#12161a"/>
      <stop offset=".8" stop-color="#7a98cc"/>
      <stop offset="1" stop-color="#283140"/>
    </linearGradient>
    <linearGradient id="_未命名的渐变_16825-2" data-name="未命名的渐变 16825" x1="112.95" y1="126.16" x2="148.86" y2="90.25" xlink:href="#_未命名的渐变_16825"/>
    <linearGradient id="_未命名的渐变_17" data-name="未命名的渐变 17" x1="121.95" y1="103.48" x2="145.19" y2="116.9" gradientUnits="userSpaceOnUse">
      <stop offset="0" stop-color="#182129"/>
      <stop offset=".25" stop-color="#19232c"/>
      <stop offset=".46" stop-color="#1f2a36"/>
      <stop offset=".66" stop-color="#293647"/>
      <stop offset=".84" stop-color="#364760"/>
      <stop offset="1" stop-color="#465b7c"/>
    </linearGradient>
    <linearGradient id="_未命名的渐变_73" data-name="未命名的渐变 73" x1="36.48" y1="36.82" x2="51.18" y2="36.82" gradientUnits="userSpaceOnUse">
      <stop offset="0" stop-color="#0071ed"/>
      <stop offset=".15" stop-color="#0bc9ff"/>
      <stop offset=".25" stop-color="#0bc9ff"/>
      <stop offset=".85" stop-color="#1928d3"/>
      <stop offset="1" stop-color="#0071ed"/>
    </linearGradient>
    <linearGradient id="_未命名的渐变_78" data-name="未命名的渐变 78" x1="39.59" y1="35.85" x2="48.07" y2="27.37" gradientTransform="translate(75.32 -12.31) rotate(89.84)" gradientUnits="userSpaceOnUse">
      <stop offset="0" stop-color="#6fe3ff"/>
      <stop offset="1" stop-color="#00b6ff"/>
    </linearGradient>
    <linearGradient id="_未命名的渐变_73-2" data-name="未命名的渐变 73" x1="92.15" y1="71.96" x2="106.85" y2="71.96" xlink:href="#_未命名的渐变_73"/>
    <linearGradient id="_未命名的渐变_78-2" data-name="未命名的渐变 78" x1="95.26" y1="71" x2="103.74" y2="62.52" gradientTransform="translate(165.98 -32.93) rotate(89.84)" xlink:href="#_未命名的渐变_78"/>
  </defs>
  <g id="_图层_2-2" data-name="图层 2">
    <g id="_反应器产物冷却器" data-name="反应器产物冷却器">
      <g class="cls-30">
        <rect class="cls-27" x="0" width="150" height="150"/>
        <rect id="_网格" data-name="网格" class="cls-25" x="0" width="150" height="150"/>
      </g>
      <polygon class="cls-19" points="101.76 121.04 101.75 122.92 87.86 114.9 87.87 113.03 101.76 121.04"/>
      <polygon class="cls-2" points="101.76 121.04 134.75 101.9 134.74 103.78 101.75 122.92 101.76 121.04"/>
      <polygon class="cls-22" points="87.87 113.03 120.86 93.88 134.75 101.9 101.76 121.04 87.87 113.03"/>
      <polygon class="cls-11" points="99.62 116.03 99.61 119.71 90.66 114.56 90.67 110.87 99.62 116.03"/>
      <polygon class="cls-17" points="99.62 116.03 132.46 96.92 132.45 100.6 99.61 119.71 99.62 116.03"/>
      <polygon class="cls-8" points="90.67 110.87 123.5 91.76 132.46 96.92 99.62 116.03 90.67 110.87"/>
      <polygon class="cls-12" points="46.39 87.94 46.38 89.82 32.5 81.8 32.51 79.92 46.39 87.94"/>
      <polygon class="cls-18" points="46.39 87.94 79.39 68.8 79.37 70.67 46.38 89.82 46.39 87.94"/>
      <polygon class="cls-9" points="32.51 79.92 65.5 60.78 79.39 68.8 46.39 87.94 32.51 79.92"/>
      <polygon class="cls-13" points="44.26 82.92 44.25 86.61 35.3 81.46 35.31 77.77 44.26 82.92"/>
      <polygon class="cls-16" points="44.26 82.92 77.09 63.82 77.08 67.5 44.25 86.61 44.26 82.92"/>
      <polygon class="cls-10" points="35.31 77.77 68.14 58.66 77.09 63.82 44.26 82.92 35.31 77.77"/>
      <path class="cls-3" d="m3.8,51.72c.04-.44.1-.88.16-1.33.07-.49.16-.98.25-1.47.06-.34.12-.67.2-1.01.07-.31.15-.63.23-.94.11-.44.22-.87.35-1.31.07-.25.15-.51.23-.76.15-.49.32-.98.49-1.47.07-.2.14-.4.22-.61.25-.68.52-1.35.81-2.02.03-.07.07-.15.1-.22.27-.6.55-1.2.84-1.79.09-.19.19-.37.28-.56.29-.56.58-1.11.89-1.65.06-.11.12-.22.18-.33.37-.64.76-1.27,1.16-1.89.12-.18.24-.35.35-.53.3-.45.6-.89.92-1.32.17-.23.34-.46.51-.69.27-.36.55-.71.83-1.06.24-.29.47-.59.72-.87.23-.27.47-.53.7-.79.4-.45.81-.88,1.23-1.31.26-.26.52-.53.78-.78.21-.2.41-.39.62-.58.34-.31.69-.61,1.04-.91.21-.18.42-.35.63-.52.38-.3.77-.59,1.16-.87.19-.13.37-.28.56-.41.58-.4,1.16-.77,1.75-1.11.57-.33,1.13-.61,1.69-.88.15-.07.29-.13.44-.2.31-.14.61-.25.91-.37.44-.17.87-.32,1.3-.45.27-.08.55-.16.82-.23.25-.06.51-.11.75-.16.33-.06.65-.11.98-.15.19-.02.37-.04.55-.06.4-.03.8-.04,1.19-.02.09,0,.18,0,.27,0,.47.03.92.09,1.36.17.11.02.22.05.33.08.35.08.68.18,1.01.29.1.04.21.07.31.11.42.16.82.35,1.21.57l-3.66-1.98s-.07-.04-.1-.06c-.3-.17-.61-.32-.93-.45-.06-.02-.12-.04-.18-.06-.1-.04-.21-.07-.31-.11-.16-.06-.31-.12-.48-.17-.17-.05-.35-.08-.53-.12-.11-.02-.22-.05-.33-.08-.06-.01-.12-.03-.18-.04-.36-.06-.73-.11-1.11-.13-.02,0-.05,0-.07,0-.09,0-.18,0-.27,0-.29,0-.58-.02-.88,0-.1,0-.2.02-.3.03-.18.01-.37.03-.55.06-.17.02-.34.02-.52.05-.15.02-.31.07-.46.1-.25.05-.5.1-.76.16-.14.03-.27.05-.41.09-.13.04-.28.1-.41.14-.43.13-.86.28-1.3.45-.15.06-.3.09-.46.16-.15.06-.3.14-.45.21-.15.07-.29.13-.44.2-.56.26-1.12.55-1.69.88-.59.34-1.18.72-1.75,1.11-.19.13-.37.27-.56.41-.39.28-.77.57-1.15.87-.21.17-.42.35-.63.52-.35.29-.7.6-1.04.91-.21.19-.42.38-.62.58-.13.12-.26.23-.38.36-.14.13-.26.28-.39.42-.42.42-.82.86-1.23,1.31-.13.14-.26.27-.39.41-.11.12-.21.26-.31.38-.24.29-.48.58-.72.87-.15.19-.31.37-.46.56-.13.16-.24.33-.37.5-.17.23-.34.46-.51.7-.11.16-.23.31-.35.47-.19.28-.38.56-.57.85-.12.18-.24.35-.35.53-.05.07-.1.14-.14.22-.33.51-.65,1.03-.95,1.56-.02.04-.04.07-.06.11-.06.11-.12.22-.19.34-.21.37-.42.73-.62,1.11-.09.18-.18.36-.27.54-.09.18-.19.37-.28.55-.08.16-.16.31-.24.47-.21.43-.41.87-.6,1.31-.03.08-.07.15-.11.23,0,.02-.02.04-.03.06-.24.55-.46,1.1-.68,1.65-.04.1-.07.21-.11.31-.08.2-.15.41-.22.61-.1.27-.2.55-.29.82-.07.22-.13.43-.2.65-.08.25-.16.51-.23.76-.05.16-.1.31-.14.47-.08.28-.14.56-.21.85-.08.31-.16.63-.23.94-.02.11-.06.22-.08.33-.05.23-.07.45-.12.68-.09.49-.18.98-.25,1.47-.02.13-.05.27-.07.41-.04.31-.06.61-.09.92-.02.22-.05.43-.06.65C.03,51.07,0,51.75,0,52.42c.02,5.81,2.07,9.9,5.38,11.82l3.66,1.98c-3.31-1.92-5.36-6.01-5.38-11.82,0-.67.03-1.35.08-2.04.02-.21.04-.43.06-.65Z"/>
      <path class="cls-24" d="m22.01,22.6c10.18-5.88,18.45-1.15,18.48,10.53.03,11.68-8.18,25.93-18.36,31.81-10.17,5.87-18.44,1.14-18.47-10.54-.03-11.68,8.18-25.93,18.35-31.8Z"/>
      <g>
        <path class="cls-20" d="m112.56,113.97c.04-.39.09-.79.14-1.18.06-.43.14-.87.22-1.31.06-.3.11-.6.18-.9.06-.28.14-.56.21-.84.1-.39.2-.78.31-1.17.07-.23.14-.45.21-.68.14-.44.28-.88.44-1.31.06-.18.13-.36.19-.54.23-.6.47-1.21.73-1.81.03-.07.06-.13.09-.2.24-.54.49-1.07.75-1.6.08-.17.17-.33.25-.5.25-.5.52-.99.8-1.47.06-.1.11-.2.16-.29.33-.57.68-1.13,1.03-1.68.1-.16.21-.31.32-.47.27-.4.54-.79.82-1.18.15-.21.3-.41.46-.62.24-.32.49-.64.74-.95.21-.26.42-.52.64-.78.21-.24.42-.47.63-.71.36-.4.72-.79,1.09-1.17.23-.23.46-.47.7-.7.18-.18.37-.35.56-.52.31-.28.62-.55.93-.81.19-.16.37-.31.56-.46.34-.27.68-.53,1.03-.78.17-.12.33-.25.5-.36.52-.35,1.04-.69,1.56-.99.51-.29,1.01-.55,1.51-.78.13-.06.26-.12.39-.18.27-.12.54-.22.81-.33.39-.15.78-.29,1.16-.4.24-.07.49-.15.73-.2.23-.05.45-.1.67-.14.29-.06.58-.1.87-.13.17-.02.33-.04.49-.05.36-.02.71-.03,1.06-.02.08,0,.16,0,.24,0,.42.02.82.08,1.21.15.1.02.19.04.29.07.31.07.61.16.9.26.09.03.19.06.28.1.37.15.73.31,1.08.51L36.74,25.05s-.06-.03-.09-.05c-.27-.15-.54-.28-.83-.4-.05-.02-.11-.04-.16-.06-.09-.04-.19-.07-.28-.1-.14-.05-.28-.11-.43-.15-.15-.04-.32-.07-.47-.11-.1-.02-.19-.05-.29-.07-.05-.01-.1-.03-.16-.04-.32-.06-.65-.09-.99-.12-.02,0-.04,0-.06,0-.08,0-.16,0-.24,0-.26,0-.52-.02-.78,0-.09,0-.18.02-.27.03-.16.01-.33.03-.49.05-.15.02-.3.02-.46.05-.13.02-.27.06-.41.09-.22.04-.45.09-.67.14-.12.03-.24.04-.36.08-.12.03-.25.09-.37.13-.38.11-.77.25-1.16.4-.14.05-.27.08-.41.14-.13.06-.27.12-.4.18-.13.06-.26.12-.39.18-.5.23-1,.49-1.51.78-.53.31-1.05.64-1.56.99-.17.12-.33.24-.5.36-.35.25-.69.5-1.03.78-.19.15-.38.31-.56.47-.31.26-.62.53-.93.81-.19.17-.37.34-.56.52-.11.11-.23.21-.34.32-.12.12-.23.25-.35.38-.37.38-.74.77-1.09,1.16-.11.13-.24.24-.35.37-.1.11-.18.23-.28.34-.22.26-.43.52-.64.78-.14.17-.28.33-.41.5-.11.14-.22.3-.33.44-.15.21-.31.41-.46.62-.1.14-.21.28-.31.42-.17.25-.34.5-.51.76-.11.16-.21.31-.32.47-.04.06-.09.13-.13.19-.29.46-.58.92-.85,1.39-.02.03-.04.07-.06.1-.06.1-.11.2-.17.3-.19.33-.37.65-.55.99-.08.16-.16.32-.24.48-.08.16-.17.33-.25.49-.07.14-.15.28-.21.42-.19.39-.36.78-.54,1.17-.03.07-.06.14-.09.21,0,.02-.02.03-.02.05-.21.49-.41.98-.6,1.48-.04.09-.06.18-.1.27-.07.18-.13.36-.2.55-.09.24-.18.49-.26.73-.06.19-.12.39-.18.58-.07.23-.14.45-.21.68-.04.14-.09.28-.13.42-.07.25-.12.5-.18.75-.07.28-.14.56-.21.84-.02.1-.05.19-.07.29-.04.2-.06.4-.1.6-.08.44-.16.88-.23,1.31-.02.12-.05.24-.06.36-.04.27-.05.55-.08.82-.02.19-.04.39-.06.58-.05.61-.07,1.22-.07,1.82.01,5.18,1.84,8.83,4.8,10.54l103.75,61.8c-2.95-1.72-4.78-5.36-4.8-10.54,0-.6.03-1.21.07-1.82.01-.19.04-.39.06-.58Z"/>
        <path class="cls-21" d="m128.8,88c9.08-5.24,16.46-1.03,16.49,9.4.03,10.42-7.3,23.13-16.38,28.37s-16.45,1.02-16.48-9.4c-.03-10.42,7.3-23.13,16.37-28.37Z"/>
      </g>
      <g>
        <path class="cls-23" d="m112.63,116.16c.04-.44.1-.88.16-1.33.07-.49.16-.98.25-1.47.06-.34.12-.67.2-1.01.07-.31.15-.63.23-.94.11-.44.22-.87.35-1.31.07-.25.15-.51.23-.76.15-.49.32-.98.49-1.47.07-.2.14-.4.22-.61.25-.68.52-1.35.81-2.02.03-.07.07-.15.1-.22.27-.6.55-1.2.84-1.79.09-.19.19-.37.28-.56.29-.56.58-1.11.89-1.65.06-.11.12-.22.18-.33.37-.64.76-1.27,1.16-1.89.12-.18.24-.35.35-.53.3-.45.6-.89.92-1.32.17-.23.34-.46.51-.69.27-.36.55-.71.83-1.06.24-.29.47-.59.72-.87.23-.27.47-.53.7-.79.4-.45.81-.88,1.23-1.31.26-.26.52-.53.78-.78.21-.2.41-.39.62-.58.34-.31.69-.61,1.04-.91.21-.18.42-.35.63-.52.38-.3.77-.59,1.16-.87.19-.13.37-.28.56-.41.58-.4,1.16-.77,1.75-1.11.57-.33,1.13-.61,1.69-.88.15-.07.29-.13.44-.2.31-.14.61-.25.91-.37.44-.17.87-.32,1.3-.45.27-.08.55-.16.82-.23.25-.06.51-.11.75-.16.33-.06.65-.11.98-.15.19-.02.37-.04.55-.06.4-.03.8-.04,1.19-.02.09,0,.18,0,.27,0,.47.03.92.09,1.36.17.11.02.22.05.33.08.35.08.68.18,1.01.29.1.04.21.07.31.11.42.16.82.35,1.21.57l-3.66-1.98s-.07-.04-.1-.06c-.3-.17-.61-.32-.93-.45-.06-.02-.12-.04-.18-.06-.1-.04-.21-.07-.31-.11-.16-.06-.31-.12-.48-.17-.17-.05-.35-.08-.53-.12-.11-.02-.22-.05-.33-.08-.06-.01-.12-.03-.18-.04-.36-.06-.73-.11-1.11-.13-.02,0-.05,0-.07,0-.09,0-.18,0-.27,0-.29,0-.58-.02-.88,0-.1,0-.2.02-.3.03-.18.01-.37.03-.55.06-.17.02-.34.02-.52.05-.15.02-.31.07-.46.1-.25.05-.5.1-.76.16-.14.03-.27.05-.41.09-.13.04-.28.1-.41.14-.43.13-.86.28-1.3.45-.15.06-.3.09-.46.16-.15.06-.3.14-.45.21-.15.07-.29.13-.44.2-.56.26-1.12.55-1.69.88-.59.34-1.18.72-1.75,1.11-.19.13-.37.27-.56.41-.39.28-.77.57-1.15.87-.21.17-.42.35-.63.52-.35.29-.7.6-1.04.91-.21.19-.42.38-.62.58-.13.12-.26.23-.38.36-.14.13-.26.28-.39.42-.42.42-.82.86-1.23,1.31-.13.14-.26.27-.39.41-.11.12-.21.26-.31.38-.24.29-.48.58-.72.87-.15.19-.31.37-.46.56-.13.16-.24.33-.37.5-.17.23-.34.46-.51.7-.11.16-.23.31-.35.47-.19.28-.38.56-.57.85-.12.18-.24.35-.35.53-.05.07-.1.14-.14.22-.33.51-.65,1.03-.95,1.56-.02.04-.04.07-.06.11-.06.11-.12.22-.19.34-.21.37-.42.73-.62,1.11-.09.18-.18.36-.27.54-.09.18-.19.37-.28.55-.08.16-.16.31-.24.47-.21.43-.41.87-.6,1.31-.03.08-.07.15-.11.23,0,.02-.02.04-.03.06-.24.55-.46,1.1-.68,1.65-.04.1-.07.21-.11.31-.08.2-.15.41-.22.61-.1.27-.2.55-.29.82-.07.22-.13.43-.2.65-.08.25-.16.51-.23.76-.05.16-.1.31-.14.47-.08.28-.14.56-.21.85-.08.31-.16.63-.23.94-.02.11-.06.22-.08.33-.05.23-.07.45-.12.68-.09.49-.18.98-.25,1.47-.02.13-.05.27-.07.41-.04.31-.06.61-.09.92-.02.22-.05.43-.06.65-.05.69-.08,1.37-.08,2.04.02,5.81,2.07,9.9,5.38,11.82l3.66,1.98c-3.31-1.92-5.36-6.01-5.38-11.82,0-.67.03-1.35.08-2.04.02-.21.04-.43.06-.65Z"/>
        <path class="cls-6" d="m130.84,87.04c10.18-5.88,18.45-1.15,18.48,10.53.03,11.68-8.18,25.93-18.36,31.81-10.17,5.87-18.44,1.14-18.47-10.54-.03-11.68,8.18-25.93,18.35-31.8Z"/>
      </g>
      <path class="cls-1" d="m133.51,91.31c9.08-5.24,16.46-1.03,16.49,9.4s-7.3,23.13-16.38,28.37c-9.07,5.24-16.45,1.02-16.48-9.4-.03-10.42,7.3-23.13,16.37-28.37Z"/>
      <path class="cls-5" d="m51.18,31.63v6.18c-.01,1.08-.72,2.16-2.14,2.99-2.86,1.66-7.51,1.66-10.39,0-1.45-.84-2.17-1.93-2.17-3.03v-6.18c0,1.1.73,2.19,2.18,3.03,2.88,1.66,7.53,1.66,10.39,0,1.42-.83,2.13-1.91,2.13-2.99Z"/>
      <ellipse class="cls-4" cx="43.83" cy="31.61" rx="4.26" ry="7.35" transform="translate(12.1 75.35) rotate(-89.84)"/>
      <path class="cls-15" d="m106.85,66.78v6.18c-.01,1.08-.72,2.16-2.14,2.99-2.86,1.66-7.51,1.66-10.39,0-1.45-.84-2.17-1.93-2.17-3.03v-6.18c0,1.1.73,2.19,2.18,3.03,2.88,1.66,7.53,1.66,10.39,0,1.42-.83,2.13-1.91,2.13-2.99Z"/>
      <ellipse class="cls-14" cx="99.5" cy="66.76" rx="4.26" ry="7.35" transform="translate(32.46 166.07) rotate(-89.84)"/>
    </g>
  </g>
</svg>