<svg xmlns="http://www.w3.org/2000/svg" xmlns:xlink="http://www.w3.org/1999/xlink" viewBox="0 0 150 150"><defs><style>.cls-1,.cls-2{fill:none;}.cls-2{stroke:#fff;stroke-miterlimit:10;stroke-width:0.1px;}.cls-3{opacity:0;}.cls-4{fill:#000714;}.cls-5{opacity:0.1;fill:url(#新建图案);}.cls-6{fill:url(#未命名的渐变_13);}.cls-7{fill:url(#未命名的渐变_42);}.cls-8{fill:url(#未命名的渐变_107);}.cls-9{fill:url(#未命名的渐变_126);}.cls-10{opacity:0.3;}.cls-11{isolation:isolate;}.cls-12{fill:url(#未命名的渐变_168);}.cls-13{fill:url(#未命名的渐变_13-2);}.cls-14{fill:#fff;}.cls-15{fill:url(#未命名的渐变_73);}.cls-16{fill:url(#未命名的渐变_100);}.cls-17{fill:url(#未命名的渐变_107-2);}.cls-18{fill:url(#未命名的渐变_100-2);}.cls-19{fill:url(#未命名的渐变_107-3);}.cls-20{fill:url(#未命名的渐变_100-3);}.cls-21{fill:url(#未命名的渐变_107-4);}.cls-22{fill:url(#未命名的渐变_100-4);}.cls-23{fill:url(#未命名的渐变_107-5);}.cls-24{fill:url(#未命名的渐变_13-3);}.cls-25{fill:url(#未命名的渐变_42-2);}.cls-26{fill:url(#未命名的渐变_107-6);}.cls-27{fill:url(#未命名的渐变_126-2);}.cls-28{fill:url(#未命名的渐变_100-5);}.cls-29{fill:url(#未命名的渐变_17280);}.cls-30{fill:url(#未命名的渐变_100-6);}.cls-31{fill:url(#未命名的渐变_17280-2);}.cls-32{fill:url(#未命名的渐变_100-7);}.cls-33{fill:url(#未命名的渐变_17280-3);}.cls-34{fill:url(#未命名的渐变_100-8);}.cls-35{fill:url(#未命名的渐变_17280-4);}.cls-36{fill:url(#未命名的渐变_100-9);}.cls-37{fill:url(#未命名的渐变_17280-5);}.cls-38{fill:url(#未命名的渐变_100-10);}.cls-39{fill:url(#未命名的渐变_17280-6);}.cls-40{fill:url(#未命名的渐变_100-11);}.cls-41{fill:url(#未命名的渐变_17280-7);}.cls-42{fill:#13181d;}.cls-43{fill:url(#未命名的渐变_115);}.cls-44{fill:url(#未命名的渐变_113);}.cls-45{fill:url(#未命名的渐变_100-12);}.cls-46{fill:url(#未命名的渐变_168-2);}.cls-47{fill:url(#未命名的渐变_115-2);}.cls-48{fill:url(#未命名的渐变_113-2);}.cls-49{fill:url(#未命名的渐变_100-13);}.cls-50{fill:url(#未命名的渐变_168-3);}.cls-51{fill:url(#未命名的渐变_115-3);}.cls-52{fill:url(#未命名的渐变_113-3);}.cls-53{fill:url(#未命名的渐变_100-14);}.cls-54{fill:url(#未命名的渐变_168-4);}.cls-55{fill:url(#未命名的渐变_115-4);}.cls-56{fill:url(#未命名的渐变_113-4);}.cls-57{fill:url(#未命名的渐变_100-15);}.cls-58{fill:url(#未命名的渐变_168-5);}.cls-59{opacity:0.2;}</style><pattern id="新建图案" data-name="新建图案" width="18.57" height="32.16" patternTransform="translate(2422.92 790.05)" patternUnits="userSpaceOnUse" viewBox="0 0 18.57 32.16"><rect class="cls-1" width="18.57" height="32.16"/><polyline class="cls-2" points="18.57 21.44 18.57 32.16 18.57 42.88"/><polyline class="cls-2" points="9.29 26.8 18.57 32.16 27.85 37.51 27.85 37.52"/><polyline class="cls-2" points="9.29 37.52 9.29 37.51 18.57 32.16 27.85 26.8"/><polygon class="cls-2" points="27.85 37.52 27.85 26.8 18.57 21.44 9.28 26.8 9.28 37.52 18.57 42.88 27.85 37.52"/><polyline class="cls-2" points="0 21.44 0 32.16 0 42.88"/><polyline class="cls-2" points="-9.28 26.8 0 32.16 9.28 37.51 9.28 37.52"/><polyline class="cls-2" points="-9.28 37.52 -9.28 37.51 0 32.16 9.28 26.8"/><polygon class="cls-2" points="9.28 37.52 9.28 26.8 0 21.44 -9.29 26.8 -9.29 37.52 0 42.88 9.28 37.52"/><polyline class="cls-2" points="18.57 10.72 27.85 16.08 37.13 21.43 37.13 21.44"/><polyline class="cls-2" points="18.57 21.44 18.57 21.43 27.85 16.08 37.13 10.72"/><polygon class="cls-2" points="37.14 21.44 37.14 10.72 27.85 5.36 18.57 10.72 18.57 21.44 27.85 26.8 37.14 21.44"/><polyline class="cls-2" points="9.29 5.36 9.29 16.08 9.29 26.8"/><polyline class="cls-2" points="0.01 10.72 9.29 16.08 18.57 21.43 18.57 21.44"/><polyline class="cls-2" points="0.01 21.44 0.01 21.43 9.29 16.08 18.57 10.72"/><polygon class="cls-2" points="18.57 21.44 18.57 10.72 9.28 5.36 0 10.72 0 21.44 9.28 26.8 18.57 21.44"/><polyline class="cls-2" points="-18.56 10.72 -9.28 16.08 0 21.43 0 21.44"/><polyline class="cls-2" points="-18.56 21.44 -18.56 21.43 -9.28 16.08 0 10.72"/><polygon class="cls-2" points="0 21.44 0 10.72 -9.29 5.36 -18.57 10.72 -18.57 21.44 -9.29 26.8 0 21.44"/><polyline class="cls-2" points="18.57 -10.72 18.57 0 18.57 10.72"/><polyline class="cls-2" points="9.29 -5.36 18.57 0 27.85 5.35 27.85 5.36"/><polyline class="cls-2" points="9.29 5.36 9.29 5.35 18.57 0 27.85 -5.36"/><polygon class="cls-2" points="27.85 5.36 27.85 -5.36 18.57 -10.72 9.28 -5.36 9.28 5.36 18.57 10.72 27.85 5.36"/><polyline class="cls-2" points="0 -10.72 0 0 0 10.72"/><polyline class="cls-2" points="-9.28 -5.36 0 0 9.28 5.35 9.28 5.36"/><polyline class="cls-2" points="-9.28 5.36 -9.28 5.35 0 0 9.28 -5.36"/><polygon class="cls-2" points="9.28 5.36 9.28 -5.36 0 -10.72 -9.29 -5.36 -9.29 5.36 0 10.72 9.28 5.36"/></pattern><linearGradient id="未命名的渐变_13" x1="30.92" y1="10.79" x2="68.03" y2="10.79" gradientUnits="userSpaceOnUse"><stop offset="0" stop-color="#89abe6"/><stop offset="1" stop-color="#547099"/></linearGradient><linearGradient id="未命名的渐变_42" x1="44.31" y1="24.99" x2="54.64" y2="-3.39" gradientUnits="userSpaceOnUse"><stop offset="0" stop-color="#99beff"/><stop offset="0.02" stop-color="#99beff" stop-opacity="0.93"/><stop offset="0.09" stop-color="#99beff" stop-opacity="0.74"/><stop offset="0.17" stop-color="#99beff" stop-opacity="0.56"/><stop offset="0.25" stop-color="#99beff" stop-opacity="0.41"/><stop offset="0.33" stop-color="#99beff" stop-opacity="0.28"/><stop offset="0.43" stop-color="#99beff" stop-opacity="0.18"/><stop offset="0.53" stop-color="#99beff" stop-opacity="0.1"/><stop offset="0.64" stop-color="#99beff" stop-opacity="0.04"/><stop offset="0.77" stop-color="#99beff" stop-opacity="0.01"/><stop offset="1" stop-color="#99beff" stop-opacity="0"/></linearGradient><linearGradient id="未命名的渐变_107" x1="13.14" y1="100.65" x2="89.72" y2="24.07" gradientUnits="userSpaceOnUse"><stop offset="0" stop-color="#283140"/><stop offset="0.34" stop-color="#232b37"/><stop offset="0.9" stop-color="#15191f"/><stop offset="1" stop-color="#12161a"/></linearGradient><linearGradient id="未命名的渐变_126" x1="59.62" y1="97.53" x2="6.11" y2="44.01" gradientUnits="userSpaceOnUse"><stop offset="0" stop-color="#425266"/><stop offset="1" stop-color="#596b8c"/></linearGradient><linearGradient id="未命名的渐变_168" x1="89.22" y1="131.68" x2="32.51" y2="33.45" xlink:href="#未命名的渐变_126"/><linearGradient id="未命名的渐变_13-2" x1="60.78" y1="43.48" x2="85.56" y2="18.69" xlink:href="#未命名的渐变_13"/><linearGradient id="未命名的渐变_73" x1="60.29" y1="40.28" x2="62.35" y2="36.71" gradientUnits="userSpaceOnUse"><stop offset="0" stop-color="#556685"/><stop offset="1" stop-color="#89abe6"/></linearGradient><linearGradient id="未命名的渐变_100" x1="57.85" y1="84.91" x2="59.43" y2="82.18" gradientUnits="userSpaceOnUse"><stop offset="0" stop-color="#0073e6"/><stop offset="0.1" stop-color="#1433cc"/><stop offset="0.8" stop-color="#59c8ff"/><stop offset="1" stop-color="#0073e6"/></linearGradient><linearGradient id="未命名的渐变_107-2" x1="79.09" y1="96.05" x2="81.22" y2="96.05" xlink:href="#未命名的渐变_107"/><linearGradient id="未命名的渐变_100-2" x1="57.85" y1="61.72" x2="59.43" y2="59" xlink:href="#未命名的渐变_100"/><linearGradient id="未命名的渐变_107-3" x1="79.09" y1="72.87" x2="81.22" y2="72.87" xlink:href="#未命名的渐变_107"/><linearGradient id="未命名的渐变_100-3" x1="57.85" y1="106.77" x2="59.43" y2="104.04" xlink:href="#未命名的渐变_100"/><linearGradient id="未命名的渐变_107-4" x1="79.09" y1="117.91" x2="81.22" y2="117.91" xlink:href="#未命名的渐变_107"/><linearGradient id="未命名的渐变_100-4" x1="72.47" y1="29.79" x2="74.05" y2="27.06" xlink:href="#未命名的渐变_100"/><linearGradient id="未命名的渐变_107-5" x1="93.71" y1="40.93" x2="95.85" y2="40.93" xlink:href="#未命名的渐变_107"/><linearGradient id="未命名的渐变_13-3" x1="79.13" y1="38.46" x2="116.25" y2="38.46" xlink:href="#未命名的渐变_13"/><linearGradient id="未命名的渐变_42-2" x1="92.53" y1="52.65" x2="102.86" y2="24.27" xlink:href="#未命名的渐变_42"/><linearGradient id="未命名的渐变_107-6" x1="61.35" y1="128.31" x2="137.94" y2="51.73" xlink:href="#未命名的渐变_107"/><linearGradient id="未命名的渐变_126-2" x1="107.84" y1="125.19" x2="54.32" y2="71.67" xlink:href="#未命名的渐变_126"/><linearGradient id="未命名的渐变_100-5" x1="85.59" y1="77.71" x2="87.1" y2="75.1" xlink:href="#未命名的渐变_100"/><linearGradient id="未命名的渐变_17280" x1="87.19" y1="78.54" x2="89.27" y2="76.46" gradientUnits="userSpaceOnUse"><stop offset="0" stop-color="#0073e6"/><stop offset="1" stop-color="#143ccc"/></linearGradient><linearGradient id="未命名的渐变_100-6" x1="100.44" y1="45.89" x2="101.95" y2="43.28" xlink:href="#未命名的渐变_100"/><linearGradient id="未命名的渐变_17280-2" x1="102.04" y1="46.72" x2="104.11" y2="44.65" xlink:href="#未命名的渐变_17280"/><linearGradient id="未命名的渐变_100-7" x1="85.59" y1="100.89" x2="87.1" y2="98.28" xlink:href="#未命名的渐变_100"/><linearGradient id="未命名的渐变_17280-3" x1="87.19" y1="101.72" x2="89.27" y2="99.65" xlink:href="#未命名的渐变_17280"/><linearGradient id="未命名的渐变_100-8" x1="85.59" y1="122.75" x2="87.1" y2="120.14" xlink:href="#未命名的渐变_100"/><linearGradient id="未命名的渐变_17280-4" x1="87.19" y1="123.58" x2="89.27" y2="121.51" xlink:href="#未命名的渐变_17280"/><linearGradient id="未命名的渐变_100-9" x1="114.65" y1="62.31" x2="116.16" y2="59.7" xlink:href="#未命名的渐变_100"/><linearGradient id="未命名的渐变_17280-5" x1="116.25" y1="63.14" x2="118.33" y2="61.07" xlink:href="#未命名的渐变_17280"/><linearGradient id="未命名的渐变_100-10" x1="114.65" y1="85.5" x2="116.16" y2="82.89" xlink:href="#未命名的渐变_100"/><linearGradient id="未命名的渐变_17280-6" x1="116.25" y1="86.33" x2="118.33" y2="84.25" xlink:href="#未命名的渐变_17280"/><linearGradient id="未命名的渐变_100-11" x1="114.65" y1="107.36" x2="116.16" y2="104.74" xlink:href="#未命名的渐变_100"/><linearGradient id="未命名的渐变_17280-7" x1="116.25" y1="108.19" x2="118.33" y2="106.11" xlink:href="#未命名的渐变_17280"/><linearGradient id="未命名的渐变_115" x1="426.86" y1="54.51" x2="419.76" y2="42.2" gradientTransform="matrix(-1, 0, 0, 1, 532.51, 0)" gradientUnits="userSpaceOnUse"><stop offset="0" stop-color="#283140"/><stop offset="0.1" stop-color="#12161a"/><stop offset="0.8" stop-color="#7a98cc"/><stop offset="1" stop-color="#38455a"/></linearGradient><linearGradient id="未命名的渐变_113" x1="112.82" y1="57.82" x2="119.48" y2="46.28" gradientUnits="userSpaceOnUse"><stop offset="0" stop-color="#38455a"/><stop offset="0.2" stop-color="#7a98cc"/><stop offset="0.9" stop-color="#12161a"/><stop offset="1" stop-color="#283140"/></linearGradient><linearGradient id="未命名的渐变_100-12" x1="107.53" y1="57.78" x2="116.81" y2="41.71" xlink:href="#未命名的渐变_100"/><linearGradient id="未命名的渐变_168-2" x1="108.52" y1="51.44" x2="121.68" y2="51.44" xlink:href="#未命名的渐变_126"/><linearGradient id="未命名的渐变_115-2" x1="442.18" y1="63.62" x2="435.07" y2="51.31" xlink:href="#未命名的渐变_115"/><linearGradient id="未命名的渐变_113-2" x1="97.5" y1="66.93" x2="104.17" y2="55.39" xlink:href="#未命名的渐变_113"/><linearGradient id="未命名的渐变_100-13" x1="92.22" y1="66.89" x2="101.5" y2="50.82" xlink:href="#未命名的渐变_100"/><linearGradient id="未命名的渐变_168-3" x1="93.21" y1="60.55" x2="106.37" y2="60.55" xlink:href="#未命名的渐变_126"/><linearGradient id="未命名的渐变_115-3" x1="426.86" y1="131.53" x2="419.76" y2="119.22" xlink:href="#未命名的渐变_115"/><linearGradient id="未命名的渐变_113-3" x1="112.82" y1="134.83" x2="119.48" y2="123.29" xlink:href="#未命名的渐变_113"/><linearGradient id="未命名的渐变_100-14" x1="107.53" y1="134.8" x2="116.81" y2="118.73" xlink:href="#未命名的渐变_100"/><linearGradient id="未命名的渐变_168-4" x1="108.52" y1="128.46" x2="121.68" y2="128.46" xlink:href="#未命名的渐变_126"/><linearGradient id="未命名的渐变_115-4" x1="442.18" y1="140.64" x2="435.07" y2="128.33" xlink:href="#未命名的渐变_115"/><linearGradient id="未命名的渐变_113-4" x1="97.5" y1="143.95" x2="104.17" y2="132.41" xlink:href="#未命名的渐变_113"/><linearGradient id="未命名的渐变_100-15" x1="92.22" y1="143.91" x2="101.5" y2="127.84" xlink:href="#未命名的渐变_100"/><linearGradient id="未命名的渐变_168-5" x1="93.21" y1="137.57" x2="106.37" y2="137.57" xlink:href="#未命名的渐变_126"/></defs><title>板式换热器</title><g id="图层_2" data-name="图层 2"><g id="图元"><g id="板式换热器"><g class="cls-3"><rect class="cls-4" width="150" height="150"/><rect id="网格" class="cls-5" width="150" height="150"/></g><polygon class="cls-6" points="68.03 2.37 34.97 21.59 30.92 19.21 63.97 0 68.03 2.37"/><path class="cls-7" d="M64,.87l2.57,1.51L35,20.72l-2.57-1.5L64,.87M64,0l-33,19.21,4,2.38L68,2.38,64,0Z"/><polygon class="cls-8" points="68.03 2.38 68.03 4.2 67.88 103.13 34.82 122.34 34.98 23.45 34.98 21.58 68.03 2.38"/><polygon class="cls-9" points="34.97 21.58 34.97 23.45 34.82 122.33 30.76 119.96 30.91 21.18 30.91 19.21 34.97 21.58"/><g class="cls-10"><polygon points="68.03 2.38 68.03 4.2 34.98 23.45 34.55 23.2 30.91 21.19 30.91 19.21 34.98 21.58 68.03 2.38"/></g><g class="cls-11"><path class="cls-12" d="M80.64,135l-.2-83.09L40.62,28.77l.19,83.09a1.39,1.39,0,0,0,.59,1.28l39.82,23.15A1.39,1.39,0,0,1,80.64,135Z"/><path class="cls-13" d="M63.9,13.71a1.41,1.41,0,0,0-1.42.14L42.61,25.32,82.44,48.46,102.3,37a1.4,1.4,0,0,1,1.43-.13Z"/><path class="cls-14" d="M104.31,38.14c0-1.27-.9-1.78-2-1.15L82.44,48.46a4.44,4.44,0,0,0-2,3.46l.2,83.09c0,1.26.91,1.78,2,1.14l19.86-11.47a4.42,4.42,0,0,0,2-3.45Z"/><path class="cls-15" d="M42.61,25.32a4.38,4.38,0,0,0-2,3.45L80.44,51.92a4.44,4.44,0,0,1,2-3.46Z"/></g><g class="cls-11"><path class="cls-16" d="M38.63,70.18a.74.74,0,0,0-.76.07,2.35,2.35,0,0,0-1.07,1.84.75.75,0,0,0,.32.68L79.4,97.35a.75.75,0,0,1-.31-.69,2.38,2.38,0,0,1,1.06-1.84.76.76,0,0,1,.76-.07Z"/><path class="cls-17" d="M80.15,94.82a2.38,2.38,0,0,0-1.06,1.84c0,.68.48,1,1.07.61a2.31,2.31,0,0,0,1.06-1.84C81.22,94.76,80.74,94.48,80.15,94.82Z"/></g><g class="cls-11"><path class="cls-18" d="M38.63,47a.74.74,0,0,0-.76.08,2.33,2.33,0,0,0-1.07,1.84.75.75,0,0,0,.32.68L79.4,74.16a.73.73,0,0,1-.31-.68,2.38,2.38,0,0,1,1.06-1.84.74.74,0,0,1,.76-.07Z"/><path class="cls-19" d="M80.15,71.64a2.38,2.38,0,0,0-1.06,1.84c0,.68.48,1,1.07.61a2.32,2.32,0,0,0,1.06-1.84C81.22,71.57,80.74,71.3,80.15,71.64Z"/></g><g class="cls-11"><path class="cls-20" d="M38.63,92a.77.77,0,0,0-.76.08A2.35,2.35,0,0,0,36.8,94a.75.75,0,0,0,.32.68L79.4,119.21a.75.75,0,0,1-.31-.69,2.38,2.38,0,0,1,1.06-1.84.76.76,0,0,1,.76-.07Z"/><path class="cls-21" d="M80.15,116.68a2.38,2.38,0,0,0-1.06,1.84c0,.68.48,1,1.07.61a2.31,2.31,0,0,0,1.06-1.84C81.22,116.62,80.74,116.34,80.15,116.68Z"/></g><g class="cls-11"><path class="cls-22" d="M53.25,15.05a.77.77,0,0,0-.76.08A2.35,2.35,0,0,0,51.42,17a.75.75,0,0,0,.32.68L94,42.23a.75.75,0,0,1-.31-.69,2.36,2.36,0,0,1,1.07-1.84.74.74,0,0,1,.75-.07Z"/><path class="cls-23" d="M94.78,39.7a2.36,2.36,0,0,0-1.07,1.84c0,.68.48,1,1.07.61a2.35,2.35,0,0,0,1.07-1.84C95.84,39.64,95.36,39.36,94.78,39.7Z"/></g><polygon class="cls-24" points="116.25 30.04 83.19 49.25 79.14 46.88 112.19 27.66 116.25 30.04"/><path class="cls-25" d="M112.19,28.54l2.57,1.5L83.19,48.38l-2.57-1.5,31.57-18.34m0-.87L79.13,46.88l4.06,2.37L116.25,30l-4.06-2.37Z"/><polygon class="cls-26" points="116.25 30.04 116.25 31.86 116.1 130.79 83.04 150 83.19 51.11 83.19 49.25 116.25 30.04"/><polygon class="cls-27" points="83.19 49.24 83.19 51.11 83.03 150 78.98 147.62 79.13 48.85 79.13 46.87 83.19 49.24"/><g class="cls-10"><polygon points="116.25 30.04 116.25 31.86 83.19 51.11 82.76 50.86 79.13 48.85 79.13 46.87 83.19 49.25 116.25 30.04"/></g><g class="cls-11"><path class="cls-28" d="M86,74.44a.76.76,0,0,0-.76.07,2.34,2.34,0,0,0-1,1.84.75.75,0,0,0,.31.69l3,1.76a.75.75,0,0,1-.31-.69,2.35,2.35,0,0,1,1-1.83A.77.77,0,0,1,89,76.2Z"/><path class="cls-29" d="M88.22,76.28c.59-.34,1.07-.07,1.07.61a2.32,2.32,0,0,1-1.06,1.84c-.59.34-1.06.06-1.06-.62A2.35,2.35,0,0,1,88.22,76.28Z"/></g><g class="cls-11"><path class="cls-30" d="M100.81,42.62a.77.77,0,0,0-.76.08,2.3,2.3,0,0,0-1,1.83.75.75,0,0,0,.31.69l3,1.76a.75.75,0,0,1-.31-.68,2.32,2.32,0,0,1,1-1.84.74.74,0,0,1,.76-.07Z"/><path class="cls-31" d="M103.07,44.46c.59-.34,1.07-.07,1.07.61a2.35,2.35,0,0,1-1.06,1.84c-.59.34-1.06.06-1.06-.61A2.32,2.32,0,0,1,103.07,44.46Z"/></g><g class="cls-11"><path class="cls-32" d="M86,97.62a.77.77,0,0,0-.76.08,2.32,2.32,0,0,0-1,1.83.75.75,0,0,0,.31.69l3,1.76a.75.75,0,0,1-.31-.68,2.35,2.35,0,0,1,1-1.84.74.74,0,0,1,.76-.07Z"/><path class="cls-33" d="M88.22,99.46c.59-.34,1.07-.07,1.07.61a2.32,2.32,0,0,1-1.06,1.84c-.59.34-1.06.06-1.06-.61A2.35,2.35,0,0,1,88.22,99.46Z"/></g><g class="cls-11"><path class="cls-34" d="M86,119.48a.77.77,0,0,0-.76.08,2.32,2.32,0,0,0-1,1.83.75.75,0,0,0,.31.69l3,1.76a.75.75,0,0,1-.31-.68,2.35,2.35,0,0,1,1-1.84.74.74,0,0,1,.76-.07Z"/><path class="cls-35" d="M88.22,121.32c.59-.34,1.07-.07,1.07.61a2.32,2.32,0,0,1-1.06,1.84c-.59.34-1.06.06-1.06-.61A2.35,2.35,0,0,1,88.22,121.32Z"/></g><g class="cls-11"><path class="cls-36" d="M115,59.05a.74.74,0,0,0-.76.07A2.3,2.3,0,0,0,113.21,61a.75.75,0,0,0,.31.68l3,1.77a.76.76,0,0,1-.31-.69,2.32,2.32,0,0,1,1-1.84.76.76,0,0,1,.76-.07Z"/><path class="cls-37" d="M117.28,60.88c.59-.34,1.07-.06,1.07.61a2.33,2.33,0,0,1-1.06,1.84c-.59.34-1.06.06-1.06-.61A2.32,2.32,0,0,1,117.28,60.88Z"/></g><g class="cls-11"><path class="cls-38" d="M115,82.23a.76.76,0,0,0-.76.07,2.3,2.3,0,0,0-1.05,1.84.76.76,0,0,0,.31.69l3,1.76a.75.75,0,0,1-.31-.69,2.34,2.34,0,0,1,1-1.84A.76.76,0,0,1,118,84Z"/><path class="cls-39" d="M117.28,84.06c.59-.33,1.07-.06,1.07.61a2.35,2.35,0,0,1-1.06,1.85c-.59.33-1.06.06-1.06-.62A2.34,2.34,0,0,1,117.28,84.06Z"/></g><g class="cls-11"><path class="cls-40" d="M115,104.09a.76.76,0,0,0-.76.07,2.3,2.3,0,0,0-1.05,1.84.76.76,0,0,0,.31.69l3,1.76a.75.75,0,0,1-.31-.69,2.34,2.34,0,0,1,1-1.84.76.76,0,0,1,.76-.07Z"/><path class="cls-41" d="M117.28,105.92c.59-.33,1.07-.06,1.07.61a2.32,2.32,0,0,1-1.06,1.84c-.59.34-1.06.07-1.06-.61A2.34,2.34,0,0,1,117.28,105.92Z"/></g><g class="cls-11"><path class="cls-42" d="M107.73,53.27a11.06,11.06,0,0,0,5-8.69,3.51,3.51,0,0,0-1.46-3.23l6.51,3.78a3.52,3.52,0,0,1,1.47,3.23,11,11,0,0,1-5,8.7,3.57,3.57,0,0,1-3.58.35l-6.51-3.79A3.55,3.55,0,0,0,107.73,53.27Z"/><path class="cls-43" d="M107.69,41.7a3.54,3.54,0,0,1,3.59-.35l6.51,3.78a3.57,3.57,0,0,0-3.58.35,11.07,11.07,0,0,0-5,8.7,3.56,3.56,0,0,0,1.47,3.23l-6.51-3.79a3.51,3.51,0,0,1-1.47-3.23A11,11,0,0,1,107.69,41.7Z"/></g><g class="cls-11"><path class="cls-42" d="M115.09,43.88a14.45,14.45,0,0,0-6.57,11.36c0,4.18,3,5.86,6.61,3.76a14.41,14.41,0,0,0,6.55-11.35C121.67,43.46,118.71,41.79,115.09,43.88Z"/><path class="cls-44" d="M118.44,45.68,117.21,45a3.29,3.29,0,0,1,1.38,3,10.37,10.37,0,0,1-4.7,8.16,3.34,3.34,0,0,1-3.37.33l1.24.71a3.34,3.34,0,0,0,3.37-.33,10.37,10.37,0,0,0,4.69-8.15A3.32,3.32,0,0,0,118.44,45.68Z"/><path class="cls-45" d="M118.53,42.71c-1.19-.7-2.85-.6-4.67.45a14.47,14.47,0,0,0-6.57,11.37c0,2.07.74,3.53,1.92,4.22l1.23.71c-1.18-.68-1.91-2.14-1.92-4.22a14.45,14.45,0,0,1,6.57-11.36c1.82-1.05,3.48-1.15,4.67-.46Z"/><path class="cls-46" d="M115.09,43.88a14.45,14.45,0,0,0-6.57,11.36c0,4.18,3,5.86,6.61,3.76a14.41,14.41,0,0,0,6.55-11.35C121.67,43.46,118.71,41.79,115.09,43.88Zm3.72.58a.82.82,0,0,1,.24-.25.29.29,0,0,1,.25,0c.14.08.14.33,0,.58a.72.72,0,0,1-.24.25.26.26,0,0,1-.25,0C118.67,45,118.67,44.71,118.81,44.46Zm-3.72.15c.19-.11.34,0,.35.2a.79.79,0,0,1-.35.6c-.2.12-.35,0-.35-.2A.75.75,0,0,1,115.09,44.61ZM110.88,49a.74.74,0,0,1,.25-.25.24.24,0,0,1,.24,0c.14.08.14.33,0,.57a.61.61,0,0,1-.24.26.24.24,0,0,1-.24,0C110.74,49.53,110.74,49.28,110.88,49Zm-1.38,6.05c-.2.12-.35,0-.35-.2a.75.75,0,0,1,.35-.6c.19-.11.35,0,.35.2A.77.77,0,0,1,109.5,55.09Zm1.89,3.35a.71.71,0,0,1-.24.27.21.21,0,0,1-.24,0c-.14-.08-.14-.32,0-.57a.64.64,0,0,1,.24-.25.27.27,0,0,1,.24,0C111.54,58,111.54,58.2,111.39,58.44Zm3.74-.15c-.2.12-.35,0-.35-.2a.74.74,0,0,1,.35-.59.21.21,0,0,1,.34.19A.73.73,0,0,1,115.13,58.29Zm4.19-4.42a.68.68,0,0,1-.24.26.24.24,0,0,1-.24,0c-.14-.08-.14-.33,0-.58a.72.72,0,0,1,.24-.25.27.27,0,0,1,.24,0C119.46,53.37,119.46,53.62,119.32,53.87Zm-4.19,3c-2.62,1.52-4.75.3-4.75-2.7A10.36,10.36,0,0,1,115.1,46c2.6-1.51,4.71-.28,4.72,2.71A10.37,10.37,0,0,1,115.13,56.87Zm5.23-8.45a.75.75,0,0,1,.35-.6c.2-.12.35,0,.35.2a.76.76,0,0,1-.35.6C120.52,48.73,120.36,48.64,120.36,48.42Z"/></g><g class="cls-11"><path class="cls-42" d="M92.41,62.38a11,11,0,0,0,5-8.69A3.49,3.49,0,0,0,96,50.46l6.52,3.78A3.56,3.56,0,0,1,104,57.47a11.07,11.07,0,0,1-5,8.7,3.57,3.57,0,0,1-3.58.35l-6.52-3.79A3.55,3.55,0,0,0,92.41,62.38Z"/><path class="cls-47" d="M92.38,50.81A3.55,3.55,0,0,1,96,50.46l6.52,3.78a3.55,3.55,0,0,0-3.58.36,11,11,0,0,0-5,8.69,3.52,3.52,0,0,0,1.47,3.23l-6.52-3.79a3.54,3.54,0,0,1-1.47-3.23A11.06,11.06,0,0,1,92.38,50.81Z"/></g><g class="cls-11"><path class="cls-42" d="M99.78,53a14.45,14.45,0,0,0-6.57,11.37c0,4.17,3,5.86,6.61,3.75a14.47,14.47,0,0,0,6.55-11.35C106.36,52.57,103.4,50.9,99.78,53Z"/><path class="cls-48" d="M103.13,54.79l-1.23-.71a3.31,3.31,0,0,1,1.38,3,10.37,10.37,0,0,1-4.7,8.16,3.34,3.34,0,0,1-3.37.33l1.23.72A3.32,3.32,0,0,0,99.81,66a10.34,10.34,0,0,0,4.7-8.15A3.32,3.32,0,0,0,103.13,54.79Z"/><path class="cls-49" d="M103.22,51.82c-1.2-.7-2.85-.6-4.68.45A14.45,14.45,0,0,0,92,63.64c0,2.07.73,3.53,1.92,4.22l1.23.71c-1.18-.68-1.92-2.14-1.92-4.21A14.45,14.45,0,0,1,99.78,53c1.82-1.05,3.48-1.15,4.67-.46Z"/><path class="cls-50" d="M99.78,53a14.45,14.45,0,0,0-6.57,11.37c0,4.17,3,5.86,6.61,3.75a14.47,14.47,0,0,0,6.55-11.35C106.36,52.57,103.4,50.9,99.78,53Zm3.72.58a.72.72,0,0,1,.24-.25.27.27,0,0,1,.24,0c.14.09.14.33,0,.58a.64.64,0,0,1-.24.25.24.24,0,0,1-.24,0C103.36,54.07,103.36,53.82,103.5,53.57Zm-3.72.15c.18-.11.34,0,.34.2a.78.78,0,0,1-.34.6c-.2.12-.35,0-.35-.2A.75.75,0,0,1,99.78,53.72Zm-4.21,4.43a.64.64,0,0,1,.24-.25.27.27,0,0,1,.24,0c.15.08.15.33,0,.58a.74.74,0,0,1-.25.25.24.24,0,0,1-.24,0C95.43,58.64,95.43,58.4,95.57,58.15ZM94.18,64.2c-.2.12-.35,0-.35-.2a.76.76,0,0,1,.35-.6c.2-.11.35,0,.35.2A.75.75,0,0,1,94.18,64.2Zm1.9,3.36a.68.68,0,0,1-.24.26.24.24,0,0,1-.24,0c-.14-.09-.15-.33,0-.58a.64.64,0,0,1,.24-.25.27.27,0,0,1,.24,0C96.22,67.06,96.22,67.31,96.08,67.56Zm3.74-.16c-.2.12-.35,0-.35-.2a.71.71,0,0,1,.34-.59c.19-.11.35,0,.35.19A.76.76,0,0,1,99.82,67.4ZM104,63a.61.61,0,0,1-.24.26.24.24,0,0,1-.24,0c-.15-.08-.15-.33,0-.58a.81.81,0,0,1,.25-.24.24.24,0,0,1,.24,0C104.15,62.49,104.15,62.73,104,63Zm-4.2,3c-2.62,1.52-4.74.3-4.75-2.69a10.38,10.38,0,0,1,4.72-8.17c2.61-1.5,4.72-.28,4.73,2.71A10.34,10.34,0,0,1,99.81,66Zm5.24-8.45a.74.74,0,0,1,.34-.6c.21-.12.35,0,.36.2a.76.76,0,0,1-.35.6C105.2,57.84,105.05,57.75,105.05,57.53Z"/></g><g class="cls-11"><path class="cls-42" d="M107.73,130.29a11.06,11.06,0,0,0,5-8.7,3.53,3.53,0,0,0-1.46-3.23l6.51,3.79a3.51,3.51,0,0,1,1.47,3.23,11,11,0,0,1-5,8.69,3.52,3.52,0,0,1-3.58.35l-6.51-3.78A3.57,3.57,0,0,0,107.73,130.29Z"/><path class="cls-51" d="M107.69,118.72a3.57,3.57,0,0,1,3.59-.36l6.51,3.79a3.55,3.55,0,0,0-3.58.35,11.07,11.07,0,0,0-5,8.69,3.54,3.54,0,0,0,1.47,3.23l-6.51-3.78a3.52,3.52,0,0,1-1.47-3.23A11,11,0,0,1,107.69,118.72Z"/></g><g class="cls-11"><path class="cls-42" d="M115.09,120.9a14.45,14.45,0,0,0-6.57,11.36c0,4.18,3,5.86,6.61,3.76a14.42,14.42,0,0,0,6.55-11.36C121.67,120.48,118.71,118.8,115.09,120.9Z"/><path class="cls-52" d="M118.44,122.7l-1.23-.72a3.32,3.32,0,0,1,1.38,3,10.34,10.34,0,0,1-4.7,8.15,3.32,3.32,0,0,1-3.37.34l1.24.71a3.34,3.34,0,0,0,3.37-.33,10.37,10.37,0,0,0,4.69-8.15A3.31,3.31,0,0,0,118.44,122.7Z"/><path class="cls-53" d="M118.53,119.72c-1.19-.69-2.85-.59-4.67.46a14.45,14.45,0,0,0-6.57,11.37c0,2.07.74,3.53,1.92,4.21l1.23.72c-1.18-.69-1.91-2.14-1.92-4.22a14.45,14.45,0,0,1,6.57-11.36c1.82-1.06,3.48-1.16,4.67-.46Z"/><path class="cls-54" d="M115.09,120.9a14.45,14.45,0,0,0-6.57,11.36c0,4.18,3,5.86,6.61,3.76a14.42,14.42,0,0,0,6.55-11.36C121.67,120.48,118.71,118.8,115.09,120.9Zm3.72.58a.72.72,0,0,1,.24-.25.26.26,0,0,1,.25,0c.14.08.14.33,0,.57a.68.68,0,0,1-.24.26.25.25,0,0,1-.25,0C118.67,122,118.67,121.72,118.81,121.48Zm-3.72.14c.19-.1.34,0,.35.21a.79.79,0,0,1-.35.6c-.2.11-.35,0-.35-.2A.77.77,0,0,1,115.09,121.62Zm-4.21,4.44a.74.74,0,0,1,.25-.25.24.24,0,0,1,.24,0c.14.08.14.33,0,.57a.61.61,0,0,1-.24.26.24.24,0,0,1-.24,0C110.74,126.55,110.74,126.3,110.88,126.06Zm-1.38,6.05c-.2.12-.35,0-.35-.2a.75.75,0,0,1,.35-.6c.19-.12.35,0,.35.2A.77.77,0,0,1,109.5,132.11Zm1.89,3.35a.61.61,0,0,1-.24.26.2.2,0,0,1-.24,0c-.14-.08-.14-.33,0-.57a.64.64,0,0,1,.24-.25.24.24,0,0,1,.24,0C111.54,135,111.54,135.22,111.39,135.46Zm3.74-.15c-.2.12-.35,0-.35-.2a.78.78,0,0,1,.35-.6.21.21,0,0,1,.34.2A.76.76,0,0,1,115.13,135.31Zm4.19-4.43a.71.71,0,0,1-.24.27.21.21,0,0,1-.24,0c-.14-.08-.14-.32,0-.57a.64.64,0,0,1,.24-.25.27.27,0,0,1,.24,0C119.46,130.39,119.46,130.64,119.32,130.88Zm-4.19,3c-2.62,1.51-4.75.3-4.75-2.7A10.36,10.36,0,0,1,115.1,123c2.6-1.51,4.71-.29,4.72,2.71A10.37,10.37,0,0,1,115.13,133.89Zm5.23-8.45a.75.75,0,0,1,.35-.61c.2-.11.35,0,.35.2a.77.77,0,0,1-.35.61C120.52,125.75,120.36,125.66,120.36,125.44Z"/></g><g class="cls-11"><path class="cls-42" d="M92.41,139.4a11,11,0,0,0,5-8.69A3.52,3.52,0,0,0,96,127.47l6.52,3.79a3.55,3.55,0,0,1,1.47,3.23,11,11,0,0,1-5,8.69,3.55,3.55,0,0,1-3.58.36l-6.52-3.79A3.55,3.55,0,0,0,92.41,139.4Z"/><path class="cls-55" d="M92.38,127.83a3.55,3.55,0,0,1,3.58-.36l6.52,3.79a3.55,3.55,0,0,0-3.58.35,11.07,11.07,0,0,0-5,8.69,3.52,3.52,0,0,0,1.47,3.24l-6.52-3.79a3.55,3.55,0,0,1-1.47-3.23A11,11,0,0,1,92.38,127.83Z"/></g><g class="cls-11"><path class="cls-42" d="M99.78,130a14.45,14.45,0,0,0-6.57,11.36c0,4.18,3,5.86,6.61,3.76a14.47,14.47,0,0,0,6.55-11.36C106.36,129.59,103.4,127.91,99.78,130Z"/><path class="cls-56" d="M103.13,131.81l-1.23-.71a3.31,3.31,0,0,1,1.38,3,10.37,10.37,0,0,1-4.7,8.16,3.34,3.34,0,0,1-3.37.33l1.23.71a3.34,3.34,0,0,0,3.37-.33,10.35,10.35,0,0,0,4.7-8.15A3.32,3.32,0,0,0,103.13,131.81Z"/><path class="cls-57" d="M103.22,128.83c-1.2-.69-2.85-.59-4.68.46A14.42,14.42,0,0,0,92,140.66c0,2.07.73,3.53,1.92,4.22l1.23.71c-1.18-.68-1.92-2.14-1.92-4.22A14.45,14.45,0,0,1,99.78,130c1.82-1.06,3.48-1.15,4.67-.46Z"/><path class="cls-58" d="M99.78,130a14.45,14.45,0,0,0-6.57,11.36c0,4.18,3,5.86,6.61,3.76a14.47,14.47,0,0,0,6.55-11.36C106.36,129.59,103.4,127.91,99.78,130Zm3.72.58a.64.64,0,0,1,.24-.25.27.27,0,0,1,.24,0c.14.08.14.33,0,.58a.64.64,0,0,1-.24.25c-.09.05-.18.07-.24,0S103.36,130.84,103.5,130.59Zm-3.72.14c.18-.1.34,0,.34.21a.78.78,0,0,1-.34.6c-.2.11-.35,0-.35-.2A.78.78,0,0,1,99.78,130.73Zm-4.21,4.44a.64.64,0,0,1,.24-.25.24.24,0,0,1,.24,0c.15.08.15.33,0,.57a.7.7,0,0,1-.25.26.24.24,0,0,1-.24,0C95.43,135.66,95.43,135.41,95.57,135.17Zm-1.39,6.05c-.2.12-.35,0-.35-.2a.75.75,0,0,1,.35-.6c.2-.11.35,0,.35.2A.75.75,0,0,1,94.18,141.22Zm1.9,3.35a.61.61,0,0,1-.24.26.2.2,0,0,1-.24,0c-.14-.08-.15-.33,0-.57a.64.64,0,0,1,.24-.25.24.24,0,0,1,.24,0C96.22,144.08,96.22,144.33,96.08,144.57Zm3.74-.15c-.2.12-.35,0-.35-.2a.71.71,0,0,1,.34-.59c.19-.11.35,0,.35.19A.79.79,0,0,1,99.82,144.42ZM104,140a.68.68,0,0,1-.24.26.24.24,0,0,1-.24,0c-.15-.09-.15-.33,0-.58a.74.74,0,0,1,.25-.25.27.27,0,0,1,.24,0C104.15,139.5,104.15,139.75,104,140Zm-4.2,3c-2.62,1.51-4.74.3-4.75-2.7a10.38,10.38,0,0,1,4.72-8.16c2.61-1.51,4.72-.29,4.73,2.71A10.35,10.35,0,0,1,99.81,143Zm5.24-8.45a.77.77,0,0,1,.34-.61c.21-.11.35,0,.36.2a.77.77,0,0,1-.35.61C105.2,134.86,105.05,134.77,105.05,134.55Z"/></g></g></g></g></svg>