<svg xmlns="http://www.w3.org/2000/svg" xmlns:xlink="http://www.w3.org/1999/xlink" viewBox="0 0 92.13 150"><defs><style>.cls-1{fill:url(#未命名的渐变_20);}.cls-2{fill:url(#未命名的渐变_20-2);}.cls-3{fill:url(#未命名的渐变_20-3);}.cls-4{fill:url(#未命名的渐变_15);}.cls-5{fill:url(#未命名的渐变_15-2);}.cls-6{fill:#45484d;}.cls-7{fill:#b8c0cc;}.cls-8{fill:#737880;}.cls-10,.cls-9{stroke-miterlimit:10;}.cls-9{stroke-width:0.4px;fill:url(#未命名的渐变_45);stroke:url(#未命名的渐变_47);}.cls-10{fill:#d9dee5;stroke-width:1.24px;stroke:url(#未命名的渐变_57);}.cls-11{fill:#a3b372;}.cls-12{fill:#646e46;}.cls-13{fill:url(#未命名的渐变_10);}.cls-14{fill:url(#未命名的渐变_10-2);}.cls-15{fill:url(#未命名的渐变_5);}.cls-16{fill:url(#未命名的渐变_5-2);}.cls-17{fill:url(#未命名的渐变_10-3);}.cls-18{fill:url(#未命名的渐变_10-4);}.cls-19{fill:url(#未命名的渐变_5-3);}.cls-20{fill:url(#未命名的渐变_5-4);}.cls-21{fill:url(#未命名的渐变_10-5);}.cls-22{fill:url(#未命名的渐变_10-6);}.cls-23{fill:url(#未命名的渐变_5-5);}.cls-24{fill:url(#未命名的渐变_5-6);}.cls-25{fill:url(#未命名的渐变_60);}.cls-26{fill:url(#未命名的渐变_60-2);}.cls-27{opacity:0.2;}</style><linearGradient id="未命名的渐变_20" x1="46.28" y1="96.98" x2="46.28" y2="136.91" gradientUnits="userSpaceOnUse"><stop offset="0" stop-color="#767b82"/><stop offset="0.07" stop-color="#9ba1ab"/><stop offset="0.22" stop-color="#e2eaf2"/><stop offset="0.94" stop-color="#5d6166"/><stop offset="1" stop-color="#a9b1bb"/></linearGradient><linearGradient id="未命名的渐变_20-2" x1="86.75" y1="83.89" x2="86.75" y2="150" xlink:href="#未命名的渐变_20"/><linearGradient id="未命名的渐变_20-3" x1="5.38" y1="83.89" x2="5.38" y2="150" xlink:href="#未命名的渐变_20"/><linearGradient id="未命名的渐变_15" x1="32.74" y1="65.12" x2="58.55" y2="65.12" gradientTransform="matrix(1, 0, 0, -2.73, 0, 253.36)" gradientUnits="userSpaceOnUse"><stop offset="0" stop-color="#767b82"/><stop offset="0.08" stop-color="#b9c0cc"/><stop offset="0.91" stop-color="#b9c0cc"/><stop offset="0.96" stop-color="#d7dce0"/><stop offset="0.98" stop-color="#767b82"/></linearGradient><linearGradient id="未命名的渐变_15-2" x1="25.71" y1="71.23" x2="65.58" y2="71.23" xlink:href="#未命名的渐变_15"/><linearGradient id="未命名的渐变_45" x1="46.12" y1="53.8" x2="46.12" y2="7.03" gradientUnits="userSpaceOnUse"><stop offset="0" stop-color="#8a9099"/><stop offset="1" stop-color="#a1a9b3"/></linearGradient><linearGradient id="未命名的渐变_47" x1="46.12" y1="54" x2="46.12" y2="6.83" gradientUnits="userSpaceOnUse"><stop offset="0" stop-color="#61676b" stop-opacity="0"/><stop offset="0.2" stop-color="#62686d" stop-opacity="0.01"/><stop offset="0.34" stop-color="#676d72" stop-opacity="0.05"/><stop offset="0.45" stop-color="#6e757a" stop-opacity="0.1"/><stop offset="0.56" stop-color="#798087" stop-opacity="0.19"/><stop offset="0.65" stop-color="#878e97" stop-opacity="0.3"/><stop offset="0.74" stop-color="#98a0aa" stop-opacity="0.43"/><stop offset="0.83" stop-color="#acb4c2" stop-opacity="0.59"/><stop offset="0.91" stop-color="#c3cddd" stop-opacity="0.77"/><stop offset="0.99" stop-color="#dde7fb" stop-opacity="0.97"/><stop offset="1" stop-color="#e1ebff"/></linearGradient><linearGradient id="未命名的渐变_57" x1="46.12" y1="48.22" x2="46.12" y2="12.61" gradientUnits="userSpaceOnUse"><stop offset="0" stop-color="#f1f5ff"/><stop offset="1" stop-color="#5a5e66"/></linearGradient><linearGradient id="未命名的渐变_10" x1="37.61" y1="109.1" x2="42.53" y2="109.1" gradientTransform="translate(-27.31 -86.33)" gradientUnits="userSpaceOnUse"><stop offset="0" stop-color="#7a8088"/><stop offset="0.09" stop-color="#2d2f33"/><stop offset="0.16" stop-color="#35373b"/><stop offset="0.27" stop-color="#4a4d51"/><stop offset="0.41" stop-color="#6d7176"/><stop offset="0.56" stop-color="#9da3a8"/><stop offset="0.62" stop-color="#b0b7bc"/><stop offset="0.93" stop-color="#6d7177"/><stop offset="1" stop-color="#5c6067"/></linearGradient><linearGradient id="未命名的渐变_10-2" x1="39.32" y1="103.59" x2="40.82" y2="103.59" gradientTransform="translate(-32.83 -80.81)" xlink:href="#未命名的渐变_10"/><linearGradient id="未命名的渐变_5" x1="-290.05" y1="-311.49" x2="-290.05" y2="-317.66" gradientTransform="translate(300.48 337.35)" gradientUnits="userSpaceOnUse"><stop offset="0" stop-color="#676b70"/><stop offset="0.05" stop-color="#484b4d"/><stop offset="0.26" stop-color="#747980"/><stop offset="0.3" stop-color="#d1d5db"/><stop offset="0.44" stop-color="#cad1db"/><stop offset="0.7" stop-color="#c7cfdb"/><stop offset="0.73" stop-color="#edf5ff"/><stop offset="0.77" stop-color="#c3c7cc"/><stop offset="1" stop-color="#929599"/></linearGradient><linearGradient id="未命名的渐变_5-2" x1="36.98" y1="111.14" x2="43.16" y2="111.14" gradientTransform="translate(-25.27 -88.37)" xlink:href="#未命名的渐变_5"/><linearGradient id="未命名的渐变_10-3" x1="29.03" y1="109.1" x2="33.95" y2="109.1" gradientTransform="translate(-18.74 -77.75)" xlink:href="#未命名的渐变_10"/><linearGradient id="未命名的渐变_10-4" x1="30.74" y1="103.59" x2="32.24" y2="103.59" gradientTransform="translate(-24.25 -72.24)" xlink:href="#未命名的渐变_10"/><linearGradient id="未命名的渐变_5-3" x1="-290.05" y1="-302.91" x2="-290.05" y2="-309.09" xlink:href="#未命名的渐变_5"/><linearGradient id="未命名的渐变_5-4" x1="28.4" y1="111.14" x2="34.58" y2="111.14" gradientTransform="translate(-16.69 -79.79)" xlink:href="#未命名的渐变_5"/><linearGradient id="未命名的渐变_10-5" x1="20.46" y1="109.1" x2="25.37" y2="109.1" gradientTransform="translate(-10.16 -69.17)" xlink:href="#未命名的渐变_10"/><linearGradient id="未命名的渐变_10-6" x1="22.17" y1="103.59" x2="23.66" y2="103.59" gradientTransform="translate(-15.67 -63.66)" xlink:href="#未命名的渐变_10"/><linearGradient id="未命名的渐变_5-5" x1="-290.05" y1="-294.33" x2="-290.05" y2="-300.51" xlink:href="#未命名的渐变_5"/><linearGradient id="未命名的渐变_5-6" x1="19.83" y1="111.14" x2="26" y2="111.14" gradientTransform="translate(-8.12 -71.21)" xlink:href="#未命名的渐变_5"/><linearGradient id="未命名的渐变_60" x1="-13.08" y1="115.69" x2="-11.59" y2="115.69" gradientTransform="translate(41.28 -51.35)" gradientUnits="userSpaceOnUse"><stop offset="0" stop-color="#a9b1bb"/><stop offset="0.06" stop-color="#5d6166"/><stop offset="0.78" stop-color="#e2eaf2"/><stop offset="0.93" stop-color="#9ba1ab"/><stop offset="1" stop-color="#767b82"/></linearGradient><linearGradient id="未命名的渐变_60-2" x1="21.28" y1="115.69" x2="22.77" y2="115.69" xlink:href="#未命名的渐变_60"/></defs><title>Magnetic flowmeter 2(磁力流量计2)</title><g id="图层_2" data-name="图层 2"><g id="图层_16" data-name="图层 16"><g id="Magnetic_flowmeter_2_磁力流量计2_" data-name="Magnetic flowmeter 2(磁力流量计2)"><rect class="cls-1" x="10.42" y="96.98" width="71.71" height="39.94"/><rect class="cls-2" x="81.37" y="83.89" width="10.76" height="66.11"/><rect class="cls-3" y="83.89" width="10.76" height="66.11"/><rect class="cls-4" x="32.74" y="53.79" width="25.82" height="43.19"/><rect class="cls-5" x="25.71" y="53.79" width="39.86" height="9.79"/><path class="cls-6" d="M76.64,60.93c-1,1-61.15.12-61.15.12l8.74-8.74H68Z"/><polygon class="cls-7" points="76.41 0.13 68.02 8.52 24.23 8.52 15.71 0 76.41 0.13"/><polygon class="cls-8" points="76.64 60.93 68.02 52.31 68.02 8.52 76.41 0.13 76.64 60.93"/><polygon class="cls-8" points="15.49 60.93 24.11 52.31 24.11 8.52 15.72 0.13 15.49 60.93"/><rect class="cls-9" x="22.74" y="7.03" width="46.77" height="46.77"/><rect class="cls-10" x="28.94" y="13.23" width="34.36" height="34.36"/><rect class="cls-11" x="33.37" y="17.31" width="25.51" height="11.12"/><path class="cls-12" d="M58.55,17.63V28.1H33.69V17.63H58.55m.66-.65H33V28.75H59.21V17Z"/><rect class="cls-13" x="10.3" y="20.44" width="4.92" height="4.67" transform="translate(-10.02 35.53) rotate(-90)"/><rect class="cls-14" x="6.5" y="21.69" width="1.5" height="2.17" transform="translate(-15.53 30.02) rotate(-90)"/><rect class="cls-15" x="8.33" y="19.69" width="4.19" height="6.18"/><rect class="cls-16" x="11.71" y="21.87" width="6.18" height="1.82" transform="translate(-7.98 37.58) rotate(-90)"/><rect class="cls-17" x="10.3" y="29.02" width="4.92" height="4.67" transform="translate(-18.6 44.11) rotate(-90)"/><rect class="cls-18" x="6.5" y="30.27" width="1.5" height="2.17" transform="translate(-24.11 38.6) rotate(-90)"/><rect class="cls-19" x="8.33" y="28.27" width="4.19" height="6.18"/><rect class="cls-20" x="11.71" y="30.44" width="6.18" height="1.82" transform="translate(-16.56 46.15) rotate(-90)"/><rect class="cls-21" x="10.3" y="37.6" width="4.92" height="4.67" transform="translate(-27.18 52.69) rotate(-90)"/><rect class="cls-22" x="6.5" y="38.85" width="1.5" height="2.17" transform="translate(-32.69 47.18) rotate(-90)"/><rect class="cls-23" x="8.33" y="36.84" width="4.19" height="6.18"/><rect class="cls-24" x="11.71" y="39.02" width="6.18" height="1.82" transform="translate(-25.13 54.73) rotate(-90)"/><rect class="cls-25" x="28.19" y="63.59" width="1.5" height="1.5"/><rect class="cls-26" x="62.56" y="63.59" width="1.5" height="1.5"/></g></g></g></svg>