<svg xmlns="http://www.w3.org/2000/svg" xmlns:xlink="http://www.w3.org/1999/xlink" viewBox="0 0 66.18 150"><defs><style>.cls-1{fill:url(#未命名的渐变_285);}.cls-16,.cls-2,.cls-3,.cls-4,.cls-5,.cls-6,.cls-7,.cls-8,.cls-9{fill:#252628;}.cls-2,.cls-3,.cls-4,.cls-5,.cls-6,.cls-7,.cls-8,.cls-9{stroke-miterlimit:10;stroke-width:0.25px;}.cls-2{stroke:url(#未命名的渐变_39);}.cls-3{stroke:url(#未命名的渐变_39-2);}.cls-4{stroke:url(#未命名的渐变_39-3);}.cls-5{stroke:url(#未命名的渐变_39-4);}.cls-6{stroke:url(#未命名的渐变_39-5);}.cls-7{stroke:url(#未命名的渐变_39-6);}.cls-8{stroke:url(#未命名的渐变_39-7);}.cls-9{stroke:url(#未命名的渐变_39-8);}.cls-10{fill:url(#未命名的渐变_209);}.cls-11{fill:url(#未命名的渐变_32);}.cls-12{fill:url(#未命名的渐变_32-2);}.cls-13{fill:url(#未命名的渐变_121);}.cls-14{fill:#f2f2f2;opacity:0.6;}.cls-15{fill:url(#未命名的渐变_121-2);}.cls-17{fill:#d1d8dc;}.cls-18{fill:#5c6066;}.cls-19{fill:#b8c2cc;}.cls-20{fill:url(#未命名的渐变_386);}.cls-21{fill:url(#未命名的渐变_121-3);}.cls-22{fill:url(#未命名的渐变_386-2);}.cls-23{fill:url(#未命名的渐变_121-4);}.cls-24{opacity:0.2;}</style><linearGradient id="未命名的渐变_285" x1="78.25" y1="17.96" x2="-12.06" y2="108.27" gradientUnits="userSpaceOnUse"><stop offset="0" stop-color="#abafb3"/><stop offset="1" stop-color="#5c6066"/></linearGradient><linearGradient id="未命名的渐变_39" x1="6.59" y1="8.99" x2="6.59" y2="4.18" gradientUnits="userSpaceOnUse"><stop offset="0" stop-color="#dce1e6"/><stop offset="1" stop-color="#5c6066"/></linearGradient><linearGradient id="未命名的渐变_39-2" x1="58.79" y1="8.99" x2="58.79" y2="4.18" xlink:href="#未命名的渐变_39"/><linearGradient id="未命名的渐变_39-3" x1="6.59" y1="48.42" x2="6.59" y2="43.61" xlink:href="#未命名的渐变_39"/><linearGradient id="未命名的渐变_39-4" x1="58.79" y1="48.42" x2="58.79" y2="43.61" xlink:href="#未命名的渐变_39"/><linearGradient id="未命名的渐变_39-5" x1="47" y1="96.77" x2="47" y2="91.96" xlink:href="#未命名的渐变_39"/><linearGradient id="未命名的渐变_39-6" x1="22.75" y1="73.19" x2="22.75" y2="69.71" xlink:href="#未命名的渐变_39"/><linearGradient id="未命名的渐变_39-7" x1="6.59" y1="122.53" x2="6.59" y2="117.72" xlink:href="#未命名的渐变_39"/><linearGradient id="未命名的渐变_39-8" x1="58.79" y1="122.53" x2="58.79" y2="117.72" xlink:href="#未命名的渐变_39"/><linearGradient id="未命名的渐变_209" x1="52.9" y1="106.85" x2="13.28" y2="146.47" gradientUnits="userSpaceOnUse"><stop offset="0" stop-color="#d7dce0"/><stop offset="1" stop-color="#8a9099"/></linearGradient><linearGradient id="未命名的渐变_32" x1="53.14" y1="133.19" x2="53.14" y2="128.05" gradientUnits="userSpaceOnUse"><stop offset="0" stop-color="#abafb3"/><stop offset="1" stop-color="#45484d"/></linearGradient><linearGradient id="未命名的渐变_32-2" x1="31.03" y1="133.19" x2="31.03" y2="128.05" gradientTransform="matrix(-1, 0, 0, 1, 44.07, 0)" xlink:href="#未命名的渐变_32"/><linearGradient id="未命名的渐变_121" x1="11.79" y1="141.59" x2="27.8" y2="141.59" gradientUnits="userSpaceOnUse"><stop offset="0" stop-color="#a9b1bb"/><stop offset="0.09" stop-color="#61666b"/><stop offset="0.18" stop-color="#696e73"/><stop offset="0.32" stop-color="#7e8489"/><stop offset="0.49" stop-color="#a1a7ae"/><stop offset="0.69" stop-color="#d1d8e0"/><stop offset="0.75" stop-color="#e2eaf2"/><stop offset="0.93" stop-color="#9ba1ab"/><stop offset="1" stop-color="#767b82"/></linearGradient><linearGradient id="未命名的渐变_121-2" x1="38.38" y1="141.59" x2="54.39" y2="141.59" xlink:href="#未命名的渐变_121"/><linearGradient id="未命名的渐变_386" x1="29.71" y1="40.24" x2="32.12" y2="40.24" gradientTransform="matrix(1, 0, 0, 1, 3.31, -0.59)" gradientUnits="userSpaceOnUse"><stop offset="0" stop-color="#676b70"/><stop offset="0.02" stop-color="#484b4d"/><stop offset="0.19" stop-color="#747980"/><stop offset="0.2" stop-color="#d1d5db"/><stop offset="0.79" stop-color="#c7cfdb"/><stop offset="0.8" stop-color="#edf5ff"/><stop offset="0.81" stop-color="#c3c7cc"/><stop offset="1" stop-color="#929599"/></linearGradient><linearGradient id="未命名的渐变_121-3" x1="30.37" y1="42.68" x2="31.46" y2="42.68" gradientTransform="matrix(1, 0, 0, 1, 5.04, -1.3)" xlink:href="#未命名的渐变_121"/><linearGradient id="未命名的渐变_386-2" x1="50.94" y1="40.24" x2="53.35" y2="40.24" gradientTransform="matrix(1, 0, 0, 1, -2.9, -15.59)" xlink:href="#未命名的渐变_386"/><linearGradient id="未命名的渐变_121-4" x1="51.6" y1="42.68" x2="52.69" y2="42.68" gradientTransform="matrix(1, 0, 0, 1, -1.18, -16.31)" xlink:href="#未命名的渐变_121"/></defs><title>Actuator 1(驱动器1)</title><g id="图层_2" data-name="图层 2"><g id="图层_6" data-name="图层 6"><g id="Actuator_1_驱动器1_" data-name="Actuator 1(驱动器1)"><path class="cls-1" d="M60.29,126.23H5.9L0,120.33V5.9L5.9,0H60.29l5.89,5.9V120.33Z"/><polygon class="cls-2" points="7.53 4.31 5.64 4.31 4.31 5.64 4.31 7.53 5.64 8.87 7.53 8.87 8.87 7.53 8.87 5.64 7.53 4.31"/><polygon class="cls-3" points="59.74 4.31 57.85 4.31 56.51 5.64 56.51 7.53 57.85 8.87 59.74 8.87 61.07 7.53 61.07 5.64 59.74 4.31"/><polygon class="cls-4" points="7.53 43.74 5.64 43.74 4.31 45.07 4.31 46.96 5.64 48.3 7.53 48.3 8.87 46.96 8.87 45.07 7.53 43.74"/><polygon class="cls-5" points="59.74 43.74 57.85 43.74 56.51 45.07 56.51 46.96 57.85 48.3 59.74 48.3 61.07 46.96 61.07 45.07 59.74 43.74"/><polygon class="cls-6" points="47.94 92.09 46.05 92.09 44.72 93.42 44.72 95.31 46.05 96.65 47.94 96.65 49.28 95.31 49.28 93.42 47.94 92.09"/><polygon class="cls-7" points="23.41 69.84 22.08 69.84 21.13 70.78 21.13 72.12 22.08 73.06 23.41 73.06 24.36 72.12 24.36 70.78 23.41 69.84"/><polygon class="cls-8" points="7.53 117.84 5.64 117.84 4.31 119.18 4.31 121.07 5.64 122.41 7.53 122.41 8.87 121.07 8.87 119.18 7.53 117.84"/><polygon class="cls-9" points="59.74 117.84 57.85 117.84 56.51 119.18 56.51 121.07 57.85 122.41 59.74 122.41 61.07 121.07 61.07 119.18 59.74 117.84"/><polygon class="cls-10" points="66.18 120.13 56.51 126.23 8.87 126.23 0 120.13 0 133.19 66.18 133.19 66.18 120.13"/><polygon class="cls-11" points="66.18 128.05 66.18 133.19 40.11 133.19 66.18 128.05"/><polygon class="cls-12" points="0 128.05 0 133.19 26.08 133.19 0 128.05"/><rect class="cls-13" x="11.79" y="133.19" width="16.01" height="16.81"/><rect class="cls-14" x="11.79" y="147.53" width="16.01" height="2.47"/><rect class="cls-15" x="38.38" y="133.19" width="16.01" height="16.81"/><rect class="cls-14" x="38.38" y="147.53" width="16.01" height="2.47"/><rect class="cls-16" x="31.72" y="127.2" width="2.74" height="5.99"/><rect class="cls-17" x="23.8" y="128.82" width="2.74" height="2.74"/><rect class="cls-17" x="39.56" y="128.82" width="2.74" height="2.74"/><circle class="cls-18" cx="31.72" cy="22.06" r="8.39"/><path class="cls-19" d="M36.2,21.54,31,26.73l-4.44,8.64L32.21,41,50.49,22.73l-5.64-5.64ZM32.75,40A.54.54,0,0,1,32,40a.55.55,0,0,1,0-.76.53.53,0,0,1,.75,0A.54.54,0,0,1,32.75,40ZM49.51,23.27a.54.54,0,0,1-.76-.76.54.54,0,1,1,.76.76Z"/><rect class="cls-20" x="33.03" y="39.18" width="2.41" height="0.95" transform="translate(-18.02 35.82) rotate(-45)"/><rect class="cls-21" x="35.41" y="39.42" width="1.09" height="3.94" transform="translate(-18.73 37.55) rotate(-45)"/><rect class="cls-22" x="48.04" y="24.18" width="2.41" height="0.95" transform="translate(-3.01 42.04) rotate(-45)"/><rect class="cls-23" x="50.42" y="24.41" width="1.09" height="3.94" transform="translate(-3.72 43.76) rotate(-45)"/><circle class="cls-16" cx="31.72" cy="22.06" r="4.63"/><path class="cls-16" d="M49.24,19.6a13.9,13.9,0,0,0-1.62-2.5l.37-.25A14.18,14.18,0,0,1,49.24,19.6Z"/><path class="cls-16" d="M47.31,16.72a18.57,18.57,0,0,0-2.08-2.08l.68-.68a19.07,19.07,0,0,1,1.82,2.46Z"/><path class="cls-16" d="M44.85,14.33a17.53,17.53,0,0,0-2.39-1.65l.84-1.22a20.59,20.59,0,0,1,2.26,2.11Z"/><path class="cls-16" d="M42,12.44a21.2,21.2,0,0,0-2.61-1.2l.84-1.8a21.34,21.34,0,0,1,2.62,1.7Z"/><polygon class="cls-16" points="38.98 11.08 36.22 10.31 36.93 7.91 39.81 9.19 38.98 11.08"/><polygon class="cls-16" points="35.76 10.22 32.93 9.85 33.4 6.85 36.44 7.73 35.76 10.22"/><polygon class="cls-16" points="32.46 9.81 29.61 9.78 29.77 6.23 32.89 6.74 32.46 9.81"/><polygon class="cls-16" points="29.13 9.79 26.65 10 26.49 6 29.24 6.18 29.13 9.79"/></g></g></g></svg>