<svg xmlns="http://www.w3.org/2000/svg" xmlns:xlink="http://www.w3.org/1999/xlink" viewBox="0 0 150 108.14"><defs><style>.cls-1{fill:#b6e1f3;}.cls-2{fill:#fff;}.cls-3{fill:#e2e2e2;}.cls-4{fill:url(#未命名的渐变_143);}.cls-5{fill:url(#未命名的渐变_143-2);}.cls-6{fill:url(#未命名的渐变_143-3);}.cls-7{fill:url(#未命名的渐变_143-4);}.cls-8{fill:url(#未命名的渐变_143-5);}.cls-9{opacity:0.2;}</style><linearGradient id="未命名的渐变_143" x1="22.95" y1="98.09" x2="29.57" y2="98.09" gradientUnits="userSpaceOnUse"><stop offset="0" stop-color="#b7b7b7"/><stop offset="0.03" stop-color="#9b9d9d"/><stop offset="0.07" stop-color="#878b8b"/><stop offset="0.09" stop-color="#808484"/><stop offset="0.2" stop-color="#a3a6a6"/><stop offset="0.49" stop-color="#f6f6f6"/><stop offset="0.61" stop-color="#f3f3f3"/><stop offset="0.7" stop-color="#eaeaea"/><stop offset="0.77" stop-color="#dbdbdb"/><stop offset="0.83" stop-color="#c5c5c5"/><stop offset="0.9" stop-color="#aaa"/><stop offset="0.95" stop-color="#888"/><stop offset="1" stop-color="#666"/></linearGradient><linearGradient id="未命名的渐变_143-2" x1="47.28" y1="98.09" x2="53.9" y2="98.09" xlink:href="#未命名的渐变_143"/><linearGradient id="未命名的渐变_143-3" x1="71.69" y1="98.09" x2="78.31" y2="98.09" xlink:href="#未命名的渐变_143"/><linearGradient id="未命名的渐变_143-4" x1="96.85" y1="98.09" x2="103.47" y2="98.09" xlink:href="#未命名的渐变_143"/><linearGradient id="未命名的渐变_143-5" x1="120.68" y1="98.09" x2="127.3" y2="98.09" xlink:href="#未命名的渐变_143"/></defs><title>Aeration basin 2（曝气池）</title><g id="图层_2" data-name="图层 2"><g id="图层_125" data-name="图层 125"><g id="Aeration_basin_2_曝气池_" data-name="Aeration basin 2（曝气池）"><rect class="cls-1" x="4.86" y="5.55" width="140.8" height="99.09"/><path class="cls-2" d="M77.58,90.76c1.21-.76.2.31.74,1.16.2.33-.84,1.12-.93,1.51-.14.66.46.94-.29,1.41-1.21.76-3.93,2.24-4.46,1.39-.31-.49,2.37-3.1,2.69-3.7A10.75,10.75,0,0,1,77.58,90.76Z"/><path class="cls-2" d="M22,77.89c.15.18.35.16.5,0,0,0,.15-.36.21-.31s0,.58.08.74,0,0,0,0a.47.47,0,0,0,.62,0s.12-.17.16-.12a1.65,1.65,0,0,1,0,.68,2.8,2.8,0,0,1-.13.81s-.14.37-.2.37-.29-.43-.29-.43c-.18-.41-.35-.42-.58-.12h0s-.07,0-.1,0L22,78.93a1.25,1.25,0,0,1-.21-.64,1.89,1.89,0,0,1,.06-.59S22,77.89,22,77.89Z"/><path class="cls-2" d="M30,74.33c-.51.15-1.13-.42-1.37-1.26-.09-.32.36-.55.39-.83.06-.45-.2-.88.12-1,.52-.15,1.13.42,1.37,1.27.14.48-.45.8-.59,1.14S30.23,74.27,30,74.33Z"/><path class="cls-2" d="M23.16,74c.6,0,0,.26,0,1,0,.26-.54.34-.66.54s-.05.71-.42.71c-.6,0-1.89-.14-1.89-.83,0-.39,1.53-.93,1.78-1.16A2.77,2.77,0,0,1,23.16,74Z"/><path class="cls-2" d="M25.35,82.79c.53.27-.27.53-1,1.93-.27.54-.83.44-1.15.8-.51.58-.78,1.43-1.11,1.27a1.81,1.81,0,0,1-.83-2.55c.42-.81,2.34-1.21,2.8-1.56S25.12,82.68,25.35,82.79Z"/><path class="cls-2" d="M26.57,71c.59-.11.09.48.33,1.78.1.49-.42.74-.47,1.14-.08.65.21,1.35-.16,1.42-.6.11-1.94.1-2.19-1.2-.14-.74,1.2-2,1.37-2.52S26.31,71.07,26.57,71Z"/><path class="cls-2" d="M24.68,69.41c.53.27-.17.34-.63,1.24-.17.34-.71.19-.94.4-.39.34-.52.91-.84.75-.53-.27-1.58-1-1.12-1.93.26-.52,2-.53,2.34-.72S24.46,69.3,24.68,69.41Z"/><path class="cls-2" d="M28.8,87.42c.72.31-.21.5-.78,1.84-.21.51-.93.38-1.24.71-.5.54-.64,1.36-1.08,1.17-.72-.3-2.16-1.22-1.59-2.56.32-.77,2.61-1,3.09-1.36S28.5,87.29,28.8,87.42Z"/><path class="cls-2" d="M28,69.35c0,.56-.29,0-1.07,0-.29,0-.37-.51-.6-.62s-.8,0-.8-.39c0-.56.16-1.77.93-1.77.44,0,1,1.43,1.3,1.67S28,69.12,28,69.35Z"/><path class="cls-2" d="M29.13,83c.83-.48.12.22.45.8.13.22-.6.72-.67,1-.11.43.28.63-.24.93-.83.48-2.71,1.41-3,.83-.19-.33,1.69-2,1.93-2.4A7.38,7.38,0,0,1,29.13,83Z"/><path class="cls-2" d="M28.31,80.06a2.5,2.5,0,0,1-3.07.32c-.69-.51-.12-1.24.56-2.17s.73,1.13,1.42,1.64S29,79.14,28.31,80.06Z"/><path class="cls-2" d="M28.44,76.79c-.15,2.68.75,4.9,1.38,4.94s.73-2.14.88-4.81-1,1.06-1.59,1S28.6,74.12,28.44,76.79Z"/><path class="cls-2" d="M26.06,61.57c.68.33.57,2,.17,2.78s-.94.54-1.62.21.86-1.07,1.26-1.89S25.38,61.24,26.06,61.57Z"/><path class="cls-2" d="M47.17,77.4c.15.19.35.17.5-.05,0,0,.15-.36.21-.31s0,.59.08.75h0a.47.47,0,0,0,.62,0s.12-.16.16-.12a1.68,1.68,0,0,1,0,.69,2.79,2.79,0,0,1-.13.8s-.14.37-.2.38-.29-.43-.29-.43c-.18-.41-.35-.42-.58-.13h0s-.07,0-.1,0l-.34-.54A1.39,1.39,0,0,1,47,77.8a1.81,1.81,0,0,1,.06-.58S47.17,77.4,47.17,77.4Z"/><path class="cls-2" d="M55.14,73.85c-.51.15-1.13-.42-1.37-1.27-.09-.32.36-.55.39-.82.06-.45-.2-.89.12-1,.52-.14,1.13.42,1.37,1.27.14.49-.45.8-.59,1.15S55.37,73.79,55.14,73.85Z"/><path class="cls-2" d="M48.31,73.49c.59,0,0,.25,0,.94,0,.27-.55.34-.67.54s0,.71-.42.71c-.6,0-1.89-.13-1.89-.82,0-.4,1.53-.94,1.78-1.16A2.79,2.79,0,0,1,48.31,73.49Z"/><path class="cls-2" d="M50.49,82.31c.53.27-.27.52-1,1.93-.27.53-.83.44-1.15.79-.51.59-.78,1.44-1.11,1.27a1.8,1.8,0,0,1-.83-2.54c.42-.81,2.34-1.22,2.8-1.57S50.26,82.19,50.49,82.31Z"/><path class="cls-2" d="M51.71,70.54c.59-.12.09.48.33,1.78.1.49-.42.73-.47,1.13-.08.66.21,1.35-.16,1.42-.6.11-1.94.1-2.18-1.2-.15-.74,1.19-2,1.36-2.52S51.45,70.58,51.71,70.54Z"/><path class="cls-2" d="M49.82,68.93c.53.27-.17.33-.63,1.23-.17.35-.71.2-.94.41-.39.34-.52.91-.84.74-.53-.27-1.58-1-1.12-1.93.26-.51,2-.53,2.34-.72S49.6,68.81,49.82,68.93Z"/><path class="cls-2" d="M53.94,86.94c.72.3-.21.5-.78,1.84-.21.5-.93.37-1.24.7-.5.54-.64,1.36-1.08,1.18-.72-.31-2.16-1.23-1.59-2.57.32-.77,2.61-1,3.09-1.36S53.64,86.81,53.94,86.94Z"/><path class="cls-2" d="M53.1,68.87c0,.56-.29,0-1.06,0-.3,0-.38-.51-.61-.63s-.8,0-.8-.38c0-.56.16-1.78.93-1.78.44,0,1,1.44,1.3,1.67S53.1,68.63,53.1,68.87Z"/><path class="cls-2" d="M54.27,82.47c.83-.48.12.21.45.79.13.22-.6.72-.67,1-.11.43.28.63-.24.93-.83.48-2.71,1.41-3,.83-.19-.33,1.69-2,1.93-2.41A7,7,0,0,1,54.27,82.47Z"/><path class="cls-2" d="M53.45,79.57a2.48,2.48,0,0,1-3.07.33c-.69-.51-.12-1.25.56-2.17s.73,1.12,1.42,1.63S54.13,78.65,53.45,79.57Z"/><path class="cls-2" d="M53.58,76.31c-.15,2.67.76,4.9,1.38,4.93s.73-2.13.88-4.81-1,1.06-1.59,1S53.74,73.63,53.58,76.31Z"/><path class="cls-2" d="M51.2,61.08c.68.33.57,2,.17,2.78s-.94.54-1.62.21S50.61,63,51,62.18,50.52,60.75,51.2,61.08Z"/><path class="cls-2" d="M72.05,77.25a.29.29,0,0,0,.5,0s.15-.36.22-.31,0,.58.08.74,0,0,0,0a.48.48,0,0,0,.62,0s.12-.17.15-.12a1.61,1.61,0,0,1,0,.68,2.49,2.49,0,0,1-.14.81s-.13.37-.2.37-.28-.43-.28-.43c-.18-.41-.35-.42-.58-.13h0s-.08,0-.11,0l-.33-.54a1.25,1.25,0,0,1-.21-.64,1.89,1.89,0,0,1,.06-.59S72.05,77.25,72.05,77.25Z"/><path class="cls-2" d="M80,73.69c-.52.15-1.13-.42-1.37-1.26-.09-.32.36-.55.39-.83.06-.45-.21-.88.11-1,.52-.15,1.14.42,1.38,1.27.13.48-.45.8-.59,1.14S80.25,73.63,80,73.69Z"/><path class="cls-2" d="M73.19,73.33c.6,0,0,.26,0,1,0,.26-.55.34-.67.54s0,.71-.41.71c-.6,0-1.9-.14-1.9-.83,0-.39,1.54-.93,1.79-1.16A2.74,2.74,0,0,1,73.19,73.33Z"/><path class="cls-2" d="M75.37,82.15c.53.27-.26.52-1,1.93-.27.54-.84.44-1.15.8-.52.58-.78,1.43-1.11,1.26a1.79,1.79,0,0,1-.83-2.54c.41-.81,2.34-1.21,2.8-1.57S75.15,82,75.37,82.15Z"/><path class="cls-2" d="M76.59,70.38c.6-.11.09.48.34,1.78.09.49-.43.74-.47,1.14-.08.65.2,1.35-.17,1.42-.59.11-1.93.1-2.18-1.2-.14-.75,1.2-2,1.37-2.52S76.34,70.43,76.59,70.38Z"/><path class="cls-2" d="M74.71,68.77c.52.27-.17.34-.63,1.24-.18.34-.71.19-1,.4s-.51.91-.84.75c-.52-.27-1.58-1-1.12-1.93.27-.52,2-.53,2.35-.72S74.48,68.66,74.71,68.77Z"/><path class="cls-2" d="M78.83,86.78c.72.31-.21.5-.78,1.84-.22.51-.93.38-1.24.71-.51.54-.64,1.36-1.09,1.17-.71-.3-2.15-1.22-1.59-2.57.33-.77,2.61-1,3.1-1.35S78.52,86.65,78.83,86.78Z"/><path class="cls-2" d="M78,68.71c0,.56-.29,0-1.06,0-.29,0-.38-.51-.6-.62s-.8,0-.8-.39c0-.56.15-1.77.93-1.77.44,0,1,1.43,1.3,1.67S78,68.48,78,68.71Z"/><path class="cls-2" d="M79.15,82.31c.84-.48.13.22.46.8.13.21-.6.72-.67,1-.12.43.28.63-.24.93-.84.48-2.71,1.41-3,.83-.19-.33,1.7-2,1.94-2.4A7.31,7.31,0,0,1,79.15,82.31Z"/><path class="cls-2" d="M78.33,79.42a2.48,2.48,0,0,1-3.06.32c-.69-.51-.12-1.24.56-2.17s.72,1.13,1.41,1.64S79,78.5,78.33,79.42Z"/><path class="cls-2" d="M78.47,76.15c-.15,2.67.75,4.9,1.37,4.94s.74-2.14.89-4.81-1,1-1.6,1S78.62,73.48,78.47,76.15Z"/><path class="cls-2" d="M76.08,60.93c.68.33.57,2,.17,2.78s-.93.54-1.61.21S75.5,62.85,75.9,62,75.41,60.6,76.08,60.93Z"/><path class="cls-2" d="M96.73,77.73c.16.19.36.17.5,0,0,0,.16-.35.22-.31s0,.59.08.75h0a.47.47,0,0,0,.62,0s.12-.16.15-.12a1.66,1.66,0,0,1,.05.69,2.48,2.48,0,0,1-.14.8s-.13.38-.2.38-.28-.43-.28-.43c-.18-.41-.35-.42-.58-.13h0s-.08,0-.11,0l-.33-.54a1.28,1.28,0,0,1-.21-.65,1.81,1.81,0,0,1,.06-.58S96.73,77.73,96.73,77.73Z"/><path class="cls-2" d="M104.71,74.18c-.52.15-1.13-.42-1.37-1.27-.09-.32.36-.54.39-.82.06-.45-.21-.88.12-1,.51-.14,1.13.43,1.37,1.27.13.49-.45.8-.59,1.15S104.93,74.12,104.71,74.18Z"/><path class="cls-2" d="M97.87,73.82c.6,0,0,.26,0,.94,0,.27-.55.34-.67.54s0,.71-.41.71c-.6,0-1.9-.13-1.9-.82,0-.4,1.54-.93,1.79-1.16A2.74,2.74,0,0,1,97.87,73.82Z"/><path class="cls-2" d="M100.05,82.64c.54.27-.26.52-1,1.93-.27.53-.84.44-1.15.8-.52.58-.78,1.43-1.11,1.26A1.79,1.79,0,0,1,96,84.09c.41-.81,2.34-1.22,2.8-1.57S99.83,82.52,100.05,82.64Z"/><path class="cls-2" d="M101.27,70.87c.6-.12.09.48.34,1.78.09.49-.43.73-.47,1.13-.08.66.2,1.35-.17,1.42-.59.11-1.93.1-2.18-1.19-.14-.75,1.2-2.05,1.37-2.53S101,70.91,101.27,70.87Z"/><path class="cls-2" d="M99.39,69.26c.52.27-.17.33-.63,1.24-.18.34-.71.19-1,.4-.39.34-.51.91-.84.74-.52-.27-1.58-1-1.12-1.93.27-.51,2-.53,2.35-.71S99.16,69.15,99.39,69.26Z"/><path class="cls-2" d="M103.51,87.27c.72.3-.21.5-.78,1.84-.22.51-.93.37-1.24.7-.51.54-.64,1.36-1.09,1.18-.71-.31-2.15-1.23-1.59-2.57.33-.77,2.61-1,3.1-1.36S103.2,87.14,103.51,87.27Z"/><path class="cls-2" d="M102.66,69.2c0,.56-.29,0-1.06,0-.29,0-.38-.51-.6-.62-.37-.19-.8,0-.8-.39,0-.56.15-1.78.93-1.78.44,0,1,1.44,1.3,1.67A2.24,2.24,0,0,1,102.66,69.2Z"/><path class="cls-2" d="M103.83,82.8c.84-.48.13.21.46.79.13.22-.6.72-.67,1-.12.43.28.63-.24.93-.84.48-2.71,1.41-3,.83-.19-.33,1.7-2,1.94-2.41A7,7,0,0,1,103.83,82.8Z"/><path class="cls-2" d="M103,79.91a2.48,2.48,0,0,1-3.06.32c-.69-.51-.12-1.25.56-2.17s.72,1.12,1.41,1.63S103.69,79,103,79.91Z"/><path class="cls-2" d="M103.15,76.64c-.15,2.67.75,4.9,1.37,4.93s.74-2.13.89-4.8-1,1-1.6,1S103.3,74,103.15,76.64Z"/><path class="cls-2" d="M100.76,61.41c.68.33.57,2,.17,2.78s-.93.54-1.61.21.86-1.06,1.26-1.89S100.09,61.09,100.76,61.41Z"/><path class="cls-2" d="M119.88,78.22c.16.19.36.17.51,0,0,0,.15-.35.21-.31s0,.59.08.75,0,0,0,0a.46.46,0,0,0,.62,0s.12-.16.15-.11a1.59,1.59,0,0,1,0,.68,2.73,2.73,0,0,1-.13.8s-.14.38-.2.38-.29-.43-.29-.43c-.18-.41-.35-.42-.58-.13h0a.05.05,0,0,1-.1,0l-.34-.54a1.28,1.28,0,0,1-.21-.65,1.83,1.83,0,0,1,.06-.58S119.88,78.22,119.88,78.22Z"/><path class="cls-2" d="M127.86,74.67c-.52.15-1.13-.42-1.37-1.27-.09-.32.36-.54.39-.82.06-.45-.21-.88.12-1,.52-.15,1.13.42,1.37,1.26.14.49-.45.81-.59,1.15S128.08,74.61,127.86,74.67Z"/><path class="cls-2" d="M121,74.31c.6,0,0,.26,0,1,0,.26-.54.33-.66.53s0,.71-.42.71c-.6,0-1.9-.13-1.9-.82,0-.4,1.54-.93,1.79-1.16A2.74,2.74,0,0,1,121,74.31Z"/><path class="cls-2" d="M123.2,83.13c.54.27-.26.52-1,1.93-.27.54-.84.44-1.15.8-.52.58-.78,1.43-1.11,1.26a1.79,1.79,0,0,1-.83-2.54c.41-.81,2.34-1.21,2.8-1.57S123,83,123.2,83.13Z"/><path class="cls-2" d="M124.42,71.36c.6-.11.1.48.34,1.78.09.49-.43.73-.47,1.13-.08.66.2,1.35-.17,1.42-.59.11-1.93.11-2.18-1.19-.14-.75,1.2-2,1.37-2.53S124.17,71.41,124.42,71.36Z"/><path class="cls-2" d="M122.54,69.75c.52.27-.17.34-.63,1.24-.18.34-.71.19-1,.4s-.51.91-.84.74c-.52-.27-1.57-1-1.12-1.92.27-.52,2-.54,2.35-.72S122.31,69.64,122.54,69.75Z"/><path class="cls-2" d="M126.66,87.76c.72.3-.21.5-.78,1.84-.22.51-.93.38-1.24.7-.5.54-.64,1.37-1.09,1.18-.71-.31-2.15-1.23-1.58-2.57.32-.77,2.6-1,3.09-1.35S126.36,87.63,126.66,87.76Z"/><path class="cls-2" d="M125.81,69.69c0,.56-.28,0-1.06,0-.29,0-.38-.51-.6-.62-.37-.19-.8,0-.8-.39,0-.56.15-1.78.93-1.78.44,0,1,1.44,1.3,1.67A2.24,2.24,0,0,1,125.81,69.69Z"/><path class="cls-2" d="M127,83.29c.83-.48.12.21.45.79.13.22-.6.72-.67,1-.11.43.28.63-.24.93-.84.48-2.71,1.41-3,.83-.19-.33,1.7-2,1.94-2.41A6.8,6.8,0,0,1,127,83.29Z"/><path class="cls-2" d="M126.16,80.4a2.48,2.48,0,0,1-3.06.32c-.69-.51-.12-1.25.56-2.17s.72,1.12,1.42,1.63S126.84,79.47,126.16,80.4Z"/><path class="cls-2" d="M126.3,77.13c-.15,2.67.75,4.9,1.38,4.93s.73-2.13.88-4.8-1,1-1.59,1S126.45,74.45,126.3,77.13Z"/><path class="cls-2" d="M123.92,61.9c.67.33.56,2,.17,2.78s-.94.54-1.62.22.86-1.07,1.26-1.9S123.24,61.58,123.92,61.9Z"/><path class="cls-2" d="M78.66,78.75c-1.18,1.61-5,.77-6.8-.52s-.75-2.57.43-4.18,2.07,2.55,3.83,3.85S79.85,77.14,78.66,78.75Z"/><polygon class="cls-3" points="145.15 0 145.15 104.35 4.41 104.35 4.41 0 0 0 0 108.14 150 108.14 150 0 145.15 0"/><rect class="cls-4" x="22.95" y="91.17" width="6.62" height="13.85"/><rect class="cls-5" x="47.28" y="91.17" width="6.62" height="13.85"/><rect class="cls-6" x="71.69" y="91.17" width="6.62" height="13.85"/><rect class="cls-7" x="96.85" y="91.17" width="6.62" height="13.85"/><rect class="cls-8" x="120.68" y="91.17" width="6.62" height="13.85"/></g></g></g></svg>