<svg xmlns="http://www.w3.org/2000/svg" xmlns:xlink="http://www.w3.org/1999/xlink" viewBox="0 0 149.96 137.97"><defs><style>.cls-1{fill:url(#未命名的渐变_105);}.cls-2{fill:url(#未命名的渐变_105-2);}.cls-3{fill:url(#未命名的渐变_105-3);}.cls-4{fill:url(#未命名的渐变_105-4);}.cls-5{fill:url(#未命名的渐变_105-5);}.cls-6{fill:url(#未命名的渐变_105-6);}.cls-7{fill:url(#未命名的渐变_105-7);}.cls-8{fill:url(#未命名的渐变_105-8);}.cls-9{fill:url(#未命名的渐变_105-9);}.cls-10{fill:url(#未命名的渐变_105-10);}.cls-11{fill:url(#未命名的渐变_105-11);}.cls-12{fill:url(#未命名的渐变_105-12);}.cls-13{fill:url(#未命名的渐变_105-13);}.cls-14{fill:url(#未命名的渐变_105-14);}.cls-15{fill:url(#未命名的渐变_105-15);}.cls-16{fill:url(#未命名的渐变_105-16);}.cls-17{fill:url(#未命名的渐变_105-17);}.cls-18{fill:url(#未命名的渐变_105-18);}.cls-19{fill:url(#未命名的渐变_67);}.cls-20{fill:url(#未命名的渐变_105-19);}.cls-21{fill:url(#未命名的渐变_67-2);}.cls-22{fill:url(#未命名的渐变_105-20);}.cls-23{fill:url(#未命名的渐变_67-3);}.cls-24{fill:url(#未命名的渐变_105-21);}.cls-25{fill:url(#未命名的渐变_67-4);}.cls-26{fill:url(#未命名的渐变_105-22);}.cls-27{fill:url(#未命名的渐变_67-5);}.cls-28{fill:url(#未命名的渐变_105-23);}.cls-29{fill:url(#未命名的渐变_105-24);}.cls-30{fill:url(#未命名的渐变_105-25);}.cls-31{fill:url(#未命名的渐变_105-26);}.cls-32{fill:url(#未命名的渐变_105-27);}.cls-33{fill:url(#未命名的渐变_143);}.cls-34{fill:url(#未命名的渐变_143-2);}.cls-35{fill:url(#未命名的渐变_143-3);}.cls-36{fill:url(#未命名的渐变_143-4);}.cls-37{fill:url(#未命名的渐变_143-5);}.cls-38{fill:url(#未命名的渐变_143-6);}.cls-39{fill:url(#未命名的渐变_143-7);}.cls-40{fill:url(#未命名的渐变_143-8);}.cls-41{fill:url(#未命名的渐变_143-9);}.cls-42{fill:url(#未命名的渐变_143-10);}.cls-43{fill:url(#未命名的渐变_143-11);}.cls-44{fill:url(#未命名的渐变_143-12);}.cls-45{opacity:0.2;}</style><linearGradient id="未命名的渐变_105" y1="82.48" x2="149.96" y2="82.48" gradientUnits="userSpaceOnUse"><stop offset="0" stop-color="#e2e2e2"/><stop offset="0.03" stop-color="#d0d0d0"/><stop offset="0.06" stop-color="#bcbcbc"/><stop offset="0.09" stop-color="#b5b5b5"/><stop offset="0.49" stop-color="#f6f6f6"/><stop offset="0.63" stop-color="#f3f3f3"/><stop offset="0.73" stop-color="#eaeaea"/><stop offset="0.82" stop-color="#dbdbdb"/><stop offset="0.9" stop-color="#c6c6c6"/><stop offset="0.97" stop-color="#aaa"/><stop offset="1" stop-color="#9b9b9b"/></linearGradient><linearGradient id="未命名的渐变_105-2" x1="113.89" y1="13.88" x2="116.06" y2="13.88" xlink:href="#未命名的渐变_105"/><linearGradient id="未命名的渐变_105-3" x1="122.03" y1="13.88" x2="124.2" y2="13.88" xlink:href="#未命名的渐变_105"/><linearGradient id="未命名的渐变_105-4" x1="130.18" y1="13.88" x2="132.34" y2="13.88" xlink:href="#未命名的渐变_105"/><linearGradient id="未命名的渐变_105-5" x1="138.32" y1="13.88" x2="140.49" y2="13.88" xlink:href="#未命名的渐变_105"/><linearGradient id="未命名的渐变_105-6" x1="146.46" y1="13.88" x2="148.63" y2="13.88" xlink:href="#未命名的渐变_105"/><linearGradient id="未命名的渐变_105-7" x1="1.09" y1="13.88" x2="3.25" y2="13.88" xlink:href="#未命名的渐变_105"/><linearGradient id="未命名的渐变_105-8" x1="-2701.85" y1="2112.78" x2="-2698.51" y2="2112.78" gradientTransform="translate(2749.76 -2106.73)" xlink:href="#未命名的渐变_105"/><linearGradient id="未命名的渐变_105-9" x1="9.23" y1="13.88" x2="11.4" y2="13.88" xlink:href="#未命名的渐变_105"/><linearGradient id="未命名的渐变_105-10" x1="17.37" y1="13.88" x2="19.54" y2="13.88" xlink:href="#未命名的渐变_105"/><linearGradient id="未命名的渐变_105-11" x1="25.52" y1="13.88" x2="27.68" y2="13.88" xlink:href="#未命名的渐变_105"/><linearGradient id="未命名的渐变_105-12" x1="33.66" y1="13.88" x2="35.83" y2="13.88" xlink:href="#未命名的渐变_105"/><linearGradient id="未命名的渐变_105-13" x1="41.2" y1="13.88" x2="43.37" y2="13.88" xlink:href="#未命名的渐变_105"/><linearGradient id="未命名的渐变_105-14" x1="49.35" y1="13.88" x2="51.51" y2="13.88" xlink:href="#未命名的渐变_105"/><linearGradient id="未命名的渐变_105-15" x1="57.49" y1="13.88" x2="59.66" y2="13.88" xlink:href="#未命名的渐变_105"/><linearGradient id="未命名的渐变_105-16" x1="65.63" y1="13.88" x2="67.8" y2="13.88" xlink:href="#未命名的渐变_105"/><linearGradient id="未命名的渐变_105-17" x1="88.77" y1="69.91" x2="90.93" y2="69.91" xlink:href="#未命名的渐变_105"/><linearGradient id="未命名的渐变_105-18" x1="-2643.77" y1="2056.15" x2="-2640.44" y2="2056.15" gradientTransform="translate(2748.31 -1992.02)" xlink:href="#未命名的渐变_105"/><linearGradient id="未命名的渐变_67" x1="89.35" y1="64.66" x2="90.97" y2="64.66" gradientUnits="userSpaceOnUse"><stop offset="0" stop-color="#6b6b6b"/><stop offset="0.11" stop-color="#767676"/><stop offset="0.3" stop-color="#959595"/><stop offset="0.41" stop-color="#aaa"/><stop offset="0.56" stop-color="#ccc"/><stop offset="0.71" stop-color="#eaeaea"/><stop offset="0.8" stop-color="#f6f6f6"/><stop offset="0.83" stop-color="#ededed"/><stop offset="0.87" stop-color="#d4d4d4"/><stop offset="0.92" stop-color="#ababab"/><stop offset="0.98" stop-color="#737373"/><stop offset="0.99" stop-color="#666"/></linearGradient><linearGradient id="未命名的渐变_105-19" x1="96.88" y1="69.91" x2="99.04" y2="69.91" xlink:href="#未命名的渐变_105"/><linearGradient id="未命名的渐变_67-2" x1="97.46" y1="64.4" x2="99.08" y2="64.4" xlink:href="#未命名的渐变_67"/><linearGradient id="未命名的渐变_105-20" x1="104.99" y1="69.91" x2="107.15" y2="69.91" xlink:href="#未命名的渐变_105"/><linearGradient id="未命名的渐变_67-3" x1="105.56" y1="64.13" x2="107.19" y2="64.13" xlink:href="#未命名的渐变_67"/><linearGradient id="未命名的渐变_105-21" x1="113.1" y1="69.91" x2="115.26" y2="69.91" xlink:href="#未命名的渐变_105"/><linearGradient id="未命名的渐变_67-4" x1="113.67" y1="63.86" x2="115.29" y2="63.86" xlink:href="#未命名的渐变_67"/><linearGradient id="未命名的渐变_105-22" x1="121.21" y1="69.91" x2="123.37" y2="69.91" xlink:href="#未命名的渐变_105"/><linearGradient id="未命名的渐变_67-5" x1="121.78" y1="63.59" x2="123.4" y2="63.59" xlink:href="#未命名的渐变_67"/><linearGradient id="未命名的渐变_105-23" x1="73.78" y1="13.88" x2="75.94" y2="13.88" xlink:href="#未命名的渐变_105"/><linearGradient id="未命名的渐变_105-24" x1="81.86" y1="13.88" x2="84.03" y2="13.88" xlink:href="#未命名的渐变_105"/><linearGradient id="未命名的渐变_105-25" x1="90" y1="13.88" x2="92.17" y2="13.88" xlink:href="#未命名的渐变_105"/><linearGradient id="未命名的渐变_105-26" x1="98.15" y1="13.88" x2="100.31" y2="13.88" xlink:href="#未命名的渐变_105"/><linearGradient id="未命名的渐变_105-27" x1="-2702.14" y1="2031.1" x2="-2698.8" y2="2031.1" gradientTransform="translate(2831.73 -2025.33)" xlink:href="#未命名的渐变_105"/><linearGradient id="未命名的渐变_143" x1="-2624.82" y1="2074.8" x2="-2624.82" y2="2036.84" gradientTransform="translate(2731.36 -1974.41)" gradientUnits="userSpaceOnUse"><stop offset="0" stop-color="#b7b7b7"/><stop offset="0.03" stop-color="#9b9d9d"/><stop offset="0.07" stop-color="#878b8b"/><stop offset="0.09" stop-color="#808484"/><stop offset="0.2" stop-color="#a3a6a6"/><stop offset="0.49" stop-color="#f6f6f6"/><stop offset="0.61" stop-color="#f3f3f3"/><stop offset="0.7" stop-color="#eaeaea"/><stop offset="0.77" stop-color="#dbdbdb"/><stop offset="0.83" stop-color="#c5c5c5"/><stop offset="0.9" stop-color="#aaa"/><stop offset="0.95" stop-color="#888"/><stop offset="1" stop-color="#666"/></linearGradient><linearGradient id="未命名的渐变_143-2" x1="0" y1="21.57" x2="149.96" y2="21.57" gradientTransform="matrix(1, 0, 0, 1, 0, 0)" xlink:href="#未命名的渐变_143"/><linearGradient id="未命名的渐变_143-3" x1="107.17" y1="9.01" x2="107.17" y2="7.29" gradientTransform="matrix(1, 0, 0, 1, 0, 0)" xlink:href="#未命名的渐变_143"/><linearGradient id="未命名的渐变_143-4" x1="107.17" y1="18.43" x2="107.17" y2="16.7" gradientTransform="matrix(1, 0, 0, 1, 0, 0)" xlink:href="#未命名的渐变_143"/><linearGradient id="未命名的渐变_143-5" x1="107.17" y1="27.85" x2="107.17" y2="26.12" gradientTransform="matrix(1, 0, 0, 1, 0, 0)" xlink:href="#未命名的渐变_143"/><linearGradient id="未命名的渐变_143-6" x1="107.17" y1="37.26" x2="107.17" y2="35.54" gradientTransform="matrix(1, 0, 0, 1, 0, 0)" xlink:href="#未命名的渐变_143"/><linearGradient id="未命名的渐变_143-7" x1="107.17" y1="46.68" x2="107.17" y2="44.95" gradientTransform="matrix(1, 0, 0, 1, 0, 0)" xlink:href="#未命名的渐变_143"/><linearGradient id="未命名的渐变_143-8" x1="106.54" y1="57.07" x2="106.54" y2="55.34" gradientTransform="matrix(1, 0, 0, 1, 0, 0)" xlink:href="#未命名的渐变_143"/><linearGradient id="未命名的渐变_143-9" x1="107.17" y1="66.53" x2="107.17" y2="64.8" gradientTransform="matrix(1, 0, 0, 1, 0, 0)" xlink:href="#未命名的渐变_143"/><linearGradient id="未命名的渐变_143-10" x1="107.17" y1="75.74" x2="107.17" y2="74.02" gradientTransform="matrix(1, 0, 0, 1, 0, 0)" xlink:href="#未命名的渐变_143"/><linearGradient id="未命名的渐变_143-11" x1="-759.02" y1="39.13" x2="-757.12" y2="39.13" gradientTransform="matrix(1, 0, 0, -1, 857.63, 78.25)" xlink:href="#未命名的渐变_143"/><linearGradient id="未命名的渐变_143-12" x1="-774.57" y1="39.6" x2="-772.66" y2="39.6" gradientTransform="matrix(1, 0, 0, -1, 888.72, 79.19)" xlink:href="#未命名的渐变_143"/></defs><title>Aeration digester （曝气池)</title><g id="图层_2" data-name="图层 2"><g id="图层_125" data-name="图层 125"><g id="Aeration_digester_曝气池_" data-name="Aeration digester （曝气池)"><rect class="cls-1" y="26.98" width="149.96" height="110.98"/><rect class="cls-2" x="113.89" width="2.17" height="27.76"/><rect class="cls-3" x="122.03" width="2.17" height="27.76"/><rect class="cls-4" x="130.18" width="2.17" height="27.76"/><rect class="cls-5" x="138.32" width="2.17" height="27.76"/><rect class="cls-6" x="146.46" width="2.17" height="27.76"/><rect class="cls-7" x="1.09" width="2.17" height="27.76"/><rect class="cls-8" x="47.91" y="-43.3" width="3.34" height="98.71" transform="translate(55.63 -43.53) rotate(90)"/><rect class="cls-9" x="9.23" width="2.17" height="27.76"/><rect class="cls-10" x="17.37" width="2.17" height="27.76"/><rect class="cls-11" x="25.52" width="2.17" height="27.76"/><rect class="cls-12" x="33.66" width="2.17" height="27.76"/><rect class="cls-13" x="41.2" width="2.17" height="27.76"/><rect class="cls-14" x="49.35" width="2.17" height="27.76"/><rect class="cls-15" x="57.49" width="2.17" height="27.76"/><rect class="cls-16" x="65.63" width="2.17" height="27.76"/><rect class="cls-17" x="88.77" y="58.3" width="2.16" height="23.21"/><rect class="cls-18" x="104.55" y="45.83" width="3.33" height="36.59" transform="translate(170.34 -42.08) rotate(90)"/><ellipse class="cls-19" cx="89.85" cy="64.66" rx="1.08" ry="1.66"/><rect class="cls-20" x="96.88" y="58.3" width="2.16" height="23.21"/><ellipse class="cls-21" cx="97.96" cy="64.4" rx="1.08" ry="1.66"/><rect class="cls-22" x="104.99" y="58.3" width="2.16" height="23.21"/><ellipse class="cls-23" cx="106.07" cy="64.13" rx="1.08" ry="1.66"/><rect class="cls-24" x="113.1" y="58.3" width="2.16" height="23.21"/><ellipse class="cls-25" cx="114.18" cy="63.86" rx="1.08" ry="1.66"/><rect class="cls-26" x="121.21" y="58.3" width="2.16" height="23.21"/><ellipse class="cls-27" cx="122.29" cy="63.59" rx="1.08" ry="1.66"/><rect class="cls-28" x="73.78" width="2.17" height="27.76"/><rect class="cls-29" x="81.86" width="2.17" height="27.76"/><rect class="cls-30" x="90" width="2.17" height="27.76"/><rect class="cls-31" x="98.15" width="2.17" height="27.76"/><rect class="cls-32" x="129.59" y="-12.49" width="3.34" height="36.52" transform="translate(137.03 -125.49) rotate(90)"/><rect class="cls-33" x="104.07" y="62.43" width="4.94" height="37.96" rx="0.25" transform="translate(187.95 -25.13) rotate(90)"/><rect class="cls-34" y="15.38" width="149.96" height="12.39"/><rect class="cls-35" x="99.56" y="7.29" width="15.23" height="1.73"/><rect class="cls-36" x="99.56" y="16.7" width="15.23" height="1.73"/><rect class="cls-37" x="99.56" y="26.12" width="15.23" height="1.73"/><rect class="cls-38" x="99.56" y="35.54" width="15.23" height="1.73"/><rect class="cls-39" x="99.56" y="44.95" width="15.23" height="1.73"/><rect class="cls-40" x="98.93" y="55.34" width="15.23" height="1.73"/><rect class="cls-41" x="99.56" y="64.8" width="15.23" height="1.73"/><rect class="cls-42" x="99.56" y="74.02" width="15.23" height="1.73"/><rect class="cls-43" x="98.61" width="1.91" height="78.25" rx="0.11" transform="translate(199.12 78.25) rotate(-180)"/><rect class="cls-44" x="114.15" y="0.47" width="1.91" height="78.25" rx="0.11" transform="translate(230.21 79.19) rotate(180)"/></g></g></g></svg>