<svg xmlns="http://www.w3.org/2000/svg" xmlns:xlink="http://www.w3.org/1999/xlink" viewBox="0 0 80.7 150"><defs><style>.cls-1{fill:url(#未命名的渐变_38);}.cls-2{opacity:0.4;}.cls-3{fill:#5c6066;}.cls-4{fill:url(#未命名的渐变_45);}.cls-5{fill:#999;}.cls-6{fill:#a1a8b3;}.cls-7{fill:url(#未命名的渐变_42);}.cls-8{fill:#737880;}.cls-9{fill:url(#未命名的渐变_42-2);}.cls-10{fill:none;stroke:#5f6366;stroke-miterlimit:10;stroke-width:0.29px;}.cls-11{fill:#c4c7cc;}.cls-12{fill:url(#未命名的渐变_46);}.cls-13{fill:url(#未命名的渐变_46-2);}.cls-14{fill:url(#未命名的渐变_46-3);}.cls-15{opacity:0.2;}</style><linearGradient id="未命名的渐变_38" x1="-157.21" y1="-80.22" x2="-157.21" y2="-160.92" gradientTransform="matrix(2.58, 0, 0, 1, 446.19, 195.57)" gradientUnits="userSpaceOnUse"><stop offset="0" stop-color="#676b70"/><stop offset="0.02" stop-color="#777c80"/><stop offset="0.25" stop-color="#747980"/><stop offset="0.26" stop-color="#d1d5db"/><stop offset="0.74" stop-color="#c7cfdb"/><stop offset="0.75" stop-color="#edf5ff"/><stop offset="0.76" stop-color="#c3c7cc"/><stop offset="1" stop-color="#929599"/></linearGradient><linearGradient id="未命名的渐变_45" x1="40.52" y1="140.1" x2="40.52" y2="97.24" gradientUnits="userSpaceOnUse"><stop offset="0" stop-color="#f5faff"/><stop offset="1" stop-color="#2e3033"/></linearGradient><linearGradient id="未命名的渐变_42" x1="45.41" y1="62.27" x2="45.41" y2="50.4" gradientUnits="userSpaceOnUse"><stop offset="0" stop-color="#5c6066"/><stop offset="1" stop-color="#f5faff"/></linearGradient><linearGradient id="未命名的渐变_42-2" x1="48.27" y1="11.18" x2="48.27" y2="6.1" xlink:href="#未命名的渐变_42"/><linearGradient id="未命名的渐变_46" x1="70.52" y1="37.23" x2="70.52" y2="32.33" gradientUnits="userSpaceOnUse"><stop offset="0" stop-color="#f5faff"/><stop offset="1" stop-color="#5c6066"/></linearGradient><linearGradient id="未命名的渐变_46-2" x1="70.52" y1="70.85" x2="70.52" y2="65.95" xlink:href="#未命名的渐变_46"/><linearGradient id="未命名的渐变_46-3" x1="70.52" y1="113.6" x2="70.52" y2="108.7" xlink:href="#未命名的渐变_46"/></defs><title>Air handing unit 2(空调箱2)</title><g id="图层_2" data-name="图层 2"><g id="图层_6" data-name="图层 6"><g id="Air_handing_unit_2_空调箱2_" data-name="Air handing unit 2(空调箱2)"><rect class="cls-1" x="-34.65" y="34.65" width="150" height="80.7" transform="translate(115.35 34.65) rotate(90)"/><rect class="cls-2" x="37.21" y="-37.21" width="6.28" height="80.7" transform="translate(43.48 -37.21) rotate(89.98)"/><rect class="cls-3" x="23.22" y="97.24" width="34.59" height="42.87"/><path class="cls-4" d="M57.22,97.82v41.7H23.81V97.82H57.22m.59-.58H23.22V140.1H57.81V97.24Z"/><polygon class="cls-5" points="55.14 102.63 53.96 102.63 53.96 9.23 50.69 9.23 50.69 8.06 55.14 8.06 55.14 102.63"/><rect class="cls-2" x="37.21" y="106.51" width="6.28" height="80.7" transform="translate(187.19 106.45) rotate(89.98)"/><rect class="cls-2" x="21.55" y="33.61" width="2.35" height="45.45" transform="matrix(0, 1, -1, 0, 79.05, 33.58)"/><rect class="cls-6" x="36.85" y="50.4" width="17.11" height="11.87"/><path class="cls-7" d="M53.38,51V61.69h-16V51h16M54,50.4H36.85V62.27H54V50.4Z"/><rect class="cls-8" x="43.93" y="6.1" width="8.68" height="5.08"/><path class="cls-9" d="M52.34,6.37v4.54H44.2V6.37h8.14m.27-.27H43.93v5.08h8.68V6.1Z"/><line class="cls-10" x1="63.64" y1="20.37" x2="77.08" y2="20.37"/><line class="cls-10" x1="63.64" y1="25.18" x2="77.08" y2="25.18"/><line class="cls-10" x1="63.64" y1="29.98" x2="77.08" y2="29.98"/><line class="cls-10" x1="63.64" y1="34.78" x2="77.08" y2="34.78"/><line class="cls-10" x1="63.64" y1="39.58" x2="77.08" y2="39.58"/><line class="cls-10" x1="63.64" y1="44.39" x2="77.08" y2="44.39"/><line class="cls-10" x1="63.64" y1="49.19" x2="77.08" y2="49.19"/><line class="cls-10" x1="63.64" y1="53.99" x2="77.08" y2="53.99"/><line class="cls-10" x1="63.64" y1="58.79" x2="77.08" y2="58.79"/><line class="cls-10" x1="63.64" y1="63.6" x2="77.08" y2="63.6"/><line class="cls-10" x1="63.64" y1="68.4" x2="77.08" y2="68.4"/><line class="cls-10" x1="63.64" y1="73.2" x2="77.08" y2="73.2"/><line class="cls-10" x1="63.64" y1="78.01" x2="77.08" y2="78.01"/><line class="cls-10" x1="63.64" y1="82.81" x2="77.08" y2="82.81"/><line class="cls-10" x1="63.64" y1="87.61" x2="77.08" y2="87.61"/><line class="cls-10" x1="63.64" y1="92.41" x2="77.08" y2="92.41"/><line class="cls-10" x1="63.64" y1="97.22" x2="77.08" y2="97.22"/><line class="cls-10" x1="63.64" y1="102.02" x2="77.08" y2="102.02"/><line class="cls-10" x1="63.64" y1="106.82" x2="77.08" y2="106.82"/><line class="cls-10" x1="63.64" y1="111.62" x2="77.08" y2="111.62"/><line class="cls-10" x1="63.64" y1="116.43" x2="77.08" y2="116.43"/><line class="cls-10" x1="63.64" y1="121.23" x2="77.08" y2="121.23"/><line class="cls-10" x1="63.64" y1="126.03" x2="77.08" y2="126.03"/><rect class="cls-11" x="64.87" y="32.33" width="11.29" height="4.9"/><path class="cls-12" d="M76,32.54V37H65.08V32.54H76m.21-.21H64.87v4.9H76.16v-4.9Z"/><rect class="cls-11" x="64.87" y="65.95" width="11.29" height="4.9"/><path class="cls-13" d="M76,66.16v4.48H65.08V66.16H76m.21-.21H64.87v4.9H76.16V66Z"/><rect class="cls-11" x="64.87" y="108.7" width="11.29" height="4.9"/><path class="cls-14" d="M76,108.91v4.49H65.08v-4.49H76m.21-.21H64.87v4.9H76.16v-4.9Z"/></g></g></g></svg>