<svg xmlns="http://www.w3.org/2000/svg" xmlns:xlink="http://www.w3.org/1999/xlink" viewBox="0 0 102.69 150"><defs><style>.cls-1{fill:url(#未命名的渐变_74);}.cls-2{fill:url(#未命名的渐变_143);}.cls-3{fill:url(#未命名的渐变_143-2);}.cls-4{fill:url(#未命名的渐变_105);}.cls-5{fill:url(#未命名的渐变_143-3);}.cls-6{fill:url(#未命名的渐变_105-2);}.cls-7{fill:url(#未命名的渐变_143-4);}.cls-8{fill:url(#未命名的渐变_143-5);}.cls-9{fill:url(#未命名的渐变_143-6);}.cls-10{fill:url(#未命名的渐变_143-7);}.cls-11{fill:url(#未命名的渐变_143-8);}.cls-12{fill:url(#未命名的渐变_143-9);}.cls-13{fill:url(#未命名的渐变_143-10);}.cls-14{fill:url(#未命名的渐变_143-11);}.cls-15{fill:url(#未命名的渐变_143-12);}.cls-16{fill:url(#未命名的渐变_143-13);}.cls-17{fill:url(#未命名的渐变_143-14);}.cls-18{fill:url(#未命名的渐变_143-15);}.cls-19{fill:url(#未命名的渐变_143-16);}.cls-20{fill:url(#未命名的渐变_105-3);}.cls-21{fill:url(#未命名的渐变_143-17);}.cls-22{fill:url(#未命名的渐变_105-4);}.cls-23{fill:url(#未命名的渐变_143-18);}.cls-24{fill:url(#未命名的渐变_143-19);}.cls-25{fill:url(#未命名的渐变_143-20);}.cls-26{fill:url(#未命名的渐变_105-5);}.cls-27{fill:url(#未命名的渐变_143-21);}.cls-28{fill:url(#未命名的渐变_105-6);}.cls-29{fill:url(#未命名的渐变_143-22);}.cls-30{fill:url(#未命名的渐变_143-23);}.cls-31{fill:url(#未命名的渐变_143-24);}.cls-32{fill:url(#未命名的渐变_143-25);}.cls-33{fill:url(#未命名的渐变_143-26);}.cls-34{fill:url(#未命名的渐变_143-27);}.cls-35{fill:url(#未命名的渐变_143-28);}.cls-36{fill:url(#未命名的渐变_143-29);}.cls-37{fill:url(#未命名的渐变_143-30);}.cls-38{fill:url(#未命名的渐变_143-31);}.cls-39{fill:url(#未命名的渐变_105-7);}.cls-40{fill:url(#未命名的渐变_143-32);}.cls-41{fill:url(#未命名的渐变_105-8);}.cls-42{fill:url(#未命名的渐变_105-9);}.cls-43{fill:url(#未命名的渐变_143-33);}.cls-44{fill:url(#未命名的渐变_143-34);}.cls-45{opacity:0.2;}</style><linearGradient id="未命名的渐变_74" y1="75" x2="102.69" y2="75" gradientUnits="userSpaceOnUse"><stop offset="0" stop-color="#6b6b6b"/><stop offset="0.01" stop-color="#767676"/><stop offset="0.03" stop-color="#959595"/><stop offset="0.04" stop-color="#aaa"/><stop offset="0.37" stop-color="#ccc"/><stop offset="0.74" stop-color="#eaeaea"/><stop offset="0.94" stop-color="#f6f6f6"/><stop offset="0.95" stop-color="#ededed"/><stop offset="0.96" stop-color="#d4d4d4"/><stop offset="0.97" stop-color="#ababab"/><stop offset="0.99" stop-color="#737373"/><stop offset="0.99" stop-color="#666"/></linearGradient><linearGradient id="未命名的渐变_143" x1="-2909.42" y1="1939.28" x2="-2909.42" y2="1926.94" gradientTransform="translate(2934.88 -1920.07)" gradientUnits="userSpaceOnUse"><stop offset="0" stop-color="#b7b7b7"/><stop offset="0.03" stop-color="#9b9d9d"/><stop offset="0.07" stop-color="#878b8b"/><stop offset="0.09" stop-color="#808484"/><stop offset="0.2" stop-color="#a3a6a6"/><stop offset="0.49" stop-color="#f6f6f6"/><stop offset="0.61" stop-color="#f3f3f3"/><stop offset="0.7" stop-color="#eaeaea"/><stop offset="0.77" stop-color="#dbdbdb"/><stop offset="0.83" stop-color="#c5c5c5"/><stop offset="0.9" stop-color="#aaa"/><stop offset="0.95" stop-color="#888"/><stop offset="1" stop-color="#666"/></linearGradient><linearGradient id="未命名的渐变_143-2" x1="-2854.41" y1="1938.64" x2="-2854.41" y2="1927.62" gradientTransform="translate(2879.84 -1865.08)" xlink:href="#未命名的渐变_143"/><linearGradient id="未命名的渐变_105" x1="19.92" y1="24.66" x2="30.94" y2="24.66" gradientTransform="translate(0.77 50.09) rotate(-90)" gradientUnits="userSpaceOnUse"><stop offset="0" stop-color="#e2e2e2"/><stop offset="0.03" stop-color="#d0d0d0"/><stop offset="0.06" stop-color="#bcbcbc"/><stop offset="0.09" stop-color="#b5b5b5"/><stop offset="0.49" stop-color="#f6f6f6"/><stop offset="0.63" stop-color="#f3f3f3"/><stop offset="0.73" stop-color="#eaeaea"/><stop offset="0.82" stop-color="#dbdbdb"/><stop offset="0.9" stop-color="#c6c6c6"/><stop offset="0.97" stop-color="#aaa"/><stop offset="1" stop-color="#9b9b9b"/></linearGradient><linearGradient id="未命名的渐变_143-3" x1="-2897.76" y1="1938.64" x2="-2897.76" y2="1927.62" gradientTransform="translate(2923.19 -1908.43)" xlink:href="#未命名的渐变_143"/><linearGradient id="未命名的渐变_105-2" x1="19.92" y1="110.27" x2="30.94" y2="110.27" gradientTransform="translate(-84.84 135.7) rotate(-90)" xlink:href="#未命名的渐变_105"/><linearGradient id="未命名的渐变_143-4" x1="-2812.15" y1="1938.64" x2="-2812.15" y2="1927.62" gradientTransform="translate(2837.58 -1822.83)" xlink:href="#未命名的渐变_143"/><linearGradient id="未命名的渐变_143-5" x1="-2799.34" y1="1939.6" x2="-2799.34" y2="1926.66" gradientTransform="translate(2824.77 -1810.01)" xlink:href="#未命名的渐变_143"/><linearGradient id="未命名的渐变_143-6" x1="-2782.57" y1="1945.47" x2="-2797.86" y2="1945.47" gradientTransform="translate(2803.31 -1813.22)" xlink:href="#未命名的渐变_143"/><linearGradient id="未命名的渐变_143-7" x1="-2782.65" y1="1869.35" x2="-2797.94" y2="1869.35" gradientTransform="translate(2879.51 -1737.18)" xlink:href="#未命名的渐变_143"/><linearGradient id="未命名的渐变_143-8" x1="-2783.89" y1="1907.46" x2="-2796.41" y2="1907.46" gradientTransform="translate(2841.25 -1775.15)" xlink:href="#未命名的渐变_143"/><linearGradient id="未命名的渐变_143-9" x1="-2886.04" y1="1941.18" x2="-2886.04" y2="1925.15" gradientTransform="translate(2911.44 -1896.75)" xlink:href="#未命名的渐变_143"/><linearGradient id="未命名的渐变_143-10" x1="-2883.02" y1="1941.18" x2="-2883.02" y2="1925.15" gradientTransform="translate(2908.42 -1893.73)" xlink:href="#未命名的渐变_143"/><linearGradient id="未命名的渐变_143-11" x1="-2842.28" y1="1940.77" x2="-2842.28" y2="1924.74" gradientTransform="translate(2868.09 -1852.57)" xlink:href="#未命名的渐变_143"/><linearGradient id="未命名的渐变_143-12" x1="-2839.26" y1="1940.77" x2="-2839.26" y2="1924.74" gradientTransform="translate(2865.07 -1849.56)" xlink:href="#未命名的渐变_143"/><linearGradient id="未命名的渐变_143-13" x1="-2825.59" y1="1940.77" x2="-2825.59" y2="1924.74" gradientTransform="translate(2851.39 -1835.88)" xlink:href="#未命名的渐变_143"/><linearGradient id="未命名的渐变_143-14" x1="-2822.57" y1="1940.77" x2="-2822.57" y2="1924.74" gradientTransform="translate(2848.38 -1832.86)" xlink:href="#未命名的渐变_143"/><linearGradient id="未命名的渐变_143-15" x1="-2869.17" y1="1940.77" x2="-2869.17" y2="1924.74" gradientTransform="translate(2894.98 -1879.46)" xlink:href="#未命名的渐变_143"/><linearGradient id="未命名的渐变_143-16" x1="-2866.15" y1="1940.77" x2="-2866.15" y2="1924.74" gradientTransform="translate(2891.96 -1876.45)" xlink:href="#未命名的渐变_143"/><linearGradient id="未命名的渐变_105-3" x1="19.95" y1="46.36" x2="30.95" y2="46.36" gradientTransform="matrix(1, 0, 0, 1, 0, 0)" xlink:href="#未命名的渐变_105"/><linearGradient id="未命名的渐变_143-17" x1="21.46" y1="46.36" x2="29.44" y2="46.36" gradientTransform="matrix(1, 0, 0, 1, 0, 0)" xlink:href="#未命名的渐变_143"/><linearGradient id="未命名的渐变_105-4" x1="19.9" y1="90.04" x2="30.9" y2="90.04" gradientTransform="matrix(1, 0, 0, 1, 0, 0)" xlink:href="#未命名的渐变_105"/><linearGradient id="未命名的渐变_143-18" x1="21.41" y1="90.04" x2="29.39" y2="90.04" gradientTransform="matrix(1, 0, 0, 1, 0, 0)" xlink:href="#未命名的渐变_143"/><linearGradient id="未命名的渐变_143-19" x1="-2909.48" y1="1888.29" x2="-2909.48" y2="1875.95" gradientTransform="translate(2985.92 -1869.14)" xlink:href="#未命名的渐变_143"/><linearGradient id="未命名的渐变_143-20" x1="-2854.47" y1="1887.65" x2="-2854.47" y2="1876.63" gradientTransform="translate(2930.89 -1814.15)" xlink:href="#未命名的渐变_143"/><linearGradient id="未命名的渐变_105-5" x1="70.91" y1="24.6" x2="81.93" y2="24.6" gradientTransform="translate(51.82 101.02) rotate(-90)" xlink:href="#未命名的渐变_105"/><linearGradient id="未命名的渐变_143-21" x1="-2897.82" y1="1887.65" x2="-2897.82" y2="1876.63" gradientTransform="translate(2974.24 -1857.5)" xlink:href="#未命名的渐变_143"/><linearGradient id="未命名的渐变_105-6" x1="70.91" y1="110.21" x2="81.93" y2="110.21" gradientTransform="translate(-33.79 186.63) rotate(-90)" xlink:href="#未命名的渐变_105"/><linearGradient id="未命名的渐变_143-22" x1="-2812.21" y1="1887.65" x2="-2812.21" y2="1876.63" gradientTransform="translate(2888.63 -1771.89)" xlink:href="#未命名的渐变_143"/><linearGradient id="未命名的渐变_143-23" x1="-2799.39" y1="1888.61" x2="-2799.39" y2="1875.67" gradientTransform="translate(2875.81 -1759.08)" xlink:href="#未命名的渐变_143"/><linearGradient id="未命名的渐变_143-24" x1="-2886.1" y1="1890.19" x2="-2886.1" y2="1874.16" gradientTransform="translate(2962.49 -1845.82)" xlink:href="#未命名的渐变_143"/><linearGradient id="未命名的渐变_143-25" x1="-2883.08" y1="1890.19" x2="-2883.08" y2="1874.16" gradientTransform="translate(2959.47 -1842.8)" xlink:href="#未命名的渐变_143"/><linearGradient id="未命名的渐变_143-26" x1="-2842.34" y1="1889.78" x2="-2842.34" y2="1873.75" gradientTransform="translate(2919.13 -1801.64)" xlink:href="#未命名的渐变_143"/><linearGradient id="未命名的渐变_143-27" x1="-2839.32" y1="1889.78" x2="-2839.32" y2="1873.75" gradientTransform="translate(2916.11 -1798.62)" xlink:href="#未命名的渐变_143"/><linearGradient id="未命名的渐变_143-28" x1="-2825.64" y1="1889.78" x2="-2825.64" y2="1873.75" gradientTransform="translate(2902.44 -1784.95)" xlink:href="#未命名的渐变_143"/><linearGradient id="未命名的渐变_143-29" x1="-2822.63" y1="1889.78" x2="-2822.63" y2="1873.75" gradientTransform="translate(2899.42 -1781.93)" xlink:href="#未命名的渐变_143"/><linearGradient id="未命名的渐变_143-30" x1="-2869.23" y1="1889.78" x2="-2869.23" y2="1873.75" gradientTransform="translate(2946.02 -1828.53)" xlink:href="#未命名的渐变_143"/><linearGradient id="未命名的渐变_143-31" x1="-2866.21" y1="1889.78" x2="-2866.21" y2="1873.75" gradientTransform="translate(2943 -1825.51)" xlink:href="#未命名的渐变_143"/><linearGradient id="未命名的渐变_105-7" x1="70.94" y1="46.31" x2="81.94" y2="46.31" gradientTransform="matrix(1, 0, 0, 1, 0, 0)" xlink:href="#未命名的渐变_105"/><linearGradient id="未命名的渐变_143-32" x1="72.45" y1="46.31" x2="80.43" y2="46.31" gradientTransform="matrix(1, 0, 0, 1, 0, 0)" xlink:href="#未命名的渐变_143"/><linearGradient id="未命名的渐变_105-8" x1="70.89" y1="89.98" x2="81.88" y2="89.98" gradientTransform="matrix(1, 0, 0, 1, 0, 0)" xlink:href="#未命名的渐变_105"/><linearGradient id="未命名的渐变_105-9" x1="44.75" y1="132.17" x2="57.56" y2="132.17" gradientTransform="matrix(1, 0, 0, 1, 0, 0)" xlink:href="#未命名的渐变_105"/><linearGradient id="未命名的渐变_143-33" x1="72.4" y1="89.98" x2="80.38" y2="89.98" gradientTransform="matrix(1, 0, 0, 1, 0, 0)" xlink:href="#未命名的渐变_143"/><linearGradient id="未命名的渐变_143-34" x1="45.69" y1="132.17" x2="56.61" y2="132.17" gradientTransform="matrix(1, 0, 0, 1, 0, 0)" xlink:href="#未命名的渐变_143"/></defs><title>Air diffuser system(空气扩散系统)</title><g id="图层_2" data-name="图层 2"><g id="图层_125" data-name="图层 125"><g id="Air_diffuser_system_空气扩散系统_" data-name="Air diffuser system(空气扩散系统)"><rect class="cls-1" width="102.69" height="150"/><rect class="cls-2" x="22.53" y="6.86" width="5.85" height="12.35" transform="translate(38.49 -12.42) rotate(90)"/><rect class="cls-3" x="-26.66" y="62.54" width="104.17" height="11.02" transform="translate(93.48 42.62) rotate(90)"/><rect class="cls-4" x="23.55" y="19.15" width="3.77" height="11.02" transform="translate(50.09 -0.77) rotate(90)"/><rect class="cls-5" x="24.47" y="19.19" width="1.92" height="11.02" transform="translate(50.13 -0.73) rotate(90)"/><rect class="cls-6" x="23.55" y="104.76" width="3.77" height="11.02" transform="translate(135.7 84.84) rotate(90)"/><rect class="cls-7" x="24.47" y="104.8" width="1.92" height="11.02" transform="translate(135.74 84.88) rotate(90)"/><rect class="cls-8" x="22.45" y="116.65" width="5.97" height="12.94" transform="translate(148.55 97.69) rotate(90)"/><rect class="cls-9" x="5.45" y="129.26" width="15.3" height="5.97" transform="translate(145.34 119.15) rotate(90)"/><rect class="cls-10" x="81.56" y="129.18" width="15.3" height="5.97" transform="translate(221.38 42.95) rotate(90)"/><rect class="cls-11" x="44.84" y="97.18" width="12.52" height="70.25" transform="translate(183.41 81.21) rotate(90)"/><rect class="cls-12" x="24.06" y="28.4" width="2.68" height="16.03" transform="translate(61.81 11.02) rotate(90)"/><rect class="cls-13" x="24.06" y="31.42" width="2.68" height="16.03" transform="translate(64.83 14.04) rotate(90)"/><rect class="cls-14" x="24.47" y="72.17" width="2.68" height="16.03" transform="translate(105.99 54.37) rotate(90)"/><rect class="cls-15" x="24.47" y="75.18" width="2.68" height="16.03" transform="translate(109.01 57.39) rotate(90)"/><rect class="cls-16" x="24.47" y="88.86" width="2.68" height="16.03" transform="translate(122.68 71.06) rotate(90)"/><rect class="cls-17" x="24.47" y="91.88" width="2.68" height="16.03" transform="translate(125.7 74.08) rotate(90)"/><rect class="cls-18" x="24.47" y="45.28" width="2.68" height="16.03" transform="translate(79.1 27.48) rotate(90)"/><rect class="cls-19" x="24.47" y="48.29" width="2.68" height="16.03" transform="translate(82.12 30.5) rotate(90)"/><circle class="cls-20" cx="25.45" cy="46.36" r="5.5"/><circle class="cls-21" cx="25.45" cy="46.36" r="3.99"/><circle class="cls-22" cx="25.4" cy="90.04" r="5.5"/><circle class="cls-23" cx="25.4" cy="90.04" r="3.99"/><rect class="cls-24" x="73.52" y="6.81" width="5.85" height="12.35" transform="translate(89.42 -63.46) rotate(90)"/><rect class="cls-25" x="24.33" y="62.48" width="104.17" height="11.02" transform="translate(144.41 -8.43) rotate(90)"/><rect class="cls-26" x="74.54" y="19.09" width="3.77" height="11.02" transform="translate(101.02 -51.82) rotate(90)"/><rect class="cls-27" x="75.46" y="19.13" width="1.92" height="11.02" transform="translate(101.06 -51.78) rotate(90)"/><rect class="cls-28" x="74.54" y="104.7" width="3.77" height="11.02" transform="translate(186.63 33.79) rotate(90)"/><rect class="cls-29" x="75.46" y="104.74" width="1.92" height="11.02" transform="translate(186.67 33.83) rotate(90)"/><rect class="cls-30" x="73.44" y="116.59" width="5.97" height="12.94" transform="translate(199.48 46.64) rotate(90)"/><rect class="cls-31" x="75.05" y="28.34" width="2.68" height="16.03" transform="translate(112.74 -40.03) rotate(90)"/><rect class="cls-32" x="75.05" y="31.36" width="2.68" height="16.03" transform="translate(115.76 -37.01) rotate(90)"/><rect class="cls-33" x="75.46" y="72.11" width="2.68" height="16.03" transform="translate(156.92 3.33) rotate(90)"/><rect class="cls-34" x="75.46" y="75.13" width="2.68" height="16.03" transform="translate(159.94 6.34) rotate(90)"/><rect class="cls-35" x="75.46" y="88.8" width="2.68" height="16.03" transform="translate(173.61 20.02) rotate(90)"/><rect class="cls-36" x="75.46" y="91.82" width="2.68" height="16.03" transform="translate(176.63 23.04) rotate(90)"/><rect class="cls-37" x="75.46" y="45.22" width="2.68" height="16.03" transform="translate(130.03 -23.56) rotate(90)"/><rect class="cls-38" x="75.46" y="48.24" width="2.68" height="16.03" transform="translate(133.05 -20.55) rotate(90)"/><circle class="cls-39" cx="76.44" cy="46.31" r="5.5"/><circle class="cls-40" cx="76.44" cy="46.31" r="3.99"/><circle class="cls-41" cx="76.39" cy="89.98" r="5.5"/><circle class="cls-42" cx="51.15" cy="132.17" r="6.4"/><circle class="cls-43" cx="76.39" cy="89.98" r="3.99"/><circle class="cls-44" cx="51.15" cy="132.17" r="5.46"/></g></g></g></svg>