<svg xmlns="http://www.w3.org/2000/svg" xmlns:xlink="http://www.w3.org/1999/xlink" viewBox="0 0 150 130.34"><defs><style>.cls-1{fill:url(#未命名的渐变_5);}.cls-2{fill:none;stroke:#5f6366;stroke-miterlimit:10;stroke-width:0.37px;}.cls-3{fill:#c4c7cc;}.cls-4{fill:url(#未命名的渐变_48);}.cls-5{fill:#45484d;}.cls-6{opacity:0.4;}.cls-7{fill:#d0d5d8;}.cls-8{opacity:0.2;}</style><linearGradient id="未命名的渐变_5" x1="145.08" y1="-4.92" x2="4.92" y2="135.25" gradientUnits="userSpaceOnUse"><stop offset="0" stop-color="#d7dce0"/><stop offset="1" stop-color="#8a9099"/></linearGradient><linearGradient id="未命名的渐变_48" x1="48.81" y1="20.64" x2="101.19" y2="20.64" gradientUnits="userSpaceOnUse"><stop offset="0" stop-color="#5c6066"/><stop offset="1" stop-color="#f5faff"/></linearGradient></defs><title>Air handing unit 3(空调箱3)</title><g id="图层_2" data-name="图层 2"><g id="图层_6" data-name="图层 6"><g id="Air_handing_unit_3_空调箱3_" data-name="Air handing unit 3(空调箱3)"><rect class="cls-1" width="150" height="130.34"/><line class="cls-2" x1="5.91" y1="111.11" x2="5.91" y2="125.29"/><line class="cls-2" x1="8.43" y1="111.11" x2="8.43" y2="125.29"/><line class="cls-2" x1="10.95" y1="111.11" x2="10.95" y2="125.29"/><line class="cls-2" x1="13.47" y1="111.11" x2="13.47" y2="125.29"/><line class="cls-2" x1="24.63" y1="111.11" x2="24.63" y2="125.29"/><line class="cls-2" x1="27.15" y1="111.11" x2="27.15" y2="125.29"/><line class="cls-2" x1="29.67" y1="111.11" x2="29.67" y2="125.29"/><line class="cls-2" x1="32.19" y1="111.11" x2="32.19" y2="125.29"/><line class="cls-2" x1="43.35" y1="111.11" x2="43.35" y2="125.29"/><line class="cls-2" x1="45.87" y1="111.11" x2="45.87" y2="125.29"/><line class="cls-2" x1="48.39" y1="111.11" x2="48.39" y2="125.29"/><line class="cls-2" x1="50.91" y1="111.11" x2="50.91" y2="125.29"/><line class="cls-2" x1="62.07" y1="111.11" x2="62.07" y2="125.29"/><line class="cls-2" x1="64.59" y1="111.11" x2="64.59" y2="125.29"/><line class="cls-2" x1="67.11" y1="111.11" x2="67.11" y2="125.29"/><line class="cls-2" x1="69.63" y1="111.11" x2="69.63" y2="125.29"/><line class="cls-2" x1="80.79" y1="111.11" x2="80.79" y2="125.29"/><line class="cls-2" x1="83.31" y1="111.11" x2="83.31" y2="125.29"/><line class="cls-2" x1="85.83" y1="111.11" x2="85.83" y2="125.29"/><line class="cls-2" x1="88.35" y1="111.11" x2="88.35" y2="125.29"/><line class="cls-2" x1="99.51" y1="111.11" x2="99.51" y2="125.29"/><line class="cls-2" x1="102.03" y1="111.11" x2="102.03" y2="125.29"/><line class="cls-2" x1="104.55" y1="111.11" x2="104.55" y2="125.29"/><line class="cls-2" x1="107.07" y1="111.11" x2="107.07" y2="125.29"/><line class="cls-2" x1="118.22" y1="111.11" x2="118.22" y2="125.29"/><line class="cls-2" x1="120.74" y1="111.11" x2="120.74" y2="125.29"/><line class="cls-2" x1="123.26" y1="111.11" x2="123.26" y2="125.29"/><line class="cls-2" x1="125.78" y1="111.11" x2="125.78" y2="125.29"/><line class="cls-2" x1="136.94" y1="111.11" x2="136.94" y2="125.29"/><line class="cls-2" x1="139.46" y1="111.11" x2="139.46" y2="125.29"/><line class="cls-2" x1="141.98" y1="111.11" x2="141.98" y2="125.29"/><line class="cls-2" x1="144.5" y1="111.11" x2="144.5" y2="125.29"/><rect class="cls-3" x="48.81" y="9.3" width="52.38" height="22.69"/><path class="cls-4" d="M100.85,9.64v22H49.15v-22h51.7m.34-.34H48.81V32h52.38V9.3Z"/><rect class="cls-5" x="54.73" y="12.7" width="40.54" height="15.89"/><rect class="cls-6" width="150" height="3.78"/><rect class="cls-6" y="37.5" width="150" height="3.78"/><rect class="cls-6" y="106.13" width="150" height="3.78"/><rect class="cls-6" y="126.56" width="150" height="3.78"/><path class="cls-7" d="M85.94,18.58a5.16,5.16,0,0,0-5,4.12h1.23a3.95,3.95,0,0,1,7.62,0H91A5.17,5.17,0,0,0,85.94,18.58Z"/></g></g></g></svg>