<svg xmlns="http://www.w3.org/2000/svg" xmlns:xlink="http://www.w3.org/1999/xlink" viewBox="0 0 99.7 150"><defs><style>.cls-1{fill:url(#未命名的渐变_5);}.cls-2{fill:#2f3134;}.cls-3{fill:#45484d;}.cls-4{opacity:0.2;}.cls-5{fill:url(#未命名的渐变_191);}.cls-6{fill:#494d53;}.cls-7{fill:#dde4ec;}.cls-8{fill:url(#未命名的渐变_10);}.cls-9{fill:url(#未命名的渐变_10-2);}</style><linearGradient id="未命名的渐变_5" x1="112.27" y1="12.58" x2="-12.58" y2="137.42" gradientUnits="userSpaceOnUse"><stop offset="0" stop-color="#d7dce0"/><stop offset="1" stop-color="#8a9099"/></linearGradient><linearGradient id="未命名的渐变_191" x1="31.48" y1="-3.55" x2="51.99" y2="31.97" gradientUnits="userSpaceOnUse"><stop offset="0" stop-color="#fff" stop-opacity="0"/><stop offset="0.37" stop-color="#fff" stop-opacity="0.01"/><stop offset="0.51" stop-color="#fff" stop-opacity="0.03"/><stop offset="0.6" stop-color="#fff" stop-opacity="0.08"/><stop offset="0.68" stop-color="#fff" stop-opacity="0.15"/><stop offset="0.75" stop-color="#fff" stop-opacity="0.23"/><stop offset="0.8" stop-color="#fff" stop-opacity="0.34"/><stop offset="0.86" stop-color="#fff" stop-opacity="0.47"/><stop offset="0.91" stop-color="#fff" stop-opacity="0.61"/><stop offset="0.95" stop-color="#fff" stop-opacity="0.78"/><stop offset="0.99" stop-color="#fff" stop-opacity="0.96"/><stop offset="1" stop-color="#fff"/></linearGradient><linearGradient id="未命名的渐变_10" x1="93.01" y1="-694.62" x2="12.71" y2="-774.92" gradientTransform="matrix(1, 0, 0, -1, -2.6, -627.79)" gradientUnits="userSpaceOnUse"><stop offset="0" stop-color="#dce1e6"/><stop offset="1" stop-color="#8a9099"/></linearGradient><linearGradient id="未命名的渐变_10-2" x1="75.31" y1="-735.76" x2="24.39" y2="-786.68" gradientTransform="matrix(1, 0, 0, -1, 0, -700.34)" xlink:href="#未命名的渐变_10"/></defs><title>Air cleaner(空气净化器)</title><g id="图层_2" data-name="图层 2"><g id="图层_6" data-name="图层 6"><g id="Air_cleaner_空气净化器_" data-name="Air cleaner(空气净化器)"><rect class="cls-1" width="99.7" height="150"/><rect class="cls-2" x="6.78" y="7.42" width="86.13" height="41.69"/><path class="cls-3" d="M90.92,9.42v37.7H8.78V9.42H90.92m4-4H4.78v45.7H94.92V5.42Z"/><g class="cls-4"><polygon class="cls-5" points="8.83 47.01 8.83 9.52 90.87 9.52 8.83 47.01"/></g><rect class="cls-6" x="5.38" y="70.71" width="89.74" height="72.55" transform="translate(100.51 213.97) rotate(180)"/><rect class="cls-7" x="5.38" y="71.13" width="89.32" height="72.13" transform="translate(100.09 214.39) rotate(180)"/><rect class="cls-8" x="5.8" y="71.13" width="88.9" height="71.71" transform="translate(100.51 213.97) rotate(180)"/><rect class="cls-2" x="2.85" y="132.03" width="4.9" height="2.18"/><rect class="cls-2" x="92.85" y="132.03" width="4.9" height="2.18"/><rect class="cls-6" x="4.57" y="54.4" width="90.55" height="12.96"/><rect class="cls-7" x="4.99" y="54.4" width="90.13" height="12.54"/><rect class="cls-9" x="4.99" y="54.82" width="89.71" height="12.12"/></g></g></g></svg>