<svg xmlns="http://www.w3.org/2000/svg" xmlns:xlink="http://www.w3.org/1999/xlink" viewBox="0 0 68.91 150"><defs><style>.cls-1{fill:url(#未命名的渐变_24);}.cls-2{fill:#2f3134;}.cls-3{fill:url(#未命名的渐变_30);}.cls-4{fill:url(#未命名的渐变_30-2);}.cls-5{fill:url(#未命名的渐变_30-3);}.cls-6{fill:url(#未命名的渐变_30-4);}.cls-7{fill:url(#未命名的渐变_30-5);}.cls-8{fill:#45484d;}.cls-10,.cls-9{fill:none;stroke:#222a34;stroke-miterlimit:10;stroke-width:0.25px;}.cls-9{opacity:0.6;}.cls-11{fill:#c7cedb;}.cls-12{fill:url(#未命名的渐变_99);}.cls-13{fill:#252628;}.cls-14{fill:#fff;}.cls-14,.cls-15{opacity:0.2;}</style><linearGradient id="未命名的渐变_24" y1="75" x2="68.91" y2="75" gradientUnits="userSpaceOnUse"><stop offset="0" stop-color="#767b82"/><stop offset="0.04" stop-color="#b9c0cc"/><stop offset="0.92" stop-color="#b9c0cc"/><stop offset="0.96" stop-color="#d7dce0"/><stop offset="1" stop-color="#767b82"/></linearGradient><linearGradient id="未命名的渐变_30" x1="34.46" y1="29.95" x2="34.46" y2="26.52" gradientUnits="userSpaceOnUse"><stop offset="0" stop-color="#b9c0cc"/><stop offset="1" stop-color="#252628"/></linearGradient><linearGradient id="未命名的渐变_30-2" x1="34.46" y1="35.89" x2="34.46" y2="31.49" xlink:href="#未命名的渐变_30"/><linearGradient id="未命名的渐变_30-3" x1="34.46" y1="24.1" x2="34.46" y2="21.47" xlink:href="#未命名的渐变_30"/><linearGradient id="未命名的渐变_30-4" x1="34.46" y1="18.34" x2="34.46" y2="16.34" xlink:href="#未命名的渐变_30"/><linearGradient id="未命名的渐变_30-5" x1="34.46" y1="13.35" x2="34.46" y2="11.95" xlink:href="#未命名的渐变_30"/><linearGradient id="未命名的渐变_99" x1="34.46" y1="68.76" x2="34.46" y2="51.73" gradientUnits="userSpaceOnUse"><stop offset="0" stop-color="#cfdae6"/><stop offset="1" stop-color="#5c6066"/></linearGradient></defs><title>Air conditioner 1(空调1)</title><g id="图层_2" data-name="图层 2"><g id="图层_6" data-name="图层 6"><g id="Air_conditioner_1_空调1_" data-name="Air conditioner 1(空调1)"><rect class="cls-1" width="68.91" height="150"/><rect class="cls-2" x="8.97" y="9.58" width="50.98" height="28.29"/><rect class="cls-3" x="8.97" y="26.52" width="50.98" height="3.43"/><rect class="cls-4" x="8.97" y="31.49" width="50.98" height="4.4"/><rect class="cls-5" x="8.97" y="21.47" width="50.98" height="2.63"/><rect class="cls-6" x="8.97" y="16.34" width="50.98" height="2"/><rect class="cls-7" x="8.97" y="11.95" width="50.98" height="1.39"/><rect class="cls-8" x="8.97" y="87.76" width="50.98" height="62.24"/><line class="cls-9" y1="44.8" x2="68.91" y2="44.8"/><line class="cls-10" x1="8.97" y1="89.52" x2="59.95" y2="89.52"/><line class="cls-10" x1="8.97" y1="92.45" x2="59.95" y2="92.45"/><line class="cls-10" x1="8.97" y1="95.38" x2="59.95" y2="95.38"/><line class="cls-10" x1="8.97" y1="98.3" x2="59.95" y2="98.3"/><line class="cls-10" x1="8.97" y1="101.23" x2="59.95" y2="101.23"/><line class="cls-10" x1="8.97" y1="104.16" x2="59.95" y2="104.16"/><line class="cls-10" x1="8.97" y1="107.08" x2="59.95" y2="107.08"/><line class="cls-10" x1="8.97" y1="110.01" x2="59.95" y2="110.01"/><line class="cls-10" x1="8.97" y1="112.94" x2="59.95" y2="112.94"/><line class="cls-10" x1="8.97" y1="115.87" x2="59.95" y2="115.87"/><line class="cls-10" x1="8.97" y1="118.79" x2="59.95" y2="118.79"/><line class="cls-10" x1="8.97" y1="121.72" x2="59.95" y2="121.72"/><line class="cls-10" x1="8.97" y1="124.65" x2="59.95" y2="124.65"/><line class="cls-10" x1="8.97" y1="127.57" x2="59.95" y2="127.57"/><line class="cls-10" x1="8.97" y1="130.5" x2="59.95" y2="130.5"/><line class="cls-10" x1="8.97" y1="133.43" x2="59.95" y2="133.43"/><line class="cls-10" x1="8.97" y1="136.36" x2="59.95" y2="136.36"/><line class="cls-10" x1="8.97" y1="139.28" x2="59.95" y2="139.28"/><line class="cls-10" x1="8.97" y1="142.21" x2="59.95" y2="142.21"/><line class="cls-10" x1="8.97" y1="145.14" x2="59.95" y2="145.14"/><line class="cls-10" x1="8.97" y1="148.06" x2="59.95" y2="148.06"/><rect class="cls-11" x="29.19" y="51.73" width="10.54" height="17.03"/><path class="cls-12" d="M39.38,52.07V68.41H29.54V52.07h9.84m.34-.34H29.19v17H39.72v-17Z"/><rect class="cls-13" x="29.63" y="54.62" width="9.72" height="9.5"/><polygon class="cls-14" points="29.63 64.12 29.63 54.62 39.72 54.62 29.63 64.12"/></g></g></g></svg>