<svg xmlns="http://www.w3.org/2000/svg" xmlns:xlink="http://www.w3.org/1999/xlink" viewBox="0 0 150.08 139.43"><defs><style>.cls-1{fill:url(#未命名的渐变_5);}.cls-2{fill:#5b5f66;}.cls-3{fill:url(#未命名的渐变_5-2);}.cls-4{fill:url(#未命名的渐变_5-3);}.cls-5{fill:url(#未命名的渐变_56);}.cls-6{fill:#d6dde6;}.cls-7{fill:#55575a;}.cls-12,.cls-8,.cls-9{fill:none;stroke-miterlimit:10;}.cls-8,.cls-9{stroke:#5b5f66;}.cls-8{stroke-width:0.16px;}.cls-9{stroke-width:0.15px;}.cls-10{fill:url(#未命名的渐变_57);}.cls-11{fill:url(#未命名的渐变_57-2);}.cls-12{stroke:#a5abb2;stroke-width:0.25px;}.cls-13{opacity:0.2;}</style><linearGradient id="未命名的渐变_5" x1="134.9" y1="34.72" x2="15.26" y2="154.36" gradientUnits="userSpaceOnUse"><stop offset="0" stop-color="#d7dce0"/><stop offset="1" stop-color="#8a9099"/></linearGradient><linearGradient id="未命名的渐变_5-2" x1="124.02" y1="-20.92" x2="26.14" y2="76.95" xlink:href="#未命名的渐变_5"/><linearGradient id="未命名的渐变_5-3" x1="113.52" y1="10.56" x2="36.64" y2="87.44" xlink:href="#未命名的渐变_5"/><linearGradient id="未命名的渐变_56" x1="75.08" y1="46.94" x2="75.08" y2="19.78" gradientUnits="userSpaceOnUse"><stop offset="0" stop-color="#7a7d80"/><stop offset="1" stop-color="#2e3033"/></linearGradient><linearGradient id="未命名的渐变_57" x1="13.1" y1="2.48" x2="61.82" y2="2.48" gradientUnits="userSpaceOnUse"><stop offset="0" stop-color="#a9b1bb"/><stop offset="0.09" stop-color="#61666b"/><stop offset="0.19" stop-color="#696e73"/><stop offset="0.33" stop-color="#7e8489"/><stop offset="0.51" stop-color="#a1a7ae"/><stop offset="0.72" stop-color="#d1d8e0"/><stop offset="0.78" stop-color="#e2eaf2"/><stop offset="0.93" stop-color="#9ba1ab"/><stop offset="1" stop-color="#767b82"/></linearGradient><linearGradient id="未命名的渐变_57-2" x1="88.34" y1="2.48" x2="137.06" y2="2.48" xlink:href="#未命名的渐变_57"/></defs><title>Air handing unit 4(空调箱4)</title><g id="图层_2" data-name="图层 2"><g id="图层_6" data-name="图层 6"><g id="Air_handing_unit_4_空调箱4_" data-name="Air handing unit 4(空调箱4)"><rect class="cls-1" x="0.2" y="49.78" width="149.75" height="89.53"/><path class="cls-2" d="M149.83,49.9v89.28H.33V49.9h149.5m.25-.25H.08v89.78h150V49.65Z"/><rect class="cls-3" x="0.17" y="5.05" width="149.83" height="45.92"/><path class="cls-2" d="M149.91,5.14V50.89H.25V5.14H149.91m.17-.17H.08V51.06h150V5Z"/><rect class="cls-4" x="0.17" y="47.02" width="149.83" height="3.95"/><path class="cls-2" d="M149.91,47.11v3.78H.25V47.11H149.91m.17-.17H.08v4.12h150V46.94Z"/><rect class="cls-5" x="3.29" y="19.78" width="143.59" height="27.16"/><polygon class="cls-6" points="6.23 46.94 3.29 46.94 3.29 19.78 6.23 46.94"/><polygon class="cls-6" points="143.93 46.94 146.87 46.94 146.87 19.78 143.93 46.94"/><rect class="cls-7" x="64.07" y="97.18" width="7.39" height="1.42"/><rect class="cls-7" x="64.07" y="115.27" width="7.39" height="1.42"/><rect class="cls-8" x="0.08" y="55.27" width="32.22" height="78.87"/><rect class="cls-8" x="32.3" y="55.27" width="24.35" height="78.87"/><rect class="cls-8" x="56.65" y="55.27" width="3.53" height="78.87"/><rect class="cls-8" x="19.78" y="102.97" width="7.98" height="22.36"/><rect class="cls-9" x="60.18" y="55.27" width="85.58" height="78.87"/><rect class="cls-9" x="64.07" y="81.47" width="35.23" height="52.67"/><rect class="cls-10" x="13.1" width="48.73" height="4.97"/><rect class="cls-11" x="88.34" width="48.73" height="4.97"/><line class="cls-12" x1="19.61" y1="19.78" x2="21.61" y2="46.94"/><line class="cls-12" x1="38.49" y1="19.78" x2="39.82" y2="46.94"/><line class="cls-12" x1="57.37" y1="19.78" x2="58.03" y2="46.94"/><line class="cls-12" x1="76.24" y1="19.78" x2="76.24" y2="46.94"/><line class="cls-12" x1="95.12" y1="19.78" x2="94.45" y2="46.94"/><line class="cls-12" x1="114" y1="19.78" x2="112.66" y2="46.94"/><line class="cls-12" x1="132.87" y1="19.78" x2="130.88" y2="46.94"/></g></g></g></svg>