<svg xmlns="http://www.w3.org/2000/svg" xmlns:xlink="http://www.w3.org/1999/xlink" viewBox="0 0 150 50.44"><defs><style>.cls-1,.cls-8{fill:none;}.cls-2{fill:url(#未命名的渐变_104);}.cls-3{fill:#a3a9b3;}.cls-4{opacity:0.3;fill:url(#未命名的渐变_93);}.cls-5{fill:#2f3134;}.cls-6{clip-path:url(#clip-path);}.cls-7{clip-path:url(#clip-path-2);}.cls-8{stroke:#c7ccd0;stroke-width:0.13px;}.cls-57,.cls-58,.cls-8{stroke-miterlimit:10;}.cls-9{clip-path:url(#clip-path-3);}.cls-10{clip-path:url(#clip-path-4);}.cls-11{clip-path:url(#clip-path-5);}.cls-12{clip-path:url(#clip-path-6);}.cls-13{clip-path:url(#clip-path-7);}.cls-14{clip-path:url(#clip-path-8);}.cls-15{clip-path:url(#clip-path-9);}.cls-16{clip-path:url(#clip-path-10);}.cls-17{clip-path:url(#clip-path-11);}.cls-18{clip-path:url(#clip-path-12);}.cls-19{clip-path:url(#clip-path-13);}.cls-20{clip-path:url(#clip-path-14);}.cls-21{clip-path:url(#clip-path-15);}.cls-22{clip-path:url(#clip-path-16);}.cls-23{clip-path:url(#clip-path-17);}.cls-24{clip-path:url(#clip-path-18);}.cls-25{clip-path:url(#clip-path-19);}.cls-26{clip-path:url(#clip-path-20);}.cls-27{clip-path:url(#clip-path-21);}.cls-28{clip-path:url(#clip-path-22);}.cls-29{clip-path:url(#clip-path-23);}.cls-30{clip-path:url(#clip-path-24);}.cls-31{clip-path:url(#clip-path-25);}.cls-32{clip-path:url(#clip-path-26);}.cls-33{clip-path:url(#clip-path-27);}.cls-34{clip-path:url(#clip-path-28);}.cls-35{clip-path:url(#clip-path-29);}.cls-36{clip-path:url(#clip-path-30);}.cls-37{clip-path:url(#clip-path-31);}.cls-38{clip-path:url(#clip-path-32);}.cls-39{clip-path:url(#clip-path-33);}.cls-40{clip-path:url(#clip-path-34);}.cls-41{clip-path:url(#clip-path-35);}.cls-42{clip-path:url(#clip-path-36);}.cls-43{clip-path:url(#clip-path-37);}.cls-44{clip-path:url(#clip-path-38);}.cls-45{clip-path:url(#clip-path-39);}.cls-46{clip-path:url(#clip-path-40);}.cls-47{clip-path:url(#clip-path-41);}.cls-48{clip-path:url(#clip-path-42);}.cls-49{clip-path:url(#clip-path-43);}.cls-50{clip-path:url(#clip-path-44);}.cls-51{clip-path:url(#clip-path-45);}.cls-52{clip-path:url(#clip-path-46);}.cls-53{clip-path:url(#clip-path-47);}.cls-54{clip-path:url(#clip-path-48);}.cls-55{clip-path:url(#clip-path-49);}.cls-56{clip-path:url(#clip-path-50);}.cls-57,.cls-58{fill:#252628;stroke-width:0.25px;}.cls-57{stroke:url(#未命名的渐变_39);}.cls-58{stroke:url(#未命名的渐变_39-2);}.cls-59{opacity:0.2;}</style><linearGradient id="未命名的渐变_104" x1="123.13" y1="-26.87" x2="26.87" y2="69.4" gradientUnits="userSpaceOnUse"><stop offset="0" stop-color="#ebf0f5"/><stop offset="1" stop-color="#a1a8b3"/></linearGradient><linearGradient id="未命名的渐变_93" x1="75" y1="46.51" x2="75" y2="42.58" gradientUnits="userSpaceOnUse"><stop offset="0" stop-color="#484a4d" stop-opacity="0"/><stop offset="1" stop-color="#2e3033"/></linearGradient><clipPath id="clip-path"><rect class="cls-1" x="4.86" y="11.55" width="65.06" height="26.55"/></clipPath><clipPath id="clip-path-2"><rect class="cls-1" x="63.71" y="2.52" width="12.15" height="9.68"/></clipPath><clipPath id="clip-path-3"><rect class="cls-1" x="63.71" y="12.2" width="12.15" height="9.68"/></clipPath><clipPath id="clip-path-4"><rect class="cls-1" x="63.71" y="21.88" width="12.15" height="9.68"/></clipPath><clipPath id="clip-path-5"><rect class="cls-1" x="63.71" y="31.57" width="12.15" height="9.68"/></clipPath><clipPath id="clip-path-6"><rect class="cls-1" x="51.56" y="2.52" width="12.15" height="9.68"/></clipPath><clipPath id="clip-path-7"><rect class="cls-1" x="51.56" y="12.2" width="12.15" height="9.68"/></clipPath><clipPath id="clip-path-8"><rect class="cls-1" x="51.56" y="21.88" width="12.15" height="9.68"/></clipPath><clipPath id="clip-path-9"><rect class="cls-1" x="51.56" y="31.57" width="12.15" height="9.68"/></clipPath><clipPath id="clip-path-10"><rect class="cls-1" x="39.41" y="2.52" width="12.15" height="9.68"/></clipPath><clipPath id="clip-path-11"><rect class="cls-1" x="39.41" y="12.2" width="12.15" height="9.68"/></clipPath><clipPath id="clip-path-12"><rect class="cls-1" x="39.41" y="21.88" width="12.15" height="9.68"/></clipPath><clipPath id="clip-path-13"><rect class="cls-1" x="39.41" y="31.57" width="12.15" height="9.68"/></clipPath><clipPath id="clip-path-14"><rect class="cls-1" x="27.27" y="2.52" width="12.15" height="9.68"/></clipPath><clipPath id="clip-path-15"><rect class="cls-1" x="27.27" y="12.2" width="12.15" height="9.68"/></clipPath><clipPath id="clip-path-16"><rect class="cls-1" x="27.27" y="21.88" width="12.15" height="9.68"/></clipPath><clipPath id="clip-path-17"><rect class="cls-1" x="27.27" y="31.57" width="12.15" height="9.68"/></clipPath><clipPath id="clip-path-18"><rect class="cls-1" x="15.12" y="2.52" width="12.15" height="9.68"/></clipPath><clipPath id="clip-path-19"><rect class="cls-1" x="15.12" y="12.2" width="12.15" height="9.68"/></clipPath><clipPath id="clip-path-20"><rect class="cls-1" x="15.12" y="21.88" width="12.15" height="9.68"/></clipPath><clipPath id="clip-path-21"><rect class="cls-1" x="15.12" y="31.57" width="12.15" height="9.68"/></clipPath><clipPath id="clip-path-22"><rect class="cls-1" x="2.97" y="2.52" width="12.15" height="9.68"/></clipPath><clipPath id="clip-path-23"><rect class="cls-1" x="2.97" y="12.2" width="12.15" height="9.68"/></clipPath><clipPath id="clip-path-24"><rect class="cls-1" x="2.97" y="21.88" width="12.15" height="9.68"/></clipPath><clipPath id="clip-path-25"><rect class="cls-1" x="2.97" y="31.57" width="12.15" height="9.68"/></clipPath><clipPath id="clip-path-26"><rect class="cls-1" x="79.65" y="11.55" width="65.06" height="26.55"/></clipPath><clipPath id="clip-path-27"><rect class="cls-1" x="136.6" y="2.52" width="12.15" height="9.68"/></clipPath><clipPath id="clip-path-28"><rect class="cls-1" x="136.6" y="12.2" width="12.15" height="9.68"/></clipPath><clipPath id="clip-path-29"><rect class="cls-1" x="136.6" y="21.88" width="12.15" height="9.68"/></clipPath><clipPath id="clip-path-30"><rect class="cls-1" x="136.6" y="31.57" width="12.15" height="9.68"/></clipPath><clipPath id="clip-path-31"><rect class="cls-1" x="124.45" y="2.52" width="12.15" height="9.68"/></clipPath><clipPath id="clip-path-32"><rect class="cls-1" x="124.45" y="12.2" width="12.15" height="9.68"/></clipPath><clipPath id="clip-path-33"><rect class="cls-1" x="124.45" y="21.88" width="12.15" height="9.68"/></clipPath><clipPath id="clip-path-34"><rect class="cls-1" x="124.45" y="31.57" width="12.15" height="9.68"/></clipPath><clipPath id="clip-path-35"><rect class="cls-1" x="112.3" y="2.52" width="12.15" height="9.68"/></clipPath><clipPath id="clip-path-36"><rect class="cls-1" x="112.3" y="12.2" width="12.15" height="9.68"/></clipPath><clipPath id="clip-path-37"><rect class="cls-1" x="112.3" y="21.88" width="12.15" height="9.68"/></clipPath><clipPath id="clip-path-38"><rect class="cls-1" x="112.3" y="31.57" width="12.15" height="9.68"/></clipPath><clipPath id="clip-path-39"><rect class="cls-1" x="100.16" y="2.52" width="12.15" height="9.68"/></clipPath><clipPath id="clip-path-40"><rect class="cls-1" x="100.16" y="12.2" width="12.15" height="9.68"/></clipPath><clipPath id="clip-path-41"><rect class="cls-1" x="100.16" y="21.88" width="12.15" height="9.68"/></clipPath><clipPath id="clip-path-42"><rect class="cls-1" x="100.16" y="31.57" width="12.15" height="9.68"/></clipPath><clipPath id="clip-path-43"><rect class="cls-1" x="88.01" y="2.52" width="12.15" height="9.68"/></clipPath><clipPath id="clip-path-44"><rect class="cls-1" x="88.01" y="12.2" width="12.15" height="9.68"/></clipPath><clipPath id="clip-path-45"><rect class="cls-1" x="88.01" y="21.88" width="12.15" height="9.68"/></clipPath><clipPath id="clip-path-46"><rect class="cls-1" x="88.01" y="31.57" width="12.15" height="9.68"/></clipPath><clipPath id="clip-path-47"><rect class="cls-1" x="75.86" y="2.52" width="12.15" height="9.68"/></clipPath><clipPath id="clip-path-48"><rect class="cls-1" x="75.86" y="12.2" width="12.15" height="9.68"/></clipPath><clipPath id="clip-path-49"><rect class="cls-1" x="75.86" y="21.88" width="12.15" height="9.68"/></clipPath><clipPath id="clip-path-50"><rect class="cls-1" x="75.86" y="31.57" width="12.15" height="9.68"/></clipPath><linearGradient id="未命名的渐变_39" x1="8.61" y1="48.75" x2="8.61" y2="46.39" gradientUnits="userSpaceOnUse"><stop offset="0" stop-color="#dce1e6"/><stop offset="1" stop-color="#5c6066"/></linearGradient><linearGradient id="未命名的渐变_39-2" x1="141.4" y1="48.75" x2="141.4" y2="46.39" xlink:href="#未命名的渐变_39"/></defs><title>Air curtain(空气幕)</title><g id="图层_2" data-name="图层 2"><g id="图层_6" data-name="图层 6"><g id="Air_curtain_空气幕_" data-name="Air curtain(空气幕)"><rect class="cls-2" width="150" height="42.53"/><rect class="cls-3" y="42.58" width="150" height="7.86"/><rect class="cls-4" y="42.58" width="150" height="3.93"/><rect class="cls-5" x="4.86" y="11.55" width="65.06" height="26.55"/><g class="cls-6"><g class="cls-7"><rect class="cls-8" x="63.78" y="9.85" width="12.01" height="4.7"/><rect class="cls-8" x="63.78" y="5.01" width="12.01" height="4.7"/><rect class="cls-8" x="63.78" y="0.17" width="12.01" height="4.7"/></g><g class="cls-9"><rect class="cls-8" x="63.78" y="19.53" width="12.01" height="4.7"/><rect class="cls-8" x="63.78" y="14.69" width="12.01" height="4.7"/><rect class="cls-8" x="63.78" y="9.85" width="12.01" height="4.7"/></g><g class="cls-10"><rect class="cls-8" x="63.78" y="29.22" width="12.01" height="4.7"/><rect class="cls-8" x="63.78" y="24.37" width="12.01" height="4.7"/><rect class="cls-8" x="63.78" y="19.53" width="12.01" height="4.7"/></g><g class="cls-11"><rect class="cls-8" x="63.78" y="38.9" width="12.01" height="4.7"/><rect class="cls-8" x="63.78" y="34.06" width="12.01" height="4.7"/><rect class="cls-8" x="63.78" y="29.22" width="12.01" height="4.7"/></g><g class="cls-12"><rect class="cls-8" x="51.63" y="9.85" width="12.01" height="4.7"/><rect class="cls-8" x="51.63" y="5.01" width="12.01" height="4.7"/><rect class="cls-8" x="51.63" y="0.17" width="12.01" height="4.7"/></g><g class="cls-13"><rect class="cls-8" x="51.63" y="19.53" width="12.01" height="4.7"/><rect class="cls-8" x="51.63" y="14.69" width="12.01" height="4.7"/><rect class="cls-8" x="51.63" y="9.85" width="12.01" height="4.7"/></g><g class="cls-14"><rect class="cls-8" x="51.63" y="29.22" width="12.01" height="4.7"/><rect class="cls-8" x="51.63" y="24.37" width="12.01" height="4.7"/><rect class="cls-8" x="51.63" y="19.53" width="12.01" height="4.7"/></g><g class="cls-15"><rect class="cls-8" x="51.63" y="38.9" width="12.01" height="4.7"/><rect class="cls-8" x="51.63" y="34.06" width="12.01" height="4.7"/><rect class="cls-8" x="51.63" y="29.22" width="12.01" height="4.7"/></g><g class="cls-16"><rect class="cls-8" x="39.48" y="9.85" width="12.01" height="4.7"/><rect class="cls-8" x="39.48" y="5.01" width="12.01" height="4.7"/><rect class="cls-8" x="39.48" y="0.17" width="12.01" height="4.7"/></g><g class="cls-17"><rect class="cls-8" x="39.48" y="19.53" width="12.01" height="4.7"/><rect class="cls-8" x="39.48" y="14.69" width="12.01" height="4.7"/><rect class="cls-8" x="39.48" y="9.85" width="12.01" height="4.7"/></g><g class="cls-18"><rect class="cls-8" x="39.48" y="29.22" width="12.01" height="4.7"/><rect class="cls-8" x="39.48" y="24.37" width="12.01" height="4.7"/><rect class="cls-8" x="39.48" y="19.53" width="12.01" height="4.7"/></g><g class="cls-19"><rect class="cls-8" x="39.48" y="38.9" width="12.01" height="4.7"/><rect class="cls-8" x="39.48" y="34.06" width="12.01" height="4.7"/><rect class="cls-8" x="39.48" y="29.22" width="12.01" height="4.7"/></g><g class="cls-20"><rect class="cls-8" x="27.34" y="9.85" width="12.01" height="4.7"/><rect class="cls-8" x="27.34" y="5.01" width="12.01" height="4.7"/><rect class="cls-8" x="27.34" y="0.17" width="12.01" height="4.7"/></g><g class="cls-21"><rect class="cls-8" x="27.34" y="19.53" width="12.01" height="4.7"/><rect class="cls-8" x="27.34" y="14.69" width="12.01" height="4.7"/><rect class="cls-8" x="27.34" y="9.85" width="12.01" height="4.7"/></g><g class="cls-22"><rect class="cls-8" x="27.34" y="29.22" width="12.01" height="4.7"/><rect class="cls-8" x="27.34" y="24.37" width="12.01" height="4.7"/><rect class="cls-8" x="27.34" y="19.53" width="12.01" height="4.7"/></g><g class="cls-23"><rect class="cls-8" x="27.34" y="38.9" width="12.01" height="4.7"/><rect class="cls-8" x="27.34" y="34.06" width="12.01" height="4.7"/><rect class="cls-8" x="27.34" y="29.22" width="12.01" height="4.7"/></g><g class="cls-24"><rect class="cls-8" x="15.19" y="9.85" width="12.01" height="4.7"/><rect class="cls-8" x="15.19" y="5.01" width="12.01" height="4.7"/><rect class="cls-8" x="15.19" y="0.17" width="12.01" height="4.7"/></g><g class="cls-25"><rect class="cls-8" x="15.19" y="19.53" width="12.01" height="4.7"/><rect class="cls-8" x="15.19" y="14.69" width="12.01" height="4.7"/><rect class="cls-8" x="15.19" y="9.85" width="12.01" height="4.7"/></g><g class="cls-26"><rect class="cls-8" x="15.19" y="29.22" width="12.01" height="4.7"/><rect class="cls-8" x="15.19" y="24.37" width="12.01" height="4.7"/><rect class="cls-8" x="15.19" y="19.53" width="12.01" height="4.7"/></g><g class="cls-27"><rect class="cls-8" x="15.19" y="38.9" width="12.01" height="4.7"/><rect class="cls-8" x="15.19" y="34.06" width="12.01" height="4.7"/><rect class="cls-8" x="15.19" y="29.22" width="12.01" height="4.7"/></g><g class="cls-28"><rect class="cls-8" x="3.04" y="9.85" width="12.01" height="4.7"/><rect class="cls-8" x="3.04" y="5.01" width="12.01" height="4.7"/><rect class="cls-8" x="3.04" y="0.17" width="12.01" height="4.7"/></g><g class="cls-29"><rect class="cls-8" x="3.04" y="19.53" width="12.01" height="4.7"/><rect class="cls-8" x="3.04" y="14.69" width="12.01" height="4.7"/><rect class="cls-8" x="3.04" y="9.85" width="12.01" height="4.7"/></g><g class="cls-30"><rect class="cls-8" x="3.04" y="29.22" width="12.01" height="4.7"/><rect class="cls-8" x="3.04" y="24.37" width="12.01" height="4.7"/><rect class="cls-8" x="3.04" y="19.53" width="12.01" height="4.7"/></g><g class="cls-31"><rect class="cls-8" x="3.04" y="38.9" width="12.01" height="4.7"/><rect class="cls-8" x="3.04" y="34.06" width="12.01" height="4.7"/><rect class="cls-8" x="3.04" y="29.22" width="12.01" height="4.7"/></g></g><rect class="cls-5" x="79.65" y="11.55" width="65.06" height="26.55"/><g class="cls-32"><g class="cls-33"><rect class="cls-8" x="136.67" y="9.85" width="12.01" height="4.7"/><rect class="cls-8" x="136.67" y="5.01" width="12.01" height="4.7"/><rect class="cls-8" x="136.67" y="0.17" width="12.01" height="4.7"/></g><g class="cls-34"><rect class="cls-8" x="136.67" y="19.53" width="12.01" height="4.7"/><rect class="cls-8" x="136.67" y="14.69" width="12.01" height="4.7"/><rect class="cls-8" x="136.67" y="9.85" width="12.01" height="4.7"/></g><g class="cls-35"><rect class="cls-8" x="136.67" y="29.22" width="12.01" height="4.7"/><rect class="cls-8" x="136.67" y="24.37" width="12.01" height="4.7"/><rect class="cls-8" x="136.67" y="19.53" width="12.01" height="4.7"/></g><g class="cls-36"><rect class="cls-8" x="136.67" y="38.9" width="12.01" height="4.7"/><rect class="cls-8" x="136.67" y="34.06" width="12.01" height="4.7"/><rect class="cls-8" x="136.67" y="29.22" width="12.01" height="4.7"/></g><g class="cls-37"><rect class="cls-8" x="124.52" y="9.85" width="12.01" height="4.7"/><rect class="cls-8" x="124.52" y="5.01" width="12.01" height="4.7"/><rect class="cls-8" x="124.52" y="0.17" width="12.01" height="4.7"/></g><g class="cls-38"><rect class="cls-8" x="124.52" y="19.53" width="12.01" height="4.7"/><rect class="cls-8" x="124.52" y="14.69" width="12.01" height="4.7"/><rect class="cls-8" x="124.52" y="9.85" width="12.01" height="4.7"/></g><g class="cls-39"><rect class="cls-8" x="124.52" y="29.22" width="12.01" height="4.7"/><rect class="cls-8" x="124.52" y="24.37" width="12.01" height="4.7"/><rect class="cls-8" x="124.52" y="19.53" width="12.01" height="4.7"/></g><g class="cls-40"><rect class="cls-8" x="124.52" y="38.9" width="12.01" height="4.7"/><rect class="cls-8" x="124.52" y="34.06" width="12.01" height="4.7"/><rect class="cls-8" x="124.52" y="29.22" width="12.01" height="4.7"/></g><g class="cls-41"><rect class="cls-8" x="112.37" y="9.85" width="12.01" height="4.7"/><rect class="cls-8" x="112.37" y="5.01" width="12.01" height="4.7"/><rect class="cls-8" x="112.37" y="0.17" width="12.01" height="4.7"/></g><g class="cls-42"><rect class="cls-8" x="112.37" y="19.53" width="12.01" height="4.7"/><rect class="cls-8" x="112.37" y="14.69" width="12.01" height="4.7"/><rect class="cls-8" x="112.37" y="9.85" width="12.01" height="4.7"/></g><g class="cls-43"><rect class="cls-8" x="112.37" y="29.22" width="12.01" height="4.7"/><rect class="cls-8" x="112.37" y="24.37" width="12.01" height="4.7"/><rect class="cls-8" x="112.37" y="19.53" width="12.01" height="4.7"/></g><g class="cls-44"><rect class="cls-8" x="112.37" y="38.9" width="12.01" height="4.7"/><rect class="cls-8" x="112.37" y="34.06" width="12.01" height="4.7"/><rect class="cls-8" x="112.37" y="29.22" width="12.01" height="4.7"/></g><g class="cls-45"><rect class="cls-8" x="100.23" y="9.85" width="12.01" height="4.7"/><rect class="cls-8" x="100.23" y="5.01" width="12.01" height="4.7"/><rect class="cls-8" x="100.23" y="0.17" width="12.01" height="4.7"/></g><g class="cls-46"><rect class="cls-8" x="100.23" y="19.53" width="12.01" height="4.7"/><rect class="cls-8" x="100.23" y="14.69" width="12.01" height="4.7"/><rect class="cls-8" x="100.23" y="9.85" width="12.01" height="4.7"/></g><g class="cls-47"><rect class="cls-8" x="100.23" y="29.22" width="12.01" height="4.7"/><rect class="cls-8" x="100.23" y="24.37" width="12.01" height="4.7"/><rect class="cls-8" x="100.23" y="19.53" width="12.01" height="4.7"/></g><g class="cls-48"><rect class="cls-8" x="100.23" y="38.9" width="12.01" height="4.7"/><rect class="cls-8" x="100.23" y="34.06" width="12.01" height="4.7"/><rect class="cls-8" x="100.23" y="29.22" width="12.01" height="4.7"/></g><g class="cls-49"><rect class="cls-8" x="88.08" y="9.85" width="12.01" height="4.7"/><rect class="cls-8" x="88.08" y="5.01" width="12.01" height="4.7"/><rect class="cls-8" x="88.08" y="0.17" width="12.01" height="4.7"/></g><g class="cls-50"><rect class="cls-8" x="88.08" y="19.53" width="12.01" height="4.7"/><rect class="cls-8" x="88.08" y="14.69" width="12.01" height="4.7"/><rect class="cls-8" x="88.08" y="9.85" width="12.01" height="4.7"/></g><g class="cls-51"><rect class="cls-8" x="88.08" y="29.22" width="12.01" height="4.7"/><rect class="cls-8" x="88.08" y="24.37" width="12.01" height="4.7"/><rect class="cls-8" x="88.08" y="19.53" width="12.01" height="4.7"/></g><g class="cls-52"><rect class="cls-8" x="88.08" y="38.9" width="12.01" height="4.7"/><rect class="cls-8" x="88.08" y="34.06" width="12.01" height="4.7"/><rect class="cls-8" x="88.08" y="29.22" width="12.01" height="4.7"/></g><g class="cls-53"><rect class="cls-8" x="75.93" y="9.85" width="12.01" height="4.7"/><rect class="cls-8" x="75.93" y="5.01" width="12.01" height="4.7"/><rect class="cls-8" x="75.93" y="0.17" width="12.01" height="4.7"/></g><g class="cls-54"><rect class="cls-8" x="75.93" y="19.53" width="12.01" height="4.7"/><rect class="cls-8" x="75.93" y="14.69" width="12.01" height="4.7"/><rect class="cls-8" x="75.93" y="9.85" width="12.01" height="4.7"/></g><g class="cls-55"><rect class="cls-8" x="75.93" y="29.22" width="12.01" height="4.7"/><rect class="cls-8" x="75.93" y="24.37" width="12.01" height="4.7"/><rect class="cls-8" x="75.93" y="19.53" width="12.01" height="4.7"/></g><g class="cls-56"><rect class="cls-8" x="75.93" y="38.9" width="12.01" height="4.7"/><rect class="cls-8" x="75.93" y="34.06" width="12.01" height="4.7"/><rect class="cls-8" x="75.93" y="29.22" width="12.01" height="4.7"/></g></g><rect class="cls-57" x="7.38" y="46.51" width="2.45" height="2.11"/><rect class="cls-58" x="140.18" y="46.51" width="2.45" height="2.11"/></g></g></g></svg>