<svg xmlns="http://www.w3.org/2000/svg" xmlns:xlink="http://www.w3.org/1999/xlink" viewBox="0 0 91.74 149.59"><defs><style>.cls-1{fill:url(#未命名的渐变_105);}.cls-2{fill:url(#未命名的渐变_67);}.cls-3{fill:url(#未命名的渐变_105-2);}.cls-4{fill:url(#未命名的渐变_105-3);}.cls-5{fill:url(#未命名的渐变_74);}.cls-6{fill:#dadbe0;}.cls-7{fill:url(#未命名的渐变_105-4);}.cls-8{fill:url(#未命名的渐变_105-5);}.cls-9{fill:url(#未命名的渐变_105-6);}.cls-10{fill:url(#未命名的渐变_74-2);}.cls-11{fill:url(#未命名的渐变_105-7);}.cls-12{fill:url(#未命名的渐变_74-3);}.cls-13{fill:url(#未命名的渐变_105-8);}.cls-14{fill:url(#未命名的渐变_74-4);}.cls-15{fill:url(#未命名的渐变_74-5);}.cls-16{fill:url(#未命名的渐变_67-2);}.cls-17{fill:url(#未命名的渐变_67-3);}.cls-18{fill:url(#未命名的渐变_105-9);}.cls-19{fill:url(#未命名的渐变_105-10);}.cls-20{fill:url(#未命名的渐变_105-11);}.cls-21{fill:url(#未命名的渐变_105-12);}.cls-22{fill:url(#未命名的渐变_105-13);}.cls-23{fill:url(#未命名的渐变_67-4);}.cls-24{opacity:0.2;}</style><linearGradient id="未命名的渐变_105" x1="14.26" y1="40.08" x2="50.92" y2="40.08" gradientUnits="userSpaceOnUse"><stop offset="0" stop-color="#e2e2e2"/><stop offset="0.03" stop-color="#d0d0d0"/><stop offset="0.06" stop-color="#bcbcbc"/><stop offset="0.09" stop-color="#b5b5b5"/><stop offset="0.49" stop-color="#f6f6f6"/><stop offset="0.63" stop-color="#f3f3f3"/><stop offset="0.73" stop-color="#eaeaea"/><stop offset="0.82" stop-color="#dbdbdb"/><stop offset="0.9" stop-color="#c6c6c6"/><stop offset="0.97" stop-color="#aaa"/><stop offset="1" stop-color="#9b9b9b"/></linearGradient><linearGradient id="未命名的渐变_67" x1="14.26" y1="82.44" x2="50.92" y2="82.44" gradientUnits="userSpaceOnUse"><stop offset="0" stop-color="#6b6b6b"/><stop offset="0.11" stop-color="#767676"/><stop offset="0.3" stop-color="#959595"/><stop offset="0.41" stop-color="#aaa"/><stop offset="0.56" stop-color="#ccc"/><stop offset="0.71" stop-color="#eaeaea"/><stop offset="0.8" stop-color="#f6f6f6"/><stop offset="0.83" stop-color="#ededed"/><stop offset="0.87" stop-color="#d4d4d4"/><stop offset="0.92" stop-color="#ababab"/><stop offset="0.98" stop-color="#737373"/><stop offset="0.99" stop-color="#666"/></linearGradient><linearGradient id="未命名的渐变_105-2" x1="9.28" y1="26.31" x2="54.51" y2="26.31" xlink:href="#未命名的渐变_105"/><linearGradient id="未命名的渐变_105-3" x1="2.67" y1="10.47" x2="61.57" y2="10.47" xlink:href="#未命名的渐变_105"/><linearGradient id="未命名的渐变_74" x1="0.44" y1="23.33" x2="21.63" y2="23.33" gradientUnits="userSpaceOnUse"><stop offset="0" stop-color="#6b6b6b"/><stop offset="0.01" stop-color="#767676"/><stop offset="0.03" stop-color="#959595"/><stop offset="0.04" stop-color="#aaa"/><stop offset="0.37" stop-color="#ccc"/><stop offset="0.74" stop-color="#eaeaea"/><stop offset="0.94" stop-color="#f6f6f6"/><stop offset="0.95" stop-color="#ededed"/><stop offset="0.96" stop-color="#d4d4d4"/><stop offset="0.97" stop-color="#ababab"/><stop offset="0.99" stop-color="#737373"/><stop offset="0.99" stop-color="#666"/></linearGradient><linearGradient id="未命名的渐变_105-4" x1="24.25" y1="123.56" x2="40.14" y2="123.56" xlink:href="#未命名的渐变_105"/><linearGradient id="未命名的渐变_105-5" x1="18.55" y1="130.5" x2="46.09" y2="130.5" xlink:href="#未命名的渐变_105"/><linearGradient id="未命名的渐变_105-6" x1="25.59" y1="147.81" x2="40.14" y2="147.81" xlink:href="#未命名的渐变_105"/><linearGradient id="未命名的渐变_74-2" x1="28.2" y1="90.17" x2="32.83" y2="90.17" xlink:href="#未命名的渐变_74"/><linearGradient id="未命名的渐变_105-7" x1="7.4" y1="147.91" x2="16.42" y2="147.91" xlink:href="#未命名的渐变_105"/><linearGradient id="未命名的渐变_74-3" x1="9.6" y1="90.27" x2="14.23" y2="90.27" xlink:href="#未命名的渐变_74"/><linearGradient id="未命名的渐变_105-8" x1="47.3" y1="147.91" x2="56.31" y2="147.91" xlink:href="#未命名的渐变_105"/><linearGradient id="未命名的渐变_74-4" x1="49.49" y1="90.27" x2="54.12" y2="90.27" xlink:href="#未命名的渐变_74"/><linearGradient id="未命名的渐变_74-5" x1="32.55" y1="90.17" x2="37.18" y2="90.17" xlink:href="#未命名的渐变_74"/><linearGradient id="未命名的渐变_67-2" x1="54.51" y1="20.6" x2="64.33" y2="20.6" xlink:href="#未命名的渐变_67"/><linearGradient id="未命名的渐变_67-3" x1="28.14" y1="1.17" x2="36.06" y2="1.17" xlink:href="#未命名的渐变_67"/><linearGradient id="未命名的渐变_105-9" x1="54.51" y1="27.18" x2="64.33" y2="27.18" xlink:href="#未命名的渐变_105"/><linearGradient id="未命名的渐变_105-10" x1="57.71" y1="42.27" x2="66.27" y2="33.71" xlink:href="#未命名的渐变_105"/><linearGradient id="未命名的渐变_105-11" x1="89.98" y1="56.29" x2="89.98" y2="25.25" xlink:href="#未命名的渐变_105"/><linearGradient id="未命名的渐变_105-12" x1="78.04" y1="45.84" x2="78.04" y2="36.66" xlink:href="#未命名的渐变_105"/><linearGradient id="未命名的渐变_105-13" x1="0" y1="15.14" x2="64.33" y2="15.14" xlink:href="#未命名的渐变_105"/><linearGradient id="未命名的渐变_67-4" x1="0" y1="14.82" x2="64.33" y2="14.82" xlink:href="#未命名的渐变_67"/></defs><title>Bag filtration system（袋式过滤系统）</title><g id="图层_2" data-name="图层 2"><g id="图层_125" data-name="图层 125"><g id="Bag_filtration_system_袋式过滤系统_" data-name="Bag filtration system（袋式过滤系统）"><rect class="cls-1" x="14.26" y="34.31" width="36.66" height="11.53"/><path class="cls-2" d="M50.92,114.2A35.59,35.59,0,0,1,32.59,119c-13.83,0-18.33-4.84-18.33-4.84V45.84H50.92Z"/><rect class="cls-3" x="9.28" y="18.3" width="45.23" height="16.02"/><path class="cls-4" d="M61.57,18.61H2.67V11.66s.91-9.33,29.45-9.33c28.71,0,29.45,9.33,29.45,9.33Z"/><rect class="cls-5" x="0.44" y="18.61" width="21.18" height="9.43"/><rect class="cls-6" x="2.67" y="18.61" width="16.59" height="6.32"/><rect class="cls-7" x="24.25" y="118.69" width="15.89" height="9.73"/><rect class="cls-8" x="18.55" y="128.42" width="27.54" height="4.15"/><rect class="cls-9" x="25.59" y="146.12" width="14.55" height="3.37"/><rect class="cls-10" x="28.2" y="34.22" width="4.63" height="111.91"/><rect class="cls-11" x="7.4" y="146.22" width="9.02" height="3.37"/><rect class="cls-12" x="9.6" y="34.31" width="4.63" height="111.91"/><rect class="cls-13" x="47.3" y="146.22" width="9.02" height="3.37"/><rect class="cls-14" x="49.49" y="34.31" width="4.63" height="111.91"/><rect class="cls-15" x="32.55" y="34.22" width="4.63" height="111.91"/><rect class="cls-16" x="54.51" y="18.61" width="9.83" height="3.97"/><rect class="cls-17" x="28.14" width="7.91" height="2.33"/><rect class="cls-18" x="54.51" y="22.59" width="9.83" height="9.18"/><polygon class="cls-6" points="32.59 42.25 28 34.22 37.18 34.22 32.59 42.25"/><path class="cls-19" d="M65.16,34.89c-.86-.87-.83-3.12-.83-3.12H54.51s.59,8.16,3.21,10.5c3.45,3.1,10.12,3.57,10.12,3.57V36.66A19.77,19.77,0,0,1,65.16,34.89Z"/><rect class="cls-20" x="88.23" y="25.25" width="3.51" height="31.03"/><rect class="cls-21" x="67.84" y="36.66" width="20.39" height="9.18"/><rect class="cls-22" y="11.66" width="64.33" height="6.95"/><rect class="cls-23" y="13.95" width="64.33" height="1.75"/></g></g></g></svg>