<svg xmlns="http://www.w3.org/2000/svg" xmlns:xlink="http://www.w3.org/1999/xlink" viewBox="0 0 150 65.17"><defs><style>.cls-1{fill:url(#未命名的渐变_67);}.cls-2{fill:url(#未命名的渐变_105);}.cls-3{fill:url(#未命名的渐变_67-2);}.cls-4{fill:#d9e0e4;}.cls-5{fill:#d2d9dd;}.cls-6{fill:#cdd7d9;}.cls-7{fill:#e0e9e9;}.cls-8{fill:#cedfe3;}.cls-9{opacity:0.2;}</style><linearGradient id="未命名的渐变_67" x1="88.94" y1="5.28" x2="92.83" y2="5.28" gradientUnits="userSpaceOnUse"><stop offset="0" stop-color="#6b6b6b"/><stop offset="0.11" stop-color="#767676"/><stop offset="0.3" stop-color="#959595"/><stop offset="0.41" stop-color="#aaa"/><stop offset="0.56" stop-color="#ccc"/><stop offset="0.71" stop-color="#eaeaea"/><stop offset="0.8" stop-color="#f6f6f6"/><stop offset="0.83" stop-color="#ededed"/><stop offset="0.87" stop-color="#d4d4d4"/><stop offset="0.92" stop-color="#ababab"/><stop offset="0.98" stop-color="#737373"/><stop offset="0.99" stop-color="#666"/></linearGradient><linearGradient id="未命名的渐变_105" x1="90.8" y1="6.31" x2="90.8" y2="2.22" gradientUnits="userSpaceOnUse"><stop offset="0" stop-color="#e2e2e2"/><stop offset="0.03" stop-color="#d0d0d0"/><stop offset="0.06" stop-color="#bcbcbc"/><stop offset="0.09" stop-color="#b5b5b5"/><stop offset="0.49" stop-color="#f6f6f6"/><stop offset="0.63" stop-color="#f3f3f3"/><stop offset="0.73" stop-color="#eaeaea"/><stop offset="0.82" stop-color="#dbdbdb"/><stop offset="0.9" stop-color="#c6c6c6"/><stop offset="0.97" stop-color="#aaa"/><stop offset="1" stop-color="#9b9b9b"/></linearGradient><linearGradient id="未命名的渐变_67-2" x1="90.96" y1="6.13" x2="90.96" y2="2.4" xlink:href="#未命名的渐变_67"/></defs><title>Bathtub（浴缸）</title><g id="图层_2" data-name="图层 2"><g id="图层_125" data-name="图层 125"><g id="Bathtub_浴缸_" data-name="Bathtub（浴缸）"><rect class="cls-1" x="88.94" width="3.89" height="10.56"/><rect class="cls-2" x="84.36" y="2.22" width="12.89" height="4.09"/><circle class="cls-3" cx="90.96" cy="4.27" r="1.86"/><path class="cls-4" d="M115,58,45.2,57.57a14.88,14.88,0,0,1-13.37-8.52,77.84,77.84,0,0,0-3.76-7.24C24,35.44,12,14.91,12,14.91l129.37,1.7S137,35.69,129.87,49.32A16.6,16.6,0,0,1,115,58Z"/><path class="cls-5" d="M116.64,57.75h-67s-6.25-9.13-8.33-13.17C38,38.29,28.85,16.23,28.85,16.23l101.53,1.15S125.14,46.15,116.64,57.75Z"/><path class="cls-6" d="M150,12.06c0,8-31.79,16.69-90.8,9.58C24.91,17.51-.71,15.45,0,6.77.08,6-.28,1.93,2.43,1.68,12.77.75,54.15,11.28,87.1,12.16,126.84,13.22,150,3.24,150,12.06Z"/><path class="cls-7" d="M148.82,10.06c0,2.34-43,10.32-88.44,6.13C26.62,13.08,2.43,5.9,2.43,1.67s47.49,8.19,84.89,8.89C126.51,11.3,148.82,5.28,148.82,10.06Z"/><path class="cls-8" d="M143.59,10.06c0,2.34-28.13,6.26-64.63,5.21C47.3,14.37,6.87,5.9,6.87,1.67s44.35,8.19,79.29,8.89C122.75,11.3,143.59,5.28,143.59,10.06Z"/><polygon class="cls-4" points="49 64.99 42.76 64.99 45.2 57.57 51.44 57.57 49 64.99"/><polygon class="cls-4" points="113.1 65.17 119.34 65.17 116.9 57.75 110.66 57.75 113.1 65.17"/></g></g></g></svg>