<svg xmlns="http://www.w3.org/2000/svg" xmlns:xlink="http://www.w3.org/1999/xlink" viewBox="0 0 149.64 90.58"><defs><style>.cls-1{fill:url(#未命名的渐变_74);}.cls-2{fill:url(#未命名的渐变_74-2);}.cls-3{fill:#dcdcdb;}.cls-4{fill:url(#未命名的渐变_74-3);}.cls-5{fill:url(#未命名的渐变_74-4);}.cls-6{fill:url(#未命名的渐变_74-5);}.cls-7{fill:url(#未命名的渐变_74-6);}.cls-8{fill:url(#未命名的渐变_74-7);}.cls-9{fill:url(#未命名的渐变_74-8);}.cls-10{fill:url(#未命名的渐变_74-9);}.cls-11{fill:url(#未命名的渐变_105);}.cls-12{fill:url(#未命名的渐变_143);}.cls-13{fill:url(#未命名的渐变_105-2);}.cls-14{fill:url(#未命名的渐变_143-2);}.cls-15{fill:url(#未命名的渐变_143-3);}.cls-16{fill:url(#未命名的渐变_105-3);}.cls-17{fill:#dadbe0;}.cls-18{fill:#3e3a39;}.cls-19{fill:url(#未命名的渐变_105-4);}.cls-20{fill:url(#未命名的渐变_105-5);}.cls-21{fill:url(#未命名的渐变_105-6);}.cls-22{fill:url(#未命名的渐变_74-10);}.cls-23{fill:url(#未命名的渐变_74-11);}.cls-24{fill:url(#未命名的渐变_105-7);}.cls-25{fill:url(#未命名的渐变_143-4);}.cls-26{fill:url(#未命名的渐变_143-5);}.cls-27{fill:url(#未命名的渐变_143-6);}.cls-28{fill:url(#未命名的渐变_105-8);}.cls-29{fill:#bbbbbc;}.cls-30,.cls-31{fill:#e8e8e8;stroke:#939399;stroke-miterlimit:10;}.cls-30{stroke-width:0.1px;}.cls-31{stroke-width:0.05px;}.cls-32{fill:#7f7f7f;}.cls-33{fill:#f3f3f2;}.cls-34{fill:#242424;}.cls-35{fill:#9b9c9c;}.cls-36{fill:#faf8f8;}.cls-37{fill:#a95e63;}.cls-38{fill:#f5d38b;}.cls-39{fill:#232323;}.cls-40{fill:#69bdc0;}.cls-41{fill:#a0a0a0;}.cls-42{opacity:0.2;}</style><linearGradient id="未命名的渐变_74" x1="34.24" y1="54.48" x2="149.64" y2="54.48" gradientUnits="userSpaceOnUse"><stop offset="0" stop-color="#6b6b6b"/><stop offset="0.01" stop-color="#767676"/><stop offset="0.03" stop-color="#959595"/><stop offset="0.04" stop-color="#aaa"/><stop offset="0.37" stop-color="#ccc"/><stop offset="0.74" stop-color="#eaeaea"/><stop offset="0.94" stop-color="#f6f6f6"/><stop offset="0.95" stop-color="#ededed"/><stop offset="0.96" stop-color="#d4d4d4"/><stop offset="0.97" stop-color="#ababab"/><stop offset="0.99" stop-color="#737373"/><stop offset="0.99" stop-color="#666"/></linearGradient><linearGradient id="未命名的渐变_74-2" x1="15.62" y1="40.03" x2="34.13" y2="40.03" xlink:href="#未命名的渐变_74"/><linearGradient id="未命名的渐变_74-3" x1="37.95" y1="38.91" x2="67.09" y2="38.91" xlink:href="#未命名的渐变_74"/><linearGradient id="未命名的渐变_74-4" x1="70.14" y1="38.54" x2="99.29" y2="38.54" xlink:href="#未命名的渐变_74"/><linearGradient id="未命名的渐变_74-5" x1="70.14" y1="72.05" x2="99.29" y2="72.05" xlink:href="#未命名的渐变_74"/><linearGradient id="未命名的渐变_74-6" x1="101.87" y1="72.05" x2="122.56" y2="72.05" xlink:href="#未命名的渐变_74"/><linearGradient id="未命名的渐变_74-7" x1="125.36" y1="72.05" x2="146.04" y2="72.05" xlink:href="#未命名的渐变_74"/><linearGradient id="未命名的渐变_74-8" x1="101.87" y1="38.06" x2="145.67" y2="38.06" xlink:href="#未命名的渐变_74"/><linearGradient id="未命名的渐变_74-9" x1="37.95" y1="72.05" x2="67.09" y2="72.05" xlink:href="#未命名的渐变_74"/><linearGradient id="未命名的渐变_105" x1="18.13" y1="31.76" x2="33.39" y2="31.76" gradientUnits="userSpaceOnUse"><stop offset="0" stop-color="#e2e2e2"/><stop offset="0.03" stop-color="#d0d0d0"/><stop offset="0.06" stop-color="#bcbcbc"/><stop offset="0.09" stop-color="#b5b5b5"/><stop offset="0.49" stop-color="#f6f6f6"/><stop offset="0.63" stop-color="#f3f3f3"/><stop offset="0.73" stop-color="#eaeaea"/><stop offset="0.82" stop-color="#dbdbdb"/><stop offset="0.9" stop-color="#c6c6c6"/><stop offset="0.97" stop-color="#aaa"/><stop offset="1" stop-color="#9b9b9b"/></linearGradient><linearGradient id="未命名的渐变_143" x1="18.99" y1="31.76" x2="32.54" y2="31.76" gradientUnits="userSpaceOnUse"><stop offset="0" stop-color="#b7b7b7"/><stop offset="0.03" stop-color="#9b9d9d"/><stop offset="0.07" stop-color="#878b8b"/><stop offset="0.09" stop-color="#808484"/><stop offset="0.2" stop-color="#a3a6a6"/><stop offset="0.49" stop-color="#f6f6f6"/><stop offset="0.61" stop-color="#f3f3f3"/><stop offset="0.7" stop-color="#eaeaea"/><stop offset="0.77" stop-color="#dbdbdb"/><stop offset="0.83" stop-color="#c5c5c5"/><stop offset="0.9" stop-color="#aaa"/><stop offset="0.95" stop-color="#888"/><stop offset="1" stop-color="#666"/></linearGradient><linearGradient id="未命名的渐变_105-2" x1="18.13" y1="46.85" x2="33.39" y2="46.85" xlink:href="#未命名的渐变_105"/><linearGradient id="未命名的渐变_143-2" x1="18.99" y1="46.85" x2="32.54" y2="46.85" xlink:href="#未命名的渐变_143"/><linearGradient id="未命名的渐变_143-3" x1="21.63" y1="46.85" x2="29.9" y2="46.85" xlink:href="#未命名的渐变_143"/><linearGradient id="未命名的渐变_105-3" x1="22.38" y1="46.85" x2="29.15" y2="46.85" xlink:href="#未命名的渐变_105"/><linearGradient id="未命名的渐变_105-4" x1="129.12" y1="78.01" x2="133" y2="78.01" xlink:href="#未命名的渐变_105"/><linearGradient id="未命名的渐变_105-5" x1="66.27" y1="24.45" x2="71.19" y2="24.45" xlink:href="#未命名的渐变_105"/><linearGradient id="未命名的渐变_105-6" x1="66.69" y1="19.38" x2="66.69" y2="11.19" xlink:href="#未命名的渐变_105"/><linearGradient id="未命名的渐变_74-10" x1="74.53" y1="19.33" x2="100.78" y2="19.33" xlink:href="#未命名的渐变_74"/><linearGradient id="未命名的渐变_74-11" x1="100.78" y1="19.33" x2="126.67" y2="19.33" xlink:href="#未命名的渐变_74"/><linearGradient id="未命名的渐变_105-7" x1="-1143.87" y1="1141.68" x2="-1140.19" y2="1141.68" gradientTransform="translate(1273.22 -1053.45)" xlink:href="#未命名的渐变_105"/><linearGradient id="未命名的渐变_143-4" x1="-1143.87" y1="1130.34" x2="-1140.19" y2="1130.34" gradientTransform="translate(1284.55 -1042.11)" xlink:href="#未命名的渐变_143"/><linearGradient id="未命名的渐变_143-5" x1="66.27" y1="55.87" x2="71.19" y2="55.87" xlink:href="#未命名的渐变_143"/><linearGradient id="未命名的渐变_143-6" x1="-1155.13" y1="1160.13" x2="-1151.45" y2="1160.13" gradientTransform="translate(1252.62 -1071.9)" xlink:href="#未命名的渐变_143"/><linearGradient id="未命名的渐变_105-8" x1="67.91" y1="88.4" x2="71.6" y2="84.71" xlink:href="#未命名的渐变_105"/></defs><title>Belt filter press（带式过滤器）</title><g id="图层_2" data-name="图层 2"><g id="图层_125" data-name="图层 125"><g id="Belt_filter_press_带式过滤器_" data-name="Belt filter press（带式过滤器）"><rect class="cls-1" x="34.24" y="18.37" width="115.4" height="72.21"/><rect class="cls-2" x="15.62" y="19.19" width="18.51" height="41.68"/><rect class="cls-3" x="18.44" y="18.56" width="16.45" height="5.8"/><rect class="cls-4" x="37.95" y="23.34" width="29.14" height="31.14"/><rect class="cls-5" x="70.14" y="22.97" width="29.14" height="31.14"/><rect class="cls-6" x="70.14" y="56.48" width="29.14" height="31.14"/><rect class="cls-7" x="101.87" y="56.48" width="20.68" height="31.14"/><rect class="cls-8" x="125.36" y="56.48" width="20.68" height="31.14"/><rect class="cls-9" x="101.87" y="22.49" width="43.79" height="31.14"/><rect class="cls-10" x="37.95" y="56.48" width="29.14" height="31.14"/><circle class="cls-11" cx="25.76" cy="31.76" r="7.63"/><circle class="cls-12" cx="25.76" cy="31.76" r="6.78"/><circle class="cls-13" cx="25.76" cy="46.85" r="7.63"/><circle class="cls-14" cx="25.76" cy="46.85" r="6.78"/><circle class="cls-15" cx="25.76" cy="46.85" r="4.14"/><circle class="cls-16" cx="25.76" cy="46.85" r="3.38"/><polygon class="cls-17" points="34.13 53.6 24.58 53.6 20.42 49.44 17.75 49.43 17.75 52.11 23.58 57.94 23.59 57.92 34.13 57.92 34.13 53.6"/><rect class="cls-17" x="-2.88" y="58.96" width="25.52" height="2.44" transform="translate(-39.65 24.61) rotate(-45)"/><rect class="cls-17" x="15.15" y="69.62" width="28.21" height="1.16" transform="translate(-24.16 124.34) rotate(-112.76)"/><rect class="cls-18" x="40.57" y="60.62" width="7.68" height="5"/><rect class="cls-17" x="41.43" y="61.18" width="5.95" height="3.88"/><rect class="cls-18" x="40.57" y="73.78" width="7.68" height="5"/><rect class="cls-17" x="41.43" y="74.34" width="5.95" height="3.88"/><rect class="cls-18" x="56.38" y="60.62" width="7.68" height="5"/><rect class="cls-17" x="57.24" y="61.18" width="5.95" height="3.88"/><rect class="cls-18" x="72.71" y="60.62" width="7.68" height="5"/><rect class="cls-17" x="73.57" y="61.18" width="5.95" height="3.88"/><rect class="cls-18" x="88.93" y="60.62" width="7.68" height="5"/><rect class="cls-17" x="89.79" y="61.18" width="5.95" height="3.88"/><rect class="cls-18" x="112.61" y="75.84" width="7.68" height="5"/><rect class="cls-17" x="113.47" y="76.4" width="5.95" height="3.88"/><rect class="cls-18" x="135.7" y="76.13" width="7.68" height="5"/><rect class="cls-17" x="136.56" y="76.69" width="5.95" height="3.88"/><rect class="cls-19" x="129.12" y="70.11" width="3.88" height="15.81"/><rect class="cls-20" x="66.27" y="21.46" width="4.92" height="6"/><rect class="cls-21" x="58.9" y="11.19" width="15.58" height="8.19"/><rect class="cls-22" x="74.53" y="3.65" width="26.25" height="31.36"/><rect class="cls-23" x="100.78" y="3.65" width="25.89" height="31.36"/><rect class="cls-24" x="129.34" y="83.72" width="3.69" height="9.03" transform="translate(219.42 -42.95) rotate(90)"/><rect class="cls-25" x="140.68" y="81.41" width="3.69" height="13.65" transform="translate(230.76 -54.29) rotate(90)"/><rect class="cls-26" x="66.27" y="27.45" width="4.92" height="56.84"/><rect class="cls-27" x="97.48" y="60.89" width="3.69" height="54.68" transform="translate(187.56 -11.1) rotate(90)"/><path class="cls-28" d="M72,90.08a9.76,9.76,0,0,1-4.08-1.68c-1.35-1.22-1.64-4.11-1.64-4.11h4.92a3.27,3.27,0,0,0,0,1.3,1.92,1.92,0,0,0,.8.8Z"/><path class="cls-17" d="M22.67,38.25l-1.4-2.09a7.14,7.14,0,0,1,1.93-9.89L60.71.91a5.32,5.32,0,0,1,7.35,1.37L70.3,5.47a4.94,4.94,0,0,1-1,6.75L32.94,40A7.14,7.14,0,0,1,22.67,38.25Z"/><circle class="cls-29" cx="81.89" cy="10.92" r="3.11"/><circle class="cls-30" cx="81.89" cy="10.92" r="2.53"/><rect class="cls-31" x="80.67" y="12.3" width="2.42" height="0.44"/><rect class="cls-29" x="83.67" y="10.6" width="0.29" height="0.62" transform="translate(94.73 -72.9) rotate(90)"/><rect class="cls-29" x="83.11" y="9.24" width="0.29" height="0.62" transform="translate(31.14 -56.07) rotate(45)"/><rect class="cls-29" x="81.74" y="8.67" width="0.29" height="0.62"/><rect class="cls-29" x="80.37" y="9.24" width="0.29" height="0.62" transform="translate(16.83 59.73) rotate(-45)"/><rect class="cls-29" x="79.81" y="10.6" width="0.29" height="0.62" transform="translate(69.04 90.87) rotate(-90)"/><polygon class="cls-32" points="81.43 12.48 80.97 12.26 82.8 9.06 81.43 12.48"/><circle class="cls-29" cx="81.89" cy="10.92" r="0.43"/><circle class="cls-29" cx="92.08" cy="11.06" r="3.11"/><circle class="cls-30" cx="92.08" cy="11.06" r="2.53"/><rect class="cls-31" x="90.87" y="12.45" width="2.42" height="0.44"/><rect class="cls-29" x="93.87" y="10.75" width="0.29" height="0.62" transform="translate(105.08 -82.95) rotate(90)"/><rect class="cls-29" x="93.3" y="9.38" width="0.29" height="0.62" transform="translate(34.23 -63.24) rotate(45)"/><rect class="cls-29" x="91.94" y="8.82" width="0.29" height="0.62"/><rect class="cls-29" x="90.57" y="9.38" width="0.29" height="0.62" transform="translate(19.72 66.98) rotate(-45)"/><rect class="cls-29" x="90" y="10.75" width="0.29" height="0.62" transform="translate(79.09 101.21) rotate(-90)"/><polygon class="cls-32" points="91.62 12.63 91.17 12.41 92.99 9.21 91.62 12.63"/><circle class="cls-29" cx="92.08" cy="11.06" r="0.43"/><rect class="cls-33" x="79" y="22.36" width="5.42" height="2.27"/><rect class="cls-33" x="89.52" y="22.36" width="5.42" height="2.27"/><rect class="cls-33" x="103.61" y="24.17" width="13.38" height="7.24"/><polygon class="cls-34" points="93.16 25.93 91.28 25.93 90.34 27.56 91.28 29.18 93.16 29.18 94.1 27.56 93.16 25.93"/><circle class="cls-35" cx="92.22" cy="27.56" r="1.4"/><circle class="cls-34" cx="92.22" cy="27.56" r="0.88"/><circle class="cls-36" cx="106.16" cy="9.44" r="1.41"/><circle class="cls-37" cx="106.16" cy="9.44" r="0.99"/><circle class="cls-36" cx="114.03" cy="9.44" r="1.41"/><circle class="cls-38" cx="114.03" cy="9.44" r="0.99"/><circle class="cls-36" cx="114.03" cy="13.44" r="1.41"/><circle class="cls-38" cx="114.03" cy="13.44" r="0.99"/><circle class="cls-36" cx="114.03" cy="17.45" r="1.41"/><circle class="cls-38" cx="114.03" cy="17.45" r="0.99"/><circle class="cls-36" cx="114.03" cy="21.46" r="1.41"/><circle class="cls-38" cx="114.03" cy="21.46" r="0.99"/><circle class="cls-36" cx="121.12" cy="28.08" r="1.41"/><circle class="cls-39" cx="121.12" cy="28.08" r="0.99"/><circle class="cls-36" cx="110.22" cy="9.44" r="1.41"/><circle class="cls-40" cx="110.22" cy="9.44" r="0.99"/><circle class="cls-36" cx="110.22" cy="13.44" r="1.41"/><circle class="cls-40" cx="110.22" cy="13.44" r="0.99"/><circle class="cls-36" cx="110.22" cy="17.45" r="1.41"/><circle class="cls-40" cx="110.22" cy="17.45" r="0.99"/><circle class="cls-36" cx="110.22" cy="21.46" r="1.41"/><circle class="cls-40" cx="110.22" cy="21.46" r="0.99"/><circle class="cls-36" cx="106.16" cy="13.44" r="1.41"/><circle class="cls-37" cx="106.16" cy="13.44" r="0.99"/><circle class="cls-36" cx="106.16" cy="17.45" r="1.41"/><circle class="cls-37" cx="106.16" cy="17.45" r="0.99"/><circle class="cls-36" cx="106.16" cy="21.46" r="1.41"/><circle class="cls-37" cx="106.16" cy="21.46" r="0.99"/><rect class="cls-41" x="74.53" y="2.19" width="26.25" height="1.46"/><rect class="cls-41" x="100.24" y="2.19" width="26.43" height="1.46"/><rect class="cls-41" x="74.48" y="35.01" width="26.25" height="1.46"/><rect class="cls-41" x="100.2" y="35.01" width="26.43" height="1.46"/></g></g></g></svg>