<svg xmlns="http://www.w3.org/2000/svg" xmlns:xlink="http://www.w3.org/1999/xlink" viewBox="0 0 149.96 141.44"><defs><style>.cls-1{fill:url(#未命名的渐变_74);}.cls-2{fill:url(#未命名的渐变_74-2);}.cls-3{fill:#302c2b;}.cls-4{fill:#bababa;}.cls-5{fill:#efefef;}.cls-6{fill:url(#未命名的渐变_105);}.cls-7{fill:url(#未命名的渐变_105-2);}.cls-8{fill:url(#未命名的渐变_105-3);}.cls-9{fill:url(#未命名的渐变_105-4);}.cls-10{fill:url(#未命名的渐变_105-5);}.cls-11{fill:url(#未命名的渐变_105-6);}.cls-12{fill:url(#未命名的渐变_105-7);}.cls-13{fill:url(#未命名的渐变_105-8);}.cls-14{fill:url(#未命名的渐变_105-9);}.cls-15{fill:url(#未命名的渐变_105-10);}.cls-16{fill:url(#未命名的渐变_105-11);}.cls-17{fill:url(#未命名的渐变_105-12);}.cls-18{fill:url(#未命名的渐变_105-13);}.cls-19{fill:url(#未命名的渐变_105-14);}.cls-20{fill:url(#未命名的渐变_74-3);}.cls-21{fill:url(#未命名的渐变_105-15);}.cls-22{fill:url(#未命名的渐变_105-16);}.cls-23{fill:url(#未命名的渐变_105-17);}.cls-24{fill:url(#未命名的渐变_105-18);}.cls-25{fill:url(#未命名的渐变_105-19);}.cls-26{fill:url(#未命名的渐变_105-20);}.cls-27{fill:url(#未命名的渐变_105-21);}.cls-28{fill:url(#未命名的渐变_105-22);}.cls-29{fill:url(#未命名的渐变_105-23);}.cls-30{fill:url(#未命名的渐变_105-24);}.cls-31{fill:url(#未命名的渐变_105-25);}.cls-32{fill:url(#未命名的渐变_105-26);}.cls-33{fill:url(#未命名的渐变_105-27);}.cls-34{fill:url(#未命名的渐变_105-28);}.cls-35{fill:url(#未命名的渐变_105-29);}.cls-36{fill:url(#未命名的渐变_105-30);}.cls-37{fill:#bbbcbc;}.cls-38{opacity:0.2;}</style><linearGradient id="未命名的渐变_74" x1="134.38" y1="74.13" x2="149.96" y2="74.13" gradientUnits="userSpaceOnUse"><stop offset="0" stop-color="#6b6b6b"/><stop offset="0.01" stop-color="#767676"/><stop offset="0.03" stop-color="#959595"/><stop offset="0.04" stop-color="#aaa"/><stop offset="0.37" stop-color="#ccc"/><stop offset="0.74" stop-color="#eaeaea"/><stop offset="0.94" stop-color="#f6f6f6"/><stop offset="0.95" stop-color="#ededed"/><stop offset="0.96" stop-color="#d4d4d4"/><stop offset="0.97" stop-color="#ababab"/><stop offset="0.99" stop-color="#737373"/><stop offset="0.99" stop-color="#666"/></linearGradient><linearGradient id="未命名的渐变_74-2" x1="0" y1="74.04" x2="134.38" y2="74.04" xlink:href="#未命名的渐变_74"/><linearGradient id="未命名的渐变_105" x1="136.03" y1="23.43" x2="148.48" y2="23.43" gradientUnits="userSpaceOnUse"><stop offset="0" stop-color="#e2e2e2"/><stop offset="0.03" stop-color="#d0d0d0"/><stop offset="0.06" stop-color="#bcbcbc"/><stop offset="0.09" stop-color="#b5b5b5"/><stop offset="0.49" stop-color="#f6f6f6"/><stop offset="0.63" stop-color="#f3f3f3"/><stop offset="0.73" stop-color="#eaeaea"/><stop offset="0.82" stop-color="#dbdbdb"/><stop offset="0.9" stop-color="#c6c6c6"/><stop offset="0.97" stop-color="#aaa"/><stop offset="1" stop-color="#9b9b9b"/></linearGradient><linearGradient id="未命名的渐变_105-2" x1="136.03" y1="31.3" x2="148.48" y2="31.3" xlink:href="#未命名的渐变_105"/><linearGradient id="未命名的渐变_105-3" x1="136.03" y1="39.16" x2="148.48" y2="39.16" xlink:href="#未命名的渐变_105"/><linearGradient id="未命名的渐变_105-4" x1="136.03" y1="47.03" x2="148.48" y2="47.03" xlink:href="#未命名的渐变_105"/><linearGradient id="未命名的渐变_105-5" x1="136.03" y1="54.9" x2="148.48" y2="54.9" xlink:href="#未命名的渐变_105"/><linearGradient id="未命名的渐变_105-6" x1="136.03" y1="62.77" x2="148.48" y2="62.77" xlink:href="#未命名的渐变_105"/><linearGradient id="未命名的渐变_105-7" x1="136.03" y1="70.64" x2="148.48" y2="70.64" xlink:href="#未命名的渐变_105"/><linearGradient id="未命名的渐变_105-8" x1="136.03" y1="78.51" x2="148.48" y2="78.51" xlink:href="#未命名的渐变_105"/><linearGradient id="未命名的渐变_105-9" x1="136.03" y1="86.38" x2="148.48" y2="86.38" xlink:href="#未命名的渐变_105"/><linearGradient id="未命名的渐变_105-10" x1="136.03" y1="94.25" x2="148.48" y2="94.25" xlink:href="#未命名的渐变_105"/><linearGradient id="未命名的渐变_105-11" x1="136.03" y1="102.12" x2="148.48" y2="102.12" xlink:href="#未命名的渐变_105"/><linearGradient id="未命名的渐变_105-12" x1="136.03" y1="109.99" x2="148.48" y2="109.99" xlink:href="#未命名的渐变_105"/><linearGradient id="未命名的渐变_105-13" x1="136.03" y1="117.85" x2="148.48" y2="117.85" xlink:href="#未命名的渐变_105"/><linearGradient id="未命名的渐变_105-14" x1="136.03" y1="125.72" x2="148.48" y2="125.72" xlink:href="#未命名的渐变_105"/><linearGradient id="未命名的渐变_74-3" x1="92.92" y1="9.27" x2="125.51" y2="9.27" xlink:href="#未命名的渐变_74"/><linearGradient id="未命名的渐变_105-15" x1="17.67" y1="13.34" x2="37.08" y2="13.34" xlink:href="#未命名的渐变_105"/><linearGradient id="未命名的渐变_105-16" x1="21.8" y1="9.28" x2="33" y2="9.28" xlink:href="#未命名的渐变_105"/><linearGradient id="未命名的渐变_105-17" x1="24.93" y1="3.51" x2="29.64" y2="3.51" xlink:href="#未命名的渐变_105"/><linearGradient id="未命名的渐变_105-18" x1="12.45" y1="108.56" x2="14.85" y2="108.56" xlink:href="#未命名的渐变_105"/><linearGradient id="未命名的渐变_105-19" x1="21.26" y1="108.56" x2="23.66" y2="108.56" xlink:href="#未命名的渐变_105"/><linearGradient id="未命名的渐变_105-20" x1="30.07" y1="108.56" x2="32.46" y2="108.56" xlink:href="#未命名的渐变_105"/><linearGradient id="未命名的渐变_105-21" x1="38.88" y1="108.56" x2="41.27" y2="108.56" xlink:href="#未命名的渐变_105"/><linearGradient id="未命名的渐变_105-22" x1="47.68" y1="108.56" x2="50.08" y2="108.56" xlink:href="#未命名的渐变_105"/><linearGradient id="未命名的渐变_105-23" x1="56.49" y1="108.56" x2="58.89" y2="108.56" xlink:href="#未命名的渐变_105"/><linearGradient id="未命名的渐变_105-24" x1="65.3" y1="108.56" x2="67.69" y2="108.56" xlink:href="#未命名的渐变_105"/><linearGradient id="未命名的渐变_105-25" x1="74.11" y1="108.56" x2="76.5" y2="108.56" xlink:href="#未命名的渐变_105"/><linearGradient id="未命名的渐变_105-26" x1="82.91" y1="108.56" x2="85.31" y2="108.56" xlink:href="#未命名的渐变_105"/><linearGradient id="未命名的渐变_105-27" x1="91.72" y1="108.56" x2="94.12" y2="108.56" xlink:href="#未命名的渐变_105"/><linearGradient id="未命名的渐变_105-28" x1="100.53" y1="108.56" x2="102.93" y2="108.56" xlink:href="#未命名的渐变_105"/><linearGradient id="未命名的渐变_105-29" x1="109.34" y1="108.56" x2="111.73" y2="108.56" xlink:href="#未命名的渐变_105"/><linearGradient id="未命名的渐变_105-30" x1="118.14" y1="108.56" x2="120.54" y2="108.56" xlink:href="#未命名的渐变_105"/></defs><title>Biological treatment plant（生物处理厂）</title><g id="图层_2" data-name="图层 2"><g id="图层_125" data-name="图层 125"><g id="Biological_treatment_plant_生物处理厂_" data-name="Biological treatment plant（生物处理厂）"><rect class="cls-1" x="134.38" y="15.33" width="15.58" height="117.6"/><path class="cls-2" d="M.61,15.14H133.77a.61.61,0,0,1,.61.61V132.93a0,0,0,0,1,0,0H0a0,0,0,0,1,0,0V15.75A.61.61,0,0,1,.61,15.14Z"/><rect class="cls-3" x="81.85" y="32.51" width="33.17" height="22.53" rx="0.53"/><rect class="cls-4" x="83.61" y="34.43" width="30.16" height="19.29"/><polygon class="cls-5" points="113.77 53.72 95.44 34.43 113.77 34.43 113.77 53.72"/><rect class="cls-6" x="136.03" y="22.21" width="12.45" height="2.44" rx="0.32"/><rect class="cls-7" x="136.03" y="30.08" width="12.45" height="2.44" rx="0.32"/><rect class="cls-8" x="136.03" y="37.95" width="12.45" height="2.44" rx="0.32"/><rect class="cls-9" x="136.03" y="45.82" width="12.45" height="2.44" rx="0.32"/><rect class="cls-10" x="136.03" y="53.68" width="12.45" height="2.44" rx="0.32"/><rect class="cls-11" x="136.03" y="61.55" width="12.45" height="2.44" rx="0.32"/><rect class="cls-12" x="136.03" y="69.42" width="12.45" height="2.44" rx="0.32"/><rect class="cls-13" x="136.03" y="77.29" width="12.45" height="2.44" rx="0.32"/><rect class="cls-14" x="136.03" y="85.16" width="12.45" height="2.44" rx="0.32"/><rect class="cls-15" x="136.03" y="93.03" width="12.45" height="2.44" rx="0.32"/><rect class="cls-16" x="136.03" y="100.9" width="12.45" height="2.44" rx="0.32"/><rect class="cls-17" x="136.03" y="108.77" width="12.45" height="2.44" rx="0.32"/><rect class="cls-18" x="136.03" y="116.64" width="12.45" height="2.44" rx="0.32"/><rect class="cls-19" x="136.03" y="124.5" width="12.45" height="2.44" rx="0.32"/><rect class="cls-20" x="92.92" y="3.4" width="32.59" height="11.74"/><rect class="cls-21" x="17.67" y="11.54" width="19.41" height="3.59"/><rect class="cls-22" x="21.8" y="7.02" width="11.2" height="4.52"/><rect class="cls-23" x="24.93" width="4.7" height="7.02"/><rect class="cls-5" x="7.74" y="81.65" width="119.21" height="51.29" rx="0.61"/><rect class="cls-24" x="12.45" y="84.72" width="2.4" height="47.67"/><rect class="cls-25" x="21.26" y="84.72" width="2.4" height="47.67"/><rect class="cls-26" x="30.07" y="84.72" width="2.4" height="47.67"/><rect class="cls-27" x="38.88" y="84.72" width="2.4" height="47.67"/><rect class="cls-28" x="47.68" y="84.72" width="2.4" height="47.67"/><rect class="cls-29" x="56.49" y="84.72" width="2.4" height="47.67"/><rect class="cls-30" x="65.3" y="84.72" width="2.4" height="47.67"/><rect class="cls-31" x="74.11" y="84.72" width="2.4" height="47.67"/><rect class="cls-32" x="82.91" y="84.72" width="2.4" height="47.67"/><rect class="cls-33" x="91.72" y="84.72" width="2.4" height="47.67"/><rect class="cls-34" x="100.53" y="84.72" width="2.4" height="47.67"/><rect class="cls-35" x="109.34" y="84.72" width="2.4" height="47.67"/><rect class="cls-36" x="118.14" y="84.72" width="2.4" height="47.67"/><rect class="cls-37" y="132.93" width="134.38" height="8.51"/></g></g></g></svg>