<svg xmlns="http://www.w3.org/2000/svg" xmlns:xlink="http://www.w3.org/1999/xlink" viewBox="0 0 150 138.98"><defs><style>.cls-1{isolation:isolate;}.cls-16,.cls-2,.cls-4{opacity:0.4;}.cls-2{fill:url(#未命名的渐变_20);}.cls-3{opacity:0.8;fill:url(#未命名的渐变_449);}.cls-3,.cls-5{mix-blend-mode:overlay;}.cls-4{fill:url(#未命名的渐变_20-2);}.cls-5{fill:#a83314;opacity:0.9;}.cls-6{fill:url(#未命名的渐变_186);}.cls-7{fill:#2f3033;}.cls-8{fill:#606060;}.cls-9{fill:#17181a;}.cls-10{fill:url(#未命名的渐变_201);}.cls-11{fill:url(#未命名的渐变_201-2);}.cls-12{fill:#2f3133;}.cls-13{fill:url(#未命名的渐变_499);}.cls-14{fill:#9ba1a8;}.cls-15,.cls-20,.cls-24{fill:#d3441e;}.cls-15,.cls-18,.cls-20{stroke-linecap:round;stroke-width:0.5px;}.cls-15,.cls-18,.cls-20,.cls-25,.cls-27{stroke-miterlimit:10;}.cls-15{stroke:url(#未命名的渐变_20-3);}.cls-17{fill:url(#未命名的渐变_328);}.cls-18{fill:#2068d1;stroke:url(#未命名的渐变_20-4);}.cls-19{fill:url(#未命名的渐变_328-2);}.cls-20{stroke:url(#未命名的渐变_20-5);}.cls-21{fill:url(#未命名的渐变_328-3);}.cls-22{fill:url(#未命名的渐变_499-2);}.cls-23{fill:#a81c00;}.cls-25,.cls-27{stroke:#505458;stroke-width:0.25px;}.cls-25{fill:url(#未命名的渐变_303);}.cls-26{fill:#505458;}.cls-27{fill:url(#未命名的渐变_303-2);}.cls-28{opacity:0.2;}</style><linearGradient id="未命名的渐变_20" x1="66.07" y1="18.96" x2="66.07" y2="30.25" gradientTransform="translate(11.55 -13.22)" gradientUnits="userSpaceOnUse"><stop offset="0" stop-color="#767b82"/><stop offset="0.07" stop-color="#9ba1ab"/><stop offset="0.22" stop-color="#e2eaf2"/><stop offset="0.94" stop-color="#5d6166"/><stop offset="1" stop-color="#a9b1bb"/></linearGradient><linearGradient id="未命名的渐变_449" x1="69.68" y1="9.83" x2="85.55" y2="9.83" gradientTransform="translate(67.78 87.44) rotate(-90)" gradientUnits="userSpaceOnUse"><stop offset="0" stop-color="#d3441e"/><stop offset="0.08" stop-color="#33110a"/><stop offset="0.23" stop-color="#a3351a"/><stop offset="0.75" stop-color="#c44627"/><stop offset="0.86" stop-color="#ffc2b3"/><stop offset="1" stop-color="#9d3920"/></linearGradient><linearGradient id="未命名的渐变_20-2" x1="72.08" y1="16.05" x2="72.08" y2="33.17" gradientTransform="translate(5.54 -7.21)" xlink:href="#未命名的渐变_20"/><linearGradient id="未命名的渐变_186" x1="3406" y1="-66.4" x2="3556" y2="-66.4" gradientTransform="translate(-3406 144.78)" gradientUnits="userSpaceOnUse"><stop offset="0" stop-color="#8b9199"/><stop offset="0.02" stop-color="#d7dce0"/><stop offset="0.04" stop-color="#a2a8b3"/><stop offset="0.98" stop-color="#a2a8b3"/><stop offset="1" stop-color="#767b82"/></linearGradient><linearGradient id="未命名的渐变_201" x1="82.04" y1="57.49" x2="60.14" y2="35.59" gradientUnits="userSpaceOnUse"><stop offset="0" stop-color="#e6f1ff" stop-opacity="0"/><stop offset="0.16" stop-color="#e6f1ff" stop-opacity="0.01"/><stop offset="0.29" stop-color="#e6f1ff" stop-opacity="0.05"/><stop offset="0.41" stop-color="#e7f1ff" stop-opacity="0.12"/><stop offset="0.53" stop-color="#e8f2ff" stop-opacity="0.21"/><stop offset="0.63" stop-color="#e9f2ff" stop-opacity="0.33"/><stop offset="0.74" stop-color="#eaf2ff" stop-opacity="0.48"/><stop offset="0.84" stop-color="#ebf3ff" stop-opacity="0.66"/><stop offset="0.94" stop-color="#edf4ff" stop-opacity="0.85"/><stop offset="1" stop-color="#eef4ff"/></linearGradient><linearGradient id="未命名的渐变_201-2" x1="78.73" y1="103.15" x2="69.82" y2="94.25" xlink:href="#未命名的渐变_201"/><linearGradient id="未命名的渐变_499" x1="54.89" y1="125.08" x2="54.89" y2="119.27" gradientUnits="userSpaceOnUse"><stop offset="0" stop-color="#45484d"/><stop offset="0.11" stop-color="#494c51"/><stop offset="0.21" stop-color="#53575d"/><stop offset="0.31" stop-color="#666970"/><stop offset="0.41" stop-color="#7f838c"/><stop offset="0.45" stop-color="#8b9099"/><stop offset="0.7" stop-color="#abafb3"/><stop offset="1" stop-color="#45484d"/></linearGradient><linearGradient id="未命名的渐变_20-3" x1="68.75" y1="125.3" x2="68.75" y2="119.08" gradientTransform="matrix(1, 0, 0, 1, 0, 0)" xlink:href="#未命名的渐变_20"/><linearGradient id="未命名的渐变_328" x1="68.75" y1="124.65" x2="68.75" y2="119.73" gradientUnits="userSpaceOnUse"><stop offset="0" stop-color="#fff" stop-opacity="0"/><stop offset="0.09" stop-color="#fff" stop-opacity="0.04"/><stop offset="0.24" stop-color="#fff" stop-opacity="0.16"/><stop offset="0.44" stop-color="#fff" stop-opacity="0.36"/><stop offset="0.69" stop-color="#fff" stop-opacity="0.62"/><stop offset="0.97" stop-color="#fff" stop-opacity="0.96"/><stop offset="1" stop-color="#fff"/></linearGradient><linearGradient id="未命名的渐变_20-4" x1="82.61" y1="125.3" x2="82.61" y2="119.08" gradientTransform="matrix(1, 0, 0, 1, 0, 0)" xlink:href="#未命名的渐变_20"/><linearGradient id="未命名的渐变_328-2" x1="82.61" y1="124.65" x2="82.61" y2="119.73" xlink:href="#未命名的渐变_328"/><linearGradient id="未命名的渐变_20-5" x1="96.47" y1="125.3" x2="96.47" y2="119.08" gradientTransform="matrix(1, 0, 0, 1, 0, 0)" xlink:href="#未命名的渐变_20"/><linearGradient id="未命名的渐变_328-3" x1="96.47" y1="124.65" x2="96.47" y2="119.73" xlink:href="#未命名的渐变_328"/><linearGradient id="未命名的渐变_499-2" x1="52.83" y1="107.26" x2="56.94" y2="103.15" xlink:href="#未命名的渐变_499"/><linearGradient id="未命名的渐变_303" x1="133.8" y1="27.46" x2="133.8" y2="33.12" gradientUnits="userSpaceOnUse"><stop offset="0" stop-color="#9ba1ab"/><stop offset="0" stop-color="#abb1ba"/><stop offset="0.09" stop-color="#abb1ba"/><stop offset="0.46" stop-color="#f5faff"/><stop offset="1" stop-color="#a9b1bb"/></linearGradient><linearGradient id="未命名的渐变_303-2" x1="133.8" y1="124.35" x2="133.8" y2="130.02" xlink:href="#未命名的渐变_303"/></defs><title>Boiler control 2(燃油锅炉2)</title><g class="cls-1"><g id="图层_2" data-name="图层 2"><g id="图层_21" data-name="图层 21"><g id="Boiler_control_2_燃油锅炉2_" data-name="Boiler control 2(燃油锅炉2)"><path class="cls-2" d="M71.39,5.75h14.5a0,0,0,0,1,0,0V17a0,0,0,0,1,0,0H71.39a2,2,0,0,1-2-2V7.79A2,2,0,0,1,71.39,5.75Z" transform="translate(89 -66.22) rotate(90)"/><path class="cls-3" d="M70.43,1.9h17a0,0,0,0,1,0,0V17.77a0,0,0,0,1,0,0h-17a2.64,2.64,0,0,1-2.64-2.64V4.54A2.64,2.64,0,0,1,70.43,1.9Z" transform="translate(87.44 -67.78) rotate(90)"/><path class="cls-4" d="M76.67,8.84h3.21a0,0,0,0,1,0,0V26a0,0,0,0,1,0,0H76.67a1.32,1.32,0,0,1-1.32-1.32V10.15A1.32,1.32,0,0,1,76.67,8.84Z" transform="translate(95.01 -60.21) rotate(90)"/><path class="cls-5" d="M76.55,7.59h3.6a0,0,0,0,1,0,0V26.66a0,0,0,0,1,0,0h-3.6a1.47,1.47,0,0,1-1.47-1.47V9.06A1.47,1.47,0,0,1,76.55,7.59Z" transform="translate(94.74 -60.49) rotate(90)"/><rect class="cls-6" y="17.78" width="150" height="121.2" transform="translate(150 156.77) rotate(180)"/><rect class="cls-7" x="48.18" y="33.12" width="54.14" height="35.16" rx="6.59"/><rect class="cls-8" x="53.91" y="39.64" width="42.69" height="22.12" rx="3.42"/><path class="cls-9" d="M93.17,39.77a3.29,3.29,0,0,1,3.3,3.29V58.34a3.3,3.3,0,0,1-3.3,3.3H57.33a3.3,3.3,0,0,1-3.3-3.3V43.06a3.29,3.29,0,0,1,3.3-3.29H93.17m0-.25H57.33a3.55,3.55,0,0,0-3.55,3.54V58.34a3.55,3.55,0,0,0,3.55,3.55H93.17a3.55,3.55,0,0,0,3.55-3.55V43.06a3.55,3.55,0,0,0-3.55-3.54Z"/><path class="cls-10" d="M57.33,61.64a3.3,3.3,0,0,1-3.3-3.3V43.06a3.29,3.29,0,0,1,3.3-3.29H93.17a3.29,3.29,0,0,1,3.3,3.29"/><rect class="cls-7" x="64.02" y="93.81" width="22.45" height="17.1" rx="2.96"/><rect class="cls-8" x="66.32" y="96.92" width="17.85" height="5.51" rx="1.17"/><path class="cls-9" d="M83,97a1,1,0,0,1,1,1v3.18a1,1,0,0,1-1,1H67.49a1,1,0,0,1-1-1V98.08a1,1,0,0,1,1-1H83m0-.25H67.49a1.29,1.29,0,0,0-1.29,1.29v3.18a1.29,1.29,0,0,0,1.29,1.29H83a1.29,1.29,0,0,0,1.29-1.29V98.08A1.29,1.29,0,0,0,83,96.79Z"/><path class="cls-11" d="M67.82,102.3c-.76,0-1.37-.35-1.37-.79V97.83c0-.43.61-.79,1.37-.79H82.68c.76,0,1.37.36,1.37.79"/><rect class="cls-7" x="49.89" y="117.2" width="9.99" height="9.99"/><circle class="cls-12" cx="54.89" cy="122.18" r="2.91"/><path class="cls-13" d="M54.89,119.77a2.41,2.41,0,1,1-2.41,2.41,2.41,2.41,0,0,1,2.41-2.41m0-.5a2.91,2.91,0,1,0,2.9,2.91,2.91,2.91,0,0,0-2.9-2.91Z"/><rect class="cls-14" x="51.98" y="121.38" width="5.81" height="1.59"/><rect class="cls-7" x="63.75" y="117.2" width="9.99" height="9.99"/><circle class="cls-15" cx="68.75" cy="122.19" r="2.86"/><g class="cls-16"><circle class="cls-17" cx="68.75" cy="122.19" r="2.46"/></g><rect class="cls-7" x="77.61" y="117.2" width="9.99" height="9.99"/><circle class="cls-18" cx="82.61" cy="122.19" r="2.86"/><g class="cls-16"><circle class="cls-19" cx="82.61" cy="122.19" r="2.46"/></g><rect class="cls-7" x="91.47" y="117.2" width="9.99" height="9.99"/><circle class="cls-20" cx="96.47" cy="122.19" r="2.86"/><g class="cls-16"><circle class="cls-21" cx="96.47" cy="122.19" r="2.46"/></g><rect class="cls-7" x="49.89" y="100.23" width="9.99" height="9.99"/><circle class="cls-12" cx="54.89" cy="105.21" r="2.91"/><path class="cls-22" d="M54.89,102.8a2.41,2.41,0,0,1,1.7,4.11,2.42,2.42,0,0,1-1.7.7,2.4,2.4,0,0,1-1.7-4.1,2.35,2.35,0,0,1,1.7-.71m0-.5a2.91,2.91,0,0,0-2.06,5,2.91,2.91,0,1,0,4.11-4.11,2.93,2.93,0,0,0-2-.85Z"/><rect class="cls-14" x="54.09" y="102.3" width="1.59" height="5.81" transform="translate(-58.32 69.63) rotate(-45)"/><rect class="cls-7" x="91.47" y="100.23" width="9.99" height="9.99"/><circle class="cls-23" cx="96.47" cy="105.67" r="3.14"/><circle class="cls-24" cx="96.47" cy="105.67" r="2.86"/><circle class="cls-25" cx="133.8" cy="30.29" r="2.83"/><path class="cls-26" d="M132.08,30.07h1.56V28.52H134v1.55h1.55v.28H134v1.72h-.33V30.35h-1.56Z"/><circle class="cls-27" cx="133.8" cy="127.18" r="2.83"/><path class="cls-26" d="M132.08,127h1.56v-1.55H134V127h1.55v.28H134V129h-.33v-1.72h-1.56Z"/></g></g></g></g></svg>