<svg xmlns="http://www.w3.org/2000/svg" xmlns:xlink="http://www.w3.org/1999/xlink" viewBox="0 0 150 121.5"><defs><style>.cls-1{fill:url(#未命名的渐变_59);}.cls-2{fill:url(#未命名的渐变_290);}.cls-3{fill:#ebf0f5;}.cls-4{fill:url(#未命名的渐变_278);}.cls-5{fill:url(#未命名的渐变_278-2);}.cls-6{fill:url(#未命名的渐变_20);}.cls-7{fill:url(#未命名的渐变_20-2);}.cls-8{fill:url(#未命名的渐变_292);}.cls-9{fill:url(#未命名的渐变_278-3);}.cls-10{opacity:0.2;}</style><linearGradient id="未命名的渐变_59" x1="107.77" x2="107.77" y2="121.5" gradientUnits="userSpaceOnUse"><stop offset="0" stop-color="#d7dce0"/><stop offset="1" stop-color="#8a9099"/></linearGradient><linearGradient id="未命名的渐变_290" x1="107.77" x2="107.77" y2="121.5" gradientUnits="userSpaceOnUse"><stop offset="0" stop-color="#f5faff"/><stop offset="1" stop-color="#5c6066"/></linearGradient><linearGradient id="未命名的渐变_278" x1="263.05" y1="193.46" x2="263.05" y2="186.61" gradientTransform="translate(-199.43 -163.83)" gradientUnits="userSpaceOnUse"><stop offset="0" stop-color="#676b70"/><stop offset="0.05" stop-color="#606366"/><stop offset="0.26" stop-color="#5d6166"/><stop offset="0.3" stop-color="#c2c7cc"/><stop offset="0.32" stop-color="#b8bec3"/><stop offset="0.39" stop-color="#a4aab0"/><stop offset="0.46" stop-color="#969ca3"/><stop offset="0.55" stop-color="#8e939b"/><stop offset="0.7" stop-color="#8b9199"/><stop offset="0.73" stop-color="#edf5ff"/><stop offset="0.77" stop-color="#c3c7cc"/><stop offset="1" stop-color="#c3c7cc"/></linearGradient><linearGradient id="未命名的渐变_278-2" x1="263.05" y1="266.35" x2="263.05" y2="259.5" xlink:href="#未命名的渐变_278"/><linearGradient id="未命名的渐变_20" x1="25.17" y1="45.49" x2="25.17" y2="50.98" gradientUnits="userSpaceOnUse"><stop offset="0" stop-color="#767b82"/><stop offset="0.07" stop-color="#9ba1ab"/><stop offset="0.22" stop-color="#e2eaf2"/><stop offset="0.94" stop-color="#5d6166"/><stop offset="1" stop-color="#a9b1bb"/></linearGradient><linearGradient id="未命名的渐变_20-2" x1="38.4" y1="40.83" x2="38.4" y2="55.92" xlink:href="#未命名的渐变_20"/><linearGradient id="未命名的渐变_292" x1="44.05" y1="41.96" x2="56.65" y2="54.56" gradientUnits="userSpaceOnUse"><stop offset="0" stop-color="#767b82"/><stop offset="0.07" stop-color="#9ba1ab"/><stop offset="0.19" stop-color="#e2eaf2"/><stop offset="0.94" stop-color="#5d6166"/><stop offset="1" stop-color="#a9b1bb"/></linearGradient><linearGradient id="未命名的渐变_278-3" x1="257.38" y1="224.69" x2="257.38" y2="199.49" xlink:href="#未命名的渐变_278"/></defs><title>Boiler control 1(燃油锅炉1)</title><g id="图层_2" data-name="图层 2"><g id="图层_21" data-name="图层 21"><g id="Boiler_control_1_燃油锅炉1_" data-name="Boiler control 1(燃油锅炉1)"><rect class="cls-1" x="65.55" width="84.45" height="121.5" rx="13.16"/><path class="cls-2" d="M136.84,2A11.18,11.18,0,0,1,148,13.16v95.18a11.18,11.18,0,0,1-11.16,11.16H78.71a11.17,11.17,0,0,1-11.16-11.16V13.16A11.17,11.17,0,0,1,78.71,2h58.13m0-2H78.71A13.2,13.2,0,0,0,65.55,13.16v95.18A13.2,13.2,0,0,0,78.71,121.5h58.13A13.2,13.2,0,0,0,150,108.34V13.16A13.2,13.2,0,0,0,136.84,0Z"/><rect class="cls-3" x="73.43" y="11.34" width="68.69" height="98.82" rx="10.7"/><rect class="cls-4" x="61.69" y="22.78" width="3.86" height="6.85"/><rect class="cls-5" x="61.69" y="95.67" width="3.86" height="6.85"/><rect class="cls-6" y="45.49" width="50.35" height="5.49"/><rect class="cls-7" x="30.41" y="40.83" width="15.96" height="15.09"/><polygon class="cls-8" points="50.35 60.86 46.38 55.88 46.38 40.64 50.35 35.66 50.35 60.86"/><rect class="cls-9" x="50.35" y="35.66" width="15.2" height="25.2"/>
</g></g></g></svg>