<svg xmlns="http://www.w3.org/2000/svg" xmlns:xlink="http://www.w3.org/1999/xlink" viewBox="0 0 78.02 150"><defs><style>.cls-1{fill:url(#未命名的渐变_22);}.cls-2{fill:url(#未命名的渐变_22-2);}.cls-3{fill:url(#未命名的渐变_22-3);}.cls-4{fill:url(#未命名的渐变_22-4);}.cls-5{fill:url(#未命名的渐变_22-5);}.cls-6{fill:url(#未命名的渐变_22-6);}.cls-7{fill:url(#未命名的渐变_22-7);}.cls-8{fill:url(#未命名的渐变_22-8);}.cls-9{fill:url(#未命名的渐变_22-9);}.cls-10{opacity:0.3;isolation:isolate;fill:url(#未命名的渐变_22-10);}.cls-11{fill:url(#未命名的渐变_22-11);}.cls-12{fill:url(#未命名的渐变_22-12);}.cls-13{fill:url(#未命名的渐变_22-13);}.cls-14{fill:url(#未命名的渐变_22-14);}.cls-15{fill:url(#未命名的渐变_22-15);}.cls-16{fill:url(#未命名的渐变_22-16);}.cls-17{fill:url(#未命名的渐变_18);}.cls-18{fill:url(#未命名的渐变_18-2);}.cls-19{fill:url(#未命名的渐变_19);}.cls-20{fill:url(#未命名的渐变_22-17);}.cls-21{fill:#afebfe;}.cls-22,.cls-23{fill:none;stroke-miterlimit:10;}.cls-22{stroke:url(#未命名的渐变_22-18);}.cls-23{stroke:url(#未命名的渐变_22-19);}.cls-24{opacity:0.2;}</style><linearGradient id="未命名的渐变_22" x1="4.82" y1="102.82" x2="12.5" y2="102.82" gradientTransform="matrix(1, 0, 0, -1, 0, 152)" gradientUnits="userSpaceOnUse"><stop offset="0" stop-color="#a9b1bb"/><stop offset="0.09" stop-color="#61666b"/><stop offset="0.18" stop-color="#696e73"/><stop offset="0.32" stop-color="#7e8489"/><stop offset="0.49" stop-color="#a1a7ae"/><stop offset="0.69" stop-color="#d1d8e0"/><stop offset="0.75" stop-color="#e2eaf2"/><stop offset="0.93" stop-color="#9ba1ab"/><stop offset="1" stop-color="#767b82"/></linearGradient><linearGradient id="未命名的渐变_22-2" x1="3.43" y1="107.76" x2="13.9" y2="107.76" xlink:href="#未命名的渐变_22"/><linearGradient id="未命名的渐变_22-3" x1="6.76" y1="110.99" x2="10.18" y2="110.99" xlink:href="#未命名的渐变_22"/><linearGradient id="未命名的渐变_22-4" x1="0" y1="113.28" x2="10.23" y2="113.28" xlink:href="#未命名的渐变_22"/><linearGradient id="未命名的渐变_22-5" x1="17.41" y1="102.82" x2="25.09" y2="102.82" xlink:href="#未命名的渐变_22"/><linearGradient id="未命名的渐变_22-6" x1="16.01" y1="107.76" x2="26.48" y2="107.76" xlink:href="#未命名的渐变_22"/><linearGradient id="未命名的渐变_22-7" x1="19.35" y1="110.99" x2="22.77" y2="110.99" xlink:href="#未命名的渐变_22"/><linearGradient id="未命名的渐变_22-8" x1="12.59" y1="113.28" x2="22.82" y2="113.28" xlink:href="#未命名的渐变_22"/><linearGradient id="未命名的渐变_22-9" x1="34.77" y1="108.63" x2="43.63" y2="108.63" xlink:href="#未命名的渐变_22"/><linearGradient id="未命名的渐变_22-10" x1="36.09" y1="133.6" x2="42.31" y2="133.6" xlink:href="#未命名的渐变_22"/><linearGradient id="未命名的渐变_22-11" x1="33.16" y1="113.56" x2="45.24" y2="113.56" xlink:href="#未命名的渐变_22"/><linearGradient id="未命名的渐变_22-12" x1="54.66" y1="102.82" x2="62.34" y2="102.82" xlink:href="#未命名的渐变_22"/><linearGradient id="未命名的渐变_22-13" x1="53.26" y1="107.76" x2="63.73" y2="107.76" xlink:href="#未命名的渐变_22"/><linearGradient id="未命名的渐变_22-14" x1="56.6" y1="110.99" x2="60.02" y2="110.99" xlink:href="#未命名的渐变_22"/><linearGradient id="未命名的渐变_22-15" x1="49.84" y1="113.28" x2="60.07" y2="113.28" xlink:href="#未命名的渐变_22"/><linearGradient id="未命名的渐变_22-16" x1="0.66" y1="53.57" x2="78.02" y2="53.57" xlink:href="#未命名的渐变_22"/><linearGradient id="未命名的渐变_18" x1="26.58" y1="75.08" x2="52.71" y2="112.41" gradientTransform="matrix(1, 0, 0, -1, 0, 152)" gradientUnits="userSpaceOnUse"><stop offset="0" stop-color="#a9b1bb"/><stop offset="0.09" stop-color="#61666b"/><stop offset="0.18" stop-color="#696e73"/><stop offset="0.31" stop-color="#7e8489"/><stop offset="0.46" stop-color="#a1a7ae"/><stop offset="0.65" stop-color="#d1d8e0"/><stop offset="0.7" stop-color="#e2eaf2"/><stop offset="0.93" stop-color="#9ba1ab"/><stop offset="1" stop-color="#767b82"/></linearGradient><linearGradient id="未命名的渐变_18-2" x1="26.58" y1="29.82" x2="52.71" y2="67.15" gradientTransform="translate(0 90.12)" xlink:href="#未命名的渐变_18"/><linearGradient id="未命名的渐变_19" x1="8.42" y1="9.4" x2="70.28" y2="97.74" gradientTransform="matrix(1, 0, 0, -1, 0, 152)" gradientUnits="userSpaceOnUse"><stop offset="0" stop-color="#abafb3"/><stop offset="1" stop-color="#45484d"/></linearGradient><linearGradient id="未命名的渐变_22-17" x1="37.69" y1="53.57" x2="40.71" y2="53.57" xlink:href="#未命名的渐变_22"/><linearGradient id="未命名的渐变_22-18" x1="52.3" y1="67.55" x2="64.78" y2="67.55" xlink:href="#未命名的渐变_22"/><linearGradient id="未命名的渐变_22-19" x1="14.08" y1="67.55" x2="26.56" y2="67.55" xlink:href="#未命名的渐变_22"/></defs><title>Boiler 6(锅炉6)</title><g id="图层_2" data-name="图层 2"><g id="图层_21" data-name="图层 21"><g id="Boiler_6_锅炉6_" data-name="Boiler 6(锅炉6)"><g id="图层_6" data-name="图层 6"><g id="Boiler_6_锅炉6_2" data-name="Boiler 6 锅炉6 "><rect class="cls-1" x="4.82" y="42.6" width="7.68" height="13.17"/><rect class="cls-2" x="3.43" y="42.6" width="10.47" height="3.29"/><rect class="cls-3" x="6.76" y="39.42" width="3.42" height="3.18"/><rect class="cls-4" y="37.89" width="10.23" height="1.65"/><rect class="cls-5" x="17.41" y="42.6" width="7.68" height="13.17"/><rect class="cls-6" x="16.01" y="42.6" width="10.47" height="3.29"/><rect class="cls-7" x="19.35" y="39.42" width="3.42" height="3.18"/><rect class="cls-8" x="12.59" y="37.89" width="10.23" height="1.65"/><rect class="cls-9" x="34.77" y="36.79" width="8.86" height="13.17"/><rect class="cls-10" x="36.09" width="6.22" height="36.79"/><rect class="cls-11" x="33.16" y="36.79" width="12.08" height="3.29"/><rect class="cls-12" x="54.66" y="42.6" width="7.68" height="13.17"/><rect class="cls-13" x="53.26" y="42.6" width="10.47" height="3.29"/><rect class="cls-14" x="56.6" y="39.42" width="3.42" height="3.18"/><rect class="cls-15" x="49.84" y="37.89" width="10.23" height="1.65"/><rect class="cls-16" x="0.66" y="58.77" width="77.36" height="79.32"/><path class="cls-17" d="M78,58.77H.66s5-11.91,38.69-11.91S78,58.77,78,58.77Z"/><path class="cls-18" d="M78,138.09H.66S5.64,150,39.35,150,78,138.09,78,138.09Z"/><path class="cls-19" d="M76.09,59.27v78.34c-1,1.62-8,10.45-36.74,10.45S3.69,139.29,2.6,137.6V59.26c1-1.63,8-10.46,36.75-10.46S75,57.57,76.09,59.27Z"/><rect class="cls-20" x="37.69" y="48.8" width="3.02" height="99.26"/><path class="cls-21" d="M76.09,128v9.65c-1,1.62-8,10.45-36.74,10.45S3.69,139.29,2.6,137.6V128Z"/><rect class="cls-21" x="16.63" y="119.84" width="7.39" height="12.28"/><rect class="cls-21" x="54.85" y="119.84" width="7.39" height="12.28"/><path class="cls-22" d="M61.42,75.91v-26H55.66v26L52.8,77.85v38.64s1.55,2.5,5.74,2.5,5.74-2.5,5.74-2.5V77.85Z"/><path class="cls-21" d="M64.28,83.45v33s-1.55,2.5-5.74,2.5-5.74-2.5-5.74-2.5v-33Z"/><rect class="cls-21" x="57.59" y="50.12" width="1.9" height="47.22"/><path class="cls-23" d="M23.2,75.91v-26H17.44v26l-2.86,1.94v38.64s1.55,2.5,5.74,2.5,5.74-2.5,5.74-2.5V77.85Z"/><path class="cls-21" d="M26.06,83.45v33s-1.55,2.5-5.74,2.5-5.74-2.5-5.74-2.5v-33Z"/><rect class="cls-21" x="19.37" y="50.12" width="1.9" height="47.22"/></g></g></g></g></g></svg>