<svg xmlns="http://www.w3.org/2000/svg" xmlns:xlink="http://www.w3.org/1999/xlink" viewBox="0 0 87.08 150"><defs><style>.cls-1{fill:url(#未命名的渐变_26);}.cls-2{fill:url(#未命名的渐变_26-2);}.cls-3{fill:url(#未命名的渐变_397);}.cls-4{fill:url(#未命名的渐变_26-3);}.cls-5{fill:url(#未命名的渐变_397-2);}.cls-6{fill:url(#未命名的渐变_26-4);}.cls-7{fill:url(#未命名的渐变_26-5);}.cls-8{fill:url(#未命名的渐变_26-6);}.cls-9{fill:url(#未命名的渐变_26-7);}.cls-10{fill:url(#未命名的渐变_26-8);}.cls-11{fill:url(#未命名的渐变_26-9);}.cls-12{fill:url(#未命名的渐变_26-10);}.cls-13{fill:url(#未命名的渐变_397-3);}.cls-14{opacity:0.3;}.cls-15{fill:url(#未命名的渐变_26-11);}.cls-16{fill:url(#未命名的渐变_26-12);}.cls-17{fill:url(#未命名的渐变_26-13);}.cls-18{fill:url(#未命名的渐变_26-14);}.cls-19{fill:url(#未命名的渐变_26-15);}.cls-20{fill:url(#未命名的渐变_397-4);}.cls-21,.cls-22{opacity:0.2;}.cls-21{fill:url(#未命名的渐变_376);}</style><linearGradient id="未命名的渐变_26" x1="134.04" y1="105.28" x2="132.56" y2="105.28" gradientTransform="translate(-74 -76)" gradientUnits="userSpaceOnUse"><stop offset="0" stop-color="#767b82"/><stop offset="0.07" stop-color="#9ba1ab"/><stop offset="0.22" stop-color="#e2eaf2"/><stop offset="0.94" stop-color="#767b82"/><stop offset="1" stop-color="#a9b1bb"/></linearGradient><linearGradient id="未命名的渐变_26-2" x1="137.16" y1="105.28" x2="135.68" y2="105.28" xlink:href="#未命名的渐变_26"/><linearGradient id="未命名的渐变_397" x1="159.15" y1="191.75" x2="137.74" y2="191.75" gradientTransform="translate(-74 -76)" gradientUnits="userSpaceOnUse"><stop offset="0" stop-color="#767b82"/><stop offset="0.07" stop-color="#9ba1ab"/><stop offset="0.22" stop-color="#e2eaf2"/><stop offset="0.28" stop-color="#d1d8e0"/><stop offset="0.49" stop-color="#a1a7ae"/><stop offset="0.67" stop-color="#7e8489"/><stop offset="0.81" stop-color="#696e73"/><stop offset="0.91" stop-color="#61666b"/><stop offset="1" stop-color="#a9b1bb"/></linearGradient><linearGradient id="未命名的渐变_26-3" x1="1781" y1="-2090.1" x2="1767.63" y2="-2090.1" gradientTransform="translate(-1712.52 2118.98)" xlink:href="#未命名的渐变_26"/><linearGradient id="未命名的渐变_397-2" x1="155.88" y1="129.85" x2="140.87" y2="129.85" xlink:href="#未命名的渐变_397"/><linearGradient id="未命名的渐变_26-4" x1="150.07" y1="83.43" x2="147.13" y2="83.43" xlink:href="#未命名的渐变_26"/><linearGradient id="未命名的渐变_26-5" x1="150.07" y1="203.69" x2="147.13" y2="203.69" xlink:href="#未命名的渐变_26"/><linearGradient id="未命名的渐变_26-6" x1="1701.23" y1="-2091.45" x2="1696.89" y2="-2091.45" gradientTransform="translate(-1638.62 2195.58)" xlink:href="#未命名的渐变_26"/><linearGradient id="未命名的渐变_26-7" x1="1706.1" y1="-2144.24" x2="1701.75" y2="-2144.24" gradientTransform="translate(-1696.27 2243.51)" xlink:href="#未命名的渐变_26"/><linearGradient id="未命名的渐变_26-8" x1="161.08" y1="180.3" x2="135.8" y2="180.3" xlink:href="#未命名的渐变_26"/><linearGradient id="未命名的渐变_26-9" x1="161.08" y1="194.93" x2="135.8" y2="194.93" xlink:href="#未命名的渐变_26"/><linearGradient id="未命名的渐变_26-10" x1="156.92" y1="90.9" x2="139.96" y2="90.9" xlink:href="#未命名的渐变_26"/><linearGradient id="未命名的渐变_397-3" x1="130.91" y1="160.26" x2="78.9" y2="160.26" xlink:href="#未命名的渐变_397"/><linearGradient id="未命名的渐变_26-11" x1="41.31" y1="115.67" x2="22.58" y2="115.67" gradientTransform="matrix(1, 0, 0, 1, 0, 0)" xlink:href="#未命名的渐变_26"/><linearGradient id="未命名的渐变_26-12" x1="1690.83" y1="-2129.42" x2="1688.56" y2="-2129.42" gradientTransform="translate(-1667.22 2242.91)" xlink:href="#未命名的渐变_26"/><linearGradient id="未命名的渐变_26-13" x1="1688.75" y1="-2114" x2="1686.48" y2="-2114" gradientTransform="translate(-1649.73 2229.58)" xlink:href="#未命名的渐变_26"/><linearGradient id="未命名的渐变_26-14" x1="1690.64" y1="-2107.46" x2="1684.59" y2="-2107.46" gradientTransform="translate(-1643.18 2223.04)" xlink:href="#未命名的渐变_26"/><linearGradient id="未命名的渐变_26-15" x1="1686.67" y1="-2129.42" x2="1684.4" y2="-2129.42" gradientTransform="translate(-1663.06 2247.08)" xlink:href="#未命名的渐变_26"/><linearGradient id="未命名的渐变_397-4" x1="44.15" y1="4.99" x2="17.66" y2="31.48" gradientTransform="matrix(1, 0, 0, 1, 0, 0)" xlink:href="#未命名的渐变_397"/><linearGradient id="未命名的渐变_376" x1="30.91" y1="18.63" x2="30.91" y2="57.29" gradientUnits="userSpaceOnUse"><stop offset="0" stop-color="#2e3033"/><stop offset="1" stop-color="#9ba1ab" stop-opacity="0"/></linearGradient></defs><title>Boiler 3(锅炉3)</title><g id="图层_2" data-name="图层 2"><g id="图层_21" data-name="图层 21"><g id="Boiler_3_锅炉3_" data-name="Boiler 3(锅炉3)"><rect class="cls-1" x="58.56" y="21" width="1.47" height="16.55" rx="0.74"/><rect class="cls-2" x="61.68" y="21" width="1.47" height="16.55" rx="0.74"/><rect class="cls-3" x="63.74" y="113.59" width="21.41" height="4.31"/><path class="cls-4" d="M55.14,17.54H68.43a0,0,0,0,1,0,0V33.53a6.69,6.69,0,0,1-6.69,6.69h0a6.69,6.69,0,0,1-6.69-6.69V17.58a0,0,0,0,1,0,0Z" transform="translate(32.91 90.67) rotate(-90)"/><rect class="cls-5" x="66.87" y="13.87" width="15.01" height="79.95"/><rect class="cls-6" x="73.13" width="2.95" height="14.87" rx="1.47"/><rect class="cls-7" x="73.13" y="118.79" width="2.95" height="17.79" rx="1.47"/><rect class="cls-8" x="58.27" y="94.14" width="4.35" height="19.99" transform="translate(-43.69 164.58) rotate(-90)"/><rect class="cls-9" x="5.48" y="91.62" width="4.35" height="15.3" transform="translate(-91.62 106.92) rotate(-90)"/><rect class="cls-10" x="61.8" y="93.82" width="25.28" height="20.96"/><rect class="cls-11" x="61.8" y="117.22" width="25.28" height="3.43" rx="1.72"/><rect class="cls-12" x="65.96" y="13.19" width="16.96" height="3.43" rx="1.72"/><polyline class="cls-13" points="56.91 18.52 56.91 150 4.9 150 4.9 18.52"/><rect class="cls-14" x="4.9" y="135.46" width="52.01" height="14.54"/><circle class="cls-15" cx="31.95" cy="115.67" r="9.36"/><rect class="cls-16" x="21.34" y="111.3" width="2.27" height="4.39" transform="translate(-91.02 135.97) rotate(-90)"/><rect class="cls-17" x="36.75" y="107.01" width="2.27" height="17.14" transform="translate(-77.69 153.47) rotate(-90)"/><rect class="cls-18" x="41.4" y="114.54" width="6.06" height="2.08" transform="translate(-71.15 160.01) rotate(-90)"/><rect class="cls-19" x="21.34" y="115.47" width="2.27" height="4.39" transform="translate(-95.19 140.13) rotate(-90)"/><path class="cls-20" d="M57,18.63S53.37,8.8,30.9,8.8,4.81,18.63,4.81,18.63Z"/><rect class="cls-21" x="4.81" y="18.63" width="52.19" height="38.65"/></g></g></g></svg>