<svg xmlns="http://www.w3.org/2000/svg" xmlns:xlink="http://www.w3.org/1999/xlink" viewBox="0 0 150.12 102.84"><defs><style>.cls-1{fill:url(#未命名的渐变_451);}.cls-2{fill:url(#未命名的渐变_46);}.cls-3{fill:url(#未命名的渐变_46-2);}.cls-4{fill:url(#未命名的渐变_26);}.cls-5{fill:url(#未命名的渐变_11);}.cls-6{fill:url(#未命名的渐变_451-2);}.cls-7{fill:url(#未命名的渐变_17);}.cls-8{fill:url(#未命名的渐变_17-2);}.cls-9{fill:url(#未命名的渐变_451-3);}.cls-10{fill:#71767d;stroke:#858c96;stroke-width:2px;}.cls-10,.cls-27{stroke-miterlimit:10;}.cls-11{fill:url(#未命名的渐变_466);}.cls-12{fill:url(#未命名的渐变_466-2);}.cls-13{fill:url(#未命名的渐变_466-3);}.cls-14{fill:url(#未命名的渐变_466-4);}.cls-15{fill:url(#未命名的渐变_466-5);}.cls-16{fill:url(#未命名的渐变_466-6);}.cls-17{fill:url(#未命名的渐变_466-7);}.cls-18{fill:url(#未命名的渐变_466-8);}.cls-19{fill:url(#未命名的渐变_3);}.cls-20{opacity:0.3;}.cls-21{fill:url(#未命名的渐变_26-2);}.cls-22{fill:url(#未命名的渐变_26-3);}.cls-23{fill:url(#未命名的渐变_26-4);}.cls-24{fill:url(#未命名的渐变_26-5);}.cls-25{fill:url(#未命名的渐变_2);}.cls-26{fill:url(#未命名的渐变_11-2);}.cls-27{fill:#5d646c;stroke:#b4bcc5;stroke-width:0.5px;}.cls-28{fill:#cfd5db;}.cls-29{fill:#a63c27;}.cls-30{fill:#a8afb5;}.cls-31{opacity:0.2;}</style><linearGradient id="未命名的渐变_451" x1="1838.53" y1="1174.99" x2="1840.29" y2="1174.99" gradientTransform="matrix(4.7, 0, 0, 1, -8584.72, -1077.56)" gradientUnits="userSpaceOnUse"><stop offset="0" stop-color="#767b82"/><stop offset="0.01" stop-color="#a5aaaf"/><stop offset="0.02" stop-color="#d7dce0"/><stop offset="0.04" stop-color="#9ba1ab"/><stop offset="0.92" stop-color="#a9b1bb"/><stop offset="0.95" stop-color="#9da4ae"/><stop offset="0.99" stop-color="#7d838a"/><stop offset="1" stop-color="#767b82"/></linearGradient><linearGradient id="未命名的渐变_46" x1="2180.3" y1="64.54" x2="2185.4" y2="64.54" gradientTransform="matrix(-4.7, 0, 0, -0.65, 10384.04, 111.63)" gradientUnits="userSpaceOnUse"><stop offset="0" stop-color="#767b82"/><stop offset="0.01" stop-color="#a5aaaf"/><stop offset="0.02" stop-color="#d7dce0"/><stop offset="0.06" stop-color="#9ba1ab"/><stop offset="0.96" stop-color="#a9b1bb"/><stop offset="0.97" stop-color="#9da4ae"/><stop offset="1" stop-color="#7d838a"/><stop offset="1" stop-color="#767b82"/></linearGradient><linearGradient id="未命名的渐变_46-2" x1="2179.37" y1="-653.12" x2="2185.4" y2="-653.12" gradientTransform="matrix(-4.7, 0, 0, 0.65, 10384.04, 517.21)" xlink:href="#未命名的渐变_46"/><linearGradient id="未命名的渐变_26" x1="1677.18" y1="787.86" x2="1674.69" y2="787.86" gradientTransform="matrix(1, 0, 0, -2.44, -1556.87, 1982.6)" gradientUnits="userSpaceOnUse"><stop offset="0" stop-color="#767b82"/><stop offset="0.07" stop-color="#9ba1ab"/><stop offset="0.22" stop-color="#e2eaf2"/><stop offset="0.94" stop-color="#767b82"/><stop offset="1" stop-color="#a9b1bb"/></linearGradient><linearGradient id="未命名的渐变_11" x1="-2840.94" y1="-2660.04" x2="-2831.34" y2="-2660.04" gradientTransform="matrix(1, 0, 0, -1, 2963.89, -2596.79)" gradientUnits="userSpaceOnUse"><stop offset="0.02" stop-color="#252628"/><stop offset="0.21" stop-color="#b4bbc1"/><stop offset="0.41" stop-color="#4c4e51"/><stop offset="1" stop-color="#252628"/></linearGradient><linearGradient id="未命名的渐变_451-2" x1="2185.4" y1="48.24" x2="2188.97" y2="48.24" gradientTransform="matrix(-4.7, 0, 0, -0.65, 10384.04, 111.63)" xlink:href="#未命名的渐变_451"/><linearGradient id="未命名的渐变_17" x1="2184.84" y1="135.81" x2="2188.97" y2="135.81" gradientTransform="matrix(-4.7, 0, 0, -0.65, 10384.04, 111.63)" gradientUnits="userSpaceOnUse"><stop offset="0" stop-color="#767b82"/><stop offset="0.02" stop-color="#a5aaaf"/><stop offset="0.04" stop-color="#d7dce0"/><stop offset="0.08" stop-color="#9ba1ab"/><stop offset="0.92" stop-color="#a9b1bb"/><stop offset="0.95" stop-color="#9da4ae"/><stop offset="0.99" stop-color="#7d838a"/><stop offset="1" stop-color="#767b82"/></linearGradient><linearGradient id="未命名的渐变_17-2" x1="2180.14" y1="88.49" x2="2185.57" y2="88.49" xlink:href="#未命名的渐变_17"/><linearGradient id="未命名的渐变_451-3" x1="1886.14" y1="127.99" x2="1897.45" y2="127.99" gradientTransform="matrix(7.6, 0, 0, 4.67, -14322.13, -545.8)" xlink:href="#未命名的渐变_451"/><linearGradient id="未命名的渐变_466" x1="1876.89" y1="219.95" x2="1883.23" y2="219.95" gradientTransform="matrix(4.7, 0, 0, 3.31, -8812.99, -687.19)" gradientUnits="userSpaceOnUse"><stop offset="0" stop-color="#767b82"/><stop offset="0.02" stop-color="#bfc4ca"/><stop offset="0.04" stop-color="#f1f7fb"/><stop offset="0.08" stop-color="#b6bec9"/><stop offset="0.92" stop-color="#a9b1bb"/><stop offset="0.95" stop-color="#9da4ae"/><stop offset="0.99" stop-color="#7d838a"/><stop offset="1" stop-color="#767b82"/></linearGradient><linearGradient id="未命名的渐变_466-2" x1="1876.89" y1="212.54" x2="1883.23" y2="212.54" gradientTransform="matrix(4.7, 0, 0, 3.31, -8788.43, -662.62)" xlink:href="#未命名的渐变_466"/><linearGradient id="未命名的渐变_466-3" x1="1876.89" y1="205.13" x2="1883.23" y2="205.13" gradientTransform="matrix(4.7, 0, 0, 3.31, -8763.87, -638.06)" xlink:href="#未命名的渐变_466"/><linearGradient id="未命名的渐变_466-4" x1="1876.89" y1="197.71" x2="1883.23" y2="197.71" gradientTransform="matrix(4.7, 0, 0, 3.31, -8739.31, -613.5)" xlink:href="#未命名的渐变_466"/><linearGradient id="未命名的渐变_466-5" x1="1883.54" y1="219.95" x2="1889.88" y2="219.95" gradientTransform="matrix(4.7, 0, 0, 3.31, -8844.26, -655.92)" xlink:href="#未命名的渐变_466"/><linearGradient id="未命名的渐变_466-6" x1="1883.54" y1="212.54" x2="1889.88" y2="212.54" gradientTransform="matrix(4.7, 0, 0, 3.31, -8819.69, -631.36)" xlink:href="#未命名的渐变_466"/><linearGradient id="未命名的渐变_466-7" x1="1883.54" y1="205.13" x2="1889.88" y2="205.13" gradientTransform="matrix(4.7, 0, 0, 3.31, -8795.13, -606.8)" xlink:href="#未命名的渐变_466"/><linearGradient id="未命名的渐变_466-8" x1="1883.54" y1="197.71" x2="1889.88" y2="197.71" gradientTransform="matrix(4.7, 0, 0, 3.31, -8770.57, -582.23)" xlink:href="#未命名的渐变_466"/><linearGradient id="未命名的渐变_3" x1="2186.97" y1="-124.35" x2="2190.44" y2="-124.35" gradientTransform="translate(-10135.74 225.95) scale(4.7 1)" gradientUnits="userSpaceOnUse"><stop offset="0" stop-color="#767b82"/><stop offset="0.04" stop-color="#a5aaaf"/><stop offset="0.08" stop-color="#d7dce0"/><stop offset="0.16" stop-color="#9ba1ab"/><stop offset="0.92" stop-color="#a9b1bb"/><stop offset="0.95" stop-color="#9da4ae"/><stop offset="0.99" stop-color="#7d838a"/><stop offset="1" stop-color="#767b82"/></linearGradient><linearGradient id="未命名的渐变_26-2" x1="3014.19" y1="228.24" x2="3003.88" y2="228.24" gradientTransform="translate(-2987.45 -223.74)" xlink:href="#未命名的渐变_26"/><linearGradient id="未命名的渐变_26-3" x1="3016.6" y1="231.68" x2="3001.47" y2="231.68" gradientTransform="translate(-2987.45 -230.6)" xlink:href="#未命名的渐变_26"/><linearGradient id="未命名的渐变_26-4" x1="2987.39" y1="227.17" x2="2977.08" y2="227.17" gradientTransform="translate(-2933.86 -221.58)" xlink:href="#未命名的渐变_26"/><linearGradient id="未命名的渐变_26-5" x1="2989.81" y1="229.45" x2="2974.67" y2="229.45" gradientTransform="translate(-2933.86 -226.13)" xlink:href="#未命名的渐变_26"/><linearGradient id="未命名的渐变_2" x1="1803.79" y1="-1573.57" x2="1813.93" y2="-1573.57" gradientTransform="matrix(2.5, 0, 0, -1, -4410.55, -1536.67)" gradientUnits="userSpaceOnUse"><stop offset="0" stop-color="#767b82"/><stop offset="0.01" stop-color="#81868d"/><stop offset="0.03" stop-color="#9ca1a6"/><stop offset="0.05" stop-color="#b2b7bc"/><stop offset="0.08" stop-color="#c3c8cc"/><stop offset="0.11" stop-color="#ced3d8"/><stop offset="0.16" stop-color="#d5dade"/><stop offset="0.29" stop-color="#d7dce0"/><stop offset="0.29" stop-color="#d6dbdf"/><stop offset="0.31" stop-color="#c0c6cc"/><stop offset="0.33" stop-color="#afb5bd"/><stop offset="0.36" stop-color="#a4aab3"/><stop offset="0.4" stop-color="#9da3ad"/><stop offset="0.52" stop-color="#9ba1ab"/><stop offset="0.91" stop-color="#a9b1bb"/><stop offset="1" stop-color="#767b82"/></linearGradient><linearGradient id="未命名的渐变_11-2" x1="-3049.94" y1="-3736.14" x2="-3019.51" y2="-3736.14" gradientTransform="matrix(0.52, 0, 0, -0.56, 1689.1, -2025.26)" xlink:href="#未命名的渐变_11"/></defs><title>Boiler 2(锅炉2)</title><g id="图层_2" data-name="图层 2"><g id="图层_21" data-name="图层 21"><g id="Boiler_2_锅炉2_" data-name="Boiler 2(锅炉2)"><rect class="cls-1" x="48.46" y="46.23" width="8.27" height="104.95" transform="matrix(0, 1, -1, 0, 151.29, 46.09)"/><polygon class="cls-2" points="121.83 54.86 145.75 54.86 139.61 84.85 121.83 84.85 121.83 54.86"/><polygon class="cls-3" points="121.83 96.32 133.83 96.32 133.85 100.72 150.12 100.72 150.06 91.02 144.89 84.85 121.83 84.85 121.83 96.32"/><rect class="cls-4" x="117.83" y="53.87" width="2.48" height="19.17" transform="translate(55.61 182.52) rotate(-90)"/><rect class="cls-5" x="122.95" y="62.1" width="9.6" height="2.28" transform="translate(190.99 -64.51) rotate(90)"/><polygon class="cls-6" points="105.08 58.39 121.83 66.55 121.83 102.49 105.07 102.49 105.08 58.39"/><rect class="cls-7" x="105.07" y="13.41" width="19.4" height="20.29"/><rect class="cls-8" x="121.03" y="53.72" width="25.5" height="1.14"/><rect class="cls-9" x="9.62" y="-0.9" width="85.97" height="104.94" transform="translate(104.17 -1.03) rotate(90)"/><rect class="cls-10" x="19.29" y="5.7" width="66.62" height="103.19" transform="translate(109.89 4.7) rotate(90)"/><rect class="cls-11" x="0.49" y="30.17" width="29.77" height="23.07" transform="translate(57.08 26.32) rotate(90)"/><rect class="cls-12" x="25.06" y="30.17" width="29.77" height="23.07" transform="translate(81.65 1.76) rotate(90)"/><rect class="cls-13" x="49.62" y="30.17" width="29.77" height="23.07" transform="translate(106.21 -22.8) rotate(90)"/><rect class="cls-14" x="74.18" y="30.17" width="29.77" height="23.07" transform="translate(130.77 -47.36) rotate(90)"/><rect class="cls-15" x="0.49" y="61.43" width="29.77" height="23.07" transform="translate(88.34 57.59) rotate(90)"/><rect class="cls-16" x="25.06" y="61.43" width="29.77" height="23.07" transform="translate(112.91 33.02) rotate(90)"/><rect class="cls-17" x="49.62" y="61.43" width="29.77" height="23.07" transform="translate(137.47 8.46) rotate(90)"/><rect class="cls-18" x="74.18" y="61.43" width="29.77" height="23.07" transform="translate(162.03 -16.1) rotate(90)"/><rect class="cls-19" x="133.85" y="100.73" width="16.27" height="1.76" transform="translate(283.97 203.22) rotate(180)"/><rect class="cls-20" x="133.85" y="99.8" width="16.27" height="0.92" transform="translate(283.97 200.51) rotate(180)"/><rect class="cls-20" x="121.78" y="83.88" width="18.51" height="0.92" transform="translate(262.08 168.67) rotate(180)"/><rect class="cls-21" x="16.43" width="10.31" height="9.04" transform="translate(43.16 9.04) rotate(180)"/><rect class="cls-22" x="14.01" width="15.14" height="2.17" transform="translate(43.16 2.17) rotate(180)"/><rect class="cls-23" x="43.22" y="2.24" width="10.31" height="6.72" transform="translate(96.75 11.19) rotate(180)"/><rect class="cls-24" x="40.81" y="2.23" width="15.14" height="2.17" transform="translate(96.75 6.64) rotate(180)"/><rect class="cls-25" x="100.73" y="28.62" width="25.36" height="16.54" transform="translate(150.3 -76.52) rotate(90)"/><rect class="cls-26" x="98.65" y="74.92" width="15.87" height="2.27" transform="translate(182.64 -30.53) rotate(90)"/><circle class="cls-27" cx="86.11" cy="16.34" r="5.73"/><circle class="cls-28" cx="86.11" cy="16.34" r="4.67"/><polygon class="cls-29" points="88.83 13.69 83.52 18.12 84.39 18.99 88.83 13.69"/><circle class="cls-30" cx="86.11" cy="16.34" r="0.75"/></g></g></g></svg>