<svg xmlns="http://www.w3.org/2000/svg" xmlns:xlink="http://www.w3.org/1999/xlink" viewBox="0 0 150 100.81"><defs><style>.cls-1{fill:url(#未命名的渐变_105);}.cls-2{fill:url(#未命名的渐变_67);}.cls-3{fill:url(#未命名的渐变_67-2);}.cls-4{fill:url(#未命名的渐变_67-3);}.cls-5{fill:url(#未命名的渐变_67-4);}.cls-6{fill:url(#未命名的渐变_105-2);}.cls-7{fill:url(#未命名的渐变_105-3);}.cls-8{fill:url(#未命名的渐变_105-4);}.cls-9{opacity:0.2;}</style><linearGradient id="未命名的渐变_105" x1="29.23" y1="22" x2="120.29" y2="22" gradientUnits="userSpaceOnUse"><stop offset="0" stop-color="#e2e2e2"/><stop offset="0.03" stop-color="#d0d0d0"/><stop offset="0.06" stop-color="#bcbcbc"/><stop offset="0.09" stop-color="#b5b5b5"/><stop offset="0.49" stop-color="#f6f6f6"/><stop offset="0.63" stop-color="#f3f3f3"/><stop offset="0.73" stop-color="#eaeaea"/><stop offset="0.82" stop-color="#dbdbdb"/><stop offset="0.9" stop-color="#c6c6c6"/><stop offset="0.97" stop-color="#aaa"/><stop offset="1" stop-color="#9b9b9b"/></linearGradient><linearGradient id="未命名的渐变_67" x1="29.23" y1="22.37" x2="120.29" y2="22.37" gradientUnits="userSpaceOnUse"><stop offset="0" stop-color="#6b6b6b"/><stop offset="0.11" stop-color="#767676"/><stop offset="0.3" stop-color="#959595"/><stop offset="0.41" stop-color="#aaa"/><stop offset="0.56" stop-color="#ccc"/><stop offset="0.71" stop-color="#eaeaea"/><stop offset="0.8" stop-color="#f6f6f6"/><stop offset="0.83" stop-color="#ededed"/><stop offset="0.87" stop-color="#d4d4d4"/><stop offset="0.92" stop-color="#ababab"/><stop offset="0.98" stop-color="#737373"/><stop offset="0.99" stop-color="#666"/></linearGradient><linearGradient id="未命名的渐变_67-2" x1="66.22" y1="11.4" x2="83.58" y2="11.4" xlink:href="#未命名的渐变_67"/><linearGradient id="未命名的渐变_67-3" x1="70.97" y1="8.61" x2="78.65" y2="8.61" xlink:href="#未命名的渐变_67"/><linearGradient id="未命名的渐变_67-4" x1="64.04" y1="4.04" x2="85.57" y2="4.04" xlink:href="#未命名的渐变_67"/><linearGradient id="未命名的渐变_105-2" x1="29.23" y1="62.17" x2="120.29" y2="62.17" xlink:href="#未命名的渐变_105"/><linearGradient id="未命名的渐变_105-3" x1="118.04" y1="35.47" x2="150" y2="35.47" xlink:href="#未命名的渐变_105"/><linearGradient id="未命名的渐变_105-4" x1="6.09" y1="35.47" x2="38.05" y2="35.47" gradientTransform="matrix(-1, 0, 0, 1, 38.05, 0)" xlink:href="#未命名的渐变_105"/></defs><title>Brew kettle（冲泡壶）</title><g id="图层_2" data-name="图层 2"><g id="图层_104" data-name="图层 104"><g id="Brew_kettle_冲泡壶_" data-name="Brew kettle（冲泡壶）"><path class="cls-1" d="M120.29,22c0,5.58-20.38,10.11-45.53,10.11S29.23,27.58,29.23,22c0-3.34,20.38-10.12,45.53-10.12S120.3,19.29,120.29,22Z"/><rect class="cls-2" x="29.23" y="21.22" width="91.06" height="2.3"/><rect class="cls-3" x="66.22" y="10.58" width="17.37" height="1.63"/><rect class="cls-4" x="70.97" y="6.63" width="7.68" height="3.95"/><ellipse class="cls-5" cx="74.81" cy="4.04" rx="10.77" ry="4.04"/><path class="cls-6" d="M29.23,23.53h91.06a0,0,0,0,1,0,0V99.29a1.52,1.52,0,0,1-1.52,1.52h-88a1.52,1.52,0,0,1-1.52-1.52V23.53A0,0,0,0,1,29.23,23.53Z"/><path class="cls-7" d="M146,29.31a3.93,3.93,0,0,0-3.78,3c-4.84,1.09-14.57,3.13-18.45,2.79-1-.09-2.58-1-3.5-.58-1.64.75-3.12,6-1.64,7,1,.69,2.5-1.77,3.62-2.19,3-1.1,15.28-2.77,20.77-3.48a3.9,3.9,0,0,0,3,1.41,4,4,0,1,0,0-7.95Z"/><path class="cls-8" d="M4,29.31a3.93,3.93,0,0,1,3.78,3c4.84,1.09,14.57,3.13,18.45,2.79,1-.09,2.58-1,3.5-.58,1.64.75,3.12,6,1.64,7-1,.69-2.5-1.77-3.62-2.19-3-1.1-15.28-2.77-20.77-3.48a3.9,3.9,0,0,1-3,1.41,4,4,0,1,1,0-7.95Z"/></g></g></g></svg>