<svg xmlns="http://www.w3.org/2000/svg" xmlns:xlink="http://www.w3.org/1999/xlink" viewBox="0 0 146.7 148.17"><defs><style>.cls-1{fill:#cdcece;stroke-miterlimit:10;stroke:url(#未命名的渐变_74);}.cls-2{fill:#e6e6e6;}.cls-3{opacity:0.2;}</style><linearGradient id="未命名的渐变_74" y1="74.09" x2="146.7" y2="74.09" gradientUnits="userSpaceOnUse"><stop offset="0" stop-color="#6b6b6b"/><stop offset="0.01" stop-color="#767676"/><stop offset="0.03" stop-color="#959595"/><stop offset="0.04" stop-color="#aaa"/><stop offset="0.37" stop-color="#ccc"/><stop offset="0.74" stop-color="#eaeaea"/><stop offset="0.94" stop-color="#f6f6f6"/><stop offset="0.95" stop-color="#ededed"/><stop offset="0.96" stop-color="#d4d4d4"/><stop offset="0.97" stop-color="#ababab"/><stop offset="0.99" stop-color="#737373"/><stop offset="0.99" stop-color="#666"/></linearGradient></defs><title>Bubble diffuser in sludge tank（污泥池气泡扩散器）</title><g id="图层_2" data-name="图层 2"><g id="图层_125" data-name="图层 125"><g id="Bubble_diffuser_in_sludge_tank_污泥池气泡扩散器_" data-name="Bubble diffuser in sludge tank（污泥池气泡扩散器）"><ellipse class="cls-1" cx="73.35" cy="74.09" rx="72.85" ry="73.59"/><path class="cls-2" d="M113.22,18H33.5c-.93.71-1.84,1.45-2.73,2.2v.7h86.05C115.65,19.9,114.44,18.94,113.22,18Z"/><path class="cls-2" d="M46.47,138.42H97.79c.73-.94,1.46-1.87,2.16-2.89H44.31C45,136.55,45.73,137.48,46.47,138.42Z"/><path class="cls-2" d="M15.22,119.11H131.5c.57-1,1.11-1.92,1.64-2.89H13.58C14.11,117.19,14.65,118.16,15.22,119.11Z"/><path class="cls-2" d="M6.88,99.57h133c.26-.95.47-1.93.69-2.89H6.19C6.41,97.64,6.62,98.62,6.88,99.57Z"/><path class="cls-2" d="M4.08,78.76c0,.64.07,1.25.09,1.89H142.55c0-.64.09-1.25.09-1.89,0-.34,0-.67,0-1H4.12C4.12,78.09,4.08,78.42,4.08,78.76Z"/><path class="cls-2" d="M6.31,60.32h134.1c-.23-1-.43-1.94-.7-2.89H7C6.74,58.38,6.54,59.36,6.31,60.32Z"/><path class="cls-2" d="M14.33,40H132.39c-.55-1-1.06-2-1.65-2.89H16C15.39,38,14.88,39,14.33,40Z"/><rect class="cls-2" x="70.22" y="5.86" width="6.25" height="136.46"/></g></g></g></svg>