<svg xmlns="http://www.w3.org/2000/svg" xmlns:xlink="http://www.w3.org/1999/xlink" viewBox="0 0 70.73 150"><defs><style>.cls-1{fill:url(#未命名的渐变_105);}.cls-2{fill:url(#未命名的渐变_105-2);}.cls-3{fill:url(#未命名的渐变_67);}.cls-4{fill:url(#未命名的渐变_67-2);}.cls-5{fill:url(#未命名的渐变_67-3);}.cls-6{fill:url(#未命名的渐变_67-4);}.cls-7{fill:url(#未命名的渐变_105-3);}.cls-8{fill:url(#未命名的渐变_105-4);}.cls-9{fill:url(#未命名的渐变_105-5);}.cls-10{fill:url(#未命名的渐变_143);}.cls-11{fill:none;stroke:#383433;stroke-miterlimit:10;stroke-width:0.1px;}.cls-12{fill:url(#未命名的渐变_74);}.cls-13{fill:url(#未命名的渐变_143-2);}.cls-14{fill:#383332;}.cls-15{fill:url(#未命名的渐变_105-6);}.cls-16{fill:url(#未命名的渐变_105-7);}.cls-17{fill:url(#未命名的渐变_105-8);}.cls-18{fill:url(#未命名的渐变_105-9);}.cls-19{fill:url(#未命名的渐变_105-10);}.cls-20{fill:url(#未命名的渐变_105-11);}.cls-21{fill:url(#未命名的渐变_105-12);}.cls-22{fill:url(#未命名的渐变_105-13);}.cls-23{fill:url(#未命名的渐变_105-14);}.cls-24{opacity:0.2;}</style><linearGradient id="未命名的渐变_105" x1="2.51" y1="63.15" x2="68.55" y2="63.15" gradientUnits="userSpaceOnUse"><stop offset="0" stop-color="#e2e2e2"/><stop offset="0.03" stop-color="#d0d0d0"/><stop offset="0.06" stop-color="#bcbcbc"/><stop offset="0.09" stop-color="#b5b5b5"/><stop offset="0.49" stop-color="#f6f6f6"/><stop offset="0.63" stop-color="#f3f3f3"/><stop offset="0.73" stop-color="#eaeaea"/><stop offset="0.82" stop-color="#dbdbdb"/><stop offset="0.9" stop-color="#c6c6c6"/><stop offset="0.97" stop-color="#aaa"/><stop offset="1" stop-color="#9b9b9b"/></linearGradient><linearGradient id="未命名的渐变_105-2" x1="29.54" y1="33.81" x2="41.53" y2="33.81" xlink:href="#未命名的渐变_105"/><linearGradient id="未命名的渐变_67" x1="2.51" y1="16.72" x2="68.55" y2="16.72" gradientUnits="userSpaceOnUse"><stop offset="0" stop-color="#6b6b6b"/><stop offset="0.11" stop-color="#767676"/><stop offset="0.3" stop-color="#959595"/><stop offset="0.41" stop-color="#aaa"/><stop offset="0.56" stop-color="#ccc"/><stop offset="0.71" stop-color="#eaeaea"/><stop offset="0.8" stop-color="#f6f6f6"/><stop offset="0.83" stop-color="#ededed"/><stop offset="0.87" stop-color="#d4d4d4"/><stop offset="0.92" stop-color="#ababab"/><stop offset="0.98" stop-color="#737373"/><stop offset="0.99" stop-color="#666"/></linearGradient><linearGradient id="未命名的渐变_67-2" x1="2.51" y1="19.13" x2="68.55" y2="19.13" xlink:href="#未命名的渐变_67"/><linearGradient id="未命名的渐变_67-3" x1="2.13" y1="111.21" x2="68.79" y2="111.21" xlink:href="#未命名的渐变_67"/><linearGradient id="未命名的渐变_67-4" x1="2.13" y1="113.62" x2="68.79" y2="113.62" xlink:href="#未命名的渐变_67"/><linearGradient id="未命名的渐变_105-3" x1="21.11" y1="24.52" x2="50.06" y2="24.52" xlink:href="#未命名的渐变_105"/><linearGradient id="未命名的渐变_105-4" x1="29.52" y1="41.93" x2="41.81" y2="41.93" xlink:href="#未命名的渐变_105"/><linearGradient id="未命名的渐变_105-5" x1="31.33" y1="47.9" x2="39.57" y2="47.9" xlink:href="#未命名的渐变_105"/><linearGradient id="未命名的渐变_143" x1="32.02" y1="33.88" x2="38.87" y2="33.88" gradientUnits="userSpaceOnUse"><stop offset="0" stop-color="#b7b7b7"/><stop offset="0.03" stop-color="#9b9d9d"/><stop offset="0.07" stop-color="#878b8b"/><stop offset="0.09" stop-color="#808484"/><stop offset="0.2" stop-color="#a3a6a6"/><stop offset="0.49" stop-color="#f6f6f6"/><stop offset="0.61" stop-color="#f3f3f3"/><stop offset="0.7" stop-color="#eaeaea"/><stop offset="0.77" stop-color="#dbdbdb"/><stop offset="0.83" stop-color="#c5c5c5"/><stop offset="0.9" stop-color="#aaa"/><stop offset="0.95" stop-color="#888"/><stop offset="1" stop-color="#666"/></linearGradient><linearGradient id="未命名的渐变_74" x1="30.87" y1="102.9" x2="40.67" y2="102.9" gradientUnits="userSpaceOnUse"><stop offset="0" stop-color="#6b6b6b"/><stop offset="0.01" stop-color="#767676"/><stop offset="0.03" stop-color="#959595"/><stop offset="0.04" stop-color="#aaa"/><stop offset="0.37" stop-color="#ccc"/><stop offset="0.74" stop-color="#eaeaea"/><stop offset="0.94" stop-color="#f6f6f6"/><stop offset="0.95" stop-color="#ededed"/><stop offset="0.96" stop-color="#d4d4d4"/><stop offset="0.97" stop-color="#ababab"/><stop offset="0.99" stop-color="#737373"/><stop offset="0.99" stop-color="#666"/></linearGradient><linearGradient id="未命名的渐变_143-2" x1="32.34" y1="102.9" x2="39.19" y2="102.9" xlink:href="#未命名的渐变_143"/><linearGradient id="未命名的渐变_105-6" x1="20.39" y1="128.24" x2="50.77" y2="128.24" xlink:href="#未命名的渐变_105"/><linearGradient id="未命名的渐变_105-7" x1="17.13" y1="134.59" x2="18.98" y2="134.59" xlink:href="#未命名的渐变_105"/><linearGradient id="未命名的渐变_105-8" x1="15.74" y1="133.89" x2="55.39" y2="133.89" xlink:href="#未命名的渐变_105"/><linearGradient id="未命名的渐变_105-9" x1="23.04" y1="134.59" x2="24.89" y2="134.59" xlink:href="#未命名的渐变_105"/><linearGradient id="未命名的渐变_105-10" x1="28.81" y1="134.59" x2="30.66" y2="134.59" xlink:href="#未命名的渐变_105"/><linearGradient id="未命名的渐变_105-11" x1="34.58" y1="134.59" x2="36.42" y2="134.59" xlink:href="#未命名的渐变_105"/><linearGradient id="未命名的渐变_105-12" x1="40.34" y1="134.59" x2="42.19" y2="134.59" xlink:href="#未命名的渐变_105"/><linearGradient id="未命名的渐变_105-13" x1="46.11" y1="134.59" x2="47.96" y2="134.59" xlink:href="#未命名的渐变_105"/><linearGradient id="未命名的渐变_105-14" x1="51.88" y1="134.59" x2="53.73" y2="134.59" xlink:href="#未命名的渐变_105"/></defs><title>Carbon absorber（碳吸收器）</title><g id="图层_2" data-name="图层 2"><g id="图层_125" data-name="图层 125"><g id="Carbon_absorber_碳吸收器_" data-name="Carbon absorber（碳吸收器）"><path class="cls-1" d="M68.55,117.62s-5.87,8.68-33,8.68c-27.92,0-33-8.68-33-8.68V14.16S4.82-.38,35.53,0c29.2.36,33,14.15,33,14.15Z"/><rect class="cls-2" x="29.54" y="29.32" width="11.99" height="8.98" rx="0.21"/><rect class="cls-3" x="2.51" y="16.12" width="66.04" height="1.19"/><rect class="cls-4" x="2.51" y="18.53" width="66.04" height="1.19"/><rect class="cls-5" x="2.13" y="110.61" width="66.66" height="1.19"/><rect class="cls-6" x="2.13" y="113.02" width="66.66" height="1.19"/><rect class="cls-7" x="21.11" y="22.54" width="28.96" height="3.95" rx="0.21"/><rect class="cls-8" x="29.52" y="40.54" width="12.29" height="2.78" rx="0.21"/><rect class="cls-9" x="31.33" y="46.08" width="8.24" height="3.64"/><circle class="cls-10" cx="35.45" cy="33.88" r="3.42"/><circle class="cls-11" cx="35.77" cy="102.9" r="6.32"/><circle class="cls-12" cx="35.77" cy="102.9" r="4.9"/><circle class="cls-13" cx="35.77" cy="102.9" r="3.42"/><rect class="cls-14" x="2.13" y="96.02" width="9.36" height="50.79"/><rect class="cls-14" y="146.81" width="12.98" height="3.08"/><rect class="cls-15" x="20.39" y="125.84" width="30.39" height="4.79"/><rect class="cls-16" x="17.13" y="131.5" width="1.85" height="6.17"/><rect class="cls-17" x="15.74" y="130.63" width="39.65" height="6.53" rx="0.26"/><rect class="cls-18" x="23.04" y="131.5" width="1.85" height="6.17"/><rect class="cls-19" x="28.81" y="131.5" width="1.85" height="6.17"/><rect class="cls-20" x="34.58" y="131.5" width="1.85" height="6.17"/><rect class="cls-21" x="40.34" y="131.5" width="1.85" height="6.17"/><rect class="cls-22" x="46.11" y="131.5" width="1.85" height="6.17"/><rect class="cls-23" x="51.88" y="131.5" width="1.85" height="6.17"/><rect class="cls-14" x="59.89" y="96.13" width="9.36" height="50.79"/><rect class="cls-14" x="57.76" y="146.92" width="12.98" height="3.08"/></g></g></g></svg>