<svg xmlns="http://www.w3.org/2000/svg" xmlns:xlink="http://www.w3.org/1999/xlink" viewBox="0 0 150 81.61"><defs><style>.cls-1{fill:url(#未命名的渐变_19);}.cls-2{fill:url(#未命名的渐变_19-2);}.cls-3{fill:url(#未命名的渐变_19-3);}.cls-10,.cls-11,.cls-12,.cls-4,.cls-48,.cls-49,.cls-5,.cls-6,.cls-7,.cls-8,.cls-9{stroke-miterlimit:10;}.cls-4{stroke-width:0.55px;fill:url(#未命名的渐变_2);stroke:url(#未命名的渐变_124);}.cls-10,.cls-11,.cls-12,.cls-5,.cls-6,.cls-7,.cls-8,.cls-9{stroke:#747a80;stroke-width:0.21px;}.cls-5{fill:url(#未命名的渐变_204);}.cls-6{fill:url(#未命名的渐变_204-2);}.cls-7{fill:url(#未命名的渐变_204-3);}.cls-8{fill:url(#未命名的渐变_204-4);}.cls-9{fill:url(#未命名的渐变_204-5);}.cls-10{fill:url(#未命名的渐变_204-6);}.cls-11{fill:url(#未命名的渐变_204-7);}.cls-12{fill:url(#未命名的渐变_204-8);}.cls-13{fill:url(#未命名的渐变_121);}.cls-14{opacity:0.3;}.cls-15{fill:#2f3134;}.cls-16{fill:url(#未命名的渐变_49);}.cls-17{fill:url(#未命名的渐变_460);}.cls-18{fill:url(#未命名的渐变_49-2);}.cls-19{fill:url(#未命名的渐变_49-3);}.cls-20{fill:url(#未命名的渐变_460-2);}.cls-21,.cls-27,.cls-29,.cls-47,.cls-50{opacity:0.2;}.cls-21{fill:url(#未命名的渐变_376);}.cls-22{fill:url(#未命名的渐变_49-4);}.cls-23{fill:url(#未命名的渐变_460-3);}.cls-24{fill:url(#未命名的渐变_49-5);}.cls-25{fill:url(#未命名的渐变_49-6);}.cls-26{fill:url(#未命名的渐变_460-4);}.cls-27{fill:url(#未命名的渐变_376-2);}.cls-28{fill:url(#未命名的渐变_19-4);}.cls-29{fill:url(#未命名的渐变_376-3);}.cls-30{fill:url(#未命名的渐变_132);}.cls-31{fill:url(#未命名的渐变_132-2);}.cls-32{fill:url(#未命名的渐变_24);}.cls-33{fill:url(#未命名的渐变_24-2);}.cls-34{fill:url(#未命名的渐变_24-3);}.cls-35{fill:url(#未命名的渐变_24-4);}.cls-36{fill:url(#未命名的渐变_5);}.cls-37{fill:url(#未命名的渐变_5-2);}.cls-38{fill:url(#未命名的渐变_5-3);}.cls-39{fill:#494d53;}.cls-40{fill:#8f9499;}.cls-41{fill:url(#未命名的渐变_120);}.cls-42,.cls-49{fill:#252628;}.cls-43{fill:#d3a91e;}.cls-44{fill:url(#未命名的渐变_240);}.cls-45{fill:#c7cedb;}.cls-46{fill:url(#未命名的渐变_99);}.cls-47{fill:#fff;}.cls-48{fill:#b1b8bf;stroke:url(#未命名的渐变_124-2);}.cls-48,.cls-49{stroke-width:0.25px;}.cls-49{stroke:url(#未命名的渐变_39);}</style><linearGradient id="未命名的渐变_19" x1="179.42" y1="-704.71" x2="163.17" y2="-704.71" gradientTransform="matrix(0, -1, -1, 0, -629.03, 182.38)" gradientUnits="userSpaceOnUse"><stop offset="0" stop-color="#767b82"/><stop offset="0.07" stop-color="#9ba1ab"/><stop offset="0.25" stop-color="#e2eaf2"/><stop offset="0.31" stop-color="#d1d8e0"/><stop offset="0.51" stop-color="#a1a7ae"/><stop offset="0.68" stop-color="#7e8489"/><stop offset="0.82" stop-color="#696e73"/><stop offset="0.91" stop-color="#61666b"/><stop offset="1" stop-color="#a9b1bb"/></linearGradient><linearGradient id="未命名的渐变_19-2" x1="182.38" y1="-725.07" x2="160.21" y2="-725.07" xlink:href="#未命名的渐变_19"/><linearGradient id="未命名的渐变_19-3" x1="180.43" y1="-746.81" x2="162.15" y2="-746.81" xlink:href="#未命名的渐变_19"/><linearGradient id="未命名的渐变_2" x1="112.1" y1="10.49" x2="102.42" y2="20.17" gradientUnits="userSpaceOnUse"><stop offset="0" stop-color="#d7dce0"/><stop offset="1" stop-color="#737880"/></linearGradient><linearGradient id="未命名的渐变_124" x1="107.26" y1="22.45" x2="107.26" y2="8.21" gradientUnits="userSpaceOnUse"><stop offset="0" stop-color="#5c6066"/><stop offset="1" stop-color="#f5faff"/></linearGradient><linearGradient id="未命名的渐变_204" x1="107.26" y1="-346.99" x2="107.26" y2="-346.09" gradientTransform="matrix(1, 0, 0, -1, 0, -325.22)" gradientUnits="userSpaceOnUse"><stop offset="0" stop-color="#9ba1ab"/><stop offset="0" stop-color="#abb1ba"/><stop offset="0.09" stop-color="#abb1ba"/><stop offset="0.46" stop-color="#d7dce0"/><stop offset="1" stop-color="#a9b1bb"/></linearGradient><linearGradient id="未命名的渐变_204-2" x1="107.26" y1="-335.02" x2="107.26" y2="-334.12" xlink:href="#未命名的渐变_204"/><linearGradient id="未命名的渐变_204-3" x1="461.89" y1="-760" x2="461.89" y2="-759.09" gradientTransform="matrix(0, -1, -1, 0, -646.3, 477.22)" xlink:href="#未命名的渐变_204"/><linearGradient id="未命名的渐变_204-4" x1="461.89" y1="-748.03" x2="461.89" y2="-747.12" gradientTransform="matrix(0, -1, -1, 0, -646.3, 477.22)" xlink:href="#未命名的渐变_204"/><linearGradient id="未命名的渐变_204-5" x1="370.11" y1="-480.05" x2="370.11" y2="-479.14" gradientTransform="matrix(0.71, -0.71, -0.71, -0.71, -489.34, -57.85)" xlink:href="#未命名的渐变_204"/><linearGradient id="未命名的渐变_204-6" x1="370.11" y1="-468.08" x2="370.11" y2="-467.17" gradientTransform="matrix(0.71, -0.71, -0.71, -0.71, -489.34, -57.85)" xlink:href="#未命名的渐变_204"/><linearGradient id="未命名的渐变_204-7" x1="328.84" y1="-1022.85" x2="328.84" y2="-1021.95" gradientTransform="matrix(-0.71, -0.71, -0.71, 0.71, -378.93, 966.57)" xlink:href="#未命名的渐变_204"/><linearGradient id="未命名的渐变_204-8" x1="328.84" y1="-1010.88" x2="328.84" y2="-1009.98" gradientTransform="matrix(-0.71, -0.71, -0.71, 0.71, -378.93, 966.57)" xlink:href="#未命名的渐变_204"/><linearGradient id="未命名的渐变_121" x1="93.05" y1="20.67" x2="93.05" y2="10.9" gradientUnits="userSpaceOnUse"><stop offset="0" stop-color="#a9b1bb"/><stop offset="0.09" stop-color="#61666b"/><stop offset="0.18" stop-color="#696e73"/><stop offset="0.32" stop-color="#7e8489"/><stop offset="0.49" stop-color="#a1a7ae"/><stop offset="0.69" stop-color="#d1d8e0"/><stop offset="0.75" stop-color="#e2eaf2"/><stop offset="0.93" stop-color="#9ba1ab"/><stop offset="1" stop-color="#767b82"/></linearGradient><linearGradient id="未命名的渐变_49" x1="26.64" y1="26.83" x2="26.64" y2="22.71" gradientUnits="userSpaceOnUse"><stop offset="0" stop-color="#767b82"/><stop offset="0.32" stop-color="#f5faff"/><stop offset="0.55" stop-color="#9ba1ab"/><stop offset="1" stop-color="#45484d"/></linearGradient><linearGradient id="未命名的渐变_460" x1="16.7" y1="33.44" x2="20.81" y2="33.44" gradientUnits="userSpaceOnUse"><stop offset="0" stop-color="#45484d"/><stop offset="0.45" stop-color="#9ba1ab"/><stop offset="0.68" stop-color="#f5faff"/><stop offset="1" stop-color="#767b82"/></linearGradient><linearGradient id="未命名的渐变_49-2" x1="21.57" y1="27.91" x2="17.69" y2="25.67" xlink:href="#未命名的渐变_49"/><linearGradient id="未命名的渐变_49-3" x1="22.68" y1="27.44" x2="21.16" y2="23.25" xlink:href="#未命名的渐变_49"/><linearGradient id="未命名的渐变_460-2" x1="16.24" y1="38.6" x2="21.26" y2="38.6" xlink:href="#未命名的渐变_460"/><linearGradient id="未命名的渐变_376" x1="18.75" y1="37.97" x2="18.75" y2="36.73" gradientUnits="userSpaceOnUse"><stop offset="0" stop-color="#2e3033"/><stop offset="1" stop-color="#9ba1ab" stop-opacity="0"/></linearGradient><linearGradient id="未命名的渐变_49-4" x1="97.61" y1="29.96" x2="97.61" y2="25.84" gradientTransform="matrix(-1, 0, 0, 1, 199.76, 0)" xlink:href="#未命名的渐变_49"/><linearGradient id="未命名的渐变_460-3" x1="71.98" y1="35.01" x2="76.09" y2="35.01" gradientTransform="matrix(-1, 0, 0, 1, 199.76, 0)" xlink:href="#未命名的渐变_460"/><linearGradient id="未命名的渐变_49-5" x1="76.85" y1="31.05" x2="72.98" y2="28.81" gradientTransform="matrix(-1, 0, 0, 1, 199.76, 0)" xlink:href="#未命名的渐变_49"/><linearGradient id="未命名的渐变_49-6" x1="77.97" y1="30.57" x2="76.44" y2="26.39" gradientTransform="matrix(-1, 0, 0, 1, 199.76, 0)" xlink:href="#未命名的渐变_49"/><linearGradient id="未命名的渐变_460-4" x1="71.53" y1="38.6" x2="76.55" y2="38.6" gradientTransform="matrix(1, 0, 0, -1, 51.68, 77.19)" xlink:href="#未命名的渐变_460"/><linearGradient id="未命名的渐变_376-2" x1="74.04" y1="37.97" x2="74.04" y2="36.73" gradientTransform="matrix(1, 0, 0, -1, 51.68, 74.7)" xlink:href="#未命名的渐变_376"/><linearGradient id="未命名的渐变_19-4" x1="143.16" y1="-704.03" x2="116.93" y2="-704.03" xlink:href="#未命名的渐变_19"/><linearGradient id="未命名的渐变_376-3" x1="56.04" y1="-13.32" x2="56.04" y2="6.65" gradientTransform="translate(21.73 108.38) rotate(-90)" xlink:href="#未命名的渐变_376"/><linearGradient id="未命名的渐变_132" x1="65.39" y1="-20.49" x2="45.44" y2="-8.97" gradientTransform="translate(21.73 108.38) rotate(-90)" gradientUnits="userSpaceOnUse"><stop offset="0" stop-color="#767b82"/><stop offset="0.07" stop-color="#9ba1ab"/><stop offset="0.28" stop-color="#e2eaf2"/><stop offset="0.34" stop-color="#d1d8e0"/><stop offset="0.52" stop-color="#a1a7ae"/><stop offset="0.69" stop-color="#7e8489"/><stop offset="0.82" stop-color="#696e73"/><stop offset="0.91" stop-color="#61666b"/><stop offset="1" stop-color="#a9b1bb"/></linearGradient><linearGradient id="未命名的渐变_132-2" x1="65.39" y1="-53.76" x2="45.44" y2="-42.24" gradientTransform="matrix(0, -1, -1, 0, 94.99, 108.38)" xlink:href="#未命名的渐变_132"/><linearGradient id="未命名的渐变_24" x1="8.41" y1="59.79" x2="10.66" y2="59.79" gradientUnits="userSpaceOnUse"><stop offset="0" stop-color="#767b82"/><stop offset="0.04" stop-color="#b9c0cc"/><stop offset="0.92" stop-color="#b9c0cc"/><stop offset="0.96" stop-color="#d7dce0"/><stop offset="1" stop-color="#767b82"/></linearGradient><linearGradient id="未命名的渐变_24-2" x1="6.12" y1="80.85" x2="12.95" y2="80.85" xlink:href="#未命名的渐变_24"/><linearGradient id="未命名的渐变_24-3" x1="139.27" y1="59.79" x2="141.52" y2="59.79" xlink:href="#未命名的渐变_24"/><linearGradient id="未命名的渐变_24-4" x1="136.98" y1="80.85" x2="143.81" y2="80.85" xlink:href="#未命名的渐变_24"/><linearGradient id="未命名的渐变_5" x1="51.86" y1="11.73" x2="26.38" y2="37.21" gradientUnits="userSpaceOnUse"><stop offset="0" stop-color="#d7dce0"/><stop offset="1" stop-color="#8a9099"/></linearGradient><linearGradient id="未命名的渐变_5-2" x1="73.33" y1="11.73" x2="47.84" y2="37.21" xlink:href="#未命名的渐变_5"/><linearGradient id="未命名的渐变_5-3" x1="96.61" y1="16.65" x2="75.7" y2="37.57" xlink:href="#未命名的渐变_5"/><linearGradient id="未命名的渐变_120" x1="41.99" y1="-404.42" x2="39.14" y2="-407.27" gradientTransform="matrix(1, 0, 0, -1, 0, -379.69)" gradientUnits="userSpaceOnUse"><stop offset="0" stop-color="#7a7d80"/><stop offset="1" stop-color="#5c6066"/></linearGradient><linearGradient id="未命名的渐变_240" x1="85.81" y1="36.32" x2="85.81" y2="33.64" gradientUnits="userSpaceOnUse"><stop offset="0" stop-color="#17181a"/><stop offset="1" stop-color="#929699"/></linearGradient><linearGradient id="未命名的渐变_99" x1="85.81" y1="24.47" x2="85.81" y2="20.26" gradientUnits="userSpaceOnUse"><stop offset="0" stop-color="#cfdae6"/><stop offset="1" stop-color="#5c6066"/></linearGradient><linearGradient id="未命名的渐变_124-2" x1="30.53" y1="70.16" x2="30.53" y2="60.74" xlink:href="#未命名的渐变_124"/><linearGradient id="未命名的渐变_39" x1="30.53" y1="66.73" x2="30.53" y2="64.17" gradientUnits="userSpaceOnUse"><stop offset="0" stop-color="#dce1e6"/><stop offset="1" stop-color="#5c6066"/></linearGradient></defs><title>Chiller(制冷机)</title><g id="图层_2" data-name="图层 2"><g id="图层_6" data-name="图层 6"><g id="Chiller_制冷机_" data-name="Chiller(制冷机)"><path class="cls-1" d="M116.55,3H42.93a8.13,8.13,0,0,0-8.13,8.13h0a8.13,8.13,0,0,0,8.13,8.12h73.62Z"/><rect class="cls-2" x="93.92" width="4.23" height="22.17"/><rect class="cls-3" x="115.66" y="1.95" width="4.23" height="18.28"/><circle class="cls-4" cx="107.26" cy="15.33" r="6.84"/><circle class="cls-5" cx="107.26" cy="21.32" r="0.45"/><circle class="cls-6" cx="107.26" cy="9.35" r="0.45"/><circle class="cls-7" cx="113.24" cy="15.33" r="0.45"/><circle class="cls-8" cx="101.27" cy="15.33" r="0.45"/><circle class="cls-9" cx="111.49" cy="19.56" r="0.45"/><circle class="cls-10" cx="103.02" cy="11.1" r="0.45"/><circle class="cls-11" cx="111.49" cy="11.1" r="0.45"/><circle class="cls-12" cx="103.02" cy="19.56" r="0.45"/><rect class="cls-13" x="75.67" y="10.9" width="34.76" height="9.77" rx="4.88"/><g class="cls-14"><path class="cls-15" d="M115.66,20.22h4.23V2h-4.23V3H98.15V0H93.92V3h-51a8.13,8.13,0,0,0-8.13,8.13h0a8.13,8.13,0,0,0,8.13,8.12H77.09a4.87,4.87,0,0,0,3.47,1.46H93.92v1.5h4.23v-1.5H103a6.84,6.84,0,0,0,9.91-1.46h2.77Z"/></g><polygon class="cls-16" points="29.81 22.71 29.81 26.83 24.37 26.83 23.47 22.71 29.81 22.71"/><polygon class="cls-17" points="20.81 29.23 20.81 39.46 16.7 39.46 16.7 27.43 20.81 29.23"/><polygon class="cls-18" points="20.81 29.23 16.68 27.43 18.95 24.06 21.4 27.66 20.81 29.23"/><polygon class="cls-19" points="23.47 22.71 24.36 26.82 21.4 27.66 18.95 24.06 23.47 22.71"/><rect class="cls-20" x="16.24" y="37.97" width="5.02" height="1.25"/><rect class="cls-21" x="16.7" y="36.73" width="4.11" height="1.25"/><polygon class="cls-22" points="83.29 25.84 83.29 29.96 120.11 29.96 121.01 25.84 83.29 25.84"/><polygon class="cls-23" points="123.67 32.37 123.67 39.46 127.78 39.46 127.78 30.56 123.67 32.37"/><polygon class="cls-24" points="123.67 32.37 127.8 30.57 125.53 27.19 123.07 30.8 123.67 32.37"/><polygon class="cls-25" points="121.01 25.85 120.11 29.96 123.07 30.8 125.53 27.19 121.01 25.85"/><rect class="cls-26" x="123.21" y="37.97" width="5.02" height="1.25" transform="translate(251.44 77.19) rotate(-180)"/><rect class="cls-27" x="123.67" y="36.73" width="4.11" height="1.25" transform="translate(251.44 74.7) rotate(-180)"/><rect class="cls-28" x="8.41" y="39.22" width="133.17" height="26.23"/><rect class="cls-29" x="8.41" y="39.22" width="19.98" height="26.23"/><path class="cls-30" d="M8.41,39.22S0,41.05,0,52.34,8.41,65.45,8.41,65.45Z"/><path class="cls-31" d="M141.59,39.22S150,41.05,150,52.34s-8.41,13.11-8.41,13.11Z"/><rect class="cls-32" x="8.41" y="37.97" width="2.25" height="43.64"/><rect class="cls-33" x="6.12" y="80.09" width="6.83" height="1.51"/><rect class="cls-34" x="139.27" y="37.97" width="2.25" height="43.64"/><rect class="cls-35" x="136.98" y="80.09" width="6.83" height="1.51"/><rect class="cls-36" x="28.39" y="9.72" width="21.46" height="29.5"/><rect class="cls-37" x="49.85" y="9.72" width="21.46" height="29.5"/><rect class="cls-38" x="77.35" y="15" width="17.62" height="24.22"/><rect class="cls-39" x="38.8" y="24.47" width="3.53" height="3.38"/><rect class="cls-40" x="39.1" y="24.47" width="3.23" height="3.07"/><rect class="cls-41" x="39.1" y="24.77" width="2.93" height="2.77"/><path class="cls-42" d="M40.75,29.6h-.33L40,26.21c0-.19.28-.35.63-.35h0c.36,0,.64.16.64.35Z"/><rect class="cls-42" x="47.89" y="22.17" width="1.14" height="4.31"/><circle class="cls-43" cx="85.81" cy="34.98" r="1.34"/><path class="cls-44" d="M85.81,33.89A1.09,1.09,0,1,1,84.73,35a1.09,1.09,0,0,1,1.08-1.09m0-.25A1.34,1.34,0,1,0,87.15,35a1.33,1.33,0,0,0-1.34-1.34Z"/><rect class="cls-45" x="81.79" y="20.26" width="8.06" height="4.21"/><path class="cls-46" d="M89.59,20.51v3.71H82V20.51h7.55m.25-.25h-8v4.21h8V20.26Z"/><rect class="cls-42" x="82.12" y="21.06" width="7.43" height="2.62"/><polygon class="cls-47" points="82.12 23.57 82.12 21.06 89.56 21.06 82.12 23.57"/><circle class="cls-48" cx="30.53" cy="65.45" r="4.58"/><circle class="cls-49" cx="30.53" cy="65.45" r="1.15"/></g></g></g></svg>