<svg xmlns="http://www.w3.org/2000/svg" xmlns:xlink="http://www.w3.org/1999/xlink" viewBox="0 0 150 119.48"><defs><style>.cls-1{fill:url(#未命名的渐变_205);}.cls-2{fill:#252628;}.cls-3{fill:url(#未命名的渐变_39);}.cls-4{fill:url(#未命名的渐变_70);}.cls-5{fill:url(#未命名的渐变_70-2);}.cls-6{fill:url(#未命名的渐变_70-3);}.cls-7{fill:url(#未命名的渐变_70-4);}.cls-8{fill:url(#未命名的渐变_70-5);}.cls-9{fill:url(#未命名的渐变_70-6);}.cls-10{fill:url(#未命名的渐变_70-7);}.cls-11{fill:url(#未命名的渐变_70-8);}.cls-12{fill:url(#未命名的渐变_70-9);}.cls-13{fill:url(#未命名的渐变_70-10);}.cls-14{fill:url(#未命名的渐变_70-11);}.cls-15{fill:url(#未命名的渐变_131);}.cls-16,.cls-18{opacity:0.3;}.cls-16{fill:url(#未命名的渐变_156);}.cls-17{fill:url(#未命名的渐变_131-2);}.cls-18{fill:url(#未命名的渐变_156-2);}.cls-19{opacity:0.2;}</style><linearGradient id="未命名的渐变_205" y1="56.03" x2="150" y2="56.03" gradientUnits="userSpaceOnUse"><stop offset="0" stop-color="#767b82"/><stop offset="0.02" stop-color="#9ba1ab"/><stop offset="0.98" stop-color="#9ba1ab"/><stop offset="0.99" stop-color="#d7dce0"/><stop offset="1" stop-color="#767b82"/></linearGradient><linearGradient id="未命名的渐变_39" x1="75" y1="104.64" x2="75" y2="7.42" gradientUnits="userSpaceOnUse"><stop offset="0" stop-color="#dce1e6"/><stop offset="1" stop-color="#5c6066"/></linearGradient><linearGradient id="未命名的渐变_70" x1="75.02" y1="100.29" x2="75.02" y2="94.84" gradientUnits="userSpaceOnUse"><stop offset="0" stop-color="#a9b1bb"/><stop offset="0.09" stop-color="#61666b"/><stop offset="0.18" stop-color="#696e73"/><stop offset="0.32" stop-color="#7e8489"/><stop offset="0.49" stop-color="#a1a7ae"/><stop offset="0.69" stop-color="#d1d8e0"/><stop offset="0.75" stop-color="#e2eaf2"/><stop offset="0.93" stop-color="#9ba1ab"/><stop offset="1" stop-color="#767b82"/></linearGradient><linearGradient id="未命名的渐变_70-2" x1="75.02" y1="91.9" x2="75.02" y2="86.45" xlink:href="#未命名的渐变_70"/><linearGradient id="未命名的渐变_70-3" x1="75.02" y1="83.51" x2="75.02" y2="78.06" xlink:href="#未命名的渐变_70"/><linearGradient id="未命名的渐变_70-4" x1="75.02" y1="75.12" x2="75.02" y2="69.67" xlink:href="#未命名的渐变_70"/><linearGradient id="未命名的渐变_70-5" x1="75.02" y1="66.74" x2="75.02" y2="61.28" xlink:href="#未命名的渐变_70"/><linearGradient id="未命名的渐变_70-6" x1="75.02" y1="58.35" x2="75.02" y2="52.9" xlink:href="#未命名的渐变_70"/><linearGradient id="未命名的渐变_70-7" x1="75.02" y1="49.96" x2="75.02" y2="44.51" xlink:href="#未命名的渐变_70"/><linearGradient id="未命名的渐变_70-8" x1="75.02" y1="41.57" x2="75.02" y2="36.12" xlink:href="#未命名的渐变_70"/><linearGradient id="未命名的渐变_70-9" x1="75.02" y1="33.18" x2="75.02" y2="27.73" xlink:href="#未命名的渐变_70"/><linearGradient id="未命名的渐变_70-10" x1="75.02" y1="24.8" x2="75.02" y2="19.34" xlink:href="#未命名的渐变_70"/><linearGradient id="未命名的渐变_70-11" x1="75.02" y1="16.41" x2="75.02" y2="10.96" xlink:href="#未命名的渐变_70"/><linearGradient id="未命名的渐变_131" x1="7.81" y1="115.77" x2="15.23" y2="115.77" gradientUnits="userSpaceOnUse"><stop offset="0" stop-color="#767b82"/><stop offset="0.02" stop-color="#b9c0cc"/><stop offset="0.96" stop-color="#b9c0cc"/><stop offset="0.98" stop-color="#d7dce0"/><stop offset="1" stop-color="#767b82"/></linearGradient><linearGradient id="未命名的渐变_156" x1="11.52" y1="119.48" x2="11.52" y2="112.06" gradientUnits="userSpaceOnUse"><stop offset="0" stop-color="#9ba1ab" stop-opacity="0"/><stop offset="1" stop-color="#2e3033"/></linearGradient><linearGradient id="未命名的渐变_131-2" x1="134.8" y1="115.77" x2="142.22" y2="115.77" xlink:href="#未命名的渐变_131"/><linearGradient id="未命名的渐变_156-2" x1="138.51" y1="119.48" x2="138.51" y2="112.06" xlink:href="#未命名的渐变_156"/></defs><title>Chilled water cooling coils(制冷冷却盘管)</title><g id="图层_2" data-name="图层 2"><g id="图层_6" data-name="图层 6"><g id="Chilled_water_cooling_coils_制冷冷却盘管_" data-name="Chilled water cooling coils(制冷冷却盘管)"><rect class="cls-1" width="150" height="112.06"/><rect class="cls-2" x="6.95" y="7.42" width="136.11" height="97.22"/><path class="cls-3" d="M142.55,7.92v96.22H7.45V7.92h135.1m.5-.5H7v97.22h136.1V7.42Z"/><rect class="cls-4" x="7.81" y="94.84" width="134.41" height="5.45"/><rect class="cls-5" x="7.81" y="86.45" width="134.41" height="5.45"/><rect class="cls-6" x="7.81" y="78.06" width="134.41" height="5.45"/><rect class="cls-7" x="7.81" y="69.67" width="134.41" height="5.45"/><rect class="cls-8" x="7.81" y="61.28" width="134.41" height="5.45"/><rect class="cls-9" x="7.81" y="52.9" width="134.41" height="5.45"/><rect class="cls-10" x="7.81" y="44.51" width="134.41" height="5.45"/><rect class="cls-11" x="7.81" y="36.12" width="134.41" height="5.45"/><rect class="cls-12" x="7.81" y="27.73" width="134.41" height="5.45"/><rect class="cls-13" x="7.81" y="19.34" width="134.41" height="5.45"/><rect class="cls-14" x="7.81" y="10.96" width="134.41" height="5.45"/><rect class="cls-15" x="7.81" y="112.06" width="7.42" height="7.42"/><rect class="cls-16" x="7.81" y="112.06" width="7.42" height="7.42"/><rect class="cls-17" x="134.8" y="112.06" width="7.42" height="7.42"/><rect class="cls-18" x="134.8" y="112.06" width="7.42" height="7.42"/></g></g></g></svg>