<svg xmlns="http://www.w3.org/2000/svg" viewBox="0 0 149.77 149.77"><defs><style>.cls-1{fill:#fff;}.cls-2{fill:#eaeaea;}.cls-3{fill:#7f7f7f;}.cls-4{fill:#c1c1c1;opacity:0.51;}.cls-5{fill:none;stroke:#7f7f7f;stroke-miterlimit:10;stroke-width:0.25px;}.cls-6{fill:#dedede;}.cls-7{opacity:0.2;}</style></defs><title>Civic Tap Water（城市自来水）</title><g id="图层_2" data-name="图层 2"><g id="图层_125" data-name="图层 125"><g id="Civic_Tap_Water_城市自来水_" data-name="Civic Tap Water（城市自来水）"><circle class="cls-1" cx="74.88" cy="74.88" r="68.41"/><path class="cls-2" d="M6.47,74.88A68.32,68.32,0,0,0,36.36,131.4a72.12,72.12,0,0,0,10.14.8c40.5,0,73.32-33.39,73.32-74.57a74.93,74.93,0,0,0-14-43.71,68.32,68.32,0,0,0-99.34,61Z"/><path class="cls-3" d="M74.88,0a74.89,74.89,0,1,0,74.89,74.88A74.89,74.89,0,0,0,74.88,0Zm0,143.29a68.41,68.41,0,1,1,68.41-68.41A68.41,68.41,0,0,1,74.88,143.29Z"/><circle class="cls-4" cx="74.88" cy="74.88" r="65.67"/><path class="cls-3" d="M94.13,93.7l5.38-8.92a2.85,2.85,0,0,0-1-3.91,2.32,2.32,0,0,0-.44-.16l0,0-.23-.05a3.26,3.26,0,0,0-.68-.13,50.06,50.06,0,0,1-13.77-4.82C71.53,68.83,25.38,38.49,25.38,38.49S68.8,72,81.06,82.67c3,2.57,6.78,8.59,8.07,10.7a2.54,2.54,0,0,0,.43.7l.06.11,0,0a3.15,3.15,0,0,0,.57.52A2.85,2.85,0,0,0,94.13,93.7Z"/><circle class="cls-3" cx="77.19" cy="75.75" r="5.91"/><line class="cls-5" x1="104.29" y1="20.56" x2="99.45" y2="29.67"/><line class="cls-5" x1="47.48" y1="20.56" x2="52.32" y2="29.67"/><line class="cls-5" x1="14.66" y1="66.79" x2="24.87" y2="68.25"/><line class="cls-5" x1="137.76" y1="66.48" x2="127.55" y2="67.94"/><circle class="cls-6" cx="77.19" cy="75.75" r="3.38"/></g></g></g></svg>