<svg xmlns="http://www.w3.org/2000/svg" xmlns:xlink="http://www.w3.org/1999/xlink" viewBox="0 0 139 149.55"><defs><style>.cls-1{fill:url(#未命名的渐变_67);}.cls-2{fill:url(#未命名的渐变_67-2);}.cls-3{fill:url(#未命名的渐变_67-3);}.cls-4{fill:url(#未命名的渐变_67-4);}.cls-5{fill:url(#未命名的渐变_67-5);}.cls-6{fill:url(#未命名的渐变_67-6);}.cls-7{fill:url(#未命名的渐变_67-7);}.cls-8{fill:url(#未命名的渐变_105);}.cls-9{fill:url(#未命名的渐变_105-2);}.cls-10{fill:url(#未命名的渐变_67-8);}.cls-11{fill:url(#未命名的渐变_67-9);}.cls-12{fill:url(#未命名的渐变_67-10);}.cls-13{fill:url(#未命名的渐变_67-11);}.cls-14{fill:url(#未命名的渐变_67-12);}.cls-15{fill:url(#未命名的渐变_67-13);}.cls-16{fill:url(#未命名的渐变_67-14);}.cls-17{fill:url(#未命名的渐变_67-15);}.cls-18{fill:url(#未命名的渐变_67-16);}.cls-19{opacity:0.2;}</style><linearGradient id="未命名的渐变_67" x1="65.04" y1="9.16" x2="74.4" y2="9.16" gradientUnits="userSpaceOnUse"><stop offset="0" stop-color="#6b6b6b"/><stop offset="0.11" stop-color="#767676"/><stop offset="0.3" stop-color="#959595"/><stop offset="0.41" stop-color="#aaa"/><stop offset="0.56" stop-color="#ccc"/><stop offset="0.71" stop-color="#eaeaea"/><stop offset="0.8" stop-color="#f6f6f6"/><stop offset="0.83" stop-color="#ededed"/><stop offset="0.87" stop-color="#d4d4d4"/><stop offset="0.92" stop-color="#ababab"/><stop offset="0.98" stop-color="#737373"/><stop offset="0.99" stop-color="#666"/></linearGradient><linearGradient id="未命名的渐变_67-2" x1="56.64" y1="21.18" x2="56.64" y2="3.73" xlink:href="#未命名的渐变_67"/><linearGradient id="未命名的渐变_67-3" x1="23.09" y1="147.71" x2="23.09" y2="133.13" xlink:href="#未命名的渐变_67"/><linearGradient id="未命名的渐变_67-4" x1="116.25" y1="147.56" x2="116.25" y2="132.98" xlink:href="#未命名的渐变_67"/><linearGradient id="未命名的渐变_67-5" x1="62.01" y1="15.16" x2="62.01" y2="10.09" xlink:href="#未命名的渐变_67"/><linearGradient id="未命名的渐变_67-6" x1="69.67" y1="144.96" x2="69.67" y2="135.59" xlink:href="#未命名的渐变_67"/><linearGradient id="未命名的渐变_67-7" x1="44.29" y1="141.34" x2="94.68" y2="141.34" xlink:href="#未命名的渐变_67"/><linearGradient id="未命名的渐变_105" y1="42.55" x2="139" y2="42.55" gradientUnits="userSpaceOnUse"><stop offset="0" stop-color="#e2e2e2"/><stop offset="0.03" stop-color="#d0d0d0"/><stop offset="0.06" stop-color="#bcbcbc"/><stop offset="0.09" stop-color="#b5b5b5"/><stop offset="0.49" stop-color="#f6f6f6"/><stop offset="0.63" stop-color="#f3f3f3"/><stop offset="0.73" stop-color="#eaeaea"/><stop offset="0.82" stop-color="#dbdbdb"/><stop offset="0.9" stop-color="#c6c6c6"/><stop offset="0.97" stop-color="#aaa"/><stop offset="1" stop-color="#9b9b9b"/></linearGradient><linearGradient id="未命名的渐变_105-2" x1="1.51" y1="90.79" x2="137.63" y2="90.79" xlink:href="#未命名的渐变_105"/><linearGradient id="未命名的渐变_67-8" x1="1.14" y1="32.96" x2="4.91" y2="32.96" xlink:href="#未命名的渐变_67"/><linearGradient id="未命名的渐变_67-9" x1="27.9" y1="32.96" x2="31.67" y2="32.96" xlink:href="#未命名的渐变_67"/><linearGradient id="未命名的渐变_67-10" x1="54.3" y1="32.96" x2="58.07" y2="32.96" xlink:href="#未命名的渐变_67"/><linearGradient id="未命名的渐变_67-11" x1="80.7" y1="32.96" x2="84.47" y2="32.96" xlink:href="#未命名的渐变_67"/><linearGradient id="未命名的渐变_67-12" x1="107.1" y1="32.96" x2="110.87" y2="32.96" xlink:href="#未命名的渐变_67"/><linearGradient id="未命名的渐变_67-13" x1="133.5" y1="32.96" x2="137.27" y2="32.96" xlink:href="#未命名的渐变_67"/><linearGradient id="未命名的渐变_67-14" x1="61.59" y1="28.77" x2="77.85" y2="28.77" xlink:href="#未命名的渐变_67"/><linearGradient id="未命名的渐变_67-15" x1="71.01" y1="32.96" x2="71.01" y2="30.83" xlink:href="#未命名的渐变_67"/><linearGradient id="未命名的渐变_67-16" x1="1.14" y1="47.15" x2="137.63" y2="47.15" xlink:href="#未命名的渐变_67"/></defs><title>Clarifier（澄清池）</title><g id="图层_2" data-name="图层 2"><g id="图层_125" data-name="图层 125"><g id="Clarifier_澄清池_" data-name="Clarifier（澄清池）"><rect class="cls-1" x="65.04" width="9.37" height="18.31"/><rect class="cls-2" x="54.3" y="3.73" width="4.68" height="17.45"/><rect class="cls-3" x="20.84" y="133.13" width="4.5" height="14.58"/><rect class="cls-4" x="114.01" y="132.98" width="4.5" height="14.58"/><rect class="cls-5" x="58.98" y="10.09" width="6.05" height="5.06"/><rect class="cls-6" x="25.33" y="135.59" width="88.67" height="9.37"/><rect class="cls-7" x="44.29" y="133.13" width="50.39" height="16.42"/><rect class="cls-8" y="39.24" width="139" height="6.62"/><polygon class="cls-9" points="137.63 62.31 95.02 133.13 44.23 133.13 1.51 62.31 1.51 48.44 137.63 48.44 137.63 62.31"/><rect class="cls-10" x="1.14" y="26.68" width="3.77" height="12.55"/><rect class="cls-11" x="27.9" y="26.68" width="3.77" height="12.55"/><rect class="cls-12" x="54.3" y="26.68" width="3.77" height="12.55"/><rect class="cls-13" x="80.7" y="26.68" width="3.77" height="12.55"/><rect class="cls-14" x="107.1" y="26.68" width="3.77" height="12.55"/><rect class="cls-15" x="133.5" y="26.68" width="3.77" height="12.55"/><rect class="cls-16" x="61.59" y="18.31" width="16.25" height="20.92"/><rect class="cls-17" x="4.91" y="30.83" width="132.19" height="2.13"/><rect class="cls-18" x="1.14" y="45.86" width="136.49" height="2.58"/></g></g></g></svg>