<svg xmlns="http://www.w3.org/2000/svg" xmlns:xlink="http://www.w3.org/1999/xlink" viewBox="0 0 148.94 148.94"><defs><style>.cls-1{fill:#818080;}.cls-2{fill:#eee;}.cls-3{fill:#dbf0f8;}.cls-4{fill:url(#未命名的渐变_67);}.cls-5{fill:#adb1b3;}.cls-6{fill:url(#未命名的渐变_67-2);}.cls-7{fill:url(#未命名的渐变_67-3);}.cls-8{fill:url(#未命名的渐变_67-4);}.cls-9{fill:url(#未命名的渐变_67-5);}.cls-10{fill:url(#未命名的渐变_67-6);}.cls-11{fill:url(#未命名的渐变_67-7);}.cls-12{fill:url(#未命名的渐变_67-8);}.cls-13{fill:url(#未命名的渐变_67-9);}.cls-14{fill:url(#未命名的渐变_67-10);}.cls-15{fill:url(#未命名的渐变_67-11);}.cls-16{fill:url(#未命名的渐变_67-12);}.cls-17{fill:url(#未命名的渐变_67-13);}.cls-18{fill:url(#未命名的渐变_67-14);}.cls-19{fill:url(#未命名的渐变_67-15);}.cls-20{fill:url(#未命名的渐变_67-16);}.cls-21{fill:url(#未命名的渐变_67-17);}.cls-22{fill:url(#未命名的渐变_67-18);}.cls-23{fill:url(#未命名的渐变_67-19);}.cls-24{fill:url(#未命名的渐变_67-20);}.cls-25{fill:url(#未命名的渐变_67-21);}.cls-26{fill:url(#未命名的渐变_67-22);}.cls-27{fill:url(#未命名的渐变_67-23);}.cls-28{fill:url(#未命名的渐变_67-24);}.cls-29{fill:url(#未命名的渐变_67-25);}.cls-30{fill:url(#未命名的渐变_67-26);}.cls-31{fill:url(#未命名的渐变_67-27);}.cls-32{fill:url(#未命名的渐变_67-28);}.cls-33{fill:#383433;}.cls-34{fill:url(#未命名的渐变_67-29);}.cls-35{fill:url(#未命名的渐变_67-30);}.cls-36{fill:url(#未命名的渐变_67-31);}.cls-37{fill:url(#未命名的渐变_67-32);}.cls-38{fill:url(#未命名的渐变_67-33);}.cls-39{fill:url(#未命名的渐变_67-34);}.cls-40{fill:url(#未命名的渐变_67-35);}.cls-41{fill:url(#未命名的渐变_67-36);}.cls-42{fill:url(#未命名的渐变_67-37);}.cls-43{fill:url(#未命名的渐变_67-38);}.cls-44{fill:url(#未命名的渐变_67-39);}.cls-45{fill:url(#未命名的渐变_67-40);}.cls-46{fill:url(#未命名的渐变_67-41);}.cls-47{fill:url(#未命名的渐变_67-42);}.cls-48{fill:url(#未命名的渐变_67-43);}.cls-49{fill:url(#未命名的渐变_67-44);}.cls-50{fill:url(#未命名的渐变_67-45);}.cls-51{fill:url(#未命名的渐变_67-46);}.cls-52{fill:url(#未命名的渐变_67-47);}.cls-53{fill:url(#未命名的渐变_67-48);}.cls-54{fill:url(#未命名的渐变_67-49);}.cls-55{fill:url(#未命名的渐变_67-50);}.cls-56{opacity:0.2;}</style><linearGradient id="未命名的渐变_67" x1="72.3" y1="68.69" x2="72.3" y2="67" gradientUnits="userSpaceOnUse"><stop offset="0" stop-color="#6b6b6b"/><stop offset="0.11" stop-color="#767676"/><stop offset="0.3" stop-color="#959595"/><stop offset="0.41" stop-color="#aaa"/><stop offset="0.56" stop-color="#ccc"/><stop offset="0.71" stop-color="#eaeaea"/><stop offset="0.8" stop-color="#f6f6f6"/><stop offset="0.83" stop-color="#ededed"/><stop offset="0.87" stop-color="#d4d4d4"/><stop offset="0.92" stop-color="#ababab"/><stop offset="0.98" stop-color="#737373"/><stop offset="0.99" stop-color="#666"/></linearGradient><linearGradient id="未命名的渐变_67-2" x1="536.15" y1="-465.87" x2="536.15" y2="-467.57" gradientTransform="translate(-463.74 337.29) scale(1 0.57)" xlink:href="#未命名的渐变_67"/><linearGradient id="未命名的渐变_67-3" x1="653.84" y1="-346.05" x2="653.84" y2="-347.75" gradientTransform="matrix(1, 0, 0, -0.57, -581.43, -124.13)" xlink:href="#未命名的渐变_67"/><linearGradient id="未命名的渐变_67-4" x1="531.5" y1="-452.05" x2="531.5" y2="-453.74" gradientTransform="translate(-459.19 338.56) scale(1 0.57)" xlink:href="#未命名的渐变_67"/><linearGradient id="未命名的渐变_67-5" x1="649.38" y1="-332.04" x2="649.38" y2="-333.74" gradientTransform="matrix(1, 0, 0, -0.57, -577.07, -107.07)" xlink:href="#未命名的渐变_67"/><linearGradient id="未命名的渐变_67-6" x1="527.53" y1="-439.93" x2="527.53" y2="-441.62" gradientTransform="translate(-455.23 339.62) scale(1 0.57)" xlink:href="#未命名的渐变_67"/><linearGradient id="未命名的渐变_67-7" x1="645.41" y1="-319.92" x2="645.41" y2="-321.62" gradientTransform="matrix(1, 0, 0, -0.57, -573.1, -92.26)" xlink:href="#未命名的渐变_67"/><linearGradient id="未命名的渐变_67-8" x1="522.85" y1="-425.63" x2="522.85" y2="-427.32" gradientTransform="translate(-450.54 340.88) scale(1 0.57)" xlink:href="#未命名的渐变_67"/><linearGradient id="未命名的渐变_67-9" x1="640.73" y1="-305.62" x2="640.73" y2="-307.32" gradientTransform="matrix(1, 0, 0, -0.57, -568.42, -74.78)" xlink:href="#未命名的渐变_67"/><linearGradient id="未命名的渐变_67-10" x1="518.46" y1="-412.95" x2="518.46" y2="-414.64" gradientTransform="translate(-446.36 342.11) scale(1 0.57)" xlink:href="#未命名的渐变_67"/><linearGradient id="未命名的渐变_67-11" x1="636.69" y1="-292.57" x2="636.69" y2="-294.27" gradientTransform="matrix(1, 0, 0, -0.57, -564.6, -58.96)" xlink:href="#未命名的渐变_67"/><linearGradient id="未命名的渐变_67-12" x1="514.15" y1="-399.79" x2="514.15" y2="-401.49" gradientTransform="translate(-442.05 343.27) scale(1 0.57)" xlink:href="#未命名的渐变_67"/><linearGradient id="未命名的渐变_67-13" x1="632.39" y1="-279.42" x2="632.39" y2="-281.12" gradientTransform="matrix(1, 0, 0, -0.57, -560.29, -42.88)" xlink:href="#未命名的渐变_67"/><linearGradient id="未命名的渐变_67-14" x1="509.93" y1="-386.16" x2="509.93" y2="-387.86" gradientTransform="translate(-437.62 344.34) scale(1 0.57)" xlink:href="#未命名的渐变_67"/><linearGradient id="未命名的渐变_67-15" x1="627.8" y1="-266.16" x2="627.8" y2="-267.85" gradientTransform="matrix(1, 0, 0, -0.57, -555.5, -26.56)" xlink:href="#未命名的渐变_67"/><linearGradient id="未命名的渐变_67-16" x1="505.66" y1="-373.14" x2="505.66" y2="-374.84" gradientTransform="translate(-433.36 345.48) scale(1 0.57)" xlink:href="#未命名的渐变_67"/><linearGradient id="未命名的渐变_67-17" x1="623.54" y1="-253.14" x2="623.54" y2="-254.83" gradientTransform="matrix(1, 0, 0, -0.57, -551.24, -10.65)" xlink:href="#未命名的渐变_67"/><linearGradient id="未命名的渐变_67-18" x1="501.18" y1="-360.2" x2="501.18" y2="-361.89" gradientTransform="translate(-429.09 346.74) scale(1 0.57)" xlink:href="#未命名的渐变_67"/><linearGradient id="未命名的渐变_67-19" x1="619.42" y1="-239.82" x2="619.42" y2="-241.52" gradientTransform="matrix(1, 0, 0, -0.57, -547.33, 5.5)" xlink:href="#未命名的渐变_67"/><linearGradient id="未命名的渐变_67-20" x1="72.3" y1="77.59" x2="72.3" y2="75.89" xlink:href="#未命名的渐变_67"/><linearGradient id="未命名的渐变_67-21" x1="72.3" y1="86.48" x2="72.3" y2="84.78" xlink:href="#未命名的渐变_67"/><linearGradient id="未命名的渐变_67-22" x1="72.3" y1="95.37" x2="72.3" y2="93.68" xlink:href="#未命名的渐变_67"/><linearGradient id="未命名的渐变_67-23" x1="72.3" y1="104.27" x2="72.3" y2="102.57" xlink:href="#未命名的渐变_67"/><linearGradient id="未命名的渐变_67-24" x1="72.3" y1="113.16" x2="72.3" y2="111.47" xlink:href="#未命名的渐变_67"/><linearGradient id="未命名的渐变_67-25" x1="72.3" y1="121.21" x2="72.3" y2="119.51" xlink:href="#未命名的渐变_67"/><linearGradient id="未命名的渐变_67-26" x1="72.3" y1="130.1" x2="72.3" y2="128.41" xlink:href="#未命名的渐变_67"/><linearGradient id="未命名的渐变_67-27" x1="72.3" y1="139" x2="72.3" y2="137.3" xlink:href="#未命名的渐变_67"/><linearGradient id="未命名的渐变_67-28" x1="72.3" y1="147.89" x2="72.3" y2="146.2" xlink:href="#未命名的渐变_67"/><linearGradient id="未命名的渐变_67-29" x1="72.21" y1="18.34" x2="77.69" y2="18.34" xlink:href="#未命名的渐变_67"/><linearGradient id="未命名的渐变_67-30" x1="72.21" y1="2.74" x2="77.69" y2="2.74" xlink:href="#未命名的渐变_67"/><linearGradient id="未命名的渐变_67-31" x1="100.39" y1="25.54" x2="105.86" y2="25.54" xlink:href="#未命名的渐变_67"/><linearGradient id="未命名的渐变_67-32" x1="109.33" y1="12.87" x2="114.81" y2="12.87" xlink:href="#未命名的渐变_67"/><linearGradient id="未命名的渐变_67-33" x1="121.16" y1="46.16" x2="126.63" y2="46.16" xlink:href="#未命名的渐变_67"/><linearGradient id="未命名的渐变_67-34" x1="134.79" y1="39.62" x2="140.26" y2="39.62" xlink:href="#未命名的渐变_67"/><linearGradient id="未命名的渐变_67-35" x1="128.46" y1="74.47" x2="133.93" y2="74.47" xlink:href="#未命名的渐变_67"/><linearGradient id="未命名的渐变_67-36" x1="143.46" y1="74.47" x2="148.94" y2="74.47" xlink:href="#未命名的渐变_67"/><linearGradient id="未命名的渐变_67-37" x1="121.16" y1="102.88" x2="126.63" y2="102.88" xlink:href="#未命名的渐变_67"/><linearGradient id="未命名的渐变_67-38" x1="133.93" y1="111.47" x2="139.41" y2="111.47" xlink:href="#未命名的渐变_67"/><linearGradient id="未命名的渐变_67-39" x1="100.59" y1="123.64" x2="106.07" y2="123.64" xlink:href="#未命名的渐变_67"/><linearGradient id="未命名的渐变_67-40" x1="104.3" y1="137.3" x2="109.77" y2="137.3" xlink:href="#未命名的渐变_67"/><linearGradient id="未命名的渐变_67-41" x1="44.04" y1="123.64" x2="49.51" y2="123.64" xlink:href="#未命名的渐变_67"/><linearGradient id="未命名的渐变_67-42" x1="37.48" y1="137.3" x2="42.95" y2="137.3" xlink:href="#未命名的渐变_67"/><linearGradient id="未命名的渐变_67-43" x1="-43.51" y1="1870.47" x2="-38.03" y2="1870.47" gradientTransform="translate(570.26 1893.12) rotate(161.84)" xlink:href="#未命名的渐变_67"/><linearGradient id="未命名的渐变_67-44" x1="-29.06" y1="1867.51" x2="-23.59" y2="1867.51" gradientTransform="translate(570.26 1893.12) rotate(161.84)" xlink:href="#未命名的渐变_67"/><linearGradient id="未命名的渐变_67-45" x1="-44.66" y1="1900.01" x2="-39.19" y2="1900.01" gradientTransform="translate(570.26 1893.12) rotate(161.84)" xlink:href="#未命名的渐变_67"/><linearGradient id="未命名的渐变_67-46" x1="-30.33" y1="1904.94" x2="-24.85" y2="1904.94" gradientTransform="translate(570.26 1893.12) rotate(161.84)" xlink:href="#未命名的渐变_67"/><linearGradient id="未命名的渐变_67-47" x1="-60.89" y1="1924.74" x2="-55.41" y2="1924.74" gradientTransform="translate(570.26 1893.12) rotate(161.84)" xlink:href="#未命名的渐变_67"/><linearGradient id="未命名的渐变_67-48" x1="-47.9" y1="1933.71" x2="-42.42" y2="1933.71" gradientTransform="translate(570.26 1893.12) rotate(161.84)" xlink:href="#未命名的渐变_67"/><linearGradient id="未命名的渐变_67-49" x1="-87.43" y1="1937.7" x2="-81.96" y2="1937.7" gradientTransform="translate(570.26 1893.12) rotate(161.84)" xlink:href="#未命名的渐变_67"/><linearGradient id="未命名的渐变_67-50" x1="-84.48" y1="1952.94" x2="-79.01" y2="1952.94" gradientTransform="translate(570.26 1893.12) rotate(161.84)" xlink:href="#未命名的渐变_67"/></defs><title>Clarifier（澄清池） (2)</title><g id="图层_2" data-name="图层 2"><g id="图层_125" data-name="图层 125"><g id="Clarifier_澄清池_" data-name="Clarifier（澄清池）"><circle class="cls-1" cx="74.47" cy="74.47" r="74.47"/><circle class="cls-2" cx="74.47" cy="74.47" r="69.84"/><circle class="cls-1" cx="74.47" cy="74.47" r="57.51"/><circle class="cls-3" cx="74.47" cy="74.47" r="53.12"/><rect class="cls-4" x="65.31" y="67" width="13.98" height="1.7"/><rect class="cls-5" x="64.13" y="66.15" width="16.17" height="16.17"/><rect class="cls-6" x="65.42" y="72.12" width="13.98" height="0.96" transform="translate(-26.6 45.93) rotate(-30)"/><rect class="cls-7" x="65.42" y="72.12" width="13.98" height="0.96" transform="translate(98.82 171.69) rotate(-150)"/><rect class="cls-8" x="65.31" y="81.24" width="13.98" height="0.96" transform="translate(-31.17 47.1) rotate(-30)"/><rect class="cls-9" x="65.31" y="81.24" width="13.98" height="0.96" transform="translate(94.06 188.64) rotate(-150)"/><rect class="cls-10" x="65.31" y="89.17" width="13.98" height="0.96" transform="translate(-35.14 48.16) rotate(-30)"/><rect class="cls-11" x="65.31" y="89.17" width="13.98" height="0.96" transform="translate(90.09 203.45) rotate(-150)"/><rect class="cls-12" x="65.31" y="98.54" width="13.98" height="0.96" transform="translate(-39.82 49.42) rotate(-30)"/><rect class="cls-13" x="65.31" y="98.54" width="13.98" height="0.96" transform="translate(85.41 220.93) rotate(-150)"/><rect class="cls-14" x="65.1" y="106.96" width="13.98" height="0.96" transform="translate(-44.06 50.44) rotate(-30)"/><rect class="cls-15" x="65.1" y="106.96" width="13.98" height="0.96" transform="translate(80.81 236.54) rotate(-150)"/><rect class="cls-16" x="65.1" y="115.58" width="13.98" height="0.96" transform="translate(-48.37 51.6) rotate(-30)"/><rect class="cls-17" x="65.1" y="115.58" width="13.98" height="0.96" transform="translate(76.51 252.62) rotate(-150)"/><rect class="cls-18" x="65.31" y="124.38" width="13.98" height="0.96" transform="translate(-52.74 52.88) rotate(-30)"/><rect class="cls-19" x="65.31" y="124.38" width="13.98" height="0.96" transform="translate(72.49 269.15) rotate(-150)"/><rect class="cls-20" x="65.31" y="132.91" width="13.98" height="0.96" transform="translate(-57.01 54.02) rotate(-30)"/><rect class="cls-21" x="65.31" y="132.91" width="13.98" height="0.96" transform="translate(68.23 285.06) rotate(-150)"/><rect class="cls-22" x="65.1" y="141.51" width="13.98" height="0.96" transform="translate(-61.33 55.07) rotate(-30)"/><rect class="cls-23" x="65.1" y="141.51" width="13.98" height="0.96" transform="translate(63.54 301) rotate(-150)"/><rect class="cls-24" x="65.31" y="75.89" width="13.98" height="1.7"/><rect class="cls-25" x="65.31" y="84.78" width="13.98" height="1.7"/><rect class="cls-26" x="65.31" y="93.68" width="13.98" height="1.7"/><rect class="cls-27" x="65.31" y="102.57" width="13.98" height="1.7"/><rect class="cls-28" x="65.31" y="111.47" width="13.98" height="1.7"/><rect class="cls-29" x="65.31" y="119.51" width="13.98" height="1.7"/><rect class="cls-30" x="65.31" y="128.41" width="13.98" height="1.7"/><rect class="cls-31" x="65.31" y="137.3" width="13.98" height="1.7"/><rect class="cls-32" x="65.31" y="146.2" width="13.98" height="1.7"/><rect class="cls-33" x="64.9" y="67" width="1.8" height="80.9"/><rect class="cls-33" x="77.5" y="67" width="1.8" height="80.9"/><circle class="cls-34" cx="74.95" cy="18.34" r="2.74"/><circle class="cls-35" cx="74.95" cy="2.74" r="2.74"/><circle class="cls-36" cx="103.12" cy="25.54" r="2.74"/><circle class="cls-37" cx="112.07" cy="12.87" r="2.74"/><circle class="cls-38" cx="123.9" cy="46.16" r="2.74"/><circle class="cls-39" cx="137.52" cy="39.62" r="2.74"/><circle class="cls-40" cx="131.2" cy="74.47" r="2.74"/><circle class="cls-41" cx="146.2" cy="74.47" r="2.74"/><circle class="cls-42" cx="123.9" cy="102.88" r="2.74"/><circle class="cls-43" cx="136.67" cy="111.47" r="2.74"/><circle class="cls-44" cx="103.33" cy="123.64" r="2.74"/><circle class="cls-45" cx="107.03" cy="137.3" r="2.74"/><circle class="cls-46" cx="46.78" cy="123.64" r="2.74"/><circle class="cls-47" cx="40.21" cy="137.3" r="2.74"/><circle class="cls-48" cx="26.01" cy="103.11" r="2.74"/><circle class="cls-49" cx="13.21" cy="110.43" r="2.74"/><circle class="cls-50" cx="17.9" cy="74.68" r="2.74"/><circle class="cls-51" cx="2.74" cy="74.47" r="2.74"/><circle class="cls-52" cx="25.61" cy="46.13" r="2.74"/><circle class="cls-53" cx="10.47" cy="41.66" r="2.74"/><circle class="cls-54" cx="46.79" cy="25.54" r="2.74"/><circle class="cls-55" cx="39.24" cy="11.98" r="2.74"/></g></g></g></svg>