<svg xmlns="http://www.w3.org/2000/svg" xmlns:xlink="http://www.w3.org/1999/xlink" viewBox="0 0 150.4 142.56"><defs><style>.cls-1{fill:#cfebf6;}.cls-2{fill:#dbf0f8;}.cls-3{fill:url(#未命名的渐变_67);}.cls-4{fill:url(#未命名的渐变_105);}.cls-5{fill:url(#未命名的渐变_105-2);}.cls-6{fill:#818080;}.cls-7{fill:#eee;}.cls-8{opacity:0.2;}</style><linearGradient id="未命名的渐变_67" x1="4.88" y1="6.07" x2="17.64" y2="6.07" gradientUnits="userSpaceOnUse"><stop offset="0" stop-color="#6b6b6b"/><stop offset="0.11" stop-color="#767676"/><stop offset="0.3" stop-color="#959595"/><stop offset="0.41" stop-color="#aaa"/><stop offset="0.56" stop-color="#ccc"/><stop offset="0.71" stop-color="#eaeaea"/><stop offset="0.8" stop-color="#f6f6f6"/><stop offset="0.83" stop-color="#ededed"/><stop offset="0.87" stop-color="#d4d4d4"/><stop offset="0.92" stop-color="#ababab"/><stop offset="0.98" stop-color="#737373"/><stop offset="0.99" stop-color="#666"/></linearGradient><linearGradient id="未命名的渐变_105" x1="4.88" y1="58.6" x2="17.64" y2="58.6" gradientUnits="userSpaceOnUse"><stop offset="0" stop-color="#e2e2e2"/><stop offset="0.03" stop-color="#d0d0d0"/><stop offset="0.06" stop-color="#bcbcbc"/><stop offset="0.09" stop-color="#b5b5b5"/><stop offset="0.49" stop-color="#f6f6f6"/><stop offset="0.63" stop-color="#f3f3f3"/><stop offset="0.73" stop-color="#eaeaea"/><stop offset="0.82" stop-color="#dbdbdb"/><stop offset="0.9" stop-color="#c6c6c6"/><stop offset="0.97" stop-color="#aaa"/><stop offset="1" stop-color="#9b9b9b"/></linearGradient><linearGradient id="未命名的渐变_105-2" x1="1.5" y1="2.52" x2="20.76" y2="2.52" xlink:href="#未命名的渐变_105"/></defs><title>Clarifier (side view)（澄清池(侧面图)）</title><g id="图层_2" data-name="图层 2"><g id="图层_125" data-name="图层 125"><g id="Clarifier_side_view_澄清池_侧面图_" data-name="Clarifier (side view)（澄清池(侧面图)）"><rect class="cls-1" x="4.63" y="19.44" width="141.3" height="5.05"/><rect class="cls-2" x="4.63" y="22.59" width="141.3" height="93.12"/><rect class="cls-3" x="4.88" y="5.05" width="12.76" height="2.04"/><rect class="cls-4" x="4.88" y="7.09" width="12.76" height="103"/><rect class="cls-5" x="1.5" width="19.27" height="5.05"/><path class="cls-6" d="M4,111.06s2.06-1.13,3-.94,2,1,2.86,1.12c1,.1,2.64-.63,3.55-.65,1.49,0,5,2.23,5,2.23a11.9,11.9,0,0,0,10.42.71l1.34-.55A14.23,14.23,0,0,1,42.91,114h0a7.29,7.29,0,0,0,5.8.81s8.16-2.08,10.77-1.2a21,21,0,0,0,3.64,1.29c1.4.13,4.25-.71,5.32-1,1.51-.41,3.13-.09,4.28-.45a10,10,0,0,1,2.65-.87,8.9,8.9,0,0,1,2,.63c3.6,2.63,7.6,2.32,11.78.76,0,0,5.92-1.55,8-1.08,1.53.35,3,1.54,4.28,1.62,2,.12,4.67-2.76,6.43-2.18,1,.32,1.42,1.33,2.08,1.69,1,.54,3.33-.87,3.33-.87a9,9,0,0,1,7.43,0h0a16.2,16.2,0,0,0,14.67-.77h0l10.55,1.3v6.08L75.48,136.71,4,119.17Z"/><path class="cls-7" d="M0,14.32v109.1l74.52,19.14,75.88-19.14V14.32ZM145.93,118.48,74.64,136.71l-70-18.23v-104h141.3Z"/></g></g></g></svg>