<svg xmlns="http://www.w3.org/2000/svg" xmlns:xlink="http://www.w3.org/1999/xlink" viewBox="0 0 88.65 149.57"><defs><style>.cls-1{fill:url(#未命名的渐变_74);}.cls-2{fill:url(#未命名的渐变_74-2);}.cls-3{fill:url(#未命名的渐变_74-3);}.cls-4{fill:url(#未命名的渐变_74-4);}.cls-5{fill:url(#未命名的渐变_105);}.cls-6{fill:url(#未命名的渐变_74-5);}.cls-7{fill:url(#未命名的渐变_105-2);}.cls-8{fill:url(#未命名的渐变_67);}.cls-9{fill:url(#未命名的渐变_67-2);}.cls-10{fill:url(#未命名的渐变_67-3);}.cls-11{fill:url(#未命名的渐变_67-4);}.cls-12{fill:#fff;}.cls-13{fill:#eaeaea;}.cls-14{fill:#7f7f7f;}.cls-15{fill:#c1c1c1;opacity:0.51;}.cls-16,.cls-81{fill:none;stroke-miterlimit:10;}.cls-16{stroke:#7f7f7f;stroke-width:0.25px;}.cls-17{fill:#dedede;}.cls-18{fill:#dbf0f8;}.cls-19{fill:#6e6f6f;}.cls-20{fill:url(#未命名的渐变_105-3);}.cls-21{fill:url(#未命名的渐变_105-4);}.cls-22{fill:url(#未命名的渐变_67-5);}.cls-23{fill:url(#未命名的渐变_105-5);}.cls-24{fill:url(#未命名的渐变_105-6);}.cls-25{fill:url(#未命名的渐变_105-7);}.cls-26{fill:url(#未命名的渐变_105-8);}.cls-27{fill:url(#未命名的渐变_105-9);}.cls-28{fill:url(#未命名的渐变_105-10);}.cls-29{fill:url(#未命名的渐变_105-11);}.cls-30{fill:url(#未命名的渐变_105-12);}.cls-31{fill:url(#未命名的渐变_105-13);}.cls-32{fill:url(#未命名的渐变_105-14);}.cls-33{fill:url(#未命名的渐变_105-15);}.cls-34{fill:url(#未命名的渐变_105-16);}.cls-35{fill:url(#未命名的渐变_105-17);}.cls-36{fill:url(#未命名的渐变_105-18);}.cls-37{fill:url(#未命名的渐变_105-19);}.cls-38{fill:url(#未命名的渐变_105-20);}.cls-39{fill:url(#未命名的渐变_67-6);}.cls-40{fill:url(#未命名的渐变_105-21);}.cls-41{fill:url(#未命名的渐变_105-22);}.cls-42{fill:url(#未命名的渐变_105-23);}.cls-43{fill:url(#未命名的渐变_105-24);}.cls-44{fill:url(#未命名的渐变_105-25);}.cls-45{fill:url(#未命名的渐变_105-26);}.cls-46{fill:url(#未命名的渐变_105-27);}.cls-47{fill:url(#未命名的渐变_105-28);}.cls-48{fill:url(#未命名的渐变_105-29);}.cls-49{fill:url(#未命名的渐变_105-30);}.cls-50{fill:url(#未命名的渐变_105-31);}.cls-51{fill:url(#未命名的渐变_105-32);}.cls-52{fill:url(#未命名的渐变_105-33);}.cls-53{fill:url(#未命名的渐变_105-34);}.cls-54{fill:url(#未命名的渐变_105-35);}.cls-55{fill:url(#未命名的渐变_105-36);}.cls-56{fill:url(#未命名的渐变_74-6);}.cls-57{fill:url(#未命名的渐变_105-37);}.cls-58{fill:url(#未命名的渐变_105-38);}.cls-59{fill:url(#未命名的渐变_105-39);}.cls-60{fill:url(#未命名的渐变_105-40);}.cls-61{fill:url(#未命名的渐变_105-41);}.cls-62{fill:url(#未命名的渐变_105-42);}.cls-63{fill:url(#未命名的渐变_105-43);}.cls-64{fill:url(#未命名的渐变_105-44);}.cls-65{fill:url(#未命名的渐变_105-45);}.cls-66{fill:url(#未命名的渐变_105-46);}.cls-67{fill:url(#未命名的渐变_105-47);}.cls-68{fill:url(#未命名的渐变_105-48);}.cls-69{fill:url(#未命名的渐变_105-49);}.cls-70{fill:url(#未命名的渐变_105-50);}.cls-71{fill:url(#未命名的渐变_105-51);}.cls-72{fill:url(#未命名的渐变_105-52);}.cls-73{fill:url(#未命名的渐变_105-53);}.cls-74{fill:url(#未命名的渐变_105-54);}.cls-75{fill:url(#未命名的渐变_105-55);}.cls-76{fill:url(#未命名的渐变_105-56);}.cls-77{fill:url(#未命名的渐变_105-57);}.cls-78{fill:url(#未命名的渐变_105-58);}.cls-79{fill:url(#未命名的渐变_143);}.cls-80{fill:url(#未命名的渐变_105-59);}.cls-81{stroke:#3e3938;stroke-width:0.1px;}.cls-82{opacity:0.2;}</style><linearGradient id="未命名的渐变_74" x1="46.12" y1="137.45" x2="40.37" y2="137.45" gradientUnits="userSpaceOnUse"><stop offset="0" stop-color="#6b6b6b"/><stop offset="0.01" stop-color="#767676"/><stop offset="0.03" stop-color="#959595"/><stop offset="0.04" stop-color="#aaa"/><stop offset="0.37" stop-color="#ccc"/><stop offset="0.74" stop-color="#eaeaea"/><stop offset="0.94" stop-color="#f6f6f6"/><stop offset="0.95" stop-color="#ededed"/><stop offset="0.96" stop-color="#d4d4d4"/><stop offset="0.97" stop-color="#ababab"/><stop offset="0.99" stop-color="#737373"/><stop offset="0.99" stop-color="#666"/></linearGradient><linearGradient id="未命名的渐变_74-2" x1="0" y1="126.52" x2="11.35" y2="126.52" xlink:href="#未命名的渐变_74"/><linearGradient id="未命名的渐变_74-3" x1="11.35" y1="131.79" x2="16.1" y2="131.79" xlink:href="#未命名的渐变_74"/><linearGradient id="未命名的渐变_74-4" x1="404.56" y1="126.52" x2="415.9" y2="126.52" gradientTransform="matrix(-1, 0, 0, 1, 491.33, 0)" xlink:href="#未命名的渐变_74"/><linearGradient id="未命名的渐变_105" x1="77.02" y1="132.93" x2="77.02" y2="131.15" gradientUnits="userSpaceOnUse"><stop offset="0" stop-color="#e2e2e2"/><stop offset="0.03" stop-color="#d0d0d0"/><stop offset="0.06" stop-color="#bcbcbc"/><stop offset="0.09" stop-color="#b5b5b5"/><stop offset="0.49" stop-color="#f6f6f6"/><stop offset="0.63" stop-color="#f3f3f3"/><stop offset="0.73" stop-color="#eaeaea"/><stop offset="0.82" stop-color="#dbdbdb"/><stop offset="0.9" stop-color="#c6c6c6"/><stop offset="0.97" stop-color="#aaa"/><stop offset="1" stop-color="#9b9b9b"/></linearGradient><linearGradient id="未命名的渐变_74-5" x1="415.9" y1="131.79" x2="421.3" y2="131.79" gradientTransform="matrix(-1, 0, 0, 1, 491.33, 0)" xlink:href="#未命名的渐变_74"/><linearGradient id="未命名的渐变_105-2" x1="7.35" y1="69.65" x2="79" y2="69.65" xlink:href="#未命名的渐变_105"/><linearGradient id="未命名的渐变_67" x1="11.93" y1="97.2" x2="11.93" y2="94.91" gradientUnits="userSpaceOnUse"><stop offset="0" stop-color="#6b6b6b"/><stop offset="0.11" stop-color="#767676"/><stop offset="0.3" stop-color="#959595"/><stop offset="0.41" stop-color="#aaa"/><stop offset="0.56" stop-color="#ccc"/><stop offset="0.71" stop-color="#eaeaea"/><stop offset="0.8" stop-color="#f6f6f6"/><stop offset="0.83" stop-color="#ededed"/><stop offset="0.87" stop-color="#d4d4d4"/><stop offset="0.92" stop-color="#ababab"/><stop offset="0.98" stop-color="#737373"/><stop offset="0.99" stop-color="#666"/></linearGradient><linearGradient id="未命名的渐变_67-2" x1="11.67" y1="92.37" x2="11.67" y2="90.08" xlink:href="#未命名的渐变_67"/><linearGradient id="未命名的渐变_67-3" x1="7.91" y1="92.37" x2="7.91" y2="87.84" xlink:href="#未命名的渐变_67"/><linearGradient id="未命名的渐变_67-4" x1="8.42" y1="97.18" x2="8.42" y2="92.64" xlink:href="#未命名的渐变_67"/><linearGradient id="未命名的渐变_105-3" x1="415.84" y1="1643.49" x2="418.65" y2="1640.67" gradientTransform="translate(500.54 1659.57) rotate(180)" xlink:href="#未命名的渐变_105"/><linearGradient id="未命名的渐变_105-4" x1="415.65" y1="70.04" x2="418.6" y2="67.09" gradientTransform="matrix(-1, 0, 0, 1, 500.54, 62.33)" xlink:href="#未命名的渐变_105"/><linearGradient id="未命名的渐变_67-5" x1="7.25" y1="11.48" x2="78.85" y2="11.48" xlink:href="#未命名的渐变_67"/><linearGradient id="未命名的渐变_105-5" x1="8.92" y1="11.48" x2="10.22" y2="11.48" xlink:href="#未命名的渐变_105"/><linearGradient id="未命名的渐变_105-6" x1="13.25" y1="11.48" x2="14.54" y2="11.48" xlink:href="#未命名的渐变_105"/><linearGradient id="未命名的渐变_105-7" x1="17.84" y1="11.48" x2="19.14" y2="11.48" xlink:href="#未命名的渐变_105"/><linearGradient id="未命名的渐变_105-8" x1="22.43" y1="11.48" x2="23.73" y2="11.48" xlink:href="#未命名的渐变_105"/><linearGradient id="未命名的渐变_105-9" x1="27.03" y1="11.48" x2="28.32" y2="11.48" xlink:href="#未命名的渐变_105"/><linearGradient id="未命名的渐变_105-10" x1="31.62" y1="11.48" x2="32.92" y2="11.48" xlink:href="#未命名的渐变_105"/><linearGradient id="未命名的渐变_105-11" x1="36.21" y1="11.48" x2="37.51" y2="11.48" xlink:href="#未命名的渐变_105"/><linearGradient id="未命名的渐变_105-12" x1="40.81" y1="11.48" x2="42.1" y2="11.48" xlink:href="#未命名的渐变_105"/><linearGradient id="未命名的渐变_105-13" x1="45.4" y1="11.48" x2="46.7" y2="11.48" xlink:href="#未命名的渐变_105"/><linearGradient id="未命名的渐变_105-14" x1="49.99" y1="11.48" x2="51.29" y2="11.48" xlink:href="#未命名的渐变_105"/><linearGradient id="未命名的渐变_105-15" x1="54.58" y1="11.48" x2="55.88" y2="11.48" xlink:href="#未命名的渐变_105"/><linearGradient id="未命名的渐变_105-16" x1="59.18" y1="11.48" x2="60.48" y2="11.48" xlink:href="#未命名的渐变_105"/><linearGradient id="未命名的渐变_105-17" x1="63.77" y1="11.48" x2="65.07" y2="11.48" xlink:href="#未命名的渐变_105"/><linearGradient id="未命名的渐变_105-18" x1="68.36" y1="11.48" x2="69.66" y2="11.48" xlink:href="#未命名的渐变_105"/><linearGradient id="未命名的渐变_105-19" x1="72.96" y1="11.48" x2="74.25" y2="11.48" xlink:href="#未命名的渐变_105"/><linearGradient id="未命名的渐变_105-20" x1="77.55" y1="11.48" x2="78.85" y2="11.48" xlink:href="#未命名的渐变_105"/><linearGradient id="未命名的渐变_67-6" x1="7.77" y1="127.57" x2="78.72" y2="127.57" xlink:href="#未命名的渐变_67"/><linearGradient id="未命名的渐变_105-21" x1="9.43" y1="127.57" x2="10.72" y2="127.57" xlink:href="#未命名的渐变_105"/><linearGradient id="未命名的渐变_105-22" x1="13.71" y1="127.57" x2="15" y2="127.57" xlink:href="#未命名的渐变_105"/><linearGradient id="未命名的渐变_105-23" x1="18.26" y1="127.57" x2="19.55" y2="127.57" xlink:href="#未命名的渐变_105"/><linearGradient id="未命名的渐变_105-24" x1="22.82" y1="127.57" x2="24.1" y2="127.57" xlink:href="#未命名的渐变_105"/><linearGradient id="未命名的渐变_105-25" x1="27.37" y1="127.57" x2="28.65" y2="127.57" xlink:href="#未命名的渐变_105"/><linearGradient id="未命名的渐变_105-26" x1="31.92" y1="127.57" x2="33.2" y2="127.57" xlink:href="#未命名的渐变_105"/><linearGradient id="未命名的渐变_105-27" x1="36.47" y1="127.57" x2="37.76" y2="127.57" xlink:href="#未命名的渐变_105"/><linearGradient id="未命名的渐变_105-28" x1="41.02" y1="127.57" x2="42.31" y2="127.57" xlink:href="#未命名的渐变_105"/><linearGradient id="未命名的渐变_105-29" x1="45.57" y1="127.57" x2="46.86" y2="127.57" xlink:href="#未命名的渐变_105"/><linearGradient id="未命名的渐变_105-30" x1="50.12" y1="127.57" x2="51.41" y2="127.57" xlink:href="#未命名的渐变_105"/><linearGradient id="未命名的渐变_105-31" x1="54.68" y1="127.57" x2="55.96" y2="127.57" xlink:href="#未命名的渐变_105"/><linearGradient id="未命名的渐变_105-32" x1="59.23" y1="127.57" x2="60.51" y2="127.57" xlink:href="#未命名的渐变_105"/><linearGradient id="未命名的渐变_105-33" x1="63.78" y1="127.57" x2="65.06" y2="127.57" xlink:href="#未命名的渐变_105"/><linearGradient id="未命名的渐变_105-34" x1="68.33" y1="127.57" x2="69.62" y2="127.57" xlink:href="#未命名的渐变_105"/><linearGradient id="未命名的渐变_105-35" x1="72.88" y1="127.57" x2="74.17" y2="127.57" xlink:href="#未命名的渐变_105"/><linearGradient id="未命名的渐变_105-36" x1="77.43" y1="127.57" x2="78.72" y2="127.57" xlink:href="#未命名的渐变_105"/><linearGradient id="未命名的渐变_74-6" x1="12.78" y1="93.63" x2="25.75" y2="93.63" xlink:href="#未命名的渐变_74"/><linearGradient id="未命名的渐变_105-37" x1="80.25" y1="18.12" x2="80.25" y2="14.97" xlink:href="#未命名的渐变_105"/><linearGradient id="未命名的渐变_105-38" x1="83.11" y1="74.29" x2="84.9" y2="74.29" xlink:href="#未命名的渐变_105"/><linearGradient id="未命名的渐变_105-39" x1="65.35" y1="69.25" x2="67.14" y2="69.25" xlink:href="#未命名的渐变_105"/><linearGradient id="未命名的渐变_105-40" x1="79.95" y1="133.39" x2="79.95" y2="130.32" xlink:href="#未命名的渐变_105"/><linearGradient id="未命名的渐变_105-41" x1="85.55" y1="127.74" x2="85.55" y2="126.7" xlink:href="#未命名的渐变_105"/><linearGradient id="未命名的渐变_105-42" x1="86.98" y1="127.27" x2="88.35" y2="127.27" xlink:href="#未命名的渐变_105"/><linearGradient id="未命名的渐变_105-43" x1="82.53" y1="127.28" x2="85.72" y2="127.28" xlink:href="#未命名的渐变_105"/><linearGradient id="未命名的渐变_105-44" x1="87.63" y1="128.44" x2="87.63" y2="125.97" xlink:href="#未命名的渐变_105"/><linearGradient id="未命名的渐变_105-45" x1="85.43" y1="21.67" x2="85.43" y2="20.63" xlink:href="#未命名的渐变_105"/><linearGradient id="未命名的渐变_105-46" x1="86.86" y1="21.2" x2="88.23" y2="21.2" xlink:href="#未命名的渐变_105"/><linearGradient id="未命名的渐变_105-47" x1="87.51" y1="22.38" x2="87.51" y2="19.9" xlink:href="#未命名的渐变_105"/><linearGradient id="未命名的渐变_105-48" x1="64.86" y1="19.75" x2="67.63" y2="19.75" xlink:href="#未命名的渐变_105"/><linearGradient id="未命名的渐变_105-49" x1="63.68" y1="24.78" x2="68.72" y2="24.78" xlink:href="#未命名的渐变_105"/><linearGradient id="未命名的渐变_105-50" x1="64.86" y1="32.29" x2="67.63" y2="32.29" xlink:href="#未命名的渐变_105"/><linearGradient id="未命名的渐变_105-51" x1="64.86" y1="78.92" x2="67.63" y2="78.92" xlink:href="#未命名的渐变_105"/><linearGradient id="未命名的渐变_105-52" x1="63.68" y1="38.51" x2="68.72" y2="38.51" xlink:href="#未命名的渐变_105"/><linearGradient id="未命名的渐变_105-53" x1="63.72" y1="85.71" x2="68.76" y2="85.71" xlink:href="#未命名的渐变_105"/><linearGradient id="未命名的渐变_105-54" x1="64.86" y1="111.72" x2="67.63" y2="111.72" xlink:href="#未命名的渐变_105"/><linearGradient id="未命名的渐变_105-55" x1="42.31" y1="113.93" x2="44.14" y2="113.93" xlink:href="#未命名的渐变_105"/><linearGradient id="未命名的渐变_105-56" x1="63.72" y1="118.51" x2="68.76" y2="118.51" xlink:href="#未命名的渐变_105"/><linearGradient id="未命名的渐变_105-57" x1="82.5" y1="21.2" x2="85.45" y2="21.2" xlink:href="#未命名的渐变_105"/><linearGradient id="未命名的渐变_105-58" x1="39.92" y1="120.96" x2="41.49" y2="120.96" xlink:href="#未命名的渐变_105"/><linearGradient id="未命名的渐变_143" x1="45.57" y1="120.77" x2="61.44" y2="120.77" gradientUnits="userSpaceOnUse"><stop offset="0" stop-color="#b7b7b7"/><stop offset="0.03" stop-color="#9b9d9d"/><stop offset="0.07" stop-color="#878b8b"/><stop offset="0.09" stop-color="#808484"/><stop offset="0.2" stop-color="#a3a6a6"/><stop offset="0.49" stop-color="#f6f6f6"/><stop offset="0.61" stop-color="#f3f3f3"/><stop offset="0.7" stop-color="#eaeaea"/><stop offset="0.77" stop-color="#dbdbdb"/><stop offset="0.83" stop-color="#c5c5c5"/><stop offset="0.9" stop-color="#aaa"/><stop offset="0.95" stop-color="#888"/><stop offset="1" stop-color="#666"/></linearGradient><linearGradient id="未命名的渐变_105-59" x1="41.37" y1="121.22" x2="45.57" y2="121.22" xlink:href="#未命名的渐变_105"/></defs><title>Clean water system（清水系统）</title><g id="图层_2" data-name="图层 2"><g id="图层_125" data-name="图层 125"><g id="Clean_water_system_清水系统_" data-name="Clean water system（清水系统）"><rect class="cls-1" x="40.37" y="125.32" width="5.75" height="24.25"/><polygon class="cls-2" points="11.35 139.2 11.35 113.85 0 137.47 11.35 139.2"/><polygon class="cls-3" points="11.35 139.2 16.1 138.01 16.1 124.39 11.35 125.36 11.35 139.2"/><polygon class="cls-4" points="75.42 139.2 75.42 113.85 86.77 137.47 75.42 139.2"/><rect class="cls-5" x="75.42" y="131.15" width="3.19" height="1.78"/><polygon class="cls-6" points="75.42 139.2 70.03 138.01 70.03 124.39 75.42 125.36 75.42 139.2"/><path class="cls-7" d="M79,129.24S72.63,139.3,43.17,139.3c-30.28,0-35.82-10.06-35.82-10.06V9.35S9.86-.43,43.17,0C74.85.44,79,9.35,79,9.35Z"/><rect class="cls-8" x="10.86" y="94.91" width="2.13" height="2.29"/><rect class="cls-9" x="10.35" y="90.08" width="2.64" height="2.29"/><path class="cls-10" d="M10.35,92.37s-4.21,0-4.81-2.29c-.44-1.65,1.64-2.24,1.64-2.24s0,1.23.45,1.57a9.29,9.29,0,0,0,2.72.67Z"/><path class="cls-11" d="M10.86,97.18s-4.21,0-4.81-2.29c-.44-1.66,1.64-2.25,1.64-2.25s0,1.23.46,1.57a9.25,9.25,0,0,0,2.71.68Z"/><circle class="cls-12" cx="43.06" cy="55.45" r="7.5"/><path class="cls-13" d="M35.55,55.45a7.49,7.49,0,0,0,3.28,6.2,8.18,8.18,0,0,0,7.62-12.88,7.49,7.49,0,0,0-10.9,6.68Z"/><path class="cls-14" d="M43.06,47.24a8.22,8.22,0,1,0,8.21,8.21A8.22,8.22,0,0,0,43.06,47.24Zm0,15.72a7.51,7.51,0,1,1,7.5-7.51A7.51,7.51,0,0,1,43.06,63Z"/><circle class="cls-15" cx="43.06" cy="55.45" r="7.2"/><path class="cls-14" d="M46.17,54.31l-.69-.91a.32.32,0,0,0-.44-.06l0,0h0v0a.21.21,0,0,0,0,.06,5.59,5.59,0,0,1-1,1.22c-1.18.94-6.12,4.44-6.12,4.44s5.15-3.1,6.73-3.92a6.32,6.32,0,0,1,1.42-.4H46l.08,0A.3.3,0,0,0,46.17,54.31Z"/><circle class="cls-14" cx="43.31" cy="55.55" r="0.65"/><line class="cls-16" x1="46.28" y1="49.5" x2="45.75" y2="50.5"/><line class="cls-16" x1="40.05" y1="49.5" x2="40.58" y2="50.5"/><line class="cls-16" x1="36.45" y1="54.57" x2="37.57" y2="54.73"/><line class="cls-16" x1="49.95" y1="54.53" x2="48.83" y2="54.69"/><circle class="cls-17" cx="43.31" cy="55.55" r="0.37"/><path class="cls-18" d="M77.33,37.07H58a9.78,9.78,0,0,1-.69,2.73c-1.44,3.3-4.93,5.81-5,9.41s3.2,6.23,3.79,9.68c.78,4.65-3.42,8.75-3.78,13.45-.49,6.4,6.17,11.9,5.16,18.23-.48,3.05-2.7,5.55-5.17,7.4s-5.27,3.24-7.68,5.17a16.53,16.53,0,0,0-5.91,8.73A11.49,11.49,0,0,0,40.87,122a13.19,13.19,0,0,0,8.39,4.13,39.11,39.11,0,0,0,9.54-.3l10.48-1.18c2.75-.31,6-1,7.07-3.53.78-1.85,0-4-1-5.69s-2.46-3.23-3.16-5.11c-1.25-3.4,0-7.19,1.63-10.44s3.55-6.51,3.67-10.13c.14-4.17-2.18-8.11-2.12-12.28.06-5.18,3.79-9.93,3.27-15.09-.5-4.92-4.8-9-4.54-14,.14-2.73,1.63-5.14,2.55-7.65A10,10,0,0,0,77.33,37.07Z"/><path class="cls-19" d="M74.89,26.36a20.14,20.14,0,0,1,1.6-4.5,5.88,5.88,0,0,0,.24-4.66,4.74,4.74,0,0,0-2.28-2.09,12.24,12.24,0,0,0-3-.84,65.21,65.21,0,0,0-9.76-1c-1.65,0-4.13,0-5.38.49A4.81,4.81,0,0,0,54,16.21c-.53,1.86.51,5,1.18,7.54.24.94.52,1.86.83,2.78,1.15,3.4,2.41,7.08,2,10.54H77.33s0-.09,0-.13a13.62,13.62,0,0,0-.94-3.82C75.62,31,74.58,28.72,74.89,26.36Z"/><path class="cls-20" d="M82.42,18.5c.24.28.08,1,.08,1h3s.09-2.57-.65-3.33A6.13,6.13,0,0,0,81.66,15v3A5.54,5.54,0,0,1,82.42,18.5Z"/><path class="cls-21" d="M82.4,129.88c.27-.28.08-1,.08-1h3.31s.11,2.57-.73,3.32a7.44,7.44,0,0,1-3.52,1.22v-3A6.07,6.07,0,0,0,82.4,129.88Z"/><rect class="cls-22" x="7.25" y="10.61" width="71.6" height="1.74"/><circle class="cls-23" cx="9.57" cy="11.48" r="0.65"/><circle class="cls-24" cx="13.9" cy="11.48" r="0.65"/><circle class="cls-25" cx="18.49" cy="11.48" r="0.65"/><circle class="cls-26" cx="23.08" cy="11.48" r="0.65"/><circle class="cls-27" cx="27.67" cy="11.48" r="0.65"/><circle class="cls-28" cx="32.27" cy="11.48" r="0.65"/><circle class="cls-29" cx="36.86" cy="11.48" r="0.65"/><circle class="cls-30" cx="41.45" cy="11.48" r="0.65"/><circle class="cls-31" cx="46.05" cy="11.48" r="0.65"/><circle class="cls-32" cx="50.64" cy="11.48" r="0.65"/><circle class="cls-33" cx="55.23" cy="11.48" r="0.65"/><circle class="cls-34" cx="59.83" cy="11.48" r="0.65"/><circle class="cls-35" cx="64.42" cy="11.48" r="0.65"/><circle class="cls-36" cx="69.01" cy="11.48" r="0.65"/><circle class="cls-37" cx="73.61" cy="11.48" r="0.65"/><circle class="cls-38" cx="78.2" cy="11.48" r="0.65"/><rect class="cls-39" x="7.77" y="126.7" width="70.95" height="1.74"/><ellipse class="cls-40" cx="10.07" cy="127.57" rx="0.64" ry="0.65"/><ellipse class="cls-41" cx="14.36" cy="127.57" rx="0.64" ry="0.65"/><ellipse class="cls-42" cx="18.91" cy="127.57" rx="0.64" ry="0.65"/><ellipse class="cls-43" cx="23.46" cy="127.57" rx="0.64" ry="0.65"/><ellipse class="cls-44" cx="28.01" cy="127.57" rx="0.64" ry="0.65"/><ellipse class="cls-45" cx="32.56" cy="127.57" rx="0.64" ry="0.65"/><ellipse class="cls-46" cx="37.11" cy="127.57" rx="0.64" ry="0.65"/><ellipse class="cls-47" cx="41.66" cy="127.57" rx="0.64" ry="0.65"/><ellipse class="cls-48" cx="46.22" cy="127.57" rx="0.64" ry="0.65"/><ellipse class="cls-49" cx="50.77" cy="127.57" rx="0.64" ry="0.65"/><ellipse class="cls-50" cx="55.32" cy="127.57" rx="0.64" ry="0.65"/><ellipse class="cls-51" cx="59.87" cy="127.57" rx="0.64" ry="0.65"/><ellipse class="cls-52" cx="64.42" cy="127.57" rx="0.64" ry="0.65"/><ellipse class="cls-53" cx="68.97" cy="127.57" rx="0.64" ry="0.65"/><ellipse class="cls-54" cx="73.52" cy="127.57" rx="0.64" ry="0.65"/><ellipse class="cls-55" cx="78.08" cy="127.57" rx="0.64" ry="0.65"/><rect class="cls-56" x="12.78" y="87.84" width="12.97" height="11.59" rx="0.2"/><rect class="cls-57" x="78.85" y="14.97" width="2.81" height="3.15"/><rect class="cls-58" x="83.11" y="22.89" width="1.79" height="102.8"/><rect class="cls-59" x="65.35" y="13.78" width="1.79" height="110.93"/><rect class="cls-60" x="78.35" y="130.32" width="3.19" height="3.07"/><rect class="cls-61" x="84.12" y="126.7" width="2.86" height="1.04"/><rect class="cls-62" x="86.98" y="125.01" width="1.37" height="4.52"/><rect class="cls-63" x="82.53" y="125.69" width="3.19" height="3.19"/><rect class="cls-64" x="86.61" y="125.97" width="2.05" height="2.48"/><rect class="cls-65" x="84" y="20.63" width="2.86" height="1.04"/><rect class="cls-66" x="86.86" y="18.94" width="1.37" height="4.52"/><rect class="cls-67" x="86.49" y="19.9" width="2.05" height="2.48"/><rect class="cls-68" x="64.86" y="18.83" width="2.77" height="1.83"/><rect class="cls-69" x="63.68" y="22.53" width="5.04" height="4.52"/><rect class="cls-70" x="64.86" y="31.37" width="2.77" height="1.83"/><path class="cls-71" d="M67.62,79.84H64.86V78h2.77v1.82Z"/><rect class="cls-72" x="63.68" y="36.25" width="5.04" height="4.52"/><rect class="cls-73" x="63.72" y="83.45" width="5.04" height="4.52"/><path class="cls-74" d="M67.62,112.64H64.86v-1.82h2.77v1.82Z"/><path class="cls-75" d="M44.13,123.63H42.31V104.24h1.83v19.39Z"/><rect class="cls-76" x="63.72" y="116.25" width="5.04" height="4.52"/><rect class="cls-77" x="82.5" y="19.51" width="2.95" height="3.39"/><path class="cls-78" d="M41.48,121.91H39.92V120h1.57v1.9Z"/><path class="cls-79" d="M45.57,119.87v2.2h0c3.81.51,9.65.81,12.63.33,1.68-.27,3-.89,3.2-2,.08-.57.19-1.47-1.4-1.47-1,0-4.78.5-5.78.59a50.84,50.84,0,0,1-8.65.39Z"/><path class="cls-80" d="M45.57,122.58h-4.2v-2.72h4.2v2.72Z"/><path class="cls-81" d="M56.27,13.78A4.81,4.81,0,0,0,54,16.21c-.53,1.86.51,5,1.18,7.54.24.94.52,1.86.83,2.78,1.46,4.31,3.13,9.09,1.32,13.27-1.44,3.3-4.93,5.81-5,9.41s3.2,6.23,3.79,9.68c.78,4.65-3.42,8.75-3.78,13.45-.49,6.4,6.17,11.9,5.16,18.23-.48,3.05-2.7,5.55-5.17,7.4s-5.27,3.24-7.68,5.17a16.53,16.53,0,0,0-5.91,8.73A11.49,11.49,0,0,0,40.87,122a13.19,13.19,0,0,0,8.39,4.13,39.11,39.11,0,0,0,9.54-.3l10.48-1.18c2.75-.31,6-1,7.07-3.52.78-1.86,0-4-1-5.7s-2.46-3.23-3.16-5.11c-1.25-3.4,0-7.19,1.63-10.44s3.55-6.51,3.67-10.13c.14-4.17-2.18-8.11-2.12-12.28.06-5.18,3.79-9.93,3.27-15.09-.5-4.92-4.8-9-4.54-14,.14-2.73,1.63-5.14,2.55-7.65a9.66,9.66,0,0,0,.72-3.78,13.62,13.62,0,0,0-.94-3.82c-.78-2.16-1.82-4.4-1.51-6.76a20.14,20.14,0,0,1,1.6-4.5,5.88,5.88,0,0,0,.24-4.66,4.74,4.74,0,0,0-2.28-2.09,12.24,12.24,0,0,0-3-.84,65.21,65.21,0,0,0-9.76-1C60,13.25,57.52,13.25,56.27,13.78Z"/></g></g></g></svg>