<svg xmlns="http://www.w3.org/2000/svg" xmlns:xlink="http://www.w3.org/1999/xlink" viewBox="0 0 150 97.96"><defs><style>.cls-1{fill:url(#未命名的渐变_105);}.cls-2{fill:url(#未命名的渐变_67);}.cls-3{fill:url(#未命名的渐变_105-2);}.cls-4{fill:#818080;}.cls-5{fill:#e6e6e6;}.cls-6{fill:url(#未命名的渐变_105-3);}.cls-7{fill:url(#未命名的渐变_67-2);}.cls-8{fill:url(#未命名的渐变_74);}.cls-9{fill:url(#未命名的渐变_67-3);}.cls-10{fill:url(#未命名的渐变_67-4);}.cls-11{fill:url(#未命名的渐变_67-5);}.cls-12{fill:url(#未命名的渐变_67-6);}.cls-13{fill:url(#未命名的渐变_105-4);}.cls-14{fill:url(#未命名的渐变_67-7);}.cls-15{fill:url(#未命名的渐变_67-8);}.cls-16{fill:url(#未命名的渐变_67-9);}.cls-17{fill:url(#未命名的渐变_67-10);}.cls-18{fill:url(#未命名的渐变_67-11);}.cls-19{fill:url(#未命名的渐变_67-12);}.cls-20{fill:url(#未命名的渐变_105-5);}.cls-21{fill:url(#未命名的渐变_105-6);}.cls-22{fill:url(#未命名的渐变_105-7);}.cls-23{fill:url(#未命名的渐变_74-2);}.cls-24{fill:url(#未命名的渐变_74-3);}.cls-25{fill:url(#未命名的渐变_74-4);}.cls-26{fill:url(#未命名的渐变_67-13);}.cls-27{fill:url(#未命名的渐变_67-14);}.cls-28{fill:url(#未命名的渐变_67-15);}.cls-29{opacity:0.2;}</style><linearGradient id="未命名的渐变_105" x1="54.93" y1="61.99" x2="54.93" y2="82.36" gradientUnits="userSpaceOnUse"><stop offset="0" stop-color="#e2e2e2"/><stop offset="0.03" stop-color="#d0d0d0"/><stop offset="0.06" stop-color="#bcbcbc"/><stop offset="0.09" stop-color="#b5b5b5"/><stop offset="0.49" stop-color="#f6f6f6"/><stop offset="0.63" stop-color="#f3f3f3"/><stop offset="0.73" stop-color="#eaeaea"/><stop offset="0.82" stop-color="#dbdbdb"/><stop offset="0.9" stop-color="#c6c6c6"/><stop offset="0.97" stop-color="#aaa"/><stop offset="1" stop-color="#9b9b9b"/></linearGradient><linearGradient id="未命名的渐变_67" x1="53.44" y1="32.67" x2="64.13" y2="32.67" gradientUnits="userSpaceOnUse"><stop offset="0" stop-color="#6b6b6b"/><stop offset="0.11" stop-color="#767676"/><stop offset="0.3" stop-color="#959595"/><stop offset="0.41" stop-color="#aaa"/><stop offset="0.56" stop-color="#ccc"/><stop offset="0.71" stop-color="#eaeaea"/><stop offset="0.8" stop-color="#f6f6f6"/><stop offset="0.83" stop-color="#ededed"/><stop offset="0.87" stop-color="#d4d4d4"/><stop offset="0.92" stop-color="#ababab"/><stop offset="0.98" stop-color="#737373"/><stop offset="0.99" stop-color="#666"/></linearGradient><linearGradient id="未命名的渐变_105-2" x1="-754.48" y1="783.72" x2="-727.18" y2="783.72" gradientTransform="translate(809.08 814.35) rotate(90)" xlink:href="#未命名的渐变_105"/><linearGradient id="未命名的渐变_105-3" x1="57.3" y1="34.05" x2="60.34" y2="34.05" xlink:href="#未命名的渐变_105"/><linearGradient id="未命名的渐变_67-2" x1="52.2" y1="3.47" x2="65.2" y2="3.47" xlink:href="#未命名的渐变_67"/><linearGradient id="未命名的渐变_74" y1="94.35" x2="150" y2="94.35" gradientUnits="userSpaceOnUse"><stop offset="0" stop-color="#6b6b6b"/><stop offset="0.01" stop-color="#767676"/><stop offset="0.03" stop-color="#959595"/><stop offset="0.04" stop-color="#aaa"/><stop offset="0.37" stop-color="#ccc"/><stop offset="0.74" stop-color="#eaeaea"/><stop offset="0.94" stop-color="#f6f6f6"/><stop offset="0.95" stop-color="#ededed"/><stop offset="0.96" stop-color="#d4d4d4"/><stop offset="0.97" stop-color="#ababab"/><stop offset="0.99" stop-color="#737373"/><stop offset="0.99" stop-color="#666"/></linearGradient><linearGradient id="未命名的渐变_67-3" x1="45.99" y1="1.21" x2="71.67" y2="1.21" xlink:href="#未命名的渐变_67"/><linearGradient id="未命名的渐变_67-4" x1="27.91" y1="66.8" x2="27.91" y2="65.46" xlink:href="#未命名的渐变_67"/><linearGradient id="未命名的渐变_67-5" x1="-739.95" y1="802.91" x2="-767.85" y2="802.91" gradientTransform="translate(768.65 -729.69)" xlink:href="#未命名的渐变_67"/><linearGradient id="未命名的渐变_67-6" x1="-739.53" y1="774.29" x2="-768.18" y2="774.29" gradientTransform="translate(797.23 -701.02)" xlink:href="#未命名的渐变_67"/><linearGradient id="未命名的渐变_105-4" x1="-739.53" y1="773.55" x2="-768.18" y2="773.55" gradientTransform="translate(797.97 -700.29)" xlink:href="#未命名的渐变_105"/><linearGradient id="未命名的渐变_67-7" x1="27.91" y1="69.42" x2="27.91" y2="68.08" xlink:href="#未命名的渐变_67"/><linearGradient id="未命名的渐变_67-8" x1="27.91" y1="72.03" x2="27.91" y2="70.69" xlink:href="#未命名的渐变_67"/><linearGradient id="未命名的渐变_67-9" x1="27.91" y1="74.65" x2="27.91" y2="73.31" xlink:href="#未命名的渐变_67"/><linearGradient id="未命名的渐变_67-10" x1="27.91" y1="77.26" x2="27.91" y2="75.93" xlink:href="#未命名的渐变_67"/><linearGradient id="未命名的渐变_67-11" x1="27.91" y1="79.88" x2="27.91" y2="78.54" xlink:href="#未命名的渐变_67"/><linearGradient id="未命名的渐变_67-12" x1="58.73" y1="60.82" x2="58.73" y2="86.14" xlink:href="#未命名的渐变_67"/><linearGradient id="未命名的渐变_105-5" x1="73.84" y1="66.55" x2="73.84" y2="80.5" xlink:href="#未命名的渐变_105"/><linearGradient id="未命名的渐变_105-6" x1="133.75" y1="20.86" x2="133.75" y2="34.21" xlink:href="#未命名的渐变_105"/><linearGradient id="未命名的渐变_105-7" x1="82.14" y1="47.38" x2="134.69" y2="47.38" xlink:href="#未命名的渐变_105"/><linearGradient id="未命名的渐变_74-2" x1="81.27" y1="34.21" x2="101.42" y2="34.21" xlink:href="#未命名的渐变_74"/><linearGradient id="未命名的渐变_74-3" x1="104.64" y1="76.01" x2="112.24" y2="76.01" xlink:href="#未命名的渐变_74"/><linearGradient id="未命名的渐变_74-4" x1="102.91" y1="88.17" x2="112.24" y2="88.17" xlink:href="#未命名的渐变_74"/><linearGradient id="未命名的渐变_67-13" x1="80.34" y1="14.95" x2="136.43" y2="14.95" xlink:href="#未命名的渐变_67"/><linearGradient id="未命名的渐变_67-14" x1="106.29" y1="7.88" x2="110.16" y2="7.88" xlink:href="#未命名的渐变_67"/><linearGradient id="未命名的渐变_67-15" x1="143.68" y1="37.76" x2="143.68" y2="17.75" xlink:href="#未命名的渐变_67"/></defs><title>Close-coupled self-primer（紧密耦合自底漆）</title><g id="图层_2" data-name="图层 2"><g id="图层_125" data-name="图层 125"><g id="Close-coupled_self-primer_紧密耦合自底漆_" data-name="Close-coupled self-primer（紧密耦合自底漆）"><rect class="cls-1" x="48.28" y="61.99" width="13.3" height="20.37"/><rect class="cls-2" x="53.44" y="4.52" width="10.69" height="56.3"/><path class="cls-3" d="M4.36,87.17a45.9,45.9,0,0,1-2-13.86c0-10.29,2-13.44,2-13.44h44v27.3Z"/><circle class="cls-4" cx="58.82" cy="34.05" r="22.18"/><circle class="cls-5" cx="58.82" cy="34.05" r="21.03"/><circle class="cls-6" cx="58.82" cy="34.05" r="1.52"/><rect class="cls-7" x="52.2" y="2.42" width="13" height="2.1"/><rect class="cls-5" x="15.82" y="82.57" width="26.18" height="5.78"/><polygon class="cls-5" points="41.25 59.73 30.21 59.73 28.71 55.23 42.83 55.23 41.25 59.73"/><rect class="cls-4" x="15.82" y="87.86" width="26.18" height="2.89"/><rect class="cls-8" y="90.75" width="150" height="7.2"/><rect class="cls-9" x="45.99" width="25.68" height="2.42"/><rect class="cls-4" x="28.4" y="53.89" width="14.8" height="1.34"/><rect class="cls-10" x="15.6" y="65.46" width="24.64" height="1.34"/><rect class="cls-11" x="0.8" y="72.85" width="27.91" height="0.73" transform="translate(87.97 58.46) rotate(90)"/><rect class="cls-12" x="29.05" y="72.9" width="28.65" height="0.73" transform="translate(116.64 29.88) rotate(90)"/><rect class="cls-13" x="29.78" y="72.9" width="28.65" height="0.73" transform="translate(117.37 29.15) rotate(90)"/><rect class="cls-14" x="15.6" y="68.08" width="24.64" height="1.34"/><rect class="cls-15" x="15.6" y="70.69" width="24.64" height="1.34"/><rect class="cls-16" x="15.6" y="73.31" width="24.64" height="1.34"/><rect class="cls-17" x="15.6" y="75.93" width="24.64" height="1.34"/><rect class="cls-18" x="15.6" y="78.54" width="24.64" height="1.34"/><rect class="cls-19" x="52.08" y="60.82" width="13.3" height="25.32"/><rect class="cls-20" x="65.38" y="66.55" width="16.93" height="13.95"/><rect class="cls-21" x="125.28" y="20.86" width="16.93" height="13.35"/><path class="cls-22" d="M134.69,80.39s-4.71,5.44-27.12,5.07c-20.75-.34-25.43-5.07-25.43-5.07V14.18l26.28-4.91,26.27,4.91Z"/><rect class="cls-23" x="81.27" y="32.85" width="20.15" height="2.72"/><rect class="cls-24" x="104.64" y="66.55" width="7.6" height="18.93"/><rect class="cls-25" x="102.91" y="85.48" width="9.33" height="5.39"/><rect class="cls-26" x="80.34" y="14.18" width="56.1" height="1.53"/><rect class="cls-4" x="52.96" y="82.9" width="11.77" height="7.85"/><rect class="cls-27" x="106.29" y="5.82" width="3.87" height="4.13"/><rect class="cls-28" x="142.21" y="17.75" width="2.95" height="20.01"/></g></g></g></svg>