<svg xmlns="http://www.w3.org/2000/svg" xmlns:xlink="http://www.w3.org/1999/xlink" viewBox="0 0 150 97.28"><defs><style>.cls-1{fill:url(#未命名的渐变_205);}.cls-2{fill:#252628;}.cls-3{fill:url(#未命名的渐变_39);}.cls-4{fill:url(#未命名的渐变_175);}.cls-5{fill:url(#未命名的渐变_175-2);}.cls-6{fill:url(#未命名的渐变_163);}.cls-7{fill:url(#未命名的渐变_170);}.cls-8{fill:url(#未命名的渐变_175-3);}.cls-9{fill:url(#未命名的渐变_185);}.cls-10{fill:url(#未命名的渐变_163-2);}.cls-11{fill:url(#未命名的渐变_175-4);}.cls-12{fill:url(#未命名的渐变_175-5);}.cls-13{fill:url(#未命名的渐变_163-3);}.cls-14{fill:url(#未命名的渐变_170-2);}.cls-15{fill:url(#未命名的渐变_189);}.cls-16{fill:url(#未命名的渐变_175-6);}.cls-17{fill:url(#未命名的渐变_185-2);}.cls-18{fill:url(#未命名的渐变_163-4);}.cls-19{fill:url(#未命名的渐变_175-7);}.cls-20{fill:url(#未命名的渐变_175-8);}.cls-21{fill:url(#未命名的渐变_163-5);}.cls-22{fill:url(#未命名的渐变_170-3);}.cls-23{fill:url(#未命名的渐变_189-2);}.cls-24{fill:url(#未命名的渐变_175-9);}.cls-25{fill:url(#未命名的渐变_185-3);}.cls-26{fill:url(#未命名的渐变_163-6);}.cls-27{fill:url(#未命名的渐变_175-10);}.cls-28{fill:url(#未命名的渐变_175-11);}.cls-29{fill:url(#未命名的渐变_163-7);}.cls-30{fill:url(#未命名的渐变_170-4);}.cls-31{fill:url(#未命名的渐变_189-3);}.cls-32{fill:url(#未命名的渐变_175-12);}.cls-33{fill:url(#未命名的渐变_185-4);}.cls-34{fill:url(#未命名的渐变_163-8);}.cls-35{fill:url(#未命名的渐变_175-13);}.cls-36{fill:url(#未命名的渐变_175-14);}.cls-37{fill:url(#未命名的渐变_163-9);}.cls-38{fill:url(#未命名的渐变_170-5);}.cls-39{fill:url(#未命名的渐变_189-4);}.cls-40{fill:url(#未命名的渐变_175-15);}.cls-41{fill:url(#未命名的渐变_185-5);}.cls-42{fill:url(#未命名的渐变_163-10);}.cls-43{fill:url(#未命名的渐变_175-16);}.cls-44{fill:url(#未命名的渐变_175-17);}.cls-45{fill:url(#未命名的渐变_163-11);}.cls-46{fill:url(#未命名的渐变_170-6);}.cls-47{fill:url(#未命名的渐变_189-5);}.cls-48{fill:url(#未命名的渐变_175-18);}.cls-49{fill:url(#未命名的渐变_185-6);}.cls-50{fill:url(#未命名的渐变_163-12);}.cls-51{fill:url(#未命名的渐变_175-19);}.cls-52{fill:url(#未命名的渐变_175-20);}.cls-53{fill:url(#未命名的渐变_163-13);}.cls-54{fill:url(#未命名的渐变_170-7);}.cls-55{fill:url(#未命名的渐变_189-6);}.cls-56{fill:url(#未命名的渐变_175-21);}.cls-57{fill:url(#未命名的渐变_185-7);}.cls-58{fill:url(#未命名的渐变_163-14);}.cls-59{fill:url(#未命名的渐变_175-22);}.cls-60{fill:url(#未命名的渐变_175-23);}.cls-61{fill:url(#未命名的渐变_170-8);}.cls-62{fill:url(#未命名的渐变_189-7);}.cls-63{fill:url(#未命名的渐变_175-24);}.cls-64{fill:url(#未命名的渐变_185-8);}.cls-65{opacity:0.2;}</style><linearGradient id="未命名的渐变_205" y1="48.64" x2="150" y2="48.64" gradientUnits="userSpaceOnUse"><stop offset="0" stop-color="#767b82"/><stop offset="0.02" stop-color="#9ba1ab"/><stop offset="0.98" stop-color="#9ba1ab"/><stop offset="0.99" stop-color="#d7dce0"/><stop offset="1" stop-color="#767b82"/></linearGradient><linearGradient id="未命名的渐变_39" x1="75" y1="85.61" x2="75" y2="11.67" gradientUnits="userSpaceOnUse"><stop offset="0" stop-color="#dce1e6"/><stop offset="1" stop-color="#5c6066"/></linearGradient><linearGradient id="未命名的渐变_175" x1="9.52" y1="48.64" x2="13.7" y2="48.64" gradientUnits="userSpaceOnUse"><stop offset="0" stop-color="#a9b1bb"/><stop offset="0.09" stop-color="#61666b"/><stop offset="0.18" stop-color="#696e73"/><stop offset="0.32" stop-color="#7e8489"/><stop offset="0.49" stop-color="#a1a7ae"/><stop offset="0.69" stop-color="#d1d8e0"/><stop offset="0.75" stop-color="#e2eaf2"/><stop offset="0.93" stop-color="#9ba1ab"/><stop offset="1" stop-color="#767b82"/></linearGradient><linearGradient id="未命名的渐变_175-2" x1="10.04" y1="17.57" x2="14.2" y2="19.08" xlink:href="#未命名的渐变_175"/><linearGradient id="未命名的渐变_163" x1="18.09" y1="19.15" x2="22.22" y2="17.64" gradientUnits="userSpaceOnUse"><stop offset="0" stop-color="#767b82"/><stop offset="0.07" stop-color="#9ba1ab"/><stop offset="0.25" stop-color="#e2eaf2"/><stop offset="0.31" stop-color="#d1d8e0"/><stop offset="0.51" stop-color="#a1a7ae"/><stop offset="0.68" stop-color="#7e8489"/><stop offset="0.82" stop-color="#696e73"/><stop offset="0.91" stop-color="#61666b"/><stop offset="1" stop-color="#a9b1bb"/></linearGradient><linearGradient id="未命名的渐变_170" x1="16.17" y1="18.44" x2="16.17" y2="13.55" gradientUnits="userSpaceOnUse"><stop offset="0" stop-color="#767b82"/><stop offset="0.07" stop-color="#9ba1ab"/><stop offset="0.2" stop-color="#e2eaf2"/><stop offset="0.27" stop-color="#d1d8e0"/><stop offset="0.48" stop-color="#a1a7ae"/><stop offset="0.66" stop-color="#7e8489"/><stop offset="0.81" stop-color="#696e73"/><stop offset="0.91" stop-color="#61666b"/><stop offset="1" stop-color="#a9b1bb"/></linearGradient><linearGradient id="未命名的渐变_175-3" x1="9.08" y1="55.37" x2="13.22" y2="53.87" gradientTransform="matrix(1, 0, 0, -1, 0, 133.51)" xlink:href="#未命名的渐变_175"/><linearGradient id="未命名的渐变_185" x1="9.23" y1="83.73" x2="9.23" y2="78.85" gradientUnits="userSpaceOnUse"><stop offset="0" stop-color="#a9b1bb"/><stop offset="0.09" stop-color="#61666b"/><stop offset="0.15" stop-color="#696e73"/><stop offset="0.24" stop-color="#7e8489"/><stop offset="0.34" stop-color="#a1a7ae"/><stop offset="0.46" stop-color="#d1d8e0"/><stop offset="0.5" stop-color="#e2eaf2"/><stop offset="0.93" stop-color="#9ba1ab"/><stop offset="1" stop-color="#767b82"/></linearGradient><linearGradient id="未命名的渐变_163-2" x1="18.53" y1="48.64" x2="22.7" y2="48.64" xlink:href="#未命名的渐变_163"/><linearGradient id="未命名的渐变_175-4" x1="27.53" y1="48.64" x2="31.71" y2="48.64" xlink:href="#未命名的渐变_175"/><linearGradient id="未命名的渐变_175-5" x1="28.05" y1="17.57" x2="32.21" y2="19.08" xlink:href="#未命名的渐变_175"/><linearGradient id="未命名的渐变_163-3" x1="36.1" y1="19.15" x2="40.23" y2="17.64" xlink:href="#未命名的渐变_163"/><linearGradient id="未命名的渐变_170-2" x1="34.19" y1="18.44" x2="34.19" y2="13.55" xlink:href="#未命名的渐变_170"/><linearGradient id="未命名的渐变_189" x1="19.04" y1="53.79" x2="23.2" y2="55.31" gradientTransform="matrix(1, 0, 0, -1, 0, 133.51)" gradientUnits="userSpaceOnUse"><stop offset="0" stop-color="#767b82"/><stop offset="0.07" stop-color="#9ba1ab"/><stop offset="0.34" stop-color="#e2eaf2"/><stop offset="0.39" stop-color="#d1d8e0"/><stop offset="0.56" stop-color="#a1a7ae"/><stop offset="0.71" stop-color="#7e8489"/><stop offset="0.83" stop-color="#696e73"/><stop offset="0.91" stop-color="#61666b"/><stop offset="1" stop-color="#a9b1bb"/></linearGradient><linearGradient id="未命名的渐变_175-6" x1="27.09" y1="55.37" x2="31.23" y2="53.87" gradientTransform="matrix(1, 0, 0, -1, 0, 133.51)" xlink:href="#未命名的渐变_175"/><linearGradient id="未命名的渐变_185-2" x1="25.18" y1="54.67" x2="25.18" y2="49.78" gradientTransform="matrix(1, 0, 0, -1, 0, 133.51)" xlink:href="#未命名的渐变_185"/><linearGradient id="未命名的渐变_163-4" x1="36.54" y1="48.64" x2="40.72" y2="48.64" xlink:href="#未命名的渐变_163"/><linearGradient id="未命名的渐变_175-7" x1="45.55" y1="48.64" x2="49.72" y2="48.64" xlink:href="#未命名的渐变_175"/><linearGradient id="未命名的渐变_175-8" x1="46.06" y1="17.57" x2="50.22" y2="19.08" xlink:href="#未命名的渐变_175"/><linearGradient id="未命名的渐变_163-5" x1="54.11" y1="19.15" x2="58.25" y2="17.64" xlink:href="#未命名的渐变_163"/><linearGradient id="未命名的渐变_170-3" x1="52.2" y1="18.44" x2="52.2" y2="13.55" xlink:href="#未命名的渐变_170"/><linearGradient id="未命名的渐变_189-2" x1="37.06" y1="53.79" x2="41.22" y2="55.31" xlink:href="#未命名的渐变_189"/><linearGradient id="未命名的渐变_175-9" x1="45.1" y1="55.37" x2="49.24" y2="53.87" gradientTransform="matrix(1, 0, 0, -1, 0, 133.51)" xlink:href="#未命名的渐变_175"/><linearGradient id="未命名的渐变_185-3" x1="43.19" y1="54.67" x2="43.19" y2="49.78" gradientTransform="matrix(1, 0, 0, -1, 0, 133.51)" xlink:href="#未命名的渐变_185"/><linearGradient id="未命名的渐变_163-6" x1="54.54" y1="48.64" x2="58.71" y2="48.64" xlink:href="#未命名的渐变_163"/><linearGradient id="未命名的渐变_175-10" x1="63.54" y1="48.64" x2="67.72" y2="48.64" xlink:href="#未命名的渐变_175"/><linearGradient id="未命名的渐变_175-11" x1="64.06" y1="17.57" x2="68.22" y2="19.08" xlink:href="#未命名的渐变_175"/><linearGradient id="未命名的渐变_163-7" x1="72.11" y1="19.15" x2="76.24" y2="17.64" xlink:href="#未命名的渐变_163"/><linearGradient id="未命名的渐变_170-4" x1="70.2" y1="18.44" x2="70.2" y2="13.55" xlink:href="#未命名的渐变_170"/><linearGradient id="未命名的渐变_189-3" x1="55.05" y1="53.79" x2="59.21" y2="55.31" xlink:href="#未命名的渐变_189"/><linearGradient id="未命名的渐变_175-12" x1="63.1" y1="55.37" x2="67.24" y2="53.87" gradientTransform="matrix(1, 0, 0, -1, 0, 133.51)" xlink:href="#未命名的渐变_175"/><linearGradient id="未命名的渐变_185-4" x1="61.19" y1="54.67" x2="61.19" y2="49.78" gradientTransform="matrix(1, 0, 0, -1, 0, 133.51)" xlink:href="#未命名的渐变_185"/><linearGradient id="未命名的渐变_163-8" x1="72.64" y1="48.64" x2="76.82" y2="48.64" xlink:href="#未命名的渐变_163"/><linearGradient id="未命名的渐变_175-13" x1="81.65" y1="48.64" x2="85.83" y2="48.64" xlink:href="#未命名的渐变_175"/><linearGradient id="未命名的渐变_175-14" x1="82.17" y1="17.57" x2="86.33" y2="19.08" xlink:href="#未命名的渐变_175"/><linearGradient id="未命名的渐变_163-9" x1="90.21" y1="19.15" x2="94.35" y2="17.64" xlink:href="#未命名的渐变_163"/><linearGradient id="未命名的渐变_170-5" x1="88.3" y1="18.44" x2="88.3" y2="13.55" xlink:href="#未命名的渐变_170"/><linearGradient id="未命名的渐变_189-4" x1="73.16" y1="53.79" x2="77.32" y2="55.31" xlink:href="#未命名的渐变_189"/><linearGradient id="未命名的渐变_175-15" x1="81.21" y1="55.37" x2="85.34" y2="53.87" gradientTransform="matrix(1, 0, 0, -1, 0, 133.51)" xlink:href="#未命名的渐变_175"/><linearGradient id="未命名的渐变_185-5" x1="79.3" y1="54.67" x2="79.3" y2="49.78" gradientTransform="matrix(1, 0, 0, -1, 0, 133.51)" xlink:href="#未命名的渐变_185"/><linearGradient id="未命名的渐变_163-10" x1="90.72" y1="48.64" x2="94.9" y2="48.64" xlink:href="#未命名的渐变_163"/><linearGradient id="未命名的渐变_175-16" x1="99.73" y1="48.64" x2="103.9" y2="48.64" xlink:href="#未命名的渐变_175"/><linearGradient id="未命名的渐变_175-17" x1="100.24" y1="17.57" x2="104.4" y2="19.08" xlink:href="#未命名的渐变_175"/><linearGradient id="未命名的渐变_163-11" x1="108.29" y1="19.15" x2="112.43" y2="17.64" xlink:href="#未命名的渐变_163"/><linearGradient id="未命名的渐变_170-6" x1="106.38" y1="18.44" x2="106.38" y2="13.55" xlink:href="#未命名的渐变_170"/><linearGradient id="未命名的渐变_189-5" x1="91.24" y1="53.79" x2="95.4" y2="55.31" xlink:href="#未命名的渐变_189"/><linearGradient id="未命名的渐变_175-18" x1="99.28" y1="55.37" x2="103.42" y2="53.87" gradientTransform="matrix(1, 0, 0, -1, 0, 133.51)" xlink:href="#未命名的渐变_175"/><linearGradient id="未命名的渐变_185-6" x1="97.37" y1="54.67" x2="97.37" y2="49.78" gradientTransform="matrix(1, 0, 0, -1, 0, 133.51)" xlink:href="#未命名的渐变_185"/><linearGradient id="未命名的渐变_163-12" x1="108.8" y1="48.64" x2="112.97" y2="48.64" xlink:href="#未命名的渐变_163"/><linearGradient id="未命名的渐变_175-19" x1="117.8" y1="48.64" x2="121.98" y2="48.64" xlink:href="#未命名的渐变_175"/><linearGradient id="未命名的渐变_175-20" x1="118.32" y1="17.57" x2="122.48" y2="19.08" xlink:href="#未命名的渐变_175"/><linearGradient id="未命名的渐变_163-13" x1="126.36" y1="19.15" x2="130.5" y2="17.64" xlink:href="#未命名的渐变_163"/><linearGradient id="未命名的渐变_170-7" x1="124.45" y1="18.44" x2="124.45" y2="13.55" xlink:href="#未命名的渐变_170"/><linearGradient id="未命名的渐变_189-6" x1="109.31" y1="53.79" x2="113.47" y2="55.31" xlink:href="#未命名的渐变_189"/><linearGradient id="未命名的渐变_175-21" x1="117.36" y1="55.37" x2="121.49" y2="53.87" gradientTransform="matrix(1, 0, 0, -1, 0, 133.51)" xlink:href="#未命名的渐变_175"/><linearGradient id="未命名的渐变_185-7" x1="115.45" y1="54.67" x2="115.45" y2="49.78" gradientTransform="matrix(1, 0, 0, -1, 0, 133.51)" xlink:href="#未命名的渐变_185"/><linearGradient id="未命名的渐变_163-14" x1="126.83" y1="48.64" x2="131" y2="48.64" xlink:href="#未命名的渐变_163"/><linearGradient id="未命名的渐变_175-22" x1="135.83" y1="48.64" x2="140.01" y2="48.64" xlink:href="#未命名的渐变_175"/><linearGradient id="未命名的渐变_175-23" x1="136.35" y1="17.57" x2="140.51" y2="19.08" xlink:href="#未命名的渐变_175"/><linearGradient id="未命名的渐变_170-8" x1="140.61" y1="18.43" x2="140.61" y2="13.55" xlink:href="#未命名的渐变_170"/><linearGradient id="未命名的渐变_189-7" x1="127.34" y1="53.79" x2="131.5" y2="55.31" xlink:href="#未命名的渐变_189"/><linearGradient id="未命名的渐变_175-24" x1="135.39" y1="55.37" x2="139.53" y2="53.87" gradientTransform="matrix(1, 0, 0, -1, 0, 133.51)" xlink:href="#未命名的渐变_175"/><linearGradient id="未命名的渐变_185-8" x1="133.48" y1="54.67" x2="133.48" y2="49.78" gradientTransform="matrix(1, 0, 0, -1, 0, 133.51)" xlink:href="#未命名的渐变_185"/></defs><title>Condenser(冷凝旋管)</title><g id="图层_2" data-name="图层 2"><g id="图层_6" data-name="图层 6"><g id="Condenser_冷凝旋管_" data-name="Condenser(冷凝旋管)"><rect class="cls-1" width="150" height="97.28"/><rect class="cls-2" x="5.99" y="11.68" width="138.02" height="73.93"/><path class="cls-3" d="M143.51,12.17V85.11H6.49V12.17h137m.5-.5H6V85.61H144V11.67Z"/><rect class="cls-4" x="9.52" y="20.14" width="4.18" height="57.01"/><path class="cls-5" d="M13.7,20.14H9.52a6.64,6.64,0,0,1,2.05-4.78l2.88,3Z"/><path class="cls-6" d="M22.7,20.14H18.53l-.7-1.7,3-3A6.58,6.58,0,0,1,22.7,20.14Z"/><path class="cls-7" d="M17.82,18.44l-3.38-.05-2.87-3a6.57,6.57,0,0,1,9.21.13Z"/><path class="cls-8" d="M13.7,77.14H9.52l-.7,1.71,3,2.94A6.53,6.53,0,0,0,13.7,77.14Z"/><path class="cls-9" d="M11.77,81.78a6.5,6.5,0,0,1-4.67,2H6.69V78.88l2.13,0Z"/><rect class="cls-10" x="18.53" y="20.14" width="4.18" height="57.01"/><rect class="cls-11" x="27.53" y="20.14" width="4.18" height="57.01"/><path class="cls-12" d="M31.71,20.14H27.53a6.64,6.64,0,0,1,2-4.78l2.88,3Z"/><path class="cls-13" d="M40.72,20.14H36.54l-.7-1.7,3-3A6.54,6.54,0,0,1,40.72,20.14Z"/><path class="cls-14" d="M35.83,18.44l-3.37-.05-2.88-3a6.57,6.57,0,0,1,9.21.13Z"/><path class="cls-15" d="M22.7,77.14H18.53a6.6,6.6,0,0,0,2,4.78l2.88-3Z"/><path class="cls-16" d="M31.71,77.14H27.53l-.7,1.71,3,2.94A6.53,6.53,0,0,0,31.71,77.14Z"/><path class="cls-17" d="M26.83,78.84l-3.38,0-2.88,3a6.61,6.61,0,0,0,9.22-.13Z"/><rect class="cls-18" x="36.54" y="20.14" width="4.18" height="57.01"/><rect class="cls-19" x="45.55" y="20.14" width="4.18" height="57.01"/><path class="cls-20" d="M49.72,20.14H45.55a6.6,6.6,0,0,1,2.05-4.78l2.87,3Z"/><path class="cls-21" d="M58.73,20.14H54.55l-.7-1.7,3-3A6.54,6.54,0,0,1,58.73,20.14Z"/><path class="cls-22" d="M53.84,18.44l-3.37-.05-2.88-3a6.58,6.58,0,0,1,9.22.13Z"/><path class="cls-23" d="M40.72,77.14H36.54a6.64,6.64,0,0,0,2.05,4.78l2.88-3Z"/><path class="cls-24" d="M49.72,77.14H45.55l-.71,1.71,3,2.94A6.53,6.53,0,0,0,49.72,77.14Z"/><path class="cls-25" d="M44.84,78.84l-3.38,0-2.88,3a6.61,6.61,0,0,0,9.22-.13Z"/><rect class="cls-26" x="54.54" y="20.14" width="4.18" height="57.01"/><rect class="cls-27" x="63.54" y="20.14" width="4.18" height="57.01"/><path class="cls-28" d="M67.72,20.14H63.54a6.64,6.64,0,0,1,2.05-4.78l2.88,3Z"/><path class="cls-29" d="M76.73,20.14H72.55l-.7-1.7,3-3A6.54,6.54,0,0,1,76.73,20.14Z"/><path class="cls-30" d="M71.84,18.44l-3.37-.05-2.88-3a6.57,6.57,0,0,1,9.21.13Z"/><path class="cls-31" d="M58.71,77.14H54.54a6.6,6.6,0,0,0,2.05,4.78l2.88-3Z"/><path class="cls-32" d="M67.72,77.14H63.54l-.7,1.71,3,2.94A6.53,6.53,0,0,0,67.72,77.14Z"/><path class="cls-33" d="M62.84,78.84l-3.38,0-2.88,3a6.61,6.61,0,0,0,9.22-.13Z"/><rect class="cls-34" x="72.64" y="20.14" width="4.18" height="57.01"/><rect class="cls-35" x="81.65" y="20.14" width="4.18" height="57.01"/><path class="cls-36" d="M85.83,20.14H81.65a6.64,6.64,0,0,1,2-4.78l2.88,3Z"/><path class="cls-37" d="M94.83,20.14H90.66L90,18.44l3-3A6.58,6.58,0,0,1,94.83,20.14Z"/><path class="cls-38" d="M90,18.44l-3.38-.05-2.88-3a6.6,6.6,0,0,1,4.55-1.82,6.54,6.54,0,0,1,4.67,1.95Z"/><path class="cls-39" d="M76.82,77.14H72.64a6.64,6.64,0,0,0,2,4.78l2.88-3Z"/><path class="cls-40" d="M85.83,77.14H81.65L81,78.85l3,2.94A6.53,6.53,0,0,0,85.83,77.14Z"/><path class="cls-41" d="M80.94,78.84l-3.37,0-2.88,3a6.59,6.59,0,0,0,9.21-.13Z"/><rect class="cls-42" x="90.72" y="20.14" width="4.18" height="57.01"/><rect class="cls-43" x="99.73" y="20.14" width="4.18" height="57.01"/><path class="cls-44" d="M103.9,20.14H99.73a6.63,6.63,0,0,1,2-4.78l2.88,3Z"/><path class="cls-45" d="M112.91,20.14h-4.18l-.7-1.7,3-3A6.54,6.54,0,0,1,112.91,20.14Z"/><path class="cls-46" d="M108,18.44l-3.37-.05-2.88-3a6.57,6.57,0,0,1,9.21.13Z"/><path class="cls-47" d="M94.9,77.14H90.72a6.64,6.64,0,0,0,2,4.78l2.88-3Z"/><path class="cls-48" d="M103.9,77.14H99.73L99,78.85l3,2.94A6.53,6.53,0,0,0,103.9,77.14Z"/><path class="cls-49" d="M99,78.84l-3.38,0-2.88,3a6.61,6.61,0,0,0,9.22-.13Z"/><rect class="cls-50" x="108.8" y="20.14" width="4.18" height="57.01"/><rect class="cls-51" x="117.8" y="20.14" width="4.18" height="57.01"/><path class="cls-52" d="M122,20.14H117.8a6.64,6.64,0,0,1,2-4.78l2.88,3Z"/><path class="cls-53" d="M131,20.14h-4.17l-.7-1.7,3-3A6.58,6.58,0,0,1,131,20.14Z"/><path class="cls-54" d="M126.1,18.44l-3.38-.05-2.88-3a6.6,6.6,0,0,1,4.55-1.82,6.54,6.54,0,0,1,4.67,1.95Z"/><path class="cls-55" d="M113,77.14H108.8a6.63,6.63,0,0,0,2,4.78l2.88-3Z"/><path class="cls-56" d="M122,77.14H117.8l-.7,1.71,3,2.94A6.53,6.53,0,0,0,122,77.14Z"/><path class="cls-57" d="M117.09,78.84l-3.37,0-2.88,3a6.59,6.59,0,0,0,9.21-.13Z"/><rect class="cls-58" x="126.83" y="20.14" width="4.18" height="57.01"/><rect class="cls-59" x="135.83" y="20.14" width="4.18" height="57.01"/><path class="cls-60" d="M140,20.14h-4.18a6.64,6.64,0,0,1,2-4.78l2.88,3Z"/><path class="cls-61" d="M143.36,13.62v4.81l-2.61,0-2.86-3,0,0h0a6.53,6.53,0,0,1,4.53-1.81A7.3,7.3,0,0,1,143.36,13.62Z"/><path class="cls-62" d="M131,77.14h-4.17a6.63,6.63,0,0,0,2,4.78l2.88-3Z"/><path class="cls-63" d="M140,77.14h-4.18l-.7,1.71,3,2.94A6.53,6.53,0,0,0,140,77.14Z"/><path class="cls-64" d="M135.12,78.84l-3.37,0-2.88,3a6.59,6.59,0,0,0,9.21-.13Z"/></g></g></g></svg>