<svg xmlns="http://www.w3.org/2000/svg" xmlns:xlink="http://www.w3.org/1999/xlink" viewBox="0 0 149.91 100.44"><defs><style>.cls-1{fill:#dadbe0;}.cls-2{fill:#a0a0a0;}.cls-3{fill:url(#未命名的渐变_105);}.cls-4{opacity:0.2;}</style><linearGradient id="未命名的渐变_105" x1="40.78" y1="50.29" x2="109.93" y2="50.29" gradientUnits="userSpaceOnUse"><stop offset="0" stop-color="#e2e2e2"/><stop offset="0.03" stop-color="#d0d0d0"/><stop offset="0.06" stop-color="#bcbcbc"/><stop offset="0.09" stop-color="#b5b5b5"/><stop offset="0.49" stop-color="#f6f6f6"/><stop offset="0.63" stop-color="#f3f3f3"/><stop offset="0.73" stop-color="#eaeaea"/><stop offset="0.82" stop-color="#dbdbdb"/><stop offset="0.9" stop-color="#c6c6c6"/><stop offset="0.97" stop-color="#aaa"/><stop offset="1" stop-color="#9b9b9b"/></linearGradient></defs><title>Container（集装箱）</title><g id="图层_2" data-name="图层 2"><g id="图层_104" data-name="图层 104"><g id="Container_集装箱_" data-name="Container（集装箱）"><rect class="cls-1" width="149.91" height="100.44"/><rect class="cls-2" x="7.3" y="6.99" width="136.07" height="85.72"/><polygon class="cls-2" points="43.1 100.44 39.92 95.36 26.31 95.36 23.56 100.44 22.53 100.44 25.77 94.46 40.42 94.46 44.17 100.44 43.1 100.44"/><polygon class="cls-2" points="131.31 100.44 128.13 95.36 114.52 95.36 111.77 100.44 110.74 100.44 113.98 94.46 128.63 94.46 132.38 100.44 131.31 100.44"/><rect class="cls-1" x="9.26" y="8.33" width="133.15" height="82.64"/><rect class="cls-2" x="18.64" y="8.33" width="6.02" height="82.64"/><rect class="cls-2" x="39.59" y="8.33" width="6.02" height="82.64"/><rect class="cls-2" x="61.25" y="8.33" width="6.02" height="82.64"/><rect class="cls-2" x="82.9" y="8.33" width="6.02" height="82.64"/><rect class="cls-2" x="104.55" y="8.33" width="6.02" height="82.64"/><rect class="cls-2" x="126.21" y="8.33" width="6.02" height="82.64"/><rect class="cls-3" x="40.78" y="31.78" width="69.15" height="37.03"/><line class="cls-2" x1="7.93" y1="7.99"/><polygon class="cls-2" points="7.61 8.31 0 0.64 0 0 0.64 0 8.25 7.67 7.61 8.31"/><line class="cls-2" x1="7.93" y1="92.45" y2="100.44"/><polygon class="cls-2" points="7.61 91.82 0 99.8 0 100.44 0.64 100.44 8.25 92.45 7.61 91.82"/><line class="cls-2" x1="141.98" y1="8.01" x2="149.91" y2="0.02"/><polygon class="cls-2" points="142.74 8.52 149.91 0.66 149.91 0.02 149.27 0.02 142.09 7.89 142.74 8.52"/><line class="cls-2" x1="142.73" y1="8.52" x2="149.91" y2="0.66"/><polygon class="cls-2" points="143.13 91.75 149.91 99.8 149.91 100.44 149.27 100.44 142.49 92.38 143.13 91.75"/><line class="cls-2" x1="142.73" y1="91.94" x2="149.91" y2="99.8"/></g></g></g></svg>