<svg xmlns="http://www.w3.org/2000/svg" viewBox="0 0 129.86 150"><defs><style>.cls-1{fill:#b6e1f3;}.cls-2{fill:#d8e5ea;}.cls-3{fill:#97c05a;}.cls-4{opacity:0.2;}</style></defs><title>Container（容器）</title><g id="图层_2" data-name="图层 2"><g id="图层_125" data-name="图层 125"><g id="Container_容器_" data-name="Container（容器）"><path class="cls-1" d="M0,0H129.86a0,0,0,0,1,0,0V148.21a1.79,1.79,0,0,1-1.79,1.79H1.79A1.79,1.79,0,0,1,0,148.21V0A0,0,0,0,1,0,0Z"/><rect class="cls-2" x="4.23" width="120.99" height="138.98"/><path class="cls-3" d="M119.53,145.46H9.93a5.7,5.7,0,0,1-5.7-5.69V111s2.14-7.46,4-7.54c1,0,1.49,3.6,2.46,4,1.88.83,5.79-2.67,7.78-2.34,2.44.4,6.14,5.66,8.6,5.86,2,.17,5.59-3.8,7.64-3.68,2.9.16,7.49,6.76,10.37,6.37,1.93-.27,4.07-5.89,6-6,1.53-.11,3.65,3.93,5.18,4,1.91.12,4.92-4.09,6.83-4.19,2.31-.12,6.28,4.24,8.6,4.19s6.46-5,8.87-4.69c2.16.24,5.09,6.24,7.23,5.87,1.82-.32,2.94-7,4.78-6.87,1.25.07,1.7,4.47,2.87,5,1.49.72,4.67-1.77,6.27-1.67,2.08.13,5.85,2.88,7.92,3.18,3.89.57,15.63-1.51,15.63-1.51v28.76A5.7,5.7,0,0,1,119.53,145.46Z"/></g></g></g></svg>