<svg xmlns="http://www.w3.org/2000/svg" xmlns:xlink="http://www.w3.org/1999/xlink" viewBox="0 0 149.79 140.9"><defs><style>.cls-1{fill:url(#未命名的渐变_67);}.cls-2{fill:url(#未命名的渐变_105);}.cls-3{fill:url(#未命名的渐变_105-2);}.cls-4{fill:url(#未命名的渐变_67-2);}.cls-5{fill:url(#未命名的渐变_67-3);}.cls-6{fill:url(#未命名的渐变_67-4);}.cls-7{fill:url(#未命名的渐变_67-5);}.cls-8{fill:url(#未命名的渐变_67-6);}.cls-9{fill:url(#未命名的渐变_67-7);}.cls-10{fill:url(#未命名的渐变_67-8);}.cls-11{fill:url(#未命名的渐变_67-9);}.cls-12{opacity:0.2;}</style><linearGradient id="未命名的渐变_67" y1="39.14" x2="149.79" y2="39.14" gradientUnits="userSpaceOnUse"><stop offset="0" stop-color="#6b6b6b"/><stop offset="0.11" stop-color="#767676"/><stop offset="0.3" stop-color="#959595"/><stop offset="0.41" stop-color="#aaa"/><stop offset="0.56" stop-color="#ccc"/><stop offset="0.71" stop-color="#eaeaea"/><stop offset="0.8" stop-color="#f6f6f6"/><stop offset="0.83" stop-color="#ededed"/><stop offset="0.87" stop-color="#d4d4d4"/><stop offset="0.92" stop-color="#ababab"/><stop offset="0.98" stop-color="#737373"/><stop offset="0.99" stop-color="#666"/></linearGradient><linearGradient id="未命名的渐变_105" y1="18.64" x2="149.79" y2="18.64" gradientUnits="userSpaceOnUse"><stop offset="0" stop-color="#e2e2e2"/><stop offset="0.03" stop-color="#d0d0d0"/><stop offset="0.06" stop-color="#bcbcbc"/><stop offset="0.09" stop-color="#b5b5b5"/><stop offset="0.49" stop-color="#f6f6f6"/><stop offset="0.63" stop-color="#f3f3f3"/><stop offset="0.73" stop-color="#eaeaea"/><stop offset="0.82" stop-color="#dbdbdb"/><stop offset="0.9" stop-color="#c6c6c6"/><stop offset="0.97" stop-color="#aaa"/><stop offset="1" stop-color="#9b9b9b"/></linearGradient><linearGradient id="未命名的渐变_105-2" y1="89.09" x2="149.79" y2="89.09" xlink:href="#未命名的渐变_105"/><linearGradient id="未命名的渐变_67-2" y1="139.04" x2="149.79" y2="139.04" xlink:href="#未命名的渐变_67"/><linearGradient id="未命名的渐变_67-3" x1="72.85" y1="18.86" x2="76.45" y2="18.86" xlink:href="#未命名的渐变_67"/><linearGradient id="未命名的渐变_67-4" x1="75.11" y1="18.86" x2="111" y2="18.86" xlink:href="#未命名的渐变_67"/><linearGradient id="未命名的渐变_67-5" x1="38.76" y1="18.86" x2="74.65" y2="18.86" xlink:href="#未命名的渐变_67"/><linearGradient id="未命名的渐变_67-6" x1="12.04" y1="18.13" x2="137.16" y2="18.13" xlink:href="#未命名的渐变_67"/><linearGradient id="未命名的渐变_67-7" x1="31.86" y1="6.89" x2="117.12" y2="6.89" xlink:href="#未命名的渐变_67"/><linearGradient id="未命名的渐变_67-8" x1="75.11" y1="18.86" x2="142.11" y2="18.86" xlink:href="#未命名的渐变_67"/><linearGradient id="未命名的渐变_67-9" x1="7.65" y1="18.86" x2="74.65" y2="18.86" xlink:href="#未命名的渐变_67"/></defs><title>Covered dome tank(有盖拱顶罐)</title><g id="图层_2" data-name="图层 2"><g id="图层_125" data-name="图层 125"><g id="Covered_dome_tank_有盖拱顶罐_" data-name="Covered dome tank(有盖拱顶罐)"><rect class="cls-1" y="37.28" width="149.79" height="3.71"/><path class="cls-2" d="M149.79,37.28H0V33.56S18.12,0,74.89,0c55,0,74.9,33.56,74.9,33.56Z"/><rect class="cls-3" y="40.99" width="149.79" height="96.19"/><rect class="cls-4" y="137.19" width="149.79" height="3.71"/><polygon class="cls-5" points="76.45 37.28 72.85 37.28 75.11 0.45 76.45 37.28"/><path class="cls-6" d="M111,37.28h-3.6C99.63,22.43,75.11.45,75.11.45S102.18,16.9,111,37.28Z"/><path class="cls-7" d="M38.76,37.28h3.6C50.12,22.43,74.65.45,74.65.45S47.58,16.9,38.76,37.28Z"/><path class="cls-8" d="M12,20H137.16c-1.5-1.23-3.19-2.47-5-3.72H16.92C15.16,17.52,13.51,18.76,12,20Z"/><path class="cls-9" d="M31.86,8h85.26c-1.88-.8-3.89-1.55-6-2.26H37.85C35.77,6.47,33.75,7.22,31.86,8Z"/><path class="cls-10" d="M142.11,37.28h-4.62C117.87,14.36,75.11.45,75.11.45S114.88,6.73,142.11,37.28Z"/><path class="cls-11" d="M7.65,37.28h4.62C31.88,14.36,74.65.45,74.65.45S34.87,6.73,7.65,37.28Z"/></g></g></g></svg>