<svg xmlns="http://www.w3.org/2000/svg" xmlns:xlink="http://www.w3.org/1999/xlink" viewBox="0 0 150 150"><defs><style>.cls-1{fill:url(#未命名的渐变_117);}.cls-2{fill:url(#未命名的渐变_117-2);}.cls-3{fill:url(#未命名的渐变_117-3);}.cls-4{fill:url(#未命名的渐变_117-4);}.cls-5{fill:url(#未命名的渐变_117-5);}.cls-6{fill:url(#未命名的渐变_117-6);}.cls-7{fill:url(#未命名的渐变_117-7);}.cls-8{fill:url(#未命名的渐变_117-8);}.cls-9{fill:url(#未命名的渐变_173);}.cls-10{fill:url(#未命名的渐变_117-9);}.cls-11{fill:url(#未命名的渐变_117-10);}.cls-12{fill:url(#未命名的渐变_117-11);}.cls-13{fill:url(#未命名的渐变_173-2);}.cls-14{fill:url(#未命名的渐变_117-12);}.cls-15{fill:url(#未命名的渐变_117-13);}.cls-16{fill:url(#未命名的渐变_117-14);}.cls-17{fill:url(#未命名的渐变_173-3);}.cls-18{fill:url(#未命名的渐变_117-15);}.cls-19{fill:url(#未命名的渐变_117-16);}.cls-20{fill:url(#未命名的渐变_117-17);}.cls-21{fill:url(#未命名的渐变_173-4);}.cls-22{fill:url(#未命名的渐变_205);}.cls-23{fill:url(#未命名的渐变_173-5);}.cls-24{fill:url(#未命名的渐变_205-2);}.cls-25{fill:url(#未命名的渐变_117-18);}.cls-26{fill:url(#未命名的渐变_117-19);}.cls-27{fill:url(#未命名的渐变_117-20);}.cls-28{fill:url(#未命名的渐变_117-21);}.cls-29{fill:url(#未命名的渐变_117-22);}.cls-30{fill:url(#未命名的渐变_117-23);}.cls-31{fill:url(#未命名的渐变_117-24);}.cls-32{fill:url(#未命名的渐变_117-25);}.cls-33{fill:url(#未命名的渐变_121);}.cls-34{fill:url(#未命名的渐变_121-2);}.cls-35,.cls-36,.cls-51,.cls-52{opacity:0.1;}.cls-35{fill:url(#未命名的渐变_291);}.cls-36{fill:url(#未命名的渐变_292);}.cls-37{fill:url(#未命名的渐变_121-3);}.cls-38{fill:url(#未命名的渐变_121-4);}.cls-39{fill:url(#未命名的渐变_205-3);}.cls-40{fill:url(#未命名的渐变_205-4);}.cls-41{fill:url(#未命名的渐变_205-5);}.cls-42{fill:url(#未命名的渐变_205-6);}.cls-43{fill:url(#未命名的渐变_121-5);}.cls-44{fill:url(#未命名的渐变_121-6);}.cls-45{fill:url(#未命名的渐变_121-7);}.cls-46{fill:url(#未命名的渐变_117-26);}.cls-47{fill:url(#未命名的渐变_117-27);}.cls-48{fill:url(#未命名的渐变_117-28);}.cls-49{fill:url(#未命名的渐变_121-8);}.cls-50{fill:url(#未命名的渐变_121-9);}.cls-51{fill:url(#未命名的渐变_291-2);}.cls-52{fill:url(#未命名的渐变_292-2);}.cls-53{fill:url(#未命名的渐变_121-10);}.cls-54{fill:url(#未命名的渐变_121-11);}.cls-55{fill:url(#未命名的渐变_205-7);}.cls-56{fill:url(#未命名的渐变_173-6);}.cls-57{fill:url(#未命名的渐变_205-8);}.cls-58{fill:#252628;}.cls-59{fill:url(#未命名的渐变_6);}.cls-60{fill:url(#未命名的渐变_205-9);}.cls-61{fill:url(#未命名的渐变_173-7);}.cls-62{fill:url(#未命名的渐变_205-10);}.cls-63{fill:url(#未命名的渐变_6-2);}.cls-64,.cls-66,.cls-75,.cls-79,.cls-84,.cls-88{stroke-miterlimit:10;}.cls-64{stroke-width:0.29px;fill:url(#未命名的渐变_2);stroke:url(#未命名的渐变_124);}.cls-65{fill:url(#未命名的渐变_6-3);}.cls-66{fill:#5d646c;stroke:#b4bcc5;stroke-width:0.5px;}.cls-67{fill:#cfd5db;}.cls-68{fill:#a63c27;}.cls-69{fill:#a8afb5;}.cls-70{fill:url(#未命名的渐变_173-8);}.cls-71{fill:url(#未命名的渐变_121-12);}.cls-72{fill:url(#未命名的渐变_117-29);}.cls-73{fill:url(#未命名的渐变_117-30);}.cls-74{fill:url(#未命名的渐变_117-31);}.cls-75,.cls-79,.cls-84,.cls-88{fill:#313233;stroke-width:0.25px;}.cls-75{stroke:url(#未命名的渐变_12);}.cls-76{fill:url(#未命名的渐变_14);}.cls-77{fill:url(#未命名的渐变_117-32);}.cls-78{fill:url(#未命名的渐变_117-33);}.cls-79{stroke:url(#未命名的渐变_12-2);}.cls-80{fill:url(#未命名的渐变_14-2);}.cls-81{fill:url(#未命名的渐变_117-34);}.cls-82{fill:url(#未命名的渐变_117-35);}.cls-83{fill:url(#未命名的渐变_117-36);}.cls-84{stroke:url(#未命名的渐变_12-3);}.cls-85{fill:url(#未命名的渐变_14-3);}.cls-86{fill:url(#未命名的渐变_117-37);}.cls-87{fill:url(#未命名的渐变_117-38);}.cls-88{stroke:url(#未命名的渐变_12-4);}.cls-89{fill:url(#未命名的渐变_14-4);}.cls-90{fill:#d3441e;}.cls-91{fill:url(#未命名的渐变_240);}.cls-92{fill:#d3a91e;}.cls-93{fill:url(#未命名的渐变_240-2);}.cls-94{fill:#0979ba;}.cls-95{fill:url(#未命名的渐变_240-3);}.cls-96{fill:url(#未命名的渐变_240-4);}.cls-97{fill:url(#未命名的渐变_240-5);}.cls-98{fill:url(#未命名的渐变_240-6);}.cls-99{opacity:0.2;}</style><linearGradient id="未命名的渐变_117" x1="189.56" y1="172.98" x2="189.56" y2="171.94" gradientTransform="matrix(1, 0, 0, 0.64, -156.72, 27.29)" gradientUnits="userSpaceOnUse"><stop offset="0" stop-color="#7a8088"/><stop offset="0.09" stop-color="#2d2f33"/><stop offset="0.16" stop-color="#35373b"/><stop offset="0.27" stop-color="#4a4d51"/><stop offset="0.41" stop-color="#6d7176"/><stop offset="0.56" stop-color="#9da3a8"/><stop offset="0.62" stop-color="#b0b7bc"/><stop offset="0.93" stop-color="#6d7177"/><stop offset="1" stop-color="#5c6067"/></linearGradient><linearGradient id="未命名的渐变_117-2" x1="189.56" y1="147.82" x2="189.56" y2="146.78" gradientTransform="matrix(1, 0, 0, 0.64, -140.64, 43.38)" xlink:href="#未命名的渐变_117"/><linearGradient id="未命名的渐变_117-3" x1="189.56" y1="115.5" x2="189.56" y2="114.46" gradientTransform="matrix(1, 0, 0, 0.64, -119.98, 64.03)" xlink:href="#未命名的渐变_117"/><linearGradient id="未命名的渐变_117-4" x1="189.56" y1="84.73" x2="189.56" y2="83.69" gradientTransform="matrix(1, 0, 0, 0.64, -100.32, 83.7)" xlink:href="#未命名的渐变_117"/><linearGradient id="未命名的渐变_117-5" x1="187.49" y1="116.67" x2="187.49" y2="115.63" gradientTransform="matrix(1, 0, 0, 2.14, -118.82, -117.65)" xlink:href="#未命名的渐变_117"/><linearGradient id="未命名的渐变_117-6" x1="36.75" y1="132.16" x2="40.93" y2="132.16" gradientTransform="matrix(1, 0, 0, 1, 0, 0)" xlink:href="#未命名的渐变_117"/><linearGradient id="未命名的渐变_117-7" x1="35.34" y1="116.7" x2="42.34" y2="116.7" gradientTransform="matrix(1, 0, 0, 1, 0, 0)" xlink:href="#未命名的渐变_117"/><linearGradient id="未命名的渐变_117-8" x1="34.08" y1="111.5" x2="43.6" y2="111.5" gradientTransform="matrix(1, 0, 0, 1, 0, 0)" xlink:href="#未命名的渐变_117"/><linearGradient id="未命名的渐变_173" x1="-1034.77" y1="677.31" x2="-1032.72" y2="677.31" gradientTransform="translate(1072.59 -533.15)" gradientUnits="userSpaceOnUse"><stop offset="0" stop-color="#767b82"/><stop offset="0.01" stop-color="#5c6066"/><stop offset="0.88" stop-color="#7a7d80"/><stop offset="0.94" stop-color="#767b82"/><stop offset="1" stop-color="#b9c0cc"/></linearGradient><linearGradient id="未命名的渐变_117-9" x1="56.91" y1="132.16" x2="61.09" y2="132.16" gradientTransform="matrix(1, 0, 0, 1, 0, 0)" xlink:href="#未命名的渐变_117"/><linearGradient id="未命名的渐变_117-10" x1="55.5" y1="116.7" x2="62.5" y2="116.7" gradientTransform="matrix(1, 0, 0, 1, 0, 0)" xlink:href="#未命名的渐变_117"/><linearGradient id="未命名的渐变_117-11" x1="54.24" y1="111.5" x2="63.76" y2="111.5" gradientTransform="matrix(1, 0, 0, 1, 0, 0)" xlink:href="#未命名的渐变_117"/><linearGradient id="未命名的渐变_173-2" x1="-1034.77" y1="697.47" x2="-1032.72" y2="697.47" gradientTransform="translate(1092.75 -553.31)" xlink:href="#未命名的渐变_173"/><linearGradient id="未命名的渐变_117-12" x1="77.07" y1="132.16" x2="81.25" y2="132.16" gradientTransform="matrix(1, 0, 0, 1, 0, 0)" xlink:href="#未命名的渐变_117"/><linearGradient id="未命名的渐变_117-13" x1="75.66" y1="116.7" x2="82.66" y2="116.7" gradientTransform="matrix(1, 0, 0, 1, 0, 0)" xlink:href="#未命名的渐变_117"/><linearGradient id="未命名的渐变_117-14" x1="74.4" y1="111.5" x2="83.92" y2="111.5" gradientTransform="matrix(1, 0, 0, 1, 0, 0)" xlink:href="#未命名的渐变_117"/><linearGradient id="未命名的渐变_173-3" x1="-1034.77" y1="717.63" x2="-1032.72" y2="717.63" gradientTransform="translate(1112.91 -573.47)" xlink:href="#未命名的渐变_173"/><linearGradient id="未命名的渐变_117-15" x1="97.23" y1="132.16" x2="101.41" y2="132.16" gradientTransform="matrix(1, 0, 0, 1, 0, 0)" xlink:href="#未命名的渐变_117"/><linearGradient id="未命名的渐变_117-16" x1="95.82" y1="116.7" x2="102.82" y2="116.7" gradientTransform="matrix(1, 0, 0, 1, 0, 0)" xlink:href="#未命名的渐变_117"/><linearGradient id="未命名的渐变_117-17" x1="94.56" y1="111.5" x2="104.08" y2="111.5" gradientTransform="matrix(1, 0, 0, 1, 0, 0)" xlink:href="#未命名的渐变_117"/><linearGradient id="未命名的渐变_173-4" x1="-1034.77" y1="737.79" x2="-1032.72" y2="737.79" gradientTransform="translate(1133.07 -593.63)" xlink:href="#未命名的渐变_173"/><linearGradient id="未命名的渐变_205" x1="-875.29" y1="778.46" x2="-872.9" y2="778.46" gradientTransform="translate(944.74 -664.62)" gradientUnits="userSpaceOnUse"><stop offset="0" stop-color="#767b82"/><stop offset="0.02" stop-color="#9ba1ab"/><stop offset="0.98" stop-color="#9ba1ab"/><stop offset="0.99" stop-color="#d7dce0"/><stop offset="1" stop-color="#767b82"/></linearGradient><linearGradient id="未命名的渐变_173-5" x1="-872.9" y1="778.46" x2="-870.52" y2="778.46" gradientTransform="translate(942.35 -662.24)" xlink:href="#未命名的渐变_173"/><linearGradient id="未命名的渐变_205-2" x1="-842.74" y1="778.46" x2="-837.93" y2="778.46" gradientTransform="translate(910.98 -630.86)" xlink:href="#未命名的渐变_205"/><linearGradient id="未命名的渐变_117-18" x1="146.17" y1="74.35" x2="146.17" y2="72.96" gradientTransform="matrix(1, 0, 0, 1, 0, 0)" xlink:href="#未命名的渐变_117"/><linearGradient id="未命名的渐变_117-19" x1="146.17" y1="51.25" x2="146.17" y2="49.86" gradientTransform="matrix(1, 0, 0, 1, 0, 0)" xlink:href="#未命名的渐变_117"/><linearGradient id="未命名的渐变_117-20" x1="128.3" y1="43.85" x2="128.3" y2="42.46" gradientTransform="matrix(1, 0, 0, 1, 0, 0)" xlink:href="#未命名的渐变_117"/><linearGradient id="未命名的渐变_117-21" x1="138.8" y1="47.52" x2="138.8" y2="46.13" gradientTransform="translate(4.24 0.03)" xlink:href="#未命名的渐变_117"/><linearGradient id="未命名的渐变_117-22" x1="138.8" y1="77" x2="138.8" y2="75.61" gradientTransform="translate(-25.24 -29.45)" xlink:href="#未命名的渐变_117"/><linearGradient id="未命名的渐变_117-23" x1="135.99" y1="59.32" x2="135.99" y2="57.93" gradientTransform="translate(13.31 3.48)" xlink:href="#未命名的渐变_117"/><linearGradient id="未命名的渐变_117-24" x1="148.2" y1="18.34" x2="148.2" y2="16.95" gradientTransform="matrix(1, 0, 0, -1, -91.94, 35.3)" xlink:href="#未命名的渐变_117"/><linearGradient id="未命名的渐变_117-25" x1="108.05" y1="57.29" x2="108.05" y2="55.9" gradientTransform="matrix(1, 0, 0, -1, -54.91, 90.76)" xlink:href="#未命名的渐变_117"/><linearGradient id="未命名的渐变_121" x1="75.57" y1="38.64" x2="75.57" y2="33.58" gradientTransform="translate(107.06 -42.94) rotate(90)" gradientUnits="userSpaceOnUse"><stop offset="0" stop-color="#a9b1bb"/><stop offset="0.09" stop-color="#61666b"/><stop offset="0.18" stop-color="#696e73"/><stop offset="0.32" stop-color="#7e8489"/><stop offset="0.49" stop-color="#a1a7ae"/><stop offset="0.69" stop-color="#d1d8e0"/><stop offset="0.75" stop-color="#e2eaf2"/><stop offset="0.93" stop-color="#9ba1ab"/><stop offset="1" stop-color="#767b82"/></linearGradient><linearGradient id="未命名的渐变_121-2" x1="117.68" y1="84.74" x2="117.68" y2="59.7" gradientTransform="translate(-46.75 -53.27)" xlink:href="#未命名的渐变_121"/><linearGradient id="未命名的渐变_291" x1="100.85" y1="72.22" x2="105.32" y2="72.22" gradientTransform="translate(-32.16 -67.87)" gradientUnits="userSpaceOnUse"><stop offset="0" stop-color="#2e3033"/><stop offset="1" stop-color="#878d93" stop-opacity="0"/></linearGradient><linearGradient id="未命名的渐变_292" x1="130.04" y1="72.22" x2="134.51" y2="72.22" gradientTransform="translate(-61.35 -38.68)" gradientUnits="userSpaceOnUse"><stop offset="0" stop-color="#878d93" stop-opacity="0"/><stop offset="1" stop-color="#2e3033"/></linearGradient><linearGradient id="未命名的渐变_121-3" x1="106.27" y1="75.35" x2="95.43" y2="69.09" gradientTransform="translate(143.15 -98.73) rotate(90)" xlink:href="#未命名的渐变_121"/><linearGradient id="未命名的渐变_121-4" x1="132.28" y1="75.35" x2="121.44" y2="69.09" gradientTransform="matrix(0, -1, -1, 0, 143.15, 162.64)" xlink:href="#未命名的渐变_121"/><linearGradient id="未命名的渐变_205-3" x1="-990.79" y1="660.25" x2="-988.63" y2="660.25" gradientTransform="translate(1047.17 -620.06)" xlink:href="#未命名的渐变_205"/><linearGradient id="未命名的渐变_205-4" x1="-992.34" y1="673.74" x2="-987.07" y2="673.74" gradientTransform="translate(1047.17 -620.06)" xlink:href="#未命名的渐变_205"/><linearGradient id="未命名的渐变_205-5" x1="-963.65" y1="660.25" x2="-961.49" y2="660.25" gradientTransform="translate(1047.17 -620.06)" xlink:href="#未命名的渐变_205"/><linearGradient id="未命名的渐变_205-6" x1="-965.21" y1="673.74" x2="-959.94" y2="673.74" gradientTransform="translate(1047.17 -620.06)" xlink:href="#未命名的渐变_205"/><linearGradient id="未命名的渐变_121-5" x1="70.96" y1="100.62" x2="70.96" y2="46.7" gradientTransform="matrix(1, 0, 0, 1, 0, 0)" xlink:href="#未命名的渐变_121"/><linearGradient id="未命名的渐变_121-6" x1="142.25" y1="75.05" x2="142.25" y2="72.27" gradientTransform="matrix(1, 0, 0, 1, 0, 0)" xlink:href="#未命名的渐变_121"/><linearGradient id="未命名的渐变_121-7" x1="144.62" y1="75.78" x2="144.62" y2="71.53" gradientTransform="matrix(1, 0, 0, 1, 0, 0)" xlink:href="#未命名的渐变_121"/><linearGradient id="未命名的渐变_117-26" x1="146.17" y1="56.08" x2="146.17" y2="54.69" gradientTransform="matrix(1, 0, 0, -1, 0, 139.88)" xlink:href="#未命名的渐变_117"/><linearGradient id="未命名的渐变_117-27" x1="134.76" y1="24.25" x2="134.76" y2="22.86" gradientTransform="matrix(1, 0, 0, -1, 0, 139.88)" xlink:href="#未命名的渐变_117"/><linearGradient id="未命名的渐变_117-28" x1="113.35" y1="59.32" x2="113.35" y2="57.93" gradientTransform="matrix(1, 0, 0, -1, 35.95, 159.04)" xlink:href="#未命名的渐变_117"/><linearGradient id="未命名的渐变_121-8" x1="142.25" y1="56.78" x2="142.25" y2="54" gradientTransform="matrix(1, 0, 0, -1, 0, 139.88)" xlink:href="#未命名的渐变_121"/><linearGradient id="未命名的渐变_121-9" x1="144.62" y1="57.51" x2="144.62" y2="53.26" gradientTransform="matrix(1, 0, 0, -1, 0, 139.88)" xlink:href="#未命名的渐变_121"/><linearGradient id="未命名的渐变_291-2" x1="7.95" y1="73.66" x2="24.67" y2="73.66" gradientTransform="matrix(1, 0, 0, 1, 0, 0)" xlink:href="#未命名的渐变_291"/><linearGradient id="未命名的渐变_292-2" x1="117.25" y1="73.66" x2="133.97" y2="73.66" gradientTransform="matrix(1, 0, 0, 1, 0, 0)" xlink:href="#未命名的渐变_292"/><linearGradient id="未命名的渐变_121-10" x1="19.62" y1="80.4" x2="-4.14" y2="66.68" gradientTransform="matrix(1, 0, 0, 1, 0, 0)" xlink:href="#未命名的渐变_121"/><linearGradient id="未命名的渐变_121-11" x1="139.07" y1="80.4" x2="115.31" y2="66.68" gradientTransform="matrix(-1, 0, 0, 1, 261.37, 0)" xlink:href="#未命名的渐变_121"/><linearGradient id="未命名的渐变_205-7" x1="-1029.83" y1="742.54" x2="-1023.82" y2="742.54" gradientTransform="translate(1047.17 -620.06)" xlink:href="#未命名的渐变_205"/><linearGradient id="未命名的渐变_173-6" x1="-1039.58" y1="658.82" x2="-1038.56" y2="658.82" gradientTransform="translate(1059.41 -509.33)" xlink:href="#未命名的渐变_173"/><linearGradient id="未命名的渐变_205-8" x1="-1037.86" y1="747.15" x2="-1019.47" y2="747.15" gradientTransform="translate(1047.17 -620.06)" xlink:href="#未命名的渐变_205"/><linearGradient id="未命名的渐变_6" x1="19.48" y1="133.2" x2="15" y2="128.71" gradientUnits="userSpaceOnUse"><stop offset="0" stop-color="#e8f0fd" stop-opacity="0"/><stop offset="0.16" stop-color="#e8f0fd" stop-opacity="0.01"/><stop offset="0.29" stop-color="#e8f0fd" stop-opacity="0.05"/><stop offset="0.41" stop-color="#e9f0fd" stop-opacity="0.12"/><stop offset="0.53" stop-color="#e9f1fd" stop-opacity="0.21"/><stop offset="0.63" stop-color="#eaf1fe" stop-opacity="0.33"/><stop offset="0.74" stop-color="#ebf1fe" stop-opacity="0.48"/><stop offset="0.84" stop-color="#ecf2fe" stop-opacity="0.66"/><stop offset="0.94" stop-color="#edf3ff" stop-opacity="0.85"/><stop offset="1" stop-color="#eef3ff"/></linearGradient><linearGradient id="未命名的渐变_205-9" x1="-929.23" y1="742.54" x2="-923.22" y2="742.54" gradientTransform="translate(1047.17 -620.06)" xlink:href="#未命名的渐变_205"/><linearGradient id="未命名的渐变_173-7" x1="-1039.58" y1="759.42" x2="-1038.56" y2="759.42" gradientTransform="translate(1160.01 -609.93)" xlink:href="#未命名的渐变_173"/><linearGradient id="未命名的渐变_205-10" x1="-937.26" y1="747.15" x2="-918.87" y2="747.15" gradientTransform="translate(1047.17 -620.06)" xlink:href="#未命名的渐变_205"/><linearGradient id="未命名的渐变_6-2" x1="120.08" y1="133.2" x2="115.6" y2="128.71" xlink:href="#未命名的渐变_6"/><linearGradient id="未命名的渐变_2" x1="75.68" y1="9.15" x2="66.38" y2="18.45" gradientUnits="userSpaceOnUse"><stop offset="0" stop-color="#d7dce0"/><stop offset="1" stop-color="#737880"/></linearGradient><linearGradient id="未命名的渐变_124" x1="71.03" y1="20.53" x2="71.03" y2="7.08" gradientUnits="userSpaceOnUse"><stop offset="0" stop-color="#5c6066"/><stop offset="1" stop-color="#f5faff"/></linearGradient><linearGradient id="未命名的渐变_6-3" x1="71.57" y1="31.43" x2="69.04" y2="28.9" xlink:href="#未命名的渐变_6"/><linearGradient id="未命名的渐变_173-8" x1="-887.31" y1="778.46" x2="-884.97" y2="778.46" gradientTransform="translate(956.78 -676.67)" xlink:href="#未命名的渐变_173"/><linearGradient id="未命名的渐变_121-12" x1="66.69" y1="41.44" x2="75.19" y2="41.44" gradientTransform="matrix(1, 0, 0, 1, 0, 0)" xlink:href="#未命名的渐变_121"/><linearGradient id="未命名的渐变_117-29" x1="149.56" y1="42.99" x2="149.56" y2="41.6" gradientTransform="matrix(1, 0, 0, -1, -110.72, 117.97)" xlink:href="#未命名的渐变_117"/><linearGradient id="未命名的渐变_117-30" x1="40.54" y1="57.33" x2="40.54" y2="56.13" gradientTransform="matrix(1, 0, 0, 1, 0, 0)" xlink:href="#未命名的渐变_117"/><linearGradient id="未命名的渐变_117-31" x1="60.63" y1="36.7" x2="60.63" y2="35.49" gradientTransform="translate(-19.02 19.16)" xlink:href="#未命名的渐变_117"/><linearGradient id="未命名的渐变_12" x1="38.67" y1="59.41" x2="38.67" y2="55.26" gradientUnits="userSpaceOnUse"><stop offset="0" stop-color="#5c6066"/><stop offset="1" stop-color="#939699"/></linearGradient><linearGradient id="未命名的渐变_14" x1="40.43" y1="53.79" x2="42.78" y2="53.79" gradientUnits="userSpaceOnUse"><stop offset="0" stop-color="#5c6067"/><stop offset="0.07" stop-color="#6d7177"/><stop offset="0.38" stop-color="#b0b7bc"/><stop offset="0.44" stop-color="#9da3a8"/><stop offset="0.59" stop-color="#6d7176"/><stop offset="0.73" stop-color="#4a4d51"/><stop offset="0.84" stop-color="#35373b"/><stop offset="0.91" stop-color="#2d2f33"/><stop offset="1" stop-color="#7a8088"/></linearGradient><linearGradient id="未命名的渐变_117-32" x1="40.54" y1="91.57" x2="40.54" y2="90.37" gradientTransform="matrix(1, 0, 0, 1, 0, 0)" xlink:href="#未命名的渐变_117"/><linearGradient id="未命名的渐变_117-33" x1="94.87" y1="36.7" x2="94.87" y2="35.49" gradientTransform="translate(-53.26 53.4)" xlink:href="#未命名的渐变_117"/><linearGradient id="未命名的渐变_12-2" x1="38.67" y1="93.65" x2="38.67" y2="89.5" xlink:href="#未命名的渐变_12"/><linearGradient id="未命名的渐变_14-2" x1="40.43" y1="88.03" x2="42.78" y2="88.03" xlink:href="#未命名的渐变_14"/><linearGradient id="未命名的渐变_117-34" x1="149.56" y1="103.48" x2="149.56" y2="102.09" gradientTransform="matrix(1, 0, 0, -1, -50.24, 178.46)" xlink:href="#未命名的渐变_117"/><linearGradient id="未命名的渐变_117-35" x1="101.03" y1="57.33" x2="101.03" y2="56.13" gradientTransform="matrix(1, 0, 0, 1, 0, 0)" xlink:href="#未命名的渐变_117"/><linearGradient id="未命名的渐变_117-36" x1="60.63" y1="-23.79" x2="60.63" y2="-24.99" gradientTransform="translate(41.46 79.65)" xlink:href="#未命名的渐变_117"/><linearGradient id="未命名的渐变_12-3" x1="99.15" y1="59.41" x2="99.15" y2="55.26" xlink:href="#未命名的渐变_12"/><linearGradient id="未命名的渐变_14-3" x1="100.92" y1="53.79" x2="103.27" y2="53.79" xlink:href="#未命名的渐变_14"/><linearGradient id="未命名的渐变_117-37" x1="101.03" y1="91.57" x2="101.03" y2="90.37" gradientTransform="matrix(1, 0, 0, 1, 0, 0)" xlink:href="#未命名的渐变_117"/><linearGradient id="未命名的渐变_117-38" x1="94.87" y1="-23.79" x2="94.87" y2="-24.99" gradientTransform="translate(7.23 113.88)" xlink:href="#未命名的渐变_117"/><linearGradient id="未命名的渐变_12-4" x1="99.15" y1="93.65" x2="99.15" y2="89.5" xlink:href="#未命名的渐变_12"/><linearGradient id="未命名的渐变_14-4" x1="100.92" y1="88.03" x2="103.27" y2="88.03" xlink:href="#未命名的渐变_14"/><linearGradient id="未命名的渐变_240" x1="15.61" y1="120.67" x2="15.61" y2="118.76" gradientUnits="userSpaceOnUse"><stop offset="0" stop-color="#17181a"/><stop offset="1" stop-color="#929699"/></linearGradient><linearGradient id="未命名的渐变_240-2" x1="18.51" y1="120.67" x2="18.51" y2="118.76" xlink:href="#未命名的渐变_240"/><linearGradient id="未命名的渐变_240-3" x1="21.41" y1="120.67" x2="21.41" y2="118.76" xlink:href="#未命名的渐变_240"/><linearGradient id="未命名的渐变_240-4" x1="116.04" y1="120.67" x2="116.04" y2="118.76" xlink:href="#未命名的渐变_240"/><linearGradient id="未命名的渐变_240-5" x1="118.94" y1="120.67" x2="118.94" y2="118.76" xlink:href="#未命名的渐变_240"/><linearGradient id="未命名的渐变_240-6" x1="121.84" y1="120.67" x2="121.84" y2="118.76" xlink:href="#未命名的渐变_240"/></defs><title>Deaerator 1(除氧器1)</title><g id="图层_2" data-name="图层 2"><g id="图层_6" data-name="图层 6"><g id="Deaerator_1_除氧器1_" data-name="Deaerator 1(除氧器1)"><rect class="cls-1" x="24.87" y="137.19" width="15.94" height="0.66" rx="0.33" transform="translate(170.35 104.68) rotate(90)"/><rect class="cls-2" x="40.95" y="137.19" width="15.94" height="0.66" rx="0.33" transform="translate(186.44 88.6) rotate(90)"/><rect class="cls-3" x="61.61" y="137.19" width="15.94" height="0.66" rx="0.33" transform="translate(207.09 67.94) rotate(90)"/><rect class="cls-4" x="81.27" y="137.19" width="15.94" height="0.66" rx="0.33" transform="translate(226.75 48.28) rotate(90)"/><rect class="cls-5" x="32.17" y="129.55" width="73" height="2.22" rx="1.08"/><rect class="cls-6" x="36.75" y="121.17" width="4.18" height="21.97"/><rect class="cls-7" x="35.34" y="110.91" width="7.01" height="11.57"/><rect class="cls-8" x="34.08" y="110.18" width="9.53" height="2.64"/><rect class="cls-9" x="37.81" y="139.96" width="2.05" height="8.42" transform="matrix(0, -1, 1, 0, -105.33, 183.01)"/><rect class="cls-10" x="56.91" y="121.17" width="4.18" height="21.97"/><rect class="cls-11" x="55.5" y="110.91" width="7.01" height="11.57"/><rect class="cls-12" x="54.24" y="110.18" width="9.53" height="2.64"/><rect class="cls-13" x="57.97" y="139.96" width="2.05" height="8.42" transform="matrix(0, -1, 1, 0, -85.17, 203.17)"/><rect class="cls-14" x="77.07" y="121.17" width="4.18" height="21.97"/><rect class="cls-15" x="75.66" y="110.91" width="7.01" height="11.57"/><rect class="cls-16" x="74.4" y="110.18" width="9.53" height="2.64"/><rect class="cls-17" x="78.13" y="139.96" width="2.05" height="8.42" transform="matrix(0, -1, 1, 0, -65.01, 223.33)"/><rect class="cls-18" x="97.23" y="121.17" width="4.18" height="21.97"/><rect class="cls-19" x="95.82" y="110.91" width="7.01" height="11.57"/><rect class="cls-20" x="94.56" y="110.18" width="9.53" height="2.64"/><rect class="cls-21" x="98.29" y="139.96" width="2.05" height="8.42" transform="matrix(0, -1, 1, 0, -44.85, 243.49)"/><rect class="cls-22" x="69.45" y="66.54" width="2.39" height="94.59" transform="translate(184.47 43.19) rotate(90)"/><rect class="cls-23" x="69.45" y="68.92" width="2.39" height="94.59" transform="translate(186.86 45.58) rotate(90)"/><rect class="cls-24" x="68.24" y="100.3" width="4.81" height="94.59" transform="translate(218.24 76.95) rotate(90)"/><rect class="cls-25" x="142.35" y="72.96" width="7.65" height="1.39" rx="0.64"/><rect class="cls-26" x="142.35" y="49.86" width="7.65" height="1.39" rx="0.64"/><path class="cls-27" d="M143,43.85H114c-.61,0-1.1-.31-1.1-.69h0c0-.39.49-.7,1.1-.7H143a.7.7,0,0,1,.7.7h0A.69.69,0,0,1,143,43.85Z"/><rect class="cls-28" x="138.65" y="46.16" width="8.79" height="1.39" rx="0.64" transform="translate(189.9 -96.19) rotate(90)"/><rect class="cls-29" x="109.17" y="46.16" width="8.79" height="1.39" rx="0.64" transform="translate(160.42 -66.7) rotate(90)"/><rect class="cls-30" x="137.06" y="61.41" width="24.49" height="1.39" rx="0.62" transform="translate(211.41 -87.2) rotate(90)"/><rect class="cls-31" x="52.44" y="16.95" width="7.65" height="1.39" rx="0.64" transform="translate(112.54 35.3) rotate(180)"/><rect class="cls-32" x="35.92" y="33.47" width="34.43" height="1.39" rx="0.69" transform="translate(87.31 -18.97) rotate(90)"/><path class="cls-33" d="M68.43,50.35V12.09h5.06V50.35s-.81,2.83-2.53,2.83S68.43,50.35,68.43,50.35Z"/><rect class="cls-34" x="54.1" y="6.43" width="33.66" height="25.04" transform="translate(89.88 -51.97) rotate(90)"/><rect class="cls-35" x="68.69" y="-8.16" width="4.46" height="25.04" transform="translate(75.28 -66.57) rotate(90)"/><rect class="cls-36" x="68.69" y="21.03" width="4.46" height="25.04" transform="translate(104.47 -37.38) rotate(90)"/><path class="cls-37" d="M58.41,2.12S61.9,0,70.93,0,83.44,2.12,83.44,2.12Z"/><path class="cls-38" d="M58.41,35.78S61.9,37.9,70.93,37.9s12.51-2.12,12.51-2.12Z"/><rect class="cls-39" x="56.38" y="25.67" width="2.16" height="29.06"/><rect class="cls-40" x="54.83" y="51.38" width="5.26" height="4.61"/><rect class="cls-41" x="83.52" y="25.67" width="2.16" height="29.06"/><rect class="cls-42" x="81.96" y="51.38" width="5.26" height="4.61"/><rect class="cls-43" x="7.95" y="46.7" width="126.02" height="53.92"/><rect class="cls-44" x="139.55" y="72.27" width="5.39" height="2.78"/><rect class="cls-45" x="144.3" y="71.53" width="0.64" height="4.25"/><rect class="cls-46" x="142.35" y="83.8" width="7.65" height="1.39" rx="0.64"/><rect class="cls-47" x="119.52" y="115.63" width="30.48" height="1.39" rx="0.64"/><rect class="cls-48" x="132.69" y="99.72" width="33.22" height="1.39" rx="0.69" transform="translate(48.89 249.72) rotate(-90)"/><rect class="cls-49" x="139.55" y="83.11" width="5.39" height="2.78"/><rect class="cls-50" x="144.3" y="82.37" width="0.64" height="4.25"/><rect class="cls-51" x="7.95" y="46.7" width="16.72" height="53.92"/><rect class="cls-52" x="117.25" y="46.7" width="16.72" height="53.92"/><path class="cls-53" d="M8,100.62S0,93.09,0,73.66s8-27,8-27Z"/><path class="cls-54" d="M134,100.62s7.95-7.53,7.95-27-7.95-27-7.95-27Z"/><rect class="cls-55" x="17.33" y="95.99" width="6.01" height="52.99"/><rect class="cls-56" x="19.83" y="144.1" width="1.02" height="10.77" transform="translate(-129.15 169.83) rotate(-90)"/><rect class="cls-57" x="9.31" y="112.64" width="18.39" height="28.9"/><rect class="cls-58" x="15.98" y="127.74" width="5.06" height="8.96"/><polygon class="cls-59" points="21.04 127.74 15.98 127.74 15.98 136.7 21.04 127.74"/><rect class="cls-60" x="117.94" y="95.99" width="6.01" height="52.99"/><rect class="cls-61" x="120.43" y="144.1" width="1.02" height="10.77" transform="translate(-28.55 270.43) rotate(-90)"/><rect class="cls-62" x="109.91" y="112.64" width="18.39" height="28.9"/><rect class="cls-58" x="116.58" y="127.74" width="5.06" height="8.96"/><polygon class="cls-63" points="121.64 127.74 116.58 127.74 116.58 136.7 121.64 127.74"/><circle class="cls-64" cx="71.03" cy="13.8" r="6.58"/><rect class="cls-58" x="68.43" y="29.51" width="5.06" height="2.62"/><polygon class="cls-65" points="73.49 29.51 68.43 29.51 68.43 32.13 73.49 29.51"/><circle class="cls-66" cx="66.87" cy="25.65" r="1.37"/><circle class="cls-67" cx="66.87" cy="25.65" r="1.11"/><polygon class="cls-68" points="67.52 25.01 66.25 26.07 66.46 26.28 67.52 25.01"/><circle class="cls-69" cx="66.87" cy="25.65" r="0.18"/><circle class="cls-66" cx="75.19" cy="25.65" r="1.37"/><circle class="cls-67" cx="75.19" cy="25.65" r="1.11"/><polygon class="cls-68" points="75.84 25.01 74.57 26.07 74.78 26.28 75.84 25.01"/><circle class="cls-69" cx="75.19" cy="25.65" r="0.18"/><circle class="cls-66" cx="55.46" cy="81" r="1.37"/><circle class="cls-67" cx="55.46" cy="81" r="1.11"/><polygon class="cls-68" points="56.11 80.37 54.84 81.43 55.05 81.64 56.11 80.37"/><circle class="cls-69" cx="55.46" cy="81" r="0.18"/><circle class="cls-66" cx="86.6" cy="81" r="1.37"/><circle class="cls-67" cx="86.6" cy="81" r="1.11"/><polygon class="cls-68" points="87.25 80.37 85.98 81.43 86.19 81.64 87.25 80.37"/><circle class="cls-69" cx="86.6" cy="81" r="0.18"/><rect class="cls-70" x="69.47" y="54.49" width="2.34" height="94.59" transform="translate(172.43 31.15) rotate(90)"/><rect class="cls-71" x="66.69" y="40.2" width="8.5" height="2.49"/><path class="cls-72" d="M5,75H73.34a0,0,0,0,1,0,0v1.39a0,0,0,0,1,0,0H5a.69.69,0,0,1-.69-.69v0A.69.69,0,0,1,5,75Z" transform="translate(114.52 36.84) rotate(90)"/><rect class="cls-73" x="38.88" y="56.13" width="3.33" height="1.2" rx="0.59"/><rect class="cls-74" x="39.53" y="54.65" width="4.16" height="1.2" rx="0.6" transform="translate(96.86 13.65) rotate(90)"/><circle class="cls-75" cx="38.67" cy="57.33" r="1.95"/><rect class="cls-76" x="40.43" y="53.18" width="2.35" height="1.23"/><rect class="cls-77" x="38.88" y="90.37" width="3.33" height="1.2" rx="0.59"/><rect class="cls-78" x="39.53" y="88.89" width="4.16" height="1.2" rx="0.6" transform="translate(131.1 47.89) rotate(90)"/><circle class="cls-79" cx="38.67" cy="91.57" r="1.95"/><rect class="cls-80" x="40.43" y="87.41" width="2.35" height="1.23"/><path class="cls-81" d="M65.52,75h68.31a0,0,0,0,1,0,0v1.39a0,0,0,0,1,0,0H65.52a.69.69,0,0,1-.69-.69v0a.69.69,0,0,1,.69-.69Z" transform="translate(175 -23.65) rotate(90)"/><rect class="cls-82" x="99.36" y="56.13" width="3.33" height="1.2" rx="0.59"/><rect class="cls-83" x="100.01" y="54.65" width="4.16" height="1.2" rx="0.6" transform="translate(157.35 -46.84) rotate(90)"/><circle class="cls-84" cx="99.15" cy="57.33" r="1.95"/><rect class="cls-85" x="100.92" y="53.18" width="2.35" height="1.23"/><rect class="cls-86" x="99.36" y="90.37" width="3.33" height="1.2" rx="0.59"/><rect class="cls-87" x="100.01" y="88.89" width="4.16" height="1.2" rx="0.6" transform="translate(191.58 -12.6) rotate(90)"/><circle class="cls-88" cx="99.15" cy="91.57" r="1.95"/><rect class="cls-89" x="100.92" y="87.41" width="2.35" height="1.23"/><circle class="cls-90" cx="15.61" cy="119.71" r="0.95"/><path class="cls-91" d="M15.61,119a.7.7,0,0,1,.7.7.71.71,0,1,1-.7-.7m0-.25a1,1,0,1,0,.95.95,1,1,0,0,0-.95-.95Z"/><circle class="cls-92" cx="18.51" cy="119.71" r="0.95"/><path class="cls-93" d="M18.51,119a.7.7,0,0,1,.7.7.71.71,0,1,1-.7-.7m0-.25a1,1,0,1,0,.95.95,1,1,0,0,0-.95-.95Z"/><circle class="cls-94" cx="21.41" cy="119.71" r="0.95"/><path class="cls-95" d="M21.41,119a.7.7,0,0,1,.7.7.71.71,0,1,1-.7-.7m0-.25a1,1,0,1,0,.95.95,1,1,0,0,0-.95-.95Z"/><circle class="cls-90" cx="116.04" cy="119.71" r="0.95"/><path class="cls-96" d="M116,119a.7.7,0,0,1,.7.7.71.71,0,1,1-.7-.7m0-.25a1,1,0,1,0,.95.95,1,1,0,0,0-.95-.95Z"/><circle class="cls-92" cx="118.94" cy="119.71" r="0.95"/><path class="cls-97" d="M118.94,119a.7.7,0,0,1,.7.7.71.71,0,1,1-.7-.7m0-.25a1,1,0,1,0,1,.95,1,1,0,0,0-1-.95Z"/><circle class="cls-94" cx="121.84" cy="119.71" r="0.95"/><path class="cls-98" d="M121.84,119a.7.7,0,0,1,.7.7.71.71,0,1,1-.7-.7m0-.25a1,1,0,1,0,1,.95,1,1,0,0,0-1-.95Z"/>
</g></g></g></svg>