<svg xmlns="http://www.w3.org/2000/svg" xmlns:xlink="http://www.w3.org/1999/xlink" viewBox="0 0 147.85 150"><defs><style>.cls-1{fill:#d7d7d7;}.cls-2{fill:#555252;}.cls-3{fill:url(#未命名的渐变_105);}.cls-4{fill:url(#未命名的渐变_105-2);}.cls-5{fill:url(#未命名的渐变_105-3);}.cls-6{fill:#cecece;}.cls-7{fill:#c8c8c8;}.cls-8{fill:#b5b5b5;}.cls-9{fill:url(#未命名的渐变_143);}.cls-10{fill:url(#未命名的渐变_143-2);}.cls-11{fill:url(#未命名的渐变_143-3);}.cls-12{fill:url(#未命名的渐变_143-4);}.cls-13{fill:url(#未命名的渐变_143-5);}.cls-14{fill:url(#未命名的渐变_143-6);}.cls-15{fill:url(#未命名的渐变_143-7);}.cls-16{fill:url(#未命名的渐变_143-8);}.cls-17{fill:url(#未命名的渐变_105-4);}.cls-18{fill:url(#未命名的渐变_105-5);}.cls-19{fill:url(#未命名的渐变_105-6);}.cls-20{fill:url(#未命名的渐变_74);}.cls-21{fill:url(#未命名的渐变_74-2);}.cls-22{fill:#595757;}.cls-23{fill:#d2d2d2;}.cls-24{fill:url(#未命名的渐变_105-7);}.cls-25{fill:url(#未命名的渐变_105-8);}.cls-26{fill:url(#未命名的渐变_105-9);}.cls-27{fill:url(#未命名的渐变_143-9);}.cls-28{fill:url(#未命名的渐变_105-10);}.cls-29{fill:url(#未命名的渐变_105-11);}.cls-30{fill:url(#未命名的渐变_105-12);}.cls-31{fill:url(#未命名的渐变_143-10);}.cls-32{fill:url(#未命名的渐变_105-13);}.cls-33{fill:url(#未命名的渐变_105-14);}.cls-34{fill:url(#未命名的渐变_143-11);}.cls-35{fill:url(#未命名的渐变_105-15);}.cls-36{fill:url(#未命名的渐变_105-16);}.cls-37{fill:url(#未命名的渐变_105-17);}.cls-38{fill:url(#未命名的渐变_105-18);}.cls-39{fill:url(#未命名的渐变_105-19);}.cls-40{fill:url(#未命名的渐变_105-20);}.cls-41{fill:url(#未命名的渐变_143-12);}.cls-42{fill:#faf8f8;}.cls-43{fill:#a95e63;}.cls-44{fill:#69bdc0;}.cls-45{fill:url(#未命名的渐变_74-3);}.cls-46{fill:url(#未命名的渐变_105-21);}.cls-47{fill:url(#未命名的渐变_105-22);}.cls-48{fill:url(#未命名的渐变_105-23);}.cls-49{fill:url(#未命名的渐变_105-24);}.cls-50{fill:url(#未命名的渐变_105-25);}.cls-51{fill:url(#未命名的渐变_105-26);}.cls-52{fill:url(#未命名的渐变_105-27);}.cls-53{fill:url(#未命名的渐变_105-28);}.cls-54{fill:url(#未命名的渐变_105-29);}.cls-55{fill:url(#未命名的渐变_105-30);}.cls-56{fill:url(#未命名的渐变_105-31);}.cls-57{fill:url(#未命名的渐变_143-13);}.cls-58{fill:url(#未命名的渐变_105-32);}.cls-59{fill:url(#未命名的渐变_105-33);}.cls-60{fill:url(#未命名的渐变_105-34);}.cls-61{fill:url(#未命名的渐变_143-14);}.cls-62{fill:url(#未命名的渐变_105-35);}.cls-63{fill:url(#未命名的渐变_105-36);}.cls-64{fill:url(#未命名的渐变_143-15);}.cls-65{fill:url(#未命名的渐变_105-37);}.cls-66{fill:url(#未命名的渐变_105-38);}.cls-67{fill:url(#未命名的渐变_105-39);}.cls-68{fill:url(#未命名的渐变_105-40);}.cls-69{fill:url(#未命名的渐变_105-41);}.cls-70{fill:url(#未命名的渐变_105-42);}.cls-71{fill:url(#未命名的渐变_143-16);}.cls-72{fill:url(#未命名的渐变_105-43);}.cls-73{fill:url(#未命名的渐变_105-44);}.cls-74{fill:url(#未命名的渐变_143-17);}.cls-75{fill:url(#未命名的渐变_105-45);}.cls-76{fill:url(#未命名的渐变_105-46);}.cls-77{fill:url(#未命名的渐变_105-47);}.cls-78{fill:url(#未命名的渐变_143-18);}.cls-79{fill:url(#未命名的渐变_105-48);}.cls-80{fill:url(#未命名的渐变_105-49);}.cls-81{fill:url(#未命名的渐变_143-19);}.cls-82{fill:url(#未命名的渐变_105-50);}.cls-83{fill:url(#未命名的渐变_105-51);}.cls-84{fill:url(#未命名的渐变_105-52);}.cls-85{fill:url(#未命名的渐变_105-53);}.cls-86{fill:url(#未命名的渐变_105-54);}.cls-87{fill:url(#未命名的渐变_105-55);}.cls-88{fill:url(#未命名的渐变_143-20);}.cls-89{fill:url(#未命名的渐变_105-56);}.cls-90{fill:url(#未命名的渐变_143-21);}.cls-91{fill:url(#未命名的渐变_143-22);}.cls-92{opacity:0.2;}</style><linearGradient id="未命名的渐变_105" x1="45.8" y1="1732.56" x2="45.8" y2="1728.57" gradientTransform="matrix(1, 0, 0, -1, 34.53, 1748.12)" gradientUnits="userSpaceOnUse"><stop offset="0" stop-color="#e2e2e2"/><stop offset="0.03" stop-color="#d0d0d0"/><stop offset="0.06" stop-color="#bcbcbc"/><stop offset="0.09" stop-color="#b5b5b5"/><stop offset="0.49" stop-color="#f6f6f6"/><stop offset="0.63" stop-color="#f3f3f3"/><stop offset="0.73" stop-color="#eaeaea"/><stop offset="0.82" stop-color="#dbdbdb"/><stop offset="0.9" stop-color="#c6c6c6"/><stop offset="0.97" stop-color="#aaa"/><stop offset="1" stop-color="#9b9b9b"/></linearGradient><linearGradient id="未命名的渐变_105-2" x1="82.88" y1="18.33" x2="101.6" y2="18.33" gradientTransform="matrix(1, 0, 0, 1, 0, 0)" xlink:href="#未命名的渐变_105"/><linearGradient id="未命名的渐变_105-3" x1="33.07" y1="49.66" x2="76.6" y2="49.66" gradientTransform="matrix(1, 0, 0, 1, 0, 0)" xlink:href="#未命名的渐变_105"/><linearGradient id="未命名的渐变_143" x1="54.26" y1="19.74" x2="55.48" y2="19.74" gradientUnits="userSpaceOnUse"><stop offset="0" stop-color="#b7b7b7"/><stop offset="0.03" stop-color="#9b9d9d"/><stop offset="0.07" stop-color="#878b8b"/><stop offset="0.09" stop-color="#808484"/><stop offset="0.2" stop-color="#a3a6a6"/><stop offset="0.49" stop-color="#f6f6f6"/><stop offset="0.61" stop-color="#f3f3f3"/><stop offset="0.7" stop-color="#eaeaea"/><stop offset="0.77" stop-color="#dbdbdb"/><stop offset="0.83" stop-color="#c5c5c5"/><stop offset="0.9" stop-color="#aaa"/><stop offset="0.95" stop-color="#888"/><stop offset="1" stop-color="#666"/></linearGradient><linearGradient id="未命名的渐变_143-2" x1="58.52" y1="21.35" x2="59.74" y2="21.35" xlink:href="#未命名的渐变_143"/><linearGradient id="未命名的渐变_143-3" x1="60.53" y1="26.19" x2="61.75" y2="26.19" xlink:href="#未命名的渐变_143"/><linearGradient id="未命名的渐变_143-4" x1="58.52" y1="31.07" x2="59.74" y2="31.07" xlink:href="#未命名的渐变_143"/><linearGradient id="未命名的渐变_143-5" x1="54.26" y1="32.63" x2="55.48" y2="32.63" xlink:href="#未命名的渐变_143"/><linearGradient id="未命名的渐变_143-6" x1="49.95" y1="30.79" x2="51.17" y2="30.79" xlink:href="#未命名的渐变_143"/><linearGradient id="未命名的渐变_143-7" x1="47.71" y1="26.19" x2="48.93" y2="26.19" xlink:href="#未命名的渐变_143"/><linearGradient id="未命名的渐变_143-8" x1="49.81" y1="21.47" x2="51.03" y2="21.47" xlink:href="#未命名的渐变_143"/><linearGradient id="未命名的渐变_105-4" x1="6.46" y1="147.15" x2="8.44" y2="147.15" gradientTransform="matrix(1, 0, 0, 1, 0, 0)" xlink:href="#未命名的渐变_105"/><linearGradient id="未命名的渐变_105-5" x1="140" y1="147.15" x2="141.98" y2="147.15" gradientTransform="matrix(1, 0, 0, 1, 0, 0)" xlink:href="#未命名的渐变_105"/><linearGradient id="未命名的渐变_105-6" x1="81.92" y1="1729.96" x2="86.4" y2="1729.96" xlink:href="#未命名的渐变_105"/><linearGradient id="未命名的渐变_74" x1="101.3" y1="52.28" x2="146.32" y2="52.28" gradientUnits="userSpaceOnUse"><stop offset="0" stop-color="#6b6b6b"/><stop offset="0.01" stop-color="#767676"/><stop offset="0.03" stop-color="#959595"/><stop offset="0.04" stop-color="#aaa"/><stop offset="0.37" stop-color="#ccc"/><stop offset="0.74" stop-color="#eaeaea"/><stop offset="0.94" stop-color="#f6f6f6"/><stop offset="0.95" stop-color="#ededed"/><stop offset="0.96" stop-color="#d4d4d4"/><stop offset="0.97" stop-color="#ababab"/><stop offset="0.99" stop-color="#737373"/><stop offset="0.99" stop-color="#666"/></linearGradient><linearGradient id="未命名的渐变_74-2" x1="64" y1="51.09" x2="64" y2="45.69" xlink:href="#未命名的渐变_74"/><linearGradient id="未命名的渐变_105-7" x1="101.3" y1="29.26" x2="146.32" y2="29.26" gradientTransform="matrix(1, 0, 0, 1, 0, 0)" xlink:href="#未命名的渐变_105"/><linearGradient id="未命名的渐变_105-8" x1="35.76" y1="34.71" x2="36.9" y2="34.71" gradientTransform="matrix(1, 0, 0, 1, 0, 0)" xlink:href="#未命名的渐变_105"/><linearGradient id="未命名的渐变_105-9" x1="61.29" y1="34.85" x2="62.43" y2="34.85" gradientTransform="matrix(1, 0, 0, 1, 0, 0)" xlink:href="#未命名的渐变_105"/><linearGradient id="未命名的渐变_143-9" x1="37.97" y1="36.66" x2="60.21" y2="36.66" xlink:href="#未命名的渐变_143"/><linearGradient id="未命名的渐变_105-10" x1="54.91" y1="34.85" x2="56.06" y2="34.85" gradientTransform="matrix(1, 0, 0, 1, 0, 0)" xlink:href="#未命名的渐变_105"/><linearGradient id="未命名的渐变_105-11" x1="48.81" y1="34.78" x2="49.95" y2="34.78" gradientTransform="matrix(1, 0, 0, 1, 0, 0)" xlink:href="#未命名的渐变_105"/><linearGradient id="未命名的渐变_105-12" x1="42.28" y1="34.75" x2="43.43" y2="34.75" gradientTransform="matrix(1, 0, 0, 1, 0, 0)" xlink:href="#未命名的渐变_105"/><linearGradient id="未命名的渐变_143-10" x1="37.97" y1="83.63" x2="60.21" y2="83.63" xlink:href="#未命名的渐变_143"/><linearGradient id="未命名的渐变_105-13" x1="37.97" y1="60.33" x2="60.21" y2="60.33" gradientTransform="matrix(1, 0, 0, 1, 0, 0)" xlink:href="#未命名的渐变_105"/><linearGradient id="未命名的渐变_105-14" x1="35.33" y1="34.67" x2="63.26" y2="34.67" gradientTransform="matrix(1, 0, 0, 1, 0, 0)" xlink:href="#未命名的渐变_105"/><linearGradient id="未命名的渐变_143-11" x1="35.33" y1="34.75" x2="63.17" y2="34.75" xlink:href="#未命名的渐变_143"/><linearGradient id="未命名的渐变_105-15" x1="35.82" y1="85.44" x2="36.97" y2="85.44" gradientTransform="matrix(1, 0, 0, 1, 0, 0)" xlink:href="#未命名的渐变_105"/><linearGradient id="未命名的渐变_105-16" x1="61.35" y1="85.58" x2="62.5" y2="85.58" gradientTransform="matrix(1, 0, 0, 1, 0, 0)" xlink:href="#未命名的渐变_105"/><linearGradient id="未命名的渐变_105-17" x1="54.98" y1="85.58" x2="56.12" y2="85.58" gradientTransform="matrix(1, 0, 0, 1, 0, 0)" xlink:href="#未命名的渐变_105"/><linearGradient id="未命名的渐变_105-18" x1="48.87" y1="85.51" x2="50.02" y2="85.51" gradientTransform="matrix(1, 0, 0, 1, 0, 0)" xlink:href="#未命名的渐变_105"/><linearGradient id="未命名的渐变_105-19" x1="42.35" y1="85.47" x2="43.49" y2="85.47" gradientTransform="matrix(1, 0, 0, 1, 0, 0)" xlink:href="#未命名的渐变_105"/><linearGradient id="未命名的渐变_105-20" x1="35.39" y1="85.4" x2="63.32" y2="85.4" gradientTransform="matrix(1, 0, 0, 1, 0, 0)" xlink:href="#未命名的渐变_105"/><linearGradient id="未命名的渐变_143-12" x1="35.39" y1="85.47" x2="63.23" y2="85.47" xlink:href="#未命名的渐变_143"/><linearGradient id="未命名的渐变_74-3" x1="0" y1="114.23" x2="147.85" y2="114.23" xlink:href="#未命名的渐变_74"/><linearGradient id="未命名的渐变_105-21" x1="0" y1="140.64" x2="147.85" y2="140.64" gradientTransform="matrix(1, 0, 0, 1, 0, 0)" xlink:href="#未命名的渐变_105"/><linearGradient id="未命名的渐变_105-22" x1="-474.87" y1="1617.8" x2="-470.73" y2="1613.65" gradientTransform="matrix(1, 0, 0, -1, 539.99, 1685.79)" xlink:href="#未命名的渐变_105"/><linearGradient id="未命名的渐变_105-23" x1="-583.59" y1="1681.55" x2="-583.59" y2="1677.57" gradientTransform="translate(655.65 -1610.99)" xlink:href="#未命名的渐变_105"/><linearGradient id="未命名的渐变_105-24" x1="-579.96" y1="1668.42" x2="-575.48" y2="1668.42" gradientTransform="translate(643.92 -1588.71)" xlink:href="#未命名的渐变_105"/><linearGradient id="未命名的渐变_105-25" x1="-524.16" y1="1670.42" x2="-520.01" y2="1666.27" gradientTransform="matrix(1, 0, 0, -1, 539.99, 1685.79)" xlink:href="#未命名的渐变_105"/><linearGradient id="未命名的渐变_105-26" x1="-538.33" y1="1734.18" x2="-538.33" y2="1730.19" gradientTransform="translate(565.14 -1716.25)" xlink:href="#未命名的渐变_105"/><linearGradient id="未命名的渐变_105-27" x1="-530.68" y1="1721.04" x2="-526.2" y2="1721.04" gradientTransform="translate(545.35 -1693.96)" xlink:href="#未命名的渐变_105"/><linearGradient id="未命名的渐变_105-28" x1="-1136.75" y1="1679.34" x2="-1132.61" y2="1675.19" gradientTransform="translate(-1016.99 1685.79) rotate(180)" xlink:href="#未命名的渐变_105"/><linearGradient id="未命名的渐变_105-29" x1="73.8" y1="1743.09" x2="73.8" y2="1739.11" xlink:href="#未命名的渐变_105"/><linearGradient id="未命名的渐变_105-30" x1="69.44" y1="34.89" x2="70.58" y2="34.89" gradientTransform="matrix(1, 0, 0, 1, 0, 0)" xlink:href="#未命名的渐变_105"/><linearGradient id="未命名的渐变_105-31" x1="94.97" y1="35.04" x2="96.11" y2="35.04" gradientTransform="matrix(1, 0, 0, 1, 0, 0)" xlink:href="#未命名的渐变_105"/><linearGradient id="未命名的渐变_143-13" x1="71.65" y1="36.84" x2="93.89" y2="36.84" xlink:href="#未命名的渐变_143"/><linearGradient id="未命名的渐变_105-32" x1="88.59" y1="35.04" x2="89.74" y2="35.04" gradientTransform="matrix(1, 0, 0, 1, 0, 0)" xlink:href="#未命名的渐变_105"/><linearGradient id="未命名的渐变_105-33" x1="82.49" y1="34.97" x2="83.63" y2="34.97" gradientTransform="matrix(1, 0, 0, 1, 0, 0)" xlink:href="#未命名的渐变_105"/><linearGradient id="未命名的渐变_105-34" x1="75.96" y1="34.93" x2="77.11" y2="34.93" gradientTransform="matrix(1, 0, 0, 1, 0, 0)" xlink:href="#未命名的渐变_105"/><linearGradient id="未命名的渐变_143-14" x1="71.65" y1="83.82" x2="93.89" y2="83.82" xlink:href="#未命名的渐变_143"/><linearGradient id="未命名的渐变_105-35" x1="71.65" y1="60.51" x2="93.89" y2="60.51" gradientTransform="matrix(1, 0, 0, 1, 0, 0)" xlink:href="#未命名的渐变_105"/><linearGradient id="未命名的渐变_105-36" x1="69.01" y1="34.86" x2="96.94" y2="34.86" gradientTransform="matrix(1, 0, 0, 1, 0, 0)" xlink:href="#未命名的渐变_105"/><linearGradient id="未命名的渐变_143-15" x1="69.01" y1="34.93" x2="96.85" y2="34.93" xlink:href="#未命名的渐变_143"/><linearGradient id="未命名的渐变_105-37" x1="69.5" y1="85.62" x2="70.65" y2="85.62" gradientTransform="matrix(1, 0, 0, 1, 0, 0)" xlink:href="#未命名的渐变_105"/><linearGradient id="未命名的渐变_105-38" x1="95.03" y1="85.76" x2="96.18" y2="85.76" gradientTransform="matrix(1, 0, 0, 1, 0, 0)" xlink:href="#未命名的渐变_105"/><linearGradient id="未命名的渐变_105-39" x1="88.66" y1="85.76" x2="89.8" y2="85.76" gradientTransform="matrix(1, 0, 0, 1, 0, 0)" xlink:href="#未命名的渐变_105"/><linearGradient id="未命名的渐变_105-40" x1="82.55" y1="85.69" x2="83.7" y2="85.69" gradientTransform="matrix(1, 0, 0, 1, 0, 0)" xlink:href="#未命名的渐变_105"/><linearGradient id="未命名的渐变_105-41" x1="76.03" y1="85.66" x2="77.17" y2="85.66" gradientTransform="matrix(1, 0, 0, 1, 0, 0)" xlink:href="#未命名的渐变_105"/><linearGradient id="未命名的渐变_105-42" x1="69.08" y1="85.58" x2="97" y2="85.58" gradientTransform="matrix(1, 0, 0, 1, 0, 0)" xlink:href="#未命名的渐变_105"/><linearGradient id="未命名的渐变_143-16" x1="69.08" y1="85.66" x2="96.92" y2="85.66" xlink:href="#未命名的渐变_143"/><linearGradient id="未命名的渐变_105-43" x1="1.7" y1="34.71" x2="2.85" y2="34.71" gradientTransform="matrix(1, 0, 0, 1, 0, 0)" xlink:href="#未命名的渐变_105"/><linearGradient id="未命名的渐变_105-44" x1="27.23" y1="34.85" x2="28.38" y2="34.85" gradientTransform="matrix(1, 0, 0, 1, 0, 0)" xlink:href="#未命名的渐变_105"/><linearGradient id="未命名的渐变_143-17" x1="3.92" y1="36.66" x2="26.16" y2="36.66" xlink:href="#未命名的渐变_143"/><linearGradient id="未命名的渐变_105-45" x1="20.86" y1="34.85" x2="22" y2="34.85" gradientTransform="matrix(1, 0, 0, 1, 0, 0)" xlink:href="#未命名的渐变_105"/><linearGradient id="未命名的渐变_105-46" x1="14.75" y1="34.78" x2="15.9" y2="34.78" gradientTransform="matrix(1, 0, 0, 1, 0, 0)" xlink:href="#未命名的渐变_105"/><linearGradient id="未命名的渐变_105-47" x1="8.23" y1="34.75" x2="9.37" y2="34.75" gradientTransform="matrix(1, 0, 0, 1, 0, 0)" xlink:href="#未命名的渐变_105"/><linearGradient id="未命名的渐变_143-18" x1="3.92" y1="83.63" x2="26.16" y2="83.63" xlink:href="#未命名的渐变_143"/><linearGradient id="未命名的渐变_105-48" x1="3.92" y1="60.33" x2="26.16" y2="60.33" gradientTransform="matrix(1, 0, 0, 1, 0, 0)" xlink:href="#未命名的渐变_105"/><linearGradient id="未命名的渐变_105-49" x1="1.28" y1="34.67" x2="29.2" y2="34.67" gradientTransform="matrix(1, 0, 0, 1, 0, 0)" xlink:href="#未命名的渐变_105"/><linearGradient id="未命名的渐变_143-19" x1="1.28" y1="34.75" x2="29.12" y2="34.75" xlink:href="#未命名的渐变_143"/><linearGradient id="未命名的渐变_105-50" x1="1.77" y1="85.44" x2="2.91" y2="85.44" gradientTransform="matrix(1, 0, 0, 1, 0, 0)" xlink:href="#未命名的渐变_105"/><linearGradient id="未命名的渐变_105-51" x1="27.3" y1="85.58" x2="28.44" y2="85.58" gradientTransform="matrix(1, 0, 0, 1, 0, 0)" xlink:href="#未命名的渐变_105"/><linearGradient id="未命名的渐变_105-52" x1="20.92" y1="85.58" x2="22.07" y2="85.58" gradientTransform="matrix(1, 0, 0, 1, 0, 0)" xlink:href="#未命名的渐变_105"/><linearGradient id="未命名的渐变_105-53" x1="14.82" y1="85.51" x2="15.96" y2="85.51" gradientTransform="matrix(1, 0, 0, 1, 0, 0)" xlink:href="#未命名的渐变_105"/><linearGradient id="未命名的渐变_105-54" x1="8.29" y1="85.47" x2="9.44" y2="85.47" gradientTransform="matrix(1, 0, 0, 1, 0, 0)" xlink:href="#未命名的渐变_105"/><linearGradient id="未命名的渐变_105-55" x1="1.34" y1="85.4" x2="29.27" y2="85.4" gradientTransform="matrix(1, 0, 0, 1, 0, 0)" xlink:href="#未命名的渐变_105"/><linearGradient id="未命名的渐变_143-20" x1="1.34" y1="85.47" x2="29.18" y2="85.47" xlink:href="#未命名的渐变_143"/><linearGradient id="未命名的渐变_105-56" x1="0" y1="87.83" x2="147.85" y2="87.83" gradientTransform="matrix(1, 0, 0, 1, 0, 0)" xlink:href="#未命名的渐变_105"/><linearGradient id="未命名的渐变_143-21" x1="82.77" y1="31.5" x2="101.3" y2="31.5" xlink:href="#未命名的渐变_143"/><linearGradient id="未命名的渐变_143-22" x1="32.94" y1="14.11" x2="76.55" y2="14.11" xlink:href="#未命名的渐变_143"/></defs><title>Dewatering system（脱水系统）</title><g id="图层_2" data-name="图层 2"><g id="图层_125" data-name="图层 125"><g id="Dewatering_system_脱水系统_" data-name="Dewatering system（脱水系统）"><rect class="cls-1" x="138.3" y="142.22" width="5.23" height="6.38"/><circle class="cls-2" cx="141.03" cy="147.08" r="2.92"/><rect class="cls-3" x="73.59" y="15.56" width="13.46" height="3.99"/><path class="cls-4" d="M101.6,32.3s-1.66,4.36-9.36,4.36c-7.91,0-9.36-4.36-9.36-4.36V2.7S83.54-.11,92.24,0c8.28.11,9.36,2.7,9.36,2.7Z"/><path class="cls-5" d="M76.6,85.7S72.73,96.32,54.84,96.32c-18.41,0-21.77-10.62-21.77-10.62v-72S34.59,2.74,54.84,3C74.08,3.26,76.6,13.66,76.6,13.66Z"/><rect class="cls-6" x="88.21" y="8.63" width="7.92" height="5.88" rx="0.23"/><circle class="cls-7" cx="55" cy="26.19" r="8.48"/><circle class="cls-8" cx="55" cy="26.19" r="7.43"/><circle class="cls-6" cx="55" cy="26.19" r="5.33"/><circle class="cls-9" cx="54.87" cy="19.74" r="0.61"/><circle class="cls-10" cx="59.13" cy="21.35" r="0.61"/><circle class="cls-11" cx="61.14" cy="26.19" r="0.61"/><circle class="cls-12" cx="59.13" cy="31.07" r="0.61"/><circle class="cls-13" cx="54.87" cy="32.63" r="0.61"/><circle class="cls-14" cx="50.56" cy="30.79" r="0.61"/><circle class="cls-15" cx="48.32" cy="26.19" r="0.61"/><circle class="cls-16" cx="50.42" cy="21.47" r="0.61"/><rect class="cls-1" x="4.76" y="142.22" width="5.23" height="6.38"/><circle class="cls-2" cx="7.49" cy="147.08" r="2.92"/><circle class="cls-17" cx="7.45" cy="147.15" r="0.99"/><circle class="cls-18" cx="140.99" cy="147.15" r="0.99"/><rect class="cls-19" x="116.44" y="11.36" width="4.48" height="13.6"/><rect class="cls-20" x="101.3" y="17.56" width="45.03" height="69.45"/><rect class="cls-21" x="25.64" y="45.69" width="76.72" height="5.39"/><rect class="cls-22" x="106.56" y="37.86" width="15.8" height="4.04"/><rect class="cls-23" x="106.56" y="41.9" width="15.8" height="2.01"/><rect class="cls-22" x="125.67" y="37.86" width="15.8" height="4.04"/><rect class="cls-23" x="125.67" y="41.9" width="15.8" height="2.01"/><rect class="cls-24" x="101.3" y="28.65" width="45.03" height="1.22"/><rect class="cls-25" x="35.76" y="32.29" width="1.14" height="4.85"/><rect class="cls-26" x="61.29" y="32.43" width="1.14" height="4.85"/><rect class="cls-27" x="37.97" y="36.04" width="22.24" height="1.24"/><rect class="cls-28" x="54.91" y="32.43" width="1.14" height="4.85"/><rect class="cls-29" x="48.81" y="32.36" width="1.14" height="4.85"/><rect class="cls-30" x="42.28" y="32.32" width="1.14" height="4.85"/><rect class="cls-31" x="37.97" y="83.01" width="22.24" height="1.24"/><rect class="cls-32" x="37.97" y="37.28" width="22.24" height="46.1"/><rect class="cls-33" x="35.33" y="33.31" width="27.93" height="2.73"/><rect class="cls-34" x="35.33" y="34.49" width="27.84" height="0.52"/><rect class="cls-35" x="35.82" y="83.01" width="1.14" height="4.85"/><rect class="cls-36" x="61.35" y="83.16" width="1.14" height="4.85"/><rect class="cls-37" x="54.98" y="83.16" width="1.14" height="4.85"/><rect class="cls-38" x="48.87" y="83.08" width="1.14" height="4.85"/><rect class="cls-39" x="42.35" y="83.05" width="1.14" height="4.85"/><rect class="cls-40" x="35.39" y="84.04" width="27.93" height="2.73"/><rect class="cls-41" x="35.39" y="85.21" width="27.84" height="0.52"/><circle class="cls-42" cx="119.24" cy="71.39" r="1.29"/><circle class="cls-43" cx="119.24" cy="71.39" r="0.91"/><circle class="cls-42" cx="128.45" cy="71.39" r="1.29"/><circle class="cls-43" cx="128.45" cy="71.39" r="0.91"/><circle class="cls-42" cx="109.39" cy="53.83" r="1.29"/><circle class="cls-43" cx="109.39" cy="53.83" r="0.91"/><circle class="cls-42" cx="116.66" cy="53.83" r="1.29"/><circle class="cls-43" cx="116.66" cy="53.83" r="0.91"/><circle class="cls-42" cx="123.94" cy="53.83" r="1.29"/><circle class="cls-43" cx="123.94" cy="53.83" r="0.91"/><circle class="cls-42" cx="131.21" cy="53.83" r="1.29"/><circle class="cls-43" cx="131.21" cy="53.83" r="0.91"/><circle class="cls-42" cx="138.49" cy="53.83" r="1.29"/><circle class="cls-43" cx="138.49" cy="53.83" r="0.91"/><circle class="cls-42" cx="109.39" cy="60.19" r="1.29"/><circle class="cls-44" cx="109.39" cy="60.19" r="0.91"/><circle class="cls-42" cx="116.66" cy="60.19" r="1.29"/><circle class="cls-44" cx="116.66" cy="60.19" r="0.91"/><circle class="cls-42" cx="123.94" cy="60.19" r="1.29"/><circle class="cls-44" cx="123.94" cy="60.19" r="0.91"/><circle class="cls-42" cx="131.21" cy="60.19" r="1.29"/><circle class="cls-44" cx="131.21" cy="60.19" r="0.91"/><circle class="cls-42" cx="138.49" cy="60.19" r="1.29"/><circle class="cls-44" cx="138.49" cy="60.19" r="0.91"/><rect class="cls-45" y="89.41" width="147.85" height="49.64"/><rect class="cls-46" y="139.05" width="147.85" height="3.17"/><path class="cls-47" d="M68.62,71.5c-.38.39-.12,1.4-.12,1.4H63.85s-.15-3.6,1-4.67c1.55-1.4,4.94-1.7,4.94-1.7v4.16A8,8,0,0,0,68.62,71.5Z"/><rect class="cls-48" x="69.82" y="66.57" width="4.48" height="3.99" transform="translate(144.13 137.13) rotate(180)"/><rect class="cls-49" x="63.96" y="72.9" width="4.48" height="13.6" transform="translate(132.4 159.41) rotate(180)"/><path class="cls-50" d="M19.34,18.87c-.39.39-.12,1.41-.12,1.41H14.57s-.15-3.61,1-4.67c1.54-1.4,4.94-1.7,4.94-1.7v4.16A8.58,8.58,0,0,0,19.34,18.87Z"/><rect class="cls-51" x="20.54" y="13.95" width="12.53" height="3.99" transform="translate(53.61 31.88) rotate(180)"/><rect class="cls-52" x="14.67" y="20.28" width="4.48" height="13.6" transform="translate(33.83 54.16) rotate(180)"/><path class="cls-53" d="M116.26,10c.39.4.12,1.41.12,1.41H121s.15-3.6-1-4.67c-1.54-1.4-4.94-1.7-4.94-1.7V9.15A8.58,8.58,0,0,1,116.26,10Z"/><rect class="cls-54" x="101.6" y="5.03" width="13.46" height="3.99"/><rect class="cls-55" x="69.44" y="32.47" width="1.14" height="4.85"/><rect class="cls-56" x="94.97" y="32.61" width="1.14" height="4.85"/><rect class="cls-57" x="71.65" y="36.22" width="22.24" height="1.24"/><rect class="cls-58" x="88.59" y="32.61" width="1.14" height="4.85"/><rect class="cls-59" x="82.49" y="32.54" width="1.14" height="4.85"/><rect class="cls-60" x="75.96" y="32.51" width="1.14" height="4.85"/><rect class="cls-61" x="71.65" y="83.2" width="22.24" height="1.24"/><rect class="cls-62" x="71.65" y="37.46" width="22.24" height="46.1"/><rect class="cls-63" x="69.01" y="33.49" width="27.93" height="2.73"/><rect class="cls-64" x="69.01" y="34.67" width="27.84" height="0.52"/><rect class="cls-65" x="69.5" y="83.2" width="1.14" height="4.85"/><rect class="cls-66" x="95.03" y="83.34" width="1.14" height="4.85"/><rect class="cls-67" x="88.66" y="83.34" width="1.14" height="4.85"/><rect class="cls-68" x="82.55" y="83.27" width="1.14" height="4.85"/><rect class="cls-69" x="76.03" y="83.23" width="1.14" height="4.85"/><rect class="cls-70" x="69.08" y="84.22" width="27.93" height="2.73"/><rect class="cls-71" x="69.08" y="85.4" width="27.84" height="0.52"/><rect class="cls-72" x="1.7" y="32.29" width="1.14" height="4.85"/><rect class="cls-73" x="27.23" y="32.43" width="1.14" height="4.85"/><rect class="cls-74" x="3.92" y="36.04" width="22.24" height="1.24"/><rect class="cls-75" x="20.86" y="32.43" width="1.14" height="4.85"/><rect class="cls-76" x="14.75" y="32.36" width="1.14" height="4.85"/><rect class="cls-77" x="8.23" y="32.32" width="1.14" height="4.85"/><rect class="cls-78" x="3.92" y="83.01" width="22.24" height="1.24"/><rect class="cls-79" x="3.92" y="37.28" width="22.24" height="46.1"/><rect class="cls-80" x="1.28" y="33.31" width="27.93" height="2.73"/><rect class="cls-81" x="1.28" y="34.49" width="27.84" height="0.52"/><rect class="cls-82" x="1.77" y="83.01" width="1.14" height="4.85"/><rect class="cls-83" x="27.3" y="83.16" width="1.14" height="4.85"/><rect class="cls-84" x="20.92" y="83.16" width="1.14" height="4.85"/><rect class="cls-85" x="14.82" y="83.08" width="1.14" height="4.85"/><rect class="cls-86" x="8.29" y="83.05" width="1.14" height="4.85"/><rect class="cls-87" x="1.34" y="84.04" width="27.93" height="2.73"/><rect class="cls-88" x="1.34" y="85.21" width="27.84" height="0.52"/><rect class="cls-89" y="86.24" width="147.85" height="3.17"/><rect class="cls-90" x="82.77" y="31.14" width="18.52" height="0.73"/><rect class="cls-91" x="32.94" y="13.75" width="43.61" height="0.73"/></g></g></g></svg>