<svg xmlns="http://www.w3.org/2000/svg" xmlns:xlink="http://www.w3.org/1999/xlink" viewBox="0 0 150 136.49"><defs><style>.cls-1{fill:url(#未命名的渐变_143);}.cls-2{fill:url(#未命名的渐变_105);}.cls-3{fill:url(#未命名的渐变_105-2);}.cls-4{fill:url(#未命名的渐变_105-3);}.cls-5{fill:url(#未命名的渐变_105-4);}.cls-6{fill:url(#未命名的渐变_105-5);}.cls-7{fill:url(#未命名的渐变_105-6);}.cls-8{fill:url(#未命名的渐变_105-7);}.cls-9{fill:url(#未命名的渐变_105-8);}.cls-10{fill:url(#未命名的渐变_105-9);}.cls-11{fill:url(#未命名的渐变_105-10);}.cls-12{fill:url(#未命名的渐变_105-11);}.cls-13{fill:url(#未命名的渐变_105-12);}.cls-14{fill:url(#未命名的渐变_105-13);}.cls-15{fill:url(#未命名的渐变_105-14);}.cls-16{fill:url(#未命名的渐变_143-2);}.cls-17{fill:url(#未命名的渐变_143-3);}.cls-18{fill:url(#未命名的渐变_143-4);}.cls-19{fill:url(#未命名的渐变_143-5);}.cls-20{fill:url(#未命名的渐变_143-6);}.cls-21{fill:url(#未命名的渐变_143-7);}.cls-22{fill:url(#未命名的渐变_143-8);}.cls-23{fill:url(#未命名的渐变_143-9);}.cls-24{fill:url(#未命名的渐变_143-10);}.cls-25{fill:url(#未命名的渐变_143-11);}.cls-26{fill:url(#未命名的渐变_105-15);}.cls-27{fill:url(#未命名的渐变_105-16);}.cls-28{fill:url(#未命名的渐变_105-17);}.cls-29{fill:url(#未命名的渐变_105-18);}.cls-30{fill:url(#未命名的渐变_67);}.cls-31{fill:url(#未命名的渐变_105-19);}.cls-32{fill:url(#未命名的渐变_67-2);}.cls-33{fill:url(#未命名的渐变_105-20);}.cls-34{fill:url(#未命名的渐变_67-3);}.cls-35{fill:url(#未命名的渐变_105-21);}.cls-36{fill:url(#未命名的渐变_67-4);}.cls-37{fill:url(#未命名的渐变_105-22);}.cls-38{fill:url(#未命名的渐变_67-5);}.cls-39{fill:url(#未命名的渐变_105-23);}.cls-40{fill:url(#未命名的渐变_105-24);}.cls-41{fill:url(#未命名的渐变_105-25);}.cls-42{fill:url(#未命名的渐变_105-26);}.cls-43{fill:url(#未命名的渐变_105-27);}.cls-44{fill:url(#未命名的渐变_143-12);}.cls-45{opacity:0.2;}</style><linearGradient id="未命名的渐变_143" y1="19.29" x2="150" y2="19.29" gradientUnits="userSpaceOnUse"><stop offset="0" stop-color="#b7b7b7"/><stop offset="0.03" stop-color="#9b9d9d"/><stop offset="0.07" stop-color="#878b8b"/><stop offset="0.09" stop-color="#808484"/><stop offset="0.2" stop-color="#a3a6a6"/><stop offset="0.49" stop-color="#f6f6f6"/><stop offset="0.61" stop-color="#f3f3f3"/><stop offset="0.7" stop-color="#eaeaea"/><stop offset="0.77" stop-color="#dbdbdb"/><stop offset="0.83" stop-color="#c5c5c5"/><stop offset="0.9" stop-color="#aaa"/><stop offset="0.95" stop-color="#888"/><stop offset="1" stop-color="#666"/></linearGradient><linearGradient id="未命名的渐变_105" y1="81.25" x2="150" y2="81.25" gradientUnits="userSpaceOnUse"><stop offset="0" stop-color="#e2e2e2"/><stop offset="0.03" stop-color="#d0d0d0"/><stop offset="0.06" stop-color="#bcbcbc"/><stop offset="0.09" stop-color="#b5b5b5"/><stop offset="0.49" stop-color="#f6f6f6"/><stop offset="0.63" stop-color="#f3f3f3"/><stop offset="0.73" stop-color="#eaeaea"/><stop offset="0.82" stop-color="#dbdbdb"/><stop offset="0.9" stop-color="#c6c6c6"/><stop offset="0.97" stop-color="#aaa"/><stop offset="1" stop-color="#9b9b9b"/></linearGradient><linearGradient id="未命名的渐变_105-2" x1="113.92" y1="9.01" x2="116.09" y2="9.01" xlink:href="#未命名的渐变_105"/><linearGradient id="未命名的渐变_105-3" x1="122.07" y1="9.01" x2="124.23" y2="9.01" xlink:href="#未命名的渐变_105"/><linearGradient id="未命名的渐变_105-4" x1="130.21" y1="9.01" x2="132.38" y2="9.01" xlink:href="#未命名的渐变_105"/><linearGradient id="未命名的渐变_105-5" x1="138.36" y1="9.01" x2="140.53" y2="9.01" xlink:href="#未命名的渐变_105"/><linearGradient id="未命名的渐变_105-6" x1="146.5" y1="9.01" x2="148.67" y2="9.01" xlink:href="#未命名的渐变_105"/><linearGradient id="未命名的渐变_105-7" x1="1.09" y1="9.01" x2="3.25" y2="9.01" xlink:href="#未命名的渐变_105"/><linearGradient id="未命名的渐变_105-8" x1="598.19" y1="-1594.36" x2="600.36" y2="-1594.36" gradientTransform="translate(-549.68 1598.28)" xlink:href="#未命名的渐变_105"/><linearGradient id="未命名的渐变_105-9" x1="9.23" y1="9.01" x2="11.4" y2="9.01" xlink:href="#未命名的渐变_105"/><linearGradient id="未命名的渐变_105-10" x1="17.38" y1="9.01" x2="19.54" y2="9.01" xlink:href="#未命名的渐变_105"/><linearGradient id="未命名的渐变_105-11" x1="25.52" y1="9.01" x2="27.69" y2="9.01" xlink:href="#未命名的渐变_105"/><linearGradient id="未命名的渐变_105-12" x1="33.67" y1="9.01" x2="35.84" y2="9.01" xlink:href="#未命名的渐变_105"/><linearGradient id="未命名的渐变_105-13" x1="41.21" y1="9.01" x2="43.38" y2="9.01" xlink:href="#未命名的渐变_105"/><linearGradient id="未命名的渐变_105-14" x1="49.36" y1="9.01" x2="51.53" y2="9.01" xlink:href="#未命名的渐变_105"/><linearGradient id="未命名的渐变_143-2" x1="107.2" y1="8.6" x2="107.2" y2="6.95" xlink:href="#未命名的渐变_143"/><linearGradient id="未命名的渐变_143-3" x1="107.2" y1="17.59" x2="107.2" y2="15.94" xlink:href="#未命名的渐变_143"/><linearGradient id="未命名的渐变_143-4" x1="107.2" y1="26.57" x2="107.2" y2="24.92" xlink:href="#未命名的渐变_143"/><linearGradient id="未命名的渐变_143-5" x1="107.2" y1="35.55" x2="107.2" y2="33.91" xlink:href="#未命名的渐变_143"/><linearGradient id="未命名的渐变_143-6" x1="107.2" y1="44.54" x2="107.2" y2="42.89" xlink:href="#未命名的渐变_143"/><linearGradient id="未命名的渐变_143-7" x1="106.57" y1="54.45" x2="106.57" y2="52.8" xlink:href="#未命名的渐变_143"/><linearGradient id="未命名的渐变_143-8" x1="107.2" y1="63.48" x2="107.2" y2="61.83" xlink:href="#未命名的渐变_143"/><linearGradient id="未命名的渐变_143-9" x1="107.2" y1="72.27" x2="107.2" y2="70.62" xlink:href="#未命名的渐变_143"/><linearGradient id="未命名的渐变_143-10" x1="-1164.6" y1="37.33" x2="-1162.69" y2="37.33" gradientTransform="matrix(1, 0, 0, -1, 1263.23, 74.66)" xlink:href="#未命名的渐变_143"/><linearGradient id="未命名的渐变_143-11" x1="-1180.15" y1="37.78" x2="-1178.24" y2="37.78" gradientTransform="matrix(1, 0, 0, -1, 1294.33, 75.56)" xlink:href="#未命名的渐变_143"/><linearGradient id="未命名的渐变_105-15" x1="57.51" y1="9.01" x2="59.67" y2="9.01" xlink:href="#未命名的渐变_105"/><linearGradient id="未命名的渐变_105-16" x1="65.65" y1="9.01" x2="67.82" y2="9.01" xlink:href="#未命名的渐变_105"/><linearGradient id="未命名的渐变_105-17" x1="89.48" y1="68.5" x2="91.64" y2="68.5" xlink:href="#未命名的渐变_105"/><linearGradient id="未命名的渐变_105-18" x1="659.02" y1="-1651.69" x2="661.18" y2="-1651.69" gradientTransform="translate(-553.18 1716.44)" xlink:href="#未命名的渐变_105"/><linearGradient id="未命名的渐变_67" x1="90.06" y1="65.1" x2="91.68" y2="65.1" gradientUnits="userSpaceOnUse"><stop offset="0" stop-color="#6b6b6b"/><stop offset="0.11" stop-color="#767676"/><stop offset="0.3" stop-color="#959595"/><stop offset="0.41" stop-color="#aaa"/><stop offset="0.56" stop-color="#ccc"/><stop offset="0.71" stop-color="#eaeaea"/><stop offset="0.8" stop-color="#f6f6f6"/><stop offset="0.83" stop-color="#ededed"/><stop offset="0.87" stop-color="#d4d4d4"/><stop offset="0.92" stop-color="#ababab"/><stop offset="0.98" stop-color="#737373"/><stop offset="0.99" stop-color="#666"/></linearGradient><linearGradient id="未命名的渐变_105-19" x1="97.59" y1="68.5" x2="99.75" y2="68.5" xlink:href="#未命名的渐变_105"/><linearGradient id="未命名的渐变_67-2" x1="98.17" y1="64.93" x2="99.79" y2="64.93" xlink:href="#未命名的渐变_67"/><linearGradient id="未命名的渐变_105-20" x1="105.7" y1="68.5" x2="107.86" y2="68.5" xlink:href="#未命名的渐变_105"/><linearGradient id="未命名的渐变_67-3" x1="106.28" y1="64.75" x2="107.9" y2="64.75" xlink:href="#未命名的渐变_67"/><linearGradient id="未命名的渐变_105-21" x1="113.82" y1="68.5" x2="115.97" y2="68.5" xlink:href="#未命名的渐变_105"/><linearGradient id="未命名的渐变_67-4" x1="114.39" y1="64.58" x2="116.01" y2="64.58" xlink:href="#未命名的渐变_67"/><linearGradient id="未命名的渐变_105-22" x1="121.93" y1="68.5" x2="124.09" y2="68.5" xlink:href="#未命名的渐变_105"/><linearGradient id="未命名的渐变_67-5" x1="122.5" y1="64.41" x2="124.12" y2="64.41" xlink:href="#未命名的渐变_67"/><linearGradient id="未命名的渐变_105-23" x1="73.8" y1="9.01" x2="75.97" y2="9.01" xlink:href="#未命名的渐变_105"/><linearGradient id="未命名的渐变_105-24" x1="81.88" y1="9.01" x2="84.05" y2="9.01" xlink:href="#未命名的渐变_105"/><linearGradient id="未命名的渐变_105-25" x1="90.03" y1="9.01" x2="92.2" y2="9.01" xlink:href="#未命名的渐变_105"/><linearGradient id="未命名的渐变_105-26" x1="98.17" y1="9.01" x2="100.34" y2="9.01" xlink:href="#未命名的渐变_105"/><linearGradient id="未命名的渐变_105-27" x1="598" y1="-1676.06" x2="600.17" y2="-1676.06" gradientTransform="translate(-467.79 1679.8)" xlink:href="#未命名的渐变_105"/><linearGradient id="未命名的渐变_143-12" x1="671.32" y1="-1633.03" x2="671.32" y2="-1671" gradientTransform="translate(-564.06 1727.99)" xlink:href="#未命名的渐变_143"/></defs><title>Digestion Reaction Tank（消化反应罐）</title><g id="图层_2" data-name="图层 2"><g id="图层_104" data-name="图层 104"><g id="Digestion_Reaction_Tank_消化反应罐_" data-name="Digestion Reaction Tank（消化反应罐）"><rect class="cls-1" y="12.58" width="150" height="13.42"/><rect class="cls-2" y="26" width="150" height="110.49"/><rect class="cls-3" x="113.92" width="2.17" height="18.02"/><rect class="cls-4" x="122.07" width="2.17" height="18.02"/><rect class="cls-5" x="130.21" width="2.17" height="18.02"/><rect class="cls-6" x="138.36" width="2.17" height="18.02"/><rect class="cls-7" x="146.5" width="2.17" height="18.02"/><rect class="cls-8" x="1.09" width="2.17" height="18.02"/><rect class="cls-9" x="48.51" y="-45.44" width="2.17" height="98.74" transform="translate(53.52 -45.66) rotate(90)"/><rect class="cls-10" x="9.23" width="2.17" height="18.02"/><rect class="cls-11" x="17.38" width="2.17" height="18.02"/><rect class="cls-12" x="25.52" width="2.17" height="18.02"/><rect class="cls-13" x="33.67" width="2.17" height="18.02"/><rect class="cls-14" x="41.21" width="2.17" height="18.02"/><rect class="cls-15" x="49.36" width="2.17" height="18.02"/><rect class="cls-16" x="99.59" y="6.95" width="15.23" height="1.65"/><rect class="cls-17" x="99.59" y="15.94" width="15.23" height="1.65"/><rect class="cls-18" x="99.59" y="24.92" width="15.23" height="1.65"/><rect class="cls-19" x="99.59" y="33.91" width="15.23" height="1.65"/><rect class="cls-20" x="99.59" y="42.89" width="15.23" height="1.65"/><rect class="cls-21" x="98.95" y="52.8" width="15.23" height="1.65"/><rect class="cls-22" x="99.59" y="61.83" width="15.23" height="1.65"/><rect class="cls-23" x="99.59" y="70.62" width="15.23" height="1.65"/><rect class="cls-24" x="98.63" width="1.91" height="74.66" rx="0.13" transform="translate(199.17 74.66) rotate(-180)"/><rect class="cls-25" x="114.18" y="0.45" width="1.91" height="74.66" rx="0.13" transform="translate(230.27 75.56) rotate(180)"/><rect class="cls-26" x="57.51" width="2.17" height="18.02"/><rect class="cls-27" x="65.65" width="2.17" height="18.02"/><rect class="cls-28" x="89.48" y="60.97" width="2.16" height="15.06"/><rect class="cls-29" x="105.84" y="46.45" width="2.16" height="36.6" transform="translate(171.68 -42.17) rotate(90)"/><circle class="cls-30" cx="90.56" cy="65.1" r="1.08"/><rect class="cls-31" x="97.59" y="60.97" width="2.16" height="15.06"/><circle class="cls-32" cx="98.67" cy="64.93" r="1.08"/><rect class="cls-33" x="105.7" y="60.97" width="2.16" height="15.06"/><circle class="cls-34" cx="106.78" cy="64.75" r="1.08"/><rect class="cls-35" x="113.82" y="60.97" width="2.16" height="15.06"/><circle class="cls-36" cx="114.9" cy="64.58" r="1.08"/><rect class="cls-37" x="121.93" y="60.97" width="2.16" height="15.06"/><circle class="cls-38" cx="123.01" cy="64.41" r="1.08"/><rect class="cls-39" x="73.8" width="2.17" height="18.02"/><rect class="cls-40" x="81.88" width="2.17" height="18.02"/><rect class="cls-41" x="90.03" width="2.17" height="18.02"/><rect class="cls-42" x="98.17" width="2.17" height="18.02"/><rect class="cls-43" x="130.21" y="-14.52" width="2.17" height="36.53" transform="translate(135.04 -127.55) rotate(90)"/><rect class="cls-44" x="105.65" y="56.98" width="3.21" height="37.97" rx="0.39" transform="translate(183.22 -31.28) rotate(90)"/></g></g></g></svg>