<svg xmlns="http://www.w3.org/2000/svg" xmlns:xlink="http://www.w3.org/1999/xlink" viewBox="0 0 148.99 133.31"><defs><style>.cls-1{fill:url(#未命名的渐变_105);}.cls-2{fill:url(#未命名的渐变_74);}.cls-3{fill:url(#未命名的渐变_74-2);}.cls-4{fill:url(#未命名的渐变_74-3);}.cls-5{fill:url(#未命名的渐变_74-4);}.cls-6{fill:url(#未命名的渐变_105-2);}.cls-7{fill:url(#未命名的渐变_67);}.cls-8{fill:url(#未命名的渐变_67-2);}.cls-9{fill:url(#未命名的渐变_67-3);}.cls-10{fill:url(#未命名的渐变_67-4);}.cls-11{fill:url(#未命名的渐变_105-3);}.cls-12{fill:url(#未命名的渐变_105-4);}.cls-13{fill:url(#未命名的渐变_67-5);}.cls-14{fill:url(#未命名的渐变_67-6);}.cls-15{fill:url(#未命名的渐变_67-7);}.cls-16{fill:#c5c5c6;}.cls-17{fill:url(#未命名的渐变_74-5);}.cls-18{fill:url(#未命名的渐变_74-6);}.cls-19{fill:url(#未命名的渐变_74-7);}.cls-20{opacity:0.2;}</style><linearGradient id="未命名的渐变_105" x1="0.26" y1="77.69" x2="58.93" y2="77.69" gradientUnits="userSpaceOnUse"><stop offset="0" stop-color="#e2e2e2"/><stop offset="0.03" stop-color="#d0d0d0"/><stop offset="0.06" stop-color="#bcbcbc"/><stop offset="0.09" stop-color="#b5b5b5"/><stop offset="0.49" stop-color="#f6f6f6"/><stop offset="0.63" stop-color="#f3f3f3"/><stop offset="0.73" stop-color="#eaeaea"/><stop offset="0.82" stop-color="#dbdbdb"/><stop offset="0.9" stop-color="#c6c6c6"/><stop offset="0.97" stop-color="#aaa"/><stop offset="1" stop-color="#9b9b9b"/></linearGradient><linearGradient id="未命名的渐变_74" x1="21.51" y1="25.07" x2="21.51" y2="11.06" gradientUnits="userSpaceOnUse"><stop offset="0" stop-color="#6b6b6b"/><stop offset="0.01" stop-color="#767676"/><stop offset="0.03" stop-color="#959595"/><stop offset="0.04" stop-color="#aaa"/><stop offset="0.37" stop-color="#ccc"/><stop offset="0.74" stop-color="#eaeaea"/><stop offset="0.94" stop-color="#f6f6f6"/><stop offset="0.95" stop-color="#ededed"/><stop offset="0.96" stop-color="#d4d4d4"/><stop offset="0.97" stop-color="#ababab"/><stop offset="0.99" stop-color="#737373"/><stop offset="0.99" stop-color="#666"/></linearGradient><linearGradient id="未命名的渐变_74-2" x1="126.77" y1="25.07" x2="126.77" y2="11.06" xlink:href="#未命名的渐变_74"/><linearGradient id="未命名的渐变_74-3" x1="115.74" y1="28.88" x2="115.74" y2="18.07" xlink:href="#未命名的渐变_74"/><linearGradient id="未命名的渐变_74-4" x1="74.42" y1="31.03" x2="74.42" y2="15.92" xlink:href="#未命名的渐变_74"/><linearGradient id="未命名的渐变_105-2" x1="17.98" y1="33.93" x2="42.15" y2="33.93" xlink:href="#未命名的渐变_105"/><linearGradient id="未命名的渐变_67" x1="0.11" y1="47.8" x2="58.78" y2="47.8" gradientUnits="userSpaceOnUse"><stop offset="0" stop-color="#6b6b6b"/><stop offset="0.11" stop-color="#767676"/><stop offset="0.3" stop-color="#959595"/><stop offset="0.41" stop-color="#aaa"/><stop offset="0.56" stop-color="#ccc"/><stop offset="0.71" stop-color="#eaeaea"/><stop offset="0.8" stop-color="#f6f6f6"/><stop offset="0.83" stop-color="#ededed"/><stop offset="0.87" stop-color="#d4d4d4"/><stop offset="0.92" stop-color="#ababab"/><stop offset="0.98" stop-color="#737373"/><stop offset="0.99" stop-color="#666"/></linearGradient><linearGradient id="未命名的渐变_67-2" x1="0.11" y1="49.94" x2="58.78" y2="49.94" xlink:href="#未命名的渐变_67"/><linearGradient id="未命名的渐变_67-3" x1="0.26" y1="107.08" x2="58.93" y2="107.08" xlink:href="#未命名的渐变_67"/><linearGradient id="未命名的渐变_67-4" x1="0.26" y1="109.21" x2="58.93" y2="109.21" xlink:href="#未命名的渐变_67"/><linearGradient id="未命名的渐变_105-3" x1="90.32" y1="77.8" x2="148.99" y2="77.8" xlink:href="#未命名的渐变_105"/><linearGradient id="未命名的渐变_105-4" x1="108.04" y1="34.04" x2="132.2" y2="34.04" xlink:href="#未命名的渐变_105"/><linearGradient id="未命名的渐变_67-5" x1="90.17" y1="50.05" x2="148.84" y2="50.05" xlink:href="#未命名的渐变_67"/><linearGradient id="未命名的渐变_67-6" x1="90.32" y1="107.19" x2="148.99" y2="107.19" xlink:href="#未命名的渐变_67"/><linearGradient id="未命名的渐变_67-7" x1="90.32" y1="109.32" x2="148.99" y2="109.32" xlink:href="#未命名的渐变_67"/><linearGradient id="未命名的渐变_74-5" x1="58.78" y1="68.79" x2="69.84" y2="68.79" xlink:href="#未命名的渐变_74"/><linearGradient id="未命名的渐变_74-6" x1="79.11" y1="68.79" x2="90.17" y2="68.79" xlink:href="#未命名的渐变_74"/><linearGradient id="未命名的渐变_74-7" x1="69.84" y1="66.65" x2="79.11" y2="66.65" xlink:href="#未命名的渐变_74"/></defs><title>Digester gas tanks（沼气池）</title><g id="图层_2" data-name="图层 2"><g id="图层_125" data-name="图层 125"><g id="Digester_gas_tanks_沼气池_" data-name="Digester gas tanks（沼气池）"><path class="cls-1" d="M58.93,109.57s-5.22,10.25-29.33,10.25C4.8,119.82.26,109.57.26,109.57V44.46s2.06-9.14,29.34-8.9c25.93.23,29.33,8.9,29.33,8.9Z"/><rect class="cls-2" y="11.06" width="43.03" height="14.01"/><rect class="cls-3" x="105.26" y="11.06" width="43.03" height="14.01"/><rect class="cls-4" x="94.22" y="18.07" width="43.03" height="10.81"/><rect class="cls-5" x="2.1" y="15.92" width="144.64" height="15.12"/><rect class="cls-6" x="17.98" y="31.03" width="24.16" height="5.79"/><rect class="cls-7" x="0.11" y="47.41" width="58.67" height="0.77"/><rect class="cls-8" x="0.11" y="49.36" width="58.67" height="1.16"/><rect class="cls-9" x="0.26" y="106.69" width="58.67" height="0.77"/><rect class="cls-10" x="0.26" y="108.63" width="58.67" height="1.16"/><path class="cls-11" d="M149,109.68s-5.22,10.25-29.34,10.25c-24.8,0-29.33-10.25-29.33-10.25V44.58s2.05-9.15,29.33-8.91c25.94.23,29.34,8.91,29.34,8.91Z"/><rect class="cls-12" x="108.04" y="31.14" width="24.16" height="5.79"/><rect class="cls-13" x="90.17" y="49.47" width="58.67" height="1.16"/><rect class="cls-14" x="90.32" y="106.8" width="58.67" height="0.77"/><rect class="cls-15" x="90.32" y="108.75" width="58.67" height="1.16"/><rect class="cls-16" x="58.78" width="11.06" height="129.03"/><rect class="cls-16" x="79.11" width="11.06" height="129.03"/><rect class="cls-17" x="58.78" y="4.28" width="11.06" height="129.03"/><rect class="cls-18" x="79.11" y="4.28" width="11.06" height="129.03"/><rect class="cls-19" x="69.84" width="9.27" height="133.31"/>
</g></g></g></svg>