<svg width="96" height="96" viewBox="0 0 96 96" fill="none" xmlns="http://www.w3.org/2000/svg">
<path d="M8 20C8 17.7909 9.79086 16 12 16H36.6863C38.808 16 40.8429 16.8429 42.3431 18.3431L45.6569 21.6569C47.1571 23.1571 49.192 24 51.3137 24H84C86.2091 24 88 25.7909 88 28V76C88 78.2091 86.2091 80 84 80H12C9.79086 80 8 78.2091 8 76V20Z" fill="#546277"/>
<rect x="12" y="28" width="72" height="48" rx="2" fill="#DBDFE6"/>
<rect x="8" y="32" width="80" height="48" rx="4" fill="#778AA5"/>
<path d="M12 32H84V74C84 75.1046 83.1046 76 82 76H14C12.8954 76 12 75.1046 12 74V32Z" fill="#909FB5"/>
</svg>
