<svg xmlns="http://www.w3.org/2000/svg" xmlns:xlink="http://www.w3.org/1999/xlink" viewBox="0 0 149.67 95.41"><defs><style>.cls-1{fill:url(#未命名的渐变_105);}.cls-2{fill:url(#未命名的渐变_74);}.cls-3{fill:url(#未命名的渐变_105-2);}.cls-4{fill:url(#未命名的渐变_105-3);}.cls-5{fill:url(#未命名的渐变_105-4);}.cls-6{fill:url(#未命名的渐变_105-5);}.cls-7{fill:url(#未命名的渐变_105-6);}.cls-8{fill:url(#未命名的渐变_105-7);}.cls-9{fill:url(#未命名的渐变_105-8);}.cls-10{fill:url(#未命名的渐变_143);}.cls-11{fill:url(#未命名的渐变_74-2);}.cls-12{fill:url(#未命名的渐变_105-9);}.cls-13{fill:url(#未命名的渐变_105-10);}.cls-14{fill:url(#未命名的渐变_105-11);}.cls-15{fill:#cecece;}.cls-16{fill:url(#未命名的渐变_105-12);}.cls-17{fill:url(#未命名的渐变_105-13);}.cls-18{fill:url(#未命名的渐变_143-2);}.cls-19{fill:url(#未命名的渐变_143-3);}.cls-20{fill:#a2a7a9;}.cls-21{fill:url(#未命名的渐变_143-4);}.cls-22{fill:url(#未命名的渐变_143-5);}.cls-23{fill:url(#未命名的渐变_143-6);}.cls-24{fill:url(#未命名的渐变_143-7);}.cls-25{fill:url(#未命名的渐变_143-8);}.cls-26{fill:url(#未命名的渐变_143-9);}.cls-27{fill:url(#未命名的渐变_143-10);}.cls-28{fill:url(#未命名的渐变_143-11);}.cls-29{fill:url(#未命名的渐变_143-12);}.cls-30{fill:url(#未命名的渐变_143-13);}.cls-31{fill:url(#未命名的渐变_143-14);}.cls-32{fill:url(#未命名的渐变_143-15);}.cls-33{fill:url(#未命名的渐变_143-16);}.cls-34{fill:url(#未命名的渐变_143-17);}.cls-35{fill:url(#未命名的渐变_143-18);}.cls-36{fill:url(#未命名的渐变_143-19);}.cls-37{fill:url(#未命名的渐变_143-20);}.cls-38{fill:url(#未命名的渐变_143-21);}.cls-39{fill:url(#未命名的渐变_143-22);}.cls-40{fill:#e8e8e8;}.cls-41{fill:url(#未命名的渐变_143-23);}.cls-42{fill:url(#未命名的渐变_143-24);}.cls-43{fill:url(#未命名的渐变_143-25);}.cls-44{fill:url(#未命名的渐变_143-26);}.cls-45{fill:url(#未命名的渐变_143-27);}.cls-46{fill:url(#未命名的渐变_143-28);}.cls-47{fill:url(#未命名的渐变_143-29);}.cls-48{fill:url(#未命名的渐变_105-14);}.cls-49{fill:#cecfcf;}.cls-50{fill:url(#未命名的渐变_74-3);}.cls-51{opacity:0.2;}</style><linearGradient id="未命名的渐变_105" x1="126.22" y1="29.58" x2="149.49" y2="29.58" gradientUnits="userSpaceOnUse"><stop offset="0" stop-color="#e2e2e2"/><stop offset="0.03" stop-color="#d0d0d0"/><stop offset="0.06" stop-color="#bcbcbc"/><stop offset="0.09" stop-color="#b5b5b5"/><stop offset="0.49" stop-color="#f6f6f6"/><stop offset="0.63" stop-color="#f3f3f3"/><stop offset="0.73" stop-color="#eaeaea"/><stop offset="0.82" stop-color="#dbdbdb"/><stop offset="0.9" stop-color="#c6c6c6"/><stop offset="0.97" stop-color="#aaa"/><stop offset="1" stop-color="#9b9b9b"/></linearGradient><linearGradient id="未命名的渐变_74" x1="15.44" y1="721.05" x2="126.48" y2="721.05" gradientTransform="matrix(1, 0, 0, -24.44, 0, 17678.95)" gradientUnits="userSpaceOnUse"><stop offset="0" stop-color="#6b6b6b"/><stop offset="0.01" stop-color="#767676"/><stop offset="0.03" stop-color="#959595"/><stop offset="0.04" stop-color="#aaa"/><stop offset="0.37" stop-color="#ccc"/><stop offset="0.74" stop-color="#eaeaea"/><stop offset="0.94" stop-color="#f6f6f6"/><stop offset="0.95" stop-color="#ededed"/><stop offset="0.96" stop-color="#d4d4d4"/><stop offset="0.97" stop-color="#ababab"/><stop offset="0.99" stop-color="#737373"/><stop offset="0.99" stop-color="#666"/></linearGradient><linearGradient id="未命名的渐变_105-2" x1="508.31" y1="28.33" x2="509.93" y2="26.71" gradientTransform="matrix(-1, 0, 0, 1, 547.83, 62.33)" xlink:href="#未命名的渐变_105"/><linearGradient id="未命名的渐变_105-3" x1="513.11" y1="1284.39" x2="514.66" y2="1282.83" gradientTransform="translate(547.83 1352.52) rotate(180)" xlink:href="#未命名的渐变_105"/><linearGradient id="未命名的渐变_105-4" x1="38.21" y1="68.1" x2="39.97" y2="68.1" xlink:href="#未命名的渐变_105"/><linearGradient id="未命名的渐变_105-5" x1="33.56" y1="79.65" x2="34.94" y2="79.65" xlink:href="#未命名的渐变_105"/><linearGradient id="未命名的渐变_105-6" x1="54.82" y1="65.71" x2="50.24" y2="65.71" xlink:href="#未命名的渐变_105"/><linearGradient id="未命名的渐变_105-7" x1="94.42" y1="65.28" x2="89.83" y2="65.28" xlink:href="#未命名的渐变_105"/><linearGradient id="未命名的渐变_105-8" x1="35.19" y1="91.29" x2="35.19" y2="89.26" xlink:href="#未命名的渐变_105"/><linearGradient id="未命名的渐变_143" x1="126.48" y1="30.05" x2="149.67" y2="30.05" gradientUnits="userSpaceOnUse"><stop offset="0" stop-color="#b7b7b7"/><stop offset="0.03" stop-color="#9b9d9d"/><stop offset="0.07" stop-color="#878b8b"/><stop offset="0.09" stop-color="#808484"/><stop offset="0.2" stop-color="#a3a6a6"/><stop offset="0.49" stop-color="#f6f6f6"/><stop offset="0.61" stop-color="#f3f3f3"/><stop offset="0.7" stop-color="#eaeaea"/><stop offset="0.77" stop-color="#dbdbdb"/><stop offset="0.83" stop-color="#c5c5c5"/><stop offset="0.9" stop-color="#aaa"/><stop offset="0.95" stop-color="#888"/><stop offset="1" stop-color="#666"/></linearGradient><linearGradient id="未命名的渐变_74-2" x1="126.48" y1="45.5" x2="149.67" y2="45.5" gradientTransform="matrix(1, 0, 0, 1, 0, 0)" xlink:href="#未命名的渐变_74"/><linearGradient id="未命名的渐变_105-9" x1="126.48" y1="61.01" x2="149.67" y2="61.01" xlink:href="#未命名的渐变_105"/><linearGradient id="未命名的渐变_105-10" x1="12.3" y1="88.95" x2="12.3" y2="81.22" xlink:href="#未命名的渐变_105"/><linearGradient id="未命名的渐变_105-11" x1="105.92" y1="53.41" x2="110.08" y2="53.41" xlink:href="#未命名的渐变_105"/><linearGradient id="未命名的渐变_105-12" x1="104.45" y1="60.71" x2="111.78" y2="60.71" xlink:href="#未命名的渐变_105"/><linearGradient id="未命名的渐变_105-13" x1="24.24" y1="69.21" x2="24.24" y2="67.61" xlink:href="#未命名的渐变_105"/><linearGradient id="未命名的渐变_143-2" x1="1243.15" y1="847.41" x2="1252.86" y2="847.41" gradientTransform="translate(-823.55 1338.24) rotate(-90)" xlink:href="#未命名的渐变_143"/><linearGradient id="未命名的渐变_143-3" x1="29.6" y1="95.41" x2="29.6" y2="85.01" gradientTransform="translate(119.81 60.61) rotate(90)" xlink:href="#未命名的渐变_143"/><linearGradient id="未命名的渐变_143-4" x1="1243.86" y1="847.76" x2="1244.02" y2="847.76" gradientTransform="translate(-823.55 1338.24) rotate(-90)" xlink:href="#未命名的渐变_143"/><linearGradient id="未命名的渐变_143-5" x1="1244.53" y1="847.76" x2="1244.7" y2="847.76" gradientTransform="translate(-823.55 1338.24) rotate(-90)" xlink:href="#未命名的渐变_143"/><linearGradient id="未命名的渐变_143-6" x1="1245.2" y1="847.76" x2="1245.37" y2="847.76" gradientTransform="translate(-823.55 1338.24) rotate(-90)" xlink:href="#未命名的渐变_143"/><linearGradient id="未命名的渐变_143-7" x1="1245.88" y1="847.76" x2="1246.04" y2="847.76" gradientTransform="translate(-823.55 1338.24) rotate(-90)" xlink:href="#未命名的渐变_143"/><linearGradient id="未命名的渐变_143-8" x1="1246.55" y1="847.76" x2="1246.71" y2="847.76" gradientTransform="translate(-823.55 1338.24) rotate(-90)" xlink:href="#未命名的渐变_143"/><linearGradient id="未命名的渐变_143-9" x1="1247.22" y1="847.76" x2="1247.38" y2="847.76" gradientTransform="translate(-823.55 1338.24) rotate(-90)" xlink:href="#未命名的渐变_143"/><linearGradient id="未命名的渐变_143-10" x1="1247.89" y1="847.76" x2="1248.05" y2="847.76" gradientTransform="translate(-823.55 1338.24) rotate(-90)" xlink:href="#未命名的渐变_143"/><linearGradient id="未命名的渐变_143-11" x1="1248.64" y1="847.76" x2="1248.8" y2="847.76" gradientTransform="translate(-823.55 1338.24) rotate(-90)" xlink:href="#未命名的渐变_143"/><linearGradient id="未命名的渐变_143-12" x1="1249.29" y1="847.76" x2="1249.45" y2="847.76" gradientTransform="translate(-823.55 1338.24) rotate(-90)" xlink:href="#未命名的渐变_143"/><linearGradient id="未命名的渐变_143-13" x1="1249.92" y1="847.76" x2="1250.09" y2="847.76" gradientTransform="translate(-823.55 1338.24) rotate(-90)" xlink:href="#未命名的渐变_143"/><linearGradient id="未命名的渐变_143-14" x1="1250.58" y1="847.76" x2="1250.74" y2="847.76" gradientTransform="translate(-823.55 1338.24) rotate(-90)" xlink:href="#未命名的渐变_143"/><linearGradient id="未命名的渐变_143-15" x1="1251.39" y1="847.82" x2="1251.55" y2="847.82" gradientTransform="translate(-823.55 1338.24) rotate(-90)" xlink:href="#未命名的渐变_143"/><linearGradient id="未命名的渐变_143-16" x1="1252.03" y1="847.76" x2="1252.19" y2="847.76" gradientTransform="translate(-823.55 1338.24) rotate(-90)" xlink:href="#未命名的渐变_143"/><linearGradient id="未命名的渐变_143-17" x1="32.08" y1="92.29" x2="32.08" y2="88.24" xlink:href="#未命名的渐变_143"/><linearGradient id="未命名的渐变_143-18" x1="7.99" y1="90.94" x2="7.99" y2="78.94" xlink:href="#未命名的渐变_143"/><linearGradient id="未命名的渐变_143-19" x1="50.05" y1="25.88" x2="54.86" y2="25.88" xlink:href="#未命名的渐变_143"/><linearGradient id="未命名的渐变_143-20" x1="73.16" y1="10.65" x2="77.97" y2="10.65" xlink:href="#未命名的渐变_143"/><linearGradient id="未命名的渐变_143-21" x1="110.55" y1="10.65" x2="115.36" y2="10.65" xlink:href="#未命名的渐变_143"/><linearGradient id="未命名的渐变_143-22" x1="26.55" y1="3.32" x2="37.65" y2="3.32" xlink:href="#未命名的渐变_143"/><linearGradient id="未命名的渐变_143-23" x1="48.61" y1="28.79" x2="55.9" y2="28.79" xlink:href="#未命名的渐变_143"/><linearGradient id="未命名的渐变_143-24" x1="14.36" y1="30.17" x2="126.7" y2="30.17" xlink:href="#未命名的渐变_143"/><linearGradient id="未命名的渐变_143-25" x1="15.44" y1="32.2" x2="126.22" y2="32.2" xlink:href="#未命名的渐变_143"/><linearGradient id="未命名的渐变_143-26" x1="15.44" y1="33.42" x2="126.22" y2="33.42" xlink:href="#未命名的渐变_143"/><linearGradient id="未命名的渐变_143-27" x1="15.39" y1="47.3" x2="126.48" y2="47.3" xlink:href="#未命名的渐变_143"/><linearGradient id="未命名的渐变_143-28" x1="89.64" y1="25.63" x2="94.45" y2="25.63" xlink:href="#未命名的渐变_143"/><linearGradient id="未命名的渐变_143-29" x1="88.21" y1="28.53" x2="95.49" y2="28.53" xlink:href="#未命名的渐变_143"/><linearGradient id="未命名的渐变_105-14" x1="12.16" y1="64.77" x2="15.39" y2="64.77" xlink:href="#未命名的渐变_105"/><linearGradient id="未命名的渐变_74-3" x1="14.02" y1="12.15" x2="127.77" y2="12.15" gradientTransform="matrix(1, 0, 0, 1, 0, 0)" xlink:href="#未命名的渐变_74"/></defs><title>Dissolved air flotation（溶气浮选）</title><g id="图层_2" data-name="图层 2"><g id="图层_125" data-name="图层 125"><g id="Dissolved_air_flotation_溶气浮选_" data-name="Dissolved air flotation（溶气浮选）"><circle class="cls-1" cx="137.85" cy="29.58" r="11.63"/><path class="cls-2" d="M126.48,14.75h-111V95.3h86.44l2.45-5.51c2.82-6.44,11.94-18.54,22.15-22.53h0Z"/><path class="cls-3" d="M38.11,89.09a.5.5,0,0,0,.12-.38H40s.06,1.46-.38,1.89a3.74,3.74,0,0,1-1.86.69V89.22S38,89.21,38.11,89.09Z"/><path class="cls-4" d="M33.5,69.43c.12.15,0,.61,0,.61h1.42s.14-1.51-.22-1.91a2.55,2.55,0,0,0-1.61-.52v1.61A1.26,1.26,0,0,1,33.5,69.43Z"/><rect class="cls-5" x="38.21" y="47.44" width="1.76" height="41.3"/><rect class="cls-6" x="33.56" y="70.04" width="1.38" height="19.22"/><rect class="cls-7" x="50.24" y="46.86" width="4.58" height="37.7" rx="0.57"/><rect class="cls-8" x="89.83" y="46.43" width="4.58" height="37.7" rx="0.57"/><rect class="cls-9" x="32.66" y="89.26" width="5.07" height="2.03"/><rect class="cls-10" x="126.48" y="29.15" width="23.19" height="1.79"/><rect class="cls-11" x="126.48" y="30.99" width="23.19" height="29.01"/><rect class="cls-12" x="126.48" y="60" width="23.19" height="2.02"/><rect class="cls-13" x="9.21" y="81.22" width="6.19" height="7.73"/><rect class="cls-14" x="105.92" y="47.12" width="4.16" height="12.57"/><rect class="cls-15" x="129.96" y="30.95" width="2.08" height="29.05"/><rect class="cls-15" x="143.13" y="30.95" width="2.08" height="29.05"/><rect class="cls-16" x="104.45" y="59.69" width="7.33" height="2.03" rx="0.25"/><rect class="cls-17" x="15.36" y="67.61" width="17.75" height="1.6"/><path class="cls-18" d="M29.39,85.38l.84.86a5.71,5.71,0,0,1,0,8l-.84.85H16.75a13.44,13.44,0,0,1,0-9.71H29.39Z"/><rect class="cls-19" x="24.4" y="89.99" width="10.39" height="0.44" transform="translate(-60.61 119.81) rotate(-90)"/><rect class="cls-20" x="24.18" y="90.1" width="10.08" height="0.31" transform="translate(-61.03 119.48) rotate(-90)"/><rect class="cls-21" x="19.86" y="94.22" width="8.68" height="0.16"/><rect class="cls-22" x="19.86" y="93.55" width="8.68" height="0.16"/><rect class="cls-23" x="19.86" y="92.88" width="8.68" height="0.16"/><rect class="cls-24" x="19.86" y="92.2" width="8.68" height="0.16"/><rect class="cls-25" x="19.86" y="91.53" width="8.68" height="0.16"/><rect class="cls-26" x="19.86" y="90.86" width="8.68" height="0.16"/><rect class="cls-27" x="19.86" y="90.19" width="8.68" height="0.16"/><rect class="cls-28" x="19.86" y="89.44" width="8.68" height="0.16"/><rect class="cls-29" x="19.86" y="88.79" width="8.68" height="0.16"/><rect class="cls-30" x="19.86" y="88.16" width="8.68" height="0.16"/><rect class="cls-31" x="19.86" y="87.5" width="8.68" height="0.16"/><rect class="cls-32" x="19.93" y="86.69" width="8.68" height="0.16"/><rect class="cls-33" x="19.86" y="86.05" width="8.68" height="0.16"/><rect class="cls-20" x="14.88" y="90.09" width="9.79" height="0.31" transform="translate(-70.47 110.01) rotate(-90)"/><rect class="cls-34" x="31.51" y="88.24" width="1.15" height="4.05"/><rect class="cls-35" x="6.77" y="78.94" width="2.44" height="12"/><rect class="cls-36" x="50.05" y="23.75" width="4.81" height="4.26"/><rect class="cls-37" x="73.16" y="8.52" width="4.81" height="4.26"/><rect class="cls-38" x="110.55" y="8.52" width="4.81" height="4.26"/><rect class="cls-39" x="26.55" width="11.1" height="6.64"/><rect class="cls-40" y="23" width="15.39" height="20.12"/><rect class="cls-41" x="48.61" y="28.01" width="7.29" height="1.56"/><rect class="cls-42" x="14.36" y="29.39" width="112.34" height="1.56"/><rect class="cls-43" x="15.44" y="31.89" width="110.78" height="0.61"/><rect class="cls-44" x="15.44" y="33.11" width="110.78" height="0.61"/><rect class="cls-45" x="15.39" y="43.92" width="111.08" height="6.78"/><rect class="cls-46" x="89.64" y="23.5" width="4.81" height="4.26"/><rect class="cls-47" x="88.21" y="27.76" width="7.29" height="1.56"/><rect class="cls-48" x="12.16" y="47.3" width="3.24" height="34.93"/><rect class="cls-49" y="43.12" width="15.44" height="4.32"/><rect class="cls-49" x="19.28" y="6.64" width="25.65" height="4.49"/><rect class="cls-49" x="72.21" y="2.51" width="44.58" height="6.01"/><rect class="cls-49" x="15.44" y="13.17" width="111.04" height="1.58"/><rect class="cls-50" x="14.02" y="11.13" width="113.75" height="2.04"/></g></g></g></svg>