<svg xmlns="http://www.w3.org/2000/svg" xmlns:xlink="http://www.w3.org/1999/xlink" viewBox="0 0 149.23 65.13"><defs><style>.cls-1{fill:url(#未命名的渐变_74);}.cls-2{fill:url(#未命名的渐变_74-2);}.cls-3{fill:url(#未命名的渐变_74-3);}.cls-4{fill:url(#未命名的渐变_74-4);}.cls-5{fill:url(#未命名的渐变_74-5);}.cls-6{fill:url(#未命名的渐变_74-6);}.cls-7{fill:url(#未命名的渐变_74-7);}.cls-8{fill:url(#未命名的渐变_74-8);}.cls-9{fill:#dadada;}.cls-10{fill:#e3e3e3;}.cls-11{fill:#d7d7d7;}.cls-12{fill:#555252;}.cls-13{fill:url(#未命名的渐变_105);}.cls-14{fill:url(#未命名的渐变_105-2);}.cls-15{fill:url(#未命名的渐变_105-3);}.cls-16{fill:url(#未命名的渐变_105-4);}.cls-17{fill:#504f4f;}.cls-18{fill:#424242;}.cls-19{fill:#242424;}.cls-20{fill:#9b9c9c;}.cls-21{fill:#a9a9a9;}.cls-22{fill:#faf8f8;}.cls-23{fill:#a95e63;}.cls-24{fill:#69bdc0;}.cls-25{opacity:0.2;}</style><linearGradient id="未命名的渐变_74" x1="21.38" y1="35.26" x2="48.04" y2="35.26" gradientUnits="userSpaceOnUse"><stop offset="0" stop-color="#6b6b6b"/><stop offset="0.01" stop-color="#767676"/><stop offset="0.03" stop-color="#959595"/><stop offset="0.04" stop-color="#aaa"/><stop offset="0.37" stop-color="#ccc"/><stop offset="0.74" stop-color="#eaeaea"/><stop offset="0.94" stop-color="#f6f6f6"/><stop offset="0.95" stop-color="#ededed"/><stop offset="0.96" stop-color="#d4d4d4"/><stop offset="0.97" stop-color="#ababab"/><stop offset="0.99" stop-color="#737373"/><stop offset="0.99" stop-color="#666"/></linearGradient><linearGradient id="未命名的渐变_74-2" x1="27.55" y1="9.07" x2="51.15" y2="9.07" xlink:href="#未命名的渐变_74"/><linearGradient id="未命名的渐变_74-3" x1="51.16" y1="9.07" x2="74.76" y2="9.07" xlink:href="#未命名的渐变_74"/><linearGradient id="未命名的渐变_74-4" x1="74.76" y1="9.07" x2="98.36" y2="9.07" xlink:href="#未命名的渐变_74"/><linearGradient id="未命名的渐变_74-5" x1="98.36" y1="9.07" x2="121.96" y2="9.07" xlink:href="#未命名的渐变_74"/><linearGradient id="未命名的渐变_74-6" x1="47.88" y1="35.26" x2="74.54" y2="35.26" xlink:href="#未命名的渐变_74"/><linearGradient id="未命名的渐变_74-7" x1="74.54" y1="35.26" x2="101.19" y2="35.26" xlink:href="#未命名的渐变_74"/><linearGradient id="未命名的渐变_74-8" x1="101.19" y1="35.26" x2="127.85" y2="35.26" xlink:href="#未命名的渐变_74"/><linearGradient id="未命名的渐变_105" x1="90.4" y1="62.59" x2="92.14" y2="62.59" gradientUnits="userSpaceOnUse"><stop offset="0" stop-color="#e2e2e2"/><stop offset="0.03" stop-color="#d0d0d0"/><stop offset="0.06" stop-color="#bcbcbc"/><stop offset="0.09" stop-color="#b5b5b5"/><stop offset="0.49" stop-color="#f6f6f6"/><stop offset="0.63" stop-color="#f3f3f3"/><stop offset="0.73" stop-color="#eaeaea"/><stop offset="0.82" stop-color="#dbdbdb"/><stop offset="0.9" stop-color="#c6c6c6"/><stop offset="0.97" stop-color="#aaa"/><stop offset="1" stop-color="#9b9b9b"/></linearGradient><linearGradient id="未命名的渐变_105-2" x1="57.28" y1="62.63" x2="59.02" y2="62.63" xlink:href="#未命名的渐变_105"/><linearGradient id="未命名的渐变_105-3" x1="23.99" y1="62.63" x2="25.73" y2="62.63" xlink:href="#未命名的渐变_105"/><linearGradient id="未命名的渐变_105-4" x1="123.79" y1="62.59" x2="125.53" y2="62.59" xlink:href="#未命名的渐变_105"/></defs><title>Drying system（干燥系统）</title><g id="图层_2" data-name="图层 2"><g id="图层_125" data-name="图层 125"><g id="Drying_system_干燥系统_" data-name="Drying system（干燥系统）"><rect class="cls-1" x="21.38" y="18.15" width="26.65" height="34.22"/><rect class="cls-2" x="27.55" width="23.6" height="18.15"/><rect class="cls-3" x="51.16" width="23.6" height="18.15"/><rect class="cls-4" x="74.76" width="23.6" height="18.15"/><rect class="cls-5" x="98.36" width="23.6" height="18.15"/><rect class="cls-6" x="47.88" y="18.15" width="26.65" height="34.22"/><rect class="cls-7" x="74.54" y="18.15" width="26.65" height="34.22"/><rect class="cls-8" x="101.19" y="18.15" width="26.65" height="34.22"/><rect class="cls-9" x="43.93" y="33.96" width="2.98" height="2.98" rx="0.19"/><rect class="cls-9" x="70.63" y="33.96" width="2.98" height="2.98" rx="0.19"/><rect class="cls-9" x="97.33" y="33.96" width="2.98" height="2.98" rx="0.19"/><rect class="cls-9" x="124.03" y="33.96" width="2.98" height="2.98" rx="0.19"/><rect class="cls-10" x="21.38" y="52.36" width="106.46" height="5.89"/><rect class="cls-11" x="88.91" y="58.26" width="4.59" height="5.6"/><circle class="cls-12" cx="91.31" cy="62.52" r="2.57"/><circle class="cls-13" cx="91.27" cy="62.59" r="0.87"/><rect class="cls-11" x="55.79" y="58.3" width="4.59" height="5.6"/><circle class="cls-12" cx="58.19" cy="62.56" r="2.57"/><circle class="cls-14" cx="58.15" cy="62.63" r="0.87"/><rect class="cls-11" x="22.5" y="58.3" width="4.59" height="5.6"/><circle class="cls-12" cx="24.9" cy="62.56" r="2.57"/><circle class="cls-15" cx="24.86" cy="62.63" r="0.87"/><rect class="cls-11" x="122.3" y="58.26" width="4.59" height="5.6"/><circle class="cls-12" cx="124.7" cy="62.52" r="2.57"/><circle class="cls-16" cx="124.66" cy="62.59" r="0.87"/><rect class="cls-17" y="49.8" width="21.38" height="2.56"/><polygon class="cls-17" points="21.38 56.61 0 52.37 21.38 52.37 21.38 56.61"/><rect class="cls-17" x="127.85" y="49.74" width="21.38" height="2.56" transform="translate(277.07 102.05) rotate(180)"/><polygon class="cls-17" points="127.84 56.55 149.23 52.31 127.84 52.31 127.84 56.55"/><rect class="cls-18" x="31.24" y="1.9" width="6.96" height="5.74"/><polygon class="cls-19" points="45.57 3.38 43.97 3.38 43.17 4.77 43.97 6.15 45.57 6.15 46.37 4.77 45.57 3.38"/><circle class="cls-20" cx="44.77" cy="4.77" r="1.2"/><circle class="cls-19" cx="44.77" cy="4.77" r="0.75"/><rect class="cls-21" x="32" y="2.52" width="5.45" height="4.5"/><circle class="cls-22" cx="34.63" cy="11.54" r="0.93"/><circle class="cls-23" cx="34.63" cy="11.54" r="0.66"/><circle class="cls-22" cx="39.65" cy="11.59" r="0.93"/><circle class="cls-23" cx="39.65" cy="11.59" r="0.66"/><circle class="cls-22" cx="44.49" cy="11.54" r="0.93"/><circle class="cls-23" cx="44.49" cy="11.54" r="0.66"/><circle class="cls-22" cx="34.71" cy="15.42" r="0.92"/><circle class="cls-24" cx="34.71" cy="15.42" r="0.65"/><circle class="cls-22" cx="39.38" cy="15.42" r="0.92"/><circle class="cls-24" cx="39.38" cy="15.42" r="0.65"/><circle class="cls-22" cx="44.49" cy="15.31" r="0.92"/><circle class="cls-24" cx="44.49" cy="15.31" r="0.65"/><rect class="cls-18" x="54.85" y="1.9" width="6.96" height="5.74"/><polygon class="cls-19" points="69.18 3.38 67.58 3.38 66.78 4.77 67.58 6.15 69.18 6.15 69.98 4.77 69.18 3.38"/><circle class="cls-20" cx="68.38" cy="4.77" r="1.2"/><circle class="cls-19" cx="68.38" cy="4.77" r="0.75"/><rect class="cls-21" x="55.6" y="2.52" width="5.45" height="4.5"/><circle class="cls-22" cx="58.24" cy="11.54" r="0.93"/><circle class="cls-23" cx="58.24" cy="11.54" r="0.66"/><circle class="cls-22" cx="63.26" cy="11.59" r="0.93"/><circle class="cls-23" cx="63.26" cy="11.59" r="0.66"/><circle class="cls-22" cx="68.1" cy="11.54" r="0.93"/><circle class="cls-23" cx="68.1" cy="11.54" r="0.66"/><circle class="cls-22" cx="58.32" cy="15.42" r="0.92"/><circle class="cls-24" cx="58.32" cy="15.42" r="0.65"/><circle class="cls-22" cx="62.99" cy="15.42" r="0.92"/><circle class="cls-24" cx="62.99" cy="15.42" r="0.65"/><circle class="cls-22" cx="68.1" cy="15.31" r="0.92"/><circle class="cls-24" cx="68.1" cy="15.31" r="0.65"/><rect class="cls-18" x="78.45" y="1.9" width="6.96" height="5.74"/><polygon class="cls-19" points="92.78 3.38 91.18 3.38 90.38 4.77 91.18 6.15 92.78 6.15 93.58 4.77 92.78 3.38"/><circle class="cls-20" cx="91.98" cy="4.77" r="1.2"/><circle class="cls-19" cx="91.98" cy="4.77" r="0.75"/><rect class="cls-21" x="79.2" y="2.52" width="5.45" height="4.5"/><circle class="cls-22" cx="81.84" cy="11.54" r="0.93"/><circle class="cls-23" cx="81.84" cy="11.54" r="0.66"/><circle class="cls-22" cx="86.86" cy="11.59" r="0.93"/><circle class="cls-23" cx="86.86" cy="11.59" r="0.66"/><circle class="cls-22" cx="91.7" cy="11.54" r="0.93"/><circle class="cls-23" cx="91.7" cy="11.54" r="0.66"/><circle class="cls-22" cx="81.92" cy="15.42" r="0.92"/><circle class="cls-24" cx="81.92" cy="15.42" r="0.65"/><circle class="cls-22" cx="86.59" cy="15.42" r="0.92"/><circle class="cls-24" cx="86.59" cy="15.42" r="0.65"/><circle class="cls-22" cx="91.7" cy="15.31" r="0.92"/><circle class="cls-24" cx="91.7" cy="15.31" r="0.65"/><rect class="cls-18" x="102.05" y="1.9" width="6.96" height="5.74"/><polygon class="cls-19" points="116.38 3.38 114.78 3.38 113.98 4.77 114.78 6.15 116.38 6.15 117.18 4.77 116.38 3.38"/><circle class="cls-20" cx="115.58" cy="4.77" r="1.2"/><circle class="cls-19" cx="115.58" cy="4.77" r="0.75"/><rect class="cls-21" x="102.8" y="2.52" width="5.45" height="4.5"/><circle class="cls-22" cx="105.44" cy="11.54" r="0.93"/><circle class="cls-23" cx="105.44" cy="11.54" r="0.66"/><circle class="cls-22" cx="110.46" cy="11.59" r="0.93"/><circle class="cls-23" cx="110.46" cy="11.59" r="0.66"/><circle class="cls-22" cx="115.3" cy="11.54" r="0.93"/><circle class="cls-23" cx="115.3" cy="11.54" r="0.66"/><circle class="cls-22" cx="105.52" cy="15.42" r="0.92"/><circle class="cls-24" cx="105.52" cy="15.42" r="0.65"/><circle class="cls-22" cx="110.19" cy="15.42" r="0.92"/><circle class="cls-24" cx="110.19" cy="15.42" r="0.65"/><circle class="cls-22" cx="115.3" cy="15.31" r="0.92"/><circle class="cls-24" cx="115.3" cy="15.31" r="0.65"/></g></g></g></svg>