<svg xmlns="http://www.w3.org/2000/svg" xmlns:xlink="http://www.w3.org/1999/xlink" viewBox="0 0 89.98 150"><defs><style>.cls-1{fill:url(#未命名的渐变_254);}.cls-2{fill:url(#未命名的渐变_32);}.cls-16,.cls-3{fill:#252628;}.cls-4{fill:url(#未命名的渐变_32-2);}.cls-5{fill:url(#未命名的渐变_205);}.cls-6{fill:#b7c1cd;}.cls-7{fill:#a3b372;}.cls-8{fill:#646e46;}.cls-10,.cls-11,.cls-12,.cls-9{stroke:#505458;stroke-miterlimit:10;stroke-width:0.1px;}.cls-9{fill:url(#未命名的渐变_204);}.cls-10{fill:url(#未命名的渐变_204-2);}.cls-11{fill:url(#未命名的渐变_204-3);}.cls-12{fill:url(#未命名的渐变_204-4);}.cls-13{fill:#5c6066;}.cls-14{fill:url(#未命名的渐变_97);}.cls-15{fill:url(#未命名的渐变_254-2);}.cls-16{opacity:0.6;}.cls-17{opacity:0.2;}</style><linearGradient id="未命名的渐变_254" x1="89.42" y1="1.97" x2="0.57" y2="90.82" gradientUnits="userSpaceOnUse"><stop offset="0" stop-color="#ebf0f5"/><stop offset="1" stop-color="#b8c0cc"/></linearGradient><linearGradient id="未命名的渐变_32" x1="62.37" y1="98.67" x2="27.55" y2="133.49" gradientUnits="userSpaceOnUse"><stop offset="0" stop-color="#abafb3"/><stop offset="1" stop-color="#45484d"/></linearGradient><linearGradient id="未命名的渐变_32-2" x1="66.09" y1="118.07" x2="23.83" y2="160.34" xlink:href="#未命名的渐变_32"/><linearGradient id="未命名的渐变_205" x1="105.01" y1="203.64" x2="132.97" y2="203.64" gradientTransform="translate(-74 -76)" gradientUnits="userSpaceOnUse"><stop offset="0" stop-color="#767b82"/><stop offset="0.02" stop-color="#9ba1ab"/><stop offset="0.98" stop-color="#9ba1ab"/><stop offset="0.99" stop-color="#d7dce0"/><stop offset="1" stop-color="#767b82"/></linearGradient><linearGradient id="未命名的渐变_204" x1="34.72" y1="112.33" x2="33.47" y2="113.58" gradientUnits="userSpaceOnUse"><stop offset="0" stop-color="#9ba1ab"/><stop offset="0" stop-color="#abb1ba"/><stop offset="0.09" stop-color="#abb1ba"/><stop offset="0.46" stop-color="#d7dce0"/><stop offset="1" stop-color="#a9b1bb"/></linearGradient><linearGradient id="未命名的渐变_204-2" x1="34.72" y1="120.64" x2="33.47" y2="121.89" xlink:href="#未命名的渐变_204"/><linearGradient id="未命名的渐变_204-3" x1="56.53" y1="112.33" x2="55.28" y2="113.58" xlink:href="#未命名的渐变_204"/><linearGradient id="未命名的渐变_204-4" x1="56.53" y1="120.64" x2="55.28" y2="121.89" xlink:href="#未命名的渐变_204"/><linearGradient id="未命名的渐变_97" x1="46.59" y1="119.07" x2="43.39" y2="115.86" gradientUnits="userSpaceOnUse"><stop offset="0" stop-color="#5c6066"/><stop offset="1" stop-color="#cfdae6"/></linearGradient><linearGradient id="未命名的渐变_254-2" x1="43.18" y1="117.46" x2="46.8" y2="117.46" gradientTransform="matrix(1, 0, 0, 1, -0.01, -0.02)" xlink:href="#未命名的渐变_254"/></defs><title>Electronic flowhood(电子流动罩)</title><g id="图层_2" data-name="图层 2"><g id="图层_6" data-name="图层 6"><g id="Electronic_flowhood_电子流动罩_" data-name="Electronic flowhood(电子流动罩)"><polygon class="cls-1" points="72 108.23 17.98 108.23 0 2.54 89.98 2.54 72 108.23"/><rect class="cls-2" x="17.98" y="108.24" width="53.97" height="15.69"/><rect class="cls-3" x="17.98" y="140.08" width="3.39" height="9.92"/><rect class="cls-3" x="68.55" y="140.08" width="3.39" height="9.92"/><polygon class="cls-4" points="78.5 147.93 11.42 147.93 17.98 123.92 71.94 123.92 78.5 147.93"/><rect class="cls-5" x="31.01" y="109.64" width="27.96" height="35.99"/><rect class="cls-3" x="32.86" y="125.22" width="24.26" height="20.41"/><rect class="cls-3" x="32.86" y="111.67" width="24.26" height="10.88"/><rect class="cls-6" x="35.44" y="112.96" width="19.23" height="8.31" rx="0.5"/><rect class="cls-6" x="35.73" y="126.51" width="18.53" height="5.36" rx="0.5"/><rect class="cls-7" x="37.07" y="127.56" width="15.84" height="3.25" rx="0.38"/><path class="cls-8" d="M52.54,127.69a.25.25,0,0,1,.25.25v2.5a.25.25,0,0,1-.25.25H37.45a.25.25,0,0,1-.25-.25v-2.5a.25.25,0,0,1,.25-.25H52.54m0-.25H37.45a.5.5,0,0,0-.5.5v2.5a.5.5,0,0,0,.5.5H52.54a.5.5,0,0,0,.5-.5v-2.5a.5.5,0,0,0-.5-.5Z"/><rect class="cls-6" x="35.73" y="133.65" width="18.53" height="8.37" rx="0.5"/><circle class="cls-9" cx="34.1" cy="112.96" r="0.88"/><circle class="cls-10" cx="34.1" cy="121.27" r="0.88"/><circle class="cls-11" cx="55.91" cy="112.96" r="0.88"/><circle class="cls-12" cx="55.91" cy="121.27" r="0.88"/><rect class="cls-13" width="89.98" height="2.54"/><path class="cls-3" d="M46.59,115.86a2.27,2.27,0,0,1,.4,2.67,2,2,0,0,1-.4.53,1.9,1.9,0,0,1-.54.4A2.26,2.26,0,0,1,43,116.4a2.29,2.29,0,0,1,.4-.54,2.55,2.55,0,0,1,.53-.4A2.28,2.28,0,0,1,46.59,115.86Z"/><path class="cls-14" d="M45,115.45a2,2,0,0,1,1.43.59,2,2,0,0,1,.36,2.37,1.85,1.85,0,0,1-.35.48,2.09,2.09,0,0,1-.49.35,2.05,2.05,0,0,1-.94.24,2,2,0,0,1-1.77-3,1.6,1.6,0,0,1,.35-.48,2.35,2.35,0,0,1,.47-.36,2,2,0,0,1,.94-.23m0-.25a2.34,2.34,0,0,0-1.06.26,2.55,2.55,0,0,0-.53.4,2.26,2.26,0,0,0,0,3.2,2.23,2.23,0,0,0,2.66.4,1.9,1.9,0,0,0,.54-.4,2,2,0,0,0,.4-.53,2.26,2.26,0,0,0-2-3.33Z"/><path class="cls-15" d="M44.11,115.65l2.69,2.69a2.55,2.55,0,0,1-.4.53,2.29,2.29,0,0,1-.54.4l-2.68-2.68a2.29,2.29,0,0,1,.4-.54A2.55,2.55,0,0,1,44.11,115.65Z"/><rect class="cls-16" x="39" y="114.67" width="3.2" height="1.24"/><rect class="cls-16" x="47.63" y="114.67" width="3.2" height="1.24"/><rect class="cls-16" x="39.09" y="136.58" width="2.52" height="2.52"/><rect class="cls-16" x="42.16" y="136.58" width="2.52" height="2.52"/><rect class="cls-16" x="45.24" y="136.58" width="2.52" height="2.52"/><rect class="cls-16" x="48.31" y="136.58" width="2.52" height="2.52"/></g></g></g></svg>