<svg xmlns="http://www.w3.org/2000/svg" xmlns:xlink="http://www.w3.org/1999/xlink" viewBox="0 0 101.8 150.24"><defs><style>.cls-1{fill:url(#未命名的渐变_3);}.cls-2{fill:url(#未命名的渐变_3-2);}.cls-3{fill:url(#未命名的渐变_105);}.cls-4{fill:url(#未命名的渐变_105-2);}.cls-5{fill:url(#未命名的渐变_67);}.cls-6{fill:url(#未命名的渐变_67-2);}.cls-7{fill:url(#未命名的渐变_67-3);}.cls-8{fill:url(#未命名的渐变_67-4);}.cls-9{fill:url(#未命名的渐变_105-3);}.cls-10{fill:url(#未命名的渐变_105-4);}.cls-11{fill:url(#未命名的渐变_3-3);}.cls-12{fill:url(#未命名的渐变_3-4);}.cls-13{fill:url(#未命名的渐变_67-5);}.cls-14{opacity:0.2;}</style><linearGradient id="未命名的渐变_3" x1="35.86" y1="94.62" x2="40.21" y2="94.88" gradientUnits="userSpaceOnUse"><stop offset="0" stop-color="#e2e2e2"/><stop offset="0.03" stop-color="#d0d0d0"/><stop offset="0.06" stop-color="#bcbcbc"/><stop offset="0.09" stop-color="#b5b5b5"/><stop offset="0.49" stop-color="#f6f6f6"/><stop offset="0.63" stop-color="#f3f3f3"/><stop offset="0.73" stop-color="#eaeaea"/><stop offset="0.82" stop-color="#dbdbdb"/><stop offset="0.9" stop-color="#c6c6c6"/><stop offset="0.97" stop-color="#aaa"/><stop offset="1" stop-color="#9b9b9b"/></linearGradient><linearGradient id="未命名的渐变_3-2" x1="-608.12" y1="94.62" x2="-603.77" y2="94.88" gradientTransform="matrix(-1, 0, 0, 1, -543.17, 0)" xlink:href="#未命名的渐变_3"/><linearGradient id="未命名的渐变_105" x1="42.88" y1="92.82" x2="58.78" y2="92.82" xlink:href="#未命名的渐变_3"/><linearGradient id="未命名的渐变_105-2" x1="5.06" y1="21.62" x2="96.12" y2="21.62" xlink:href="#未命名的渐变_3"/><linearGradient id="未命名的渐变_67" x1="5.21" y1="21.84" x2="96.55" y2="21.84" gradientUnits="userSpaceOnUse"><stop offset="0" stop-color="#6b6b6b"/><stop offset="0.11" stop-color="#767676"/><stop offset="0.3" stop-color="#959595"/><stop offset="0.41" stop-color="#aaa"/><stop offset="0.56" stop-color="#ccc"/><stop offset="0.71" stop-color="#eaeaea"/><stop offset="0.8" stop-color="#f6f6f6"/><stop offset="0.83" stop-color="#ededed"/><stop offset="0.87" stop-color="#d4d4d4"/><stop offset="0.92" stop-color="#ababab"/><stop offset="0.98" stop-color="#737373"/><stop offset="0.99" stop-color="#666"/></linearGradient><linearGradient id="未命名的渐变_67-2" x1="13.72" y1="60.84" x2="87.18" y2="60.84" xlink:href="#未命名的渐变_67"/><linearGradient id="未命名的渐变_67-3" x1="10.6" y1="90.23" x2="91.15" y2="90.23" xlink:href="#未命名的渐变_67"/><linearGradient id="未命名的渐变_67-4" x1="6.82" y1="119.24" x2="95.27" y2="119.24" xlink:href="#未命名的渐变_67"/><linearGradient id="未命名的渐变_105-3" x1="2.3" y1="20.05" x2="99.17" y2="20.05" xlink:href="#未命名的渐变_3"/><linearGradient id="未命名的渐变_105-4" x1="2.3" y1="22.78" x2="99.17" y2="22.78" xlink:href="#未命名的渐变_3"/><linearGradient id="未命名的渐变_3-3" x1="-671.8" y1="124.37" x2="-667.45" y2="124.63" gradientTransform="matrix(-1, 0.05, 0.05, 1.01, -582.57, 4.57)" xlink:href="#未命名的渐变_3"/><linearGradient id="未命名的渐变_3-4" x1="-52.07" y1="91.37" x2="-47.72" y2="91.63" gradientTransform="matrix(1, 0.05, -0.05, 1.01, 64, 4.57)" xlink:href="#未命名的渐变_3"/><linearGradient id="未命名的渐变_67-5" x1="0" y1="148.25" x2="101.8" y2="148.25" xlink:href="#未命名的渐变_67"/></defs><title>Elevated tank 1（高位水箱）</title><g id="图层_2" data-name="图层 2"><g id="图层_125" data-name="图层 125"><g id="Elevated_tank_1_高位水箱_" data-name="Elevated tank 1（高位水箱）"><polygon class="cls-1" points="37.29 146.27 32.73 146.27 38.9 43.23 43.47 43.23 37.29 146.27"/><polygon class="cls-2" points="63.51 146.27 68.08 146.27 61.9 43.23 57.34 43.23 63.51 146.27"/><rect class="cls-3" x="42.88" y="39.19" width="15.9" height="107.27"/><rect class="cls-4" x="5.06" width="91.06" height="43.23" rx="1.94"/><rect class="cls-5" x="5.21" y="18.24" width="91.34" height="7.19"/><rect class="cls-6" x="13.72" y="58.85" width="73.45" height="3.98"/><rect class="cls-7" x="10.6" y="88.24" width="80.55" height="3.98"/><rect class="cls-8" x="6.82" y="117.25" width="88.46" height="3.98"/><rect class="cls-9" x="2.3" y="18.95" width="96.88" height="2.19" rx="0.25"/><rect class="cls-10" x="2.3" y="21.69" width="96.88" height="2.19" rx="0.25"/><polygon class="cls-11" points="96.41 147.27 100.97 147.03 89.19 42.8 84.63 43.05 96.41 147.27"/><polygon class="cls-12" points="5.64 146.98 1.08 146.74 12.86 42.52 17.42 42.76 5.64 146.98"/><rect class="cls-13" y="146.27" width="101.8" height="3.98"/></g></g></g></svg>