<svg xmlns="http://www.w3.org/2000/svg" xmlns:xlink="http://www.w3.org/1999/xlink" viewBox="0 0 98.23 150"><defs><style>.cls-1{fill:url(#未命名的渐变_67);}.cls-2{fill:url(#未命名的渐变_143);}.cls-3{fill:url(#未命名的渐变_143-2);}.cls-4{fill:url(#未命名的渐变_143-3);}.cls-5{fill:url(#未命名的渐变_143-4);}.cls-6{fill:url(#未命名的渐变_143-5);}.cls-7{fill:url(#未命名的渐变_143-6);}.cls-8{fill:url(#未命名的渐变_143-7);}.cls-9{fill:url(#未命名的渐变_143-8);}.cls-10{fill:url(#未命名的渐变_143-9);}.cls-11{fill:url(#未命名的渐变_143-10);}.cls-12{fill:url(#未命名的渐变_143-11);}.cls-13{fill:url(#未命名的渐变_143-12);}.cls-14{fill:url(#未命名的渐变_143-13);}.cls-15{fill:url(#未命名的渐变_143-14);}.cls-16{fill:url(#未命名的渐变_143-15);}.cls-17{fill:url(#未命名的渐变_143-16);}.cls-18{fill:url(#未命名的渐变_143-17);}.cls-19{fill:url(#未命名的渐变_143-18);}.cls-20{fill:url(#未命名的渐变_143-19);}.cls-21{fill:url(#未命名的渐变_143-20);}.cls-22{fill:url(#未命名的渐变_143-21);}.cls-23{fill:url(#未命名的渐变_143-22);}.cls-24{fill:url(#未命名的渐变_67-2);}.cls-25{opacity:0.2;}</style><linearGradient id="未命名的渐变_67" x1="2.01" y1="32.16" x2="97.04" y2="32.16" gradientUnits="userSpaceOnUse"><stop offset="0" stop-color="#6b6b6b"/><stop offset="0.11" stop-color="#767676"/><stop offset="0.3" stop-color="#959595"/><stop offset="0.41" stop-color="#aaa"/><stop offset="0.56" stop-color="#ccc"/><stop offset="0.71" stop-color="#eaeaea"/><stop offset="0.8" stop-color="#f6f6f6"/><stop offset="0.83" stop-color="#ededed"/><stop offset="0.87" stop-color="#d4d4d4"/><stop offset="0.92" stop-color="#ababab"/><stop offset="0.98" stop-color="#737373"/><stop offset="0.99" stop-color="#666"/></linearGradient><linearGradient id="未命名的渐变_143" x1="1.53" y1="85.29" x2="7.63" y2="85.29" gradientUnits="userSpaceOnUse"><stop offset="0" stop-color="#b7b7b7"/><stop offset="0.03" stop-color="#9b9d9d"/><stop offset="0.07" stop-color="#878b8b"/><stop offset="0.09" stop-color="#808484"/><stop offset="0.2" stop-color="#a3a6a6"/><stop offset="0.49" stop-color="#f6f6f6"/><stop offset="0.61" stop-color="#f3f3f3"/><stop offset="0.7" stop-color="#eaeaea"/><stop offset="0.77" stop-color="#dbdbdb"/><stop offset="0.83" stop-color="#c5c5c5"/><stop offset="0.9" stop-color="#aaa"/><stop offset="0.95" stop-color="#888"/><stop offset="1" stop-color="#666"/></linearGradient><linearGradient id="未命名的渐变_143-2" x1="682.43" y1="181.53" x2="686.17" y2="181.53" gradientTransform="matrix(0.36, -0.74, 0.72, 0.35, -331.6, 491.32)" xlink:href="#未命名的渐变_143"/><linearGradient id="未命名的渐变_143-3" x1="721.97" y1="-578.07" x2="725.27" y2="-578.07" gradientTransform="matrix(0.35, -0.74, 0.24, 0.11, -37, 640.62)" xlink:href="#未命名的渐变_143"/><linearGradient id="未命名的渐变_143-4" x1="594.65" y1="-633.72" x2="597.95" y2="-633.72" gradientTransform="matrix(0.35, -0.74, 0.24, 0.11, -37, 640.62)" xlink:href="#未命名的渐变_143"/><linearGradient id="未命名的渐变_143-5" x1="821.77" y1="364.12" x2="825.29" y2="364.12" gradientTransform="matrix(-0.36, -0.74, -0.47, 0.24, 506.45, 565.54)" xlink:href="#未命名的渐变_143"/><linearGradient id="未命名的渐变_143-6" x1="725.95" y1="372.04" x2="729.47" y2="372.04" gradientTransform="matrix(-0.36, -0.74, -0.47, 0.24, 506.45, 565.54)" xlink:href="#未命名的渐变_143"/><linearGradient id="未命名的渐变_143-7" x1="790.97" y1="449.6" x2="794.67" y2="449.6" gradientTransform="matrix(-0.35, -0.74, -0.69, 0.33, 637.43, 508.09)" xlink:href="#未命名的渐变_143"/><linearGradient id="未命名的渐变_143-8" x1="758.94" y1="464.02" x2="762.63" y2="464.02" gradientTransform="matrix(-0.35, -0.74, -0.69, 0.33, 637.43, 508.09)" xlink:href="#未命名的渐变_143"/><linearGradient id="未命名的渐变_143-9" x1="657.28" y1="207.02" x2="661" y2="207.02" gradientTransform="translate(-333.4 500.42) rotate(-64.69) scale(0.82 0.8)" xlink:href="#未命名的渐变_143"/><linearGradient id="未命名的渐变_143-10" x1="626.82" y1="222.57" x2="630.54" y2="222.57" gradientTransform="matrix(0.35, -0.74, 0.72, 0.34, -333.54, 500.42)" xlink:href="#未命名的渐变_143"/><linearGradient id="未命名的渐变_143-11" x1="31.45" y1="85.29" x2="37.55" y2="85.29" xlink:href="#未命名的渐变_143"/><linearGradient id="未命名的渐变_143-12" x1="61.38" y1="85.29" x2="67.48" y2="85.29" xlink:href="#未命名的渐变_143"/><linearGradient id="未命名的渐变_143-13" x1="91.31" y1="85.29" x2="97.41" y2="85.29" xlink:href="#未命名的渐变_143"/><linearGradient id="未命名的渐变_143-14" x1="1.53" y1="30.34" x2="97.29" y2="30.34" xlink:href="#未命名的渐变_143"/><linearGradient id="未命名的渐变_143-15" x1="1.53" y1="45.01" x2="97.29" y2="45.01" xlink:href="#未命名的渐变_143"/><linearGradient id="未命名的渐变_143-16" x1="1.53" y1="59.68" x2="97.29" y2="59.68" xlink:href="#未命名的渐变_143"/><linearGradient id="未命名的渐变_143-17" x1="1.53" y1="74.35" x2="97.29" y2="74.35" xlink:href="#未命名的渐变_143"/><linearGradient id="未命名的渐变_143-18" x1="1.53" y1="89.02" x2="97.29" y2="89.02" xlink:href="#未命名的渐变_143"/><linearGradient id="未命名的渐变_143-19" x1="1.53" y1="103.69" x2="97.29" y2="103.69" xlink:href="#未命名的渐变_143"/><linearGradient id="未命名的渐变_143-20" x1="1.53" y1="118.35" x2="97.29" y2="118.35" xlink:href="#未命名的渐变_143"/><linearGradient id="未命名的渐变_143-21" x1="1.53" y1="133.02" x2="97.29" y2="133.02" xlink:href="#未命名的渐变_143"/><linearGradient id="未命名的渐变_143-22" x1="2.01" y1="5.91" x2="97.04" y2="5.91" xlink:href="#未命名的渐变_143"/><linearGradient id="未命名的渐变_67-2" x1="0" y1="2.51" x2="98.23" y2="2.51" xlink:href="#未命名的渐变_67"/></defs><title>Elevated tank 1（高位水箱） (3)</title><g id="图层_2" data-name="图层 2"><g id="图层_125" data-name="图层 125"><g id="Elevated_tank_1_高位水箱_" data-name="Elevated tank 1（高位水箱）"><path class="cls-1" d="M97,33.82s-9.82,27-47.63,25.86C7.63,58.48,2,33.82,2,33.82V4.61H97Z"/><rect class="cls-2" x="1.53" y="20.58" width="6.1" height="129.42"/><polygon class="cls-3" points="93.97 73.9 92.86 76.18 1.53 30.31 2.64 28.04 93.97 73.9"/><polygon class="cls-4" points="94.3 44.04 93.23 46.34 62.61 31.67 63.68 29.37 94.3 44.04"/><polygon class="cls-5" points="36.27 132.26 35.19 134.56 4.58 119.89 5.65 117.59 36.27 132.26"/><polygon class="cls-6" points="2.38 59.31 3.49 61.59 64.13 31.14 63.02 28.86 2.38 59.31"/><polygon class="cls-7" points="33.55 131.68 34.67 133.96 95.31 103.5 94.2 101.23 33.55 131.68"/><polygon class="cls-8" points="3.58 88.31 4.66 90.6 92.33 48.13 91.25 45.84 3.58 88.31"/><polygon class="cls-9" points="5.03 116.78 6.11 119.07 93.78 76.59 92.7 74.31 5.03 116.78"/><polygon class="cls-10" points="93.97 102.61 92.9 104.91 0.75 60.75 1.82 58.46 93.97 102.61"/><polygon class="cls-11" points="94.36 130.53 93.29 132.82 1.14 88.67 2.21 86.38 94.36 130.53"/><rect class="cls-12" x="31.45" y="20.58" width="6.1" height="129.42"/><rect class="cls-13" x="61.38" y="20.58" width="6.1" height="129.42"/><rect class="cls-14" x="91.31" y="20.58" width="6.1" height="129.42"/><rect class="cls-15" x="1.53" y="29.1" width="95.76" height="2.47"/><rect class="cls-16" x="1.53" y="43.77" width="95.76" height="2.47"/><rect class="cls-17" x="1.53" y="58.44" width="95.76" height="2.47"/><rect class="cls-18" x="1.53" y="73.11" width="95.76" height="2.47"/><rect class="cls-19" x="1.53" y="87.78" width="95.76" height="2.47"/><rect class="cls-20" x="1.53" y="102.45" width="95.76" height="2.47"/><rect class="cls-21" x="1.53" y="117.12" width="95.76" height="2.47"/><rect class="cls-22" x="1.53" y="131.79" width="95.76" height="2.47"/><rect class="cls-23" x="2.01" y="5.03" width="95.03" height="1.77"/><rect class="cls-24" width="98.23" height="5.03" rx="0.65"/></g></g></g></svg>