<svg xmlns="http://www.w3.org/2000/svg" xmlns:xlink="http://www.w3.org/1999/xlink" viewBox="0 0 99.65 149.41"><defs><style>.cls-1{fill:url(#未命名的渐变_67);}.cls-2{fill:url(#未命名的渐变_143);}.cls-3{fill:url(#未命名的渐变_143-2);}.cls-4{fill:url(#未命名的渐变_143-3);}.cls-5{fill:url(#未命名的渐变_143-4);}.cls-6{fill:url(#未命名的渐变_143-5);}.cls-7{fill:url(#未命名的渐变_143-6);}.cls-8{fill:url(#未命名的渐变_143-7);}.cls-9{fill:url(#未命名的渐变_143-8);}.cls-10{fill:url(#未命名的渐变_143-9);}.cls-11{fill:url(#未命名的渐变_143-10);}.cls-12{fill:url(#未命名的渐变_143-11);}.cls-13{fill:url(#未命名的渐变_143-12);}.cls-14{fill:url(#未命名的渐变_143-13);}.cls-15{fill:url(#未命名的渐变_143-14);}.cls-16{fill:url(#未命名的渐变_143-15);}.cls-17{fill:url(#未命名的渐变_143-16);}.cls-18{fill:url(#未命名的渐变_143-17);}.cls-19{fill:url(#未命名的渐变_143-18);}.cls-20{fill:url(#未命名的渐变_143-19);}.cls-21{fill:url(#未命名的渐变_143-20);}.cls-22{fill:url(#未命名的渐变_143-21);}.cls-23{opacity:0.2;}</style><linearGradient id="未命名的渐变_67" x1="1.3" y1="15.85" x2="99.28" y2="15.85" gradientUnits="userSpaceOnUse"><stop offset="0" stop-color="#6b6b6b"/><stop offset="0.11" stop-color="#767676"/><stop offset="0.3" stop-color="#959595"/><stop offset="0.41" stop-color="#aaa"/><stop offset="0.56" stop-color="#ccc"/><stop offset="0.71" stop-color="#eaeaea"/><stop offset="0.8" stop-color="#f6f6f6"/><stop offset="0.83" stop-color="#ededed"/><stop offset="0.87" stop-color="#d4d4d4"/><stop offset="0.92" stop-color="#ababab"/><stop offset="0.98" stop-color="#737373"/><stop offset="0.99" stop-color="#666"/></linearGradient><linearGradient id="未命名的渐变_143" x1="0.8" y1="83.57" x2="7.09" y2="83.57" gradientUnits="userSpaceOnUse"><stop offset="0" stop-color="#b7b7b7"/><stop offset="0.03" stop-color="#9b9d9d"/><stop offset="0.07" stop-color="#878b8b"/><stop offset="0.09" stop-color="#808484"/><stop offset="0.2" stop-color="#a3a6a6"/><stop offset="0.49" stop-color="#f6f6f6"/><stop offset="0.61" stop-color="#f3f3f3"/><stop offset="0.7" stop-color="#eaeaea"/><stop offset="0.77" stop-color="#dbdbdb"/><stop offset="0.83" stop-color="#c5c5c5"/><stop offset="0.9" stop-color="#aaa"/><stop offset="0.95" stop-color="#888"/><stop offset="1" stop-color="#666"/></linearGradient><linearGradient id="未命名的渐变_143-2" x1="783.94" y1="-61.14" x2="787.08" y2="-61.14" gradientTransform="translate(-596.65 98.61) scale(0.82 0.8)" xlink:href="#未命名的渐变_143"/><linearGradient id="未命名的渐变_143-3" x1="828.38" y1="-1310.76" x2="831.52" y2="-1310.76" gradientTransform="translate(-601.48 382.89) scale(0.82 0.27)" xlink:href="#未命名的渐变_143"/><linearGradient id="未命名的渐变_143-4" x1="698.43" y1="-1370.06" x2="701.58" y2="-1370.06" gradientTransform="translate(-554.6 488.37) scale(0.82 0.27)" xlink:href="#未命名的渐变_143"/><linearGradient id="未命名的渐变_143-5" x1="1155.79" y1="725.91" x2="1158.93" y2="725.91" gradientTransform="matrix(0.82, 0, 0, -0.53, -916.97, 427.48)" xlink:href="#未命名的渐变_143"/><linearGradient id="未命名的渐变_143-6" x1="1058.07" y1="733.26" x2="1061.22" y2="733.26" gradientTransform="matrix(0.82, 0, 0, -0.53, -804.58, 505)" xlink:href="#未命名的渐变_143"/><linearGradient id="未命名的渐变_143-7" x1="1121.09" y1="702.86" x2="1124.23" y2="702.86" gradientTransform="matrix(0.82, 0, 0, -0.76, -873.31, 601)" xlink:href="#未命名的渐变_143"/><linearGradient id="未命名的渐变_143-8" x1="1088.48" y1="717.51" x2="1091.63" y2="717.51" gradientTransform="matrix(0.82, 0, 0, -0.76, -845.04, 641.11)" xlink:href="#未命名的渐变_143"/><linearGradient id="未命名的渐变_143-9" x1="762.55" y1="-37.5" x2="765.7" y2="-37.5" gradientTransform="translate(-579.48 109.83) scale(0.82 0.8)" xlink:href="#未命名的渐变_143"/><linearGradient id="未命名的渐变_143-10" x1="731.57" y1="-21.68" x2="734.71" y2="-21.68" gradientTransform="translate(-553.64 125.61) scale(0.82 0.8)" xlink:href="#未命名的渐变_143"/><linearGradient id="未命名的渐变_143-11" x1="31.65" y1="83.57" x2="37.94" y2="83.57" xlink:href="#未命名的渐变_143"/><linearGradient id="未命名的渐变_143-12" x1="62.51" y1="83.57" x2="68.8" y2="83.57" xlink:href="#未命名的渐变_143"/><linearGradient id="未命名的渐变_143-13" x1="93.36" y1="83.57" x2="99.65" y2="83.57" xlink:href="#未命名的渐变_143"/><linearGradient id="未命名的渐变_143-14" x1="0.8" y1="27.67" x2="99.53" y2="27.67" xlink:href="#未命名的渐变_143"/><linearGradient id="未命名的渐变_143-15" x1="0.8" y1="42.59" x2="99.53" y2="42.59" xlink:href="#未命名的渐变_143"/><linearGradient id="未命名的渐变_143-16" x1="0.8" y1="57.52" x2="99.53" y2="57.52" xlink:href="#未命名的渐变_143"/><linearGradient id="未命名的渐变_143-17" x1="0.8" y1="72.44" x2="99.53" y2="72.44" xlink:href="#未命名的渐变_143"/><linearGradient id="未命名的渐变_143-18" x1="0.8" y1="87.37" x2="99.53" y2="87.37" xlink:href="#未命名的渐变_143"/><linearGradient id="未命名的渐变_143-19" x1="0.8" y1="102.29" x2="99.53" y2="102.29" xlink:href="#未命名的渐变_143"/><linearGradient id="未命名的渐变_143-20" x1="0.8" y1="117.22" x2="99.53" y2="117.22" xlink:href="#未命名的渐变_143"/><linearGradient id="未命名的渐变_143-21" x1="0.8" y1="132.14" x2="99.53" y2="132.14" xlink:href="#未命名的渐变_143"/></defs><title>Elevated tank 1（高位水箱） (2)</title><g id="图层_2" data-name="图层 2"><g id="图层_125" data-name="图层 125"><g id="Elevated_tank_1_高位水箱_" data-name="Elevated tank 1（高位水箱）"><rect class="cls-1" x="1.3" width="97.97" height="31.69"/><rect class="cls-2" x="0.8" y="17.73" width="6.29" height="131.68"/><rect class="cls-3" x="47.16" y="-2.73" width="2.58" height="105.09" transform="translate(-17.7 71.11) rotate(-63.64)"/><rect class="cls-4" x="78.82" y="17.86" width="2.58" height="34.92" transform="translate(13.94 92.64) rotate(-64.69)"/><rect class="cls-5" x="18.99" y="107.61" width="2.58" height="34.92" transform="translate(-101.46 89.94) rotate(-64.69)"/><rect class="cls-6" x="32.22" y="7.92" width="2.58" height="69.78" transform="translate(10.03 91.85) rotate(-116.36)"/><rect class="cls-7" x="64.36" y="81.55" width="2.58" height="69.78" transform="translate(-9.53 226.97) rotate(-116.36)"/><rect class="cls-8" x="47.38" y="16.11" width="2.58" height="100.19" transform="translate(9.93 138.67) rotate(-115.55)"/><rect class="cls-9" x="48.87" y="45.08" width="2.58" height="100.19" transform="translate(-14.06 181.48) rotate(-115.55)"/><rect class="cls-10" x="46.76" y="27.36" width="2.58" height="105.09" transform="translate(-44.72 89.19) rotate(-64.69)"/><rect class="cls-11" x="47.16" y="55.76" width="2.58" height="105.09" transform="translate(-70.17 105.81) rotate(-64.69)"/><rect class="cls-12" x="31.65" y="17.73" width="6.29" height="131.68"/><rect class="cls-13" x="62.51" y="17.73" width="6.29" height="131.68"/><rect class="cls-14" x="93.36" y="17.73" width="6.29" height="131.68"/><rect class="cls-15" x="0.8" y="26.41" width="98.73" height="2.52"/><rect class="cls-16" x="0.8" y="41.34" width="98.73" height="2.52"/><rect class="cls-17" x="0.8" y="56.26" width="98.73" height="2.52"/><rect class="cls-18" x="0.8" y="71.18" width="98.73" height="2.52"/><rect class="cls-19" x="0.8" y="86.11" width="98.73" height="2.52"/><rect class="cls-20" x="0.8" y="101.03" width="98.73" height="2.52"/><rect class="cls-21" x="0.8" y="115.96" width="98.73" height="2.52"/><rect class="cls-22" x="0.8" y="130.88" width="98.73" height="2.52"/></g></g></g></svg>