<svg xmlns="http://www.w3.org/2000/svg" xmlns:xlink="http://www.w3.org/1999/xlink" viewBox="0 0 152.83 79.06"><defs><style>.cls-1{fill:url(#未命名的渐变_105);}.cls-2{fill:url(#未命名的渐变_105-2);}.cls-3{fill:url(#未命名的渐变_105-3);}.cls-4{fill:url(#未命名的渐变_105-4);}.cls-5{fill:url(#未命名的渐变_105-5);}.cls-6{fill:url(#未命名的渐变_74);}.cls-7{fill:url(#未命名的渐变_67);}.cls-8{fill:url(#未命名的渐变_67-2);}.cls-11,.cls-12,.cls-9{fill:none;stroke-miterlimit:10;stroke-width:0.25px;}.cls-9{stroke:url(#未命名的渐变_67-3);}.cls-10{fill:url(#未命名的渐变_67-4);}.cls-11{stroke:url(#未命名的渐变_67-5);}.cls-12{stroke:url(#未命名的渐变_67-6);}.cls-13{opacity:0.2;}</style><linearGradient id="未命名的渐变_105" x1="77.9" y1="67.29" x2="77.9" y2="8.73" gradientUnits="userSpaceOnUse"><stop offset="0" stop-color="#e2e2e2"/><stop offset="0.03" stop-color="#d0d0d0"/><stop offset="0.06" stop-color="#bcbcbc"/><stop offset="0.09" stop-color="#b5b5b5"/><stop offset="0.49" stop-color="#f6f6f6"/><stop offset="0.63" stop-color="#f3f3f3"/><stop offset="0.73" stop-color="#eaeaea"/><stop offset="0.82" stop-color="#dbdbdb"/><stop offset="0.9" stop-color="#c6c6c6"/><stop offset="0.97" stop-color="#aaa"/><stop offset="1" stop-color="#9b9b9b"/></linearGradient><linearGradient id="未命名的渐变_105-2" x1="40.78" y1="8.59" x2="64.86" y2="8.59" xlink:href="#未命名的渐变_105"/><linearGradient id="未命名的渐变_105-3" x1="39.2" y1="1.41" x2="66.18" y2="1.41" xlink:href="#未命名的渐变_105"/><linearGradient id="未命名的渐变_105-4" x1="20.74" y1="69.47" x2="39.46" y2="69.47" xlink:href="#未命名的渐变_105"/><linearGradient id="未命名的渐变_105-5" x1="116.95" y1="69.47" x2="135.67" y2="69.47" xlink:href="#未命名的渐变_105"/><linearGradient id="未命名的渐变_74" x1="76.41" y1="79.06" x2="76.41" y2="71.32" gradientUnits="userSpaceOnUse"><stop offset="0" stop-color="#6b6b6b"/><stop offset="0.01" stop-color="#767676"/><stop offset="0.03" stop-color="#959595"/><stop offset="0.04" stop-color="#aaa"/><stop offset="0.37" stop-color="#ccc"/><stop offset="0.74" stop-color="#eaeaea"/><stop offset="0.94" stop-color="#f6f6f6"/><stop offset="0.95" stop-color="#ededed"/><stop offset="0.96" stop-color="#d4d4d4"/><stop offset="0.97" stop-color="#ababab"/><stop offset="0.99" stop-color="#737373"/><stop offset="0.99" stop-color="#666"/></linearGradient><linearGradient id="未命名的渐变_67" x1="40.78" y1="3.47" x2="64.86" y2="3.47" gradientUnits="userSpaceOnUse"><stop offset="0" stop-color="#6b6b6b"/><stop offset="0.11" stop-color="#767676"/><stop offset="0.3" stop-color="#959595"/><stop offset="0.41" stop-color="#aaa"/><stop offset="0.56" stop-color="#ccc"/><stop offset="0.71" stop-color="#eaeaea"/><stop offset="0.8" stop-color="#f6f6f6"/><stop offset="0.83" stop-color="#ededed"/><stop offset="0.87" stop-color="#d4d4d4"/><stop offset="0.92" stop-color="#ababab"/><stop offset="0.98" stop-color="#737373"/><stop offset="0.99" stop-color="#666"/></linearGradient><linearGradient id="未命名的渐变_67-2" x1="-466.13" y1="1238.62" x2="-408" y2="1238.62" gradientTransform="translate(458.13 -1200.74)" xlink:href="#未命名的渐变_67"/><linearGradient id="未命名的渐变_67-3" x1="29.94" y1="8.68" x2="29.94" y2="67.06" xlink:href="#未命名的渐变_67"/><linearGradient id="未命名的渐变_67-4" x1="-466.13" y1="564.55" x2="-408" y2="564.55" gradientTransform="matrix(1, 0, 0, -1, 572.24, 602.42)" xlink:href="#未命名的渐变_67"/><linearGradient id="未命名的渐变_67-5" x1="704.01" y1="8.68" x2="704.01" y2="67.06" gradientTransform="matrix(1, 0, 0, -1, -577.7, 75.75)" xlink:href="#未命名的渐变_67"/><linearGradient id="未命名的渐变_67-6" x1="77.96" y1="8.68" x2="77.96" y2="67.06" xlink:href="#未命名的渐变_67"/></defs><title>Elliptical bulk storage tank（椭圆形散装储罐）</title><g id="图层_2" data-name="图层 2"><g id="图层_104" data-name="图层 104"><g id="Elliptical_bulk_storage_tank_椭圆形散装储罐_" data-name="Elliptical bulk storage tank（椭圆形散装储罐）"><path class="cls-1" d="M135.4,8.73H20.4c-8,0-14.47,13.11-14.47,29.28S12.41,67.29,20.4,67.29h115c8,0,14.48-13.11,14.48-29.28S143.39,8.73,135.4,8.73Z"/><path class="cls-2" d="M64.86,9.35s-2.82,3.7-12,3.7c-9.83,0-12-3.7-12-3.7V4.12H64.86Z"/><rect class="cls-3" x="39.2" width="26.99" height="2.82"/><rect class="cls-4" x="20.74" y="67.29" width="18.72" height="4.37"/><rect class="cls-5" x="116.95" y="67.29" width="18.72" height="4.37"/><rect class="cls-6" y="71.32" width="152.83" height="7.74"/><rect class="cls-7" x="40.78" y="2.82" width="24.08" height="1.3"/><rect class="cls-8" x="-8" y="37.55" width="58.13" height="0.65" transform="translate(58.94 16.81) rotate(90)"/><rect class="cls-9" x="27.55" y="8.81" width="4.76" height="58.13" rx="0.57"/><rect class="cls-10" x="106.11" y="37.55" width="58.13" height="0.65" transform="translate(173.05 -97.3) rotate(90)"/><rect class="cls-11" x="123.93" y="8.81" width="4.76" height="58.13" rx="0.57" transform="translate(252.61 75.75) rotate(-180)"/><rect class="cls-12" x="75.57" y="8.81" width="4.76" height="58.13" rx="0.57"/></g></g></g></svg>