<svg xmlns="http://www.w3.org/2000/svg" xmlns:xlink="http://www.w3.org/1999/xlink" viewBox="0 0 150 142.34"><defs><style>.cls-1{fill:url(#未命名的渐变_105);}.cls-2{fill:url(#未命名的渐变_105-2);}.cls-3{fill:url(#未命名的渐变_105-3);}.cls-4{fill:url(#未命名的渐变_105-4);}.cls-5{fill:url(#未命名的渐变_105-5);}.cls-6{fill:url(#未命名的渐变_105-6);}.cls-7{fill:url(#未命名的渐变_105-7);}.cls-8{fill:url(#未命名的渐变_105-8);}.cls-9{fill:url(#未命名的渐变_105-9);}.cls-10{fill:url(#未命名的渐变_105-10);}.cls-11{fill:url(#未命名的渐变_105-11);}.cls-12{fill:url(#未命名的渐变_105-12);}.cls-13{fill:url(#未命名的渐变_105-13);}.cls-14{fill:url(#未命名的渐变_105-14);}.cls-15{fill:url(#未命名的渐变_105-15);}.cls-16{fill:url(#未命名的渐变_105-16);}.cls-17{fill:url(#未命名的渐变_105-17);}.cls-18{fill:url(#未命名的渐变_105-18);}.cls-19{fill:url(#未命名的渐变_105-19);}.cls-20{fill:url(#未命名的渐变_105-20);}.cls-21{fill:url(#未命名的渐变_105-21);}.cls-22{fill:url(#未命名的渐变_105-22);}.cls-23{fill:url(#未命名的渐变_105-23);}.cls-24{fill:url(#未命名的渐变_105-24);}.cls-25{fill:url(#未命名的渐变_105-25);}.cls-26{fill:url(#未命名的渐变_105-26);}.cls-27{fill:url(#未命名的渐变_105-27);}.cls-28{fill:url(#未命名的渐变_105-28);}.cls-29{fill:url(#未命名的渐变_105-29);}.cls-30{fill:url(#未命名的渐变_67);}.cls-31{fill:url(#未命名的渐变_67-2);}.cls-32{fill:url(#未命名的渐变_105-30);}.cls-33{fill:url(#未命名的渐变_105-31);}.cls-34{fill:url(#未命名的渐变_105-32);}.cls-35{fill:url(#未命名的渐变_105-33);}.cls-36{fill:url(#未命名的渐变_105-34);}.cls-37{fill:url(#未命名的渐变_105-35);}.cls-38{fill:url(#未命名的渐变_105-36);}.cls-39{fill:url(#未命名的渐变_105-37);}.cls-40{fill:url(#未命名的渐变_105-38);}.cls-41{fill:url(#未命名的渐变_67-3);}.cls-42{fill:url(#未命名的渐变_67-4);}.cls-43{fill:url(#未命名的渐变_105-39);}.cls-44{fill:url(#未命名的渐变_105-40);}.cls-45{fill:url(#未命名的渐变_105-41);}.cls-46{fill:url(#未命名的渐变_105-42);}.cls-47{fill:url(#未命名的渐变_67-5);}.cls-48{fill:url(#未命名的渐变_67-6);}.cls-49{fill:url(#未命名的渐变_105-43);}.cls-50{fill:url(#未命名的渐变_105-44);}.cls-51{fill:url(#未命名的渐变_105-45);}.cls-52{fill:url(#未命名的渐变_105-46);}.cls-53{fill:url(#未命名的渐变_105-47);}.cls-54{fill:url(#未命名的渐变_105-48);}.cls-55{fill:url(#未命名的渐变_105-49);}.cls-56{fill:url(#未命名的渐变_105-50);}.cls-57{fill:url(#未命名的渐变_105-51);}.cls-58{fill:url(#未命名的渐变_67-7);}.cls-59{fill:url(#未命名的渐变_67-8);}.cls-60{fill:url(#未命名的渐变_67-9);}.cls-61{fill:url(#未命名的渐变_67-10);}.cls-62{fill:url(#未命名的渐变_67-11);}.cls-63{fill:url(#未命名的渐变_67-12);}.cls-64{fill:url(#未命名的渐变_67-13);}.cls-65{fill:url(#未命名的渐变_67-14);}.cls-66{fill:url(#未命名的渐变_67-15);}.cls-67{fill:url(#未命名的渐变_67-16);}.cls-68{fill:url(#未命名的渐变_67-17);}.cls-69{fill:url(#未命名的渐变_67-18);}.cls-70{fill:url(#未命名的渐变_67-19);}.cls-71{fill:url(#未命名的渐变_105-52);}.cls-72{fill:url(#未命名的渐变_105-53);}.cls-73{fill:url(#未命名的渐变_105-54);}.cls-74{fill:url(#未命名的渐变_67-20);}.cls-75{fill:url(#未命名的渐变_67-21);}.cls-76{fill:url(#未命名的渐变_67-22);}.cls-77{fill:url(#未命名的渐变_67-23);}.cls-78{fill:url(#未命名的渐变_67-24);}.cls-79{fill:url(#未命名的渐变_67-25);}.cls-80{fill:url(#未命名的渐变_67-26);}.cls-81{fill:url(#未命名的渐变_67-27);}.cls-82{fill:url(#未命名的渐变_67-28);}.cls-83{fill:url(#未命名的渐变_67-29);}.cls-84{fill:url(#未命名的渐变_67-30);}.cls-85{fill:url(#未命名的渐变_67-31);}.cls-86{fill:url(#未命名的渐变_67-32);}.cls-87{fill:url(#未命名的渐变_105-55);}.cls-88{fill:url(#未命名的渐变_105-56);}.cls-89{fill:url(#未命名的渐变_105-57);}.cls-90{fill:url(#未命名的渐变_105-58);}.cls-91{fill:url(#未命名的渐变_67-33);}.cls-92{fill:url(#未命名的渐变_67-34);}.cls-93{fill:url(#未命名的渐变_67-35);}.cls-94{fill:url(#未命名的渐变_67-36);}.cls-95{fill:url(#未命名的渐变_67-37);}.cls-96{fill:url(#未命名的渐变_67-38);}.cls-97{fill:url(#未命名的渐变_67-39);}.cls-98{fill:url(#未命名的渐变_67-40);}.cls-99{fill:url(#未命名的渐变_67-41);}.cls-100{fill:url(#未命名的渐变_67-42);}.cls-101{fill:url(#未命名的渐变_67-43);}.cls-102{fill:url(#未命名的渐变_67-44);}.cls-103{fill:url(#未命名的渐变_67-45);}.cls-104{fill:url(#未命名的渐变_105-59);}.cls-105{fill:url(#未命名的渐变_105-60);}.cls-106{opacity:0.2;}</style><linearGradient id="未命名的渐变_105" x1="1043.06" y1="-3381.34" x2="1047.51" y2="-3385.79" gradientTransform="translate(1088.51 -3379.67) rotate(180)" gradientUnits="userSpaceOnUse"><stop offset="0" stop-color="#e2e2e2"/><stop offset="0.03" stop-color="#d0d0d0"/><stop offset="0.06" stop-color="#bcbcbc"/><stop offset="0.09" stop-color="#b5b5b5"/><stop offset="0.49" stop-color="#f6f6f6"/><stop offset="0.63" stop-color="#f3f3f3"/><stop offset="0.73" stop-color="#eaeaea"/><stop offset="0.82" stop-color="#dbdbdb"/><stop offset="0.9" stop-color="#c6c6c6"/><stop offset="0.97" stop-color="#aaa"/><stop offset="1" stop-color="#9b9b9b"/></linearGradient><linearGradient id="未命名的渐变_105-2" x1="586.93" y1="-3381.34" x2="591.38" y2="-3385.79" gradientTransform="matrix(1, 0, 0, -1, -564.92, -3379.67)" xlink:href="#未命名的渐变_105"/><linearGradient id="未命名的渐变_105-3" x1="608.73" y1="-855.18" x2="613.18" y2="-859.63" gradientTransform="translate(-564.92 895.07)" xlink:href="#未命名的渐变_105"/><linearGradient id="未命名的渐变_105-4" x1="601.23" y1="-3448.28" x2="605.68" y2="-3452.73" gradientTransform="matrix(1, 0, 0, -1, -564.92, -3368.95)" xlink:href="#未命名的渐变_105"/><linearGradient id="未命名的渐变_105-5" x1="1047.3" y1="-776.11" x2="1051.75" y2="-780.56" gradientTransform="matrix(-1, 0, 0, 1, 1085.12, 916.77)" xlink:href="#未命名的渐变_105"/><linearGradient id="未命名的渐变_105-6" x1="569.63" y1="-776.17" x2="574.25" y2="-780.8" gradientTransform="translate(-563.81 916.77)" xlink:href="#未命名的渐变_105"/><linearGradient id="未命名的渐变_105-7" x1="643.1" y1="-3448.28" x2="647.55" y2="-3452.73" gradientTransform="matrix(1, 0, 0, -1, -564.92, -3368.95)" xlink:href="#未命名的渐变_105"/><linearGradient id="未命名的渐变_105-8" x1="1005.42" y1="-776.11" x2="1009.87" y2="-780.56" gradientTransform="matrix(-1, 0, 0, 1, 1085.12, 916.77)" xlink:href="#未命名的渐变_105"/><linearGradient id="未命名的渐变_105-9" x1="611.5" y1="-776.17" x2="616.13" y2="-780.8" gradientTransform="translate(-563.81 916.77)" xlink:href="#未命名的渐变_105"/><linearGradient id="未命名的渐变_105-10" x1="1000.45" y1="-3381.34" x2="1004.9" y2="-3385.79" xlink:href="#未命名的渐变_105"/><linearGradient id="未命名的渐变_105-11" x1="629.54" y1="-3381.34" x2="633.99" y2="-3385.79" gradientTransform="matrix(1, 0, 0, -1, -564.92, -3379.67)" xlink:href="#未命名的渐变_105"/><linearGradient id="未命名的渐变_105-12" x1="651.33" y1="-855.18" x2="655.78" y2="-859.63" gradientTransform="translate(-564.92 895.07)" xlink:href="#未命名的渐变_105"/><linearGradient id="未命名的渐变_105-13" x1="957.9" y1="-3381.34" x2="962.35" y2="-3385.79" xlink:href="#未命名的渐变_105"/><linearGradient id="未命名的渐变_105-14" x1="672.08" y1="-3381.34" x2="676.53" y2="-3385.79" gradientTransform="matrix(1, 0, 0, -1, -564.92, -3379.67)" xlink:href="#未命名的渐变_105"/><linearGradient id="未命名的渐变_105-15" x1="693.88" y1="-855.18" x2="698.33" y2="-859.63" gradientTransform="translate(-564.92 895.07)" xlink:href="#未命名的渐变_105"/><linearGradient id="未命名的渐变_105-16" x1="14.2" y1="83.49" x2="14.2" y2="76.88" gradientTransform="matrix(1, 0, 0, 1, 0, 0)" xlink:href="#未命名的渐变_105"/><linearGradient id="未命名的渐变_105-17" x1="12.76" y1="84.38" x2="12.76" y2="75.5" gradientTransform="matrix(1, 0, 0, 1, 0, 0)" xlink:href="#未命名的渐变_105"/><linearGradient id="未命名的渐变_105-18" x1="2.35" y1="92.25" x2="11.97" y2="92.25" gradientTransform="matrix(1, 0, 0, 1, 0, 0)" xlink:href="#未命名的渐变_105"/><linearGradient id="未命名的渐变_105-19" x1="0" y1="110.58" x2="14.55" y2="110.58" gradientTransform="matrix(1, 0, 0, 1, 0, 0)" xlink:href="#未命名的渐变_105"/><linearGradient id="未命名的渐变_105-20" x1="13.63" y1="95.34" x2="13.63" y2="90.59" gradientTransform="matrix(1, 0, 0, 1, 0, 0)" xlink:href="#未命名的渐变_105"/><linearGradient id="未命名的渐变_105-21" x1="14.26" y1="57.98" x2="32.03" y2="57.98" gradientTransform="matrix(1, 0, 0, 1, 0, 0)" xlink:href="#未命名的渐变_105"/><linearGradient id="未命名的渐变_105-22" x1="56.8" y1="83.49" x2="56.8" y2="76.88" gradientTransform="matrix(1, 0, 0, 1, 0, 0)" xlink:href="#未命名的渐变_105"/><linearGradient id="未命名的渐变_105-23" x1="55.36" y1="84.38" x2="55.36" y2="75.5" gradientTransform="matrix(1, 0, 0, 1, 0, 0)" xlink:href="#未命名的渐变_105"/><linearGradient id="未命名的渐变_105-24" x1="56.86" y1="57.98" x2="74.64" y2="57.98" gradientTransform="matrix(1, 0, 0, 1, 0, 0)" xlink:href="#未命名的渐变_105"/><linearGradient id="未命名的渐变_105-25" x1="95.52" y1="82.96" x2="95.52" y2="76.35" gradientTransform="translate(3.83 0.52)" xlink:href="#未命名的渐变_105"/><linearGradient id="未命名的渐变_105-26" x1="94.08" y1="83.85" x2="94.08" y2="74.98" gradientTransform="translate(3.83 0.53)" xlink:href="#未命名的渐变_105"/><linearGradient id="未命名的渐变_105-27" x1="409.1" y1="42.63" x2="409.1" y2="36.02" gradientTransform="matrix(1, 0, 0, -1, -261.34, 78.26)" xlink:href="#未命名的渐变_105"/><linearGradient id="未命名的渐变_105-28" x1="407.66" y1="43.52" x2="407.66" y2="34.64" gradientTransform="matrix(1, 0, 0, -1, -258.46, 77.78)" xlink:href="#未命名的渐变_105"/><linearGradient id="未命名的渐变_105-29" x1="99.41" y1="57.98" x2="117.18" y2="57.98" gradientTransform="matrix(1, 0, 0, 1, 0, 0)" xlink:href="#未命名的渐变_105"/><linearGradient id="未命名的渐变_67" x1="2.35" y1="97.67" x2="11.97" y2="97.67" gradientUnits="userSpaceOnUse"><stop offset="0" stop-color="#6b6b6b"/><stop offset="0.11" stop-color="#767676"/><stop offset="0.3" stop-color="#959595"/><stop offset="0.41" stop-color="#aaa"/><stop offset="0.56" stop-color="#ccc"/><stop offset="0.71" stop-color="#eaeaea"/><stop offset="0.8" stop-color="#f6f6f6"/><stop offset="0.83" stop-color="#ededed"/><stop offset="0.87" stop-color="#d4d4d4"/><stop offset="0.92" stop-color="#ababab"/><stop offset="0.98" stop-color="#737373"/><stop offset="0.99" stop-color="#666"/></linearGradient><linearGradient id="未命名的渐变_67-2" x1="4.93" y1="123.8" x2="9.63" y2="123.8" xlink:href="#未命名的渐变_67"/><linearGradient id="未命名的渐变_105-30" x1="3.75" y1="125.17" x2="10.8" y2="125.17" gradientTransform="matrix(1, 0, 0, 1, 0, 0)" xlink:href="#未命名的渐变_105"/><linearGradient id="未命名的渐变_105-31" x1="4.51" y1="130.95" x2="9.63" y2="130.95" gradientTransform="matrix(1, 0, 0, 1, 0, 0)" xlink:href="#未命名的渐变_105"/><linearGradient id="未命名的渐变_105-32" x1="34.53" y1="109.74" x2="39.65" y2="109.74" gradientTransform="matrix(1, 0, 0, 1, 0, 0)" xlink:href="#未命名的渐变_105"/><linearGradient id="未命名的渐变_105-33" x1="22.22" y1="142.34" x2="22.22" y2="137.21" gradientTransform="matrix(1, 0, 0, 1, 0, 0)" xlink:href="#未命名的渐变_105"/><linearGradient id="未命名的渐变_105-34" x1="44.23" y1="92.25" x2="53.85" y2="92.25" gradientTransform="matrix(1, 0, 0, 1, 0, 0)" xlink:href="#未命名的渐变_105"/><linearGradient id="未命名的渐变_105-35" x1="41.88" y1="110.58" x2="56.43" y2="110.58" gradientTransform="matrix(1, 0, 0, 1, 0, 0)" xlink:href="#未命名的渐变_105"/><linearGradient id="未命名的渐变_105-36" x1="55.5" y1="95.34" x2="55.5" y2="90.59" gradientTransform="matrix(1, 0, 0, 1, 0, 0)" xlink:href="#未命名的渐变_105"/><linearGradient id="未命名的渐变_105-37" x1="98.68" y1="83.49" x2="98.68" y2="76.88" gradientTransform="matrix(1, 0, 0, 1, 0, 0)" xlink:href="#未命名的渐变_105"/><linearGradient id="未命名的渐变_105-38" x1="97.24" y1="84.38" x2="97.24" y2="75.5" gradientTransform="matrix(1, 0, 0, 1, 0, 0)" xlink:href="#未命名的渐变_105"/><linearGradient id="未命名的渐变_67-3" x1="44.23" y1="97.67" x2="53.85" y2="97.67" xlink:href="#未命名的渐变_67"/><linearGradient id="未命名的渐变_67-4" x1="46.81" y1="123.8" x2="51.5" y2="123.8" xlink:href="#未命名的渐变_67"/><linearGradient id="未命名的渐变_105-39" x1="45.63" y1="125.17" x2="52.67" y2="125.17" gradientTransform="matrix(1, 0, 0, 1, 0, 0)" xlink:href="#未命名的渐变_105"/><linearGradient id="未命名的渐变_105-40" x1="86.69" y1="92.25" x2="96.31" y2="92.25" gradientTransform="matrix(1, 0, 0, 1, 0, 0)" xlink:href="#未命名的渐变_105"/><linearGradient id="未命名的渐变_105-41" x1="84.34" y1="110.58" x2="98.89" y2="110.58" gradientTransform="matrix(1, 0, 0, 1, 0, 0)" xlink:href="#未命名的渐变_105"/><linearGradient id="未命名的渐变_105-42" x1="97.97" y1="95.34" x2="97.97" y2="90.59" gradientTransform="matrix(1, 0, 0, 1, 0, 0)" xlink:href="#未命名的渐变_105"/><linearGradient id="未命名的渐变_67-5" x1="86.69" y1="97.67" x2="96.31" y2="97.67" xlink:href="#未命名的渐变_67"/><linearGradient id="未命名的渐变_67-6" x1="89.27" y1="123.8" x2="93.97" y2="123.8" xlink:href="#未命名的渐变_67"/><linearGradient id="未命名的渐变_105-43" x1="88.1" y1="125.17" x2="95.14" y2="125.17" gradientTransform="matrix(1, 0, 0, 1, 0, 0)" xlink:href="#未命名的渐变_105"/><linearGradient id="未命名的渐变_105-44" x1="46.38" y1="130.95" x2="51.5" y2="130.95" gradientTransform="matrix(1, 0, 0, 1, 0, 0)" xlink:href="#未命名的渐变_105"/><linearGradient id="未命名的渐变_105-45" x1="76.41" y1="109.74" x2="81.53" y2="109.74" gradientTransform="matrix(1, 0, 0, 1, 0, 0)" xlink:href="#未命名的渐变_105"/><linearGradient id="未命名的渐变_105-46" x1="64.1" y1="142.34" x2="64.1" y2="137.21" gradientTransform="matrix(1, 0, 0, 1, 0, 0)" xlink:href="#未命名的渐变_105"/><linearGradient id="未命名的渐变_105-47" x1="55.18" y1="41.6" x2="55.18" y2="36.56" gradientTransform="matrix(1, 0, 0, 1, 0, 0)" xlink:href="#未命名的渐变_105"/><linearGradient id="未命名的渐变_105-48" x1="47.95" y1="82.71" x2="47.95" y2="77.66" gradientTransform="matrix(1, 0, 0, 1, 0, 0)" xlink:href="#未命名的渐变_105"/><linearGradient id="未命名的渐变_105-49" x1="89.82" y1="82.71" x2="89.82" y2="77.66" gradientTransform="matrix(1, 0, 0, 1, 0, 0)" xlink:href="#未命名的渐变_105"/><linearGradient id="未命名的渐变_105-50" x1="20.48" y1="10.77" x2="25.31" y2="10.77" gradientTransform="matrix(1, 0, 0, 1, 0, 0)" xlink:href="#未命名的渐变_105"/><linearGradient id="未命名的渐变_105-51" x1="42.16" y1="20.83" x2="46.99" y2="20.83" gradientTransform="matrix(1, 0, 0, 1, 0, 0)" xlink:href="#未命名的渐变_105"/><linearGradient id="未命名的渐变_67-7" x1="20.48" y1="15.24" x2="25.52" y2="15.24" xlink:href="#未命名的渐变_67"/><linearGradient id="未命名的渐变_67-8" x1="14.26" y1="19.9" x2="31.74" y2="19.9" xlink:href="#未命名的渐变_67"/><linearGradient id="未命名的渐变_67-9" x1="14.26" y1="26.83" x2="31.74" y2="26.83" xlink:href="#未命名的渐变_67"/><linearGradient id="未命名的渐变_67-10" x1="14.26" y1="33.77" x2="31.74" y2="33.77" xlink:href="#未命名的渐变_67"/><linearGradient id="未命名的渐变_67-11" x1="14.26" y1="40.71" x2="31.74" y2="40.71" xlink:href="#未命名的渐变_67"/><linearGradient id="未命名的渐变_67-12" x1="14.26" y1="47.65" x2="31.74" y2="47.65" xlink:href="#未命名的渐变_67"/><linearGradient id="未命名的渐变_67-13" x1="14.26" y1="54.59" x2="31.74" y2="54.59" xlink:href="#未命名的渐变_67"/><linearGradient id="未命名的渐变_67-14" x1="14.26" y1="61.53" x2="31.74" y2="61.53" xlink:href="#未命名的渐变_67"/><linearGradient id="未命名的渐变_67-15" x1="14.26" y1="68.47" x2="31.74" y2="68.47" xlink:href="#未命名的渐变_67"/><linearGradient id="未命名的渐变_67-16" x1="14.26" y1="75.41" x2="31.74" y2="75.41" xlink:href="#未命名的渐变_67"/><linearGradient id="未命名的渐变_67-17" x1="14.26" y1="82.35" x2="31.74" y2="82.35" xlink:href="#未命名的渐变_67"/><linearGradient id="未命名的渐变_67-18" x1="14.26" y1="89.29" x2="31.74" y2="89.29" xlink:href="#未命名的渐变_67"/><linearGradient id="未命名的渐变_67-19" x1="14.55" y1="96.23" x2="32.03" y2="96.23" xlink:href="#未命名的渐变_67"/><linearGradient id="未命名的渐变_105-52" x1="33.98" y1="5.04" x2="33.98" y2="0" gradientTransform="matrix(1, 0, 0, 1, 0, 0)" xlink:href="#未命名的渐变_105"/><linearGradient id="未命名的渐变_105-53" x1="63.08" y1="10.77" x2="67.91" y2="10.77" gradientTransform="matrix(1, 0, 0, 1, 0, 0)" xlink:href="#未命名的渐变_105"/><linearGradient id="未命名的渐变_105-54" x1="84.76" y1="20.83" x2="89.59" y2="20.83" gradientTransform="matrix(1, 0, 0, 1, 0, 0)" xlink:href="#未命名的渐变_105"/><linearGradient id="未命名的渐变_67-20" x1="63.08" y1="15.24" x2="68.13" y2="15.24" xlink:href="#未命名的渐变_67"/><linearGradient id="未命名的渐变_67-21" x1="56.86" y1="19.9" x2="74.35" y2="19.9" xlink:href="#未命名的渐变_67"/><linearGradient id="未命名的渐变_67-22" x1="56.86" y1="26.83" x2="74.35" y2="26.83" xlink:href="#未命名的渐变_67"/><linearGradient id="未命名的渐变_67-23" x1="56.86" y1="33.77" x2="74.35" y2="33.77" xlink:href="#未命名的渐变_67"/><linearGradient id="未命名的渐变_67-24" x1="56.86" y1="40.71" x2="74.35" y2="40.71" xlink:href="#未命名的渐变_67"/><linearGradient id="未命名的渐变_67-25" x1="56.86" y1="47.65" x2="74.35" y2="47.65" xlink:href="#未命名的渐变_67"/><linearGradient id="未命名的渐变_67-26" x1="56.86" y1="54.59" x2="74.35" y2="54.59" xlink:href="#未命名的渐变_67"/><linearGradient id="未命名的渐变_67-27" x1="56.86" y1="61.53" x2="74.35" y2="61.53" xlink:href="#未命名的渐变_67"/><linearGradient id="未命名的渐变_67-28" x1="56.86" y1="68.47" x2="74.35" y2="68.47" xlink:href="#未命名的渐变_67"/><linearGradient id="未命名的渐变_67-29" x1="56.86" y1="75.41" x2="74.35" y2="75.41" xlink:href="#未命名的渐变_67"/><linearGradient id="未命名的渐变_67-30" x1="56.86" y1="82.35" x2="74.35" y2="82.35" xlink:href="#未命名的渐变_67"/><linearGradient id="未命名的渐变_67-31" x1="56.86" y1="89.29" x2="74.35" y2="89.29" xlink:href="#未命名的渐变_67"/><linearGradient id="未命名的渐变_67-32" x1="57.15" y1="96.23" x2="74.64" y2="96.23" xlink:href="#未命名的渐变_67"/><linearGradient id="未命名的渐变_105-55" x1="76.58" y1="5.04" x2="76.58" y2="0" gradientTransform="matrix(1, 0, 0, 1, 0, 0)" xlink:href="#未命名的渐变_105"/><linearGradient id="未命名的渐变_105-56" x1="97.79" y1="41.6" x2="97.79" y2="36.56" gradientTransform="matrix(1, 0, 0, 1, 0, 0)" xlink:href="#未命名的渐变_105"/><linearGradient id="未命名的渐变_105-57" x1="105.63" y1="10.77" x2="110.46" y2="10.77" gradientTransform="matrix(1, 0, 0, 1, 0, 0)" xlink:href="#未命名的渐变_105"/><linearGradient id="未命名的渐变_105-58" x1="127.31" y1="20.83" x2="132.14" y2="20.83" gradientTransform="matrix(1, 0, 0, 1, 0, 0)" xlink:href="#未命名的渐变_105"/><linearGradient id="未命名的渐变_67-33" x1="105.63" y1="15.24" x2="110.68" y2="15.24" xlink:href="#未命名的渐变_67"/><linearGradient id="未命名的渐变_67-34" x1="99.41" y1="19.9" x2="116.89" y2="19.9" xlink:href="#未命名的渐变_67"/><linearGradient id="未命名的渐变_67-35" x1="99.41" y1="26.83" x2="116.89" y2="26.83" xlink:href="#未命名的渐变_67"/><linearGradient id="未命名的渐变_67-36" x1="99.41" y1="33.77" x2="116.89" y2="33.77" xlink:href="#未命名的渐变_67"/><linearGradient id="未命名的渐变_67-37" x1="99.41" y1="40.71" x2="116.89" y2="40.71" xlink:href="#未命名的渐变_67"/><linearGradient id="未命名的渐变_67-38" x1="99.41" y1="47.65" x2="116.89" y2="47.65" xlink:href="#未命名的渐变_67"/><linearGradient id="未命名的渐变_67-39" x1="99.41" y1="54.59" x2="116.89" y2="54.59" xlink:href="#未命名的渐变_67"/><linearGradient id="未命名的渐变_67-40" x1="99.41" y1="61.53" x2="116.89" y2="61.53" xlink:href="#未命名的渐变_67"/><linearGradient id="未命名的渐变_67-41" x1="99.41" y1="68.47" x2="116.89" y2="68.47" xlink:href="#未命名的渐变_67"/><linearGradient id="未命名的渐变_67-42" x1="99.41" y1="75.41" x2="116.89" y2="75.41" xlink:href="#未命名的渐变_67"/><linearGradient id="未命名的渐变_67-43" x1="99.41" y1="82.35" x2="116.89" y2="82.35" xlink:href="#未命名的渐变_67"/><linearGradient id="未命名的渐变_67-44" x1="99.41" y1="89.29" x2="116.89" y2="89.29" xlink:href="#未命名的渐变_67"/><linearGradient id="未命名的渐变_67-45" x1="99.7" y1="96.23" x2="117.18" y2="96.23" xlink:href="#未命名的渐变_67"/><linearGradient id="未命名的渐变_105-59" x1="119.13" y1="5.04" x2="119.13" y2="0" gradientTransform="matrix(1, 0, 0, 1, 0, 0)" xlink:href="#未命名的渐变_105"/><linearGradient id="未命名的渐变_105-60" x1="140.33" y1="41.6" x2="140.33" y2="36.56" gradientTransform="matrix(1, 0, 0, 1, 0, 0)" xlink:href="#未命名的渐变_105"/></defs><title>Evaporation（蒸发器）</title><g id="图层_2" data-name="图层 2"><g id="图层_125" data-name="图层 125"><g id="Evaporation_蒸发器_" data-name="Evaporation（蒸发器）"><path class="cls-1" d="M41.52,5.53a4.54,4.54,0,0,1,.76,1.87H47S47,3,45.53,1.77C43.55.17,39.88,0,39.88,0V4.75A7.91,7.91,0,0,1,41.52,5.53Z"/><path class="cls-2" d="M26,5.53a4.4,4.4,0,0,0-.76,1.87H20.48S20.43,3,21.93,1.77C23.92.17,27.58,0,27.58,0V4.75A7.66,7.66,0,0,0,26,5.53Z"/><path class="cls-3" d="M47.74,36.05A4.59,4.59,0,0,1,47,34.18h-4.7s-.06,4.42,1.45,5.62c2,1.6,5.65,1.77,5.65,1.77V36.82A7.74,7.74,0,0,1,47.74,36.05Z"/><path class="cls-4" d="M40.24,83.19a4.54,4.54,0,0,0-.76,1.87H34.77s-.05-4.42,1.46-5.63c2-1.59,5.65-1.77,5.65-1.77v4.75A7.91,7.91,0,0,0,40.24,83.19Z"/><path class="cls-5" d="M33.88,136.82a4.48,4.48,0,0,0,.76-1.88h4.71s.06,4.43-1.45,5.63c-2,1.6-5.65,1.77-5.65,1.77v-4.75A8,8,0,0,0,33.88,136.82Z"/><path class="cls-6" d="M9.91,136.6a4.65,4.65,0,0,1-.79-1.95H4.23s-.06,4.6,1.51,5.85c2.06,1.66,5.87,1.84,5.87,1.84V137.4A8.07,8.07,0,0,1,9.91,136.6Z"/><path class="cls-7" d="M82.12,83.19a4.4,4.4,0,0,0-.76,1.87H76.65s-.05-4.42,1.45-5.63c2-1.59,5.65-1.77,5.65-1.77v4.75A7.66,7.66,0,0,0,82.12,83.19Z"/><path class="cls-8" d="M75.76,136.82a4.48,4.48,0,0,0,.76-1.88h4.71s0,4.43-1.45,5.63c-2,1.6-5.65,1.77-5.65,1.77v-4.75A8,8,0,0,0,75.76,136.82Z"/><path class="cls-9" d="M51.79,136.6a4.65,4.65,0,0,1-.79-1.95H46.1s-.05,4.6,1.51,5.85c2.07,1.66,5.88,1.84,5.88,1.84V137.4A8.07,8.07,0,0,1,51.79,136.6Z"/><path class="cls-10" d="M84.12,5.53a4.4,4.4,0,0,1,.76,1.87h4.71s0-4.43-1.45-5.63C86.15.17,82.49,0,82.49,0V4.75A7.66,7.66,0,0,1,84.12,5.53Z"/><path class="cls-11" d="M68.55,5.53a4.54,4.54,0,0,0-.76,1.87H63.08S63,3,64.54,1.77C66.52.17,70.19,0,70.19,0V4.75A7.91,7.91,0,0,0,68.55,5.53Z"/><path class="cls-12" d="M90.35,36.05a4.45,4.45,0,0,1-.76-1.87H84.88s0,4.42,1.45,5.62c2,1.6,5.65,1.77,5.65,1.77V36.82A7.5,7.5,0,0,1,90.35,36.05Z"/><path class="cls-13" d="M126.67,5.53a4.4,4.4,0,0,1,.76,1.87h4.71s.05-4.43-1.46-5.63C128.7.17,125,0,125,0V4.75A7.89,7.89,0,0,1,126.67,5.53Z"/><path class="cls-14" d="M111.1,5.53a4.4,4.4,0,0,0-.76,1.87h-4.71s0-4.43,1.45-5.63c2-1.6,5.65-1.77,5.65-1.77V4.75A7.66,7.66,0,0,0,111.1,5.53Z"/><path class="cls-15" d="M132.89,36.05a4.53,4.53,0,0,1-.75-1.87h-4.71s-.06,4.42,1.45,5.62c2,1.6,5.65,1.77,5.65,1.77V36.82A7.74,7.74,0,0,1,132.89,36.05Z"/><rect class="cls-16" x="13.41" y="76.88" width="1.57" height="6.61"/><rect class="cls-17" x="11.97" y="75.5" width="1.57" height="8.87"/><rect class="cls-18" x="2.35" y="87.09" width="9.62" height="10.31"/><rect class="cls-19" y="97.95" width="14.55" height="25.26" rx="0.4"/><rect class="cls-20" x="11.97" y="90.59" width="3.31" height="4.75"/><path class="cls-21" d="M32,96s-1.72,4.75-9,4.75c-7.51,0-8.74-4.75-8.74-4.75V20.09s.37-4.84,8.63-4.85S32,20.09,32,20.09Z"/><rect class="cls-22" x="56.02" y="76.88" width="1.57" height="6.61"/><rect class="cls-23" x="54.58" y="75.5" width="1.57" height="8.87"/><path class="cls-24" d="M74.64,96s-1.73,4.75-9,4.75c-7.52,0-8.75-4.75-8.75-4.75V20.09s.37-4.84,8.64-4.85,9.14,4.85,9.14,4.85Z"/><rect class="cls-25" x="98.57" y="76.88" width="1.57" height="6.61" transform="translate(-0.23 0.29) rotate(-0.17)"/><rect class="cls-26" x="97.12" y="75.51" width="1.57" height="8.87" transform="translate(-0.23 0.29) rotate(-0.17)"/><rect class="cls-27" x="146.97" y="35.63" width="1.57" height="6.61" transform="translate(295.41 78.3) rotate(-179.83)"/><rect class="cls-28" x="148.42" y="34.26" width="1.57" height="8.87" transform="translate(298.29 77.83) rotate(-179.83)"/><path class="cls-29" d="M117.18,96s-1.72,4.75-9,4.75c-7.51,0-8.74-4.75-8.74-4.75V20.09s.37-4.84,8.63-4.85,9.14,4.85,9.14,4.85Z"/><rect class="cls-30" x="2.35" y="97.4" width="9.62" height="0.55"/><rect class="cls-31" x="4.93" y="123.21" width="4.7" height="1.19"/><rect class="cls-32" x="3.75" y="124.12" width="7.04" height="2.09"/><rect class="cls-33" x="4.51" y="126.21" width="5.12" height="9.49"/><rect class="cls-34" x="34.53" y="84.54" width="5.12" height="50.4"/><rect class="cls-35" x="11.48" y="137.21" width="21.48" height="5.13"/><rect class="cls-36" x="44.23" y="87.09" width="9.62" height="10.31"/><rect class="cls-37" x="41.88" y="97.95" width="14.55" height="25.26" rx="0.4"/><rect class="cls-38" x="53.85" y="90.59" width="3.31" height="4.75"/><rect class="cls-39" x="97.89" y="76.88" width="1.57" height="6.61"/><rect class="cls-40" x="96.45" y="75.5" width="1.57" height="8.87"/><rect class="cls-41" x="44.23" y="97.4" width="9.62" height="0.55"/><rect class="cls-42" x="46.81" y="123.21" width="4.7" height="1.19"/><rect class="cls-43" x="45.63" y="124.12" width="7.04" height="2.09"/><rect class="cls-44" x="86.69" y="87.09" width="9.62" height="10.31"/><rect class="cls-45" x="84.34" y="97.95" width="14.55" height="25.26" rx="0.4"/><rect class="cls-46" x="96.31" y="90.59" width="3.31" height="4.75"/><rect class="cls-47" x="86.69" y="97.4" width="9.62" height="0.55"/><rect class="cls-48" x="89.27" y="123.21" width="4.7" height="1.19"/><rect class="cls-49" x="88.1" y="124.12" width="7.04" height="2.09"/><rect class="cls-50" x="46.38" y="126.21" width="5.12" height="9.49"/><rect class="cls-51" x="76.41" y="84.54" width="5.12" height="50.4"/><rect class="cls-52" x="53.36" y="137.21" width="21.48" height="5.13"/><rect class="cls-53" x="48.55" y="36.56" width="13.26" height="5.04"/><rect class="cls-54" x="41.32" y="77.66" width="13.26" height="5.04"/><rect class="cls-55" x="83.19" y="77.66" width="13.26" height="5.04"/><rect class="cls-56" x="20.48" y="7.11" width="4.83" height="7.33"/><rect class="cls-57" x="42.16" y="7.4" width="4.83" height="26.86"/><rect class="cls-58" x="20.48" y="14.43" width="5.04" height="1.61"/><rect class="cls-59" x="14.26" y="19.49" width="17.48" height="0.8"/><rect class="cls-60" x="14.26" y="26.43" width="17.48" height="0.8"/><rect class="cls-61" x="14.26" y="33.37" width="17.48" height="0.8"/><rect class="cls-62" x="14.26" y="40.31" width="17.48" height="0.8"/><rect class="cls-63" x="14.26" y="47.25" width="17.48" height="0.8"/><rect class="cls-64" x="14.26" y="54.19" width="17.48" height="0.8"/><rect class="cls-65" x="14.26" y="61.13" width="17.48" height="0.8"/><rect class="cls-66" x="14.26" y="68.07" width="17.48" height="0.8"/><rect class="cls-67" x="14.26" y="75.01" width="17.48" height="0.8"/><rect class="cls-68" x="14.26" y="81.95" width="17.48" height="0.8"/><rect class="cls-69" x="14.26" y="88.89" width="17.48" height="0.8"/><rect class="cls-70" x="14.55" y="95.83" width="17.48" height="0.8"/><rect class="cls-71" x="27.35" width="13.26" height="5.04"/><rect class="cls-72" x="63.08" y="7.11" width="4.83" height="7.33"/><rect class="cls-73" x="84.76" y="7.4" width="4.83" height="26.86"/><rect class="cls-74" x="63.08" y="14.43" width="5.04" height="1.61"/><rect class="cls-75" x="56.86" y="19.49" width="17.48" height="0.8"/><rect class="cls-76" x="56.86" y="26.43" width="17.48" height="0.8"/><rect class="cls-77" x="56.86" y="33.37" width="17.48" height="0.8"/><rect class="cls-78" x="56.86" y="40.31" width="17.48" height="0.8"/><rect class="cls-79" x="56.86" y="47.25" width="17.48" height="0.8"/><rect class="cls-80" x="56.86" y="54.19" width="17.48" height="0.8"/><rect class="cls-81" x="56.86" y="61.13" width="17.48" height="0.8"/><rect class="cls-82" x="56.86" y="68.07" width="17.48" height="0.8"/><rect class="cls-83" x="56.86" y="75.01" width="17.48" height="0.8"/><rect class="cls-84" x="56.86" y="81.95" width="17.48" height="0.8"/><rect class="cls-85" x="56.86" y="88.89" width="17.48" height="0.8"/><rect class="cls-86" x="57.15" y="95.83" width="17.48" height="0.8"/><rect class="cls-87" x="69.95" width="13.26" height="5.04"/><rect class="cls-88" x="91.16" y="36.56" width="13.26" height="5.04"/><rect class="cls-89" x="105.63" y="7.11" width="4.83" height="7.33"/><rect class="cls-90" x="127.31" y="7.4" width="4.83" height="26.86"/><rect class="cls-91" x="105.63" y="14.43" width="5.04" height="1.61"/><rect class="cls-92" x="99.41" y="19.49" width="17.48" height="0.8"/><rect class="cls-93" x="99.41" y="26.43" width="17.48" height="0.8"/><rect class="cls-94" x="99.41" y="33.37" width="17.48" height="0.8"/><rect class="cls-95" x="99.41" y="40.31" width="17.48" height="0.8"/><rect class="cls-96" x="99.41" y="47.25" width="17.48" height="0.8"/><rect class="cls-97" x="99.41" y="54.19" width="17.48" height="0.8"/><rect class="cls-98" x="99.41" y="61.13" width="17.48" height="0.8"/><rect class="cls-99" x="99.41" y="68.07" width="17.48" height="0.8"/><rect class="cls-100" x="99.41" y="75.01" width="17.48" height="0.8"/><rect class="cls-101" x="99.41" y="81.95" width="17.48" height="0.8"/><rect class="cls-102" x="99.41" y="88.89" width="17.48" height="0.8"/><rect class="cls-103" x="99.7" y="95.83" width="17.48" height="0.8"/><rect class="cls-104" x="112.5" width="13.26" height="5.04"/><rect class="cls-105" x="133.7" y="36.56" width="13.26" height="5.04"/></g></g></g></svg>