<svg xmlns="http://www.w3.org/2000/svg" xmlns:xlink="http://www.w3.org/1999/xlink" viewBox="0 0 111.41 150"><defs><style>.cls-1{fill:url(#未命名的渐变_105);}.cls-2{fill:url(#未命名的渐变_67);}.cls-3{fill:url(#未命名的渐变_67-2);}.cls-4{fill:url(#未命名的渐变_105-2);}.cls-5{fill:url(#未命名的渐变_105-3);}.cls-6{fill:url(#未命名的渐变_105-4);}.cls-7{fill:url(#未命名的渐变_105-5);}.cls-8{fill:url(#未命名的渐变_105-6);}.cls-9{fill:url(#未命名的渐变_67-3);}.cls-10{opacity:0.2;}</style><linearGradient id="未命名的渐变_105" y1="79.19" x2="111.41" y2="79.19" gradientUnits="userSpaceOnUse"><stop offset="0" stop-color="#e2e2e2"/><stop offset="0.03" stop-color="#d0d0d0"/><stop offset="0.06" stop-color="#bcbcbc"/><stop offset="0.09" stop-color="#b5b5b5"/><stop offset="0.49" stop-color="#f6f6f6"/><stop offset="0.63" stop-color="#f3f3f3"/><stop offset="0.73" stop-color="#eaeaea"/><stop offset="0.82" stop-color="#dbdbdb"/><stop offset="0.9" stop-color="#c6c6c6"/><stop offset="0.97" stop-color="#aaa"/><stop offset="1" stop-color="#9b9b9b"/></linearGradient><linearGradient id="未命名的渐变_67" x1="111.41" y1="34.57" x2="0" y2="34.57" gradientUnits="userSpaceOnUse"><stop offset="0" stop-color="#6b6b6b"/><stop offset="0.11" stop-color="#767676"/><stop offset="0.3" stop-color="#959595"/><stop offset="0.41" stop-color="#aaa"/><stop offset="0.56" stop-color="#ccc"/><stop offset="0.71" stop-color="#eaeaea"/><stop offset="0.8" stop-color="#f6f6f6"/><stop offset="0.83" stop-color="#ededed"/><stop offset="0.87" stop-color="#d4d4d4"/><stop offset="0.92" stop-color="#ababab"/><stop offset="0.98" stop-color="#737373"/><stop offset="0.99" stop-color="#666"/></linearGradient><linearGradient id="未命名的渐变_67-2" x1="111.41" y1="123.42" y2="123.42" xlink:href="#未命名的渐变_67"/><linearGradient id="未命名的渐变_105-2" x1="83.52" y1="1.88" x2="29.72" y2="1.88" xlink:href="#未命名的渐变_105"/><linearGradient id="未命名的渐变_105-3" x1="21.75" y1="14.37" x2="21.75" y2="6.45" xlink:href="#未命名的渐变_105"/><linearGradient id="未命名的渐变_105-4" x1="30.87" y1="13.79" x2="30.87" y2="6.95" xlink:href="#未命名的渐变_105"/><linearGradient id="未命名的渐变_105-5" x1="26.93" y1="14.64" x2="26.93" y2="5.6" xlink:href="#未命名的渐变_105"/><linearGradient id="未命名的渐变_105-6" x1="81.66" y1="9.2" x2="31.99" y2="9.2" xlink:href="#未命名的渐变_105"/><linearGradient id="未命名的渐变_67-3" x1="87.88" y1="145.77" x2="23.39" y2="145.77" xlink:href="#未命名的渐变_67"/></defs><title>Evaporator（蒸发器）</title><g id="图层_2" data-name="图层 2"><g id="图层_125" data-name="图层 125"><g id="Evaporator_蒸发器_" data-name="Evaporator（蒸发器）"><path class="cls-1" d="M111.41,123.89S102,146.52,56.25,146.52C9.15,146.52,0,123.89,0,123.89V33.67s4.81-21.8,56.62-21.81c51.63,0,54.79,21.81,54.79,21.81Z"/><rect class="cls-2" y="33.65" width="111.41" height="1.85"/><rect class="cls-3" y="122.5" width="111.41" height="1.85"/><rect class="cls-4" x="29.72" width="53.8" height="3.77"/><rect class="cls-5" x="18.5" y="6.45" width="6.49" height="7.92"/><rect class="cls-6" x="28.66" y="6.95" width="4.4" height="6.84"/><rect class="cls-7" x="24.72" y="5.6" width="4.4" height="9.04"/><rect class="cls-8" x="31.99" y="3.77" width="49.68" height="10.87"/><rect class="cls-9" x="23.39" y="141.54" width="64.49" height="8.46"/></g></g></g></svg>