<svg xmlns="http://www.w3.org/2000/svg" xmlns:xlink="http://www.w3.org/1999/xlink" viewBox="0 0 150 71.14"><defs><style>.cls-1{fill:url(#未命名的渐变_397);}.cls-2,.cls-6{fill:none;}.cls-2{stroke:#222a34;stroke-width:0.5px;opacity:0.6;}.cls-10,.cls-11,.cls-12,.cls-13,.cls-14,.cls-2,.cls-4,.cls-6,.cls-7,.cls-8,.cls-9{stroke-miterlimit:10;}.cls-3{fill:url(#未命名的渐变_4);}.cls-16,.cls-4,.cls-5{fill:#222a34;}.cls-4{stroke:url(#未命名的渐变_149);}.cls-6{stroke:url(#未命名的渐变_149-2);}.cls-10,.cls-11,.cls-12,.cls-13,.cls-14,.cls-7,.cls-8,.cls-9{stroke:#505458;stroke-width:0.25px;}.cls-7{fill:url(#未命名的渐变_204);}.cls-8{fill:url(#未命名的渐变_204-2);}.cls-9{fill:url(#未命名的渐变_204-3);}.cls-10{fill:url(#未命名的渐变_204-4);}.cls-11{fill:url(#未命名的渐变_204-5);}.cls-12{fill:url(#未命名的渐变_204-6);}.cls-13{fill:url(#未命名的渐变_204-7);}.cls-14{fill:url(#未命名的渐变_204-8);}.cls-15{fill:url(#未命名的渐变_2);}.cls-16{opacity:0.5;}.cls-17{fill:url(#未命名的渐变_284);}.cls-18{fill:url(#未命名的渐变_284-2);}.cls-19{fill:url(#未命名的渐变_284-3);}.cls-20{fill:url(#未命名的渐变_284-4);}.cls-21{fill:url(#未命名的渐变_52);}.cls-22{fill:url(#未命名的渐变_17);}.cls-23{opacity:0.2;}</style><linearGradient id="未命名的渐变_397" x1="11.85" y1="35.57" x2="150" y2="35.57" gradientUnits="userSpaceOnUse"><stop offset="0" stop-color="#767b82"/><stop offset="0.07" stop-color="#9ba1ab"/><stop offset="0.22" stop-color="#e2eaf2"/><stop offset="0.28" stop-color="#d1d8e0"/><stop offset="0.49" stop-color="#a1a7ae"/><stop offset="0.67" stop-color="#7e8489"/><stop offset="0.81" stop-color="#696e73"/><stop offset="0.91" stop-color="#61666b"/><stop offset="1" stop-color="#a9b1bb"/></linearGradient><linearGradient id="未命名的渐变_4" x1="-5.59" y1="24.05" x2="17.44" y2="47.09" gradientUnits="userSpaceOnUse"><stop offset="0.07" stop-color="#9ba1ab"/><stop offset="0.22" stop-color="#e2eaf2"/><stop offset="0.28" stop-color="#d1d8e0"/><stop offset="0.49" stop-color="#a1a7ae"/><stop offset="0.67" stop-color="#7e8489"/><stop offset="0.81" stop-color="#696e73"/><stop offset="0.91" stop-color="#61666b"/></linearGradient><linearGradient id="未命名的渐变_149" x1="123.53" y1="6.78" x2="123.53" y2="64.36" gradientUnits="userSpaceOnUse"><stop offset="0" stop-color="#ccd1d5"/><stop offset="1" stop-color="#90969f"/></linearGradient><linearGradient id="未命名的渐变_149-2" x1="47.75" y1="9.78" x2="47.75" y2="61.36" xlink:href="#未命名的渐变_149"/><linearGradient id="未命名的渐变_204" x1="29.53" y1="61.71" x2="29.53" y2="63.29" gradientTransform="matrix(1, 0, 0, -1, 0, 64.31)" gradientUnits="userSpaceOnUse"><stop offset="0" stop-color="#9ba1ab"/><stop offset="0" stop-color="#abb1ba"/><stop offset="0.09" stop-color="#abb1ba"/><stop offset="0.46" stop-color="#d7dce0"/><stop offset="1" stop-color="#a9b1bb"/></linearGradient><linearGradient id="未命名的渐变_204-2" x1="64.29" y1="61.71" x2="64.29" y2="63.29" xlink:href="#未命名的渐变_204"/><linearGradient id="未命名的渐变_204-3" x1="99.04" y1="61.71" x2="99.04" y2="63.29" xlink:href="#未命名的渐变_204"/><linearGradient id="未命名的渐变_204-4" x1="133.8" y1="61.71" x2="133.8" y2="63.29" xlink:href="#未命名的渐变_204"/><linearGradient id="未命名的渐变_204-5" x1="29.53" y1="-5.81" x2="29.53" y2="-4.23" xlink:href="#未命名的渐变_204"/><linearGradient id="未命名的渐变_204-6" x1="64.29" y1="-5.81" x2="64.29" y2="-4.23" xlink:href="#未命名的渐变_204"/><linearGradient id="未命名的渐变_204-7" x1="99.04" y1="-5.81" x2="99.04" y2="-4.23" xlink:href="#未命名的渐变_204"/><linearGradient id="未命名的渐变_204-8" x1="133.8" y1="-5.81" x2="133.8" y2="-4.23" xlink:href="#未命名的渐变_204"/><linearGradient id="未命名的渐变_2" x1="30.04" y1="36.15" x2="30.04" y2="34.99" gradientUnits="userSpaceOnUse"><stop offset="0" stop-color="#a9b1bb"/><stop offset="0.09" stop-color="#2e3033"/><stop offset="0.19" stop-color="#36383b"/><stop offset="0.34" stop-color="#4b4d51"/><stop offset="0.53" stop-color="#6d7176"/><stop offset="0.74" stop-color="#9da1a8"/><stop offset="0.78" stop-color="#a7acb3"/><stop offset="0.93" stop-color="#747880"/><stop offset="1" stop-color="#46494d"/></linearGradient><linearGradient id="未命名的渐变_284" x1="81.02" y1="494.15" x2="81.02" y2="516.58" gradientTransform="translate(355.8 -387) rotate(45)" gradientUnits="userSpaceOnUse"><stop offset="0" stop-color="#b7b7b7"/><stop offset="0.03" stop-color="#9b9d9d"/><stop offset="0.07" stop-color="#878b8b"/><stop offset="0.09" stop-color="#808484"/><stop offset="0.18" stop-color="#a3a6a6"/><stop offset="0.4" stop-color="#f6f6f6"/><stop offset="0.54" stop-color="#d9d9d9"/><stop offset="0.84" stop-color="#8f8f8f"/><stop offset="1" stop-color="#666"/></linearGradient><linearGradient id="未命名的渐变_284-2" x1="1211.96" y1="-69.83" x2="1211.96" y2="-47.39" gradientTransform="translate(938.3 859.04) rotate(-135)" xlink:href="#未命名的渐变_284"/><linearGradient id="未命名的渐变_284-3" x1="928.48" y1="777.63" x2="928.48" y2="800.07" gradientTransform="translate(1270.07 -55.23) rotate(135)" xlink:href="#未命名的渐变_284"/><linearGradient id="未命名的渐变_284-4" x1="364.5" y1="-353.31" x2="364.5" y2="-330.87" gradientTransform="translate(24.03 527.27) rotate(-45)" xlink:href="#未命名的渐变_284"/><linearGradient id="未命名的渐变_52" x1="81.02" y1="513.77" x2="81.02" y2="519.22" gradientTransform="translate(355.8 -387) rotate(45)" gradientUnits="userSpaceOnUse"><stop offset="0" stop-color="#e2eaf2"/><stop offset="1" stop-color="#767b82"/></linearGradient><linearGradient id="未命名的渐变_17" x1="81.02" y1="515.3" x2="81.02" y2="517.69" gradientTransform="translate(355.8 -387) rotate(45)" gradientUnits="userSpaceOnUse"><stop offset="0" stop-color="#82888f"/><stop offset="0.17" stop-color="#9ea4af"/><stop offset="1" stop-color="#767b82"/></linearGradient></defs><title>Fan-powered terminal unit(风机供电终端装置)</title><g id="图层_2" data-name="图层 2"><g id="图层_16" data-name="图层 16"><g id="Fan-powered_terminal_unit_风机供电终端装置_" data-name="Fan-powered terminal unit(风机供电终端装置)"><rect class="cls-1" x="11.85" width="138.15" height="71.14"/><line class="cls-2" x1="81.55" y1="71.14" x2="81.55"/><rect class="cls-3" y="18.46" width="11.85" height="34.22"/><rect class="cls-4" x="101.26" y="7.28" width="44.54" height="56.57"/><circle class="cls-5" cx="47.75" cy="35.57" r="25.29"/><circle class="cls-6" cx="47.75" cy="35.57" r="25.29"/><circle class="cls-7" cx="29.53" cy="1.81" r="0.79"/><circle class="cls-8" cx="64.29" cy="1.81" r="0.79"/><circle class="cls-9" cx="99.04" cy="1.81" r="0.79"/><circle class="cls-10" cx="133.8" cy="1.81" r="0.79"/><circle class="cls-11" cx="29.53" cy="69.33" r="0.79"/><circle class="cls-12" cx="64.29" cy="69.33" r="0.79"/><circle class="cls-13" cx="99.04" cy="69.33" r="0.79"/><circle class="cls-14" cx="133.8" cy="69.33" r="0.79"/><path class="cls-15" d="M11.85,35H47.66a.58.58,0,0,1,.58.58v0a.58.58,0,0,1-.58.58H11.85a0,0,0,0,1,0,0V35A0,0,0,0,1,11.85,35Z"/><path class="cls-16" d="M46.35,33.54a4.86,4.86,0,0,1-.6.6l-.3-.22a3.32,3.32,0,0,1,.38-.46l.3-.27A3,3,0,0,1,46.35,33.54Z"/><path class="cls-16" d="M46.49,37.62l-.21.3a3,3,0,0,1-.45-.37c-.1-.1-.18-.2-.27-.3a1.78,1.78,0,0,1,.35-.21S46.53,37.58,46.49,37.62Z"/><path class="cls-16" d="M49.92,33.46a3,3,0,0,1,.37.45l-.3.22s-.59-.59-.59-.59a3.22,3.22,0,0,1,.21-.34A1.86,1.86,0,0,1,49.92,33.46Z"/><path class="cls-16" d="M49.92,37.55a2.67,2.67,0,0,1-.46.37,3.72,3.72,0,0,1-.22-.3s.59-.59.59-.59a2.33,2.33,0,0,1,.36.22C50.1,37.35,50,37.45,49.92,37.55Z"/><path class="cls-17" d="M59.78,21.67c.4-.4,2.93-2.92,3.89-2s-1.56,3.48-2,3.88-13.56,12.32-13.9,12S59.38,22.07,59.78,21.67Z"/><path class="cls-18" d="M35.83,49.47c-.4.4-2.92,2.92-3.89,2s1.56-3.48,2-3.88,13.55-12.32,13.9-12S36.23,49.07,35.83,49.47Z"/><path class="cls-19" d="M61.71,47.55c.4.4,2.92,2.92,2,3.88s-3.49-1.56-3.89-2-12.32-13.56-12-13.9S61.31,47.14,61.71,47.55Z"/><path class="cls-20" d="M33.91,23.59c-.41-.4-2.93-2.92-2-3.88s3.49,1.56,3.89,2,12.32,13.56,12,13.9S34.31,24,33.91,23.59Z"/><circle class="cls-21" cx="47.87" cy="35.51" r="2.72"/><circle class="cls-22" cx="47.87" cy="35.51" r="1.2"/></g></g></g></svg>