<svg xmlns="http://www.w3.org/2000/svg" xmlns:xlink="http://www.w3.org/1999/xlink" viewBox="0 0 149.42 141.13"><defs><style>.cls-1{fill:#cdd3d4;}.cls-2{fill:url(#未命名的渐变_105);}.cls-3{fill:url(#未命名的渐变_7);}.cls-4{fill:url(#未命名的渐变_105-2);}.cls-5{fill:url(#未命名的渐变_105-3);}.cls-6{fill:#dfdfdf;}.cls-7{fill:#9fa0a0;}.cls-8{fill:#e85464;stroke:#000;stroke-miterlimit:10;stroke-width:0.1px;}.cls-9{fill:#e9e9e9;}.cls-10{fill:url(#未命名的渐变_105-4);}.cls-11{fill:url(#未命名的渐变_67);}.cls-12{fill:#676666;}.cls-13{fill:#a4a4a4;}.cls-14{fill:#e3e3e4;}.cls-15{fill:url(#未命名的渐变_105-5);}.cls-16{fill:#1fc666;}.cls-17{fill:url(#未命名的渐变_105-6);}.cls-18{fill:#c16264;}.cls-19{fill:#b60717;}.cls-20{fill:url(#未命名的渐变_67-2);}.cls-21{opacity:0.2;}</style><linearGradient id="未命名的渐变_105" y1="74.04" x2="149.42" y2="74.04" gradientUnits="userSpaceOnUse"><stop offset="0" stop-color="#e2e2e2"/><stop offset="0.03" stop-color="#d0d0d0"/><stop offset="0.06" stop-color="#bcbcbc"/><stop offset="0.09" stop-color="#b5b5b5"/><stop offset="0.49" stop-color="#f6f6f6"/><stop offset="0.63" stop-color="#f3f3f3"/><stop offset="0.73" stop-color="#eaeaea"/><stop offset="0.82" stop-color="#dbdbdb"/><stop offset="0.9" stop-color="#c6c6c6"/><stop offset="0.97" stop-color="#aaa"/><stop offset="1" stop-color="#9b9b9b"/></linearGradient><linearGradient id="未命名的渐变_7" x1="0.07" y1="71.07" x2="149.42" y2="71.07" gradientUnits="userSpaceOnUse"><stop offset="0" stop-color="#6b6b6b"/><stop offset="0.01" stop-color="#767676"/><stop offset="0.03" stop-color="#959595"/><stop offset="0.04" stop-color="#aaa"/><stop offset="0.13" stop-color="#b1b1b1"/><stop offset="0.63" stop-color="#cfcfcf"/><stop offset="0.9" stop-color="#dbdbdb"/><stop offset="0.96" stop-color="#888"/><stop offset="0.99" stop-color="#666"/></linearGradient><linearGradient id="未命名的渐变_105-2" x1="60.82" y1="17.7" x2="89.38" y2="17.7" xlink:href="#未命名的渐变_105"/><linearGradient id="未命名的渐变_105-3" x1="73.58" y1="22.2" x2="76.54" y2="22.2" xlink:href="#未命名的渐变_105"/><linearGradient id="未命名的渐变_105-4" x1="73.17" y1="19.29" x2="76.95" y2="19.29" xlink:href="#未命名的渐变_105"/><linearGradient id="未命名的渐变_67" x1="73.58" y1="4.2" x2="76.69" y2="4.2" gradientUnits="userSpaceOnUse"><stop offset="0" stop-color="#6b6b6b"/><stop offset="0.11" stop-color="#767676"/><stop offset="0.3" stop-color="#959595"/><stop offset="0.41" stop-color="#aaa"/><stop offset="0.56" stop-color="#ccc"/><stop offset="0.71" stop-color="#eaeaea"/><stop offset="0.8" stop-color="#f6f6f6"/><stop offset="0.83" stop-color="#ededed"/><stop offset="0.87" stop-color="#d4d4d4"/><stop offset="0.92" stop-color="#ababab"/><stop offset="0.98" stop-color="#737373"/><stop offset="0.99" stop-color="#666"/></linearGradient><linearGradient id="未命名的渐变_105-5" x1="82.58" y1="36.35" x2="91.94" y2="36.35" xlink:href="#未命名的渐变_105"/><linearGradient id="未命名的渐变_105-6" x1="86.21" y1="36.35" x2="88.31" y2="36.35" xlink:href="#未命名的渐变_105"/><linearGradient id="未命名的渐变_67-2" x1="73.17" y1="13.11" x2="76.95" y2="13.11" xlink:href="#未命名的渐变_67"/></defs><title>Filling Machine（灌装机）</title><g id="图层_2" data-name="图层 2"><g id="图层_125" data-name="图层 125"><g id="Filling_Machine_灌装机_" data-name="Filling Machine（灌装机）"><rect class="cls-1" x="70.63" y="8.4" width="8.58" height="4.48"/><rect class="cls-2" y="19.86" width="149.42" height="108.35"/><rect class="cls-3" x="0.07" y="23.03" width="149.35" height="96.07"/><rect class="cls-4" x="60.82" y="15.54" width="28.56" height="4.32"/><rect class="cls-5" x="73.58" y="18.45" width="2.96" height="7.5"/><rect class="cls-6" x="0.07" y="65.26" width="149.35" height="2.97"/><rect class="cls-7" x="16.2" y="65.26" width="6.18" height="2.97"/><rect class="cls-1" x="11.81" y="31.59" width="16.25" height="16.25"/><rect class="cls-7" x="38.67" y="65.26" width="6.18" height="2.97"/><rect class="cls-7" x="60.85" y="65.26" width="6.18" height="2.97"/><rect class="cls-7" x="83.04" y="65.26" width="6.18" height="2.97"/><rect class="cls-7" x="105.22" y="65.26" width="6.18" height="2.97"/><rect class="cls-7" x="127.41" y="65.26" width="6.18" height="2.97"/><rect class="cls-8" x="13.16" y="32.88" width="13.27" height="4.86"/><rect class="cls-9" x="13.05" y="39.65" width="2.47" height="6.15"/><rect class="cls-9" x="16.45" y="39.65" width="2.47" height="6.15"/><rect class="cls-9" x="20.71" y="39.65" width="2.47" height="6.15"/><rect class="cls-9" x="24.11" y="39.65" width="2.47" height="6.15"/><rect class="cls-1" x="35.52" y="31.59" width="16.25" height="12.71"/><rect class="cls-8" x="36.87" y="32.88" width="13.27" height="4.86"/><rect class="cls-9" x="36.76" y="39.65" width="2.47" height="3.84"/><rect class="cls-9" x="40.16" y="39.65" width="2.47" height="3.84"/><rect class="cls-9" x="44.42" y="39.65" width="2.47" height="3.84"/><rect class="cls-9" x="47.82" y="39.65" width="2.47" height="3.84"/><rect class="cls-10" x="73.17" y="15.54" width="3.77" height="7.5"/><rect class="cls-11" x="73.58" width="3.11" height="8.4"/><polygon class="cls-12" points="11.16 141.13 3.02 141.13 3.02 128.21 20.77 128.21 11.16 141.13"/><polygon class="cls-12" points="138.56 141.13 146.7 141.13 146.7 128.21 128.95 128.21 138.56 141.13"/><rect class="cls-13" x="70.63" y="9.11" width="8.58" height="2.99"/><circle class="cls-14" cx="87.26" cy="36.35" r="5.23"/><circle class="cls-15" cx="87.26" cy="36.35" r="4.68"/><circle class="cls-14" cx="109.91" cy="36.35" r="5.23"/><circle class="cls-16" cx="109.91" cy="36.35" r="4.68"/><rect class="cls-17" x="86.21" y="31.91" width="2.1" height="8.88"/><rect class="cls-14" x="127.96" y="30.96" width="7.56" height="9.49"/><rect class="cls-18" x="129.09" y="31.83" width="5.49" height="2.84"/><rect class="cls-19" x="129.09" y="34.68" width="5.49" height="4.94"/><rect class="cls-20" x="73.17" y="9.36" width="3.77" height="7.5"/></g></g></g></svg>