<svg xmlns="http://www.w3.org/2000/svg" xmlns:xlink="http://www.w3.org/1999/xlink" viewBox="0 0 150.02 143.94"><defs><style>.cls-1{fill:#cdd3d4;}.cls-2{fill:url(#未命名的渐变_105);}.cls-3{fill:url(#未命名的渐变_7);}.cls-4{fill:url(#未命名的渐变_105-2);}.cls-5{fill:url(#未命名的渐变_105-3);}.cls-6{fill:#9fa0a0;}.cls-7{fill:#d9d9d9;}.cls-8{fill:url(#未命名的渐变_74);}.cls-9{fill:#595757;}.cls-10{fill:#878585;}.cls-11{fill:#e9e9e9;}.cls-12{fill:#e85464;}.cls-13{fill:url(#未命名的渐变_105-4);}.cls-14{fill:url(#未命名的渐变_67);}.cls-15{fill:#676666;}.cls-16{fill:#a4a4a4;}.cls-17{fill:#e3e3e4;}.cls-18{fill:url(#未命名的渐变_105-5);}.cls-19{fill:#1fc666;}.cls-20{fill:url(#未命名的渐变_105-6);}.cls-21{fill:url(#未命名的渐变_105-7);}.cls-22{fill:url(#未命名的渐变_105-8);}.cls-23{fill:#91888a;}.cls-24{fill:#c16264;}.cls-25{fill:#b60717;}.cls-26{fill:url(#未命名的渐变_67-2);}.cls-27{opacity:0.2;}</style><linearGradient id="未命名的渐变_105" x1="0.62" y1="75.53" x2="150.02" y2="75.53" gradientUnits="userSpaceOnUse"><stop offset="0" stop-color="#e2e2e2"/><stop offset="0.03" stop-color="#d0d0d0"/><stop offset="0.06" stop-color="#bcbcbc"/><stop offset="0.09" stop-color="#b5b5b5"/><stop offset="0.49" stop-color="#f6f6f6"/><stop offset="0.63" stop-color="#f3f3f3"/><stop offset="0.73" stop-color="#eaeaea"/><stop offset="0.82" stop-color="#dbdbdb"/><stop offset="0.9" stop-color="#c6c6c6"/><stop offset="0.97" stop-color="#aaa"/><stop offset="1" stop-color="#9b9b9b"/></linearGradient><linearGradient id="未命名的渐变_7" x1="0.69" y1="72.52" x2="150.02" y2="72.52" gradientUnits="userSpaceOnUse"><stop offset="0" stop-color="#6b6b6b"/><stop offset="0.01" stop-color="#767676"/><stop offset="0.03" stop-color="#959595"/><stop offset="0.04" stop-color="#aaa"/><stop offset="0.13" stop-color="#b1b1b1"/><stop offset="0.63" stop-color="#cfcfcf"/><stop offset="0.9" stop-color="#dbdbdb"/><stop offset="0.96" stop-color="#888"/><stop offset="0.99" stop-color="#666"/></linearGradient><linearGradient id="未命名的渐变_105-2" x1="61.05" y1="17.93" x2="89.61" y2="17.93" xlink:href="#未命名的渐变_105"/><linearGradient id="未命名的渐变_105-3" x1="73.81" y1="22.49" x2="76.77" y2="22.49" xlink:href="#未命名的渐变_105"/><linearGradient id="未命名的渐变_74" x1="9.84" y1="48.11" x2="43.51" y2="48.11" gradientUnits="userSpaceOnUse"><stop offset="0" stop-color="#6b6b6b"/><stop offset="0.01" stop-color="#767676"/><stop offset="0.03" stop-color="#959595"/><stop offset="0.04" stop-color="#aaa"/><stop offset="0.37" stop-color="#ccc"/><stop offset="0.74" stop-color="#eaeaea"/><stop offset="0.94" stop-color="#f6f6f6"/><stop offset="0.95" stop-color="#ededed"/><stop offset="0.96" stop-color="#d4d4d4"/><stop offset="0.97" stop-color="#ababab"/><stop offset="0.99" stop-color="#737373"/><stop offset="0.99" stop-color="#666"/></linearGradient><linearGradient id="未命名的渐变_105-4" x1="73.4" y1="19.53" x2="77.17" y2="19.53" xlink:href="#未命名的渐变_105"/><linearGradient id="未命名的渐变_67" x1="73.81" y1="4.25" x2="76.91" y2="4.25" gradientUnits="userSpaceOnUse"><stop offset="0" stop-color="#6b6b6b"/><stop offset="0.11" stop-color="#767676"/><stop offset="0.3" stop-color="#959595"/><stop offset="0.41" stop-color="#aaa"/><stop offset="0.56" stop-color="#ccc"/><stop offset="0.71" stop-color="#eaeaea"/><stop offset="0.8" stop-color="#f6f6f6"/><stop offset="0.83" stop-color="#ededed"/><stop offset="0.87" stop-color="#d4d4d4"/><stop offset="0.92" stop-color="#ababab"/><stop offset="0.98" stop-color="#737373"/><stop offset="0.99" stop-color="#666"/></linearGradient><linearGradient id="未命名的渐变_105-5" x1="47.94" y1="40.48" x2="56.92" y2="40.48" xlink:href="#未命名的渐变_105"/><linearGradient id="未命名的渐变_105-6" x1="51.42" y1="40.48" x2="53.44" y2="40.48" xlink:href="#未命名的渐变_105"/><linearGradient id="未命名的渐变_105-7" x1="47.94" y1="56.13" x2="56.92" y2="56.13" xlink:href="#未命名的渐变_105"/><linearGradient id="未命名的渐变_105-8" x1="51.42" y1="56.13" x2="53.44" y2="56.13" xlink:href="#未命名的渐变_105"/><linearGradient id="未命名的渐变_67-2" x1="73.4" y1="13.28" x2="77.17" y2="13.28" xlink:href="#未命名的渐变_67"/></defs><title>Filling Machine 2（灌装机2）</title><g id="图层_2" data-name="图层 2"><g id="图层_125" data-name="图层 125"><g id="Filling_Machine_2_灌装机2_" data-name="Filling Machine 2（灌装机2）"><rect class="cls-1" x="70.86" y="8.5" width="8.57" height="4.54"/><rect class="cls-2" x="0.62" y="20.66" width="149.4" height="109.74"/><rect class="cls-3" x="0.69" y="23.87" width="149.33" height="97.3"/><rect class="cls-4" x="61.05" y="15.74" width="28.56" height="4.38"/><rect class="cls-5" x="73.81" y="18.69" width="2.96" height="7.59"/><rect class="cls-6" y="93.38" width="149.89" height="2.86"/><rect class="cls-7" x="6.03" y="90.31" width="15.63" height="3.07"/><rect class="cls-7" x="26.72" y="90.31" width="15.63" height="3.07"/><rect class="cls-7" x="47.4" y="90.31" width="15.63" height="3.07"/><rect class="cls-7" x="68.09" y="90.31" width="15.63" height="3.07"/><rect class="cls-7" x="88.78" y="90.31" width="15.63" height="3.07"/><rect class="cls-7" x="109.46" y="90.31" width="15.63" height="3.07"/><rect class="cls-7" x="130.15" y="90.31" width="15.63" height="3.07"/><rect class="cls-8" x="9.84" y="31.63" width="33.67" height="32.98"/><rect class="cls-9" x="13.03" y="34.12" width="27.35" height="10.62"/><polygon class="cls-10" points="40.38 44.74 13.03 44.74 13.03 34.12 24.07 34.12 40.38 44.74"/><rect class="cls-11" x="13.03" y="47.82" width="4.61" height="3.82"/><rect class="cls-11" x="13.03" y="53.21" width="4.61" height="3.82"/><rect class="cls-11" x="13.03" y="58.61" width="4.61" height="3.82"/><rect class="cls-11" x="20.61" y="47.82" width="4.61" height="3.82"/><rect class="cls-11" x="20.61" y="53.21" width="4.61" height="3.82"/><rect class="cls-11" x="20.61" y="58.61" width="4.61" height="3.82"/><rect class="cls-11" x="28.19" y="47.82" width="4.61" height="3.82"/><rect class="cls-11" x="28.19" y="53.21" width="4.61" height="3.82"/><rect class="cls-11" x="28.19" y="58.61" width="4.61" height="3.82"/><rect class="cls-12" x="35.77" y="47.82" width="4.61" height="3.82"/><rect class="cls-11" x="35.77" y="53.21" width="4.61" height="3.82"/><rect class="cls-11" x="35.77" y="58.61" width="4.61" height="3.82"/><rect class="cls-11" x="119.47" y="31.17" width="21.34" height="12.78"/><rect class="cls-13" x="73.4" y="15.74" width="3.77" height="7.59"/><rect class="cls-14" x="73.81" width="3.11" height="8.5"/><polygon class="cls-15" points="10.95 143.94 3.13 143.94 3.13 130.4 20.18 130.4 10.95 143.94"/><polygon class="cls-15" points="138.76 143.94 146.59 143.94 146.59 130.4 129.53 130.4 138.76 143.94"/><rect class="cls-16" x="70.86" y="9.22" width="8.57" height="3.03"/><circle class="cls-17" cx="52.43" cy="40.48" r="5.02"/><circle class="cls-18" cx="52.43" cy="40.48" r="4.49"/><circle class="cls-17" cx="123.4" cy="35.15" r="2.22"/><circle class="cls-19" cx="123.4" cy="35.15" r="1.98"/><rect class="cls-20" x="51.42" y="36.21" width="2.02" height="8.53"/><circle class="cls-17" cx="52.43" cy="56.13" r="5.02"/><circle class="cls-21" cx="52.43" cy="56.13" r="4.49"/><rect class="cls-22" x="51.42" y="51.87" width="2.02" height="8.53"/><rect class="cls-23" x="121.99" y="38.41" width="2.83" height="3.55"/><rect class="cls-24" x="122.38" y="38.73" width="2.05" height="1.06"/><rect class="cls-25" x="122.38" y="39.8" width="2.05" height="1.85"/><circle class="cls-17" cx="130.04" cy="35.07" r="2.22"/><circle class="cls-19" cx="130.04" cy="35.07" r="1.98"/><rect class="cls-23" x="128.63" y="38.33" width="2.83" height="3.55"/><rect class="cls-24" x="129.01" y="38.65" width="2.05" height="1.06"/><rect class="cls-25" x="129.01" y="39.72" width="2.05" height="1.85"/><circle class="cls-17" cx="136.68" cy="35.07" r="2.22"/><circle class="cls-19" cx="136.68" cy="35.07" r="1.98"/><rect class="cls-23" x="135.27" y="38.33" width="2.83" height="3.55"/><rect class="cls-24" x="135.65" y="38.65" width="2.05" height="1.06"/><rect class="cls-25" x="135.65" y="39.72" width="2.05" height="1.85"/><rect class="cls-26" x="73.4" y="9.48" width="3.77" height="7.59"/></g></g></g></svg>