<svg xmlns="http://www.w3.org/2000/svg" xmlns:xlink="http://www.w3.org/1999/xlink" viewBox="0 0 149.99 79.72"><defs><style>.cls-1{fill:url(#未命名的渐变_74);}.cls-2{fill:#b0b0b0;}.cls-3{fill:#c6c6c6;}.cls-4{fill:url(#未命名的渐变_105);}.cls-5{fill:url(#未命名的渐变_105-2);}.cls-6{fill:url(#未命名的渐变_105-3);}.cls-7{fill:url(#未命名的渐变_105-4);}.cls-8{fill:url(#未命名的渐变_105-5);}.cls-9{fill:url(#未命名的渐变_105-6);}.cls-10{fill:url(#未命名的渐变_105-7);}.cls-11{fill:url(#未命名的渐变_105-8);}.cls-12{fill:url(#未命名的渐变_105-9);}.cls-13{fill:url(#未命名的渐变_74-2);}.cls-14{fill:url(#未命名的渐变_105-10);}.cls-15{fill:url(#未命名的渐变_105-11);}.cls-16{fill:url(#未命名的渐变_67);}.cls-17{fill:url(#未命名的渐变_105-12);}.cls-18{fill:url(#未命名的渐变_67-2);}.cls-19{fill:url(#未命名的渐变_105-13);}.cls-20{fill:url(#未命名的渐变_67-3);}.cls-21{fill:url(#未命名的渐变_105-14);}.cls-22{fill:url(#未命名的渐变_67-4);}.cls-23{fill:url(#未命名的渐变_105-15);}.cls-24{fill:url(#未命名的渐变_67-5);}.cls-25{fill:url(#未命名的渐变_105-16);}.cls-26{fill:url(#未命名的渐变_67-6);}.cls-27{fill:url(#未命名的渐变_105-17);}.cls-28{fill:url(#未命名的渐变_67-7);}.cls-29{fill:url(#未命名的渐变_105-18);}.cls-30{fill:url(#未命名的渐变_67-8);}.cls-31{fill:url(#未命名的渐变_105-19);}.cls-32{fill:url(#未命名的渐变_67-9);}.cls-33{fill:url(#未命名的渐变_105-20);}.cls-34{fill:url(#未命名的渐变_67-10);}.cls-35{fill:url(#未命名的渐变_105-21);}.cls-36{fill:url(#未命名的渐变_67-11);}.cls-37{fill:url(#未命名的渐变_105-22);}.cls-38{fill:url(#未命名的渐变_67-12);}.cls-39{fill:url(#未命名的渐变_105-23);}.cls-40{fill:url(#未命名的渐变_67-13);}.cls-41{fill:url(#未命名的渐变_105-24);}.cls-42{fill:url(#未命名的渐变_67-14);}.cls-43{fill:url(#未命名的渐变_105-25);}.cls-44{fill:url(#未命名的渐变_67-15);}.cls-45{fill:url(#未命名的渐变_105-26);}.cls-46{fill:url(#未命名的渐变_67-16);}.cls-47{fill:url(#未命名的渐变_105-27);}.cls-48{fill:url(#未命名的渐变_67-17);}.cls-49{fill:url(#未命名的渐变_105-28);}.cls-50{fill:url(#未命名的渐变_105-29);}.cls-51{fill:url(#未命名的渐变_105-30);}.cls-52{fill:url(#未命名的渐变_105-31);}.cls-53{fill:url(#未命名的渐变_105-32);}.cls-54{fill:url(#未命名的渐变_105-33);}.cls-55{fill:url(#未命名的渐变_105-34);}.cls-56{fill:url(#未命名的渐变_105-35);}.cls-57{fill:url(#未命名的渐变_105-36);}.cls-58{fill:url(#未命名的渐变_105-37);}.cls-59{fill:url(#未命名的渐变_105-38);}.cls-60{fill:url(#未命名的渐变_105-39);}.cls-61{fill:url(#未命名的渐变_105-40);}.cls-62{fill:url(#未命名的渐变_105-41);}.cls-63{fill:url(#未命名的渐变_105-42);}.cls-64{fill:url(#未命名的渐变_105-43);}.cls-65{opacity:0.2;}</style><linearGradient id="未命名的渐变_74" x1="5.26" y1="24.82" x2="82.97" y2="24.82" gradientUnits="userSpaceOnUse"><stop offset="0" stop-color="#6b6b6b"/><stop offset="0.01" stop-color="#767676"/><stop offset="0.03" stop-color="#959595"/><stop offset="0.04" stop-color="#aaa"/><stop offset="0.37" stop-color="#ccc"/><stop offset="0.74" stop-color="#eaeaea"/><stop offset="0.94" stop-color="#f6f6f6"/><stop offset="0.95" stop-color="#ededed"/><stop offset="0.96" stop-color="#d4d4d4"/><stop offset="0.97" stop-color="#ababab"/><stop offset="0.99" stop-color="#737373"/><stop offset="0.99" stop-color="#666"/></linearGradient><linearGradient id="未命名的渐变_105" x1="128.14" y1="27.17" x2="128.14" y2="22.4" gradientUnits="userSpaceOnUse"><stop offset="0" stop-color="#e2e2e2"/><stop offset="0.03" stop-color="#d0d0d0"/><stop offset="0.06" stop-color="#bcbcbc"/><stop offset="0.09" stop-color="#b5b5b5"/><stop offset="0.49" stop-color="#f6f6f6"/><stop offset="0.63" stop-color="#f3f3f3"/><stop offset="0.73" stop-color="#eaeaea"/><stop offset="0.82" stop-color="#dbdbdb"/><stop offset="0.9" stop-color="#c6c6c6"/><stop offset="0.97" stop-color="#aaa"/><stop offset="1" stop-color="#9b9b9b"/></linearGradient><linearGradient id="未命名的渐变_105-2" x1="128.14" y1="36.56" x2="133.06" y2="36.56" xlink:href="#未命名的渐变_105"/><linearGradient id="未命名的渐变_105-3" x1="125.94" y1="38.76" x2="135.12" y2="38.76" xlink:href="#未命名的渐变_105"/><linearGradient id="未命名的渐变_105-4" x1="131.19" y1="26.73" x2="131.19" y2="20.91" xlink:href="#未命名的渐变_105"/><linearGradient id="未命名的渐变_105-5" x1="310.06" y1="929.34" x2="312.35" y2="929.34" gradientTransform="translate(-167.88 -911.86)" xlink:href="#未命名的渐变_105"/><linearGradient id="未命名的渐变_105-6" x1="63.21" y1="73.54" x2="63.21" y2="69.47" xlink:href="#未命名的渐变_105"/><linearGradient id="未命名的渐变_105-7" x1="84.69" y1="36.42" x2="84.69" y2="12.83" xlink:href="#未命名的渐变_105"/><linearGradient id="未命名的渐变_105-8" x1="121.87" y1="32.08" x2="121.87" y2="17.03" xlink:href="#未命名的渐变_105"/><linearGradient id="未命名的渐变_105-9" x1="130.42" y1="35.37" x2="130.42" y2="13.92" xlink:href="#未命名的渐变_105"/><linearGradient id="未命名的渐变_74-2" x1="0" y1="24.6" x2="121.56" y2="24.6" xlink:href="#未命名的渐变_74"/><linearGradient id="未命名的渐变_105-10" x1="2.92" y1="24.94" x2="7.6" y2="24.94" xlink:href="#未命名的渐变_105"/><linearGradient id="未命名的渐变_105-11" x1="7.82" y1="44.48" x2="10.57" y2="44.48" xlink:href="#未命名的渐变_105"/><linearGradient id="未命名的渐变_67" x1="8.18" y1="44.48" x2="10.21" y2="44.48" gradientUnits="userSpaceOnUse"><stop offset="0" stop-color="#6b6b6b"/><stop offset="0.11" stop-color="#767676"/><stop offset="0.3" stop-color="#959595"/><stop offset="0.41" stop-color="#aaa"/><stop offset="0.56" stop-color="#ccc"/><stop offset="0.71" stop-color="#eaeaea"/><stop offset="0.8" stop-color="#f6f6f6"/><stop offset="0.83" stop-color="#ededed"/><stop offset="0.87" stop-color="#d4d4d4"/><stop offset="0.92" stop-color="#ababab"/><stop offset="0.98" stop-color="#737373"/><stop offset="0.99" stop-color="#666"/></linearGradient><linearGradient id="未命名的渐变_105-12" x1="12.45" y1="44.48" x2="15.19" y2="44.48" xlink:href="#未命名的渐变_105"/><linearGradient id="未命名的渐变_67-2" x1="12.8" y1="44.48" x2="14.84" y2="44.48" xlink:href="#未命名的渐变_67"/><linearGradient id="未命名的渐变_105-13" x1="17.07" y1="44.48" x2="19.82" y2="44.48" xlink:href="#未命名的渐变_105"/><linearGradient id="未命名的渐变_67-3" x1="17.43" y1="44.48" x2="19.46" y2="44.48" xlink:href="#未命名的渐变_67"/><linearGradient id="未命名的渐变_105-14" x1="21.69" y1="44.48" x2="24.44" y2="44.48" xlink:href="#未命名的渐变_105"/><linearGradient id="未命名的渐变_67-4" x1="22.05" y1="44.48" x2="24.08" y2="44.48" xlink:href="#未命名的渐变_67"/><linearGradient id="未命名的渐变_105-15" x1="26.32" y1="44.48" x2="29.06" y2="44.48" xlink:href="#未命名的渐变_105"/><linearGradient id="未命名的渐变_67-5" x1="26.67" y1="44.48" x2="28.71" y2="44.48" xlink:href="#未命名的渐变_67"/><linearGradient id="未命名的渐变_105-16" x1="30.94" y1="44.48" x2="33.69" y2="44.48" xlink:href="#未命名的渐变_105"/><linearGradient id="未命名的渐变_67-6" x1="31.3" y1="44.48" x2="33.33" y2="44.48" xlink:href="#未命名的渐变_67"/><linearGradient id="未命名的渐变_105-17" x1="35.56" y1="44.48" x2="38.31" y2="44.48" xlink:href="#未命名的渐变_105"/><linearGradient id="未命名的渐变_67-7" x1="35.92" y1="44.48" x2="37.95" y2="44.48" xlink:href="#未命名的渐变_67"/><linearGradient id="未命名的渐变_105-18" x1="40.19" y1="44.48" x2="42.93" y2="44.48" xlink:href="#未命名的渐变_105"/><linearGradient id="未命名的渐变_67-8" x1="40.54" y1="44.48" x2="42.57" y2="44.48" xlink:href="#未命名的渐变_67"/><linearGradient id="未命名的渐变_105-19" x1="44.81" y1="44.48" x2="47.55" y2="44.48" xlink:href="#未命名的渐变_105"/><linearGradient id="未命名的渐变_67-9" x1="45.17" y1="44.48" x2="47.2" y2="44.48" xlink:href="#未命名的渐变_67"/><linearGradient id="未命名的渐变_105-20" x1="49.43" y1="44.48" x2="52.18" y2="44.48" xlink:href="#未命名的渐变_105"/><linearGradient id="未命名的渐变_67-10" x1="49.79" y1="44.48" x2="51.82" y2="44.48" xlink:href="#未命名的渐变_67"/><linearGradient id="未命名的渐变_105-21" x1="54.06" y1="44.48" x2="56.8" y2="44.48" xlink:href="#未命名的渐变_105"/><linearGradient id="未命名的渐变_67-11" x1="54.41" y1="44.48" x2="56.44" y2="44.48" xlink:href="#未命名的渐变_67"/><linearGradient id="未命名的渐变_105-22" x1="58.68" y1="44.48" x2="61.42" y2="44.48" xlink:href="#未命名的渐变_105"/><linearGradient id="未命名的渐变_67-12" x1="59.04" y1="44.48" x2="61.07" y2="44.48" xlink:href="#未命名的渐变_67"/><linearGradient id="未命名的渐变_105-23" x1="63.3" y1="44.48" x2="66.05" y2="44.48" xlink:href="#未命名的渐变_105"/><linearGradient id="未命名的渐变_67-13" x1="63.66" y1="44.48" x2="65.69" y2="44.48" xlink:href="#未命名的渐变_67"/><linearGradient id="未命名的渐变_105-24" x1="67.92" y1="44.48" x2="70.67" y2="44.48" xlink:href="#未命名的渐变_105"/><linearGradient id="未命名的渐变_67-14" x1="68.28" y1="44.48" x2="70.31" y2="44.48" xlink:href="#未命名的渐变_67"/><linearGradient id="未命名的渐变_105-25" x1="72.55" y1="44.48" x2="75.29" y2="44.48" xlink:href="#未命名的渐变_105"/><linearGradient id="未命名的渐变_67-15" x1="72.9" y1="44.48" x2="74.94" y2="44.48" xlink:href="#未命名的渐变_67"/><linearGradient id="未命名的渐变_105-26" x1="77.17" y1="44.48" x2="79.92" y2="44.48" xlink:href="#未命名的渐变_105"/><linearGradient id="未命名的渐变_67-16" x1="77.53" y1="44.48" x2="79.56" y2="44.48" xlink:href="#未命名的渐变_67"/><linearGradient id="未命名的渐变_105-27" x1="110.49" y1="24.94" x2="115.17" y2="24.94" xlink:href="#未命名的渐变_105"/><linearGradient id="未命名的渐变_67-17" x1="111.45" y1="24.94" x2="114.21" y2="24.94" xlink:href="#未命名的渐变_67"/><linearGradient id="未命名的渐变_105-28" x1="136.66" y1="23.82" x2="136.66" y2="16.34" xlink:href="#未命名的渐变_105"/><linearGradient id="未命名的渐变_105-29" x1="7.34" y1="12.64" x2="10.1" y2="12.64" xlink:href="#未命名的渐变_105"/><linearGradient id="未命名的渐变_105-30" x1="11.69" y1="12.64" x2="14.45" y2="12.64" xlink:href="#未命名的渐变_105"/><linearGradient id="未命名的渐变_105-31" x1="16.03" y1="12.64" x2="18.79" y2="12.64" xlink:href="#未命名的渐变_105"/><linearGradient id="未命名的渐变_105-32" x1="20.37" y1="12.64" x2="23.13" y2="12.64" xlink:href="#未命名的渐变_105"/><linearGradient id="未命名的渐变_105-33" x1="24.72" y1="12.64" x2="27.48" y2="12.64" xlink:href="#未命名的渐变_105"/><linearGradient id="未命名的渐变_105-34" x1="29.06" y1="12.64" x2="31.82" y2="12.64" xlink:href="#未命名的渐变_105"/><linearGradient id="未命名的渐变_105-35" x1="33.4" y1="12.64" x2="36.17" y2="12.64" xlink:href="#未命名的渐变_105"/><linearGradient id="未命名的渐变_105-36" x1="37.75" y1="12.64" x2="40.51" y2="12.64" xlink:href="#未命名的渐变_105"/><linearGradient id="未命名的渐变_105-37" x1="42.09" y1="12.64" x2="44.85" y2="12.64" xlink:href="#未命名的渐变_105"/><linearGradient id="未命名的渐变_105-38" x1="46.43" y1="12.64" x2="49.2" y2="12.64" xlink:href="#未命名的渐变_105"/><linearGradient id="未命名的渐变_105-39" x1="50.78" y1="12.64" x2="53.54" y2="12.64" xlink:href="#未命名的渐变_105"/><linearGradient id="未命名的渐变_105-40" x1="55.12" y1="12.64" x2="57.88" y2="12.64" xlink:href="#未命名的渐变_105"/><linearGradient id="未命名的渐变_105-41" x1="59.46" y1="12.64" x2="62.23" y2="12.64" xlink:href="#未命名的渐变_105"/><linearGradient id="未命名的渐变_105-42" x1="63.81" y1="12.64" x2="66.57" y2="12.64" xlink:href="#未命名的渐变_105"/><linearGradient id="未命名的渐变_105-43" x1="68.15" y1="12.64" x2="70.91" y2="12.64" xlink:href="#未命名的渐变_105"/></defs><title>Filter press（压滤机）</title><g id="图层_2" data-name="图层 2"><g id="图层_125" data-name="图层 125"><g id="Filter_press_压滤机_" data-name="Filter press（压滤机）"><rect class="cls-1" x="5.26" width="77.71" height="49.63"/><rect class="cls-2" x="5.08" y="19.25" width="77.71" height="10.93"/><rect class="cls-3" x="72.56" y="14.46" width="9.22" height="3.25"/><rect class="cls-4" x="123.53" y="22.4" width="9.22" height="4.77"/><rect class="cls-5" x="128.14" y="35.37" width="4.92" height="2.38"/><rect class="cls-6" x="125.94" y="37.75" width="9.18" height="2.01"/><rect class="cls-7" x="126.58" y="20.91" width="9.22" height="5.82"/><rect class="cls-8" x="142.18" y="10.82" width="2.29" height="13.33" transform="translate(125.84 160.81) rotate(-90)"/><polygon class="cls-3" points="120.21 34.55 116.96 39.4 106.35 39.4 103.03 34.55 103.03 14.46 120.21 14.46 120.21 34.55"/><rect class="cls-3" x="9.21" y="49.63" width="10.6" height="26.84"/><rect class="cls-3" x="6.47" y="76.47" width="16.6" height="3.25"/><rect class="cls-3" x="106.35" y="39.4" width="10.6" height="37.07"/><rect class="cls-3" x="103.61" y="76.47" width="16.6" height="3.25"/><rect class="cls-9" x="19.82" y="69.47" width="86.79" height="4.07"/><rect class="cls-10" x="82.93" y="12.83" width="3.52" height="23.58"/><rect class="cls-11" x="120.21" y="17.03" width="3.32" height="15.05"/><rect class="cls-12" x="126.58" y="13.92" width="7.69" height="21.45"/><rect class="cls-2" x="103.03" y="19.25" width="17.18" height="11.07"/><rect class="cls-13" y="19.79" width="121.56" height="9.62"/><rect class="cls-2" x="72.56" y="17.71" width="9.22" height="2.08"/><polygon class="cls-14" points="4.09 26.96 6.43 26.96 7.6 24.94 6.43 22.92 4.09 22.92 2.92 24.94 4.09 26.96"/><circle class="cls-15" cx="9.2" cy="44.48" r="1.37"/><circle class="cls-16" cx="9.2" cy="44.48" r="1.02"/><circle class="cls-17" cx="13.82" cy="44.48" r="1.37"/><circle class="cls-18" cx="13.82" cy="44.48" r="1.02"/><circle class="cls-19" cx="18.44" cy="44.48" r="1.37"/><circle class="cls-20" cx="18.44" cy="44.48" r="1.02"/><circle class="cls-21" cx="23.07" cy="44.48" r="1.37"/><circle class="cls-22" cx="23.07" cy="44.48" r="1.02"/><circle class="cls-23" cx="27.69" cy="44.48" r="1.37"/><circle class="cls-24" cx="27.69" cy="44.48" r="1.02"/><circle class="cls-25" cx="32.31" cy="44.48" r="1.37"/><circle class="cls-26" cx="32.31" cy="44.48" r="1.02"/><circle class="cls-27" cx="36.94" cy="44.48" r="1.37"/><circle class="cls-28" cx="36.94" cy="44.48" r="1.02"/><circle class="cls-29" cx="41.56" cy="44.48" r="1.37"/><circle class="cls-30" cx="41.56" cy="44.48" r="1.02"/><circle class="cls-31" cx="46.18" cy="44.48" r="1.37"/><circle class="cls-32" cx="46.18" cy="44.48" r="1.02"/><circle class="cls-33" cx="50.8" cy="44.48" r="1.37"/><circle class="cls-34" cx="50.8" cy="44.48" r="1.02"/><circle class="cls-35" cx="55.43" cy="44.48" r="1.37"/><circle class="cls-36" cx="55.43" cy="44.48" r="1.02"/><circle class="cls-37" cx="60.05" cy="44.48" r="1.37"/><circle class="cls-38" cx="60.05" cy="44.48" r="1.02"/><circle class="cls-39" cx="64.67" cy="44.48" r="1.37"/><circle class="cls-40" cx="64.67" cy="44.48" r="1.02"/><circle class="cls-41" cx="69.3" cy="44.48" r="1.37"/><circle class="cls-42" cx="69.3" cy="44.48" r="1.02"/><circle class="cls-43" cx="73.92" cy="44.48" r="1.37"/><circle class="cls-44" cx="73.92" cy="44.48" r="1.02"/><circle class="cls-45" cx="78.54" cy="44.48" r="1.37"/><circle class="cls-46" cx="78.54" cy="44.48" r="1.02"/><polygon class="cls-47" points="111.66 26.96 114 26.96 115.17 24.94 114 22.92 111.66 22.92 110.49 24.94 111.66 26.96"/><circle class="cls-48" cx="112.83" cy="24.94" r="1.38"/><rect class="cls-49" x="135.79" y="16.34" width="1.73" height="7.48"/><rect class="cls-50" x="7.34" y="5.49" width="2.76" height="14.3"/><rect class="cls-51" x="11.69" y="5.49" width="2.76" height="14.3"/><rect class="cls-52" x="16.03" y="5.49" width="2.76" height="14.3"/><rect class="cls-53" x="20.37" y="5.49" width="2.76" height="14.3"/><rect class="cls-54" x="24.72" y="5.49" width="2.76" height="14.3"/><rect class="cls-55" x="29.06" y="5.49" width="2.76" height="14.3"/><rect class="cls-56" x="33.4" y="5.49" width="2.76" height="14.3"/><rect class="cls-57" x="37.75" y="5.49" width="2.76" height="14.3"/><rect class="cls-58" x="42.09" y="5.49" width="2.76" height="14.3"/><rect class="cls-59" x="46.43" y="5.49" width="2.76" height="14.3"/><rect class="cls-60" x="50.78" y="5.49" width="2.76" height="14.3"/><rect class="cls-61" x="55.12" y="5.49" width="2.76" height="14.3"/><rect class="cls-62" x="59.46" y="5.49" width="2.76" height="14.3"/><rect class="cls-63" x="63.81" y="5.49" width="2.76" height="14.3"/><rect class="cls-64" x="68.15" y="5.49" width="2.76" height="14.3"/></g></g></g></svg>