<svg xmlns="http://www.w3.org/2000/svg" xmlns:xlink="http://www.w3.org/1999/xlink" viewBox="0 0 73.27 150"><defs><style>.cls-1{fill:url(#未命名的渐变_105);}.cls-2{fill:url(#未命名的渐变_67);}.cls-3{fill:url(#未命名的渐变_105-2);}.cls-4{fill:url(#未命名的渐变_105-3);}.cls-5{fill:url(#未命名的渐变_105-4);}.cls-6{fill:url(#未命名的渐变_105-5);}.cls-7{fill:url(#未命名的渐变_105-6);}.cls-8{fill:url(#未命名的渐变_105-7);}.cls-9{fill:url(#未命名的渐变_105-8);}.cls-10{fill:url(#未命名的渐变_105-9);}.cls-11{fill:url(#未命名的渐变_105-10);}.cls-12{fill:url(#未命名的渐变_105-11);}.cls-13{fill:url(#未命名的渐变_105-12);}.cls-14{fill:url(#未命名的渐变_105-13);}.cls-15{fill:url(#未命名的渐变_105-14);}.cls-16{fill:url(#未命名的渐变_105-15);}.cls-17{fill:url(#未命名的渐变_67-2);}.cls-18{fill:url(#未命名的渐变_67-3);}.cls-19{fill:url(#未命名的渐变_105-16);}.cls-20{fill:#d7d7d7;}.cls-21{opacity:0.2;}</style><linearGradient id="未命名的渐变_105" x1="10.55" y1="64.82" x2="62.78" y2="64.82" gradientUnits="userSpaceOnUse"><stop offset="0" stop-color="#e2e2e2"/><stop offset="0.03" stop-color="#d0d0d0"/><stop offset="0.06" stop-color="#bcbcbc"/><stop offset="0.09" stop-color="#b5b5b5"/><stop offset="0.49" stop-color="#f6f6f6"/><stop offset="0.63" stop-color="#f3f3f3"/><stop offset="0.73" stop-color="#eaeaea"/><stop offset="0.82" stop-color="#dbdbdb"/><stop offset="0.9" stop-color="#c6c6c6"/><stop offset="0.97" stop-color="#aaa"/><stop offset="1" stop-color="#9b9b9b"/></linearGradient><linearGradient id="未命名的渐变_67" x1="9.57" y1="16.5" x2="63.25" y2="16.5" gradientUnits="userSpaceOnUse"><stop offset="0" stop-color="#6b6b6b"/><stop offset="0.11" stop-color="#767676"/><stop offset="0.3" stop-color="#959595"/><stop offset="0.41" stop-color="#aaa"/><stop offset="0.56" stop-color="#ccc"/><stop offset="0.71" stop-color="#eaeaea"/><stop offset="0.8" stop-color="#f6f6f6"/><stop offset="0.83" stop-color="#ededed"/><stop offset="0.87" stop-color="#d4d4d4"/><stop offset="0.92" stop-color="#ababab"/><stop offset="0.98" stop-color="#737373"/><stop offset="0.99" stop-color="#666"/></linearGradient><linearGradient id="未命名的渐变_105-2" x1="36.67" y1="109.9" x2="36.67" y2="105.33" xlink:href="#未命名的渐变_105"/><linearGradient id="未命名的渐变_105-3" x1="1.38" y1="67.5" x2="1.38" y2="46.23" xlink:href="#未命名的渐变_105"/><linearGradient id="未命名的渐变_105-4" x1="7.28" y1="61.74" x2="7.28" y2="52.11" xlink:href="#未命名的渐变_105"/><linearGradient id="未命名的渐变_105-5" x1="-391.84" y1="113.3" x2="-391.84" y2="92.04" gradientTransform="matrix(1, 0, 0, -1, 463.73, 205.35)" xlink:href="#未命名的渐变_105"/><linearGradient id="未命名的渐变_105-6" x1="-620.99" y1="795.11" x2="-620.99" y2="785.2" gradientTransform="matrix(1, 0, 0, -1, 633.98, 938.96)" xlink:href="#未命名的渐变_105"/><linearGradient id="未命名的渐变_105-7" x1="-620.99" y1="842.3" x2="-620.99" y2="832.39" gradientTransform="matrix(1, 0, 0, -1, 681.17, 986.15)" xlink:href="#未命名的渐变_105"/><linearGradient id="未命名的渐变_105-8" x1="-385.94" y1="107.55" x2="-385.94" y2="97.92" gradientTransform="matrix(1, 0, 0, -1, 451.94, 205.47)" xlink:href="#未命名的渐变_105"/><linearGradient id="未命名的渐变_105-9" x1="18.32" y1="16.53" x2="20.7" y2="16.53" xlink:href="#未命名的渐变_105"/><linearGradient id="未命名的渐变_105-10" x1="27.07" y1="16.53" x2="29.45" y2="16.53" xlink:href="#未命名的渐变_105"/><linearGradient id="未命名的渐变_105-11" x1="35.82" y1="16.53" x2="38.2" y2="16.53" xlink:href="#未命名的渐变_105"/><linearGradient id="未命名的渐变_105-12" x1="44.56" y1="16.53" x2="46.95" y2="16.53" xlink:href="#未命名的渐变_105"/><linearGradient id="未命名的渐变_105-13" x1="53.31" y1="16.53" x2="55.7" y2="16.53" xlink:href="#未命名的渐变_105"/><linearGradient id="未命名的渐变_105-14" x1="62.06" y1="16.53" x2="64.45" y2="16.53" xlink:href="#未命名的渐变_105"/><linearGradient id="未命名的渐变_105-15" x1="8.47" y1="15.04" x2="64.88" y2="15.04" xlink:href="#未命名的渐变_105"/><linearGradient id="未命名的渐变_67-2" x1="10.18" y1="110.66" x2="63.2" y2="110.66" xlink:href="#未命名的渐变_67"/><linearGradient id="未命名的渐变_67-3" x1="10.16" y1="116.75" x2="63.18" y2="116.75" xlink:href="#未命名的渐变_67"/><linearGradient id="未命名的渐变_105-16" x1="8.23" y1="17.82" x2="64.65" y2="17.82" xlink:href="#未命名的渐变_105"/></defs><title>Filter housing（过滤器外壳）</title><g id="图层_2" data-name="图层 2"><g id="图层_125" data-name="图层 125"><g id="Filter_housing_过滤器外壳_" data-name="Filter housing（过滤器外壳）"><path class="cls-1" d="M62.78,120.47s-4.65,9.17-26.12,9.17c-22.07,0-26.11-9.17-26.11-9.17V11.25S12.38,0,36.66,0,62.78,11.25,62.78,11.25Z"/><rect class="cls-2" x="9.57" y="13.27" width="53.68" height="6.45"/><circle class="cls-3" cx="36.67" cy="107.61" r="2.29"/><rect class="cls-4" y="46.23" width="2.76" height="21.26" rx="0.28"/><rect class="cls-5" x="2.76" y="52.11" width="9.04" height="9.64"/><rect class="cls-6" x="70.52" y="92.04" width="2.76" height="21.26" rx="0.28" transform="translate(143.79 205.35) rotate(180)"/><rect class="cls-7" x="11.79" y="143.85" width="2.4" height="9.91" rx="0.24" transform="translate(161.79 135.81) rotate(90)"/><rect class="cls-8" x="58.98" y="143.85" width="2.4" height="9.91" rx="0.24" transform="translate(208.98 88.62) rotate(90)"/><rect class="cls-9" x="61.48" y="97.92" width="9.04" height="9.64" transform="translate(131.99 205.47) rotate(180)"/><rect class="cls-10" x="18.32" y="12.12" width="2.39" height="8.83"/><rect class="cls-11" x="27.07" y="12.12" width="2.39" height="8.83"/><rect class="cls-12" x="35.82" y="12.12" width="2.39" height="8.83"/><rect class="cls-13" x="44.56" y="12.12" width="2.39" height="8.83"/><rect class="cls-14" x="53.31" y="12.12" width="2.39" height="8.83"/><rect class="cls-15" x="62.06" y="12.12" width="2.39" height="8.83"/><rect class="cls-16" x="8.47" y="13.75" width="56.42" height="2.58" rx="0.26"/><rect class="cls-17" x="10.18" y="110.12" width="53.02" height="1.06"/><rect class="cls-18" x="10.16" y="116.22" width="53.02" height="1.06"/><rect class="cls-19" x="8.23" y="16.53" width="56.42" height="2.58" rx="0.26"/><rect class="cls-20" x="10.18" y="113.62" width="5.83" height="34.25"/><rect class="cls-20" x="57.37" y="113.62" width="5.83" height="34.25"/></g></g></g></svg>