<svg xmlns="http://www.w3.org/2000/svg" xmlns:xlink="http://www.w3.org/1999/xlink" viewBox="0 0 150 73.72"><defs><style>.cls-1{fill:url(#未命名的渐变_306);}.cls-2{fill:url(#未命名的渐变_306-2);}.cls-3{opacity:0.3;}.cls-4{fill:url(#未命名的渐变_306-3);}.cls-5{fill:url(#未命名的渐变_306-4);}.cls-6{fill:url(#未命名的渐变_306-5);}.cls-7{fill:#e0e2e4;}.cls-8{fill:#989898;}.cls-9{fill:url(#未命名的渐变_353);}.cls-10{fill:url(#未命名的渐变_337);}.cls-11{fill:url(#未命名的渐变_337-2);}.cls-12{fill:url(#未命名的渐变_321);}.cls-13{fill:url(#未命名的渐变_321-2);}.cls-14{fill:url(#未命名的渐变_321-3);}.cls-15{fill:url(#未命名的渐变_321-4);}.cls-16{fill:url(#未命名的渐变_321-5);}.cls-17{fill:url(#未命名的渐变_321-6);}.cls-18{fill:url(#未命名的渐变_321-7);}.cls-19{fill:url(#未命名的渐变_321-8);}.cls-20{fill:url(#未命名的渐变_321-9);}.cls-21{fill:url(#未命名的渐变_321-10);}.cls-22{fill:url(#未命名的渐变_321-11);}.cls-23{fill:url(#未命名的渐变_321-12);}.cls-24{fill:url(#未命名的渐变_321-13);}.cls-25{fill:url(#未命名的渐变_321-14);}.cls-26{fill:url(#未命名的渐变_321-15);}.cls-27{fill:url(#未命名的渐变_321-16);}.cls-28{fill:url(#未命名的渐变_321-17);}.cls-29{fill:url(#未命名的渐变_321-18);}.cls-30{fill:url(#未命名的渐变_306-6);}.cls-31{fill:url(#未命名的渐变_59);}.cls-32{fill:none;stroke:#5f6366;stroke-miterlimit:10;stroke-width:0.25px;opacity:0.5;}.cls-33{fill:#d3441e;}.cls-34{fill:#46494d;}.cls-35{fill:#42ba09;}.cls-36{fill:#e2951a;}.cls-37{fill:#2f3133;}.cls-38{fill:url(#未命名的渐变_360);}.cls-39{fill:#b9c0cc;}.cls-40{fill:url(#未命名的渐变_360-2);}.cls-41{fill:url(#未命名的渐变_360-3);}.cls-42,.cls-43{opacity:0.6;}.cls-42{fill:url(#未命名的渐变_376);}.cls-43{fill:url(#未命名的渐变_376-2);}.cls-44{opacity:0.2;}</style><linearGradient id="未命名的渐变_306" x1="148.91" y1="52.86" x2="139.56" y2="52.86" gradientUnits="userSpaceOnUse"><stop offset="0.02" stop-color="#767b82"/><stop offset="0.04" stop-color="#d7dce0"/><stop offset="0.09" stop-color="#9ba1ab"/><stop offset="0.92" stop-color="#9ba1ab"/><stop offset="1" stop-color="#767b82"/></linearGradient><linearGradient id="未命名的渐变_306-2" x1="150" y1="73.29" x2="138.47" y2="73.29" xlink:href="#未命名的渐变_306"/><linearGradient id="未命名的渐变_306-3" x1="18.87" y1="52.86" x2="9.52" y2="52.86" xlink:href="#未命名的渐变_306"/><linearGradient id="未命名的渐变_306-4" x1="19.96" y1="73.29" x2="8.43" y2="73.29" xlink:href="#未命名的渐变_306"/><linearGradient id="未命名的渐变_306-5" x1="12.97" y1="15.49" x2="12.97" y2="42.2" gradientTransform="translate(-15.87 41.82) rotate(-90)" xlink:href="#未命名的渐变_306"/><linearGradient id="未命名的渐变_353" x1="94.86" y1="10.9" x2="94.86" y2="9.27" gradientUnits="userSpaceOnUse"><stop offset="0" stop-color="#e7f1ff"/><stop offset="0.02" stop-color="#b9c1cc"/><stop offset="0.06" stop-color="#7b8087"/><stop offset="0.8" stop-color="#969ca6"/><stop offset="1" stop-color="#2e3033"/></linearGradient><linearGradient id="未命名的渐变_337" x1="45.49" x2="45.49" y2="55.16" gradientUnits="userSpaceOnUse"><stop offset="0" stop-color="#767b82"/><stop offset="0.02" stop-color="#b9c1cc"/><stop offset="0.04" stop-color="#7b8087"/><stop offset="0.96" stop-color="#969ca6"/><stop offset="0.98" stop-color="#b9c0cc"/><stop offset="1" stop-color="#9ba1ab"/></linearGradient><linearGradient id="未命名的渐变_337-2" x1="144.23" x2="144.23" y2="55.16" xlink:href="#未命名的渐变_337"/><linearGradient id="未命名的渐变_321" x1="55" y1="53.44" x2="55" y2="1.72" gradientUnits="userSpaceOnUse"><stop offset="0" stop-color="#767b82"/><stop offset="0.02" stop-color="#d7dce0"/><stop offset="0.04" stop-color="#9ba1ab"/><stop offset="0.53" stop-color="#9ba1ab"/><stop offset="0.94" stop-color="#a9b1bb"/><stop offset="0.98" stop-color="#e0e4e7"/><stop offset="1" stop-color="#767b82"/></linearGradient><linearGradient id="未命名的渐变_321-2" x1="59.71" y1="53.44" x2="59.71" y2="1.72" xlink:href="#未命名的渐变_321"/><linearGradient id="未命名的渐变_321-3" x1="64.41" y1="53.44" x2="64.41" y2="1.72" xlink:href="#未命名的渐变_321"/><linearGradient id="未命名的渐变_321-4" x1="69.11" y1="53.44" x2="69.11" y2="1.72" xlink:href="#未命名的渐变_321"/><linearGradient id="未命名的渐变_321-5" x1="73.81" y1="53.44" x2="73.81" y2="1.72" xlink:href="#未命名的渐变_321"/><linearGradient id="未命名的渐变_321-6" x1="78.52" y1="53.44" x2="78.52" y2="1.72" xlink:href="#未命名的渐变_321"/><linearGradient id="未命名的渐变_321-7" x1="83.22" y1="53.44" x2="83.22" y2="1.72" xlink:href="#未命名的渐变_321"/><linearGradient id="未命名的渐变_321-8" x1="87.92" y1="53.44" x2="87.92" y2="1.72" xlink:href="#未命名的渐变_321"/><linearGradient id="未命名的渐变_321-9" x1="92.62" y1="53.44" x2="92.62" y2="1.72" xlink:href="#未命名的渐变_321"/><linearGradient id="未命名的渐变_321-10" x1="97.32" y1="53.44" x2="97.32" y2="1.72" xlink:href="#未命名的渐变_321"/><linearGradient id="未命名的渐变_321-11" x1="102.03" y1="53.44" x2="102.03" y2="1.72" xlink:href="#未命名的渐变_321"/><linearGradient id="未命名的渐变_321-12" x1="106.73" y1="53.44" x2="106.73" y2="1.72" xlink:href="#未命名的渐变_321"/><linearGradient id="未命名的渐变_321-13" x1="111.43" y1="53.44" x2="111.43" y2="1.72" xlink:href="#未命名的渐变_321"/><linearGradient id="未命名的渐变_321-14" x1="116.13" y1="53.44" x2="116.13" y2="1.72" xlink:href="#未命名的渐变_321"/><linearGradient id="未命名的渐变_321-15" x1="120.83" y1="53.44" x2="120.83" y2="1.72" xlink:href="#未命名的渐变_321"/><linearGradient id="未命名的渐变_321-16" x1="125.54" y1="53.44" x2="125.54" y2="1.72" xlink:href="#未命名的渐变_321"/><linearGradient id="未命名的渐变_321-17" x1="130.24" y1="53.44" x2="130.24" y2="1.72" xlink:href="#未命名的渐变_321"/><linearGradient id="未命名的渐变_321-18" x1="134.94" y1="53.44" x2="134.94" y2="1.72" xlink:href="#未命名的渐变_321"/><linearGradient id="未命名的渐变_306-6" x1="77.17" y1="19.55" x2="77.17" y2="38.1" gradientTransform="translate(48.35 106) rotate(-90)" xlink:href="#未命名的渐变_306"/><linearGradient id="未命名的渐变_59" x1="8.63" y1="29.72" x2="8.63" y2="9.34" gradientUnits="userSpaceOnUse"><stop offset="0" stop-color="#d7dce0"/><stop offset="1" stop-color="#8a9099"/></linearGradient><linearGradient id="未命名的渐变_360" x1="-299.74" y1="-663.18" x2="-303.05" y2="-663.18" gradientTransform="matrix(0, -1, -1, 0, -640.33, -277.49)" gradientUnits="userSpaceOnUse"><stop offset="0" stop-color="#dce1e6"/><stop offset="1" stop-color="#8b9099"/><stop offset="1" stop-color="#90969f"/></linearGradient><linearGradient id="未命名的渐变_360-2" x1="-310.04" y1="-663.18" x2="-313.35" y2="-663.18" xlink:href="#未命名的渐变_360"/><linearGradient id="未命名的渐变_360-3" x1="-310.04" y1="-648.33" x2="-313.35" y2="-648.33" xlink:href="#未命名的渐变_360"/><linearGradient id="未命名的渐变_376" x1="14.19" y1="42.2" x2="14.19" y2="50.62" gradientUnits="userSpaceOnUse"><stop offset="0" stop-color="#2e3033"/><stop offset="1" stop-color="#9ba1ab" stop-opacity="0"/></linearGradient><linearGradient id="未命名的渐变_376-2" x1="94.79" y1="38.1" x2="94.79" y2="45.84" xlink:href="#未命名的渐变_376"/></defs><title>Filter press(压滤机)</title><g id="图层_2" data-name="图层 2"><g id="图层_16" data-name="图层 16"><g id="Filter_press_压滤机_" data-name="Filter press(压滤机)"><rect class="cls-1" x="139.56" y="32.26" width="9.35" height="41.2"/><rect class="cls-2" x="138.47" y="72.87" width="11.53" height="0.85"/><rect class="cls-3" x="139.56" y="72.22" width="9.35" height="0.65"/><rect class="cls-3" x="139.56" y="55.16" width="9.35" height="0.65"/><rect class="cls-4" x="9.52" y="32.26" width="9.35" height="41.2"/><rect class="cls-5" x="8.43" y="72.87" width="11.53" height="0.85"/><rect class="cls-3" x="9.52" y="72.22" width="9.35" height="0.65"/><rect class="cls-6" x="-0.38" y="15.87" width="26.71" height="25.95" transform="matrix(0, 1, -1, 0, 41.82, 15.87)"/><rect class="cls-7" x="40.9" y="1.72" width="97.57" height="51.72"/><rect class="cls-8" x="51.26" y="15.82" width="87.21" height="5.88"/><rect class="cls-9" x="51.26" y="9.27" width="87.21" height="1.63"/><rect class="cls-10" x="39.72" width="11.53" height="55.16"/><rect class="cls-11" x="138.47" width="11.53" height="55.16"/><rect class="cls-12" x="53.83" y="1.72" width="2.35" height="51.72"/><rect class="cls-13" x="58.53" y="1.72" width="2.35" height="51.72"/><rect class="cls-14" x="63.23" y="1.72" width="2.35" height="51.72"/><rect class="cls-15" x="67.94" y="1.72" width="2.35" height="51.72"/><rect class="cls-16" x="72.64" y="1.72" width="2.35" height="51.72"/><rect class="cls-17" x="77.34" y="1.72" width="2.35" height="51.72"/><rect class="cls-18" x="82.04" y="1.72" width="2.35" height="51.72"/><rect class="cls-19" x="86.74" y="1.72" width="2.35" height="51.72"/><rect class="cls-20" x="91.45" y="1.72" width="2.35" height="51.72"/><rect class="cls-21" x="96.15" y="1.72" width="2.35" height="51.72"/><rect class="cls-22" x="100.85" y="1.72" width="2.35" height="51.72"/><rect class="cls-23" x="105.55" y="1.72" width="2.35" height="51.72"/><rect class="cls-24" x="110.25" y="1.72" width="2.35" height="51.72"/><rect class="cls-25" x="114.96" y="1.72" width="2.35" height="51.72"/><rect class="cls-26" x="119.66" y="1.72" width="2.35" height="51.72"/><rect class="cls-27" x="124.36" y="1.72" width="2.35" height="51.72"/><rect class="cls-28" x="129.06" y="1.72" width="2.35" height="51.72"/><rect class="cls-29" x="133.77" y="1.72" width="2.35" height="51.72"/><rect class="cls-30" x="67.9" y="-44" width="18.55" height="145.65" transform="translate(106 -48.35) rotate(90)"/><rect class="cls-31" y="9.34" width="17.27" height="20.38"/><rect class="cls-32" x="0.76" y="10.23" width="15.75" height="18.6"/><path class="cls-33" d="M3.17,16.12A.85.85,0,1,1,4,15.28.85.85,0,0,1,3.17,16.12Z"/><path class="cls-34" d="M3.17,14.56a.72.72,0,1,1-.72.72.72.72,0,0,1,.72-.72m0-.25a1,1,0,1,0,1,1,1,1,0,0,0-1-1Z"/><path class="cls-35" d="M6.09,16.12a.85.85,0,1,1,.85-.84A.85.85,0,0,1,6.09,16.12Z"/><path class="cls-34" d="M6.09,14.56a.72.72,0,1,1-.71.72.72.72,0,0,1,.71-.72m0-.25a1,1,0,1,0,1,1,1,1,0,0,0-1-1Z"/><path class="cls-36" d="M9,16.12a.85.85,0,1,1,.84-.84A.85.85,0,0,1,9,16.12Z"/><path class="cls-34" d="M9,14.56a.72.72,0,1,1-.72.72A.71.71,0,0,1,9,14.56m0-.25a1,1,0,1,0,1,1,1,1,0,0,0-1-1Z"/><path class="cls-33" d="M11.94,16.12a.85.85,0,1,1,.84-.84A.85.85,0,0,1,11.94,16.12Z"/><path class="cls-34" d="M11.94,14.56a.72.72,0,1,1-.72.72.72.72,0,0,1,.72-.72m0-.25a1,1,0,1,0,1,1,1,1,0,0,0-1-1Z"/><circle class="cls-37" cx="11.94" cy="22.74" r="0.97"/><path class="cls-37" d="M3.17,19a.45.45,0,0,1-.45-.45.45.45,0,1,1,.9,0A.45.45,0,0,1,3.17,19Z"/><path class="cls-34" d="M3.17,18.21a.33.33,0,0,1,.33.33.33.33,0,0,1-.66,0,.33.33,0,0,1,.33-.33m0-.25a.58.58,0,0,0-.58.58.58.58,0,0,0,1.16,0A.58.58,0,0,0,3.17,18Z"/><path class="cls-37" d="M6.09,19a.45.45,0,0,1-.45-.45.46.46,0,0,1,.45-.46.47.47,0,0,1,.46.46A.46.46,0,0,1,6.09,19Z"/><path class="cls-34" d="M6.09,18.21a.33.33,0,0,1,.33.33.32.32,0,0,1-.33.32.32.32,0,0,1-.32-.32.32.32,0,0,1,.32-.33m0-.25a.58.58,0,0,0-.57.58.58.58,0,0,0,1.15,0A.58.58,0,0,0,6.09,18Z"/><path class="cls-37" d="M9,19a.46.46,0,0,1-.46-.45A.47.47,0,0,1,9,18.08a.46.46,0,0,1,.45.46A.45.45,0,0,1,9,19Z"/><path class="cls-34" d="M9,18.21a.32.32,0,0,1,.32.33.32.32,0,0,1-.32.32.32.32,0,0,1-.33-.32A.33.33,0,0,1,9,18.21M9,18a.58.58,0,0,0-.58.58.57.57,0,0,0,.58.57.56.56,0,0,0,.57-.57A.57.57,0,0,0,9,18Z"/><rect class="cls-34" x="10.8" y="22.48" width="2.29" height="0.53"/><circle class="cls-38" cx="22.85" cy="23.91" r="1.65"/><circle class="cls-39" cx="22.85" cy="23.91" r="1.38"/><circle class="cls-40" cx="22.85" cy="34.21" r="1.65"/><circle class="cls-39" cx="22.85" cy="34.21" r="1.38"/><circle class="cls-41" cx="8" cy="34.21" r="1.65"/><circle class="cls-39" cx="8" cy="34.21" r="1.38"/><rect class="cls-42" x="9.52" y="42.2" width="9.35" height="8.42"/><rect class="cls-43" x="39.58" y="38.1" width="110.42" height="7.74"/></g></g></g></svg>