<svg xmlns="http://www.w3.org/2000/svg" xmlns:xlink="http://www.w3.org/1999/xlink" viewBox="0 0 150 82.56"><defs><style>.cls-1{fill:url(#未命名的渐变_522);}.cls-2{fill:url(#未命名的渐变_26);}.cls-3{fill:url(#未命名的渐变_59);}.cls-4{fill:url(#未命名的渐变_59-2);}.cls-12,.cls-13,.cls-14,.cls-15,.cls-16,.cls-17,.cls-18,.cls-19,.cls-20,.cls-21,.cls-22,.cls-5,.cls-9{fill:#222a34;}.cls-6{fill:url(#未命名的渐变_49);}.cls-7{fill:url(#未命名的渐变_460);}.cls-8{fill:url(#未命名的渐变_306);}.cls-12,.cls-13,.cls-14,.cls-15,.cls-16,.cls-17,.cls-18,.cls-19,.cls-20,.cls-21,.cls-22,.cls-24,.cls-9{stroke-miterlimit:10;}.cls-9{stroke-width:0.75px;stroke:url(#未命名的渐变_39);}.cls-10{fill:url(#未命名的渐变_26-2);}.cls-11{fill:url(#未命名的渐变_59-3);}.cls-12,.cls-13,.cls-14,.cls-15,.cls-16,.cls-17,.cls-18,.cls-19,.cls-20,.cls-21,.cls-22{stroke-width:0.25px;}.cls-12{stroke:url(#未命名的渐变_39-2);}.cls-13{stroke:url(#未命名的渐变_39-3);}.cls-14{stroke:url(#未命名的渐变_39-4);}.cls-15{stroke:url(#未命名的渐变_39-5);}.cls-16{stroke:url(#未命名的渐变_39-6);}.cls-17{stroke:url(#未命名的渐变_39-7);}.cls-18{stroke:url(#未命名的渐变_39-8);}.cls-19{stroke:url(#未命名的渐变_39-9);}.cls-20{stroke:url(#未命名的渐变_39-10);}.cls-21{stroke:url(#未命名的渐变_39-11);}.cls-22{stroke:url(#未命名的渐变_39-12);}.cls-23{fill:url(#未命名的渐变_397);}.cls-24{fill:#5d646c;stroke:#b4bcc5;stroke-width:0.5px;}.cls-25{fill:#cfd5db;}.cls-26{fill:#a63c27;}.cls-27{fill:#a8afb5;}.cls-28{fill:url(#未命名的渐变_44);}.cls-29{opacity:0.2;}</style><linearGradient id="未命名的渐变_522" x1="25.62" y1="52.66" x2="5.65" y2="72.64" gradientUnits="userSpaceOnUse"><stop offset="0" stop-color="#abafb3"/><stop offset="1" stop-color="#5c6066"/></linearGradient><linearGradient id="未命名的渐变_26" x1="85.14" y1="-411.07" x2="105.28" y2="-411.07" gradientTransform="translate(-65.81 469.18)" gradientUnits="userSpaceOnUse"><stop offset="0" stop-color="#767b82"/><stop offset="0.07" stop-color="#9ba1ab"/><stop offset="0.22" stop-color="#e2eaf2"/><stop offset="0.94" stop-color="#767b82"/><stop offset="1" stop-color="#a9b1bb"/></linearGradient><linearGradient id="未命名的渐变_59" x1="23.72" y1="45.33" x2="4.93" y2="64.12" gradientUnits="userSpaceOnUse"><stop offset="0" stop-color="#d7dce0"/><stop offset="1" stop-color="#8a9099"/></linearGradient><linearGradient id="未命名的渐变_59-2" x1="25.85" y1="53.48" x2="5.41" y2="73.92" xlink:href="#未命名的渐变_59"/><linearGradient id="未命名的渐变_49" x1="2.85" y1="32.41" x2="7.77" y2="32.41" gradientTransform="translate(24.36 -3.38)" gradientUnits="userSpaceOnUse"><stop offset="0" stop-color="#767b82"/><stop offset="0.32" stop-color="#f5faff"/><stop offset="0.55" stop-color="#9ba1ab"/><stop offset="1" stop-color="#45484d"/></linearGradient><linearGradient id="未命名的渐变_460" x1="13.26" y1="42.99" x2="18.18" y2="42.99" gradientUnits="userSpaceOnUse"><stop offset="0" stop-color="#45484d"/><stop offset="0.45" stop-color="#9ba1ab"/><stop offset="0.68" stop-color="#f5faff"/><stop offset="1" stop-color="#767b82"/></linearGradient><linearGradient id="未命名的渐变_306" x1="86.43" y1="78.97" x2="86.43" y2="82.56" gradientUnits="userSpaceOnUse"><stop offset="0.02" stop-color="#767b82"/><stop offset="0.04" stop-color="#d7dce0"/><stop offset="0.09" stop-color="#9ba1ab"/><stop offset="0.92" stop-color="#9ba1ab"/><stop offset="1" stop-color="#767b82"/></linearGradient><linearGradient id="未命名的渐变_39" x1="143.46" y1="72.57" x2="143.46" y2="68.69" gradientUnits="userSpaceOnUse"><stop offset="0" stop-color="#dce1e6"/><stop offset="1" stop-color="#5c6066"/></linearGradient><linearGradient id="未命名的渐变_26-2" x1="44.75" y1="-413.57" x2="60.54" y2="-413.57" gradientTransform="translate(-20.74 429.12)" xlink:href="#未命名的渐变_26"/><linearGradient id="未命名的渐变_59-3" x1="141.24" y1="-6.12" x2="47.4" y2="87.73" xlink:href="#未命名的渐变_59"/><linearGradient id="未命名的渐变_39-2" x1="46.94" y1="44.06" x2="46.94" y2="45.71" xlink:href="#未命名的渐变_39"/><linearGradient id="未命名的渐变_39-3" x1="46.94" y1="67.57" x2="46.94" y2="69.22" xlink:href="#未命名的渐变_39"/><linearGradient id="未命名的渐变_39-4" x1="46.94" y1="55.82" x2="46.94" y2="57.46" xlink:href="#未命名的渐变_39"/><linearGradient id="未命名的渐变_39-5" x1="58.7" y1="55.82" x2="58.7" y2="57.46" xlink:href="#未命名的渐变_39"/><linearGradient id="未命名的渐变_39-6" x1="70.45" y1="55.82" x2="70.45" y2="57.46" xlink:href="#未命名的渐变_39"/><linearGradient id="未命名的渐变_39-7" x1="82.21" y1="55.82" x2="82.21" y2="57.46" xlink:href="#未命名的渐变_39"/><linearGradient id="未命名的渐变_39-8" x1="93.97" y1="55.82" x2="93.97" y2="57.46" xlink:href="#未命名的渐变_39"/><linearGradient id="未命名的渐变_39-9" x1="105.72" y1="55.82" x2="105.72" y2="57.46" xlink:href="#未命名的渐变_39"/><linearGradient id="未命名的渐变_39-10" x1="117.48" y1="55.82" x2="117.48" y2="57.46" xlink:href="#未命名的渐变_39"/><linearGradient id="未命名的渐变_39-11" x1="129.24" y1="55.82" x2="129.24" y2="57.46" xlink:href="#未命名的渐变_39"/><linearGradient id="未命名的渐变_39-12" x1="140.99" y1="55.82" x2="140.99" y2="57.46" xlink:href="#未命名的渐变_39"/><linearGradient id="未命名的渐变_397" x1="20.67" y1="-30.98" x2="23.1" y2="-30.98" gradientTransform="translate(5.76 32.88)" gradientUnits="userSpaceOnUse"><stop offset="0" stop-color="#767b82"/><stop offset="0.07" stop-color="#9ba1ab"/><stop offset="0.22" stop-color="#e2eaf2"/><stop offset="0.28" stop-color="#d1d8e0"/><stop offset="0.49" stop-color="#a1a7ae"/><stop offset="0.67" stop-color="#7e8489"/><stop offset="0.81" stop-color="#696e73"/><stop offset="0.91" stop-color="#61666b"/><stop offset="1" stop-color="#a9b1bb"/></linearGradient><linearGradient id="未命名的渐变_44" x1="21.89" y1="-30.44" x2="21.89" y2="-29.09" gradientTransform="translate(5.76 30.44)" gradientUnits="userSpaceOnUse"><stop offset="0" stop-color="#a9b1bb"/><stop offset="0.09" stop-color="#61666b"/><stop offset="0.19" stop-color="#696e73"/><stop offset="0.33" stop-color="#7e8489"/><stop offset="0.51" stop-color="#a1a7ae"/><stop offset="0.72" stop-color="#d1d8e0"/><stop offset="0.78" stop-color="#e2eaf2"/><stop offset="0.93" stop-color="#9ba1ab"/><stop offset="1" stop-color="#767b82"/></linearGradient></defs><title>Flexible water tube boiler(可调水管式锅炉)</title><g id="图层_2" data-name="图层 2"><g id="图层_21" data-name="图层 21"><g id="Flexible_water_tube_boiler_可调水管式锅炉_" data-name="Flexible water tube boiler(可调水管式锅炉)"><path class="cls-1" d="M29.76,62.65a14.06,14.06,0,0,1-2.54,8.07,13.39,13.39,0,0,1-1.52,1.84H5.57a13.39,13.39,0,0,1-1.52-1.84A14.11,14.11,0,0,1,8.7,50.35a.05.05,0,0,0,0,0,14.15,14.15,0,0,1,13.74,0A14.14,14.14,0,0,1,29.76,62.65Z"/><rect class="cls-2" x="19.33" y="48.88" width="20.15" height="18.47" transform="translate(87.52 28.72) rotate(90)"/><path class="cls-3" d="M30.55,54.56l-2.95.95L15.66,59.42,3,59.23,0,59.19a15.66,15.66,0,0,1,30.55-4.63Z"/><path class="cls-4" d="M27.22,59.64V72.56H4.05V59.64a11.6,11.6,0,0,1,3.4-8.2A11.9,11.9,0,0,1,8.7,50.35a.05.05,0,0,0,0,0,11.53,11.53,0,0,1,13.74,0A11.64,11.64,0,0,1,27.22,59.64Z"/><circle class="cls-5" cx="15.63" cy="56.77" r="4.53"/><rect class="cls-6" x="27.21" y="12.59" width="4.92" height="32.86" rx="2.46" transform="translate(58.69 -0.64) rotate(90)"/><rect class="cls-7" x="13.26" y="26.56" width="4.92" height="32.86" rx="2.46"/><rect class="cls-8" x="22.86" y="78.97" width="127.14" height="3.6"/><circle class="cls-9" cx="143.46" cy="70.63" r="1.57"/><rect class="cls-10" x="24.01" y="8.82" width="15.78" height="13.47" transform="translate(47.45 -16.35) rotate(90)"/><rect class="cls-11" x="38.64" y="2.64" width="111.36" height="76.32"/><rect class="cls-12" x="45.79" y="44.19" width="2.3" height="1.4"/><rect class="cls-13" x="45.79" y="67.7" width="2.3" height="1.4"/><rect class="cls-14" x="45.79" y="55.94" width="2.3" height="1.4"/><rect class="cls-15" x="57.55" y="55.94" width="2.3" height="1.4"/><rect class="cls-16" x="69.3" y="55.94" width="2.3" height="1.4"/><rect class="cls-17" x="81.06" y="55.94" width="2.3" height="1.4"/><rect class="cls-18" x="92.81" y="55.94" width="2.3" height="1.4"/><rect class="cls-19" x="104.57" y="55.94" width="2.3" height="1.4"/><rect class="cls-20" x="116.33" y="55.94" width="2.3" height="1.4"/><rect class="cls-21" x="128.08" y="55.94" width="2.3" height="1.4"/><rect class="cls-22" x="139.84" y="55.94" width="2.3" height="1.4"/><rect class="cls-23" x="26.43" y="0.71" width="2.43" height="2.37" transform="translate(55.29 3.78) rotate(180)"/><circle class="cls-24" cx="27.65" cy="4.93" r="2.48"/><circle class="cls-25" cx="27.65" cy="4.93" r="2.02"/><polygon class="cls-26" points="28.82 3.78 26.52 5.7 26.9 6.08 28.82 3.78"/><circle class="cls-27" cx="27.65" cy="4.93" r="0.32"/><rect class="cls-28" x="25.84" width="3.61" height="1.35" transform="translate(55.29 1.35) rotate(180)"/></g></g></g></svg>