<svg xmlns="http://www.w3.org/2000/svg" xmlns:xlink="http://www.w3.org/1999/xlink" viewBox="0 0 150 94.99"><defs><style>.cls-1{fill:url(#未命名的渐变_74);}.cls-2{fill:#d7d7d7;}.cls-3{fill:#eee;}.cls-4{fill:url(#未命名的渐变_105);}.cls-5{fill:url(#未命名的渐变_105-2);}.cls-6{fill:url(#未命名的渐变_105-3);}.cls-7{fill:url(#未命名的渐变_105-4);}.cls-8{fill:url(#未命名的渐变_105-5);}.cls-9{fill:url(#未命名的渐变_105-6);}.cls-10{fill:url(#未命名的渐变_105-7);}.cls-11{fill:url(#未命名的渐变_105-8);}.cls-12{fill:url(#未命名的渐变_105-9);}.cls-13{fill:url(#未命名的渐变_105-10);}.cls-14{fill:url(#未命名的渐变_105-11);}.cls-15{fill:url(#未命名的渐变_105-12);}.cls-16{fill:url(#未命名的渐变_105-13);}.cls-17{fill:url(#未命名的渐变_105-14);}.cls-18{fill:url(#未命名的渐变_105-15);}.cls-19{fill:url(#未命名的渐变_105-16);}.cls-20{fill:url(#未命名的渐变_105-17);}.cls-21{fill:url(#未命名的渐变_105-18);}.cls-22{fill:url(#未命名的渐变_105-19);}.cls-23{fill:url(#未命名的渐变_105-20);}.cls-24{opacity:0.2;}</style><linearGradient id="未命名的渐变_74" y1="47.49" x2="150" y2="47.49" gradientUnits="userSpaceOnUse"><stop offset="0" stop-color="#6b6b6b"/><stop offset="0.01" stop-color="#767676"/><stop offset="0.03" stop-color="#959595"/><stop offset="0.04" stop-color="#aaa"/><stop offset="0.37" stop-color="#ccc"/><stop offset="0.74" stop-color="#eaeaea"/><stop offset="0.94" stop-color="#f6f6f6"/><stop offset="0.95" stop-color="#ededed"/><stop offset="0.96" stop-color="#d4d4d4"/><stop offset="0.97" stop-color="#ababab"/><stop offset="0.99" stop-color="#737373"/><stop offset="0.99" stop-color="#666"/></linearGradient><linearGradient id="未命名的渐变_105" x1="42.55" y1="35.14" x2="44.04" y2="35.14" gradientUnits="userSpaceOnUse"><stop offset="0" stop-color="#e2e2e2"/><stop offset="0.03" stop-color="#d0d0d0"/><stop offset="0.06" stop-color="#bcbcbc"/><stop offset="0.09" stop-color="#b5b5b5"/><stop offset="0.49" stop-color="#f6f6f6"/><stop offset="0.63" stop-color="#f3f3f3"/><stop offset="0.73" stop-color="#eaeaea"/><stop offset="0.82" stop-color="#dbdbdb"/><stop offset="0.9" stop-color="#c6c6c6"/><stop offset="0.97" stop-color="#aaa"/><stop offset="1" stop-color="#9b9b9b"/></linearGradient><linearGradient id="未命名的渐变_105-2" x1="33.84" y1="39.27" x2="34.89" y2="38.21" gradientTransform="translate(37.46 -12.95) rotate(45)" xlink:href="#未命名的渐变_105"/><linearGradient id="未命名的渐变_105-3" x1="30.75" y1="48.34" x2="30.75" y2="46.85" gradientTransform="translate(78.35 16.85) rotate(90)" xlink:href="#未命名的渐变_105"/><linearGradient id="未命名的渐变_105-4" x1="33.66" y1="56" x2="34.72" y2="57.06" gradientTransform="translate(98.34 72.32) rotate(135)" xlink:href="#未命名的渐变_105"/><linearGradient id="未命名的渐变_105-5" x1="42.46" y1="60.3" x2="43.95" y2="60.3" gradientTransform="translate(86.41 120.6) rotate(180)" xlink:href="#未命名的渐变_105"/><linearGradient id="未命名的渐变_105-6" x1="51.45" y1="57.23" x2="52.51" y2="56.18" gradientTransform="translate(48.64 133.55) rotate(-135)" xlink:href="#未命名的渐变_105"/><linearGradient id="未命名的渐变_105-7" x1="55.75" y1="48.59" x2="55.75" y2="47.1" gradientTransform="translate(7.9 103.6) rotate(-90)" xlink:href="#未命名的渐变_105"/><linearGradient id="未命名的渐变_105-8" x1="51.63" y1="38.39" x2="52.68" y2="39.44" gradientTransform="translate(-12.24 48.28) rotate(-45)" xlink:href="#未命名的渐变_105"/><linearGradient id="未命名的渐变_105-9" x1="19.3" y1="47.64" x2="67.21" y2="47.64" xlink:href="#未命名的渐变_105"/><linearGradient id="未命名的渐变_105-10" x1="39.05" y1="47.97" x2="47.46" y2="47.97" xlink:href="#未命名的渐变_105"/><linearGradient id="未命名的渐变_105-11" x1="106.32" y1="35.47" x2="107.81" y2="35.47" xlink:href="#未命名的渐变_105"/><linearGradient id="未命名的渐变_105-12" x1="97.6" y1="39.6" x2="98.66" y2="38.54" gradientTransform="translate(56.37 -57.95) rotate(45)" xlink:href="#未命名的渐变_105"/><linearGradient id="未命名的渐变_105-13" x1="94.52" y1="48.67" x2="94.52" y2="47.18" gradientTransform="translate(142.44 -46.59) rotate(90)" xlink:href="#未命名的渐变_105"/><linearGradient id="未命名的渐变_105-14" x1="97.43" y1="56.33" x2="98.48" y2="57.39" gradientTransform="translate(207.42 27.8) rotate(135)" xlink:href="#未命名的渐变_105"/><linearGradient id="未命名的渐变_105-15" x1="106.22" y1="60.63" x2="107.72" y2="60.63" gradientTransform="translate(213.94 121.26) rotate(180)" xlink:href="#未命名的渐变_105"/><linearGradient id="未命名的渐变_105-16" x1="115.22" y1="57.56" x2="116.27" y2="56.5" gradientTransform="translate(157.26 179.21) rotate(-135)" xlink:href="#未命名的渐变_105"/><linearGradient id="未命名的渐变_105-17" x1="119.52" y1="48.92" x2="119.52" y2="47.43" gradientTransform="translate(71.34 167.69) rotate(-90)" xlink:href="#未命名的渐变_105"/><linearGradient id="未命名的渐变_105-18" x1="115.39" y1="38.72" x2="116.45" y2="39.77" gradientTransform="translate(6.2 93.46) rotate(-45)" xlink:href="#未命名的渐变_105"/><linearGradient id="未命名的渐变_105-19" x1="83.06" y1="47.97" x2="130.98" y2="47.97" xlink:href="#未命名的渐变_105"/><linearGradient id="未命名的渐变_105-20" x1="102.82" y1="48.3" x2="111.23" y2="48.3" xlink:href="#未命名的渐变_105"/></defs><title>Flocculators（絮凝器）</title><g id="图层_2" data-name="图层 2"><g id="图层_125" data-name="图层 125"><g id="Flocculators_絮凝器_" data-name="Flocculators（絮凝器）"><rect class="cls-1" width="150" height="94.99"/><rect class="cls-2" x="4.73" y="4.76" width="140.85" height="85.43"/><rect class="cls-3" x="7.29" y="7.93" width="135.3" height="79.96"/><rect class="cls-4" x="42.55" y="26.3" width="1.49" height="17.69"/><rect class="cls-5" x="33.62" y="29.9" width="1.49" height="17.69" transform="translate(-17.33 35.65) rotate(-45)"/><rect class="cls-6" x="30" y="38.75" width="1.49" height="17.69" transform="translate(-16.85 78.35) rotate(-90)"/><rect class="cls-7" x="33.44" y="47.69" width="1.49" height="17.69" transform="translate(18.39 120.67) rotate(-135)"/><rect class="cls-8" x="42.46" y="51.46" width="1.49" height="17.69" transform="translate(86.41 120.6) rotate(-180)"/><rect class="cls-9" x="51.23" y="47.86" width="1.49" height="17.69" transform="translate(128.83 60.05) rotate(135)"/><rect class="cls-10" x="55" y="39" width="1.49" height="17.69" transform="translate(103.6 -7.9) rotate(90)"/><rect class="cls-11" x="51.41" y="30.07" width="1.49" height="17.69" transform="translate(42.79 -25.48) rotate(45)"/><path class="cls-12" d="M43.26,23.68a24,24,0,1,0,23.95,24A24,24,0,0,0,43.26,23.68Zm0,45.3A21.34,21.34,0,1,1,64.6,47.64,21.34,21.34,0,0,1,43.26,69Z"/><circle class="cls-13" cx="43.26" cy="47.97" r="4.2"/><rect class="cls-14" x="106.32" y="26.63" width="1.49" height="17.69"/><rect class="cls-15" x="97.38" y="30.23" width="1.49" height="17.69" transform="translate(1.12 80.83) rotate(-45)"/><rect class="cls-16" x="93.77" y="39.08" width="1.49" height="17.69" transform="translate(46.59 142.44) rotate(-90)"/><rect class="cls-17" x="97.21" y="48.01" width="1.49" height="17.69" transform="translate(127.02 166.33) rotate(-135)"/><rect class="cls-18" x="106.22" y="51.79" width="1.49" height="17.69" transform="translate(213.94 121.26) rotate(-180)"/><rect class="cls-19" x="115" y="48.19" width="1.49" height="17.69" transform="translate(237.92 15.52) rotate(135)"/><rect class="cls-20" x="118.77" y="39.33" width="1.49" height="17.69" transform="translate(167.69 -71.34) rotate(90)"/><rect class="cls-21" x="115.17" y="30.4" width="1.49" height="17.69" transform="translate(61.7 -70.47) rotate(45)"/><path class="cls-22" d="M107,24a24,24,0,1,0,24,24A24,24,0,0,0,107,24Zm0,45.3A21.34,21.34,0,1,1,128.36,48,21.34,21.34,0,0,1,107,69.31Z"/><circle class="cls-23" cx="107.02" cy="48.3" r="4.2"/></g></g></g></svg>