<svg xmlns="http://www.w3.org/2000/svg" xmlns:xlink="http://www.w3.org/1999/xlink" viewBox="0 0 150 59.16"><defs><style>.cls-1{fill:url(#未命名的渐变_132);}.cls-2{fill:url(#未命名的渐变_132-2);}.cls-3{opacity:0.5;}.cls-4{fill:url(#未命名的渐变_132-3);}.cls-5,.cls-6,.cls-9{opacity:0.2;}.cls-5{fill:url(#未命名的渐变_166);}.cls-6{fill:url(#未命名的渐变_167);}.cls-7{fill:url(#未命名的渐变_132-4);}.cls-8{fill:url(#未命名的渐变_132-5);}</style><linearGradient id="未命名的渐变_132" x1="75" y1="-264.16" x2="75" y2="-242.52" gradientTransform="matrix(1, 0, 0, -2.73, 0, -662.78)" gradientUnits="userSpaceOnUse"><stop offset="0" stop-color="#a9b1bb"/><stop offset="0.06" stop-color="#5d6166"/><stop offset="0.78" stop-color="#e2eaf2"/><stop offset="0.93" stop-color="#9ba1ab"/><stop offset="1" stop-color="#767b82"/></linearGradient><linearGradient id="未命名的渐变_132-2" x1="143.98" y1="-261.27" x2="143.98" y2="-245.41" xlink:href="#未命名的渐变_132"/><linearGradient id="未命名的渐变_132-3" x1="6.02" y1="-261.27" x2="6.02" y2="-245.41" xlink:href="#未命名的渐变_132"/><linearGradient id="未命名的渐变_166" x1="22.87" y1="-253.34" x2="48.72" y2="-253.34" gradientTransform="matrix(1, 0, 0, -2.73, 0, -662.78)" gradientUnits="userSpaceOnUse"><stop offset="0" stop-color="#2e3033"/><stop offset="1" stop-color="#9ba1ab" stop-opacity="0"/></linearGradient><linearGradient id="未命名的渐变_167" x1="101.28" y1="-253.34" x2="127.13" y2="-253.34" gradientTransform="matrix(1, 0, 0, -2.73, 0, -662.78)" gradientUnits="userSpaceOnUse"><stop offset="0" stop-color="#9ba1ab" stop-opacity="0"/><stop offset="1" stop-color="#2e3033"/></linearGradient><linearGradient id="未命名的渐变_132-4" x1="19.91" y1="-264.73" x2="15.92" y2="-243.84" xlink:href="#未命名的渐变_132"/><linearGradient id="未命名的渐变_132-5" x1="130.09" y1="-264.73" x2="134.08" y2="-243.84" xlink:href="#未命名的渐变_132"/></defs><title>Flow element(流量元件)</title><g id="图层_2" data-name="图层 2"><g id="图层_16" data-name="图层 16"><g id="Flow_element_流量元件_" data-name="Flow element(流量元件)"><rect class="cls-1" x="22.87" width="104.26" height="59.16"/><rect class="cls-2" x="137.97" y="7.91" width="12.03" height="43.35"/><g class="cls-3"><rect x="143.8" y="7.91" width="0.37" height="43.35"/></g><rect class="cls-4" y="7.91" width="12.03" height="43.35"/><g class="cls-3"><rect x="5.83" y="7.91" width="0.37" height="43.35"/></g><rect class="cls-5" x="22.87" width="25.85" height="59.16"/><rect class="cls-6" x="101.28" width="25.85" height="59.16"/><polygon class="cls-7" points="22.87 0 12.04 8.01 12.04 51.15 22.87 59.16 22.87 0"/><polygon class="cls-8" points="137.97 8.01 127.13 0 127.13 59.16 137.97 51.15 137.97 8.01"/></g></g></g></svg>