<svg xmlns="http://www.w3.org/2000/svg" xmlns:xlink="http://www.w3.org/1999/xlink" viewBox="0 0 97.62 150"><defs><style>.cls-1{fill:url(#未命名的渐变_58);}.cls-2,.cls-3,.cls-35,.cls-5{opacity:0.2;}.cls-2{fill:url(#未命名的渐变_79);}.cls-3{fill:url(#未命名的渐变_79-2);}.cls-4{fill:url(#未命名的渐变_386);}.cls-5{fill:url(#未命名的渐变_79-3);}.cls-6{fill:url(#未命名的渐变_20);}.cls-7{fill:url(#未命名的渐变_20-2);}.cls-8{fill:url(#未命名的渐变_20-3);}.cls-9{fill:url(#未命名的渐变_20-4);}.cls-10{fill:url(#未命名的渐变_20-5);}.cls-11{fill:url(#未命名的渐变_20-6);}.cls-12{fill:url(#未命名的渐变_20-7);}.cls-13{fill:url(#未命名的渐变_20-8);}.cls-14{fill:url(#未命名的渐变_20-9);}.cls-15{fill:url(#未命名的渐变_20-10);}.cls-16{fill:url(#未命名的渐变_20-11);}.cls-17{fill:url(#未命名的渐变_20-12);}.cls-18{fill:url(#未命名的渐变_20-13);}.cls-19{fill:url(#未命名的渐变_20-14);}.cls-20{fill:url(#未命名的渐变_20-15);}.cls-21{fill:url(#未命名的渐变_45);}.cls-22{fill:url(#未命名的渐变_47);}.cls-23{fill:#d9dee5;stroke-width:2.59px;stroke:url(#未命名的渐变_57);}.cls-23,.cls-28,.cls-30,.cls-31,.cls-32{stroke-miterlimit:10;}.cls-24{fill:#a3b372;}.cls-25{fill:#646e46;}.cls-26{opacity:0.8;}.cls-27{fill:url(#未命名的渐变_73);}.cls-28,.cls-30,.cls-31,.cls-32{stroke:#505458;stroke-width:0.27px;}.cls-28{fill:url(#未命名的渐变_303);}.cls-29{fill:#505458;}.cls-30{fill:url(#未命名的渐变_303-2);}.cls-31{fill:url(#未命名的渐变_303-3);}.cls-32{fill:url(#未命名的渐变_303-4);}.cls-33{fill:url(#未命名的渐变_386-2);}.cls-34{fill:url(#未命名的渐变_388);}</style><linearGradient id="未命名的渐变_58" x1="37.27" y1="93.63" x2="60.35" y2="93.63" gradientUnits="userSpaceOnUse"><stop offset="0" stop-color="#a9b1bb"/><stop offset="0.06" stop-color="#5d6166"/><stop offset="0.78" stop-color="#e2eaf2"/><stop offset="0.93" stop-color="#9ba1ab"/><stop offset="1" stop-color="#767b82"/></linearGradient><linearGradient id="未命名的渐变_79" x1="48.81" y1="112.66" x2="48.81" y2="107.73" gradientUnits="userSpaceOnUse"><stop offset="0" stop-color="#9ba1ab" stop-opacity="0"/><stop offset="1" stop-color="#2e3033"/></linearGradient><linearGradient id="未命名的渐变_79-2" x1="48.81" y1="71.77" x2="48.81" y2="68.16" xlink:href="#未命名的渐变_79"/><linearGradient id="未命名的渐变_386" x1="-703.9" y1="-707.45" x2="-703.9" y2="-733.7" gradientTransform="translate(752.71 810.76)" gradientUnits="userSpaceOnUse"><stop offset="0" stop-color="#676b70"/><stop offset="0.02" stop-color="#484b4d"/><stop offset="0.19" stop-color="#747980"/><stop offset="0.2" stop-color="#d1d5db"/><stop offset="0.79" stop-color="#c7cfdb"/><stop offset="0.8" stop-color="#edf5ff"/><stop offset="0.81" stop-color="#c3c7cc"/><stop offset="1" stop-color="#929599"/></linearGradient><linearGradient id="未命名的渐变_79-3" x1="-688.52" y1="-720.57" x2="-694.64" y2="-720.57" gradientTransform="translate(740.39 823.07)" xlink:href="#未命名的渐变_79"/><linearGradient id="未命名的渐变_20" x1="48.81" y1="120.67" x2="48.81" y2="144.63" gradientUnits="userSpaceOnUse"><stop offset="0" stop-color="#767b82"/><stop offset="0.07" stop-color="#9ba1ab"/><stop offset="0.22" stop-color="#e2eaf2"/><stop offset="0.94" stop-color="#5d6166"/><stop offset="1" stop-color="#a9b1bb"/></linearGradient><linearGradient id="未命名的渐变_20-2" x1="81.79" y1="132.65" x2="82.17" y2="132.65" xlink:href="#未命名的渐变_20"/><linearGradient id="未命名的渐变_20-3" x1="83.33" y1="132.65" x2="83.72" y2="132.65" xlink:href="#未命名的渐变_20"/><linearGradient id="未命名的渐变_20-4" x1="84.88" y1="132.65" x2="85.27" y2="132.65" xlink:href="#未命名的渐变_20"/><linearGradient id="未命名的渐变_20-5" x1="86.43" y1="132.65" x2="86.81" y2="132.65" xlink:href="#未命名的渐变_20"/><linearGradient id="未命名的渐变_20-6" x1="87.97" y1="132.65" x2="88.36" y2="132.65" xlink:href="#未命名的渐变_20"/><linearGradient id="未命名的渐变_20-7" x1="89.52" y1="132.65" x2="89.91" y2="132.65" xlink:href="#未命名的渐变_20"/><linearGradient id="未命名的渐变_20-8" x1="91.07" y1="132.65" x2="91.45" y2="132.65" xlink:href="#未命名的渐变_20"/><linearGradient id="未命名的渐变_20-9" x1="6.01" y1="132.65" x2="6.39" y2="132.65" xlink:href="#未命名的渐变_20"/><linearGradient id="未命名的渐变_20-10" x1="7.55" y1="132.65" x2="7.94" y2="132.65" xlink:href="#未命名的渐变_20"/><linearGradient id="未命名的渐变_20-11" x1="9.1" y1="132.65" x2="9.48" y2="132.65" xlink:href="#未命名的渐变_20"/><linearGradient id="未命名的渐变_20-12" x1="10.64" y1="132.65" x2="11.03" y2="132.65" xlink:href="#未命名的渐变_20"/><linearGradient id="未命名的渐变_20-13" x1="12.19" y1="132.65" x2="12.58" y2="132.65" xlink:href="#未命名的渐变_20"/><linearGradient id="未命名的渐变_20-14" x1="13.74" y1="132.65" x2="14.12" y2="132.65" xlink:href="#未命名的渐变_20"/><linearGradient id="未命名的渐变_20-15" x1="15.28" y1="132.65" x2="15.67" y2="132.65" xlink:href="#未命名的渐变_20"/><linearGradient id="未命名的渐变_45" x1="48.81" y1="68.16" x2="48.81" gradientUnits="userSpaceOnUse"><stop offset="0" stop-color="#8a9099"/><stop offset="1" stop-color="#a1a9b3"/></linearGradient><linearGradient id="未命名的渐变_47" x1="48.81" y1="68.16" x2="48.81" gradientUnits="userSpaceOnUse"><stop offset="0" stop-color="#61676b" stop-opacity="0"/><stop offset="0.2" stop-color="#62686d" stop-opacity="0.01"/><stop offset="0.34" stop-color="#676d72" stop-opacity="0.05"/><stop offset="0.45" stop-color="#6e757a" stop-opacity="0.1"/><stop offset="0.56" stop-color="#798087" stop-opacity="0.19"/><stop offset="0.65" stop-color="#878e97" stop-opacity="0.3"/><stop offset="0.74" stop-color="#98a0aa" stop-opacity="0.43"/><stop offset="0.83" stop-color="#acb4c2" stop-opacity="0.59"/><stop offset="0.91" stop-color="#c3cddd" stop-opacity="0.77"/><stop offset="0.99" stop-color="#dde7fb" stop-opacity="0.97"/><stop offset="1" stop-color="#e1ebff"/></linearGradient><linearGradient id="未命名的渐变_57" x1="48.81" y1="56.51" x2="48.81" y2="11.65" gradientUnits="userSpaceOnUse"><stop offset="0" stop-color="#f1f5ff"/><stop offset="1" stop-color="#5a5e66"/></linearGradient><linearGradient id="未命名的渐变_73" x1="30.37" y1="14.62" x2="56.32" y2="40.57" gradientUnits="userSpaceOnUse"><stop offset="0" stop-color="#fff"/><stop offset="0.04" stop-color="#fff" stop-opacity="0.91"/><stop offset="0.15" stop-color="#fff" stop-opacity="0.7"/><stop offset="0.26" stop-color="#fff" stop-opacity="0.51"/><stop offset="0.37" stop-color="#fff" stop-opacity="0.35"/><stop offset="0.49" stop-color="#fff" stop-opacity="0.23"/><stop offset="0.6" stop-color="#fff" stop-opacity="0.13"/><stop offset="0.73" stop-color="#fff" stop-opacity="0.06"/><stop offset="0.85" stop-color="#fff" stop-opacity="0.01"/><stop offset="1" stop-color="#fff" stop-opacity="0"/></linearGradient><linearGradient id="未命名的渐变_303" x1="697.33" y1="-811.25" x2="697.33" y2="-806.17" gradientTransform="translate(-1059.98 83.8) rotate(45)" gradientUnits="userSpaceOnUse"><stop offset="0" stop-color="#9ba1ab"/><stop offset="0" stop-color="#abb1ba"/><stop offset="0.09" stop-color="#abb1ba"/><stop offset="0.46" stop-color="#f5faff"/><stop offset="1" stop-color="#a9b1bb"/></linearGradient><linearGradient id="未命名的渐变_303-2" x1="738.37" y1="-769.57" x2="738.37" y2="-764.49" xlink:href="#未命名的渐变_303"/><linearGradient id="未命名的渐变_303-3" x1="759.14" y1="-873.06" x2="759.14" y2="-867.98" xlink:href="#未命名的渐变_303"/><linearGradient id="未命名的渐变_303-4" x1="800.18" y1="-831.38" x2="800.18" y2="-826.31" xlink:href="#未命名的渐变_303"/><linearGradient id="未命名的渐变_386-2" x1="-702.63" y1="-703.23" x2="-702.63" y2="-737.92" gradientTransform="matrix(1, 0, 0, 1, 751.42, 812.02)" xlink:href="#未命名的渐变_386"/><linearGradient id="未命名的渐变_388" x1="-690.74" y1="-732.54" x2="-690.74" y2="-767.23" gradientTransform="matrix(2.17, 0, 0, 1, 1545.33, 882.54)" gradientUnits="userSpaceOnUse"><stop offset="0" stop-color="#d2d9e6"/><stop offset="0" stop-color="#d2d9e6"/><stop offset="0.19" stop-color="#cad1de"/><stop offset="0.49" stop-color="#c7cfdb"/><stop offset="0.5" stop-color="#edf5ff"/><stop offset="0.51" stop-color="#c3c7cc"/><stop offset="0.94" stop-color="#626366"/><stop offset="1" stop-color="#929599"/></linearGradient></defs><title>Flow totalizer(流量积算器)</title><g id="图层_2" data-name="图层 2"><g id="图层_16" data-name="图层 16"><g id="Flow_totalizer_流量积算器_" data-name="Flow totalizer(流量积算器)"><rect class="cls-1" x="37.27" y="66.9" width="23.08" height="53.46"/><rect class="cls-2" x="37.27" y="107.73" width="23.08" height="4.93"/><rect class="cls-3" x="37.27" y="68.16" width="23.08" height="3.61"/><rect class="cls-4" x="31.27" y="77.06" width="35.09" height="26.25" transform="matrix(0, 1, -1, 0, 138.99, 41.37)"/><rect class="cls-5" x="45.75" y="89.37" width="6.12" height="26.25" transform="translate(151.31 53.68) rotate(90)"/><rect class="cls-6" x="4.03" y="120.67" width="89.57" height="23.96"/><rect class="cls-7" x="81.79" y="119.99" width="0.39" height="25.32" rx="0.19"/><rect class="cls-8" x="83.33" y="119.99" width="0.39" height="25.32" rx="0.19"/><rect class="cls-9" x="84.88" y="119.99" width="0.39" height="25.32" rx="0.19"/><rect class="cls-10" x="86.43" y="119.99" width="0.39" height="25.32" rx="0.19"/><rect class="cls-11" x="87.97" y="119.99" width="0.39" height="25.32" rx="0.19"/><rect class="cls-12" x="89.52" y="119.99" width="0.39" height="25.32" rx="0.19"/><rect class="cls-13" x="91.07" y="119.99" width="0.39" height="25.32" rx="0.19"/><rect class="cls-14" x="6.01" y="119.99" width="0.39" height="25.32" rx="0.19"/><rect class="cls-15" x="7.55" y="119.99" width="0.39" height="25.32" rx="0.19"/><rect class="cls-16" x="9.1" y="119.99" width="0.39" height="25.32" rx="0.19"/><rect class="cls-17" x="10.64" y="119.99" width="0.39" height="25.32" rx="0.19"/><rect class="cls-18" x="12.19" y="119.99" width="0.39" height="25.32" rx="0.19"/><rect class="cls-19" x="13.74" y="119.99" width="0.39" height="25.32" rx="0.19"/><rect class="cls-20" x="15.28" y="119.99" width="0.39" height="25.32" rx="0.19"/><rect class="cls-21" width="97.62" height="68.16"/><path class="cls-22" d="M96.79.83V67.32H.83V.83h96M97.62,0H0V68.16H97.62V0Z"/><rect class="cls-23" x="12.95" y="12.95" width="71.73" height="42.26"/><rect class="cls-24" x="22.18" y="21.45" width="53.26" height="23.21"/><path class="cls-25" d="M74.76,22.13V44H22.86V22.13h51.9m1.36-1.36H21.5V45.34H76.12V20.77Z"/><g class="cls-26"><polygon class="cls-27" points="22.86 43.98 22.86 22.13 74.76 22.13 22.86 43.98"/></g><circle class="cls-28" cx="4.95" cy="5.05" r="2.54"/><path class="cls-29" d="M4,3.82l1,1,1-1L6.18,4l-1,1,1,1L6,6.18l-1-1L3.93,6.28l-.21-.21L4.81,5l-1-1Z"/><circle class="cls-30" cx="4.5" cy="63.54" r="2.54"/><path class="cls-29" d="M3.55,62.31l1,1,1-1,.21.21-1,1,1,1-.18.17-1-1L3.48,64.77l-.21-.21,1.09-1.09-1-1Z"/><circle class="cls-31" cx="92.36" cy="5.05" r="2.54"/><path class="cls-29" d="M91.41,3.82l1,1,1-1L93.6,4l-1,1,1,1-.17.18-1-1L91.35,6.28l-.21-.21L92.23,5l-1-1Z"/><circle class="cls-32" cx="91.91" cy="63.54" r="2.54"/><path class="cls-29" d="M91,62.31l1,1,1-1,.2.21-1,1,1,1-.17.17-1-1L90.9,64.77l-.21-.21,1.08-1.09-1-1Z"/><rect class="cls-33" x="40.82" y="74.1" width="15.98" height="34.69" transform="translate(140.26 42.63) rotate(90)"/><rect class="cls-34" x="31.5" y="115.31" width="34.62" height="34.69" transform="translate(97.63 265.31) rotate(180)"/></g></g></g></svg>