<svg xmlns="http://www.w3.org/2000/svg" xmlns:xlink="http://www.w3.org/1999/xlink" viewBox="0 0 136.01 150"><defs><style>.cls-1{isolation:isolate;}.cls-2{fill:url(#未命名的渐变_13);}.cls-3{fill:url(#未命名的渐变_13-2);}.cls-4{fill:url(#未命名的渐变_13-3);}.cls-5{fill:url(#未命名的渐变_13-4);}.cls-22,.cls-6{opacity:0.3;}.cls-6,.cls-8{mix-blend-mode:overlay;}.cls-7{fill:url(#未命名的渐变_13-5);}.cls-8{opacity:0.6;}.cls-9{fill:url(#未命名的渐变_13-6);}.cls-10{fill:url(#未命名的渐变_13-7);}.cls-11{fill:url(#未命名的渐变_13-8);}.cls-12{fill:url(#未命名的渐变_13-9);}.cls-13{fill:#e8edf5;stroke-miterlimit:10;stroke-width:1.21px;stroke:url(#未命名的渐变_146);}.cls-14,.cls-15,.cls-16,.cls-17{fill:none;stroke:#45484d;stroke-miterlimit:1;}.cls-14{stroke-width:2.43px;stroke-dasharray:0.15 15.79;}.cls-15{stroke-width:0.3px;}.cls-16{stroke-width:1.24px;stroke-dasharray:0.12 2.43;}.cls-17{stroke-width:0.27px;}.cls-18{fill:#cf4848;}.cls-19{fill:url(#未命名的渐变_184);}.cls-20{opacity:0.5;}.cls-21{fill:url(#未命名的渐变_184-2);}.cls-22{fill:#fff;}.cls-23{opacity:0.2;}</style><linearGradient id="未命名的渐变_13" x1="45.84" y1="122.12" x2="67.7" y2="122.12" gradientTransform="matrix(0, -1, 18.67, 0, -2211.48, 195.85)" gradientUnits="userSpaceOnUse"><stop offset="0" stop-color="#a9b1bb"/><stop offset="0.06" stop-color="#5d6166"/><stop offset="0.78" stop-color="#e2eaf2"/><stop offset="0.93" stop-color="#9ba1ab"/><stop offset="1" stop-color="#767b82"/></linearGradient><linearGradient id="未命名的渐变_13-2" x1="61.19" y1="52.03" x2="74.8" y2="52.03" gradientTransform="matrix(1, 0, 0, 1, 0, 0)" xlink:href="#未命名的渐变_13"/><linearGradient id="未命名的渐变_13-3" x1="35.35" y1="57.94" x2="52.4" y2="57.94" gradientTransform="translate(25.78 22.47)" xlink:href="#未命名的渐变_13"/><linearGradient id="未命名的渐变_13-4" x1="36.88" y1="86.89" x2="50.87" y2="86.89" gradientTransform="translate(54.72 -6.48)" xlink:href="#未命名的渐变_13"/><linearGradient id="未命名的渐变_13-5" x1="38.29" y1="95.91" x2="49.47" y2="95.91" gradientTransform="translate(63.74 -15.49)" xlink:href="#未命名的渐变_13"/><linearGradient id="未命名的渐变_13-6" x1="36.88" y1="47.28" x2="50.87" y2="47.28" gradientTransform="matrix(1, 0, 0, -1, -3.17, 127.69)" xlink:href="#未命名的渐变_13"/><linearGradient id="未命名的渐变_13-7" x1="38.29" y1="56.3" x2="49.47" y2="56.3" gradientTransform="matrix(1, 0, 0, -1, -12.18, 136.71)" xlink:href="#未命名的渐变_13"/><linearGradient id="未命名的渐变_13-8" x1="53.78" y1="99.06" x2="82.21" y2="99.06" gradientTransform="translate(-31.06 167.05) rotate(-90)" xlink:href="#未命名的渐变_13"/><linearGradient id="未命名的渐变_13-9" x1="57.07" y1="114.29" x2="78.93" y2="114.29" gradientTransform="matrix(1, 0, 0, 1.95, 0, -98.96)" xlink:href="#未命名的渐变_13"/><linearGradient id="未命名的渐变_146" x1="68" y1="66.6" x2="68" y2="12.82" gradientUnits="userSpaceOnUse"><stop offset="0" stop-color="#5c6066"/><stop offset="1" stop-color="#f5faff"/></linearGradient><linearGradient id="未命名的渐变_184" x1="39.81" y1="4.41" x2="96.84" y2="4.41" gradientUnits="userSpaceOnUse"><stop offset="0" stop-color="#767b82"/><stop offset="0.07" stop-color="#9ba1ab"/><stop offset="0.22" stop-color="#e2eaf2"/><stop offset="0.94" stop-color="#5d6166"/><stop offset="1" stop-color="#a9b1bb"/></linearGradient><linearGradient id="未命名的渐变_184-2" x1="49.07" y1="108.44" x2="87.57" y2="108.44" xlink:href="#未命名的渐变_184"/></defs><title>Flowmeter2(流量计2)</title><g class="cls-1"><g id="图层_2" data-name="图层 2"><g id="图层_16" data-name="图层 16"><g id="Flowmeter2_流量计2_" data-name="Flowmeter2(流量计2)"><rect class="cls-2" y="128.14" width="136.01" height="21.86"/><rect class="cls-3" x="61.19" y="8.82" width="13.61" height="86.42"/><rect class="cls-4" x="61.13" y="56.71" width="17.04" height="47.41" transform="translate(-10.76 150.07) rotate(-90)"/><rect class="cls-5" x="91.61" y="75.17" width="13.99" height="10.48" transform="translate(18.19 179.01) rotate(-90)"/><rect class="cls-6" x="91.61" y="75.17" width="13.99" height="10.48" transform="translate(18.19 179.01) rotate(-90)"/><rect class="cls-7" x="102.03" y="76.64" width="11.18" height="7.55" transform="translate(27.2 188.03) rotate(-90)"/><rect class="cls-8" x="102.03" y="76.64" width="11.18" height="7.55" transform="translate(27.2 188.03) rotate(-90)"/><rect class="cls-9" x="33.72" y="75.17" width="13.99" height="10.48" transform="translate(-39.7 121.12) rotate(-90)"/><rect class="cls-6" x="33.72" y="75.17" width="13.99" height="10.48" transform="translate(-39.7 121.12) rotate(-90)"/><rect class="cls-10" x="26.1" y="76.64" width="11.18" height="7.55" transform="translate(-48.72 112.11) rotate(-90)"/><rect class="cls-8" x="26.1" y="76.64" width="11.18" height="7.55" transform="translate(-48.72 112.11) rotate(-90)"/><rect class="cls-11" x="64.18" y="84.84" width="7.64" height="28.43" transform="translate(167.05 31.06) rotate(90)"/><path class="cls-12" d="M57.07,128.14V113.92H78.93v14.22s-1.57,6.07-10.94,6.07S57.07,128.14,57.07,128.14Z"/><path class="cls-13" d="M94.2,37.6A26.29,26.29,0,0,0,70.35,13.54c-.77-.07-1.56-.11-2.36-.11-.63,0-1.25,0-1.87.07A26.29,26.29,0,0,0,41.8,37.6c-.06.7-.08,1.41-.08,2.12s0,1.41.08,2.1A26.28,26.28,0,0,0,66.12,65.93c.62,0,1.24.07,1.87.07.8,0,1.59,0,2.36-.11A26.31,26.31,0,0,0,94.2,41.82c.06-.69.08-1.39.08-2.1S94.26,38.3,94.2,37.6Z"/><path class="cls-14" d="M84,56.59A23,23,0,0,0,91.1,37c-.07-.6-.17-1.21-.29-1.82s-.28-1.2-.45-1.79A22.94,22.94,0,0,0,65.76,17a20.18,20.18,0,0,0-2,.32c-.55.11-1.08.24-1.6.38A22.93,22.93,0,0,0,45.57,42.57c.07.61.17,1.21.29,1.82s.27,1.2.45,1.79A22.86,22.86,0,0,0,60.57,61.37"/><path class="cls-15" d="M79.16,58A21.47,21.47,0,0,0,89.37,41.44c0-.57.07-1.14.07-1.72s0-1.16-.07-1.73A21.45,21.45,0,0,0,69.92,18.35c-.63-.06-1.28-.08-1.92-.08s-1,0-1.53.05A21.43,21.43,0,0,0,46.63,38c-.05.57-.08,1.14-.08,1.73s0,1.15.08,1.72A21.38,21.38,0,0,0,56.84,58"/><path class="cls-16" d="M77.82,55.65a18.89,18.89,0,0,0,9-14.6c0-.51.07-1,.07-1.52s0-1-.07-1.52A18.87,18.87,0,0,0,69.69,20.73,15.81,15.81,0,0,0,68,20.65c-.46,0-.91,0-1.35,0A18.87,18.87,0,0,0,49.19,38a15.18,15.18,0,0,0-.07,1.52c0,.51,0,1,.07,1.52a18.83,18.83,0,0,0,9,14.6"/><path class="cls-17" d="M78.08,56.11a19.38,19.38,0,0,0,9.23-15c0-.51.07-1,.07-1.56s0-1-.07-1.55A19.39,19.39,0,0,0,69.73,20.26c-.57-.05-1.15-.07-1.73-.07s-.93,0-1.38,0A19.37,19.37,0,0,0,48.69,38c0,.51-.07,1-.07,1.55s0,1,.07,1.56a19.31,19.31,0,0,0,9.23,15"/><path class="cls-18" d="M70.42,39.52a2.44,2.44,0,0,0-2.2-2.23h-.4a2.43,2.43,0,0,0-2.25,2.23v.39a2.44,2.44,0,0,0,2.25,2.23h.4a2.44,2.44,0,0,0,2.2-2.23,1.27,1.27,0,0,0,0-.2A1.21,1.21,0,0,0,70.42,39.52Z"/><rect class="cls-19" x="39.81" width="57.03" height="8.82"/><g class="cls-20"><rect x="39.81" y="4.38" width="57.03" height="0.22"/></g><rect class="cls-21" x="49.07" y="102.66" width="38.5" height="11.54"/><g class="cls-20"><rect x="49.07" y="108.39" width="38.5" height="0.29"/></g><path class="cls-18" d="M77.5,50.83,57.71,29.48,79.06,49.27a1.1,1.1,0,0,1-1.5,1.62Z"/><path class="cls-22" d="M91,28.34A25.78,25.78,0,0,0,45,51.78s10.89,3.27,26.54-4.71S91,28.34,91,28.34Z"/></g></g></g></g></svg>