<svg xmlns="http://www.w3.org/2000/svg" xmlns:xlink="http://www.w3.org/1999/xlink" viewBox="0 0 115.18 150"><defs><style>.cls-1{fill:url(#未命名的渐变_132);}.cls-2{fill:url(#未命名的渐变_132-2);}.cls-3{fill:url(#未命名的渐变_132-3);}.cls-4{fill:#45484d;}.cls-5{fill:url(#未命名的渐变_123);}.cls-6{fill:url(#未命名的渐变_121);}.cls-7{fill:url(#未命名的渐变_129);}.cls-8{fill:url(#未命名的渐变_129-2);}.cls-9{fill:#c1c5cc;}.cls-10{fill:#e8edf5;}.cls-11,.cls-13,.cls-14,.cls-15{stroke:#505458;stroke-width:0.37px;}.cls-11,.cls-13,.cls-14,.cls-15,.cls-16,.cls-21{stroke-miterlimit:10;}.cls-11{fill:url(#未命名的渐变_303);}.cls-12{fill:#505458;}.cls-13{fill:url(#未命名的渐变_303-2);}.cls-14{fill:url(#未命名的渐变_303-3);}.cls-15{fill:url(#未命名的渐变_303-4);}.cls-16,.cls-21,.cls-22,.cls-23,.cls-24,.cls-25,.cls-26{fill:none;stroke:#45484d;}.cls-16{stroke-linecap:round;stroke-width:2.24px;}.cls-17{fill:#a3b372;}.cls-18{fill:#646e46;}.cls-19{opacity:0.8;}.cls-20{fill:url(#未命名的渐变_73);}.cls-21{stroke-width:0.28px;}.cls-22,.cls-23,.cls-24,.cls-25,.cls-26{stroke-miterlimit:1;}.cls-22,.cls-23,.cls-24,.cls-25{stroke-width:1.12px;}.cls-23{stroke-dasharray:0.11 1.12;}.cls-24{stroke-dasharray:0.11 1.14;}.cls-25{stroke-dasharray:0.11 1.12;}.cls-26{stroke-width:5.61px;stroke-dasharray:0.22 6.73;}.cls-27{fill:#8f949a;}.cls-27,.cls-28{opacity:0.2;}</style><linearGradient id="未命名的渐变_132" x1="44.06" y1="75" x2="71.87" y2="75" gradientUnits="userSpaceOnUse"><stop offset="0" stop-color="#a9b1bb"/><stop offset="0.06" stop-color="#5d6166"/><stop offset="0.78" stop-color="#e2eaf2"/><stop offset="0.93" stop-color="#9ba1ab"/><stop offset="1" stop-color="#767b82"/></linearGradient><linearGradient id="未命名的渐变_132-2" x1="24.85" y1="142.61" x2="90.72" y2="142.61" gradientTransform="matrix(1, 0, 0.03, 1.28, -3.89, -36.82)" xlink:href="#未命名的渐变_132"/><linearGradient id="未命名的渐变_132-3" x1="28.06" y1="32.62" x2="93.92" y2="32.62" gradientTransform="matrix(1, 0, 0.03, 1.28, -3.89, -36.82)" xlink:href="#未命名的渐变_132"/><linearGradient id="未命名的渐变_123" x1="57.59" y1="34.98" x2="57.59" y2="19.09" gradientUnits="userSpaceOnUse"><stop offset="0" stop-color="#5a5e66"/><stop offset="1" stop-color="#919399"/></linearGradient><linearGradient id="未命名的渐变_121" x1="57.59" y1="130.91" x2="57.59" y2="115.02" gradientUnits="userSpaceOnUse"><stop offset="0" stop-color="#919399"/><stop offset="1" stop-color="#5a5e66"/></linearGradient><linearGradient id="未命名的渐变_129" x1="-21.65" y1="48.59" x2="31.18" y2="101.41" gradientUnits="userSpaceOnUse"><stop offset="0" stop-color="#d9dde6"/><stop offset="1" stop-color="#878d99"/></linearGradient><linearGradient id="未命名的渐变_129-2" x1="136.83" y1="48.59" x2="84" y2="101.41" xlink:href="#未命名的渐变_129"/><linearGradient id="未命名的渐变_303" x1="1153.08" y1="-145.22" x2="1153.08" y2="-138.24" gradientTransform="translate(-905.94 -688.09) rotate(45)" gradientUnits="userSpaceOnUse"><stop offset="0" stop-color="#9ba1ab"/><stop offset="0" stop-color="#abb1ba"/><stop offset="0.09" stop-color="#abb1ba"/><stop offset="0.46" stop-color="#f5faff"/><stop offset="1" stop-color="#a9b1bb"/></linearGradient><linearGradient id="未命名的渐变_303-2" x1="1221.82" y1="-76.48" x2="1221.82" y2="-69.5" xlink:href="#未命名的渐变_303"/><linearGradient id="未命名的渐变_303-3" x1="1221.82" y1="-213.96" x2="1221.82" y2="-206.98" xlink:href="#未命名的渐变_303"/><linearGradient id="未命名的渐变_303-4" x1="1290.56" y1="-145.22" x2="1290.56" y2="-138.24" xlink:href="#未命名的渐变_303"/><linearGradient id="未命名的渐变_73" x1="47.8" y1="28.85" x2="64.8" y2="45.84" gradientUnits="userSpaceOnUse"><stop offset="0" stop-color="#fff"/><stop offset="0.04" stop-color="#fff" stop-opacity="0.91"/><stop offset="0.15" stop-color="#fff" stop-opacity="0.7"/><stop offset="0.26" stop-color="#fff" stop-opacity="0.51"/><stop offset="0.37" stop-color="#fff" stop-opacity="0.35"/><stop offset="0.49" stop-color="#fff" stop-opacity="0.23"/><stop offset="0.6" stop-color="#fff" stop-opacity="0.13"/><stop offset="0.73" stop-color="#fff" stop-opacity="0.06"/><stop offset="0.85" stop-color="#fff" stop-opacity="0.01"/><stop offset="1" stop-color="#fff" stop-opacity="0"/></linearGradient></defs><title>Flowmeter1(流量计1)</title><g id="图层_2" data-name="图层 2"><g id="图层_16" data-name="图层 16"><g id="Flowmeter1_流量计1_" data-name="Flowmeter1(流量计1)"><rect class="cls-1" x="44.06" y="9.63" width="27.81" height="130.73"/><polygon class="cls-2" points="91.06 150 25.23 150 25.05 140.37 90.88 140.37 91.06 150"/><polygon class="cls-3" points="91.06 9.63 25.23 9.63 25.05 0 90.88 0 91.06 9.63"/><path class="cls-4" d="M0,121.77V28.23A10.82,10.82,0,0,1,10.82,17.41h93.55a10.82,10.82,0,0,1,10.81,10.82v93.54a10.82,10.82,0,0,1-10.81,10.82H10.82A10.82,10.82,0,0,1,0,121.77Z"/><path class="cls-5" d="M4.76,22.17a10.46,10.46,0,0,1,7.42-3.08H103a10.46,10.46,0,0,1,7.42,3.08L97.61,35h-80Z"/><path class="cls-6" d="M4.76,127.83,17.57,115h80l12.81,12.81a10.46,10.46,0,0,1-7.42,3.08H12.18A10.46,10.46,0,0,1,4.76,127.83Z"/><path class="cls-7" d="M1.68,120.41V29.59a10.46,10.46,0,0,1,3.08-7.42L17.57,35v80L4.76,127.83A10.46,10.46,0,0,1,1.68,120.41Z"/><path class="cls-8" d="M97.61,115V35l12.81-12.81a10.46,10.46,0,0,1,3.08,7.42v90.82a10.46,10.46,0,0,1-3.08,7.42Z"/><rect class="cls-9" x="11.96" y="29.37" width="91.27" height="91.27" rx="7.28" transform="translate(115.18 150) rotate(180)"/><rect class="cls-10" x="14.09" y="31.5" width="87" height="87" rx="6.94" transform="translate(115.18 150) rotate(180)"/><circle class="cls-11" cx="9.63" cy="27.04" r="3.49"/><path class="cls-12" d="M8.32,25.35l1.36,1.36L11,25.35l.29.29L10,27l1.35,1.35-.24.25L9.72,27.24,8.23,28.73l-.29-.29L9.44,27,8.08,25.59Z"/><circle class="cls-13" cx="9.63" cy="124.25" r="3.49"/><path class="cls-12" d="M8.32,122.56l1.36,1.36L11,122.57l.29.28L10,124.21l1.35,1.35-.24.24-1.36-1.35-1.49,1.49-.29-.28,1.5-1.5L8.08,122.8Z"/><circle class="cls-14" cx="106.84" cy="27.04" r="3.49"/><path class="cls-12" d="M105.54,25.35l1.36,1.36,1.35-1.36.29.29L107.18,27l1.35,1.35-.24.25-1.35-1.35-1.5,1.49-.28-.29L106.65,27l-1.36-1.36Z"/><circle class="cls-15" cx="106.84" cy="124.25" r="3.49"/><path class="cls-12" d="M105.54,122.56l1.36,1.36,1.35-1.35.29.28-1.36,1.36,1.35,1.35-.24.24-1.35-1.35-1.5,1.49-.28-.28,1.49-1.5-1.36-1.36Z"/><path class="cls-4" d="M83.6,83.18,18.68,67.6l66.16,9a3.37,3.37,0,1,1-.9,6.68Z"/><path class="cls-16" d="M74.41,95a20,20,0,0,1,0-39.9"/><rect class="cls-17" x="40.67" y="35.37" width="34.6" height="7.27"/><path class="cls-18" d="M75,35.68v6.66H41V35.68H75m.61-.61H40.36V43H75.57V35.07Z"/><g class="cls-19"><polygon class="cls-20" points="40.97 42.34 40.97 35.68 74.96 35.68 40.97 42.34"/></g><path class="cls-21" d="M34.46,111.36l-3.9-6.14a55.05,55.05,0,0,1-.18-58.78l4.08-6.51"/><line class="cls-21" x1="32.67" y1="113.33" x2="34.46" y2="111.36"/><line class="cls-21" x1="20.91" y1="90.54" x2="23.7" y2="89.49"/><line class="cls-21" x1="21.24" y1="60.18" x2="23.79" y2="61.27"/><line class="cls-21" x1="32.13" y1="37.72" x2="34.46" y2="39.93"/><path class="cls-22" d="M23.36,89.69v0"/><path class="cls-23" d="M23.53,90.84C24.68,96.19,30.78,108,33.88,111"/><path class="cls-22" d="M34.31,111.33l0,0"/><path class="cls-22" d="M23.05,61.27v.06"/><path class="cls-24" d="M22.74,62.43c-2.82,11-1.21,23.19.33,26.71"/><path class="cls-22" d="M23.33,89.65l0,0"/><path class="cls-25" d="M34.28,39.58s-8.4,10.75-10.92,21.51"/><path class="cls-26" d="M32.67,47.64s-18.15,26.1.89,57.82"/><path class="cls-27" d="M19.24,29.37h76.7a7.29,7.29,0,0,1,7.29,7.28l-84,84A7.28,7.28,0,0,1,12,113.35V36.65A7.28,7.28,0,0,1,19.24,29.37Z"/></g></g></g></svg>