<svg xmlns="http://www.w3.org/2000/svg" xmlns:xlink="http://www.w3.org/1999/xlink" viewBox="0 0 150 117.82"><defs><style>.cls-1{fill:none;stroke:#222326;stroke-width:3.61px;}.cls-1,.cls-16,.cls-18,.cls-19,.cls-20{stroke-miterlimit:10;}.cls-2{fill:url(#未命名的渐变_298);}.cls-3{fill:url(#未命名的渐变_298-2);}.cls-4{fill:url(#未命名的渐变_297);}.cls-5{fill:url(#未命名的渐变_297-2);}.cls-21,.cls-6{fill:#fff;}.cls-6{opacity:0.6;}.cls-7{fill:url(#未命名的渐变_297-3);}.cls-8{fill:url(#未命名的渐变_20);}.cls-9{fill:url(#未命名的渐变_20-2);}.cls-10{fill:url(#未命名的渐变_15);}.cls-11{fill:url(#未命名的渐变_19);}.cls-12{fill:url(#未命名的渐变_323);}.cls-13{fill:url(#未命名的渐变_241);}.cls-14{fill:#a3b372;}.cls-15{fill:#646e46;}.cls-16,.cls-18,.cls-19,.cls-20{stroke:#505458;stroke-width:0.07px;}.cls-16{fill:url(#未命名的渐变_303);}.cls-17{fill:#505458;}.cls-18{fill:url(#未命名的渐变_303-2);}.cls-19{fill:url(#未命名的渐变_303-3);}.cls-20{fill:url(#未命名的渐变_303-4);}.cls-21{opacity:0.1;}.cls-22{fill:url(#未命名的渐变_20-3);}.cls-23{fill:url(#未命名的渐变_20-4);}.cls-24{fill:url(#未命名的渐变_20-5);}.cls-25{fill:url(#未命名的渐变_20-6);}.cls-26{fill:url(#未命名的渐变_20-7);}.cls-27{fill:url(#未命名的渐变_20-8);}.cls-28{fill:url(#未命名的渐变_20-9);}.cls-29{fill:url(#未命名的渐变_20-10);}.cls-30{fill:url(#未命名的渐变_20-11);}.cls-31{fill:url(#未命名的渐变_20-12);}.cls-32{fill:url(#未命名的渐变_20-13);}.cls-33{fill:url(#未命名的渐变_20-14);}.cls-34{fill:url(#未命名的渐变_20-15);}.cls-35{fill:url(#未命名的渐变_20-16);}.cls-36{fill:url(#未命名的渐变_20-17);}.cls-37{fill:url(#未命名的渐变_20-18);}.cls-38{fill:url(#未命名的渐变_20-19);}.cls-39{opacity:0.2;}</style><linearGradient id="未命名的渐变_298" x1="43.61" y1="54.37" x2="48.12" y2="54.37" gradientUnits="userSpaceOnUse"><stop offset="0" stop-color="#a9b1bb"/><stop offset="0.06" stop-color="#5d6166"/><stop offset="0.78" stop-color="#e2eaf2"/><stop offset="0.93" stop-color="#9ba1ab"/><stop offset="1" stop-color="#767b82"/></linearGradient><linearGradient id="未命名的渐变_298-2" x1="91.75" y1="54.37" x2="96.26" y2="54.37" gradientTransform="matrix(1, 0, 0, -1, 10.25, 108.73)" xlink:href="#未命名的渐变_298"/><linearGradient id="未命名的渐变_297" x1="701.81" y1="-131.67" x2="701.81" y2="-141.65" gradientTransform="matrix(1.22, 0, 0, 1, -782.06, 189.96)" gradientUnits="userSpaceOnUse"><stop offset="0" stop-color="#676b70"/><stop offset="0.02" stop-color="#484b4d"/><stop offset="0.19" stop-color="#747980"/><stop offset="0.2" stop-color="#d1d5db"/><stop offset="0.79" stop-color="#c7cfdb"/><stop offset="0.8" stop-color="#edf5ff"/><stop offset="0.81" stop-color="#c3c7cc"/><stop offset="1" stop-color="#929599"/></linearGradient><linearGradient id="未命名的渐变_297-2" x1="720.6" y1="-121.55" x2="720.6" y2="-151.74" gradientTransform="matrix(1, 0, 0, 1, -645.6, 209.05)" xlink:href="#未命名的渐变_297"/><linearGradient id="未命名的渐变_297-3" x1="717.57" y1="-131.59" x2="717.57" y2="-141.7" gradientTransform="matrix(1, 0, 0, 1, -642.57, 206.03)" xlink:href="#未命名的渐变_297"/><linearGradient id="未命名的渐变_20" x1="91.08" y1="3.36" x2="91.08" y2="13.7" gradientUnits="userSpaceOnUse"><stop offset="0" stop-color="#767b82"/><stop offset="0.07" stop-color="#9ba1ab"/><stop offset="0.22" stop-color="#e2eaf2"/><stop offset="0.94" stop-color="#5d6166"/><stop offset="1" stop-color="#a9b1bb"/></linearGradient><linearGradient id="未命名的渐变_20-2" x1="58.83" y1="3.36" x2="58.83" y2="13.7" xlink:href="#未命名的渐变_20"/><linearGradient id="未命名的渐变_15" x1="59.27" y1="-483.58" x2="91.08" y2="-483.58" gradientTransform="matrix(1, 0, 0, -2.73, 0, -1299.87)" gradientUnits="userSpaceOnUse"><stop offset="0" stop-color="#767b82"/><stop offset="0.08" stop-color="#b9c0cc"/><stop offset="0.91" stop-color="#b9c0cc"/><stop offset="0.96" stop-color="#d7dce0"/><stop offset="0.98" stop-color="#767b82"/></linearGradient><linearGradient id="未命名的渐变_19" x1="77.31" y1="23.36" x2="69.69" y2="15.74" gradientUnits="userSpaceOnUse"><stop offset="0" stop-color="#e6f1ff" stop-opacity="0"/><stop offset="0.26" stop-color="#e6f1ff" stop-opacity="0.01"/><stop offset="0.4" stop-color="#e6f1ff" stop-opacity="0.04"/><stop offset="0.51" stop-color="#e7f1ff" stop-opacity="0.09"/><stop offset="0.6" stop-color="#e7f2ff" stop-opacity="0.17"/><stop offset="0.69" stop-color="#e8f2ff" stop-opacity="0.26"/><stop offset="0.76" stop-color="#e9f2ff" stop-opacity="0.38"/><stop offset="0.83" stop-color="#eaf3ff" stop-opacity="0.53"/><stop offset="0.9" stop-color="#ecf3ff" stop-opacity="0.69"/><stop offset="0.96" stop-color="#edf4ff" stop-opacity="0.87"/><stop offset="1" stop-color="#eef4ff"/></linearGradient><linearGradient id="未命名的渐变_323" x1="75" y1="40.43" x2="75" y2="1.66" gradientUnits="userSpaceOnUse"><stop offset="0" stop-color="#5c6066"/><stop offset="1" stop-color="#f5faff"/></linearGradient><linearGradient id="未命名的渐变_241" x1="75" y1="35.13" x2="75" y2="6.97" gradientUnits="userSpaceOnUse"><stop offset="0" stop-color="#494a4d"/><stop offset="1" stop-color="#17181a"/></linearGradient><linearGradient id="未命名的渐变_303" x1="1340.27" y1="-231.31" x2="1340.27" y2="-230" gradientTransform="translate(-1053.64 -763.69) rotate(45)" gradientUnits="userSpaceOnUse"><stop offset="0" stop-color="#9ba1ab"/><stop offset="0" stop-color="#abb1ba"/><stop offset="0.09" stop-color="#abb1ba"/><stop offset="0.46" stop-color="#f5faff"/><stop offset="1" stop-color="#a9b1bb"/></linearGradient><linearGradient id="未命名的渐变_303-2" x1="1365.73" y1="-256.76" x2="1365.73" y2="-255.45" xlink:href="#未命名的渐变_303"/><linearGradient id="未命名的渐变_303-3" x1="1340.27" y1="-231.31" x2="1340.27" y2="-230" gradientTransform="translate(-709.45 1149.74) rotate(-45)" xlink:href="#未命名的渐变_303"/><linearGradient id="未命名的渐变_303-4" x1="1365.73" y1="-256.76" x2="1365.73" y2="-255.45" gradientTransform="translate(-709.45 1149.74) rotate(-45)" xlink:href="#未命名的渐变_303"/><linearGradient id="未命名的渐变_20-3" x1="31.25" y1="89.65" x2="35.61" y2="89.65" xlink:href="#未命名的渐变_20"/><linearGradient id="未命名的渐变_20-4" x1="39.68" y1="89.65" x2="44.04" y2="89.65" xlink:href="#未命名的渐变_20"/><linearGradient id="未命名的渐变_20-5" x1="48.12" y1="89.65" x2="52.47" y2="89.65" xlink:href="#未命名的渐变_20"/><linearGradient id="未命名的渐变_20-6" x1="56.62" y1="89.65" x2="60.98" y2="89.65" xlink:href="#未命名的渐变_20"/><linearGradient id="未命名的渐变_20-7" x1="28.84" y1="94.05" x2="63.38" y2="94.05" xlink:href="#未命名的渐变_20"/><linearGradient id="未命名的渐变_20-8" x1="89.21" y1="89.65" x2="93.57" y2="89.65" xlink:href="#未命名的渐变_20"/><linearGradient id="未命名的渐变_20-9" x1="97.65" y1="89.65" x2="102.01" y2="89.65" xlink:href="#未命名的渐变_20"/><linearGradient id="未命名的渐变_20-10" x1="106.08" y1="89.65" x2="110.44" y2="89.65" xlink:href="#未命名的渐变_20"/><linearGradient id="未命名的渐变_20-11" x1="114.59" y1="89.65" x2="118.95" y2="89.65" xlink:href="#未命名的渐变_20"/><linearGradient id="未命名的渐变_20-12" x1="86.8" y1="94.05" x2="121.35" y2="94.05" xlink:href="#未命名的渐变_20"/><linearGradient id="未命名的渐变_20-13" x1="20.62" y1="82.88" x2="20.62" y2="105.22" xlink:href="#未命名的渐变_20"/><linearGradient id="未命名的渐变_20-14" x1="4.46" y1="70.28" x2="4.46" y2="117.82" xlink:href="#未命名的渐变_20"/><linearGradient id="未命名的渐变_20-15" x1="9.83" y1="81.46" x2="9.83" y2="106.64" xlink:href="#未命名的渐变_20"/><linearGradient id="未命名的渐变_20-16" x1="145.48" y1="82.88" x2="145.48" y2="105.22" gradientTransform="matrix(-1, 0, 0, 1, 274.86, 0)" xlink:href="#未命名的渐变_20"/><linearGradient id="未命名的渐变_20-17" x1="129.32" y1="70.28" x2="129.32" y2="117.82" gradientTransform="matrix(1, 0, 0, -1, 16.21, 188.1)" xlink:href="#未命名的渐变_20"/><linearGradient id="未命名的渐变_20-18" x1="134.69" y1="81.46" x2="134.69" y2="106.64" gradientTransform="matrix(1, 0, 0, -1, 5.48, 188.1)" xlink:href="#未命名的渐变_20"/><linearGradient id="未命名的渐变_20-19" x1="72.17" y1="82.88" x2="72.17" y2="105.22" gradientTransform="matrix(-1, 0, 0, 1, 147.17, 0)" xlink:href="#未命名的渐变_20"/></defs><title>Flow system(流量系统)</title><g id="图层_2" data-name="图层 2"><g id="图层_16" data-name="图层 16"><g id="Flow_system_流量系统_" data-name="Flow system(流量系统)"><path class="cls-1" d="M46.11,32.09c0-11.82-7.1-18.39-12.68-18.39-18.6,0,4.72,37,4.72,66.21"/><rect class="cls-2" x="43.61" y="32.09" width="4.51" height="44.56"/><path class="cls-1" d="M104,32.09c0-11.82,7.1-18.39,12.69-18.39,18.59,0-4.72,37-4.72,66.21"/><rect class="cls-3" x="102.01" y="32.09" width="4.51" height="44.56" transform="translate(208.52 108.73) rotate(-180)"/><rect class="cls-4" x="65.12" y="48.31" width="19.75" height="9.98" transform="matrix(0, 1, -1, 0, 128.3, -21.7)"/><rect class="cls-5" x="61.97" y="57.3" width="26.05" height="30.19" transform="translate(147.39 -2.6) rotate(90)"/><rect class="cls-6" x="65.89" y="64.31" width="18.36" height="14.61"/><rect class="cls-7" x="69.94" y="64.31" width="10.11" height="10.11" transform="translate(144.36 -5.63) rotate(90)"/><rect class="cls-8" x="87.86" y="3.36" width="6.44" height="10.34"/><rect class="cls-9" x="55.62" y="3.36" width="6.44" height="10.34"/><rect class="cls-10" x="59.27" width="31.8" height="43.42"/><polygon class="cls-11" points="67.38 24.05 67.38 18.05 82.61 18.05 67.38 24.05"/><path class="cls-12" d="M94.32,19.49A19.37,19.37,0,0,0,76.73,1.75,16.42,16.42,0,0,0,75,1.66c-.47,0-.93,0-1.39.05A19.39,19.39,0,0,0,55.68,19.49c0,.51-.06,1-.06,1.56s0,1,.06,1.55A19.37,19.37,0,0,0,73.61,40.38c.46,0,.92,0,1.39,0s1.17,0,1.73-.07A19.4,19.4,0,0,0,94.32,22.6c.05-.51.06-1,.06-1.55S94.37,20,94.32,19.49ZM75,35.13A14.08,14.08,0,1,1,89.08,21.05,14.1,14.1,0,0,1,75,35.13Z"/><path class="cls-6" d="M94.38,21.05c0,.53,0,1-.06,1.55h-3A16.42,16.42,0,0,1,76.73,37.35v3c-.56,0-1.15.07-1.73.07s-.93,0-1.39,0v-3A16.42,16.42,0,0,1,58.68,22.6h-3c0-.51-.06-1-.06-1.55s0-1.05.06-1.56h3A16.43,16.43,0,0,1,73.61,4.71v-3c.46,0,.92-.05,1.39-.05a16.42,16.42,0,0,1,1.73.09v3A16.45,16.45,0,0,1,91.32,19.49h3C94.37,20,94.38,20.53,94.38,21.05Z"/><path class="cls-13" d="M89.08,21.05A14.08,14.08,0,1,1,75,7,14.1,14.1,0,0,1,89.08,21.05Z"/><rect class="cls-14" x="67.21" y="17.88" width="15.57" height="6.34"/><path class="cls-15" d="M82.61,18.05v6H67.38v-6H82.61m.35-.34H67v6.68H83V17.71Z"/><circle class="cls-16" cx="57.18" cy="20.93" r="0.66"/><path class="cls-17" d="M56.93,20.61l.25.25.26-.25.05.05-.25.26.25.25,0,0L57.19,21l-.28.28,0,0,.28-.28-.26-.26Z"/><circle class="cls-18" cx="93.17" cy="20.93" r="0.66"/><path class="cls-17" d="M92.93,20.61l.25.25.26-.25,0,.05-.25.26.25.25,0,0L93.19,21l-.28.28,0,0,.28-.28-.26-.26Z"/><circle class="cls-19" cx="75.17" cy="38.93" r="0.66"/><path class="cls-17" d="M74.86,39.17l.25-.25-.25-.26,0,0,.26.25.25-.25,0,0-.25.26.28.28,0,.05L75.16,39l-.26.26Z"/><circle class="cls-20" cx="75.17" cy="2.93" r="0.66"/><path class="cls-17" d="M74.86,3.17l.25-.25-.25-.26,0-.05.26.25.25-.25,0,.05-.25.25.28.28,0,.05L75.16,3l-.26.26Z"/><path class="cls-21" d="M85,11.12c-.19.43-.38.85-.58,1.27A38.79,38.79,0,0,1,66.34,30.45c-.32.16-.64.31-1,.45l-.29.14A14.08,14.08,0,0,1,85,11.12Z"/><path class="cls-21" d="M84.41,12.39A38.79,38.79,0,0,1,66.34,30.45c-5-5.32-5.17-13.45-.28-18.34S79.09,7.37,84.41,12.39Z"/><rect class="cls-22" x="31.25" y="74.08" width="4.36" height="31.14"/><rect class="cls-23" x="39.68" y="74.08" width="4.36" height="31.14"/><rect class="cls-24" x="48.12" y="74.08" width="4.36" height="31.14"/><rect class="cls-25" x="56.62" y="74.08" width="4.36" height="31.14"/><rect class="cls-26" x="28.84" y="76.78" width="34.55" height="34.55"/><rect class="cls-27" x="89.21" y="74.08" width="4.36" height="31.14"/><rect class="cls-28" x="97.65" y="74.08" width="4.36" height="31.14"/><rect class="cls-29" x="106.08" y="74.08" width="4.36" height="31.14"/><rect class="cls-30" x="114.59" y="74.08" width="4.36" height="31.14"/><rect class="cls-31" x="86.8" y="76.78" width="34.55" height="34.55"/><path class="cls-32" d="M28.84,105.22H8.93V82.88H28.84s3.47,2.53,3.47,11.17S28.84,105.22,28.84,105.22Z"/><rect class="cls-33" y="70.28" width="8.93" height="47.55"/><rect class="cls-34" x="8.93" y="81.46" width="1.81" height="25.17"/><path class="cls-35" d="M121.16,105.22h19.91V82.88H121.16s-3.47,2.53-3.47,11.17S121.16,105.22,121.16,105.22Z"/><rect class="cls-36" x="141.07" y="70.28" width="8.93" height="47.55" transform="translate(291.07 188.1) rotate(-180)"/><rect class="cls-37" x="139.26" y="81.46" width="1.81" height="25.17" transform="translate(280.33 188.1) rotate(-180)"/><path class="cls-38" d="M63.38,105.22H86.8s3.29-3.48,3.29-11.17S86.8,82.88,86.8,82.88H63.38s-3.47,2.53-3.47,11.17S63.38,105.22,63.38,105.22Z"/></g></g></g></svg>