<svg xmlns="http://www.w3.org/2000/svg" xmlns:xlink="http://www.w3.org/1999/xlink" viewBox="0 0 48.22 150"><defs><style>.cls-1{fill:#e8e8e8;}.cls-2{fill:url(#未命名的渐变_105);}.cls-3{fill:#b6b7b7;}.cls-4{fill:url(#未命名的渐变_105-2);}.cls-5{fill:url(#未命名的渐变_105-3);}.cls-6{fill:url(#未命名的渐变_105-4);}.cls-7{fill:url(#未命名的渐变_105-5);}.cls-8{fill:url(#未命名的渐变_105-6);}.cls-9{fill:url(#未命名的渐变_105-7);}.cls-10{fill:url(#未命名的渐变_105-8);}.cls-11{fill:url(#未命名的渐变_105-9);}.cls-12{fill:url(#未命名的渐变_105-10);}.cls-13{fill:#585656;}.cls-14{fill:url(#未命名的渐变_105-11);}.cls-15{fill:url(#未命名的渐变_105-12);}.cls-16{fill:url(#未命名的渐变_105-13);}.cls-17{opacity:0.2;}</style><linearGradient id="未命名的渐变_105" x1="3.75" y1="36.66" x2="6.29" y2="36.66" gradientUnits="userSpaceOnUse"><stop offset="0" stop-color="#e2e2e2"/><stop offset="0.03" stop-color="#d0d0d0"/><stop offset="0.06" stop-color="#bcbcbc"/><stop offset="0.09" stop-color="#b5b5b5"/><stop offset="0.49" stop-color="#f6f6f6"/><stop offset="0.63" stop-color="#f3f3f3"/><stop offset="0.73" stop-color="#eaeaea"/><stop offset="0.82" stop-color="#dbdbdb"/><stop offset="0.9" stop-color="#c6c6c6"/><stop offset="0.97" stop-color="#aaa"/><stop offset="1" stop-color="#9b9b9b"/></linearGradient><linearGradient id="未命名的渐变_105-2" x1="3.75" y1="48.81" x2="6.29" y2="48.81" xlink:href="#未命名的渐变_105"/><linearGradient id="未命名的渐变_105-3" x1="3.75" y1="60.96" x2="6.29" y2="60.96" xlink:href="#未命名的渐变_105"/><linearGradient id="未命名的渐变_105-4" x1="3.75" y1="73.11" x2="6.29" y2="73.11" xlink:href="#未命名的渐变_105"/><linearGradient id="未命名的渐变_105-5" x1="3.75" y1="85.26" x2="6.29" y2="85.26" xlink:href="#未命名的渐变_105"/><linearGradient id="未命名的渐变_105-6" x1="44.28" y1="36.66" x2="46.82" y2="36.66" xlink:href="#未命名的渐变_105"/><linearGradient id="未命名的渐变_105-7" x1="44.28" y1="48.81" x2="46.82" y2="48.81" xlink:href="#未命名的渐变_105"/><linearGradient id="未命名的渐变_105-8" x1="44.28" y1="60.96" x2="46.82" y2="60.96" xlink:href="#未命名的渐变_105"/><linearGradient id="未命名的渐变_105-9" x1="44.28" y1="73.11" x2="46.82" y2="73.11" xlink:href="#未命名的渐变_105"/><linearGradient id="未命名的渐变_105-10" x1="44.28" y1="85.26" x2="46.82" y2="85.26" xlink:href="#未命名的渐变_105"/><linearGradient id="未命名的渐变_105-11" x1="17.28" y1="119.09" x2="33.74" y2="119.09" xlink:href="#未命名的渐变_105"/><linearGradient id="未命名的渐变_105-12" x1="13.97" y1="119.09" x2="17.28" y2="119.09" xlink:href="#未命名的渐变_105"/><linearGradient id="未命名的渐变_105-13" x1="33.74" y1="119.09" x2="37.06" y2="119.09" xlink:href="#未命名的渐变_105"/></defs><title>Flow gate（流量闸门）</title><g id="图层_2" data-name="图层 2"><g id="图层_125" data-name="图层 125"><g id="Flow_gate_流量闸门_" data-name="Flow gate（流量闸门）"><rect class="cls-1" x="1.83" y="33.79" width="46.39" height="54.11"/><path class="cls-1" d="M5.75,0V33.79h39V0Zm35.5,30.79h-32V3h32Z"/><circle class="cls-2" cx="5.02" cy="36.66" r="1.27"/><rect class="cls-3" x="4.77" y="35.74" width="0.51" height="1.84" transform="translate(8.55 -0.17) rotate(13.27)"/><circle class="cls-4" cx="5.02" cy="48.81" r="1.27"/><rect class="cls-3" x="4.77" y="47.89" width="0.51" height="1.84" transform="translate(11.34 0.15) rotate(13.27)"/><circle class="cls-5" cx="5.02" cy="60.96" r="1.27"/><rect class="cls-3" x="4.77" y="60.04" width="0.51" height="1.84" transform="translate(14.12 0.47) rotate(13.27)"/><circle class="cls-6" cx="5.02" cy="73.11" r="1.27"/><rect class="cls-3" x="4.77" y="72.19" width="0.51" height="1.84" transform="translate(16.91 0.8) rotate(13.27)"/><circle class="cls-7" cx="5.02" cy="85.26" r="1.27"/><rect class="cls-3" x="4.77" y="84.34" width="0.51" height="1.84" transform="translate(19.7 1.12) rotate(13.27)"/><circle class="cls-8" cx="45.55" cy="36.66" r="1.27"/><rect class="cls-3" x="45.29" y="35.74" width="0.51" height="1.84" transform="translate(9.63 -9.47) rotate(13.27)"/><circle class="cls-9" cx="45.55" cy="48.81" r="1.27"/><rect class="cls-3" x="45.29" y="47.89" width="0.51" height="1.84" transform="translate(12.42 -9.15) rotate(13.27)"/><circle class="cls-10" cx="45.55" cy="60.96" r="1.27"/><rect class="cls-3" x="45.29" y="60.04" width="0.51" height="1.84" transform="translate(15.21 -8.83) rotate(13.27)"/><circle class="cls-11" cx="45.55" cy="73.11" r="1.27"/><rect class="cls-3" x="45.29" y="72.19" width="0.51" height="1.84" transform="translate(17.99 -8.5) rotate(13.27)"/><circle class="cls-12" cx="45.55" cy="85.26" r="1.27"/><rect class="cls-3" x="45.29" y="84.34" width="0.51" height="1.84" transform="translate(20.78 -8.18) rotate(13.27)"/><rect class="cls-13" x="10.53" y="87.9" width="29.35" height="2.27"/><rect class="cls-13" x="13.97" y="145.43" width="22.97" height="4.57"/><rect class="cls-14" x="17.28" y="92.74" width="16.46" height="52.69"/><rect class="cls-15" x="13.97" y="92.74" width="3.32" height="52.69"/><rect class="cls-16" x="33.74" y="92.74" width="3.32" height="52.69"/></g></g></g></svg>