<svg xmlns="http://www.w3.org/2000/svg" viewBox="0 0 150 92.5"><defs><style>.cls-1{isolation:isolate;}.cls-2{fill:#f9fafc;}.cls-3{fill:#7a8799;}.cls-4{fill:#c3ccd9;}.cls-5{fill:#fff;}.cls-6{fill:#e0ecfa;}.cls-7{fill:#001333;}.cls-8{fill:#e6a116;}.cls-9{fill:#ffcd33;}.cls-10{fill:#09b379;}.cls-11{fill:#15d1a2;}.cls-12{opacity:0.2;}</style></defs><title>Freeze protection（防冻开关）</title><g id="图层_2" data-name="图层 2"><g id="风格1"><g id="Freeze_protection_防冻开关_" data-name="Freeze protection（防冻开关）"><g class="cls-1"><polygon class="cls-2" points="150 45.51 75.25 88.95 0.02 45.51 74.77 2.08 150 45.51"/><polygon class="cls-3" points="150 45.51 149.98 49.07 75.23 92.5 75.25 88.95 150 45.51"/><polygon class="cls-4" points="75.25 88.95 75.23 92.5 0 49.07 0.02 45.51 75.25 88.95"/></g><g class="cls-1"><polygon class="cls-5" points="129.66 36.75 75.19 68.41 20.36 36.75 74.83 5.1 129.66 36.75"/><polygon class="cls-3" points="129.66 36.75 129.64 46.29 75.17 77.95 75.19 68.41 129.66 36.75"/><polygon class="cls-4" points="75.19 68.41 75.17 77.95 20.34 46.29 20.36 36.75 75.19 68.41"/></g><g class="cls-1"><path class="cls-4" d="M43,40.05a12.38,12.38,0,0,0,11.2,0L86.8,21.25c1.55-.9,2.33-2.08,2.32-3.26v3.1a3.93,3.93,0,0,1-2.32,3.26L54.23,43.16a12.38,12.38,0,0,1-11.2,0,4,4,0,0,1-2.29-3.22v-3.1A3.94,3.94,0,0,0,43,40.05Z"/><path class="cls-5" d="M43.06,33.57c-3.09,1.79-3.1,4.7,0,6.48a12.38,12.38,0,0,0,11.2,0L86.8,21.25c3.09-1.79,3.1-4.7,0-6.49a12.39,12.39,0,0,0-11.19,0Z"/></g><g class="cls-1"><path class="cls-6" d="M48.78,31.58a9.15,9.15,0,0,0,8.25,0l24-13.87a2.91,2.91,0,0,0,1.72-2.4L77.2,12a16.16,16.16,0,0,1,7.71,1.48C89.33,15.32,89.13,18,89.13,18c0,1.18-.77,2.36-2.32,3.26L54.23,40.06a12.38,12.38,0,0,1-11.2,0,3.94,3.94,0,0,1-2.29-3.21,8.64,8.64,0,0,1,1.55-4.28,23.64,23.64,0,0,1,5.62-5.09L47.1,29.2A2.9,2.9,0,0,0,48.78,31.58Z"/><path class="cls-5" d="M48.81,26.8c-2.28,1.31-2.29,3.46,0,4.78a9.15,9.15,0,0,0,8.25,0l24-13.87c2.28-1.31,2.29-3.46,0-4.78a9.13,9.13,0,0,0-8.24,0Z"/><path class="cls-4" d="M81.76,15.32a1.5,1.5,0,0,1-.5,1,4.23,4.23,0,0,1-.71.53l-24,13.86a8.15,8.15,0,0,1-7.25,0,3.44,3.44,0,0,1-.68-.51,1.45,1.45,0,0,1-.51-1c0-.53.45-1.09,1.22-1.54l24-13.86a8.15,8.15,0,0,1,7.25,0C81.33,14.24,81.76,14.79,81.76,15.32Z"/><path class="cls-7" d="M81.26,16.32a4.23,4.23,0,0,1-.71.53l-24,13.86a8.15,8.15,0,0,1-7.25,0,3.44,3.44,0,0,1-.68-.51,3.77,3.77,0,0,1,.71-.54l24-13.86a8.15,8.15,0,0,1,7.25,0A3,3,0,0,1,81.26,16.32Z"/></g><path class="cls-8" d="M81.16,8.3a1,1,0,0,1,.08-.11l-7.73,7.73a1,1,0,0,0-.17,1,3.19,3.19,0,0,0,2,2,1,1,0,0,0,1-.17l7.72-7.73h0a1,1,0,0,0,.17-1,3.21,3.21,0,0,0-2-2A1,1,0,0,0,81.16,8.3Zm2.27,3a.33.33,0,0,0,.1,0A.33.33,0,0,1,83.43,11.29Zm.51-.08.08-.06Zm-.23.07.09,0ZM81,8.88a1.25,1.25,0,0,0,0,.32A1.25,1.25,0,0,1,81,8.88Zm.09-.51a.44.44,0,0,0,0,.15A.44.44,0,0,1,81.11,8.37ZM81,8.61a1.21,1.21,0,0,0,0,.19A1.21,1.21,0,0,1,81,8.61Z"/><circle class="cls-9" cx="85.38" cy="6.93" r="6.93"/><g class="cls-1"><path class="cls-4" d="M62.91,54.31a12.36,12.36,0,0,0,11.19,0l32.58-18.81A4,4,0,0,0,109,32.24v3.11a4,4,0,0,1-2.33,3.26L74.11,57.42a12.36,12.36,0,0,1-11.19,0,3.91,3.91,0,0,1-2.29-3.22V51.09A3.89,3.89,0,0,0,62.91,54.31Z"/><path class="cls-5" d="M62.94,47.83c-3.09,1.79-3.1,4.7,0,6.48a12.36,12.36,0,0,0,11.19,0l32.58-18.81c3.09-1.79,3.1-4.71,0-6.49a12.39,12.39,0,0,0-11.19,0Z"/></g><g class="cls-1"><path class="cls-6" d="M68.67,45.83a9.12,9.12,0,0,0,8.25,0l24-13.87a2.92,2.92,0,0,0,1.71-2.4l-5.56-3.36a16.22,16.22,0,0,1,7.71,1.47c4.41,1.9,4.22,4.56,4.22,4.56a4,4,0,0,1-2.33,3.27L74.11,54.32a12.36,12.36,0,0,1-11.19,0,3.89,3.89,0,0,1-2.29-3.22,8.67,8.67,0,0,1,1.54-4.27,23.64,23.64,0,0,1,5.62-5.09L67,43.46A2.87,2.87,0,0,0,68.67,45.83Z"/><path class="cls-5" d="M68.69,41.06c-2.27,1.31-2.28,3.46,0,4.77a9.12,9.12,0,0,0,8.25,0l24-13.87c2.27-1.31,2.28-3.46,0-4.78a9.15,9.15,0,0,0-8.25,0Z"/><path class="cls-4" d="M101.65,29.58a1.5,1.5,0,0,1-.5,1,4.23,4.23,0,0,1-.71.53L76.42,45a8.15,8.15,0,0,1-7.25,0,3.44,3.44,0,0,1-.68-.51,1.45,1.45,0,0,1-.51-1c0-.53.45-1.09,1.22-1.54l24-13.86a8.15,8.15,0,0,1,7.25,0C101.22,28.5,101.65,29.05,101.65,29.58Z"/><path class="cls-7" d="M101.15,30.58a4.23,4.23,0,0,1-.71.53L76.42,45a8.15,8.15,0,0,1-7.25,0,3.44,3.44,0,0,1-.68-.51,3.77,3.77,0,0,1,.71-.54l24-13.86a8.15,8.15,0,0,1,7.25,0A3,3,0,0,1,101.15,30.58Z"/></g><path class="cls-10" d="M67.34,33.22a3.19,3.19,0,0,0-2,2,1,1,0,0,0,.17,1h0L73.2,44a1,1,0,0,0,1,.17,3.21,3.21,0,0,0,2-2.05,1,1,0,0,0-.17-1l-7.72-7.73a.36.36,0,0,1,.07.1A1,1,0,0,0,67.34,33.22Zm-1.26,3.26h0Zm-.5-.13.08,0Zm.22.1.09,0Zm2.73-2.06a1.88,1.88,0,0,0,.06-.31A1.88,1.88,0,0,1,68.53,34.39Zm0-.68a.57.57,0,0,0,0-.14A.57.57,0,0,1,68.54,33.71Zm0,.29a1.27,1.27,0,0,0,0-.2A1.27,1.27,0,0,1,68.58,34Z"/><circle class="cls-11" cx="66.52" cy="34.43" r="6.93"/>
</g></g></g></svg>