<svg xmlns="http://www.w3.org/2000/svg" xmlns:xlink="http://www.w3.org/1999/xlink" viewBox="0 0 101.64 150"><defs><style>.cls-1{fill:url(#未命名的渐变_5);}.cls-2{fill:#494d53;}.cls-3{fill:#dde4ec;}.cls-4{fill:url(#未命名的渐变_10);}.cls-5{fill:url(#未命名的渐变_10-2);}.cls-6{fill:url(#未命名的渐变_10-3);}.cls-7{fill:url(#未命名的渐变_10-4);}.cls-8{fill:none;stroke:#5f6366;stroke-miterlimit:10;stroke-width:0.25px;}.cls-9{fill:#222a34;}.cls-10{fill:#2f3134;}.cls-11{opacity:0.2;}</style><linearGradient id="未命名的渐变_5" x1="113.73" y1="12.09" x2="-12.09" y2="137.91" gradientUnits="userSpaceOnUse"><stop offset="0" stop-color="#d7dce0"/><stop offset="1" stop-color="#8a9099"/></linearGradient><linearGradient id="未命名的渐变_10" x1="89.96" y1="76.1" x2="80.18" y2="66.32" gradientTransform="matrix(1, 0, 0, -1, 0, 88.7)" gradientUnits="userSpaceOnUse"><stop offset="0" stop-color="#dce1e6"/><stop offset="1" stop-color="#8a9099"/></linearGradient><linearGradient id="未命名的渐变_10-2" x1="93.27" y1="46" x2="82.3" y2="35.03" xlink:href="#未命名的渐变_10"/><linearGradient id="未命名的渐变_10-3" x1="70.2" y1="85.81" x2="11.6" y2="27.21" xlink:href="#未命名的渐变_10"/><linearGradient id="未命名的渐变_10-4" x1="63.56" y1="37.07" x2="18.24" y2="-8.25" xlink:href="#未命名的渐变_10"/></defs><title>Gas-electric well-mount(壁挂式气电)</title><g id="图层_2" data-name="图层 2"><g id="图层_6" data-name="图层 6"><g id="Gas-electric_well-mount_壁挂式气电_" data-name="Gas-electric well-mount(壁挂式气电)"><rect class="cls-1" width="101.64" height="150"/><rect class="cls-2" x="79.63" y="12.18" width="10.88" height="10.64"/><rect class="cls-3" x="80.11" y="12.18" width="10.39" height="10.15"/><rect class="cls-4" x="80.11" y="12.67" width="9.9" height="9.66"/><rect class="cls-2" x="79.63" y="44.18" width="16.32" height="8.02"/><rect class="cls-3" x="80.22" y="44.18" width="15.72" height="7.42"/><rect class="cls-5" x="80.22" y="44.78" width="15.12" height="6.82"/><rect class="cls-2" x="5.52" y="7.34" width="70.76" height="49.72"/><rect class="cls-3" x="6.34" y="7.34" width="69.94" height="48.9"/><rect class="cls-6" x="6.34" y="8.16" width="69.12" height="48.08"/><rect class="cls-2" x="5.52" y="62.71" width="70.76" height="23.17"/><rect class="cls-3" x="6.34" y="62.71" width="69.94" height="22.35"/><rect class="cls-7" x="6.34" y="63.53" width="69.12" height="21.52"/><line class="cls-8" x1="10.05" y1="66.82" x2="15.47" y2="66.82"/><line class="cls-8" x1="10.05" y1="68.65" x2="15.47" y2="68.65"/><line class="cls-8" x1="10.05" y1="70.48" x2="15.47" y2="70.48"/><line class="cls-8" x1="10.05" y1="72.3" x2="15.47" y2="72.3"/><line class="cls-8" x1="10.05" y1="74.13" x2="15.47" y2="74.13"/><line class="cls-8" x1="10.05" y1="75.95" x2="15.47" y2="75.95"/><line class="cls-8" x1="10.05" y1="77.78" x2="15.47" y2="77.78"/><line class="cls-8" x1="10.05" y1="79.6" x2="15.47" y2="79.6"/><line class="cls-8" x1="10.05" y1="81.43" x2="15.47" y2="81.43"/><line class="cls-8" x1="21.33" y1="66.82" x2="26.76" y2="66.82"/><line class="cls-8" x1="21.33" y1="68.65" x2="26.76" y2="68.65"/><line class="cls-8" x1="21.33" y1="70.48" x2="26.76" y2="70.48"/><line class="cls-8" x1="21.33" y1="72.3" x2="26.76" y2="72.3"/><line class="cls-8" x1="21.33" y1="74.13" x2="26.76" y2="74.13"/><line class="cls-8" x1="21.33" y1="75.95" x2="26.76" y2="75.95"/><line class="cls-8" x1="21.33" y1="77.78" x2="26.76" y2="77.78"/><line class="cls-8" x1="21.33" y1="79.6" x2="26.76" y2="79.6"/><line class="cls-8" x1="21.33" y1="81.43" x2="26.76" y2="81.43"/><line class="cls-8" x1="32.62" y1="66.82" x2="38.04" y2="66.82"/><line class="cls-8" x1="32.62" y1="68.65" x2="38.04" y2="68.65"/><line class="cls-8" x1="32.62" y1="70.48" x2="38.04" y2="70.48"/><line class="cls-8" x1="32.62" y1="72.3" x2="38.04" y2="72.3"/><line class="cls-8" x1="32.62" y1="74.13" x2="38.04" y2="74.13"/><line class="cls-8" x1="32.62" y1="75.95" x2="38.04" y2="75.95"/><line class="cls-8" x1="32.62" y1="77.78" x2="38.04" y2="77.78"/><line class="cls-8" x1="32.62" y1="79.6" x2="38.04" y2="79.6"/><line class="cls-8" x1="32.62" y1="81.43" x2="38.04" y2="81.43"/><line class="cls-8" x1="43.9" y1="66.82" x2="49.33" y2="66.82"/><line class="cls-8" x1="43.9" y1="68.65" x2="49.33" y2="68.65"/><line class="cls-8" x1="43.9" y1="70.48" x2="49.33" y2="70.48"/><line class="cls-8" x1="43.9" y1="72.3" x2="49.33" y2="72.3"/><line class="cls-8" x1="43.9" y1="74.13" x2="49.33" y2="74.13"/><line class="cls-8" x1="43.9" y1="75.95" x2="49.33" y2="75.95"/><line class="cls-8" x1="43.9" y1="77.78" x2="49.33" y2="77.78"/><line class="cls-8" x1="43.9" y1="79.6" x2="49.33" y2="79.6"/><line class="cls-8" x1="43.9" y1="81.43" x2="49.33" y2="81.43"/><line class="cls-8" x1="55.19" y1="66.82" x2="60.62" y2="66.82"/><line class="cls-8" x1="55.19" y1="68.65" x2="60.62" y2="68.65"/><line class="cls-8" x1="55.19" y1="70.48" x2="60.62" y2="70.48"/><line class="cls-8" x1="55.19" y1="72.3" x2="60.62" y2="72.3"/><line class="cls-8" x1="55.19" y1="74.13" x2="60.62" y2="74.13"/><line class="cls-8" x1="55.19" y1="75.95" x2="60.62" y2="75.95"/><line class="cls-8" x1="55.19" y1="77.78" x2="60.62" y2="77.78"/><line class="cls-8" x1="55.19" y1="79.6" x2="60.62" y2="79.6"/><line class="cls-8" x1="55.19" y1="81.43" x2="60.62" y2="81.43"/><line class="cls-8" x1="66.19" y1="66.82" x2="71.62" y2="66.82"/><line class="cls-8" x1="66.19" y1="68.65" x2="71.62" y2="68.65"/><line class="cls-8" x1="66.19" y1="70.48" x2="71.62" y2="70.48"/><line class="cls-8" x1="66.19" y1="72.3" x2="71.62" y2="72.3"/><line class="cls-8" x1="66.19" y1="74.13" x2="71.62" y2="74.13"/><line class="cls-8" x1="66.19" y1="75.95" x2="71.62" y2="75.95"/><line class="cls-8" x1="66.19" y1="77.78" x2="71.62" y2="77.78"/><line class="cls-8" x1="66.19" y1="79.6" x2="71.62" y2="79.6"/><line class="cls-8" x1="66.19" y1="81.43" x2="71.62" y2="81.43"/><rect class="cls-9" x="55.19" y="13.92" width="7.61" height="3"/><rect class="cls-9" x="55.19" y="45.19" width="7.61" height="3"/><rect class="cls-10" x="4.64" y="89.67" width="79.83" height="54.43"/></g></g></g></svg>