<svg xmlns="http://www.w3.org/2000/svg" xmlns:xlink="http://www.w3.org/1999/xlink" viewBox="0 0 150 113.44"><defs><style>.cls-1{fill:url(#未命名的渐变_67);}.cls-2{fill:url(#未命名的渐变_67-2);}.cls-3{fill:url(#未命名的渐变_67-3);}.cls-4{fill:url(#未命名的渐变_67-4);}.cls-5{fill:url(#未命名的渐变_67-5);}.cls-6{fill:url(#未命名的渐变_67-6);}.cls-7{fill:url(#未命名的渐变_67-7);}.cls-8{fill:#a3a4a4;}.cls-9{fill:url(#未命名的渐变_67-8);}.cls-10{fill:url(#未命名的渐变_105);}.cls-11{fill:#717070;}.cls-12{fill:url(#未命名的渐变_67-9);}.cls-13{fill:url(#未命名的渐变_105-2);}.cls-14{opacity:0.2;}</style><linearGradient id="未命名的渐变_67" x1="423.13" y1="219.37" x2="423.13" y2="160.58" gradientTransform="matrix(0.19, -0.85, 1.32, 0.29, -290.93, 315.91)" gradientUnits="userSpaceOnUse"><stop offset="0" stop-color="#6b6b6b"/><stop offset="0.11" stop-color="#767676"/><stop offset="0.3" stop-color="#959595"/><stop offset="0.41" stop-color="#aaa"/><stop offset="0.56" stop-color="#ccc"/><stop offset="0.71" stop-color="#eaeaea"/><stop offset="0.8" stop-color="#f6f6f6"/><stop offset="0.83" stop-color="#ededed"/><stop offset="0.87" stop-color="#d4d4d4"/><stop offset="0.92" stop-color="#ababab"/><stop offset="0.98" stop-color="#737373"/><stop offset="0.99" stop-color="#666"/></linearGradient><linearGradient id="未命名的渐变_67-2" x1="449.8" y1="299.56" x2="449.8" y2="240.77" gradientTransform="matrix(-0.19, -0.85, -1.32, 0.29, 552.02, 315.91)" xlink:href="#未命名的渐变_67"/><linearGradient id="未命名的渐变_67-3" x1="69.72" y1="63.91" x2="73.1" y2="63.91" gradientTransform="matrix(0.56, -0.04, 0.08, 1, 39.37, 7.24)" xlink:href="#未命名的渐变_67"/><linearGradient id="未命名的渐变_67-4" x1="313.58" y1="74.77" x2="316.95" y2="74.77" gradientTransform="matrix(-0.56, -0.04, -0.08, 1, 247.62, 7.24)" xlink:href="#未命名的渐变_67"/><linearGradient id="未命名的渐变_67-5" x1="371.93" y1="93.21" x2="375.31" y2="93.21" gradientTransform="matrix(-0.55, -0.11, -0.19, 1.01, 278.82, 12.25)" xlink:href="#未命名的渐变_67"/><linearGradient id="未命名的渐变_67-6" x1="160.8" y1="71.04" x2="164.18" y2="71.04" gradientTransform="matrix(0.55, -0.11, 0.19, 1.01, -8.29, 12.25)" xlink:href="#未命名的渐变_67"/><linearGradient id="未命名的渐变_67-7" x1="73.67" y1="73.33" x2="76.23" y2="73.33" gradientTransform="matrix(1, 0, 0, 1, 0, 0)" xlink:href="#未命名的渐变_67"/><linearGradient id="未命名的渐变_67-8" x1="60.29" y1="21.31" x2="72.89" y2="21.31" gradientTransform="matrix(1, 0, 0, 1, 0, 0)" xlink:href="#未命名的渐变_67"/><linearGradient id="未命名的渐变_105" x1="61.14" y1="21.31" x2="72.04" y2="21.31" gradientUnits="userSpaceOnUse"><stop offset="0" stop-color="#e2e2e2"/><stop offset="0.03" stop-color="#d0d0d0"/><stop offset="0.06" stop-color="#bcbcbc"/><stop offset="0.09" stop-color="#b5b5b5"/><stop offset="0.49" stop-color="#f6f6f6"/><stop offset="0.63" stop-color="#f3f3f3"/><stop offset="0.73" stop-color="#eaeaea"/><stop offset="0.82" stop-color="#dbdbdb"/><stop offset="0.9" stop-color="#c6c6c6"/><stop offset="0.97" stop-color="#aaa"/><stop offset="1" stop-color="#9b9b9b"/></linearGradient><linearGradient id="未命名的渐变_67-9" x1="75.95" y1="21.31" x2="88.56" y2="21.31" gradientTransform="matrix(1, 0, 0, 1, 0, 0)" xlink:href="#未命名的渐变_67"/><linearGradient id="未命名的渐变_105-2" x1="76.81" y1="21.31" x2="87.7" y2="21.31" xlink:href="#未命名的渐变_105"/></defs><title>Giant skeeter（大型冰上滑行船）</title><g id="图层_2" data-name="图层 2"><g id="图层_125" data-name="图层 125"><g id="Giant_skeeter_大型冰上滑行船_" data-name="Giant skeeter（大型冰上滑行船）"><path class="cls-1" d="M77.83,21.52h0c-.41,1.88-3,3-6,2.5L24.29,16.47C18.4,15.18-1.66,12.11.11,4h0C1.74-3.44,21.39,1.53,27.28,2.81l46.33,14C76.42,17.64,78.24,19.67,77.83,21.52Z"/><path class="cls-2" d="M72.17,22.17h0c.41,1.89,3,3,6,2.5l47.55-7.55c5.89-1.29,26-4.36,24.18-12.45h0c-1.63-7.45-21.28-2.49-27.17-1.2l-46.33,14C73.58,18.3,71.76,20.32,72.17,22.17Z"/><polygon class="cls-3" points="88.06 102.26 86.47 102.23 80.69 33.32 82.58 33.17 88.06 102.26"/><polygon class="cls-4" points="61.66 102.26 63.24 102.23 69.03 33.32 67.14 33.17 61.66 102.26"/><polygon class="cls-5" points="48.15 101.71 49.72 101.84 62.86 31.97 61 31.61 48.15 101.71"/><polygon class="cls-6" points="101.84 101.71 100.27 101.84 87.13 31.97 88.99 31.61 101.84 101.71"/><polygon class="cls-7" points="74.95 113.44 73.67 33.21 76.23 33.21 74.95 113.44"/><rect class="cls-8" x="56.66" y="11" width="36.5" height="22.22" rx="0.76"/><circle class="cls-9" cx="66.59" cy="21.31" r="6.3"/><circle class="cls-10" cx="66.59" cy="21.31" r="5.45"/><circle class="cls-11" cx="66.59" cy="21.31" r="3.47"/><circle class="cls-12" cx="82.26" cy="21.31" r="6.3"/><circle class="cls-13" cx="82.26" cy="21.31" r="5.45"/><circle class="cls-11" cx="82.26" cy="21.31" r="3.47"/></g></g></g></svg>