<svg xmlns="http://www.w3.org/2000/svg" xmlns:xlink="http://www.w3.org/1999/xlink" viewBox="0 0 115.87 150"><defs><style>.cls-1{fill:#a3a4a4;}.cls-2{fill:url(#未命名的渐变_67);}.cls-3{fill:#dbdbdb;}.cls-4{fill:url(#未命名的渐变_67-2);}.cls-5{fill:#f6f6f6;}.cls-6{fill:url(#未命名的渐变_67-3);}.cls-7{fill:#504e4e;}.cls-8{fill:url(#未命名的渐变_105);}.cls-9{fill:url(#未命名的渐变_67-4);}.cls-10{fill:url(#未命名的渐变_67-5);}.cls-11{fill:url(#未命名的渐变_67-6);}.cls-12{fill:url(#未命名的渐变_67-7);}.cls-13{fill:url(#未命名的渐变_67-8);}.cls-14{fill:url(#未命名的渐变_67-9);}.cls-15{fill:url(#未命名的渐变_67-10);}.cls-16{fill:url(#未命名的渐变_67-11);}.cls-17{fill:url(#未命名的渐变_67-12);}.cls-18{fill:url(#未命名的渐变_67-13);}.cls-19{fill:#cdcece;}.cls-20{fill:#ac454b;}.cls-21{fill:#f4b5bb;}.cls-22{fill:#2d2929;}.cls-23{fill:#2d7032;}.cls-24{fill:#c3d47b;}.cls-25{fill:url(#未命名的渐变_67-14);}.cls-26{fill:url(#未命名的渐变_67-15);}.cls-27{fill:url(#未命名的渐变_67-16);}.cls-28{fill:url(#未命名的渐变_105-2);}.cls-29{fill:url(#未命名的渐变_67-17);}.cls-30{opacity:0.2;}</style><linearGradient id="未命名的渐变_67" x1="19.12" y1="73.79" x2="19.12" y2="68.7" gradientUnits="userSpaceOnUse"><stop offset="0" stop-color="#6b6b6b"/><stop offset="0.11" stop-color="#767676"/><stop offset="0.3" stop-color="#959595"/><stop offset="0.41" stop-color="#aaa"/><stop offset="0.56" stop-color="#ccc"/><stop offset="0.71" stop-color="#eaeaea"/><stop offset="0.8" stop-color="#f6f6f6"/><stop offset="0.83" stop-color="#ededed"/><stop offset="0.87" stop-color="#d4d4d4"/><stop offset="0.92" stop-color="#ababab"/><stop offset="0.98" stop-color="#737373"/><stop offset="0.99" stop-color="#666"/></linearGradient><linearGradient id="未命名的渐变_67-2" x1="172.4" y1="34.09" x2="175.74" y2="30.75" gradientTransform="matrix(-1, 0, 0, 1, 272.74, 62.33)" xlink:href="#未命名的渐变_67"/><linearGradient id="未命名的渐变_67-3" x1="51.41" y1="20.53" x2="74.26" y2="20.53" xlink:href="#未命名的渐变_67"/><linearGradient id="未命名的渐变_105" x1="47.89" y1="1.39" x2="77.09" y2="1.39" gradientUnits="userSpaceOnUse"><stop offset="0" stop-color="#e2e2e2"/><stop offset="0.03" stop-color="#d0d0d0"/><stop offset="0.06" stop-color="#bcbcbc"/><stop offset="0.09" stop-color="#b5b5b5"/><stop offset="0.49" stop-color="#f6f6f6"/><stop offset="0.63" stop-color="#f3f3f3"/><stop offset="0.73" stop-color="#eaeaea"/><stop offset="0.82" stop-color="#dbdbdb"/><stop offset="0.9" stop-color="#c6c6c6"/><stop offset="0.97" stop-color="#aaa"/><stop offset="1" stop-color="#9b9b9b"/></linearGradient><linearGradient id="未命名的渐变_67-4" x1="23.8" y1="70.9" x2="30.47" y2="70.9" xlink:href="#未命名的渐变_67"/><linearGradient id="未命名的渐变_67-5" x1="35.96" y1="72.32" x2="35.96" y2="69.12" xlink:href="#未命名的渐变_67"/><linearGradient id="未命名的渐变_67-6" x1="87.74" y1="98.13" x2="87.74" y2="94.63" xlink:href="#未命名的渐变_67"/><linearGradient id="未命名的渐变_67-7" x1="11.18" y1="506.73" x2="11.18" y2="503.23" gradientTransform="translate(88.84 -423.42)" xlink:href="#未命名的渐变_67"/><linearGradient id="未命名的渐变_67-8" x1="66.12" y1="62.1" x2="69.32" y2="62.1" xlink:href="#未命名的渐变_67"/><linearGradient id="未命名的渐变_67-9" x1="66.12" y1="80.32" x2="69.32" y2="80.32" xlink:href="#未命名的渐变_67"/><linearGradient id="未命名的渐变_67-10" x1="79.52" y1="102.78" x2="79.52" y2="89.94" xlink:href="#未命名的渐变_67"/><linearGradient id="未命名的渐变_67-11" x1="25.59" y1="136.69" x2="25.59" y2="131.42" xlink:href="#未命名的渐变_67"/><linearGradient id="未命名的渐变_67-12" x1="83.28" y1="128.51" x2="83.28" y2="117.86" xlink:href="#未命名的渐变_67"/><linearGradient id="未命名的渐变_67-13" x1="30.91" y1="134.1" x2="37.65" y2="134.1" xlink:href="#未命名的渐变_67"/><linearGradient id="未命名的渐变_67-14" x1="43.65" y1="135.61" x2="43.65" y2="132.54" xlink:href="#未命名的渐变_67"/><linearGradient id="未命名的渐变_67-15" x1="53.07" y1="129.2" x2="54.9" y2="129.2" xlink:href="#未命名的渐变_67"/><linearGradient id="未命名的渐变_67-16" x1="53.07" y1="138.98" x2="54.9" y2="138.98" xlink:href="#未命名的渐变_67"/><linearGradient id="未命名的渐变_105-2" x1="51.41" y1="3.64" x2="74.26" y2="3.64" xlink:href="#未命名的渐变_105"/><linearGradient id="未命名的渐变_67-17" x1="83.8" y1="132.93" x2="83.8" y2="113.33" xlink:href="#未命名的渐变_67"/></defs><title>Gravity belt thickener（重力皮带浓缩机）</title><g id="图层_2" data-name="图层 2"><g id="图层_125" data-name="图层 125"><g id="Gravity_belt_thickener_重力皮带浓缩机_" data-name="Gravity belt thickener（重力皮带浓缩机）"><rect class="cls-1" x="1.81" y="41.53" width="76.8" height="108.47"/><rect class="cls-2" x="8.82" y="68.7" width="20.61" height="5.09" rx="0.4"/><rect class="cls-3" x="14.14" y="54.29" width="51.98" height="33.69"/><path class="cls-4" d="M97.62,93.54a4.32,4.32,0,0,0,.58-1.66h3.38s0,3-1.08,4.35-4.23,1.9-4.23,1.9V94.57A6.71,6.71,0,0,0,97.62,93.54Z"/><rect class="cls-5" x="14.14" y="55.74" width="51.98" height="31.01"/><rect class="cls-6" x="51.41" y="4.5" width="22.86" height="32.05"/><rect class="cls-7" x="1.81" y="39.82" width="76.8" height="1.71"/><rect class="cls-8" x="47.89" width="29.2" height="2.79" rx="0.4"/><rect class="cls-1" y="36.14" width="80.18" height="3.68"/><circle class="cls-9" cx="27.14" cy="70.9" r="3.33"/><circle class="cls-5" cx="27.14" cy="70.9" r="2.29"/><rect class="cls-10" x="25.66" y="69.12" width="20.61" height="3.2" rx="0.4"/><rect class="cls-11" x="79.21" y="94.63" width="17.06" height="3.5"/><rect class="cls-12" x="89.7" y="79.81" width="20.64" height="3.5" transform="translate(181.58 -18.46) rotate(90)"/><rect class="cls-13" x="66.12" y="58.53" width="3.2" height="7.14"/><rect class="cls-14" x="66.12" y="76.75" width="3.2" height="7.14"/><rect class="cls-3" x="87.74" y="113.86" width="6.64" height="28.71"/><polygon class="cls-3" points="109.01 142.56 94.38 142.56 94.38 113.86 102.82 113.86 109.01 121.44 109.01 142.56"/><rect class="cls-15" x="78.61" y="89.94" width="1.82" height="12.84" rx="0.26"/><rect class="cls-16" x="22.14" y="131.42" width="6.89" height="5.27" rx="0.67"/><rect class="cls-17" x="78.61" y="117.86" width="9.33" height="10.64"/><rect class="cls-3" x="27.36" y="124.36" width="25.71" height="19.35"/><circle class="cls-18" cx="34.28" cy="134.1" r="3.37"/><rect class="cls-1" x="83.66" y="54.62" width="32.21" height="16.62"/><rect class="cls-3" x="84.89" y="56.02" width="29.48" height="13.61"/><rect class="cls-5" x="85.34" y="56.44" width="28.6" height="12.8"/><rect class="cls-19" x="89.31" y="58.44" width="4.66" height="2.98" rx="0.12"/><circle class="cls-5" cx="34.28" cy="134.1" r="2.38"/><circle class="cls-20" cx="90.72" cy="66.5" r="2.06"/><circle class="cls-21" cx="90.72" cy="66.5" r="1.7"/><circle class="cls-20" cx="102.73" cy="66.5" r="2.06"/><circle class="cls-21" cx="102.73" cy="66.5" r="1.7"/><circle class="cls-21" cx="99.72" cy="59.94" r="1.49"/><circle class="cls-22" cx="99.72" cy="59.94" r="0.69"/><circle class="cls-23" cx="108.53" cy="66.5" r="2.06"/><circle class="cls-24" cx="108.53" cy="66.5" r="1.7"/><circle class="cls-23" cx="96.54" cy="66.36" r="2.06"/><circle class="cls-24" cx="96.54" cy="66.36" r="1.7"/><rect class="cls-25" x="33.98" y="132.54" width="19.34" height="3.07" rx="0.44"/><rect class="cls-26" x="53.07" y="126.17" width="1.84" height="6.06"/><rect class="cls-27" x="53.07" y="135.93" width="1.84" height="6.12"/><rect class="cls-28" x="51.41" y="2.79" width="22.86" height="1.71"/><rect class="cls-29" x="82.89" y="113.33" width="1.82" height="19.6" rx="0.26"/><rect class="cls-5" x="89.8" y="58.92" width="3.68" height="2.01"/><rect class="cls-19" x="105.34" y="58.44" width="4.66" height="2.98" rx="0.12"/><rect class="cls-5" x="105.83" y="58.92" width="3.68" height="2.01"/></g></g></g></svg>