<svg xmlns="http://www.w3.org/2000/svg" viewBox="0 0 110.39 149.95"><defs><style>.cls-1{fill:#cbcbcb;}.cls-2{opacity:0.2;}</style></defs><title>Grille（格栅）</title><g id="图层_2" data-name="图层 2"><g id="图层_125" data-name="图层 125"><g id="Grille_格栅_" data-name="Grille（格栅）"><path class="cls-1" d="M0,0V150H110.39V0ZM100.83,146.33H9.05V3.62h91.78Z"/><rect class="cls-1" x="4.18" y="12.73" width="100.31" height="3.55"/><rect class="cls-1" x="4.18" y="24.95" width="100.31" height="3.55"/><rect class="cls-1" x="4.18" y="37.16" width="100.31" height="3.55"/><rect class="cls-1" x="4.18" y="49.38" width="100.31" height="3.55"/><rect class="cls-1" x="4.18" y="61.59" width="100.31" height="3.55"/><rect class="cls-1" x="4.18" y="73.81" width="100.31" height="3.55"/><rect class="cls-1" x="4.18" y="86.03" width="100.31" height="3.55"/><rect class="cls-1" x="4.18" y="98.24" width="100.31" height="3.55"/><rect class="cls-1" x="4.18" y="110.46" width="100.31" height="3.55"/><rect class="cls-1" x="4.18" y="122.67" width="100.31" height="3.55"/><rect class="cls-1" x="4.18" y="134.89" width="100.31" height="3.55"/><rect class="cls-1" x="16.8" y="2.84" width="4.14" height="144.43"/><rect class="cls-1" x="28.93" y="2.84" width="4.14" height="144.43"/><rect class="cls-1" x="41.06" y="2.84" width="4.14" height="144.43"/><rect class="cls-1" x="53.19" y="2.84" width="4.14" height="144.43"/><rect class="cls-1" x="65.32" y="2.84" width="4.14" height="144.43"/><rect class="cls-1" x="77.45" y="2.84" width="4.14" height="144.43"/><rect class="cls-1" x="89.58" y="2.84" width="4.14" height="144.43"/></g></g></g></svg>