<svg xmlns="http://www.w3.org/2000/svg" xmlns:xlink="http://www.w3.org/1999/xlink" viewBox="0 0 150 88.74"><defs><style>.cls-1,.cls-10{fill:none;}.cls-2{isolation:isolate;}.cls-3{fill:url(#未命名的渐变_205);}.cls-4{fill:#494d53;}.cls-5{fill:#eaf1fa;}.cls-6{fill:#d49023;}.cls-7{mix-blend-mode:multiply;}.cls-8{clip-path:url(#clip-path);}.cls-9{clip-path:url(#clip-path-2);}.cls-10{stroke:#c7ccd0;stroke-width:0.13px;}.cls-10,.cls-52,.cls-53,.cls-54,.cls-55,.cls-56,.cls-57,.cls-58,.cls-59,.cls-60,.cls-61,.cls-62,.cls-63,.cls-64,.cls-65,.cls-66,.cls-67,.cls-68,.cls-69,.cls-70,.cls-71,.cls-72,.cls-73,.cls-74,.cls-75,.cls-76,.cls-77,.cls-78,.cls-79,.cls-80,.cls-81,.cls-82,.cls-83,.cls-84,.cls-85,.cls-86,.cls-87,.cls-88,.cls-89,.cls-90,.cls-91{stroke-miterlimit:10;}.cls-11{clip-path:url(#clip-path-3);}.cls-12{clip-path:url(#clip-path-4);}.cls-13{clip-path:url(#clip-path-5);}.cls-14{clip-path:url(#clip-path-6);}.cls-15{clip-path:url(#clip-path-7);}.cls-16{clip-path:url(#clip-path-8);}.cls-17{clip-path:url(#clip-path-9);}.cls-18{clip-path:url(#clip-path-10);}.cls-19{clip-path:url(#clip-path-11);}.cls-20{clip-path:url(#clip-path-12);}.cls-21{clip-path:url(#clip-path-13);}.cls-22{clip-path:url(#clip-path-14);}.cls-23{clip-path:url(#clip-path-15);}.cls-24{clip-path:url(#clip-path-16);}.cls-25{clip-path:url(#clip-path-17);}.cls-26{clip-path:url(#clip-path-18);}.cls-27{clip-path:url(#clip-path-19);}.cls-28{clip-path:url(#clip-path-20);}.cls-29{clip-path:url(#clip-path-21);}.cls-30{clip-path:url(#clip-path-22);}.cls-31{clip-path:url(#clip-path-23);}.cls-32{clip-path:url(#clip-path-24);}.cls-33{clip-path:url(#clip-path-25);}.cls-34{clip-path:url(#clip-path-26);}.cls-35{clip-path:url(#clip-path-27);}.cls-36{clip-path:url(#clip-path-28);}.cls-37{clip-path:url(#clip-path-29);}.cls-38{clip-path:url(#clip-path-30);}.cls-39{clip-path:url(#clip-path-31);}.cls-40{clip-path:url(#clip-path-32);}.cls-41{clip-path:url(#clip-path-33);}.cls-42{clip-path:url(#clip-path-34);}.cls-43{clip-path:url(#clip-path-35);}.cls-44{clip-path:url(#clip-path-36);}.cls-45{clip-path:url(#clip-path-37);}.cls-46{clip-path:url(#clip-path-38);}.cls-47{clip-path:url(#clip-path-39);}.cls-48{clip-path:url(#clip-path-40);}.cls-49{clip-path:url(#clip-path-41);}.cls-50{clip-path:url(#clip-path-42);}.cls-51{clip-path:url(#clip-path-43);}.cls-52,.cls-53,.cls-54,.cls-55,.cls-56,.cls-57,.cls-58,.cls-59,.cls-60,.cls-61,.cls-62,.cls-63,.cls-64,.cls-65,.cls-66,.cls-67,.cls-68,.cls-69,.cls-70,.cls-71,.cls-72,.cls-73,.cls-74,.cls-75,.cls-76,.cls-77,.cls-78,.cls-79,.cls-80,.cls-81,.cls-82,.cls-83,.cls-84,.cls-85,.cls-86,.cls-87,.cls-88,.cls-89,.cls-90,.cls-91{fill:#252628;stroke-width:0.25px;}.cls-52{stroke:url(#未命名的渐变_39);}.cls-53{stroke:url(#未命名的渐变_39-2);}.cls-54{stroke:url(#未命名的渐变_39-3);}.cls-55{stroke:url(#未命名的渐变_39-4);}.cls-56{stroke:url(#未命名的渐变_39-5);}.cls-57{stroke:url(#未命名的渐变_39-6);}.cls-58{stroke:url(#未命名的渐变_39-7);}.cls-59{stroke:url(#未命名的渐变_39-8);}.cls-60{stroke:url(#未命名的渐变_39-9);}.cls-61{stroke:url(#未命名的渐变_39-10);}.cls-62{stroke:url(#未命名的渐变_39-11);}.cls-63{stroke:url(#未命名的渐变_39-12);}.cls-64{stroke:url(#未命名的渐变_39-13);}.cls-65{stroke:url(#未命名的渐变_39-14);}.cls-66{stroke:url(#未命名的渐变_39-15);}.cls-67{stroke:url(#未命名的渐变_39-16);}.cls-68{stroke:url(#未命名的渐变_39-17);}.cls-69{stroke:url(#未命名的渐变_39-18);}.cls-70{stroke:url(#未命名的渐变_39-19);}.cls-71{stroke:url(#未命名的渐变_39-20);}.cls-72{stroke:url(#未命名的渐变_39-21);}.cls-73{stroke:url(#未命名的渐变_39-22);}.cls-74{stroke:url(#未命名的渐变_39-23);}.cls-75{stroke:url(#未命名的渐变_39-24);}.cls-76{stroke:url(#未命名的渐变_39-25);}.cls-77{stroke:url(#未命名的渐变_39-26);}.cls-78{stroke:url(#未命名的渐变_39-27);}.cls-79{stroke:url(#未命名的渐变_39-28);}.cls-80{stroke:url(#未命名的渐变_39-29);}.cls-81{stroke:url(#未命名的渐变_39-30);}.cls-82{stroke:url(#未命名的渐变_39-31);}.cls-83{stroke:url(#未命名的渐变_39-32);}.cls-84{stroke:url(#未命名的渐变_39-33);}.cls-85{stroke:url(#未命名的渐变_39-34);}.cls-86{stroke:url(#未命名的渐变_39-35);}.cls-87{stroke:url(#未命名的渐变_39-36);}.cls-88{stroke:url(#未命名的渐变_39-37);}.cls-89{stroke:url(#未命名的渐变_39-38);}.cls-90{stroke:url(#未命名的渐变_39-39);}.cls-91{stroke:url(#未命名的渐变_39-40);}.cls-92{fill:#868d99;}.cls-93{clip-path:url(#clip-path-44);}.cls-94{clip-path:url(#clip-path-45);}.cls-95{clip-path:url(#clip-path-46);}.cls-96{clip-path:url(#clip-path-47);}.cls-97{clip-path:url(#clip-path-48);}.cls-98{clip-path:url(#clip-path-49);}.cls-99{clip-path:url(#clip-path-50);}.cls-100{clip-path:url(#clip-path-51);}.cls-101{clip-path:url(#clip-path-52);}.cls-102{clip-path:url(#clip-path-53);}.cls-103{clip-path:url(#clip-path-54);}.cls-104{clip-path:url(#clip-path-55);}.cls-105{clip-path:url(#clip-path-56);}.cls-106{clip-path:url(#clip-path-57);}.cls-107{clip-path:url(#clip-path-58);}.cls-108{clip-path:url(#clip-path-59);}.cls-109{clip-path:url(#clip-path-60);}.cls-110{clip-path:url(#clip-path-61);}.cls-111{clip-path:url(#clip-path-62);}.cls-112{clip-path:url(#clip-path-63);}.cls-113{clip-path:url(#clip-path-64);}.cls-114{clip-path:url(#clip-path-65);}.cls-115{clip-path:url(#clip-path-66);}.cls-116{clip-path:url(#clip-path-67);}.cls-117{clip-path:url(#clip-path-68);}.cls-118{clip-path:url(#clip-path-69);}.cls-119{clip-path:url(#clip-path-70);}.cls-120{clip-path:url(#clip-path-71);}.cls-121{clip-path:url(#clip-path-72);}.cls-122{clip-path:url(#clip-path-73);}.cls-123{clip-path:url(#clip-path-74);}.cls-124{clip-path:url(#clip-path-75);}.cls-125{clip-path:url(#clip-path-76);}.cls-126{clip-path:url(#clip-path-77);}.cls-127{clip-path:url(#clip-path-78);}.cls-128{clip-path:url(#clip-path-79);}.cls-129{clip-path:url(#clip-path-80);}.cls-130{clip-path:url(#clip-path-81);}.cls-131{clip-path:url(#clip-path-82);}.cls-132{clip-path:url(#clip-path-83);}.cls-133{clip-path:url(#clip-path-84);}.cls-134{clip-path:url(#clip-path-85);}.cls-135{clip-path:url(#clip-path-86);}.cls-136{opacity:0.2;}</style><linearGradient id="未命名的渐变_205" y1="44.37" x2="150" y2="44.37" gradientUnits="userSpaceOnUse"><stop offset="0" stop-color="#767b82"/><stop offset="0.02" stop-color="#9ba1ab"/><stop offset="0.98" stop-color="#9ba1ab"/><stop offset="0.99" stop-color="#d7dce0"/><stop offset="1" stop-color="#767b82"/></linearGradient><clipPath id="clip-path"><rect class="cls-1" x="-0.88" y="19.92" width="69.85" height="48.85" transform="translate(78.39 10.3) rotate(90)"/></clipPath><clipPath id="clip-path-2"><rect class="cls-1" x="53.38" y="4.37" width="9.26" height="11.61"/></clipPath><clipPath id="clip-path-3"><rect class="cls-1" x="53.38" y="15.98" width="9.26" height="11.61"/></clipPath><clipPath id="clip-path-4"><rect class="cls-1" x="53.38" y="27.6" width="9.26" height="11.61"/></clipPath><clipPath id="clip-path-5"><rect class="cls-1" x="53.38" y="39.21" width="9.26" height="11.61"/></clipPath><clipPath id="clip-path-6"><rect class="cls-1" x="53.38" y="50.82" width="9.26" height="11.61"/></clipPath><clipPath id="clip-path-7"><rect class="cls-1" x="53.38" y="62.44" width="9.26" height="11.61"/></clipPath><clipPath id="clip-path-8"><rect class="cls-1" x="53.38" y="74.05" width="9.26" height="11.61"/></clipPath><clipPath id="clip-path-9"><rect class="cls-1" x="44.12" y="4.37" width="9.26" height="11.61"/></clipPath><clipPath id="clip-path-10"><rect class="cls-1" x="44.12" y="15.98" width="9.26" height="11.61"/></clipPath><clipPath id="clip-path-11"><rect class="cls-1" x="44.12" y="27.6" width="9.26" height="11.61"/></clipPath><clipPath id="clip-path-12"><rect class="cls-1" x="44.12" y="39.21" width="9.26" height="11.61"/></clipPath><clipPath id="clip-path-13"><rect class="cls-1" x="44.12" y="50.82" width="9.26" height="11.61"/></clipPath><clipPath id="clip-path-14"><rect class="cls-1" x="44.12" y="62.44" width="9.26" height="11.61"/></clipPath><clipPath id="clip-path-15"><rect class="cls-1" x="44.12" y="74.05" width="9.26" height="11.61"/></clipPath><clipPath id="clip-path-16"><rect class="cls-1" x="34.87" y="4.37" width="9.26" height="11.61"/></clipPath><clipPath id="clip-path-17"><rect class="cls-1" x="34.87" y="15.98" width="9.26" height="11.61"/></clipPath><clipPath id="clip-path-18"><rect class="cls-1" x="34.87" y="27.6" width="9.26" height="11.61"/></clipPath><clipPath id="clip-path-19"><rect class="cls-1" x="34.87" y="39.21" width="9.26" height="11.61"/></clipPath><clipPath id="clip-path-20"><rect class="cls-1" x="34.87" y="50.82" width="9.26" height="11.61"/></clipPath><clipPath id="clip-path-21"><rect class="cls-1" x="34.87" y="62.44" width="9.26" height="11.61"/></clipPath><clipPath id="clip-path-22"><rect class="cls-1" x="34.87" y="74.05" width="9.26" height="11.61"/></clipPath><clipPath id="clip-path-23"><rect class="cls-1" x="25.61" y="4.37" width="9.26" height="11.61"/></clipPath><clipPath id="clip-path-24"><rect class="cls-1" x="25.61" y="15.98" width="9.26" height="11.61"/></clipPath><clipPath id="clip-path-25"><rect class="cls-1" x="25.61" y="27.6" width="9.26" height="11.61"/></clipPath><clipPath id="clip-path-26"><rect class="cls-1" x="25.61" y="39.21" width="9.26" height="11.61"/></clipPath><clipPath id="clip-path-27"><rect class="cls-1" x="25.61" y="50.82" width="9.26" height="11.61"/></clipPath><clipPath id="clip-path-28"><rect class="cls-1" x="25.61" y="62.44" width="9.26" height="11.61"/></clipPath><clipPath id="clip-path-29"><rect class="cls-1" x="25.61" y="74.05" width="9.26" height="11.61"/></clipPath><clipPath id="clip-path-30"><rect class="cls-1" x="16.36" y="4.37" width="9.26" height="11.61"/></clipPath><clipPath id="clip-path-31"><rect class="cls-1" x="16.36" y="15.98" width="9.26" height="11.61"/></clipPath><clipPath id="clip-path-32"><rect class="cls-1" x="16.36" y="27.6" width="9.26" height="11.61"/></clipPath><clipPath id="clip-path-33"><rect class="cls-1" x="16.36" y="39.21" width="9.26" height="11.61"/></clipPath><clipPath id="clip-path-34"><rect class="cls-1" x="16.36" y="50.82" width="9.26" height="11.61"/></clipPath><clipPath id="clip-path-35"><rect class="cls-1" x="16.36" y="62.44" width="9.26" height="11.61"/></clipPath><clipPath id="clip-path-36"><rect class="cls-1" x="16.36" y="74.05" width="9.26" height="11.61"/></clipPath><clipPath id="clip-path-37"><rect class="cls-1" x="7.1" y="4.37" width="9.26" height="11.61"/></clipPath><clipPath id="clip-path-38"><rect class="cls-1" x="7.1" y="15.98" width="9.26" height="11.61"/></clipPath><clipPath id="clip-path-39"><rect class="cls-1" x="7.1" y="27.6" width="9.26" height="11.61"/></clipPath><clipPath id="clip-path-40"><rect class="cls-1" x="7.1" y="39.21" width="9.26" height="11.61"/></clipPath><clipPath id="clip-path-41"><rect class="cls-1" x="7.1" y="50.82" width="9.26" height="11.61"/></clipPath><clipPath id="clip-path-42"><rect class="cls-1" x="7.1" y="62.44" width="9.26" height="11.61"/></clipPath><clipPath id="clip-path-43"><rect class="cls-1" x="7.1" y="74.05" width="9.26" height="11.61"/></clipPath><linearGradient id="未命名的渐变_39" x1="3.66" y1="4.27" x2="3.66" y2="2.14" gradientUnits="userSpaceOnUse"><stop offset="0" stop-color="#dce1e6"/><stop offset="1" stop-color="#5c6066"/></linearGradient><linearGradient id="未命名的渐变_39-2" x1="19.52" y1="4.27" x2="19.52" y2="2.14" xlink:href="#未命名的渐变_39"/><linearGradient id="未命名的渐变_39-3" x1="35.38" y1="4.27" x2="35.38" y2="2.14" xlink:href="#未命名的渐变_39"/><linearGradient id="未命名的渐变_39-4" x1="51.24" y1="4.27" x2="51.24" y2="2.14" xlink:href="#未命名的渐变_39"/><linearGradient id="未命名的渐变_39-5" x1="67.1" y1="4.27" x2="67.1" y2="2.14" xlink:href="#未命名的渐变_39"/><linearGradient id="未命名的渐变_39-6" x1="82.95" y1="4.27" x2="82.95" y2="2.14" xlink:href="#未命名的渐变_39"/><linearGradient id="未命名的渐变_39-7" x1="98.81" y1="4.27" x2="98.81" y2="2.14" xlink:href="#未命名的渐变_39"/><linearGradient id="未命名的渐变_39-8" x1="114.67" y1="4.27" x2="114.67" y2="2.14" xlink:href="#未命名的渐变_39"/><linearGradient id="未命名的渐变_39-9" x1="130.53" y1="4.27" x2="130.53" y2="2.14" xlink:href="#未命名的渐变_39"/><linearGradient id="未命名的渐变_39-10" x1="146.39" y1="4.27" x2="146.39" y2="2.14" xlink:href="#未命名的渐变_39"/><linearGradient id="未命名的渐变_39-11" x1="67.1" y1="16.56" x2="67.1" y2="14.44" xlink:href="#未命名的渐变_39"/><linearGradient id="未命名的渐变_39-12" x1="67.1" y1="30.7" x2="67.1" y2="28.57" xlink:href="#未命名的渐变_39"/><linearGradient id="未命名的渐变_39-13" x1="67.1" y1="44.83" x2="67.1" y2="42.71" xlink:href="#未命名的渐变_39"/><linearGradient id="未命名的渐变_39-14" x1="67.1" y1="58.97" x2="67.1" y2="56.84" xlink:href="#未命名的渐变_39"/><linearGradient id="未命名的渐变_39-15" x1="67.1" y1="73.1" x2="67.1" y2="70.98" xlink:href="#未命名的渐变_39"/><linearGradient id="未命名的渐变_39-16" x1="3.66" y1="16.56" x2="3.66" y2="14.44" xlink:href="#未命名的渐变_39"/><linearGradient id="未命名的渐变_39-17" x1="3.66" y1="30.7" x2="3.66" y2="28.57" xlink:href="#未命名的渐变_39"/><linearGradient id="未命名的渐变_39-18" x1="3.66" y1="44.83" x2="3.66" y2="42.71" xlink:href="#未命名的渐变_39"/><linearGradient id="未命名的渐变_39-19" x1="3.66" y1="58.97" x2="3.66" y2="56.84" xlink:href="#未命名的渐变_39"/><linearGradient id="未命名的渐变_39-20" x1="3.66" y1="73.1" x2="3.66" y2="70.98" xlink:href="#未命名的渐变_39"/><linearGradient id="未命名的渐变_39-21" x1="82.95" y1="16.56" x2="82.95" y2="14.44" xlink:href="#未命名的渐变_39"/><linearGradient id="未命名的渐变_39-22" x1="82.95" y1="30.7" x2="82.95" y2="28.57" xlink:href="#未命名的渐变_39"/><linearGradient id="未命名的渐变_39-23" x1="82.95" y1="44.83" x2="82.95" y2="42.71" xlink:href="#未命名的渐变_39"/><linearGradient id="未命名的渐变_39-24" x1="82.95" y1="58.97" x2="82.95" y2="56.84" xlink:href="#未命名的渐变_39"/><linearGradient id="未命名的渐变_39-25" x1="82.95" y1="73.1" x2="82.95" y2="70.98" xlink:href="#未命名的渐变_39"/><linearGradient id="未命名的渐变_39-26" x1="146.39" y1="16.56" x2="146.39" y2="14.44" xlink:href="#未命名的渐变_39"/><linearGradient id="未命名的渐变_39-27" x1="146.39" y1="30.7" x2="146.39" y2="28.57" xlink:href="#未命名的渐变_39"/><linearGradient id="未命名的渐变_39-28" x1="146.39" y1="44.83" x2="146.39" y2="42.71" xlink:href="#未命名的渐变_39"/><linearGradient id="未命名的渐变_39-29" x1="146.39" y1="58.97" x2="146.39" y2="56.84" xlink:href="#未命名的渐变_39"/><linearGradient id="未命名的渐变_39-30" x1="146.39" y1="73.1" x2="146.39" y2="70.98" xlink:href="#未命名的渐变_39"/><linearGradient id="未命名的渐变_39-31" x1="3.66" y1="87.12" x2="3.66" y2="84.99" xlink:href="#未命名的渐变_39"/><linearGradient id="未命名的渐变_39-32" x1="19.52" y1="87.12" x2="19.52" y2="84.99" xlink:href="#未命名的渐变_39"/><linearGradient id="未命名的渐变_39-33" x1="35.38" y1="87.12" x2="35.38" y2="84.99" xlink:href="#未命名的渐变_39"/><linearGradient id="未命名的渐变_39-34" x1="51.24" y1="87.12" x2="51.24" y2="84.99" xlink:href="#未命名的渐变_39"/><linearGradient id="未命名的渐变_39-35" x1="67.1" y1="87.12" x2="67.1" y2="84.99" xlink:href="#未命名的渐变_39"/><linearGradient id="未命名的渐变_39-36" x1="82.95" y1="87.12" x2="82.95" y2="84.99" xlink:href="#未命名的渐变_39"/><linearGradient id="未命名的渐变_39-37" x1="98.81" y1="87.12" x2="98.81" y2="84.99" xlink:href="#未命名的渐变_39"/><linearGradient id="未命名的渐变_39-38" x1="114.67" y1="87.12" x2="114.67" y2="84.99" xlink:href="#未命名的渐变_39"/><linearGradient id="未命名的渐变_39-39" x1="130.53" y1="87.12" x2="130.53" y2="84.99" xlink:href="#未命名的渐变_39"/><linearGradient id="未命名的渐变_39-40" x1="146.39" y1="87.12" x2="146.39" y2="84.99" xlink:href="#未命名的渐变_39"/><clipPath id="clip-path-44"><rect class="cls-1" x="81.26" y="19.92" width="69.85" height="48.85" transform="translate(160.53 -71.85) rotate(90)"/></clipPath><clipPath id="clip-path-45"><rect class="cls-1" x="135.52" y="4.37" width="9.26" height="11.61"/></clipPath><clipPath id="clip-path-46"><rect class="cls-1" x="135.52" y="15.98" width="9.26" height="11.61"/></clipPath><clipPath id="clip-path-47"><rect class="cls-1" x="135.52" y="27.6" width="9.26" height="11.61"/></clipPath><clipPath id="clip-path-48"><rect class="cls-1" x="135.52" y="39.21" width="9.26" height="11.61"/></clipPath><clipPath id="clip-path-49"><rect class="cls-1" x="135.52" y="50.82" width="9.26" height="11.61"/></clipPath><clipPath id="clip-path-50"><rect class="cls-1" x="135.52" y="62.44" width="9.26" height="11.61"/></clipPath><clipPath id="clip-path-51"><rect class="cls-1" x="135.52" y="74.05" width="9.26" height="11.61"/></clipPath><clipPath id="clip-path-52"><rect class="cls-1" x="126.27" y="4.37" width="9.26" height="11.61"/></clipPath><clipPath id="clip-path-53"><rect class="cls-1" x="126.27" y="15.98" width="9.26" height="11.61"/></clipPath><clipPath id="clip-path-54"><rect class="cls-1" x="126.27" y="27.6" width="9.26" height="11.61"/></clipPath><clipPath id="clip-path-55"><rect class="cls-1" x="126.27" y="39.21" width="9.26" height="11.61"/></clipPath><clipPath id="clip-path-56"><rect class="cls-1" x="126.27" y="50.82" width="9.26" height="11.61"/></clipPath><clipPath id="clip-path-57"><rect class="cls-1" x="126.27" y="62.44" width="9.26" height="11.61"/></clipPath><clipPath id="clip-path-58"><rect class="cls-1" x="126.27" y="74.05" width="9.26" height="11.61"/></clipPath><clipPath id="clip-path-59"><rect class="cls-1" x="117.01" y="4.37" width="9.26" height="11.61"/></clipPath><clipPath id="clip-path-60"><rect class="cls-1" x="117.01" y="15.98" width="9.26" height="11.61"/></clipPath><clipPath id="clip-path-61"><rect class="cls-1" x="117.01" y="27.6" width="9.26" height="11.61"/></clipPath><clipPath id="clip-path-62"><rect class="cls-1" x="117.01" y="39.21" width="9.26" height="11.61"/></clipPath><clipPath id="clip-path-63"><rect class="cls-1" x="117.01" y="50.82" width="9.26" height="11.61"/></clipPath><clipPath id="clip-path-64"><rect class="cls-1" x="117.01" y="62.44" width="9.26" height="11.61"/></clipPath><clipPath id="clip-path-65"><rect class="cls-1" x="117.01" y="74.05" width="9.26" height="11.61"/></clipPath><clipPath id="clip-path-66"><rect class="cls-1" x="107.76" y="4.37" width="9.26" height="11.61"/></clipPath><clipPath id="clip-path-67"><rect class="cls-1" x="107.76" y="15.98" width="9.26" height="11.61"/></clipPath><clipPath id="clip-path-68"><rect class="cls-1" x="107.76" y="27.6" width="9.26" height="11.61"/></clipPath><clipPath id="clip-path-69"><rect class="cls-1" x="107.76" y="39.21" width="9.26" height="11.61"/></clipPath><clipPath id="clip-path-70"><rect class="cls-1" x="107.76" y="50.82" width="9.26" height="11.61"/></clipPath><clipPath id="clip-path-71"><rect class="cls-1" x="107.76" y="62.44" width="9.26" height="11.61"/></clipPath><clipPath id="clip-path-72"><rect class="cls-1" x="107.76" y="74.05" width="9.26" height="11.61"/></clipPath><clipPath id="clip-path-73"><rect class="cls-1" x="98.5" y="4.37" width="9.26" height="11.61"/></clipPath><clipPath id="clip-path-74"><rect class="cls-1" x="98.5" y="15.98" width="9.26" height="11.61"/></clipPath><clipPath id="clip-path-75"><rect class="cls-1" x="98.5" y="27.6" width="9.26" height="11.61"/></clipPath><clipPath id="clip-path-76"><rect class="cls-1" x="98.5" y="39.21" width="9.26" height="11.61"/></clipPath><clipPath id="clip-path-77"><rect class="cls-1" x="98.5" y="50.82" width="9.26" height="11.61"/></clipPath><clipPath id="clip-path-78"><rect class="cls-1" x="98.5" y="62.44" width="9.26" height="11.61"/></clipPath><clipPath id="clip-path-79"><rect class="cls-1" x="98.5" y="74.05" width="9.26" height="11.61"/></clipPath><clipPath id="clip-path-80"><rect class="cls-1" x="89.24" y="4.37" width="9.26" height="11.61"/></clipPath><clipPath id="clip-path-81"><rect class="cls-1" x="89.24" y="15.98" width="9.26" height="11.61"/></clipPath><clipPath id="clip-path-82"><rect class="cls-1" x="89.24" y="27.6" width="9.26" height="11.61"/></clipPath><clipPath id="clip-path-83"><rect class="cls-1" x="89.24" y="39.21" width="9.26" height="11.61"/></clipPath><clipPath id="clip-path-84"><rect class="cls-1" x="89.24" y="50.82" width="9.26" height="11.61"/></clipPath><clipPath id="clip-path-85"><rect class="cls-1" x="89.24" y="62.44" width="9.26" height="11.61"/></clipPath><clipPath id="clip-path-86"><rect class="cls-1" x="89.24" y="74.05" width="9.26" height="11.61"/></clipPath></defs><title>Grilled heast exchanger(格栅热交换器)</title><g class="cls-2"><g id="图层_2" data-name="图层 2"><g id="图层_6" data-name="图层 6"><g id="Grilled_heast_exchanger_格栅热交换器_" data-name="Grilled heast exchanger(格栅热交换器)"><rect class="cls-3" width="150" height="88.74"/><rect class="cls-4" x="-3.36" y="17.44" width="74.8" height="53.8" transform="translate(78.39 10.3) rotate(90)"/><rect class="cls-5" x="-3.36" y="19.92" width="72.33" height="51.32" transform="translate(78.39 12.77) rotate(90)"/><rect class="cls-6" x="-0.88" y="19.92" width="69.85" height="48.85" transform="translate(78.39 10.3) rotate(90)"/><g class="cls-7"><g class="cls-8"><g class="cls-9"><rect class="cls-10" x="60.39" y="4.44" width="4.49" height="11.48"/><rect class="cls-10" x="55.76" y="4.44" width="4.49" height="11.48"/><rect class="cls-10" x="51.13" y="4.44" width="4.49" height="11.48"/></g><g class="cls-11"><rect class="cls-10" x="60.39" y="16.05" width="4.49" height="11.48"/><rect class="cls-10" x="55.76" y="16.05" width="4.49" height="11.48"/><rect class="cls-10" x="51.13" y="16.05" width="4.49" height="11.48"/></g><g class="cls-12"><rect class="cls-10" x="60.39" y="27.66" width="4.49" height="11.48"/><rect class="cls-10" x="55.76" y="27.66" width="4.49" height="11.48"/><rect class="cls-10" x="51.13" y="27.66" width="4.49" height="11.48"/></g><g class="cls-13"><rect class="cls-10" x="60.39" y="39.28" width="4.49" height="11.48"/><rect class="cls-10" x="55.76" y="39.28" width="4.49" height="11.48"/><rect class="cls-10" x="51.13" y="39.28" width="4.49" height="11.48"/></g><g class="cls-14"><rect class="cls-10" x="60.39" y="50.89" width="4.49" height="11.48"/><rect class="cls-10" x="55.76" y="50.89" width="4.49" height="11.48"/><rect class="cls-10" x="51.13" y="50.89" width="4.49" height="11.48"/></g><g class="cls-15"><rect class="cls-10" x="60.39" y="62.5" width="4.49" height="11.48"/><rect class="cls-10" x="55.76" y="62.5" width="4.49" height="11.48"/><rect class="cls-10" x="51.13" y="62.5" width="4.49" height="11.48"/></g><g class="cls-16"><rect class="cls-10" x="60.39" y="74.12" width="4.49" height="11.48"/><rect class="cls-10" x="55.76" y="74.12" width="4.49" height="11.48"/><rect class="cls-10" x="51.13" y="74.12" width="4.49" height="11.48"/></g><g class="cls-17"><rect class="cls-10" x="51.13" y="4.44" width="4.49" height="11.48"/><rect class="cls-10" x="46.5" y="4.44" width="4.49" height="11.48"/><rect class="cls-10" x="41.88" y="4.44" width="4.49" height="11.48"/></g><g class="cls-18"><rect class="cls-10" x="51.13" y="16.05" width="4.49" height="11.48"/><rect class="cls-10" x="46.5" y="16.05" width="4.49" height="11.48"/><rect class="cls-10" x="41.88" y="16.05" width="4.49" height="11.48"/></g><g class="cls-19"><rect class="cls-10" x="51.13" y="27.66" width="4.49" height="11.48"/><rect class="cls-10" x="46.5" y="27.66" width="4.49" height="11.48"/><rect class="cls-10" x="41.88" y="27.66" width="4.49" height="11.48"/></g><g class="cls-20"><rect class="cls-10" x="51.13" y="39.28" width="4.49" height="11.48"/><rect class="cls-10" x="46.5" y="39.28" width="4.49" height="11.48"/><rect class="cls-10" x="41.88" y="39.28" width="4.49" height="11.48"/></g><g class="cls-21"><rect class="cls-10" x="51.13" y="50.89" width="4.49" height="11.48"/><rect class="cls-10" x="46.5" y="50.89" width="4.49" height="11.48"/><rect class="cls-10" x="41.88" y="50.89" width="4.49" height="11.48"/></g><g class="cls-22"><rect class="cls-10" x="51.13" y="62.5" width="4.49" height="11.48"/><rect class="cls-10" x="46.5" y="62.5" width="4.49" height="11.48"/><rect class="cls-10" x="41.88" y="62.5" width="4.49" height="11.48"/></g><g class="cls-23"><rect class="cls-10" x="51.13" y="74.12" width="4.49" height="11.48"/><rect class="cls-10" x="46.5" y="74.12" width="4.49" height="11.48"/><rect class="cls-10" x="41.88" y="74.12" width="4.49" height="11.48"/></g><g class="cls-24"><rect class="cls-10" x="41.88" y="4.44" width="4.49" height="11.48"/><rect class="cls-10" x="37.25" y="4.44" width="4.49" height="11.48"/><rect class="cls-10" x="32.62" y="4.44" width="4.49" height="11.48"/></g><g class="cls-25"><rect class="cls-10" x="41.88" y="16.05" width="4.49" height="11.48"/><rect class="cls-10" x="37.25" y="16.05" width="4.49" height="11.48"/><rect class="cls-10" x="32.62" y="16.05" width="4.49" height="11.48"/></g><g class="cls-26"><rect class="cls-10" x="41.88" y="27.66" width="4.49" height="11.48"/><rect class="cls-10" x="37.25" y="27.66" width="4.49" height="11.48"/><rect class="cls-10" x="32.62" y="27.66" width="4.49" height="11.48"/></g><g class="cls-27"><rect class="cls-10" x="41.88" y="39.28" width="4.49" height="11.48"/><rect class="cls-10" x="37.25" y="39.28" width="4.49" height="11.48"/><rect class="cls-10" x="32.62" y="39.28" width="4.49" height="11.48"/></g><g class="cls-28"><rect class="cls-10" x="41.88" y="50.89" width="4.49" height="11.48"/><rect class="cls-10" x="37.25" y="50.89" width="4.49" height="11.48"/><rect class="cls-10" x="32.62" y="50.89" width="4.49" height="11.48"/></g><g class="cls-29"><rect class="cls-10" x="41.88" y="62.5" width="4.49" height="11.48"/><rect class="cls-10" x="37.25" y="62.5" width="4.49" height="11.48"/><rect class="cls-10" x="32.62" y="62.5" width="4.49" height="11.48"/></g><g class="cls-30"><rect class="cls-10" x="41.88" y="74.12" width="4.49" height="11.48"/><rect class="cls-10" x="37.25" y="74.12" width="4.49" height="11.48"/><rect class="cls-10" x="32.62" y="74.12" width="4.49" height="11.48"/></g><g class="cls-31"><rect class="cls-10" x="32.62" y="4.44" width="4.49" height="11.48"/><rect class="cls-10" x="27.99" y="4.44" width="4.49" height="11.48"/><rect class="cls-10" x="23.37" y="4.44" width="4.49" height="11.48"/></g><g class="cls-32"><rect class="cls-10" x="32.62" y="16.05" width="4.49" height="11.48"/><rect class="cls-10" x="27.99" y="16.05" width="4.49" height="11.48"/><rect class="cls-10" x="23.37" y="16.05" width="4.49" height="11.48"/></g><g class="cls-33"><rect class="cls-10" x="32.62" y="27.66" width="4.49" height="11.48"/><rect class="cls-10" x="27.99" y="27.66" width="4.49" height="11.48"/><rect class="cls-10" x="23.37" y="27.66" width="4.49" height="11.48"/></g><g class="cls-34"><rect class="cls-10" x="32.62" y="39.28" width="4.49" height="11.48"/><rect class="cls-10" x="27.99" y="39.28" width="4.49" height="11.48"/><rect class="cls-10" x="23.37" y="39.28" width="4.49" height="11.48"/></g><g class="cls-35"><rect class="cls-10" x="32.62" y="50.89" width="4.49" height="11.48"/><rect class="cls-10" x="27.99" y="50.89" width="4.49" height="11.48"/><rect class="cls-10" x="23.37" y="50.89" width="4.49" height="11.48"/></g><g class="cls-36"><rect class="cls-10" x="32.62" y="62.5" width="4.49" height="11.48"/><rect class="cls-10" x="27.99" y="62.5" width="4.49" height="11.48"/><rect class="cls-10" x="23.37" y="62.5" width="4.49" height="11.48"/></g><g class="cls-37"><rect class="cls-10" x="32.62" y="74.12" width="4.49" height="11.48"/><rect class="cls-10" x="27.99" y="74.12" width="4.49" height="11.48"/><rect class="cls-10" x="23.37" y="74.12" width="4.49" height="11.48"/></g><g class="cls-38"><rect class="cls-10" x="23.37" y="4.44" width="4.49" height="11.48"/><rect class="cls-10" x="18.74" y="4.44" width="4.49" height="11.48"/><rect class="cls-10" x="14.11" y="4.44" width="4.49" height="11.48"/></g><g class="cls-39"><rect class="cls-10" x="23.37" y="16.05" width="4.49" height="11.48"/><rect class="cls-10" x="18.74" y="16.05" width="4.49" height="11.48"/><rect class="cls-10" x="14.11" y="16.05" width="4.49" height="11.48"/></g><g class="cls-40"><rect class="cls-10" x="23.37" y="27.66" width="4.49" height="11.48"/><rect class="cls-10" x="18.74" y="27.66" width="4.49" height="11.48"/><rect class="cls-10" x="14.11" y="27.66" width="4.49" height="11.48"/></g><g class="cls-41"><rect class="cls-10" x="23.37" y="39.28" width="4.49" height="11.48"/><rect class="cls-10" x="18.74" y="39.28" width="4.49" height="11.48"/><rect class="cls-10" x="14.11" y="39.28" width="4.49" height="11.48"/></g><g class="cls-42"><rect class="cls-10" x="23.37" y="50.89" width="4.49" height="11.48"/><rect class="cls-10" x="18.74" y="50.89" width="4.49" height="11.48"/><rect class="cls-10" x="14.11" y="50.89" width="4.49" height="11.48"/></g><g class="cls-43"><rect class="cls-10" x="23.37" y="62.5" width="4.49" height="11.48"/><rect class="cls-10" x="18.74" y="62.5" width="4.49" height="11.48"/><rect class="cls-10" x="14.11" y="62.5" width="4.49" height="11.48"/></g><g class="cls-44"><rect class="cls-10" x="23.37" y="74.12" width="4.49" height="11.48"/><rect class="cls-10" x="18.74" y="74.12" width="4.49" height="11.48"/><rect class="cls-10" x="14.11" y="74.12" width="4.49" height="11.48"/></g><g class="cls-45"><rect class="cls-10" x="14.11" y="4.44" width="4.49" height="11.48"/><rect class="cls-10" x="9.48" y="4.44" width="4.49" height="11.48"/><rect class="cls-10" x="4.85" y="4.44" width="4.49" height="11.48"/></g><g class="cls-46"><rect class="cls-10" x="14.11" y="16.05" width="4.49" height="11.48"/><rect class="cls-10" x="9.48" y="16.05" width="4.49" height="11.48"/><rect class="cls-10" x="4.85" y="16.05" width="4.49" height="11.48"/></g><g class="cls-47"><rect class="cls-10" x="14.11" y="27.66" width="4.49" height="11.48"/><rect class="cls-10" x="9.48" y="27.66" width="4.49" height="11.48"/><rect class="cls-10" x="4.85" y="27.66" width="4.49" height="11.48"/></g><g class="cls-48"><rect class="cls-10" x="14.11" y="39.28" width="4.49" height="11.48"/><rect class="cls-10" x="9.48" y="39.28" width="4.49" height="11.48"/><rect class="cls-10" x="4.85" y="39.28" width="4.49" height="11.48"/></g><g class="cls-49"><rect class="cls-10" x="14.11" y="50.89" width="4.49" height="11.48"/><rect class="cls-10" x="9.48" y="50.89" width="4.49" height="11.48"/><rect class="cls-10" x="4.85" y="50.89" width="4.49" height="11.48"/></g><g class="cls-50"><rect class="cls-10" x="14.11" y="62.5" width="4.49" height="11.48"/><rect class="cls-10" x="9.48" y="62.5" width="4.49" height="11.48"/><rect class="cls-10" x="4.85" y="62.5" width="4.49" height="11.48"/></g><g class="cls-51"><rect class="cls-10" x="14.11" y="74.12" width="4.49" height="11.48"/><rect class="cls-10" x="9.48" y="74.12" width="4.49" height="11.48"/><rect class="cls-10" x="4.85" y="74.12" width="4.49" height="11.48"/></g></g></g><rect class="cls-52" x="2.57" y="2.26" width="2.18" height="1.88"/><rect class="cls-53" x="18.43" y="2.26" width="2.18" height="1.88"/><rect class="cls-54" x="34.29" y="2.26" width="2.18" height="1.88"/><rect class="cls-55" x="50.15" y="2.26" width="2.18" height="1.88"/><rect class="cls-56" x="66.01" y="2.26" width="2.18" height="1.88"/><rect class="cls-57" x="81.87" y="2.26" width="2.18" height="1.88"/><rect class="cls-58" x="97.73" y="2.26" width="2.18" height="1.88"/><rect class="cls-59" x="113.59" y="2.26" width="2.18" height="1.88"/><rect class="cls-60" x="129.44" y="2.26" width="2.18" height="1.88"/><rect class="cls-61" x="145.3" y="2.26" width="2.18" height="1.88"/><rect class="cls-62" x="66.01" y="14.56" width="2.18" height="1.88"/><rect class="cls-63" x="66.01" y="28.7" width="2.18" height="1.88"/><rect class="cls-64" x="66.01" y="42.83" width="2.18" height="1.88"/><rect class="cls-65" x="66.01" y="56.97" width="2.18" height="1.88"/><rect class="cls-66" x="66.01" y="71.1" width="2.18" height="1.88"/><rect class="cls-67" x="2.57" y="14.56" width="2.18" height="1.88"/><rect class="cls-68" x="2.57" y="28.7" width="2.18" height="1.88"/><rect class="cls-69" x="2.57" y="42.83" width="2.18" height="1.88"/><rect class="cls-70" x="2.57" y="56.97" width="2.18" height="1.88"/><rect class="cls-71" x="2.57" y="71.1" width="2.18" height="1.88"/><rect class="cls-72" x="81.87" y="14.56" width="2.18" height="1.88"/><rect class="cls-73" x="81.87" y="28.7" width="2.18" height="1.88"/><rect class="cls-74" x="81.87" y="42.83" width="2.18" height="1.88"/><rect class="cls-75" x="81.87" y="56.97" width="2.18" height="1.88"/><rect class="cls-76" x="81.87" y="71.1" width="2.18" height="1.88"/><rect class="cls-77" x="145.3" y="14.56" width="2.18" height="1.88"/><rect class="cls-78" x="145.3" y="28.7" width="2.18" height="1.88"/><rect class="cls-79" x="145.3" y="42.83" width="2.18" height="1.88"/><rect class="cls-80" x="145.3" y="56.97" width="2.18" height="1.88"/><rect class="cls-81" x="145.3" y="71.1" width="2.18" height="1.88"/><rect class="cls-82" x="2.57" y="85.12" width="2.18" height="1.88"/><rect class="cls-83" x="18.43" y="85.12" width="2.18" height="1.88"/><rect class="cls-84" x="34.29" y="85.12" width="2.18" height="1.88"/><rect class="cls-85" x="50.15" y="85.12" width="2.18" height="1.88"/><rect class="cls-86" x="66.01" y="85.12" width="2.18" height="1.88"/><rect class="cls-87" x="81.87" y="85.12" width="2.18" height="1.88"/><rect class="cls-88" x="97.73" y="85.12" width="2.18" height="1.88"/><rect class="cls-89" x="113.59" y="85.12" width="2.18" height="1.88"/><rect class="cls-90" x="129.44" y="85.12" width="2.18" height="1.88"/><rect class="cls-91" x="145.3" y="85.12" width="2.18" height="1.88"/><rect class="cls-92" x="36.46" y="9.42" width="3.98" height="69.85"/><rect class="cls-4" x="78.79" y="17.44" width="74.8" height="53.8" transform="translate(160.53 -71.85) rotate(90)"/><rect class="cls-5" x="78.79" y="19.92" width="72.33" height="51.32" transform="translate(160.53 -69.37) rotate(90)"/><rect class="cls-6" x="81.26" y="19.92" width="69.85" height="48.85" transform="translate(160.53 -71.85) rotate(90)"/><g class="cls-7"><g class="cls-93"><g class="cls-94"><rect class="cls-10" x="142.53" y="4.44" width="4.49" height="11.48"/><rect class="cls-10" x="137.9" y="4.44" width="4.49" height="11.48"/><rect class="cls-10" x="133.27" y="4.44" width="4.49" height="11.48"/></g><g class="cls-95"><rect class="cls-10" x="142.53" y="16.05" width="4.49" height="11.48"/><rect class="cls-10" x="137.9" y="16.05" width="4.49" height="11.48"/><rect class="cls-10" x="133.27" y="16.05" width="4.49" height="11.48"/></g><g class="cls-96"><rect class="cls-10" x="142.53" y="27.66" width="4.49" height="11.48"/><rect class="cls-10" x="137.9" y="27.66" width="4.49" height="11.48"/><rect class="cls-10" x="133.27" y="27.66" width="4.49" height="11.48"/></g><g class="cls-97"><rect class="cls-10" x="142.53" y="39.28" width="4.49" height="11.48"/><rect class="cls-10" x="137.9" y="39.28" width="4.49" height="11.48"/><rect class="cls-10" x="133.27" y="39.28" width="4.49" height="11.48"/></g><g class="cls-98"><rect class="cls-10" x="142.53" y="50.89" width="4.49" height="11.48"/><rect class="cls-10" x="137.9" y="50.89" width="4.49" height="11.48"/><rect class="cls-10" x="133.27" y="50.89" width="4.49" height="11.48"/></g><g class="cls-99"><rect class="cls-10" x="142.53" y="62.5" width="4.49" height="11.48"/><rect class="cls-10" x="137.9" y="62.5" width="4.49" height="11.48"/><rect class="cls-10" x="133.27" y="62.5" width="4.49" height="11.48"/></g><g class="cls-100"><rect class="cls-10" x="142.53" y="74.12" width="4.49" height="11.48"/><rect class="cls-10" x="137.9" y="74.12" width="4.49" height="11.48"/><rect class="cls-10" x="133.27" y="74.12" width="4.49" height="11.48"/></g><g class="cls-101"><rect class="cls-10" x="133.27" y="4.44" width="4.49" height="11.48"/><rect class="cls-10" x="128.65" y="4.44" width="4.49" height="11.48"/><rect class="cls-10" x="124.02" y="4.44" width="4.49" height="11.48"/></g><g class="cls-102"><rect class="cls-10" x="133.27" y="16.05" width="4.49" height="11.48"/><rect class="cls-10" x="128.65" y="16.05" width="4.49" height="11.48"/><rect class="cls-10" x="124.02" y="16.05" width="4.49" height="11.48"/></g><g class="cls-103"><rect class="cls-10" x="133.27" y="27.66" width="4.49" height="11.48"/><rect class="cls-10" x="128.65" y="27.66" width="4.49" height="11.48"/><rect class="cls-10" x="124.02" y="27.66" width="4.49" height="11.48"/></g><g class="cls-104"><rect class="cls-10" x="133.27" y="39.28" width="4.49" height="11.48"/><rect class="cls-10" x="128.65" y="39.28" width="4.49" height="11.48"/><rect class="cls-10" x="124.02" y="39.28" width="4.49" height="11.48"/></g><g class="cls-105"><rect class="cls-10" x="133.27" y="50.89" width="4.49" height="11.48"/><rect class="cls-10" x="128.65" y="50.89" width="4.49" height="11.48"/><rect class="cls-10" x="124.02" y="50.89" width="4.49" height="11.48"/></g><g class="cls-106"><rect class="cls-10" x="133.27" y="62.5" width="4.49" height="11.48"/><rect class="cls-10" x="128.65" y="62.5" width="4.49" height="11.48"/><rect class="cls-10" x="124.02" y="62.5" width="4.49" height="11.48"/></g><g class="cls-107"><rect class="cls-10" x="133.27" y="74.12" width="4.49" height="11.48"/><rect class="cls-10" x="128.65" y="74.12" width="4.49" height="11.48"/><rect class="cls-10" x="124.02" y="74.12" width="4.49" height="11.48"/></g><g class="cls-108"><rect class="cls-10" x="124.02" y="4.44" width="4.49" height="11.48"/><rect class="cls-10" x="119.39" y="4.44" width="4.49" height="11.48"/><rect class="cls-10" x="114.76" y="4.44" width="4.49" height="11.48"/></g><g class="cls-109"><rect class="cls-10" x="124.02" y="16.05" width="4.49" height="11.48"/><rect class="cls-10" x="119.39" y="16.05" width="4.49" height="11.48"/><rect class="cls-10" x="114.76" y="16.05" width="4.49" height="11.48"/></g><g class="cls-110"><rect class="cls-10" x="124.02" y="27.66" width="4.49" height="11.48"/><rect class="cls-10" x="119.39" y="27.66" width="4.49" height="11.48"/><rect class="cls-10" x="114.76" y="27.66" width="4.49" height="11.48"/></g><g class="cls-111"><rect class="cls-10" x="124.02" y="39.28" width="4.49" height="11.48"/><rect class="cls-10" x="119.39" y="39.28" width="4.49" height="11.48"/><rect class="cls-10" x="114.76" y="39.28" width="4.49" height="11.48"/></g><g class="cls-112"><rect class="cls-10" x="124.02" y="50.89" width="4.49" height="11.48"/><rect class="cls-10" x="119.39" y="50.89" width="4.49" height="11.48"/><rect class="cls-10" x="114.76" y="50.89" width="4.49" height="11.48"/></g><g class="cls-113"><rect class="cls-10" x="124.02" y="62.5" width="4.49" height="11.48"/><rect class="cls-10" x="119.39" y="62.5" width="4.49" height="11.48"/><rect class="cls-10" x="114.76" y="62.5" width="4.49" height="11.48"/></g><g class="cls-114"><rect class="cls-10" x="124.02" y="74.12" width="4.49" height="11.48"/><rect class="cls-10" x="119.39" y="74.12" width="4.49" height="11.48"/><rect class="cls-10" x="114.76" y="74.12" width="4.49" height="11.48"/></g><g class="cls-115"><rect class="cls-10" x="114.76" y="4.44" width="4.49" height="11.48"/><rect class="cls-10" x="110.14" y="4.44" width="4.49" height="11.48"/><rect class="cls-10" x="105.51" y="4.44" width="4.49" height="11.48"/></g><g class="cls-116"><rect class="cls-10" x="114.76" y="16.05" width="4.49" height="11.48"/><rect class="cls-10" x="110.14" y="16.05" width="4.49" height="11.48"/><rect class="cls-10" x="105.51" y="16.05" width="4.49" height="11.48"/></g><g class="cls-117"><rect class="cls-10" x="114.76" y="27.66" width="4.49" height="11.48"/><rect class="cls-10" x="110.14" y="27.66" width="4.49" height="11.48"/><rect class="cls-10" x="105.51" y="27.66" width="4.49" height="11.48"/></g><g class="cls-118"><rect class="cls-10" x="114.76" y="39.28" width="4.49" height="11.48"/><rect class="cls-10" x="110.14" y="39.28" width="4.49" height="11.48"/><rect class="cls-10" x="105.51" y="39.28" width="4.49" height="11.48"/></g><g class="cls-119"><rect class="cls-10" x="114.76" y="50.89" width="4.49" height="11.48"/><rect class="cls-10" x="110.14" y="50.89" width="4.49" height="11.48"/><rect class="cls-10" x="105.51" y="50.89" width="4.49" height="11.48"/></g><g class="cls-120"><rect class="cls-10" x="114.76" y="62.5" width="4.49" height="11.48"/><rect class="cls-10" x="110.14" y="62.5" width="4.49" height="11.48"/><rect class="cls-10" x="105.51" y="62.5" width="4.49" height="11.48"/></g><g class="cls-121"><rect class="cls-10" x="114.76" y="74.12" width="4.49" height="11.48"/><rect class="cls-10" x="110.14" y="74.12" width="4.49" height="11.48"/><rect class="cls-10" x="105.51" y="74.12" width="4.49" height="11.48"/></g><g class="cls-122"><rect class="cls-10" x="105.51" y="4.44" width="4.49" height="11.48"/><rect class="cls-10" x="100.88" y="4.44" width="4.49" height="11.48"/><rect class="cls-10" x="96.25" y="4.44" width="4.49" height="11.48"/></g><g class="cls-123"><rect class="cls-10" x="105.51" y="16.05" width="4.49" height="11.48"/><rect class="cls-10" x="100.88" y="16.05" width="4.49" height="11.48"/><rect class="cls-10" x="96.25" y="16.05" width="4.49" height="11.48"/></g><g class="cls-124"><rect class="cls-10" x="105.51" y="27.66" width="4.49" height="11.48"/><rect class="cls-10" x="100.88" y="27.66" width="4.49" height="11.48"/><rect class="cls-10" x="96.25" y="27.66" width="4.49" height="11.48"/></g><g class="cls-125"><rect class="cls-10" x="105.51" y="39.28" width="4.49" height="11.48"/><rect class="cls-10" x="100.88" y="39.28" width="4.49" height="11.48"/><rect class="cls-10" x="96.25" y="39.28" width="4.49" height="11.48"/></g><g class="cls-126"><rect class="cls-10" x="105.51" y="50.89" width="4.49" height="11.48"/><rect class="cls-10" x="100.88" y="50.89" width="4.49" height="11.48"/><rect class="cls-10" x="96.25" y="50.89" width="4.49" height="11.48"/></g><g class="cls-127"><rect class="cls-10" x="105.51" y="62.5" width="4.49" height="11.48"/><rect class="cls-10" x="100.88" y="62.5" width="4.49" height="11.48"/><rect class="cls-10" x="96.25" y="62.5" width="4.49" height="11.48"/></g><g class="cls-128"><rect class="cls-10" x="105.51" y="74.12" width="4.49" height="11.48"/><rect class="cls-10" x="100.88" y="74.12" width="4.49" height="11.48"/><rect class="cls-10" x="96.25" y="74.12" width="4.49" height="11.48"/></g><g class="cls-129"><rect class="cls-10" x="96.25" y="4.44" width="4.49" height="11.48"/><rect class="cls-10" x="91.62" y="4.44" width="4.49" height="11.48"/><rect class="cls-10" x="87" y="4.44" width="4.49" height="11.48"/></g><g class="cls-130"><rect class="cls-10" x="96.25" y="16.05" width="4.49" height="11.48"/><rect class="cls-10" x="91.62" y="16.05" width="4.49" height="11.48"/><rect class="cls-10" x="87" y="16.05" width="4.49" height="11.48"/></g><g class="cls-131"><rect class="cls-10" x="96.25" y="27.66" width="4.49" height="11.48"/><rect class="cls-10" x="91.62" y="27.66" width="4.49" height="11.48"/><rect class="cls-10" x="87" y="27.66" width="4.49" height="11.48"/></g><g class="cls-132"><rect class="cls-10" x="96.25" y="39.28" width="4.49" height="11.48"/><rect class="cls-10" x="91.62" y="39.28" width="4.49" height="11.48"/><rect class="cls-10" x="87" y="39.28" width="4.49" height="11.48"/></g><g class="cls-133"><rect class="cls-10" x="96.25" y="50.89" width="4.49" height="11.48"/><rect class="cls-10" x="91.62" y="50.89" width="4.49" height="11.48"/><rect class="cls-10" x="87" y="50.89" width="4.49" height="11.48"/></g><g class="cls-134"><rect class="cls-10" x="96.25" y="62.5" width="4.49" height="11.48"/><rect class="cls-10" x="91.62" y="62.5" width="4.49" height="11.48"/><rect class="cls-10" x="87" y="62.5" width="4.49" height="11.48"/></g><g class="cls-135"><rect class="cls-10" x="96.25" y="74.12" width="4.49" height="11.48"/><rect class="cls-10" x="91.62" y="74.12" width="4.49" height="11.48"/><rect class="cls-10" x="87" y="74.12" width="4.49" height="11.48"/></g></g></g><rect class="cls-92" x="118.61" y="9.42" width="3.98" height="69.85"/>
</g></g></g></g></svg>