<svg xmlns="http://www.w3.org/2000/svg" xmlns:xlink="http://www.w3.org/1999/xlink" viewBox="0 0 150 39.46"><defs><style>.cls-1{fill:#c4c4c4;}.cls-2{fill:#a3a4a4;}.cls-3{fill:#dbdbdb;}.cls-4{fill:url(#未命名的渐变_67);}.cls-5{fill:url(#未命名的渐变_105);}.cls-6{fill:url(#未命名的渐变_67-2);}.cls-7{fill:url(#未命名的渐变_105-2);}.cls-8{fill:#717070;}.cls-9{opacity:0.2;}</style><linearGradient id="未命名的渐变_67" x1="77.97" y1="28.9" x2="90.25" y2="28.9" gradientUnits="userSpaceOnUse"><stop offset="0" stop-color="#6b6b6b"/><stop offset="0.11" stop-color="#767676"/><stop offset="0.3" stop-color="#959595"/><stop offset="0.41" stop-color="#aaa"/><stop offset="0.56" stop-color="#ccc"/><stop offset="0.71" stop-color="#eaeaea"/><stop offset="0.8" stop-color="#f6f6f6"/><stop offset="0.83" stop-color="#ededed"/><stop offset="0.87" stop-color="#d4d4d4"/><stop offset="0.92" stop-color="#ababab"/><stop offset="0.98" stop-color="#737373"/><stop offset="0.99" stop-color="#666"/></linearGradient><linearGradient id="未命名的渐变_105" x1="78.79" y1="28.9" x2="89.43" y2="28.9" gradientUnits="userSpaceOnUse"><stop offset="0" stop-color="#e2e2e2"/><stop offset="0.03" stop-color="#d0d0d0"/><stop offset="0.06" stop-color="#bcbcbc"/><stop offset="0.09" stop-color="#b5b5b5"/><stop offset="0.49" stop-color="#f6f6f6"/><stop offset="0.63" stop-color="#f3f3f3"/><stop offset="0.73" stop-color="#eaeaea"/><stop offset="0.82" stop-color="#dbdbdb"/><stop offset="0.9" stop-color="#c6c6c6"/><stop offset="0.97" stop-color="#aaa"/><stop offset="1" stop-color="#9b9b9b"/></linearGradient><linearGradient id="未命名的渐变_67-2" x1="59.2" y1="28.9" x2="71.48" y2="28.9" xlink:href="#未命名的渐变_67"/><linearGradient id="未命名的渐变_105-2" x1="60.02" y1="28.9" x2="70.66" y2="28.9" xlink:href="#未命名的渐变_105"/></defs><title>Grit chamber（沉沙池）</title><g id="图层_2" data-name="图层 2"><g id="图层_125" data-name="图层 125"><g id="Grit_chamber_沉沙池_" data-name="Grit chamber（沉沙池）"><polygon class="cls-1" points="36.59 39.46 10.1 30.54 10.1 8.77 36.59 0 36.59 39.46"/><polygon class="cls-1" points="112.69 39.46 139.19 30.53 139.19 8.77 112.69 0 112.69 39.46"/><rect class="cls-1" y="8.77" width="10.1" height="21.77"/><rect class="cls-2" x="1.55" y="10.78" width="7.83" height="17.76"/><rect class="cls-1" x="36.6" width="76.09" height="39.46"/><rect class="cls-2" x="37.01" y="2.01" width="75.68" height="35.41"/><polygon class="cls-2" points="37.01 37.42 9.38 28.54 9.38 10.79 37.01 2.01 37.01 37.42"/><rect class="cls-1" x="139.19" y="8.87" width="10.81" height="21.66" transform="translate(289.19 39.4) rotate(180)"/><rect class="cls-2" x="140" y="10.53" width="8.34" height="18.21" transform="translate(288.34 39.27) rotate(180)"/><polygon class="cls-2" points="112.69 37.42 140.73 28.54 140.73 10.79 112.69 2.01 112.69 37.42"/><rect class="cls-3" x="2.42" y="10.95" width="7.68" height="17.43"/><rect class="cls-3" x="37.01" y="2.34" width="75.68" height="34.75"/><polygon class="cls-3" points="37.01 37.09 10.1 28.38 10.1 10.95 37.01 2.34 37.01 37.09"/><polygon class="cls-3" points="112.69 37.09 140 28.38 140 10.95 112.69 2.34 112.69 37.09"/><rect class="cls-1" x="9.22" y="9.9" width="1.75" height="19.64"/><rect class="cls-1" x="139.12" y="10.53" width="1.75" height="19.64"/><rect class="cls-1" x="36.6" y="0.36" width="1.75" height="37.56"/><rect class="cls-1" x="55.4" y="0.86" width="1.75" height="37.56"/><rect class="cls-1" x="74.41" y="-18.56" width="1.75" height="76.56" transform="translate(95 -55.57) rotate(90)"/><rect class="cls-1" x="93.01" y="0.36" width="1.75" height="37.56"/><rect class="cls-1" x="74.2" y="0.86" width="1.75" height="37.56"/><rect class="cls-1" x="111.81" y="0.86" width="1.75" height="37.56"/><circle class="cls-4" cx="84.11" cy="28.9" r="6.14"/><circle class="cls-5" cx="84.11" cy="28.9" r="5.32"/><circle class="cls-6" cx="65.34" cy="28.9" r="6.14"/><circle class="cls-7" cx="65.34" cy="28.9" r="5.32"/><circle class="cls-8" cx="65.34" cy="28.9" r="4.32"/><circle class="cls-8" cx="84.11" cy="28.9" r="4.32"/></g></g></g></svg>