<svg xmlns="http://www.w3.org/2000/svg" xmlns:xlink="http://www.w3.org/1999/xlink" viewBox="0 0 149.82 149.82"><defs><style>.cls-1{fill:#dadbe0;}.cls-2{fill:#c1c1c1;}.cls-3{fill:#a0a0a0;}.cls-4{fill:url(#未命名的渐变_143);}.cls-5{fill:url(#未命名的渐变_143-2);}.cls-6{fill:url(#未命名的渐变_143-3);}.cls-7{fill:url(#未命名的渐变_143-4);}.cls-8{fill:url(#未命名的渐变_143-5);}.cls-9{fill:url(#未命名的渐变_143-6);}.cls-10{fill:url(#未命名的渐变_143-7);}.cls-11{fill:url(#未命名的渐变_143-8);}.cls-12{opacity:0.2;}</style><linearGradient id="未命名的渐变_143" x1="68.87" y1="16.65" x2="79.51" y2="16.65" gradientUnits="userSpaceOnUse"><stop offset="0" stop-color="#b7b7b7"/><stop offset="0.03" stop-color="#9b9d9d"/><stop offset="0.07" stop-color="#878b8b"/><stop offset="0.09" stop-color="#808484"/><stop offset="0.2" stop-color="#a3a6a6"/><stop offset="0.49" stop-color="#f6f6f6"/><stop offset="0.61" stop-color="#f3f3f3"/><stop offset="0.7" stop-color="#eaeaea"/><stop offset="0.77" stop-color="#dbdbdb"/><stop offset="0.83" stop-color="#c5c5c5"/><stop offset="0.9" stop-color="#aaa"/><stop offset="0.95" stop-color="#888"/><stop offset="1" stop-color="#666"/></linearGradient><linearGradient id="未命名的渐变_143-2" x1="29.87" y1="31.83" x2="40.51" y2="31.83" xlink:href="#未命名的渐变_143"/><linearGradient id="未命名的渐变_143-3" x1="12.68" y1="74.91" x2="23.32" y2="74.91" xlink:href="#未命名的渐变_143"/><linearGradient id="未命名的渐变_143-4" x1="29.6" y1="116.89" x2="40.25" y2="116.89" xlink:href="#未命名的渐变_143"/><linearGradient id="未命名的渐变_143-5" x1="68.65" y1="132.32" x2="79.3" y2="132.32" xlink:href="#未命名的渐变_143"/><linearGradient id="未命名的渐变_143-6" x1="106.25" y1="117.87" x2="116.89" y2="117.87" xlink:href="#未命名的渐变_143"/><linearGradient id="未命名的渐变_143-7" x1="125.12" y1="74.91" x2="135.76" y2="74.91" xlink:href="#未命名的渐变_143"/><linearGradient id="未命名的渐变_143-8" x1="106.25" y1="30.2" x2="116.89" y2="30.2" xlink:href="#未命名的渐变_143"/></defs><title>Hatch（舱口）</title><g id="图层_2" data-name="图层 2"><g id="图层_104" data-name="图层 104"><g id="Hatch_舱口_" data-name="Hatch（舱口）"><circle class="cls-1" cx="74.91" cy="74.91" r="74.91"/><circle class="cls-2" cx="74.91" cy="74.91" r="59.73"/><circle class="cls-3" cx="74.91" cy="74.91" r="45.99"/><circle class="cls-2" cx="74.91" cy="74.91" r="41.98"/><circle class="cls-4" cx="74.19" cy="16.65" r="5.32"/><circle class="cls-5" cx="35.19" cy="31.83" r="5.32"/><circle class="cls-6" cx="18" cy="74.91" r="5.32"/><circle class="cls-7" cx="34.93" cy="116.89" r="5.32"/><circle class="cls-8" cx="73.98" cy="132.32" r="5.32"/><circle class="cls-9" cx="111.57" cy="117.87" r="5.32"/><circle class="cls-10" cx="130.44" cy="74.91" r="5.32"/><circle class="cls-11" cx="111.57" cy="30.2" r="5.32"/></g></g></g></svg>