<svg xmlns="http://www.w3.org/2000/svg" xmlns:xlink="http://www.w3.org/1999/xlink" viewBox="0 0 149.92 55.29"><defs><style>.cls-1{fill:url(#未命名的渐变_67);}.cls-2{fill:url(#未命名的渐变_105);}.cls-3{fill:url(#未命名的渐变_105-2);}.cls-4{fill:url(#未命名的渐变_105-3);}.cls-5{fill:url(#未命名的渐变_105-4);}.cls-6{fill:url(#未命名的渐变_105-5);}.cls-7{fill:url(#未命名的渐变_105-6);}.cls-8{fill:url(#未命名的渐变_105-7);}.cls-9{fill:url(#未命名的渐变_105-8);}.cls-10{fill:url(#未命名的渐变_105-9);}.cls-11{fill:url(#未命名的渐变_105-10);}.cls-12{fill:url(#未命名的渐变_74);}.cls-13{fill:url(#未命名的渐变_74-2);}.cls-14{fill:url(#未命名的渐变_105-11);}.cls-15{fill:url(#未命名的渐变_105-12);}.cls-16{fill:url(#未命名的渐变_105-13);}.cls-17{fill:url(#未命名的渐变_105-14);}.cls-18{fill:url(#未命名的渐变_105-15);}.cls-19{fill:url(#未命名的渐变_105-16);}.cls-20{fill:url(#未命名的渐变_105-17);}.cls-21{fill:url(#未命名的渐变_105-18);}.cls-22{opacity:0.2;}</style><linearGradient id="未命名的渐变_67" x1="74.96" y1="45.19" x2="74.96" y2="11.94" gradientUnits="userSpaceOnUse"><stop offset="0" stop-color="#6b6b6b"/><stop offset="0.11" stop-color="#767676"/><stop offset="0.3" stop-color="#959595"/><stop offset="0.41" stop-color="#aaa"/><stop offset="0.56" stop-color="#ccc"/><stop offset="0.71" stop-color="#eaeaea"/><stop offset="0.8" stop-color="#f6f6f6"/><stop offset="0.83" stop-color="#ededed"/><stop offset="0.87" stop-color="#d4d4d4"/><stop offset="0.92" stop-color="#ababab"/><stop offset="0.98" stop-color="#737373"/><stop offset="0.99" stop-color="#666"/></linearGradient><linearGradient id="未命名的渐变_105" x1="22.73" y1="14.3" x2="22.73" y2="10.82" gradientUnits="userSpaceOnUse"><stop offset="0" stop-color="#e2e2e2"/><stop offset="0.03" stop-color="#d0d0d0"/><stop offset="0.06" stop-color="#bcbcbc"/><stop offset="0.09" stop-color="#b5b5b5"/><stop offset="0.49" stop-color="#f6f6f6"/><stop offset="0.63" stop-color="#f3f3f3"/><stop offset="0.73" stop-color="#eaeaea"/><stop offset="0.82" stop-color="#dbdbdb"/><stop offset="0.9" stop-color="#c6c6c6"/><stop offset="0.97" stop-color="#aaa"/><stop offset="1" stop-color="#9b9b9b"/></linearGradient><linearGradient id="未命名的渐变_105-2" x1="29.45" y1="1.74" x2="48.03" y2="1.74" xlink:href="#未命名的渐变_105"/><linearGradient id="未命名的渐变_105-3" x1="32.07" y1="7.57" x2="45.48" y2="7.57" xlink:href="#未命名的渐变_105"/><linearGradient id="未命名的渐变_105-4" x1="102.44" y1="1.94" x2="121.03" y2="1.94" xlink:href="#未命名的渐变_105"/><linearGradient id="未命名的渐变_105-5" x1="105.07" y1="7.78" x2="118.48" y2="7.78" xlink:href="#未命名的渐变_105"/><linearGradient id="未命名的渐变_105-6" x1="22.73" y1="20.66" x2="22.73" y2="17.17" xlink:href="#未命名的渐变_105"/><linearGradient id="未命名的渐变_105-7" x1="22.73" y1="27.01" x2="22.73" y2="23.52" xlink:href="#未命名的渐变_105"/><linearGradient id="未命名的渐变_105-8" x1="22.73" y1="33.36" x2="22.73" y2="29.88" xlink:href="#未命名的渐变_105"/><linearGradient id="未命名的渐变_105-9" x1="22.73" y1="39.72" x2="22.73" y2="36.23" xlink:href="#未命名的渐变_105"/><linearGradient id="未命名的渐变_105-10" x1="22.73" y1="46.07" x2="22.73" y2="42.58" xlink:href="#未命名的渐变_105"/><linearGradient id="未命名的渐变_74" x1="36.96" y1="55.29" x2="36.96" y2="43.68" gradientUnits="userSpaceOnUse"><stop offset="0" stop-color="#6b6b6b"/><stop offset="0.01" stop-color="#767676"/><stop offset="0.03" stop-color="#959595"/><stop offset="0.04" stop-color="#aaa"/><stop offset="0.37" stop-color="#ccc"/><stop offset="0.74" stop-color="#eaeaea"/><stop offset="0.94" stop-color="#f6f6f6"/><stop offset="0.95" stop-color="#ededed"/><stop offset="0.96" stop-color="#d4d4d4"/><stop offset="0.97" stop-color="#ababab"/><stop offset="0.99" stop-color="#737373"/><stop offset="0.99" stop-color="#666"/></linearGradient><linearGradient id="未命名的渐变_74-2" x1="113.44" y1="55.29" x2="113.44" y2="43.68" xlink:href="#未命名的渐变_74"/><linearGradient id="未命名的渐变_105-11" x1="22.9" y1="46.66" x2="22.9" y2="9.95" xlink:href="#未命名的渐变_105"/><linearGradient id="未命名的渐变_105-12" x1="127.94" y1="14.3" x2="127.94" y2="10.82" xlink:href="#未命名的渐变_105"/><linearGradient id="未命名的渐变_105-13" x1="127.94" y1="20.66" x2="127.94" y2="17.17" xlink:href="#未命名的渐变_105"/><linearGradient id="未命名的渐变_105-14" x1="127.94" y1="27.01" x2="127.94" y2="23.52" xlink:href="#未命名的渐变_105"/><linearGradient id="未命名的渐变_105-15" x1="127.94" y1="33.36" x2="127.94" y2="29.88" xlink:href="#未命名的渐变_105"/><linearGradient id="未命名的渐变_105-16" x1="127.94" y1="39.72" x2="127.94" y2="36.23" xlink:href="#未命名的渐变_105"/><linearGradient id="未命名的渐变_105-17" x1="127.94" y1="46.07" x2="127.94" y2="42.58" xlink:href="#未命名的渐变_105"/><linearGradient id="未命名的渐变_105-18" x1="128.11" y1="46.66" x2="128.11" y2="9.95" xlink:href="#未命名的渐变_105"/></defs><title>Heat exchanger（热交换器）</title><g id="图层_2" data-name="图层 2"><g id="图层_104" data-name="图层 104"><g id="Heat_exchanger_热交换器_" data-name="Heat exchanger（热交换器）"><path class="cls-1" d="M144.22,11.94H8s-8,.62-8,16.63S8,45.19,8,45.19H144.22s5.7-2.82,5.7-14.74C149.92,12.49,144.22,11.94,144.22,11.94Z"/><rect class="cls-2" x="17.25" y="10.82" width="10.96" height="3.48"/><rect class="cls-3" x="29.45" width="18.58" height="3.48"/><rect class="cls-4" x="32.07" y="3.48" width="13.41" height="8.18"/><rect class="cls-5" x="102.44" y="0.2" width="18.58" height="3.48"/><rect class="cls-6" x="105.07" y="3.69" width="13.41" height="8.18"/><rect class="cls-7" x="17.25" y="17.17" width="10.96" height="3.48"/><rect class="cls-8" x="17.25" y="23.52" width="10.96" height="3.48"/><rect class="cls-9" x="17.25" y="29.88" width="10.96" height="3.48"/><rect class="cls-10" x="17.25" y="36.23" width="10.96" height="3.48"/><rect class="cls-11" x="17.25" y="42.58" width="10.96" height="3.48"/><polygon class="cls-12" points="41.78 51.7 41.78 43.68 32.07 43.68 32.07 51.7 31.66 51.7 31.66 55.29 42.26 55.29 42.26 51.7 41.78 51.7"/><polygon class="cls-13" points="118.25 51.7 118.25 43.68 108.55 43.68 108.55 51.7 108.14 51.7 108.14 55.29 118.74 55.29 118.74 51.7 118.25 51.7"/><rect class="cls-14" x="20.39" y="9.95" width="5.02" height="36.71"/><rect class="cls-15" x="122.46" y="10.82" width="10.96" height="3.48"/><rect class="cls-16" x="122.46" y="17.17" width="10.96" height="3.48"/><rect class="cls-17" x="122.46" y="23.52" width="10.96" height="3.48"/><rect class="cls-18" x="122.46" y="29.88" width="10.96" height="3.48"/><rect class="cls-19" x="122.46" y="36.23" width="10.96" height="3.48"/><rect class="cls-20" x="122.46" y="42.58" width="10.96" height="3.48"/><rect class="cls-21" x="125.6" y="9.95" width="5.02" height="36.71"/></g></g></g></svg>