<svg xmlns="http://www.w3.org/2000/svg" xmlns:xlink="http://www.w3.org/1999/xlink" viewBox="0 0 119.86 150"><defs><style>.cls-1{fill:url(#未命名的渐变_70);}.cls-2{fill:url(#未命名的渐变_70-2);}.cls-3,.cls-4{opacity:0.1;}.cls-3{fill:url(#未命名的渐变_72);}.cls-4{fill:url(#未命名的渐变_74);}.cls-5{fill:url(#未命名的渐变_71);}.cls-6{fill:url(#未命名的渐变_71-2);}.cls-7{fill:url(#未命名的渐变_5);}.cls-8{fill:url(#未命名的渐变_32);}.cls-9{fill:url(#未命名的渐变_32-2);}.cls-10{fill:url(#未命名的渐变_5-2);}.cls-11{fill:url(#未命名的渐变_5-3);}.cls-12{fill:none;stroke:#5b5f66;}.cls-12,.cls-13{stroke-miterlimit:10;stroke-width:0.25px;}.cls-13{fill:#252628;stroke:url(#未命名的渐变_39);}.cls-14{opacity:0.2;}</style><linearGradient id="未命名的渐变_70" x1="40.15" y1="14.44" x2="62.47" y2="14.44" gradientUnits="userSpaceOnUse"><stop offset="0" stop-color="#a9b1bb"/><stop offset="0.09" stop-color="#61666b"/><stop offset="0.18" stop-color="#696e73"/><stop offset="0.32" stop-color="#7e8489"/><stop offset="0.49" stop-color="#a1a7ae"/><stop offset="0.69" stop-color="#d1d8e0"/><stop offset="0.75" stop-color="#e2eaf2"/><stop offset="0.93" stop-color="#9ba1ab"/><stop offset="1" stop-color="#767b82"/></linearGradient><linearGradient id="未命名的渐变_70-2" x1="30.81" y1="61.65" x2="71.8" y2="61.65" xlink:href="#未命名的渐变_70"/><linearGradient id="未命名的渐变_72" x1="51.31" y1="53.28" x2="51.31" y2="44.03" gradientUnits="userSpaceOnUse"><stop offset="0" stop-color="#9ba1ab" stop-opacity="0"/><stop offset="1" stop-color="#2e3033"/></linearGradient><linearGradient id="未命名的渐变_74" x1="51.31" y1="79.27" x2="51.31" y2="70.62" gradientUnits="userSpaceOnUse"><stop offset="0" stop-color="#2e3033"/><stop offset="1" stop-color="#9ba1ab" stop-opacity="0"/></linearGradient><linearGradient id="未命名的渐变_71" x1="67.51" y1="32.25" x2="31.32" y2="45.42" gradientUnits="userSpaceOnUse"><stop offset="0" stop-color="#767b82"/><stop offset="0.07" stop-color="#9ba1ab"/><stop offset="0.25" stop-color="#e2eaf2"/><stop offset="0.31" stop-color="#d1d8e0"/><stop offset="0.51" stop-color="#a1a7ae"/><stop offset="0.68" stop-color="#7e8489"/><stop offset="0.82" stop-color="#696e73"/><stop offset="0.91" stop-color="#61666b"/><stop offset="1" stop-color="#a9b1bb"/></linearGradient><linearGradient id="未命名的渐变_71-2" x1="67.51" y1="147.7" x2="31.32" y2="160.87" gradientTransform="matrix(1, 0, 0, -1, 0, 238.74)" xlink:href="#未命名的渐变_71"/><linearGradient id="未命名的渐变_5" x1="64.1" y1="86.72" x2="38.51" y2="112.32" gradientUnits="userSpaceOnUse"><stop offset="0" stop-color="#d7dce0"/><stop offset="1" stop-color="#8a9099"/></linearGradient><linearGradient id="未命名的渐变_32" x1="25.94" y1="94.08" x2="7.7" y2="112.32" gradientUnits="userSpaceOnUse"><stop offset="0" stop-color="#abafb3"/><stop offset="1" stop-color="#45484d"/></linearGradient><linearGradient id="未命名的渐变_32-2" x1="71.89" y1="95.5" x2="87.3" y2="110.9" gradientTransform="matrix(-1, 0, 0, 1, 165.39, 0)" xlink:href="#未命名的渐变_32"/><linearGradient id="未命名的渐变_5-2" x1="88.3" y1="90.31" x2="14.31" y2="164.31" xlink:href="#未命名的渐变_5"/><linearGradient id="未命名的渐变_5-3" x1="120.09" y1="113.35" x2="97.27" y2="136.16" xlink:href="#未命名的渐变_5"/><linearGradient id="未命名的渐变_39" x1="51.31" y1="77.22" x2="51.31" y2="39.59" gradientUnits="userSpaceOnUse"><stop offset="0" stop-color="#dce1e6"/><stop offset="1" stop-color="#5c6066"/></linearGradient></defs><title>High-velocity exhaust system</title><g id="图层_2" data-name="图层 2"><g id="图层_6" data-name="图层 6"><g id="High-velocity_exhaust_system" data-name="High-velocity exhaust system"><rect class="cls-1" x="40.15" width="22.32" height="28.87"/><rect class="cls-2" x="30.81" y="44.03" width="40.99" height="35.24"/><rect class="cls-3" x="30.81" y="44.03" width="40.99" height="9.26"/><rect class="cls-4" x="30.81" y="70.62" width="40.99" height="8.64"/><polygon class="cls-5" points="71.8 44.02 30.81 44.02 40.15 28.87 62.47 28.87 71.8 44.02"/><polygon class="cls-6" points="71.8 79.27 30.81 79.27 40.15 94.42 62.47 94.42 71.8 79.27"/><rect class="cls-7" x="30.81" y="94.42" width="40.99" height="10.2"/><polygon class="cls-8" points="30.81 104.62 0 104.62 30.81 98.95 30.81 104.62"/><polygon class="cls-9" points="71.8 104.62 102.61 104.62 71.8 98.95 71.8 104.62"/><rect class="cls-10" y="104.62" width="102.61" height="45.38"/><polygon class="cls-11" points="109.64 141.5 102.61 141.5 102.61 113.11 119.86 113.11 119.86 117.22 109.64 141.5"/><line class="cls-12" x1="30.81" y1="96.78" x2="71.8" y2="96.78"/><line class="cls-12" y1="108.23" x2="102.61" y2="108.23"/><ellipse class="cls-13" cx="51.31" cy="58.41" rx="9.88" ry="18.69"/></g></g></g></svg>