<svg xmlns="http://www.w3.org/2000/svg" xmlns:xlink="http://www.w3.org/1999/xlink" viewBox="0 0 150 44.33"><defs><style>.cls-1{fill:#dadbe0;}.cls-2{fill:url(#未命名的渐变_143);}.cls-3{fill:url(#未命名的渐变_143-2);}.cls-4{fill:url(#未命名的渐变_143-3);}.cls-5{fill:url(#未命名的渐变_143-4);}.cls-6{fill:url(#未命名的渐变_143-5);}.cls-7{opacity:0.2;}</style><linearGradient id="未命名的渐变_143" x1="20.85" y1="31.98" x2="20.85" y2="4.57" gradientUnits="userSpaceOnUse"><stop offset="0" stop-color="#b7b7b7"/><stop offset="0.03" stop-color="#9b9d9d"/><stop offset="0.07" stop-color="#878b8b"/><stop offset="0.09" stop-color="#808484"/><stop offset="0.2" stop-color="#a3a6a6"/><stop offset="0.49" stop-color="#f6f6f6"/><stop offset="0.61" stop-color="#f3f3f3"/><stop offset="0.7" stop-color="#eaeaea"/><stop offset="0.77" stop-color="#dbdbdb"/><stop offset="0.83" stop-color="#c5c5c5"/><stop offset="0.9" stop-color="#aaa"/><stop offset="0.95" stop-color="#888"/><stop offset="1" stop-color="#666"/></linearGradient><linearGradient id="未命名的渐变_143-2" x1="140.53" y1="44.33" x2="140.53" y2="0" xlink:href="#未命名的渐变_143"/><linearGradient id="未命名的渐变_143-3" x1="27.83" y1="7.08" x2="140.23" y2="7.08" xlink:href="#未命名的渐变_143"/><linearGradient id="未命名的渐变_143-4" x1="0" y1="40.42" x2="131.14" y2="40.42" xlink:href="#未命名的渐变_143"/><linearGradient id="未命名的渐变_143-5" x1="0" y1="18.25" x2="149.96" y2="18.25" xlink:href="#未命名的渐变_143"/></defs><title>Homogenize Tank（均质罐）</title><g id="图层_2" data-name="图层 2"><g id="图层_104" data-name="图层 104"><g id="Homogenize_Tank_均质罐_" data-name="Homogenize Tank（均质罐）"><polygon class="cls-1" points="124.09 38.49 3.31 36.51 24.48 3.21 142.54 2.85 124.09 38.49"/><polygon class="cls-2" points="14.98 31.98 11 31.98 26.72 4.57 30.7 4.57 14.98 31.98"/><polygon class="cls-3" points="131.06 36.87 131.14 44.33 150 7.46 149.92 0 131.06 36.87"/><rect class="cls-4" x="27.83" y="4.57" width="112.41" height="5.02"/><rect class="cls-5" y="36.5" width="131.14" height="7.83"/><path class="cls-6" d="M21.36,0,0,36.5H131.14L150,0ZM124.09,32H11.59L27.73,4.57h112.5Z"/></g></g></g></svg>