<svg xmlns="http://www.w3.org/2000/svg" xmlns:xlink="http://www.w3.org/1999/xlink" viewBox="0 0 123.85 149.86"><defs><style>.cls-1{fill:url(#未命名的渐变_105);}.cls-2{fill:url(#未命名的渐变_67);}.cls-3{fill:url(#未命名的渐变_67-2);}.cls-4{fill:url(#未命名的渐变_67-3);}.cls-5{fill:url(#未命名的渐变_67-4);}.cls-6{fill:url(#未命名的渐变_67-5);}.cls-7{fill:url(#未命名的渐变_67-6);}.cls-8{fill:url(#未命名的渐变_67-7);}.cls-9{fill:url(#未命名的渐变_67-8);}.cls-10{fill:url(#未命名的渐变_67-9);}.cls-11{fill:url(#未命名的渐变_67-10);}.cls-12{fill:url(#未命名的渐变_67-11);}.cls-13{fill:url(#未命名的渐变_67-12);}.cls-14{fill:url(#未命名的渐变_67-13);}.cls-15{fill:url(#未命名的渐变_67-14);}.cls-16{fill:url(#未命名的渐变_67-15);}.cls-17{fill:url(#未命名的渐变_67-16);}.cls-18{fill:url(#未命名的渐变_67-17);}.cls-19{fill:url(#未命名的渐变_67-18);}.cls-20{fill:url(#未命名的渐变_67-19);}.cls-21{fill:url(#未命名的渐变_67-20);}.cls-22{fill:url(#未命名的渐变_67-21);}.cls-23{fill:url(#未命名的渐变_67-22);}.cls-24{fill:url(#未命名的渐变_67-23);}.cls-25{fill:#373332;}.cls-26{opacity:0.2;}</style><linearGradient id="未命名的渐变_105" x1="2.68" y1="67.81" x2="121.52" y2="67.81" gradientUnits="userSpaceOnUse"><stop offset="0" stop-color="#e2e2e2"/><stop offset="0.03" stop-color="#d0d0d0"/><stop offset="0.06" stop-color="#bcbcbc"/><stop offset="0.09" stop-color="#b5b5b5"/><stop offset="0.49" stop-color="#f6f6f6"/><stop offset="0.63" stop-color="#f3f3f3"/><stop offset="0.73" stop-color="#eaeaea"/><stop offset="0.82" stop-color="#dbdbdb"/><stop offset="0.9" stop-color="#c6c6c6"/><stop offset="0.97" stop-color="#aaa"/><stop offset="1" stop-color="#9b9b9b"/></linearGradient><linearGradient id="未命名的渐变_67" x1="1.62" y1="8.4" x2="5.37" y2="8.4" gradientUnits="userSpaceOnUse"><stop offset="0" stop-color="#6b6b6b"/><stop offset="0.11" stop-color="#767676"/><stop offset="0.3" stop-color="#959595"/><stop offset="0.41" stop-color="#aaa"/><stop offset="0.56" stop-color="#ccc"/><stop offset="0.71" stop-color="#eaeaea"/><stop offset="0.8" stop-color="#f6f6f6"/><stop offset="0.83" stop-color="#ededed"/><stop offset="0.87" stop-color="#d4d4d4"/><stop offset="0.92" stop-color="#ababab"/><stop offset="0.98" stop-color="#737373"/><stop offset="0.99" stop-color="#666"/></linearGradient><linearGradient id="未命名的渐变_67-2" x1="13.21" y1="8.4" x2="16.96" y2="8.4" xlink:href="#未命名的渐变_67"/><linearGradient id="未命名的渐变_67-3" x1="25.04" y1="8.4" x2="28.79" y2="8.4" xlink:href="#未命名的渐变_67"/><linearGradient id="未命名的渐变_67-4" x1="36.87" y1="8.4" x2="40.62" y2="8.4" xlink:href="#未命名的渐变_67"/><linearGradient id="未命名的渐变_67-5" x1="48.48" y1="8.4" x2="52.23" y2="8.4" xlink:href="#未命名的渐变_67"/><linearGradient id="未命名的渐变_67-6" x1="60.09" y1="8.4" x2="63.84" y2="8.4" xlink:href="#未命名的渐变_67"/><linearGradient id="未命名的渐变_67-7" x1="71.7" y1="8.4" x2="75.44" y2="8.4" xlink:href="#未命名的渐变_67"/><linearGradient id="未命名的渐变_67-8" x1="83.31" y1="8.4" x2="87.05" y2="8.4" xlink:href="#未命名的渐变_67"/><linearGradient id="未命名的渐变_67-9" x1="94.92" y1="8.4" x2="98.66" y2="8.4" xlink:href="#未命名的渐变_67"/><linearGradient id="未命名的渐变_67-10" x1="106.53" y1="8.4" x2="110.27" y2="8.4" xlink:href="#未命名的渐变_67"/><linearGradient id="未命名的渐变_67-11" x1="118.14" y1="8.4" x2="121.88" y2="8.4" xlink:href="#未命名的渐变_67"/><linearGradient id="未命名的渐变_67-12" x1="0.35" y1="659.19" x2="123.85" y2="659.19" gradientTransform="matrix(1, 0, 0, -3.25, 0, 2151.6)" xlink:href="#未命名的渐变_67"/><linearGradient id="未命名的渐变_67-13" x1="2.68" y1="656.13" x2="121.33" y2="656.13" gradientTransform="matrix(1, 0, 0, -3.25, 0, 2151.6)" xlink:href="#未命名的渐变_67"/><linearGradient id="未命名的渐变_67-14" x1="2.68" y1="652.54" x2="121.33" y2="652.54" gradientTransform="matrix(1, 0, 0, -3.25, 0, 2151.6)" xlink:href="#未命名的渐变_67"/><linearGradient id="未命名的渐变_67-15" x1="2.68" y1="648.94" x2="121.33" y2="648.94" gradientTransform="matrix(1, 0, 0, -3.25, 0, 2151.6)" xlink:href="#未命名的渐变_67"/><linearGradient id="未命名的渐变_67-16" x1="2.68" y1="645.34" x2="121.33" y2="645.34" gradientTransform="matrix(1, 0, 0, -3.25, 0, 2151.6)" xlink:href="#未命名的渐变_67"/><linearGradient id="未命名的渐变_67-17" x1="2.68" y1="641.74" x2="121.33" y2="641.74" gradientTransform="matrix(1, 0, 0, -3.25, 0, 2151.6)" xlink:href="#未命名的渐变_67"/><linearGradient id="未命名的渐变_67-18" x1="2.68" y1="638.14" x2="121.33" y2="638.14" gradientTransform="matrix(1, 0, 0, -3.25, 0, 2151.6)" xlink:href="#未命名的渐变_67"/><linearGradient id="未命名的渐变_67-19" x1="2.68" y1="634.55" x2="121.33" y2="634.55" gradientTransform="matrix(1, 0, 0, -3.25, 0, 2151.6)" xlink:href="#未命名的渐变_67"/><linearGradient id="未命名的渐变_67-20" x1="2.68" y1="630.95" x2="121.33" y2="630.95" gradientTransform="matrix(1, 0, 0, -3.25, 0, 2151.6)" xlink:href="#未命名的渐变_67"/><linearGradient id="未命名的渐变_67-21" x1="2.68" y1="627.35" x2="121.33" y2="627.35" gradientTransform="matrix(1, 0, 0, -3.25, 0, 2151.6)" xlink:href="#未命名的渐变_67"/><linearGradient id="未命名的渐变_67-22" x1="2.68" y1="623.75" x2="121.33" y2="623.75" gradientTransform="matrix(1, 0, 0, -3.25, 0, 2151.6)" xlink:href="#未命名的渐变_67"/><linearGradient id="未命名的渐变_67-23" x1="0" y1="620.52" x2="123.51" y2="620.52" gradientTransform="matrix(1, 0, 0, -3.25, 0, 2151.6)" xlink:href="#未命名的渐变_67"/></defs><title>Hot Living Water Tank（热生活水箱）</title><g id="图层_2" data-name="图层 2"><g id="图层_104" data-name="图层 104"><g id="Hot_Living_Water_Tank_热生活水箱_" data-name="Hot Living Water Tank（热生活水箱）"><path class="cls-1" d="M121.33,135.62H2.88V12.9S-4,0,62.45,0C128,0,121.33,12.9,121.33,12.9Z"/><rect class="cls-2" x="1.62" y="7.06" width="3.75" height="2.68"/><rect class="cls-3" x="13.21" y="7.06" width="3.75" height="2.68"/><rect class="cls-4" x="25.04" y="7.06" width="3.75" height="2.68"/><rect class="cls-5" x="36.87" y="7.06" width="3.75" height="2.68"/><rect class="cls-6" x="48.48" y="7.06" width="3.75" height="2.68"/><rect class="cls-7" x="60.09" y="7.06" width="3.75" height="2.68"/><rect class="cls-8" x="71.7" y="7.06" width="3.75" height="2.68"/><rect class="cls-9" x="83.31" y="7.06" width="3.75" height="2.68"/><rect class="cls-10" x="94.92" y="7.06" width="3.75" height="2.68"/><rect class="cls-11" x="106.53" y="7.06" width="3.75" height="2.68"/><rect class="cls-12" x="118.14" y="7.06" width="3.75" height="2.68"/><rect class="cls-13" x="0.35" y="9.74" width="123.51" height="3.16"/><rect class="cls-14" x="2.68" y="19.81" width="118.65" height="2.82"/><rect class="cls-15" x="2.68" y="31.49" width="118.65" height="2.82"/><rect class="cls-16" x="2.68" y="43.18" width="118.65" height="2.82"/><rect class="cls-17" x="2.68" y="54.86" width="118.65" height="2.82"/><rect class="cls-18" x="2.68" y="66.54" width="118.65" height="2.82"/><rect class="cls-19" x="2.68" y="78.23" width="118.65" height="2.82"/><rect class="cls-20" x="2.68" y="89.91" width="118.65" height="2.82"/><rect class="cls-21" x="2.68" y="101.59" width="118.65" height="2.82"/><rect class="cls-22" x="2.68" y="113.27" width="118.65" height="2.82"/><rect class="cls-23" x="2.68" y="124.96" width="118.65" height="2.82"/><rect class="cls-24" y="135.62" width="123.51" height="2.48"/><rect class="cls-25" x="6.74" y="138.1" width="12.63" height="11.76"/><rect class="cls-25" x="104.58" y="138.1" width="12.63" height="11.76"/></g></g></g></svg>