<svg xmlns="http://www.w3.org/2000/svg" xmlns:xlink="http://www.w3.org/1999/xlink" viewBox="0 0 150 144.3"><defs><style>.cls-1{fill:url(#未命名的渐变_59);}.cls-2{fill:#5f6366;}.cls-3{fill:url(#未命名的渐变_127);}.cls-4{fill:url(#未命名的渐变_59-2);}.cls-5{fill:#dfe2e5;}.cls-6{fill:url(#未命名的渐变_117);}.cls-10,.cls-7{fill:#252628;}.cls-7{opacity:0.8;}.cls-8{fill:url(#未命名的渐变_118);}.cls-9{fill:#c4c9cc;}.cls-11,.cls-12{stroke:#505458;stroke-miterlimit:10;stroke-width:0.5px;}.cls-11{fill:url(#未命名的渐变_204);}.cls-12{fill:url(#未命名的渐变_204-2);}.cls-13{fill:#2f3133;}.cls-14{fill:url(#未命名的渐变_69);}.cls-15{opacity:0.2;}</style><linearGradient id="未命名的渐变_59" x1="75" y1="131.88" x2="75" y2="0.12" gradientUnits="userSpaceOnUse"><stop offset="0" stop-color="#d7dce0"/><stop offset="1" stop-color="#8a9099"/></linearGradient><linearGradient id="未命名的渐变_127" x1="0.13" y1="138.16" x2="149.88" y2="138.16" gradientUnits="userSpaceOnUse"><stop offset="0" stop-color="#929699"/><stop offset="1" stop-color="#5c6066"/></linearGradient><linearGradient id="未命名的渐变_59-2" y1="131.88" x2="75" y2="57.41" xlink:href="#未命名的渐变_59"/><linearGradient id="未命名的渐变_117" x1="54.26" y1="52.73" x2="54.26" y2="12.78" gradientUnits="userSpaceOnUse"><stop offset="0" stop-color="#e7f1ff"/><stop offset="0.05" stop-color="#abb2bd"/><stop offset="0.08" stop-color="#a2a8b3"/><stop offset="0.74" stop-color="#747980"/><stop offset="0.85" stop-color="#45474d"/><stop offset="1" stop-color="#5c6066"/></linearGradient><linearGradient id="未命名的渐变_118" x1="46.45" y1="40.01" x2="46.45" y2="22.63" gradientUnits="userSpaceOnUse"><stop offset="0.02" stop-color="#767b82"/><stop offset="0.27" stop-color="#9ba1ab"/><stop offset="0.61" stop-color="#d7dce0"/><stop offset="0.91" stop-color="#a9b1bb"/><stop offset="1" stop-color="#767b82"/></linearGradient><linearGradient id="未命名的渐变_204" x1="30.54" y1="71.28" x2="35.59" y2="71.28" gradientUnits="userSpaceOnUse"><stop offset="0" stop-color="#9ba1ab"/><stop offset="0" stop-color="#abb1ba"/><stop offset="0.09" stop-color="#abb1ba"/><stop offset="0.46" stop-color="#d7dce0"/><stop offset="1" stop-color="#a9b1bb"/></linearGradient><linearGradient id="未命名的渐变_204-2" x1="114.86" y1="71.28" x2="119.92" y2="71.28" xlink:href="#未命名的渐变_204"/><linearGradient id="未命名的渐变_69" x1="66.6" y1="27.48" x2="66.6" y2="35.94" gradientUnits="userSpaceOnUse"><stop offset="0" stop-color="#d7dce0"/><stop offset="1" stop-color="#45484d"/></linearGradient></defs><title>HVAC compressor(HAVC压缩机)</title><g id="图层_2" data-name="图层 2"><g id="图层_16" data-name="图层 16"><g id="HVAC_compressor_HAVC压缩机_" data-name="HVAC compressor(HAVC压缩机)"><rect class="cls-1" x="0.13" y="0.12" width="149.75" height="131.76"/><path class="cls-2" d="M149.75.25V131.76H.25V.25h149.5M150,0H0V132H150V0Z"/><rect class="cls-3" x="0.13" y="132.13" width="149.75" height="12.04"/><path class="cls-2" d="M149.75,132.26v11.79H.25V132.26h149.5M150,132H0V144.3H150V132Z"/><rect class="cls-4" x="15.3" y="57.41" width="119.4" height="74.47"/><path class="cls-2" d="M134.58,57.54v74.22H15.42V57.54H134.58m.25-.25H15.17V132H134.83V57.29Z"/><path class="cls-2" d="M134.58.25V57H15.42V.25H134.58m.25-.25H15.17V57.29H134.83V0Z"/><rect class="cls-5" x="25.7" y="11.59" width="55.93" height="42.32"/><rect class="cls-6" x="26.89" y="12.78" width="54.74" height="39.94"/><polygon class="cls-7" points="82.83 11.59 82.83 53.92 81.64 53.92 81.64 12.78 26.89 12.78 26.89 11.59 82.83 11.59"/><rect class="cls-7" x="35.45" y="23.82" width="22.01" height="17.38"/><rect class="cls-8" x="35.45" y="22.63" width="22.01" height="17.38"/><rect class="cls-9" x="37.61" y="22.63" width="17.69" height="17.38"/><rect class="cls-10" x="37.61" y="25.91" width="17.69" height="10.81"/><circle class="cls-11" cx="33.07" cy="71.28" r="2.53"/><circle class="cls-12" cx="117.39" cy="71.28" r="2.53"/><circle class="cls-13" cx="66.6" cy="33.02" r="4.23"/><circle class="cls-14" cx="66.6" cy="31.71" r="4.23"/></g></g></g></svg>