<svg width="24" height="24" viewBox="0 0 24 24" fill="none" xmlns="http://www.w3.org/2000/svg">
<path d="M19 12L19.5547 11.1679C19.8329 11.3534 20 11.6656 20 12C20 12.3344 19.8329 12.6466 19.5547 12.832L19 12ZM7 20L7.5547 20.8321C7.24784 21.0366 6.8533 21.0557 6.52814 20.8817C6.20298 20.7077 6 20.3688 6 20H7ZM7 4L6 4C6 3.6312 6.20298 3.29235 6.52814 3.11833C6.8533 2.94431 7.24784 2.96338 7.5547 3.16795L7 4ZM19.5547 12.832L7.5547 20.8321L6.4453 19.1679L18.4453 11.1679L19.5547 12.832ZM18.4453 12.832L6.4453 4.83205L7.5547 3.16795L19.5547 11.1679L18.4453 12.832ZM8 4L8 20H6L6 4L8 4Z" fill="#525252"/>
</svg>
