<svg xmlns="http://www.w3.org/2000/svg" xmlns:xlink="http://www.w3.org/1999/xlink" viewBox="0 0 76.3 150"><defs><style>.cls-1{fill:url(#未命名的渐变_143);}.cls-2{fill:url(#未命名的渐变_143-2);}.cls-3{fill:url(#未命名的渐变_143-3);}.cls-4{fill:url(#未命名的渐变_143-4);}.cls-5{fill:url(#未命名的渐变_143-5);}.cls-6{fill:url(#未命名的渐变_143-6);}.cls-7{fill:url(#未命名的渐变_143-7);}.cls-8{fill:url(#未命名的渐变_143-8);}.cls-9{fill:url(#未命名的渐变_143-9);}.cls-10{fill:url(#未命名的渐变_143-10);}.cls-11{fill:url(#未命名的渐变_143-11);}.cls-12{fill:url(#未命名的渐变_143-12);}.cls-13{fill:url(#未命名的渐变_143-13);}.cls-14{fill:url(#未命名的渐变_143-14);}.cls-15{fill:url(#未命名的渐变_143-15);}.cls-16{fill:url(#未命名的渐变_143-16);}.cls-17{fill:url(#未命名的渐变_143-17);}.cls-18{fill:url(#未命名的渐变_105);}.cls-19{fill:url(#未命名的渐变_143-18);}.cls-20{fill:url(#未命名的渐变_143-19);}.cls-21{fill:url(#未命名的渐变_143-20);}.cls-22{fill:url(#未命名的渐变_143-21);}.cls-23{fill:url(#未命名的渐变_143-22);}.cls-24{fill:url(#未命名的渐变_143-23);}.cls-25{fill:url(#未命名的渐变_143-24);}.cls-26{fill:url(#未命名的渐变_143-25);}.cls-27{fill:url(#未命名的渐变_143-26);}.cls-28{fill:url(#未命名的渐变_143-27);}.cls-29{fill:url(#未命名的渐变_143-28);}.cls-30{fill:url(#未命名的渐变_143-29);}.cls-31{fill:url(#未命名的渐变_143-30);}.cls-32{fill:url(#未命名的渐变_143-31);}.cls-33{fill:url(#未命名的渐变_143-32);}.cls-34{fill:url(#未命名的渐变_143-33);}.cls-35{fill:url(#未命名的渐变_143-34);}.cls-36{fill:url(#未命名的渐变_143-35);}.cls-37{fill:url(#未命名的渐变_143-36);}.cls-38{fill:url(#未命名的渐变_143-37);}.cls-39{fill:url(#未命名的渐变_143-38);}.cls-40{fill:url(#未命名的渐变_74);}.cls-41{fill:url(#未命名的渐变_74-2);}.cls-42{opacity:0.2;}</style><linearGradient id="未命名的渐变_143" x1="0.82" y1="84.88" x2="0.82" y2="79.2" gradientUnits="userSpaceOnUse"><stop offset="0" stop-color="#b7b7b7"/><stop offset="0.03" stop-color="#9b9d9d"/><stop offset="0.07" stop-color="#878b8b"/><stop offset="0.09" stop-color="#808484"/><stop offset="0.2" stop-color="#a3a6a6"/><stop offset="0.49" stop-color="#f6f6f6"/><stop offset="0.61" stop-color="#f3f3f3"/><stop offset="0.7" stop-color="#eaeaea"/><stop offset="0.77" stop-color="#dbdbdb"/><stop offset="0.83" stop-color="#c5c5c5"/><stop offset="0.9" stop-color="#aaa"/><stop offset="0.95" stop-color="#888"/><stop offset="1" stop-color="#666"/></linearGradient><linearGradient id="未命名的渐变_143-2" x1="2.47" y1="86.03" x2="2.47" y2="77.95" xlink:href="#未命名的渐变_143"/><linearGradient id="未命名的渐变_143-3" x1="2.47" y1="115.44" x2="2.47" y2="107.36" xlink:href="#未命名的渐变_143"/><linearGradient id="未命名的渐变_143-4" x1="0.82" y1="114.3" x2="0.82" y2="108.61" xlink:href="#未命名的渐变_143"/><linearGradient id="未命名的渐变_143-5" x1="-145.59" y1="115.65" x2="-145.59" y2="107.36" gradientTransform="matrix(1, 0, 0, -1, 219.16, 223.02)" xlink:href="#未命名的渐变_143"/><linearGradient id="未命名的渐变_143-6" x1="-147.42" y1="114.48" x2="-147.42" y2="108.65" gradientTransform="matrix(1, 0, 0, -1, 222.81, 223.13)" xlink:href="#未命名的渐变_143"/><linearGradient id="未命名的渐变_143-7" x1="-145.59" y1="125.77" x2="-145.59" y2="117.48" gradientTransform="matrix(1, 0, 0, -1, 219.16, 243.25)" xlink:href="#未命名的渐变_143"/><linearGradient id="未命名的渐变_143-8" x1="-147.42" y1="124.59" x2="-147.42" y2="118.76" gradientTransform="matrix(1, 0, 0, -1, 222.81, 243.36)" xlink:href="#未命名的渐变_143"/><linearGradient id="未命名的渐变_143-9" x1="-145.59" y1="64.69" x2="-145.59" y2="56.4" gradientTransform="matrix(1, 0, 0, -1, 219.16, 121.09)" xlink:href="#未命名的渐变_143"/><linearGradient id="未命名的渐变_143-10" x1="-147.42" y1="63.52" x2="-147.42" y2="57.68" gradientTransform="matrix(1, 0, 0, -1, 222.81, 121.2)" xlink:href="#未命名的渐变_143"/><linearGradient id="未命名的渐变_143-11" x1="-145.59" y1="74.8" x2="-145.59" y2="66.51" gradientTransform="matrix(1, 0, 0, -1, 219.16, 141.32)" xlink:href="#未命名的渐变_143"/><linearGradient id="未命名的渐变_143-12" x1="-147.42" y1="73.63" x2="-147.42" y2="67.8" gradientTransform="matrix(1, 0, 0, -1, 222.81, 141.43)" xlink:href="#未命名的渐变_143"/><linearGradient id="未命名的渐变_143-13" x1="-145.59" y1="21.97" x2="-145.59" y2="13.67" gradientTransform="matrix(1, 0, 0, -1, 219.16, 35.64)" xlink:href="#未命名的渐变_143"/><linearGradient id="未命名的渐变_143-14" x1="-147.42" y1="20.79" x2="-147.42" y2="14.96" gradientTransform="matrix(1, 0, 0, -1, 222.81, 35.75)" xlink:href="#未命名的渐变_143"/><linearGradient id="未命名的渐变_143-15" x1="-145.59" y1="32.08" x2="-145.59" y2="23.79" gradientTransform="matrix(1, 0, 0, -1, 219.16, 55.87)" xlink:href="#未命名的渐变_143"/><linearGradient id="未命名的渐变_143-16" x1="-147.42" y1="30.91" x2="-147.42" y2="25.07" gradientTransform="matrix(1, 0, 0, -1, 222.81, 55.98)" xlink:href="#未命名的渐变_143"/><linearGradient id="未命名的渐变_143-17" x1="20.62" y1="2.09" x2="55.36" y2="2.09" xlink:href="#未命名的渐变_143"/><linearGradient id="未命名的渐变_105" x1="1490.68" y1="987.77" x2="1490.68" y2="918.11" gradientTransform="matrix(0, -1, -1, 0, 991.23, 1559.43)" gradientUnits="userSpaceOnUse"><stop offset="0" stop-color="#e2e2e2"/><stop offset="0.03" stop-color="#d0d0d0"/><stop offset="0.06" stop-color="#bcbcbc"/><stop offset="0.09" stop-color="#b5b5b5"/><stop offset="0.49" stop-color="#f6f6f6"/><stop offset="0.63" stop-color="#f3f3f3"/><stop offset="0.73" stop-color="#eaeaea"/><stop offset="0.82" stop-color="#dbdbdb"/><stop offset="0.9" stop-color="#c6c6c6"/><stop offset="0.97" stop-color="#aaa"/><stop offset="1" stop-color="#9b9b9b"/></linearGradient><linearGradient id="未命名的渐变_143-18" x1="-1011.28" y1="1567.81" x2="-1011.89" y2="1567.81" gradientTransform="translate(1605.79 2957.3) rotate(90) scale(2.91 1)" xlink:href="#未命名的渐变_143"/><linearGradient id="未命名的渐变_143-19" x1="-1009.9" y1="1567.81" x2="-1010.51" y2="1567.81" gradientTransform="translate(1605.79 2957.3) rotate(90) scale(2.91 1)" xlink:href="#未命名的渐变_143"/><linearGradient id="未命名的渐变_143-20" x1="-1008.52" y1="1567.81" x2="-1009.13" y2="1567.81" gradientTransform="translate(1605.79 2957.3) rotate(90) scale(2.91 1)" xlink:href="#未命名的渐变_143"/><linearGradient id="未命名的渐变_143-21" x1="-1004.76" y1="1567.81" x2="-1005.37" y2="1567.81" gradientTransform="translate(1605.79 2957.3) rotate(90) scale(2.91 1)" xlink:href="#未命名的渐变_143"/><linearGradient id="未命名的渐变_143-22" x1="-1003.38" y1="1567.81" x2="-1003.99" y2="1567.81" gradientTransform="translate(1605.79 2957.3) rotate(90) scale(2.91 1)" xlink:href="#未命名的渐变_143"/><linearGradient id="未命名的渐变_143-23" x1="-1002" y1="1567.81" x2="-1002.61" y2="1567.81" gradientTransform="translate(1605.79 2957.3) rotate(90) scale(2.91 1)" xlink:href="#未命名的渐变_143"/><linearGradient id="未命名的渐变_143-24" x1="-998.28" y1="1567.81" x2="-998.89" y2="1567.81" gradientTransform="translate(1605.79 2957.3) rotate(90) scale(2.91 1)" xlink:href="#未命名的渐变_143"/><linearGradient id="未命名的渐变_143-25" x1="-996.9" y1="1567.81" x2="-997.51" y2="1567.81" gradientTransform="translate(1605.79 2957.3) rotate(90) scale(2.91 1)" xlink:href="#未命名的渐变_143"/><linearGradient id="未命名的渐变_143-26" x1="-995.52" y1="1567.81" x2="-996.13" y2="1567.81" gradientTransform="translate(1605.79 2957.3) rotate(90) scale(2.91 1)" xlink:href="#未命名的渐变_143"/><linearGradient id="未命名的渐变_143-27" x1="-991.91" y1="1567.81" x2="-992.52" y2="1567.81" gradientTransform="translate(1605.79 2957.3) rotate(90) scale(2.91 1)" xlink:href="#未命名的渐变_143"/><linearGradient id="未命名的渐变_143-28" x1="-990.53" y1="1567.81" x2="-991.13" y2="1567.81" gradientTransform="translate(1605.79 2957.3) rotate(90) scale(2.91 1)" xlink:href="#未命名的渐变_143"/><linearGradient id="未命名的渐变_143-29" x1="-989.15" y1="1567.81" x2="-989.75" y2="1567.81" gradientTransform="translate(1605.79 2957.3) rotate(90) scale(2.91 1)" xlink:href="#未命名的渐变_143"/><linearGradient id="未命名的渐变_143-30" x1="-985.54" y1="1567.81" x2="-986.14" y2="1567.81" gradientTransform="translate(1605.79 2957.3) rotate(90) scale(2.91 1)" xlink:href="#未命名的渐变_143"/><linearGradient id="未命名的渐变_143-31" x1="-984.15" y1="1567.81" x2="-984.76" y2="1567.81" gradientTransform="translate(1605.79 2957.3) rotate(90) scale(2.91 1)" xlink:href="#未命名的渐变_143"/><linearGradient id="未命名的渐变_143-32" x1="-982.77" y1="1567.81" x2="-983.38" y2="1567.81" gradientTransform="translate(1605.79 2957.3) rotate(90) scale(2.91 1)" xlink:href="#未命名的渐变_143"/><linearGradient id="未命名的渐变_143-33" x1="-979.16" y1="1567.81" x2="-979.77" y2="1567.81" gradientTransform="translate(1605.79 2957.3) rotate(90) scale(2.91 1)" xlink:href="#未命名的渐变_143"/><linearGradient id="未命名的渐变_143-34" x1="-977.78" y1="1567.81" x2="-978.39" y2="1567.81" gradientTransform="translate(1605.79 2957.3) rotate(90) scale(2.91 1)" xlink:href="#未命名的渐变_143"/><linearGradient id="未命名的渐变_143-35" x1="-976.4" y1="1567.81" x2="-977.01" y2="1567.81" gradientTransform="translate(1605.79 2957.3) rotate(90) scale(2.91 1)" xlink:href="#未命名的渐变_143"/><linearGradient id="未命名的渐变_143-36" x1="-972.61" y1="1602.93" x2="-972.61" y2="1532.74" gradientTransform="translate(1605.79 2957.3) rotate(90) scale(2.91 1)" xlink:href="#未命名的渐变_143"/><linearGradient id="未命名的渐变_143-37" x1="-972.01" y1="1602.93" x2="-972.01" y2="1532.74" gradientTransform="translate(1605.79 2957.3) rotate(90) scale(2.91 1)" xlink:href="#未命名的渐变_143"/><linearGradient id="未命名的渐变_143-38" x1="-967.31" y1="1594.42" x2="-967.31" y2="1541.74" gradientTransform="translate(1605.79 2957.3) rotate(90) scale(2.91 1)" xlink:href="#未命名的渐变_143"/><linearGradient id="未命名的渐变_74" x1="6.08" y1="139.54" x2="11.37" y2="139.54" gradientUnits="userSpaceOnUse"><stop offset="0" stop-color="#6b6b6b"/><stop offset="0.01" stop-color="#767676"/><stop offset="0.03" stop-color="#959595"/><stop offset="0.04" stop-color="#aaa"/><stop offset="0.37" stop-color="#ccc"/><stop offset="0.74" stop-color="#eaeaea"/><stop offset="0.94" stop-color="#f6f6f6"/><stop offset="0.95" stop-color="#ededed"/><stop offset="0.96" stop-color="#d4d4d4"/><stop offset="0.97" stop-color="#ababab"/><stop offset="0.99" stop-color="#737373"/><stop offset="0.99" stop-color="#666"/></linearGradient><linearGradient id="未命名的渐变_74-2" x1="64.05" y1="139.54" x2="69.34" y2="139.54" xlink:href="#未命名的渐变_74"/></defs><title>Insulation cans(保温罐)</title><g id="图层_2" data-name="图层 2"><g id="图层_104" data-name="图层 104"><g id="Insulation_cans_保温罐_" data-name="Insulation cans(保温罐)"><rect class="cls-1" y="79.2" width="1.64" height="5.68"/><rect class="cls-2" x="1.64" y="77.95" width="1.64" height="8.08"/><rect class="cls-3" x="1.64" y="107.36" width="1.64" height="8.08"/><rect class="cls-4" y="108.61" width="1.64" height="5.68"/><rect class="cls-5" x="72.66" y="107.36" width="1.82" height="8.29" transform="translate(147.14 223.02) rotate(180)"/><rect class="cls-6" x="74.48" y="108.65" width="1.82" height="5.83" transform="translate(150.79 223.13) rotate(180)"/><rect class="cls-7" x="72.66" y="117.48" width="1.82" height="8.29" transform="translate(147.14 243.25) rotate(180)"/><rect class="cls-8" x="74.48" y="118.76" width="1.82" height="5.83" transform="translate(150.79 243.36) rotate(180)"/><rect class="cls-9" x="72.66" y="56.4" width="1.82" height="8.29" transform="translate(147.14 121.09) rotate(180)"/><rect class="cls-10" x="74.48" y="57.68" width="1.82" height="5.83" transform="translate(150.79 121.2) rotate(180)"/><rect class="cls-11" x="72.66" y="66.51" width="1.82" height="8.29" transform="translate(147.14 141.32) rotate(180)"/><rect class="cls-12" x="74.48" y="67.8" width="1.82" height="5.83" transform="translate(150.79 141.43) rotate(180)"/><rect class="cls-13" x="72.66" y="13.67" width="1.82" height="8.29" transform="translate(147.14 35.64) rotate(180)"/><rect class="cls-14" x="74.48" y="14.96" width="1.82" height="5.83" transform="translate(150.79 35.75) rotate(180)"/><rect class="cls-15" x="72.66" y="23.79" width="1.82" height="8.29" transform="translate(147.14 55.87) rotate(180)"/><rect class="cls-16" x="74.48" y="25.07" width="1.82" height="5.83" transform="translate(150.79 55.98) rotate(180)"/><rect class="cls-17" x="20.62" width="34.74" height="4.18"/><path class="cls-18" d="M73.12,13.47V127.61s0,6.49-34.83,6.88c-33.91.38-34.84-6.88-34.84-6.88V13.47S4.94,3,38.29,3C73.12,3,73.12,13.47,73.12,13.47Z"/><polygon class="cls-19" points="3.29 13.88 3.29 12.12 72.66 12.12 72.66 13.81 3.29 13.88"/><polygon class="cls-20" points="3.29 17.91 3.29 16.14 72.66 16.14 72.66 17.83 3.29 17.91"/><polygon class="cls-21" points="3.29 21.93 3.29 20.16 72.66 20.16 72.66 21.85 3.29 21.93"/><polygon class="cls-22" points="3.29 32.86 3.29 31.09 72.66 31.09 72.66 32.79 3.29 32.86"/><polygon class="cls-23" points="3.29 36.88 3.29 35.11 72.66 35.11 72.66 36.81 3.29 36.88"/><polygon class="cls-24" points="3.29 40.9 3.29 39.13 72.66 39.13 72.66 40.83 3.29 40.9"/><polygon class="cls-25" points="3.29 51.73 3.29 49.96 72.66 49.96 72.66 51.66 3.29 51.73"/><polygon class="cls-26" points="3.29 55.75 3.29 53.98 72.66 53.98 72.66 55.68 3.29 55.75"/><polygon class="cls-27" points="3.29 59.77 3.29 58.01 72.66 58.01 72.66 59.7 3.29 59.77"/><polygon class="cls-28" points="3.29 70.28 3.29 68.51 72.66 68.51 72.66 70.21 3.29 70.28"/><polygon class="cls-29" points="3.29 74.3 3.29 72.53 72.66 72.53 72.66 74.23 3.29 74.3"/><polygon class="cls-30" points="3.29 78.32 3.29 76.56 72.66 76.56 72.66 78.25 3.29 78.32"/><polygon class="cls-31" points="3.29 88.83 3.29 87.06 72.66 87.06 72.66 88.76 3.29 88.83"/><polygon class="cls-32" points="3.29 92.85 3.29 91.08 72.66 91.08 72.66 92.78 3.29 92.85"/><polygon class="cls-33" points="3.29 96.87 3.29 95.1 72.66 95.1 72.66 96.8 3.29 96.87"/><polygon class="cls-34" points="3.29 107.38 3.29 105.61 72.66 105.61 72.66 107.31 3.29 107.38"/><polygon class="cls-35" points="3.29 111.4 3.29 109.63 72.66 109.63 72.66 111.33 3.29 111.4"/><polygon class="cls-36" points="3.29 115.42 3.29 113.65 72.66 113.65 72.66 115.35 3.29 115.42"/><polygon class="cls-37" points="2.86 127.32 2.86 125.55 73.05 125.55 73.05 127.25 2.86 127.32"/><polygon class="cls-38" points="2.86 129.09 2.86 127.32 73.05 127.32 73.05 129.02 2.86 129.09"/><polygon class="cls-39" points="11.37 142.98 11.37 140.78 64.05 140.78 64.05 142.88 11.37 142.98"/><rect class="cls-40" x="6.08" y="129.09" width="5.29" height="20.91"/><rect class="cls-41" x="64.05" y="129.09" width="5.29" height="20.91"/></g></g></g></svg>