<svg xmlns="http://www.w3.org/2000/svg" xmlns:xlink="http://www.w3.org/1999/xlink" viewBox="0 0 150 62.09"><defs><style>.cls-1{fill:none;}.cls-2{clip-path:url(#clip-path);}.cls-3{fill:url(#未命名的渐变_143);}.cls-4{fill:url(#未命名的渐变_143-2);}.cls-5{fill:url(#未命名的渐变_143-3);}.cls-6{fill:url(#未命名的渐变_143-4);}.cls-7{fill:url(#未命名的渐变_143-5);}.cls-8{fill:url(#未命名的渐变_143-6);}.cls-9{fill:url(#未命名的渐变_143-7);}.cls-10{fill:url(#未命名的渐变_143-8);}.cls-11{fill:url(#未命名的渐变_143-9);}.cls-12{fill:url(#未命名的渐变_143-10);}.cls-13{fill:url(#未命名的渐变_143-11);}.cls-14{fill:url(#未命名的渐变_143-12);}.cls-15{fill:url(#未命名的渐变_143-13);}.cls-16{fill:url(#未命名的渐变_143-14);}.cls-17{fill:url(#未命名的渐变_143-15);}.cls-18{fill:url(#未命名的渐变_143-16);}.cls-19{fill:url(#未命名的渐变_143-17);}.cls-20{fill:url(#未命名的渐变_143-18);}.cls-21{fill:url(#未命名的渐变_143-19);}.cls-22{fill:url(#未命名的渐变_143-20);}.cls-23{fill:url(#未命名的渐变_143-21);}.cls-24{fill:url(#未命名的渐变_143-22);}.cls-25{fill:url(#未命名的渐变_143-23);}.cls-26{fill:url(#未命名的渐变_143-24);}.cls-27{fill:url(#未命名的渐变_143-25);}.cls-28{fill:url(#未命名的渐变_143-26);}.cls-29{fill:url(#未命名的渐变_143-27);}.cls-30{fill:url(#未命名的渐变_143-28);}.cls-31{fill:url(#未命名的渐变_143-29);}.cls-32{fill:url(#未命名的渐变_143-30);}.cls-33{fill:url(#未命名的渐变_143-31);}.cls-34{fill:url(#未命名的渐变_143-32);}.cls-35{fill:url(#未命名的渐变_143-33);}.cls-36{fill:url(#未命名的渐变_143-34);}.cls-37{fill:url(#未命名的渐变_143-35);}.cls-38{fill:url(#未命名的渐变_143-36);}.cls-39{fill:url(#未命名的渐变_143-37);}.cls-40{fill:url(#未命名的渐变_143-38);}.cls-41{fill:url(#未命名的渐变_143-39);}.cls-42{fill:url(#未命名的渐变_143-40);}.cls-43{fill:url(#未命名的渐变_143-41);}.cls-44{fill:url(#未命名的渐变_143-42);}.cls-45{fill:url(#未命名的渐变_143-43);}.cls-46{fill:url(#未命名的渐变_143-44);}.cls-47{fill:url(#未命名的渐变_143-45);}.cls-48{fill:url(#未命名的渐变_143-46);}.cls-49{fill:url(#未命名的渐变_143-47);}.cls-50{fill:url(#未命名的渐变_143-48);}.cls-51{fill:url(#未命名的渐变_143-49);}.cls-52{fill:url(#未命名的渐变_143-50);}.cls-53{fill:url(#未命名的渐变_143-51);}.cls-54{fill:url(#未命名的渐变_143-52);}.cls-55{fill:url(#未命名的渐变_143-53);}.cls-56{fill:url(#未命名的渐变_143-54);}.cls-57{fill:url(#未命名的渐变_143-55);}.cls-58{fill:url(#未命名的渐变_143-56);}.cls-59{fill:url(#未命名的渐变_143-57);}.cls-60{fill:url(#未命名的渐变_143-58);}.cls-61{fill:url(#未命名的渐变_143-59);}.cls-62{fill:url(#未命名的渐变_143-60);}.cls-63{fill:url(#未命名的渐变_143-61);}.cls-64{fill:url(#未命名的渐变_143-62);}.cls-65{fill:url(#未命名的渐变_143-63);}.cls-66{fill:url(#未命名的渐变_143-64);}.cls-67{fill:url(#未命名的渐变_143-65);}.cls-68{fill:url(#未命名的渐变_143-66);}.cls-69{fill:url(#未命名的渐变_143-67);}.cls-70{fill:url(#未命名的渐变_143-68);}.cls-71{fill:url(#未命名的渐变_143-69);}.cls-72{fill:url(#未命名的渐变_143-70);}.cls-73{fill:url(#未命名的渐变_143-71);}.cls-74{fill:url(#未命名的渐变_143-72);}.cls-75{fill:url(#未命名的渐变_143-73);}.cls-76{fill:url(#未命名的渐变_143-74);}.cls-77{fill:url(#未命名的渐变_143-75);}.cls-78{fill:url(#未命名的渐变_143-76);}.cls-79{fill:url(#未命名的渐变_143-77);}.cls-80{fill:url(#未命名的渐变_143-78);}.cls-81{fill:url(#未命名的渐变_143-79);}.cls-82{fill:url(#未命名的渐变_143-80);}.cls-83{fill:url(#未命名的渐变_143-81);}.cls-84{fill:url(#未命名的渐变_143-82);}.cls-85{fill:url(#未命名的渐变_143-83);}.cls-86{fill:url(#未命名的渐变_143-84);}.cls-87{fill:url(#未命名的渐变_143-85);}.cls-88{fill:url(#未命名的渐变_143-86);}.cls-89{fill:url(#未命名的渐变_143-87);}.cls-90{fill:url(#未命名的渐变_143-88);}.cls-91{fill:url(#未命名的渐变_143-89);}.cls-92{fill:url(#未命名的渐变_143-90);}.cls-93{fill:url(#未命名的渐变_143-91);}.cls-94{fill:url(#未命名的渐变_143-92);}.cls-95{fill:url(#未命名的渐变_143-93);}.cls-96{fill:url(#未命名的渐变_143-94);}.cls-97{fill:url(#未命名的渐变_143-95);}.cls-98{fill:url(#未命名的渐变_143-96);}.cls-99{fill:url(#未命名的渐变_143-97);}.cls-100{fill:url(#未命名的渐变_143-98);}.cls-101{fill:url(#未命名的渐变_143-99);}.cls-102{fill:url(#未命名的渐变_143-100);}.cls-103{fill:url(#未命名的渐变_143-101);}.cls-104{fill:url(#未命名的渐变_143-102);}.cls-105{fill:url(#未命名的渐变_143-103);}.cls-106{fill:url(#未命名的渐变_143-104);}.cls-107{fill:url(#未命名的渐变_143-105);}.cls-108{fill:url(#未命名的渐变_143-106);}.cls-109{fill:url(#未命名的渐变_143-107);}.cls-110{fill:url(#未命名的渐变_143-108);}.cls-111{fill:url(#未命名的渐变_143-109);}.cls-112{fill:url(#未命名的渐变_143-110);}.cls-113{fill:url(#未命名的渐变_143-111);}.cls-114{fill:url(#未命名的渐变_143-112);}.cls-115{fill:url(#未命名的渐变_143-113);}.cls-116{fill:url(#未命名的渐变_143-114);}.cls-117{fill:url(#未命名的渐变_143-115);}.cls-118{fill:url(#未命名的渐变_143-116);}.cls-119{fill:url(#未命名的渐变_143-117);}.cls-120{fill:url(#未命名的渐变_143-118);}.cls-121{fill:url(#未命名的渐变_143-119);}.cls-122{fill:url(#未命名的渐变_143-120);}.cls-123{fill:url(#未命名的渐变_143-121);}.cls-124{fill:url(#未命名的渐变_143-122);}.cls-125{fill:url(#未命名的渐变_143-123);}.cls-126{fill:url(#未命名的渐变_143-124);}.cls-127{fill:url(#未命名的渐变_143-125);}.cls-128{fill:url(#未命名的渐变_143-126);}.cls-129{fill:url(#未命名的渐变_143-127);}.cls-130{opacity:0.2;}</style><clipPath id="clip-path"><rect class="cls-1" width="150" height="62.96"/></clipPath><linearGradient id="未命名的渐变_143" x1="-157.99" y1="-454.91" x2="-157.99" y2="-517.01" gradientTransform="matrix(1, 0, 0, -1, 157.99, -454.91)" gradientUnits="userSpaceOnUse"><stop offset="0" stop-color="#b7b7b7"/><stop offset="0.03" stop-color="#9b9d9d"/><stop offset="0.07" stop-color="#878b8b"/><stop offset="0.09" stop-color="#808484"/><stop offset="0.2" stop-color="#a3a6a6"/><stop offset="0.49" stop-color="#f6f6f6"/><stop offset="0.61" stop-color="#f3f3f3"/><stop offset="0.7" stop-color="#eaeaea"/><stop offset="0.77" stop-color="#dbdbdb"/><stop offset="0.83" stop-color="#c5c5c5"/><stop offset="0.9" stop-color="#aaa"/><stop offset="0.95" stop-color="#888"/><stop offset="1" stop-color="#666"/></linearGradient><linearGradient id="未命名的渐变_143-2" x1="-156.75" y1="-454.91" x2="-156.75" y2="-517.01" xlink:href="#未命名的渐变_143"/><linearGradient id="未命名的渐变_143-3" x1="-155.51" y1="-454.91" x2="-155.51" y2="-517.01" xlink:href="#未命名的渐变_143"/><linearGradient id="未命名的渐变_143-4" x1="-154.28" y1="-454.91" x2="-154.28" y2="-517.01" xlink:href="#未命名的渐变_143"/><linearGradient id="未命名的渐变_143-5" x1="-153.04" y1="-454.91" x2="-153.04" y2="-517.01" xlink:href="#未命名的渐变_143"/><linearGradient id="未命名的渐变_143-6" x1="-151.8" y1="-454.91" x2="-151.8" y2="-517.01" xlink:href="#未命名的渐变_143"/><linearGradient id="未命名的渐变_143-7" x1="-150.56" y1="-454.91" x2="-150.56" y2="-517.01" xlink:href="#未命名的渐变_143"/><linearGradient id="未命名的渐变_143-8" x1="-149.33" y1="-454.91" x2="-149.33" y2="-517.01" xlink:href="#未命名的渐变_143"/><linearGradient id="未命名的渐变_143-9" x1="-148.09" y1="-454.91" x2="-148.09" y2="-517.01" xlink:href="#未命名的渐变_143"/><linearGradient id="未命名的渐变_143-10" x1="-146.85" y1="-454.91" x2="-146.85" y2="-517.01" xlink:href="#未命名的渐变_143"/><linearGradient id="未命名的渐变_143-11" x1="-145.61" y1="-454.91" x2="-145.61" y2="-517.01" xlink:href="#未命名的渐变_143"/><linearGradient id="未命名的渐变_143-12" x1="-144.38" y1="-454.91" x2="-144.38" y2="-517.01" xlink:href="#未命名的渐变_143"/><linearGradient id="未命名的渐变_143-13" x1="-143.14" y1="-454.91" x2="-143.14" y2="-517.01" xlink:href="#未命名的渐变_143"/><linearGradient id="未命名的渐变_143-14" x1="-141.9" y1="-454.91" x2="-141.9" y2="-517.01" xlink:href="#未命名的渐变_143"/><linearGradient id="未命名的渐变_143-15" x1="-140.66" y1="-454.91" x2="-140.66" y2="-517.01" xlink:href="#未命名的渐变_143"/><linearGradient id="未命名的渐变_143-16" x1="-139.43" y1="-454.91" x2="-139.43" y2="-517.01" xlink:href="#未命名的渐变_143"/><linearGradient id="未命名的渐变_143-17" x1="-138.19" y1="-454.91" x2="-138.19" y2="-517.01" xlink:href="#未命名的渐变_143"/><linearGradient id="未命名的渐变_143-18" x1="-136.95" y1="-454.91" x2="-136.95" y2="-517.01" xlink:href="#未命名的渐变_143"/><linearGradient id="未命名的渐变_143-19" x1="-135.71" y1="-454.91" x2="-135.71" y2="-517.01" xlink:href="#未命名的渐变_143"/><linearGradient id="未命名的渐变_143-20" x1="-134.48" y1="-454.91" x2="-134.48" y2="-517.01" xlink:href="#未命名的渐变_143"/><linearGradient id="未命名的渐变_143-21" x1="-133.24" y1="-454.91" x2="-133.24" y2="-517.01" xlink:href="#未命名的渐变_143"/><linearGradient id="未命名的渐变_143-22" x1="-132" y1="-454.91" x2="-132" y2="-517.01" xlink:href="#未命名的渐变_143"/><linearGradient id="未命名的渐变_143-23" x1="-130.76" y1="-454.91" x2="-130.76" y2="-517.01" xlink:href="#未命名的渐变_143"/><linearGradient id="未命名的渐变_143-24" x1="-129.53" y1="-454.91" x2="-129.53" y2="-517.01" xlink:href="#未命名的渐变_143"/><linearGradient id="未命名的渐变_143-25" x1="-128.29" y1="-454.91" x2="-128.29" y2="-517.01" xlink:href="#未命名的渐变_143"/><linearGradient id="未命名的渐变_143-26" x1="-127.05" y1="-454.91" x2="-127.05" y2="-517.01" xlink:href="#未命名的渐变_143"/><linearGradient id="未命名的渐变_143-27" x1="-125.81" y1="-454.91" x2="-125.81" y2="-517.01" xlink:href="#未命名的渐变_143"/><linearGradient id="未命名的渐变_143-28" x1="-124.58" y1="-454.91" x2="-124.58" y2="-517.01" xlink:href="#未命名的渐变_143"/><linearGradient id="未命名的渐变_143-29" x1="-123.34" y1="-454.91" x2="-123.34" y2="-517.01" xlink:href="#未命名的渐变_143"/><linearGradient id="未命名的渐变_143-30" x1="-122.1" y1="-454.91" x2="-122.1" y2="-517.01" xlink:href="#未命名的渐变_143"/><linearGradient id="未命名的渐变_143-31" x1="-120.86" y1="-454.91" x2="-120.86" y2="-517.01" xlink:href="#未命名的渐变_143"/><linearGradient id="未命名的渐变_143-32" x1="-119.63" y1="-454.91" x2="-119.63" y2="-517.01" xlink:href="#未命名的渐变_143"/><linearGradient id="未命名的渐变_143-33" x1="-118.39" y1="-454.91" x2="-118.39" y2="-517.01" xlink:href="#未命名的渐变_143"/><linearGradient id="未命名的渐变_143-34" x1="-117.15" y1="-454.91" x2="-117.15" y2="-517.01" xlink:href="#未命名的渐变_143"/><linearGradient id="未命名的渐变_143-35" x1="-115.91" y1="-454.91" x2="-115.91" y2="-517.01" xlink:href="#未命名的渐变_143"/><linearGradient id="未命名的渐变_143-36" x1="-114.68" y1="-454.91" x2="-114.68" y2="-517.01" xlink:href="#未命名的渐变_143"/><linearGradient id="未命名的渐变_143-37" x1="-113.44" y1="-454.91" x2="-113.44" y2="-517.01" xlink:href="#未命名的渐变_143"/><linearGradient id="未命名的渐变_143-38" x1="-112.2" y1="-454.91" x2="-112.2" y2="-517.01" xlink:href="#未命名的渐变_143"/><linearGradient id="未命名的渐变_143-39" x1="-110.96" y1="-454.91" x2="-110.96" y2="-517.01" xlink:href="#未命名的渐变_143"/><linearGradient id="未命名的渐变_143-40" x1="-109.73" y1="-454.91" x2="-109.73" y2="-517.01" xlink:href="#未命名的渐变_143"/><linearGradient id="未命名的渐变_143-41" x1="-108.49" y1="-454.91" x2="-108.49" y2="-517.01" xlink:href="#未命名的渐变_143"/><linearGradient id="未命名的渐变_143-42" x1="-107.25" y1="-454.91" x2="-107.25" y2="-517.01" xlink:href="#未命名的渐变_143"/><linearGradient id="未命名的渐变_143-43" x1="-106.01" y1="-454.91" x2="-106.01" y2="-517.01" xlink:href="#未命名的渐变_143"/><linearGradient id="未命名的渐变_143-44" x1="-104.78" y1="-454.91" x2="-104.78" y2="-517.01" xlink:href="#未命名的渐变_143"/><linearGradient id="未命名的渐变_143-45" x1="-103.54" y1="-454.91" x2="-103.54" y2="-517.01" xlink:href="#未命名的渐变_143"/><linearGradient id="未命名的渐变_143-46" x1="-102.3" y1="-454.91" x2="-102.3" y2="-517.01" xlink:href="#未命名的渐变_143"/><linearGradient id="未命名的渐变_143-47" x1="-101.06" y1="-454.91" x2="-101.06" y2="-517.01" xlink:href="#未命名的渐变_143"/><linearGradient id="未命名的渐变_143-48" x1="-99.83" y1="-454.91" x2="-99.83" y2="-517.01" xlink:href="#未命名的渐变_143"/><linearGradient id="未命名的渐变_143-49" x1="-98.59" y1="-454.91" x2="-98.59" y2="-517.01" xlink:href="#未命名的渐变_143"/><linearGradient id="未命名的渐变_143-50" x1="-97.35" y1="-454.91" x2="-97.35" y2="-517.01" xlink:href="#未命名的渐变_143"/><linearGradient id="未命名的渐变_143-51" x1="-96.11" y1="-454.91" x2="-96.11" y2="-517.01" xlink:href="#未命名的渐变_143"/><linearGradient id="未命名的渐变_143-52" x1="-94.88" y1="-454.91" x2="-94.88" y2="-517.01" xlink:href="#未命名的渐变_143"/><linearGradient id="未命名的渐变_143-53" x1="-93.64" y1="-454.91" x2="-93.64" y2="-517.01" xlink:href="#未命名的渐变_143"/><linearGradient id="未命名的渐变_143-54" x1="-92.4" y1="-454.91" x2="-92.4" y2="-517.01" xlink:href="#未命名的渐变_143"/><linearGradient id="未命名的渐变_143-55" x1="-91.16" y1="-454.91" x2="-91.16" y2="-517.01" xlink:href="#未命名的渐变_143"/><linearGradient id="未命名的渐变_143-56" x1="-89.93" y1="-454.91" x2="-89.93" y2="-517.01" xlink:href="#未命名的渐变_143"/><linearGradient id="未命名的渐变_143-57" x1="-88.69" y1="-454.91" x2="-88.69" y2="-517.01" xlink:href="#未命名的渐变_143"/><linearGradient id="未命名的渐变_143-58" x1="-87.45" y1="-454.91" x2="-87.45" y2="-517.01" xlink:href="#未命名的渐变_143"/><linearGradient id="未命名的渐变_143-59" x1="-86.21" y1="-454.91" x2="-86.21" y2="-517.01" xlink:href="#未命名的渐变_143"/><linearGradient id="未命名的渐变_143-60" x1="-84.98" y1="-454.91" x2="-84.98" y2="-517.01" xlink:href="#未命名的渐变_143"/><linearGradient id="未命名的渐变_143-61" x1="-83.74" y1="-454.91" x2="-83.74" y2="-517.01" xlink:href="#未命名的渐变_143"/><linearGradient id="未命名的渐变_143-62" x1="-82.5" y1="-454.91" x2="-82.5" y2="-517.01" xlink:href="#未命名的渐变_143"/><linearGradient id="未命名的渐变_143-63" x1="-81.26" y1="-454.91" x2="-81.26" y2="-517.01" xlink:href="#未命名的渐变_143"/><linearGradient id="未命名的渐变_143-64" x1="-80.03" y1="-454.91" x2="-80.03" y2="-517.01" xlink:href="#未命名的渐变_143"/><linearGradient id="未命名的渐变_143-65" x1="-78.79" y1="-454.91" x2="-78.79" y2="-517.01" xlink:href="#未命名的渐变_143"/><linearGradient id="未命名的渐变_143-66" x1="-77.55" y1="-454.91" x2="-77.55" y2="-517.01" xlink:href="#未命名的渐变_143"/><linearGradient id="未命名的渐变_143-67" x1="-76.31" y1="-454.91" x2="-76.31" y2="-517.01" xlink:href="#未命名的渐变_143"/><linearGradient id="未命名的渐变_143-68" x1="-75.08" y1="-454.91" x2="-75.08" y2="-517.01" xlink:href="#未命名的渐变_143"/><linearGradient id="未命名的渐变_143-69" x1="-73.84" y1="-454.91" x2="-73.84" y2="-517.01" xlink:href="#未命名的渐变_143"/><linearGradient id="未命名的渐变_143-70" x1="-72.6" y1="-454.91" x2="-72.6" y2="-517.01" xlink:href="#未命名的渐变_143"/><linearGradient id="未命名的渐变_143-71" x1="-71.36" y1="-454.91" x2="-71.36" y2="-517.01" xlink:href="#未命名的渐变_143"/><linearGradient id="未命名的渐变_143-72" x1="-70.13" y1="-454.91" x2="-70.13" y2="-517.01" xlink:href="#未命名的渐变_143"/><linearGradient id="未命名的渐变_143-73" x1="-68.89" y1="-454.91" x2="-68.89" y2="-517.01" xlink:href="#未命名的渐变_143"/><linearGradient id="未命名的渐变_143-74" x1="-67.65" y1="-454.91" x2="-67.65" y2="-517.01" xlink:href="#未命名的渐变_143"/><linearGradient id="未命名的渐变_143-75" x1="-66.41" y1="-454.91" x2="-66.41" y2="-517.01" xlink:href="#未命名的渐变_143"/><linearGradient id="未命名的渐变_143-76" x1="-65.18" y1="-454.91" x2="-65.18" y2="-517.01" xlink:href="#未命名的渐变_143"/><linearGradient id="未命名的渐变_143-77" x1="-63.94" y1="-454.91" x2="-63.94" y2="-517.01" xlink:href="#未命名的渐变_143"/><linearGradient id="未命名的渐变_143-78" x1="-62.7" y1="-454.91" x2="-62.7" y2="-517.01" xlink:href="#未命名的渐变_143"/><linearGradient id="未命名的渐变_143-79" x1="-61.46" y1="-454.91" x2="-61.46" y2="-517.01" xlink:href="#未命名的渐变_143"/><linearGradient id="未命名的渐变_143-80" x1="-60.23" y1="-454.91" x2="-60.23" y2="-517.01" xlink:href="#未命名的渐变_143"/><linearGradient id="未命名的渐变_143-81" x1="-58.99" y1="-454.91" x2="-58.99" y2="-517.01" xlink:href="#未命名的渐变_143"/><linearGradient id="未命名的渐变_143-82" x1="-57.75" y1="-454.91" x2="-57.75" y2="-517.01" xlink:href="#未命名的渐变_143"/><linearGradient id="未命名的渐变_143-83" x1="-56.51" y1="-454.91" x2="-56.51" y2="-517.01" xlink:href="#未命名的渐变_143"/><linearGradient id="未命名的渐变_143-84" x1="-55.28" y1="-454.91" x2="-55.28" y2="-517.01" xlink:href="#未命名的渐变_143"/><linearGradient id="未命名的渐变_143-85" x1="-54.04" y1="-454.91" x2="-54.04" y2="-517.01" xlink:href="#未命名的渐变_143"/><linearGradient id="未命名的渐变_143-86" x1="-52.8" y1="-454.91" x2="-52.8" y2="-517.01" xlink:href="#未命名的渐变_143"/><linearGradient id="未命名的渐变_143-87" x1="-51.56" y1="-454.91" x2="-51.56" y2="-517.01" xlink:href="#未命名的渐变_143"/><linearGradient id="未命名的渐变_143-88" x1="-50.33" y1="-454.91" x2="-50.33" y2="-517.01" xlink:href="#未命名的渐变_143"/><linearGradient id="未命名的渐变_143-89" x1="-49.09" y1="-454.91" x2="-49.09" y2="-517.01" xlink:href="#未命名的渐变_143"/><linearGradient id="未命名的渐变_143-90" x1="-47.85" y1="-454.91" x2="-47.85" y2="-517.01" xlink:href="#未命名的渐变_143"/><linearGradient id="未命名的渐变_143-91" x1="-46.61" y1="-454.91" x2="-46.61" y2="-517.01" xlink:href="#未命名的渐变_143"/><linearGradient id="未命名的渐变_143-92" x1="-45.38" y1="-454.91" x2="-45.38" y2="-517.01" xlink:href="#未命名的渐变_143"/><linearGradient id="未命名的渐变_143-93" x1="-44.14" y1="-454.91" x2="-44.14" y2="-517.01" xlink:href="#未命名的渐变_143"/><linearGradient id="未命名的渐变_143-94" x1="-42.9" y1="-454.91" x2="-42.9" y2="-517.01" xlink:href="#未命名的渐变_143"/><linearGradient id="未命名的渐变_143-95" x1="-41.66" y1="-454.91" x2="-41.66" y2="-517.01" xlink:href="#未命名的渐变_143"/><linearGradient id="未命名的渐变_143-96" x1="-40.43" y1="-454.91" x2="-40.43" y2="-517.01" xlink:href="#未命名的渐变_143"/><linearGradient id="未命名的渐变_143-97" x1="-39.19" y1="-454.91" x2="-39.19" y2="-517.01" xlink:href="#未命名的渐变_143"/><linearGradient id="未命名的渐变_143-98" x1="-37.95" y1="-454.91" x2="-37.95" y2="-517.01" xlink:href="#未命名的渐变_143"/><linearGradient id="未命名的渐变_143-99" x1="-36.71" y1="-454.91" x2="-36.71" y2="-517.01" xlink:href="#未命名的渐变_143"/><linearGradient id="未命名的渐变_143-100" x1="-35.48" y1="-454.91" x2="-35.48" y2="-517.01" xlink:href="#未命名的渐变_143"/><linearGradient id="未命名的渐变_143-101" x1="-34.24" y1="-454.91" x2="-34.24" y2="-517.01" xlink:href="#未命名的渐变_143"/><linearGradient id="未命名的渐变_143-102" x1="-33" y1="-454.91" x2="-33" y2="-517.01" xlink:href="#未命名的渐变_143"/><linearGradient id="未命名的渐变_143-103" x1="-31.76" y1="-454.91" x2="-31.76" y2="-517.01" xlink:href="#未命名的渐变_143"/><linearGradient id="未命名的渐变_143-104" x1="-30.53" y1="-454.91" x2="-30.53" y2="-517.01" xlink:href="#未命名的渐变_143"/><linearGradient id="未命名的渐变_143-105" x1="-29.29" y1="-454.91" x2="-29.29" y2="-517.01" xlink:href="#未命名的渐变_143"/><linearGradient id="未命名的渐变_143-106" x1="-28.05" y1="-454.91" x2="-28.05" y2="-517.01" xlink:href="#未命名的渐变_143"/><linearGradient id="未命名的渐变_143-107" x1="-26.81" y1="-454.91" x2="-26.81" y2="-517.01" xlink:href="#未命名的渐变_143"/><linearGradient id="未命名的渐变_143-108" x1="-25.58" y1="-454.91" x2="-25.58" y2="-517.01" xlink:href="#未命名的渐变_143"/><linearGradient id="未命名的渐变_143-109" x1="-24.34" y1="-454.91" x2="-24.34" y2="-517.01" xlink:href="#未命名的渐变_143"/><linearGradient id="未命名的渐变_143-110" x1="-23.1" y1="-454.91" x2="-23.1" y2="-517.01" xlink:href="#未命名的渐变_143"/><linearGradient id="未命名的渐变_143-111" x1="-21.86" y1="-454.91" x2="-21.86" y2="-517.01" xlink:href="#未命名的渐变_143"/><linearGradient id="未命名的渐变_143-112" x1="-20.63" y1="-454.91" x2="-20.63" y2="-517.01" xlink:href="#未命名的渐变_143"/><linearGradient id="未命名的渐变_143-113" x1="-19.39" y1="-454.91" x2="-19.39" y2="-517.01" xlink:href="#未命名的渐变_143"/><linearGradient id="未命名的渐变_143-114" x1="-18.15" y1="-454.91" x2="-18.15" y2="-517.01" xlink:href="#未命名的渐变_143"/><linearGradient id="未命名的渐变_143-115" x1="-16.91" y1="-454.91" x2="-16.91" y2="-517.01" xlink:href="#未命名的渐变_143"/><linearGradient id="未命名的渐变_143-116" x1="-15.68" y1="-454.91" x2="-15.68" y2="-517.01" xlink:href="#未命名的渐变_143"/><linearGradient id="未命名的渐变_143-117" x1="-14.44" y1="-454.91" x2="-14.44" y2="-517.01" xlink:href="#未命名的渐变_143"/><linearGradient id="未命名的渐变_143-118" x1="-13.2" y1="-454.91" x2="-13.2" y2="-517.01" xlink:href="#未命名的渐变_143"/><linearGradient id="未命名的渐变_143-119" x1="-11.96" y1="-454.91" x2="-11.96" y2="-517.01" xlink:href="#未命名的渐变_143"/><linearGradient id="未命名的渐变_143-120" x1="-10.73" y1="-454.91" x2="-10.73" y2="-517.01" xlink:href="#未命名的渐变_143"/><linearGradient id="未命名的渐变_143-121" x1="-9.49" y1="-454.91" x2="-9.49" y2="-517.01" xlink:href="#未命名的渐变_143"/><linearGradient id="未命名的渐变_143-122" x1="-8.25" y1="-454.91" x2="-8.25" y2="-517.01" xlink:href="#未命名的渐变_143"/><linearGradient id="未命名的渐变_143-123" x1="-7.01" y1="-454.91" x2="-7.01" y2="-517.01" xlink:href="#未命名的渐变_143"/><linearGradient id="未命名的渐变_143-124" x1="-5.78" y1="-454.91" x2="-5.78" y2="-517.01" xlink:href="#未命名的渐变_143"/><linearGradient id="未命名的渐变_143-125" x1="-4.54" y1="-454.91" x2="-4.54" y2="-517.01" xlink:href="#未命名的渐变_143"/><linearGradient id="未命名的渐变_143-126" x1="-3.3" y1="-454.91" x2="-3.3" y2="-517.01" xlink:href="#未命名的渐变_143"/><linearGradient id="未命名的渐变_143-127" x1="-2.06" y1="-454.91" x2="-2.06" y2="-517.01" xlink:href="#未命名的渐变_143"/></defs><title>iot-管道(21)</title><g id="图层_18" data-name="图层 18"><g class="cls-2"><circle class="cls-3" cy="31.05" r="31.05"/><circle class="cls-4" cx="1.24" cy="31.05" r="31.05"/><circle class="cls-5" cx="2.48" cy="31.05" r="31.05"/><circle class="cls-6" cx="3.71" cy="31.05" r="31.05"/><circle class="cls-7" cx="4.95" cy="31.05" r="31.05"/><circle class="cls-8" cx="6.19" cy="31.05" r="31.05"/><circle class="cls-9" cx="7.43" cy="31.05" r="31.05"/><circle class="cls-10" cx="8.66" cy="31.05" r="31.05"/><circle class="cls-11" cx="9.9" cy="31.05" r="31.05"/><circle class="cls-12" cx="11.14" cy="31.05" r="31.05"/><circle class="cls-13" cx="12.38" cy="31.05" r="31.05"/><circle class="cls-14" cx="13.61" cy="31.05" r="31.05"/><circle class="cls-15" cx="14.85" cy="31.05" r="31.05"/><circle class="cls-16" cx="16.09" cy="31.05" r="31.05"/><circle class="cls-17" cx="17.33" cy="31.05" r="31.05"/><circle class="cls-18" cx="18.56" cy="31.05" r="31.05"/><circle class="cls-19" cx="19.8" cy="31.05" r="31.05"/><circle class="cls-20" cx="21.04" cy="31.05" r="31.05"/><circle class="cls-21" cx="22.28" cy="31.05" r="31.05"/><circle class="cls-22" cx="23.51" cy="31.05" r="31.05"/><circle class="cls-23" cx="24.75" cy="31.05" r="31.05"/><circle class="cls-24" cx="25.99" cy="31.05" r="31.05"/><circle class="cls-25" cx="27.23" cy="31.05" r="31.05"/><circle class="cls-26" cx="28.46" cy="31.05" r="31.05"/><circle class="cls-27" cx="29.7" cy="31.05" r="31.05"/><circle class="cls-28" cx="30.94" cy="31.05" r="31.05"/><circle class="cls-29" cx="32.18" cy="31.05" r="31.05"/><circle class="cls-30" cx="33.41" cy="31.05" r="31.05"/><circle class="cls-31" cx="34.65" cy="31.05" r="31.05"/><circle class="cls-32" cx="35.89" cy="31.05" r="31.05"/><circle class="cls-33" cx="37.13" cy="31.05" r="31.05"/><circle class="cls-34" cx="38.36" cy="31.05" r="31.05"/><circle class="cls-35" cx="39.6" cy="31.05" r="31.05"/><circle class="cls-36" cx="40.84" cy="31.05" r="31.05"/><circle class="cls-37" cx="42.08" cy="31.05" r="31.05"/><circle class="cls-38" cx="43.31" cy="31.05" r="31.05"/><circle class="cls-39" cx="44.55" cy="31.05" r="31.05"/><circle class="cls-40" cx="45.79" cy="31.05" r="31.05"/><circle class="cls-41" cx="47.03" cy="31.05" r="31.05"/><circle class="cls-42" cx="48.26" cy="31.05" r="31.05"/><circle class="cls-43" cx="49.5" cy="31.05" r="31.05"/><circle class="cls-44" cx="50.74" cy="31.05" r="31.05"/><circle class="cls-45" cx="51.98" cy="31.05" r="31.05"/><circle class="cls-46" cx="53.21" cy="31.05" r="31.05"/><circle class="cls-47" cx="54.45" cy="31.05" r="31.05"/><circle class="cls-48" cx="55.69" cy="31.05" r="31.05"/><circle class="cls-49" cx="56.93" cy="31.05" r="31.05"/><circle class="cls-50" cx="58.16" cy="31.05" r="31.05"/><circle class="cls-51" cx="59.4" cy="31.05" r="31.05"/><circle class="cls-52" cx="60.64" cy="31.05" r="31.05"/><circle class="cls-53" cx="61.88" cy="31.05" r="31.05"/><circle class="cls-54" cx="63.11" cy="31.05" r="31.05"/><circle class="cls-55" cx="64.35" cy="31.05" r="31.05"/><circle class="cls-56" cx="65.59" cy="31.05" r="31.05"/><circle class="cls-57" cx="66.83" cy="31.05" r="31.05"/><circle class="cls-58" cx="68.06" cy="31.05" r="31.05"/><circle class="cls-59" cx="69.3" cy="31.05" r="31.05"/><circle class="cls-60" cx="70.54" cy="31.05" r="31.05"/><circle class="cls-61" cx="71.78" cy="31.05" r="31.05"/><circle class="cls-62" cx="73.01" cy="31.05" r="31.05"/><circle class="cls-63" cx="74.25" cy="31.05" r="31.05"/><circle class="cls-64" cx="75.49" cy="31.05" r="31.05"/><circle class="cls-65" cx="76.73" cy="31.05" r="31.05"/><circle class="cls-66" cx="77.96" cy="31.05" r="31.05"/><circle class="cls-67" cx="79.2" cy="31.05" r="31.05"/><circle class="cls-68" cx="80.44" cy="31.05" r="31.05"/><circle class="cls-69" cx="81.68" cy="31.05" r="31.05"/><circle class="cls-70" cx="82.91" cy="31.05" r="31.05"/><circle class="cls-71" cx="84.15" cy="31.05" r="31.05"/><circle class="cls-72" cx="85.39" cy="31.05" r="31.05"/><circle class="cls-73" cx="86.63" cy="31.05" r="31.05"/><circle class="cls-74" cx="87.86" cy="31.05" r="31.05"/><circle class="cls-75" cx="89.1" cy="31.05" r="31.05"/><circle class="cls-76" cx="90.34" cy="31.05" r="31.05"/><circle class="cls-77" cx="91.58" cy="31.05" r="31.05"/><circle class="cls-78" cx="92.81" cy="31.05" r="31.05"/><circle class="cls-79" cx="94.05" cy="31.05" r="31.05"/><circle class="cls-80" cx="95.29" cy="31.05" r="31.05"/><circle class="cls-81" cx="96.53" cy="31.05" r="31.05"/><circle class="cls-82" cx="97.76" cy="31.05" r="31.05"/><circle class="cls-83" cx="99" cy="31.05" r="31.05"/><circle class="cls-84" cx="100.24" cy="31.05" r="31.05"/><circle class="cls-85" cx="101.48" cy="31.05" r="31.05"/><circle class="cls-86" cx="102.71" cy="31.05" r="31.05"/><circle class="cls-87" cx="103.95" cy="31.05" r="31.05"/><circle class="cls-88" cx="105.19" cy="31.05" r="31.05"/><circle class="cls-89" cx="106.43" cy="31.05" r="31.05"/><circle class="cls-90" cx="107.66" cy="31.05" r="31.05"/><circle class="cls-91" cx="108.9" cy="31.05" r="31.05"/><circle class="cls-92" cx="110.14" cy="31.05" r="31.05"/><circle class="cls-93" cx="111.38" cy="31.05" r="31.05"/><circle class="cls-94" cx="112.61" cy="31.05" r="31.05"/><circle class="cls-95" cx="113.85" cy="31.05" r="31.05"/><circle class="cls-96" cx="115.09" cy="31.05" r="31.05"/><circle class="cls-97" cx="116.33" cy="31.05" r="31.05"/><circle class="cls-98" cx="117.56" cy="31.05" r="31.05"/><circle class="cls-99" cx="118.8" cy="31.05" r="31.05"/><circle class="cls-100" cx="120.04" cy="31.05" r="31.05"/><circle class="cls-101" cx="121.28" cy="31.05" r="31.05"/><circle class="cls-102" cx="122.51" cy="31.05" r="31.05"/><circle class="cls-103" cx="123.75" cy="31.05" r="31.05"/><circle class="cls-104" cx="124.99" cy="31.05" r="31.05"/><circle class="cls-105" cx="126.23" cy="31.05" r="31.05"/><circle class="cls-106" cx="127.46" cy="31.05" r="31.05"/><circle class="cls-107" cx="128.7" cy="31.05" r="31.05"/><circle class="cls-108" cx="129.94" cy="31.05" r="31.05"/><circle class="cls-109" cx="131.18" cy="31.05" r="31.05"/><circle class="cls-110" cx="132.41" cy="31.05" r="31.05"/><circle class="cls-111" cx="133.65" cy="31.05" r="31.05"/><circle class="cls-112" cx="134.89" cy="31.05" r="31.05"/><circle class="cls-113" cx="136.13" cy="31.05" r="31.05"/><circle class="cls-114" cx="137.36" cy="31.05" r="31.05"/><circle class="cls-115" cx="138.6" cy="31.05" r="31.05"/><circle class="cls-116" cx="139.84" cy="31.05" r="31.05"/><circle class="cls-117" cx="141.08" cy="31.05" r="31.05"/><circle class="cls-118" cx="142.31" cy="31.05" r="31.05"/><circle class="cls-119" cx="143.55" cy="31.05" r="31.05"/><circle class="cls-120" cx="144.79" cy="31.05" r="31.05"/><circle class="cls-121" cx="146.03" cy="31.05" r="31.05"/><circle class="cls-122" cx="147.26" cy="31.05" r="31.05"/><circle class="cls-123" cx="148.5" cy="31.05" r="31.05"/><circle class="cls-124" cx="149.74" cy="31.05" r="31.05"/><circle class="cls-125" cx="150.98" cy="31.05" r="31.05"/><circle class="cls-126" cx="152.21" cy="31.05" r="31.05"/><circle class="cls-127" cx="153.45" cy="31.05" r="31.05"/><circle class="cls-128" cx="154.69" cy="31.05" r="31.05"/><circle class="cls-129" cx="155.93" cy="31.05" r="31.05"/></g></g><g id="图层_21" data-name="图层 21"></g></svg>