<svg xmlns="http://www.w3.org/2000/svg" xmlns:xlink="http://www.w3.org/1999/xlink" viewBox="0 0 124.01 150"><defs><style>.cls-1{fill:url(#未命名的渐变_143);}.cls-2{fill:url(#未命名的渐变_143-2);}.cls-3{fill:url(#未命名的渐变_143-3);}.cls-4{fill:url(#未命名的渐变_143-4);}.cls-5{fill:url(#未命名的渐变_143-5);}.cls-6{fill:url(#未命名的渐变_143-6);}.cls-7{fill:url(#未命名的渐变_143-7);}.cls-8{fill:url(#未命名的渐变_143-8);}.cls-9{fill:url(#未命名的渐变_143-9);}.cls-10{fill:url(#未命名的渐变_143-10);}.cls-11{fill:url(#未命名的渐变_143-11);}.cls-12{fill:url(#未命名的渐变_143-12);}.cls-13{fill:url(#未命名的渐变_143-13);}.cls-14{fill:url(#未命名的渐变_143-14);}.cls-15{fill:url(#未命名的渐变_143-15);}.cls-16{fill:url(#未命名的渐变_143-16);}.cls-17{fill:url(#未命名的渐变_143-17);}.cls-18{fill:url(#未命名的渐变_143-18);}.cls-19{fill:url(#未命名的渐变_143-19);}.cls-20{fill:url(#未命名的渐变_143-20);}.cls-21{fill:url(#未命名的渐变_143-21);}.cls-22{fill:url(#未命名的渐变_143-22);}.cls-23{fill:url(#未命名的渐变_143-23);}.cls-24{fill:url(#未命名的渐变_143-24);}.cls-25{fill:url(#未命名的渐变_143-25);}.cls-26{fill:url(#未命名的渐变_143-26);}.cls-27{fill:url(#未命名的渐变_143-27);}.cls-28{fill:url(#未命名的渐变_143-28);}.cls-29{fill:url(#未命名的渐变_143-29);}.cls-30{fill:url(#未命名的渐变_143-30);}.cls-31{fill:url(#未命名的渐变_143-31);}.cls-32{fill:url(#未命名的渐变_143-32);}.cls-33{fill:url(#未命名的渐变_143-33);}.cls-34{fill:url(#未命名的渐变_143-34);}.cls-35{fill:url(#未命名的渐变_143-35);}.cls-36{fill:url(#未命名的渐变_143-36);}.cls-37{fill:url(#未命名的渐变_143-37);}.cls-38{fill:url(#未命名的渐变_143-38);}.cls-39{fill:url(#未命名的渐变_143-39);}.cls-40{fill:url(#未命名的渐变_143-40);}.cls-41{fill:url(#未命名的渐变_143-41);}.cls-42{fill:url(#未命名的渐变_143-42);}.cls-43{fill:url(#未命名的渐变_143-43);}.cls-44{fill:url(#未命名的渐变_143-44);}.cls-45{fill:url(#未命名的渐变_143-45);}.cls-46{fill:url(#未命名的渐变_143-46);}.cls-47{fill:url(#未命名的渐变_143-47);}.cls-48{fill:url(#未命名的渐变_143-48);}.cls-49{fill:url(#未命名的渐变_143-49);}.cls-50{fill:url(#未命名的渐变_143-50);}.cls-51{fill:url(#未命名的渐变_143-51);}.cls-52{fill:url(#未命名的渐变_143-52);}.cls-53{fill:url(#未命名的渐变_143-53);}.cls-54{fill:url(#未命名的渐变_143-54);}.cls-55{fill:url(#未命名的渐变_143-55);}.cls-56{fill:url(#未命名的渐变_143-56);}.cls-57{fill:url(#未命名的渐变_143-57);}.cls-58{fill:url(#未命名的渐变_143-58);}.cls-59{fill:url(#未命名的渐变_143-59);}.cls-60{fill:url(#未命名的渐变_143-60);}.cls-61{fill:url(#未命名的渐变_143-61);}.cls-62{fill:url(#未命名的渐变_143-62);}.cls-63{fill:url(#未命名的渐变_143-63);}.cls-64{fill:url(#未命名的渐变_143-64);}.cls-65{fill:url(#未命名的渐变_143-65);}.cls-66{fill:url(#未命名的渐变_143-66);}.cls-67{fill:url(#未命名的渐变_143-67);}.cls-68{fill:url(#未命名的渐变_143-68);}.cls-69{fill:url(#未命名的渐变_143-69);}.cls-70{fill:url(#未命名的渐变_143-70);}.cls-71{fill:url(#未命名的渐变_143-71);}.cls-72{fill:url(#未命名的渐变_143-72);}.cls-73{fill:url(#未命名的渐变_143-73);}.cls-74{fill:url(#未命名的渐变_143-74);}.cls-75{fill:url(#未命名的渐变_143-75);}.cls-76{fill:url(#未命名的渐变_143-76);}.cls-77{fill:url(#未命名的渐变_143-77);}.cls-78{fill:url(#未命名的渐变_143-78);}.cls-79{fill:url(#未命名的渐变_143-79);}.cls-80{fill:url(#未命名的渐变_143-80);}.cls-81{fill:url(#未命名的渐变_143-81);}.cls-82{fill:url(#未命名的渐变_143-82);}.cls-83{fill:url(#未命名的渐变_143-83);}.cls-84{fill:url(#未命名的渐变_143-84);}.cls-85{fill:url(#未命名的渐变_143-85);}.cls-86{fill:url(#未命名的渐变_143-86);}.cls-87{fill:url(#未命名的渐变_143-87);}.cls-88{fill:url(#未命名的渐变_143-88);}.cls-89{fill:url(#未命名的渐变_143-89);}.cls-90{fill:url(#未命名的渐变_143-90);}.cls-91{fill:url(#未命名的渐变_143-91);}.cls-92{fill:url(#未命名的渐变_143-92);}.cls-93{fill:url(#未命名的渐变_143-93);}.cls-94{fill:url(#未命名的渐变_143-94);}.cls-95{fill:url(#未命名的渐变_143-95);}.cls-96{fill:url(#未命名的渐变_143-96);}.cls-97{fill:url(#未命名的渐变_143-97);}.cls-98{fill:url(#未命名的渐变_143-98);}.cls-99{fill:url(#未命名的渐变_143-99);}.cls-100{fill:url(#未命名的渐变_143-100);}.cls-101{fill:url(#未命名的渐变_143-101);}.cls-102{fill:url(#未命名的渐变_143-102);}.cls-103{fill:url(#未命名的渐变_143-103);}.cls-104{fill:url(#未命名的渐变_143-104);}.cls-105{fill:url(#未命名的渐变_143-105);}.cls-106{fill:url(#未命名的渐变_143-106);}.cls-107{fill:url(#未命名的渐变_143-107);}.cls-108{fill:url(#未命名的渐变_143-108);}.cls-109{fill:url(#未命名的渐变_143-109);}.cls-110{fill:url(#未命名的渐变_143-110);}.cls-111{fill:url(#未命名的渐变_143-111);}.cls-112{fill:url(#未命名的渐变_143-112);}.cls-113{fill:url(#未命名的渐变_143-113);}.cls-114{fill:url(#未命名的渐变_143-114);}.cls-115{fill:url(#未命名的渐变_143-115);}.cls-116{fill:url(#未命名的渐变_143-116);}.cls-117{fill:url(#未命名的渐变_143-117);}.cls-118{fill:url(#未命名的渐变_143-118);}.cls-119{fill:url(#未命名的渐变_143-119);}.cls-120{fill:url(#未命名的渐变_143-120);}.cls-121{fill:url(#未命名的渐变_143-121);}.cls-122{fill:url(#未命名的渐变_143-122);}.cls-123{fill:url(#未命名的渐变_143-123);}.cls-124{fill:url(#未命名的渐变_143-124);}.cls-125{fill:url(#未命名的渐变_143-125);}.cls-126{fill:url(#未命名的渐变_143-126);}.cls-127{fill:url(#未命名的渐变_143-127);}.cls-128{fill:url(#未命名的渐变_143-128);}.cls-129{fill:url(#未命名的渐变_143-129);}.cls-130{fill:url(#未命名的渐变_143-130);}.cls-131{opacity:0.6;}.cls-132,.cls-133{fill:#ff2727;}.cls-133{stroke:#fff;stroke-miterlimit:10;}.cls-134{fill:#fff;}.cls-135{opacity:0.2;}</style><linearGradient id="未命名的渐变_143" x1="88.36" y1="-344.27" x2="153.17" y2="-344.27" gradientTransform="translate(-23.42 419.56)" gradientUnits="userSpaceOnUse"><stop offset="0" stop-color="#b7b7b7"/><stop offset="0.03" stop-color="#9b9d9d"/><stop offset="0.07" stop-color="#878b8b"/><stop offset="0.09" stop-color="#808484"/><stop offset="0.2" stop-color="#a3a6a6"/><stop offset="0.49" stop-color="#f6f6f6"/><stop offset="0.61" stop-color="#f3f3f3"/><stop offset="0.7" stop-color="#eaeaea"/><stop offset="0.77" stop-color="#dbdbdb"/><stop offset="0.83" stop-color="#c5c5c5"/><stop offset="0.9" stop-color="#aaa"/><stop offset="0.95" stop-color="#888"/><stop offset="1" stop-color="#666"/></linearGradient><linearGradient id="未命名的渐变_143-2" x1="111.68" y1="-376.62" x2="130.15" y2="-376.62" gradientTransform="translate(-55.92 451.76)" xlink:href="#未命名的渐变_143"/><linearGradient id="未命名的渐变_143-3" x1="79.62" y1="-322.85" x2="162.2" y2="-322.85" gradientTransform="translate(-2.15 398)" xlink:href="#未命名的渐变_143"/><linearGradient id="未命名的渐变_143-4" x1="150.17" y1="-620.66" x2="150.17" y2="-655.46" gradientTransform="translate(679.07 278.85) rotate(-90)" xlink:href="#未命名的渐变_143"/><linearGradient id="未命名的渐变_143-5" x1="151.02" y1="-620.66" x2="151.02" y2="-655.46" gradientTransform="translate(679.07 278.85) rotate(-90)" xlink:href="#未命名的渐变_143"/><linearGradient id="未命名的渐变_143-6" x1="151.87" y1="-620.66" x2="151.87" y2="-655.46" gradientTransform="translate(679.07 278.85) rotate(-90)" xlink:href="#未命名的渐变_143"/><linearGradient id="未命名的渐变_143-7" x1="152.72" y1="-620.66" x2="152.72" y2="-655.46" gradientTransform="translate(679.07 278.85) rotate(-90)" xlink:href="#未命名的渐变_143"/><linearGradient id="未命名的渐变_143-8" x1="153.57" y1="-620.66" x2="153.57" y2="-655.46" gradientTransform="translate(679.07 278.85) rotate(-90)" xlink:href="#未命名的渐变_143"/><linearGradient id="未命名的渐变_143-9" x1="154.42" y1="-620.66" x2="154.42" y2="-655.46" gradientTransform="translate(679.07 278.85) rotate(-90)" xlink:href="#未命名的渐变_143"/><linearGradient id="未命名的渐变_143-10" x1="155.27" y1="-620.66" x2="155.27" y2="-655.46" gradientTransform="translate(679.07 278.85) rotate(-90)" xlink:href="#未命名的渐变_143"/><linearGradient id="未命名的渐变_143-11" x1="156.12" y1="-620.66" x2="156.12" y2="-655.46" gradientTransform="translate(679.07 278.85) rotate(-90)" xlink:href="#未命名的渐变_143"/><linearGradient id="未命名的渐变_143-12" x1="156.97" y1="-620.66" x2="156.97" y2="-655.46" gradientTransform="translate(679.07 278.85) rotate(-90)" xlink:href="#未命名的渐变_143"/><linearGradient id="未命名的渐变_143-13" x1="157.82" y1="-620.66" x2="157.82" y2="-655.46" gradientTransform="translate(679.07 278.85) rotate(-90)" xlink:href="#未命名的渐变_143"/><linearGradient id="未命名的渐变_143-14" x1="158.67" y1="-620.66" x2="158.67" y2="-655.46" gradientTransform="translate(679.07 278.85) rotate(-90)" xlink:href="#未命名的渐变_143"/><linearGradient id="未命名的渐变_143-15" x1="159.52" y1="-620.66" x2="159.52" y2="-655.46" gradientTransform="translate(679.07 278.85) rotate(-90)" xlink:href="#未命名的渐变_143"/><linearGradient id="未命名的渐变_143-16" x1="160.37" y1="-620.66" x2="160.37" y2="-655.46" gradientTransform="translate(679.07 278.85) rotate(-90)" xlink:href="#未命名的渐变_143"/><linearGradient id="未命名的渐变_143-17" x1="161.22" y1="-620.66" x2="161.22" y2="-655.46" gradientTransform="translate(679.07 278.85) rotate(-90)" xlink:href="#未命名的渐变_143"/><linearGradient id="未命名的渐变_143-18" x1="162.07" y1="-620.66" x2="162.07" y2="-655.46" gradientTransform="translate(679.07 278.85) rotate(-90)" xlink:href="#未命名的渐变_143"/><linearGradient id="未命名的渐变_143-19" x1="162.92" y1="-620.66" x2="162.92" y2="-655.46" gradientTransform="translate(679.07 278.85) rotate(-90)" xlink:href="#未命名的渐变_143"/><linearGradient id="未命名的渐变_143-20" x1="163.77" y1="-620.66" x2="163.77" y2="-655.46" gradientTransform="translate(679.07 278.85) rotate(-90)" xlink:href="#未命名的渐变_143"/><linearGradient id="未命名的渐变_143-21" x1="164.62" y1="-620.66" x2="164.62" y2="-655.46" gradientTransform="translate(679.07 278.85) rotate(-90)" xlink:href="#未命名的渐变_143"/><linearGradient id="未命名的渐变_143-22" x1="165.47" y1="-620.66" x2="165.47" y2="-655.46" gradientTransform="translate(679.07 278.85) rotate(-90)" xlink:href="#未命名的渐变_143"/><linearGradient id="未命名的渐变_143-23" x1="166.32" y1="-620.66" x2="166.32" y2="-655.46" gradientTransform="translate(679.07 278.85) rotate(-90)" xlink:href="#未命名的渐变_143"/><linearGradient id="未命名的渐变_143-24" x1="167.17" y1="-620.66" x2="167.17" y2="-655.46" gradientTransform="translate(679.07 278.85) rotate(-90)" xlink:href="#未命名的渐变_143"/><linearGradient id="未命名的渐变_143-25" x1="168.02" y1="-620.66" x2="168.02" y2="-655.46" gradientTransform="translate(679.07 278.85) rotate(-90)" xlink:href="#未命名的渐变_143"/><linearGradient id="未命名的渐变_143-26" x1="168.87" y1="-620.66" x2="168.87" y2="-655.46" gradientTransform="translate(679.07 278.85) rotate(-90)" xlink:href="#未命名的渐变_143"/><linearGradient id="未命名的渐变_143-27" x1="169.72" y1="-620.66" x2="169.72" y2="-655.46" gradientTransform="translate(679.07 278.85) rotate(-90)" xlink:href="#未命名的渐变_143"/><linearGradient id="未命名的渐变_143-28" x1="170.57" y1="-620.66" x2="170.57" y2="-655.46" gradientTransform="translate(679.07 278.85) rotate(-90)" xlink:href="#未命名的渐变_143"/><linearGradient id="未命名的渐变_143-29" x1="171.42" y1="-620.66" x2="171.42" y2="-655.46" gradientTransform="translate(679.07 278.85) rotate(-90)" xlink:href="#未命名的渐变_143"/><linearGradient id="未命名的渐变_143-30" x1="172.27" y1="-620.66" x2="172.27" y2="-655.46" gradientTransform="translate(679.07 278.85) rotate(-90)" xlink:href="#未命名的渐变_143"/><linearGradient id="未命名的渐变_143-31" x1="173.12" y1="-620.66" x2="173.12" y2="-655.46" gradientTransform="translate(679.07 278.85) rotate(-90)" xlink:href="#未命名的渐变_143"/><linearGradient id="未命名的渐变_143-32" x1="173.97" y1="-620.66" x2="173.97" y2="-655.46" gradientTransform="translate(679.07 278.85) rotate(-90)" xlink:href="#未命名的渐变_143"/><linearGradient id="未命名的渐变_143-33" x1="174.82" y1="-620.66" x2="174.82" y2="-655.46" gradientTransform="translate(679.07 278.85) rotate(-90)" xlink:href="#未命名的渐变_143"/><linearGradient id="未命名的渐变_143-34" x1="175.67" y1="-620.66" x2="175.67" y2="-655.46" gradientTransform="translate(679.07 278.85) rotate(-90)" xlink:href="#未命名的渐变_143"/><linearGradient id="未命名的渐变_143-35" x1="176.52" y1="-620.66" x2="176.52" y2="-655.46" gradientTransform="translate(679.07 278.85) rotate(-90)" xlink:href="#未命名的渐变_143"/><linearGradient id="未命名的渐变_143-36" x1="177.37" y1="-620.66" x2="177.37" y2="-655.46" gradientTransform="translate(679.07 278.85) rotate(-90)" xlink:href="#未命名的渐变_143"/><linearGradient id="未命名的渐变_143-37" x1="178.22" y1="-620.66" x2="178.22" y2="-655.46" gradientTransform="translate(679.07 278.85) rotate(-90)" xlink:href="#未命名的渐变_143"/><linearGradient id="未命名的渐变_143-38" x1="179.06" y1="-620.66" x2="179.06" y2="-655.46" gradientTransform="translate(679.07 278.85) rotate(-90)" xlink:href="#未命名的渐变_143"/><linearGradient id="未命名的渐变_143-39" x1="179.91" y1="-620.66" x2="179.91" y2="-655.46" gradientTransform="translate(679.07 278.85) rotate(-90)" xlink:href="#未命名的渐变_143"/><linearGradient id="未命名的渐变_143-40" x1="180.76" y1="-620.66" x2="180.76" y2="-655.46" gradientTransform="translate(679.07 278.85) rotate(-90)" xlink:href="#未命名的渐变_143"/><linearGradient id="未命名的渐变_143-41" x1="181.61" y1="-620.66" x2="181.61" y2="-655.46" gradientTransform="translate(679.07 278.85) rotate(-90)" xlink:href="#未命名的渐变_143"/><linearGradient id="未命名的渐变_143-42" x1="182.46" y1="-620.66" x2="182.46" y2="-655.46" gradientTransform="translate(679.07 278.85) rotate(-90)" xlink:href="#未命名的渐变_143"/><linearGradient id="未命名的渐变_143-43" x1="183.31" y1="-620.66" x2="183.31" y2="-655.46" gradientTransform="translate(679.07 278.85) rotate(-90)" xlink:href="#未命名的渐变_143"/><linearGradient id="未命名的渐变_143-44" x1="184.16" y1="-620.66" x2="184.16" y2="-655.46" gradientTransform="translate(679.07 278.85) rotate(-90)" xlink:href="#未命名的渐变_143"/><linearGradient id="未命名的渐变_143-45" x1="185.01" y1="-620.66" x2="185.01" y2="-655.46" gradientTransform="translate(679.07 278.85) rotate(-90)" xlink:href="#未命名的渐变_143"/><linearGradient id="未命名的渐变_143-46" x1="185.86" y1="-620.66" x2="185.86" y2="-655.46" gradientTransform="translate(679.07 278.85) rotate(-90)" xlink:href="#未命名的渐变_143"/><linearGradient id="未命名的渐变_143-47" x1="186.71" y1="-620.66" x2="186.71" y2="-655.46" gradientTransform="translate(679.07 278.85) rotate(-90)" xlink:href="#未命名的渐变_143"/><linearGradient id="未命名的渐变_143-48" x1="187.56" y1="-620.66" x2="187.56" y2="-655.46" gradientTransform="translate(679.07 278.85) rotate(-90)" xlink:href="#未命名的渐变_143"/><linearGradient id="未命名的渐变_143-49" x1="188.41" y1="-620.66" x2="188.41" y2="-655.46" gradientTransform="translate(679.07 278.85) rotate(-90)" xlink:href="#未命名的渐变_143"/><linearGradient id="未命名的渐变_143-50" x1="189.26" y1="-620.66" x2="189.26" y2="-655.46" gradientTransform="translate(679.07 278.85) rotate(-90)" xlink:href="#未命名的渐变_143"/><linearGradient id="未命名的渐变_143-51" x1="190.11" y1="-620.66" x2="190.11" y2="-655.46" gradientTransform="translate(679.07 278.85) rotate(-90)" xlink:href="#未命名的渐变_143"/><linearGradient id="未命名的渐变_143-52" x1="190.96" y1="-620.66" x2="190.96" y2="-655.46" gradientTransform="translate(679.07 278.85) rotate(-90)" xlink:href="#未命名的渐变_143"/><linearGradient id="未命名的渐变_143-53" x1="191.81" y1="-620.66" x2="191.81" y2="-655.46" gradientTransform="translate(679.07 278.85) rotate(-90)" xlink:href="#未命名的渐变_143"/><linearGradient id="未命名的渐变_143-54" x1="192.66" y1="-620.66" x2="192.66" y2="-655.46" gradientTransform="translate(679.07 278.85) rotate(-90)" xlink:href="#未命名的渐变_143"/><linearGradient id="未命名的渐变_143-55" x1="193.51" y1="-620.66" x2="193.51" y2="-655.46" gradientTransform="translate(679.07 278.85) rotate(-90)" xlink:href="#未命名的渐变_143"/><linearGradient id="未命名的渐变_143-56" x1="194.36" y1="-620.66" x2="194.36" y2="-655.46" gradientTransform="translate(679.07 278.85) rotate(-90)" xlink:href="#未命名的渐变_143"/><linearGradient id="未命名的渐变_143-57" x1="195.21" y1="-620.66" x2="195.21" y2="-655.46" gradientTransform="translate(679.07 278.85) rotate(-90)" xlink:href="#未命名的渐变_143"/><linearGradient id="未命名的渐变_143-58" x1="196.06" y1="-620.66" x2="196.06" y2="-655.46" gradientTransform="translate(679.07 278.85) rotate(-90)" xlink:href="#未命名的渐变_143"/><linearGradient id="未命名的渐变_143-59" x1="196.91" y1="-620.66" x2="196.91" y2="-655.46" gradientTransform="translate(679.07 278.85) rotate(-90)" xlink:href="#未命名的渐变_143"/><linearGradient id="未命名的渐变_143-60" x1="197.76" y1="-620.66" x2="197.76" y2="-655.46" gradientTransform="translate(679.07 278.85) rotate(-90)" xlink:href="#未命名的渐变_143"/><linearGradient id="未命名的渐变_143-61" x1="198.61" y1="-620.66" x2="198.61" y2="-655.46" gradientTransform="translate(679.07 278.85) rotate(-90)" xlink:href="#未命名的渐变_143"/><linearGradient id="未命名的渐变_143-62" x1="199.46" y1="-620.66" x2="199.46" y2="-655.46" gradientTransform="translate(679.07 278.85) rotate(-90)" xlink:href="#未命名的渐变_143"/><linearGradient id="未命名的渐变_143-63" x1="200.31" y1="-620.66" x2="200.31" y2="-655.46" gradientTransform="translate(679.07 278.85) rotate(-90)" xlink:href="#未命名的渐变_143"/><linearGradient id="未命名的渐变_143-64" x1="201.16" y1="-620.66" x2="201.16" y2="-655.46" gradientTransform="translate(679.07 278.85) rotate(-90)" xlink:href="#未命名的渐变_143"/><linearGradient id="未命名的渐变_143-65" x1="202.01" y1="-620.66" x2="202.01" y2="-655.46" gradientTransform="translate(679.07 278.85) rotate(-90)" xlink:href="#未命名的渐变_143"/><linearGradient id="未命名的渐变_143-66" x1="202.86" y1="-620.66" x2="202.86" y2="-655.46" gradientTransform="translate(679.07 278.85) rotate(-90)" xlink:href="#未命名的渐变_143"/><linearGradient id="未命名的渐变_143-67" x1="203.71" y1="-620.66" x2="203.71" y2="-655.46" gradientTransform="translate(679.07 278.85) rotate(-90)" xlink:href="#未命名的渐变_143"/><linearGradient id="未命名的渐变_143-68" x1="204.56" y1="-620.66" x2="204.56" y2="-655.46" gradientTransform="translate(679.07 278.85) rotate(-90)" xlink:href="#未命名的渐变_143"/><linearGradient id="未命名的渐变_143-69" x1="205.41" y1="-620.66" x2="205.41" y2="-655.46" gradientTransform="translate(679.07 278.85) rotate(-90)" xlink:href="#未命名的渐变_143"/><linearGradient id="未命名的渐变_143-70" x1="206.26" y1="-620.66" x2="206.26" y2="-655.46" gradientTransform="translate(679.07 278.85) rotate(-90)" xlink:href="#未命名的渐变_143"/><linearGradient id="未命名的渐变_143-71" x1="207.11" y1="-620.66" x2="207.11" y2="-655.46" gradientTransform="translate(679.07 278.85) rotate(-90)" xlink:href="#未命名的渐变_143"/><linearGradient id="未命名的渐变_143-72" x1="207.96" y1="-620.66" x2="207.96" y2="-655.46" gradientTransform="translate(679.07 278.85) rotate(-90)" xlink:href="#未命名的渐变_143"/><linearGradient id="未命名的渐变_143-73" x1="208.81" y1="-620.66" x2="208.81" y2="-655.46" gradientTransform="translate(679.07 278.85) rotate(-90)" xlink:href="#未命名的渐变_143"/><linearGradient id="未命名的渐变_143-74" x1="209.66" y1="-620.66" x2="209.66" y2="-655.46" gradientTransform="translate(679.07 278.85) rotate(-90)" xlink:href="#未命名的渐变_143"/><linearGradient id="未命名的渐变_143-75" x1="210.5" y1="-620.66" x2="210.5" y2="-655.46" gradientTransform="translate(679.07 278.85) rotate(-90)" xlink:href="#未命名的渐变_143"/><linearGradient id="未命名的渐变_143-76" x1="211.35" y1="-620.66" x2="211.35" y2="-655.46" gradientTransform="translate(679.07 278.85) rotate(-90)" xlink:href="#未命名的渐变_143"/><linearGradient id="未命名的渐变_143-77" x1="212.2" y1="-620.66" x2="212.2" y2="-655.46" gradientTransform="translate(679.07 278.85) rotate(-90)" xlink:href="#未命名的渐变_143"/><linearGradient id="未命名的渐变_143-78" x1="213.05" y1="-620.66" x2="213.05" y2="-655.46" gradientTransform="translate(679.07 278.85) rotate(-90)" xlink:href="#未命名的渐变_143"/><linearGradient id="未命名的渐变_143-79" x1="213.9" y1="-620.66" x2="213.9" y2="-655.46" gradientTransform="translate(679.07 278.85) rotate(-90)" xlink:href="#未命名的渐变_143"/><linearGradient id="未命名的渐变_143-80" x1="214.75" y1="-620.66" x2="214.75" y2="-655.46" gradientTransform="translate(679.07 278.85) rotate(-90)" xlink:href="#未命名的渐变_143"/><linearGradient id="未命名的渐变_143-81" x1="215.6" y1="-620.66" x2="215.6" y2="-655.46" gradientTransform="translate(679.07 278.85) rotate(-90)" xlink:href="#未命名的渐变_143"/><linearGradient id="未命名的渐变_143-82" x1="216.45" y1="-620.66" x2="216.45" y2="-655.46" gradientTransform="translate(679.07 278.85) rotate(-90)" xlink:href="#未命名的渐变_143"/><linearGradient id="未命名的渐变_143-83" x1="217.3" y1="-620.66" x2="217.3" y2="-655.46" gradientTransform="translate(679.07 278.85) rotate(-90)" xlink:href="#未命名的渐变_143"/><linearGradient id="未命名的渐变_143-84" x1="218.15" y1="-620.66" x2="218.15" y2="-655.46" gradientTransform="translate(679.07 278.85) rotate(-90)" xlink:href="#未命名的渐变_143"/><linearGradient id="未命名的渐变_143-85" x1="219" y1="-620.66" x2="219" y2="-655.46" gradientTransform="translate(679.07 278.85) rotate(-90)" xlink:href="#未命名的渐变_143"/><linearGradient id="未命名的渐变_143-86" x1="219.85" y1="-620.66" x2="219.85" y2="-655.46" gradientTransform="translate(679.07 278.85) rotate(-90)" xlink:href="#未命名的渐变_143"/><linearGradient id="未命名的渐变_143-87" x1="220.7" y1="-620.66" x2="220.7" y2="-655.46" gradientTransform="translate(679.07 278.85) rotate(-90)" xlink:href="#未命名的渐变_143"/><linearGradient id="未命名的渐变_143-88" x1="221.55" y1="-620.66" x2="221.55" y2="-655.46" gradientTransform="translate(679.07 278.85) rotate(-90)" xlink:href="#未命名的渐变_143"/><linearGradient id="未命名的渐变_143-89" x1="222.4" y1="-620.66" x2="222.4" y2="-655.46" gradientTransform="translate(679.07 278.85) rotate(-90)" xlink:href="#未命名的渐变_143"/><linearGradient id="未命名的渐变_143-90" x1="223.25" y1="-620.66" x2="223.25" y2="-655.46" gradientTransform="translate(679.07 278.85) rotate(-90)" xlink:href="#未命名的渐变_143"/><linearGradient id="未命名的渐变_143-91" x1="224.1" y1="-620.66" x2="224.1" y2="-655.46" gradientTransform="translate(679.07 278.85) rotate(-90)" xlink:href="#未命名的渐变_143"/><linearGradient id="未命名的渐变_143-92" x1="224.95" y1="-620.66" x2="224.95" y2="-655.46" gradientTransform="translate(679.07 278.85) rotate(-90)" xlink:href="#未命名的渐变_143"/><linearGradient id="未命名的渐变_143-93" x1="225.8" y1="-620.66" x2="225.8" y2="-655.46" gradientTransform="translate(679.07 278.85) rotate(-90)" xlink:href="#未命名的渐变_143"/><linearGradient id="未命名的渐变_143-94" x1="226.65" y1="-620.66" x2="226.65" y2="-655.46" gradientTransform="translate(679.07 278.85) rotate(-90)" xlink:href="#未命名的渐变_143"/><linearGradient id="未命名的渐变_143-95" x1="227.5" y1="-620.66" x2="227.5" y2="-655.46" gradientTransform="translate(679.07 278.85) rotate(-90)" xlink:href="#未命名的渐变_143"/><linearGradient id="未命名的渐变_143-96" x1="228.35" y1="-620.66" x2="228.35" y2="-655.46" gradientTransform="translate(679.07 278.85) rotate(-90)" xlink:href="#未命名的渐变_143"/><linearGradient id="未命名的渐变_143-97" x1="229.2" y1="-620.66" x2="229.2" y2="-655.46" gradientTransform="translate(679.07 278.85) rotate(-90)" xlink:href="#未命名的渐变_143"/><linearGradient id="未命名的渐变_143-98" x1="230.05" y1="-620.66" x2="230.05" y2="-655.46" gradientTransform="translate(679.07 278.85) rotate(-90)" xlink:href="#未命名的渐变_143"/><linearGradient id="未命名的渐变_143-99" x1="230.9" y1="-620.66" x2="230.9" y2="-655.46" gradientTransform="translate(679.07 278.85) rotate(-90)" xlink:href="#未命名的渐变_143"/><linearGradient id="未命名的渐变_143-100" x1="231.75" y1="-620.66" x2="231.75" y2="-655.46" gradientTransform="translate(679.07 278.85) rotate(-90)" xlink:href="#未命名的渐变_143"/><linearGradient id="未命名的渐变_143-101" x1="232.6" y1="-620.66" x2="232.6" y2="-655.46" gradientTransform="translate(679.07 278.85) rotate(-90)" xlink:href="#未命名的渐变_143"/><linearGradient id="未命名的渐变_143-102" x1="233.45" y1="-620.66" x2="233.45" y2="-655.46" gradientTransform="translate(679.07 278.85) rotate(-90)" xlink:href="#未命名的渐变_143"/><linearGradient id="未命名的渐变_143-103" x1="234.3" y1="-620.66" x2="234.3" y2="-655.46" gradientTransform="translate(679.07 278.85) rotate(-90)" xlink:href="#未命名的渐变_143"/><linearGradient id="未命名的渐变_143-104" x1="235.15" y1="-620.66" x2="235.15" y2="-655.46" gradientTransform="translate(679.07 278.85) rotate(-90)" xlink:href="#未命名的渐变_143"/><linearGradient id="未命名的渐变_143-105" x1="236" y1="-620.66" x2="236" y2="-655.46" gradientTransform="translate(679.07 278.85) rotate(-90)" xlink:href="#未命名的渐变_143"/><linearGradient id="未命名的渐变_143-106" x1="236.85" y1="-620.66" x2="236.85" y2="-655.46" gradientTransform="translate(679.07 278.85) rotate(-90)" xlink:href="#未命名的渐变_143"/><linearGradient id="未命名的渐变_143-107" x1="237.7" y1="-620.66" x2="237.7" y2="-655.46" gradientTransform="translate(679.07 278.85) rotate(-90)" xlink:href="#未命名的渐变_143"/><linearGradient id="未命名的渐变_143-108" x1="238.55" y1="-620.66" x2="238.55" y2="-655.46" gradientTransform="translate(679.07 278.85) rotate(-90)" xlink:href="#未命名的渐变_143"/><linearGradient id="未命名的渐变_143-109" x1="239.4" y1="-620.66" x2="239.4" y2="-655.46" gradientTransform="translate(679.07 278.85) rotate(-90)" xlink:href="#未命名的渐变_143"/><linearGradient id="未命名的渐变_143-110" x1="240.25" y1="-620.66" x2="240.25" y2="-655.46" gradientTransform="translate(679.07 278.85) rotate(-90)" xlink:href="#未命名的渐变_143"/><linearGradient id="未命名的渐变_143-111" x1="241.1" y1="-620.66" x2="241.1" y2="-655.46" gradientTransform="translate(679.07 278.85) rotate(-90)" xlink:href="#未命名的渐变_143"/><linearGradient id="未命名的渐变_143-112" x1="241.95" y1="-620.66" x2="241.95" y2="-655.46" gradientTransform="translate(679.07 278.85) rotate(-90)" xlink:href="#未命名的渐变_143"/><linearGradient id="未命名的渐变_143-113" x1="242.79" y1="-620.66" x2="242.79" y2="-655.46" gradientTransform="translate(679.07 278.85) rotate(-90)" xlink:href="#未命名的渐变_143"/><linearGradient id="未命名的渐变_143-114" x1="243.64" y1="-620.66" x2="243.64" y2="-655.46" gradientTransform="translate(679.07 278.85) rotate(-90)" xlink:href="#未命名的渐变_143"/><linearGradient id="未命名的渐变_143-115" x1="244.49" y1="-620.66" x2="244.49" y2="-655.46" gradientTransform="translate(679.07 278.85) rotate(-90)" xlink:href="#未命名的渐变_143"/><linearGradient id="未命名的渐变_143-116" x1="245.34" y1="-620.66" x2="245.34" y2="-655.46" gradientTransform="translate(679.07 278.85) rotate(-90)" xlink:href="#未命名的渐变_143"/><linearGradient id="未命名的渐变_143-117" x1="246.19" y1="-620.66" x2="246.19" y2="-655.46" gradientTransform="translate(679.07 278.85) rotate(-90)" xlink:href="#未命名的渐变_143"/><linearGradient id="未命名的渐变_143-118" x1="247.04" y1="-620.66" x2="247.04" y2="-655.46" gradientTransform="translate(679.07 278.85) rotate(-90)" xlink:href="#未命名的渐变_143"/><linearGradient id="未命名的渐变_143-119" x1="247.89" y1="-620.66" x2="247.89" y2="-655.46" gradientTransform="translate(679.07 278.85) rotate(-90)" xlink:href="#未命名的渐变_143"/><linearGradient id="未命名的渐变_143-120" x1="248.74" y1="-620.66" x2="248.74" y2="-655.46" gradientTransform="translate(679.07 278.85) rotate(-90)" xlink:href="#未命名的渐变_143"/><linearGradient id="未命名的渐变_143-121" x1="249.59" y1="-620.66" x2="249.59" y2="-655.46" gradientTransform="translate(679.07 278.85) rotate(-90)" xlink:href="#未命名的渐变_143"/><linearGradient id="未命名的渐变_143-122" x1="250.44" y1="-620.66" x2="250.44" y2="-655.46" gradientTransform="translate(679.07 278.85) rotate(-90)" xlink:href="#未命名的渐变_143"/><linearGradient id="未命名的渐变_143-123" x1="251.29" y1="-620.66" x2="251.29" y2="-655.46" gradientTransform="translate(679.07 278.85) rotate(-90)" xlink:href="#未命名的渐变_143"/><linearGradient id="未命名的渐变_143-124" x1="252.14" y1="-620.66" x2="252.14" y2="-655.46" gradientTransform="translate(679.07 278.85) rotate(-90)" xlink:href="#未命名的渐变_143"/><linearGradient id="未命名的渐变_143-125" x1="252.99" y1="-620.66" x2="252.99" y2="-655.46" gradientTransform="translate(679.07 278.85) rotate(-90)" xlink:href="#未命名的渐变_143"/><linearGradient id="未命名的渐变_143-126" x1="253.84" y1="-620.66" x2="253.84" y2="-655.46" gradientTransform="translate(679.07 278.85) rotate(-90)" xlink:href="#未命名的渐变_143"/><linearGradient id="未命名的渐变_143-127" x1="254.69" y1="-620.66" x2="254.69" y2="-655.46" gradientTransform="translate(679.07 278.85) rotate(-90)" xlink:href="#未命名的渐变_143"/><linearGradient id="未命名的渐变_143-128" x1="255.54" y1="-620.66" x2="255.54" y2="-655.46" gradientTransform="translate(679.07 278.85) rotate(-90)" xlink:href="#未命名的渐变_143"/><linearGradient id="未命名的渐变_143-129" x1="256.39" y1="-620.66" x2="256.39" y2="-655.46" gradientTransform="translate(679.07 278.85) rotate(-90)" xlink:href="#未命名的渐变_143"/><linearGradient id="未命名的渐变_143-130" x1="257.24" y1="-620.66" x2="257.24" y2="-655.46" gradientTransform="translate(679.07 278.85) rotate(-90)" xlink:href="#未命名的渐变_143"/></defs><title>iot-管道(21)</title><g id="图层_19" data-name="图层 19"><rect class="cls-1" x="64.94" y="59.12" width="64.81" height="32.35" transform="translate(22.05 172.63) rotate(-90)"/><rect class="cls-2" x="55.76" y="58.97" width="18.47" height="32.35" transform="translate(-10.15 140.14) rotate(-90)"/><rect class="cls-3" x="77.47" y="69.9" width="82.59" height="10.49" transform="translate(43.62 193.91) rotate(-90)"/><ellipse class="cls-4" cx="41.01" cy="128.68" rx="17.4" ry="21.32"/><ellipse class="cls-5" cx="41.01" cy="127.83" rx="17.4" ry="21.32"/><ellipse class="cls-6" cx="41.01" cy="126.98" rx="17.4" ry="21.32"/><ellipse class="cls-7" cx="41.01" cy="126.13" rx="17.4" ry="21.32"/><ellipse class="cls-8" cx="41.01" cy="125.28" rx="17.4" ry="21.32"/><ellipse class="cls-9" cx="41.01" cy="124.43" rx="17.4" ry="21.32"/><ellipse class="cls-10" cx="41.01" cy="123.58" rx="17.4" ry="21.32"/><ellipse class="cls-11" cx="41.01" cy="122.73" rx="17.4" ry="21.32"/><ellipse class="cls-12" cx="41.01" cy="121.88" rx="17.4" ry="21.32"/><ellipse class="cls-13" cx="41.01" cy="121.03" rx="17.4" ry="21.32"/><ellipse class="cls-14" cx="41.01" cy="120.18" rx="17.4" ry="21.32"/><ellipse class="cls-15" cx="41.01" cy="119.33" rx="17.4" ry="21.32"/><ellipse class="cls-16" cx="41.01" cy="118.48" rx="17.4" ry="21.32"/><ellipse class="cls-17" cx="41.01" cy="117.63" rx="17.4" ry="21.32"/><ellipse class="cls-18" cx="41.01" cy="116.78" rx="17.4" ry="21.32"/><ellipse class="cls-19" cx="41.01" cy="115.93" rx="17.4" ry="21.32"/><ellipse class="cls-20" cx="41.01" cy="115.08" rx="17.4" ry="21.32"/><ellipse class="cls-21" cx="41.01" cy="114.23" rx="17.4" ry="21.32"/><ellipse class="cls-22" cx="41.01" cy="113.38" rx="17.4" ry="21.32"/><ellipse class="cls-23" cx="41.01" cy="112.53" rx="17.4" ry="21.32"/><ellipse class="cls-24" cx="41.01" cy="111.68" rx="17.4" ry="21.32"/><ellipse class="cls-25" cx="41.01" cy="110.83" rx="17.4" ry="21.32"/><ellipse class="cls-26" cx="41.01" cy="109.98" rx="17.4" ry="21.32"/><ellipse class="cls-27" cx="41.01" cy="109.13" rx="17.4" ry="21.32"/><ellipse class="cls-28" cx="41.01" cy="108.28" rx="17.4" ry="21.32"/><ellipse class="cls-29" cx="41.01" cy="107.43" rx="17.4" ry="21.32"/><ellipse class="cls-30" cx="41.01" cy="106.58" rx="17.4" ry="21.32"/><ellipse class="cls-31" cx="41.01" cy="105.74" rx="17.4" ry="21.32"/><ellipse class="cls-32" cx="41.01" cy="104.89" rx="17.4" ry="21.32"/><ellipse class="cls-33" cx="41.01" cy="104.04" rx="17.4" ry="21.32"/><ellipse class="cls-34" cx="41.01" cy="103.19" rx="17.4" ry="21.32"/><ellipse class="cls-35" cx="41.01" cy="102.34" rx="17.4" ry="21.32"/><ellipse class="cls-36" cx="41.01" cy="101.49" rx="17.4" ry="21.32"/><ellipse class="cls-37" cx="41.01" cy="100.64" rx="17.4" ry="21.32"/><ellipse class="cls-38" cx="41.01" cy="99.79" rx="17.4" ry="21.32"/><ellipse class="cls-39" cx="41.01" cy="98.94" rx="17.4" ry="21.32"/><ellipse class="cls-40" cx="41.01" cy="98.09" rx="17.4" ry="21.32"/><ellipse class="cls-41" cx="41.01" cy="97.24" rx="17.4" ry="21.32"/><ellipse class="cls-42" cx="41.01" cy="96.39" rx="17.4" ry="21.32"/><ellipse class="cls-43" cx="41.01" cy="95.54" rx="17.4" ry="21.32"/><ellipse class="cls-44" cx="41.01" cy="94.69" rx="17.4" ry="21.32"/><ellipse class="cls-45" cx="41.01" cy="93.84" rx="17.4" ry="21.32"/><ellipse class="cls-46" cx="41.01" cy="92.99" rx="17.4" ry="21.32"/><ellipse class="cls-47" cx="41.01" cy="92.14" rx="17.4" ry="21.32"/><ellipse class="cls-48" cx="41.01" cy="91.29" rx="17.4" ry="21.32"/><ellipse class="cls-49" cx="41.01" cy="90.44" rx="17.4" ry="21.32"/><ellipse class="cls-50" cx="41.01" cy="89.59" rx="17.4" ry="21.32"/><ellipse class="cls-51" cx="41.01" cy="88.74" rx="17.4" ry="21.32"/><ellipse class="cls-52" cx="41.01" cy="87.89" rx="17.4" ry="21.32"/><ellipse class="cls-53" cx="41.01" cy="87.04" rx="17.4" ry="21.32"/><ellipse class="cls-54" cx="41.01" cy="86.19" rx="17.4" ry="21.32"/><ellipse class="cls-55" cx="41.01" cy="85.34" rx="17.4" ry="21.32"/><ellipse class="cls-56" cx="41.01" cy="84.49" rx="17.4" ry="21.32"/><ellipse class="cls-57" cx="41.01" cy="83.64" rx="17.4" ry="21.32"/><ellipse class="cls-58" cx="41.01" cy="82.79" rx="17.4" ry="21.32"/><ellipse class="cls-59" cx="41.01" cy="81.94" rx="17.4" ry="21.32"/><ellipse class="cls-60" cx="41.01" cy="81.09" rx="17.4" ry="21.32"/><ellipse class="cls-61" cx="41.01" cy="80.24" rx="17.4" ry="21.32"/><ellipse class="cls-62" cx="41.01" cy="79.39" rx="17.4" ry="21.32"/><ellipse class="cls-63" cx="41.01" cy="78.54" rx="17.4" ry="21.32"/><ellipse class="cls-64" cx="41.01" cy="77.69" rx="17.4" ry="21.32"/><ellipse class="cls-65" cx="41.01" cy="76.84" rx="17.4" ry="21.32"/><ellipse class="cls-66" cx="41.01" cy="75.99" rx="17.4" ry="21.32"/><ellipse class="cls-67" cx="41.01" cy="75.14" rx="17.4" ry="21.32"/><ellipse class="cls-68" cx="41.01" cy="74.29" rx="17.4" ry="21.32"/><ellipse class="cls-69" cx="41.01" cy="73.45" rx="17.4" ry="21.32"/><ellipse class="cls-70" cx="41.01" cy="72.6" rx="17.4" ry="21.32"/><ellipse class="cls-71" cx="41.01" cy="71.75" rx="17.4" ry="21.32"/><ellipse class="cls-72" cx="41.01" cy="70.9" rx="17.4" ry="21.32"/><ellipse class="cls-73" cx="41.01" cy="70.05" rx="17.4" ry="21.32"/><ellipse class="cls-74" cx="41.01" cy="69.2" rx="17.4" ry="21.32"/><ellipse class="cls-75" cx="41.01" cy="68.35" rx="17.4" ry="21.32"/><ellipse class="cls-76" cx="41.01" cy="67.5" rx="17.4" ry="21.32"/><ellipse class="cls-77" cx="41.01" cy="66.65" rx="17.4" ry="21.32"/><ellipse class="cls-78" cx="41.01" cy="65.8" rx="17.4" ry="21.32"/><ellipse class="cls-79" cx="41.01" cy="64.95" rx="17.4" ry="21.32"/><ellipse class="cls-80" cx="41.01" cy="64.1" rx="17.4" ry="21.32"/><ellipse class="cls-81" cx="41.01" cy="63.25" rx="17.4" ry="21.32"/><ellipse class="cls-82" cx="41.01" cy="62.4" rx="17.4" ry="21.32"/><ellipse class="cls-83" cx="41.01" cy="61.55" rx="17.4" ry="21.32"/><ellipse class="cls-84" cx="41.01" cy="60.7" rx="17.4" ry="21.32"/><ellipse class="cls-85" cx="41.01" cy="59.85" rx="17.4" ry="21.32"/><ellipse class="cls-86" cx="41.01" cy="59" rx="17.4" ry="21.32"/><ellipse class="cls-87" cx="41.01" cy="58.15" rx="17.4" ry="21.32"/><ellipse class="cls-88" cx="41.01" cy="57.3" rx="17.4" ry="21.32"/><ellipse class="cls-89" cx="41.01" cy="56.45" rx="17.4" ry="21.32"/><ellipse class="cls-90" cx="41.01" cy="55.6" rx="17.4" ry="21.32"/><ellipse class="cls-91" cx="41.01" cy="54.75" rx="17.4" ry="21.32"/><ellipse class="cls-92" cx="41.01" cy="53.9" rx="17.4" ry="21.32"/><ellipse class="cls-93" cx="41.01" cy="53.05" rx="17.4" ry="21.32"/><ellipse class="cls-94" cx="41.01" cy="52.2" rx="17.4" ry="21.32"/><ellipse class="cls-95" cx="41.01" cy="51.35" rx="17.4" ry="21.32"/><ellipse class="cls-96" cx="41.01" cy="50.5" rx="17.4" ry="21.32"/><ellipse class="cls-97" cx="41.01" cy="49.65" rx="17.4" ry="21.32"/><ellipse class="cls-98" cx="41.01" cy="48.8" rx="17.4" ry="21.32"/><ellipse class="cls-99" cx="41.01" cy="47.95" rx="17.4" ry="21.32"/><ellipse class="cls-100" cx="41.01" cy="47.1" rx="17.4" ry="21.32"/><ellipse class="cls-101" cx="41.01" cy="46.25" rx="17.4" ry="21.32"/><ellipse class="cls-102" cx="41.01" cy="45.4" rx="17.4" ry="21.32"/><ellipse class="cls-103" cx="41.01" cy="44.55" rx="17.4" ry="21.32"/><ellipse class="cls-104" cx="41.01" cy="43.7" rx="17.4" ry="21.32"/><ellipse class="cls-105" cx="41.01" cy="42.85" rx="17.4" ry="21.32"/><ellipse class="cls-106" cx="41.01" cy="42.01" rx="17.4" ry="21.32"/><ellipse class="cls-107" cx="41.01" cy="41.16" rx="17.4" ry="21.32"/><ellipse class="cls-108" cx="41.01" cy="40.31" rx="17.4" ry="21.32"/><ellipse class="cls-109" cx="41.01" cy="39.46" rx="17.4" ry="21.32"/><ellipse class="cls-110" cx="41.01" cy="38.61" rx="17.4" ry="21.32"/><ellipse class="cls-111" cx="41.01" cy="37.76" rx="17.4" ry="21.32"/><ellipse class="cls-112" cx="41.01" cy="36.91" rx="17.4" ry="21.32"/><ellipse class="cls-113" cx="41.01" cy="36.06" rx="17.4" ry="21.32"/><ellipse class="cls-114" cx="41.01" cy="35.21" rx="17.4" ry="21.32"/><ellipse class="cls-115" cx="41.01" cy="34.36" rx="17.4" ry="21.32"/><ellipse class="cls-116" cx="41.01" cy="33.51" rx="17.4" ry="21.32"/><ellipse class="cls-117" cx="41.01" cy="32.66" rx="17.4" ry="21.32"/><ellipse class="cls-118" cx="41.01" cy="31.81" rx="17.4" ry="21.32"/><ellipse class="cls-119" cx="41.01" cy="30.96" rx="17.4" ry="21.32"/><ellipse class="cls-120" cx="41.01" cy="30.11" rx="17.4" ry="21.32"/><ellipse class="cls-121" cx="41.01" cy="29.26" rx="17.4" ry="21.32"/><ellipse class="cls-122" cx="41.01" cy="28.41" rx="17.4" ry="21.32"/><ellipse class="cls-123" cx="41.01" cy="27.56" rx="17.4" ry="21.32"/><ellipse class="cls-124" cx="41.01" cy="26.71" rx="17.4" ry="21.32"/><ellipse class="cls-125" cx="41.01" cy="25.86" rx="17.4" ry="21.32"/><ellipse class="cls-126" cx="41.01" cy="25.01" rx="17.4" ry="21.32"/><ellipse class="cls-127" cx="41.01" cy="24.16" rx="17.4" ry="21.32"/><ellipse class="cls-128" cx="41.01" cy="23.31" rx="17.4" ry="21.32"/><ellipse class="cls-129" cx="41.01" cy="22.46" rx="17.4" ry="21.32"/><ellipse class="cls-130" cx="41.01" cy="21.61" rx="17.4" ry="21.32"/><g class="cls-131"><circle class="cls-132" cx="41.01" cy="75.29" r="41.01"/><circle class="cls-133" cx="41.01" cy="75.29" r="34.53"/><rect class="cls-134" x="16.24" y="66.95" width="49.54" height="16.68"/></g></g><g id="图层_21" data-name="图层 21"></g></svg>