<svg xmlns="http://www.w3.org/2000/svg" xmlns:xlink="http://www.w3.org/1999/xlink" viewBox="0 0 124.25 150"><defs><style>.cls-1{fill:url(#未命名的渐变_143);}.cls-2{fill:url(#未命名的渐变_143-2);}.cls-3{fill:url(#未命名的渐变_143-3);}.cls-4{fill:url(#未命名的渐变_143-4);}.cls-5{fill:url(#未命名的渐变_143-5);}.cls-6{fill:url(#未命名的渐变_143-6);}.cls-7{fill:url(#未命名的渐变_143-7);}.cls-8{fill:url(#未命名的渐变_143-8);}.cls-9{fill:url(#未命名的渐变_143-9);}.cls-10{fill:url(#未命名的渐变_143-10);}.cls-11{fill:url(#未命名的渐变_143-11);}.cls-12{fill:url(#未命名的渐变_143-12);}.cls-13{fill:url(#未命名的渐变_143-13);}.cls-14{fill:url(#未命名的渐变_143-14);}.cls-15{fill:url(#未命名的渐变_143-15);}.cls-16{fill:url(#未命名的渐变_143-16);}.cls-17{fill:url(#未命名的渐变_143-17);}.cls-18{fill:url(#未命名的渐变_143-18);}.cls-19{fill:url(#未命名的渐变_143-19);}.cls-20{fill:url(#未命名的渐变_143-20);}.cls-21{fill:url(#未命名的渐变_143-21);}.cls-22{fill:url(#未命名的渐变_143-22);}.cls-23{fill:url(#未命名的渐变_143-23);}.cls-24{fill:url(#未命名的渐变_143-24);}.cls-25{fill:url(#未命名的渐变_143-25);}.cls-26{fill:url(#未命名的渐变_143-26);}.cls-27{fill:url(#未命名的渐变_143-27);}.cls-28{fill:url(#未命名的渐变_143-28);}.cls-29{fill:url(#未命名的渐变_143-29);}.cls-30{fill:url(#未命名的渐变_143-30);}.cls-31{fill:url(#未命名的渐变_143-31);}.cls-32{fill:url(#未命名的渐变_143-32);}.cls-33{fill:url(#未命名的渐变_143-33);}.cls-34{fill:url(#未命名的渐变_143-34);}.cls-35{fill:url(#未命名的渐变_143-35);}.cls-36{fill:url(#未命名的渐变_143-36);}.cls-37{fill:url(#未命名的渐变_143-37);}.cls-38{fill:url(#未命名的渐变_143-38);}.cls-39{fill:url(#未命名的渐变_143-39);}.cls-40{fill:url(#未命名的渐变_143-40);}.cls-41{fill:url(#未命名的渐变_143-41);}.cls-42{fill:url(#未命名的渐变_143-42);}.cls-43{fill:url(#未命名的渐变_143-43);}.cls-44{fill:url(#未命名的渐变_143-44);}.cls-45{fill:url(#未命名的渐变_143-45);}.cls-46{fill:url(#未命名的渐变_143-46);}.cls-47{fill:url(#未命名的渐变_143-47);}.cls-48{fill:url(#未命名的渐变_143-48);}.cls-49{fill:url(#未命名的渐变_143-49);}.cls-50{fill:url(#未命名的渐变_143-50);}.cls-51{fill:url(#未命名的渐变_143-51);}.cls-52{fill:url(#未命名的渐变_143-52);}.cls-53{fill:url(#未命名的渐变_143-53);}.cls-54{fill:url(#未命名的渐变_143-54);}.cls-55{fill:url(#未命名的渐变_143-55);}.cls-56{fill:url(#未命名的渐变_143-56);}.cls-57{fill:url(#未命名的渐变_143-57);}.cls-58{fill:url(#未命名的渐变_143-58);}.cls-59{fill:url(#未命名的渐变_143-59);}.cls-60{fill:url(#未命名的渐变_143-60);}.cls-61{fill:url(#未命名的渐变_143-61);}.cls-62{fill:url(#未命名的渐变_143-62);}.cls-63{fill:url(#未命名的渐变_143-63);}.cls-64{fill:url(#未命名的渐变_143-64);}.cls-65{fill:url(#未命名的渐变_143-65);}.cls-66{fill:url(#未命名的渐变_143-66);}.cls-67{fill:url(#未命名的渐变_143-67);}.cls-68{fill:url(#未命名的渐变_143-68);}.cls-69{fill:url(#未命名的渐变_143-69);}.cls-70{fill:url(#未命名的渐变_143-70);}.cls-71{fill:url(#未命名的渐变_143-71);}.cls-72{fill:url(#未命名的渐变_143-72);}.cls-73{fill:url(#未命名的渐变_143-73);}.cls-74{fill:url(#未命名的渐变_143-74);}.cls-75{fill:url(#未命名的渐变_143-75);}.cls-76{fill:url(#未命名的渐变_143-76);}.cls-77{fill:url(#未命名的渐变_143-77);}.cls-78{fill:url(#未命名的渐变_143-78);}.cls-79{fill:url(#未命名的渐变_143-79);}.cls-80{fill:url(#未命名的渐变_143-80);}.cls-81{fill:url(#未命名的渐变_143-81);}.cls-82{fill:url(#未命名的渐变_143-82);}.cls-83{fill:url(#未命名的渐变_143-83);}.cls-84{fill:url(#未命名的渐变_143-84);}.cls-85{fill:url(#未命名的渐变_143-85);}.cls-86{fill:url(#未命名的渐变_143-86);}.cls-87{fill:url(#未命名的渐变_143-87);}.cls-88{fill:url(#未命名的渐变_143-88);}.cls-89{fill:url(#未命名的渐变_143-89);}.cls-90{fill:url(#未命名的渐变_143-90);}.cls-91{fill:url(#未命名的渐变_143-91);}.cls-92{fill:url(#未命名的渐变_143-92);}.cls-93{fill:url(#未命名的渐变_143-93);}.cls-94{fill:url(#未命名的渐变_143-94);}.cls-95{fill:url(#未命名的渐变_143-95);}.cls-96{fill:url(#未命名的渐变_143-96);}.cls-97{fill:url(#未命名的渐变_143-97);}.cls-98{fill:url(#未命名的渐变_143-98);}.cls-99{fill:url(#未命名的渐变_143-99);}.cls-100{fill:url(#未命名的渐变_143-100);}.cls-101{fill:url(#未命名的渐变_143-101);}.cls-102{fill:url(#未命名的渐变_143-102);}.cls-103{fill:url(#未命名的渐变_143-103);}.cls-104{fill:url(#未命名的渐变_143-104);}.cls-105{fill:url(#未命名的渐变_143-105);}.cls-106{fill:url(#未命名的渐变_143-106);}.cls-107{fill:url(#未命名的渐变_143-107);}.cls-108{fill:url(#未命名的渐变_143-108);}.cls-109{fill:url(#未命名的渐变_143-109);}.cls-110{fill:url(#未命名的渐变_143-110);}.cls-111{fill:url(#未命名的渐变_143-111);}.cls-112{fill:url(#未命名的渐变_143-112);}.cls-113{fill:url(#未命名的渐变_143-113);}.cls-114{fill:url(#未命名的渐变_143-114);}.cls-115{fill:url(#未命名的渐变_143-115);}.cls-116{fill:url(#未命名的渐变_143-116);}.cls-117{fill:url(#未命名的渐变_143-117);}.cls-118{fill:url(#未命名的渐变_143-118);}.cls-119{fill:url(#未命名的渐变_143-119);}.cls-120{fill:url(#未命名的渐变_143-120);}.cls-121{fill:url(#未命名的渐变_143-121);}.cls-122{fill:url(#未命名的渐变_143-122);}.cls-123{fill:url(#未命名的渐变_143-123);}.cls-124{fill:url(#未命名的渐变_143-124);}.cls-125{fill:url(#未命名的渐变_143-125);}.cls-126{fill:url(#未命名的渐变_143-126);}.cls-127{fill:url(#未命名的渐变_143-127);}.cls-128{fill:url(#未命名的渐变_143-128);}.cls-129{fill:url(#未命名的渐变_143-129);}.cls-130{fill:url(#未命名的渐变_143-130);}.cls-131{opacity:0.6;}.cls-132,.cls-133{fill:#ff2727;}.cls-133{stroke:#fff;stroke-miterlimit:10;}.cls-134{fill:#fff;}.cls-135{opacity:0.2;}</style><linearGradient id="未命名的渐变_143" x1="-334.92" y1="211.97" x2="-269.98" y2="211.97" gradientTransform="matrix(1, 0, 0, -1, 329.17, 287.12)" gradientUnits="userSpaceOnUse"><stop offset="0" stop-color="#b7b7b7"/><stop offset="0.03" stop-color="#9b9d9d"/><stop offset="0.07" stop-color="#878b8b"/><stop offset="0.09" stop-color="#808484"/><stop offset="0.2" stop-color="#a3a6a6"/><stop offset="0.49" stop-color="#f6f6f6"/><stop offset="0.61" stop-color="#f3f3f3"/><stop offset="0.7" stop-color="#eaeaea"/><stop offset="0.77" stop-color="#dbdbdb"/><stop offset="0.83" stop-color="#c5c5c5"/><stop offset="0.9" stop-color="#aaa"/><stop offset="0.95" stop-color="#888"/><stop offset="1" stop-color="#666"/></linearGradient><linearGradient id="未命名的渐变_143-2" x1="-311.56" y1="179.56" x2="-293.05" y2="179.56" gradientTransform="matrix(1, 0, 0, -1, 361.43, 254.56)" xlink:href="#未命名的渐变_143"/><linearGradient id="未命名的渐变_143-3" x1="-343.68" y1="233.44" x2="-260.93" y2="233.44" gradientTransform="matrix(1, 0, 0, -1, 307.56, 308.44)" xlink:href="#未命名的渐变_143"/><linearGradient id="未命名的渐变_143-4" x1="-273.14" y1="-64.49" x2="-273.14" y2="-99.36" gradientTransform="matrix(0, -1, -1, 0, 1.24, -144.51)" xlink:href="#未命名的渐变_143"/><linearGradient id="未命名的渐变_143-5" x1="-272.29" y1="-64.49" x2="-272.29" y2="-99.36" gradientTransform="matrix(0, -1, -1, 0, 1.24, -144.51)" xlink:href="#未命名的渐变_143"/><linearGradient id="未命名的渐变_143-6" x1="-271.44" y1="-64.49" x2="-271.44" y2="-99.36" gradientTransform="matrix(0, -1, -1, 0, 1.24, -144.51)" xlink:href="#未命名的渐变_143"/><linearGradient id="未命名的渐变_143-7" x1="-270.59" y1="-64.49" x2="-270.59" y2="-99.36" gradientTransform="matrix(0, -1, -1, 0, 1.24, -144.51)" xlink:href="#未命名的渐变_143"/><linearGradient id="未命名的渐变_143-8" x1="-269.74" y1="-64.49" x2="-269.74" y2="-99.36" gradientTransform="matrix(0, -1, -1, 0, 1.24, -144.51)" xlink:href="#未命名的渐变_143"/><linearGradient id="未命名的渐变_143-9" x1="-268.89" y1="-64.49" x2="-268.89" y2="-99.36" gradientTransform="matrix(0, -1, -1, 0, 1.24, -144.51)" xlink:href="#未命名的渐变_143"/><linearGradient id="未命名的渐变_143-10" x1="-268.04" y1="-64.49" x2="-268.04" y2="-99.36" gradientTransform="matrix(0, -1, -1, 0, 1.24, -144.51)" xlink:href="#未命名的渐变_143"/><linearGradient id="未命名的渐变_143-11" x1="-267.18" y1="-64.49" x2="-267.18" y2="-99.36" gradientTransform="matrix(0, -1, -1, 0, 1.24, -144.51)" xlink:href="#未命名的渐变_143"/><linearGradient id="未命名的渐变_143-12" x1="-266.33" y1="-64.49" x2="-266.33" y2="-99.36" gradientTransform="matrix(0, -1, -1, 0, 1.24, -144.51)" xlink:href="#未命名的渐变_143"/><linearGradient id="未命名的渐变_143-13" x1="-265.48" y1="-64.49" x2="-265.48" y2="-99.36" gradientTransform="matrix(0, -1, -1, 0, 1.24, -144.51)" xlink:href="#未命名的渐变_143"/><linearGradient id="未命名的渐变_143-14" x1="-264.63" y1="-64.49" x2="-264.63" y2="-99.36" gradientTransform="matrix(0, -1, -1, 0, 1.24, -144.51)" xlink:href="#未命名的渐变_143"/><linearGradient id="未命名的渐变_143-15" x1="-263.78" y1="-64.49" x2="-263.78" y2="-99.36" gradientTransform="matrix(0, -1, -1, 0, 1.24, -144.51)" xlink:href="#未命名的渐变_143"/><linearGradient id="未命名的渐变_143-16" x1="-262.93" y1="-64.49" x2="-262.93" y2="-99.36" gradientTransform="matrix(0, -1, -1, 0, 1.24, -144.51)" xlink:href="#未命名的渐变_143"/><linearGradient id="未命名的渐变_143-17" x1="-262.08" y1="-64.49" x2="-262.08" y2="-99.36" gradientTransform="matrix(0, -1, -1, 0, 1.24, -144.51)" xlink:href="#未命名的渐变_143"/><linearGradient id="未命名的渐变_143-18" x1="-261.23" y1="-64.49" x2="-261.23" y2="-99.36" gradientTransform="matrix(0, -1, -1, 0, 1.24, -144.51)" xlink:href="#未命名的渐变_143"/><linearGradient id="未命名的渐变_143-19" x1="-260.37" y1="-64.49" x2="-260.37" y2="-99.36" gradientTransform="matrix(0, -1, -1, 0, 1.24, -144.51)" xlink:href="#未命名的渐变_143"/><linearGradient id="未命名的渐变_143-20" x1="-259.52" y1="-64.49" x2="-259.52" y2="-99.36" gradientTransform="matrix(0, -1, -1, 0, 1.24, -144.51)" xlink:href="#未命名的渐变_143"/><linearGradient id="未命名的渐变_143-21" x1="-258.67" y1="-64.49" x2="-258.67" y2="-99.36" gradientTransform="matrix(0, -1, -1, 0, 1.24, -144.51)" xlink:href="#未命名的渐变_143"/><linearGradient id="未命名的渐变_143-22" x1="-257.82" y1="-64.49" x2="-257.82" y2="-99.36" gradientTransform="matrix(0, -1, -1, 0, 1.24, -144.51)" xlink:href="#未命名的渐变_143"/><linearGradient id="未命名的渐变_143-23" x1="-256.97" y1="-64.49" x2="-256.97" y2="-99.36" gradientTransform="matrix(0, -1, -1, 0, 1.24, -144.51)" xlink:href="#未命名的渐变_143"/><linearGradient id="未命名的渐变_143-24" x1="-256.12" y1="-64.49" x2="-256.12" y2="-99.36" gradientTransform="matrix(0, -1, -1, 0, 1.24, -144.51)" xlink:href="#未命名的渐变_143"/><linearGradient id="未命名的渐变_143-25" x1="-255.27" y1="-64.49" x2="-255.27" y2="-99.36" gradientTransform="matrix(0, -1, -1, 0, 1.24, -144.51)" xlink:href="#未命名的渐变_143"/><linearGradient id="未命名的渐变_143-26" x1="-254.41" y1="-64.49" x2="-254.41" y2="-99.36" gradientTransform="matrix(0, -1, -1, 0, 1.24, -144.51)" xlink:href="#未命名的渐变_143"/><linearGradient id="未命名的渐变_143-27" x1="-253.56" y1="-64.49" x2="-253.56" y2="-99.36" gradientTransform="matrix(0, -1, -1, 0, 1.24, -144.51)" xlink:href="#未命名的渐变_143"/><linearGradient id="未命名的渐变_143-28" x1="-252.71" y1="-64.49" x2="-252.71" y2="-99.36" gradientTransform="matrix(0, -1, -1, 0, 1.24, -144.51)" xlink:href="#未命名的渐变_143"/><linearGradient id="未命名的渐变_143-29" x1="-251.86" y1="-64.49" x2="-251.86" y2="-99.36" gradientTransform="matrix(0, -1, -1, 0, 1.24, -144.51)" xlink:href="#未命名的渐变_143"/><linearGradient id="未命名的渐变_143-30" x1="-251.01" y1="-64.49" x2="-251.01" y2="-99.36" gradientTransform="matrix(0, -1, -1, 0, 1.24, -144.51)" xlink:href="#未命名的渐变_143"/><linearGradient id="未命名的渐变_143-31" x1="-250.16" y1="-64.49" x2="-250.16" y2="-99.36" gradientTransform="matrix(0, -1, -1, 0, 1.24, -144.51)" xlink:href="#未命名的渐变_143"/><linearGradient id="未命名的渐变_143-32" x1="-249.31" y1="-64.49" x2="-249.31" y2="-99.36" gradientTransform="matrix(0, -1, -1, 0, 1.24, -144.51)" xlink:href="#未命名的渐变_143"/><linearGradient id="未命名的渐变_143-33" x1="-248.45" y1="-64.49" x2="-248.45" y2="-99.36" gradientTransform="matrix(0, -1, -1, 0, 1.24, -144.51)" xlink:href="#未命名的渐变_143"/><linearGradient id="未命名的渐变_143-34" x1="-247.6" y1="-64.49" x2="-247.6" y2="-99.36" gradientTransform="matrix(0, -1, -1, 0, 1.24, -144.51)" xlink:href="#未命名的渐变_143"/><linearGradient id="未命名的渐变_143-35" x1="-246.75" y1="-64.49" x2="-246.75" y2="-99.36" gradientTransform="matrix(0, -1, -1, 0, 1.24, -144.51)" xlink:href="#未命名的渐变_143"/><linearGradient id="未命名的渐变_143-36" x1="-245.9" y1="-64.49" x2="-245.9" y2="-99.36" gradientTransform="matrix(0, -1, -1, 0, 1.24, -144.51)" xlink:href="#未命名的渐变_143"/><linearGradient id="未命名的渐变_143-37" x1="-245.05" y1="-64.49" x2="-245.05" y2="-99.36" gradientTransform="matrix(0, -1, -1, 0, 1.24, -144.51)" xlink:href="#未命名的渐变_143"/><linearGradient id="未命名的渐变_143-38" x1="-244.2" y1="-64.49" x2="-244.2" y2="-99.36" gradientTransform="matrix(0, -1, -1, 0, 1.24, -144.51)" xlink:href="#未命名的渐变_143"/><linearGradient id="未命名的渐变_143-39" x1="-243.35" y1="-64.49" x2="-243.35" y2="-99.36" gradientTransform="matrix(0, -1, -1, 0, 1.24, -144.51)" xlink:href="#未命名的渐变_143"/><linearGradient id="未命名的渐变_143-40" x1="-242.5" y1="-64.49" x2="-242.5" y2="-99.36" gradientTransform="matrix(0, -1, -1, 0, 1.24, -144.51)" xlink:href="#未命名的渐变_143"/><linearGradient id="未命名的渐变_143-41" x1="-241.64" y1="-64.49" x2="-241.64" y2="-99.36" gradientTransform="matrix(0, -1, -1, 0, 1.24, -144.51)" xlink:href="#未命名的渐变_143"/><linearGradient id="未命名的渐变_143-42" x1="-240.79" y1="-64.49" x2="-240.79" y2="-99.36" gradientTransform="matrix(0, -1, -1, 0, 1.24, -144.51)" xlink:href="#未命名的渐变_143"/><linearGradient id="未命名的渐变_143-43" x1="-239.94" y1="-64.49" x2="-239.94" y2="-99.36" gradientTransform="matrix(0, -1, -1, 0, 1.24, -144.51)" xlink:href="#未命名的渐变_143"/><linearGradient id="未命名的渐变_143-44" x1="-239.09" y1="-64.49" x2="-239.09" y2="-99.36" gradientTransform="matrix(0, -1, -1, 0, 1.24, -144.51)" xlink:href="#未命名的渐变_143"/><linearGradient id="未命名的渐变_143-45" x1="-238.24" y1="-64.49" x2="-238.24" y2="-99.36" gradientTransform="matrix(0, -1, -1, 0, 1.24, -144.51)" xlink:href="#未命名的渐变_143"/><linearGradient id="未命名的渐变_143-46" x1="-237.39" y1="-64.49" x2="-237.39" y2="-99.36" gradientTransform="matrix(0, -1, -1, 0, 1.24, -144.51)" xlink:href="#未命名的渐变_143"/><linearGradient id="未命名的渐变_143-47" x1="-236.54" y1="-64.49" x2="-236.54" y2="-99.36" gradientTransform="matrix(0, -1, -1, 0, 1.24, -144.51)" xlink:href="#未命名的渐变_143"/><linearGradient id="未命名的渐变_143-48" x1="-235.68" y1="-64.49" x2="-235.68" y2="-99.36" gradientTransform="matrix(0, -1, -1, 0, 1.24, -144.51)" xlink:href="#未命名的渐变_143"/><linearGradient id="未命名的渐变_143-49" x1="-234.83" y1="-64.49" x2="-234.83" y2="-99.36" gradientTransform="matrix(0, -1, -1, 0, 1.24, -144.51)" xlink:href="#未命名的渐变_143"/><linearGradient id="未命名的渐变_143-50" x1="-233.98" y1="-64.49" x2="-233.98" y2="-99.36" gradientTransform="matrix(0, -1, -1, 0, 1.24, -144.51)" xlink:href="#未命名的渐变_143"/><linearGradient id="未命名的渐变_143-51" x1="-233.13" y1="-64.49" x2="-233.13" y2="-99.36" gradientTransform="matrix(0, -1, -1, 0, 1.24, -144.51)" xlink:href="#未命名的渐变_143"/><linearGradient id="未命名的渐变_143-52" x1="-232.28" y1="-64.49" x2="-232.28" y2="-99.36" gradientTransform="matrix(0, -1, -1, 0, 1.24, -144.51)" xlink:href="#未命名的渐变_143"/><linearGradient id="未命名的渐变_143-53" x1="-231.43" y1="-64.49" x2="-231.43" y2="-99.36" gradientTransform="matrix(0, -1, -1, 0, 1.24, -144.51)" xlink:href="#未命名的渐变_143"/><linearGradient id="未命名的渐变_143-54" x1="-230.58" y1="-64.49" x2="-230.58" y2="-99.36" gradientTransform="matrix(0, -1, -1, 0, 1.24, -144.51)" xlink:href="#未命名的渐变_143"/><linearGradient id="未命名的渐变_143-55" x1="-229.72" y1="-64.49" x2="-229.72" y2="-99.36" gradientTransform="matrix(0, -1, -1, 0, 1.24, -144.51)" xlink:href="#未命名的渐变_143"/><linearGradient id="未命名的渐变_143-56" x1="-228.87" y1="-64.49" x2="-228.87" y2="-99.36" gradientTransform="matrix(0, -1, -1, 0, 1.24, -144.51)" xlink:href="#未命名的渐变_143"/><linearGradient id="未命名的渐变_143-57" x1="-228.02" y1="-64.49" x2="-228.02" y2="-99.36" gradientTransform="matrix(0, -1, -1, 0, 1.24, -144.51)" xlink:href="#未命名的渐变_143"/><linearGradient id="未命名的渐变_143-58" x1="-227.17" y1="-64.49" x2="-227.17" y2="-99.36" gradientTransform="matrix(0, -1, -1, 0, 1.24, -144.51)" xlink:href="#未命名的渐变_143"/><linearGradient id="未命名的渐变_143-59" x1="-226.32" y1="-64.49" x2="-226.32" y2="-99.36" gradientTransform="matrix(0, -1, -1, 0, 1.24, -144.51)" xlink:href="#未命名的渐变_143"/><linearGradient id="未命名的渐变_143-60" x1="-225.47" y1="-64.49" x2="-225.47" y2="-99.36" gradientTransform="matrix(0, -1, -1, 0, 1.24, -144.51)" xlink:href="#未命名的渐变_143"/><linearGradient id="未命名的渐变_143-61" x1="-224.62" y1="-64.49" x2="-224.62" y2="-99.36" gradientTransform="matrix(0, -1, -1, 0, 1.24, -144.51)" xlink:href="#未命名的渐变_143"/><linearGradient id="未命名的渐变_143-62" x1="-223.76" y1="-64.49" x2="-223.76" y2="-99.36" gradientTransform="matrix(0, -1, -1, 0, 1.24, -144.51)" xlink:href="#未命名的渐变_143"/><linearGradient id="未命名的渐变_143-63" x1="-222.91" y1="-64.49" x2="-222.91" y2="-99.36" gradientTransform="matrix(0, -1, -1, 0, 1.24, -144.51)" xlink:href="#未命名的渐变_143"/><linearGradient id="未命名的渐变_143-64" x1="-222.06" y1="-64.49" x2="-222.06" y2="-99.36" gradientTransform="matrix(0, -1, -1, 0, 1.24, -144.51)" xlink:href="#未命名的渐变_143"/><linearGradient id="未命名的渐变_143-65" x1="-221.21" y1="-64.49" x2="-221.21" y2="-99.36" gradientTransform="matrix(0, -1, -1, 0, 1.24, -144.51)" xlink:href="#未命名的渐变_143"/><linearGradient id="未命名的渐变_143-66" x1="-220.36" y1="-64.49" x2="-220.36" y2="-99.36" gradientTransform="matrix(0, -1, -1, 0, 1.24, -144.51)" xlink:href="#未命名的渐变_143"/><linearGradient id="未命名的渐变_143-67" x1="-219.51" y1="-64.49" x2="-219.51" y2="-99.36" gradientTransform="matrix(0, -1, -1, 0, 1.24, -144.51)" xlink:href="#未命名的渐变_143"/><linearGradient id="未命名的渐变_143-68" x1="-218.66" y1="-64.49" x2="-218.66" y2="-99.36" gradientTransform="matrix(0, -1, -1, 0, 1.24, -144.51)" xlink:href="#未命名的渐变_143"/><linearGradient id="未命名的渐变_143-69" x1="-217.81" y1="-64.49" x2="-217.81" y2="-99.36" gradientTransform="matrix(0, -1, -1, 0, 1.24, -144.51)" xlink:href="#未命名的渐变_143"/><linearGradient id="未命名的渐变_143-70" x1="-216.95" y1="-64.49" x2="-216.95" y2="-99.36" gradientTransform="matrix(0, -1, -1, 0, 1.24, -144.51)" xlink:href="#未命名的渐变_143"/><linearGradient id="未命名的渐变_143-71" x1="-216.1" y1="-64.49" x2="-216.1" y2="-99.36" gradientTransform="matrix(0, -1, -1, 0, 1.24, -144.51)" xlink:href="#未命名的渐变_143"/><linearGradient id="未命名的渐变_143-72" x1="-215.25" y1="-64.49" x2="-215.25" y2="-99.36" gradientTransform="matrix(0, -1, -1, 0, 1.24, -144.51)" xlink:href="#未命名的渐变_143"/><linearGradient id="未命名的渐变_143-73" x1="-214.4" y1="-64.49" x2="-214.4" y2="-99.36" gradientTransform="matrix(0, -1, -1, 0, 1.24, -144.51)" xlink:href="#未命名的渐变_143"/><linearGradient id="未命名的渐变_143-74" x1="-213.55" y1="-64.49" x2="-213.55" y2="-99.36" gradientTransform="matrix(0, -1, -1, 0, 1.24, -144.51)" xlink:href="#未命名的渐变_143"/><linearGradient id="未命名的渐变_143-75" x1="-212.7" y1="-64.49" x2="-212.7" y2="-99.36" gradientTransform="matrix(0, -1, -1, 0, 1.24, -144.51)" xlink:href="#未命名的渐变_143"/><linearGradient id="未命名的渐变_143-76" x1="-211.85" y1="-64.49" x2="-211.85" y2="-99.36" gradientTransform="matrix(0, -1, -1, 0, 1.24, -144.51)" xlink:href="#未命名的渐变_143"/><linearGradient id="未命名的渐变_143-77" x1="-210.99" y1="-64.49" x2="-210.99" y2="-99.36" gradientTransform="matrix(0, -1, -1, 0, 1.24, -144.51)" xlink:href="#未命名的渐变_143"/><linearGradient id="未命名的渐变_143-78" x1="-210.14" y1="-64.49" x2="-210.14" y2="-99.36" gradientTransform="matrix(0, -1, -1, 0, 1.24, -144.51)" xlink:href="#未命名的渐变_143"/><linearGradient id="未命名的渐变_143-79" x1="-209.29" y1="-64.49" x2="-209.29" y2="-99.36" gradientTransform="matrix(0, -1, -1, 0, 1.24, -144.51)" xlink:href="#未命名的渐变_143"/><linearGradient id="未命名的渐变_143-80" x1="-208.44" y1="-64.49" x2="-208.44" y2="-99.36" gradientTransform="matrix(0, -1, -1, 0, 1.24, -144.51)" xlink:href="#未命名的渐变_143"/><linearGradient id="未命名的渐变_143-81" x1="-207.59" y1="-64.49" x2="-207.59" y2="-99.36" gradientTransform="matrix(0, -1, -1, 0, 1.24, -144.51)" xlink:href="#未命名的渐变_143"/><linearGradient id="未命名的渐变_143-82" x1="-206.74" y1="-64.49" x2="-206.74" y2="-99.36" gradientTransform="matrix(0, -1, -1, 0, 1.24, -144.51)" xlink:href="#未命名的渐变_143"/><linearGradient id="未命名的渐变_143-83" x1="-205.89" y1="-64.49" x2="-205.89" y2="-99.36" gradientTransform="matrix(0, -1, -1, 0, 1.24, -144.51)" xlink:href="#未命名的渐变_143"/><linearGradient id="未命名的渐变_143-84" x1="-205.03" y1="-64.49" x2="-205.03" y2="-99.36" gradientTransform="matrix(0, -1, -1, 0, 1.24, -144.51)" xlink:href="#未命名的渐变_143"/><linearGradient id="未命名的渐变_143-85" x1="-204.18" y1="-64.49" x2="-204.18" y2="-99.36" gradientTransform="matrix(0, -1, -1, 0, 1.24, -144.51)" xlink:href="#未命名的渐变_143"/><linearGradient id="未命名的渐变_143-86" x1="-203.33" y1="-64.49" x2="-203.33" y2="-99.36" gradientTransform="matrix(0, -1, -1, 0, 1.24, -144.51)" xlink:href="#未命名的渐变_143"/><linearGradient id="未命名的渐变_143-87" x1="-202.48" y1="-64.49" x2="-202.48" y2="-99.36" gradientTransform="matrix(0, -1, -1, 0, 1.24, -144.51)" xlink:href="#未命名的渐变_143"/><linearGradient id="未命名的渐变_143-88" x1="-201.63" y1="-64.49" x2="-201.63" y2="-99.36" gradientTransform="matrix(0, -1, -1, 0, 1.24, -144.51)" xlink:href="#未命名的渐变_143"/><linearGradient id="未命名的渐变_143-89" x1="-200.78" y1="-64.49" x2="-200.78" y2="-99.36" gradientTransform="matrix(0, -1, -1, 0, 1.24, -144.51)" xlink:href="#未命名的渐变_143"/><linearGradient id="未命名的渐变_143-90" x1="-199.93" y1="-64.49" x2="-199.93" y2="-99.36" gradientTransform="matrix(0, -1, -1, 0, 1.24, -144.51)" xlink:href="#未命名的渐变_143"/><linearGradient id="未命名的渐变_143-91" x1="-199.07" y1="-64.49" x2="-199.07" y2="-99.36" gradientTransform="matrix(0, -1, -1, 0, 1.24, -144.51)" xlink:href="#未命名的渐变_143"/><linearGradient id="未命名的渐变_143-92" x1="-198.22" y1="-64.49" x2="-198.22" y2="-99.36" gradientTransform="matrix(0, -1, -1, 0, 1.24, -144.51)" xlink:href="#未命名的渐变_143"/><linearGradient id="未命名的渐变_143-93" x1="-197.37" y1="-64.49" x2="-197.37" y2="-99.36" gradientTransform="matrix(0, -1, -1, 0, 1.24, -144.51)" xlink:href="#未命名的渐变_143"/><linearGradient id="未命名的渐变_143-94" x1="-196.52" y1="-64.49" x2="-196.52" y2="-99.36" gradientTransform="matrix(0, -1, -1, 0, 1.24, -144.51)" xlink:href="#未命名的渐变_143"/><linearGradient id="未命名的渐变_143-95" x1="-195.67" y1="-64.49" x2="-195.67" y2="-99.36" gradientTransform="matrix(0, -1, -1, 0, 1.24, -144.51)" xlink:href="#未命名的渐变_143"/><linearGradient id="未命名的渐变_143-96" x1="-194.82" y1="-64.49" x2="-194.82" y2="-99.36" gradientTransform="matrix(0, -1, -1, 0, 1.24, -144.51)" xlink:href="#未命名的渐变_143"/><linearGradient id="未命名的渐变_143-97" x1="-193.97" y1="-64.49" x2="-193.97" y2="-99.36" gradientTransform="matrix(0, -1, -1, 0, 1.24, -144.51)" xlink:href="#未命名的渐变_143"/><linearGradient id="未命名的渐变_143-98" x1="-193.12" y1="-64.49" x2="-193.12" y2="-99.36" gradientTransform="matrix(0, -1, -1, 0, 1.24, -144.51)" xlink:href="#未命名的渐变_143"/><linearGradient id="未命名的渐变_143-99" x1="-192.26" y1="-64.49" x2="-192.26" y2="-99.36" gradientTransform="matrix(0, -1, -1, 0, 1.24, -144.51)" xlink:href="#未命名的渐变_143"/><linearGradient id="未命名的渐变_143-100" x1="-191.41" y1="-64.49" x2="-191.41" y2="-99.36" gradientTransform="matrix(0, -1, -1, 0, 1.24, -144.51)" xlink:href="#未命名的渐变_143"/><linearGradient id="未命名的渐变_143-101" x1="-190.56" y1="-64.49" x2="-190.56" y2="-99.36" gradientTransform="matrix(0, -1, -1, 0, 1.24, -144.51)" xlink:href="#未命名的渐变_143"/><linearGradient id="未命名的渐变_143-102" x1="-189.71" y1="-64.49" x2="-189.71" y2="-99.36" gradientTransform="matrix(0, -1, -1, 0, 1.24, -144.51)" xlink:href="#未命名的渐变_143"/><linearGradient id="未命名的渐变_143-103" x1="-188.86" y1="-64.49" x2="-188.86" y2="-99.36" gradientTransform="matrix(0, -1, -1, 0, 1.24, -144.51)" xlink:href="#未命名的渐变_143"/><linearGradient id="未命名的渐变_143-104" x1="-188.01" y1="-64.49" x2="-188.01" y2="-99.36" gradientTransform="matrix(0, -1, -1, 0, 1.24, -144.51)" xlink:href="#未命名的渐变_143"/><linearGradient id="未命名的渐变_143-105" x1="-187.16" y1="-64.49" x2="-187.16" y2="-99.36" gradientTransform="matrix(0, -1, -1, 0, 1.24, -144.51)" xlink:href="#未命名的渐变_143"/><linearGradient id="未命名的渐变_143-106" x1="-186.3" y1="-64.49" x2="-186.3" y2="-99.36" gradientTransform="matrix(0, -1, -1, 0, 1.24, -144.51)" xlink:href="#未命名的渐变_143"/><linearGradient id="未命名的渐变_143-107" x1="-185.45" y1="-64.49" x2="-185.45" y2="-99.36" gradientTransform="matrix(0, -1, -1, 0, 1.24, -144.51)" xlink:href="#未命名的渐变_143"/><linearGradient id="未命名的渐变_143-108" x1="-184.6" y1="-64.49" x2="-184.6" y2="-99.36" gradientTransform="matrix(0, -1, -1, 0, 1.24, -144.51)" xlink:href="#未命名的渐变_143"/><linearGradient id="未命名的渐变_143-109" x1="-183.75" y1="-64.49" x2="-183.75" y2="-99.36" gradientTransform="matrix(0, -1, -1, 0, 1.24, -144.51)" xlink:href="#未命名的渐变_143"/><linearGradient id="未命名的渐变_143-110" x1="-182.9" y1="-64.49" x2="-182.9" y2="-99.36" gradientTransform="matrix(0, -1, -1, 0, 1.24, -144.51)" xlink:href="#未命名的渐变_143"/><linearGradient id="未命名的渐变_143-111" x1="-182.05" y1="-64.49" x2="-182.05" y2="-99.36" gradientTransform="matrix(0, -1, -1, 0, 1.24, -144.51)" xlink:href="#未命名的渐变_143"/><linearGradient id="未命名的渐变_143-112" x1="-181.2" y1="-64.49" x2="-181.2" y2="-99.36" gradientTransform="matrix(0, -1, -1, 0, 1.24, -144.51)" xlink:href="#未命名的渐变_143"/><linearGradient id="未命名的渐变_143-113" x1="-180.34" y1="-64.49" x2="-180.34" y2="-99.36" gradientTransform="matrix(0, -1, -1, 0, 1.24, -144.51)" xlink:href="#未命名的渐变_143"/><linearGradient id="未命名的渐变_143-114" x1="-179.49" y1="-64.49" x2="-179.49" y2="-99.36" gradientTransform="matrix(0, -1, -1, 0, 1.24, -144.51)" xlink:href="#未命名的渐变_143"/><linearGradient id="未命名的渐变_143-115" x1="-178.64" y1="-64.49" x2="-178.64" y2="-99.36" gradientTransform="matrix(0, -1, -1, 0, 1.24, -144.51)" xlink:href="#未命名的渐变_143"/><linearGradient id="未命名的渐变_143-116" x1="-177.79" y1="-64.49" x2="-177.79" y2="-99.36" gradientTransform="matrix(0, -1, -1, 0, 1.24, -144.51)" xlink:href="#未命名的渐变_143"/><linearGradient id="未命名的渐变_143-117" x1="-176.94" y1="-64.49" x2="-176.94" y2="-99.36" gradientTransform="matrix(0, -1, -1, 0, 1.24, -144.51)" xlink:href="#未命名的渐变_143"/><linearGradient id="未命名的渐变_143-118" x1="-176.09" y1="-64.49" x2="-176.09" y2="-99.36" gradientTransform="matrix(0, -1, -1, 0, 1.24, -144.51)" xlink:href="#未命名的渐变_143"/><linearGradient id="未命名的渐变_143-119" x1="-175.24" y1="-64.49" x2="-175.24" y2="-99.36" gradientTransform="matrix(0, -1, -1, 0, 1.24, -144.51)" xlink:href="#未命名的渐变_143"/><linearGradient id="未命名的渐变_143-120" x1="-174.39" y1="-64.49" x2="-174.39" y2="-99.36" gradientTransform="matrix(0, -1, -1, 0, 1.24, -144.51)" xlink:href="#未命名的渐变_143"/><linearGradient id="未命名的渐变_143-121" x1="-173.53" y1="-64.49" x2="-173.53" y2="-99.36" gradientTransform="matrix(0, -1, -1, 0, 1.24, -144.51)" xlink:href="#未命名的渐变_143"/><linearGradient id="未命名的渐变_143-122" x1="-172.68" y1="-64.49" x2="-172.68" y2="-99.36" gradientTransform="matrix(0, -1, -1, 0, 1.24, -144.51)" xlink:href="#未命名的渐变_143"/><linearGradient id="未命名的渐变_143-123" x1="-171.83" y1="-64.49" x2="-171.83" y2="-99.36" gradientTransform="matrix(0, -1, -1, 0, 1.24, -144.51)" xlink:href="#未命名的渐变_143"/><linearGradient id="未命名的渐变_143-124" x1="-170.98" y1="-64.49" x2="-170.98" y2="-99.36" gradientTransform="matrix(0, -1, -1, 0, 1.24, -144.51)" xlink:href="#未命名的渐变_143"/><linearGradient id="未命名的渐变_143-125" x1="-170.13" y1="-64.49" x2="-170.13" y2="-99.36" gradientTransform="matrix(0, -1, -1, 0, 1.24, -144.51)" xlink:href="#未命名的渐变_143"/><linearGradient id="未命名的渐变_143-126" x1="-169.28" y1="-64.49" x2="-169.28" y2="-99.36" gradientTransform="matrix(0, -1, -1, 0, 1.24, -144.51)" xlink:href="#未命名的渐变_143"/><linearGradient id="未命名的渐变_143-127" x1="-168.43" y1="-64.49" x2="-168.43" y2="-99.36" gradientTransform="matrix(0, -1, -1, 0, 1.24, -144.51)" xlink:href="#未命名的渐变_143"/><linearGradient id="未命名的渐变_143-128" x1="-167.57" y1="-64.49" x2="-167.57" y2="-99.36" gradientTransform="matrix(0, -1, -1, 0, 1.24, -144.51)" xlink:href="#未命名的渐变_143"/><linearGradient id="未命名的渐变_143-129" x1="-166.72" y1="-64.49" x2="-166.72" y2="-99.36" gradientTransform="matrix(0, -1, -1, 0, 1.24, -144.51)" xlink:href="#未命名的渐变_143"/><linearGradient id="未命名的渐变_143-130" x1="-165.87" y1="-64.49" x2="-165.87" y2="-99.36" gradientTransform="matrix(0, -1, -1, 0, 1.24, -144.51)" xlink:href="#未命名的渐变_143"/></defs><title>iot-管道(21)</title><g id="图层_21" data-name="图层 21"><rect class="cls-1" x="-5.75" y="58.94" width="64.93" height="32.41" transform="translate(-48.43 101.86) rotate(-90)"/><rect class="cls-2" x="49.88" y="58.79" width="18.51" height="32.41" transform="translate(-15.87 134.13) rotate(-90)"/><rect class="cls-3" x="-36.12" y="69.74" width="82.75" height="10.51" transform="translate(-69.74 80.26) rotate(-90)"/><ellipse class="cls-4" cx="83.16" cy="128.64" rx="17.43" ry="21.36"/><ellipse class="cls-5" cx="83.16" cy="127.79" rx="17.43" ry="21.36"/><ellipse class="cls-6" cx="83.16" cy="126.93" rx="17.43" ry="21.36"/><ellipse class="cls-7" cx="83.16" cy="126.08" rx="17.43" ry="21.36"/><ellipse class="cls-8" cx="83.16" cy="125.23" rx="17.43" ry="21.36"/><ellipse class="cls-9" cx="83.16" cy="124.38" rx="17.43" ry="21.36"/><ellipse class="cls-10" cx="83.16" cy="123.53" rx="17.43" ry="21.36"/><ellipse class="cls-11" cx="83.16" cy="122.68" rx="17.43" ry="21.36"/><ellipse class="cls-12" cx="83.16" cy="121.83" rx="17.43" ry="21.36"/><ellipse class="cls-13" cx="83.16" cy="120.97" rx="17.43" ry="21.36"/><ellipse class="cls-14" cx="83.16" cy="120.12" rx="17.43" ry="21.36"/><ellipse class="cls-15" cx="83.16" cy="119.27" rx="17.43" ry="21.36"/><ellipse class="cls-16" cx="83.16" cy="118.42" rx="17.43" ry="21.36"/><ellipse class="cls-17" cx="83.16" cy="117.57" rx="17.43" ry="21.36"/><ellipse class="cls-18" cx="83.16" cy="116.72" rx="17.43" ry="21.36"/><ellipse class="cls-19" cx="83.16" cy="115.87" rx="17.43" ry="21.36"/><ellipse class="cls-20" cx="83.16" cy="115.01" rx="17.43" ry="21.36"/><ellipse class="cls-21" cx="83.16" cy="114.16" rx="17.43" ry="21.36"/><ellipse class="cls-22" cx="83.16" cy="113.31" rx="17.43" ry="21.36"/><ellipse class="cls-23" cx="83.16" cy="112.46" rx="17.43" ry="21.36"/><ellipse class="cls-24" cx="83.16" cy="111.61" rx="17.43" ry="21.36"/><ellipse class="cls-25" cx="83.16" cy="110.76" rx="17.43" ry="21.36"/><ellipse class="cls-26" cx="83.16" cy="109.91" rx="17.43" ry="21.36"/><ellipse class="cls-27" cx="83.16" cy="109.06" rx="17.43" ry="21.36"/><ellipse class="cls-28" cx="83.16" cy="108.2" rx="17.43" ry="21.36"/><ellipse class="cls-29" cx="83.16" cy="107.35" rx="17.43" ry="21.36"/><ellipse class="cls-30" cx="83.16" cy="106.5" rx="17.43" ry="21.36"/><ellipse class="cls-31" cx="83.16" cy="105.65" rx="17.43" ry="21.36"/><ellipse class="cls-32" cx="83.16" cy="104.8" rx="17.43" ry="21.36"/><ellipse class="cls-33" cx="83.16" cy="103.95" rx="17.43" ry="21.36"/><ellipse class="cls-34" cx="83.16" cy="103.1" rx="17.43" ry="21.36"/><ellipse class="cls-35" cx="83.16" cy="102.24" rx="17.43" ry="21.36"/><ellipse class="cls-36" cx="83.16" cy="101.39" rx="17.43" ry="21.36"/><ellipse class="cls-37" cx="83.16" cy="100.54" rx="17.43" ry="21.36"/><ellipse class="cls-38" cx="83.16" cy="99.69" rx="17.43" ry="21.36"/><ellipse class="cls-39" cx="83.16" cy="98.84" rx="17.43" ry="21.36"/><ellipse class="cls-40" cx="83.16" cy="97.99" rx="17.43" ry="21.36"/><ellipse class="cls-41" cx="83.16" cy="97.14" rx="17.43" ry="21.36"/><ellipse class="cls-42" cx="83.16" cy="96.28" rx="17.43" ry="21.36"/><ellipse class="cls-43" cx="83.16" cy="95.43" rx="17.43" ry="21.36"/><ellipse class="cls-44" cx="83.16" cy="94.58" rx="17.43" ry="21.36"/><ellipse class="cls-45" cx="83.16" cy="93.73" rx="17.43" ry="21.36"/><ellipse class="cls-46" cx="83.16" cy="92.88" rx="17.43" ry="21.36"/><ellipse class="cls-47" cx="83.16" cy="92.03" rx="17.43" ry="21.36"/><ellipse class="cls-48" cx="83.16" cy="91.18" rx="17.43" ry="21.36"/><ellipse class="cls-49" cx="83.16" cy="90.32" rx="17.43" ry="21.36"/><ellipse class="cls-50" cx="83.16" cy="89.47" rx="17.43" ry="21.36"/><ellipse class="cls-51" cx="83.16" cy="88.62" rx="17.43" ry="21.36"/><ellipse class="cls-52" cx="83.16" cy="87.77" rx="17.43" ry="21.36"/><ellipse class="cls-53" cx="83.16" cy="86.92" rx="17.43" ry="21.36"/><ellipse class="cls-54" cx="83.16" cy="86.07" rx="17.43" ry="21.36"/><ellipse class="cls-55" cx="83.16" cy="85.22" rx="17.43" ry="21.36"/><ellipse class="cls-56" cx="83.16" cy="84.37" rx="17.43" ry="21.36"/><ellipse class="cls-57" cx="83.16" cy="83.51" rx="17.43" ry="21.36"/><ellipse class="cls-58" cx="83.16" cy="82.66" rx="17.43" ry="21.36"/><ellipse class="cls-59" cx="83.16" cy="81.81" rx="17.43" ry="21.36"/><ellipse class="cls-60" cx="83.16" cy="80.96" rx="17.43" ry="21.36"/><ellipse class="cls-61" cx="83.16" cy="80.11" rx="17.43" ry="21.36"/><ellipse class="cls-62" cx="83.16" cy="79.26" rx="17.43" ry="21.36"/><ellipse class="cls-63" cx="83.16" cy="78.41" rx="17.43" ry="21.36"/><ellipse class="cls-64" cx="83.16" cy="77.55" rx="17.43" ry="21.36"/><ellipse class="cls-65" cx="83.16" cy="76.7" rx="17.43" ry="21.36"/><ellipse class="cls-66" cx="83.16" cy="75.85" rx="17.43" ry="21.36"/><ellipse class="cls-67" cx="83.16" cy="75" rx="17.43" ry="21.36"/><ellipse class="cls-68" cx="83.16" cy="74.15" rx="17.43" ry="21.36"/><ellipse class="cls-69" cx="83.16" cy="73.3" rx="17.43" ry="21.36"/><ellipse class="cls-70" cx="83.16" cy="72.45" rx="17.43" ry="21.36"/><ellipse class="cls-71" cx="83.16" cy="71.59" rx="17.43" ry="21.36"/><ellipse class="cls-72" cx="83.16" cy="70.74" rx="17.43" ry="21.36"/><ellipse class="cls-73" cx="83.16" cy="69.89" rx="17.43" ry="21.36"/><ellipse class="cls-74" cx="83.16" cy="69.04" rx="17.43" ry="21.36"/><ellipse class="cls-75" cx="83.16" cy="68.19" rx="17.43" ry="21.36"/><ellipse class="cls-76" cx="83.16" cy="67.34" rx="17.43" ry="21.36"/><ellipse class="cls-77" cx="83.16" cy="66.49" rx="17.43" ry="21.36"/><ellipse class="cls-78" cx="83.16" cy="65.63" rx="17.43" ry="21.36"/><ellipse class="cls-79" cx="83.16" cy="64.78" rx="17.43" ry="21.36"/><ellipse class="cls-80" cx="83.16" cy="63.93" rx="17.43" ry="21.36"/><ellipse class="cls-81" cx="83.16" cy="63.08" rx="17.43" ry="21.36"/><ellipse class="cls-82" cx="83.16" cy="62.23" rx="17.43" ry="21.36"/><ellipse class="cls-83" cx="83.16" cy="61.38" rx="17.43" ry="21.36"/><ellipse class="cls-84" cx="83.16" cy="60.53" rx="17.43" ry="21.36"/><ellipse class="cls-85" cx="83.16" cy="59.68" rx="17.43" ry="21.36"/><ellipse class="cls-86" cx="83.16" cy="58.82" rx="17.43" ry="21.36"/><ellipse class="cls-87" cx="83.16" cy="57.97" rx="17.43" ry="21.36"/><ellipse class="cls-88" cx="83.16" cy="57.12" rx="17.43" ry="21.36"/><ellipse class="cls-89" cx="83.16" cy="56.27" rx="17.43" ry="21.36"/><ellipse class="cls-90" cx="83.16" cy="55.42" rx="17.43" ry="21.36"/><ellipse class="cls-91" cx="83.16" cy="54.57" rx="17.43" ry="21.36"/><ellipse class="cls-92" cx="83.16" cy="53.72" rx="17.43" ry="21.36"/><ellipse class="cls-93" cx="83.16" cy="52.86" rx="17.43" ry="21.36"/><ellipse class="cls-94" cx="83.16" cy="52.01" rx="17.43" ry="21.36"/><ellipse class="cls-95" cx="83.16" cy="51.16" rx="17.43" ry="21.36"/><ellipse class="cls-96" cx="83.16" cy="50.31" rx="17.43" ry="21.36"/><ellipse class="cls-97" cx="83.16" cy="49.46" rx="17.43" ry="21.36"/><ellipse class="cls-98" cx="83.16" cy="48.61" rx="17.43" ry="21.36"/><ellipse class="cls-99" cx="83.16" cy="47.76" rx="17.43" ry="21.36"/><ellipse class="cls-100" cx="83.16" cy="46.9" rx="17.43" ry="21.36"/><ellipse class="cls-101" cx="83.16" cy="46.05" rx="17.43" ry="21.36"/><ellipse class="cls-102" cx="83.16" cy="45.2" rx="17.43" ry="21.36"/><ellipse class="cls-103" cx="83.16" cy="44.35" rx="17.43" ry="21.36"/><ellipse class="cls-104" cx="83.16" cy="43.5" rx="17.43" ry="21.36"/><ellipse class="cls-105" cx="83.16" cy="42.65" rx="17.43" ry="21.36"/><ellipse class="cls-106" cx="83.16" cy="41.8" rx="17.43" ry="21.36"/><ellipse class="cls-107" cx="83.16" cy="40.94" rx="17.43" ry="21.36"/><ellipse class="cls-108" cx="83.16" cy="40.09" rx="17.43" ry="21.36"/><ellipse class="cls-109" cx="83.16" cy="39.24" rx="17.43" ry="21.36"/><ellipse class="cls-110" cx="83.16" cy="38.39" rx="17.43" ry="21.36"/><ellipse class="cls-111" cx="83.16" cy="37.54" rx="17.43" ry="21.36"/><ellipse class="cls-112" cx="83.16" cy="36.69" rx="17.43" ry="21.36"/><ellipse class="cls-113" cx="83.16" cy="35.84" rx="17.43" ry="21.36"/><ellipse class="cls-114" cx="83.16" cy="34.99" rx="17.43" ry="21.36"/><ellipse class="cls-115" cx="83.16" cy="34.13" rx="17.43" ry="21.36"/><ellipse class="cls-116" cx="83.16" cy="33.28" rx="17.43" ry="21.36"/><ellipse class="cls-117" cx="83.16" cy="32.43" rx="17.43" ry="21.36"/><ellipse class="cls-118" cx="83.16" cy="31.58" rx="17.43" ry="21.36"/><ellipse class="cls-119" cx="83.16" cy="30.73" rx="17.43" ry="21.36"/><ellipse class="cls-120" cx="83.16" cy="29.88" rx="17.43" ry="21.36"/><ellipse class="cls-121" cx="83.16" cy="29.03" rx="17.43" ry="21.36"/><ellipse class="cls-122" cx="83.16" cy="28.17" rx="17.43" ry="21.36"/><ellipse class="cls-123" cx="83.16" cy="27.32" rx="17.43" ry="21.36"/><ellipse class="cls-124" cx="83.16" cy="26.47" rx="17.43" ry="21.36"/><ellipse class="cls-125" cx="83.16" cy="25.62" rx="17.43" ry="21.36"/><ellipse class="cls-126" cx="83.16" cy="24.77" rx="17.43" ry="21.36"/><ellipse class="cls-127" cx="83.16" cy="23.92" rx="17.43" ry="21.36"/><ellipse class="cls-128" cx="83.16" cy="23.07" rx="17.43" ry="21.36"/><ellipse class="cls-129" cx="83.16" cy="22.21" rx="17.43" ry="21.36"/><ellipse class="cls-130" cx="83.16" cy="21.36" rx="17.43" ry="21.36"/><g class="cls-131"><circle class="cls-132" cx="83.16" cy="75.15" r="41.09"/><circle class="cls-133" cx="83.16" cy="75.15" r="34.59"/><rect class="cls-134" x="58.34" y="66.79" width="49.64" height="16.72" transform="translate(166.32 150.29) rotate(180)"/></g></g></svg>