<svg xmlns="http://www.w3.org/2000/svg" xmlns:xlink="http://www.w3.org/1999/xlink" viewBox="0 0 150 150"><defs><style>.cls-1{fill:none;}.cls-2{clip-path:url(#clip-path);}.cls-3{fill:url(#未命名的渐变_143);}.cls-4{fill:url(#未命名的渐变_143-2);}.cls-5{fill:url(#未命名的渐变_143-3);}.cls-6{fill:url(#未命名的渐变_143-4);}.cls-7{fill:url(#未命名的渐变_143-5);}.cls-8{fill:url(#未命名的渐变_143-6);}.cls-9{fill:url(#未命名的渐变_143-7);}.cls-10{fill:url(#未命名的渐变_143-8);}.cls-11{fill:url(#未命名的渐变_143-9);}.cls-12{fill:url(#未命名的渐变_143-10);}.cls-13{fill:url(#未命名的渐变_143-11);}.cls-14{fill:url(#未命名的渐变_143-12);}.cls-15{fill:url(#未命名的渐变_143-13);}.cls-16{fill:url(#未命名的渐变_143-14);}.cls-17{fill:url(#未命名的渐变_143-15);}.cls-18{fill:url(#未命名的渐变_143-16);}.cls-19{fill:url(#未命名的渐变_143-17);}.cls-20{fill:url(#未命名的渐变_143-18);}.cls-21{fill:url(#未命名的渐变_143-19);}.cls-22{fill:url(#未命名的渐变_143-20);}.cls-23{fill:url(#未命名的渐变_143-21);}.cls-24{fill:url(#未命名的渐变_143-22);}.cls-25{fill:url(#未命名的渐变_143-23);}.cls-26{fill:url(#未命名的渐变_143-24);}.cls-27{fill:url(#未命名的渐变_143-25);}.cls-28{fill:url(#未命名的渐变_143-26);}.cls-29{fill:url(#未命名的渐变_143-27);}.cls-30{fill:url(#未命名的渐变_143-28);}.cls-31{fill:url(#未命名的渐变_143-29);}.cls-32{fill:url(#未命名的渐变_143-30);}.cls-33{fill:url(#未命名的渐变_143-31);}.cls-34{fill:url(#未命名的渐变_143-32);}.cls-35{fill:url(#未命名的渐变_143-33);}.cls-36{fill:url(#未命名的渐变_143-34);}.cls-37{fill:url(#未命名的渐变_143-35);}.cls-38{fill:url(#未命名的渐变_143-36);}.cls-39{fill:url(#未命名的渐变_143-37);}.cls-40{fill:url(#未命名的渐变_143-38);}.cls-41{fill:url(#未命名的渐变_143-39);}.cls-42{fill:url(#未命名的渐变_143-40);}.cls-43{fill:url(#未命名的渐变_143-41);}.cls-44{fill:url(#未命名的渐变_143-42);}.cls-45{fill:url(#未命名的渐变_143-43);}.cls-46{fill:url(#未命名的渐变_143-44);}.cls-47{fill:url(#未命名的渐变_143-45);}.cls-48{fill:url(#未命名的渐变_143-46);}.cls-49{fill:url(#未命名的渐变_143-47);}.cls-50{fill:url(#未命名的渐变_143-48);}.cls-51{fill:url(#未命名的渐变_143-49);}.cls-52{fill:url(#未命名的渐变_143-50);}.cls-53{fill:url(#未命名的渐变_143-51);}.cls-54{fill:url(#未命名的渐变_143-52);}.cls-55{fill:url(#未命名的渐变_143-53);}.cls-56{fill:url(#未命名的渐变_143-54);}.cls-57{fill:url(#未命名的渐变_143-55);}.cls-58{fill:url(#未命名的渐变_143-56);}.cls-59{fill:url(#未命名的渐变_143-57);}.cls-60{fill:url(#未命名的渐变_143-58);}.cls-61{fill:url(#未命名的渐变_143-59);}.cls-62{fill:url(#未命名的渐变_143-60);}.cls-63{fill:url(#未命名的渐变_143-61);}.cls-64{fill:url(#未命名的渐变_143-62);}.cls-65{fill:url(#未命名的渐变_143-63);}.cls-66{fill:url(#未命名的渐变_143-64);}.cls-67{fill:url(#未命名的渐变_143-65);}.cls-68{fill:url(#未命名的渐变_143-66);}.cls-69{fill:url(#未命名的渐变_143-67);}.cls-70{fill:url(#未命名的渐变_143-68);}.cls-71{fill:url(#未命名的渐变_143-69);}.cls-72{fill:url(#未命名的渐变_143-70);}.cls-73{fill:url(#未命名的渐变_143-71);}.cls-74{fill:url(#未命名的渐变_143-72);}.cls-75{fill:url(#未命名的渐变_143-73);}.cls-76{fill:url(#未命名的渐变_143-74);}.cls-77{fill:url(#未命名的渐变_143-75);}.cls-78{fill:url(#未命名的渐变_143-76);}.cls-79{fill:url(#未命名的渐变_143-77);}.cls-80{fill:url(#未命名的渐变_143-78);}.cls-81{fill:url(#未命名的渐变_143-79);}.cls-82{fill:url(#未命名的渐变_143-80);}.cls-83{fill:url(#未命名的渐变_143-81);}.cls-84{fill:url(#未命名的渐变_143-82);}.cls-85{fill:url(#未命名的渐变_143-83);}.cls-86{fill:url(#未命名的渐变_143-84);}.cls-87{fill:url(#未命名的渐变_143-85);}.cls-88{fill:url(#未命名的渐变_143-86);}.cls-89{fill:url(#未命名的渐变_143-87);}.cls-90{fill:url(#未命名的渐变_143-88);}.cls-91{fill:url(#未命名的渐变_143-89);}.cls-92{fill:url(#未命名的渐变_143-90);}.cls-93{fill:url(#未命名的渐变_143-91);}.cls-94{fill:url(#未命名的渐变_143-92);}.cls-95{fill:url(#未命名的渐变_143-93);}.cls-96{fill:url(#未命名的渐变_143-94);}.cls-97{fill:url(#未命名的渐变_143-95);}.cls-98{fill:url(#未命名的渐变_143-96);}.cls-99{fill:url(#未命名的渐变_143-97);}.cls-100{fill:url(#未命名的渐变_143-98);}.cls-101{clip-path:url(#clip-path-2);}.cls-102{clip-path:url(#clip-path-3);}.cls-103{fill:url(#未命名的渐变_143-99);}.cls-104{fill:url(#未命名的渐变_143-100);}.cls-105{fill:url(#未命名的渐变_143-101);}.cls-106{fill:url(#未命名的渐变_143-102);}.cls-107{fill:url(#未命名的渐变_143-103);}.cls-108{fill:url(#未命名的渐变_143-104);}.cls-109{fill:url(#未命名的渐变_143-105);}.cls-110{fill:url(#未命名的渐变_143-106);}.cls-111{fill:url(#未命名的渐变_143-107);}.cls-112{fill:url(#未命名的渐变_143-108);}.cls-113{fill:url(#未命名的渐变_143-109);}.cls-114{fill:url(#未命名的渐变_143-110);}.cls-115{fill:url(#未命名的渐变_143-111);}.cls-116{fill:url(#未命名的渐变_143-112);}.cls-117{fill:url(#未命名的渐变_143-113);}.cls-118{fill:url(#未命名的渐变_143-114);}.cls-119{fill:url(#未命名的渐变_143-115);}.cls-120{fill:url(#未命名的渐变_143-116);}.cls-121{fill:url(#未命名的渐变_143-117);}.cls-122{fill:url(#未命名的渐变_143-118);}.cls-123{fill:url(#未命名的渐变_143-119);}.cls-124{fill:url(#未命名的渐变_143-120);}.cls-125{fill:url(#未命名的渐变_143-121);}.cls-126{fill:url(#未命名的渐变_143-122);}.cls-127{fill:url(#未命名的渐变_143-123);}.cls-128{fill:url(#未命名的渐变_143-124);}.cls-129{fill:url(#未命名的渐变_143-125);}.cls-130{fill:url(#未命名的渐变_143-126);}.cls-131{fill:url(#未命名的渐变_143-127);}.cls-132{fill:url(#未命名的渐变_143-128);}.cls-133{fill:url(#未命名的渐变_143-129);}.cls-134{fill:url(#未命名的渐变_143-130);}.cls-135{fill:url(#未命名的渐变_143-131);}.cls-136{fill:url(#未命名的渐变_143-132);}.cls-137{fill:url(#未命名的渐变_143-133);}.cls-138{fill:url(#未命名的渐变_143-134);}.cls-139{fill:url(#未命名的渐变_143-135);}.cls-140{fill:url(#未命名的渐变_143-136);}.cls-141{fill:url(#未命名的渐变_143-137);}.cls-142{fill:url(#未命名的渐变_143-138);}.cls-143{fill:url(#未命名的渐变_143-139);}.cls-144{fill:url(#未命名的渐变_143-140);}.cls-145{fill:url(#未命名的渐变_143-141);}.cls-146{fill:url(#未命名的渐变_143-142);}.cls-147{fill:url(#未命名的渐变_143-143);}.cls-148{fill:url(#未命名的渐变_143-144);}.cls-149{fill:url(#未命名的渐变_143-145);}.cls-150{fill:url(#未命名的渐变_143-146);}.cls-151{fill:url(#未命名的渐变_143-147);}.cls-152{fill:url(#未命名的渐变_143-148);}.cls-153{fill:url(#未命名的渐变_143-149);}.cls-154{fill:url(#未命名的渐变_143-150);}.cls-155{fill:url(#未命名的渐变_143-151);}.cls-156{fill:url(#未命名的渐变_143-152);}.cls-157{fill:url(#未命名的渐变_143-153);}.cls-158{fill:url(#未命名的渐变_143-154);}.cls-159{fill:url(#未命名的渐变_143-155);}.cls-160{fill:url(#未命名的渐变_143-156);}.cls-161{fill:url(#未命名的渐变_143-157);}.cls-162{fill:url(#未命名的渐变_143-158);}.cls-163{fill:url(#未命名的渐变_143-159);}.cls-164{fill:url(#未命名的渐变_143-160);}.cls-165{fill:url(#未命名的渐变_143-161);}.cls-166{fill:url(#未命名的渐变_143-162);}.cls-167{fill:url(#未命名的渐变_143-163);}.cls-168{opacity:0.2;}</style><clipPath id="clip-path"><rect class="cls-1" width="150" height="150" transform="translate(150 150) rotate(180)"/></clipPath><linearGradient id="未命名的渐变_143" x1="541.64" y1="-414.65" x2="541.64" y2="-506.57" gradientTransform="translate(-357.3 -547.3) rotate(90)" gradientUnits="userSpaceOnUse"><stop offset="0" stop-color="#b7b7b7"/><stop offset="0.03" stop-color="#9b9d9d"/><stop offset="0.07" stop-color="#878b8b"/><stop offset="0.09" stop-color="#808484"/><stop offset="0.2" stop-color="#a3a6a6"/><stop offset="0.49" stop-color="#f6f6f6"/><stop offset="0.61" stop-color="#f3f3f3"/><stop offset="0.7" stop-color="#eaeaea"/><stop offset="0.77" stop-color="#dbdbdb"/><stop offset="0.83" stop-color="#c5c5c5"/><stop offset="0.9" stop-color="#aaa"/><stop offset="0.95" stop-color="#888"/><stop offset="1" stop-color="#666"/></linearGradient><linearGradient id="未命名的渐变_143-2" x1="537.62" y1="-413.55" x2="537.62" y2="-505.47" gradientTransform="translate(-356.2 -541.53) rotate(90)" xlink:href="#未命名的渐变_143"/><linearGradient id="未命名的渐变_143-3" x1="533.6" y1="-412.45" x2="533.6" y2="-504.37" gradientTransform="translate(-355.11 -535.76) rotate(90)" xlink:href="#未命名的渐变_143"/><linearGradient id="未命名的渐变_143-4" x1="529.58" y1="-411.36" x2="529.58" y2="-503.28" gradientTransform="translate(-352.27 -531.47) rotate(90.19)" xlink:href="#未命名的渐变_143"/><linearGradient id="未命名的渐变_143-5" x1="525.56" y1="-410.26" x2="525.56" y2="-502.18" gradientTransform="translate(-342.07 -533.35) rotate(91.17)" xlink:href="#未命名的渐变_143"/><linearGradient id="未命名的渐变_143-6" x1="521.53" y1="-409.16" x2="521.53" y2="-501.08" gradientTransform="translate(-331.91 -535.04) rotate(92.16)" xlink:href="#未命名的渐变_143"/><linearGradient id="未命名的渐变_143-7" x1="517.51" y1="-408.06" x2="517.51" y2="-499.98" gradientTransform="translate(-321.79 -536.55) rotate(93.15)" xlink:href="#未命名的渐变_143"/><linearGradient id="未命名的渐变_143-8" x1="513.49" y1="-406.96" x2="513.49" y2="-498.88" gradientTransform="translate(-311.73 -537.87) rotate(94.13)" xlink:href="#未命名的渐变_143"/><linearGradient id="未命名的渐变_143-9" x1="509.47" y1="-405.86" x2="509.47" y2="-497.78" gradientTransform="matrix(-0.09, 1, -1, -0.09, -301.72, -539)" xlink:href="#未命名的渐变_143"/><linearGradient id="未命名的渐变_143-10" x1="505.44" y1="-404.76" x2="505.44" y2="-496.68" gradientTransform="translate(-291.78 -539.95) rotate(96.1)" xlink:href="#未命名的渐变_143"/><linearGradient id="未命名的渐变_143-11" x1="501.42" y1="-403.66" x2="501.42" y2="-495.59" gradientTransform="translate(-281.9 -540.71) rotate(97.08)" xlink:href="#未命名的渐变_143"/><linearGradient id="未命名的渐变_143-12" x1="497.4" y1="-402.57" x2="497.4" y2="-494.49" gradientTransform="translate(-272.08 -541.3) rotate(98.06)" xlink:href="#未命名的渐变_143"/><linearGradient id="未命名的渐变_143-13" x1="493.38" y1="-401.47" x2="493.38" y2="-493.39" gradientTransform="translate(-262.35 -541.7) rotate(99.04)" xlink:href="#未命名的渐变_143"/><linearGradient id="未命名的渐变_143-14" x1="489.36" y1="-400.37" x2="489.36" y2="-492.29" gradientTransform="translate(-252.68 -541.93) rotate(100.02)" xlink:href="#未命名的渐变_143"/><linearGradient id="未命名的渐变_143-15" x1="485.33" y1="-399.27" x2="485.33" y2="-491.19" gradientTransform="matrix(-0.19, 0.98, -0.98, -0.19, -243.11, -541.99)" xlink:href="#未命名的渐变_143"/><linearGradient id="未命名的渐变_143-16" x1="481.31" y1="-398.17" x2="481.31" y2="-490.09" gradientTransform="translate(-233.61 -541.87) rotate(101.97)" xlink:href="#未命名的渐变_143"/><linearGradient id="未命名的渐变_143-17" x1="477.29" y1="-397.07" x2="477.29" y2="-488.99" gradientTransform="translate(-224.21 -541.58) rotate(102.94)" xlink:href="#未命名的渐变_143"/><linearGradient id="未命名的渐变_143-18" x1="473.27" y1="-395.97" x2="473.27" y2="-487.9" gradientTransform="translate(-214.89 -541.13) rotate(103.92)" xlink:href="#未命名的渐变_143"/><linearGradient id="未命名的渐变_143-19" x1="469.24" y1="-394.88" x2="469.24" y2="-486.8" gradientTransform="matrix(-0.26, 0.97, -0.97, -0.26, -205.68, -540.51)" xlink:href="#未命名的渐变_143"/><linearGradient id="未命名的渐变_143-20" x1="465.22" y1="-393.78" x2="465.22" y2="-485.7" gradientTransform="translate(-196.56 -539.72) rotate(105.86)" xlink:href="#未命名的渐变_143"/><linearGradient id="未命名的渐变_143-21" x1="461.2" y1="-392.68" x2="461.2" y2="-484.6" gradientTransform="translate(-187.54 -538.79) rotate(106.82)" xlink:href="#未命名的渐变_143"/><linearGradient id="未命名的渐变_143-22" x1="457.18" y1="-391.58" x2="457.18" y2="-483.5" gradientTransform="translate(-178.63 -537.69) rotate(107.79)" xlink:href="#未命名的渐变_143"/><linearGradient id="未命名的渐变_143-23" x1="453.15" y1="-390.48" x2="453.15" y2="-482.4" gradientTransform="translate(-169.83 -536.44) rotate(108.75)" xlink:href="#未命名的渐变_143"/><linearGradient id="未命名的渐变_143-24" x1="449.13" y1="-389.38" x2="449.13" y2="-481.3" gradientTransform="translate(-161.14 -535.05) rotate(109.71)" xlink:href="#未命名的渐变_143"/><linearGradient id="未命名的渐变_143-25" x1="445.11" y1="-388.28" x2="445.11" y2="-480.2" gradientTransform="matrix(-0.35, 0.94, -0.94, -0.35, -152.55, -533.51)" xlink:href="#未命名的渐变_143"/><linearGradient id="未命名的渐变_143-26" x1="441.09" y1="-387.18" x2="441.09" y2="-479.11" gradientTransform="translate(-144.09 -531.83) rotate(111.63)" xlink:href="#未命名的渐变_143"/><linearGradient id="未命名的渐变_143-27" x1="437.06" y1="-386.09" x2="437.06" y2="-478.01" gradientTransform="matrix(-0.38, 0.92, -0.92, -0.38, -135.73, -530.01)" xlink:href="#未命名的渐变_143"/><linearGradient id="未命名的渐变_143-28" x1="433.04" y1="-384.99" x2="433.04" y2="-476.91" gradientTransform="translate(-127.5 -528.05) rotate(113.54)" xlink:href="#未命名的渐变_143"/><linearGradient id="未命名的渐变_143-29" x1="429.02" y1="-383.89" x2="429.02" y2="-475.81" gradientTransform="translate(-119.39 -525.97) rotate(114.49)" xlink:href="#未命名的渐变_143"/><linearGradient id="未命名的渐变_143-30" x1="425" y1="-382.79" x2="425" y2="-474.71" gradientTransform="translate(-111.39 -523.76) rotate(115.44)" xlink:href="#未命名的渐变_143"/><linearGradient id="未命名的渐变_143-31" x1="420.97" y1="-381.69" x2="420.97" y2="-473.61" gradientTransform="translate(-103.52 -521.42) rotate(116.39)" xlink:href="#未命名的渐变_143"/><linearGradient id="未命名的渐变_143-32" x1="416.95" y1="-380.59" x2="416.95" y2="-472.51" gradientTransform="translate(-95.78 -518.96) rotate(117.34)" xlink:href="#未命名的渐变_143"/><linearGradient id="未命名的渐变_143-33" x1="412.93" y1="-379.49" x2="412.93" y2="-471.41" gradientTransform="translate(-88.15 -516.39) rotate(118.28)" xlink:href="#未命名的渐变_143"/><linearGradient id="未命名的渐变_143-34" x1="408.91" y1="-378.4" x2="408.91" y2="-470.32" gradientTransform="translate(-80.66 -513.71) rotate(119.23)" xlink:href="#未命名的渐变_143"/><linearGradient id="未命名的渐变_143-35" x1="404.89" y1="-377.3" x2="404.89" y2="-469.22" gradientTransform="matrix(-0.5, 0.86, -0.86, -0.5, -73.29, -510.91)" xlink:href="#未命名的渐变_143"/><linearGradient id="未命名的渐变_143-36" x1="400.86" y1="-376.2" x2="400.86" y2="-468.12" gradientTransform="matrix(-0.52, 0.86, -0.86, -0.52, -66.04, -508.01)" xlink:href="#未命名的渐变_143"/><linearGradient id="未命名的渐变_143-37" x1="396.84" y1="-375.1" x2="396.84" y2="-467.02" gradientTransform="matrix(-0.53, 0.85, -0.85, -0.53, -58.93, -505.01)" xlink:href="#未命名的渐变_143"/><linearGradient id="未命名的渐变_143-38" x1="392.82" y1="-374" x2="392.82" y2="-465.92" gradientTransform="translate(-51.94 -501.91) rotate(122.98)" xlink:href="#未命名的渐变_143"/><linearGradient id="未命名的渐变_143-39" x1="388.8" y1="-372.9" x2="388.8" y2="-464.82" gradientTransform="translate(-45.08 -498.71) rotate(123.92)" xlink:href="#未命名的渐变_143"/><linearGradient id="未命名的渐变_143-40" x1="384.77" y1="-371.8" x2="384.77" y2="-463.72" gradientTransform="matrix(-0.57, 0.82, -0.82, -0.57, -38.35, -495.43)" xlink:href="#未命名的渐变_143"/><linearGradient id="未命名的渐变_143-41" x1="380.75" y1="-370.7" x2="380.75" y2="-462.63" gradientTransform="matrix(-0.58, 0.81, -0.81, -0.58, -31.74, -492.06)" xlink:href="#未命名的渐变_143"/><linearGradient id="未命名的渐变_143-42" x1="376.73" y1="-369.61" x2="376.73" y2="-461.53" gradientTransform="matrix(-0.6, 0.8, -0.8, -0.6, -25.27, -488.6)" xlink:href="#未命名的渐变_143"/><linearGradient id="未命名的渐变_143-43" x1="372.71" y1="-368.51" x2="372.71" y2="-460.43" gradientTransform="translate(-18.92 -485.06) rotate(127.65)" xlink:href="#未命名的渐变_143"/><linearGradient id="未命名的渐变_143-44" x1="368.68" y1="-367.41" x2="368.68" y2="-459.33" gradientTransform="matrix(-0.62, 0.78, -0.78, -0.62, -12.71, -481.45)" xlink:href="#未命名的渐变_143"/><linearGradient id="未命名的渐变_143-45" x1="364.66" y1="-366.31" x2="364.66" y2="-458.23" gradientTransform="matrix(-0.64, 0.77, -0.77, -0.64, -6.62, -477.76)" xlink:href="#未命名的渐变_143"/><linearGradient id="未命名的渐变_143-46" x1="360.64" y1="-365.21" x2="360.64" y2="-457.13" gradientTransform="translate(-0.66 -474) rotate(130.45)" xlink:href="#未命名的渐变_143"/><linearGradient id="未命名的渐变_143-47" x1="356.62" y1="-364.11" x2="356.62" y2="-456.03" gradientTransform="matrix(-0.66, 0.75, -0.75, -0.66, 5.18, -470.17)" xlink:href="#未命名的渐变_143"/><linearGradient id="未命名的渐变_143-48" x1="352.59" y1="-363.01" x2="352.59" y2="-454.93" gradientTransform="translate(10.89 -466.28) rotate(132.3)" xlink:href="#未命名的渐变_143"/><linearGradient id="未命名的渐变_143-49" x1="348.57" y1="-361.91" x2="348.57" y2="-453.84" gradientTransform="translate(16.47 -462.33) rotate(133.23)" xlink:href="#未命名的渐变_143"/><linearGradient id="未命名的渐变_143-50" x1="344.55" y1="-360.82" x2="344.55" y2="-452.74" gradientTransform="translate(21.92 -458.32) rotate(134.16)" xlink:href="#未命名的渐变_143"/><linearGradient id="未命名的渐变_143-51" x1="340.53" y1="-359.72" x2="340.53" y2="-451.64" gradientTransform="translate(27.25 -454.25) rotate(135.09)" xlink:href="#未命名的渐变_143"/><linearGradient id="未命名的渐变_143-52" x1="336.51" y1="-358.62" x2="336.51" y2="-450.54" gradientTransform="translate(32.45 -450.14) rotate(136.02)" xlink:href="#未命名的渐变_143"/><linearGradient id="未命名的渐变_143-53" x1="332.48" y1="-357.52" x2="332.48" y2="-449.44" gradientTransform="translate(37.53 -445.97) rotate(136.95)" xlink:href="#未命名的渐变_143"/><linearGradient id="未命名的渐变_143-54" x1="328.46" y1="-356.42" x2="328.46" y2="-448.34" gradientTransform="translate(42.49 -441.76) rotate(137.87)" xlink:href="#未命名的渐变_143"/><linearGradient id="未命名的渐变_143-55" x1="324.44" y1="-355.32" x2="324.44" y2="-447.24" gradientTransform="matrix(-0.75, 0.66, -0.66, -0.75, 47.33, -437.51)" xlink:href="#未命名的渐变_143"/><linearGradient id="未命名的渐变_143-56" x1="320.42" y1="-354.22" x2="320.42" y2="-446.14" gradientTransform="translate(52.04 -433.21) rotate(139.73)" xlink:href="#未命名的渐变_143"/><linearGradient id="未命名的渐变_143-57" x1="316.39" y1="-353.13" x2="316.39" y2="-445.05" gradientTransform="translate(56.63 -428.88) rotate(140.66)" xlink:href="#未命名的渐变_143"/><linearGradient id="未命名的渐变_143-58" x1="312.37" y1="-352.03" x2="312.37" y2="-443.95" gradientTransform="matrix(-0.78, 0.62, -0.62, -0.78, 61.1, -424.52)" xlink:href="#未命名的渐变_143"/><linearGradient id="未命名的渐变_143-59" x1="308.35" y1="-350.93" x2="308.35" y2="-442.85" gradientTransform="matrix(-0.79, 0.61, -0.61, -0.79, 65.45, -420.12)" xlink:href="#未命名的渐变_143"/><linearGradient id="未命名的渐变_143-60" x1="304.33" y1="-349.83" x2="304.33" y2="-441.75" gradientTransform="translate(69.68 -415.69) rotate(143.46)" xlink:href="#未命名的渐变_143"/><linearGradient id="未命名的渐变_143-61" x1="300.3" y1="-348.73" x2="300.3" y2="-440.65" gradientTransform="matrix(-0.81, 0.58, -0.58, -0.81, 73.79, -411.24)" xlink:href="#未命名的渐变_143"/><linearGradient id="未命名的渐变_143-62" x1="296.28" y1="-347.63" x2="296.28" y2="-439.55" gradientTransform="translate(77.79 -406.76) rotate(145.32)" xlink:href="#未命名的渐变_143"/><linearGradient id="未命名的渐变_143-63" x1="292.26" y1="-346.53" x2="292.26" y2="-438.45" gradientTransform="translate(81.67 -402.26) rotate(146.26)" xlink:href="#未命名的渐变_143"/><linearGradient id="未命名的渐变_143-64" x1="288.24" y1="-345.43" x2="288.24" y2="-437.36" gradientTransform="translate(85.44 -397.74) rotate(147.19)" xlink:href="#未命名的渐变_143"/><linearGradient id="未命名的渐变_143-65" x1="284.21" y1="-344.34" x2="284.21" y2="-436.26" gradientTransform="translate(89.09 -393.21) rotate(148.13)" xlink:href="#未命名的渐变_143"/><linearGradient id="未命名的渐变_143-66" x1="280.19" y1="-343.24" x2="280.19" y2="-435.16" gradientTransform="translate(92.62 -388.66) rotate(149.07)" xlink:href="#未命名的渐变_143"/><linearGradient id="未命名的渐变_143-67" x1="276.17" y1="-342.14" x2="276.17" y2="-434.06" gradientTransform="translate(96.04 -384.1) rotate(150.01)" xlink:href="#未命名的渐变_143"/><linearGradient id="未命名的渐变_143-68" x1="272.15" y1="-341.04" x2="272.15" y2="-432.96" gradientTransform="matrix(-0.87, 0.49, -0.49, -0.87, 99.35, -379.53)" xlink:href="#未命名的渐变_143"/><linearGradient id="未命名的渐变_143-69" x1="268.12" y1="-339.94" x2="268.12" y2="-431.86" gradientTransform="translate(102.55 -374.96) rotate(151.9)" xlink:href="#未命名的渐变_143"/><linearGradient id="未命名的渐变_143-70" x1="264.1" y1="-338.84" x2="264.1" y2="-430.76" gradientTransform="translate(105.64 -370.38) rotate(152.84)" xlink:href="#未命名的渐变_143"/><linearGradient id="未命名的渐变_143-71" x1="260.08" y1="-337.74" x2="260.08" y2="-429.66" gradientTransform="translate(108.62 -365.8) rotate(153.79)" xlink:href="#未命名的渐变_143"/><linearGradient id="未命名的渐变_143-72" x1="256.06" y1="-336.65" x2="256.06" y2="-428.57" gradientTransform="translate(111.49 -361.22) rotate(154.74)" xlink:href="#未命名的渐变_143"/><linearGradient id="未命名的渐变_143-73" x1="252.04" y1="-335.55" x2="252.04" y2="-427.47" gradientTransform="translate(114.25 -356.64) rotate(155.69)" xlink:href="#未命名的渐变_143"/><linearGradient id="未命名的渐变_143-74" x1="248.01" y1="-334.45" x2="248.01" y2="-426.37" gradientTransform="translate(116.9 -352.07) rotate(156.64)" xlink:href="#未命名的渐变_143"/><linearGradient id="未命名的渐变_143-75" x1="243.99" y1="-333.35" x2="243.99" y2="-425.27" gradientTransform="translate(119.44 -347.5) rotate(157.6)" xlink:href="#未命名的渐变_143"/><linearGradient id="未命名的渐变_143-76" x1="239.97" y1="-332.25" x2="239.97" y2="-424.17" gradientTransform="matrix(-0.93, 0.37, -0.37, -0.93, 121.88, -342.95)" xlink:href="#未命名的渐变_143"/><linearGradient id="未命名的渐变_143-77" x1="235.95" y1="-331.15" x2="235.95" y2="-423.07" gradientTransform="matrix(-0.94, 0.35, -0.35, -0.94, 124.21, -338.4)" xlink:href="#未命名的渐变_143"/><linearGradient id="未命名的渐变_143-78" x1="231.92" y1="-330.05" x2="231.92" y2="-421.97" gradientTransform="translate(126.44 -333.87) rotate(160.47)" xlink:href="#未命名的渐变_143"/><linearGradient id="未命名的渐变_143-79" x1="227.9" y1="-328.95" x2="227.9" y2="-420.88" gradientTransform="translate(128.56 -329.36) rotate(161.43)" xlink:href="#未命名的渐变_143"/><linearGradient id="未命名的渐变_143-80" x1="223.88" y1="-327.86" x2="223.88" y2="-419.78" gradientTransform="translate(130.58 -324.87) rotate(162.4)" xlink:href="#未命名的渐变_143"/><linearGradient id="未命名的渐变_143-81" x1="219.86" y1="-326.76" x2="219.86" y2="-418.68" gradientTransform="translate(132.5 -320.4) rotate(163.36)" xlink:href="#未命名的渐变_143"/><linearGradient id="未命名的渐变_143-82" x1="215.83" y1="-325.66" x2="215.83" y2="-417.58" gradientTransform="translate(134.32 -315.95) rotate(164.33)" xlink:href="#未命名的渐变_143"/><linearGradient id="未命名的渐变_143-83" x1="211.81" y1="-324.56" x2="211.81" y2="-416.48" gradientTransform="matrix(-0.97, 0.25, -0.25, -0.97, 136.03, -311.53)" xlink:href="#未命名的渐变_143"/><linearGradient id="未命名的渐变_143-84" x1="207.79" y1="-323.46" x2="207.79" y2="-415.38" gradientTransform="translate(137.64 -307.14) rotate(166.27)" xlink:href="#未命名的渐变_143"/><linearGradient id="未命名的渐变_143-85" x1="203.77" y1="-322.36" x2="203.77" y2="-414.28" gradientTransform="translate(139.15 -302.78) rotate(167.24)" xlink:href="#未命名的渐变_143"/><linearGradient id="未命名的渐变_143-86" x1="199.74" y1="-321.26" x2="199.74" y2="-413.18" gradientTransform="translate(140.57 -298.45) rotate(168.21)" xlink:href="#未命名的渐变_143"/><linearGradient id="未命名的渐变_143-87" x1="195.72" y1="-320.16" x2="195.72" y2="-412.09" gradientTransform="translate(141.88 -294.16) rotate(169.19)" xlink:href="#未命名的渐变_143"/><linearGradient id="未命名的渐变_143-88" x1="191.7" y1="-319.07" x2="191.7" y2="-410.99" gradientTransform="translate(143.09 -289.9) rotate(170.17)" xlink:href="#未命名的渐变_143"/><linearGradient id="未命名的渐变_143-89" x1="187.68" y1="-317.97" x2="187.68" y2="-409.89" gradientTransform="translate(144.21 -285.69) rotate(171.15)" xlink:href="#未命名的渐变_143"/><linearGradient id="未命名的渐变_143-90" x1="183.66" y1="-316.87" x2="183.66" y2="-408.79" gradientTransform="translate(145.23 -281.52) rotate(172.13)" xlink:href="#未命名的渐变_143"/><linearGradient id="未命名的渐变_143-91" x1="179.63" y1="-315.77" x2="179.63" y2="-407.69" gradientTransform="translate(146.16 -277.4) rotate(173.11)" xlink:href="#未命名的渐变_143"/><linearGradient id="未命名的渐变_143-92" x1="175.61" y1="-314.67" x2="175.61" y2="-406.59" gradientTransform="translate(146.99 -273.32) rotate(174.09)" xlink:href="#未命名的渐变_143"/><linearGradient id="未命名的渐变_143-93" x1="171.59" y1="-313.57" x2="171.59" y2="-405.49" gradientTransform="translate(147.72 -269.29) rotate(175.07)" xlink:href="#未命名的渐变_143"/><linearGradient id="未命名的渐变_143-94" x1="167.57" y1="-312.47" x2="167.57" y2="-404.39" gradientTransform="translate(148.36 -265.32) rotate(176.06)" xlink:href="#未命名的渐变_143"/><linearGradient id="未命名的渐变_143-95" x1="163.54" y1="-311.38" x2="163.54" y2="-403.3" gradientTransform="translate(148.91 -261.4) rotate(177.04)" xlink:href="#未命名的渐变_143"/><linearGradient id="未命名的渐变_143-96" x1="159.52" y1="-310.28" x2="159.52" y2="-402.2" gradientTransform="translate(149.36 -257.54) rotate(178.03)" xlink:href="#未命名的渐变_143"/><linearGradient id="未命名的渐变_143-97" x1="155.5" y1="-309.18" x2="155.5" y2="-401.1" gradientTransform="translate(149.73 -253.74) rotate(179.01)" xlink:href="#未命名的渐变_143"/><linearGradient id="未命名的渐变_143-98" x1="151.48" y1="-308.08" x2="151.48" y2="-400" gradientTransform="translate(150 -250) rotate(180)" xlink:href="#未命名的渐变_143"/><clipPath id="clip-path-2"><rect class="cls-1" y="-200" width="150" height="150"/></clipPath><clipPath id="clip-path-3"><polygon class="cls-1" points="105.54 -42.17 45.15 -42.17 45.15 -96.89 75.07 -120.25 105.54 -96.89 105.54 -42.17"/></clipPath><linearGradient id="未命名的渐变_143-99" x1="554.1" y1="315.46" x2="554.1" y2="255.89" gradientTransform="translate(361.02 -580.68) rotate(90)" xlink:href="#未命名的渐变_143"/><linearGradient id="未命名的渐变_143-100" x1="555.17" y1="315.46" x2="555.17" y2="255.89" gradientTransform="translate(361.02 -580.68) rotate(90)" xlink:href="#未命名的渐变_143"/><linearGradient id="未命名的渐变_143-101" x1="556.25" y1="315.46" x2="556.25" y2="255.89" gradientTransform="translate(361.02 -580.68) rotate(90)" xlink:href="#未命名的渐变_143"/><linearGradient id="未命名的渐变_143-102" x1="557.33" y1="315.46" x2="557.33" y2="255.89" gradientTransform="translate(361.02 -580.68) rotate(90)" xlink:href="#未命名的渐变_143"/><linearGradient id="未命名的渐变_143-103" x1="558.4" y1="315.46" x2="558.4" y2="255.89" gradientTransform="translate(361.02 -580.68) rotate(90)" xlink:href="#未命名的渐变_143"/><linearGradient id="未命名的渐变_143-104" x1="559.48" y1="315.46" x2="559.48" y2="255.89" gradientTransform="translate(361.02 -580.68) rotate(90)" xlink:href="#未命名的渐变_143"/><linearGradient id="未命名的渐变_143-105" x1="560.55" y1="315.46" x2="560.55" y2="255.89" gradientTransform="translate(361.02 -580.68) rotate(90)" xlink:href="#未命名的渐变_143"/><linearGradient id="未命名的渐变_143-106" x1="561.63" y1="315.46" x2="561.63" y2="255.89" gradientTransform="translate(361.02 -580.68) rotate(90)" xlink:href="#未命名的渐变_143"/><linearGradient id="未命名的渐变_143-107" x1="562.7" y1="315.46" x2="562.7" y2="255.89" gradientTransform="translate(361.02 -580.68) rotate(90)" xlink:href="#未命名的渐变_143"/><linearGradient id="未命名的渐变_143-108" x1="563.78" y1="315.46" x2="563.78" y2="255.89" gradientTransform="translate(361.02 -580.68) rotate(90)" xlink:href="#未命名的渐变_143"/><linearGradient id="未命名的渐变_143-109" x1="564.85" y1="315.46" x2="564.85" y2="255.89" gradientTransform="translate(361.02 -580.68) rotate(90)" xlink:href="#未命名的渐变_143"/><linearGradient id="未命名的渐变_143-110" x1="565.93" y1="315.46" x2="565.93" y2="255.89" gradientTransform="translate(361.02 -580.68) rotate(90)" xlink:href="#未命名的渐变_143"/><linearGradient id="未命名的渐变_143-111" x1="567.01" y1="315.46" x2="567.01" y2="255.89" gradientTransform="translate(361.02 -580.68) rotate(90)" xlink:href="#未命名的渐变_143"/><linearGradient id="未命名的渐变_143-112" x1="568.08" y1="315.46" x2="568.08" y2="255.89" gradientTransform="translate(361.02 -580.68) rotate(90)" xlink:href="#未命名的渐变_143"/><linearGradient id="未命名的渐变_143-113" x1="569.16" y1="315.46" x2="569.16" y2="255.89" gradientTransform="translate(361.02 -580.68) rotate(90)" xlink:href="#未命名的渐变_143"/><linearGradient id="未命名的渐变_143-114" x1="570.23" y1="315.46" x2="570.23" y2="255.89" gradientTransform="translate(361.02 -580.68) rotate(90)" xlink:href="#未命名的渐变_143"/><linearGradient id="未命名的渐变_143-115" x1="571.31" y1="315.46" x2="571.31" y2="255.89" gradientTransform="translate(361.02 -580.68) rotate(90)" xlink:href="#未命名的渐变_143"/><linearGradient id="未命名的渐变_143-116" x1="572.38" y1="315.46" x2="572.38" y2="255.89" gradientTransform="translate(361.02 -580.68) rotate(90)" xlink:href="#未命名的渐变_143"/><linearGradient id="未命名的渐变_143-117" x1="573.46" y1="315.46" x2="573.46" y2="255.89" gradientTransform="translate(361.02 -580.68) rotate(90)" xlink:href="#未命名的渐变_143"/><linearGradient id="未命名的渐变_143-118" x1="574.53" y1="315.46" x2="574.53" y2="255.89" gradientTransform="translate(361.02 -580.68) rotate(90)" xlink:href="#未命名的渐变_143"/><linearGradient id="未命名的渐变_143-119" x1="575.61" y1="315.46" x2="575.61" y2="255.89" gradientTransform="translate(361.02 -580.68) rotate(90)" xlink:href="#未命名的渐变_143"/><linearGradient id="未命名的渐变_143-120" x1="576.69" y1="315.46" x2="576.69" y2="255.89" gradientTransform="translate(361.02 -580.68) rotate(90)" xlink:href="#未命名的渐变_143"/><linearGradient id="未命名的渐变_143-121" x1="577.76" y1="315.46" x2="577.76" y2="255.89" gradientTransform="translate(361.02 -580.68) rotate(90)" xlink:href="#未命名的渐变_143"/><linearGradient id="未命名的渐变_143-122" x1="578.84" y1="315.46" x2="578.84" y2="255.89" gradientTransform="translate(361.02 -580.68) rotate(90)" xlink:href="#未命名的渐变_143"/><linearGradient id="未命名的渐变_143-123" x1="579.91" y1="315.46" x2="579.91" y2="255.89" gradientTransform="translate(361.02 -580.68) rotate(90)" xlink:href="#未命名的渐变_143"/><linearGradient id="未命名的渐变_143-124" x1="580.99" y1="315.46" x2="580.99" y2="255.89" gradientTransform="translate(361.02 -580.68) rotate(90)" xlink:href="#未命名的渐变_143"/><linearGradient id="未命名的渐变_143-125" x1="582.06" y1="315.46" x2="582.06" y2="255.89" gradientTransform="translate(361.02 -580.68) rotate(90)" xlink:href="#未命名的渐变_143"/><linearGradient id="未命名的渐变_143-126" x1="583.14" y1="315.46" x2="583.14" y2="255.89" gradientTransform="translate(361.02 -580.68) rotate(90)" xlink:href="#未命名的渐变_143"/><linearGradient id="未命名的渐变_143-127" x1="584.21" y1="315.46" x2="584.21" y2="255.89" gradientTransform="translate(361.02 -580.68) rotate(90)" xlink:href="#未命名的渐变_143"/><linearGradient id="未命名的渐变_143-128" x1="585.29" y1="315.46" x2="585.29" y2="255.89" gradientTransform="translate(361.02 -580.68) rotate(90)" xlink:href="#未命名的渐变_143"/><linearGradient id="未命名的渐变_143-129" x1="586.36" y1="315.46" x2="586.36" y2="255.89" gradientTransform="translate(361.02 -580.68) rotate(90)" xlink:href="#未命名的渐变_143"/><linearGradient id="未命名的渐变_143-130" x1="587.44" y1="315.46" x2="587.44" y2="255.89" gradientTransform="translate(361.02 -580.68) rotate(90)" xlink:href="#未命名的渐变_143"/><linearGradient id="未命名的渐变_143-131" x1="588.52" y1="315.46" x2="588.52" y2="255.89" gradientTransform="translate(361.02 -580.68) rotate(90)" xlink:href="#未命名的渐变_143"/><linearGradient id="未命名的渐变_143-132" x1="589.59" y1="315.46" x2="589.59" y2="255.89" gradientTransform="translate(361.02 -580.68) rotate(90)" xlink:href="#未命名的渐变_143"/><linearGradient id="未命名的渐变_143-133" x1="590.67" y1="315.46" x2="590.67" y2="255.89" gradientTransform="translate(361.02 -580.68) rotate(90)" xlink:href="#未命名的渐变_143"/><linearGradient id="未命名的渐变_143-134" x1="591.74" y1="315.46" x2="591.74" y2="255.89" gradientTransform="translate(361.02 -580.68) rotate(90)" xlink:href="#未命名的渐变_143"/><linearGradient id="未命名的渐变_143-135" x1="592.82" y1="315.46" x2="592.82" y2="255.89" gradientTransform="translate(361.02 -580.68) rotate(90)" xlink:href="#未命名的渐变_143"/><linearGradient id="未命名的渐变_143-136" x1="593.89" y1="315.46" x2="593.89" y2="255.89" gradientTransform="translate(361.02 -580.68) rotate(90)" xlink:href="#未命名的渐变_143"/><linearGradient id="未命名的渐变_143-137" x1="594.97" y1="315.46" x2="594.97" y2="255.89" gradientTransform="translate(361.02 -580.68) rotate(90)" xlink:href="#未命名的渐变_143"/><linearGradient id="未命名的渐变_143-138" x1="596.04" y1="315.46" x2="596.04" y2="255.89" gradientTransform="translate(361.02 -580.68) rotate(90)" xlink:href="#未命名的渐变_143"/><linearGradient id="未命名的渐变_143-139" x1="597.12" y1="315.46" x2="597.12" y2="255.89" gradientTransform="translate(361.02 -580.68) rotate(90)" xlink:href="#未命名的渐变_143"/><linearGradient id="未命名的渐变_143-140" x1="598.2" y1="315.46" x2="598.2" y2="255.89" gradientTransform="translate(361.02 -580.68) rotate(90)" xlink:href="#未命名的渐变_143"/><linearGradient id="未命名的渐变_143-141" x1="599.27" y1="315.46" x2="599.27" y2="255.89" gradientTransform="translate(361.02 -580.68) rotate(90)" xlink:href="#未命名的渐变_143"/><linearGradient id="未命名的渐变_143-142" x1="600.35" y1="315.46" x2="600.35" y2="255.89" gradientTransform="translate(361.02 -580.68) rotate(90)" xlink:href="#未命名的渐变_143"/><linearGradient id="未命名的渐变_143-143" x1="601.42" y1="315.46" x2="601.42" y2="255.89" gradientTransform="translate(361.02 -580.68) rotate(90)" xlink:href="#未命名的渐变_143"/><linearGradient id="未命名的渐变_143-144" x1="602.5" y1="315.46" x2="602.5" y2="255.89" gradientTransform="translate(361.02 -580.68) rotate(90)" xlink:href="#未命名的渐变_143"/><linearGradient id="未命名的渐变_143-145" x1="603.57" y1="315.46" x2="603.57" y2="255.89" gradientTransform="translate(361.02 -580.68) rotate(90)" xlink:href="#未命名的渐变_143"/><linearGradient id="未命名的渐变_143-146" x1="604.65" y1="315.46" x2="604.65" y2="255.89" gradientTransform="translate(361.02 -580.68) rotate(90)" xlink:href="#未命名的渐变_143"/><linearGradient id="未命名的渐变_143-147" x1="605.72" y1="315.46" x2="605.72" y2="255.89" gradientTransform="translate(361.02 -580.68) rotate(90)" xlink:href="#未命名的渐变_143"/><linearGradient id="未命名的渐变_143-148" x1="606.8" y1="315.46" x2="606.8" y2="255.89" gradientTransform="translate(361.02 -580.68) rotate(90)" xlink:href="#未命名的渐变_143"/><linearGradient id="未命名的渐变_143-149" x1="607.88" y1="315.46" x2="607.88" y2="255.89" gradientTransform="translate(361.02 -580.68) rotate(90)" xlink:href="#未命名的渐变_143"/><linearGradient id="未命名的渐变_143-150" x1="608.95" y1="315.46" x2="608.95" y2="255.89" gradientTransform="translate(361.02 -580.68) rotate(90)" xlink:href="#未命名的渐变_143"/><linearGradient id="未命名的渐变_143-151" x1="610.03" y1="315.46" x2="610.03" y2="255.89" gradientTransform="translate(361.02 -580.68) rotate(90)" xlink:href="#未命名的渐变_143"/><linearGradient id="未命名的渐变_143-152" x1="611.1" y1="315.46" x2="611.1" y2="255.89" gradientTransform="translate(361.02 -580.68) rotate(90)" xlink:href="#未命名的渐变_143"/><linearGradient id="未命名的渐变_143-153" x1="612.18" y1="315.46" x2="612.18" y2="255.89" gradientTransform="translate(361.02 -580.68) rotate(90)" xlink:href="#未命名的渐变_143"/><linearGradient id="未命名的渐变_143-154" x1="613.25" y1="315.46" x2="613.25" y2="255.89" gradientTransform="translate(361.02 -580.68) rotate(90)" xlink:href="#未命名的渐变_143"/><linearGradient id="未命名的渐变_143-155" x1="614.33" y1="315.46" x2="614.33" y2="255.89" gradientTransform="translate(361.02 -580.68) rotate(90)" xlink:href="#未命名的渐变_143"/><linearGradient id="未命名的渐变_143-156" x1="615.4" y1="315.46" x2="615.4" y2="255.89" gradientTransform="translate(361.02 -580.68) rotate(90)" xlink:href="#未命名的渐变_143"/><linearGradient id="未命名的渐变_143-157" x1="616.48" y1="315.46" x2="616.48" y2="255.89" gradientTransform="translate(361.02 -580.68) rotate(90)" xlink:href="#未命名的渐变_143"/><linearGradient id="未命名的渐变_143-158" x1="617.56" y1="315.46" x2="617.56" y2="255.89" gradientTransform="translate(361.02 -580.68) rotate(90)" xlink:href="#未命名的渐变_143"/><linearGradient id="未命名的渐变_143-159" x1="618.63" y1="315.46" x2="618.63" y2="255.89" gradientTransform="translate(361.02 -580.68) rotate(90)" xlink:href="#未命名的渐变_143"/><linearGradient id="未命名的渐变_143-160" x1="619.71" y1="315.46" x2="619.71" y2="255.89" gradientTransform="translate(361.02 -580.68) rotate(90)" xlink:href="#未命名的渐变_143"/><linearGradient id="未命名的渐变_143-161" x1="620.78" y1="315.46" x2="620.78" y2="255.89" gradientTransform="translate(361.02 -580.68) rotate(90)" xlink:href="#未命名的渐变_143"/><linearGradient id="未命名的渐变_143-162" x1="621.86" y1="315.46" x2="621.86" y2="255.89" gradientTransform="translate(361.02 -580.68) rotate(90)" xlink:href="#未命名的渐变_143"/><linearGradient id="未命名的渐变_143-163" x1="622.93" y1="315.46" x2="622.93" y2="255.89" gradientTransform="translate(361.02 -580.68) rotate(90)" xlink:href="#未命名的渐变_143"/></defs><title>iot-管道(21)</title><g id="图层_2" data-name="图层 2"><g class="cls-2"><circle class="cls-3" cx="103.31" cy="-5.66" r="45.96"/><circle class="cls-4" cx="103.31" cy="-3.91" r="45.96"/><circle class="cls-5" cx="103.31" cy="-2.16" r="45.96"/><circle class="cls-6" cx="103.31" cy="-0.4" r="45.96"/><circle class="cls-7" cx="103.29" cy="1.44" r="45.96"/><circle class="cls-8" cx="103.23" cy="3.27" r="45.96"/><circle class="cls-9" cx="103.15" cy="5.1" r="45.96"/><circle class="cls-10" cx="103.03" cy="6.91" r="45.96"/><circle class="cls-11" cx="102.89" cy="8.72" r="45.96"/><circle class="cls-12" cx="102.71" cy="10.51" r="45.96"/><circle class="cls-13" cx="102.51" cy="12.3" r="45.96"/><circle class="cls-14" cx="102.27" cy="14.08" r="45.96"/><circle class="cls-15" cx="102" cy="15.85" r="45.96"/><circle class="cls-16" cx="101.71" cy="17.61" r="45.96"/><circle class="cls-17" cx="101.38" cy="19.36" r="45.96"/><circle class="cls-18" cx="101.03" cy="21.1" r="45.96"/><circle class="cls-19" cx="100.65" cy="22.82" r="45.96"/><circle class="cls-20" cx="100.24" cy="24.54" r="45.96"/><circle class="cls-21" cx="99.8" cy="26.25" r="45.96"/><circle class="cls-22" cx="99.33" cy="27.94" r="45.96"/><circle class="cls-23" cx="98.84" cy="29.63" r="45.96"/><circle class="cls-24" cx="98.32" cy="31.3" r="45.96"/><circle class="cls-25" cx="97.77" cy="32.96" r="45.96"/><circle class="cls-26" cx="97.2" cy="34.6" r="45.96"/><circle class="cls-27" cx="96.6" cy="36.24" r="45.96"/><circle class="cls-28" cx="95.97" cy="37.86" r="45.96"/><circle class="cls-29" cx="95.31" cy="39.47" r="45.96"/><circle class="cls-30" cx="94.64" cy="41.07" r="45.96"/><circle class="cls-31" cx="93.93" cy="42.65" r="45.96"/><circle class="cls-32" cx="93.2" cy="44.21" r="45.96"/><circle class="cls-33" cx="92.45" cy="45.77" r="45.96"/><circle class="cls-34" cx="91.67" cy="47.31" r="45.96"/><circle class="cls-35" cx="90.86" cy="48.83" r="45.96"/><circle class="cls-36" cx="90.03" cy="50.34" r="45.96"/><circle class="cls-37" cx="89.18" cy="51.83" r="45.96"/><circle class="cls-38" cx="88.31" cy="53.31" r="45.96"/><circle class="cls-39" cx="87.41" cy="54.78" r="45.96"/><circle class="cls-40" cx="86.48" cy="56.22" r="45.96"/><circle class="cls-41" cx="85.54" cy="57.65" r="45.96"/><circle class="cls-42" cx="84.57" cy="59.07" r="45.96"/><circle class="cls-43" cx="83.58" cy="60.47" r="45.96"/><circle class="cls-44" cx="82.57" cy="61.85" r="45.96"/><circle class="cls-45" cx="81.53" cy="63.21" r="45.96"/><circle class="cls-46" cx="80.48" cy="64.56" r="45.96"/><circle class="cls-47" cx="79.4" cy="65.88" r="45.96"/><circle class="cls-48" cx="78.3" cy="67.19" r="45.96"/><circle class="cls-49" cx="77.18" cy="68.49" r="45.96"/><circle class="cls-50" cx="76.04" cy="69.76" r="45.96"/><circle class="cls-51" cx="74.88" cy="71.01" r="45.96"/><circle class="cls-52" cx="73.7" cy="72.25" r="45.96"/><circle class="cls-53" cx="72.5" cy="73.46" r="45.96"/><circle class="cls-54" cx="71.28" cy="74.66" r="45.96"/><circle class="cls-55" cx="70.05" cy="75.84" r="45.96"/><circle class="cls-56" cx="68.79" cy="76.99" r="45.96"/><circle class="cls-57" cx="67.51" cy="78.13" r="45.96"/><circle class="cls-58" cx="66.22" cy="79.24" r="45.96"/><circle class="cls-59" cx="64.9" cy="80.34" r="45.96"/><circle class="cls-60" cx="63.57" cy="81.41" r="45.96"/><circle class="cls-61" cx="62.22" cy="82.46" r="45.96"/><circle class="cls-62" cx="60.86" cy="83.49" r="45.96"/><circle class="cls-63" cx="59.47" cy="84.5" r="45.96"/><circle class="cls-64" cx="58.07" cy="85.49" r="45.96"/><circle class="cls-65" cx="56.65" cy="86.45" r="45.96"/><circle class="cls-66" cx="55.22" cy="87.39" r="45.96"/><circle class="cls-67" cx="53.77" cy="88.31" r="45.96"/><circle class="cls-68" cx="52.3" cy="89.2" r="45.96"/><circle class="cls-69" cx="50.82" cy="90.08" r="45.96"/><circle class="cls-70" cx="49.32" cy="90.92" r="45.96"/><circle class="cls-71" cx="47.81" cy="91.75" r="45.96"/><circle class="cls-72" cx="46.28" cy="92.55" r="45.96"/><circle class="cls-73" cx="44.74" cy="93.32" r="45.96"/><circle class="cls-74" cx="43.19" cy="94.07" r="45.96"/><circle class="cls-75" cx="41.62" cy="94.8" r="45.96"/><circle class="cls-76" cx="40.03" cy="95.5" r="45.96"/><circle class="cls-77" cx="38.43" cy="96.17" r="45.96"/><circle class="cls-78" cx="36.82" cy="96.82" r="45.96"/><circle class="cls-79" cx="35.2" cy="97.44" r="45.96"/><circle class="cls-80" cx="33.56" cy="98.04" r="45.96"/><circle class="cls-81" cx="31.91" cy="98.61" r="45.96"/><circle class="cls-82" cx="30.25" cy="99.15" r="45.96"/><circle class="cls-83" cx="28.58" cy="99.67" r="45.96"/><circle class="cls-84" cx="26.89" cy="100.15" r="45.96"/><circle class="cls-85" cx="25.19" cy="100.62" r="45.96"/><circle class="cls-86" cx="23.48" cy="101.05" r="45.96"/><circle class="cls-87" cx="21.76" cy="101.45" r="45.96"/><circle class="cls-88" cx="20.03" cy="101.83" r="45.96"/><circle class="cls-89" cx="18.29" cy="102.18" r="45.96"/><circle class="cls-90" cx="16.54" cy="102.5" r="45.96"/><circle class="cls-91" cx="14.78" cy="102.79" r="45.96"/><circle class="cls-92" cx="13.01" cy="103.05" r="45.96"/><circle class="cls-93" cx="11.23" cy="103.28" r="45.96"/><circle class="cls-94" cx="9.44" cy="103.48" r="45.96"/><circle class="cls-95" cx="7.64" cy="103.65" r="45.96"/><circle class="cls-96" cx="5.83" cy="103.79" r="45.96"/><circle class="cls-97" cx="4.02" cy="103.9" r="45.96"/><circle class="cls-98" cx="2.19" cy="103.98" r="45.96"/><circle class="cls-99" cx="0.36" cy="104.02" r="45.96"/><circle class="cls-100" cx="-1.48" cy="104.04" r="45.96"/></g></g><g id="图层_13" data-name="图层 13"><g class="cls-101"><g class="cls-102"><ellipse class="cls-103" cx="75.35" cy="-26.58" rx="29.79" ry="26.99"/><ellipse class="cls-104" cx="75.35" cy="-25.5" rx="29.79" ry="26.99"/><ellipse class="cls-105" cx="75.35" cy="-24.43" rx="29.79" ry="26.99"/><ellipse class="cls-106" cx="75.35" cy="-23.35" rx="29.79" ry="26.99"/><ellipse class="cls-107" cx="75.35" cy="-22.28" rx="29.79" ry="26.99"/><ellipse class="cls-108" cx="75.35" cy="-21.2" rx="29.79" ry="26.99"/><ellipse class="cls-109" cx="75.35" cy="-20.13" rx="29.79" ry="26.99"/><ellipse class="cls-110" cx="75.35" cy="-19.05" rx="29.79" ry="26.99"/><ellipse class="cls-111" cx="75.35" cy="-17.97" rx="29.79" ry="26.99"/><ellipse class="cls-112" cx="75.35" cy="-16.9" rx="29.79" ry="26.99"/><ellipse class="cls-113" cx="75.35" cy="-15.82" rx="29.79" ry="26.99"/><ellipse class="cls-114" cx="75.35" cy="-14.75" rx="29.79" ry="26.99"/><ellipse class="cls-115" cx="75.35" cy="-13.67" rx="29.79" ry="26.99"/><ellipse class="cls-116" cx="75.35" cy="-12.6" rx="29.79" ry="26.99"/><ellipse class="cls-117" cx="75.35" cy="-11.52" rx="29.79" ry="26.99"/><ellipse class="cls-118" cx="75.35" cy="-10.45" rx="29.79" ry="26.99"/><ellipse class="cls-119" cx="75.35" cy="-9.37" rx="29.79" ry="26.99"/><ellipse class="cls-120" cx="75.35" cy="-8.29" rx="29.79" ry="26.99"/><ellipse class="cls-121" cx="75.35" cy="-7.22" rx="29.79" ry="26.99"/><ellipse class="cls-122" cx="75.35" cy="-6.14" rx="29.79" ry="26.99"/><ellipse class="cls-123" cx="75.35" cy="-5.07" rx="29.79" ry="26.99"/><ellipse class="cls-124" cx="75.35" cy="-3.99" rx="29.79" ry="26.99"/><ellipse class="cls-125" cx="75.35" cy="-2.92" rx="29.79" ry="26.99"/><ellipse class="cls-126" cx="75.35" cy="-1.84" rx="29.79" ry="26.99"/><ellipse class="cls-127" cx="75.35" cy="-0.77" rx="29.79" ry="26.99"/><ellipse class="cls-128" cx="75.35" cy="0.31" rx="29.79" ry="26.99"/><ellipse class="cls-129" cx="75.35" cy="1.39" rx="29.79" ry="26.99"/><ellipse class="cls-130" cx="75.35" cy="2.46" rx="29.79" ry="26.99"/><ellipse class="cls-131" cx="75.35" cy="3.54" rx="29.79" ry="26.99"/><ellipse class="cls-132" cx="75.35" cy="4.61" rx="29.79" ry="26.99"/><ellipse class="cls-133" cx="75.35" cy="5.69" rx="29.79" ry="26.99"/><ellipse class="cls-134" cx="75.35" cy="6.76" rx="29.79" ry="26.99"/><ellipse class="cls-135" cx="75.35" cy="7.84" rx="29.79" ry="26.99"/><ellipse class="cls-136" cx="75.35" cy="8.91" rx="29.79" ry="26.99"/><ellipse class="cls-137" cx="75.35" cy="9.99" rx="29.79" ry="26.99"/><ellipse class="cls-138" cx="75.35" cy="11.07" rx="29.79" ry="26.99"/><ellipse class="cls-139" cx="75.35" cy="12.14" rx="29.79" ry="26.99"/><ellipse class="cls-140" cx="75.35" cy="13.22" rx="29.79" ry="26.99"/><ellipse class="cls-141" cx="75.35" cy="14.29" rx="29.79" ry="26.99"/><ellipse class="cls-142" cx="75.35" cy="15.37" rx="29.79" ry="26.99"/><ellipse class="cls-143" cx="75.35" cy="16.44" rx="29.79" ry="26.99"/><ellipse class="cls-144" cx="75.35" cy="17.52" rx="29.79" ry="26.99"/><ellipse class="cls-145" cx="75.35" cy="18.59" rx="29.79" ry="26.99"/><ellipse class="cls-146" cx="75.35" cy="19.67" rx="29.79" ry="26.99"/><ellipse class="cls-147" cx="75.35" cy="20.74" rx="29.79" ry="26.99"/><ellipse class="cls-148" cx="75.35" cy="21.82" rx="29.79" ry="26.99"/><ellipse class="cls-149" cx="75.35" cy="22.9" rx="29.79" ry="26.99"/><ellipse class="cls-150" cx="75.35" cy="23.97" rx="29.79" ry="26.99"/><ellipse class="cls-151" cx="75.35" cy="25.05" rx="29.79" ry="26.99"/><ellipse class="cls-152" cx="75.35" cy="26.12" rx="29.79" ry="26.99"/><ellipse class="cls-153" cx="75.35" cy="27.2" rx="29.79" ry="26.99"/><ellipse class="cls-154" cx="75.35" cy="28.27" rx="29.79" ry="26.99"/><ellipse class="cls-155" cx="75.35" cy="29.35" rx="29.79" ry="26.99"/><ellipse class="cls-156" cx="75.35" cy="30.42" rx="29.79" ry="26.99"/><ellipse class="cls-157" cx="75.35" cy="31.5" rx="29.79" ry="26.99"/><ellipse class="cls-158" cx="75.35" cy="32.58" rx="29.79" ry="26.99"/><ellipse class="cls-159" cx="75.35" cy="33.65" rx="29.79" ry="26.99"/><ellipse class="cls-160" cx="75.35" cy="34.73" rx="29.79" ry="26.99"/><ellipse class="cls-161" cx="75.35" cy="35.8" rx="29.79" ry="26.99"/><ellipse class="cls-162" cx="75.35" cy="36.88" rx="29.79" ry="26.99"/><ellipse class="cls-163" cx="75.35" cy="37.95" rx="29.79" ry="26.99"/><ellipse class="cls-164" cx="75.35" cy="39.03" rx="29.79" ry="26.99"/><ellipse class="cls-165" cx="75.35" cy="40.1" rx="29.79" ry="26.99"/><ellipse class="cls-166" cx="75.35" cy="41.18" rx="29.79" ry="26.99"/><ellipse class="cls-167" cx="75.35" cy="42.26" rx="29.79" ry="26.99"/></g></g></g><g id="图层_21" data-name="图层 21"><g class="cls-168"><path d="M48.43,72.51c-.17.37-.39.79-.65,1.26s-.54,1-.84,1.44-.6,1-.9,1.42-.59.88-.85,1.25l-2.34-1.12c.27-.36.56-.76.87-1.21s.61-.9.9-1.36.55-.92.78-1.36.44-.84.59-1.18Zm4-1.84v4.12A4.1,4.1,0,0,1,52.28,76a1.61,1.61,0,0,1-.45.73,2.27,2.27,0,0,1-.8.45c-.33.11-.74.23-1.22.35l-1.17.28-.83-2.59.9-.21a2.53,2.53,0,0,0,.72-.28.61.61,0,0,0,.2-.55V71L44,71.77,44.62,64c.62-.08,1.28-.17,2-.28l2.11-.34L50.84,63l2.06-.41c.67-.14,1.29-.27,1.88-.41l1.56-.39.55,2.63-2.07.47-2.42.51-2.59.48-2.58.46-.18,2.54,2.58-.34V66.35l2.79-.3V68.2l4.93-.65V70Zm2.71-.23c.18.2.39.46.65.79l.83,1.07c.3.4.58.8.87,1.21s.53.8.76,1.18l-2.36,1.82c-.18-.36-.4-.74-.65-1.16s-.51-.83-.79-1.23-.55-.78-.81-1.15-.51-.66-.73-.9Z"/><path d="M74,65.62v2.21L59.32,69.76V67.55l3.27-.43.24-1-2.39.32V64.57l2.84-.38.22-.87-3.4.45v-2.2l13.08-1.72v2.2l-6.85.9-.21.87,6-.79L72,65.88Zm-13.2,4.67,11.75-1.55v5.63L60.76,75.92Zm2.59,3.09,6.44-.85V71.25l-6.44.84Zm2.08-6.64,3.87-.51.07-1-3.71.49Z"/><path d="M80.64,68.27c-.17.37-.39.79-.65,1.26s-.54.94-.83,1.43-.6,1-.91,1.43-.58.88-.84,1.25l-2.35-1.12c.27-.36.56-.77.87-1.21s.61-.9.9-1.36.55-.92.79-1.36.43-.84.58-1.18Zm4-1.84v4.11a4.18,4.18,0,0,1-.14,1.18,1.58,1.58,0,0,1-.45.72,2.13,2.13,0,0,1-.8.46c-.33.11-.74.23-1.21.35l-1.17.28L80,70.94l.89-.22a2.46,2.46,0,0,0,.72-.27.62.62,0,0,0,.21-.55V66.79l-5.6.74.59-7.74c.62-.08,1.27-.17,2-.28l2.1-.34c.71-.12,1.43-.25,2.14-.39l2.07-.41c.66-.14,1.28-.27,1.87-.41l1.56-.39.55,2.62L87,60.67l-2.42.51L82,61.66l-2.58.46-.18,2.54,2.59-.34V62.11l2.78-.3V64l4.93-.65v2.47Zm2.72-.23c.17.2.39.46.65.79l.83,1.07c.29.39.58.8.86,1.21s.54.8.76,1.17L88.1,72.27c-.19-.36-.41-.74-.66-1.16s-.51-.83-.78-1.23-.55-.79-.82-1.15a10.07,10.07,0,0,0-.72-.9Z"/></g></g></svg>