<svg xmlns="http://www.w3.org/2000/svg" xmlns:xlink="http://www.w3.org/1999/xlink" viewBox="0 0 150 63.01"><defs><style>.cls-1{fill:none;}.cls-2{clip-path:url(#clip-path);}.cls-3{fill:url(#未命名的渐变_143);}.cls-4{fill:url(#未命名的渐变_143-2);}.cls-5{fill:url(#未命名的渐变_143-3);}.cls-6{fill:url(#未命名的渐变_143-4);}.cls-7{fill:url(#未命名的渐变_143-5);}.cls-8{fill:url(#未命名的渐变_143-6);}.cls-9{fill:url(#未命名的渐变_143-7);}.cls-10{fill:url(#未命名的渐变_143-8);}.cls-11{fill:url(#未命名的渐变_143-9);}.cls-12{fill:url(#未命名的渐变_143-10);}.cls-13{fill:url(#未命名的渐变_143-11);}.cls-14{fill:url(#未命名的渐变_143-12);}.cls-15{fill:url(#未命名的渐变_143-13);}.cls-16{fill:url(#未命名的渐变_143-14);}.cls-17{fill:url(#未命名的渐变_143-15);}.cls-18{fill:url(#未命名的渐变_143-16);}.cls-19{fill:url(#未命名的渐变_143-17);}.cls-20{fill:url(#未命名的渐变_143-18);}.cls-21{fill:url(#未命名的渐变_143-19);}.cls-22{fill:url(#未命名的渐变_143-20);}.cls-23{fill:url(#未命名的渐变_143-21);}.cls-24{fill:url(#未命名的渐变_143-22);}.cls-25{fill:url(#未命名的渐变_143-23);}.cls-26{fill:url(#未命名的渐变_143-24);}.cls-27{fill:url(#未命名的渐变_143-25);}.cls-28{fill:url(#未命名的渐变_143-26);}.cls-29{fill:url(#未命名的渐变_143-27);}.cls-30{fill:url(#未命名的渐变_143-28);}.cls-31{fill:url(#未命名的渐变_143-29);}.cls-32{fill:url(#未命名的渐变_143-30);}.cls-33{fill:url(#未命名的渐变_143-31);}.cls-34{fill:url(#未命名的渐变_143-32);}.cls-35{fill:url(#未命名的渐变_143-33);}.cls-36{fill:url(#未命名的渐变_143-34);}.cls-37{fill:url(#未命名的渐变_143-35);}.cls-38{fill:url(#未命名的渐变_143-36);}.cls-39{fill:url(#未命名的渐变_143-37);}.cls-40{fill:url(#未命名的渐变_143-38);}.cls-41{fill:url(#未命名的渐变_143-39);}.cls-42{fill:url(#未命名的渐变_143-40);}.cls-43{fill:url(#未命名的渐变_143-41);}.cls-44{fill:url(#未命名的渐变_143-42);}.cls-45{fill:url(#未命名的渐变_143-43);}.cls-46{fill:url(#未命名的渐变_143-44);}.cls-47{fill:url(#未命名的渐变_143-45);}.cls-48{fill:url(#未命名的渐变_143-46);}.cls-49{fill:url(#未命名的渐变_143-47);}.cls-50{fill:url(#未命名的渐变_143-48);}.cls-51{fill:url(#未命名的渐变_143-49);}.cls-52{fill:url(#未命名的渐变_143-50);}.cls-53{fill:url(#未命名的渐变_143-51);}.cls-54{fill:url(#未命名的渐变_143-52);}.cls-55{fill:url(#未命名的渐变_143-53);}.cls-56{fill:url(#未命名的渐变_143-54);}.cls-57{fill:url(#未命名的渐变_143-55);}.cls-58{fill:url(#未命名的渐变_143-56);}.cls-59{fill:url(#未命名的渐变_143-57);}.cls-60{fill:url(#未命名的渐变_143-58);}.cls-61{fill:url(#未命名的渐变_143-59);}.cls-62{fill:url(#未命名的渐变_143-60);}.cls-63{fill:url(#未命名的渐变_143-61);}.cls-64{fill:url(#未命名的渐变_143-62);}.cls-65{fill:url(#未命名的渐变_143-63);}.cls-66{fill:url(#未命名的渐变_143-64);}.cls-67{fill:url(#未命名的渐变_143-65);}.cls-68{fill:url(#未命名的渐变_143-66);}.cls-69{fill:url(#未命名的渐变_143-67);}.cls-70{fill:url(#未命名的渐变_143-68);}.cls-71{fill:url(#未命名的渐变_143-69);}.cls-72{fill:url(#未命名的渐变_143-70);}.cls-73{fill:url(#未命名的渐变_143-71);}.cls-74{fill:url(#未命名的渐变_143-72);}.cls-75{fill:url(#未命名的渐变_143-73);}.cls-76{fill:url(#未命名的渐变_143-74);}.cls-77{fill:url(#未命名的渐变_143-75);}.cls-78{fill:url(#未命名的渐变_143-76);}.cls-79{fill:url(#未命名的渐变_143-77);}.cls-80{fill:url(#未命名的渐变_143-78);}.cls-81{fill:url(#未命名的渐变_143-79);}.cls-82{fill:url(#未命名的渐变_143-80);}.cls-83{fill:url(#未命名的渐变_143-81);}.cls-84{fill:url(#未命名的渐变_143-82);}.cls-85{fill:url(#未命名的渐变_143-83);}.cls-86{fill:url(#未命名的渐变_143-84);}.cls-87{fill:url(#未命名的渐变_143-85);}.cls-88{fill:url(#未命名的渐变_143-86);}.cls-89{fill:url(#未命名的渐变_143-87);}.cls-90{fill:url(#未命名的渐变_143-88);}.cls-91{fill:url(#未命名的渐变_143-89);}.cls-92{fill:url(#未命名的渐变_143-90);}.cls-93{fill:url(#未命名的渐变_143-91);}.cls-94{fill:url(#未命名的渐变_143-92);}.cls-95{fill:url(#未命名的渐变_143-93);}.cls-96{fill:url(#未命名的渐变_143-94);}.cls-97{fill:url(#未命名的渐变_143-95);}.cls-98{fill:url(#未命名的渐变_143-96);}.cls-99{fill:url(#未命名的渐变_143-97);}.cls-100{fill:url(#未命名的渐变_143-98);}.cls-101{fill:url(#未命名的渐变_143-99);}.cls-102{fill:url(#未命名的渐变_143-100);}.cls-103{fill:url(#未命名的渐变_143-101);}.cls-104{fill:url(#未命名的渐变_143-102);}.cls-105{fill:url(#未命名的渐变_143-103);}.cls-106{fill:url(#未命名的渐变_143-104);}.cls-107{fill:url(#未命名的渐变_143-105);}.cls-108{fill:url(#未命名的渐变_143-106);}.cls-109{fill:url(#未命名的渐变_143-107);}.cls-110{fill:url(#未命名的渐变_143-108);}.cls-111{fill:url(#未命名的渐变_143-109);}.cls-112{fill:url(#未命名的渐变_143-110);}.cls-113{fill:url(#未命名的渐变_143-111);}.cls-114{fill:url(#未命名的渐变_143-112);}.cls-115{fill:url(#未命名的渐变_143-113);}.cls-116{fill:url(#未命名的渐变_143-114);}.cls-117{fill:url(#未命名的渐变_143-115);}.cls-118{fill:url(#未命名的渐变_143-116);}.cls-119{fill:url(#未命名的渐变_143-117);}.cls-120{fill:url(#未命名的渐变_143-118);}.cls-121{fill:url(#未命名的渐变_143-119);}.cls-122{fill:url(#未命名的渐变_143-120);}.cls-123{clip-path:url(#clip-path-2);}.cls-124{fill:url(#未命名的渐变_143-121);}.cls-125{fill:url(#未命名的渐变_143-122);}.cls-126{fill:url(#未命名的渐变_143-123);}.cls-127{fill:url(#未命名的渐变_143-124);}.cls-128{fill:url(#未命名的渐变_143-125);}.cls-129{fill:url(#未命名的渐变_143-126);}.cls-130{fill:url(#未命名的渐变_143-127);}.cls-131{fill:url(#未命名的渐变_143-128);}.cls-132{fill:url(#未命名的渐变_143-129);}.cls-133{fill:url(#未命名的渐变_143-130);}.cls-134{fill:url(#未命名的渐变_143-131);}.cls-135{fill:url(#未命名的渐变_143-132);}.cls-136{fill:url(#未命名的渐变_143-133);}.cls-137{fill:url(#未命名的渐变_143-134);}.cls-138{fill:url(#未命名的渐变_143-135);}.cls-139{fill:url(#未命名的渐变_143-136);}.cls-140{fill:url(#未命名的渐变_143-137);}.cls-141{opacity:0.2;}</style><clipPath id="clip-path"><path class="cls-1" d="M150,63.82V0H22L12.53,7a30.94,30.94,0,0,0,0,49.74l9.51,7Z"/></clipPath><linearGradient id="未命名的渐变_143" x1="8.42" y1="-84.88" x2="8.42" y2="-147.84" gradientTransform="matrix(1, 0, 0, -1, 23.06, -84.88)" gradientUnits="userSpaceOnUse"><stop offset="0" stop-color="#b7b7b7"/><stop offset="0.03" stop-color="#9b9d9d"/><stop offset="0.07" stop-color="#878b8b"/><stop offset="0.09" stop-color="#808484"/><stop offset="0.2" stop-color="#a3a6a6"/><stop offset="0.49" stop-color="#f6f6f6"/><stop offset="0.61" stop-color="#f3f3f3"/><stop offset="0.7" stop-color="#eaeaea"/><stop offset="0.77" stop-color="#dbdbdb"/><stop offset="0.83" stop-color="#c5c5c5"/><stop offset="0.9" stop-color="#aaa"/><stop offset="0.95" stop-color="#888"/><stop offset="1" stop-color="#666"/></linearGradient><linearGradient id="未命名的渐变_143-2" x1="9.67" y1="-84.88" x2="9.67" y2="-147.84" xlink:href="#未命名的渐变_143"/><linearGradient id="未命名的渐变_143-3" x1="10.93" y1="-84.88" x2="10.93" y2="-147.84" xlink:href="#未命名的渐变_143"/><linearGradient id="未命名的渐变_143-4" x1="12.18" y1="-84.88" x2="12.18" y2="-147.84" xlink:href="#未命名的渐变_143"/><linearGradient id="未命名的渐变_143-5" x1="13.44" y1="-84.88" x2="13.44" y2="-147.84" xlink:href="#未命名的渐变_143"/><linearGradient id="未命名的渐变_143-6" x1="14.69" y1="-84.88" x2="14.69" y2="-147.84" xlink:href="#未命名的渐变_143"/><linearGradient id="未命名的渐变_143-7" x1="15.95" y1="-84.88" x2="15.95" y2="-147.84" xlink:href="#未命名的渐变_143"/><linearGradient id="未命名的渐变_143-8" x1="17.2" y1="-84.88" x2="17.2" y2="-147.84" xlink:href="#未命名的渐变_143"/><linearGradient id="未命名的渐变_143-9" x1="18.46" y1="-84.88" x2="18.46" y2="-147.84" xlink:href="#未命名的渐变_143"/><linearGradient id="未命名的渐变_143-10" x1="19.71" y1="-84.88" x2="19.71" y2="-147.84" xlink:href="#未命名的渐变_143"/><linearGradient id="未命名的渐变_143-11" x1="20.96" y1="-84.88" x2="20.96" y2="-147.84" xlink:href="#未命名的渐变_143"/><linearGradient id="未命名的渐变_143-12" x1="22.22" y1="-84.88" x2="22.22" y2="-147.84" xlink:href="#未命名的渐变_143"/><linearGradient id="未命名的渐变_143-13" x1="23.47" y1="-84.88" x2="23.47" y2="-147.84" xlink:href="#未命名的渐变_143"/><linearGradient id="未命名的渐变_143-14" x1="24.73" y1="-84.88" x2="24.73" y2="-147.84" xlink:href="#未命名的渐变_143"/><linearGradient id="未命名的渐变_143-15" x1="25.98" y1="-84.88" x2="25.98" y2="-147.84" xlink:href="#未命名的渐变_143"/><linearGradient id="未命名的渐变_143-16" x1="27.24" y1="-84.88" x2="27.24" y2="-147.84" xlink:href="#未命名的渐变_143"/><linearGradient id="未命名的渐变_143-17" x1="28.49" y1="-84.88" x2="28.49" y2="-147.84" xlink:href="#未命名的渐变_143"/><linearGradient id="未命名的渐变_143-18" x1="29.75" y1="-84.88" x2="29.75" y2="-147.84" xlink:href="#未命名的渐变_143"/><linearGradient id="未命名的渐变_143-19" x1="31" y1="-84.88" x2="31" y2="-147.84" xlink:href="#未命名的渐变_143"/><linearGradient id="未命名的渐变_143-20" x1="32.26" y1="-84.88" x2="32.26" y2="-147.84" xlink:href="#未命名的渐变_143"/><linearGradient id="未命名的渐变_143-21" x1="33.51" y1="-84.88" x2="33.51" y2="-147.84" xlink:href="#未命名的渐变_143"/><linearGradient id="未命名的渐变_143-22" x1="34.77" y1="-84.88" x2="34.77" y2="-147.84" xlink:href="#未命名的渐变_143"/><linearGradient id="未命名的渐变_143-23" x1="36.02" y1="-84.88" x2="36.02" y2="-147.84" xlink:href="#未命名的渐变_143"/><linearGradient id="未命名的渐变_143-24" x1="37.27" y1="-84.88" x2="37.27" y2="-147.84" xlink:href="#未命名的渐变_143"/><linearGradient id="未命名的渐变_143-25" x1="38.53" y1="-84.88" x2="38.53" y2="-147.84" xlink:href="#未命名的渐变_143"/><linearGradient id="未命名的渐变_143-26" x1="39.78" y1="-84.88" x2="39.78" y2="-147.84" xlink:href="#未命名的渐变_143"/><linearGradient id="未命名的渐变_143-27" x1="41.04" y1="-84.88" x2="41.04" y2="-147.84" xlink:href="#未命名的渐变_143"/><linearGradient id="未命名的渐变_143-28" x1="42.29" y1="-84.88" x2="42.29" y2="-147.84" xlink:href="#未命名的渐变_143"/><linearGradient id="未命名的渐变_143-29" x1="43.55" y1="-84.88" x2="43.55" y2="-147.84" xlink:href="#未命名的渐变_143"/><linearGradient id="未命名的渐变_143-30" x1="44.8" y1="-84.88" x2="44.8" y2="-147.84" xlink:href="#未命名的渐变_143"/><linearGradient id="未命名的渐变_143-31" x1="46.06" y1="-84.88" x2="46.06" y2="-147.84" xlink:href="#未命名的渐变_143"/><linearGradient id="未命名的渐变_143-32" x1="47.31" y1="-84.88" x2="47.31" y2="-147.84" xlink:href="#未命名的渐变_143"/><linearGradient id="未命名的渐变_143-33" x1="48.57" y1="-84.88" x2="48.57" y2="-147.84" xlink:href="#未命名的渐变_143"/><linearGradient id="未命名的渐变_143-34" x1="49.82" y1="-84.88" x2="49.82" y2="-147.84" xlink:href="#未命名的渐变_143"/><linearGradient id="未命名的渐变_143-35" x1="51.07" y1="-84.88" x2="51.07" y2="-147.84" xlink:href="#未命名的渐变_143"/><linearGradient id="未命名的渐变_143-36" x1="52.33" y1="-84.88" x2="52.33" y2="-147.84" xlink:href="#未命名的渐变_143"/><linearGradient id="未命名的渐变_143-37" x1="53.58" y1="-84.88" x2="53.58" y2="-147.84" xlink:href="#未命名的渐变_143"/><linearGradient id="未命名的渐变_143-38" x1="54.84" y1="-84.88" x2="54.84" y2="-147.84" xlink:href="#未命名的渐变_143"/><linearGradient id="未命名的渐变_143-39" x1="56.09" y1="-84.88" x2="56.09" y2="-147.84" xlink:href="#未命名的渐变_143"/><linearGradient id="未命名的渐变_143-40" x1="57.35" y1="-84.88" x2="57.35" y2="-147.84" xlink:href="#未命名的渐变_143"/><linearGradient id="未命名的渐变_143-41" x1="58.6" y1="-84.88" x2="58.6" y2="-147.84" xlink:href="#未命名的渐变_143"/><linearGradient id="未命名的渐变_143-42" x1="59.86" y1="-84.88" x2="59.86" y2="-147.84" xlink:href="#未命名的渐变_143"/><linearGradient id="未命名的渐变_143-43" x1="61.11" y1="-84.88" x2="61.11" y2="-147.84" xlink:href="#未命名的渐变_143"/><linearGradient id="未命名的渐变_143-44" x1="62.37" y1="-84.88" x2="62.37" y2="-147.84" xlink:href="#未命名的渐变_143"/><linearGradient id="未命名的渐变_143-45" x1="63.62" y1="-84.88" x2="63.62" y2="-147.84" xlink:href="#未命名的渐变_143"/><linearGradient id="未命名的渐变_143-46" x1="64.88" y1="-84.88" x2="64.88" y2="-147.84" xlink:href="#未命名的渐变_143"/><linearGradient id="未命名的渐变_143-47" x1="66.13" y1="-84.88" x2="66.13" y2="-147.84" xlink:href="#未命名的渐变_143"/><linearGradient id="未命名的渐变_143-48" x1="67.38" y1="-84.88" x2="67.38" y2="-147.84" xlink:href="#未命名的渐变_143"/><linearGradient id="未命名的渐变_143-49" x1="68.64" y1="-84.88" x2="68.64" y2="-147.84" xlink:href="#未命名的渐变_143"/><linearGradient id="未命名的渐变_143-50" x1="69.89" y1="-84.88" x2="69.89" y2="-147.84" xlink:href="#未命名的渐变_143"/><linearGradient id="未命名的渐变_143-51" x1="71.15" y1="-84.88" x2="71.15" y2="-147.84" xlink:href="#未命名的渐变_143"/><linearGradient id="未命名的渐变_143-52" x1="72.4" y1="-84.88" x2="72.4" y2="-147.84" xlink:href="#未命名的渐变_143"/><linearGradient id="未命名的渐变_143-53" x1="73.66" y1="-84.88" x2="73.66" y2="-147.84" xlink:href="#未命名的渐变_143"/><linearGradient id="未命名的渐变_143-54" x1="74.91" y1="-84.88" x2="74.91" y2="-147.84" xlink:href="#未命名的渐变_143"/><linearGradient id="未命名的渐变_143-55" x1="76.17" y1="-84.88" x2="76.17" y2="-147.84" xlink:href="#未命名的渐变_143"/><linearGradient id="未命名的渐变_143-56" x1="77.42" y1="-84.88" x2="77.42" y2="-147.84" xlink:href="#未命名的渐变_143"/><linearGradient id="未命名的渐变_143-57" x1="78.68" y1="-84.88" x2="78.68" y2="-147.84" xlink:href="#未命名的渐变_143"/><linearGradient id="未命名的渐变_143-58" x1="79.93" y1="-84.88" x2="79.93" y2="-147.84" xlink:href="#未命名的渐变_143"/><linearGradient id="未命名的渐变_143-59" x1="81.18" y1="-84.88" x2="81.18" y2="-147.84" xlink:href="#未命名的渐变_143"/><linearGradient id="未命名的渐变_143-60" x1="82.44" y1="-84.88" x2="82.44" y2="-147.84" xlink:href="#未命名的渐变_143"/><linearGradient id="未命名的渐变_143-61" x1="83.69" y1="-84.88" x2="83.69" y2="-147.84" xlink:href="#未命名的渐变_143"/><linearGradient id="未命名的渐变_143-62" x1="84.95" y1="-84.88" x2="84.95" y2="-147.84" xlink:href="#未命名的渐变_143"/><linearGradient id="未命名的渐变_143-63" x1="86.2" y1="-84.88" x2="86.2" y2="-147.84" xlink:href="#未命名的渐变_143"/><linearGradient id="未命名的渐变_143-64" x1="87.46" y1="-84.88" x2="87.46" y2="-147.84" xlink:href="#未命名的渐变_143"/><linearGradient id="未命名的渐变_143-65" x1="88.71" y1="-84.88" x2="88.71" y2="-147.84" xlink:href="#未命名的渐变_143"/><linearGradient id="未命名的渐变_143-66" x1="89.97" y1="-84.88" x2="89.97" y2="-147.84" xlink:href="#未命名的渐变_143"/><linearGradient id="未命名的渐变_143-67" x1="91.22" y1="-84.88" x2="91.22" y2="-147.84" xlink:href="#未命名的渐变_143"/><linearGradient id="未命名的渐变_143-68" x1="92.48" y1="-84.88" x2="92.48" y2="-147.84" xlink:href="#未命名的渐变_143"/><linearGradient id="未命名的渐变_143-69" x1="93.73" y1="-84.88" x2="93.73" y2="-147.84" xlink:href="#未命名的渐变_143"/><linearGradient id="未命名的渐变_143-70" x1="94.99" y1="-84.88" x2="94.99" y2="-147.84" xlink:href="#未命名的渐变_143"/><linearGradient id="未命名的渐变_143-71" x1="96.24" y1="-84.88" x2="96.24" y2="-147.84" xlink:href="#未命名的渐变_143"/><linearGradient id="未命名的渐变_143-72" x1="97.49" y1="-84.88" x2="97.49" y2="-147.84" xlink:href="#未命名的渐变_143"/><linearGradient id="未命名的渐变_143-73" x1="98.75" y1="-84.88" x2="98.75" y2="-147.84" xlink:href="#未命名的渐变_143"/><linearGradient id="未命名的渐变_143-74" x1="100" y1="-84.88" x2="100" y2="-147.84" xlink:href="#未命名的渐变_143"/><linearGradient id="未命名的渐变_143-75" x1="101.26" y1="-84.88" x2="101.26" y2="-147.84" xlink:href="#未命名的渐变_143"/><linearGradient id="未命名的渐变_143-76" x1="102.51" y1="-84.88" x2="102.51" y2="-147.84" xlink:href="#未命名的渐变_143"/><linearGradient id="未命名的渐变_143-77" x1="103.77" y1="-84.88" x2="103.77" y2="-147.84" xlink:href="#未命名的渐变_143"/><linearGradient id="未命名的渐变_143-78" x1="105.02" y1="-84.88" x2="105.02" y2="-147.84" xlink:href="#未命名的渐变_143"/><linearGradient id="未命名的渐变_143-79" x1="106.28" y1="-84.88" x2="106.28" y2="-147.84" xlink:href="#未命名的渐变_143"/><linearGradient id="未命名的渐变_143-80" x1="107.53" y1="-84.88" x2="107.53" y2="-147.84" xlink:href="#未命名的渐变_143"/><linearGradient id="未命名的渐变_143-81" x1="108.79" y1="-84.88" x2="108.79" y2="-147.84" xlink:href="#未命名的渐变_143"/><linearGradient id="未命名的渐变_143-82" x1="110.04" y1="-84.88" x2="110.04" y2="-147.84" xlink:href="#未命名的渐变_143"/><linearGradient id="未命名的渐变_143-83" x1="111.29" y1="-84.88" x2="111.29" y2="-147.84" xlink:href="#未命名的渐变_143"/><linearGradient id="未命名的渐变_143-84" x1="112.55" y1="-84.88" x2="112.55" y2="-147.84" xlink:href="#未命名的渐变_143"/><linearGradient id="未命名的渐变_143-85" x1="113.8" y1="-84.88" x2="113.8" y2="-147.84" xlink:href="#未命名的渐变_143"/><linearGradient id="未命名的渐变_143-86" x1="115.06" y1="-84.88" x2="115.06" y2="-147.84" xlink:href="#未命名的渐变_143"/><linearGradient id="未命名的渐变_143-87" x1="116.31" y1="-84.88" x2="116.31" y2="-147.84" xlink:href="#未命名的渐变_143"/><linearGradient id="未命名的渐变_143-88" x1="117.57" y1="-84.88" x2="117.57" y2="-147.84" xlink:href="#未命名的渐变_143"/><linearGradient id="未命名的渐变_143-89" x1="118.82" y1="-84.88" x2="118.82" y2="-147.84" xlink:href="#未命名的渐变_143"/><linearGradient id="未命名的渐变_143-90" x1="120.08" y1="-84.88" x2="120.08" y2="-147.84" xlink:href="#未命名的渐变_143"/><linearGradient id="未命名的渐变_143-91" x1="121.33" y1="-84.88" x2="121.33" y2="-147.84" xlink:href="#未命名的渐变_143"/><linearGradient id="未命名的渐变_143-92" x1="122.59" y1="-84.88" x2="122.59" y2="-147.84" xlink:href="#未命名的渐变_143"/><linearGradient id="未命名的渐变_143-93" x1="123.84" y1="-84.88" x2="123.84" y2="-147.84" xlink:href="#未命名的渐变_143"/><linearGradient id="未命名的渐变_143-94" x1="125.1" y1="-84.88" x2="125.1" y2="-147.84" xlink:href="#未命名的渐变_143"/><linearGradient id="未命名的渐变_143-95" x1="126.35" y1="-84.88" x2="126.35" y2="-147.84" xlink:href="#未命名的渐变_143"/><linearGradient id="未命名的渐变_143-96" x1="127.6" y1="-84.88" x2="127.6" y2="-147.84" xlink:href="#未命名的渐变_143"/><linearGradient id="未命名的渐变_143-97" x1="128.86" y1="-84.88" x2="128.86" y2="-147.84" xlink:href="#未命名的渐变_143"/><linearGradient id="未命名的渐变_143-98" x1="130.11" y1="-84.88" x2="130.11" y2="-147.84" xlink:href="#未命名的渐变_143"/><linearGradient id="未命名的渐变_143-99" x1="131.37" y1="-84.88" x2="131.37" y2="-147.84" xlink:href="#未命名的渐变_143"/><linearGradient id="未命名的渐变_143-100" x1="132.62" y1="-84.88" x2="132.62" y2="-147.84" xlink:href="#未命名的渐变_143"/><linearGradient id="未命名的渐变_143-101" x1="133.88" y1="-84.88" x2="133.88" y2="-147.84" xlink:href="#未命名的渐变_143"/><linearGradient id="未命名的渐变_143-102" x1="135.13" y1="-84.88" x2="135.13" y2="-147.84" xlink:href="#未命名的渐变_143"/><linearGradient id="未命名的渐变_143-103" x1="136.39" y1="-84.88" x2="136.39" y2="-147.84" xlink:href="#未命名的渐变_143"/><linearGradient id="未命名的渐变_143-104" x1="137.64" y1="-84.88" x2="137.64" y2="-147.84" xlink:href="#未命名的渐变_143"/><linearGradient id="未命名的渐变_143-105" x1="138.9" y1="-84.88" x2="138.9" y2="-147.84" xlink:href="#未命名的渐变_143"/><linearGradient id="未命名的渐变_143-106" x1="140.15" y1="-84.88" x2="140.15" y2="-147.84" xlink:href="#未命名的渐变_143"/><linearGradient id="未命名的渐变_143-107" x1="141.4" y1="-84.88" x2="141.4" y2="-147.84" xlink:href="#未命名的渐变_143"/><linearGradient id="未命名的渐变_143-108" x1="142.66" y1="-84.88" x2="142.66" y2="-147.84" xlink:href="#未命名的渐变_143"/><linearGradient id="未命名的渐变_143-109" x1="143.91" y1="-84.88" x2="143.91" y2="-147.84" xlink:href="#未命名的渐变_143"/><linearGradient id="未命名的渐变_143-110" x1="145.17" y1="-84.88" x2="145.17" y2="-147.84" xlink:href="#未命名的渐变_143"/><linearGradient id="未命名的渐变_143-111" x1="146.42" y1="-84.88" x2="146.42" y2="-147.84" xlink:href="#未命名的渐变_143"/><linearGradient id="未命名的渐变_143-112" x1="147.68" y1="-84.88" x2="147.68" y2="-147.84" xlink:href="#未命名的渐变_143"/><linearGradient id="未命名的渐变_143-113" x1="148.93" y1="-84.88" x2="148.93" y2="-147.84" xlink:href="#未命名的渐变_143"/><linearGradient id="未命名的渐变_143-114" x1="150.19" y1="-84.88" x2="150.19" y2="-147.84" xlink:href="#未命名的渐变_143"/><linearGradient id="未命名的渐变_143-115" x1="151.44" y1="-84.88" x2="151.44" y2="-147.84" xlink:href="#未命名的渐变_143"/><linearGradient id="未命名的渐变_143-116" x1="152.7" y1="-84.88" x2="152.7" y2="-147.84" xlink:href="#未命名的渐变_143"/><linearGradient id="未命名的渐变_143-117" x1="153.95" y1="-84.88" x2="153.95" y2="-147.84" xlink:href="#未命名的渐变_143"/><linearGradient id="未命名的渐变_143-118" x1="155.21" y1="-84.88" x2="155.21" y2="-147.84" xlink:href="#未命名的渐变_143"/><linearGradient id="未命名的渐变_143-119" x1="156.46" y1="-84.88" x2="156.46" y2="-147.84" xlink:href="#未命名的渐变_143"/><linearGradient id="未命名的渐变_143-120" x1="157.71" y1="-84.88" x2="157.71" y2="-147.84" xlink:href="#未命名的渐变_143"/><clipPath id="clip-path-2"><path class="cls-1" d="M200,74.24V10.42H328l9.51,7a30.94,30.94,0,0,1,0,49.74l-9.51,7Z"/></clipPath><linearGradient id="未命名的渐变_143-121" x1="-303.58" y1="-95.29" x2="-303.58" y2="-158.26" gradientTransform="translate(-123.06 -84.88) rotate(180)" xlink:href="#未命名的渐变_143"/><linearGradient id="未命名的渐变_143-122" x1="-302.32" y1="-95.29" x2="-302.32" y2="-158.26" gradientTransform="translate(-123.06 -84.88) rotate(180)" xlink:href="#未命名的渐变_143"/><linearGradient id="未命名的渐变_143-123" x1="-301.07" y1="-95.29" x2="-301.07" y2="-158.26" gradientTransform="translate(-123.06 -84.88) rotate(180)" xlink:href="#未命名的渐变_143"/><linearGradient id="未命名的渐变_143-124" x1="-299.81" y1="-95.29" x2="-299.81" y2="-158.26" gradientTransform="translate(-123.06 -84.88) rotate(180)" xlink:href="#未命名的渐变_143"/><linearGradient id="未命名的渐变_143-125" x1="-298.56" y1="-95.29" x2="-298.56" y2="-158.26" gradientTransform="translate(-123.06 -84.88) rotate(180)" xlink:href="#未命名的渐变_143"/><linearGradient id="未命名的渐变_143-126" x1="-297.3" y1="-95.29" x2="-297.3" y2="-158.26" gradientTransform="translate(-123.06 -84.88) rotate(180)" xlink:href="#未命名的渐变_143"/><linearGradient id="未命名的渐变_143-127" x1="-296.05" y1="-95.29" x2="-296.05" y2="-158.26" gradientTransform="translate(-123.06 -84.88) rotate(180)" xlink:href="#未命名的渐变_143"/><linearGradient id="未命名的渐变_143-128" x1="-294.79" y1="-95.29" x2="-294.79" y2="-158.26" gradientTransform="translate(-123.06 -84.88) rotate(180)" xlink:href="#未命名的渐变_143"/><linearGradient id="未命名的渐变_143-129" x1="-293.54" y1="-95.29" x2="-293.54" y2="-158.26" gradientTransform="translate(-123.06 -84.88) rotate(180)" xlink:href="#未命名的渐变_143"/><linearGradient id="未命名的渐变_143-130" x1="-292.29" y1="-95.29" x2="-292.29" y2="-158.26" gradientTransform="translate(-123.06 -84.88) rotate(180)" xlink:href="#未命名的渐变_143"/><linearGradient id="未命名的渐变_143-131" x1="-291.03" y1="-95.29" x2="-291.03" y2="-158.26" gradientTransform="translate(-123.06 -84.88) rotate(180)" xlink:href="#未命名的渐变_143"/><linearGradient id="未命名的渐变_143-132" x1="-289.78" y1="-95.29" x2="-289.78" y2="-158.26" gradientTransform="translate(-123.06 -84.88) rotate(180)" xlink:href="#未命名的渐变_143"/><linearGradient id="未命名的渐变_143-133" x1="-288.52" y1="-95.29" x2="-288.52" y2="-158.26" gradientTransform="translate(-123.06 -84.88) rotate(180)" xlink:href="#未命名的渐变_143"/><linearGradient id="未命名的渐变_143-134" x1="-287.27" y1="-95.29" x2="-287.27" y2="-158.26" gradientTransform="translate(-123.06 -84.88) rotate(180)" xlink:href="#未命名的渐变_143"/><linearGradient id="未命名的渐变_143-135" x1="-286.01" y1="-95.29" x2="-286.01" y2="-158.26" gradientTransform="translate(-123.06 -84.88) rotate(180)" xlink:href="#未命名的渐变_143"/><linearGradient id="未命名的渐变_143-136" x1="-284.76" y1="-95.29" x2="-284.76" y2="-158.26" gradientTransform="translate(-123.06 -84.88) rotate(180)" xlink:href="#未命名的渐变_143"/><linearGradient id="未命名的渐变_143-137" x1="-283.5" y1="-95.29" x2="-283.5" y2="-158.26" gradientTransform="translate(-123.06 -84.88) rotate(180)" xlink:href="#未命名的渐变_143"/></defs><title>iot-管道(21)</title><g id="图层_11" data-name="图层 11"><g class="cls-2"><circle class="cls-3" cx="31.48" cy="31.48" r="31.48"/><circle class="cls-4" cx="32.74" cy="31.48" r="31.48"/><circle class="cls-5" cx="33.99" cy="31.48" r="31.48"/><circle class="cls-6" cx="35.24" cy="31.48" r="31.48"/><circle class="cls-7" cx="36.5" cy="31.48" r="31.48"/><circle class="cls-8" cx="37.75" cy="31.48" r="31.48"/><circle class="cls-9" cx="39.01" cy="31.48" r="31.48"/><circle class="cls-10" cx="40.26" cy="31.48" r="31.48"/><circle class="cls-11" cx="41.52" cy="31.48" r="31.48"/><circle class="cls-12" cx="42.77" cy="31.48" r="31.48"/><circle class="cls-13" cx="44.03" cy="31.48" r="31.48"/><circle class="cls-14" cx="45.28" cy="31.48" r="31.48"/><circle class="cls-15" cx="46.54" cy="31.48" r="31.48"/><circle class="cls-16" cx="47.79" cy="31.48" r="31.48"/><circle class="cls-17" cx="49.05" cy="31.48" r="31.48"/><circle class="cls-18" cx="50.3" cy="31.48" r="31.48"/><circle class="cls-19" cx="51.55" cy="31.48" r="31.48"/><circle class="cls-20" cx="52.81" cy="31.48" r="31.48"/><circle class="cls-21" cx="54.06" cy="31.48" r="31.48"/><circle class="cls-22" cx="55.32" cy="31.48" r="31.48"/><circle class="cls-23" cx="56.57" cy="31.48" r="31.48"/><circle class="cls-24" cx="57.83" cy="31.48" r="31.48"/><circle class="cls-25" cx="59.08" cy="31.48" r="31.48"/><circle class="cls-26" cx="60.34" cy="31.48" r="31.48"/><circle class="cls-27" cx="61.59" cy="31.48" r="31.48"/><circle class="cls-28" cx="62.85" cy="31.48" r="31.48"/><circle class="cls-29" cx="64.1" cy="31.48" r="31.48"/><circle class="cls-30" cx="65.35" cy="31.48" r="31.48"/><circle class="cls-31" cx="66.61" cy="31.48" r="31.48"/><circle class="cls-32" cx="67.86" cy="31.48" r="31.48"/><circle class="cls-33" cx="69.12" cy="31.48" r="31.48"/><circle class="cls-34" cx="70.37" cy="31.48" r="31.48"/><circle class="cls-35" cx="71.63" cy="31.48" r="31.48"/><circle class="cls-36" cx="72.88" cy="31.48" r="31.48"/><circle class="cls-37" cx="74.14" cy="31.48" r="31.48"/><circle class="cls-38" cx="75.39" cy="31.48" r="31.48"/><circle class="cls-39" cx="76.65" cy="31.48" r="31.48"/><circle class="cls-40" cx="77.9" cy="31.48" r="31.48"/><circle class="cls-41" cx="79.16" cy="31.48" r="31.48"/><circle class="cls-42" cx="80.41" cy="31.48" r="31.48"/><circle class="cls-43" cx="81.66" cy="31.48" r="31.48"/><circle class="cls-44" cx="82.92" cy="31.48" r="31.48"/><circle class="cls-45" cx="84.17" cy="31.48" r="31.48"/><circle class="cls-46" cx="85.43" cy="31.48" r="31.48"/><circle class="cls-47" cx="86.68" cy="31.48" r="31.48"/><circle class="cls-48" cx="87.94" cy="31.48" r="31.48"/><circle class="cls-49" cx="89.19" cy="31.48" r="31.48"/><circle class="cls-50" cx="90.45" cy="31.48" r="31.48"/><circle class="cls-51" cx="91.7" cy="31.48" r="31.48"/><circle class="cls-52" cx="92.96" cy="31.48" r="31.48"/><circle class="cls-53" cx="94.21" cy="31.48" r="31.48"/><circle class="cls-54" cx="95.46" cy="31.48" r="31.48"/><circle class="cls-55" cx="96.72" cy="31.48" r="31.48"/><circle class="cls-56" cx="97.97" cy="31.48" r="31.48"/><circle class="cls-57" cx="99.23" cy="31.48" r="31.48"/><circle class="cls-58" cx="100.48" cy="31.48" r="31.48"/><circle class="cls-59" cx="101.74" cy="31.48" r="31.48"/><circle class="cls-60" cx="102.99" cy="31.48" r="31.48"/><circle class="cls-61" cx="104.25" cy="31.48" r="31.48"/><circle class="cls-62" cx="105.5" cy="31.48" r="31.48"/><circle class="cls-63" cx="106.76" cy="31.48" r="31.48"/><circle class="cls-64" cx="108.01" cy="31.48" r="31.48"/><circle class="cls-65" cx="109.26" cy="31.48" r="31.48"/><circle class="cls-66" cx="110.52" cy="31.48" r="31.48"/><circle class="cls-67" cx="111.77" cy="31.48" r="31.48"/><circle class="cls-68" cx="113.03" cy="31.48" r="31.48"/><circle class="cls-69" cx="114.28" cy="31.48" r="31.48"/><circle class="cls-70" cx="115.54" cy="31.48" r="31.48"/><circle class="cls-71" cx="116.79" cy="31.48" r="31.48"/><circle class="cls-72" cx="118.05" cy="31.48" r="31.48"/><circle class="cls-73" cx="119.3" cy="31.48" r="31.48"/><circle class="cls-74" cx="120.56" cy="31.48" r="31.48"/><circle class="cls-75" cx="121.81" cy="31.48" r="31.48"/><circle class="cls-76" cx="123.07" cy="31.48" r="31.48"/><circle class="cls-77" cx="124.32" cy="31.48" r="31.48"/><circle class="cls-78" cx="125.57" cy="31.48" r="31.48"/><circle class="cls-79" cx="126.83" cy="31.48" r="31.48"/><circle class="cls-80" cx="128.08" cy="31.48" r="31.48"/><circle class="cls-81" cx="129.34" cy="31.48" r="31.48"/><circle class="cls-82" cx="130.59" cy="31.48" r="31.48"/><circle class="cls-83" cx="131.85" cy="31.48" r="31.48"/><circle class="cls-84" cx="133.1" cy="31.48" r="31.48"/><circle class="cls-85" cx="134.36" cy="31.48" r="31.48"/><circle class="cls-86" cx="135.61" cy="31.48" r="31.48"/><circle class="cls-87" cx="136.87" cy="31.48" r="31.48"/><circle class="cls-88" cx="138.12" cy="31.48" r="31.48"/><circle class="cls-89" cx="139.37" cy="31.48" r="31.48"/><circle class="cls-90" cx="140.63" cy="31.48" r="31.48"/><circle class="cls-91" cx="141.88" cy="31.48" r="31.48"/><circle class="cls-92" cx="143.14" cy="31.48" r="31.48"/><circle class="cls-93" cx="144.39" cy="31.48" r="31.48"/><circle class="cls-94" cx="145.65" cy="31.48" r="31.48"/><circle class="cls-95" cx="146.9" cy="31.48" r="31.48"/><circle class="cls-96" cx="148.16" cy="31.48" r="31.48"/><circle class="cls-97" cx="149.41" cy="31.48" r="31.48"/><circle class="cls-98" cx="150.67" cy="31.48" r="31.48"/><circle class="cls-99" cx="151.92" cy="31.48" r="31.48"/><circle class="cls-100" cx="153.18" cy="31.48" r="31.48"/><circle class="cls-101" cx="154.43" cy="31.48" r="31.48"/><circle class="cls-102" cx="155.68" cy="31.48" r="31.48"/><circle class="cls-103" cx="156.94" cy="31.48" r="31.48"/><circle class="cls-104" cx="158.19" cy="31.48" r="31.48"/><circle class="cls-105" cx="159.45" cy="31.48" r="31.48"/><circle class="cls-106" cx="160.7" cy="31.48" r="31.48"/><circle class="cls-107" cx="161.96" cy="31.48" r="31.48"/><circle class="cls-108" cx="163.21" cy="31.48" r="31.48"/><circle class="cls-109" cx="164.47" cy="31.48" r="31.48"/><circle class="cls-110" cx="165.72" cy="31.48" r="31.48"/><circle class="cls-111" cx="166.98" cy="31.48" r="31.48"/><circle class="cls-112" cx="168.23" cy="31.48" r="31.48"/><circle class="cls-113" cx="169.48" cy="31.48" r="31.48"/><circle class="cls-114" cx="170.74" cy="31.48" r="31.48"/><circle class="cls-115" cx="171.99" cy="31.48" r="31.48"/><circle class="cls-116" cx="173.25" cy="31.48" r="31.48"/><circle class="cls-117" cx="174.5" cy="31.48" r="31.48"/><circle class="cls-118" cx="175.76" cy="31.48" r="31.48"/><circle class="cls-119" cx="177.01" cy="31.48" r="31.48"/><circle class="cls-120" cx="178.27" cy="31.48" r="31.48"/><circle class="cls-121" cx="179.52" cy="31.48" r="31.48"/><circle class="cls-122" cx="180.78" cy="31.48" r="31.48"/></g></g><g id="图层_12" data-name="图层 12"><g class="cls-123"><circle class="cls-124" cx="180.52" cy="41.9" r="31.48"/><circle class="cls-125" cx="179.26" cy="41.9" r="31.48"/><circle class="cls-126" cx="178.01" cy="41.9" r="31.48"/><circle class="cls-127" cx="176.75" cy="41.9" r="31.48"/><circle class="cls-128" cx="175.5" cy="41.9" r="31.48"/><circle class="cls-129" cx="174.24" cy="41.9" r="31.48"/><circle class="cls-130" cx="172.99" cy="41.9" r="31.48"/><circle class="cls-131" cx="171.73" cy="41.9" r="31.48"/><circle class="cls-132" cx="170.48" cy="41.9" r="31.48"/><circle class="cls-133" cx="169.22" cy="41.9" r="31.48"/><circle class="cls-134" cx="167.97" cy="41.9" r="31.48"/><circle class="cls-135" cx="166.71" cy="41.9" r="31.48"/><circle class="cls-136" cx="165.46" cy="41.9" r="31.48"/><circle class="cls-137" cx="164.21" cy="41.9" r="31.48"/><circle class="cls-138" cx="162.95" cy="41.9" r="31.48"/><circle class="cls-139" cx="161.7" cy="41.9" r="31.48"/><circle class="cls-140" cx="160.44" cy="41.9" r="31.48"/></g></g><g id="图层_21" data-name="图层 21"></g></svg>