<svg xmlns="http://www.w3.org/2000/svg" xmlns:xlink="http://www.w3.org/1999/xlink" viewBox="0 0 62.99 150"><defs><style>.cls-1{fill:none;}.cls-2{clip-path:url(#clip-path);}.cls-3{fill:url(#未命名的渐变_143);}.cls-4{fill:url(#未命名的渐变_143-2);}.cls-5{fill:url(#未命名的渐变_143-3);}.cls-6{fill:url(#未命名的渐变_143-4);}.cls-7{fill:url(#未命名的渐变_143-5);}.cls-8{fill:url(#未命名的渐变_143-6);}.cls-9{fill:url(#未命名的渐变_143-7);}.cls-10{fill:url(#未命名的渐变_143-8);}.cls-11{fill:url(#未命名的渐变_143-9);}.cls-12{fill:url(#未命名的渐变_143-10);}.cls-13{fill:url(#未命名的渐变_143-11);}.cls-14{fill:url(#未命名的渐变_143-12);}.cls-15{fill:url(#未命名的渐变_143-13);}.cls-16{fill:url(#未命名的渐变_143-14);}.cls-17{fill:url(#未命名的渐变_143-15);}.cls-18{fill:url(#未命名的渐变_143-16);}.cls-19{fill:url(#未命名的渐变_143-17);}.cls-20{fill:url(#未命名的渐变_143-18);}.cls-21{fill:url(#未命名的渐变_143-19);}.cls-22{fill:url(#未命名的渐变_143-20);}.cls-23{fill:url(#未命名的渐变_143-21);}.cls-24{fill:url(#未命名的渐变_143-22);}.cls-25{fill:url(#未命名的渐变_143-23);}.cls-26{fill:url(#未命名的渐变_143-24);}.cls-27{fill:url(#未命名的渐变_143-25);}.cls-28{fill:url(#未命名的渐变_143-26);}.cls-29{fill:url(#未命名的渐变_143-27);}.cls-30{fill:url(#未命名的渐变_143-28);}.cls-31{fill:url(#未命名的渐变_143-29);}.cls-32{fill:url(#未命名的渐变_143-30);}.cls-33{fill:url(#未命名的渐变_143-31);}.cls-34{fill:url(#未命名的渐变_143-32);}.cls-35{fill:url(#未命名的渐变_143-33);}.cls-36{fill:url(#未命名的渐变_143-34);}.cls-37{fill:url(#未命名的渐变_143-35);}.cls-38{fill:url(#未命名的渐变_143-36);}.cls-39{fill:url(#未命名的渐变_143-37);}.cls-40{fill:url(#未命名的渐变_143-38);}.cls-41{fill:url(#未命名的渐变_143-39);}.cls-42{fill:url(#未命名的渐变_143-40);}.cls-43{fill:url(#未命名的渐变_143-41);}.cls-44{fill:url(#未命名的渐变_143-42);}.cls-45{fill:url(#未命名的渐变_143-43);}.cls-46{fill:url(#未命名的渐变_143-44);}.cls-47{fill:url(#未命名的渐变_143-45);}.cls-48{fill:url(#未命名的渐变_143-46);}.cls-49{fill:url(#未命名的渐变_143-47);}.cls-50{fill:url(#未命名的渐变_143-48);}.cls-51{fill:url(#未命名的渐变_143-49);}.cls-52{fill:url(#未命名的渐变_143-50);}.cls-53{fill:url(#未命名的渐变_143-51);}.cls-54{fill:url(#未命名的渐变_143-52);}.cls-55{fill:url(#未命名的渐变_143-53);}.cls-56{fill:url(#未命名的渐变_143-54);}.cls-57{fill:url(#未命名的渐变_143-55);}.cls-58{fill:url(#未命名的渐变_143-56);}.cls-59{fill:url(#未命名的渐变_143-57);}.cls-60{fill:url(#未命名的渐变_143-58);}.cls-61{fill:url(#未命名的渐变_143-59);}.cls-62{fill:url(#未命名的渐变_143-60);}.cls-63{fill:url(#未命名的渐变_143-61);}.cls-64{fill:url(#未命名的渐变_143-62);}.cls-65{fill:url(#未命名的渐变_143-63);}.cls-66{fill:url(#未命名的渐变_143-64);}.cls-67{fill:url(#未命名的渐变_143-65);}.cls-68{fill:url(#未命名的渐变_143-66);}.cls-69{fill:url(#未命名的渐变_143-67);}.cls-70{fill:url(#未命名的渐变_143-68);}.cls-71{fill:url(#未命名的渐变_143-69);}.cls-72{fill:url(#未命名的渐变_143-70);}.cls-73{fill:url(#未命名的渐变_143-71);}.cls-74{fill:url(#未命名的渐变_143-72);}.cls-75{fill:url(#未命名的渐变_143-73);}.cls-76{fill:url(#未命名的渐变_143-74);}.cls-77{fill:url(#未命名的渐变_143-75);}.cls-78{fill:url(#未命名的渐变_143-76);}.cls-79{fill:url(#未命名的渐变_143-77);}.cls-80{fill:url(#未命名的渐变_143-78);}.cls-81{fill:url(#未命名的渐变_143-79);}.cls-82{fill:url(#未命名的渐变_143-80);}.cls-83{fill:url(#未命名的渐变_143-81);}.cls-84{fill:url(#未命名的渐变_143-82);}.cls-85{fill:url(#未命名的渐变_143-83);}.cls-86{fill:url(#未命名的渐变_143-84);}.cls-87{fill:url(#未命名的渐变_143-85);}.cls-88{fill:url(#未命名的渐变_143-86);}.cls-89{fill:url(#未命名的渐变_143-87);}.cls-90{fill:url(#未命名的渐变_143-88);}.cls-91{fill:url(#未命名的渐变_143-89);}.cls-92{fill:url(#未命名的渐变_143-90);}.cls-93{fill:url(#未命名的渐变_143-91);}.cls-94{fill:url(#未命名的渐变_143-92);}.cls-95{fill:url(#未命名的渐变_143-93);}.cls-96{fill:url(#未命名的渐变_143-94);}.cls-97{fill:url(#未命名的渐变_143-95);}.cls-98{fill:url(#未命名的渐变_143-96);}.cls-99{fill:url(#未命名的渐变_143-97);}.cls-100{fill:url(#未命名的渐变_143-98);}.cls-101{fill:url(#未命名的渐变_143-99);}.cls-102{fill:url(#未命名的渐变_143-100);}.cls-103{fill:url(#未命名的渐变_143-101);}.cls-104{fill:url(#未命名的渐变_143-102);}.cls-105{fill:url(#未命名的渐变_143-103);}.cls-106{fill:url(#未命名的渐变_143-104);}.cls-107{fill:url(#未命名的渐变_143-105);}.cls-108{fill:url(#未命名的渐变_143-106);}.cls-109{fill:url(#未命名的渐变_143-107);}.cls-110{fill:url(#未命名的渐变_143-108);}.cls-111{fill:url(#未命名的渐变_143-109);}.cls-112{fill:url(#未命名的渐变_143-110);}.cls-113{fill:url(#未命名的渐变_143-111);}.cls-114{fill:url(#未命名的渐变_143-112);}.cls-115{fill:url(#未命名的渐变_143-113);}.cls-116{fill:url(#未命名的渐变_143-114);}.cls-117{fill:url(#未命名的渐变_143-115);}.cls-118{fill:url(#未命名的渐变_143-116);}.cls-119{fill:url(#未命名的渐变_143-117);}.cls-120{fill:url(#未命名的渐变_143-118);}.cls-121{fill:url(#未命名的渐变_143-119);}.cls-122{fill:url(#未命名的渐变_143-120);}.cls-123{opacity:0.2;}</style><clipPath id="clip-path"><path class="cls-1" d="M63.82,150H0V22l7-9.51a30.94,30.94,0,0,1,49.74,0l7,9.51Z"/></clipPath><linearGradient id="未命名的渐变_143" x1="367.57" y1="116.44" x2="367.57" y2="53.48" gradientTransform="translate(116.44 -336.09) rotate(90)" gradientUnits="userSpaceOnUse"><stop offset="0" stop-color="#b7b7b7"/><stop offset="0.03" stop-color="#9b9d9d"/><stop offset="0.07" stop-color="#878b8b"/><stop offset="0.09" stop-color="#808484"/><stop offset="0.2" stop-color="#a3a6a6"/><stop offset="0.49" stop-color="#f6f6f6"/><stop offset="0.61" stop-color="#f3f3f3"/><stop offset="0.7" stop-color="#eaeaea"/><stop offset="0.77" stop-color="#dbdbdb"/><stop offset="0.83" stop-color="#c5c5c5"/><stop offset="0.9" stop-color="#aaa"/><stop offset="0.95" stop-color="#888"/><stop offset="1" stop-color="#666"/></linearGradient><linearGradient id="未命名的渐变_143-2" x1="368.83" y1="116.44" x2="368.83" y2="53.48" xlink:href="#未命名的渐变_143"/><linearGradient id="未命名的渐变_143-3" x1="370.08" y1="116.44" x2="370.08" y2="53.48" xlink:href="#未命名的渐变_143"/><linearGradient id="未命名的渐变_143-4" x1="371.34" y1="116.44" x2="371.34" y2="53.48" xlink:href="#未命名的渐变_143"/><linearGradient id="未命名的渐变_143-5" x1="372.59" y1="116.44" x2="372.59" y2="53.48" xlink:href="#未命名的渐变_143"/><linearGradient id="未命名的渐变_143-6" x1="373.85" y1="116.44" x2="373.85" y2="53.48" xlink:href="#未命名的渐变_143"/><linearGradient id="未命名的渐变_143-7" x1="375.1" y1="116.44" x2="375.1" y2="53.48" xlink:href="#未命名的渐变_143"/><linearGradient id="未命名的渐变_143-8" x1="376.35" y1="116.44" x2="376.35" y2="53.48" xlink:href="#未命名的渐变_143"/><linearGradient id="未命名的渐变_143-9" x1="377.61" y1="116.44" x2="377.61" y2="53.48" xlink:href="#未命名的渐变_143"/><linearGradient id="未命名的渐变_143-10" x1="378.86" y1="116.44" x2="378.86" y2="53.48" xlink:href="#未命名的渐变_143"/><linearGradient id="未命名的渐变_143-11" x1="380.12" y1="116.44" x2="380.12" y2="53.48" xlink:href="#未命名的渐变_143"/><linearGradient id="未命名的渐变_143-12" x1="381.37" y1="116.44" x2="381.37" y2="53.48" xlink:href="#未命名的渐变_143"/><linearGradient id="未命名的渐变_143-13" x1="382.63" y1="116.44" x2="382.63" y2="53.48" xlink:href="#未命名的渐变_143"/><linearGradient id="未命名的渐变_143-14" x1="383.88" y1="116.44" x2="383.88" y2="53.48" xlink:href="#未命名的渐变_143"/><linearGradient id="未命名的渐变_143-15" x1="385.14" y1="116.44" x2="385.14" y2="53.48" xlink:href="#未命名的渐变_143"/><linearGradient id="未命名的渐变_143-16" x1="386.39" y1="116.44" x2="386.39" y2="53.48" xlink:href="#未命名的渐变_143"/><linearGradient id="未命名的渐变_143-17" x1="387.65" y1="116.44" x2="387.65" y2="53.48" xlink:href="#未命名的渐变_143"/><linearGradient id="未命名的渐变_143-18" x1="388.9" y1="116.44" x2="388.9" y2="53.48" xlink:href="#未命名的渐变_143"/><linearGradient id="未命名的渐变_143-19" x1="390.16" y1="116.44" x2="390.16" y2="53.48" xlink:href="#未命名的渐变_143"/><linearGradient id="未命名的渐变_143-20" x1="391.41" y1="116.44" x2="391.41" y2="53.48" xlink:href="#未命名的渐变_143"/><linearGradient id="未命名的渐变_143-21" x1="392.66" y1="116.44" x2="392.66" y2="53.48" xlink:href="#未命名的渐变_143"/><linearGradient id="未命名的渐变_143-22" x1="393.92" y1="116.44" x2="393.92" y2="53.48" xlink:href="#未命名的渐变_143"/><linearGradient id="未命名的渐变_143-23" x1="395.17" y1="116.44" x2="395.17" y2="53.48" xlink:href="#未命名的渐变_143"/><linearGradient id="未命名的渐变_143-24" x1="396.43" y1="116.44" x2="396.43" y2="53.48" xlink:href="#未命名的渐变_143"/><linearGradient id="未命名的渐变_143-25" x1="397.68" y1="116.44" x2="397.68" y2="53.48" xlink:href="#未命名的渐变_143"/><linearGradient id="未命名的渐变_143-26" x1="398.94" y1="116.44" x2="398.94" y2="53.48" xlink:href="#未命名的渐变_143"/><linearGradient id="未命名的渐变_143-27" x1="400.19" y1="116.44" x2="400.19" y2="53.48" xlink:href="#未命名的渐变_143"/><linearGradient id="未命名的渐变_143-28" x1="401.45" y1="116.44" x2="401.45" y2="53.48" xlink:href="#未命名的渐变_143"/><linearGradient id="未命名的渐变_143-29" x1="402.7" y1="116.44" x2="402.7" y2="53.48" xlink:href="#未命名的渐变_143"/><linearGradient id="未命名的渐变_143-30" x1="403.96" y1="116.44" x2="403.96" y2="53.48" xlink:href="#未命名的渐变_143"/><linearGradient id="未命名的渐变_143-31" x1="405.21" y1="116.44" x2="405.21" y2="53.48" xlink:href="#未命名的渐变_143"/><linearGradient id="未命名的渐变_143-32" x1="406.46" y1="116.44" x2="406.46" y2="53.48" xlink:href="#未命名的渐变_143"/><linearGradient id="未命名的渐变_143-33" x1="407.72" y1="116.44" x2="407.72" y2="53.48" xlink:href="#未命名的渐变_143"/><linearGradient id="未命名的渐变_143-34" x1="408.97" y1="116.44" x2="408.97" y2="53.48" xlink:href="#未命名的渐变_143"/><linearGradient id="未命名的渐变_143-35" x1="410.23" y1="116.44" x2="410.23" y2="53.48" xlink:href="#未命名的渐变_143"/><linearGradient id="未命名的渐变_143-36" x1="411.48" y1="116.44" x2="411.48" y2="53.48" xlink:href="#未命名的渐变_143"/><linearGradient id="未命名的渐变_143-37" x1="412.74" y1="116.44" x2="412.74" y2="53.48" xlink:href="#未命名的渐变_143"/><linearGradient id="未命名的渐变_143-38" x1="413.99" y1="116.44" x2="413.99" y2="53.48" xlink:href="#未命名的渐变_143"/><linearGradient id="未命名的渐变_143-39" x1="415.25" y1="116.44" x2="415.25" y2="53.48" xlink:href="#未命名的渐变_143"/><linearGradient id="未命名的渐变_143-40" x1="416.5" y1="116.44" x2="416.5" y2="53.48" xlink:href="#未命名的渐变_143"/><linearGradient id="未命名的渐变_143-41" x1="417.76" y1="116.44" x2="417.76" y2="53.48" xlink:href="#未命名的渐变_143"/><linearGradient id="未命名的渐变_143-42" x1="419.01" y1="116.44" x2="419.01" y2="53.48" xlink:href="#未命名的渐变_143"/><linearGradient id="未命名的渐变_143-43" x1="420.27" y1="116.44" x2="420.27" y2="53.48" xlink:href="#未命名的渐变_143"/><linearGradient id="未命名的渐变_143-44" x1="421.52" y1="116.44" x2="421.52" y2="53.48" xlink:href="#未命名的渐变_143"/><linearGradient id="未命名的渐变_143-45" x1="422.77" y1="116.44" x2="422.77" y2="53.48" xlink:href="#未命名的渐变_143"/><linearGradient id="未命名的渐变_143-46" x1="424.03" y1="116.44" x2="424.03" y2="53.48" xlink:href="#未命名的渐变_143"/><linearGradient id="未命名的渐变_143-47" x1="425.28" y1="116.44" x2="425.28" y2="53.48" xlink:href="#未命名的渐变_143"/><linearGradient id="未命名的渐变_143-48" x1="426.54" y1="116.44" x2="426.54" y2="53.48" xlink:href="#未命名的渐变_143"/><linearGradient id="未命名的渐变_143-49" x1="427.79" y1="116.44" x2="427.79" y2="53.48" xlink:href="#未命名的渐变_143"/><linearGradient id="未命名的渐变_143-50" x1="429.05" y1="116.44" x2="429.05" y2="53.48" xlink:href="#未命名的渐变_143"/><linearGradient id="未命名的渐变_143-51" x1="430.3" y1="116.44" x2="430.3" y2="53.48" xlink:href="#未命名的渐变_143"/><linearGradient id="未命名的渐变_143-52" x1="431.56" y1="116.44" x2="431.56" y2="53.48" xlink:href="#未命名的渐变_143"/><linearGradient id="未命名的渐变_143-53" x1="432.81" y1="116.44" x2="432.81" y2="53.48" xlink:href="#未命名的渐变_143"/><linearGradient id="未命名的渐变_143-54" x1="434.07" y1="116.44" x2="434.07" y2="53.48" xlink:href="#未命名的渐变_143"/><linearGradient id="未命名的渐变_143-55" x1="435.32" y1="116.44" x2="435.32" y2="53.48" xlink:href="#未命名的渐变_143"/><linearGradient id="未命名的渐变_143-56" x1="436.57" y1="116.44" x2="436.57" y2="53.48" xlink:href="#未命名的渐变_143"/><linearGradient id="未命名的渐变_143-57" x1="437.83" y1="116.44" x2="437.83" y2="53.48" xlink:href="#未命名的渐变_143"/><linearGradient id="未命名的渐变_143-58" x1="439.08" y1="116.44" x2="439.08" y2="53.48" xlink:href="#未命名的渐变_143"/><linearGradient id="未命名的渐变_143-59" x1="440.34" y1="116.44" x2="440.34" y2="53.48" xlink:href="#未命名的渐变_143"/><linearGradient id="未命名的渐变_143-60" x1="441.59" y1="116.44" x2="441.59" y2="53.48" xlink:href="#未命名的渐变_143"/><linearGradient id="未命名的渐变_143-61" x1="442.85" y1="116.44" x2="442.85" y2="53.48" xlink:href="#未命名的渐变_143"/><linearGradient id="未命名的渐变_143-62" x1="444.1" y1="116.44" x2="444.1" y2="53.48" xlink:href="#未命名的渐变_143"/><linearGradient id="未命名的渐变_143-63" x1="445.36" y1="116.44" x2="445.36" y2="53.48" xlink:href="#未命名的渐变_143"/><linearGradient id="未命名的渐变_143-64" x1="446.61" y1="116.44" x2="446.61" y2="53.48" xlink:href="#未命名的渐变_143"/><linearGradient id="未命名的渐变_143-65" x1="447.87" y1="116.44" x2="447.87" y2="53.48" xlink:href="#未命名的渐变_143"/><linearGradient id="未命名的渐变_143-66" x1="449.12" y1="116.44" x2="449.12" y2="53.48" xlink:href="#未命名的渐变_143"/><linearGradient id="未命名的渐变_143-67" x1="450.38" y1="116.44" x2="450.38" y2="53.48" xlink:href="#未命名的渐变_143"/><linearGradient id="未命名的渐变_143-68" x1="451.63" y1="116.44" x2="451.63" y2="53.48" xlink:href="#未命名的渐变_143"/><linearGradient id="未命名的渐变_143-69" x1="452.88" y1="116.44" x2="452.88" y2="53.48" xlink:href="#未命名的渐变_143"/><linearGradient id="未命名的渐变_143-70" x1="454.14" y1="116.44" x2="454.14" y2="53.48" xlink:href="#未命名的渐变_143"/><linearGradient id="未命名的渐变_143-71" x1="455.39" y1="116.44" x2="455.39" y2="53.48" xlink:href="#未命名的渐变_143"/><linearGradient id="未命名的渐变_143-72" x1="456.65" y1="116.44" x2="456.65" y2="53.48" xlink:href="#未命名的渐变_143"/><linearGradient id="未命名的渐变_143-73" x1="457.9" y1="116.44" x2="457.9" y2="53.48" xlink:href="#未命名的渐变_143"/><linearGradient id="未命名的渐变_143-74" x1="459.16" y1="116.44" x2="459.16" y2="53.48" xlink:href="#未命名的渐变_143"/><linearGradient id="未命名的渐变_143-75" x1="460.41" y1="116.44" x2="460.41" y2="53.48" xlink:href="#未命名的渐变_143"/><linearGradient id="未命名的渐变_143-76" x1="461.67" y1="116.44" x2="461.67" y2="53.48" xlink:href="#未命名的渐变_143"/><linearGradient id="未命名的渐变_143-77" x1="462.92" y1="116.44" x2="462.92" y2="53.48" xlink:href="#未命名的渐变_143"/><linearGradient id="未命名的渐变_143-78" x1="464.18" y1="116.44" x2="464.18" y2="53.48" xlink:href="#未命名的渐变_143"/><linearGradient id="未命名的渐变_143-79" x1="465.43" y1="116.44" x2="465.43" y2="53.48" xlink:href="#未命名的渐变_143"/><linearGradient id="未命名的渐变_143-80" x1="466.68" y1="116.44" x2="466.68" y2="53.48" xlink:href="#未命名的渐变_143"/><linearGradient id="未命名的渐变_143-81" x1="467.94" y1="116.44" x2="467.94" y2="53.48" xlink:href="#未命名的渐变_143"/><linearGradient id="未命名的渐变_143-82" x1="469.19" y1="116.44" x2="469.19" y2="53.48" xlink:href="#未命名的渐变_143"/><linearGradient id="未命名的渐变_143-83" x1="470.45" y1="116.44" x2="470.45" y2="53.48" xlink:href="#未命名的渐变_143"/><linearGradient id="未命名的渐变_143-84" x1="471.7" y1="116.44" x2="471.7" y2="53.48" xlink:href="#未命名的渐变_143"/><linearGradient id="未命名的渐变_143-85" x1="472.96" y1="116.44" x2="472.96" y2="53.48" xlink:href="#未命名的渐变_143"/><linearGradient id="未命名的渐变_143-86" x1="474.21" y1="116.44" x2="474.21" y2="53.48" xlink:href="#未命名的渐变_143"/><linearGradient id="未命名的渐变_143-87" x1="475.47" y1="116.44" x2="475.47" y2="53.48" xlink:href="#未命名的渐变_143"/><linearGradient id="未命名的渐变_143-88" x1="476.72" y1="116.44" x2="476.72" y2="53.48" xlink:href="#未命名的渐变_143"/><linearGradient id="未命名的渐变_143-89" x1="477.98" y1="116.44" x2="477.98" y2="53.48" xlink:href="#未命名的渐变_143"/><linearGradient id="未命名的渐变_143-90" x1="479.23" y1="116.44" x2="479.23" y2="53.48" xlink:href="#未命名的渐变_143"/><linearGradient id="未命名的渐变_143-91" x1="480.49" y1="116.44" x2="480.49" y2="53.48" xlink:href="#未命名的渐变_143"/><linearGradient id="未命名的渐变_143-92" x1="481.74" y1="116.44" x2="481.74" y2="53.48" xlink:href="#未命名的渐变_143"/><linearGradient id="未命名的渐变_143-93" x1="482.99" y1="116.44" x2="482.99" y2="53.48" xlink:href="#未命名的渐变_143"/><linearGradient id="未命名的渐变_143-94" x1="484.25" y1="116.44" x2="484.25" y2="53.48" xlink:href="#未命名的渐变_143"/><linearGradient id="未命名的渐变_143-95" x1="485.5" y1="116.44" x2="485.5" y2="53.48" xlink:href="#未命名的渐变_143"/><linearGradient id="未命名的渐变_143-96" x1="486.76" y1="116.44" x2="486.76" y2="53.48" xlink:href="#未命名的渐变_143"/><linearGradient id="未命名的渐变_143-97" x1="488.01" y1="116.44" x2="488.01" y2="53.48" xlink:href="#未命名的渐变_143"/><linearGradient id="未命名的渐变_143-98" x1="489.27" y1="116.44" x2="489.27" y2="53.48" xlink:href="#未命名的渐变_143"/><linearGradient id="未命名的渐变_143-99" x1="490.52" y1="116.44" x2="490.52" y2="53.48" xlink:href="#未命名的渐变_143"/><linearGradient id="未命名的渐变_143-100" x1="491.78" y1="116.44" x2="491.78" y2="53.48" xlink:href="#未命名的渐变_143"/><linearGradient id="未命名的渐变_143-101" x1="493.03" y1="116.44" x2="493.03" y2="53.48" xlink:href="#未命名的渐变_143"/><linearGradient id="未命名的渐变_143-102" x1="494.29" y1="116.44" x2="494.29" y2="53.48" xlink:href="#未命名的渐变_143"/><linearGradient id="未命名的渐变_143-103" x1="495.54" y1="116.44" x2="495.54" y2="53.48" xlink:href="#未命名的渐变_143"/><linearGradient id="未命名的渐变_143-104" x1="496.79" y1="116.44" x2="496.79" y2="53.48" xlink:href="#未命名的渐变_143"/><linearGradient id="未命名的渐变_143-105" x1="498.05" y1="116.44" x2="498.05" y2="53.48" xlink:href="#未命名的渐变_143"/><linearGradient id="未命名的渐变_143-106" x1="499.3" y1="116.44" x2="499.3" y2="53.48" xlink:href="#未命名的渐变_143"/><linearGradient id="未命名的渐变_143-107" x1="500.56" y1="116.44" x2="500.56" y2="53.48" xlink:href="#未命名的渐变_143"/><linearGradient id="未命名的渐变_143-108" x1="501.81" y1="116.44" x2="501.81" y2="53.48" xlink:href="#未命名的渐变_143"/><linearGradient id="未命名的渐变_143-109" x1="503.07" y1="116.44" x2="503.07" y2="53.48" xlink:href="#未命名的渐变_143"/><linearGradient id="未命名的渐变_143-110" x1="504.32" y1="116.44" x2="504.32" y2="53.48" xlink:href="#未命名的渐变_143"/><linearGradient id="未命名的渐变_143-111" x1="505.58" y1="116.44" x2="505.58" y2="53.48" xlink:href="#未命名的渐变_143"/><linearGradient id="未命名的渐变_143-112" x1="506.83" y1="116.44" x2="506.83" y2="53.48" xlink:href="#未命名的渐变_143"/><linearGradient id="未命名的渐变_143-113" x1="508.09" y1="116.44" x2="508.09" y2="53.48" xlink:href="#未命名的渐变_143"/><linearGradient id="未命名的渐变_143-114" x1="509.34" y1="116.44" x2="509.34" y2="53.48" xlink:href="#未命名的渐变_143"/><linearGradient id="未命名的渐变_143-115" x1="510.59" y1="116.44" x2="510.59" y2="53.48" xlink:href="#未命名的渐变_143"/><linearGradient id="未命名的渐变_143-116" x1="511.85" y1="116.44" x2="511.85" y2="53.48" xlink:href="#未命名的渐变_143"/><linearGradient id="未命名的渐变_143-117" x1="513.1" y1="116.44" x2="513.1" y2="53.48" xlink:href="#未命名的渐变_143"/><linearGradient id="未命名的渐变_143-118" x1="514.36" y1="116.44" x2="514.36" y2="53.48" xlink:href="#未命名的渐变_143"/><linearGradient id="未命名的渐变_143-119" x1="515.61" y1="116.44" x2="515.61" y2="53.48" xlink:href="#未命名的渐变_143"/><linearGradient id="未命名的渐变_143-120" x1="516.87" y1="116.44" x2="516.87" y2="53.48" xlink:href="#未命名的渐变_143"/></defs><title>iot-管道(21)</title><g id="图层_14" data-name="图层 14"><g class="cls-2"><circle class="cls-3" cx="31.48" cy="31.48" r="31.48"/><circle class="cls-4" cx="31.48" cy="32.74" r="31.48"/><circle class="cls-5" cx="31.48" cy="33.99" r="31.48"/><circle class="cls-6" cx="31.48" cy="35.24" r="31.48"/><circle class="cls-7" cx="31.48" cy="36.5" r="31.48"/><circle class="cls-8" cx="31.48" cy="37.75" r="31.48"/><circle class="cls-9" cx="31.48" cy="39.01" r="31.48"/><circle class="cls-10" cx="31.48" cy="40.26" r="31.48"/><circle class="cls-11" cx="31.48" cy="41.52" r="31.48"/><circle class="cls-12" cx="31.48" cy="42.77" r="31.48"/><circle class="cls-13" cx="31.48" cy="44.03" r="31.48"/><circle class="cls-14" cx="31.48" cy="45.28" r="31.48"/><circle class="cls-15" cx="31.48" cy="46.54" r="31.48"/><circle class="cls-16" cx="31.48" cy="47.79" r="31.48"/><circle class="cls-17" cx="31.48" cy="49.05" r="31.48"/><circle class="cls-18" cx="31.48" cy="50.3" r="31.48"/><circle class="cls-19" cx="31.48" cy="51.55" r="31.48"/><circle class="cls-20" cx="31.48" cy="52.81" r="31.48"/><circle class="cls-21" cx="31.48" cy="54.06" r="31.48"/><circle class="cls-22" cx="31.48" cy="55.32" r="31.48"/><circle class="cls-23" cx="31.48" cy="56.57" r="31.48"/><circle class="cls-24" cx="31.48" cy="57.83" r="31.48"/><circle class="cls-25" cx="31.48" cy="59.08" r="31.48"/><circle class="cls-26" cx="31.48" cy="60.34" r="31.48"/><circle class="cls-27" cx="31.48" cy="61.59" r="31.48"/><circle class="cls-28" cx="31.48" cy="62.85" r="31.48"/><circle class="cls-29" cx="31.48" cy="64.1" r="31.48"/><circle class="cls-30" cx="31.48" cy="65.35" r="31.48"/><circle class="cls-31" cx="31.48" cy="66.61" r="31.48"/><circle class="cls-32" cx="31.48" cy="67.86" r="31.48"/><circle class="cls-33" cx="31.48" cy="69.12" r="31.48"/><circle class="cls-34" cx="31.48" cy="70.37" r="31.48"/><circle class="cls-35" cx="31.48" cy="71.63" r="31.48"/><circle class="cls-36" cx="31.48" cy="72.88" r="31.48"/><circle class="cls-37" cx="31.48" cy="74.14" r="31.48"/><circle class="cls-38" cx="31.48" cy="75.39" r="31.48"/><circle class="cls-39" cx="31.48" cy="76.65" r="31.48"/><circle class="cls-40" cx="31.48" cy="77.9" r="31.48"/><circle class="cls-41" cx="31.48" cy="79.16" r="31.48"/><circle class="cls-42" cx="31.48" cy="80.41" r="31.48"/><circle class="cls-43" cx="31.48" cy="81.66" r="31.48"/><circle class="cls-44" cx="31.48" cy="82.92" r="31.48"/><circle class="cls-45" cx="31.48" cy="84.17" r="31.48"/><circle class="cls-46" cx="31.48" cy="85.43" r="31.48"/><circle class="cls-47" cx="31.48" cy="86.68" r="31.48"/><circle class="cls-48" cx="31.48" cy="87.94" r="31.48"/><circle class="cls-49" cx="31.48" cy="89.19" r="31.48"/><circle class="cls-50" cx="31.48" cy="90.45" r="31.48"/><circle class="cls-51" cx="31.48" cy="91.7" r="31.48"/><circle class="cls-52" cx="31.48" cy="92.96" r="31.48"/><circle class="cls-53" cx="31.48" cy="94.21" r="31.48"/><circle class="cls-54" cx="31.48" cy="95.46" r="31.48"/><circle class="cls-55" cx="31.48" cy="96.72" r="31.48"/><circle class="cls-56" cx="31.48" cy="97.97" r="31.48"/><circle class="cls-57" cx="31.48" cy="99.23" r="31.48"/><circle class="cls-58" cx="31.48" cy="100.48" r="31.48"/><circle class="cls-59" cx="31.48" cy="101.74" r="31.48"/><circle class="cls-60" cx="31.48" cy="102.99" r="31.48"/><circle class="cls-61" cx="31.48" cy="104.25" r="31.48"/><circle class="cls-62" cx="31.48" cy="105.5" r="31.48"/><circle class="cls-63" cx="31.48" cy="106.76" r="31.48"/><circle class="cls-64" cx="31.48" cy="108.01" r="31.48"/><circle class="cls-65" cx="31.48" cy="109.26" r="31.48"/><circle class="cls-66" cx="31.48" cy="110.52" r="31.48"/><circle class="cls-67" cx="31.48" cy="111.77" r="31.48"/><circle class="cls-68" cx="31.48" cy="113.03" r="31.48"/><circle class="cls-69" cx="31.48" cy="114.28" r="31.48"/><circle class="cls-70" cx="31.48" cy="115.54" r="31.48"/><circle class="cls-71" cx="31.48" cy="116.79" r="31.48"/><circle class="cls-72" cx="31.48" cy="118.05" r="31.48"/><circle class="cls-73" cx="31.48" cy="119.3" r="31.48"/><circle class="cls-74" cx="31.48" cy="120.56" r="31.48"/><circle class="cls-75" cx="31.48" cy="121.81" r="31.48"/><circle class="cls-76" cx="31.48" cy="123.07" r="31.48"/><circle class="cls-77" cx="31.48" cy="124.32" r="31.48"/><circle class="cls-78" cx="31.48" cy="125.57" r="31.48"/><circle class="cls-79" cx="31.48" cy="126.83" r="31.48"/><circle class="cls-80" cx="31.48" cy="128.08" r="31.48"/><circle class="cls-81" cx="31.48" cy="129.34" r="31.48"/><circle class="cls-82" cx="31.48" cy="130.59" r="31.48"/><circle class="cls-83" cx="31.48" cy="131.85" r="31.48"/><circle class="cls-84" cx="31.48" cy="133.1" r="31.48"/><circle class="cls-85" cx="31.48" cy="134.36" r="31.48"/><circle class="cls-86" cx="31.48" cy="135.61" r="31.48"/><circle class="cls-87" cx="31.48" cy="136.87" r="31.48"/><circle class="cls-88" cx="31.48" cy="138.12" r="31.48"/><circle class="cls-89" cx="31.48" cy="139.37" r="31.48"/><circle class="cls-90" cx="31.48" cy="140.63" r="31.48"/><circle class="cls-91" cx="31.48" cy="141.88" r="31.48"/><circle class="cls-92" cx="31.48" cy="143.14" r="31.48"/><circle class="cls-93" cx="31.48" cy="144.39" r="31.48"/><circle class="cls-94" cx="31.48" cy="145.65" r="31.48"/><circle class="cls-95" cx="31.48" cy="146.9" r="31.48"/><circle class="cls-96" cx="31.48" cy="148.16" r="31.48"/><circle class="cls-97" cx="31.48" cy="149.41" r="31.48"/><circle class="cls-98" cx="31.48" cy="150.67" r="31.48"/><circle class="cls-99" cx="31.48" cy="151.92" r="31.48"/><circle class="cls-100" cx="31.48" cy="153.18" r="31.48"/><circle class="cls-101" cx="31.48" cy="154.43" r="31.48"/><circle class="cls-102" cx="31.48" cy="155.68" r="31.48"/><circle class="cls-103" cx="31.48" cy="156.94" r="31.48"/><circle class="cls-104" cx="31.48" cy="158.19" r="31.48"/><circle class="cls-105" cx="31.48" cy="159.45" r="31.48"/><circle class="cls-106" cx="31.48" cy="160.7" r="31.48"/><circle class="cls-107" cx="31.48" cy="161.96" r="31.48"/><circle class="cls-108" cx="31.48" cy="163.21" r="31.48"/><circle class="cls-109" cx="31.48" cy="164.47" r="31.48"/><circle class="cls-110" cx="31.48" cy="165.72" r="31.48"/><circle class="cls-111" cx="31.48" cy="166.98" r="31.48"/><circle class="cls-112" cx="31.48" cy="168.23" r="31.48"/><circle class="cls-113" cx="31.48" cy="169.48" r="31.48"/><circle class="cls-114" cx="31.48" cy="170.74" r="31.48"/><circle class="cls-115" cx="31.48" cy="171.99" r="31.48"/><circle class="cls-116" cx="31.48" cy="173.25" r="31.48"/><circle class="cls-117" cx="31.48" cy="174.5" r="31.48"/><circle class="cls-118" cx="31.48" cy="175.76" r="31.48"/><circle class="cls-119" cx="31.48" cy="177.01" r="31.48"/><circle class="cls-120" cx="31.48" cy="178.27" r="31.48"/><circle class="cls-121" cx="31.48" cy="179.52" r="31.48"/><circle class="cls-122" cx="31.48" cy="180.78" r="31.48"/></g></g><g id="图层_21" data-name="图层 21"></g></svg>