<svg xmlns="http://www.w3.org/2000/svg" xmlns:xlink="http://www.w3.org/1999/xlink" viewBox="0 0 61.71 150"><defs><style>.cls-1{fill:none;}.cls-2{clip-path:url(#clip-path);}.cls-3{fill:url(#未命名的渐变_143);}.cls-4{fill:url(#未命名的渐变_143-2);}.cls-5{fill:url(#未命名的渐变_143-3);}.cls-6{fill:url(#未命名的渐变_143-4);}.cls-7{fill:url(#未命名的渐变_143-5);}.cls-8{fill:url(#未命名的渐变_143-6);}.cls-9{fill:url(#未命名的渐变_143-7);}.cls-10{fill:url(#未命名的渐变_143-8);}.cls-11{fill:url(#未命名的渐变_143-9);}.cls-12{fill:url(#未命名的渐变_143-10);}.cls-13{fill:url(#未命名的渐变_143-11);}.cls-14{fill:url(#未命名的渐变_143-12);}.cls-15{fill:url(#未命名的渐变_143-13);}.cls-16{fill:url(#未命名的渐变_143-14);}.cls-17{fill:url(#未命名的渐变_143-15);}.cls-18{fill:url(#未命名的渐变_143-16);}.cls-19{fill:url(#未命名的渐变_143-17);}.cls-20{fill:url(#未命名的渐变_143-18);}.cls-21{fill:url(#未命名的渐变_143-19);}.cls-22{fill:url(#未命名的渐变_143-20);}.cls-23{fill:url(#未命名的渐变_143-21);}.cls-24{fill:url(#未命名的渐变_143-22);}.cls-25{fill:url(#未命名的渐变_143-23);}.cls-26{fill:url(#未命名的渐变_143-24);}.cls-27{fill:url(#未命名的渐变_143-25);}.cls-28{fill:url(#未命名的渐变_143-26);}.cls-29{fill:url(#未命名的渐变_143-27);}.cls-30{fill:url(#未命名的渐变_143-28);}.cls-31{fill:url(#未命名的渐变_143-29);}.cls-32{fill:url(#未命名的渐变_143-30);}.cls-33{fill:url(#未命名的渐变_143-31);}.cls-34{fill:url(#未命名的渐变_143-32);}.cls-35{fill:url(#未命名的渐变_143-33);}.cls-36{fill:url(#未命名的渐变_143-34);}.cls-37{fill:url(#未命名的渐变_143-35);}.cls-38{fill:url(#未命名的渐变_143-36);}.cls-39{fill:url(#未命名的渐变_143-37);}.cls-40{fill:url(#未命名的渐变_143-38);}.cls-41{fill:url(#未命名的渐变_143-39);}.cls-42{fill:url(#未命名的渐变_143-40);}.cls-43{fill:url(#未命名的渐变_143-41);}.cls-44{fill:url(#未命名的渐变_143-42);}.cls-45{fill:url(#未命名的渐变_143-43);}.cls-46{fill:url(#未命名的渐变_143-44);}.cls-47{fill:url(#未命名的渐变_143-45);}.cls-48{fill:url(#未命名的渐变_143-46);}.cls-49{fill:url(#未命名的渐变_143-47);}.cls-50{fill:url(#未命名的渐变_143-48);}.cls-51{fill:url(#未命名的渐变_143-49);}.cls-52{fill:url(#未命名的渐变_143-50);}.cls-53{fill:url(#未命名的渐变_143-51);}.cls-54{fill:url(#未命名的渐变_143-52);}.cls-55{fill:url(#未命名的渐变_143-53);}.cls-56{fill:url(#未命名的渐变_143-54);}.cls-57{fill:url(#未命名的渐变_143-55);}.cls-58{fill:url(#未命名的渐变_143-56);}.cls-59{fill:url(#未命名的渐变_143-57);}.cls-60{fill:url(#未命名的渐变_143-58);}.cls-61{fill:url(#未命名的渐变_143-59);}.cls-62{fill:url(#未命名的渐变_143-60);}.cls-63{fill:url(#未命名的渐变_143-61);}.cls-64{fill:url(#未命名的渐变_143-62);}.cls-65{fill:url(#未命名的渐变_143-63);}.cls-66{fill:url(#未命名的渐变_143-64);}.cls-67{fill:url(#未命名的渐变_143-65);}.cls-68{fill:url(#未命名的渐变_143-66);}.cls-69{fill:url(#未命名的渐变_143-67);}.cls-70{fill:url(#未命名的渐变_143-68);}.cls-71{fill:url(#未命名的渐变_143-69);}.cls-72{fill:url(#未命名的渐变_143-70);}.cls-73{fill:url(#未命名的渐变_143-71);}.cls-74{fill:url(#未命名的渐变_143-72);}.cls-75{fill:url(#未命名的渐变_143-73);}.cls-76{fill:url(#未命名的渐变_143-74);}.cls-77{fill:url(#未命名的渐变_143-75);}.cls-78{fill:url(#未命名的渐变_143-76);}.cls-79{fill:url(#未命名的渐变_143-77);}.cls-80{fill:url(#未命名的渐变_143-78);}.cls-81{fill:url(#未命名的渐变_143-79);}.cls-82{fill:url(#未命名的渐变_143-80);}.cls-83{fill:url(#未命名的渐变_143-81);}.cls-84{fill:url(#未命名的渐变_143-82);}.cls-85{fill:url(#未命名的渐变_143-83);}.cls-86{fill:url(#未命名的渐变_143-84);}.cls-87{fill:url(#未命名的渐变_143-85);}.cls-88{fill:url(#未命名的渐变_143-86);}.cls-89{fill:url(#未命名的渐变_143-87);}.cls-90{fill:url(#未命名的渐变_143-88);}.cls-91{fill:url(#未命名的渐变_143-89);}.cls-92{fill:url(#未命名的渐变_143-90);}.cls-93{fill:url(#未命名的渐变_143-91);}.cls-94{fill:url(#未命名的渐变_143-92);}.cls-95{fill:url(#未命名的渐变_143-93);}.cls-96{fill:url(#未命名的渐变_143-94);}.cls-97{fill:url(#未命名的渐变_143-95);}.cls-98{fill:url(#未命名的渐变_143-96);}.cls-99{fill:url(#未命名的渐变_143-97);}.cls-100{fill:url(#未命名的渐变_143-98);}.cls-101{fill:url(#未命名的渐变_143-99);}.cls-102{fill:url(#未命名的渐变_143-100);}.cls-103{fill:url(#未命名的渐变_143-101);}.cls-104{fill:url(#未命名的渐变_143-102);}.cls-105{fill:url(#未命名的渐变_143-103);}.cls-106{fill:url(#未命名的渐变_143-104);}.cls-107{fill:url(#未命名的渐变_143-105);}.cls-108{fill:url(#未命名的渐变_143-106);}.cls-109{fill:url(#未命名的渐变_143-107);}.cls-110{fill:url(#未命名的渐变_143-108);}.cls-111{fill:url(#未命名的渐变_143-109);}.cls-112{fill:url(#未命名的渐变_143-110);}.cls-113{fill:url(#未命名的渐变_143-111);}.cls-114{fill:url(#未命名的渐变_143-112);}.cls-115{fill:url(#未命名的渐变_143-113);}.cls-116{fill:url(#未命名的渐变_143-114);}.cls-117{fill:url(#未命名的渐变_143-115);}.cls-118{fill:url(#未命名的渐变_143-116);}.cls-119{fill:url(#未命名的渐变_143-117);}.cls-120{fill:url(#未命名的渐变_143-118);}.cls-121{fill:url(#未命名的渐变_143-119);}.cls-122{fill:url(#未命名的渐变_143-120);}.cls-123{fill:url(#未命名的渐变_143-121);}.cls-124{fill:url(#未命名的渐变_143-122);}.cls-125{fill:url(#未命名的渐变_143-123);}.cls-126{fill:url(#未命名的渐变_143-124);}.cls-127{fill:url(#未命名的渐变_143-125);}.cls-128{fill:url(#未命名的渐变_143-126);}.cls-129{fill:url(#未命名的渐变_143-127);}.cls-130{opacity:0.2;}</style><clipPath id="clip-path"><rect class="cls-1" x="-0.85" width="62.56" height="149.05"/></clipPath><linearGradient id="未命名的渐变_143" x1="-232.18" y1="-278.68" x2="-232.18" y2="-340.39" gradientTransform="matrix(0, 1, 1, 0, 340.39, 232.18)" gradientUnits="userSpaceOnUse"><stop offset="0" stop-color="#b7b7b7"/><stop offset="0.03" stop-color="#9b9d9d"/><stop offset="0.07" stop-color="#878b8b"/><stop offset="0.09" stop-color="#808484"/><stop offset="0.2" stop-color="#a3a6a6"/><stop offset="0.49" stop-color="#f6f6f6"/><stop offset="0.61" stop-color="#f3f3f3"/><stop offset="0.7" stop-color="#eaeaea"/><stop offset="0.77" stop-color="#dbdbdb"/><stop offset="0.83" stop-color="#c5c5c5"/><stop offset="0.9" stop-color="#aaa"/><stop offset="0.95" stop-color="#888"/><stop offset="1" stop-color="#666"/></linearGradient><linearGradient id="未命名的渐变_143-2" x1="-230.95" y1="-278.68" x2="-230.95" y2="-340.39" xlink:href="#未命名的渐变_143"/><linearGradient id="未命名的渐变_143-3" x1="-229.72" y1="-278.68" x2="-229.72" y2="-340.39" xlink:href="#未命名的渐变_143"/><linearGradient id="未命名的渐变_143-4" x1="-228.49" y1="-278.68" x2="-228.49" y2="-340.39" xlink:href="#未命名的渐变_143"/><linearGradient id="未命名的渐变_143-5" x1="-227.26" y1="-278.68" x2="-227.26" y2="-340.39" xlink:href="#未命名的渐变_143"/><linearGradient id="未命名的渐变_143-6" x1="-226.03" y1="-278.68" x2="-226.03" y2="-340.39" xlink:href="#未命名的渐变_143"/><linearGradient id="未命名的渐变_143-7" x1="-224.8" y1="-278.68" x2="-224.8" y2="-340.39" xlink:href="#未命名的渐变_143"/><linearGradient id="未命名的渐变_143-8" x1="-223.57" y1="-278.68" x2="-223.57" y2="-340.39" xlink:href="#未命名的渐变_143"/><linearGradient id="未命名的渐变_143-9" x1="-222.34" y1="-278.68" x2="-222.34" y2="-340.39" xlink:href="#未命名的渐变_143"/><linearGradient id="未命名的渐变_143-10" x1="-221.11" y1="-278.68" x2="-221.11" y2="-340.39" xlink:href="#未命名的渐变_143"/><linearGradient id="未命名的渐变_143-11" x1="-219.88" y1="-278.68" x2="-219.88" y2="-340.39" xlink:href="#未命名的渐变_143"/><linearGradient id="未命名的渐变_143-12" x1="-218.65" y1="-278.68" x2="-218.65" y2="-340.39" xlink:href="#未命名的渐变_143"/><linearGradient id="未命名的渐变_143-13" x1="-217.42" y1="-278.68" x2="-217.42" y2="-340.39" xlink:href="#未命名的渐变_143"/><linearGradient id="未命名的渐变_143-14" x1="-216.19" y1="-278.68" x2="-216.19" y2="-340.39" xlink:href="#未命名的渐变_143"/><linearGradient id="未命名的渐变_143-15" x1="-214.96" y1="-278.68" x2="-214.96" y2="-340.39" xlink:href="#未命名的渐变_143"/><linearGradient id="未命名的渐变_143-16" x1="-213.73" y1="-278.68" x2="-213.73" y2="-340.39" xlink:href="#未命名的渐变_143"/><linearGradient id="未命名的渐变_143-17" x1="-212.5" y1="-278.68" x2="-212.5" y2="-340.39" xlink:href="#未命名的渐变_143"/><linearGradient id="未命名的渐变_143-18" x1="-211.27" y1="-278.68" x2="-211.27" y2="-340.39" xlink:href="#未命名的渐变_143"/><linearGradient id="未命名的渐变_143-19" x1="-210.04" y1="-278.68" x2="-210.04" y2="-340.39" xlink:href="#未命名的渐变_143"/><linearGradient id="未命名的渐变_143-20" x1="-208.81" y1="-278.68" x2="-208.81" y2="-340.39" xlink:href="#未命名的渐变_143"/><linearGradient id="未命名的渐变_143-21" x1="-207.58" y1="-278.68" x2="-207.58" y2="-340.39" xlink:href="#未命名的渐变_143"/><linearGradient id="未命名的渐变_143-22" x1="-206.35" y1="-278.68" x2="-206.35" y2="-340.39" xlink:href="#未命名的渐变_143"/><linearGradient id="未命名的渐变_143-23" x1="-205.12" y1="-278.68" x2="-205.12" y2="-340.39" xlink:href="#未命名的渐变_143"/><linearGradient id="未命名的渐变_143-24" x1="-203.89" y1="-278.68" x2="-203.89" y2="-340.39" xlink:href="#未命名的渐变_143"/><linearGradient id="未命名的渐变_143-25" x1="-202.67" y1="-278.68" x2="-202.67" y2="-340.39" xlink:href="#未命名的渐变_143"/><linearGradient id="未命名的渐变_143-26" x1="-201.44" y1="-278.68" x2="-201.44" y2="-340.39" xlink:href="#未命名的渐变_143"/><linearGradient id="未命名的渐变_143-27" x1="-200.21" y1="-278.68" x2="-200.21" y2="-340.39" xlink:href="#未命名的渐变_143"/><linearGradient id="未命名的渐变_143-28" x1="-198.98" y1="-278.68" x2="-198.98" y2="-340.39" xlink:href="#未命名的渐变_143"/><linearGradient id="未命名的渐变_143-29" x1="-197.75" y1="-278.68" x2="-197.75" y2="-340.39" xlink:href="#未命名的渐变_143"/><linearGradient id="未命名的渐变_143-30" x1="-196.52" y1="-278.68" x2="-196.52" y2="-340.39" xlink:href="#未命名的渐变_143"/><linearGradient id="未命名的渐变_143-31" x1="-195.29" y1="-278.68" x2="-195.29" y2="-340.39" xlink:href="#未命名的渐变_143"/><linearGradient id="未命名的渐变_143-32" x1="-194.06" y1="-278.68" x2="-194.06" y2="-340.39" xlink:href="#未命名的渐变_143"/><linearGradient id="未命名的渐变_143-33" x1="-192.83" y1="-278.68" x2="-192.83" y2="-340.39" xlink:href="#未命名的渐变_143"/><linearGradient id="未命名的渐变_143-34" x1="-191.6" y1="-278.68" x2="-191.6" y2="-340.39" xlink:href="#未命名的渐变_143"/><linearGradient id="未命名的渐变_143-35" x1="-190.37" y1="-278.68" x2="-190.37" y2="-340.39" xlink:href="#未命名的渐变_143"/><linearGradient id="未命名的渐变_143-36" x1="-189.14" y1="-278.68" x2="-189.14" y2="-340.39" xlink:href="#未命名的渐变_143"/><linearGradient id="未命名的渐变_143-37" x1="-187.91" y1="-278.68" x2="-187.91" y2="-340.39" xlink:href="#未命名的渐变_143"/><linearGradient id="未命名的渐变_143-38" x1="-186.68" y1="-278.68" x2="-186.68" y2="-340.39" xlink:href="#未命名的渐变_143"/><linearGradient id="未命名的渐变_143-39" x1="-185.45" y1="-278.68" x2="-185.45" y2="-340.39" xlink:href="#未命名的渐变_143"/><linearGradient id="未命名的渐变_143-40" x1="-184.22" y1="-278.68" x2="-184.22" y2="-340.39" xlink:href="#未命名的渐变_143"/><linearGradient id="未命名的渐变_143-41" x1="-182.99" y1="-278.68" x2="-182.99" y2="-340.39" xlink:href="#未命名的渐变_143"/><linearGradient id="未命名的渐变_143-42" x1="-181.76" y1="-278.68" x2="-181.76" y2="-340.39" xlink:href="#未命名的渐变_143"/><linearGradient id="未命名的渐变_143-43" x1="-180.53" y1="-278.68" x2="-180.53" y2="-340.39" xlink:href="#未命名的渐变_143"/><linearGradient id="未命名的渐变_143-44" x1="-179.3" y1="-278.68" x2="-179.3" y2="-340.39" xlink:href="#未命名的渐变_143"/><linearGradient id="未命名的渐变_143-45" x1="-178.07" y1="-278.68" x2="-178.07" y2="-340.39" xlink:href="#未命名的渐变_143"/><linearGradient id="未命名的渐变_143-46" x1="-176.84" y1="-278.68" x2="-176.84" y2="-340.39" xlink:href="#未命名的渐变_143"/><linearGradient id="未命名的渐变_143-47" x1="-175.61" y1="-278.68" x2="-175.61" y2="-340.39" xlink:href="#未命名的渐变_143"/><linearGradient id="未命名的渐变_143-48" x1="-174.38" y1="-278.68" x2="-174.38" y2="-340.39" xlink:href="#未命名的渐变_143"/><linearGradient id="未命名的渐变_143-49" x1="-173.15" y1="-278.68" x2="-173.15" y2="-340.39" xlink:href="#未命名的渐变_143"/><linearGradient id="未命名的渐变_143-50" x1="-171.92" y1="-278.68" x2="-171.92" y2="-340.39" xlink:href="#未命名的渐变_143"/><linearGradient id="未命名的渐变_143-51" x1="-170.69" y1="-278.68" x2="-170.69" y2="-340.39" xlink:href="#未命名的渐变_143"/><linearGradient id="未命名的渐变_143-52" x1="-169.46" y1="-278.68" x2="-169.46" y2="-340.39" xlink:href="#未命名的渐变_143"/><linearGradient id="未命名的渐变_143-53" x1="-168.24" y1="-278.68" x2="-168.24" y2="-340.39" xlink:href="#未命名的渐变_143"/><linearGradient id="未命名的渐变_143-54" x1="-167.01" y1="-278.68" x2="-167.01" y2="-340.39" xlink:href="#未命名的渐变_143"/><linearGradient id="未命名的渐变_143-55" x1="-165.78" y1="-278.68" x2="-165.78" y2="-340.39" xlink:href="#未命名的渐变_143"/><linearGradient id="未命名的渐变_143-56" x1="-164.55" y1="-278.68" x2="-164.55" y2="-340.39" xlink:href="#未命名的渐变_143"/><linearGradient id="未命名的渐变_143-57" x1="-163.32" y1="-278.68" x2="-163.32" y2="-340.39" xlink:href="#未命名的渐变_143"/><linearGradient id="未命名的渐变_143-58" x1="-162.09" y1="-278.68" x2="-162.09" y2="-340.39" xlink:href="#未命名的渐变_143"/><linearGradient id="未命名的渐变_143-59" x1="-160.86" y1="-278.68" x2="-160.86" y2="-340.39" xlink:href="#未命名的渐变_143"/><linearGradient id="未命名的渐变_143-60" x1="-159.63" y1="-278.68" x2="-159.63" y2="-340.39" xlink:href="#未命名的渐变_143"/><linearGradient id="未命名的渐变_143-61" x1="-158.4" y1="-278.68" x2="-158.4" y2="-340.39" xlink:href="#未命名的渐变_143"/><linearGradient id="未命名的渐变_143-62" x1="-157.17" y1="-278.68" x2="-157.17" y2="-340.39" xlink:href="#未命名的渐变_143"/><linearGradient id="未命名的渐变_143-63" x1="-155.94" y1="-278.68" x2="-155.94" y2="-340.39" xlink:href="#未命名的渐变_143"/><linearGradient id="未命名的渐变_143-64" x1="-154.71" y1="-278.68" x2="-154.71" y2="-340.39" xlink:href="#未命名的渐变_143"/><linearGradient id="未命名的渐变_143-65" x1="-153.48" y1="-278.68" x2="-153.48" y2="-340.39" xlink:href="#未命名的渐变_143"/><linearGradient id="未命名的渐变_143-66" x1="-152.25" y1="-278.68" x2="-152.25" y2="-340.39" xlink:href="#未命名的渐变_143"/><linearGradient id="未命名的渐变_143-67" x1="-151.02" y1="-278.68" x2="-151.02" y2="-340.39" xlink:href="#未命名的渐变_143"/><linearGradient id="未命名的渐变_143-68" x1="-149.79" y1="-278.68" x2="-149.79" y2="-340.39" xlink:href="#未命名的渐变_143"/><linearGradient id="未命名的渐变_143-69" x1="-148.56" y1="-278.68" x2="-148.56" y2="-340.39" xlink:href="#未命名的渐变_143"/><linearGradient id="未命名的渐变_143-70" x1="-147.33" y1="-278.68" x2="-147.33" y2="-340.39" xlink:href="#未命名的渐变_143"/><linearGradient id="未命名的渐变_143-71" x1="-146.1" y1="-278.68" x2="-146.1" y2="-340.39" xlink:href="#未命名的渐变_143"/><linearGradient id="未命名的渐变_143-72" x1="-144.87" y1="-278.68" x2="-144.87" y2="-340.39" xlink:href="#未命名的渐变_143"/><linearGradient id="未命名的渐变_143-73" x1="-143.64" y1="-278.68" x2="-143.64" y2="-340.39" xlink:href="#未命名的渐变_143"/><linearGradient id="未命名的渐变_143-74" x1="-142.41" y1="-278.68" x2="-142.41" y2="-340.39" xlink:href="#未命名的渐变_143"/><linearGradient id="未命名的渐变_143-75" x1="-141.18" y1="-278.68" x2="-141.18" y2="-340.39" xlink:href="#未命名的渐变_143"/><linearGradient id="未命名的渐变_143-76" x1="-139.95" y1="-278.68" x2="-139.95" y2="-340.39" xlink:href="#未命名的渐变_143"/><linearGradient id="未命名的渐变_143-77" x1="-138.72" y1="-278.68" x2="-138.72" y2="-340.39" xlink:href="#未命名的渐变_143"/><linearGradient id="未命名的渐变_143-78" x1="-137.49" y1="-278.68" x2="-137.49" y2="-340.39" xlink:href="#未命名的渐变_143"/><linearGradient id="未命名的渐变_143-79" x1="-136.26" y1="-278.68" x2="-136.26" y2="-340.39" xlink:href="#未命名的渐变_143"/><linearGradient id="未命名的渐变_143-80" x1="-135.04" y1="-278.68" x2="-135.04" y2="-340.39" xlink:href="#未命名的渐变_143"/><linearGradient id="未命名的渐变_143-81" x1="-133.81" y1="-278.68" x2="-133.81" y2="-340.39" xlink:href="#未命名的渐变_143"/><linearGradient id="未命名的渐变_143-82" x1="-132.58" y1="-278.68" x2="-132.58" y2="-340.39" xlink:href="#未命名的渐变_143"/><linearGradient id="未命名的渐变_143-83" x1="-131.35" y1="-278.68" x2="-131.35" y2="-340.39" xlink:href="#未命名的渐变_143"/><linearGradient id="未命名的渐变_143-84" x1="-130.12" y1="-278.68" x2="-130.12" y2="-340.39" xlink:href="#未命名的渐变_143"/><linearGradient id="未命名的渐变_143-85" x1="-128.89" y1="-278.68" x2="-128.89" y2="-340.39" xlink:href="#未命名的渐变_143"/><linearGradient id="未命名的渐变_143-86" x1="-127.66" y1="-278.68" x2="-127.66" y2="-340.39" xlink:href="#未命名的渐变_143"/><linearGradient id="未命名的渐变_143-87" x1="-126.43" y1="-278.68" x2="-126.43" y2="-340.39" xlink:href="#未命名的渐变_143"/><linearGradient id="未命名的渐变_143-88" x1="-125.2" y1="-278.68" x2="-125.2" y2="-340.39" xlink:href="#未命名的渐变_143"/><linearGradient id="未命名的渐变_143-89" x1="-123.97" y1="-278.68" x2="-123.97" y2="-340.39" xlink:href="#未命名的渐变_143"/><linearGradient id="未命名的渐变_143-90" x1="-122.74" y1="-278.68" x2="-122.74" y2="-340.39" xlink:href="#未命名的渐变_143"/><linearGradient id="未命名的渐变_143-91" x1="-121.51" y1="-278.68" x2="-121.51" y2="-340.39" xlink:href="#未命名的渐变_143"/><linearGradient id="未命名的渐变_143-92" x1="-120.28" y1="-278.68" x2="-120.28" y2="-340.39" xlink:href="#未命名的渐变_143"/><linearGradient id="未命名的渐变_143-93" x1="-119.05" y1="-278.68" x2="-119.05" y2="-340.39" xlink:href="#未命名的渐变_143"/><linearGradient id="未命名的渐变_143-94" x1="-117.82" y1="-278.68" x2="-117.82" y2="-340.39" xlink:href="#未命名的渐变_143"/><linearGradient id="未命名的渐变_143-95" x1="-116.59" y1="-278.68" x2="-116.59" y2="-340.39" xlink:href="#未命名的渐变_143"/><linearGradient id="未命名的渐变_143-96" x1="-115.36" y1="-278.68" x2="-115.36" y2="-340.39" xlink:href="#未命名的渐变_143"/><linearGradient id="未命名的渐变_143-97" x1="-114.13" y1="-278.68" x2="-114.13" y2="-340.39" xlink:href="#未命名的渐变_143"/><linearGradient id="未命名的渐变_143-98" x1="-112.9" y1="-278.68" x2="-112.9" y2="-340.39" xlink:href="#未命名的渐变_143"/><linearGradient id="未命名的渐变_143-99" x1="-111.67" y1="-278.68" x2="-111.67" y2="-340.39" xlink:href="#未命名的渐变_143"/><linearGradient id="未命名的渐变_143-100" x1="-110.44" y1="-278.68" x2="-110.44" y2="-340.39" xlink:href="#未命名的渐变_143"/><linearGradient id="未命名的渐变_143-101" x1="-109.21" y1="-278.68" x2="-109.21" y2="-340.39" xlink:href="#未命名的渐变_143"/><linearGradient id="未命名的渐变_143-102" x1="-107.98" y1="-278.68" x2="-107.98" y2="-340.39" xlink:href="#未命名的渐变_143"/><linearGradient id="未命名的渐变_143-103" x1="-106.75" y1="-278.68" x2="-106.75" y2="-340.39" xlink:href="#未命名的渐变_143"/><linearGradient id="未命名的渐变_143-104" x1="-105.52" y1="-278.68" x2="-105.52" y2="-340.39" xlink:href="#未命名的渐变_143"/><linearGradient id="未命名的渐变_143-105" x1="-104.29" y1="-278.68" x2="-104.29" y2="-340.39" xlink:href="#未命名的渐变_143"/><linearGradient id="未命名的渐变_143-106" x1="-103.06" y1="-278.68" x2="-103.06" y2="-340.39" xlink:href="#未命名的渐变_143"/><linearGradient id="未命名的渐变_143-107" x1="-101.83" y1="-278.68" x2="-101.83" y2="-340.39" xlink:href="#未命名的渐变_143"/><linearGradient id="未命名的渐变_143-108" x1="-100.61" y1="-278.68" x2="-100.61" y2="-340.39" xlink:href="#未命名的渐变_143"/><linearGradient id="未命名的渐变_143-109" x1="-99.38" y1="-278.68" x2="-99.38" y2="-340.39" xlink:href="#未命名的渐变_143"/><linearGradient id="未命名的渐变_143-110" x1="-98.15" y1="-278.68" x2="-98.15" y2="-340.39" xlink:href="#未命名的渐变_143"/><linearGradient id="未命名的渐变_143-111" x1="-96.92" y1="-278.68" x2="-96.92" y2="-340.39" xlink:href="#未命名的渐变_143"/><linearGradient id="未命名的渐变_143-112" x1="-95.69" y1="-278.68" x2="-95.69" y2="-340.39" xlink:href="#未命名的渐变_143"/><linearGradient id="未命名的渐变_143-113" x1="-94.46" y1="-278.68" x2="-94.46" y2="-340.39" xlink:href="#未命名的渐变_143"/><linearGradient id="未命名的渐变_143-114" x1="-93.23" y1="-278.68" x2="-93.23" y2="-340.39" xlink:href="#未命名的渐变_143"/><linearGradient id="未命名的渐变_143-115" x1="-92" y1="-278.68" x2="-92" y2="-340.39" xlink:href="#未命名的渐变_143"/><linearGradient id="未命名的渐变_143-116" x1="-90.77" y1="-278.68" x2="-90.77" y2="-340.39" xlink:href="#未命名的渐变_143"/><linearGradient id="未命名的渐变_143-117" x1="-89.54" y1="-278.68" x2="-89.54" y2="-340.39" xlink:href="#未命名的渐变_143"/><linearGradient id="未命名的渐变_143-118" x1="-88.31" y1="-278.68" x2="-88.31" y2="-340.39" xlink:href="#未命名的渐变_143"/><linearGradient id="未命名的渐变_143-119" x1="-87.08" y1="-278.68" x2="-87.08" y2="-340.39" xlink:href="#未命名的渐变_143"/><linearGradient id="未命名的渐变_143-120" x1="-85.85" y1="-278.68" x2="-85.85" y2="-340.39" xlink:href="#未命名的渐变_143"/><linearGradient id="未命名的渐变_143-121" x1="-84.62" y1="-278.68" x2="-84.62" y2="-340.39" xlink:href="#未命名的渐变_143"/><linearGradient id="未命名的渐变_143-122" x1="-83.39" y1="-278.68" x2="-83.39" y2="-340.39" xlink:href="#未命名的渐变_143"/><linearGradient id="未命名的渐变_143-123" x1="-82.16" y1="-278.68" x2="-82.16" y2="-340.39" xlink:href="#未命名的渐变_143"/><linearGradient id="未命名的渐变_143-124" x1="-80.93" y1="-278.68" x2="-80.93" y2="-340.39" xlink:href="#未命名的渐变_143"/><linearGradient id="未命名的渐变_143-125" x1="-79.7" y1="-278.68" x2="-79.7" y2="-340.39" xlink:href="#未命名的渐变_143"/><linearGradient id="未命名的渐变_143-126" x1="-78.47" y1="-278.68" x2="-78.47" y2="-340.39" xlink:href="#未命名的渐变_143"/><linearGradient id="未命名的渐变_143-127" x1="-77.24" y1="-278.68" x2="-77.24" y2="-340.39" xlink:href="#未命名的渐变_143"/></defs><title>iot-管道(21)</title><g id="图层_16" data-name="图层 16"><g class="cls-2"><circle class="cls-3" cx="30.85" r="30.86"/><circle class="cls-4" cx="30.85" cy="1.23" r="30.86"/><circle class="cls-5" cx="30.85" cy="2.46" r="30.86"/><circle class="cls-6" cx="30.85" cy="3.69" r="30.86"/><circle class="cls-7" cx="30.85" cy="4.92" r="30.86"/><circle class="cls-8" cx="30.85" cy="6.15" r="30.86"/><circle class="cls-9" cx="30.85" cy="7.38" r="30.86"/><circle class="cls-10" cx="30.85" cy="8.61" r="30.86"/><circle class="cls-11" cx="30.85" cy="9.84" r="30.86"/><circle class="cls-12" cx="30.85" cy="11.07" r="30.86"/><circle class="cls-13" cx="30.85" cy="12.3" r="30.86"/><circle class="cls-14" cx="30.85" cy="13.53" r="30.86"/><circle class="cls-15" cx="30.85" cy="14.76" r="30.86"/><circle class="cls-16" cx="30.85" cy="15.99" r="30.86"/><circle class="cls-17" cx="30.85" cy="17.21" r="30.86"/><circle class="cls-18" cx="30.85" cy="18.44" r="30.86"/><circle class="cls-19" cx="30.85" cy="19.67" r="30.86"/><circle class="cls-20" cx="30.85" cy="20.9" r="30.86"/><circle class="cls-21" cx="30.85" cy="22.13" r="30.86"/><circle class="cls-22" cx="30.85" cy="23.36" r="30.86"/><circle class="cls-23" cx="30.85" cy="24.59" r="30.86"/><circle class="cls-24" cx="30.85" cy="25.82" r="30.86"/><circle class="cls-25" cx="30.85" cy="27.05" r="30.86"/><circle class="cls-26" cx="30.85" cy="28.28" r="30.86"/><circle class="cls-27" cx="30.85" cy="29.51" r="30.86"/><circle class="cls-28" cx="30.85" cy="30.74" r="30.86"/><circle class="cls-29" cx="30.85" cy="31.97" r="30.86"/><circle class="cls-30" cx="30.85" cy="33.2" r="30.86"/><circle class="cls-31" cx="30.85" cy="34.43" r="30.86"/><circle class="cls-32" cx="30.85" cy="35.66" r="30.86"/><circle class="cls-33" cx="30.85" cy="36.89" r="30.86"/><circle class="cls-34" cx="30.85" cy="38.12" r="30.86"/><circle class="cls-35" cx="30.85" cy="39.35" r="30.86"/><circle class="cls-36" cx="30.85" cy="40.58" r="30.86"/><circle class="cls-37" cx="30.85" cy="41.81" r="30.86"/><circle class="cls-38" cx="30.85" cy="43.04" r="30.86"/><circle class="cls-39" cx="30.85" cy="44.27" r="30.86"/><circle class="cls-40" cx="30.85" cy="45.5" r="30.86"/><circle class="cls-41" cx="30.85" cy="46.73" r="30.86"/><circle class="cls-42" cx="30.85" cy="47.96" r="30.86"/><circle class="cls-43" cx="30.85" cy="49.19" r="30.86"/><circle class="cls-44" cx="30.85" cy="50.42" r="30.86"/><circle class="cls-45" cx="30.85" cy="51.64" r="30.86"/><circle class="cls-46" cx="30.85" cy="52.87" r="30.86"/><circle class="cls-47" cx="30.85" cy="54.1" r="30.86"/><circle class="cls-48" cx="30.85" cy="55.33" r="30.86"/><circle class="cls-49" cx="30.85" cy="56.56" r="30.86"/><circle class="cls-50" cx="30.85" cy="57.79" r="30.86"/><circle class="cls-51" cx="30.85" cy="59.02" r="30.86"/><circle class="cls-52" cx="30.85" cy="60.25" r="30.86"/><circle class="cls-53" cx="30.85" cy="61.48" r="30.86"/><circle class="cls-54" cx="30.85" cy="62.71" r="30.86"/><circle class="cls-55" cx="30.85" cy="63.94" r="30.86"/><circle class="cls-56" cx="30.85" cy="65.17" r="30.86"/><circle class="cls-57" cx="30.85" cy="66.4" r="30.86"/><circle class="cls-58" cx="30.85" cy="67.63" r="30.86"/><circle class="cls-59" cx="30.85" cy="68.86" r="30.86"/><circle class="cls-60" cx="30.85" cy="70.09" r="30.86"/><circle class="cls-61" cx="30.85" cy="71.32" r="30.86"/><circle class="cls-62" cx="30.85" cy="72.55" r="30.86"/><circle class="cls-63" cx="30.85" cy="73.78" r="30.86"/><circle class="cls-64" cx="30.85" cy="75.01" r="30.86"/><circle class="cls-65" cx="30.85" cy="76.24" r="30.86"/><circle class="cls-66" cx="30.85" cy="77.47" r="30.86"/><circle class="cls-67" cx="30.85" cy="78.7" r="30.86"/><circle class="cls-68" cx="30.85" cy="79.93" r="30.86"/><circle class="cls-69" cx="30.85" cy="81.16" r="30.86"/><circle class="cls-70" cx="30.85" cy="82.39" r="30.86"/><circle class="cls-71" cx="30.85" cy="83.62" r="30.86"/><circle class="cls-72" cx="30.85" cy="84.85" r="30.86"/><circle class="cls-73" cx="30.85" cy="86.07" r="30.86"/><circle class="cls-74" cx="30.85" cy="87.3" r="30.86"/><circle class="cls-75" cx="30.85" cy="88.53" r="30.86"/><circle class="cls-76" cx="30.85" cy="89.76" r="30.86"/><circle class="cls-77" cx="30.85" cy="90.99" r="30.86"/><circle class="cls-78" cx="30.85" cy="92.22" r="30.86"/><circle class="cls-79" cx="30.85" cy="93.45" r="30.86"/><circle class="cls-80" cx="30.85" cy="94.68" r="30.86"/><circle class="cls-81" cx="30.85" cy="95.91" r="30.86"/><circle class="cls-82" cx="30.85" cy="97.14" r="30.86"/><circle class="cls-83" cx="30.85" cy="98.37" r="30.86"/><circle class="cls-84" cx="30.85" cy="99.6" r="30.86"/><circle class="cls-85" cx="30.85" cy="100.83" r="30.86"/><circle class="cls-86" cx="30.85" cy="102.06" r="30.86"/><circle class="cls-87" cx="30.85" cy="103.29" r="30.86"/><circle class="cls-88" cx="30.85" cy="104.52" r="30.86"/><circle class="cls-89" cx="30.85" cy="105.75" r="30.86"/><circle class="cls-90" cx="30.85" cy="106.98" r="30.86"/><circle class="cls-91" cx="30.85" cy="108.21" r="30.86"/><circle class="cls-92" cx="30.85" cy="109.44" r="30.86"/><circle class="cls-93" cx="30.85" cy="110.67" r="30.86"/><circle class="cls-94" cx="30.85" cy="111.9" r="30.86"/><circle class="cls-95" cx="30.85" cy="113.13" r="30.86"/><circle class="cls-96" cx="30.85" cy="114.36" r="30.86"/><circle class="cls-97" cx="30.85" cy="115.59" r="30.86"/><circle class="cls-98" cx="30.85" cy="116.82" r="30.86"/><circle class="cls-99" cx="30.85" cy="118.05" r="30.86"/><circle class="cls-100" cx="30.85" cy="119.28" r="30.86"/><circle class="cls-101" cx="30.85" cy="120.5" r="30.86"/><circle class="cls-102" cx="30.85" cy="121.73" r="30.86"/><circle class="cls-103" cx="30.85" cy="122.96" r="30.86"/><circle class="cls-104" cx="30.85" cy="124.19" r="30.86"/><circle class="cls-105" cx="30.85" cy="125.42" r="30.86"/><circle class="cls-106" cx="30.85" cy="126.65" r="30.86"/><circle class="cls-107" cx="30.85" cy="127.88" r="30.86"/><circle class="cls-108" cx="30.85" cy="129.11" r="30.86"/><circle class="cls-109" cx="30.85" cy="130.34" r="30.86"/><circle class="cls-110" cx="30.85" cy="131.57" r="30.86"/><circle class="cls-111" cx="30.85" cy="132.8" r="30.86"/><circle class="cls-112" cx="30.85" cy="134.03" r="30.86"/><circle class="cls-113" cx="30.85" cy="135.26" r="30.86"/><circle class="cls-114" cx="30.85" cy="136.49" r="30.86"/><circle class="cls-115" cx="30.85" cy="137.72" r="30.86"/><circle class="cls-116" cx="30.85" cy="138.95" r="30.86"/><circle class="cls-117" cx="30.85" cy="140.18" r="30.86"/><circle class="cls-118" cx="30.85" cy="141.41" r="30.86"/><circle class="cls-119" cx="30.85" cy="142.64" r="30.86"/><circle class="cls-120" cx="30.85" cy="143.87" r="30.86"/><circle class="cls-121" cx="30.85" cy="145.1" r="30.86"/><circle class="cls-122" cx="30.85" cy="146.33" r="30.86"/><circle class="cls-123" cx="30.85" cy="147.56" r="30.86"/><circle class="cls-124" cx="30.85" cy="148.79" r="30.86"/><circle class="cls-125" cx="30.85" cy="150.02" r="30.86"/><circle class="cls-126" cx="30.85" cy="151.25" r="30.86"/><circle class="cls-127" cx="30.85" cy="152.48" r="30.86"/><circle class="cls-128" cx="30.85" cy="153.71" r="30.86"/><circle class="cls-129" cx="30.85" cy="154.93" r="30.86"/></g></g><g id="图层_21" data-name="图层 21"></g></svg>