<svg xmlns="http://www.w3.org/2000/svg" xmlns:xlink="http://www.w3.org/1999/xlink" viewBox="0 0 62.98 150"><defs><style>.cls-1{fill:none;}.cls-2{clip-path:url(#clip-path);}.cls-3{fill:url(#未命名的渐变_143);}.cls-4{fill:url(#未命名的渐变_143-2);}.cls-5{fill:url(#未命名的渐变_143-3);}.cls-6{fill:url(#未命名的渐变_143-4);}.cls-7{fill:url(#未命名的渐变_143-5);}.cls-8{fill:url(#未命名的渐变_143-6);}.cls-9{fill:url(#未命名的渐变_143-7);}.cls-10{fill:url(#未命名的渐变_143-8);}.cls-11{fill:url(#未命名的渐变_143-9);}.cls-12{fill:url(#未命名的渐变_143-10);}.cls-13{fill:url(#未命名的渐变_143-11);}.cls-14{fill:url(#未命名的渐变_143-12);}.cls-15{fill:url(#未命名的渐变_143-13);}.cls-16{fill:url(#未命名的渐变_143-14);}.cls-17{fill:url(#未命名的渐变_143-15);}.cls-18{fill:url(#未命名的渐变_143-16);}.cls-19{fill:url(#未命名的渐变_143-17);}.cls-20{fill:url(#未命名的渐变_143-18);}.cls-21{fill:url(#未命名的渐变_143-19);}.cls-22{fill:url(#未命名的渐变_143-20);}.cls-23{fill:url(#未命名的渐变_143-21);}.cls-24{fill:url(#未命名的渐变_143-22);}.cls-25{fill:url(#未命名的渐变_143-23);}.cls-26{fill:url(#未命名的渐变_143-24);}.cls-27{fill:url(#未命名的渐变_143-25);}.cls-28{fill:url(#未命名的渐变_143-26);}.cls-29{fill:url(#未命名的渐变_143-27);}.cls-30{fill:url(#未命名的渐变_143-28);}.cls-31{fill:url(#未命名的渐变_143-29);}.cls-32{fill:url(#未命名的渐变_143-30);}.cls-33{fill:url(#未命名的渐变_143-31);}.cls-34{fill:url(#未命名的渐变_143-32);}.cls-35{fill:url(#未命名的渐变_143-33);}.cls-36{fill:url(#未命名的渐变_143-34);}.cls-37{fill:url(#未命名的渐变_143-35);}.cls-38{fill:url(#未命名的渐变_143-36);}.cls-39{fill:url(#未命名的渐变_143-37);}.cls-40{fill:url(#未命名的渐变_143-38);}.cls-41{fill:url(#未命名的渐变_143-39);}.cls-42{fill:url(#未命名的渐变_143-40);}.cls-43{fill:url(#未命名的渐变_143-41);}.cls-44{fill:url(#未命名的渐变_143-42);}.cls-45{fill:url(#未命名的渐变_143-43);}.cls-46{fill:url(#未命名的渐变_143-44);}.cls-47{fill:url(#未命名的渐变_143-45);}.cls-48{fill:url(#未命名的渐变_143-46);}.cls-49{fill:url(#未命名的渐变_143-47);}.cls-50{fill:url(#未命名的渐变_143-48);}.cls-51{fill:url(#未命名的渐变_143-49);}.cls-52{fill:url(#未命名的渐变_143-50);}.cls-53{fill:url(#未命名的渐变_143-51);}.cls-54{fill:url(#未命名的渐变_143-52);}.cls-55{fill:url(#未命名的渐变_143-53);}.cls-56{fill:url(#未命名的渐变_143-54);}.cls-57{fill:url(#未命名的渐变_143-55);}.cls-58{fill:url(#未命名的渐变_143-56);}.cls-59{fill:url(#未命名的渐变_143-57);}.cls-60{fill:url(#未命名的渐变_143-58);}.cls-61{fill:url(#未命名的渐变_143-59);}.cls-62{fill:url(#未命名的渐变_143-60);}.cls-63{fill:url(#未命名的渐变_143-61);}.cls-64{fill:url(#未命名的渐变_143-62);}.cls-65{fill:url(#未命名的渐变_143-63);}.cls-66{fill:url(#未命名的渐变_143-64);}.cls-67{fill:url(#未命名的渐变_143-65);}.cls-68{fill:url(#未命名的渐变_143-66);}.cls-69{fill:url(#未命名的渐变_143-67);}.cls-70{fill:url(#未命名的渐变_143-68);}.cls-71{fill:url(#未命名的渐变_143-69);}.cls-72{fill:url(#未命名的渐变_143-70);}.cls-73{fill:url(#未命名的渐变_143-71);}.cls-74{fill:url(#未命名的渐变_143-72);}.cls-75{fill:url(#未命名的渐变_143-73);}.cls-76{fill:url(#未命名的渐变_143-74);}.cls-77{fill:url(#未命名的渐变_143-75);}.cls-78{fill:url(#未命名的渐变_143-76);}.cls-79{fill:url(#未命名的渐变_143-77);}.cls-80{fill:url(#未命名的渐变_143-78);}.cls-81{fill:url(#未命名的渐变_143-79);}.cls-82{fill:url(#未命名的渐变_143-80);}.cls-83{fill:url(#未命名的渐变_143-81);}.cls-84{fill:url(#未命名的渐变_143-82);}.cls-85{fill:url(#未命名的渐变_143-83);}.cls-86{fill:url(#未命名的渐变_143-84);}.cls-87{fill:url(#未命名的渐变_143-85);}.cls-88{fill:url(#未命名的渐变_143-86);}.cls-89{fill:url(#未命名的渐变_143-87);}.cls-90{fill:url(#未命名的渐变_143-88);}.cls-91{fill:url(#未命名的渐变_143-89);}.cls-92{fill:url(#未命名的渐变_143-90);}.cls-93{fill:url(#未命名的渐变_143-91);}.cls-94{fill:url(#未命名的渐变_143-92);}.cls-95{fill:url(#未命名的渐变_143-93);}.cls-96{fill:url(#未命名的渐变_143-94);}.cls-97{fill:url(#未命名的渐变_143-95);}.cls-98{fill:url(#未命名的渐变_143-96);}.cls-99{fill:url(#未命名的渐变_143-97);}.cls-100{fill:url(#未命名的渐变_143-98);}.cls-101{fill:url(#未命名的渐变_143-99);}.cls-102{fill:url(#未命名的渐变_143-100);}.cls-103{fill:url(#未命名的渐变_143-101);}.cls-104{fill:url(#未命名的渐变_143-102);}.cls-105{fill:url(#未命名的渐变_143-103);}.cls-106{fill:url(#未命名的渐变_143-104);}.cls-107{fill:url(#未命名的渐变_143-105);}.cls-108{fill:url(#未命名的渐变_143-106);}.cls-109{fill:url(#未命名的渐变_143-107);}.cls-110{fill:url(#未命名的渐变_143-108);}.cls-111{fill:url(#未命名的渐变_143-109);}.cls-112{fill:url(#未命名的渐变_143-110);}.cls-113{fill:url(#未命名的渐变_143-111);}.cls-114{fill:url(#未命名的渐变_143-112);}.cls-115{fill:url(#未命名的渐变_143-113);}.cls-116{fill:url(#未命名的渐变_143-114);}.cls-117{fill:url(#未命名的渐变_143-115);}.cls-118{fill:url(#未命名的渐变_143-116);}.cls-119{fill:url(#未命名的渐变_143-117);}.cls-120{fill:url(#未命名的渐变_143-118);}.cls-121{fill:url(#未命名的渐变_143-119);}.cls-122{fill:url(#未命名的渐变_143-120);}.cls-123{opacity:0.2;}</style><clipPath id="clip-path"><path class="cls-1" d="M63.82,0H0V128l7,9.51a30.94,30.94,0,0,0,49.74,0l7-9.51Z"/></clipPath><linearGradient id="未命名的渐变_143" x1="-379.12" y1="-500.25" x2="-379.12" y2="-563.21" gradientTransform="matrix(0, -1, -1, 0, -500.25, -260.6)" gradientUnits="userSpaceOnUse"><stop offset="0" stop-color="#b7b7b7"/><stop offset="0.03" stop-color="#9b9d9d"/><stop offset="0.07" stop-color="#878b8b"/><stop offset="0.09" stop-color="#808484"/><stop offset="0.2" stop-color="#a3a6a6"/><stop offset="0.49" stop-color="#f6f6f6"/><stop offset="0.61" stop-color="#f3f3f3"/><stop offset="0.7" stop-color="#eaeaea"/><stop offset="0.77" stop-color="#dbdbdb"/><stop offset="0.83" stop-color="#c5c5c5"/><stop offset="0.9" stop-color="#aaa"/><stop offset="0.95" stop-color="#888"/><stop offset="1" stop-color="#666"/></linearGradient><linearGradient id="未命名的渐变_143-2" x1="-377.86" y1="-500.25" x2="-377.86" y2="-563.21" xlink:href="#未命名的渐变_143"/><linearGradient id="未命名的渐变_143-3" x1="-376.61" y1="-500.25" x2="-376.61" y2="-563.21" xlink:href="#未命名的渐变_143"/><linearGradient id="未命名的渐变_143-4" x1="-375.36" y1="-500.25" x2="-375.36" y2="-563.21" xlink:href="#未命名的渐变_143"/><linearGradient id="未命名的渐变_143-5" x1="-374.1" y1="-500.25" x2="-374.1" y2="-563.21" xlink:href="#未命名的渐变_143"/><linearGradient id="未命名的渐变_143-6" x1="-372.85" y1="-500.25" x2="-372.85" y2="-563.21" xlink:href="#未命名的渐变_143"/><linearGradient id="未命名的渐变_143-7" x1="-371.59" y1="-500.25" x2="-371.59" y2="-563.21" xlink:href="#未命名的渐变_143"/><linearGradient id="未命名的渐变_143-8" x1="-370.34" y1="-500.25" x2="-370.34" y2="-563.21" xlink:href="#未命名的渐变_143"/><linearGradient id="未命名的渐变_143-9" x1="-369.08" y1="-500.25" x2="-369.08" y2="-563.21" xlink:href="#未命名的渐变_143"/><linearGradient id="未命名的渐变_143-10" x1="-367.83" y1="-500.25" x2="-367.83" y2="-563.21" xlink:href="#未命名的渐变_143"/><linearGradient id="未命名的渐变_143-11" x1="-366.57" y1="-500.25" x2="-366.57" y2="-563.21" xlink:href="#未命名的渐变_143"/><linearGradient id="未命名的渐变_143-12" x1="-365.32" y1="-500.25" x2="-365.32" y2="-563.21" xlink:href="#未命名的渐变_143"/><linearGradient id="未命名的渐变_143-13" x1="-364.06" y1="-500.25" x2="-364.06" y2="-563.21" xlink:href="#未命名的渐变_143"/><linearGradient id="未命名的渐变_143-14" x1="-362.81" y1="-500.25" x2="-362.81" y2="-563.21" xlink:href="#未命名的渐变_143"/><linearGradient id="未命名的渐变_143-15" x1="-361.55" y1="-500.25" x2="-361.55" y2="-563.21" xlink:href="#未命名的渐变_143"/><linearGradient id="未命名的渐变_143-16" x1="-360.3" y1="-500.25" x2="-360.3" y2="-563.21" xlink:href="#未命名的渐变_143"/><linearGradient id="未命名的渐变_143-17" x1="-359.05" y1="-500.25" x2="-359.05" y2="-563.21" xlink:href="#未命名的渐变_143"/><linearGradient id="未命名的渐变_143-18" x1="-357.79" y1="-500.25" x2="-357.79" y2="-563.21" xlink:href="#未命名的渐变_143"/><linearGradient id="未命名的渐变_143-19" x1="-356.54" y1="-500.25" x2="-356.54" y2="-563.21" xlink:href="#未命名的渐变_143"/><linearGradient id="未命名的渐变_143-20" x1="-355.28" y1="-500.25" x2="-355.28" y2="-563.21" xlink:href="#未命名的渐变_143"/><linearGradient id="未命名的渐变_143-21" x1="-354.03" y1="-500.25" x2="-354.03" y2="-563.21" xlink:href="#未命名的渐变_143"/><linearGradient id="未命名的渐变_143-22" x1="-352.77" y1="-500.25" x2="-352.77" y2="-563.21" xlink:href="#未命名的渐变_143"/><linearGradient id="未命名的渐变_143-23" x1="-351.52" y1="-500.25" x2="-351.52" y2="-563.21" xlink:href="#未命名的渐变_143"/><linearGradient id="未命名的渐变_143-24" x1="-350.26" y1="-500.25" x2="-350.26" y2="-563.21" xlink:href="#未命名的渐变_143"/><linearGradient id="未命名的渐变_143-25" x1="-349.01" y1="-500.25" x2="-349.01" y2="-563.21" xlink:href="#未命名的渐变_143"/><linearGradient id="未命名的渐变_143-26" x1="-347.75" y1="-500.25" x2="-347.75" y2="-563.21" xlink:href="#未命名的渐变_143"/><linearGradient id="未命名的渐变_143-27" x1="-346.5" y1="-500.25" x2="-346.5" y2="-563.21" xlink:href="#未命名的渐变_143"/><linearGradient id="未命名的渐变_143-28" x1="-345.25" y1="-500.25" x2="-345.25" y2="-563.21" xlink:href="#未命名的渐变_143"/><linearGradient id="未命名的渐变_143-29" x1="-343.99" y1="-500.25" x2="-343.99" y2="-563.21" xlink:href="#未命名的渐变_143"/><linearGradient id="未命名的渐变_143-30" x1="-342.74" y1="-500.25" x2="-342.74" y2="-563.21" xlink:href="#未命名的渐变_143"/><linearGradient id="未命名的渐变_143-31" x1="-341.48" y1="-500.25" x2="-341.48" y2="-563.21" xlink:href="#未命名的渐变_143"/><linearGradient id="未命名的渐变_143-32" x1="-340.23" y1="-500.25" x2="-340.23" y2="-563.21" xlink:href="#未命名的渐变_143"/><linearGradient id="未命名的渐变_143-33" x1="-338.97" y1="-500.25" x2="-338.97" y2="-563.21" xlink:href="#未命名的渐变_143"/><linearGradient id="未命名的渐变_143-34" x1="-337.72" y1="-500.25" x2="-337.72" y2="-563.21" xlink:href="#未命名的渐变_143"/><linearGradient id="未命名的渐变_143-35" x1="-336.46" y1="-500.25" x2="-336.46" y2="-563.21" xlink:href="#未命名的渐变_143"/><linearGradient id="未命名的渐变_143-36" x1="-335.21" y1="-500.25" x2="-335.21" y2="-563.21" xlink:href="#未命名的渐变_143"/><linearGradient id="未命名的渐变_143-37" x1="-333.95" y1="-500.25" x2="-333.95" y2="-563.21" xlink:href="#未命名的渐变_143"/><linearGradient id="未命名的渐变_143-38" x1="-332.7" y1="-500.25" x2="-332.7" y2="-563.21" xlink:href="#未命名的渐变_143"/><linearGradient id="未命名的渐变_143-39" x1="-331.44" y1="-500.25" x2="-331.44" y2="-563.21" xlink:href="#未命名的渐变_143"/><linearGradient id="未命名的渐变_143-40" x1="-330.19" y1="-500.25" x2="-330.19" y2="-563.21" xlink:href="#未命名的渐变_143"/><linearGradient id="未命名的渐变_143-41" x1="-328.94" y1="-500.25" x2="-328.94" y2="-563.21" xlink:href="#未命名的渐变_143"/><linearGradient id="未命名的渐变_143-42" x1="-327.68" y1="-500.25" x2="-327.68" y2="-563.21" xlink:href="#未命名的渐变_143"/><linearGradient id="未命名的渐变_143-43" x1="-326.43" y1="-500.25" x2="-326.43" y2="-563.21" xlink:href="#未命名的渐变_143"/><linearGradient id="未命名的渐变_143-44" x1="-325.17" y1="-500.25" x2="-325.17" y2="-563.21" xlink:href="#未命名的渐变_143"/><linearGradient id="未命名的渐变_143-45" x1="-323.92" y1="-500.25" x2="-323.92" y2="-563.21" xlink:href="#未命名的渐变_143"/><linearGradient id="未命名的渐变_143-46" x1="-322.66" y1="-500.25" x2="-322.66" y2="-563.21" xlink:href="#未命名的渐变_143"/><linearGradient id="未命名的渐变_143-47" x1="-321.41" y1="-500.25" x2="-321.41" y2="-563.21" xlink:href="#未命名的渐变_143"/><linearGradient id="未命名的渐变_143-48" x1="-320.15" y1="-500.25" x2="-320.15" y2="-563.21" xlink:href="#未命名的渐变_143"/><linearGradient id="未命名的渐变_143-49" x1="-318.9" y1="-500.25" x2="-318.9" y2="-563.21" xlink:href="#未命名的渐变_143"/><linearGradient id="未命名的渐变_143-50" x1="-317.64" y1="-500.25" x2="-317.64" y2="-563.21" xlink:href="#未命名的渐变_143"/><linearGradient id="未命名的渐变_143-51" x1="-316.39" y1="-500.25" x2="-316.39" y2="-563.21" xlink:href="#未命名的渐变_143"/><linearGradient id="未命名的渐变_143-52" x1="-315.14" y1="-500.25" x2="-315.14" y2="-563.21" xlink:href="#未命名的渐变_143"/><linearGradient id="未命名的渐变_143-53" x1="-313.88" y1="-500.25" x2="-313.88" y2="-563.21" xlink:href="#未命名的渐变_143"/><linearGradient id="未命名的渐变_143-54" x1="-312.63" y1="-500.25" x2="-312.63" y2="-563.21" xlink:href="#未命名的渐变_143"/><linearGradient id="未命名的渐变_143-55" x1="-311.37" y1="-500.25" x2="-311.37" y2="-563.21" xlink:href="#未命名的渐变_143"/><linearGradient id="未命名的渐变_143-56" x1="-310.12" y1="-500.25" x2="-310.12" y2="-563.21" xlink:href="#未命名的渐变_143"/><linearGradient id="未命名的渐变_143-57" x1="-308.86" y1="-500.25" x2="-308.86" y2="-563.21" xlink:href="#未命名的渐变_143"/><linearGradient id="未命名的渐变_143-58" x1="-307.61" y1="-500.25" x2="-307.61" y2="-563.21" xlink:href="#未命名的渐变_143"/><linearGradient id="未命名的渐变_143-59" x1="-306.35" y1="-500.25" x2="-306.35" y2="-563.21" xlink:href="#未命名的渐变_143"/><linearGradient id="未命名的渐变_143-60" x1="-305.1" y1="-500.25" x2="-305.1" y2="-563.21" xlink:href="#未命名的渐变_143"/><linearGradient id="未命名的渐变_143-61" x1="-303.84" y1="-500.25" x2="-303.84" y2="-563.21" xlink:href="#未命名的渐变_143"/><linearGradient id="未命名的渐变_143-62" x1="-302.59" y1="-500.25" x2="-302.59" y2="-563.21" xlink:href="#未命名的渐变_143"/><linearGradient id="未命名的渐变_143-63" x1="-301.33" y1="-500.25" x2="-301.33" y2="-563.21" xlink:href="#未命名的渐变_143"/><linearGradient id="未命名的渐变_143-64" x1="-300.08" y1="-500.25" x2="-300.08" y2="-563.21" xlink:href="#未命名的渐变_143"/><linearGradient id="未命名的渐变_143-65" x1="-298.83" y1="-500.25" x2="-298.83" y2="-563.21" xlink:href="#未命名的渐变_143"/><linearGradient id="未命名的渐变_143-66" x1="-297.57" y1="-500.25" x2="-297.57" y2="-563.21" xlink:href="#未命名的渐变_143"/><linearGradient id="未命名的渐变_143-67" x1="-296.32" y1="-500.25" x2="-296.32" y2="-563.21" xlink:href="#未命名的渐变_143"/><linearGradient id="未命名的渐变_143-68" x1="-295.06" y1="-500.25" x2="-295.06" y2="-563.21" xlink:href="#未命名的渐变_143"/><linearGradient id="未命名的渐变_143-69" x1="-293.81" y1="-500.25" x2="-293.81" y2="-563.21" xlink:href="#未命名的渐变_143"/><linearGradient id="未命名的渐变_143-70" x1="-292.55" y1="-500.25" x2="-292.55" y2="-563.21" xlink:href="#未命名的渐变_143"/><linearGradient id="未命名的渐变_143-71" x1="-291.3" y1="-500.25" x2="-291.3" y2="-563.21" xlink:href="#未命名的渐变_143"/><linearGradient id="未命名的渐变_143-72" x1="-290.04" y1="-500.25" x2="-290.04" y2="-563.21" xlink:href="#未命名的渐变_143"/><linearGradient id="未命名的渐变_143-73" x1="-288.79" y1="-500.25" x2="-288.79" y2="-563.21" xlink:href="#未命名的渐变_143"/><linearGradient id="未命名的渐变_143-74" x1="-287.53" y1="-500.25" x2="-287.53" y2="-563.21" xlink:href="#未命名的渐变_143"/><linearGradient id="未命名的渐变_143-75" x1="-286.28" y1="-500.25" x2="-286.28" y2="-563.21" xlink:href="#未命名的渐变_143"/><linearGradient id="未命名的渐变_143-76" x1="-285.03" y1="-500.25" x2="-285.03" y2="-563.21" xlink:href="#未命名的渐变_143"/><linearGradient id="未命名的渐变_143-77" x1="-283.77" y1="-500.25" x2="-283.77" y2="-563.21" xlink:href="#未命名的渐变_143"/><linearGradient id="未命名的渐变_143-78" x1="-282.52" y1="-500.25" x2="-282.52" y2="-563.21" xlink:href="#未命名的渐变_143"/><linearGradient id="未命名的渐变_143-79" x1="-281.26" y1="-500.25" x2="-281.26" y2="-563.21" xlink:href="#未命名的渐变_143"/><linearGradient id="未命名的渐变_143-80" x1="-280.01" y1="-500.25" x2="-280.01" y2="-563.21" xlink:href="#未命名的渐变_143"/><linearGradient id="未命名的渐变_143-81" x1="-278.75" y1="-500.25" x2="-278.75" y2="-563.21" xlink:href="#未命名的渐变_143"/><linearGradient id="未命名的渐变_143-82" x1="-277.5" y1="-500.25" x2="-277.5" y2="-563.21" xlink:href="#未命名的渐变_143"/><linearGradient id="未命名的渐变_143-83" x1="-276.24" y1="-500.25" x2="-276.24" y2="-563.21" xlink:href="#未命名的渐变_143"/><linearGradient id="未命名的渐变_143-84" x1="-274.99" y1="-500.25" x2="-274.99" y2="-563.21" xlink:href="#未命名的渐变_143"/><linearGradient id="未命名的渐变_143-85" x1="-273.73" y1="-500.25" x2="-273.73" y2="-563.21" xlink:href="#未命名的渐变_143"/><linearGradient id="未命名的渐变_143-86" x1="-272.48" y1="-500.25" x2="-272.48" y2="-563.21" xlink:href="#未命名的渐变_143"/><linearGradient id="未命名的渐变_143-87" x1="-271.22" y1="-500.25" x2="-271.22" y2="-563.21" xlink:href="#未命名的渐变_143"/><linearGradient id="未命名的渐变_143-88" x1="-269.97" y1="-500.25" x2="-269.97" y2="-563.21" xlink:href="#未命名的渐变_143"/><linearGradient id="未命名的渐变_143-89" x1="-268.72" y1="-500.25" x2="-268.72" y2="-563.21" xlink:href="#未命名的渐变_143"/><linearGradient id="未命名的渐变_143-90" x1="-267.46" y1="-500.25" x2="-267.46" y2="-563.21" xlink:href="#未命名的渐变_143"/><linearGradient id="未命名的渐变_143-91" x1="-266.21" y1="-500.25" x2="-266.21" y2="-563.21" xlink:href="#未命名的渐变_143"/><linearGradient id="未命名的渐变_143-92" x1="-264.95" y1="-500.25" x2="-264.95" y2="-563.21" xlink:href="#未命名的渐变_143"/><linearGradient id="未命名的渐变_143-93" x1="-263.7" y1="-500.25" x2="-263.7" y2="-563.21" xlink:href="#未命名的渐变_143"/><linearGradient id="未命名的渐变_143-94" x1="-262.44" y1="-500.25" x2="-262.44" y2="-563.21" xlink:href="#未命名的渐变_143"/><linearGradient id="未命名的渐变_143-95" x1="-261.19" y1="-500.25" x2="-261.19" y2="-563.21" xlink:href="#未命名的渐变_143"/><linearGradient id="未命名的渐变_143-96" x1="-259.93" y1="-500.25" x2="-259.93" y2="-563.21" xlink:href="#未命名的渐变_143"/><linearGradient id="未命名的渐变_143-97" x1="-258.68" y1="-500.25" x2="-258.68" y2="-563.21" xlink:href="#未命名的渐变_143"/><linearGradient id="未命名的渐变_143-98" x1="-257.42" y1="-500.25" x2="-257.42" y2="-563.21" xlink:href="#未命名的渐变_143"/><linearGradient id="未命名的渐变_143-99" x1="-256.17" y1="-500.25" x2="-256.17" y2="-563.21" xlink:href="#未命名的渐变_143"/><linearGradient id="未命名的渐变_143-100" x1="-254.92" y1="-500.25" x2="-254.92" y2="-563.21" xlink:href="#未命名的渐变_143"/><linearGradient id="未命名的渐变_143-101" x1="-253.66" y1="-500.25" x2="-253.66" y2="-563.21" xlink:href="#未命名的渐变_143"/><linearGradient id="未命名的渐变_143-102" x1="-252.41" y1="-500.25" x2="-252.41" y2="-563.21" xlink:href="#未命名的渐变_143"/><linearGradient id="未命名的渐变_143-103" x1="-251.15" y1="-500.25" x2="-251.15" y2="-563.21" xlink:href="#未命名的渐变_143"/><linearGradient id="未命名的渐变_143-104" x1="-249.9" y1="-500.25" x2="-249.9" y2="-563.21" xlink:href="#未命名的渐变_143"/><linearGradient id="未命名的渐变_143-105" x1="-248.64" y1="-500.25" x2="-248.64" y2="-563.21" xlink:href="#未命名的渐变_143"/><linearGradient id="未命名的渐变_143-106" x1="-247.39" y1="-500.25" x2="-247.39" y2="-563.21" xlink:href="#未命名的渐变_143"/><linearGradient id="未命名的渐变_143-107" x1="-246.13" y1="-500.25" x2="-246.13" y2="-563.21" xlink:href="#未命名的渐变_143"/><linearGradient id="未命名的渐变_143-108" x1="-244.88" y1="-500.25" x2="-244.88" y2="-563.21" xlink:href="#未命名的渐变_143"/><linearGradient id="未命名的渐变_143-109" x1="-243.62" y1="-500.25" x2="-243.62" y2="-563.21" xlink:href="#未命名的渐变_143"/><linearGradient id="未命名的渐变_143-110" x1="-242.37" y1="-500.25" x2="-242.37" y2="-563.21" xlink:href="#未命名的渐变_143"/><linearGradient id="未命名的渐变_143-111" x1="-241.11" y1="-500.25" x2="-241.11" y2="-563.21" xlink:href="#未命名的渐变_143"/><linearGradient id="未命名的渐变_143-112" x1="-239.86" y1="-500.25" x2="-239.86" y2="-563.21" xlink:href="#未命名的渐变_143"/><linearGradient id="未命名的渐变_143-113" x1="-238.61" y1="-500.25" x2="-238.61" y2="-563.21" xlink:href="#未命名的渐变_143"/><linearGradient id="未命名的渐变_143-114" x1="-237.35" y1="-500.25" x2="-237.35" y2="-563.21" xlink:href="#未命名的渐变_143"/><linearGradient id="未命名的渐变_143-115" x1="-236.1" y1="-500.25" x2="-236.1" y2="-563.21" xlink:href="#未命名的渐变_143"/><linearGradient id="未命名的渐变_143-116" x1="-234.84" y1="-500.25" x2="-234.84" y2="-563.21" xlink:href="#未命名的渐变_143"/><linearGradient id="未命名的渐变_143-117" x1="-233.59" y1="-500.25" x2="-233.59" y2="-563.21" xlink:href="#未命名的渐变_143"/><linearGradient id="未命名的渐变_143-118" x1="-232.33" y1="-500.25" x2="-232.33" y2="-563.21" xlink:href="#未命名的渐变_143"/><linearGradient id="未命名的渐变_143-119" x1="-231.08" y1="-500.25" x2="-231.08" y2="-563.21" xlink:href="#未命名的渐变_143"/><linearGradient id="未命名的渐变_143-120" x1="-229.82" y1="-500.25" x2="-229.82" y2="-563.21" xlink:href="#未命名的渐变_143"/></defs><title>iot-管道(21)</title><g id="图层_17" data-name="图层 17"><g class="cls-2"><circle class="cls-3" cx="31.48" cy="118.52" r="31.48"/><circle class="cls-4" cx="31.48" cy="117.26" r="31.48"/><circle class="cls-5" cx="31.48" cy="116.01" r="31.48"/><circle class="cls-6" cx="31.48" cy="114.76" r="31.48"/><circle class="cls-7" cx="31.48" cy="113.5" r="31.48"/><circle class="cls-8" cx="31.48" cy="112.25" r="31.48"/><circle class="cls-9" cx="31.48" cy="110.99" r="31.48"/><circle class="cls-10" cx="31.48" cy="109.74" r="31.48"/><circle class="cls-11" cx="31.48" cy="108.48" r="31.48"/><circle class="cls-12" cx="31.48" cy="107.23" r="31.48"/><circle class="cls-13" cx="31.48" cy="105.97" r="31.48"/><circle class="cls-14" cx="31.48" cy="104.72" r="31.48"/><circle class="cls-15" cx="31.48" cy="103.46" r="31.48"/><circle class="cls-16" cx="31.48" cy="102.21" r="31.48"/><circle class="cls-17" cx="31.48" cy="100.95" r="31.48"/><circle class="cls-18" cx="31.48" cy="99.7" r="31.48"/><circle class="cls-19" cx="31.48" cy="98.45" r="31.48"/><circle class="cls-20" cx="31.48" cy="97.19" r="31.48"/><circle class="cls-21" cx="31.48" cy="95.94" r="31.48"/><circle class="cls-22" cx="31.48" cy="94.68" r="31.48"/><circle class="cls-23" cx="31.48" cy="93.43" r="31.48"/><circle class="cls-24" cx="31.48" cy="92.17" r="31.48"/><circle class="cls-25" cx="31.48" cy="90.92" r="31.48"/><circle class="cls-26" cx="31.48" cy="89.66" r="31.48"/><circle class="cls-27" cx="31.48" cy="88.41" r="31.48"/><circle class="cls-28" cx="31.48" cy="87.15" r="31.48"/><circle class="cls-29" cx="31.48" cy="85.9" r="31.48"/><circle class="cls-30" cx="31.48" cy="84.65" r="31.48"/><circle class="cls-31" cx="31.48" cy="83.39" r="31.48"/><circle class="cls-32" cx="31.48" cy="82.14" r="31.48"/><circle class="cls-33" cx="31.48" cy="80.88" r="31.48"/><circle class="cls-34" cx="31.48" cy="79.63" r="31.48"/><circle class="cls-35" cx="31.48" cy="78.37" r="31.48"/><circle class="cls-36" cx="31.48" cy="77.12" r="31.48"/><circle class="cls-37" cx="31.48" cy="75.86" r="31.48"/><circle class="cls-38" cx="31.48" cy="74.61" r="31.48"/><circle class="cls-39" cx="31.48" cy="73.35" r="31.48"/><circle class="cls-40" cx="31.48" cy="72.1" r="31.48"/><circle class="cls-41" cx="31.48" cy="70.84" r="31.48"/><circle class="cls-42" cx="31.48" cy="69.59" r="31.48"/><circle class="cls-43" cx="31.48" cy="68.34" r="31.48"/><circle class="cls-44" cx="31.48" cy="67.08" r="31.48"/><circle class="cls-45" cx="31.48" cy="65.83" r="31.48"/><circle class="cls-46" cx="31.48" cy="64.57" r="31.48"/><circle class="cls-47" cx="31.48" cy="63.32" r="31.48"/><circle class="cls-48" cx="31.48" cy="62.06" r="31.48"/><circle class="cls-49" cx="31.48" cy="60.81" r="31.48"/><circle class="cls-50" cx="31.48" cy="59.55" r="31.48"/><circle class="cls-51" cx="31.48" cy="58.3" r="31.48"/><circle class="cls-52" cx="31.48" cy="57.04" r="31.48"/><circle class="cls-53" cx="31.48" cy="55.79" r="31.48"/><circle class="cls-54" cx="31.48" cy="54.54" r="31.48"/><circle class="cls-55" cx="31.48" cy="53.28" r="31.48"/><circle class="cls-56" cx="31.48" cy="52.03" r="31.48"/><circle class="cls-57" cx="31.48" cy="50.77" r="31.48"/><circle class="cls-58" cx="31.48" cy="49.52" r="31.48"/><circle class="cls-59" cx="31.48" cy="48.26" r="31.48"/><circle class="cls-60" cx="31.48" cy="47.01" r="31.48"/><circle class="cls-61" cx="31.48" cy="45.75" r="31.48"/><circle class="cls-62" cx="31.48" cy="44.5" r="31.48"/><circle class="cls-63" cx="31.48" cy="43.24" r="31.48"/><circle class="cls-64" cx="31.48" cy="41.99" r="31.48"/><circle class="cls-65" cx="31.48" cy="40.74" r="31.48"/><circle class="cls-66" cx="31.48" cy="39.48" r="31.48"/><circle class="cls-67" cx="31.48" cy="38.23" r="31.48"/><circle class="cls-68" cx="31.48" cy="36.97" r="31.48"/><circle class="cls-69" cx="31.48" cy="35.72" r="31.48"/><circle class="cls-70" cx="31.48" cy="34.46" r="31.48"/><circle class="cls-71" cx="31.48" cy="33.21" r="31.48"/><circle class="cls-72" cx="31.48" cy="31.95" r="31.48"/><circle class="cls-73" cx="31.48" cy="30.7" r="31.48"/><circle class="cls-74" cx="31.48" cy="29.44" r="31.48"/><circle class="cls-75" cx="31.48" cy="28.19" r="31.48"/><circle class="cls-76" cx="31.48" cy="26.93" r="31.48"/><circle class="cls-77" cx="31.48" cy="25.68" r="31.48"/><circle class="cls-78" cx="31.48" cy="24.43" r="31.48"/><circle class="cls-79" cx="31.48" cy="23.17" r="31.48"/><circle class="cls-80" cx="31.48" cy="21.92" r="31.48"/><circle class="cls-81" cx="31.48" cy="20.66" r="31.48"/><circle class="cls-82" cx="31.48" cy="19.41" r="31.48"/><circle class="cls-83" cx="31.48" cy="18.15" r="31.48"/><circle class="cls-84" cx="31.48" cy="16.9" r="31.48"/><circle class="cls-85" cx="31.48" cy="15.64" r="31.48"/><circle class="cls-86" cx="31.48" cy="14.39" r="31.48"/><circle class="cls-87" cx="31.48" cy="13.13" r="31.48"/><circle class="cls-88" cx="31.48" cy="11.88" r="31.48"/><circle class="cls-89" cx="31.48" cy="10.63" r="31.48"/><circle class="cls-90" cx="31.48" cy="9.37" r="31.48"/><circle class="cls-91" cx="31.48" cy="8.12" r="31.48"/><circle class="cls-92" cx="31.48" cy="6.86" r="31.48"/><circle class="cls-93" cx="31.48" cy="5.61" r="31.48"/><circle class="cls-94" cx="31.48" cy="4.35" r="31.48"/><circle class="cls-95" cx="31.48" cy="3.1" r="31.48"/><circle class="cls-96" cx="31.48" cy="1.84" r="31.48"/><circle class="cls-97" cx="31.48" cy="0.59" r="31.48"/><circle class="cls-98" cx="31.48" cy="-0.67" r="31.48"/><circle class="cls-99" cx="31.48" cy="-1.92" r="31.48"/><circle class="cls-100" cx="31.48" cy="-3.18" r="31.48"/><circle class="cls-101" cx="31.48" cy="-4.43" r="31.48"/><circle class="cls-102" cx="31.48" cy="-5.68" r="31.48"/><circle class="cls-103" cx="31.48" cy="-6.94" r="31.48"/><circle class="cls-104" cx="31.48" cy="-8.19" r="31.48"/><circle class="cls-105" cx="31.48" cy="-9.45" r="31.48"/><circle class="cls-106" cx="31.48" cy="-10.7" r="31.48"/><circle class="cls-107" cx="31.48" cy="-11.96" r="31.48"/><circle class="cls-108" cx="31.48" cy="-13.21" r="31.48"/><circle class="cls-109" cx="31.48" cy="-14.47" r="31.48"/><circle class="cls-110" cx="31.48" cy="-15.72" r="31.48"/><circle class="cls-111" cx="31.48" cy="-16.98" r="31.48"/><circle class="cls-112" cx="31.48" cy="-18.23" r="31.48"/><circle class="cls-113" cx="31.48" cy="-19.48" r="31.48"/><circle class="cls-114" cx="31.48" cy="-20.74" r="31.48"/><circle class="cls-115" cx="31.48" cy="-21.99" r="31.48"/><circle class="cls-116" cx="31.48" cy="-23.25" r="31.48"/><circle class="cls-117" cx="31.48" cy="-24.5" r="31.48"/><circle class="cls-118" cx="31.48" cy="-25.76" r="31.48"/><circle class="cls-119" cx="31.48" cy="-27.01" r="31.48"/><circle class="cls-120" cx="31.48" cy="-28.27" r="31.48"/><circle class="cls-121" cx="31.48" cy="-29.52" r="31.48"/><circle class="cls-122" cx="31.48" cy="-30.78" r="31.48"/></g></g><g id="图层_21" data-name="图层 21"></g></svg>