<svg xmlns="http://www.w3.org/2000/svg" xmlns:xlink="http://www.w3.org/1999/xlink" viewBox="0 0 150 62.9"><defs><style>.cls-1{fill:none;}.cls-2{clip-path:url(#clip-path);}.cls-3{fill:url(#未命名的渐变_143);}.cls-4{fill:url(#未命名的渐变_143-2);}.cls-5{fill:url(#未命名的渐变_143-3);}.cls-6{fill:url(#未命名的渐变_143-4);}.cls-7{fill:url(#未命名的渐变_143-5);}.cls-8{fill:url(#未命名的渐变_143-6);}.cls-9{fill:url(#未命名的渐变_143-7);}.cls-10{fill:url(#未命名的渐变_143-8);}.cls-11{fill:url(#未命名的渐变_143-9);}.cls-12{fill:url(#未命名的渐变_143-10);}.cls-13{fill:url(#未命名的渐变_143-11);}.cls-14{fill:url(#未命名的渐变_143-12);}.cls-15{fill:url(#未命名的渐变_143-13);}.cls-16{fill:url(#未命名的渐变_143-14);}.cls-17{fill:url(#未命名的渐变_143-15);}.cls-18{fill:url(#未命名的渐变_143-16);}.cls-19{fill:url(#未命名的渐变_143-17);}.cls-20{clip-path:url(#clip-path-2);}.cls-21{fill:url(#未命名的渐变_143-18);}.cls-22{fill:url(#未命名的渐变_143-19);}.cls-23{fill:url(#未命名的渐变_143-20);}.cls-24{fill:url(#未命名的渐变_143-21);}.cls-25{fill:url(#未命名的渐变_143-22);}.cls-26{fill:url(#未命名的渐变_143-23);}.cls-27{fill:url(#未命名的渐变_143-24);}.cls-28{fill:url(#未命名的渐变_143-25);}.cls-29{fill:url(#未命名的渐变_143-26);}.cls-30{fill:url(#未命名的渐变_143-27);}.cls-31{fill:url(#未命名的渐变_143-28);}.cls-32{fill:url(#未命名的渐变_143-29);}.cls-33{fill:url(#未命名的渐变_143-30);}.cls-34{fill:url(#未命名的渐变_143-31);}.cls-35{fill:url(#未命名的渐变_143-32);}.cls-36{fill:url(#未命名的渐变_143-33);}.cls-37{fill:url(#未命名的渐变_143-34);}.cls-38{fill:url(#未命名的渐变_143-35);}.cls-39{fill:url(#未命名的渐变_143-36);}.cls-40{fill:url(#未命名的渐变_143-37);}.cls-41{fill:url(#未命名的渐变_143-38);}.cls-42{fill:url(#未命名的渐变_143-39);}.cls-43{fill:url(#未命名的渐变_143-40);}.cls-44{fill:url(#未命名的渐变_143-41);}.cls-45{fill:url(#未命名的渐变_143-42);}.cls-46{fill:url(#未命名的渐变_143-43);}.cls-47{fill:url(#未命名的渐变_143-44);}.cls-48{fill:url(#未命名的渐变_143-45);}.cls-49{fill:url(#未命名的渐变_143-46);}.cls-50{fill:url(#未命名的渐变_143-47);}.cls-51{fill:url(#未命名的渐变_143-48);}.cls-52{fill:url(#未命名的渐变_143-49);}.cls-53{fill:url(#未命名的渐变_143-50);}.cls-54{fill:url(#未命名的渐变_143-51);}.cls-55{fill:url(#未命名的渐变_143-52);}.cls-56{fill:url(#未命名的渐变_143-53);}.cls-57{fill:url(#未命名的渐变_143-54);}.cls-58{fill:url(#未命名的渐变_143-55);}.cls-59{fill:url(#未命名的渐变_143-56);}.cls-60{fill:url(#未命名的渐变_143-57);}.cls-61{fill:url(#未命名的渐变_143-58);}.cls-62{fill:url(#未命名的渐变_143-59);}.cls-63{fill:url(#未命名的渐变_143-60);}.cls-64{fill:url(#未命名的渐变_143-61);}.cls-65{fill:url(#未命名的渐变_143-62);}.cls-66{fill:url(#未命名的渐变_143-63);}.cls-67{fill:url(#未命名的渐变_143-64);}.cls-68{fill:url(#未命名的渐变_143-65);}.cls-69{fill:url(#未命名的渐变_143-66);}.cls-70{fill:url(#未命名的渐变_143-67);}.cls-71{fill:url(#未命名的渐变_143-68);}.cls-72{fill:url(#未命名的渐变_143-69);}.cls-73{fill:url(#未命名的渐变_143-70);}.cls-74{fill:url(#未命名的渐变_143-71);}.cls-75{fill:url(#未命名的渐变_143-72);}.cls-76{fill:url(#未命名的渐变_143-73);}.cls-77{fill:url(#未命名的渐变_143-74);}.cls-78{fill:url(#未命名的渐变_143-75);}.cls-79{fill:url(#未命名的渐变_143-76);}.cls-80{fill:url(#未命名的渐变_143-77);}.cls-81{fill:url(#未命名的渐变_143-78);}.cls-82{fill:url(#未命名的渐变_143-79);}.cls-83{fill:url(#未命名的渐变_143-80);}.cls-84{fill:url(#未命名的渐变_143-81);}.cls-85{fill:url(#未命名的渐变_143-82);}.cls-86{fill:url(#未命名的渐变_143-83);}.cls-87{fill:url(#未命名的渐变_143-84);}.cls-88{fill:url(#未命名的渐变_143-85);}.cls-89{fill:url(#未命名的渐变_143-86);}.cls-90{fill:url(#未命名的渐变_143-87);}.cls-91{fill:url(#未命名的渐变_143-88);}.cls-92{fill:url(#未命名的渐变_143-89);}.cls-93{fill:url(#未命名的渐变_143-90);}.cls-94{fill:url(#未命名的渐变_143-91);}.cls-95{fill:url(#未命名的渐变_143-92);}.cls-96{fill:url(#未命名的渐变_143-93);}.cls-97{fill:url(#未命名的渐变_143-94);}.cls-98{fill:url(#未命名的渐变_143-95);}.cls-99{fill:url(#未命名的渐变_143-96);}.cls-100{fill:url(#未命名的渐变_143-97);}.cls-101{fill:url(#未命名的渐变_143-98);}.cls-102{fill:url(#未命名的渐变_143-99);}.cls-103{fill:url(#未命名的渐变_143-100);}.cls-104{fill:url(#未命名的渐变_143-101);}.cls-105{fill:url(#未命名的渐变_143-102);}.cls-106{fill:url(#未命名的渐变_143-103);}.cls-107{fill:url(#未命名的渐变_143-104);}.cls-108{fill:url(#未命名的渐变_143-105);}.cls-109{fill:url(#未命名的渐变_143-106);}.cls-110{fill:url(#未命名的渐变_143-107);}.cls-111{fill:url(#未命名的渐变_143-108);}.cls-112{fill:url(#未命名的渐变_143-109);}.cls-113{fill:url(#未命名的渐变_143-110);}.cls-114{fill:url(#未命名的渐变_143-111);}.cls-115{fill:url(#未命名的渐变_143-112);}.cls-116{fill:url(#未命名的渐变_143-113);}.cls-117{fill:url(#未命名的渐变_143-114);}.cls-118{fill:url(#未命名的渐变_143-115);}.cls-119{fill:url(#未命名的渐变_143-116);}.cls-120{fill:url(#未命名的渐变_143-117);}.cls-121{fill:url(#未命名的渐变_143-118);}.cls-122{fill:url(#未命名的渐变_143-119);}.cls-123{fill:url(#未命名的渐变_143-120);}.cls-124{fill:url(#未命名的渐变_143-121);}.cls-125{fill:url(#未命名的渐变_143-122);}.cls-126{fill:url(#未命名的渐变_143-123);}.cls-127{fill:url(#未命名的渐变_143-124);}.cls-128{fill:url(#未命名的渐变_143-125);}.cls-129{fill:url(#未命名的渐变_143-126);}.cls-130{fill:url(#未命名的渐变_143-127);}.cls-131{fill:url(#未命名的渐变_143-128);}.cls-132{fill:url(#未命名的渐变_143-129);}.cls-133{fill:url(#未命名的渐变_143-130);}.cls-134{fill:url(#未命名的渐变_143-131);}.cls-135{fill:url(#未命名的渐变_143-132);}.cls-136{fill:url(#未命名的渐变_143-133);}.cls-137{fill:url(#未命名的渐变_143-134);}.cls-138{fill:url(#未命名的渐变_143-135);}.cls-139{fill:url(#未命名的渐变_143-136);}.cls-140{fill:url(#未命名的渐变_143-137);}.cls-141{opacity:0.2;}</style><clipPath id="clip-path"><path class="cls-1" d="M-50,53.41V-10.42H-178l-9.51,7a31,31,0,0,0,0,49.75l9.51,7Z"/></clipPath><linearGradient id="未命名的渐变_143" x1="-53.58" y1="-95.29" x2="-53.58" y2="-158.26" gradientTransform="matrix(1, 0, 0, -1, 23.06, -105.71)" gradientUnits="userSpaceOnUse"><stop offset="0" stop-color="#b7b7b7"/><stop offset="0.03" stop-color="#9b9d9d"/><stop offset="0.07" stop-color="#878b8b"/><stop offset="0.09" stop-color="#808484"/><stop offset="0.2" stop-color="#a3a6a6"/><stop offset="0.49" stop-color="#f6f6f6"/><stop offset="0.61" stop-color="#f3f3f3"/><stop offset="0.7" stop-color="#eaeaea"/><stop offset="0.77" stop-color="#dbdbdb"/><stop offset="0.83" stop-color="#c5c5c5"/><stop offset="0.9" stop-color="#aaa"/><stop offset="0.95" stop-color="#888"/><stop offset="1" stop-color="#666"/></linearGradient><linearGradient id="未命名的渐变_143-2" x1="-52.32" y1="-95.29" x2="-52.32" y2="-158.26" xlink:href="#未命名的渐变_143"/><linearGradient id="未命名的渐变_143-3" x1="-51.07" y1="-95.29" x2="-51.07" y2="-158.26" xlink:href="#未命名的渐变_143"/><linearGradient id="未命名的渐变_143-4" x1="-49.81" y1="-95.29" x2="-49.81" y2="-158.26" xlink:href="#未命名的渐变_143"/><linearGradient id="未命名的渐变_143-5" x1="-48.56" y1="-95.29" x2="-48.56" y2="-158.26" xlink:href="#未命名的渐变_143"/><linearGradient id="未命名的渐变_143-6" x1="-47.3" y1="-95.29" x2="-47.3" y2="-158.26" xlink:href="#未命名的渐变_143"/><linearGradient id="未命名的渐变_143-7" x1="-46.05" y1="-95.29" x2="-46.05" y2="-158.26" xlink:href="#未命名的渐变_143"/><linearGradient id="未命名的渐变_143-8" x1="-44.79" y1="-95.29" x2="-44.79" y2="-158.26" xlink:href="#未命名的渐变_143"/><linearGradient id="未命名的渐变_143-9" x1="-43.54" y1="-95.29" x2="-43.54" y2="-158.26" xlink:href="#未命名的渐变_143"/><linearGradient id="未命名的渐变_143-10" x1="-42.29" y1="-95.29" x2="-42.29" y2="-158.26" xlink:href="#未命名的渐变_143"/><linearGradient id="未命名的渐变_143-11" x1="-41.03" y1="-95.29" x2="-41.03" y2="-158.26" xlink:href="#未命名的渐变_143"/><linearGradient id="未命名的渐变_143-12" x1="-39.78" y1="-95.29" x2="-39.78" y2="-158.26" xlink:href="#未命名的渐变_143"/><linearGradient id="未命名的渐变_143-13" x1="-38.52" y1="-95.29" x2="-38.52" y2="-158.26" xlink:href="#未命名的渐变_143"/><linearGradient id="未命名的渐变_143-14" x1="-37.27" y1="-95.29" x2="-37.27" y2="-158.26" xlink:href="#未命名的渐变_143"/><linearGradient id="未命名的渐变_143-15" x1="-36.01" y1="-95.29" x2="-36.01" y2="-158.26" xlink:href="#未命名的渐变_143"/><linearGradient id="未命名的渐变_143-16" x1="-34.76" y1="-95.29" x2="-34.76" y2="-158.26" xlink:href="#未命名的渐变_143"/><linearGradient id="未命名的渐变_143-17" x1="-33.5" y1="-95.29" x2="-33.5" y2="-158.26" xlink:href="#未命名的渐变_143"/><clipPath id="clip-path-2"><path class="cls-1" d="M0,63.82V0H128l9.51,7a30.94,30.94,0,0,1,0,49.74l-9.51,7Z"/></clipPath><linearGradient id="未命名的渐变_143-18" x1="-641.58" y1="-105.71" x2="-641.58" y2="-168.67" gradientTransform="translate(-523.06 -105.71) rotate(180)" xlink:href="#未命名的渐变_143"/><linearGradient id="未命名的渐变_143-19" x1="-640.33" y1="-105.71" x2="-640.33" y2="-168.67" gradientTransform="translate(-523.06 -105.71) rotate(180)" xlink:href="#未命名的渐变_143"/><linearGradient id="未命名的渐变_143-20" x1="-639.07" y1="-105.71" x2="-639.07" y2="-168.67" gradientTransform="translate(-523.06 -105.71) rotate(180)" xlink:href="#未命名的渐变_143"/><linearGradient id="未命名的渐变_143-21" x1="-637.82" y1="-105.71" x2="-637.82" y2="-168.67" gradientTransform="translate(-523.06 -105.71) rotate(180)" xlink:href="#未命名的渐变_143"/><linearGradient id="未命名的渐变_143-22" x1="-636.56" y1="-105.71" x2="-636.56" y2="-168.67" gradientTransform="translate(-523.06 -105.71) rotate(180)" xlink:href="#未命名的渐变_143"/><linearGradient id="未命名的渐变_143-23" x1="-635.31" y1="-105.71" x2="-635.31" y2="-168.67" gradientTransform="translate(-523.06 -105.71) rotate(180)" xlink:href="#未命名的渐变_143"/><linearGradient id="未命名的渐变_143-24" x1="-634.05" y1="-105.71" x2="-634.05" y2="-168.67" gradientTransform="translate(-523.06 -105.71) rotate(180)" xlink:href="#未命名的渐变_143"/><linearGradient id="未命名的渐变_143-25" x1="-632.8" y1="-105.71" x2="-632.8" y2="-168.67" gradientTransform="translate(-523.06 -105.71) rotate(180)" xlink:href="#未命名的渐变_143"/><linearGradient id="未命名的渐变_143-26" x1="-631.54" y1="-105.71" x2="-631.54" y2="-168.67" gradientTransform="translate(-523.06 -105.71) rotate(180)" xlink:href="#未命名的渐变_143"/><linearGradient id="未命名的渐变_143-27" x1="-630.29" y1="-105.71" x2="-630.29" y2="-168.67" gradientTransform="translate(-523.06 -105.71) rotate(180)" xlink:href="#未命名的渐变_143"/><linearGradient id="未命名的渐变_143-28" x1="-629.04" y1="-105.71" x2="-629.04" y2="-168.67" gradientTransform="translate(-523.06 -105.71) rotate(180)" xlink:href="#未命名的渐变_143"/><linearGradient id="未命名的渐变_143-29" x1="-627.78" y1="-105.71" x2="-627.78" y2="-168.67" gradientTransform="translate(-523.06 -105.71) rotate(180)" xlink:href="#未命名的渐变_143"/><linearGradient id="未命名的渐变_143-30" x1="-626.53" y1="-105.71" x2="-626.53" y2="-168.67" gradientTransform="translate(-523.06 -105.71) rotate(180)" xlink:href="#未命名的渐变_143"/><linearGradient id="未命名的渐变_143-31" x1="-625.27" y1="-105.71" x2="-625.27" y2="-168.67" gradientTransform="translate(-523.06 -105.71) rotate(180)" xlink:href="#未命名的渐变_143"/><linearGradient id="未命名的渐变_143-32" x1="-624.02" y1="-105.71" x2="-624.02" y2="-168.67" gradientTransform="translate(-523.06 -105.71) rotate(180)" xlink:href="#未命名的渐变_143"/><linearGradient id="未命名的渐变_143-33" x1="-622.76" y1="-105.71" x2="-622.76" y2="-168.67" gradientTransform="translate(-523.06 -105.71) rotate(180)" xlink:href="#未命名的渐变_143"/><linearGradient id="未命名的渐变_143-34" x1="-621.51" y1="-105.71" x2="-621.51" y2="-168.67" gradientTransform="translate(-523.06 -105.71) rotate(180)" xlink:href="#未命名的渐变_143"/><linearGradient id="未命名的渐变_143-35" x1="-620.25" y1="-105.71" x2="-620.25" y2="-168.67" gradientTransform="translate(-523.06 -105.71) rotate(180)" xlink:href="#未命名的渐变_143"/><linearGradient id="未命名的渐变_143-36" x1="-619" y1="-105.71" x2="-619" y2="-168.67" gradientTransform="translate(-523.06 -105.71) rotate(180)" xlink:href="#未命名的渐变_143"/><linearGradient id="未命名的渐变_143-37" x1="-617.74" y1="-105.71" x2="-617.74" y2="-168.67" gradientTransform="translate(-523.06 -105.71) rotate(180)" xlink:href="#未命名的渐变_143"/><linearGradient id="未命名的渐变_143-38" x1="-616.49" y1="-105.71" x2="-616.49" y2="-168.67" gradientTransform="translate(-523.06 -105.71) rotate(180)" xlink:href="#未命名的渐变_143"/><linearGradient id="未命名的渐变_143-39" x1="-615.23" y1="-105.71" x2="-615.23" y2="-168.67" gradientTransform="translate(-523.06 -105.71) rotate(180)" xlink:href="#未命名的渐变_143"/><linearGradient id="未命名的渐变_143-40" x1="-613.98" y1="-105.71" x2="-613.98" y2="-168.67" gradientTransform="translate(-523.06 -105.71) rotate(180)" xlink:href="#未命名的渐变_143"/><linearGradient id="未命名的渐变_143-41" x1="-612.73" y1="-105.71" x2="-612.73" y2="-168.67" gradientTransform="translate(-523.06 -105.71) rotate(180)" xlink:href="#未命名的渐变_143"/><linearGradient id="未命名的渐变_143-42" x1="-611.47" y1="-105.71" x2="-611.47" y2="-168.67" gradientTransform="translate(-523.06 -105.71) rotate(180)" xlink:href="#未命名的渐变_143"/><linearGradient id="未命名的渐变_143-43" x1="-610.22" y1="-105.71" x2="-610.22" y2="-168.67" gradientTransform="translate(-523.06 -105.71) rotate(180)" xlink:href="#未命名的渐变_143"/><linearGradient id="未命名的渐变_143-44" x1="-608.96" y1="-105.71" x2="-608.96" y2="-168.67" gradientTransform="translate(-523.06 -105.71) rotate(180)" xlink:href="#未命名的渐变_143"/><linearGradient id="未命名的渐变_143-45" x1="-607.71" y1="-105.71" x2="-607.71" y2="-168.67" gradientTransform="translate(-523.06 -105.71) rotate(180)" xlink:href="#未命名的渐变_143"/><linearGradient id="未命名的渐变_143-46" x1="-606.45" y1="-105.71" x2="-606.45" y2="-168.67" gradientTransform="translate(-523.06 -105.71) rotate(180)" xlink:href="#未命名的渐变_143"/><linearGradient id="未命名的渐变_143-47" x1="-605.2" y1="-105.71" x2="-605.2" y2="-168.67" gradientTransform="translate(-523.06 -105.71) rotate(180)" xlink:href="#未命名的渐变_143"/><linearGradient id="未命名的渐变_143-48" x1="-603.94" y1="-105.71" x2="-603.94" y2="-168.67" gradientTransform="translate(-523.06 -105.71) rotate(180)" xlink:href="#未命名的渐变_143"/><linearGradient id="未命名的渐变_143-49" x1="-602.69" y1="-105.71" x2="-602.69" y2="-168.67" gradientTransform="translate(-523.06 -105.71) rotate(180)" xlink:href="#未命名的渐变_143"/><linearGradient id="未命名的渐变_143-50" x1="-601.43" y1="-105.71" x2="-601.43" y2="-168.67" gradientTransform="translate(-523.06 -105.71) rotate(180)" xlink:href="#未命名的渐变_143"/><linearGradient id="未命名的渐变_143-51" x1="-600.18" y1="-105.71" x2="-600.18" y2="-168.67" gradientTransform="translate(-523.06 -105.71) rotate(180)" xlink:href="#未命名的渐变_143"/><linearGradient id="未命名的渐变_143-52" x1="-598.93" y1="-105.71" x2="-598.93" y2="-168.67" gradientTransform="translate(-523.06 -105.71) rotate(180)" xlink:href="#未命名的渐变_143"/><linearGradient id="未命名的渐变_143-53" x1="-597.67" y1="-105.71" x2="-597.67" y2="-168.67" gradientTransform="translate(-523.06 -105.71) rotate(180)" xlink:href="#未命名的渐变_143"/><linearGradient id="未命名的渐变_143-54" x1="-596.42" y1="-105.71" x2="-596.42" y2="-168.67" gradientTransform="translate(-523.06 -105.71) rotate(180)" xlink:href="#未命名的渐变_143"/><linearGradient id="未命名的渐变_143-55" x1="-595.16" y1="-105.71" x2="-595.16" y2="-168.67" gradientTransform="translate(-523.06 -105.71) rotate(180)" xlink:href="#未命名的渐变_143"/><linearGradient id="未命名的渐变_143-56" x1="-593.91" y1="-105.71" x2="-593.91" y2="-168.67" gradientTransform="translate(-523.06 -105.71) rotate(180)" xlink:href="#未命名的渐变_143"/><linearGradient id="未命名的渐变_143-57" x1="-592.65" y1="-105.71" x2="-592.65" y2="-168.67" gradientTransform="translate(-523.06 -105.71) rotate(180)" xlink:href="#未命名的渐变_143"/><linearGradient id="未命名的渐变_143-58" x1="-591.4" y1="-105.71" x2="-591.4" y2="-168.67" gradientTransform="translate(-523.06 -105.71) rotate(180)" xlink:href="#未命名的渐变_143"/><linearGradient id="未命名的渐变_143-59" x1="-590.14" y1="-105.71" x2="-590.14" y2="-168.67" gradientTransform="translate(-523.06 -105.71) rotate(180)" xlink:href="#未命名的渐变_143"/><linearGradient id="未命名的渐变_143-60" x1="-588.89" y1="-105.71" x2="-588.89" y2="-168.67" gradientTransform="translate(-523.06 -105.71) rotate(180)" xlink:href="#未命名的渐变_143"/><linearGradient id="未命名的渐变_143-61" x1="-587.63" y1="-105.71" x2="-587.63" y2="-168.67" gradientTransform="translate(-523.06 -105.71) rotate(180)" xlink:href="#未命名的渐变_143"/><linearGradient id="未命名的渐变_143-62" x1="-586.38" y1="-105.71" x2="-586.38" y2="-168.67" gradientTransform="translate(-523.06 -105.71) rotate(180)" xlink:href="#未命名的渐变_143"/><linearGradient id="未命名的渐变_143-63" x1="-585.12" y1="-105.71" x2="-585.12" y2="-168.67" gradientTransform="translate(-523.06 -105.71) rotate(180)" xlink:href="#未命名的渐变_143"/><linearGradient id="未命名的渐变_143-64" x1="-583.87" y1="-105.71" x2="-583.87" y2="-168.67" gradientTransform="translate(-523.06 -105.71) rotate(180)" xlink:href="#未命名的渐变_143"/><linearGradient id="未命名的渐变_143-65" x1="-582.62" y1="-105.71" x2="-582.62" y2="-168.67" gradientTransform="translate(-523.06 -105.71) rotate(180)" xlink:href="#未命名的渐变_143"/><linearGradient id="未命名的渐变_143-66" x1="-581.36" y1="-105.71" x2="-581.36" y2="-168.67" gradientTransform="translate(-523.06 -105.71) rotate(180)" xlink:href="#未命名的渐变_143"/><linearGradient id="未命名的渐变_143-67" x1="-580.11" y1="-105.71" x2="-580.11" y2="-168.67" gradientTransform="translate(-523.06 -105.71) rotate(180)" xlink:href="#未命名的渐变_143"/><linearGradient id="未命名的渐变_143-68" x1="-578.85" y1="-105.71" x2="-578.85" y2="-168.67" gradientTransform="translate(-523.06 -105.71) rotate(180)" xlink:href="#未命名的渐变_143"/><linearGradient id="未命名的渐变_143-69" x1="-577.6" y1="-105.71" x2="-577.6" y2="-168.67" gradientTransform="translate(-523.06 -105.71) rotate(180)" xlink:href="#未命名的渐变_143"/><linearGradient id="未命名的渐变_143-70" x1="-576.34" y1="-105.71" x2="-576.34" y2="-168.67" gradientTransform="translate(-523.06 -105.71) rotate(180)" xlink:href="#未命名的渐变_143"/><linearGradient id="未命名的渐变_143-71" x1="-575.09" y1="-105.71" x2="-575.09" y2="-168.67" gradientTransform="translate(-523.06 -105.71) rotate(180)" xlink:href="#未命名的渐变_143"/><linearGradient id="未命名的渐变_143-72" x1="-573.83" y1="-105.71" x2="-573.83" y2="-168.67" gradientTransform="translate(-523.06 -105.71) rotate(180)" xlink:href="#未命名的渐变_143"/><linearGradient id="未命名的渐变_143-73" x1="-572.58" y1="-105.71" x2="-572.58" y2="-168.67" gradientTransform="translate(-523.06 -105.71) rotate(180)" xlink:href="#未命名的渐变_143"/><linearGradient id="未命名的渐变_143-74" x1="-571.32" y1="-105.71" x2="-571.32" y2="-168.67" gradientTransform="translate(-523.06 -105.71) rotate(180)" xlink:href="#未命名的渐变_143"/><linearGradient id="未命名的渐变_143-75" x1="-570.07" y1="-105.71" x2="-570.07" y2="-168.67" gradientTransform="translate(-523.06 -105.71) rotate(180)" xlink:href="#未命名的渐变_143"/><linearGradient id="未命名的渐变_143-76" x1="-568.82" y1="-105.71" x2="-568.82" y2="-168.67" gradientTransform="translate(-523.06 -105.71) rotate(180)" xlink:href="#未命名的渐变_143"/><linearGradient id="未命名的渐变_143-77" x1="-567.56" y1="-105.71" x2="-567.56" y2="-168.67" gradientTransform="translate(-523.06 -105.71) rotate(180)" xlink:href="#未命名的渐变_143"/><linearGradient id="未命名的渐变_143-78" x1="-566.31" y1="-105.71" x2="-566.31" y2="-168.67" gradientTransform="translate(-523.06 -105.71) rotate(180)" xlink:href="#未命名的渐变_143"/><linearGradient id="未命名的渐变_143-79" x1="-565.05" y1="-105.71" x2="-565.05" y2="-168.67" gradientTransform="translate(-523.06 -105.71) rotate(180)" xlink:href="#未命名的渐变_143"/><linearGradient id="未命名的渐变_143-80" x1="-563.8" y1="-105.71" x2="-563.8" y2="-168.67" gradientTransform="translate(-523.06 -105.71) rotate(180)" xlink:href="#未命名的渐变_143"/><linearGradient id="未命名的渐变_143-81" x1="-562.54" y1="-105.71" x2="-562.54" y2="-168.67" gradientTransform="translate(-523.06 -105.71) rotate(180)" xlink:href="#未命名的渐变_143"/><linearGradient id="未命名的渐变_143-82" x1="-561.29" y1="-105.71" x2="-561.29" y2="-168.67" gradientTransform="translate(-523.06 -105.71) rotate(180)" xlink:href="#未命名的渐变_143"/><linearGradient id="未命名的渐变_143-83" x1="-560.03" y1="-105.71" x2="-560.03" y2="-168.67" gradientTransform="translate(-523.06 -105.71) rotate(180)" xlink:href="#未命名的渐变_143"/><linearGradient id="未命名的渐变_143-84" x1="-558.78" y1="-105.71" x2="-558.78" y2="-168.67" gradientTransform="translate(-523.06 -105.71) rotate(180)" xlink:href="#未命名的渐变_143"/><linearGradient id="未命名的渐变_143-85" x1="-557.52" y1="-105.71" x2="-557.52" y2="-168.67" gradientTransform="translate(-523.06 -105.71) rotate(180)" xlink:href="#未命名的渐变_143"/><linearGradient id="未命名的渐变_143-86" x1="-556.27" y1="-105.71" x2="-556.27" y2="-168.67" gradientTransform="translate(-523.06 -105.71) rotate(180)" xlink:href="#未命名的渐变_143"/><linearGradient id="未命名的渐变_143-87" x1="-555.01" y1="-105.71" x2="-555.01" y2="-168.67" gradientTransform="translate(-523.06 -105.71) rotate(180)" xlink:href="#未命名的渐变_143"/><linearGradient id="未命名的渐变_143-88" x1="-553.76" y1="-105.71" x2="-553.76" y2="-168.67" gradientTransform="translate(-523.06 -105.71) rotate(180)" xlink:href="#未命名的渐变_143"/><linearGradient id="未命名的渐变_143-89" x1="-552.51" y1="-105.71" x2="-552.51" y2="-168.67" gradientTransform="translate(-523.06 -105.71) rotate(180)" xlink:href="#未命名的渐变_143"/><linearGradient id="未命名的渐变_143-90" x1="-551.25" y1="-105.71" x2="-551.25" y2="-168.67" gradientTransform="translate(-523.06 -105.71) rotate(180)" xlink:href="#未命名的渐变_143"/><linearGradient id="未命名的渐变_143-91" x1="-550" y1="-105.71" x2="-550" y2="-168.67" gradientTransform="translate(-523.06 -105.71) rotate(180)" xlink:href="#未命名的渐变_143"/><linearGradient id="未命名的渐变_143-92" x1="-548.74" y1="-105.71" x2="-548.74" y2="-168.67" gradientTransform="translate(-523.06 -105.71) rotate(180)" xlink:href="#未命名的渐变_143"/><linearGradient id="未命名的渐变_143-93" x1="-547.49" y1="-105.71" x2="-547.49" y2="-168.67" gradientTransform="translate(-523.06 -105.71) rotate(180)" xlink:href="#未命名的渐变_143"/><linearGradient id="未命名的渐变_143-94" x1="-546.23" y1="-105.71" x2="-546.23" y2="-168.67" gradientTransform="translate(-523.06 -105.71) rotate(180)" xlink:href="#未命名的渐变_143"/><linearGradient id="未命名的渐变_143-95" x1="-544.98" y1="-105.71" x2="-544.98" y2="-168.67" gradientTransform="translate(-523.06 -105.71) rotate(180)" xlink:href="#未命名的渐变_143"/><linearGradient id="未命名的渐变_143-96" x1="-543.72" y1="-105.71" x2="-543.72" y2="-168.67" gradientTransform="translate(-523.06 -105.71) rotate(180)" xlink:href="#未命名的渐变_143"/><linearGradient id="未命名的渐变_143-97" x1="-542.47" y1="-105.71" x2="-542.47" y2="-168.67" gradientTransform="translate(-523.06 -105.71) rotate(180)" xlink:href="#未命名的渐变_143"/><linearGradient id="未命名的渐变_143-98" x1="-541.21" y1="-105.71" x2="-541.21" y2="-168.67" gradientTransform="translate(-523.06 -105.71) rotate(180)" xlink:href="#未命名的渐变_143"/><linearGradient id="未命名的渐变_143-99" x1="-539.96" y1="-105.71" x2="-539.96" y2="-168.67" gradientTransform="translate(-523.06 -105.71) rotate(180)" xlink:href="#未命名的渐变_143"/><linearGradient id="未命名的渐变_143-100" x1="-538.71" y1="-105.71" x2="-538.71" y2="-168.67" gradientTransform="translate(-523.06 -105.71) rotate(180)" xlink:href="#未命名的渐变_143"/><linearGradient id="未命名的渐变_143-101" x1="-537.45" y1="-105.71" x2="-537.45" y2="-168.67" gradientTransform="translate(-523.06 -105.71) rotate(180)" xlink:href="#未命名的渐变_143"/><linearGradient id="未命名的渐变_143-102" x1="-536.2" y1="-105.71" x2="-536.2" y2="-168.67" gradientTransform="translate(-523.06 -105.71) rotate(180)" xlink:href="#未命名的渐变_143"/><linearGradient id="未命名的渐变_143-103" x1="-534.94" y1="-105.71" x2="-534.94" y2="-168.67" gradientTransform="translate(-523.06 -105.71) rotate(180)" xlink:href="#未命名的渐变_143"/><linearGradient id="未命名的渐变_143-104" x1="-533.69" y1="-105.71" x2="-533.69" y2="-168.67" gradientTransform="translate(-523.06 -105.71) rotate(180)" xlink:href="#未命名的渐变_143"/><linearGradient id="未命名的渐变_143-105" x1="-532.43" y1="-105.71" x2="-532.43" y2="-168.67" gradientTransform="translate(-523.06 -105.71) rotate(180)" xlink:href="#未命名的渐变_143"/><linearGradient id="未命名的渐变_143-106" x1="-531.18" y1="-105.71" x2="-531.18" y2="-168.67" gradientTransform="translate(-523.06 -105.71) rotate(180)" xlink:href="#未命名的渐变_143"/><linearGradient id="未命名的渐变_143-107" x1="-529.92" y1="-105.71" x2="-529.92" y2="-168.67" gradientTransform="translate(-523.06 -105.71) rotate(180)" xlink:href="#未命名的渐变_143"/><linearGradient id="未命名的渐变_143-108" x1="-528.67" y1="-105.71" x2="-528.67" y2="-168.67" gradientTransform="translate(-523.06 -105.71) rotate(180)" xlink:href="#未命名的渐变_143"/><linearGradient id="未命名的渐变_143-109" x1="-527.41" y1="-105.71" x2="-527.41" y2="-168.67" gradientTransform="translate(-523.06 -105.71) rotate(180)" xlink:href="#未命名的渐变_143"/><linearGradient id="未命名的渐变_143-110" x1="-526.16" y1="-105.71" x2="-526.16" y2="-168.67" gradientTransform="translate(-523.06 -105.71) rotate(180)" xlink:href="#未命名的渐变_143"/><linearGradient id="未命名的渐变_143-111" x1="-524.9" y1="-105.71" x2="-524.9" y2="-168.67" gradientTransform="translate(-523.06 -105.71) rotate(180)" xlink:href="#未命名的渐变_143"/><linearGradient id="未命名的渐变_143-112" x1="-523.65" y1="-105.71" x2="-523.65" y2="-168.67" gradientTransform="translate(-523.06 -105.71) rotate(180)" xlink:href="#未命名的渐变_143"/><linearGradient id="未命名的渐变_143-113" x1="-522.4" y1="-105.71" x2="-522.4" y2="-168.67" gradientTransform="translate(-523.06 -105.71) rotate(180)" xlink:href="#未命名的渐变_143"/><linearGradient id="未命名的渐变_143-114" x1="-521.14" y1="-105.71" x2="-521.14" y2="-168.67" gradientTransform="translate(-523.06 -105.71) rotate(180)" xlink:href="#未命名的渐变_143"/><linearGradient id="未命名的渐变_143-115" x1="-519.89" y1="-105.71" x2="-519.89" y2="-168.67" gradientTransform="translate(-523.06 -105.71) rotate(180)" xlink:href="#未命名的渐变_143"/><linearGradient id="未命名的渐变_143-116" x1="-518.63" y1="-105.71" x2="-518.63" y2="-168.67" gradientTransform="translate(-523.06 -105.71) rotate(180)" xlink:href="#未命名的渐变_143"/><linearGradient id="未命名的渐变_143-117" x1="-517.38" y1="-105.71" x2="-517.38" y2="-168.67" gradientTransform="translate(-523.06 -105.71) rotate(180)" xlink:href="#未命名的渐变_143"/><linearGradient id="未命名的渐变_143-118" x1="-516.12" y1="-105.71" x2="-516.12" y2="-168.67" gradientTransform="translate(-523.06 -105.71) rotate(180)" xlink:href="#未命名的渐变_143"/><linearGradient id="未命名的渐变_143-119" x1="-514.87" y1="-105.71" x2="-514.87" y2="-168.67" gradientTransform="translate(-523.06 -105.71) rotate(180)" xlink:href="#未命名的渐变_143"/><linearGradient id="未命名的渐变_143-120" x1="-513.61" y1="-105.71" x2="-513.61" y2="-168.67" gradientTransform="translate(-523.06 -105.71) rotate(180)" xlink:href="#未命名的渐变_143"/><linearGradient id="未命名的渐变_143-121" x1="-512.36" y1="-105.71" x2="-512.36" y2="-168.67" gradientTransform="translate(-523.06 -105.71) rotate(180)" xlink:href="#未命名的渐变_143"/><linearGradient id="未命名的渐变_143-122" x1="-511.1" y1="-105.71" x2="-511.1" y2="-168.67" gradientTransform="translate(-523.06 -105.71) rotate(180)" xlink:href="#未命名的渐变_143"/><linearGradient id="未命名的渐变_143-123" x1="-509.85" y1="-105.71" x2="-509.85" y2="-168.67" gradientTransform="translate(-523.06 -105.71) rotate(180)" xlink:href="#未命名的渐变_143"/><linearGradient id="未命名的渐变_143-124" x1="-508.6" y1="-105.71" x2="-508.6" y2="-168.67" gradientTransform="translate(-523.06 -105.71) rotate(180)" xlink:href="#未命名的渐变_143"/><linearGradient id="未命名的渐变_143-125" x1="-507.34" y1="-105.71" x2="-507.34" y2="-168.67" gradientTransform="translate(-523.06 -105.71) rotate(180)" xlink:href="#未命名的渐变_143"/><linearGradient id="未命名的渐变_143-126" x1="-506.09" y1="-105.71" x2="-506.09" y2="-168.67" gradientTransform="translate(-523.06 -105.71) rotate(180)" xlink:href="#未命名的渐变_143"/><linearGradient id="未命名的渐变_143-127" x1="-504.83" y1="-105.71" x2="-504.83" y2="-168.67" gradientTransform="translate(-523.06 -105.71) rotate(180)" xlink:href="#未命名的渐变_143"/><linearGradient id="未命名的渐变_143-128" x1="-503.58" y1="-105.71" x2="-503.58" y2="-168.67" gradientTransform="translate(-523.06 -105.71) rotate(180)" xlink:href="#未命名的渐变_143"/><linearGradient id="未命名的渐变_143-129" x1="-502.32" y1="-105.71" x2="-502.32" y2="-168.67" gradientTransform="translate(-523.06 -105.71) rotate(180)" xlink:href="#未命名的渐变_143"/><linearGradient id="未命名的渐变_143-130" x1="-501.07" y1="-105.71" x2="-501.07" y2="-168.67" gradientTransform="translate(-523.06 -105.71) rotate(180)" xlink:href="#未命名的渐变_143"/><linearGradient id="未命名的渐变_143-131" x1="-499.81" y1="-105.71" x2="-499.81" y2="-168.67" gradientTransform="translate(-523.06 -105.71) rotate(180)" xlink:href="#未命名的渐变_143"/><linearGradient id="未命名的渐变_143-132" x1="-498.56" y1="-105.71" x2="-498.56" y2="-168.67" gradientTransform="translate(-523.06 -105.71) rotate(180)" xlink:href="#未命名的渐变_143"/><linearGradient id="未命名的渐变_143-133" x1="-497.3" y1="-105.71" x2="-497.3" y2="-168.67" gradientTransform="translate(-523.06 -105.71) rotate(180)" xlink:href="#未命名的渐变_143"/><linearGradient id="未命名的渐变_143-134" x1="-496.05" y1="-105.71" x2="-496.05" y2="-168.67" gradientTransform="translate(-523.06 -105.71) rotate(180)" xlink:href="#未命名的渐变_143"/><linearGradient id="未命名的渐变_143-135" x1="-494.79" y1="-105.71" x2="-494.79" y2="-168.67" gradientTransform="translate(-523.06 -105.71) rotate(180)" xlink:href="#未命名的渐变_143"/><linearGradient id="未命名的渐变_143-136" x1="-493.54" y1="-105.71" x2="-493.54" y2="-168.67" gradientTransform="translate(-523.06 -105.71) rotate(180)" xlink:href="#未命名的渐变_143"/><linearGradient id="未命名的渐变_143-137" x1="-492.29" y1="-105.71" x2="-492.29" y2="-168.67" gradientTransform="translate(-523.06 -105.71) rotate(180)" xlink:href="#未命名的渐变_143"/></defs><title>iot-管道(21)</title><g id="图层_11" data-name="图层 11"><g class="cls-2"><circle class="cls-3" cx="-30.52" cy="21.06" r="31.48"/><circle class="cls-4" cx="-29.26" cy="21.06" r="31.48"/><circle class="cls-5" cx="-28.01" cy="21.06" r="31.48"/><circle class="cls-6" cx="-26.75" cy="21.06" r="31.48"/><circle class="cls-7" cx="-25.5" cy="21.06" r="31.48"/><circle class="cls-8" cx="-24.24" cy="21.06" r="31.48"/><circle class="cls-9" cx="-22.99" cy="21.06" r="31.48"/><circle class="cls-10" cx="-21.73" cy="21.06" r="31.48"/><circle class="cls-11" cx="-20.48" cy="21.06" r="31.48"/><circle class="cls-12" cx="-19.22" cy="21.06" r="31.48"/><circle class="cls-13" cx="-17.97" cy="21.06" r="31.48"/><circle class="cls-14" cx="-16.71" cy="21.06" r="31.48"/><circle class="cls-15" cx="-15.46" cy="21.06" r="31.48"/><circle class="cls-16" cx="-14.21" cy="21.06" r="31.48"/><circle class="cls-17" cx="-12.95" cy="21.06" r="31.48"/><circle class="cls-18" cx="-11.7" cy="21.06" r="31.48"/><circle class="cls-19" cx="-10.44" cy="21.06" r="31.48"/></g></g><g id="图层_12" data-name="图层 12"><g class="cls-20"><circle class="cls-21" cx="118.52" cy="31.48" r="31.48"/><circle class="cls-22" cx="117.26" cy="31.48" r="31.48"/><circle class="cls-23" cx="116.01" cy="31.48" r="31.48"/><circle class="cls-24" cx="114.76" cy="31.48" r="31.48"/><circle class="cls-25" cx="113.5" cy="31.48" r="31.48"/><circle class="cls-26" cx="112.25" cy="31.48" r="31.48"/><circle class="cls-27" cx="110.99" cy="31.48" r="31.48"/><circle class="cls-28" cx="109.74" cy="31.48" r="31.48"/><circle class="cls-29" cx="108.48" cy="31.48" r="31.48"/><circle class="cls-30" cx="107.23" cy="31.48" r="31.48"/><circle class="cls-31" cx="105.97" cy="31.48" r="31.48"/><circle class="cls-32" cx="104.72" cy="31.48" r="31.48"/><circle class="cls-33" cx="103.46" cy="31.48" r="31.48"/><circle class="cls-34" cx="102.21" cy="31.48" r="31.48"/><circle class="cls-35" cx="100.95" cy="31.48" r="31.48"/><circle class="cls-36" cx="99.7" cy="31.48" r="31.48"/><circle class="cls-37" cx="98.45" cy="31.48" r="31.48"/><circle class="cls-38" cx="97.19" cy="31.48" r="31.48"/><circle class="cls-39" cx="95.94" cy="31.48" r="31.48"/><circle class="cls-40" cx="94.68" cy="31.48" r="31.48"/><circle class="cls-41" cx="93.43" cy="31.48" r="31.48"/><circle class="cls-42" cx="92.17" cy="31.48" r="31.48"/><circle class="cls-43" cx="90.92" cy="31.48" r="31.48"/><circle class="cls-44" cx="89.66" cy="31.48" r="31.48"/><circle class="cls-45" cx="88.41" cy="31.48" r="31.48"/><circle class="cls-46" cx="87.15" cy="31.48" r="31.48"/><circle class="cls-47" cx="85.9" cy="31.48" r="31.48"/><circle class="cls-48" cx="84.65" cy="31.48" r="31.48"/><circle class="cls-49" cx="83.39" cy="31.48" r="31.48"/><circle class="cls-50" cx="82.14" cy="31.48" r="31.48"/><circle class="cls-51" cx="80.88" cy="31.48" r="31.48"/><circle class="cls-52" cx="79.63" cy="31.48" r="31.48"/><circle class="cls-53" cx="78.37" cy="31.48" r="31.48"/><circle class="cls-54" cx="77.12" cy="31.48" r="31.48"/><circle class="cls-55" cx="75.86" cy="31.48" r="31.48"/><circle class="cls-56" cx="74.61" cy="31.48" r="31.48"/><circle class="cls-57" cx="73.35" cy="31.48" r="31.48"/><circle class="cls-58" cx="72.1" cy="31.48" r="31.48"/><circle class="cls-59" cx="70.84" cy="31.48" r="31.48"/><circle class="cls-60" cx="69.59" cy="31.48" r="31.48"/><circle class="cls-61" cx="68.34" cy="31.48" r="31.48"/><circle class="cls-62" cx="67.08" cy="31.48" r="31.48"/><circle class="cls-63" cx="65.83" cy="31.48" r="31.48"/><circle class="cls-64" cx="64.57" cy="31.48" r="31.48"/><circle class="cls-65" cx="63.32" cy="31.48" r="31.48"/><circle class="cls-66" cx="62.06" cy="31.48" r="31.48"/><circle class="cls-67" cx="60.81" cy="31.48" r="31.48"/><circle class="cls-68" cx="59.55" cy="31.48" r="31.48"/><circle class="cls-69" cx="58.3" cy="31.48" r="31.48"/><circle class="cls-70" cx="57.04" cy="31.48" r="31.48"/><circle class="cls-71" cx="55.79" cy="31.48" r="31.48"/><circle class="cls-72" cx="54.54" cy="31.48" r="31.48"/><circle class="cls-73" cx="53.28" cy="31.48" r="31.48"/><circle class="cls-74" cx="52.03" cy="31.48" r="31.48"/><circle class="cls-75" cx="50.77" cy="31.48" r="31.48"/><circle class="cls-76" cx="49.52" cy="31.48" r="31.48"/><circle class="cls-77" cx="48.26" cy="31.48" r="31.48"/><circle class="cls-78" cx="47.01" cy="31.48" r="31.48"/><circle class="cls-79" cx="45.75" cy="31.48" r="31.48"/><circle class="cls-80" cx="44.5" cy="31.48" r="31.48"/><circle class="cls-81" cx="43.24" cy="31.48" r="31.48"/><circle class="cls-82" cx="41.99" cy="31.48" r="31.48"/><circle class="cls-83" cx="40.74" cy="31.48" r="31.48"/><circle class="cls-84" cx="39.48" cy="31.48" r="31.48"/><circle class="cls-85" cx="38.23" cy="31.48" r="31.48"/><circle class="cls-86" cx="36.97" cy="31.48" r="31.48"/><circle class="cls-87" cx="35.72" cy="31.48" r="31.48"/><circle class="cls-88" cx="34.46" cy="31.48" r="31.48"/><circle class="cls-89" cx="33.21" cy="31.48" r="31.48"/><circle class="cls-90" cx="31.95" cy="31.48" r="31.48"/><circle class="cls-91" cx="30.7" cy="31.48" r="31.48"/><circle class="cls-92" cx="29.44" cy="31.48" r="31.48"/><circle class="cls-93" cx="28.19" cy="31.48" r="31.48"/><circle class="cls-94" cx="26.93" cy="31.48" r="31.48"/><circle class="cls-95" cx="25.68" cy="31.48" r="31.48"/><circle class="cls-96" cx="24.43" cy="31.48" r="31.48"/><circle class="cls-97" cx="23.17" cy="31.48" r="31.48"/><circle class="cls-98" cx="21.92" cy="31.48" r="31.48"/><circle class="cls-99" cx="20.66" cy="31.48" r="31.48"/><circle class="cls-100" cx="19.41" cy="31.48" r="31.48"/><circle class="cls-101" cx="18.15" cy="31.48" r="31.48"/><circle class="cls-102" cx="16.9" cy="31.48" r="31.48"/><circle class="cls-103" cx="15.64" cy="31.48" r="31.48"/><circle class="cls-104" cx="14.39" cy="31.48" r="31.48"/><circle class="cls-105" cx="13.13" cy="31.48" r="31.48"/><circle class="cls-106" cx="11.88" cy="31.48" r="31.48"/><circle class="cls-107" cx="10.63" cy="31.48" r="31.48"/><circle class="cls-108" cx="9.37" cy="31.48" r="31.48"/><circle class="cls-109" cx="8.12" cy="31.48" r="31.48"/><circle class="cls-110" cx="6.86" cy="31.48" r="31.48"/><circle class="cls-111" cx="5.61" cy="31.48" r="31.48"/><circle class="cls-112" cx="4.35" cy="31.48" r="31.48"/><circle class="cls-113" cx="3.1" cy="31.48" r="31.48"/><circle class="cls-114" cx="1.84" cy="31.48" r="31.48"/><circle class="cls-115" cx="0.59" cy="31.48" r="31.48"/><circle class="cls-116" cx="-0.67" cy="31.48" r="31.48"/><circle class="cls-117" cx="-1.92" cy="31.48" r="31.48"/><circle class="cls-118" cx="-3.18" cy="31.48" r="31.48"/><circle class="cls-119" cx="-4.43" cy="31.48" r="31.48"/><circle class="cls-120" cx="-5.68" cy="31.48" r="31.48"/><circle class="cls-121" cx="-6.94" cy="31.48" r="31.48"/><circle class="cls-122" cx="-8.19" cy="31.48" r="31.48"/><circle class="cls-123" cx="-9.45" cy="31.48" r="31.48"/><circle class="cls-124" cx="-10.7" cy="31.48" r="31.48"/><circle class="cls-125" cx="-11.96" cy="31.48" r="31.48"/><circle class="cls-126" cx="-13.21" cy="31.48" r="31.48"/><circle class="cls-127" cx="-14.47" cy="31.48" r="31.48"/><circle class="cls-128" cx="-15.72" cy="31.48" r="31.48"/><circle class="cls-129" cx="-16.98" cy="31.48" r="31.48"/><circle class="cls-130" cx="-18.23" cy="31.48" r="31.48"/><circle class="cls-131" cx="-19.48" cy="31.48" r="31.48"/><circle class="cls-132" cx="-20.74" cy="31.48" r="31.48"/><circle class="cls-133" cx="-21.99" cy="31.48" r="31.48"/><circle class="cls-134" cx="-23.25" cy="31.48" r="31.48"/><circle class="cls-135" cx="-24.5" cy="31.48" r="31.48"/><circle class="cls-136" cx="-25.76" cy="31.48" r="31.48"/><circle class="cls-137" cx="-27.01" cy="31.48" r="31.48"/><circle class="cls-138" cx="-28.27" cy="31.48" r="31.48"/><circle class="cls-139" cx="-29.52" cy="31.48" r="31.48"/><circle class="cls-140" cx="-30.78" cy="31.48" r="31.48"/></g></g><g id="图层_21" data-name="图层 21"></g></svg>