<svg xmlns="http://www.w3.org/2000/svg" xmlns:xlink="http://www.w3.org/1999/xlink" viewBox="0 0 150 150"><defs><style>.cls-1,.cls-20{fill:none;}.cls-2{clip-path:url(#clip-path);}.cls-3{fill:url(#未命名的渐变_143);}.cls-4{fill:url(#未命名的渐变_143-2);}.cls-5{fill:url(#未命名的渐变_143-3);}.cls-6{fill:url(#未命名的渐变_143-4);}.cls-7{fill:url(#未命名的渐变_143-5);}.cls-8{fill:url(#未命名的渐变_143-6);}.cls-9{fill:url(#未命名的渐变_143-7);}.cls-10{fill:url(#未命名的渐变_143-8);}.cls-11{fill:url(#未命名的渐变_143-9);}.cls-12{fill:url(#未命名的渐变_143-10);}.cls-13{fill:url(#未命名的渐变_143-11);}.cls-14{fill:url(#未命名的渐变_143-12);}.cls-15{fill:url(#未命名的渐变_143-13);}.cls-16{fill:url(#未命名的渐变_143-14);}.cls-17{fill:url(#未命名的渐变_143-15);}.cls-18{fill:url(#未命名的渐变_143-16);}.cls-19{fill:url(#未命名的渐变_143-17);}.cls-20,.cls-25{stroke-miterlimit:10;}.cls-20{stroke-width:4px;stroke:url(#未命名的渐变_20);}.cls-21{fill:url(#未命名的渐变_143-18);}.cls-22{fill:url(#未命名的渐变_143-19);}.cls-23{opacity:0.6;}.cls-24,.cls-25{fill:#ff2727;}.cls-25{stroke:#fff;}.cls-26{fill:#fff;}.cls-27{opacity:0.2;}</style><clipPath id="clip-path"><path class="cls-1" d="M108.41-50H44.59V-178l7-9.51a30.94,30.94,0,0,1,49.74,0l7,9.51Z"/></clipPath><linearGradient id="未命名的渐变_143" x1="550.16" y1="-83.56" x2="550.16" y2="-146.52" gradientTransform="translate(-38.98 -580.68) rotate(90)" gradientUnits="userSpaceOnUse"><stop offset="0" stop-color="#b7b7b7"/><stop offset="0.03" stop-color="#9b9d9d"/><stop offset="0.07" stop-color="#878b8b"/><stop offset="0.09" stop-color="#808484"/><stop offset="0.2" stop-color="#a3a6a6"/><stop offset="0.49" stop-color="#f6f6f6"/><stop offset="0.61" stop-color="#f3f3f3"/><stop offset="0.7" stop-color="#eaeaea"/><stop offset="0.77" stop-color="#dbdbdb"/><stop offset="0.83" stop-color="#c5c5c5"/><stop offset="0.9" stop-color="#aaa"/><stop offset="0.95" stop-color="#888"/><stop offset="1" stop-color="#666"/></linearGradient><linearGradient id="未命名的渐变_143-2" x1="551.42" y1="-83.56" x2="551.42" y2="-146.52" xlink:href="#未命名的渐变_143"/><linearGradient id="未命名的渐变_143-3" x1="552.67" y1="-83.56" x2="552.67" y2="-146.52" xlink:href="#未命名的渐变_143"/><linearGradient id="未命名的渐变_143-4" x1="553.93" y1="-83.56" x2="553.93" y2="-146.52" xlink:href="#未命名的渐变_143"/><linearGradient id="未命名的渐变_143-5" x1="555.18" y1="-83.56" x2="555.18" y2="-146.52" xlink:href="#未命名的渐变_143"/><linearGradient id="未命名的渐变_143-6" x1="556.44" y1="-83.56" x2="556.44" y2="-146.52" xlink:href="#未命名的渐变_143"/><linearGradient id="未命名的渐变_143-7" x1="557.69" y1="-83.56" x2="557.69" y2="-146.52" xlink:href="#未命名的渐变_143"/><linearGradient id="未命名的渐变_143-8" x1="558.94" y1="-83.56" x2="558.94" y2="-146.52" xlink:href="#未命名的渐变_143"/><linearGradient id="未命名的渐变_143-9" x1="560.2" y1="-83.56" x2="560.2" y2="-146.52" xlink:href="#未命名的渐变_143"/><linearGradient id="未命名的渐变_143-10" x1="561.45" y1="-83.56" x2="561.45" y2="-146.52" xlink:href="#未命名的渐变_143"/><linearGradient id="未命名的渐变_143-11" x1="562.71" y1="-83.56" x2="562.71" y2="-146.52" xlink:href="#未命名的渐变_143"/><linearGradient id="未命名的渐变_143-12" x1="563.96" y1="-83.56" x2="563.96" y2="-146.52" xlink:href="#未命名的渐变_143"/><linearGradient id="未命名的渐变_143-13" x1="565.22" y1="-83.56" x2="565.22" y2="-146.52" xlink:href="#未命名的渐变_143"/><linearGradient id="未命名的渐变_143-14" x1="566.47" y1="-83.56" x2="566.47" y2="-146.52" xlink:href="#未命名的渐变_143"/><linearGradient id="未命名的渐变_143-15" x1="567.73" y1="-83.56" x2="567.73" y2="-146.52" xlink:href="#未命名的渐变_143"/><linearGradient id="未命名的渐变_143-16" x1="568.98" y1="-83.56" x2="568.98" y2="-146.52" xlink:href="#未命名的渐变_143"/><linearGradient id="未命名的渐变_143-17" x1="570.24" y1="-83.56" x2="570.24" y2="-146.52" xlink:href="#未命名的渐变_143"/><radialGradient id="未命名的渐变_20" cx="74.04" cy="74.21" r="74.51" gradientUnits="userSpaceOnUse"><stop offset="0" stop-color="#b7b7b7"/><stop offset="0.01" stop-color="#a5a7a7"/><stop offset="0.02" stop-color="#949797"/><stop offset="0.03" stop-color="#898c8c"/><stop offset="0.04" stop-color="#828686"/><stop offset="0.09" stop-color="#808484"/><stop offset="0.26" stop-color="#828686"/><stop offset="0.32" stop-color="#898c8c"/><stop offset="0.37" stop-color="#949898"/><stop offset="0.4" stop-color="#a5a8a8"/><stop offset="0.43" stop-color="#bbbdbd"/><stop offset="0.46" stop-color="#d6d7d7"/><stop offset="0.49" stop-color="#f5f5f5"/><stop offset="0.49" stop-color="#f6f6f6"/><stop offset="0.81" stop-color="#9d9d9d"/><stop offset="1" stop-color="#666"/></radialGradient><linearGradient id="未命名的渐变_143-18" x1="-130.29" y1="-141.15" x2="-111.35" y2="-141.15" gradientTransform="translate(156.59 231.16) scale(0.69 1.1)" xlink:href="#未命名的渐变_143"/><linearGradient id="未命名的渐变_143-19" x1="274.18" y1="111.84" x2="293.12" y2="111.84" gradientTransform="matrix(0.69, 0, 0, -1.1, -120.88, 199.02)" xlink:href="#未命名的渐变_143"/></defs><title>iot-管道(21)</title><g id="图层_14" data-name="图层 14"><g class="cls-2"><circle class="cls-3" cx="76.07" cy="-30.52" r="31.48"/><circle class="cls-4" cx="76.07" cy="-29.26" r="31.48"/><circle class="cls-5" cx="76.07" cy="-28.01" r="31.48"/><circle class="cls-6" cx="76.07" cy="-26.75" r="31.48"/><circle class="cls-7" cx="76.07" cy="-25.5" r="31.48"/><circle class="cls-8" cx="76.07" cy="-24.24" r="31.48"/><circle class="cls-9" cx="76.07" cy="-22.99" r="31.48"/><circle class="cls-10" cx="76.07" cy="-21.73" r="31.48"/><circle class="cls-11" cx="76.07" cy="-20.48" r="31.48"/><circle class="cls-12" cx="76.07" cy="-19.22" r="31.48"/><circle class="cls-13" cx="76.07" cy="-17.97" r="31.48"/><circle class="cls-14" cx="76.07" cy="-16.71" r="31.48"/><circle class="cls-15" cx="76.07" cy="-15.46" r="31.48"/><circle class="cls-16" cx="76.07" cy="-14.21" r="31.48"/><circle class="cls-17" cx="76.07" cy="-12.95" r="31.48"/><circle class="cls-18" cx="76.07" cy="-11.7" r="31.48"/><circle class="cls-19" cx="76.07" cy="-10.44" r="31.48"/></g></g><g id="图层_20" data-name="图层 20"><circle class="cls-20" cx="74.04" cy="74.21" r="72.51"/><rect class="cls-21" x="67.21" y="8.35" width="12.99" height="136.01" transform="translate(-32.4 74.48) rotate(-45)"/><rect class="cls-22" x="67.21" y="8.35" width="12.99" height="136.01" transform="translate(71.83 182.46) rotate(-135)"/><g class="cls-23"><circle class="cls-24" cx="73.7" cy="76.35" r="42.98"/><circle class="cls-25" cx="73.7" cy="76.35" r="36.19"/><rect class="cls-26" x="47.74" y="67.61" width="51.93" height="17.49" transform="translate(147.41 152.71) rotate(180)"/></g></g><g id="图层_21" data-name="图层 21"></g></svg>