<svg xmlns="http://www.w3.org/2000/svg" viewBox="0 0 150 86.56"><defs><style>.cls-1{fill:#daa94d;}.cls-2{fill:#c89a46;}.cls-3{fill:#665240;}.cls-4{fill:#4b311e;}.cls-5{fill:#494236;}.cls-6{fill:#438c91;}.cls-7{fill:#c29647;}.cls-8{opacity:0.2;}</style></defs><title>Land（土地）</title><g id="图层_2" data-name="图层 2"><g id="图层_125" data-name="图层 125"><g id="Land_土地_" data-name="Land（土地）"><polygon class="cls-1" points="150 4.98 26.87 18 0.06 11.05 110.94 0 150 4.98"/><polygon class="cls-2" points="26.87 22.67 0.06 14.07 0.06 11.05 26.87 18 26.87 22.67"/><polygon class="cls-3" points="26.87 30.95 0.06 21.86 0.06 13.89 26.87 22.67 26.87 30.95"/><polygon class="cls-4" points="26.87 40.64 0.06 29.83 0.06 21.86 26.87 30.63 26.87 40.64"/><polygon class="cls-3" points="26.87 52.51 0.06 42.97 0.06 29.82 26.87 40.64 26.87 52.51"/><polygon class="cls-3" points="26.82 63.17 0.02 53.64 0.02 40.48 26.82 51.3 26.82 63.17"/><polygon class="cls-5" points="26.85 86.56 0 70.84 0 57.68 26.8 68.5 26.85 86.56"/><polygon class="cls-5" points="26.82 86.56 150 62.37 150 48.57 26.87 68.5 26.82 86.56"/><polygon class="cls-6" points="26.87 76.78 0.02 62.72 0.02 49.56 26.82 60.38 26.87 76.78"/><path class="cls-6" d="M26.83,76.78l7.67-3.12a31.79,31.79,0,0,1,21.1-1l5.09,1.53A10.27,10.27,0,0,0,70,72.45l6.93-5.4a14.44,14.44,0,0,1,16.37-1h0a18.47,18.47,0,0,0,19,.09l7.26-4.33a13.13,13.13,0,0,1,9.13-1.62l1.85.35a18.45,18.45,0,0,0,16.4-5L150,52.51V38.58L26.87,60.38Z"/><polygon class="cls-4" points="26.87 66.41 0.06 53.64 0.06 40.48 26.87 51.3 26.87 66.41"/><path class="cls-4" d="M36.31,63.17c-1.46,1-3.13,1.33-6,2.12l-3.47,1.12,0-17.84L150,31V43.62l-.1.07A25,25,0,0,1,131.17,48l-3.71-.63a30.54,30.54,0,0,0-15.62,1.43L94,55.33a25.47,25.47,0,0,1-19.36-.74h0a11.82,11.82,0,0,0-11.85,1.17l-3.57,2.58c-4.63,4.08-14,2.91-14,2.91S41.16,60.4,40,60.6C39,60.78,37.09,62.65,36.31,63.17Z"/><path class="cls-3" d="M121.63,41.64l-6.26-1A35,35,0,0,0,96,42.9l-4.82,2a18.77,18.77,0,0,1-9.42,1.37l-9.37-1.06a18.78,18.78,0,0,0-11.1,2.16l-2.63,1.43a17.4,17.4,0,0,1-14,1.17l-3.62-1.25c-4.3-1.17-9.53-2.16-14,2.32l-.22.22V35.43L150,5.63V33.76l-5.46.11A18.89,18.89,0,0,0,133,38.11l-1,.77A13,13,0,0,1,121.63,41.64Z"/><path class="cls-4" d="M26.87,40.64l4.39-3.73C40.85,31,52,30.66,65.85,33.36l4.42,1.76c7.91,4.19,16.35,3.28,21.62.16,0,0,14.15-8.19,30.06-4.54l2.17.77a3.5,3.5,0,0,0,4.72-1.23h0c3.92-5,11-5.94,18.28-4.66l2.88.82V5.63L26.87,27.28Z"/><path class="cls-3" d="M26.87,30.63,50.63,24A26.35,26.35,0,0,1,72,27l2.91,1.82a12.52,12.52,0,0,0,12.67.36l13.75-7.54a15,15,0,0,1,13.42-.5l2.92,1.33a7.91,7.91,0,0,0,6.82-.13l5-2.52A44.52,44.52,0,0,1,149.61,15H150v-8L26.87,21Z"/><path class="cls-7" d="M26.87,22.67,36,21.14a19.65,19.65,0,0,1,2.86-.28l7.36-.19a25.41,25.41,0,0,1,6.84.75l3.32.84A18,18,0,0,0,70.52,20h0a8.69,8.69,0,0,1,6.63-1.13l6.78,1.57a19.55,19.55,0,0,0,12.19-1.09l4.28-1.84a13,13,0,0,1,6.21-1l7,.56a33.82,33.82,0,0,0,14-1.84l6.76-2.41a27.92,27.92,0,0,1,6.57-1.48l9.07-.9V5L26.87,18Z"/></g></g></g></svg>