<svg xmlns="http://www.w3.org/2000/svg" xmlns:xlink="http://www.w3.org/1999/xlink" viewBox="0 0 107.22 150"><defs><style>.cls-1{fill:url(#未命名的渐变_105);}.cls-2{fill:url(#未命名的渐变_67);}.cls-3{fill:url(#未命名的渐变_67-2);}.cls-4{fill:#a0a0a0;}.cls-5{fill:url(#未命名的渐变_67-3);}.cls-6{opacity:0.2;}</style><linearGradient id="未命名的渐变_105" x1="-122.48" y1="674.36" x2="-122.48" y2="569.35" gradientTransform="translate(675.59 187.4) rotate(90)" gradientUnits="userSpaceOnUse"><stop offset="0" stop-color="#e2e2e2"/><stop offset="0.03" stop-color="#d0d0d0"/><stop offset="0.06" stop-color="#bcbcbc"/><stop offset="0.09" stop-color="#b5b5b5"/><stop offset="0.49" stop-color="#f6f6f6"/><stop offset="0.63" stop-color="#f3f3f3"/><stop offset="0.73" stop-color="#eaeaea"/><stop offset="0.82" stop-color="#dbdbdb"/><stop offset="0.9" stop-color="#c6c6c6"/><stop offset="0.97" stop-color="#aaa"/><stop offset="1" stop-color="#9b9b9b"/></linearGradient><linearGradient id="未命名的渐变_67" x1="1.24" y1="656.36" x2="106.25" y2="656.36" gradientTransform="matrix(1, 0, 0, -3.25, 0, 2149.27)" gradientUnits="userSpaceOnUse"><stop offset="0" stop-color="#6b6b6b"/><stop offset="0.11" stop-color="#767676"/><stop offset="0.3" stop-color="#959595"/><stop offset="0.41" stop-color="#aaa"/><stop offset="0.56" stop-color="#ccc"/><stop offset="0.71" stop-color="#eaeaea"/><stop offset="0.8" stop-color="#f6f6f6"/><stop offset="0.83" stop-color="#ededed"/><stop offset="0.87" stop-color="#d4d4d4"/><stop offset="0.92" stop-color="#ababab"/><stop offset="0.98" stop-color="#737373"/><stop offset="0.99" stop-color="#666"/></linearGradient><linearGradient id="未命名的渐变_67-2" x1="0.87" y1="616.62" x2="105.96" y2="616.62" xlink:href="#未命名的渐变_67"/><linearGradient id="未命名的渐变_67-3" x1="0" y1="628.9" x2="107.22" y2="628.9" xlink:href="#未命名的渐变_67"/></defs><title>Large cone-bottom polyethylene tank（大锥底聚乙烯罐）</title><g id="图层_2" data-name="图层 2"><g id="图层_104" data-name="图层 104"><g id="Large_cone-bottom_polyethylene_tank_大锥底聚乙烯罐_" data-name="Large cone-bottom polyethylene tank（大锥底聚乙烯罐）"><path class="cls-1" d="M106.25,116.76V13S96,0,53.74,0,1.24,13,1.24,13V116.76s8.76,13.5,52.5,13.07C99.82,129.38,106.25,116.76,106.25,116.76Z"/><rect class="cls-2" x="1.24" y="17.22" width="105.01" height="1.88"/><rect class="cls-3" x="0.87" y="144.4" width="105.08" height="5.6"/><rect class="cls-4" x="-4.69" y="124.1" width="33.41" height="7.19" transform="translate(-115.67 139.71) rotate(-90)"/><rect class="cls-4" x="9.76" y="121.65" width="46.3" height="4.95" transform="translate(-0.65 248.08) rotate(-150)"/><rect class="cls-4" x="50.76" y="121.48" width="46.97" height="4.95" transform="translate(-53.21 55.89) rotate(-30.97)"/><rect class="cls-4" x="36.39" y="124.1" width="33.41" height="7.19" transform="translate(-74.6 180.79) rotate(-90)"/><rect class="cls-4" x="79.04" y="124.1" width="33.41" height="7.19" transform="translate(-31.95 223.44) rotate(-90)"/><rect class="cls-5" y="103.69" width="107.22" height="7.3"/></g></g></g></svg>