<svg xmlns="http://www.w3.org/2000/svg" xmlns:xlink="http://www.w3.org/1999/xlink" viewBox="0 0 150.13 136.43"><defs><style>.cls-1{fill:url(#未命名的渐变_20);}.cls-2{fill:url(#未命名的渐变_20-2);}.cls-3{fill:url(#未命名的渐变_20-3);}.cls-4,.cls-5,.cls-6,.cls-7,.cls-8{stroke:#5f6366;stroke-miterlimit:10;stroke-width:0.25px;}.cls-4{fill:url(#未命名的渐变_59);}.cls-5{fill:url(#未命名的渐变_126);}.cls-6{fill:url(#未命名的渐变_261);}.cls-7{fill:url(#未命名的渐变_252);}.cls-8{fill:none;}.cls-9{fill:#6c7076;}.cls-10{fill:#bfc3cc;}.cls-11{fill:url(#未命名的渐变_201);}.cls-12{fill:#d3441e;}.cls-13{fill:#46494d;}.cls-14{fill:#42ba09;}.cls-15{fill:#e2951a;}.cls-16{fill:url(#未命名的渐变_171);}.cls-17{opacity:0.6;}.cls-18{fill:url(#未命名的渐变_180);}.cls-19{fill:url(#未命名的渐变_171-2);}.cls-20{fill:url(#未命名的渐变_180-2);}.cls-21{fill:url(#未命名的渐变_171-3);}.cls-22{fill:url(#未命名的渐变_180-3);}.cls-23{fill:url(#未命名的渐变_171-4);}.cls-24{fill:url(#未命名的渐变_180-4);}.cls-25{fill:url(#未命名的渐变_171-5);}.cls-26{fill:url(#未命名的渐变_180-5);}.cls-27{fill:url(#未命名的渐变_171-6);}.cls-28{fill:url(#未命名的渐变_180-6);}.cls-29{fill:url(#未命名的渐变_171-7);}.cls-30{fill:url(#未命名的渐变_180-7);}.cls-31{fill:url(#未命名的渐变_171-8);}.cls-32{fill:url(#未命名的渐变_180-8);}.cls-33{fill:url(#未命名的渐变_171-9);}.cls-34{fill:url(#未命名的渐变_180-9);}.cls-35{fill:url(#未命名的渐变_171-10);}.cls-36{fill:url(#未命名的渐变_180-10);}.cls-37{fill:url(#未命名的渐变_171-11);}.cls-38{fill:url(#未命名的渐变_180-11);}.cls-39{fill:url(#未命名的渐变_171-12);}.cls-40{fill:url(#未命名的渐变_180-12);}.cls-41{fill:url(#未命名的渐变_171-13);}.cls-42{fill:url(#未命名的渐变_180-13);}.cls-43{fill:url(#未命名的渐变_171-14);}.cls-44{fill:url(#未命名的渐变_180-14);}.cls-45{fill:url(#未命名的渐变_171-15);}.cls-46{fill:url(#未命名的渐变_180-15);}.cls-47{fill:url(#未命名的渐变_171-16);}.cls-48{fill:url(#未命名的渐变_180-16);}.cls-49{fill:url(#未命名的渐变_171-17);}.cls-50{fill:url(#未命名的渐变_180-17);}.cls-51{fill:url(#未命名的渐变_171-18);}.cls-52{fill:url(#未命名的渐变_180-18);}.cls-53{fill:url(#未命名的渐变_171-19);}.cls-54{fill:url(#未命名的渐变_180-19);}.cls-55{fill:url(#未命名的渐变_171-20);}.cls-56{fill:url(#未命名的渐变_180-20);}.cls-57{fill:url(#未命名的渐变_171-21);}.cls-58{fill:url(#未命名的渐变_180-21);}.cls-59{fill:url(#未命名的渐变_171-22);}.cls-60{fill:url(#未命名的渐变_180-22);}.cls-61{fill:url(#未命名的渐变_171-23);}.cls-62{fill:url(#未命名的渐变_180-23);}.cls-63{fill:url(#未命名的渐变_171-24);}.cls-64{fill:url(#未命名的渐变_180-24);}.cls-65{fill:url(#未命名的渐变_171-25);}.cls-66{fill:url(#未命名的渐变_180-25);}.cls-67{fill:url(#未命名的渐变_171-26);}.cls-68{fill:url(#未命名的渐变_180-26);}.cls-69{fill:url(#未命名的渐变_171-27);}.cls-70{fill:url(#未命名的渐变_180-27);}.cls-71{fill:url(#未命名的渐变_171-28);}.cls-72{fill:url(#未命名的渐变_180-28);}.cls-73{fill:url(#未命名的渐变_171-29);}.cls-74{fill:url(#未命名的渐变_180-29);}.cls-75{fill:url(#未命名的渐变_171-30);}.cls-76{fill:url(#未命名的渐变_180-30);}.cls-77{fill:url(#未命名的渐变_171-31);}.cls-78{fill:url(#未命名的渐变_180-31);}.cls-79{fill:url(#未命名的渐变_171-32);}.cls-80{fill:url(#未命名的渐变_180-32);}.cls-81{fill:url(#未命名的渐变_171-33);}.cls-82{fill:url(#未命名的渐变_180-33);}.cls-83{fill:url(#未命名的渐变_171-34);}.cls-84{fill:url(#未命名的渐变_180-34);}.cls-85{fill:url(#未命名的渐变_171-35);}.cls-86{fill:url(#未命名的渐变_180-35);}.cls-87{opacity:0.2;}</style><linearGradient id="未命名的渐变_20" x1="2.62" y1="16.12" x2="2.62" y2="31.37" gradientUnits="userSpaceOnUse"><stop offset="0" stop-color="#767b82"/><stop offset="0.07" stop-color="#9ba1ab"/><stop offset="0.22" stop-color="#e2eaf2"/><stop offset="0.94" stop-color="#5d6166"/><stop offset="1" stop-color="#a9b1bb"/></linearGradient><linearGradient id="未命名的渐变_20-2" x1="2.62" y1="59.76" x2="2.62" y2="75.01" xlink:href="#未命名的渐变_20"/><linearGradient id="未命名的渐变_20-3" x1="2.62" y1="111.69" x2="2.62" y2="120.14" xlink:href="#未命名的渐变_20"/><linearGradient id="未命名的渐变_59" x1="77.62" y1="125.03" x2="77.62" y2="0.13" gradientUnits="userSpaceOnUse"><stop offset="0" stop-color="#d7dce0"/><stop offset="1" stop-color="#8a9099"/></linearGradient><linearGradient id="未命名的渐变_126" x1="77.62" y1="3.91" x2="77.62" y2="125.03" gradientUnits="userSpaceOnUse"><stop offset="0" stop-color="#767b82"/><stop offset="0.02" stop-color="#9ba1ab"/><stop offset="0.04" stop-color="#e2eaf2"/><stop offset="0.06" stop-color="#a3abb3"/><stop offset="0.94" stop-color="#8b9199"/><stop offset="1" stop-color="#a9b1bb"/></linearGradient><linearGradient id="未命名的渐变_261" x1="77.62" y1="136.31" x2="77.62" y2="125.03" gradientUnits="userSpaceOnUse"><stop offset="0" stop-color="#939699"/><stop offset="1" stop-color="#737880"/></linearGradient><linearGradient id="未命名的渐变_252" x1="77.62" y1="125.03" x2="77.62" y2="88.28" gradientUnits="userSpaceOnUse"><stop offset="0" stop-color="#c4c8cc"/><stop offset="1" stop-color="#8a9099"/></linearGradient><linearGradient id="未命名的渐变_201" x1="78.18" y1="24.01" x2="78.18" y2="15.65" gradientUnits="userSpaceOnUse"><stop offset="0" stop-color="#e6f1ff" stop-opacity="0"/><stop offset="0.16" stop-color="#e6f1ff" stop-opacity="0.01"/><stop offset="0.29" stop-color="#e6f1ff" stop-opacity="0.05"/><stop offset="0.41" stop-color="#e7f1ff" stop-opacity="0.12"/><stop offset="0.53" stop-color="#e8f2ff" stop-opacity="0.21"/><stop offset="0.63" stop-color="#e9f2ff" stop-opacity="0.33"/><stop offset="0.74" stop-color="#eaf2ff" stop-opacity="0.48"/><stop offset="0.84" stop-color="#ebf3ff" stop-opacity="0.66"/><stop offset="0.94" stop-color="#edf4ff" stop-opacity="0.85"/><stop offset="1" stop-color="#eef4ff"/></linearGradient><linearGradient id="未命名的渐变_171" x1="26.49" y1="97.78" x2="26.49" y2="94.41" gradientUnits="userSpaceOnUse"><stop offset="0" stop-color="#7a7d80"/><stop offset="1" stop-color="#b7bfcc"/></linearGradient><linearGradient id="未命名的渐变_180" x1="26.49" y1="97.5" x2="26.49" y2="94.69" gradientUnits="userSpaceOnUse"><stop offset="0.55" stop-color="#7a7d80" stop-opacity="0"/><stop offset="1" stop-color="#e5efff"/></linearGradient><linearGradient id="未命名的渐变_171-2" x1="26.49" y1="103.12" x2="26.49" y2="99.75" xlink:href="#未命名的渐变_171"/><linearGradient id="未命名的渐变_180-2" x1="26.49" y1="102.84" x2="26.49" y2="100.03" xlink:href="#未命名的渐变_180"/><linearGradient id="未命名的渐变_171-3" x1="26.49" y1="108.46" x2="26.49" y2="105.09" xlink:href="#未命名的渐变_171"/><linearGradient id="未命名的渐变_180-3" x1="26.49" y1="108.18" x2="26.49" y2="105.37" xlink:href="#未命名的渐变_180"/><linearGradient id="未命名的渐变_171-4" x1="26.49" y1="113.8" x2="26.49" y2="110.43" xlink:href="#未命名的渐变_171"/><linearGradient id="未命名的渐变_180-4" x1="26.49" y1="113.52" x2="26.49" y2="110.71" xlink:href="#未命名的渐变_180"/><linearGradient id="未命名的渐变_171-5" x1="26.49" y1="119.14" x2="26.49" y2="115.77" xlink:href="#未命名的渐变_171"/><linearGradient id="未命名的渐变_180-5" x1="26.49" y1="118.86" x2="26.49" y2="116.05" xlink:href="#未命名的渐变_180"/><linearGradient id="未命名的渐变_171-6" x1="43.58" y1="97.78" x2="43.58" y2="94.41" xlink:href="#未命名的渐变_171"/><linearGradient id="未命名的渐变_180-6" x1="43.58" y1="97.5" x2="43.58" y2="94.69" xlink:href="#未命名的渐变_180"/><linearGradient id="未命名的渐变_171-7" x1="43.58" y1="103.12" x2="43.58" y2="99.75" xlink:href="#未命名的渐变_171"/><linearGradient id="未命名的渐变_180-7" x1="43.58" y1="102.84" x2="43.58" y2="100.03" xlink:href="#未命名的渐变_180"/><linearGradient id="未命名的渐变_171-8" x1="43.58" y1="108.46" x2="43.58" y2="105.09" xlink:href="#未命名的渐变_171"/><linearGradient id="未命名的渐变_180-8" x1="43.58" y1="108.18" x2="43.58" y2="105.37" xlink:href="#未命名的渐变_180"/><linearGradient id="未命名的渐变_171-9" x1="43.58" y1="113.8" x2="43.58" y2="110.43" xlink:href="#未命名的渐变_171"/><linearGradient id="未命名的渐变_180-9" x1="43.58" y1="113.52" x2="43.58" y2="110.71" xlink:href="#未命名的渐变_180"/><linearGradient id="未命名的渐变_171-10" x1="43.58" y1="119.14" x2="43.58" y2="115.77" xlink:href="#未命名的渐变_171"/><linearGradient id="未命名的渐变_180-10" x1="43.58" y1="118.86" x2="43.58" y2="116.05" xlink:href="#未命名的渐变_180"/><linearGradient id="未命名的渐变_171-11" x1="60.67" y1="97.78" x2="60.67" y2="94.41" xlink:href="#未命名的渐变_171"/><linearGradient id="未命名的渐变_180-11" x1="60.67" y1="97.5" x2="60.67" y2="94.69" xlink:href="#未命名的渐变_180"/><linearGradient id="未命名的渐变_171-12" x1="60.67" y1="103.12" x2="60.67" y2="99.75" xlink:href="#未命名的渐变_171"/><linearGradient id="未命名的渐变_180-12" x1="60.67" y1="102.84" x2="60.67" y2="100.03" xlink:href="#未命名的渐变_180"/><linearGradient id="未命名的渐变_171-13" x1="60.67" y1="108.46" x2="60.67" y2="105.09" xlink:href="#未命名的渐变_171"/><linearGradient id="未命名的渐变_180-13" x1="60.67" y1="108.18" x2="60.67" y2="105.37" xlink:href="#未命名的渐变_180"/><linearGradient id="未命名的渐变_171-14" x1="60.67" y1="113.8" x2="60.67" y2="110.43" xlink:href="#未命名的渐变_171"/><linearGradient id="未命名的渐变_180-14" x1="60.67" y1="113.52" x2="60.67" y2="110.71" xlink:href="#未命名的渐变_180"/><linearGradient id="未命名的渐变_171-15" x1="60.67" y1="119.14" x2="60.67" y2="115.77" xlink:href="#未命名的渐变_171"/><linearGradient id="未命名的渐变_180-15" x1="60.67" y1="118.86" x2="60.67" y2="116.05" xlink:href="#未命名的渐变_180"/><linearGradient id="未命名的渐变_171-16" x1="77.77" y1="97.78" x2="77.77" y2="94.41" xlink:href="#未命名的渐变_171"/><linearGradient id="未命名的渐变_180-16" x1="77.77" y1="97.5" x2="77.77" y2="94.69" xlink:href="#未命名的渐变_180"/><linearGradient id="未命名的渐变_171-17" x1="77.77" y1="103.12" x2="77.77" y2="99.75" xlink:href="#未命名的渐变_171"/><linearGradient id="未命名的渐变_180-17" x1="77.77" y1="102.84" x2="77.77" y2="100.03" xlink:href="#未命名的渐变_180"/><linearGradient id="未命名的渐变_171-18" x1="77.77" y1="108.46" x2="77.77" y2="105.09" xlink:href="#未命名的渐变_171"/><linearGradient id="未命名的渐变_180-18" x1="77.77" y1="108.18" x2="77.77" y2="105.37" xlink:href="#未命名的渐变_180"/><linearGradient id="未命名的渐变_171-19" x1="77.77" y1="113.8" x2="77.77" y2="110.43" xlink:href="#未命名的渐变_171"/><linearGradient id="未命名的渐变_180-19" x1="77.77" y1="113.52" x2="77.77" y2="110.71" xlink:href="#未命名的渐变_180"/><linearGradient id="未命名的渐变_171-20" x1="77.77" y1="119.14" x2="77.77" y2="115.77" xlink:href="#未命名的渐变_171"/><linearGradient id="未命名的渐变_180-20" x1="77.77" y1="118.86" x2="77.77" y2="116.05" xlink:href="#未命名的渐变_180"/><linearGradient id="未命名的渐变_171-21" x1="94.86" y1="97.78" x2="94.86" y2="94.41" xlink:href="#未命名的渐变_171"/><linearGradient id="未命名的渐变_180-21" x1="94.86" y1="97.5" x2="94.86" y2="94.69" xlink:href="#未命名的渐变_180"/><linearGradient id="未命名的渐变_171-22" x1="94.86" y1="103.12" x2="94.86" y2="99.75" xlink:href="#未命名的渐变_171"/><linearGradient id="未命名的渐变_180-22" x1="94.86" y1="102.84" x2="94.86" y2="100.03" xlink:href="#未命名的渐变_180"/><linearGradient id="未命名的渐变_171-23" x1="94.86" y1="108.46" x2="94.86" y2="105.09" xlink:href="#未命名的渐变_171"/><linearGradient id="未命名的渐变_180-23" x1="94.86" y1="108.18" x2="94.86" y2="105.37" xlink:href="#未命名的渐变_180"/><linearGradient id="未命名的渐变_171-24" x1="94.86" y1="113.8" x2="94.86" y2="110.43" xlink:href="#未命名的渐变_171"/><linearGradient id="未命名的渐变_180-24" x1="94.86" y1="113.52" x2="94.86" y2="110.71" xlink:href="#未命名的渐变_180"/><linearGradient id="未命名的渐变_171-25" x1="94.86" y1="119.14" x2="94.86" y2="115.77" xlink:href="#未命名的渐变_171"/><linearGradient id="未命名的渐变_180-25" x1="94.86" y1="118.86" x2="94.86" y2="116.05" xlink:href="#未命名的渐变_180"/><linearGradient id="未命名的渐变_171-26" x1="111.95" y1="97.78" x2="111.95" y2="94.41" xlink:href="#未命名的渐变_171"/><linearGradient id="未命名的渐变_180-26" x1="111.95" y1="97.5" x2="111.95" y2="94.69" xlink:href="#未命名的渐变_180"/><linearGradient id="未命名的渐变_171-27" x1="111.95" y1="103.12" x2="111.95" y2="99.75" xlink:href="#未命名的渐变_171"/><linearGradient id="未命名的渐变_180-27" x1="111.95" y1="102.84" x2="111.95" y2="100.03" xlink:href="#未命名的渐变_180"/><linearGradient id="未命名的渐变_171-28" x1="111.95" y1="108.46" x2="111.95" y2="105.09" xlink:href="#未命名的渐变_171"/><linearGradient id="未命名的渐变_180-28" x1="111.95" y1="108.18" x2="111.95" y2="105.37" xlink:href="#未命名的渐变_180"/><linearGradient id="未命名的渐变_171-29" x1="111.95" y1="113.8" x2="111.95" y2="110.43" xlink:href="#未命名的渐变_171"/><linearGradient id="未命名的渐变_180-29" x1="111.95" y1="113.52" x2="111.95" y2="110.71" xlink:href="#未命名的渐变_180"/><linearGradient id="未命名的渐变_171-30" x1="111.95" y1="119.14" x2="111.95" y2="115.77" xlink:href="#未命名的渐变_171"/><linearGradient id="未命名的渐变_180-30" x1="111.95" y1="118.86" x2="111.95" y2="116.05" xlink:href="#未命名的渐变_180"/><linearGradient id="未命名的渐变_171-31" x1="129.05" y1="97.78" x2="129.05" y2="94.41" xlink:href="#未命名的渐变_171"/><linearGradient id="未命名的渐变_180-31" x1="129.05" y1="97.5" x2="129.05" y2="94.69" xlink:href="#未命名的渐变_180"/><linearGradient id="未命名的渐变_171-32" x1="129.05" y1="103.12" x2="129.05" y2="99.75" xlink:href="#未命名的渐变_171"/><linearGradient id="未命名的渐变_180-32" x1="129.05" y1="102.84" x2="129.05" y2="100.03" xlink:href="#未命名的渐变_180"/><linearGradient id="未命名的渐变_171-33" x1="129.05" y1="108.46" x2="129.05" y2="105.09" xlink:href="#未命名的渐变_171"/><linearGradient id="未命名的渐变_180-33" x1="129.05" y1="108.18" x2="129.05" y2="105.37" xlink:href="#未命名的渐变_180"/><linearGradient id="未命名的渐变_171-34" x1="129.05" y1="113.8" x2="129.05" y2="110.43" xlink:href="#未命名的渐变_171"/><linearGradient id="未命名的渐变_180-34" x1="129.05" y1="113.52" x2="129.05" y2="110.71" xlink:href="#未命名的渐变_180"/><linearGradient id="未命名的渐变_171-35" x1="129.05" y1="119.14" x2="129.05" y2="115.77" xlink:href="#未命名的渐变_171"/><linearGradient id="未命名的渐变_180-35" x1="129.05" y1="118.86" x2="129.05" y2="116.05" xlink:href="#未命名的渐变_180"/></defs><title>Low emission boiler(低污染锅炉)</title><g id="图层_2" data-name="图层 2"><g id="图层_21" data-name="图层 21"><g id="Low_emission_boiler_低污染锅炉_" data-name="Low emission boiler(低污染锅炉)"><rect class="cls-1" y="16.12" width="5.25" height="15.25"/><rect class="cls-2" y="59.76" width="5.25" height="15.25"/><rect class="cls-3" y="111.69" width="5.25" height="8.45"/><rect class="cls-4" x="5.25" y="0.13" width="144.75" height="124.9"/><rect class="cls-5" x="8.81" y="3.91" width="137.62" height="121.11"/><rect class="cls-6" x="8.81" y="125.03" width="137.62" height="11.28"/><rect class="cls-7" x="8.81" y="88.28" width="137.62" height="36.75"/><rect class="cls-8" x="8.81" y="34.01" width="68.81" height="54.27"/><rect class="cls-8" x="77.62" y="34.01" width="68.81" height="54.27"/><rect class="cls-9" x="67.83" y="13.1" width="20.7" height="13.44"/><rect class="cls-10" x="70.07" y="15.65" width="16.23" height="8.36"/><polyline class="cls-11" points="70.07 24.01 70.07 15.65 86.29 15.65"/><path class="cls-12" d="M73.37,32.19a1.44,1.44,0,1,1,1.43-1.43A1.43,1.43,0,0,1,73.37,32.19Z"/><path class="cls-13" d="M73.37,29.44a1.32,1.32,0,1,1-1.32,1.32,1.32,1.32,0,0,1,1.32-1.32m0-.25a1.57,1.57,0,1,0,1.56,1.57,1.57,1.57,0,0,0-1.56-1.57Z"/><path class="cls-14" d="M78.09,32.19a1.44,1.44,0,1,1,1.43-1.43A1.43,1.43,0,0,1,78.09,32.19Z"/><path class="cls-13" d="M78.09,29.44a1.32,1.32,0,1,1-1.32,1.32,1.32,1.32,0,0,1,1.32-1.32m0-.25a1.57,1.57,0,1,0,1.56,1.57,1.57,1.57,0,0,0-1.56-1.57Z"/><path class="cls-15" d="M82.81,32.19a1.44,1.44,0,1,1,1.43-1.43A1.43,1.43,0,0,1,82.81,32.19Z"/><path class="cls-13" d="M82.81,29.44a1.32,1.32,0,1,1-1.32,1.32,1.32,1.32,0,0,1,1.32-1.32m0-.25a1.57,1.57,0,1,0,1.56,1.57,1.57,1.57,0,0,0-1.56-1.57Z"/><path class="cls-16" d="M23.62,94.41h5.74a2.18,2.18,0,0,1,2.18,2.18v1.19a0,0,0,0,1,0,0H21.44a0,0,0,0,1,0,0V96.6A2.18,2.18,0,0,1,23.62,94.41Z"/><g class="cls-17"><path class="cls-18" d="M31,97.5H22v-.9a1.91,1.91,0,0,1,1.9-1.91h5.15A1.92,1.92,0,0,1,31,96.6ZM22.55,97h7.87V96.6a1.36,1.36,0,0,0-1.36-1.36H23.91a1.36,1.36,0,0,0-1.36,1.36Z"/></g><path class="cls-19" d="M23.62,99.75h5.74a2.18,2.18,0,0,1,2.18,2.18v1.19a0,0,0,0,1,0,0H21.44a0,0,0,0,1,0,0v-1.19A2.18,2.18,0,0,1,23.62,99.75Z"/><g class="cls-17"><path class="cls-20" d="M31,102.84H22v-.9a1.91,1.91,0,0,1,1.9-1.91h5.15A1.92,1.92,0,0,1,31,101.94Zm-8.42-.54h7.87v-.36a1.36,1.36,0,0,0-1.36-1.36H23.91a1.36,1.36,0,0,0-1.36,1.36Z"/></g><path class="cls-21" d="M23.62,105.09h5.74a2.18,2.18,0,0,1,2.18,2.18v1.19a0,0,0,0,1,0,0H21.44a0,0,0,0,1,0,0v-1.19A2.18,2.18,0,0,1,23.62,105.09Z"/><g class="cls-17"><path class="cls-22" d="M31,108.18H22v-.9a1.91,1.91,0,0,1,1.9-1.91h5.15A1.92,1.92,0,0,1,31,107.28Zm-8.42-.54h7.87v-.36a1.36,1.36,0,0,0-1.36-1.36H23.91a1.36,1.36,0,0,0-1.36,1.36Z"/></g><path class="cls-23" d="M23.62,110.43h5.74a2.18,2.18,0,0,1,2.18,2.18v1.19a0,0,0,0,1,0,0H21.44a0,0,0,0,1,0,0v-1.19A2.18,2.18,0,0,1,23.62,110.43Z"/><g class="cls-17"><path class="cls-24" d="M31,113.52H22v-.9a1.91,1.91,0,0,1,1.9-1.91h5.15A1.92,1.92,0,0,1,31,112.62ZM22.55,113h7.87v-.36a1.36,1.36,0,0,0-1.36-1.36H23.91a1.36,1.36,0,0,0-1.36,1.36Z"/></g><path class="cls-25" d="M23.62,115.77h5.74A2.18,2.18,0,0,1,31.54,118v1.19a0,0,0,0,1,0,0H21.44a0,0,0,0,1,0,0V118A2.18,2.18,0,0,1,23.62,115.77Z"/><g class="cls-17"><path class="cls-26" d="M31,118.86H22V118a1.91,1.91,0,0,1,1.9-1.91h5.15A1.92,1.92,0,0,1,31,118Zm-8.42-.55h7.87V118a1.36,1.36,0,0,0-1.36-1.36H23.91A1.36,1.36,0,0,0,22.55,118Z"/></g><path class="cls-27" d="M40.71,94.41h5.74a2.18,2.18,0,0,1,2.18,2.18v1.19a0,0,0,0,1,0,0H38.53a0,0,0,0,1,0,0V96.6A2.18,2.18,0,0,1,40.71,94.41Z"/><g class="cls-17"><path class="cls-28" d="M48.06,97.5h-9v-.9A1.92,1.92,0,0,1,41,94.69h5.15a1.91,1.91,0,0,1,1.9,1.91ZM39.65,97h7.87V96.6a1.36,1.36,0,0,0-1.36-1.36H41a1.36,1.36,0,0,0-1.36,1.36Z"/></g><path class="cls-29" d="M40.71,99.75h5.74a2.18,2.18,0,0,1,2.18,2.18v1.19a0,0,0,0,1,0,0H38.53a0,0,0,0,1,0,0v-1.19A2.18,2.18,0,0,1,40.71,99.75Z"/><g class="cls-17"><path class="cls-30" d="M48.06,102.84h-9v-.9A1.92,1.92,0,0,1,41,100h5.15a1.91,1.91,0,0,1,1.9,1.91Zm-8.41-.54h7.87v-.36a1.36,1.36,0,0,0-1.36-1.36H41a1.36,1.36,0,0,0-1.36,1.36Z"/></g><path class="cls-31" d="M40.71,105.09h5.74a2.18,2.18,0,0,1,2.18,2.18v1.19a0,0,0,0,1,0,0H38.53a0,0,0,0,1,0,0v-1.19A2.18,2.18,0,0,1,40.71,105.09Z"/><g class="cls-17"><path class="cls-32" d="M48.06,108.18h-9v-.9A1.92,1.92,0,0,1,41,105.37h5.15a1.91,1.91,0,0,1,1.9,1.91Zm-8.41-.54h7.87v-.36a1.36,1.36,0,0,0-1.36-1.36H41a1.36,1.36,0,0,0-1.36,1.36Z"/></g><path class="cls-33" d="M40.71,110.43h5.74a2.18,2.18,0,0,1,2.18,2.18v1.19a0,0,0,0,1,0,0H38.53a0,0,0,0,1,0,0v-1.19A2.18,2.18,0,0,1,40.71,110.43Z"/><g class="cls-17"><path class="cls-34" d="M48.06,113.52h-9v-.9A1.92,1.92,0,0,1,41,110.71h5.15a1.91,1.91,0,0,1,1.9,1.91ZM39.65,113h7.87v-.36a1.36,1.36,0,0,0-1.36-1.36H41a1.36,1.36,0,0,0-1.36,1.36Z"/></g><path class="cls-35" d="M40.71,115.77h5.74A2.18,2.18,0,0,1,48.63,118v1.19a0,0,0,0,1,0,0H38.53a0,0,0,0,1,0,0V118A2.18,2.18,0,0,1,40.71,115.77Z"/><g class="cls-17"><path class="cls-36" d="M48.06,118.86h-9V118A1.92,1.92,0,0,1,41,116.05h5.15a1.91,1.91,0,0,1,1.9,1.91Zm-8.41-.55h7.87V118a1.36,1.36,0,0,0-1.36-1.36H41A1.36,1.36,0,0,0,39.65,118Z"/></g><path class="cls-37" d="M57.8,94.41h5.74a2.18,2.18,0,0,1,2.18,2.18v1.19a0,0,0,0,1,0,0H55.62a0,0,0,0,1,0,0V96.6A2.18,2.18,0,0,1,57.8,94.41Z"/><g class="cls-17"><path class="cls-38" d="M65.15,97.5h-9v-.9a1.91,1.91,0,0,1,1.9-1.91h5.15a1.91,1.91,0,0,1,1.9,1.91ZM56.74,97h7.87V96.6a1.36,1.36,0,0,0-1.36-1.36H58.1a1.36,1.36,0,0,0-1.36,1.36Z"/></g><path class="cls-39" d="M57.8,99.75h5.74a2.18,2.18,0,0,1,2.18,2.18v1.19a0,0,0,0,1,0,0H55.62a0,0,0,0,1,0,0v-1.19A2.18,2.18,0,0,1,57.8,99.75Z"/><g class="cls-17"><path class="cls-40" d="M65.15,102.84h-9v-.9A1.91,1.91,0,0,1,58.1,100h5.15a1.91,1.91,0,0,1,1.9,1.91Zm-8.41-.54h7.87v-.36a1.36,1.36,0,0,0-1.36-1.36H58.1a1.36,1.36,0,0,0-1.36,1.36Z"/></g><path class="cls-41" d="M57.8,105.09h5.74a2.18,2.18,0,0,1,2.18,2.18v1.19a0,0,0,0,1,0,0H55.62a0,0,0,0,1,0,0v-1.19A2.18,2.18,0,0,1,57.8,105.09Z"/><g class="cls-17"><path class="cls-42" d="M65.15,108.18h-9v-.9a1.91,1.91,0,0,1,1.9-1.91h5.15a1.91,1.91,0,0,1,1.9,1.91Zm-8.41-.54h7.87v-.36a1.36,1.36,0,0,0-1.36-1.36H58.1a1.36,1.36,0,0,0-1.36,1.36Z"/></g><path class="cls-43" d="M57.8,110.43h5.74a2.18,2.18,0,0,1,2.18,2.18v1.19a0,0,0,0,1,0,0H55.62a0,0,0,0,1,0,0v-1.19A2.18,2.18,0,0,1,57.8,110.43Z"/><g class="cls-17"><path class="cls-44" d="M65.15,113.52h-9v-.9a1.91,1.91,0,0,1,1.9-1.91h5.15a1.91,1.91,0,0,1,1.9,1.91ZM56.74,113h7.87v-.36a1.36,1.36,0,0,0-1.36-1.36H58.1a1.36,1.36,0,0,0-1.36,1.36Z"/></g><path class="cls-45" d="M57.8,115.77h5.74A2.18,2.18,0,0,1,65.73,118v1.19a0,0,0,0,1,0,0H55.62a0,0,0,0,1,0,0V118A2.18,2.18,0,0,1,57.8,115.77Z"/><g class="cls-17"><path class="cls-46" d="M65.15,118.86h-9V118a1.91,1.91,0,0,1,1.9-1.91h5.15a1.91,1.91,0,0,1,1.9,1.91Zm-8.41-.55h7.87V118a1.36,1.36,0,0,0-1.36-1.36H58.1A1.36,1.36,0,0,0,56.74,118Z"/></g><path class="cls-47" d="M74.9,94.41h5.74a2.18,2.18,0,0,1,2.18,2.18v1.19a0,0,0,0,1,0,0H72.71a0,0,0,0,1,0,0V96.6A2.18,2.18,0,0,1,74.9,94.41Z"/><g class="cls-17"><path class="cls-48" d="M82.25,97.5h-9v-.9a1.91,1.91,0,0,1,1.9-1.91h5.15a1.92,1.92,0,0,1,1.91,1.91ZM73.83,97H81.7V96.6a1.36,1.36,0,0,0-1.36-1.36H75.19a1.36,1.36,0,0,0-1.36,1.36Z"/></g><path class="cls-49" d="M74.9,99.75h5.74a2.18,2.18,0,0,1,2.18,2.18v1.19a0,0,0,0,1,0,0H72.71a0,0,0,0,1,0,0v-1.19A2.18,2.18,0,0,1,74.9,99.75Z"/><g class="cls-17"><path class="cls-50" d="M82.25,102.84h-9v-.9a1.91,1.91,0,0,1,1.9-1.91h5.15a1.92,1.92,0,0,1,1.91,1.91Zm-8.42-.54H81.7v-.36a1.36,1.36,0,0,0-1.36-1.36H75.19a1.36,1.36,0,0,0-1.36,1.36Z"/></g><path class="cls-51" d="M74.9,105.09h5.74a2.18,2.18,0,0,1,2.18,2.18v1.19a0,0,0,0,1,0,0H72.71a0,0,0,0,1,0,0v-1.19A2.18,2.18,0,0,1,74.9,105.09Z"/><g class="cls-17"><path class="cls-52" d="M82.25,108.18h-9v-.9a1.91,1.91,0,0,1,1.9-1.91h5.15a1.92,1.92,0,0,1,1.91,1.91Zm-8.42-.54H81.7v-.36a1.36,1.36,0,0,0-1.36-1.36H75.19a1.36,1.36,0,0,0-1.36,1.36Z"/></g><path class="cls-53" d="M74.9,110.43h5.74a2.18,2.18,0,0,1,2.18,2.18v1.19a0,0,0,0,1,0,0H72.71a0,0,0,0,1,0,0v-1.19A2.18,2.18,0,0,1,74.9,110.43Z"/><g class="cls-17"><path class="cls-54" d="M82.25,113.52h-9v-.9a1.91,1.91,0,0,1,1.9-1.91h5.15a1.92,1.92,0,0,1,1.91,1.91ZM73.83,113H81.7v-.36a1.36,1.36,0,0,0-1.36-1.36H75.19a1.36,1.36,0,0,0-1.36,1.36Z"/></g><path class="cls-55" d="M74.9,115.77h5.74A2.18,2.18,0,0,1,82.82,118v1.19a0,0,0,0,1,0,0H72.71a0,0,0,0,1,0,0V118A2.18,2.18,0,0,1,74.9,115.77Z"/><g class="cls-17"><path class="cls-56" d="M82.25,118.86h-9V118a1.91,1.91,0,0,1,1.9-1.91h5.15A1.92,1.92,0,0,1,82.25,118Zm-8.42-.55H81.7V118a1.36,1.36,0,0,0-1.36-1.36H75.19A1.36,1.36,0,0,0,73.83,118Z"/></g><path class="cls-57" d="M92,94.41h5.74a2.18,2.18,0,0,1,2.18,2.18v1.19a0,0,0,0,1,0,0H89.81a0,0,0,0,1,0,0V96.6A2.18,2.18,0,0,1,92,94.41Z"/><g class="cls-17"><path class="cls-58" d="M99.34,97.5h-9v-.9a1.92,1.92,0,0,1,1.91-1.91h5.15a1.91,1.91,0,0,1,1.9,1.91ZM90.93,97H98.8V96.6a1.36,1.36,0,0,0-1.36-1.36H92.29a1.36,1.36,0,0,0-1.36,1.36Z"/></g><path class="cls-59" d="M92,99.75h5.74a2.18,2.18,0,0,1,2.18,2.18v1.19a0,0,0,0,1,0,0H89.81a0,0,0,0,1,0,0v-1.19A2.18,2.18,0,0,1,92,99.75Z"/><g class="cls-17"><path class="cls-60" d="M99.34,102.84h-9v-.9A1.92,1.92,0,0,1,92.29,100h5.15a1.91,1.91,0,0,1,1.9,1.91Zm-8.41-.54H98.8v-.36a1.36,1.36,0,0,0-1.36-1.36H92.29a1.36,1.36,0,0,0-1.36,1.36Z"/></g><path class="cls-61" d="M92,105.09h5.74a2.18,2.18,0,0,1,2.18,2.18v1.19a0,0,0,0,1,0,0H89.81a0,0,0,0,1,0,0v-1.19A2.18,2.18,0,0,1,92,105.09Z"/><g class="cls-17"><path class="cls-62" d="M99.34,108.18h-9v-.9a1.92,1.92,0,0,1,1.91-1.91h5.15a1.91,1.91,0,0,1,1.9,1.91Zm-8.41-.54H98.8v-.36a1.36,1.36,0,0,0-1.36-1.36H92.29a1.36,1.36,0,0,0-1.36,1.36Z"/></g><path class="cls-63" d="M92,110.43h5.74a2.18,2.18,0,0,1,2.18,2.18v1.19a0,0,0,0,1,0,0H89.81a0,0,0,0,1,0,0v-1.19A2.18,2.18,0,0,1,92,110.43Z"/><g class="cls-17"><path class="cls-64" d="M99.34,113.52h-9v-.9a1.92,1.92,0,0,1,1.91-1.91h5.15a1.91,1.91,0,0,1,1.9,1.91ZM90.93,113H98.8v-.36a1.36,1.36,0,0,0-1.36-1.36H92.29a1.36,1.36,0,0,0-1.36,1.36Z"/></g><path class="cls-65" d="M92,115.77h5.74A2.18,2.18,0,0,1,99.91,118v1.19a0,0,0,0,1,0,0H89.81a0,0,0,0,1,0,0V118A2.18,2.18,0,0,1,92,115.77Z"/><g class="cls-17"><path class="cls-66" d="M99.34,118.86h-9V118a1.92,1.92,0,0,1,1.91-1.91h5.15a1.91,1.91,0,0,1,1.9,1.91Zm-8.41-.55H98.8V118a1.36,1.36,0,0,0-1.36-1.36H92.29A1.36,1.36,0,0,0,90.93,118Z"/></g><path class="cls-67" d="M109.08,94.41h5.74A2.18,2.18,0,0,1,117,96.6v1.19a0,0,0,0,1,0,0H106.9a0,0,0,0,1,0,0V96.6A2.18,2.18,0,0,1,109.08,94.41Z"/><g class="cls-17"><path class="cls-68" d="M116.43,97.5h-9v-.9a1.91,1.91,0,0,1,1.9-1.91h5.15a1.91,1.91,0,0,1,1.9,1.91ZM108,97h7.87V96.6a1.36,1.36,0,0,0-1.36-1.36h-5.15A1.36,1.36,0,0,0,108,96.6Z"/></g><path class="cls-69" d="M109.08,99.75h5.74a2.18,2.18,0,0,1,2.18,2.18v1.19a0,0,0,0,1,0,0H106.9a0,0,0,0,1,0,0v-1.19A2.18,2.18,0,0,1,109.08,99.75Z"/><g class="cls-17"><path class="cls-70" d="M116.43,102.84h-9v-.9a1.91,1.91,0,0,1,1.9-1.91h5.15a1.91,1.91,0,0,1,1.9,1.91ZM108,102.3h7.87v-.36a1.36,1.36,0,0,0-1.36-1.36h-5.15a1.36,1.36,0,0,0-1.36,1.36Z"/></g><path class="cls-71" d="M109.08,105.09h5.74a2.18,2.18,0,0,1,2.18,2.18v1.19a0,0,0,0,1,0,0H106.9a0,0,0,0,1,0,0v-1.19A2.18,2.18,0,0,1,109.08,105.09Z"/><g class="cls-17"><path class="cls-72" d="M116.43,108.18h-9v-.9a1.91,1.91,0,0,1,1.9-1.91h5.15a1.91,1.91,0,0,1,1.9,1.91Zm-8.41-.54h7.87v-.36a1.36,1.36,0,0,0-1.36-1.36h-5.15a1.36,1.36,0,0,0-1.36,1.36Z"/></g><path class="cls-73" d="M109.08,110.43h5.74a2.18,2.18,0,0,1,2.18,2.18v1.19a0,0,0,0,1,0,0H106.9a0,0,0,0,1,0,0v-1.19A2.18,2.18,0,0,1,109.08,110.43Z"/><g class="cls-17"><path class="cls-74" d="M116.43,113.52h-9v-.9a1.91,1.91,0,0,1,1.9-1.91h5.15a1.91,1.91,0,0,1,1.9,1.91ZM108,113h7.87v-.36a1.36,1.36,0,0,0-1.36-1.36h-5.15a1.36,1.36,0,0,0-1.36,1.36Z"/></g><path class="cls-75" d="M109.08,115.77h5.74A2.18,2.18,0,0,1,117,118v1.19a0,0,0,0,1,0,0H106.9a0,0,0,0,1,0,0V118A2.18,2.18,0,0,1,109.08,115.77Z"/><g class="cls-17"><path class="cls-76" d="M116.43,118.86h-9V118a1.91,1.91,0,0,1,1.9-1.91h5.15a1.91,1.91,0,0,1,1.9,1.91Zm-8.41-.55h7.87V118a1.36,1.36,0,0,0-1.36-1.36h-5.15A1.36,1.36,0,0,0,108,118Z"/></g><path class="cls-77" d="M126.18,94.41h5.74a2.18,2.18,0,0,1,2.18,2.18v1.19a0,0,0,0,1,0,0H124a0,0,0,0,1,0,0V96.6A2.18,2.18,0,0,1,126.18,94.41Z"/><g class="cls-17"><path class="cls-78" d="M133.53,97.5h-9v-.9a1.91,1.91,0,0,1,1.9-1.91h5.15a1.92,1.92,0,0,1,1.91,1.91ZM125.11,97H133V96.6a1.36,1.36,0,0,0-1.36-1.36h-5.15a1.36,1.36,0,0,0-1.36,1.36Z"/></g><path class="cls-79" d="M126.18,99.75h5.74a2.18,2.18,0,0,1,2.18,2.18v1.19a0,0,0,0,1,0,0H124a0,0,0,0,1,0,0v-1.19A2.18,2.18,0,0,1,126.18,99.75Z"/><g class="cls-17"><path class="cls-80" d="M133.53,102.84h-9v-.9a1.91,1.91,0,0,1,1.9-1.91h5.15a1.92,1.92,0,0,1,1.91,1.91Zm-8.42-.54H133v-.36a1.36,1.36,0,0,0-1.36-1.36h-5.15a1.36,1.36,0,0,0-1.36,1.36Z"/></g><path class="cls-81" d="M126.18,105.09h5.74a2.18,2.18,0,0,1,2.18,2.18v1.19a0,0,0,0,1,0,0H124a0,0,0,0,1,0,0v-1.19A2.18,2.18,0,0,1,126.18,105.09Z"/><g class="cls-17"><path class="cls-82" d="M133.53,108.18h-9v-.9a1.91,1.91,0,0,1,1.9-1.91h5.15a1.92,1.92,0,0,1,1.91,1.91Zm-8.42-.54H133v-.36a1.36,1.36,0,0,0-1.36-1.36h-5.15a1.36,1.36,0,0,0-1.36,1.36Z"/></g><path class="cls-83" d="M126.18,110.43h5.74a2.18,2.18,0,0,1,2.18,2.18v1.19a0,0,0,0,1,0,0H124a0,0,0,0,1,0,0v-1.19A2.18,2.18,0,0,1,126.18,110.43Z"/><g class="cls-17"><path class="cls-84" d="M133.53,113.52h-9v-.9a1.91,1.91,0,0,1,1.9-1.91h5.15a1.92,1.92,0,0,1,1.91,1.91Zm-8.42-.54H133v-.36a1.36,1.36,0,0,0-1.36-1.36h-5.15a1.36,1.36,0,0,0-1.36,1.36Z"/></g><path class="cls-85" d="M126.18,115.77h5.74A2.18,2.18,0,0,1,134.1,118v1.19a0,0,0,0,1,0,0H124a0,0,0,0,1,0,0V118A2.18,2.18,0,0,1,126.18,115.77Z"/><g class="cls-17"><path class="cls-86" d="M133.53,118.86h-9V118a1.91,1.91,0,0,1,1.9-1.91h5.15a1.92,1.92,0,0,1,1.91,1.91Zm-8.42-.55H133V118a1.36,1.36,0,0,0-1.36-1.36h-5.15a1.36,1.36,0,0,0-1.36,1.36Z"/></g></g></g></g></svg>