<svg xmlns="http://www.w3.org/2000/svg" xmlns:xlink="http://www.w3.org/1999/xlink" viewBox="0 0 88.21 150"><defs><style>.cls-1{fill:url(#未命名的渐变_20);}.cls-2{fill:url(#未命名的渐变_20-2);}.cls-3{fill:url(#未命名的渐变_20-3);}.cls-4{fill:url(#未命名的渐变_20-4);}.cls-5{fill:url(#未命名的渐变_20-5);}.cls-6{fill:url(#未命名的渐变_37);}.cls-7{fill:url(#未命名的渐变_10);}.cls-8{fill:url(#未命名的渐变_40);}.cls-9{fill:url(#未命名的渐变_19);}.cls-10{fill:url(#未命名的渐变_241);}.cls-11{fill:#a3b372;}.cls-12{fill:#646e46;}.cls-13{stroke:#505458;stroke-miterlimit:10;stroke-width:0.16px;fill:url(#未命名的渐变_303);}.cls-14{fill:#505458;}.cls-15{fill:#fff;opacity:0.1;}.cls-16{fill:url(#未命名的渐变_20-6);}.cls-17{fill:url(#未命名的渐变_20-7);}.cls-18{fill:#6b7076;opacity:0.5;}.cls-19{opacity:0.2;}</style><linearGradient id="未命名的渐变_20" x1="81.71" y1="25.51" x2="81.71" y2="30.69" gradientUnits="userSpaceOnUse"><stop offset="0" stop-color="#767b82"/><stop offset="0.07" stop-color="#9ba1ab"/><stop offset="0.22" stop-color="#e2eaf2"/><stop offset="0.94" stop-color="#5d6166"/><stop offset="1" stop-color="#a9b1bb"/></linearGradient><linearGradient id="未命名的渐变_20-2" x1="81.71" y1="32.97" x2="81.71" y2="38.15" xlink:href="#未命名的渐变_20"/><linearGradient id="未命名的渐变_20-3" x1="73.99" y1="24.06" x2="73.99" y2="39.6" xlink:href="#未命名的渐变_20"/><linearGradient id="未命名的渐变_20-4" x1="83.59" y1="93.33" x2="83.59" y2="150" xlink:href="#未命名的渐变_20"/><linearGradient id="未命名的渐变_20-5" x1="4.61" y1="93.33" x2="4.61" y2="150" xlink:href="#未命名的渐变_20"/><linearGradient id="未命名的渐变_37" x1="38.07" y1="85.82" x2="49.42" y2="85.82" gradientUnits="userSpaceOnUse"><stop offset="0" stop-color="#a9b1bb"/><stop offset="0.06" stop-color="#5d6166"/><stop offset="0.78" stop-color="#e2eaf2"/><stop offset="0.93" stop-color="#9ba1ab"/><stop offset="1" stop-color="#767b82"/></linearGradient><linearGradient id="未命名的渐变_10" x1="30.46" y1="69.41" x2="57.03" y2="69.41" gradientTransform="matrix(1, 0, 0, -2.73, 0, 253.36)" gradientUnits="userSpaceOnUse"><stop offset="0" stop-color="#7a8088"/><stop offset="0.09" stop-color="#2d2f33"/><stop offset="0.16" stop-color="#35373b"/><stop offset="0.27" stop-color="#4a4d51"/><stop offset="0.41" stop-color="#6d7176"/><stop offset="0.56" stop-color="#9da3a8"/><stop offset="0.62" stop-color="#b0b7bc"/><stop offset="0.93" stop-color="#6d7177"/><stop offset="1" stop-color="#5c6067"/></linearGradient><linearGradient id="未命名的渐变_40" x1="44.16" y1="63.66" x2="44.16" gradientUnits="userSpaceOnUse"><stop offset="0" stop-color="#a1a8b3"/><stop offset="1" stop-color="#f5faff"/></linearGradient><linearGradient id="未命名的渐变_19" x1="47.26" y1="35.35" x2="35.65" y2="23.74" gradientUnits="userSpaceOnUse"><stop offset="0" stop-color="#e6f1ff" stop-opacity="0"/><stop offset="0.26" stop-color="#e6f1ff" stop-opacity="0.01"/><stop offset="0.4" stop-color="#e6f1ff" stop-opacity="0.04"/><stop offset="0.51" stop-color="#e7f1ff" stop-opacity="0.09"/><stop offset="0.6" stop-color="#e7f2ff" stop-opacity="0.17"/><stop offset="0.69" stop-color="#e8f2ff" stop-opacity="0.26"/><stop offset="0.76" stop-color="#e9f2ff" stop-opacity="0.38"/><stop offset="0.83" stop-color="#eaf3ff" stop-opacity="0.53"/><stop offset="0.9" stop-color="#ecf3ff" stop-opacity="0.69"/><stop offset="0.96" stop-color="#edf4ff" stop-opacity="0.87"/><stop offset="1" stop-color="#eef4ff"/></linearGradient><linearGradient id="未命名的渐变_241" x1="43.75" y1="53.3" x2="43.75" y2="10.36" gradientUnits="userSpaceOnUse"><stop offset="0" stop-color="#494a4d"/><stop offset="1" stop-color="#17181a"/></linearGradient><linearGradient id="未命名的渐变_303" x1="896.92" y1="-90.89" x2="896.92" y2="-87.79" gradientTransform="translate(-526.89 763.59) rotate(-45)" gradientUnits="userSpaceOnUse"><stop offset="0" stop-color="#9ba1ab"/><stop offset="0" stop-color="#abb1ba"/><stop offset="0.09" stop-color="#abb1ba"/><stop offset="0.46" stop-color="#f5faff"/><stop offset="1" stop-color="#a9b1bb"/></linearGradient><linearGradient id="未命名的渐变_20-6" x1="44.1" y1="104.55" x2="44.1" y2="138.78" xlink:href="#未命名的渐变_20"/><linearGradient id="未命名的渐变_20-7" x1="44.15" y1="98.19" x2="44.15" y2="145.14" xlink:href="#未命名的渐变_20"/></defs><title>Magnetic flowmeter 1(磁力流量计1)</title><g id="图层_2" data-name="图层 2"><g id="图层_16" data-name="图层 16"><g id="Magnetic_flowmeter_1_磁力流量计1_" data-name="Magnetic flowmeter 1(磁力流量计1)"><rect class="cls-1" x="78.98" y="25.51" width="5.46" height="5.18"/><rect class="cls-2" x="78.98" y="32.97" width="5.46" height="5.18"/><rect class="cls-3" x="66.22" y="24.06" width="15.54" height="15.54"/><rect class="cls-4" x="78.98" y="93.33" width="9.23" height="56.67"/><rect class="cls-5" y="93.33" width="9.23" height="56.67"/><rect class="cls-6" x="38.07" y="56.16" width="11.35" height="59.33"/><rect class="cls-7" x="30.46" y="53.3" width="26.57" height="20.73"/><path class="cls-8" d="M47.68,1.71l1-1.71L56.2,2l0,2,6.11,3.53L64,6.5,69.48,12l-1,1.67L72,19.82l1.95,0,2,7.56-1.71.95v7.06l1.71,1-2,7.56-1.95,0L68.48,50l1,1.67L64,57.16l-1.68-1-6.11,3.53,0,2-7.57,2-1-1.71h-7l-1,1.71-7.56-2,0-2L26,56.15l-1.67,1-5.54-5.54,1-1.67-3.52-6.11-2,0-2-7.56,1.7-1V28.3l-1.7-.95,2-7.56,2,0,3.52-6.11-1-1.67L24.37,6.5l1.67,1L32.15,4l0-1.95,7.56-2,1,1.71Z"/><polygon class="cls-9" points="32.13 36.4 32.13 27.26 55.35 27.26 32.13 36.4"/><path class="cls-10" d="M65.21,31.84A21.47,21.47,0,1,1,43.74,10.36,21.49,21.49,0,0,1,65.21,31.84Z"/><rect class="cls-11" x="26.77" y="25.76" width="33.95" height="12.16"/><path class="cls-12" d="M60.44,26V37.63H27.05V26H60.44m.56-.56H26.49V38.19H61V25.48Z"/><circle class="cls-13" cx="44.16" cy="66.2" r="1.55"/><path class="cls-14" d="M43.41,66.78l.6-.6-.6-.6.13-.13.6.6.6-.6.1.11-.6.6.67.66-.13.13-.66-.67-.6.61Z"/><path class="cls-15" d="M59,16.7c-.29.64-.57,1.29-.89,1.93A59,59,0,0,1,30.54,46.16c-.48.24-1,.47-1.47.7l-.44.2A21.46,21.46,0,1,1,59,16.7Z"/><path class="cls-15" d="M58.09,18.63A59,59,0,0,1,30.54,46.16c-7.63-8.1-7.87-20.51-.42-28S50,11,58.09,18.63Z"/><rect class="cls-16" x="9.23" y="104.55" width="69.75" height="34.23"/><rect class="cls-17" x="24.04" y="98.19" width="40.23" height="46.95"/><polygon class="cls-18" points="54 121.67 49.13 119.16 49.13 120.2 34.21 120.2 34.21 123.13 49.13 123.13 49.13 124.17 54 121.67"/></g></g></g></svg>