<svg xmlns="http://www.w3.org/2000/svg" xmlns:xlink="http://www.w3.org/1999/xlink" viewBox="0 0 49.75 150"><defs><style>.cls-1{fill:url(#未命名的渐变_132);}.cls-2{fill:url(#未命名的渐变_370);}.cls-3{fill:url(#未命名的渐变_59);}.cls-4{fill:url(#未命名的渐变_59-2);}.cls-5{fill:url(#未命名的渐变_59-3);}.cls-6{fill:url(#未命名的渐变_19);}.cls-7{fill:url(#未命名的渐变_297);}.cls-8{fill:url(#未命名的渐变_297-2);}.cls-9{fill:url(#未命名的渐变_297-3);}.cls-10{fill:url(#未命名的渐变_297-4);}.cls-11,.cls-21{fill:#fff;}.cls-11{opacity:0.6;}.cls-12{fill:url(#未命名的渐变_323);}.cls-13{fill:url(#未命名的渐变_241);}.cls-14{fill:#a3b372;}.cls-15{fill:#646e46;}.cls-16,.cls-18,.cls-19,.cls-20{stroke:#505458;stroke-miterlimit:10;stroke-width:0.09px;}.cls-16{fill:url(#未命名的渐变_303);}.cls-17{fill:#505458;}.cls-18{fill:url(#未命名的渐变_303-2);}.cls-19{fill:url(#未命名的渐变_303-3);}.cls-20{fill:url(#未命名的渐变_303-4);}.cls-21{opacity:0.1;}.cls-22{opacity:0.2;}</style><linearGradient id="未命名的渐变_132" x1="20.7" y1="98.63" x2="29.04" y2="98.63" gradientUnits="userSpaceOnUse"><stop offset="0" stop-color="#a9b1bb"/><stop offset="0.06" stop-color="#5d6166"/><stop offset="0.78" stop-color="#e2eaf2"/><stop offset="0.93" stop-color="#9ba1ab"/><stop offset="1" stop-color="#767b82"/></linearGradient><linearGradient id="未命名的渐变_370" x1="17.98" y1="57.69" x2="31.77" y2="57.69" gradientUnits="userSpaceOnUse"><stop offset="0" stop-color="#63686e"/><stop offset="0.09" stop-color="#17181a"/><stop offset="0.16" stop-color="#1f2022"/><stop offset="0.27" stop-color="#343638"/><stop offset="0.41" stop-color="#56595d"/><stop offset="0.56" stop-color="#858a8f"/><stop offset="0.62" stop-color="#989ea3"/><stop offset="0.93" stop-color="#56595e"/><stop offset="1" stop-color="#45484d"/></linearGradient><linearGradient id="未命名的渐变_59" x1="35.13" y1="-1.92" x2="14.62" y2="18.59" gradientUnits="userSpaceOnUse"><stop offset="0" stop-color="#d7dce0"/><stop offset="1" stop-color="#8a9099"/></linearGradient><linearGradient id="未命名的渐变_59-2" x1="48.36" y1="1.79" x2="35.26" y2="14.88" xlink:href="#未命名的渐变_59"/><linearGradient id="未命名的渐变_59-3" x1="-1598.34" y1="1.79" x2="-1611.43" y2="14.88" gradientTransform="matrix(-1, 0, 0, 1, -1596.91, 0)" xlink:href="#未命名的渐变_59"/><linearGradient id="未命名的渐变_19" x1="27.83" y1="27.84" x2="18.06" y2="18.07" gradientUnits="userSpaceOnUse"><stop offset="0" stop-color="#e6f1ff" stop-opacity="0"/><stop offset="0.26" stop-color="#e6f1ff" stop-opacity="0.01"/><stop offset="0.4" stop-color="#e6f1ff" stop-opacity="0.04"/><stop offset="0.51" stop-color="#e7f1ff" stop-opacity="0.09"/><stop offset="0.6" stop-color="#e7f2ff" stop-opacity="0.17"/><stop offset="0.69" stop-color="#e8f2ff" stop-opacity="0.26"/><stop offset="0.76" stop-color="#e9f2ff" stop-opacity="0.38"/><stop offset="0.83" stop-color="#eaf3ff" stop-opacity="0.53"/><stop offset="0.9" stop-color="#ecf3ff" stop-opacity="0.69"/><stop offset="0.96" stop-color="#edf4ff" stop-opacity="0.87"/><stop offset="1" stop-color="#eef4ff"/></linearGradient><linearGradient id="未命名的渐变_297" x1="-365.4" y1="-1113.68" x2="-365.4" y2="-1127.46" gradientTransform="translate(390.27 1173.18)" gradientUnits="userSpaceOnUse"><stop offset="0" stop-color="#676b70"/><stop offset="0.02" stop-color="#484b4d"/><stop offset="0.19" stop-color="#747980"/><stop offset="0.2" stop-color="#d1d5db"/><stop offset="0.79" stop-color="#c7cfdb"/><stop offset="0.8" stop-color="#edf5ff"/><stop offset="0.81" stop-color="#c3c7cc"/><stop offset="1" stop-color="#929599"/></linearGradient><linearGradient id="未命名的渐变_297-2" x1="-356.15" y1="-1114.97" x2="-356.15" y2="-1126.17" gradientTransform="translate(381.03 1182.43)" xlink:href="#未命名的渐变_297"/><linearGradient id="未命名的渐变_297-3" x1="-305.85" y1="-1114.97" x2="-305.85" y2="-1126.17" gradientTransform="translate(330.72 1232.73)" xlink:href="#未命名的渐变_297"/><linearGradient id="未命名的渐变_297-4" x1="-296.32" y1="-1114.97" x2="-296.32" y2="-1126.17" gradientTransform="translate(321.2 1242.26)" xlink:href="#未命名的渐变_297"/><linearGradient id="未命名的渐变_323" x1="24.87" y1="49.75" x2="24.87" gradientUnits="userSpaceOnUse"><stop offset="0" stop-color="#5c6066"/><stop offset="1" stop-color="#f5faff"/></linearGradient><linearGradient id="未命名的渐变_241" x1="24.87" y1="42.94" x2="24.87" y2="6.81" gradientUnits="userSpaceOnUse"><stop offset="0" stop-color="#494a4d"/><stop offset="1" stop-color="#17181a"/></linearGradient><linearGradient id="未命名的渐变_303" x1="984.99" y1="-927.64" x2="984.99" y2="-925.96" gradientTransform="translate(-1349.84 -16.43) rotate(45)" gradientUnits="userSpaceOnUse"><stop offset="0" stop-color="#9ba1ab"/><stop offset="0" stop-color="#abb1ba"/><stop offset="0.09" stop-color="#abb1ba"/><stop offset="0.46" stop-color="#f5faff"/><stop offset="1" stop-color="#a9b1bb"/></linearGradient><linearGradient id="未命名的渐变_303-2" x1="1017.65" y1="-960.3" x2="1017.65" y2="-958.62" xlink:href="#未命名的渐变_303"/><linearGradient id="未命名的渐变_303-3" x1="995.59" y1="-927.38" x2="995.59" y2="-925.69" gradientTransform="translate(-23.73 1406.96) rotate(-45)" xlink:href="#未命名的渐变_303"/><linearGradient id="未命名的渐变_303-4" x1="1028.25" y1="-960.04" x2="1028.25" y2="-958.36" gradientTransform="translate(-23.73 1406.96) rotate(-45)" xlink:href="#未命名的渐变_303"/></defs><title>Mass flowmeter(质量流量计)</title><g id="图层_2" data-name="图层 2"><g id="图层_16" data-name="图层 16"><g id="Mass_flowmeter_质量流量计_" data-name="Mass flowmeter(质量流量计)"><rect class="cls-1" x="20.7" y="47.26" width="8.34" height="102.74"/><rect class="cls-2" x="17.98" y="56.86" width="13.79" height="1.66"/><rect class="cls-3" x="12.69" width="24.35" height="16.67"/><polygon class="cls-4" points="46.57 16.67 37.05 16.67 37.05 0 48.19 1.62 48.19 13.44 46.57 16.67"/><polygon class="cls-5" points="3.22 16.67 12.74 16.67 12.74 0 1.6 1.62 1.6 13.44 3.22 16.67"/><polygon class="cls-6" points="15.1 28.72 15.1 21.03 34.64 21.03 15.1 28.72"/><rect class="cls-7" x="20.63" y="45.72" width="8.49" height="13.79" transform="translate(77.49 27.74) rotate(90)"/><rect class="cls-8" x="21.52" y="56.26" width="6.7" height="11.2" transform="translate(86.73 36.99) rotate(90)"/><rect class="cls-9" x="21.52" y="106.56" width="6.7" height="11.2" transform="translate(137.04 87.29) rotate(90)"/><rect class="cls-10" x="21.52" y="116.09" width="6.7" height="11.2" transform="translate(146.56 96.82) rotate(90)"/><polygon class="cls-11" points="48.19 5.56 37.05 5.56 37.05 3.19 48.19 4 48.19 5.56"/><polygon class="cls-11" points="12.74 5.56 1.6 5.56 1.6 4 12.74 3.19 12.74 5.56"/><path class="cls-12" d="M49.67,22.88A24.87,24.87,0,0,0,27.1.11,20.56,20.56,0,0,0,24.87,0Q24,0,23.1.06a24.88,24.88,0,0,0-23,22.82c-.06.65-.08,1.33-.08,2s0,1.34.08,2a24.86,24.86,0,0,0,23,22.81c.58,0,1.17.07,1.77.07s1.5,0,2.23-.1A24.89,24.89,0,0,0,49.67,26.87c0-.65.08-1.32.08-2S49.72,23.53,49.67,22.88ZM24.87,42.94A18.07,18.07,0,1,1,42.94,24.88,18.08,18.08,0,0,1,24.87,42.94Z"/><path class="cls-11" d="M49.75,24.88c0,.67,0,1.34-.08,2H45.82A21.07,21.07,0,0,1,27.1,45.79v3.86c-.73.07-1.48.1-2.23.1s-1.19,0-1.77-.07V45.84a21.1,21.1,0,0,1-19.17-19H.08C0,26.22,0,25.55,0,24.88s0-1.35.08-2H3.93a21.09,21.09,0,0,1,19.17-19V.06Q24,0,24.87,0A20.56,20.56,0,0,1,27.1.11V4A21.1,21.1,0,0,1,45.82,22.88h3.85C49.72,23.53,49.75,24.21,49.75,24.88Z"/><path class="cls-13" d="M42.94,24.88A18.07,18.07,0,1,1,24.87,6.81,18.09,18.09,0,0,1,42.94,24.88Z"/><rect class="cls-14" x="14.88" y="20.81" width="19.99" height="8.13"/><path class="cls-15" d="M34.64,21v7.69H15.1V21H34.64m.45-.44H14.66v8.57H35.09V20.59Z"/><circle class="cls-16" cx="2" cy="24.72" r="0.84"/><path class="cls-17" d="M1.69,24.31l.32.33.33-.33.07.07-.33.33.33.32-.06.06L2,24.77l-.36.36-.06-.07L2,24.7l-.33-.33Z"/><circle class="cls-18" cx="48.19" cy="24.72" r="0.84"/><path class="cls-17" d="M47.88,24.31l.33.33.32-.33.07.07-.33.33.33.32-.06.06-.32-.32-.36.36-.07-.07.36-.36-.33-.33Z"/><circle class="cls-19" cx="25.1" cy="47.81" r="0.84"/><path class="cls-17" d="M24.69,48.13,25,47.8l-.33-.32.07-.07.33.32.32-.32.06.06-.32.32.35.36-.06.07-.36-.36-.33.33Z"/><circle class="cls-20" cx="25.1" cy="1.62" r="0.84"/><path class="cls-17" d="M24.69,1.94,25,1.61l-.33-.33.07-.06.33.32.32-.32.06.05-.32.33L25.5,2,25.44,2l-.36-.36L24.75,2Z"/><path class="cls-21" d="M37.7,12.14c-.24.54-.49,1.09-.75,1.62A49.7,49.7,0,0,1,13.76,36.94c-.4.2-.82.39-1.24.58l-.37.17A18.07,18.07,0,1,1,37.7,12.14Z"/><path class="cls-21" d="M37,13.76A49.7,49.7,0,0,1,13.76,36.94C7.33,30.11,7.13,19.68,13.4,13.4S30.12,7.33,37,13.76Z"/></g></g></g></svg>