<svg xmlns="http://www.w3.org/2000/svg" xmlns:xlink="http://www.w3.org/1999/xlink" viewBox="0 0 108.23 150"><defs><style>.cls-1{isolation:isolate;}.cls-2{fill:url(#未命名的渐变_79);}.cls-3{fill:url(#未命名的渐变_61);}.cls-4{fill:url(#未命名的渐变_45);}.cls-5{fill:url(#未命名的渐变_67);}.cls-6{fill:url(#未命名的渐变_79-2);}.cls-7{fill:url(#未命名的渐变_61-2);}.cls-8{fill:url(#未命名的渐变_45-2);}.cls-9{fill:url(#未命名的渐变_79-3);}.cls-10{fill:url(#未命名的渐变_61-3);}.cls-11{fill:url(#未命名的渐变_45-3);}.cls-12{fill:url(#未命名的渐变_10);}.cls-13{fill:url(#未命名的渐变_106);}.cls-14{fill:url(#未命名的渐变_14);}.cls-15{fill:url(#未命名的渐变_84);}.cls-16{fill:url(#未命名的渐变_96);}.cls-17{fill:url(#未命名的渐变_109);}.cls-18{opacity:0.6;fill:url(#未命名的渐变_80);}.cls-19{fill:url(#未命名的渐变_61-4);}.cls-20{opacity:0.2;}</style><linearGradient id="未命名的渐变_79" x1="17.43" y1="150" x2="17.43" y2="42.64" gradientUnits="userSpaceOnUse"><stop offset="0" stop-color="#b8c0cc"/><stop offset="1" stop-color="#7a8599"/></linearGradient><linearGradient id="未命名的渐变_61" x1="34.07" y1="149.69" x2="108.77" y2="20.3" gradientUnits="userSpaceOnUse"><stop offset="0" stop-color="#8e9bb3"/><stop offset="1" stop-color="#474e66"/></linearGradient><linearGradient id="未命名的渐变_45" x1="21.58" y1="63.97" x2="86.89" y2="-1.35" gradientUnits="userSpaceOnUse"><stop offset="0" stop-color="#e1e4e6"/><stop offset="1" stop-color="#b8c0cc"/></linearGradient><linearGradient id="未命名的渐变_67" x1="1.46" y1="124.57" x2="34.59" y2="67.19" gradientUnits="userSpaceOnUse"><stop offset="0" stop-color="#b8c0cc"/><stop offset="1" stop-color="#5a6380"/></linearGradient><linearGradient id="未命名的渐变_79-2" x1="14.38" y1="71.96" x2="18.28" y2="65.19" xlink:href="#未命名的渐变_79"/><linearGradient id="未命名的渐变_61-2" x1="24.59" y1="77.86" x2="29.6" y2="69.17" xlink:href="#未命名的渐变_61"/><linearGradient id="未命名的渐变_45-2" x1="14.53" y1="66.34" x2="20.36" y2="60.52" xlink:href="#未命名的渐变_45"/><linearGradient id="未命名的渐变_79-3" x1="14.38" y1="87.35" x2="18.28" y2="80.58" xlink:href="#未命名的渐变_79"/><linearGradient id="未命名的渐变_61-3" x1="24.59" y1="93.25" x2="29.6" y2="84.57" xlink:href="#未命名的渐变_61"/><linearGradient id="未命名的渐变_45-3" x1="14.53" y1="81.73" x2="20.36" y2="75.91" xlink:href="#未命名的渐变_45"/><linearGradient id="未命名的渐变_10" x1="8.34" y1="101.5" x2="8.34" y2="92.18" gradientUnits="userSpaceOnUse"><stop offset="0" stop-color="#6de9fc"/><stop offset="1" stop-color="#2474b3"/></linearGradient><linearGradient id="未命名的渐变_106" x1="10.92" y1="101.5" x2="10.92" y2="93.07" gradientUnits="userSpaceOnUse"><stop offset="0" stop-color="#5ecfeb"/><stop offset="1" stop-color="#0f5499"/></linearGradient><linearGradient id="未命名的渐变_14" x1="8.18" y1="93.69" x2="10.32" y2="91.55" gradientUnits="userSpaceOnUse"><stop offset="0" stop-color="#6effff"/><stop offset="1" stop-color="#5ac8f7"/></linearGradient><linearGradient id="未命名的渐变_84" x1="8.34" y1="109.14" x2="8.34" y2="103.45" gradientUnits="userSpaceOnUse"><stop offset="0" stop-color="#ffad33"/><stop offset="1" stop-color="#f73"/></linearGradient><linearGradient id="未命名的渐变_96" x1="10.92" y1="109.14" x2="10.92" y2="104.34" gradientUnits="userSpaceOnUse"><stop offset="0" stop-color="#ff7919"/><stop offset="1" stop-color="#cc4429"/></linearGradient><linearGradient id="未命名的渐变_109" x1="8.18" y1="104.96" x2="10.32" y2="102.82" gradientUnits="userSpaceOnUse"><stop offset="0" stop-color="#ffe14d"/><stop offset="1" stop-color="#f93"/></linearGradient><linearGradient id="未命名的渐变_80" x1="10.02" y1="138.71" x2="24.62" y2="130.28" gradientUnits="userSpaceOnUse"><stop offset="0" stop-color="#474e66"/><stop offset="1" stop-color="#8e9bb3"/></linearGradient><linearGradient id="未命名的渐变_61-4" x1="-12.99" y1="117.85" x2="20.84" y2="59.25" xlink:href="#未命名的渐变_61"/></defs><title>Minicomputer（小型机）</title><g id="图层_2" data-name="图层 2"><g id="风格1"><g id="Minicomputer_小型机_" data-name="Minicomputer（小型机）"><g class="cls-1"><polygon class="cls-2" points="34.86 62.62 34.61 150 0 130.02 0.25 42.63 34.86 62.62"/><polygon class="cls-3" points="34.86 62.62 108.23 19.98 107.98 107.36 34.61 150 34.86 62.62"/><polygon class="cls-4" points="0.25 42.63 73.61 0 108.23 19.98 34.86 62.62 0.25 42.63"/></g><polygon class="cls-5" points="31.05 141.65 5 126.61 5 50.1 31.05 65.14 31.05 141.65"/><g class="cls-1"><polygon class="cls-6" points="26.01 69.65 25.98 78.66 6.65 67.5 6.68 58.49 26.01 69.65"/><polygon class="cls-7" points="26.01 69.65 28.21 68.37 28.18 77.38 25.98 78.66 26.01 69.65"/><polygon class="cls-8" points="6.68 58.49 8.88 57.21 28.21 68.37 26.01 69.65 6.68 58.49"/></g><g class="cls-1"><polygon class="cls-9" points="26.01 85.04 25.98 94.05 6.65 82.89 6.68 73.88 26.01 85.04"/><polygon class="cls-10" points="26.01 85.04 28.21 83.76 28.18 92.77 25.98 94.05 26.01 85.04"/><polygon class="cls-11" points="6.68 73.88 8.88 72.6 28.21 83.76 26.01 85.04 6.68 73.88"/></g><g class="cls-1"><polygon class="cls-12" points="10.03 94.11 10.01 101.5 6.65 99.56 6.67 92.18 10.03 94.11"/><polygon class="cls-13" points="10.03 94.11 11.83 93.06 11.81 100.45 10.01 101.5 10.03 94.11"/><polygon class="cls-14" points="6.67 92.18 8.47 91.13 11.83 93.06 10.03 94.11 6.67 92.18"/></g><g class="cls-1"><polygon class="cls-15" points="10.03 105.39 10.01 109.14 6.65 107.21 6.67 103.45 10.03 105.39"/><polygon class="cls-16" points="10.03 105.39 11.83 104.34 11.81 108.09 10.01 109.14 10.03 105.39"/><polygon class="cls-17" points="6.67 103.45 8.47 102.4 11.83 104.34 10.03 105.39 6.67 103.45"/></g><g class="cls-1"><polygon class="cls-18" points="29.72 142.51 3.45 127.34 4.92 126.49 31.19 141.66 29.72 142.51"/><polygon class="cls-19" points="3.45 127.34 3.67 49.33 5.14 50.19 4.92 126.49 3.45 127.34"/></g></g></g></g></svg>