<svg xmlns="http://www.w3.org/2000/svg" xmlns:xlink="http://www.w3.org/1999/xlink" viewBox="0 0 59.46 150"><defs><style>.cls-1{fill:url(#未命名的渐变_105);}.cls-2{fill:url(#未命名的渐变_105-2);}.cls-3{fill:url(#未命名的渐变_105-3);}.cls-4{fill:url(#未命名的渐变_105-4);}.cls-5{fill:url(#未命名的渐变_105-5);}.cls-6{fill:url(#未命名的渐变_105-6);}.cls-7{fill:url(#未命名的渐变_105-7);}.cls-8{fill:url(#未命名的渐变_105-8);}.cls-9{fill:url(#未命名的渐变_105-9);}.cls-10{fill:url(#未命名的渐变_105-10);}.cls-11{fill:url(#未命名的渐变_67);}.cls-12{fill:url(#未命名的渐变_105-11);}.cls-13{fill:url(#未命名的渐变_74);}.cls-14{fill:#c1c1c1;}.cls-15{fill:#6b6b6b;}.cls-16{fill:url(#未命名的渐变_105-12);}.cls-17{fill:url(#未命名的渐变_105-13);}.cls-18{fill:url(#未命名的渐变_105-14);}.cls-19{fill:url(#未命名的渐变_105-15);}.cls-20{fill:url(#未命名的渐变_105-16);}.cls-21{fill:url(#未命名的渐变_105-17);}.cls-22{fill:url(#未命名的渐变_105-18);}.cls-23{fill:url(#未命名的渐变_105-19);}.cls-24{fill:url(#未命名的渐变_105-20);}.cls-25{fill:url(#未命名的渐变_105-21);}.cls-26{fill:url(#未命名的渐变_105-22);}.cls-27{fill:url(#未命名的渐变_67-2);}.cls-28{fill:url(#未命名的渐变_105-23);}.cls-29{fill:url(#未命名的渐变_105-24);}.cls-30{fill:url(#未命名的渐变_105-25);}.cls-31{fill:url(#未命名的渐变_105-26);}.cls-32{fill:url(#未命名的渐变_67-3);}.cls-33{fill:url(#未命名的渐变_67-4);}.cls-34{fill:url(#未命名的渐变_67-5);}.cls-35{fill:url(#未命名的渐变_67-6);}.cls-36{fill:url(#未命名的渐变_67-7);}.cls-37{fill:url(#未命名的渐变_67-8);}.cls-38{fill:url(#未命名的渐变_105-27);}.cls-39{fill:url(#未命名的渐变_105-28);}.cls-40{fill:url(#未命名的渐变_67-9);}.cls-41{fill:url(#未命名的渐变_67-10);}.cls-42{fill:url(#未命名的渐变_105-29);}.cls-43{opacity:0.2;}</style><linearGradient id="未命名的渐变_105" x1="1.91" y1="54.84" x2="56.77" y2="54.84" gradientUnits="userSpaceOnUse"><stop offset="0" stop-color="#e2e2e2"/><stop offset="0.03" stop-color="#d0d0d0"/><stop offset="0.06" stop-color="#bcbcbc"/><stop offset="0.09" stop-color="#b5b5b5"/><stop offset="0.49" stop-color="#f6f6f6"/><stop offset="0.63" stop-color="#f3f3f3"/><stop offset="0.73" stop-color="#eaeaea"/><stop offset="0.82" stop-color="#dbdbdb"/><stop offset="0.9" stop-color="#c6c6c6"/><stop offset="0.97" stop-color="#aaa"/><stop offset="1" stop-color="#9b9b9b"/></linearGradient><linearGradient id="未命名的渐变_105-2" x1="-1064.71" y1="414.77" x2="-1064.71" y2="411.24" gradientTransform="matrix(1, 0, 0, -3.25, 1108.64, 1468.82)" xlink:href="#未命名的渐变_105"/><linearGradient id="未命名的渐变_105-3" x1="113.1" y1="908.05" x2="126.17" y2="908.05" gradientTransform="translate(-884.43 247.57) rotate(-90)" xlink:href="#未命名的渐变_105"/><linearGradient id="未命名的渐变_105-4" x1="51.58" y1="123.86" x2="51.58" y2="122.55" xlink:href="#未命名的渐变_105"/><linearGradient id="未命名的渐变_105-5" x1="51.58" y1="126.76" x2="51.58" y2="125.45" xlink:href="#未命名的渐变_105"/><linearGradient id="未命名的渐变_105-6" x1="51.58" y1="130.69" x2="51.58" y2="129.39" xlink:href="#未命名的渐变_105"/><linearGradient id="未命名的渐变_105-7" x1="51.58" y1="133.36" x2="51.58" y2="132.05" xlink:href="#未命名的渐变_105"/><linearGradient id="未命名的渐变_105-8" x1="-1045.85" y1="411.49" x2="-1045.85" y2="411.39" gradientTransform="matrix(1, 0, 0, -3.25, 1070.94, 1458.63)" xlink:href="#未命名的渐变_105"/><linearGradient id="未命名的渐变_105-9" x1="-1045.85" y1="411.77" x2="-1045.85" y2="411.66" gradientTransform="matrix(1, 0, 0, -3.25, 1070.94, 1460.43)" xlink:href="#未命名的渐变_105"/><linearGradient id="未命名的渐变_105-10" x1="-1045.85" y1="411.21" x2="-1045.85" y2="411.11" gradientTransform="matrix(1, 0, 0, -3.25, 1070.94, 1456.79)" xlink:href="#未命名的渐变_105"/><linearGradient id="未命名的渐变_67" x1="-323.61" y1="434.26" x2="-311.05" y2="434.26" gradientTransform="matrix(1, 0, 0, -3.25, 364.71, 1538.4)" gradientUnits="userSpaceOnUse"><stop offset="0" stop-color="#6b6b6b"/><stop offset="0.11" stop-color="#767676"/><stop offset="0.3" stop-color="#959595"/><stop offset="0.41" stop-color="#aaa"/><stop offset="0.56" stop-color="#ccc"/><stop offset="0.71" stop-color="#eaeaea"/><stop offset="0.8" stop-color="#f6f6f6"/><stop offset="0.83" stop-color="#ededed"/><stop offset="0.87" stop-color="#d4d4d4"/><stop offset="0.92" stop-color="#ababab"/><stop offset="0.98" stop-color="#737373"/><stop offset="0.99" stop-color="#666"/></linearGradient><linearGradient id="未命名的渐变_105-11" x1="-324.92" y1="437.87" x2="-309.22" y2="437.87" gradientTransform="matrix(1, 0, 0, -3.25, 352.72, 1549.86)" xlink:href="#未命名的渐变_105"/><linearGradient id="未命名的渐变_74" x1="-1053.33" y1="410.82" x2="-1046.79" y2="410.82" gradientTransform="matrix(1, 0, 0, -3.25, 1079.35, 1454.62)" gradientUnits="userSpaceOnUse"><stop offset="0" stop-color="#6b6b6b"/><stop offset="0.01" stop-color="#767676"/><stop offset="0.03" stop-color="#959595"/><stop offset="0.04" stop-color="#aaa"/><stop offset="0.37" stop-color="#ccc"/><stop offset="0.74" stop-color="#eaeaea"/><stop offset="0.94" stop-color="#f6f6f6"/><stop offset="0.95" stop-color="#ededed"/><stop offset="0.96" stop-color="#d4d4d4"/><stop offset="0.97" stop-color="#ababab"/><stop offset="0.99" stop-color="#737373"/><stop offset="0.99" stop-color="#666"/></linearGradient><linearGradient id="未命名的渐变_105-12" x1="-1045.85" y1="414.87" x2="-1045.85" y2="414.77" gradientTransform="matrix(1, 0, 0, -3.25, 1070.94, 1480.61)" xlink:href="#未命名的渐变_105"/><linearGradient id="未命名的渐变_105-13" x1="-1045.85" y1="414.59" x2="-1045.85" y2="414.49" gradientTransform="matrix(1, 0, 0, -3.25, 1070.94, 1478.78)" xlink:href="#未命名的渐变_105"/><linearGradient id="未命名的渐变_105-14" x1="-1045.85" y1="414.31" x2="-1045.85" y2="414.21" gradientTransform="matrix(1, 0, 0, -3.25, 1070.94, 1476.95)" xlink:href="#未命名的渐变_105"/><linearGradient id="未命名的渐变_105-15" x1="-1045.85" y1="414.03" x2="-1045.85" y2="413.93" gradientTransform="matrix(1, 0, 0, -3.25, 1070.94, 1475.12)" xlink:href="#未命名的渐变_105"/><linearGradient id="未命名的渐变_105-16" x1="-1045.85" y1="413.75" x2="-1045.85" y2="413.64" gradientTransform="matrix(1, 0, 0, -3.25, 1070.94, 1473.28)" xlink:href="#未命名的渐变_105"/><linearGradient id="未命名的渐变_105-17" x1="-1045.85" y1="413.46" x2="-1045.85" y2="413.36" gradientTransform="matrix(1, 0, 0, -3.25, 1070.94, 1471.45)" xlink:href="#未命名的渐变_105"/><linearGradient id="未命名的渐变_105-18" x1="-1045.85" y1="413.18" x2="-1045.85" y2="413.08" gradientTransform="matrix(1, 0, 0, -3.25, 1070.94, 1469.62)" xlink:href="#未命名的渐变_105"/><linearGradient id="未命名的渐变_105-19" x1="-1045.85" y1="412.9" x2="-1045.85" y2="412.8" gradientTransform="matrix(1, 0, 0, -3.25, 1070.94, 1467.79)" xlink:href="#未命名的渐变_105"/><linearGradient id="未命名的渐变_105-20" x1="-1045.85" y1="412.62" x2="-1045.85" y2="412.52" gradientTransform="matrix(1, 0, 0, -3.25, 1070.94, 1465.96)" xlink:href="#未命名的渐变_105"/><linearGradient id="未命名的渐变_105-21" x1="-1045.85" y1="412.33" x2="-1045.85" y2="412.23" gradientTransform="matrix(1, 0, 0, -3.25, 1070.94, 1464.12)" xlink:href="#未命名的渐变_105"/><linearGradient id="未命名的渐变_105-22" x1="-1045.85" y1="412.05" x2="-1045.85" y2="411.95" gradientTransform="matrix(1, 0, 0, -3.25, 1070.94, 1462.29)" xlink:href="#未命名的渐变_105"/><linearGradient id="未命名的渐变_67-2" x1="-322.98" y1="444.57" x2="-310.43" y2="444.57" gradientTransform="matrix(1, 0, 0, -3.25, 330.6, 1571.25)" xlink:href="#未命名的渐变_67"/><linearGradient id="未命名的渐变_105-23" x1="-1053.62" y1="409.19" x2="-1046.02" y2="409.19" gradientTransform="matrix(1, 0, 0, -3.25, 1078.87, 1444.03)" xlink:href="#未命名的渐变_105"/><linearGradient id="未命名的渐变_105-24" x1="-1059.04" y1="408.29" x2="-1040.79" y2="408.29" gradientTransform="matrix(1, 0, 0, -3.25, 1079.06, 1438.21)" xlink:href="#未命名的渐变_105"/><linearGradient id="未命名的渐变_105-25" x1="-1072.91" y1="409.92" x2="-1065.92" y2="409.92" gradientTransform="matrix(1, 0, 0, -3.25, 1118.07, 1448.75)" xlink:href="#未命名的渐变_105"/><linearGradient id="未命名的渐变_105-26" x1="-1071.48" y1="410.88" x2="-1068.62" y2="410.88" gradientTransform="matrix(1, 0, 0, -3.25, 1119.33, 1455.04)" xlink:href="#未命名的渐变_105"/><linearGradient id="未命名的渐变_67-3" x1="-334.71" y1="478.89" x2="-334.71" y2="477.57" gradientTransform="translate(739.84 -732.54) scale(2.12 1.77)" xlink:href="#未命名的渐变_67"/><linearGradient id="未命名的渐变_67-4" x1="-531.03" y1="196.05" x2="-531.03" y2="194.73" gradientTransform="matrix(2.12, 0, 0, -1.77, 1157.09, 459.35)" xlink:href="#未命名的渐变_67"/><linearGradient id="未命名的渐变_67-5" x1="-348.45" y1="383.67" x2="-348.45" y2="382.35" gradientTransform="matrix(1.66, 0, 0, -3.56, 633.33, 1476.65)" xlink:href="#未命名的渐变_67"/><linearGradient id="未命名的渐变_67-6" x1="-319.06" y1="577.91" x2="-319.06" y2="576.59" gradientTransform="translate(537.45 -1661.41) scale(1.66 3.08)" xlink:href="#未命名的渐变_67"/><linearGradient id="未命名的渐变_67-7" x1="-1077.5" y1="377.5" x2="-1022.61" y2="377.5" gradientTransform="matrix(1, 0, 0, -3.25, 1079.34, 1238.24)" xlink:href="#未命名的渐变_67"/><linearGradient id="未命名的渐变_67-8" x1="-1077.67" y1="398.34" x2="-1022.77" y2="398.34" gradientTransform="matrix(1, 0, 0, -3.25, 1079.67, 1373.6)" xlink:href="#未命名的渐变_67"/><linearGradient id="未命名的渐变_105-27" x1="-1077.67" y1="398.34" x2="-1022.77" y2="398.34" gradientTransform="matrix(1, 0, 0, -3.25, 1079.67, 1373.6)" xlink:href="#未命名的渐变_105"/><linearGradient id="未命名的渐变_105-28" x1="-1080.23" y1="419.04" x2="-1020.77" y2="419.04" gradientTransform="matrix(1, 0, 0, -3.25, 1080.23, 1507.96)" xlink:href="#未命名的渐变_105"/><linearGradient id="未命名的渐变_67-9" x1="-322.96" y1="438.58" x2="-310.4" y2="438.58" gradientTransform="matrix(1, 0, 0, -3.25, 350.04, 1551.76)" xlink:href="#未命名的渐变_67"/><linearGradient id="未命名的渐变_67-10" x1="-322.96" y1="438.28" x2="-310.4" y2="438.28" gradientTransform="matrix(1, 0, 0, -3.25, 351.01, 1550.79)" xlink:href="#未命名的渐变_67"/><linearGradient id="未命名的渐变_105-29" x1="37.2" y1="135.58" x2="37.2" y2="134.28" xlink:href="#未命名的渐变_105"/></defs><title>Mix tank（混合罐）</title><g id="图层_2" data-name="图层 2"><g id="图层_104" data-name="图层 104"><g id="Mix_tank_混合罐_" data-name="Mix tank（混合罐）"><path class="cls-1" d="M56.77,83l-18.5,26.65h-18L1.91,83V9.22S3.86,0,29.34,0C55.26,0,56.77,9.22,56.77,9.22Z"/><rect class="cls-2" x="36.75" y="122.11" width="14.37" height="11.47" transform="translate(87.87 255.68) rotate(180)"/><path class="cls-3" d="M36.06,121.39v13.08H13.94s-2.77-.46-2.77-6.54,2.77-6.54,2.77-6.54Z"/><rect class="cls-4" x="51.12" y="122.55" width="0.91" height="1.31"/><rect class="cls-5" x="51.12" y="125.45" width="0.91" height="1.31"/><rect class="cls-6" x="51.12" y="129.39" width="0.91" height="1.31"/><rect class="cls-7" x="51.12" y="132.05" width="0.91" height="1.31"/><rect class="cls-8" x="16.67" y="122.58" width="16.82" height="0.33" transform="translate(50.17 245.49) rotate(180)"/><rect class="cls-9" x="16.67" y="123.48" width="16.82" height="0.33" transform="translate(50.17 247.3) rotate(180)"/><rect class="cls-10" x="16.67" y="121.67" width="16.82" height="0.33" transform="translate(50.17 243.66) rotate(180)"/><rect class="cls-11" x="41.1" y="128.19" width="12.56" height="0.43" transform="translate(-81.03 175.79) rotate(-90)"/><rect class="cls-12" x="27.8" y="127.04" width="15.7" height="2.2" transform="translate(-92.5 163.79) rotate(-90)"/><rect class="cls-13" x="26.02" y="118.36" width="6.55" height="4.76" transform="translate(58.58 241.49) rotate(180)"/><rect class="cls-14" x="17.75" y="133.9" width="14.47" height="1.5" transform="translate(49.98 269.3) rotate(180)"/><rect class="cls-15" x="17.44" y="135.4" width="14.95" height="0.59" transform="translate(49.83 271.39) rotate(180)"/><rect class="cls-16" x="16.67" y="133.58" width="16.82" height="0.33" transform="translate(50.17 267.48) rotate(180)"/><rect class="cls-17" x="16.67" y="132.66" width="16.82" height="0.33" transform="translate(50.17 265.65) rotate(180)"/><rect class="cls-18" x="16.67" y="131.74" width="16.82" height="0.33" transform="translate(50.17 263.82) rotate(180)"/><rect class="cls-19" x="16.67" y="130.83" width="16.82" height="0.33" transform="translate(50.17 261.98) rotate(180)"/><rect class="cls-20" x="16.67" y="129.91" width="16.82" height="0.33" transform="translate(50.17 260.15) rotate(180)"/><rect class="cls-21" x="16.67" y="129" width="16.82" height="0.33" transform="translate(50.17 258.32) rotate(180)"/><rect class="cls-22" x="16.67" y="128.08" width="16.82" height="0.33" transform="translate(50.17 256.49) rotate(180)"/><rect class="cls-23" x="16.67" y="127.16" width="16.82" height="0.33" transform="translate(50.17 254.65) rotate(180)"/><rect class="cls-24" x="16.67" y="126.25" width="16.82" height="0.33" transform="translate(50.17 252.82) rotate(180)"/><rect class="cls-25" x="16.67" y="125.33" width="16.82" height="0.33" transform="translate(50.17 250.99) rotate(180)"/><rect class="cls-26" x="16.67" y="124.42" width="16.82" height="0.33" transform="translate(50.17 249.16) rotate(180)"/><rect class="cls-27" x="7.62" y="127.56" width="12.56" height="0.43" transform="translate(-113.88 141.68) rotate(-90)"/><rect class="cls-28" x="25.25" y="112.54" width="7.6" height="5.82" transform="translate(58.1 230.9) rotate(180)"/><rect class="cls-29" x="20.02" y="109.63" width="18.25" height="5.82" transform="translate(58.29 225.08) rotate(180)"/><rect class="cls-30" x="45.15" y="117" width="6.99" height="1.6" transform="translate(97.3 235.61) rotate(180)"/><path class="cls-31" d="M48.09,118.61h2.38a.24.24,0,0,1,.24.24v4.45a0,0,0,0,1,0,0H47.85a0,0,0,0,1,0,0v-4.45A.24.24,0,0,1,48.09,118.61Z" transform="translate(98.56 241.9) rotate(180)"/><rect class="cls-32" x="-10.95" y="112.95" width="80.85" height="2.33" transform="translate(-76.99 63.55) rotate(-50.11)"/><rect class="cls-33" x="-10.38" y="112.26" width="80.85" height="2.33" transform="translate(-37.93 209.08) rotate(-129.76)"/><rect class="cls-34" x="21.68" y="112.56" width="63.4" height="4.69" transform="translate(-57.17 176.78) rotate(-94.32)"/><rect class="cls-35" x="-25.29" y="112.85" width="63.4" height="4.06" transform="translate(-108.62 112.62) rotate(-85.68)"/><rect class="cls-36" x="1.84" y="11.87" width="54.9" height="1.36" transform="translate(58.57 25.11) rotate(180)"/><rect class="cls-37" x="2" y="76.54" width="54.9" height="7.38" transform="translate(58.9 160.47) rotate(180)"/><rect class="cls-38" x="2" y="77.32" width="54.9" height="5.82" transform="translate(58.9 160.47) rotate(180)"/><rect class="cls-39" y="144.83" width="59.46" height="5.17" transform="translate(59.46 294.83) rotate(180)"/><rect class="cls-40" x="27.08" y="127.53" width="12.56" height="0.43" transform="translate(-94.39 161.11) rotate(-90)"/><rect class="cls-41" x="28.05" y="127.53" width="12.56" height="0.43" transform="translate(-93.42 162.08) rotate(-90)"/><rect class="cls-42" x="36.75" y="134.28" width="0.91" height="1.31"/></g></g></g></svg>