<svg xmlns="http://www.w3.org/2000/svg" xmlns:xlink="http://www.w3.org/1999/xlink" viewBox="0 0 150 111.74"><defs><style>.cls-1{fill:url(#未命名的渐变_501);}.cls-2{fill:url(#未命名的渐变_405);}.cls-3{opacity:0.3;}.cls-4{fill:url(#未命名的渐变_405-2);}.cls-5{fill:url(#未命名的渐变_26);}.cls-6{fill:url(#未命名的渐变_557);}.cls-7{fill:url(#未命名的渐变_557-2);}.cls-8{opacity:0.2;}</style><linearGradient id="未命名的渐变_501" x1="-327.39" y1="99.46" x2="-327.39" y2="91.59" gradientTransform="matrix(-1, 0, 0, 1, -250, 0)" gradientUnits="userSpaceOnUse"><stop offset="0" stop-color="#a5afb8"/><stop offset="1" stop-color="#2f3133"/></linearGradient><linearGradient id="未命名的渐变_405" x1="75" y1="8.38" x2="75" y2="88.79" gradientUnits="userSpaceOnUse"><stop offset="0" stop-color="#767b82"/><stop offset="0.07" stop-color="#9ba1ab"/><stop offset="0.22" stop-color="#e2eaf2"/><stop offset="0.24" stop-color="#dbe3eb"/><stop offset="0.38" stop-color="#b7bec5"/><stop offset="0.53" stop-color="#9ba1a8"/><stop offset="0.67" stop-color="#868c93"/><stop offset="0.81" stop-color="#7a7f86"/><stop offset="0.94" stop-color="#767b82"/><stop offset="1" stop-color="#a9b1bb"/></linearGradient><linearGradient id="未命名的渐变_405-2" y1="4.03" y2="92.78" xlink:href="#未命名的渐变_405"/><linearGradient id="未命名的渐变_26" x1="75" y1="83.94" x2="75" y2="111.74" gradientUnits="userSpaceOnUse"><stop offset="0" stop-color="#767b82"/><stop offset="0.07" stop-color="#9ba1ab"/><stop offset="0.22" stop-color="#e2eaf2"/><stop offset="0.94" stop-color="#767b82"/><stop offset="1" stop-color="#a9b1bb"/></linearGradient><linearGradient id="未命名的渐变_557" x1="43.77" x2="43.77" y2="94.4" gradientUnits="userSpaceOnUse"><stop offset="0" stop-color="#767b82"/><stop offset="0.07" stop-color="#9ba1ab"/><stop offset="0.22" stop-color="#e2eaf2"/><stop offset="0.24" stop-color="#dbe3eb"/><stop offset="0.37" stop-color="#b7bec5"/><stop offset="0.51" stop-color="#9ba1a8"/><stop offset="0.64" stop-color="#868c93"/><stop offset="0.77" stop-color="#7a7f86"/><stop offset="0.89" stop-color="#767b82"/><stop offset="0.9" stop-color="#858b91"/><stop offset="0.91" stop-color="#949aa0"/><stop offset="0.92" stop-color="#9ca3a9"/><stop offset="0.94" stop-color="#9fa6ac"/><stop offset="0.97" stop-color="#979ea4"/><stop offset="1" stop-color="#949ba1"/></linearGradient><linearGradient id="未命名的渐变_557-2" x1="96.76" y1="0" x2="96.76" y2="94.4" gradientTransform="matrix(-1, 0, 0, 1, 203.04, 0)" xlink:href="#未命名的渐变_557"/></defs><title>Mixed flow inline fan(混流内联风扇)</title><g id="图层_2" data-name="图层 2"><g id="图层_16" data-name="图层 16"><g id="Mixed_flow_inline_fan_混流内联风扇_" data-name="Mixed flow inline fan(混流内联风扇)"><path class="cls-1" d="M109.66,91.59H45.12v7.87h64.54Z"/><path class="cls-2" d="M150,48.58c0,20.51-2.51,37.41-5.77,39.88v.33H14l-8.23-.33C2.51,86,0,69.09,0,48.58S5.77,8.38,5.77,8.38H144.23v.33C147.49,11.17,150,28.08,150,48.58Z"/><path class="cls-3" d="M129.87,48.58a272.82,272.82,0,0,1-3.35,40.21h-103a272.82,272.82,0,0,1-3.35-40.21,279.36,279.36,0,0,1,3.3-40.2H126.57A279.36,279.36,0,0,1,129.87,48.58Z"/><path class="cls-4" d="M127.31,48.58a272.94,272.94,0,0,1-4,44.2H26.71a272.94,272.94,0,0,1-4-44.2A280.3,280.3,0,0,1,26.71,4h96.58A280.3,280.3,0,0,1,127.31,48.58Z"/><path class="cls-3" d="M52.34,94.4H42s-.11-.56-.28-1.62a290.1,290.1,0,0,1-4-45.38A295.66,295.66,0,0,1,41.35,4H51.68A293.93,293.93,0,0,0,48.06,47.4a290.1,290.1,0,0,0,4,45.38C52.24,93.84,52.34,94.4,52.34,94.4Z"/><path class="cls-3" d="M97.71,94.4H108s.11-.56.28-1.62a290.1,290.1,0,0,0,4-45.38A295.66,295.66,0,0,0,108.7,4H98.38A295.66,295.66,0,0,1,102,47.4a290.1,290.1,0,0,1-4,45.38C97.81,93.84,97.71,94.4,97.71,94.4Z"/><path class="cls-5" d="M124.68,92.74l-8.82,15.7a5.46,5.46,0,0,1-4.89,3.3H39.24a5.46,5.46,0,0,1-4.9-3.3L25.69,92.66l-.37-8.72H50.14L55.82,97.8a2.59,2.59,0,0,0,2.32,1.66H92.06a2.58,2.58,0,0,0,2.32-1.66l5.68-13.86h24.62Z"/><path class="cls-6" d="M45.51,47.39a290.07,290.07,0,0,0,4.28,47H42a290.72,290.72,0,0,1-4.27-47A298.55,298.55,0,0,1,42,0h7.77A297.88,297.88,0,0,0,45.51,47.39Z"/><path class="cls-7" d="M104.54,47.39a290.72,290.72,0,0,1-4.27,47H108a290.72,290.72,0,0,0,4.27-47A298.55,298.55,0,0,0,108,0h-7.76A298.55,298.55,0,0,1,104.54,47.39Z"/></g></g></g></svg>