<svg xmlns="http://www.w3.org/2000/svg" xmlns:xlink="http://www.w3.org/1999/xlink" viewBox="0 0 66 150"><defs><style>.cls-1{fill:#dbdbdb;}.cls-2{fill:#a3a4a4;}.cls-3{fill:url(#未命名的渐变_105);}.cls-4{fill:url(#未命名的渐变_105-2);}.cls-5{fill:url(#未命名的渐变_105-3);}.cls-6{fill:url(#未命名的渐变_105-4);}.cls-7{fill:url(#未命名的渐变_105-5);}.cls-8{fill:url(#未命名的渐变_105-6);}.cls-9{fill:url(#未命名的渐变_105-7);}.cls-10{fill:url(#未命名的渐变_105-8);}.cls-11{fill:url(#未命名的渐变_105-9);}.cls-12{fill:url(#未命名的渐变_105-10);}.cls-13{fill:url(#未命名的渐变_105-11);}.cls-14{fill:url(#未命名的渐变_105-12);}.cls-15{fill:url(#未命名的渐变_105-13);}.cls-16{fill:url(#未命名的渐变_105-14);}.cls-17{fill:url(#未命名的渐变_105-15);}.cls-18{fill:url(#未命名的渐变_105-16);}.cls-19{fill:url(#未命名的渐变_105-17);}.cls-20{fill:url(#未命名的渐变_105-18);}.cls-21{opacity:0.2;}</style><linearGradient id="未命名的渐变_105" x1="31.8" y1="13.49" x2="35.65" y2="13.49" gradientUnits="userSpaceOnUse"><stop offset="0" stop-color="#e2e2e2"/><stop offset="0.03" stop-color="#d0d0d0"/><stop offset="0.06" stop-color="#bcbcbc"/><stop offset="0.09" stop-color="#b5b5b5"/><stop offset="0.49" stop-color="#f6f6f6"/><stop offset="0.63" stop-color="#f3f3f3"/><stop offset="0.73" stop-color="#eaeaea"/><stop offset="0.82" stop-color="#dbdbdb"/><stop offset="0.9" stop-color="#c6c6c6"/><stop offset="0.97" stop-color="#aaa"/><stop offset="1" stop-color="#9b9b9b"/></linearGradient><linearGradient id="未命名的渐变_105-2" x1="26.11" y1="28.9" x2="41.06" y2="28.9" xlink:href="#未命名的渐变_105"/><linearGradient id="未命名的渐变_105-3" x1="19.17" y1="38.26" x2="48.45" y2="38.26" xlink:href="#未命名的渐变_105"/><linearGradient id="未命名的渐变_105-4" x1="20.86" y1="24.45" x2="46.44" y2="24.45" xlink:href="#未命名的渐变_105"/><linearGradient id="未命名的渐变_105-5" x1="22.82" y1="24.46" x2="23.65" y2="24.46" xlink:href="#未命名的渐变_105"/><linearGradient id="未命名的渐变_105-6" x1="24.73" y1="24.46" x2="25.57" y2="24.46" xlink:href="#未命名的渐变_105"/><linearGradient id="未命名的渐变_105-7" x1="26.65" y1="24.46" x2="27.48" y2="24.46" xlink:href="#未命名的渐变_105"/><linearGradient id="未命名的渐变_105-8" x1="28.56" y1="24.46" x2="29.4" y2="24.46" xlink:href="#未命名的渐变_105"/><linearGradient id="未命名的渐变_105-9" x1="30.48" y1="24.46" x2="31.31" y2="24.46" xlink:href="#未命名的渐变_105"/><linearGradient id="未命名的渐变_105-10" x1="32.4" y1="24.46" x2="33.23" y2="24.46" xlink:href="#未命名的渐变_105"/><linearGradient id="未命名的渐变_105-11" x1="34.31" y1="24.46" x2="35.14" y2="24.46" xlink:href="#未命名的渐变_105"/><linearGradient id="未命名的渐变_105-12" x1="36.23" y1="24.46" x2="37.06" y2="24.46" xlink:href="#未命名的渐变_105"/><linearGradient id="未命名的渐变_105-13" x1="38.14" y1="24.46" x2="38.98" y2="24.46" xlink:href="#未命名的渐变_105"/><linearGradient id="未命名的渐变_105-14" x1="40.06" y1="24.46" x2="40.89" y2="24.46" xlink:href="#未命名的渐变_105"/><linearGradient id="未命名的渐变_105-15" x1="41.97" y1="24.46" x2="42.81" y2="24.46" xlink:href="#未命名的渐变_105"/><linearGradient id="未命名的渐变_105-16" x1="43.89" y1="24.46" x2="44.72" y2="24.46" xlink:href="#未命名的渐变_105"/><linearGradient id="未命名的渐变_105-17" x1="45.8" y1="24.46" x2="46.64" y2="24.46" xlink:href="#未命名的渐变_105"/><linearGradient id="未命名的渐变_105-18" x1="20.72" y1="24.46" x2="21.55" y2="24.46" xlink:href="#未命名的渐变_105"/></defs><title>Motorized flow gate (open)（电动流量闸门（关））</title><g id="图层_2" data-name="图层 2"><g id="图层_125" data-name="图层 125"><g id="Motorized_flow_gate_open_电动流量闸门_关_" data-name="Motorized flow gate (open)（电动流量闸门（关））"><path class="cls-1" d="M0,150V43.94H66V150ZM62.61,47.43H2.86v99.29H62.61Z"/><rect class="cls-1" x="4.25" y="48.52" width="57.36" height="49.55"/><rect class="cls-2" x="2.86" y="47.43" width="59.75" height="51.99"/><rect class="cls-1" x="4.25" y="48.52" width="57.36" height="49.55"/><rect class="cls-1" x="11.07" y="32.04" width="45.33" height="11.57"/><rect class="cls-2" x="11.07" y="43.62" width="45.33" height="0.64"/><rect class="cls-3" x="31.8" width="3.86" height="26.98"/><rect class="cls-4" x="26.11" y="25.75" width="14.96" height="6.29"/><rect class="cls-5" x="19.17" y="33.95" width="29.28" height="8.62"/><rect class="cls-6" x="20.86" y="21.8" width="25.58" height="5.29"/><rect class="cls-7" x="22.82" y="21.31" width="0.83" height="6.29"/><rect class="cls-8" x="24.73" y="21.31" width="0.83" height="6.29"/><rect class="cls-9" x="26.65" y="21.31" width="0.83" height="6.29"/><rect class="cls-10" x="28.56" y="21.31" width="0.83" height="6.29"/><rect class="cls-11" x="30.48" y="21.31" width="0.83" height="6.29"/><rect class="cls-12" x="32.4" y="21.31" width="0.83" height="6.29"/><rect class="cls-13" x="34.31" y="21.31" width="0.83" height="6.29"/><rect class="cls-14" x="36.23" y="21.31" width="0.83" height="6.29"/><rect class="cls-15" x="38.14" y="21.31" width="0.83" height="6.29"/><rect class="cls-16" x="40.06" y="21.31" width="0.83" height="6.29"/><rect class="cls-17" x="41.97" y="21.31" width="0.83" height="6.29"/><rect class="cls-18" x="43.89" y="21.31" width="0.83" height="6.29"/><rect class="cls-19" x="45.8" y="21.31" width="0.83" height="6.29"/><rect class="cls-20" x="20.72" y="21.31" width="0.83" height="6.29"/></g></g></g></svg>