<svg xmlns="http://www.w3.org/2000/svg" xmlns:xlink="http://www.w3.org/1999/xlink" viewBox="0 0 150 128.83"><defs><style>.cls-1,.cls-2,.cls-42,.cls-44,.cls-45,.cls-46,.cls-47,.cls-48,.cls-49,.cls-50,.cls-51,.cls-52,.cls-53,.cls-54,.cls-55,.cls-56,.cls-57,.cls-58,.cls-59,.cls-60,.cls-61,.cls-62{fill:none;}.cls-1{stroke:#1e2931;}.cls-1,.cls-19,.cls-2,.cls-20,.cls-29,.cls-30,.cls-39,.cls-40,.cls-42,.cls-44,.cls-45,.cls-46,.cls-47,.cls-48,.cls-49,.cls-50,.cls-51,.cls-52,.cls-53,.cls-54,.cls-55,.cls-56,.cls-57,.cls-58,.cls-59,.cls-60,.cls-61,.cls-62,.cls-66{stroke-miterlimit:10;}.cls-2{stroke-width:2px;stroke:url(#未命名的渐变_23);}.cls-3{fill:#1e2931;}.cls-4{fill:url(#未命名的渐变_282);}.cls-5{opacity:0.3;}.cls-6{fill:url(#未命名的渐变_267);}.cls-7{fill:url(#未命名的渐变_473);}.cls-8{fill:url(#未命名的渐变_470);}.cls-9{fill:url(#未命名的渐变_267-2);}.cls-10{fill:url(#未命名的渐变_413);}.cls-11{fill:url(#未命名的渐变_413-2);}.cls-12{fill:url(#未命名的渐变_413-3);}.cls-13{fill:url(#未命名的渐变_3);}.cls-14{fill:url(#未命名的渐变_3-2);}.cls-15{fill:url(#未命名的渐变_12);}.cls-16{fill:url(#未命名的渐变_3-3);}.cls-17{fill:url(#未命名的渐变_3-4);}.cls-18{fill:url(#未命名的渐变_3-5);}.cls-19{fill:url(#未命名的渐变_149);stroke:url(#未命名的渐变_149-2);}.cls-20{fill:url(#未命名的渐变_149-3);stroke:url(#未命名的渐变_149-4);}.cls-21{fill:url(#未命名的渐变_413-4);}.cls-22{fill:url(#未命名的渐变_413-5);}.cls-23{fill:url(#未命名的渐变_3-6);}.cls-24{fill:url(#未命名的渐变_3-7);}.cls-25{fill:url(#未命名的渐变_12-2);}.cls-26{fill:url(#未命名的渐变_3-8);}.cls-27{fill:url(#未命名的渐变_3-9);}.cls-28{fill:url(#未命名的渐变_3-10);}.cls-29{fill:url(#未命名的渐变_149-5);stroke:url(#未命名的渐变_149-6);}.cls-30{fill:url(#未命名的渐变_149-7);stroke:url(#未命名的渐变_149-8);}.cls-31{fill:url(#未命名的渐变_413-6);}.cls-32{fill:url(#未命名的渐变_413-7);}.cls-33{fill:url(#未命名的渐变_3-11);}.cls-34{fill:url(#未命名的渐变_3-12);}.cls-35{fill:url(#未命名的渐变_12-3);}.cls-36{fill:url(#未命名的渐变_3-13);}.cls-37{fill:url(#未命名的渐变_3-14);}.cls-38{fill:url(#未命名的渐变_3-15);}.cls-39{fill:url(#未命名的渐变_149-9);stroke:url(#未命名的渐变_149-10);}.cls-40{fill:url(#未命名的渐变_149-11);stroke:url(#未命名的渐变_149-12);}.cls-41{fill:url(#未命名的渐变_108);}.cls-42{stroke:url(#未命名的渐变_121);}.cls-43{fill:url(#未命名的渐变_413-8);}.cls-44,.cls-45,.cls-46,.cls-47,.cls-48,.cls-49,.cls-50,.cls-51,.cls-52,.cls-53,.cls-54,.cls-55,.cls-56,.cls-57,.cls-58,.cls-59,.cls-60,.cls-61{stroke-width:0.25px;}.cls-44{stroke:url(#未命名的渐变_397);}.cls-45{stroke:url(#未命名的渐变_397-2);}.cls-46{stroke:url(#未命名的渐变_397-3);}.cls-47{stroke:url(#未命名的渐变_397-4);}.cls-48{stroke:url(#未命名的渐变_397-5);}.cls-49{stroke:url(#未命名的渐变_397-6);}.cls-50{stroke:url(#未命名的渐变_397-7);}.cls-51{stroke:url(#未命名的渐变_397-8);}.cls-52{stroke:url(#未命名的渐变_397-9);}.cls-53{stroke:url(#未命名的渐变_397-10);}.cls-54{stroke:url(#未命名的渐变_397-11);}.cls-55{stroke:url(#未命名的渐变_397-12);}.cls-56{stroke:url(#未命名的渐变_397-13);}.cls-57{stroke:url(#未命名的渐变_397-14);}.cls-58{stroke:url(#未命名的渐变_397-15);}.cls-59{stroke:url(#未命名的渐变_397-16);}.cls-60{stroke:url(#未命名的渐变_397-17);}.cls-61{stroke:url(#未命名的渐变_397-18);}.cls-62{stroke-width:0.75px;stroke:url(#未命名的渐变_452);}.cls-63{fill:url(#未命名的渐变_473-2);}.cls-64{fill:url(#未命名的渐变_397-19);}.cls-65{fill:url(#未命名的渐变_67);}.cls-66{fill:#5d646c;stroke:#b4bcc5;stroke-width:0.5px;}.cls-67{fill:#cfd5db;}.cls-68{fill:#a63c27;}.cls-69{fill:#a8afb5;}.cls-70{fill:url(#未命名的渐变_397-20);}.cls-71{fill:url(#未命名的渐变_397-21);}.cls-72{fill:url(#未命名的渐变_67-2);}.cls-73{fill:#231500;}.cls-74{opacity:0.2;}</style><linearGradient id="未命名的渐变_23" x1="71.45" y1="42.43" x2="120.95" y2="42.43" gradientUnits="userSpaceOnUse"><stop offset="0" stop-color="#767b82"/><stop offset="0.07" stop-color="#45484d"/><stop offset="0.22" stop-color="#e2eaf2"/><stop offset="0.37" stop-color="#b4bbc2"/><stop offset="0.54" stop-color="#858a90"/><stop offset="0.7" stop-color="#62666b"/><stop offset="0.83" stop-color="#4d5055"/><stop offset="0.91" stop-color="#45484d"/><stop offset="1" stop-color="#a9b1bb"/></linearGradient><linearGradient id="未命名的渐变_282" x1="75" y1="67.98" x2="75" y2="112.83" gradientUnits="userSpaceOnUse"><stop offset="0" stop-color="#767b82"/><stop offset="0.07" stop-color="#9ba1ab"/><stop offset="0.22" stop-color="#e2eaf2"/><stop offset="0.24" stop-color="#d5dde5"/><stop offset="0.32" stop-color="#b2b9c0"/><stop offset="0.41" stop-color="#959ba1"/><stop offset="0.5" stop-color="#7e8389"/><stop offset="0.59" stop-color="#6e7378"/><stop offset="0.69" stop-color="#64696e"/><stop offset="0.82" stop-color="#61666b"/><stop offset="1" stop-color="#9da4ad"/></linearGradient><radialGradient id="未命名的渐变_267" cx="30.36" cy="114.55" r="8.37" gradientUnits="userSpaceOnUse"><stop offset="0" stop-color="#d7dce0"/><stop offset="0.43" stop-color="#bbc2ca"/><stop offset="0.89" stop-color="#bbc2ca"/><stop offset="1" stop-color="#d7dce0"/></radialGradient><linearGradient id="未命名的渐变_473" x1="41.68" y1="27.9" x2="41.68" y2="60.82" gradientUnits="userSpaceOnUse"><stop offset="0" stop-color="#c2c9d6"/><stop offset="1" stop-color="#45494d"/></linearGradient><linearGradient id="未命名的渐变_470" x1="41.68" y1="29.86" x2="41.68" y2="58.86" gradientUnits="userSpaceOnUse"><stop offset="0" stop-color="#fff"/><stop offset="0.01" stop-color="#fff" stop-opacity="0.98"/><stop offset="0.05" stop-color="#fff" stop-opacity="0.79"/><stop offset="0.09" stop-color="#fff" stop-opacity="0.62"/><stop offset="0.15" stop-color="#fff" stop-opacity="0.47"/><stop offset="0.2" stop-color="#fff" stop-opacity="0.34"/><stop offset="0.26" stop-color="#fff" stop-opacity="0.24"/><stop offset="0.33" stop-color="#fff" stop-opacity="0.15"/><stop offset="0.41" stop-color="#fff" stop-opacity="0.08"/><stop offset="0.51" stop-color="#fff" stop-opacity="0.03"/><stop offset="0.64" stop-color="#fff" stop-opacity="0.01"/><stop offset="1" stop-color="#fff" stop-opacity="0"/></linearGradient><radialGradient id="未命名的渐变_267-2" cx="115.56" cy="114.55" r="8.37" xlink:href="#未命名的渐变_267"/><linearGradient id="未命名的渐变_413" x1="96.39" y1="56.65" x2="96.39" y2="67.98" gradientUnits="userSpaceOnUse"><stop offset="0" stop-color="#767b82"/><stop offset="0.11" stop-color="#e2eaf2"/><stop offset="0.27" stop-color="#9ba1ab"/><stop offset="1" stop-color="#767b82"/></linearGradient><linearGradient id="未命名的渐变_413-2" x1="544.66" y1="849.1" x2="544.66" y2="867.95" gradientTransform="translate(-428.01 -826.12)" xlink:href="#未命名的渐变_413"/><linearGradient id="未命名的渐变_413-3" x1="544.68" y1="369.46" x2="544.68" y2="372.74" gradientTransform="matrix(0.55, 0.83, -2.11, 1.4, 590.84, -934.86)" xlink:href="#未命名的渐变_413"/><linearGradient id="未命名的渐变_3" x1="535.74" y1="851.92" x2="553.59" y2="851.92" gradientTransform="translate(-422.51 -823.16)" gradientUnits="userSpaceOnUse"><stop offset="0" stop-color="#767b82"/><stop offset="0.13" stop-color="#9ba1ab"/><stop offset="0.34" stop-color="#e2eaf2"/><stop offset="0.39" stop-color="#d1d8e0"/><stop offset="0.56" stop-color="#a1a7ae"/><stop offset="0.71" stop-color="#7e8489"/><stop offset="0.83" stop-color="#696e73"/><stop offset="0.91" stop-color="#61666b"/><stop offset="1" stop-color="#a9b1bb"/></linearGradient><linearGradient id="未命名的渐变_3-2" x1="535.74" y1="854.34" x2="553.59" y2="854.34" gradientTransform="translate(-424.52 -824.24)" xlink:href="#未命名的渐变_3"/><linearGradient id="未命名的渐变_12" x1="535.74" y1="856.76" x2="553.59" y2="856.76" gradientTransform="translate(-426.54 -825.33)" gradientUnits="userSpaceOnUse"><stop offset="0" stop-color="#767b82"/><stop offset="0.14" stop-color="#9ba1ab"/><stop offset="0.36" stop-color="#e2eaf2"/><stop offset="0.41" stop-color="#d1d8e0"/><stop offset="0.58" stop-color="#a1a7ae"/><stop offset="0.72" stop-color="#7e8489"/><stop offset="0.83" stop-color="#696e73"/><stop offset="0.91" stop-color="#61666b"/><stop offset="1" stop-color="#a9b1bb"/></linearGradient><linearGradient id="未命名的渐变_3-3" x1="535.74" y1="859.17" x2="553.59" y2="859.17" gradientTransform="translate(-428.56 -826.41)" xlink:href="#未命名的渐变_3"/><linearGradient id="未命名的渐变_3-4" x1="535.74" y1="861.59" x2="553.59" y2="861.59" gradientTransform="translate(-430.57 -827.49)" xlink:href="#未命名的渐变_3"/><linearGradient id="未命名的渐变_3-5" x1="535.74" y1="864.01" x2="553.59" y2="864.01" gradientTransform="translate(-432.59 -828.58)" xlink:href="#未命名的渐变_3"/><linearGradient id="未命名的渐变_149" x1="-905.33" y1="-957" x2="-887.1" y2="-957" gradientTransform="matrix(0.94, 0.33, 0.33, -0.94, 1286.48, -585.59)" gradientUnits="userSpaceOnUse"><stop offset="0" stop-color="#ccd1d5"/><stop offset="1" stop-color="#90969f"/></linearGradient><linearGradient id="未命名的渐变_149-2" x1="534.86" y1="846.53" x2="554.09" y2="846.53" gradientTransform="matrix(-0.33, 0.94, -0.94, -0.33, 1104.6, -212.01)" xlink:href="#未命名的渐变_149"/><linearGradient id="未命名的渐变_149-3" x1="-902.61" y1="-957" x2="-889.82" y2="-957" xlink:href="#未命名的渐变_149"/><linearGradient id="未命名的渐变_149-4" x1="544.47" y1="839.63" x2="544.47" y2="853.43" gradientTransform="matrix(-0.33, 0.94, -0.94, -0.33, 1104.6, -212.01)" xlink:href="#未命名的渐变_149"/><linearGradient id="未命名的渐变_413-4" x1="1666.44" y1="-844.98" x2="1666.44" y2="-826.13" gradientTransform="matrix(1, 0, 0, -1, -1589.59, -803.15)" xlink:href="#未命名的渐变_413"/><linearGradient id="未命名的渐变_413-5" x1="1666.42" y1="-298.49" x2="1666.42" y2="-295.2" gradientTransform="matrix(-0.55, 0.83, 2.11, 1.4, 1634.47, -934.86)" xlink:href="#未命名的渐变_413"/><linearGradient id="未命名的渐变_3-6" x1="1657.51" y1="-842.16" x2="1675.36" y2="-842.16" gradientTransform="matrix(1, 0, 0, -1, -1595.09, -813.4)" xlink:href="#未命名的渐变_3"/><linearGradient id="未命名的渐变_3-7" x1="1657.51" y1="-839.74" x2="1675.36" y2="-839.74" gradientTransform="matrix(1, 0, 0, -1, -1593.08, -809.65)" xlink:href="#未命名的渐变_3"/><linearGradient id="未命名的渐变_12-2" x1="1657.51" y1="-837.32" x2="1675.36" y2="-837.32" gradientTransform="matrix(1, 0, 0, -1, -1591.06, -805.9)" xlink:href="#未命名的渐变_12"/><linearGradient id="未命名的渐变_3-8" x1="1657.51" y1="-834.91" x2="1675.36" y2="-834.91" gradientTransform="matrix(1, 0, 0, -1, -1589.05, -802.14)" xlink:href="#未命名的渐变_3"/><linearGradient id="未命名的渐变_3-9" x1="1657.51" y1="-832.49" x2="1675.36" y2="-832.49" gradientTransform="matrix(1, 0, 0, -1, -1587.03, -798.39)" xlink:href="#未命名的渐变_3"/><linearGradient id="未命名的渐变_3-10" x1="1657.51" y1="-830.07" x2="1675.36" y2="-830.07" gradientTransform="matrix(1, 0, 0, -1, -1585.02, -794.64)" xlink:href="#未命名的渐变_3"/><linearGradient id="未命名的渐变_149-5" x1="788.75" y1="-2078.78" x2="806.98" y2="-2078.78" gradientTransform="matrix(-0.33, -0.94, 0.94, -0.33, 2292.35, 99.66)" xlink:href="#未命名的渐变_149"/><linearGradient id="未命名的渐变_149-6" x1="1656.63" y1="-847.55" x2="1675.86" y2="-847.55" gradientTransform="matrix(-0.94, 0.33, 0.33, 0.94, 1918.76, 281.54)" xlink:href="#未命名的渐变_149"/><linearGradient id="未命名的渐变_149-7" x1="791.47" y1="-2078.78" x2="804.26" y2="-2078.78" gradientTransform="matrix(-0.33, -0.94, 0.94, -0.33, 2292.35, 99.66)" xlink:href="#未命名的渐变_149"/><linearGradient id="未命名的渐变_149-8" x1="1666.25" y1="-854.45" x2="1666.25" y2="-840.65" gradientTransform="matrix(-0.94, 0.33, 0.33, 0.94, 1918.76, 281.54)" xlink:href="#未命名的渐变_149"/><linearGradient id="未命名的渐变_413-6" x1="96.39" y1="12.19" x2="96.39" y2="31.03" xlink:href="#未命名的渐变_413"/><linearGradient id="未命名的渐变_413-7" x1="96.39" y1="29.24" x2="96.39" y2="32.53" xlink:href="#未命名的渐变_413"/><linearGradient id="未命名的渐变_3-11" x1="87.46" y1="15.01" x2="105.32" y2="15.01" gradientTransform="matrix(1, 0, 0, 1, 0, 0)" xlink:href="#未命名的渐变_3"/><linearGradient id="未命名的渐变_3-12" x1="87.46" y1="17.42" x2="105.32" y2="17.42" gradientTransform="matrix(1, 0, 0, 1, 0, 0)" xlink:href="#未命名的渐变_3"/><linearGradient id="未命名的渐变_12-3" x1="87.46" y1="19.84" x2="105.32" y2="19.84" gradientTransform="matrix(1, 0, 0, 1, 0, 0)" xlink:href="#未命名的渐变_12"/><linearGradient id="未命名的渐变_3-13" x1="87.46" y1="22.26" x2="105.32" y2="22.26" gradientTransform="matrix(1, 0, 0, 1, 0, 0)" xlink:href="#未命名的渐变_3"/><linearGradient id="未命名的渐变_3-14" x1="87.46" y1="24.68" x2="105.32" y2="24.68" gradientTransform="matrix(1, 0, 0, 1, 0, 0)" xlink:href="#未命名的渐变_3"/><linearGradient id="未命名的渐变_3-15" x1="87.46" y1="27.09" x2="105.32" y2="27.09" gradientTransform="matrix(1, 0, 0, 1, 0, 0)" xlink:href="#未命名的渐变_3"/><linearGradient id="未命名的渐变_149-9" x1="-68.42" y1="-508.73" x2="-50.18" y2="-508.73" gradientTransform="matrix(0, -1, -1, 0, -412.53, -49.68)" xlink:href="#未命名的渐变_149"/><linearGradient id="未命名的渐变_149-10" x1="86.58" y1="9.62" x2="105.82" y2="9.62" gradientTransform="matrix(1, 0, 0, 1, 0, 0)" xlink:href="#未命名的渐变_149"/><linearGradient id="未命名的渐变_149-11" x1="-65.7" y1="-508.73" x2="-52.9" y2="-508.73" gradientTransform="matrix(0, -1, -1, 0, -412.53, -49.68)" xlink:href="#未命名的渐变_149"/><linearGradient id="未命名的渐变_149-12" x1="89.3" y1="9.62" x2="103.1" y2="9.62" gradientTransform="matrix(1, 0, 0, 1, 0, 0)" xlink:href="#未命名的渐变_149"/><linearGradient id="未命名的渐变_108" x1="96.39" y1="29.86" x2="96.39" y2="57.16" gradientUnits="userSpaceOnUse"><stop offset="0" stop-color="#9ba1ab"/><stop offset="1" stop-color="#767b82"/></linearGradient><linearGradient id="未命名的渐变_121" x1="96.39" y1="30.52" x2="96.39" y2="56.5" gradientUnits="userSpaceOnUse"><stop offset="0" stop-color="#f1f1f1"/><stop offset="0.01" stop-color="#f1f1f1" stop-opacity="0.94"/><stop offset="0.03" stop-color="#f1f1f1" stop-opacity="0.75"/><stop offset="0.05" stop-color="#f1f1f1" stop-opacity="0.57"/><stop offset="0.07" stop-color="#f1f1f1" stop-opacity="0.42"/><stop offset="0.1" stop-color="#f1f1f1" stop-opacity="0.29"/><stop offset="0.13" stop-color="#f1f1f1" stop-opacity="0.18"/><stop offset="0.16" stop-color="#f1f1f1" stop-opacity="0.1"/><stop offset="0.2" stop-color="#f1f1f1" stop-opacity="0.04"/><stop offset="0.24" stop-color="#f1f1f1" stop-opacity="0.01"/><stop offset="0.33" stop-color="#f1f1f1" stop-opacity="0"/></linearGradient><linearGradient id="未命名的渐变_413-8" x1="40.56" y1="56.65" x2="40.56" y2="67.98" xlink:href="#未命名的渐变_413"/><linearGradient id="未命名的渐变_397" x1="34.95" y1="36.39" x2="48.53" y2="36.39" gradientUnits="userSpaceOnUse"><stop offset="0" stop-color="#767b82"/><stop offset="0.07" stop-color="#9ba1ab"/><stop offset="0.22" stop-color="#e2eaf2"/><stop offset="0.28" stop-color="#d1d8e0"/><stop offset="0.49" stop-color="#a1a7ae"/><stop offset="0.67" stop-color="#7e8489"/><stop offset="0.81" stop-color="#696e73"/><stop offset="0.91" stop-color="#61666b"/><stop offset="1" stop-color="#a9b1bb"/></linearGradient><linearGradient id="未命名的渐变_397-2" x1="32.94" y1="38.4" x2="50.55" y2="38.4" xlink:href="#未命名的渐变_397"/><linearGradient id="未命名的渐变_397-3" x1="30.93" y1="44.44" x2="52.09" y2="44.44" xlink:href="#未命名的渐变_397"/><linearGradient id="未命名的渐变_397-4" x1="31.43" y1="42.43" x2="52.09" y2="42.43" xlink:href="#未命名的渐变_397"/><linearGradient id="未命名的渐变_397-5" x1="31.94" y1="40.41" x2="51.55" y2="40.41" xlink:href="#未命名的渐变_397"/><linearGradient id="未命名的渐变_397-6" x1="31.43" y1="46.45" x2="52.09" y2="46.45" xlink:href="#未命名的渐变_397"/><linearGradient id="未命名的渐变_397-7" x1="31.94" y1="48.46" x2="51.55" y2="48.46" xlink:href="#未命名的渐变_397"/><linearGradient id="未命名的渐变_397-8" x1="32.94" y1="50.47" x2="50.55" y2="50.47" xlink:href="#未命名的渐变_397"/><linearGradient id="未命名的渐变_397-9" x1="34.95" y1="52.48" x2="48.53" y2="52.48" xlink:href="#未命名的渐变_397"/><linearGradient id="未命名的渐变_397-10" x1="49.62" y1="44.44" x2="49.87" y2="44.44" xlink:href="#未命名的渐变_397"/><linearGradient id="未命名的渐变_397-11" x1="47.61" y1="44.44" x2="47.86" y2="44.44" xlink:href="#未命名的渐变_397"/><linearGradient id="未命名的渐变_397-12" x1="41.57" y1="44.47" x2="41.82" y2="44.47" xlink:href="#未命名的渐变_397"/><linearGradient id="未命名的渐变_397-13" x1="43.58" y1="44.44" x2="43.83" y2="44.44" xlink:href="#未命名的渐变_397"/><linearGradient id="未命名的渐变_397-14" x1="45.6" y1="44.44" x2="45.85" y2="44.44" xlink:href="#未命名的渐变_397"/><linearGradient id="未命名的渐变_397-15" x1="39.56" y1="44.44" x2="39.81" y2="44.44" xlink:href="#未命名的渐变_397"/><linearGradient id="未命名的渐变_397-16" x1="37.55" y1="44.7" x2="37.8" y2="44.7" xlink:href="#未命名的渐变_397"/><linearGradient id="未命名的渐变_397-17" x1="35.54" y1="44.45" x2="35.79" y2="44.45" xlink:href="#未命名的渐变_397"/><linearGradient id="未命名的渐变_397-18" x1="33.53" y1="44.7" x2="33.78" y2="44.7" xlink:href="#未命名的渐变_397"/><linearGradient id="未命名的渐变_452" x1="41.68" y1="55.07" x2="41.68" y2="33.65" gradientUnits="userSpaceOnUse"><stop offset="0" stop-color="#c2c9d6"/><stop offset="1" stop-color="#61666b"/></linearGradient><linearGradient id="未命名的渐变_473-2" x1="96.39" y1="35.13" x2="96.39" y2="51.73" xlink:href="#未命名的渐变_473"/><linearGradient id="未命名的渐变_397-19" x1="129.32" y1="66" x2="131.95" y2="66" xlink:href="#未命名的渐变_397"/><linearGradient id="未命名的渐变_67" x1="129.97" y1="56.45" x2="131.29" y2="56.45" gradientUnits="userSpaceOnUse"><stop offset="0" stop-color="#a17f44"/><stop offset="0.07" stop-color="#dbb167"/><stop offset="0.22" stop-color="#ffca6c"/><stop offset="0.5" stop-color="#ddaf5e"/><stop offset="0.75" stop-color="#c79d54"/><stop offset="0.91" stop-color="#bf9751"/><stop offset="1" stop-color="#94753f"/></linearGradient><linearGradient id="未命名的渐变_397-20" x1="128.68" y1="60.99" x2="132.58" y2="60.99" xlink:href="#未命名的渐变_397"/><linearGradient id="未命名的渐变_397-21" x1="128.68" y1="67.44" x2="132.58" y2="67.44" xlink:href="#未命名的渐变_397"/><linearGradient id="未命名的渐变_67-2" x1="128.39" y1="60.64" x2="132.87" y2="60.64" xlink:href="#未命名的渐变_67"/></defs><title>Natural gas compressor(天然气压缩机)</title><g id="图层_2" data-name="图层 2"><g id="图层_16" data-name="图层 16"><g id="Natural_gas_compressor_天然气压缩机_" data-name="Natural gas compressor(天然气压缩机)"><line class="cls-1" x1="96.2" y1="18.68" x2="43.71" y2="34.39"/><circle class="cls-2" cx="96.2" cy="42.43" r="23.75"/><rect class="cls-3" x="94.03" y="20.07" width="4.35" height="44.7" transform="translate(58.18 -55.6) rotate(45)"/><rect class="cls-3" x="94.03" y="20.07" width="4.35" height="44.7" transform="translate(-1.82 80.45) rotate(-45)"/><path class="cls-1" d="M122.38,67.55V39c0-37.61-36.74-24.27-36.74-24.27L41.86,27C26.07,32.4,26.47,67.55,35,67.55Z"/><path class="cls-4" d="M150,90.41c0,12.23-3.82,19.52-9.07,21.71a7.15,7.15,0,0,1-1.21.4,8.74,8.74,0,0,1-2.34.31H12.61a8.93,8.93,0,0,1-2.06-.25,7.54,7.54,0,0,1-1.21-.42C4,109.94,0,102.12,0,90.41S4,70.87,9.34,68.65a7.54,7.54,0,0,1,1.21-.42A8.93,8.93,0,0,1,12.61,68H137.38a8.74,8.74,0,0,1,2.34.31,7.15,7.15,0,0,1,1.21.4C146.18,70.88,150,78.17,150,90.41Z"/><path class="cls-5" d="M12.82,68.23v44.35a8.22,8.22,0,0,1-1.3-.42V68.65A8.22,8.22,0,0,1,12.82,68.23Z"/><path class="cls-5" d="M140.25,68.69v43.43a8.16,8.16,0,0,1-1.3.4V68.29A8.16,8.16,0,0,1,140.25,68.69Z"/><circle class="cls-3" cx="30.36" cy="114.55" r="14.28"/><circle class="cls-6" cx="30.36" cy="114.55" r="8.5"/><circle class="cls-7" cx="41.68" cy="44.36" r="16.46"/><circle class="cls-8" cx="41.68" cy="44.36" r="14.5"/><circle class="cls-3" cx="115.56" cy="114.55" r="14.28"/><circle class="cls-9" cx="115.56" cy="114.55" r="8.5"/><path class="cls-10" d="M79.76,56.65H113a2.55,2.55,0,0,1,2.55,2.55V68a0,0,0,0,1,0,0H77.22a0,0,0,0,1,0,0V59.2A2.55,2.55,0,0,1,79.76,56.65Z"/><path class="cls-11" d="M111.89,23h9.52a2.38,2.38,0,0,1,2.38,2.38V41.83a0,0,0,0,1,0,0H109.52a0,0,0,0,1,0,0V25.36A2.38,2.38,0,0,1,111.89,23Z" transform="translate(79.26 -82.75) rotate(56.49)"/><polygon class="cls-12" points="108.1 48.42 98.56 34.02 106.32 30.63 114.25 42.61 108.1 48.42"/><rect class="cls-13" x="113.23" y="28.47" width="17.85" height="0.58" rx="0.26" transform="translate(78.69 -88.97) rotate(56.49)"/><rect class="cls-14" x="111.21" y="29.8" width="17.85" height="0.58" rx="0.26" transform="translate(78.9 -86.69) rotate(56.49)"/><rect class="cls-15" x="109.2" y="31.14" width="17.85" height="0.58" rx="0.26" transform="translate(79.11 -84.41) rotate(56.49)"/><rect class="cls-16" x="107.18" y="32.47" width="17.85" height="0.58" rx="0.26" transform="translate(79.32 -82.13) rotate(56.49)"/><rect class="cls-17" x="105.17" y="33.81" width="17.85" height="0.58" rx="0.26" transform="translate(79.53 -79.85) rotate(56.49)"/><rect class="cls-18" x="103.15" y="35.14" width="17.85" height="0.58" rx="0.26" transform="translate(79.74 -77.58) rotate(56.49)"/><circle class="cls-19" cx="126.54" cy="25.62" r="9.12" transform="translate(29.33 110.59) rotate(-52.6)"/><circle class="cls-20" cx="126.54" cy="25.62" r="6.4" transform="translate(29.33 110.59) rotate(-52.6)"/><path class="cls-21" d="M69.71,23H84a0,0,0,0,1,0,0V39.45a2.38,2.38,0,0,1-2.38,2.38H72.09a2.38,2.38,0,0,1-2.38-2.38V23A0,0,0,0,1,69.71,23Z" transform="translate(146.29 -13.78) rotate(123.51)"/><polygon class="cls-22" points="85.39 48.42 94.93 34.02 87.17 30.63 79.24 42.61 85.39 48.42"/><rect class="cls-23" x="62.41" y="28.47" width="17.85" height="0.58" rx="0.26" transform="translate(134.7 -14.84) rotate(123.51)"/><rect class="cls-24" x="64.43" y="29.8" width="17.85" height="0.58" rx="0.26" transform="translate(138.94 -14.45) rotate(123.51)"/><rect class="cls-25" x="66.44" y="31.14" width="17.85" height="0.58" rx="0.26" transform="translate(143.19 -14.06) rotate(123.51)"/><rect class="cls-26" x="68.46" y="32.47" width="17.85" height="0.58" rx="0.26" transform="translate(147.43 -13.67) rotate(123.51)"/><rect class="cls-27" x="70.48" y="33.81" width="17.85" height="0.58" rx="0.26" transform="matrix(-0.55, 0.83, -0.83, -0.55, 151.67, -13.28)"/><rect class="cls-28" x="72.49" y="35.14" width="17.85" height="0.58" rx="0.26" transform="translate(155.91 -12.89) rotate(123.51)"/><circle class="cls-29" cx="66.95" cy="25.62" r="9.12" transform="translate(-1.8 45.93) rotate(-37.4)"/><circle class="cls-30" cx="66.95" cy="25.62" r="6.4" transform="translate(-1.8 45.93) rotate(-37.4)"/><path class="cls-31" d="M91.63,12.19h9.52a2.38,2.38,0,0,1,2.38,2.38V31a0,0,0,0,1,0,0H89.26a0,0,0,0,1,0,0V14.56A2.38,2.38,0,0,1,91.63,12.19Z"/><polygon class="cls-32" points="105.03 32.53 87.75 32.53 89.2 29.24 103.58 29.24 105.03 32.53"/><rect class="cls-33" x="87.46" y="14.72" width="17.85" height="0.58" rx="0.26"/><rect class="cls-34" x="87.46" y="17.13" width="17.85" height="0.58" rx="0.26"/><rect class="cls-35" x="87.46" y="19.55" width="17.85" height="0.58" rx="0.26"/><rect class="cls-36" x="87.46" y="21.97" width="17.85" height="0.58" rx="0.26"/><rect class="cls-37" x="87.46" y="24.39" width="17.85" height="0.58" rx="0.26"/><rect class="cls-38" x="87.46" y="26.81" width="17.85" height="0.58" rx="0.26"/><circle class="cls-39" cx="96.2" cy="9.62" r="9.12"/><circle class="cls-40" cx="96.2" cy="9.62" r="6.4"/><path class="cls-41" d="M95,29.86h2.73a11.46,11.46,0,0,1,11.46,11.46V57.16a0,0,0,0,1,0,0H83.57a0,0,0,0,1,0,0V41.32A11.46,11.46,0,0,1,95,29.86Z"/><path class="cls-42" d="M95.14,31h2.49A10.48,10.48,0,0,1,108.12,41.5V56a0,0,0,0,1,0,0H84.66a0,0,0,0,1,0,0V41.5A10.48,10.48,0,0,1,95.14,31Z"/><path class="cls-43" d="M23.93,56.65H57.18a2.55,2.55,0,0,1,2.55,2.55V68a0,0,0,0,1,0,0H21.39a0,0,0,0,1,0,0V59.2A2.55,2.55,0,0,1,23.93,56.65Z"/><circle class="cls-3" cx="41.7" cy="44.44" r="10.56"/><line class="cls-44" x1="34.95" y1="36.39" x2="48.53" y2="36.39"/><line class="cls-45" x1="32.94" y1="38.4" x2="50.55" y2="38.4"/><line class="cls-46" x1="30.93" y1="44.44" x2="52.09" y2="44.44"/><line class="cls-47" x1="31.43" y1="42.43" x2="52.09" y2="42.43"/><line class="cls-48" x1="31.94" y1="40.41" x2="51.55" y2="40.41"/><line class="cls-49" x1="31.43" y1="46.45" x2="52.09" y2="46.45"/><line class="cls-50" x1="31.94" y1="48.46" x2="51.55" y2="48.46"/><line class="cls-51" x1="32.94" y1="50.47" x2="50.55" y2="50.47"/><line class="cls-52" x1="34.95" y1="52.48" x2="48.53" y2="52.48"/><line class="cls-53" x1="49.75" y1="37.91" x2="49.75" y2="50.97"/><line class="cls-54" x1="47.74" y1="35.9" x2="47.74" y2="52.98"/><line class="cls-55" x1="41.7" y1="33.89" x2="41.7" y2="55.05"/><line class="cls-56" x1="43.71" y1="34.39" x2="43.71" y2="54.49"/><line class="cls-57" x1="45.72" y1="34.9" x2="45.72" y2="53.99"/><line class="cls-58" x1="39.68" y1="34.39" x2="39.68" y2="54.49"/><line class="cls-59" x1="37.68" y1="34.9" x2="37.68" y2="54.51"/><line class="cls-60" x1="35.66" y1="35.9" x2="35.66" y2="53"/><line class="cls-61" x1="33.65" y1="37.91" x2="33.65" y2="51.49"/><circle class="cls-62" cx="41.68" cy="44.36" r="10.34"/><circle class="cls-63" cx="96.39" cy="43.43" r="8.3"/><rect class="cls-64" x="129.32" y="64.02" width="2.63" height="3.95"/><rect class="cls-65" x="129.97" y="55.24" width="1.32" height="2.41"/><circle class="cls-66" cx="130.63" cy="51.41" r="4.14"/><circle class="cls-67" cx="130.63" cy="51.41" r="3.37"/><polygon class="cls-68" points="132.59 49.5 128.76 52.7 129.39 53.33 132.59 49.5"/><circle class="cls-69" cx="130.63" cy="51.41" r="0.54"/><rect class="cls-70" x="128.68" y="57.01" width="3.9" height="7.97"/><rect class="cls-71" x="128.68" y="66.91" width="3.9" height="1.06"/><circle class="cls-67" cx="130.63" cy="60.64" r="2.9"/><circle class="cls-72" cx="130.63" cy="60.64" r="2.24"/><circle class="cls-73" cx="130.63" cy="60.64" r="2.05"/></g></g></g></svg>