<svg xmlns="http://www.w3.org/2000/svg" xmlns:xlink="http://www.w3.org/1999/xlink" viewBox="0 0 100.13 150"><defs><style>.cls-1{fill:url(#未命名的渐变_186);}.cls-2{fill:#5c6066;}.cls-3,.cls-4{fill:#8a9099;}.cls-4{stroke:#cfd8e6;stroke-width:2px;}.cls-13,.cls-14,.cls-4,.cls-9{stroke-miterlimit:10;}.cls-5{fill:#45484d;}.cls-6,.cls-7{fill:#222a34;}.cls-17,.cls-6{opacity:0.2;}.cls-7{opacity:0.6;}.cls-8{fill:url(#未命名的渐变_141);}.cls-9{fill:#42474d;stroke:#b4bcc5;stroke-width:0.5px;}.cls-10{fill:#cfd5db;}.cls-11{fill:#a63c27;}.cls-12{fill:#a8afb5;}.cls-13,.cls-14{stroke:#505458;stroke-width:0.25px;}.cls-13{fill:url(#未命名的渐变_228);}.cls-14{fill:url(#未命名的渐变_228-2);}.cls-15{fill:#bfc3cc;}.cls-16{fill:url(#未命名的渐变_201);}</style><linearGradient id="未命名的渐变_186" x1="4206" y1="-60.05" x2="4306.13" y2="-60.05" gradientTransform="translate(-4206 143.11)" gradientUnits="userSpaceOnUse"><stop offset="0" stop-color="#8b9199"/><stop offset="0.02" stop-color="#d7dce0"/><stop offset="0.04" stop-color="#a2a8b3"/><stop offset="0.98" stop-color="#a2a8b3"/><stop offset="1" stop-color="#767b82"/></linearGradient><linearGradient id="未命名的渐变_141" x1="50.06" y1="16.11" x2="50.06" gradientUnits="userSpaceOnUse"><stop offset="0" stop-color="#a2a8b3"/><stop offset="1" stop-color="#b9c1cc"/></linearGradient><linearGradient id="未命名的渐变_228" x1="41.41" y1="107.72" x2="41.41" y2="109.37" gradientTransform="matrix(1, 0, 0, -1, 0, 143.17)" gradientUnits="userSpaceOnUse"><stop offset="0" stop-color="#9ba1ab"/><stop offset="0" stop-color="#46494d"/><stop offset="0.23" stop-color="#757980"/><stop offset="0.55" stop-color="#939699"/><stop offset="1" stop-color="#45484d"/></linearGradient><linearGradient id="未命名的渐变_228-2" x1="41.41" y1="94.31" x2="41.41" y2="95.96" xlink:href="#未命名的渐变_228"/><linearGradient id="未命名的渐变_201" x1="50.06" y1="39.48" x2="50.06" y2="33.79" gradientUnits="userSpaceOnUse"><stop offset="0" stop-color="#e6f1ff" stop-opacity="0"/><stop offset="0.16" stop-color="#e6f1ff" stop-opacity="0.01"/><stop offset="0.29" stop-color="#e6f1ff" stop-opacity="0.05"/><stop offset="0.41" stop-color="#e7f1ff" stop-opacity="0.12"/><stop offset="0.53" stop-color="#e8f2ff" stop-opacity="0.21"/><stop offset="0.63" stop-color="#e9f2ff" stop-opacity="0.33"/><stop offset="0.74" stop-color="#eaf2ff" stop-opacity="0.48"/><stop offset="0.84" stop-color="#ebf3ff" stop-opacity="0.66"/><stop offset="0.94" stop-color="#edf4ff" stop-opacity="0.85"/><stop offset="1" stop-color="#eef4ff"/></linearGradient></defs><title>Oil fired boiler 1(燃油锅炉1)</title><g id="图层_2" data-name="图层 2"><g id="图层_21" data-name="图层 21"><g id="Oil_fired_boiler_1_燃油锅炉1_" data-name="Oil fired boiler 1(燃油锅炉1)"><rect class="cls-1" y="16.11" width="100.13" height="133.89" transform="translate(100.13 166.11) rotate(180)"/><rect class="cls-2" x="48.09" y="28.81" width="3.96" height="83.34" transform="translate(-20.42 120.54) rotate(-90)"/><rect class="cls-3" x="43" y="37.85" width="14.13" height="83.34" transform="translate(-29.46 129.59) rotate(-90)"/><rect class="cls-4" x="39.18" y="28.9" width="21.76" height="24.67" transform="translate(8.83 91.3) rotate(-90)"/><rect class="cls-5" x="43" y="81.6" width="14.13" height="83.34" transform="translate(-73.2 173.33) rotate(-90)"/><rect class="cls-2" x="35.26" y="59.72" width="29.61" height="83.34" transform="translate(-51.33 151.46) rotate(-90)"/><rect class="cls-6" y="16.11" width="100.13" height="6.85"/><rect class="cls-7" y="143.15" width="100.13" height="6.85"/><polygon class="cls-8" points="83.19 16.11 16.94 16.11 25.42 0 74.71 0 83.19 16.11"/><circle class="cls-9" cx="61.67" cy="8.52" r="5.62"/><circle class="cls-10" cx="61.67" cy="8.52" r="4.58"/><polygon class="cls-11" points="64.33 5.92 59.13 10.27 59.98 11.12 64.33 5.92"/><circle class="cls-12" cx="61.67" cy="8.52" r="0.73"/><circle class="cls-13" cx="41.41" cy="34.62" r="0.82"/><circle class="cls-14" cx="41.41" cy="48.03" r="0.82"/><rect class="cls-15" x="44.08" y="33.79" width="11.96" height="5.69"/><polyline class="cls-16" points="44.08 39.48 44.08 33.8 56.05 33.8"/></g></g></g></svg>