<svg xmlns="http://www.w3.org/2000/svg" xmlns:xlink="http://www.w3.org/1999/xlink" viewBox="0 0 142.46 150"><defs><style>.cls-1{fill:url(#未命名的渐变_105);}.cls-2{fill:url(#未命名的渐变_105-2);}.cls-3{fill:url(#未命名的渐变_105-3);}.cls-4{fill:url(#未命名的渐变_105-4);}.cls-5{fill:url(#未命名的渐变_74);}.cls-6{fill:url(#未命名的渐变_74-2);}.cls-7{fill:url(#未命名的渐变_74-3);}.cls-8{fill:url(#未命名的渐变_74-4);}.cls-9{fill:url(#未命名的渐变_74-5);}.cls-10{fill:url(#未命名的渐变_74-6);}.cls-11{fill:#dbdbdb;}.cls-12{fill:url(#未命名的渐变_105-5);}.cls-13{fill:url(#未命名的渐变_105-6);}.cls-14{fill:url(#未命名的渐变_74-7);}.cls-15{fill:#c4c4c4;}.cls-16{fill:#282d33;}.cls-17{opacity:0.2;}</style><linearGradient id="未命名的渐变_105" x1="83.3" y1="28.17" x2="84.82" y2="28.17" gradientUnits="userSpaceOnUse"><stop offset="0" stop-color="#e2e2e2"/><stop offset="0.03" stop-color="#d0d0d0"/><stop offset="0.06" stop-color="#bcbcbc"/><stop offset="0.09" stop-color="#b5b5b5"/><stop offset="0.49" stop-color="#f6f6f6"/><stop offset="0.63" stop-color="#f3f3f3"/><stop offset="0.73" stop-color="#eaeaea"/><stop offset="0.82" stop-color="#dbdbdb"/><stop offset="0.9" stop-color="#c6c6c6"/><stop offset="0.97" stop-color="#aaa"/><stop offset="1" stop-color="#9b9b9b"/></linearGradient><linearGradient id="未命名的渐变_105-2" x1="83.52" y1="44.23" x2="85.04" y2="44.23" xlink:href="#未命名的渐变_105"/><linearGradient id="未命名的渐变_105-3" x1="98.11" y1="44.23" x2="99.63" y2="44.23" xlink:href="#未命名的渐变_105"/><linearGradient id="未命名的渐变_105-4" x1="98.11" y1="28.17" x2="99.63" y2="28.17" xlink:href="#未命名的渐变_105"/><linearGradient id="未命名的渐变_74" x1="90.37" y1="118.12" x2="138.59" y2="118.12" gradientUnits="userSpaceOnUse"><stop offset="0" stop-color="#6b6b6b"/><stop offset="0.01" stop-color="#767676"/><stop offset="0.03" stop-color="#959595"/><stop offset="0.04" stop-color="#aaa"/><stop offset="0.37" stop-color="#ccc"/><stop offset="0.74" stop-color="#eaeaea"/><stop offset="0.94" stop-color="#f6f6f6"/><stop offset="0.95" stop-color="#ededed"/><stop offset="0.96" stop-color="#d4d4d4"/><stop offset="0.97" stop-color="#ababab"/><stop offset="0.99" stop-color="#737373"/><stop offset="0.99" stop-color="#666"/></linearGradient><linearGradient id="未命名的渐变_74-2" x1="92.49" y1="46.44" x2="92.49" y2="25.25" xlink:href="#未命名的渐变_74"/><linearGradient id="未命名的渐变_74-3" x1="42.28" y1="111.76" x2="90.5" y2="111.76" xlink:href="#未命名的渐变_74"/><linearGradient id="未命名的渐变_74-4" x1="108.16" y1="50.51" x2="108.16" y2="21.58" xlink:href="#未命名的渐变_74"/><linearGradient id="未命名的渐变_74-5" x1="4.26" y1="72.15" x2="42.28" y2="72.15" xlink:href="#未命名的渐变_74"/><linearGradient id="未命名的渐变_74-6" x1="43.62" y1="53.77" x2="43.62" y2="17.65" xlink:href="#未命名的渐变_74"/><linearGradient id="未命名的渐变_105-5" x1="80.21" y1="17.23" x2="80.21" y2="9.97" xlink:href="#未命名的渐变_105"/><linearGradient id="未命名的渐变_105-6" x1="82.39" y1="16.22" x2="82.39" y2="10.67" xlink:href="#未命名的渐变_105"/><linearGradient id="未命名的渐变_74-7" x1="92.49" y1="25.25" x2="92.49" y2="18.52" xlink:href="#未命名的渐变_74"/></defs><title>Oil skimmer（撇油器）</title><g id="图层_2" data-name="图层 2"><g id="图层_125" data-name="图层 125"><g id="Oil_skimmer_撇油器_" data-name="Oil skimmer（撇油器）"><circle class="cls-1" cx="84.06" cy="28.17" r="0.76"/><rect x="83.51" y="28.06" width="1.11" height="0.21" rx="0.02" transform="translate(44.54 -51.19) rotate(45)"/><rect x="83.51" y="28.06" width="1.11" height="0.21" rx="0.02" transform="translate(4.7 67.69) rotate(-45)"/><circle class="cls-2" cx="84.28" cy="44.23" r="0.76"/><rect x="83.73" y="44.12" width="1.11" height="0.21" rx="0.02" transform="translate(55.96 -46.64) rotate(45)"/><rect x="83.73" y="44.12" width="1.11" height="0.21" rx="0.02" transform="translate(-6.59 72.55) rotate(-45)"/><circle class="cls-3" cx="98.87" cy="44.23" r="0.76"/><rect x="98.31" y="44.12" width="1.11" height="0.21" rx="0.02" transform="translate(60.23 -56.95) rotate(45)"/><rect x="98.31" y="44.12" width="1.11" height="0.21" rx="0.02" transform="translate(-2.32 82.86) rotate(-45)"/><circle class="cls-4" cx="98.87" cy="28.17" r="0.76"/><rect x="98.31" y="28.06" width="1.11" height="0.21" rx="0.02" transform="translate(48.88 -61.66) rotate(45)"/><rect x="98.31" y="28.06" width="1.11" height="0.21" rx="0.02" transform="translate(9.04 78.16) rotate(-45)"/><rect class="cls-5" x="90.37" y="91.95" width="48.22" height="52.34"/><rect class="cls-6" x="82.89" y="25.25" width="19.2" height="21.19"/><rect class="cls-7" x="42.28" y="78.84" width="48.22" height="65.85"/><rect class="cls-8" x="102.09" y="21.58" width="12.14" height="28.93"/><rect class="cls-9" x="4.26" width="38.01" height="144.3"/><rect class="cls-10" x="42.28" y="17.65" width="2.68" height="36.12"/><rect class="cls-11" x="54.14" y="6.86" width="25.14" height="13.04"/><rect class="cls-11" x="44.95" y="19.4" width="37.94" height="32.76"/><rect class="cls-12" x="79.28" y="9.97" width="1.86" height="7.26"/><rect class="cls-13" x="81.14" y="10.67" width="2.5" height="5.54"/><rect class="cls-14" x="82.89" y="18.52" width="19.2" height="6.73"/><rect class="cls-15" y="144.3" width="142.46" height="5.7"/><rect class="cls-15" x="49.91" y="97.56" width="33.12" height="6.73"/><rect class="cls-15" x="97.67" y="107.03" width="33.61" height="7.34"/><rect class="cls-16" x="44.95" y="22.78" width="37.94" height="2.29"/><rect class="cls-16" x="44.95" y="26.28" width="37.94" height="1.89"/><rect class="cls-16" x="44.95" y="28.93" width="37.94" height="1.38"/><rect class="cls-16" x="44.95" y="31.07" width="37.94" height="1.38"/><rect class="cls-16" x="44.95" y="33.2" width="37.94" height="1.38"/><rect class="cls-16" x="44.95" y="35.33" width="37.94" height="1.38"/><rect class="cls-16" x="44.95" y="37.47" width="37.94" height="1.38"/><rect class="cls-16" x="44.95" y="39.6" width="37.94" height="1.38"/><rect class="cls-16" x="44.95" y="41.74" width="37.94" height="1.38"/><rect class="cls-16" x="44.95" y="43.87" width="37.94" height="1.38"/><rect class="cls-16" x="44.95" y="47.13" width="37.94" height="1.38"/></g></g></g></svg>