<svg xmlns="http://www.w3.org/2000/svg" viewBox="0 0 148.3 20.96"><defs><style>.cls-1{fill:#e90000;}.cls-2{fill:#fff;}.cls-3{opacity:0.2;}</style></defs><title>OSHA tape （oasa胶带） (5)</title><g id="图层_2" data-name="图层 2"><g id="图层_28" data-name="图层 28"><g id="OSHA_tape_oasa胶带_" data-name="OSHA tape （oasa胶带）"><rect class="cls-1" width="148.3" height="19.67"/><polygon class="cls-2" points="77.08 0 65.02 0 51.26 19.67 63.32 19.67 77.08 0"/><polygon class="cls-2" points="55.95 0 44.26 0 30.5 19.67 42.19 19.67 55.95 0"/><polygon class="cls-2" points="98.19 0 86.15 0 72.39 19.67 84.44 19.67 98.19 0"/><polygon class="cls-2" points="9.74 19.67 21.43 19.67 35.19 0 23.5 0 9.74 19.67"/><polygon class="cls-2" points="14.43 0 0 0 0 19.67 0.67 19.67 14.43 0"/><polygon class="cls-2" points="135.41 19.67 148.3 19.67 148.3 1.24 135.41 19.67"/><polygon class="cls-2" points="118.88 0 107.26 0 93.51 19.67 105.13 19.67 118.88 0"/><polygon class="cls-2" points="140.1 0 127.95 0 114.19 19.67 126.34 19.67 140.1 0"/>
</g></g></g></svg>