<svg xmlns="http://www.w3.org/2000/svg" viewBox="0 0 150.1 20.32"><defs><style>.cls-1{fill:#e90000;}.cls-2{fill:#fff;}.cls-3{fill:none;stroke:#e2e2e2;stroke-miterlimit:10;stroke-width:0.1px;}.cls-4{opacity:0.2;}</style></defs><title>OSHA tape （oasa胶带） (2)</title><g id="图层_2" data-name="图层 2"><g id="图层_28" data-name="图层 28"><g id="OSHA_tape_oasa胶带_" data-name="OSHA tape （oasa胶带）"><rect class="cls-1" x="0.05" y="0.15" width="7.89" height="8.39"/><rect class="cls-2" x="0.05" y="8.54" width="7.89" height="7.82"/><rect class="cls-2" x="7.94" y="0.15" width="7.89" height="8.39"/><rect class="cls-1" x="7.94" y="8.54" width="7.89" height="7.82"/><rect class="cls-1" x="15.84" y="0.15" width="7.89" height="8.39"/><rect class="cls-2" x="15.84" y="8.54" width="7.89" height="7.82"/><rect class="cls-2" x="23.73" y="0.15" width="7.89" height="8.39"/><rect class="cls-1" x="23.73" y="8.54" width="7.89" height="7.82"/><rect class="cls-1" x="31.63" y="0.15" width="7.89" height="8.39"/><rect class="cls-2" x="31.63" y="8.54" width="8.5" height="7.82"/><rect class="cls-2" x="39.52" y="0.15" width="7.89" height="8.39"/><rect class="cls-1" x="39.52" y="8.54" width="7.89" height="7.82"/><rect class="cls-1" x="47.42" y="0.15" width="7.89" height="8.39"/><rect class="cls-2" x="47.42" y="8.54" width="7.89" height="7.82"/><rect class="cls-2" x="55.31" y="0.15" width="7.89" height="8.39"/><rect class="cls-1" x="55.31" y="8.54" width="7.89" height="7.82"/><rect class="cls-1" x="63.21" y="0.15" width="7.89" height="8.39"/><rect class="cls-2" x="63.21" y="8.54" width="7.89" height="7.82"/><rect class="cls-2" x="71.1" y="0.15" width="7.89" height="8.39"/><rect class="cls-1" x="71.1" y="8.54" width="7.89" height="7.82"/><rect class="cls-1" x="79" y="0.15" width="7.89" height="8.39"/><rect class="cls-2" x="79" y="8.54" width="7.89" height="7.82"/><rect class="cls-2" x="86.89" y="0.15" width="7.89" height="8.39"/><rect class="cls-1" x="86.89" y="8.54" width="7.89" height="7.82"/><rect class="cls-1" x="94.79" y="0.15" width="7.89" height="8.39"/><rect class="cls-2" x="94.79" y="8.54" width="7.89" height="7.82"/><rect class="cls-2" x="102.68" y="0.15" width="7.89" height="8.39"/><rect class="cls-1" x="102.68" y="8.54" width="7.89" height="7.82"/><rect class="cls-1" x="110.58" y="0.15" width="7.89" height="8.39"/><rect class="cls-2" x="110.58" y="8.54" width="7.89" height="7.82"/><rect class="cls-2" x="118.47" y="0.15" width="7.89" height="8.39"/><rect class="cls-1" x="118.47" y="8.54" width="7.89" height="7.82"/><rect class="cls-1" x="126.37" y="0.15" width="7.89" height="8.39"/><rect class="cls-2" x="126.37" y="8.54" width="7.89" height="7.82"/><rect class="cls-2" x="134.26" y="0.15" width="7.89" height="8.39"/><rect class="cls-1" x="134.26" y="8.54" width="7.89" height="7.82"/><rect class="cls-1" x="142.16" y="0.15" width="7.89" height="8.39"/><rect class="cls-2" x="142.16" y="8.54" width="7.89" height="7.82"/>
<rect class="cls-3" x="0.05" y="0.15" width="150" height="16.21"/>
</g></g></g></svg>