<svg xmlns="http://www.w3.org/2000/svg" viewBox="0 0 150 20.32"><defs><style>.cls-1{fill:#ffec00;}.cls-2{opacity:0.2;}</style></defs><title>OSHA tape （oasa胶带） (7)</title><g id="图层_2" data-name="图层 2"><g id="图层_28" data-name="图层 28"><g id="OSHA_tape_oasa胶带_" data-name="OSHA tape （oasa胶带）"><rect class="cls-1" y="0.21" width="150" height="19.89"/><polygon points="77.97 0.21 65.76 0.21 51.85 20.1 64.05 20.1 77.97 0.21"/><polygon points="56.59 0.21 44.77 0.21 30.85 20.1 42.68 20.1 56.59 0.21"/><polygon points="99.32 0.21 87.14 0.21 73.22 20.1 85.41 20.1 99.32 0.21"/><polygon points="9.85 20.1 21.68 20.1 35.59 0.21 23.77 0.21 9.85 20.1"/><polygon points="14.6 0.21 0 0.21 0 20.1 0.68 20.1 14.6 0.21"/><polygon points="136.96 20.1 150 20.1 150 1.47 136.96 20.1"/><polygon points="120.25 0.21 108.49 0.21 94.58 20.1 106.33 20.1 120.25 0.21"/><polygon points="141.71 0.21 129.42 0.21 115.5 20.1 127.79 20.1 141.71 0.21"/></g></g></g></svg>