<svg xmlns="http://www.w3.org/2000/svg" viewBox="0 0 150.1 20.32"><defs><style>.cls-1{fill:#ffec00;}.cls-2{fill:none;stroke:#e2e2e2;stroke-miterlimit:10;stroke-width:0.1px;}.cls-3{opacity:0.2;}</style></defs><title>OSHA tape （oasa胶带）</title><g id="图层_2" data-name="图层 2"><g id="图层_28" data-name="图层 28"><g id="OSHA_tape_oasa胶带_" data-name="OSHA tape （oasa胶带）"><rect x="0.05" y="5.97" width="7.89" height="4.42"/><rect class="cls-1" x="0.05" y="10.16" width="7.89" height="4.12"/><rect class="cls-1" x="7.94" y="5.74" width="7.89" height="4.42"/><rect x="7.94" y="10.39" width="7.89" height="4.12"/><rect x="15.84" y="5.97" width="7.89" height="4.42"/><rect class="cls-1" x="15.84" y="10.16" width="7.89" height="4.12"/><rect class="cls-1" x="23.73" y="5.74" width="7.89" height="4.42"/><rect x="23.73" y="10.39" width="7.89" height="4.12"/><rect x="31.63" y="5.97" width="7.89" height="4.42"/><rect class="cls-1" x="31.63" y="10.16" width="8.5" height="4.12"/><rect class="cls-1" x="39.52" y="5.74" width="7.89" height="4.42"/><rect x="39.52" y="10.39" width="7.89" height="4.12"/><rect x="47.42" y="5.97" width="7.89" height="4.42"/><rect class="cls-1" x="47.42" y="10.16" width="7.89" height="4.12"/><rect class="cls-1" x="55.31" y="5.74" width="7.89" height="4.42"/><rect x="55.31" y="10.39" width="7.89" height="4.12"/><rect x="63.21" y="5.97" width="7.89" height="4.42"/><rect class="cls-1" x="63.21" y="10.16" width="7.89" height="4.12"/><rect class="cls-1" x="71.1" y="5.74" width="7.89" height="4.42"/><rect x="71.1" y="10.39" width="7.89" height="4.12"/><rect x="79" y="5.74" width="7.89" height="4.42"/><rect class="cls-1" x="79" y="10.16" width="7.89" height="4.12"/><rect class="cls-1" x="86.89" y="5.74" width="7.89" height="4.42"/><rect x="86.89" y="10.16" width="7.89" height="4.12"/><rect x="94.79" y="5.74" width="7.89" height="4.42"/><rect class="cls-1" x="94.79" y="10.16" width="7.89" height="4.12"/><rect class="cls-1" x="102.68" y="5.74" width="7.89" height="4.42"/><rect x="102.68" y="10.16" width="7.89" height="4.12"/><rect x="110.58" y="5.74" width="7.89" height="4.42"/><rect class="cls-1" x="110.58" y="10.16" width="7.89" height="4.12"/><rect class="cls-1" x="118.47" y="5.74" width="7.89" height="4.42"/><rect x="118.47" y="10.16" width="7.89" height="4.12"/><rect x="126.37" y="5.74" width="7.89" height="4.42"/><rect class="cls-1" x="126.37" y="10.16" width="7.89" height="4.12"/><rect class="cls-1" x="134.26" y="5.74" width="7.89" height="4.42"/><rect x="134.26" y="10.16" width="7.89" height="4.12"/><rect x="142.16" y="5.74" width="7.89" height="4.42"/><rect class="cls-1" x="142.16" y="10.16" width="7.89" height="4.12"/><rect class="cls-2" x="0.05" y="5.74" width="150" height="8.54"/></g></g></g></svg>