<svg xmlns="http://www.w3.org/2000/svg" viewBox="0 0 150 100.48"><defs><style>.cls-1{fill:#f08300;}.cls-2{fill:none;stroke:#000;stroke-miterlimit:10;stroke-width:0.25px;}.cls-3{opacity:0.2;}</style></defs><title>OSHA tape （oasa胶带） (3)</title><g id="图层_2" data-name="图层 2"><g id="图层_28" data-name="图层 28"><g id="OSHA_tape_oasa胶带_" data-name="OSHA tape （oasa胶带）"><rect class="cls-1" width="150" height="100.48"/><rect class="cls-2" x="2.04" y="3.82" width="145.91" height="30.09"/><path d="M50.72,13.16,49,23H47.51L46.14,15.7H46L44.62,23H43.09l-1.68-9.79h1.68l.84,6.17h.15l1.15-6.17H46.9l1.15,6.17h.15L49,13.16Z"/><path d="M60.48,22.84H58.65l-1.07-3H54.22l-1.06,3H51.33L55.14,13h1.52ZM57.2,18.76,56,15.31h-.16L54.6,18.76Z"/><path d="M70,22.84H68.18l-2.75-4.19h-2v4.19H61.7V13.16h3.81a6,6,0,0,1,3,.65,2.25,2.25,0,0,1,1.14,2.12,2.14,2.14,0,0,1-.76,1.76,3.73,3.73,0,0,1-1.75.79Zm-2.14-6.91a1.46,1.46,0,0,0-.65-1.25,3.75,3.75,0,0,0-2.09-.45H63.45v3.34h2.13a3.33,3.33,0,0,0,1.61-.37A1.31,1.31,0,0,0,67.87,15.93Z"/><path d="M79.31,22.84H77.4l-4.19-7h-.08v7H71.38V13.16h1.9l4.2,7h.07v-7h1.76Z"/><path d="M86,22.84H84.26V13.16H86Z"/><path d="M98.83,22.84H96.92l-4.19-7h-.08v7H90.9V13.16h1.9l4.2,7h.07v-7h1.76Z"/><path d="M108.59,23h-1.3l-.23-.79a2.2,2.2,0,0,1-1,.57,4.34,4.34,0,0,1-1.41.22,4.24,4.24,0,0,1-2.86-1.1,4.49,4.49,0,0,1-1.26-3.54,5.93,5.93,0,0,1,1.14-4,4,4,0,0,1,3.13-1.3,3.73,3.73,0,0,1,2.74,1,3.32,3.32,0,0,1,1,2.49h-1.68a2.59,2.59,0,0,0-.54-1.79,1.94,1.94,0,0,0-1.52-.59,2,2,0,0,0-1.83.93,6,6,0,0,0-.61,3.15,4.15,4.15,0,0,0,.76,2.88,2.37,2.37,0,0,0,1.76.8,1.95,1.95,0,0,0,2.13-2.21V19H104.7V18h3.89Z"/>
</g></g></g></svg>