<svg xmlns="http://www.w3.org/2000/svg" viewBox="0 0 149.98 20.99"><defs><style>.cls-1{fill:#fff;}.cls-2{opacity:0.2;}</style></defs><title>OSHA tape （oasa胶带） (4)</title><g id="图层_2" data-name="图层 2"><g id="图层_28" data-name="图层 28"><g id="OSHA_tape_oasa胶带_" data-name="OSHA tape （oasa胶带）"><rect class="cls-1" width="149.98" height="19.89"/><polygon points="77.95 0 65.75 0 51.84 19.89 64.04 19.89 77.95 0"/><polygon points="56.58 0 44.76 0 30.85 19.89 42.67 19.89 56.58 0"/><polygon points="99.31 0 87.13 0 73.21 19.89 85.39 19.89 99.31 0"/><polygon points="9.85 19.89 21.68 19.89 35.59 0 23.76 0 9.85 19.89"/><polygon points="14.59 0 0 0 0 19.89 0.68 19.89 14.59 0"/><polygon points="136.94 19.89 149.98 19.89 149.98 1.25 136.94 19.89"/><polygon points="120.23 0 108.48 0 94.56 19.89 106.32 19.89 120.23 0"/><polygon points="141.69 0 129.4 0 115.49 19.89 127.77 19.89 141.69 0"/></g></g></g></svg>