<svg xmlns="http://www.w3.org/2000/svg" xmlns:xlink="http://www.w3.org/1999/xlink" viewBox="0 0 69.12 150"><defs><style>.cls-1{fill:url(#未命名的渐变_67);}.cls-2{fill:url(#未命名的渐变_67-2);}.cls-3{fill:#a3a4a4;}.cls-4{fill:#dbdbdb;}.cls-5{fill:#514f4f;}.cls-6{fill:url(#未命名的渐变_67-3);}.cls-7{fill:url(#未命名的渐变_67-4);}.cls-8{fill:url(#未命名的渐变_67-5);}.cls-9{fill:url(#未命名的渐变_67-6);}.cls-10{fill:url(#未命名的渐变_67-7);}.cls-11{fill:url(#未命名的渐变_67-8);}.cls-12{opacity:0.2;}</style><linearGradient id="未命名的渐变_67" x1="57.23" y1="139.55" x2="65.46" y2="139.55" gradientUnits="userSpaceOnUse"><stop offset="0" stop-color="#6b6b6b"/><stop offset="0.11" stop-color="#767676"/><stop offset="0.3" stop-color="#959595"/><stop offset="0.41" stop-color="#aaa"/><stop offset="0.56" stop-color="#ccc"/><stop offset="0.71" stop-color="#eaeaea"/><stop offset="0.8" stop-color="#f6f6f6"/><stop offset="0.83" stop-color="#ededed"/><stop offset="0.87" stop-color="#d4d4d4"/><stop offset="0.92" stop-color="#ababab"/><stop offset="0.98" stop-color="#737373"/><stop offset="0.99" stop-color="#666"/></linearGradient><linearGradient id="未命名的渐变_67-2" x1="4.82" y1="139.39" x2="13.05" y2="139.39" xlink:href="#未命名的渐变_67"/><linearGradient id="未命名的渐变_67-3" x1="9.11" y1="148.77" x2="9.11" y2="138.01" xlink:href="#未命名的渐变_67"/><linearGradient id="未命名的渐变_67-4" x1="4.44" y1="149.84" x2="4.44" y2="136.98" xlink:href="#未命名的渐变_67"/><linearGradient id="未命名的渐变_67-5" x1="13.48" y1="149.84" x2="13.48" y2="136.98" xlink:href="#未命名的渐变_67"/><linearGradient id="未命名的渐变_67-6" x1="61.52" y1="148.93" x2="61.52" y2="138.17" xlink:href="#未命名的渐变_67"/><linearGradient id="未命名的渐变_67-7" x1="56.85" y1="150" x2="56.85" y2="137.14" xlink:href="#未命名的渐变_67"/><linearGradient id="未命名的渐变_67-8" x1="65.89" y1="150" x2="65.89" y2="137.14" xlink:href="#未命名的渐变_67"/></defs><title>Oxygen generator（氧气发生器）</title><g id="图层_2" data-name="图层 2"><g id="图层_125" data-name="图层 125"><g id="Oxygen_generator_氧气发生器_" data-name="Oxygen generator（氧气发生器）"><rect class="cls-1" x="57.23" y="134.17" width="8.23" height="10.75" rx="0.4"/><rect class="cls-2" x="4.82" y="134.01" width="8.23" height="10.75" rx="0.4"/><rect class="cls-3" x="0.11" y="27.76" width="68.81" height="107.85"/><rect class="cls-4" y="2.99" width="68.81" height="24.58"/><rect class="cls-4" x="7.67" y="93.17" width="53.7" height="35.56"/><rect class="cls-4" x="13.61" y="32.36" width="43.4" height="24.48"/><rect class="cls-3" x="17.62" y="38.33" width="26.08" height="12.86"/><rect class="cls-3" x="9.46" y="94.41" width="49.97" height="32.79"/><rect class="cls-5" x="46.9" y="34.29" width="6.63" height="3.64"/><rect class="cls-5" x="12" y="96.54" width="11.05" height="3.06"/><rect class="cls-5" x="12" y="101.65" width="11.05" height="3.06"/><rect class="cls-5" x="12" y="106.77" width="11.05" height="3.06"/><rect class="cls-5" x="12" y="111.88" width="11.05" height="3.06"/><rect class="cls-5" x="12" y="117" width="11.05" height="3.06"/><rect class="cls-5" x="12" y="122.11" width="11.05" height="3.06"/><rect class="cls-5" x="29.41" y="96.54" width="11.05" height="3.06"/><rect class="cls-5" x="29.41" y="101.65" width="11.05" height="3.06"/><rect class="cls-5" x="29.41" y="106.77" width="11.05" height="3.06"/><rect class="cls-5" x="29.41" y="111.88" width="11.05" height="3.06"/><rect class="cls-5" x="29.41" y="117" width="11.05" height="3.06"/><rect class="cls-5" x="29.41" y="122.11" width="11.05" height="3.06"/><rect class="cls-5" x="46.82" y="96.54" width="11.05" height="3.06"/><rect class="cls-5" x="46.82" y="101.65" width="11.05" height="3.06"/><rect class="cls-5" x="46.82" y="106.77" width="11.05" height="3.06"/><rect class="cls-5" x="46.82" y="111.88" width="11.05" height="3.06"/><rect class="cls-5" x="46.82" y="117" width="11.05" height="3.06"/><rect class="cls-5" x="46.82" y="122.11" width="11.05" height="3.06"/><rect class="cls-5" x="46.9" y="40.05" width="6.63" height="3.64"/><rect class="cls-5" x="46.9" y="45.81" width="6.63" height="3.64"/><rect class="cls-5" x="46.9" y="51.57" width="6.63" height="3.64"/><rect class="cls-3" x="0.11" width="68.7" height="2.99"/><rect class="cls-6" x="5.88" y="138.01" width="6.46" height="10.75" rx="0.4"/><rect class="cls-7" x="1.21" y="136.98" width="6.46" height="12.86" rx="0.4"/><rect class="cls-8" x="10.25" y="136.98" width="6.46" height="12.86" rx="0.4"/><rect class="cls-9" x="58.29" y="138.17" width="6.46" height="10.75" rx="0.4"/><rect class="cls-10" x="53.62" y="137.14" width="6.46" height="12.86" rx="0.4"/><rect class="cls-11" x="62.66" y="137.14" width="6.46" height="12.86" rx="0.4"/></g></g></g></svg>