<svg xmlns="http://www.w3.org/2000/svg" xmlns:xlink="http://www.w3.org/1999/xlink" viewBox="0 0 114.95 150"><defs><style>.cls-1{fill:url(#未命名的渐变_13);}.cls-2{fill:url(#未命名的渐变_13-2);}.cls-3{fill:url(#未命名的渐变_13-3);}.cls-4{fill:url(#未命名的渐变_67);}.cls-5{fill:url(#未命名的渐变_13-4);}.cls-6{fill:url(#未命名的渐变_67-2);}.cls-7{fill:url(#未命名的渐变_13-5);}.cls-8{fill:url(#未命名的渐变_67-3);}.cls-9{fill:url(#未命名的渐变_67-4);}.cls-10{fill:url(#未命名的渐变_67-5);}.cls-11{fill:url(#未命名的渐变_13-6);}.cls-12{fill:url(#未命名的渐变_13-7);}.cls-13{fill:url(#未命名的渐变_67-6);}.cls-14{fill:url(#未命名的渐变_67-7);}.cls-15{fill:url(#未命名的渐变_67-8);}.cls-16{fill:url(#未命名的渐变_67-9);}.cls-17{fill:url(#未命名的渐变_13-8);}.cls-18{fill:url(#未命名的渐变_13-9);}.cls-19{fill:url(#未命名的渐变_67-10);}.cls-20{opacity:0.2;}</style><linearGradient id="未命名的渐变_13" x1="1.39" y1="96.3" x2="68.33" y2="96.3" gradientUnits="userSpaceOnUse"><stop offset="0" stop-color="#6b6b6b"/><stop offset="0.01" stop-color="#767676"/><stop offset="0.03" stop-color="#959595"/><stop offset="0.04" stop-color="#aaa"/><stop offset="0.14" stop-color="#b1b1b1"/><stop offset="0.65" stop-color="#cfcfcf"/><stop offset="0.94" stop-color="#dbdbdb"/><stop offset="0.95" stop-color="#d2d2d2"/><stop offset="0.96" stop-color="#b9b9b9"/><stop offset="0.98" stop-color="#909090"/><stop offset="0.99" stop-color="#666"/></linearGradient><linearGradient id="未命名的渐变_13-2" x1="1.79" y1="121.22" x2="7.77" y2="121.22" xlink:href="#未命名的渐变_13"/><linearGradient id="未命名的渐变_13-3" x1="62.68" y1="121.22" x2="68.67" y2="121.22" xlink:href="#未命名的渐变_13"/><linearGradient id="未命名的渐变_67" x1="110.52" y1="22.07" x2="110.52" y2="16.8" gradientUnits="userSpaceOnUse"><stop offset="0" stop-color="#6b6b6b"/><stop offset="0.11" stop-color="#767676"/><stop offset="0.3" stop-color="#959595"/><stop offset="0.41" stop-color="#aaa"/><stop offset="0.56" stop-color="#ccc"/><stop offset="0.71" stop-color="#eaeaea"/><stop offset="0.8" stop-color="#f6f6f6"/><stop offset="0.83" stop-color="#ededed"/><stop offset="0.87" stop-color="#d4d4d4"/><stop offset="0.92" stop-color="#ababab"/><stop offset="0.98" stop-color="#737373"/><stop offset="0.99" stop-color="#666"/></linearGradient><linearGradient id="未命名的渐变_13-4" x1="28.25" y1="31.61" x2="108.7" y2="31.61" xlink:href="#未命名的渐变_13"/><linearGradient id="未命名的渐变_67-2" x1="1.39" y1="116.49" x2="68.33" y2="116.49" xlink:href="#未命名的渐变_67"/><linearGradient id="未命名的渐变_13-5" x1="1.39" y1="70.89" x2="94.68" y2="70.89" xlink:href="#未命名的渐变_13"/><linearGradient id="未命名的渐变_67-3" x1="45.53" y1="60.54" x2="49.38" y2="60.54" xlink:href="#未命名的渐变_67"/><linearGradient id="未命名的渐变_67-4" x1="53.6" y1="60.54" x2="57.45" y2="60.54" xlink:href="#未命名的渐变_67"/><linearGradient id="未命名的渐变_67-5" x1="44.09" y1="106.8" x2="51.34" y2="106.8" xlink:href="#未命名的渐变_67"/><linearGradient id="未命名的渐变_13-6" x1="0" y1="148.07" x2="9.73" y2="148.07" xlink:href="#未命名的渐变_13"/><linearGradient id="未命名的渐变_13-7" x1="60.9" y1="148.07" x2="70.63" y2="148.07" xlink:href="#未命名的渐变_13"/><linearGradient id="未命名的渐变_67-6" x1="31.45" y1="131.71" x2="39.39" y2="131.71" xlink:href="#未命名的渐变_67"/><linearGradient id="未命名的渐变_67-7" x1="51.9" y1="106.96" x2="59.15" y2="106.96" xlink:href="#未命名的渐变_67"/><linearGradient id="未命名的渐变_67-8" x1="51.9" y1="14.99" x2="59.15" y2="14.99" xlink:href="#未命名的渐变_67"/><linearGradient id="未命名的渐变_67-9" x1="43.83" y1="14.99" x2="51.08" y2="14.99" xlink:href="#未命名的渐变_67"/><linearGradient id="未命名的渐变_13-8" x1="28.25" y1="5.72" x2="41.48" y2="5.72" xlink:href="#未命名的渐变_13"/><linearGradient id="未命名的渐变_13-9" x1="5.73" y1="26.52" x2="28.25" y2="26.52" xlink:href="#未命名的渐变_13"/><linearGradient id="未命名的渐变_67-10" x1="-196.45" y1="148.96" x2="-182.41" y2="148.96" gradientTransform="translate(302.86 -129.75)" xlink:href="#未命名的渐变_67"/></defs><title>Plate clarifier（平板澄清池）</title><g id="图层_2" data-name="图层 2"><g id="图层_125" data-name="图层 125"><g id="Plate_clarifier_平板澄清池_" data-name="Plate clarifier（平板澄清池）"><rect class="cls-1" x="1.39" y="89.75" width="66.94" height="13.11"/><rect class="cls-2" x="1.79" y="96.3" width="5.99" height="49.85"/><rect class="cls-3" x="62.68" y="96.3" width="5.99" height="49.85"/><rect class="cls-4" x="106.9" y="16.8" width="7.25" height="5.27" rx="0.15"/><rect class="cls-5" x="28.25" y="11.19" width="80.46" height="40.83"/><polygon class="cls-6" points="68.33 102.85 39.4 130.12 31.45 130.12 1.39 102.85 68.33 102.85"/><polygon class="cls-7" points="94.68 52.02 68.33 89.75 1.39 89.75 27.74 52.02 94.68 52.02"/><rect class="cls-8" x="45.53" y="8.92" width="3.85" height="103.25"/><rect class="cls-9" x="53.6" y="8.92" width="3.85" height="103.25"/><rect class="cls-10" x="44.09" y="104.88" width="7.25" height="3.85" rx="0.15"/><rect class="cls-11" y="146.15" width="9.73" height="3.85"/><rect class="cls-12" x="60.9" y="146.15" width="9.73" height="3.85"/><rect class="cls-13" x="31.45" y="130.12" width="7.94" height="3.18"/><rect class="cls-14" x="51.9" y="105.03" width="7.25" height="3.85" rx="0.15"/><rect class="cls-15" x="51.9" y="13.06" width="7.25" height="3.85" rx="0.15"/><rect class="cls-16" x="43.83" y="13.06" width="7.25" height="3.85" rx="0.15"/><rect class="cls-17" x="28.25" width="13.23" height="11.44"/><rect class="cls-18" x="5.73" y="1.62" width="22.52" height="49.79"/><rect class="cls-19" x="106.41" y="17.7" width="14.04" height="3.02" rx="0.15" transform="translate(94.23 132.64) rotate(-90)"/></g></g></g></svg>