<svg xmlns="http://www.w3.org/2000/svg" xmlns:xlink="http://www.w3.org/1999/xlink" viewBox="0 0 87.08 150"><defs><style>.cls-1{fill:url(#未命名的渐变_105);}.cls-2{fill:url(#未命名的渐变_105-2);}.cls-3{fill:url(#未命名的渐变_67);}.cls-4{fill:url(#未命名的渐变_67-2);}.cls-5{fill:url(#未命名的渐变_67-3);}.cls-6{fill:url(#未命名的渐变_67-4);}.cls-7{fill:url(#未命名的渐变_67-5);}.cls-8{fill:url(#未命名的渐变_67-6);}.cls-9{fill:url(#未命名的渐变_67-7);}.cls-10{fill:url(#未命名的渐变_143);}.cls-11{fill:url(#未命名的渐变_143-2);}.cls-12{fill:url(#未命名的渐变_67-8);}.cls-13{fill:url(#未命名的渐变_67-9);}.cls-14{fill:url(#未命名的渐变_67-10);}.cls-15{fill:url(#未命名的渐变_67-11);}.cls-16{fill:url(#未命名的渐变_105-3);}.cls-17{fill:url(#未命名的渐变_143-3);}.cls-18{fill:url(#未命名的渐变_67-12);}.cls-19{opacity:0.2;}</style><linearGradient id="未命名的渐变_105" x1="8.02" y1="14.67" x2="26.15" y2="14.67" gradientUnits="userSpaceOnUse"><stop offset="0" stop-color="#e2e2e2"/><stop offset="0.03" stop-color="#d0d0d0"/><stop offset="0.06" stop-color="#bcbcbc"/><stop offset="0.09" stop-color="#b5b5b5"/><stop offset="0.49" stop-color="#f6f6f6"/><stop offset="0.63" stop-color="#f3f3f3"/><stop offset="0.73" stop-color="#eaeaea"/><stop offset="0.82" stop-color="#dbdbdb"/><stop offset="0.9" stop-color="#c6c6c6"/><stop offset="0.97" stop-color="#aaa"/><stop offset="1" stop-color="#9b9b9b"/></linearGradient><linearGradient id="未命名的渐变_105-2" x1="13.54" y1="31.05" x2="20.54" y2="31.05" xlink:href="#未命名的渐变_105"/><linearGradient id="未命名的渐变_67" x1="528.29" y1="226.13" x2="528.29" y2="244.19" gradientTransform="translate(252.21 -996.72) rotate(90) scale(1.9 1)" gradientUnits="userSpaceOnUse"><stop offset="0" stop-color="#6b6b6b"/><stop offset="0.11" stop-color="#767676"/><stop offset="0.3" stop-color="#959595"/><stop offset="0.41" stop-color="#aaa"/><stop offset="0.56" stop-color="#ccc"/><stop offset="0.71" stop-color="#eaeaea"/><stop offset="0.8" stop-color="#f6f6f6"/><stop offset="0.83" stop-color="#ededed"/><stop offset="0.87" stop-color="#d4d4d4"/><stop offset="0.92" stop-color="#ababab"/><stop offset="0.98" stop-color="#737373"/><stop offset="0.99" stop-color="#666"/></linearGradient><linearGradient id="未命名的渐变_67-2" x1="292.96" y1="212.61" x2="293.38" y2="212.61" gradientTransform="translate(223.08 -541.33) rotate(90) scale(1.9 1)" xlink:href="#未命名的渐变_67"/><linearGradient id="未命名的渐变_67-3" x1="294.64" y1="212.61" x2="295.07" y2="212.61" gradientTransform="translate(226.29 -544.54) rotate(90) scale(1.9 1)" xlink:href="#未命名的渐变_67"/><linearGradient id="未命名的渐变_67-4" x1="296.4" y1="212.61" x2="296.83" y2="212.61" gradientTransform="translate(229.63 -547.88) rotate(90) scale(1.9 1)" xlink:href="#未命名的渐变_67"/><linearGradient id="未命名的渐变_67-5" x1="298.17" y1="212.61" x2="298.59" y2="212.61" gradientTransform="translate(232.98 -551.23) rotate(90) scale(1.9 1)" xlink:href="#未命名的渐变_67"/><linearGradient id="未命名的渐变_67-6" x1="299.93" y1="212.61" x2="300.35" y2="212.61" gradientTransform="translate(236.33 -554.58) rotate(90) scale(1.9 1)" xlink:href="#未命名的渐变_67"/><linearGradient id="未命名的渐变_67-7" x1="518.67" y1="225.68" x2="518.67" y2="244.58" gradientTransform="translate(252.15 -960.15) rotate(90) scale(1.9 1)" xlink:href="#未命名的渐变_67"/><linearGradient id="未命名的渐变_143" x1="22.72" y1="23.39" x2="22.72" y2="18.91" gradientTransform="translate(-20.05)" gradientUnits="userSpaceOnUse"><stop offset="0" stop-color="#b7b7b7"/><stop offset="0.03" stop-color="#9b9d9d"/><stop offset="0.07" stop-color="#878b8b"/><stop offset="0.09" stop-color="#808484"/><stop offset="0.2" stop-color="#a3a6a6"/><stop offset="0.49" stop-color="#f6f6f6"/><stop offset="0.61" stop-color="#f3f3f3"/><stop offset="0.7" stop-color="#eaeaea"/><stop offset="0.77" stop-color="#dbdbdb"/><stop offset="0.83" stop-color="#c5c5c5"/><stop offset="0.9" stop-color="#aaa"/><stop offset="0.95" stop-color="#888"/><stop offset="1" stop-color="#666"/></linearGradient><linearGradient id="未命名的渐变_143-2" x1="6.32" y1="22.32" x2="6.32" y2="18.91" gradientTransform="matrix(1, 0, 0, 1, 0, 0)" xlink:href="#未命名的渐变_143"/><linearGradient id="未命名的渐变_67-8" x1="2.61" y1="113.15" x2="85.43" y2="113.15" gradientTransform="matrix(1, 0, 0, 1, 0, 0)" xlink:href="#未命名的渐变_67"/><linearGradient id="未命名的渐变_67-9" x1="544.35" y1="142.45" x2="544.35" y2="140.79" gradientTransform="matrix(1, 0, 0, -3.25, -500.81, 605.25)" xlink:href="#未命名的渐变_67"/><linearGradient id="未命名的渐变_67-10" x1="215.56" y1="244.07" x2="215.56" y2="242.1" gradientTransform="matrix(1, 0, 0, -3.25, -204.43, 923.96)" xlink:href="#未命名的渐变_67"/><linearGradient id="未命名的渐变_67-11" x1="215.56" y1="224.35" x2="215.56" y2="222.33" gradientTransform="matrix(1, 0, 0, -3.25, -140.3, 859.83)" xlink:href="#未命名的渐变_67"/><linearGradient id="未命名的渐变_105-3" x1="2.45" y1="70.17" x2="85.43" y2="70.17" xlink:href="#未命名的渐变_105"/><linearGradient id="未命名的渐变_143-3" x1="451.1" y1="71.81" x2="455.09" y2="71.81" gradientTransform="matrix(1, 0, 0, -1, -450.86, 143.62)" xlink:href="#未命名的渐变_143"/><linearGradient id="未命名的渐变_67-12" x1="0" y1="117.76" x2="87.08" y2="117.76" gradientTransform="matrix(1, 0, 0, 1, 0, 0)" xlink:href="#未命名的渐变_67"/></defs><title>Polyethylene tank with mixer（带混合器的聚乙烯罐）</title><g id="图层_2" data-name="图层 2"><g id="图层_104" data-name="图层 104"><g id="Polyethylene_tank_with_mixer_带混合器的聚乙烯罐_" data-name="Polyethylene tank with mixer（带混合器的聚乙烯罐）"><path class="cls-1" d="M26.15,24.64,20,29.34h-6l-6-4.7V1.83S8.62,0,17,0s9.11,1.83,9.11,1.83Z"/><rect class="cls-2" x="13.54" y="29.34" width="7" height="3.41"/><rect class="cls-3" x="8.02" y="6.63" width="18.06" height="0.81" transform="translate(34.1 14.06) rotate(180)"/><rect class="cls-4" x="2.22" y="15.28" width="16.51" height="0.81" transform="translate(-5.21 26.16) rotate(-90)"/><rect class="cls-5" x="5.42" y="15.28" width="16.51" height="0.81" transform="translate(-2.01 29.36) rotate(-90)"/><rect class="cls-6" x="8.77" y="15.28" width="16.51" height="0.81" transform="translate(1.34 32.71) rotate(-90)"/><rect class="cls-7" x="12.12" y="15.28" width="16.51" height="0.81" transform="translate(4.68 36.06) rotate(-90)"/><rect class="cls-8" x="15.46" y="15.28" width="16.51" height="0.81" transform="translate(8.03 39.4) rotate(-90)"/><rect class="cls-9" x="7.58" y="24.73" width="18.89" height="1.17" transform="translate(34.05 50.63) rotate(180)"/><path class="cls-10" d="M5.1,21.8V18.94S2.3,18.63.94,20.05c-1.06,1.12-.6,3.34-.6,3.34H4.26a1.59,1.59,0,0,1,.28-1.3C4.93,21.69,5.1,21.8,5.1,21.8Z"/><rect class="cls-11" x="4.61" y="18.91" width="3.41" height="3.41"/><rect class="cls-12" x="2.61" y="110.99" width="82.82" height="4.32"/><rect class="cls-13" x="9.72" y="142.75" width="67.65" height="5.36" transform="translate(87.08 290.86) rotate(180)"/><rect class="cls-14" x="-4.18" y="131.5" width="30.62" height="6.39" transform="translate(-123.56 145.82) rotate(-90)"/><rect class="cls-15" x="59.95" y="131.41" width="30.62" height="6.56" transform="translate(-59.43 209.95) rotate(-90)"/><path class="cls-16" d="M85.31,111H2.61V41.17S-2.45,29.34,44,29.34c45.76,0,41.35,11.83,41.35,11.83Z"/><rect class="cls-17" x="0.24" y="23.39" width="3.99" height="96.83" transform="translate(4.47 143.62) rotate(180)"/><rect class="cls-18" y="115.3" width="87.08" height="4.92"/></g></g></g></svg>