<svg xmlns="http://www.w3.org/2000/svg" xmlns:xlink="http://www.w3.org/1999/xlink" viewBox="0 0 150 110.27"><defs><style>.cls-1{fill:#a9a9a9;}.cls-2{fill:#dbdbdb;}.cls-3{fill:#fff;}.cls-4{fill:#a3a4a4;}.cls-5{fill:url(#未命名的渐变_105);}.cls-6{fill:url(#未命名的渐变_105-2);}.cls-7{fill:url(#未命名的渐变_67);}.cls-8{fill:url(#未命名的渐变_105-3);}.cls-9{fill:url(#未命名的渐变_13);}.cls-10{fill:url(#未命名的渐变_13-2);}.cls-11{fill:url(#未命名的渐变_105-4);}.cls-12{fill:url(#未命名的渐变_67-2);}.cls-13{fill:url(#未命名的渐变_105-5);}.cls-14{fill:url(#未命名的渐变_105-6);}.cls-15{fill:url(#未命名的渐变_105-7);}.cls-16{fill:url(#未命名的渐变_105-8);}.cls-17{fill:url(#未命名的渐变_105-9);}.cls-18{fill:url(#未命名的渐变_105-10);}.cls-19{fill:url(#未命名的渐变_105-11);}.cls-20{fill:url(#未命名的渐变_13-3);}.cls-21{fill:url(#未命名的渐变_105-12);}.cls-22{fill:url(#未命名的渐变_105-13);}.cls-23{fill:url(#未命名的渐变_105-14);}.cls-24{fill:url(#未命名的渐变_105-15);}.cls-25{fill:url(#未命名的渐变_105-16);}.cls-26{fill:url(#未命名的渐变_67-3);}.cls-27{fill:url(#未命名的渐变_67-4);}.cls-28{fill:#504f4f;}.cls-29{fill:#3e3938;}.cls-30{opacity:0.2;}</style><linearGradient id="未命名的渐变_105" x1="79.97" y1="103.85" x2="79.97" y2="72.24" gradientUnits="userSpaceOnUse"><stop offset="0" stop-color="#e2e2e2"/><stop offset="0.03" stop-color="#d0d0d0"/><stop offset="0.06" stop-color="#bcbcbc"/><stop offset="0.09" stop-color="#b5b5b5"/><stop offset="0.49" stop-color="#f6f6f6"/><stop offset="0.63" stop-color="#f3f3f3"/><stop offset="0.73" stop-color="#eaeaea"/><stop offset="0.82" stop-color="#dbdbdb"/><stop offset="0.9" stop-color="#c6c6c6"/><stop offset="0.97" stop-color="#aaa"/><stop offset="1" stop-color="#9b9b9b"/></linearGradient><linearGradient id="未命名的渐变_105-2" x1="39.54" y1="102.9" x2="39.54" y2="96.89" xlink:href="#未命名的渐变_105"/><linearGradient id="未命名的渐变_67" x1="52.8" y1="60.66" x2="56.9" y2="60.66" gradientUnits="userSpaceOnUse"><stop offset="0" stop-color="#6b6b6b"/><stop offset="0.11" stop-color="#767676"/><stop offset="0.3" stop-color="#959595"/><stop offset="0.41" stop-color="#aaa"/><stop offset="0.56" stop-color="#ccc"/><stop offset="0.71" stop-color="#eaeaea"/><stop offset="0.8" stop-color="#f6f6f6"/><stop offset="0.83" stop-color="#ededed"/><stop offset="0.87" stop-color="#d4d4d4"/><stop offset="0.92" stop-color="#ababab"/><stop offset="0.98" stop-color="#737373"/><stop offset="0.99" stop-color="#666"/></linearGradient><linearGradient id="未命名的渐变_105-3" x1="88.49" y1="3.37" x2="92.6" y2="3.37" xlink:href="#未命名的渐变_105"/><linearGradient id="未命名的渐变_13" x1="2.24" y1="81.6" x2="37.86" y2="81.6" gradientUnits="userSpaceOnUse"><stop offset="0" stop-color="#6b6b6b"/><stop offset="0.01" stop-color="#767676"/><stop offset="0.03" stop-color="#959595"/><stop offset="0.04" stop-color="#aaa"/><stop offset="0.14" stop-color="#b1b1b1"/><stop offset="0.65" stop-color="#cfcfcf"/><stop offset="0.94" stop-color="#dbdbdb"/><stop offset="0.95" stop-color="#d2d2d2"/><stop offset="0.96" stop-color="#b9b9b9"/><stop offset="0.98" stop-color="#909090"/><stop offset="0.99" stop-color="#666"/></linearGradient><linearGradient id="未命名的渐变_13-2" x1="41.14" y1="84.92" x2="51.95" y2="84.92" xlink:href="#未命名的渐变_13"/><linearGradient id="未命名的渐变_105-4" x1="53.07" y1="81.36" x2="56.05" y2="81.36" xlink:href="#未命名的渐变_105"/><linearGradient id="未命名的渐变_67-2" x1="88.19" y1="17.23" x2="92.5" y2="17.23" xlink:href="#未命名的渐变_67"/><linearGradient id="未命名的渐变_105-5" x1="87.7" y1="9.24" x2="93.39" y2="9.24" xlink:href="#未命名的渐变_105"/><linearGradient id="未命名的渐变_105-6" x1="87.11" y1="12.33" x2="93.8" y2="12.33" xlink:href="#未命名的渐变_105"/><linearGradient id="未命名的渐变_105-7" x1="130.65" y1="5.26" x2="130.65" y2="1.48" xlink:href="#未命名的渐变_105"/><linearGradient id="未命名的渐变_105-8" x1="136.83" y1="32.41" x2="140.75" y2="32.41" xlink:href="#未命名的渐变_105"/><linearGradient id="未命名的渐变_105-9" x1="120.26" y1="31.91" x2="124.18" y2="31.91" xlink:href="#未命名的渐变_105"/><linearGradient id="未命名的渐变_105-10" x1="87.45" y1="-452.9" x2="90.99" y2="-456.44" gradientTransform="matrix(1, 0, 0, -1, 33.83, -450.32)" xlink:href="#未命名的渐变_105"/><linearGradient id="未命名的渐变_105-11" x1="652.9" y1="-453.14" x2="656.62" y2="-456.86" gradientTransform="translate(792.74 -450.32) rotate(180)" xlink:href="#未命名的渐变_105"/><linearGradient id="未命名的渐变_13-3" x1="95.87" y1="11.38" x2="118.06" y2="11.38" xlink:href="#未命名的渐变_13"/><linearGradient id="未命名的渐变_105-12" x1="80.97" y1="60.31" x2="134.96" y2="60.31" xlink:href="#未命名的渐变_105"/><linearGradient id="未命名的渐变_105-13" x1="136.51" y1="70.52" x2="142.61" y2="70.52" xlink:href="#未命名的渐变_105"/><linearGradient id="未命名的渐变_105-14" x1="134.96" y1="62.31" x2="144.72" y2="62.31" xlink:href="#未命名的渐变_105"/><linearGradient id="未命名的渐变_105-15" x1="134.96" y1="87.88" x2="144.28" y2="87.88" xlink:href="#未命名的渐变_105"/><linearGradient id="未命名的渐变_105-16" x1="54" y1="101.18" x2="54" y2="98.76" xlink:href="#未命名的渐变_105"/><linearGradient id="未命名的渐变_67-3" x1="80.97" y1="17.98" x2="134.96" y2="17.98" xlink:href="#未命名的渐变_67"/><linearGradient id="未命名的渐变_67-4" x1="80.97" y1="102.4" x2="134.96" y2="102.4" xlink:href="#未命名的渐变_67"/></defs><title>Polymer injection system（聚合物注入系统）</title><g id="图层_2" data-name="图层 2"><g id="图层_125" data-name="图层 125"><g id="Polymer_injection_system_聚合物注入系统_" data-name="Polymer injection system（聚合物注入系统）"><rect class="cls-1" x="29.42" width="47.88" height="103.85"/><rect class="cls-2" x="51.45" y="30.16" width="21.75" height="27.2"/><polygon class="cls-3" points="66.62 31.55 58.03 31.55 51.95 38.82 51.95 49.11 58.03 56.38 66.62 56.38 72.7 49.11 72.7 38.82 66.62 31.55"/><rect class="cls-4" x="35.58" y="6.21" width="37.61" height="18.27"/><rect class="cls-2" x="37.1" y="8.29" width="34.24" height="14.04"/><rect class="cls-5" x="77.92" y="72.24" width="4.1" height="31.61"/><rect class="cls-6" x="37.49" y="96.89" width="4.1" height="6.01"/><rect class="cls-7" x="52.8" y="57.36" width="4.1" height="6.61"/><rect class="cls-8" x="88.49" y="0.07" width="4.1" height="6.61"/><rect class="cls-9" x="2.24" y="59.35" width="35.63" height="44.51"/><rect class="cls-10" x="41.14" y="65.99" width="10.81" height="37.86"/><rect class="cls-11" x="53.07" y="63.96" width="2.98" height="34.79"/><rect class="cls-12" x="88.19" y="13.92" width="4.31" height="6.61"/><rect class="cls-13" x="87.7" y="5.94" width="5.7" height="6.61"/><rect class="cls-14" x="87.11" y="10.74" width="6.69" height="3.18"/><rect class="cls-15" x="125.46" y="1.48" width="10.37" height="3.79"/><rect class="cls-16" x="136.83" y="7.25" width="3.93" height="50.31"/><rect class="cls-17" x="120.26" y="6.75" width="3.93" height="50.31"/><path class="cls-18" d="M124.65,5.64a2.43,2.43,0,0,0-.47,1.11h-4s0-3.22,1-4.1c1.38-1.16,4.25-1.17,4.25-1.17V5.26A2.24,2.24,0,0,0,124.65,5.64Z"/><path class="cls-19" d="M136.83,5.78c.32.35,0,1.47,0,1.47h3.92s.07-3.46-.9-4.42c-1.27-1.27-4-1.35-4-1.35V5.26A3.27,3.27,0,0,1,136.83,5.78Z"/><rect class="cls-20" x="95.87" y="5.74" width="22.19" height="11.28"/><rect class="cls-21" x="80.97" y="19.44" width="54" height="81.74"/><rect class="cls-22" x="136.51" y="68.12" width="6.1" height="4.8"/><rect class="cls-23" x="134.96" y="54.7" width="9.76" height="15.22" rx="0.53"/><rect class="cls-24" x="134.96" y="71.6" width="9.32" height="32.56"/><rect class="cls-25" x="51.95" y="98.76" width="4.1" height="2.42"/><rect class="cls-26" x="80.97" y="16.53" width="54" height="2.91"/><rect class="cls-27" x="80.97" y="100.94" width="54" height="2.91"/><rect class="cls-28" y="103.48" width="150" height="6.79"/><rect class="cls-29" x="55.72" y="36.21" width="13.38" height="5.34"/><rect class="cls-2" x="57.1" y="43.58" width="3.85" height="3.42"/><rect class="cls-2" x="63.85" y="43.58" width="3.85" height="3.42"/><rect class="cls-2" x="63.71" y="49.87" width="3.85" height="3.42"/><rect class="cls-2" x="57.23" y="49.73" width="3.85" height="3.42"/></g></g></g></svg>