<svg xmlns="http://www.w3.org/2000/svg" viewBox="0 0 150 101.63"><defs><style>.cls-1{isolation:isolate;}.cls-16,.cls-2{fill:#fff;}.cls-3{fill:#7a8799;}.cls-4{fill:#c3ccd9;}.cls-5{fill:#dcdcdc;}.cls-6{fill:#8e4f4e;}.cls-7{fill:#cc807e;}.cls-8{fill:#ffb5b3;}.cls-9{fill:#995b5b;opacity:0.5;mix-blend-mode:multiply;}.cls-10{fill:#6ee7ff;}.cls-11,.cls-12{fill:none;stroke:#fff;stroke-linecap:round;stroke-miterlimit:10;}.cls-12{opacity:0.6;}.cls-13{fill:#898989;}.cls-14{fill:#1461cc;}.cls-15{fill:#004ab3;}.cls-16{mix-blend-mode:soft-light;}.cls-17{fill:#e68a2e;}.cls-18{fill:#ffcd33;}.cls-19{fill:#2e8be6;}.cls-20{opacity:0.2;}</style></defs><title>Pool（水池2）</title><g id="图层_2" data-name="图层 2"><g id="风格1"><g id="Pool_水池2_" data-name="Pool（水池2）"><g id="图层_38" data-name="图层 38"><g class="cls-1"><polygon class="cls-2" points="150 54.64 75.25 98.08 0.02 54.64 74.77 11.2 150 54.64"/><polygon class="cls-3" points="150 54.64 149.98 58.19 75.23 101.63 75.25 98.08 150 54.64"/><polygon class="cls-4" points="75.25 98.08 75.23 101.63 0 58.19 0.02 54.64 75.25 98.08"/></g><g class="cls-1"><polygon class="cls-5" points="135.19 41.77 110.86 55.92 42.89 16.67 67.22 2.53 135.19 41.77"/><polygon class="cls-6" points="135.19 41.77 135.15 58.08 110.81 72.22 110.86 55.92 135.19 41.77"/><polygon class="cls-6" points="114.81 69.86 110.81 72.17 110.81 71.15 114.81 68.84 114.81 69.86"/><polygon class="cls-6" points="118.81 67.55 114.81 69.86 114.81 68.84 118.81 66.53 118.81 67.55"/><polygon class="cls-6" points="122.81 65.24 118.81 67.55 118.81 66.53 122.81 64.22 122.81 65.24"/><polygon class="cls-6" points="126.81 62.93 122.81 65.24 122.81 64.22 126.81 61.91 126.81 62.93"/><polygon class="cls-6" points="130.81 60.63 126.81 62.93 126.81 61.91 130.81 59.6 130.81 60.63"/><polygon class="cls-6" points="135.19 58.09 130.81 60.63 130.81 59.6 135.19 57.07 135.19 58.09"/><polygon class="cls-7" points="113.04 69.86 110.81 71.15 110.81 70.13 113.04 68.84 113.04 69.86"/><polygon class="cls-7" points="135.19 57.07 133.43 58.09 133.43 57.08 135.19 56.05 135.19 57.07"/><polygon class="cls-6" points="117.04 67.56 113.04 69.86 113.04 68.84 117.04 66.53 117.04 67.56"/><polygon class="cls-7" points="121.04 65.25 117.04 67.56 117.04 66.53 121.04 64.22 121.04 65.25"/><polygon class="cls-6" points="125.04 62.94 121.04 65.25 121.04 64.22 125.04 61.92 125.04 62.94"/><polygon class="cls-7" points="129.04 60.63 125.04 62.94 125.04 61.92 129.04 59.61 129.04 60.63"/><polygon class="cls-6" points="133.43 58.09 129.04 60.63 129.04 59.61 133.43 57.08 133.43 58.09"/><polygon class="cls-8" points="114.81 67.82 110.81 70.13 110.81 69.11 114.81 66.8 114.81 67.82"/><polygon class="cls-7" points="118.81 65.51 114.81 67.82 114.81 66.8 118.81 64.49 118.81 65.51"/><polygon class="cls-7" points="122.81 63.2 118.81 65.51 118.81 64.49 122.81 62.18 122.81 63.2"/><polygon class="cls-7" points="126.81 60.89 122.81 63.2 122.81 62.18 126.81 59.87 126.81 60.89"/><polygon class="cls-7" points="130.81 58.58 126.81 60.89 126.81 59.87 130.81 57.56 130.81 58.58"/><polygon class="cls-7" points="135.19 56.05 130.81 58.58 130.81 57.56 135.19 55.03 135.19 56.05"/><polygon class="cls-7" points="113.04 67.82 110.81 69.11 110.81 68.09 113.04 66.8 113.04 67.82"/><polygon class="cls-6" points="135.19 55.03 133.43 56.05 133.43 55.03 135.19 54.01 135.19 55.03"/><polygon class="cls-7" points="117.04 65.52 113.04 67.82 113.04 66.8 117.04 64.5 117.04 65.52"/><polygon class="cls-6" points="121.04 63.2 117.04 65.52 117.04 64.5 121.04 62.19 121.04 63.2"/><polygon class="cls-8" points="125.04 60.9 121.04 63.2 121.04 62.19 125.04 59.88 125.04 60.9"/><polygon class="cls-7" points="129.04 58.59 125.04 60.9 125.04 59.88 129.04 57.57 129.04 58.59"/><polygon class="cls-7" points="133.43 56.05 129.04 58.59 129.04 57.57 133.43 55.03 133.43 56.05"/><polygon class="cls-8" points="114.81 65.78 110.81 68.09 110.81 67.07 114.81 64.76 114.81 65.78"/><polygon class="cls-7" points="118.81 63.47 114.81 65.78 114.81 64.76 118.81 62.45 118.81 63.47"/><polygon class="cls-7" points="122.81 61.16 118.81 63.47 118.81 62.45 122.81 60.14 122.81 61.16"/><polygon class="cls-7" points="126.81 58.85 122.81 61.16 122.81 60.14 126.81 57.83 126.81 58.85"/><polygon class="cls-6" points="130.81 56.54 126.81 58.85 126.81 57.83 130.81 55.52 130.81 56.54"/><polygon class="cls-7" points="135.19 54.01 130.81 56.54 130.81 55.52 135.19 52.99 135.19 54.01"/><polygon class="cls-7" points="113.04 65.78 110.81 67.07 110.81 66.05 113.04 64.76 113.04 65.78"/><polygon class="cls-7" points="135.19 52.99 133.43 54.02 133.43 52.99 135.19 51.97 135.19 52.99"/><polygon class="cls-7" points="117.04 63.47 113.04 65.78 113.04 64.76 117.04 62.45 117.04 63.47"/><polygon class="cls-7" points="121.04 61.16 117.04 63.47 117.04 62.45 121.04 60.15 121.04 61.16"/><polygon class="cls-6" points="125.04 58.86 121.04 61.16 121.04 60.15 125.04 57.84 125.04 58.86"/><polygon class="cls-7" points="129.04 56.55 125.04 58.86 125.04 57.84 129.04 55.53 129.04 56.55"/><polygon class="cls-7" points="133.43 54.02 129.04 56.55 129.04 55.53 133.43 52.99 133.43 54.02"/><polygon class="cls-7" points="114.81 63.74 110.81 66.05 110.81 65.03 114.81 62.72 114.81 63.74"/><polygon class="cls-8" points="118.81 61.43 114.81 63.74 114.81 62.72 118.81 60.41 118.81 61.43"/><polygon class="cls-7" points="122.81 59.12 118.81 61.43 118.81 60.41 122.81 58.1 122.81 59.12"/><polygon class="cls-7" points="126.81 56.81 122.81 59.12 122.81 58.1 126.81 55.79 126.81 56.81"/><polygon class="cls-7" points="130.81 54.5 126.81 56.81 126.81 55.79 130.81 53.48 130.81 54.5"/><polygon class="cls-8" points="135.19 51.97 130.81 54.5 130.81 53.48 135.19 50.95 135.19 51.97"/><polygon class="cls-6" points="113.04 63.74 110.81 65.03 110.81 64.01 113.04 62.72 113.04 63.74"/><polygon class="cls-7" points="135.19 50.95 133.43 51.97 133.43 50.95 135.19 49.93 135.19 50.95"/><polygon class="cls-7" points="117.04 61.43 113.04 63.74 113.04 62.72 117.04 60.41 117.04 61.43"/><polygon class="cls-7" points="121.04 59.13 117.04 61.43 117.04 60.41 121.04 58.1 121.04 59.13"/><polygon class="cls-7" points="125.04 56.81 121.04 59.13 121.04 58.1 125.04 55.8 125.04 56.81"/><polygon class="cls-8" points="129.04 54.51 125.04 56.81 125.04 55.8 129.04 53.49 129.04 54.51"/><polygon class="cls-7" points="133.43 51.97 129.04 54.51 129.04 53.49 133.43 50.95 133.43 51.97"/><polygon class="cls-7" points="114.81 61.7 110.81 64.01 110.81 62.99 114.81 60.68 114.81 61.7"/><polygon class="cls-7" points="118.81 59.39 114.81 61.7 114.81 60.68 118.81 58.37 118.81 59.39"/><polygon class="cls-7" points="122.81 57.08 118.81 59.39 118.81 58.37 122.81 56.06 122.81 57.08"/><polygon class="cls-7" points="126.81 54.77 122.81 57.08 122.81 56.06 126.81 53.75 126.81 54.77"/><polygon class="cls-7" points="130.81 52.46 126.81 54.77 126.81 53.75 130.81 51.44 130.81 52.46"/><polygon class="cls-7" points="135.19 49.93 130.81 52.46 130.81 51.44 135.19 48.91 135.19 49.93"/><polygon class="cls-7" points="113.04 61.7 110.81 62.99 110.81 61.97 113.04 60.68 113.04 61.7"/><polygon class="cls-7" points="135.19 48.91 133.43 49.93 133.43 48.91 135.19 47.89 135.19 48.91"/><polygon class="cls-6" points="117.04 59.39 113.04 61.7 113.04 60.68 117.04 58.37 117.04 59.39"/><polygon class="cls-8" points="121.04 57.08 117.04 59.39 117.04 58.37 121.04 56.06 121.04 57.08"/><polygon class="cls-6" points="125.04 54.77 121.04 57.08 121.04 56.06 125.04 53.76 125.04 54.77"/><polygon class="cls-7" points="129.04 52.47 125.04 54.77 125.04 53.76 129.04 51.45 129.04 52.47"/><polygon class="cls-6" points="133.43 49.93 129.04 52.47 129.04 51.45 133.43 48.91 133.43 49.93"/><polygon class="cls-7" points="114.81 59.66 110.81 61.97 110.81 60.95 114.81 58.64 114.81 59.66"/><polygon class="cls-7" points="118.81 57.35 114.81 59.66 114.81 58.64 118.81 56.33 118.81 57.35"/><polygon class="cls-7" points="122.81 55.04 118.81 57.35 118.81 56.33 122.81 54.02 122.81 55.04"/><polygon class="cls-7" points="126.81 52.73 122.81 55.04 122.81 54.02 126.81 51.71 126.81 52.73"/><polygon class="cls-7" points="130.81 50.42 126.81 52.73 126.81 51.71 130.81 49.4 130.81 50.42"/><polygon class="cls-7" points="135.19 47.89 130.81 50.42 130.81 49.4 135.19 46.87 135.19 47.89"/><polygon class="cls-7" points="113.04 59.66 110.81 60.95 110.81 59.93 113.04 58.64 113.04 59.66"/><polygon class="cls-6" points="135.19 46.87 133.43 47.89 133.43 46.87 135.19 45.85 135.19 46.87"/><polygon class="cls-7" points="117.04 57.35 113.04 59.66 113.04 58.64 117.04 56.33 117.04 57.35"/><polygon class="cls-6" points="121.04 55.04 117.04 57.35 117.04 56.33 121.04 54.02 121.04 55.04"/><polygon class="cls-7" points="125.04 52.73 121.04 55.04 121.04 54.02 125.04 51.71 125.04 52.73"/><polygon class="cls-8" points="129.04 50.42 125.04 52.73 125.04 51.71 129.04 49.41 129.04 50.42"/><polygon class="cls-7" points="133.43 47.89 129.04 50.42 129.04 49.41 133.43 46.87 133.43 47.89"/><polygon class="cls-7" points="114.81 57.62 110.81 59.93 110.81 58.91 114.81 56.6 114.81 57.62"/><polygon class="cls-7" points="118.81 55.31 114.81 57.62 114.81 56.6 118.81 54.29 118.81 55.31"/><polygon class="cls-7" points="122.81 53 118.81 55.31 118.81 54.29 122.81 51.98 122.81 53"/><polygon class="cls-7" points="126.81 50.69 122.81 53 122.81 51.98 126.81 49.67 126.81 50.69"/><polygon class="cls-6" points="130.81 48.38 126.81 50.69 126.81 49.67 130.81 47.36 130.81 48.38"/><polygon class="cls-7" points="135.19 45.85 130.81 48.38 130.81 47.36 135.19 44.83 135.19 45.85"/><polygon class="cls-8" points="113.04 57.62 110.81 58.91 110.81 57.89 113.04 56.6 113.04 57.62"/><polygon class="cls-8" points="135.19 44.83 133.43 45.85 133.43 44.83 135.19 43.81 135.19 44.83"/><polygon class="cls-7" points="117.04 55.31 113.04 57.62 113.04 56.6 117.04 54.29 117.04 55.31"/><polygon class="cls-7" points="121.04 53 117.04 55.31 117.04 54.29 121.04 51.98 121.04 53"/><polygon class="cls-7" points="125.04 50.69 121.04 53 121.04 51.98 125.04 49.67 125.04 50.69"/><polygon class="cls-7" points="129.04 48.38 125.04 50.69 125.04 49.67 129.04 47.37 129.04 48.38"/><polygon class="cls-7" points="133.43 45.85 129.04 48.38 129.04 47.37 133.43 44.83 133.43 45.85"/><polygon class="cls-7" points="114.81 55.58 110.81 57.89 110.81 56.87 114.81 54.56 114.81 55.58"/><polygon class="cls-7" points="118.81 53.27 114.81 55.58 114.81 54.56 118.81 52.25 118.81 53.27"/><polygon class="cls-7" points="122.81 50.96 118.81 53.27 118.81 52.25 122.81 49.94 122.81 50.96"/><polygon class="cls-8" points="126.81 48.65 122.81 50.96 122.81 49.94 126.81 47.63 126.81 48.65"/><polygon class="cls-7" points="130.81 46.34 126.81 48.65 126.81 47.63 130.81 45.32 130.81 46.34"/><polygon class="cls-7" points="135.19 43.81 130.81 46.34 130.81 45.32 135.19 42.79 135.19 43.81"/><polygon class="cls-7" points="113.04 55.58 110.81 56.87 110.81 55.85 113.04 54.56 113.04 55.58"/><polygon class="cls-7" points="135.19 42.79 133.43 43.81 133.43 42.79 135.19 41.77 135.19 42.79"/><polygon class="cls-7" points="117.04 53.27 113.04 55.58 113.04 54.56 117.04 52.25 117.04 53.27"/><polygon class="cls-8" points="121.04 50.96 117.04 53.27 117.04 52.25 121.04 49.94 121.04 50.96"/><polygon class="cls-7" points="125.04 48.65 121.04 50.96 121.04 49.94 125.04 47.63 125.04 48.65"/><polygon class="cls-7" points="129.04 46.34 125.04 48.65 125.04 47.63 129.04 45.32 129.04 46.34"/><polygon class="cls-8" points="133.43 43.81 129.04 46.34 129.04 45.32 133.43 42.79 133.43 43.81"/><polygon class="cls-6" points="46.84 35.28 42.84 32.97 42.84 31.95 46.84 34.26 46.84 35.28"/><polygon class="cls-6" points="50.84 37.59 46.84 35.28 46.84 34.26 50.84 36.57 50.84 37.59"/><polygon class="cls-6" points="54.84 39.9 50.84 37.59 50.84 36.57 54.84 38.88 54.84 39.9"/><polygon class="cls-6" points="58.84 42.21 54.84 39.9 54.84 38.88 58.84 41.19 58.84 42.21"/><polygon class="cls-6" points="62.84 44.52 58.84 42.21 58.84 41.19 62.84 43.5 62.84 44.52"/><polygon class="cls-6" points="67.22 47.05 62.84 44.52 62.84 43.5 67.22 46.03 67.22 47.05"/><polygon class="cls-7" points="45.07 33.24 42.84 31.95 42.84 30.93 45.07 32.22 45.07 33.24"/><polygon class="cls-7" points="67.22 46.03 65.45 45.01 65.45 43.99 67.22 45.01 67.22 46.03"/><polygon class="cls-6" points="49.07 35.55 45.07 33.24 45.07 32.22 49.07 34.53 49.07 35.55"/><polygon class="cls-7" points="53.07 37.86 49.07 35.55 49.07 34.53 53.07 36.84 53.07 37.86"/><polygon class="cls-6" points="57.07 40.17 53.07 37.86 53.07 36.84 57.07 39.15 57.07 40.17"/><polygon class="cls-7" points="61.07 42.48 57.07 40.17 57.07 39.15 61.07 41.46 61.07 42.48"/><polygon class="cls-6" points="65.45 45.01 61.07 42.48 61.07 41.46 65.45 43.99 65.45 45.01"/><polygon class="cls-8" points="46.84 33.24 42.84 30.93 42.84 29.91 46.84 32.22 46.84 33.24"/><polygon class="cls-7" points="50.84 35.55 46.84 33.24 46.84 32.22 50.84 34.53 50.84 35.55"/><polygon class="cls-7" points="54.84 37.86 50.84 35.55 50.84 34.53 54.84 36.84 54.84 37.86"/><polygon class="cls-7" points="58.84 40.17 54.84 37.86 54.84 36.84 58.84 39.15 58.84 40.17"/><polygon class="cls-7" points="62.84 42.48 58.84 40.17 58.84 39.15 62.84 41.46 62.84 42.48"/><polygon class="cls-7" points="67.22 45.01 62.84 42.48 62.84 41.46 67.22 43.99 67.22 45.01"/><polygon class="cls-7" points="45.07 31.2 42.84 29.91 42.84 28.89 45.07 30.18 45.07 31.2"/><polygon class="cls-6" points="67.22 43.99 65.45 42.97 65.45 41.95 67.22 42.97 67.22 43.99"/><polygon class="cls-7" points="49.07 33.51 45.07 31.2 45.07 30.18 49.07 32.49 49.07 33.51"/><polygon class="cls-6" points="53.07 35.82 49.07 33.51 49.07 32.49 53.07 34.8 53.07 35.82"/><polygon class="cls-8" points="57.07 38.13 53.07 35.82 53.07 34.8 57.07 37.11 57.07 38.13"/><polygon class="cls-7" points="61.07 40.44 57.07 38.13 57.07 37.11 61.07 39.42 61.07 40.44"/><polygon class="cls-7" points="65.45 42.97 61.07 40.44 61.07 39.42 65.45 41.95 65.45 42.97"/><polygon class="cls-8" points="46.84 31.2 42.84 28.89 42.84 27.87 46.84 30.18 46.84 31.2"/><polygon class="cls-7" points="50.84 33.51 46.84 31.2 46.84 30.18 50.84 32.49 50.84 33.51"/><polygon class="cls-7" points="54.84 35.82 50.84 33.51 50.84 32.49 54.84 34.8 54.84 35.82"/><polygon class="cls-7" points="58.84 38.13 54.84 35.82 54.84 34.8 58.84 37.11 58.84 38.13"/><polygon class="cls-6" points="62.84 40.44 58.84 38.13 58.84 37.11 62.84 39.42 62.84 40.44"/><polygon class="cls-7" points="67.22 42.97 62.84 40.44 62.84 39.42 67.22 41.95 67.22 42.97"/><polygon class="cls-7" points="45.07 29.16 42.84 27.87 42.84 26.85 45.07 28.14 45.07 29.16"/><polygon class="cls-7" points="67.22 41.95 65.45 40.93 65.45 39.91 67.22 40.93 67.22 41.95"/><polygon class="cls-7" points="49.07 31.47 45.07 29.16 45.07 28.14 49.07 30.45 49.07 31.47"/><polygon class="cls-7" points="53.07 33.78 49.07 31.47 49.07 30.45 53.07 32.76 53.07 33.78"/><polygon class="cls-6" points="57.07 36.09 53.07 33.78 53.07 32.76 57.07 35.07 57.07 36.09"/><polygon class="cls-7" points="61.07 38.4 57.07 36.09 57.07 35.07 61.07 37.38 61.07 38.4"/><polygon class="cls-7" points="65.45 40.93 61.07 38.4 61.07 37.38 65.45 39.91 65.45 40.93"/><polygon class="cls-7" points="46.84 29.16 42.84 26.85 42.84 25.83 46.84 28.14 46.84 29.16"/><polygon class="cls-8" points="50.84 31.47 46.84 29.16 46.84 28.14 50.84 30.45 50.84 31.47"/><polygon class="cls-7" points="54.84 33.78 50.84 31.47 50.84 30.45 54.84 32.76 54.84 33.78"/><polygon class="cls-7" points="58.84 36.09 54.84 33.78 54.84 32.76 58.84 35.07 58.84 36.09"/><polygon class="cls-7" points="62.84 38.4 58.84 36.09 58.84 35.07 62.84 37.38 62.84 38.4"/><polygon class="cls-8" points="67.22 40.93 62.84 38.4 62.84 37.38 67.22 39.91 67.22 40.93"/><polygon class="cls-6" points="45.07 27.12 42.84 25.83 42.84 24.81 45.07 26.1 45.07 27.12"/><polygon class="cls-7" points="67.22 39.91 65.45 38.89 65.45 37.87 67.22 38.89 67.22 39.91"/><polygon class="cls-7" points="49.07 29.43 45.07 27.12 45.07 26.1 49.07 28.41 49.07 29.43"/><polygon class="cls-7" points="53.07 31.74 49.07 29.43 49.07 28.41 53.07 30.72 53.07 31.74"/><polygon class="cls-7" points="57.07 34.05 53.07 31.74 53.07 30.72 57.07 33.03 57.07 34.05"/><polygon class="cls-8" points="61.07 36.36 57.07 34.05 57.07 33.03 61.07 35.34 61.07 36.36"/><polygon class="cls-7" points="65.45 38.89 61.07 36.36 61.07 35.34 65.45 37.87 65.45 38.89"/><polygon class="cls-7" points="46.84 27.12 42.84 24.81 42.84 23.79 46.84 26.1 46.84 27.12"/><polygon class="cls-7" points="50.84 29.43 46.84 27.12 46.84 26.1 50.84 28.41 50.84 29.43"/><polygon class="cls-7" points="54.84 31.74 50.84 29.43 50.84 28.41 54.84 30.72 54.84 31.74"/><polygon class="cls-7" points="58.84 34.05 54.84 31.74 54.84 30.72 58.84 33.03 58.84 34.05"/><polygon class="cls-7" points="62.84 36.36 58.84 34.05 58.84 33.03 62.84 35.34 62.84 36.36"/><polygon class="cls-7" points="67.22 38.89 62.84 36.36 62.84 35.34 67.22 37.87 67.22 38.89"/><polygon class="cls-7" points="45.07 25.08 42.84 23.79 42.84 22.77 45.07 24.06 45.07 25.08"/><polygon class="cls-7" points="67.22 37.87 65.45 36.85 65.45 35.83 67.22 36.85 67.22 37.87"/><polygon class="cls-6" points="49.07 27.39 45.07 25.08 45.07 24.06 49.07 26.37 49.07 27.39"/><polygon class="cls-8" points="53.07 29.7 49.07 27.39 49.07 26.37 53.07 28.68 53.07 29.7"/><polygon class="cls-6" points="57.07 32.01 53.07 29.7 53.07 28.68 57.07 30.99 57.07 32.01"/><polygon class="cls-7" points="61.07 34.31 57.07 32.01 57.07 30.99 61.07 33.3 61.07 34.31"/><polygon class="cls-6" points="65.45 36.85 61.07 34.31 61.07 33.3 65.45 35.83 65.45 36.85"/><polygon class="cls-7" points="46.84 25.08 42.84 22.77 42.84 21.75 46.84 24.06 46.84 25.08"/><polygon class="cls-7" points="50.84 27.39 46.84 25.08 46.84 24.06 50.84 26.37 50.84 27.39"/><polygon class="cls-7" points="54.84 29.7 50.84 27.39 50.84 26.37 54.84 28.68 54.84 29.7"/><polygon class="cls-7" points="58.84 32.01 54.84 29.7 54.84 28.68 58.84 30.99 58.84 32.01"/><polygon class="cls-7" points="62.84 34.32 58.84 32.01 58.84 30.99 62.84 33.3 62.84 34.32"/><polygon class="cls-7" points="67.22 36.85 62.84 34.32 62.84 33.3 67.22 35.83 67.22 36.85"/><polygon class="cls-7" points="45.07 23.04 42.84 21.75 42.84 20.73 45.07 22.02 45.07 23.04"/><polygon class="cls-6" points="67.22 35.83 65.45 34.81 65.45 33.79 67.22 34.81 67.22 35.83"/><polygon class="cls-7" points="49.07 25.35 45.07 23.04 45.07 22.02 49.07 24.33 49.07 25.35"/><polygon class="cls-6" points="53.07 27.66 49.07 25.35 49.07 24.33 53.07 26.64 53.07 27.66"/><polygon class="cls-7" points="57.07 29.97 53.07 27.66 53.07 26.64 57.07 28.95 57.07 29.97"/><polygon class="cls-8" points="61.07 32.27 57.07 29.97 57.07 28.95 61.07 31.25 61.07 32.27"/><polygon class="cls-7" points="65.45 34.81 61.07 32.27 61.07 31.25 65.45 33.79 65.45 34.81"/><polygon class="cls-7" points="46.84 23.04 42.84 20.73 42.84 19.71 46.84 22.02 46.84 23.04"/><polygon class="cls-7" points="50.84 25.35 46.84 23.04 46.84 22.02 50.84 24.33 50.84 25.35"/><polygon class="cls-7" points="54.84 27.66 50.84 25.35 50.84 24.33 54.84 26.64 54.84 27.66"/><polygon class="cls-7" points="58.84 29.97 54.84 27.66 54.84 26.64 58.84 28.95 58.84 29.97"/><polygon class="cls-6" points="62.84 32.28 58.84 29.97 58.84 28.95 62.84 31.26 62.84 32.28"/><polygon class="cls-7" points="67.22 34.81 62.84 32.28 62.84 31.26 67.22 33.79 67.22 34.81"/><polygon class="cls-8" points="45.07 21 42.84 19.71 42.84 18.69 45.07 19.98 45.07 21"/><polygon class="cls-8" points="67.22 33.79 65.45 32.77 65.45 31.75 67.22 32.77 67.22 33.79"/><polygon class="cls-7" points="49.07 23.31 45.07 21 45.07 19.98 49.07 22.29 49.07 23.31"/><polygon class="cls-7" points="53.07 25.62 49.07 23.31 49.07 22.29 53.07 24.6 53.07 25.62"/><polygon class="cls-7" points="57.07 27.93 53.07 25.62 53.07 24.6 57.07 26.91 57.07 27.93"/><polygon class="cls-7" points="61.07 30.23 57.07 27.93 57.07 26.91 61.07 29.21 61.07 30.23"/><polygon class="cls-7" points="65.45 32.77 61.07 30.23 61.07 29.21 65.45 31.75 65.45 32.77"/><polygon class="cls-7" points="46.84 21 42.84 18.69 42.84 17.67 46.84 19.98 46.84 21"/><polygon class="cls-7" points="50.84 23.31 46.84 21 46.84 19.98 50.84 22.29 50.84 23.31"/><polygon class="cls-7" points="54.84 25.62 50.84 23.31 50.84 22.29 54.84 24.6 54.84 25.62"/><polygon class="cls-8" points="58.84 27.93 54.84 25.62 54.84 24.6 58.84 26.91 58.84 27.93"/><polygon class="cls-7" points="62.84 30.24 58.84 27.93 58.84 26.91 62.84 29.22 62.84 30.24"/><polygon class="cls-7" points="67.22 32.77 62.84 30.24 62.84 29.22 67.22 31.75 67.22 32.77"/><polygon class="cls-7" points="45.07 18.96 42.84 17.67 42.84 16.65 45.07 17.94 45.07 18.96"/><polygon class="cls-7" points="67.22 31.75 65.45 30.73 65.45 29.71 67.22 30.73 67.22 31.75"/><polygon class="cls-7" points="49.07 21.27 45.07 18.96 45.07 17.94 49.07 20.25 49.07 21.27"/><polygon class="cls-8" points="53.07 23.58 49.07 21.27 49.07 20.25 53.07 22.56 53.07 23.58"/><polygon class="cls-7" points="57.07 25.89 53.07 23.58 53.07 22.56 57.07 24.86 57.07 25.89"/><polygon class="cls-7" points="61.07 28.2 57.07 25.89 57.07 24.86 61.07 27.17 61.07 28.2"/><polygon class="cls-8" points="65.45 30.73 61.07 28.2 61.07 27.17 65.45 29.71 65.45 30.73"/><polygon class="cls-6" points="71.22 49.36 67.22 47.05 67.22 46.03 71.22 48.34 71.22 49.36"/><polygon class="cls-6" points="75.22 51.67 71.22 49.36 71.22 48.34 75.22 50.65 75.22 51.67"/><polygon class="cls-6" points="79.22 53.98 75.22 51.67 75.22 50.65 79.22 52.96 79.22 53.98"/><polygon class="cls-6" points="83.22 56.29 79.22 53.98 79.22 52.96 83.22 55.27 83.22 56.29"/><polygon class="cls-6" points="87.22 58.6 83.22 56.29 83.22 55.27 87.22 57.58 87.22 58.6"/><polygon class="cls-6" points="91.61 61.13 87.22 58.6 87.22 57.58 91.61 60.11 91.61 61.13"/><polygon class="cls-7" points="69.45 47.32 67.23 46.03 67.23 45.01 69.45 46.3 69.45 47.32"/><polygon class="cls-7" points="91.61 60.11 89.84 59.09 89.84 58.07 91.61 59.09 91.61 60.11"/><polygon class="cls-6" points="73.45 49.63 69.45 47.32 69.45 46.3 73.45 48.61 73.45 49.63"/><polygon class="cls-7" points="77.45 51.94 73.45 49.63 73.45 48.61 77.45 50.92 77.45 51.94"/><polygon class="cls-6" points="81.45 54.25 77.45 51.94 77.45 50.92 81.45 53.23 81.45 54.25"/><polygon class="cls-7" points="85.45 56.55 81.45 54.25 81.45 53.23 85.45 55.53 85.45 56.55"/><polygon class="cls-6" points="89.84 59.09 85.45 56.55 85.45 55.53 89.84 58.07 89.84 59.09"/><polygon class="cls-8" points="71.22 47.32 67.22 45.01 67.22 43.99 71.22 46.3 71.22 47.32"/><polygon class="cls-7" points="75.22 49.63 71.22 47.32 71.22 46.3 75.22 48.61 75.22 49.63"/><polygon class="cls-7" points="79.22 51.94 75.22 49.63 75.22 48.61 79.22 50.92 79.22 51.94"/><polygon class="cls-7" points="83.22 54.25 79.22 51.94 79.22 50.92 83.22 53.23 83.22 54.25"/><polygon class="cls-7" points="87.22 56.56 83.22 54.25 83.22 53.23 87.22 55.54 87.22 56.56"/><polygon class="cls-7" points="91.61 59.09 87.22 56.56 87.22 55.54 91.61 58.07 91.61 59.09"/><polygon class="cls-7" points="69.45 45.28 67.23 43.99 67.23 42.97 69.45 44.26 69.45 45.28"/><polygon class="cls-6" points="91.61 58.07 89.84 57.05 89.84 56.03 91.61 57.05 91.61 58.07"/><polygon class="cls-7" points="73.45 47.59 69.45 45.28 69.45 44.26 73.45 46.57 73.45 47.59"/><polygon class="cls-6" points="77.45 49.9 73.45 47.59 73.45 46.57 77.45 48.88 77.45 49.9"/><polygon class="cls-8" points="81.45 52.21 77.45 49.9 77.45 48.88 81.45 51.19 81.45 52.21"/><polygon class="cls-7" points="85.45 54.52 81.45 52.21 81.45 51.19 85.45 53.49 85.45 54.52"/><polygon class="cls-7" points="89.84 57.05 85.45 54.52 85.45 53.49 89.84 56.03 89.84 57.05"/><polygon class="cls-8" points="71.22 45.28 67.22 42.97 67.22 41.95 71.22 44.26 71.22 45.28"/><polygon class="cls-7" points="75.22 47.59 71.22 45.28 71.22 44.26 75.22 46.57 75.22 47.59"/><polygon class="cls-7" points="79.22 49.9 75.22 47.59 75.22 46.57 79.22 48.88 79.22 49.9"/><polygon class="cls-7" points="83.22 52.21 79.22 49.9 79.22 48.88 83.22 51.19 83.22 52.21"/><polygon class="cls-6" points="87.22 54.52 83.22 52.21 83.22 51.19 87.22 53.5 87.22 54.52"/><polygon class="cls-7" points="91.61 57.05 87.22 54.52 87.22 53.5 91.61 56.03 91.61 57.05"/><polygon class="cls-7" points="69.45 43.24 67.23 41.95 67.23 40.93 69.45 42.22 69.45 43.24"/><polygon class="cls-7" points="91.61 56.03 89.84 55.01 89.84 53.99 91.61 55.01 91.61 56.03"/><polygon class="cls-7" points="73.45 45.55 69.45 43.24 69.45 42.22 73.45 44.53 73.45 45.55"/><polygon class="cls-7" points="77.45 47.86 73.45 45.55 73.45 44.53 77.45 46.84 77.45 47.86"/><polygon class="cls-6" points="81.45 50.16 77.45 47.86 77.45 46.84 81.45 49.15 81.45 50.16"/><polygon class="cls-7" points="85.45 52.48 81.45 50.16 81.45 49.15 85.45 51.45 85.45 52.48"/><polygon class="cls-7" points="89.84 55.01 85.45 52.48 85.45 51.45 89.84 53.99 89.84 55.01"/><polygon class="cls-7" points="71.22 43.24 67.22 40.93 67.22 39.91 71.22 42.22 71.22 43.24"/><polygon class="cls-8" points="75.22 45.55 71.22 43.24 71.22 42.22 75.22 44.53 75.22 45.55"/><polygon class="cls-7" points="79.22 47.86 75.22 45.55 75.22 44.53 79.22 46.84 79.22 47.86"/><polygon class="cls-7" points="83.22 50.17 79.22 47.86 79.22 46.84 83.22 49.15 83.22 50.17"/><polygon class="cls-7" points="87.22 52.48 83.22 50.17 83.22 49.15 87.22 51.46 87.22 52.48"/><polygon class="cls-8" points="91.61 55.01 87.22 52.48 87.22 51.46 91.61 53.99 91.61 55.01"/><polygon class="cls-6" points="69.45 41.2 67.23 39.91 67.23 38.89 69.45 40.18 69.45 41.2"/><polygon class="cls-7" points="91.61 53.99 89.84 52.97 89.84 51.95 91.61 52.97 91.61 53.99"/><polygon class="cls-7" points="73.45 43.51 69.45 41.2 69.45 40.18 73.45 42.49 73.45 43.51"/><polygon class="cls-7" points="77.45 45.82 73.45 43.51 73.45 42.49 77.45 44.8 77.45 45.82"/><polygon class="cls-7" points="81.45 48.13 77.45 45.82 77.45 44.8 81.45 47.1 81.45 48.13"/><polygon class="cls-8" points="85.45 50.43 81.45 48.13 81.45 47.1 85.45 49.41 85.45 50.43"/><polygon class="cls-7" points="89.84 52.97 85.45 50.43 85.45 49.41 89.84 51.95 89.84 52.97"/><polygon class="cls-7" points="71.22 41.2 67.22 38.89 67.22 37.87 71.22 40.18 71.22 41.2"/><polygon class="cls-7" points="75.22 43.51 71.22 41.2 71.22 40.18 75.22 42.49 75.22 43.51"/><polygon class="cls-7" points="79.22 45.82 75.22 43.51 75.22 42.49 79.22 44.8 79.22 45.82"/><polygon class="cls-7" points="83.22 48.13 79.22 45.82 79.22 44.8 83.22 47.11 83.22 48.13"/><polygon class="cls-7" points="87.22 50.44 83.22 48.13 83.22 47.11 87.22 49.42 87.22 50.44"/><polygon class="cls-7" points="91.61 52.97 87.22 50.44 87.22 49.42 91.61 51.95 91.61 52.97"/><polygon class="cls-7" points="69.45 39.16 67.23 37.87 67.23 36.85 69.45 38.14 69.45 39.16"/><polygon class="cls-7" points="91.61 51.95 89.84 50.93 89.84 49.91 91.61 50.93 91.61 51.95"/><polygon class="cls-6" points="73.45 41.47 69.45 39.16 69.45 38.14 73.45 40.45 73.45 41.47"/><polygon class="cls-8" points="77.45 43.77 73.45 41.47 73.45 40.45 77.45 42.76 77.45 43.77"/><polygon class="cls-6" points="81.45 46.09 77.45 43.77 77.45 42.76 81.45 45.06 81.45 46.09"/><polygon class="cls-7" points="85.45 48.39 81.45 46.09 81.45 45.06 85.45 47.37 85.45 48.39"/><polygon class="cls-6" points="89.84 50.93 85.45 48.39 85.45 47.37 89.84 49.91 89.84 50.93"/><polygon class="cls-7" points="71.22 39.16 67.22 36.85 67.22 35.83 71.22 38.14 71.22 39.16"/><polygon class="cls-7" points="75.22 41.47 71.22 39.16 71.22 38.14 75.22 40.45 75.22 41.47"/><polygon class="cls-7" points="79.22 43.78 75.22 41.47 75.22 40.45 79.22 42.76 79.22 43.78"/><polygon class="cls-7" points="83.22 46.09 79.22 43.78 79.22 42.76 83.22 45.07 83.22 46.09"/><polygon class="cls-7" points="87.22 48.4 83.22 46.09 83.22 45.07 87.22 47.38 87.22 48.4"/><polygon class="cls-7" points="91.61 50.93 87.22 48.4 87.22 47.38 91.61 49.91 91.61 50.93"/><polygon class="cls-7" points="69.45 37.12 67.23 35.83 67.23 34.81 69.45 36.1 69.45 37.12"/><polygon class="cls-6" points="91.61 49.91 89.84 48.88 89.84 47.87 91.61 48.89 91.61 49.91"/><polygon class="cls-7" points="73.45 39.43 69.45 37.12 69.45 36.1 73.45 38.41 73.45 39.43"/><polygon class="cls-6" points="77.45 41.73 73.45 39.43 73.45 38.41 77.45 40.72 77.45 41.73"/><polygon class="cls-7" points="81.45 44.04 77.45 41.73 77.45 40.72 81.45 43.02 81.45 44.04"/><polygon class="cls-8" points="85.45 46.35 81.45 44.04 81.45 43.02 85.45 45.33 85.45 46.35"/><polygon class="cls-7" points="89.84 48.88 85.45 46.35 85.45 45.33 89.84 47.87 89.84 48.88"/><polygon class="cls-7" points="71.22 37.12 67.22 34.81 67.22 33.79 71.22 36.1 71.22 37.12"/><polygon class="cls-7" points="75.22 39.43 71.22 37.12 71.22 36.1 75.22 38.41 75.22 39.43"/><polygon class="cls-7" points="79.22 41.74 75.22 39.43 75.22 38.41 79.22 40.72 79.22 41.74"/><polygon class="cls-7" points="83.22 44.05 79.22 41.74 79.22 40.72 83.22 43.03 83.22 44.05"/><polygon class="cls-6" points="87.22 46.36 83.22 44.05 83.22 43.03 87.22 45.34 87.22 46.36"/><polygon class="cls-7" points="91.61 48.89 87.22 46.36 87.22 45.34 91.61 47.87 91.61 48.89"/><polygon class="cls-8" points="69.45 35.08 67.23 33.79 67.23 32.77 69.45 34.06 69.45 35.08"/><polygon class="cls-8" points="91.61 47.87 89.84 46.84 89.84 45.83 91.61 46.85 91.61 47.87"/><polygon class="cls-7" points="73.45 37.38 69.45 35.08 69.45 34.06 73.45 36.37 73.45 37.38"/><polygon class="cls-7" points="77.45 39.7 73.45 37.38 73.45 36.37 77.45 38.67 77.45 39.7"/><polygon class="cls-7" points="81.45 42 77.45 39.7 77.45 38.67 81.45 40.98 81.45 42"/><polygon class="cls-7" points="85.45 44.31 81.45 42 81.45 40.98 85.45 43.29 85.45 44.31"/><polygon class="cls-7" points="89.84 46.84 85.45 44.31 85.45 43.29 89.84 45.83 89.84 46.84"/><polygon class="cls-7" points="71.22 35.08 67.22 32.77 67.22 31.75 71.22 34.06 71.22 35.08"/><polygon class="cls-7" points="75.22 37.39 71.22 35.08 71.22 34.06 75.22 36.37 75.22 37.39"/><polygon class="cls-7" points="79.22 39.7 75.22 37.39 75.22 36.37 79.22 38.68 79.22 39.7"/><polygon class="cls-8" points="83.22 42.01 79.22 39.7 79.22 38.68 83.22 40.99 83.22 42.01"/><polygon class="cls-7" points="87.22 44.32 83.22 42.01 83.22 40.99 87.22 43.3 87.22 44.32"/><polygon class="cls-7" points="91.61 46.85 87.22 44.32 87.22 43.3 91.61 45.83 91.61 46.85"/><polygon class="cls-7" points="69.45 33.04 67.23 31.75 67.23 30.73 69.45 32.02 69.45 33.04"/><polygon class="cls-7" points="91.61 45.83 89.84 44.8 89.84 43.78 91.61 44.81 91.61 45.83"/><polygon class="cls-7" points="73.45 35.34 69.45 33.04 69.45 32.02 73.45 34.33 73.45 35.34"/><polygon class="cls-8" points="77.45 37.65 73.45 35.34 73.45 34.33 77.45 36.63 77.45 37.65"/><polygon class="cls-7" points="81.45 39.96 77.45 37.65 77.45 36.63 81.45 38.94 81.45 39.96"/><polygon class="cls-7" points="85.45 42.27 81.45 39.96 81.45 38.94 85.45 41.25 85.45 42.27"/><polygon class="cls-8" points="89.84 44.8 85.45 42.27 85.45 41.25 89.84 43.78 89.84 44.8"/><polygon class="cls-6" points="95.61 63.44 91.61 61.13 91.61 60.11 95.61 62.42 95.61 63.44"/><polygon class="cls-6" points="99.61 65.75 95.61 63.44 95.61 62.42 99.61 64.73 99.61 65.75"/><polygon class="cls-6" points="103.61 68.06 99.61 65.75 99.61 64.73 103.61 67.04 103.61 68.06"/><polygon class="cls-6" points="107.61 70.37 103.61 68.06 103.61 67.04 107.61 69.35 107.61 70.37"/><polygon class="cls-6" points="110.86 72.24 107.61 70.37 107.61 69.35 110.86 71.22 110.86 72.24"/><polygon class="cls-7" points="93.84 61.4 91.61 60.11 91.61 59.09 93.84 60.38 93.84 61.4"/><polygon class="cls-6" points="97.84 63.71 93.84 61.4 93.84 60.38 97.84 62.69 97.84 63.71"/><polygon class="cls-7" points="101.84 66.02 97.84 63.71 97.84 62.69 101.84 65 101.84 66.02"/><polygon class="cls-6" points="105.84 68.33 101.84 66.02 101.84 65 105.84 67.3 105.84 68.33"/><polygon class="cls-7" points="109.84 70.63 105.84 68.33 105.84 67.3 109.84 69.61 109.84 70.63"/><polygon class="cls-6" points="110.86 71.22 109.42 70.39 109.42 69.37 110.86 70.2 110.86 71.22"/><polygon class="cls-8" points="95.61 61.4 91.61 59.09 91.61 58.07 95.61 60.38 95.61 61.4"/><polygon class="cls-7" points="99.61 63.71 95.61 61.4 95.61 60.38 99.61 62.69 99.61 63.71"/><polygon class="cls-7" points="103.61 66.02 99.61 63.71 99.61 62.69 103.61 65 103.61 66.02"/><polygon class="cls-7" points="107.61 68.33 103.61 66.02 103.61 65 107.61 67.31 107.61 68.33"/><polygon class="cls-7" points="110.86 70.2 107.61 68.33 107.61 67.31 110.86 69.18 110.86 70.2"/><polygon class="cls-7" points="93.84 59.36 91.61 58.07 91.61 57.05 93.84 58.34 93.84 59.36"/><polygon class="cls-7" points="97.84 61.66 93.84 59.36 93.84 58.34 97.84 60.65 97.84 61.66"/><polygon class="cls-6" points="101.84 63.98 97.84 61.66 97.84 60.65 101.84 62.95 101.84 63.98"/><polygon class="cls-8" points="105.84 66.28 101.84 63.98 101.84 62.95 105.84 65.26 105.84 66.28"/><polygon class="cls-7" points="109.84 68.59 105.84 66.28 105.84 65.26 109.84 67.57 109.84 68.59"/><polygon class="cls-7" points="110.86 69.18 109.42 68.35 109.42 67.33 110.86 68.16 110.86 69.18"/><polygon class="cls-8" points="95.61 59.36 91.61 57.05 91.61 56.03 95.61 58.34 95.61 59.36"/><polygon class="cls-7" points="99.61 61.67 95.61 59.36 95.61 58.34 99.61 60.65 99.61 61.67"/><polygon class="cls-7" points="103.61 63.98 99.61 61.67 99.61 60.65 103.61 62.96 103.61 63.98"/><polygon class="cls-7" points="107.61 66.29 103.61 63.98 103.61 62.96 107.61 65.27 107.61 66.29"/><polygon class="cls-6" points="110.86 68.16 107.61 66.29 107.61 65.27 110.86 67.14 110.86 68.16"/><polygon class="cls-7" points="93.84 57.32 91.61 56.03 91.61 55.01 93.84 56.3 93.84 57.32"/><polygon class="cls-7" points="97.84 59.63 93.84 57.32 93.84 56.3 97.84 58.6 97.84 59.63"/><polygon class="cls-7" points="101.84 61.94 97.84 59.63 97.84 58.6 101.84 60.91 101.84 61.94"/><polygon class="cls-6" points="105.84 64.24 101.84 61.94 101.84 60.91 105.84 63.22 105.84 64.24"/><polygon class="cls-7" points="109.84 66.55 105.84 64.24 105.84 63.22 109.84 65.53 109.84 66.55"/><polygon class="cls-7" points="110.86 67.14 109.42 66.31 109.42 65.29 110.86 66.12 110.86 67.14"/><polygon class="cls-7" points="95.61 57.32 91.61 55.01 91.61 53.99 95.61 56.3 95.61 57.32"/><polygon class="cls-8" points="99.61 59.63 95.61 57.32 95.61 56.3 99.61 58.61 99.61 59.63"/><polygon class="cls-7" points="103.61 61.94 99.61 59.63 99.61 58.61 103.61 60.92 103.61 61.94"/><polygon class="cls-7" points="107.61 64.25 103.61 61.94 103.61 60.92 107.61 63.23 107.61 64.25"/><polygon class="cls-7" points="110.86 66.12 107.61 64.25 107.61 63.23 110.86 65.1 110.86 66.12"/><polygon class="cls-6" points="93.84 55.27 91.61 53.99 91.61 52.97 93.84 54.26 93.84 55.27"/><polygon class="cls-7" points="97.84 57.59 93.84 55.27 93.84 54.26 97.84 56.56 97.84 57.59"/><polygon class="cls-7" points="101.84 59.89 97.84 57.59 97.84 56.56 101.84 58.87 101.84 59.89"/><polygon class="cls-7" points="105.84 62.2 101.84 59.89 101.84 58.87 105.84 61.18 105.84 62.2"/><polygon class="cls-8" points="109.84 64.51 105.84 62.2 105.84 61.18 109.84 63.49 109.84 64.51"/><polygon class="cls-7" points="110.86 65.1 109.42 64.27 109.42 63.25 110.86 64.08 110.86 65.1"/><polygon class="cls-7" points="95.61 55.28 91.61 52.97 91.61 51.95 95.61 54.26 95.61 55.28"/><polygon class="cls-7" points="99.61 57.59 95.61 55.28 95.61 54.26 99.61 56.57 99.61 57.59"/><polygon class="cls-7" points="103.61 59.9 99.61 57.59 99.61 56.57 103.61 58.88 103.61 59.9"/><polygon class="cls-7" points="107.61 62.21 103.61 59.9 103.61 58.88 107.61 61.19 107.61 62.21"/><polygon class="cls-7" points="110.86 64.08 107.61 62.21 107.61 61.19 110.86 63.06 110.86 64.08"/><polygon class="cls-7" points="93.84 53.23 91.61 51.95 91.61 50.93 93.84 52.22 93.84 53.23"/><polygon class="cls-6" points="97.84 55.55 93.84 53.23 93.84 52.22 97.84 54.52 97.84 55.55"/><polygon class="cls-8" points="101.84 57.85 97.84 55.55 97.84 54.52 101.84 56.83 101.84 57.85"/><polygon class="cls-6" points="105.84 60.16 101.84 57.85 101.84 56.83 105.84 59.14 105.84 60.16"/><polygon class="cls-7" points="109.84 62.47 105.84 60.16 105.84 59.14 109.84 61.45 109.84 62.47"/><polygon class="cls-6" points="110.86 63.06 109.42 62.23 109.42 61.21 110.86 62.04 110.86 63.06"/><polygon class="cls-7" points="95.61 53.24 91.61 50.93 91.61 49.91 95.61 52.22 95.61 53.24"/><polygon class="cls-7" points="99.61 55.55 95.61 53.24 95.61 52.22 99.61 54.53 99.61 55.55"/><polygon class="cls-7" points="103.61 57.86 99.61 55.55 99.61 54.53 103.61 56.84 103.61 57.86"/><polygon class="cls-7" points="107.61 60.17 103.61 57.86 103.61 56.84 107.61 59.15 107.61 60.17"/><polygon class="cls-7" points="110.86 62.04 107.61 60.17 107.61 59.15 110.86 61.02 110.86 62.04"/><polygon class="cls-7" points="93.84 51.2 91.61 49.91 91.61 48.89 93.84 50.17 93.84 51.2"/><polygon class="cls-7" points="97.84 53.5 93.84 51.2 93.84 50.17 97.84 52.48 97.84 53.5"/><polygon class="cls-6" points="101.84 55.81 97.84 53.5 97.84 52.48 101.84 54.79 101.84 55.81"/><polygon class="cls-7" points="105.84 58.12 101.84 55.81 101.84 54.79 105.84 57.1 105.84 58.12"/><polygon class="cls-8" points="109.84 60.43 105.84 58.12 105.84 57.1 109.84 59.41 109.84 60.43"/><polygon class="cls-7" points="110.86 61.02 109.42 60.19 109.42 59.17 110.86 60 110.86 61.02"/><polygon class="cls-7" points="95.61 51.2 91.61 48.89 91.61 47.87 95.61 50.18 95.61 51.2"/><polygon class="cls-7" points="99.61 53.51 95.61 51.2 95.61 50.18 99.61 52.49 99.61 53.51"/><polygon class="cls-7" points="103.61 55.82 99.61 53.51 99.61 52.49 103.61 54.8 103.61 55.82"/><polygon class="cls-7" points="107.61 58.13 103.61 55.82 103.61 54.8 107.61 57.1 107.61 58.13"/><polygon class="cls-6" points="110.86 60 107.61 58.13 107.61 57.1 110.86 58.98 110.86 60"/><polygon class="cls-8" points="93.84 49.15 91.61 47.87 91.61 46.85 93.84 48.13 93.84 49.15"/><polygon class="cls-7" points="97.84 51.46 93.84 49.15 93.84 48.13 97.84 50.44 97.84 51.46"/><polygon class="cls-7" points="101.84 53.77 97.84 51.46 97.84 50.44 101.84 52.75 101.84 53.77"/><polygon class="cls-7" points="105.84 56.08 101.84 53.77 101.84 52.75 105.84 55.06 105.84 56.08"/><polygon class="cls-7" points="109.84 58.39 105.84 56.08 105.84 55.06 109.84 57.37 109.84 58.39"/><polygon class="cls-7" points="110.86 58.98 109.42 58.15 109.42 57.13 110.86 57.96 110.86 58.98"/><polygon class="cls-7" points="95.61 49.16 91.61 46.85 91.61 45.83 95.61 48.14 95.61 49.16"/><polygon class="cls-7" points="99.61 51.47 95.61 49.16 95.61 48.14 99.61 50.45 99.61 51.47"/><polygon class="cls-7" points="103.61 53.78 99.61 51.47 99.61 50.45 103.61 52.76 103.61 53.78"/><polygon class="cls-8" points="107.61 56.09 103.61 53.78 103.61 52.76 107.61 55.06 107.61 56.09"/><polygon class="cls-7" points="110.86 57.96 107.61 56.09 107.61 55.06 110.86 56.94 110.86 57.96"/><polygon class="cls-7" points="93.84 47.11 91.61 45.83 91.61 44.81 93.84 46.09 93.84 47.11"/><polygon class="cls-7" points="97.84 49.42 93.84 47.11 93.84 46.09 97.84 48.4 97.84 49.42"/><polygon class="cls-8" points="101.84 51.73 97.84 49.42 97.84 48.4 101.84 50.71 101.84 51.73"/><polygon class="cls-7" points="105.84 54.04 101.84 51.73 101.84 50.71 105.84 53.02 105.84 54.04"/><polygon class="cls-7" points="109.84 56.35 105.84 54.04 105.84 53.02 109.84 55.33 109.84 56.35"/><polygon class="cls-8" points="110.86 56.94 109.42 56.11 109.42 55.09 110.86 55.92 110.86 56.94"/><polygon class="cls-9" points="110.86 55.92 110.81 72.22 42.84 32.98 42.89 16.67 110.86 55.92"/></g><g class="cls-1"><polygon class="cls-2" points="136.59 40.06 110.84 55.02 41.45 14.96 67.2 0 136.59 40.06"/><polygon class="cls-3" points="67.23 3.48 67.23 26.38 49.17 15.95 47.44 14.95 67.21 3.47 67.23 3.48"/><polygon class="cls-4" points="130.6 40.07 128.87 41.07 110.84 51.56 67.23 26.38 67.23 3.48 130.6 40.07"/><polygon class="cls-10" points="128.87 41.07 110.84 51.56 49.17 15.95 67.21 5.47 128.87 41.07"/><line class="cls-11" x1="60.84" y1="17" x2="58.84" y2="15.84"/><line class="cls-12" x1="116.52" y1="39.25" x2="113.56" y2="37.55"/><line class="cls-11" x1="105.66" y1="44.69" x2="104.36" y2="43.94"/><line class="cls-12" x1="97.61" y1="34.25" x2="94.65" y2="32.54"/><line class="cls-12" x1="76.18" y1="17.17" x2="73.22" y2="15.47"/><line class="cls-11" x1="77.45" y1="27.31" x2="75.75" y2="26.32"/><line class="cls-11" x1="92.2" y1="25.84" x2="89.25" y2="24.14"/><polygon class="cls-3" points="136.59 40.06 136.58 41.69 110.84 56.65 110.84 55.02 136.59 40.06"/><polygon class="cls-4" points="110.84 55.02 110.84 56.65 41.45 16.59 41.45 14.96 110.84 55.02"/></g><g class="cls-1"><polygon class="cls-2" points="109.11 27.63 88.76 39.46 87.03 38.46 107.39 26.63 109.11 27.63"/><polygon class="cls-3" points="109.11 27.63 109.11 29.26 88.75 41.09 88.76 39.46 109.11 27.63"/><polygon class="cls-13" points="88.76 39.46 88.75 41.09 87.03 40.09 87.03 38.46 88.76 39.46"/></g><g class="cls-1"><polygon class="cls-2" points="86.68 14.91 66.32 26.74 64.6 25.75 84.95 13.92 86.68 14.91"/><polygon class="cls-3" points="86.68 14.91 86.67 16.54 66.32 28.37 66.32 26.74 86.68 14.91"/><polygon class="cls-13" points="66.32 26.74 66.32 28.37 64.59 27.38 64.6 25.75 66.32 26.74"/></g><polygon class="cls-2" points="92.17 40.79 89.18 42.52 57.43 24.19 60.41 22.45 92.17 40.79"/><g class="cls-1"><path class="cls-14" d="M94.51,44.74l0,23.41a1.26,1.26,0,0,1-.73,1,3.92,3.92,0,0,1-3.56,0,1.28,1.28,0,0,1-.75-1l0-16.06V50.47l0-5.75a1.26,1.26,0,0,0,.74,1.05,4,4,0,0,0,3.57,0,1.39,1.39,0,0,0,.7-.81h0A.51.51,0,0,0,94.51,44.74Z"/><path class="cls-15" d="M94.48,45v5.32a1.23,1.23,0,0,1-.73,1,3.92,3.92,0,0,1-3.56,0,1.38,1.38,0,0,1-.73-.82h0l0-5.75a1.26,1.26,0,0,0,.74,1.05,4,4,0,0,0,3.57,0A1.39,1.39,0,0,0,94.48,45Z"/><path class="cls-2" d="M93.77,43.7a1.09,1.09,0,0,1,0,2.07,3.94,3.94,0,0,1-3.57,0,1.09,1.09,0,0,1,0-2.07A3.94,3.94,0,0,1,93.77,43.7Z"/></g><g class="cls-1"><path class="cls-14" d="M72.53,32.35l0,23.4a1.23,1.23,0,0,1-.74,1,3.86,3.86,0,0,1-3.56,0,1.26,1.26,0,0,1-.75-1l0-16.06V38.08l0-5.75a1.26,1.26,0,0,0,.74,1.05,4,4,0,0,0,3.57,0,1.47,1.47,0,0,0,.71-.82h0A.76.76,0,0,0,72.53,32.35Z"/><path class="cls-15" d="M72.5,32.56v5.32a1.25,1.25,0,0,1-.74,1,3.92,3.92,0,0,1-3.56,0,1.44,1.44,0,0,1-.73-.82h0l0-5.75a1.26,1.26,0,0,0,.74,1.05,4,4,0,0,0,3.57,0A1.47,1.47,0,0,0,72.5,32.56Z"/><path class="cls-2" d="M71.78,31.31c1,.57,1,1.49,0,2.06a3.94,3.94,0,0,1-3.57,0,1.09,1.09,0,0,1,0-2.06A3.88,3.88,0,0,1,71.78,31.31Z"/></g><g class="cls-1"><path class="cls-14" d="M51.25,19.58l0,23.41a1.23,1.23,0,0,1-.73,1,3.94,3.94,0,0,1-3.57,0,1.28,1.28,0,0,1-.75-1l0-16.06V25.31l0-5.75a1.26,1.26,0,0,0,.74,1.05,4,4,0,0,0,3.58,0,1.4,1.4,0,0,0,.7-.81h0A.71.71,0,0,0,51.25,19.58Z"/><path class="cls-15" d="M51.22,19.8v5.32a1.23,1.23,0,0,1-.73,1,3.94,3.94,0,0,1-3.57,0,1.42,1.42,0,0,1-.73-.82h0l0-5.75a1.26,1.26,0,0,0,.74,1.05,4,4,0,0,0,3.58,0A1.4,1.4,0,0,0,51.22,19.8Z"/><path class="cls-2" d="M50.5,18.54a1.09,1.09,0,0,1,0,2.07,3.94,3.94,0,0,1-3.57,0,1.1,1.1,0,0,1,0-2.07A3.94,3.94,0,0,1,50.5,18.54Z"/></g><g class="cls-1"><polygon class="cls-5" points="99.59 63.02 75.25 77.16 7.28 37.92 31.62 23.78 99.59 63.02"/><polygon class="cls-6" points="99.59 63.02 99.54 79.32 75.2 93.47 75.25 77.16 99.59 63.02"/><polygon class="cls-6" points="79.2 91.11 75.2 93.42 75.2 92.4 79.2 90.09 79.2 91.11"/><polygon class="cls-6" points="83.2 88.8 79.2 91.11 79.2 90.09 83.2 87.78 83.2 88.8"/><polygon class="cls-6" points="87.2 86.49 83.2 88.8 83.2 87.78 87.2 85.47 87.2 86.49"/><polygon class="cls-6" points="91.2 84.18 87.2 86.49 87.2 85.47 91.2 83.16 91.2 84.18"/><polygon class="cls-6" points="95.2 81.87 91.2 84.18 91.2 83.16 95.2 80.85 95.2 81.87"/><polygon class="cls-6" points="99.59 79.34 95.2 81.87 95.2 80.85 99.59 78.32 99.59 79.34"/><polygon class="cls-7" points="77.43 91.11 75.21 92.4 75.21 91.38 77.43 90.09 77.43 91.11"/><polygon class="cls-7" points="99.59 78.32 97.82 79.34 97.82 78.32 99.59 77.3 99.59 78.32"/><polygon class="cls-6" points="81.43 88.8 77.43 91.11 77.43 90.09 81.43 87.78 81.43 88.8"/><polygon class="cls-7" points="85.43 86.49 81.43 88.8 81.43 87.78 85.43 85.47 85.43 86.49"/><polygon class="cls-6" points="89.43 84.18 85.43 86.49 85.43 85.47 89.43 83.16 89.43 84.18"/><polygon class="cls-7" points="93.43 81.87 89.43 84.18 89.43 83.16 93.43 80.85 93.43 81.87"/><polygon class="cls-6" points="97.82 79.34 93.43 81.87 93.43 80.85 97.82 78.32 97.82 79.34"/><polygon class="cls-8" points="79.2 89.07 75.2 91.38 75.2 90.36 79.2 88.05 79.2 89.07"/><polygon class="cls-7" points="83.2 86.76 79.2 89.07 79.2 88.05 83.2 85.74 83.2 86.76"/><polygon class="cls-7" points="87.2 84.45 83.2 86.76 83.2 85.74 87.2 83.43 87.2 84.45"/><polygon class="cls-7" points="91.2 82.14 87.2 84.45 87.2 83.43 91.2 81.12 91.2 82.14"/><polygon class="cls-7" points="95.2 79.83 91.2 82.14 91.2 81.12 95.2 78.81 95.2 79.83"/><polygon class="cls-7" points="99.59 77.3 95.2 79.83 95.2 78.81 99.59 76.28 99.59 77.3"/><polygon class="cls-7" points="77.43 89.07 75.21 90.36 75.21 89.34 77.43 88.05 77.43 89.07"/><polygon class="cls-6" points="99.59 76.28 97.82 77.3 97.82 76.28 99.59 75.26 99.59 76.28"/><polygon class="cls-7" points="81.43 86.76 77.43 89.07 77.43 88.05 81.43 85.74 81.43 86.76"/><polygon class="cls-6" points="85.43 84.45 81.43 86.76 81.43 85.74 85.43 83.43 85.43 84.45"/><polygon class="cls-8" points="89.43 82.14 85.43 84.45 85.43 83.43 89.43 81.12 89.43 82.14"/><polygon class="cls-7" points="93.43 79.83 89.43 82.14 89.43 81.12 93.43 78.81 93.43 79.83"/><polygon class="cls-7" points="97.82 77.3 93.43 79.83 93.43 78.81 97.82 76.28 97.82 77.3"/><polygon class="cls-8" points="79.2 87.03 75.2 89.34 75.2 88.32 79.2 86.01 79.2 87.03"/><polygon class="cls-7" points="83.2 84.72 79.2 87.03 79.2 86.01 83.2 83.7 83.2 84.72"/><polygon class="cls-7" points="87.2 82.41 83.2 84.72 83.2 83.7 87.2 81.39 87.2 82.41"/><polygon class="cls-7" points="91.2 80.1 87.2 82.41 87.2 81.39 91.2 79.08 91.2 80.1"/><polygon class="cls-6" points="95.2 77.79 91.2 80.1 91.2 79.08 95.2 76.77 95.2 77.79"/><polygon class="cls-7" points="99.59 75.26 95.2 77.79 95.2 76.77 99.59 74.24 99.59 75.26"/><polygon class="cls-7" points="77.43 87.03 75.21 88.32 75.21 87.3 77.43 86.01 77.43 87.03"/><polygon class="cls-7" points="99.59 74.24 97.82 75.26 97.82 74.24 99.59 73.22 99.59 74.24"/><polygon class="cls-7" points="81.43 84.72 77.43 87.03 77.43 86.01 81.43 83.7 81.43 84.72"/><polygon class="cls-7" points="85.43 82.41 81.43 84.72 81.43 83.7 85.43 81.39 85.43 82.41"/><polygon class="cls-6" points="89.43 80.1 85.43 82.41 85.43 81.39 89.43 79.08 89.43 80.1"/><polygon class="cls-7" points="93.43 77.79 89.43 80.1 89.43 79.08 93.43 76.77 93.43 77.79"/><polygon class="cls-7" points="97.82 75.26 93.43 77.79 93.43 76.77 97.82 74.24 97.82 75.26"/><polygon class="cls-7" points="79.2 84.99 75.2 87.3 75.2 86.28 79.2 83.97 79.2 84.99"/><polygon class="cls-8" points="83.2 82.68 79.2 84.99 79.2 83.97 83.2 81.66 83.2 82.68"/><polygon class="cls-7" points="87.2 80.37 83.2 82.68 83.2 81.66 87.2 79.35 87.2 80.37"/><polygon class="cls-7" points="91.2 78.06 87.2 80.37 87.2 79.35 91.2 77.04 91.2 78.06"/><polygon class="cls-7" points="95.2 75.75 91.2 78.06 91.2 77.04 95.2 74.73 95.2 75.75"/><polygon class="cls-8" points="99.59 73.22 95.2 75.75 95.2 74.73 99.59 72.2 99.59 73.22"/><polygon class="cls-6" points="77.43 84.99 75.21 86.28 75.21 85.25 77.43 83.97 77.43 84.99"/><polygon class="cls-7" points="99.59 72.2 97.82 73.22 97.82 72.2 99.59 71.18 99.59 72.2"/><polygon class="cls-7" points="81.43 82.68 77.43 84.99 77.43 83.97 81.43 81.66 81.43 82.68"/><polygon class="cls-7" points="85.43 80.37 81.43 82.68 81.43 81.66 85.43 79.35 85.43 80.37"/><polygon class="cls-7" points="89.43 78.06 85.43 80.37 85.43 79.35 89.43 77.04 89.43 78.06"/><polygon class="cls-8" points="93.43 75.75 89.43 78.06 89.43 77.04 93.43 74.73 93.43 75.75"/><polygon class="cls-7" points="97.82 73.22 93.43 75.75 93.43 74.73 97.82 72.2 97.82 73.22"/><polygon class="cls-7" points="79.2 82.95 75.2 85.26 75.2 84.24 79.2 81.93 79.2 82.95"/><polygon class="cls-7" points="83.2 80.64 79.2 82.95 79.2 81.93 83.2 79.62 83.2 80.64"/><polygon class="cls-7" points="87.2 78.33 83.2 80.64 83.2 79.62 87.2 77.31 87.2 78.33"/><polygon class="cls-7" points="91.2 76.02 87.2 78.33 87.2 77.31 91.2 75 91.2 76.02"/><polygon class="cls-7" points="95.2 73.71 91.2 76.02 91.2 75 95.2 72.69 95.2 73.71"/><polygon class="cls-7" points="99.59 71.18 95.2 73.71 95.2 72.69 99.59 70.16 99.59 71.18"/><polygon class="cls-7" points="77.43 82.95 75.21 84.23 75.21 83.22 77.43 81.93 77.43 82.95"/><polygon class="cls-7" points="99.59 70.16 97.82 71.18 97.82 70.16 99.59 69.14 99.59 70.16"/><polygon class="cls-6" points="81.43 80.64 77.43 82.95 77.43 81.93 81.43 79.62 81.43 80.64"/><polygon class="cls-8" points="85.43 78.33 81.43 80.64 81.43 79.62 85.43 77.31 85.43 78.33"/><polygon class="cls-6" points="89.43 76.02 85.43 78.33 85.43 77.31 89.43 75 89.43 76.02"/><polygon class="cls-7" points="93.43 73.71 89.43 76.02 89.43 75 93.43 72.69 93.43 73.71"/><polygon class="cls-6" points="97.82 71.18 93.43 73.71 93.43 72.69 97.82 70.16 97.82 71.18"/><polygon class="cls-7" points="79.2 80.91 75.2 83.22 75.2 82.2 79.2 79.89 79.2 80.91"/><polygon class="cls-7" points="83.2 78.6 79.2 80.91 79.2 79.89 83.2 77.58 83.2 78.6"/><polygon class="cls-7" points="87.2 76.29 83.2 78.6 83.2 77.58 87.2 75.27 87.2 76.29"/><polygon class="cls-7" points="91.2 73.98 87.2 76.29 87.2 75.27 91.2 72.96 91.2 73.98"/><polygon class="cls-7" points="95.2 71.67 91.2 73.98 91.2 72.96 95.2 70.65 95.2 71.67"/><polygon class="cls-7" points="99.59 69.14 95.2 71.67 95.2 70.65 99.59 68.12 99.59 69.14"/><polygon class="cls-7" points="77.43 80.91 75.21 82.19 75.21 81.17 77.43 79.89 77.43 80.91"/><polygon class="cls-6" points="99.59 68.12 97.82 69.14 97.82 68.12 99.59 67.1 99.59 68.12"/><polygon class="cls-7" points="81.43 78.6 77.43 80.91 77.43 79.89 81.43 77.58 81.43 78.6"/><polygon class="cls-6" points="85.43 76.29 81.43 78.6 81.43 77.58 85.43 75.27 85.43 76.29"/><polygon class="cls-7" points="89.43 73.98 85.43 76.29 85.43 75.27 89.43 72.96 89.43 73.98"/><polygon class="cls-8" points="93.43 71.67 89.43 73.98 89.43 72.96 93.43 70.65 93.43 71.67"/><polygon class="cls-7" points="97.82 69.14 93.43 71.67 93.43 70.65 97.82 68.12 97.82 69.14"/><polygon class="cls-7" points="79.2 78.87 75.2 81.18 75.2 80.16 79.2 77.85 79.2 78.87"/><polygon class="cls-7" points="83.2 76.56 79.2 78.87 79.2 77.85 83.2 75.54 83.2 76.56"/><polygon class="cls-7" points="87.2 74.25 83.2 76.56 83.2 75.54 87.2 73.23 87.2 74.25"/><polygon class="cls-7" points="91.2 71.94 87.2 74.25 87.2 73.23 91.2 70.92 91.2 71.94"/><polygon class="cls-6" points="95.2 69.63 91.2 71.94 91.2 70.92 95.2 68.61 95.2 69.63"/><polygon class="cls-7" points="99.59 67.1 95.2 69.63 95.2 68.61 99.59 66.08 99.59 67.1"/><polygon class="cls-8" points="77.43 78.87 75.21 80.15 75.21 79.13 77.43 77.85 77.43 78.87"/><polygon class="cls-8" points="99.59 66.08 97.82 67.1 97.82 66.08 99.59 65.06 99.59 66.08"/><polygon class="cls-7" points="81.43 76.56 77.43 78.87 77.43 77.85 81.43 75.54 81.43 76.56"/><polygon class="cls-7" points="85.43 74.25 81.43 76.56 81.43 75.54 85.43 73.23 85.43 74.25"/><polygon class="cls-7" points="89.43 71.94 85.43 74.25 85.43 73.23 89.43 70.92 89.43 71.94"/><polygon class="cls-7" points="93.43 69.63 89.43 71.94 89.43 70.92 93.43 68.61 93.43 69.63"/><polygon class="cls-7" points="97.82 67.1 93.43 69.63 93.43 68.61 97.82 66.08 97.82 67.1"/><polygon class="cls-7" points="79.2 76.83 75.2 79.14 75.2 78.12 79.2 75.81 79.2 76.83"/><polygon class="cls-7" points="83.2 74.52 79.2 76.83 79.2 75.81 83.2 73.5 83.2 74.52"/><polygon class="cls-7" points="87.2 72.21 83.2 74.52 83.2 73.5 87.2 71.19 87.2 72.21"/><polygon class="cls-8" points="91.2 69.9 87.2 72.21 87.2 71.19 91.2 68.88 91.2 69.9"/><polygon class="cls-7" points="95.2 67.59 91.2 69.9 91.2 68.88 95.2 66.57 95.2 67.59"/><polygon class="cls-7" points="99.59 65.06 95.2 67.59 95.2 66.57 99.59 64.04 99.59 65.06"/><polygon class="cls-7" points="77.43 76.83 75.21 78.11 75.21 77.09 77.43 75.81 77.43 76.83"/><polygon class="cls-7" points="99.59 64.04 97.82 65.06 97.82 64.04 99.59 63.02 99.59 64.04"/><polygon class="cls-7" points="81.43 74.52 77.43 76.83 77.43 75.81 81.43 73.5 81.43 74.52"/><polygon class="cls-8" points="85.43 72.21 81.43 74.52 81.43 73.5 85.43 71.19 85.43 72.21"/><polygon class="cls-7" points="89.43 69.9 85.43 72.21 85.43 71.19 89.43 68.88 89.43 69.9"/><polygon class="cls-7" points="93.43 67.59 89.43 69.9 89.43 68.88 93.43 66.57 93.43 67.59"/><polygon class="cls-8" points="97.82 65.06 93.43 67.59 93.43 66.57 97.82 64.04 97.82 65.06"/><polygon class="cls-6" points="11.23 56.53 7.23 54.22 7.23 53.2 11.23 55.51 11.23 56.53"/><polygon class="cls-6" points="15.23 58.84 11.23 56.53 11.23 55.51 15.23 57.82 15.23 58.84"/><polygon class="cls-6" points="19.23 61.15 15.23 58.84 15.23 57.82 19.23 60.13 19.23 61.15"/><polygon class="cls-6" points="23.23 63.46 19.23 61.15 19.23 60.13 23.23 62.44 23.23 63.46"/><polygon class="cls-6" points="27.23 65.77 23.23 63.46 23.23 62.44 27.23 64.75 27.23 65.77"/><polygon class="cls-6" points="31.62 68.3 27.23 65.77 27.23 64.75 31.62 67.28 31.62 68.3"/><polygon class="cls-7" points="9.46 54.49 7.24 53.2 7.24 52.18 9.46 53.47 9.46 54.49"/><polygon class="cls-7" points="31.62 67.28 29.84 66.26 29.84 65.23 31.62 66.26 31.62 67.28"/><polygon class="cls-6" points="13.46 56.8 9.46 54.49 9.46 53.47 13.46 55.78 13.46 56.8"/><polygon class="cls-7" points="17.46 59.1 13.46 56.8 13.46 55.78 17.46 58.09 17.46 59.1"/><polygon class="cls-6" points="21.46 61.41 17.46 59.1 17.46 58.09 21.46 60.39 21.46 61.41"/><polygon class="cls-7" points="25.46 63.72 21.46 61.41 21.46 60.39 25.46 62.7 25.46 63.72"/><polygon class="cls-6" points="29.84 66.26 25.46 63.72 25.46 62.7 29.84 65.23 29.84 66.26"/><polygon class="cls-8" points="11.23 54.49 7.23 52.18 7.23 51.16 11.23 53.47 11.23 54.49"/><polygon class="cls-7" points="15.23 56.8 11.23 54.49 11.23 53.47 15.23 55.78 15.23 56.8"/><polygon class="cls-7" points="19.23 59.11 15.23 56.8 15.23 55.78 19.23 58.09 19.23 59.11"/><polygon class="cls-7" points="23.23 61.42 19.23 59.11 19.23 58.09 23.23 60.4 23.23 61.42"/><polygon class="cls-7" points="27.23 63.73 23.23 61.42 23.23 60.4 27.23 62.71 27.23 63.73"/><polygon class="cls-7" points="31.62 66.26 27.23 63.73 27.23 62.71 31.62 65.24 31.62 66.26"/><polygon class="cls-7" points="9.46 52.45 7.24 51.16 7.24 50.14 9.46 51.43 9.46 52.45"/><polygon class="cls-6" points="31.62 65.24 29.84 64.22 29.84 63.2 31.62 64.22 31.62 65.24"/><polygon class="cls-7" points="13.46 54.76 9.46 52.45 9.46 51.43 13.46 53.73 13.46 54.76"/><polygon class="cls-6" points="17.46 57.06 13.46 54.76 13.46 53.73 17.46 56.05 17.46 57.06"/><polygon class="cls-8" points="21.46 59.37 17.46 57.06 17.46 56.05 21.46 58.35 21.46 59.37"/><polygon class="cls-7" points="25.46 61.68 21.46 59.37 21.46 58.35 25.46 60.66 25.46 61.68"/><polygon class="cls-7" points="29.84 64.22 25.46 61.68 25.46 60.66 29.84 63.2 29.84 64.22"/><polygon class="cls-8" points="11.23 52.45 7.23 50.14 7.23 49.12 11.23 51.43 11.23 52.45"/><polygon class="cls-7" points="15.23 54.76 11.23 52.45 11.23 51.43 15.23 53.74 15.23 54.76"/><polygon class="cls-7" points="19.23 57.07 15.23 54.76 15.23 53.74 19.23 56.05 19.23 57.07"/><polygon class="cls-7" points="23.23 59.38 19.23 57.07 19.23 56.05 23.23 58.36 23.23 59.38"/><polygon class="cls-6" points="27.23 61.69 23.23 59.38 23.23 58.36 27.23 60.67 27.23 61.69"/><polygon class="cls-7" points="31.62 64.22 27.23 61.69 27.23 60.67 31.62 63.2 31.62 64.22"/><polygon class="cls-7" points="9.46 50.41 7.24 49.12 7.24 48.1 9.46 49.38 9.46 50.41"/><polygon class="cls-7" points="31.62 63.2 29.84 62.17 29.84 61.16 31.62 62.18 31.62 63.2"/><polygon class="cls-7" points="13.46 52.72 9.46 50.41 9.46 49.38 13.46 51.7 13.46 52.72"/><polygon class="cls-7" points="17.46 55.02 13.46 52.72 13.46 51.7 17.46 54 17.46 55.02"/><polygon class="cls-6" points="21.46 57.33 17.46 55.02 17.46 54 21.46 56.31 21.46 57.33"/><polygon class="cls-7" points="25.46 59.64 21.46 57.33 21.46 56.31 25.46 58.62 25.46 59.64"/><polygon class="cls-7" points="29.84 62.17 25.46 59.64 25.46 58.62 29.84 61.16 29.84 62.17"/><polygon class="cls-7" points="11.23 50.41 7.23 48.1 7.23 47.08 11.23 49.39 11.23 50.41"/><polygon class="cls-8" points="15.23 52.72 11.23 50.41 11.23 49.39 15.23 51.7 15.23 52.72"/><polygon class="cls-7" points="19.23 55.03 15.23 52.72 15.23 51.7 19.23 54.01 19.23 55.03"/><polygon class="cls-7" points="23.23 57.34 19.23 55.03 19.23 54.01 23.23 56.32 23.23 57.34"/><polygon class="cls-7" points="27.23 59.65 23.23 57.34 23.23 56.32 27.23 58.63 27.23 59.65"/><polygon class="cls-8" points="31.62 62.18 27.23 59.65 27.23 58.63 31.62 61.16 31.62 62.18"/><polygon class="cls-6" points="9.46 48.37 7.24 47.08 7.24 46.06 9.46 47.34 9.46 48.37"/><polygon class="cls-7" points="31.62 61.16 29.84 60.13 29.84 59.11 31.62 60.14 31.62 61.16"/><polygon class="cls-7" points="13.46 50.67 9.46 48.37 9.46 47.34 13.46 49.66 13.46 50.67"/><polygon class="cls-7" points="17.46 52.98 13.46 50.67 13.46 49.66 17.46 51.96 17.46 52.98"/><polygon class="cls-7" points="21.46 55.29 17.46 52.98 17.46 51.96 21.46 54.27 21.46 55.29"/><polygon class="cls-8" points="25.46 57.6 21.46 55.29 21.46 54.27 25.46 56.58 25.46 57.6"/><polygon class="cls-7" points="29.84 60.13 25.46 57.6 25.46 56.58 29.84 59.11 29.84 60.13"/><polygon class="cls-7" points="11.23 48.37 7.23 46.06 7.23 45.04 11.23 47.35 11.23 48.37"/><polygon class="cls-7" points="15.23 50.68 11.23 48.37 11.23 47.35 15.23 49.66 15.23 50.68"/><polygon class="cls-7" points="19.23 52.99 15.23 50.68 15.23 49.66 19.23 51.97 19.23 52.99"/><polygon class="cls-7" points="23.23 55.3 19.23 52.99 19.23 51.97 23.23 54.28 23.23 55.3"/><polygon class="cls-7" points="27.23 57.6 23.23 55.3 23.23 54.28 27.23 56.59 27.23 57.6"/><polygon class="cls-7" points="31.62 60.14 27.23 57.6 27.23 56.59 31.62 59.12 31.62 60.14"/><polygon class="cls-7" points="9.46 46.33 7.24 45.04 7.24 44.02 9.46 45.3 9.46 46.33"/><polygon class="cls-7" points="31.62 59.12 29.84 58.09 29.84 57.07 31.62 58.1 31.62 59.12"/><polygon class="cls-6" points="13.46 48.63 9.46 46.33 9.46 45.3 13.46 47.61 13.46 48.63"/><polygon class="cls-8" points="17.46 50.94 13.46 48.63 13.46 47.61 17.46 49.92 17.46 50.94"/><polygon class="cls-6" points="21.46 53.25 17.46 50.94 17.46 49.92 21.46 52.23 21.46 53.25"/><polygon class="cls-7" points="25.46 55.56 21.46 53.25 21.46 52.23 25.46 54.54 25.46 55.56"/><polygon class="cls-6" points="29.84 58.09 25.46 55.56 25.46 54.54 29.84 57.07 29.84 58.09"/><polygon class="cls-7" points="11.23 46.33 7.23 44.02 7.23 43 11.23 45.31 11.23 46.33"/><polygon class="cls-7" points="15.23 48.64 11.23 46.33 11.23 45.31 15.23 47.62 15.23 48.64"/><polygon class="cls-7" points="19.23 50.95 15.23 48.64 15.23 47.62 19.23 49.93 19.23 50.95"/><polygon class="cls-7" points="23.23 53.26 19.23 50.95 19.23 49.93 23.23 52.23 23.23 53.26"/><polygon class="cls-7" points="27.23 55.56 23.23 53.26 23.23 52.23 27.23 54.55 27.23 55.56"/><polygon class="cls-7" points="31.62 58.1 27.23 55.56 27.23 54.55 31.62 57.08 31.62 58.1"/><polygon class="cls-7" points="9.46 44.28 7.24 43 7.24 41.98 9.46 43.27 9.46 44.28"/><polygon class="cls-6" points="31.62 57.08 29.84 56.05 29.84 55.03 31.62 56.06 31.62 57.08"/><polygon class="cls-7" points="13.46 46.59 9.46 44.28 9.46 43.27 13.46 45.57 13.46 46.59"/><polygon class="cls-6" points="17.46 48.9 13.46 46.59 13.46 45.57 17.46 47.88 17.46 48.9"/><polygon class="cls-7" points="21.46 51.21 17.46 48.9 17.46 47.88 21.46 50.19 21.46 51.21"/><polygon class="cls-8" points="25.46 53.52 21.46 51.21 21.46 50.19 25.46 52.5 25.46 53.52"/><polygon class="cls-7" points="29.84 56.05 25.46 53.52 25.46 52.5 29.84 55.03 29.84 56.05"/><polygon class="cls-7" points="11.23 44.29 7.23 41.98 7.23 40.96 11.23 43.27 11.23 44.29"/><polygon class="cls-7" points="15.23 46.6 11.23 44.29 11.23 43.27 15.23 45.58 15.23 46.6"/><polygon class="cls-7" points="19.23 48.91 15.23 46.6 15.23 45.58 19.23 47.89 19.23 48.91"/><polygon class="cls-7" points="23.23 51.22 19.23 48.91 19.23 47.89 23.23 50.2 23.23 51.22"/><polygon class="cls-6" points="27.23 53.52 23.23 51.22 23.23 50.2 27.23 52.5 27.23 53.52"/><polygon class="cls-7" points="31.62 56.06 27.23 53.52 27.23 52.5 31.62 55.04 31.62 56.06"/><polygon class="cls-8" points="9.46 42.24 7.24 40.96 7.24 39.94 9.46 41.22 9.46 42.24"/><polygon class="cls-8" points="31.62 55.04 29.84 54.01 29.84 52.99 31.62 54.02 31.62 55.04"/><polygon class="cls-7" points="13.46 44.55 9.46 42.24 9.46 41.22 13.46 43.53 13.46 44.55"/><polygon class="cls-7" points="17.46 46.86 13.46 44.55 13.46 43.53 17.46 45.84 17.46 46.86"/><polygon class="cls-7" points="21.46 49.17 17.46 46.86 17.46 45.84 21.46 48.15 21.46 49.17"/><polygon class="cls-7" points="25.46 51.48 21.46 49.17 21.46 48.15 25.46 50.46 25.46 51.48"/><polygon class="cls-7" points="29.84 54.01 25.46 51.48 25.46 50.46 29.84 52.99 29.84 54.01"/><polygon class="cls-7" points="11.23 42.25 7.23 39.94 7.23 38.92 11.23 41.23 11.23 42.25"/><polygon class="cls-7" points="15.23 44.56 11.23 42.25 11.23 41.23 15.23 43.54 15.23 44.56"/><polygon class="cls-7" points="19.23 46.87 15.23 44.56 15.23 43.54 19.23 45.84 19.23 46.87"/><polygon class="cls-8" points="23.23 49.17 19.23 46.87 19.23 45.84 23.23 48.16 23.23 49.17"/><polygon class="cls-7" points="27.23 51.48 23.23 49.17 23.23 48.16 27.23 50.46 27.23 51.48"/><polygon class="cls-7" points="31.62 54.02 27.23 51.48 27.23 50.46 31.62 53 31.62 54.02"/><polygon class="cls-7" points="9.46 40.2 7.24 38.92 7.24 37.9 9.46 39.18 9.46 40.2"/><polygon class="cls-7" points="31.62 53 29.84 51.97 29.84 50.95 31.62 51.98 31.62 53"/><polygon class="cls-7" points="13.46 42.51 9.46 40.2 9.46 39.18 13.46 41.49 13.46 42.51"/><polygon class="cls-8" points="17.46 44.82 13.46 42.51 13.46 41.49 17.46 43.8 17.46 44.82"/><polygon class="cls-7" points="21.46 47.13 17.46 44.82 17.46 43.8 21.46 46.11 21.46 47.13"/><polygon class="cls-7" points="25.46 49.44 21.46 47.13 21.46 46.11 25.46 48.42 25.46 49.44"/><polygon class="cls-8" points="29.84 51.97 25.46 49.44 25.46 48.42 29.84 50.95 29.84 51.97"/><polygon class="cls-6" points="35.62 70.61 31.62 68.3 31.62 67.28 35.62 69.59 35.62 70.61"/><polygon class="cls-6" points="39.62 72.92 35.62 70.61 35.62 69.59 39.62 71.9 39.62 72.92"/><polygon class="cls-6" points="43.62 75.23 39.62 72.92 39.62 71.9 43.62 74.21 43.62 75.23"/><polygon class="cls-6" points="47.62 77.54 43.62 75.23 43.62 74.21 47.62 76.52 47.62 77.54"/><polygon class="cls-6" points="51.62 79.84 47.62 77.54 47.62 76.52 51.62 78.83 51.62 79.84"/><polygon class="cls-6" points="56 82.38 51.62 79.84 51.62 78.83 56 81.36 56 82.38"/><polygon class="cls-7" points="33.84 68.56 31.62 67.28 31.62 66.26 33.84 67.55 33.84 68.56"/><polygon class="cls-7" points="56 81.36 54.23 80.33 54.23 79.31 56 80.34 56 81.36"/><polygon class="cls-6" points="37.84 70.87 33.84 68.56 33.84 67.55 37.84 69.85 37.84 70.87"/><polygon class="cls-7" points="41.84 73.18 37.84 70.87 37.84 69.85 41.84 72.16 41.84 73.18"/><polygon class="cls-6" points="45.84 75.49 41.84 73.18 41.84 72.16 45.84 74.47 45.84 75.49"/><polygon class="cls-7" points="49.84 77.8 45.84 75.49 45.84 74.47 49.84 76.78 49.84 77.8"/><polygon class="cls-6" points="54.23 80.33 49.84 77.8 49.84 76.78 54.23 79.31 54.23 80.33"/><polygon class="cls-8" points="35.62 68.57 31.62 66.26 31.62 65.24 35.62 67.55 35.62 68.57"/><polygon class="cls-7" points="39.62 70.88 35.62 68.57 35.62 67.55 39.62 69.86 39.62 70.88"/><polygon class="cls-7" points="43.62 73.19 39.62 70.88 39.62 69.86 43.62 72.17 43.62 73.19"/><polygon class="cls-7" points="47.62 75.5 43.62 73.19 43.62 72.17 47.62 74.47 47.62 75.5"/><polygon class="cls-7" points="51.62 77.81 47.62 75.5 47.62 74.47 51.62 76.78 51.62 77.81"/><polygon class="cls-7" points="56 80.34 51.62 77.81 51.62 76.78 56 79.32 56 80.34"/><polygon class="cls-7" points="33.84 66.53 31.62 65.24 31.62 64.22 33.84 65.5 33.84 66.53"/><polygon class="cls-6" points="56 79.32 54.23 78.29 54.23 77.27 56 78.3 56 79.32"/><polygon class="cls-7" points="37.84 68.83 33.84 66.53 33.84 65.5 37.84 67.81 37.84 68.83"/><polygon class="cls-6" points="41.84 71.14 37.84 68.83 37.84 67.81 41.84 70.12 41.84 71.14"/><polygon class="cls-8" points="45.84 73.45 41.84 71.14 41.84 70.12 45.84 72.43 45.84 73.45"/><polygon class="cls-7" points="49.84 75.76 45.84 73.45 45.84 72.43 49.84 74.74 49.84 75.76"/><polygon class="cls-7" points="54.23 78.29 49.84 75.76 49.84 74.74 54.23 77.27 54.23 78.29"/><polygon class="cls-8" points="35.62 66.53 31.62 64.22 31.62 63.2 35.62 65.51 35.62 66.53"/><polygon class="cls-7" points="39.62 68.84 35.62 66.53 35.62 65.51 39.62 67.82 39.62 68.84"/><polygon class="cls-7" points="43.62 71.15 39.62 68.84 39.62 67.82 43.62 70.13 43.62 71.15"/><polygon class="cls-7" points="47.62 73.45 43.62 71.15 43.62 70.13 47.62 72.44 47.62 73.45"/><polygon class="cls-6" points="51.62 75.76 47.62 73.45 47.62 72.44 51.62 74.74 51.62 75.76"/><polygon class="cls-7" points="56 78.3 51.62 75.76 51.62 74.74 56 77.28 56 78.3"/><polygon class="cls-7" points="33.84 64.48 31.62 63.2 31.62 62.18 33.84 63.46 33.84 64.48"/><polygon class="cls-7" points="56 77.28 54.23 76.25 54.23 75.23 56 76.26 56 77.28"/><polygon class="cls-7" points="37.84 66.79 33.84 64.48 33.84 63.46 37.84 65.77 37.84 66.79"/><polygon class="cls-7" points="41.84 69.1 37.84 66.79 37.84 65.77 41.84 68.08 41.84 69.1"/><polygon class="cls-6" points="45.84 71.41 41.84 69.1 41.84 68.08 45.84 70.39 45.84 71.41"/><polygon class="cls-7" points="49.84 73.72 45.84 71.41 45.84 70.39 49.84 72.7 49.84 73.72"/><polygon class="cls-7" points="54.23 76.25 49.84 73.72 49.84 72.7 54.23 75.23 54.23 76.25"/><polygon class="cls-7" points="35.62 64.49 31.62 62.18 31.62 61.16 35.62 63.47 35.62 64.49"/><polygon class="cls-8" points="39.62 66.8 35.62 64.49 35.62 63.47 39.62 65.78 39.62 66.8"/><polygon class="cls-7" points="43.62 69.11 39.62 66.8 39.62 65.78 43.62 68.08 43.62 69.11"/><polygon class="cls-7" points="47.62 71.42 43.62 69.11 43.62 68.08 47.62 70.39 47.62 71.42"/><polygon class="cls-7" points="51.62 73.72 47.62 71.42 47.62 70.39 51.62 72.7 51.62 73.72"/><polygon class="cls-8" points="56 76.26 51.62 73.72 51.62 72.7 56 75.24 56 76.26"/><polygon class="cls-6" points="33.84 62.44 31.62 61.16 31.62 60.14 33.84 61.42 33.84 62.44"/><polygon class="cls-7" points="56 75.24 54.23 74.21 54.23 73.19 56 74.22 56 75.24"/><polygon class="cls-7" points="37.84 64.75 33.84 62.44 33.84 61.42 37.84 63.73 37.84 64.75"/><polygon class="cls-7" points="41.84 67.06 37.84 64.75 37.84 63.73 41.84 66.04 41.84 67.06"/><polygon class="cls-7" points="45.84 69.37 41.84 67.06 41.84 66.04 45.84 68.35 45.84 69.37"/><polygon class="cls-8" points="49.84 71.68 45.84 69.37 45.84 68.35 49.84 70.66 49.84 71.68"/><polygon class="cls-7" points="54.23 74.21 49.84 71.68 49.84 70.66 54.23 73.19 54.23 74.21"/><polygon class="cls-7" points="35.62 62.45 31.62 60.14 31.62 59.12 35.62 61.43 35.62 62.45"/><polygon class="cls-7" points="39.62 64.76 35.62 62.45 35.62 61.43 39.62 63.73 39.62 64.76"/><polygon class="cls-7" points="43.62 67.06 39.62 64.76 39.62 63.73 43.62 66.05 43.62 67.06"/><polygon class="cls-7" points="47.62 69.37 43.62 67.06 43.62 66.05 47.62 68.35 47.62 69.37"/><polygon class="cls-7" points="51.62 71.68 47.62 69.37 47.62 68.35 51.62 70.66 51.62 71.68"/><polygon class="cls-7" points="56 74.22 51.62 71.68 51.62 70.66 56 73.19 56 74.22"/><polygon class="cls-7" points="33.84 60.4 31.62 59.12 31.62 58.1 33.84 59.38 33.84 60.4"/><polygon class="cls-7" points="56 73.19 54.23 72.17 54.23 71.15 56 72.17 56 73.19"/><polygon class="cls-6" points="37.84 62.71 33.84 60.4 33.84 59.38 37.84 61.69 37.84 62.71"/><polygon class="cls-8" points="41.84 65.02 37.84 62.71 37.84 61.69 41.84 64 41.84 65.02"/><polygon class="cls-6" points="45.84 67.33 41.84 65.02 41.84 64 45.84 66.31 45.84 67.33"/><polygon class="cls-7" points="49.84 69.64 45.84 67.33 45.84 66.31 49.84 68.62 49.84 69.64"/><polygon class="cls-6" points="54.23 72.17 49.84 69.64 49.84 68.62 54.23 71.15 54.23 72.17"/><polygon class="cls-7" points="35.62 60.41 31.62 58.1 31.62 57.08 35.62 59.39 35.62 60.41"/><polygon class="cls-7" points="39.62 62.72 35.62 60.41 35.62 59.39 39.62 61.7 39.62 62.72"/><polygon class="cls-7" points="43.62 65.03 39.62 62.72 39.62 61.7 43.62 64 43.62 65.03"/><polygon class="cls-7" points="47.62 67.33 43.62 65.03 43.62 64 47.62 66.31 47.62 67.33"/><polygon class="cls-7" points="51.62 69.64 47.62 67.33 47.62 66.31 51.62 68.62 51.62 69.64"/><polygon class="cls-7" points="56 72.17 51.62 69.64 51.62 68.62 56 71.16 56 72.17"/><polygon class="cls-7" points="33.84 58.36 31.62 57.08 31.62 56.06 33.84 57.34 33.84 58.36"/><polygon class="cls-6" points="56 71.16 54.23 70.13 54.23 69.11 56 70.14 56 71.16"/><polygon class="cls-7" points="37.84 60.67 33.84 58.36 33.84 57.34 37.84 59.65 37.84 60.67"/><polygon class="cls-6" points="41.84 62.98 37.84 60.67 37.84 59.65 41.84 61.96 41.84 62.98"/><polygon class="cls-7" points="45.84 65.29 41.84 62.98 41.84 61.96 45.84 64.27 45.84 65.29"/><polygon class="cls-8" points="49.84 67.6 45.84 65.29 45.84 64.27 49.84 66.58 49.84 67.6"/><polygon class="cls-7" points="54.23 70.13 49.84 67.6 49.84 66.58 54.23 69.11 54.23 70.13"/><polygon class="cls-7" points="35.62 58.37 31.62 56.06 31.62 55.04 35.62 57.34 35.62 58.37"/><polygon class="cls-7" points="39.62 60.67 35.62 58.37 35.62 57.34 39.62 59.66 39.62 60.67"/><polygon class="cls-7" points="43.62 62.98 39.62 60.67 39.62 59.66 43.62 61.96 43.62 62.98"/><polygon class="cls-7" points="47.62 65.29 43.62 62.98 43.62 61.96 47.62 64.27 47.62 65.29"/><polygon class="cls-6" points="51.62 67.6 47.62 65.29 47.62 64.27 51.62 66.58 51.62 67.6"/><polygon class="cls-7" points="56 70.14 51.62 67.6 51.62 66.58 56 69.11 56 70.14"/><polygon class="cls-8" points="33.84 56.32 31.62 55.04 31.62 54.02 33.84 55.3 33.84 56.32"/><polygon class="cls-8" points="56 69.11 54.23 68.09 54.23 67.07 56 68.09 56 69.11"/><polygon class="cls-7" points="37.84 58.63 33.84 56.32 33.84 55.3 37.84 57.61 37.84 58.63"/><polygon class="cls-7" points="41.84 60.94 37.84 58.63 37.84 57.61 41.84 59.92 41.84 60.94"/><polygon class="cls-7" points="45.84 63.25 41.84 60.94 41.84 59.92 45.84 62.23 45.84 63.25"/><polygon class="cls-7" points="49.84 65.56 45.84 63.25 45.84 62.23 49.84 64.54 49.84 65.56"/><polygon class="cls-7" points="54.23 68.09 49.84 65.56 49.84 64.54 54.23 67.07 54.23 68.09"/><polygon class="cls-7" points="35.62 56.33 31.62 54.02 31.62 53 35.62 55.3 35.62 56.33"/><polygon class="cls-7" points="39.62 58.63 35.62 56.33 35.62 55.3 39.62 57.61 39.62 58.63"/><polygon class="cls-7" points="43.62 60.94 39.62 58.63 39.62 57.61 43.62 59.92 43.62 60.94"/><polygon class="cls-8" points="47.62 63.25 43.62 60.94 43.62 59.92 47.62 62.23 47.62 63.25"/><polygon class="cls-7" points="51.62 65.56 47.62 63.25 47.62 62.23 51.62 64.54 51.62 65.56"/><polygon class="cls-7" points="56 68.09 51.62 65.56 51.62 64.54 56 67.07 56 68.09"/><polygon class="cls-7" points="33.84 54.28 31.62 53 31.62 51.98 33.84 53.26 33.84 54.28"/><polygon class="cls-7" points="56 67.07 54.23 66.05 54.23 65.03 56 66.05 56 67.07"/><polygon class="cls-7" points="37.84 56.59 33.84 54.28 33.84 53.26 37.84 55.57 37.84 56.59"/><polygon class="cls-8" points="41.84 58.9 37.84 56.59 37.84 55.57 41.84 57.88 41.84 58.9"/><polygon class="cls-7" points="45.84 61.21 41.84 58.9 41.84 57.88 45.84 60.19 45.84 61.21"/><polygon class="cls-7" points="49.84 63.52 45.84 61.21 45.84 60.19 49.84 62.5 49.84 63.52"/><polygon class="cls-8" points="54.23 66.05 49.84 63.52 49.84 62.5 54.23 65.03 54.23 66.05"/><polygon class="cls-6" points="60 84.69 56 82.38 56 81.36 60 83.67 60 84.69"/><polygon class="cls-6" points="64 87 60 84.69 60 83.67 64 85.97 64 87"/><polygon class="cls-6" points="68 89.31 64 87 64 85.97 68 88.28 68 89.31"/><polygon class="cls-6" points="72 91.61 68 89.31 68 88.28 72 90.59 72 91.61"/><polygon class="cls-6" points="75.25 93.49 72 91.61 72 90.59 75.25 92.47 75.25 93.49"/><polygon class="cls-7" points="58.23 82.64 56.01 81.36 56.01 80.34 58.23 81.62 58.23 82.64"/><polygon class="cls-6" points="62.23 84.95 58.23 82.64 58.23 81.62 62.23 83.93 62.23 84.95"/><polygon class="cls-7" points="66.23 87.26 62.23 84.95 62.23 83.93 66.23 86.24 66.23 87.26"/><polygon class="cls-6" points="70.23 89.57 66.23 87.26 66.23 86.24 70.23 88.55 70.23 89.57"/><polygon class="cls-7" points="74.23 91.88 70.23 89.57 70.23 88.55 74.23 90.86 74.23 91.88"/><polygon class="cls-6" points="75.25 92.47 73.81 91.64 73.81 90.62 75.25 91.45 75.25 92.47"/><polygon class="cls-8" points="60 82.65 56 80.34 56 79.32 60 81.63 60 82.65"/><polygon class="cls-7" points="64 84.95 60 82.65 60 81.63 64 83.94 64 84.95"/><polygon class="cls-7" points="68 87.27 64 84.95 64 83.94 68 86.24 68 87.27"/><polygon class="cls-7" points="72 89.57 68 87.27 68 86.24 72 88.55 72 89.57"/><polygon class="cls-7" points="75.25 91.45 72 89.57 72 88.55 75.25 90.43 75.25 91.45"/><polygon class="cls-7" points="58.23 80.6 56.01 79.32 56.01 78.3 58.23 79.58 58.23 80.6"/><polygon class="cls-7" points="62.23 82.91 58.23 80.6 58.23 79.58 62.23 81.89 62.23 82.91"/><polygon class="cls-6" points="66.23 85.22 62.23 82.91 62.23 81.89 66.23 84.2 66.23 85.22"/><polygon class="cls-8" points="70.23 87.53 66.23 85.22 66.23 84.2 70.23 86.51 70.23 87.53"/><polygon class="cls-7" points="74.23 89.84 70.23 87.53 70.23 86.51 74.23 88.82 74.23 89.84"/><polygon class="cls-7" points="75.25 90.43 73.81 89.6 73.81 88.58 75.25 89.41 75.25 90.43"/><polygon class="cls-8" points="60 80.61 56 78.3 56 77.28 60 79.58 60 80.61"/><polygon class="cls-7" points="64 82.92 60 80.61 60 79.58 64 81.89 64 82.92"/><polygon class="cls-7" points="68 85.22 64 82.92 64 81.89 68 84.2 68 85.22"/><polygon class="cls-7" points="72 87.53 68 85.22 68 84.2 72 86.51 72 87.53"/><polygon class="cls-6" points="75.25 89.41 72 87.53 72 86.51 75.25 88.39 75.25 89.41"/><polygon class="cls-7" points="58.23 78.56 56.01 77.28 56.01 76.26 58.23 77.54 58.23 78.56"/><polygon class="cls-7" points="62.23 80.87 58.23 78.56 58.23 77.54 62.23 79.85 62.23 80.87"/><polygon class="cls-7" points="66.23 83.18 62.23 80.87 62.23 79.85 66.23 82.16 66.23 83.18"/><polygon class="cls-6" points="70.23 85.49 66.23 83.18 66.23 82.16 70.23 84.47 70.23 85.49"/><polygon class="cls-7" points="74.23 87.8 70.23 85.49 70.23 84.47 74.23 86.78 74.23 87.8"/><polygon class="cls-7" points="75.25 88.39 73.81 87.56 73.81 86.54 75.25 87.37 75.25 88.39"/><polygon class="cls-7" points="60 78.56 56 76.26 56 75.24 60 77.55 60 78.56"/><polygon class="cls-8" points="64 80.88 60 78.56 60 77.55 64 79.85 64 80.88"/><polygon class="cls-7" points="68 83.18 64 80.88 64 79.85 68 82.16 68 83.18"/><polygon class="cls-7" points="72 85.49 68 83.18 68 82.16 72 84.47 72 85.49"/><polygon class="cls-7" points="75.25 87.37 72 85.49 72 84.47 75.25 86.35 75.25 87.37"/><polygon class="cls-6" points="58.23 76.52 56.01 75.24 56.01 74.22 58.23 75.5 58.23 76.52"/><polygon class="cls-7" points="62.23 78.83 58.23 76.52 58.23 75.5 62.23 77.81 62.23 78.83"/><polygon class="cls-7" points="66.23 81.14 62.23 78.83 62.23 77.81 66.23 80.12 66.23 81.14"/><polygon class="cls-7" points="70.23 83.45 66.23 81.14 66.23 80.12 70.23 82.43 70.23 83.45"/><polygon class="cls-8" points="74.23 85.76 70.23 83.45 70.23 82.43 74.23 84.74 74.23 85.76"/><polygon class="cls-7" points="75.25 86.35 73.81 85.52 73.81 84.5 75.25 85.33 75.25 86.35"/><polygon class="cls-7" points="60 76.53 56 74.22 56 73.19 60 75.5 60 76.53"/><polygon class="cls-7" points="64 78.83 60 76.53 60 75.5 64 77.81 64 78.83"/><polygon class="cls-7" points="68 81.14 64 78.83 64 77.81 68 80.12 68 81.14"/><polygon class="cls-7" points="72 83.45 68 81.14 68 80.12 72 82.43 72 83.45"/><polygon class="cls-7" points="75.25 85.33 72 83.45 72 82.43 75.25 84.31 75.25 85.33"/><polygon class="cls-7" points="58.23 74.48 56.01 73.2 56.01 72.18 58.23 73.46 58.23 74.48"/><polygon class="cls-6" points="62.23 76.79 58.23 74.48 58.23 73.46 62.23 75.77 62.23 76.79"/><polygon class="cls-8" points="66.23 79.1 62.23 76.79 62.23 75.77 66.23 78.08 66.23 79.1"/><polygon class="cls-6" points="70.23 81.41 66.23 79.1 66.23 78.08 70.23 80.39 70.23 81.41"/><polygon class="cls-7" points="74.23 83.72 70.23 81.41 70.23 80.39 74.23 82.7 74.23 83.72"/><polygon class="cls-6" points="75.25 84.31 73.81 83.48 73.81 82.46 75.25 83.29 75.25 84.31"/><polygon class="cls-7" points="60 74.48 56 72.17 56 71.16 60 73.46 60 74.48"/><polygon class="cls-7" points="64 76.79 60 74.48 60 73.46 64 75.77 64 76.79"/><polygon class="cls-7" points="68 79.1 64 76.79 64 75.77 68 78.08 68 79.1"/><polygon class="cls-7" points="72 81.41 68 79.1 68 78.08 72 80.39 72 81.41"/><polygon class="cls-7" points="75.25 83.29 72 81.41 72 80.39 75.25 82.27 75.25 83.29"/><polygon class="cls-7" points="58.23 72.44 56.01 71.16 56.01 70.14 58.23 71.42 58.23 72.44"/><polygon class="cls-7" points="62.23 74.75 58.23 72.44 58.23 71.42 62.23 73.73 62.23 74.75"/><polygon class="cls-6" points="66.23 77.06 62.23 74.75 62.23 73.73 66.23 76.04 66.23 77.06"/><polygon class="cls-7" points="70.23 79.37 66.23 77.06 66.23 76.04 70.23 78.35 70.23 79.37"/><polygon class="cls-8" points="74.23 81.68 70.23 79.37 70.23 78.35 74.23 80.66 74.23 81.68"/><polygon class="cls-7" points="75.25 82.27 73.81 81.44 73.81 80.42 75.25 81.25 75.25 82.27"/><polygon class="cls-7" points="60 72.44 56 70.14 56 69.11 60 71.42 60 72.44"/><polygon class="cls-7" points="64 74.75 60 72.44 60 71.42 64 73.73 64 74.75"/><polygon class="cls-7" points="68 77.06 64 74.75 64 73.73 68 76.04 68 77.06"/><polygon class="cls-7" points="72 79.37 68 77.06 68 76.04 72 78.35 72 79.37"/><polygon class="cls-6" points="75.25 81.25 72 79.37 72 78.35 75.25 80.23 75.25 81.25"/><polygon class="cls-8" points="58.23 70.4 56.01 69.12 56.01 68.1 58.23 69.38 58.23 70.4"/><polygon class="cls-7" points="62.23 72.71 58.23 70.4 58.23 69.38 62.23 71.69 62.23 72.71"/><polygon class="cls-7" points="66.23 75.02 62.23 72.71 62.23 71.69 66.23 74 66.23 75.02"/><polygon class="cls-7" points="70.23 77.33 66.23 75.02 66.23 74 70.23 76.31 70.23 77.33"/><polygon class="cls-7" points="74.23 79.64 70.23 77.33 70.23 76.31 74.23 78.62 74.23 79.64"/><polygon class="cls-7" points="75.25 80.23 73.81 79.4 73.81 78.38 75.25 79.21 75.25 80.23"/><polygon class="cls-7" points="60 70.4 56 68.09 56 67.07 60 69.38 60 70.4"/><polygon class="cls-7" points="64 72.71 60 70.4 60 69.38 64 71.69 64 72.71"/><polygon class="cls-7" points="68 75.02 64 72.71 64 71.69 68 74 68 75.02"/><polygon class="cls-8" points="72 77.33 68 75.02 68 74 72 76.31 72 77.33"/><polygon class="cls-7" points="75.25 79.21 72 77.33 72 76.31 75.25 78.19 75.25 79.21"/><polygon class="cls-7" points="58.23 68.36 56.01 67.08 56.01 66.06 58.23 67.34 58.23 68.36"/><polygon class="cls-7" points="62.23 70.67 58.23 68.36 58.23 67.34 62.23 69.65 62.23 70.67"/><polygon class="cls-8" points="66.23 72.98 62.23 70.67 62.23 69.65 66.23 71.96 66.23 72.98"/><polygon class="cls-7" points="70.23 75.29 66.23 72.98 66.23 71.96 70.23 74.27 70.23 75.29"/><polygon class="cls-7" points="74.23 77.6 70.23 75.29 70.23 74.27 74.23 76.58 74.23 77.6"/><polygon class="cls-8" points="75.25 78.19 73.81 77.36 73.81 76.34 75.25 77.17 75.25 78.19"/><polygon class="cls-16" points="75.25 77.16 75.2 93.47 7.23 54.22 7.28 37.92 75.25 77.16"/></g><g class="cls-1"><polygon class="cls-2" points="100.98 61.31 75.23 76.27 5.84 36.21 31.59 21.25 100.98 61.31"/><polygon class="cls-3" points="31.62 24.72 31.62 47.62 13.56 37.19 11.83 36.19 31.6 24.71 31.62 24.72"/><polygon class="cls-4" points="94.99 61.31 93.26 62.31 75.23 72.8 31.62 47.62 31.62 24.72 94.99 61.31"/><polygon class="cls-10" points="93.26 62.32 75.23 72.81 13.56 37.2 31.6 26.72 93.26 62.32"/><line class="cls-11" x1="25.23" y1="38.24" x2="23.23" y2="37.09"/><line class="cls-12" x1="80.91" y1="60.5" x2="77.96" y2="58.79"/><line class="cls-11" x1="70.05" y1="65.94" x2="68.75" y2="65.19"/><line class="cls-12" x1="62" y1="55.49" x2="59.05" y2="53.79"/><line class="cls-12" x1="40.57" y1="38.42" x2="37.62" y2="36.71"/><line class="cls-11" x1="41.85" y1="48.55" x2="40.14" y2="47.57"/><line class="cls-11" x1="56.59" y1="47.09" x2="53.64" y2="45.39"/><polygon class="cls-3" points="100.98 61.31 100.97 62.94 75.23 77.9 75.23 76.27 100.98 61.31"/><polygon class="cls-4" points="75.23 76.27 75.23 77.9 5.84 37.84 5.84 36.21 75.23 76.27"/></g><g class="cls-1"><polygon class="cls-2" points="73.5 48.88 53.15 60.7 51.42 59.71 71.78 47.88 73.5 48.88"/><polygon class="cls-3" points="73.5 48.88 73.5 50.51 53.14 62.33 53.15 60.7 73.5 48.88"/><polygon class="cls-13" points="53.15 60.7 53.14 62.33 51.42 61.34 51.42 59.71 53.15 60.7"/></g><g class="cls-1"><polygon class="cls-2" points="51.07 36.16 30.71 47.99 28.99 46.99 49.34 35.16 51.07 36.16"/><polygon class="cls-3" points="51.07 36.16 51.06 37.79 30.71 49.62 30.71 47.99 51.07 36.16"/><polygon class="cls-13" points="30.71 47.99 30.71 49.62 28.98 48.62 28.99 46.99 30.71 47.99"/></g><polygon class="cls-2" points="56.56 62.04 53.57 63.77 21.82 45.44 24.8 43.7 56.56 62.04"/><g class="cls-1"><path class="cls-17" d="M82.92,57l0,.92a1.41,1.41,0,0,1-.82,1.15,4.41,4.41,0,0,1-4,0,1.41,1.41,0,0,1-.84-1.16l0-.92a1.4,1.4,0,0,0,.83,1.16,4.41,4.41,0,0,0,4,0A1.38,1.38,0,0,0,82.92,57Z"/><path class="cls-18" d="M82.08,55.87c1.11.64,1.12,1.67,0,2.31a4.41,4.41,0,0,1-4,0,1.22,1.22,0,0,1,0-2.31A4.39,4.39,0,0,1,82.08,55.87Z"/></g><g class="cls-1"><path class="cls-17" d="M107.21,43.33l0,.91a1.41,1.41,0,0,1-.82,1.15,4.41,4.41,0,0,1-4,0,1.38,1.38,0,0,1-.83-1.16l0-.92a1.4,1.4,0,0,0,.83,1.16,4.41,4.41,0,0,0,4,0A1.38,1.38,0,0,0,107.21,43.33Z"/><path class="cls-18" d="M106.37,42.16c1.11.64,1.12,1.67,0,2.31a4.41,4.41,0,0,1-4,0,1.22,1.22,0,0,1,0-2.31A4.39,4.39,0,0,1,106.37,42.16Z"/></g><path class="cls-19" d="M106.6,41.59a5.39,5.39,0,0,0-.09-1,4.26,4.26,0,0,0-.26-.88,3.88,3.88,0,0,0-1.71-2,5.05,5.05,0,0,0-5.1.33L82.67,47.7a10,10,0,0,0-4.89,7.88v1.07a1.26,1.26,0,0,0,.76,1.18,3.41,3.41,0,0,0,3.11,0,1.25,1.25,0,0,0,.67-1.25c0-.32,0-1,0-1A5.61,5.61,0,0,1,85,51.65L101.72,42a2.38,2.38,0,0,1,.32-.16v.94a1.38,1.38,0,0,0,.79,1.31,3.43,3.43,0,0,0,3.12,0,1.32,1.32,0,0,0,.66-1.3c0-.31,0-.53,0-.82Z"/><g class="cls-1"><path class="cls-17" d="M60.93,44.64l0,.92a1.39,1.39,0,0,1-.82,1.15,4.41,4.41,0,0,1-4,0,1.41,1.41,0,0,1-.83-1.17l0-.91a1.42,1.42,0,0,0,.83,1.16,4.41,4.41,0,0,0,4,0A1.39,1.39,0,0,0,60.93,44.64Z"/><path class="cls-18" d="M60.1,43.48a1.22,1.22,0,0,1,0,2.31,4.41,4.41,0,0,1-4,0,1.22,1.22,0,0,1,0-2.31A4.41,4.41,0,0,1,60.1,43.48Z"/></g><g class="cls-1"><path class="cls-17" d="M85.22,30.93l0,.92A1.39,1.39,0,0,1,84.36,33a4.41,4.41,0,0,1-4,0,1.42,1.42,0,0,1-.83-1.17l0-.91a1.42,1.42,0,0,0,.83,1.16,4.41,4.41,0,0,0,4,0A1.39,1.39,0,0,0,85.22,30.93Z"/><path class="cls-18" d="M84.39,29.77a1.22,1.22,0,0,1,0,2.31,4.41,4.41,0,0,1-4,0,1.22,1.22,0,0,1,0-2.31A4.41,4.41,0,0,1,84.39,29.77Z"/></g><path class="cls-19" d="M84.62,29.2a4.65,4.65,0,0,0-.1-1,4.24,4.24,0,0,0-.25-.88,4,4,0,0,0-1.71-2,5.1,5.1,0,0,0-5.11.34L60.68,35.31a10,10,0,0,0-4.88,7.87v1.08a1.26,1.26,0,0,0,.76,1.18,3.41,3.41,0,0,0,3.11,0,1.28,1.28,0,0,0,.67-1.25c0-.32,0-1,0-1A5.67,5.67,0,0,1,63,39.25l16.77-9.66.33-.17v.94a1.4,1.4,0,0,0,.79,1.32,3.41,3.41,0,0,0,3.11,0,1.32,1.32,0,0,0,.67-1.31c0-.3,0-.52,0-.81Z"/><g class="cls-1"><path class="cls-17" d="M39.65,31.88l0,.91a1.38,1.38,0,0,1-.82,1.15,4.41,4.41,0,0,1-4,0A1.42,1.42,0,0,1,34,32.78l0-.92A1.42,1.42,0,0,0,34.83,33a4.41,4.41,0,0,0,4,0A1.38,1.38,0,0,0,39.65,31.88Z"/><path class="cls-18" d="M38.82,30.71a1.22,1.22,0,0,1,0,2.31,4.41,4.41,0,0,1-4,0,1.22,1.22,0,0,1,0-2.31A4.41,4.41,0,0,1,38.82,30.71Z"/></g><g class="cls-1"><path class="cls-17" d="M63.94,18.17l0,.92a1.38,1.38,0,0,1-.82,1.14,4.41,4.41,0,0,1-4,0,1.42,1.42,0,0,1-.83-1.16l0-.92a1.44,1.44,0,0,0,.84,1.17,4.42,4.42,0,0,0,4,0A1.4,1.4,0,0,0,63.94,18.17Z"/><path class="cls-18" d="M63.11,17a1.23,1.23,0,0,1,0,2.32,4.42,4.42,0,0,1-4,0,1.23,1.23,0,0,1,0-2.32A4.41,4.41,0,0,1,63.11,17Z"/></g><path class="cls-19" d="M63.34,16.43a4.49,4.49,0,0,0-.1-1,4.17,4.17,0,0,0-.25-.89,4,4,0,0,0-1.71-2,5.07,5.07,0,0,0-5.11.33L39.4,22.54a10,10,0,0,0-4.88,7.88v1.07a1.27,1.27,0,0,0,.76,1.19,3.47,3.47,0,0,0,3.11,0,1.28,1.28,0,0,0,.67-1.25c0-.33,0-1,0-1a5.63,5.63,0,0,1,2.6-3.93l16.77-9.66a1.74,1.74,0,0,1,.33-.17v.94a1.41,1.41,0,0,0,.79,1.32,3.47,3.47,0,0,0,3.11,0,1.33,1.33,0,0,0,.67-1.31c0-.31,0-.53,0-.81Z"/></g></g></g></g></svg>