<svg xmlns="http://www.w3.org/2000/svg" viewBox="0 0 150 91.33"><defs><style>.cls-1{isolation:isolate;}.cls-2{fill:#fff;}.cls-3{fill:#7a8799;}.cls-4{fill:#c3ccd9;}.cls-5{fill:#6ee7ff;}.cls-6,.cls-7{fill:none;stroke:#fff;stroke-linecap:round;stroke-miterlimit:10;}.cls-7{opacity:0.6;}.cls-8{fill:#475466;}.cls-9{fill:#7b8799;}.cls-10{fill:#2ea8e6;}.cls-11{fill:#dce1e6;}.cls-12{fill:#15d1d1;}.cls-13{fill:#cfdbe6;}.cls-14{fill:#0f8299;}.cls-15{opacity:0.2;}</style></defs><title>Pool（水池3）</title><g id="图层_2" data-name="图层 2"><g id="风格1"><g id="Pool_水池3_" data-name="Pool（水池3）"><g class="cls-1"><polygon class="cls-2" points="150 44.34 75.25 87.78 0.02 44.34 74.77 0.91 150 44.34"/><polygon class="cls-3" points="150 44.34 149.98 47.9 75.23 91.33 75.25 87.78 150 44.34"/><polygon class="cls-4" points="75.25 87.78 75.23 91.33 0 47.9 0.02 44.34 75.25 87.78"/></g><path id="水" class="cls-5" d="M92.86,15.78a9.46,9.46,0,0,1-4.37,4.52,27.63,27.63,0,0,1-13.41,3.17,27.77,27.77,0,0,1-13.45-3.18,9.45,9.45,0,0,1-4.45-4.61,9.49,9.49,0,0,1,4.36-4.5A27.52,27.52,0,0,1,75,8,27.66,27.66,0,0,1,88.4,11.19,9.58,9.58,0,0,1,92.86,15.78Z"/><g id="水流"><line class="cls-6" x1="67.96" y1="13.19" x2="70.77" y2="13.19"/><line class="cls-6" x1="81.85" y1="16" x2="84.67" y2="16"/><line class="cls-6" x1="66.32" y1="19.72" x2="67.69" y2="19.72"/><line class="cls-7" x1="74.59" y1="18.09" x2="76.68" y2="18.09"/><line class="cls-7" x1="63.42" y1="16.18" x2="65.51" y2="16.18"/><line class="cls-7" x1="80.49" y1="11.37" x2="82.58" y2="11.37"/><line class="cls-7" x1="81.38" y1="20.11" x2="83.47" y2="20.11"/></g><g class="cls-1"><path class="cls-4" d="M93.14,14.27a4.24,4.24,0,0,1-.28,1.51,9.58,9.58,0,0,0-4.46-4.59A27.66,27.66,0,0,0,75,8a27.52,27.52,0,0,0-13.41,3.18,9.49,9.49,0,0,0-4.36,4.5,4.1,4.1,0,0,1-.29-1.48c0-2.11,1.69-4.3,4.65-6A27.52,27.52,0,0,1,75,5,27.66,27.66,0,0,1,88.4,8.19C91.41,9.92,93.13,12.14,93.14,14.27Z"/><g class="cls-1"><path class="cls-8" d="M85.85,9.83c-.36-.21-.74-.4-1.12-.59l-.4-.17c-.23-.1-.45-.21-.69-.3l-.09,0c-.53-.21-1.08-.39-1.64-.56l-.13,0-.4-.1-1-.23a1.83,1.83,0,0,0-.25-.06l-.39-.07L79,7.54l-.33-.06-.37,0-.77-.09-.36,0-.35,0-.78,0-.39,0H73.79l-1.05.07-.42,0-.12,0c-.6.06-1.18.14-1.76.24l-.09,0-.49.1L69,7.91l-.61.17-.79.22-.17,0-.28.11q-.61.21-1.2.45l-.44.19a13.87,13.87,0,0,0-1.44.73l-.19.11c-.14.08-.26.18-.4.27l-.55.36-.43.34L62,11.3l-.09.08c-.2.18-.38.37-.56.56l-.1.12L61,12.4l-.11.16q-.2.27-.36.54a1.7,1.7,0,0,0-.15.22l-.06.12c-.08.16-.15.32-.22.48a2.39,2.39,0,0,0-.13.28.32.32,0,0,0,0,.09,4.12,4.12,0,0,0-.13.47c0,.1-.07.2-.09.3a.28.28,0,0,0,0,.09c0,.16,0,.32-.06.49s0,.21,0,.31a.66.66,0,0,0,0,.14v.81c0-.15,0-.3,0-.45a4.36,4.36,0,0,1,.06-.49c0-.13.06-.26.09-.39a4,4,0,0,1,.14-.46c0-.13.1-.25.15-.38a5.24,5.24,0,0,1,.23-.48c.06-.11.14-.22.21-.34a4.5,4.5,0,0,1,.36-.53,5.93,5.93,0,0,1,.4-.51l.1-.12c.2-.21.42-.43.65-.64l.47-.38.43-.34c.17-.13.36-.25.55-.37s.38-.26.58-.38c.46-.26,1-.5,1.45-.73L66,9.73c.39-.17.79-.32,1.2-.46.15,0,.3-.11.45-.15l.79-.23L69,8.73c.28-.07.56-.13.85-.18s.38-.09.58-.12c.58-.1,1.16-.18,1.75-.25l.55,0c.35,0,.7-.06,1.05-.07l.66,0c.29,0,.57,0,.85,0l.7,0,.79,0c.24,0,.47,0,.71.06l.77.08.69.1.82.14.64.13q.48.11,1,.24L81.9,9c.57.16,1.12.35,1.65.55l.78.33c.13.06.27.11.4.18.38.18.76.37,1.12.58,3,1.75,4.54,4,4.53,6.35v-.82C90.39,13.88,88.88,11.58,85.85,9.83Z"/><path class="cls-9" d="M86.46,9.47c-6.36-3.67-16.67-3.67-23,0s-6.29,9.65.08,13.33,16.68,3.67,23,0S92.82,13.15,86.46,9.47Zm-.54,13c-6,3.48-15.75,3.48-21.77,0s-6.06-9.14-.07-12.61,15.75-3.48,21.77,0S91.9,19,85.92,22.44Z"/><path class="cls-8" d="M91.22,16.66c0,.17,0,.34-.06.51s-.07.28-.11.42-.08.32-.14.49-.11.26-.16.39-.15.34-.24.51l-.22.36c-.12.19-.24.38-.38.57a6.67,6.67,0,0,1-.43.53l-.11.13c-.21.23-.44.45-.68.67s-.33.27-.5.41l-.45.36-.58.39c-.21.13-.4.27-.62.4-.49.28-1,.53-1.53.77l-.46.2c-.42.17-.84.33-1.27.48l-.48.16c-.27.09-.55.16-.83.24l-.64.17-.9.19-.62.13c-.61.1-1.22.19-1.85.25l-.57.05-1.11.08-.7,0h-.9l-.74,0-.83,0-.75-.07c-.28,0-.55-.05-.82-.09l-.73-.1L70,25.07l-.67-.14c-.35-.07-.68-.16-1-.25l-.55-.14c-.6-.18-1.18-.37-1.74-.59l-.82-.35-.42-.18c-.41-.2-.81-.4-1.19-.62-3.2-1.85-4.8-4.28-4.8-6.71v.82c0,2.42,1.59,4.85,4.8,6.7.38.22.78.43,1.19.62l.41.19.73.31.09,0c.57.22,1.15.42,1.75.59l.13,0,.42.1,1,.25.27.06.41.07c.29.06.57.11.86.15l.34.06.39.05.81.09.39,0,.37,0,.83,0,.41,0H76l.26,0c.37,0,.74,0,1.11-.07l.44,0,.13,0c.62-.07,1.24-.15,1.85-.26h.1l.52-.11.89-.19.65-.18.83-.23.18-.06.29-.11a12.8,12.8,0,0,0,1.27-.48l.47-.2a15.62,15.62,0,0,0,1.53-.77l.19-.11.42-.29c.2-.12.4-.25.58-.38s.31-.24.46-.36l.5-.41.1-.08c.21-.2.4-.4.58-.6l.11-.13c.11-.12.22-.24.31-.36a1,1,0,0,0,.12-.17c.14-.18.26-.37.38-.56l.16-.24a1.39,1.39,0,0,1,.06-.13,4.52,4.52,0,0,0,.23-.5c.05-.1.1-.2.14-.3l0-.1a3.94,3.94,0,0,0,.14-.49c0-.11.07-.21.09-.32s0-.06,0-.09a4.57,4.57,0,0,0,0-.52c0-.11,0-.22,0-.33v-1C91.26,16.34,91.23,16.5,91.22,16.66Z"/></g><path class="cls-2" d="M89.9,5.59C81.63.81,68.25.81,60,5.59s-8.18,12.52.1,17.3,21.65,4.78,29.87,0S98.18,10.36,89.9,5.59Zm3,10.19a9.46,9.46,0,0,1-4.37,4.52,27.63,27.63,0,0,1-13.41,3.17,27.77,27.77,0,0,1-13.45-3.18,9.45,9.45,0,0,1-4.45-4.61,4.1,4.1,0,0,1-.29-1.48c0-2.11,1.69-4.3,4.65-6A27.52,27.52,0,0,1,75,5,27.66,27.66,0,0,1,88.4,8.19c3,1.73,4.73,4,4.74,6.08A4.24,4.24,0,0,1,92.86,15.78Z"/><rect class="cls-10" x="72.77" y="15.2" width="4.44" height="0.68"/><g class="cls-1"><rect class="cls-11" x="73.5" y="13.5" width="3" height="1.74"/><rect class="cls-12" x="73.5" y="15.21" width="3" height="8.03"/></g><g class="cls-1"><rect class="cls-11" x="72.49" y="14.53" width="5" height="0.67"/><rect class="cls-2" x="72.49" y="11.46" width="5" height="3.07"/></g><g class="cls-1"><rect class="cls-2" x="72.5" y="15.2" width="0.18" height="0.68"/></g><rect class="cls-13" x="72.68" y="15.2" width="0.1" height="0.68"/><g class="cls-1"><rect class="cls-2" x="77.22" y="15.2" width="0.18" height="0.68"/></g><rect class="cls-13" x="77.4" y="15.2" width="0.1" height="0.68"/><rect class="cls-2" x="74.67" y="8.59" width="0.64" height="3.83"/><rect class="cls-2" x="73.65" y="16.11" width="0.17" height="7.06" rx="0.08" transform="translate(147.48 39.28) rotate(-180)"/><rect class="cls-2" x="76.17" y="16.11" width="0.17" height="7.06" rx="0.08" transform="translate(152.52 39.28) rotate(-180)"/><path class="cls-4" d="M96.08,14.91a4.91,4.91,0,0,1-.08.67,5.29,5.29,0,0,1-.13.54c-.06.21-.11.42-.18.63s-.14.34-.22.52a5.51,5.51,0,0,1-.31.65,8.57,8.57,0,0,1-.54.9l-.1.14a10.82,10.82,0,0,1-.69.86l-.14.17c-.28.3-.58.59-.89.87s-.43.36-.65.54-.38.31-.59.46-.5.34-.76.51-.52.35-.8.52c-.64.36-1.31.69-2,1l-.6.26c-.54.23-1.09.44-1.66.63l-.61.21-1.08.31-.83.22-1.17.25c-.27.05-.53.12-.8.16-.79.14-1.59.25-2.4.34l-.75.06c-.48,0-.95.07-1.43.09-.3,0-.61,0-.91,0H74.6l-1,0-1.07-.06-1-.08q-.52,0-1-.12l-1-.13-1.12-.2-.87-.17-1.31-.32-.73-.2c-.77-.23-1.53-.48-2.26-.76l-1.07-.46c-.18-.08-.37-.15-.55-.24-.53-.25-1.05-.52-1.55-.8a14.58,14.58,0,0,1-4.68-4.08,8,8,0,0,1-1.55-4.64l0,9.79c0,3.15,2.07,6.3,6.24,8.71.49.29,1,.55,1.54.81.18.08.37.15.55.24l1,.41.12,0c.73.28,1.49.54,2.27.76a1,1,0,0,0,.18.06l.54.14,1.31.32.35.08.53.1,1.12.19.44.08.5.05c.35,0,.7.09,1.06.12l.5.06.47,0,1.07.06.54,0h1.59c.19,0,.38,0,.57,0l.34,0c.48,0,1-.06,1.43-.1l.58,0,.17,0c.81-.09,1.61-.2,2.4-.34h.12c.23,0,.45-.1.68-.15.39-.08.78-.15,1.17-.25s.55-.14.83-.22l1.09-.31.23-.07.38-.14q.84-.29,1.65-.63l.61-.25c.69-.32,1.36-.64,2-1l.26-.15c.19-.12.36-.25.54-.37s.52-.33.76-.5l.59-.47c.22-.18.45-.35.65-.54l.13-.1c.27-.26.52-.51.76-.77l.14-.16.41-.48.28-.39.11-.14c.16-.24.32-.49.46-.73l.07-.16a6.53,6.53,0,0,0,.31-.66c.06-.13.13-.26.18-.39s0-.08,0-.13q.11-.32.18-.63a3,3,0,0,0,.12-.43s0-.07,0-.11c0-.22,0-.44.07-.67a3,3,0,0,0,0-.43c0-.06,0-.12,0-.18l0-9.79C96.13,14.5,96.1,14.71,96.08,14.91Z"/></g><g class="cls-1"><path class="cls-11" d="M75.22.26h0v0h0s0,0,0,0h0l0,0h-.24l0,0a.1.1,0,0,1-.07-.09v2s0,.07.07.1h.27l0,0h0l0,0h0V.26Z"/><path class="cls-2" d="M75.16.15c.09.05.09.13,0,.18a.36.36,0,0,1-.32,0c-.09,0-.09-.13,0-.18A.36.36,0,0,1,75.16.15Z"/></g><g class="cls-1"><path class="cls-11" d="M54.42,12.55h0v0h0l0,0h0l0,0h-.24l0,0a.1.1,0,0,1-.07-.09v1.84a.09.09,0,0,0,.07.09l0,0h.24l0,0h.06v0h0V12.55Z"/><path class="cls-2" d="M54.36,12.44c.09.05.09.13,0,.18a.36.36,0,0,1-.32,0c-.09,0-.09-.13,0-.18A.36.36,0,0,1,54.36,12.44Z"/></g><g class="cls-1"><path class="cls-11" d="M96,12.55h0v0h0l0,0h0l0,0h-.24l0,0a.11.11,0,0,1-.06-.09v1.84a.1.1,0,0,0,.06.09l0,0h.24l0,0H96v0h0V12.55Z"/><path class="cls-2" d="M96,12.44c.09.05.09.13,0,.18a.36.36,0,0,1-.32,0,.1.1,0,0,1,0-.18A.36.36,0,0,1,96,12.44Z"/></g><g class="cls-1"><path class="cls-11" d="M75.22,24.34h0s0,0,0,0h0s0,0,0,0h0l0,0h-.24l0,0a.09.09,0,0,1-.07-.09v2s0,.07.07.1h.27l0,0h0l0,0h0V24.34Z"/><path class="cls-2" d="M75.16,24.22c.09.05.09.13,0,.18a.31.31,0,0,1-.32,0c-.09,0-.09-.13,0-.18A.36.36,0,0,1,75.16,24.22Z"/></g><path class="cls-2" d="M74.94.5h0A29.88,29.88,0,0,1,89.65,4c3.85,2.22,6,5.15,6,8.25s-2.08,6-5.89,8.18A29.6,29.6,0,0,1,75.08,24a29.88,29.88,0,0,1-14.71-3.52c-3.85-2.22-6-5.15-6-8.25s2.09-6,5.89-8.18A29.63,29.63,0,0,1,74.94.5m0-.5A30.31,30.31,0,0,0,60,3.58c-8.22,4.78-8.18,12.53.09,17.31a30.67,30.67,0,0,0,15,3.58A30.44,30.44,0,0,0,90,20.89c8.22-4.78,8.17-12.53-.1-17.31A30.56,30.56,0,0,0,74.94,0Z"/><path class="cls-11" d="M90,20.66a30.33,30.33,0,0,1-14.92,3.59,30.53,30.53,0,0,1-14.95-3.59c-4.11-2.37-6.19-5.46-6.24-8.57,0,3.18,2,6.37,6.24,8.8a30.52,30.52,0,0,0,14.95,3.58A30.33,30.33,0,0,0,90,20.89c4.15-2.41,6.19-5.58,6.14-8.73C96.09,15.24,94,18.32,90,20.66Z"/><path class="cls-11" d="M90,3.85A30.33,30.33,0,0,0,75.08.27,30.52,30.52,0,0,0,60.13,3.85c-4.21,2.43-6.29,5.62-6.24,8.8,0-3.11,2.13-6.2,6.24-8.57A30.53,30.53,0,0,1,75.08.49,30.33,30.33,0,0,1,90,4.08c4,2.34,6.09,5.42,6.14,8.5C96.19,9.42,94.15,6.26,90,3.85Z"/><g class="cls-1"><rect class="cls-11" x="73.5" y="32.65" width="3" height="1.74"/><rect class="cls-2" x="73.5" y="24.65" width="3" height="8"/></g><g class="cls-1"><path class="cls-11" d="M83.88,34.26l0,.1a3.93,3.93,0,0,1-.43.84l-.1.15a4.77,4.77,0,0,1-.72.79,7.67,7.67,0,0,1-.62.46,6.41,6.41,0,0,1-.57.41,9.75,9.75,0,0,1-1.77.77c-.22.08-.45.15-.68.21s-.59.16-.9.23-.72.14-1.09.18l-.27,0c-.49.05-1,.08-1.51.09H75c-.5,0-1,0-1.49-.09l-.22,0a13.71,13.71,0,0,1-1.45-.25l-.25-.06c-.43-.11-.85-.24-1.25-.38l-.22-.08A9.57,9.57,0,0,1,68.7,37C66.92,36,66,34.64,66,33.3L66,49.9c0,1.34.89,2.69,2.66,3.71a10.38,10.38,0,0,0,1.3.62l.07,0,.21.07c.27.09.53.19.81.27l.45.11.26.06.23.06.89.16.32,0,.22,0,.33,0c.3,0,.59,0,.89.05h.92l1-.07.12,0,.26,0c.26,0,.52-.06.77-.11l.32-.08a8.46,8.46,0,0,0,.9-.23c.16,0,.33-.06.48-.11a1.76,1.76,0,0,1,.2-.09,10.53,10.53,0,0,0,1.77-.78.41.41,0,0,0,.11-.07c.17-.1.29-.22.45-.33a6.21,6.21,0,0,0,.64-.47l.06,0a7.68,7.68,0,0,0,.56-.6l.09-.15a1.3,1.3,0,0,0,.1-.15,2.2,2.2,0,0,0,.17-.25,2.63,2.63,0,0,0,.24-.51s0,0,0-.08a.29.29,0,0,0,0-.1c0-.11.07-.22.1-.33A4.35,4.35,0,0,0,84,50v-.08L84,33.33A3,3,0,0,1,83.88,34.26Z"/><path class="cls-2" d="M81.39,29.63c3.53,2,3.52,5.34,0,7.38A14,14,0,0,1,68.7,37c-3.53-2-3.55-5.33,0-7.37A14,14,0,0,1,81.39,29.63Z"/></g><g class="cls-1"><path class="cls-8" d="M77.53,31.28,77,31h0l-.09,0-.31-.11-.18-.05-.11,0-.09,0-.35-.07H75.5l-.36,0h-.36l-.4,0h0l-.11,0-.31,0-.13,0-.35.09-.2.05-.08,0a4.48,4.48,0,0,0-.7.31l0,0-.19.13-.24.18s0,0,0,0a1.6,1.6,0,0,0-.22.24l0,.06,0,.06-.07.09a1,1,0,0,0-.09.21,0,0,0,0,0,0,0s0,0,0,0l0,.13a1.52,1.52,0,0,0,0,.21v.84a1.13,1.13,0,0,1,.06-.36.09.09,0,0,0,0,0,1.73,1.73,0,0,1,.17-.33.21.21,0,0,0,0-.06,2.09,2.09,0,0,1,.29-.31l.24-.18a1.88,1.88,0,0,1,.23-.16,3.17,3.17,0,0,1,.7-.31l.27-.09.36-.08.44-.08h.1a4.08,4.08,0,0,1,.61,0H75a4,4,0,0,1,.6,0h.09l.57.09.11,0a4,4,0,0,1,.49.15l.09,0a3.36,3.36,0,0,1,.54.26,1.78,1.78,0,0,1,1.06,1.47v-.81A1.78,1.78,0,0,0,77.53,31.28Z"/><path class="cls-8" d="M79.22,33.2l0,0a1.36,1.36,0,0,1-.2.4l0,.07a2,2,0,0,1-.34.38c-.08.07-.19.14-.29.21a2.69,2.69,0,0,1-.27.2,5.45,5.45,0,0,1-.85.37l-.32.1-.43.1a4.71,4.71,0,0,1-.52.09l-.13,0a5.79,5.79,0,0,1-.72,0H75a5.63,5.63,0,0,1-.71,0h-.11l-.69-.12-.12,0a5.76,5.76,0,0,1-.59-.18l-.11,0a4.3,4.3,0,0,1-.65-.3,2.47,2.47,0,0,1-1.19-1.3,1.5,1.5,0,0,1-.08-.47v.81A2.16,2.16,0,0,0,72,35.32a5.92,5.92,0,0,0,.62.3h0l.1,0c.13,0,.25.09.38.12l.22.06.12,0,.11,0L74,36h.16l.11,0h.15c.14,0,.29,0,.43,0h.44a3.87,3.87,0,0,0,.48,0h0l.12,0,.37-.05.16,0,.43-.11.23-.06.09,0a4.27,4.27,0,0,0,.84-.37l.06,0c.08,0,.14-.11.21-.16a3.3,3.3,0,0,0,.3-.22l0,0a1.75,1.75,0,0,0,.26-.29l0-.06,0-.08.08-.11a1.89,1.89,0,0,0,.11-.25s0,0,0,0,0,0,0,0l0-.16a1,1,0,0,0,0-.25v-.85A1.62,1.62,0,0,1,79.22,33.2Z"/><path class="cls-9" d="M78,31c1.68,1,1.68,2.55,0,3.52a6.69,6.69,0,0,1-6.07,0c-1.68-1-1.69-2.55,0-3.52A6.69,6.69,0,0,1,78,31Zm-5.55,3.23a5.6,5.6,0,0,0,5.06,0c1.4-.82,1.39-2.13,0-2.94a5.59,5.59,0,0,0-5.07,0c-1.39.81-1.38,2.13,0,2.94"/></g><g class="cls-1"><rect class="cls-11" x="51.03" y="36.33" width="14.99" height="0.73"/><rect class="cls-2" x="51.03" y="34.33" width="14.99" height="2"/></g><path id="水-2" data-name="水" class="cls-5" d="M52.86,34.78a9.46,9.46,0,0,1-4.37,4.52,27.63,27.63,0,0,1-13.41,3.17,27.77,27.77,0,0,1-13.45-3.18,9.45,9.45,0,0,1-4.45-4.61,9.49,9.49,0,0,1,4.36-4.5A27.52,27.52,0,0,1,35,27,27.66,27.66,0,0,1,48.4,30.19,9.58,9.58,0,0,1,52.86,34.78Z"/><g id="水流-2" data-name="水流"><line class="cls-6" x1="28.5" y1="34.05" x2="28.5" y2="33.02"/><line class="cls-6" x1="35.81" y1="30.51" x2="35.81" y2="28.57"/><line class="cls-6" x1="43.81" y1="32.09" x2="43.81" y2="30.16"/><line class="cls-6" x1="38.72" y1="40.81" x2="38.72" y2="38.88"/><line class="cls-7" x1="25.6" y1="38.91" x2="25.6" y2="36.97"/><line class="cls-7" x1="46.67" y1="37.5" x2="46.67" y2="35.41"/><line class="cls-7" x1="41.13" y1="35.56" x2="41.13" y2="34.5"/><line class="cls-7" x1="34.09" y1="37.09" x2="34.09" y2="35"/></g><g class="cls-1"><path class="cls-4" d="M53.14,33.27a4.24,4.24,0,0,1-.28,1.51,9.58,9.58,0,0,0-4.46-4.59A27.66,27.66,0,0,0,35,27a27.52,27.52,0,0,0-13.41,3.18,9.49,9.49,0,0,0-4.36,4.5,4.1,4.1,0,0,1-.29-1.48c0-2.11,1.69-4.3,4.65-6A27.52,27.52,0,0,1,35,24,27.66,27.66,0,0,1,48.4,27.19C51.41,28.92,53.13,31.14,53.14,33.27Z"/><g class="cls-1"><path class="cls-8" d="M45.85,28.83c-.36-.21-.74-.4-1.12-.59l-.4-.17c-.23-.1-.45-.21-.69-.3l-.09,0c-.53-.21-1.08-.39-1.64-.56l-.13,0-.4-.1-1-.23a1.83,1.83,0,0,0-.25-.06l-.39-.07L39,26.54c-.11,0-.22-.05-.33-.06l-.37,0-.77-.09-.36,0-.35,0-.78,0-.39,0H33.79l-1,.07-.42,0-.12,0c-.6.06-1.18.14-1.76.24l-.09,0-.49.1-.85.18-.61.17-.79.22-.17.05-.28.11q-.61.21-1.2.45l-.44.19a13.87,13.87,0,0,0-1.44.73l-.19.11c-.14.08-.26.18-.4.27l-.55.36-.43.34L22,30.3l-.09.08c-.2.18-.38.37-.56.56l-.1.12L21,31.4l-.11.16q-.2.27-.36.54a1.7,1.7,0,0,0-.15.22l-.06.12c-.08.16-.15.32-.22.48a2.39,2.39,0,0,0-.13.28.32.32,0,0,0,0,.09,4.12,4.12,0,0,0-.13.47c0,.1-.07.2-.09.3a.28.28,0,0,0,0,.09c0,.16,0,.32-.06.49s0,.21,0,.31a.66.66,0,0,0,0,.14v.81c0-.15,0-.3,0-.45a4.36,4.36,0,0,1,.06-.49c0-.13.06-.26.09-.39a4,4,0,0,1,.14-.46c0-.13.1-.25.15-.38a5.24,5.24,0,0,1,.23-.48c.06-.11.14-.22.21-.34a4.5,4.5,0,0,1,.36-.53,5.93,5.93,0,0,1,.4-.51l.1-.12c.2-.21.42-.43.65-.64l.47-.38.43-.34c.17-.13.36-.25.55-.37s.38-.26.58-.38c.46-.26.95-.5,1.45-.73l.44-.18c.39-.17.79-.32,1.2-.46.15-.05.3-.11.45-.15l.79-.23.61-.16c.28-.07.56-.13.85-.18s.38-.09.58-.12c.58-.1,1.16-.18,1.75-.25l.55,0c.35,0,.7-.06,1-.07l.66,0c.29,0,.57,0,.85,0l.7,0,.79,0c.24,0,.47,0,.71.06l.77.08.69.1.82.14.64.13q.48.11,1,.24l.52.14c.57.16,1.12.35,1.65.55l.78.33c.13.06.27.11.4.18.38.18.76.37,1.12.58,3,1.75,4.54,4,4.53,6.35v-.82C50.39,32.88,48.88,30.58,45.85,28.83Z"/><path class="cls-9" d="M46.46,28.47c-6.36-3.67-16.67-3.67-23,0s-6.29,9.65.08,13.33,16.68,3.67,23,0S52.82,32.15,46.46,28.47Zm-.54,13c-6,3.48-15.75,3.48-21.77,0s-6.06-9.14-.07-12.61,15.75-3.48,21.77,0S51.9,38,45.92,41.44Z"/><path class="cls-8" d="M51.22,35.66c0,.17,0,.34-.06.51s-.07.28-.11.42-.08.32-.14.49-.11.26-.16.39-.15.34-.24.51l-.22.36c-.12.19-.24.38-.38.57a6.67,6.67,0,0,1-.43.53l-.11.13c-.21.23-.44.45-.68.67s-.33.27-.5.41l-.45.36-.58.39c-.21.13-.4.27-.62.4-.49.28-1,.53-1.53.77l-.46.2c-.42.17-.84.33-1.27.48l-.48.16c-.27.09-.55.16-.83.24l-.64.17-.9.19-.62.13c-.61.1-1.22.19-1.85.25l-.57,0-1.11.08-.7,0h-.9l-.74,0-.83,0-.75-.07c-.28,0-.55,0-.82-.09l-.73-.1L30,44.07l-.67-.14c-.35-.07-.68-.16-1-.25l-.55-.14c-.6-.18-1.18-.37-1.74-.59l-.82-.35-.42-.18c-.41-.2-.81-.4-1.19-.62-3.2-1.85-4.8-4.28-4.8-6.71v.82c0,2.42,1.59,4.85,4.8,6.7.38.22.78.43,1.19.62l.41.19.73.31.09,0c.57.22,1.15.42,1.75.59l.13,0,.42.1,1,.25.27.06.41.07c.29.06.57.11.86.15l.34.06.39,0,.81.09.39,0,.37,0,.83,0,.41,0H36l.26,0c.37,0,.74,0,1.11-.07l.44,0,.13,0c.62-.07,1.24-.15,1.85-.26h.1l.52-.11.89-.19.65-.18.83-.23.18-.06.29-.11a12.8,12.8,0,0,0,1.27-.48l.47-.2a15.62,15.62,0,0,0,1.53-.77l.19-.11.42-.29c.2-.12.4-.25.58-.38s.31-.24.46-.36l.5-.41.1-.08c.21-.2.4-.4.58-.6l.11-.13c.11-.12.22-.24.31-.36a1,1,0,0,0,.12-.17c.14-.18.26-.37.38-.56l.16-.24a1.39,1.39,0,0,1,.06-.13,4.52,4.52,0,0,0,.23-.5c0-.1.1-.2.14-.3l0-.1a3.94,3.94,0,0,0,.14-.49c0-.11.07-.21.09-.32s0-.06,0-.09a4.57,4.57,0,0,0,.05-.52c0-.11,0-.22,0-.33v-1C51.26,35.34,51.23,35.5,51.22,35.66Z"/></g><g class="cls-1"><rect class="cls-14" x="40.16" y="36.33" width="14.99" height="0.73"/><rect class="cls-12" x="40.16" y="34.33" width="14.99" height="2"/></g><g class="cls-1"><rect class="cls-11" x="28.82" y="35.37" width="8.44" height="0.32"/><rect class="cls-2" x="28.82" y="34.95" width="8.44" height="0.43"/></g><g class="cls-1"><path class="cls-11" d="M40.81,33.63h-.17s0,0,0,0v.89a.05.05,0,0,0,0,0h.18v-.89Z"/><path class="cls-2" d="M40.78,33.58a0,0,0,0,1,0,.08.12.12,0,0,1-.14,0,0,0,0,0,1,0-.08A.19.19,0,0,1,40.78,33.58Z"/></g><g class="cls-1"><path class="cls-11" d="M41.81,33.63h-.17s0,0,0,0v.89a.05.05,0,0,0,0,0h.18v-.89Z"/><path class="cls-2" d="M41.78,33.58a0,0,0,0,1,0,.08.12.12,0,0,1-.14,0,0,0,0,0,1,0-.08A.19.19,0,0,1,41.78,33.58Z"/></g><g class="cls-1"><path class="cls-11" d="M42.81,33.63h-.17s0,0,0,0v.89a.05.05,0,0,0,0,0h.18v-.89Z"/><path class="cls-2" d="M42.78,33.58a0,0,0,0,1,0,.08.12.12,0,0,1-.14,0,0,0,0,0,1,0-.08A.19.19,0,0,1,42.78,33.58Z"/></g><g class="cls-1"><path class="cls-11" d="M43.81,33.63h-.17s0,0,0,0v.89a.05.05,0,0,0,0,0h.18v-.89Z"/><path class="cls-2" d="M43.78,33.58a0,0,0,0,1,0,.08.12.12,0,0,1-.14,0,0,0,0,0,1,0-.08A.19.19,0,0,1,43.78,33.58Z"/></g><g class="cls-1"><path class="cls-11" d="M44.81,33.63h-.17s0,0,0,0v.89a.05.05,0,0,0,0,0h.18v-.89Z"/><path class="cls-2" d="M44.78,33.58a0,0,0,0,1,0,.08.12.12,0,0,1-.14,0,0,0,0,0,1,0-.08A.19.19,0,0,1,44.78,33.58Z"/></g><g class="cls-1"><path class="cls-11" d="M45.81,33.63h-.17s0,0,0,0v.89a.05.05,0,0,0,0,0h.18v-.89Z"/><path class="cls-2" d="M45.78,33.58a0,0,0,0,1,0,.08.12.12,0,0,1-.14,0,0,0,0,0,1,0-.08A.19.19,0,0,1,45.78,33.58Z"/></g><g class="cls-1"><path class="cls-11" d="M46.81,33.63h-.17s0,0,0,0v.89a.05.05,0,0,0,0,0h.18v-.89Z"/><path class="cls-2" d="M46.78,33.58a0,0,0,0,1,0,.08.12.12,0,0,1-.14,0,0,0,0,0,1,0-.08A.19.19,0,0,1,46.78,33.58Z"/></g><g class="cls-1"><path class="cls-11" d="M47.81,33.63h-.17s0,0,0,0v.89a.05.05,0,0,0,0,0h.18v-.89Z"/><path class="cls-2" d="M47.78,33.58a0,0,0,0,1,0,.08.12.12,0,0,1-.14,0,0,0,0,0,1,0-.08A.19.19,0,0,1,47.78,33.58Z"/></g><g class="cls-1"><path class="cls-11" d="M48.81,33.63h-.17s0,0,0,0v.89a.05.05,0,0,0,0,0h.18v-.89Z"/><path class="cls-2" d="M48.78,33.58a0,0,0,0,1,0,.08.12.12,0,0,1-.14,0,0,0,0,0,1,0-.08A.19.19,0,0,1,48.78,33.58Z"/></g><g class="cls-1"><path class="cls-11" d="M49.81,33.63h-.17s0,0,0,0v.89a.05.05,0,0,0,0,0h.18v-.89Z"/><path class="cls-2" d="M49.78,33.58a0,0,0,0,1,0,.08.12.12,0,0,1-.14,0,0,0,0,0,1,0-.08A.19.19,0,0,1,49.78,33.58Z"/></g><g class="cls-1"><path class="cls-11" d="M50.81,33.63h-.17s0,0,0,0v.89a.05.05,0,0,0,0,0h.18v-.89Z"/><path class="cls-2" d="M50.78,33.58a0,0,0,0,1,0,.08.12.12,0,0,1-.14,0,0,0,0,0,1,0-.08A.19.19,0,0,1,50.78,33.58Z"/></g><g class="cls-1"><path class="cls-11" d="M51.81,33.63h-.17s0,0,0,0v.89a.05.05,0,0,0,0,0h.18v-.89Z"/><path class="cls-2" d="M51.78,33.58a0,0,0,0,1,0,.08.12.12,0,0,1-.14,0,0,0,0,0,1,0-.08A.19.19,0,0,1,51.78,33.58Z"/></g><g class="cls-1"><path class="cls-11" d="M52.81,33.63h-.17s0,0,0,0v.89a.05.05,0,0,0,0,0h.18v-.89Z"/><path class="cls-2" d="M52.78,33.58a0,0,0,0,1,0,.08.12.12,0,0,1-.14,0,0,0,0,0,1,0-.08A.19.19,0,0,1,52.78,33.58Z"/></g><rect class="cls-2" x="46.56" y="27.23" width="0.17" height="12.75" rx="0.09" transform="translate(80.24 -13.05) rotate(90)"/><g class="cls-1"><path class="cls-11" d="M40.81,35.28h-.17a.05.05,0,0,1,0,0v.89a.05.05,0,0,0,0,0h.18v-.89Z"/><path class="cls-2" d="M40.78,35.23a0,0,0,0,1,0,.08.17.17,0,0,1-.14,0,0,0,0,0,1,0-.08A.14.14,0,0,1,40.78,35.23Z"/></g><g class="cls-1"><path class="cls-11" d="M41.81,35.28h-.17a.05.05,0,0,1,0,0v.89a.05.05,0,0,0,0,0h.18v-.89Z"/><path class="cls-2" d="M41.78,35.23a0,0,0,0,1,0,.08.17.17,0,0,1-.14,0,0,0,0,0,1,0-.08A.14.14,0,0,1,41.78,35.23Z"/></g><g class="cls-1"><path class="cls-11" d="M42.81,35.28h-.17a.05.05,0,0,1,0,0v.89a.05.05,0,0,0,0,0h.18v-.89Z"/><path class="cls-2" d="M42.78,35.23a0,0,0,0,1,0,.08.17.17,0,0,1-.14,0,0,0,0,0,1,0-.08A.14.14,0,0,1,42.78,35.23Z"/></g><g class="cls-1"><path class="cls-11" d="M43.81,35.28h-.17a.05.05,0,0,1,0,0v.89a.05.05,0,0,0,0,0h.18v-.89Z"/><path class="cls-2" d="M43.78,35.23a0,0,0,0,1,0,.08.17.17,0,0,1-.14,0,0,0,0,0,1,0-.08A.14.14,0,0,1,43.78,35.23Z"/></g><g class="cls-1"><path class="cls-11" d="M44.81,35.28h-.17a.05.05,0,0,1,0,0v.89a.05.05,0,0,0,0,0h.18v-.89Z"/><path class="cls-2" d="M44.78,35.23a0,0,0,0,1,0,.08.17.17,0,0,1-.14,0,0,0,0,0,1,0-.08A.14.14,0,0,1,44.78,35.23Z"/></g><g class="cls-1"><path class="cls-11" d="M45.81,35.28h-.17a.05.05,0,0,1,0,0v.89a.05.05,0,0,0,0,0h.18v-.89Z"/><path class="cls-2" d="M45.78,35.23a0,0,0,0,1,0,.08.17.17,0,0,1-.14,0,0,0,0,0,1,0-.08A.14.14,0,0,1,45.78,35.23Z"/></g><g class="cls-1"><path class="cls-11" d="M46.81,35.28h-.17a.05.05,0,0,1,0,0v.89a.05.05,0,0,0,0,0h.18v-.89Z"/><path class="cls-2" d="M46.78,35.23a0,0,0,0,1,0,.08.17.17,0,0,1-.14,0,0,0,0,0,1,0-.08A.14.14,0,0,1,46.78,35.23Z"/></g><g class="cls-1"><path class="cls-11" d="M47.81,35.28h-.17a.05.05,0,0,1,0,0v.89a.05.05,0,0,0,0,0h.18v-.89Z"/><path class="cls-2" d="M47.78,35.23a0,0,0,0,1,0,.08.17.17,0,0,1-.14,0,0,0,0,0,1,0-.08A.14.14,0,0,1,47.78,35.23Z"/></g><g class="cls-1"><path class="cls-11" d="M48.81,35.28h-.17a.05.05,0,0,1,0,0v.89a.05.05,0,0,0,0,0h.18v-.89Z"/><path class="cls-2" d="M48.78,35.23a0,0,0,0,1,0,.08.17.17,0,0,1-.14,0,0,0,0,0,1,0-.08A.14.14,0,0,1,48.78,35.23Z"/></g><g class="cls-1"><path class="cls-11" d="M49.81,35.28h-.17a.05.05,0,0,1,0,0v.89a.05.05,0,0,0,0,0h.18v-.89Z"/><path class="cls-2" d="M49.78,35.23a0,0,0,0,1,0,.08.17.17,0,0,1-.14,0,0,0,0,0,1,0-.08A.14.14,0,0,1,49.78,35.23Z"/></g><g class="cls-1"><path class="cls-11" d="M50.81,35.28h-.17a.05.05,0,0,1,0,0v.89a.05.05,0,0,0,0,0h.18v-.89Z"/><path class="cls-2" d="M50.78,35.23a0,0,0,0,1,0,.08.17.17,0,0,1-.14,0,0,0,0,0,1,0-.08A.14.14,0,0,1,50.78,35.23Z"/></g><g class="cls-1"><path class="cls-11" d="M51.81,35.28h-.17a.05.05,0,0,1,0,0v.89a.05.05,0,0,0,0,0h.18v-.89Z"/><path class="cls-2" d="M51.78,35.23a0,0,0,0,1,0,.08.17.17,0,0,1-.14,0,0,0,0,0,1,0-.08A.14.14,0,0,1,51.78,35.23Z"/></g><g class="cls-1"><path class="cls-11" d="M52.81,35.28h-.17a.05.05,0,0,1,0,0v.89a.05.05,0,0,0,0,0h.18v-.89Z"/><path class="cls-2" d="M52.78,35.23a0,0,0,0,1,0,.08.17.17,0,0,1-.14,0,0,0,0,0,1,0-.08A.14.14,0,0,1,52.78,35.23Z"/></g><rect class="cls-2" x="46.56" y="28.87" width="0.17" height="12.75" rx="0.09" transform="translate(81.89 -11.4) rotate(90)"/><g class="cls-1"><rect class="cls-11" x="36.43" y="36.8" width="3.74" height="0.73"/><rect class="cls-2" x="36.43" y="32.9" width="3.74" height="3.9"/></g><g class="cls-1"><rect class="cls-2" x="36.43" y="37.53" width="0.18" height="0.68"/></g><rect class="cls-13" x="36.61" y="37.53" width="0.1" height="0.68"/><g class="cls-1"><rect class="cls-2" x="39.9" y="37.53" width="0.18" height="0.68"/></g><rect class="cls-13" x="40.07" y="37.53" width="0.1" height="0.68"/><rect class="cls-10" x="36.71" y="37.53" width="3.18" height="0.67"/><path class="cls-2" d="M49.9,24.59c-8.27-4.78-21.65-4.78-29.87,0s-8.18,12.52.1,17.3,21.65,4.78,29.87,0S58.18,29.36,49.9,24.59Zm3,10.19a9.46,9.46,0,0,1-4.37,4.52,27.63,27.63,0,0,1-13.41,3.17,27.77,27.77,0,0,1-13.45-3.18,9.45,9.45,0,0,1-4.45-4.61,4.1,4.1,0,0,1-.29-1.48c0-2.11,1.69-4.3,4.65-6A27.52,27.52,0,0,1,35,24,27.66,27.66,0,0,1,48.4,27.19c3,1.73,4.73,3.95,4.74,6.08A4.24,4.24,0,0,1,52.86,34.78Z"/><path class="cls-4" d="M56.08,33.91a4.91,4.91,0,0,1-.08.67,5.29,5.29,0,0,1-.13.54c-.06.21-.11.42-.18.63s-.14.34-.22.52a5.51,5.51,0,0,1-.31.65,8.57,8.57,0,0,1-.54.9l-.1.14a10.82,10.82,0,0,1-.69.86l-.14.17c-.28.3-.58.59-.89.87s-.43.36-.65.54-.38.31-.59.46-.5.34-.76.51-.52.35-.8.52c-.64.36-1.31.69-2,1l-.6.26c-.54.23-1.09.44-1.66.63l-.61.21-1.08.31-.83.22-1.17.25c-.27,0-.53.12-.8.16-.79.14-1.59.25-2.4.34l-.75.06c-.48,0-1,.07-1.43.09-.3,0-.61,0-.91,0H34.6l-1,0-1.07-.06-1-.08-1-.12-1-.13-1.12-.2-.87-.17-1.31-.32-.73-.2c-.77-.23-1.53-.48-2.26-.76l-1.07-.46c-.18-.08-.37-.15-.55-.24-.53-.25-1.05-.52-1.55-.8a14.58,14.58,0,0,1-4.68-4.08,8,8,0,0,1-1.55-4.64l0,9.79c0,3.15,2.07,6.3,6.24,8.71.49.29,1,.55,1.54.81.18.08.37.15.55.24l.95.41.12,0c.73.28,1.49.54,2.27.76a1,1,0,0,0,.18.06l.54.14,1.31.32.35.08.53.1,1.12.19.44.08.5.05c.35,0,.7.09,1.06.12l.5.06.47,0,1.07.06.54,0h1.59c.19,0,.38,0,.57,0l.34,0c.48,0,1-.06,1.43-.1l.58,0,.17,0c.81-.09,1.61-.2,2.4-.34h.12c.23,0,.45-.1.68-.15.39-.08.78-.15,1.17-.25s.55-.14.83-.22l1.09-.31.23-.07.38-.14q.84-.29,1.65-.63l.61-.25c.69-.32,1.36-.64,2-1l.26-.15c.19-.12.36-.25.54-.37s.52-.33.76-.5l.59-.47c.22-.18.45-.35.65-.54l.13-.1c.27-.26.52-.51.76-.77l.14-.16.41-.48.28-.39.11-.14c.16-.24.32-.49.46-.73l.07-.16a6.53,6.53,0,0,0,.31-.66c.06-.13.13-.26.18-.39s0-.08,0-.13q.11-.31.18-.63a3,3,0,0,0,.12-.43s0-.07,0-.11c0-.22.05-.44.07-.67a3,3,0,0,0,.05-.43c0-.06,0-.12,0-.18l0-9.79C56.13,33.5,56.1,33.71,56.08,33.91Z"/></g><g class="cls-1"><path class="cls-11" d="M35.22,19.26h0v0h0s0,0,0,0h0l0,0h-.24l0,0a.1.1,0,0,1-.07-.09v2s0,.07.07.1h.27l0,0h0l0,0h0V19.26Z"/><path class="cls-2" d="M35.16,19.15c.09.05.09.13,0,.18a.36.36,0,0,1-.32,0c-.09,0-.09-.13,0-.18A.36.36,0,0,1,35.16,19.15Z"/></g><g class="cls-1"><path class="cls-11" d="M14.42,31.55h0v0h0s0,0,0,0h0l0,0h-.24l0,0a.1.1,0,0,1-.07-.09v1.84a.09.09,0,0,0,.07.09l0,0h.24l0,0h.06v0h0V31.55Z"/><path class="cls-2" d="M14.36,31.44c.09,0,.09.13,0,.18a.36.36,0,0,1-.32,0c-.09-.05-.09-.13,0-.18A.36.36,0,0,1,14.36,31.44Z"/></g><g class="cls-1"><path class="cls-11" d="M56,31.55h0a0,0,0,0,1,0,0h0s0,0,0,0h0l0,0h-.24l0,0a.11.11,0,0,1-.06-.09v1.84a.1.1,0,0,0,.06.09l0,0h.24l0,0H56v0h0V31.55Z"/><path class="cls-2" d="M56,31.44c.09,0,.09.13,0,.18a.36.36,0,0,1-.32,0,.1.1,0,0,1,0-.18A.36.36,0,0,1,56,31.44Z"/></g><g class="cls-1"><path class="cls-11" d="M35.22,43.34h0v0h0s0,0,0,0h0l0,0h-.24l0,0a.09.09,0,0,1-.07-.09v2s0,.07.07.1h.27l0,0h0l0,0h0V43.34Z"/><path class="cls-2" d="M35.16,43.22c.09.05.09.13,0,.18a.31.31,0,0,1-.32,0c-.09,0-.09-.13,0-.18A.36.36,0,0,1,35.16,43.22Z"/></g><path class="cls-2" d="M34.94,19.5h0A29.88,29.88,0,0,1,49.65,23c3.85,2.22,6,5.15,6,8.25s-2.08,6-5.89,8.18A29.6,29.6,0,0,1,35.08,43a29.88,29.88,0,0,1-14.71-3.52c-3.85-2.22-6-5.15-6-8.25s2.09-6,5.89-8.18A29.63,29.63,0,0,1,34.94,19.5m0-.5A30.31,30.31,0,0,0,20,22.58c-8.22,4.78-8.18,12.53.09,17.31a30.67,30.67,0,0,0,15,3.58A30.44,30.44,0,0,0,50,39.89c8.22-4.78,8.17-12.53-.1-17.31a30.56,30.56,0,0,0-15-3.58Z"/><path class="cls-11" d="M50,39.66a30.33,30.33,0,0,1-14.92,3.59,30.53,30.53,0,0,1-14.95-3.59c-4.11-2.37-6.19-5.46-6.24-8.57-.05,3.18,2,6.37,6.24,8.8a30.52,30.52,0,0,0,15,3.58A30.33,30.33,0,0,0,50,39.89c4.15-2.41,6.19-5.58,6.14-8.73C56.09,34.24,54,37.32,50,39.66Z"/><path class="cls-11" d="M50,22.85a30.33,30.33,0,0,0-14.92-3.58,30.52,30.52,0,0,0-14.95,3.58c-4.21,2.43-6.29,5.62-6.24,8.8,0-3.11,2.13-6.2,6.24-8.57a30.53,30.53,0,0,1,15-3.59A30.33,30.33,0,0,1,50,23.08c4,2.34,6.09,5.42,6.14,8.5C56.19,28.42,54.15,25.26,50,22.85Z"/><g class="cls-1"><rect class="cls-11" x="84.05" y="36.33" width="14.99" height="0.73"/><rect class="cls-2" x="84.05" y="34.33" width="14.99" height="2"/></g><path id="水-3" data-name="水" class="cls-5" d="M97.14,34.78a9.46,9.46,0,0,0,4.37,4.52,30,30,0,0,0,26.86,0,9.45,9.45,0,0,0,4.45-4.61,9.49,9.49,0,0,0-4.36-4.5,29.91,29.91,0,0,0-26.86,0A9.58,9.58,0,0,0,97.14,34.78Z"/><g id="水流-3" data-name="水流"><line class="cls-6" x1="121.5" y1="34.05" x2="121.5" y2="33.02"/><line class="cls-6" x1="114.19" y1="30.51" x2="114.19" y2="28.57"/><line class="cls-6" x1="106.19" y1="32.09" x2="106.19" y2="30.16"/><line class="cls-6" x1="111.28" y1="40.81" x2="111.28" y2="38.88"/><line class="cls-7" x1="124.4" y1="38.91" x2="124.4" y2="36.97"/><line class="cls-7" x1="103.33" y1="37.5" x2="103.33" y2="35.41"/><line class="cls-7" x1="108.87" y1="35.56" x2="108.87" y2="34.5"/><line class="cls-7" x1="115.91" y1="37.09" x2="115.91" y2="35"/></g><g class="cls-1"><path class="cls-4" d="M96.86,33.27a4.24,4.24,0,0,0,.28,1.51,9.58,9.58,0,0,1,4.46-4.59,29.91,29.91,0,0,1,26.86,0,9.49,9.49,0,0,1,4.36,4.5,4.1,4.1,0,0,0,.29-1.48c0-2.11-1.69-4.3-4.65-6a29.91,29.91,0,0,0-26.86,0C98.59,28.92,96.87,31.14,96.86,33.27Z"/><g class="cls-1"><path class="cls-8" d="M104.15,28.83c.36-.21.74-.4,1.12-.59l.4-.17c.23-.1.45-.21.69-.3l.09,0c.53-.21,1.08-.39,1.64-.56l.13,0,.4-.1,1-.23a1.83,1.83,0,0,1,.25-.06l.39-.07.81-.14c.11,0,.22-.05.33-.06l.37,0,.77-.09.36,0,.35,0,.78,0,.39,0h1.83l1.05.07.42,0,.12,0c.6.06,1.18.14,1.76.24l.09,0,.49.1.85.18.61.17.79.22.17.05.28.11q.61.21,1.2.45l.44.19a13.87,13.87,0,0,1,1.44.73l.19.11c.14.08.26.18.4.27l.55.36.43.34.47.39.09.08c.2.18.38.37.56.56l.1.12.29.34.11.16q.19.27.36.54a1.7,1.7,0,0,1,.15.22l.06.12c.08.16.15.32.22.48a2.39,2.39,0,0,1,.13.28.32.32,0,0,1,0,.09,4.12,4.12,0,0,1,.13.47c0,.1.07.2.09.3a.28.28,0,0,1,0,.09c0,.16,0,.32.06.49s0,.21,0,.31a.66.66,0,0,1,0,.14v.81c0-.15,0-.3,0-.45a4.36,4.36,0,0,0-.06-.49c0-.13-.06-.26-.09-.39a4,4,0,0,0-.14-.46c0-.13-.1-.25-.15-.38a5.24,5.24,0,0,0-.23-.48c-.06-.11-.14-.22-.21-.34a4.5,4.5,0,0,0-.36-.53,5.93,5.93,0,0,0-.4-.51l-.1-.12c-.2-.21-.42-.43-.65-.64l-.47-.38-.43-.34c-.17-.13-.36-.25-.55-.37s-.38-.26-.58-.38c-.46-.26-1-.5-1.45-.73l-.44-.18c-.39-.17-.79-.32-1.2-.46-.15-.05-.3-.11-.45-.15l-.79-.23-.61-.16c-.28-.07-.56-.13-.85-.18s-.38-.09-.58-.12c-.58-.1-1.16-.18-1.75-.25l-.55,0c-.35,0-.7-.06-1.05-.07l-.66,0c-.29,0-.57,0-.85,0l-.7,0-.79,0c-.24,0-.47,0-.71.06l-.77.08-.69.1-.82.14-.64.13q-.48.11-1,.24l-.52.14c-.57.16-1.12.35-1.65.55l-.78.33c-.13.06-.27.11-.4.18-.38.18-.76.37-1.12.58-3,1.75-4.54,4-4.53,6.35v-.82C99.61,32.88,101.12,30.58,104.15,28.83Z"/><path class="cls-9" d="M103.46,41.8c6.32,3.67,16.64,3.67,23,0s6.39-9.65.08-13.33-16.64-3.67-23,0S97.14,38.12,103.46,41.8Zm.69-13c6-3.48,15.79-3.48,21.77,0s6,9.13-.07,12.61-15.79,3.48-21.77,0S98.13,32.3,104.15,28.83Z"/><path class="cls-8" d="M98.78,35.66c0,.17,0,.34.06.51s.07.28.11.42.08.32.14.49.11.26.16.39.15.34.24.51l.22.36c.12.19.24.38.38.57a6.67,6.67,0,0,0,.43.53l.11.13c.21.23.44.45.68.67s.33.27.5.41l.45.36.58.39c.21.13.4.27.62.4.49.28,1,.53,1.53.77l.46.2c.42.17.84.33,1.27.48l.48.16c.27.09.55.16.83.24l.64.17.9.19.62.13c.61.1,1.22.19,1.85.25l.57,0,1.11.08.7,0h.9l.74,0,.83,0,.75-.07c.28,0,.55,0,.82-.09l.73-.1.86-.15.67-.14c.35-.07.68-.16,1-.25l.55-.14c.6-.18,1.18-.37,1.74-.59l.82-.35.42-.18c.41-.2.81-.4,1.19-.62,3.2-1.85,4.8-4.28,4.8-6.71v.82c0,2.42-1.59,4.85-4.8,6.7-.38.22-.78.43-1.19.62l-.41.19-.73.31-.09,0c-.57.22-1.15.42-1.75.59l-.13,0-.42.1-1,.25-.27.06-.41.07c-.29.06-.57.11-.86.15l-.34.06-.39,0-.81.09-.39,0-.37,0-.83,0-.41,0H114l-.26,0c-.37,0-.74,0-1.11-.07l-.44,0-.13,0c-.62-.07-1.24-.15-1.85-.26h-.1l-.52-.11-.89-.19-.65-.18-.83-.23-.18-.06-.29-.11a12.8,12.8,0,0,1-1.27-.48l-.47-.2a15.62,15.62,0,0,1-1.53-.77l-.19-.11-.42-.29c-.2-.12-.4-.25-.58-.38s-.31-.24-.46-.36l-.5-.41-.1-.08c-.21-.2-.4-.4-.58-.6l-.11-.13c-.11-.12-.22-.24-.31-.36a1,1,0,0,1-.12-.17c-.14-.18-.26-.37-.38-.56l-.16-.24a1.39,1.39,0,0,0-.06-.13,4.52,4.52,0,0,1-.23-.5c-.05-.1-.1-.2-.14-.3l0-.1A3.94,3.94,0,0,1,99,37.4c0-.11-.07-.21-.09-.32s0-.06,0-.09a4.57,4.57,0,0,1,0-.52c0-.11,0-.22,0-.33v-1C98.74,35.34,98.77,35.5,98.78,35.66Z"/></g><g class="cls-1"><rect class="cls-14" x="94.85" y="36.33" width="14.99" height="0.73"/><rect class="cls-12" x="94.85" y="34.33" width="14.99" height="2"/></g><g class="cls-1"><rect class="cls-11" x="112.74" y="35.37" width="8.44" height="0.32"/><rect class="cls-2" x="112.74" y="34.95" width="8.44" height="0.43"/></g><g class="cls-1"><path class="cls-11" d="M109.19,33.63h.17s0,0,0,0v.89a.05.05,0,0,1,0,0h-.18v-.89Z"/><path class="cls-2" d="M109.22,33.58a0,0,0,0,0,0,.08.12.12,0,0,0,.14,0,0,0,0,0,0,0-.08A.19.19,0,0,0,109.22,33.58Z"/></g><g class="cls-1"><path class="cls-11" d="M108.19,33.63h.17s0,0,0,0v.89a.05.05,0,0,1,0,0h-.18v-.89Z"/><path class="cls-2" d="M108.22,33.58a0,0,0,0,0,0,.08.12.12,0,0,0,.14,0,0,0,0,0,0,0-.08A.19.19,0,0,0,108.22,33.58Z"/></g><g class="cls-1"><path class="cls-11" d="M107.19,33.63h.17s0,0,0,0v.89a.05.05,0,0,1,0,0h-.18v-.89Z"/><path class="cls-2" d="M107.22,33.58a0,0,0,0,0,0,.08.12.12,0,0,0,.14,0,0,0,0,0,0,0-.08A.19.19,0,0,0,107.22,33.58Z"/></g><g class="cls-1"><path class="cls-11" d="M106.19,33.63h.17s0,0,0,0v.89a.05.05,0,0,1,0,0h-.18v-.89Z"/><path class="cls-2" d="M106.22,33.58a0,0,0,0,0,0,.08.12.12,0,0,0,.14,0,0,0,0,0,0,0-.08A.19.19,0,0,0,106.22,33.58Z"/></g><g class="cls-1"><path class="cls-11" d="M105.19,33.63h.17s0,0,0,0v.89a.05.05,0,0,1,0,0h-.18v-.89Z"/><path class="cls-2" d="M105.22,33.58a0,0,0,0,0,0,.08.12.12,0,0,0,.14,0,0,0,0,0,0,0-.08A.19.19,0,0,0,105.22,33.58Z"/></g><g class="cls-1"><path class="cls-11" d="M104.19,33.63h.17s0,0,0,0v.89a.05.05,0,0,1,0,0h-.18v-.89Z"/><path class="cls-2" d="M104.22,33.58a0,0,0,0,0,0,.08.12.12,0,0,0,.14,0,0,0,0,0,0,0-.08A.19.19,0,0,0,104.22,33.58Z"/></g><g class="cls-1"><path class="cls-11" d="M103.19,33.63h.17s0,0,0,0v.89a.05.05,0,0,1,0,0h-.18v-.89Z"/><path class="cls-2" d="M103.22,33.58a0,0,0,0,0,0,.08.12.12,0,0,0,.14,0,0,0,0,0,0,0-.08A.19.19,0,0,0,103.22,33.58Z"/></g><g class="cls-1"><path class="cls-11" d="M102.19,33.63h.17s0,0,0,0v.89a.05.05,0,0,1,0,0h-.18v-.89Z"/><path class="cls-2" d="M102.22,33.58a0,0,0,0,0,0,.08.12.12,0,0,0,.14,0,0,0,0,0,0,0-.08A.19.19,0,0,0,102.22,33.58Z"/></g><g class="cls-1"><path class="cls-11" d="M101.19,33.63h.17s0,0,0,0v.89a.05.05,0,0,1,0,0h-.18v-.89Z"/><path class="cls-2" d="M101.22,33.58a0,0,0,0,0,0,.08.12.12,0,0,0,.14,0,0,0,0,0,0,0-.08A.19.19,0,0,0,101.22,33.58Z"/></g><g class="cls-1"><path class="cls-11" d="M100.19,33.63h.17s0,0,0,0v.89a.05.05,0,0,1,0,0h-.18v-.89Z"/><path class="cls-2" d="M100.22,33.58a0,0,0,0,0,0,.08.12.12,0,0,0,.14,0,0,0,0,0,0,0-.08A.19.19,0,0,0,100.22,33.58Z"/></g><g class="cls-1"><path class="cls-11" d="M99.19,33.63h.17s0,0,0,0v.89a.05.05,0,0,1,0,0h-.18v-.89Z"/><path class="cls-2" d="M99.22,33.58a0,0,0,0,0,0,.08.12.12,0,0,0,.14,0,0,0,0,0,0,0-.08A.19.19,0,0,0,99.22,33.58Z"/></g><g class="cls-1"><path class="cls-11" d="M98.19,33.63h.17s0,0,0,0v.89a.05.05,0,0,1,0,0h-.18v-.89Z"/><path class="cls-2" d="M98.22,33.58a0,0,0,0,0,0,.08.12.12,0,0,0,.14,0,0,0,0,0,0,0-.08A.19.19,0,0,0,98.22,33.58Z"/></g><g class="cls-1"><path class="cls-11" d="M97.19,33.63h.17s0,0,0,0v.89a.05.05,0,0,1,0,0h-.18v-.89Z"/><path class="cls-2" d="M97.22,33.58a0,0,0,0,0,0,.08.12.12,0,0,0,.14,0,0,0,0,0,0,0-.08A.19.19,0,0,0,97.22,33.58Z"/></g><rect class="cls-2" x="103.27" y="27.23" width="0.17" height="12.75" rx="0.09" transform="translate(136.95 -69.76) rotate(90)"/><g class="cls-1"><path class="cls-11" d="M109.19,35.28h.17a.05.05,0,0,0,0,0v.89a.05.05,0,0,1,0,0h-.18v-.89Z"/><path class="cls-2" d="M109.22,35.23a0,0,0,0,0,0,.08.17.17,0,0,0,.14,0,0,0,0,0,0,0-.08A.14.14,0,0,0,109.22,35.23Z"/></g><g class="cls-1"><path class="cls-11" d="M108.19,35.28h.17a.05.05,0,0,0,0,0v.89a.05.05,0,0,1,0,0h-.18v-.89Z"/><path class="cls-2" d="M108.22,35.23a0,0,0,0,0,0,.08.17.17,0,0,0,.14,0,0,0,0,0,0,0-.08A.14.14,0,0,0,108.22,35.23Z"/></g><g class="cls-1"><path class="cls-11" d="M107.19,35.28h.17a.05.05,0,0,0,0,0v.89a.05.05,0,0,1,0,0h-.18v-.89Z"/><path class="cls-2" d="M107.22,35.23a0,0,0,0,0,0,.08.17.17,0,0,0,.14,0,0,0,0,0,0,0-.08A.14.14,0,0,0,107.22,35.23Z"/></g><g class="cls-1"><path class="cls-11" d="M106.19,35.28h.17a.05.05,0,0,0,0,0v.89a.05.05,0,0,1,0,0h-.18v-.89Z"/><path class="cls-2" d="M106.22,35.23a0,0,0,0,0,0,.08.17.17,0,0,0,.14,0,0,0,0,0,0,0-.08A.14.14,0,0,0,106.22,35.23Z"/></g><g class="cls-1"><path class="cls-11" d="M105.19,35.28h.17a.05.05,0,0,0,0,0v.89a.05.05,0,0,1,0,0h-.18v-.89Z"/><path class="cls-2" d="M105.22,35.23a0,0,0,0,0,0,.08.17.17,0,0,0,.14,0,0,0,0,0,0,0-.08A.14.14,0,0,0,105.22,35.23Z"/></g><g class="cls-1"><path class="cls-11" d="M104.19,35.28h.17a.05.05,0,0,0,0,0v.89a.05.05,0,0,1,0,0h-.18v-.89Z"/><path class="cls-2" d="M104.22,35.23a0,0,0,0,0,0,.08.17.17,0,0,0,.14,0,0,0,0,0,0,0-.08A.14.14,0,0,0,104.22,35.23Z"/></g><g class="cls-1"><path class="cls-11" d="M103.19,35.28h.17a.05.05,0,0,0,0,0v.89a.05.05,0,0,1,0,0h-.18v-.89Z"/><path class="cls-2" d="M103.22,35.23a0,0,0,0,0,0,.08.17.17,0,0,0,.14,0,0,0,0,0,0,0-.08A.14.14,0,0,0,103.22,35.23Z"/></g><g class="cls-1"><path class="cls-11" d="M102.19,35.28h.17a.05.05,0,0,0,0,0v.89a.05.05,0,0,1,0,0h-.18v-.89Z"/><path class="cls-2" d="M102.22,35.23a0,0,0,0,0,0,.08.17.17,0,0,0,.14,0,0,0,0,0,0,0-.08A.14.14,0,0,0,102.22,35.23Z"/></g><g class="cls-1"><path class="cls-11" d="M101.19,35.28h.17a.05.05,0,0,0,0,0v.89a.05.05,0,0,1,0,0h-.18v-.89Z"/><path class="cls-2" d="M101.22,35.23a0,0,0,0,0,0,.08.17.17,0,0,0,.14,0,0,0,0,0,0,0-.08A.14.14,0,0,0,101.22,35.23Z"/></g><g class="cls-1"><path class="cls-11" d="M100.19,35.28h.17a.05.05,0,0,0,0,0v.89a.05.05,0,0,1,0,0h-.18v-.89Z"/><path class="cls-2" d="M100.22,35.23a0,0,0,0,0,0,.08.17.17,0,0,0,.14,0,0,0,0,0,0,0-.08A.14.14,0,0,0,100.22,35.23Z"/></g><g class="cls-1"><path class="cls-11" d="M99.19,35.28h.17a.05.05,0,0,0,0,0v.89a.05.05,0,0,1,0,0h-.18v-.89Z"/><path class="cls-2" d="M99.22,35.23a0,0,0,0,0,0,.08.17.17,0,0,0,.14,0,0,0,0,0,0,0-.08A.14.14,0,0,0,99.22,35.23Z"/></g><g class="cls-1"><path class="cls-11" d="M98.19,35.28h.17a.05.05,0,0,0,0,0v.89a.05.05,0,0,1,0,0h-.18v-.89Z"/><path class="cls-2" d="M98.22,35.23a0,0,0,0,0,0,.08.17.17,0,0,0,.14,0,0,0,0,0,0,0-.08A.14.14,0,0,0,98.22,35.23Z"/></g><g class="cls-1"><path class="cls-11" d="M97.19,35.28h.17a.05.05,0,0,0,0,0v.89a.05.05,0,0,1,0,0h-.18v-.89Z"/><path class="cls-2" d="M97.22,35.23a0,0,0,0,0,0,.08.17.17,0,0,0,.14,0,0,0,0,0,0,0-.08A.14.14,0,0,0,97.22,35.23Z"/></g><rect class="cls-2" x="103.27" y="28.87" width="0.17" height="12.75" rx="0.09" transform="translate(138.6 -68.11) rotate(90)"/><g class="cls-1"><rect class="cls-11" x="109.83" y="36.8" width="3.74" height="0.73"/><rect class="cls-2" x="109.83" y="32.9" width="3.74" height="3.9"/></g><g class="cls-1"><rect class="cls-2" x="113.39" y="37.53" width="0.18" height="0.68"/></g><rect class="cls-13" x="113.29" y="37.53" width="0.1" height="0.68"/><g class="cls-1"><rect class="cls-2" x="109.92" y="37.53" width="0.18" height="0.68"/></g><rect class="cls-13" x="109.83" y="37.53" width="0.1" height="0.68"/><rect class="cls-10" x="110.12" y="37.53" width="3.18" height="0.67" transform="translate(223.41 75.74) rotate(-180)"/><path class="cls-2" d="M100,41.89c8.22,4.78,21.6,4.78,29.87,0s8.32-12.53.1-17.3-21.6-4.78-29.87,0S91.78,37.11,100,41.89Zm-3.14-8.62c0-2.13,1.73-4.35,4.74-6.08a29.91,29.91,0,0,1,26.86,0c3,1.72,4.65,3.91,4.65,6a4.1,4.1,0,0,1-.29,1.48,9.45,9.45,0,0,1-4.45,4.61,30,30,0,0,1-26.86,0,9.46,9.46,0,0,1-4.37-4.52A4.24,4.24,0,0,1,96.86,33.27Z"/><path class="cls-4" d="M93.92,33.91a4.91,4.91,0,0,0,.08.67,5.29,5.29,0,0,0,.13.54c.06.21.11.42.18.63s.14.34.22.52a5.51,5.51,0,0,0,.31.65,8.57,8.57,0,0,0,.54.9l.1.14a10.82,10.82,0,0,0,.69.86l.14.17c.28.3.58.59.89.87s.43.36.65.54.38.31.59.46.5.34.76.51.52.35.8.52c.64.36,1.31.69,2,1l.6.26c.54.23,1.09.44,1.66.63l.61.21,1.08.31.83.22,1.17.25c.27,0,.53.12.8.16.79.14,1.59.25,2.4.34l.75.06c.48,0,.95.07,1.43.09.3,0,.61,0,.91,0h1.16l1,0,1.07-.06,1-.08,1-.12,1-.13,1.12-.2.87-.17,1.31-.32.73-.2c.77-.23,1.53-.48,2.26-.76l1.07-.46c.18-.08.37-.15.55-.24.53-.25,1-.52,1.55-.8a14.58,14.58,0,0,0,4.68-4.08,8,8,0,0,0,1.55-4.64l0,9.79c0,3.15-2.07,6.3-6.24,8.71-.49.29-1,.55-1.54.81-.18.08-.37.15-.55.24l-1,.41-.12,0c-.73.28-1.49.54-2.27.76a1,1,0,0,1-.18.06l-.54.14-1.31.32-.35.08-.53.1-1.12.19-.44.08-.5.05c-.35,0-.7.09-1.06.12l-.5.06-.47,0-1.07.06-.54,0h-1.59c-.19,0-.38,0-.57,0l-.34,0c-.48,0-1-.06-1.43-.1l-.58,0-.17,0c-.81-.09-1.61-.2-2.4-.34h-.12c-.23,0-.45-.1-.68-.15-.39-.08-.78-.15-1.17-.25s-.55-.14-.83-.22l-1.09-.31-.23-.07-.38-.14q-.84-.29-1.65-.63l-.61-.25c-.69-.32-1.36-.64-2-1l-.26-.15c-.19-.12-.36-.25-.54-.37s-.52-.33-.76-.5l-.59-.47c-.22-.18-.45-.35-.65-.54l-.13-.1c-.27-.26-.52-.51-.76-.77l-.14-.16-.41-.48-.28-.39-.11-.14c-.16-.24-.32-.49-.46-.73l-.07-.16a6.53,6.53,0,0,1-.31-.66c-.06-.13-.13-.26-.18-.39s0-.08,0-.13q-.11-.31-.18-.63a3,3,0,0,1-.12-.43s0-.07,0-.11c0-.22,0-.44-.07-.67a3,3,0,0,1,0-.43c0-.06,0-.12,0-.18l0-9.79C93.87,33.5,93.9,33.71,93.92,33.91Z"/></g><g class="cls-1"><path class="cls-11" d="M114.78,19.26h0v0h0s0,0,0,0h0l0,0h.24l0,0a.1.1,0,0,0,.07-.09v2s0,.07-.07.1h-.27l0,0h0l0,0h0V19.26Z"/><path class="cls-2" d="M114.84,19.15c-.09.05-.09.13,0,.18a.36.36,0,0,0,.32,0c.09,0,.09-.13,0-.18A.36.36,0,0,0,114.84,19.15Z"/></g><g class="cls-1"><path class="cls-11" d="M135.58,31.55h0v0h0s0,0,0,0h0l.05,0h.24l0,0a.1.1,0,0,0,.07-.09v1.84a.09.09,0,0,1-.07.09l0,0h-.24l-.05,0h-.06v0h0V31.55Z"/><path class="cls-2" d="M135.64,31.44c-.09,0-.09.13,0,.18a.36.36,0,0,0,.32,0c.09-.05.09-.13,0-.18A.36.36,0,0,0,135.64,31.44Z"/></g><g class="cls-1"><path class="cls-11" d="M94,31.55h0a0,0,0,0,0,0,0h0s0,0,0,0h0l0,0h.24l0,0a.11.11,0,0,0,.06-.09v1.84a.1.1,0,0,1-.06.09l0,0h-.24l0,0H94v0h0V31.55Z"/><path class="cls-2" d="M94.05,31.44c-.09,0-.09.13,0,.18a.36.36,0,0,0,.32,0,.1.1,0,0,0,0-.18A.36.36,0,0,0,94.05,31.44Z"/></g><g class="cls-1"><path class="cls-11" d="M114.78,43.34h0v0h0s0,0,0,0h0l0,0h.24l0,0a.09.09,0,0,0,.07-.09v2s0,.07-.07.1h-.27l0,0h0l0,0h0V43.34Z"/><path class="cls-2" d="M114.84,43.22c-.09.05-.09.13,0,.18a.31.31,0,0,0,.32,0c.09,0,.09-.13,0-.18A.36.36,0,0,0,114.84,43.22Z"/></g><path class="cls-2" d="M115.06,19.5A29.63,29.63,0,0,1,129.72,23c3.8,2.2,5.89,5.11,5.89,8.18s-2.13,6-6,8.25A29.88,29.88,0,0,1,114.92,43a29.6,29.6,0,0,1-14.66-3.52c-3.81-2.21-5.9-5.11-5.89-8.18s2.13-6,6-8.25a29.88,29.88,0,0,1,14.71-3.52h0m0-.5a30.56,30.56,0,0,0-15,3.58c-8.27,4.78-8.32,12.53-.1,17.31a30.44,30.44,0,0,0,14.92,3.58,30.67,30.67,0,0,0,15-3.58c8.27-4.78,8.31-12.53.09-17.31A30.31,30.31,0,0,0,115.06,19Z"/><path class="cls-11" d="M93.86,31.16c0,3.15,2,6.32,6.14,8.73a30.33,30.33,0,0,0,14.92,3.58,30.52,30.52,0,0,0,15-3.58c4.21-2.43,6.29-5.62,6.24-8.8-.05,3.11-2.13,6.2-6.24,8.57a30.53,30.53,0,0,1-15,3.59A30.33,30.33,0,0,1,100,39.66C96,37.32,93.91,34.24,93.86,31.16Z"/><path class="cls-11" d="M93.86,31.58c0-3.08,2.1-6.16,6.14-8.5a30.33,30.33,0,0,1,14.92-3.59,30.53,30.53,0,0,1,15,3.59c4.11,2.37,6.19,5.46,6.24,8.57,0-3.18-2-6.37-6.24-8.8a30.52,30.52,0,0,0-15-3.58A30.33,30.33,0,0,0,100,22.85C95.85,25.26,93.81,28.42,93.86,31.58Z"/><g class="cls-1"><rect class="cls-11" x="73.5" y="47.49" width="3" height="1.74"/><rect class="cls-2" x="73.5" y="39.49" width="3" height="8"/></g><path id="水-4" data-name="水" class="cls-5" d="M92.86,55.78a9.46,9.46,0,0,1-4.37,4.52,27.63,27.63,0,0,1-13.41,3.17,27.77,27.77,0,0,1-13.45-3.18,9.45,9.45,0,0,1-4.45-4.61,9.49,9.49,0,0,1,4.36-4.5A27.52,27.52,0,0,1,75,48,27.66,27.66,0,0,1,88.4,51.19,9.58,9.58,0,0,1,92.86,55.78Z"/><g id="水流-4" data-name="水流"><line class="cls-6" x1="67.96" y1="53.19" x2="70.77" y2="53.19"/><line class="cls-6" x1="81.85" y1="56" x2="84.67" y2="56"/><line class="cls-6" x1="66.32" y1="59.72" x2="67.69" y2="59.72"/><line class="cls-7" x1="74.59" y1="58.09" x2="76.68" y2="58.09"/><line class="cls-7" x1="63.42" y1="56.18" x2="65.51" y2="56.18"/><line class="cls-7" x1="80.49" y1="51.37" x2="82.58" y2="51.37"/><line class="cls-7" x1="81.38" y1="60.11" x2="83.47" y2="60.11"/></g><g class="cls-1"><path class="cls-4" d="M93.14,54.27a4.24,4.24,0,0,1-.28,1.51,9.58,9.58,0,0,0-4.46-4.59A27.66,27.66,0,0,0,75,48a27.52,27.52,0,0,0-13.41,3.18,9.49,9.49,0,0,0-4.36,4.5,4.1,4.1,0,0,1-.29-1.48c0-2.11,1.69-4.3,4.65-6A27.52,27.52,0,0,1,75,45,27.66,27.66,0,0,1,88.4,48.19C91.41,49.92,93.13,52.14,93.14,54.27Z"/><g class="cls-1"><path class="cls-8" d="M85.85,49.83c-.36-.21-.74-.4-1.12-.59l-.4-.17c-.23-.1-.45-.21-.69-.3l-.09,0c-.53-.21-1.08-.39-1.64-.56l-.13,0-.4-.1-1-.23a1.83,1.83,0,0,0-.25-.06l-.39-.07L79,47.54l-.33-.06-.37,0-.77-.09-.36,0-.35,0-.78,0-.39,0H74.45c-.14,0-.28,0-.42,0h-.24l-1.05.07c-.14,0-.28,0-.42,0l-.12,0c-.6.06-1.18.14-1.76.24l-.09,0-.49.1-.85.18-.61.17-.79.22-.17.05-.28.11q-.61.21-1.2.45l-.44.19a13.87,13.87,0,0,0-1.44.73l-.19.11c-.14.08-.26.18-.4.27l-.55.36-.43.34L62,51.3l-.09.08c-.2.18-.38.37-.56.56l-.1.12L61,52.4l-.11.16q-.2.27-.36.54a1.7,1.7,0,0,0-.15.22l-.06.12c-.08.16-.15.32-.22.48a2.39,2.39,0,0,0-.13.28.32.32,0,0,0,0,.09,4.12,4.12,0,0,0-.13.47c0,.1-.07.2-.09.3a.28.28,0,0,0,0,.09c0,.16,0,.32-.06.49s0,.21,0,.31a.66.66,0,0,0,0,.14v.81c0-.15,0-.3,0-.45a4.36,4.36,0,0,1,.06-.49c0-.13.06-.26.09-.39a4,4,0,0,1,.14-.46c0-.13.1-.25.15-.38a5.24,5.24,0,0,1,.23-.48c.06-.11.14-.22.21-.34a4.5,4.5,0,0,1,.36-.53,5.93,5.93,0,0,1,.4-.51l.1-.12c.2-.21.42-.43.65-.64l.47-.38.43-.34c.17-.13.36-.25.55-.37s.38-.26.58-.38c.46-.26,1-.5,1.45-.73l.44-.18c.39-.17.79-.32,1.2-.46.15-.05.3-.11.45-.15l.79-.23.61-.16c.28-.07.56-.13.85-.18s.38-.09.58-.12c.58-.1,1.16-.18,1.75-.25l.55,0c.35,0,.7-.06,1.05-.07l.66,0h.85l.7,0,.79,0c.24,0,.47,0,.71.06l.77.08.69.1.82.14.64.13,1,.24.52.14c.57.16,1.12.35,1.65.55l.78.33c.13.06.27.11.4.18.38.18.76.37,1.12.58,3,1.75,4.54,4,4.53,6.35v-.82C90.39,53.88,88.88,51.58,85.85,49.83Z"/><path class="cls-9" d="M86.46,49.47c-6.36-3.67-16.67-3.67-23,0s-6.29,9.65.08,13.33,16.68,3.67,23,0S92.82,53.15,86.46,49.47Zm-.54,13c-6,3.48-15.75,3.48-21.77,0s-6.06-9.14-.07-12.61,15.75-3.48,21.77,0S91.9,59,85.92,62.44Z"/><path class="cls-8" d="M91.22,56.66c0,.17,0,.34-.06.51s-.07.28-.11.42-.08.32-.14.49-.11.26-.16.39-.15.34-.24.51l-.22.36c-.12.19-.24.38-.38.57a6.67,6.67,0,0,1-.43.53l-.11.13c-.21.23-.44.45-.68.67s-.33.27-.5.41l-.45.36-.58.39c-.21.13-.4.27-.62.4-.49.28-1,.53-1.53.77l-.46.2c-.42.17-.84.33-1.27.48l-.48.16c-.27.09-.55.16-.83.24l-.64.17-.9.19-.62.13c-.61.1-1.22.19-1.85.25l-.57,0-1.11.08-.7,0h-.9l-.74,0-.83,0-.75-.07c-.28,0-.55,0-.82-.09l-.73-.1L70,65.07l-.67-.14c-.35-.07-.68-.16-1-.25l-.55-.14c-.6-.18-1.18-.37-1.74-.59l-.82-.35-.42-.18c-.41-.2-.81-.4-1.19-.62-3.2-1.85-4.8-4.28-4.8-6.71v.82c0,2.42,1.59,4.85,4.8,6.7.38.22.78.43,1.19.62l.41.19.73.31.09,0c.57.22,1.15.42,1.75.59l.13.05.42.1,1,.25.27.06.41.07c.29.06.57.11.86.15l.34.06.39,0,.81.09.39,0,.37,0,.83,0,.41,0c.11,0,.22,0,.33,0H76l.26,0c.37,0,.74,0,1.11-.07l.44,0,.13,0c.62-.07,1.24-.15,1.85-.26h.1l.52-.11.89-.19.65-.18.83-.23.18-.06.29-.11a12.8,12.8,0,0,0,1.27-.48l.47-.2a15.62,15.62,0,0,0,1.53-.77l.19-.11.42-.29c.2-.12.4-.25.58-.38s.31-.24.46-.36l.5-.41.1-.08c.21-.2.4-.4.58-.6l.11-.13c.11-.12.22-.24.31-.36a1,1,0,0,0,.12-.17c.14-.18.26-.37.38-.56l.16-.24a1.39,1.39,0,0,1,.06-.13,4.52,4.52,0,0,0,.23-.5c.05-.1.1-.2.14-.3l0-.1a3.94,3.94,0,0,0,.14-.49c0-.11.07-.21.09-.32s0-.06,0-.09a4.57,4.57,0,0,0,0-.52c0-.11,0-.22,0-.33v-1C91.26,56.34,91.23,56.5,91.22,56.66Z"/></g><path class="cls-2" d="M89.9,45.59c-8.27-4.78-21.65-4.78-29.87,0s-8.18,12.52.1,17.3,21.65,4.78,29.87,0S98.18,50.36,89.9,45.59Zm3,10.19a9.46,9.46,0,0,1-4.37,4.52,27.63,27.63,0,0,1-13.41,3.17,27.77,27.77,0,0,1-13.45-3.18,9.45,9.45,0,0,1-4.45-4.61,4.1,4.1,0,0,1-.29-1.48c0-2.11,1.69-4.3,4.65-6A27.52,27.52,0,0,1,75,45,27.66,27.66,0,0,1,88.4,48.19c3,1.73,4.73,4,4.74,6.08A4.24,4.24,0,0,1,92.86,55.78Z"/><g class="cls-1"><rect class="cls-11" x="73.5" y="53.77" width="3" height="1.74"/><rect class="cls-12" x="73.5" y="45.77" width="3" height="8"/></g><g class="cls-1"><rect class="cls-11" x="72.49" y="56.2" width="5" height="0.67"/><rect class="cls-2" x="72.49" y="53.13" width="5" height="3.07"/></g><g class="cls-1"><rect class="cls-2" x="72.5" y="56.87" width="0.18" height="0.68"/></g><rect class="cls-13" x="72.68" y="56.87" width="0.1" height="0.68"/><g class="cls-1"><rect class="cls-2" x="77.22" y="56.87" width="0.18" height="0.68"/></g><rect class="cls-13" x="77.4" y="56.87" width="0.1" height="0.68"/><rect class="cls-10" x="72.77" y="56.87" width="4.44" height="0.68"/><rect class="cls-2" x="74.67" y="56.59" width="0.64" height="3.83"/><rect class="cls-2" x="73.65" y="45.84" width="0.17" height="7.06" rx="0.08" transform="translate(147.48 98.74) rotate(180)"/><rect class="cls-2" x="76.17" y="45.84" width="0.17" height="7.06" rx="0.08" transform="translate(152.52 98.74) rotate(180)"/><path class="cls-4" d="M96.08,54.91a4.91,4.91,0,0,1-.08.67,5.29,5.29,0,0,1-.13.54c-.06.21-.11.42-.18.63s-.14.34-.22.52a5.51,5.51,0,0,1-.31.65,8.57,8.57,0,0,1-.54.9l-.1.14a10.82,10.82,0,0,1-.69.86l-.14.17c-.28.3-.58.59-.89.87s-.43.36-.65.54-.38.31-.59.46-.5.34-.76.51-.52.35-.8.52c-.64.36-1.31.69-2,1l-.6.26c-.54.23-1.09.44-1.66.63l-.61.21-1.08.31-.83.22-1.17.25c-.27,0-.53.12-.8.16-.79.14-1.59.25-2.4.34l-.75.06c-.48,0-.95.07-1.43.09-.3,0-.61,0-.91,0H74.6l-1,0-1.07-.06-1-.08q-.52,0-1-.12l-1-.13-1.12-.2-.87-.17-1.31-.32-.73-.2c-.77-.23-1.53-.48-2.26-.76l-1.07-.46c-.18-.08-.37-.15-.55-.24-.53-.25-1.05-.52-1.55-.8a14.58,14.58,0,0,1-4.68-4.08,8,8,0,0,1-1.55-4.64l0,9.79c0,3.15,2.07,6.3,6.24,8.71.49.29,1,.55,1.54.81.18.08.37.15.55.24l1,.41.12,0c.73.28,1.49.54,2.27.76a1,1,0,0,0,.18.06l.54.14,1.31.32.35.08.53.1,1.12.19.44.08.5,0c.35,0,.7.09,1.06.12l.5.06.47,0,1.07.06c.18,0,.36,0,.54,0H76.3l.34,0c.48,0,1-.06,1.43-.1l.58,0,.17,0c.81-.09,1.61-.2,2.4-.34h.12c.23,0,.45-.1.68-.15.39-.08.78-.15,1.17-.25s.55-.14.83-.22l1.09-.31.23-.07.38-.14q.84-.28,1.65-.63l.61-.25c.69-.32,1.36-.64,2-1l.26-.15c.19-.12.36-.25.54-.37s.52-.33.76-.5l.59-.47c.22-.18.45-.35.65-.54l.13-.1c.27-.26.52-.51.76-.77l.14-.16.41-.48.28-.39.11-.14c.16-.24.32-.49.46-.73l.07-.16a6.53,6.53,0,0,0,.31-.66c.06-.13.13-.26.18-.39s0-.08,0-.13q.11-.32.18-.63a3,3,0,0,0,.12-.43s0-.07,0-.11c0-.22,0-.44.07-.67a3,3,0,0,0,0-.43c0-.06,0-.12,0-.18l0-9.79C96.13,54.5,96.1,54.71,96.08,54.91Z"/></g><g class="cls-1"><path class="cls-11" d="M75.22,40.26h0v0h0s0,0,0,0h0l0,0h-.24l0,0a.1.1,0,0,1-.07-.09v2s0,.07.07.1h.27l0,0h0l0,0h0V40.26Z"/><path class="cls-2" d="M75.16,40.15c.09.05.09.13,0,.18a.36.36,0,0,1-.32,0c-.09,0-.09-.13,0-.18A.36.36,0,0,1,75.16,40.15Z"/></g><g class="cls-1"><path class="cls-11" d="M54.42,52.55h0v0h0l0,0h0l0,0h-.24l0,0a.1.1,0,0,1-.07-.09v1.84a.09.09,0,0,0,.07.09l0,0h.24l0,0h.06v0h0V52.55Z"/><path class="cls-2" d="M54.36,52.44c.09.05.09.13,0,.18a.36.36,0,0,1-.32,0c-.09,0-.09-.13,0-.18A.36.36,0,0,1,54.36,52.44Z"/></g><g class="cls-1"><path class="cls-11" d="M96,52.55h0v0h0s0,0,0,0h0l0,0h-.24l0,0a.11.11,0,0,1-.06-.09v1.84a.1.1,0,0,0,.06.09l0,0h.24l0,0H96v0h0V52.55Z"/><path class="cls-2" d="M96,52.44c.09.05.09.13,0,.18a.36.36,0,0,1-.32,0,.1.1,0,0,1,0-.18A.36.36,0,0,1,96,52.44Z"/></g><g class="cls-1"><path class="cls-11" d="M75.22,64.34h0s0,0,0,0h0s0,0,0,0h0l0,0h-.24l0,0a.09.09,0,0,1-.07-.09v2s0,.07.07.1h.27l0,0h0l0,0h0V64.34Z"/><path class="cls-2" d="M75.16,64.22c.09,0,.09.13,0,.18a.31.31,0,0,1-.32,0c-.09-.05-.09-.13,0-.18A.36.36,0,0,1,75.16,64.22Z"/></g><path class="cls-2" d="M74.94,40.5h0A29.88,29.88,0,0,1,89.65,44c3.85,2.22,6,5.15,6,8.25s-2.08,6-5.89,8.18A29.6,29.6,0,0,1,75.08,64a29.88,29.88,0,0,1-14.71-3.52c-3.85-2.22-6-5.15-6-8.25s2.09-6,5.89-8.18A29.63,29.63,0,0,1,74.94,40.5m0-.5A30.31,30.31,0,0,0,60,43.58c-8.22,4.78-8.18,12.53.09,17.31a30.67,30.67,0,0,0,15,3.58A30.44,30.44,0,0,0,90,60.89c8.22-4.78,8.17-12.53-.1-17.31a30.56,30.56,0,0,0-15-3.58Z"/><path class="cls-11" d="M90,60.66a30.33,30.33,0,0,1-14.92,3.59,30.53,30.53,0,0,1-14.95-3.59c-4.11-2.37-6.19-5.46-6.24-8.57,0,3.18,2,6.37,6.24,8.8a30.52,30.52,0,0,0,14.95,3.58A30.33,30.33,0,0,0,90,60.89c4.15-2.41,6.19-5.58,6.14-8.73C96.09,55.24,94,58.32,90,60.66Z"/><path class="cls-11" d="M90,43.85a30.33,30.33,0,0,0-14.92-3.58,30.52,30.52,0,0,0-14.95,3.58c-4.21,2.43-6.29,5.62-6.24,8.8,0-3.11,2.13-6.2,6.24-8.57a30.53,30.53,0,0,1,14.95-3.59A30.33,30.33,0,0,1,90,44.08c4,2.34,6.09,5.42,6.14,8.5C96.19,49.42,94.15,46.26,90,43.85Z"/></g></g></g></svg>