<svg xmlns="http://www.w3.org/2000/svg" viewBox="0 0 150 105.07"><defs><style>.cls-1{isolation:isolate;}.cls-2,.cls-9{fill:#fff;}.cls-3{fill:#c3ccd9;}.cls-4{fill:#7a8799;}.cls-5{fill:#dcdcdc;}.cls-6{fill:#8e4f4e;}.cls-7{fill:#cc807e;}.cls-8{fill:#ffb5b3;}.cls-9{mix-blend-mode:soft-light;}.cls-10{fill:#2e8be6;}.cls-11{fill:#1461cc;}.cls-12{fill:#003899;}.cls-13{fill:#6ee7ff;}.cls-14,.cls-15{fill:none;stroke:#fff;stroke-linecap:round;stroke-miterlimit:10;}.cls-15{opacity:0.6;}.cls-16{fill:#6b7e99;}.cls-17{fill:#ffcd33;}.cls-18{fill:#cc6114;}.cls-19{fill:#e68a2e;}.cls-20{fill:#8a9099;}.cls-21{fill:#898989;}.cls-22{fill:#004ab3;}.cls-23{fill:#ffac4d;}.cls-24{fill:#e5f0ff;}.cls-25{fill:#15d1d1;}.cls-26{opacity:0.2;}</style></defs><title>Pool（水池4）</title><g id="图层_2" data-name="图层 2"><g id="风格1"><g id="Pool_水池4_" data-name="Pool（水池4）"><g class="cls-1"><polygon class="cls-2" points="0 58.08 74.75 101.51 149.98 58.08 75.23 14.64 0 58.08"/><polygon class="cls-3" points="0 58.08 0.02 61.63 74.77 105.07 74.75 101.51 0 58.08"/><polygon class="cls-4" points="74.75 101.51 74.77 105.07 150 61.63 149.98 58.08 74.75 101.51"/></g><g class="cls-1"><polygon class="cls-5" points="7.65 41.77 74.73 80.6 142.7 41.36 74.72 2.53 7.65 41.77"/><polygon class="cls-6" points="10.71 59.96 6.71 57.65 6.71 56.63 10.71 58.94 10.71 59.96"/><polygon class="cls-6" points="14.71 62.27 10.71 59.96 10.71 58.94 14.71 61.25 14.71 62.27"/><polygon class="cls-6" points="18.71 64.58 14.71 62.27 14.71 61.25 18.71 63.56 18.71 64.58"/><polygon class="cls-6" points="22.71 66.89 18.71 64.58 18.71 63.56 22.71 65.87 22.71 66.89"/><polygon class="cls-6" points="26.71 69.2 22.71 66.89 22.71 65.87 26.71 68.18 26.71 69.2"/><polygon class="cls-6" points="31.09 71.73 26.71 69.2 26.71 68.18 31.09 70.71 31.09 71.73"/><polygon class="cls-7" points="8.94 57.92 6.71 56.63 6.71 55.62 8.94 56.9 8.94 57.92"/><polygon class="cls-7" points="31.09 70.71 29.32 69.69 29.32 68.67 31.09 69.69 31.09 70.71"/><polygon class="cls-6" points="12.94 60.23 8.94 57.92 8.94 56.9 12.94 59.21 12.94 60.23"/><polygon class="cls-7" points="16.94 62.54 12.94 60.23 12.94 59.21 16.94 61.52 16.94 62.54"/><polygon class="cls-6" points="20.94 64.85 16.94 62.54 16.94 61.52 20.94 63.83 20.94 64.85"/><polygon class="cls-7" points="24.94 67.16 20.94 64.85 20.94 63.83 24.94 66.14 24.94 67.16"/><polygon class="cls-6" points="29.32 69.69 24.94 67.16 24.94 66.14 29.32 68.67 29.32 69.69"/><polygon class="cls-8" points="10.71 57.92 6.71 55.61 6.71 54.59 10.71 56.9 10.71 57.92"/><polygon class="cls-7" points="14.71 60.23 10.71 57.92 10.71 56.9 14.71 59.21 14.71 60.23"/><polygon class="cls-7" points="18.71 62.54 14.71 60.23 14.71 59.21 18.71 61.52 18.71 62.54"/><polygon class="cls-7" points="22.71 64.85 18.71 62.54 18.71 61.52 22.71 63.83 22.71 64.85"/><polygon class="cls-7" points="26.71 67.16 22.71 64.85 22.71 63.83 26.71 66.14 26.71 67.16"/><polygon class="cls-7" points="31.09 69.69 26.71 67.16 26.71 66.14 31.09 68.67 31.09 69.69"/><polygon class="cls-7" points="8.94 55.88 6.71 54.59 6.71 53.57 8.94 54.86 8.94 55.88"/><polygon class="cls-6" points="31.09 68.67 29.32 67.65 29.32 66.63 31.09 67.65 31.09 68.67"/><polygon class="cls-7" points="12.94 58.19 8.94 55.88 8.94 54.86 12.94 57.17 12.94 58.19"/><polygon class="cls-6" points="16.94 60.5 12.94 58.19 12.94 57.17 16.94 59.48 16.94 60.5"/><polygon class="cls-8" points="20.94 62.81 16.94 60.5 16.94 59.48 20.94 61.79 20.94 62.81"/><polygon class="cls-7" points="24.94 65.12 20.94 62.81 20.94 61.79 24.94 64.1 24.94 65.12"/><polygon class="cls-7" points="29.32 67.65 24.94 65.12 24.94 64.1 29.32 66.63 29.32 67.65"/><polygon class="cls-8" points="10.71 55.88 6.71 53.57 6.71 52.55 10.71 54.86 10.71 55.88"/><polygon class="cls-7" points="14.71 58.19 10.71 55.88 10.71 54.86 14.71 57.17 14.71 58.19"/><polygon class="cls-7" points="18.71 60.5 14.71 58.19 14.71 57.17 18.71 59.48 18.71 60.5"/><polygon class="cls-7" points="22.71 62.81 18.71 60.5 18.71 59.48 22.71 61.79 22.71 62.81"/><polygon class="cls-6" points="26.71 65.12 22.71 62.81 22.71 61.79 26.71 64.1 26.71 65.12"/><polygon class="cls-7" points="31.09 67.65 26.71 65.12 26.71 64.1 31.09 66.63 31.09 67.65"/><polygon class="cls-7" points="8.94 53.84 6.71 52.55 6.71 51.53 8.94 52.82 8.94 53.84"/><polygon class="cls-7" points="31.09 66.63 29.32 65.61 29.32 64.59 31.09 65.61 31.09 66.63"/><polygon class="cls-7" points="12.94 56.15 8.94 53.84 8.94 52.82 12.94 55.13 12.94 56.15"/><polygon class="cls-7" points="16.94 58.46 12.94 56.15 12.94 55.13 16.94 57.44 16.94 58.46"/><polygon class="cls-6" points="20.94 60.77 16.94 58.46 16.94 57.44 20.94 59.75 20.94 60.77"/><polygon class="cls-7" points="24.94 63.08 20.94 60.77 20.94 59.75 24.94 62.06 24.94 63.08"/><polygon class="cls-7" points="29.32 65.61 24.94 63.08 24.94 62.06 29.32 64.59 29.32 65.61"/><polygon class="cls-7" points="10.71 53.84 6.71 51.53 6.71 50.51 10.71 52.82 10.71 53.84"/><polygon class="cls-8" points="14.71 56.15 10.71 53.84 10.71 52.82 14.71 55.13 14.71 56.15"/><polygon class="cls-7" points="18.71 58.46 14.71 56.15 14.71 55.13 18.71 57.44 18.71 58.46"/><polygon class="cls-7" points="22.71 60.77 18.71 58.46 18.71 57.44 22.71 59.75 22.71 60.77"/><polygon class="cls-7" points="26.71 63.08 22.71 60.77 22.71 59.75 26.71 62.06 26.71 63.08"/><polygon class="cls-8" points="31.09 65.61 26.71 63.08 26.71 62.06 31.09 64.59 31.09 65.61"/><polygon class="cls-6" points="8.94 51.8 6.71 50.51 6.71 49.49 8.94 50.78 8.94 51.8"/><polygon class="cls-7" points="31.09 64.59 29.32 63.57 29.32 62.55 31.09 63.57 31.09 64.59"/><polygon class="cls-7" points="12.94 54.11 8.94 51.8 8.94 50.78 12.94 53.09 12.94 54.11"/><polygon class="cls-7" points="16.94 56.42 12.94 54.11 12.94 53.09 16.94 55.4 16.94 56.42"/><polygon class="cls-7" points="20.94 58.73 16.94 56.42 16.94 55.4 20.94 57.71 20.94 58.73"/><polygon class="cls-8" points="24.94 61.04 20.94 58.73 20.94 57.71 24.94 60.02 24.94 61.04"/><polygon class="cls-7" points="29.32 63.57 24.94 61.04 24.94 60.02 29.32 62.55 29.32 63.57"/><polygon class="cls-7" points="10.71 51.8 6.71 49.49 6.71 48.47 10.71 50.78 10.71 51.8"/><polygon class="cls-7" points="14.71 54.11 10.71 51.8 10.71 50.78 14.71 53.09 14.71 54.11"/><polygon class="cls-7" points="18.71 56.42 14.71 54.11 14.71 53.09 18.71 55.4 18.71 56.42"/><polygon class="cls-7" points="22.71 58.73 18.71 56.42 18.71 55.4 22.71 57.71 22.71 58.73"/><polygon class="cls-7" points="26.71 61.04 22.71 58.73 22.71 57.71 26.71 60.02 26.71 61.04"/><polygon class="cls-7" points="31.09 63.57 26.71 61.04 26.71 60.02 31.09 62.55 31.09 63.57"/><polygon class="cls-7" points="8.94 49.76 6.71 48.47 6.71 47.45 8.94 48.74 8.94 49.76"/><polygon class="cls-7" points="31.09 62.55 29.32 61.53 29.32 60.51 31.09 61.53 31.09 62.55"/><polygon class="cls-6" points="12.94 52.07 8.94 49.76 8.94 48.74 12.94 51.05 12.94 52.07"/><polygon class="cls-8" points="16.94 54.38 12.94 52.07 12.94 51.05 16.94 53.36 16.94 54.38"/><polygon class="cls-6" points="20.94 56.69 16.94 54.38 16.94 53.36 20.94 55.67 20.94 56.69"/><polygon class="cls-7" points="24.94 59 20.94 56.69 20.94 55.67 24.94 57.98 24.94 59"/><polygon class="cls-6" points="29.32 61.53 24.94 59 24.94 57.98 29.32 60.51 29.32 61.53"/><polygon class="cls-7" points="10.71 49.76 6.71 47.45 6.71 46.43 10.71 48.74 10.71 49.76"/><polygon class="cls-7" points="14.71 52.07 10.71 49.76 10.71 48.74 14.71 51.05 14.71 52.07"/><polygon class="cls-7" points="18.71 54.38 14.71 52.07 14.71 51.05 18.71 53.36 18.71 54.38"/><polygon class="cls-7" points="22.71 56.69 18.71 54.38 18.71 53.36 22.71 55.67 22.71 56.69"/><polygon class="cls-7" points="26.71 59 22.71 56.69 22.71 55.67 26.71 57.98 26.71 59"/><polygon class="cls-7" points="31.09 61.53 26.71 59 26.71 57.98 31.09 60.51 31.09 61.53"/><polygon class="cls-7" points="8.94 47.72 6.71 46.43 6.71 45.41 8.94 46.7 8.94 47.72"/><polygon class="cls-6" points="31.09 60.51 29.32 59.49 29.32 58.47 31.09 59.49 31.09 60.51"/><polygon class="cls-7" points="12.94 50.03 8.94 47.72 8.94 46.7 12.94 49.01 12.94 50.03"/><polygon class="cls-6" points="16.94 52.34 12.94 50.03 12.94 49.01 16.94 51.32 16.94 52.34"/><polygon class="cls-7" points="20.94 54.65 16.94 52.34 16.94 51.32 20.94 53.63 20.94 54.65"/><polygon class="cls-8" points="24.94 56.95 20.94 54.65 20.94 53.63 24.94 55.94 24.94 56.95"/><polygon class="cls-7" points="29.32 59.49 24.94 56.95 24.94 55.94 29.32 58.47 29.32 59.49"/><polygon class="cls-7" points="10.71 47.72 6.71 45.41 6.71 44.39 10.71 46.7 10.71 47.72"/><polygon class="cls-7" points="14.71 50.03 10.71 47.72 10.71 46.7 14.71 49.01 14.71 50.03"/><polygon class="cls-7" points="18.71 52.34 14.71 50.03 14.71 49.01 18.71 51.32 18.71 52.34"/><polygon class="cls-7" points="22.71 54.65 18.71 52.34 18.71 51.32 22.71 53.63 22.71 54.65"/><polygon class="cls-6" points="26.71 56.96 22.71 54.65 22.71 53.63 26.71 55.94 26.71 56.96"/><polygon class="cls-7" points="31.09 59.49 26.71 56.96 26.71 55.94 31.09 58.47 31.09 59.49"/><polygon class="cls-8" points="8.94 45.68 6.71 44.39 6.71 43.37 8.94 44.66 8.94 45.68"/><polygon class="cls-8" points="31.09 58.47 29.32 57.45 29.32 56.43 31.09 57.45 31.09 58.47"/><polygon class="cls-7" points="12.94 47.99 8.94 45.68 8.94 44.66 12.94 46.97 12.94 47.99"/><polygon class="cls-7" points="16.94 50.3 12.94 47.99 12.94 46.97 16.94 49.28 16.94 50.3"/><polygon class="cls-7" points="20.94 52.61 16.94 50.3 16.94 49.28 20.94 51.59 20.94 52.61"/><polygon class="cls-7" points="24.94 54.91 20.94 52.61 20.94 51.59 24.94 53.9 24.94 54.91"/><polygon class="cls-7" points="29.32 57.45 24.94 54.91 24.94 53.9 29.32 56.43 29.32 57.45"/><polygon class="cls-7" points="10.71 45.68 6.71 43.37 6.71 42.35 10.71 44.66 10.71 45.68"/><polygon class="cls-7" points="14.71 47.99 10.71 45.68 10.71 44.66 14.71 46.97 14.71 47.99"/><polygon class="cls-7" points="18.71 50.3 14.71 47.99 14.71 46.97 18.71 49.28 18.71 50.3"/><polygon class="cls-8" points="22.71 52.61 18.71 50.3 18.71 49.28 22.71 51.59 22.71 52.61"/><polygon class="cls-7" points="26.71 54.92 22.71 52.61 22.71 51.59 26.71 53.9 26.71 54.92"/><polygon class="cls-7" points="31.09 57.45 26.71 54.92 26.71 53.9 31.09 56.43 31.09 57.45"/><polygon class="cls-7" points="8.94 43.64 6.71 42.35 6.71 41.33 8.94 42.62 8.94 43.64"/><polygon class="cls-7" points="31.09 56.43 29.32 55.41 29.32 54.39 31.09 55.41 31.09 56.43"/><polygon class="cls-7" points="12.94 45.95 8.94 43.64 8.94 42.62 12.94 44.93 12.94 45.95"/><polygon class="cls-8" points="16.94 48.26 12.94 45.95 12.94 44.93 16.94 47.24 16.94 48.26"/><polygon class="cls-7" points="20.94 50.56 16.94 48.26 16.94 47.24 20.94 49.55 20.94 50.56"/><polygon class="cls-7" points="24.94 52.88 20.94 50.56 20.94 49.55 24.94 51.85 24.94 52.88"/><polygon class="cls-8" points="29.32 55.41 24.94 52.88 24.94 51.85 29.32 54.39 29.32 55.41"/><polygon class="cls-6" points="35.09 74.04 31.09 71.73 31.09 70.71 35.09 73.02 35.09 74.04"/><polygon class="cls-6" points="39.09 76.35 35.09 74.04 35.09 73.02 39.09 75.33 39.09 76.35"/><polygon class="cls-6" points="43.09 78.66 39.09 76.35 39.09 75.33 43.09 77.64 43.09 78.66"/><polygon class="cls-6" points="47.09 80.97 43.09 78.66 43.09 77.64 47.09 79.95 47.09 80.97"/><polygon class="cls-6" points="51.09 83.28 47.09 80.97 47.09 79.95 51.09 82.26 51.09 83.28"/><polygon class="cls-6" points="55.48 85.81 51.09 83.28 51.09 82.26 55.48 84.79 55.48 85.81"/><polygon class="cls-7" points="33.32 72 31.1 70.71 31.1 69.69 33.32 70.98 33.32 72"/><polygon class="cls-7" points="55.48 84.79 53.71 83.77 53.71 82.75 55.48 83.77 55.48 84.79"/><polygon class="cls-6" points="37.32 74.31 33.32 72 33.32 70.98 37.32 73.29 37.32 74.31"/><polygon class="cls-7" points="41.32 76.62 37.32 74.31 37.32 73.29 41.32 75.6 41.32 76.62"/><polygon class="cls-6" points="45.32 78.93 41.32 76.62 41.32 75.6 45.32 77.91 45.32 78.93"/><polygon class="cls-7" points="49.32 81.24 45.32 78.93 45.32 77.91 49.32 80.22 49.32 81.24"/><polygon class="cls-6" points="53.71 83.77 49.32 81.24 49.32 80.22 53.71 82.75 53.71 83.77"/><polygon class="cls-8" points="35.09 72 31.09 69.69 31.09 68.67 35.09 70.98 35.09 72"/><polygon class="cls-7" points="39.09 74.31 35.09 72 35.09 70.98 39.09 73.29 39.09 74.31"/><polygon class="cls-7" points="43.09 76.62 39.09 74.31 39.09 73.29 43.09 75.6 43.09 76.62"/><polygon class="cls-7" points="47.09 78.93 43.09 76.62 43.09 75.6 47.09 77.91 47.09 78.93"/><polygon class="cls-7" points="51.09 81.24 47.09 78.93 47.09 77.91 51.09 80.22 51.09 81.24"/><polygon class="cls-7" points="55.48 83.77 51.09 81.24 51.09 80.22 55.48 82.75 55.48 83.77"/><polygon class="cls-7" points="33.32 69.96 31.1 68.67 31.1 67.65 33.32 68.94 33.32 69.96"/><polygon class="cls-6" points="55.48 82.75 53.71 81.73 53.71 80.71 55.48 81.73 55.48 82.75"/><polygon class="cls-7" points="37.32 72.27 33.32 69.96 33.32 68.94 37.32 71.25 37.32 72.27"/><polygon class="cls-6" points="41.32 74.58 37.32 72.27 37.32 71.25 41.32 73.56 41.32 74.58"/><polygon class="cls-8" points="45.32 76.89 41.32 74.58 41.32 73.56 45.32 75.87 45.32 76.89"/><polygon class="cls-7" points="49.32 79.19 45.32 76.89 45.32 75.87 49.32 78.17 49.32 79.19"/><polygon class="cls-7" points="53.71 81.73 49.32 79.19 49.32 78.17 53.71 80.71 53.71 81.73"/><polygon class="cls-8" points="35.09 69.96 31.09 67.65 31.09 66.63 35.09 68.94 35.09 69.96"/><polygon class="cls-7" points="39.09 72.27 35.09 69.96 35.09 68.94 39.09 71.25 39.09 72.27"/><polygon class="cls-7" points="43.09 74.58 39.09 72.27 39.09 71.25 43.09 73.56 43.09 74.58"/><polygon class="cls-7" points="47.09 76.89 43.09 74.58 43.09 73.56 47.09 75.87 47.09 76.89"/><polygon class="cls-6" points="51.09 79.2 47.09 76.89 47.09 75.87 51.09 78.18 51.09 79.2"/><polygon class="cls-7" points="55.48 81.73 51.09 79.2 51.09 78.18 55.48 80.71 55.48 81.73"/><polygon class="cls-7" points="33.32 67.92 31.1 66.63 31.1 65.61 33.32 66.9 33.32 67.92"/><polygon class="cls-7" points="55.48 80.71 53.71 79.69 53.71 78.67 55.48 79.69 55.48 80.71"/><polygon class="cls-7" points="37.32 70.23 33.32 67.92 33.32 66.9 37.32 69.21 37.32 70.23"/><polygon class="cls-7" points="41.32 72.54 37.32 70.23 37.32 69.21 41.32 71.52 41.32 72.54"/><polygon class="cls-6" points="45.32 74.85 41.32 72.54 41.32 71.52 45.32 73.83 45.32 74.85"/><polygon class="cls-7" points="49.32 77.16 45.32 74.85 45.32 73.83 49.32 76.14 49.32 77.16"/><polygon class="cls-7" points="53.71 79.69 49.32 77.16 49.32 76.14 53.71 78.67 53.71 79.69"/><polygon class="cls-7" points="35.09 67.92 31.09 65.61 31.09 64.59 35.09 66.9 35.09 67.92"/><polygon class="cls-8" points="39.09 70.23 35.09 67.92 35.09 66.9 39.09 69.21 39.09 70.23"/><polygon class="cls-7" points="43.09 72.54 39.09 70.23 39.09 69.21 43.09 71.52 43.09 72.54"/><polygon class="cls-7" points="47.09 74.85 43.09 72.54 43.09 71.52 47.09 73.83 47.09 74.85"/><polygon class="cls-7" points="51.09 77.16 47.09 74.85 47.09 73.83 51.09 76.14 51.09 77.16"/><polygon class="cls-8" points="55.48 79.69 51.09 77.16 51.09 76.14 55.48 78.67 55.48 79.69"/><polygon class="cls-6" points="33.32 65.88 31.1 64.59 31.1 63.57 33.32 64.86 33.32 65.88"/><polygon class="cls-7" points="55.48 78.67 53.71 77.65 53.71 76.63 55.48 77.65 55.48 78.67"/><polygon class="cls-7" points="37.32 68.19 33.32 65.88 33.32 64.86 37.32 67.17 37.32 68.19"/><polygon class="cls-7" points="41.32 70.5 37.32 68.19 37.32 67.17 41.32 69.48 41.32 70.5"/><polygon class="cls-7" points="45.32 72.81 41.32 70.5 41.32 69.48 45.32 71.78 45.32 72.81"/><polygon class="cls-8" points="49.32 75.11 45.32 72.81 45.32 71.78 49.32 74.09 49.32 75.11"/><polygon class="cls-7" points="53.71 77.65 49.32 75.11 49.32 74.09 53.71 76.63 53.71 77.65"/><polygon class="cls-7" points="35.09 65.88 31.09 63.57 31.09 62.55 35.09 64.86 35.09 65.88"/><polygon class="cls-7" points="39.09 68.19 35.09 65.88 35.09 64.86 39.09 67.17 39.09 68.19"/><polygon class="cls-7" points="43.09 70.5 39.09 68.19 39.09 67.17 43.09 69.48 43.09 70.5"/><polygon class="cls-7" points="47.09 72.81 43.09 70.5 43.09 69.48 47.09 71.79 47.09 72.81"/><polygon class="cls-7" points="51.09 75.12 47.09 72.81 47.09 71.79 51.09 74.1 51.09 75.12"/><polygon class="cls-7" points="55.48 77.65 51.09 75.12 51.09 74.1 55.48 76.63 55.48 77.65"/><polygon class="cls-7" points="33.32 63.84 31.1 62.55 31.1 61.53 33.32 62.82 33.32 63.84"/><polygon class="cls-7" points="55.48 76.63 53.71 75.61 53.71 74.59 55.48 75.61 55.48 76.63"/><polygon class="cls-6" points="37.32 66.15 33.32 63.84 33.32 62.82 37.32 65.13 37.32 66.15"/><polygon class="cls-8" points="41.32 68.45 37.32 66.15 37.32 65.13 41.32 67.44 41.32 68.45"/><polygon class="cls-6" points="45.32 70.77 41.32 68.45 41.32 67.44 45.32 69.75 45.32 70.77"/><polygon class="cls-7" points="49.32 73.07 45.32 70.77 45.32 69.75 49.32 72.05 49.32 73.07"/><polygon class="cls-6" points="53.71 75.61 49.32 73.07 49.32 72.05 53.71 74.59 53.71 75.61"/><polygon class="cls-7" points="35.09 63.84 31.09 61.53 31.09 60.51 35.09 62.82 35.09 63.84"/><polygon class="cls-7" points="39.09 66.15 35.09 63.84 35.09 62.82 39.09 65.13 39.09 66.15"/><polygon class="cls-7" points="43.09 68.46 39.09 66.15 39.09 65.13 43.09 67.44 43.09 68.46"/><polygon class="cls-7" points="47.09 70.77 43.09 68.46 43.09 67.44 47.09 69.75 47.09 70.77"/><polygon class="cls-7" points="51.09 73.08 47.09 70.77 47.09 69.75 51.09 72.06 51.09 73.08"/><polygon class="cls-7" points="55.48 75.61 51.09 73.08 51.09 72.06 55.48 74.59 55.48 75.61"/><polygon class="cls-7" points="33.32 61.8 31.1 60.51 31.1 59.49 33.32 60.78 33.32 61.8"/><polygon class="cls-6" points="55.48 74.59 53.71 73.57 53.71 72.55 55.48 73.57 55.48 74.59"/><polygon class="cls-7" points="37.32 64.11 33.32 61.8 33.32 60.78 37.32 63.09 37.32 64.11"/><polygon class="cls-6" points="41.32 66.42 37.32 64.11 37.32 63.09 41.32 65.39 41.32 66.42"/><polygon class="cls-7" points="45.32 68.72 41.32 66.42 41.32 65.39 45.32 67.7 45.32 68.72"/><polygon class="cls-8" points="49.32 71.03 45.32 68.72 45.32 67.7 49.32 70.01 49.32 71.03"/><polygon class="cls-7" points="53.71 73.57 49.32 71.03 49.32 70.01 53.71 72.55 53.71 73.57"/><polygon class="cls-7" points="35.09 61.8 31.09 59.49 31.09 58.47 35.09 60.78 35.09 61.8"/><polygon class="cls-7" points="39.09 64.11 35.09 61.8 35.09 60.78 39.09 63.09 39.09 64.11"/><polygon class="cls-7" points="43.09 66.42 39.09 64.11 39.09 63.09 43.09 65.4 43.09 66.42"/><polygon class="cls-7" points="47.09 68.73 43.09 66.42 43.09 65.4 47.09 67.71 47.09 68.73"/><polygon class="cls-6" points="51.09 71.04 47.09 68.73 47.09 67.71 51.09 70.02 51.09 71.04"/><polygon class="cls-7" points="55.48 73.57 51.09 71.04 51.09 70.02 55.48 72.55 55.48 73.57"/><polygon class="cls-8" points="33.32 59.76 31.1 58.47 31.1 57.45 33.32 58.74 33.32 59.76"/><polygon class="cls-8" points="55.48 72.55 53.71 71.53 53.71 70.5 55.48 71.53 55.48 72.55"/><polygon class="cls-7" points="37.32 62.06 33.32 59.76 33.32 58.74 37.32 61.05 37.32 62.06"/><polygon class="cls-7" points="41.32 64.38 37.32 62.06 37.32 61.05 41.32 63.35 41.32 64.38"/><polygon class="cls-7" points="45.32 66.68 41.32 64.38 41.32 63.35 45.32 65.66 45.32 66.68"/><polygon class="cls-7" points="49.32 68.99 45.32 66.68 45.32 65.66 49.32 67.97 49.32 68.99"/><polygon class="cls-7" points="53.71 71.53 49.32 68.99 49.32 67.97 53.71 70.5 53.71 71.53"/><polygon class="cls-7" points="35.09 59.76 31.09 57.45 31.09 56.43 35.09 58.74 35.09 59.76"/><polygon class="cls-7" points="39.09 62.07 35.09 59.76 35.09 58.74 39.09 61.05 39.09 62.07"/><polygon class="cls-7" points="43.09 64.38 39.09 62.07 39.09 61.05 43.09 63.36 43.09 64.38"/><polygon class="cls-8" points="47.09 66.69 43.09 64.38 43.09 63.36 47.09 65.67 47.09 66.69"/><polygon class="cls-7" points="51.09 69 47.09 66.69 47.09 65.67 51.09 67.98 51.09 69"/><polygon class="cls-7" points="55.48 71.53 51.09 69 51.09 67.98 55.48 70.51 55.48 71.53"/><polygon class="cls-7" points="33.32 57.72 31.1 56.43 31.1 55.41 33.32 56.7 33.32 57.72"/><polygon class="cls-7" points="55.48 70.51 53.71 69.48 53.71 68.47 55.48 69.49 55.48 70.51"/><polygon class="cls-7" points="37.32 60.02 33.32 57.72 33.32 56.7 37.32 59.01 37.32 60.02"/><polygon class="cls-8" points="41.32 62.34 37.32 60.02 37.32 59.01 41.32 61.31 41.32 62.34"/><polygon class="cls-7" points="45.32 64.64 41.32 62.34 41.32 61.31 45.32 63.62 45.32 64.64"/><polygon class="cls-7" points="49.32 66.95 45.32 64.64 45.32 63.62 49.32 65.93 49.32 66.95"/><polygon class="cls-8" points="53.71 69.48 49.32 66.95 49.32 65.93 53.71 68.47 53.71 69.48"/><polygon class="cls-6" points="59.48 88.12 55.48 85.81 55.48 84.79 59.48 87.1 59.48 88.12"/><polygon class="cls-6" points="63.48 90.43 59.48 88.12 59.48 87.1 63.48 89.41 63.48 90.43"/><polygon class="cls-6" points="67.48 92.74 63.48 90.43 63.48 89.41 67.48 91.72 67.48 92.74"/><polygon class="cls-6" points="71.48 95.05 67.48 92.74 67.48 91.72 71.48 94.03 71.48 95.05"/><polygon class="cls-6" points="74.73 96.92 71.48 95.05 71.48 94.03 74.73 95.9 74.73 96.92"/><polygon class="cls-7" points="57.71 86.08 55.48 84.79 55.48 83.77 57.71 85.06 57.71 86.08"/><polygon class="cls-6" points="61.71 88.39 57.71 86.08 57.71 85.06 61.71 87.37 61.71 88.39"/><polygon class="cls-7" points="65.71 90.69 61.71 88.39 61.71 87.37 65.71 89.67 65.71 90.69"/><polygon class="cls-6" points="69.71 93 65.71 90.69 65.71 89.67 69.71 91.98 69.71 93"/><polygon class="cls-7" points="73.71 95.31 69.71 93 69.71 91.98 73.71 94.29 73.71 95.31"/><polygon class="cls-6" points="74.73 95.9 73.29 95.07 73.29 94.05 74.73 94.88 74.73 95.9"/><polygon class="cls-8" points="59.48 86.08 55.48 83.77 55.48 82.75 59.48 85.06 59.48 86.08"/><polygon class="cls-7" points="63.48 88.39 59.48 86.08 59.48 85.06 63.48 87.37 63.48 88.39"/><polygon class="cls-7" points="67.48 90.7 63.48 88.39 63.48 87.37 67.48 89.68 67.48 90.7"/><polygon class="cls-7" points="71.48 93.01 67.48 90.7 67.48 89.68 71.48 91.99 71.48 93.01"/><polygon class="cls-7" points="74.73 94.88 71.48 93.01 71.48 91.99 74.73 93.86 74.73 94.88"/><polygon class="cls-7" points="57.71 84.04 55.48 82.75 55.48 81.73 57.71 83.02 57.71 84.04"/><polygon class="cls-7" points="61.71 86.35 57.71 84.04 57.71 83.02 61.71 85.33 61.71 86.35"/><polygon class="cls-6" points="65.71 88.66 61.71 86.35 61.71 85.33 65.71 87.64 65.71 88.66"/><polygon class="cls-8" points="69.71 90.96 65.71 88.66 65.71 87.64 69.71 89.94 69.71 90.96"/><polygon class="cls-7" points="73.71 93.27 69.71 90.96 69.71 89.94 73.71 92.25 73.71 93.27"/><polygon class="cls-7" points="74.73 93.86 73.29 93.03 73.29 92.01 74.73 92.84 74.73 93.86"/><polygon class="cls-8" points="59.48 84.04 55.48 81.73 55.48 80.71 59.48 83.02 59.48 84.04"/><polygon class="cls-7" points="63.48 86.35 59.48 84.04 59.48 83.02 63.48 85.33 63.48 86.35"/><polygon class="cls-7" points="67.48 88.66 63.48 86.35 63.48 85.33 67.48 87.64 67.48 88.66"/><polygon class="cls-7" points="71.48 90.97 67.48 88.66 67.48 87.64 71.48 89.95 71.48 90.97"/><polygon class="cls-6" points="74.73 92.84 71.48 90.97 71.48 89.95 74.73 91.82 74.73 92.84"/><polygon class="cls-7" points="57.71 82 55.48 80.71 55.48 79.69 57.71 80.98 57.71 82"/><polygon class="cls-7" points="61.71 84.31 57.71 82 57.71 80.98 61.71 83.28 61.71 84.31"/><polygon class="cls-7" points="65.71 86.61 61.71 84.31 61.71 83.28 65.71 85.59 65.71 86.61"/><polygon class="cls-6" points="69.71 88.92 65.71 86.61 65.71 85.59 69.71 87.9 69.71 88.92"/><polygon class="cls-7" points="73.71 91.23 69.71 88.92 69.71 87.9 73.71 90.21 73.71 91.23"/><polygon class="cls-7" points="74.73 91.82 73.29 90.99 73.29 89.97 74.73 90.8 74.73 91.82"/><polygon class="cls-7" points="59.48 82 55.48 79.69 55.48 78.67 59.48 80.98 59.48 82"/><polygon class="cls-8" points="63.48 84.31 59.48 82 59.48 80.98 63.48 83.29 63.48 84.31"/><polygon class="cls-7" points="67.48 86.62 63.48 84.31 63.48 83.29 67.48 85.6 67.48 86.62"/><polygon class="cls-7" points="71.48 88.93 67.48 86.62 67.48 85.6 71.48 87.91 71.48 88.93"/><polygon class="cls-7" points="74.73 90.8 71.48 88.93 71.48 87.91 74.73 89.78 74.73 90.8"/><polygon class="cls-6" points="57.71 79.96 55.48 78.67 55.48 77.65 57.71 78.94 57.71 79.96"/><polygon class="cls-7" points="61.71 82.27 57.71 79.96 57.71 78.94 61.71 81.25 61.71 82.27"/><polygon class="cls-7" points="65.71 84.57 61.71 82.27 61.71 81.25 65.71 83.55 65.71 84.57"/><polygon class="cls-7" points="69.71 86.88 65.71 84.57 65.71 83.55 69.71 85.86 69.71 86.88"/><polygon class="cls-8" points="73.71 89.19 69.71 86.88 69.71 85.86 73.71 88.17 73.71 89.19"/><polygon class="cls-7" points="74.73 89.78 73.29 88.95 73.29 87.93 74.73 88.76 74.73 89.78"/><polygon class="cls-7" points="59.48 79.96 55.48 77.65 55.48 76.63 59.48 78.94 59.48 79.96"/><polygon class="cls-7" points="63.48 82.27 59.48 79.96 59.48 78.94 63.48 81.25 63.48 82.27"/><polygon class="cls-7" points="67.48 84.58 63.48 82.27 63.48 81.25 67.48 83.56 67.48 84.58"/><polygon class="cls-7" points="71.48 86.89 67.48 84.58 67.48 83.56 71.48 85.87 71.48 86.89"/><polygon class="cls-7" points="74.73 88.76 71.48 86.89 71.48 85.87 74.73 87.74 74.73 88.76"/><polygon class="cls-7" points="57.71 77.92 55.48 76.63 55.48 75.61 57.71 76.89 57.71 77.92"/><polygon class="cls-6" points="61.71 80.22 57.71 77.92 57.71 76.89 61.71 79.2 61.71 80.22"/><polygon class="cls-8" points="65.71 82.53 61.71 80.22 61.71 79.2 65.71 81.51 65.71 82.53"/><polygon class="cls-6" points="69.71 84.84 65.71 82.53 65.71 81.51 69.71 83.82 69.71 84.84"/><polygon class="cls-7" points="73.71 87.15 69.71 84.84 69.71 83.82 73.71 86.13 73.71 87.15"/><polygon class="cls-6" points="74.73 87.74 73.29 86.91 73.29 85.89 74.73 86.72 74.73 87.74"/><polygon class="cls-7" points="59.48 77.92 55.48 75.61 55.48 74.59 59.48 76.9 59.48 77.92"/><polygon class="cls-7" points="63.48 80.23 59.48 77.92 59.48 76.9 63.48 79.21 63.48 80.23"/><polygon class="cls-7" points="67.48 82.54 63.48 80.23 63.48 79.21 67.48 81.52 67.48 82.54"/><polygon class="cls-7" points="71.48 84.85 67.48 82.54 67.48 81.52 71.48 83.83 71.48 84.85"/><polygon class="cls-7" points="74.73 86.72 71.48 84.85 71.48 83.83 74.73 85.7 74.73 86.72"/><polygon class="cls-7" points="57.71 75.88 55.48 74.59 55.48 73.57 57.71 74.86 57.71 75.88"/><polygon class="cls-7" points="61.71 78.18 57.71 75.88 57.71 74.86 61.71 77.16 61.71 78.18"/><polygon class="cls-6" points="65.71 80.49 61.71 78.18 61.71 77.16 65.71 79.47 65.71 80.49"/><polygon class="cls-7" points="69.71 82.8 65.71 80.49 65.71 79.47 69.71 81.78 69.71 82.8"/><polygon class="cls-8" points="73.71 85.11 69.71 82.8 69.71 81.78 73.71 84.09 73.71 85.11"/><polygon class="cls-7" points="74.73 85.7 73.29 84.87 73.29 83.85 74.73 84.68 74.73 85.7"/><polygon class="cls-7" points="59.48 75.88 55.48 73.57 55.48 72.55 59.48 74.86 59.48 75.88"/><polygon class="cls-7" points="63.48 78.19 59.48 75.88 59.48 74.86 63.48 77.17 63.48 78.19"/><polygon class="cls-7" points="67.48 80.5 63.48 78.19 63.48 77.17 67.48 79.48 67.48 80.5"/><polygon class="cls-7" points="71.48 82.81 67.48 80.5 67.48 79.48 71.48 81.78 71.48 82.81"/><polygon class="cls-6" points="74.73 84.68 71.48 82.81 71.48 81.78 74.73 83.66 74.73 84.68"/><polygon class="cls-8" points="57.71 73.83 55.48 72.55 55.48 71.53 57.71 72.81 57.71 73.83"/><polygon class="cls-7" points="61.71 76.14 57.71 73.83 57.71 72.81 61.71 75.12 61.71 76.14"/><polygon class="cls-7" points="65.71 78.45 61.71 76.14 61.71 75.12 65.71 77.43 65.71 78.45"/><polygon class="cls-7" points="69.71 80.76 65.71 78.45 65.71 77.43 69.71 79.74 69.71 80.76"/><polygon class="cls-7" points="73.71 83.07 69.71 80.76 69.71 79.74 73.71 82.05 73.71 83.07"/><polygon class="cls-7" points="74.73 83.66 73.29 82.83 73.29 81.81 74.73 82.64 74.73 83.66"/><polygon class="cls-7" points="59.48 73.84 55.48 71.53 55.48 70.51 59.48 72.82 59.48 73.84"/><polygon class="cls-7" points="63.48 76.15 59.48 73.84 59.48 72.82 63.48 75.13 63.48 76.15"/><polygon class="cls-7" points="67.48 78.46 63.48 76.15 63.48 75.13 67.48 77.44 67.48 78.46"/><polygon class="cls-8" points="71.48 80.77 67.48 78.46 67.48 77.44 71.48 79.75 71.48 80.77"/><polygon class="cls-7" points="74.73 82.64 71.48 80.77 71.48 79.75 74.73 81.62 74.73 82.64"/><polygon class="cls-7" points="57.71 71.79 55.48 70.51 55.48 69.49 57.71 70.77 57.71 71.79"/><polygon class="cls-7" points="61.71 74.1 57.71 71.79 57.71 70.77 61.71 73.08 61.71 74.1"/><polygon class="cls-8" points="65.71 76.41 61.71 74.1 61.71 73.08 65.71 75.39 65.71 76.41"/><polygon class="cls-7" points="69.71 78.72 65.71 76.41 65.71 75.39 69.71 77.7 69.71 78.72"/><polygon class="cls-7" points="73.71 81.03 69.71 78.72 69.71 77.7 73.71 80.01 73.71 81.03"/><polygon class="cls-8" points="74.73 81.62 73.29 80.79 73.29 79.77 74.73 80.6 74.73 81.62"/><polygon class="cls-9" points="6.71 41.33 6.76 57.64 74.78 96.9 74.73 80.6 6.71 41.33"/><polygon class="cls-6" points="138.75 59.96 142.75 57.65 142.75 56.63 138.75 58.94 138.75 59.96"/><polygon class="cls-6" points="134.75 62.27 138.75 59.96 138.75 58.94 134.75 61.25 134.75 62.27"/><polygon class="cls-6" points="130.75 64.58 134.75 62.27 134.75 61.25 130.75 63.56 130.75 64.58"/><polygon class="cls-6" points="126.75 66.89 130.75 64.58 130.75 63.56 126.75 65.87 126.75 66.89"/><polygon class="cls-6" points="122.75 69.2 126.75 66.89 126.75 65.87 122.75 68.18 122.75 69.2"/><polygon class="cls-6" points="118.36 71.73 122.75 69.2 122.75 68.18 118.36 70.71 118.36 71.73"/><polygon class="cls-7" points="140.52 57.92 142.74 56.63 142.74 55.62 140.52 56.9 140.52 57.92"/><polygon class="cls-7" points="118.36 70.71 120.13 69.69 120.13 68.67 118.36 69.69 118.36 70.71"/><polygon class="cls-6" points="136.52 60.23 140.52 57.92 140.52 56.9 136.52 59.21 136.52 60.23"/><polygon class="cls-7" points="132.52 62.54 136.52 60.23 136.52 59.21 132.52 61.52 132.52 62.54"/><polygon class="cls-6" points="128.52 64.85 132.52 62.54 132.52 61.52 128.52 63.83 128.52 64.85"/><polygon class="cls-7" points="124.52 67.16 128.52 64.85 128.52 63.83 124.52 66.14 124.52 67.16"/><polygon class="cls-6" points="120.13 69.69 124.52 67.16 124.52 66.14 120.13 68.67 120.13 69.69"/><polygon class="cls-8" points="138.75 57.92 142.75 55.61 142.75 54.59 138.75 56.9 138.75 57.92"/><polygon class="cls-7" points="134.75 60.23 138.75 57.92 138.75 56.9 134.75 59.21 134.75 60.23"/><polygon class="cls-7" points="130.75 62.54 134.75 60.23 134.75 59.21 130.75 61.52 130.75 62.54"/><polygon class="cls-7" points="126.75 64.85 130.75 62.54 130.75 61.52 126.75 63.83 126.75 64.85"/><polygon class="cls-7" points="122.75 67.16 126.75 64.85 126.75 63.83 122.75 66.14 122.75 67.16"/><polygon class="cls-7" points="118.36 69.69 122.75 67.16 122.75 66.14 118.36 68.67 118.36 69.69"/><polygon class="cls-7" points="140.52 55.88 142.74 54.59 142.74 53.57 140.52 54.86 140.52 55.88"/><polygon class="cls-6" points="118.36 68.67 120.13 67.65 120.13 66.63 118.36 67.65 118.36 68.67"/><polygon class="cls-7" points="136.52 58.19 140.52 55.88 140.52 54.86 136.52 57.17 136.52 58.19"/><polygon class="cls-6" points="132.52 60.5 136.52 58.19 136.52 57.17 132.52 59.48 132.52 60.5"/><polygon class="cls-8" points="128.52 62.81 132.52 60.5 132.52 59.48 128.52 61.79 128.52 62.81"/><polygon class="cls-7" points="124.52 65.12 128.52 62.81 128.52 61.79 124.52 64.1 124.52 65.12"/><polygon class="cls-7" points="120.13 67.65 124.52 65.12 124.52 64.1 120.13 66.63 120.13 67.65"/><polygon class="cls-8" points="138.75 55.88 142.75 53.57 142.75 52.55 138.75 54.86 138.75 55.88"/><polygon class="cls-7" points="134.75 58.19 138.75 55.88 138.75 54.86 134.75 57.17 134.75 58.19"/><polygon class="cls-7" points="130.75 60.5 134.75 58.19 134.75 57.17 130.75 59.48 130.75 60.5"/><polygon class="cls-7" points="126.75 62.81 130.75 60.5 130.75 59.48 126.75 61.79 126.75 62.81"/><polygon class="cls-6" points="122.75 65.12 126.75 62.81 126.75 61.79 122.75 64.1 122.75 65.12"/><polygon class="cls-7" points="118.36 67.65 122.75 65.12 122.75 64.1 118.36 66.63 118.36 67.65"/><polygon class="cls-7" points="140.52 53.84 142.74 52.55 142.74 51.53 140.52 52.82 140.52 53.84"/><polygon class="cls-7" points="118.36 66.63 120.13 65.61 120.13 64.59 118.36 65.61 118.36 66.63"/><polygon class="cls-7" points="136.52 56.15 140.52 53.84 140.52 52.82 136.52 55.13 136.52 56.15"/><polygon class="cls-7" points="132.52 58.46 136.52 56.15 136.52 55.13 132.52 57.44 132.52 58.46"/><polygon class="cls-6" points="128.52 60.77 132.52 58.46 132.52 57.44 128.52 59.75 128.52 60.77"/><polygon class="cls-7" points="124.52 63.08 128.52 60.77 128.52 59.75 124.52 62.06 124.52 63.08"/><polygon class="cls-7" points="120.13 65.61 124.52 63.08 124.52 62.06 120.13 64.59 120.13 65.61"/><polygon class="cls-7" points="138.75 53.84 142.75 51.53 142.75 50.51 138.75 52.82 138.75 53.84"/><polygon class="cls-8" points="134.75 56.15 138.75 53.84 138.75 52.82 134.75 55.13 134.75 56.15"/><polygon class="cls-7" points="130.75 58.46 134.75 56.15 134.75 55.13 130.75 57.44 130.75 58.46"/><polygon class="cls-7" points="126.75 60.77 130.75 58.46 130.75 57.44 126.75 59.75 126.75 60.77"/><polygon class="cls-7" points="122.75 63.08 126.75 60.77 126.75 59.75 122.75 62.06 122.75 63.08"/><polygon class="cls-8" points="118.36 65.61 122.75 63.08 122.75 62.06 118.36 64.59 118.36 65.61"/><polygon class="cls-6" points="140.52 51.8 142.74 50.51 142.74 49.49 140.52 50.78 140.52 51.8"/><polygon class="cls-7" points="118.36 64.59 120.13 63.57 120.13 62.55 118.36 63.57 118.36 64.59"/><polygon class="cls-7" points="136.52 54.11 140.52 51.8 140.52 50.78 136.52 53.09 136.52 54.11"/><polygon class="cls-7" points="132.52 56.42 136.52 54.11 136.52 53.09 132.52 55.4 132.52 56.42"/><polygon class="cls-7" points="128.52 58.73 132.52 56.42 132.52 55.4 128.52 57.71 128.52 58.73"/><polygon class="cls-8" points="124.52 61.04 128.52 58.73 128.52 57.71 124.52 60.02 124.52 61.04"/><polygon class="cls-7" points="120.13 63.57 124.52 61.04 124.52 60.02 120.13 62.55 120.13 63.57"/><polygon class="cls-7" points="138.75 51.8 142.75 49.49 142.75 48.47 138.75 50.78 138.75 51.8"/><polygon class="cls-7" points="134.75 54.11 138.75 51.8 138.75 50.78 134.75 53.09 134.75 54.11"/><polygon class="cls-7" points="130.75 56.42 134.75 54.11 134.75 53.09 130.75 55.4 130.75 56.42"/><polygon class="cls-7" points="126.75 58.73 130.75 56.42 130.75 55.4 126.75 57.71 126.75 58.73"/><polygon class="cls-7" points="122.75 61.04 126.75 58.73 126.75 57.71 122.75 60.02 122.75 61.04"/><polygon class="cls-7" points="118.36 63.57 122.75 61.04 122.75 60.02 118.36 62.55 118.36 63.57"/><polygon class="cls-7" points="140.52 49.76 142.74 48.47 142.74 47.45 140.52 48.74 140.52 49.76"/><polygon class="cls-7" points="118.36 62.55 120.13 61.53 120.13 60.51 118.36 61.53 118.36 62.55"/><polygon class="cls-6" points="136.52 52.07 140.52 49.76 140.52 48.74 136.52 51.05 136.52 52.07"/><polygon class="cls-8" points="132.52 54.38 136.52 52.07 136.52 51.05 132.52 53.36 132.52 54.38"/><polygon class="cls-6" points="128.52 56.69 132.52 54.38 132.52 53.36 128.52 55.67 128.52 56.69"/><polygon class="cls-7" points="124.52 59 128.52 56.69 128.52 55.67 124.52 57.98 124.52 59"/><polygon class="cls-6" points="120.13 61.53 124.52 59 124.52 57.98 120.13 60.51 120.13 61.53"/><polygon class="cls-7" points="138.75 49.76 142.75 47.45 142.75 46.43 138.75 48.74 138.75 49.76"/><polygon class="cls-7" points="134.75 52.07 138.75 49.76 138.75 48.74 134.75 51.05 134.75 52.07"/><polygon class="cls-7" points="130.75 54.38 134.75 52.07 134.75 51.05 130.75 53.36 130.75 54.38"/><polygon class="cls-7" points="126.75 56.69 130.75 54.38 130.75 53.36 126.75 55.67 126.75 56.69"/><polygon class="cls-7" points="122.75 59 126.75 56.69 126.75 55.67 122.75 57.98 122.75 59"/><polygon class="cls-7" points="118.36 61.53 122.75 59 122.75 57.98 118.36 60.51 118.36 61.53"/><polygon class="cls-7" points="140.52 47.72 142.74 46.43 142.74 45.41 140.52 46.7 140.52 47.72"/><polygon class="cls-6" points="118.36 60.51 120.13 59.49 120.13 58.47 118.36 59.49 118.36 60.51"/><polygon class="cls-7" points="136.52 50.03 140.52 47.72 140.52 46.7 136.52 49.01 136.52 50.03"/><polygon class="cls-6" points="132.52 52.34 136.52 50.03 136.52 49.01 132.52 51.32 132.52 52.34"/><polygon class="cls-7" points="128.52 54.65 132.52 52.34 132.52 51.32 128.52 53.63 128.52 54.65"/><polygon class="cls-8" points="124.52 56.95 128.52 54.65 128.52 53.63 124.52 55.94 124.52 56.95"/><polygon class="cls-7" points="120.13 59.49 124.52 56.95 124.52 55.94 120.13 58.47 120.13 59.49"/><polygon class="cls-7" points="138.75 47.72 142.75 45.41 142.75 44.39 138.75 46.7 138.75 47.72"/><polygon class="cls-7" points="134.75 50.03 138.75 47.72 138.75 46.7 134.75 49.01 134.75 50.03"/><polygon class="cls-7" points="130.75 52.34 134.75 50.03 134.75 49.01 130.75 51.32 130.75 52.34"/><polygon class="cls-7" points="126.75 54.65 130.75 52.34 130.75 51.32 126.75 53.63 126.75 54.65"/><polygon class="cls-6" points="122.75 56.96 126.75 54.65 126.75 53.63 122.75 55.94 122.75 56.96"/><polygon class="cls-7" points="118.36 59.49 122.75 56.96 122.75 55.94 118.36 58.47 118.36 59.49"/><polygon class="cls-8" points="140.52 45.68 142.74 44.39 142.74 43.37 140.52 44.66 140.52 45.68"/><polygon class="cls-8" points="118.36 58.47 120.13 57.45 120.13 56.43 118.36 57.45 118.36 58.47"/><polygon class="cls-7" points="136.52 47.99 140.52 45.68 140.52 44.66 136.52 46.97 136.52 47.99"/><polygon class="cls-7" points="132.52 50.3 136.52 47.99 136.52 46.97 132.52 49.28 132.52 50.3"/><polygon class="cls-7" points="128.52 52.61 132.52 50.3 132.52 49.28 128.52 51.59 128.52 52.61"/><polygon class="cls-7" points="124.52 54.91 128.52 52.61 128.52 51.59 124.52 53.9 124.52 54.91"/><polygon class="cls-7" points="120.13 57.45 124.52 54.91 124.52 53.9 120.13 56.43 120.13 57.45"/><polygon class="cls-7" points="138.75 45.68 142.75 43.37 142.75 42.35 138.75 44.66 138.75 45.68"/><polygon class="cls-7" points="134.75 47.99 138.75 45.68 138.75 44.66 134.75 46.97 134.75 47.99"/><polygon class="cls-7" points="130.75 50.3 134.75 47.99 134.75 46.97 130.75 49.28 130.75 50.3"/><polygon class="cls-8" points="126.75 52.61 130.75 50.3 130.75 49.28 126.75 51.59 126.75 52.61"/><polygon class="cls-7" points="122.75 54.92 126.75 52.61 126.75 51.59 122.75 53.9 122.75 54.92"/><polygon class="cls-7" points="118.36 57.45 122.75 54.92 122.75 53.9 118.36 56.43 118.36 57.45"/><polygon class="cls-7" points="140.52 43.64 142.74 42.35 142.74 41.33 140.52 42.62 140.52 43.64"/><polygon class="cls-7" points="118.36 56.43 120.13 55.41 120.13 54.39 118.36 55.41 118.36 56.43"/><polygon class="cls-7" points="136.52 45.95 140.52 43.64 140.52 42.62 136.52 44.93 136.52 45.95"/><polygon class="cls-8" points="132.52 48.26 136.52 45.95 136.52 44.93 132.52 47.24 132.52 48.26"/><polygon class="cls-7" points="128.52 50.56 132.52 48.26 132.52 47.24 128.52 49.55 128.52 50.56"/><polygon class="cls-7" points="124.52 52.88 128.52 50.56 128.52 49.55 124.52 51.85 124.52 52.88"/><polygon class="cls-8" points="120.13 55.41 124.52 52.88 124.52 51.85 120.13 54.39 120.13 55.41"/><polygon class="cls-6" points="114.36 74.04 118.36 71.73 118.36 70.71 114.36 73.02 114.36 74.04"/><polygon class="cls-6" points="110.36 76.35 114.36 74.04 114.36 73.02 110.36 75.33 110.36 76.35"/><polygon class="cls-6" points="106.36 78.66 110.36 76.35 110.36 75.33 106.36 77.64 106.36 78.66"/><polygon class="cls-6" points="102.36 80.97 106.36 78.66 106.36 77.64 102.36 79.95 102.36 80.97"/><polygon class="cls-6" points="98.36 83.28 102.36 80.97 102.36 79.95 98.36 82.26 98.36 83.28"/><polygon class="cls-6" points="93.98 85.81 98.36 83.28 98.36 82.26 93.98 84.79 93.98 85.81"/><polygon class="cls-7" points="116.13 72 118.36 70.71 118.36 69.69 116.13 70.98 116.13 72"/><polygon class="cls-7" points="93.98 84.79 95.75 83.77 95.75 82.75 93.98 83.77 93.98 84.79"/><polygon class="cls-6" points="112.13 74.31 116.13 72 116.13 70.98 112.13 73.29 112.13 74.31"/><polygon class="cls-7" points="108.13 76.62 112.13 74.31 112.13 73.29 108.13 75.6 108.13 76.62"/><polygon class="cls-6" points="104.13 78.93 108.13 76.62 108.13 75.6 104.13 77.91 104.13 78.93"/><polygon class="cls-7" points="100.13 81.24 104.13 78.93 104.13 77.91 100.13 80.22 100.13 81.24"/><polygon class="cls-6" points="95.75 83.77 100.13 81.24 100.13 80.22 95.75 82.75 95.75 83.77"/><polygon class="cls-8" points="114.36 72 118.36 69.69 118.36 68.67 114.36 70.98 114.36 72"/><polygon class="cls-7" points="110.36 74.31 114.36 72 114.36 70.98 110.36 73.29 110.36 74.31"/><polygon class="cls-7" points="106.36 76.62 110.36 74.31 110.36 73.29 106.36 75.6 106.36 76.62"/><polygon class="cls-7" points="102.36 78.93 106.36 76.62 106.36 75.6 102.36 77.91 102.36 78.93"/><polygon class="cls-7" points="98.36 81.24 102.36 78.93 102.36 77.91 98.36 80.22 98.36 81.24"/><polygon class="cls-7" points="93.98 83.77 98.36 81.24 98.36 80.22 93.98 82.75 93.98 83.77"/><polygon class="cls-7" points="116.13 69.96 118.36 68.67 118.36 67.65 116.13 68.94 116.13 69.96"/><polygon class="cls-6" points="93.98 82.75 95.75 81.73 95.75 80.71 93.98 81.73 93.98 82.75"/><polygon class="cls-7" points="112.13 72.27 116.13 69.96 116.13 68.94 112.13 71.25 112.13 72.27"/><polygon class="cls-6" points="108.13 74.58 112.13 72.27 112.13 71.25 108.13 73.56 108.13 74.58"/><polygon class="cls-8" points="104.13 76.89 108.13 74.58 108.13 73.56 104.13 75.87 104.13 76.89"/><polygon class="cls-7" points="100.13 79.19 104.13 76.89 104.13 75.87 100.13 78.17 100.13 79.19"/><polygon class="cls-7" points="95.75 81.73 100.13 79.19 100.13 78.17 95.75 80.71 95.75 81.73"/><polygon class="cls-8" points="114.36 69.96 118.36 67.65 118.36 66.63 114.36 68.94 114.36 69.96"/><polygon class="cls-7" points="110.36 72.27 114.36 69.96 114.36 68.94 110.36 71.25 110.36 72.27"/><polygon class="cls-7" points="106.36 74.58 110.36 72.27 110.36 71.25 106.36 73.56 106.36 74.58"/><polygon class="cls-7" points="102.36 76.89 106.36 74.58 106.36 73.56 102.36 75.87 102.36 76.89"/><polygon class="cls-6" points="98.36 79.2 102.36 76.89 102.36 75.87 98.36 78.18 98.36 79.2"/><polygon class="cls-7" points="93.98 81.73 98.36 79.2 98.36 78.18 93.98 80.71 93.98 81.73"/><polygon class="cls-7" points="116.13 67.92 118.36 66.63 118.36 65.61 116.13 66.9 116.13 67.92"/><polygon class="cls-7" points="93.98 80.71 95.75 79.69 95.75 78.67 93.98 79.69 93.98 80.71"/><polygon class="cls-7" points="112.13 70.23 116.13 67.92 116.13 66.9 112.13 69.21 112.13 70.23"/><polygon class="cls-7" points="108.13 72.54 112.13 70.23 112.13 69.21 108.13 71.52 108.13 72.54"/><polygon class="cls-6" points="104.13 74.85 108.13 72.54 108.13 71.52 104.13 73.83 104.13 74.85"/><polygon class="cls-7" points="100.13 77.16 104.13 74.85 104.13 73.83 100.13 76.14 100.13 77.16"/><polygon class="cls-7" points="95.75 79.69 100.13 77.16 100.13 76.14 95.75 78.67 95.75 79.69"/><polygon class="cls-7" points="114.36 67.92 118.36 65.61 118.36 64.59 114.36 66.9 114.36 67.92"/><polygon class="cls-8" points="110.36 70.23 114.36 67.92 114.36 66.9 110.36 69.21 110.36 70.23"/><polygon class="cls-7" points="106.36 72.54 110.36 70.23 110.36 69.21 106.36 71.52 106.36 72.54"/><polygon class="cls-7" points="102.36 74.85 106.36 72.54 106.36 71.52 102.36 73.83 102.36 74.85"/><polygon class="cls-7" points="98.36 77.16 102.36 74.85 102.36 73.83 98.36 76.14 98.36 77.16"/><polygon class="cls-8" points="93.98 79.69 98.36 77.16 98.36 76.14 93.98 78.67 93.98 79.69"/><polygon class="cls-6" points="116.13 65.88 118.36 64.59 118.36 63.57 116.13 64.86 116.13 65.88"/><polygon class="cls-7" points="93.98 78.67 95.75 77.65 95.75 76.63 93.98 77.65 93.98 78.67"/><polygon class="cls-7" points="112.13 68.19 116.13 65.88 116.13 64.86 112.13 67.17 112.13 68.19"/><polygon class="cls-7" points="108.13 70.5 112.13 68.19 112.13 67.17 108.13 69.48 108.13 70.5"/><polygon class="cls-7" points="104.13 72.81 108.13 70.5 108.13 69.48 104.13 71.78 104.13 72.81"/><polygon class="cls-8" points="100.13 75.11 104.13 72.81 104.13 71.78 100.13 74.09 100.13 75.11"/><polygon class="cls-7" points="95.75 77.65 100.13 75.11 100.13 74.09 95.75 76.63 95.75 77.65"/><polygon class="cls-7" points="114.36 65.88 118.36 63.57 118.36 62.55 114.36 64.86 114.36 65.88"/><polygon class="cls-7" points="110.36 68.19 114.36 65.88 114.36 64.86 110.36 67.17 110.36 68.19"/><polygon class="cls-7" points="106.36 70.5 110.36 68.19 110.36 67.17 106.36 69.48 106.36 70.5"/><polygon class="cls-7" points="102.36 72.81 106.36 70.5 106.36 69.48 102.36 71.79 102.36 72.81"/><polygon class="cls-7" points="98.36 75.12 102.36 72.81 102.36 71.79 98.36 74.1 98.36 75.12"/><polygon class="cls-7" points="93.98 77.65 98.36 75.12 98.36 74.1 93.98 76.63 93.98 77.65"/><polygon class="cls-7" points="116.13 63.84 118.36 62.55 118.36 61.53 116.13 62.82 116.13 63.84"/><polygon class="cls-7" points="93.98 76.63 95.75 75.61 95.75 74.59 93.98 75.61 93.98 76.63"/><polygon class="cls-6" points="112.13 66.15 116.13 63.84 116.13 62.82 112.13 65.13 112.13 66.15"/><polygon class="cls-8" points="108.13 68.45 112.13 66.15 112.13 65.13 108.13 67.44 108.13 68.45"/><polygon class="cls-6" points="104.13 70.77 108.13 68.45 108.13 67.44 104.13 69.75 104.13 70.77"/><polygon class="cls-7" points="100.13 73.07 104.13 70.77 104.13 69.75 100.13 72.05 100.13 73.07"/><polygon class="cls-6" points="95.75 75.61 100.13 73.07 100.13 72.05 95.75 74.59 95.75 75.61"/><polygon class="cls-7" points="114.36 63.84 118.36 61.53 118.36 60.51 114.36 62.82 114.36 63.84"/><polygon class="cls-7" points="110.36 66.15 114.36 63.84 114.36 62.82 110.36 65.13 110.36 66.15"/><polygon class="cls-7" points="106.36 68.46 110.36 66.15 110.36 65.13 106.36 67.44 106.36 68.46"/><polygon class="cls-7" points="102.36 70.77 106.36 68.46 106.36 67.44 102.36 69.75 102.36 70.77"/><polygon class="cls-7" points="98.36 73.08 102.36 70.77 102.36 69.75 98.36 72.06 98.36 73.08"/><polygon class="cls-7" points="93.98 75.61 98.36 73.08 98.36 72.06 93.98 74.59 93.98 75.61"/><polygon class="cls-7" points="116.13 61.8 118.36 60.51 118.36 59.49 116.13 60.78 116.13 61.8"/><polygon class="cls-6" points="93.98 74.59 95.75 73.57 95.75 72.55 93.98 73.57 93.98 74.59"/><polygon class="cls-7" points="112.13 64.11 116.13 61.8 116.13 60.78 112.13 63.09 112.13 64.11"/><polygon class="cls-6" points="108.13 66.42 112.13 64.11 112.13 63.09 108.13 65.39 108.13 66.42"/><polygon class="cls-7" points="104.13 68.72 108.13 66.42 108.13 65.39 104.13 67.7 104.13 68.72"/><polygon class="cls-8" points="100.13 71.03 104.13 68.72 104.13 67.7 100.13 70.01 100.13 71.03"/><polygon class="cls-7" points="95.75 73.57 100.13 71.03 100.13 70.01 95.75 72.55 95.75 73.57"/><polygon class="cls-7" points="114.36 61.8 118.36 59.49 118.36 58.47 114.36 60.78 114.36 61.8"/><polygon class="cls-7" points="110.36 64.11 114.36 61.8 114.36 60.78 110.36 63.09 110.36 64.11"/><polygon class="cls-7" points="106.36 66.42 110.36 64.11 110.36 63.09 106.36 65.4 106.36 66.42"/><polygon class="cls-7" points="102.36 68.73 106.36 66.42 106.36 65.4 102.36 67.71 102.36 68.73"/><polygon class="cls-6" points="98.36 71.04 102.36 68.73 102.36 67.71 98.36 70.02 98.36 71.04"/><polygon class="cls-7" points="93.98 73.57 98.36 71.04 98.36 70.02 93.98 72.55 93.98 73.57"/><polygon class="cls-8" points="116.13 59.76 118.36 58.47 118.36 57.45 116.13 58.74 116.13 59.76"/><polygon class="cls-8" points="93.98 72.55 95.75 71.53 95.75 70.5 93.98 71.53 93.98 72.55"/><polygon class="cls-7" points="112.13 62.06 116.13 59.76 116.13 58.74 112.13 61.05 112.13 62.06"/><polygon class="cls-7" points="108.13 64.38 112.13 62.06 112.13 61.05 108.13 63.35 108.13 64.38"/><polygon class="cls-7" points="104.13 66.68 108.13 64.38 108.13 63.35 104.13 65.66 104.13 66.68"/><polygon class="cls-7" points="100.13 68.99 104.13 66.68 104.13 65.66 100.13 67.97 100.13 68.99"/><polygon class="cls-7" points="95.75 71.53 100.13 68.99 100.13 67.97 95.75 70.5 95.75 71.53"/><polygon class="cls-7" points="114.36 59.76 118.36 57.45 118.36 56.43 114.36 58.74 114.36 59.76"/><polygon class="cls-7" points="110.36 62.07 114.36 59.76 114.36 58.74 110.36 61.05 110.36 62.07"/><polygon class="cls-7" points="106.36 64.38 110.36 62.07 110.36 61.05 106.36 63.36 106.36 64.38"/><polygon class="cls-8" points="102.36 66.69 106.36 64.38 106.36 63.36 102.36 65.67 102.36 66.69"/><polygon class="cls-7" points="98.36 69 102.36 66.69 102.36 65.67 98.36 67.98 98.36 69"/><polygon class="cls-7" points="93.98 71.53 98.36 69 98.36 67.98 93.98 70.51 93.98 71.53"/><polygon class="cls-7" points="116.13 57.72 118.36 56.43 118.36 55.41 116.13 56.7 116.13 57.72"/><polygon class="cls-7" points="93.98 70.51 95.75 69.48 95.75 68.47 93.98 69.49 93.98 70.51"/><polygon class="cls-7" points="112.13 60.02 116.13 57.72 116.13 56.7 112.13 59.01 112.13 60.02"/><polygon class="cls-8" points="108.13 62.34 112.13 60.02 112.13 59.01 108.13 61.31 108.13 62.34"/><polygon class="cls-7" points="104.13 64.64 108.13 62.34 108.13 61.31 104.13 63.62 104.13 64.64"/><polygon class="cls-7" points="100.13 66.95 104.13 64.64 104.13 63.62 100.13 65.93 100.13 66.95"/><polygon class="cls-8" points="95.75 69.48 100.13 66.95 100.13 65.93 95.75 68.47 95.75 69.48"/><polygon class="cls-6" points="89.98 88.12 93.98 85.81 93.98 84.79 89.98 87.1 89.98 88.12"/><polygon class="cls-6" points="85.98 90.43 89.98 88.12 89.98 87.1 85.98 89.41 85.98 90.43"/><polygon class="cls-6" points="81.98 92.74 85.98 90.43 85.98 89.41 81.98 91.72 81.98 92.74"/><polygon class="cls-6" points="77.98 95.05 81.98 92.74 81.98 91.72 77.98 94.03 77.98 95.05"/><polygon class="cls-6" points="74.73 96.92 77.98 95.05 77.98 94.03 74.73 95.9 74.73 96.92"/><polygon class="cls-7" points="91.75 86.08 93.97 84.79 93.97 83.77 91.75 85.06 91.75 86.08"/><polygon class="cls-6" points="87.75 88.39 91.75 86.08 91.75 85.06 87.75 87.37 87.75 88.39"/><polygon class="cls-7" points="83.75 90.69 87.75 88.39 87.75 87.37 83.75 89.67 83.75 90.69"/><polygon class="cls-6" points="79.75 93 83.75 90.69 83.75 89.67 79.75 91.98 79.75 93"/><polygon class="cls-7" points="75.75 95.31 79.75 93 79.75 91.98 75.75 94.29 75.75 95.31"/><polygon class="cls-6" points="74.73 95.9 76.17 95.07 76.17 94.05 74.73 94.88 74.73 95.9"/><polygon class="cls-8" points="89.98 86.08 93.98 83.77 93.98 82.75 89.98 85.06 89.98 86.08"/><polygon class="cls-7" points="85.98 88.39 89.98 86.08 89.98 85.06 85.98 87.37 85.98 88.39"/><polygon class="cls-7" points="81.98 90.7 85.98 88.39 85.98 87.37 81.98 89.68 81.98 90.7"/><polygon class="cls-7" points="77.98 93.01 81.98 90.7 81.98 89.68 77.98 91.99 77.98 93.01"/><polygon class="cls-7" points="74.73 94.88 77.98 93.01 77.98 91.99 74.73 93.86 74.73 94.88"/><polygon class="cls-7" points="91.75 84.04 93.97 82.75 93.97 81.73 91.75 83.02 91.75 84.04"/><polygon class="cls-7" points="87.75 86.35 91.75 84.04 91.75 83.02 87.75 85.33 87.75 86.35"/><polygon class="cls-6" points="83.75 88.66 87.75 86.35 87.75 85.33 83.75 87.64 83.75 88.66"/><polygon class="cls-8" points="79.75 90.96 83.75 88.66 83.75 87.64 79.75 89.94 79.75 90.96"/><polygon class="cls-7" points="75.75 93.27 79.75 90.96 79.75 89.94 75.75 92.25 75.75 93.27"/><polygon class="cls-7" points="74.73 93.86 76.17 93.03 76.17 92.01 74.73 92.84 74.73 93.86"/><polygon class="cls-8" points="89.98 84.04 93.98 81.73 93.98 80.71 89.98 83.02 89.98 84.04"/><polygon class="cls-7" points="85.98 86.35 89.98 84.04 89.98 83.02 85.98 85.33 85.98 86.35"/><polygon class="cls-7" points="81.98 88.66 85.98 86.35 85.98 85.33 81.98 87.64 81.98 88.66"/><polygon class="cls-7" points="77.98 90.97 81.98 88.66 81.98 87.64 77.98 89.95 77.98 90.97"/><polygon class="cls-6" points="74.73 92.84 77.98 90.97 77.98 89.95 74.73 91.82 74.73 92.84"/><polygon class="cls-7" points="91.75 82 93.97 80.71 93.97 79.69 91.75 80.98 91.75 82"/><polygon class="cls-7" points="87.75 84.31 91.75 82 91.75 80.98 87.75 83.28 87.75 84.31"/><polygon class="cls-7" points="83.75 86.61 87.75 84.31 87.75 83.28 83.75 85.59 83.75 86.61"/><polygon class="cls-6" points="79.75 88.92 83.75 86.61 83.75 85.59 79.75 87.9 79.75 88.92"/><polygon class="cls-7" points="75.75 91.23 79.75 88.92 79.75 87.9 75.75 90.21 75.75 91.23"/><polygon class="cls-7" points="74.73 91.82 76.17 90.99 76.17 89.97 74.73 90.8 74.73 91.82"/><polygon class="cls-7" points="89.98 82 93.98 79.69 93.98 78.67 89.98 80.98 89.98 82"/><polygon class="cls-8" points="85.98 84.31 89.98 82 89.98 80.98 85.98 83.29 85.98 84.31"/><polygon class="cls-7" points="81.98 86.62 85.98 84.31 85.98 83.29 81.98 85.6 81.98 86.62"/><polygon class="cls-7" points="77.98 88.93 81.98 86.62 81.98 85.6 77.98 87.91 77.98 88.93"/><polygon class="cls-7" points="74.73 90.8 77.98 88.93 77.98 87.91 74.73 89.78 74.73 90.8"/><polygon class="cls-6" points="91.75 79.96 93.97 78.67 93.97 77.65 91.75 78.94 91.75 79.96"/><polygon class="cls-7" points="87.75 82.27 91.75 79.96 91.75 78.94 87.75 81.25 87.75 82.27"/><polygon class="cls-7" points="83.75 84.57 87.75 82.27 87.75 81.25 83.75 83.55 83.75 84.57"/><polygon class="cls-7" points="79.75 86.88 83.75 84.57 83.75 83.55 79.75 85.86 79.75 86.88"/><polygon class="cls-8" points="75.75 89.19 79.75 86.88 79.75 85.86 75.75 88.17 75.75 89.19"/><polygon class="cls-7" points="74.73 89.78 76.17 88.95 76.17 87.93 74.73 88.76 74.73 89.78"/><polygon class="cls-7" points="89.98 79.96 93.98 77.65 93.98 76.63 89.98 78.94 89.98 79.96"/><polygon class="cls-7" points="85.98 82.27 89.98 79.96 89.98 78.94 85.98 81.25 85.98 82.27"/><polygon class="cls-7" points="81.98 84.58 85.98 82.27 85.98 81.25 81.98 83.56 81.98 84.58"/><polygon class="cls-7" points="77.98 86.89 81.98 84.58 81.98 83.56 77.98 85.87 77.98 86.89"/><polygon class="cls-7" points="74.73 88.76 77.98 86.89 77.98 85.87 74.73 87.74 74.73 88.76"/><polygon class="cls-7" points="91.75 77.92 93.97 76.63 93.97 75.61 91.75 76.89 91.75 77.92"/><polygon class="cls-6" points="87.75 80.22 91.75 77.92 91.75 76.89 87.75 79.2 87.75 80.22"/><polygon class="cls-8" points="83.75 82.53 87.75 80.22 87.75 79.2 83.75 81.51 83.75 82.53"/><polygon class="cls-6" points="79.75 84.84 83.75 82.53 83.75 81.51 79.75 83.82 79.75 84.84"/><polygon class="cls-7" points="75.75 87.15 79.75 84.84 79.75 83.82 75.75 86.13 75.75 87.15"/><polygon class="cls-6" points="74.73 87.74 76.17 86.91 76.17 85.89 74.73 86.72 74.73 87.74"/><polygon class="cls-7" points="89.98 77.92 93.98 75.61 93.98 74.59 89.98 76.9 89.98 77.92"/><polygon class="cls-7" points="85.98 80.23 89.98 77.92 89.98 76.9 85.98 79.21 85.98 80.23"/><polygon class="cls-7" points="81.98 82.54 85.98 80.23 85.98 79.21 81.98 81.52 81.98 82.54"/><polygon class="cls-7" points="77.98 84.85 81.98 82.54 81.98 81.52 77.98 83.83 77.98 84.85"/><polygon class="cls-7" points="74.73 86.72 77.98 84.85 77.98 83.83 74.73 85.7 74.73 86.72"/><polygon class="cls-7" points="91.75 75.88 93.97 74.59 93.97 73.57 91.75 74.86 91.75 75.88"/><polygon class="cls-7" points="87.75 78.18 91.75 75.88 91.75 74.86 87.75 77.16 87.75 78.18"/><polygon class="cls-6" points="83.75 80.49 87.75 78.18 87.75 77.16 83.75 79.47 83.75 80.49"/><polygon class="cls-7" points="79.75 82.8 83.75 80.49 83.75 79.47 79.75 81.78 79.75 82.8"/><polygon class="cls-8" points="75.75 85.11 79.75 82.8 79.75 81.78 75.75 84.09 75.75 85.11"/><polygon class="cls-7" points="74.73 85.7 76.17 84.87 76.17 83.85 74.73 84.68 74.73 85.7"/><polygon class="cls-7" points="89.98 75.88 93.98 73.57 93.98 72.55 89.98 74.86 89.98 75.88"/><polygon class="cls-7" points="85.98 78.19 89.98 75.88 89.98 74.86 85.98 77.17 85.98 78.19"/><polygon class="cls-7" points="81.98 80.5 85.98 78.19 85.98 77.17 81.98 79.48 81.98 80.5"/><polygon class="cls-7" points="77.98 82.81 81.98 80.5 81.98 79.48 77.98 81.78 77.98 82.81"/><polygon class="cls-6" points="74.73 84.68 77.98 82.81 77.98 81.78 74.73 83.66 74.73 84.68"/><polygon class="cls-8" points="91.75 73.83 93.97 72.55 93.97 71.53 91.75 72.81 91.75 73.83"/><polygon class="cls-7" points="87.75 76.14 91.75 73.83 91.75 72.81 87.75 75.12 87.75 76.14"/><polygon class="cls-7" points="83.75 78.45 87.75 76.14 87.75 75.12 83.75 77.43 83.75 78.45"/><polygon class="cls-7" points="79.75 80.76 83.75 78.45 83.75 77.43 79.75 79.74 79.75 80.76"/><polygon class="cls-7" points="75.75 83.07 79.75 80.76 79.75 79.74 75.75 82.05 75.75 83.07"/><polygon class="cls-7" points="74.73 83.66 76.17 82.83 76.17 81.81 74.73 82.64 74.73 83.66"/><polygon class="cls-7" points="89.98 73.84 93.98 71.53 93.98 70.51 89.98 72.82 89.98 73.84"/><polygon class="cls-7" points="85.98 76.15 89.98 73.84 89.98 72.82 85.98 75.13 85.98 76.15"/><polygon class="cls-7" points="81.98 78.46 85.98 76.15 85.98 75.13 81.98 77.44 81.98 78.46"/><polygon class="cls-8" points="77.98 80.77 81.98 78.46 81.98 77.44 77.98 79.75 77.98 80.77"/><polygon class="cls-7" points="74.73 82.64 77.98 80.77 77.98 79.75 74.73 81.62 74.73 82.64"/><polygon class="cls-7" points="91.75 71.79 93.97 70.51 93.97 69.49 91.75 70.77 91.75 71.79"/><polygon class="cls-7" points="87.75 74.1 91.75 71.79 91.75 70.77 87.75 73.08 87.75 74.1"/><polygon class="cls-8" points="83.75 76.41 87.75 74.1 87.75 73.08 83.75 75.39 83.75 76.41"/><polygon class="cls-7" points="79.75 78.72 83.75 76.41 83.75 75.39 79.75 77.7 79.75 78.72"/><polygon class="cls-7" points="75.75 81.03 79.75 78.72 79.75 77.7 75.75 80.01 75.75 81.03"/><polygon class="cls-8" points="74.73 81.62 76.17 80.79 76.17 79.77 74.73 80.6 74.73 81.62"/></g><g class="cls-1"><path class="cls-10" d="M127.3,36.46a1.42,1.42,0,0,0,0-.2s0-.09,0-.14l0-.13c0-.06,0-.12,0-.18a1,1,0,0,0,0-.1l-.06-.21,0-.08-.12-.28v0l-.12-.25,0-.07-.13-.23,0,0-.16-.26a.35.35,0,0,1,0-.08l-.13-.18-.07-.09-.11-.15-.1-.12-.1-.11-.17-.18a.6.6,0,0,0-.08-.08,2.58,2.58,0,0,0-.36-.31l-.06-.06-.39-.26-.32-.16-.1,0-.18-.06-.11,0-.11,0-.13,0h-.28l-.18,0h0l-.14,0,0,0a.65.65,0,0,0-.17.08l4.07-2.37h0l.13-.07h.07l.06,0,.08,0H128l.06,0,.1,0h.06l.05,0,.18.06.07,0,0,0,.32.16.39.26.07.05c.12.1.24.2.35.31l0,0,.06.06.17.18.05,0,0,.06.1.12.06.07.06.07a.36.36,0,0,0,.07.1l0,.06a.83.83,0,0,1,.08.12.35.35,0,0,1,.05.08l0,0,.13.22h0l0,.05.08.15a.3.3,0,0,1,0,.08l0,.07,0,.07a1.42,1.42,0,0,1,.08.18l0,0h0a1.57,1.57,0,0,1,.09.23l0,0,0,.08s0,.08,0,.11l0,.09,0,.11s0,0,0,.06l0,.12,0,.13s0,0,0,0,0,.06,0,.1l0,.2s0,0,0,0v.05a3.4,3.4,0,0,1,0,.45,1.74,1.74,0,0,1-.74,1.62l-4.06,2.36a1.76,1.76,0,0,0,.74-1.62,3.25,3.25,0,0,0,0-.44S127.3,36.49,127.3,36.46Z"/><path class="cls-11" d="M124.82,32.64c-1.4-.81-2.54-.16-2.54,1.45a5.55,5.55,0,0,0,2.52,4.37c1.4.81,2.53.16,2.54-1.45A5.59,5.59,0,0,0,124.82,32.64Z"/></g><g class="cls-1"><path class="cls-10" d="M120.87,39.89l0-.18,0-.12a.5.5,0,0,1,0-.12s0-.1-.05-.15l0-.1a.58.58,0,0,0-.06-.17.24.24,0,0,0,0-.08,2.44,2.44,0,0,0-.1-.24v0c0-.07-.07-.14-.1-.22l0-.06a1.28,1.28,0,0,0-.11-.2l0,0a1.76,1.76,0,0,0-.14-.23l0-.06-.11-.16-.07-.09-.09-.13-.09-.1-.09-.1-.15-.16-.07-.07-.31-.28-.06,0-.35-.23a1.47,1.47,0,0,0-.28-.14l-.08,0-.16-.05-.1,0-.09,0-.12,0h-.24l-.17,0h0l-.12,0h0l-.14.07L122.9,33h0l.12-.05h.06l0,0,.07,0h.06l.13,0h.37l.1,0h0l.06,0,.15,0,.06,0h0l.28.14a2.62,2.62,0,0,1,.34.24l.06,0a4,4,0,0,1,.31.27l0,0,0,.05.15.16,0,.05,0,0,.09.11.06.07,0,.06.06.08,0,.06.06.1,0,.07,0,0,.11.19h0l0,0,.08.14,0,.06,0,.07,0,.06a.77.77,0,0,1,.07.16l0,0h0a1.67,1.67,0,0,1,.08.2v0l0,.07a1,1,0,0,0,0,.1s0,0,0,.08l0,.09a.14.14,0,0,0,0,.06s0,.07,0,.1l0,.11v0s0,.06,0,.09l0,.17a.11.11,0,0,1,0,.05v0a2.56,2.56,0,0,1,0,.39,1.56,1.56,0,0,1-.65,1.43l-5.81,3.38a1.58,1.58,0,0,0,.65-1.44c0-.12,0-.26,0-.39A.28.28,0,0,1,120.87,39.89Z"/><path class="cls-11" d="M118.68,36.53c-1.23-.71-2.23-.14-2.23,1.27a4.89,4.89,0,0,0,2.22,3.85c1.23.71,2.23.14,2.23-1.28A4.87,4.87,0,0,0,118.68,36.53Z"/></g><g class="cls-1"><path class="cls-10" d="M119.17,40.67c0-.14-.06-.29-.1-.44l0,0a3.06,3.06,0,0,0-.17-.48h0c-.07-.16-.15-.31-.23-.47h0c-.09-.15-.18-.29-.28-.43l0,0c-.1-.13-.19-.24-.3-.36l-.07-.07-.25-.24-.12-.1a2.33,2.33,0,0,0-.38-.26l-.25-.13-.08,0-.14-.05-.09,0-.08,0-.11,0h-.22l-.15,0h0l-.11,0h0l-.13.07,1.16-.68h0l.1,0h0l.06,0h.57l.08,0h0l0,0,.14,0h0l0,0a1.42,1.42,0,0,1,.25.12,3.28,3.28,0,0,1,.38.27l.12.1.18.15.08.09.06.07.08.08.16.2.06.07,0,0a.18.18,0,0,0,0,.07l.12.18.1.17h0v0a1,1,0,0,0,.08.14,1.3,1.3,0,0,1,.08.17L120,39h0l.08.18.07.19,0,.1v0a.64.64,0,0,1,0,.07l.06.23s0,.09,0,.14,0,0,0,.07a.17.17,0,0,1,0,.07,2.56,2.56,0,0,1,0,.39,2.15,2.15,0,0,1,0,.45,1.23,1.23,0,0,1-.55.85l-1.16.67a1.4,1.4,0,0,0,.59-1.29,2.38,2.38,0,0,0,0-.46S119.17,40.7,119.17,40.67Z"/><path class="cls-11" d="M117.2,37.72c-1.11-.65-2-.13-2,1.16a4.42,4.42,0,0,0,2,3.48c1.12.65,2,.13,2-1.15A4.43,4.43,0,0,0,117.2,37.72Z"/><path class="cls-10" d="M115.8,38.88a3.8,3.8,0,0,0,1.7,2.95,1.22,1.22,0,0,0,.6.19.43.43,0,0,0,.4-.26,1.37,1.37,0,0,0,.1-.55,3.86,3.86,0,0,0-1.7-3,1.22,1.22,0,0,0-.6-.19.47.47,0,0,0-.17,0C115.85,38.2,115.8,38.61,115.8,38.88Z"/><path class="cls-12" d="M116,38.64a3.82,3.82,0,0,0,1.71,3,1.24,1.24,0,0,0,.59.2.47.47,0,0,0,.17,0,1.37,1.37,0,0,0,.1-.55,3.86,3.86,0,0,0-1.7-3,1.22,1.22,0,0,0-.6-.19.47.47,0,0,0-.17,0A1.37,1.37,0,0,0,116,38.64Z"/></g><g class="cls-1"><path class="cls-11" d="M125.9,28.88h0a.53.53,0,0,0,.06.1v0a.38.38,0,0,0,.09.09l.07.06.07.05a.85.85,0,0,0,.22.09l.08,0,.11,0,.13,0h.46l.17,0h0l.15,0h0l.17-.08a.55.55,0,0,0,.32-.45v3.36a.57.57,0,0,1-.32.45l-.16.07h0l-.09,0h-.12l-.11,0h-.49l-.09,0h0l-.11,0-.06,0s0,0,0,0a.85.85,0,0,1-.22-.09h0l-.06,0-.07-.06h0l-.07-.08h0v0l0,0a.09.09,0,0,1,0-.06h0v0s0,0,0,0a.13.13,0,0,1,0-.06h0V28.76A.5.5,0,0,0,125.9,28.88Z"/><path class="cls-10" d="M126.2,28.31a.48.48,0,0,0,0,.9,1.7,1.7,0,0,0,1.55,0,.48.48,0,0,0,0-.9A1.76,1.76,0,0,0,126.2,28.31Z"/></g><g class="cls-1"><path class="cls-10" d="M125.49,30.2a1,1,0,0,0-.07-.15h0a.6.6,0,0,0-.09-.13h0a.35.35,0,0,0-.11-.1.41.41,0,0,0-.12,0h0a.15.15,0,0,0-.09,0h0l.05,0,.82-.48H126l0,0,.1.08v0h0l0,0,0,0,0,0v0h0v.13h0v0a.09.09,0,0,1,0,.05v.06a.23.23,0,0,1-.09.2l-.87.5a.2.2,0,0,0,.09-.2.77.77,0,0,0,0-.15Z"/><path class="cls-11" d="M125.21,29.82c-.17-.1-.31,0-.31.18a.68.68,0,0,0,.3.53c.18.1.31,0,.31-.18A.68.68,0,0,0,125.21,29.82Z"/></g><g class="cls-1"><path class="cls-10" d="M128.43,30.2a.94.94,0,0,1,.06-.15h0a.64.64,0,0,1,.1-.13h0a.53.53,0,0,1,.12-.1.28.28,0,0,1,.12,0h0a.16.16,0,0,1,.1,0h0l-.06,0-.81-.48h-.18l0,0-.1.08,0,0h0l0,0,0,0,0,0,0,0h0v0l0,0v.06h0v.08a.13.13,0,0,0,0,.06.25.25,0,0,0,.09.2l.87.5a.23.23,0,0,1-.09-.2.4.4,0,0,1,0-.15Z"/><path class="cls-11" d="M128.71,29.82c.17-.1.31,0,.31.18a.69.69,0,0,1-.31.53c-.17.1-.31,0-.31-.18A.69.69,0,0,1,128.71,29.82Z"/></g><path class="cls-10" d="M124.54,30.39a1.76,1.76,0,0,1,0-3.28h0a5.28,5.28,0,0,1,4.86,0,1.76,1.76,0,0,1,0,3.28A4.89,4.89,0,0,1,127,31,4.82,4.82,0,0,1,124.54,30.39Zm.42-2.57h0a1.24,1.24,0,0,0-.72.94,1.16,1.16,0,0,0,.71.92,4.53,4.53,0,0,0,4,0,1.19,1.19,0,0,0,.72-.93,1.19,1.19,0,0,0-.71-.93,4.15,4.15,0,0,0-2-.47A4.24,4.24,0,0,0,125,27.82Z"/><path class="cls-11" d="M123.42,28.75a2,2,0,0,0,1.12,1.64,5.28,5.28,0,0,0,4.85,0,2,2,0,0,0,1.14-1.64.41.41,0,0,0,0-.11,2,2,0,0,1-1.13,1.53,5.28,5.28,0,0,1-4.85,0,2,2,0,0,1-1.12-1.52Z"/><path class="cls-11" d="M124.24,28.63a.15.15,0,0,0,0,.07,1.24,1.24,0,0,1,.71-.88,4.13,4.13,0,0,1,2-.47,4,4,0,0,1,2,.47,1.2,1.2,0,0,1,.71.88v-.07c0-.83-1.22-1.52-2.73-1.52S124.24,27.8,124.24,28.63Z"/><g class="cls-1"><path class="cls-10" d="M126.54,28.18a1.83,1.83,0,0,1,.87,0v-.73a.23.23,0,0,0-.12-.18l-.06,0h-.44l-.12.05,0,0,0,0s0,0,0,0,0,0,0,0h0a0,0,0,0,1,0,0s0,0,0,0v0h0Z"/></g><g class="cls-1"><path class="cls-10" d="M115.93,29.87l0-.2,0-.14,0-.13c0-.06,0-.12,0-.18l0-.1c0-.07-.05-.14-.07-.2l0-.09-.11-.27,0,0a2.56,2.56,0,0,0-.11-.24l0-.08-.12-.22,0-.05-.16-.26,0-.07-.12-.18-.08-.1a.76.76,0,0,0-.11-.14.64.64,0,0,0-.1-.13l-.1-.11-.17-.18-.08-.08c-.11-.11-.23-.21-.35-.31l-.07-.05a2.94,2.94,0,0,0-.39-.26,1.59,1.59,0,0,0-.32-.16l-.1,0a.64.64,0,0,0-.18-.06l-.11,0-.1,0-.14,0h-.27l-.19,0,0,0-.14,0h0l-.16.08,4.06-2.36h0l.12-.06h0l0,0,.07,0,.07,0h.07l.15,0h.42l.11,0h0l.06,0,.18.07.06,0,0,0a2.2,2.2,0,0,1,.31.15,2.7,2.7,0,0,1,.39.27A.18.18,0,0,1,118,24a3.38,3.38,0,0,1,.35.31l0,0,.06.06.17.18,0,.06.05.05.1.12.06.08,0,.07a.86.86,0,0,1,.07.1l.05.06a.83.83,0,0,0,.08.12l0,.07,0,0a2.39,2.39,0,0,0,.13.21v0l0,0,.09.16,0,.07,0,.08,0,.06.09.18v0h0l.09.23v0l0,.08a.56.56,0,0,1,0,.12l0,.09,0,.1a.19.19,0,0,1,0,.07l0,.11,0,.13a.09.09,0,0,1,0,0s0,.06,0,.09l0,.2a.13.13,0,0,1,0,.06.07.07,0,0,1,0,.05c0,.15,0,.3,0,.44a1.82,1.82,0,0,1-.74,1.63l-4.07,2.36a1.77,1.77,0,0,0,.74-1.63,3.37,3.37,0,0,0,0-.44A.45.45,0,0,0,115.93,29.87Z"/><path class="cls-11" d="M113.45,26.06c-1.4-.81-2.54-.16-2.54,1.44a5.52,5.52,0,0,0,2.52,4.37c1.4.81,2.54.16,2.54-1.45A5.52,5.52,0,0,0,113.45,26.06Z"/></g><g class="cls-1"><path class="cls-10" d="M109.5,33.3l0-.18s0-.08,0-.12l0-.11a.94.94,0,0,1,0-.16l0-.09-.06-.18,0-.07a2.6,2.6,0,0,0-.1-.25v0c0-.08-.07-.15-.1-.22l0-.07a1.28,1.28,0,0,1-.11-.2l0,0-.14-.23,0-.06-.11-.16-.06-.08a1.47,1.47,0,0,0-.1-.13l-.09-.11-.09-.1-.14-.15-.08-.08a2.61,2.61,0,0,0-.31-.27l-.06,0-.34-.23L107,29.8l-.09,0-.16-.06-.1,0-.09,0-.12,0h-.24l-.16,0h0l-.13,0,0,0-.15.07,5.81-3.38h0l.11-.06h.06l.06,0,.06,0h.57l.09,0h0l0,0,.16.05,0,0,0,0a1.83,1.83,0,0,1,.28.14l.35.23.06.05a3.74,3.74,0,0,1,.31.27l0,0,0,.05.15.16,0,0,0,.05.08.1.06.07,0,.06.07.09,0,.05.07.11,0,.06,0,0a1.18,1.18,0,0,1,.11.19h0l0,0,.08.13,0,.07,0,.06,0,.06.08.16v0h0a1.19,1.19,0,0,1,.08.2l0,0a.24.24,0,0,1,0,.08.3.3,0,0,1,0,.1.19.19,0,0,1,0,.08l0,.09,0,.05a.43.43,0,0,1,0,.11l0,.11v0s0,0,0,.08l0,.18V30a.06.06,0,0,1,0,0c0,.14,0,.27,0,.39a1.58,1.58,0,0,1-.65,1.44l-5.8,3.37a1.56,1.56,0,0,0,.65-1.43,2.56,2.56,0,0,0,0-.39S109.5,33.33,109.5,33.3Z"/><path class="cls-11" d="M107.32,29.94c-1.23-.71-2.24-.14-2.24,1.27a4.9,4.9,0,0,0,2.22,3.85c1.23.72,2.23.14,2.24-1.27A4.9,4.9,0,0,0,107.32,29.94Z"/></g><g class="cls-1"><path class="cls-10" d="M107.8,34.09a3.13,3.13,0,0,0-.1-.44v0a4.52,4.52,0,0,0-.18-.47h0a4.16,4.16,0,0,0-.24-.47v0a4,4,0,0,0-.28-.43l0,0c-.09-.12-.19-.24-.29-.35l-.07-.07a2,2,0,0,0-.26-.24l-.11-.1a4.44,4.44,0,0,0-.38-.27,1.51,1.51,0,0,0-.26-.12.2.2,0,0,0-.08,0l-.14,0-.09,0-.08,0h-.33l-.15,0h0l-.11,0h0l-.13.06,1.16-.67h0l.1,0h.06l0,0h.11l.13,0h.33l.08,0h0l0,0,.15.05,0,0h0l.26.13a2.86,2.86,0,0,1,.38.26l.11.1.18.16a.6.6,0,0,1,.08.08.23.23,0,0,0,.07.07l.07.08.17.2,0,.08,0,0a.18.18,0,0,1,0,.07l.12.17.1.17v0h0c0,.05,0,.1.08.14l.09.18.07.15h0l.07.18c0,.07,0,.13.07.19l0,.1v0a.19.19,0,0,1,0,.07l.06.23a.78.78,0,0,1,0,.14s0,.05,0,.08a.13.13,0,0,0,0,.06c0,.14,0,.27,0,.4a2,2,0,0,1,0,.44,1.18,1.18,0,0,1-.55.85l-1.16.68a1.4,1.4,0,0,0,.59-1.3,2.45,2.45,0,0,0,0-.46A.17.17,0,0,0,107.8,34.09Z"/><path class="cls-11" d="M105.84,31.13c-1.12-.64-2-.12-2,1.16a4.48,4.48,0,0,0,2,3.49c1.12.64,2,.13,2-1.16A4.45,4.45,0,0,0,105.84,31.13Z"/><path class="cls-10" d="M104.43,32.29a3.81,3.81,0,0,0,1.7,3,1.26,1.26,0,0,0,.6.2.41.41,0,0,0,.4-.27,1.22,1.22,0,0,0,.1-.55,3.78,3.78,0,0,0-1.7-2.95,1.26,1.26,0,0,0-.6-.2.41.41,0,0,0-.16,0C104.48,31.61,104.43,32,104.43,32.29Z"/><path class="cls-12" d="M104.66,32.06A3.84,3.84,0,0,0,106.37,35a1.22,1.22,0,0,0,.6.19.38.38,0,0,0,.16,0,1.22,1.22,0,0,0,.1-.55,3.78,3.78,0,0,0-1.7-2.95,1.26,1.26,0,0,0-.6-.2.41.41,0,0,0-.16,0A1.27,1.27,0,0,0,104.66,32.06Z"/></g><g class="cls-1"><path class="cls-11" d="M114.53,22.29h0a.31.31,0,0,0,0,.1v0a.43.43,0,0,0,.09.1l.08.06.06,0,.22.1.08,0,.11,0,.13,0h.46l.17,0h0l.15-.05h0l.17-.08a.52.52,0,0,0,.32-.45v3.36a.53.53,0,0,1-.32.45.8.8,0,0,1-.16.08h0l-.1,0,0,0H116l-.11,0h-.63l-.11,0h-.08l-.22-.1h0a.1.1,0,0,1,0,0l-.08-.05h0l-.07-.07v0l0,0,0-.06h0s0,0,0,0a.2.2,0,0,0,0-.07h0V22.18A.41.41,0,0,0,114.53,22.29Z"/><path class="cls-10" d="M114.84,21.73a.47.47,0,0,0,0,.89,1.7,1.7,0,0,0,1.55,0,.47.47,0,0,0,0-.89A1.7,1.7,0,0,0,114.84,21.73Z"/></g><g class="cls-1"><path class="cls-10" d="M114.12,23.61a.59.59,0,0,0-.06-.14h0a.58.58,0,0,0-.1-.12h0a.47.47,0,0,0-.12-.09.31.31,0,0,0-.12,0h0l-.1,0h0l.06,0,.81-.47h.18l0,0a.39.39,0,0,1,.1.08h0l0,0,0,0,0,0,0,0h0V23l0,0v.08h0v.08a.13.13,0,0,1,0,.06.23.23,0,0,1-.09.2l-.87.51a.25.25,0,0,0,.09-.2.4.4,0,0,0,0-.15Z"/><path class="cls-11" d="M113.84,23.24c-.17-.1-.31,0-.31.17a.69.69,0,0,0,.31.54c.17.09.31,0,.31-.18A.66.66,0,0,0,113.84,23.24Z"/></g><g class="cls-1"><path class="cls-10" d="M117.06,23.61a.61.61,0,0,1,.07-.14h0a.54.54,0,0,1,.09-.12h0a.31.31,0,0,1,.11-.09l.12,0h0l.09,0h0l0,0-.82-.47h-.17l0,0-.1.08h0l0,0,0,0,0,0v0h0l0,0v.13h0v0a.06.06,0,0,0,0,0v.06a.2.2,0,0,0,.09.2l.87.51a.23.23,0,0,1-.09-.2.77.77,0,0,1,0-.15Z"/><path class="cls-11" d="M117.34,23.24c.17-.1.31,0,.31.17a.68.68,0,0,1-.3.54c-.17.09-.31,0-.31-.18A.65.65,0,0,1,117.34,23.24Z"/></g><path class="cls-10" d="M113.17,23.81a2,2,0,0,1-1.12-1.64,2,2,0,0,1,1.13-1.65h0a5.34,5.34,0,0,1,4.86,0,2,2,0,0,1,1.12,1.64A2,2,0,0,1,118,23.81a5.28,5.28,0,0,1-4.85,0Zm.43-2.57h0a1.19,1.19,0,0,0-.72.93,1.2,1.2,0,0,0,.7.93,4.53,4.53,0,0,0,4,0,1.22,1.22,0,0,0,.72-.94,1.16,1.16,0,0,0-.71-.92,4.45,4.45,0,0,0-4,0Z"/><path class="cls-11" d="M112.05,22.17a2,2,0,0,0,1.12,1.64,5.28,5.28,0,0,0,4.85,0,2,2,0,0,0,1.14-1.65.34.34,0,0,0,0-.1A2,2,0,0,1,118,23.58a5.28,5.28,0,0,1-4.85,0,2,2,0,0,1-1.11-1.51A.31.31,0,0,0,112.05,22.17Z"/><path class="cls-11" d="M112.88,22.05v.07a1.27,1.27,0,0,1,.72-.88,4.47,4.47,0,0,1,4,0,1.21,1.21,0,0,1,.7.87v-.06c0-.84-1.22-1.52-2.73-1.52S112.88,21.21,112.88,22.05Z"/><g class="cls-1"><path class="cls-10" d="M115.17,21.59a1.71,1.71,0,0,1,.87,0v-.73a.21.21,0,0,0-.12-.18l-.05,0,0,0h-.4l-.11.05,0,0s0,0,0,0l0,0h0s0,0,0,0v0s0,0,0,0h0v.76Z"/></g><g class="cls-1"><path class="cls-10" d="M105.9,24.11l0-.2,0-.14,0-.13c0-.06,0-.12,0-.18l0-.1-.07-.21,0-.08c0-.09-.07-.19-.11-.28l0,0a2.56,2.56,0,0,0-.11-.24l0-.08-.12-.23,0,0a2.26,2.26,0,0,0-.16-.26.35.35,0,0,0-.05-.08l-.12-.18-.07-.09-.12-.15-.1-.12-.1-.11-.17-.18a.3.3,0,0,0-.08-.08,3.38,3.38,0,0,0-.35-.31l-.07-.05a4.56,4.56,0,0,0-.39-.27l-.32-.16-.1,0-.18-.06-.11,0-.1,0-.14,0h-.27L102,20h0l-.14,0,0,0-.16.08,4.06-2.37h0l.12-.07h0l0,0,.07,0,.07,0h.27a.24.24,0,0,1,.12,0h.19l.06,0,.11,0h0l.06,0,.18.06.06,0,0,0,.32.16.38.26.07.06q.18.13.36.3l0,0,.06.06.17.18,0,.05.05.06.1.12.06.08,0,.07.07.09,0,.07a1,1,0,0,1,.08.11.35.35,0,0,0,0,.08l0,0a2.39,2.39,0,0,0,.13.21v0l0,0,.09.15,0,.08,0,.07a.16.16,0,0,0,0,.07,1.42,1.42,0,0,0,.08.18v0h0l.09.23v0l0,.08a.56.56,0,0,1,0,.12l0,.08,0,.11a.14.14,0,0,1,0,.06l0,.12,0,.13a.06.06,0,0,1,0,0s0,.07,0,.1a1.2,1.2,0,0,1,0,.2.11.11,0,0,1,0,.05.13.13,0,0,1,0,.06,3.25,3.25,0,0,1,0,.44,1.79,1.79,0,0,1-.74,1.62l-4.07,2.37a1.77,1.77,0,0,0,.74-1.63,3.37,3.37,0,0,0,0-.44A.41.41,0,0,0,105.9,24.11Z"/><path class="cls-11" d="M103.42,20.29c-1.4-.8-2.54-.16-2.54,1.45a5.59,5.59,0,0,0,2.52,4.37c1.4.81,2.54.16,2.54-1.45A5.55,5.55,0,0,0,103.42,20.29Z"/></g><g class="cls-1"><path class="cls-10" d="M99.47,27.54l0-.18s0-.08,0-.12l0-.11c0-.06,0-.11,0-.16l0-.09-.06-.18,0-.08a2.44,2.44,0,0,0-.1-.24v0l-.1-.21,0-.07-.11-.2,0,0c0-.08-.1-.15-.14-.23l0-.06a.91.91,0,0,0-.11-.16l-.06-.09-.1-.12-.09-.11-.08-.1-.15-.16L98,24.73a2.61,2.61,0,0,0-.31-.27l-.06-.05a4,4,0,0,0-.34-.23L97,24l-.09,0L96.76,24l-.1,0-.09,0h-.36l-.16,0h0l-.13,0h0L95.7,24l5.81-3.37h0l.11-.05h.06l.06,0,.06,0h.06l.14,0h.37l.09,0h0l0,0,.16.05,0,0,0,0a1.47,1.47,0,0,1,.28.14,1.92,1.92,0,0,1,.35.23l.06,0,.31.27,0,0a.12.12,0,0,1,0,.05l.15.16,0,.05s0,0,0,0l.08.11.06.07a.21.21,0,0,1,0,.06l.07.08,0,.06a.61.61,0,0,0,.07.1l0,.07,0,0,.11.19v0l0,0,.08.13,0,.06,0,.07a.14.14,0,0,1,0,.06l.08.16v0h0l.09.2v0a.19.19,0,0,1,0,.07.69.69,0,0,1,0,.1.31.31,0,0,1,0,.08l0,.09s0,0,0,.06a.36.36,0,0,1,0,.1l0,.12v0s0,.05,0,.08l0,.18a.06.06,0,0,0,0,0v.05c0,.13,0,.26,0,.39a1.56,1.56,0,0,1-.65,1.43l-5.8,3.38A1.57,1.57,0,0,0,99.51,28a2.8,2.8,0,0,0,0-.4A.28.28,0,0,0,99.47,27.54Z"/><path class="cls-11" d="M97.29,24.18c-1.23-.71-2.24-.14-2.24,1.27a4.9,4.9,0,0,0,2.22,3.85c1.23.71,2.23.14,2.24-1.27A4.9,4.9,0,0,0,97.29,24.18Z"/></g><g class="cls-1"><path class="cls-10" d="M97.77,28.32a3.93,3.93,0,0,0-.1-.44v0a4.68,4.68,0,0,0-.18-.48h0q-.11-.24-.24-.48h0a4,4,0,0,0-.28-.43l0,0c-.09-.12-.19-.24-.29-.35L96.56,26l-.26-.24-.11-.1a2.86,2.86,0,0,0-.38-.26l-.26-.13-.08,0-.14-.05-.09,0-.08,0-.11,0h-.22l-.15,0h0l-.11,0,0,0a.38.38,0,0,0-.13.06l1.16-.68h0l.1-.05h.06l0,0h.57l.08,0h0l0,0,.15.05h0s0,0,0,0a1.51,1.51,0,0,1,.26.12,4.44,4.44,0,0,1,.38.27l.11.1.18.15.08.09.07.07.07.08c.06.06.11.13.17.2a.56.56,0,0,1,0,.08l0,0,0,.07.12.18.11.17v0h0l.08.14.09.17c0,.06.05.11.07.16h0l.07.18a1.46,1.46,0,0,1,.07.19l0,.1v0a.14.14,0,0,1,0,.07l.06.23a.68.68,0,0,1,0,.14s0,.05,0,.07,0,.05,0,.07a2.68,2.68,0,0,1,0,.4,2.12,2.12,0,0,1,0,.44,1.22,1.22,0,0,1-.54.85l-1.17.68a1.41,1.41,0,0,0,.59-1.3,3.55,3.55,0,0,0,0-.46S97.78,28.35,97.77,28.32Z"/><path class="cls-11" d="M95.81,25.37c-1.12-.64-2-.13-2,1.16a4.44,4.44,0,0,0,2,3.48c1.12.65,2,.13,2-1.15A4.43,4.43,0,0,0,95.81,25.37Z"/><path class="cls-10" d="M94.4,26.53a3.85,3.85,0,0,0,1.7,2.95,1.26,1.26,0,0,0,.6.2.44.44,0,0,0,.41-.27,1.35,1.35,0,0,0,.09-.55,3.77,3.77,0,0,0-1.7-2.95,1.26,1.26,0,0,0-.6-.2.41.41,0,0,0-.16,0C94.45,25.85,94.4,26.26,94.4,26.53Z"/><path class="cls-12" d="M94.63,26.29a3.81,3.81,0,0,0,1.71,2.95,1.26,1.26,0,0,0,.6.2.47.47,0,0,0,.17,0,1.35,1.35,0,0,0,.09-.55,3.77,3.77,0,0,0-1.7-2.95,1.26,1.26,0,0,0-.6-.2.41.41,0,0,0-.16,0A1.23,1.23,0,0,0,94.63,26.29Z"/></g><g class="cls-1"><path class="cls-11" d="M104.5,16.53h0a.47.47,0,0,0,0,.1v0l.09.1.08,0,.06.05.22.1.08,0,.11,0,.13,0h.46a.47.47,0,0,0,.17,0h0l.15-.05h0l.17-.08a.53.53,0,0,0,.32-.45v3.36a.54.54,0,0,1-.32.45l-.16.07h0l-.1,0H106l-.11,0h-.63l-.11,0-.06,0h0a.85.85,0,0,1-.22-.09h0l0,0-.08-.06h0l-.07-.08h0v0l0,0,0-.06h0v0a.08.08,0,0,0,0,0v-.06h0V16.41A.49.49,0,0,0,104.5,16.53Z"/><path class="cls-10" d="M104.81,16a.48.48,0,0,0,0,.9,1.7,1.7,0,0,0,1.55,0c.43-.25.43-.65,0-.89A1.73,1.73,0,0,0,104.81,16Z"/></g><g class="cls-1"><path class="cls-10" d="M104.09,17.85a.47.47,0,0,0-.06-.15h0a.64.64,0,0,0-.1-.13h0l-.12-.1a.28.28,0,0,0-.12,0h0a.16.16,0,0,0-.1,0h0l.06,0,.81-.48h.18l0,0,.1.07,0,0h0l0,0,0,0,0,0,0,0h0v0l0,0v.06h0v.08a.13.13,0,0,1,0,.06.24.24,0,0,1-.09.2l-.87.5a.23.23,0,0,0,.09-.2.44.44,0,0,0,0-.15Z"/><path class="cls-11" d="M103.81,17.47c-.17-.1-.31,0-.31.18a.69.69,0,0,0,.31.53c.17.1.31,0,.31-.18A.69.69,0,0,0,103.81,17.47Z"/></g><g class="cls-1"><path class="cls-10" d="M107,17.85a1,1,0,0,1,.07-.15h0a.6.6,0,0,1,.09-.13h0a.52.52,0,0,1,.11-.1l.12,0h0a.13.13,0,0,1,.09,0h0l0,0-.82-.48h-.17l0,0-.1.07v0h0l0,0,0,0,0,0v0h0l0,0v.11h0v0s0,0,0,.05v.06a.22.22,0,0,0,.09.2l.87.5A.2.2,0,0,1,107,18a.89.89,0,0,1,0-.15Z"/><path class="cls-11" d="M107.31,17.47c.18-.1.31,0,.31.18a.68.68,0,0,1-.3.53c-.17.1-.31,0-.31-.18A.68.68,0,0,1,107.31,17.47Z"/></g><path class="cls-10" d="M103.14,18A1.94,1.94,0,0,1,102,16.41a2,2,0,0,1,1.14-1.65h0a5.26,5.26,0,0,1,4.85,0,2,2,0,0,1,1.12,1.64A2,2,0,0,1,108,18.05a5,5,0,0,1-2.43.59A4.85,4.85,0,0,1,103.14,18Zm.43-2.57h0a1.22,1.22,0,0,0-.72.94,1.17,1.17,0,0,0,.7.92,4.53,4.53,0,0,0,4,0,1.19,1.19,0,0,0,.72-.93,1.2,1.2,0,0,0-.7-.93,4.55,4.55,0,0,0-4,0Z"/><path class="cls-11" d="M102,16.4A2,2,0,0,0,103.14,18,5.2,5.2,0,0,0,108,18a2,2,0,0,0,1.14-1.64.41.41,0,0,0,0-.11A2,2,0,0,1,108,17.82a5.28,5.28,0,0,1-4.85,0A2,2,0,0,1,102,16.3.38.38,0,0,0,102,16.4Z"/><path class="cls-11" d="M102.85,16.28v.07a1.28,1.28,0,0,1,.72-.88,4.55,4.55,0,0,1,4,0,1.21,1.21,0,0,1,.7.88.17.17,0,0,0,0-.07c0-.83-1.23-1.52-2.74-1.52S102.85,15.45,102.85,16.28Z"/><g class="cls-1"><path class="cls-10" d="M105.14,15.83a1.71,1.71,0,0,1,.87,0v-.73a.23.23,0,0,0-.12-.19l-.05,0,0,0h-.39l-.12.05-.05,0s0,0,0,0l0,0h0v0s0,0,0,0v.78Z"/></g><g class="cls-1"><polygon class="cls-2" points="6.26 40.06 74.75 79.71 144.13 39.65 74.75 0 6.26 40.06"/><polygon class="cls-4" points="12.25 40.07 13.98 41.07 15.7 42.07 74.75 76.25 74.74 3.47 12.25 40.07"/><polygon class="cls-3" points="74.75 76.25 134.69 41.64 135.56 41.14 136.42 40.64 138.15 39.64 74.74 3.47 74.75 76.25"/><polygon class="cls-13" points="27.37 48.77 74.83 76.25 123.02 48.43 74.83 20.96 27.37 48.77"/><g class="cls-1"><path class="cls-10" d="M113.44,44.32l0-.15s0-.07,0-.11a.3.3,0,0,1,0-.1.57.57,0,0,1,0-.14l0-.08a.88.88,0,0,0,0-.15.14.14,0,0,0,0-.06,1.45,1.45,0,0,0-.09-.22v0a.82.82,0,0,0-.09-.19l0-.06-.1-.17,0,0-.12-.19a.21.21,0,0,0,0-.06l-.09-.14-.06-.07-.08-.11-.08-.1-.08-.08-.13-.14-.06-.06a2.91,2.91,0,0,0-.27-.24l0,0-.3-.2a1.42,1.42,0,0,0-.25-.12l-.07,0-.14,0-.09,0-.07,0-.11,0h-.21l-.14,0h0l-.1,0h0l-.12.06,1.75-1h0l.1-.05h0l.05,0h.11l.11,0h.45l0,0,.14,0h0l0,0,.24.12.3.2,0,0a2.91,2.91,0,0,1,.27.24h0l0,.05.13.14,0,0,0,0,.08.09,0,.06,0,.06.06.07,0,0,.06.09,0,0,0,0a1.4,1.4,0,0,0,.1.16h0l0,0a.75.75,0,0,1,.07.12l0,0,0,.06s0,0,0,0l.07.14v0h0c0,.06,0,.11.07.17v0a.25.25,0,0,1,0,.07l0,.08a.14.14,0,0,0,0,.07.19.19,0,0,0,0,.08s0,0,0,.05a.29.29,0,0,0,0,.09s0,.07,0,.1v0a.22.22,0,0,1,0,.08l0,.15a.06.06,0,0,0,0,0v0c0,.12,0,.23,0,.34a1.37,1.37,0,0,1-.56,1.25l-1.76,1a1.35,1.35,0,0,0,.57-1.25c0-.11,0-.22,0-.34A.19.19,0,0,1,113.44,44.32Z"/><path class="cls-11" d="M111.54,41.4c-1.07-.62-2-.13-2,1.11a4.26,4.26,0,0,0,1.94,3.35c1.07.61,1.94.12,1.94-1.12A4.26,4.26,0,0,0,111.54,41.4Z"/></g><g class="cls-1"><path class="cls-10" d="M112.47,44.72a2.74,2.74,0,0,0-.09-.39v0a3.52,3.52,0,0,0-.15-.42h0a4,4,0,0,0-.21-.41h0c-.07-.13-.16-.25-.24-.38l0,0a3.88,3.88,0,0,0-.26-.31l0-.06-.23-.21-.1-.09a2.75,2.75,0,0,0-.33-.23l-.22-.11-.07,0-.12,0-.08,0h-.07l-.09,0h-.36l-.09,0h0l-.12.05.5-.3h0l.09,0h0l0,0h.61l0,0,.12,0h0l0,0a1.13,1.13,0,0,1,.22.11,2.19,2.19,0,0,1,.33.23.39.39,0,0,1,.1.08c0,.05.11.09.15.14l.07.07.06.06a.46.46,0,0,0,.07.07l.14.18,0,.06,0,0,0,.06.1.15.09.15h0v0a.75.75,0,0,0,.07.12l.07.15.06.14h0l.07.16.06.16a.29.29,0,0,0,0,.09v0s0,0,0,.06a1.6,1.6,0,0,1,0,.21s0,.08,0,.12,0,0,0,.06,0,0,0,.06a2,2,0,0,1,0,.34,2.38,2.38,0,0,1,0,.39,1.05,1.05,0,0,1-.48.74l-.5.3a1.24,1.24,0,0,0,.52-1.13,2.85,2.85,0,0,0,0-.4A.13.13,0,0,0,112.47,44.72Z"/><path class="cls-11" d="M110.76,42.14c-1-.56-1.76-.11-1.76,1a3.87,3.87,0,0,0,1.75,3c1,.56,1.76.11,1.77-1A3.9,3.9,0,0,0,110.76,42.14Z"/><path class="cls-10" d="M109.54,43.15A3.29,3.29,0,0,0,111,45.72a1.07,1.07,0,0,0,.52.17.38.38,0,0,0,.35-.23,1.2,1.2,0,0,0,.09-.48,3.33,3.33,0,0,0-1.49-2.57,1,1,0,0,0-.52-.17l-.14,0C109.58,42.56,109.54,42.92,109.54,43.15Z"/><path class="cls-12" d="M109.74,43a3.31,3.31,0,0,0,1.49,2.56,1.09,1.09,0,0,0,.51.18.33.33,0,0,0,.15,0,1.2,1.2,0,0,0,.09-.48,3.33,3.33,0,0,0-1.49-2.57,1,1,0,0,0-.52-.17l-.14,0A1.25,1.25,0,0,0,109.74,43Z"/></g><polygon class="cls-13" points="104.63 44.99 108.6 42.69 112.5 44.95 113 44.66 113.46 44.92 115.19 43.93 116.95 44.94 110.86 48.59 104.63 44.99"/><g class="cls-1"><path class="cls-10" d="M102.32,38.05l0-.16s0-.07,0-.1a.44.44,0,0,1,0-.1.74.74,0,0,1,0-.14l0-.08a1.42,1.42,0,0,0-.05-.16.14.14,0,0,0,0-.06L102,37v0a1.07,1.07,0,0,0-.09-.19l0,0-.1-.18,0,0-.12-.2,0-.06-.09-.13-.06-.08-.09-.11-.07-.09-.08-.09a1.59,1.59,0,0,0-.13-.13L101,35.6l-.27-.24,0,0-.3-.21-.25-.12-.07,0-.14,0-.09,0-.08,0h-.31l-.14,0h0l-.1,0h0A.34.34,0,0,0,99,35l1.75-1h0l.1-.05h0l0,0h0l0,0h.5l.08,0h.08l.14,0,.05,0h0a1.34,1.34,0,0,1,.24.12l.3.2,0,0,.27.24,0,0s0,0,0,0l.13.14,0,0,0,0,.08.09,0,.06a.1.1,0,0,1,0,.05l.06.07,0,0,.06.09a.21.21,0,0,1,0,.06l0,0,.1.17h0l0,0,.07.12,0,.06,0,0a.08.08,0,0,0,0,.05l.06.14,0,0h0l.07.18v0a.14.14,0,0,1,0,.06l0,.09a.25.25,0,0,0,0,.07.31.31,0,0,0,0,.08s0,0,0,0a.29.29,0,0,0,0,.09s0,.06,0,.09v0a.17.17,0,0,1,0,.07l0,.16a.08.08,0,0,0,0,0v0c0,.11,0,.23,0,.34a1.34,1.34,0,0,1-.57,1.24l-1.75,1a1.34,1.34,0,0,0,.57-1.24c0-.11,0-.23,0-.34A.25.25,0,0,1,102.32,38.05Z"/><path class="cls-11" d="M100.42,35.12c-1.07-.62-2-.12-2,1.11a4.26,4.26,0,0,0,1.94,3.35c1.07.62,1.94.12,1.94-1.11A4.28,4.28,0,0,0,100.42,35.12Z"/></g><g class="cls-1"><path class="cls-10" d="M101.35,38.44a2.34,2.34,0,0,0-.09-.38v0a3.52,3.52,0,0,0-.15-.42h0c-.07-.14-.13-.28-.21-.41v0c-.07-.13-.16-.25-.24-.37l0,0a2.66,2.66,0,0,0-.26-.31l0-.07-.23-.2a.43.43,0,0,0-.1-.09,1.78,1.78,0,0,0-.33-.23l-.22-.11-.07,0-.12,0-.08,0-.07,0h-.29l-.13,0h0l-.09,0h0l-.12.06.5-.3h0l.09,0h.59l.07,0h.08l.12,0,0,0h0l.22.11a3.29,3.29,0,0,1,.33.23l.1.09a.93.93,0,0,1,.15.13l.07.08.06.06.07.07c0,.05.09.11.14.17l0,.07,0,0,.05.06s.07.1.1.16l.09.14v0h0a.75.75,0,0,0,.07.12l.07.15.06.14h0c0,.06.05.11.07.16l.06.17a.24.24,0,0,0,0,.08v0s0,0,0,.06a1.46,1.46,0,0,1,0,.2s0,.08,0,.12,0,0,0,.07,0,0,0,0a2.11,2.11,0,0,1,0,.35,2.17,2.17,0,0,1,0,.38,1.07,1.07,0,0,1-.48.75l-.5.29a1.23,1.23,0,0,0,.52-1.12,2.85,2.85,0,0,0,0-.41A.13.13,0,0,0,101.35,38.44Z"/><path class="cls-11" d="M99.64,35.87c-1-.56-1.76-.11-1.76,1a3.87,3.87,0,0,0,1.75,3c1,.56,1.76.11,1.77-1A3.88,3.88,0,0,0,99.64,35.87Z"/><path class="cls-10" d="M98.42,36.88a3.28,3.28,0,0,0,1.48,2.56,1.12,1.12,0,0,0,.52.18.38.38,0,0,0,.35-.23,1.2,1.2,0,0,0,.09-.48,3.32,3.32,0,0,0-1.49-2.57,1.08,1.08,0,0,0-.52-.18.32.32,0,0,0-.14,0C98.46,36.29,98.42,36.65,98.42,36.88Z"/><path class="cls-12" d="M98.62,36.67a3.35,3.35,0,0,0,1.48,2.57,1.1,1.1,0,0,0,.52.17l.15,0a1.2,1.2,0,0,0,.09-.48,3.32,3.32,0,0,0-1.49-2.57,1.08,1.08,0,0,0-.52-.18.32.32,0,0,0-.14,0A1.2,1.2,0,0,0,98.62,36.67Z"/></g><polygon class="cls-13" points="93.51 38.71 97.48 36.42 101.38 38.67 101.89 38.39 102.34 38.65 104.07 37.65 105.83 38.67 99.74 42.32 93.51 38.71"/><g class="cls-1"><path class="cls-10" d="M92.58,32.47s0-.1,0-.15l0-.11a.44.44,0,0,0,0-.1.65.65,0,0,0,0-.13.19.19,0,0,0,0-.08c0-.06,0-.11,0-.16l0-.06c0-.07-.05-.14-.08-.22v0l-.09-.19,0-.05L92.07,31l0,0a1.37,1.37,0,0,0-.13-.2l0-.06-.1-.14-.05-.07-.09-.11-.08-.09-.07-.09-.13-.14L91.3,30a1.55,1.55,0,0,0-.27-.24l0,0-.3-.2-.24-.12-.08,0-.13,0-.09,0-.08,0-.1,0h-.39l-.11,0h0l-.13.07,1.75-1h0l.1-.05h0l.05,0h.11l.12,0h.32l.08,0h0l0,0,.13.05h0l0,0,.24.12a2.23,2.23,0,0,1,.3.2l0,0a2.09,2.09,0,0,1,.28.24l0,0s0,0,0,0l.13.14,0,0,0,0,.08.1,0,0a.21.21,0,0,0,0,.06l.05.07,0,0,.06.09a.21.21,0,0,0,0,.06v0a1.4,1.4,0,0,1,.1.16h0l0,0,.06.12,0,.05,0,.06,0,0,.06.14v0h0c0,.06,0,.12.07.17l0,0a.14.14,0,0,0,0,.06l0,.09a.64.64,0,0,1,0,.07.19.19,0,0,1,0,.07.17.17,0,0,1,0,.05s0,.06,0,.09l0,.1v0a.64.64,0,0,1,0,.07.77.77,0,0,1,0,.15.09.09,0,0,1,0,.05v0a2.07,2.07,0,0,1,0,.35,1.36,1.36,0,0,1-.57,1.24l-1.75,1a1.34,1.34,0,0,0,.56-1.24,1.94,1.94,0,0,0,0-.34A.28.28,0,0,0,92.58,32.47Z"/><path class="cls-11" d="M90.68,29.55c-1.07-.62-1.94-.12-1.94,1.11A4.25,4.25,0,0,0,90.67,34c1.07.62,1.94.12,1.94-1.11A4.25,4.25,0,0,0,90.68,29.55Z"/></g><g class="cls-1"><path class="cls-10" d="M91.62,32.87c0-.13-.05-.26-.09-.39v0c0-.14-.1-.28-.16-.42h0a4,4,0,0,0-.21-.41h0c-.08-.13-.16-.25-.25-.37l0,0a3.88,3.88,0,0,0-.26-.31l-.06-.06-.22-.21-.1-.09a3.15,3.15,0,0,0-.33-.22,1.5,1.5,0,0,0-.22-.11l-.07,0-.13,0-.08,0h-.07l-.09,0H88.9l-.1,0h0l-.11.05.49-.29h0l.09,0h0l0,0h.5l.07,0h0l0,0,.12,0,0,0h0l.22.11a1.5,1.5,0,0,1,.33.23l.11.09.15.13.07.07.06.07.06.07.15.17a.43.43,0,0,1,0,.07l0,0,0,.06.11.15.09.15h0v0l.07.12.08.15.06.14h0l.06.16.06.17a.19.19,0,0,1,0,.08l0,0s0,0,0,.06a1.17,1.17,0,0,1,0,.2.5.5,0,0,1,0,.12s0,0,0,.06a.13.13,0,0,0,0,.06c0,.12,0,.23,0,.35a1.58,1.58,0,0,1,0,.38,1.05,1.05,0,0,1-.47.74l-.5.3a1.23,1.23,0,0,0,.51-1.13,2.8,2.8,0,0,0,0-.4A.13.13,0,0,1,91.62,32.87Z"/><path class="cls-11" d="M89.91,30.3c-1-.56-1.76-.11-1.77,1a3.87,3.87,0,0,0,1.75,3c1,.56,1.77.11,1.77-1A3.87,3.87,0,0,0,89.91,30.3Z"/><path class="cls-10" d="M88.68,31.3a3.35,3.35,0,0,0,1.48,2.57,1.1,1.1,0,0,0,.52.17.38.38,0,0,0,.36-.23,1.18,1.18,0,0,0,.08-.48,3.32,3.32,0,0,0-1.48-2.57,1.1,1.1,0,0,0-.52-.17.29.29,0,0,0-.14,0C88.72,30.71,88.68,31.07,88.68,31.3Z"/><path class="cls-12" d="M88.89,31.1a3.31,3.31,0,0,0,1.48,2.57,1.07,1.07,0,0,0,.52.17l.15,0a1.18,1.18,0,0,0,.08-.48,3.32,3.32,0,0,0-1.48-2.57,1.1,1.1,0,0,0-.52-.17.29.29,0,0,0-.14,0A1,1,0,0,0,88.89,31.1Z"/></g><polygon class="cls-13" points="83.77 33.14 87.75 30.84 91.65 33.1 92.15 32.81 92.61 33.08 94.33 32.08 96.09 33.09 90 36.74 83.77 33.14"/><line class="cls-14" x1="90.12" y1="37" x2="92.12" y2="35.84"/><line class="cls-15" x1="63.43" y1="60.22" x2="66.38" y2="58.52"/><line class="cls-14" x1="52.64" y1="59.75" x2="53.94" y2="59"/><line class="cls-15" x1="61.27" y1="67.62" x2="64.22" y2="65.91"/><line class="cls-15" x1="99.18" y1="43" x2="102.13" y2="41.3"/><line class="cls-14" x1="70.51" y1="53.04" x2="72.22" y2="52.06"/><line class="cls-14" x1="85.93" y1="43.29" x2="88.88" y2="41.59"/><polygon class="cls-3" points="6.26 40.06 6.26 41.69 74.75 81.34 74.75 79.71 6.26 40.06"/><polygon class="cls-4" points="74.75 79.71 74.75 81.34 144.14 41.28 144.13 39.65 74.75 79.71"/></g><polygon class="cls-2" points="93.42 65.47 96.41 67.2 128.16 48.87 125.18 47.13 93.42 65.47"/><g class="cls-1"><polygon class="cls-16" points="88.85 28.96 40.9 56.64 32.49 51.77 88.82 19.25 88.85 28.96"/><polygon class="cls-2" points="88.82 19.25 32.49 51.77 18.36 43.6 74.73 11.06 88.82 19.25"/></g><g class="cls-1"><path class="cls-17" d="M79.68,51.14C69.57,57,67.84,61.63,67.75,61.88l1.54.89c.09-.24,1.82-4.91,11.92-10.74s18.16-6.82,18.59-6.87l-1.54-.89C97.83,44.32,89.78,45.3,79.68,51.14Z"/><polygon class="cls-18" points="67.75 61.88 67.76 67.31 69.3 68.2 69.29 62.77 67.75 61.88"/><path class="cls-19" d="M69.29,62.77V68.2c.09-.24,1.82-4.91,11.93-10.74s18.15-6.82,18.58-6.87V45.16c-.43.05-8.49,1-18.59,6.87S69.38,62.53,69.29,62.77Z"/></g><g class="cls-1"><path class="cls-2" d="M81.22,51.5C71.12,57.33,69.39,62,69.3,62.24L75,65.56,105.51,48,99.8,44.63C99.38,44.68,91.32,45.67,81.22,51.5Z"/><polygon class="cls-20" points="69.3 62.24 69.31 68.21 75.01 71.53 75 65.56 69.3 62.24"/><polygon class="cls-21" points="75 65.56 75.01 71.53 105.52 53.91 105.51 47.95 75 65.56"/></g><polygon class="cls-2" points="131.61 43.41 74.73 76.25 65.03 70.62 121.9 37.77 131.61 43.41"/><g class="cls-1"><path class="cls-2" d="M68.22,45.4C78.3,39.59,80,33.33,80.11,33.09l-4.48-2.6L45.21,48.05l4.48,2.6C50.11,50.6,58.15,51.22,68.22,45.4Z"/><polygon class="cls-20" points="45.21 48.05 45.22 54 49.7 56.6 49.69 50.65 45.21 48.05"/><path class="cls-3" d="M68.23,49.75c-10.07,5.82-18.11,6.8-18.53,6.85v-6c.42,0,8.46-1,18.53-6.85S80,33.33,80.11,33.09V39C80,39.28,78.31,43.94,68.23,49.75Z"/></g><g class="cls-1"><path class="cls-17" d="M69.84,47C79.92,41.22,81.65,35,81.74,34.73l-1.62-.94C80,34,78.3,38.68,68.23,44.5S50.12,51.3,49.7,51.35l1.61.94C51.74,52.24,59.77,52.86,69.84,47Z"/><polygon class="cls-18" points="49.7 51.35 49.71 56.6 51.33 57.54 51.31 52.29 49.7 51.35"/><path class="cls-19" d="M81.74,34.73c-.09.24-1.82,4.89-11.9,10.71s-18.1,6.8-18.53,6.85l0,5.25c.42,0,8.45-.33,18.53-6.15S81.66,40.22,81.75,40Z"/></g><g class="cls-1"><path class="cls-22" d="M80.86,45.2v4a.15.15,0,0,1-.09.12.43.43,0,0,1-.44,0,.14.14,0,0,1-.1-.12v-4a.17.17,0,0,0,.09.13.51.51,0,0,0,.45,0,.18.18,0,0,0,.08-.1h0A0,0,0,0,0,80.86,45.2Z"/><path class="cls-10" d="M80.76,45.07c.13.07.13.19,0,.26a.51.51,0,0,1-.45,0,.14.14,0,0,1,0-.26A.49.49,0,0,1,80.76,45.07Z"/></g><g class="cls-1"><path class="cls-22" d="M79.31,44.19v4s0,.09-.09.13a.49.49,0,0,1-.44,0,.17.17,0,0,1-.1-.13v-4c0,.05,0,.09.09.13a.51.51,0,0,0,.45,0,.15.15,0,0,0,.08-.1h0A0,0,0,0,0,79.31,44.19Z"/><path class="cls-10" d="M79.21,44.06c.13.07.13.19,0,.26a.51.51,0,0,1-.45,0,.14.14,0,0,1,0-.26A.49.49,0,0,1,79.21,44.06Z"/></g><g class="cls-1"><polygon class="cls-17" points="70.18 59.85 68.92 60.58 52.95 51.36 54.21 50.63 70.18 59.85"/><polygon class="cls-19" points="70.18 59.85 70.18 60.26 68.92 60.99 68.92 60.58 70.18 59.85"/><polygon class="cls-23" points="68.92 60.58 68.92 60.99 52.95 51.77 52.95 51.36 68.92 60.58"/></g><g class="cls-1"><polygon class="cls-17" points="79.3 52 78.05 52.73 66.73 46.2 67.98 45.47 79.3 52"/><polygon class="cls-19" points="79.3 52 79.3 52.41 78.04 53.14 78.05 52.73 79.3 52"/><polygon class="cls-23" points="78.05 52.73 78.04 53.14 66.72 46.6 66.73 46.2 78.05 52.73"/></g><g class="cls-1"><polygon class="cls-17" points="95.32 44.71 94.07 45.44 79.07 36.78 80.33 36.05 95.32 44.71"/><polygon class="cls-19" points="95.32 44.71 95.32 45.12 94.07 45.85 94.07 45.44 95.32 44.71"/><polygon class="cls-23" points="94.07 45.44 94.07 45.85 79.07 37.19 79.07 36.78 94.07 45.44"/></g><g class="cls-1"><polygon class="cls-18" points="72.62 42.09 76.15 40.05 76.14 41.48 72.62 43.52 72.62 42.09"/><polygon class="cls-23" points="83.75 48.04 83.75 48.52 83.74 49.95 83.33 49.71 83.33 48.28 72.62 42.09 72.62 43.52 72.21 43.29 72.21 41.86 72.22 41.38 72.62 41.62 83.33 47.8 83.75 48.04"/><polygon class="cls-19" points="83.75 48.04 83.75 48.52 83.74 49.95 87.27 47.9 87.27 46.47 87.27 45.99 83.75 48.04"/><polygon class="cls-17" points="86.86 45.75 76.15 39.57 75.74 39.33 72.22 41.38 72.62 41.62 83.33 47.8 83.75 48.04 87.27 45.99 86.86 45.75"/></g><path class="cls-24" d="M79,43.83a1,1,0,0,1-.53-.16L50.56,25.91a1,1,0,0,1-.46-.84v-5.4L45.94,17.3a1,1,0,0,1-.37-1.36,1,1,0,0,1,1.36-.38l4.65,2.66a1,1,0,0,1,.51.87v5.43L79.53,42A1,1,0,0,1,79,43.83Z"/><g class="cls-1"><path class="cls-11" d="M82.08,41.63l0,2a1.11,1.11,0,0,1-.65.91,3.49,3.49,0,0,1-3.15,0,1.13,1.13,0,0,1-.66-.92l0-2a1.12,1.12,0,0,0,.65.92,3.52,3.52,0,0,0,3.16,0,1.28,1.28,0,0,0,.61-.72h0A.52.52,0,0,0,82.08,41.63Z"/><path class="cls-10" d="M81.42,40.71a1,1,0,0,1,0,1.83,3.49,3.49,0,0,1-3.15,0,1,1,0,0,1,0-1.83A3.5,3.5,0,0,1,81.42,40.71Z"/></g><path class="cls-25" d="M84.57,35.57a1.25,1.25,0,0,1-1.25-1.25v-9.5L68,15.06A1.28,1.28,0,0,1,67.4,14V8.75l-4-2.3a1.25,1.25,0,0,1,1.24-2.17l4.66,2.66A1.28,1.28,0,0,1,69.9,8v5.3l15.34,9.76a1.25,1.25,0,0,1,.58,1.05V34.32A1.25,1.25,0,0,1,84.57,35.57Z"/><path class="cls-25" d="M41.75,49.76v7.38l-2.5-1.46V50.44L23.91,40.68a1.25,1.25,0,0,1-.58-1V34.37l-4-2.3a1.25,1.25,0,0,1,1.24-2.17l4.65,2.66a1.25,1.25,0,0,1,.63,1.08v5.3L41.17,48.7A1.26,1.26,0,0,1,41.75,49.76Z"/></g></g></g></svg>