<svg xmlns="http://www.w3.org/2000/svg" xmlns:xlink="http://www.w3.org/1999/xlink" viewBox="0 0 124.61 150"><defs><style>.cls-1,.cls-10,.cls-11,.cls-12,.cls-13,.cls-14,.cls-15,.cls-16,.cls-17,.cls-18,.cls-19,.cls-20,.cls-21,.cls-22,.cls-23,.cls-24,.cls-25,.cls-26,.cls-27,.cls-28,.cls-29,.cls-3,.cls-30,.cls-31,.cls-5,.cls-6,.cls-7,.cls-8,.cls-9{fill:none;}.cls-2{fill:url(#未命名的渐变_94);}.cls-3{stroke-linecap:round;stroke-width:14px;stroke:url(#未命名的渐变_116);}.cls-10,.cls-11,.cls-12,.cls-13,.cls-14,.cls-15,.cls-16,.cls-17,.cls-18,.cls-19,.cls-20,.cls-21,.cls-22,.cls-23,.cls-24,.cls-25,.cls-26,.cls-27,.cls-28,.cls-29,.cls-3,.cls-30,.cls-31,.cls-5,.cls-6,.cls-7,.cls-8,.cls-9{stroke-miterlimit:10;}.cls-4{clip-path:url(#clip-path);}.cls-10,.cls-11,.cls-12,.cls-13,.cls-14,.cls-15,.cls-16,.cls-17,.cls-18,.cls-19,.cls-20,.cls-21,.cls-22,.cls-23,.cls-24,.cls-25,.cls-26,.cls-27,.cls-28,.cls-29,.cls-30,.cls-31,.cls-5,.cls-6,.cls-7,.cls-8,.cls-9{stroke-width:0.25px;}.cls-5{stroke:url(#未命名的渐变_94-2);}.cls-6{stroke:url(#未命名的渐变_94-3);}.cls-7{stroke:url(#未命名的渐变_94-4);}.cls-8{stroke:url(#未命名的渐变_94-5);}.cls-9{stroke:url(#未命名的渐变_94-6);}.cls-10{stroke:url(#未命名的渐变_94-7);}.cls-11{stroke:url(#未命名的渐变_94-8);}.cls-12{stroke:url(#未命名的渐变_94-9);}.cls-13{stroke:url(#未命名的渐变_94-10);}.cls-14{stroke:url(#未命名的渐变_94-11);}.cls-15{stroke:url(#未命名的渐变_94-12);}.cls-16{stroke:url(#未命名的渐变_94-13);}.cls-17{stroke:url(#未命名的渐变_94-14);}.cls-18{stroke:url(#未命名的渐变_94-15);}.cls-19{stroke:url(#未命名的渐变_94-16);}.cls-20{stroke:url(#未命名的渐变_94-17);}.cls-21{stroke:url(#未命名的渐变_94-18);}.cls-22{stroke:url(#未命名的渐变_94-19);}.cls-23{stroke:url(#未命名的渐变_94-20);}.cls-24{stroke:url(#未命名的渐变_94-21);}.cls-25{stroke:url(#未命名的渐变_94-22);}.cls-26{stroke:url(#未命名的渐变_94-23);}.cls-27{stroke:url(#未命名的渐变_94-24);}.cls-28{stroke:url(#未命名的渐变_94-25);}.cls-29{stroke:url(#未命名的渐变_94-26);}.cls-30{stroke:url(#未命名的渐变_94-27);}.cls-31{stroke:url(#未命名的渐变_94-28);}.cls-32{fill:#cacfd3;}.cls-33{fill:url(#未命名的渐变_5);}.cls-34{fill:url(#未命名的渐变_62);}.cls-35,.cls-52{fill:#252628;}.cls-36{fill:url(#未命名的渐变_5-2);}.cls-37{fill:url(#未命名的渐变_62-2);}.cls-38{fill:url(#未命名的渐变_5-3);}.cls-39,.cls-54{opacity:0.2;}.cls-39{fill:url(#未命名的渐变_291);}.cls-40{fill:url(#未命名的渐变_39);}.cls-41{clip-path:url(#clip-path-2);}.cls-42{fill:url(#未命名的渐变_109);}.cls-43{fill:url(#未命名的渐变_109-2);}.cls-44{fill:url(#未命名的渐变_109-3);}.cls-45{fill:url(#未命名的渐变_109-4);}.cls-46{fill:url(#未命名的渐变_109-5);}.cls-47{fill:url(#未命名的渐变_109-6);}.cls-48{fill:url(#未命名的渐变_109-7);}.cls-49{fill:url(#未命名的渐变_109-8);}.cls-50{fill:url(#未命名的渐变_109-9);}.cls-51{fill:url(#未命名的渐变_65);}.cls-52{opacity:0.5;}.cls-53{fill:#fff;opacity:0.4;}</style><linearGradient id="未命名的渐变_94" x1="102.79" y1="19.65" x2="119.77" y2="19.65" gradientUnits="userSpaceOnUse"><stop offset="0" stop-color="#c3c8cc"/><stop offset="1" stop-color="#fff"/></linearGradient><linearGradient id="未命名的渐变_116" x1="112.69" y1="51.93" x2="92.1" y2="40.04" gradientUnits="userSpaceOnUse"><stop offset="0" stop-color="#a9b1bb"/><stop offset="0.09" stop-color="#8b9299"/><stop offset="0.57" stop-color="#9299a1"/><stop offset="0.93" stop-color="#9ba1ab"/><stop offset="1" stop-color="#767b82"/></linearGradient><clipPath id="clip-path"><path class="cls-1" d="M86.07,73.68,84.82,59.31H84.7c.79-.1,19.37-2.84,19.37-38.49a7.21,7.21,0,1,1,14.42,0C118.49,70.3,87.4,73.57,86.07,73.68Z"/></clipPath><linearGradient id="未命名的渐变_94-2" x1="102.13" y1="19.59" x2="124.61" y2="19.59" xlink:href="#未命名的渐变_94"/><linearGradient id="未命名的渐变_94-3" x1="101.93" y1="21.56" x2="124.43" y2="21.56" xlink:href="#未命名的渐变_94"/><linearGradient id="未命名的渐变_94-4" x1="101.73" y1="23.53" x2="124.26" y2="23.53" xlink:href="#未命名的渐变_94"/><linearGradient id="未命名的渐变_94-5" x1="101.53" y1="25.49" x2="124.08" y2="25.49" xlink:href="#未命名的渐变_94"/><linearGradient id="未命名的渐变_94-6" x1="101.34" y1="27.44" x2="123.91" y2="27.44" xlink:href="#未命名的渐变_94"/><linearGradient id="未命名的渐变_94-7" x1="101.14" y1="29.69" x2="123.73" y2="29.69" xlink:href="#未命名的渐变_94"/><linearGradient id="未命名的渐变_94-8" x1="100.94" y1="32.02" x2="123.55" y2="32.02" xlink:href="#未命名的渐变_94"/><linearGradient id="未命名的渐变_94-9" x1="100.75" y1="34.35" x2="123.38" y2="34.35" xlink:href="#未命名的渐变_94"/><linearGradient id="未命名的渐变_94-10" x1="100.55" y1="36.67" x2="123.2" y2="36.67" xlink:href="#未命名的渐变_94"/><linearGradient id="未命名的渐变_94-11" x1="100.36" y1="38.98" x2="123.03" y2="38.98" xlink:href="#未命名的渐变_94"/><linearGradient id="未命名的渐变_94-12" x1="100.16" y1="41.28" x2="122.85" y2="41.28" xlink:href="#未命名的渐变_94"/><linearGradient id="未命名的渐变_94-13" x1="99.96" y1="43.56" x2="122.68" y2="43.56" xlink:href="#未命名的渐变_94"/><linearGradient id="未命名的渐变_94-14" x1="99.77" y1="45.83" x2="122.5" y2="45.83" xlink:href="#未命名的渐变_94"/><linearGradient id="未命名的渐变_94-15" x1="99.57" y1="48.08" x2="122.32" y2="48.08" xlink:href="#未命名的渐变_94"/><linearGradient id="未命名的渐变_94-16" x1="98.46" y1="50.22" x2="119.82" y2="50.22" xlink:href="#未命名的渐变_94"/><linearGradient id="未命名的渐变_94-17" x1="97.34" y1="52.26" x2="117.31" y2="52.26" xlink:href="#未命名的渐变_94"/><linearGradient id="未命名的渐变_94-18" x1="96.22" y1="54.21" x2="114.8" y2="54.21" xlink:href="#未命名的渐变_94"/><linearGradient id="未命名的渐变_94-19" x1="95.11" y1="56.06" x2="112.29" y2="56.06" xlink:href="#未命名的渐变_94"/><linearGradient id="未命名的渐变_94-20" x1="93.97" y1="57.89" x2="109.79" y2="57.89" xlink:href="#未命名的渐变_94"/><linearGradient id="未命名的渐变_94-21" x1="92.83" y1="59.71" x2="107.28" y2="59.71" xlink:href="#未命名的渐变_94"/><linearGradient id="未命名的渐变_94-22" x1="91.69" y1="61.54" x2="104.77" y2="61.54" xlink:href="#未命名的渐变_94"/><linearGradient id="未命名的渐变_94-23" x1="90.55" y1="63.37" x2="102.31" y2="63.37" xlink:href="#未命名的渐变_94"/><linearGradient id="未命名的渐变_94-24" x1="89.41" y1="65.21" x2="99.97" y2="65.21" xlink:href="#未命名的渐变_94"/><linearGradient id="未命名的渐变_94-25" x1="88.27" y1="67.04" x2="97.72" y2="67.04" xlink:href="#未命名的渐变_94"/><linearGradient id="未命名的渐变_94-26" x1="87.13" y1="68.88" x2="95.57" y2="68.88" xlink:href="#未命名的渐变_94"/><linearGradient id="未命名的渐变_94-27" x1="86" y1="70.71" x2="93.51" y2="70.71" xlink:href="#未命名的渐变_94"/><linearGradient id="未命名的渐变_94-28" x1="84.86" y1="72.55" x2="91.53" y2="72.55" xlink:href="#未命名的渐变_94"/><linearGradient id="未命名的渐变_5" x1="92.48" y1="22.14" x2="-4.78" y2="119.4" gradientUnits="userSpaceOnUse"><stop offset="0" stop-color="#d7dce0"/><stop offset="1" stop-color="#8a9099"/></linearGradient><linearGradient id="未命名的渐变_62" x1="-20.18" y1="37.54" x2="50.59" y2="108.31" gradientUnits="userSpaceOnUse"><stop offset="0" stop-color="#767b82"/><stop offset="0.07" stop-color="#9ba1ab"/><stop offset="0.25" stop-color="#e2eaf2"/><stop offset="0.32" stop-color="#d1d8e0"/><stop offset="0.55" stop-color="#a1a7ae"/><stop offset="0.74" stop-color="#7e8489"/><stop offset="0.9" stop-color="#696e73"/><stop offset="1" stop-color="#61666b"/></linearGradient><linearGradient id="未命名的渐变_5-2" x1="39.68" y1="42.05" x2="-29.91" y2="111.64" xlink:href="#未命名的渐变_5"/><linearGradient id="未命名的渐变_62-2" x1="50.44" y1="37.54" x2="121.21" y2="108.31" gradientTransform="matrix(-1, 0, 0, 1, 158.32, 0)" xlink:href="#未命名的渐变_62"/><linearGradient id="未命名的渐变_5-3" x1="110.3" y1="42.05" x2="40.72" y2="111.64" gradientTransform="matrix(-1, 0, 0, 1, 158.32, 0)" xlink:href="#未命名的渐变_5"/><linearGradient id="未命名的渐变_291" x1="30.61" y1="141.54" x2="30.61" y2="31.82" gradientUnits="userSpaceOnUse"><stop offset="0" stop-color="#2e3033"/><stop offset="1" stop-color="#878d93" stop-opacity="0"/></linearGradient><linearGradient id="未命名的渐变_39" x1="43.85" y1="45.58" x2="43.85" y2="17.1" gradientUnits="userSpaceOnUse"><stop offset="0" stop-color="#dce1e6"/><stop offset="1" stop-color="#5c6066"/></linearGradient><clipPath id="clip-path-2"><polygon class="cls-1" points="69.69 17.59 17.84 17.59 17.84 37.03 39.21 40.98 43.76 44.83 48.31 40.98 69.69 37.03 69.69 17.59"/></clipPath><linearGradient id="未命名的渐变_109" x1="21.25" y1="30.13" x2="22.89" y2="30.13" gradientUnits="userSpaceOnUse"><stop offset="0" stop-color="#b9c0cc"/><stop offset="1" stop-color="#47494d"/></linearGradient><linearGradient id="未命名的渐变_109-2" x1="26.7" y1="30.13" x2="28.35" y2="30.13" xlink:href="#未命名的渐变_109"/><linearGradient id="未命名的渐变_109-3" x1="32.16" y1="30.13" x2="33.81" y2="30.13" xlink:href="#未命名的渐变_109"/><linearGradient id="未命名的渐变_109-4" x1="37.62" y1="30.13" x2="39.27" y2="30.13" xlink:href="#未命名的渐变_109"/><linearGradient id="未命名的渐变_109-5" x1="43.08" y1="30.13" x2="44.72" y2="30.13" xlink:href="#未命名的渐变_109"/><linearGradient id="未命名的渐变_109-6" x1="48.54" y1="30.13" x2="50.18" y2="30.13" xlink:href="#未命名的渐变_109"/><linearGradient id="未命名的渐变_109-7" x1="53.99" y1="30.13" x2="55.64" y2="30.13" xlink:href="#未命名的渐变_109"/><linearGradient id="未命名的渐变_109-8" x1="59.45" y1="30.13" x2="61.1" y2="30.13" xlink:href="#未命名的渐变_109"/><linearGradient id="未命名的渐变_109-9" x1="64.91" y1="30.13" x2="66.56" y2="30.13" xlink:href="#未命名的渐变_109"/><linearGradient id="未命名的渐变_65" x1="58.41" y1="-17.76" x2="60.48" y2="-17.76" gradientTransform="translate(-15.68 45.25)" gradientUnits="userSpaceOnUse"><stop offset="0" stop-color="#b9c0cc"/><stop offset="1" stop-color="#47494d" stop-opacity="0"/></linearGradient></defs><title>Portable air conditioner(便携式空调)</title><g id="图层_2" data-name="图层 2"><g id="图层_6" data-name="图层 6"><g id="Portable_air_conditioner_便携式空调_" data-name="Portable air conditioner(便携式空调)"><circle class="cls-2" cx="111.28" cy="19.65" r="8.49"/><path class="cls-3" d="M85.45,66.5s25.83-2.25,25.83-45.67"/><g class="cls-4"><path class="cls-5" d="M102.24,23.74s7.59-15.9,22.29-3.48"/><path class="cls-6" d="M102,25.39s8.21-15.14,22.31-2.66"/><path class="cls-7" d="M101.84,27.05s8.82-14.39,22.33-1.85"/><path class="cls-8" d="M101.64,28.7s9.44-13.62,22.35-1"/><path class="cls-9" d="M101.44,30.35s10.06-12.86,22.38-.21"/><path class="cls-10" d="M101.23,32s10.69-12.11,22.41.6"/><path class="cls-11" d="M101,33.66s11.3-11.35,22.43,1.42"/><path class="cls-12" d="M100.83,35.31s11.92-10.59,22.45,2.24"/><path class="cls-13" d="M100.63,37S113.17,27.13,123.1,40"/><path class="cls-14" d="M100.43,38.62s13.15-9.08,22.5,3.87"/><path class="cls-15" d="M100.22,40.27S114,32,122.75,45"/><path class="cls-16" d="M100,41.92s14.4-7.56,22.55,5.51"/><path class="cls-17" d="M99.82,43.58s15-6.81,22.57,6.32"/><path class="cls-18" d="M99.62,45.23s15.63-6,22.59,7.14"/><path class="cls-19" d="M98.49,46.21s15.25-4.57,21.21,8.84"/><path class="cls-20" d="M97.36,47.19s14.86-3.1,19.83,10.53"/><path class="cls-21" d="M96.24,48.18s14.46-1.63,18.44,12.21"/><path class="cls-22" d="M95.11,49.16s14.08-.16,17.06,13.91"/><path class="cls-23" d="M94,50.14s13.69,1.31,15.68,15.6"/><path class="cls-24" d="M92.85,51.12s13.3,2.79,14.3,17.3"/><path class="cls-25" d="M91.73,52.11a19.93,19.93,0,0,1,12.91,19"/><path class="cls-26" d="M90.6,53.09a21.34,21.34,0,0,1,11.53,20.67"/><path class="cls-27" d="M89.47,54.07A23,23,0,0,1,99.62,76.44"/><path class="cls-28" d="M88.34,55.05s11.75,8.67,8.77,24.06"/><path class="cls-29" d="M87.22,56S98.57,66.17,94.6,81.79"/><path class="cls-30" d="M86.09,57s11,11.61,6,27.44"/><path class="cls-31" d="M85,58s10.58,13.08,4.62,29.13"/></g><path class="cls-32" d="M98.48,69l-7.85-12.1a23.33,23.33,0,0,0,6.94-7.22l12.2,7.7A37.57,37.57,0,0,1,98.48,69Z"/><polygon class="cls-33" points="70.33 0 70.33 141.54 49.85 141.54 43.85 136.9 37.86 141.54 17.36 141.54 17.36 0 70.33 0"/><polygon class="cls-34" points="17.36 141.54 8.74 141.54 8.74 11.12 17.36 0 17.36 141.54"/><path class="cls-35" d="M15.91,141.54v7.13a1,1,0,0,1-.73,1l-.2.06a6.85,6.85,0,0,1-3.86,0l-.2-.06a1,1,0,0,1-.73-1v-7.13Z"/><path class="cls-35" d="M77.51,141.54v7.13a1,1,0,0,1-.74,1l-.19.06a6.85,6.85,0,0,1-3.86,0l-.2-.06a1,1,0,0,1-.74-1v-7.13Z"/><polygon class="cls-36" points="8.74 141.54 0 141.54 0 13.18 8.74 11.12 8.74 141.54"/><polygon class="cls-37" points="70.33 141.54 78.96 141.54 78.96 11.12 70.33 0 70.33 141.54"/><polygon class="cls-38" points="78.96 141.54 87.7 141.54 87.7 13.18 78.96 11.12 78.96 141.54"/><polygon class="cls-39" points="43.85 31.82 43.85 136.9 37.86 141.54 17.36 141.54 17.36 31.82 43.85 31.82"/><polygon class="cls-35" points="70.33 17.1 17.36 17.1 17.36 37.43 39.2 41.55 43.85 45.58 48.5 41.55 70.33 37.43 70.33 17.1"/><path class="cls-40" d="M69.83,17.6V37l-21.43,4-.13,0-.1.09-4.32,3.74-4.32-3.74-.1-.09-.14,0L17.86,37V17.6h52m.5-.5h-53V37.43L39.2,41.55l4.65,4,4.65-4,21.83-4.12V17.1Z"/><g class="cls-41"><rect class="cls-42" x="21.25" y="10.95" width="1.65" height="38.37"/><rect class="cls-43" x="26.7" y="10.95" width="1.65" height="38.37"/><rect class="cls-44" x="32.16" y="10.95" width="1.65" height="38.37"/><rect class="cls-45" x="37.62" y="10.95" width="1.65" height="38.37"/><rect class="cls-46" x="43.08" y="10.95" width="1.65" height="38.37"/><rect class="cls-47" x="48.54" y="10.95" width="1.65" height="38.37"/><rect class="cls-48" x="53.99" y="10.95" width="1.65" height="38.37"/><rect class="cls-49" x="59.45" y="10.95" width="1.65" height="38.37"/><rect class="cls-50" x="64.91" y="10.95" width="1.65" height="38.37"/><rect class="cls-51" x="42.73" y="1.56" width="2.07" height="51.85" transform="translate(16.28 71.25) rotate(-90)"/></g><path class="cls-52" d="M70.33,0V4.11S60.39,7.2,43.77,7.2,17.36,4.11,17.36,4.11V0Z"/><path class="cls-53" d="M70.33,9.1V10s-9.94,3.09-26.56,3.09S17.36,10,17.36,10V9.1s9.78,3.09,26.41,3.09S70.33,9.1,70.33,9.1Z"/></g></g></g></svg>