<svg xmlns="http://www.w3.org/2000/svg" xmlns:xlink="http://www.w3.org/1999/xlink" viewBox="0 0 80.47 150.02"><defs><style>.cls-1{fill:url(#未命名的渐变_105);}.cls-2{fill:url(#未命名的渐变_67);}.cls-3{fill:url(#未命名的渐变_67-2);}.cls-4{fill:url(#未命名的渐变_105-2);}.cls-5{fill:url(#未命名的渐变_105-3);}.cls-6{fill:url(#未命名的渐变_67-3);}.cls-7{fill:url(#未命名的渐变_105-4);}.cls-8{fill:url(#未命名的渐变_67-4);}.cls-9{fill:url(#未命名的渐变_67-5);}.cls-10{fill:url(#未命名的渐变_67-6);}.cls-11{fill:url(#未命名的渐变_67-7);}.cls-12{opacity:0.2;}</style><linearGradient id="未命名的渐变_105" x1="8.12" y1="70.69" x2="70.21" y2="70.69" gradientUnits="userSpaceOnUse"><stop offset="0" stop-color="#e2e2e2"/><stop offset="0.03" stop-color="#d0d0d0"/><stop offset="0.06" stop-color="#bcbcbc"/><stop offset="0.09" stop-color="#b5b5b5"/><stop offset="0.49" stop-color="#f6f6f6"/><stop offset="0.63" stop-color="#f3f3f3"/><stop offset="0.73" stop-color="#eaeaea"/><stop offset="0.82" stop-color="#dbdbdb"/><stop offset="0.9" stop-color="#c6c6c6"/><stop offset="0.97" stop-color="#aaa"/><stop offset="1" stop-color="#9b9b9b"/></linearGradient><linearGradient id="未命名的渐变_67" x1="5.45" y1="140.27" x2="74.99" y2="140.27" gradientTransform="translate(180.49 100.05) rotate(90)" gradientUnits="userSpaceOnUse"><stop offset="0" stop-color="#6b6b6b"/><stop offset="0.11" stop-color="#767676"/><stop offset="0.3" stop-color="#959595"/><stop offset="0.41" stop-color="#aaa"/><stop offset="0.56" stop-color="#ccc"/><stop offset="0.71" stop-color="#eaeaea"/><stop offset="0.8" stop-color="#f6f6f6"/><stop offset="0.83" stop-color="#ededed"/><stop offset="0.87" stop-color="#d4d4d4"/><stop offset="0.92" stop-color="#ababab"/><stop offset="0.98" stop-color="#737373"/><stop offset="0.99" stop-color="#666"/></linearGradient><linearGradient id="未命名的渐变_67-2" x1="3.15" y1="146.44" x2="77.77" y2="146.44" gradientTransform="translate(186.9 105.98) rotate(90)" xlink:href="#未命名的渐变_67"/><linearGradient id="未命名的渐变_105-2" x1="5.52" y1="85.96" x2="74.92" y2="85.96" xlink:href="#未命名的渐变_105"/><linearGradient id="未命名的渐变_105-3" x1="4.4" y1="19.73" x2="73.94" y2="19.73" gradientTransform="translate(58.9 -19.43) rotate(90)" xlink:href="#未命名的渐变_105"/><linearGradient id="未命名的渐变_67-3" x1="0" y1="23.83" x2="80.47" y2="23.83" gradientTransform="matrix(1, 0, 0, 1, 0, 0)" xlink:href="#未命名的渐变_67"/><linearGradient id="未命名的渐变_105-4" x1="1.51" y1="28.29" x2="79.09" y2="28.29" xlink:href="#未命名的渐变_105"/><linearGradient id="未命名的渐变_67-4" x1="15.11" y1="56.88" x2="17.53" y2="56.88" gradientTransform="matrix(1, 0, 0, 1, 0, 0)" xlink:href="#未命名的渐变_67"/><linearGradient id="未命名的渐变_67-5" x1="21.84" y1="56.88" x2="24.27" y2="56.88" gradientTransform="matrix(1, 0, 0, 1, 0, 0)" xlink:href="#未命名的渐变_67"/><linearGradient id="未命名的渐变_67-6" x1="54.95" y1="56.88" x2="57.38" y2="56.88" gradientTransform="matrix(1, 0, 0, 1, 0, 0)" xlink:href="#未命名的渐变_67"/><linearGradient id="未命名的渐变_67-7" x1="61.69" y1="56.88" x2="64.12" y2="56.88" gradientTransform="matrix(1, 0, 0, 1, 0, 0)" xlink:href="#未命名的渐变_67"/></defs><title>Precision Filter（精密过滤器）</title><g id="图层_2" data-name="图层 2"><g id="图层_125" data-name="图层 125"><g id="Precision_Filter_精密过滤器_" data-name="Precision Filter（精密过滤器）"><path class="cls-1" d="M70.21,131.39s-5.52,10-31,10c-26.25,0-31.05-10-31.05-10V12.27S10.29,0,39.17,0s31,12.27,31,12.27Z"/><rect class="cls-2" x="36.89" y="105.5" width="6.65" height="69.54" transform="translate(-100.05 180.49) rotate(-90)"/><rect class="cls-3" x="36.88" y="109.13" width="7.16" height="74.62" transform="translate(-105.98 186.9) rotate(-90)"/><rect class="cls-4" x="5.52" y="31.65" width="69.41" height="108.63"/><rect class="cls-5" x="35.84" y="-15.04" width="6.65" height="69.54" transform="translate(19.43 58.9) rotate(-90)"/><polygon class="cls-6" points="80.47 22.73 79.08 24.94 1.48 24.94 0 22.73 80.47 22.73"/><polygon class="cls-7" points="79.08 24.97 74.99 31.62 5.45 31.62 1.51 24.97 79.08 24.97"/><rect class="cls-8" x="15.11" y="24.97" width="2.43" height="63.83"/><rect class="cls-9" x="21.84" y="24.97" width="2.43" height="63.83"/><rect class="cls-10" x="54.95" y="24.97" width="2.43" height="63.83"/><rect class="cls-11" x="61.69" y="24.97" width="2.43" height="63.83"/></g></g></g></svg>