<svg xmlns="http://www.w3.org/2000/svg" xmlns:xlink="http://www.w3.org/1999/xlink" viewBox="0 0 61.44 150"><defs><style>.cls-1{fill:url(#未命名的渐变_67);}.cls-2{fill:url(#未命名的渐变_67-2);}.cls-3{fill:url(#未命名的渐变_67-3);}.cls-4{fill:url(#未命名的渐变_67-4);}.cls-5{fill:url(#未命名的渐变_67-5);}.cls-6{fill:url(#未命名的渐变_67-6);}.cls-7{fill:url(#未命名的渐变_67-7);}.cls-8{fill:url(#未命名的渐变_67-8);}.cls-9{fill:url(#未命名的渐变_67-9);}.cls-10{fill:url(#未命名的渐变_67-10);}.cls-11{fill:url(#未命名的渐变_67-11);}.cls-12{fill:url(#未命名的渐变_67-12);}.cls-13{fill:url(#未命名的渐变_67-13);}.cls-14{fill:url(#未命名的渐变_105);}.cls-15{fill:url(#未命名的渐变_67-14);}.cls-16{fill:url(#未命名的渐变_67-15);}.cls-17{fill:url(#未命名的渐变_67-16);}.cls-18{fill:url(#未命名的渐变_67-17);}.cls-19{fill:url(#未命名的渐变_67-18);}.cls-20{opacity:0.2;}</style><linearGradient id="未命名的渐变_67" x1="19.4" y1="21.92" x2="42.09" y2="21.92" gradientUnits="userSpaceOnUse"><stop offset="0" stop-color="#6b6b6b"/><stop offset="0.11" stop-color="#767676"/><stop offset="0.3" stop-color="#959595"/><stop offset="0.41" stop-color="#aaa"/><stop offset="0.56" stop-color="#ccc"/><stop offset="0.71" stop-color="#eaeaea"/><stop offset="0.8" stop-color="#f6f6f6"/><stop offset="0.83" stop-color="#ededed"/><stop offset="0.87" stop-color="#d4d4d4"/><stop offset="0.92" stop-color="#ababab"/><stop offset="0.98" stop-color="#737373"/><stop offset="0.99" stop-color="#666"/></linearGradient><linearGradient id="未命名的渐变_67-2" x1="19.21" y1="5.26" x2="24.54" y2="5.26" xlink:href="#未命名的渐变_67"/><linearGradient id="未命名的渐变_67-3" x1="15.78" y1="19.04" x2="20.06" y2="19.04" xlink:href="#未命名的渐变_67"/><linearGradient id="未命名的渐变_67-4" x1="22.06" y1="19.04" x2="26.34" y2="19.04" xlink:href="#未命名的渐变_67"/><linearGradient id="未命名的渐变_67-5" x1="28.48" y1="19.04" x2="32.76" y2="19.04" xlink:href="#未命名的渐变_67"/><linearGradient id="未命名的渐变_67-6" x1="34.91" y1="19.04" x2="39.19" y2="19.04" xlink:href="#未命名的渐变_67"/><linearGradient id="未命名的渐变_67-7" x1="41.34" y1="19.04" x2="45.62" y2="19.04" xlink:href="#未命名的渐变_67"/><linearGradient id="未命名的渐变_67-8" x1="20.06" y1="10.27" x2="23.74" y2="10.27" xlink:href="#未命名的渐变_67"/><linearGradient id="未命名的渐变_67-9" x1="27.96" y1="1.17" x2="33.29" y2="1.17" xlink:href="#未命名的渐变_67"/><linearGradient id="未命名的渐变_67-10" x1="28.81" y1="8.23" x2="32.49" y2="8.23" xlink:href="#未命名的渐变_67"/><linearGradient id="未命名的渐变_67-11" x1="36.76" y1="5.26" x2="42.09" y2="5.26" xlink:href="#未命名的渐变_67"/><linearGradient id="未命名的渐变_67-12" x1="37.61" y1="10.27" x2="41.29" y2="10.27" xlink:href="#未命名的渐变_67"/><linearGradient id="未命名的渐变_67-13" x1="14.28" y1="15.75" x2="46.89" y2="15.75" xlink:href="#未命名的渐变_67"/><linearGradient id="未命名的渐变_105" x1="303.53" y1="-203.73" x2="303.53" y2="-257.72" gradientTransform="translate(261.42 380.12) rotate(-90)" gradientUnits="userSpaceOnUse"><stop offset="0" stop-color="#e2e2e2"/><stop offset="0.03" stop-color="#d0d0d0"/><stop offset="0.06" stop-color="#bcbcbc"/><stop offset="0.09" stop-color="#b5b5b5"/><stop offset="0.49" stop-color="#f6f6f6"/><stop offset="0.63" stop-color="#f3f3f3"/><stop offset="0.73" stop-color="#eaeaea"/><stop offset="0.82" stop-color="#dbdbdb"/><stop offset="0.9" stop-color="#c6c6c6"/><stop offset="0.97" stop-color="#aaa"/><stop offset="1" stop-color="#9b9b9b"/></linearGradient><linearGradient id="未命名的渐变_67-14" x1="3.52" y1="544.78" x2="57.33" y2="544.78" gradientTransform="matrix(1, 0, 0, -0.72, 0, 428.72)" xlink:href="#未命名的渐变_67"/><linearGradient id="未命名的渐变_67-15" x1="3.76" y1="436.81" x2="57.57" y2="436.81" gradientTransform="matrix(1, 0, 0, -0.72, 0, 428.72)" xlink:href="#未命名的渐变_67"/><linearGradient id="未命名的渐变_67-16" x1="3.76" y1="171.71" x2="57.57" y2="171.71" gradientTransform="translate(0 -503.8) scale(1 3.72)" xlink:href="#未命名的渐变_67"/><linearGradient id="未命名的渐变_67-17" x1="55.9" y1="185.9" x2="55.9" y2="184.7" gradientTransform="matrix(1, 0, 0, -3.25, -53.97, 699.17)" xlink:href="#未命名的渐变_67"/><linearGradient id="未命名的渐变_67-18" x1="55.9" y1="168.17" x2="55.9" y2="166.97" gradientTransform="matrix(1, 0, 0, -3.25, 3.6, 641.6)" xlink:href="#未命名的渐变_67"/></defs><title>Pressure vessel（压力容器）</title><g id="图层_2" data-name="图层 2"><g id="图层_104" data-name="图层 104"><g id="Pressure_vessel_压力容器_" data-name="Pressure vessel（压力容器）"><rect class="cls-1" x="19.4" y="17.53" width="22.69" height="8.78"/><rect class="cls-2" x="19.21" y="4.09" width="5.33" height="2.34"/><rect class="cls-3" x="15.78" y="17.53" width="4.28" height="3.03"/><rect class="cls-4" x="22.06" y="17.53" width="4.28" height="3.03"/><rect class="cls-5" x="28.48" y="17.53" width="4.28" height="3.03"/><rect class="cls-6" x="34.91" y="17.53" width="4.28" height="3.03"/><rect class="cls-7" x="41.34" y="17.53" width="4.28" height="3.03"/><rect class="cls-8" x="20.06" y="6.43" width="3.68" height="7.7"/><rect class="cls-9" x="27.96" width="5.33" height="2.34"/><rect class="cls-10" x="28.81" y="2.34" width="3.68" height="11.78"/><rect class="cls-11" x="36.76" y="4.09" width="5.33" height="2.34"/><rect class="cls-12" x="37.61" y="6.43" width="3.68" height="7.7"/><rect class="cls-13" x="14.28" y="13.97" width="32.61" height="3.56" rx="0.52"/><path class="cls-14" d="M3.7,35.48V112.8s-.54,14.86,26.46,15.12c26.29.26,27.54-15.12,27.54-15.12V35.48s-1.16-10.23-27-10.23C3.7,25.25,3.7,35.48,3.7,35.48Z"/><rect class="cls-15" x="3.52" y="36.15" width="53.81" height="0.66"/><rect class="cls-16" x="3.76" y="113.89" width="53.81" height="0.66"/><rect class="cls-17" x="3.76" y="132.98" width="53.81" height="3.94"/><rect class="cls-18" x="-50.53" y="95.59" width="104.94" height="3.87" rx="0.56" transform="translate(-95.59 99.47) rotate(-90)"/><rect class="cls-19" x="7.03" y="95.59" width="104.94" height="3.87" rx="0.56" transform="translate(-38.03 157.03) rotate(-90)"/></g></g></g></svg>