<svg xmlns="http://www.w3.org/2000/svg" xmlns:xlink="http://www.w3.org/1999/xlink" viewBox="0 0 78.37 150"><defs><style>.cls-1{fill:url(#未命名的渐变_122);}.cls-2{fill:#494d53;}.cls-3{fill:#dde4ec;}.cls-4{fill:url(#未命名的渐变_10);}.cls-5{fill:url(#未命名的渐变_10-2);}.cls-6{fill:#2f3134;}.cls-7{fill:url(#未命名的渐变_109);}.cls-8{fill:url(#未命名的渐变_109-2);}.cls-9{fill:url(#未命名的渐变_109-3);}.cls-10{fill:url(#未命名的渐变_109-4);}.cls-11{fill:url(#未命名的渐变_109-5);}.cls-12{fill:url(#未命名的渐变_109-6);}.cls-13{fill:url(#未命名的渐变_109-7);}.cls-14{fill:url(#未命名的渐变_109-8);}.cls-15{fill:url(#未命名的渐变_109-9);}.cls-16{fill:url(#未命名的渐变_109-10);}.cls-17{fill:url(#未命名的渐变_109-11);}.cls-18{fill:url(#未命名的渐变_109-12);}.cls-19{fill:#2f3133;}.cls-20{fill:url(#未命名的渐变_499);}.cls-21{fill:#46494d;}.cls-22{fill:url(#未命名的渐变_499-2);}.cls-23{fill:url(#未命名的渐变_499-3);}.cls-24{fill:url(#未命名的渐变_499-4);}.cls-25{fill:#252628;}.cls-26{fill:url(#未命名的渐变_35);}.cls-27{fill:url(#未命名的渐变_234);}.cls-28{fill:#47484d;}.cls-29{fill:url(#未命名的渐变_43);}.cls-30,.cls-31{fill:none;stroke-miterlimit:10;}.cls-30{stroke:#b33000;}.cls-31{stroke:#51b31b;}.cls-32{fill:#a63c27;}.cls-33{opacity:0.2;}</style><linearGradient id="未命名的渐变_122" x1="96.28" y1="17.91" x2="-17.91" y2="132.09" gradientUnits="userSpaceOnUse"><stop offset="0" stop-color="#d7dce0"/><stop offset="1" stop-color="#8a9099"/></linearGradient><linearGradient id="未命名的渐变_10" x1="75.54" y1="-3271.24" x2="2.84" y2="-3343.94" gradientTransform="matrix(1, 0, 0, -1, 0, -3260.71)" gradientUnits="userSpaceOnUse"><stop offset="0" stop-color="#dce1e6"/><stop offset="1" stop-color="#8a9099"/></linearGradient><linearGradient id="未命名的渐变_10-2" x1="69.29" y1="-3347.86" x2="9.09" y2="-3408.06" xlink:href="#未命名的渐变_10"/><linearGradient id="未命名的渐变_109" x1="38.94" y1="97.82" x2="38.94" y2="95.71" gradientUnits="userSpaceOnUse"><stop offset="0" stop-color="#b9c0cc"/><stop offset="1" stop-color="#47494d"/></linearGradient><linearGradient id="未命名的渐变_109-2" x1="38.94" y1="101.49" x2="38.94" y2="99.37" xlink:href="#未命名的渐变_109"/><linearGradient id="未命名的渐变_109-3" x1="38.94" y1="105.15" x2="38.94" y2="103.04" xlink:href="#未命名的渐变_109"/><linearGradient id="未命名的渐变_109-4" x1="38.94" y1="108.82" x2="38.94" y2="106.7" xlink:href="#未命名的渐变_109"/><linearGradient id="未命名的渐变_109-5" x1="38.94" y1="112.48" x2="38.94" y2="110.36" xlink:href="#未命名的渐变_109"/><linearGradient id="未命名的渐变_109-6" x1="38.94" y1="116.15" x2="38.94" y2="114.03" xlink:href="#未命名的渐变_109"/><linearGradient id="未命名的渐变_109-7" x1="38.94" y1="119.81" x2="38.94" y2="117.69" xlink:href="#未命名的渐变_109"/><linearGradient id="未命名的渐变_109-8" x1="38.94" y1="123.48" x2="38.94" y2="121.36" xlink:href="#未命名的渐变_109"/><linearGradient id="未命名的渐变_109-9" x1="38.94" y1="127.14" x2="38.94" y2="125.02" xlink:href="#未命名的渐变_109"/><linearGradient id="未命名的渐变_109-10" x1="38.94" y1="130.8" x2="38.94" y2="128.69" xlink:href="#未命名的渐变_109"/><linearGradient id="未命名的渐变_109-11" x1="38.94" y1="134.31" x2="38.94" y2="132.2" xlink:href="#未命名的渐变_109"/><linearGradient id="未命名的渐变_109-12" x1="38.94" y1="137.82" x2="38.94" y2="135.7" xlink:href="#未命名的渐变_109"/><linearGradient id="未命名的渐变_499" x1="56.15" y1="53.02" x2="58.86" y2="53.02" gradientUnits="userSpaceOnUse"><stop offset="0" stop-color="#45484d"/><stop offset="0.11" stop-color="#494c51"/><stop offset="0.21" stop-color="#53575d"/><stop offset="0.31" stop-color="#666970"/><stop offset="0.41" stop-color="#7f838c"/><stop offset="0.45" stop-color="#8b9099"/><stop offset="0.7" stop-color="#abafb3"/><stop offset="1" stop-color="#45484d"/></linearGradient><linearGradient id="未命名的渐变_499-2" x1="56.15" y1="58.02" x2="58.86" y2="58.02" xlink:href="#未命名的渐变_499"/><linearGradient id="未命名的渐变_499-3" x1="56.15" y1="63.02" x2="58.86" y2="63.02" xlink:href="#未命名的渐变_499"/><linearGradient id="未命名的渐变_499-4" x1="56.15" y1="68.02" x2="58.86" y2="68.02" xlink:href="#未命名的渐变_499"/><linearGradient id="未命名的渐变_35" x1="38.27" y1="34.59" x2="38.27" y2="17.43" gradientUnits="userSpaceOnUse"><stop offset="0" stop-color="#2e3033"/><stop offset="1" stop-color="#929699"/></linearGradient><linearGradient id="未命名的渐变_234" x1="43.21" y1="21.06" x2="33.32" y2="30.95" gradientUnits="userSpaceOnUse"><stop offset="0" stop-color="#ebf0f5"/><stop offset="1" stop-color="#b8c0cc"/></linearGradient><linearGradient id="未命名的渐变_43" x1="38.27" y1="32.99" x2="38.27" y2="19.01" gradientUnits="userSpaceOnUse"><stop offset="0" stop-color="#dce1e6"/><stop offset="1" stop-color="#2e3033"/></linearGradient></defs><title>Pressurization unit(增压装置)</title><g id="图层_2" data-name="图层 2"><g id="图层_6" data-name="图层 6"><g id="Pressurization_unit_增压装置_" data-name="Pressurization unit(增压装置)"><rect class="cls-1" width="78.37" height="150"/><rect class="cls-2" x="5.2" y="6.51" width="67.97" height="80.72"/><rect class="cls-3" x="6.02" y="6.51" width="67.15" height="79.9"/><rect class="cls-4" x="6.02" y="7.34" width="66.33" height="79.08"/><rect class="cls-2" x="5.2" y="89.38" width="67.97" height="55.72"/><rect class="cls-3" x="6.02" y="89.38" width="67.15" height="54.9"/><rect class="cls-5" x="6.02" y="90.21" width="66.33" height="54.08"/><rect class="cls-6" x="9.38" y="93.02" width="59.61" height="47.74"/><rect class="cls-7" x="11.99" y="95.71" width="53.89" height="2.12"/><rect class="cls-8" x="11.99" y="99.37" width="53.89" height="2.12"/><rect class="cls-9" x="11.99" y="103.04" width="53.89" height="2.12"/><rect class="cls-10" x="11.99" y="106.7" width="53.89" height="2.12"/><rect class="cls-11" x="11.99" y="110.36" width="53.89" height="2.12"/><rect class="cls-12" x="11.99" y="114.03" width="53.89" height="2.12"/><rect class="cls-13" x="11.99" y="117.69" width="53.89" height="2.12"/><rect class="cls-14" x="11.99" y="121.36" width="53.89" height="2.12"/><rect class="cls-15" x="11.99" y="125.02" width="53.89" height="2.12"/><rect class="cls-16" x="11.99" y="128.69" width="53.89" height="2.12"/><rect class="cls-17" x="11.99" y="132.2" width="53.89" height="2.12"/><rect class="cls-18" x="11.99" y="135.7" width="53.89" height="2.12"/><rect class="cls-6" x="38.27" y="95.71" width="2.55" height="42.12"/><circle class="cls-19" cx="57.5" cy="53.02" r="1.36"/><path class="cls-20" d="M57.5,51.92A1.11,1.11,0,1,1,56.4,53a1.11,1.11,0,0,1,1.1-1.1m0-.25a1.36,1.36,0,0,0,0,2.71,1.36,1.36,0,1,0,0-2.71Z"/><rect class="cls-21" x="57.13" y="51.67" width="0.74" height="2.71"/><circle class="cls-19" cx="57.5" cy="58.02" r="1.36"/><path class="cls-22" d="M57.5,56.92A1.11,1.11,0,1,1,56.4,58a1.11,1.11,0,0,1,1.1-1.1m0-.25a1.36,1.36,0,0,0,0,2.71,1.36,1.36,0,1,0,0-2.71Z"/><rect class="cls-21" x="57.13" y="56.67" width="0.74" height="2.71"/><circle class="cls-19" cx="57.5" cy="63.02" r="1.36"/><path class="cls-23" d="M57.5,61.92A1.11,1.11,0,1,1,56.4,63a1.11,1.11,0,0,1,1.1-1.1m0-.25a1.36,1.36,0,0,0,0,2.71,1.36,1.36,0,1,0,0-2.71Z"/><rect class="cls-21" x="57.13" y="61.67" width="0.74" height="2.71"/><circle class="cls-19" cx="57.5" cy="68.02" r="1.36"/><path class="cls-24" d="M57.5,66.92A1.11,1.11,0,1,1,56.4,68a1.11,1.11,0,0,1,1.1-1.1m0-.25a1.36,1.36,0,0,0,0,2.71,1.36,1.36,0,1,0,0-2.71Z"/><rect class="cls-21" x="57.13" y="66.67" width="0.74" height="2.71"/><circle class="cls-25" cx="38.27" cy="26.01" r="8.58"/><path class="cls-26" d="M38.27,19.43A6.58,6.58,0,1,1,31.69,26a6.59,6.59,0,0,1,6.58-6.58m0-2A8.58,8.58,0,1,0,46.85,26a8.58,8.58,0,0,0-8.58-8.58Z"/><path class="cls-27" d="M45.26,26a7,7,0,1,1-7-7A7,7,0,0,1,45.26,26Z"/><path class="cls-28" d="M44.52,29.13a7,7,0,0,1-12.5,0Z"/><path class="cls-29" d="M38.27,19.26A6.75,6.75,0,1,1,31.53,26a6.76,6.76,0,0,1,6.74-6.74m0-.25a7,7,0,1,0,7,7,7,7,0,0,0-7-7Z"/><path class="cls-30" d="M34,25.92a4.94,4.94,0,0,1,8.56,0"/><path class="cls-31" d="M34,25.92a5,5,0,0,1,1.49-1.61"/><polygon class="cls-32" points="38.38 21 38.21 28.63 38.55 28.63 38.38 21"/></g></g></g></svg>