<svg xmlns="http://www.w3.org/2000/svg" xmlns:xlink="http://www.w3.org/1999/xlink" viewBox="0 0 150 72.56"><defs><style>.cls-1{isolation:isolate;}.cls-2,.cls-22,.cls-23,.cls-24,.cls-25,.cls-26,.cls-27,.cls-28,.cls-29,.cls-30,.cls-31,.cls-32,.cls-33,.cls-34,.cls-35,.cls-36,.cls-37,.cls-38,.cls-39,.cls-40,.cls-41,.cls-42,.cls-43,.cls-44,.cls-45,.cls-46,.cls-47,.cls-48,.cls-49,.cls-50,.cls-51,.cls-52,.cls-53,.cls-54,.cls-55,.cls-56,.cls-57,.cls-58,.cls-59,.cls-60,.cls-61,.cls-62,.cls-63,.cls-64,.cls-65{fill:#252628;}.cls-3{fill:url(#未命名的渐变_39);}.cls-4{fill:url(#未命名的渐变_205);}.cls-5{fill:url(#未命名的渐变_205-2);}.cls-6{fill:url(#未命名的渐变_205-3);}.cls-7{fill:url(#未命名的渐变_205-4);}.cls-8{fill:url(#未命名的渐变_205-5);}.cls-9{fill:url(#未命名的渐变_205-6);}.cls-10{fill:url(#未命名的渐变_386);}.cls-11,.cls-14,.cls-17,.cls-20,.cls-67,.cls-68,.cls-70,.cls-71,.cls-73,.cls-74,.cls-76,.cls-77,.cls-79,.cls-80,.cls-82,.cls-83,.cls-85,.cls-86,.cls-88,.cls-89,.cls-91,.cls-92,.cls-94,.cls-95,.cls-97,.cls-98{opacity:0.3;}.cls-11{fill:url(#未命名的渐变_74);}.cls-12{fill:url(#未命名的渐变_386-2);}.cls-13{fill:url(#未命名的渐变_386-3);}.cls-14{fill:url(#未命名的渐变_74-2);}.cls-15{fill:url(#未命名的渐变_386-4);}.cls-16{fill:url(#未命名的渐变_386-5);}.cls-17{fill:url(#未命名的渐变_74-3);}.cls-18{fill:url(#未命名的渐变_386-6);}.cls-19{fill:url(#未命名的渐变_386-7);}.cls-20{fill:url(#未命名的渐变_74-4);}.cls-21{fill:url(#未命名的渐变_386-8);}.cls-22,.cls-23,.cls-24,.cls-25,.cls-26,.cls-27,.cls-28,.cls-29,.cls-30,.cls-31,.cls-32,.cls-33,.cls-34,.cls-35,.cls-36,.cls-37,.cls-38,.cls-39,.cls-40,.cls-41,.cls-42,.cls-43,.cls-44,.cls-45,.cls-46,.cls-47,.cls-48,.cls-49,.cls-50,.cls-51,.cls-52,.cls-53,.cls-54,.cls-55,.cls-56,.cls-57,.cls-58,.cls-59,.cls-60,.cls-61,.cls-62,.cls-63,.cls-64,.cls-65{stroke-miterlimit:10;stroke-width:0.1px;}.cls-22{stroke:url(#未命名的渐变_39-2);}.cls-23{stroke:url(#未命名的渐变_39-3);}.cls-24{stroke:url(#未命名的渐变_39-4);}.cls-25{stroke:url(#未命名的渐变_39-5);}.cls-26{stroke:url(#未命名的渐变_39-6);}.cls-27{stroke:url(#未命名的渐变_39-7);}.cls-28{stroke:url(#未命名的渐变_39-8);}.cls-29{stroke:url(#未命名的渐变_39-9);}.cls-30{stroke:url(#未命名的渐变_39-10);}.cls-31{stroke:url(#未命名的渐变_39-11);}.cls-32{stroke:url(#未命名的渐变_39-12);}.cls-33{stroke:url(#未命名的渐变_39-13);}.cls-34{stroke:url(#未命名的渐变_39-14);}.cls-35{stroke:url(#未命名的渐变_39-15);}.cls-36{stroke:url(#未命名的渐变_39-16);}.cls-37{stroke:url(#未命名的渐变_39-17);}.cls-38{stroke:url(#未命名的渐变_39-18);}.cls-39{stroke:url(#未命名的渐变_39-19);}.cls-40{stroke:url(#未命名的渐变_39-20);}.cls-41{stroke:url(#未命名的渐变_39-21);}.cls-42{stroke:url(#未命名的渐变_39-22);}.cls-43{stroke:url(#未命名的渐变_39-23);}.cls-44{stroke:url(#未命名的渐变_39-24);}.cls-45{stroke:url(#未命名的渐变_39-25);}.cls-46{stroke:url(#未命名的渐变_39-26);}.cls-47{stroke:url(#未命名的渐变_39-27);}.cls-48{stroke:url(#未命名的渐变_39-28);}.cls-49{stroke:url(#未命名的渐变_39-29);}.cls-50{stroke:url(#未命名的渐变_39-30);}.cls-51{stroke:url(#未命名的渐变_39-31);}.cls-52{stroke:url(#未命名的渐变_39-32);}.cls-53{stroke:url(#未命名的渐变_39-33);}.cls-54{stroke:url(#未命名的渐变_39-34);}.cls-55{stroke:url(#未命名的渐变_39-35);}.cls-56{stroke:url(#未命名的渐变_39-36);}.cls-57{stroke:url(#未命名的渐变_39-37);}.cls-58{stroke:url(#未命名的渐变_39-38);}.cls-59{stroke:url(#未命名的渐变_39-39);}.cls-60{stroke:url(#未命名的渐变_39-40);}.cls-61{stroke:url(#未命名的渐变_39-41);}.cls-62{stroke:url(#未命名的渐变_39-42);}.cls-63{stroke:url(#未命名的渐变_39-43);}.cls-64{stroke:url(#未命名的渐变_39-44);}.cls-65{stroke:url(#未命名的渐变_39-45);}.cls-66{fill:url(#未命名的渐变_70);}.cls-67,.cls-68,.cls-70,.cls-71,.cls-73,.cls-74,.cls-76,.cls-77,.cls-79,.cls-80,.cls-82,.cls-83,.cls-85,.cls-86,.cls-88,.cls-89,.cls-91,.cls-92,.cls-94,.cls-95,.cls-97,.cls-98{mix-blend-mode:overlay;}.cls-67{fill:url(#未命名的渐变_146);}.cls-68{fill:url(#未命名的渐变_146-2);}.cls-69{fill:url(#未命名的渐变_70-2);}.cls-70{fill:url(#未命名的渐变_146-3);}.cls-71{fill:url(#未命名的渐变_146-4);}.cls-72{fill:url(#未命名的渐变_70-3);}.cls-73{fill:url(#未命名的渐变_146-5);}.cls-74{fill:url(#未命名的渐变_146-6);}.cls-75{fill:url(#未命名的渐变_70-4);}.cls-76{fill:url(#未命名的渐变_146-7);}.cls-77{fill:url(#未命名的渐变_146-8);}.cls-78{fill:url(#未命名的渐变_70-5);}.cls-79{fill:url(#未命名的渐变_146-9);}.cls-80{fill:url(#未命名的渐变_146-10);}.cls-81{fill:url(#未命名的渐变_70-6);}.cls-82{fill:url(#未命名的渐变_146-11);}.cls-83{fill:url(#未命名的渐变_146-12);}.cls-84{fill:url(#未命名的渐变_70-7);}.cls-85{fill:url(#未命名的渐变_146-13);}.cls-86{fill:url(#未命名的渐变_146-14);}.cls-87{fill:url(#未命名的渐变_70-8);}.cls-88{fill:url(#未命名的渐变_146-15);}.cls-89{fill:url(#未命名的渐变_146-16);}.cls-90{fill:url(#未命名的渐变_70-9);}.cls-91{fill:url(#未命名的渐变_146-17);}.cls-92{fill:url(#未命名的渐变_146-18);}.cls-93{fill:url(#未命名的渐变_70-10);}.cls-94{fill:url(#未命名的渐变_146-19);}.cls-95{fill:url(#未命名的渐变_146-20);}.cls-96{fill:url(#未命名的渐变_70-11);}.cls-97{fill:url(#未命名的渐变_146-21);}.cls-98{fill:url(#未命名的渐变_146-22);}.cls-99{opacity:0.2;}</style><linearGradient id="未命名的渐变_39" x1="75" y1="66.41" x2="75" y2="6.14" gradientUnits="userSpaceOnUse"><stop offset="0" stop-color="#dce1e6"/><stop offset="1" stop-color="#5c6066"/></linearGradient><linearGradient id="未命名的渐变_205" x1="8.97" y1="36.28" x2="15.11" y2="36.28" gradientUnits="userSpaceOnUse"><stop offset="0" stop-color="#767b82"/><stop offset="0.02" stop-color="#9ba1ab"/><stop offset="0.98" stop-color="#9ba1ab"/><stop offset="0.99" stop-color="#d7dce0"/><stop offset="1" stop-color="#767b82"/></linearGradient><linearGradient id="未命名的渐变_205-2" x1="134.89" y1="36.28" x2="141.03" y2="36.28" xlink:href="#未命名的渐变_205"/><linearGradient id="未命名的渐变_205-3" x1="15.11" y1="36.28" x2="32.81" y2="36.28" xlink:href="#未命名的渐变_205"/><linearGradient id="未命名的渐变_205-4" x1="117.19" y1="36.28" x2="134.89" y2="36.28" xlink:href="#未命名的渐变_205"/><linearGradient id="未命名的渐变_205-5" x1="50.97" y1="24.03" x2="57.11" y2="24.03" gradientTransform="translate(20.96 45.45)" xlink:href="#未命名的渐变_205"/><linearGradient id="未命名的渐变_205-6" x1="117.38" y1="24.03" x2="123.52" y2="24.03" gradientTransform="translate(-45.45 -20.96)" xlink:href="#未命名的渐变_205"/><linearGradient id="未命名的渐变_386" x1="1034.77" y1="-895.04" x2="1034.77" y2="-901.8" gradientTransform="matrix(0.5, 0, 0, 1, -510.65, 907.91)" gradientUnits="userSpaceOnUse"><stop offset="0" stop-color="#676b70"/><stop offset="0.02" stop-color="#484b4d"/><stop offset="0.19" stop-color="#747980"/><stop offset="0.2" stop-color="#d1d5db"/><stop offset="0.79" stop-color="#c7cfdb"/><stop offset="0.8" stop-color="#edf5ff"/><stop offset="0.81" stop-color="#c3c7cc"/><stop offset="1" stop-color="#929599"/></linearGradient><linearGradient id="未命名的渐变_74" x1="1030.17" y1="-898.29" x2="1039.14" y2="-898.29" gradientTransform="matrix(0.5, 0, 0, 1, -510.65, 907.91)" gradientUnits="userSpaceOnUse"><stop offset="0" stop-color="#2e3033"/><stop offset="1" stop-color="#9ba1ab" stop-opacity="0"/></linearGradient><linearGradient id="未命名的渐变_386-2" x1="1025.81" y1="-893.76" x2="1025.81" y2="-900.52" gradientTransform="matrix(0.5, 0, 0, 1.7, -510.64, 1538.28)" xlink:href="#未命名的渐变_386"/><linearGradient id="未命名的渐变_386-3" x1="1034.77" y1="-841.25" x2="1034.77" y2="-848.01" xlink:href="#未命名的渐变_386"/><linearGradient id="未命名的渐变_74-2" x1="1030.17" y1="-844.5" x2="1039.13" y2="-844.5" xlink:href="#未命名的渐变_74"/><linearGradient id="未命名的渐变_386-4" x1="1025.81" y1="-862.2" x2="1025.81" y2="-868.95" gradientTransform="matrix(0.5, 0, 0, 1.7, -510.64, 1538.28)" xlink:href="#未命名的渐变_386"/><linearGradient id="未命名的渐变_386-5" x1="1291.87" y1="-895.04" x2="1291.87" y2="-901.8" gradientTransform="matrix(0.5, 0, 0, -1, -502.65, -888.96)" xlink:href="#未命名的渐变_386"/><linearGradient id="未命名的渐变_74-3" x1="1287.27" y1="-898.28" x2="1296.24" y2="-898.28" gradientTransform="matrix(0.5, 0, 0, -1, -502.65, -888.96)" xlink:href="#未命名的渐变_74"/><linearGradient id="未命名的渐变_386-6" x1="1282.91" y1="-893.76" x2="1282.91" y2="-900.52" gradientTransform="matrix(0.5, 0, 0, -1.7, -493.69, -1519.33)" xlink:href="#未命名的渐变_386"/><linearGradient id="未命名的渐变_386-7" x1="1291.87" y1="-841.25" x2="1291.87" y2="-848.01" gradientTransform="matrix(0.5, 0, 0, -1, -502.65, -781.38)" xlink:href="#未命名的渐变_386"/><linearGradient id="未命名的渐变_74-4" x1="1287.27" y1="-844.49" x2="1296.23" y2="-844.49" gradientTransform="matrix(0.5, 0, 0, -1, -502.65, -781.38)" xlink:href="#未命名的渐变_74"/><linearGradient id="未命名的渐变_386-8" x1="1282.91" y1="-862.19" x2="1282.91" y2="-868.95" gradientTransform="matrix(0.5, 0, 0, -1.7, -493.69, -1411.75)" xlink:href="#未命名的渐变_386"/><linearGradient id="未命名的渐变_39-2" x1="17.06" y1="3.77" x2="17.06" y2="2.38" xlink:href="#未命名的渐变_39"/><linearGradient id="未命名的渐变_39-3" x1="22.56" y1="3.77" x2="22.56" y2="2.38" xlink:href="#未命名的渐变_39"/><linearGradient id="未命名的渐变_39-4" x1="28.07" y1="3.77" x2="28.07" y2="2.38" xlink:href="#未命名的渐变_39"/><linearGradient id="未命名的渐变_39-5" x1="33.57" y1="3.77" x2="33.57" y2="2.38" xlink:href="#未命名的渐变_39"/><linearGradient id="未命名的渐变_39-6" x1="39.07" y1="3.77" x2="39.07" y2="2.38" xlink:href="#未命名的渐变_39"/><linearGradient id="未命名的渐变_39-7" x1="44.58" y1="3.77" x2="44.58" y2="2.38" xlink:href="#未命名的渐变_39"/><linearGradient id="未命名的渐变_39-8" x1="50.08" y1="3.77" x2="50.08" y2="2.38" xlink:href="#未命名的渐变_39"/><linearGradient id="未命名的渐变_39-9" x1="55.59" y1="3.77" x2="55.59" y2="2.38" xlink:href="#未命名的渐变_39"/><linearGradient id="未命名的渐变_39-10" x1="61.09" y1="3.77" x2="61.09" y2="2.38" xlink:href="#未命名的渐变_39"/><linearGradient id="未命名的渐变_39-11" x1="66.59" y1="3.77" x2="66.59" y2="2.38" xlink:href="#未命名的渐变_39"/><linearGradient id="未命名的渐变_39-12" x1="72.1" y1="3.77" x2="72.1" y2="2.38" xlink:href="#未命名的渐变_39"/><linearGradient id="未命名的渐变_39-13" x1="77.6" y1="3.77" x2="77.6" y2="2.38" xlink:href="#未命名的渐变_39"/><linearGradient id="未命名的渐变_39-14" x1="83.1" y1="3.77" x2="83.1" y2="2.38" xlink:href="#未命名的渐变_39"/><linearGradient id="未命名的渐变_39-15" x1="88.61" y1="3.77" x2="88.61" y2="2.38" xlink:href="#未命名的渐变_39"/><linearGradient id="未命名的渐变_39-16" x1="94.11" y1="3.77" x2="94.11" y2="2.38" xlink:href="#未命名的渐变_39"/><linearGradient id="未命名的渐变_39-17" x1="99.62" y1="3.77" x2="99.62" y2="2.38" xlink:href="#未命名的渐变_39"/><linearGradient id="未命名的渐变_39-18" x1="105.12" y1="3.77" x2="105.12" y2="2.38" xlink:href="#未命名的渐变_39"/><linearGradient id="未命名的渐变_39-19" x1="110.62" y1="3.77" x2="110.62" y2="2.38" xlink:href="#未命名的渐变_39"/><linearGradient id="未命名的渐变_39-20" x1="116.13" y1="3.77" x2="116.13" y2="2.38" xlink:href="#未命名的渐变_39"/><linearGradient id="未命名的渐变_39-21" x1="121.63" y1="3.77" x2="121.63" y2="2.38" xlink:href="#未命名的渐变_39"/><linearGradient id="未命名的渐变_39-22" x1="127.13" y1="3.77" x2="127.13" y2="2.38" xlink:href="#未命名的渐变_39"/><linearGradient id="未命名的渐变_39-23" x1="132.64" y1="3.77" x2="132.64" y2="2.38" xlink:href="#未命名的渐变_39"/><linearGradient id="未命名的渐变_39-24" x1="17.06" y1="70.82" x2="17.06" y2="69.43" xlink:href="#未命名的渐变_39"/><linearGradient id="未命名的渐变_39-25" x1="22.56" y1="70.82" x2="22.56" y2="69.43" xlink:href="#未命名的渐变_39"/><linearGradient id="未命名的渐变_39-26" x1="28.07" y1="70.82" x2="28.07" y2="69.43" xlink:href="#未命名的渐变_39"/><linearGradient id="未命名的渐变_39-27" x1="33.57" y1="70.82" x2="33.57" y2="69.43" xlink:href="#未命名的渐变_39"/><linearGradient id="未命名的渐变_39-28" x1="39.07" y1="70.82" x2="39.07" y2="69.43" xlink:href="#未命名的渐变_39"/><linearGradient id="未命名的渐变_39-29" x1="44.58" y1="70.82" x2="44.58" y2="69.43" xlink:href="#未命名的渐变_39"/><linearGradient id="未命名的渐变_39-30" x1="50.08" y1="70.82" x2="50.08" y2="69.43" xlink:href="#未命名的渐变_39"/><linearGradient id="未命名的渐变_39-31" x1="55.59" y1="70.82" x2="55.59" y2="69.43" xlink:href="#未命名的渐变_39"/><linearGradient id="未命名的渐变_39-32" x1="61.09" y1="70.82" x2="61.09" y2="69.43" xlink:href="#未命名的渐变_39"/><linearGradient id="未命名的渐变_39-33" x1="66.59" y1="70.82" x2="66.59" y2="69.43" xlink:href="#未命名的渐变_39"/><linearGradient id="未命名的渐变_39-34" x1="72.1" y1="70.82" x2="72.1" y2="69.43" xlink:href="#未命名的渐变_39"/><linearGradient id="未命名的渐变_39-35" x1="77.6" y1="70.82" x2="77.6" y2="69.43" xlink:href="#未命名的渐变_39"/><linearGradient id="未命名的渐变_39-36" x1="83.1" y1="70.82" x2="83.1" y2="69.43" xlink:href="#未命名的渐变_39"/><linearGradient id="未命名的渐变_39-37" x1="88.61" y1="70.82" x2="88.61" y2="69.43" xlink:href="#未命名的渐变_39"/><linearGradient id="未命名的渐变_39-38" x1="94.11" y1="70.82" x2="94.11" y2="69.43" xlink:href="#未命名的渐变_39"/><linearGradient id="未命名的渐变_39-39" x1="99.62" y1="70.82" x2="99.62" y2="69.43" xlink:href="#未命名的渐变_39"/><linearGradient id="未命名的渐变_39-40" x1="105.12" y1="70.82" x2="105.12" y2="69.43" xlink:href="#未命名的渐变_39"/><linearGradient id="未命名的渐变_39-41" x1="110.62" y1="70.82" x2="110.62" y2="69.43" xlink:href="#未命名的渐变_39"/><linearGradient id="未命名的渐变_39-42" x1="116.13" y1="70.82" x2="116.13" y2="69.43" xlink:href="#未命名的渐变_39"/><linearGradient id="未命名的渐变_39-43" x1="121.63" y1="70.82" x2="121.63" y2="69.43" xlink:href="#未命名的渐变_39"/><linearGradient id="未命名的渐变_39-44" x1="127.13" y1="70.82" x2="127.13" y2="69.43" xlink:href="#未命名的渐变_39"/><linearGradient id="未命名的渐变_39-45" x1="132.64" y1="70.82" x2="132.64" y2="69.43" xlink:href="#未命名的渐变_39"/><linearGradient id="未命名的渐变_70" x1="75.01" y1="63.71" x2="75.01" y2="60.33" gradientUnits="userSpaceOnUse"><stop offset="0" stop-color="#a9b1bb"/><stop offset="0.09" stop-color="#61666b"/><stop offset="0.18" stop-color="#696e73"/><stop offset="0.32" stop-color="#7e8489"/><stop offset="0.49" stop-color="#a1a7ae"/><stop offset="0.69" stop-color="#d1d8e0"/><stop offset="0.75" stop-color="#e2eaf2"/><stop offset="0.93" stop-color="#9ba1ab"/><stop offset="1" stop-color="#767b82"/></linearGradient><linearGradient id="未命名的渐变_146" x1="33.35" y1="62.02" x2="40.34" y2="62.02" gradientUnits="userSpaceOnUse"><stop offset="0" stop-color="#ff7300"/><stop offset="0.08" stop-color="#fe7600" stop-opacity="0.96"/><stop offset="0.23" stop-color="#fb7e00" stop-opacity="0.86"/><stop offset="0.41" stop-color="#f78c00" stop-opacity="0.7"/><stop offset="0.62" stop-color="#f19e00" stop-opacity="0.47"/><stop offset="0.86" stop-color="#eab600" stop-opacity="0.19"/><stop offset="1" stop-color="#e5c500" stop-opacity="0"/></linearGradient><linearGradient id="未命名的渐变_146-2" x1="-12.47" y1="62.02" x2="-5.5" y2="62.02" gradientTransform="matrix(1, 0, 0, -1, 122.18, 124.05)" xlink:href="#未命名的渐变_146"/><linearGradient id="未命名的渐变_70-2" x1="75.01" y1="58.51" x2="75.01" y2="55.13" xlink:href="#未命名的渐变_70"/><linearGradient id="未命名的渐变_146-3" x1="33.35" y1="56.82" x2="40.34" y2="56.82" xlink:href="#未命名的渐变_146"/><linearGradient id="未命名的渐变_146-4" x1="-12.47" y1="56.82" x2="-5.5" y2="56.82" gradientTransform="matrix(1, 0, 0, -1, 122.18, 113.65)" xlink:href="#未命名的渐变_146"/><linearGradient id="未命名的渐变_70-3" x1="75.01" y1="53.31" x2="75.01" y2="49.93" xlink:href="#未命名的渐变_70"/><linearGradient id="未命名的渐变_146-5" x1="33.35" y1="51.62" x2="40.34" y2="51.62" xlink:href="#未命名的渐变_146"/><linearGradient id="未命名的渐变_146-6" x1="-12.47" y1="51.62" x2="-5.5" y2="51.62" gradientTransform="matrix(1, 0, 0, -1, 122.18, 103.25)" xlink:href="#未命名的渐变_146"/><linearGradient id="未命名的渐变_70-4" x1="75.01" y1="48.11" x2="75.01" y2="44.73" xlink:href="#未命名的渐变_70"/><linearGradient id="未命名的渐变_146-7" x1="33.35" y1="46.42" x2="40.34" y2="46.42" xlink:href="#未命名的渐变_146"/><linearGradient id="未命名的渐变_146-8" x1="-12.47" y1="46.42" x2="-5.5" y2="46.42" gradientTransform="matrix(1, 0, 0, -1, 122.18, 92.85)" xlink:href="#未命名的渐变_146"/><linearGradient id="未命名的渐变_70-5" x1="75.01" y1="42.91" x2="75.01" y2="39.53" xlink:href="#未命名的渐变_70"/><linearGradient id="未命名的渐变_146-9" x1="33.35" y1="41.22" x2="40.34" y2="41.22" xlink:href="#未命名的渐变_146"/><linearGradient id="未命名的渐变_146-10" x1="-12.47" y1="41.22" x2="-5.5" y2="41.22" gradientTransform="matrix(1, 0, 0, -1, 122.18, 82.45)" xlink:href="#未命名的渐变_146"/><linearGradient id="未命名的渐变_70-6" x1="75.01" y1="37.71" x2="75.01" y2="34.33" xlink:href="#未命名的渐变_70"/><linearGradient id="未命名的渐变_146-11" x1="33.35" y1="36.02" x2="40.34" y2="36.02" xlink:href="#未命名的渐变_146"/><linearGradient id="未命名的渐变_146-12" x1="-12.47" y1="36.02" x2="-5.5" y2="36.02" gradientTransform="matrix(1, 0, 0, -1, 122.18, 72.05)" xlink:href="#未命名的渐变_146"/><linearGradient id="未命名的渐变_70-7" x1="75.01" y1="32.51" x2="75.01" y2="29.13" xlink:href="#未命名的渐变_70"/><linearGradient id="未命名的渐变_146-13" x1="33.35" y1="30.82" x2="40.34" y2="30.82" xlink:href="#未命名的渐变_146"/><linearGradient id="未命名的渐变_146-14" x1="-12.47" y1="30.82" x2="-5.5" y2="30.82" gradientTransform="matrix(1, 0, 0, -1, 122.18, 61.65)" xlink:href="#未命名的渐变_146"/><linearGradient id="未命名的渐变_70-8" x1="75.01" y1="27.31" x2="75.01" y2="23.93" xlink:href="#未命名的渐变_70"/><linearGradient id="未命名的渐变_146-15" x1="33.35" y1="25.62" x2="40.34" y2="25.62" xlink:href="#未命名的渐变_146"/><linearGradient id="未命名的渐变_146-16" x1="-12.47" y1="25.62" x2="-5.5" y2="25.62" gradientTransform="matrix(1, 0, 0, -1, 122.18, 51.25)" xlink:href="#未命名的渐变_146"/><linearGradient id="未命名的渐变_70-9" x1="75.01" y1="22.11" x2="75.01" y2="18.73" xlink:href="#未命名的渐变_70"/><linearGradient id="未命名的渐变_146-17" x1="33.35" y1="20.42" x2="40.34" y2="20.42" xlink:href="#未命名的渐变_146"/><linearGradient id="未命名的渐变_146-18" x1="-12.47" y1="20.42" x2="-5.5" y2="20.42" gradientTransform="matrix(1, 0, 0, -1, 122.18, 40.85)" xlink:href="#未命名的渐变_146"/><linearGradient id="未命名的渐变_70-10" x1="75.01" y1="16.91" x2="75.01" y2="13.53" xlink:href="#未命名的渐变_70"/><linearGradient id="未命名的渐变_146-19" x1="33.35" y1="15.22" x2="40.34" y2="15.22" xlink:href="#未命名的渐变_146"/><linearGradient id="未命名的渐变_146-20" x1="-12.47" y1="15.22" x2="-5.5" y2="15.22" gradientTransform="matrix(1, 0, 0, -1, 122.18, 30.45)" xlink:href="#未命名的渐变_146"/><linearGradient id="未命名的渐变_70-11" x1="75.01" y1="11.71" x2="75.01" y2="8.33" xlink:href="#未命名的渐变_70"/><linearGradient id="未命名的渐变_146-21" x1="33.35" y1="10.02" x2="40.34" y2="10.02" xlink:href="#未命名的渐变_146"/><linearGradient id="未命名的渐变_146-22" x1="-12.47" y1="10.02" x2="-5.5" y2="10.02" gradientTransform="matrix(1, 0, 0, -1, 122.18, 20.05)" xlink:href="#未命名的渐变_146"/></defs><title>Radiator coil(加热盘管)</title><g class="cls-1"><g id="图层_2" data-name="图层 2"><g id="图层_6" data-name="图层 6"><g id="Radiator_coil_加热盘管_" data-name="Radiator coil(加热盘管)"><rect class="cls-2" x="32.81" y="6.14" width="84.38" height="60.27"/><path class="cls-3" d="M116.69,6.64V65.91H33.31V6.64h83.38m.5-.5H32.81V66.41h84.38V6.14Z"/><rect class="cls-4" x="8.97" width="6.14" height="72.56"/><rect class="cls-5" x="134.89" width="6.14" height="72.56"/><rect class="cls-6" x="15.11" y="6.14" width="17.7" height="60.27"/><rect class="cls-7" x="117.19" y="6.14" width="17.7" height="60.27"/><rect class="cls-8" x="71.93" y="9.59" width="6.14" height="119.78" transform="translate(5.52 144.48) rotate(-90)"/><rect class="cls-9" x="71.93" y="-56.82" width="6.14" height="119.78" transform="translate(71.93 78.07) rotate(-90)"/><rect class="cls-10" x="4.48" y="6.09" width="4.48" height="6.76"/><rect class="cls-11" x="4.48" y="6.09" width="4.48" height="6.76"/><rect class="cls-12" y="3.72" width="4.48" height="11.52"/><rect class="cls-13" x="4.48" y="59.88" width="4.48" height="6.76"/><rect class="cls-14" x="4.48" y="59.88" width="4.48" height="6.76"/><rect class="cls-15" y="57.5" width="4.48" height="11.52"/><rect class="cls-16" x="141.03" y="6.09" width="4.48" height="6.76" transform="translate(286.55 18.95) rotate(-180)"/><rect class="cls-17" x="141.03" y="6.09" width="4.48" height="6.76" transform="translate(286.55 18.95) rotate(-180)"/><rect class="cls-18" x="145.52" y="3.72" width="4.48" height="11.52" transform="translate(295.52 18.95) rotate(-180)"/><rect class="cls-19" x="141.03" y="59.88" width="4.48" height="6.76" transform="translate(286.55 126.53) rotate(-180)"/><rect class="cls-20" x="141.03" y="59.88" width="4.48" height="6.76" transform="translate(286.55 126.53) rotate(-180)"/><rect class="cls-21" x="145.52" y="57.5" width="4.48" height="11.52" transform="translate(295.52 126.53) rotate(-180)"/><circle class="cls-22" cx="17.06" cy="3.07" r="0.64"/><circle class="cls-23" cx="22.56" cy="3.07" r="0.64"/><circle class="cls-24" cx="28.07" cy="3.07" r="0.64"/><circle class="cls-25" cx="33.57" cy="3.07" r="0.64"/><circle class="cls-26" cx="39.07" cy="3.07" r="0.64"/><circle class="cls-27" cx="44.58" cy="3.07" r="0.64"/><circle class="cls-28" cx="50.08" cy="3.07" r="0.64"/><circle class="cls-29" cx="55.59" cy="3.07" r="0.64"/><circle class="cls-30" cx="61.09" cy="3.07" r="0.64"/><circle class="cls-31" cx="66.59" cy="3.07" r="0.64"/><circle class="cls-32" cx="72.1" cy="3.07" r="0.64"/><circle class="cls-33" cx="77.6" cy="3.07" r="0.64"/><circle class="cls-34" cx="83.1" cy="3.07" r="0.64"/><circle class="cls-35" cx="88.61" cy="3.07" r="0.64"/><circle class="cls-36" cx="94.11" cy="3.07" r="0.64"/><circle class="cls-37" cx="99.62" cy="3.07" r="0.64"/><circle class="cls-38" cx="105.12" cy="3.07" r="0.64"/><circle class="cls-39" cx="110.62" cy="3.07" r="0.64"/><circle class="cls-40" cx="116.13" cy="3.07" r="0.64"/><circle class="cls-41" cx="121.63" cy="3.07" r="0.64"/><circle class="cls-42" cx="127.13" cy="3.07" r="0.64"/><circle class="cls-43" cx="132.64" cy="3.07" r="0.64"/><circle class="cls-44" cx="17.06" cy="70.13" r="0.64"/><circle class="cls-45" cx="22.56" cy="70.13" r="0.64"/><circle class="cls-46" cx="28.07" cy="70.13" r="0.64"/><circle class="cls-47" cx="33.57" cy="70.13" r="0.64"/><circle class="cls-48" cx="39.07" cy="70.13" r="0.64"/><circle class="cls-49" cx="44.58" cy="70.13" r="0.64"/><circle class="cls-50" cx="50.08" cy="70.13" r="0.64"/><circle class="cls-51" cx="55.59" cy="70.13" r="0.64"/><circle class="cls-52" cx="61.09" cy="70.13" r="0.64"/><circle class="cls-53" cx="66.59" cy="70.13" r="0.64"/><circle class="cls-54" cx="72.1" cy="70.13" r="0.64"/><circle class="cls-55" cx="77.6" cy="70.13" r="0.64"/><circle class="cls-56" cx="83.1" cy="70.13" r="0.64"/><circle class="cls-57" cx="88.61" cy="70.13" r="0.64"/><circle class="cls-58" cx="94.11" cy="70.13" r="0.64"/><circle class="cls-59" cx="99.62" cy="70.13" r="0.64"/><circle class="cls-60" cx="105.12" cy="70.13" r="0.64"/><circle class="cls-61" cx="110.62" cy="70.13" r="0.64"/><circle class="cls-62" cx="116.13" cy="70.13" r="0.64"/><circle class="cls-63" cx="121.63" cy="70.13" r="0.64"/><circle class="cls-64" cx="127.13" cy="70.13" r="0.64"/><circle class="cls-65" cx="132.64" cy="70.13" r="0.64"/><rect class="cls-66" x="33.35" y="60.33" width="83.33" height="3.38"/><rect class="cls-67" x="33.35" y="60.33" width="6.99" height="3.38"/><rect class="cls-68" x="109.7" y="60.33" width="6.97" height="3.38" transform="translate(226.38 124.05) rotate(-180)"/><rect class="cls-69" x="33.35" y="55.13" width="83.33" height="3.38"/><rect class="cls-70" x="33.35" y="55.13" width="6.99" height="3.38"/><rect class="cls-71" x="109.7" y="55.13" width="6.97" height="3.38" transform="translate(226.38 113.65) rotate(-180)"/><rect class="cls-72" x="33.35" y="49.93" width="83.33" height="3.38"/><rect class="cls-73" x="33.35" y="49.93" width="6.99" height="3.38"/><rect class="cls-74" x="109.7" y="49.93" width="6.97" height="3.38" transform="translate(226.38 103.25) rotate(-180)"/><rect class="cls-75" x="33.35" y="44.73" width="83.33" height="3.38"/><rect class="cls-76" x="33.35" y="44.73" width="6.99" height="3.38"/><rect class="cls-77" x="109.7" y="44.73" width="6.97" height="3.38" transform="translate(226.38 92.85) rotate(-180)"/><rect class="cls-78" x="33.35" y="39.53" width="83.33" height="3.38"/><rect class="cls-79" x="33.35" y="39.53" width="6.99" height="3.38"/><rect class="cls-80" x="109.7" y="39.53" width="6.97" height="3.38" transform="translate(226.38 82.45) rotate(-180)"/><rect class="cls-81" x="33.35" y="34.33" width="83.33" height="3.38"/><rect class="cls-82" x="33.35" y="34.33" width="6.99" height="3.38"/><rect class="cls-83" x="109.7" y="34.33" width="6.97" height="3.38" transform="translate(226.38 72.05) rotate(-180)"/><rect class="cls-84" x="33.35" y="29.13" width="83.33" height="3.38"/><rect class="cls-85" x="33.35" y="29.13" width="6.99" height="3.38"/><rect class="cls-86" x="109.7" y="29.13" width="6.97" height="3.38" transform="translate(226.38 61.65) rotate(-180)"/><rect class="cls-87" x="33.35" y="23.93" width="83.33" height="3.38"/><rect class="cls-88" x="33.35" y="23.93" width="6.99" height="3.38"/><rect class="cls-89" x="109.7" y="23.93" width="6.97" height="3.38" transform="translate(226.38 51.25) rotate(-180)"/><rect class="cls-90" x="33.35" y="18.73" width="83.33" height="3.38"/><rect class="cls-91" x="33.35" y="18.73" width="6.99" height="3.38"/><rect class="cls-92" x="109.7" y="18.73" width="6.97" height="3.38" transform="translate(226.38 40.85) rotate(-180)"/><rect class="cls-93" x="33.35" y="13.53" width="83.33" height="3.38"/><rect class="cls-94" x="33.35" y="13.53" width="6.99" height="3.38"/><rect class="cls-95" x="109.7" y="13.53" width="6.97" height="3.38" transform="translate(226.38 30.45) rotate(-180)"/><rect class="cls-96" x="33.35" y="8.33" width="83.33" height="3.38"/><rect class="cls-97" x="33.35" y="8.33" width="6.99" height="3.38"/><rect class="cls-98" x="109.7" y="8.33" width="6.97" height="3.38" transform="translate(226.38 20.05) rotate(-180)"/>
</g></g></g></g></svg>