<svg xmlns="http://www.w3.org/2000/svg" viewBox="0 0 150 148.06"><defs><style>.cls-1{isolation:isolate;}.cls-2{fill:#f9fafc;}.cls-3{fill:#7a8799;}.cls-4{fill:#c3ccd9;}.cls-5{fill:#596980;}.cls-6{fill:#3d4e66;}.cls-7{fill:#152133;}.cls-8{fill:#cfd8e6;}.cls-9{fill:#27354d;}.cls-10{fill:#b8c0cc;}.cls-11{opacity:0.2;}</style></defs><title>Return air grille（回风阀开度）</title><g id="图层_2" data-name="图层 2"><g id="风格1"><g id="Return_air_grille_回风阀开度_" data-name="Return air grille（回风阀开度）"><g class="cls-1"><polygon class="cls-2" points="150 101.07 75.25 144.51 0.02 101.07 74.77 57.63 150 101.07"/><polygon class="cls-3" points="150 101.07 149.98 104.62 75.23 148.06 75.25 144.51 150 101.07"/><polygon class="cls-4" points="75.25 144.51 75.23 148.06 0 104.62 0.02 101.07 75.25 144.51"/></g><g class="cls-1"><path class="cls-5" d="M48.72.82l0,16.27v4.6L48.5,77.8,97.4,106l4,2.31,14.09,8.14.22-77Zm4.93,23.75L97.53,49.91l0,0,0,6.83-.13,43.09L53.51,74.5Z"/><path class="cls-6" d="M53.7,8.31l-1-.57,0,11.65,0,4.61-.14,51.5,44.9,25.92,4,2.31,10.1,5.83V108l.19-66.19ZM53.51,74.5l.14-49.93L97.53,49.91l0,0,0,6.83-.13,43.09Z"/><polygon class="cls-6" points="111.7 41.8 111.51 107.99 101.41 102.16 97.41 99.85 97.54 56.76 97.56 49.93 97.53 49.91 53.65 24.57 53.67 19.97 53.7 8.31 111.7 41.8"/><polygon class="cls-7" points="115.71 39.49 117.12 38.67 116.9 115.66 115.49 116.48 115.71 39.49"/><polygon class="cls-5" points="48.72 0.82 50.13 0 117.12 38.67 115.71 39.49 48.72 0.82"/><path class="cls-6" d="M101.53,47.61,53.67,20l-1-.58-4-2.3v4.6l4,2.31,1,.57L97.53,49.91l0,0,0,6.83-.13,43.09V106l4,2.31v-6.18l.16-54.53Z"/></g><g class="cls-1"><polygon class="cls-5" points="102.79 107.41 102.74 123.79 35.75 85.12 35.97 8.14 50.3 16.41 50.13 77 102.79 107.41"/><polygon class="cls-3" points="102.95 46.81 115.64 39.44 115.42 116.42 102.74 123.79 102.95 46.81"/><polygon class="cls-8" points="35.97 8.14 48.65 0.76 115.64 39.44 102.95 46.81 35.97 8.14"/></g><g class="cls-1"><path class="cls-6" d="M101.53,47.61,34.58,9l-.22,77,.29.17,66.7,38.51.22-77Zm-4,9.15-.16,54.64v2l-55-31.76h0l.18-63.47,55,31.75,0,0Z"/><polygon class="cls-5" points="97.38 113.4 97.37 116.12 97.37 117.69 38.65 83.79 38.37 83.63 38.56 15.87 39.56 16.44 42.55 18.16 42.37 81.63 42.39 81.64 97.38 113.4"/><polygon class="cls-6" points="97.38 111.4 97.54 56.76 97.38 113.4 97.38 111.4"/><polygon class="cls-7" points="101.56 47.63 102.97 46.81 102.76 123.79 101.35 124.61 101.56 47.63"/><polygon class="cls-5" points="34.58 8.95 35.99 8.13 102.97 46.81 101.56 47.63 34.58 8.95"/></g><polygon class="cls-9" points="38.56 15.87 52.65 24 52.51 75.5 38.37 83.63 38.56 15.87"/><polygon class="cls-3" points="97.56 50.88 97.56 77.69 51.79 51.27 49.93 45.8 48.97 42.96 42.83 24.9 41.85 22.02 40.45 17.91 97.56 50.88"/><path class="cls-10" d="M97.56,54.13v2.32L42.83,24.9l-2-1.18a1,1,0,0,1,1-1.74l.07,0Z"/><path class="cls-10" d="M97.56,70.94v2.31L49.93,45.8l-1.77-1a1,1,0,0,1-.36-1.37A1,1,0,0,1,49,43l.19.08Z"/><polygon class="cls-3" points="97.56 80.77 97.56 107.58 51.79 81.16 49.93 75.69 48.97 72.85 42.83 54.79 41.85 51.91 40.45 47.8 97.56 80.77"/><path class="cls-10" d="M97.56,84v2.32L42.83,54.79l-2-1.18a1,1,0,0,1,1-1.74l.07,0Z"/><path class="cls-10" d="M97.56,100.83v2.31L49.93,75.69l-1.77-1a1,1,0,0,1-.36-1.37A1,1,0,0,1,49,72.85l.19.08Z"/></g></g></g></svg>