<svg xmlns="http://www.w3.org/2000/svg" xmlns:xlink="http://www.w3.org/1999/xlink" viewBox="0 0 150 61.41"><defs><style>.cls-1{fill:url(#未命名的渐变_5);}.cls-2{fill:none;stroke:#5b5f66;stroke-miterlimit:10;stroke-width:0.25px;}.cls-3{fill:#2f3134;}.cls-4{fill:url(#未命名的渐变_109);}.cls-5{fill:url(#未命名的渐变_109-2);}.cls-6{fill:url(#未命名的渐变_109-3);}.cls-7{fill:url(#未命名的渐变_109-4);}.cls-8{fill:url(#未命名的渐变_109-5);}.cls-9{fill:url(#未命名的渐变_109-6);}.cls-10{fill:url(#未命名的渐变_109-7);}.cls-11{fill:url(#未命名的渐变_109-8);}.cls-12{fill:url(#未命名的渐变_109-9);}.cls-13{fill:url(#未命名的渐变_109-10);}.cls-14{fill:#494d53;}.cls-15{fill:#dde4ec;}.cls-16{fill:url(#未命名的渐变_10);}.cls-17{fill:url(#未命名的渐变_10-2);}.cls-18{fill:url(#未命名的渐变_10-3);}.cls-19{fill:url(#未命名的渐变_10-4);}.cls-20{fill:url(#未命名的渐变_10-5);}.cls-21{fill:url(#未命名的渐变_67);}.cls-22{opacity:0.2;}</style><linearGradient id="未命名的渐变_5" x1="127.34" y1="-20.61" x2="22.66" y2="84.07" gradientUnits="userSpaceOnUse"><stop offset="0" stop-color="#d7dce0"/><stop offset="1" stop-color="#8a9099"/></linearGradient><linearGradient id="未命名的渐变_109" x1="105.85" y1="5.76" x2="105.85" y2="3.35" gradientUnits="userSpaceOnUse"><stop offset="0" stop-color="#b9c0cc"/><stop offset="1" stop-color="#47494d"/></linearGradient><linearGradient id="未命名的渐变_109-2" x1="105.85" y1="9.94" x2="105.85" y2="7.53" xlink:href="#未命名的渐变_109"/><linearGradient id="未命名的渐变_109-3" x1="105.85" y1="14.12" x2="105.85" y2="11.7" xlink:href="#未命名的渐变_109"/><linearGradient id="未命名的渐变_109-4" x1="105.85" y1="18.3" x2="105.85" y2="15.88" xlink:href="#未命名的渐变_109"/><linearGradient id="未命名的渐变_109-5" x1="105.85" y1="22.47" x2="105.85" y2="20.06" xlink:href="#未命名的渐变_109"/><linearGradient id="未命名的渐变_109-6" x1="105.85" y1="26.65" x2="105.85" y2="24.24" xlink:href="#未命名的渐变_109"/><linearGradient id="未命名的渐变_109-7" x1="105.85" y1="30.83" x2="105.85" y2="28.42" xlink:href="#未命名的渐变_109"/><linearGradient id="未命名的渐变_109-8" x1="105.85" y1="35.01" x2="105.85" y2="32.6" xlink:href="#未命名的渐变_109"/><linearGradient id="未命名的渐变_109-9" x1="105.85" y1="39.19" x2="105.85" y2="36.77" xlink:href="#未命名的渐变_109"/><linearGradient id="未命名的渐变_109-10" x1="105.85" y1="43.37" x2="105.85" y2="40.95" xlink:href="#未命名的渐变_109"/><linearGradient id="未命名的渐变_10" x1="22.16" y1="-422.25" x2="10.92" y2="-433.49" gradientTransform="matrix(1, 0, 0, -1, 0, -399.89)" gradientUnits="userSpaceOnUse"><stop offset="0" stop-color="#dce1e6"/><stop offset="1" stop-color="#8a9099"/></linearGradient><linearGradient id="未命名的渐变_10-2" x1="31.93" y1="-436.36" x2="26.7" y2="-441.59" xlink:href="#未命名的渐变_10"/><linearGradient id="未命名的渐变_10-3" x1="37.85" y1="-436.36" x2="32.62" y2="-441.59" xlink:href="#未命名的渐变_10"/><linearGradient id="未命名的渐变_10-4" x1="90.49" y1="-436.36" x2="85.27" y2="-441.59" xlink:href="#未命名的渐变_10"/><linearGradient id="未命名的渐变_10-5" x1="129.26" y1="-417.4" x2="124.04" y2="-422.62" xlink:href="#未命名的渐变_10"/><linearGradient id="未命名的渐变_67" x1="126.79" y1="1.03" x2="138.78" y2="1.03" gradientUnits="userSpaceOnUse"><stop offset="0" stop-color="#a9b1bb"/><stop offset="0.06" stop-color="#5d6166"/><stop offset="0.78" stop-color="#e2eaf2"/><stop offset="0.93" stop-color="#9ba1ab"/><stop offset="1" stop-color="#767b82"/></linearGradient></defs><title>Rooftop air conditioner(屋顶空调)</title><g id="图层_2" data-name="图层 2"><g id="图层_6" data-name="图层 6"><g id="Rooftop_air_conditioner_屋顶空调_" data-name="Rooftop air conditioner(屋顶空调)"><rect class="cls-1" y="2.05" width="150" height="59.36"/><line class="cls-2" x1="32.26" y1="61.41" x2="32.26" y2="2.05"/><line class="cls-2" x1="61.69" y1="2.05" x2="61.69" y2="61.41"/><line class="cls-2" x1="61.69" y1="61.41" x2="61.69" y2="2.05"/><line class="cls-2" x1="91.13" y1="2.05" x2="91.13" y2="61.41"/><line class="cls-2" x1="120.56" y1="2.05" x2="120.56" y2="61.41"/><line class="cls-2" x1="91.13" y1="61.41" x2="91.13" y2="2.05"/><rect class="cls-3" x="91.13" y="2.05" width="29.44" height="43.23"/><rect class="cls-4" x="92.22" y="3.35" width="27.26" height="2.41"/><rect class="cls-5" x="92.22" y="7.53" width="27.26" height="2.41"/><rect class="cls-6" x="92.22" y="11.7" width="27.26" height="2.41"/><rect class="cls-7" x="92.22" y="15.88" width="27.26" height="2.41"/><rect class="cls-8" x="92.22" y="20.06" width="27.26" height="2.41"/><rect class="cls-9" x="92.22" y="24.24" width="27.26" height="2.41"/><rect class="cls-10" x="92.22" y="28.42" width="27.26" height="2.41"/><rect class="cls-11" x="92.22" y="32.6" width="27.26" height="2.41"/><rect class="cls-12" x="92.22" y="36.77" width="27.26" height="2.41"/><rect class="cls-13" x="92.22" y="40.95" width="27.26" height="2.41"/><line class="cls-2" x1="120.56" y1="61.41" x2="120.56" y2="2.05"/><rect class="cls-3" x="123.6" y="35.01" width="23.37" height="23.37"/><rect class="cls-2" x="123.6" y="13.93" width="23.37" height="12.26"/><rect class="cls-14" x="10.44" y="22" width="12.2" height="11.96"/><rect class="cls-15" x="10.86" y="22" width="11.78" height="11.54"/><rect class="cls-16" x="10.86" y="22.42" width="11.36" height="11.12"/><rect class="cls-14" x="27.63" y="34.98" width="3.38" height="8.23"/><rect class="cls-15" x="27.91" y="34.98" width="3.09" height="7.94"/><rect class="cls-17" x="27.91" y="35.27" width="2.8" height="7.65"/><rect class="cls-14" x="33.54" y="34.98" width="3.38" height="8.23"/><rect class="cls-15" x="33.83" y="34.98" width="3.09" height="7.94"/><rect class="cls-18" x="33.83" y="35.27" width="2.8" height="7.65"/><rect class="cls-14" x="86.19" y="34.98" width="3.38" height="8.23"/><rect class="cls-15" x="86.48" y="34.98" width="3.09" height="7.94"/><rect class="cls-19" x="86.48" y="35.27" width="2.8" height="7.65"/><rect class="cls-14" x="124.96" y="16.01" width="3.38" height="8.23"/><rect class="cls-15" x="125.25" y="16.01" width="3.09" height="7.94"/><rect class="cls-20" x="125.25" y="16.3" width="2.8" height="7.65"/><rect class="cls-21" x="126.79" width="11.99" height="2.05"/></g></g></g></svg>