<svg xmlns="http://www.w3.org/2000/svg" xmlns:xlink="http://www.w3.org/1999/xlink" viewBox="0 0 150 150"><defs><style>.cls-1{fill:url(#未命名的渐变_192);}.cls-2,.cls-7{opacity:0.3;}.cls-2{fill:url(#未命名的渐变_196);}.cls-10,.cls-3{opacity:0.2;}.cls-3{fill:url(#未命名的渐变_200);}.cls-4{fill:url(#未命名的渐变_192-2);}.cls-5{fill:url(#未命名的渐变_207);}.cls-6{fill:url(#未命名的渐变_5);}.cls-7{fill:url(#未命名的渐变_200-2);}.cls-8{fill:url(#未命名的渐变_192-3);}.cls-9{fill:none;stroke:#5b5f66;stroke-miterlimit:10;stroke-width:0.25px;}</style><linearGradient id="未命名的渐变_192" x1="-417" y1="-1196.41" x2="-417" y2="-1332.31" gradientTransform="matrix(0, -1, -1, 0, -1189.36, -377.95)" gradientUnits="userSpaceOnUse"><stop offset="0" stop-color="#a9b1bb"/><stop offset="0.09" stop-color="#61666b"/><stop offset="0.18" stop-color="#696e73"/><stop offset="0.32" stop-color="#7e8489"/><stop offset="0.49" stop-color="#a1a7ae"/><stop offset="0.69" stop-color="#d1d8e0"/><stop offset="0.75" stop-color="#e2eaf2"/><stop offset="0.93" stop-color="#9ba1ab"/><stop offset="1" stop-color="#767b82"/></linearGradient><linearGradient id="未命名的渐变_196" x1="-446.56" y1="-1264.36" x2="-424.52" y2="-1264.36" gradientTransform="matrix(0, -1, -1, 0, -1189.36, -377.95)" gradientUnits="userSpaceOnUse"><stop offset="0" stop-color="#2e3033"/><stop offset="1" stop-color="#9ba1ab" stop-opacity="0"/></linearGradient><linearGradient id="未命名的渐变_200" x1="-408.71" y1="-1264.36" x2="-387.44" y2="-1264.36" gradientTransform="matrix(0, -1, -1, 0, -1189.36, -377.95)" gradientUnits="userSpaceOnUse"><stop offset="0" stop-color="#9ba1ab" stop-opacity="0"/><stop offset="1" stop-color="#2e3033"/></linearGradient><linearGradient id="未命名的渐变_192-2" x1="-480.46" y1="-1191.28" x2="-442.51" y2="-1332.91" xlink:href="#未命名的渐变_192"/><linearGradient id="未命名的渐变_207" x1="18.64" y1="116.32" x2="131.36" y2="116.32" gradientUnits="userSpaceOnUse"><stop offset="0" stop-color="#a9b1bb"/><stop offset="0.09" stop-color="#61666b"/><stop offset="0.19" stop-color="#696e73"/><stop offset="0.34" stop-color="#7e8489"/><stop offset="0.52" stop-color="#a1a7ae"/><stop offset="0.73" stop-color="#d1d8e0"/><stop offset="0.79" stop-color="#e2eaf2"/><stop offset="0.93" stop-color="#9ba1ab"/><stop offset="1" stop-color="#767b82"/></linearGradient><linearGradient id="未命名的渐变_5" x1="111.06" y1="107.57" x2="38.94" y2="179.7" gradientUnits="userSpaceOnUse"><stop offset="0" stop-color="#d7dce0"/><stop offset="1" stop-color="#8a9099"/></linearGradient><linearGradient id="未命名的渐变_200-2" x1="75" y1="119.54" x2="75" y2="95.36" gradientTransform="matrix(1, 0, 0, 1, 0, 0)" xlink:href="#未命名的渐变_200"/><linearGradient id="未命名的渐变_192-3" x1="-421.31" y1="-1230.27" x2="-353.13" y2="-1298.45" xlink:href="#未命名的渐变_192"/></defs><title>Roof vent(屋顶通风口)</title><g id="图层_2" data-name="图层 2"><g id="图层_6" data-name="图层 6"><g id="Roof_vent_屋顶通风口_" data-name="Roof vent(屋顶通风口)"><rect class="cls-1" x="7.05" y="9.5" width="135.9" height="59.11"/><rect class="cls-2" x="7.05" y="46.58" width="135.9" height="22.04"/><rect class="cls-3" x="7.05" y="9.5" width="135.9" height="21.26"/><path class="cls-4" d="M143,68.61H7.05A56.49,56.49,0,0,0,0,95.36H150A57.94,57.94,0,0,0,143,68.61Z"/><rect class="cls-5" x="18.64" y="95.36" width="112.72" height="41.92"/><rect class="cls-6" x="9.23" y="137.28" width="131.53" height="12.72"/><rect class="cls-7" x="18.64" y="95.36" width="112.72" height="24.18"/><polygon class="cls-8" points="133.91 0 16.09 0 7.05 9.5 142.95 9.5 133.91 0"/><line class="cls-9" x1="7.05" y1="29.04" x2="142.95" y2="29.04"/><line class="cls-9" x1="7.05" y1="68.61" x2="142.95" y2="68.61"/></g></g></g></svg>