<svg xmlns="http://www.w3.org/2000/svg" xmlns:xlink="http://www.w3.org/1999/xlink" viewBox="0 0 150 106.65"><defs><style>.cls-1{fill:url(#未命名的渐变_13);}.cls-2{fill:#dbdbdb;}.cls-3{fill:#1a1d1a;}.cls-4{fill:#eee;}.cls-5{fill:#717070;}.cls-6{fill:#83c9cb;}.cls-7{fill:#8da130;}.cls-8{fill:#808181;}.cls-9{fill:#b86e76;}.cls-10{fill:url(#未命名的渐变_13-2);}.cls-11{fill:url(#未命名的渐变_67);}.cls-12{opacity:0.2;}</style><linearGradient id="未命名的渐变_13" y1="42.65" x2="137.19" y2="42.65" gradientUnits="userSpaceOnUse"><stop offset="0" stop-color="#6b6b6b"/><stop offset="0.01" stop-color="#767676"/><stop offset="0.03" stop-color="#959595"/><stop offset="0.04" stop-color="#aaa"/><stop offset="0.14" stop-color="#b1b1b1"/><stop offset="0.65" stop-color="#cfcfcf"/><stop offset="0.94" stop-color="#dbdbdb"/><stop offset="0.95" stop-color="#d2d2d2"/><stop offset="0.96" stop-color="#b9b9b9"/><stop offset="0.98" stop-color="#909090"/><stop offset="0.99" stop-color="#666"/></linearGradient><linearGradient id="未命名的渐变_13-2" x1="137.19" y1="46.65" x2="150" y2="46.65" xlink:href="#未命名的渐变_13"/><linearGradient id="未命名的渐变_67" x1="68.91" y1="22.47" x2="68.91" y2="19.87" gradientUnits="userSpaceOnUse"><stop offset="0" stop-color="#6b6b6b"/><stop offset="0.11" stop-color="#767676"/><stop offset="0.3" stop-color="#959595"/><stop offset="0.41" stop-color="#aaa"/><stop offset="0.56" stop-color="#ccc"/><stop offset="0.71" stop-color="#eaeaea"/><stop offset="0.8" stop-color="#f6f6f6"/><stop offset="0.83" stop-color="#ededed"/><stop offset="0.87" stop-color="#d4d4d4"/><stop offset="0.92" stop-color="#ababab"/><stop offset="0.98" stop-color="#737373"/><stop offset="0.99" stop-color="#666"/></linearGradient></defs><title>Rotary drum thickener（转鼓浓缩机）</title><g id="图层_2" data-name="图层 2"><g id="图层_125" data-name="图层 125"><g id="Rotary_drum_thickener_转鼓浓缩机_" data-name="Rotary drum thickener（转鼓浓缩机）"><rect class="cls-1" y="13.59" width="137.19" height="58.12"/><rect class="cls-2" y="22.62" width="47.21" height="45.74"/><rect class="cls-3" x="8.52" y="28.8" width="3.66" height="6.74"/><rect class="cls-4" x="9.21" y="29.84" width="2.44" height="2.9"/><rect class="cls-5" x="9.21" y="33.59" width="2.44" height="1.27"/><rect class="cls-3" x="35.68" y="28.8" width="3.66" height="6.74"/><rect class="cls-4" x="36.38" y="29.84" width="2.44" height="2.9"/><rect class="cls-5" x="36.38" y="33.59" width="2.44" height="1.27"/><circle class="cls-6" cx="10.05" cy="44.04" r="2.19"/><circle class="cls-3" cx="10.05" cy="44.04" r="0.75"/><circle class="cls-6" cx="19.27" cy="44.04" r="2.19"/><circle class="cls-3" cx="19.27" cy="44.04" r="0.75"/><circle class="cls-6" cx="28.49" cy="44.04" r="2.19"/><circle class="cls-3" cx="28.49" cy="44.04" r="0.75"/><circle class="cls-6" cx="37.59" cy="43.9" r="2.19"/><circle class="cls-3" cx="37.59" cy="43.9" r="0.75"/><circle class="cls-7" cx="10.05" cy="52.56" r="2.19"/><circle class="cls-3" cx="10.05" cy="52.56" r="0.75"/><circle class="cls-8" cx="9.64" cy="60.53" r="2.19"/><circle class="cls-3" cx="9.64" cy="60.53" r="0.75"/><circle class="cls-8" cx="37.78" cy="60.53" r="2.19"/><circle class="cls-3" cx="37.78" cy="60.53" r="0.75"/><circle class="cls-7" cx="19.27" cy="52.56" r="2.19"/><circle class="cls-3" cx="19.27" cy="52.56" r="0.75"/><circle class="cls-9" cx="19.27" cy="60.53" r="2.19"/><circle class="cls-3" cx="19.27" cy="60.53" r="0.75"/><circle class="cls-9" cx="28.77" cy="60.53" r="2.19"/><circle class="cls-3" cx="28.77" cy="60.53" r="0.75"/><circle class="cls-7" cx="28.49" cy="52.56" r="2.19"/><circle class="cls-3" cx="28.49" cy="52.56" r="0.75"/><circle class="cls-7" cx="37.59" cy="52.42" r="2.19"/><circle class="cls-3" cx="37.59" cy="52.42" r="0.75"/><rect class="cls-10" x="137.19" y="28.8" width="12.81" height="35.7"/><rect class="cls-2" width="137.19" height="13.59"/><rect class="cls-2" x="10.8" y="71.71" width="9.22" height="33.12"/><polygon class="cls-2" points="20.02 82.92 20.02 71.71 27.73 71.71 20.02 82.92"/><polygon class="cls-2" points="10.8 82.92 10.8 71.71 3.09 71.71 10.8 82.92"/><rect class="cls-2" x="7.59" y="104.83" width="15.42" height="1.82" rx="0.27"/><rect class="cls-2" x="118.2" y="71.71" width="9.22" height="33.12"/><polygon class="cls-2" points="127.42 82.92 127.42 71.71 135.13 71.71 127.42 82.92"/><polygon class="cls-2" points="118.2 82.92 118.2 71.71 110.49 71.71 118.2 82.92"/><rect class="cls-2" x="114.99" y="104.83" width="15.42" height="1.82" rx="0.27"/><rect class="cls-11" x="56.48" y="19.87" width="24.85" height="2.6" rx="0.38"/></g></g></g></svg>