<svg xmlns="http://www.w3.org/2000/svg" xmlns:xlink="http://www.w3.org/1999/xlink" viewBox="0 0 131.26 150"><defs><style>.cls-1{isolation:isolate;}.cls-2{fill:url(#未命名的渐变_10);}.cls-3{fill:url(#未命名的渐变_14);}.cls-4{fill:#fff;}.cls-5{fill:url(#未命名的渐变_10-2);}.cls-6{fill:#0f5499;}.cls-7{fill:url(#未命名的渐变_10-3);}.cls-8{fill:url(#未命名的渐变_10-4);}.cls-9{fill:url(#未命名的渐变_10-5);}.cls-10{fill:url(#未命名的渐变_10-6);}.cls-11{fill:url(#未命名的渐变_10-7);}.cls-12{fill:url(#未命名的渐变_10-8);}.cls-13{fill:url(#未命名的渐变_10-9);}.cls-14{opacity:0.2;}</style><linearGradient id="未命名的渐变_10" y1="93.87" x2="131.26" y2="93.87" gradientUnits="userSpaceOnUse"><stop offset="0" stop-color="#6de9fc"/><stop offset="1" stop-color="#2474b3"/></linearGradient><linearGradient id="未命名的渐变_14" x1="27.97" y1="75.73" x2="103.57" y2="0.14" gradientTransform="translate(103.52 -27.94) rotate(89.84)" gradientUnits="userSpaceOnUse"><stop offset="0" stop-color="#6effff"/><stop offset="1" stop-color="#5ac8f7"/></linearGradient><linearGradient id="未命名的渐变_10-2" x1="28.46" y1="54.85" x2="34.74" y2="54.85" xlink:href="#未命名的渐变_10"/><linearGradient id="未命名的渐变_10-3" x1="34.74" y1="46.66" x2="57.8" y2="46.66" xlink:href="#未命名的渐变_10"/><linearGradient id="未命名的渐变_10-4" x1="57.8" y1="41.26" x2="62.33" y2="41.26" xlink:href="#未命名的渐变_10"/><linearGradient id="未命名的渐变_10-5" x1="97.28" y1="54.86" x2="103.61" y2="54.86" xlink:href="#未命名的渐变_10"/><linearGradient id="未命名的渐变_10-6" x1="38.88" y1="36.5" x2="97.29" y2="36.5" xlink:href="#未命名的渐变_10"/><linearGradient id="未命名的渐变_10-7" x1="28.24" y1="17.54" x2="38.97" y2="17.54" xlink:href="#未命名的渐变_10"/><linearGradient id="未命名的渐变_10-8" x1="69.71" y1="26.33" x2="92.76" y2="26.33" xlink:href="#未命名的渐变_10"/><linearGradient id="未命名的渐变_10-9" x1="92.68" y1="17.54" x2="103.4" y2="17.54" xlink:href="#未命名的渐变_10"/></defs><title>Routers（路由器）</title><g id="图层_2" data-name="图层 2"><g id="风格1"><g id="Routers_路由器_" data-name="Routers（路由器）"><g class="cls-1"><path class="cls-2" d="M131.26,38.12,131,112.25c0,9.65-6.36,19.28-19,26.64-25.49,14.81-66.95,14.81-92.61,0C6.42,131.43,0,121.65,0,111.88L.28,37.75c0,9.77,6.42,19.55,19.33,27,25.67,14.81,67.12,14.81,92.62,0C124.89,57.4,131.24,47.77,131.26,38.12Z"/><ellipse class="cls-3" cx="65.77" cy="37.94" rx="37.93" ry="65.49" transform="translate(27.65 103.6) rotate(-89.84)"/></g><g class="cls-1"><path class="cls-4" d="M39.17,55.61v1.63a1.64,1.64,0,0,0,0-.38V55.23A2.43,2.43,0,0,1,39.17,55.61Z"/><path class="cls-5" d="M28.46,57.21V55.58A2.65,2.65,0,0,1,30,53.4a8.06,8.06,0,0,1,4.72-.86v1.63A8.19,8.19,0,0,0,30,55,2.66,2.66,0,0,0,28.46,57.21Z"/><path class="cls-6" d="M62.32,43.38,39.13,56.86a2.46,2.46,0,0,1-1.51,2.56,8.32,8.32,0,0,1-7.57,0C28,58.21,27.92,56.25,30,55a8.19,8.19,0,0,1,4.73-.86L57.8,40.77Z"/><polygon class="cls-7" points="34.74 54.17 34.74 52.54 57.8 39.14 57.8 40.77 34.74 54.17"/><polygon class="cls-8" points="57.8 40.77 57.8 39.14 62.33 41.76 62.32 43.38 57.8 40.77"/></g><g class="cls-1"><path class="cls-4" d="M92.88,57.21V55.58a2.07,2.07,0,0,1,0-.35v1.63C92.9,57,92.89,57.09,92.88,57.21Z"/><path class="cls-9" d="M102,53.4a8.14,8.14,0,0,0-4.74-.86v1.63A8.19,8.19,0,0,1,102,55a2.7,2.7,0,0,1,1.58,2.21V55.61A2.68,2.68,0,0,0,102,53.4Z"/><polygon class="cls-10" points="38.88 20.45 38.89 18.82 97.29 52.54 97.28 54.17 38.88 20.45"/><path class="cls-11" d="M28.24,19.89V18.26a2.65,2.65,0,0,1,1.56-2.18,8.34,8.34,0,0,1,7.58,0A2.68,2.68,0,0,1,39,18.29v1.63a2.68,2.68,0,0,0-1.58-2.21,8.34,8.34,0,0,0-7.58,0A2.69,2.69,0,0,0,28.24,19.89Z"/><path class="cls-6" d="M102,55c2.09,1.21,2.1,3.18,0,4.39a8.37,8.37,0,0,1-7.58,0,2.5,2.5,0,0,1-1.55-2.56L34.24,23a8.09,8.09,0,0,1-4.42-.89c-2.1-1.21-2.1-3.18,0-4.39a8.34,8.34,0,0,1,7.58,0c1.3.75,1.79,1.78,1.5,2.74l58.4,33.72A8.19,8.19,0,0,1,102,55Z"/></g><g class="cls-1"><polygon class="cls-12" points="69.72 33.84 69.72 32.22 92.76 18.82 92.76 20.45 69.72 33.84"/><path class="cls-13" d="M101.82,16.08a8.37,8.37,0,0,0-7.58,0,2.65,2.65,0,0,0-1.56,2.19V19.9a2.64,2.64,0,0,1,1.55-2.19,8.39,8.39,0,0,1,7.59,0,2.7,2.7,0,0,1,1.58,2.21V18.29A2.66,2.66,0,0,0,101.82,16.08Z"/><path class="cls-6" d="M101.82,17.71c2.1,1.21,2.1,3.18,0,4.39a7.93,7.93,0,0,1-4.41.88L74.24,36.46l-4.53-2.62L92.76,20.45c-.29-1,.19-2,1.47-2.74A8.39,8.39,0,0,1,101.82,17.71Z"/></g></g></g></g></svg>