<svg xmlns="http://www.w3.org/2000/svg" xmlns:xlink="http://www.w3.org/1999/xlink" viewBox="0 0 86.23 150"><defs><style>.cls-1{fill:url(#未命名的渐变_105);}.cls-2{fill:url(#未命名的渐变_105-2);}.cls-3{fill:url(#未命名的渐变_105-3);}.cls-4{fill:url(#未命名的渐变_105-4);}.cls-5{fill:url(#未命名的渐变_105-5);}.cls-6{fill:url(#未命名的渐变_105-6);}.cls-7{fill:url(#未命名的渐变_105-7);}.cls-8{fill:url(#未命名的渐变_105-8);}.cls-9{fill:url(#未命名的渐变_105-9);}.cls-10{fill:url(#未命名的渐变_105-10);}.cls-11{fill:url(#未命名的渐变_105-11);}.cls-12{fill:url(#未命名的渐变_105-12);}.cls-13{fill:url(#未命名的渐变_105-13);}.cls-14{fill:url(#未命名的渐变_105-14);}.cls-15{fill:url(#未命名的渐变_105-15);}.cls-16{fill:url(#未命名的渐变_105-16);}.cls-17{opacity:0.2;}</style><linearGradient id="未命名的渐变_105" x1="129.53" y1="-286.91" x2="129.53" y2="-292.84" gradientTransform="matrix(0.73, 0, 0, -1, -51.19, -263.13)" gradientUnits="userSpaceOnUse"><stop offset="0" stop-color="#e2e2e2"/><stop offset="0.03" stop-color="#d0d0d0"/><stop offset="0.06" stop-color="#bcbcbc"/><stop offset="0.09" stop-color="#b5b5b5"/><stop offset="0.49" stop-color="#f6f6f6"/><stop offset="0.63" stop-color="#f3f3f3"/><stop offset="0.73" stop-color="#eaeaea"/><stop offset="0.82" stop-color="#dbdbdb"/><stop offset="0.9" stop-color="#c6c6c6"/><stop offset="0.97" stop-color="#aaa"/><stop offset="1" stop-color="#9b9b9b"/></linearGradient><linearGradient id="未命名的渐变_105-2" x1="128.6" y1="-301.56" x2="128.6" y2="-307.5" gradientTransform="matrix(0.73, 0, 0, -1, -50.5, -263.11)" xlink:href="#未命名的渐变_105"/><linearGradient id="未命名的渐变_105-3" x1="127.67" y1="-316.22" x2="127.67" y2="-322.15" gradientTransform="matrix(0.73, 0, 0, -1, -49.82, -263.1)" xlink:href="#未命名的渐变_105"/><linearGradient id="未命名的渐变_105-4" x1="126.79" y1="-330.09" x2="126.79" y2="-336.02" gradientTransform="matrix(0.73, 0, 0, -1, -49.17, -263.08)" xlink:href="#未命名的渐变_105"/><linearGradient id="未命名的渐变_105-5" x1="125.21" y1="-343.94" x2="125.21" y2="-349.88" gradientTransform="matrix(0.73, 0, 0, -1, -48.52, -263.05)" xlink:href="#未命名的渐变_105"/><linearGradient id="未命名的渐变_105-6" x1="124.26" y1="-358.99" x2="124.26" y2="-364.92" gradientTransform="matrix(0.73, 0, 0, -1, -47.82, -263.03)" xlink:href="#未命名的渐变_105"/><linearGradient id="未命名的渐变_105-7" x1="37.19" y1="75" x2="49.46" y2="75" gradientTransform="matrix(1, 0, 0, 1, 0, 0)" xlink:href="#未命名的渐变_105"/><linearGradient id="未命名的渐变_105-8" x1="69.29" y1="-374.93" x2="69.29" y2="-380.86" gradientTransform="matrix(0.77, 0, 0, -1, -11.37, -260.07)" xlink:href="#未命名的渐变_105"/><linearGradient id="未命名的渐变_105-9" x1="137.93" y1="-16.43" x2="137.93" y2="-22.36" gradientTransform="translate(-64.77 38.81) scale(0.78 1)" xlink:href="#未命名的渐变_105"/><linearGradient id="未命名的渐变_105-10" x1="157.69" y1="92.69" x2="157.69" y2="86.76" gradientTransform="translate(-80.3 39.9) scale(0.78 1)" xlink:href="#未命名的渐变_105"/><linearGradient id="未命名的渐变_105-11" x1="165.66" y1="-2.29" x2="165.66" y2="-8.22" gradientTransform="translate(-78.2 38.95) scale(0.73 1)" xlink:href="#未命名的渐变_105"/><linearGradient id="未命名的渐变_105-12" x1="168.45" y1="12.17" x2="168.45" y2="6.24" gradientTransform="translate(-80.25 39.09) scale(0.73 1)" xlink:href="#未命名的渐变_105"/><linearGradient id="未命名的渐变_105-13" x1="171.24" y1="26.63" x2="171.24" y2="20.7" gradientTransform="translate(-82.31 39.24) scale(0.73 1)" xlink:href="#未命名的渐变_105"/><linearGradient id="未命名的渐变_105-14" x1="174.03" y1="41.09" x2="174.03" y2="35.16" gradientTransform="translate(-84.37 39.38) scale(0.73 1)" xlink:href="#未命名的渐变_105"/><linearGradient id="未命名的渐变_105-15" x1="176.82" y1="55.55" x2="176.82" y2="49.62" gradientTransform="translate(-86.43 39.53) scale(0.73 1)" xlink:href="#未命名的渐变_105"/><linearGradient id="未命名的渐变_105-16" x1="179.61" y1="70.01" x2="179.61" y2="64.08" gradientTransform="translate(-88.49 39.67) scale(0.73 1)" xlink:href="#未命名的渐变_105"/></defs><title>Screw drive（螺丝传动）</title><g id="图层_2" data-name="图层 2"><g id="图层_125" data-name="图层 125"><g id="Screw_drive_螺丝传动_" data-name="Screw drive（螺丝传动）"><rect class="cls-1" x="3.76" y="23.78" width="80.3" height="5.93" rx="0.49" transform="translate(-1.2 2.08) rotate(-2.67)"/><rect class="cls-2" x="3.76" y="38.45" width="80.3" height="5.93" rx="0.49" transform="translate(-1.88 2.09) rotate(-2.67)"/><rect class="cls-3" x="3.76" y="53.12" width="80.3" height="5.93" rx="0.49" transform="translate(-2.57 2.11) rotate(-2.67)"/><rect class="cls-4" x="3.76" y="67.01" width="80.3" height="5.93" rx="0.49" transform="translate(-3.22 2.12) rotate(-2.67)"/><rect class="cls-5" x="3.25" y="80.9" width="80.3" height="5.93" rx="0.49" transform="translate(-3.86 2.12) rotate(-2.67)"/><rect class="cls-6" x="3.25" y="95.96" width="80.3" height="5.93" rx="0.49" transform="translate(-4.57 2.13) rotate(-2.67)"/><rect class="cls-7" x="37.19" width="12.27" height="150"/><rect class="cls-8" x="-0.17" y="114.86" width="83.91" height="5.93" rx="0.49" transform="translate(-19.09 8.64) rotate(-9.62)"/><rect class="cls-9" x="0.52" y="16.45" width="85.79" height="5.93" rx="0.49" transform="translate(3.17 -5.93) rotate(8.1)"/><rect class="cls-10" x="0.48" y="126.66" width="85.79" height="5.93" rx="0.49" transform="translate(18.71 -4.82) rotate(8.1)"/><rect class="cls-11" x="3.27" y="30.73" width="80.3" height="5.93" rx="0.49" transform="matrix(0.99, 0.14, -0.14, 0.99, 5.18, -5.78)"/><rect class="cls-12" x="3.26" y="45.33" width="80.3" height="5.93" rx="0.49" transform="translate(7.24 -5.64) rotate(8.1)"/><rect class="cls-13" x="3.25" y="59.94" width="80.3" height="5.93" rx="0.49" transform="translate(9.3 -5.49) rotate(8.1)"/><rect class="cls-14" x="3.24" y="74.54" width="80.3" height="5.93" rx="0.49" transform="translate(11.36 -5.34) rotate(8.1)"/><rect class="cls-15" x="3.23" y="89.15" width="80.3" height="5.93" rx="0.49" transform="translate(13.42 -5.2) rotate(8.1)"/><rect class="cls-16" x="3.22" y="103.75" width="80.3" height="5.93" rx="0.49" transform="translate(15.48 -5.05) rotate(8.1)"/></g></g></g></svg>