<svg xmlns="http://www.w3.org/2000/svg" xmlns:xlink="http://www.w3.org/1999/xlink" viewBox="0 0 65.91 149.46"><defs><style>.cls-1{fill:url(#未命名的渐变_67);}.cls-2{fill:url(#未命名的渐变_105);}.cls-3{fill:url(#未命名的渐变_67-2);}.cls-4{fill:url(#未命名的渐变_105-2);}.cls-5{fill:url(#未命名的渐变_105-3);}.cls-6{fill:url(#未命名的渐变_67-3);}.cls-7{fill:url(#未命名的渐变_67-4);}.cls-8{fill:url(#未命名的渐变_67-5);}.cls-9{fill:url(#未命名的渐变_67-6);}.cls-10{fill:url(#未命名的渐变_67-7);}.cls-11{fill:url(#未命名的渐变_67-8);}.cls-12{fill:url(#未命名的渐变_67-9);}.cls-13{fill:url(#未命名的渐变_67-10);}.cls-14{fill:url(#未命名的渐变_67-11);}.cls-15{fill:url(#未命名的渐变_67-12);}.cls-16{fill:url(#未命名的渐变_67-13);}.cls-17{fill:url(#未命名的渐变_67-14);}.cls-18{fill:url(#未命名的渐变_67-15);}.cls-19{opacity:0.2;}</style><linearGradient id="未命名的渐变_67" x1="33.24" y1="29.34" x2="33.24" y2="26.45" gradientUnits="userSpaceOnUse"><stop offset="0" stop-color="#6b6b6b"/><stop offset="0.11" stop-color="#767676"/><stop offset="0.3" stop-color="#959595"/><stop offset="0.41" stop-color="#aaa"/><stop offset="0.56" stop-color="#ccc"/><stop offset="0.71" stop-color="#eaeaea"/><stop offset="0.8" stop-color="#f6f6f6"/><stop offset="0.83" stop-color="#ededed"/><stop offset="0.87" stop-color="#d4d4d4"/><stop offset="0.92" stop-color="#ababab"/><stop offset="0.98" stop-color="#737373"/><stop offset="0.99" stop-color="#666"/></linearGradient><linearGradient id="未命名的渐变_105" x1="433.3" y1="81.74" x2="490.83" y2="81.74" gradientTransform="matrix(-1, 0, 0, 1, 495.05, 0)" gradientUnits="userSpaceOnUse"><stop offset="0" stop-color="#e2e2e2"/><stop offset="0.03" stop-color="#d0d0d0"/><stop offset="0.06" stop-color="#bcbcbc"/><stop offset="0.09" stop-color="#b5b5b5"/><stop offset="0.49" stop-color="#f6f6f6"/><stop offset="0.63" stop-color="#f3f3f3"/><stop offset="0.73" stop-color="#eaeaea"/><stop offset="0.82" stop-color="#dbdbdb"/><stop offset="0.9" stop-color="#c6c6c6"/><stop offset="0.97" stop-color="#aaa"/><stop offset="1" stop-color="#9b9b9b"/></linearGradient><linearGradient id="未命名的渐变_67-2" x1="296.43" y1="45.61" x2="238.55" y2="45.61" gradientTransform="matrix(1, 0, 0, -1, -234.68, 91.22)" xlink:href="#未命名的渐变_67"/><linearGradient id="未命名的渐变_105-2" x1="295.27" y1="15.33" x2="239.27" y2="15.33" gradientTransform="matrix(1, 0, 0, -1, -234.25, 30.66)" xlink:href="#未命名的渐变_105"/><linearGradient id="未命名的渐变_105-3" x1="295.94" y1="5.44" x2="238.55" y2="5.44" gradientTransform="matrix(-1, 0, 0, 1, 300.29, 0)" xlink:href="#未命名的渐变_105"/><linearGradient id="未命名的渐变_67-3" x1="296.24" y1="80.53" x2="238.36" y2="80.53" gradientTransform="matrix(1, 0, 0, -1, -234.31, 161.05)" xlink:href="#未命名的渐变_67"/><linearGradient id="未命名的渐变_67-4" x1="296.24" y1="115.05" x2="238.36" y2="115.05" gradientTransform="matrix(1, 0, 0, -1, -234.31, 230.09)" xlink:href="#未命名的渐变_67"/><linearGradient id="未命名的渐变_67-5" x1="300.29" y1="146.63" x2="234.38" y2="146.63" gradientTransform="matrix(1, 0, 0, -1, -234.38, 293.25)" xlink:href="#未命名的渐变_67"/><linearGradient id="未命名的渐变_67-6" x1="296.88" y1="10.89" x2="237.42" y2="10.89" gradientTransform="matrix(1, 0, 0, -1, -234.01, 21.77)" xlink:href="#未命名的渐变_67"/><linearGradient id="未命名的渐变_67-7" x1="32.99" y1="45.61" x2="32.99" y2="42.72" xlink:href="#未命名的渐变_67"/><linearGradient id="未命名的渐变_67-8" x1="32.8" y1="61.82" x2="32.8" y2="58.93" xlink:href="#未命名的渐变_67"/><linearGradient id="未命名的渐变_67-9" x1="32.62" y1="78.04" x2="32.62" y2="75.14" xlink:href="#未命名的渐变_67"/><linearGradient id="未命名的渐变_67-10" x1="32.43" y1="94.25" x2="32.43" y2="91.36" xlink:href="#未命名的渐变_67"/><linearGradient id="未命名的渐变_67-11" x1="32.25" y1="110.46" x2="32.25" y2="107.57" xlink:href="#未命名的渐变_67"/><linearGradient id="未命名的渐变_67-12" x1="32.06" y1="126.68" x2="32.06" y2="123.78" xlink:href="#未命名的渐变_67"/><linearGradient id="未命名的渐变_67-13" x1="31.88" y1="142.89" x2="31.88" y2="140" xlink:href="#未命名的渐变_67"/><linearGradient id="未命名的渐变_67-14" x1="278.61" y1="82.21" x2="275.35" y2="82.21" gradientTransform="matrix(1, 0, 0, -1, -253.67, 164.41)" xlink:href="#未命名的渐变_67"/><linearGradient id="未命名的渐变_67-15" x1="259.09" y1="81.92" x2="255.82" y2="81.92" gradientTransform="matrix(1, 0, 0, -1, -214.62, 163.84)" xlink:href="#未命名的渐变_67"/></defs><title>Silo with straight ladder（直梯筒仓）</title><g id="图层_2" data-name="图层 2"><g id="图层_104" data-name="图层 104"><g id="Silo_with_straight_ladder_直梯筒仓_" data-name="Silo with straight ladder（直梯筒仓）"><rect class="cls-1" x="23.65" y="26.45" width="19.19" height="2.89"/><rect class="cls-2" x="4.21" y="18.12" width="57.53" height="127.24"/><rect class="cls-3" x="3.86" y="44.75" width="57.88" height="1.71" transform="translate(65.61 91.22) rotate(180)"/><rect class="cls-4" x="5.02" y="12.54" width="56" height="5.58" transform="translate(66.04 30.66) rotate(180)"/><path class="cls-5" d="M4.35,10.89H61.74V9.23S57,0,33,0C10.08,0,4.35,9.23,4.35,9.23Z"/><rect class="cls-6" x="4.05" y="79.67" width="57.88" height="1.71" transform="translate(65.98 161.05) rotate(180)"/><rect class="cls-7" x="4.05" y="114.19" width="57.88" height="1.71" transform="translate(65.98 230.09) rotate(180)"/><rect class="cls-8" y="143.95" width="65.91" height="5.36" rx="0.7" transform="translate(65.91 293.25) rotate(180)"/><rect class="cls-9" x="3.41" y="9.23" width="59.46" height="3.31" rx="0.43" transform="translate(66.28 21.77) rotate(180)"/><rect class="cls-10" x="23.4" y="42.72" width="19.19" height="2.89"/><rect class="cls-11" x="23.21" y="58.93" width="19.19" height="2.89"/><rect class="cls-12" x="23.03" y="75.14" width="19.19" height="2.89"/><rect class="cls-13" x="22.84" y="91.36" width="19.19" height="2.89"/><rect class="cls-14" x="22.65" y="107.57" width="19.19" height="2.89"/><rect class="cls-15" x="22.47" y="123.78" width="19.19" height="2.89"/><rect class="cls-16" x="22.28" y="140" width="19.19" height="2.89"/><rect class="cls-17" x="21.67" y="14.95" width="3.27" height="134.5" rx="0.46" transform="translate(46.62 164.41) rotate(180)"/><rect class="cls-18" x="41.2" y="14.67" width="3.27" height="134.5" rx="0.46" transform="translate(85.67 163.84) rotate(-180)"/></g></g></g></svg>