<svg xmlns="http://www.w3.org/2000/svg" xmlns:xlink="http://www.w3.org/1999/xlink" viewBox="0 0 65.26 149.4"><defs><style>.cls-1{fill:url(#未命名的渐变_105);}.cls-2{fill:url(#未命名的渐变_67);}.cls-3{fill:url(#未命名的渐变_105-2);}.cls-4{fill:url(#未命名的渐变_105-3);}.cls-5{fill:url(#未命名的渐变_67-2);}.cls-6{fill:url(#未命名的渐变_67-3);}.cls-7{fill:url(#未命名的渐变_67-4);}.cls-8{fill:url(#未命名的渐变_67-5);}.cls-9{fill:url(#未命名的渐变_67-6);}.cls-10{fill:url(#未命名的渐变_67-7);}.cls-11{fill:url(#未命名的渐变_67-8);}.cls-12{fill:url(#未命名的渐变_67-9);}.cls-13{fill:url(#未命名的渐变_67-10);}.cls-14{fill:url(#未命名的渐变_67-11);}.cls-15{fill:url(#未命名的渐变_67-12);}.cls-16{fill:url(#未命名的渐变_67-13);}.cls-17{fill:url(#未命名的渐变_67-14);}.cls-18{fill:url(#未命名的渐变_67-15);}.cls-19{fill:url(#未命名的渐变_67-16);}.cls-20{fill:url(#未命名的渐变_67-17);}.cls-21{fill:url(#未命名的渐变_67-18);}.cls-22{fill:url(#未命名的渐变_67-19);}.cls-23{fill:url(#未命名的渐变_67-20);}.cls-24{fill:url(#未命名的渐变_67-21);}.cls-25{fill:url(#未命名的渐变_67-22);}.cls-26{fill:url(#未命名的渐变_67-23);}.cls-27{fill:url(#未命名的渐变_67-24);}.cls-28{fill:url(#未命名的渐变_67-25);}.cls-29{fill:url(#未命名的渐变_67-26);}.cls-30{fill:url(#未命名的渐变_67-27);}.cls-31{fill:url(#未命名的渐变_67-28);}.cls-32{fill:url(#未命名的渐变_67-29);}.cls-33{fill:url(#未命名的渐变_67-30);}.cls-34{fill:url(#未命名的渐变_67-31);}.cls-35{fill:url(#未命名的渐变_67-32);}.cls-36{fill:url(#未命名的渐变_67-33);}.cls-37{fill:url(#未命名的渐变_67-34);}.cls-38{fill:url(#未命名的渐变_67-35);}.cls-39{fill:url(#未命名的渐变_67-36);}.cls-40{fill:url(#未命名的渐变_67-37);}.cls-41{fill:url(#未命名的渐变_67-38);}.cls-42{fill:url(#未命名的渐变_67-39);}.cls-43{fill:url(#未命名的渐变_67-40);}.cls-44{fill:url(#未命名的渐变_67-41);}.cls-45{fill:url(#未命名的渐变_67-42);}.cls-46{fill:url(#未命名的渐变_67-43);}.cls-47{fill:url(#未命名的渐变_67-44);}.cls-48{fill:url(#未命名的渐变_67-45);}.cls-49{fill:url(#未命名的渐变_67-46);}.cls-50{fill:url(#未命名的渐变_67-47);}.cls-51{opacity:0.2;}</style><linearGradient id="未命名的渐变_105" x1="-715.17" y1="81.79" x2="-658.21" y2="81.79" gradientTransform="matrix(-1, 0, 0, 1, -654.03, 0)" gradientUnits="userSpaceOnUse"><stop offset="0" stop-color="#e2e2e2"/><stop offset="0.03" stop-color="#d0d0d0"/><stop offset="0.06" stop-color="#bcbcbc"/><stop offset="0.09" stop-color="#b5b5b5"/><stop offset="0.49" stop-color="#f6f6f6"/><stop offset="0.63" stop-color="#f3f3f3"/><stop offset="0.73" stop-color="#eaeaea"/><stop offset="0.82" stop-color="#dbdbdb"/><stop offset="0.9" stop-color="#c6c6c6"/><stop offset="0.97" stop-color="#aaa"/><stop offset="1" stop-color="#9b9b9b"/></linearGradient><linearGradient id="未命名的渐变_67" x1="-852.61" y1="45.64" x2="-909.92" y2="45.64" gradientTransform="matrix(1, 0, 0, -1, 913.75, 91.27)" gradientUnits="userSpaceOnUse"><stop offset="0" stop-color="#6b6b6b"/><stop offset="0.11" stop-color="#767676"/><stop offset="0.3" stop-color="#959595"/><stop offset="0.41" stop-color="#aaa"/><stop offset="0.56" stop-color="#ccc"/><stop offset="0.71" stop-color="#eaeaea"/><stop offset="0.8" stop-color="#f6f6f6"/><stop offset="0.83" stop-color="#ededed"/><stop offset="0.87" stop-color="#d4d4d4"/><stop offset="0.92" stop-color="#ababab"/><stop offset="0.98" stop-color="#737373"/><stop offset="0.99" stop-color="#666"/></linearGradient><linearGradient id="未命名的渐变_105-2" x1="-853.76" y1="15.34" x2="-909.21" y2="15.34" gradientTransform="matrix(1, 0, 0, -1, 914.17, 30.68)" xlink:href="#未命名的渐变_105"/><linearGradient id="未命名的渐变_105-3" x1="-853.09" y1="5.45" x2="-909.92" y2="5.45" gradientTransform="matrix(-1, 0, 0, 1, -848.79, 0)" xlink:href="#未命名的渐变_105"/><linearGradient id="未命名的渐变_67-2" x1="-852.8" y1="80.58" x2="-910.11" y2="80.58" gradientTransform="matrix(1, 0, 0, -1, 914.11, 161.15)" xlink:href="#未命名的渐变_67"/><linearGradient id="未命名的渐变_67-3" x1="-852.8" y1="115.12" x2="-910.11" y2="115.12" gradientTransform="matrix(1, 0, 0, -1, 914.11, 230.23)" xlink:href="#未命名的渐变_67"/><linearGradient id="未命名的渐变_67-4" x1="-848.79" y1="146.72" x2="-914.05" y2="146.72" gradientTransform="matrix(1, 0, 0, -1, 914.05, 293.43)" xlink:href="#未命名的渐变_67"/><linearGradient id="未命名的渐变_67-5" x1="3.08" y1="64.21" x2="3.84" y2="64.21" gradientTransform="matrix(1, 0, 0, 1, 0, 0)" xlink:href="#未命名的渐变_67"/><linearGradient id="未命名的渐变_67-6" x1="7.7" y1="66.64" x2="8.46" y2="66.64" gradientTransform="matrix(1, 0, 0, 1, 0, 0)" xlink:href="#未命名的渐变_67"/><linearGradient id="未命名的渐变_67-7" x1="12.59" y1="69.34" x2="13.35" y2="69.34" gradientTransform="matrix(1, 0, 0, 1, 0, 0)" xlink:href="#未命名的渐变_67"/><linearGradient id="未命名的渐变_67-8" x1="17.63" y1="71.77" x2="18.39" y2="71.77" gradientTransform="matrix(1, 0, 0, 1, 0, 0)" xlink:href="#未命名的渐变_67"/><linearGradient id="未命名的渐变_67-9" x1="22.43" y1="74.85" x2="23.19" y2="74.85" gradientTransform="matrix(1, 0, 0, 1, 0, 0)" xlink:href="#未命名的渐变_67"/><linearGradient id="未命名的渐变_67-10" x1="27.62" y1="77.93" x2="28.38" y2="77.93" gradientTransform="matrix(1, 0, 0, 1, 0, 0)" xlink:href="#未命名的渐变_67"/><linearGradient id="未命名的渐变_67-11" x1="32.42" y1="81" x2="33.19" y2="81" gradientTransform="matrix(1, 0, 0, 1, 0, 0)" xlink:href="#未命名的渐变_67"/><linearGradient id="未命名的渐变_67-12" x1="37.23" y1="84.08" x2="37.99" y2="84.08" gradientTransform="matrix(1, 0, 0, 1, 0, 0)" xlink:href="#未命名的渐变_67"/><linearGradient id="未命名的渐变_67-13" x1="42.03" y1="87.16" x2="42.8" y2="87.16" gradientTransform="matrix(1, 0, 0, 1, 0, 0)" xlink:href="#未命名的渐变_67"/><linearGradient id="未命名的渐变_67-14" x1="47.35" y1="89.84" x2="48.11" y2="89.84" gradientTransform="matrix(1, 0, 0, 1, 0, 0)" xlink:href="#未命名的渐变_67"/><linearGradient id="未命名的渐变_67-15" x1="52.01" y1="92.19" x2="52.77" y2="92.19" gradientTransform="matrix(1, 0, 0, 1, 0, 0)" xlink:href="#未命名的渐变_67"/><linearGradient id="未命名的渐变_67-16" x1="56.67" y1="94.54" x2="57.43" y2="94.54" gradientTransform="matrix(1, 0, 0, 1, 0, 0)" xlink:href="#未命名的渐变_67"/><linearGradient id="未命名的渐变_67-17" x1="-816.14" y1="291.8" x2="-816.14" y2="326.62" gradientTransform="matrix(-0.44, 0, 0, 1.48, -328.32, -363.67)" xlink:href="#未命名的渐变_67"/><linearGradient id="未命名的渐变_67-18" x1="-1738.41" y1="289.45" x2="-1738.41" y2="324.27" gradientTransform="matrix(-0.15, 0, 0, 1.48, -221.32, -366.03)" xlink:href="#未命名的渐变_67"/><linearGradient id="未命名的渐变_67-19" x1="3.08" y1="22.03" x2="3.84" y2="22.03" gradientTransform="matrix(1, 0, 0, 1, 0, 0)" xlink:href="#未命名的渐变_67"/><linearGradient id="未命名的渐变_67-20" x1="7.7" y1="24.46" x2="8.46" y2="24.46" gradientTransform="matrix(1, 0, 0, 1, 0, 0)" xlink:href="#未命名的渐变_67"/><linearGradient id="未命名的渐变_67-21" x1="12.59" y1="27.16" x2="13.35" y2="27.16" gradientTransform="matrix(1, 0, 0, 1, 0, 0)" xlink:href="#未命名的渐变_67"/><linearGradient id="未命名的渐变_67-22" x1="17.63" y1="29.59" x2="18.39" y2="29.59" gradientTransform="matrix(1, 0, 0, 1, 0, 0)" xlink:href="#未命名的渐变_67"/><linearGradient id="未命名的渐变_67-23" x1="22.43" y1="32.67" x2="23.19" y2="32.67" gradientTransform="matrix(1, 0, 0, 1, 0, 0)" xlink:href="#未命名的渐变_67"/><linearGradient id="未命名的渐变_67-24" x1="27.62" y1="35.75" x2="28.38" y2="35.75" gradientTransform="matrix(1, 0, 0, 1, 0, 0)" xlink:href="#未命名的渐变_67"/><linearGradient id="未命名的渐变_67-25" x1="32.42" y1="38.82" x2="33.19" y2="38.82" gradientTransform="matrix(1, 0, 0, 1, 0, 0)" xlink:href="#未命名的渐变_67"/><linearGradient id="未命名的渐变_67-26" x1="37.23" y1="41.9" x2="37.99" y2="41.9" gradientTransform="matrix(1, 0, 0, 1, 0, 0)" xlink:href="#未命名的渐变_67"/><linearGradient id="未命名的渐变_67-27" x1="42.03" y1="44.98" x2="42.8" y2="44.98" gradientTransform="matrix(1, 0, 0, 1, 0, 0)" xlink:href="#未命名的渐变_67"/><linearGradient id="未命名的渐变_67-28" x1="47.35" y1="47.66" x2="48.11" y2="47.66" gradientTransform="matrix(1, 0, 0, 1, 0, 0)" xlink:href="#未命名的渐变_67"/><linearGradient id="未命名的渐变_67-29" x1="52.01" y1="50.01" x2="52.77" y2="50.01" gradientTransform="matrix(1, 0, 0, 1, 0, 0)" xlink:href="#未命名的渐变_67"/><linearGradient id="未命名的渐变_67-30" x1="56.67" y1="52.36" x2="57.43" y2="52.36" gradientTransform="matrix(1, 0, 0, 1, 0, 0)" xlink:href="#未命名的渐变_67"/><linearGradient id="未命名的渐变_67-31" x1="-898.73" y1="277.52" x2="-898.73" y2="312.35" gradientTransform="matrix(-0.44, 0, 0, 1.48, -364.85, -384.76)" xlink:href="#未命名的渐变_67"/><linearGradient id="未命名的渐变_67-32" x1="-1989.05" y1="275.18" x2="-1989.05" y2="310" gradientTransform="matrix(-0.15, 0, 0, 1.48, -257.85, -387.12)" xlink:href="#未命名的渐变_67"/><linearGradient id="未命名的渐变_67-33" x1="2.9" y1="106.35" x2="3.66" y2="106.35" gradientTransform="matrix(1, 0, 0, 1, 0, 0)" xlink:href="#未命名的渐变_67"/><linearGradient id="未命名的渐变_67-34" x1="7.52" y1="108.78" x2="8.28" y2="108.78" gradientTransform="matrix(1, 0, 0, 1, 0, 0)" xlink:href="#未命名的渐变_67"/><linearGradient id="未命名的渐变_67-35" x1="12.41" y1="111.48" x2="13.17" y2="111.48" gradientTransform="matrix(1, 0, 0, 1, 0, 0)" xlink:href="#未命名的渐变_67"/><linearGradient id="未命名的渐变_67-36" x1="17.45" y1="113.91" x2="18.21" y2="113.91" gradientTransform="matrix(1, 0, 0, 1, 0, 0)" xlink:href="#未命名的渐变_67"/><linearGradient id="未命名的渐变_67-37" x1="22.25" y1="116.98" x2="23.01" y2="116.98" gradientTransform="matrix(1, 0, 0, 1, 0, 0)" xlink:href="#未命名的渐变_67"/><linearGradient id="未命名的渐变_67-38" x1="27.44" y1="120.06" x2="28.2" y2="120.06" gradientTransform="matrix(1, 0, 0, 1, 0, 0)" xlink:href="#未命名的渐变_67"/><linearGradient id="未命名的渐变_67-39" x1="32.24" y1="123.14" x2="33.01" y2="123.14" gradientTransform="matrix(1, 0, 0, 1, 0, 0)" xlink:href="#未命名的渐变_67"/><linearGradient id="未命名的渐变_67-40" x1="37.05" y1="126.22" x2="37.81" y2="126.22" gradientTransform="matrix(1, 0, 0, 1, 0, 0)" xlink:href="#未命名的渐变_67"/><linearGradient id="未命名的渐变_67-41" x1="41.85" y1="129.29" x2="42.61" y2="129.29" gradientTransform="matrix(1, 0, 0, 1, 0, 0)" xlink:href="#未命名的渐变_67"/><linearGradient id="未命名的渐变_67-42" x1="47.16" y1="131.97" x2="47.93" y2="131.97" gradientTransform="matrix(1, 0, 0, 1, 0, 0)" xlink:href="#未命名的渐变_67"/><linearGradient id="未命名的渐变_67-43" x1="51.82" y1="134.32" x2="52.59" y2="134.32" gradientTransform="matrix(1, 0, 0, 1, 0, 0)" xlink:href="#未命名的渐变_67"/><linearGradient id="未命名的渐变_67-44" x1="56.49" y1="136.67" x2="57.25" y2="136.67" gradientTransform="matrix(1, 0, 0, 1, 0, 0)" xlink:href="#未命名的渐变_67"/><linearGradient id="未命名的渐变_67-45" x1="-733.44" y1="305.95" x2="-733.44" y2="340.77" gradientTransform="matrix(-0.44, 0, 0, 1.48, -291.93, -342.44)" xlink:href="#未命名的渐变_67"/><linearGradient id="未命名的渐变_67-46" x1="-1487.4" y1="303.61" x2="-1487.4" y2="338.43" gradientTransform="matrix(-0.15, 0, 0, 1.48, -184.93, -344.81)" xlink:href="#未命名的渐变_67"/><linearGradient id="未命名的渐变_67-47" x1="-852.16" y1="10.89" x2="-911.04" y2="10.89" gradientTransform="matrix(1, 0, 0, -1, 914.41, 21.79)" xlink:href="#未命名的渐变_67"/></defs><title>Silo with spiral ladder（螺旋梯筒仓）</title><g id="图层_2" data-name="图层 2"><g id="图层_104" data-name="图层 104"><g id="Silo_with_spiral_ladder_螺旋梯筒仓_" data-name="Silo with spiral ladder（螺旋梯筒仓）"><rect class="cls-1" x="4.17" y="18.13" width="56.96" height="127.32"/><rect class="cls-2" x="3.82" y="44.78" width="57.31" height="1.71" transform="translate(64.96 91.27) rotate(180)"/><rect class="cls-3" x="4.97" y="12.55" width="55.45" height="5.58" transform="translate(65.38 30.68) rotate(180)"/><path class="cls-4" d="M4.3,10.89H61.13V9.24S56.4,0,32.65,0C10,0,4.3,9.24,4.3,9.24Z"/><rect class="cls-5" x="4.01" y="79.72" width="57.31" height="1.71" transform="translate(65.33 161.15) rotate(180)"/><rect class="cls-6" x="4.01" y="114.26" width="57.31" height="1.71" transform="translate(65.33 230.23) rotate(180)"/><rect class="cls-7" y="144.03" width="65.26" height="5.36" rx="0.72" transform="translate(65.26 293.43) rotate(-180)"/><rect class="cls-8" x="2.81" y="61.13" width="1.02" height="6.16"/><rect class="cls-9" x="7.43" y="63.56" width="1.02" height="6.16"/><rect class="cls-10" x="12.32" y="66.26" width="1.02" height="6.16"/><rect class="cls-11" x="17.36" y="68.69" width="1.02" height="6.16"/><rect class="cls-12" x="22.16" y="71.77" width="1.02" height="6.16"/><rect class="cls-13" x="27.35" y="74.85" width="1.02" height="6.16"/><rect class="cls-14" x="32.15" y="77.93" width="1.02" height="6.16"/><rect class="cls-15" x="36.96" y="81" width="1.02" height="6.16"/><rect class="cls-16" x="41.76" y="84.08" width="1.02" height="6.16"/><rect class="cls-17" x="47.08" y="86.76" width="1.02" height="6.16"/><rect class="cls-18" x="51.74" y="89.11" width="1.02" height="6.16"/><rect class="cls-19" x="56.4" y="91.46" width="1.02" height="6.16"/><rect class="cls-20" x="30.77" y="49.26" width="3.78" height="68.39" transform="translate(-55.95 70.02) rotate(-60)"/><rect class="cls-21" x="31.41" y="43.43" width="1.25" height="68.39" transform="translate(-51.21 66.55) rotate(-60)"/><rect class="cls-22" x="2.81" y="18.95" width="1.02" height="6.16"/><rect class="cls-23" x="7.43" y="21.38" width="1.02" height="6.16"/><rect class="cls-24" x="12.32" y="24.08" width="1.02" height="6.16"/><rect class="cls-25" x="17.36" y="26.51" width="1.02" height="6.16"/><rect class="cls-26" x="22.16" y="29.59" width="1.02" height="6.16"/><rect class="cls-27" x="27.35" y="32.67" width="1.02" height="6.16"/><rect class="cls-28" x="32.15" y="35.75" width="1.02" height="6.16"/><rect class="cls-29" x="36.96" y="38.82" width="1.02" height="6.16"/><rect class="cls-30" x="41.76" y="41.9" width="1.02" height="6.16"/><rect class="cls-31" x="47.08" y="44.58" width="1.02" height="6.16"/><rect class="cls-32" x="51.74" y="46.93" width="1.02" height="6.16"/><rect class="cls-33" x="56.4" y="49.28" width="1.02" height="6.16"/><rect class="cls-34" x="30.77" y="7.08" width="3.78" height="68.39" transform="translate(-19.42 48.93) rotate(-60)"/><rect class="cls-35" x="31.41" y="1.25" width="1.25" height="68.39" transform="translate(-14.68 45.46) rotate(-60)"/><rect class="cls-36" x="2.63" y="103.27" width="1.02" height="6.16"/><rect class="cls-37" x="7.25" y="105.7" width="1.02" height="6.16"/><rect class="cls-38" x="12.14" y="108.4" width="1.02" height="6.16"/><rect class="cls-39" x="17.18" y="110.83" width="1.02" height="6.16"/><rect class="cls-40" x="21.98" y="113.91" width="1.02" height="6.16"/><rect class="cls-41" x="27.17" y="116.98" width="1.02" height="6.16"/><rect class="cls-42" x="31.97" y="120.06" width="1.02" height="6.16"/><rect class="cls-43" x="36.78" y="123.14" width="1.02" height="6.16"/><rect class="cls-44" x="41.58" y="126.22" width="1.02" height="6.16"/><rect class="cls-45" x="46.89" y="128.9" width="1.02" height="6.16"/><rect class="cls-46" x="51.55" y="131.25" width="1.02" height="6.16"/><rect class="cls-47" x="56.22" y="133.6" width="1.02" height="6.16"/><rect class="cls-48" x="30.59" y="91.4" width="3.78" height="68.39" transform="translate(-92.53 90.92) rotate(-60)"/><rect class="cls-49" x="31.22" y="85.56" width="1.25" height="68.39" transform="translate(-87.79 87.46) rotate(-60)"/><rect class="cls-50" x="3.37" y="9.24" width="58.88" height="3.31" rx="0.44" transform="translate(65.62 21.79) rotate(180)"/></g></g></g></svg>