<svg xmlns="http://www.w3.org/2000/svg" xmlns:xlink="http://www.w3.org/1999/xlink" viewBox="0 0 150 83.03"><defs><style>.cls-1{fill:url(#未命名的渐变_13);}.cls-2{fill:url(#未命名的渐变_13-2);}.cls-3{fill:url(#未命名的渐变_13-3);}.cls-4{fill:url(#未命名的渐变_13-4);}.cls-19,.cls-5{opacity:0.2;}.cls-5{fill:url(#未命名的渐变_166);}.cls-6{fill:url(#未命名的渐变_13-5);}.cls-7{opacity:0.5;}.cls-8{fill:url(#未命名的渐变_184);}.cls-9{fill:url(#未命名的渐变_184-2);}.cls-10{fill:url(#未命名的渐变_184-3);}.cls-11{fill:url(#未命名的渐变_184-4);}.cls-12{fill:url(#未命名的渐变_184-5);}.cls-13{fill:url(#未命名的渐变_184-6);}.cls-14{fill:url(#未命名的渐变_184-7);}.cls-15{fill:url(#未命名的渐变_184-8);}.cls-16{fill:url(#未命名的渐变_184-9);}.cls-17{fill:url(#未命名的渐变_184-10);}.cls-18{fill:url(#未命名的渐变_184-11);}</style><linearGradient id="未命名的渐变_13" x1="-30.43" y1="83.03" x2="-30.43" gradientTransform="matrix(1, 0, 0, -1, 70.71, 83.03)" gradientUnits="userSpaceOnUse"><stop offset="0" stop-color="#a9b1bb"/><stop offset="0.06" stop-color="#5d6166"/><stop offset="0.78" stop-color="#e2eaf2"/><stop offset="0.93" stop-color="#9ba1ab"/><stop offset="1" stop-color="#767b82"/></linearGradient><linearGradient id="未命名的渐变_13-2" x1="-1.9" y1="61.59" x2="-1.9" y2="21.44" gradientTransform="matrix(1, 0, 0, -1, 13.65, 83.03)" xlink:href="#未命名的渐变_13"/><linearGradient id="未命名的渐变_13-3" x1="-83.22" y1="61.59" x2="-83.22" y2="21.44" gradientTransform="matrix(1, 0, 0, -1, 176.29, 83.03)" xlink:href="#未命名的渐变_13"/><linearGradient id="未命名的渐变_13-4" x1="-136.56" y1="48.33" x2="-136.56" y2="36.19" gradientTransform="matrix(1, 0, 0, -1, 282.97, 84.52)" xlink:href="#未命名的渐变_13"/><linearGradient id="未命名的渐变_166" x1="4.57" y1="41.52" x2="-8.36" y2="41.52" gradientTransform="matrix(1, 0, 0, -1, 13.65, 83.03)" gradientUnits="userSpaceOnUse"><stop offset="0" stop-color="#2e3033"/><stop offset="1" stop-color="#9ba1ab" stop-opacity="0"/></linearGradient><linearGradient id="未命名的渐变_13-5" x1="7.2" y1="61.59" x2="7.2" y2="21.44" gradientTransform="matrix(-1, 0, 0, 1, 9.85, 0)" xlink:href="#未命名的渐变_13"/><linearGradient id="未命名的渐变_184" x1="488.43" y1="32.05" x2="488.43" y2="52.46" gradientTransform="matrix(1, 0, 0, -1, -355.18, 84.52)" gradientUnits="userSpaceOnUse"><stop offset="0" stop-color="#767b82"/><stop offset="0.07" stop-color="#9ba1ab"/><stop offset="0.22" stop-color="#e2eaf2"/><stop offset="0.94" stop-color="#5d6166"/><stop offset="1" stop-color="#a9b1bb"/></linearGradient><linearGradient id="未命名的渐变_184-2" x1="486.17" y1="42.26" x2="486.59" y2="42.26" gradientTransform="matrix(1, 0, 0, -1, -351.08, 84.52)" xlink:href="#未命名的渐变_184"/><linearGradient id="未命名的渐变_184-3" x1="484.58" y1="42.26" x2="485" y2="42.26" gradientTransform="matrix(1, 0, 0, -1, -347.89, 84.52)" xlink:href="#未命名的渐变_184"/><linearGradient id="未命名的渐变_184-4" x1="482.98" y1="42.26" x2="483.4" y2="42.26" gradientTransform="matrix(1, 0, 0, -1, -344.69, 84.52)" xlink:href="#未命名的渐变_184"/><linearGradient id="未命名的渐变_184-5" x1="481.38" y1="42.26" x2="481.8" y2="42.26" gradientTransform="matrix(1, 0, 0, -1, -341.5, 84.52)" xlink:href="#未命名的渐变_184"/><linearGradient id="未命名的渐变_184-6" x1="487.77" y1="42.26" x2="488.19" y2="42.26" gradientTransform="matrix(1, 0, 0, -1, -354.27, 84.52)" xlink:href="#未命名的渐变_184"/><linearGradient id="未命名的渐变_184-7" x1="489.37" y1="42.26" x2="489.79" y2="42.26" gradientTransform="matrix(1, 0, 0, -1, -357.47, 84.52)" xlink:href="#未命名的渐变_184"/><linearGradient id="未命名的渐变_184-8" x1="490.96" y1="42.26" x2="491.38" y2="42.26" gradientTransform="matrix(1, 0, 0, -1, -360.66, 84.52)" xlink:href="#未命名的渐变_184"/><linearGradient id="未命名的渐变_184-9" x1="492.56" y1="42.26" x2="492.98" y2="42.26" gradientTransform="matrix(1, 0, 0, -1, -363.85, 84.52)" xlink:href="#未命名的渐变_184"/><linearGradient id="未命名的渐变_184-10" x1="494.16" y1="42.26" x2="494.57" y2="42.26" gradientTransform="matrix(1, 0, 0, -1, -367.05, 84.52)" xlink:href="#未命名的渐变_184"/><linearGradient id="未命名的渐变_184-11" x1="495.75" y1="42.26" x2="496.17" y2="42.26" gradientTransform="matrix(1, 0, 0, -1, -370.24, 84.52)" xlink:href="#未命名的渐变_184"/></defs><title>Simple flow rate controller(简单流量控制器)</title><g id="图层_2" data-name="图层 2"><g id="图层_16" data-name="图层 16"><g id="Simple_flow_rate_controller_简单流量控制器_" data-name="Simple flow rate controller(简单流量控制器)"><rect class="cls-1" x="18.1" width="44.37" height="83.03" transform="translate(80.56 83.03) rotate(-180)"/><rect class="cls-2" x="5.28" y="21.44" width="12.93" height="40.15" transform="translate(23.5 83.03) rotate(-180)"/><rect class="cls-3" x="62.47" y="21.44" width="61.21" height="40.15" transform="translate(186.14 83.03) rotate(-180)"/><rect class="cls-4" x="142.82" y="36.19" width="7.18" height="12.14" transform="translate(292.82 84.52) rotate(-180)"/><rect class="cls-5" x="5.28" y="21.44" width="12.93" height="40.15" transform="translate(23.5 83.03) rotate(-180)"/><polygon class="cls-6" points="0 55.73 5.31 61.59 5.31 21.44 0 27.31 0 55.73"/><g class="cls-7"><rect x="27.19" y="0.17" width="0.89" height="82.86"/></g><rect class="cls-8" x="123.67" y="32.05" width="19.15" height="20.41" transform="translate(266.5 84.52) rotate(-180)"/><rect class="cls-9" x="135.09" y="31.47" width="0.42" height="21.57" rx="0.19" transform="translate(270.6 84.52) rotate(-180)"/><rect class="cls-10" x="136.69" y="31.47" width="0.42" height="21.57" rx="0.19" transform="translate(273.8 84.52) rotate(-180)"/><rect class="cls-11" x="138.28" y="31.47" width="0.42" height="21.57" rx="0.19" transform="translate(276.99 84.52) rotate(-180)"/><rect class="cls-12" x="139.88" y="31.47" width="0.42" height="21.57" rx="0.19" transform="translate(280.18 84.52) rotate(-180)"/><rect class="cls-13" x="133.49" y="31.47" width="0.42" height="21.57" rx="0.19" transform="translate(267.41 84.52) rotate(-180)"/><rect class="cls-14" x="131.9" y="31.47" width="0.42" height="21.57" rx="0.19" transform="translate(264.22 84.52) rotate(-180)"/><rect class="cls-15" x="130.3" y="31.47" width="0.42" height="21.57" rx="0.19" transform="translate(261.02 84.52) rotate(180)"/><rect class="cls-16" x="128.7" y="31.47" width="0.42" height="21.57" rx="0.19" transform="translate(257.83 84.52) rotate(-180)"/><rect class="cls-17" x="127.11" y="31.47" width="0.42" height="21.57" rx="0.19" transform="translate(254.64 84.52) rotate(180)"/><rect class="cls-18" x="125.51" y="31.47" width="0.42" height="21.57" rx="0.19" transform="translate(251.44 84.52) rotate(180)"/></g></g></g></svg>