<svg xmlns="http://www.w3.org/2000/svg" xmlns:xlink="http://www.w3.org/1999/xlink" viewBox="0 0 150 72.55"><defs><style>.cls-1{fill:url(#未命名的渐变_121);}.cls-2{fill:url(#未命名的渐变_103);}.cls-3{fill:url(#未命名的渐变_103-2);}.cls-4{fill:url(#未命名的渐变_103-3);}.cls-5{fill:url(#未命名的渐变_121-2);}.cls-6{fill:url(#未命名的渐变_103-4);}.cls-7{fill:url(#未命名的渐变_103-5);}.cls-8{fill:url(#未命名的渐变_103-6);}.cls-9{fill:url(#未命名的渐变_103-7);}.cls-10{fill:url(#未命名的渐变_103-8);}.cls-11{opacity:0.3;fill:url(#未命名的渐变_105);}.cls-12{fill:url(#未命名的渐变_173);}.cls-13{fill:url(#未命名的渐变_103-9);}.cls-14{fill:url(#未命名的渐变_173-2);}.cls-15{fill:url(#未命名的渐变_103-10);}.cls-16{fill:url(#未命名的渐变_103-11);}.cls-17{fill:url(#未命名的渐变_193);}.cls-18{fill:none;stroke:#5b5f66;stroke-miterlimit:10;stroke-width:0.25px;}.cls-19{fill:url(#未命名的渐变_173-3);}.cls-20{opacity:0.2;}</style><linearGradient id="未命名的渐变_121" x1="78.61" y1="37.89" x2="78.61" y2="29.9" gradientUnits="userSpaceOnUse"><stop offset="0" stop-color="#a9b1bb"/><stop offset="0.09" stop-color="#61666b"/><stop offset="0.18" stop-color="#696e73"/><stop offset="0.32" stop-color="#7e8489"/><stop offset="0.49" stop-color="#a1a7ae"/><stop offset="0.69" stop-color="#d1d8e0"/><stop offset="0.75" stop-color="#e2eaf2"/><stop offset="0.93" stop-color="#9ba1ab"/><stop offset="1" stop-color="#767b82"/></linearGradient><linearGradient id="未命名的渐变_103" x1="89.87" y1="9.34" x2="89.87" y2="1.35" gradientUnits="userSpaceOnUse"><stop offset="0" stop-color="#7a8088"/><stop offset="0.09" stop-color="#2d2f33"/><stop offset="0.15" stop-color="#35373b"/><stop offset="0.24" stop-color="#4a4d51"/><stop offset="0.35" stop-color="#6d7176"/><stop offset="0.48" stop-color="#9da3a9"/><stop offset="0.62" stop-color="#d7dfe6"/><stop offset="0.93" stop-color="#6d7177"/><stop offset="1" stop-color="#5c6067"/></linearGradient><linearGradient id="未命名的渐变_103-2" x1="95.5" y1="7.75" x2="95.5" y2="2.94" xlink:href="#未命名的渐变_103"/><linearGradient id="未命名的渐变_103-3" x1="92.33" y1="9.34" x2="92.33" y2="1.35" xlink:href="#未命名的渐变_103"/><linearGradient id="未命名的渐变_121-2" x1="69.88" y1="41.51" x2="69.88" y2="26.27" xlink:href="#未命名的渐变_121"/><linearGradient id="未命名的渐变_103-4" x1="64.76" y1="53.06" x2="64.76" y2="14.73" xlink:href="#未命名的渐变_103"/><linearGradient id="未命名的渐变_103-5" x1="9.38" y1="53.06" x2="9.38" y2="14.73" xlink:href="#未命名的渐变_103"/><linearGradient id="未命名的渐变_103-6" x1="6.13" y1="20.06" x2="6.13" y2="17.11" xlink:href="#未命名的渐变_103"/><linearGradient id="未命名的渐变_103-7" x1="6.13" y1="35.37" x2="6.13" y2="32.42" xlink:href="#未命名的渐变_103"/><linearGradient id="未命名的渐变_103-8" x1="6.13" y1="50.67" x2="6.13" y2="47.72" xlink:href="#未命名的渐变_103"/><linearGradient id="未命名的渐变_105" x1="11.55" y1="33.89" x2="31.32" y2="33.89" gradientUnits="userSpaceOnUse"><stop offset="0" stop-color="#2e3033"/><stop offset="1" stop-color="#9ba1ab" stop-opacity="0"/></linearGradient><linearGradient id="未命名的渐变_173" x1="21.45" y1="52.34" x2="24.29" y2="52.34" gradientTransform="translate(7.41 18.79)" gradientUnits="userSpaceOnUse"><stop offset="0" stop-color="#767b82"/><stop offset="0.01" stop-color="#5c6066"/><stop offset="0.88" stop-color="#7a7d80"/><stop offset="0.94" stop-color="#767b82"/><stop offset="1" stop-color="#b9c0cc"/></linearGradient><linearGradient id="未命名的渐变_103-9" x1="18.98" y1="59.65" x2="41.58" y2="59.65" xlink:href="#未命名的渐变_103"/><linearGradient id="未命名的渐变_173-2" x1="21.45" y1="104.08" x2="24.29" y2="104.08" gradientTransform="translate(59.15 -32.95)" xlink:href="#未命名的渐变_173"/><linearGradient id="未命名的渐变_103-10" x1="70.72" y1="59.65" x2="93.32" y2="59.65" xlink:href="#未命名的渐变_103"/><linearGradient id="未命名的渐变_103-11" x1="99.36" y1="34.94" x2="109.91" y2="34.94" gradientTransform="matrix(1, 0, 0, -1, 0, 47.85)" xlink:href="#未命名的渐变_103"/><linearGradient id="未命名的渐变_193" y1="33.89" x2="7.21" y2="33.89" gradientUnits="userSpaceOnUse"><stop offset="0" stop-color="#b9c0cc"/><stop offset="0.06" stop-color="#767b82"/><stop offset="0.12" stop-color="#7a7d80"/><stop offset="0.99" stop-color="#5c6066"/><stop offset="1" stop-color="#767b82"/></linearGradient><linearGradient id="未命名的渐变_173-3" x1="104.63" y1="10.69" x2="104.63" y2="0" gradientTransform="matrix(1, 0, 0, 1, 0, 0)" xlink:href="#未命名的渐变_173"/></defs><title>Simple filter 1(简易滤波器1)</title><g id="图层_2" data-name="图层 2"><g id="图层_6" data-name="图层 6"><g id="Simple_filter_1_简易滤波器1_" data-name="Simple filter 1(简易滤波器1)"><rect class="cls-1" x="7.21" y="29.9" width="142.79" height="7.99"/><rect class="cls-2" x="88.27" y="1.35" width="3.18" height="7.99"/><rect class="cls-3" x="92.72" y="2.94" width="5.56" height="4.81"/><polygon class="cls-4" points="93.21 7.82 91.46 9.34 91.46 1.35 93.21 2.86 93.21 7.82"/><rect class="cls-5" x="7.21" y="26.27" width="125.33" height="15.24"/><rect class="cls-6" x="11.55" y="14.73" width="106.43" height="38.33"/><rect class="cls-7" x="7.21" y="14.73" width="4.33" height="38.33"/><rect class="cls-8" x="5.05" y="17.11" width="2.17" height="2.95"/><rect class="cls-9" x="5.05" y="32.42" width="2.17" height="2.95"/><rect class="cls-10" x="5.05" y="47.72" width="2.17" height="2.95"/><rect class="cls-11" x="11.55" y="14.73" width="19.78" height="38.33"/><rect class="cls-12" x="28.86" y="56.25" width="2.84" height="29.77" transform="translate(-40.85 101.41) rotate(-90)"/><path class="cls-13" d="M41.58,69.71H19V52.5s2.46-2.92,11.3-2.92,11.3,2.92,11.3,2.92Z"/><rect class="cls-14" x="80.6" y="56.25" width="2.84" height="29.77" transform="translate(10.89 153.15) rotate(-90)"/><path class="cls-15" d="M93.32,69.71H70.72V52.5s2.46-2.92,11.3-2.92,11.3,2.92,11.3,2.92Z"/><path class="cls-16" d="M109.91,7.63H99.36v7.66s1.14,2.91,5.27,2.91,5.28-2.91,5.28-2.91Z"/><polygon class="cls-17" points="7.21 44.29 0 44.29 0 23.5 7.21 23.5 7.21 25.88 2.39 25.88 2.39 41.9 7.21 41.9 7.21 44.29"/><line class="cls-18" x1="89.14" y1="9.34" x2="89.14" y2="1.35"/><polygon class="cls-19" points="109.37 0 99.9 0 96.92 3.13 96.92 7.56 99.9 10.69 109.37 10.69 112.35 7.56 112.35 3.13 109.37 0"/></g></g></g></svg>