<svg xmlns="http://www.w3.org/2000/svg" xmlns:xlink="http://www.w3.org/1999/xlink" viewBox="0 0 134.43 150"><defs><style>.cls-1{fill:url(#未命名的渐变_105);}.cls-2{fill:url(#未命名的渐变_105-2);}.cls-3{fill:url(#未命名的渐变_105-3);}.cls-4{fill:url(#未命名的渐变_105-4);}.cls-5{fill:url(#未命名的渐变_105-5);}.cls-6{fill:url(#未命名的渐变_105-6);}.cls-7{fill:url(#未命名的渐变_105-7);}.cls-8{fill:url(#未命名的渐变_105-8);}.cls-9{fill:url(#未命名的渐变_105-9);}.cls-10{fill:url(#未命名的渐变_105-10);}.cls-11{fill:url(#未命名的渐变_105-11);}.cls-12{fill:url(#未命名的渐变_105-12);}.cls-13{fill:url(#未命名的渐变_105-13);}.cls-14{fill:url(#未命名的渐变_105-14);}.cls-15{fill:url(#未命名的渐变_105-15);}.cls-16{fill:url(#未命名的渐变_105-16);}.cls-17{fill:url(#未命名的渐变_105-17);}.cls-18{fill:url(#未命名的渐变_105-18);}.cls-19{fill:url(#未命名的渐变_105-19);}.cls-20{fill:url(#未命名的渐变_105-20);}.cls-21{fill:url(#未命名的渐变_105-21);}.cls-22{fill:url(#未命名的渐变_105-22);}.cls-23{fill:url(#未命名的渐变_67);}.cls-24{fill:url(#未命名的渐变_67-2);}.cls-25{fill:url(#未命名的渐变_105-23);}.cls-26{fill:url(#未命名的渐变_105-24);}.cls-27{fill:url(#未命名的渐变_143);}.cls-28{fill:url(#未命名的渐变_105-25);}.cls-29{opacity:0.2;}</style><linearGradient id="未命名的渐变_105" x1="7.6" y1="66.66" x2="23.42" y2="66.66" gradientUnits="userSpaceOnUse"><stop offset="0" stop-color="#e2e2e2"/><stop offset="0.03" stop-color="#d0d0d0"/><stop offset="0.06" stop-color="#bcbcbc"/><stop offset="0.09" stop-color="#b5b5b5"/><stop offset="0.49" stop-color="#f6f6f6"/><stop offset="0.63" stop-color="#f3f3f3"/><stop offset="0.73" stop-color="#eaeaea"/><stop offset="0.82" stop-color="#dbdbdb"/><stop offset="0.9" stop-color="#c6c6c6"/><stop offset="0.97" stop-color="#aaa"/><stop offset="1" stop-color="#9b9b9b"/></linearGradient><linearGradient id="未命名的渐变_105-2" x1="114.36" y1="65.66" x2="121.76" y2="65.66" xlink:href="#未命名的渐变_105"/><linearGradient id="未命名的渐变_105-3" x1="102.45" y1="59.67" x2="133.43" y2="59.67" xlink:href="#未命名的渐变_105"/><linearGradient id="未命名的渐变_105-4" x1="103.86" y1="33.5" x2="132.18" y2="33.5" xlink:href="#未命名的渐变_105"/><linearGradient id="未命名的渐变_105-5" x1="107.55" y1="47.82" x2="128.42" y2="47.82" xlink:href="#未命名的渐变_105"/><linearGradient id="未命名的渐变_105-6" x1="112.5" y1="65.24" x2="112.5" y2="63.86" xlink:href="#未命名的渐变_105"/><linearGradient id="未命名的渐变_105-7" x1="112.5" y1="68.09" x2="112.5" y2="66.71" xlink:href="#未命名的渐变_105"/><linearGradient id="未命名的渐变_105-8" x1="-276.29" y1="-315.03" x2="-257.86" y2="-315.03" gradientTransform="translate(-149.09 -300.26) rotate(180)" xlink:href="#未命名的渐变_105"/><linearGradient id="未命名的渐变_105-9" x1="-188.72" y1="-137.05" x2="-188.72" y2="-137.18" gradientTransform="matrix(1, 0, 0, -3.25, 300.01, -429.04)" xlink:href="#未命名的渐变_105"/><linearGradient id="未命名的渐变_105-10" x1="-188.72" y1="-136.68" x2="-188.72" y2="-136.82" gradientTransform="matrix(1, 0, 0, -3.25, 301.2, -427.85)" xlink:href="#未命名的渐变_105"/><linearGradient id="未命名的渐变_105-11" x1="-188.72" y1="-137.42" x2="-188.72" y2="-137.56" gradientTransform="matrix(1, 0, 0, -3.25, 298.8, -430.25)" xlink:href="#未命名的渐变_105"/><linearGradient id="未命名的渐变_105-12" x1="-188.72" y1="-132.58" x2="-188.72" y2="-132.71" gradientTransform="matrix(1, 0, 0, -3.25, 314.53, -414.52)" xlink:href="#未命名的渐变_105"/><linearGradient id="未命名的渐变_105-13" x1="-188.72" y1="-132.95" x2="-188.72" y2="-133.08" gradientTransform="matrix(1, 0, 0, -3.25, 313.32, -415.73)" xlink:href="#未命名的渐变_105"/><linearGradient id="未命名的渐变_105-14" x1="-188.72" y1="-133.32" x2="-188.72" y2="-133.46" gradientTransform="matrix(1, 0, 0, -3.25, 312.11, -416.94)" xlink:href="#未命名的渐变_105"/><linearGradient id="未命名的渐变_105-15" x1="-188.72" y1="-133.7" x2="-188.72" y2="-133.83" gradientTransform="matrix(1, 0, 0, -3.25, 310.9, -418.15)" xlink:href="#未命名的渐变_105"/><linearGradient id="未命名的渐变_105-16" x1="-188.72" y1="-134.07" x2="-188.72" y2="-134.2" gradientTransform="matrix(1, 0, 0, -3.25, 309.69, -419.36)" xlink:href="#未命名的渐变_105"/><linearGradient id="未命名的渐变_105-17" x1="-188.72" y1="-134.44" x2="-188.72" y2="-134.57" gradientTransform="matrix(1, 0, 0, -3.25, 308.48, -420.57)" xlink:href="#未命名的渐变_105"/><linearGradient id="未命名的渐变_105-18" x1="-188.72" y1="-134.81" x2="-188.72" y2="-134.95" gradientTransform="matrix(1, 0, 0, -3.25, 307.27, -421.78)" xlink:href="#未命名的渐变_105"/><linearGradient id="未命名的渐变_105-19" x1="-188.72" y1="-135.19" x2="-188.72" y2="-135.32" gradientTransform="matrix(1, 0, 0, -3.25, 306.06, -422.99)" xlink:href="#未命名的渐变_105"/><linearGradient id="未命名的渐变_105-20" x1="-188.72" y1="-135.56" x2="-188.72" y2="-135.69" gradientTransform="matrix(1, 0, 0, -3.25, 304.85, -424.2)" xlink:href="#未命名的渐变_105"/><linearGradient id="未命名的渐变_105-21" x1="-188.72" y1="-135.93" x2="-188.72" y2="-136.07" gradientTransform="matrix(1, 0, 0, -3.25, 303.64, -425.41)" xlink:href="#未命名的渐变_105"/><linearGradient id="未命名的渐变_105-22" x1="-188.72" y1="-136.3" x2="-188.72" y2="-136.44" gradientTransform="matrix(1, 0, 0, -3.25, 302.43, -426.62)" xlink:href="#未命名的渐变_105"/><linearGradient id="未命名的渐变_67" x1="-713.26" y1="-224.72" x2="-693.87" y2="-224.72" gradientTransform="matrix(1, 0, 0, -3.25, 821.55, -703.85)" gradientUnits="userSpaceOnUse"><stop offset="0" stop-color="#6b6b6b"/><stop offset="0.11" stop-color="#767676"/><stop offset="0.3" stop-color="#959595"/><stop offset="0.41" stop-color="#aaa"/><stop offset="0.56" stop-color="#ccc"/><stop offset="0.71" stop-color="#eaeaea"/><stop offset="0.8" stop-color="#f6f6f6"/><stop offset="0.83" stop-color="#ededed"/><stop offset="0.87" stop-color="#d4d4d4"/><stop offset="0.92" stop-color="#ababab"/><stop offset="0.98" stop-color="#737373"/><stop offset="0.99" stop-color="#666"/></linearGradient><linearGradient id="未命名的渐变_67-2" x1="-712.79" y1="-230.39" x2="-694.31" y2="-230.39" gradientTransform="matrix(1, 0, 0, -3.25, 821.52, -740.64)" xlink:href="#未命名的渐变_67"/><linearGradient id="未命名的渐变_105-23" x1="-713.47" y1="-224.49" x2="-693.44" y2="-224.49" gradientTransform="matrix(1, 0, 0, -3.25, 821.33, -702.32)" xlink:href="#未命名的渐变_105"/><linearGradient id="未命名的渐变_105-24" x1="3.37" y1="111.83" x2="130.89" y2="111.83" xlink:href="#未命名的渐变_105"/><linearGradient id="未命名的渐变_143" x1="3.37" y1="76.41" x2="130.89" y2="76.41" gradientUnits="userSpaceOnUse"><stop offset="0" stop-color="#b7b7b7"/><stop offset="0.03" stop-color="#9b9d9d"/><stop offset="0.07" stop-color="#878b8b"/><stop offset="0.09" stop-color="#808484"/><stop offset="0.2" stop-color="#a3a6a6"/><stop offset="0.49" stop-color="#f6f6f6"/><stop offset="0.61" stop-color="#f3f3f3"/><stop offset="0.7" stop-color="#eaeaea"/><stop offset="0.77" stop-color="#dbdbdb"/><stop offset="0.83" stop-color="#c5c5c5"/><stop offset="0.9" stop-color="#aaa"/><stop offset="0.95" stop-color="#888"/><stop offset="1" stop-color="#666"/></linearGradient><linearGradient id="未命名的渐变_105-25" x1="0" y1="71.87" x2="134.43" y2="71.87" xlink:href="#未命名的渐变_105"/></defs><title>Simple tank system（简易油罐系统）</title><g id="图层_2" data-name="图层 2"><g id="图层_104" data-name="图层 104"><g id="Simple_tank_system_简易油罐系统_" data-name="Simple tank system（简易油罐系统）"><rect class="cls-1" x="7.6" y="63.76" width="15.82" height="5.8"/><rect class="cls-2" x="114.36" y="61.76" width="7.4" height="7.79"/><rect class="cls-3" x="102.45" y="57.57" width="30.98" height="4.19"/><rect class="cls-4" x="103.86" y="28.92" width="28.32" height="9.14"/><polygon class="cls-5" points="128.42 57.57 107.55 57.57 111.03 38.07 124.86 38.07 128.42 57.57"/><rect class="cls-6" x="110.64" y="63.86" width="3.72" height="1.38"/><rect class="cls-7" x="110.64" y="66.71" width="3.72" height="1.38"/><path class="cls-8" d="M108.77,1.13A36.25,36.25,0,0,1,118,0a38.78,38.78,0,0,1,9.22,1.13V26.38s-.66,3.15-9.22,3.15-9.22-3.15-9.22-3.15Z"/><rect class="cls-9" x="102.78" y="15.94" width="17.04" height="0.43" transform="translate(127.45 -95.14) rotate(90)"/><rect class="cls-10" x="103.97" y="15.94" width="17.04" height="0.43" transform="translate(128.64 -96.33) rotate(90)"/><rect class="cls-11" x="101.57" y="15.94" width="17.04" height="0.43" transform="translate(126.24 -93.93) rotate(90)"/><rect class="cls-12" x="117.3" y="15.94" width="17.04" height="0.43" transform="translate(141.97 -109.66) rotate(90)"/><rect class="cls-13" x="116.09" y="15.94" width="17.04" height="0.43" transform="translate(140.76 -108.45) rotate(90)"/><rect class="cls-14" x="114.88" y="15.94" width="17.04" height="0.43" transform="translate(139.55 -107.24) rotate(90)"/><rect class="cls-15" x="113.67" y="15.94" width="17.04" height="0.43" transform="translate(138.34 -106.03) rotate(90)"/><rect class="cls-16" x="112.46" y="15.94" width="17.04" height="0.43" transform="translate(137.13 -104.82) rotate(90)"/><rect class="cls-17" x="111.25" y="15.94" width="17.04" height="0.43" transform="translate(135.92 -103.61) rotate(90)"/><rect class="cls-18" x="110.04" y="15.94" width="17.04" height="0.43" transform="translate(134.71 -102.4) rotate(90)"/><rect class="cls-19" x="108.83" y="15.94" width="17.04" height="0.43" transform="translate(133.5 -101.19) rotate(90)"/><rect class="cls-20" x="107.62" y="15.94" width="17.04" height="0.43" transform="translate(132.29 -99.98) rotate(90)"/><rect class="cls-21" x="106.41" y="15.94" width="17.04" height="0.43" transform="translate(131.08 -98.77) rotate(90)"/><rect class="cls-22" x="105.2" y="15.94" width="17.04" height="0.43" transform="translate(129.87 -97.56) rotate(90)"/><rect class="cls-23" x="108.29" y="25.54" width="19.39" height="0.49" transform="translate(235.97 51.58) rotate(180)"/><rect class="cls-24" x="108.73" y="7.15" width="18.48" height="0.49" transform="translate(235.93 14.78) rotate(180)"/><rect class="cls-25" x="107.86" y="26.03" width="20.03" height="1.03" transform="translate(235.75 53.1) rotate(180)"/><path class="cls-26" d="M3.37,73.67H130.89a0,0,0,0,1,0,0V148a2,2,0,0,1-2,2H5.37a2,2,0,0,1-2-2V73.67A0,0,0,0,1,3.37,73.67Z"/><rect class="cls-27" x="3.37" y="74.18" width="127.52" height="4.47"/><rect class="cls-28" y="69.56" width="134.43" height="4.62" rx="0.63"/></g></g></g></svg>