<svg xmlns="http://www.w3.org/2000/svg" xmlns:xlink="http://www.w3.org/1999/xlink" viewBox="0 0 81.76 150"><defs><style>.cls-1{fill:url(#未命名的渐变_143);}.cls-2{fill:url(#未命名的渐变_143-2);}.cls-3{fill:url(#未命名的渐变_105);}.cls-4{fill:url(#未命名的渐变_105-2);}.cls-5{fill:url(#未命名的渐变_143-3);}.cls-6{fill:url(#未命名的渐变_143-4);}.cls-7{fill:url(#未命名的渐变_143-5);}.cls-8{fill:url(#未命名的渐变_143-6);}.cls-9{fill:url(#未命名的渐变_143-7);}.cls-10{opacity:0.2;}</style><linearGradient id="未命名的渐变_143" x1="68.44" y1="124.04" x2="74.45" y2="124.04" gradientUnits="userSpaceOnUse"><stop offset="0" stop-color="#b7b7b7"/><stop offset="0.03" stop-color="#9b9d9d"/><stop offset="0.07" stop-color="#878b8b"/><stop offset="0.09" stop-color="#808484"/><stop offset="0.2" stop-color="#a3a6a6"/><stop offset="0.49" stop-color="#f6f6f6"/><stop offset="0.61" stop-color="#f3f3f3"/><stop offset="0.7" stop-color="#eaeaea"/><stop offset="0.77" stop-color="#dbdbdb"/><stop offset="0.83" stop-color="#c5c5c5"/><stop offset="0.9" stop-color="#aaa"/><stop offset="0.95" stop-color="#888"/><stop offset="1" stop-color="#666"/></linearGradient><linearGradient id="未命名的渐变_143-2" x1="7.19" y1="124.04" x2="13.2" y2="124.04" xlink:href="#未命名的渐变_143"/><linearGradient id="未命名的渐变_105" x1="30.07" y1="25.96" x2="52.03" y2="25.96" gradientUnits="userSpaceOnUse"><stop offset="0" stop-color="#e2e2e2"/><stop offset="0.03" stop-color="#d0d0d0"/><stop offset="0.06" stop-color="#bcbcbc"/><stop offset="0.09" stop-color="#b5b5b5"/><stop offset="0.49" stop-color="#f6f6f6"/><stop offset="0.63" stop-color="#f3f3f3"/><stop offset="0.73" stop-color="#eaeaea"/><stop offset="0.82" stop-color="#dbdbdb"/><stop offset="0.9" stop-color="#c6c6c6"/><stop offset="0.97" stop-color="#aaa"/><stop offset="1" stop-color="#9b9b9b"/></linearGradient><linearGradient id="未命名的渐变_105-2" x1="1.76" y1="71.87" x2="79.42" y2="71.87" xlink:href="#未命名的渐变_105"/><linearGradient id="未命名的渐变_143-3" x1="219.16" y1="-463.39" x2="219.16" y2="-381.63" gradientTransform="translate(-178.28 469.36)" xlink:href="#未命名的渐变_143"/><linearGradient id="未命名的渐变_143-4" x1="238.99" y1="-435.08" x2="238.99" y2="-410.4" gradientTransform="translate(-198.34 449.76)" xlink:href="#未命名的渐变_143"/><linearGradient id="未命名的渐变_143-5" x1="255.21" y1="-435.08" x2="255.21" y2="-410.4" gradientTransform="translate(-214.56 433.54)" xlink:href="#未命名的渐变_143"/><linearGradient id="未命名的渐变_143-6" x1="154.27" y1="-461.63" x2="154.27" y2="-383.42" gradientTransform="translate(-113.41 534.27)" xlink:href="#未命名的渐变_143"/><linearGradient id="未命名的渐变_143-7" x1="149.63" y1="-463.26" x2="149.63" y2="-382.05" gradientTransform="translate(-108.9 539.03)" xlink:href="#未命名的渐变_143"/></defs><title>Simple process tank（简易工艺罐）</title><g id="图层_2" data-name="图层 2"><g id="图层_104" data-name="图层 104"><g id="Simple_process_tank_简易工艺罐_" data-name="Simple process tank（简易工艺罐）"><path class="cls-1" d="M74.44,150h-6V104.34s-.37-6.27,3-6.27,3,6.27,3,6.27Z"/><path class="cls-2" d="M13.19,150h-6V104.34s-.36-6.27,3-6.27,3,6.27,3,6.27Z"/><path class="cls-3" d="M52,51.93H30.12V6.27S28.77,0,41.05,0C53.16,0,52,6.27,52,6.27Z"/><path class="cls-4" d="M79.31,109.68H1.91v-63S-2.83,34.07,40.59,34.07c42.83,0,38.72,12.57,38.72,12.57Z"/><rect class="cls-5" x="39.57" y="5.98" width="2.61" height="81.76" rx="0.33" transform="translate(-5.98 87.73) rotate(-90)"/><rect class="cls-6" x="39.34" y="14.68" width="2.61" height="24.68" rx="0.33" transform="translate(13.63 67.67) rotate(-90)"/><rect class="cls-7" x="39.34" y="-1.54" width="2.61" height="24.68" rx="0.33" transform="translate(29.85 51.45) rotate(-90)"/><rect class="cls-8" x="38.79" y="72.64" width="4.13" height="78.21" transform="translate(-70.89 152.6) rotate(-90)"/><rect class="cls-9" x="38.16" y="75.77" width="5.14" height="81.21" transform="translate(-75.65 157.11) rotate(-90)"/></g></g></g></svg>