<svg xmlns="http://www.w3.org/2000/svg" xmlns:xlink="http://www.w3.org/1999/xlink" viewBox="0 0 68.11 150"><defs><style>.cls-1{fill:url(#未命名的渐变_105);}.cls-2{fill:#fff;}.cls-3{fill:#eaeaea;}.cls-4{fill:#7f7f7f;}.cls-5{fill:#c1c1c1;opacity:0.51;}.cls-6{fill:none;stroke:#7f7f7f;stroke-miterlimit:10;stroke-width:0.25px;}.cls-7{fill:#dedede;}.cls-8{fill:#dbdbdb;}.cls-9{fill:url(#未命名的渐变_105-2);}.cls-10{fill:url(#未命名的渐变_105-3);}.cls-11{fill:url(#未命名的渐变_105-4);}.cls-12{fill:url(#未命名的渐变_105-5);}.cls-13{fill:url(#未命名的渐变_105-6);}.cls-14{fill:url(#未命名的渐变_67);}.cls-15{fill:url(#未命名的渐变_105-7);}.cls-16{fill:url(#未命名的渐变_105-8);}.cls-17{fill:url(#未命名的渐变_67-2);}.cls-18{fill:url(#未命名的渐变_67-3);}.cls-19{fill:url(#未命名的渐变_105-9);}.cls-20{opacity:0.2;}</style><linearGradient id="未命名的渐变_105" x1="33.45" y1="21.81" x2="38.96" y2="21.81" gradientUnits="userSpaceOnUse"><stop offset="0" stop-color="#e2e2e2"/><stop offset="0.03" stop-color="#d0d0d0"/><stop offset="0.06" stop-color="#bcbcbc"/><stop offset="0.09" stop-color="#b5b5b5"/><stop offset="0.49" stop-color="#f6f6f6"/><stop offset="0.63" stop-color="#f3f3f3"/><stop offset="0.73" stop-color="#eaeaea"/><stop offset="0.82" stop-color="#dbdbdb"/><stop offset="0.9" stop-color="#c6c6c6"/><stop offset="0.97" stop-color="#aaa"/><stop offset="1" stop-color="#9b9b9b"/></linearGradient><linearGradient id="未命名的渐变_105-2" x1="12.57" y1="60.01" x2="60.06" y2="60.01" xlink:href="#未命名的渐变_105"/><linearGradient id="未命名的渐变_105-3" x1="12.57" y1="112.23" x2="60.06" y2="112.23" xlink:href="#未命名的渐变_105"/><linearGradient id="未命名的渐变_105-4" x1="20.7" y1="145.2" x2="51.61" y2="145.2" xlink:href="#未命名的渐变_105"/><linearGradient id="未命名的渐变_105-5" x1="16.77" y1="4.04" x2="16.77" y2="-6.32" gradientTransform="translate(-1.42 48.07)" xlink:href="#未命名的渐变_105"/><linearGradient id="未命名的渐变_105-6" x1="16.77" y1="25.85" x2="16.77" y2="15.48" gradientTransform="translate(-1.42 48.07)" xlink:href="#未命名的渐变_105"/><linearGradient id="未命名的渐变_67" x1="764.08" y1="-44.93" x2="764.08" y2="6.79" gradientTransform="translate(-728.51 47.36)" gradientUnits="userSpaceOnUse"><stop offset="0" stop-color="#6b6b6b"/><stop offset="0.11" stop-color="#767676"/><stop offset="0.3" stop-color="#959595"/><stop offset="0.41" stop-color="#aaa"/><stop offset="0.56" stop-color="#ccc"/><stop offset="0.71" stop-color="#eaeaea"/><stop offset="0.8" stop-color="#f6f6f6"/><stop offset="0.83" stop-color="#ededed"/><stop offset="0.87" stop-color="#d4d4d4"/><stop offset="0.92" stop-color="#ababab"/><stop offset="0.98" stop-color="#737373"/><stop offset="0.99" stop-color="#666"/></linearGradient><linearGradient id="未命名的渐变_105-7" x1="769.16" y1="-44.93" x2="769.16" y2="6.79" gradientTransform="translate(-733.58 52.43)" xlink:href="#未命名的渐变_105"/><linearGradient id="未命名的渐变_105-8" x1="761.46" y1="-48.91" x2="761.46" y2="10.49" gradientTransform="translate(-725.75 44.87)" xlink:href="#未命名的渐变_105"/><linearGradient id="未命名的渐变_67-2" x1="774.23" y1="-43.55" x2="774.23" y2="3.94" gradientTransform="translate(-737.92 58.24)" xlink:href="#未命名的渐变_67"/><linearGradient id="未命名的渐变_67-3" x1="818.12" y1="-51.61" x2="818.12" y2="13.54" gradientTransform="translate(-782.58 101.35)" xlink:href="#未命名的渐变_67"/><linearGradient id="未命名的渐变_105-9" x1="1.75" y1="76.71" x2="1.75" y2="39.23" xlink:href="#未命名的渐变_105"/></defs><title>Simple filter 2（简易过滤器） (2)</title><g id="图层_2" data-name="图层 2"><g id="图层_125" data-name="图层 125"><g id="Simple_filter_2_简易过滤器_" data-name="Simple filter 2（简易过滤器）"><rect class="cls-1" x="33.45" y="18.33" width="5.5" height="6.95"/><circle class="cls-2" cx="35.82" cy="9.58" r="8.75"/><path class="cls-3" d="M27.06,9.58a8.75,8.75,0,0,0,3.83,7.23,9.13,9.13,0,0,0,1.3.1,9.45,9.45,0,0,0,9.37-9.54,9.53,9.53,0,0,0-1.79-5.59,8.75,8.75,0,0,0-12.71,7.8Z"/><path class="cls-4" d="M35.82,0a9.58,9.58,0,1,0,9.57,9.58A9.58,9.58,0,0,0,35.82,0Zm0,18.33a8.75,8.75,0,1,1,8.75-8.75A8.76,8.76,0,0,1,35.82,18.33Z"/><circle class="cls-5" cx="35.82" cy="9.58" r="8.4"/><path class="cls-4" d="M38.28,12,39,10.85a.37.37,0,0,0-.13-.51l-.05,0h-.12a6.43,6.43,0,0,1-1.76-.62c-1.52-.87-7.43-4.76-7.43-4.76S35,9.21,36.61,10.58a7.49,7.49,0,0,1,1,1.36.19.19,0,0,0,0,.09v0h0l.08.07A.37.37,0,0,0,38.28,12Z"/><circle class="cls-4" cx="36.11" cy="9.69" r="0.76"/><line class="cls-6" x1="39.58" y1="2.63" x2="38.96" y2="3.79"/><line class="cls-6" x1="32.31" y1="2.63" x2="32.93" y2="3.79"/><line class="cls-6" x1="28.11" y1="8.54" x2="29.42" y2="8.73"/><line class="cls-6" x1="43.86" y1="8.5" x2="42.55" y2="8.69"/><circle class="cls-7" cx="36.11" cy="9.69" r="0.43"/><rect class="cls-8" x="3.23" y="49.09" width="17.72" height="16.3"/><rect class="cls-9" x="12.57" y="39.46" width="47.49" height="41.11"/><path class="cls-10" d="M12.57,84.07H60.06a0,0,0,0,1,0,0v54.84a1.49,1.49,0,0,1-1.49,1.49H14.06a1.49,1.49,0,0,1-1.49-1.49V84.07A0,0,0,0,1,12.57,84.07Z"/><rect class="cls-11" x="20.7" y="140.4" width="30.9" height="9.6"/><path class="cls-12" d="M3.23,41.75H26.35a1.1,1.1,0,0,1,1.1,1.1V51a1.1,1.1,0,0,1-1.1,1.1H3.23a0,0,0,0,1,0,0V41.75A0,0,0,0,1,3.23,41.75Z"/><path class="cls-13" d="M3.23,63.55H26.35a1.1,1.1,0,0,1,1.1,1.1v8.16a1.1,1.1,0,0,1-1.1,1.1H3.23a0,0,0,0,1,0,0V63.55a0,0,0,0,1,0,0Z"/><rect class="cls-14" x="34.55" y="2.43" width="2.05" height="51.72" transform="translate(63.86 -7.29) rotate(90)"/><rect class="cls-15" x="31.52" y="7.5" width="8.1" height="51.72" transform="translate(68.94 -2.21) rotate(90)"/><rect class="cls-16" x="34.11" y="-4.03" width="3.2" height="59.39" rx="0.34" transform="translate(61.37 -10.05) rotate(90)"/><rect class="cls-17" x="35.29" y="14.69" width="2.05" height="47.49" transform="translate(74.75 2.12) rotate(90)"/><rect class="cls-18" x="33.79" y="49.75" width="3.5" height="65.14" rx="0.37" transform="translate(117.86 46.78) rotate(90)"/><rect class="cls-19" y="39.23" width="3.5" height="37.48" rx="0.37"/></g></g></g></svg>