<svg xmlns="http://www.w3.org/2000/svg" xmlns:xlink="http://www.w3.org/1999/xlink" viewBox="0 0 150 134.77"><defs><style>.cls-1{fill:url(#未命名的渐变_50);}.cls-2{fill:url(#未命名的渐变_59);}.cls-3{fill:url(#未命名的渐变_50-2);}.cls-4{fill:url(#未命名的渐变_26);}.cls-5{fill:url(#未命名的渐变_50-3);}.cls-6{fill:url(#未命名的渐变_26-2);}.cls-7{fill:url(#未命名的渐变_26-3);}.cls-35,.cls-54,.cls-8{opacity:0.4;}.cls-9{fill:url(#未命名的渐变_26-4);}.cls-10{fill:url(#未命名的渐变_397);}.cls-11,.cls-50{opacity:0.3;}.cls-12{fill:url(#未命名的渐变_50-4);}.cls-13{fill:url(#未命名的渐变_455);}.cls-14{fill:url(#未命名的渐变_455-2);}.cls-15{fill:url(#未命名的渐变_50-5);}.cls-16{fill:url(#未命名的渐变_53);}.cls-17{fill:url(#未命名的渐变_26-5);}.cls-18{fill:url(#未命名的渐变_26-6);}.cls-19{fill:url(#未命名的渐变_397-2);}.cls-20,.cls-27,.cls-31,.cls-58{opacity:0.2;}.cls-20{fill:url(#未命名的渐变_376);}.cls-21{fill:url(#未命名的渐变_26-7);}.cls-22{fill:url(#未命名的渐变_26-8);}.cls-23{fill:url(#未命名的渐变_26-9);}.cls-24{fill:url(#未命名的渐变_26-10);}.cls-25{fill:url(#未命名的渐变_50-6);}.cls-26{fill:url(#未命名的渐变_26-11);}.cls-27{fill:url(#未命名的渐变_376-2);}.cls-28{fill:url(#未命名的渐变_26-12);}.cls-29{fill:url(#未命名的渐变_26-13);}.cls-30{fill:#fff;opacity:0.7;}.cls-31{fill:url(#未命名的渐变_376-3);}.cls-32{fill:url(#未命名的渐变_26-14);}.cls-33{fill:url(#未命名的渐变_26-15);}.cls-34,.cls-36,.cls-50{fill:none;}.cls-34{stroke:#c45c5c;}.cls-34,.cls-36{stroke-linecap:round;}.cls-34,.cls-36,.cls-49,.cls-50,.cls-53{stroke-miterlimit:10;}.cls-34,.cls-50,.cls-53{stroke-width:0.25px;}.cls-35{fill:url(#未命名的渐变_26-16);}.cls-36{stroke:#fff;opacity:0.9;}.cls-37{fill:url(#未命名的渐变_50-7);}.cls-38{fill:url(#未命名的渐变_50-8);}.cls-39{fill:url(#未命名的渐变_455-3);}.cls-40{fill:url(#未命名的渐变_306);}.cls-41{fill:url(#未命名的渐变_461);}.cls-42{fill:url(#未命名的渐变_26-17);}.cls-43{fill:url(#未命名的渐变_26-18);}.cls-44{fill:url(#未命名的渐变_26-19);}.cls-45{fill:url(#未命名的渐变_26-20);}.cls-46{fill:url(#未命名的渐变_26-21);}.cls-47{fill:url(#未命名的渐变_461-2);}.cls-48{fill:url(#未命名的渐变_461-3);}.cls-49{fill:#747a80;stroke:#e7e9ec;stroke-width:0.5px;}.cls-50{stroke:#222a34;}.cls-51{fill:url(#未命名的渐变_50-9);}.cls-52{fill:url(#未命名的渐变_461-4);}.cls-53{fill:url(#未命名的渐变_149);stroke:url(#未命名的渐变_149-2);}.cls-55{fill:url(#未命名的渐变_53-2);}.cls-56{fill:url(#未命名的渐变_26-22);}.cls-57{fill:url(#未命名的渐变_50-10);}</style><linearGradient id="未命名的渐变_50" x1="301.38" y1="-147" x2="302.55" y2="-147" gradientTransform="translate(-208.24 160.32)" gradientUnits="userSpaceOnUse"><stop offset="0" stop-color="#a9b1bb"/><stop offset="0.32" stop-color="#767b82"/><stop offset="0.78" stop-color="#e2eaf2"/><stop offset="0.93" stop-color="#9ba1ab"/><stop offset="1" stop-color="#767b82"/></linearGradient><linearGradient id="未命名的渐变_59" x1="126.09" y1="127.29" x2="126.09" y2="67.88" gradientUnits="userSpaceOnUse"><stop offset="0" stop-color="#d7dce0"/><stop offset="1" stop-color="#8a9099"/></linearGradient><linearGradient id="未命名的渐变_50-2" x1="246.85" y1="-206.71" x2="248.02" y2="-206.71" gradientTransform="translate(-211.1 239.21)" xlink:href="#未命名的渐变_50"/><linearGradient id="未命名的渐变_26" x1="399.37" y1="-61.39" x2="396.74" y2="-61.39" gradientTransform="translate(-361.84 93.89)" gradientUnits="userSpaceOnUse"><stop offset="0" stop-color="#767b82"/><stop offset="0.07" stop-color="#9ba1ab"/><stop offset="0.22" stop-color="#e2eaf2"/><stop offset="0.94" stop-color="#767b82"/><stop offset="1" stop-color="#a9b1bb"/></linearGradient><linearGradient id="未命名的渐变_50-3" x1="262.71" y1="-206.71" x2="263.88" y2="-206.71" gradientTransform="translate(-226.96 223.35)" xlink:href="#未命名的渐变_50"/><linearGradient id="未命名的渐变_26-2" x1="415.23" y1="-61.39" x2="412.6" y2="-61.39" gradientTransform="translate(-377.7 78.03)" xlink:href="#未命名的渐变_26"/><linearGradient id="未命名的渐变_26-3" x1="157.94" y1="203.78" x2="121.2" y2="203.78" gradientTransform="translate(-74 -76)" xlink:href="#未命名的渐变_26"/><linearGradient id="未命名的渐变_26-4" x1="167.83" y1="80.06" x2="111.32" y2="80.06" gradientTransform="translate(-74 -76)" xlink:href="#未命名的渐变_26"/><linearGradient id="未命名的渐变_397" x1="167.83" y1="139.5" x2="111.32" y2="139.5" gradientTransform="translate(-74 -76)" gradientUnits="userSpaceOnUse"><stop offset="0" stop-color="#767b82"/><stop offset="0.07" stop-color="#9ba1ab"/><stop offset="0.22" stop-color="#e2eaf2"/><stop offset="0.28" stop-color="#d1d8e0"/><stop offset="0.49" stop-color="#a1a7ae"/><stop offset="0.67" stop-color="#7e8489"/><stop offset="0.81" stop-color="#696e73"/><stop offset="0.91" stop-color="#61666b"/><stop offset="1" stop-color="#a9b1bb"/></linearGradient><linearGradient id="未命名的渐变_50-4" x1="223.38" y1="-179.91" x2="224.55" y2="-179.91" gradientTransform="translate(-158.39 220.65)" xlink:href="#未命名的渐变_50"/><linearGradient id="未命名的渐变_455" x1="3078.8" y1="-6.96" x2="3102.06" y2="-6.96" gradientTransform="translate(-3024.85 21.69)" gradientUnits="userSpaceOnUse"><stop offset="0" stop-color="#8b9199"/><stop offset="0.02" stop-color="#d7dce0"/><stop offset="0.04" stop-color="#b9bfcc"/><stop offset="0.98" stop-color="#b9bfcc"/><stop offset="1" stop-color="#767b82"/></linearGradient><linearGradient id="未命名的渐变_455-2" x1="3080.43" y1="-6.96" x2="3100.43" y2="-6.96" xlink:href="#未命名的渐变_455"/><linearGradient id="未命名的渐变_50-5" x1="195.79" y1="-164.84" x2="196.96" y2="-164.84" gradientTransform="translate(-141.86 247.43)" xlink:href="#未命名的渐变_50"/><linearGradient id="未命名的渐变_53" x1="180.69" y1="-175.53" x2="181.86" y2="-175.53" gradientTransform="translate(-138.43 268.94)" gradientUnits="userSpaceOnUse"><stop offset="0" stop-color="#767b82"/><stop offset="0.07" stop-color="#9ba1ab"/><stop offset="0.22" stop-color="#e2eaf2"/><stop offset="0.68" stop-color="#767b82"/><stop offset="1" stop-color="#a9b1bb"/></linearGradient><linearGradient id="未命名的渐变_26-5" x1="338.46" y1="-66.18" x2="335.83" y2="-66.18" gradientTransform="translate(-305.72 159.59)" xlink:href="#未命名的渐变_26"/><linearGradient id="未命名的渐变_26-6" x1="30.31" y1="109.64" x2="3.59" y2="109.64" gradientTransform="matrix(1, 0, 0, 1, 0, 0)" xlink:href="#未命名的渐变_26"/><linearGradient id="未命名的渐变_397-2" x1="23.64" y1="81.68" x2="10.26" y2="95.06" gradientTransform="matrix(1, 0, 0, 1, 0, 0)" xlink:href="#未命名的渐变_397"/><linearGradient id="未命名的渐变_376" x1="17.03" y1="88.39" x2="17.03" y2="96.43" gradientUnits="userSpaceOnUse"><stop offset="0" stop-color="#2e3033"/><stop offset="1" stop-color="#9ba1ab" stop-opacity="0"/></linearGradient><linearGradient id="未命名的渐变_26-7" x1="119.02" y1="104.4" x2="110.12" y2="104.4" gradientTransform="matrix(1, 0, 0, 1, 0, 0)" xlink:href="#未命名的渐变_26"/><linearGradient id="未命名的渐变_26-8" x1="100.54" y1="93.21" x2="97.3" y2="93.21" gradientTransform="matrix(1, 0, 0, 1, 0, 0)" xlink:href="#未命名的渐变_26"/><linearGradient id="未命名的渐变_26-9" x1="100.13" y1="98.29" x2="97.71" y2="98.29" gradientTransform="matrix(1, 0, 0, 1, 0, 0)" xlink:href="#未命名的渐变_26"/><linearGradient id="未命名的渐变_26-10" x1="101.34" y1="98.29" x2="100.13" y2="98.29" gradientTransform="matrix(1, 0, 0, 1, 0, 0)" xlink:href="#未命名的渐变_26"/><linearGradient id="未命名的渐变_50-6" x1="205.69" y1="-179.62" x2="206.86" y2="-179.62" gradientTransform="translate(-107.35 246.28)" xlink:href="#未命名的渐变_50"/><linearGradient id="未命名的渐变_26-11" x1="100.54" y1="103.37" x2="97.3" y2="103.37" gradientTransform="matrix(1, 0, 0, 1, 0, 0)" xlink:href="#未命名的渐变_26"/><linearGradient id="未命名的渐变_376-2" x1="114.57" y1="84.15" x2="114.57" y2="90.34" xlink:href="#未命名的渐变_376"/><linearGradient id="未命名的渐变_26-12" x1="116.98" y1="81.44" x2="112.19" y2="86.23" gradientTransform="matrix(1, 0, 0, 1, 0, 0)" xlink:href="#未命名的渐变_26"/><linearGradient id="未命名的渐变_26-13" x1="138.29" y1="107.86" x2="120.99" y2="107.86" gradientTransform="matrix(1, 0, 0, 1, 0, 0)" xlink:href="#未命名的渐变_26"/><linearGradient id="未命名的渐变_376-3" x1="129.69" y1="91.05" x2="129.69" y2="97.32" xlink:href="#未命名的渐变_376"/><linearGradient id="未命名的渐变_26-14" x1="444.89" y1="27.62" x2="451.69" y2="27.62" gradientTransform="translate(-418.35 13.37)" xlink:href="#未命名的渐变_26"/><linearGradient id="未命名的渐变_26-15" x1="444.89" y1="61.61" x2="451.69" y2="61.61" gradientTransform="translate(-418.35 -54.61)" xlink:href="#未命名的渐变_26"/><linearGradient id="未命名的渐变_26-16" x1="444.89" y1="45.22" x2="451.69" y2="45.22" gradientTransform="translate(-418.35 -21.83)" xlink:href="#未命名的渐变_26"/><linearGradient id="未命名的渐变_50-7" x1="190.13" y1="-176.02" x2="191.3" y2="-176.02" gradientTransform="translate(-130.53 269.78)" xlink:href="#未命名的渐变_50"/><linearGradient id="未命名的渐变_50-8" x1="260.56" y1="-152.23" x2="261.73" y2="-152.23" gradientTransform="translate(-172.65 206.37)" xlink:href="#未命名的渐变_50"/><linearGradient id="未命名的渐变_455-3" x1="65.46" y1="72.63" x2="65.46" y2="50.24" gradientTransform="matrix(1, 0, 0, 1, 0, 0)" xlink:href="#未命名的渐变_455"/><linearGradient id="未命名的渐变_306" x1="75" y1="130.89" x2="75" y2="134.77" gradientUnits="userSpaceOnUse"><stop offset="0.02" stop-color="#767b82"/><stop offset="0.04" stop-color="#d7dce0"/><stop offset="0.09" stop-color="#9ba1ab"/><stop offset="0.92" stop-color="#9ba1ab"/><stop offset="1" stop-color="#767b82"/></linearGradient><linearGradient id="未命名的渐变_461" x1="126.09" y1="127.29" x2="126.09" y2="124.65" gradientUnits="userSpaceOnUse"><stop offset="0" stop-color="#9ba1ab"/><stop offset="1" stop-color="#767b82"/></linearGradient><linearGradient id="未命名的渐变_26-17" x1="212.29" y1="185.5" x2="194.99" y2="185.5" gradientTransform="translate(-74 -76)" xlink:href="#未命名的渐变_26"/><linearGradient id="未命名的渐变_26-18" x1="405.47" y1="369.88" x2="389.34" y2="369.88" gradientTransform="translate(-258.05 -253.29)" xlink:href="#未命名的渐变_26"/><linearGradient id="未命名的渐变_26-19" x1="405.47" y1="400.24" x2="383.73" y2="400.24" gradientTransform="translate(-285.6 -286.46)" xlink:href="#未命名的渐变_26"/><linearGradient id="未命名的渐变_26-20" x1="212.29" y1="165.6" x2="194.99" y2="165.6" gradientTransform="translate(-74 -76)" xlink:href="#未命名的渐变_26"/><linearGradient id="未命名的渐变_26-21" x1="192.06" y1="156.37" x2="185.08" y2="156.37" gradientTransform="translate(-74 -76)" xlink:href="#未命名的渐变_26"/><linearGradient id="未命名的渐变_461-2" x1="2194.9" y1="179.92" x2="2195.79" y2="179.92" gradientTransform="matrix(-4.7, 0, 0, -8.92, 10419.02, 1733.45)" xlink:href="#未命名的渐变_461"/><linearGradient id="未命名的渐变_461-3" x1="2110.91" y1="179.92" x2="2111.79" y2="179.92" gradientTransform="matrix(4.7, 0, 0, -8.92, -9772.43, 1733.45)" xlink:href="#未命名的渐变_461"/><linearGradient id="未命名的渐变_50-9" x1="194.75" y1="-136.62" x2="195.92" y2="-136.62" gradientTransform="translate(-91.23 256.58)" xlink:href="#未命名的渐变_50"/><linearGradient id="未命名的渐变_461-4" x1="107.37" y1="120.22" x2="100.13" y2="120.22" xlink:href="#未命名的渐变_461"/><linearGradient id="未命名的渐变_149" x1="-569.73" y1="-913.55" x2="-564.87" y2="-913.55" gradientTransform="matrix(0, -1, -1, 0, -809.81, -446.96)" gradientUnits="userSpaceOnUse"><stop offset="0" stop-color="#ccd1d5"/><stop offset="1" stop-color="#90969f"/></linearGradient><linearGradient id="未命名的渐变_149-2" x1="101.19" y1="120.34" x2="106.3" y2="120.34" gradientTransform="matrix(1, 0, 0, 1, 0, 0)" xlink:href="#未命名的渐变_149"/><linearGradient id="未命名的渐变_53-2" x1="203.04" y1="-178.36" x2="204.21" y2="-178.36" gradientTransform="translate(-157.95 294.12)" xlink:href="#未命名的渐变_53"/><linearGradient id="未命名的渐变_26-22" x1="316.1" y1="-66.18" x2="313.47" y2="-66.18" gradientTransform="translate(-283.37 181.94)" xlink:href="#未命名的渐变_26"/><linearGradient id="未命名的渐变_50-10" x1="182.35" y1="-118.26" x2="183.52" y2="-118.26" gradientTransform="translate(-58.14 215.26)" xlink:href="#未命名的渐变_50"/></defs><title>Skid mounted boiler(撬装锅炉)</title><g id="图层_2" data-name="图层 2"><g id="图层_21" data-name="图层 21"><g id="Skid_mounted_boiler_撬装锅炉_" data-name="Skid mounted boiler(撬装锅炉)"><rect class="cls-1" x="93.14" y="7.55" width="1.17" height="11.55" rx="0.59" transform="translate(80.41 107.05) rotate(-90)"/><rect class="cls-2" x="108.03" y="67.88" width="36.11" height="59.41"/><rect class="cls-3" x="35.76" y="28.99" width="1.17" height="7.02" rx="0.59" transform="translate(3.84 68.84) rotate(-90)"/><rect class="cls-4" x="34.9" y="31.39" width="2.63" height="2.21" transform="translate(3.71 68.71) rotate(-90)"/><rect class="cls-5" x="35.76" y="13.13" width="1.17" height="7.02" rx="0.59" transform="translate(19.7 52.98) rotate(-90)"/><rect class="cls-6" x="34.9" y="15.53" width="2.63" height="2.21" transform="translate(19.57 52.85) rotate(-90)"/><rect class="cls-7" x="47.2" y="124.66" width="36.74" height="6.23"/><rect class="cls-8" x="47.2" y="124.66" width="36.74" height="6.23"/><rect class="cls-9" x="37.32" y="2.35" width="56.51" height="3.42"/><rect class="cls-10" x="37.32" y="2.34" width="56.51" height="122.32"/><rect class="cls-11" x="37.32" y="120.97" width="56.51" height="3.68"/><rect class="cls-11" x="37.32" y="46.15" width="56.51" height="1.19"/><rect class="cls-12" x="64.99" y="27.76" width="1.17" height="25.97" rx="0.59"/><rect class="cls-11" x="37.32" y="74.27" width="56.51" height="1.19"/><rect class="cls-11" x="37.32" y="2.35" width="56.51" height="3.42"/><rect class="cls-13" x="53.94" width="23.26" height="29.46" transform="translate(131.15 29.46) rotate(180)"/><rect class="cls-14" x="55.57" width="20" height="29.46" transform="translate(131.15 29.46) rotate(180)"/><rect class="cls-15" x="53.94" y="71.17" width="1.17" height="22.82" rx="0.56" transform="translate(109.04 165.17) rotate(180)"/><rect class="cls-16" x="42.26" y="81.15" width="1.17" height="24.53" rx="0.59" transform="matrix(0, 1, -1, 0, 136.26, 50.56)"/><rect class="cls-17" x="30.11" y="92.3" width="2.63" height="2.21" transform="translate(-61.99 124.83) rotate(-90)"/><rect class="cls-18" x="3.59" y="88.39" width="26.72" height="42.5"/><path class="cls-19" d="M30.31,88.39S28.45,85.25,17,85.25,3.59,88.39,3.59,88.39Z"/><rect class="cls-20" x="3.59" y="88.39" width="26.88" height="8.04"/><rect class="cls-21" x="110.12" y="84.15" width="8.91" height="40.5"/><rect class="cls-22" x="97.3" y="92.18" width="3.23" height="2.07"/><rect class="cls-23" x="97.71" y="94.25" width="2.42" height="8.09"/><rect class="cls-24" x="100.13" y="97.12" width="1.21" height="2.33"/><rect class="cls-25" x="98.33" y="12.74" width="1.17" height="107.85" rx="0.59"/><rect class="cls-26" x="97.3" y="102.33" width="3.23" height="2.07"/><rect class="cls-8" x="110.12" y="119.96" width="8.91" height="4.69"/><rect class="cls-27" x="110.12" y="84.15" width="8.91" height="6.19"/><path class="cls-28" d="M117.14,82.12v-.51h-5.08v.49a3.37,3.37,0,0,0-1.94,2.05H119A3.4,3.4,0,0,0,117.14,82.12Z"/><rect class="cls-29" x="120.99" y="91.05" width="17.29" height="33.62"/><rect class="cls-30" x="120.99" y="91.05" width="17.29" height="33.62"/><rect class="cls-31" x="120.99" y="91.05" width="17.4" height="6.28"/><rect class="cls-11" x="3.59" y="127.29" width="26.72" height="3.6"/><rect class="cls-32" x="26.54" y="39.75" width="6.8" height="2.47" transform="translate(59.88 81.97) rotate(-180)"/><rect class="cls-33" x="26.54" y="5.76" width="6.8" height="2.47" transform="translate(59.88 14) rotate(-180)"/><line class="cls-34" x1="28.19" y1="11.42" x2="31.79" y2="11.42"/><line class="cls-34" x1="28.19" y1="14.82" x2="31.79" y2="14.82"/><line class="cls-34" x1="28.19" y1="18.21" x2="31.79" y2="18.21"/><line class="cls-34" x1="28.19" y1="21.61" x2="31.79" y2="21.61"/><line class="cls-34" x1="28.19" y1="25.01" x2="31.79" y2="25.01"/><line class="cls-34" x1="28.19" y1="28.41" x2="31.79" y2="28.41"/><line class="cls-34" x1="28.19" y1="31.81" x2="31.79" y2="31.81"/><line class="cls-34" x1="28.19" y1="35.21" x2="31.79" y2="35.21"/><rect class="cls-35" x="26.54" y="7.02" width="6.8" height="32.73" transform="translate(59.88 46.78) rotate(-180)"/><line class="cls-36" x1="29.94" y1="9.46" x2="29.94" y2="37.75"/><rect class="cls-37" x="59.6" y="71.17" width="1.17" height="45.18" rx="0.59" transform="translate(120.37 187.52) rotate(180)"/><rect class="cls-38" x="87.92" y="43.14" width="1.17" height="22.01" rx="0.57" transform="translate(34.36 142.65) rotate(-90)"/><rect class="cls-39" x="51.57" y="50.24" width="27.78" height="22.39"/><rect class="cls-40" y="130.89" width="150" height="3.88"/><rect class="cls-41" x="108.03" y="124.65" width="36.11" height="2.64"/><rect class="cls-42" x="120.99" y="108.53" width="17.29" height="1.93"/><rect class="cls-43" x="131.29" y="115.63" width="16.13" height="1.93" transform="translate(255.95 -22.76) rotate(90)"/><rect class="cls-44" x="98.12" y="112.82" width="21.75" height="1.93" transform="translate(222.79 4.79) rotate(90)"/><rect class="cls-45" x="120.99" y="88.14" width="17.29" height="2.9"/><rect class="cls-8" x="120.99" y="88.14" width="17.29" height="2.9"/><rect class="cls-46" x="111.08" y="79.14" width="6.97" height="2.47"/><rect class="cls-8" x="111.08" y="79.14" width="6.97" height="2.47"/><polygon class="cls-47" points="108.03 127.29 112.2 127.29 109.22 130.89 108.03 130.89 108.03 127.29"/><polygon class="cls-48" points="144.14 127.29 139.98 127.29 142.96 130.89 144.14 130.89 144.14 127.29"/><circle class="cls-49" cx="129.69" cy="96.94" r="1.4"/><line class="cls-50" x1="108.03" y1="70.37" x2="144.14" y2="70.37"/><rect class="cls-51" x="103.52" y="114.18" width="1.17" height="11.55" rx="0.59" transform="translate(-15.85 224.06) rotate(-90)"/><rect class="cls-52" x="100.13" y="116.6" width="7.24" height="7.24" rx="2.11"/><circle class="cls-53" cx="103.75" cy="120.34" r="2.43"/><g class="cls-54"><circle cx="103.75" cy="120.34" r="2.43"/></g><rect class="cls-55" x="45.09" y="100.67" width="1.17" height="30.19" rx="0.59" transform="matrix(0, 1, -1, 0, 161.44, 70.09)"/><rect class="cls-56" x="30.11" y="114.66" width="2.63" height="2.21" transform="translate(-84.34 147.19) rotate(-90)"/><rect class="cls-57" x="124.21" y="91.77" width="1.17" height="10.47" rx="0.59" transform="matrix(0, -1, 1, 0, 27.79, 221.79)"/></g></g></g></svg>