<?xml version="1.0" encoding="utf-8"?>
<!-- Generator: Adobe Illustrator 24.0.0, SVG Export Plug-In . SVG Version: 6.00 Build 0)  -->
<svg version="1.1" id="图层_1" xmlns="http://www.w3.org/2000/svg" xmlns:xlink="http://www.w3.org/1999/xlink" x="0px" y="0px"
	 viewBox="0 0 150 126.7" style="enable-background:new 0 0 150 126.7;" xml:space="preserve">
<style type="text/css">
	.st0{clip-path:url(#SVGID_2_);}
	.st1{fill:url(#SVGID_3_);}
	.st2{fill:url(#SVGID_4_);}
	.st3{fill:url(#SVGID_5_);}
	.st4{fill:url(#SVGID_6_);}
	.st5{clip-path:url(#SVGID_8_);}
	.st6{fill:#A58C7A;}
	.st7{fill:#595757;}
	.st8{fill:#E2E2E2;}
	.st9{opacity:0.2;}
</style>
<title>Sludge thickener（污泥浓缩池）</title>
<g id="Screen_屏幕_">
	<g>
		<defs>
			<rect id="SVGID_1_" x="3.9" y="-207.6" width="121.8" height="143"/>
		</defs>
		<clipPath id="SVGID_2_">
			<use xlink:href="#SVGID_1_"  style="overflow:visible;"/>
		</clipPath>
		<g class="st0">

				<linearGradient id="SVGID_3_" gradientUnits="userSpaceOnUse" x1="789.2485" y1="1074.5284" x2="789.2485" y2="1072.0885" gradientTransform="matrix(-1.6617 1.6617 -0.6718 -0.6718 2091.2742 -657.0438)">
				<stop  offset="0" style="stop-color:#E2E2E2"/>
				<stop  offset="3.000000e-02" style="stop-color:#D0D0D0"/>
				<stop  offset="6.000000e-02" style="stop-color:#BCBCBC"/>
				<stop  offset="9.000000e-02" style="stop-color:#B5B5B5"/>
				<stop  offset="0.49" style="stop-color:#F6F6F6"/>
				<stop  offset="0.63" style="stop-color:#F3F3F3"/>
				<stop  offset="0.73" style="stop-color:#EAEAEA"/>
				<stop  offset="0.82" style="stop-color:#DBDBDB"/>
				<stop  offset="0.9" style="stop-color:#C6C6C6"/>
				<stop  offset="0.97" style="stop-color:#AAAAAA"/>
				<stop  offset="1" style="stop-color:#9B9B9B"/>
			</linearGradient>
			<polygon class="st1" points="132.6,-131.2 -5.9,7.3 -7.5,5.7 131,-132.8 			"/>

				<linearGradient id="SVGID_4_" gradientUnits="userSpaceOnUse" x1="792.5294" y1="1059.0885" x2="792.5294" y2="1056.657" gradientTransform="matrix(-1.6617 1.6617 -0.6718 -0.6718 2091.2705 -657.0498)">
				<stop  offset="0" style="stop-color:#E2E2E2"/>
				<stop  offset="3.000000e-02" style="stop-color:#D0D0D0"/>
				<stop  offset="6.000000e-02" style="stop-color:#BCBCBC"/>
				<stop  offset="9.000000e-02" style="stop-color:#B5B5B5"/>
				<stop  offset="0.49" style="stop-color:#F6F6F6"/>
				<stop  offset="0.63" style="stop-color:#F3F3F3"/>
				<stop  offset="0.73" style="stop-color:#EAEAEA"/>
				<stop  offset="0.82" style="stop-color:#DBDBDB"/>
				<stop  offset="0.9" style="stop-color:#C6C6C6"/>
				<stop  offset="0.97" style="stop-color:#AAAAAA"/>
				<stop  offset="1" style="stop-color:#9B9B9B"/>
			</linearGradient>
			<polygon class="st2" points="137.5,-115.4 -1,23.1 -2.6,21.4 135.8,-117.1 			"/>

				<linearGradient id="SVGID_5_" gradientUnits="userSpaceOnUse" x1="798.7421" y1="1043.6584" x2="798.7421" y2="1041.2185" gradientTransform="matrix(-1.6617 1.6617 -0.6718 -0.6718 2091.2756 -657.0519)">
				<stop  offset="0" style="stop-color:#E2E2E2"/>
				<stop  offset="3.000000e-02" style="stop-color:#D0D0D0"/>
				<stop  offset="6.000000e-02" style="stop-color:#BCBCBC"/>
				<stop  offset="9.000000e-02" style="stop-color:#B5B5B5"/>
				<stop  offset="0.49" style="stop-color:#F6F6F6"/>
				<stop  offset="0.63" style="stop-color:#F3F3F3"/>
				<stop  offset="0.73" style="stop-color:#EAEAEA"/>
				<stop  offset="0.82" style="stop-color:#DBDBDB"/>
				<stop  offset="0.9" style="stop-color:#C6C6C6"/>
				<stop  offset="0.97" style="stop-color:#AAAAAA"/>
				<stop  offset="1" style="stop-color:#9B9B9B"/>
			</linearGradient>
			<polygon class="st3" points="137.5,-94.8 -1,43.7 -2.6,42.1 135.8,-96.4 			"/>

				<linearGradient id="SVGID_6_" gradientUnits="userSpaceOnUse" x1="481.8163" y1="294.0679" x2="481.8163" y2="291.6279" gradientTransform="matrix(1.6617 1.6617 0.6718 -0.6718 -942.4551 -657.0497)">
				<stop  offset="0" style="stop-color:#E2E2E2"/>
				<stop  offset="3.000000e-02" style="stop-color:#D0D0D0"/>
				<stop  offset="6.000000e-02" style="stop-color:#BCBCBC"/>
				<stop  offset="9.000000e-02" style="stop-color:#B5B5B5"/>
				<stop  offset="0.49" style="stop-color:#F6F6F6"/>
				<stop  offset="0.63" style="stop-color:#F3F3F3"/>
				<stop  offset="0.73" style="stop-color:#EAEAEA"/>
				<stop  offset="0.82" style="stop-color:#DBDBDB"/>
				<stop  offset="0.9" style="stop-color:#C6C6C6"/>
				<stop  offset="0.97" style="stop-color:#AAAAAA"/>
				<stop  offset="1" style="stop-color:#9B9B9B"/>
			</linearGradient>
			<polygon class="st4" points="-13,-123.7 125.5,14.8 123.8,16.4 -14.7,-122.1 			"/>
		</g>
	</g>
</g>
<g id="Sludge_thickener_污泥浓缩池_">
	<g>
		<defs>
			<rect id="SVGID_7_" x="8.4" y="11.1" width="138.1" height="93.4"/>
		</defs>
		<clipPath id="SVGID_8_">
			<use xlink:href="#SVGID_7_"  style="overflow:visible;"/>
		</clipPath>
		<g class="st5">
			<path class="st6" d="M463,93.9l-243.9,32.7L-13.1,93.9V26c0,0,8.4-14.7,15.6-14.9c4-0.1,5.9,7.1,9.7,7.9
				c7.4,1.6,22.8-5.3,30.6-4.6C52.4,15.2,67,25.6,76.6,26c8.1,0.3,22-7.5,30.1-7.3c11.4,0.3,29.5,13.3,40.8,12.6
				c7.6-0.5,16-11.6,23.6-11.9c6-0.2,14.4,7.8,20.4,7.9c7.5,0.2,19.4-8.1,26.9-8.3c9.1-0.2,24.7,8.4,33.8,8.3
				c9.5-0.1,25.5-9.8,34.9-9.2c8.5,0.5,20,12.3,28.5,11.6c7.2-0.6,11.6-13.8,18.8-13.6c4.9,0.1,6.7,8.8,11.3,9.9
				c5.9,1.4,18.4-3.5,24.7-3.3c8.2,0.3,23,5.7,31.1,6.3c15.3,1.1,61.5-3,61.5-3L463,93.9z"/>
		</g>
	</g>
	<path class="st7" d="M146.5,107.4l-71.3,11.8L7.4,107.4V82.9c0,0,2.4-5.3,4.6-5.4c1.2,0,1.7,2.6,2.8,2.9c2.2,0.6,6.7-1.9,8.9-1.7
		c2.8,0.3,7.1,4,9.9,4.2c2.3,0.1,6.4-2.7,8.8-2.6c3.3,0.1,8.6,4.8,11.9,4.5c2.2-0.2,4.7-4.2,6.9-4.3c1.8-0.1,4.2,2.8,6,2.9
		c2.2,0.1,5.7-2.9,7.8-3c2.7-0.1,7.2,3,9.9,3s7.4-3.5,10.2-3.3c2.5,0.2,5.8,4.4,8.3,4.2c2.1-0.2,3.4-5,5.5-4.9
		c1.4,0.1,2,3.2,3.3,3.6c1.7,0.5,5.4-1.3,7.2-1.2c2.4,0.1,6.7,2,9.1,2.3c4.5,0.4,18-1.1,18-1.1L146.5,107.4z"/>
	<polygon class="st8" points="143.9,0 143.9,103.3 75.3,119.2 8.4,103.5 8.4,0 0.2,0.1 0.2,107.4 74.5,126.7 150.3,107.4 150.3,0.1
			"/>
</g>
</svg>
