<svg xmlns="http://www.w3.org/2000/svg" viewBox="0 0 150 45.91"><defs><style>.cls-1{fill:#ffec00;}.cls-2{fill:#e90000;stroke:#fff;stroke-miterlimit:10;stroke-width:0.25px;}.cls-3{fill:#fff;}.cls-4{opacity:0.2;}</style></defs><title>Small danger sign(小型危险标志)</title><g id="图层_2" data-name="图层 2"><g id="图层_28" data-name="图层 28"><g id="Small_danger_sign_小型危险标志_" data-name="Small danger sign(小型危险标志)"><rect class="cls-1" width="150" height="45.91"/><path d="M41.26,23.92q-.09,3-1.47,4.2a4.72,4.72,0,0,1-3.3,1.25,5.2,5.2,0,0,1-3.76-1.52Q31.17,26.34,31.17,23q0-3.66,1.51-5.45a4.86,4.86,0,0,1,3.9-1.79,4.37,4.37,0,0,1,4.59,4.9h-2a4.34,4.34,0,0,0-.64-2.57,2.26,2.26,0,0,0-1.93-.85,2.71,2.71,0,0,0-2.34,1.28,8,8,0,0,0-.87,4.32,6.62,6.62,0,0,0,.87,3.93,2.71,2.71,0,0,0,2.25,1.13,2.52,2.52,0,0,0,1.83-.82,4.46,4.46,0,0,0,.83-3.15Z"/><path d="M53.37,29.21H51.16l-1.28-4.12h-4l-1.29,4.12h-2.2L47,15.75h1.83Zm-3.95-5.6L48,18.86h-.18L46.3,23.61Z"/><path d="M64.37,25.32a3.9,3.9,0,0,1-1.14,3,5.13,5.13,0,0,1-3.63,1.09A5.11,5.11,0,0,1,56,28.28a3.87,3.87,0,0,1-1.15-3V15.9h2.11v9.42a2.39,2.39,0,0,0,.74,1.95,3.3,3.3,0,0,0,3.85,0,2.41,2.41,0,0,0,.73-1.95V15.9h2.11Z"/><path d="M76,17.38H72.35V29.21H70.24V17.38H66.57V15.9H76Z"/><path d="M84.09,29.21H82V15.9h2.11Z"/><path d="M99.87,22.52c0,2.44-.45,4.19-1.33,5.25a4.56,4.56,0,0,1-3.72,1.6,4.69,4.69,0,0,1-3.76-1.6q-1.36-1.59-1.37-5.25t1.37-5.22a4.78,4.78,0,0,1,3.76-1.55,4.64,4.64,0,0,1,3.72,1.55C99.42,18.34,99.87,20.08,99.87,22.52Zm-2.2,0c0-2.18-.28-3.61-.83-4.28a2.54,2.54,0,0,0-2-1,2.66,2.66,0,0,0-2.06,1c-.59.67-.87,2.1-.87,4.28s.28,3.62.87,4.32a2.61,2.61,0,0,0,2.06,1.05,2.5,2.5,0,0,0,2-1.05C97.39,26.14,97.67,24.7,97.67,22.52Z"/><path d="M111.24,29.21H109l-5-9.65h-.09v9.65H101.7V15.9H104L109,25.55h.09V15.9h2.11Z"/><rect class="cls-2" x="3.93" y="4.63" width="142.13" height="35.61" rx="3.21"/><path class="cls-3" d="M50.68,22.42c0,2.21-.58,3.78-1.76,4.72a7.41,7.41,0,0,1-4.76,1.41H41.08V16.21h3.08c2.23,0,3.89.48,4.94,1.44S50.68,20.21,50.68,22.42Zm-2.17,0a5.21,5.21,0,0,0-1.09-3.76,4.44,4.44,0,0,0-3.26-1.08h-1v9.6h1a4.51,4.51,0,0,0,3.26-1.05C48.15,25.44,48.51,24.2,48.51,22.42Z"/><path class="cls-3" d="M62.82,28.55H60.65l-1.27-3.83h-4l-1.26,3.83H52l4.53-12.48h1.81Zm-3.89-5.2L57.48,19H57.3l-1.45,4.4Z"/><path class="cls-3" d="M73.6,28.55H71.33l-5-8.95h-.09v9H64.18V16.21h2.26l5,9h.09V16.21H73.6Z"/><path class="cls-3" d="M85.19,28.69H83.65l-.27-1a2.67,2.67,0,0,1-1.14.72,4.51,4.51,0,0,1-1.67.29,4.83,4.83,0,0,1-3.4-1.41c-1-.93-1.49-2.43-1.49-4.5A7.85,7.85,0,0,1,77,17.73a4.52,4.52,0,0,1,3.71-1.66A4.32,4.32,0,0,1,84,17.29a4.43,4.43,0,0,1,1.18,3.18h-2a3.47,3.47,0,0,0-.64-2.27,2.22,2.22,0,0,0-1.81-.76,2.38,2.38,0,0,0-2.17,1.19,8,8,0,0,0-.73,4,5.62,5.62,0,0,0,.91,3.68,2.71,2.71,0,0,0,2.08,1,2.51,2.51,0,0,0,1.86-.69,2.9,2.9,0,0,0,.68-2.12v-.8H80.57V22.34h4.62Z"/><path class="cls-3" d="M97,28.55H87.72V16.21h8.79v1.37h-6.7v3.83H96v1.37H89.81v4.4H97Z"/><path class="cls-3" d="M108.92,28.55h-2.18l-3.26-5.34h-2.35v5.34H99V16.21h4.53a6.71,6.71,0,0,1,3.53.83,2.93,2.93,0,0,1,1.36,2.71,2.8,2.8,0,0,1-.9,2.23,4.22,4.22,0,0,1-2.09,1Zm-2.54-8.8a1.89,1.89,0,0,0-.77-1.59,4.25,4.25,0,0,0-2.49-.58h-2v4.26h2.53a3.74,3.74,0,0,0,1.9-.47A1.7,1.7,0,0,0,106.38,19.75Z"/></g></g></g></svg>