<svg xmlns="http://www.w3.org/2000/svg" viewBox="0 0 150.48 34.51"><defs><style>.cls-1{fill:#f08300;stroke:#000;stroke-miterlimit:10;stroke-width:0.5px;}.cls-2{opacity:0.2;}</style></defs><title>Small warning sign（小型警告标志）</title><g id="图层_2" data-name="图层 2"><g id="图层_28" data-name="图层 28"><g id="Small_warning_sign_小型警告标志_" data-name="Small warning sign（小型警告标志）"><rect class="cls-1" x="0.25" y="0.25" width="149.98" height="34.01"/><path d="M51.18,10.69,49.51,21.25H48l-1.37-7.81h-.15l-1.37,7.81H43.57L41.89,10.69h1.68l.83,6.65h.16l1.14-6.65h1.67l1.15,6.65h.15l.84-6.65Z"/><path d="M60.93,21.12H59.1L58,17.89H54.68l-1.06,3.23H51.79L55.6,10.57h1.52Zm-3.28-4.39L56.43,13h-.15l-1.22,3.72Z"/><path d="M70.44,21.12H68.62l-2.74-4.51h-2v4.51H62.14V10.69H66a5.68,5.68,0,0,1,3,.7,2.48,2.48,0,0,1,1.14,2.29,2.36,2.36,0,0,1-.76,1.89,3.65,3.65,0,0,1-1.75.86Zm-2.13-7.44a1.6,1.6,0,0,0-.65-1.34,3.48,3.48,0,0,0-2.09-.49H63.9v3.6H66a3.09,3.09,0,0,0,1.6-.4A1.45,1.45,0,0,0,68.31,13.68Z"/><path d="M79.73,21.12h-1.9l-4.19-7.56h-.07v7.56H71.81V10.69h1.91l4.19,7.57H78V10.69h1.75Z"/><path d="M86.43,21.12H84.68V10.69h1.75Z"/><path d="M99.22,21.12h-1.9l-4.19-7.56h-.07v7.56H91.31V10.69h1.9l4.19,7.57h.07V10.69h1.75Z"/><path d="M109,21.25h-1.29l-.23-.86a2.27,2.27,0,0,1-1,.61,3.88,3.88,0,0,1-1.41.25,4.06,4.06,0,0,1-2.86-1.19A5.06,5.06,0,0,1,101,16.24,6.7,6.7,0,0,1,102.12,12a3.82,3.82,0,0,1,3.12-1.4,3.61,3.61,0,0,1,2.74,1,3.71,3.71,0,0,1,1,2.68H107.3a3,3,0,0,0-.54-1.92,1.85,1.85,0,0,0-1.52-.64,2,2,0,0,0-1.83,1,6.85,6.85,0,0,0-.61,3.38,4.8,4.8,0,0,0,.76,3.11,2.27,2.27,0,0,0,1.76.86,2.09,2.09,0,0,0,1.56-.58,2.49,2.49,0,0,0,.57-1.8V17h-2.36V15.88H109Z"/></g></g></g></svg>