<svg xmlns="http://www.w3.org/2000/svg" xmlns:xlink="http://www.w3.org/1999/xlink" viewBox="0 0 100.93 150"><defs><style>.cls-1{fill:url(#未命名的渐变_61);}.cls-2{fill:url(#未命名的渐变_5);}.cls-3{fill:url(#未命名的渐变_5-2);}.cls-4{fill:url(#未命名的渐变_5-3);}.cls-5{fill:url(#未命名的渐变_15);}.cls-6{fill:url(#未命名的渐变_20);}.cls-7{fill:url(#未命名的渐变_20-2);}.cls-8{fill:url(#未命名的渐变_20-3);}.cls-9{fill:url(#未命名的渐变_20-4);}.cls-10{fill:url(#未命名的渐变_20-5);}.cls-11{fill:url(#未命名的渐变_59);}.cls-12{fill:url(#未命名的渐变_19);}.cls-13{fill:url(#未命名的渐变_323);}.cls-14,.cls-22{fill:#fff;}.cls-14{opacity:0.6;}.cls-15{fill:url(#未命名的渐变_241);}.cls-16{fill:#a3b372;}.cls-17{fill:#646e46;}.cls-18,.cls-20,.cls-21{stroke:#505458;stroke-miterlimit:10;stroke-width:0.08px;}.cls-18{fill:url(#未命名的渐变_303);}.cls-19{fill:#505458;}.cls-20{fill:url(#未命名的渐变_303-2);}.cls-21{fill:url(#未命名的渐变_303-3);}.cls-22{opacity:0.1;}.cls-23{fill:url(#未命名的渐变_15-2);}.cls-24{fill:url(#未命名的渐变_15-3);}.cls-25,.cls-27{opacity:0.2;}.cls-25{fill:url(#未命名的渐变_62);}.cls-26{fill:#6b7076;opacity:0.5;}</style><linearGradient id="未命名的渐变_61" x1="47.6" y1="59.87" x2="53.06" y2="59.87" gradientUnits="userSpaceOnUse"><stop offset="0" stop-color="#a9b1bb"/><stop offset="0.06" stop-color="#5d6166"/><stop offset="0.78" stop-color="#e2eaf2"/><stop offset="0.93" stop-color="#9ba1ab"/><stop offset="1" stop-color="#767b82"/></linearGradient><linearGradient id="未命名的渐变_5" x1="-532.55" y1="-513.63" x2="-532.55" y2="-527.25" gradientTransform="matrix(1, 0, 0, 1, 582.87, 580.31)" gradientUnits="userSpaceOnUse"><stop offset="0" stop-color="#676b70"/><stop offset="0.05" stop-color="#484b4d"/><stop offset="0.26" stop-color="#747980"/><stop offset="0.3" stop-color="#d1d5db"/><stop offset="0.44" stop-color="#cad1db"/><stop offset="0.7" stop-color="#c7cfdb"/><stop offset="0.73" stop-color="#edf5ff"/><stop offset="0.77" stop-color="#c3c7cc"/><stop offset="1" stop-color="#929599"/></linearGradient><linearGradient id="未命名的渐变_5-2" x1="-536.98" y1="-516.26" x2="-536.98" y2="-524.62" gradientTransform="translate(587.31 575.89)" xlink:href="#未命名的渐变_5"/><linearGradient id="未命名的渐变_5-3" x1="-528.02" y1="-516.26" x2="-528.02" y2="-524.62" gradientTransform="translate(578.35 584.85)" xlink:href="#未命名的渐变_5"/><linearGradient id="未命名的渐变_15" x1="41.65" y1="76.7" x2="59.43" y2="76.7" gradientTransform="matrix(1, 0, 0, -2.73, 0, 253.36)" gradientUnits="userSpaceOnUse"><stop offset="0" stop-color="#767b82"/><stop offset="0.08" stop-color="#b9c0cc"/><stop offset="0.91" stop-color="#b9c0cc"/><stop offset="0.96" stop-color="#d7dce0"/><stop offset="0.98" stop-color="#767b82"/></linearGradient><linearGradient id="未命名的渐变_20" x1="50.54" y1="78.4" x2="50.54" y2="83.8" gradientUnits="userSpaceOnUse"><stop offset="0" stop-color="#767b82"/><stop offset="0.07" stop-color="#9ba1ab"/><stop offset="0.22" stop-color="#e2eaf2"/><stop offset="0.94" stop-color="#5d6166"/><stop offset="1" stop-color="#a9b1bb"/></linearGradient><linearGradient id="未命名的渐变_20-2" x1="69.54" y1="2.03" x2="69.54" y2="14.38" xlink:href="#未命名的渐变_20"/><linearGradient id="未命名的渐变_20-3" x1="31.02" y1="2.03" x2="31.02" y2="14.38" xlink:href="#未命名的渐变_20"/><linearGradient id="未命名的渐变_20-4" x1="2.26" y1="66.77" x2="2.26" y2="95.44" xlink:href="#未命名的渐变_20"/><linearGradient id="未命名的渐变_20-5" x1="98.67" y1="66.77" x2="98.67" y2="95.44" xlink:href="#未命名的渐变_20"/><linearGradient id="未命名的渐变_59" x1="61.89" y1="-3.8" x2="38.77" y2="19.32" gradientUnits="userSpaceOnUse"><stop offset="0" stop-color="#d7dce0"/><stop offset="1" stop-color="#8a9099"/></linearGradient><linearGradient id="未命名的渐变_19" x1="53.09" y1="25.92" x2="43.99" y2="16.82" gradientUnits="userSpaceOnUse"><stop offset="0" stop-color="#e6f1ff" stop-opacity="0"/><stop offset="0.26" stop-color="#e6f1ff" stop-opacity="0.01"/><stop offset="0.4" stop-color="#e6f1ff" stop-opacity="0.04"/><stop offset="0.51" stop-color="#e7f1ff" stop-opacity="0.09"/><stop offset="0.6" stop-color="#e7f2ff" stop-opacity="0.17"/><stop offset="0.69" stop-color="#e8f2ff" stop-opacity="0.26"/><stop offset="0.76" stop-color="#e9f2ff" stop-opacity="0.38"/><stop offset="0.83" stop-color="#eaf3ff" stop-opacity="0.53"/><stop offset="0.9" stop-color="#ecf3ff" stop-opacity="0.69"/><stop offset="0.96" stop-color="#edf4ff" stop-opacity="0.87"/><stop offset="1" stop-color="#eef4ff"/></linearGradient><linearGradient id="未命名的渐变_323" x1="50.34" y1="46.32" x2="50.34" gradientUnits="userSpaceOnUse"><stop offset="0" stop-color="#5c6066"/><stop offset="1" stop-color="#f5faff"/></linearGradient><linearGradient id="未命名的渐变_241" x1="50.34" y1="39.98" x2="50.34" y2="6.34" gradientUnits="userSpaceOnUse"><stop offset="0" stop-color="#494a4d"/><stop offset="1" stop-color="#17181a"/></linearGradient><linearGradient id="未命名的渐变_303" x1="801.48" y1="177.41" x2="801.48" y2="178.97" gradientTransform="translate(-642.19 485.25) rotate(-45)" gradientUnits="userSpaceOnUse"><stop offset="0" stop-color="#9ba1ab"/><stop offset="0" stop-color="#abb1ba"/><stop offset="0.09" stop-color="#abb1ba"/><stop offset="0.46" stop-color="#f5faff"/><stop offset="1" stop-color="#a9b1bb"/></linearGradient><linearGradient id="未命名的渐变_303-2" x1="786.14" y1="-671.23" x2="786.14" y2="-669.66" gradientTransform="translate(-1000.92 -58.79) rotate(45)" xlink:href="#未命名的渐变_303"/><linearGradient id="未命名的渐变_303-3" x1="816.55" y1="-701.64" x2="816.55" y2="-700.08" gradientTransform="translate(-1000.92 -58.79) rotate(45)" xlink:href="#未命名的渐变_303"/><linearGradient id="未命名的渐变_15-2" x1="13.58" y1="62.82" x2="87.5" y2="62.82" xlink:href="#未命名的渐变_15"/><linearGradient id="未命名的渐变_15-3" x1="19.19" y1="49.2" x2="81.9" y2="49.2" xlink:href="#未命名的渐变_15"/><linearGradient id="未命名的渐变_62" x1="50.54" y1="55" x2="50.54" y2="60.57" gradientTransform="matrix(1, 0, 0, -2.73, 0, 253.36)" gradientUnits="userSpaceOnUse"><stop offset="0" stop-color="#9ba1ab" stop-opacity="0"/><stop offset="1" stop-color="#2e3033"/></linearGradient></defs><title>Smart coriolis mass flowmeter(智能科氏质量流量计)</title><g id="图层_2" data-name="图层 2"><g id="图层_16" data-name="图层 16"><g id="Smart_coriolis_mass_flowmeter_智能科氏质量流量计_" data-name="Smart coriolis mass flowmeter(智能科氏质量流量计)"><rect class="cls-1" x="47.6" y="44" width="5.46" height="31.74"/><rect class="cls-2" x="47.51" y="53.06" width="5.65" height="13.62" transform="translate(110.2 9.54) rotate(90)"/><rect class="cls-3" x="48.62" y="51.26" width="3.42" height="8.37" transform="translate(105.78 5.11) rotate(90)"/><rect class="cls-4" x="48.62" y="60.22" width="3.42" height="8.37" transform="translate(114.74 14.07) rotate(90)"/><rect class="cls-5" x="41.65" y="37.58" width="17.78" height="12.31"/><rect class="cls-6" x="4.53" y="78.4" width="92.03" height="5.39"/><rect class="cls-7" x="65.69" y="2.03" width="7.69" height="12.36"/><rect class="cls-8" x="27.18" y="2.03" width="7.69" height="12.36"/><rect class="cls-9" y="66.77" width="4.53" height="28.67"/><rect class="cls-10" x="96.4" y="66.77" width="4.53" height="28.67"/><rect class="cls-11" x="34.97" width="30.72" height="15.52"/><polygon class="cls-12" points="41.23 26.74 41.23 19.58 59.43 19.58 41.23 26.74"/><path class="cls-13" d="M73.42,21.3A23.16,23.16,0,0,0,52.41.1,20.41,20.41,0,0,0,50.33,0q-.84,0-1.65.06A23.17,23.17,0,0,0,27.25,21.3c-.05.61-.07,1.24-.07,1.86s0,1.25.07,1.86A23.15,23.15,0,0,0,48.68,46.26q.81.06,1.65.06c.7,0,1.4,0,2.08-.09A23.18,23.18,0,0,0,73.42,25c0-.61.08-1.23.08-1.86S73.47,21.91,73.42,21.3ZM50.33,40A16.82,16.82,0,1,1,67.16,23.16,16.84,16.84,0,0,1,50.33,40Z"/><path class="cls-14" d="M73.5,23.16c0,.63,0,1.25-.08,1.86H69.84A19.64,19.64,0,0,1,52.41,42.64v3.59c-.68.06-1.38.09-2.08.09s-1.11,0-1.65-.06V42.68A19.64,19.64,0,0,1,30.83,25H27.25c-.05-.61-.07-1.23-.07-1.86s0-1.25.07-1.86h3.58A19.64,19.64,0,0,1,48.68,3.64V.06Q49.49,0,50.33,0a20.41,20.41,0,0,1,2.08.1V3.68A19.65,19.65,0,0,1,69.84,21.3h3.58C73.47,21.91,73.5,22.54,73.5,23.16Z"/><path class="cls-15" d="M67.16,23.16A16.83,16.83,0,1,1,50.33,6.34,16.85,16.85,0,0,1,67.16,23.16Z"/><rect class="cls-16" x="41.03" y="19.38" width="18.61" height="7.57"/><path class="cls-17" d="M59.43,19.58v7.16H41.23V19.58h18.2m.41-.41h-19v8h19v-8Z"/><circle class="cls-18" cx="50.54" cy="44.52" r="0.78"/><path class="cls-19" d="M50.16,44.81l.31-.3-.31-.31.07-.06.3.3.31-.3,0,0-.3.31.33.33-.06.07-.34-.34-.3.31Z"/><circle class="cls-20" cx="29.04" cy="23.02" r="0.78"/><path class="cls-19" d="M28.75,22.64l.3.3.3-.3.07.06-.31.3.31.31-.06.05-.3-.3-.33.33-.07-.06L29,23l-.31-.31Z"/><circle class="cls-21" cx="72.05" cy="23.02" r="0.78"/><path class="cls-19" d="M71.75,22.64l.31.3.3-.3.07.06-.31.3.31.31-.06.05-.3-.3-.34.33-.06-.06L72,23l-.3-.31Z"/><path class="cls-22" d="M62.28,11.3c-.23.51-.46,1-.71,1.51A46.19,46.19,0,0,1,40,34.39c-.38.19-.77.37-1.16.54l-.34.16A16.82,16.82,0,1,1,62.28,11.3Z"/><path class="cls-22" d="M61.57,12.81A46.19,46.19,0,0,1,40,34.39c-6-6.35-6.18-16.07-.34-21.91S55.22,6.82,61.57,12.81Z"/><rect class="cls-23" x="13.58" y="75.51" width="73.92" height="12.31"/><rect class="cls-24" x="19.19" y="87.82" width="62.71" height="62.18"/><rect class="cls-25" x="19.19" y="87.82" width="62.71" height="15.23"/><polygon class="cls-26" points="60.82 81.78 55.95 79.27 55.95 80.32 41.03 80.32 41.03 83.24 55.95 83.24 55.95 84.29 60.82 81.78"/></g></g></g></svg>