<svg xmlns="http://www.w3.org/2000/svg" xmlns:xlink="http://www.w3.org/1999/xlink" viewBox="0 0 126.56 150"><defs><style>.cls-1{fill:url(#未命名的渐变_105);}.cls-2{fill:url(#未命名的渐变_105-2);}.cls-3{fill:url(#未命名的渐变_105-3);}.cls-4{fill:url(#未命名的渐变_105-4);}.cls-5{fill:url(#未命名的渐变_105-5);}.cls-6{fill:url(#未命名的渐变_105-6);}.cls-7{fill:url(#未命名的渐变_105-7);}.cls-8{fill:url(#未命名的渐变_105-8);}.cls-9{fill:url(#未命名的渐变_105-9);}.cls-10{fill:url(#未命名的渐变_105-10);}.cls-11{fill:url(#未命名的渐变_67);}.cls-12{fill:url(#未命名的渐变_67-2);}.cls-13{fill:url(#未命名的渐变_67-3);}.cls-14{fill:url(#未命名的渐变_67-4);}.cls-15{fill:url(#未命名的渐变_67-5);}.cls-16{fill:url(#未命名的渐变_67-6);}.cls-17{fill:url(#未命名的渐变_67-7);}.cls-18{opacity:0.2;}</style><linearGradient id="未命名的渐变_105" x1="51.67" y1="75" x2="74.66" y2="75" gradientUnits="userSpaceOnUse"><stop offset="0" stop-color="#e2e2e2"/><stop offset="0.03" stop-color="#d0d0d0"/><stop offset="0.06" stop-color="#bcbcbc"/><stop offset="0.09" stop-color="#b5b5b5"/><stop offset="0.49" stop-color="#f6f6f6"/><stop offset="0.63" stop-color="#f3f3f3"/><stop offset="0.73" stop-color="#eaeaea"/><stop offset="0.82" stop-color="#dbdbdb"/><stop offset="0.9" stop-color="#c6c6c6"/><stop offset="0.97" stop-color="#aaa"/><stop offset="1" stop-color="#9b9b9b"/></linearGradient><linearGradient id="未命名的渐变_105-2" x1="2.09" y1="76.9" x2="124.45" y2="76.9" xlink:href="#未命名的渐变_105"/><linearGradient id="未命名的渐变_105-3" x1="63.67" y1="24.07" x2="63.67" y2="21.43" xlink:href="#未命名的渐变_105"/><linearGradient id="未命名的渐变_105-4" x1="63.28" y1="131.4" x2="63.28" y2="128.76" xlink:href="#未命名的渐变_105"/><linearGradient id="未命名的渐变_105-5" x1="63.28" y1="113.76" x2="63.28" y2="111.12" xlink:href="#未命名的渐变_105"/><linearGradient id="未命名的渐变_105-6" x1="63.28" y1="95.91" x2="63.28" y2="93.27" xlink:href="#未命名的渐变_105"/><linearGradient id="未命名的渐变_105-7" x1="63.28" y1="78.63" x2="63.28" y2="75.99" xlink:href="#未命名的渐变_105"/><linearGradient id="未命名的渐变_105-8" x1="63.28" y1="60.07" x2="63.28" y2="57.43" xlink:href="#未命名的渐变_105"/><linearGradient id="未命名的渐变_105-9" x1="63.28" y1="41.5" x2="63.28" y2="38.86" xlink:href="#未命名的渐变_105"/><linearGradient id="未命名的渐变_105-10" x1="-515.8" y1="-32.1" x2="-515.8" y2="-33.23" gradientTransform="matrix(1, 0, 0, -3.25, 578.97, -29.7)" xlink:href="#未命名的渐变_105"/><linearGradient id="未命名的渐变_67" x1="63.16" y1="24.98" x2="63.16" y2="19.88" gradientUnits="userSpaceOnUse"><stop offset="0" stop-color="#6b6b6b"/><stop offset="0.11" stop-color="#767676"/><stop offset="0.3" stop-color="#959595"/><stop offset="0.41" stop-color="#aaa"/><stop offset="0.56" stop-color="#ccc"/><stop offset="0.71" stop-color="#eaeaea"/><stop offset="0.8" stop-color="#f6f6f6"/><stop offset="0.83" stop-color="#ededed"/><stop offset="0.87" stop-color="#d4d4d4"/><stop offset="0.92" stop-color="#ababab"/><stop offset="0.98" stop-color="#737373"/><stop offset="0.99" stop-color="#666"/></linearGradient><linearGradient id="未命名的渐变_67-2" x1="63.16" y1="42.73" x2="63.16" y2="37.63" xlink:href="#未命名的渐变_67"/><linearGradient id="未命名的渐变_67-3" x1="63.16" y1="61.3" x2="63.16" y2="56.2" xlink:href="#未命名的渐变_67"/><linearGradient id="未命名的渐变_67-4" x1="63.16" y1="79.46" x2="63.16" y2="74.36" xlink:href="#未命名的渐变_67"/><linearGradient id="未命名的渐变_67-5" x1="63.21" y1="97.62" x2="63.21" y2="92.52" xlink:href="#未命名的渐变_67"/><linearGradient id="未命名的渐变_67-6" x1="63.16" y1="115.15" x2="63.16" y2="110.05" xlink:href="#未命名的渐变_67"/><linearGradient id="未命名的渐变_67-7" x1="63.21" y1="132.67" x2="63.21" y2="127.57" xlink:href="#未命名的渐变_67"/></defs><title>Spherical tank with rivets（带铆钉的球罐）</title><g id="图层_2" data-name="图层 2"><g id="图层_104" data-name="图层 104"><g id="Spherical_tank_with_rivets_带铆钉的球罐_" data-name="Spherical tank with rivets（带铆钉的球罐）"><rect class="cls-1" x="51.67" width="22.99" height="150"/><ellipse class="cls-2" cx="63.27" cy="76.9" rx="61.18" ry="65.65"/><path class="cls-3" d="M99.68,21.43H26.88c-.86.64-1.68,1.32-2.5,2v.63H103C101.91,23.15,100.8,22.28,99.68,21.43Z"/><path class="cls-4" d="M25.63,131.4h75.29c1.08-.85,2.15-1.71,3.17-2.64H22.46C23.49,129.69,24.56,130.55,25.63,131.4Z"/><path class="cls-5" d="M10.17,113.76H116.38c.52-.86,1-1.75,1.5-2.64H8.68C9.16,112,9.65,112.9,10.17,113.76Z"/><path class="cls-6" d="M2.56,95.91H124c.23-.86.43-1.75.63-2.64H1.93C2.13,94.16,2.32,95.05,2.56,95.91Z"/><path class="cls-7" d="M0,76.91c0,.58.07,1.15.08,1.72h126.4c0-.57.08-1.14.08-1.72,0-.31,0-.61,0-.92H0C0,76.3,0,76.6,0,76.91Z"/><path class="cls-8" d="M2,60.07H124.51c-.21-.88-.39-1.78-.63-2.64H2.68C2.43,58.29,2.25,59.19,2,60.07Z"/><path class="cls-9" d="M9.36,41.5H117.2c-.51-.88-1-1.79-1.51-2.64H10.87C10.33,39.71,9.86,40.62,9.36,41.5Z"/><rect class="cls-10" x="-3.45" y="74.52" width="133.23" height="3.66" transform="translate(139.51 13.19) rotate(90)"/><circle class="cls-11" cx="63.16" cy="22.43" r="2.55"/><circle class="cls-12" cx="63.16" cy="40.18" r="2.55"/><circle class="cls-13" cx="63.16" cy="58.75" r="2.55"/><circle class="cls-14" cx="63.16" cy="76.91" r="2.55"/><circle class="cls-15" cx="63.21" cy="95.07" r="2.55"/><circle class="cls-16" cx="63.16" cy="112.6" r="2.55"/><circle class="cls-17" cx="63.21" cy="130.12" r="2.55"/></g></g></g></svg>