<svg xmlns="http://www.w3.org/2000/svg" xmlns:xlink="http://www.w3.org/1999/xlink" viewBox="0 0 119.46 150"><defs><style>.cls-1{fill:url(#未命名的渐变_105);}.cls-2{fill:url(#未命名的渐变_105-3);}.cls-3{fill:url(#未命名的渐变_105-4);}.cls-4{fill:url(#未命名的渐变_105-5);}.cls-5{fill:url(#未命名的渐变_105-6);}.cls-6{fill:url(#未命名的渐变_105-7);}.cls-7{fill:url(#未命名的渐变_105-8);}.cls-8{fill:url(#未命名的渐变_105-9);}.cls-9{fill:#dadbe0;}.cls-10{fill:url(#未命名的渐变_105-10);}.cls-11{fill:url(#未命名的渐变_105-11);}.cls-12{fill:url(#未命名的渐变_105-12);}.cls-13{fill:url(#未命名的渐变_105-13);}.cls-14{fill:url(#未命名的渐变_105-14);}.cls-15{opacity:0.2;}</style><linearGradient id="未命名的渐变_105" x1="5.86" y1="57.3" x2="112.65" y2="57.3" gradientUnits="userSpaceOnUse"><stop offset="0" stop-color="#e2e2e2"/><stop offset="0.03" stop-color="#d0d0d0"/><stop offset="0.06" stop-color="#bcbcbc"/><stop offset="0.09" stop-color="#b5b5b5"/><stop offset="0.49" stop-color="#f6f6f6"/><stop offset="0.63" stop-color="#f3f3f3"/><stop offset="0.73" stop-color="#eaeaea"/><stop offset="0.82" stop-color="#dbdbdb"/><stop offset="0.9" stop-color="#c6c6c6"/><stop offset="0.97" stop-color="#aaa"/><stop offset="1" stop-color="#9b9b9b"/></linearGradient><linearGradient id="未命名的渐变_105-3" x1="59.61" y1="11.19" x2="59.61" y2="8.89" xlink:href="#未命名的渐变_105"/><linearGradient id="未命名的渐变_105-4" x1="59.26" y1="104.87" x2="59.26" y2="102.56" xlink:href="#未命名的渐变_105"/><linearGradient id="未命名的渐变_105-5" x1="59.26" y1="89.47" x2="59.26" y2="87.17" xlink:href="#未命名的渐变_105"/><linearGradient id="未命名的渐变_105-6" x1="59.26" y1="73.89" x2="59.26" y2="71.59" xlink:href="#未命名的渐变_105"/><linearGradient id="未命名的渐变_105-7" x1="59.26" y1="58.81" x2="59.26" y2="56.51" xlink:href="#未命名的渐变_105"/><linearGradient id="未命名的渐变_105-8" x1="59.26" y1="42.61" x2="59.26" y2="40.3" xlink:href="#未命名的渐变_105"/><linearGradient id="未命名的渐变_105-9" x1="59.26" y1="26.41" x2="59.26" y2="24.1" xlink:href="#未命名的渐变_105"/><linearGradient id="未命名的渐变_105-10" x1="-314.81" y1="-103.69" x2="-314.81" y2="-105" gradientTransform="matrix(1, 0, 0, -3.25, 320.41, -236.64)" xlink:href="#未命名的渐变_105"/><linearGradient id="未命名的渐变_105-11" x1="-314.81" y1="-97.18" x2="-314.81" y2="-98.49" gradientTransform="matrix(1, 0, 0, -3.25, 341.55, -215.5)" xlink:href="#未命名的渐变_105"/><linearGradient id="未命名的渐变_105-12" x1="-314.81" y1="-87.09" x2="-314.81" y2="-88.4" gradientTransform="matrix(1, 0, 0, -3.25, 374.31, -182.74)" xlink:href="#未命名的渐变_105"/><linearGradient id="未命名的渐变_105-13" x1="-314.81" y1="-77.12" x2="-314.81" y2="-78.43" gradientTransform="matrix(1, 0, 0, -3.25, 406.69, -150.35)" xlink:href="#未命名的渐变_105"/><linearGradient id="未命名的渐变_105-14" x1="-314.81" y1="-70.56" x2="-314.81" y2="-71.87" gradientTransform="matrix(1, 0, 0, -3.25, 427.99, -129.05)" xlink:href="#未命名的渐变_105"/></defs><title>Spherical tank（球罐）</title><g id="图层_2" data-name="图层 2"><g id="图层_104" data-name="图层 104"><g id="Spherical_tank_球罐_" data-name="Spherical tank（球罐）"><ellipse class="cls-1" cx="59.25" cy="57.3" rx="53.4" ry="57.3"/><ellipse class="cls-1" cx="59.25" cy="57.3" rx="53.4" ry="57.3"/><path class="cls-2" d="M91,8.89H27.49c-.74.56-1.46,1.15-2.18,1.75v.55h68.6C93,10.39,92,9.63,91,8.89Z"/><path class="cls-3" d="M26.41,104.87H92.12c.94-.75,1.87-1.5,2.76-2.31H23.64C24.53,103.37,25.47,104.12,26.41,104.87Z"/><path class="cls-4" d="M12.92,89.47h92.69c.46-.75.88-1.53,1.31-2.3H11.61C12,87.94,12.46,88.72,12.92,89.47Z"/><path class="cls-5" d="M6.27,73.89h106c.2-.75.37-1.53.55-2.3H5.72C5.89,72.36,6.06,73.14,6.27,73.89Z"/><path class="cls-6" d="M4,57.31c0,.51,0,1,.07,1.5H114.42c0-.5.07-1,.07-1.5,0-.27,0-.53,0-.8H4.07C4.07,56.78,4,57,4,57.31Z"/><path class="cls-7" d="M5.82,42.61H112.71c-.19-.77-.34-1.55-.56-2.31H6.37C6.16,41.06,6,41.84,5.82,42.61Z"/><path class="cls-8" d="M12.21,26.41h94.11c-.44-.77-.84-1.56-1.31-2.31H13.52C13.05,24.85,12.65,25.64,12.21,26.41Z"/><rect class="cls-9" y="146.69" width="119.46" height="3.31"/><rect class="cls-10" x="-38.93" y="100.04" width="89.06" height="4.25" transform="translate(107.76 96.56) rotate(90)"/><rect class="cls-11" x="-17.79" y="100.04" width="89.06" height="4.25" transform="translate(128.9 75.42) rotate(90)"/><rect class="cls-12" x="14.97" y="100.04" width="89.06" height="4.25" transform="translate(161.66 42.66) rotate(90)"/><rect class="cls-13" x="47.35" y="100.04" width="89.06" height="4.25" transform="translate(194.04 10.28) rotate(90)"/><rect class="cls-14" x="68.65" y="100.04" width="89.06" height="4.25" transform="translate(215.34 -11.02) rotate(90)"/></g></g></g></svg>