<svg xmlns="http://www.w3.org/2000/svg" xmlns:xlink="http://www.w3.org/1999/xlink" viewBox="0 0 138.63 150"><defs><style>.cls-1{fill:url(#未命名的渐变_306);}.cls-2{fill:url(#未命名的渐变_397);}.cls-3{fill:url(#未命名的渐变_397-2);}.cls-4{fill:url(#未命名的渐变_397-3);}.cls-5{fill:url(#未命名的渐变_306-2);}.cls-6{fill:url(#未命名的渐变_306-3);}.cls-7{fill:url(#未命名的渐变_306-4);}.cls-8{fill:url(#未命名的渐变_397-4);}.cls-10,.cls-20,.cls-9{opacity:0.2;}.cls-9{fill:url(#未命名的渐变_376);}.cls-10{fill:url(#未命名的渐变_376-2);}.cls-11{fill:url(#未命名的渐变_251);}.cls-12{fill:url(#未命名的渐变_306-5);}.cls-13{fill:url(#未命名的渐变_306-6);}.cls-14{fill:url(#未命名的渐变_251-2);}.cls-15{fill:url(#未命名的渐变_251-3);}.cls-16{fill:url(#未命名的渐变_251-4);}.cls-17,.cls-18{stroke:#505458;stroke-miterlimit:10;stroke-width:0.25px;}.cls-17{fill:url(#未命名的渐变_204);}.cls-18{fill:url(#未命名的渐变_204-2);}.cls-19{fill:url(#未命名的渐变_306-7);}</style><linearGradient id="未命名的渐变_306" x1="-181.92" y1="285.17" x2="-185.68" y2="285.17" gradientTransform="translate(203.9 -167.85)" gradientUnits="userSpaceOnUse"><stop offset="0.02" stop-color="#767b82"/><stop offset="0.04" stop-color="#d7dce0"/><stop offset="0.09" stop-color="#9ba1ab"/><stop offset="0.92" stop-color="#9ba1ab"/><stop offset="1" stop-color="#767b82"/></linearGradient><linearGradient id="未命名的渐变_397" x1="39.45" y1="76.21" x2="3.27" y2="76.21" gradientUnits="userSpaceOnUse"><stop offset="0" stop-color="#767b82"/><stop offset="0.07" stop-color="#9ba1ab"/><stop offset="0.22" stop-color="#e2eaf2"/><stop offset="0.28" stop-color="#d1d8e0"/><stop offset="0.49" stop-color="#a1a7ae"/><stop offset="0.67" stop-color="#7e8489"/><stop offset="0.81" stop-color="#696e73"/><stop offset="0.91" stop-color="#61666b"/><stop offset="1" stop-color="#a9b1bb"/></linearGradient><linearGradient id="未命名的渐变_397-2" x1="30.6" y1="38.91" x2="12.12" y2="57.38" xlink:href="#未命名的渐变_397"/><linearGradient id="未命名的渐变_397-3" x1="89.51" y1="-5.18" x2="59.23" y2="25.09" xlink:href="#未命名的渐变_397"/><linearGradient id="未命名的渐变_306-2" x1="7.02" y1="112.94" x2="3.26" y2="112.94" gradientTransform="matrix(1, 0, 0, 1, 0, 0)" xlink:href="#未命名的渐变_306"/><linearGradient id="未命名的渐变_306-3" x1="39.45" y1="112.94" x2="35.69" y2="112.94" gradientTransform="matrix(1, 0, 0, 1, 0, 0)" xlink:href="#未命名的渐变_306"/><linearGradient id="未命名的渐变_306-4" x1="69.31" y1="138.82" x2="69.31" y2="150" gradientTransform="matrix(1, 0, 0, 1, 0, 0)" xlink:href="#未命名的渐变_306"/><linearGradient id="未命名的渐变_397-4" x1="104.34" y1="74.55" x2="44.41" y2="74.55" xlink:href="#未命名的渐变_397"/><linearGradient id="未命名的渐变_376" x1="74.37" y1="10.27" x2="74.37" y2="30.91" gradientUnits="userSpaceOnUse"><stop offset="0" stop-color="#2e3033"/><stop offset="1" stop-color="#9ba1ab" stop-opacity="0"/></linearGradient><linearGradient id="未命名的渐变_376-2" x1="21.36" y1="48.53" x2="21.36" y2="61.36" xlink:href="#未命名的渐变_376"/><linearGradient id="未命名的渐变_251" x1="100.83" y1="18.63" x2="100.83" y2="21.1" gradientUnits="userSpaceOnUse"><stop offset="0" stop-color="#767b82"/><stop offset="0.07" stop-color="#9ba1ab"/><stop offset="0.22" stop-color="#e2eaf2"/><stop offset="0.68" stop-color="#767b82"/><stop offset="1" stop-color="#a9b1bb"/></linearGradient><linearGradient id="未命名的渐变_306-5" x1="112.18" y1="15.91" x2="104.3" y2="15.91" gradientTransform="matrix(1, 0, 0, 1, 0, 0)" xlink:href="#未命名的渐变_306"/><linearGradient id="未命名的渐变_306-6" x1="116.21" y1="47.42" x2="104.3" y2="47.42" gradientTransform="matrix(1, 0, 0, 1, 0, 0)" xlink:href="#未命名的渐变_306"/><linearGradient id="未命名的渐变_251-2" x1="96.59" y1="484.57" x2="94.12" y2="484.57" gradientTransform="matrix(1, 0, 0, -0.54, -74, 372.11)" xlink:href="#未命名的渐变_251"/><linearGradient id="未命名的渐变_251-3" x1="-100.22" y1="87.02" x2="-102.69" y2="87.02" gradientTransform="matrix(1, 0, 0, -0.54, 159.9, 163.58)" xlink:href="#未命名的渐变_251"/><linearGradient id="未命名的渐变_251-4" x1="147.39" y1="518.89" x2="144.92" y2="518.89" gradientTransform="matrix(1, 0, 0, -0.54, -50.62, 347.47)" xlink:href="#未命名的渐变_251"/><linearGradient id="未命名的渐变_204" x1="22.27" y1="475.71" x2="22.27" y2="479.05" gradientTransform="matrix(1, 0, 0, -1, 0, 543.17)" gradientUnits="userSpaceOnUse"><stop offset="0" stop-color="#9ba1ab"/><stop offset="0" stop-color="#abb1ba"/><stop offset="0.09" stop-color="#abb1ba"/><stop offset="0.46" stop-color="#d7dce0"/><stop offset="1" stop-color="#a9b1bb"/></linearGradient><linearGradient id="未命名的渐变_204-2" x1="22.27" y1="466.58" x2="22.27" y2="469.92" xlink:href="#未命名的渐变_204"/><linearGradient id="未命名的渐变_306-7" x1="27.94" y1="100.07" x2="14.77" y2="100.07" gradientTransform="matrix(1, 0, 0, 1, 0, 0)" xlink:href="#未命名的渐变_306"/></defs><title>Steam boiler 1(蒸汽锅炉1)</title><g id="图层_2" data-name="图层 2"><g id="图层_21" data-name="图层 21"><g id="Steam_boiler_1_蒸汽锅炉1_" data-name="Steam boiler 1(蒸汽锅炉1)"><g id="IoT-Boliers_锅炉_-Steam_boiler_1_蒸汽锅炉1_" data-name="IoT-Boliers(锅炉)-Steam boiler 1(蒸汽锅炉1)"><rect class="cls-1" x="18.21" y="100.48" width="3.77" height="33.67" transform="translate(-97.22 137.42) rotate(-90)"/><rect class="cls-2" x="3.27" y="48.53" width="36.19" height="55.36"/><path class="cls-3" d="M39.45,48.53S36.94,41,21.36,41,3.27,48.53,3.27,48.53Z"/><path class="cls-4" d="M104.34,10.27S100.17,0,74.37,0s-30,10.27-30,10.27Z"/><rect class="cls-5" x="3.26" y="86.89" width="3.76" height="52.09"/><rect class="cls-6" x="35.69" y="86.89" width="3.76" height="52.09"/><rect class="cls-7" y="138.82" width="138.63" height="11.18"/><rect class="cls-8" x="44.41" y="10.27" width="59.93" height="128.55"/><rect class="cls-9" x="44.41" y="10.27" width="59.93" height="20.63"/><rect class="cls-10" x="3.27" y="48.53" width="36.19" height="12.84"/><rect class="cls-11" x="94.3" y="18.63" width="13.07" height="2.47" rx="1.24"/><rect class="cls-12" x="104.3" y="5.97" width="7.89" height="19.87"/><rect class="cls-13" x="104.3" y="33.47" width="11.91" height="27.89"/><rect class="cls-14" x="20.12" y="104.84" width="2.47" height="13.16" rx="1.08"/><rect class="cls-15" x="57.21" y="78.44" width="2.47" height="76.65" rx="1.24" transform="translate(-58.32 175.21) rotate(-90)"/><rect class="cls-16" x="94.3" y="18.63" width="2.47" height="99.37" rx="1.24"/><circle class="cls-17" cx="22.27" cy="65.79" r="1.67"/><circle class="cls-18" cx="22.27" cy="74.92" r="1.67"/><rect class="cls-19" x="14.77" y="93.48" width="13.17" height="13.17"/></g></g></g></g></svg>