<svg xmlns="http://www.w3.org/2000/svg" viewBox="0 0 146.43 150.25"><defs><style>.cls-1,.cls-3{fill:#fff;}.cls-1{stroke:#000;stroke-miterlimit:10;stroke-width:0.25px;}.cls-2{fill:#e90000;}.cls-4{opacity:0.2;}</style></defs><title>Stop sign（停车标志）</title><g id="图层_2" data-name="图层 2"><g id="图层_28" data-name="图层 28"><g id="Stop_sign_停车标志_" data-name="Stop sign（停车标志）"><polygon class="cls-1" points="103.49 0.13 42.94 0.13 0.13 44.06 0.13 106.19 42.94 150.13 103.49 150.13 146.31 106.19 146.31 44.06 103.49 0.13"/><polygon class="cls-2" points="101.21 5.76 45.22 5.76 5.62 46.4 5.62 103.86 45.22 144.49 101.21 144.49 140.81 103.86 140.81 46.4 101.21 5.76"/><path class="cls-3" d="M48.16,81.05a7.11,7.11,0,0,1-2.6,5.77A10.91,10.91,0,0,1,38.46,89a10.19,10.19,0,0,1-7-2.21,7,7,0,0,1-2.52-5.53V80.1h4.13v1a4.34,4.34,0,0,0,1.62,3.63A5.9,5.9,0,0,0,38.46,86a5.81,5.81,0,0,0,4.22-1.35A4.36,4.36,0,0,0,44,81.37a3.82,3.82,0,0,0-1.62-2.93A15.82,15.82,0,0,0,37.74,76a16.93,16.93,0,0,1-6.19-3.16,5.39,5.39,0,0,1-1.89-4.1,6.51,6.51,0,0,1,2.6-5.38,9.74,9.74,0,0,1,6.2-2.05c3.11,0,5.36.81,6.74,2.45A8.1,8.1,0,0,1,47.26,69H43.13a4.06,4.06,0,0,0-1.08-3.16,4.54,4.54,0,0,0-3.59-1.42,5.18,5.18,0,0,0-3.41,1,3.38,3.38,0,0,0-1.26,2.76,3.41,3.41,0,0,0,1,2.45c.65.69,2.36,1.5,5.12,2.45a17.86,17.86,0,0,1,6.1,3.4A6,6,0,0,1,48.16,81.05Z"/><path class="cls-3" d="M70.79,64.62H63.61v24H59.47v-24H52.29v-3h18.5Z"/><path class="cls-3" d="M94.5,75.05c0,5-.88,8.51-2.61,10.66A8.84,8.84,0,0,1,84.62,89a9.07,9.07,0,0,1-7.36-3.24q-2.7-3.22-2.7-10.66c0-5,.9-8.48,2.7-10.59a9.13,9.13,0,0,1,7.36-3.16,8.9,8.9,0,0,1,7.27,3.16C93.62,66.57,94.5,70.09,94.5,75.05Zm-4.31,0q0-6.64-1.62-8.69a4.88,4.88,0,0,0-3.95-2.06,5.1,5.1,0,0,0-4,2.06c-1.15,1.36-1.71,4.26-1.71,8.69s.56,7.34,1.71,8.76a5,5,0,0,0,4,2.14,4.81,4.81,0,0,0,3.95-2.14Q90.19,81.68,90.19,75.05Z"/><path class="cls-3" d="M117.49,69.83a7.61,7.61,0,0,1-2.52,6,10.22,10.22,0,0,1-7,2.21h-5.21V88.63H98.63v-27H108a10.22,10.22,0,0,1,7,2.21A7.58,7.58,0,0,1,117.49,69.83Zm-4.13,0c0-2-.54-3.37-1.62-4.11a8.7,8.7,0,0,0-4.85-1.1h-4.13V75.05h4.13a8.69,8.69,0,0,0,4.85-1.11C112.82,73.21,113.36,71.83,113.36,69.83Z"/></g></g></g></svg>