<svg xmlns="http://www.w3.org/2000/svg" xmlns:xlink="http://www.w3.org/1999/xlink" viewBox="0 0 150 100.14"><defs><style>.cls-1{fill:url(#未命名的渐变_105);}.cls-2{fill:url(#未命名的渐变_105-2);}.cls-3{fill:url(#未命名的渐变_105-3);}.cls-4{fill:url(#未命名的渐变_105-4);}.cls-5{fill:url(#未命名的渐变_105-5);}.cls-6{fill:url(#未命名的渐变_105-6);}.cls-7{fill:url(#未命名的渐变_105-7);}.cls-8{fill:url(#未命名的渐变_105-8);}.cls-9{fill:url(#未命名的渐变_105-9);}.cls-10{fill:url(#未命名的渐变_105-10);}.cls-11{fill:url(#未命名的渐变_105-11);}.cls-12{fill:url(#未命名的渐变_105-12);}.cls-13{fill:url(#未命名的渐变_105-13);}.cls-14{fill:url(#未命名的渐变_67);}.cls-15{fill:url(#未命名的渐变_67-2);}.cls-16{fill:url(#未命名的渐变_67-3);}.cls-17{fill:url(#未命名的渐变_67-4);}.cls-18{fill:url(#未命名的渐变_67-5);}.cls-19{fill:url(#未命名的渐变_67-6);}.cls-20{fill:url(#未命名的渐变_67-7);}.cls-21{fill:url(#未命名的渐变_67-8);}.cls-22{fill:url(#未命名的渐变_67-9);}.cls-23{fill:url(#未命名的渐变_67-10);}.cls-24{fill:url(#未命名的渐变_67-11);}.cls-25{fill:url(#未命名的渐变_67-12);}.cls-26{fill:url(#未命名的渐变_105-14);}.cls-27{fill:url(#未命名的渐变_67-13);}.cls-28{fill:url(#未命名的渐变_105-15);}.cls-29{fill:url(#未命名的渐变_67-14);}.cls-30{fill:url(#未命名的渐变_105-16);}.cls-31{fill:url(#未命名的渐变_67-15);}.cls-32{fill:url(#未命名的渐变_105-17);}.cls-33{fill:url(#未命名的渐变_67-16);}.cls-34{fill:url(#未命名的渐变_105-18);}.cls-35{fill:url(#未命名的渐变_67-17);}.cls-36{fill:url(#未命名的渐变_105-19);}.cls-37{fill:url(#未命名的渐变_67-18);}.cls-38{fill:url(#未命名的渐变_105-20);}.cls-39{fill:url(#未命名的渐变_67-19);}.cls-40{fill:url(#未命名的渐变_67-20);}.cls-41{fill:url(#未命名的渐变_67-21);}.cls-42{fill:url(#未命名的渐变_105-21);}.cls-43{fill:url(#未命名的渐变_105-22);}.cls-44{fill:url(#未命名的渐变_105-23);}.cls-45{opacity:0.2;}</style><linearGradient id="未命名的渐变_105" x1="2.22" y1="6.78" x2="4.59" y2="6.78" gradientUnits="userSpaceOnUse"><stop offset="0" stop-color="#e2e2e2"/><stop offset="0.03" stop-color="#d0d0d0"/><stop offset="0.06" stop-color="#bcbcbc"/><stop offset="0.09" stop-color="#b5b5b5"/><stop offset="0.49" stop-color="#f6f6f6"/><stop offset="0.63" stop-color="#f3f3f3"/><stop offset="0.73" stop-color="#eaeaea"/><stop offset="0.82" stop-color="#dbdbdb"/><stop offset="0.9" stop-color="#c6c6c6"/><stop offset="0.97" stop-color="#aaa"/><stop offset="1" stop-color="#9b9b9b"/></linearGradient><linearGradient id="未命名的渐变_105-2" x1="498.09" y1="-209.99" x2="500.19" y2="-209.99" gradientTransform="translate(-424.98 213.79)" xlink:href="#未命名的渐变_105"/><linearGradient id="未命名的渐变_105-3" x1="10.05" y1="6.78" x2="12.42" y2="6.78" xlink:href="#未命名的渐变_105"/><linearGradient id="未命名的渐变_105-4" x1="18.03" y1="6.78" x2="20.4" y2="6.78" xlink:href="#未命名的渐变_105"/><linearGradient id="未命名的渐变_105-5" x1="26.01" y1="6.78" x2="28.38" y2="6.78" xlink:href="#未命名的渐变_105"/><linearGradient id="未命名的渐变_105-6" x1="33.98" y1="6.78" x2="36.35" y2="6.78" xlink:href="#未命名的渐变_105"/><linearGradient id="未命名的渐变_105-7" x1="41.96" y1="6.78" x2="44.33" y2="6.78" xlink:href="#未命名的渐变_105"/><linearGradient id="未命名的渐变_105-8" x1="49.94" y1="6.78" x2="52.31" y2="6.78" xlink:href="#未命名的渐变_105"/><linearGradient id="未命名的渐变_105-9" x1="57.92" y1="6.78" x2="60.28" y2="6.78" xlink:href="#未命名的渐变_105"/><linearGradient id="未命名的渐变_105-10" x1="65.89" y1="6.78" x2="68.26" y2="6.78" xlink:href="#未命名的渐变_105"/><linearGradient id="未命名的渐变_105-11" x1="73.92" y1="6.78" x2="76.29" y2="6.78" xlink:href="#未命名的渐变_105"/><linearGradient id="未命名的渐变_105-12" x1="81.85" y1="6.78" x2="84.22" y2="6.78" xlink:href="#未命名的渐变_105"/><linearGradient id="未命名的渐变_105-13" x1="89.82" y1="6.78" x2="92.19" y2="6.78" xlink:href="#未命名的渐变_105"/><linearGradient id="未命名的渐变_67" x1="2.91" y1="3.8" x2="4.49" y2="3.8" gradientUnits="userSpaceOnUse"><stop offset="0" stop-color="#6b6b6b"/><stop offset="0.11" stop-color="#767676"/><stop offset="0.3" stop-color="#959595"/><stop offset="0.41" stop-color="#aaa"/><stop offset="0.56" stop-color="#ccc"/><stop offset="0.71" stop-color="#eaeaea"/><stop offset="0.8" stop-color="#f6f6f6"/><stop offset="0.83" stop-color="#ededed"/><stop offset="0.87" stop-color="#d4d4d4"/><stop offset="0.92" stop-color="#ababab"/><stop offset="0.98" stop-color="#737373"/><stop offset="0.99" stop-color="#666"/></linearGradient><linearGradient id="未命名的渐变_67-2" x1="10.75" y1="3.8" x2="12.33" y2="3.8" xlink:href="#未命名的渐变_67"/><linearGradient id="未命名的渐变_67-3" x1="18.72" y1="3.8" x2="20.3" y2="3.8" xlink:href="#未命名的渐变_67"/><linearGradient id="未命名的渐变_67-4" x1="26.7" y1="3.8" x2="28.28" y2="3.8" xlink:href="#未命名的渐变_67"/><linearGradient id="未命名的渐变_67-5" x1="34.68" y1="3.8" x2="36.26" y2="3.8" xlink:href="#未命名的渐变_67"/><linearGradient id="未命名的渐变_67-6" x1="42.65" y1="3.8" x2="44.23" y2="3.8" xlink:href="#未命名的渐变_67"/><linearGradient id="未命名的渐变_67-7" x1="50.63" y1="3.8" x2="52.21" y2="3.8" xlink:href="#未命名的渐变_67"/><linearGradient id="未命名的渐变_67-8" x1="58.61" y1="3.8" x2="60.19" y2="3.8" xlink:href="#未命名的渐变_67"/><linearGradient id="未命名的渐变_67-9" x1="66.59" y1="3.8" x2="68.16" y2="3.8" xlink:href="#未命名的渐变_67"/><linearGradient id="未命名的渐变_67-10" x1="74.56" y1="3.8" x2="76.14" y2="3.8" xlink:href="#未命名的渐变_67"/><linearGradient id="未命名的渐变_67-11" x1="82.54" y1="3.8" x2="84.12" y2="3.8" xlink:href="#未命名的渐变_67"/><linearGradient id="未命名的渐变_67-12" x1="90.52" y1="3.8" x2="92.09" y2="3.8" xlink:href="#未命名的渐变_67"/><linearGradient id="未命名的渐变_105-14" x1="97.38" y1="6.78" x2="99.75" y2="6.78" xlink:href="#未命名的渐变_105"/><linearGradient id="未命名的渐变_67-13" x1="98.08" y1="3.8" x2="99.66" y2="3.8" xlink:href="#未命名的渐变_67"/><linearGradient id="未命名的渐变_105-15" x1="104.95" y1="6.78" x2="107.32" y2="6.78" xlink:href="#未命名的渐变_105"/><linearGradient id="未命名的渐变_67-14" x1="105.64" y1="3.8" x2="107.22" y2="3.8" xlink:href="#未命名的渐变_67"/><linearGradient id="未命名的渐变_105-16" x1="112.51" y1="6.78" x2="114.88" y2="6.78" xlink:href="#未命名的渐变_105"/><linearGradient id="未命名的渐变_67-15" x1="113.2" y1="3.8" x2="114.78" y2="3.8" xlink:href="#未命名的渐变_67"/><linearGradient id="未命名的渐变_105-17" x1="120.07" y1="6.78" x2="122.44" y2="6.78" xlink:href="#未命名的渐变_105"/><linearGradient id="未命名的渐变_67-16" x1="120.76" y1="3.8" x2="122.34" y2="3.8" xlink:href="#未命名的渐变_67"/><linearGradient id="未命名的渐变_105-18" x1="127.63" y1="6.78" x2="130" y2="6.78" xlink:href="#未命名的渐变_105"/><linearGradient id="未命名的渐变_67-17" x1="128.33" y1="3.8" x2="129.9" y2="3.8" xlink:href="#未命名的渐变_67"/><linearGradient id="未命名的渐变_105-19" x1="135.2" y1="6.78" x2="137.56" y2="6.78" xlink:href="#未命名的渐变_105"/><linearGradient id="未命名的渐变_67-18" x1="135.89" y1="3.8" x2="137.47" y2="3.8" xlink:href="#未命名的渐变_67"/><linearGradient id="未命名的渐变_105-20" x1="142.76" y1="6.78" x2="145.13" y2="6.78" xlink:href="#未命名的渐变_105"/><linearGradient id="未命名的渐变_67-19" x1="143.45" y1="3.8" x2="145.03" y2="3.8" xlink:href="#未命名的渐变_67"/><linearGradient id="未命名的渐变_67-20" x1="1.38" y1="-1436.6" x2="148.41" y2="-1436.6" gradientTransform="matrix(1, 0, 0, -0.72, 0, -1015.2)" xlink:href="#未命名的渐变_67"/><linearGradient id="未命名的渐变_67-21" x1="1.38" y1="-1540.34" x2="148.41" y2="-1540.34" gradientTransform="matrix(1, 0, 0, -0.72, 0, -1015.2)" xlink:href="#未命名的渐变_67"/><linearGradient id="未命名的渐变_105-21" x1="1.38" y1="-1488.47" x2="148.41" y2="-1488.47" gradientTransform="matrix(1, 0, 0, -0.72, 0, -1015.2)" xlink:href="#未命名的渐变_105"/><linearGradient id="未命名的渐变_105-22" x1="0.21" y1="-1545.86" x2="150" y2="-1545.86" gradientTransform="matrix(1, 0, 0, -0.72, 0, -1015.2)" xlink:href="#未命名的渐变_105"/><linearGradient id="未命名的渐变_105-23" x1="0" y1="-1431.61" x2="149.79" y2="-1431.61" gradientTransform="matrix(1, 0, 0, -0.72, 0, -1015.2)" xlink:href="#未命名的渐变_105"/></defs><title>Storage facility 2（储存设施2）</title><g id="图层_2" data-name="图层 2"><g id="图层_104" data-name="图层 104"><g id="Storage_facility_2_储存设施2_" data-name="Storage facility 2（储存设施2）"><rect class="cls-1" x="2.22" width="2.37" height="13.55"/><rect class="cls-2" x="73.11" y="-68.7" width="2.1" height="145" transform="translate(77.96 -70.35) rotate(90)"/><rect class="cls-3" x="10.05" width="2.37" height="13.55"/><rect class="cls-4" x="18.03" width="2.37" height="13.55"/><rect class="cls-5" x="26.01" width="2.37" height="13.55"/><rect class="cls-6" x="33.98" width="2.37" height="13.55"/><rect class="cls-7" x="41.96" width="2.37" height="13.55"/><rect class="cls-8" x="49.94" width="2.37" height="13.55"/><rect class="cls-9" x="57.92" width="2.37" height="13.55"/><rect class="cls-10" x="65.89" width="2.37" height="13.55"/><rect class="cls-11" x="73.92" width="2.37" height="13.55"/><rect class="cls-12" x="81.85" width="2.37" height="13.55"/><rect class="cls-13" x="89.82" width="2.37" height="13.55"/><circle class="cls-14" cx="3.4" cy="3.8" r="1.05"/><circle class="cls-15" cx="11.24" cy="3.8" r="1.05"/><circle class="cls-16" cx="19.22" cy="3.8" r="1.05"/><circle class="cls-17" cx="27.19" cy="3.8" r="1.05"/><circle class="cls-18" cx="35.17" cy="3.8" r="1.05"/><circle class="cls-19" cx="43.15" cy="3.8" r="1.05"/><circle class="cls-20" cx="51.12" cy="3.8" r="1.05"/><circle class="cls-21" cx="59.1" cy="3.8" r="1.05"/><circle class="cls-22" cx="67.08" cy="3.8" r="1.05"/><circle class="cls-23" cx="75.05" cy="3.8" r="1.05"/><circle class="cls-24" cx="83.03" cy="3.8" r="1.05"/><circle class="cls-25" cx="91.01" cy="3.8" r="1.05"/><rect class="cls-26" x="97.38" width="2.37" height="13.55"/><circle class="cls-27" cx="98.57" cy="3.8" r="1.05"/><rect class="cls-28" x="104.95" width="2.37" height="13.55"/><circle class="cls-29" cx="106.13" cy="3.8" r="1.05"/><rect class="cls-30" x="112.51" width="2.37" height="13.55"/><circle class="cls-31" cx="113.69" cy="3.8" r="1.05"/><rect class="cls-32" x="120.07" width="2.37" height="13.55"/><circle class="cls-33" cx="121.26" cy="3.8" r="1.05"/><rect class="cls-34" x="127.63" width="2.37" height="13.55"/><circle class="cls-35" cx="128.82" cy="3.8" r="1.05"/><rect class="cls-36" x="135.2" width="2.37" height="13.55"/><circle class="cls-37" cx="136.38" cy="3.8" r="1.05"/><rect class="cls-38" x="142.76" width="2.37" height="13.55"/><circle class="cls-39" cx="143.94" cy="3.8" r="1.05"/><rect class="cls-40" x="1.38" y="17.5" width="147.03" height="3.32"/><rect class="cls-41" x="1.38" y="92.19" width="147.03" height="3.32"/><rect class="cls-42" x="1.38" y="20.81" width="147.03" height="71.38"/><rect class="cls-43" x="0.21" y="95.51" width="149.79" height="4.63" rx="0.46"/><rect class="cls-44" y="13.24" width="149.79" height="4.63" rx="0.46"/></g></g></g></svg>