<svg xmlns="http://www.w3.org/2000/svg" xmlns:xlink="http://www.w3.org/1999/xlink" viewBox="0 0 80.99 149.25"><defs><style>.cls-1{fill:url(#未命名的渐变_67);}.cls-2{fill:url(#未命名的渐变_105);}.cls-3{fill:url(#未命名的渐变_67-2);}.cls-4{fill:url(#未命名的渐变_67-3);}.cls-5{fill:url(#未命名的渐变_67-4);}.cls-6{fill:url(#未命名的渐变_67-5);}.cls-7{opacity:0.2;}</style><linearGradient id="未命名的渐变_67" x1="2.38" y1="137.17" x2="77.95" y2="137.17" gradientUnits="userSpaceOnUse"><stop offset="0" stop-color="#6b6b6b"/><stop offset="0.11" stop-color="#767676"/><stop offset="0.3" stop-color="#959595"/><stop offset="0.41" stop-color="#aaa"/><stop offset="0.56" stop-color="#ccc"/><stop offset="0.71" stop-color="#eaeaea"/><stop offset="0.8" stop-color="#f6f6f6"/><stop offset="0.83" stop-color="#ededed"/><stop offset="0.87" stop-color="#d4d4d4"/><stop offset="0.92" stop-color="#ababab"/><stop offset="0.98" stop-color="#737373"/><stop offset="0.99" stop-color="#666"/></linearGradient><linearGradient id="未命名的渐变_105" x1="427.49" y1="-1378.67" x2="427.49" y2="-1453.77" gradientTransform="matrix(0, 1, 1, 0, 1456.69, -359.86)" gradientUnits="userSpaceOnUse"><stop offset="0" stop-color="#e2e2e2"/><stop offset="0.03" stop-color="#d0d0d0"/><stop offset="0.06" stop-color="#bcbcbc"/><stop offset="0.09" stop-color="#b5b5b5"/><stop offset="0.49" stop-color="#f6f6f6"/><stop offset="0.63" stop-color="#f3f3f3"/><stop offset="0.73" stop-color="#eaeaea"/><stop offset="0.82" stop-color="#dbdbdb"/><stop offset="0.9" stop-color="#c6c6c6"/><stop offset="0.97" stop-color="#aaa"/><stop offset="1" stop-color="#9b9b9b"/></linearGradient><linearGradient id="未命名的渐变_67-2" x1="2.75" y1="-1825.88" x2="77.95" y2="-1825.88" gradientTransform="matrix(1, 0, 0, -0.72, 0, -1292.56)" xlink:href="#未命名的渐变_67"/><linearGradient id="未命名的渐变_67-3" x1="2.75" y1="-1956.3" x2="77.95" y2="-1956.3" gradientTransform="matrix(1, 0, 0, -0.72, 0, -1292.56)" xlink:href="#未命名的渐变_67"/><linearGradient id="未命名的渐变_67-4" x1="2.75" y1="-1966.6" x2="77.95" y2="-1966.6" gradientTransform="matrix(1, 0, 0, -0.72, 0, -1292.56)" xlink:href="#未命名的渐变_67"/><linearGradient id="未命名的渐变_67-5" x1="0" y1="145.51" x2="80.99" y2="145.51" xlink:href="#未命名的渐变_67"/></defs><title>Storage tank（储罐）</title><g id="图层_2" data-name="图层 2"><g id="图层_104" data-name="图层 104"><g id="Storage_tank_储罐_" data-name="Storage tank（储罐）"><path class="cls-1" d="M78,143.74H2.38c6.78-3.81,6.78-13.14,6.78-13.14H71.92S73.14,142,78,143.74Z"/><path class="cls-2" d="M2.92,127.59V20.87S2.18.37,39.73,0C76.28-.35,78,20.87,78,20.87V127.59s-1.61,7.67-37.55,7.67C2.92,135.26,2.92,127.59,2.92,127.59Z"/><rect class="cls-3" x="2.75" y="21.01" width="75.2" height="2.12"/><rect class="cls-4" x="2.75" y="114.91" width="75.2" height="2.12"/><rect class="cls-5" x="2.75" y="122.33" width="75.2" height="2.12"/><rect class="cls-6" y="141.76" width="80.99" height="7.49" rx="0.45"/></g></g></g></svg>