<svg xmlns="http://www.w3.org/2000/svg" xmlns:xlink="http://www.w3.org/1999/xlink" viewBox="0 0 150 133.06"><defs><style>.cls-1{fill:url(#未命名的渐变_67);}.cls-2{fill:url(#未命名的渐变_67-2);}.cls-3{fill:url(#未命名的渐变_105);}.cls-4{fill:url(#未命名的渐变_105-2);}.cls-5{fill:url(#未命名的渐变_67-3);}.cls-6{fill:url(#未命名的渐变_67-4);}.cls-7{fill:url(#未命名的渐变_105-3);}.cls-8{fill:url(#未命名的渐变_105-4);}.cls-9{fill:url(#未命名的渐变_67-5);}.cls-10{fill:url(#未命名的渐变_67-6);}.cls-11{fill:url(#未命名的渐变_67-7);}.cls-12{fill:url(#未命名的渐变_67-8);}.cls-13{fill:url(#未命名的渐变_67-9);}.cls-14{opacity:0.2;}</style><linearGradient id="未命名的渐变_67" x1="7.01" y1="121.18" x2="7.01" y2="117.19" gradientUnits="userSpaceOnUse"><stop offset="0" stop-color="#6b6b6b"/><stop offset="0.11" stop-color="#767676"/><stop offset="0.3" stop-color="#959595"/><stop offset="0.41" stop-color="#aaa"/><stop offset="0.56" stop-color="#ccc"/><stop offset="0.71" stop-color="#eaeaea"/><stop offset="0.8" stop-color="#f6f6f6"/><stop offset="0.83" stop-color="#ededed"/><stop offset="0.87" stop-color="#d4d4d4"/><stop offset="0.92" stop-color="#ababab"/><stop offset="0.98" stop-color="#737373"/><stop offset="0.99" stop-color="#666"/></linearGradient><linearGradient id="未命名的渐变_67-2" x1="7.01" y1="62.96" x2="7.01" y2="58.98" xlink:href="#未命名的渐变_67"/><linearGradient id="未命名的渐变_105" y1="89.28" x2="5.75" y2="89.28" gradientUnits="userSpaceOnUse"><stop offset="0" stop-color="#e2e2e2"/><stop offset="0.03" stop-color="#d0d0d0"/><stop offset="0.06" stop-color="#bcbcbc"/><stop offset="0.09" stop-color="#b5b5b5"/><stop offset="0.49" stop-color="#f6f6f6"/><stop offset="0.63" stop-color="#f3f3f3"/><stop offset="0.73" stop-color="#eaeaea"/><stop offset="0.82" stop-color="#dbdbdb"/><stop offset="0.9" stop-color="#c6c6c6"/><stop offset="0.97" stop-color="#aaa"/><stop offset="1" stop-color="#9b9b9b"/></linearGradient><linearGradient id="未命名的渐变_105-2" x1="8.28" y1="64.68" x2="148.08" y2="64.68" xlink:href="#未命名的渐变_105"/><linearGradient id="未命名的渐变_67-3" x1="8.35" y1="53.46" x2="147.99" y2="53.46" xlink:href="#未命名的渐变_67"/><linearGradient id="未命名的渐变_67-4" x1="8.28" y1="128.3" x2="147.93" y2="128.3" xlink:href="#未命名的渐变_67"/><linearGradient id="未命名的渐变_105-3" x1="7.42" y1="131.21" x2="149.26" y2="131.21" xlink:href="#未命名的渐变_105"/><linearGradient id="未命名的渐变_105-4" x1="7.48" y1="53.15" x2="150" y2="53.15" xlink:href="#未命名的渐变_105"/><linearGradient id="未命名的渐变_67-5" x1="0" y1="53.46" x2="5.75" y2="53.46" xlink:href="#未命名的渐变_67"/><linearGradient id="未命名的渐变_67-6" x1="0" y1="71.47" x2="5.75" y2="71.47" xlink:href="#未命名的渐变_67"/><linearGradient id="未命名的渐变_67-7" x1="0" y1="89.7" x2="5.75" y2="89.7" xlink:href="#未命名的渐变_67"/><linearGradient id="未命名的渐变_67-8" x1="0" y1="107.44" x2="5.75" y2="107.44" xlink:href="#未命名的渐变_67"/><linearGradient id="未命名的渐变_67-9" x1="0" y1="125.43" x2="5.75" y2="125.43" xlink:href="#未命名的渐变_67"/></defs><title>Storage facility 1（储存设施） (2)</title><g id="图层_2" data-name="图层 2"><g id="图层_104" data-name="图层 104"><g id="Storage_facility_1_储存设施_" data-name="Storage facility 1（储存设施）"><rect class="cls-1" x="4.81" y="117.19" width="4.4" height="3.99"/><rect class="cls-2" x="4.81" y="58.98" width="4.4" height="3.99"/><rect class="cls-3" y="45.49" width="5.75" height="87.58" rx="0.49"/><path class="cls-4" d="M148.08,129.35H8.28V51.23S51.05,13.41,66.81,4.33C69.35,2.86,77.26,0,77.26,0A59.57,59.57,0,0,1,92.83,7c6,4,55.25,44.25,55.25,44.25Z"/><rect class="cls-5" x="8.35" y="49.5" width="139.65" height="7.91"/><rect class="cls-6" x="8.28" y="127.25" width="139.65" height="2.1"/><rect class="cls-7" x="7.42" y="129.35" width="141.84" height="3.71" rx="0.32"/><rect class="cls-8" x="7.48" y="51.48" width="142.52" height="3.34"/><circle class="cls-9" cx="2.87" cy="53.46" r="2.87"/><circle class="cls-10" cx="2.87" cy="71.47" r="2.87"/><circle class="cls-11" cx="2.87" cy="89.7" r="2.87"/><circle class="cls-12" cx="2.87" cy="107.44" r="2.87"/><circle class="cls-13" cx="2.87" cy="125.43" r="2.87"/></g></g></g></svg>