<svg xmlns="http://www.w3.org/2000/svg" xmlns:xlink="http://www.w3.org/1999/xlink" viewBox="0 0 95.55 150"><defs><style>.cls-1{fill:url(#未命名的渐变_105);}.cls-2{fill:url(#未命名的渐变_143);}.cls-3{fill:url(#未命名的渐变_143-2);}.cls-4{fill:url(#未命名的渐变_74);}.cls-5{stroke:#353535;stroke-miterlimit:10;stroke-width:0.25px;fill:url(#未命名的渐变_74-2);}.cls-6{fill:#373231;}.cls-7{fill:url(#未命名的渐变_74-3);}.cls-8{fill:url(#未命名的渐变_74-4);}.cls-9{fill:url(#未命名的渐变_74-5);}.cls-10{opacity:0.2;}</style><linearGradient id="未命名的渐变_105" x1="-676.59" y1="-1186.84" x2="-676.59" y2="-1282.25" gradientTransform="matrix(0, -1, -1, 0, -1186.84, -618.63)" gradientUnits="userSpaceOnUse"><stop offset="0" stop-color="#e2e2e2"/><stop offset="0.03" stop-color="#d0d0d0"/><stop offset="0.06" stop-color="#bcbcbc"/><stop offset="0.09" stop-color="#b5b5b5"/><stop offset="0.49" stop-color="#f6f6f6"/><stop offset="0.63" stop-color="#f3f3f3"/><stop offset="0.73" stop-color="#eaeaea"/><stop offset="0.82" stop-color="#dbdbdb"/><stop offset="0.9" stop-color="#c6c6c6"/><stop offset="0.97" stop-color="#aaa"/><stop offset="1" stop-color="#9b9b9b"/></linearGradient><linearGradient id="未命名的渐变_143" x1="303.52" y1="-667.82" x2="303.52" y2="-572.42" gradientTransform="translate(-572.28 -870.77) rotate(90) scale(2.91 1)" gradientUnits="userSpaceOnUse"><stop offset="0" stop-color="#b7b7b7"/><stop offset="0.03" stop-color="#9b9d9d"/><stop offset="0.07" stop-color="#878b8b"/><stop offset="0.09" stop-color="#808484"/><stop offset="0.2" stop-color="#a3a6a6"/><stop offset="0.49" stop-color="#f6f6f6"/><stop offset="0.61" stop-color="#f3f3f3"/><stop offset="0.7" stop-color="#eaeaea"/><stop offset="0.77" stop-color="#dbdbdb"/><stop offset="0.83" stop-color="#c5c5c5"/><stop offset="0.9" stop-color="#aaa"/><stop offset="0.95" stop-color="#888"/><stop offset="1" stop-color="#666"/></linearGradient><linearGradient id="未命名的渐变_143-2" x1="333.76" y1="-667.82" x2="333.76" y2="-572.42" xlink:href="#未命名的渐变_143"/><linearGradient id="未命名的渐变_74" x1="70.62" y1="56.84" x2="25.74" y2="56.84" gradientUnits="userSpaceOnUse"><stop offset="0" stop-color="#6b6b6b"/><stop offset="0.01" stop-color="#767676"/><stop offset="0.03" stop-color="#959595"/><stop offset="0.04" stop-color="#aaa"/><stop offset="0.37" stop-color="#ccc"/><stop offset="0.74" stop-color="#eaeaea"/><stop offset="0.94" stop-color="#f6f6f6"/><stop offset="0.95" stop-color="#ededed"/><stop offset="0.96" stop-color="#d4d4d4"/><stop offset="0.97" stop-color="#ababab"/><stop offset="0.99" stop-color="#737373"/><stop offset="0.99" stop-color="#666"/></linearGradient><linearGradient id="未命名的渐变_74-2" x1="64.33" y1="56.84" x2="32.03" y2="56.84" xlink:href="#未命名的渐变_74"/><linearGradient id="未命名的渐变_74-3" x1="75.97" y1="56.68" x2="65.13" y2="56.68" xlink:href="#未命名的渐变_74"/><linearGradient id="未命名的渐变_74-4" x1="40.77" y1="48.38" x2="20.26" y2="48.38" xlink:href="#未命名的渐变_74"/><linearGradient id="未命名的渐变_74-5" x1="40.77" y1="65.05" x2="20.26" y2="65.05" xlink:href="#未命名的渐变_74"/></defs><title>Tank with hatch（带舱口的水箱）</title><g id="图层_2" data-name="图层 2"><g id="图层_104" data-name="图层 104"><g id="Tank_with_hatch_带舱口的水箱_" data-name="Tank with hatch（带舱口的水箱）"><path class="cls-1" d="M95.41,9.11V102s0,13.56-47.7,13.88C1.27,116.22,0,102,0,102V9.11S2,0,47.71,0C95.42,0,95.41,9.11,95.41,9.11Z"/><polygon class="cls-2" points="0.14 13.75 0.14 11.53 95.55 11.53 95.55 13.66 0.14 13.75"/><polygon class="cls-3" points="0.14 101.77 0.14 99.55 95.55 99.55 95.55 101.68 0.14 101.77"/><circle class="cls-4" cx="48.18" cy="56.84" r="22.44"/><circle class="cls-5" cx="48.18" cy="56.84" r="16.15"/><rect class="cls-6" x="4.58" y="145.57" width="16.93" height="4.43"/><polygon class="cls-6" points="18.37 145.57 7.63 145.57 7.63 109.53 18.37 101.75 18.37 145.57"/><rect class="cls-6" x="74.36" y="145.57" width="16.93" height="4.43" transform="translate(165.65 295.57) rotate(180)"/><polygon class="cls-6" points="77.5 145.57 88.25 145.57 88.25 109.53 77.5 101.75 77.5 145.57"/><rect class="cls-7" x="65.13" y="51.96" width="10.84" height="9.45"/><rect class="cls-8" x="20.26" y="46.02" width="20.51" height="4.73"/><rect class="cls-9" x="20.26" y="62.68" width="20.51" height="4.73"/></g></g></g></svg>