<svg xmlns="http://www.w3.org/2000/svg" xmlns:xlink="http://www.w3.org/1999/xlink" viewBox="0 0 150 67"><defs><style>.cls-1{fill:#d6d6d6;}.cls-2{fill:url(#未命名的渐变_105);}.cls-3{fill:url(#未命名的渐变_143);}.cls-4{fill:url(#未命名的渐变_143-2);}.cls-5{fill:url(#未命名的渐变_143-3);}.cls-6{fill:#373231;}.cls-7{opacity:0.2;}</style><linearGradient id="未命名的渐变_105" x1="-1056.43" y1="-711.87" x2="-1056.43" y2="-766.67" gradientTransform="matrix(-1, 0, 0, 1, -981.43, 773.82)" gradientUnits="userSpaceOnUse"><stop offset="0" stop-color="#e2e2e2"/><stop offset="0.03" stop-color="#d0d0d0"/><stop offset="0.06" stop-color="#bcbcbc"/><stop offset="0.09" stop-color="#b5b5b5"/><stop offset="0.49" stop-color="#f6f6f6"/><stop offset="0.63" stop-color="#f3f3f3"/><stop offset="0.73" stop-color="#eaeaea"/><stop offset="0.82" stop-color="#dbdbdb"/><stop offset="0.9" stop-color="#c6c6c6"/><stop offset="0.97" stop-color="#aaa"/><stop offset="1" stop-color="#9b9b9b"/></linearGradient><linearGradient id="未命名的渐变_143" x1="-1427.1" y1="-140.29" x2="-1427.1" y2="-85.49" gradientTransform="matrix(1, 0, 0, -1, 1442.35, -78.33)" gradientUnits="userSpaceOnUse"><stop offset="0" stop-color="#b7b7b7"/><stop offset="0.03" stop-color="#9b9d9d"/><stop offset="0.07" stop-color="#878b8b"/><stop offset="0.09" stop-color="#808484"/><stop offset="0.2" stop-color="#a3a6a6"/><stop offset="0.49" stop-color="#f6f6f6"/><stop offset="0.61" stop-color="#f3f3f3"/><stop offset="0.7" stop-color="#eaeaea"/><stop offset="0.77" stop-color="#dbdbdb"/><stop offset="0.83" stop-color="#c5c5c5"/><stop offset="0.9" stop-color="#aaa"/><stop offset="0.95" stop-color="#888"/><stop offset="1" stop-color="#666"/></linearGradient><linearGradient id="未命名的渐变_143-2" x1="-1445.96" y1="-140.1" x2="-1445.96" y2="-85.49" gradientTransform="matrix(1, 0, 0, -1, 1480.08, -78.15)" xlink:href="#未命名的渐变_143"/><linearGradient id="未命名的渐变_143-3" x1="-1528.85" y1="-140.29" x2="-1528.85" y2="-85.49" gradientTransform="matrix(1, 0, 0, -1, 1645.85, -78.33)" xlink:href="#未命名的渐变_143"/></defs><title>Tank 1（油箱） (10)</title><g id="图层_2" data-name="图层 2"><g id="图层_104" data-name="图层 104"><g id="Tank_1_油箱_" data-name="Tank 1（油箱）"><rect class="cls-1" x="60.45" y="2.52" width="28.61" height="5.05"/><rect class="cls-1" x="59.11" width="31.42" height="2.52"/><path class="cls-2" d="M16.9,7.15H131.56s18,0,18.43,27.4c.38,26.68-18.43,27.4-18.43,27.4H16.9S0,60.78,0,34.55C0,7.15,16.9,7.15,16.9,7.15Z"/><rect class="cls-3" x="14.24" y="7.15" width="2.03" height="54.8" transform="translate(30.5 69.11) rotate(-180)"/><rect class="cls-4" x="31.35" y="7.34" width="5.54" height="54.62" transform="translate(68.23 69.29) rotate(-180)"/><rect class="cls-5" x="114.23" y="7.15" width="5.54" height="54.8" transform="translate(234 69.11) rotate(-180)"/><rect class="cls-6" x="29.52" y="61.95" width="9.61" height="5.05"/><rect class="cls-6" x="112.2" y="61.95" width="9.61" height="5.05"/></g></g></g></svg>