<svg xmlns="http://www.w3.org/2000/svg" xmlns:xlink="http://www.w3.org/1999/xlink" viewBox="0 0 150 92.42"><defs><style>.cls-1{fill:url(#未命名的渐变_105);}.cls-2{fill:url(#未命名的渐变_105-2);}.cls-3{fill:url(#未命名的渐变_143);}.cls-4{fill:url(#未命名的渐变_105-3);}.cls-5{fill:url(#未命名的渐变_143-2);}.cls-6{fill:url(#未命名的渐变_143-3);}.cls-7{opacity:0.2;}</style><linearGradient id="未命名的渐变_105" x1="85.63" y1="18.84" x2="63.61" y2="18.84" gradientUnits="userSpaceOnUse"><stop offset="0" stop-color="#e2e2e2"/><stop offset="0.03" stop-color="#d0d0d0"/><stop offset="0.06" stop-color="#bcbcbc"/><stop offset="0.09" stop-color="#b5b5b5"/><stop offset="0.49" stop-color="#f6f6f6"/><stop offset="0.63" stop-color="#f3f3f3"/><stop offset="0.73" stop-color="#eaeaea"/><stop offset="0.82" stop-color="#dbdbdb"/><stop offset="0.9" stop-color="#c6c6c6"/><stop offset="0.97" stop-color="#aaa"/><stop offset="1" stop-color="#9b9b9b"/></linearGradient><linearGradient id="未命名的渐变_105-2" x1="-656.43" y1="-681.4" x2="-656.43" y2="-757.68" gradientTransform="matrix(-1, 0, 0, 1, -581.43, 773.82)" xlink:href="#未命名的渐变_105"/><linearGradient id="未命名的渐变_143" x1="85.63" y1="4.81" x2="63.61" y2="4.81" gradientUnits="userSpaceOnUse"><stop offset="0" stop-color="#b7b7b7"/><stop offset="0.03" stop-color="#9b9d9d"/><stop offset="0.07" stop-color="#878b8b"/><stop offset="0.09" stop-color="#808484"/><stop offset="0.2" stop-color="#a3a6a6"/><stop offset="0.49" stop-color="#f6f6f6"/><stop offset="0.61" stop-color="#f3f3f3"/><stop offset="0.7" stop-color="#eaeaea"/><stop offset="0.77" stop-color="#dbdbdb"/><stop offset="0.83" stop-color="#c5c5c5"/><stop offset="0.9" stop-color="#aaa"/><stop offset="0.95" stop-color="#888"/><stop offset="1" stop-color="#666"/></linearGradient><linearGradient id="未命名的渐变_105-3" x1="87.54" y1="2.16" x2="61.79" y2="2.16" xlink:href="#未命名的渐变_105"/><linearGradient id="未命名的渐变_143-2" x1="-1033.56" y1="-131.41" x2="-1033.56" y2="-55.86" gradientTransform="matrix(1, 0, 0, -1, 1055.27, -39.83)" xlink:href="#未命名的渐变_143"/><linearGradient id="未命名的渐变_143-3" x1="-1139.38" y1="-131.41" x2="-1139.38" y2="-55.86" gradientTransform="matrix(1, 0, 0, -1, 1266.91, -39.83)" xlink:href="#未命名的渐变_143"/></defs><title>Tank 1（油箱） (11)</title><g id="图层_2" data-name="图层 2"><g id="图层_104" data-name="图层 104"><g id="Tank_1_油箱_" data-name="Tank 1（油箱）"><rect class="cls-1" x="63.61" y="5.4" width="22.02" height="26.88"/><path class="cls-2" d="M21.84,16.14H129s20.6-.75,21,37.39c.35,37.13-21,38.89-21,38.89H21.84S0,90.79,0,54.28C0,16.14,21.84,16.14,21.84,16.14Z"/><rect class="cls-3" x="63.61" y="3.79" width="22.02" height="2.03"/><rect class="cls-4" x="61.79" width="25.75" height="4.32" rx="0.66"/><rect class="cls-5" x="20.41" y="16.03" width="2.6" height="75.55" transform="translate(43.42 107.62) rotate(-180)"/><rect class="cls-6" x="126.23" y="16.03" width="2.6" height="75.55" transform="translate(255.06 107.62) rotate(-180)"/></g></g></g></svg>