<svg xmlns="http://www.w3.org/2000/svg" xmlns:xlink="http://www.w3.org/1999/xlink" viewBox="0 0 150 147.27"><defs><style>.cls-1{fill:url(#未命名的渐变_74);}.cls-2{fill:url(#未命名的渐变_74-2);}.cls-3{fill:url(#未命名的渐变_74-3);}.cls-4{fill:url(#未命名的渐变_74-4);}.cls-5{fill:url(#未命名的渐变_74-5);}.cls-6{fill:url(#未命名的渐变_74-6);}.cls-7{fill:url(#未命名的渐变_74-7);}.cls-8{fill:#c1c1c1;}.cls-9{fill:url(#未命名的渐变_74-8);}.cls-10{fill:url(#未命名的渐变_74-9);}.cls-11{fill:url(#未命名的渐变_74-10);}.cls-12{fill:url(#未命名的渐变_74-11);}.cls-13{fill:url(#未命名的渐变_74-12);}.cls-14{opacity:0.2;}</style><linearGradient id="未命名的渐变_74" x1="12.28" y1="39.88" x2="18.95" y2="39.88" gradientUnits="userSpaceOnUse"><stop offset="0" stop-color="#6b6b6b"/><stop offset="0.01" stop-color="#767676"/><stop offset="0.03" stop-color="#959595"/><stop offset="0.04" stop-color="#aaa"/><stop offset="0.37" stop-color="#ccc"/><stop offset="0.74" stop-color="#eaeaea"/><stop offset="0.94" stop-color="#f6f6f6"/><stop offset="0.95" stop-color="#ededed"/><stop offset="0.96" stop-color="#d4d4d4"/><stop offset="0.97" stop-color="#ababab"/><stop offset="0.99" stop-color="#737373"/><stop offset="0.99" stop-color="#666"/></linearGradient><linearGradient id="未命名的渐变_74-2" x1="12.28" y1="101.18" x2="18.95" y2="101.18" xlink:href="#未命名的渐变_74"/><linearGradient id="未命名的渐变_74-3" x1="134.19" y1="39.69" x2="140.86" y2="39.69" xlink:href="#未命名的渐变_74"/><linearGradient id="未命名的渐变_74-4" x1="134.19" y1="100.99" x2="140.86" y2="100.99" xlink:href="#未命名的渐变_74"/><linearGradient id="未命名的渐变_74-5" x1="82.97" y1="82.7" x2="88.53" y2="77.14" gradientTransform="matrix(0.71, 0.7, -0.71, 0.7, 75.07, -41.94)" xlink:href="#未命名的渐变_74"/><linearGradient id="未命名的渐变_74-6" x1="81.57" y1="67.09" x2="87.13" y2="72.65" gradientTransform="matrix(-0.71, 0.72, -0.71, -0.72, 185.41, 67.43)" xlink:href="#未命名的渐变_74"/><linearGradient id="未命名的渐变_74-7" x1="15.07" y1="73.92" x2="22.83" y2="73.92" xlink:href="#未命名的渐变_74"/><linearGradient id="未命名的渐变_74-8" x1="136.98" y1="73.73" x2="144.74" y2="73.73" xlink:href="#未命名的渐变_74"/><linearGradient id="未命名的渐变_74-9" x1="47.48" y1="89.78" x2="53.04" y2="95.34" gradientTransform="matrix(-0.71, 0.68, -0.71, -0.68, 170.56, 101.98)" xlink:href="#未命名的渐变_74"/><linearGradient id="未命名的渐变_74-10" x1="69.3" y1="80.44" x2="74.86" y2="74.87" gradientTransform="translate(76.02 -28.22) rotate(45)" xlink:href="#未命名的渐变_74"/><linearGradient id="未命名的渐变_74-11" x1="4.52" y1="73.54" x2="12.28" y2="73.54" xlink:href="#未命名的渐变_74"/><linearGradient id="未命名的渐变_74-12" x1="126.43" y1="73.35" x2="134.19" y2="73.35" xlink:href="#未命名的渐变_74"/></defs><title>Tank support 1（油箱支架）</title><g id="图层_2" data-name="图层 2"><g id="图层_104" data-name="图层 104"><g id="Tank_support_1_油箱支架_" data-name="Tank support 1（油箱支架）"><rect class="cls-1" x="12.28" y="35.17" width="6.67" height="9.41"/><rect class="cls-2" x="12.28" y="96.48" width="6.67" height="9.41"/><rect class="cls-3" x="134.19" y="34.98" width="6.67" height="9.41"/><rect class="cls-4" x="134.19" y="96.29" width="6.67" height="9.41"/><rect class="cls-5" x="75.26" y="-13.38" width="7.87" height="173.49" transform="translate(-28.68 77.48) rotate(-45)"/><rect class="cls-6" x="72.43" y="-11.89" width="7.87" height="179.49" transform="translate(75.31 186.9) rotate(-135)"/><rect class="cls-7" x="15.07" y="10.97" width="7.76" height="125.91"/><rect class="cls-8" x="2.03" y="7.52" width="23.32" height="3.45"/><rect class="cls-8" y="0.19" width="27.92" height="7.33"/><rect class="cls-8" x="122.08" width="27.92" height="7.33"/><rect class="cls-8" x="2.21" y="136.5" width="23.32" height="3.45"/><rect class="cls-8" x="0.18" y="139.94" width="27.92" height="7.33"/><rect class="cls-9" x="136.98" y="10.78" width="7.76" height="125.91"/><rect class="cls-8" x="123.94" y="7.33" width="23.32" height="3.45"/><rect class="cls-10" x="65.64" y="-11.43" width="7.87" height="169.35" transform="translate(66.97 174.23) rotate(-135)"/><rect class="cls-11" x="68.14" y="-10.47" width="7.87" height="176.26" transform="translate(-33.8 73.71) rotate(-45)"/><rect class="cls-12" x="4.52" y="10.59" width="7.76" height="125.91"/><rect class="cls-13" x="126.43" y="10.4" width="7.76" height="125.91"/><rect class="cls-8" x="124.12" y="136.31" width="23.32" height="3.45"/><rect class="cls-8" x="122.08" y="139.75" width="27.92" height="7.33"/></g></g></g></svg>