<svg xmlns="http://www.w3.org/2000/svg" xmlns:xlink="http://www.w3.org/1999/xlink" viewBox="0 0 87.31 149.76"><defs><style>.cls-1{fill:url(#未命名的渐变_105);}.cls-2{fill:url(#未命名的渐变_105-2);}.cls-3{fill:url(#未命名的渐变_67);}.cls-4{fill:url(#未命名的渐变_105-3);}.cls-5{fill:url(#未命名的渐变_67-2);}.cls-6{fill:url(#未命名的渐变_105-4);}.cls-7{fill:url(#未命名的渐变_67-3);}.cls-8{fill:url(#未命名的渐变_105-5);}.cls-9{fill:url(#未命名的渐变_67-4);}.cls-10{fill:url(#未命名的渐变_105-6);}.cls-11{fill:url(#未命名的渐变_67-5);}.cls-12{fill:url(#未命名的渐变_105-7);}.cls-13{fill:url(#未命名的渐变_67-6);}.cls-14{fill:url(#未命名的渐变_105-8);}.cls-15{fill:url(#未命名的渐变_67-7);}.cls-16{fill:url(#未命名的渐变_105-9);}.cls-17{fill:url(#未命名的渐变_67-8);}.cls-18{fill:url(#未命名的渐变_105-10);}.cls-19{fill:url(#未命名的渐变_67-9);}.cls-20{fill:url(#未命名的渐变_105-11);}.cls-21{fill:url(#未命名的渐变_67-10);}.cls-22{fill:url(#未命名的渐变_105-12);}.cls-23{fill:url(#未命名的渐变_143);}.cls-24{fill:url(#未命名的渐变_67-11);}.cls-25{fill:url(#未命名的渐变_143-2);}.cls-26{fill:url(#未命名的渐变_143-3);}.cls-27{fill:url(#未命名的渐变_105-13);}.cls-28{fill:url(#未命名的渐变_67-12);}.cls-29{fill:url(#未命名的渐变_105-14);}.cls-30{fill:url(#未命名的渐变_67-13);}.cls-31{fill:url(#未命名的渐变_105-15);}.cls-32{fill:url(#未命名的渐变_67-14);}.cls-33{fill:url(#未命名的渐变_105-16);}.cls-34{fill:url(#未命名的渐变_67-15);}.cls-35{fill:url(#未命名的渐变_105-17);}.cls-36{fill:url(#未命名的渐变_67-16);}.cls-37{fill:url(#未命名的渐变_105-18);}.cls-38{fill:url(#未命名的渐变_67-17);}.cls-39{fill:url(#未命名的渐变_105-19);}.cls-40{fill:url(#未命名的渐变_67-18);}.cls-41{fill:url(#未命名的渐变_105-20);}.cls-42{fill:url(#未命名的渐变_67-19);}.cls-43{fill:url(#未命名的渐变_105-21);}.cls-44{fill:url(#未命名的渐变_67-20);}.cls-45{fill:url(#未命名的渐变_105-22);}.cls-46{fill:url(#未命名的渐变_67-21);}.cls-47{fill:url(#未命名的渐变_105-23);}.cls-48{fill:url(#未命名的渐变_67-22);}.cls-49{fill:url(#未命名的渐变_105-24);}.cls-50{fill:url(#未命名的渐变_67-23);}.cls-51{fill:url(#未命名的渐变_105-25);}.cls-52{fill:url(#未命名的渐变_67-24);}.cls-53{fill:url(#未命名的渐变_105-26);}.cls-54{fill:url(#未命名的渐变_67-25);}.cls-55{fill:url(#未命名的渐变_105-27);}.cls-56{fill:url(#未命名的渐变_67-26);}.cls-57{fill:url(#未命名的渐变_105-28);}.cls-58{fill:url(#未命名的渐变_67-27);}.cls-59{fill:url(#未命名的渐变_105-29);}.cls-60{fill:url(#未命名的渐变_67-28);}.cls-61{fill:url(#未命名的渐变_105-30);}.cls-62{fill:url(#未命名的渐变_67-29);}.cls-63{opacity:0.2;}</style><linearGradient id="未命名的渐变_105" x1="-1106.5" y1="-1578.48" x2="-1106.5" y2="-1664.84" gradientTransform="matrix(0, -1, -1, 0, -1577.71, -1031.98)" gradientUnits="userSpaceOnUse"><stop offset="0" stop-color="#e2e2e2"/><stop offset="0.03" stop-color="#d0d0d0"/><stop offset="0.06" stop-color="#bcbcbc"/><stop offset="0.09" stop-color="#b5b5b5"/><stop offset="0.49" stop-color="#f6f6f6"/><stop offset="0.63" stop-color="#f3f3f3"/><stop offset="0.73" stop-color="#eaeaea"/><stop offset="0.82" stop-color="#dbdbdb"/><stop offset="0.9" stop-color="#c6c6c6"/><stop offset="0.97" stop-color="#aaa"/><stop offset="1" stop-color="#9b9b9b"/></linearGradient><linearGradient id="未命名的渐变_105-2" x1="-1096.04" y1="-1589.99" x2="-1096.04" y2="-1676.49" gradientTransform="matrix(0, -1, -1, 0, -1589.36, -1021.16)" xlink:href="#未命名的渐变_105"/><linearGradient id="未命名的渐变_67" x1="0.8" y1="22.71" x2="87.29" y2="22.71" gradientUnits="userSpaceOnUse"><stop offset="0" stop-color="#6b6b6b"/><stop offset="0.11" stop-color="#767676"/><stop offset="0.3" stop-color="#959595"/><stop offset="0.41" stop-color="#aaa"/><stop offset="0.56" stop-color="#ccc"/><stop offset="0.71" stop-color="#eaeaea"/><stop offset="0.8" stop-color="#f6f6f6"/><stop offset="0.83" stop-color="#ededed"/><stop offset="0.87" stop-color="#d4d4d4"/><stop offset="0.92" stop-color="#ababab"/><stop offset="0.98" stop-color="#737373"/><stop offset="0.99" stop-color="#666"/></linearGradient><linearGradient id="未命名的渐变_105-3" x1="3.68" y1="22.71" x2="7.7" y2="22.71" gradientTransform="matrix(1, 0, 0, 1, 0, 0)" xlink:href="#未命名的渐变_105"/><linearGradient id="未命名的渐变_67-2" x1="4.2" y1="22.71" x2="7.18" y2="22.71" xlink:href="#未命名的渐变_67"/><linearGradient id="未命名的渐变_105-4" x1="13.27" y1="22.71" x2="17.29" y2="22.71" gradientTransform="matrix(1, 0, 0, 1, 0, 0)" xlink:href="#未命名的渐变_105"/><linearGradient id="未命名的渐变_67-3" x1="13.8" y1="22.71" x2="16.77" y2="22.71" xlink:href="#未命名的渐变_67"/><linearGradient id="未命名的渐变_105-5" x1="22.86" y1="22.71" x2="26.89" y2="22.71" gradientTransform="matrix(1, 0, 0, 1, 0, 0)" xlink:href="#未命名的渐变_105"/><linearGradient id="未命名的渐变_67-4" x1="23.39" y1="22.71" x2="26.36" y2="22.71" xlink:href="#未命名的渐变_67"/><linearGradient id="未命名的渐变_105-6" x1="32.45" y1="22.71" x2="36.48" y2="22.71" gradientTransform="matrix(1, 0, 0, 1, 0, 0)" xlink:href="#未命名的渐变_105"/><linearGradient id="未命名的渐变_67-5" x1="32.98" y1="22.71" x2="35.95" y2="22.71" xlink:href="#未命名的渐变_67"/><linearGradient id="未命名的渐变_105-7" x1="42.04" y1="22.71" x2="46.07" y2="22.71" gradientTransform="matrix(1, 0, 0, 1, 0, 0)" xlink:href="#未命名的渐变_105"/><linearGradient id="未命名的渐变_67-6" x1="42.57" y1="22.71" x2="45.54" y2="22.71" xlink:href="#未命名的渐变_67"/><linearGradient id="未命名的渐变_105-8" x1="51.64" y1="22.71" x2="55.66" y2="22.71" gradientTransform="matrix(1, 0, 0, 1, 0, 0)" xlink:href="#未命名的渐变_105"/><linearGradient id="未命名的渐变_67-7" x1="52.16" y1="22.71" x2="55.14" y2="22.71" xlink:href="#未命名的渐变_67"/><linearGradient id="未命名的渐变_105-9" x1="61.23" y1="22.71" x2="65.25" y2="22.71" gradientTransform="matrix(1, 0, 0, 1, 0, 0)" xlink:href="#未命名的渐变_105"/><linearGradient id="未命名的渐变_67-8" x1="61.76" y1="22.71" x2="64.73" y2="22.71" xlink:href="#未命名的渐变_67"/><linearGradient id="未命名的渐变_105-10" x1="70.82" y1="22.71" x2="74.85" y2="22.71" gradientTransform="matrix(1, 0, 0, 1, 0, 0)" xlink:href="#未命名的渐变_105"/><linearGradient id="未命名的渐变_67-9" x1="71.35" y1="22.71" x2="74.32" y2="22.71" xlink:href="#未命名的渐变_67"/><linearGradient id="未命名的渐变_105-11" x1="80.41" y1="22.71" x2="84.44" y2="22.71" gradientTransform="matrix(1, 0, 0, 1, 0, 0)" xlink:href="#未命名的渐变_105"/><linearGradient id="未命名的渐变_67-10" x1="80.94" y1="22.71" x2="83.91" y2="22.71" xlink:href="#未命名的渐变_67"/><linearGradient id="未命名的渐变_105-12" x1="791.17" y1="-842.07" x2="889.52" y2="-842.07" gradientTransform="translate(-810.26 917.41)" xlink:href="#未命名的渐变_105"/><linearGradient id="未命名的渐变_143" x1="790.82" y1="-839.2" x2="889.18" y2="-839.2" gradientTransform="translate(-812.79 914.19)" gradientUnits="userSpaceOnUse"><stop offset="0" stop-color="#b7b7b7"/><stop offset="0.03" stop-color="#9b9d9d"/><stop offset="0.07" stop-color="#878b8b"/><stop offset="0.09" stop-color="#808484"/><stop offset="0.2" stop-color="#a3a6a6"/><stop offset="0.49" stop-color="#f6f6f6"/><stop offset="0.61" stop-color="#f3f3f3"/><stop offset="0.7" stop-color="#eaeaea"/><stop offset="0.77" stop-color="#dbdbdb"/><stop offset="0.83" stop-color="#c5c5c5"/><stop offset="0.9" stop-color="#aaa"/><stop offset="0.95" stop-color="#888"/><stop offset="1" stop-color="#666"/></linearGradient><linearGradient id="未命名的渐变_67-11" x1="0.31" y1="107.85" x2="87.31" y2="107.85" gradientTransform="translate(0 18.13)" xlink:href="#未命名的渐变_67"/><linearGradient id="未命名的渐变_143-2" x1="0" y1="110.94" x2="87" y2="110.94" gradientTransform="translate(0 18.13)" xlink:href="#未命名的渐变_143"/><linearGradient id="未命名的渐变_143-3" x1="0.8" y1="25.81" x2="87.31" y2="25.81" gradientTransform="matrix(1, 0, 0, 1, 0, 0)" xlink:href="#未命名的渐变_143"/><linearGradient id="未命名的渐变_105-13" x1="3.43" y1="125.97" x2="7.45" y2="125.97" gradientTransform="matrix(1, 0, 0, 1, 0, 0)" xlink:href="#未命名的渐变_105"/><linearGradient id="未命名的渐变_67-12" x1="3.95" y1="125.97" x2="6.93" y2="125.97" xlink:href="#未命名的渐变_67"/><linearGradient id="未命名的渐变_105-14" x1="13.02" y1="125.97" x2="17.05" y2="125.97" gradientTransform="matrix(1, 0, 0, 1, 0, 0)" xlink:href="#未命名的渐变_105"/><linearGradient id="未命名的渐变_67-13" x1="13.55" y1="125.97" x2="16.52" y2="125.97" xlink:href="#未命名的渐变_67"/><linearGradient id="未命名的渐变_105-15" x1="22.61" y1="125.97" x2="26.64" y2="125.97" gradientTransform="matrix(1, 0, 0, 1, 0, 0)" xlink:href="#未命名的渐变_105"/><linearGradient id="未命名的渐变_67-14" x1="23.14" y1="125.97" x2="26.11" y2="125.97" xlink:href="#未命名的渐变_67"/><linearGradient id="未命名的渐变_105-16" x1="32.2" y1="125.97" x2="36.23" y2="125.97" gradientTransform="matrix(1, 0, 0, 1, 0, 0)" xlink:href="#未命名的渐变_105"/><linearGradient id="未命名的渐变_67-15" x1="32.73" y1="125.97" x2="35.7" y2="125.97" xlink:href="#未命名的渐变_67"/><linearGradient id="未命名的渐变_105-17" x1="41.79" y1="125.97" x2="45.82" y2="125.97" gradientTransform="matrix(1, 0, 0, 1, 0, 0)" xlink:href="#未命名的渐变_105"/><linearGradient id="未命名的渐变_67-16" x1="42.32" y1="125.97" x2="45.29" y2="125.97" xlink:href="#未命名的渐变_67"/><linearGradient id="未命名的渐变_105-18" x1="51.39" y1="125.97" x2="55.41" y2="125.97" gradientTransform="matrix(1, 0, 0, 1, 0, 0)" xlink:href="#未命名的渐变_105"/><linearGradient id="未命名的渐变_67-17" x1="51.91" y1="125.97" x2="54.89" y2="125.97" xlink:href="#未命名的渐变_67"/><linearGradient id="未命名的渐变_105-19" x1="60.98" y1="125.97" x2="65" y2="125.97" gradientTransform="matrix(1, 0, 0, 1, 0, 0)" xlink:href="#未命名的渐变_105"/><linearGradient id="未命名的渐变_67-18" x1="61.51" y1="125.97" x2="64.48" y2="125.97" xlink:href="#未命名的渐变_67"/><linearGradient id="未命名的渐变_105-20" x1="70.57" y1="125.97" x2="74.6" y2="125.97" gradientTransform="matrix(1, 0, 0, 1, 0, 0)" xlink:href="#未命名的渐变_105"/><linearGradient id="未命名的渐变_67-19" x1="71.1" y1="125.97" x2="74.07" y2="125.97" xlink:href="#未命名的渐变_67"/><linearGradient id="未命名的渐变_105-21" x1="80.16" y1="125.97" x2="84.19" y2="125.97" gradientTransform="matrix(1, 0, 0, 1, 0, 0)" xlink:href="#未命名的渐变_105"/><linearGradient id="未命名的渐变_67-20" x1="80.69" y1="125.97" x2="83.66" y2="125.97" xlink:href="#未命名的渐变_67"/><linearGradient id="未命名的渐变_105-22" x1="782.27" y1="-826.74" x2="786.3" y2="-826.74" gradientTransform="translate(-796.65 -753.66) rotate(90)" xlink:href="#未命名的渐变_105"/><linearGradient id="未命名的渐变_67-21" x1="782.8" y1="-826.74" x2="785.77" y2="-826.74" gradientTransform="translate(-796.65 -753.66) rotate(90)" xlink:href="#未命名的渐变_67"/><linearGradient id="未命名的渐变_105-23" x1="793.45" y1="-826.74" x2="797.48" y2="-826.74" gradientTransform="translate(-796.65 -753.66) rotate(90)" xlink:href="#未命名的渐变_105"/><linearGradient id="未命名的渐变_67-22" x1="793.98" y1="-826.74" x2="796.95" y2="-826.74" gradientTransform="translate(-796.65 -753.66) rotate(90)" xlink:href="#未命名的渐变_67"/><linearGradient id="未命名的渐变_105-24" x1="804.63" y1="-826.74" x2="808.66" y2="-826.74" gradientTransform="translate(-796.65 -753.66) rotate(90)" xlink:href="#未命名的渐变_105"/><linearGradient id="未命名的渐变_67-23" x1="805.16" y1="-826.74" x2="808.13" y2="-826.74" gradientTransform="translate(-796.65 -753.66) rotate(90)" xlink:href="#未命名的渐变_67"/><linearGradient id="未命名的渐变_105-25" x1="815.81" y1="-826.74" x2="819.84" y2="-826.74" gradientTransform="translate(-796.65 -753.66) rotate(90)" xlink:href="#未命名的渐变_105"/><linearGradient id="未命名的渐变_67-24" x1="816.34" y1="-826.74" x2="819.31" y2="-826.74" gradientTransform="translate(-796.65 -753.66) rotate(90)" xlink:href="#未命名的渐变_67"/><linearGradient id="未命名的渐变_105-26" x1="826.99" y1="-826.74" x2="831.02" y2="-826.74" gradientTransform="translate(-796.65 -753.66) rotate(90)" xlink:href="#未命名的渐变_105"/><linearGradient id="未命名的渐变_67-25" x1="827.52" y1="-826.74" x2="830.49" y2="-826.74" gradientTransform="translate(-796.65 -753.66) rotate(90)" xlink:href="#未命名的渐变_67"/><linearGradient id="未命名的渐变_105-27" x1="838.17" y1="-826.74" x2="842.2" y2="-826.74" gradientTransform="translate(-796.65 -753.66) rotate(90)" xlink:href="#未命名的渐变_105"/><linearGradient id="未命名的渐变_67-26" x1="838.7" y1="-826.74" x2="841.67" y2="-826.74" gradientTransform="translate(-796.65 -753.66) rotate(90)" xlink:href="#未命名的渐变_67"/><linearGradient id="未命名的渐变_105-28" x1="849.35" y1="-826.74" x2="853.38" y2="-826.74" gradientTransform="translate(-796.65 -753.66) rotate(90)" xlink:href="#未命名的渐变_105"/><linearGradient id="未命名的渐变_67-27" x1="849.88" y1="-826.74" x2="852.85" y2="-826.74" gradientTransform="translate(-796.65 -753.66) rotate(90)" xlink:href="#未命名的渐变_67"/><linearGradient id="未命名的渐变_105-29" x1="860.53" y1="-826.74" x2="864.56" y2="-826.74" gradientTransform="translate(-796.65 -753.66) rotate(90)" xlink:href="#未命名的渐变_105"/><linearGradient id="未命名的渐变_67-28" x1="861.06" y1="-826.74" x2="864.03" y2="-826.74" gradientTransform="translate(-796.65 -753.66) rotate(90)" xlink:href="#未命名的渐变_67"/><linearGradient id="未命名的渐变_105-30" x1="871.71" y1="-826.74" x2="875.74" y2="-826.74" gradientTransform="translate(-796.65 -753.66) rotate(90)" xlink:href="#未命名的渐变_105"/><linearGradient id="未命名的渐变_67-29" x1="872.24" y1="-826.74" x2="875.21" y2="-826.74" gradientTransform="translate(-796.65 -753.66) rotate(90)" xlink:href="#未命名的渐变_67"/></defs><title>Tank with rivets（带铆钉的油箱）</title><g id="图层_2" data-name="图层 2"><g id="图层_104" data-name="图层 104"><g id="Tank_with_rivets_带铆钉的油箱_" data-name="Tank with rivets（带铆钉的油箱）"><path class="cls-1" d="M87.12,18.25v112s0,18.11-43.17,18.49C1.91,149.15.77,130.29.77,130.29v-112S2.06.27,43.39.24C86.57.21,87.12,18.25,87.12,18.25Z"/><path class="cls-2" d="M87.13,21.8v107s.85,20.56-42.4,20.92C2.62,150.11.62,128.83.62,128.83V21.8S2.47,0,43.87,0C87.13,0,87.13,21.8,87.13,21.8Z"/><rect class="cls-3" x="0.8" y="20.35" width="86.48" height="4.73"/><ellipse class="cls-4" cx="5.69" cy="22.71" rx="2.01" ry="1.94"/><polygon class="cls-5" points="6.43 21.48 4.95 21.48 4.2 22.71 4.95 23.95 6.43 23.95 7.17 22.71 6.43 21.48"/><ellipse class="cls-6" cx="15.28" cy="22.71" rx="2.01" ry="1.94"/><polygon class="cls-7" points="16.02 21.48 14.54 21.48 13.8 22.71 14.54 23.95 16.02 23.95 16.77 22.71 16.02 21.48"/><ellipse class="cls-8" cx="24.87" cy="22.71" rx="2.01" ry="1.94"/><polygon class="cls-9" points="25.62 21.48 24.13 21.48 23.39 22.71 24.13 23.95 25.62 23.95 26.36 22.71 25.62 21.48"/><ellipse class="cls-10" cx="34.47" cy="22.71" rx="2.01" ry="1.94"/><polygon class="cls-11" points="35.21 21.48 33.72 21.48 32.98 22.71 33.72 23.95 35.21 23.95 35.95 22.71 35.21 21.48"/><ellipse class="cls-12" cx="44.06" cy="22.71" rx="2.01" ry="1.94"/><polygon class="cls-13" points="44.8 21.48 43.31 21.48 42.57 22.71 43.31 23.95 44.8 23.95 45.54 22.71 44.8 21.48"/><ellipse class="cls-14" cx="53.65" cy="22.71" rx="2.01" ry="1.94"/><polygon class="cls-15" points="54.39 21.48 52.91 21.48 52.16 22.71 52.91 23.95 54.39 23.95 55.13 22.71 54.39 21.48"/><ellipse class="cls-16" cx="63.24" cy="22.71" rx="2.01" ry="1.94"/><polygon class="cls-17" points="63.98 21.48 62.5 21.48 61.76 22.71 62.5 23.95 63.98 23.95 64.73 22.71 63.98 21.48"/><ellipse class="cls-18" cx="72.83" cy="22.71" rx="2.01" ry="1.94"/><polygon class="cls-19" points="73.58 21.48 72.09 21.48 71.35 22.71 72.09 23.95 73.58 23.95 74.32 22.71 73.58 21.48"/><ellipse class="cls-20" cx="82.43" cy="22.71" rx="2.01" ry="1.94"/><polygon class="cls-21" points="83.17 21.48 81.68 21.48 80.94 22.71 81.68 23.95 83.17 23.95 83.91 22.71 83.17 21.48"/><rect class="cls-22" x="-19.09" y="73.14" width="98.36" height="4.39" transform="translate(105.42 45.25) rotate(90)"/><rect class="cls-23" x="-21.96" y="74.31" width="98.36" height="1.35" transform="translate(102.2 47.77) rotate(90)"/><rect class="cls-24" x="0.31" y="123.61" width="87" height="4.73"/><rect class="cls-25" y="128.34" width="87" height="1.46"/><rect class="cls-26" x="0.8" y="25.08" width="86.51" height="1.46"/><ellipse class="cls-27" cx="5.44" cy="125.97" rx="2.01" ry="1.94"/><polygon class="cls-28" points="6.18 124.73 4.7 124.73 3.95 125.97 4.7 127.21 6.18 127.21 6.93 125.97 6.18 124.73"/><ellipse class="cls-29" cx="15.03" cy="125.97" rx="2.01" ry="1.94"/><polygon class="cls-30" points="15.78 124.73 14.29 124.73 13.55 125.97 14.29 127.21 15.78 127.21 16.52 125.97 15.78 124.73"/><ellipse class="cls-31" cx="24.62" cy="125.97" rx="2.01" ry="1.94"/><polygon class="cls-32" points="25.37 124.73 23.88 124.73 23.14 125.97 23.88 127.21 25.37 127.21 26.11 125.97 25.37 124.73"/><ellipse class="cls-33" cx="34.22" cy="125.97" rx="2.01" ry="1.94"/><polygon class="cls-34" points="34.96 124.73 33.47 124.73 32.73 125.97 33.47 127.21 34.96 127.21 35.7 125.97 34.96 124.73"/><ellipse class="cls-35" cx="43.81" cy="125.97" rx="2.01" ry="1.94"/><polygon class="cls-36" points="44.55 124.73 43.06 124.73 42.32 125.97 43.06 127.21 44.55 127.21 45.29 125.97 44.55 124.73"/><ellipse class="cls-37" cx="53.4" cy="125.97" rx="2.01" ry="1.94"/><polygon class="cls-38" points="54.14 124.73 52.66 124.73 51.91 125.97 52.66 127.21 54.14 127.21 54.88 125.97 54.14 124.73"/><ellipse class="cls-39" cx="62.99" cy="125.97" rx="2.01" ry="1.94"/><polygon class="cls-40" points="63.73 124.73 62.25 124.73 61.51 125.97 62.25 127.21 63.73 127.21 64.48 125.97 63.73 124.73"/><ellipse class="cls-41" cx="72.58" cy="125.97" rx="2.01" ry="1.94"/><polygon class="cls-42" points="73.33 124.73 71.84 124.73 71.1 125.97 71.84 127.21 73.33 127.21 74.07 125.97 73.33 124.73"/><ellipse class="cls-43" cx="82.18" cy="125.97" rx="2.01" ry="1.94"/><polygon class="cls-44" points="82.92 124.73 81.43 124.73 80.69 125.97 81.43 127.21 82.92 127.21 83.66 125.97 82.92 124.73"/><ellipse class="cls-45" cx="30.08" cy="30.62" rx="1.94" ry="2.01"/><polygon class="cls-46" points="31.32 31.36 31.32 29.88 30.08 29.14 28.84 29.88 28.84 31.36 30.08 32.11 31.32 31.36"/><ellipse class="cls-47" cx="30.08" cy="41.8" rx="1.94" ry="2.01"/><polygon class="cls-48" points="31.32 42.55 31.32 41.06 30.08 40.32 28.84 41.06 28.84 42.55 30.08 43.29 31.32 42.55"/><ellipse class="cls-49" cx="30.08" cy="52.98" rx="1.94" ry="2.01"/><polygon class="cls-50" points="31.32 53.73 31.32 52.24 30.08 51.5 28.84 52.24 28.84 53.73 30.08 54.47 31.32 53.73"/><ellipse class="cls-51" cx="30.08" cy="64.16" rx="1.94" ry="2.01"/><polygon class="cls-52" points="31.32 64.91 31.32 63.42 30.08 62.68 28.84 63.42 28.84 64.91 30.08 65.65 31.32 64.91"/><ellipse class="cls-53" cx="30.08" cy="75.34" rx="1.94" ry="2.01"/><polygon class="cls-54" points="31.32 76.08 31.32 74.6 30.08 73.86 28.84 74.6 28.84 76.08 30.08 76.83 31.32 76.08"/><ellipse class="cls-55" cx="30.08" cy="86.52" rx="1.94" ry="2.01"/><polygon class="cls-56" points="31.32 87.26 31.32 85.78 30.08 85.04 28.84 85.78 28.84 87.26 30.08 88.01 31.32 87.26"/><ellipse class="cls-57" cx="30.08" cy="97.7" rx="1.94" ry="2.01"/><polygon class="cls-58" points="31.32 98.44 31.32 96.96 30.08 96.22 28.84 96.96 28.84 98.44 30.08 99.19 31.32 98.44"/><ellipse class="cls-59" cx="30.08" cy="108.88" rx="1.94" ry="2.01"/><polygon class="cls-60" points="31.32 109.62 31.32 108.14 30.08 107.39 28.84 108.14 28.84 109.62 30.08 110.37 31.32 109.62"/><ellipse class="cls-61" cx="30.08" cy="120.06" rx="1.94" ry="2.01"/><polygon class="cls-62" points="31.32 120.8 31.32 119.32 30.08 118.58 28.84 119.32 28.84 120.8 30.08 121.55 31.32 120.8"/></g></g></g></svg>