<svg xmlns="http://www.w3.org/2000/svg" xmlns:xlink="http://www.w3.org/1999/xlink" viewBox="0 0 125.62 149.13"><defs><style>.cls-1{fill:url(#未命名的渐变_105);}.cls-2{fill:url(#未命名的渐变_143);}.cls-3{fill:url(#未命名的渐变_143-2);}.cls-4{fill:url(#未命名的渐变_143-3);}.cls-5{fill:url(#未命名的渐变_143-4);}.cls-6{fill:url(#未命名的渐变_143-5);}.cls-7{fill:url(#未命名的渐变_143-6);}.cls-8{opacity:0.2;}</style><linearGradient id="未命名的渐变_105" x1="0.57" y1="85.91" x2="125.62" y2="85.91" gradientUnits="userSpaceOnUse"><stop offset="0" stop-color="#e2e2e2"/><stop offset="0.03" stop-color="#d0d0d0"/><stop offset="0.06" stop-color="#bcbcbc"/><stop offset="0.09" stop-color="#b5b5b5"/><stop offset="0.49" stop-color="#f6f6f6"/><stop offset="0.63" stop-color="#f3f3f3"/><stop offset="0.73" stop-color="#eaeaea"/><stop offset="0.82" stop-color="#dbdbdb"/><stop offset="0.9" stop-color="#c6c6c6"/><stop offset="0.97" stop-color="#aaa"/><stop offset="1" stop-color="#9b9b9b"/></linearGradient><linearGradient id="未命名的渐变_143" x1="-1154.52" y1="-674.03" x2="-1154.52" y2="-548.81" gradientTransform="matrix(1, 0, 0, -1, 1217.13, -565.9)" gradientUnits="userSpaceOnUse"><stop offset="0" stop-color="#b7b7b7"/><stop offset="0.03" stop-color="#9b9d9d"/><stop offset="0.07" stop-color="#878b8b"/><stop offset="0.09" stop-color="#808484"/><stop offset="0.2" stop-color="#a3a6a6"/><stop offset="0.49" stop-color="#f6f6f6"/><stop offset="0.61" stop-color="#f3f3f3"/><stop offset="0.7" stop-color="#eaeaea"/><stop offset="0.77" stop-color="#dbdbdb"/><stop offset="0.83" stop-color="#c5c5c5"/><stop offset="0.9" stop-color="#aaa"/><stop offset="0.95" stop-color="#888"/><stop offset="1" stop-color="#666"/></linearGradient><linearGradient id="未命名的渐变_143-2" x1="-1131.27" y1="-657.7" x2="-1131.27" y2="-566.11" gradientTransform="matrix(1, 0, 0, -1, 1194.36, -589.63)" xlink:href="#未命名的渐变_143"/><linearGradient id="未命名的渐变_143-3" x1="-1121.16" y1="-665.8" x2="-1121.16" y2="-556.96" gradientTransform="matrix(0, -1, -1, 0, -548.81, -1109)" xlink:href="#未命名的渐变_143"/><linearGradient id="未命名的渐变_143-4" x1="-1110.58" y1="-667.39" x2="-1110.58" y2="-555.38" gradientTransform="matrix(1, 0, 0, -1, 1173.15, -609.8)" xlink:href="#未命名的渐变_143"/><linearGradient id="未命名的渐变_143-5" x1="-1256.25" y1="-674.03" x2="-1256.25" y2="-548.81" gradientTransform="matrix(1, 0, 0, -1, 1318.85, -464.17)" xlink:href="#未命名的渐变_143"/><linearGradient id="未命名的渐变_143-6" x1="-1248.56" y1="-674.03" x2="-1248.56" y2="-548.81" gradientTransform="matrix(1, 0, 0, -1, 1311.17, -471.86)" xlink:href="#未命名的渐变_143"/></defs><title>Tank 1（油箱） (5)</title><g id="图层_2" data-name="图层 2"><g id="图层_104" data-name="图层 104"><g id="Tank_1_油箱_" data-name="Tank 1（油箱）"><path class="cls-1" d="M5,23.38H121.16a4.47,4.47,0,0,1,4.47,4.47V148.43a0,0,0,0,1,0,0H.57a0,0,0,0,1,0,0V27.85A4.47,4.47,0,0,1,5,23.38Z"/><rect class="cls-2" x="60.73" y="-17.08" width="3.76" height="125.22" transform="translate(17.08 108.13) rotate(-90)"/><rect class="cls-3" x="61.98" y="-23.52" width="2.23" height="91.59" transform="matrix(0, -1, 1, 0, 40.82, 85.36)"/><polygon class="cls-4" points="8.15 3.17 16.81 21.16 108.4 21.16 116.99 3.17 8.15 3.17"/><rect class="cls-5" x="60.98" y="-54.42" width="3.17" height="112.01" rx="0.41" transform="translate(60.98 64.15) rotate(-90)"/><rect class="cls-6" x="60.73" y="84.64" width="3.76" height="125.22" transform="translate(-84.64 209.86) rotate(-90)"/><rect class="cls-7" x="60.73" y="76.95" width="3.76" height="125.22" transform="translate(-76.95 202.17) rotate(-90)"/></g></g></g></svg>