<svg xmlns="http://www.w3.org/2000/svg" xmlns:xlink="http://www.w3.org/1999/xlink" viewBox="0 0 123.76 149.75"><defs><style>.cls-1{fill:url(#未命名的渐变_105);}.cls-2{fill:url(#未命名的渐变_105-2);}.cls-3{fill:url(#未命名的渐变_105-3);}.cls-4{fill:url(#未命名的渐变_143);}.cls-5{fill:url(#未命名的渐变_143-2);}.cls-6{fill:url(#未命名的渐变_143-3);}.cls-7{fill:url(#未命名的渐变_143-4);}.cls-8{fill:url(#未命名的渐变_105-4);}.cls-9{fill:url(#未命名的渐变_143-5);}.cls-10{fill:url(#未命名的渐变_143-6);}.cls-11{fill:url(#未命名的渐变_105-5);}.cls-12{fill:url(#未命名的渐变_105-6);}.cls-13{fill:url(#未命名的渐变_105-7);}.cls-14{fill:url(#未命名的渐变_105-8);}.cls-15{fill:url(#未命名的渐变_143-7);}.cls-16{fill:url(#未命名的渐变_143-8);}.cls-17{opacity:0.2;}</style><linearGradient id="未命名的渐变_105" x1="-691.71" y1="-252.52" x2="-683.7" y2="-252.52" gradientTransform="translate(567.49 318.32) scale(0.73 1)" gradientUnits="userSpaceOnUse"><stop offset="0" stop-color="#e2e2e2"/><stop offset="0.03" stop-color="#d0d0d0"/><stop offset="0.06" stop-color="#bcbcbc"/><stop offset="0.09" stop-color="#b5b5b5"/><stop offset="0.49" stop-color="#f6f6f6"/><stop offset="0.63" stop-color="#f3f3f3"/><stop offset="0.73" stop-color="#eaeaea"/><stop offset="0.82" stop-color="#dbdbdb"/><stop offset="0.9" stop-color="#c6c6c6"/><stop offset="0.97" stop-color="#aaa"/><stop offset="1" stop-color="#9b9b9b"/></linearGradient><linearGradient id="未命名的渐变_105-2" x1="-281.81" y1="5.78" x2="-273.81" y2="5.78" gradientTransform="matrix(0.73, 0, 0, -1, 259.64, 76.21)" xlink:href="#未命名的渐变_105"/><linearGradient id="未命名的渐变_105-3" x1="10.8" y1="70.43" x2="26.81" y2="70.43" gradientTransform="matrix(1, 0, 0, 1, 0, 0)" xlink:href="#未命名的渐变_105"/><linearGradient id="未命名的渐变_143" x1="10.8" y1="1.52" x2="26.81" y2="1.52" gradientUnits="userSpaceOnUse"><stop offset="0" stop-color="#b7b7b7"/><stop offset="0.03" stop-color="#9b9d9d"/><stop offset="0.07" stop-color="#878b8b"/><stop offset="0.09" stop-color="#808484"/><stop offset="0.2" stop-color="#a3a6a6"/><stop offset="0.49" stop-color="#f6f6f6"/><stop offset="0.61" stop-color="#f3f3f3"/><stop offset="0.7" stop-color="#eaeaea"/><stop offset="0.77" stop-color="#dbdbdb"/><stop offset="0.83" stop-color="#c5c5c5"/><stop offset="0.9" stop-color="#aaa"/><stop offset="0.95" stop-color="#888"/><stop offset="1" stop-color="#666"/></linearGradient><linearGradient id="未命名的渐变_143-2" x1="9.4" y1="140.48" x2="28.44" y2="140.48" xlink:href="#未命名的渐变_143"/><linearGradient id="未命名的渐变_143-3" x1="1.4" y1="8.14" x2="17.41" y2="8.14" xlink:href="#未命名的渐变_143"/><linearGradient id="未命名的渐变_143-4" x1="0" y1="147.1" x2="19.04" y2="147.1" xlink:href="#未命名的渐变_143"/><linearGradient id="未命名的渐变_105-4" x1="414.75" y1="70.43" x2="430.76" y2="70.43" gradientTransform="matrix(1, 0, 0, -1, -317.8, 140.87)" xlink:href="#未命名的渐变_105"/><linearGradient id="未命名的渐变_143-5" x1="414.75" y1="1.52" x2="430.76" y2="1.52" gradientTransform="matrix(1, 0, 0, -1, -317.8, 3.04)" xlink:href="#未命名的渐变_143"/><linearGradient id="未命名的渐变_143-6" x1="413.35" y1="140.48" x2="432.39" y2="140.48" gradientTransform="matrix(1, 0, 0, -1, -318.03, 280.96)" xlink:href="#未命名的渐变_143"/><linearGradient id="未命名的渐变_105-5" x1="-294.68" y1="-82.36" x2="-286.68" y2="-82.36" gradientTransform="matrix(0.73, 0, 0, -1.13, 274.9, -15.33)" xlink:href="#未命名的渐变_105"/><linearGradient id="未命名的渐变_105-6" x1="-705.71" y1="-303.03" x2="-697.7" y2="-303.03" gradientTransform="translate(576.23 420.33) scale(0.73 1.12)" xlink:href="#未命名的渐变_105"/><linearGradient id="未命名的渐变_105-7" x1="1.4" y1="77.05" x2="17.41" y2="77.05" gradientTransform="matrix(1, 0, 0, 1, 0, 0)" xlink:href="#未命名的渐变_105"/><linearGradient id="未命名的渐变_105-8" x1="405.35" y1="77.05" x2="421.36" y2="77.05" gradientTransform="matrix(1, 0, 0, -1, -299, 154.1)" xlink:href="#未命名的渐变_105"/><linearGradient id="未命名的渐变_143-7" x1="405.35" y1="8.14" x2="421.36" y2="8.14" gradientTransform="matrix(1, 0, 0, -1, -299, 16.27)" xlink:href="#未命名的渐变_143"/><linearGradient id="未命名的渐变_143-8" x1="403.95" y1="147.1" x2="422.99" y2="147.1" gradientTransform="matrix(1, 0, 0, -1, -299.23, 294.19)" xlink:href="#未命名的渐变_143"/></defs><title>Tank support 1（油箱支架） (2)</title><g id="图层_2" data-name="图层 2"><g id="图层_104" data-name="图层 104"><g id="Tank_support_1_油箱支架_" data-name="Tank support 1（油箱支架）"><rect class="cls-1" x="61.5" y="-1.58" width="5.86" height="134.78" transform="translate(-27.24 56.93) rotate(-40.07)"/><rect class="cls-2" x="53.49" y="3.04" width="5.86" height="134.78" transform="translate(54.26 160.65) rotate(-139.93)"/><rect class="cls-3" x="10.8" y="3.04" width="16.01" height="134.78"/><rect class="cls-4" x="10.8" width="16.01" height="3.04"/><rect class="cls-5" x="9.4" y="137.82" width="19.04" height="5.32" rx="0.73"/><rect class="cls-6" x="1.4" y="6.62" width="16.01" height="3.04"/><rect class="cls-7" y="144.44" width="19.04" height="5.32" rx="0.73"/><rect class="cls-8" x="96.95" y="3.04" width="16.01" height="134.78" transform="translate(209.91 140.87) rotate(180)"/><rect class="cls-9" x="96.95" width="16.01" height="3.04" transform="translate(209.91 3.04) rotate(180)"/><rect class="cls-10" x="95.32" y="137.82" width="19.04" height="5.32" rx="0.73" transform="translate(209.68 280.96) rotate(-180)"/><rect class="cls-11" x="59.34" y="1.65" width="5.86" height="152.93" transform="translate(59.62 177.97) rotate(-139.93)"/><rect class="cls-12" x="59.99" y="4.23" width="5.86" height="151.4" transform="translate(-36.68 59.27) rotate(-40.07)"/><rect class="cls-13" x="1.4" y="9.66" width="16.01" height="134.78"/><rect class="cls-14" x="106.35" y="9.66" width="16.01" height="134.78" transform="translate(228.71 154.1) rotate(180)"/><rect class="cls-15" x="106.35" y="6.62" width="16.01" height="3.04" transform="translate(228.71 16.27) rotate(180)"/><rect class="cls-16" x="104.72" y="144.44" width="19.04" height="5.32" rx="0.73" transform="translate(228.48 294.19) rotate(-180)"/></g></g></g></svg>