<svg xmlns="http://www.w3.org/2000/svg" xmlns:xlink="http://www.w3.org/1999/xlink" viewBox="0 0 129.48 150"><defs><style>.cls-1{fill:url(#未命名的渐变_143);}.cls-2{fill:url(#未命名的渐变_143-2);}.cls-3{fill:url(#未命名的渐变_143-3);}.cls-4{fill:url(#未命名的渐变_143-4);}.cls-5{fill:url(#未命名的渐变_105);}.cls-6{fill:url(#未命名的渐变_143-5);}.cls-7{fill:url(#未命名的渐变_143-6);}.cls-8{fill:url(#未命名的渐变_143-7);}.cls-9{opacity:0.2;}</style><linearGradient id="未命名的渐变_143" x1="-328.04" y1="13.59" x2="-318.4" y2="13.59" gradientTransform="matrix(1, 0, 0, -1, 392.89, 27.17)" gradientUnits="userSpaceOnUse"><stop offset="0" stop-color="#b7b7b7"/><stop offset="0.03" stop-color="#9b9d9d"/><stop offset="0.07" stop-color="#878b8b"/><stop offset="0.09" stop-color="#808484"/><stop offset="0.2" stop-color="#a3a6a6"/><stop offset="0.49" stop-color="#f6f6f6"/><stop offset="0.61" stop-color="#f3f3f3"/><stop offset="0.7" stop-color="#eaeaea"/><stop offset="0.77" stop-color="#dbdbdb"/><stop offset="0.83" stop-color="#c5c5c5"/><stop offset="0.9" stop-color="#aaa"/><stop offset="0.95" stop-color="#888"/><stop offset="1" stop-color="#666"/></linearGradient><linearGradient id="未命名的渐变_143-2" x1="-301.99" y1="10.75" x2="-301.99" y2="0" gradientTransform="matrix(-1, 0, 0, 1, -233.5, 0)" xlink:href="#未命名的渐变_143"/><linearGradient id="未命名的渐变_143-3" x1="-237.13" y1="10.84" x2="-237.13" y2="0.09" gradientTransform="translate(242.76)" xlink:href="#未命名的渐变_143"/><linearGradient id="未命名的渐变_143-4" x1="-290.3" y1="6.89" x2="-290.3" y2="0" gradientTransform="matrix(1, 0, 0, -1, 327.05, 6.89)" xlink:href="#未命名的渐变_143"/><linearGradient id="未命名的渐变_105" x1="-383.03" y1="82.1" x2="-262.11" y2="82.1" gradientTransform="matrix(-1, 0, 0, 1, -253.55, 0)" gradientUnits="userSpaceOnUse"><stop offset="0" stop-color="#e2e2e2"/><stop offset="0.03" stop-color="#d0d0d0"/><stop offset="0.06" stop-color="#bcbcbc"/><stop offset="0.09" stop-color="#b5b5b5"/><stop offset="0.49" stop-color="#f6f6f6"/><stop offset="0.63" stop-color="#f3f3f3"/><stop offset="0.73" stop-color="#eaeaea"/><stop offset="0.82" stop-color="#dbdbdb"/><stop offset="0.9" stop-color="#c6c6c6"/><stop offset="0.97" stop-color="#aaa"/><stop offset="1" stop-color="#9b9b9b"/></linearGradient><linearGradient id="未命名的渐变_143-5" x1="-1155.36" y1="-674.58" x2="-1155.36" y2="-554.44" gradientTransform="matrix(1, 0, 0, -1, 1224.5, -564.7)" xlink:href="#未命名的渐变_143"/><linearGradient id="未命名的渐变_143-6" x1="-1244.48" y1="-674.85" x2="-1244.48" y2="-553.74" gradientTransform="matrix(1, 0, 0, -1, 1313.4, -475.37)" xlink:href="#未命名的渐变_143"/><linearGradient id="未命名的渐变_143-7" x1="-410.96" y1="77.83" x2="-401.89" y2="77.83" gradientTransform="translate(410.96)" xlink:href="#未命名的渐变_143"/></defs><title>Tank 1（油箱） (2)</title><g id="图层_2" data-name="图层 2"><g id="图层_104" data-name="图层 104"><g id="Tank_1_油箱_" data-name="Tank 1（油箱）"><rect class="cls-1" x="64.85" y="10.75" width="9.64" height="5.67" transform="translate(139.34 27.17) rotate(180)"/><path class="cls-2" d="M62.23,6.93V.07s7.21-.74,10.71,2.67c2.75,2.68,1.55,8,1.55,8H64.39s.47-2-.71-3.13C62.68,6.66,62.23,6.93,62.23,6.93Z"/><path class="cls-3" d="M11.27,7V.16S4.78-.58,1.63,2.83c-2.47,2.68-1.4,8-1.4,8H9.32S8.9,8.82,10,7.7C10.86,6.75,11.27,7,11.27,7Z"/><rect class="cls-4" x="11.27" width="50.96" height="6.89" transform="translate(73.5 6.89) rotate(180)"/><path class="cls-5" d="M8.73,144.66S15,149.09,69,149.92c52.54.82,60.22-5.26,60.22-5.26V40.08S136.64,14.21,69,14.21C2.34,14.21,8.73,40.08,8.73,40.08Z"/><rect class="cls-6" x="67.52" y="-10.27" width="3.25" height="120.15" transform="translate(19.33 118.95) rotate(-90)"/><rect class="cls-7" x="67.3" y="78.37" width="3.25" height="121.11" transform="translate(-70 207.85) rotate(-90)"/><rect class="cls-8" y="10.84" width="9.07" height="133.97"/></g></g></g></svg>