<svg xmlns="http://www.w3.org/2000/svg" xmlns:xlink="http://www.w3.org/1999/xlink" viewBox="0 0 136.9 150"><defs><style>.cls-1{fill:url(#未命名的渐变_105);}.cls-2{fill:url(#未命名的渐变_105-2);}.cls-3{fill:url(#未命名的渐变_105-3);}.cls-4{fill:url(#未命名的渐变_105-4);}.cls-5{fill:url(#未命名的渐变_143);}.cls-6{fill:url(#未命名的渐变_143-2);}.cls-7{fill:url(#未命名的渐变_143-3);}.cls-8{fill:url(#未命名的渐变_143-4);}.cls-9{fill:url(#未命名的渐变_143-5);}.cls-10{fill:url(#未命名的渐变_143-6);}.cls-11{fill:url(#未命名的渐变_143-7);}.cls-12{fill:url(#未命名的渐变_143-8);}.cls-13{opacity:0.2;}</style><linearGradient id="未命名的渐变_105" y1="75" x2="34.23" y2="75" gradientUnits="userSpaceOnUse"><stop offset="0" stop-color="#e2e2e2"/><stop offset="0.03" stop-color="#d0d0d0"/><stop offset="0.06" stop-color="#bcbcbc"/><stop offset="0.09" stop-color="#b5b5b5"/><stop offset="0.49" stop-color="#f6f6f6"/><stop offset="0.63" stop-color="#f3f3f3"/><stop offset="0.73" stop-color="#eaeaea"/><stop offset="0.82" stop-color="#dbdbdb"/><stop offset="0.9" stop-color="#c6c6c6"/><stop offset="0.97" stop-color="#aaa"/><stop offset="1" stop-color="#9b9b9b"/></linearGradient><linearGradient id="未命名的渐变_105-2" x1="34.22" y1="75" x2="68.45" y2="75" xlink:href="#未命名的渐变_105"/><linearGradient id="未命名的渐变_105-3" x1="68.45" y1="75" x2="102.68" y2="75" xlink:href="#未命名的渐变_105"/><linearGradient id="未命名的渐变_105-4" x1="102.67" y1="75" x2="136.9" y2="75" xlink:href="#未命名的渐变_105"/><linearGradient id="未命名的渐变_143" x1="260.42" y1="-381.74" x2="260.42" y2="-347.52" gradientTransform="translate(-347.52 -742.84) rotate(90) scale(2.91 1)" gradientUnits="userSpaceOnUse"><stop offset="0" stop-color="#b7b7b7"/><stop offset="0.03" stop-color="#9b9d9d"/><stop offset="0.07" stop-color="#878b8b"/><stop offset="0.09" stop-color="#808484"/><stop offset="0.2" stop-color="#a3a6a6"/><stop offset="0.49" stop-color="#f6f6f6"/><stop offset="0.61" stop-color="#f3f3f3"/><stop offset="0.7" stop-color="#eaeaea"/><stop offset="0.77" stop-color="#dbdbdb"/><stop offset="0.83" stop-color="#c5c5c5"/><stop offset="0.9" stop-color="#aaa"/><stop offset="0.95" stop-color="#888"/><stop offset="1" stop-color="#666"/></linearGradient><linearGradient id="未命名的渐变_143-2" x1="301.43" y1="-381.74" x2="301.43" y2="-347.52" xlink:href="#未命名的渐变_143"/><linearGradient id="未命名的渐变_143-3" x1="260.42" y1="-415.97" x2="260.42" y2="-381.74" xlink:href="#未命名的渐变_143"/><linearGradient id="未命名的渐变_143-4" x1="301.43" y1="-415.97" x2="301.43" y2="-381.74" xlink:href="#未命名的渐变_143"/><linearGradient id="未命名的渐变_143-5" x1="260.42" y1="-450.19" x2="260.42" y2="-415.97" xlink:href="#未命名的渐变_143"/><linearGradient id="未命名的渐变_143-6" x1="301.43" y1="-450.19" x2="301.43" y2="-415.97" xlink:href="#未命名的渐变_143"/><linearGradient id="未命名的渐变_143-7" x1="260.42" y1="-484.42" x2="260.42" y2="-450.19" xlink:href="#未命名的渐变_143"/><linearGradient id="未命名的渐变_143-8" x1="301.43" y1="-484.42" x2="301.43" y2="-450.19" xlink:href="#未命名的渐变_143"/></defs><title>Tank 1（油箱） (9)</title><g id="图层_2" data-name="图层 2"><g id="图层_104" data-name="图层 104"><g id="Tank_1_油箱_" data-name="Tank 1（油箱）"><rect class="cls-1" width="34.23" height="150" rx="3.88"/><rect class="cls-2" x="34.22" width="34.23" height="150" rx="3.88"/><rect class="cls-3" x="68.45" width="34.23" height="150" rx="3.88"/><rect class="cls-4" x="102.67" width="34.23" height="150" rx="3.88"/><polygon class="cls-5" points="0 15.99 0 14.3 34.23 14.3 34.23 15.91 0 15.99"/><polygon class="cls-6" points="0 135.35 0 133.66 34.23 133.66 34.23 135.28 0 135.35"/><polygon class="cls-7" points="34.23 15.99 34.23 14.3 68.45 14.3 68.45 15.91 34.23 15.99"/><polygon class="cls-8" points="34.23 135.35 34.23 133.66 68.45 133.66 68.45 135.28 34.23 135.35"/><polygon class="cls-9" points="68.45 15.99 68.45 14.3 102.67 14.3 102.67 15.91 68.45 15.99"/><polygon class="cls-10" points="68.45 135.35 68.45 133.66 102.67 133.66 102.67 135.28 68.45 135.35"/><polygon class="cls-11" points="102.68 15.99 102.68 14.3 136.9 14.3 136.9 15.91 102.68 15.99"/><polygon class="cls-12" points="102.67 135.35 102.67 133.66 136.9 133.66 136.9 135.28 102.67 135.35"/></g></g></g></svg>