<svg xmlns="http://www.w3.org/2000/svg" xmlns:xlink="http://www.w3.org/1999/xlink" viewBox="0 0 127.06 149.6"><defs><style>.cls-1{fill:url(#未命名的渐变_105);}.cls-2{fill:url(#未命名的渐变_105-2);}.cls-3{fill:url(#未命名的渐变_105-3);}.cls-4{fill:url(#未命名的渐变_143);}.cls-5{fill:url(#未命名的渐变_105-4);}.cls-6{fill:url(#未命名的渐变_143-2);}.cls-7{fill:url(#未命名的渐变_105-5);}.cls-8{fill:url(#未命名的渐变_105-6);}.cls-9{fill:url(#未命名的渐变_105-7);}.cls-10{fill:url(#未命名的渐变_105-8);}.cls-11{fill:url(#未命名的渐变_105-9);}.cls-12{fill:url(#未命名的渐变_105-10);}.cls-13{fill:url(#未命名的渐变_105-11);}.cls-14{fill:url(#未命名的渐变_105-12);}.cls-15{fill:url(#未命名的渐变_143-3);}.cls-16{fill:url(#未命名的渐变_143-4);}.cls-17{fill:url(#未命名的渐变_143-5);}.cls-18{fill:url(#未命名的渐变_143-6);}.cls-19{fill:url(#未命名的渐变_105-13);}.cls-20{fill:url(#未命名的渐变_143-7);}.cls-21{opacity:0.2;}</style><linearGradient id="未命名的渐变_105" x1="108.64" y1="107.36" x2="123.27" y2="107.36" gradientUnits="userSpaceOnUse"><stop offset="0" stop-color="#e2e2e2"/><stop offset="0.03" stop-color="#d0d0d0"/><stop offset="0.06" stop-color="#bcbcbc"/><stop offset="0.09" stop-color="#b5b5b5"/><stop offset="0.49" stop-color="#f6f6f6"/><stop offset="0.63" stop-color="#f3f3f3"/><stop offset="0.73" stop-color="#eaeaea"/><stop offset="0.82" stop-color="#dbdbdb"/><stop offset="0.9" stop-color="#c6c6c6"/><stop offset="0.97" stop-color="#aaa"/><stop offset="1" stop-color="#9b9b9b"/></linearGradient><linearGradient id="未命名的渐变_105-2" x1="51.87" y1="49.44" x2="74.95" y2="49.44" xlink:href="#未命名的渐变_105"/><linearGradient id="未命名的渐变_105-3" x1="3.08" y1="108.33" x2="17.71" y2="108.33" xlink:href="#未命名的渐变_105"/><linearGradient id="未命名的渐变_143" x1="108.64" y1="106.39" x2="123.27" y2="106.39" gradientUnits="userSpaceOnUse"><stop offset="0" stop-color="#b7b7b7"/><stop offset="0.03" stop-color="#9b9d9d"/><stop offset="0.07" stop-color="#878b8b"/><stop offset="0.09" stop-color="#808484"/><stop offset="0.2" stop-color="#a3a6a6"/><stop offset="0.49" stop-color="#f6f6f6"/><stop offset="0.61" stop-color="#f3f3f3"/><stop offset="0.7" stop-color="#eaeaea"/><stop offset="0.77" stop-color="#dbdbdb"/><stop offset="0.83" stop-color="#c5c5c5"/><stop offset="0.9" stop-color="#aaa"/><stop offset="0.95" stop-color="#888"/><stop offset="1" stop-color="#666"/></linearGradient><linearGradient id="未命名的渐变_105-4" x1="2.1" y1="68.73" x2="124.94" y2="68.73" xlink:href="#未命名的渐变_105"/><linearGradient id="未命名的渐变_143-2" x1="3.08" y1="107.36" x2="17.71" y2="107.36" xlink:href="#未命名的渐变_143"/><linearGradient id="未命名的渐变_105-5" x1="63.93" y1="19.66" x2="63.93" y2="17.01" xlink:href="#未命名的渐变_105"/><linearGradient id="未命名的渐变_105-6" x1="62.4" y1="127.42" x2="62.4" y2="124.77" xlink:href="#未命名的渐变_105"/><linearGradient id="未命名的渐变_105-7" x1="63.53" y1="109.71" x2="63.53" y2="107.06" xlink:href="#未命名的渐变_105"/><linearGradient id="未命名的渐变_105-8" x1="63.53" y1="91.79" x2="63.53" y2="89.14" xlink:href="#未命名的渐变_105"/><linearGradient id="未命名的渐变_105-9" x1="63.53" y1="74.44" x2="63.53" y2="71.79" xlink:href="#未命名的渐变_105"/><linearGradient id="未命名的渐变_105-10" x1="63.53" y1="55.8" x2="63.53" y2="53.15" xlink:href="#未命名的渐变_105"/><linearGradient id="未命名的渐变_105-11" x1="63.53" y1="37.16" x2="63.53" y2="34.51" xlink:href="#未命名的渐变_105"/><linearGradient id="未命名的渐变_105-12" x1="70.12" y1="-628.98" x2="70.12" y2="-630.11" gradientTransform="matrix(1, 0, 0, -3.25, -6.7, -1971.89)" xlink:href="#未命名的渐变_105"/><linearGradient id="未命名的渐变_143-3" x1="56.33" y1="68.17" x2="70.96" y2="68.17" xlink:href="#未命名的渐变_143"/><linearGradient id="未命名的渐变_143-4" x1="55" y1="147.67" x2="72.19" y2="147.67" xlink:href="#未命名的渐变_143"/><linearGradient id="未命名的渐变_143-5" x1="1.75" y1="148.26" x2="18.94" y2="148.26" xlink:href="#未命名的渐变_143"/><linearGradient id="未命名的渐变_143-6" x1="107.31" y1="147.29" x2="124.5" y2="147.29" xlink:href="#未命名的渐变_143"/><linearGradient id="未命名的渐变_105-13" x1="56.33" y1="107.73" x2="70.96" y2="107.73" xlink:href="#未命名的渐变_105"/><linearGradient id="未命名的渐变_143-7" x1="56.33" y1="106.76" x2="70.96" y2="106.76" xlink:href="#未命名的渐变_143"/></defs><title>Tank 1（油箱）</title><g id="图层_2" data-name="图层 2"><g id="图层_104" data-name="图层 104"><g id="Tank_1_油箱_" data-name="Tank 1（油箱）"><rect class="cls-1" x="108.64" y="68.77" width="14.63" height="77.19"/><rect class="cls-2" x="51.87" width="23.08" height="98.87"/><rect class="cls-3" x="3.08" y="69.73" width="14.63" height="77.19"/><rect class="cls-4" x="108.64" y="105.42" width="14.63" height="1.94"/><ellipse class="cls-5" cx="63.52" cy="68.73" rx="61.42" ry="62.04"/><rect class="cls-6" x="3.08" y="106.39" width="14.63" height="1.94"/><path class="cls-7" d="M100.08,17H27c-.85.65-1.68,1.32-2.51,2v.64h78.91C102.31,18.74,101.2,17.86,100.08,17Z"/><path class="cls-8" d="M38.87,127.42H85.93c.67-.86,1.34-1.72,2-2.65h-51C37.53,125.7,38.2,126.56,38.87,127.42Z"/><path class="cls-9" d="M10.21,109.71H116.84c.53-.87,1-1.76,1.51-2.65H8.71C9.2,108,9.69,108.84,10.21,109.71Z"/><path class="cls-10" d="M2.57,91.79H124.49c.24-.87.43-1.76.63-2.65H1.93C2.14,90,2.33,90.92,2.57,91.79Z"/><path class="cls-11" d="M0,72.72c0,.58.07,1.14.08,1.72H127c0-.58.08-1.14.08-1.72,0-.32,0-.62,0-.93H0C0,72.1,0,72.4,0,72.72Z"/><path class="cls-12" d="M2.05,55.8H125c-.21-.88-.39-1.78-.64-2.65H2.69C2.44,54,2.26,54.92,2.05,55.8Z"/><path class="cls-13" d="M9.4,37.16H117.66c-.5-.88-1-1.79-1.51-2.65H10.91C10.37,35.37,9.9,36.28,9.4,37.16Z"/><rect class="cls-14" x="-3.47" y="70.31" width="133.76" height="3.67" transform="translate(135.56 8.74) rotate(90)"/><rect class="cls-15" x="56.33" y="67.2" width="14.63" height="1.94"/><rect class="cls-16" x="55" y="146.32" width="17.19" height="2.68" rx="0.24"/><rect class="cls-17" x="1.75" y="146.92" width="17.19" height="2.68" rx="0.24"/><rect class="cls-18" x="107.31" y="145.95" width="17.19" height="2.68" rx="0.24"/><rect class="cls-19" x="56.33" y="69.14" width="14.63" height="77.19"/><rect class="cls-20" x="56.33" y="105.8" width="14.63" height="1.94"/></g></g></g></svg>