<svg xmlns="http://www.w3.org/2000/svg" xmlns:xlink="http://www.w3.org/1999/xlink" viewBox="0 0 121.9 149.65"><defs><style>.cls-1{fill:url(#未命名的渐变_105);}.cls-2{fill:url(#未命名的渐变_105-2);}.cls-3{fill:url(#未命名的渐变_67);}.cls-4{fill:url(#未命名的渐变_105-3);}.cls-5{fill:url(#未命名的渐变_67-2);}.cls-6{fill:url(#未命名的渐变_105-4);}.cls-7{fill:url(#未命名的渐变_67-3);}.cls-8{fill:url(#未命名的渐变_105-5);}.cls-9{fill:url(#未命名的渐变_67-4);}.cls-10{fill:url(#未命名的渐变_105-6);}.cls-11{fill:url(#未命名的渐变_67-5);}.cls-12{fill:url(#未命名的渐变_105-7);}.cls-13{fill:url(#未命名的渐变_67-6);}.cls-14{fill:url(#未命名的渐变_105-8);}.cls-15{fill:url(#未命名的渐变_67-7);}.cls-16{fill:url(#未命名的渐变_105-9);}.cls-17{fill:url(#未命名的渐变_67-8);}.cls-18{fill:url(#未命名的渐变_105-10);}.cls-19{fill:url(#未命名的渐变_67-9);}.cls-20{fill:url(#未命名的渐变_105-11);}.cls-21{fill:url(#未命名的渐变_67-10);}.cls-22{fill:url(#未命名的渐变_105-12);}.cls-23{fill:url(#未命名的渐变_67-11);}.cls-24{fill:url(#未命名的渐变_105-13);}.cls-25{fill:url(#未命名的渐变_67-12);}.cls-26{fill:url(#未命名的渐变_105-14);}.cls-27{fill:url(#未命名的渐变_67-13);}.cls-28{fill:url(#未命名的渐变_105-15);}.cls-29{fill:url(#未命名的渐变_67-14);}.cls-30{fill:url(#未命名的渐变_105-16);}.cls-31{fill:url(#未命名的渐变_67-15);}.cls-32{fill:url(#未命名的渐变_105-17);}.cls-33{fill:url(#未命名的渐变_67-16);}.cls-34{fill:url(#未命名的渐变_105-18);}.cls-35{fill:url(#未命名的渐变_67-17);}.cls-36{fill:url(#未命名的渐变_105-19);}.cls-37{fill:url(#未命名的渐变_67-18);}.cls-38{fill:url(#未命名的渐变_105-20);}.cls-39{fill:url(#未命名的渐变_67-19);}.cls-40{fill:url(#未命名的渐变_105-21);}.cls-41{fill:url(#未命名的渐变_67-20);}.cls-42{fill:url(#未命名的渐变_105-22);}.cls-43{fill:url(#未命名的渐变_67-21);}.cls-44{fill:url(#未命名的渐变_105-23);}.cls-45{fill:url(#未命名的渐变_67-22);}.cls-46{fill:url(#未命名的渐变_105-24);}.cls-47{fill:url(#未命名的渐变_67-23);}.cls-48{fill:url(#未命名的渐变_105-25);}.cls-49{fill:url(#未命名的渐变_67-24);}.cls-50{fill:url(#未命名的渐变_143);}.cls-51{fill:url(#未命名的渐变_143-2);}.cls-52{fill:url(#未命名的渐变_143-3);}.cls-53{fill:url(#未命名的渐变_143-4);}.cls-54{fill:url(#未命名的渐变_143-5);}.cls-55{fill:url(#未命名的渐变_143-6);}.cls-56{fill:url(#未命名的渐变_143-7);}.cls-57{fill:url(#未命名的渐变_143-8);}.cls-58{fill:url(#未命名的渐变_143-9);}.cls-59{fill:url(#未命名的渐变_143-10);}.cls-60{fill:url(#未命名的渐变_143-11);}.cls-61{fill:url(#未命名的渐变_143-12);}.cls-62{fill:url(#未命名的渐变_143-13);}.cls-63{opacity:0.2;}</style><linearGradient id="未命名的渐变_105" y1="79.97" x2="121.9" y2="79.97" gradientUnits="userSpaceOnUse"><stop offset="0" stop-color="#e2e2e2"/><stop offset="0.03" stop-color="#d0d0d0"/><stop offset="0.06" stop-color="#bcbcbc"/><stop offset="0.09" stop-color="#b5b5b5"/><stop offset="0.49" stop-color="#f6f6f6"/><stop offset="0.63" stop-color="#f3f3f3"/><stop offset="0.73" stop-color="#eaeaea"/><stop offset="0.82" stop-color="#dbdbdb"/><stop offset="0.9" stop-color="#c6c6c6"/><stop offset="0.97" stop-color="#aaa"/><stop offset="1" stop-color="#9b9b9b"/></linearGradient><linearGradient id="未命名的渐变_105-2" x1="1081.72" y1="-840.26" x2="1085.37" y2="-840.26" gradientTransform="translate(-825.13 -1067.12) rotate(90)" xlink:href="#未命名的渐变_105"/><linearGradient id="未命名的渐变_67" x1="1082.2" y1="-840.26" x2="1084.89" y2="-840.26" gradientTransform="translate(-825.13 -1067.12) rotate(90)" gradientUnits="userSpaceOnUse"><stop offset="0" stop-color="#6b6b6b"/><stop offset="0.11" stop-color="#767676"/><stop offset="0.3" stop-color="#959595"/><stop offset="0.41" stop-color="#aaa"/><stop offset="0.56" stop-color="#ccc"/><stop offset="0.71" stop-color="#eaeaea"/><stop offset="0.8" stop-color="#f6f6f6"/><stop offset="0.83" stop-color="#ededed"/><stop offset="0.87" stop-color="#d4d4d4"/><stop offset="0.92" stop-color="#ababab"/><stop offset="0.98" stop-color="#737373"/><stop offset="0.99" stop-color="#666"/></linearGradient><linearGradient id="未命名的渐变_105-3" x1="1093.57" y1="-840.05" x2="1097.21" y2="-840.05" gradientTransform="translate(-825.13 -1067.12) rotate(90)" xlink:href="#未命名的渐变_105"/><linearGradient id="未命名的渐变_67-2" x1="1094.04" y1="-840.05" x2="1096.73" y2="-840.05" xlink:href="#未命名的渐变_67"/><linearGradient id="未命名的渐变_105-4" x1="1105" y1="-840.05" x2="1108.64" y2="-840.05" gradientTransform="translate(-825.13 -1067.12) rotate(90)" xlink:href="#未命名的渐变_105"/><linearGradient id="未命名的渐变_67-3" x1="1105.47" y1="-840.05" x2="1108.16" y2="-840.05" xlink:href="#未命名的渐变_67"/><linearGradient id="未命名的渐变_105-5" x1="1116.43" y1="-840.26" x2="1120.07" y2="-840.26" gradientTransform="translate(-825.13 -1067.12) rotate(90)" xlink:href="#未命名的渐变_105"/><linearGradient id="未命名的渐变_67-4" x1="1116.9" y1="-840.26" x2="1119.59" y2="-840.26" xlink:href="#未命名的渐变_67"/><linearGradient id="未命名的渐变_105-6" x1="1128.27" y1="-840.26" x2="1131.91" y2="-840.26" gradientTransform="translate(-825.13 -1067.12) rotate(90)" xlink:href="#未命名的渐变_105"/><linearGradient id="未命名的渐变_67-5" x1="1128.75" y1="-840.26" x2="1131.43" y2="-840.26" xlink:href="#未命名的渐变_67"/><linearGradient id="未命名的渐变_105-7" x1="1139.7" y1="-840.05" x2="1143.34" y2="-840.05" gradientTransform="translate(-825.13 -1067.12) rotate(90)" xlink:href="#未命名的渐变_105"/><linearGradient id="未命名的渐变_67-6" x1="1140.18" y1="-840.05" x2="1142.86" y2="-840.05" xlink:href="#未命名的渐变_67"/><linearGradient id="未命名的渐变_105-8" x1="1151.13" y1="-840.26" x2="1154.77" y2="-840.26" gradientTransform="translate(-825.13 -1067.12) rotate(90)" xlink:href="#未命名的渐变_105"/><linearGradient id="未命名的渐变_67-7" x1="1151.61" y1="-840.26" x2="1154.3" y2="-840.26" xlink:href="#未命名的渐变_67"/><linearGradient id="未命名的渐变_105-9" x1="1163.04" y1="-840.05" x2="1166.68" y2="-840.05" gradientTransform="translate(-825.13 -1067.12) rotate(90)" xlink:href="#未命名的渐变_105"/><linearGradient id="未命名的渐变_67-8" x1="1163.52" y1="-840.05" x2="1166.2" y2="-840.05" xlink:href="#未命名的渐变_67"/><linearGradient id="未命名的渐变_105-10" x1="1174.47" y1="-840.26" x2="1178.11" y2="-840.26" gradientTransform="translate(-825.13 -1067.12) rotate(90)" xlink:href="#未命名的渐变_105"/><linearGradient id="未命名的渐变_67-9" x1="1174.95" y1="-840.26" x2="1177.64" y2="-840.26" xlink:href="#未命名的渐变_67"/><linearGradient id="未命名的渐变_105-11" x1="1186.31" y1="-840.26" x2="1189.95" y2="-840.26" gradientTransform="translate(-825.13 -1067.12) rotate(90)" xlink:href="#未命名的渐变_105"/><linearGradient id="未命名的渐变_67-10" x1="1186.79" y1="-840.26" x2="1189.48" y2="-840.26" xlink:href="#未命名的渐变_67"/><linearGradient id="未命名的渐变_105-12" x1="1197.74" y1="-840.05" x2="1201.38" y2="-840.05" gradientTransform="translate(-825.13 -1067.12) rotate(90)" xlink:href="#未命名的渐变_105"/><linearGradient id="未命名的渐变_67-11" x1="1198.22" y1="-840.05" x2="1200.91" y2="-840.05" xlink:href="#未命名的渐变_67"/><linearGradient id="未命名的渐变_105-13" x1="1209.17" y1="-840.26" x2="1212.82" y2="-840.26" gradientTransform="translate(-825.13 -1067.12) rotate(90)" xlink:href="#未命名的渐变_105"/><linearGradient id="未命名的渐变_67-12" x1="1209.65" y1="-840.26" x2="1212.34" y2="-840.26" xlink:href="#未命名的渐变_67"/><linearGradient id="未命名的渐变_105-14" x1="1081.85" y1="-926.93" x2="1085.49" y2="-926.93" gradientTransform="translate(-825.13 -1067.12) rotate(90)" xlink:href="#未命名的渐变_105"/><linearGradient id="未命名的渐变_67-13" x1="1082.32" y1="-926.93" x2="1085.01" y2="-926.93" xlink:href="#未命名的渐变_67"/><linearGradient id="未命名的渐变_105-15" x1="1093.69" y1="-926.71" x2="1097.33" y2="-926.71" gradientTransform="translate(-825.13 -1067.12) rotate(90)" xlink:href="#未命名的渐变_105"/><linearGradient id="未命名的渐变_67-14" x1="1094.17" y1="-926.71" x2="1096.85" y2="-926.71" xlink:href="#未命名的渐变_67"/><linearGradient id="未命名的渐变_105-16" x1="1105.12" y1="-926.71" x2="1108.76" y2="-926.71" gradientTransform="translate(-825.13 -1067.12) rotate(90)" xlink:href="#未命名的渐变_105"/><linearGradient id="未命名的渐变_67-15" x1="1105.6" y1="-926.71" x2="1108.28" y2="-926.71" xlink:href="#未命名的渐变_67"/><linearGradient id="未命名的渐变_105-17" x1="1116.55" y1="-926.93" x2="1120.19" y2="-926.93" gradientTransform="translate(-825.13 -1067.12) rotate(90)" xlink:href="#未命名的渐变_105"/><linearGradient id="未命名的渐变_67-16" x1="1117.03" y1="-926.93" x2="1119.72" y2="-926.93" xlink:href="#未命名的渐变_67"/><linearGradient id="未命名的渐变_105-18" x1="1128.39" y1="-926.93" x2="1132.03" y2="-926.93" gradientTransform="translate(-825.13 -1067.12) rotate(90)" xlink:href="#未命名的渐变_105"/><linearGradient id="未命名的渐变_67-17" x1="1128.87" y1="-926.93" x2="1131.56" y2="-926.93" xlink:href="#未命名的渐变_67"/><linearGradient id="未命名的渐变_105-19" x1="1139.82" y1="-926.71" x2="1143.47" y2="-926.71" gradientTransform="translate(-825.13 -1067.12) rotate(90)" xlink:href="#未命名的渐变_105"/><linearGradient id="未命名的渐变_67-18" x1="1140.3" y1="-926.71" x2="1142.99" y2="-926.71" xlink:href="#未命名的渐变_67"/><linearGradient id="未命名的渐变_105-20" x1="1151.25" y1="-926.93" x2="1154.9" y2="-926.93" gradientTransform="translate(-825.13 -1067.12) rotate(90)" xlink:href="#未命名的渐变_105"/><linearGradient id="未命名的渐变_67-19" x1="1151.73" y1="-926.93" x2="1154.42" y2="-926.93" xlink:href="#未命名的渐变_67"/><linearGradient id="未命名的渐变_105-21" x1="1163.16" y1="-926.71" x2="1166.8" y2="-926.71" gradientTransform="translate(-825.13 -1067.12) rotate(90)" xlink:href="#未命名的渐变_105"/><linearGradient id="未命名的渐变_67-20" x1="1163.64" y1="-926.71" x2="1166.33" y2="-926.71" xlink:href="#未命名的渐变_67"/><linearGradient id="未命名的渐变_105-22" x1="1174.59" y1="-926.93" x2="1178.24" y2="-926.93" gradientTransform="translate(-825.13 -1067.12) rotate(90)" xlink:href="#未命名的渐变_105"/><linearGradient id="未命名的渐变_67-21" x1="1175.07" y1="-926.93" x2="1177.76" y2="-926.93" xlink:href="#未命名的渐变_67"/><linearGradient id="未命名的渐变_105-23" x1="1186.43" y1="-926.93" x2="1190.08" y2="-926.93" gradientTransform="translate(-825.13 -1067.12) rotate(90)" xlink:href="#未命名的渐变_105"/><linearGradient id="未命名的渐变_67-22" x1="1186.91" y1="-926.93" x2="1189.6" y2="-926.93" xlink:href="#未命名的渐变_67"/><linearGradient id="未命名的渐变_105-24" x1="1197.87" y1="-926.71" x2="1201.51" y2="-926.71" gradientTransform="translate(-825.13 -1067.12) rotate(90)" xlink:href="#未命名的渐变_105"/><linearGradient id="未命名的渐变_67-23" x1="1198.34" y1="-926.71" x2="1201.03" y2="-926.71" xlink:href="#未命名的渐变_67"/><linearGradient id="未命名的渐变_105-25" x1="1209.3" y1="-926.93" x2="1212.94" y2="-926.93" gradientTransform="translate(-825.13 -1067.12) rotate(90)" xlink:href="#未命名的渐变_105"/><linearGradient id="未命名的渐变_67-24" x1="1209.77" y1="-926.93" x2="1212.46" y2="-926.93" xlink:href="#未命名的渐变_67"/><linearGradient id="未命名的渐变_143" x1="10.16" y1="8.75" x2="113.56" y2="8.75" gradientUnits="userSpaceOnUse"><stop offset="0" stop-color="#b7b7b7"/><stop offset="0.03" stop-color="#9b9d9d"/><stop offset="0.07" stop-color="#878b8b"/><stop offset="0.09" stop-color="#808484"/><stop offset="0.2" stop-color="#a3a6a6"/><stop offset="0.49" stop-color="#f6f6f6"/><stop offset="0.61" stop-color="#f3f3f3"/><stop offset="0.7" stop-color="#eaeaea"/><stop offset="0.77" stop-color="#dbdbdb"/><stop offset="0.83" stop-color="#c5c5c5"/><stop offset="0.9" stop-color="#aaa"/><stop offset="0.95" stop-color="#888"/><stop offset="1" stop-color="#666"/></linearGradient><linearGradient id="未命名的渐变_143-2" x1="60.78" y1="16.34" x2="60.78" y2="13.04" xlink:href="#未命名的渐变_143"/><linearGradient id="未命名的渐变_143-3" x1="60.78" y1="34.35" x2="60.78" y2="31.04" xlink:href="#未命名的渐变_143"/><linearGradient id="未命名的渐变_143-4" x1="60.78" y1="52.35" x2="60.78" y2="49.05" xlink:href="#未命名的渐变_143"/><linearGradient id="未命名的渐变_143-5" x1="60.78" y1="70.36" x2="60.78" y2="67.06" xlink:href="#未命名的渐变_143"/><linearGradient id="未命名的渐变_143-6" x1="60.78" y1="88.37" x2="60.78" y2="85.07" xlink:href="#未命名的渐变_143"/><linearGradient id="未命名的渐变_143-7" x1="59.87" y1="108.23" x2="59.87" y2="104.93" xlink:href="#未命名的渐变_143"/><linearGradient id="未命名的渐变_143-8" x1="60.78" y1="126.33" x2="60.78" y2="123.03" xlink:href="#未命名的渐变_143"/><linearGradient id="未命名的渐变_143-9" x1="60.78" y1="143.95" x2="60.78" y2="140.65" xlink:href="#未命名的渐变_143"/><linearGradient id="未命名的渐变_143-10" x1="71.28" y1="74.37" x2="74.03" y2="74.37" gradientTransform="matrix(1, 0, 0, -1, -22.84, 148.75)" xlink:href="#未命名的渐变_143"/><linearGradient id="未命名的渐变_143-11" x1="48.89" y1="74.82" x2="51.64" y2="74.82" gradientTransform="matrix(1, 0, 0, -1, 21.95, 149.65)" xlink:href="#未命名的渐变_143"/><linearGradient id="未命名的渐变_143-12" x1="-384.56" y1="-2051.15" x2="-384.56" y2="-1914.31" gradientTransform="translate(-1101.54 -1902.81) rotate(180) scale(2.91 1)" xlink:href="#未命名的渐变_143"/><linearGradient id="未命名的渐变_143-13" x1="-414.4" y1="-2051.15" x2="-414.4" y2="-1914.31" gradientTransform="translate(-1101.54 -1902.81) rotate(180) scale(2.91 1)" xlink:href="#未命名的渐变_143"/></defs><title>Tank with rivets and ladder（带铆钉和梯子的油箱）</title><g id="图层_2" data-name="图层 2"><g id="图层_104" data-name="图层 104"><g id="Tank_with_rivets_and_ladder_带铆钉和梯子的油箱_" data-name="Tank with rivets and ladder（带铆钉和梯子的油箱）"><rect class="cls-1" y="11.6" width="121.9" height="136.74" rx="2.36"/><ellipse class="cls-2" cx="15.13" cy="16.43" rx="2.07" ry="1.82"/><polygon class="cls-3" points="16.45 17.1 16.45 15.76 15.13 15.09 13.81 15.76 13.81 17.1 15.13 17.77 16.45 17.1"/><ellipse class="cls-4" cx="14.92" cy="28.27" rx="2.07" ry="1.82"/><polygon class="cls-5" points="16.24 28.94 16.24 27.6 14.92 26.93 13.59 27.6 13.59 28.94 14.92 29.61 16.24 28.94"/><ellipse class="cls-6" cx="14.92" cy="39.7" rx="2.07" ry="1.82"/><polygon class="cls-7" points="16.24 40.37 16.24 39.03 14.92 38.36 13.59 39.03 13.59 40.37 14.92 41.05 16.24 40.37"/><ellipse class="cls-8" cx="15.13" cy="51.13" rx="2.07" ry="1.82"/><polygon class="cls-9" points="16.45 51.8 16.45 50.46 15.13 49.79 13.81 50.46 13.81 51.8 15.13 52.48 16.45 51.8"/><ellipse class="cls-10" cx="15.13" cy="62.97" rx="2.07" ry="1.82"/><polygon class="cls-11" points="16.45 63.65 16.45 62.3 15.13 61.63 13.81 62.3 13.81 63.65 15.13 64.32 16.45 63.65"/><ellipse class="cls-12" cx="14.92" cy="74.4" rx="2.07" ry="1.82"/><polygon class="cls-13" points="16.24 75.08 16.24 73.73 14.92 73.06 13.59 73.73 13.59 75.08 14.92 75.75 16.24 75.08"/><ellipse class="cls-14" cx="15.13" cy="85.84" rx="2.07" ry="1.82"/><polygon class="cls-15" points="16.45 86.51 16.45 85.16 15.13 84.49 13.81 85.16 13.81 86.51 15.13 87.18 16.45 86.51"/><ellipse class="cls-16" cx="14.92" cy="97.74" rx="2.07" ry="1.82"/><polygon class="cls-17" points="16.24 98.42 16.24 97.07 14.92 96.4 13.6 97.07 13.6 98.42 14.92 99.09 16.24 98.42"/><ellipse class="cls-18" cx="15.13" cy="109.18" rx="2.07" ry="1.82"/><polygon class="cls-19" points="16.45 109.85 16.45 108.5 15.13 107.83 13.81 108.5 13.81 109.85 15.13 110.52 16.45 109.85"/><ellipse class="cls-20" cx="15.13" cy="121.02" rx="2.07" ry="1.82"/><polygon class="cls-21" points="16.45 121.69 16.45 120.34 15.13 119.67 13.81 120.34 13.81 121.69 15.13 122.36 16.45 121.69"/><ellipse class="cls-22" cx="14.92" cy="132.45" rx="2.07" ry="1.82"/><polygon class="cls-23" points="16.24 133.12 16.24 131.78 14.92 131.1 13.6 131.78 13.6 133.12 14.92 133.79 16.24 133.12"/><ellipse class="cls-24" cx="15.13" cy="143.88" rx="2.07" ry="1.82"/><polygon class="cls-25" points="16.45 144.55 16.45 143.21 15.13 142.53 13.81 143.21 13.81 144.55 15.13 145.22 16.45 144.55"/><ellipse class="cls-26" cx="101.8" cy="16.55" rx="2.07" ry="1.82"/><polygon class="cls-27" points="103.12 17.22 103.12 15.88 101.8 15.21 100.48 15.88 100.48 17.22 101.8 17.9 103.12 17.22"/><ellipse class="cls-28" cx="101.58" cy="28.39" rx="2.07" ry="1.82"/><polygon class="cls-29" points="102.91 29.07 102.91 27.72 101.58 27.05 100.26 27.72 100.26 29.07 101.58 29.74 102.91 29.07"/><ellipse class="cls-30" cx="101.58" cy="39.82" rx="2.07" ry="1.82"/><polygon class="cls-31" points="102.91 40.5 102.91 39.15 101.58 38.48 100.26 39.15 100.26 40.5 101.58 41.17 102.91 40.5"/><ellipse class="cls-32" cx="101.8" cy="51.26" rx="2.07" ry="1.82"/><polygon class="cls-33" points="103.12 51.93 103.12 50.58 101.8 49.91 100.48 50.58 100.48 51.93 101.8 52.6 103.12 51.93"/><ellipse class="cls-34" cx="101.8" cy="63.1" rx="2.07" ry="1.82"/><polygon class="cls-35" points="103.12 63.77 103.12 62.42 101.8 61.75 100.48 62.42 100.48 63.77 101.8 64.44 103.12 63.77"/><ellipse class="cls-36" cx="101.58" cy="74.53" rx="2.07" ry="1.82"/><polygon class="cls-37" points="102.91 75.2 102.91 73.86 101.58 73.18 100.26 73.86 100.26 75.2 101.58 75.87 102.91 75.2"/><ellipse class="cls-38" cx="101.8" cy="85.96" rx="2.07" ry="1.82"/><polygon class="cls-39" points="103.12 86.63 103.12 85.29 101.8 84.61 100.48 85.29 100.48 86.63 101.8 87.3 103.12 86.63"/><ellipse class="cls-40" cx="101.58" cy="97.87" rx="2.07" ry="1.82"/><polygon class="cls-41" points="102.91 98.54 102.91 97.19 101.58 96.52 100.26 97.19 100.26 98.54 101.58 99.21 102.91 98.54"/><ellipse class="cls-42" cx="101.8" cy="109.3" rx="2.07" ry="1.82"/><polygon class="cls-43" points="103.12 109.97 103.12 108.63 101.8 107.95 100.48 108.63 100.48 109.97 101.8 110.64 103.12 109.97"/><ellipse class="cls-44" cx="101.8" cy="121.14" rx="2.07" ry="1.82"/><polygon class="cls-45" points="103.12 121.81 103.12 120.47 101.8 119.8 100.48 120.47 100.48 121.81 101.8 122.48 103.12 121.81"/><ellipse class="cls-46" cx="101.58" cy="132.57" rx="2.07" ry="1.82"/><polygon class="cls-47" points="102.91 133.24 102.91 131.9 101.58 131.23 100.26 131.9 100.26 133.24 101.58 133.91 102.91 133.24"/><ellipse class="cls-48" cx="101.8" cy="144" rx="2.07" ry="1.82"/><polygon class="cls-49" points="103.12 144.67 103.12 143.33 101.8 142.66 100.48 143.33 100.48 144.67 101.8 145.34 103.12 144.67"/><rect class="cls-50" x="10.16" y="6" width="103.4" height="5.5"/><rect class="cls-51" x="49.82" y="13.04" width="21.93" height="3.3"/><rect class="cls-52" x="49.82" y="31.04" width="21.93" height="3.3"/><rect class="cls-53" x="49.82" y="49.05" width="21.93" height="3.3"/><rect class="cls-54" x="49.82" y="67.06" width="21.93" height="3.3"/><rect class="cls-55" x="49.82" y="85.07" width="21.93" height="3.3"/><rect class="cls-56" x="48.91" y="104.93" width="21.93" height="3.3"/><rect class="cls-57" x="49.82" y="123.03" width="21.93" height="3.3"/><rect class="cls-58" x="49.82" y="140.65" width="21.93" height="3.3"/><rect class="cls-59" x="48.45" width="2.75" height="148.75" rx="0.13" transform="matrix(-1, 0, 0, -1, 99.64, 148.75)"/><rect class="cls-60" x="70.84" width="2.75" height="149.65" rx="0.13" transform="translate(144.42 149.65) rotate(180)"/><polygon class="cls-61" points="16.98 11.5 18.55 11.5 18.55 148.34 17.05 148.34 16.98 11.5"/><polygon class="cls-62" points="103.83 11.5 105.4 11.5 105.4 148.34 103.9 148.34 103.83 11.5"/></g></g></g></svg>