<svg xmlns="http://www.w3.org/2000/svg" xmlns:xlink="http://www.w3.org/1999/xlink" viewBox="0 0 127.39 149.99"><defs><style>.cls-1{fill:url(#未命名的渐变_105);}.cls-2{fill:url(#未命名的渐变_105-2);}.cls-3{fill:url(#未命名的渐变_105-3);}.cls-4{fill:url(#未命名的渐变_143);}.cls-5{fill:url(#未命名的渐变_105-4);}.cls-6{fill:url(#未命名的渐变_143-2);}.cls-7{fill:url(#未命名的渐变_105-5);}.cls-8{fill:url(#未命名的渐变_105-6);}.cls-9{fill:url(#未命名的渐变_105-7);}.cls-10{fill:url(#未命名的渐变_105-8);}.cls-11{fill:url(#未命名的渐变_105-9);}.cls-12{fill:url(#未命名的渐变_105-10);}.cls-13{fill:url(#未命名的渐变_105-11);}.cls-14{fill:url(#未命名的渐变_105-12);}.cls-15{fill:url(#未命名的渐变_143-3);}.cls-16{fill:url(#未命名的渐变_143-4);}.cls-17{fill:url(#未命名的渐变_143-5);}.cls-18{fill:url(#未命名的渐变_105-13);}.cls-19{fill:url(#未命名的渐变_143-6);}.cls-20{fill:url(#未命名的渐变_143-7);}.cls-21{opacity:0.2;}</style><linearGradient id="未命名的渐变_105" x1="108.92" y1="107.63" x2="123.59" y2="107.63" gradientUnits="userSpaceOnUse"><stop offset="0" stop-color="#e2e2e2"/><stop offset="0.03" stop-color="#d0d0d0"/><stop offset="0.06" stop-color="#bcbcbc"/><stop offset="0.09" stop-color="#b5b5b5"/><stop offset="0.49" stop-color="#f6f6f6"/><stop offset="0.63" stop-color="#f3f3f3"/><stop offset="0.73" stop-color="#eaeaea"/><stop offset="0.82" stop-color="#dbdbdb"/><stop offset="0.9" stop-color="#c6c6c6"/><stop offset="0.97" stop-color="#aaa"/><stop offset="1" stop-color="#9b9b9b"/></linearGradient><linearGradient id="未命名的渐变_105-2" x1="52.01" y1="49.56" x2="75.15" y2="49.56" xlink:href="#未命名的渐变_105"/><linearGradient id="未命名的渐变_105-3" x1="3.09" y1="108.6" x2="17.76" y2="108.6" xlink:href="#未命名的渐变_105"/><linearGradient id="未命名的渐变_143" x1="108.92" y1="106.66" x2="123.59" y2="106.66" gradientUnits="userSpaceOnUse"><stop offset="0" stop-color="#b7b7b7"/><stop offset="0.03" stop-color="#9b9d9d"/><stop offset="0.07" stop-color="#878b8b"/><stop offset="0.09" stop-color="#808484"/><stop offset="0.2" stop-color="#a3a6a6"/><stop offset="0.49" stop-color="#f6f6f6"/><stop offset="0.61" stop-color="#f3f3f3"/><stop offset="0.7" stop-color="#eaeaea"/><stop offset="0.77" stop-color="#dbdbdb"/><stop offset="0.83" stop-color="#c5c5c5"/><stop offset="0.9" stop-color="#aaa"/><stop offset="0.95" stop-color="#888"/><stop offset="1" stop-color="#666"/></linearGradient><linearGradient id="未命名的渐变_105-4" x1="2.1" y1="68.91" x2="125.26" y2="68.91" xlink:href="#未命名的渐变_105"/><linearGradient id="未命名的渐变_143-2" x1="3.09" y1="107.63" x2="17.76" y2="107.63" xlink:href="#未命名的渐变_143"/><linearGradient id="未命名的渐变_105-5" x1="64.09" y1="19.71" x2="64.09" y2="17.05" xlink:href="#未命名的渐变_105"/><linearGradient id="未命名的渐变_105-6" x1="62.56" y1="127.75" x2="62.56" y2="125.09" xlink:href="#未命名的渐变_105"/><linearGradient id="未命名的渐变_105-7" x1="63.69" y1="109.99" x2="63.69" y2="107.33" xlink:href="#未命名的渐变_105"/><linearGradient id="未命名的渐变_105-8" x1="63.69" y1="92.03" x2="63.69" y2="89.37" xlink:href="#未命名的渐变_105"/><linearGradient id="未命名的渐变_105-9" x1="63.69" y1="74.63" x2="63.69" y2="71.97" xlink:href="#未命名的渐变_105"/><linearGradient id="未命名的渐变_105-10" x1="63.69" y1="55.95" x2="63.69" y2="53.29" xlink:href="#未命名的渐变_105"/><linearGradient id="未命名的渐变_105-11" x1="63.69" y1="37.26" x2="63.69" y2="34.6" xlink:href="#未命名的渐变_105"/><linearGradient id="未命名的渐变_105-12" x1="280.68" y1="-832.13" x2="280.68" y2="-833.26" gradientTransform="matrix(1, 0, 0, -3.25, -217.1, -2631.31)" xlink:href="#未命名的渐变_105"/><linearGradient id="未命名的渐变_143-3" x1="55.14" y1="148.05" x2="72.37" y2="148.05" xlink:href="#未命名的渐变_143"/><linearGradient id="未命名的渐变_143-4" x1="1.76" y1="148.64" x2="18.99" y2="148.64" xlink:href="#未命名的渐变_143"/><linearGradient id="未命名的渐变_143-5" x1="107.59" y1="147.67" x2="124.82" y2="147.67" xlink:href="#未命名的渐变_143"/><linearGradient id="未命名的渐变_105-13" x1="56.47" y1="128.14" x2="71.14" y2="128.14" xlink:href="#未命名的渐变_105"/><linearGradient id="未命名的渐变_143-6" x1="56.47" y1="108.6" x2="71.14" y2="108.6" xlink:href="#未命名的渐变_143"/><linearGradient id="未命名的渐变_143-7" x1="56.35" y1="131.11" x2="71.02" y2="131.11" xlink:href="#未命名的渐变_143"/></defs><title>Tank 1（油箱） (16)</title><g id="图层_2" data-name="图层 2"><g id="图层_104" data-name="图层 104"><g id="Tank_1_油箱_" data-name="Tank 1（油箱）"><rect class="cls-1" x="108.92" y="68.94" width="14.67" height="77.38"/><rect class="cls-2" x="52.01" width="23.14" height="99.13"/><rect class="cls-3" x="3.09" y="69.91" width="14.67" height="77.38"/><rect class="cls-4" x="108.92" y="105.69" width="14.67" height="1.94"/><ellipse class="cls-5" cx="63.68" cy="68.91" rx="61.58" ry="62.2"/><rect class="cls-6" x="3.09" y="106.66" width="14.67" height="1.94"/><path class="cls-7" d="M100.33,17.05H27.05c-.86.65-1.69,1.33-2.51,2v.64h79.11C102.57,18.78,101.46,17.91,100.33,17.05Z"/><path class="cls-8" d="M39,127.75H86.15c.67-.87,1.34-1.73,2-2.66H37C37.62,126,38.3,126.88,39,127.75Z"/><path class="cls-9" d="M10.24,110H117.15c.52-.87,1-1.76,1.5-2.66H8.74C9.22,108.23,9.72,109.12,10.24,110Z"/><path class="cls-10" d="M2.58,92H124.81c.24-.88.43-1.77.64-2.66H1.94C2.14,90.26,2.34,91.15,2.58,92Z"/><path class="cls-11" d="M0,72.9c0,.59.07,1.15.08,1.73H127.31c0-.58.08-1.14.08-1.73,0-.31,0-.61,0-.93H0C0,72.29,0,72.59,0,72.9Z"/><path class="cls-12" d="M2.06,56H125.33c-.21-.89-.39-1.79-.64-2.66H2.69C2.45,54.16,2.27,55.06,2.06,56Z"/><path class="cls-13" d="M9.42,37.26H118c-.5-.89-1-1.8-1.51-2.66H10.94C10.4,35.46,9.93,36.37,9.42,37.26Z"/><rect class="cls-14" x="-3.48" y="70.5" width="134.11" height="3.68" transform="translate(135.91 8.76) rotate(90)"/><rect class="cls-15" x="55.14" y="146.7" width="17.23" height="2.69" rx="0.24"/><rect class="cls-16" x="1.76" y="147.3" width="17.23" height="2.69" rx="0.24"/><rect class="cls-17" x="107.59" y="146.33" width="17.23" height="2.69" rx="0.24"/><rect class="cls-18" x="56.47" y="109.57" width="14.67" height="37.13"/><rect class="cls-19" x="56.47" y="107.63" width="14.67" height="1.94"/><rect class="cls-20" x="56.35" y="130.14" width="14.67" height="1.94"/>
</g></g></g></svg>