<svg xmlns="http://www.w3.org/2000/svg" xmlns:xlink="http://www.w3.org/1999/xlink" viewBox="0 0 88.4 150.43"><defs><style>.cls-1{fill:url(#未命名的渐变_105);}.cls-2{fill:url(#未命名的渐变_105-2);}.cls-3{fill:url(#未命名的渐变_105-3);}.cls-4{fill:url(#未命名的渐变_143);}.cls-5{fill:url(#未命名的渐变_143-2);}.cls-6{fill:url(#未命名的渐变_143-3);}.cls-7{fill:url(#未命名的渐变_143-4);}.cls-8{fill:url(#未命名的渐变_143-5);}.cls-9{fill:url(#未命名的渐变_105-4);}.cls-10{fill:url(#未命名的渐变_143-6);}.cls-11{fill:url(#未命名的渐变_105-5);}.cls-12{fill:url(#未命名的渐变_105-6);}.cls-13{opacity:0.2;}</style><linearGradient id="未命名的渐变_105" x1="-388.76" y1="-976.76" x2="-406.67" y2="-976.76" gradientTransform="translate(410.64 1100.21)" gradientUnits="userSpaceOnUse"><stop offset="0" stop-color="#e2e2e2"/><stop offset="0.03" stop-color="#d0d0d0"/><stop offset="0.06" stop-color="#bcbcbc"/><stop offset="0.09" stop-color="#b5b5b5"/><stop offset="0.49" stop-color="#f6f6f6"/><stop offset="0.63" stop-color="#f3f3f3"/><stop offset="0.73" stop-color="#eaeaea"/><stop offset="0.82" stop-color="#dbdbdb"/><stop offset="0.9" stop-color="#c6c6c6"/><stop offset="0.97" stop-color="#aaa"/><stop offset="1" stop-color="#9b9b9b"/></linearGradient><linearGradient id="未命名的渐变_105-2" x1="76.25" y1="10.75" x2="65.03" y2="10.75" gradientTransform="matrix(1, 0, 0, 1, 0, 0)" xlink:href="#未命名的渐变_105"/><linearGradient id="未命名的渐变_105-3" x1="14.69" y1="73.61" x2="86.87" y2="73.61" gradientTransform="matrix(1, 0, 0, 1, 0, 0)" xlink:href="#未命名的渐变_105"/><linearGradient id="未命名的渐变_143" x1="-880.69" y1="-260.27" x2="-880.69" y2="-183.87" gradientTransform="matrix(1, 0, 0, -1, 930.89, -73.44)" gradientUnits="userSpaceOnUse"><stop offset="0" stop-color="#b7b7b7"/><stop offset="0.03" stop-color="#9b9d9d"/><stop offset="0.07" stop-color="#878b8b"/><stop offset="0.09" stop-color="#808484"/><stop offset="0.2" stop-color="#a3a6a6"/><stop offset="0.49" stop-color="#f6f6f6"/><stop offset="0.61" stop-color="#f3f3f3"/><stop offset="0.7" stop-color="#eaeaea"/><stop offset="0.77" stop-color="#dbdbdb"/><stop offset="0.83" stop-color="#c5c5c5"/><stop offset="0.9" stop-color="#aaa"/><stop offset="0.95" stop-color="#888"/><stop offset="1" stop-color="#666"/></linearGradient><linearGradient id="未命名的渐变_143-2" x1="168.31" y1="-259.12" x2="168.31" y2="-186.53" gradientTransform="translate(-171.87 -472.7) rotate(90) scale(2.91 1)" xlink:href="#未命名的渐变_143"/><linearGradient id="未命名的渐变_143-3" x1="212.64" y1="-259.16" x2="212.64" y2="-186.57" gradientTransform="translate(-171.87 -472.7) rotate(90) scale(2.91 1)" xlink:href="#未命名的渐变_143"/><linearGradient id="未命名的渐变_143-4" x1="167.31" y1="-255.33" x2="167.31" y2="-190.14" gradientTransform="translate(-171.87 -472.7) rotate(90) scale(2.91 1)" xlink:href="#未命名的渐变_143"/><linearGradient id="未命名的渐变_143-5" x1="76.25" y1="2.75" x2="65.03" y2="2.75" gradientTransform="matrix(1, 0, 0, 1, 0, 0)" xlink:href="#未命名的渐变_143"/><linearGradient id="未命名的渐变_105-4" x1="76.69" y1="1.08" x2="64.31" y2="1.08" gradientTransform="matrix(1, 0, 0, 1, 0, 0)" xlink:href="#未命名的渐变_105"/><linearGradient id="未命名的渐变_143-6" x1="-388.76" y1="-986.39" x2="-406.67" y2="-986.39" gradientTransform="translate(401.02 1109.84)" xlink:href="#未命名的渐变_143"/><linearGradient id="未命名的渐变_105-5" x1="-388.06" y1="-988.39" x2="-407.81" y2="-988.39" gradientTransform="translate(399.24 1112.06)" xlink:href="#未命名的渐变_105"/><linearGradient id="未命名的渐变_105-6" x1="-747.65" y1="-259.12" x2="-747.65" y2="-185.61" gradientTransform="matrix(1, 0, 0, -1, 798.14, -206.77)" xlink:href="#未命名的渐变_105"/></defs><title>Tank 1（油箱） (15)</title><g id="图层_2" data-name="图层 2"><g id="图层_104" data-name="图层 104"><g id="Tank_1_油箱_" data-name="Tank 1（油箱）"><rect class="cls-1" x="3.97" y="114.23" width="17.9" height="18.44" transform="translate(-110.52 136.38) rotate(-90)"/><rect class="cls-2" x="65.03" y="3.08" width="11.22" height="15.34"/><polygon class="cls-3" points="86.87 146.84 14.69 146.84 14.69 16.2 50.78 0.37 86.87 16.2 86.87 146.84"/><rect class="cls-4" x="48.41" y="110.43" width="3.59" height="76.4" rx="0.54" transform="translate(-98.43 198.83) rotate(-90)"/><polygon class="cls-5" points="14.66 17.82 14.66 16.55 87.25 16.55 87.25 17.76 14.66 17.82"/><polygon class="cls-6" points="14.7 146.84 14.7 145.57 87.29 145.57 87.29 146.79 14.7 146.84"/><polygon class="cls-7" points="20.24 13.73 18.26 14.77 83.45 14.77 81.17 13.73 20.24 13.73"/><rect class="cls-8" x="65.03" y="2.17" width="11.22" height="1.16"/><rect class="cls-9" x="64.31" width="12.38" height="2.17"/><rect class="cls-10" x="-5.65" y="122.75" width="17.9" height="1.4" transform="translate(-120.15 126.75) rotate(-90)"/><rect class="cls-11" x="-8.57" y="122.37" width="19.75" height="2.6" transform="translate(-122.37 124.97) rotate(-90)"/><rect class="cls-12" x="49.53" y="-21.16" width="1.92" height="73.51" transform="translate(34.9 66.09) rotate(-90)"/></g></g></g></svg>