<svg xmlns="http://www.w3.org/2000/svg" xmlns:xlink="http://www.w3.org/1999/xlink" viewBox="0 0 93.33 149.65"><defs><style>.cls-1{fill:url(#未命名的渐变_105);}.cls-2{fill:url(#未命名的渐变_74);}.cls-3{fill:url(#未命名的渐变_74-2);}.cls-4{fill:url(#未命名的渐变_143);}.cls-5{fill:url(#未命名的渐变_143-2);}.cls-6{fill:url(#未命名的渐变_74-3);}.cls-7{fill:url(#未命名的渐变_74-4);}.cls-8{opacity:0.2;}</style><linearGradient id="未命名的渐变_105" y1="49.57" x2="93" y2="49.57" gradientUnits="userSpaceOnUse"><stop offset="0" stop-color="#e2e2e2"/><stop offset="0.03" stop-color="#d0d0d0"/><stop offset="0.06" stop-color="#bcbcbc"/><stop offset="0.09" stop-color="#b5b5b5"/><stop offset="0.49" stop-color="#f6f6f6"/><stop offset="0.63" stop-color="#f3f3f3"/><stop offset="0.73" stop-color="#eaeaea"/><stop offset="0.82" stop-color="#dbdbdb"/><stop offset="0.9" stop-color="#c6c6c6"/><stop offset="0.97" stop-color="#aaa"/><stop offset="1" stop-color="#9b9b9b"/></linearGradient><linearGradient id="未命名的渐变_74" x1="55.82" y1="121.52" x2="46.68" y2="121.52" gradientUnits="userSpaceOnUse"><stop offset="0" stop-color="#6b6b6b"/><stop offset="0.01" stop-color="#767676"/><stop offset="0.03" stop-color="#959595"/><stop offset="0.04" stop-color="#aaa"/><stop offset="0.37" stop-color="#ccc"/><stop offset="0.74" stop-color="#eaeaea"/><stop offset="0.94" stop-color="#f6f6f6"/><stop offset="0.95" stop-color="#ededed"/><stop offset="0.96" stop-color="#d4d4d4"/><stop offset="0.97" stop-color="#ababab"/><stop offset="0.99" stop-color="#737373"/><stop offset="0.99" stop-color="#666"/></linearGradient><linearGradient id="未命名的渐变_74-2" x1="-110.13" y1="121.52" x2="-119.26" y2="121.52" gradientTransform="matrix(-1, 0, 0, 1, -72.66, 0)" xlink:href="#未命名的渐变_74"/><linearGradient id="未命名的渐变_143" x1="0.03" y1="-10.48" x2="93.33" y2="-10.48" gradientTransform="translate(0 18.13)" gradientUnits="userSpaceOnUse"><stop offset="0" stop-color="#b7b7b7"/><stop offset="0.03" stop-color="#9b9d9d"/><stop offset="0.07" stop-color="#878b8b"/><stop offset="0.09" stop-color="#808484"/><stop offset="0.2" stop-color="#a3a6a6"/><stop offset="0.49" stop-color="#f6f6f6"/><stop offset="0.61" stop-color="#f3f3f3"/><stop offset="0.7" stop-color="#eaeaea"/><stop offset="0.77" stop-color="#dbdbdb"/><stop offset="0.83" stop-color="#c5c5c5"/><stop offset="0.9" stop-color="#aaa"/><stop offset="0.95" stop-color="#888"/><stop offset="1" stop-color="#666"/></linearGradient><linearGradient id="未命名的渐变_143-2" x1="0.03" y1="73.46" x2="93.33" y2="73.46" xlink:href="#未命名的渐变_143"/><linearGradient id="未命名的渐变_74-3" x1="2.6" y1="121.86" x2="11.42" y2="121.86" xlink:href="#未命名的渐变_74"/><linearGradient id="未命名的渐变_74-4" x1="-149.07" y1="122.52" x2="-140.26" y2="122.52" gradientTransform="matrix(-1, 0, 0, 1, -58.79, 0)" xlink:href="#未命名的渐变_74"/></defs><title>Temporary storage tank（临时储槽）</title><g id="图层_2" data-name="图层 2"><g id="图层_104" data-name="图层 104"><g id="Temporary_storage_tank_临时储槽_" data-name="Temporary storage tank（临时储槽）"><path class="cls-1" d="M93,93.94s-6.62,5.2-47.28,5.21C8.34,99.15,0,93.94,0,93.94V6.1S9.79,0,46.61,0C83.12,0,93,6.1,93,6.1Z"/><polygon class="cls-2" points="50.94 149.65 46.68 149.65 46.68 93.4 55.82 93.4 50.94 149.65"/><polygon class="cls-3" points="42.35 149.65 46.61 149.65 46.61 93.4 37.47 93.4 42.35 149.65"/><rect class="cls-4" x="0.03" y="5.83" width="93.3" height="3.62"/><rect class="cls-5" x="0.03" y="89.78" width="93.3" height="3.62"/><polygon class="cls-6" points="6.31 148.98 2.6 148.98 2.6 94.73 11.41 97.2 6.31 148.98"/><polygon class="cls-7" points="86.57 149.65 90.28 149.65 90.28 95.39 81.47 97.86 86.57 149.65"/></g></g></g></svg>