<svg xmlns="http://www.w3.org/2000/svg" xmlns:xlink="http://www.w3.org/1999/xlink" viewBox="0 0 141.51 150"><defs><style>.cls-1{fill:url(#未命名的渐变_57);}.cls-2{fill:url(#未命名的渐变_32);}.cls-3{fill:url(#未命名的渐变_32-2);}.cls-4{fill:#494d53;}.cls-5{fill:#dde4ec;}.cls-6{fill:url(#未命名的渐变_10);}.cls-7{fill:url(#未命名的渐变_57-2);}.cls-44,.cls-8{opacity:0.2;}.cls-8{fill:url(#未命名的渐变_60);}.cls-9{fill:url(#未命名的渐变_57-3);}.cls-10,.cls-11,.cls-12,.cls-13,.cls-14,.cls-15{stroke:#505458;stroke-miterlimit:10;stroke-width:0.25px;}.cls-10{fill:url(#未命名的渐变_204);}.cls-11{fill:url(#未命名的渐变_204-2);}.cls-12{fill:url(#未命名的渐变_204-3);}.cls-13{fill:url(#未命名的渐变_204-4);}.cls-14{fill:url(#未命名的渐变_204-5);}.cls-15{fill:url(#未命名的渐变_204-6);}.cls-16{fill:#a3b372;}.cls-17{fill:#646e46;}.cls-18{opacity:0.8;}.cls-19{fill:url(#未命名的渐变_73);}.cls-20{fill:#fff;}.cls-21{fill:url(#未命名的渐变_81);}.cls-22{fill:url(#未命名的渐变_20);}.cls-23{fill:url(#未命名的渐变_81-2);}.cls-24{fill:url(#未命名的渐变_81-3);}.cls-25{fill:url(#未命名的渐变_20-2);}.cls-26{fill:url(#未命名的渐变_67);}.cls-27{fill:url(#未命名的渐变_67-2);}.cls-28{fill:url(#未命名的渐变_20-3);}.cls-29{fill:url(#未命名的渐变_20-4);}.cls-30{fill:url(#未命名的渐变_20-5);}.cls-31{fill:url(#未命名的渐变_20-6);}.cls-32{fill:url(#未命名的渐变_80);}.cls-33{fill:url(#未命名的渐变_80-2);}.cls-34{fill:url(#未命名的渐变_78);}.cls-35{fill:url(#未命名的渐变_78-2);}.cls-36{fill:url(#未命名的渐变_78-3);}.cls-37{fill:url(#未命名的渐变_81-4);}.cls-38{fill:url(#未命名的渐变_78-4);}.cls-39{fill:url(#未命名的渐变_78-5);}.cls-40{fill:url(#未命名的渐变_80-3);}.cls-41{fill:url(#未命名的渐变_81-5);}.cls-42{fill:url(#未命名的渐变_81-6);}.cls-43{fill:url(#未命名的渐变_57-4);}</style><linearGradient id="未命名的渐变_57" x1="56.17" y1="99.14" x2="56.17" y2="94.75" gradientUnits="userSpaceOnUse"><stop offset="0" stop-color="#a9b1bb"/><stop offset="0.09" stop-color="#61666b"/><stop offset="0.19" stop-color="#696e73"/><stop offset="0.33" stop-color="#7e8489"/><stop offset="0.51" stop-color="#a1a7ae"/><stop offset="0.72" stop-color="#d1d8e0"/><stop offset="0.78" stop-color="#e2eaf2"/><stop offset="0.93" stop-color="#9ba1ab"/><stop offset="1" stop-color="#767b82"/></linearGradient><linearGradient id="未命名的渐变_32" x1="113.54" y1="92.42" x2="27.98" y2="177.98" gradientUnits="userSpaceOnUse"><stop offset="0" stop-color="#abafb3"/><stop offset="1" stop-color="#45484d"/></linearGradient><linearGradient id="未命名的渐变_32-2" x1="143.03" y1="34.96" x2="59.12" y2="118.88" xlink:href="#未命名的渐变_32"/><linearGradient id="未命名的渐变_10" x1="103.45" y1="69.22" x2="72.5" y2="100.17" gradientUnits="userSpaceOnUse"><stop offset="0" stop-color="#dce1e6"/><stop offset="1" stop-color="#8a9099"/></linearGradient><linearGradient id="未命名的渐变_57-2" x1="8.47" y1="99.72" x2="51.7" y2="99.72" xlink:href="#未命名的渐变_57"/><linearGradient id="未命名的渐变_60" x1="30.08" y1="89.46" x2="30.08" y2="79.05" gradientUnits="userSpaceOnUse"><stop offset="0" stop-color="#9ba1ab" stop-opacity="0"/><stop offset="1" stop-color="#2e3033"/></linearGradient><linearGradient id="未命名的渐变_57-3" x1="19.26" y1="89.84" x2="40.91" y2="68.18" xlink:href="#未命名的渐变_57"/><linearGradient id="未命名的渐变_204" x1="3.83" y1="-4.48" x2="3.83" y2="-1.52" gradientTransform="matrix(1, 0, 0, -1, 0, 143.17)" gradientUnits="userSpaceOnUse"><stop offset="0" stop-color="#9ba1ab"/><stop offset="0" stop-color="#abb1ba"/><stop offset="0.09" stop-color="#abb1ba"/><stop offset="0.46" stop-color="#d7dce0"/><stop offset="1" stop-color="#a9b1bb"/></linearGradient><linearGradient id="未命名的渐变_204-2" x1="4.03" y1="17.45" x2="4.03" y2="20.42" xlink:href="#未命名的渐变_204"/><linearGradient id="未命名的渐变_204-3" x1="137.6" y1="-4.48" x2="137.6" y2="-1.52" xlink:href="#未命名的渐变_204"/><linearGradient id="未命名的渐变_204-4" x1="137.8" y1="17.45" x2="137.8" y2="20.42" xlink:href="#未命名的渐变_204"/><linearGradient id="未命名的渐变_204-5" x1="137.6" y1="25.12" x2="137.6" y2="28.09" xlink:href="#未命名的渐变_204"/><linearGradient id="未命名的渐变_204-6" x1="137.8" y1="104.41" x2="137.8" y2="107.37" xlink:href="#未命名的渐变_204"/><linearGradient id="未命名的渐变_73" x1="82.51" y1="68.73" x2="90.7" y2="76.91" gradientUnits="userSpaceOnUse"><stop offset="0" stop-color="#fff"/><stop offset="0.04" stop-color="#fff" stop-opacity="0.91"/><stop offset="0.15" stop-color="#fff" stop-opacity="0.7"/><stop offset="0.26" stop-color="#fff" stop-opacity="0.51"/><stop offset="0.37" stop-color="#fff" stop-opacity="0.35"/><stop offset="0.49" stop-color="#fff" stop-opacity="0.23"/><stop offset="0.6" stop-color="#fff" stop-opacity="0.13"/><stop offset="0.73" stop-color="#fff" stop-opacity="0.06"/><stop offset="0.85" stop-color="#fff" stop-opacity="0.01"/><stop offset="1" stop-color="#fff" stop-opacity="0"/></linearGradient><linearGradient id="未命名的渐变_81" x1="109.32" y1="13.38" x2="109.32" y2="30.21" gradientUnits="userSpaceOnUse"><stop offset="0" stop-color="#5c6067"/><stop offset="0.07" stop-color="#6d7177"/><stop offset="0.38" stop-color="#b0b7bc"/><stop offset="0.44" stop-color="#9da3a8"/><stop offset="0.59" stop-color="#6d7176"/><stop offset="0.73" stop-color="#4a4d51"/><stop offset="0.84" stop-color="#35373b"/><stop offset="0.91" stop-color="#2d2f33"/><stop offset="1" stop-color="#7a8088"/></linearGradient><linearGradient id="未命名的渐变_20" x1="96.99" y1="10.14" x2="96.99" y2="33.45" gradientUnits="userSpaceOnUse"><stop offset="0" stop-color="#767b82"/><stop offset="0.07" stop-color="#9ba1ab"/><stop offset="0.22" stop-color="#e2eaf2"/><stop offset="0.94" stop-color="#5d6166"/><stop offset="1" stop-color="#a9b1bb"/></linearGradient><linearGradient id="未命名的渐变_81-2" x1="89.1" y1="10.14" x2="89.1" y2="33.45" xlink:href="#未命名的渐变_81"/><linearGradient id="未命名的渐变_81-3" x1="129.4" y1="10.14" x2="129.4" y2="33.45" xlink:href="#未命名的渐变_81"/><linearGradient id="未命名的渐变_20-2" x1="118.11" y1="10.14" x2="118.11" y2="33.45" xlink:href="#未命名的渐变_20"/><linearGradient id="未命名的渐变_67" x1="109.49" y1="5.72" x2="126.73" y2="5.72" gradientUnits="userSpaceOnUse"><stop offset="0" stop-color="#a9b1bb"/><stop offset="0.06" stop-color="#5d6166"/><stop offset="0.78" stop-color="#e2eaf2"/><stop offset="0.93" stop-color="#9ba1ab"/><stop offset="1" stop-color="#767b82"/></linearGradient><linearGradient id="未命名的渐变_67-2" x1="107.31" y1="8.19" x2="128.91" y2="8.19" xlink:href="#未命名的渐变_67"/><linearGradient id="未命名的渐变_20-3" x1="105.55" y1="20.46" x2="105.55" y2="22.05" xlink:href="#未命名的渐变_20"/><linearGradient id="未命名的渐变_20-4" x1="96.3" y1="19.46" x2="96.3" y2="23.05" xlink:href="#未命名的渐变_20"/><linearGradient id="未命名的渐变_20-5" x1="105.84" y1="19.46" x2="105.84" y2="23.05" xlink:href="#未命名的渐变_20"/><linearGradient id="未命名的渐变_20-6" x1="115.06" y1="19.46" x2="115.06" y2="23.05" xlink:href="#未命名的渐变_20"/><linearGradient id="未命名的渐变_80" x1="282.67" y1="-436.22" x2="285.47" y2="-436.22" gradientTransform="translate(528.34 287.54) rotate(-90)" gradientUnits="userSpaceOnUse"><stop offset="0" stop-color="#7a8088"/><stop offset="0.09" stop-color="#2d2f33"/><stop offset="0.16" stop-color="#35373b"/><stop offset="0.27" stop-color="#4a4d51"/><stop offset="0.41" stop-color="#6d7176"/><stop offset="0.56" stop-color="#9da3a8"/><stop offset="0.62" stop-color="#b0b7bc"/><stop offset="0.93" stop-color="#6d7177"/><stop offset="1" stop-color="#5c6067"/></linearGradient><linearGradient id="未命名的渐变_80-2" x1="128.97" y1="4.87" x2="128.97" y2="2.06" gradientTransform="matrix(1, 0, 0, 1, 0, 0)" xlink:href="#未命名的渐变_80"/><linearGradient id="未命名的渐变_78" x1="-194.85" y1="-332.13" x2="-194.85" y2="-335.65" gradientTransform="translate(300.48 337.35)" gradientUnits="userSpaceOnUse"><stop offset="0" stop-color="#676b70"/><stop offset="0.05" stop-color="#484b4d"/><stop offset="0.24" stop-color="#747980"/><stop offset="0.25" stop-color="#d1d5db"/><stop offset="0.43" stop-color="#cad1db"/><stop offset="0.74" stop-color="#c7cfdb"/><stop offset="0.75" stop-color="#edf5ff"/><stop offset="0.76" stop-color="#c3c7cc"/><stop offset="1" stop-color="#929599"/></linearGradient><linearGradient id="未命名的渐变_78-2" x1="282.31" y1="-419.52" x2="285.83" y2="-419.52" gradientTransform="translate(-175.25 422.99)" xlink:href="#未命名的渐变_78"/><linearGradient id="未命名的渐变_78-3" x1="282.31" y1="-400.95" x2="285.83" y2="-400.95" gradientTransform="translate(-156.68 404.42)" xlink:href="#未命名的渐变_78"/><linearGradient id="未命名的渐变_81-4" x1="476.72" y1="-677.48" x2="479.52" y2="-677.48" gradientTransform="translate(-408.6 698.94)" xlink:href="#未命名的渐变_81"/><linearGradient id="未命名的渐变_78-4" x1="-441.53" y1="-526.17" x2="-441.53" y2="-529.69" gradientTransform="translate(511.04 557.48)" xlink:href="#未命名的渐变_78"/><linearGradient id="未命名的渐变_78-5" x1="476.36" y1="-666.17" x2="479.88" y2="-666.17" gradientTransform="translate(-408.6 698.94)" xlink:href="#未命名的渐变_78"/><linearGradient id="未命名的渐变_80-3" x1="70.92" y1="7.67" x2="68.12" y2="7.67" gradientTransform="matrix(1, 0, 0, 1, 0, 0)" xlink:href="#未命名的渐变_80"/><linearGradient id="未命名的渐变_81-5" x1="880.27" y1="413.37" x2="877.48" y2="413.37" gradientTransform="translate(-339.31 882.34) rotate(-90)" xlink:href="#未命名的渐变_81"/><linearGradient id="未命名的渐变_81-6" x1="440.26" y1="3.46" x2="438.43" y2="5.3" gradientTransform="matrix(-1, 0, 0, 1, 509.78, 0)" xlink:href="#未命名的渐变_81"/><linearGradient id="未命名的渐变_57-4" x1="52.41" y1="101.22" x2="52.41" y2="92.66" xlink:href="#未命名的渐变_57"/></defs><title>Thermal purge unit(热吹扫装置)</title><g id="图层_2" data-name="图层 2"><g id="图层_6" data-name="图层 6"><g id="Thermal_purge_unit_热吹扫装置_" data-name="Thermal purge unit(热吹扫装置)"><rect class="cls-1" x="51.7" y="94.75" width="8.93" height="4.39"/><rect class="cls-2" y="120.39" width="141.51" height="29.61"/><rect class="cls-3" x="60.63" y="33.45" width="80.88" height="86.95"/><rect class="cls-4" x="74.92" y="64.44" width="26.09" height="40.5"/><rect class="cls-5" x="76.1" y="65.62" width="24.92" height="39.33"/><rect class="cls-6" x="76.1" y="65.62" width="23.75" height="38.15"/><rect class="cls-7" x="8.47" y="79.05" width="43.23" height="41.34"/><rect class="cls-8" x="8.47" y="79.05" width="43.23" height="10.4"/><path class="cls-9" d="M51.7,79.05H8.47s5.45-7.5,21.61-7.5S51.7,79.05,51.7,79.05Z"/><circle class="cls-10" cx="3.83" cy="146.17" r="1.48"/><circle class="cls-11" cx="4.03" cy="124.23" r="1.48"/><circle class="cls-12" cx="137.6" cy="146.17" r="1.48"/><circle class="cls-13" cx="137.8" cy="124.23" r="1.48"/><circle class="cls-14" cx="137.6" cy="116.57" r="1.48"/><circle class="cls-15" cx="137.8" cy="37.28" r="1.48"/><rect class="cls-16" x="79.66" y="71.32" width="16.62" height="5.72"/><path class="cls-17" d="M96.16,71.45v5.47H79.79V71.45H96.16m.25-.25H79.54v6H96.41v-6Z"/><g class="cls-18"><polygon class="cls-19" points="79.79 76.92 79.79 71.45 96.16 71.45 79.79 76.92"/></g><rect class="cls-20" x="78.61" y="81.5" width="3.56" height="3.56"/><rect class="cls-20" x="83.7" y="81.5" width="3.56" height="3.56"/><rect class="cls-20" x="88.78" y="81.5" width="3.56" height="3.56"/><rect class="cls-20" x="93.87" y="81.5" width="3.56" height="3.56"/><rect class="cls-20" x="78.61" y="86.19" width="3.56" height="3.56"/><rect class="cls-20" x="83.7" y="86.19" width="3.56" height="3.56"/><rect class="cls-20" x="88.78" y="86.19" width="3.56" height="3.56"/><rect class="cls-20" x="93.87" y="86.19" width="3.56" height="3.56"/><rect class="cls-20" x="78.61" y="90.88" width="3.56" height="3.56"/><rect class="cls-20" x="83.7" y="90.88" width="3.56" height="3.56"/><rect class="cls-20" x="88.78" y="90.88" width="3.56" height="3.56"/><rect class="cls-20" x="93.87" y="90.88" width="3.56" height="3.56"/><rect class="cls-20" x="78.61" y="95.58" width="3.56" height="3.56"/><rect class="cls-20" x="83.7" y="95.58" width="3.56" height="3.56"/><rect class="cls-20" x="88.78" y="95.58" width="3.56" height="3.56"/><rect class="cls-20" x="93.87" y="95.58" width="3.56" height="3.56"/><rect class="cls-21" x="90.51" y="13.38" width="37.63" height="16.82"/><rect class="cls-22" x="90.37" y="10.14" width="13.24" height="23.3"/><rect class="cls-23" x="87.83" y="10.14" width="2.54" height="23.3"/><rect class="cls-24" x="128.14" y="10.14" width="2.54" height="23.3"/><rect class="cls-25" x="108.08" y="10.14" width="20.06" height="23.3"/><path class="cls-26" d="M126.73,10s-3,1.41-8.62,1.41S109.49,10,109.49,10V0h17.24Z"/><rect class="cls-27" x="107.31" y="6.23" width="21.6" height="3.91"/><rect class="cls-28" x="94.7" y="20.46" width="21.7" height="1.58"/><rect class="cls-29" x="95.98" y="19.46" width="0.64" height="3.58"/><rect class="cls-30" x="105.52" y="19.46" width="0.64" height="3.58"/><rect class="cls-31" x="114.74" y="19.46" width="0.64" height="3.58"/><polygon class="cls-32" points="109.03 2.06 109.03 4.87 75.21 4.87 76.32 2.06 109.03 2.06"/><rect class="cls-33" x="128.06" y="2.06" width="1.84" height="2.8"/><rect class="cls-34" x="104.09" y="1.71" width="3.06" height="3.52"/><rect class="cls-35" x="107.06" y="2.8" width="3.52" height="1.33" transform="translate(105.35 112.29) rotate(-90)"/><rect class="cls-36" x="125.63" y="2.8" width="3.52" height="1.33" transform="translate(123.92 130.86) rotate(-90)"/><rect class="cls-37" x="68.11" y="9.92" width="2.8" height="23.07"/><rect class="cls-38" x="67.97" y="27.79" width="3.09" height="3.52" transform="translate(99.06 -39.96) rotate(90)"/><rect class="cls-39" x="67.75" y="32.1" width="3.52" height="1.34"/><polygon class="cls-40" points="70.92 5.63 68.12 4.86 68.12 10.47 70.92 10.47 70.92 5.63"/><polygon class="cls-41" points="77.21 2.06 76.34 4.86 71.78 4.86 70.92 2.06 77.21 2.06"/><polygon class="cls-42" points="71.78 4.86 70.92 5.63 68.12 4.86 70.92 2.06 71.78 4.86"/><rect class="cls-43" x="51.7" y="92.66" width="1.41" height="8.56"/></g></g></g></svg>