<svg xmlns="http://www.w3.org/2000/svg" xmlns:xlink="http://www.w3.org/1999/xlink" viewBox="0 0 150 123.51"><defs><style>.cls-1{fill:url(#未命名的渐变_20);}.cls-2{fill:url(#未命名的渐变_20-2);}.cls-3{fill:url(#未命名的渐变_20-3);}.cls-4{fill:url(#未命名的渐变_20-4);}.cls-5{fill:url(#未命名的渐变_20-5);}.cls-6{fill:url(#未命名的渐变_20-6);}.cls-7{fill:url(#未命名的渐变_20-7);}.cls-8{fill:url(#未命名的渐变_20-8);}.cls-9{fill:url(#未命名的渐变_20-9);}.cls-10{fill:url(#未命名的渐变_20-10);}.cls-11{fill:url(#未命名的渐变_20-11);}.cls-12{fill:url(#未命名的渐变_20-12);}.cls-13{fill:url(#未命名的渐变_20-13);}.cls-14{fill:url(#未命名的渐变_20-14);}.cls-15{fill:url(#未命名的渐变_20-15);}.cls-16,.cls-17{stroke:#767b82;stroke-width:0.24px;}.cls-16,.cls-17,.cls-29{stroke-miterlimit:10;}.cls-16{fill:url(#未命名的渐变_59);}.cls-17,.cls-29{fill:none;}.cls-18{fill:url(#未命名的渐变_383);}.cls-19{fill:url(#未命名的渐变_383-2);}.cls-20{fill:url(#未命名的渐变_384);}.cls-21{fill:url(#未命名的渐变_379);}.cls-22{fill:url(#未命名的渐变_379-2);}.cls-23{fill:url(#未命名的渐变_379-3);}.cls-24{fill:url(#未命名的渐变_379-4);}.cls-25{fill:url(#未命名的渐变_297);}.cls-26{fill:url(#未命名的渐变_297-2);}.cls-27{fill:url(#未命名的渐变_385);}.cls-28{fill:url(#未命名的渐变_385-2);}.cls-29{stroke:#222326;stroke-width:2.25px;}.cls-30{opacity:0.2;}</style><linearGradient id="未命名的渐变_20" x1="75" y1="96.41" x2="75" y2="107.93" gradientUnits="userSpaceOnUse"><stop offset="0" stop-color="#767b82"/><stop offset="0.07" stop-color="#9ba1ab"/><stop offset="0.22" stop-color="#e2eaf2"/><stop offset="0.94" stop-color="#5d6166"/><stop offset="1" stop-color="#a9b1bb"/></linearGradient><linearGradient id="未命名的渐变_20-2" x1="141.42" y1="102.17" x2="141.71" y2="102.17" xlink:href="#未命名的渐变_20"/><linearGradient id="未命名的渐变_20-3" x1="142.59" y1="102.17" x2="142.88" y2="102.17" xlink:href="#未命名的渐变_20"/><linearGradient id="未命名的渐变_20-4" x1="143.76" y1="102.17" x2="144.05" y2="102.17" xlink:href="#未命名的渐变_20"/><linearGradient id="未命名的渐变_20-5" x1="144.93" y1="102.17" x2="145.22" y2="102.17" xlink:href="#未命名的渐变_20"/><linearGradient id="未命名的渐变_20-6" x1="146.09" y1="102.17" x2="146.39" y2="102.17" xlink:href="#未命名的渐变_20"/><linearGradient id="未命名的渐变_20-7" x1="147.26" y1="102.17" x2="147.55" y2="102.17" xlink:href="#未命名的渐变_20"/><linearGradient id="未命名的渐变_20-8" x1="148.43" y1="102.17" x2="148.72" y2="102.17" xlink:href="#未命名的渐变_20"/><linearGradient id="未命名的渐变_20-9" x1="1.09" y1="102.17" x2="1.39" y2="102.17" xlink:href="#未命名的渐变_20"/><linearGradient id="未命名的渐变_20-10" x1="2.26" y1="102.17" x2="2.55" y2="102.17" xlink:href="#未命名的渐变_20"/><linearGradient id="未命名的渐变_20-11" x1="3.43" y1="102.17" x2="3.72" y2="102.17" xlink:href="#未命名的渐变_20"/><linearGradient id="未命名的渐变_20-12" x1="4.6" y1="102.17" x2="4.89" y2="102.17" xlink:href="#未命名的渐变_20"/><linearGradient id="未命名的渐变_20-13" x1="5.76" y1="102.17" x2="6.06" y2="102.17" xlink:href="#未命名的渐变_20"/><linearGradient id="未命名的渐变_20-14" x1="6.93" y1="102.17" x2="7.22" y2="102.17" xlink:href="#未命名的渐变_20"/><linearGradient id="未命名的渐变_20-15" x1="8.1" y1="102.17" x2="8.39" y2="102.17" xlink:href="#未命名的渐变_20"/><linearGradient id="未命名的渐变_59" x1="113.49" y1="65.55" x2="36.9" y2="142.14" gradientUnits="userSpaceOnUse"><stop offset="0" stop-color="#d7dce0"/><stop offset="1" stop-color="#8a9099"/></linearGradient><linearGradient id="未命名的渐变_383" x1="79.55" y1="7.63" x2="10.52" y2="76.67" gradientUnits="userSpaceOnUse"><stop offset="0" stop-color="#5d5f60"/><stop offset="1" stop-color="#17181a"/></linearGradient><linearGradient id="未命名的渐变_383-2" x1="123.35" y1="37.27" x2="78.46" y2="82.16" xlink:href="#未命名的渐变_383"/><linearGradient id="未命名的渐变_384" x1="83.59" y1="26.43" x2="118.22" y2="26.43" gradientUnits="userSpaceOnUse"><stop offset="0" stop-color="#a9b1bb"/><stop offset="0.06" stop-color="#5d6166"/><stop offset="0.78" stop-color="#e2eaf2"/><stop offset="0.93" stop-color="#9ba1ab"/><stop offset="1" stop-color="#767b82"/></linearGradient><linearGradient id="未命名的渐变_379" x1="112.82" y1="68.87" x2="89" y2="92.7" gradientUnits="userSpaceOnUse"><stop offset="0" stop-color="#75787a"/><stop offset="1" stop-color="#2e3034"/></linearGradient><linearGradient id="未命名的渐变_379-2" x1="76.32" y1="6.4" x2="71.04" y2="11.67" xlink:href="#未命名的渐变_379"/><linearGradient id="未命名的渐变_379-3" x1="75.98" y1="33.02" x2="71.37" y2="37.63" xlink:href="#未命名的渐变_379"/><linearGradient id="未命名的渐变_379-4" x1="78.57" y1="17.63" x2="68.79" y2="27.42" xlink:href="#未命名的渐变_379"/><linearGradient id="未命名的渐变_297" x1="83.26" y1="75.03" x2="94.46" y2="75.03" gradientUnits="userSpaceOnUse"><stop offset="0" stop-color="#676b70"/><stop offset="0.02" stop-color="#484b4d"/><stop offset="0.19" stop-color="#747980"/><stop offset="0.2" stop-color="#d1d5db"/><stop offset="0.79" stop-color="#c7cfdb"/><stop offset="0.8" stop-color="#edf5ff"/><stop offset="0.81" stop-color="#c3c7cc"/><stop offset="1" stop-color="#929599"/></linearGradient><linearGradient id="未命名的渐变_297-2" x1="107.02" y1="75.03" x2="118.22" y2="75.03" xlink:href="#未命名的渐变_297"/><linearGradient id="未命名的渐变_385" x1="152.96" y1="66.72" x2="170.36" y2="66.72" gradientTransform="translate(-25.96 35.45)" gradientUnits="userSpaceOnUse"><stop offset="0" stop-color="#929599"/><stop offset="0.19" stop-color="#c3c7cc"/><stop offset="0.2" stop-color="#edf5ff"/><stop offset="0.21" stop-color="#c7cfdb"/><stop offset="0.8" stop-color="#d1d5db"/><stop offset="0.81" stop-color="#747980"/><stop offset="0.98" stop-color="#484b4d"/><stop offset="1" stop-color="#676b70"/></linearGradient><linearGradient id="未命名的渐变_385-2" x1="152.96" y1="187.72" x2="170.36" y2="187.72" gradientTransform="translate(-146.96 -85.55)" xlink:href="#未命名的渐变_385"/></defs><title>Thermal mass flowmeter(热式质量流量计)</title><g id="图层_2" data-name="图层 2"><g id="图层_16" data-name="图层 16"><g id="Thermal_mass_flowmeter_热式质量流量计_" data-name="Thermal mass flowmeter(热式质量流量计)"><rect class="cls-1" y="96.41" width="150" height="11.53"/><rect class="cls-2" x="141.42" y="96.08" width="0.29" height="12.18" rx="0.12"/><rect class="cls-3" x="142.59" y="96.08" width="0.29" height="12.18" rx="0.12"/><rect class="cls-4" x="143.76" y="96.08" width="0.29" height="12.18" rx="0.12"/><rect class="cls-5" x="144.93" y="96.08" width="0.29" height="12.18" rx="0.12"/><rect class="cls-6" x="146.09" y="96.08" width="0.29" height="12.18" rx="0.12"/><rect class="cls-7" x="147.26" y="96.08" width="0.29" height="12.18" rx="0.12"/><rect class="cls-8" x="148.43" y="96.08" width="0.29" height="12.18" rx="0.12"/><rect class="cls-9" x="1.09" y="96.08" width="0.29" height="12.18" rx="0.12"/><rect class="cls-10" x="2.26" y="96.08" width="0.29" height="12.18" rx="0.12"/><rect class="cls-11" x="3.43" y="96.08" width="0.29" height="12.18" rx="0.12"/><rect class="cls-12" x="4.6" y="96.08" width="0.29" height="12.18" rx="0.12"/><rect class="cls-13" x="5.76" y="96.08" width="0.29" height="12.18" rx="0.12"/><rect class="cls-14" x="6.93" y="96.08" width="0.29" height="12.18" rx="0.12"/><rect class="cls-15" x="8.1" y="96.08" width="0.29" height="12.18" rx="0.12"/><rect class="cls-16" x="18.16" y="84.3" width="114.07" height="39.09"/><rect class="cls-17" x="18.16" y="84.3" width="12.39" height="39.09"/><rect class="cls-18" x="18.16" width="53.76" height="84.3"/><rect class="cls-19" x="80.6" y="35.14" width="40.62" height="49.16"/><rect class="cls-20" x="83.59" y="17.71" width="34.63" height="17.42"/><rect class="cls-21" x="80.6" y="77.26" width="40.62" height="7.04"/><rect class="cls-22" x="71.92" y="5.52" width="3.52" height="7.04"/><rect class="cls-23" x="71.92" y="32.47" width="3.52" height="5.7"/><rect class="cls-24" x="71.92" y="14.5" width="3.52" height="16.05"/><rect class="cls-25" x="83.26" y="72.8" width="11.21" height="4.46"/><rect class="cls-26" x="107.02" y="72.8" width="11.21" height="4.46"/><rect class="cls-27" x="126.99" y="98.71" width="17.4" height="6.92" transform="translate(237.86 -33.52) rotate(90)"/><rect class="cls-28" x="6" y="98.71" width="17.4" height="6.92" transform="translate(116.87 87.47) rotate(90)"/><path class="cls-29" d="M75.44,35.14c5.16,0,4,11.21,1.62,19.61-3.31,11.56-.82,21.06,3.54,21.06"/></g></g></g></svg>