<svg xmlns="http://www.w3.org/2000/svg" xmlns:xlink="http://www.w3.org/1999/xlink" viewBox="0 0 150.11 148.55"><defs><style>.cls-1{fill:url(#未命名的渐变_105);}.cls-2{fill:url(#未命名的渐变_14);}.cls-3{fill:url(#未命名的渐变_10);}.cls-4{fill:url(#未命名的渐变_10-2);}.cls-5{fill:url(#未命名的渐变_67);}.cls-6{fill:url(#未命名的渐变_105-2);}.cls-7{fill:url(#未命名的渐变_67-2);}.cls-8{fill:url(#未命名的渐变_67-3);}.cls-9{fill:url(#未命名的渐变_67-4);}.cls-10{fill:url(#未命名的渐变_67-5);}.cls-11{fill:url(#未命名的渐变_67-6);}.cls-12{fill:url(#未命名的渐变_67-7);}.cls-13{fill:url(#未命名的渐变_105-3);}.cls-14{fill:url(#未命名的渐变_16);}.cls-15{fill:url(#未命名的渐变_10-3);}.cls-16{fill:url(#未命名的渐变_10-4);}.cls-17{fill:url(#未命名的渐变_67-8);}.cls-18{fill:url(#未命名的渐变_105-4);}.cls-19{fill:url(#未命名的渐变_67-9);}.cls-20{fill:url(#未命名的渐变_67-10);}.cls-21{fill:url(#未命名的渐变_67-11);}.cls-22{fill:url(#未命名的渐变_67-12);}.cls-23{fill:url(#未命名的渐变_67-13);}.cls-24{fill:url(#未命名的渐变_67-14);}.cls-25{opacity:0.2;}</style><linearGradient id="未命名的渐变_105" y1="75.49" x2="75.06" y2="75.49" gradientUnits="userSpaceOnUse"><stop offset="0" stop-color="#e2e2e2"/><stop offset="0.03" stop-color="#d0d0d0"/><stop offset="0.06" stop-color="#bcbcbc"/><stop offset="0.09" stop-color="#b5b5b5"/><stop offset="0.49" stop-color="#f6f6f6"/><stop offset="0.63" stop-color="#f3f3f3"/><stop offset="0.73" stop-color="#eaeaea"/><stop offset="0.82" stop-color="#dbdbdb"/><stop offset="0.9" stop-color="#c6c6c6"/><stop offset="0.97" stop-color="#aaa"/><stop offset="1" stop-color="#9b9b9b"/></linearGradient><linearGradient id="未命名的渐变_14" x1="22.96" y1="5.96" x2="51.23" y2="5.96" gradientTransform="translate(43.06 -31.13) rotate(90)" gradientUnits="userSpaceOnUse"><stop offset="0" stop-color="#e2e2e2"/><stop offset="0" stop-color="#d0d0d0"/><stop offset="0" stop-color="#bcbcbc"/><stop offset="0" stop-color="#b5b5b5"/><stop offset="0.01" stop-color="#b6afaf"/><stop offset="0.04" stop-color="#ba9495"/><stop offset="0.08" stop-color="#bd7e80"/><stop offset="0.13" stop-color="#c06d70"/><stop offset="0.18" stop-color="#c26264"/><stop offset="0.26" stop-color="#c35b5e"/><stop offset="0.49" stop-color="#c3595c"/><stop offset="0.74" stop-color="#c25b5e"/><stop offset="0.83" stop-color="#be6264"/><stop offset="0.89" stop-color="#b76d70"/><stop offset="0.94" stop-color="#ac7e80"/><stop offset="0.99" stop-color="#9f9494"/><stop offset="1" stop-color="#9b9b9b"/></linearGradient><linearGradient id="未命名的渐变_10" x1="10.95" y1="8.67" x2="19.05" y2="8.67" gradientUnits="userSpaceOnUse"><stop offset="0" stop-color="#6b6b6b"/><stop offset="0.01" stop-color="#767676"/><stop offset="0.03" stop-color="#959595"/><stop offset="0.04" stop-color="#aaa"/><stop offset="0.14" stop-color="#b1b1b1"/><stop offset="0.66" stop-color="#cfcfcf"/><stop offset="0.96" stop-color="#dbdbdb"/><stop offset="0.96" stop-color="#d2d2d2"/><stop offset="0.97" stop-color="#b9b9b9"/><stop offset="0.98" stop-color="#909090"/><stop offset="0.99" stop-color="#666"/></linearGradient><linearGradient id="未命名的渐变_10-2" x1="55.73" y1="9.16" x2="63.84" y2="9.16" xlink:href="#未命名的渐变_10"/><linearGradient id="未命名的渐变_67" y1="75.6" x2="75.06" y2="75.6" gradientUnits="userSpaceOnUse"><stop offset="0" stop-color="#6b6b6b"/><stop offset="0.11" stop-color="#767676"/><stop offset="0.3" stop-color="#959595"/><stop offset="0.41" stop-color="#aaa"/><stop offset="0.56" stop-color="#ccc"/><stop offset="0.71" stop-color="#eaeaea"/><stop offset="0.8" stop-color="#f6f6f6"/><stop offset="0.83" stop-color="#ededed"/><stop offset="0.87" stop-color="#d4d4d4"/><stop offset="0.92" stop-color="#ababab"/><stop offset="0.98" stop-color="#737373"/><stop offset="0.99" stop-color="#666"/></linearGradient><linearGradient id="未命名的渐变_105-2" x1="838.95" y1="-363.06" x2="838.95" y2="-438.12" gradientTransform="translate(-801.43 475.94)" xlink:href="#未命名的渐变_105"/><linearGradient id="未命名的渐变_67-2" x1="21.93" y1="8.67" x2="53.06" y2="8.67" gradientTransform="translate(28.83 46.17) rotate(-90)" xlink:href="#未命名的渐变_67"/><linearGradient id="未命名的渐变_67-3" x1="23.18" y1="2.73" x2="51.01" y2="2.73" gradientTransform="translate(34.36 39.83) rotate(-90)" xlink:href="#未命名的渐变_67"/><linearGradient id="未命名的渐变_67-4" x1="25.54" y1="3.98" x2="26.8" y2="3.98" xlink:href="#未命名的渐变_67"/><linearGradient id="未命名的渐变_67-5" x1="32.71" y1="3.98" x2="33.97" y2="3.98" xlink:href="#未命名的渐变_67"/><linearGradient id="未命名的渐变_67-6" x1="39.88" y1="3.98" x2="41.14" y2="3.98" xlink:href="#未命名的渐变_67"/><linearGradient id="未命名的渐变_67-7" x1="47.04" y1="3.98" x2="48.3" y2="3.98" xlink:href="#未命名的渐变_67"/><linearGradient id="未命名的渐变_105-3" x1="75.06" y1="75.79" x2="150.11" y2="75.79" xlink:href="#未命名的渐变_105"/><linearGradient id="未命名的渐变_16" x1="395.19" y1="-1185.9" x2="423.47" y2="-1185.9" gradientTransform="translate(1298.04 415.59) rotate(-90)" gradientUnits="userSpaceOnUse"><stop offset="0" stop-color="#e2e2e2"/><stop offset="0" stop-color="#d0d0d0"/><stop offset="0" stop-color="#bcbcbc"/><stop offset="0" stop-color="#b5b5b5"/><stop offset="0.03" stop-color="#9ca2af"/><stop offset="0.09" stop-color="#7b89a6"/><stop offset="0.15" stop-color="#6175a0"/><stop offset="0.21" stop-color="#4c659a"/><stop offset="0.28" stop-color="#3e5a97"/><stop offset="0.37" stop-color="#365495"/><stop offset="0.5" stop-color="#335294"/><stop offset="0.73" stop-color="#355394"/><stop offset="0.81" stop-color="#3c5895"/><stop offset="0.86" stop-color="#476095"/><stop offset="0.91" stop-color="#586c97"/><stop offset="0.95" stop-color="#6e7c98"/><stop offset="0.98" stop-color="#898e9a"/><stop offset="1" stop-color="#9b9b9b"/></linearGradient><linearGradient id="未命名的渐变_10-3" x1="86" y1="8.97" x2="94.11" y2="8.97" xlink:href="#未命名的渐变_10"/><linearGradient id="未命名的渐变_10-4" x1="130.79" y1="9.46" x2="138.89" y2="9.46" xlink:href="#未命名的渐变_10"/><linearGradient id="未命名的渐变_67-8" x1="75.06" y1="75.9" x2="150.11" y2="75.9" xlink:href="#未命名的渐变_67"/><linearGradient id="未命名的渐变_105-4" x1="839.26" y1="-438.12" x2="839.26" y2="-513.18" gradientTransform="translate(-726.67 551.3)" xlink:href="#未命名的渐变_105"/><linearGradient id="未命名的渐变_67-9" x1="96.99" y1="8.97" x2="128.12" y2="8.97" gradientTransform="translate(103.58 121.52) rotate(-90)" xlink:href="#未命名的渐变_67"/><linearGradient id="未命名的渐变_67-10" x1="98.23" y1="3.04" x2="126.07" y2="3.04" gradientTransform="translate(109.11 115.19) rotate(-90)" xlink:href="#未命名的渐变_67"/><linearGradient id="未命名的渐变_67-11" x1="100.6" y1="4.28" x2="101.86" y2="4.28" xlink:href="#未命名的渐变_67"/><linearGradient id="未命名的渐变_67-12" x1="107.76" y1="4.28" x2="109.02" y2="4.28" xlink:href="#未命名的渐变_67"/><linearGradient id="未命名的渐变_67-13" x1="114.93" y1="4.28" x2="116.19" y2="4.28" xlink:href="#未命名的渐变_67"/><linearGradient id="未命名的渐变_67-14" x1="122.1" y1="4.28" x2="123.36" y2="4.28" xlink:href="#未命名的渐变_67"/></defs><title>Treatment tanks（处理槽）</title><g id="图层_2" data-name="图层 2"><g id="图层_125" data-name="图层 125"><g id="Treatment_tanks_处理槽_" data-name="Treatment tanks（处理槽）"><path class="cls-1" d="M75.06,141s-6.68,7.25-37.53,7.25C5.8,148.24,0,141,0,141V10.31S2.19,2.75,37.09,2.73s38,7.58,38,7.58Z"/><rect class="cls-2" x="31.97" y="-8.18" width="10.24" height="28.28" rx="0.5" transform="translate(31.13 43.06) rotate(-90)"/><rect class="cls-3" x="10.95" width="8.11" height="17.34"/><rect class="cls-4" x="55.73" y="0.49" width="8.11" height="17.34"/><rect class="cls-5" y="9.97" width="75.06" height="131.26"/><rect class="cls-6" x="35.36" y="37.82" width="4.34" height="75.06" transform="translate(112.87 37.82) rotate(90)"/><rect class="cls-7" x="35.95" y="-6.89" width="3.1" height="31.13" rx="0.33" transform="translate(46.17 -28.83) rotate(90)"/><rect class="cls-8" x="36.79" y="-11.18" width="0.61" height="27.83" transform="translate(39.83 -34.36) rotate(90)"/><rect class="cls-9" x="25.54" y="0.84" width="1.26" height="6.28"/><rect class="cls-10" x="32.71" y="0.84" width="1.26" height="6.28"/><rect class="cls-11" x="39.88" y="0.84" width="1.26" height="6.28"/><rect class="cls-12" x="47.04" y="0.84" width="1.26" height="6.28"/><path class="cls-13" d="M150.11,141.29s-6.67,7.26-37.53,7.26c-31.72,0-37.52-7.26-37.52-7.26V10.61S77.24,3.05,112.15,3s38,7.57,38,7.57Z"/><rect class="cls-14" x="107.03" y="-7.87" width="10.24" height="28.28" rx="0.5" transform="translate(105.88 118.41) rotate(-90)"/><rect class="cls-15" x="86" y="0.3" width="8.11" height="17.34"/><rect class="cls-16" x="130.79" y="0.8" width="8.11" height="17.34"/><rect class="cls-17" x="75.06" y="10.27" width="75.06" height="131.26"/><rect class="cls-18" x="110.42" y="38.12" width="4.34" height="75.06" transform="translate(188.23 -36.94) rotate(90)"/><rect class="cls-19" x="111" y="-6.59" width="3.1" height="31.13" rx="0.33" transform="translate(121.52 -103.58) rotate(90)"/><rect class="cls-20" x="111.85" y="-10.88" width="0.61" height="27.83" transform="translate(115.19 -109.11) rotate(90)"/><rect class="cls-21" x="100.6" y="1.14" width="1.26" height="6.28"/><rect class="cls-22" x="107.76" y="1.14" width="1.26" height="6.28"/><rect class="cls-23" x="114.93" y="1.14" width="1.26" height="6.28"/><rect class="cls-24" x="122.1" y="1.14" width="1.26" height="6.28"/></g></g></g></svg>