<svg xmlns="http://www.w3.org/2000/svg" xmlns:xlink="http://www.w3.org/1999/xlink" viewBox="0 0 149.48 149.48"><defs><style>.cls-1{fill:#c1c1c1;}.cls-2{fill:#e9e9e9;stroke:#999;stroke-miterlimit:10;stroke-width:0.25px;}.cls-3{fill:#999;}.cls-4{fill:url(#未命名的渐变_9);}.cls-5{fill:#373332;}.cls-6{fill:#cdcece;}.cls-7{fill:url(#未命名的渐变_9-2);}.cls-8{fill:url(#未命名的渐变_9-3);}.cls-9{fill:url(#未命名的渐变_9-4);}.cls-10{fill:url(#未命名的渐变_105);}.cls-11{fill:url(#未命名的渐变_105-2);}.cls-12{fill:url(#未命名的渐变_105-3);}.cls-13{fill:url(#未命名的渐变_105-4);}.cls-14{fill:url(#未命名的渐变_105-5);}.cls-15{fill:url(#未命名的渐变_105-6);}.cls-16{fill:url(#未命名的渐变_105-7);}.cls-17{fill:url(#未命名的渐变_105-8);}.cls-18{fill:url(#未命名的渐变_105-9);}.cls-19{fill:url(#未命名的渐变_105-10);}.cls-20{fill:url(#未命名的渐变_105-11);}.cls-21{fill:url(#未命名的渐变_105-12);}.cls-22{fill:url(#未命名的渐变_105-13);}.cls-23{fill:url(#未命名的渐变_105-14);}.cls-24{fill:url(#未命名的渐变_105-15);}.cls-25{fill:url(#未命名的渐变_105-16);}.cls-26{fill:url(#未命名的渐变_105-17);}.cls-27{fill:url(#未命名的渐变_105-18);}.cls-28{fill:url(#未命名的渐变_105-19);}.cls-29{fill:url(#未命名的渐变_105-20);}.cls-30{fill:url(#未命名的渐变_105-21);}.cls-31{fill:url(#未命名的渐变_105-22);}.cls-32{fill:url(#未命名的渐变_105-23);}.cls-33{fill:url(#未命名的渐变_105-24);}.cls-34{fill:url(#未命名的渐变_105-25);}.cls-35{fill:url(#未命名的渐变_105-26);}.cls-36{fill:url(#未命名的渐变_105-27);}.cls-37{fill:url(#未命名的渐变_105-28);}.cls-38{fill:url(#未命名的渐变_105-29);}.cls-39{fill:url(#未命名的渐变_105-30);}.cls-40{fill:url(#未命名的渐变_105-31);}.cls-41{fill:url(#未命名的渐变_105-32);}.cls-42{fill:url(#未命名的渐变_105-33);}.cls-43{fill:url(#未命名的渐变_105-34);}.cls-44{fill:url(#未命名的渐变_105-35);}.cls-45{fill:url(#未命名的渐变_105-36);}.cls-46{fill:url(#未命名的渐变_105-37);}.cls-47{fill:url(#未命名的渐变_105-38);}.cls-48{fill:url(#未命名的渐变_105-39);}.cls-49{fill:url(#未命名的渐变_105-40);}.cls-50{fill:url(#未命名的渐变_105-41);}.cls-51{fill:url(#未命名的渐变_105-42);}.cls-52{fill:url(#未命名的渐变_105-43);}.cls-53{fill:url(#未命名的渐变_105-44);}.cls-54{fill:url(#未命名的渐变_105-45);}.cls-55{fill:url(#未命名的渐变_105-46);}.cls-56{fill:url(#未命名的渐变_105-47);}.cls-57{fill:url(#未命名的渐变_105-48);}.cls-58{fill:url(#未命名的渐变_105-49);}.cls-59{fill:url(#未命名的渐变_105-50);}.cls-60{fill:url(#未命名的渐变_105-51);}.cls-61{fill:url(#未命名的渐变_105-52);}.cls-62{fill:url(#未命名的渐变_9-5);}.cls-63{fill:url(#未命名的渐变_9-6);}.cls-64{fill:url(#未命名的渐变_9-7);}.cls-65{fill:url(#未命名的渐变_9-8);}.cls-66{fill:url(#未命名的渐变_105-53);}.cls-67{fill:url(#未命名的渐变_105-54);}.cls-68{fill:url(#未命名的渐变_105-55);}.cls-69{fill:url(#未命名的渐变_105-56);}.cls-70{fill:url(#未命名的渐变_105-57);}.cls-71{fill:url(#未命名的渐变_105-58);}.cls-72{fill:url(#未命名的渐变_105-59);}.cls-73{fill:url(#未命名的渐变_105-60);}.cls-74{fill:url(#未命名的渐变_105-61);}.cls-75{fill:url(#未命名的渐变_105-62);}.cls-76{fill:url(#未命名的渐变_105-63);}.cls-77{fill:url(#未命名的渐变_105-64);}.cls-78{fill:url(#未命名的渐变_105-65);}.cls-79{fill:url(#未命名的渐变_105-66);}.cls-80{fill:url(#未命名的渐变_105-67);}.cls-81{fill:url(#未命名的渐变_105-68);}.cls-82{fill:url(#未命名的渐变_105-69);}.cls-83{fill:url(#未命名的渐变_105-70);}.cls-84{fill:url(#未命名的渐变_105-71);}.cls-85{fill:url(#未命名的渐变_105-72);}.cls-86{fill:url(#未命名的渐变_105-73);}.cls-87{fill:url(#未命名的渐变_105-74);}.cls-88{fill:url(#未命名的渐变_105-75);}.cls-89{fill:url(#未命名的渐变_105-76);}.cls-90{fill:url(#未命名的渐变_105-77);}.cls-91{fill:url(#未命名的渐变_105-78);}.cls-92{fill:url(#未命名的渐变_105-79);}.cls-93{fill:url(#未命名的渐变_105-80);}.cls-94{fill:url(#未命名的渐变_105-81);}.cls-95{fill:url(#未命名的渐变_105-82);}.cls-96{fill:url(#未命名的渐变_105-83);}.cls-97{fill:url(#未命名的渐变_105-84);}.cls-98{fill:url(#未命名的渐变_105-85);}.cls-99{fill:url(#未命名的渐变_105-86);}.cls-100{fill:url(#未命名的渐变_105-87);}.cls-101{fill:url(#未命名的渐变_105-88);}.cls-102{fill:url(#未命名的渐变_105-89);}.cls-103{fill:url(#未命名的渐变_105-90);}.cls-104{fill:url(#未命名的渐变_105-91);}.cls-105{fill:url(#未命名的渐变_105-92);}.cls-106{fill:url(#未命名的渐变_105-93);}.cls-107{fill:url(#未命名的渐变_105-94);}.cls-108{fill:url(#未命名的渐变_105-95);}.cls-109{fill:url(#未命名的渐变_105-96);}.cls-110{fill:url(#未命名的渐变_105-97);}.cls-111{fill:url(#未命名的渐变_105-98);}.cls-112{fill:url(#未命名的渐变_105-99);}.cls-113{fill:url(#未命名的渐变_105-100);}.cls-114{fill:url(#未命名的渐变_105-101);}.cls-115{fill:url(#未命名的渐变_105-102);}.cls-116{fill:url(#未命名的渐变_105-103);}.cls-117{fill:url(#未命名的渐变_105-104);}.cls-118{opacity:0.2;}</style><linearGradient id="未命名的渐变_9" x1="64.12" y1="8.2" x2="84.12" y2="8.2" gradientUnits="userSpaceOnUse"><stop offset="0" stop-color="#6b6b6b"/><stop offset="0.01" stop-color="#767676"/><stop offset="0.03" stop-color="#959595"/><stop offset="0.04" stop-color="#aaa"/><stop offset="0.13" stop-color="#b1b1b1"/><stop offset="0.61" stop-color="#cfcfcf"/><stop offset="0.88" stop-color="#dbdbdb"/><stop offset="0.89" stop-color="#d2d2d2"/><stop offset="0.91" stop-color="#b9b9b9"/><stop offset="0.93" stop-color="#909090"/><stop offset="0.95" stop-color="#666"/></linearGradient><linearGradient id="未命名的渐变_9-2" x1="65.71" y1="8.51" x2="82.33" y2="8.51" xlink:href="#未命名的渐变_9"/><linearGradient id="未命名的渐变_9-3" x1="64.52" y1="141.28" x2="84.52" y2="141.28" xlink:href="#未命名的渐变_9"/><linearGradient id="未命名的渐变_9-4" x1="66.11" y1="141.78" x2="82.73" y2="141.78" xlink:href="#未命名的渐变_9"/><linearGradient id="未命名的渐变_105" x1="-253.93" y1="287.23" x2="-253.93" y2="285.92" gradientTransform="translate(327.57 -115.85) scale(1 0.48)" gradientUnits="userSpaceOnUse"><stop offset="0" stop-color="#e2e2e2"/><stop offset="0.03" stop-color="#d0d0d0"/><stop offset="0.06" stop-color="#bcbcbc"/><stop offset="0.09" stop-color="#b5b5b5"/><stop offset="0.49" stop-color="#f6f6f6"/><stop offset="0.63" stop-color="#f3f3f3"/><stop offset="0.73" stop-color="#eaeaea"/><stop offset="0.82" stop-color="#dbdbdb"/><stop offset="0.9" stop-color="#c6c6c6"/><stop offset="0.97" stop-color="#aaa"/><stop offset="1" stop-color="#9b9b9b"/></linearGradient><linearGradient id="未命名的渐变_105-2" x1="312.87" y1="975.35" x2="312.87" y2="974.04" gradientTransform="matrix(1, 0, 0, -0.48, -239.23, 484)" xlink:href="#未命名的渐变_105"/><linearGradient id="未命名的渐变_105-3" x1="-257.46" y1="299.55" x2="-257.46" y2="298.24" gradientTransform="translate(330.97 -114.88) scale(1 0.48)" xlink:href="#未命名的渐变_105"/><linearGradient id="未命名的渐变_105-4" x1="309.56" y1="987.94" x2="309.56" y2="986.63" gradientTransform="matrix(1, 0, 0, -0.48, -236.05, 496.82)" xlink:href="#未命名的渐变_105"/><linearGradient id="未命名的渐变_105-5" x1="-260.67" y1="311.79" x2="-260.67" y2="310.48" gradientTransform="translate(334.31 -114.05) scale(1 0.48)" xlink:href="#未命名的渐变_105"/><linearGradient id="未命名的渐变_105-6" x1="306.13" y1="999.91" x2="306.13" y2="998.6" gradientTransform="matrix(1, 0, 0, -0.48, -232.49, 509.17)" xlink:href="#未命名的渐变_105"/><linearGradient id="未命名的渐变_105-7" x1="-264.11" y1="324.32" x2="-264.11" y2="323.01" gradientTransform="translate(337.75 -113.13) scale(1 0.48)" xlink:href="#未命名的渐变_105"/><linearGradient id="未命名的渐变_105-8" x1="302.69" y1="1012.44" x2="302.69" y2="1011.13" gradientTransform="matrix(1, 0, 0, -0.48, -229.05, 522)" xlink:href="#未命名的渐变_105"/><linearGradient id="未命名的渐变_105-9" x1="-267.57" y1="337.35" x2="-267.57" y2="336.04" gradientTransform="translate(341.31 -112.23) scale(1 0.48)" xlink:href="#未命名的渐变_105"/><linearGradient id="未命名的渐变_105-10" x1="299.05" y1="1025.25" x2="299.05" y2="1023.94" gradientTransform="matrix(1, 0, 0, -0.48, -225.31, 535.19)" xlink:href="#未命名的渐变_105"/><linearGradient id="未命名的渐变_105-11" x1="-271.05" y1="349.58" x2="-271.05" y2="348.27" gradientTransform="translate(344.69 -111.27) scale(1 0.48)" xlink:href="#未命名的渐变_105"/><linearGradient id="未命名的渐变_105-12" x1="295.76" y1="1037.69" x2="295.76" y2="1036.38" gradientTransform="matrix(1, 0, 0, -0.48, -222.12, 547.88)" xlink:href="#未命名的渐变_105"/><linearGradient id="未命名的渐变_105-13" x1="-274.54" y1="361.77" x2="-274.54" y2="360.46" gradientTransform="translate(348.06 -110.3) scale(1 0.48)" xlink:href="#未命名的渐变_105"/><linearGradient id="未命名的渐变_105-14" x1="292.48" y1="1050.16" x2="292.48" y2="1048.85" gradientTransform="matrix(1, 0, 0, -0.48, -218.97, 560.58)" xlink:href="#未命名的渐变_105"/><linearGradient id="未命名的渐变_105-15" x1="-278" y1="374.9" x2="-278" y2="373.59" gradientTransform="translate(351.64 -109.41) scale(1 0.48)" xlink:href="#未命名的渐变_105"/><linearGradient id="未命名的渐变_105-16" x1="288.8" y1="1063.02" x2="288.8" y2="1061.71" gradientTransform="matrix(1, 0, 0, -0.48, -215.16, 573.84)" xlink:href="#未命名的渐变_105"/><linearGradient id="未命名的渐变_105-17" x1="-281.37" y1="387.15" x2="-281.37" y2="385.84" gradientTransform="translate(355.01 -108.5) scale(1 0.48)" xlink:href="#未命名的渐变_105"/><linearGradient id="未命名的渐变_105-18" x1="285.44" y1="1075.27" x2="285.44" y2="1073.96" gradientTransform="matrix(1, 0, 0, -0.48, -211.8, 586.39)" xlink:href="#未命名的渐变_105"/><linearGradient id="未命名的渐变_105-19" x1="-284.75" y1="399.49" x2="-284.75" y2="398.18" gradientTransform="translate(358.39 -107.6) scale(1 0.48)" xlink:href="#未命名的渐变_105"/><linearGradient id="未命名的渐变_105-20" x1="282.05" y1="1087.61" x2="282.05" y2="1086.3" gradientTransform="matrix(1, 0, 0, -0.48, -208.41, 599.03)" xlink:href="#未命名的渐变_105"/><linearGradient id="未命名的渐变_105-21" x1="-288.25" y1="412.24" x2="-288.25" y2="410.93" gradientTransform="translate(361.89 -106.66) scale(1 0.48)" xlink:href="#未命名的渐变_105"/><linearGradient id="未命名的渐变_105-22" x1="278.55" y1="1100.36" x2="278.55" y2="1099.05" gradientTransform="matrix(1, 0, 0, -0.48, -204.91, 612.09)" xlink:href="#未命名的渐变_105"/><linearGradient id="未命名的渐变_105-23" x1="-291.63" y1="424.54" x2="-291.63" y2="423.23" gradientTransform="translate(365.27 -105.75) scale(1 0.48)" xlink:href="#未命名的渐变_105"/><linearGradient id="未命名的渐变_105-24" x1="275.17" y1="1112.66" x2="275.17" y2="1111.35" gradientTransform="matrix(1, 0, 0, -0.48, -201.53, 624.7)" xlink:href="#未命名的渐变_105"/><linearGradient id="未命名的渐变_105-25" x1="-295.13" y1="437.3" x2="-295.13" y2="435.99" gradientTransform="translate(368.77 -104.81) scale(1 0.48)" xlink:href="#未命名的渐变_105"/><linearGradient id="未命名的渐变_105-26" x1="271.67" y1="1125.42" x2="271.67" y2="1124.11" gradientTransform="matrix(1, 0, 0, -0.48, -198.03, 637.77)" xlink:href="#未命名的渐变_105"/><linearGradient id="未命名的渐变_105-27" x1="-298.77" y1="450.02" x2="-298.77" y2="448.71" gradientTransform="translate(372.29 -103.81) scale(1 0.48)" xlink:href="#未命名的渐变_105"/><linearGradient id="未命名的渐变_105-28" x1="268.25" y1="1138.4" x2="268.25" y2="1137.09" gradientTransform="matrix(1, 0, 0, -0.48, -194.74, 651)" xlink:href="#未命名的渐变_105"/><linearGradient id="未命名的渐变_105-29" x1="-301.91" y1="462.51" x2="-301.91" y2="461.2" gradientTransform="translate(375.68 -103.03) scale(1 0.48)" xlink:href="#未命名的渐变_105"/><linearGradient id="未命名的渐变_105-30" x1="264.67" y1="1150.36" x2="264.67" y2="1149.05" gradientTransform="matrix(1, 0, 0, -0.48, -190.91, 663.4)" xlink:href="#未命名的渐变_105"/><linearGradient id="未命名的渐变_105-31" x1="-305.59" y1="474.86" x2="-305.59" y2="473.55" gradientTransform="translate(379.11 -101.98) scale(1 0.48)" xlink:href="#未命名的渐变_105"/><linearGradient id="未命名的渐变_105-32" x1="261.43" y1="1163.25" x2="261.43" y2="1161.93" gradientTransform="matrix(1, 0, 0, -0.48, -187.92, 676.46)" xlink:href="#未命名的渐变_105"/><linearGradient id="未命名的渐变_105-33" x1="-308.56" y1="486.74" x2="-308.56" y2="485.43" gradientTransform="translate(382.33 -101.25) scale(1 0.48)" xlink:href="#未命名的渐变_105"/><linearGradient id="未命名的渐变_105-34" x1="258.02" y1="1174.59" x2="258.02" y2="1173.28" gradientTransform="matrix(1, 0, 0, -0.48, -184.25, 688.23)" xlink:href="#未命名的渐变_105"/><linearGradient id="未命名的渐变_105-35" x1="73.51" y1="24.48" x2="73.51" y2="22.97" gradientTransform="matrix(1, 0, 0, 1, 0, 0)" xlink:href="#未命名的渐变_105"/><linearGradient id="未命名的渐变_105-36" x1="73.51" y1="31.36" x2="73.51" y2="29.84" gradientTransform="matrix(1, 0, 0, 1, 0, 0)" xlink:href="#未命名的渐变_105"/><linearGradient id="未命名的渐变_105-37" x1="73.51" y1="38.24" x2="73.51" y2="36.72" gradientTransform="matrix(1, 0, 0, 1, 0, 0)" xlink:href="#未命名的渐变_105"/><linearGradient id="未命名的渐变_105-38" x1="73.51" y1="45.12" x2="73.51" y2="43.6" gradientTransform="matrix(1, 0, 0, 1, 0, 0)" xlink:href="#未命名的渐变_105"/><linearGradient id="未命名的渐变_105-39" x1="73.51" y1="52" x2="73.51" y2="50.48" gradientTransform="matrix(1, 0, 0, 1, 0, 0)" xlink:href="#未命名的渐变_105"/><linearGradient id="未命名的渐变_105-40" x1="73.51" y1="58.88" x2="73.51" y2="57.36" gradientTransform="matrix(1, 0, 0, 1, 0, 0)" xlink:href="#未命名的渐变_105"/><linearGradient id="未命名的渐变_105-41" x1="73.51" y1="65.76" x2="73.51" y2="64.24" gradientTransform="matrix(1, 0, 0, 1, 0, 0)" xlink:href="#未命名的渐变_105"/><linearGradient id="未命名的渐变_105-42" x1="73.51" y1="72.64" x2="73.51" y2="71.12" gradientTransform="matrix(1, 0, 0, 1, 0, 0)" xlink:href="#未命名的渐变_105"/><linearGradient id="未命名的渐变_105-43" x1="73.51" y1="79.52" x2="73.51" y2="78" gradientTransform="matrix(1, 0, 0, 1, 0, 0)" xlink:href="#未命名的渐变_105"/><linearGradient id="未命名的渐变_105-44" x1="73.51" y1="86.4" x2="73.51" y2="84.88" gradientTransform="matrix(1, 0, 0, 1, 0, 0)" xlink:href="#未命名的渐变_105"/><linearGradient id="未命名的渐变_105-45" x1="73.51" y1="93.28" x2="73.51" y2="91.76" gradientTransform="matrix(1, 0, 0, 1, 0, 0)" xlink:href="#未命名的渐变_105"/><linearGradient id="未命名的渐变_105-46" x1="73.51" y1="100.16" x2="73.51" y2="98.64" gradientTransform="matrix(1, 0, 0, 1, 0, 0)" xlink:href="#未命名的渐变_105"/><linearGradient id="未命名的渐变_105-47" x1="73.51" y1="107.03" x2="73.51" y2="105.52" gradientTransform="matrix(1, 0, 0, 1, 0, 0)" xlink:href="#未命名的渐变_105"/><linearGradient id="未命名的渐变_105-48" x1="73.51" y1="113.91" x2="73.51" y2="112.4" gradientTransform="matrix(1, 0, 0, 1, 0, 0)" xlink:href="#未命名的渐变_105"/><linearGradient id="未命名的渐变_105-49" x1="73.51" y1="120.79" x2="73.51" y2="119.28" gradientTransform="matrix(1, 0, 0, 1, 0, 0)" xlink:href="#未命名的渐变_105"/><linearGradient id="未命名的渐变_105-50" x1="73.51" y1="127.67" x2="73.51" y2="126.16" gradientTransform="matrix(1, 0, 0, 1, 0, 0)" xlink:href="#未命名的渐变_105"/><linearGradient id="未命名的渐变_105-51" x1="73.51" y1="133.05" x2="73.51" y2="131.53" gradientTransform="matrix(1, 0, 0, 1, 0, 0)" xlink:href="#未命名的渐变_105"/><linearGradient id="未命名的渐变_105-52" x1="73.51" y1="17.66" x2="73.51" y2="16.35" gradientTransform="matrix(1, 0, 0, 1, 0, 0)" xlink:href="#未命名的渐变_105"/><linearGradient id="未命名的渐变_9-5" x1="1171.56" y1="-446.2" x2="1191.56" y2="-446.2" gradientTransform="translate(-1039.67 520.43)" xlink:href="#未命名的渐变_9"/><linearGradient id="未命名的渐变_9-6" x1="1173.15" y1="-445.89" x2="1189.77" y2="-445.89" gradientTransform="translate(-1039.98 520.12)" xlink:href="#未命名的渐变_9"/><linearGradient id="未命名的渐变_9-7" x1="1171.96" y1="-313.12" x2="1191.96" y2="-313.12" gradientTransform="translate(-1173.16 387.74)" xlink:href="#未命名的渐变_9"/><linearGradient id="未命名的渐变_9-8" x1="1173.55" y1="-312.62" x2="1190.17" y2="-312.62" gradientTransform="translate(-1173.66 387.24)" xlink:href="#未命名的渐变_9"/><linearGradient id="未命名的渐变_105-53" x1="932.34" y1="624.1" x2="932.34" y2="622.79" gradientTransform="translate(-803.31 -222.16) scale(1 0.48)" xlink:href="#未命名的渐变_105"/><linearGradient id="未命名的渐变_105-54" x1="-419" y1="-1016.48" x2="-419" y2="-1017.79" gradientTransform="matrix(1, 0, 0, -0.48, 548.03, -409.34)" xlink:href="#未命名的渐变_105"/><linearGradient id="未命名的渐变_105-55" x1="928.81" y1="636.41" x2="928.81" y2="635.1" gradientTransform="translate(-806.62 -228.14) scale(1 0.48)" xlink:href="#未命名的渐变_105"/><linearGradient id="未命名的渐变_105-56" x1="-422.31" y1="-1003.9" x2="-422.31" y2="-1005.21" gradientTransform="matrix(1, 0, 0, -0.48, 544.5, -403.49)" xlink:href="#未命名的渐变_105"/><linearGradient id="未命名的渐变_105-57" x1="925.6" y1="648.66" x2="925.6" y2="647.35" gradientTransform="translate(-810.06 -233.83) scale(1 0.48)" xlink:href="#未命名的渐变_105"/><linearGradient id="未命名的渐变_105-58" x1="-425.74" y1="-991.92" x2="-425.74" y2="-993.23" gradientTransform="matrix(1, 0, 0, -0.48, 541.29, -397.66)" xlink:href="#未命名的渐变_105"/><linearGradient id="未命名的渐变_105-59" x1="922.16" y1="661.18" x2="922.16" y2="659.87" gradientTransform="translate(-813.5 -239.79) scale(1 0.48)" xlink:href="#未命名的渐变_105"/><linearGradient id="未命名的渐变_105-60" x1="-429.18" y1="-979.39" x2="-429.18" y2="-980.7" gradientTransform="matrix(1, 0, 0, -0.48, 537.85, -391.71)" xlink:href="#未命名的渐变_105"/><linearGradient id="未命名的渐变_105-61" x1="918.71" y1="674.21" x2="918.71" y2="672.9" gradientTransform="translate(-817.13 -245.88) scale(1 0.48)" xlink:href="#未命名的渐变_105"/><linearGradient id="未命名的渐变_105-62" x1="-432.82" y1="-966.59" x2="-432.82" y2="-967.9" gradientTransform="matrix(1, 0, 0, -0.48, 534.39, -385.51)" xlink:href="#未命名的渐变_105"/><linearGradient id="未命名的渐变_105-63" x1="915.23" y1="686.44" x2="915.23" y2="685.13" gradientTransform="translate(-820.43 -251.8) scale(1 0.48)" xlink:href="#未命名的渐变_105"/><linearGradient id="未命名的渐变_105-64" x1="-436.12" y1="-954.14" x2="-436.12" y2="-955.45" gradientTransform="matrix(1, 0, 0, -0.48, 530.91, -379.7)" xlink:href="#未命名的渐变_105"/><linearGradient id="未命名的渐变_105-65" x1="911.73" y1="698.63" x2="911.73" y2="697.32" gradientTransform="translate(-823.7 -257.73) scale(1 0.48)" xlink:href="#未命名的渐变_105"/><linearGradient id="未命名的渐变_105-66" x1="-439.39" y1="-941.68" x2="-439.39" y2="-942.99" gradientTransform="matrix(1, 0, 0, -0.48, 527.42, -373.9)" xlink:href="#未命名的渐变_105"/><linearGradient id="未命名的渐变_105-67" x1="908.27" y1="711.77" x2="908.27" y2="710.46" gradientTransform="translate(-827.38 -263.85) scale(1 0.48)" xlink:href="#未命名的渐变_105"/><linearGradient id="未命名的渐变_105-68" x1="-443.07" y1="-928.81" x2="-443.07" y2="-930.12" gradientTransform="matrix(1, 0, 0, -0.48, 523.96, -367.65)" xlink:href="#未命名的渐变_105"/><linearGradient id="未命名的渐变_105-69" x1="904.91" y1="724.02" x2="904.91" y2="722.71" gradientTransform="translate(-830.75 -269.67) scale(1 0.48)" xlink:href="#未命名的渐变_105"/><linearGradient id="未命名的渐变_105-70" x1="-446.44" y1="-916.56" x2="-446.44" y2="-917.87" gradientTransform="matrix(1, 0, 0, -0.48, 520.6, -361.83)" xlink:href="#未命名的渐变_105"/><linearGradient id="未命名的渐变_105-71" x1="901.52" y1="736.35" x2="901.52" y2="735.04" gradientTransform="translate(-834.13 -275.54) scale(1 0.48)" xlink:href="#未命名的渐变_105"/><linearGradient id="未命名的渐变_105-72" x1="-449.82" y1="-904.23" x2="-449.82" y2="-905.54" gradientTransform="matrix(1, 0, 0, -0.48, 517.21, -355.96)" xlink:href="#未命名的渐变_105"/><linearGradient id="未命名的渐变_105-73" x1="898.02" y1="749.1" x2="898.02" y2="747.79" gradientTransform="translate(-837.64 -281.6) scale(1 0.48)" xlink:href="#未命名的渐变_105"/><linearGradient id="未命名的渐变_105-74" x1="-453.32" y1="-891.47" x2="-453.32" y2="-892.78" gradientTransform="matrix(1, 0, 0, -0.48, 513.71, -349.9)" xlink:href="#未命名的渐变_105"/><linearGradient id="未命名的渐变_105-75" x1="894.64" y1="761.41" x2="894.64" y2="760.1" gradientTransform="translate(-841.01 -287.45) scale(1 0.48)" xlink:href="#未命名的渐变_105"/><linearGradient id="未命名的渐变_105-76" x1="-456.7" y1="-879.17" x2="-456.7" y2="-880.48" gradientTransform="matrix(1, 0, 0, -0.48, 510.33, -344.04)" xlink:href="#未命名的渐变_105"/><linearGradient id="未命名的渐变_105-77" x1="891.14" y1="774.16" x2="891.14" y2="772.85" gradientTransform="translate(-844.52 -293.52) scale(1 0.48)" xlink:href="#未命名的渐变_105"/><linearGradient id="未命名的渐变_105-78" x1="-460.2" y1="-866.41" x2="-460.2" y2="-867.72" gradientTransform="matrix(1, 0, 0, -0.48, 506.83, -337.98)" xlink:href="#未命名的渐变_105"/><linearGradient id="未命名的渐变_105-79" x1="887.5" y1="786.88" x2="887.5" y2="785.57" gradientTransform="translate(-847.93 -299.7) scale(1 0.48)" xlink:href="#未命名的渐变_105"/><linearGradient id="未命名的渐变_105-80" x1="-463.62" y1="-853.43" x2="-463.62" y2="-854.74" gradientTransform="matrix(1, 0, 0, -0.48, 503.19, -331.93)" xlink:href="#未命名的渐变_105"/><linearGradient id="未命名的渐变_105-81" x1="884.37" y1="799.37" x2="884.37" y2="798.06" gradientTransform="translate(-851.51 -305.38) scale(1 0.48)" xlink:href="#未命名的渐变_105"/><linearGradient id="未命名的渐变_105-82" x1="-467.2" y1="-841.48" x2="-467.2" y2="-842.79" gradientTransform="matrix(1, 0, 0, -0.48, 500.05, -325.99)" xlink:href="#未命名的渐变_105"/><linearGradient id="未命名的渐变_105-83" x1="880.68" y1="811.72" x2="880.68" y2="810.41" gradientTransform="translate(-854.75 -311.51) scale(1 0.48)" xlink:href="#未命名的渐变_105"/><linearGradient id="未命名的渐变_105-84" x1="-470.44" y1="-828.59" x2="-470.44" y2="-829.9" gradientTransform="matrix(1, 0, 0, -0.48, 496.37, -320.12)" xlink:href="#未命名的渐变_105"/><linearGradient id="未命名的渐变_105-85" x1="877.71" y1="823.6" x2="877.71" y2="822.29" gradientTransform="translate(-858.17 -316.91) scale(1 0.48)" xlink:href="#未命名的渐变_105"/><linearGradient id="未命名的渐变_105-86" x1="-473.85" y1="-817.24" x2="-473.85" y2="-818.55" gradientTransform="matrix(1, 0, 0, -0.48, 493.4, -314.47)" xlink:href="#未命名的渐变_105"/><linearGradient id="未命名的渐变_105-87" x1="1180.96" y1="-429.92" x2="1180.96" y2="-431.43" gradientTransform="translate(-1055.24 504.85)" xlink:href="#未命名的渐变_105"/><linearGradient id="未命名的渐变_105-88" x1="1180.96" y1="-423.04" x2="1180.96" y2="-424.56" gradientTransform="translate(-1062.12 497.97)" xlink:href="#未命名的渐变_105"/><linearGradient id="未命名的渐变_105-89" x1="1180.96" y1="-416.16" x2="1180.96" y2="-417.68" gradientTransform="translate(-1069 491.09)" xlink:href="#未命名的渐变_105"/><linearGradient id="未命名的渐变_105-90" x1="1180.96" y1="-409.28" x2="1180.96" y2="-410.8" gradientTransform="translate(-1075.88 484.22)" xlink:href="#未命名的渐变_105"/><linearGradient id="未命名的渐变_105-91" x1="1180.96" y1="-402.4" x2="1180.96" y2="-403.92" gradientTransform="translate(-1082.76 477.34)" xlink:href="#未命名的渐变_105"/><linearGradient id="未命名的渐变_105-92" x1="1180.96" y1="-395.52" x2="1180.96" y2="-397.04" gradientTransform="translate(-1089.64 470.46)" xlink:href="#未命名的渐变_105"/><linearGradient id="未命名的渐变_105-93" x1="1180.96" y1="-388.64" x2="1180.96" y2="-390.16" gradientTransform="translate(-1096.52 463.58)" xlink:href="#未命名的渐变_105"/><linearGradient id="未命名的渐变_105-94" x1="1180.96" y1="-381.76" x2="1180.96" y2="-383.28" gradientTransform="translate(-1103.4 456.7)" xlink:href="#未命名的渐变_105"/><linearGradient id="未命名的渐变_105-95" x1="1180.96" y1="-374.88" x2="1180.96" y2="-376.4" gradientTransform="translate(-1110.28 449.82)" xlink:href="#未命名的渐变_105"/><linearGradient id="未命名的渐变_105-96" x1="1180.96" y1="-368" x2="1180.96" y2="-369.52" gradientTransform="translate(-1117.16 442.94)" xlink:href="#未命名的渐变_105"/><linearGradient id="未命名的渐变_105-97" x1="1180.96" y1="-361.12" x2="1180.96" y2="-362.64" gradientTransform="translate(-1124.04 436.06)" xlink:href="#未命名的渐变_105"/><linearGradient id="未命名的渐变_105-98" x1="1180.96" y1="-354.24" x2="1180.96" y2="-355.76" gradientTransform="translate(-1130.92 429.18)" xlink:href="#未命名的渐变_105"/><linearGradient id="未命名的渐变_105-99" x1="1180.96" y1="-347.37" x2="1180.96" y2="-348.88" gradientTransform="translate(-1137.8 422.3)" xlink:href="#未命名的渐变_105"/><linearGradient id="未命名的渐变_105-100" x1="1180.96" y1="-340.49" x2="1180.96" y2="-342" gradientTransform="translate(-1144.68 415.42)" xlink:href="#未命名的渐变_105"/><linearGradient id="未命名的渐变_105-101" x1="1180.96" y1="-333.61" x2="1180.96" y2="-335.12" gradientTransform="translate(-1151.56 408.54)" xlink:href="#未命名的渐变_105"/><linearGradient id="未命名的渐变_105-102" x1="1180.96" y1="-326.73" x2="1180.96" y2="-328.24" gradientTransform="translate(-1158.44 401.66)" xlink:href="#未命名的渐变_105"/><linearGradient id="未命名的渐变_105-103" x1="1180.96" y1="-321.35" x2="1180.96" y2="-322.87" gradientTransform="translate(-1163.81 396.29)" xlink:href="#未命名的渐变_105"/><linearGradient id="未命名的渐变_105-104" x1="1180.96" y1="-436.74" x2="1180.96" y2="-438.05" gradientTransform="translate(-1048.52 511.58)" xlink:href="#未命名的渐变_105"/></defs><title>Treatment basin（处理池）</title><g id="图层_2" data-name="图层 2"><g id="图层_125" data-name="图层 125"><g id="Treatment_basin_处理池_" data-name="Treatment basin（处理池）"><circle class="cls-1" cx="74.09" cy="74.22" r="58.92"/><circle class="cls-2" cx="74.09" cy="74.22" r="52.22"/><circle class="cls-3" cx="74.09" cy="74.22" r="12.77"/><rect class="cls-4" x="63.59" width="19.85" height="16.39"/><rect class="cls-5" x="67.47" y="16.74" width="1.8" height="116.35"/><rect class="cls-6" x="69.27" y="17.04" width="9.04" height="116.35"/><rect class="cls-6" x="69.27" y="16.17" width="9.04" height="116.35" transform="translate(148.14 0.56) rotate(90)"/><rect class="cls-5" x="77.84" y="16.39" width="1.8" height="116.35"/><rect class="cls-7" x="65.26" y="1.64" width="16.5" height="13.72"/><rect class="cls-8" x="63.99" y="133.09" width="19.85" height="16.39"/><rect class="cls-9" x="65.67" y="134.92" width="16.5" height="13.72"/><rect class="cls-10" x="67.6" y="20.14" width="12.08" height="0.62" transform="matrix(0.87, -0.5, 0.5, 0.87, -0.36, 39.56)"/><rect class="cls-11" x="67.6" y="20.14" width="12.08" height="0.62" transform="translate(127.19 74.98) rotate(-150)"/><rect class="cls-12" x="67.47" y="26.98" width="12.08" height="0.62" transform="matrix(0.87, -0.5, 0.5, 0.87, -3.79, 40.41)"/><rect class="cls-13" x="67.47" y="26.98" width="12.08" height="0.62" transform="translate(123.53 87.68) rotate(-150)"/><rect class="cls-14" x="67.6" y="33.63" width="12.08" height="0.62" transform="matrix(0.87, -0.5, 0.5, 0.87, -7.1, 41.37)"/><rect class="cls-15" x="67.6" y="33.63" width="12.08" height="0.62" transform="translate(120.45 100.15) rotate(-150)"/><rect class="cls-16" x="67.6" y="40.51" width="12.08" height="0.62" transform="matrix(0.87, -0.5, 0.5, 0.87, -10.54, 42.29)"/><rect class="cls-17" x="67.6" y="40.51" width="12.08" height="0.62" transform="translate(117.01 112.99) rotate(-150)"/><rect class="cls-18" x="67.7" y="47.6" width="12.08" height="0.62" transform="matrix(0.87, -0.5, 0.5, 0.87, -14.07, 43.29)"/><rect class="cls-19" x="67.7" y="47.6" width="12.08" height="0.62" transform="translate(113.66 126.27) rotate(-150)"/><rect class="cls-20" x="67.6" y="54.38" width="12.08" height="0.62" transform="translate(-17.48 44.15) rotate(-30)"/><rect class="cls-21" x="67.6" y="54.38" width="12.08" height="0.62" transform="translate(110.07 138.86) rotate(-150)"/><rect class="cls-22" x="67.47" y="61.15" width="12.08" height="0.62" transform="translate(-20.88 44.99) rotate(-30)"/><rect class="cls-23" x="67.47" y="61.15" width="12.08" height="0.62" transform="translate(106.45 151.43) rotate(-150)"/><rect class="cls-24" x="67.6" y="68.28" width="12.08" height="0.62" transform="matrix(0.87, -0.5, 0.5, 0.87, -24.43, 46.01)"/><rect class="cls-25" x="67.6" y="68.28" width="12.08" height="0.62" transform="translate(103.12 164.82) rotate(-150)"/><rect class="cls-26" x="67.6" y="75.01" width="12.08" height="0.62" transform="matrix(0.87, -0.5, 0.5, 0.87, -27.79, 46.91)"/><rect class="cls-27" x="67.6" y="75.01" width="12.08" height="0.62" transform="translate(99.75 177.37) rotate(-150)"/><rect class="cls-28" x="67.6" y="81.78" width="12.08" height="0.62" transform="matrix(0.87, -0.5, 0.5, 0.87, -31.18, 47.82)"/><rect class="cls-29" x="67.6" y="81.78" width="12.08" height="0.62" transform="translate(96.37 190.01) rotate(-150)"/><rect class="cls-30" x="67.6" y="88.79" width="12.08" height="0.62" transform="matrix(0.87, -0.5, 0.5, 0.87, -34.68, 48.76)"/><rect class="cls-31" x="67.6" y="88.79" width="12.08" height="0.62" transform="translate(92.87 203.08) rotate(-150)"/><rect class="cls-32" x="67.6" y="95.54" width="12.08" height="0.62" transform="matrix(0.87, -0.5, 0.5, 0.87, -38.06, 49.66)"/><rect class="cls-33" x="67.6" y="95.54" width="12.08" height="0.62" transform="translate(89.49 215.68) rotate(-150)"/><rect class="cls-34" x="67.6" y="102.55" width="12.08" height="0.62" transform="matrix(0.87, -0.5, 0.5, 0.87, -41.56, 50.6)"/><rect class="cls-35" x="67.6" y="102.55" width="12.08" height="0.62" transform="translate(85.99 228.75) rotate(-150)"/><rect class="cls-36" x="67.47" y="109.6" width="12.08" height="0.62" transform="matrix(0.87, -0.5, 0.5, 0.87, -45.11, 51.48)"/><rect class="cls-37" x="67.47" y="109.6" width="12.08" height="0.62" transform="translate(82.22 241.86) rotate(-150)"/><rect class="cls-38" x="67.73" y="116.32" width="12.08" height="0.62" transform="matrix(0.87, -0.5, 0.5, 0.87, -48.43, 52.51)"/><rect class="cls-39" x="67.73" y="116.32" width="12.08" height="0.62" transform="translate(79.34 254.51) rotate(-150)"/><rect class="cls-40" x="67.47" y="123.25" width="12.08" height="0.62" transform="matrix(0.87, -0.5, 0.5, 0.87, -51.93, 53.31)"/><rect class="cls-41" x="67.47" y="123.25" width="12.08" height="0.62" transform="translate(75.4 267.31) rotate(-150)"/><rect class="cls-42" x="67.73" y="129.62" width="12.08" height="0.62" transform="matrix(0.87, -0.5, 0.5, 0.87, -55.08, 54.29)"/><rect class="cls-43" x="67.73" y="129.62" width="12.08" height="0.62" transform="translate(72.69 279.34) rotate(-150)"/><rect class="cls-44" x="67.47" y="23.02" width="12.08" height="1.51"/><rect class="cls-45" x="67.47" y="29.9" width="12.08" height="1.51"/><rect class="cls-46" x="67.47" y="36.78" width="12.08" height="1.51"/><rect class="cls-47" x="67.47" y="43.65" width="12.08" height="1.51"/><rect class="cls-48" x="67.47" y="50.53" width="12.08" height="1.51"/><rect class="cls-49" x="67.47" y="57.41" width="12.08" height="1.51"/><rect class="cls-50" x="67.47" y="64.29" width="12.08" height="1.51"/><rect class="cls-51" x="67.47" y="71.17" width="12.08" height="1.51"/><rect class="cls-52" x="67.47" y="78.05" width="12.08" height="1.51"/><rect class="cls-53" x="67.47" y="84.93" width="12.08" height="1.51"/><rect class="cls-54" x="67.47" y="91.81" width="12.08" height="1.51"/><rect class="cls-55" x="67.47" y="98.69" width="12.08" height="1.51"/><rect class="cls-56" x="67.47" y="105.57" width="12.08" height="1.51"/><rect class="cls-57" x="67.47" y="112.45" width="12.08" height="1.51"/><rect class="cls-58" x="67.47" y="119.33" width="12.08" height="1.51"/><rect class="cls-59" x="67.47" y="126.21" width="12.08" height="1.51"/><rect class="cls-60" x="67.47" y="131.58" width="12.08" height="1.51"/><rect class="cls-61" x="67.47" y="16.39" width="12.08" height="1.3"/><rect class="cls-62" x="131.36" y="66.03" width="19.85" height="16.39" transform="translate(215.51 -67.06) rotate(90)"/><rect class="cls-5" x="73.67" y="10.91" width="1.8" height="116.35" transform="translate(143.65 -5.49) rotate(90)"/><rect class="cls-5" x="74.01" y="21.28" width="1.8" height="116.35" transform="translate(154.36 4.54) rotate(90)"/><rect class="cls-63" x="132.73" y="67.36" width="16.5" height="13.72" transform="translate(215.2 -66.75) rotate(90)"/><rect class="cls-64" x="-1.73" y="66.43" width="19.85" height="16.39" transform="translate(82.82 66.43) rotate(90)"/><rect class="cls-65" x="-0.55" y="67.76" width="16.5" height="13.72" transform="translate(82.33 66.92) rotate(90)"/><rect class="cls-66" x="122.99" y="74.04" width="12.08" height="0.62" transform="translate(128.9 -74.57) rotate(60)"/><rect class="cls-67" x="122.99" y="74.04" width="12.08" height="0.62" transform="translate(0.13 148.92) rotate(-60)"/><rect class="cls-68" x="116.15" y="73.91" width="12.08" height="0.62" transform="translate(125.38 -68.71) rotate(60)"/><rect class="cls-69" x="116.15" y="73.91" width="12.08" height="0.62" transform="translate(-3.18 142.93) rotate(-60)"/><rect class="cls-70" x="109.5" y="74.04" width="12.08" height="0.62" transform="translate(122.16 -62.89) rotate(60)"/><rect class="cls-71" x="109.5" y="74.04" width="12.08" height="0.62" transform="translate(-6.62 137.24) rotate(-60)"/><rect class="cls-72" x="102.62" y="74.04" width="12.08" height="0.62" transform="translate(118.72 -56.93) rotate(60)"/><rect class="cls-73" x="102.62" y="74.04" width="12.08" height="0.62" transform="translate(-10.06 131.28) rotate(-60)"/><rect class="cls-74" x="95.53" y="74.15" width="12.08" height="0.62" transform="translate(115.27 -50.74) rotate(60)"/><rect class="cls-75" x="95.53" y="74.15" width="12.08" height="0.62" transform="translate(-13.69 125.19) rotate(-60)"/><rect class="cls-76" x="88.76" y="74.04" width="12.08" height="0.62" transform="translate(111.79 -44.92) rotate(60)"/><rect class="cls-77" x="88.76" y="74.04" width="12.08" height="0.62" transform="translate(-16.99 119.27) rotate(-60)"/><rect class="cls-78" x="81.99" y="73.91" width="12.08" height="0.62" transform="translate(108.29 -39.12) rotate(60)"/><rect class="cls-79" x="81.99" y="73.91" width="12.08" height="0.62" transform="translate(-20.27 113.34) rotate(-60)"/><rect class="cls-80" x="74.85" y="74.04" width="12.08" height="0.62" transform="translate(104.83 -32.88) rotate(60)"/><rect class="cls-81" x="74.85" y="74.04" width="12.08" height="0.62" transform="translate(-23.95 107.23) rotate(-60)"/><rect class="cls-82" x="68.12" y="74.04" width="12.08" height="0.62" transform="translate(101.47 -27.05) rotate(60)"/><rect class="cls-83" x="68.12" y="74.04" width="12.08" height="0.62" transform="translate(-27.31 101.4) rotate(-60)"/><rect class="cls-84" x="61.35" y="74.04" width="12.08" height="0.62" transform="translate(98.08 -21.18) rotate(60)"/><rect class="cls-85" x="61.35" y="74.04" width="12.08" height="0.62" transform="translate(-30.7 95.53) rotate(-60)"/><rect class="cls-86" x="54.34" y="74.04" width="12.08" height="0.62" transform="translate(94.58 -15.12) rotate(60)"/><rect class="cls-87" x="54.34" y="74.04" width="12.08" height="0.62" transform="translate(-34.2 89.47) rotate(-60)"/><rect class="cls-88" x="47.59" y="74.04" width="12.08" height="0.62" transform="translate(91.2 -9.27) rotate(60)"/><rect class="cls-89" x="47.59" y="74.04" width="12.08" height="0.62" transform="translate(-37.57 83.62) rotate(-60)"/><rect class="cls-90" x="40.58" y="74.04" width="12.08" height="0.62" transform="translate(87.7 -3.2) rotate(60)"/><rect class="cls-91" x="40.58" y="74.04" width="12.08" height="0.62" transform="translate(-41.08 77.55) rotate(-60)"/><rect class="cls-92" x="33.53" y="73.91" width="12.08" height="0.62" transform="translate(84.06 2.84) rotate(60)"/><rect class="cls-93" x="33.53" y="73.91" width="12.08" height="0.62" transform="translate(-44.5 71.38) rotate(-60)"/><rect class="cls-94" x="26.81" y="74.17" width="12.08" height="0.62" transform="translate(80.93 8.79) rotate(60)"/><rect class="cls-95" x="26.81" y="74.17" width="12.08" height="0.62" transform="translate(-48.07 65.69) rotate(-60)"/><rect class="cls-96" x="19.89" y="73.91" width="12.08" height="0.62" transform="translate(77.24 14.66) rotate(60)"/><rect class="cls-97" x="19.89" y="73.91" width="12.08" height="0.62" transform="translate(-51.32 59.56) rotate(-60)"/><rect class="cls-98" x="13.51" y="74.17" width="12.08" height="0.62" transform="translate(74.27 20.31) rotate(60)"/><rect class="cls-99" x="13.51" y="74.17" width="12.08" height="0.62" transform="translate(-54.73 54.17) rotate(-60)"/><rect class="cls-100" x="119.67" y="73.47" width="12.08" height="1.51" transform="translate(199.93 -51.49) rotate(90)"/><rect class="cls-101" x="112.79" y="73.47" width="12.08" height="1.51" transform="translate(193.05 -44.61) rotate(90)"/><rect class="cls-102" x="105.91" y="73.47" width="12.08" height="1.51" transform="translate(186.18 -37.73) rotate(90)"/><rect class="cls-103" x="99.03" y="73.47" width="12.08" height="1.51" transform="translate(179.3 -30.85) rotate(90)"/><rect class="cls-104" x="92.15" y="73.47" width="12.08" height="1.51" transform="translate(172.42 -23.97) rotate(90)"/><rect class="cls-105" x="85.27" y="73.47" width="12.08" height="1.51" transform="translate(165.54 -17.09) rotate(90)"/><rect class="cls-106" x="78.39" y="73.47" width="12.08" height="1.51" transform="translate(158.66 -10.21) rotate(90)"/><rect class="cls-107" x="71.51" y="73.47" width="12.08" height="1.51" transform="translate(151.78 -3.33) rotate(90)"/><rect class="cls-108" x="64.64" y="73.47" width="12.08" height="1.51" transform="translate(144.9 3.55) rotate(90)"/><rect class="cls-109" x="57.76" y="73.47" width="12.08" height="1.51" transform="translate(138.02 10.43) rotate(90)"/><rect class="cls-110" x="50.88" y="73.47" width="12.08" height="1.51" transform="translate(131.14 17.31) rotate(90)"/><rect class="cls-111" x="44" y="73.47" width="12.08" height="1.51" transform="translate(124.26 24.18) rotate(90)"/><rect class="cls-112" x="37.12" y="73.47" width="12.08" height="1.51" transform="translate(117.38 31.06) rotate(90)"/><rect class="cls-113" x="30.24" y="73.47" width="12.08" height="1.51" transform="translate(110.5 37.94) rotate(90)"/><rect class="cls-114" x="23.36" y="73.47" width="12.08" height="1.51" transform="translate(103.62 44.82) rotate(90)"/><rect class="cls-115" x="16.48" y="73.47" width="12.08" height="1.51" transform="translate(96.74 51.7) rotate(90)"/><rect class="cls-116" x="11.11" y="73.47" width="12.08" height="1.51" transform="translate(91.37 57.08) rotate(90)"/><rect class="cls-117" x="126.4" y="73.57" width="12.08" height="1.3" transform="translate(206.66 -58.21) rotate(90)"/></g></g></g></svg>