<svg xmlns="http://www.w3.org/2000/svg" xmlns:xlink="http://www.w3.org/1999/xlink" viewBox="0 0 94.06 150"><defs><style>.cls-1{fill:url(#未命名的渐变_184);}.cls-2{fill:url(#未命名的渐变_184-2);}.cls-3{fill:url(#未命名的渐变_184-3);}.cls-4{fill:url(#未命名的渐变_10);}.cls-5{fill:url(#未命名的渐变_5);}.cls-6{fill:url(#未命名的渐变_13);}.cls-7{fill:url(#未命名的渐变_13-2);}.cls-8{fill:url(#未命名的渐变_13-3);}.cls-9{fill:url(#未命名的渐变_11);}.cls-10{fill:#bec5cc;}.cls-11{fill:url(#未命名的渐变_24);}.cls-12{fill:url(#未命名的渐变_26);}.cls-13{fill:#cfd8e6;}.cls-14{fill:url(#未命名的渐变_32);}.cls-15{fill:url(#未命名的渐变_32-2);}.cls-16{opacity:0.2;}</style><linearGradient id="未命名的渐变_184" x1="47.08" y1="115.66" x2="47.08" y2="138.47" gradientUnits="userSpaceOnUse"><stop offset="0" stop-color="#767b82"/><stop offset="0.07" stop-color="#9ba1ab"/><stop offset="0.22" stop-color="#e2eaf2"/><stop offset="0.94" stop-color="#5d6166"/><stop offset="1" stop-color="#a9b1bb"/></linearGradient><linearGradient id="未命名的渐变_184-2" x1="86.82" y1="104.13" x2="86.82" y2="150" xlink:href="#未命名的渐变_184"/><linearGradient id="未命名的渐变_184-3" x1="7.24" y1="104.13" x2="7.24" y2="150" xlink:href="#未命名的渐变_184"/><linearGradient id="未命名的渐变_10" x1="37.78" y1="57.83" x2="55.7" y2="57.83" gradientUnits="userSpaceOnUse"><stop offset="0" stop-color="#7a8088"/><stop offset="0.09" stop-color="#2d2f33"/><stop offset="0.16" stop-color="#35373b"/><stop offset="0.27" stop-color="#4a4d51"/><stop offset="0.41" stop-color="#6d7176"/><stop offset="0.56" stop-color="#9da3a8"/><stop offset="0.62" stop-color="#b0b7bc"/><stop offset="0.93" stop-color="#6d7177"/><stop offset="1" stop-color="#5c6067"/></linearGradient><linearGradient id="未命名的渐变_5" x1="300.95" y1="-902.98" x2="300.95" y2="-928.26" gradientTransform="translate(-254.21 1017.09)" gradientUnits="userSpaceOnUse"><stop offset="0" stop-color="#676b70"/><stop offset="0.05" stop-color="#484b4d"/><stop offset="0.26" stop-color="#747980"/><stop offset="0.3" stop-color="#d1d5db"/><stop offset="0.44" stop-color="#cad1db"/><stop offset="0.7" stop-color="#c7cfdb"/><stop offset="0.73" stop-color="#edf5ff"/><stop offset="0.77" stop-color="#c3c7cc"/><stop offset="1" stop-color="#929599"/></linearGradient><linearGradient id="未命名的渐变_13" x1="280.53" y1="-902.98" x2="280.53" y2="-928.26" gradientTransform="translate(-233.79 996.67)" gradientUnits="userSpaceOnUse"><stop offset="0" stop-color="#a9b1bb"/><stop offset="0.06" stop-color="#5d6166"/><stop offset="0.78" stop-color="#e2eaf2"/><stop offset="0.93" stop-color="#9ba1ab"/><stop offset="1" stop-color="#767b82"/></linearGradient><linearGradient id="未命名的渐变_13-2" x1="34.1" y1="109.92" x2="59.38" y2="109.92" gradientTransform="matrix(1, 0, 0, 1, 0, 0)" xlink:href="#未命名的渐变_13"/><linearGradient id="未命名的渐变_13-3" x1="34.1" y1="92.82" x2="59.38" y2="92.82" gradientTransform="matrix(1, 0, 0, 1, 0, 0)" xlink:href="#未命名的渐变_13"/><linearGradient id="未命名的渐变_11" x1="46.74" y1="80.13" x2="46.74" y2="6.03" gradientUnits="userSpaceOnUse"><stop offset="0" stop-color="#5c6066"/><stop offset="1" stop-color="#f5faff"/></linearGradient><linearGradient id="未命名的渐变_24" x1="35.22" y1="43.08" x2="35.22" y2="34.78" gradientUnits="userSpaceOnUse"><stop offset="0" stop-color="#8a9099"/><stop offset="1" stop-color="#f5faff"/></linearGradient><linearGradient id="未命名的渐变_26" x1="35.22" y1="43.08" x2="35.22" y2="34.78" gradientUnits="userSpaceOnUse"><stop offset="0" stop-color="#5c6066"/><stop offset="1" stop-color="#d7dce0"/></linearGradient><linearGradient id="未命名的渐变_32" x1="54.28" y1="18.09" x2="55.79" y2="12.46" gradientUnits="userSpaceOnUse"><stop offset="0" stop-color="#5c6066"/><stop offset="1" stop-color="#f5faff" stop-opacity="0"/></linearGradient><linearGradient id="未命名的渐变_32-2" x1="39.21" y1="74.35" x2="40.71" y2="68.72" xlink:href="#未命名的渐变_32"/></defs><title>Tubing meter 2(油管流量计2)</title><g id="图层_2" data-name="图层 2"><g id="图层_16" data-name="图层 16"><g id="Tubing_meter_2_油管流量计2_" data-name="Tubing meter 2(油管流量计2)"><rect class="cls-1" x="14.48" y="115.66" width="65.18" height="22.81"/><rect class="cls-2" x="79.58" y="104.13" width="14.48" height="45.87"/><rect class="cls-3" y="104.13" width="14.48" height="45.87"/><rect class="cls-4" x="37.78" width="17.92" height="115.66"/><rect class="cls-5" x="42.69" y="88.83" width="8.1" height="25.28" transform="translate(148.21 54.74) rotate(90)"/><rect class="cls-6" x="39.65" y="68.41" width="14.18" height="25.28" transform="translate(127.79 34.31) rotate(90)"/><rect class="cls-7" x="34.1" y="108.17" width="25.28" height="3.51"/><rect class="cls-8" x="34.1" y="91.07" width="25.28" height="3.51"/><path class="cls-9" d="M83.67,40.1A37,37,0,0,0,50.06,6.19,33.1,33.1,0,0,0,46.74,6c-.9,0-1.78,0-2.65.1a37,37,0,0,0-34.28,34c-.08,1-.12,2-.12,3s0,2,.12,3A37,37,0,0,0,44.09,80c.87.06,1.75.1,2.65.1,1.12,0,2.23,0,3.32-.14A37.07,37.07,0,0,0,83.67,46.05c.09-1,.12-2,.12-3S83.76,41.08,83.67,40.1Z"/><path class="cls-10" d="M81.74,40.26A35.1,35.1,0,0,0,49.88,8.12,29.61,29.61,0,0,0,46.74,8c-.85,0-1.68,0-2.51.09a35.11,35.11,0,0,0-32.48,32.2c-.08.93-.12,1.88-.12,2.83s0,1.88.12,2.81A35.09,35.09,0,0,0,44.23,78.1c.83.06,1.66.09,2.51.09,1.06,0,2.11,0,3.14-.14A35.12,35.12,0,0,0,81.74,45.9c.08-.93.12-1.87.12-2.81S81.82,41.19,81.74,40.26Z"/><path class="cls-11" d="M39.36,38.6a4.14,4.14,0,0,0-3.76-3.8,2.42,2.42,0,0,0-.38,0h-.29a4.14,4.14,0,0,0-3.84,3.81c0,.11,0,.22,0,.33s0,.22,0,.33a4.14,4.14,0,0,0,3.84,3.81h.29l.38,0a4.15,4.15,0,0,0,3.76-3.8c0-.11,0-.22,0-.33S39.37,38.71,39.36,38.6Z"/><path class="cls-12" d="M35.22,34.94l.36,0a4,4,0,0,1,3.62,3.65c0,.1,0,.21,0,.32s0,.21,0,.32a4,4,0,0,1-3.62,3.65h-.64a4,4,0,0,1-3.69-3.65c0-.11,0-.21,0-.32s0-.22,0-.32A4,4,0,0,1,34.94,35h.28m0-.16h-.29a4.14,4.14,0,0,0-3.84,3.81c0,.11,0,.22,0,.33s0,.22,0,.33a4.14,4.14,0,0,0,3.84,3.81h.29l.38,0a4.15,4.15,0,0,0,3.76-3.8c0-.11,0-.22,0-.33s0-.22,0-.33a4.14,4.14,0,0,0-3.76-3.8,2.42,2.42,0,0,0-.38,0Z"/><rect class="cls-13" x="52.12" y="9.04" width="5.83" height="12.48" transform="translate(26.03 64.48) rotate(-75)"/><path class="cls-14" d="M49.88,11.05,61.61,14.2l-1.42,5.31L48.45,16.36l1.43-5.31m-.12-.2-1.51,5.63,12.06,3.23,1.51-5.63L49.76,10.85Z"/><rect class="cls-13" x="37.05" y="65.29" width="5.83" height="12.48" transform="translate(-39.48 91.62) rotate(-75)"/><path class="cls-15" d="M34.8,67.31l11.74,3.14-1.42,5.31L33.38,72.62l1.42-5.31m-.12-.2-1.5,5.62,12,3.24,1.51-5.63L34.68,67.11Z"/></g></g></g></svg>