<svg xmlns="http://www.w3.org/2000/svg" xmlns:xlink="http://www.w3.org/1999/xlink" viewBox="0 0 130.15 150"><defs><style>.cls-1{fill:url(#未命名的渐变_55);}.cls-2{fill:url(#未命名的渐变_53);}.cls-3{fill:url(#未命名的渐变_53-2);}.cls-4{fill:url(#未命名的渐变_184);}.cls-5{fill:url(#未命名的渐变_184-2);}.cls-6{fill:url(#未命名的渐变_184-3);}.cls-7{fill:url(#未命名的渐变_33);}.cls-8{fill:url(#未命名的渐变_184-4);}.cls-9{fill:url(#未命名的渐变_184-5);}.cls-10{fill:url(#未命名的渐变_184-6);}.cls-11{fill:url(#未命名的渐变_184-7);}.cls-12{fill:url(#未命名的渐变_184-8);}.cls-13{opacity:0.5;}.cls-14{opacity:0.2;}</style><linearGradient id="未命名的渐变_55" x1="-41.12" y1="-730.64" x2="-19.21" y2="-738.66" gradientTransform="matrix(1, 0, 0, -2.73, 94.01, -1997.83)" gradientUnits="userSpaceOnUse"><stop offset="0" stop-color="#c3c7cc"/><stop offset="1" stop-color="#8a9099"/></linearGradient><linearGradient id="未命名的渐变_53" x1="-30.72" y1="-739.83" x2="-19.53" y2="-743.92" gradientTransform="matrix(0, 1, 2.73, 0, 2071.6, 40.1)" gradientUnits="userSpaceOnUse"><stop offset="0" stop-color="#929599"/><stop offset="1" stop-color="#5c6066"/></linearGradient><linearGradient id="未命名的渐变_53-2" x1="-30.72" y1="-729.99" x2="-19.53" y2="-734.08" gradientTransform="matrix(0, 1, -2.73, 0, -1917.01, 40.1)" xlink:href="#未命名的渐变_53"/><linearGradient id="未命名的渐变_184" x1="122.55" y1="63.76" x2="122.55" y2="150" gradientUnits="userSpaceOnUse"><stop offset="0" stop-color="#767b82"/><stop offset="0.07" stop-color="#9ba1ab"/><stop offset="0.22" stop-color="#e2eaf2"/><stop offset="0.94" stop-color="#5d6166"/><stop offset="1" stop-color="#a9b1bb"/></linearGradient><linearGradient id="未命名的渐变_184-2" x1="7.6" y1="63.76" x2="7.6" xlink:href="#未命名的渐变_184"/><linearGradient id="未命名的渐变_184-3" x1="65.08" y1="78.67" x2="65.08" y2="135.09" xlink:href="#未命名的渐变_184"/><linearGradient id="未命名的渐变_33" x1="85.88" y1="71.06" x2="85.88" y2="127.48" gradientTransform="translate(-20.81 -24.22)" gradientUnits="userSpaceOnUse"><stop offset="0" stop-color="#a9b1bb"/><stop offset="0.06" stop-color="#5d6166"/><stop offset="0.78" stop-color="#e2eaf2"/><stop offset="0.93" stop-color="#9ba1ab"/><stop offset="1" stop-color="#767b82"/></linearGradient><linearGradient id="未命名的渐变_184-4" x1="27.56" y1="17.32" x2="33.21" y2="17.32" xlink:href="#未命名的渐变_184"/><linearGradient id="未命名的渐变_184-5" x1="94.52" y1="17.32" x2="100.17" y2="17.32" xlink:href="#未命名的渐变_184"/><linearGradient id="未命名的渐变_184-6" x1="72.2" y1="17.32" x2="77.85" y2="17.32" xlink:href="#未命名的渐变_184"/><linearGradient id="未命名的渐变_184-7" x1="49.88" y1="17.32" x2="55.53" y2="17.32" xlink:href="#未命名的渐变_184"/><linearGradient id="未命名的渐变_184-8" x1="23.33" y1="33.69" x2="104.36" y2="33.69" xlink:href="#未命名的渐变_184"/></defs><title>Tubing meter 3(油管流量计3)</title><g id="图层_2" data-name="图层 2"><g id="图层_16" data-name="图层 16"><g id="Tubing_meter_3_油管流量计3_" data-name="Tubing meter 3(油管流量计3)"><rect class="cls-1" x="53.92" y="-8.7" width="19.86" height="37.25" transform="translate(73.77 -53.92) rotate(90)"/><polygon class="cls-2" points="45.22 19.86 45.22 8.77 33.22 19.86 45.22 19.86"/><polygon class="cls-3" points="82.47 19.86 82.47 8.77 94.47 19.86 82.47 19.86"/><rect class="cls-4" x="114.95" y="63.76" width="15.2" height="86.24"/><rect class="cls-5" y="63.76" width="15.2" height="86.24"/><rect class="cls-6" x="15.2" y="78.67" width="99.75" height="56.42"/><path class="cls-7" d="M61.46,46.85H96.9a0,0,0,0,1,0,0v56.42a0,0,0,0,1,0,0H61.46A28.21,28.21,0,0,1,33.25,75.06v0A28.21,28.21,0,0,1,61.46,46.85Z" transform="translate(-9.98 140.13) rotate(-90)"/><rect class="cls-8" x="27.56" y="14.49" width="5.65" height="5.65"/><rect class="cls-9" x="94.52" y="14.49" width="5.65" height="5.65"/><rect class="cls-10" x="72.2" y="14.49" width="5.65" height="5.65"/><rect class="cls-11" x="49.88" y="14.49" width="5.65" height="5.65"/><rect class="cls-12" x="23.33" y="19.86" width="81.04" height="27.67"/></g></g></g></svg>