<svg xmlns="http://www.w3.org/2000/svg" xmlns:xlink="http://www.w3.org/1999/xlink" viewBox="0 0 80.05 150"><defs><style>.cls-1{fill:url(#未命名的渐变_20);}.cls-2{fill:url(#未命名的渐变_20-2);}.cls-3{fill:url(#未命名的渐变_20-3);}.cls-4{fill:url(#未命名的渐变_10);}.cls-5{fill:url(#未命名的渐变_10-2);}.cls-6{fill:url(#未命名的渐变_59);}.cls-7{fill:url(#未命名的渐变_59-2);}.cls-8{fill:url(#未命名的渐变_59-3);}.cls-9{fill:url(#未命名的渐变_19);}.cls-10{fill:url(#未命名的渐变_5);}.cls-11{fill:url(#未命名的渐变_5-2);}.cls-12{fill:url(#未命名的渐变_13);}.cls-13,.cls-24{fill:#fff;}.cls-13{opacity:0.6;}.cls-14{fill:url(#未命名的渐变_13-2);}.cls-15{fill:url(#未命名的渐变_323);}.cls-16{fill:url(#未命名的渐变_241);}.cls-17{fill:#a3b372;}.cls-18{fill:#646e46;}.cls-19,.cls-21,.cls-22,.cls-23{stroke:#505458;stroke-miterlimit:10;stroke-width:0.11px;}.cls-19{fill:url(#未命名的渐变_303);}.cls-20{fill:#505458;}.cls-21{fill:url(#未命名的渐变_303-2);}.cls-22{fill:url(#未命名的渐变_303-3);}.cls-23{fill:url(#未命名的渐变_303-4);}.cls-24{opacity:0.1;}.cls-25{opacity:0.2;}</style><linearGradient id="未命名的渐变_20" x1="40.06" y1="120.77" x2="40.06" y2="140.19" gradientUnits="userSpaceOnUse"><stop offset="0" stop-color="#767b82"/><stop offset="0.07" stop-color="#9ba1ab"/><stop offset="0.22" stop-color="#e2eaf2"/><stop offset="0.94" stop-color="#5d6166"/><stop offset="1" stop-color="#a9b1bb"/></linearGradient><linearGradient id="未命名的渐变_20-2" x1="73.89" y1="110.96" x2="73.89" y2="150" xlink:href="#未命名的渐变_20"/><linearGradient id="未命名的渐变_20-3" x1="6.16" y1="110.96" x2="6.16" y2="150" xlink:href="#未命名的渐变_20"/><linearGradient id="未命名的渐变_10" x1="32.15" y1="90.34" x2="47.4" y2="90.34" gradientUnits="userSpaceOnUse"><stop offset="0" stop-color="#7a8088"/><stop offset="0.09" stop-color="#2d2f33"/><stop offset="0.16" stop-color="#35373b"/><stop offset="0.27" stop-color="#4a4d51"/><stop offset="0.41" stop-color="#6d7176"/><stop offset="0.56" stop-color="#9da3a8"/><stop offset="0.62" stop-color="#b0b7bc"/><stop offset="0.93" stop-color="#6d7177"/><stop offset="1" stop-color="#5c6067"/></linearGradient><linearGradient id="未命名的渐变_10-2" x1="30.63" y1="66.82" x2="48.93" y2="66.82" xlink:href="#未命名的渐变_10"/><linearGradient id="未命名的渐变_59" x1="52.78" y1="-2.44" x2="26.78" y2="23.56" gradientUnits="userSpaceOnUse"><stop offset="0" stop-color="#d7dce0"/><stop offset="1" stop-color="#8a9099"/></linearGradient><linearGradient id="未命名的渐变_59-2" x1="69.55" y1="2.26" x2="52.95" y2="18.87" xlink:href="#未命名的渐变_59"/><linearGradient id="未命名的渐变_59-3" x1="-376.67" y1="2.26" x2="-393.27" y2="18.87" gradientTransform="matrix(-1, 0, 0, 1, -366.6, 0)" xlink:href="#未命名的渐变_59"/><linearGradient id="未命名的渐变_19" x1="43.53" y1="35.29" x2="31.15" y2="22.9" gradientUnits="userSpaceOnUse"><stop offset="0" stop-color="#e6f1ff" stop-opacity="0"/><stop offset="0.26" stop-color="#e6f1ff" stop-opacity="0.01"/><stop offset="0.4" stop-color="#e6f1ff" stop-opacity="0.04"/><stop offset="0.51" stop-color="#e7f1ff" stop-opacity="0.09"/><stop offset="0.6" stop-color="#e7f2ff" stop-opacity="0.17"/><stop offset="0.69" stop-color="#e8f2ff" stop-opacity="0.26"/><stop offset="0.76" stop-color="#e9f2ff" stop-opacity="0.38"/><stop offset="0.83" stop-color="#eaf3ff" stop-opacity="0.53"/><stop offset="0.9" stop-color="#ecf3ff" stop-opacity="0.69"/><stop offset="0.96" stop-color="#edf4ff" stop-opacity="0.87"/><stop offset="1" stop-color="#eef4ff"/></linearGradient><linearGradient id="未命名的渐变_5" x1="501.18" y1="-704.9" x2="501.18" y2="-726.42" gradientTransform="translate(-461.4 824.36)" gradientUnits="userSpaceOnUse"><stop offset="0" stop-color="#676b70"/><stop offset="0.05" stop-color="#484b4d"/><stop offset="0.26" stop-color="#747980"/><stop offset="0.3" stop-color="#d1d5db"/><stop offset="0.44" stop-color="#cad1db"/><stop offset="0.7" stop-color="#c7cfdb"/><stop offset="0.73" stop-color="#edf5ff"/><stop offset="0.77" stop-color="#c3c7cc"/><stop offset="1" stop-color="#929599"/></linearGradient><linearGradient id="未命名的渐变_5-2" x1="475.09" y1="-704.9" x2="475.09" y2="-726.42" gradientTransform="translate(-435.31 798.27)" xlink:href="#未命名的渐变_5"/><linearGradient id="未命名的渐变_13" x1="29.02" y1="115.89" x2="50.53" y2="115.89" gradientUnits="userSpaceOnUse"><stop offset="0" stop-color="#a9b1bb"/><stop offset="0.06" stop-color="#5d6166"/><stop offset="0.78" stop-color="#e2eaf2"/><stop offset="0.93" stop-color="#9ba1ab"/><stop offset="1" stop-color="#767b82"/></linearGradient><linearGradient id="未命名的渐变_13-2" x1="29.02" y1="101.34" x2="50.53" y2="101.34" xlink:href="#未命名的渐变_13"/><linearGradient id="未命名的渐变_323" x1="39.78" y1="63.06" x2="39.78" gradientUnits="userSpaceOnUse"><stop offset="0" stop-color="#5c6066"/><stop offset="1" stop-color="#f5faff"/></linearGradient><linearGradient id="未命名的渐变_241" x1="39.78" y1="54.43" x2="39.78" y2="8.63" gradientUnits="userSpaceOnUse"><stop offset="0" stop-color="#494a4d"/><stop offset="1" stop-color="#17181a"/></linearGradient><linearGradient id="未命名的渐变_303" x1="1314.18" y1="-551.63" x2="1314.18" y2="-549.5" gradientTransform="translate(-1307.79 -508.62) rotate(45)" gradientUnits="userSpaceOnUse"><stop offset="0" stop-color="#9ba1ab"/><stop offset="0" stop-color="#abb1ba"/><stop offset="0.09" stop-color="#abb1ba"/><stop offset="0.46" stop-color="#f5faff"/><stop offset="1" stop-color="#a9b1bb"/></linearGradient><linearGradient id="未命名的渐变_303-2" x1="1355.58" y1="-593.04" x2="1355.58" y2="-590.91" xlink:href="#未命名的渐变_303"/><linearGradient id="未命名的渐变_303-3" x1="1314.18" y1="-551.63" x2="1314.18" y2="-549.5" gradientTransform="translate(-499.89 1379.19) rotate(-45)" xlink:href="#未命名的渐变_303"/><linearGradient id="未命名的渐变_303-4" x1="1355.58" y1="-593.04" x2="1355.58" y2="-590.91" gradientTransform="translate(-499.89 1379.19) rotate(-45)" xlink:href="#未命名的渐变_303"/></defs><title>Tubing meter 1(油管流量计1)</title><g id="图层_2" data-name="图层 2"><g id="图层_16" data-name="图层 16"><g id="Tubing_meter_1_油管流量计1_" data-name="Tubing meter 1(油管流量计1)"><rect class="cls-1" x="12.33" y="120.77" width="55.47" height="19.41"/><rect class="cls-2" x="67.72" y="110.96" width="12.33" height="39.04"/><rect class="cls-3" y="110.96" width="12.33" height="39.04"/><rect class="cls-4" x="32.15" y="59.91" width="15.25" height="60.86"/><rect class="cls-5" x="30.63" y="65.77" width="18.3" height="2.1"/><rect class="cls-6" x="24.34" width="30.87" height="21.13"/><polygon class="cls-7" points="67.29 21.13 55.21 21.13 55.21 0 69.34 2.06 69.34 17.03 67.29 21.13"/><polygon class="cls-8" points="12.33 21.13 24.4 21.13 24.4 0 10.27 2.06 10.27 17.03 12.33 21.13"/><polygon class="cls-9" points="27.39 36.41 27.39 26.66 52.16 26.66 27.39 36.41"/><rect class="cls-10" x="36.33" y="97.95" width="6.89" height="21.52" transform="translate(148.48 68.93) rotate(90)"/><rect class="cls-11" x="25.04" y="71.85" width="29.48" height="21.52" transform="translate(122.39 42.83) rotate(90)"/><rect class="cls-12" x="29.02" y="114.4" width="21.52" height="2.99"/><polygon class="cls-13" points="69.34 7.05 55.21 7.05 55.21 4.04 69.34 5.07 69.34 7.05"/><polygon class="cls-13" points="24.4 7.05 10.27 7.05 10.27 5.07 24.4 4.04 24.4 7.05"/><rect class="cls-14" x="29.02" y="99.84" width="21.52" height="2.99"/><path class="cls-15" d="M71.21,29A31.53,31.53,0,0,0,42.6.13C41.68,0,40.73,0,39.78,0,39,0,38.27,0,37.53.08A31.54,31.54,0,0,0,8.35,29c-.07.83-.1,1.68-.1,2.54s0,1.69.1,2.52A31.52,31.52,0,0,0,37.53,63c.74.05,1.49.08,2.25.08.95,0,1.9,0,2.82-.12A31.55,31.55,0,0,0,71.21,34.06c.07-.83.1-1.67.1-2.52S71.28,29.83,71.21,29ZM39.78,54.43a22.9,22.9,0,1,1,22.9-22.89A22.92,22.92,0,0,1,39.78,54.43Z"/><path class="cls-13" d="M71.31,31.54c0,.85,0,1.69-.1,2.52H66.33a26.73,26.73,0,0,1-23.73,24v4.89c-.92.08-1.87.12-2.82.12-.76,0-1.51,0-2.25-.08V58.1a26.73,26.73,0,0,1-24.3-24H8.35c-.07-.83-.1-1.67-.1-2.52s0-1.71.1-2.54h4.88A26.72,26.72,0,0,1,37.53,5V.08C38.27,0,39,0,39.78,0c.95,0,1.9,0,2.82.13V5A26.75,26.75,0,0,1,66.33,29h4.88C71.28,29.83,71.31,30.68,71.31,31.54Z"/><path class="cls-16" d="M62.68,31.54A22.9,22.9,0,1,1,39.78,8.63,22.93,22.93,0,0,1,62.68,31.54Z"/><rect class="cls-17" x="27.11" y="26.38" width="25.33" height="10.31"/><path class="cls-18" d="M52.16,26.66v9.75H27.39V26.66H52.16m.56-.56H26.83V37H52.72V26.1Z"/><circle class="cls-19" cx="10.79" cy="31.33" r="1.07"/><path class="cls-20" d="M10.39,30.82l.41.41.42-.41.08.09-.41.41.41.41-.07.08-.41-.42-.46.46-.09-.09.46-.45-.42-.42Z"/><circle class="cls-21" cx="69.34" cy="31.33" r="1.07"/><path class="cls-20" d="M68.94,30.82l.42.41.41-.41.09.09-.42.41.42.41-.08.08-.41-.42-.46.46-.08-.09.45-.45-.41-.42Z"/><circle class="cls-22" cx="40.06" cy="60.61" r="1.07"/><path class="cls-20" d="M39.55,61,40,60.6l-.41-.42.09-.09.41.42.41-.42.08.08-.42.41.46.46-.09.09L40,60.67l-.42.41Z"/><circle class="cls-23" cx="40.06" cy="2.06" r="1.07"/><path class="cls-20" d="M39.55,2.46,40,2l-.41-.41.09-.09.41.41.41-.41.08.08L40.12,2l.46.45-.09.09L40,2.12l-.42.41Z"/><path class="cls-24" d="M56,15.39c-.31.69-.62,1.37-1,2.05A62.93,62.93,0,0,1,25.69,46.82c-.51.26-1,.51-1.57.74l-.47.22A22.9,22.9,0,1,1,56,15.39Z"/><path class="cls-24" d="M55.08,17.44A62.93,62.93,0,0,1,25.69,46.82c-8.14-8.65-8.4-21.88-.45-29.83S46.43,9.29,55.08,17.44Z"/></g></g></g></svg>