<svg xmlns="http://www.w3.org/2000/svg" xmlns:xlink="http://www.w3.org/1999/xlink" viewBox="0 0 150 150"><defs><style>.cls-1{fill:#222326;}.cls-2{fill:url(#未命名的渐变_20);}.cls-3{fill:url(#未命名的渐变_20-2);}.cls-4{fill:#27282a;}.cls-5{fill:#6c7076;}.cls-6{fill:url(#未命名的渐变_13);}.cls-7{fill:url(#未命名的渐变_30);}.cls-8{fill:url(#未命名的渐变_13-2);}.cls-9{fill:url(#未命名的渐变_30-2);}.cls-10{fill:url(#未命名的渐变_20-3);}.cls-11{fill:url(#未命名的渐变_13-3);}.cls-12{fill:url(#未命名的渐变_30-3);}.cls-13{fill:url(#未命名的渐变_13-4);}.cls-14{fill:url(#未命名的渐变_30-4);}.cls-15{fill:url(#未命名的渐变_13-5);}.cls-16{fill:url(#未命名的渐变_12);}.cls-17{fill:url(#未命名的渐变_5);}.cls-18{fill:url(#未命名的渐变_13-6);}.cls-19{fill:url(#未命名的渐变_12-2);}.cls-20{fill:url(#未命名的渐变_13-7);}.cls-21{fill:url(#未命名的渐变_10);}.cls-22{fill:url(#未命名的渐变_10-2);}.cls-23{fill:url(#未命名的渐变_10-3);}.cls-24{fill:url(#未命名的渐变_10-4);}.cls-25{fill:url(#未命名的渐变_10-5);}.cls-26{fill:url(#未命名的渐变_13-8);}.cls-27{fill:url(#未命名的渐变_30-5);}.cls-28{fill:url(#未命名的渐变_30-6);}.cls-29{fill:url(#未命名的渐变_241);}.cls-30{fill:url(#未命名的渐变_323);}.cls-31{fill:#a3b372;}.cls-32{fill:#646e46;}.cls-33{fill:#fff;opacity:0.1;}.cls-34{opacity:0.2;}</style><linearGradient id="未命名的渐变_20" x1="4.2" y1="110.76" x2="4.2" y2="150" gradientUnits="userSpaceOnUse"><stop offset="0" stop-color="#767b82"/><stop offset="0.07" stop-color="#9ba1ab"/><stop offset="0.22" stop-color="#e2eaf2"/><stop offset="0.94" stop-color="#5d6166"/><stop offset="1" stop-color="#a9b1bb"/></linearGradient><linearGradient id="未命名的渐变_20-2" x1="75" y1="120.93" x2="75" y2="139.83" xlink:href="#未命名的渐变_20"/><linearGradient id="未命名的渐变_13" x1="39.69" y1="45.03" x2="63.81" y2="45.03" gradientTransform="translate(23.68 -5.83) scale(0.46 0.57)" gradientUnits="userSpaceOnUse"><stop offset="0" stop-color="#a9b1bb"/><stop offset="0.06" stop-color="#5d6166"/><stop offset="0.78" stop-color="#e2eaf2"/><stop offset="0.93" stop-color="#9ba1ab"/><stop offset="1" stop-color="#767b82"/></linearGradient><linearGradient id="未命名的渐变_30" x1="39.03" y1="44.86" x2="63.15" y2="44.86" gradientTransform="translate(8.8 -10.25) scale(0.67 0.62)" gradientUnits="userSpaceOnUse"><stop offset="0" stop-color="#d7e1ee"/><stop offset="0.06" stop-color="#8b9199"/><stop offset="0.78" stop-color="#eef7ff"/><stop offset="0.93" stop-color="#c9d1de"/><stop offset="1" stop-color="#a4abb5"/></linearGradient><linearGradient id="未命名的渐变_13-2" x1="-179.33" y1="121.77" x2="-155.21" y2="121.77" gradientTransform="translate(112.45 68.64) scale(0.46 0.5)" xlink:href="#未命名的渐变_13"/><linearGradient id="未命名的渐变_30-2" x1="-112.54" y1="116.48" x2="-88.42" y2="116.48" gradientTransform="translate(97.84 55.79) scale(0.67 0.62)" xlink:href="#未命名的渐变_30"/><linearGradient id="未命名的渐变_20-3" x1="145.8" y1="110.76" x2="145.8" xlink:href="#未命名的渐变_20"/><linearGradient id="未命名的渐变_13-3" x1="-56.13" y1="-89.16" x2="-32.01" y2="-89.16" gradientTransform="matrix(0.46, 0, 0, -0.57, 122.84, -31.18)" xlink:href="#未命名的渐变_13"/><linearGradient id="未命名的渐变_30-3" x1="-27.28" y1="-80.34" x2="-3.16" y2="-80.34" gradientTransform="matrix(0.67, 0, 0, -0.62, 117.22, -32.1)" xlink:href="#未命名的渐变_30"/><linearGradient id="未命名的渐变_13-4" x1="-275.15" y1="-31.16" x2="-251.04" y2="-31.16" gradientTransform="matrix(0.46, 0, 0, -0.5, 237.51, 114.31)" xlink:href="#未命名的渐变_13"/><linearGradient id="未命名的渐变_30-4" x1="-178.85" y1="-8.72" x2="-154.73" y2="-8.72" gradientTransform="matrix(0.67, 0, 0, -0.62, 231.61, 122.14)" xlink:href="#未命名的渐变_30"/><linearGradient id="未命名的渐变_13-5" x1="-4.4" y1="68.38" x2="19.72" y2="68.38" gradientTransform="matrix(0.52, 0, 0, -0.44, 43.16, 78.23)" xlink:href="#未命名的渐变_13"/><linearGradient id="未命名的渐变_12" x1="97.04" y1="143.71" x2="97.04" y2="109.72" gradientUnits="userSpaceOnUse"><stop offset="0" stop-color="#7a8088"/><stop offset="0.09" stop-color="#2d2f33"/><stop offset="0.15" stop-color="#35373b"/><stop offset="0.25" stop-color="#4a4d51"/><stop offset="0.36" stop-color="#6d7176"/><stop offset="0.49" stop-color="#9da3a8"/><stop offset="0.54" stop-color="#b0b7bc"/><stop offset="0.93" stop-color="#6d7177"/><stop offset="1" stop-color="#5c6067"/></linearGradient><linearGradient id="未命名的渐变_5" x1="340.79" y1="290.18" x2="340.79" y2="269.23" gradientTransform="translate(-266.07 -171.02)" gradientUnits="userSpaceOnUse"><stop offset="0" stop-color="#676b70"/><stop offset="0.05" stop-color="#484b4d"/><stop offset="0.26" stop-color="#747980"/><stop offset="0.3" stop-color="#d1d5db"/><stop offset="0.44" stop-color="#cad1db"/><stop offset="0.7" stop-color="#c7cfdb"/><stop offset="0.73" stop-color="#edf5ff"/><stop offset="0.77" stop-color="#c3c7cc"/><stop offset="1" stop-color="#929599"/></linearGradient><linearGradient id="未命名的渐变_13-6" x1="61.7" y1="117.53" x2="87.74" y2="117.53" gradientTransform="matrix(1, 0, 0, 1, 0, 0)" xlink:href="#未命名的渐变_13"/><linearGradient id="未命名的渐变_12-2" x1="53.09" y1="143.71" x2="53.09" y2="109.72" xlink:href="#未命名的渐变_12"/><linearGradient id="未命名的渐变_13-7" x1="45.21" y1="119.8" x2="104.23" y2="119.8" gradientTransform="matrix(1, 0, 0, 1, 0, 0)" xlink:href="#未命名的渐变_13"/><linearGradient id="未命名的渐变_10" x1="48.69" y1="118.1" x2="57.49" y2="118.1" gradientUnits="userSpaceOnUse"><stop offset="0" stop-color="#7a8088"/><stop offset="0.09" stop-color="#2d2f33"/><stop offset="0.16" stop-color="#35373b"/><stop offset="0.27" stop-color="#4a4d51"/><stop offset="0.41" stop-color="#6d7176"/><stop offset="0.56" stop-color="#9da3a8"/><stop offset="0.62" stop-color="#b0b7bc"/><stop offset="0.93" stop-color="#6d7177"/><stop offset="1" stop-color="#5c6067"/></linearGradient><linearGradient id="未命名的渐变_10-2" x1="50.13" y1="116.16" x2="56.04" y2="116.16" xlink:href="#未命名的渐变_10"/><linearGradient id="未命名的渐变_10-3" x1="92.64" y1="118.1" x2="101.44" y2="118.1" xlink:href="#未命名的渐变_10"/><linearGradient id="未命名的渐变_10-4" x1="94.09" y1="116.16" x2="100" y2="116.16" xlink:href="#未命名的渐变_10"/><linearGradient id="未命名的渐变_10-5" x1="67.3" y1="88.96" x2="82.14" y2="88.96" xlink:href="#未命名的渐变_10"/><linearGradient id="未命名的渐变_13-8" x1="64.25" y1="67.71" x2="85.19" y2="67.71" gradientTransform="matrix(1, 0, 0, 1, 0, 0)" xlink:href="#未命名的渐变_13"/><linearGradient id="未命名的渐变_30-5" x1="59.69" y1="4.49" x2="89.75" y2="4.49" gradientTransform="matrix(1, 0, 0, 1, 0, 0)" xlink:href="#未命名的渐变_30"/><linearGradient id="未命名的渐变_30-6" x1="-4.87" y1="70.68" x2="19.24" y2="70.68" gradientTransform="matrix(0.67, 0, 0, -0.62, 38.26, 94.35)" xlink:href="#未命名的渐变_30"/><linearGradient id="未命名的渐变_241" x1="74.72" y1="64.75" x2="74.72" y2="3.36" gradientUnits="userSpaceOnUse"><stop offset="0" stop-color="#494a4d"/><stop offset="1" stop-color="#17181a"/></linearGradient><linearGradient id="未命名的渐变_323" x1="74.72" y1="64.75" x2="74.72" y2="3.36" gradientUnits="userSpaceOnUse"><stop offset="0" stop-color="#5c6066"/><stop offset="1" stop-color="#f5faff"/></linearGradient></defs><title>Ultransonic flow transmitter(超声波流量传送器)</title><g id="图层_2" data-name="图层 2"><g id="图层_16" data-name="图层 16"><g id="Ultransonic_flow_transmitter_超声波流量传送器_" data-name="Ultransonic flow transmitter(超声波流量传送器)"><path class="cls-1" d="M9.51,130.08a4.2,4.2,0,0,1-4.2-4.2c0-64.5,34-78.4,35.49-79a4.2,4.2,0,0,1,3.05,7.82c-1.3.53-30.14,12.9-30.14,71.14A4.2,4.2,0,0,1,9.51,130.08Z"/><rect class="cls-2" y="110.76" width="8.4" height="39.24"/><rect class="cls-3" x="8.4" y="120.93" width="133.2" height="18.9"/><circle class="cls-4" cx="45.21" cy="132.84" r="4.92"/><path class="cls-5" d="M45.22,137a4.11,4.11,0,0,1-.78-.07C14.3,131.31.59,103.47,6.83,60.6c3.71-25.48,11.11-41.18,22-46.65a18.37,18.37,0,0,1,16.25-.28,4.2,4.2,0,0,1-3.95,7.42,10,10,0,0,0-8.69.45C21.67,27.15,17,49.18,15.14,61.81,11.91,84,11.62,122.26,46,128.71a4.2,4.2,0,0,1-.77,8.33Z"/><rect class="cls-6" x="42.11" y="17.46" width="11.2" height="5.16" transform="translate(6.5 51.34) rotate(-60)"/><rect class="cls-7" x="34.99" y="14.6" width="16.19" height="5.53" transform="matrix(0.5, -0.87, 0.87, 0.5, 6.5, 45.99)"/><rect class="cls-8" x="29.17" y="127.76" width="11.2" height="4.52" transform="translate(-95.22 95.12) rotate(-60)"/><rect class="cls-9" x="22.32" y="124.74" width="16.19" height="5.53" transform="translate(-95.22 90.09) rotate(-60)"/><rect class="cls-10" x="141.6" y="110.76" width="8.4" height="39.24"/><circle class="cls-4" cx="104.87" cy="132.84" r="4.92"/><path class="cls-5" d="M104.87,137a4.2,4.2,0,0,1-.77-8.33c14.75-2.77,38.38-15.14,30.84-66.9-1.85-12.72-6.58-34.89-17.46-40.35a9.84,9.84,0,0,0-8.48-.4,4.2,4.2,0,1,1-4-7.39,18.36,18.36,0,0,1,16.25.28c10.88,5.47,18.29,21.17,22,46.65,6.24,42.87-7.47,70.71-37.61,76.37A4.19,4.19,0,0,1,104.87,137Z"/><rect class="cls-11" x="96.78" y="17.46" width="11.2" height="5.16" transform="translate(136.21 118.72) rotate(-120)"/><rect class="cls-12" x="98.91" y="14.6" width="16.19" height="5.53" transform="translate(145.46 118.72) rotate(-120)"/><rect class="cls-13" x="109.72" y="127.76" width="11.2" height="4.52" transform="translate(60.38 294.9) rotate(-120)"/><rect class="cls-14" x="111.58" y="124.74" width="16.19" height="5.53" transform="translate(69.09 294.9) rotate(-120)"/><rect class="cls-15" x="40.85" y="46.52" width="12.65" height="3.91" transform="translate(28.79 113.56) rotate(-120)"/><rect class="cls-16" x="96.26" y="109.72" width="1.57" height="33.99"/><rect class="cls-17" x="62.47" y="98.21" width="24.5" height="20.94" transform="translate(183.4 33.96) rotate(90)"/><rect class="cls-18" x="61.7" y="116.39" width="26.04" height="2.27"/><rect class="cls-19" x="52.3" y="109.72" width="1.57" height="33.99"/><rect class="cls-20" x="45.21" y="118.66" width="59.01" height="2.27"/><rect class="cls-21" x="48.69" y="117.53" width="8.8" height="1.14"/><rect class="cls-22" x="50.13" y="114.79" width="5.91" height="2.74"/><rect class="cls-23" x="92.64" y="117.53" width="8.8" height="1.14"/><rect class="cls-24" x="94.09" y="114.79" width="5.91" height="2.74"/><rect class="cls-25" x="67.3" y="81.48" width="14.85" height="14.95"/><rect class="cls-26" x="64.25" y="53.93" width="20.94" height="27.55"/><rect class="cls-27" x="59.69" width="30.05" height="8.98"/><rect class="cls-28" x="34.99" y="48.07" width="16.19" height="5.53" transform="translate(20.6 113.56) rotate(-120)"/><circle class="cls-29" cx="74.72" cy="34.06" r="30.69"/><path class="cls-30" d="M74.72,11.76a22.3,22.3,0,1,1-22.29,22.3,22.33,22.33,0,0,1,22.29-22.3m0-8.4a30.7,30.7,0,1,0,30.7,30.7,30.7,30.7,0,0,0-30.7-30.7Z"/><rect class="cls-31" x="62.38" y="29.03" width="24.68" height="10.05"/><path class="cls-32" d="M86.78,29.31V38.8H62.66V29.31H86.78m.56-.56H62.1V39.36H87.34V28.75Z"/><path class="cls-33" d="M90.43,18.18a9.82,9.82,0,0,1-.54,2.22c-1,3-3.78,8.81-11.69,16.72s-14.11,11-17.16,12a11.8,11.8,0,0,1-2.18.58A22.32,22.32,0,0,1,90.43,18.18Z"/><path class="cls-33" d="M89.89,20.4c-1,3-3.78,8.81-11.69,16.72s-14.11,11-17.16,12c-7.89-8.57-8.13-21.44-.38-29.19S81.32,12.47,89.89,20.4Z"/></g></g></g></svg>