<svg xmlns="http://www.w3.org/2000/svg" xmlns:xlink="http://www.w3.org/1999/xlink" viewBox="0 0 150 71.61"><defs><style>.cls-1{fill:#747780;}.cls-2{opacity:0.5;fill:url(#未命名的渐变_93);}.cls-3{fill:url(#未命名的渐变_5);}.cls-4{fill:none;stroke:#898f99;stroke-miterlimit:10;stroke-width:0.25px;}.cls-5{fill:#2f3134;}.cls-6{opacity:0.2;}</style><linearGradient id="未命名的渐变_93" x1="74.96" y1="62.64" x2="74.96" y2="59.88" gradientUnits="userSpaceOnUse"><stop offset="0" stop-color="#484a4d" stop-opacity="0"/><stop offset="1" stop-color="#2e3033"/></linearGradient><linearGradient id="未命名的渐变_5" x1="130.37" y1="-19.56" x2="19.6" y2="91.21" gradientUnits="userSpaceOnUse"><stop offset="0" stop-color="#d7dce0"/><stop offset="1" stop-color="#8a9099"/></linearGradient></defs><title>Unit ventilator(单元通风机)</title><g id="图层_2" data-name="图层 2"><g id="图层_6" data-name="图层 6"><g id="Unit_ventilator_单元通风机_" data-name="Unit ventilator(单元通风机)"><rect class="cls-1" y="59.88" width="149.93" height="11.73"/><rect class="cls-2" y="59.88" width="149.93" height="2.76"/><polygon class="cls-3" points="149.93 56.97 149.93 0 0 0 0 56.97 0 59.88 0 71.61 2.95 71.61 2.95 59.88 147.05 59.88 147.05 71.61 150 71.61 150 56.97 149.93 56.97"/><rect class="cls-4" x="2.95" y="2.91" width="144.11" height="54.05"/><rect class="cls-4" x="29.17" y="2.91" width="97.2" height="54.05"/><rect class="cls-5" x="31.85" y="51.73" width="4.11" height="0.99"/><rect class="cls-5" x="31.85" y="53.26" width="4.11" height="0.99"/><rect class="cls-5" x="31.85" y="54.78" width="4.11" height="0.99"/><rect class="cls-5" x="37.37" y="51.73" width="4.11" height="0.99"/><rect class="cls-5" x="37.37" y="53.26" width="4.11" height="0.99"/><rect class="cls-5" x="37.37" y="54.78" width="4.11" height="0.99"/><rect class="cls-5" x="42.89" y="51.73" width="4.11" height="0.99"/><rect class="cls-5" x="42.89" y="53.26" width="4.11" height="0.99"/><rect class="cls-5" x="42.89" y="54.78" width="4.11" height="0.99"/><rect class="cls-5" x="48.42" y="51.73" width="4.11" height="0.99"/><rect class="cls-5" x="48.42" y="53.26" width="4.11" height="0.99"/><rect class="cls-5" x="48.42" y="54.78" width="4.11" height="0.99"/><rect class="cls-5" x="53.94" y="51.73" width="4.11" height="0.99"/><rect class="cls-5" x="53.94" y="53.26" width="4.11" height="0.99"/><rect class="cls-5" x="53.94" y="54.78" width="4.11" height="0.99"/><rect class="cls-5" x="59.46" y="51.73" width="4.11" height="0.99"/><rect class="cls-5" x="59.46" y="53.26" width="4.11" height="0.99"/><rect class="cls-5" x="59.46" y="54.78" width="4.11" height="0.99"/><rect class="cls-5" x="64.98" y="51.73" width="4.11" height="0.99"/><rect class="cls-5" x="64.98" y="53.26" width="4.11" height="0.99"/><rect class="cls-5" x="64.98" y="54.78" width="4.11" height="0.99"/><rect class="cls-5" x="70.51" y="51.73" width="4.11" height="0.99"/><rect class="cls-5" x="70.51" y="53.26" width="4.11" height="0.99"/><rect class="cls-5" x="70.51" y="54.78" width="4.11" height="0.99"/><rect class="cls-5" x="76.03" y="51.73" width="4.11" height="0.99"/><rect class="cls-5" x="76.03" y="53.26" width="4.11" height="0.99"/><rect class="cls-5" x="76.03" y="54.78" width="4.11" height="0.99"/><rect class="cls-5" x="81.55" y="51.73" width="4.11" height="0.99"/><rect class="cls-5" x="81.55" y="53.26" width="4.11" height="0.99"/><rect class="cls-5" x="81.55" y="54.78" width="4.11" height="0.99"/><rect class="cls-5" x="87.07" y="51.73" width="4.11" height="0.99"/><rect class="cls-5" x="87.07" y="53.26" width="4.11" height="0.99"/><rect class="cls-5" x="87.07" y="54.78" width="4.11" height="0.99"/><rect class="cls-5" x="92.59" y="51.73" width="4.11" height="0.99"/><rect class="cls-5" x="92.59" y="53.26" width="4.11" height="0.99"/><rect class="cls-5" x="92.59" y="54.78" width="4.11" height="0.99"/><rect class="cls-5" x="98.12" y="51.73" width="4.11" height="0.99"/><rect class="cls-5" x="98.12" y="53.26" width="4.11" height="0.99"/><rect class="cls-5" x="98.12" y="54.78" width="4.11" height="0.99"/><rect class="cls-5" x="103.64" y="51.73" width="4.11" height="0.99"/><rect class="cls-5" x="103.64" y="53.26" width="4.11" height="0.99"/><rect class="cls-5" x="103.64" y="54.78" width="4.11" height="0.99"/><rect class="cls-5" x="109.16" y="51.73" width="4.11" height="0.99"/><rect class="cls-5" x="109.16" y="53.26" width="4.11" height="0.99"/><rect class="cls-5" x="109.16" y="54.78" width="4.11" height="0.99"/><rect class="cls-5" x="114.68" y="51.73" width="4.11" height="0.99"/><rect class="cls-5" x="114.68" y="53.26" width="4.11" height="0.99"/><rect class="cls-5" x="114.68" y="54.78" width="4.11" height="0.99"/><rect class="cls-5" x="120.21" y="51.73" width="4.11" height="0.99"/><rect class="cls-5" x="120.21" y="53.26" width="4.11" height="0.99"/><rect class="cls-5" x="120.21" y="54.78" width="4.11" height="0.99"/><rect class="cls-5" x="17.2" y="63.73" width="15.88" height="0.99"/><rect class="cls-5" x="17.2" y="65.25" width="15.88" height="0.99"/><rect class="cls-5" x="17.2" y="66.78" width="15.88" height="0.99"/><rect class="cls-5" x="35.77" y="63.73" width="29.63" height="0.99"/><rect class="cls-5" x="35.77" y="65.25" width="29.63" height="0.99"/><rect class="cls-5" x="35.77" y="66.78" width="29.63" height="0.99"/><rect class="cls-5" x="68.09" y="63.73" width="15.88" height="0.99"/><rect class="cls-5" x="68.09" y="65.25" width="15.88" height="0.99"/><rect class="cls-5" x="68.09" y="66.78" width="15.88" height="0.99"/><rect class="cls-5" x="118.98" y="63.73" width="15.88" height="0.99"/><rect class="cls-5" x="118.98" y="65.25" width="15.88" height="0.99"/><rect class="cls-5" x="118.98" y="66.78" width="15.88" height="0.99"/><rect class="cls-5" x="86.66" y="63.73" width="29.63" height="0.99"/><rect class="cls-5" x="86.66" y="65.25" width="29.63" height="0.99"/><rect class="cls-5" x="86.66" y="66.78" width="29.63" height="0.99"/></g></g></g></svg>