<svg xmlns="http://www.w3.org/2000/svg" xmlns:xlink="http://www.w3.org/1999/xlink" viewBox="0 0 149.7 147.76"><defs><style>.cls-1{fill:#373332;}.cls-2{fill:url(#未命名的渐变_10);}.cls-3{fill:url(#未命名的渐变_10-2);}.cls-4{fill:url(#未命名的渐变_13);}.cls-5{fill:#cdcece;}.cls-6{fill:url(#未命名的渐变_67);}.cls-7{fill:url(#未命名的渐变_7);}.cls-8{fill:url(#未命名的渐变_13-2);}.cls-9{fill:url(#未命名的渐变_13-3);}.cls-10{fill:#c65a5e;}.cls-11{fill:#a3a4a4;}.cls-12{fill:none;stroke:#a3a4a4;stroke-miterlimit:10;stroke-width:0.25px;}.cls-13{fill:#dbdbdb;}.cls-14{fill:#e1bc6b;}.cls-15{fill:#242424;}.cls-16{fill:#9b9c9c;}.cls-17{fill:#0176ab;}.cls-18{fill:#069a8b;}.cls-19{fill:#2b2827;}.cls-20{fill:url(#未命名的渐变_105);}.cls-21{fill:url(#未命名的渐变_105-2);}.cls-22{fill:url(#未命名的渐变_105-3);}.cls-23{fill:url(#未命名的渐变_67-2);}.cls-24{fill:url(#未命名的渐变_105-4);}.cls-25{fill:url(#未命名的渐变_105-5);}.cls-26{fill:url(#未命名的渐变_105-6);}.cls-27{fill:url(#未命名的渐变_105-7);}.cls-28{fill:url(#未命名的渐变_13-4);}.cls-29{fill:url(#未命名的渐变_9);}.cls-30{fill:url(#未命名的渐变_9-2);}.cls-31{fill:url(#未命名的渐变_10-3);}.cls-32{fill:url(#未命名的渐变_10-4);}.cls-33{fill:url(#未命名的渐变_10-5);}.cls-34{fill:url(#未命名的渐变_10-6);}.cls-35{fill:url(#未命名的渐变_105-8);}.cls-36{fill:url(#未命名的渐变_105-9);}.cls-37{fill:url(#未命名的渐变_105-10);}.cls-38{fill:url(#未命名的渐变_105-11);}.cls-39{fill:url(#未命名的渐变_105-12);}.cls-40{fill:url(#未命名的渐变_105-13);}.cls-41{fill:url(#未命名的渐变_105-14);}.cls-42{opacity:0.2;}</style><linearGradient id="未命名的渐变_10" x1="105.98" y1="69.14" x2="150.04" y2="76.07" gradientUnits="userSpaceOnUse"><stop offset="0" stop-color="#6b6b6b"/><stop offset="0.01" stop-color="#767676"/><stop offset="0.03" stop-color="#959595"/><stop offset="0.04" stop-color="#aaa"/><stop offset="0.14" stop-color="#b1b1b1"/><stop offset="0.66" stop-color="#cfcfcf"/><stop offset="0.96" stop-color="#dbdbdb"/><stop offset="0.96" stop-color="#d2d2d2"/><stop offset="0.97" stop-color="#b9b9b9"/><stop offset="0.98" stop-color="#909090"/><stop offset="0.99" stop-color="#666"/></linearGradient><linearGradient id="未命名的渐变_10-2" x1="108.79" y1="53.81" x2="149.7" y2="53.81" xlink:href="#未命名的渐变_10"/><linearGradient id="未命名的渐变_13" x1="18.79" y1="77.54" x2="86.74" y2="77.54" gradientUnits="userSpaceOnUse"><stop offset="0" stop-color="#6b6b6b"/><stop offset="0.01" stop-color="#767676"/><stop offset="0.03" stop-color="#959595"/><stop offset="0.04" stop-color="#aaa"/><stop offset="0.14" stop-color="#b1b1b1"/><stop offset="0.65" stop-color="#cfcfcf"/><stop offset="0.94" stop-color="#dbdbdb"/><stop offset="0.95" stop-color="#d2d2d2"/><stop offset="0.96" stop-color="#b9b9b9"/><stop offset="0.98" stop-color="#909090"/><stop offset="0.99" stop-color="#666"/></linearGradient><linearGradient id="未命名的渐变_67" x1="30.81" y1="-867.96" x2="30.81" y2="-913.22" gradientTransform="translate(96.14 957.82)" gradientUnits="userSpaceOnUse"><stop offset="0" stop-color="#6b6b6b"/><stop offset="0.11" stop-color="#767676"/><stop offset="0.3" stop-color="#959595"/><stop offset="0.41" stop-color="#aaa"/><stop offset="0.56" stop-color="#ccc"/><stop offset="0.71" stop-color="#eaeaea"/><stop offset="0.8" stop-color="#f6f6f6"/><stop offset="0.83" stop-color="#ededed"/><stop offset="0.87" stop-color="#d4d4d4"/><stop offset="0.92" stop-color="#ababab"/><stop offset="0.98" stop-color="#737373"/><stop offset="0.99" stop-color="#666"/></linearGradient><linearGradient id="未命名的渐变_7" x1="-510.46" y1="686.27" x2="-510.46" y2="653.3" gradientTransform="matrix(0.56, -0.97, 0.54, 0.31, 28.4, -633.31)" gradientUnits="userSpaceOnUse"><stop offset="0" stop-color="#6b6b6b"/><stop offset="0.01" stop-color="#767676"/><stop offset="0.03" stop-color="#959595"/><stop offset="0.04" stop-color="#aaa"/><stop offset="0.13" stop-color="#b1b1b1"/><stop offset="0.63" stop-color="#cfcfcf"/><stop offset="0.9" stop-color="#dbdbdb"/><stop offset="0.96" stop-color="#888"/><stop offset="0.99" stop-color="#666"/></linearGradient><linearGradient id="未命名的渐变_13-2" x1="17.23" y1="117.35" x2="101.44" y2="117.35" xlink:href="#未命名的渐变_13"/><linearGradient id="未命名的渐变_13-3" x1="28.67" y1="67.23" x2="71.36" y2="67.23" xlink:href="#未命名的渐变_13"/><linearGradient id="未命名的渐变_105" x1="71.69" y1="75.27" x2="71.69" y2="69.94" gradientUnits="userSpaceOnUse"><stop offset="0" stop-color="#e2e2e2"/><stop offset="0.03" stop-color="#d0d0d0"/><stop offset="0.06" stop-color="#bcbcbc"/><stop offset="0.09" stop-color="#b5b5b5"/><stop offset="0.49" stop-color="#f6f6f6"/><stop offset="0.63" stop-color="#f3f3f3"/><stop offset="0.73" stop-color="#eaeaea"/><stop offset="0.82" stop-color="#dbdbdb"/><stop offset="0.9" stop-color="#c6c6c6"/><stop offset="0.97" stop-color="#aaa"/><stop offset="1" stop-color="#9b9b9b"/></linearGradient><linearGradient id="未命名的渐变_105-2" x1="60.41" y1="-832.55" x2="60.41" y2="-838.79" gradientTransform="translate(11.62 932.51)" xlink:href="#未命名的渐变_105"/><linearGradient id="未命名的渐变_105-3" x1="58.66" y1="-780.67" x2="58.66" y2="-865.08" gradientTransform="translate(0.58 917.96)" xlink:href="#未命名的渐变_105"/><linearGradient id="未命名的渐变_67-2" x1="104.01" y1="-779.41" x2="104.01" y2="-868.26" gradientTransform="translate(-43.81 964.27)" xlink:href="#未命名的渐变_67"/><linearGradient id="未命名的渐变_105-4" x1="101.17" y1="-832.59" x2="101.17" y2="-838.83" gradientTransform="translate(-29.1 973.3)" xlink:href="#未命名的渐变_105"/><linearGradient id="未命名的渐变_105-5" x1="108.22" y1="35.25" x2="108.22" y2="29.92" xlink:href="#未命名的渐变_105"/><linearGradient id="未命名的渐变_105-6" x1="83.93" y1="73.49" x2="83.93" y2="71.27" xlink:href="#未命名的渐变_105"/><linearGradient id="未命名的渐变_105-7" x1="83.93" y1="114.72" x2="83.93" y2="112.5" xlink:href="#未命名的渐变_105"/><linearGradient id="未命名的渐变_13-4" x1="34.75" y1="109.9" x2="42.65" y2="109.9" xlink:href="#未命名的渐变_13"/><linearGradient id="未命名的渐变_9" x1="0.46" y1="103.76" x2="17.62" y2="103.76" gradientUnits="userSpaceOnUse"><stop offset="0" stop-color="#6b6b6b"/><stop offset="0.01" stop-color="#767676"/><stop offset="0.03" stop-color="#959595"/><stop offset="0.04" stop-color="#aaa"/><stop offset="0.13" stop-color="#b1b1b1"/><stop offset="0.61" stop-color="#cfcfcf"/><stop offset="0.88" stop-color="#dbdbdb"/><stop offset="0.89" stop-color="#d2d2d2"/><stop offset="0.91" stop-color="#b9b9b9"/><stop offset="0.93" stop-color="#909090"/><stop offset="0.95" stop-color="#666"/></linearGradient><linearGradient id="未命名的渐变_9-2" x1="3.25" y1="103.48" x2="14.47" y2="103.48" xlink:href="#未命名的渐变_9"/><linearGradient id="未命名的渐变_10-3" x1="108.79" y1="32.47" x2="142.65" y2="32.47" xlink:href="#未命名的渐变_10"/><linearGradient id="未命名的渐变_10-4" x1="111.82" y1="33.36" x2="124.54" y2="33.36" xlink:href="#未命名的渐变_10"/><linearGradient id="未命名的渐变_10-5" x1="126.29" y1="33.36" x2="139.01" y2="33.36" xlink:href="#未命名的渐变_10"/><linearGradient id="未命名的渐变_10-6" x1="142.65" y1="34.93" x2="149.24" y2="34.93" xlink:href="#未命名的渐变_10"/><linearGradient id="未命名的渐变_105-8" x1="-915.17" y1="33.92" x2="-915.17" y2="31.56" gradientTransform="matrix(1, 0, 0, -1, 981.45, 65.48)" xlink:href="#未命名的渐变_105"/><linearGradient id="未命名的渐变_105-9" x1="-873.49" y1="69.94" x2="-870.71" y2="69.94" gradientTransform="matrix(1, 0, 0, -1, 895.31, 139.89)" xlink:href="#未命名的渐变_105"/><linearGradient id="未命名的渐变_105-10" x1="-947.39" y1="93.1" x2="-944.78" y2="93.1" gradientTransform="matrix(1, 0, 0, -1, 1043.28, 186.19)" xlink:href="#未命名的渐变_105"/><linearGradient id="未命名的渐变_105-11" x1="-922.03" y1="117.22" x2="-919.42" y2="117.22" gradientTransform="matrix(1, 0, 0, -1, 992.56, 234.43)" xlink:href="#未命名的渐变_105"/><linearGradient id="未命名的渐变_105-12" x1="63.56" y1="-1235.41" x2="66" y2="-1237.86" gradientTransform="matrix(1, 0, 0, -1, -41.02, -1203.08)" xlink:href="#未命名的渐变_105"/><linearGradient id="未命名的渐变_105-13" x1="-845.39" y1="-1275.08" x2="-843.08" y2="-1277.39" gradientTransform="translate(-747.56 -1203.08) rotate(180)" xlink:href="#未命名的渐变_105"/><linearGradient id="未命名的渐变_105-14" x1="-845.39" y1="-368.99" x2="-843.08" y2="-371.29" gradientTransform="matrix(-1, 0, 0, 1, -747.56, 482.99)" xlink:href="#未命名的渐变_105"/></defs><title>Vacuum filter聚合物混合系统</title><g id="图层_2" data-name="图层 2"><g id="图层_125" data-name="图层 125"><g id="Vacuum_filter聚合物混合系统" data-name="Vacuum filter聚合物混合系统"><rect class="cls-1" x="44.81" width="36.78" height="61.25"/><polygon class="cls-2" points="146 81.76 104.98 75.8 106.4 69.18 149.58 69.18 146 81.76"/><rect class="cls-3" x="108.79" y="42.17" width="40.91" height="23.28"/><rect class="cls-4" x="18.79" y="61.17" width="67.95" height="32.73"/><rect class="cls-5" x="46.69" y="2.27" width="33.24" height="57.59"/><rect class="cls-6" x="125.07" y="44.6" width="3.75" height="45.26" transform="translate(194.18 -59.72) rotate(90)"/><polygon class="cls-7" points="126.78 52.36 102.76 93.97 79.26 93.9 109.13 42.17 126.78 52.36"/><polygon class="cls-8" points="83.11 138.56 17.23 138.56 17.23 96.14 101.44 96.28 83.11 128.01 83.11 138.56"/><rect class="cls-9" x="28.67" y="40.57" width="42.69" height="53.33"/><circle class="cls-10" cx="42.14" cy="51.08" r="1.46"/><rect class="cls-11" x="32.48" y="47.46" width="34.45" height="18.83"/><rect class="cls-12" x="31.45" y="43.12" width="36.81" height="47.97"/><rect class="cls-13" x="33.14" y="48.18" width="33.14" height="17.27"/><rect class="cls-11" x="32.48" y="74.73" width="34.45" height="14.03"/><rect class="cls-13" x="33.14" y="75.27" width="33.14" height="12.88"/><circle class="cls-14" cx="42.14" cy="56.86" r="1.46"/><polygon class="cls-15" points="37.06 59.86 34.68 59.86 33.49 61.92 34.68 63.98 37.06 63.98 38.25 61.92 37.06 59.86"/><circle class="cls-16" cx="35.87" cy="61.92" r="1.78"/><circle class="cls-16" cx="23.21" cy="103.48" r="2.63"/><circle class="cls-15" cx="35.87" cy="61.92" r="1.11"/><circle class="cls-15" cx="23.21" cy="103.48" r="1.88"/><circle class="cls-17" cx="47.59" cy="61.92" r="1.46"/><circle class="cls-17" cx="53.05" cy="62.59" r="1.46"/><circle class="cls-17" cx="58.5" cy="62.56" r="1.46"/><circle class="cls-17" cx="63.96" cy="62.52" r="1.46"/><circle class="cls-18" cx="42.14" cy="62.59" r="1.46"/><circle class="cls-10" cx="47.59" cy="51.08" r="1.46"/><circle class="cls-17" cx="47.59" cy="56.86" r="1.46"/><circle class="cls-17" cx="53.05" cy="56.86" r="1.46"/><circle class="cls-17" cx="58.5" cy="56.86" r="1.46"/><circle class="cls-17" cx="63.96" cy="56.86" r="1.46"/><circle class="cls-10" cx="53.05" cy="51.08" r="1.46"/><circle class="cls-10" cx="58.5" cy="51.08" r="1.46"/><circle class="cls-10" cx="63.96" cy="51.08" r="1.46"/><circle class="cls-10" cx="47.22" cy="78.88" r="1.46"/><circle class="cls-19" cx="36.59" cy="78.88" r="1.46"/><circle class="cls-19" cx="36.59" cy="84.34" r="1.46"/><circle class="cls-10" cx="52.67" cy="78.88" r="1.46"/><circle class="cls-10" cx="58.12" cy="78.88" r="1.46"/><circle class="cls-10" cx="63.58" cy="78.88" r="1.46"/><circle class="cls-10" cx="47.22" cy="84.34" r="1.46"/><circle class="cls-10" cx="52.67" cy="84.34" r="1.46"/><circle class="cls-10" cx="58.12" cy="84.34" r="1.46"/><circle class="cls-10" cx="63.58" cy="84.34" r="1.46"/><rect class="cls-20" x="70.72" y="69.94" width="1.93" height="5.33"/><rect class="cls-21" x="71.07" y="93.72" width="1.93" height="6.24" transform="translate(168.87 24.8) rotate(90)"/><rect class="cls-1" x="107.48" y="87.86" width="2.38" height="14.45" transform="translate(203.75 -13.58) rotate(90)"/><rect class="cls-22" x="58.05" y="52.89" width="2.38" height="84.4" transform="translate(154.33 35.85) rotate(90)"/><rect class="cls-23" x="58.32" y="96.01" width="3.75" height="88.85" transform="translate(200.63 80.24) rotate(90)"/><rect class="cls-24" x="71.1" y="134.48" width="1.93" height="6.24" transform="translate(209.66 65.52) rotate(90)"/><rect class="cls-25" x="107.25" y="29.92" width="1.93" height="5.33"/><rect class="cls-26" x="72.65" y="71.27" width="22.56" height="2.22"/><rect class="cls-27" x="72.65" y="112.5" width="22.56" height="2.22"/><rect class="cls-28" x="34.75" y="96.28" width="7.9" height="27.25"/><rect class="cls-29" y="93.9" width="17.03" height="19.71"/><rect class="cls-30" x="2.95" y="97.92" width="11.14" height="11.14"/><rect class="cls-13" x="51.21" y="5.34" width="25.3" height="13.48"/><rect class="cls-13" x="51.21" y="21.48" width="8.12" height="3.86"/><rect class="cls-31" x="108.79" y="22.77" width="33.86" height="19.4"/><rect class="cls-32" x="111.82" y="26.71" width="12.73" height="13.29"/><rect class="cls-33" x="126.29" y="26.71" width="12.73" height="13.29"/><rect class="cls-34" x="142.65" y="27.69" width="6.59" height="14.48"/><rect class="cls-13" x="51.21" y="27.05" width="14.2" height="2.16"/><rect class="cls-35" x="25.31" y="31.56" width="81.95" height="2.35" transform="translate(132.56 65.48) rotate(180)"/><path class="cls-36" d="M22.21,35.15h2a.39.39,0,0,1,.39.39v69.19a0,0,0,0,1,0,0H21.82a0,0,0,0,1,0,0V35.54a.39.39,0,0,1,.39-.39Z" transform="translate(46.42 139.89) rotate(180)"/><rect class="cls-37" x="95.89" y="74.66" width="2.61" height="36.88" transform="translate(194.39 186.19) rotate(180)"/><rect class="cls-38" x="70.53" y="97.8" width="2.61" height="38.83" transform="matrix(-1, 0, 0, -1, 143.67, 234.43)"/><rect class="cls-1" x="104.24" y="96.32" width="3.15" height="51.44" transform="translate(211.63 244.08) rotate(180)"/><path class="cls-39" d="M24.6,34.24c-.22.22,0,.91,0,.91H21.82s-.05-2.15.64-2.75a5.52,5.52,0,0,1,2.85-.84v2.36A2.43,2.43,0,0,0,24.6,34.24Z"/><path class="cls-40" d="M95.87,73.79c.22.21,0,.87,0,.87H98.5s0-2-.6-2.6a5.28,5.28,0,0,0-2.69-.79v2.22A2.27,2.27,0,0,1,95.87,73.79Z"/><path class="cls-41" d="M95.87,112.2c.22-.21,0-.87,0-.87H98.5s0,2-.6,2.6a5.28,5.28,0,0,1-2.69.79V112.5A2.27,2.27,0,0,0,95.87,112.2Z"/></g></g></g></svg>