<svg xmlns="http://www.w3.org/2000/svg" xmlns:xlink="http://www.w3.org/1999/xlink" viewBox="0 0 75.6 150"><defs><style>.cls-1{fill:url(#未命名的渐变_105);}.cls-2{fill:url(#未命名的渐变_67);}.cls-3{fill:url(#未命名的渐变_67-2);}.cls-4{fill:url(#未命名的渐变_67-3);}.cls-5{fill:url(#未命名的渐变_67-4);}.cls-6{fill:url(#未命名的渐变_67-5);}.cls-7{fill:url(#未命名的渐变_67-6);}.cls-8{fill:url(#未命名的渐变_67-7);}.cls-9{fill:url(#未命名的渐变_67-8);}.cls-10{fill:url(#未命名的渐变_67-9);}.cls-11{fill:url(#未命名的渐变_67-10);}.cls-12{opacity:0.2;}</style><linearGradient id="未命名的渐变_105" x1="-343.43" y1="845.66" x2="-343.43" y2="770.06" gradientTransform="translate(845.66 418.43) rotate(90)" gradientUnits="userSpaceOnUse"><stop offset="0" stop-color="#e2e2e2"/><stop offset="0.03" stop-color="#d0d0d0"/><stop offset="0.06" stop-color="#bcbcbc"/><stop offset="0.09" stop-color="#b5b5b5"/><stop offset="0.49" stop-color="#f6f6f6"/><stop offset="0.63" stop-color="#f3f3f3"/><stop offset="0.73" stop-color="#eaeaea"/><stop offset="0.82" stop-color="#dbdbdb"/><stop offset="0.9" stop-color="#c6c6c6"/><stop offset="0.97" stop-color="#aaa"/><stop offset="1" stop-color="#9b9b9b"/></linearGradient><linearGradient id="未命名的渐变_67" x1="-358.39" y1="850.47" x2="-358.39" y2="849.16" gradientTransform="translate(362.26 -775.2)" gradientUnits="userSpaceOnUse"><stop offset="0" stop-color="#6b6b6b"/><stop offset="0.11" stop-color="#767676"/><stop offset="0.3" stop-color="#959595"/><stop offset="0.41" stop-color="#aaa"/><stop offset="0.56" stop-color="#ccc"/><stop offset="0.71" stop-color="#eaeaea"/><stop offset="0.8" stop-color="#f6f6f6"/><stop offset="0.83" stop-color="#ededed"/><stop offset="0.87" stop-color="#d4d4d4"/><stop offset="0.92" stop-color="#ababab"/><stop offset="0.98" stop-color="#737373"/><stop offset="0.99" stop-color="#666"/></linearGradient><linearGradient id="未命名的渐变_67-2" x1="-358.39" y1="840.84" x2="-358.39" y2="839.53" gradientTransform="translate(371.89 -765.57)" xlink:href="#未命名的渐变_67"/><linearGradient id="未命名的渐变_67-3" x1="-358.39" y1="830.55" x2="-358.39" y2="829.24" gradientTransform="translate(382.18 -755.29)" xlink:href="#未命名的渐变_67"/><linearGradient id="未命名的渐变_67-4" x1="-358.39" y1="821.3" x2="-358.39" y2="819.99" gradientTransform="translate(391.43 -746.04)" xlink:href="#未命名的渐变_67"/><linearGradient id="未命名的渐变_67-5" x1="-357.92" y1="810.68" x2="-357.92" y2="809.36" gradientTransform="translate(401.58 -734.94)" xlink:href="#未命名的渐变_67"/><linearGradient id="未命名的渐变_67-6" x1="-357.92" y1="801.99" x2="-357.92" y2="800.67" gradientTransform="translate(410.27 -726.25)" xlink:href="#未命名的渐变_67"/><linearGradient id="未命名的渐变_67-7" x1="-358.39" y1="791.57" x2="-358.39" y2="790.25" gradientTransform="translate(421.16 -716.3)" xlink:href="#未命名的渐变_67"/><linearGradient id="未命名的渐变_67-8" x1="-358.39" y1="781.45" x2="-358.39" y2="780.14" gradientTransform="translate(431.28 -706.19)" xlink:href="#未命名的渐变_67"/><linearGradient id="未命名的渐变_67-9" x1="0" y1="15.4" x2="75.6" y2="15.4" gradientTransform="matrix(1, 0, 0, 1, 0, 0)" xlink:href="#未命名的渐变_67"/><linearGradient id="未命名的渐变_67-10" x1="0.03" y1="134.29" x2="75.6" y2="134.29" gradientTransform="matrix(1, 0, 0, 1, 0, 0)" xlink:href="#未命名的渐变_67"/></defs><title>vessel（容器）</title><g id="图层_2" data-name="图层 2"><g id="图层_104" data-name="图层 104"><g id="vessel_容器_" data-name="vessel（容器）"><path class="cls-1" d="M75.6,134.89V15S68.24,0,37.8,0,0,15,0,15V134.89s6.31,15.6,37.8,15.1C71,149.46,75.6,134.89,75.6,134.89Z"/><rect class="cls-2" x="-55.35" y="73.95" width="118.43" height="1.31" transform="translate(78.48 70.74) rotate(90)"/><rect class="cls-3" x="-45.72" y="73.95" width="118.43" height="1.31" transform="translate(88.11 61.11) rotate(90)"/><rect class="cls-4" x="-35.43" y="73.95" width="118.43" height="1.31" transform="translate(98.39 50.82) rotate(90)"/><rect class="cls-5" x="-26.18" y="73.95" width="118.43" height="1.31" transform="translate(107.64 41.57) rotate(90)"/><rect class="cls-6" x="-15.55" y="74.42" width="118.43" height="1.31" transform="translate(118.74 31.42) rotate(90)"/><rect class="cls-7" x="-6.86" y="74.42" width="118.43" height="1.31" transform="translate(127.43 22.73) rotate(90)"/><rect class="cls-8" x="3.56" y="73.95" width="118.43" height="1.31" transform="translate(137.38 11.84) rotate(90)"/><rect class="cls-9" x="13.67" y="73.95" width="118.43" height="1.31" transform="translate(147.49 1.72) rotate(90)"/><rect class="cls-10" y="14.96" width="75.6" height="0.88"/><rect class="cls-11" x="0.03" y="133.85" width="75.57" height="0.88"/></g></g></g></svg>