<svg xmlns="http://www.w3.org/2000/svg" xmlns:xlink="http://www.w3.org/1999/xlink" viewBox="0 0 150 134.89"><defs><style>.cls-1{fill:url(#未命名的渐变_447);}.cls-2{fill:url(#未命名的渐变_26);}.cls-3{fill:url(#未命名的渐变_26-2);}.cls-16,.cls-4{fill:none;stroke-miterlimit:10;}.cls-4{stroke:#000;}.cls-4,.cls-5{opacity:0.3;}.cls-6{fill:url(#未命名的渐变_26-3);}.cls-7{fill:url(#未命名的渐变_26-4);}.cls-8{fill:url(#未命名的渐变_26-5);}.cls-9{fill:url(#未命名的渐变_26-6);}.cls-10{fill:url(#未命名的渐变_26-7);}.cls-11{fill:url(#未命名的渐变_26-8);}.cls-12{fill:url(#未命名的渐变_26-9);}.cls-13{fill:url(#未命名的渐变_26-10);}.cls-14{fill:url(#未命名的渐变_26-11);}.cls-15{fill:url(#未命名的渐变_26-12);}.cls-16{stroke:#a19257;stroke-width:1.3px;}.cls-17{fill:url(#未命名的渐变_210);}.cls-18{fill:url(#未命名的渐变_210-2);}.cls-19{fill:url(#未命名的渐变_210-3);}.cls-20{fill:url(#未命名的渐变_210-4);}.cls-21{fill:url(#未命名的渐变_210-5);}.cls-22{fill:url(#未命名的渐变_210-6);}.cls-23{fill:url(#未命名的渐变_210-7);}.cls-24{fill:url(#未命名的渐变_26-13);}.cls-25{fill:url(#未命名的渐变_26-14);}.cls-26{fill:url(#未命名的渐变_26-15);}.cls-27{fill:#fff;opacity:0.5;}.cls-28{fill:url(#未命名的渐变_26-16);}.cls-29{fill:url(#未命名的渐变_26-17);}.cls-30{fill:url(#未命名的渐变_26-18);}.cls-31{fill:url(#未命名的渐变_26-19);}.cls-32{fill:url(#未命名的渐变_26-20);}.cls-33{fill:url(#未命名的渐变_26-21);}.cls-34{fill:url(#未命名的渐变_26-22);}.cls-35{fill:url(#未命名的渐变_26-23);}.cls-36{fill:url(#未命名的渐变_26-24);}.cls-37{fill:url(#未命名的渐变_26-25);}.cls-38{fill:url(#未命名的渐变_26-26);}.cls-39{fill:url(#未命名的渐变_26-27);}.cls-40{fill:url(#未命名的渐变_26-28);}.cls-41{fill:url(#未命名的渐变_26-29);}.cls-42{fill:url(#未命名的渐变_26-30);}.cls-43{fill:url(#未命名的渐变_26-31);}.cls-44{opacity:0.2;}</style><linearGradient id="未命名的渐变_447" x1="74.92" y1="98.39" x2="74.92" y2="59.56" gradientTransform="matrix(-1, 0, 0, 1, 149.84, 36.5)" gradientUnits="userSpaceOnUse"><stop offset="0" stop-color="#45484d"/><stop offset="0.14" stop-color="#9ba1ab"/><stop offset="0.21" stop-color="#9da3ad"/><stop offset="0.24" stop-color="#a3aab4"/><stop offset="0.26" stop-color="#afb5bf"/><stop offset="0.28" stop-color="#bfc6d0"/><stop offset="0.29" stop-color="#d5dce5"/><stop offset="0.3" stop-color="#eef6ff"/><stop offset="0.31" stop-color="#ecf4fd"/><stop offset="0.31" stop-color="#e6eef6"/><stop offset="0.31" stop-color="#dbe2eb"/><stop offset="0.31" stop-color="#cfd6de"/><stop offset="0.43" stop-color="#cdd4dc"/><stop offset="0.5" stop-color="#c5cbd3"/><stop offset="0.56" stop-color="#b7bec5"/><stop offset="0.61" stop-color="#a4aab1"/><stop offset="0.65" stop-color="#8b9198"/><stop offset="0.68" stop-color="#767b82"/><stop offset="0.69" stop-color="#787d84"/><stop offset="0.7" stop-color="#7e838b"/><stop offset="0.7" stop-color="#888e96"/><stop offset="0.7" stop-color="#8a9099"/><stop offset="0.77" stop-color="#858b94"/><stop offset="0.85" stop-color="#777d84"/><stop offset="0.87" stop-color="#747980"/><stop offset="0.9" stop-color="#7a7f87"/><stop offset="0.94" stop-color="#8b919a"/><stop offset="1" stop-color="#a7afb9"/><stop offset="1" stop-color="#a9b1bb"/></linearGradient><linearGradient id="未命名的渐变_26" x1="-123.82" y1="208.9" x2="-123.82" y2="235.13" gradientTransform="matrix(1, 0, 0, -1, 151.9, 335.69)" gradientUnits="userSpaceOnUse"><stop offset="0" stop-color="#767b82"/><stop offset="0.07" stop-color="#9ba1ab"/><stop offset="0.22" stop-color="#e2eaf2"/><stop offset="0.94" stop-color="#767b82"/><stop offset="1" stop-color="#a9b1bb"/></linearGradient><linearGradient id="未命名的渐变_26-2" x1="75" y1="30.26" x2="75" y2="96.06" gradientTransform="matrix(-1, 0, 0, 1, 150, 0)" xlink:href="#未命名的渐变_26"/><linearGradient id="未命名的渐变_26-3" x1="74.76" y1="32.84" x2="74.76" y2="34.73" gradientTransform="matrix(1, 0, 0, -1, 0.49, 67.57)" xlink:href="#未命名的渐变_26"/><linearGradient id="未命名的渐变_26-4" x1="74.76" y1="88.49" x2="74.76" y2="90.39" gradientTransform="matrix(1, 0, 0, -1, 0.49, 178.88)" xlink:href="#未命名的渐变_26"/><linearGradient id="未命名的渐变_26-5" x1="74.76" y1="82.31" x2="74.76" y2="84.2" gradientTransform="matrix(1, 0, 0, -1, 0.49, 166.51)" xlink:href="#未命名的渐变_26"/><linearGradient id="未命名的渐变_26-6" x1="74.76" y1="76.13" x2="74.76" y2="78.02" gradientTransform="matrix(1, 0, 0, -1, 0.49, 154.14)" xlink:href="#未命名的渐变_26"/><linearGradient id="未命名的渐变_26-7" x1="74.76" y1="69.94" x2="74.76" y2="71.84" gradientTransform="matrix(1, 0, 0, -1, 0.49, 141.78)" xlink:href="#未命名的渐变_26"/><linearGradient id="未命名的渐变_26-8" x1="74.76" y1="63.76" x2="74.76" y2="65.65" gradientTransform="matrix(1, 0, 0, -1, 0.49, 129.41)" xlink:href="#未命名的渐变_26"/><linearGradient id="未命名的渐变_26-9" x1="74.76" y1="57.57" x2="74.76" y2="59.47" gradientTransform="matrix(1, 0, 0, -1, 0.49, 117.04)" xlink:href="#未命名的渐变_26"/><linearGradient id="未命名的渐变_26-10" x1="74.76" y1="51.39" x2="74.76" y2="53.28" gradientTransform="matrix(1, 0, 0, -1, 0.49, 104.67)" xlink:href="#未命名的渐变_26"/><linearGradient id="未命名的渐变_26-11" x1="74.76" y1="45.21" x2="74.76" y2="47.1" gradientTransform="matrix(1, 0, 0, -1, 0.49, 92.31)" xlink:href="#未命名的渐变_26"/><linearGradient id="未命名的渐变_26-12" x1="74.76" y1="39.02" x2="74.76" y2="40.92" gradientTransform="matrix(1, 0, 0, -1, 0.49, 79.94)" xlink:href="#未命名的渐变_26"/><linearGradient id="未命名的渐变_210" x1="14.8" y1="10.32" x2="14.8" y2="12.06" gradientTransform="matrix(1, 0, 0, -1, 120.4, 22.38)" gradientUnits="userSpaceOnUse"><stop offset="0" stop-color="#7c151b"/><stop offset="0.25" stop-color="#d45055"/><stop offset="0.4" stop-color="#f18f92"/><stop offset="0.77" stop-color="#d45055"/><stop offset="1" stop-color="#7c151b"/></linearGradient><linearGradient id="未命名的渐变_210-2" x1="14.8" y1="17.79" x2="14.8" y2="19.53" gradientTransform="matrix(1, 0, 0, -1, 120.4, 37.31)" xlink:href="#未命名的渐变_210"/><linearGradient id="未命名的渐变_210-3" x1="14.8" y1="25.25" x2="14.8" y2="26.99" gradientTransform="matrix(1, 0, 0, -1, 120.4, 52.25)" xlink:href="#未命名的渐变_210"/><linearGradient id="未命名的渐变_210-4" x1="14.8" y1="32.72" x2="14.8" y2="34.46" gradientTransform="matrix(1, 0, 0, -1, 120.4, 67.18)" xlink:href="#未命名的渐变_210"/><linearGradient id="未命名的渐变_210-5" x1="14.8" y1="40.19" x2="14.8" y2="41.93" gradientTransform="matrix(1, 0, 0, -1, 120.4, 82.12)" xlink:href="#未命名的渐变_210"/><linearGradient id="未命名的渐变_210-6" x1="14.8" y1="47.66" x2="14.8" y2="49.4" gradientTransform="matrix(1, 0, 0, -1, 120.4, 97.06)" xlink:href="#未命名的渐变_210"/><linearGradient id="未命名的渐变_210-7" x1="14.8" y1="55.12" x2="14.8" y2="56.87" gradientTransform="matrix(1, 0, 0, -1, 120.4, 111.99)" xlink:href="#未命名的渐变_210"/><linearGradient id="未命名的渐变_26-13" x1="132.7" y1="0.92" x2="132.7" y2="112.84" gradientTransform="matrix(1, 0, 0, 1, 0, 0)" xlink:href="#未命名的渐变_26"/><linearGradient id="未命名的渐变_26-14" x1="13.55" y1="0.92" x2="13.55" y2="112.84" gradientTransform="matrix(-1, 0, 0, 1, 150, 0)" xlink:href="#未命名的渐变_26"/><linearGradient id="未命名的渐变_26-15" x1="9.67" y1="0.92" x2="9.67" y2="112.84" gradientTransform="matrix(-1, 0, 0, 1, 150, 0)" xlink:href="#未命名的渐变_26"/><linearGradient id="未命名的渐变_26-16" x1="-588.76" y1="-78.74" x2="-588.76" y2="-76.79" gradientTransform="matrix(1, 0, 0, -1.72, 723.99, -124.23)" xlink:href="#未命名的渐变_26"/><linearGradient id="未命名的渐变_26-17" x1="-588.76" y1="-74.37" x2="-588.76" y2="-72.42" gradientTransform="matrix(1, 0, 0, -1.72, 723.99, -124.23)" xlink:href="#未命名的渐变_26"/><linearGradient id="未命名的渐变_26-18" x1="-588.76" y1="-83.11" x2="-588.76" y2="-81.16" gradientTransform="matrix(1, 0, 0, -1.72, 723.99, -124.23)" xlink:href="#未命名的渐变_26"/><linearGradient id="未命名的渐变_26-19" x1="14.77" y1="35.73" x2="14.77" y2="37.68" gradientTransform="matrix(1, 0, 0, -1.72, 120.46, 145.74)" xlink:href="#未命名的渐变_26"/><linearGradient id="未命名的渐变_26-20" x1="14.77" y1="39.22" x2="14.77" y2="41.17" gradientTransform="matrix(1, 0, 0, -1.72, 120.46, 157.69)" xlink:href="#未命名的渐变_26"/><linearGradient id="未命名的渐变_26-21" x1="14.77" y1="43.59" x2="14.77" y2="45.54" gradientTransform="matrix(1, 0, 0, -1.72, 120.46, 172.68)" xlink:href="#未命名的渐变_26"/><linearGradient id="未命名的渐变_26-22" x1="14.77" y1="47.96" x2="14.77" y2="49.91" gradientTransform="matrix(1, 0, 0, -1.72, 120.46, 187.67)" xlink:href="#未命名的渐变_26"/><linearGradient id="未命名的渐变_26-23" x1="14.77" y1="52.33" x2="14.77" y2="54.28" gradientTransform="matrix(1, 0, 0, -1.72, 120.46, 202.67)" xlink:href="#未命名的渐变_26"/><linearGradient id="未命名的渐变_26-24" x1="14.77" y1="31.44" x2="14.77" y2="33.39" gradientTransform="matrix(1, 0, 0, -1.72, 120.46, 131.02)" xlink:href="#未命名的渐变_26"/><linearGradient id="未命名的渐变_26-25" x1="14.77" y1="27.15" x2="14.77" y2="29.1" gradientTransform="matrix(1, 0, 0, -1.72, 120.46, 116.3)" xlink:href="#未命名的渐变_26"/><linearGradient id="未命名的渐变_26-26" x1="14.77" y1="22.86" x2="14.77" y2="24.81" gradientTransform="matrix(1, 0, 0, -1.72, 120.46, 101.58)" xlink:href="#未命名的渐变_26"/><linearGradient id="未命名的渐变_26-27" x1="14.77" y1="14.28" x2="14.77" y2="16.23" gradientTransform="matrix(1, 0, 0, -1.72, 120.46, 72.14)" xlink:href="#未命名的渐变_26"/><linearGradient id="未命名的渐变_26-28" x1="14.77" y1="18.65" x2="14.77" y2="20.6" gradientTransform="matrix(1, 0, 0, -1.72, 120.46, 87.13)" xlink:href="#未命名的渐变_26"/><linearGradient id="未命名的渐变_26-29" x1="14.77" y1="9.99" x2="14.77" y2="11.94" gradientTransform="matrix(1, 0, 0, -1.72, 120.46, 57.42)" xlink:href="#未命名的渐变_26"/><linearGradient id="未命名的渐变_26-30" x1="14.77" y1="5.7" x2="14.77" y2="7.65" gradientTransform="matrix(1, 0, 0, -1.72, 120.46, 42.7)" xlink:href="#未命名的渐变_26"/><linearGradient id="未命名的渐变_26-31" x1="14.77" y1="1.41" x2="14.77" y2="3.36" gradientTransform="matrix(1, 0, 0, -1.72, 120.46, 27.98)" xlink:href="#未命名的渐变_26"/></defs><title>Vortex blower(漩涡鼓风机)</title><g id="图层_2" data-name="图层 2"><g id="图层_16" data-name="图层 16"><g id="Vortex_blower_漩涡鼓风机_" data-name="Vortex blower(漩涡鼓风机)"><rect class="cls-1" x="32.54" y="96.06" width="84.76" height="38.83" transform="translate(149.84 230.95) rotate(180)"/><rect class="cls-2" x="23.62" y="100.56" width="8.93" height="26.23" transform="translate(56.16 227.35) rotate(-180)"/><path class="cls-3" d="M5.77,30.26H144.23v.26c3.25,2,5.77,15.86,5.77,32.64s-2.52,30.61-5.77,32.63v.27H14l-8.22-.27C2.52,93.77,0,79.94,0,63.16S5.77,30.26,5.77,30.26Z"/><rect class="cls-4" x="28.98" y="30.26" height="65.8"/><rect class="cls-4" x="12.21" y="30.26" height="65.8"/><path class="cls-5" d="M122.66,30.26h-3v65.8h3Z"/><rect class="cls-6" x="29.66" y="32.84" width="91.16" height="1.89" transform="translate(150.49 67.57) rotate(-180)"/><rect class="cls-7" x="29.66" y="88.49" width="91.16" height="1.89" transform="translate(150.49 178.88) rotate(-180)"/><rect class="cls-8" x="29.66" y="82.31" width="91.16" height="1.89" transform="translate(150.49 166.51) rotate(-180)"/><rect class="cls-9" x="29.66" y="76.13" width="91.16" height="1.89" transform="translate(150.49 154.14) rotate(-180)"/><rect class="cls-10" x="29.66" y="69.94" width="91.16" height="1.89" transform="translate(150.49 141.78) rotate(-180)"/><rect class="cls-11" x="29.66" y="63.76" width="91.16" height="1.89" transform="translate(150.49 129.41) rotate(-180)"/><rect class="cls-12" x="29.66" y="57.57" width="91.16" height="1.89" transform="translate(150.49 117.04) rotate(-180)"/><rect class="cls-13" x="29.66" y="51.39" width="91.16" height="1.89" transform="translate(150.49 104.67) rotate(-180)"/><rect class="cls-14" x="29.66" y="45.21" width="91.16" height="1.89" transform="translate(150.49 92.31) rotate(-180)"/><rect class="cls-15" x="29.66" y="39.02" width="91.16" height="1.89" transform="translate(150.49 79.94) rotate(-180)"/><rect class="cls-16" x="142.47" y="9.94" height="75.91"/><rect class="cls-17" x="132.21" y="10.32" width="5.97" height="1.74" transform="translate(270.4 22.38) rotate(-180)"/><rect class="cls-18" x="132.21" y="17.79" width="5.97" height="1.74" transform="translate(270.4 37.31) rotate(-180)"/><rect class="cls-19" x="132.21" y="25.25" width="5.97" height="1.74" transform="translate(270.4 52.25) rotate(-180)"/><rect class="cls-20" x="132.21" y="32.72" width="5.97" height="1.74" transform="translate(270.4 67.18) rotate(-180)"/><rect class="cls-21" x="132.21" y="40.19" width="5.97" height="1.74" transform="translate(270.4 82.12) rotate(-180)"/><rect class="cls-22" x="132.21" y="47.66" width="5.97" height="1.74" transform="translate(270.4 97.06) rotate(-180)"/><rect class="cls-23" x="132.21" y="55.12" width="5.97" height="1.74" transform="translate(270.4 111.99) rotate(-180)"/><path class="cls-24" d="M143.68.92h-22V112.84h22Z"/><path class="cls-25" d="M147.43.92h-22V112.84h22Z"/><path class="cls-26" d="M142.47.92h-4.28V112.84h4.28Z"/><path class="cls-27" d="M142.47.92h-4.28V112.84h4.28Z"/><path class="cls-5" d="M138.33.92h-1.88V112.84h1.88Z"/><rect class="cls-28" x="121.73" y="7.5" width="27" height="3.35" rx="0.68"/><rect class="cls-29" x="121.73" width="27" height="3.35" rx="0.68"/><rect class="cls-30" x="121.73" y="14.99" width="27" height="3.35" rx="0.68"/><rect class="cls-31" x="121.73" y="81.1" width="27" height="3.35" rx="0.68" transform="translate(270.46 165.54) rotate(180)"/><rect class="cls-32" x="121.73" y="87.07" width="27" height="3.35" rx="0.68" transform="translate(270.46 177.49) rotate(180)"/><rect class="cls-33" x="121.73" y="94.57" width="27" height="3.35" rx="0.68" transform="translate(270.46 192.48) rotate(180)"/><rect class="cls-34" x="121.73" y="102.06" width="27" height="3.35" rx="0.68" transform="translate(270.46 207.47) rotate(-180)"/><rect class="cls-35" x="121.73" y="109.56" width="27" height="3.35" rx="0.68" transform="translate(270.46 222.47) rotate(180)"/><rect class="cls-36" x="121.73" y="73.74" width="27" height="3.35" rx="0.68" transform="translate(270.46 150.82) rotate(180)"/><rect class="cls-37" x="121.73" y="66.38" width="27" height="3.35" rx="0.68" transform="translate(270.46 136.1) rotate(-180)"/><rect class="cls-38" x="121.73" y="59.02" width="27" height="3.35" rx="0.68" transform="translate(270.46 121.38) rotate(-180)"/><rect class="cls-39" x="121.73" y="44.3" width="27" height="3.35" rx="0.68" transform="translate(270.46 91.94) rotate(180)"/><rect class="cls-40" x="121.73" y="51.79" width="27" height="3.35" rx="0.68" transform="translate(270.46 106.93) rotate(180)"/><rect class="cls-41" x="121.73" y="36.94" width="27" height="3.35" rx="0.68" transform="translate(270.46 77.22) rotate(-180)"/><rect class="cls-42" x="121.73" y="29.58" width="27" height="3.35" rx="0.68" transform="translate(270.46 62.5) rotate(180)"/><rect class="cls-43" x="121.73" y="22.22" width="27" height="3.35" rx="0.68" transform="translate(270.46 47.78) rotate(-180)"/></g></g></g></svg>