<svg xmlns="http://www.w3.org/2000/svg" xmlns:xlink="http://www.w3.org/1999/xlink" viewBox="0 0 47.6 150"><defs><style>.cls-1{fill:url(#未命名的渐变_132);}.cls-2{fill:url(#未命名的渐变_132-2);}.cls-3{fill:url(#未命名的渐变_132-3);}.cls-20,.cls-4{opacity:0.2;}.cls-4{fill:url(#未命名的渐变_79);}.cls-5{fill:url(#未命名的渐变_132-4);}.cls-6{fill:url(#未命名的渐变_162);}.cls-7{fill:url(#未命名的渐变_20);}.cls-8{fill:url(#未命名的渐变_19);}.cls-9{fill:url(#未命名的渐变_323);}.cls-10{fill:url(#未命名的渐变_165);}.cls-11,.cls-13,.cls-14,.cls-15{stroke:#505458;stroke-miterlimit:10;stroke-width:0.08px;}.cls-11{fill:url(#未命名的渐变_303);}.cls-12{fill:#505458;}.cls-13{fill:url(#未命名的渐变_303-2);}.cls-14{fill:url(#未命名的渐变_303-3);}.cls-15{fill:url(#未命名的渐变_303-4);}.cls-16{fill:url(#未命名的渐变_241);}.cls-17{fill:#a3b372;}.cls-18{fill:#646e46;}.cls-19{fill:#fff;opacity:0.1;}</style><linearGradient id="未命名的渐变_132" x1="24.07" y1="-235.36" x2="24.07" y2="-216.89" gradientTransform="matrix(1, 0, 0, -2.73, 0, -493.23)" gradientUnits="userSpaceOnUse"><stop offset="0" stop-color="#a9b1bb"/><stop offset="0.06" stop-color="#5d6166"/><stop offset="0.78" stop-color="#e2eaf2"/><stop offset="0.93" stop-color="#9ba1ab"/><stop offset="1" stop-color="#767b82"/></linearGradient><linearGradient id="未命名的渐变_132-2" x1="16.44" y1="63" x2="31.16" y2="63" gradientTransform="matrix(1, 0, 0, 1, 0, 0)" xlink:href="#未命名的渐变_132"/><linearGradient id="未命名的渐变_132-3" x1="72.4" y1="-310.36" x2="72.4" y2="-330.74" gradientTransform="matrix(1, 0, 0, 1, -48.62, 412.03)" xlink:href="#未命名的渐变_132"/><linearGradient id="未命名的渐变_79" x1="74.37" y1="-320.55" x2="68.76" y2="-320.55" gradientTransform="matrix(1, 0, 0, 1, -47.8, 411.2)" gradientUnits="userSpaceOnUse"><stop offset="0" stop-color="#9ba1ab" stop-opacity="0"/><stop offset="1" stop-color="#2e3033"/></linearGradient><linearGradient id="未命名的渐变_132-4" x1="67.55" y1="-310.39" x2="67.55" y2="-330.77" gradientTransform="matrix(0, 1, -1, 0, -295.2, 19.08)" xlink:href="#未命名的渐变_132"/><linearGradient id="未命名的渐变_162" x1="12.09" y1="98.26" x2="35.5" y2="98.26" gradientTransform="translate(-74.46 122.06) rotate(-90)" gradientUnits="userSpaceOnUse"><stop offset="0" stop-color="#a9b1bb"/><stop offset="1" stop-color="#e2eaf2"/></linearGradient><linearGradient id="未命名的渐变_20" x1="23.75" y1="9.51" x2="23.75" y2="13.44" gradientUnits="userSpaceOnUse"><stop offset="0" stop-color="#767b82"/><stop offset="0.07" stop-color="#9ba1ab"/><stop offset="0.22" stop-color="#e2eaf2"/><stop offset="0.94" stop-color="#5d6166"/><stop offset="1" stop-color="#a9b1bb"/></linearGradient><linearGradient id="未命名的渐变_19" x1="26.38" y1="24.22" x2="17.87" y2="15.72" gradientUnits="userSpaceOnUse"><stop offset="0" stop-color="#e6f1ff" stop-opacity="0"/><stop offset="0.26" stop-color="#e6f1ff" stop-opacity="0.01"/><stop offset="0.4" stop-color="#e6f1ff" stop-opacity="0.04"/><stop offset="0.51" stop-color="#e7f1ff" stop-opacity="0.09"/><stop offset="0.6" stop-color="#e7f2ff" stop-opacity="0.17"/><stop offset="0.69" stop-color="#e8f2ff" stop-opacity="0.26"/><stop offset="0.76" stop-color="#e9f2ff" stop-opacity="0.38"/><stop offset="0.83" stop-color="#eaf3ff" stop-opacity="0.53"/><stop offset="0.9" stop-color="#ecf3ff" stop-opacity="0.69"/><stop offset="0.96" stop-color="#edf4ff" stop-opacity="0.87"/><stop offset="1" stop-color="#eef4ff"/></linearGradient><linearGradient id="未命名的渐变_323" x1="23.8" y1="43.28" x2="23.8" gradientUnits="userSpaceOnUse"><stop offset="0" stop-color="#5c6066"/><stop offset="1" stop-color="#f5faff"/></linearGradient><linearGradient id="未命名的渐变_165" x1="23.8" y1="43.28" x2="23.8" gradientUnits="userSpaceOnUse"><stop offset="0" stop-color="#8a9099"/><stop offset="1" stop-color="#f5faff"/></linearGradient><linearGradient id="未命名的渐变_303" x1="1018.06" y1="-449.06" x2="1018.06" y2="-447.6" gradientTransform="translate(-1032.99 -381.36) rotate(45)" gradientUnits="userSpaceOnUse"><stop offset="0" stop-color="#9ba1ab"/><stop offset="0" stop-color="#abb1ba"/><stop offset="0.09" stop-color="#abb1ba"/><stop offset="0.46" stop-color="#f5faff"/><stop offset="1" stop-color="#a9b1bb"/></linearGradient><linearGradient id="未命名的渐变_303-2" x1="1046.48" y1="-477.48" x2="1046.48" y2="-476.01" xlink:href="#未命名的渐变_303"/><linearGradient id="未命名的渐变_303-3" x1="1018.06" y1="-449.06" x2="1018.06" y2="-447.6" gradientTransform="translate(-378.87 1078.5) rotate(-45)" xlink:href="#未命名的渐变_303"/><linearGradient id="未命名的渐变_303-4" x1="1046.48" y1="-477.48" x2="1046.48" y2="-476.01" gradientTransform="translate(-378.87 1078.5) rotate(-45)" xlink:href="#未命名的渐变_303"/><linearGradient id="未命名的渐变_241" x1="23.8" y1="35.53" x2="23.8" y2="7.75" gradientUnits="userSpaceOnUse"><stop offset="0" stop-color="#494a4d"/><stop offset="1" stop-color="#17181a"/></linearGradient></defs><title>Vortex meter(涡流计)</title><g id="图层_2" data-name="图层 2"><g id="图层_16" data-name="图层 16"><g id="Vortex_meter_涡流计_" data-name="Vortex meter(涡流计)"><rect class="cls-1" x="7.36" y="99.52" width="33.41" height="50.48"/><rect class="cls-2" x="16.44" y="37.31" width="14.73" height="51.38"/><rect class="cls-3" x="20.15" y="81.29" width="7.26" height="20.39" transform="translate(115.27 67.7) rotate(90)"/><rect class="cls-4" x="20.98" y="80.46" width="5.61" height="20.39" transform="translate(114.44 66.87) rotate(90)"/><polygon class="cls-5" points="13.65 87.85 16.46 85.48 31.16 85.39 33.94 87.85 13.65 87.85"/><rect class="cls-6" x="20.66" y="86.55" width="6.29" height="23.41" transform="translate(122.06 74.46) rotate(90)"/><polygon class="cls-7" points="41.75 9.51 38.16 9.51 2.16 9.51 2.16 13.44 38.16 13.44 41.75 13.44 45.34 13.44 45.34 9.51 41.75 9.51"/><polygon class="cls-8" points="15.3 24.99 15.3 18.3 32.3 18.3 15.3 24.99"/><path class="cls-9" d="M45.37,19.9A21.64,21.64,0,0,0,25.74.09C25.1,0,24.45,0,23.8,0s-1,0-1.55.06a21.64,21.64,0,0,0-20,19.84c0,.58-.07,1.16-.07,1.75s0,1.16.07,1.73a21.64,21.64,0,0,0,20,19.85c.51,0,1,.05,1.55.05s1.3,0,1.94-.08A21.64,21.64,0,0,0,45.37,23.38c.05-.57.07-1.15.07-1.73S45.42,20.48,45.37,19.9ZM23.8,37.36A15.72,15.72,0,1,1,39.52,21.65,15.73,15.73,0,0,1,23.8,37.36Z"/><path class="cls-10" d="M45.37,19.9H42A18.34,18.34,0,0,0,25.74,3.44V.09C25.1,0,24.45,0,23.8,0s-1,0-1.55.06V3.41A18.33,18.33,0,0,0,5.58,19.9H2.23c0,.58-.07,1.16-.07,1.75s0,1.16.07,1.73H5.58a18.34,18.34,0,0,0,16.67,16.5v3.35c.51,0,1,.05,1.55.05s1.3,0,1.94-.08V39.84A18.33,18.33,0,0,0,42,23.38h3.35c.05-.57.07-1.15.07-1.73S45.42,20.48,45.37,19.9Z"/><circle class="cls-11" cx="3.9" cy="21.51" r="0.73"/><path class="cls-12" d="M3.63,21.15l.28.29.29-.29.06.06L4,21.5l.29.28-.06,0-.28-.28-.31.31-.06-.06.31-.31-.28-.29Z"/><circle class="cls-13" cx="44.09" cy="21.51" r="0.73"/><path class="cls-12" d="M43.82,21.15l.28.29.29-.29.06.06-.29.29.28.28,0,0-.28-.28-.31.31-.06-.06.31-.31-.28-.29Z"/><circle class="cls-14" cx="24" cy="41.6" r="0.73"/><path class="cls-12" d="M23.64,41.88l.29-.29-.29-.28.06-.06.29.28.28-.28.05,0-.28.28.31.31-.06.06L24,41.64l-.29.29Z"/><circle class="cls-15" cx="24" cy="1.41" r="0.73"/><path class="cls-12" d="M23.64,1.69l.29-.29-.29-.28.06-.06.29.28.28-.28.05.05L24,1.39l.31.32-.06.06L24,1.45l-.29.29Z"/><path class="cls-16" d="M37.69,21.65A13.89,13.89,0,1,1,23.8,7.75,13.9,13.9,0,0,1,37.69,21.65Z"/><rect class="cls-17" x="14.53" y="15.06" width="18.54" height="13.16"/><path class="cls-18" d="M32.8,15.33V28h-18V15.33h18m.54-.54H14.26v13.7H33.34V14.79Z"/><path class="cls-19" d="M33.66,11.85c-.19.42-.37.84-.58,1.25A38.21,38.21,0,0,1,15.26,30.92c-.31.15-.63.3-1,.44L14,31.5A13.89,13.89,0,1,1,33.66,11.85Z"/><path class="cls-19" d="M33.08,13.1A38.21,38.21,0,0,1,15.26,30.92c-4.94-5.25-5.1-13.27-.28-18.1S27.84,8.15,33.08,13.1Z"/></g></g></g></svg>