<svg xmlns="http://www.w3.org/2000/svg" xmlns:xlink="http://www.w3.org/1999/xlink" viewBox="0 0 150 130.36"><defs><style>.cls-1{fill:url(#未命名的渐变_105);}.cls-2{fill:url(#未命名的渐变_105-2);}.cls-3{fill:url(#未命名的渐变_105-3);}.cls-4{fill:url(#未命名的渐变_105-4);}.cls-5{fill:url(#未命名的渐变_105-5);}.cls-6{fill:url(#未命名的渐变_105-6);}.cls-7{fill:url(#未命名的渐变_105-7);}.cls-8{fill:url(#未命名的渐变_105-8);}.cls-9{opacity:0.2;}</style><linearGradient id="未命名的渐变_105" x1="70.08" y1="76.09" x2="70.08" y2="44.22" gradientUnits="userSpaceOnUse"><stop offset="0" stop-color="#e2e2e2"/><stop offset="0.03" stop-color="#d0d0d0"/><stop offset="0.06" stop-color="#bcbcbc"/><stop offset="0.09" stop-color="#b5b5b5"/><stop offset="0.49" stop-color="#f6f6f6"/><stop offset="0.63" stop-color="#f3f3f3"/><stop offset="0.73" stop-color="#eaeaea"/><stop offset="0.82" stop-color="#dbdbdb"/><stop offset="0.9" stop-color="#c6c6c6"/><stop offset="0.97" stop-color="#aaa"/><stop offset="1" stop-color="#9b9b9b"/></linearGradient><linearGradient id="未命名的渐变_105-2" x1="422.88" y1="-776.55" x2="464.85" y2="-776.55" gradientTransform="translate(-439.15 836.24)" xlink:href="#未命名的渐变_105"/><linearGradient id="未命名的渐变_105-3" x1="423.34" y1="-907.29" x2="465.32" y2="-907.29" gradientTransform="translate(-308.87 967.44)" xlink:href="#未命名的渐变_105"/><linearGradient id="未命名的渐变_105-4" x1="426.38" y1="-191.42" x2="426.38" y2="-223.3" gradientTransform="translate(-361.1 267.23)" xlink:href="#未命名的渐变_105"/><linearGradient id="未命名的渐变_105-5" x1="155.36" y1="-1132.84" x2="197.34" y2="-1132.84" gradientTransform="translate(-161.04 1150.55)" xlink:href="#未命名的渐变_105"/><linearGradient id="未命名的渐变_105-6" x1="155.83" y1="-1263.58" x2="197.81" y2="-1263.58" gradientTransform="translate(-61.27 1365.25)" xlink:href="#未命名的渐变_105"/><linearGradient id="未命名的渐变_105-7" x1="1028.02" y1="-785.06" x2="1070" y2="-785.06" gradientTransform="translate(-181.1 3944.63) scale(0.29 4.88)" xlink:href="#未命名的渐变_105"/><linearGradient id="未命名的渐变_105-8" x1="2542.54" y1="-861.49" x2="2584.52" y2="-861.49" gradientTransform="translate(-197.2 2828.01) scale(0.13 3.14)" xlink:href="#未命名的渐变_105"/></defs><title>Water filter（滤水器）</title><g id="图层_2" data-name="图层 2"><g id="图层_125" data-name="图层 125"><g id="Water_filter_滤水器_" data-name="Water filter（滤水器）"><rect class="cls-1" x="7.17" y="44.22" width="125.82" height="31.88"/><rect class="cls-2" x="-16.28" y="57.23" width="41.98" height="4.92" transform="translate(64.4 54.98) rotate(90)"/><rect class="cls-3" x="114.47" y="57.69" width="41.98" height="4.92" transform="translate(195.61 -75.3) rotate(90)"/><rect class="cls-4" x="2.37" y="43.93" width="125.82" height="31.88" transform="translate(53.37 -27.9) rotate(39.75)"/><rect class="cls-5" x="-5.68" y="15.25" width="41.98" height="4.92" transform="translate(38.72 17.26) rotate(129.75)"/><rect class="cls-6" x="94.55" y="99.2" width="41.98" height="4.92" transform="translate(267.59 77.83) rotate(129.75)"/><rect class="cls-7" x="121.14" y="98.17" width="12.34" height="24.05" transform="translate(293.44 82.77) rotate(129.75)"/><rect class="cls-8" x="139.5" y="115.55" width="5.56" height="15.46" transform="translate(328.04 92.71) rotate(129.75)"/></g></g></g></svg>