<svg xmlns="http://www.w3.org/2000/svg" xmlns:xlink="http://www.w3.org/1999/xlink" viewBox="0 0 149.95 147.57"><defs><style>.cls-1{fill:url(#未命名的渐变_74);}.cls-2{fill:#c1c1c1;}.cls-3,.cls-6{fill:#e9e9e9;}.cls-3{stroke:#999;stroke-miterlimit:10;stroke-width:0.25px;}.cls-4{fill:url(#未命名的渐变_74-2);}.cls-5{fill:url(#未命名的渐变_74-3);}.cls-7{fill:#a3a4a4;}.cls-8{opacity:0.2;}</style><linearGradient id="未命名的渐变_74" y1="73.79" x2="149.95" y2="73.79" gradientUnits="userSpaceOnUse"><stop offset="0" stop-color="#6b6b6b"/><stop offset="0.01" stop-color="#767676"/><stop offset="0.03" stop-color="#959595"/><stop offset="0.04" stop-color="#aaa"/><stop offset="0.37" stop-color="#ccc"/><stop offset="0.74" stop-color="#eaeaea"/><stop offset="0.94" stop-color="#f6f6f6"/><stop offset="0.95" stop-color="#ededed"/><stop offset="0.96" stop-color="#d4d4d4"/><stop offset="0.97" stop-color="#ababab"/><stop offset="0.99" stop-color="#737373"/><stop offset="0.99" stop-color="#666"/></linearGradient><linearGradient id="未命名的渐变_74-2" x1="60.5" y1="74.15" x2="84.68" y2="74.15" xlink:href="#未命名的渐变_74"/><linearGradient id="未命名的渐变_74-3" x1="84.68" y1="73.83" x2="91.25" y2="73.83" xlink:href="#未命名的渐变_74"/></defs><title>Water treatment basins (top view)（水处理池（俯视图））</title><g id="图层_2" data-name="图层 2"><g id="图层_125" data-name="图层 125"><g id="Water_treatment_basins_top_view_水处理池_俯视图_" data-name="Water treatment basins (top view)（水处理池（俯视图））"><rect class="cls-1" width="149.95" height="147.57"/><circle class="cls-2" cx="41.16" cy="40.96" r="30.8"/><circle class="cls-3" cx="41.16" cy="40.96" r="27.3"/><circle class="cls-2" cx="109.5" cy="40.96" r="30.8"/><circle class="cls-3" cx="109.5" cy="40.96" r="27.3"/><circle class="cls-2" cx="107.74" cy="107.54" r="30.8"/><circle class="cls-3" cx="107.74" cy="107.54" r="27.3"/><circle class="cls-2" cx="40.89" cy="107.54" r="30.8"/><circle class="cls-3" cx="40.89" cy="107.54" r="27.3"/><rect class="cls-4" x="60.5" y="65.9" width="24.17" height="16.49"/><rect class="cls-5" x="84.68" y="68.15" width="6.57" height="11.36"/><rect class="cls-2" x="36.1" y="35.9" width="9.58" height="9.58" transform="translate(-16.8 40.83) rotate(-45)"/><rect class="cls-6" x="37.13" y="36.93" width="7.53" height="7.53" transform="translate(-16.8 40.83) rotate(-45)"/><rect class="cls-7" x="48.54" y="35.31" width="6.07" height="32.13" transform="translate(-21.22 51.52) rotate(-45)"/><rect class="cls-2" x="104.98" y="35.9" width="9.58" height="9.58" transform="translate(60.92 -65.7) rotate(45)"/><rect class="cls-6" x="106" y="36.93" width="7.53" height="7.53" transform="translate(60.92 -65.7) rotate(45)"/><rect class="cls-7" x="96.04" y="35.31" width="6.07" height="32.13" transform="translate(65.35 -55.01) rotate(45)"/><rect class="cls-2" x="103.22" y="103.02" width="9.58" height="9.58" transform="translate(-44.6 107.95) rotate(-45)"/><rect class="cls-6" x="104.25" y="104.05" width="7.53" height="7.53" transform="translate(-44.6 107.95) rotate(-45)"/><rect class="cls-7" x="94.29" y="81.06" width="6.07" height="32.13" transform="translate(-40.17 97.27) rotate(-45)"/><rect class="cls-2" x="35.83" y="103.02" width="9.58" height="9.58" transform="translate(-6.89 212.77) rotate(-135)"/><rect class="cls-6" x="36.86" y="104.05" width="7.53" height="7.53" transform="translate(-6.89 212.77) rotate(-135)"/><rect class="cls-7" x="48.27" y="81.06" width="6.07" height="32.13" transform="translate(18.91 202.08) rotate(-135)"/></g></g></g></svg>