<svg xmlns="http://www.w3.org/2000/svg" xmlns:xlink="http://www.w3.org/1999/xlink" viewBox="0 0 149.52 96.92"><defs><style>.cls-1{fill:url(#未命名的渐变_105);}.cls-2{fill:url(#未命名的渐变_105-2);}.cls-3{fill:url(#未命名的渐变_105-3);}.cls-4{fill:url(#未命名的渐变_105-4);}.cls-5{fill:url(#未命名的渐变_105-5);}.cls-6{fill:url(#未命名的渐变_105-6);}.cls-7{fill:url(#未命名的渐变_105-7);}.cls-8{fill:url(#未命名的渐变_105-8);}.cls-9{fill:url(#未命名的渐变_105-9);}.cls-10{fill:url(#未命名的渐变_105-10);}.cls-11{fill:url(#未命名的渐变_74);}.cls-12{fill:url(#未命名的渐变_74-2);}.cls-13{fill:#3d3b3b;}.cls-14{fill:url(#未命名的渐变_105-11);}.cls-15{fill:url(#未命名的渐变_105-12);}.cls-16{fill:url(#未命名的渐变_105-13);}.cls-17{fill:url(#未命名的渐变_105-14);}.cls-18{fill:url(#未命名的渐变_105-15);}.cls-19{fill:url(#未命名的渐变_67);}.cls-20{fill:url(#未命名的渐变_67-2);}.cls-21{fill:url(#未命名的渐变_67-3);}.cls-22{fill:url(#未命名的渐变_105-16);}.cls-23{fill:url(#未命名的渐变_67-4);}.cls-24{fill:url(#未命名的渐变_105-17);}.cls-25{fill:url(#未命名的渐变_67-5);}.cls-26{fill:url(#未命名的渐变_105-18);}.cls-27{fill:url(#未命名的渐变_67-6);}.cls-28{fill:url(#未命名的渐变_105-19);}.cls-29{fill:url(#未命名的渐变_67-7);}.cls-30{fill:url(#未命名的渐变_105-20);}.cls-31{fill:url(#未命名的渐变_67-8);}.cls-32{fill:url(#未命名的渐变_105-21);}.cls-33{fill:url(#未命名的渐变_67-9);}.cls-34{fill:url(#未命名的渐变_105-22);}.cls-35{fill:url(#未命名的渐变_67-10);}.cls-36{fill:url(#未命名的渐变_105-23);}.cls-37{fill:url(#未命名的渐变_67-11);}.cls-38{fill:url(#未命名的渐变_105-24);}.cls-39{fill:url(#未命名的渐变_67-12);}.cls-40{fill:url(#未命名的渐变_105-25);}.cls-41{fill:url(#未命名的渐变_67-13);}.cls-42{fill:#c1c1c1;}.cls-43{fill:url(#未命名的渐变_105-26);}.cls-44{fill:url(#未命名的渐变_105-27);}.cls-45{fill:url(#未命名的渐变_105-28);}.cls-46{fill:url(#未命名的渐变_105-29);}.cls-47{fill:url(#未命名的渐变_67-14);}.cls-48{fill:url(#未命名的渐变_67-15);}.cls-49{fill:url(#未命名的渐变_67-16);}.cls-50{fill:url(#未命名的渐变_105-30);}.cls-51{fill:url(#未命名的渐变_67-17);}.cls-52{fill:url(#未命名的渐变_105-31);}.cls-53{fill:url(#未命名的渐变_67-18);}.cls-54{fill:url(#未命名的渐变_105-32);}.cls-55{fill:url(#未命名的渐变_67-19);}.cls-56{fill:url(#未命名的渐变_105-33);}.cls-57{fill:url(#未命名的渐变_67-20);}.cls-58{fill:url(#未命名的渐变_105-34);}.cls-59{fill:url(#未命名的渐变_67-21);}.cls-60{fill:url(#未命名的渐变_105-35);}.cls-61{fill:url(#未命名的渐变_67-22);}.cls-62{fill:url(#未命名的渐变_105-36);}.cls-63{fill:url(#未命名的渐变_67-23);}.cls-64{fill:url(#未命名的渐变_105-37);}.cls-65{fill:url(#未命名的渐变_67-24);}.cls-66{fill:url(#未命名的渐变_105-38);}.cls-67{fill:url(#未命名的渐变_67-25);}.cls-68{fill:url(#未命名的渐变_105-39);}.cls-69{fill:url(#未命名的渐变_67-26);}.cls-70{fill:url(#未命名的渐变_74-3);}.cls-71{opacity:0.2;}</style><linearGradient id="未命名的渐变_105" x1="37.96" y1="20.01" x2="58.17" y2="20.01" gradientUnits="userSpaceOnUse"><stop offset="0" stop-color="#e2e2e2"/><stop offset="0.03" stop-color="#d0d0d0"/><stop offset="0.06" stop-color="#bcbcbc"/><stop offset="0.09" stop-color="#b5b5b5"/><stop offset="0.49" stop-color="#f6f6f6"/><stop offset="0.63" stop-color="#f3f3f3"/><stop offset="0.73" stop-color="#eaeaea"/><stop offset="0.82" stop-color="#dbdbdb"/><stop offset="0.9" stop-color="#c6c6c6"/><stop offset="0.97" stop-color="#aaa"/><stop offset="1" stop-color="#9b9b9b"/></linearGradient><linearGradient id="未命名的渐变_105-2" x1="38.72" y1="26.82" x2="57.22" y2="26.82" xlink:href="#未命名的渐变_105"/><linearGradient id="未命名的渐变_105-3" x1="61.73" y1="20.01" x2="81.94" y2="20.01" xlink:href="#未命名的渐变_105"/><linearGradient id="未命名的渐变_105-4" x1="62.48" y1="26.82" x2="80.99" y2="26.82" xlink:href="#未命名的渐变_105"/><linearGradient id="未命名的渐变_105-5" x1="85.49" y1="20.01" x2="105.7" y2="20.01" xlink:href="#未命名的渐变_105"/><linearGradient id="未命名的渐变_105-6" x1="86.25" y1="26.82" x2="104.75" y2="26.82" xlink:href="#未命名的渐变_105"/><linearGradient id="未命名的渐变_105-7" x1="109.26" y1="20.01" x2="129.47" y2="20.01" xlink:href="#未命名的渐变_105"/><linearGradient id="未命名的渐变_105-8" x1="110.01" y1="26.82" x2="128.52" y2="26.82" xlink:href="#未命名的渐变_105"/><linearGradient id="未命名的渐变_105-9" x1="14.3" y1="20.01" x2="34.51" y2="20.01" xlink:href="#未命名的渐变_105"/><linearGradient id="未命名的渐变_105-10" x1="15.05" y1="26.82" x2="33.56" y2="26.82" xlink:href="#未命名的渐变_105"/><linearGradient id="未命名的渐变_74" x1="9.42" y1="64.48" x2="133.57" y2="64.48" gradientUnits="userSpaceOnUse"><stop offset="0" stop-color="#6b6b6b"/><stop offset="0.01" stop-color="#767676"/><stop offset="0.03" stop-color="#959595"/><stop offset="0.04" stop-color="#aaa"/><stop offset="0.37" stop-color="#ccc"/><stop offset="0.74" stop-color="#eaeaea"/><stop offset="0.94" stop-color="#f6f6f6"/><stop offset="0.95" stop-color="#ededed"/><stop offset="0.96" stop-color="#d4d4d4"/><stop offset="0.97" stop-color="#ababab"/><stop offset="0.99" stop-color="#737373"/><stop offset="0.99" stop-color="#666"/></linearGradient><linearGradient id="未命名的渐变_74-2" x1="133.57" y1="49.09" x2="146.81" y2="49.09" xlink:href="#未命名的渐变_74"/><linearGradient id="未命名的渐变_105-11" x1="10.08" y1="66" x2="11.14" y2="66" xlink:href="#未命名的渐变_105"/><linearGradient id="未命名的渐变_105-12" x1="1.4" y1="69.58" x2="6.82" y2="69.58" xlink:href="#未命名的渐变_105"/><linearGradient id="未命名的渐变_105-13" x1="633.48" y1="-1475.36" x2="634.43" y2="-1475.36" gradientTransform="translate(-562.64 1539.77)" xlink:href="#未命名的渐变_105"/><linearGradient id="未命名的渐变_105-14" x1="20.2" y1="66" x2="21.26" y2="66" xlink:href="#未命名的渐变_105"/><linearGradient id="未命名的渐变_105-15" x1="30.48" y1="65.67" x2="31.55" y2="65.67" xlink:href="#未命名的渐变_105"/><linearGradient id="未命名的渐变_67" x1="10.39" y1="64.66" x2="11.1" y2="64.66" gradientUnits="userSpaceOnUse"><stop offset="0" stop-color="#6b6b6b"/><stop offset="0.11" stop-color="#767676"/><stop offset="0.3" stop-color="#959595"/><stop offset="0.41" stop-color="#aaa"/><stop offset="0.56" stop-color="#ccc"/><stop offset="0.71" stop-color="#eaeaea"/><stop offset="0.8" stop-color="#f6f6f6"/><stop offset="0.83" stop-color="#ededed"/><stop offset="0.87" stop-color="#d4d4d4"/><stop offset="0.92" stop-color="#ababab"/><stop offset="0.98" stop-color="#737373"/><stop offset="0.99" stop-color="#666"/></linearGradient><linearGradient id="未命名的渐变_67-2" x1="20.51" y1="64.66" x2="21.22" y2="64.66" xlink:href="#未命名的渐变_67"/><linearGradient id="未命名的渐变_67-3" x1="30.8" y1="64.33" x2="31.51" y2="64.33" xlink:href="#未命名的渐变_67"/><linearGradient id="未命名的渐变_105-16" x1="40.69" y1="65.67" x2="41.76" y2="65.67" xlink:href="#未命名的渐变_105"/><linearGradient id="未命名的渐变_67-4" x1="41" y1="64.33" x2="41.71" y2="64.33" xlink:href="#未命名的渐变_67"/><linearGradient id="未命名的渐变_105-17" x1="50.89" y1="65.67" x2="51.96" y2="65.67" xlink:href="#未命名的渐变_105"/><linearGradient id="未命名的渐变_67-5" x1="51.2" y1="64.33" x2="51.92" y2="64.33" xlink:href="#未命名的渐变_67"/><linearGradient id="未命名的渐变_105-18" x1="61.1" y1="65.67" x2="62.16" y2="65.67" xlink:href="#未命名的渐变_105"/><linearGradient id="未命名的渐变_67-6" x1="61.41" y1="64.33" x2="62.12" y2="64.33" xlink:href="#未命名的渐变_67"/><linearGradient id="未命名的渐变_105-19" x1="71.3" y1="65.67" x2="72.37" y2="65.67" xlink:href="#未命名的渐变_105"/><linearGradient id="未命名的渐变_67-7" x1="71.61" y1="64.33" x2="72.32" y2="64.33" xlink:href="#未命名的渐变_67"/><linearGradient id="未命名的渐变_105-20" x1="81.5" y1="65.67" x2="82.57" y2="65.67" xlink:href="#未命名的渐变_105"/><linearGradient id="未命名的渐变_67-8" x1="81.82" y1="64.33" x2="82.53" y2="64.33" xlink:href="#未命名的渐变_67"/><linearGradient id="未命名的渐变_105-21" x1="91.71" y1="65.67" x2="92.78" y2="65.67" xlink:href="#未命名的渐变_105"/><linearGradient id="未命名的渐变_67-9" x1="92.02" y1="64.33" x2="92.73" y2="64.33" xlink:href="#未命名的渐变_67"/><linearGradient id="未命名的渐变_105-22" x1="101.91" y1="65.67" x2="102.98" y2="65.67" xlink:href="#未命名的渐变_105"/><linearGradient id="未命名的渐变_67-10" x1="102.22" y1="64.33" x2="102.93" y2="64.33" xlink:href="#未命名的渐变_67"/><linearGradient id="未命名的渐变_105-23" x1="112.12" y1="65.67" x2="113.18" y2="65.67" xlink:href="#未命名的渐变_105"/><linearGradient id="未命名的渐变_67-11" x1="112.43" y1="64.33" x2="113.14" y2="64.33" xlink:href="#未命名的渐变_67"/><linearGradient id="未命名的渐变_105-24" x1="122.32" y1="65.67" x2="123.39" y2="65.67" xlink:href="#未命名的渐变_105"/><linearGradient id="未命名的渐变_67-12" x1="122.63" y1="64.33" x2="123.34" y2="64.33" xlink:href="#未命名的渐变_67"/><linearGradient id="未命名的渐变_105-25" x1="131.49" y1="65.92" x2="132.56" y2="65.92" xlink:href="#未命名的渐变_105"/><linearGradient id="未命名的渐变_67-13" x1="131.8" y1="64.58" x2="132.51" y2="64.58" xlink:href="#未命名的渐变_67"/><linearGradient id="未命名的渐变_105-26" x1="10.08" y1="30.43" x2="11.14" y2="30.43" xlink:href="#未命名的渐变_105"/><linearGradient id="未命名的渐变_105-27" x1="597.92" y1="-1475.36" x2="598.86" y2="-1475.36" gradientTransform="translate(-527.07 1504.2)" xlink:href="#未命名的渐变_105"/><linearGradient id="未命名的渐变_105-28" x1="20.2" y1="30.43" x2="21.26" y2="30.43" xlink:href="#未命名的渐变_105"/><linearGradient id="未命名的渐变_105-29" x1="30.48" y1="30.1" x2="31.55" y2="30.1" xlink:href="#未命名的渐变_105"/><linearGradient id="未命名的渐变_67-14" x1="10.39" y1="29.09" x2="11.1" y2="29.09" xlink:href="#未命名的渐变_67"/><linearGradient id="未命名的渐变_67-15" x1="20.51" y1="29.09" x2="21.22" y2="29.09" xlink:href="#未命名的渐变_67"/><linearGradient id="未命名的渐变_67-16" x1="30.8" y1="28.76" x2="31.51" y2="28.76" xlink:href="#未命名的渐变_67"/><linearGradient id="未命名的渐变_105-30" x1="40.69" y1="30.1" x2="41.76" y2="30.1" xlink:href="#未命名的渐变_105"/><linearGradient id="未命名的渐变_67-17" x1="41" y1="28.76" x2="41.71" y2="28.76" xlink:href="#未命名的渐变_67"/><linearGradient id="未命名的渐变_105-31" x1="50.89" y1="30.1" x2="51.96" y2="30.1" xlink:href="#未命名的渐变_105"/><linearGradient id="未命名的渐变_67-18" x1="51.2" y1="28.76" x2="51.92" y2="28.76" xlink:href="#未命名的渐变_67"/><linearGradient id="未命名的渐变_105-32" x1="61.1" y1="30.1" x2="62.16" y2="30.1" xlink:href="#未命名的渐变_105"/><linearGradient id="未命名的渐变_67-19" x1="61.41" y1="28.76" x2="62.12" y2="28.76" xlink:href="#未命名的渐变_67"/><linearGradient id="未命名的渐变_105-33" x1="71.3" y1="30.1" x2="72.37" y2="30.1" xlink:href="#未命名的渐变_105"/><linearGradient id="未命名的渐变_67-20" x1="71.61" y1="28.76" x2="72.32" y2="28.76" xlink:href="#未命名的渐变_67"/><linearGradient id="未命名的渐变_105-34" x1="81.5" y1="30.1" x2="82.57" y2="30.1" xlink:href="#未命名的渐变_105"/><linearGradient id="未命名的渐变_67-21" x1="81.82" y1="28.76" x2="82.53" y2="28.76" xlink:href="#未命名的渐变_67"/><linearGradient id="未命名的渐变_105-35" x1="91.71" y1="30.1" x2="92.78" y2="30.1" xlink:href="#未命名的渐变_105"/><linearGradient id="未命名的渐变_67-22" x1="92.02" y1="28.76" x2="92.73" y2="28.76" xlink:href="#未命名的渐变_67"/><linearGradient id="未命名的渐变_105-36" x1="101.91" y1="30.1" x2="102.98" y2="30.1" xlink:href="#未命名的渐变_105"/><linearGradient id="未命名的渐变_67-23" x1="102.22" y1="28.76" x2="102.93" y2="28.76" xlink:href="#未命名的渐变_67"/><linearGradient id="未命名的渐变_105-37" x1="112.12" y1="30.1" x2="113.18" y2="30.1" xlink:href="#未命名的渐变_105"/><linearGradient id="未命名的渐变_67-24" x1="112.43" y1="28.76" x2="113.14" y2="28.76" xlink:href="#未命名的渐变_67"/><linearGradient id="未命名的渐变_105-38" x1="122.32" y1="30.1" x2="123.39" y2="30.1" xlink:href="#未命名的渐变_105"/><linearGradient id="未命名的渐变_67-25" x1="122.63" y1="28.76" x2="123.34" y2="28.76" xlink:href="#未命名的渐变_67"/><linearGradient id="未命名的渐变_105-39" x1="131.49" y1="30.35" x2="132.56" y2="30.35" xlink:href="#未命名的渐变_105"/><linearGradient id="未命名的渐变_67-26" x1="131.8" y1="29.01" x2="132.51" y2="29.01" xlink:href="#未命名的渐变_67"/><linearGradient id="未命名的渐变_74-3" x1="0" y1="95.7" x2="149.52" y2="95.7" xlink:href="#未命名的渐变_74"/></defs><title>Water treatment plant（水处理厂）</title><g id="图层_2" data-name="图层 2"><g id="图层_125" data-name="图层 125"><g id="Water_treatment_plant_水处理厂_" data-name="Water treatment plant（水处理厂）"><rect class="cls-1" x="37.96" y="19.19" width="20.21" height="1.64"/><polygon class="cls-2" points="54.57 32.8 41.87 32.8 38.72 20.83 57.22 20.83 54.57 32.8"/><rect class="cls-3" x="61.73" y="19.19" width="20.21" height="1.64"/><polygon class="cls-4" points="78.33 32.8 65.63 32.8 62.48 20.83 80.99 20.83 78.33 32.8"/><rect class="cls-5" x="85.49" y="19.19" width="20.21" height="1.64"/><polygon class="cls-6" points="102.09 32.8 89.4 32.8 86.25 20.83 104.75 20.83 102.09 32.8"/><rect class="cls-7" x="109.26" y="19.19" width="20.21" height="1.64"/><polygon class="cls-8" points="125.86 32.8 113.16 32.8 110.01 20.83 128.52 20.83 125.86 32.8"/><rect class="cls-9" x="14.3" y="19.19" width="20.21" height="1.64"/><polygon class="cls-10" points="30.9 32.8 18.2 32.8 15.05 20.83 33.56 20.83 30.9 32.8"/><rect class="cls-11" x="9.42" y="34.48" width="124.15" height="60"/><rect class="cls-12" x="133.57" y="3.71" width="13.23" height="90.77"/><rect class="cls-13" x="11.26" y="70.05" width="19.49" height="22.55"/><rect class="cls-13" x="33.66" y="70.05" width="23.16" height="22.55"/><rect class="cls-13" x="59.91" y="70.05" width="23.16" height="22.55"/><rect class="cls-13" x="86.17" y="70.05" width="23.16" height="22.55"/><rect class="cls-13" x="112.43" y="70.05" width="18.65" height="22.55"/><rect class="cls-14" x="10.08" y="62.94" width="1.07" height="6.11"/><rect class="cls-15" x="1.4" y="44.68" width="5.42" height="49.81"/><rect class="cls-16" x="70.84" y="3.17" width="0.95" height="122.48" transform="translate(135.72 -6.91) rotate(90)"/><rect class="cls-17" x="20.2" y="62.94" width="1.07" height="6.11"/><rect class="cls-18" x="30.48" y="62.62" width="1.07" height="6.11"/><circle class="cls-19" cx="10.61" cy="64.66" r="0.47"/><circle class="cls-20" cx="20.73" cy="64.66" r="0.47"/><circle class="cls-21" cx="31.02" cy="64.33" r="0.47"/><rect class="cls-22" x="40.69" y="62.62" width="1.07" height="6.11"/><circle class="cls-23" cx="41.22" cy="64.33" r="0.47"/><rect class="cls-24" x="50.89" y="62.62" width="1.07" height="6.11"/><circle class="cls-25" cx="51.43" cy="64.33" r="0.47"/><rect class="cls-26" x="61.1" y="62.62" width="1.07" height="6.11"/><circle class="cls-27" cx="61.63" cy="64.33" r="0.47"/><rect class="cls-28" x="71.3" y="62.62" width="1.07" height="6.11"/><circle class="cls-29" cx="71.83" cy="64.33" r="0.47"/><rect class="cls-30" x="81.5" y="62.62" width="1.07" height="6.11"/><circle class="cls-31" cx="82.04" cy="64.33" r="0.47"/><rect class="cls-32" x="91.71" y="62.62" width="1.07" height="6.11"/><circle class="cls-33" cx="92.24" cy="64.33" r="0.47"/><rect class="cls-34" x="101.91" y="62.62" width="1.07" height="6.11"/><circle class="cls-35" cx="102.45" cy="64.33" r="0.47"/><rect class="cls-36" x="112.12" y="62.62" width="1.07" height="6.11"/><circle class="cls-37" cx="112.65" cy="64.33" r="0.47"/><rect class="cls-38" x="122.32" y="62.62" width="1.07" height="6.11"/><circle class="cls-39" cx="122.85" cy="64.33" r="0.47"/><rect class="cls-40" x="131.49" y="62.86" width="1.07" height="6.11"/><circle class="cls-41" cx="132.02" cy="64.58" r="0.47"/><rect class="cls-42" x="9.42" y="68.37" width="124.15" height="1.68"/><rect class="cls-43" x="10.08" y="27.38" width="1.07" height="6.11"/><rect class="cls-44" x="70.84" y="-32.4" width="0.95" height="122.48" transform="translate(100.16 -42.48) rotate(90)"/><rect class="cls-45" x="20.2" y="27.38" width="1.07" height="6.11"/><rect class="cls-46" x="30.48" y="27.05" width="1.07" height="6.11"/><circle class="cls-47" cx="10.61" cy="29.09" r="0.47"/><circle class="cls-48" cx="20.73" cy="29.09" r="0.47"/><circle class="cls-49" cx="31.02" cy="28.76" r="0.47"/><rect class="cls-50" x="40.69" y="27.05" width="1.07" height="6.11"/><circle class="cls-51" cx="41.22" cy="28.76" r="0.47"/><rect class="cls-52" x="50.89" y="27.05" width="1.07" height="6.11"/><circle class="cls-53" cx="51.43" cy="28.76" r="0.47"/><rect class="cls-54" x="61.1" y="27.05" width="1.07" height="6.11"/><circle class="cls-55" cx="61.63" cy="28.76" r="0.47"/><rect class="cls-56" x="71.3" y="27.05" width="1.07" height="6.11"/><circle class="cls-57" cx="71.83" cy="28.76" r="0.47"/><rect class="cls-58" x="81.5" y="27.05" width="1.07" height="6.11"/><circle class="cls-59" cx="82.04" cy="28.76" r="0.47"/><rect class="cls-60" x="91.71" y="27.05" width="1.07" height="6.11"/><circle class="cls-61" cx="92.24" cy="28.76" r="0.47"/><rect class="cls-62" x="101.91" y="27.05" width="1.07" height="6.11"/><circle class="cls-63" cx="102.45" cy="28.76" r="0.47"/><rect class="cls-64" x="112.12" y="27.05" width="1.07" height="6.11"/><circle class="cls-65" cx="112.65" cy="28.76" r="0.47"/><rect class="cls-66" x="122.32" y="27.05" width="1.07" height="6.11"/><circle class="cls-67" cx="122.85" cy="28.76" r="0.47"/><rect class="cls-68" x="131.49" y="27.3" width="1.07" height="6.11"/><circle class="cls-69" cx="132.02" cy="29.01" r="0.47"/><rect class="cls-42" x="9.42" y="32.8" width="124.15" height="1.68"/><rect class="cls-70" y="94.48" width="149.52" height="2.44"/><rect class="cls-42" x="133.57" y="2.26" width="13.61" height="1.44"/><rect class="cls-42" x="130.82" width="18.31" height="2.26"/></g></g></g></svg>