<svg xmlns="http://www.w3.org/2000/svg" xmlns:xlink="http://www.w3.org/1999/xlink" viewBox="0 0 103.52 150"><defs><style>.cls-1{fill:url(#未命名的渐变_105);}.cls-2{fill:url(#未命名的渐变_105-2);}.cls-3{fill:url(#未命名的渐变_74);}.cls-4{fill:url(#未命名的渐变_105-3);}.cls-5{fill:url(#未命名的渐变_67);}.cls-6{fill:url(#未命名的渐变_105-4);}.cls-7{fill:url(#未命名的渐变_105-5);}.cls-8{fill:url(#未命名的渐变_67-2);}.cls-9{fill:url(#未命名的渐变_105-6);}.cls-10{fill:url(#未命名的渐变_105-7);}.cls-11{fill:url(#未命名的渐变_74-2);}.cls-12{fill:url(#未命名的渐变_67-3);}.cls-13{fill:url(#未命名的渐变_105-8);}.cls-14{fill:url(#未命名的渐变_105-9);}.cls-15{fill:url(#未命名的渐变_13);}.cls-16{fill:url(#未命名的渐变_105-10);}.cls-17{fill:url(#未命名的渐变_105-11);}.cls-18{fill:url(#未命名的渐变_105-12);}.cls-19{fill:url(#未命名的渐变_105-13);}.cls-20{fill:url(#未命名的渐变_105-14);}.cls-21{fill:url(#未命名的渐变_105-15);}.cls-22{fill:url(#未命名的渐变_67-4);}.cls-23{fill:url(#未命名的渐变_105-16);}.cls-24{fill:url(#未命名的渐变_105-17);}.cls-25{fill:url(#未命名的渐变_105-18);}.cls-26{fill:url(#未命名的渐变_105-19);}.cls-27{fill:url(#未命名的渐变_105-20);}.cls-28{fill:url(#未命名的渐变_105-21);}.cls-29{fill:url(#未命名的渐变_105-22);}.cls-30{fill:url(#未命名的渐变_67-5);}.cls-31{fill:url(#未命名的渐变_105-23);}.cls-32{fill:url(#未命名的渐变_105-24);}.cls-33{fill:url(#未命名的渐变_105-25);}.cls-34{fill:url(#未命名的渐变_105-26);}.cls-35{fill:url(#未命名的渐变_105-27);}.cls-36{fill:url(#未命名的渐变_105-28);}.cls-37{fill:url(#未命名的渐变_105-29);}.cls-38{fill:url(#未命名的渐变_67-6);}.cls-39{fill:#adb2b3;}.cls-40{fill:url(#未命名的渐变_67-7);}.cls-41{fill:url(#未命名的渐变_67-8);}.cls-42{fill:url(#未命名的渐变_105-30);}.cls-43{fill:url(#未命名的渐变_67-9);}.cls-44{fill:url(#未命名的渐变_105-31);}.cls-45{fill:url(#未命名的渐变_74-3);}.cls-46{fill:url(#未命名的渐变_105-32);}.cls-47{fill:url(#未命名的渐变_105-33);}.cls-48{fill:url(#未命名的渐变_105-34);}.cls-49{fill:url(#未命名的渐变_105-35);}.cls-50{fill:url(#未命名的渐变_105-36);}.cls-51{fill:url(#未命名的渐变_105-37);}.cls-52{fill:url(#未命名的渐变_105-38);}.cls-53{fill:url(#未命名的渐变_105-39);}.cls-54{fill:url(#未命名的渐变_105-40);}.cls-55{fill:url(#未命名的渐变_67-10);}.cls-56{fill:url(#未命名的渐变_67-11);}.cls-57{fill:url(#未命名的渐变_105-41);}.cls-58{fill:url(#未命名的渐变_105-42);}.cls-59{fill:url(#未命名的渐变_67-12);}.cls-60{fill:url(#未命名的渐变_67-13);}.cls-61{fill:url(#未命名的渐变_105-43);}.cls-62{opacity:0.2;}</style><linearGradient id="未命名的渐变_105" x1="-61.57" y1="8.35" x2="-57.8" y2="8.35" gradientTransform="matrix(1, 0, 0, -1, 136.47, 16.7)" gradientUnits="userSpaceOnUse"><stop offset="0" stop-color="#e2e2e2"/><stop offset="0.03" stop-color="#d0d0d0"/><stop offset="0.06" stop-color="#bcbcbc"/><stop offset="0.09" stop-color="#b5b5b5"/><stop offset="0.49" stop-color="#f6f6f6"/><stop offset="0.63" stop-color="#f3f3f3"/><stop offset="0.73" stop-color="#eaeaea"/><stop offset="0.82" stop-color="#dbdbdb"/><stop offset="0.9" stop-color="#c6c6c6"/><stop offset="0.97" stop-color="#aaa"/><stop offset="1" stop-color="#9b9b9b"/></linearGradient><linearGradient id="未命名的渐变_105-2" x1="28.22" y1="8.35" x2="31.99" y2="8.35" gradientTransform="matrix(1, 0, 0, 1, 0, 0)" xlink:href="#未命名的渐变_105"/><linearGradient id="未命名的渐变_74" x1="3.31" y1="40.83" x2="100.32" y2="40.83" gradientUnits="userSpaceOnUse"><stop offset="0" stop-color="#6b6b6b"/><stop offset="0.01" stop-color="#767676"/><stop offset="0.03" stop-color="#959595"/><stop offset="0.04" stop-color="#aaa"/><stop offset="0.37" stop-color="#ccc"/><stop offset="0.74" stop-color="#eaeaea"/><stop offset="0.94" stop-color="#f6f6f6"/><stop offset="0.95" stop-color="#ededed"/><stop offset="0.96" stop-color="#d4d4d4"/><stop offset="0.97" stop-color="#ababab"/><stop offset="0.99" stop-color="#737373"/><stop offset="0.99" stop-color="#666"/></linearGradient><linearGradient id="未命名的渐变_105-3" x1="83.63" y1="22.48" x2="83.63" y2="11.08" gradientTransform="matrix(1, 0, 0, 1, 0, 0)" xlink:href="#未命名的渐变_105"/><linearGradient id="未命名的渐变_67" x1="88.89" y1="22.03" x2="88.89" y2="10.63" gradientUnits="userSpaceOnUse"><stop offset="0" stop-color="#6b6b6b"/><stop offset="0.11" stop-color="#767676"/><stop offset="0.3" stop-color="#959595"/><stop offset="0.41" stop-color="#aaa"/><stop offset="0.56" stop-color="#ccc"/><stop offset="0.71" stop-color="#eaeaea"/><stop offset="0.8" stop-color="#f6f6f6"/><stop offset="0.83" stop-color="#ededed"/><stop offset="0.87" stop-color="#d4d4d4"/><stop offset="0.92" stop-color="#ababab"/><stop offset="0.98" stop-color="#737373"/><stop offset="0.99" stop-color="#666"/></linearGradient><linearGradient id="未命名的渐变_105-4" x1="865.56" y1="-909.57" x2="879.95" y2="-909.57" gradientTransform="translate(-858.8 -856.55) rotate(90)" xlink:href="#未命名的渐变_105"/><linearGradient id="未命名的渐变_105-5" x1="87.57" y1="43.27" x2="87.57" y2="21.42" gradientTransform="matrix(1, 0, 0, 1, 0, 0)" xlink:href="#未命名的渐变_105"/><linearGradient id="未命名的渐变_67-2" x1="879.95" y1="-912.3" x2="894.71" y2="-912.3" gradientTransform="translate(-858.8 -856.55) rotate(90)" xlink:href="#未命名的渐变_67"/><linearGradient id="未命名的渐变_105-6" x1="301.97" y1="-2193.66" x2="310.17" y2="-2201.86" gradientTransform="matrix(1, 0, 0, -1, -293.37, -2164.53)" xlink:href="#未命名的渐变_105"/><linearGradient id="未命名的渐变_105-7" x1="252.88" y1="-2166.72" x2="256.4" y2="-2170.24" gradientTransform="translate(283.6 -2164.53) rotate(180)" xlink:href="#未命名的渐变_105"/><linearGradient id="未命名的渐变_74-2" x1="73.66" y1="55.01" x2="96.3" y2="55.01" xlink:href="#未命名的渐变_74"/><linearGradient id="未命名的渐变_67-3" x1="30.53" y1="57.97" x2="30.53" y2="38.62" xlink:href="#未命名的渐变_67"/><linearGradient id="未命名的渐变_105-8" x1="35.97" y1="54.6" x2="35.97" y2="38.62" gradientTransform="matrix(1, 0, 0, 1, 0, 0)" xlink:href="#未命名的渐变_105"/><linearGradient id="未命名的渐变_105-9" x1="4" y1="74.59" x2="28.07" y2="74.59" gradientTransform="matrix(1, 0, 0, 1, 0, 0)" xlink:href="#未命名的渐变_105"/><linearGradient id="未命名的渐变_13" x1="0.09" y1="62.82" x2="103.52" y2="62.82" gradientUnits="userSpaceOnUse"><stop offset="0" stop-color="#6b6b6b"/><stop offset="0.01" stop-color="#767676"/><stop offset="0.03" stop-color="#959595"/><stop offset="0.04" stop-color="#aaa"/><stop offset="0.14" stop-color="#b1b1b1"/><stop offset="0.65" stop-color="#cfcfcf"/><stop offset="0.94" stop-color="#dbdbdb"/><stop offset="0.95" stop-color="#d2d2d2"/><stop offset="0.96" stop-color="#b9b9b9"/><stop offset="0.98" stop-color="#909090"/><stop offset="0.99" stop-color="#666"/></linearGradient><linearGradient id="未命名的渐变_105-10" x1="4" y1="117.11" x2="28.07" y2="117.11" gradientTransform="matrix(1, 0, 0, 1, 0, 0)" xlink:href="#未命名的渐变_105"/><linearGradient id="未命名的渐变_105-11" x1="0" y1="79.54" x2="32.07" y2="79.54" gradientTransform="matrix(1, 0, 0, 1, 0, 0)" xlink:href="#未命名的渐变_105"/><linearGradient id="未命名的渐变_105-12" x1="746.2" y1="-1203.45" x2="746.2" y2="-1204.57" gradientTransform="matrix(1, 0, 0, -1, -738.8, -1085.78)" xlink:href="#未命名的渐变_105"/><linearGradient id="未命名的渐变_105-13" x1="746.2" y1="-1201.25" x2="746.2" y2="-1202.38" gradientTransform="matrix(1, 0, 0, -1, -736.61, -1083.58)" xlink:href="#未命名的渐变_105"/><linearGradient id="未命名的渐变_105-14" x1="746.2" y1="-1188.11" x2="746.2" y2="-1189.23" gradientTransform="matrix(1, 0, 0, -1, -723.47, -1070.44)" xlink:href="#未命名的渐变_105"/><linearGradient id="未命名的渐变_105-15" x1="746.2" y1="-1185.92" x2="746.2" y2="-1187.04" gradientTransform="matrix(1, 0, 0, -1, -721.27, -1068.25)" xlink:href="#未命名的渐变_105"/><linearGradient id="未命名的渐变_67-4" x1="0.09" y1="84.32" x2="32.16" y2="84.32" xlink:href="#未命名的渐变_67"/><linearGradient id="未命名的渐变_105-16" x1="39.61" y1="74.59" x2="63.68" y2="74.59" gradientTransform="matrix(1, 0, 0, 1, 0, 0)" xlink:href="#未命名的渐变_105"/><linearGradient id="未命名的渐变_105-17" x1="39.61" y1="117.11" x2="63.68" y2="117.11" gradientTransform="matrix(1, 0, 0, 1, 0, 0)" xlink:href="#未命名的渐变_105"/><linearGradient id="未命名的渐变_105-18" x1="35.61" y1="79.54" x2="67.68" y2="79.54" gradientTransform="matrix(1, 0, 0, 1, 0, 0)" xlink:href="#未命名的渐变_105"/><linearGradient id="未命名的渐变_105-19" x1="746.2" y1="-1167.84" x2="746.2" y2="-1168.96" gradientTransform="matrix(1, 0, 0, -1, -703.19, -1050.17)" xlink:href="#未命名的渐变_105"/><linearGradient id="未命名的渐变_105-20" x1="746.2" y1="-1165.64" x2="746.2" y2="-1166.77" gradientTransform="matrix(1, 0, 0, -1, -701, -1047.98)" xlink:href="#未命名的渐变_105"/><linearGradient id="未命名的渐变_105-21" x1="746.2" y1="-1152.5" x2="746.2" y2="-1153.62" gradientTransform="matrix(1, 0, 0, -1, -687.86, -1034.83)" xlink:href="#未命名的渐变_105"/><linearGradient id="未命名的渐变_105-22" x1="746.2" y1="-1150.31" x2="746.2" y2="-1151.43" gradientTransform="matrix(1, 0, 0, -1, -685.66, -1032.64)" xlink:href="#未命名的渐变_105"/><linearGradient id="未命名的渐变_67-5" x1="35.7" y1="84.32" x2="67.77" y2="84.32" xlink:href="#未命名的渐变_67"/><linearGradient id="未命名的渐变_105-23" x1="75.36" y1="74.59" x2="99.43" y2="74.59" gradientTransform="matrix(1, 0, 0, 1, 0, 0)" xlink:href="#未命名的渐变_105"/><linearGradient id="未命名的渐变_105-24" x1="75.36" y1="117.11" x2="99.43" y2="117.11" gradientTransform="matrix(1, 0, 0, 1, 0, 0)" xlink:href="#未命名的渐变_105"/><linearGradient id="未命名的渐变_105-25" x1="71.36" y1="79.54" x2="103.43" y2="79.54" gradientTransform="matrix(1, 0, 0, 1, 0, 0)" xlink:href="#未命名的渐变_105"/><linearGradient id="未命名的渐变_105-26" x1="746.2" y1="-1132.09" x2="746.2" y2="-1133.21" gradientTransform="matrix(1, 0, 0, -1, -667.45, -1014.42)" xlink:href="#未命名的渐变_105"/><linearGradient id="未命名的渐变_105-27" x1="746.2" y1="-1129.9" x2="746.2" y2="-1131.02" gradientTransform="matrix(1, 0, 0, -1, -665.26, -1012.23)" xlink:href="#未命名的渐变_105"/><linearGradient id="未命名的渐变_105-28" x1="746.2" y1="-1116.75" x2="746.2" y2="-1117.87" gradientTransform="matrix(1, 0, 0, -1, -652.11, -999.08)" xlink:href="#未命名的渐变_105"/><linearGradient id="未命名的渐变_105-29" x1="746.2" y1="-1114.56" x2="746.2" y2="-1115.68" gradientTransform="matrix(1, 0, 0, -1, -649.92, -996.89)" xlink:href="#未命名的渐变_105"/><linearGradient id="未命名的渐变_67-6" x1="71.45" y1="84.32" x2="103.52" y2="84.32" xlink:href="#未命名的渐变_67"/><linearGradient id="未命名的渐变_67-7" x1="19.56" y1="35.06" x2="19.56" y2="26.59" xlink:href="#未命名的渐变_67"/><linearGradient id="未命名的渐变_67-8" x1="87.38" y1="35.14" x2="87.38" y2="26.51" xlink:href="#未命名的渐变_67"/><linearGradient id="未命名的渐变_105-30" x1="53.85" y1="38.15" x2="53.85" y2="23.29" gradientTransform="matrix(1, 0, 0, 1, 0, 0)" xlink:href="#未命名的渐变_105"/><linearGradient id="未命名的渐变_67-9" x1="52.98" y1="23.4" x2="52.98" y2="9.01" xlink:href="#未命名的渐变_67"/><linearGradient id="未命名的渐变_105-31" x1="60.9" y1="57.97" x2="60.9" y2="39.58" gradientTransform="matrix(1, 0, 0, 1, 0, 0)" xlink:href="#未命名的渐变_105"/><linearGradient id="未命名的渐变_74-3" x1="65.72" y1="48.98" x2="73.66" y2="48.98" xlink:href="#未命名的渐变_74"/><linearGradient id="未命名的渐变_105-32" x1="11.49" y1="40.43" x2="11.49" y2="39.42" gradientTransform="matrix(1, 0, 0, 1, 0, 0)" xlink:href="#未命名的渐变_105"/><linearGradient id="未命名的渐变_105-33" x1="11.49" y1="42.58" x2="11.49" y2="41.57" gradientTransform="matrix(1, 0, 0, 1, 0, 0)" xlink:href="#未命名的渐变_105"/><linearGradient id="未命名的渐变_105-34" x1="11.49" y1="44.74" x2="11.49" y2="43.73" gradientTransform="matrix(1, 0, 0, 1, 0, 0)" xlink:href="#未命名的渐变_105"/><linearGradient id="未命名的渐变_105-35" x1="11.49" y1="46.89" x2="11.49" y2="45.88" gradientTransform="matrix(1, 0, 0, 1, 0, 0)" xlink:href="#未命名的渐变_105"/><linearGradient id="未命名的渐变_105-36" x1="11.49" y1="49.05" x2="11.49" y2="48.04" gradientTransform="matrix(1, 0, 0, 1, 0, 0)" xlink:href="#未命名的渐变_105"/><linearGradient id="未命名的渐变_105-37" x1="11.49" y1="51.2" x2="11.49" y2="50.19" gradientTransform="matrix(1, 0, 0, 1, 0, 0)" xlink:href="#未命名的渐变_105"/><linearGradient id="未命名的渐变_105-38" x1="11.49" y1="53.36" x2="11.49" y2="52.35" gradientTransform="matrix(1, 0, 0, 1, 0, 0)" xlink:href="#未命名的渐变_105"/><linearGradient id="未命名的渐变_105-39" x1="11.49" y1="55.51" x2="11.49" y2="54.5" gradientTransform="matrix(1, 0, 0, 1, 0, 0)" xlink:href="#未命名的渐变_105"/><linearGradient id="未命名的渐变_105-40" x1="11.49" y1="57.67" x2="11.49" y2="56.66" gradientTransform="matrix(1, 0, 0, 1, 0, 0)" xlink:href="#未命名的渐变_105"/><linearGradient id="未命名的渐变_67-10" x1="19.79" y1="5.47" x2="19.79" y2="0" xlink:href="#未命名的渐变_67"/><linearGradient id="未命名的渐变_67-11" x1="20.6" y1="3.74" x2="20.6" y2="1.69" xlink:href="#未命名的渐变_67"/><linearGradient id="未命名的渐变_105-41" x1="23.59" y1="4.58" x2="23.59" y2="0.93" gradientTransform="matrix(1, 0, 0, 1, 0, 0)" xlink:href="#未命名的渐变_105"/><linearGradient id="未命名的渐变_105-42" x1="342.67" y1="-2166.72" x2="346.18" y2="-2170.24" gradientTransform="matrix(1, 0, 0, -1, -266.49, -2164.53)" xlink:href="#未命名的渐变_105"/><linearGradient id="未命名的渐变_67-12" x1="-70" y1="5.47" x2="-70" y2="0" gradientTransform="matrix(1, 0, 0, -1, 157.1, 5.47)" xlink:href="#未命名的渐变_67"/><linearGradient id="未命名的渐变_67-13" x1="-69.18" y1="3.74" x2="-69.18" y2="1.69" gradientTransform="matrix(1, 0, 0, -1, 155.47, 5.43)" xlink:href="#未命名的渐变_67"/><linearGradient id="未命名的渐变_105-43" x1="-66.2" y1="4.58" x2="-66.2" y2="0.93" gradientTransform="matrix(1, 0, 0, -1, 149.5, 5.51)" xlink:href="#未命名的渐变_105"/></defs><title>Water purifier(滤水器)</title><g id="图层_2" data-name="图层 2"><g id="图层_125" data-name="图层 125"><g id="Water_purifier_滤水器_" data-name="Water purifier(滤水器)"><rect class="cls-1" x="74.9" y="6.67" width="3.77" height="3.37" transform="translate(153.58 16.7) rotate(180)"/><rect class="cls-2" x="28.22" y="6.67" width="3.77" height="3.37"/><rect class="cls-3" x="3.31" y="21.38" width="97.01" height="38.91" rx="0.86"/><rect class="cls-4" x="82.18" y="11.08" width="2.91" height="11.4"/><rect class="cls-5" x="85.09" y="10.63" width="7.6" height="11.4"/><path class="cls-6" d="M21.58,23.4s-3.44-1.28-3.44-7.2c0-6.08,3.44-7.19,3.44-7.19H83.41V23.4Z"/><rect class="cls-7" x="82.45" y="21.42" width="10.24" height="21.85"/><path class="cls-8" d="M23.88,38.15s-3.33-1.31-3.33-7.37c0-6.24,3.33-7.38,3.33-7.38H83.76s2.68.46,2.69,7.32-2.69,7.43-2.69,7.43Z"/><path class="cls-9" d="M16.08,36.23a7.33,7.33,0,0,0-1.39,3.21H6s-.9-7,2.61-10.33c3.86-3.61,10.46-2.37,10.46-2.37v8.15A5.14,5.14,0,0,0,16.08,36.23Z"/><path class="cls-10" d="M27.54,5.22a3.28,3.28,0,0,1,.62,1.45H32s0-3.43-1.18-4.37A9.77,9.77,0,0,0,26.22.93V4.61A6.24,6.24,0,0,1,27.54,5.22Z"/><rect class="cls-11" x="73.66" y="46.02" width="22.63" height="17.98"/><rect class="cls-12" x="4.98" y="38.62" width="51.1" height="19.34"/><rect class="cls-13" x="24.92" y="38.62" width="22.11" height="15.98"/><rect class="cls-14" x="4" y="67.66" width="24.07" height="13.85"/><rect class="cls-15" x="0.09" y="57.97" width="103.43" height="9.69"/><rect class="cls-16" x="4" y="84.21" width="24.07" height="65.79" rx="0.99"/><rect class="cls-17" y="72.61" width="32.07" height="13.85"/><rect class="cls-18" x="-24.37" y="117.67" width="63.54" height="1.12" transform="translate(125.63 110.83) rotate(90)"/><rect class="cls-19" x="-22.18" y="117.67" width="63.54" height="1.12" transform="translate(127.82 108.64) rotate(90)"/><rect class="cls-20" x="-9.03" y="117.67" width="63.54" height="1.12" transform="translate(140.97 95.49) rotate(90)"/><rect class="cls-21" x="-6.84" y="117.67" width="63.54" height="1.12" transform="translate(143.16 93.3) rotate(90)"/><rect class="cls-22" x="0.09" y="83.78" width="32.07" height="1.08"/><rect class="cls-23" x="39.61" y="67.66" width="24.07" height="13.85"/><rect class="cls-24" x="39.61" y="84.21" width="24.07" height="65.79" rx="0.99"/><rect class="cls-25" x="35.61" y="72.61" width="32.07" height="13.85"/><rect class="cls-26" x="11.24" y="117.67" width="63.54" height="1.12" transform="translate(161.24 75.22) rotate(90)"/><rect class="cls-27" x="13.43" y="117.67" width="63.54" height="1.12" transform="translate(163.43 73.03) rotate(90)"/><rect class="cls-28" x="26.58" y="117.67" width="63.54" height="1.12" transform="translate(176.58 59.88) rotate(90)"/><rect class="cls-29" x="28.77" y="117.67" width="63.54" height="1.12" transform="translate(178.77 57.69) rotate(90)"/><rect class="cls-30" x="35.7" y="83.78" width="32.07" height="1.08"/><rect class="cls-31" x="75.36" y="67.66" width="24.07" height="13.85"/><rect class="cls-32" x="75.36" y="84.21" width="24.07" height="65.79" rx="0.99"/><rect class="cls-33" x="71.36" y="72.61" width="32.07" height="13.85"/><rect class="cls-34" x="46.99" y="117.67" width="63.54" height="1.12" transform="translate(196.99 39.48) rotate(90)"/><rect class="cls-35" x="49.18" y="117.67" width="63.54" height="1.12" transform="translate(199.18 37.28) rotate(90)"/><rect class="cls-36" x="62.33" y="117.67" width="63.54" height="1.12" transform="translate(212.33 24.14) rotate(90)"/><rect class="cls-37" x="64.52" y="117.67" width="63.54" height="1.12" transform="translate(214.52 21.95) rotate(90)"/><rect class="cls-38" x="71.45" y="83.78" width="32.07" height="1.08"/><rect class="cls-39" x="30.72" y="38.62" width="2.91" height="14.07"/><rect class="cls-40" x="17.99" y="26.59" width="3.15" height="8.48"/><rect class="cls-41" x="85.92" y="26.51" width="2.91" height="8.63"/><rect class="cls-42" x="24.3" y="23.29" width="59.11" height="14.87"/><rect class="cls-43" x="37.19" y="9.01" width="31.58" height="14.39"/><rect class="cls-44" x="56.08" y="39.58" width="9.64" height="18.39"/><rect class="cls-45" x="65.72" y="39.99" width="7.94" height="17.98"/><rect class="cls-39" x="24.92" y="52.46" width="22.11" height="1.13"/><rect class="cls-46" x="6.84" y="39.42" width="9.29" height="1.01"/><rect class="cls-47" x="6.84" y="41.57" width="9.29" height="1.01"/><rect class="cls-48" x="6.84" y="43.73" width="9.29" height="1.01"/><rect class="cls-49" x="6.84" y="45.88" width="9.29" height="1.01"/><rect class="cls-50" x="6.84" y="48.04" width="9.29" height="1.01"/><rect class="cls-51" x="6.84" y="50.19" width="9.29" height="1.01"/><rect class="cls-52" x="6.84" y="52.35" width="9.29" height="1.01"/><rect class="cls-53" x="6.84" y="54.5" width="9.29" height="1.01"/><rect class="cls-54" x="6.84" y="56.66" width="9.29" height="1.01"/><rect class="cls-55" x="19.32" width="0.93" height="5.47"/><rect class="cls-56" x="20.25" y="1.69" width="0.71" height="2.06"/><rect class="cls-57" x="20.96" y="0.93" width="5.26" height="3.65"/><path class="cls-58" d="M79.35,5.22a3.28,3.28,0,0,0-.62,1.45H74.9s0-3.43,1.18-4.37A9.77,9.77,0,0,1,80.67.93V4.61A6.47,6.47,0,0,0,79.35,5.22Z"/><rect class="cls-59" x="86.64" width="0.93" height="5.47" transform="translate(174.21 5.47) rotate(180)"/><rect class="cls-60" x="85.94" y="1.69" width="0.71" height="2.06" transform="translate(172.58 5.43) rotate(180)"/><rect class="cls-61" x="80.67" y="0.93" width="5.26" height="3.65" transform="translate(166.61 5.51) rotate(180)"/></g></g></g></svg>