<svg xmlns="http://www.w3.org/2000/svg" xmlns:xlink="http://www.w3.org/1999/xlink" viewBox="0 0 150 92.93"><defs><style>.cls-1{fill:url(#未命名的渐变_24);}.cls-2{fill:#c7cedb;}.cls-3{fill:url(#未命名的渐变_52);}.cls-4{fill:#242528;}.cls-5{fill:url(#未命名的渐变_77);}.cls-6{fill:url(#未命名的渐变_77-2);}.cls-7{fill:url(#未命名的渐变_77-3);}.cls-8{fill:url(#未命名的渐变_77-4);}.cls-9{fill:url(#未命名的渐变_77-5);}.cls-10{fill:url(#未命名的渐变_77-6);}.cls-11,.cls-19,.cls-24{fill:#252628;stroke-width:0.25px;}.cls-11,.cls-19,.cls-22,.cls-24{stroke-miterlimit:10;}.cls-11{stroke:url(#未命名的渐变_39);}.cls-12{fill:url(#未命名的渐变_91);}.cls-13{fill:url(#未命名的渐变_95);}.cls-14{fill:url(#未命名的渐变_95-2);}.cls-15{fill:url(#未命名的渐变_95-3);}.cls-16{fill:url(#未命名的渐变_95-4);}.cls-17{fill:url(#未命名的渐变_95-5);}.cls-18{opacity:0.6;fill:url(#未命名的渐变_96);}.cls-19{stroke:url(#未命名的渐变_39-2);}.cls-20{fill:url(#未命名的渐变_97);}.cls-21{fill:#fff;}.cls-22,.cls-23{fill:none;stroke:#5b5e66;}.cls-22{stroke-width:0.1px;}.cls-23{stroke-miterlimit:2;stroke-dasharray:0.11 6.47;}.cls-24{stroke:url(#未命名的渐变_39-3);}.cls-25{fill:url(#未命名的渐变_97-2);}.cls-26{opacity:0.2;}</style><linearGradient id="未命名的渐变_24" y1="46.47" x2="150" y2="46.47" gradientUnits="userSpaceOnUse"><stop offset="0" stop-color="#767b82"/><stop offset="0.04" stop-color="#b9c0cc"/><stop offset="0.92" stop-color="#b9c0cc"/><stop offset="0.96" stop-color="#d7dce0"/><stop offset="1" stop-color="#767b82"/></linearGradient><linearGradient id="未命名的渐变_52" x1="20.87" y1="79.39" x2="20.87" y2="39.11" gradientUnits="userSpaceOnUse"><stop offset="0" stop-color="#cfdae6"/><stop offset="1" stop-color="#5c6066"/></linearGradient><linearGradient id="未命名的渐变_77" x1="23.44" y1="17.05" x2="26.77" y2="17.05" gradientUnits="userSpaceOnUse"><stop offset="0" stop-color="#b9c0cc"/><stop offset="1" stop-color="#45474d"/></linearGradient><linearGradient id="未命名的渐变_77-2" x1="54.58" y1="17.05" x2="57.91" y2="17.05" xlink:href="#未命名的渐变_77"/><linearGradient id="未命名的渐变_77-3" x1="94.15" y1="17.05" x2="97.48" y2="17.05" xlink:href="#未命名的渐变_77"/><linearGradient id="未命名的渐变_77-4" x1="125.29" y1="17.05" x2="128.62" y2="17.05" xlink:href="#未命名的渐变_77"/><linearGradient id="未命名的渐变_77-5" x1="57.26" y1="60.52" x2="60.82" y2="60.52" xlink:href="#未命名的渐变_77"/><linearGradient id="未命名的渐变_77-6" x1="116.73" y1="60.52" x2="120.3" y2="60.52" xlink:href="#未命名的渐变_77"/><linearGradient id="未命名的渐变_39" x1="73.86" y1="25.14" x2="73.86" y2="8.96" gradientTransform="translate(56.81 90.9) rotate(-90)" gradientUnits="userSpaceOnUse"><stop offset="0" stop-color="#dce1e6"/><stop offset="1" stop-color="#5c6066"/></linearGradient><linearGradient id="未命名的渐变_91" x1="73.86" y1="23.67" x2="73.86" y2="10.43" gradientTransform="translate(56.81 90.9) rotate(-90)" gradientUnits="userSpaceOnUse"><stop offset="0" stop-color="#767b82"/><stop offset="0.04" stop-color="#d7dce0"/><stop offset="0.08" stop-color="#b9c0cc"/><stop offset="0.96" stop-color="#b9c0cc"/><stop offset="1" stop-color="#767b82"/></linearGradient><linearGradient id="未命名的渐变_95" x1="73.86" y1="18.24" x2="73.86" y2="15.94" gradientUnits="userSpaceOnUse"><stop offset="0" stop-color="#767b82"/><stop offset="0.04" stop-color="#d7dce0"/><stop offset="0.08" stop-color="#d0d8e6"/><stop offset="0.96" stop-color="#d0d8e6"/><stop offset="1" stop-color="#767b82"/></linearGradient><linearGradient id="未命名的渐变_95-2" x1="73.86" y1="14.62" x2="73.86" y2="13.01" xlink:href="#未命名的渐变_95"/><linearGradient id="未命名的渐变_95-3" x1="73.86" y1="12.21" x2="73.86" y2="11.41" xlink:href="#未命名的渐变_95"/><linearGradient id="未命名的渐变_95-4" x1="73.86" y1="21.08" x2="73.86" y2="19.56" xlink:href="#未命名的渐变_95"/><linearGradient id="未命名的渐变_95-5" x1="73.86" y1="22.87" x2="73.86" y2="22.11" xlink:href="#未命名的渐变_95"/><linearGradient id="未命名的渐变_96" x1="73.86" y1="23.67" x2="73.86" y2="17.26" gradientTransform="translate(53.39 94.32) rotate(-90)" gradientUnits="userSpaceOnUse"><stop offset="0" stop-color="#2e3033"/><stop offset="1" stop-color="#9ba1ab" stop-opacity="0"/></linearGradient><linearGradient id="未命名的渐变_39-2" x1="20.87" y1="54.5" x2="20.87" y2="44.49" gradientTransform="matrix(1, 0, 0, 1, 0, 0)" xlink:href="#未命名的渐变_39"/><linearGradient id="未命名的渐变_97" x1="23.91" y1="52.54" x2="17.82" y2="46.45" gradientUnits="userSpaceOnUse"><stop offset="0" stop-color="#5c6066"/><stop offset="1" stop-color="#cfdae6"/></linearGradient><linearGradient id="未命名的渐变_39-3" x1="-37.73" y1="204.65" x2="-37.73" y2="194.63" gradientTransform="translate(-93.62 -98.84) rotate(-45)" xlink:href="#未命名的渐变_39"/><linearGradient id="未命名的渐变_97-2" x1="25.17" y1="69" x2="16.56" y2="69" xlink:href="#未命名的渐变_97"/></defs><title>Window air conditioner(窗式空调)</title><g id="图层_2" data-name="图层 2"><g id="图层_6" data-name="图层 6"><g id="Window_air_conditioner_窗式空调_" data-name="Window air conditioner(窗式空调)"><rect class="cls-1" width="150" height="92.93" rx="5.27"/><rect class="cls-2" x="9.81" y="39.11" width="22.11" height="40.28" rx="2.63"/><path class="cls-3" d="M29.29,39.45a2.3,2.3,0,0,1,2.29,2.29v35A2.29,2.29,0,0,1,29.29,79H12.45a2.28,2.28,0,0,1-2.29-2.28v-35a2.29,2.29,0,0,1,2.29-2.29H29.29m0-.34H12.45a2.64,2.64,0,0,0-2.64,2.63v35a2.64,2.64,0,0,0,2.64,2.63H29.29a2.63,2.63,0,0,0,2.63-2.63v-35a2.63,2.63,0,0,0-2.63-2.63Z"/><rect class="cls-4" x="9.81" y="6.07" width="57.56" height="3.53" rx="1.7"/><rect class="cls-4" x="9.81" y="12.21" width="57.56" height="3.53" rx="1.7"/><rect class="cls-4" x="9.81" y="18.35" width="57.56" height="3.53" rx="1.7"/><rect class="cls-4" x="9.81" y="24.5" width="57.56" height="3.53" rx="1.7"/><polygon class="cls-5" points="23.81 9.6 23.81 12.22 26.77 12.22 26.77 15.74 23.81 15.74 23.81 18.35 26.77 18.35 26.77 21.88 23.81 21.88 23.81 24.5 26.77 24.5 26.77 27.08 23.44 28.02 23.44 6.07 26.77 7.27 26.77 9.6 23.81 9.6"/><polygon class="cls-6" points="54.95 9.6 54.95 12.22 57.91 12.22 57.91 15.74 54.95 15.74 54.95 18.35 57.91 18.35 57.91 21.88 54.95 21.88 54.95 24.5 57.91 24.5 57.91 27.08 54.58 28.02 54.58 6.07 57.91 7.27 57.91 9.6 54.95 9.6"/><rect class="cls-4" x="80.53" y="6.07" width="57.56" height="3.53" rx="1.7"/><rect class="cls-4" x="80.53" y="12.21" width="57.56" height="3.53" rx="1.7"/><rect class="cls-4" x="80.53" y="18.35" width="57.56" height="3.53" rx="1.7"/><rect class="cls-4" x="80.53" y="24.5" width="57.56" height="3.53" rx="1.7"/><polygon class="cls-7" points="94.52 9.6 94.52 12.22 97.48 12.22 97.48 15.74 94.52 15.74 94.52 18.35 97.48 18.35 97.48 21.88 94.52 21.88 94.52 24.5 97.48 24.5 97.48 27.08 94.15 28.02 94.15 6.07 97.48 7.27 97.48 9.6 94.52 9.6"/><polygon class="cls-8" points="125.66 9.6 125.66 12.22 128.62 12.22 128.62 15.74 125.66 15.74 125.66 18.35 128.62 18.35 128.62 21.88 125.66 21.88 125.66 24.5 128.62 24.5 128.62 27.08 125.29 28.02 125.29 6.07 128.62 7.27 128.62 9.6 125.66 9.6"/><path class="cls-4" d="M137.89,36.13a1.26,1.26,0,0,1-1.26,1.27H39.85a1.27,1.27,0,0,1,0-2.53h96.78A1.26,1.26,0,0,1,137.89,36.13Z"/><path class="cls-4" d="M137.89,41a1.27,1.27,0,0,1-1.26,1.28H39.85a1.27,1.27,0,0,1,0-2.54h96.78A1.26,1.26,0,0,1,137.89,41Z"/><path class="cls-4" d="M137.89,45.89a1.26,1.26,0,0,1-1.26,1.26H39.85a1.27,1.27,0,0,1,0-2.53h96.78A1.26,1.26,0,0,1,137.89,45.89Z"/><path class="cls-4" d="M137.89,50.76A1.26,1.26,0,0,1,136.63,52H39.85a1.27,1.27,0,0,1,0-2.54h96.78A1.26,1.26,0,0,1,137.89,50.76Z"/><path class="cls-4" d="M137.89,55.64a1.25,1.25,0,0,1-1.26,1.26H39.85a1.26,1.26,0,1,1,0-2.52h96.78A1.25,1.25,0,0,1,137.89,55.64Z"/><path class="cls-4" d="M137.89,60.51a1.27,1.27,0,0,1-1.26,1.28H39.85a1.28,1.28,0,0,1-1.26-1.28,1.26,1.26,0,0,1,1.26-1.26h96.78A1.25,1.25,0,0,1,137.89,60.51Z"/><path class="cls-4" d="M137.89,65.39a1.26,1.26,0,0,1-1.26,1.27H39.85a1.27,1.27,0,0,1,0-2.53h96.78A1.26,1.26,0,0,1,137.89,65.39Z"/><path class="cls-4" d="M137.89,70.27a1.27,1.27,0,0,1-1.26,1.27H39.85a1.27,1.27,0,0,1,0-2.54h96.78A1.26,1.26,0,0,1,137.89,70.27Z"/><path class="cls-4" d="M137.89,75.15a1.25,1.25,0,0,1-1.26,1.26H39.85a1.26,1.26,0,0,1,0-2.52h96.78A1.25,1.25,0,0,1,137.89,75.15Z"/><path class="cls-4" d="M137.89,80a1.27,1.27,0,0,1-1.26,1.28H39.85A1.28,1.28,0,0,1,38.59,80a1.26,1.26,0,0,1,1.26-1.26h96.78A1.25,1.25,0,0,1,137.89,80Z"/><path class="cls-4" d="M137.89,84.9a1.26,1.26,0,0,1-1.26,1.27H39.85a1.27,1.27,0,0,1,0-2.53h96.78A1.26,1.26,0,0,1,137.89,84.9Z"/><polygon class="cls-9" points="57.74 39.74 60.82 39.74 60.82 42.28 57.74 42.28 57.74 44.62 60.82 44.62 60.82 47.15 57.74 47.15 57.74 49.49 60.82 49.49 60.82 52.03 57.74 52.03 57.74 54.38 60.82 54.38 60.82 56.91 57.74 56.91 57.74 59.25 60.82 59.25 60.82 61.79 57.74 61.79 57.74 64.13 60.82 64.13 60.82 66.66 57.74 66.66 57.74 69 60.82 69 60.82 71.54 57.74 71.54 57.74 73.89 60.82 73.89 60.82 76.41 57.74 76.41 57.74 78.76 60.82 78.76 60.82 81.3 57.74 81.3 57.74 83.64 60.82 83.64 57.26 86.17 57.26 34.87 60.82 37.4 57.74 37.4 57.74 39.74"/><polygon class="cls-10" points="117.22 39.74 120.3 39.74 120.3 42.28 117.22 42.28 117.22 44.62 120.3 44.62 120.3 47.15 117.22 47.15 117.22 49.49 120.3 49.49 120.3 52.03 117.22 52.03 117.22 54.38 120.3 54.38 120.3 56.91 117.22 56.91 117.22 59.25 120.3 59.25 120.3 61.79 117.22 61.79 117.22 64.13 120.3 64.13 120.3 66.66 117.22 66.66 117.22 69 120.3 69 120.3 71.54 117.22 71.54 117.22 73.89 120.3 73.89 120.3 76.41 117.22 76.41 117.22 78.76 120.3 78.76 120.3 81.3 117.22 81.3 117.22 83.64 120.3 83.64 116.73 86.17 116.73 34.87 120.3 37.4 117.22 37.4 117.22 39.74"/><rect class="cls-11" x="65.89" y="14.57" width="15.93" height="4.96" rx="2.48" transform="translate(90.9 -56.81) rotate(90)"/><rect class="cls-12" x="67.23" y="15.34" width="13.24" height="3.41" transform="translate(90.9 -56.81) rotate(90)"/><rect class="cls-13" x="72.15" y="15.94" width="3.41" height="2.3"/><rect class="cls-14" x="72.15" y="13.01" width="3.41" height="1.61"/><rect class="cls-15" x="72.15" y="11.41" width="3.41" height="0.81"/><rect class="cls-16" x="72.15" y="19.56" width="3.41" height="1.52"/><rect class="cls-17" x="72.15" y="22.11" width="3.41" height="0.76"/><rect class="cls-18" x="70.65" y="18.76" width="6.41" height="3.41" transform="translate(94.32 -53.39) rotate(90)"/><path class="cls-19" d="M25.74,49.49a4.89,4.89,0,0,1-3.45,4.68,5.08,5.08,0,0,1-1.42.21,4.56,4.56,0,0,1-1.43-.23,4.87,4.87,0,0,1,0-9.32,4.55,4.55,0,0,1,1.43-.22,4.74,4.74,0,0,1,1.42.21A4.89,4.89,0,0,1,25.74,49.49Z"/><path class="cls-2" d="M23.91,46.45a4.26,4.26,0,0,1,0,6.08,4,4,0,0,1-1,.76,4.3,4.3,0,0,1-5.81-5.81,4,4,0,0,1,.76-1,4.26,4.26,0,0,1,6.08,0Z"/><path class="cls-20" d="M20.86,45.54h0a3.93,3.93,0,0,1,2.8,1.16,4,4,0,0,1,0,5.59,3.72,3.72,0,0,1-1,.69,4,4,0,0,1-1.86.46,3.94,3.94,0,0,1-3.48-5.81,3.85,3.85,0,0,1,.69-.94A4.16,4.16,0,0,1,19,46a4,4,0,0,1,1.86-.46m0-.35a4.19,4.19,0,0,0-3,1.26,4,4,0,0,0-.76,1,4.3,4.3,0,0,0,3.79,6.31,4.37,4.37,0,0,0,2-.5,4,4,0,0,0,1-.76,4.3,4.3,0,0,0-3.05-7.34Z"/><path class="cls-21" d="M19.24,46.09l5.1,5.1a4.54,4.54,0,0,1-.76,1,3.73,3.73,0,0,1-1,.75l-5.08-5.07a4,4,0,0,1,.76-1A4.57,4.57,0,0,1,19.24,46.09Z"/><path class="cls-22" d="M26.53,49.49a5.69,5.69,0,0,1-4,5.43,5.56,5.56,0,0,1-1.64.24,5.12,5.12,0,0,1-1.67-.26,5.65,5.65,0,0,1,0-10.81,5.12,5.12,0,0,1,1.67-.26,5.56,5.56,0,0,1,1.64.24A5.68,5.68,0,0,1,26.53,49.49Z"/><path class="cls-23" d="M27.15,49.49a6.29,6.29,0,0,1-4.45,6,6.07,6.07,0,0,1-1.82.27A6,6,0,0,1,19,55.5a6.28,6.28,0,0,1,0-12,6,6,0,0,1,1.85-.29,6.41,6.41,0,0,1,1.82.27A6.31,6.31,0,0,1,27.15,49.49Z"/><path class="cls-24" d="M24.31,65.55a4.85,4.85,0,0,1,0,6.9,4.23,4.23,0,0,1-1.17.85,4.87,4.87,0,0,1-6.59-6.58,4.46,4.46,0,0,1,.86-1.18,4.87,4.87,0,0,1,6.89,0Z"/><path class="cls-2" d="M20.87,64.7a4.32,4.32,0,0,1,4.12,3A4.73,4.73,0,0,1,25.17,69a4.1,4.1,0,0,1-.2,1.26,4.29,4.29,0,0,1-8.21,0,4.1,4.1,0,0,1-.2-1.26,4.37,4.37,0,0,1,.19-1.26A4.31,4.31,0,0,1,20.87,64.7Z"/><path class="cls-25" d="M20.87,65.05a4,4,0,0,1,3.78,2.79A3.83,3.83,0,0,1,24.82,69a3.71,3.71,0,0,1-.18,1.16,3.95,3.95,0,0,1-7.55,0A3.6,3.6,0,0,1,16.91,69a4.05,4.05,0,0,1,.17-1.15,4,4,0,0,1,3.79-2.8m0-.35a4.31,4.31,0,0,0-4.12,3A4.37,4.37,0,0,0,16.56,69a4.1,4.1,0,0,0,.2,1.26,4.29,4.29,0,0,0,8.21,0,4.1,4.1,0,0,0,.2-1.26A4.73,4.73,0,0,0,25,67.74a4.32,4.32,0,0,0-4.12-3Z"/><path class="cls-21" d="M17.31,67.74h7.21A4.73,4.73,0,0,1,24.7,69a4.1,4.1,0,0,1-.2,1.26H17.32A4.09,4.09,0,0,1,17.13,69,4.36,4.36,0,0,1,17.31,67.74Z"/><path class="cls-22" d="M24.87,65a5.68,5.68,0,0,1,1,6.67A5.66,5.66,0,0,1,23.52,74a5.66,5.66,0,0,1-7.65-7.65,5.45,5.45,0,0,1,1-1.36,5.78,5.78,0,0,1,1.34-1A5.68,5.68,0,0,1,24.87,65Z"/><path class="cls-23" d="M25.31,64.56A6.29,6.29,0,0,1,26.42,72a6.19,6.19,0,0,1-1.1,1.48,5.73,5.73,0,0,1-1.51,1.1,6.27,6.27,0,0,1-8.49-8.48,6.27,6.27,0,0,1,2.59-2.61A6.29,6.29,0,0,1,25.31,64.56Z"/></g></g></g></svg>