<svg xmlns="http://www.w3.org/2000/svg" viewBox="0 0 150 112.91"><defs><style>.cls-1{fill:#ffec00;}.cls-2{opacity:0.2;}</style></defs><title>Yellow caution sign（黄色警告标志）</title><g id="图层_2" data-name="图层 2"><g id="图层_28" data-name="图层 28"><g id="Yellow_caution_sign_黄色警告标志_" data-name="Yellow caution sign（黄色警告标志）"><rect class="cls-1" width="150" height="112.91"/><rect x="4.2" y="3.99" width="142.71" height="43.09"/><path class="cls-1" d="M39.46,27.31c-.07,2.58-.66,4.4-1.77,5.48a5.44,5.44,0,0,1-4,1.63,6,6,0,0,1-4.54-2C27.93,31.12,27.3,29,27.3,26.09c0-3.18.61-5.54,1.83-7.1a5.69,5.69,0,0,1,4.7-2.34,5.34,5.34,0,0,1,4,1.68,6.25,6.25,0,0,1,1.49,4.72H36.92a6,6,0,0,0-.77-3.35,2.64,2.64,0,0,0-2.32-1.12A3.2,3.2,0,0,0,31,20.26c-.71,1.11-1.05,3-1.05,5.63C30,28.33,30.3,30,31,31a3.19,3.19,0,0,0,2.71,1.47,3,3,0,0,0,2.21-1.07q1-1.07,1-4.11Z"/><path class="cls-1" d="M54.05,34.21H51.4l-1.55-5.38H45l-1.55,5.38H40.79l5.53-17.56h2.21Zm-4.75-7.3-1.77-6.2h-.22l-1.77,6.2Z"/><path class="cls-1" d="M67.32,29.14A5.32,5.32,0,0,1,65.94,33a5.88,5.88,0,0,1-4.37,1.42A5.88,5.88,0,0,1,57.2,33a5.32,5.32,0,0,1-1.38-3.86V16.86h2.54V29.14a3.26,3.26,0,0,0,.89,2.54,3.73,3.73,0,0,0,4.64,0,3.26,3.26,0,0,0,.89-2.54V16.86h2.54Z"/><path class="cls-1" d="M81.36,18.78H76.93V34.21H74.39V18.78H70V16.86H81.36Z"/><path class="cls-1" d="M91.08,34.21H88.54V16.86h2.54Z"/><path class="cls-1" d="M110.09,25.48c0,3.19-.54,5.47-1.6,6.86A5.3,5.3,0,0,1,104,34.42a5.47,5.47,0,0,1-4.53-2.08c-1.1-1.39-1.66-3.67-1.66-6.86s.56-5.44,1.66-6.8a5.54,5.54,0,0,1,4.53-2,5.37,5.37,0,0,1,4.48,2C109.55,20,110.09,22.31,110.09,25.48Zm-2.65,0q0-4.26-1-5.58A3,3,0,0,0,104,18.58a3.13,3.13,0,0,0-2.48,1.32c-.71.88-1,2.74-1,5.58s.34,4.72,1,5.64A3.08,3.08,0,0,0,104,32.49a3,3,0,0,0,2.44-1.37C107.11,30.2,107.44,28.33,107.44,25.48Z"/><path class="cls-1" d="M123.8,34.21H121L115,21.63h-.11V34.21H112.3V16.86h2.77l6.08,12.58h.11V16.86h2.54Z"/></g></g></g></svg>