<svg xmlns="http://www.w3.org/2000/svg" viewBox="0 0 149.81 129.92"><defs><style>.cls-1,.cls-3{fill:#fff;}.cls-1{stroke:#000;stroke-miterlimit:10;stroke-width:0.25px;}.cls-2{fill:#e90000;}.cls-4{opacity:0.2;}</style></defs><title>Yield sign（让路标志）</title><g id="图层_2" data-name="图层 2"><g id="图层_28" data-name="图层 28"><g id="Yield_sign_让路标志_" data-name="Yield sign（让路标志）"><path class="cls-1" d="M74.41,129.51.2,1A.56.56,0,0,1,.69.13H149.12a.57.57,0,0,1,.49.84L75.39,129.51A.56.56,0,0,1,74.41,129.51Z"/><path class="cls-2" d="M74.41,123.91,5.05,3.77a.56.56,0,0,1,.49-.84H144.27a.57.57,0,0,1,.49.84L75.39,123.91A.56.56,0,0,1,74.41,123.91Z"/><path class="cls-3" d="M74.41,92.89,31.92,19.29a.56.56,0,0,1,.49-.85h85a.56.56,0,0,1,.49.85l-42.5,73.6A.56.56,0,0,1,74.41,92.89Z"/>
</g></g></g></svg>