<svg xmlns="http://www.w3.org/2000/svg" xmlns:xlink="http://www.w3.org/1999/xlink" viewBox="0 0 150 150"><defs><style>.cls-1,.cls-2{fill:none;}.cls-2{stroke:#fff;stroke-miterlimit:10;stroke-width:0.1px;}.cls-3{opacity:0;}.cls-4{fill:#000714;}.cls-5{opacity:0.1;fill:url(#新建图案);}.cls-6{isolation:isolate;}.cls-7{fill:url(#未命名的渐变_179);}.cls-8{fill:#00040b;}.cls-9{fill:#fff;}.cls-10{fill:url(#未命名的渐变_75);}.cls-11{fill:url(#未命名的渐变_366);}.cls-12{fill:url(#未命名的渐变_366-2);}.cls-13{fill:url(#未命名的渐变_37);}.cls-14{fill:url(#未命名的渐变_179-2);}.cls-15{fill:url(#未命名的渐变_366-3);}.cls-16{fill:url(#未命名的渐变_179-3);}.cls-17{opacity:0.2;}</style><pattern id="新建图案" data-name="新建图案" width="18.57" height="32.16" patternTransform="translate(3890.57 727.44)" patternUnits="userSpaceOnUse" viewBox="0 0 18.57 32.16"><rect class="cls-1" width="18.57" height="32.16"/><polyline class="cls-2" points="18.57 21.44 18.57 32.16 18.57 42.88"/><polyline class="cls-2" points="9.29 26.8 18.57 32.16 27.85 37.51 27.85 37.52"/><polyline class="cls-2" points="9.29 37.52 9.29 37.51 18.57 32.16 27.85 26.8"/><polygon class="cls-2" points="27.85 37.52 27.85 26.8 18.57 21.44 9.28 26.8 9.28 37.52 18.57 42.88 27.85 37.52"/><polyline class="cls-2" points="0 21.44 0 32.16 0 42.88"/><polyline class="cls-2" points="-9.28 26.8 0 32.16 9.28 37.51 9.28 37.52"/><polyline class="cls-2" points="-9.28 37.52 -9.28 37.51 0 32.16 9.28 26.8"/><polygon class="cls-2" points="9.28 37.52 9.28 26.8 0 21.44 -9.29 26.8 -9.29 37.52 0 42.88 9.28 37.52"/><polyline class="cls-2" points="18.57 10.72 27.85 16.08 37.13 21.43 37.13 21.44"/><polyline class="cls-2" points="18.57 21.44 18.57 21.43 27.85 16.08 37.13 10.72"/><polygon class="cls-2" points="37.14 21.44 37.14 10.72 27.85 5.36 18.57 10.72 18.57 21.44 27.85 26.8 37.14 21.44"/><polyline class="cls-2" points="9.29 5.36 9.29 16.08 9.29 26.8"/><polyline class="cls-2" points="0.01 10.72 9.29 16.08 18.57 21.43 18.57 21.44"/><polyline class="cls-2" points="0.01 21.44 0.01 21.43 9.29 16.08 18.57 10.72"/><polygon class="cls-2" points="18.57 21.44 18.57 10.72 9.28 5.36 0 10.72 0 21.44 9.28 26.8 18.57 21.44"/><polyline class="cls-2" points="-18.56 10.72 -9.28 16.08 0 21.43 0 21.44"/><polyline class="cls-2" points="-18.56 21.44 -18.56 21.43 -9.28 16.08 0 10.72"/><polygon class="cls-2" points="0 21.44 0 10.72 -9.29 5.36 -18.57 10.72 -18.57 21.44 -9.29 26.8 0 21.44"/><polyline class="cls-2" points="18.57 -10.72 18.57 0 18.57 10.72"/><polyline class="cls-2" points="9.29 -5.36 18.57 0 27.85 5.35 27.85 5.36"/><polyline class="cls-2" points="9.29 5.36 9.29 5.35 18.57 0 27.85 -5.36"/><polygon class="cls-2" points="27.85 5.36 27.85 -5.36 18.57 -10.72 9.28 -5.36 9.28 5.36 18.57 10.72 27.85 5.36"/><polyline class="cls-2" points="0 -10.72 0 0 0 10.72"/><polyline class="cls-2" points="-9.28 -5.36 0 0 9.28 5.35 9.28 5.36"/><polyline class="cls-2" points="-9.28 5.36 -9.28 5.35 0 0 9.28 -5.36"/><polygon class="cls-2" points="9.28 5.36 9.28 -5.36 0 -10.72 -9.29 -5.36 -9.29 5.36 0 10.72 9.28 5.36"/></pattern><linearGradient id="未命名的渐变_179" x1="142.21" y1="87.25" x2="85.37" y2="30.41" gradientUnits="userSpaceOnUse"><stop offset="0" stop-color="#425266"/><stop offset="1" stop-color="#596b8c"/></linearGradient><radialGradient id="未命名的渐变_75" cx="116.91" cy="42.32" r="47.14" gradientTransform="translate(84.11 -73.74) rotate(60) scale(1 0.7)" gradientUnits="userSpaceOnUse"><stop offset="0" stop-color="#89abe6"/><stop offset="0.25" stop-color="#7a98cc"/><stop offset="0.73" stop-color="#12161a"/><stop offset="1" stop-color="#283140"/></radialGradient><linearGradient id="未命名的渐变_366" x1="116.77" y1="81.76" x2="95.47" y2="44.86" gradientUnits="userSpaceOnUse"><stop offset="0" stop-color="#283140"/><stop offset="0.1" stop-color="#12161a"/><stop offset="0.75" stop-color="#7a98cc"/><stop offset="0.85" stop-color="#7a98cc"/><stop offset="1" stop-color="#38455a"/></linearGradient><linearGradient id="未命名的渐变_366-2" x1="148.13" y1="86.45" x2="107.02" y2="15.26" xlink:href="#未命名的渐变_366"/><linearGradient id="未命名的渐变_37" x1="95.23" y1="95.5" x2="70.87" y2="60.71" gradientUnits="userSpaceOnUse"><stop offset="0" stop-color="#283140"/><stop offset="0.1" stop-color="#12161a"/><stop offset="0.73" stop-color="#89abe6"/><stop offset="0.83" stop-color="#89abe6"/><stop offset="1" stop-color="#38455a"/></linearGradient><linearGradient id="未命名的渐变_179-2" x1="72.5" y1="101.29" x2="49.15" y2="77.93" xlink:href="#未命名的渐变_179"/><linearGradient id="未命名的渐变_366-3" x1="47.7" y1="115.41" x2="32" y2="88.22" xlink:href="#未命名的渐变_366"/><linearGradient id="未命名的渐变_179-3" x1="21.88" y1="129.32" x2="0.28" y2="107.72" gradientTransform="matrix(0.86, 0.5, -0.5, 0.86, 61.05, 10.48)" xlink:href="#未命名的渐变_179"/></defs><title>主轴</title><g id="图层_2" data-name="图层 2"><g id="图元"><g id="主轴"><g id="背景" class="cls-3"><rect class="cls-4" width="150" height="150"/><rect id="网格" class="cls-5" width="150" height="150"/></g><g class="cls-6"><path class="cls-7" d="M113.37,25.05c-16.09-9-29-1.12-28.73,17.54s13.46,41.05,29.56,50,29,1.12,28.74-17.54S129.47,34,113.37,25.05Zm.69,55.9C103.52,75.08,94.85,60.41,94.7,48.2S103,30.84,113.52,36.71s19.2,20.54,19.35,32.76S124.6,86.83,114.06,81Z"/><path class="cls-8" d="M88,46.93c.33.16.58,0,.55-.41a1.34,1.34,0,0,0-.58-1l0,0c-.32-.16-.57,0-.55.41a1.3,1.3,0,0,0,.59,1Z"/><path class="cls-8" d="M89.45,35.61c.24.14.47.1.56-.12a1.14,1.14,0,0,0-.36-1.07.74.74,0,0,0-.2-.16c-.24-.14-.47-.1-.55.13a1.16,1.16,0,0,0,.35,1.07A1.3,1.3,0,0,0,89.45,35.61Z"/><path class="cls-8" d="M87.92,42.77l0,0c.3.18.57.05.58-.3a1.29,1.29,0,0,0-.54-1s0,0-.05,0c-.31-.18-.56,0-.58.29A1.28,1.28,0,0,0,87.92,42.77Z"/><path class="cls-8" d="M88.46,39c.27.15.52.07.58-.21a1.2,1.2,0,0,0-.45-1.06l-.12-.09c-.28-.16-.53-.08-.58.21a1.26,1.26,0,0,0,.45,1.07Z"/><path class="cls-8" d="M95.11,28.47a.4.4,0,0,0,.43,0c.23-.14.22-.57,0-1a1.29,1.29,0,0,0-.4-.43.42.42,0,0,0-.44,0c-.22.14-.21.57,0,1A1.18,1.18,0,0,0,95.11,28.47Z"/><path class="cls-8" d="M97.77,25.89a.44.44,0,0,0-.36-.06c-.26.07-.3.47-.1.89a1.16,1.16,0,0,0,.46.53.46.46,0,0,0,.37.06c.25-.09.29-.48.09-.89A1.22,1.22,0,0,0,97.77,25.89Z"/><path class="cls-8" d="M90.91,32.7c.21.12.42.11.52-.06a1,1,0,0,0-.24-1.06,1.2,1.2,0,0,0-.28-.24c-.21-.12-.41-.11-.52.06a1,1,0,0,0,.25,1.06A1,1,0,0,0,90.91,32.7Z"/><path class="cls-8" d="M92.81,30.3a.39.39,0,0,0,.48,0c.19-.2.13-.65-.13-1a1.06,1.06,0,0,0-.34-.33.39.39,0,0,0-.49,0c-.19.2-.13.65.13,1A1.19,1.19,0,0,0,92.81,30.3Z"/><path class="cls-8" d="M97.72,72.34a.41.41,0,0,0-.47,0c-.21.18-.16.64.1,1a1.19,1.19,0,0,0,.36.35.4.4,0,0,0,.47,0c.2-.18.15-.64-.1-1A1.18,1.18,0,0,0,97.72,72.34Z"/><path class="cls-8" d="M89,50.77a1.31,1.31,0,0,0-.58-.86l-.12-.06c-.32-.1-.53.14-.45.55a1.25,1.25,0,0,0,.57.86l.13.06C88.89,51.42,89.09,51.18,89,50.77Z"/><path class="cls-8" d="M100.68,76.35c-.21-.12-.41-.12-.52,0a1,1,0,0,0,.22,1,1,1,0,0,0,.29.27.37.37,0,0,0,.51,0A1,1,0,0,0,101,76.6,1,1,0,0,0,100.68,76.35Z"/><path class="cls-8" d="M95.07,68.06a.43.43,0,0,0-.42,0c-.23.12-.24.55,0,.95h0a1.27,1.27,0,0,0,.42.44.45.45,0,0,0,.41,0c.24-.13.24-.55,0-1A1.27,1.27,0,0,0,95.07,68.06Z"/><path class="cls-8" d="M89.43,54.42a.6.6,0,0,0-.2-.07c-.31-.05-.47.24-.35.66a1.26,1.26,0,0,0,.54.76,1.2,1.2,0,0,0,.21.09c.31,0,.46-.25.36-.66A1.36,1.36,0,0,0,89.43,54.42Z"/><path class="cls-8" d="M104.1,80.17a1,1,0,0,0-.21-.17c-.23-.13-.46-.1-.56.11a1.13,1.13,0,0,0,.33,1.07.87.87,0,0,0,.22.17c.23.14.46.11.55-.1a1.11,1.11,0,0,0-.33-1.07Z"/><path class="cls-8" d="M90.88,59a.6.6,0,0,0-.28-.08c-.29,0-.39.36-.24.78a1.31,1.31,0,0,0,.52.66.57.57,0,0,0,.28.08c.28,0,.39-.36.24-.78A1.31,1.31,0,0,0,90.88,59Z"/><path class="cls-8" d="M92.77,63.59a.46.46,0,0,0-.35-.07c-.26.06-.32.45-.13.87a1.36,1.36,0,0,0,.47.55.47.47,0,0,0,.35.07c.27-.06.33-.46.13-.87A1.18,1.18,0,0,0,92.77,63.59Z"/><path class="cls-8" d="M132.76,52.89a1.23,1.23,0,0,0-.47-.53.45.45,0,0,0-.36-.07c-.26.07-.31.47-.11.89a1.26,1.26,0,0,0,.47.54.47.47,0,0,0,.36.06C132.91,53.7,133,53.3,132.76,52.89Z"/><path class="cls-8" d="M133.17,51.85a.45.45,0,0,0,.38.06c.24-.1.28-.51.07-.91a1.27,1.27,0,0,0-.45-.51.45.45,0,0,0-.38-.06c-.25.1-.28.51-.07.92A1.23,1.23,0,0,0,133.17,51.85Z"/><path class="cls-8" d="M130.35,49.37c.23-.15.21-.58,0-1a1.42,1.42,0,0,0-.41-.43.43.43,0,0,0-.43,0c-.23.15-.22.58,0,1h0a1.12,1.12,0,0,0,.4.41A.43.43,0,0,0,130.35,49.37Z"/><path class="cls-8" d="M130.68,47.47a.44.44,0,0,0,.45,0c.21-.16.19-.61,0-1a1.15,1.15,0,0,0-.39-.4.4.4,0,0,0-.44,0c-.22.15-.2.6,0,1A1.25,1.25,0,0,0,130.68,47.47Z"/><path class="cls-8" d="M134.74,57.51a1.32,1.32,0,0,0-.51-.65.67.67,0,0,0-.29-.08c-.28,0-.38.38-.23.8a1.3,1.3,0,0,0,.52.64.54.54,0,0,0,.28.09C134.8,58.29,134.9,57.93,134.74,57.51Z"/><path class="cls-8" d="M135.27,56.38a.47.47,0,0,0,.31.07c.28,0,.37-.41.2-.82a1.36,1.36,0,0,0-.51-.61A.46.46,0,0,0,135,55c-.28,0-.36.41-.18.83A1.3,1.3,0,0,0,135.27,56.38Z"/><path class="cls-8" d="M138.17,65.54l.17.07c.31.07.49-.2.4-.61a1.29,1.29,0,0,0-.56-.82.49.49,0,0,0-.17-.06c-.31-.09-.49.2-.4.61A1.35,1.35,0,0,0,138.17,65.54Z"/><path class="cls-8" d="M135.5,61.33c-.31,0-.46.25-.35.67a1.32,1.32,0,0,0,.55.77.58.58,0,0,0,.21.07c.3,0,.46-.25.34-.67a1.23,1.23,0,0,0-.55-.76A.56.56,0,0,0,135.5,61.33Z"/><path class="cls-8" d="M137,61a.73.73,0,0,0,.25.08c.29,0,.43-.31.29-.72a1.34,1.34,0,0,0-.53-.72.59.59,0,0,0-.24-.07c-.31,0-.44.3-.31.72A1.33,1.33,0,0,0,137,61Z"/><path class="cls-8" d="M138.34,69.07a1.32,1.32,0,0,0,.58.92l.08,0c.32.13.55-.08.51-.47a1.36,1.36,0,0,0-.59-.93.2.2,0,0,0-.08,0C138.52,68.46,138.29,68.68,138.34,69.07Z"/><path class="cls-8" d="M127.69,45.16c.18-.2.12-.65-.15-1a1.06,1.06,0,0,0-.34-.33.37.37,0,0,0-.48,0c-.19.19-.13.65.14,1a1.17,1.17,0,0,0,.34.33A.39.39,0,0,0,127.69,45.16Z"/><path class="cls-8" d="M128.19,42.26a1,1,0,0,0-.32-.31c-.19-.1-.38-.11-.49,0s-.11.66.16,1a1,1,0,0,0,.33.3c.19.11.37.12.49,0a.93.93,0,0,0-.15-1Z"/><path class="cls-8" d="M114,32.58c.32.19.59,0,.59-.33a1.32,1.32,0,0,0-.58-1c-.32-.19-.6-.05-.6.32a1.35,1.35,0,0,0,.58,1Z"/><path class="cls-8" d="M114.45,29.24h0c-.32-.18-.57,0-.58.32a1.29,1.29,0,0,0,.57,1h0c.32.18.58,0,.6-.32A1.31,1.31,0,0,0,114.45,29.24Z"/><path class="cls-8" d="M110.87,27.32l-.06,0c-.33-.15-.57.05-.53.44a1.28,1.28,0,0,0,.58.94l.06,0c.33.15.56-.05.53-.44A1.3,1.3,0,0,0,110.87,27.32Z"/><path class="cls-8" d="M107.35,26l-.14-.06c-.32-.09-.52.17-.44.58a1.34,1.34,0,0,0,.57.84l.14.06c.32.09.51-.17.44-.58A1.35,1.35,0,0,0,107.35,26Z"/><path class="cls-8" d="M104,25.33a.7.7,0,0,0-.23-.08c-.3,0-.44.28-.32.7a1.26,1.26,0,0,0,.54.73.43.43,0,0,0,.23.08c.29,0,.44-.27.32-.69A1.31,1.31,0,0,0,104,25.33Z"/><path class="cls-8" d="M117.48,35c.29.16.53.06.58-.24a1.29,1.29,0,0,0-.48-1.06l-.1-.06c-.28-.17-.53-.07-.58.23a1.3,1.3,0,0,0,.48,1.06Z"/><path class="cls-8" d="M118,31.69c-.28-.16-.52-.07-.57.23a1.25,1.25,0,0,0,.48,1.06l.1.07c.28.16.53.08.58-.23a1.23,1.23,0,0,0-.48-1.05Z"/><path class="cls-8" d="M100.73,25.29a.48.48,0,0,0-.29-.08c-.28,0-.38.39-.22.8a1.22,1.22,0,0,0,.51.63.49.49,0,0,0,.3.08c.28,0,.38-.38.21-.8A1.26,1.26,0,0,0,100.73,25.29Z"/><path class="cls-8" d="M121.47,34.68c-.26-.15-.49-.1-.57.14a1.19,1.19,0,0,0,.38,1.08l.17.14c.25.14.49.09.57-.15a1.19,1.19,0,0,0-.38-1.08A1,1,0,0,0,121.47,34.68Z"/><path class="cls-8" d="M124.78,38.12c-.22-.12-.43-.1-.54.08a1.09,1.09,0,0,0,.28,1.07,1,1,0,0,0,.25.21c.22.12.43.1.53-.08a1,1,0,0,0-.26-1.06A1.6,1.6,0,0,0,124.78,38.12Z"/><path class="cls-8" d="M110.86,86l-.06,0c-.3-.17-.55-.07-.59.26a1.32,1.32,0,0,0,.53,1.06l.06,0a.36.36,0,0,0,.59-.28A1.27,1.27,0,0,0,110.86,86Z"/><path class="cls-8" d="M121.4,90.8a.45.45,0,0,0-.18-.07c-.31-.07-.48.21-.38.63a1.27,1.27,0,0,0,.56.79.58.58,0,0,0,.18.08c.3,0,.48-.23.38-.64A1.3,1.3,0,0,0,121.4,90.8Z"/><path class="cls-8" d="M114.38,88.17h0c-.33-.18-.58,0-.57.36a1.29,1.29,0,0,0,.58,1h0c.32.18.58,0,.57-.38A1.28,1.28,0,0,0,114.38,88.17Z"/><path class="cls-8" d="M136.92,83.7c-.22-.13-.43-.1-.53.09a1.09,1.09,0,0,0,.29,1.07,1.16,1.16,0,0,0,.25.2c.22.13.44.1.53-.1a1,1,0,0,0-.3-1.06A.76.76,0,0,0,136.92,83.7Z"/><path class="cls-8" d="M124.72,91.17a.56.56,0,0,0-.26-.08c-.3,0-.42.33-.27.75a1.28,1.28,0,0,0,.53.68.49.49,0,0,0,.25.08c.3,0,.41-.33.28-.75A1.34,1.34,0,0,0,124.72,91.17Z"/><path class="cls-8" d="M133.13,88.47a.41.41,0,0,0-.46,0c-.21.17-.17.62.07,1a1.14,1.14,0,0,0,.38.38.39.39,0,0,0,.45,0c.22-.17.18-.62-.06-1A1.06,1.06,0,0,0,133.13,88.47Z"/><path class="cls-8" d="M135.24,86.35c-.2-.11-.39-.11-.5,0a1,1,0,0,0,.18,1.05,1.31,1.31,0,0,0,.31.28c.2.11.4.12.51,0a1,1,0,0,0-.19-1A1.37,1.37,0,0,0,135.24,86.35Z"/><path class="cls-8" d="M117.93,89.79l-.1-.05c-.32-.12-.54.11-.48.51a1.34,1.34,0,0,0,.58.9l.1,0c.32.13.53-.1.48-.5A1.32,1.32,0,0,0,117.93,89.79Z"/><path class="cls-8" d="M130.64,90a.46.46,0,0,0-.4-.06c-.25.11-.27.53-.05.93a1.33,1.33,0,0,0,.44.49.43.43,0,0,0,.39,0c.25-.1.27-.53,0-.92A1.13,1.13,0,0,0,130.64,90Z"/><path class="cls-8" d="M127.81,90.89a.48.48,0,0,0-.32-.07h0c-.26.06-.34.44-.15.85a1.23,1.23,0,0,0,.48.58.54.54,0,0,0,.33.08h0c.27-.06.34-.44.16-.86A1.24,1.24,0,0,0,127.81,90.89Z"/><path class="cls-8" d="M107.28,83.23c-.26-.16-.5-.09-.57.18a1.23,1.23,0,0,0,.43,1.08l.14.09c.26.16.51.09.57-.18a1.23,1.23,0,0,0-.42-1.07A.65.65,0,0,0,107.28,83.23Z"/><path class="cls-8" d="M139,77l-.07,0c-.29-.17-.55-.07-.59.25a1.28,1.28,0,0,0,.5,1.06l.08,0c.29.17.54.08.58-.24h0A1.28,1.28,0,0,0,139,77Z"/><path class="cls-8" d="M138.16,80.54c-.26-.15-.49-.09-.57.17a1.22,1.22,0,0,0,.41,1.07l.16.12c.26.15.49.09.57-.16a1.21,1.21,0,0,0-.4-1.07Z"/><path class="cls-8" d="M139.17,72.87c-.33-.18-.59,0-.59.35v.11a1.32,1.32,0,0,0,.58,1c.33.19.6,0,.6-.33v-.13A1.3,1.3,0,0,0,139.17,72.87Z"/><path class="cls-8" d="M131.78,86a.37.37,0,0,0-.45,0l0,0h0c-.21.16-.18.61.07,1a1.37,1.37,0,0,0,.38.38.41.41,0,0,0,.46,0v0l0,0c.21-.17.17-.62-.08-1A1.08,1.08,0,0,0,131.78,86Z"/><path class="cls-8" d="M107,29.64a.44.44,0,0,0,.16.06c.31.08.49-.2.4-.6a1.33,1.33,0,0,0-.56-.82l-.16-.07c-.32-.07-.5.2-.41.61A1.31,1.31,0,0,0,107,29.64Z"/><path class="cls-8" d="M110.44,30.79l.07,0c.32.13.55-.08.51-.48a1.3,1.3,0,0,0-.59-.92l-.08,0c-.31-.13-.54.07-.5.47A1.3,1.3,0,0,0,110.44,30.79Z"/><path class="cls-8" d="M103.66,29.15a.57.57,0,0,0,.24.08c.31,0,.43-.32.29-.74a1.28,1.28,0,0,0-.53-.7.57.57,0,0,0-.24-.08c-.3,0-.43.32-.3.74A1.4,1.4,0,0,0,103.66,29.15Z"/><path class="cls-8" d="M103.39,77.66a1,1,0,0,0-.26-1,.92.92,0,0,0-.27-.23.36.36,0,0,0-.53.06,1.08,1.08,0,0,0,.27,1.07,1.05,1.05,0,0,0,.26.22C103.08,77.86,103.29,77.84,103.39,77.66Z"/><path class="cls-8" d="M129.28,87.55a.4.4,0,0,0-.39,0c-.25.11-.27.52,0,.92a1.22,1.22,0,0,0,.44.48.44.44,0,0,0,.39.06c.24-.11.27-.53.05-.92A1.12,1.12,0,0,0,129.28,87.55Z"/><path class="cls-8" d="M136.1,66.37a1.34,1.34,0,0,0,.58.86l.13.06c.32.11.51-.14.45-.54a1.35,1.35,0,0,0-.58-.88l-.12-.05C136.24,65.72,136,66,136.1,66.37Z"/><path class="cls-8" d="M136.5,77.89c-.26-.15-.5-.09-.57.18a1.23,1.23,0,0,0,.43,1.07l.15.11c.26.15.5.08.57-.2a1.2,1.2,0,0,0-.44-1.06A.45.45,0,0,0,136.5,77.89Z"/><path class="cls-8" d="M137.67,75.28a1.27,1.27,0,0,0-.53-1l-.06,0c-.3-.18-.55,0-.58.28a1.28,1.28,0,0,0,.53,1l.05,0C137.39,75.74,137.65,75.63,137.67,75.28Z"/><path class="cls-8" d="M133.82,83.84c-.2-.11-.4-.11-.51,0a1,1,0,0,0,.2,1.05,1.06,1.06,0,0,0,.3.27.37.37,0,0,0,.51,0,1,1,0,0,0-.2-1A1,1,0,0,0,133.82,83.84Z"/><path class="cls-8" d="M137.15,70.18l0,0c-.34-.17-.58,0-.56.4a1.28,1.28,0,0,0,.59,1l0,0c.33.17.58,0,.56-.39A1.31,1.31,0,0,0,137.15,70.18Z"/><path class="cls-8" d="M135.41,81.12c-.23-.13-.45-.1-.55.11a1.12,1.12,0,0,0,.33,1.07.7.7,0,0,0,.21.18c.24.14.46.1.55-.11h0a1.1,1.1,0,0,0-.32-1.07A.87.87,0,0,0,135.41,81.12Z"/><path class="cls-8" d="M113.09,85.16h0c-.32-.19-.58,0-.59.33a1.32,1.32,0,0,0,.58,1h0c.32.19.58,0,.59-.32A1.28,1.28,0,0,0,113.09,85.16Z"/><path class="cls-8" d="M92.82,59.48a.5.5,0,0,0-.28-.08c-.29,0-.39.37-.23.79a1.32,1.32,0,0,0,.51.65.49.49,0,0,0,.3.08c.28,0,.38-.37.22-.79A1.28,1.28,0,0,0,92.82,59.48Z"/><path class="cls-8" d="M93.28,32.53c-.21-.11-.4-.11-.52,0a1,1,0,0,0,.2,1,1.09,1.09,0,0,0,.31.27c.2.12.4.12.51,0a1,1,0,0,0-.2-1.05A1.22,1.22,0,0,0,93.28,32.53Z"/><path class="cls-8" d="M94.76,65.36a.44.44,0,0,0,.36.06c.26-.08.31-.48.11-.88a1.15,1.15,0,0,0-.47-.54.43.43,0,0,0-.36-.06c-.26.07-.3.47-.1.88A1.31,1.31,0,0,0,94.76,65.36Z"/><path class="cls-8" d="M91.91,35.42a1.81,1.81,0,0,0-.23-.18c-.23-.13-.46-.1-.55.11a1.08,1.08,0,0,0,.32,1.06.93.93,0,0,0,.22.19c.24.13.46.1.55-.11A1.12,1.12,0,0,0,91.91,35.42Z"/><path class="cls-8" d="M91.91,55.71a1.32,1.32,0,0,0-.55-.77.9.9,0,0,0-.21-.08c-.3,0-.46.27-.35.67h0a1.33,1.33,0,0,0,.55.76.44.44,0,0,0,.21.07c.31.05.46-.26.35-.67Z"/><path class="cls-8" d="M116.6,87l-.08,0c-.32-.14-.54.07-.5.47a1.28,1.28,0,0,0,.58.92l.08,0c.32.14.55-.07.51-.47A1.3,1.3,0,0,0,116.6,87Z"/><path class="cls-8" d="M100.32,73.89c.19-.2.13-.66-.14-1a1,1,0,0,0-.34-.31.36.36,0,0,0-.48,0c-.19.19-.13.65.14,1a1.13,1.13,0,0,0,.34.32A.4.4,0,0,0,100.32,73.89Z"/><path class="cls-8" d="M109.56,82.76c-.28-.17-.54-.08-.59.22a1.29,1.29,0,0,0,.48,1.06l.11.07c.28.16.53.07.58-.23a1.26,1.26,0,0,0-.49-1.06A.47.47,0,0,0,109.56,82.76Z"/><path class="cls-8" d="M106.31,80a.73.73,0,0,0-.18-.14c-.25-.14-.48-.1-.56.15a1.13,1.13,0,0,0,.37,1.06.68.68,0,0,0,.18.14c.25.15.48.09.57-.14A1.17,1.17,0,0,0,106.31,80Z"/><path class="cls-8" d="M95.32,30.39a.37.37,0,0,0-.45,0h0c-.21.17-.17.62.08,1a1.11,1.11,0,0,0,.38.37.36.36,0,0,0,.45,0h0c.21-.17.17-.62-.07-1A1.32,1.32,0,0,0,95.32,30.39Z"/><path class="cls-8" d="M97.54,69.77c.23-.14.23-.57,0-1a1.22,1.22,0,0,0-.41-.43.42.42,0,0,0-.43,0c-.22.15-.21.58,0,1a1.14,1.14,0,0,0,.41.43A.4.4,0,0,0,97.54,69.77Z"/><path class="cls-8" d="M123.38,88.6a.55.55,0,0,0-.25-.07c-.29,0-.42.31-.29.72a1.26,1.26,0,0,0,.53.7.69.69,0,0,0,.25.09c.3,0,.43-.31.29-.74A1.24,1.24,0,0,0,123.38,88.6Z"/><path class="cls-8" d="M123.91,41.11a1,1,0,0,0,.27.23c.21.12.42.11.52-.07a1.05,1.05,0,0,0-.25-1.06,1.38,1.38,0,0,0-.27-.23c-.22-.12-.43-.1-.53.07a1.07,1.07,0,0,0,.26,1.07Z"/><path class="cls-8" d="M100.56,29.35a.6.6,0,0,0,.33.07c.27-.05.35-.43.17-.84a1.22,1.22,0,0,0-.49-.59.47.47,0,0,0-.33-.08c-.27.05-.35.42-.16.84A1.29,1.29,0,0,0,100.56,29.35Z"/><path class="cls-8" d="M97.77,28.86a.4.4,0,0,0-.39-.05c-.25.1-.27.52,0,.93a1.16,1.16,0,0,0,.43.47.43.43,0,0,0,.4.06c.24-.12.27-.53,0-.93A1.22,1.22,0,0,0,97.77,28.86Z"/><path class="cls-8" d="M90.43,39.73l.15.1c.26.15.49.08.56-.19h0a1.24,1.24,0,0,0-.44-1.07l-.14-.1c-.27-.15-.51-.08-.57.19A1.21,1.21,0,0,0,90.43,39.73Z"/><path class="cls-8" d="M126.48,88.42a.47.47,0,0,0-.33-.08c-.27,0-.35.43-.17.84a1.19,1.19,0,0,0,.5.59.49.49,0,0,0,.32.08c.27,0,.35-.42.17-.85A1.3,1.3,0,0,0,126.48,88.42Z"/><path class="cls-8" d="M89.93,46.19l0,0c-.33-.17-.58,0-.56.4a1.32,1.32,0,0,0,.59,1h0c.32.17.57,0,.55-.39h0A1.28,1.28,0,0,0,89.93,46.19Z"/><path class="cls-8" d="M121.48,37.77a1.19,1.19,0,0,0-.38-1.07.77.77,0,0,0-.19-.14c-.25-.15-.48-.1-.56.14a1.19,1.19,0,0,0,.38,1.08l.18.14C121.16,38.06,121.39,38,121.48,37.77Z"/><path class="cls-8" d="M120.07,88.12a.36.36,0,0,0-.17-.07c-.31-.09-.49.18-.4.59a1.29,1.29,0,0,0,.56.83l.16.06c.32.08.5-.19.41-.6A1.25,1.25,0,0,0,120.07,88.12Z"/><path class="cls-8" d="M90,42.18l-.05,0c-.31-.18-.57-.06-.59.28a1.29,1.29,0,0,0,.53,1l.06,0c.3.17.55.06.58-.28A1.28,1.28,0,0,0,90,42.18Z"/><path class="cls-8" d="M90.5,51.88c.32.1.53-.13.46-.53a1.33,1.33,0,0,0-.58-.88l-.12-.06c-.32-.1-.53.14-.46.55a1.35,1.35,0,0,0,.58.87Z"/><path class="cls-9" d="M107.9,76.34c-.48-.44-.91-.88-1.32-1.31C107,75.48,107.45,75.92,107.9,76.34Z"/><path class="cls-9" d="M106,74.45c-.28-.3-.55-.59-.79-.88C105.51,73.87,105.77,74.16,106,74.45Z"/><path class="cls-9" d="M107.91,76.35h0v0Z"/><path class="cls-9" d="M106.58,75l-.54-.58Z"/><path class="cls-9" d="M104.9,73.16c-.68-.81-1.28-1.58-1.81-2.27C103.67,71.68,104.28,72.43,104.9,73.16Z"/><path class="cls-9" d="M105.25,73.57c-.12-.13-.23-.27-.35-.41C105,73.3,105.13,73.43,105.25,73.57Z"/><path class="cls-10" d="M113.52,36.71C108,33.62,103,33.58,99.59,36c-3.1,2.19-5,6.4-4.89,12.2a3.88,3.88,0,0,1,.14,1,14.31,14.31,0,0,1,.22-2.87,5,5,0,0,1,.54-1.57c2.71-1.84,6.58-1.79,10.91.62,8.34,4.65,15.2,16.25,15.31,25.92.07,5.18-1.82,8.74-4.87,10.23-.36,0-1.48,0-3.86-1.34a26.45,26.45,0,0,1-5.18-3.88A30.85,30.85,0,0,0,114.06,81c4.83,2.69,9.21,3.07,12.53,1.52,3.93-1.84,6.36-6.39,6.28-13C132.72,57.25,124.06,42.58,113.52,36.71Z"/><path class="cls-11" d="M106.51,45.43c-4.1-2.28-7.79-2.46-10.48-.9L84.19,51.41c2.69-1.56,6.38-1.38,10.48.91C103,57,109.87,68.56,110,78.23c.06,4.91-1.63,8.38-4.4,10l11.84-6.88c2.77-1.61,4.46-5.08,4.4-10C121.71,61.68,114.85,50.08,106.51,45.43Z"/><path class="cls-12" d="M120.44,20.94c-7.92-4.41-15.06-4.75-20.24-1.74l-7.06,4.1c5.18-3,12.32-2.67,20.23,1.75,16.1,9,29.34,31.36,29.57,50,.11,9.49-3.15,16.18-8.51,19.29l7.06-4.1c5.36-3.12,8.62-9.81,8.51-19.29C149.77,52.31,136.53,29.91,120.44,20.94Z"/><path class="cls-13" d="M94.67,52.32c-4.45-2.49-8.43-2.48-11.15-.47L51.81,75.36c2.16-1.6,5.31-1.6,8.85.36,6.61,3.69,12,12.9,12.14,20.56.06,4.23-1.52,7.1-4.06,8.22l36.12-15.92c3.2-1.4,5.19-5,5.12-10.35C109.87,68.56,103,57,94.67,52.32Z"/><path class="cls-14" d="M60.66,75.72C54,72,48.75,75.27,48.85,82.93S54.38,99.81,61,103.49s11.9.46,11.8-7.21S67.27,79.41,60.66,75.72ZM61,102.45c-6.11-3.41-11.14-11.92-11.23-19s4.8-10.08,10.92-6.67,11.15,11.92,11.23,19S67.1,105.86,61,102.45Z"/><path class="cls-15" d="M60.67,76.77C57.66,75.09,55,75,53,76.11L3.23,105c2-1.15,4.68-1,7.69.66,6.12,3.41,11.15,11.92,11.23,19,.05,3.61-1.19,6.15-3.23,7.33l49.75-28.91c2-1.18,3.28-3.73,3.23-7.33C71.82,88.69,66.79,80.18,60.67,76.77Z"/><ellipse class="cls-16" cx="11.08" cy="118.52" rx="9.04" ry="15.62" transform="translate(-58.05 21.61) rotate(-30.16)"/></g></g></g></g></svg>