<svg xmlns="http://www.w3.org/2000/svg" xmlns:xlink="http://www.w3.org/1999/xlink" viewBox="0 0 150 150"><defs><style>.cls-1,.cls-2{fill:none;}.cls-2{stroke:#fff;stroke-miterlimit:10;stroke-width:0.1px;}.cls-3{isolation:isolate;}.cls-4{opacity:0;}.cls-5,.cls-8{fill:#000714;}.cls-6{opacity:0.1;fill:url(#新建图案);}.cls-7{fill:url(#未命名的渐变_12);}.cls-27,.cls-32,.cls-8{mix-blend-mode:overlay;}.cls-9{fill:url(#未命名的渐变_78);}.cls-10{fill:url(#未命名的渐变_42);}.cls-11{fill:url(#未命名的渐变_12-2);}.cls-12{fill:url(#未命名的渐变_78-2);}.cls-13{fill:url(#未命名的渐变_42-2);}.cls-14{fill:url(#未命名的渐变_12-3);}.cls-15{fill:url(#未命名的渐变_16);}.cls-16{fill:url(#未命名的渐变_16-2);}.cls-17{fill:url(#未命名的渐变_16-3);}.cls-18{fill:url(#未命名的渐变_16-4);}.cls-19{fill:url(#未命名的渐变_16-5);}.cls-20{fill:url(#未命名的渐变_16-6);}.cls-21{fill:url(#未命名的渐变_16-7);}.cls-22{fill:url(#未命名的渐变_16-8);}.cls-23{fill:url(#未命名的渐变_16-9);}.cls-24{fill:url(#未命名的渐变_16-10);}.cls-25{fill:url(#未命名的渐变_16-11);}.cls-26{fill:url(#未命名的渐变_13);}.cls-27{fill:url(#未命名的渐变_38);}.cls-28{fill:url(#未命名的渐变_12-4);}.cls-29{fill:url(#未命名的渐变_13-2);}.cls-30{fill:url(#未命名的渐变_42-3);}.cls-31{fill:url(#未命名的渐变_78-3);}.cls-33{fill:url(#未命名的渐变_29);}.cls-34{fill:url(#未命名的渐变_24);}.cls-35{opacity:0.2;}</style><pattern id="新建图案" data-name="新建图案" width="18.57" height="32.16" patternTransform="translate(3525.68 727.44)" patternUnits="userSpaceOnUse" viewBox="0 0 18.57 32.16"><rect class="cls-1" width="18.57" height="32.16"/><polyline class="cls-2" points="18.57 21.44 18.57 32.16 18.57 42.88"/><polyline class="cls-2" points="9.29 26.8 18.57 32.16 27.85 37.51 27.85 37.52"/><polyline class="cls-2" points="9.29 37.52 9.29 37.51 18.57 32.16 27.85 26.8"/><polygon class="cls-2" points="27.85 37.52 27.85 26.8 18.57 21.44 9.28 26.8 9.28 37.52 18.57 42.88 27.85 37.52"/><polyline class="cls-2" points="0 21.44 0 32.16 0 42.88"/><polyline class="cls-2" points="-9.28 26.8 0 32.16 9.28 37.51 9.28 37.52"/><polyline class="cls-2" points="-9.28 37.52 -9.28 37.51 0 32.16 9.28 26.8"/><polygon class="cls-2" points="9.28 37.52 9.28 26.8 0 21.44 -9.29 26.8 -9.29 37.52 0 42.88 9.28 37.52"/><polyline class="cls-2" points="18.57 10.72 27.85 16.08 37.13 21.43 37.13 21.44"/><polyline class="cls-2" points="18.57 21.44 18.57 21.43 27.85 16.08 37.13 10.72"/><polygon class="cls-2" points="37.14 21.44 37.14 10.72 27.85 5.36 18.57 10.72 18.57 21.44 27.85 26.8 37.14 21.44"/><polyline class="cls-2" points="9.29 5.36 9.29 16.08 9.29 26.8"/><polyline class="cls-2" points="0.01 10.72 9.29 16.08 18.57 21.43 18.57 21.44"/><polyline class="cls-2" points="0.01 21.44 0.01 21.43 9.29 16.08 18.57 10.72"/><polygon class="cls-2" points="18.57 21.44 18.57 10.72 9.28 5.36 0 10.72 0 21.44 9.28 26.8 18.57 21.44"/><polyline class="cls-2" points="-18.56 10.72 -9.28 16.08 0 21.43 0 21.44"/><polyline class="cls-2" points="-18.56 21.44 -18.56 21.43 -9.28 16.08 0 10.72"/><polygon class="cls-2" points="0 21.44 0 10.72 -9.29 5.36 -18.57 10.72 -18.57 21.44 -9.29 26.8 0 21.44"/><polyline class="cls-2" points="18.57 -10.72 18.57 0 18.57 10.72"/><polyline class="cls-2" points="9.29 -5.36 18.57 0 27.85 5.35 27.85 5.36"/><polyline class="cls-2" points="9.29 5.36 9.29 5.35 18.57 0 27.85 -5.36"/><polygon class="cls-2" points="27.85 5.36 27.85 -5.36 18.57 -10.72 9.28 -5.36 9.28 5.36 18.57 10.72 27.85 5.36"/><polyline class="cls-2" points="0 -10.72 0 0 0 10.72"/><polyline class="cls-2" points="-9.28 -5.36 0 0 9.28 5.35 9.28 5.36"/><polyline class="cls-2" points="-9.28 5.36 -9.28 5.35 0 0 9.28 -5.36"/><polygon class="cls-2" points="9.28 5.36 9.28 -5.36 0 -10.72 -9.29 -5.36 -9.29 5.36 0 10.72 9.28 5.36"/></pattern><linearGradient id="未命名的渐变_12" x1="35.8" y1="134.75" x2="114.2" y2="134.75" gradientUnits="userSpaceOnUse"><stop offset="0" stop-color="#0073e6"/><stop offset="0.15" stop-color="#59c8ff"/><stop offset="0.25" stop-color="#59c8ff"/><stop offset="0.85" stop-color="#1433cc"/><stop offset="1" stop-color="#0073e6"/></linearGradient><linearGradient id="未命名的渐变_78" x1="28.89" y1="116.17" x2="107.28" y2="116.17" gradientTransform="translate(6.92 3.7)" gradientUnits="userSpaceOnUse"><stop offset="0" stop-color="#8ce2ff"/><stop offset="1" stop-color="#44b6ff"/></linearGradient><linearGradient id="未命名的渐变_42" x1="75" y1="142.57" x2="75" y2="97.16" gradientUnits="userSpaceOnUse"><stop offset="0" stop-color="#99beff"/><stop offset="0.02" stop-color="#99beff" stop-opacity="0.93"/><stop offset="0.09" stop-color="#99beff" stop-opacity="0.74"/><stop offset="0.17" stop-color="#99beff" stop-opacity="0.56"/><stop offset="0.25" stop-color="#99beff" stop-opacity="0.41"/><stop offset="0.33" stop-color="#99beff" stop-opacity="0.28"/><stop offset="0.43" stop-color="#99beff" stop-opacity="0.18"/><stop offset="0.53" stop-color="#99beff" stop-opacity="0.1"/><stop offset="0.64" stop-color="#99beff" stop-opacity="0.04"/><stop offset="0.77" stop-color="#99beff" stop-opacity="0.01"/><stop offset="1" stop-color="#99beff" stop-opacity="0"/></linearGradient><linearGradient id="未命名的渐变_12-2" x1="36.2" y1="123.21" x2="99.95" y2="123.21" gradientTransform="translate(6.92 3.7)" xlink:href="#未命名的渐变_12"/><linearGradient id="未命名的渐变_78-2" x1="43.12" y1="116" x2="106.88" y2="116" gradientTransform="matrix(1, 0, 0, 1, 0, 0)" xlink:href="#未命名的渐变_78"/><linearGradient id="未命名的渐变_42-2" x1="75" y1="134.46" x2="75" y2="97.53" xlink:href="#未命名的渐变_42"/><linearGradient id="未命名的渐变_12-3" x1="42.79" y1="93.43" x2="107.21" y2="93.43" xlink:href="#未命名的渐变_12"/><linearGradient id="未命名的渐变_16" x1="46.61" y1="125.55" x2="46.61" y2="59.81" gradientUnits="userSpaceOnUse"><stop offset="0" stop-color="#12161a"/><stop offset="0.1" stop-color="#15191f"/><stop offset="0.66" stop-color="#232b37"/><stop offset="1" stop-color="#283140"/></linearGradient><linearGradient id="未命名的渐变_16-2" x1="52.31" y1="129.24" x2="52.31" y2="65.2" xlink:href="#未命名的渐变_16"/><linearGradient id="未命名的渐变_16-3" x1="58.02" y1="131.63" x2="58.02" y2="68.2" xlink:href="#未命名的渐变_16"/><linearGradient id="未命名的渐变_16-4" x1="63.66" y1="133.07" x2="63.66" y2="70.02" xlink:href="#未命名的渐变_16"/><linearGradient id="未命名的渐变_16-5" x1="69.36" y1="133.82" x2="69.36" y2="71.15" xlink:href="#未命名的渐变_16"/><linearGradient id="未命名的渐变_16-6" x1="75.06" y1="133.94" x2="75.06" y2="71.59" xlink:href="#未命名的渐变_16"/><linearGradient id="未命名的渐变_16-7" x1="80.7" y1="133.82" x2="80.7" y2="71.21" xlink:href="#未命名的渐变_16"/><linearGradient id="未命名的渐变_16-8" x1="86.41" y1="133.07" x2="86.41" y2="70.08" xlink:href="#未命名的渐变_16"/><linearGradient id="未命名的渐变_16-9" x1="92.05" y1="131.69" x2="92.05" y2="68.27" xlink:href="#未命名的渐变_16"/><linearGradient id="未命名的渐变_16-10" x1="97.75" y1="129.37" x2="97.75" y2="65.26" xlink:href="#未命名的渐变_16"/><linearGradient id="未命名的渐变_16-11" x1="103.45" y1="125.55" x2="103.45" y2="59.87" xlink:href="#未命名的渐变_16"/><linearGradient id="未命名的渐变_13" x1="35.85" y1="49.54" x2="100.31" y2="49.54" gradientTransform="translate(6.92 3.7)" gradientUnits="userSpaceOnUse"><stop offset="0" stop-color="#89abe6"/><stop offset="1" stop-color="#547099"/></linearGradient><linearGradient id="未命名的渐变_38" x1="75" y1="90.38" x2="75" y2="56.34" gradientUnits="userSpaceOnUse"><stop offset="0.38" stop-opacity="0"/><stop offset="1" stop-opacity="0.5"/></linearGradient><linearGradient id="未命名的渐变_12-4" x1="33.16" y1="46.17" x2="103" y2="46.17" gradientTransform="translate(6.92 3.7)" xlink:href="#未命名的渐变_12"/><linearGradient id="未命名的渐变_13-2" x1="33.16" y1="21.34" x2="103" y2="21.34" xlink:href="#未命名的渐变_13"/><linearGradient id="未命名的渐变_42-3" x1="75" y1="45.26" x2="75" y2="4.81" xlink:href="#未命名的渐变_42"/><linearGradient id="未命名的渐变_78-3" x1="45.94" y1="16.85" x2="104.11" y2="16.85" gradientTransform="matrix(1, 0, 0, 1, 0, 0)" xlink:href="#未命名的渐变_78"/><linearGradient id="未命名的渐变_29" x1="45.94" y1="16.85" x2="104.11" y2="16.85" gradientUnits="userSpaceOnUse"><stop offset="0" stop-color="#fff"/><stop offset="0.02" stop-color="#fff" stop-opacity="0.93"/><stop offset="0.09" stop-color="#fff" stop-opacity="0.74"/><stop offset="0.17" stop-color="#fff" stop-opacity="0.56"/><stop offset="0.25" stop-color="#fff" stop-opacity="0.41"/><stop offset="0.33" stop-color="#fff" stop-opacity="0.28"/><stop offset="0.43" stop-color="#fff" stop-opacity="0.18"/><stop offset="0.53" stop-color="#fff" stop-opacity="0.1"/><stop offset="0.64" stop-color="#fff" stop-opacity="0.04"/><stop offset="0.77" stop-color="#fff" stop-opacity="0.01"/><stop offset="1" stop-color="#fff" stop-opacity="0"/></linearGradient><linearGradient id="未命名的渐变_24" x1="47.78" y1="8.38" x2="103.04" y2="40.29" gradientUnits="userSpaceOnUse"><stop offset="0" stop-color="#0073e6"/><stop offset="0.3" stop-color="#59c8ff"/><stop offset="0.4" stop-color="#59c8ff"/><stop offset="0.85" stop-color="#1433cc"/><stop offset="1" stop-color="#0073e6"/></linearGradient></defs><title>偏航电机</title><g class="cls-3"><g id="图层_2" data-name="图层 2"><g id="图元"><g id="偏航电机"><g id="背景" class="cls-4"><rect class="cls-5" width="150" height="150"/><rect id="网格" class="cls-6" width="150" height="150"/></g><path class="cls-7" d="M114.2,119.92v7.73c-.11,5.68-3.92,11.36-11.39,15.7-15.26,8.87-40.07,8.87-55.42,0-7.73-4.45-11.59-10.3-11.59-16.13V119.5c0,5.85,3.86,11.68,11.59,16.13,15.35,8.88,40.16,8.86,55.42,0C110.28,131.31,114.09,125.62,114.2,119.92Z"/><path class="cls-8" d="M114.14,123.38c-.11,5.87-4.14,11.4-11.31,15.58-15.24,8.84-40.12,8.84-55.46,0-7.43-4.29-11.51-10-11.51-16H35.8v3.27c1.2,5,5.11,9.53,11.35,13.11,7.72,4.47,17.86,6.72,28,6.72s20.23-2.25,27.91-6.72c6.09-3.53,10-8,11.15-12.92v-3Z"/><path class="cls-9" d="M114.2,119.68v.54c-.11,5.69-3.91,11.37-11.38,15.7-15.26,8.86-40.08,8.88-55.44,0-7.71-4.45-11.57-10.29-11.57-16.13s3.8-11.56,11.39-16c15.26-8.86,40.07-8.86,55.43,0C110.23,108.2,114.09,113.93,114.2,119.68Z"/><path class="cls-10" d="M74.87,97.16v.1c10.45,0,20.3,2.36,27.71,6.65s11.4,9.82,11.52,15.77v.53c-.12,5.9-4.14,11.45-11.33,15.62-7.37,4.29-17.19,6.64-27.65,6.64s-20.28-2.35-27.69-6.64-11.52-10-11.52-16,4-11.64,11.34-15.89,17.17-6.64,27.62-6.64v-.1m0,0c-10,0-20,2.22-27.67,6.65s-11.39,10.21-11.39,16,3.86,11.68,11.57,16.13,17.71,6.65,27.74,6.65,20.06-2.22,27.7-6.65c7.47-4.33,11.27-10,11.38-15.7v-.54c-.11-5.75-4-11.48-11.57-15.86S84.9,97.16,74.87,97.16Z"/><path class="cls-11" d="M106.88,116v3.89c-.09,4.63-3.19,9.25-9.26,12.77-12.41,7.21-32.6,7.21-45.08,0-6.27-3.62-9.42-8.37-9.42-13.11V115.7c0,4.75,3.15,9.49,9.42,13.12,12.48,7.21,32.67,7.2,45.08,0C103.69,125.29,106.79,120.67,106.88,116Z"/><path class="cls-12" d="M106.88,115.85v.43c-.09,4.63-3.19,9.25-9.26,12.77-12.41,7.21-32.6,7.22-45.08,0-6.27-3.62-9.42-8.37-9.42-13.12s3.1-9.4,9.27-13C64.8,95.73,85,95.73,97.47,103,103.65,106.51,106.79,111.17,106.88,115.85Z"/><path class="cls-13" d="M74.89,97.78h0c8.47,0,16.45,1.91,22.46,5.38s9.18,7.91,9.28,12.69v.42c-.1,4.74-3.34,9.2-9.14,12.56-6,3.47-13.92,5.38-22.39,5.38s-16.44-1.91-22.44-5.38-9.29-8-9.29-12.9,3.25-9.35,9.15-12.78,13.9-5.37,22.37-5.37m0-.25c-8.15,0-16.3,1.8-22.5,5.41s-9.27,8.3-9.27,13,3.15,9.5,9.42,13.12,14.4,5.41,22.56,5.41,16.31-1.8,22.52-5.41,9.17-8.14,9.26-12.77v-.43c-.09-4.68-3.23-9.34-9.41-12.9s-14.42-5.42-22.58-5.42Z"/><path class="cls-14" d="M107.21,53.29v62.23A11.64,11.64,0,0,1,105,122.1a16.16,16.16,0,0,1-3.14,3.45,15.79,15.79,0,0,1-2.56,1.94,10.3,10.3,0,0,1-1.45.94l-1.69.94c-.81.38-1.69.81-2.57,1.19s-2.07.75-3.13,1.13c-.82.25-1.69.5-2.51.69-1,.25-2.07.5-3.13.69-.82.19-1.69.31-2.57.44s-2.07.18-3.13.31c-.82.06-1.63.06-2.51.12-1.07,0-2.13,0-3.13-.06s-1.7,0-2.57-.06l-3.14-.38-2.57-.37a24.64,24.64,0,0,1-3.13-.76c-.88-.18-1.69-.43-2.51-.68a27.73,27.73,0,0,1-3.13-1.13c-.88-.38-1.75-.82-2.57-1.26a12.88,12.88,0,0,1-1.57-.81,13.82,13.82,0,0,1-1.56-1,16.2,16.2,0,0,1-2.57-1.88A18.18,18.18,0,0,1,45,122a12.07,12.07,0,0,1-2.25-6.83V52.91A12.26,12.26,0,0,0,45,59.81a18.18,18.18,0,0,0,3.14,3.51,16.2,16.2,0,0,0,2.57,1.88,13.82,13.82,0,0,0,1.56,1,12.88,12.88,0,0,0,1.57.81c.82.44,1.69.82,2.57,1.19a25.9,25.9,0,0,0,3.13,1.13,16,16,0,0,0,2.51.69,24.62,24.62,0,0,0,3.13.75l2.57.38,3.14.38c.87.06,1.69.06,2.57.06s2.06.06,3.13.06c.88-.06,1.69-.06,2.51-.12,1.06-.13,2.13-.19,3.13-.32S84,71,84.84,70.77A22.91,22.91,0,0,0,88,70.08c.82-.18,1.69-.43,2.51-.69a25.86,25.86,0,0,0,3.13-1.12c.88-.38,1.76-.76,2.57-1.19.57-.25,1.13-.57,1.69-.88a11.27,11.27,0,0,0,1.45-.94,16.38,16.38,0,0,0,2.56-1.94A16.16,16.16,0,0,0,105,59.87,11.66,11.66,0,0,0,107.21,53.29Z"/><path class="cls-15" d="M48.18,63.32v62.23A18.18,18.18,0,0,1,45,122V59.81A18.18,18.18,0,0,0,48.18,63.32Z"/><path class="cls-16" d="M53.88,67v62.23a12.88,12.88,0,0,1-1.57-.81,13.82,13.82,0,0,1-1.56-1V65.2a13.82,13.82,0,0,0,1.56,1A12.88,12.88,0,0,0,53.88,67Z"/><path class="cls-17" d="M59.58,69.33v62.3a27.73,27.73,0,0,1-3.13-1.13V68.2A25.9,25.9,0,0,0,59.58,69.33Z"/><path class="cls-18" d="M65.22,70.77v62.3a24.64,24.64,0,0,1-3.13-.76V70A24.62,24.62,0,0,0,65.22,70.77Z"/><path class="cls-19" d="M70.93,71.53v62.29l-3.14-.38V71.15Z"/><path class="cls-20" d="M76.63,71.65v62.29c-1.07,0-2.13,0-3.13-.06V71.59C74.5,71.65,75.56,71.65,76.63,71.65Z"/><path class="cls-21" d="M82.27,71.21v62.3c-1,.12-2.07.18-3.13.31V71.53C80.2,71.4,81.27,71.34,82.27,71.21Z"/><path class="cls-22" d="M88,70.08v62.3c-1,.25-2.07.5-3.13.69V70.77A22.91,22.91,0,0,0,88,70.08Z"/><path class="cls-23" d="M93.61,68.27v62.29c-1,.38-2.07.75-3.13,1.13V69.39A25.86,25.86,0,0,0,93.61,68.27Z"/><path class="cls-24" d="M99.32,65.26v62.23a10.3,10.3,0,0,1-1.45.94l-1.69.94V67.08c.57-.25,1.13-.57,1.69-.88A11.27,11.27,0,0,0,99.32,65.26Z"/><path class="cls-25" d="M105,59.87V122.1a16.16,16.16,0,0,1-3.14,3.45V63.32A16.16,16.16,0,0,0,105,59.87Z"/><path class="cls-26" d="M107.23,53.08v.44c-.09,4.68-3.22,9.35-9.36,12.91-12.54,7.29-33,7.3-45.58,0C46,62.77,42.77,58,42.77,53.17S45.9,43.66,52.14,40c12.54-7.29,33-7.29,45.58,0C104,43.64,107.14,48.35,107.23,53.08Z"/><path class="cls-27" d="M107.21,56.66V72A11.69,11.69,0,0,1,105,78.54,15.89,15.89,0,0,1,101.88,82a16.52,16.52,0,0,1-2.57,2,11.82,11.82,0,0,1-1.44.93l-1.69,1c-.82.37-1.69.81-2.57,1.19s-2.07.75-3.13,1.12c-.82.25-1.7.51-2.51.69-1,.25-2.07.5-3.13.69-.82.19-1.7.32-2.57.44s-2.07.19-3.14.31c-.81.07-1.63.07-2.5.13-1.07,0-2.13,0-3.14-.06s-1.69,0-2.57-.07l-3.13-.37-2.57-.38a26.45,26.45,0,0,1-3.13-.75c-.88-.19-1.69-.44-2.51-.69a25.9,25.9,0,0,1-3.13-1.13c-.88-.37-1.76-.81-2.57-1.25a11.09,11.09,0,0,1-1.57-.82,13.46,13.46,0,0,1-1.57-1A16,16,0,0,1,48.17,82,18.15,18.15,0,0,1,45,78.47a12,12,0,0,1-2.26-6.83V56.34A12,12,0,0,0,45,63.17a18.15,18.15,0,0,0,3.13,3.51,16,16,0,0,0,2.57,1.88,15,15,0,0,0,1.57,1,12.19,12.19,0,0,0,1.57.81c.81.44,1.69.88,2.57,1.25a25.9,25.9,0,0,0,3.13,1.13c.82.25,1.63.5,2.51.69a26.45,26.45,0,0,0,3.13.75l2.57.38,3.13.37c.88.07,1.7.07,2.57.07s2.07.06,3.14.06c.87-.06,1.69-.06,2.5-.13,1.07-.12,2.13-.18,3.14-.31s1.75-.25,2.57-.44C85.9,74,87,73.76,88,73.51c.81-.18,1.69-.44,2.51-.69,1.06-.37,2.13-.75,3.13-1.12s1.75-.82,2.57-1.19l1.69-.94a13.21,13.21,0,0,0,1.44-.94,16.52,16.52,0,0,0,2.57-1.95A15.89,15.89,0,0,0,105,63.24,11.69,11.69,0,0,0,107.21,56.66Z"/><path class="cls-28" d="M109.92,25.09v30c-.1,5.07-3.49,10.13-10.14,14C86.19,77,64.07,77,50.4,69.09c-6.87-4-10.32-9.16-10.32-14.36v-30c0,5.2,3.45,10.4,10.32,14.37,13.67,7.91,35.79,7.9,49.38,0C106.43,35.22,109.82,30.16,109.92,25.09Z"/><path class="cls-29" d="M109.92,24.87v.48c-.1,5.07-3.49,10.12-10.14,14-13.59,7.89-35.71,7.9-49.38,0-6.87-4-10.32-9.17-10.32-14.37s3.39-10.3,10.15-14.24c13.6-7.9,35.7-7.9,49.38,0C106.38,14.65,109.82,19.75,109.92,24.87Z"/><path class="cls-30" d="M74.88,4.81v.1C84.19,4.91,93,7,99.56,10.83s10.16,8.74,10.26,14v.47c-.1,5.25-3.69,10.19-10.09,13.91-6.57,3.81-15.31,5.91-24.62,5.91S57,43.06,50.45,39.25,40.18,30.35,40.18,25s3.59-10.36,10.1-14.15,15.3-5.91,24.6-5.91v-.1m0,0c-8.93,0-17.85,2-24.65,5.92S40.08,19.82,40.08,25s3.45,10.4,10.32,14.37,15.78,5.92,24.71,5.92,17.87-2,24.67-5.92,10-8.92,10.14-14v-.48c-.1-5.12-3.54-10.22-10.31-14.13S83.82,4.81,74.88,4.81Z"/><g class="cls-3"><path class="cls-31" d="M95.88,5.14c-11.2-6.69-29.61-6.87-41.13-.41S43,21.86,54.17,28.55s29.61,6.88,41.12.41S107.07,11.84,95.88,5.14Z"/><g class="cls-32"><path class="cls-33" d="M74.93.25c7.91,0,15.31,1.81,20.82,5.11,5.29,3.16,8.16,7.3,8.11,11.67s-3.15,8.61-8.69,11.72-12.52,4.69-20,4.69c-7.92,0-15.31-1.81-20.82-5.11C49,25.17,46.13,21,46.19,16.66S49.34,8.05,54.88,5,67.39.25,74.93.25m0-.25C67.65,0,60.38,1.57,54.75,4.73,43.24,11.19,43,21.86,54.17,28.55c5.72,3.42,13.34,5.14,21,5.14,7.27,0,14.55-1.57,20.17-4.73,11.52-6.46,11.78-17.12.59-23.82C90.15,1.72,82.54,0,74.93,0Z"/></g><path class="cls-34" d="M106.85,16.83,101.56,10c4.87,6.28,2.74,13.91-6.27,19-11.51,6.47-29.93,6.28-41.12-.41C45.59,23.42,43.74,16,48.53,9.84l-2.67,3.4Q44.54,15,43.2,16.64C37.46,24,39.68,32.94,50,39.09c13.43,8,35.52,8.25,49.34.5C110.14,33.52,112.68,24.37,106.85,16.83Z"/></g></g></g></g></g></svg>