<svg xmlns="http://www.w3.org/2000/svg" xmlns:xlink="http://www.w3.org/1999/xlink" viewBox="0 0 150 150"><defs><style>.cls-1,.cls-2{fill:none;}.cls-2{stroke:#fff;stroke-miterlimit:10;stroke-width:0.1px;}.cls-3{opacity:0;}.cls-4{fill:#000714;}.cls-5{opacity:0.1;fill:url(#新建图案);}.cls-6{isolation:isolate;}.cls-7{fill:url(#未命名的渐变_71);}.cls-8{fill:url(#未命名的渐变_107);}.cls-9{fill:url(#未命名的渐变_13);}.cls-10{fill:url(#未命名的渐变_42);}.cls-11{fill:url(#未命名的渐变_149);}.cls-12{opacity:0.5;}.cls-13{fill:url(#未命名的渐变_186);}.cls-14{fill:url(#未命名的渐变_99);}.cls-15{fill:url(#未命名的渐变_149-2);}.cls-16{fill:url(#未命名的渐变_186-2);}.cls-17{fill:url(#未命名的渐变_99-2);}.cls-18{fill:url(#未命名的渐变_149-3);}.cls-19{fill:url(#未命名的渐变_186-3);}.cls-20{fill:url(#未命名的渐变_99-3);}.cls-21{fill:url(#未命名的渐变_149-4);}.cls-22{fill:url(#未命名的渐变_186-4);}.cls-23{fill:url(#未命名的渐变_99-4);}.cls-24{fill:url(#未命名的渐变_149-5);}.cls-25{fill:url(#未命名的渐变_186-5);}.cls-26{fill:url(#未命名的渐变_99-5);}.cls-27{fill:url(#未命名的渐变_149-6);}.cls-28{fill:url(#未命名的渐变_186-6);}.cls-29{fill:url(#未命名的渐变_99-6);}.cls-30{fill:url(#未命名的渐变_149-7);}.cls-31{fill:url(#未命名的渐变_186-7);}.cls-32{fill:url(#未命名的渐变_99-7);}.cls-33{fill:url(#未命名的渐变_149-8);}.cls-34{fill:url(#未命名的渐变_186-8);}.cls-35{fill:url(#未命名的渐变_99-8);}.cls-36{fill:url(#未命名的渐变_157);}.cls-37{opacity:0.4;}.cls-38{fill:url(#未命名的渐变_186-9);}.cls-39{fill:url(#未命名的渐变_99-9);}.cls-40{fill:url(#未命名的渐变_157-2);}.cls-41{fill:url(#未命名的渐变_186-10);}.cls-42{fill:url(#未命名的渐变_99-10);}.cls-43{fill:url(#未命名的渐变_157-3);}.cls-44{fill:url(#未命名的渐变_186-11);}.cls-45{fill:url(#未命名的渐变_99-11);}.cls-46{fill:url(#未命名的渐变_157-4);}.cls-47{fill:url(#未命名的渐变_186-12);}.cls-48{fill:url(#未命名的渐变_99-12);}.cls-49{fill:url(#未命名的渐变_186-13);}.cls-50{fill:url(#未命名的渐变_191);}.cls-51{fill:url(#未命名的渐变_177);}.cls-52{fill:url(#未命名的渐变_186-14);}.cls-53{fill:url(#未命名的渐变_182);}.cls-54{fill:url(#未命名的渐变_177-2);}.cls-55{fill:url(#未命名的渐变_186-15);}.cls-56{fill:url(#未命名的渐变_191-2);}.cls-57{fill:url(#未命名的渐变_177-3);}.cls-58{fill:url(#未命名的渐变_186-16);}.cls-59{fill:url(#未命名的渐变_182-2);}.cls-60{fill:url(#未命名的渐变_177-4);}.cls-61{fill:url(#未命名的渐变_186-17);}.cls-62{fill:url(#未命名的渐变_191-3);}.cls-63{fill:url(#未命名的渐变_177-5);}.cls-64{fill:url(#未命名的渐变_186-18);}.cls-65{fill:url(#未命名的渐变_182-3);}.cls-66{fill:url(#未命名的渐变_177-6);}.cls-67{fill:url(#未命名的渐变_186-19);}.cls-68{fill:url(#未命名的渐变_191-4);}.cls-69{fill:url(#未命名的渐变_177-7);}.cls-70{fill:url(#未命名的渐变_186-20);}.cls-71{fill:url(#未命名的渐变_182-4);}.cls-72{fill:url(#未命名的渐变_177-8);}.cls-73{opacity:0.2;}</style><pattern id="新建图案" data-name="新建图案" width="18.57" height="32.16" patternTransform="translate(2650.27 470.05)" patternUnits="userSpaceOnUse" viewBox="0 0 18.57 32.16"><rect class="cls-1" width="18.57" height="32.16"/><polyline class="cls-2" points="18.57 21.44 18.57 32.16 18.57 42.88"/><polyline class="cls-2" points="9.29 26.8 18.57 32.16 27.85 37.51 27.85 37.52"/><polyline class="cls-2" points="9.29 37.52 9.29 37.51 18.57 32.16 27.85 26.8"/><polygon class="cls-2" points="27.85 37.52 27.85 26.8 18.57 21.44 9.28 26.8 9.28 37.52 18.57 42.88 27.85 37.52"/><polyline class="cls-2" points="0 21.44 0 32.16 0 42.88"/><polyline class="cls-2" points="-9.28 26.8 0 32.16 9.28 37.51 9.28 37.52"/><polyline class="cls-2" points="-9.28 37.52 -9.28 37.51 0 32.16 9.28 26.8"/><polygon class="cls-2" points="9.28 37.52 9.28 26.8 0 21.44 -9.29 26.8 -9.29 37.52 0 42.88 9.28 37.52"/><polyline class="cls-2" points="18.57 10.72 27.85 16.08 37.13 21.43 37.13 21.44"/><polyline class="cls-2" points="18.57 21.44 18.57 21.43 27.85 16.08 37.13 10.72"/><polygon class="cls-2" points="37.14 21.44 37.14 10.72 27.85 5.36 18.57 10.72 18.57 21.44 27.85 26.8 37.14 21.44"/><polyline class="cls-2" points="9.29 5.36 9.29 16.08 9.29 26.8"/><polyline class="cls-2" points="0.01 10.72 9.29 16.08 18.57 21.43 18.57 21.44"/><polyline class="cls-2" points="0.01 21.44 0.01 21.43 9.29 16.08 18.57 10.72"/><polygon class="cls-2" points="18.57 21.44 18.57 10.72 9.28 5.36 0 10.72 0 21.44 9.28 26.8 18.57 21.44"/><polyline class="cls-2" points="-18.56 10.72 -9.28 16.08 0 21.43 0 21.44"/><polyline class="cls-2" points="-18.56 21.44 -18.56 21.43 -9.28 16.08 0 10.72"/><polygon class="cls-2" points="0 21.44 0 10.72 -9.29 5.36 -18.57 10.72 -18.57 21.44 -9.29 26.8 0 21.44"/><polyline class="cls-2" points="18.57 -10.72 18.57 0 18.57 10.72"/><polyline class="cls-2" points="9.29 -5.36 18.57 0 27.85 5.35 27.85 5.36"/><polyline class="cls-2" points="9.29 5.36 9.29 5.35 18.57 0 27.85 -5.36"/><polygon class="cls-2" points="27.85 5.36 27.85 -5.36 18.57 -10.72 9.28 -5.36 9.28 5.36 18.57 10.72 27.85 5.36"/><polyline class="cls-2" points="0 -10.72 0 0 0 10.72"/><polyline class="cls-2" points="-9.28 -5.36 0 0 9.28 5.35 9.28 5.36"/><polyline class="cls-2" points="-9.28 5.36 -9.28 5.35 0 0 9.28 -5.36"/><polygon class="cls-2" points="9.28 5.36 9.28 -5.36 0 -10.72 -9.29 -5.36 -9.29 5.36 0 10.72 9.28 5.36"/></pattern><linearGradient id="未命名的渐变_71" x1="103.95" y1="143.26" x2="-3.68" y2="35.64" gradientUnits="userSpaceOnUse"><stop offset="0" stop-color="#425266"/><stop offset="1" stop-color="#596b8c"/></linearGradient><linearGradient id="未命名的渐变_107" x1="90.98" y1="137.98" x2="159.13" y2="69.82" gradientUnits="userSpaceOnUse"><stop offset="0" stop-color="#283140"/><stop offset="0.34" stop-color="#232b37"/><stop offset="0.9" stop-color="#15191f"/><stop offset="1" stop-color="#12161a"/></linearGradient><linearGradient id="未命名的渐变_13" x1="0.16" y1="46.24" x2="150" y2="46.24" gradientUnits="userSpaceOnUse"><stop offset="0" stop-color="#89abe6"/><stop offset="1" stop-color="#547099"/></linearGradient><linearGradient id="未命名的渐变_42" x1="75.08" y1="89.59" x2="75.08" y2="2.89" gradientUnits="userSpaceOnUse"><stop offset="0" stop-color="#99beff"/><stop offset="0.02" stop-color="#99beff" stop-opacity="0.93"/><stop offset="0.09" stop-color="#99beff" stop-opacity="0.74"/><stop offset="0.17" stop-color="#99beff" stop-opacity="0.56"/><stop offset="0.25" stop-color="#99beff" stop-opacity="0.41"/><stop offset="0.33" stop-color="#99beff" stop-opacity="0.28"/><stop offset="0.43" stop-color="#99beff" stop-opacity="0.18"/><stop offset="0.53" stop-color="#99beff" stop-opacity="0.1"/><stop offset="0.64" stop-color="#99beff" stop-opacity="0.04"/><stop offset="0.77" stop-color="#99beff" stop-opacity="0.01"/><stop offset="1" stop-color="#99beff" stop-opacity="0"/></linearGradient><linearGradient id="未命名的渐变_149" x1="8.31" y1="61.89" x2="17.66" y2="45.69" gradientUnits="userSpaceOnUse"><stop offset="0" stop-color="#334055"/><stop offset="1" stop-color="#6c84b3"/></linearGradient><linearGradient id="未命名的渐变_186" x1="7.33" y1="63.59" x2="18.64" y2="43.99" gradientUnits="userSpaceOnUse"><stop offset="0" stop-color="#262e39"/><stop offset="1" stop-color="#99beff"/></linearGradient><linearGradient id="未命名的渐变_99" x1="7.2" y1="63.81" x2="18.77" y2="43.77" gradientUnits="userSpaceOnUse"><stop offset="0" stop-color="#99beff" stop-opacity="0.3"/><stop offset="1" stop-color="#262e39"/></linearGradient><linearGradient id="未命名的渐变_149-2" x1="8.31" y1="90.13" x2="17.66" y2="73.93" xlink:href="#未命名的渐变_149"/><linearGradient id="未命名的渐变_186-2" x1="7.33" y1="91.83" x2="18.64" y2="72.23" xlink:href="#未命名的渐变_186"/><linearGradient id="未命名的渐变_99-2" x1="7.2" y1="92.05" x2="18.77" y2="72.02" xlink:href="#未命名的渐变_99"/><linearGradient id="未命名的渐变_149-3" x1="32.83" y1="76.01" x2="42.18" y2="59.81" xlink:href="#未命名的渐变_149"/><linearGradient id="未命名的渐变_186-3" x1="31.84" y1="77.71" x2="43.16" y2="58.11" xlink:href="#未命名的渐变_186"/><linearGradient id="未命名的渐变_99-3" x1="31.72" y1="77.93" x2="43.28" y2="57.9" xlink:href="#未命名的渐变_99"/><linearGradient id="未命名的渐变_149-4" x1="32.83" y1="104.25" x2="42.18" y2="88.05" xlink:href="#未命名的渐变_149"/><linearGradient id="未命名的渐变_186-4" x1="31.84" y1="105.95" x2="43.16" y2="86.36" xlink:href="#未命名的渐变_186"/><linearGradient id="未命名的渐变_99-4" x1="31.72" y1="106.17" x2="43.28" y2="86.14" xlink:href="#未命名的渐变_99"/><linearGradient id="未命名的渐变_149-5" x1="57.58" y1="90.13" x2="66.93" y2="73.93" xlink:href="#未命名的渐变_149"/><linearGradient id="未命名的渐变_186-5" x1="56.59" y1="91.83" x2="67.91" y2="72.23" xlink:href="#未命名的渐变_186"/><linearGradient id="未命名的渐变_99-5" x1="56.47" y1="92.05" x2="68.03" y2="72.02" xlink:href="#未命名的渐变_99"/><linearGradient id="未命名的渐变_149-6" x1="57.58" y1="118.37" x2="66.93" y2="102.18" xlink:href="#未命名的渐变_149"/><linearGradient id="未命名的渐变_186-6" x1="56.59" y1="120.08" x2="67.91" y2="100.48" xlink:href="#未命名的渐变_186"/><linearGradient id="未命名的渐变_99-6" x1="56.47" y1="120.29" x2="68.03" y2="100.26" xlink:href="#未命名的渐变_99"/><linearGradient id="未命名的渐变_149-7" x1="82.19" y1="104.47" x2="91.54" y2="88.27" xlink:href="#未命名的渐变_149"/><linearGradient id="未命名的渐变_186-7" x1="81.2" y1="106.17" x2="92.52" y2="86.57" xlink:href="#未命名的渐变_186"/><linearGradient id="未命名的渐变_99-7" x1="81.08" y1="106.39" x2="92.64" y2="86.36" xlink:href="#未命名的渐变_99"/><linearGradient id="未命名的渐变_149-8" x1="82.19" y1="132.71" x2="91.54" y2="116.51" xlink:href="#未命名的渐变_149"/><linearGradient id="未命名的渐变_186-8" x1="81.2" y1="134.41" x2="92.52" y2="114.81" xlink:href="#未命名的渐变_186"/><linearGradient id="未命名的渐变_99-8" x1="81.08" y1="134.63" x2="92.64" y2="114.6" xlink:href="#未命名的渐变_99"/><linearGradient id="未命名的渐变_157" x1="99.15" y1="90.58" x2="108.51" y2="74.38" gradientTransform="matrix(-1, 0, 0, 1, 241.42, 0)" gradientUnits="userSpaceOnUse"><stop offset="0" stop-color="#12151a"/><stop offset="1" stop-color="#283140"/></linearGradient><linearGradient id="未命名的渐变_186-9" x1="143.24" y1="92.28" x2="131.93" y2="72.69" xlink:href="#未命名的渐变_186"/><linearGradient id="未命名的渐变_99-9" x1="143.37" y1="92.5" x2="131.8" y2="72.47" xlink:href="#未命名的渐变_99"/><linearGradient id="未命名的渐变_157-2" x1="99.15" y1="118.83" x2="108.51" y2="102.63" xlink:href="#未命名的渐变_157"/><linearGradient id="未命名的渐变_186-10" x1="143.24" y1="120.53" x2="131.93" y2="100.93" xlink:href="#未命名的渐变_186"/><linearGradient id="未命名的渐变_99-10" x1="143.37" y1="120.74" x2="131.8" y2="100.71" xlink:href="#未命名的渐变_99"/><linearGradient id="未命名的渐变_157-3" x1="123.76" y1="104.92" x2="133.12" y2="88.72" xlink:href="#未命名的渐变_157"/><linearGradient id="未命名的渐变_186-11" x1="118.63" y1="106.62" x2="107.32" y2="87.02" xlink:href="#未命名的渐变_186"/><linearGradient id="未命名的渐变_99-11" x1="118.76" y1="106.84" x2="107.19" y2="86.81" xlink:href="#未命名的渐变_99"/><linearGradient id="未命名的渐变_157-4" x1="123.76" y1="133.16" x2="133.12" y2="116.96" xlink:href="#未命名的渐变_157"/><linearGradient id="未命名的渐变_186-12" x1="118.63" y1="134.86" x2="107.32" y2="115.27" xlink:href="#未命名的渐变_186"/><linearGradient id="未命名的渐变_99-12" x1="118.76" y1="135.08" x2="107.19" y2="115.05" xlink:href="#未命名的渐变_99"/><linearGradient id="未命名的渐变_186-13" x1="29.78" y1="17.91" x2="70.28" y2="17.91" xlink:href="#未命名的渐变_186"/><linearGradient id="未命名的渐变_191" x1="30.03" y1="17.91" x2="70.03" y2="17.91" gradientUnits="userSpaceOnUse"><stop offset="0" stop-color="#99beff"/><stop offset="1" stop-color="#262e39"/></linearGradient><linearGradient id="未命名的渐变_177" x1="39.57" y1="23.96" x2="60.5" y2="11.87" gradientUnits="userSpaceOnUse"><stop offset="0" stop-color="#97bcfd"/><stop offset="1" stop-color="#57739e"/></linearGradient><linearGradient id="未命名的渐变_186-14" x1="5.87" y1="31.43" x2="46.37" y2="31.43" xlink:href="#未命名的渐变_186"/><linearGradient id="未命名的渐变_182" x1="6.12" y1="31.43" x2="46.12" y2="31.43" xlink:href="#未命名的渐变_191"/><linearGradient id="未命名的渐变_177-2" x1="15.65" y1="37.48" x2="36.59" y2="25.39" xlink:href="#未命名的渐变_177"/><linearGradient id="未命名的渐变_186-15" x1="53.7" y1="32.24" x2="94.2" y2="32.24" xlink:href="#未命名的渐变_186"/><linearGradient id="未命名的渐变_191-2" x1="53.95" y1="32.24" x2="93.95" y2="32.24" xlink:href="#未命名的渐变_191"/><linearGradient id="未命名的渐变_177-3" x1="63.48" y1="38.29" x2="84.42" y2="26.2" xlink:href="#未命名的渐变_177"/><linearGradient id="未命名的渐变_186-16" x1="29.78" y1="45.76" x2="70.28" y2="45.76" xlink:href="#未命名的渐变_186"/><linearGradient id="未命名的渐变_182-2" x1="30.03" y1="45.76" x2="70.03" y2="45.76" xlink:href="#未命名的渐变_191"/><linearGradient id="未命名的渐变_177-4" x1="39.57" y1="51.8" x2="60.5" y2="39.72" xlink:href="#未命名的渐变_177"/><linearGradient id="未命名的渐变_186-17" x1="78.57" y1="46.2" x2="119.07" y2="46.2" xlink:href="#未命名的渐变_186"/><linearGradient id="未命名的渐变_191-3" x1="78.82" y1="46.2" x2="118.82" y2="46.2" xlink:href="#未命名的渐变_191"/><linearGradient id="未命名的渐变_177-5" x1="88.35" y1="52.24" x2="109.29" y2="40.15" xlink:href="#未命名的渐变_177"/><linearGradient id="未命名的渐变_186-18" x1="54.66" y1="59.71" x2="95.16" y2="59.71" xlink:href="#未命名的渐变_186"/><linearGradient id="未命名的渐变_182-3" x1="54.91" y1="59.71" x2="94.91" y2="59.71" xlink:href="#未命名的渐变_191"/><linearGradient id="未命名的渐变_177-6" x1="64.44" y1="65.76" x2="85.38" y2="53.67" xlink:href="#未命名的渐变_177"/><linearGradient id="未命名的渐变_186-19" x1="103.66" y1="60.02" x2="144.16" y2="60.02" xlink:href="#未命名的渐变_186"/><linearGradient id="未命名的渐变_191-4" x1="103.91" y1="60.02" x2="143.91" y2="60.02" xlink:href="#未命名的渐变_191"/><linearGradient id="未命名的渐变_177-7" x1="113.44" y1="66.06" x2="134.38" y2="53.97" xlink:href="#未命名的渐变_177"/><linearGradient id="未命名的渐变_186-20" x1="79.75" y1="73.54" x2="120.25" y2="73.54" xlink:href="#未命名的渐变_186"/><linearGradient id="未命名的渐变_182-4" x1="80" y1="73.54" x2="120" y2="73.54" xlink:href="#未命名的渐变_191"/><linearGradient id="未命名的渐变_177-8" x1="89.53" y1="79.58" x2="110.47" y2="67.49" xlink:href="#未命名的渐变_177"/></defs><title>储热水箱</title><g id="图层_2" data-name="图层 2"><g id="图元"><g id="储热水箱"><g class="cls-3"><rect class="cls-4" width="150" height="150"/><rect id="网格" class="cls-5" width="150" height="150"/></g><g class="cls-6"><polygon class="cls-7" points="0.16 31.79 0 89.31 100.11 147.11 100.27 89.59 0.16 31.79"/><polygon class="cls-8" points="100.27 89.59 100.11 147.11 149.84 118.21 150 60.69 100.27 89.59"/><polygon class="cls-9" points="49.89 2.89 0.16 31.79 100.27 89.59 150 60.69 49.89 2.89"/><path class="cls-10" d="M49.89,3.76,148.5,60.69l-48.23,28L1.66,31.79l48.23-28m0-.87L.16,31.79l100.11,57.8L150,60.69,49.89,2.89Z"/></g><path class="cls-11" d="M13,43c5.18,3,9.37,10.25,9.35,16.2S18.14,67.56,13,64.57,3.58,54.33,3.6,48.37,7.83,40,13,43Z"/><g class="cls-12"><path class="cls-13" d="M2.46,35.07h0a1,1,0,0,1,.5.16L22.83,46.7a2.84,2.84,0,0,1,1.28,2.23l-.06,22.83c0,.47-.2.75-.54.75a1,1,0,0,1-.51-.16L3.14,60.88a2.88,2.88,0,0,1-1.29-2.23l.07-22.83c0-.47.2-.75.54-.75m0-.25c-.47,0-.79.37-.79,1L1.6,58.65A3.15,3.15,0,0,0,3,61.1L22.88,72.57a1.26,1.26,0,0,0,.63.19c.46,0,.79-.37.79-1l.06-22.83A3.1,3.1,0,0,0,23,46.48L3.09,35a1.29,1.29,0,0,0-.63-.19Z"/></g><path class="cls-14" d="M2.46,34.82a1.29,1.29,0,0,1,.63.19L23,46.48a3.1,3.1,0,0,1,1.41,2.45L24.3,71.76c0,.63-.33,1-.79,1a1.26,1.26,0,0,1-.63-.19L3,61.1A3.15,3.15,0,0,1,1.6,58.65l.07-22.83c0-.63.32-1,.79-1m0-.25h0c-.62,0-1,.5-1,1.25L1.35,58.65a3.41,3.41,0,0,0,1.54,2.67L22.75,72.78a1.55,1.55,0,0,0,.76.23c.62,0,1-.5,1-1.25l.06-22.83a3.37,3.37,0,0,0-1.53-2.67L3.21,34.8a1.51,1.51,0,0,0-.75-.23Z"/><path class="cls-15" d="M13,71.25c5.18,3,9.37,10.25,9.35,16.2S18.14,95.81,13,92.82,3.58,82.57,3.6,76.61,7.83,68.26,13,71.25Z"/><g class="cls-12"><path class="cls-16" d="M2.46,63.31h0a1.08,1.08,0,0,1,.5.16L22.83,74.94a2.84,2.84,0,0,1,1.28,2.23L24.05,100c0,.47-.2.75-.54.75a1,1,0,0,1-.51-.16L3.14,89.13A2.91,2.91,0,0,1,1.85,86.9l.07-22.83c0-.48.2-.76.54-.76m0-.25c-.47,0-.79.37-.79,1L1.6,86.9A3.15,3.15,0,0,0,3,89.34l19.87,11.47a1.26,1.26,0,0,0,.63.19c.46,0,.79-.36.79-1l.06-22.83A3.1,3.1,0,0,0,23,74.72L3.09,63.25a1.29,1.29,0,0,0-.63-.19Z"/></g><path class="cls-17" d="M2.46,63.06a1.29,1.29,0,0,1,.63.19L23,74.72a3.1,3.1,0,0,1,1.41,2.45L24.3,100c0,.64-.33,1-.79,1a1.26,1.26,0,0,1-.63-.19L3,89.34A3.15,3.15,0,0,1,1.6,86.9l.07-22.83c0-.64.32-1,.79-1m0-.25h0c-.62,0-1,.51-1,1.25L1.35,86.9a3.41,3.41,0,0,0,1.54,2.66L22.75,101a1.53,1.53,0,0,0,.76.22c.62,0,1-.5,1-1.25l.06-22.83a3.36,3.36,0,0,0-1.53-2.66L3.21,63a1.51,1.51,0,0,0-.75-.23Z"/><path class="cls-18" d="M37.54,57.13c5.18,3,9.37,10.25,9.35,16.2s-4.23,8.35-9.41,5.36-9.38-10.24-9.36-16.2S32.35,54.14,37.54,57.13Z"/><g class="cls-12"><path class="cls-19" d="M27,49.19h0a1.08,1.08,0,0,1,.5.16L47.35,60.82a2.84,2.84,0,0,1,1.28,2.23l-.06,22.83c0,.47-.2.75-.54.75a1,1,0,0,1-.51-.16L27.66,75a2.91,2.91,0,0,1-1.29-2.23l.07-22.84c0-.47.2-.75.54-.75m0-.25c-.47,0-.79.37-.79,1l-.07,22.84a3.15,3.15,0,0,0,1.41,2.44L47.4,86.69a1.26,1.26,0,0,0,.63.19c.46,0,.79-.37.79-1l.06-22.83a3.1,3.1,0,0,0-1.41-2.45L27.61,49.13a1.29,1.29,0,0,0-.63-.19Z"/></g><path class="cls-20" d="M27,48.94a1.29,1.29,0,0,1,.63.19L47.47,60.6a3.1,3.1,0,0,1,1.41,2.45l-.06,22.83c0,.63-.33,1-.79,1a1.26,1.26,0,0,1-.63-.19L27.53,75.22a3.15,3.15,0,0,1-1.41-2.44l.07-22.84c0-.63.32-1,.79-1m0-.25h0c-.62,0-1,.5-1,1.25l-.07,22.83a3.41,3.41,0,0,0,1.54,2.67L47.27,86.91a1.53,1.53,0,0,0,.76.22c.62,0,1-.5,1-1.25l.06-22.83a3.39,3.39,0,0,0-1.53-2.67L27.73,48.92a1.51,1.51,0,0,0-.75-.23Z"/><path class="cls-21" d="M37.54,85.37c5.18,3,9.37,10.25,9.35,16.2s-4.23,8.36-9.41,5.37S28.1,96.69,28.12,90.73,32.35,82.38,37.54,85.37Z"/><g class="cls-12"><path class="cls-22" d="M27,77.43h0a1.08,1.08,0,0,1,.5.16L47.35,89.06a2.86,2.86,0,0,1,1.28,2.23l-.06,22.83c0,.47-.2.76-.54.76a1.11,1.11,0,0,1-.51-.16L27.66,103.25A2.91,2.91,0,0,1,26.37,101l.07-22.83c0-.47.2-.76.54-.76m0-.25c-.47,0-.79.37-.79,1L26.12,101a3.14,3.14,0,0,0,1.41,2.44L47.4,114.93a1.28,1.28,0,0,0,.63.2c.46,0,.79-.37.79-1l.06-22.83a3.12,3.12,0,0,0-1.41-2.45L27.61,77.38a1.31,1.31,0,0,0-.63-.2Z"/></g><path class="cls-23" d="M27,77.18a1.31,1.31,0,0,1,.63.2L47.47,88.84a3.12,3.12,0,0,1,1.41,2.45l-.06,22.83c0,.64-.33,1-.79,1a1.28,1.28,0,0,1-.63-.2L27.53,103.46A3.14,3.14,0,0,1,26.12,101l.07-22.83c0-.64.32-1,.79-1m0-.25h0c-.62,0-1,.51-1,1.26L25.87,101a3.41,3.41,0,0,0,1.54,2.66l19.86,11.47a1.55,1.55,0,0,0,.76.23c.62,0,1-.51,1-1.26l.06-22.83a3.36,3.36,0,0,0-1.53-2.66L27.73,77.16a1.51,1.51,0,0,0-.75-.23Z"/><path class="cls-24" d="M62.29,71.25c5.18,3,9.37,10.25,9.35,16.2s-4.23,8.36-9.41,5.37-9.38-10.25-9.36-16.21S57.1,68.26,62.29,71.25Z"/><g class="cls-12"><path class="cls-25" d="M51.73,63.31h0a1.08,1.08,0,0,1,.5.16L72.1,74.94a2.84,2.84,0,0,1,1.28,2.23L73.32,100c0,.47-.2.75-.54.75a1,1,0,0,1-.51-.16L52.41,89.13a2.91,2.91,0,0,1-1.29-2.23l.07-22.83c0-.48.2-.76.54-.76m0-.25c-.47,0-.79.37-.79,1L50.87,86.9a3.12,3.12,0,0,0,1.41,2.44l19.87,11.47a1.26,1.26,0,0,0,.63.19c.46,0,.79-.36.79-1l.06-22.83a3.1,3.1,0,0,0-1.41-2.45L52.36,63.25a1.29,1.29,0,0,0-.63-.19Z"/></g><path class="cls-26" d="M51.73,63.06a1.29,1.29,0,0,1,.63.19L72.22,74.72a3.1,3.1,0,0,1,1.41,2.45L73.57,100c0,.64-.33,1-.79,1a1.26,1.26,0,0,1-.63-.19L52.28,89.34a3.12,3.12,0,0,1-1.41-2.44l.07-22.83c0-.64.32-1,.79-1m0-.25h0c-.62,0-1,.51-1,1.25L50.62,86.9a3.41,3.41,0,0,0,1.54,2.66L72,101a1.53,1.53,0,0,0,.76.22c.62,0,1-.5,1-1.25l.06-22.83a3.36,3.36,0,0,0-1.53-2.66L52.48,63a1.51,1.51,0,0,0-.75-.23Z"/><path class="cls-27" d="M62.29,99.49c5.18,3,9.37,10.25,9.35,16.2s-4.23,8.36-9.41,5.37-9.38-10.24-9.36-16.2S57.1,96.5,62.29,99.49Z"/><g class="cls-12"><path class="cls-28" d="M51.73,91.56h0a1.05,1.05,0,0,1,.5.15L72.1,103.18a2.87,2.87,0,0,1,1.28,2.23l-.06,22.83c0,.47-.2.76-.54.76a1.11,1.11,0,0,1-.51-.16L52.41,117.37a2.9,2.9,0,0,1-1.29-2.23l.07-22.83c0-.47.2-.75.54-.75m0-.25c-.47,0-.79.36-.79,1l-.07,22.83a3.14,3.14,0,0,0,1.41,2.45l19.87,11.46a1.28,1.28,0,0,0,.63.2c.46,0,.79-.37.79-1l.06-22.83A3.1,3.1,0,0,0,72.22,103L52.36,91.5a1.29,1.29,0,0,0-.63-.19Z"/></g><path class="cls-29" d="M51.73,91.31a1.29,1.29,0,0,1,.63.19L72.22,103a3.1,3.1,0,0,1,1.41,2.44l-.06,22.83c0,.64-.33,1-.79,1a1.28,1.28,0,0,1-.63-.2L52.28,117.59a3.14,3.14,0,0,1-1.41-2.45l.07-22.83c0-.64.32-1,.79-1m0-.25h0c-.62,0-1,.5-1,1.25l-.07,22.83a3.39,3.39,0,0,0,1.54,2.66L72,129.27a1.55,1.55,0,0,0,.76.23c.62,0,1-.51,1-1.26l.06-22.83a3.37,3.37,0,0,0-1.53-2.66L52.48,91.28a1.49,1.49,0,0,0-.75-.22Z"/><path class="cls-30" d="M86.9,85.59c5.18,3,9.37,10.25,9.35,16.2s-4.23,8.35-9.41,5.36S77.46,96.91,77.48,91,81.71,82.59,86.9,85.59Z"/><g class="cls-12"><path class="cls-31" d="M76.34,77.65h0a1.08,1.08,0,0,1,.5.16L96.71,89.28A2.84,2.84,0,0,1,98,91.51l-.06,22.83c0,.47-.2.75-.54.75a1,1,0,0,1-.51-.16L77,103.46a2.88,2.88,0,0,1-1.29-2.23L75.8,78.4c0-.47.2-.75.54-.75m0-.25c-.47,0-.79.37-.79,1l-.07,22.83a3.15,3.15,0,0,0,1.41,2.45l19.87,11.47a1.26,1.26,0,0,0,.63.19c.46,0,.79-.37.79-1l.06-22.83a3.1,3.1,0,0,0-1.41-2.45L77,77.59a1.29,1.29,0,0,0-.63-.19Z"/></g><path class="cls-32" d="M76.34,77.4a1.29,1.29,0,0,1,.63.19L96.83,89.06a3.1,3.1,0,0,1,1.41,2.45l-.06,22.83c0,.63-.33,1-.79,1a1.26,1.26,0,0,1-.63-.19L76.89,103.68a3.15,3.15,0,0,1-1.41-2.45l.07-22.83c0-.63.32-1,.79-1m0-.25h0c-.62,0-1,.5-1,1.25l-.07,22.83a3.41,3.41,0,0,0,1.54,2.67l19.86,11.47a1.53,1.53,0,0,0,.76.22c.62,0,1-.5,1-1.25l.06-22.83A3.39,3.39,0,0,0,97,88.84L77.09,77.38a1.51,1.51,0,0,0-.75-.23Z"/><path class="cls-33" d="M86.9,113.83c5.18,3,9.37,10.25,9.35,16.2s-4.23,8.36-9.41,5.37-9.38-10.25-9.36-16.21S81.71,110.84,86.9,113.83Z"/><g class="cls-12"><path class="cls-34" d="M76.34,105.89h0a1.08,1.08,0,0,1,.5.16l19.87,11.47A2.86,2.86,0,0,1,98,119.75l-.06,22.83c0,.47-.2.75-.54.75a1.09,1.09,0,0,1-.51-.15L77,131.71a2.91,2.91,0,0,1-1.29-2.23l.07-22.83c0-.48.2-.76.54-.76m0-.25c-.47,0-.79.37-.79,1l-.07,22.83a3.15,3.15,0,0,0,1.41,2.44l19.87,11.47a1.26,1.26,0,0,0,.63.19c.46,0,.79-.36.79-1l.06-22.83a3.12,3.12,0,0,0-1.41-2.45L77,105.84a1.21,1.21,0,0,0-.63-.2Z"/></g><path class="cls-35" d="M76.34,105.64a1.21,1.21,0,0,1,.63.2L96.83,117.3a3.12,3.12,0,0,1,1.41,2.45l-.06,22.83c0,.64-.33,1-.79,1a1.26,1.26,0,0,1-.63-.19L76.89,131.92a3.15,3.15,0,0,1-1.41-2.44l.07-22.83c0-.64.32-1,.79-1m0-.25h0c-.62,0-1,.51-1,1.26l-.07,22.83a3.41,3.41,0,0,0,1.54,2.66l19.86,11.47a1.53,1.53,0,0,0,.76.22c.62,0,1-.5,1-1.25l.06-22.83A3.36,3.36,0,0,0,97,117.09L77.09,105.62a1.51,1.51,0,0,0-.75-.23Z"/><path class="cls-36" d="M137.55,71.7c-5.18,3-9.37,10.25-9.35,16.2s4.23,8.36,9.41,5.37S147,83,147,77.06,142.74,68.71,137.55,71.7Z"/><g class="cls-37"><g class="cls-12"><path class="cls-38" d="M148.11,63.76c.34,0,.54.29.54.76l.07,22.83a2.91,2.91,0,0,1-1.29,2.23l-19.86,11.47a1.11,1.11,0,0,1-.51.16c-.34,0-.54-.29-.54-.76l-.06-22.83a2.87,2.87,0,0,1,1.28-2.23l19.87-11.47a1.08,1.08,0,0,1,.5-.16m0-.25a1.31,1.31,0,0,0-.63.2L127.62,75.17a3.12,3.12,0,0,0-1.41,2.45l.06,22.83c0,.64.32,1,.79,1a1.28,1.28,0,0,0,.63-.2L147.55,89.8A3.15,3.15,0,0,0,149,87.35l-.07-22.83c0-.64-.32-1-.79-1Z"/></g><path class="cls-39" d="M148.11,63.51c.47,0,.79.37.79,1L149,87.35a3.15,3.15,0,0,1-1.42,2.45l-19.86,11.46a1.28,1.28,0,0,1-.63.2c-.47,0-.79-.37-.79-1l-.06-22.83a3.12,3.12,0,0,1,1.41-2.45l19.86-11.46a1.31,1.31,0,0,1,.63-.2m0-.25a1.51,1.51,0,0,0-.75.23L127.49,75A3.36,3.36,0,0,0,126,77.62l.06,22.83c0,.75.42,1.26,1,1.26a1.55,1.55,0,0,0,.76-.23L147.68,90a3.39,3.39,0,0,0,1.54-2.66l-.07-22.83c0-.75-.42-1.26-1-1.26Z"/></g><path class="cls-40" d="M137.55,100c-5.18,3-9.37,10.24-9.35,16.2s4.23,8.35,9.41,5.36,9.38-10.24,9.36-16.2S142.74,97,137.55,100Z"/><g class="cls-37"><g class="cls-12"><path class="cls-41" d="M148.11,92c.34,0,.54.28.54.75l.07,22.83a2.88,2.88,0,0,1-1.29,2.23l-19.86,11.47a1.11,1.11,0,0,1-.51.16c-.34,0-.54-.28-.54-.76l-.06-22.83a2.87,2.87,0,0,1,1.28-2.23l19.87-11.46a1,1,0,0,1,.5-.16m0-.25a1.29,1.29,0,0,0-.63.19l-19.86,11.47a3.1,3.1,0,0,0-1.41,2.44l.06,22.84c0,.63.33,1,.79,1a1.26,1.26,0,0,0,.63-.19L147.56,118a3.15,3.15,0,0,0,1.41-2.45l-.07-22.83c0-.64-.32-1-.79-1Z"/></g><path class="cls-42" d="M148.11,91.76c.47,0,.79.36.79,1l.07,22.83a3.15,3.15,0,0,1-1.41,2.45l-19.87,11.47a1.26,1.26,0,0,1-.63.19c-.46,0-.79-.37-.79-1l-.06-22.84a3.1,3.1,0,0,1,1.41-2.44L147.48,92a1.29,1.29,0,0,1,.63-.19m0-.25a1.49,1.49,0,0,0-.75.22L127.49,103.2a3.37,3.37,0,0,0-1.53,2.66L126,128.7c0,.74.42,1.25,1,1.25a1.55,1.55,0,0,0,.76-.23l19.86-11.47a3.39,3.39,0,0,0,1.54-2.66l-.07-22.83c0-.75-.42-1.25-1-1.25Z"/></g><path class="cls-43" d="M112.94,86c-5.18,3-9.37,10.25-9.35,16.2s4.23,8.36,9.41,5.36,9.38-10.24,9.36-16.2S118.13,83.05,112.94,86Z"/><g class="cls-37"><g class="cls-12"><path class="cls-44" d="M123.5,78.1c.34,0,.54.28.54.76l.07,22.83a2.91,2.91,0,0,1-1.29,2.23L103,115.38a1,1,0,0,1-.51.16c-.34,0-.54-.28-.54-.75L101.85,92a2.84,2.84,0,0,1,1.28-2.23L123,78.26a1.08,1.08,0,0,1,.5-.16m0-.25a1.29,1.29,0,0,0-.63.19L103,89.51A3.1,3.1,0,0,0,101.6,92l.06,22.83c0,.63.32,1,.79,1a1.26,1.26,0,0,0,.63-.19l19.86-11.47a3.13,3.13,0,0,0,1.42-2.44l-.07-22.84c0-.63-.32-1-.79-1Z"/></g><path class="cls-45" d="M123.5,77.85c.47,0,.79.37.79,1l.07,22.84a3.13,3.13,0,0,1-1.42,2.44L103.08,115.6a1.26,1.26,0,0,1-.63.19c-.47,0-.79-.37-.79-1L101.6,92A3.1,3.1,0,0,1,103,89.51L122.87,78a1.29,1.29,0,0,1,.63-.19m0-.25a1.51,1.51,0,0,0-.75.23L102.88,89.3A3.36,3.36,0,0,0,101.35,92l.06,22.83c0,.75.42,1.25,1,1.25a1.53,1.53,0,0,0,.76-.22l19.86-11.47a3.41,3.41,0,0,0,1.54-2.67l-.07-22.83c0-.75-.42-1.25-1-1.25Z"/></g><path class="cls-46" d="M112.94,114.28c-5.18,3-9.37,10.25-9.35,16.2s4.23,8.36,9.41,5.37,9.38-10.24,9.36-16.21S118.13,111.29,112.94,114.28Z"/><g class="cls-37"><g class="cls-12"><path class="cls-47" d="M123.5,106.34c.34,0,.54.29.54.76l.07,22.83a2.91,2.91,0,0,1-1.29,2.23L103,143.63a1.11,1.11,0,0,1-.51.16c-.34,0-.54-.29-.54-.76l-.06-22.83a2.87,2.87,0,0,1,1.28-2.23L123,106.5a1.08,1.08,0,0,1,.5-.16m0-.25a1.31,1.31,0,0,0-.63.2L103,117.75a3.12,3.12,0,0,0-1.41,2.45l.06,22.83c0,.64.33,1,.79,1a1.28,1.28,0,0,0,.63-.2L123,132.38a3.17,3.17,0,0,0,1.41-2.45l-.07-22.83c0-.64-.32-1-.79-1Z"/></g><path class="cls-48" d="M123.5,106.09c.47,0,.79.37.79,1l.07,22.83a3.17,3.17,0,0,1-1.41,2.45l-19.87,11.46a1.28,1.28,0,0,1-.63.2c-.46,0-.79-.37-.79-1l-.06-22.83a3.12,3.12,0,0,1,1.41-2.45l19.86-11.46a1.31,1.31,0,0,1,.63-.2m0-.25a1.51,1.51,0,0,0-.75.23l-19.87,11.47a3.36,3.36,0,0,0-1.53,2.66l.06,22.83c0,.75.42,1.26,1,1.26a1.55,1.55,0,0,0,.76-.23l19.86-11.47a3.39,3.39,0,0,0,1.54-2.66l-.07-22.83c0-.75-.42-1.26-1-1.26Z"/></g><path class="cls-49" d="M50,6.36a3.28,3.28,0,0,1,1.61.39L69.36,17a1,1,0,0,1,0,1.86L51.64,29.09a3.34,3.34,0,0,1-1.6.37,3.27,3.27,0,0,1-1.61-.38L30.7,18.84a1,1,0,0,1,0-1.86L48.44,6.74A3.28,3.28,0,0,1,50,6.36m0-.25a3.61,3.61,0,0,0-1.72.41L30.57,16.76a1.38,1.38,0,0,0-.79,1.15,1.38,1.38,0,0,0,.8,1.15L48.31,29.29a3.52,3.52,0,0,0,1.73.42,3.45,3.45,0,0,0,1.72-.41L69.5,19.05a1.35,1.35,0,0,0,.78-1.13,1.38,1.38,0,0,0-.79-1.16L51.76,6.53A3.49,3.49,0,0,0,50,6.11Z"/><path class="cls-50" d="M50,6.61A3.08,3.08,0,0,1,51.51,7L69.24,17.2a.9.9,0,0,1,.54.72.89.89,0,0,1-.53.7L51.51,28.87a3,3,0,0,1-1.47.34,3,3,0,0,1-1.48-.35L30.83,18.62c-.35-.2-.55-.45-.55-.71a.91.91,0,0,1,.54-.71L48.56,7A2.93,2.93,0,0,1,50,6.61m0-.25a3.28,3.28,0,0,0-1.59.38L30.7,17a1,1,0,0,0,0,1.86L48.43,29.08a3.27,3.27,0,0,0,1.61.38,3.34,3.34,0,0,0,1.6-.37L69.37,18.84a1,1,0,0,0,0-1.86L51.64,6.75A3.28,3.28,0,0,0,50,6.36Z"/><path class="cls-51" d="M59.37,12.49c-5.19-3-13.58-3-18.74,0s-5.13,7.85.07,10.85,13.58,3,18.74,0S64.56,15.48,59.37,12.49Z"/><path class="cls-52" d="M26.12,19.88a3.28,3.28,0,0,1,1.61.39L45.45,30.5c.89.51.9,1.35,0,1.85L27.72,42.6a3.17,3.17,0,0,1-1.59.38,3.28,3.28,0,0,1-1.61-.39L6.79,32.36a1,1,0,0,1,0-1.86L24.52,20.26a3.32,3.32,0,0,1,1.6-.38m0-.25A3.45,3.45,0,0,0,24.4,20L6.66,30.28a1.38,1.38,0,0,0-.79,1.15,1.36,1.36,0,0,0,.79,1.14L24.39,42.81a3.55,3.55,0,0,0,1.74.42,3.5,3.5,0,0,0,1.72-.41L45.59,32.57a1.35,1.35,0,0,0,.78-1.13,1.38,1.38,0,0,0-.79-1.16L27.85,20.05a3.52,3.52,0,0,0-1.73-.42Z"/><path class="cls-53" d="M26.12,20.13a3,3,0,0,1,1.48.35L45.33,30.71a1,1,0,0,1,.54.72.89.89,0,0,1-.53.71L27.6,42.39a3.35,3.35,0,0,1-3,0L6.91,32.14a.89.89,0,0,1-.54-.71.91.91,0,0,1,.54-.72L24.65,20.47a3,3,0,0,1,1.47-.34m0-.25a3.32,3.32,0,0,0-1.6.38L6.79,30.5a1,1,0,0,0,0,1.86L24.52,42.59a3.28,3.28,0,0,0,1.61.39,3.17,3.17,0,0,0,1.59-.38L45.46,32.35c.89-.5.88-1.34,0-1.85L27.73,20.27a3.28,3.28,0,0,0-1.61-.39Z"/><path class="cls-54" d="M35.46,26c-5.19-3-13.58-3-18.74,0s-5.13,7.86.06,10.86,13.59,3,18.74,0S40.65,29,35.46,26Z"/><path class="cls-55" d="M73.94,20.69a3.25,3.25,0,0,1,1.61.39L93.28,31.31a1,1,0,0,1,0,1.85L75.55,43.41a3.2,3.2,0,0,1-1.59.38,3.4,3.4,0,0,1-1.62-.38L54.61,33.17a1,1,0,0,1,0-1.86L72.35,21.07a3.28,3.28,0,0,1,1.59-.38m0-.25a3.54,3.54,0,0,0-1.71.41L54.49,31.09a1.38,1.38,0,0,0-.79,1.15,1.36,1.36,0,0,0,.79,1.14L72.22,43.62A3.55,3.55,0,0,0,74,44a3.43,3.43,0,0,0,1.71-.41L93.41,33.38a1.34,1.34,0,0,0,.79-1.13,1.38,1.38,0,0,0-.8-1.16L75.68,20.86a3.55,3.55,0,0,0-1.74-.42Z"/><path class="cls-56" d="M73.94,20.94a3,3,0,0,1,1.49.35L93.15,31.53a.92.92,0,0,1,.55.71.89.89,0,0,1-.54.71L75.42,43.2a3,3,0,0,1-1.46.34,3,3,0,0,1-1.49-.35L54.74,33a.74.74,0,0,1,0-1.42L72.47,21.28a3,3,0,0,1,1.47-.34m0-.25a3.28,3.28,0,0,0-1.59.38L54.61,31.31a1,1,0,0,0,0,1.86L72.34,43.41a3.4,3.4,0,0,0,1.62.38,3.2,3.2,0,0,0,1.59-.38L93.29,33.16a1,1,0,0,0,0-1.85L75.55,21.08a3.25,3.25,0,0,0-1.61-.39Z"/><path class="cls-57" d="M83.28,26.81c-5.19-3-13.58-3-18.73,0s-5.13,7.86.06,10.86,13.58,3,18.74,0S88.47,29.81,83.28,26.81Z"/><path class="cls-58" d="M50,34.21a3.39,3.39,0,0,1,1.61.38L69.36,44.83c.89.51.9,1.35,0,1.85L51.64,56.93a3.35,3.35,0,0,1-1.6.38,3.28,3.28,0,0,1-1.61-.39L30.7,46.69a1,1,0,0,1,0-1.86L48.44,34.58A3.28,3.28,0,0,1,50,34.21M50,34a3.5,3.5,0,0,0-1.72.41L30.57,44.61a1.22,1.22,0,0,0,0,2.29L48.31,57.14a3.52,3.52,0,0,0,1.73.42,3.56,3.56,0,0,0,1.72-.41L69.5,46.9a1.35,1.35,0,0,0,.78-1.14,1.38,1.38,0,0,0-.79-1.15L51.76,34.38A3.49,3.49,0,0,0,50,34Z"/><path class="cls-59" d="M50,34.46a3,3,0,0,1,1.48.35L69.24,45a.91.91,0,0,1,.54.72.87.87,0,0,1-.53.7L51.51,56.71a2.93,2.93,0,0,1-1.47.35,3.08,3.08,0,0,1-1.48-.35L30.83,46.47a.74.74,0,0,1,0-1.43L48.56,34.8A3,3,0,0,1,50,34.46m0-.25a3.28,3.28,0,0,0-1.59.37L30.7,44.83a1,1,0,0,0,0,1.86L48.43,56.92a3.28,3.28,0,0,0,1.61.39,3.35,3.35,0,0,0,1.6-.38L69.37,46.68c.89-.5.88-1.34,0-1.85L51.64,34.59A3.39,3.39,0,0,0,50,34.21Z"/><path class="cls-60" d="M59.37,40.33c-5.19-3-13.58-3-18.74,0s-5.13,7.86.07,10.85,13.58,3,18.74,0S64.56,43.33,59.37,40.33Z"/><path class="cls-61" d="M98.81,34.65a3.25,3.25,0,0,1,1.61.38l17.73,10.24a1,1,0,0,1,0,1.85L100.42,57.37a3.31,3.31,0,0,1-1.59.38,3.25,3.25,0,0,1-1.61-.39c-.66-.38-13.09-7.55-17.73-10.24a1,1,0,0,1,0-1.85L97.22,35a3.3,3.3,0,0,1,1.59-.37m0-.25a3.43,3.43,0,0,0-1.71.41L79.36,45.05a1.22,1.22,0,0,0,0,2.29L97.09,57.58a3.79,3.79,0,0,0,3.45,0l17.74-10.25a1.34,1.34,0,0,0,.79-1.14,1.38,1.38,0,0,0-.8-1.15L100.55,34.82a3.45,3.45,0,0,0-1.74-.42Z"/><path class="cls-62" d="M98.81,34.9a3,3,0,0,1,1.49.35L118,45.48a.91.91,0,0,1,.55.72.86.86,0,0,1-.54.7L100.3,57.15a2.93,2.93,0,0,1-1.47.35,3.12,3.12,0,0,1-1.49-.35L79.61,46.91a.74.74,0,0,1,0-1.43L97.35,35.24a3,3,0,0,1,1.46-.34m0-.25a3.3,3.3,0,0,0-1.59.37L79.48,45.27a1,1,0,0,0,0,1.85C84.13,49.81,96.56,57,97.22,57.36a3.25,3.25,0,0,0,1.61.39,3.31,3.31,0,0,0,1.59-.38l17.74-10.25a1,1,0,0,0,0-1.85L100.42,35a3.25,3.25,0,0,0-1.61-.38Z"/><path class="cls-63" d="M108.15,40.77c-5.19-3-13.57-3-18.73,0s-5.13,7.86.06,10.85,13.58,3,18.74,0S113.34,43.77,108.15,40.77Z"/><path class="cls-64" d="M74.9,48.16a3.28,3.28,0,0,1,1.61.39L94.24,58.78a1,1,0,0,1,0,1.86L76.51,70.89a3.54,3.54,0,0,1-3.21,0L55.57,60.64c-.89-.51-.88-1.34,0-1.86L73.31,48.54a3.28,3.28,0,0,1,1.59-.38m0-.25a3.61,3.61,0,0,0-1.72.41L55.44,58.57a1.23,1.23,0,0,0,0,2.29L73.18,71.1a3.53,3.53,0,0,0,1.74.42,3.44,3.44,0,0,0,1.71-.42L94.37,60.85a1.33,1.33,0,0,0,.79-1.13,1.37,1.37,0,0,0-.8-1.15L76.64,48.33a3.55,3.55,0,0,0-1.74-.42Z"/><path class="cls-65" d="M74.9,48.41a3,3,0,0,1,1.49.36L94.11,59a.91.91,0,0,1,.55.72.89.89,0,0,1-.54.7L76.38,70.67a3,3,0,0,1-1.46.35,3,3,0,0,1-1.49-.36L55.7,60.43a.75.75,0,0,1,0-1.43L73.43,48.76a3,3,0,0,1,1.47-.35m0-.25a3.28,3.28,0,0,0-1.59.38L55.57,58.78c-.88.52-.89,1.35,0,1.86L73.3,70.88a3.54,3.54,0,0,0,3.21,0L94.25,60.64a1,1,0,0,0,0-1.86L76.51,48.55a3.28,3.28,0,0,0-1.61-.39Z"/><path class="cls-66" d="M84.24,54.29c-5.19-3-13.58-3-18.73,0s-5.13,7.85.06,10.85,13.58,3,18.74,0S89.43,57.28,84.24,54.29Z"/><path class="cls-67" d="M123.9,48.47a3.22,3.22,0,0,1,1.61.38l17.73,10.24a1,1,0,0,1,0,1.85L125.51,71.19a3.52,3.52,0,0,1-3.2,0L104.58,61a1,1,0,0,1,0-1.86l17.74-10.25a3.3,3.3,0,0,1,1.59-.37m0-.25a3.43,3.43,0,0,0-1.71.41L104.45,58.87a1.37,1.37,0,0,0-.79,1.15,1.36,1.36,0,0,0,.79,1.14L122.18,71.4a3.79,3.79,0,0,0,3.45,0l17.74-10.25a1.34,1.34,0,0,0,.79-1.14,1.38,1.38,0,0,0-.8-1.15L125.64,48.64a3.55,3.55,0,0,0-1.74-.42Z"/><path class="cls-68" d="M123.9,48.72a3,3,0,0,1,1.49.35L143.11,59.3a.93.93,0,0,1,.55.72.86.86,0,0,1-.54.7L125.39,71a2.93,2.93,0,0,1-1.47.35,3.12,3.12,0,0,1-1.49-.35L104.7,60.73a.74.74,0,0,1,0-1.43l17.74-10.24a3,3,0,0,1,1.46-.34m0-.25a3.3,3.3,0,0,0-1.59.37L104.57,59.09a1,1,0,0,0,0,1.86l17.73,10.23a3.52,3.52,0,0,0,3.2,0l17.74-10.25a1,1,0,0,0,0-1.85L125.51,48.85a3.22,3.22,0,0,0-1.61-.38Z"/><path class="cls-69" d="M133.25,54.59c-5.2-3-13.58-3-18.74,0s-5.13,7.86.06,10.85,13.59,3,18.74,0S138.44,57.59,133.25,54.59Z"/><path class="cls-70" d="M100,62a3.25,3.25,0,0,1,1.61.39L119.33,72.6a1,1,0,0,1,0,1.86L101.6,84.71a3.54,3.54,0,0,1-3.21,0L80.66,74.46c-.89-.51-.88-1.34,0-1.86L98.4,62.36A3.28,3.28,0,0,1,100,62m0-.25a3.54,3.54,0,0,0-1.71.41L80.54,72.39a1.36,1.36,0,0,0-.79,1.14,1.37,1.37,0,0,0,.79,1.15L98.27,84.92a3.79,3.79,0,0,0,3.45,0l17.74-10.26a1.33,1.33,0,0,0,.79-1.13,1.37,1.37,0,0,0-.8-1.15L101.73,62.15a3.55,3.55,0,0,0-1.74-.42Z"/><path class="cls-71" d="M100,62.23a3,3,0,0,1,1.49.36L119.2,72.82a.91.91,0,0,1,.55.72c0,.26-.19.5-.54.7L101.47,84.49a3,3,0,0,1-1.46.35,3,3,0,0,1-1.49-.36L80.79,74.25a.91.91,0,0,1-.54-.72.9.9,0,0,1,.54-.71L98.52,62.58a3,3,0,0,1,1.47-.35m0-.25a3.28,3.28,0,0,0-1.59.38L80.66,72.6c-.88.52-.89,1.35,0,1.86L98.39,84.7a3.54,3.54,0,0,0,3.21,0l17.74-10.25a1,1,0,0,0,0-1.86L101.6,62.37A3.25,3.25,0,0,0,100,62Z"/><path class="cls-72" d="M109.33,68.11c-5.19-3-13.58-3-18.73,0S85.47,76,90.66,79s13.58,3,18.74,0S114.52,71.1,109.33,68.11Z"/></g></g></g></svg>