<svg xmlns="http://www.w3.org/2000/svg" xmlns:xlink="http://www.w3.org/1999/xlink" viewBox="0 0 150 150"><defs><style>.cls-1,.cls-2{fill:none;}.cls-2{stroke:#fff;stroke-miterlimit:10;stroke-width:0.1px;}.cls-3{opacity:0;}.cls-4{fill:#000714;}.cls-5{opacity:0.1;fill:url(#新建图案);}.cls-6{fill:#547099;}.cls-7{isolation:isolate;}.cls-8{fill:url(#未命名的渐变_217);}.cls-9{fill:#c4fdfe;}.cls-10{fill:#030b14;}.cls-11{fill:#4cfafe;}.cls-12{fill:#242d3a;}.cls-13{fill:url(#未命名的渐变_60);}.cls-14{fill:url(#未命名的渐变_62);}.cls-15{fill:url(#未命名的渐变_2050);}.cls-16{fill:url(#未命名的渐变_54);}.cls-17{fill:url(#未命名的渐变_140);}.cls-18{fill:url(#未命名的渐变_2050-2);}.cls-19{fill:url(#未命名的渐变_140-2);}.cls-20{fill:url(#未命名的渐变_54-2);}.cls-21{opacity:0.2;}</style><pattern id="新建图案" data-name="新建图案" width="18.57" height="32.16" patternTransform="translate(1834.26 1539.8)" patternUnits="userSpaceOnUse" viewBox="0 0 18.57 32.16"><rect class="cls-1" width="18.57" height="32.16"/><polyline class="cls-2" points="18.57 21.44 18.57 32.16 18.57 42.88"/><polyline class="cls-2" points="9.29 26.8 18.57 32.16 27.85 37.51 27.85 37.52"/><polyline class="cls-2" points="9.29 37.52 9.29 37.51 18.57 32.16 27.85 26.8"/><polygon class="cls-2" points="27.85 37.52 27.85 26.8 18.57 21.44 9.28 26.8 9.28 37.52 18.57 42.88 27.85 37.52"/><polyline class="cls-2" points="0 21.44 0 32.16 0 42.88"/><polyline class="cls-2" points="-9.28 26.8 0 32.16 9.28 37.51 9.28 37.52"/><polyline class="cls-2" points="-9.28 37.52 -9.28 37.51 0 32.16 9.28 26.8"/><polygon class="cls-2" points="9.28 37.52 9.28 26.8 0 21.44 -9.29 26.8 -9.29 37.52 0 42.88 9.28 37.52"/><polyline class="cls-2" points="18.57 10.72 27.85 16.08 37.13 21.43 37.13 21.44"/><polyline class="cls-2" points="18.57 21.44 18.57 21.43 27.85 16.08 37.13 10.72"/><polygon class="cls-2" points="37.14 21.44 37.14 10.72 27.85 5.36 18.57 10.72 18.57 21.44 27.85 26.8 37.14 21.44"/><polyline class="cls-2" points="9.29 5.36 9.29 16.08 9.29 26.8"/><polyline class="cls-2" points="0.01 10.72 9.29 16.08 18.57 21.43 18.57 21.44"/><polyline class="cls-2" points="0.01 21.44 0.01 21.43 9.29 16.08 18.57 10.72"/><polygon class="cls-2" points="18.57 21.44 18.57 10.72 9.28 5.36 0 10.72 0 21.44 9.28 26.8 18.57 21.44"/><polyline class="cls-2" points="-18.56 10.72 -9.28 16.08 0 21.43 0 21.44"/><polyline class="cls-2" points="-18.56 21.44 -18.56 21.43 -9.28 16.08 0 10.72"/><polygon class="cls-2" points="0 21.44 0 10.72 -9.29 5.36 -18.57 10.72 -18.57 21.44 -9.29 26.8 0 21.44"/><polyline class="cls-2" points="18.57 -10.72 18.57 0 18.57 10.72"/><polyline class="cls-2" points="9.29 -5.36 18.57 0 27.85 5.35 27.85 5.36"/><polyline class="cls-2" points="9.29 5.36 9.29 5.35 18.57 0 27.85 -5.36"/><polygon class="cls-2" points="27.85 5.36 27.85 -5.36 18.57 -10.72 9.28 -5.36 9.28 5.36 18.57 10.72 27.85 5.36"/><polyline class="cls-2" points="0 -10.72 0 0 0 10.72"/><polyline class="cls-2" points="-9.28 -5.36 0 0 9.28 5.35 9.28 5.36"/><polyline class="cls-2" points="-9.28 5.36 -9.28 5.35 0 0 9.28 -5.36"/><polygon class="cls-2" points="9.28 5.36 9.28 -5.36 0 -10.72 -9.29 -5.36 -9.29 5.36 0 10.72 9.28 5.36"/></pattern><linearGradient id="未命名的渐变_217" x1="15.17" y1="63.96" x2="32.85" y2="33.33" gradientUnits="userSpaceOnUse"><stop offset="0" stop-color="#283140"/><stop offset="0.2" stop-color="#89abe6"/><stop offset="0.9" stop-color="#12161a"/><stop offset="1" stop-color="#283140"/></linearGradient><linearGradient id="未命名的渐变_60" x1="29.57" y1="60.62" x2="15.06" y2="35.49" gradientUnits="userSpaceOnUse"><stop offset="0" stop-color="#198cff" stop-opacity="0"/><stop offset="0.13" stop-color="#1e96ff" stop-opacity="0.05"/><stop offset="0.37" stop-color="#2ab0ff" stop-opacity="0.2"/><stop offset="0.69" stop-color="#3ddafe" stop-opacity="0.42"/><stop offset="0.92" stop-color="#4cfafe" stop-opacity="0.6"/><stop offset="1" stop-color="#4cfafe"/></linearGradient><linearGradient id="未命名的渐变_62" x1="29.57" y1="60.62" x2="15.06" y2="35.49" gradientUnits="userSpaceOnUse"><stop offset="0" stop-color="#4cfafe"/><stop offset="0.08" stop-color="#4cfafe" stop-opacity="0.6"/><stop offset="0.31" stop-color="#3ddafe" stop-opacity="0.42"/><stop offset="0.63" stop-color="#2ab0ff" stop-opacity="0.2"/><stop offset="0.87" stop-color="#1e96ff" stop-opacity="0.05"/><stop offset="1" stop-color="#198cff" stop-opacity="0"/></linearGradient><linearGradient id="未命名的渐变_2050" x1="16.09" y1="85.11" x2="32.35" y2="68.85" gradientUnits="userSpaceOnUse"><stop offset="0" stop-color="#283140"/><stop offset="0.34" stop-color="#232b37"/><stop offset="0.9" stop-color="#15191f"/><stop offset="1" stop-color="#12161a"/></linearGradient><linearGradient id="未命名的渐变_54" x1="14.17" y1="83.47" x2="10.12" y2="79.42" gradientUnits="userSpaceOnUse"><stop offset="0" stop-color="#425266"/><stop offset="1" stop-color="#596b8c"/></linearGradient><linearGradient id="未命名的渐变_140" x1="9.98" y1="75.1" x2="34.13" y2="75.1" gradientUnits="userSpaceOnUse"><stop offset="0" stop-color="#89abe6"/><stop offset="1" stop-color="#547099"/></linearGradient><linearGradient id="未命名的渐变_2050-2" x1="2.95" y1="69.53" x2="43.29" y2="29.19" xlink:href="#未命名的渐变_2050"/><linearGradient id="未命名的渐变_140-2" x1="11.45" y1="21.84" x2="31.75" y2="21.84" xlink:href="#未命名的渐变_140"/><linearGradient id="未命名的渐变_54-2" x1="27.49" y1="68.07" x2="-1.55" y2="39.03" xlink:href="#未命名的渐变_54"/></defs><title>充电桩</title><g id="图层_2" data-name="图层 2"><g id="图元"><g id="充电桩"><g class="cls-3"><rect class="cls-4" width="150" height="150"/><rect id="网格" class="cls-5" width="150" height="150"/></g><polygon class="cls-6" points="150 95.8 138.21 102.65 135.82 101.27 140.69 98.44 56.7 49.95 4.76 80.13 88.75 128.62 93.62 125.79 96.01 127.17 84.22 134.03 81.83 132.65 86.38 130 0 80.13 56.69 47.19 143.06 97.06 147.61 94.42 150 95.8"/><g class="cls-7"><path class="cls-8" d="M28.16,31.32a1,1,0,0,0-.42-.94l-2.89-1.67a1,1,0,0,1,.43.93l.07,26.05a11.17,11.17,0,0,1-5.06,8.77,3.62,3.62,0,0,1-3.6.37l2.88,1.67a3.64,3.64,0,0,0,3.6-.36,11.17,11.17,0,0,0,5.06-8.77Z"/><path class="cls-9" d="M26.77,30.52a1.06,1.06,0,0,0-.43-.94L26,29.39a1,1,0,0,1,.42.92l.08,26.06a11.17,11.17,0,0,1-5.07,8.76,3.62,3.62,0,0,1-3.6.37l.35.2a3.64,3.64,0,0,0,3.6-.36,11.17,11.17,0,0,0,5.06-8.77Z"/><ellipse class="cls-10" cx="26.65" cy="32.9" rx="0.48" ry="0.86" transform="translate(-14.42 22.63) rotate(-36.95)"/><path class="cls-11" d="M27,33.77a.73.73,0,0,1-.38-.12,1.45,1.45,0,0,1-.71-1.12.5.5,0,0,1,.22-.45.64.64,0,0,1,.62.06,1.48,1.48,0,0,1,.7,1.13.48.48,0,0,1-.22.44A.41.41,0,0,1,27,33.77Zm-.64-1.49a.17.17,0,0,0-.1,0c-.08,0-.09.14-.09.22a1.2,1.2,0,0,0,.58.9c.14.08.27.11.35.06a.25.25,0,0,0,.1-.22,1.25,1.25,0,0,0-.58-.91A.63.63,0,0,0,26.33,32.28Z"/><path class="cls-12" d="M19.4,64.09a2.18,2.18,0,0,1-1.11-.28,2.32,2.32,0,0,1-1.06-2.13V34.28a.51.51,0,0,1,1,0v27.4a1.39,1.39,0,0,0,.56,1.25,2.09,2.09,0,0,0,2-.3,6.39,6.39,0,0,0,3.06-4.77V35.51c0-1,.59-3,2.64-3a.51.51,0,0,1,0,1c-1.57,0-1.62,1.89-1.62,2V57.86a7.46,7.46,0,0,1-3.56,5.66A3.93,3.93,0,0,1,19.4,64.09Z"/><path class="cls-13" d="M26.58,30.41a1,1,0,0,0-.43-.93l-.33-.2c.06,0-8,5.36-8,5.36L17.65,65.4l.34.2a3.62,3.62,0,0,0,3.6-.37,11.16,11.16,0,0,0,5.06-8.77Z"/><path class="cls-14" d="M26.58,30.41a1,1,0,0,0-.43-.93l-.33-.2c.06,0-8,5.36-8,5.36L17.65,65.4l.34.2a3.62,3.62,0,0,0,3.6-.37,11.16,11.16,0,0,0,5.06-8.77Z"/><g class="cls-7"><polygon class="cls-15" points="34.13 70.63 14.3 82.08 14.31 83.33 34.14 71.88 34.13 70.63"/><polygon class="cls-16" points="14.3 82.08 9.98 79.57 9.98 80.82 14.31 83.33 14.3 82.08"/><polygon class="cls-17" points="29.81 68.12 9.98 79.57 14.3 82.08 34.13 70.63 29.81 68.12"/></g><path class="cls-18" d="M31.75,17.65,14.34,27.71l.15,53.36L31.91,71ZM23.17,66.14a3.64,3.64,0,0,1-3.6.36,3.57,3.57,0,0,1-1.5-3.27l-.07-26a3.2,3.2,0,0,1,1.45-2.51l7.25-4.18c.81-.47,1.46-.1,1.46.83l.07,26.05A11.17,11.17,0,0,1,23.17,66.14Z"/><path class="cls-11" d="M22,29.23l-.57.33-.18-.42-.85.49-.18.63-.57.33.9-3,.55-.32Zm-1.18-1.07-.25.87.51-.29-.25-.59Z"/><path class="cls-11" d="M22.35,28.72a1,1,0,0,1-.23-.8,2.32,2.32,0,0,1,.23-1.08,1.65,1.65,0,0,1,.67-.71c.29-.17.51-.19.67-.06a1.07,1.07,0,0,1,.23.81A2.44,2.44,0,0,1,23.69,28a1.65,1.65,0,0,1-.67.71C22.73,28.83,22.51,28.85,22.35,28.72Zm.93-.91a1.85,1.85,0,0,0,.09-.62,1.07,1.07,0,0,0-.09-.52.17.17,0,0,0-.26,0,.62.62,0,0,0-.27.35,1.89,1.89,0,0,0-.09.62,1.07,1.07,0,0,0,.09.52.18.18,0,0,0,.27,0A.61.61,0,0,0,23.28,27.81Z"/><path class="cls-11" d="M24.82,27.58l-.6.34.88-2.44-1,.58v-.52l1.65-.95v.34Z"/><polygon class="cls-19" points="28.87 15.97 11.45 26.03 14.34 27.71 31.75 17.65 28.87 15.97"/><polygon class="cls-20" points="14.34 27.71 11.45 26.03 11.61 79.39 14.49 81.07 14.34 27.71"/></g></g></g></g></svg>