<svg xmlns="http://www.w3.org/2000/svg" xmlns:xlink="http://www.w3.org/1999/xlink" viewBox="0 0 150 150"><defs><style>.cls-1,.cls-2{fill:none;}.cls-2{stroke:#fff;}.cls-2,.cls-7,.cls-9{stroke-miterlimit:10;stroke-width:0.1px;}.cls-3{isolation:isolate;}.cls-4{opacity:0;}.cls-5{fill:#000714;}.cls-6{opacity:0.1;fill:url(#新建图案);}.cls-7,.cls-9{stroke:#a4fcfe;}.cls-7{fill:url(#未命名的渐变_4);}.cls-8{fill:url(#未命名的渐变_2268);}.cls-9{fill:url(#未命名的渐变_4-2);}.cls-10{fill:url(#未命名的渐变_2268-2);}.cls-11{fill:url(#未命名的渐变_46);}.cls-12{fill:url(#未命名的渐变_17174);}.cls-13{fill:url(#未命名的渐变_17303);}.cls-14{fill:url(#未命名的渐变_1401);}.cls-15{fill:url(#未命名的渐变_13);}.cls-16{fill:url(#未命名的渐变_12);}.cls-17,.cls-18{fill:url(#未命名的渐变_17174-2);}.cls-18{opacity:0.2;mix-blend-mode:multiply;}.cls-19{fill:url(#未命名的渐变_59);}.cls-20{fill:#00d9a3;}.cls-21{opacity:0.2;}</style><pattern id="新建图案" data-name="新建图案" width="18.57" height="32.16" patternTransform="translate(2255.37 532.75)" patternUnits="userSpaceOnUse" viewBox="0 0 18.57 32.16"><rect class="cls-1" width="18.57" height="32.16"/><polyline class="cls-2" points="18.57 21.44 18.57 32.16 18.57 42.88"/><polyline class="cls-2" points="9.29 26.8 18.57 32.16 27.85 37.51 27.85 37.52"/><polyline class="cls-2" points="9.29 37.52 9.29 37.51 18.57 32.16 27.85 26.8"/><polygon class="cls-2" points="27.85 37.52 27.85 26.8 18.57 21.44 9.28 26.8 9.28 37.52 18.57 42.88 27.85 37.52"/><polyline class="cls-2" points="0 21.44 0 32.16 0 42.88"/><polyline class="cls-2" points="-9.28 26.8 0 32.16 9.28 37.51 9.28 37.52"/><polyline class="cls-2" points="-9.28 37.52 -9.28 37.51 0 32.16 9.28 26.8"/><polygon class="cls-2" points="9.28 37.52 9.28 26.8 0 21.44 -9.29 26.8 -9.29 37.52 0 42.88 9.28 37.52"/><polyline class="cls-2" points="18.57 10.72 27.85 16.08 37.13 21.43 37.13 21.44"/><polyline class="cls-2" points="18.57 21.44 18.57 21.43 27.85 16.08 37.13 10.72"/><polygon class="cls-2" points="37.14 21.44 37.14 10.72 27.85 5.36 18.57 10.72 18.57 21.44 27.85 26.8 37.14 21.44"/><polyline class="cls-2" points="9.29 5.36 9.29 16.08 9.29 26.8"/><polyline class="cls-2" points="0.01 10.72 9.29 16.08 18.57 21.43 18.57 21.44"/><polyline class="cls-2" points="0.01 21.44 0.01 21.43 9.29 16.08 18.57 10.72"/><polygon class="cls-2" points="18.57 21.44 18.57 10.72 9.28 5.36 0 10.72 0 21.44 9.28 26.8 18.57 21.44"/><polyline class="cls-2" points="-18.56 10.72 -9.28 16.08 0 21.43 0 21.44"/><polyline class="cls-2" points="-18.56 21.44 -18.56 21.43 -9.28 16.08 0 10.72"/><polygon class="cls-2" points="0 21.44 0 10.72 -9.29 5.36 -18.57 10.72 -18.57 21.44 -9.29 26.8 0 21.44"/><polyline class="cls-2" points="18.57 -10.72 18.57 0 18.57 10.72"/><polyline class="cls-2" points="9.29 -5.36 18.57 0 27.85 5.35 27.85 5.36"/><polyline class="cls-2" points="9.29 5.36 9.29 5.35 18.57 0 27.85 -5.36"/><polygon class="cls-2" points="27.85 5.36 27.85 -5.36 18.57 -10.72 9.28 -5.36 9.28 5.36 18.57 10.72 27.85 5.36"/><polyline class="cls-2" points="0 -10.72 0 0 0 10.72"/><polyline class="cls-2" points="-9.28 -5.36 0 0 9.28 5.35 9.28 5.36"/><polyline class="cls-2" points="-9.28 5.36 -9.28 5.35 0 0 9.28 -5.36"/><polygon class="cls-2" points="9.28 5.36 9.28 -5.36 0 -10.72 -9.29 -5.36 -9.29 5.36 0 10.72 9.28 5.36"/></pattern><linearGradient id="未命名的渐变_4" x1="40.89" y1="139.85" x2="40.89" y2="135.98" gradientUnits="userSpaceOnUse"><stop offset="0" stop-color="#3480d3"/><stop offset="0.12" stop-color="#327ccc"/><stop offset="0.31" stop-color="#2c70b8"/><stop offset="0.53" stop-color="#235c97"/><stop offset="0.78" stop-color="#174169"/><stop offset="1" stop-color="#0a253b"/></linearGradient><linearGradient id="未命名的渐变_2268" x1="37.44" y1="142.36" x2="44.34" y2="142.36" gradientUnits="userSpaceOnUse"><stop offset="0" stop-color="#283140"/><stop offset="0.39" stop-color="#7a98cc"/><stop offset="0.9" stop-color="#12161a"/><stop offset="1" stop-color="#283140"/></linearGradient><linearGradient id="未命名的渐变_4-2" x1="109.88" y1="139.85" x2="109.88" y2="135.98" xlink:href="#未命名的渐变_4"/><linearGradient id="未命名的渐变_2268-2" x1="106.44" y1="142.36" x2="113.33" y2="142.36" xlink:href="#未命名的渐变_2268"/><linearGradient id="未命名的渐变_46" x1="38.28" y1="40.71" x2="112.54" y2="83.58" gradientUnits="userSpaceOnUse"><stop offset="0" stop-color="#283140"/><stop offset="0.34" stop-color="#7a98cc"/><stop offset="0.46" stop-color="#5e759c"/><stop offset="0.58" stop-color="#43536e"/><stop offset="0.71" stop-color="#2e394a"/><stop offset="0.82" stop-color="#1e262f"/><stop offset="0.92" stop-color="#151a20"/><stop offset="1" stop-color="#12161a"/></linearGradient><linearGradient id="未命名的渐变_17174" x1="27.37" y1="105.92" x2="122.63" y2="105.92" gradientUnits="userSpaceOnUse"><stop offset="0" stop-color="#283140"/><stop offset="0.2" stop-color="#7a98cc"/><stop offset="0.9" stop-color="#12161a"/><stop offset="1" stop-color="#283140"/></linearGradient><linearGradient id="未命名的渐变_17303" x1="50.21" y1="33.96" x2="99.79" y2="5.33" gradientUnits="userSpaceOnUse"><stop offset="0" stop-color="#7a98cc"/><stop offset="0.17" stop-color="#6179a0"/><stop offset="0.34" stop-color="#4c5e7b"/><stop offset="0.51" stop-color="#3b495e"/><stop offset="0.67" stop-color="#2f3a4a"/><stop offset="0.84" stop-color="#28313d"/><stop offset="1" stop-color="#262e39"/></linearGradient><linearGradient id="未命名的渐变_1401" x1="43.57" y1="40.53" x2="106.44" y2="40.53" gradientUnits="userSpaceOnUse"><stop offset="0" stop-color="#38455a"/><stop offset="0.28" stop-color="#7a98cc"/><stop offset="0.9" stop-color="#12161a"/><stop offset="1" stop-color="#283140"/></linearGradient><linearGradient id="未命名的渐变_13" x1="48.95" y1="33.58" x2="101.05" y2="3.5" gradientUnits="userSpaceOnUse"><stop offset="0" stop-color="#89abe6"/><stop offset="1" stop-color="#547099"/></linearGradient><linearGradient id="未命名的渐变_12" x1="41.98" y1="28.92" x2="108.03" y2="28.92" gradientUnits="userSpaceOnUse"><stop offset="0" stop-color="#0073e6"/><stop offset="0.2" stop-color="#59c8ff"/><stop offset="0.9" stop-color="#1433cc"/><stop offset="1" stop-color="#0073e6"/></linearGradient><linearGradient id="未命名的渐变_17174-2" x1="27.37" y1="132.57" x2="122.63" y2="132.57" xlink:href="#未命名的渐变_17174"/><radialGradient id="未命名的渐变_59" cx="75" cy="75" r="62.34" gradientTransform="translate(0 -37.5) scale(1 1.5)" gradientUnits="userSpaceOnUse"><stop offset="0" stop-color="#00b5d9" stop-opacity="0"/><stop offset="1" stop-color="#00d9a3" stop-opacity="0.6"/></radialGradient></defs><title>冷却塔（远程控制）</title><g class="cls-3"><g id="图层_2" data-name="图层 2"><g id="图元"><g id="冷却塔_远程控制_" data-name="冷却塔（远程控制）"><g class="cls-4"><rect class="cls-5" width="150" height="150"/><rect id="网格" class="cls-6" width="150" height="150"/></g><ellipse class="cls-7" cx="40.89" cy="137.92" rx="3.45" ry="1.94"/><path class="cls-8" d="M44.34,137.92l-1.13,7.58c0,.72-1,1.3-2.32,1.3s-2.31-.58-2.31-1.3l-1.14-7.58c0,1.07,1.55,1.93,3.45,1.93S44.34,139,44.34,137.92Z"/><ellipse class="cls-9" cx="109.88" cy="137.92" rx="3.45" ry="1.94"/><path class="cls-10" d="M113.33,137.92l-1.13,7.58c0,.72-1,1.3-2.32,1.3s-2.31-.58-2.31-1.3l-1.13-7.58c0,1.07,1.54,1.93,3.44,1.93S113.33,139,113.33,137.92Z"/><path class="cls-11" d="M122.63,61.85c0,14.77-21.32,26.74-47.63,26.74s-47.63-12-47.63-26.74c0-8,16.19-20.09,16.19-20.09S63,35.11,75,35.11s31.44,6.65,31.44,6.65S122.63,53.84,122.63,61.85Z"/><path class="cls-12" d="M122.63,61.85v61.41C122.63,138,101.31,150,75,150s-47.63-12-47.63-26.74V61.85C27.37,76.61,48.7,88.59,75,88.59S122.63,76.61,122.63,61.85Z"/><ellipse class="cls-13" cx="75" cy="19.65" rx="31.44" ry="17.65"/><path class="cls-14" d="M106.44,19.65V43.76c0,9.75-14.08,17.65-31.44,17.65s-31.43-7.9-31.43-17.65V19.65c0,9.74,14.07,17.64,31.43,17.64S106.44,29.39,106.44,19.65Z"/><ellipse class="cls-15" cx="75" cy="18.54" rx="33.03" ry="18.54"/><path class="cls-16" d="M108,18.54v2.22C108,31,93.24,39.29,75,39.29S42,31,42,20.76V18.54c0,10.24,14.78,18.54,33,18.54S108,28.78,108,18.54Z"/><path class="cls-17" d="M122.63,115.14v8.12C122.63,138,101.31,150,75,150s-47.63-12-47.63-26.74v-8.12c0,14.77,21.33,26.74,47.63,26.74S122.63,129.91,122.63,115.14Z"/><path class="cls-18" d="M122.63,115.14v8.12C122.63,138,101.31,150,75,150s-47.63-12-47.63-26.74v-8.12c0,14.77,21.33,26.74,47.63,26.74S122.63,129.91,122.63,115.14Z"/><path class="cls-19" d="M75,149.5a81,81,0,0,1-16.27-1.61c-2.16-.45-4.27-1-6.29-1.6-1.33-.4-2.64-.85-3.89-1.32-1.62-.62-3.23-1.32-4.8-2.09a.43.43,0,0,0-.22-.06.46.46,0,0,0-.23.06.48.48,0,0,0-.26.37l-.33,2.18c0,.4-.71.87-1.82.87s-1.81-.47-1.81-.8l-.84-5.67a.52.52,0,0,0-.21-.33c-5.08-3.58-8.41-7.83-9.63-12.3a15.08,15.08,0,0,1-.53-3.94V61.85c0-7.57,15.41-19.26,16-19.68l.07-.06a.51.51,0,0,0,.15-.35V26.44a.59.59,0,0,0-.07-.25,10.84,10.84,0,0,1-1.52-5.43V18.62C42.47,8.59,57.06.5,75,.5s32.53,8.09,32.53,18v2.22A10.85,10.85,0,0,1,106,26.19a.54.54,0,0,0-.06.25V41.76a.49.49,0,0,0,.2.4c.16.12,16,12,16,19.69v61.41a15,15,0,0,1-.53,3.94c-1.14,4.21-4.18,8.25-8.77,11.69a.5.5,0,0,0-.2.33l-.92,6.21c0,.4-.72.87-1.83.87s-1.81-.47-1.81-.8l-.39-2.61a.5.5,0,0,0-.26-.37.55.55,0,0,0-.46,0,53.87,53.87,0,0,1-5.5,2.45c-1.26.47-2.57.92-3.9,1.32-2,.62-4.13,1.15-6.28,1.6A81.06,81.06,0,0,1,75,149.5Z"/><path class="cls-20" d="M75,1c17.66,0,32,7.87,32,17.54v2.22A10.37,10.37,0,0,1,105.57,26a1,1,0,0,0-.13.49V41.76a1,1,0,0,0,.4.8c4.39,3.28,15.79,13.12,15.79,19.29v61.41a14.51,14.51,0,0,1-.51,3.81c-1.12,4.1-4.09,8.05-8.59,11.42a1,1,0,0,0-.39.65l-.93,6.21s0,.05,0,.08a2,2,0,0,1-1.32.37,2.08,2.08,0,0,1-1.32-.37v-.08l-.38-2.53a1,1,0,0,0-.53-.74,1,1,0,0,0-.92,0,54.09,54.09,0,0,1-5.45,2.42c-1.25.47-2.55.91-3.87,1.32-2,.61-4.1,1.14-6.23,1.58a82.56,82.56,0,0,1-32.35,0c-2.14-.44-4.24-1-6.24-1.58-1.32-.41-2.62-.85-3.86-1.32-1.61-.61-3.21-1.31-4.75-2.07a1,1,0,0,0-.45-.11.93.93,0,0,0-.46.12,1,1,0,0,0-.53.74l-.32,2.17s0,.05,0,.08a2.54,2.54,0,0,1-2.64,0,.22.22,0,0,0,0-.08l-.83-5.59a1,1,0,0,0-.41-.67c-5-3.51-8.25-7.67-9.43-12a14.11,14.11,0,0,1-.52-3.81V61.85c0-6.14,11.33-16,15.75-19.26a1,1,0,0,0,.45-.83V26.44a1,1,0,0,0-.14-.5A10.39,10.39,0,0,1,43,20.76V18.61a.56.56,0,0,0,0-.07C43,8.87,57.34,1,75,1m0-1C56.76,0,42,8.3,42,18.54c0,0,0,.05,0,.08v2.14a11.31,11.31,0,0,0,1.59,5.68V41.76h0S27.37,53.84,27.37,61.85v61.41a15.42,15.42,0,0,0,.55,4.07c1.28,4.71,4.76,9,9.82,12.58l.84,5.59c0,.72,1,1.3,2.31,1.3s2.32-.58,2.32-1.3l.32-2.18a52.24,52.24,0,0,0,4.84,2.11c1.27.48,2.58.93,3.93,1.34,2,.62,4.14,1.16,6.33,1.61a83.57,83.57,0,0,0,32.75,0q3.28-.67,6.33-1.61c1.35-.41,2.66-.86,3.92-1.34a53.54,53.54,0,0,0,5.56-2.46l.38,2.53c0,.72,1,1.3,2.31,1.3s2.32-.58,2.32-1.3l.93-6.21c4.59-3.44,7.75-7.52,9-12a15,15,0,0,0,.55-4.07V61.85c0-8-16.19-20.09-16.19-20.09V26.44A11.31,11.31,0,0,0,108,20.76V18.54C108,8.3,93.24,0,75,0Z"/></g></g></g></g></svg>