<svg xmlns="http://www.w3.org/2000/svg" xmlns:xlink="http://www.w3.org/1999/xlink" viewBox="0 0 150 150"><defs><style>.cls-1,.cls-2{fill:none;}.cls-2{stroke:#fff;stroke-miterlimit:10;stroke-width:0.1px;}.cls-3{isolation:isolate;}.cls-4{opacity:0;}.cls-5{fill:#000714;}.cls-6{opacity:0.1;fill:url(#新建图案);}.cls-7{fill:url(#未命名的渐变_13);}.cls-8{fill:url(#未命名的渐变_42);}.cls-9{fill:url(#未命名的渐变_107);}.cls-10{fill:url(#未命名的渐变_169);}.cls-11{fill:url(#未命名的渐变_110);}.cls-12{fill:url(#未命名的渐变_222);}.cls-13{fill:url(#未命名的渐变_106);}.cls-14{fill:url(#未命名的渐变_222-2);}.cls-15{fill:url(#未命名的渐变_106-2);}.cls-16{fill:url(#未命名的渐变_222-3);}.cls-17{fill:url(#未命名的渐变_106-3);}.cls-18{fill:url(#未命名的渐变_222-4);}.cls-19{fill:url(#未命名的渐变_106-4);}.cls-20{fill:url(#未命名的渐变_222-5);}.cls-21{fill:url(#未命名的渐变_106-5);}.cls-22{fill:url(#未命名的渐变_228);}.cls-23{fill:url(#未命名的渐变_236);}.cls-24{fill:url(#未命名的渐变_173);}.cls-25{fill:url(#未命名的渐变_13-2);}.cls-26{fill:url(#未命名的渐变_106-6);}.cls-27{fill:url(#未命名的渐变_113);}.cls-28{fill:url(#未命名的渐变_13-3);}.cls-29{fill:url(#未命名的渐变_515);}.cls-30{fill:url(#未命名的渐变_13-4);}.cls-31{mix-blend-mode:overlay;}.cls-32{fill:url(#未命名的渐变_463);}.cls-33{fill:url(#未命名的渐变_113-2);}.cls-34{fill:url(#未命名的渐变_13-5);}.cls-35{fill:url(#未命名的渐变_515-2);}.cls-36{fill:url(#未命名的渐变_13-6);}.cls-37{fill:url(#未命名的渐变_463-2);}.cls-38{fill:url(#未命名的渐变_106-7);}.cls-39{fill:url(#未命名的渐变_128);}.cls-40{opacity:0.3;}.cls-41{opacity:0.2;}</style><pattern id="新建图案" data-name="新建图案" width="18.57" height="32.16" patternTransform="translate(3048.18 669.47)" patternUnits="userSpaceOnUse" viewBox="0 0 18.57 32.16"><rect class="cls-1" width="18.57" height="32.16"/><polyline class="cls-2" points="18.57 21.44 18.57 32.16 18.57 42.88"/><polyline class="cls-2" points="9.29 26.8 18.57 32.16 27.85 37.51 27.85 37.52"/><polyline class="cls-2" points="9.29 37.52 9.29 37.51 18.57 32.16 27.85 26.8"/><polygon class="cls-2" points="27.85 37.52 27.85 26.8 18.57 21.44 9.28 26.8 9.28 37.52 18.57 42.88 27.85 37.52"/><polyline class="cls-2" points="0 21.44 0 32.16 0 42.88"/><polyline class="cls-2" points="-9.28 26.8 0 32.16 9.28 37.51 9.28 37.52"/><polyline class="cls-2" points="-9.28 37.52 -9.28 37.51 0 32.16 9.28 26.8"/><polygon class="cls-2" points="9.28 37.52 9.28 26.8 0 21.44 -9.29 26.8 -9.29 37.52 0 42.88 9.28 37.52"/><polyline class="cls-2" points="18.57 10.72 27.85 16.08 37.13 21.43 37.13 21.44"/><polyline class="cls-2" points="18.57 21.44 18.57 21.43 27.85 16.08 37.13 10.72"/><polygon class="cls-2" points="37.14 21.44 37.14 10.72 27.85 5.36 18.57 10.72 18.57 21.44 27.85 26.8 37.14 21.44"/><polyline class="cls-2" points="9.29 5.36 9.29 16.08 9.29 26.8"/><polyline class="cls-2" points="0.01 10.72 9.29 16.08 18.57 21.43 18.57 21.44"/><polyline class="cls-2" points="0.01 21.44 0.01 21.43 9.29 16.08 18.57 10.72"/><polygon class="cls-2" points="18.57 21.44 18.57 10.72 9.28 5.36 0 10.72 0 21.44 9.28 26.8 18.57 21.44"/><polyline class="cls-2" points="-18.56 10.72 -9.28 16.08 0 21.43 0 21.44"/><polyline class="cls-2" points="-18.56 21.44 -18.56 21.43 -9.28 16.08 0 10.72"/><polygon class="cls-2" points="0 21.44 0 10.72 -9.29 5.36 -18.57 10.72 -18.57 21.44 -9.29 26.8 0 21.44"/><polyline class="cls-2" points="18.57 -10.72 18.57 0 18.57 10.72"/><polyline class="cls-2" points="9.29 -5.36 18.57 0 27.85 5.35 27.85 5.36"/><polyline class="cls-2" points="9.29 5.36 9.29 5.35 18.57 0 27.85 -5.36"/><polygon class="cls-2" points="27.85 5.36 27.85 -5.36 18.57 -10.72 9.28 -5.36 9.28 5.36 18.57 10.72 27.85 5.36"/><polyline class="cls-2" points="0 -10.72 0 0 0 10.72"/><polyline class="cls-2" points="-9.28 -5.36 0 0 9.28 5.35 9.28 5.36"/><polyline class="cls-2" points="-9.28 5.36 -9.28 5.35 0 0 9.28 -5.36"/><polygon class="cls-2" points="9.28 5.36 9.28 -5.36 0 -10.72 -9.29 -5.36 -9.29 5.36 0 10.72 9.28 5.36"/></pattern><linearGradient id="未命名的渐变_13" x1="0.33" y1="43.01" x2="148.96" y2="43.01" gradientUnits="userSpaceOnUse"><stop offset="0" stop-color="#89abe6"/><stop offset="1" stop-color="#547099"/></linearGradient><linearGradient id="未命名的渐变_42" x1="74.64" y1="86.01" x2="74.64" gradientUnits="userSpaceOnUse"><stop offset="0" stop-color="#99beff"/><stop offset="0.02" stop-color="#99beff" stop-opacity="0.93"/><stop offset="0.09" stop-color="#99beff" stop-opacity="0.74"/><stop offset="0.17" stop-color="#99beff" stop-opacity="0.56"/><stop offset="0.25" stop-color="#99beff" stop-opacity="0.41"/><stop offset="0.33" stop-color="#99beff" stop-opacity="0.28"/><stop offset="0.43" stop-color="#99beff" stop-opacity="0.18"/><stop offset="0.53" stop-color="#99beff" stop-opacity="0.1"/><stop offset="0.64" stop-color="#99beff" stop-opacity="0.04"/><stop offset="0.77" stop-color="#99beff" stop-opacity="0.01"/><stop offset="1" stop-color="#99beff" stop-opacity="0"/></linearGradient><linearGradient id="未命名的渐变_107" x1="95.98" y1="102.65" x2="148.96" y2="102.65" gradientUnits="userSpaceOnUse"><stop offset="0" stop-color="#283140"/><stop offset="0.34" stop-color="#232b37"/><stop offset="0.9" stop-color="#15191f"/><stop offset="1" stop-color="#12161a"/></linearGradient><linearGradient id="未命名的渐变_169" x1="119.16" y1="133.22" x2="89.19" y2="103.25" gradientUnits="userSpaceOnUse"><stop offset="0" stop-color="#323d4d"/><stop offset="1" stop-color="#435067"/></linearGradient><linearGradient id="未命名的渐变_110" x1="100.91" y1="81.83" x2="148.65" y2="81.83" gradientUnits="userSpaceOnUse"><stop offset="0" stop-color="#4c6080"/><stop offset="1" stop-color="#4c5f80"/></linearGradient><linearGradient id="未命名的渐变_222" x1="130.68" y1="98.17" x2="128.97" y2="95.21" gradientUnits="userSpaceOnUse"><stop offset="0" stop-color="#1c2533"/><stop offset="0.1" stop-color="#12161a"/><stop offset="0.75" stop-color="#445573"/><stop offset="0.85" stop-color="#445573"/><stop offset="1" stop-color="#2e3a4d"/></linearGradient><linearGradient id="未命名的渐变_106" x1="115.56" y1="106.8" x2="113.28" y2="104.51" gradientUnits="userSpaceOnUse"><stop offset="0" stop-color="#425266"/><stop offset="1" stop-color="#596b8c"/></linearGradient><linearGradient id="未命名的渐变_222-2" x1="130.68" y1="104.6" x2="128.97" y2="101.63" xlink:href="#未命名的渐变_222"/><linearGradient id="未命名的渐变_106-2" x1="115.56" y1="113.22" x2="113.28" y2="110.93" xlink:href="#未命名的渐变_106"/><linearGradient id="未命名的渐变_222-3" x1="130.68" y1="111.02" x2="128.97" y2="108.05" xlink:href="#未命名的渐变_222"/><linearGradient id="未命名的渐变_106-3" x1="115.56" y1="119.64" x2="113.28" y2="117.36" xlink:href="#未命名的渐变_106"/><linearGradient id="未命名的渐变_222-4" x1="130.68" y1="117.44" x2="128.97" y2="114.48" xlink:href="#未命名的渐变_222"/><linearGradient id="未命名的渐变_106-4" x1="115.56" y1="126.06" x2="113.28" y2="123.78" xlink:href="#未命名的渐变_106"/><linearGradient id="未命名的渐变_222-5" x1="130.68" y1="123.87" x2="128.97" y2="120.9" xlink:href="#未命名的渐变_222"/><linearGradient id="未命名的渐变_106-5" x1="115.56" y1="132.49" x2="113.28" y2="130.2" xlink:href="#未命名的渐变_106"/><linearGradient id="未命名的渐变_228" x1="115.08" y1="126.61" x2="147.38" y2="126.61" gradientUnits="userSpaceOnUse"><stop offset="0" stop-color="#3d4d66"/><stop offset="1" stop-color="#3d4c66"/></linearGradient><linearGradient id="未命名的渐变_236" x1="146.19" y1="99.67" x2="147.38" y2="99.67" gradientUnits="userSpaceOnUse"><stop offset="0" stop-color="#212833"/><stop offset="1" stop-color="#212833"/></linearGradient><linearGradient id="未命名的渐变_173" x1="107.11" y1="133.6" x2="156.33" y2="84.38" gradientUnits="userSpaceOnUse"><stop offset="0" stop-color="#283140"/><stop offset="1" stop-color="#12161a"/></linearGradient><linearGradient id="未命名的渐变_13-2" x1="112.5" y1="87.91" x2="149.74" y2="87.91" xlink:href="#未命名的渐变_13"/><linearGradient id="未命名的渐变_106-6" x1="123.95" y1="129.96" x2="102.26" y2="108.27" xlink:href="#未命名的渐变_106"/><linearGradient id="未命名的渐变_113" x1="123.25" y1="52.01" x2="126.35" y2="52.01" gradientTransform="translate(6.92 3.7)" gradientUnits="userSpaceOnUse"><stop offset="0" stop-color="#38455a"/><stop offset="0.2" stop-color="#7a98cc"/><stop offset="0.9" stop-color="#12161a"/><stop offset="1" stop-color="#283140"/></linearGradient><linearGradient id="未命名的渐变_13-3" x1="123.25" y1="46.99" x2="126.35" y2="46.99" gradientTransform="translate(6.92 3.7)" xlink:href="#未命名的渐变_13"/><linearGradient id="未命名的渐变_515" x1="126.9" y1="53.17" x2="136.54" y2="53.17" gradientUnits="userSpaceOnUse"><stop offset="0" stop-color="#0073e6"/><stop offset="0.16" stop-color="#59c8ff"/><stop offset="0.24" stop-color="#59c8ff"/><stop offset="0.9" stop-color="#1433cc"/><stop offset="1" stop-color="#0073e6"/></linearGradient><linearGradient id="未命名的渐变_13-4" x1="126.9" y1="50.84" x2="136.54" y2="50.84" xlink:href="#未命名的渐变_13"/><linearGradient id="未命名的渐变_463" x1="130.17" y1="50.83" x2="133.27" y2="50.83" gradientUnits="userSpaceOnUse"><stop offset="0" stop-color="#12161a"/><stop offset="0.05" stop-color="#15191f"/><stop offset="0.33" stop-color="#232b37"/><stop offset="0.5" stop-color="#283140"/><stop offset="0.7" stop-color="#3e4d66"/><stop offset="1" stop-color="#283140"/></linearGradient><linearGradient id="未命名的渐变_113-2" x1="45.44" y1="7.27" x2="48.55" y2="7.27" xlink:href="#未命名的渐变_113"/><linearGradient id="未命名的渐变_13-5" x1="45.44" y1="2.26" x2="48.55" y2="2.26" gradientTransform="translate(6.92 3.7)" xlink:href="#未命名的渐变_13"/><linearGradient id="未命名的渐变_515-2" x1="49.1" y1="8.43" x2="58.74" y2="8.43" xlink:href="#未命名的渐变_515"/><linearGradient id="未命名的渐变_13-6" x1="49.1" y1="6.11" x2="58.74" y2="6.11" xlink:href="#未命名的渐变_13"/><linearGradient id="未命名的渐变_463-2" x1="52.37" y1="6.1" x2="55.47" y2="6.1" xlink:href="#未命名的渐变_463"/><linearGradient id="未命名的渐变_106-7" x1="101.61" y1="144.37" x2="-5.84" y2="36.92" xlink:href="#未命名的渐变_106"/><linearGradient id="未命名的渐变_128" x1="93.85" y1="150" x2="93.85" y2="85.02" gradientUnits="userSpaceOnUse"><stop offset="0" stop-color="#6a84b3" stop-opacity="0"/><stop offset="0.25" stop-color="#6a84b3" stop-opacity="0.01"/><stop offset="0.41" stop-color="#6a84b3" stop-opacity="0.06"/><stop offset="0.53" stop-color="#6a84b3" stop-opacity="0.14"/><stop offset="0.64" stop-color="#6a84b3" stop-opacity="0.25"/><stop offset="0.75" stop-color="#6a84b3" stop-opacity="0.4"/><stop offset="0.84" stop-color="#6a85b3" stop-opacity="0.58"/><stop offset="0.93" stop-color="#6a85b3" stop-opacity="0.79"/><stop offset="1" stop-color="#6a85b3"/></linearGradient></defs><title>冷凝器</title><g class="cls-3"><g id="图层_2" data-name="图层 2"><g id="图元"><g id="冷凝器"><g class="cls-4"><rect class="cls-5" width="150" height="150"/><rect id="网格" class="cls-6" width="150" height="150"/></g><g class="cls-3"><path class="cls-7" d="M147.22,52.87,57.39,1a9.19,9.19,0,0,0-8.33,0L2,28.33c-2.29,1.33-2.28,3.49,0,4.82L91.9,85a9.19,9.19,0,0,0,8.33,0l47-27.33C149.54,56.36,149.53,54.2,147.22,52.87Z"/><path class="cls-8" d="M53.22.75a7.67,7.67,0,0,1,3.79.9l89.84,51.86a2.3,2.3,0,0,1,1.36,1.78A2.21,2.21,0,0,1,146.87,57l-47,27.33a7.6,7.6,0,0,1-3.78.89,7.81,7.81,0,0,1-3.79-.89L2.44,32.5a2.26,2.26,0,0,1-1.36-1.77A2.24,2.24,0,0,1,2.42,29l47-27.32a7.66,7.66,0,0,1,3.78-.9m0-.75a8.45,8.45,0,0,0-4.16,1L2,28.33c-2.29,1.33-2.28,3.49,0,4.82L91.9,85a9.26,9.26,0,0,0,8.33,0l47-27.33c2.29-1.33,2.28-3.49,0-4.82L57.39,1a8.49,8.49,0,0,0-4.17-1Z"/><path class="cls-9" d="M149,55.3l-.18,64a2.89,2.89,0,0,1-1.71,2.39l-47,27.33A8.32,8.32,0,0,1,96,150V86a8.64,8.64,0,0,0,4.25-1l47-27.33a3.35,3.35,0,0,0,1.53-1.59A1.9,1.9,0,0,0,149,55.3Z"/></g><g class="cls-3"><polygon class="cls-5" points="148.65 77.35 112.5 98.22 112.62 139.76 148.77 118.89 148.65 77.35"/><polygon class="cls-10" points="112.5 98.22 100.91 91.54 101.06 143.46 112.62 139.76 112.5 98.22"/><polygon class="cls-11" points="146.1 65.45 100.91 91.54 112.5 98.22 148.65 77.35 146.1 65.45"/></g><g class="cls-3"><path class="cls-12" d="M144.41,86.86a.82.82,0,0,0-.84-.08l-30,17.45a.82.82,0,0,1,.84.08,2.57,2.57,0,0,1,1.16,2,.81.81,0,0,1-.34.75l30-17.45a.84.84,0,0,0,.35-.76A2.55,2.55,0,0,0,144.41,86.86Z"/><path class="cls-13" d="M114.43,104.31c-.65-.37-1.18-.08-1.18.66a2.57,2.57,0,0,0,1.17,2c.65.38,1.17.07,1.17-.67A2.57,2.57,0,0,0,114.43,104.31Z"/></g><g class="cls-3"><path class="cls-14" d="M144.41,93.28a.82.82,0,0,0-.84-.08l-30,17.45a.87.87,0,0,1,.84.08,2.6,2.6,0,0,1,1.16,2,.84.84,0,0,1-.34.76l30-17.46a.84.84,0,0,0,.35-.75A2.57,2.57,0,0,0,144.41,93.28Z"/><path class="cls-15" d="M114.43,110.73c-.65-.37-1.18-.08-1.18.67a2.6,2.6,0,0,0,1.17,2c.65.37,1.17.06,1.17-.68A2.6,2.6,0,0,0,114.43,110.73Z"/></g><g class="cls-3"><path class="cls-16" d="M144.41,99.71a.85.85,0,0,0-.84-.09l-30,17.45a.85.85,0,0,1,.84.09,2.57,2.57,0,0,1,1.16,2,.83.83,0,0,1-.34.76l30-17.45a.87.87,0,0,0,.35-.76A2.55,2.55,0,0,0,144.41,99.71Z"/><path class="cls-17" d="M114.43,117.16c-.65-.38-1.18-.08-1.18.66a2.6,2.6,0,0,0,1.17,2c.65.37,1.17.07,1.17-.68A2.57,2.57,0,0,0,114.43,117.16Z"/></g><g class="cls-3"><path class="cls-18" d="M144.41,106.13a.82.82,0,0,0-.84-.08l-30,17.45a.82.82,0,0,1,.84.08,2.57,2.57,0,0,1,1.16,2,.81.81,0,0,1-.34.75l30-17.45a.84.84,0,0,0,.35-.76A2.55,2.55,0,0,0,144.41,106.13Z"/><path class="cls-19" d="M114.43,123.58c-.65-.37-1.18-.08-1.18.66a2.57,2.57,0,0,0,1.17,2c.65.38,1.17.07,1.17-.67A2.57,2.57,0,0,0,114.43,123.58Z"/></g><g class="cls-3"><path class="cls-20" d="M144.41,112.55a.82.82,0,0,0-.84-.08l-30,17.45a.84.84,0,0,1,.84.08,2.6,2.6,0,0,1,1.16,2,.84.84,0,0,1-.34.76l30-17.46a.84.84,0,0,0,.35-.75A2.57,2.57,0,0,0,144.41,112.55Z"/><path class="cls-21" d="M114.43,130c-.65-.37-1.18-.08-1.18.67a2.57,2.57,0,0,0,1.17,2c.65.38,1.17.07,1.17-.67A2.6,2.6,0,0,0,114.43,130Z"/></g><g class="cls-3"><polygon class="cls-22" points="146.29 117.28 115.08 135.31 116.16 135.94 147.38 117.92 146.29 117.28"/><polygon class="cls-23" points="147.28 82.05 146.19 81.42 146.29 117.28 147.38 117.92 147.28 82.05"/><path class="cls-24" d="M149.74,77.79,113.59,98.66l.11,41.54,36.15-20.87Zm-33.58,58.15-.1-35.87,31.22-18,.1,35.87Z"/><polygon class="cls-25" points="148.65 77.16 112.5 98.03 113.59 98.66 149.74 77.79 148.65 77.16"/><polygon class="cls-26" points="113.59 98.66 112.5 98.03 112.62 139.57 113.7 140.2 113.59 98.66"/></g><path class="cls-27" d="M133.27,50.69v9.16a.76.76,0,0,1-.45.62,2.42,2.42,0,0,1-2.19,0,.78.78,0,0,1-.46-.64V50.67a.77.77,0,0,0,.46.64,2.42,2.42,0,0,0,2.19,0A.75.75,0,0,0,133.27,50.69Z"/><path class="cls-28" d="M133.27,50.68v0a.75.75,0,0,1-.45.62,2.42,2.42,0,0,1-2.19,0,.75.75,0,0,1-.46-.64.79.79,0,0,1,.45-.63,2.42,2.42,0,0,1,2.19,0A.79.79,0,0,1,133.27,50.68Z"/><path class="cls-29" d="M136.54,50.85v1.9a2.42,2.42,0,0,1-1.4,1.94,7.58,7.58,0,0,1-6.82,0,2.42,2.42,0,0,1-1.42-2V50.83a1.36,1.36,0,0,0,0,.2s0,0,0,0a2.61,2.61,0,0,0,1.4,1.71,7.52,7.52,0,0,0,6.82,0A2.39,2.39,0,0,0,136.54,50.85Z"/><path class="cls-30" d="M136.54,50.82v.06a2.42,2.42,0,0,1-1.4,1.94,7.52,7.52,0,0,1-6.82,0,2.42,2.42,0,0,1-1.42-2,2.39,2.39,0,0,1,1.4-2,7.52,7.52,0,0,1,6.82,0A2.43,2.43,0,0,1,136.54,50.82Z"/><g class="cls-31"><path class="cls-5" d="M136.54,52.21v.44a3.07,3.07,0,0,1-1.27,1.26,7.24,7.24,0,0,1-3.54.85,7.32,7.32,0,0,1-3.54-.85,3.19,3.19,0,0,1-1.29-1.26v-.43a2.66,2.66,0,0,0,1.37,1.56,7.61,7.61,0,0,0,6.92,0A2.64,2.64,0,0,0,136.54,52.21Z"/></g><path class="cls-32" d="M132.82,50.19a.67.67,0,0,1,0,1.27,2.38,2.38,0,0,1-2.19,0c-.61-.35-.61-.92,0-1.26A2.41,2.41,0,0,1,132.82,50.19Z"/><path class="cls-33" d="M55.47,6v9.15a.79.79,0,0,1-.45.63,2.44,2.44,0,0,1-2.2,0,.8.8,0,0,1-.46-.64V5.94a.8.8,0,0,0,.46.64,2.44,2.44,0,0,0,2.2,0A.78.78,0,0,0,55.47,6Z"/><path class="cls-34" d="M55.47,6V6a.78.78,0,0,1-.45.62,2.44,2.44,0,0,1-2.2,0A.8.8,0,0,1,52.36,6a.77.77,0,0,1,.46-.63,2.42,2.42,0,0,1,2.19,0A.77.77,0,0,1,55.47,6Z"/><path class="cls-35" d="M58.74,6.11V8A2.41,2.41,0,0,1,57.34,10a7.52,7.52,0,0,1-6.82,0A2.4,2.4,0,0,1,49.1,8V6.1a.71.71,0,0,0,0,.2s0,0,0,0a2.61,2.61,0,0,0,1.4,1.71,7.52,7.52,0,0,0,6.82,0A2.44,2.44,0,0,0,58.74,6.11Z"/><path class="cls-36" d="M58.74,6.09v.06a2.39,2.39,0,0,1-1.4,1.93,7.52,7.52,0,0,1-6.82,0,2.4,2.4,0,0,1-1.42-2,2.4,2.4,0,0,1,1.4-2,7.52,7.52,0,0,1,6.82,0A2.44,2.44,0,0,1,58.74,6.09Z"/><g class="cls-31"><path class="cls-5" d="M58.74,7.48v.44a3.13,3.13,0,0,1-1.27,1.26,7.26,7.26,0,0,1-3.54.84,7.29,7.29,0,0,1-3.54-.84A3.13,3.13,0,0,1,49.1,7.92V7.49a2.63,2.63,0,0,0,1.37,1.56,7.61,7.61,0,0,0,6.92,0A2.67,2.67,0,0,0,58.74,7.48Z"/></g><path class="cls-37" d="M55,5.46a.67.67,0,0,1,0,1.27,2.44,2.44,0,0,1-2.2,0,.67.67,0,0,1,0-1.27A2.42,2.42,0,0,1,55,5.46Z"/><path class="cls-38" d="M96,86v64a8.6,8.6,0,0,1-4.26-1L1.88,97.13A2.93,2.93,0,0,1,.15,94.71l.17-61V30.75a3,3,0,0,0,1.73,2.4L91.91,85A8.37,8.37,0,0,0,96,86Z"/><path class="cls-39" d="M91.73,85l.18,64A8.29,8.29,0,0,0,96,150V86A8.64,8.64,0,0,1,91.73,85Z"/><path class="cls-40" d="M147.25,57.69,100.23,85A8.64,8.64,0,0,1,96,86a8.37,8.37,0,0,1-4.07-1L2.06,33.15a3,3,0,0,1-1.73-2.4v2.94a3.55,3.55,0,0,0,1.56,1.6L91.72,87.17a8.71,8.71,0,0,0,4.26,1,8.43,8.43,0,0,0,4.07-1l47-27.33a2.93,2.93,0,0,0,1.71-2.39V56.1A3.35,3.35,0,0,1,147.25,57.69Z"/>
</g></g></g></g></svg>