<svg xmlns="http://www.w3.org/2000/svg" xmlns:xlink="http://www.w3.org/1999/xlink" viewBox="0 0 150 150"><defs><style>.cls-1{fill:#fff;}.cls-2,.cls-3{fill:none;}.cls-3{stroke:#fff;stroke-miterlimit:10;stroke-width:0.1px;}.cls-4{isolation:isolate;}.cls-5{opacity:0;}.cls-14,.cls-6{fill:#000714;}.cls-7{opacity:0.1;fill:url(#新建图案);}.cls-8{fill:url(#未命名的渐变_21);}.cls-9{fill:url(#未命名的渐变_13);}.cls-10,.cls-11,.cls-14{mix-blend-mode:multiply;}.cls-10{fill:url(#未命名的渐变_154);}.cls-11{fill:url(#未命名的渐变_33);}.cls-12{fill:url(#未命名的渐变_21-2);}.cls-13{fill:url(#未命名的渐变_31);}.cls-14{opacity:0.6;}.cls-15{mask:url(#mask);}.cls-16{fill:url(#未命名的渐变_13-2);}.cls-17{fill:url(#未命名的渐变_21-4);}.cls-18{fill:url(#未命名的渐变_13-3);}.cls-19{fill:url(#未命名的渐变_11);}.cls-20{opacity:0.2;}</style><pattern id="新建图案" data-name="新建图案" width="18.57" height="32.16" patternTransform="translate(3457.46 727.44)" patternUnits="userSpaceOnUse" viewBox="0 0 18.57 32.16"><rect class="cls-2" width="18.57" height="32.16"/><polyline class="cls-3" points="18.57 21.44 18.57 32.16 18.57 42.88"/><polyline class="cls-3" points="9.29 26.8 18.57 32.16 27.85 37.51 27.85 37.52"/><polyline class="cls-3" points="9.29 37.52 9.29 37.51 18.57 32.16 27.85 26.8"/><polygon class="cls-3" points="27.85 37.52 27.85 26.8 18.57 21.44 9.28 26.8 9.28 37.52 18.57 42.88 27.85 37.52"/><polyline class="cls-3" points="0 21.44 0 32.16 0 42.88"/><polyline class="cls-3" points="-9.28 26.8 0 32.16 9.28 37.51 9.28 37.52"/><polyline class="cls-3" points="-9.28 37.52 -9.28 37.51 0 32.16 9.28 26.8"/><polygon class="cls-3" points="9.28 37.52 9.28 26.8 0 21.44 -9.29 26.8 -9.29 37.52 0 42.88 9.28 37.52"/><polyline class="cls-3" points="18.57 10.72 27.85 16.08 37.13 21.43 37.13 21.44"/><polyline class="cls-3" points="18.57 21.44 18.57 21.43 27.85 16.08 37.13 10.72"/><polygon class="cls-3" points="37.14 21.44 37.14 10.72 27.85 5.36 18.57 10.72 18.57 21.44 27.85 26.8 37.14 21.44"/><polyline class="cls-3" points="9.29 5.36 9.29 16.08 9.29 26.8"/><polyline class="cls-3" points="0.01 10.72 9.29 16.08 18.57 21.43 18.57 21.44"/><polyline class="cls-3" points="0.01 21.44 0.01 21.43 9.29 16.08 18.57 10.72"/><polygon class="cls-3" points="18.57 21.44 18.57 10.72 9.28 5.36 0 10.72 0 21.44 9.28 26.8 18.57 21.44"/><polyline class="cls-3" points="-18.56 10.72 -9.28 16.08 0 21.43 0 21.44"/><polyline class="cls-3" points="-18.56 21.44 -18.56 21.43 -9.28 16.08 0 10.72"/><polygon class="cls-3" points="0 21.44 0 10.72 -9.29 5.36 -18.57 10.72 -18.57 21.44 -9.29 26.8 0 21.44"/><polyline class="cls-3" points="18.57 -10.72 18.57 0 18.57 10.72"/><polyline class="cls-3" points="9.29 -5.36 18.57 0 27.85 5.35 27.85 5.36"/><polyline class="cls-3" points="9.29 5.36 9.29 5.35 18.57 0 27.85 -5.36"/><polygon class="cls-3" points="27.85 5.36 27.85 -5.36 18.57 -10.72 9.28 -5.36 9.28 5.36 18.57 10.72 27.85 5.36"/><polyline class="cls-3" points="0 -10.72 0 0 0 10.72"/><polyline class="cls-3" points="-9.28 -5.36 0 0 9.28 5.35 9.28 5.36"/><polyline class="cls-3" points="-9.28 5.36 -9.28 5.35 0 0 9.28 -5.36"/><polygon class="cls-3" points="9.28 5.36 9.28 -5.36 0 -10.72 -9.29 -5.36 -9.29 5.36 0 10.72 9.28 5.36"/></pattern><linearGradient id="未命名的渐变_21" x1="23.28" y1="134.25" x2="126.72" y2="134.25" gradientUnits="userSpaceOnUse"><stop offset="0" stop-color="#38455a"/><stop offset="0.15" stop-color="#7a98cc"/><stop offset="0.25" stop-color="#7a98cc"/><stop offset="0.9" stop-color="#12161a"/><stop offset="1" stop-color="#283140"/></linearGradient><linearGradient id="未命名的渐变_13" x1="23.28" y1="118.64" x2="126.72" y2="118.64" gradientUnits="userSpaceOnUse"><stop offset="0" stop-color="#89abe6"/><stop offset="1" stop-color="#547099"/></linearGradient><linearGradient id="未命名的渐变_154" x1="76.88" y1="142.55" x2="78.44" y2="142.55" gradientUnits="userSpaceOnUse"><stop offset="0" stop-color="#142439" stop-opacity="0.6"/><stop offset="1" stop-color="#142439" stop-opacity="0"/></linearGradient><linearGradient id="未命名的渐变_33" x1="90.76" y1="121.8" x2="126.72" y2="121.8" gradientUnits="userSpaceOnUse"><stop offset="0.3" stop-color="#142439" stop-opacity="0.6"/><stop offset="1" stop-color="#142439" stop-opacity="0"/></linearGradient><linearGradient id="未命名的渐变_21-2" x1="32.35" y1="78.66" x2="124.87" y2="86.76" xlink:href="#未命名的渐变_21"/><linearGradient id="未命名的渐变_31" x1="44.37" y1="51.71" x2="106.83" y2="57.17" gradientUnits="userSpaceOnUse"><stop offset="0" stop-color="#0073e6"/><stop offset="0.07" stop-color="#59c8ff"/><stop offset="0.2" stop-color="#59c8ff"/><stop offset="0.85" stop-color="#1433cc"/><stop offset="1" stop-color="#0073e6"/></linearGradient><mask id="mask" x="29.18" y="24.63" width="93.1" height="117.9" maskUnits="userSpaceOnUse"><path class="cls-1" d="M68.64,131.84l-1.55-.17c-2,6.83-3.54,8.89-4.46,9.74l1.44.23c1.7-1.58,3.13-5.91,3.67-7.53,1.12,5.3,2.18,7.36,3,8.25l1.47.07C71.19,141.28,70,138.87,68.64,131.84Z"/><path class="cls-1" d="M78.45,132.14l-1.64,0c-1.66,7.37-3.07,9.43-3.91,10.3.49,0,1,0,1.48,0,1.66-1.65,2.81-6.21,3.29-8.13,1.6,5.48,2.86,7.29,3.74,8,.49,0,1-.07,1.45-.12C81,140.71,79.46,135.86,78.45,132.14Z"/><path class="cls-1" d="M88.15,131.25c-.57.09-1.14.18-1.71.25-1.17,7.86-2.41,9.78-3.17,10.68L84.7,142c1.59-1.72,2.42-6.66,2.76-8.7,2.11,5.71,3.53,7.14,4.42,7.55l1.37-.31C91.1,139.47,89,133.79,88.15,131.25Z"/><path class="cls-1" d="M118.85,115.71l-.06.08a31.56,31.56,0,0,1,1.15,5.92c-.33-.17-1-.52-2.84-3.86l-.22.26-.31.32c2.11,3.9,2.71,3.95,3.29,4,.12-.31.23-.61.34-.92.16-.89-.36-3.29-1.11-6.13C119,115.48,118.94,115.6,118.85,115.71Z"/><path class="cls-1" d="M116.24,128.22c.25-.28.48-.57.71-.86.57-1.09,0-4.67-.69-8.62h0l-.53.52c1,5.34.93,7,.79,8.27-.64-.23-1.75-1.09-4.08-5.54l-.22.15-.58.43-.81.52c.69,7.12.21,8.7-.11,9.77-1.2-.33-2.87-2.66-5-6.91-.58.28-1.18.55-1.78.82,0,7.94-.79,9.6-1.3,10.61-1.06-.49-2.61-1.9-5.28-8.21l-1.76.5c-.6,8.29-1.72,10-2.34,10.89l1.3-.31c1.51-1.67,2-6.91,2.15-9.28,2.74,6.21,4.27,6.9,5,7,.59-.23,1.18-.47,1.76-.72.81-.82,1.53-2.76,1.52-9.91,3.18,6.27,4.44,6.23,5.19,6.2.37-.25.73-.51,1.07-.76.73-1,1.06-3.07.32-10.14C114.71,128.5,115.71,128.32,116.24,128.22Z"/><path class="cls-1" d="M50.26,127.67c-.45-.17-.89-.35-1.33-.54-2.39,5.48-3.94,7.37-4.88,8.13.39.21.79.41,1.19.61.91-.74,2.14-2.44,3.93-6.19.22,4.88.72,7.23,1.24,8.46.44.16.88.33,1.33.48C51.06,137.12,50.48,134.34,50.26,127.67Z"/><path class="cls-1" d="M59.11,130.33,57.66,130c-2.3,6.23-3.84,8.21-4.79,9l1.34.42c.95-.79,2.17-2.65,3.89-6.89.66,5.11,1.45,7.35,2.13,8.42l1.46.28C60.54,139.45,59.77,136.17,59.11,130.33Z"/><path class="cls-1" d="M30.28,110.46c-.05-.13-.1-.27-.14-.4-.06.15-.11.32-.16.47s-.11.34-.15.5-.12.45-.17.68C29.84,111.36,30,110.94,30.28,110.46Z"/><path class="cls-1" d="M29.18,115.43c0,.13,0,.28,0,.41.31-1.17.75-2.66,1.35-4.66-.06-.14-.11-.29-.17-.44-.49,1.58-.87,2.82-1.15,3.81,0,.24,0,.49,0,.73C29.19,115.33,29.18,115.39,29.18,115.43Z"/><path class="cls-1" d="M42.48,123.92c-.41-.24-.8-.49-1.18-.74-2.25,4.61-3.63,6.38-4.48,7.11l.45.39.43.36c.78-.66,1.92-2.15,3.68-5.49a33.43,33.43,0,0,0,.3,8.32l.67.42.49.28C42.31,132.51,42.2,129.24,42.48,123.92Z"/><path class="cls-1" d="M121.09,116.32q0-.46,0-.93a15,15,0,0,0-.6-2.26l-.06.11-.06.11c.29.92.46,1.55.64,2.28a5.47,5.47,0,0,1-1.1-1.49c-.06.12-.13.23-.2.35l-.09.13C120.36,116,120.65,116.11,121.09,116.32Z"/><path class="cls-1" d="M30.65,122.18l.05.11.27.6.12.22a76.78,76.78,0,0,1,1.53-8l0,0c-.13-.19-.25-.39-.37-.58l-.29-.46a29.11,29.11,0,0,1-2.48,4.3,1.7,1.7,0,0,1,0,.22c0,.21.08.4.13.61l0,.12a29.43,29.43,0,0,0,2.43-4.14C31.25,118.62,30.84,120.78,30.65,122.18Z"/><path class="cls-1" d="M36.52,119.52l-.34-.33-.6-.57c-1.84,3.66-2.95,5.22-3.67,5.95l.12.2c.13.19.24.39.37.58a.18.18,0,0,1,.05.07,21.72,21.72,0,0,0,3.15-4.86,47.59,47.59,0,0,0-.7,7.87c.14.15.29.32.44.47l.37.35A51.11,51.11,0,0,1,36.52,119.52Z"/></mask><linearGradient id="未命名的渐变_13-2" x1="41.52" y1="21.4" x2="110.49" y2="21.4" gradientTransform="translate(97.18 -54.67) rotate(89.84)" xlink:href="#未命名的渐变_13"/><linearGradient id="未命名的渐变_21-4" x1="41.38" y1="30.62" x2="110.36" y2="30.62" xlink:href="#未命名的渐变_21"/><linearGradient id="未命名的渐变_13-3" x1="41.38" y1="19.98" x2="110.36" y2="19.98" gradientTransform="translate(95.63 -55.95) rotate(89.84)" xlink:href="#未命名的渐变_13"/><linearGradient id="未命名的渐变_11" x1="43.97" y1="19.98" x2="107.77" y2="19.98" gradientUnits="userSpaceOnUse"><stop offset="0" stop-color="#12161a"/><stop offset="0.75" stop-color="#7a98cc"/><stop offset="0.85" stop-color="#7a98cc"/><stop offset="1" stop-color="#38455a"/></linearGradient></defs><title>冷娶塔</title><g class="cls-4"><g id="图层_2" data-name="图层 2"><g id="图元"><g id="冷娶塔"><g id="背景" class="cls-5"><rect class="cls-6" width="150" height="150"/><rect id="网格" class="cls-7" width="150" height="150"/></g><g class="cls-4"><path class="cls-8" d="M111.05,140.19c-20.48,11.49-53.23,11.16-73.13-.74-9.79-5.85-14.66-13.41-14.64-21v1.41c0,7.54,4.84,15.1,14.63,20.95,19.91,11.9,52.65,12.24,73.14.74,10.41-5.84,15.64-13.61,15.67-21.4v-1.41C126.7,126.58,121.46,134.35,111.05,140.19Z"/><path class="cls-9" d="M117.15,136.08h0a43.48,43.48,0,0,1-6.1,4.1c-20.48,11.49-53.22,11.16-73.14-.74S18.47,108.58,39,97.09s53.22-11.16,73.12.74c.24.13.47.28.7.42h0C129.82,108.84,131.19,124.71,117.15,136.08Z"/><path class="cls-10" d="M76.88,142.51v.11l1.56-.14Z"/><path class="cls-11" d="M118.49,102.5c.19.54.38,1.08.57,1.6.74,2.06,1.44,3.93,2.07,5.54,0,.06,0,.12.05.17.15.4.29.81.41,1.21a4.27,4.27,0,0,1,.13.48c.09.31.17.63.23.94l.1.54c0,.29.09.6.12.89s0,.36.06.55,0,.61,0,.91c0,.12,0,.25,0,.37v.16c0,.22,0,.45,0,.67s0,.42,0,.63-.06.45-.09.68a6.17,6.17,0,0,1-.1.62c0,.23-.08.45-.13.68s-.1.41-.15.62-.13.44-.2.67l-.2.62c-.07.21-.17.44-.26.66s-.15.41-.24.62l-.32.65c-.09.21-.19.41-.29.6s-.25.44-.38.66-.22.4-.34.59-.29.43-.44.66-.25.38-.39.57-.33.43-.49.64l-.44.57c-.18.22-.37.43-.56.64s-.32.36-.48.54l-.63.64-.53.53c-.22.21-.47.42-.7.63l-.56.5c-.25.21-.52.42-.77.64l-.59.46c-.28.23-.6.43-.89.65l-.58.43c-.35.23-.7.46-1.06.68l-.53.35c-.54.34-1.1.68-1.69,1a58.7,58.7,0,0,1-17.42,6.16c8.69-1.1,19.51-2.79,26.39-5h0C129.42,126.15,129.92,112.78,118.49,102.5Z"/></g><path class="cls-12" d="M122.28,115.7v.16c0,.22,0,.45,0,.67s0,.42,0,.63-.06.45-.09.68a6.17,6.17,0,0,1-.1.62c0,.23-.08.45-.13.68s-.1.41-.15.62-.13.44-.2.67l-.2.62c-.07.21-.17.44-.26.66s-.15.41-.24.62l-.32.65c-.09.21-.19.41-.29.6s-.25.44-.38.66-.22.4-.34.59-.29.43-.44.66-.25.38-.39.57-.33.43-.49.64l-.44.57c-.18.22-.37.43-.56.64s-.32.36-.48.54l-.63.64-.53.53c-.22.21-.47.42-.7.63l-.56.5c-.25.21-.52.42-.77.64l-.59.46c-.28.23-.6.43-.89.65l-.58.43c-.35.23-.7.46-1.06.68l-.53.35c-.54.34-1.1.68-1.69,1C89.75,145.3,60.27,145,42.35,134.29c-.55-.33-1.08-.66-1.61-1l-.5-.35-1-.7-.55-.42c-.28-.23-.58-.44-.85-.66l-.56-.47c-.25-.22-.5-.42-.74-.64s-.35-.34-.52-.51-.45-.41-.67-.63-.32-.35-.49-.52l-.59-.64-.46-.54c-.17-.22-.35-.43-.52-.64l-.41-.57c-.16-.22-.32-.42-.47-.64s-.24-.39-.37-.58-.27-.43-.39-.64-.22-.39-.32-.59-.24-.43-.35-.65l-.27-.6c-.1-.21-.2-.43-.29-.65s-.14-.4-.22-.61-.17-.44-.23-.65l-.18-.62c-.06-.22-.12-.43-.17-.66s-.09-.4-.13-.61-.08-.44-.12-.66,0-.42-.07-.63-.05-.44-.07-.66,0-.4,0-.61,0-.34,0-.5,0-.1,0-.15c0-.36,0-.72.06-1.08,0-.12,0-.23,0-.34.05-.47.12-1,.21-1.41a3.59,3.59,0,0,1,.08-.35c.08-.36.16-.71.27-1.07,0-.16.1-.33.15-.5s.2-.6.32-.9c0-.08.05-.17.08-.24,1.27-3.21,2.83-7.44,4.41-12.19.08-.24.17-.48.24-.73l.24-.7C37.34,89.46,39.4,82.48,41,76a.58.58,0,0,1,0-.19c.21-.93.43-1.83.62-2.7l0-.06q.91-4.12,1.51-7.5v-.06c.12-.6.21-1.18.31-1.75.18-1.12.32-2.12.45-3,0-.2.05-.38.08-.57.35-2.59.57-4.75.7-6.53,0-.27,0-.53.05-.78.11-1.9.13-3.32.15-4.34,0-.85,0-1.63,0-2.41,0-.13,0-.25,0-.38s0-.47,0-.71v-.23c0-.76-.06-1.51-.11-2.25-.07-1-.13-1.93-.2-2.72,0-.15,0-.32,0-.47a2.65,2.65,0,0,1,0-.27l-.09-.91a.11.11,0,0,0,0,0c0-.27,0-.55-.09-.83s-.05-.48-.08-.72a.77.77,0,0,0,0-.15c0-.13,0-.25,0-.38-.2-1.56-.41-3-.62-4.28a1,1,0,0,1,0-.17c0-.14,0-.28-.07-.41-.12-.7-.25-1.39-.38-2.07,0,0,0,0,0-.07s-.06-.28-.09-.42c-.38-1.83-.7-3.08-.85-3.64a2.45,2.45,0,0,0-.09-.32c1.11,3.87,4.21,7.6,9.29,10.64,13.28,7.93,35.11,8.16,48.77.49,5.34-3,8.63-6.74,9.88-10.67a92.1,92.1,0,0,0-2.57,15.16c0,.11,0,.21,0,.33a1.5,1.5,0,0,0,0,.22c0,.48-.09,1-.13,1.6-.08,1.15-.14,2.34-.17,3.56,0,.29,0,.56,0,.86,0,.58,0,1.19,0,1.84,0,1.45.09,3.23.19,4.86v.18c0,.36,0,.71.06,1.06.07,1,.13,1.71.19,2.38.1.93.21,1.88.32,2.68,0,.15,0,.3.06.44.07.5.13.94.19,1.34.44,3.12,1.16,7.6,2.77,14.56,1.52,6.51,3.53,13.48,5.56,19.79.09.26.16.52.25.77s.15.45.22.67c.78,2.39,1.56,4.65,2.29,6.71s1.44,3.93,2.07,5.54c0,.06,0,.12.05.17.15.4.29.81.41,1.21a4.27,4.27,0,0,1,.13.48c.09.31.17.63.23.94l.1.54c0,.29.09.6.12.89s0,.36.06.55,0,.61,0,.91C122.27,115.45,122.28,115.58,122.28,115.7Z"/><path class="cls-13" d="M107.15,53.52A25,25,0,0,1,100.21,59c-13.66,7.66-35.49,7.44-48.76-.49a23.9,23.9,0,0,1-6.71-5.72c.11-1.9.13-3.32.15-4.34,0-.85,0-1.63,0-2.41a24,24,0,0,0,6.59,5.57c13.27,7.93,35.1,8.16,48.76.49A25.07,25.07,0,0,0,107,46.82c0,.58,0,1.19,0,1.84C107,50.11,107.05,51.89,107.15,53.52Z"/><path class="cls-14" d="M122.28,115.7v.16c0,.22,0,.45,0,.67s0,.42,0,.63-.06.45-.09.68a6.17,6.17,0,0,1-.1.62c0,.23-.08.45-.13.68s-.1.41-.15.62-.13.44-.2.67l-.2.62c-.07.21-.17.44-.26.66s-.15.41-.24.62l-.32.65c-.09.21-.19.41-.29.6s-.25.44-.38.66-.22.4-.34.59-.29.43-.44.66-.25.38-.39.57-.33.43-.49.64l-.44.57c-.18.22-.37.43-.56.64s-.32.36-.48.54l-.63.64-.53.53c-.22.21-.47.42-.7.63l-.56.5c-.25.21-.52.42-.77.64l-.59.46c-.28.23-.6.43-.89.65l-.58.43c-.35.23-.7.46-1.06.68l-.53.35c-.54.34-1.1.68-1.69,1C89.75,145.3,60.27,145,42.35,134.29c-.55-.33-1.08-.66-1.61-1l-.5-.35-1-.7-.55-.42c-.28-.23-.58-.44-.85-.66l-.56-.47c-.25-.22-.5-.42-.74-.64s-.35-.34-.52-.51-.45-.41-.67-.63-.32-.35-.49-.52l-.59-.64-.46-.54c-.17-.22-.35-.43-.52-.64l-.41-.57c-.16-.22-.32-.42-.47-.64s-.24-.39-.37-.58-.27-.43-.39-.64-.22-.39-.32-.59-.24-.43-.35-.65l-.27-.6c-.1-.21-.2-.43-.29-.65s-.14-.4-.22-.61-.17-.44-.23-.65l-.18-.62c-.06-.22-.12-.43-.17-.66s-.09-.4-.13-.61-.08-.44-.12-.66,0-.42-.07-.63-.05-.44-.07-.66,0-.4,0-.61,0-.34,0-.5,0-.1,0-.15c0-.36,0-.72.06-1.08,0-.12,0-.23,0-.34.05-.47.12-1,.21-1.41a3.59,3.59,0,0,1,.08-.35c.08-.36.16-.71.27-1.07,0-.16.1-.33.15-.5s.1-.32.16-.47c.07.2.14.42.22.63s.15.4.22.6.19.44.29.66.18.39.28.59.22.44.34.66l.32.58c.12.22.27.43.4.65s.24.39.37.58.31.42.46.63.27.38.42.57.34.43.51.64l.46.54c.19.22.4.43.59.64s.32.36.5.53l.66.63c.17.17.34.34.53.51l.74.63c.19.16.36.32.56.48l.84.65.55.43,1,.69.5.36c.53.34,1.06.68,1.61,1,17.93,10.71,47.4,11,65.83.66.59-.32,1.15-.66,1.69-1q.27-.16.54-.36c.35-.22.7-.44,1-.68l.58-.43c.3-.21.61-.42.89-.64l.59-.47c.26-.21.52-.42.77-.64s.37-.32.56-.5.48-.41.7-.63l.53-.52.63-.64.48-.54.56-.64.44-.57c.16-.22.34-.42.49-.65s.26-.38.39-.57.3-.44.44-.65.23-.4.34-.6.26-.43.38-.65.2-.4.3-.6.21-.44.32-.66l.24-.61c.08-.22.17-.43.25-.64,0,.1.06.2.08.29a4.27,4.27,0,0,1,.13.48c.09.31.17.63.23.94l.1.54c0,.29.09.6.12.89s0,.36.06.55,0,.61,0,.91C122.27,115.45,122.28,115.58,122.28,115.7Z"/><g class="cls-15"><path class="cls-12" d="M122.28,115.7v.16c0,.22,0,.45,0,.67s0,.42,0,.63-.06.45-.09.68a6.17,6.17,0,0,1-.1.62c0,.23-.08.45-.13.68s-.1.41-.15.62-.13.44-.2.67l-.2.62c-.07.21-.17.44-.26.66s-.15.41-.24.62l-.32.65c-.09.21-.19.41-.29.6s-.25.44-.38.66-.22.4-.34.59-.29.43-.44.66-.25.38-.39.57-.33.43-.49.64l-.44.57c-.18.22-.37.43-.56.64s-.32.36-.48.54l-.63.64-.53.53c-.22.21-.47.42-.7.63l-.56.5c-.25.21-.52.42-.77.64l-.59.46c-.28.23-.6.43-.89.65l-.58.43c-.35.23-.7.46-1.06.68l-.53.35c-.54.34-1.1.68-1.69,1C89.75,145.3,60.27,145,42.35,134.29c-.55-.33-1.08-.66-1.61-1l-.5-.35-1-.7-.55-.42c-.28-.23-.58-.44-.85-.66l-.56-.47c-.25-.22-.5-.42-.74-.64s-.35-.34-.52-.51-.45-.41-.67-.63-.32-.35-.49-.52l-.59-.64-.46-.54c-.17-.22-.35-.43-.52-.64l-.41-.57c-.16-.22-.32-.42-.47-.64s-.24-.39-.37-.58-.27-.43-.39-.64-.22-.39-.32-.59-.24-.43-.35-.65l-.27-.6c-.1-.21-.2-.43-.29-.65s-.14-.4-.22-.61-.17-.44-.23-.65l-.18-.62c-.06-.22-.12-.43-.17-.66s-.09-.4-.13-.61-.08-.44-.12-.66,0-.42-.07-.63-.05-.44-.07-.66,0-.4,0-.61,0-.34,0-.5,0-.1,0-.15c0-.36,0-.72.06-1.08,0-.12,0-.23,0-.34.05-.47.12-1,.21-1.41a3.59,3.59,0,0,1,.08-.35c.08-.36.16-.71.27-1.07,0-.16.1-.33.15-.5s.2-.6.32-.9c0-.08.05-.17.08-.24,1.27-3.21,2.83-7.44,4.41-12.19.08-.24.17-.48.24-.73l.24-.7C37.34,89.46,39.4,82.48,41,76a.58.58,0,0,1,0-.19c.21-.93.43-1.83.62-2.7l0-.06q.91-4.12,1.51-7.5v-.06c.12-.6.21-1.18.31-1.75.18-1.12.32-2.12.45-3,0-.2.05-.38.08-.57.35-2.59.57-4.75.7-6.53,0-.27,0-.53.05-.78.11-1.9.13-3.32.15-4.34,0-.85,0-1.63,0-2.41,0-.13,0-.25,0-.38s0-.47,0-.71v-.23c0-.76-.06-1.51-.11-2.25-.07-1-.13-1.93-.2-2.72,0-.15,0-.32,0-.47a2.65,2.65,0,0,1,0-.27l-.09-.91a.11.11,0,0,0,0,0c0-.27,0-.55-.09-.83s-.05-.48-.08-.72a.77.77,0,0,0,0-.15c0-.13,0-.25,0-.38-.2-1.56-.41-3-.62-4.28a1,1,0,0,1,0-.17c0-.14,0-.28-.07-.41-.12-.7-.25-1.39-.38-2.07,0,0,0,0,0-.07s-.06-.28-.09-.42c-.38-1.83-.7-3.08-.85-3.64a2.45,2.45,0,0,0-.09-.32c1.11,3.87,4.21,7.6,9.29,10.64,13.28,7.93,35.11,8.16,48.77.49,5.34-3,8.63-6.74,9.88-10.67a92.1,92.1,0,0,0-2.57,15.16c0,.11,0,.21,0,.33a1.5,1.5,0,0,0,0,.22c0,.48-.09,1-.13,1.6-.08,1.15-.14,2.34-.17,3.56,0,.29,0,.56,0,.86,0,.58,0,1.19,0,1.84,0,1.45.09,3.23.19,4.86v.18c0,.36,0,.71.06,1.06.07,1,.13,1.71.19,2.38.1.93.21,1.88.32,2.68,0,.15,0,.3.06.44.07.5.13.94.19,1.34.44,3.12,1.16,7.6,2.77,14.56,1.52,6.51,3.53,13.48,5.56,19.79.09.26.16.52.25.77s.15.45.22.67c.78,2.39,1.56,4.65,2.29,6.71s1.44,3.93,2.07,5.54c0,.06,0,.12.05.17.15.4.29.81.41,1.21a4.27,4.27,0,0,1,.13.48c.09.31.17.63.23.94l.1.54c0,.29.09.6.12.89s0,.36.06.55,0,.61,0,.91C122.27,115.45,122.28,115.58,122.28,115.7Z"/></g><ellipse class="cls-16" cx="76" cy="21.4" rx="19.98" ry="34.49" transform="translate(54.39 97.34) rotate(-89.84)"/><g class="cls-4"><path class="cls-17" d="M99.91,34.35c-13.66,7.66-35.49,7.44-48.77-.5-6.53-3.9-9.77-8.94-9.76-14v1.4c0,5,3.23,10.07,9.76,14,13.27,7.93,35.11,8.15,48.76.49,6.95-3.9,10.44-9.08,10.45-14.27V20.07C110.34,25.27,106.85,30.45,99.91,34.35Z"/><ellipse class="cls-18" cx="75.87" cy="19.98" rx="19.98" ry="34.49" transform="translate(55.68 95.79) rotate(-89.84)"/><path class="cls-19" d="M76,37.37c-8.85,0-17.43-2.09-23.52-5.74-5.54-3.31-8.56-7.51-8.5-11.84s3.3-8.66,9.13-11.93c6.06-3.4,14.11-5.27,22.65-5.27,8.86,0,17.43,2.09,23.52,5.73,5.54,3.31,8.56,7.52,8.5,11.84s-3.3,8.66-9.13,11.93c-6.06,3.4-14.11,5.28-22.65,5.28Z"/></g></g></g></g></g></svg>