<svg xmlns="http://www.w3.org/2000/svg" xmlns:xlink="http://www.w3.org/1999/xlink" viewBox="0 0 150 150"><defs><style>.cls-1,.cls-2{fill:none;}.cls-2{stroke:#fff;stroke-miterlimit:10;stroke-width:0.1px;}.cls-3{isolation:isolate;}.cls-4{opacity:0;}.cls-5{fill:#000714;}.cls-6{opacity:0.1;fill:url(#新建图案);}.cls-7{fill:url(#未命名的渐变_118);}.cls-8{fill:url(#未命名的渐变_107);}.cls-9{fill:url(#未命名的渐变_1406);}.cls-10,.cls-17,.cls-27{mix-blend-mode:multiply;}.cls-10{fill:url(#未命名的渐变_154);}.cls-11{fill:url(#未命名的渐变_168);}.cls-12{fill:url(#未命名的渐变_107-2);}.cls-13{fill:url(#未命名的渐变_2003);}.cls-14{fill:url(#未命名的渐变_118-2);}.cls-15{fill:url(#未命名的渐变_107-3);}.cls-16{fill:url(#未命名的渐变_1406-2);}.cls-17{fill:url(#未命名的渐变_154-2);}.cls-18{fill:url(#未命名的渐变_168-2);}.cls-19{fill:url(#未命名的渐变_107-4);}.cls-20{fill:url(#未命名的渐变_2003-2);}.cls-21{fill:#13181d;}.cls-22{fill:url(#未命名的渐变_1403);}.cls-23{fill:url(#未命名的渐变_12);}.cls-24{fill:url(#未命名的渐变_168-3);}.cls-25{fill:url(#未命名的渐变_24);}.cls-26{fill:url(#未命名的渐变_217);}.cls-28{fill:#242d3a;}.cls-29{fill:url(#未命名的渐变_17161);}.cls-30{fill:url(#未命名的渐变_217-2);}.cls-31{fill:url(#未命名的渐变_1403-2);}.cls-32{fill:url(#未命名的渐变_12-2);}.cls-33{fill:url(#未命名的渐变_168-4);}.cls-34{fill:url(#未命名的渐变_24-2);}.cls-35{fill:url(#未命名的渐变_217-3);}.cls-36{fill:url(#未命名的渐变_1403-3);}.cls-37{fill:url(#未命名的渐变_12-3);}.cls-38{fill:url(#未命名的渐变_168-5);}.cls-39{fill:url(#未命名的渐变_24-3);}.cls-40{fill:url(#未命名的渐变_217-4);}.cls-41{fill:url(#未命名的渐变_1403-4);}.cls-42{fill:url(#未命名的渐变_12-4);}.cls-43{fill:url(#未命名的渐变_168-6);}.cls-44{fill:url(#未命名的渐变_24-4);}.cls-45{fill:url(#未命名的渐变_217-5);}.cls-46{fill:url(#未命名的渐变_1403-5);}.cls-47{fill:url(#未命名的渐变_12-5);}.cls-48{fill:url(#未命名的渐变_168-7);}.cls-49{fill:url(#未命名的渐变_24-5);}.cls-50{fill:url(#未命名的渐变_107-5);}.cls-51{opacity:0.2;}</style><pattern id="新建图案" data-name="新建图案" width="18.57" height="32.16" patternTransform="translate(2274.37 347.85)" patternUnits="userSpaceOnUse" viewBox="0 0 18.57 32.16"><rect class="cls-1" width="18.57" height="32.16"/><polyline class="cls-2" points="18.57 21.44 18.57 32.16 18.57 42.88"/><polyline class="cls-2" points="9.29 26.8 18.57 32.16 27.85 37.51 27.85 37.52"/><polyline class="cls-2" points="9.29 37.52 9.29 37.51 18.57 32.16 27.85 26.8"/><polygon class="cls-2" points="27.85 37.52 27.85 26.8 18.57 21.44 9.28 26.8 9.28 37.52 18.57 42.88 27.85 37.52"/><polyline class="cls-2" points="0 21.44 0 32.16 0 42.88"/><polyline class="cls-2" points="-9.28 26.8 0 32.16 9.28 37.51 9.28 37.52"/><polyline class="cls-2" points="-9.28 37.52 -9.28 37.51 0 32.16 9.28 26.8"/><polygon class="cls-2" points="9.28 37.52 9.28 26.8 0 21.44 -9.29 26.8 -9.29 37.52 0 42.88 9.28 37.52"/><polyline class="cls-2" points="18.57 10.72 27.85 16.08 37.13 21.43 37.13 21.44"/><polyline class="cls-2" points="18.57 21.44 18.57 21.43 27.85 16.08 37.13 10.72"/><polygon class="cls-2" points="37.14 21.44 37.14 10.72 27.85 5.36 18.57 10.72 18.57 21.44 27.85 26.8 37.14 21.44"/><polyline class="cls-2" points="9.29 5.36 9.29 16.08 9.29 26.8"/><polyline class="cls-2" points="0.01 10.72 9.29 16.08 18.57 21.43 18.57 21.44"/><polyline class="cls-2" points="0.01 21.44 0.01 21.43 9.29 16.08 18.57 10.72"/><polygon class="cls-2" points="18.57 21.44 18.57 10.72 9.28 5.36 0 10.72 0 21.44 9.28 26.8 18.57 21.44"/><polyline class="cls-2" points="-18.56 10.72 -9.28 16.08 0 21.43 0 21.44"/><polyline class="cls-2" points="-18.56 21.44 -18.56 21.43 -9.28 16.08 0 10.72"/><polygon class="cls-2" points="0 21.44 0 10.72 -9.29 5.36 -18.57 10.72 -18.57 21.44 -9.29 26.8 0 21.44"/><polyline class="cls-2" points="18.57 -10.72 18.57 0 18.57 10.72"/><polyline class="cls-2" points="9.29 -5.36 18.57 0 27.85 5.35 27.85 5.36"/><polyline class="cls-2" points="9.29 5.36 9.29 5.35 18.57 0 27.85 -5.36"/><polygon class="cls-2" points="27.85 5.36 27.85 -5.36 18.57 -10.72 9.28 -5.36 9.28 5.36 18.57 10.72 27.85 5.36"/><polyline class="cls-2" points="0 -10.72 0 0 0 10.72"/><polyline class="cls-2" points="-9.28 -5.36 0 0 9.28 5.35 9.28 5.36"/><polyline class="cls-2" points="-9.28 5.36 -9.28 5.35 0 0 9.28 -5.36"/><polygon class="cls-2" points="9.28 5.36 9.28 -5.36 0 -10.72 -9.29 -5.36 -9.29 5.36 0 10.72 9.28 5.36"/></pattern><linearGradient id="未命名的渐变_118" x1="110.47" y1="138.61" x2="100.81" y2="128.96" gradientUnits="userSpaceOnUse"><stop offset="0" stop-color="#1d242d"/><stop offset="1" stop-color="#596b8c"/></linearGradient><linearGradient id="未命名的渐变_107" x1="113.71" y1="140.24" x2="135.66" y2="118.29" gradientUnits="userSpaceOnUse"><stop offset="0" stop-color="#283140"/><stop offset="0.34" stop-color="#232b37"/><stop offset="0.9" stop-color="#15191f"/><stop offset="1" stop-color="#12161a"/></linearGradient><linearGradient id="未命名的渐变_1406" x1="100.01" y1="125.25" x2="138.09" y2="125.25" gradientUnits="userSpaceOnUse"><stop offset="0" stop-color="#89abe6"/><stop offset="1" stop-color="#547099"/></linearGradient><linearGradient id="未命名的渐变_154" x1="109.55" y1="127.51" x2="138.09" y2="127.51" gradientUnits="userSpaceOnUse"><stop offset="0" stop-color="#142439" stop-opacity="0.6"/><stop offset="1" stop-color="#142439" stop-opacity="0"/></linearGradient><linearGradient id="未命名的渐变_168" x1="115.34" y1="129.48" x2="96.49" y2="110.63" gradientUnits="userSpaceOnUse"><stop offset="0" stop-color="#425266"/><stop offset="1" stop-color="#596b8c"/></linearGradient><linearGradient id="未命名的渐变_107-2" x1="105.77" y1="131.5" x2="140" y2="97.27" xlink:href="#未命名的渐变_107"/><linearGradient id="未命名的渐变_2003" x1="102.28" y1="99.17" x2="136.23" y2="99.17" gradientUnits="userSpaceOnUse"><stop offset="0" stop-color="#7a98cc"/><stop offset="0.04" stop-color="#6983af"/><stop offset="0.1" stop-color="#576c90"/><stop offset="0.17" stop-color="#485974"/><stop offset="0.24" stop-color="#3b495e"/><stop offset="0.33" stop-color="#323d4d"/><stop offset="0.43" stop-color="#2b3442"/><stop offset="0.58" stop-color="#272f3b"/><stop offset="1" stop-color="#262e39"/></linearGradient><linearGradient id="未命名的渐变_118-2" x1="25.26" y1="88.39" x2="15.6" y2="78.73" xlink:href="#未命名的渐变_118"/><linearGradient id="未命名的渐变_107-3" x1="28.5" y1="90.02" x2="50.45" y2="68.07" xlink:href="#未命名的渐变_107"/><linearGradient id="未命名的渐变_1406-2" x1="14.8" y1="75.02" x2="52.88" y2="75.02" xlink:href="#未命名的渐变_1406"/><linearGradient id="未命名的渐变_154-2" x1="24.33" y1="77.29" x2="52.88" y2="77.29" xlink:href="#未命名的渐变_154"/><linearGradient id="未命名的渐变_168-2" x1="30.13" y1="79.26" x2="11.27" y2="60.41" xlink:href="#未命名的渐变_168"/><linearGradient id="未命名的渐变_107-4" x1="20.56" y1="81.28" x2="54.79" y2="47.05" xlink:href="#未命名的渐变_107"/><linearGradient id="未命名的渐变_2003-2" x1="17.07" y1="48.95" x2="51.02" y2="48.95" xlink:href="#未命名的渐变_2003"/><linearGradient id="未命名的渐变_1403" x1="323.02" y1="137.05" x2="319.93" y2="131.69" gradientTransform="translate(349.98 -121) rotate(120)" gradientUnits="userSpaceOnUse"><stop offset="0" stop-color="#283140"/><stop offset="0.1" stop-color="#12161a"/><stop offset="0.8" stop-color="#7a98cc"/><stop offset="1" stop-color="#38455a"/></linearGradient><linearGradient id="未命名的渐变_12" x1="326.12" y1="137.65" x2="320.95" y2="128.7" gradientTransform="translate(349.98 -121) rotate(120)" gradientUnits="userSpaceOnUse"><stop offset="0" stop-color="#0073e6"/><stop offset="0.2" stop-color="#59c8ff"/><stop offset="0.9" stop-color="#1433cc"/><stop offset="1" stop-color="#0073e6"/></linearGradient><linearGradient id="未命名的渐变_168-3" x1="318.22" y1="134.14" x2="325.55" y2="134.14" gradientTransform="translate(349.98 -121) rotate(120)" xlink:href="#未命名的渐变_168"/><linearGradient id="未命名的渐变_24" x1="71.04" y1="93.86" x2="74.7" y2="87.52" gradientUnits="userSpaceOnUse"><stop offset="0" stop-color="#99beff"/><stop offset="0.02" stop-color="#99beff" stop-opacity="0.93"/><stop offset="0.09" stop-color="#99beff" stop-opacity="0.74"/><stop offset="0.17" stop-color="#99beff" stop-opacity="0.56"/><stop offset="0.25" stop-color="#99beff" stop-opacity="0.41"/><stop offset="0.33" stop-color="#99beff" stop-opacity="0.28"/><stop offset="0.43" stop-color="#99beff" stop-opacity="0.18"/><stop offset="0.53" stop-color="#99beff" stop-opacity="0.1"/><stop offset="0.64" stop-color="#99beff" stop-opacity="0.04"/><stop offset="0.77" stop-color="#99beff" stop-opacity="0.01"/><stop offset="1" stop-color="#99beff" stop-opacity="0"/></linearGradient><linearGradient id="未命名的渐变_217" x1="69.38" y1="87.45" x2="76.27" y2="87.45" gradientUnits="userSpaceOnUse"><stop offset="0" stop-color="#283140"/><stop offset="0.2" stop-color="#89abe6"/><stop offset="0.9" stop-color="#12161a"/><stop offset="1" stop-color="#283140"/></linearGradient><linearGradient id="未命名的渐变_17161" x1="60.12" y1="81.25" x2="79.89" y2="47" gradientUnits="userSpaceOnUse"><stop offset="0" stop-color="#283140"/><stop offset="0.1" stop-color="#12161a"/><stop offset="0.8" stop-color="#7a98cc"/><stop offset="1" stop-color="#283140"/></linearGradient><linearGradient id="未命名的渐变_217-2" x1="99.2" y1="69.13" x2="113.32" y2="69.13" xlink:href="#未命名的渐变_217"/><linearGradient id="未命名的渐变_1403-2" x1="280.99" y1="126.42" x2="274.64" y2="115.42" xlink:href="#未命名的渐变_1403"/><linearGradient id="未命名的渐变_12-2" x1="287.34" y1="127.65" x2="276.75" y2="109.3" xlink:href="#未命名的渐变_12"/><linearGradient id="未命名的渐变_168-4" x1="271.14" y1="120.43" x2="286.17" y2="120.43" gradientTransform="translate(349.98 -121) rotate(120)" xlink:href="#未命名的渐变_168"/><linearGradient id="未命名的渐变_24-2" x1="102.59" y1="66.61" x2="110.11" y2="53.6" xlink:href="#未命名的渐变_24"/><linearGradient id="未命名的渐变_217-3" x1="75.32" y1="52.09" x2="85.91" y2="52.09" xlink:href="#未命名的渐变_217"/><linearGradient id="未命名的渐变_1403-3" x1="278.72" y1="155.54" x2="273.96" y2="147.28" xlink:href="#未命名的渐变_1403"/><linearGradient id="未命名的渐变_12-3" x1="283.48" y1="156.46" x2="275.54" y2="142.7" xlink:href="#未命名的渐变_12"/><linearGradient id="未命名的渐变_168-5" x1="271.34" y1="151.05" x2="282.6" y2="151.05" gradientTransform="translate(349.98 -121) rotate(120)" xlink:href="#未命名的渐变_168"/><linearGradient id="未命名的渐变_24-3" x1="77.86" y1="48.21" x2="83.5" y2="38.46" xlink:href="#未命名的渐变_24"/><linearGradient id="未命名的渐变_217-4" x1="51.75" y1="38.61" x2="62.34" y2="38.61" xlink:href="#未命名的渐变_217"/><linearGradient id="未命名的渐变_1403-4" x1="278.83" y1="182.69" x2="274.06" y2="174.44" xlink:href="#未命名的渐变_1403"/><linearGradient id="未命名的渐变_12-4" x1="283.59" y1="183.61" x2="275.64" y2="169.85" xlink:href="#未命名的渐变_12"/><linearGradient id="未命名的渐变_168-6" x1="271.44" y1="178.2" x2="282.71" y2="178.2" gradientTransform="translate(349.98 -121) rotate(120)" xlink:href="#未命名的渐变_168"/><linearGradient id="未命名的渐变_24-4" x1="54.3" y1="34.73" x2="59.93" y2="24.97" xlink:href="#未命名的渐变_24"/><linearGradient id="未命名的渐变_217-5" x1="29.47" y1="25.55" x2="40.06" y2="25.55" xlink:href="#未命名的渐变_217"/><linearGradient id="未命名的渐变_1403-5" x1="278.66" y1="208.51" x2="273.9" y2="200.26" xlink:href="#未命名的渐变_1403"/><linearGradient id="未命名的渐变_12-5" x1="283.42" y1="209.43" x2="275.48" y2="195.67" xlink:href="#未命名的渐变_12"/><linearGradient id="未命名的渐变_168-7" x1="271.27" y1="204.02" x2="282.54" y2="204.02" gradientTransform="translate(349.98 -121) rotate(120)" xlink:href="#未命名的渐变_168"/><linearGradient id="未命名的渐变_24-5" x1="32.02" y1="21.67" x2="37.65" y2="11.92" xlink:href="#未命名的渐变_24"/><linearGradient id="未命名的渐变_107-5" x1="123.31" y1="116.73" x2="149.41" y2="90.63" xlink:href="#未命名的渐变_107"/></defs><title>分集水器</title><g class="cls-3"><g id="图层_2" data-name="图层 2"><g id="图元"><g id="分集水器"><g class="cls-4"><rect class="cls-5" width="150" height="150"/><rect id="网格" class="cls-6" width="150" height="150"/></g><g id="分集水器-2" data-name="分集水器"><polygon class="cls-7" points="111.29 136.28 111.28 137.81 100 131.29 100.01 129.77 111.29 136.28"/><polygon class="cls-8" points="111.29 136.28 138.09 120.72 138.08 122.25 111.28 137.81 111.29 136.28"/><polygon class="cls-9" points="100.01 129.77 126.81 114.21 138.09 120.72 111.29 136.28 100.01 129.77"/><polygon class="cls-10" points="138.09 120.72 113.02 135.28 109.55 135.28 136.22 119.75 138.09 120.72"/><polygon class="cls-11" points="109.55 109.03 109.55 135.28 102.27 131.09 102.28 104.84 109.55 109.03"/><polygon class="cls-12" points="109.55 109.03 136.23 93.5 136.22 119.75 109.55 135.28 109.55 109.03"/><polygon class="cls-13" points="102.28 104.84 128.96 89.31 136.23 93.5 109.55 109.03 102.28 104.84"/><polygon class="cls-14" points="26.08 86.06 26.07 87.58 14.79 81.07 14.8 79.54 26.08 86.06"/><polygon class="cls-15" points="26.08 86.06 52.88 70.5 52.87 72.03 26.07 87.58 26.08 86.06"/><polygon class="cls-16" points="14.8 79.54 41.6 63.99 52.88 70.5 26.08 86.06 14.8 79.54"/><polygon class="cls-17" points="52.88 70.5 27.8 85.05 24.33 85.05 51.01 69.53 52.88 70.5"/><polygon class="cls-18" points="24.34 58.8 24.33 85.05 17.06 80.87 17.07 54.62 24.34 58.8"/><polygon class="cls-19" points="24.34 58.8 51.02 43.28 51.01 69.53 24.33 85.05 24.34 58.8"/><polygon class="cls-20" points="17.07 54.62 43.74 39.09 51.02 43.28 24.34 58.8 17.07 54.62"/><g class="cls-3"><path class="cls-21" d="M72.5,89a.81.81,0,0,1,.37-.09c.28,0,.51.14.51.3v-.84c0-.17-.23-.3-.52-.3a.66.66,0,0,0-.36.09.26.26,0,0,0-.15.21v.84A.26.26,0,0,1,72.5,89Z"/><path class="cls-21" d="M69.67,89.67a.79.79,0,0,1,.73,0,.25.25,0,0,1,.15.21V89a.26.26,0,0,0-.14-.21.81.81,0,0,0-.74,0,.25.25,0,0,0-.15.21v.84C69.51,89.8,69.57,89.73,69.67,89.67Z"/><path class="cls-21" d="M75.33,89.67a.79.79,0,0,1,.73,0,.25.25,0,0,1,.15.21V89a.25.25,0,0,0-.15-.21.79.79,0,0,0-.73,0,.25.25,0,0,0-.15.21v.84A.27.27,0,0,1,75.33,89.67Z"/><path class="cls-21" d="M68.48,91.31a.84.84,0,0,1,.37-.09c.29,0,.52.13.51.3v-.84c0-.17-.22-.3-.51-.3a.72.72,0,0,0-.37.09.26.26,0,0,0-.15.21v.84A.26.26,0,0,1,68.48,91.31Z"/><path class="cls-21" d="M76.49,91.31a.7.7,0,0,1,.37-.09c.28,0,.51.13.51.3v-.85c0-.16-.23-.29-.51-.29a.68.68,0,0,0-.37.09.26.26,0,0,0-.15.21v.84A.26.26,0,0,1,76.49,91.31Z"/><path class="cls-22" d="M70.69,90.26a4.83,4.83,0,0,1,4.38,0,1.54,1.54,0,0,1,.9,1.26v-.84a1.53,1.53,0,0,0-.9-1.26,4.83,4.83,0,0,0-4.38,0,1.56,1.56,0,0,0-.92,1.28v.84A1.58,1.58,0,0,1,70.69,90.26Z"/><path class="cls-21" d="M69.65,93a.79.79,0,0,1,.73,0,.25.25,0,0,1,.15.21v-.84a.24.24,0,0,0-.15-.21.79.79,0,0,0-.73,0,.25.25,0,0,0-.15.21v.84A.25.25,0,0,1,69.65,93Z"/><path class="cls-21" d="M75.31,93A.79.79,0,0,1,76,93a.25.25,0,0,1,.15.21v-.84a.24.24,0,0,0-.15-.21.79.79,0,0,0-.73,0,.25.25,0,0,0-.15.21v.84A.25.25,0,0,1,75.31,93Z"/><path class="cls-21" d="M72.47,93.63a.72.72,0,0,1,.37-.09c.29,0,.51.13.51.29V93c0-.16-.23-.29-.51-.29a.72.72,0,0,0-.37.09.25.25,0,0,0-.15.21v.84A.23.23,0,0,1,72.47,93.63Z"/><path class="cls-23" d="M76.51,93.65A2.6,2.6,0,0,0,78,91.52v-.84a2.6,2.6,0,0,1-1.53,2.13,8.06,8.06,0,0,1-7.3,0A2.6,2.6,0,0,1,67.7,90.7v.85a2.56,2.56,0,0,0,1.5,2.1A8,8,0,0,0,76.51,93.65Z"/><path class="cls-24" d="M76.51,92.81c2-1.17,2-3.07,0-4.24a8.11,8.11,0,0,0-7.31,0c-2,1.17-2,3.07,0,4.24A8.06,8.06,0,0,0,76.51,92.81ZM76,92.53a.79.79,0,0,1-.73,0c-.2-.12-.2-.31,0-.42a.79.79,0,0,1,.73,0C76.24,92.22,76.24,92.41,76,92.53Zm1.33-1.85a.26.26,0,0,1-.15.21.78.78,0,0,1-.37.09c-.28,0-.51-.13-.51-.3a.26.26,0,0,1,.15-.21.68.68,0,0,1,.37-.09C77.14,90.38,77.37,90.51,77.37,90.68Zm-2-1.85a.79.79,0,0,1,.73,0c.2.11.2.3,0,.42a.79.79,0,0,1-.73,0A.22.22,0,0,1,75.33,88.83Zm-3-.47a.26.26,0,0,1,.15-.21.66.66,0,0,1,.36-.09c.29,0,.52.13.52.3a.26.26,0,0,1-.15.21.81.81,0,0,1-.37.09C72.57,88.66,72.35,88.53,72.35,88.36Zm-2.69.47a.81.81,0,0,1,.74,0c.2.11.19.3,0,.42a.79.79,0,0,1-.73,0C69.46,89.13,69.46,88.94,69.66,88.83Zm1,.59a4.83,4.83,0,0,1,4.38,0,1.34,1.34,0,0,1,0,2.54,4.83,4.83,0,0,1-4.38,0A1.34,1.34,0,0,1,70.69,89.42Zm-2.36,1.26a.26.26,0,0,1,.15-.21.72.72,0,0,1,.37-.09c.29,0,.52.13.51.3a.26.26,0,0,1-.15.21.76.76,0,0,1-.36.09C68.56,91,68.33,90.84,68.33,90.68Zm4,2.32a.25.25,0,0,1,.15-.21.72.72,0,0,1,.37-.09c.29,0,.52.13.51.3a.24.24,0,0,1-.15.21.76.76,0,0,1-.36.09C72.55,93.3,72.32,93.16,72.32,93Zm-2.67-.89a.79.79,0,0,1,.73,0c.2.11.2.3,0,.42a.79.79,0,0,1-.73,0A.22.22,0,0,1,69.65,92.11Z"/><path class="cls-25" d="M72.89,87.8a7.2,7.2,0,0,1,3.59.86,2.14,2.14,0,0,1,0,4.06,7.27,7.27,0,0,1-3.61.86,7.2,7.2,0,0,1-3.59-.86,2.48,2.48,0,0,1-1.46-2,2.52,2.52,0,0,1,1.48-2,7.3,7.3,0,0,1,3.61-.86m0-.1a7.53,7.53,0,0,0-3.66.87c-2,1.17-2,3.07,0,4.24a7.42,7.42,0,0,0,3.64.87,7.5,7.5,0,0,0,3.66-.87c2-1.17,2-3.07,0-4.24a7.49,7.49,0,0,0-3.65-.87Z"/></g><path class="cls-26" d="M76.27,82.41v8.17a1.71,1.71,0,0,1-1,1.38,5.36,5.36,0,0,1-4.87,0,1.74,1.74,0,0,1-1-1.42V82.37a1.73,1.73,0,0,0,1,1.42,5.36,5.36,0,0,0,4.87,0A1.71,1.71,0,0,0,76.27,82.41Z"/><g class="cls-27"><path class="cls-28" d="M76.27,82.38v.05a1.71,1.71,0,0,1-1,1.38,5.36,5.36,0,0,1-4.87,0,1.49,1.49,0,0,1,0-2.82,5.38,5.38,0,0,1,4.88,0A1.75,1.75,0,0,1,76.27,82.38Z"/></g><path class="cls-29" d="M122.81,109.12q0-.48.12-1c0-.36.11-.71.18-1.07s.09-.48.14-.73.11-.45.17-.68.16-.63.25-1,.11-.37.17-.55c.11-.36.23-.71.36-1.07,0-.15.1-.29.16-.44.18-.49.38-1,.59-1.47,0,0,0-.1.07-.16.19-.43.4-.87.61-1.3l.21-.4c.2-.4.42-.8.64-1.19l.14-.24c.26-.47.55-.92.84-1.37l.25-.38c.22-.33.44-.65.67-1s.24-.34.37-.5.4-.52.6-.77.34-.43.52-.63l.51-.58c.29-.33.58-.64.89-1s.37-.38.56-.56.3-.28.45-.42.5-.45.76-.66l.45-.38q.42-.33.84-.63l.4-.29c.42-.29.85-.56,1.28-.81s.82-.45,1.22-.64l.32-.14.66-.27c.32-.12.63-.23.94-.32l.59-.17.55-.11a5.81,5.81,0,0,1,.71-.11l.4,0a8.29,8.29,0,0,1,.86,0h.19a6.38,6.38,0,0,1,1,.13l.23,0c.25.06.5.13.74.21l.22.08a5.91,5.91,0,0,1,.88.42L22.8,14l-.07,0a5.86,5.86,0,0,0-.67-.32l-.13-.05-.23-.08c-.12,0-.23-.09-.35-.12s-.25-.06-.38-.09l-.24-.06-.13,0c-.26,0-.53-.07-.8-.09h-.25c-.21,0-.42,0-.64,0l-.22,0-.4.05c-.12,0-.25,0-.37,0l-.33.07-.55.12-.3.06-.3.11c-.31.09-.62.2-.94.32l-.33.12-.33.15-.32.14c-.4.19-.81.4-1.22.64s-.85.52-1.27.8l-.41.3c-.28.2-.56.41-.83.63s-.31.25-.46.38l-.75.66-.45.42a3.45,3.45,0,0,0-.28.26c-.1.09-.19.2-.29.3-.3.31-.6.62-.89,1-.09.1-.19.19-.28.3l-.23.27c-.17.21-.35.42-.52.64l-.33.41c-.09.11-.18.24-.27.36l-.37.5c-.08.12-.17.23-.25.34s-.28.41-.41.62-.18.25-.26.38-.07.1-.1.16c-.24.37-.47.74-.69,1.12l0,.09c-.05.08-.09.16-.13.24-.16.26-.31.53-.45.8l-.2.39c-.07.13-.14.27-.2.4L2.75,27c-.15.31-.29.63-.43.95,0,.05,0,.11-.08.16l0,.05c-.17.39-.33.79-.49,1.19l-.08.23c0,.14-.1.29-.16.44l-.21.59c-.05.16-.09.32-.14.48s-.12.36-.17.55S.9,31.9.86,32s-.09.4-.15.61-.11.46-.16.68l-.06.24c0,.16,0,.33-.09.49-.06.36-.13.71-.18,1.07,0,.1,0,.19,0,.29s0,.45-.06.67,0,.31,0,.47C0,37,0,37.53,0,38c0,4.21,1.5,7.18,3.9,8.57l122.7,73.05c-2.4-1.39-3.88-4.35-3.89-8.56,0-.49,0-1,.05-1.48C122.78,109.43,122.8,109.28,122.81,109.12Z"/><path class="cls-30" d="M113.32,61.43V72.88a3.51,3.51,0,0,1-2,2.83,11,11,0,0,1-10,0A3.52,3.52,0,0,1,99.2,72.8V61.36a3.52,3.52,0,0,0,2.08,2.9,11,11,0,0,0,10,0A3.51,3.51,0,0,0,113.32,61.43Z"/><g class="cls-27"><path class="cls-28" d="M113.32,61.39v.09a3.51,3.51,0,0,1-2,2.83,11,11,0,0,1-10,0,3.52,3.52,0,0,1-2.08-2.9,3.49,3.49,0,0,1,2-2.88,11,11,0,0,1,10,0A3.55,3.55,0,0,1,113.32,61.39Z"/></g><g class="cls-3"><path class="cls-21" d="M105.59,56.62a1.57,1.57,0,0,1,.75-.18c.59,0,1.06.27,1.06.61V55.33c0-.34-.46-.62-1-.62a1.51,1.51,0,0,0-.75.18.54.54,0,0,0-.31.44v1.72A.53.53,0,0,1,105.59,56.62Z"/><path class="cls-21" d="M99.78,58a1.65,1.65,0,0,1,1.5,0,.53.53,0,0,1,.31.43V56.72a.51.51,0,0,0-.3-.43,1.68,1.68,0,0,0-1.5,0,.53.53,0,0,0-.31.44v1.73A.53.53,0,0,1,99.78,58Z"/><path class="cls-21" d="M111.39,58a1.65,1.65,0,0,1,1.5,0,.53.53,0,0,1,.3.43V56.72a.52.52,0,0,0-.31-.43,1.63,1.63,0,0,0-1.49,0,.53.53,0,0,0-.32.43v1.73A.53.53,0,0,1,111.39,58Z"/><path class="cls-21" d="M97.36,61.37a1.54,1.54,0,0,1,.75-.18c.59,0,1.06.27,1,.62V60.08c0-.34-.47-.61-1.06-.61a1.5,1.5,0,0,0-.74.18.51.51,0,0,0-.31.43V61.8A.54.54,0,0,1,97.36,61.37Z"/><path class="cls-21" d="M113.77,61.37a1.44,1.44,0,0,1,.75-.17c.59,0,1,.26,1,.6V60.07c0-.34-.47-.6-1-.6a1.51,1.51,0,0,0-.75.17.55.55,0,0,0-.31.44v1.73A.54.54,0,0,1,113.77,61.37Z"/><path class="cls-31" d="M101.88,59.23a9.87,9.87,0,0,1,9,0,3.14,3.14,0,0,1,1.84,2.58V60.09a3.16,3.16,0,0,0-1.84-2.59,10,10,0,0,0-9,0A3.18,3.18,0,0,0,100,60.12v1.73A3.19,3.19,0,0,1,101.88,59.23Z"/><path class="cls-21" d="M99.75,64.73a1.7,1.7,0,0,1,1.49,0,.53.53,0,0,1,.31.43V63.44a.52.52,0,0,0-.3-.43,1.65,1.65,0,0,0-1.5,0,.55.55,0,0,0-.31.43v1.73A.53.53,0,0,1,99.75,64.73Z"/><path class="cls-21" d="M111.35,64.73a1.72,1.72,0,0,1,1.5,0,.53.53,0,0,1,.3.43V63.44a.51.51,0,0,0-.31-.43,1.63,1.63,0,0,0-1.49,0,.53.53,0,0,0-.31.43v1.73A.53.53,0,0,1,111.35,64.73Z"/><path class="cls-21" d="M105.54,66.13a1.44,1.44,0,0,1,.75-.18c.58,0,1,.26,1,.6V64.82c0-.33-.47-.6-1-.6a1.58,1.58,0,0,0-.76.18.51.51,0,0,0-.3.43v1.73A.53.53,0,0,1,105.54,66.13Z"/><path class="cls-32" d="M113.82,66.17c2.09-1.21,3.13-2.79,3.12-4.37V60.07c0,1.58-1,3.16-3.13,4.37a16.49,16.49,0,0,1-15,0c-2-1.19-3.08-2.75-3.08-4.31v1.73c0,1.56,1,3.12,3.08,4.31A16.54,16.54,0,0,0,113.82,66.17Z"/><path class="cls-33" d="M113.81,64.44c4.15-2.4,4.17-6.28,0-8.67a16.46,16.46,0,0,0-15,0c-4.15,2.39-4.18,6.27,0,8.67A16.49,16.49,0,0,0,113.81,64.44Zm-1-.57a1.65,1.65,0,0,1-1.5,0c-.41-.23-.41-.62,0-.86a1.63,1.63,0,0,1,1.49,0A.45.45,0,0,1,112.84,63.87Zm2.73-3.79a.53.53,0,0,1-.31.43,1.51,1.51,0,0,1-.75.18c-.59,0-1.06-.27-1.05-.61a.55.55,0,0,1,.31-.44,1.51,1.51,0,0,1,.75-.17C115.11,59.47,115.58,59.74,115.57,60.08Zm-4.18-3.79a1.63,1.63,0,0,1,1.49,0,.45.45,0,0,1,0,.86,1.65,1.65,0,0,1-1.5,0A.45.45,0,0,1,111.39,56.29Zm-6.11-1a.54.54,0,0,1,.31-.44,1.51,1.51,0,0,1,.75-.18c.59,0,1.06.28,1,.62a.53.53,0,0,1-.31.43,1.51,1.51,0,0,1-.75.18C105.74,55.94,105.27,55.67,105.28,55.33Zm-5.5,1a1.68,1.68,0,0,1,1.5,0c.41.23.4.62,0,.86a1.63,1.63,0,0,1-1.49,0A.46.46,0,0,1,99.78,56.28Zm2.09,1.22a10,10,0,0,1,9,0c2.46,1.43,2.45,3.77,0,5.2a9.89,9.89,0,0,1-9,0C99.37,61.27,99.38,58.94,101.87,57.5Zm-4.82,2.58a.51.51,0,0,1,.31-.43,1.5,1.5,0,0,1,.74-.18c.59,0,1.06.27,1.06.61a.53.53,0,0,1-.31.43,1.54,1.54,0,0,1-.75.18C97.51,60.69,97,60.42,97.05,60.08Zm8.18,4.75a.51.51,0,0,1,.3-.43,1.58,1.58,0,0,1,.76-.18c.59,0,1.06.27,1,.61a.54.54,0,0,1-.31.44,1.44,1.44,0,0,1-.75.17C105.69,65.45,105.22,65.17,105.23,64.83ZM99.74,63a1.65,1.65,0,0,1,1.5,0,.45.45,0,0,1,0,.86,1.63,1.63,0,0,1-1.49,0A.45.45,0,0,1,99.74,63Z"/><path class="cls-34" d="M106.38,54.07a15,15,0,0,1,7.43,1.78c2,1.14,3,2.64,3,4.24s-1.1,3.12-3.08,4.26a16.34,16.34,0,0,1-14.87,0c-2-1.13-3-2.64-3-4.23S97,57,98.94,55.85a15.11,15.11,0,0,1,7.44-1.78m0-.1a15.28,15.28,0,0,0-7.49,1.8c-4.15,2.39-4.18,6.27,0,8.67a16.46,16.46,0,0,0,15,0c4.15-2.4,4.17-6.28,0-8.67a15.19,15.19,0,0,0-7.48-1.8Z"/></g><path class="cls-35" d="M85.91,44.33V56.89A2.65,2.65,0,0,1,84.37,59a8.24,8.24,0,0,1-7.49,0,2.65,2.65,0,0,1-1.56-2.18V44.28a2.65,2.65,0,0,0,1.56,2.17,8.24,8.24,0,0,0,7.49,0A2.65,2.65,0,0,0,85.91,44.33Z"/><g class="cls-27"><path class="cls-28" d="M85.91,44.3v.07a2.65,2.65,0,0,1-1.54,2.12,8.24,8.24,0,0,1-7.49,0,2.65,2.65,0,0,1-1.56-2.18,2.63,2.63,0,0,1,1.54-2.16,8.27,8.27,0,0,1,7.49,0A2.68,2.68,0,0,1,85.91,44.3Z"/></g><g class="cls-3"><path class="cls-21" d="M80.11,40.72a1.19,1.19,0,0,1,.56-.13c.45,0,.8.2.79.46v-1.3c0-.25-.35-.46-.79-.46a1.06,1.06,0,0,0-.56.14.4.4,0,0,0-.23.32v1.3A.41.41,0,0,1,80.11,40.72Z"/><path class="cls-21" d="M75.75,41.77a1.25,1.25,0,0,1,1.13,0,.39.39,0,0,1,.23.32V40.8a.39.39,0,0,0-.23-.33,1.23,1.23,0,0,0-1.12,0,.41.41,0,0,0-.23.33v1.29A.39.39,0,0,1,75.75,41.77Z"/><path class="cls-21" d="M84.46,41.77a1.23,1.23,0,0,1,1.12,0,.39.39,0,0,1,.23.32V40.8a.41.41,0,0,0-.23-.33,1.23,1.23,0,0,0-1.12,0,.4.4,0,0,0-.24.33v1.29A.39.39,0,0,1,84.46,41.77Z"/><path class="cls-21" d="M73.94,44.29a1.06,1.06,0,0,1,.56-.14c.44,0,.79.21.79.46V43.32c0-.26-.35-.46-.79-.46a1.23,1.23,0,0,0-.57.13.41.41,0,0,0-.23.33v1.29A.38.38,0,0,1,73.94,44.29Z"/><path class="cls-21" d="M86.25,44.29a1,1,0,0,1,.56-.13c.44,0,.79.19.79.45v-1.3c0-.25-.35-.45-.78-.45a1.23,1.23,0,0,0-.57.13.4.4,0,0,0-.23.33v1.29A.38.38,0,0,1,86.25,44.29Z"/><path class="cls-36" d="M77.33,42.68a7.39,7.39,0,0,1,6.73,0,2.38,2.38,0,0,1,1.39,1.94v-1.3a2.37,2.37,0,0,0-1.38-1.94,7.48,7.48,0,0,0-6.74,0,2.38,2.38,0,0,0-1.4,2v1.29A2.38,2.38,0,0,1,77.33,42.68Z"/><path class="cls-21" d="M75.73,46.81a1.23,1.23,0,0,1,1.12,0,.39.39,0,0,1,.23.32V45.84a.41.41,0,0,0-.23-.33,1.32,1.32,0,0,0-1.13,0,.41.41,0,0,0-.23.33v1.3A.37.37,0,0,1,75.73,46.81Z"/><path class="cls-21" d="M84.43,46.81a1.23,1.23,0,0,1,1.12,0,.37.37,0,0,1,.23.32V45.84a.41.41,0,0,0-.23-.33,1.29,1.29,0,0,0-1.12,0,.4.4,0,0,0-.24.33v1.3A.41.41,0,0,1,84.43,46.81Z"/><path class="cls-21" d="M80.07,47.85a1.2,1.2,0,0,1,.57-.13c.43,0,.78.2.78.45V46.88c0-.26-.35-.46-.79-.46a1.06,1.06,0,0,0-.56.14.38.38,0,0,0-.23.32v1.3A.41.41,0,0,1,80.07,47.85Z"/><path class="cls-37" d="M86.28,47.88a4,4,0,0,0,2.35-3.27v-1.3c0,1.19-.78,2.37-2.34,3.28a12.38,12.38,0,0,1-11.23,0,3.93,3.93,0,0,1-2.31-3.23v1.29a3.93,3.93,0,0,0,2.31,3.23A12.35,12.35,0,0,0,86.28,47.88Z"/><path class="cls-38" d="M86.28,46.59c3.11-1.8,3.12-4.71,0-6.51a12.41,12.41,0,0,0-11.23,0c-3.11,1.8-3.13,4.71,0,6.51A12.38,12.38,0,0,0,86.28,46.59Zm-.73-.43a1.25,1.25,0,0,1-1.13,0c-.3-.17-.3-.47,0-.65a1.29,1.29,0,0,1,1.12,0A.34.34,0,0,1,85.55,46.16Zm2-2.84a.35.35,0,0,1-.23.32,1.06,1.06,0,0,1-.56.14c-.44,0-.79-.21-.79-.46a.4.4,0,0,1,.23-.33,1.23,1.23,0,0,1,.57-.13C87.25,42.86,87.6,43.06,87.59,43.32Zm-3.13-2.85a1.23,1.23,0,0,1,1.12,0c.31.18.3.47,0,.65a1.23,1.23,0,0,1-1.12,0A.35.35,0,0,1,84.46,40.47Zm-4.58-.72a.4.4,0,0,1,.23-.32,1.06,1.06,0,0,1,.56-.14c.44,0,.79.21.79.46a.4.4,0,0,1-.23.33,1.16,1.16,0,0,1-.56.13C80.22,40.21,79.87,40,79.88,39.75Zm-4.13.72a1.23,1.23,0,0,1,1.12,0,.34.34,0,0,1,0,.65,1.23,1.23,0,0,1-1.12,0A.34.34,0,0,1,75.75,40.47Zm1.57.91a7.48,7.48,0,0,1,6.74,0c1.85,1.08,1.84,2.83,0,3.91a7.48,7.48,0,0,1-6.74,0C75.45,44.21,75.46,42.46,77.32,41.38ZM73.7,43.32a.41.41,0,0,1,.23-.33,1.23,1.23,0,0,1,.57-.13c.44,0,.79.2.79.46a.38.38,0,0,1-.24.32,1.06,1.06,0,0,1-.56.14C74.05,43.78,73.7,43.57,73.7,43.32Zm6.14,3.56a.38.38,0,0,1,.23-.32,1.06,1.06,0,0,1,.56-.14c.44,0,.8.21.79.46a.4.4,0,0,1-.23.33,1.16,1.16,0,0,1-.56.13C80.19,47.34,79.83,47.14,79.84,46.88Zm-4.12-1.37a1.32,1.32,0,0,1,1.13,0,.35.35,0,0,1,0,.65,1.23,1.23,0,0,1-1.12,0C75.41,46,75.42,45.69,75.72,45.51Z"/><path class="cls-39" d="M80.71,38.84a11.22,11.22,0,0,1,5.55,1.33,3.85,3.85,0,0,1,2.26,3.15,3.89,3.89,0,0,1-2.29,3.18,11.34,11.34,0,0,1-5.58,1.34A11.23,11.23,0,0,1,75.1,46.5a3.85,3.85,0,0,1-2.26-3.15,3.87,3.87,0,0,1,2.29-3.18,11.34,11.34,0,0,1,5.58-1.33m0-.1a11.49,11.49,0,0,0-5.63,1.34c-3.11,1.8-3.13,4.71,0,6.51a11.35,11.35,0,0,0,5.6,1.35,11.49,11.49,0,0,0,5.63-1.35c3.11-1.8,3.12-4.71,0-6.51a11.34,11.34,0,0,0-5.6-1.34Z"/></g><path class="cls-40" d="M62.34,30.85V43.41a2.65,2.65,0,0,1-1.54,2.12,8.3,8.3,0,0,1-7.49,0,2.65,2.65,0,0,1-1.56-2.18V30.79A2.65,2.65,0,0,0,53.31,33a8.24,8.24,0,0,0,7.49,0A2.64,2.64,0,0,0,62.34,30.85Z"/><g class="cls-27"><path class="cls-28" d="M62.34,30.81v.08A2.65,2.65,0,0,1,60.8,33a8.27,8.27,0,0,1-7.49,0,2.65,2.65,0,0,1-1.56-2.18,2.63,2.63,0,0,1,1.54-2.16,8.24,8.24,0,0,1,7.49,0A2.67,2.67,0,0,1,62.34,30.81Z"/></g><g class="cls-3"><path class="cls-21" d="M56.55,27.24a1.06,1.06,0,0,1,.56-.14c.44,0,.79.21.79.46V26.27c0-.26-.35-.46-.79-.46a1.19,1.19,0,0,0-.56.13.4.4,0,0,0-.23.33v1.29A.38.38,0,0,1,56.55,27.24Z"/><path class="cls-21" d="M52.19,28.28a1.23,1.23,0,0,1,1.12,0,.41.41,0,0,1,.23.32V27.31a.38.38,0,0,0-.23-.32,1.28,1.28,0,0,0-1.13,0,.41.41,0,0,0-.23.33v1.3A.4.4,0,0,1,52.19,28.28Z"/><path class="cls-21" d="M60.89,28.28a1.23,1.23,0,0,1,1.12,0,.39.39,0,0,1,.23.32V27.31A.38.38,0,0,0,62,27a1.23,1.23,0,0,0-1.12,0,.37.37,0,0,0-.23.32v1.3A.41.41,0,0,1,60.89,28.28Z"/><path class="cls-21" d="M50.37,30.8a1.16,1.16,0,0,1,.56-.13c.44,0,.8.2.79.46v-1.3c0-.25-.35-.46-.79-.46a1.06,1.06,0,0,0-.56.14.35.35,0,0,0-.23.32v1.3A.4.4,0,0,1,50.37,30.8Z"/><path class="cls-21" d="M62.68,30.8a1.16,1.16,0,0,1,.56-.13c.44,0,.79.2.79.45v-1.3c0-.25-.35-.45-.79-.45a1.06,1.06,0,0,0-.56.14.38.38,0,0,0-.24.32v1.3A.4.4,0,0,1,62.68,30.8Z"/><path class="cls-41" d="M53.76,29.19a7.48,7.48,0,0,1,6.74,0,2.39,2.39,0,0,1,1.38,1.94V29.84a2.34,2.34,0,0,0-1.38-1.94,7.42,7.42,0,0,0-6.74,0,2.39,2.39,0,0,0-1.4,2v1.3A2.41,2.41,0,0,1,53.76,29.19Z"/><path class="cls-21" d="M52.16,33.32a1.23,1.23,0,0,1,1.12,0,.39.39,0,0,1,.23.33v-1.3a.39.39,0,0,0-.23-.32,1.23,1.23,0,0,0-1.12,0,.4.4,0,0,0-.24.32v1.3A.41.41,0,0,1,52.16,33.32Z"/><path class="cls-21" d="M60.86,33.32a1.25,1.25,0,0,1,1.13,0,.41.41,0,0,1,.23.33v-1.3A.37.37,0,0,0,62,32a1.23,1.23,0,0,0-1.12,0,.41.41,0,0,0-.23.32v1.3A.41.41,0,0,1,60.86,33.32Z"/><path class="cls-21" d="M56.5,34.37a1.12,1.12,0,0,1,.57-.14c.44,0,.79.2.79.45V33.39c0-.25-.35-.45-.79-.45a1.16,1.16,0,0,0-.56.13.4.4,0,0,0-.23.33v1.29A.39.39,0,0,1,56.5,34.37Z"/><path class="cls-42" d="M62.71,34.4c1.57-.91,2.35-2.09,2.35-3.28V29.83c0,1.18-.77,2.37-2.34,3.27a12.35,12.35,0,0,1-11.23,0,3.93,3.93,0,0,1-2.31-3.23v1.3a4,4,0,0,0,2.31,3.23A12.41,12.41,0,0,0,62.71,34.4Z"/><path class="cls-43" d="M62.71,33.1c3.11-1.8,3.13-4.71,0-6.5a12.35,12.35,0,0,0-11.23,0c-3.12,1.79-3.13,4.7,0,6.5A12.35,12.35,0,0,0,62.71,33.1ZM62,32.68a1.23,1.23,0,0,1-1.12,0,.34.34,0,0,1,0-.65A1.23,1.23,0,0,1,62,32,.34.34,0,0,1,62,32.68ZM64,29.83a.41.41,0,0,1-.23.33,1.23,1.23,0,0,1-.57.13c-.44,0-.79-.2-.79-.46a.38.38,0,0,1,.24-.32,1.06,1.06,0,0,1,.56-.14C63.68,29.37,64,29.58,64,29.83ZM60.89,27A1.23,1.23,0,0,1,62,27a.34.34,0,0,1,0,.65,1.29,1.29,0,0,1-1.12,0A.34.34,0,0,1,60.89,27Zm-4.58-.72a.4.4,0,0,1,.23-.33,1.19,1.19,0,0,1,.56-.13c.44,0,.8.2.79.46a.38.38,0,0,1-.23.32,1.16,1.16,0,0,1-.56.14C56.66,26.73,56.3,26.52,56.31,26.27ZM52.18,27a1.28,1.28,0,0,1,1.13,0c.3.17.3.47,0,.65a1.29,1.29,0,0,1-1.12,0A.35.35,0,0,1,52.18,27Zm1.57.92a7.42,7.42,0,0,1,6.74,0c1.85,1.07,1.85,2.82,0,3.9a7.42,7.42,0,0,1-6.74,0C51.88,30.72,51.89,29,53.75,27.9Zm-3.61,1.93a.35.35,0,0,1,.23-.32,1.06,1.06,0,0,1,.56-.14c.44,0,.79.21.79.46a.41.41,0,0,1-.23.33,1.22,1.22,0,0,1-.56.13C50.48,30.29,50.13,30.09,50.14,29.83Zm6.13,3.57a.4.4,0,0,1,.23-.33,1.16,1.16,0,0,1,.56-.13c.45,0,.8.2.79.46a.38.38,0,0,1-.23.32,1,1,0,0,1-.56.13C56.62,33.86,56.27,33.65,56.27,33.4ZM52.16,32a1.23,1.23,0,0,1,1.12,0,.35.35,0,0,1,0,.65,1.25,1.25,0,0,1-1.13,0A.35.35,0,0,1,52.16,32Z"/><path class="cls-44" d="M57.14,25.35a11.29,11.29,0,0,1,5.56,1.33A3.84,3.84,0,0,1,65,29.84,3.89,3.89,0,0,1,62.66,33a12.31,12.31,0,0,1-11.13,0,3.85,3.85,0,0,1-2.26-3.16c0-1.19.82-2.32,2.3-3.18a11.33,11.33,0,0,1,5.57-1.33m0-.1a11.45,11.45,0,0,0-5.62,1.35c-3.12,1.79-3.13,4.7,0,6.5a11.36,11.36,0,0,0,5.61,1.35,11.48,11.48,0,0,0,5.62-1.35c3.11-1.8,3.13-4.71,0-6.5a11.41,11.41,0,0,0-5.61-1.35Z"/></g><path class="cls-45" d="M40.06,17.79V30.35a2.63,2.63,0,0,1-1.53,2.12,8.26,8.26,0,0,1-7.5,0,2.65,2.65,0,0,1-1.56-2.18V17.73A2.65,2.65,0,0,0,31,19.91a8.26,8.26,0,0,0,7.5,0A2.63,2.63,0,0,0,40.06,17.79Z"/><g class="cls-27"><path class="cls-28" d="M40.06,17.76v.07A2.63,2.63,0,0,1,38.53,20,8.26,8.26,0,0,1,31,20a2.65,2.65,0,0,1-1.56-2.18A2.63,2.63,0,0,1,31,15.61a8.27,8.27,0,0,1,7.49,0A2.64,2.64,0,0,1,40.06,17.76Z"/></g><g class="cls-3"><path class="cls-21" d="M34.27,14.18a1.16,1.16,0,0,1,.56-.13c.44,0,.79.2.79.46v-1.3c0-.25-.35-.46-.8-.46a1.11,1.11,0,0,0-.56.14.39.39,0,0,0-.23.32v1.3A.41.41,0,0,1,34.27,14.18Z"/><path class="cls-21" d="M29.91,15.22a1.26,1.26,0,0,1,1.12,0,.37.37,0,0,1,.23.32v-1.3a.41.41,0,0,0-.23-.32,1.25,1.25,0,0,0-1.13,0,.41.41,0,0,0-.23.33v1.29A.39.39,0,0,1,29.91,15.22Z"/><path class="cls-21" d="M38.61,15.23a1.25,1.25,0,0,1,1.13,0,.39.39,0,0,1,.23.32v-1.3a.39.39,0,0,0-.23-.32,1.23,1.23,0,0,0-1.12,0,.41.41,0,0,0-.23.33v1.29A.41.41,0,0,1,38.61,15.23Z"/><path class="cls-21" d="M28.09,17.75a1.08,1.08,0,0,1,.56-.14c.45,0,.8.21.8.46V16.78c0-.26-.35-.46-.79-.46a1.16,1.16,0,0,0-.56.13.4.4,0,0,0-.23.33v1.29A.39.39,0,0,1,28.09,17.75Z"/><path class="cls-21" d="M40.4,17.75a1.08,1.08,0,0,1,.56-.14c.44,0,.79.2.79.45V16.77c0-.25-.35-.45-.79-.45a1.16,1.16,0,0,0-.56.13.38.38,0,0,0-.23.33v1.29A.39.39,0,0,1,40.4,17.75Z"/><path class="cls-46" d="M31.48,16.14a7.42,7.42,0,0,1,6.74,0,2.34,2.34,0,0,1,1.38,1.94v-1.3a2.4,2.4,0,0,0-1.39-1.94,7.46,7.46,0,0,0-6.73,0,2.41,2.41,0,0,0-1.41,2V18.1A2.38,2.38,0,0,1,31.48,16.14Z"/><path class="cls-21" d="M29.88,20.27a1.23,1.23,0,0,1,1.12,0,.37.37,0,0,1,.23.32V19.3A.41.41,0,0,0,31,19a1.23,1.23,0,0,0-1.12,0,.39.39,0,0,0-.23.33v1.29A.41.41,0,0,1,29.88,20.27Z"/><path class="cls-21" d="M38.59,20.27a1.23,1.23,0,0,1,1.12,0,.39.39,0,0,1,.23.32V19.3A.39.39,0,0,0,39.7,19a1.23,1.23,0,0,0-1.12,0,.41.41,0,0,0-.23.33v1.29A.4.4,0,0,1,38.59,20.27Z"/><path class="cls-21" d="M34.23,21.31a1.16,1.16,0,0,1,.56-.13c.44,0,.79.2.79.45v-1.3c0-.25-.36-.45-.79-.45a1.12,1.12,0,0,0-.57.14.39.39,0,0,0-.23.32v1.3A.38.38,0,0,1,34.23,21.31Z"/><path class="cls-47" d="M40.44,21.34a4,4,0,0,0,2.34-3.27v-1.3c0,1.19-.78,2.37-2.35,3.28a12.41,12.41,0,0,1-11.23,0c-1.54-.9-2.31-2.06-2.31-3.23v1.29a3.93,3.93,0,0,0,2.3,3.23A12.37,12.37,0,0,0,40.44,21.34Z"/><path class="cls-48" d="M40.43,20.05c3.11-1.8,3.13-4.71,0-6.51a12.35,12.35,0,0,0-11.23,0c-3.12,1.8-3.13,4.71,0,6.51A12.41,12.41,0,0,0,40.43,20.05Zm-.73-.43a1.23,1.23,0,0,1-1.12,0,.34.34,0,0,1,0-.65,1.23,1.23,0,0,1,1.12,0A.34.34,0,0,1,39.7,19.62Zm2-2.84a.4.4,0,0,1-.23.32,1.06,1.06,0,0,1-.56.14c-.44,0-.8-.21-.79-.46a.38.38,0,0,1,.23-.33,1.16,1.16,0,0,1,.56-.13C41.4,16.32,41.76,16.52,41.75,16.78Zm-3.14-2.85a1.23,1.23,0,0,1,1.12,0,.34.34,0,0,1,0,.65,1.23,1.23,0,0,1-1.12,0A.34.34,0,0,1,38.61,13.93ZM34,13.21a.39.39,0,0,1,.23-.32,1.11,1.11,0,0,1,.56-.14c.45,0,.8.21.8.46a.41.41,0,0,1-.24.33,1.16,1.16,0,0,1-.56.13C34.38,13.67,34,13.47,34,13.21Zm-4.13.72a1.25,1.25,0,0,1,1.13,0,.34.34,0,0,1,0,.65,1.25,1.25,0,0,1-1.13,0A.35.35,0,0,1,29.9,13.93Zm1.58.91a7.46,7.46,0,0,1,6.73,0c1.85,1.08,1.85,2.83,0,3.91a7.48,7.48,0,0,1-6.74,0C29.6,17.67,29.61,15.92,31.48,14.84Zm-3.62,1.94a.4.4,0,0,1,.23-.33,1.16,1.16,0,0,1,.56-.13c.44,0,.8.2.79.46a.4.4,0,0,1-.23.32,1.08,1.08,0,0,1-.56.14C28.21,17.24,27.85,17,27.86,16.78ZM34,20.34a.39.39,0,0,1,.23-.32,1.12,1.12,0,0,1,.57-.14c.44,0,.79.21.79.46a.41.41,0,0,1-.24.33,1.16,1.16,0,0,1-.56.13C34.34,20.8,34,20.6,34,20.34ZM29.88,19A1.23,1.23,0,0,1,31,19a.34.34,0,0,1,0,.65,1.23,1.23,0,0,1-1.12,0A.34.34,0,0,1,29.88,19Z"/><path class="cls-49" d="M34.86,12.29a11.26,11.26,0,0,1,5.56,1.34,3.85,3.85,0,0,1,2.26,3.15A3.9,3.9,0,0,1,40.38,20a11.33,11.33,0,0,1-5.57,1.33A11.26,11.26,0,0,1,29.25,20,3.85,3.85,0,0,1,27,16.81a3.88,3.88,0,0,1,2.3-3.18,11.33,11.33,0,0,1,5.57-1.34m0-.1a11.45,11.45,0,0,0-5.62,1.35c-3.12,1.8-3.13,4.71,0,6.51a11.41,11.41,0,0,0,5.61,1.34,11.48,11.48,0,0,0,5.62-1.34c3.11-1.8,3.13-4.71,0-6.51a11.41,11.41,0,0,0-5.61-1.35Z"/></g><path class="cls-50" d="M128.22,120.38a2.36,2.36,0,0,1-.38-.1,9,9,0,0,0,4.37.32,14,14,0,0,0,4.84-1.73,23.72,23.72,0,0,0,6.89-6.05,29.57,29.57,0,0,0,5-9.35,20.89,20.89,0,0,0,.92-9.13,13.77,13.77,0,0,0-1-3.35,12.47,12.47,0,0,0-.9-1.59,7.74,7.74,0,0,0-.61-.75,8.27,8.27,0,0,1,.54.74,7.09,7.09,0,0,0-.56-.76l0,0-.07-.1s0,0-.05,0a6.82,6.82,0,0,0-.59-.61l.42.43c-2.38-2.57-6.32-2.93-10.81-.43-7.39,4.12-13.47,14.41-13.58,23C122.63,116.11,124.82,119.49,128.22,120.38Z"/></g></g></g></g></g></svg>