<?xml version="1.0" encoding="UTF-8"?>
<svg id="_图层_2" data-name="图层 2" xmlns="http://www.w3.org/2000/svg" xmlns:xlink="http://www.w3.org/1999/xlink" viewBox="0 0 150.14 150.03">
  <defs>
    <style>
      .cls-1 {
        fill: url(#_未命名的渐变_13);
      }

      .cls-1, .cls-2, .cls-3, .cls-4, .cls-5, .cls-6, .cls-7, .cls-8, .cls-9, .cls-10, .cls-11, .cls-12, .cls-13, .cls-14, .cls-15, .cls-16, .cls-17, .cls-18, .cls-19 {
        stroke-width: 0px;
      }

      .cls-2 {
        fill: url(#_未命名的渐变_10);
      }

      .cls-3 {
        fill: url(#_未命名的渐变_19);
      }

      .cls-4 {
        fill: url(#_未命名的渐变_21);
      }

      .cls-5 {
        fill: url(#_未命名的渐变_88);
      }

      .cls-6 {
        fill: url(#_未命名的渐变_47);
      }

      .cls-7 {
        fill: url(#_未命名的渐变_40);
      }

      .cls-8 {
        fill: url(#_未命名的渐变_55);
      }

      .cls-9, .cls-20 {
        fill: none;
      }

      .cls-20 {
        stroke: #fff;
        stroke-miterlimit: 10;
        stroke-width: .1px;
      }

      .cls-10 {
        fill: url(#_未命名的渐变_47-2);
      }

      .cls-11 {
        fill: url(#_未命名的渐变_88-2);
      }

      .cls-12 {
        fill: url(#_未命名的渐变_21-2);
      }

      .cls-13 {
        fill: url(#_新建图案);
        opacity: .1;
      }

      .cls-21 {
        opacity: .2;
      }

      .cls-14 {
        fill: url(#_未命名的渐变_4);
      }

      .cls-22 {
        isolation: isolate;
      }

      .cls-15 {
        fill: url(#_未命名的渐变_4-3);
      }

      .cls-16 {
        fill: url(#_未命名的渐变_4-2);
      }

      .cls-17 {
        fill: url(#_未命名的渐变_200);
      }

      .cls-23 {
        opacity: 0;
      }

      .cls-18 {
        fill: #4a5f7b;
      }

      .cls-19 {
        fill: #000715;
      }
    </style>
    <pattern id="_新建图案" data-name="新建图案" x="0" y="0" width="18.57" height="32.16" patternTransform="translate(3884.69 1856.24)" patternUnits="userSpaceOnUse" viewBox="0 0 18.57 32.16">
      <g>
        <rect class="cls-9" x="0" y="0" width="18.57" height="32.16"/>
        <g>
          <g>
            <polyline class="cls-20" points="18.57 21.44 18.57 32.16 18.57 42.88"/>
            <polyline class="cls-20" points="9.29 26.8 18.57 32.16 27.85 37.51 27.85 37.52"/>
            <polyline class="cls-20" points="9.29 37.52 9.29 37.51 18.57 32.16 27.85 26.8"/>
          </g>
          <polygon class="cls-20" points="27.85 37.52 27.85 26.8 18.57 21.44 9.28 26.8 9.28 37.52 18.57 42.88 27.85 37.52"/>
        </g>
        <g>
          <g>
            <polyline class="cls-20" points="0 21.44 0 32.16 0 42.88"/>
            <polyline class="cls-20" points="-9.28 26.8 0 32.16 9.28 37.51 9.28 37.52"/>
            <polyline class="cls-20" points="-9.28 37.52 -9.28 37.51 0 32.16 9.28 26.8"/>
          </g>
          <polygon class="cls-20" points="9.28 37.52 9.28 26.8 0 21.44 -9.28 26.8 -9.28 37.52 0 42.88 9.28 37.52"/>
        </g>
        <g>
          <g>
            <polyline class="cls-20" points="18.57 10.72 27.85 16.08 37.13 21.43 37.13 21.44"/>
            <polyline class="cls-20" points="18.57 21.44 18.57 21.43 27.85 16.08 37.13 10.72"/>
          </g>
          <polygon class="cls-20" points="37.14 21.44 37.14 10.72 27.85 5.36 18.57 10.72 18.57 21.44 27.85 26.8 37.14 21.44"/>
        </g>
        <g>
          <g>
            <polyline class="cls-20" points="9.28 5.36 9.28 16.08 9.28 26.8"/>
            <polyline class="cls-20" points="0 10.72 9.28 16.08 18.56 21.43 18.56 21.44"/>
            <polyline class="cls-20" points="0 21.44 0 21.43 9.28 16.08 18.56 10.72"/>
          </g>
          <polygon class="cls-20" points="18.57 21.44 18.57 10.72 9.28 5.36 0 10.72 0 21.44 9.28 26.8 18.57 21.44"/>
        </g>
        <g>
          <g>
            <polyline class="cls-20" points="-18.56 10.72 -9.28 16.08 0 21.43 0 21.44"/>
            <polyline class="cls-20" points="-18.56 21.44 -18.56 21.43 -9.28 16.08 0 10.72"/>
          </g>
          <polygon class="cls-20" points="0 21.44 0 10.72 -9.28 5.36 -18.57 10.72 -18.57 21.44 -9.28 26.8 0 21.44"/>
        </g>
        <g>
          <g>
            <polyline class="cls-20" points="18.57 -10.72 18.57 0 18.57 10.72"/>
            <polyline class="cls-20" points="9.29 -5.36 18.57 0 27.85 5.35 27.85 5.36"/>
            <polyline class="cls-20" points="9.29 5.36 9.29 5.35 18.57 0 27.85 -5.36"/>
          </g>
          <polygon class="cls-20" points="27.85 5.36 27.85 -5.36 18.57 -10.72 9.28 -5.36 9.28 5.36 18.57 10.72 27.85 5.36"/>
        </g>
        <g>
          <g>
            <polyline class="cls-20" points="0 -10.72 0 0 0 10.72"/>
            <polyline class="cls-20" points="-9.28 -5.36 0 0 9.28 5.35 9.28 5.36"/>
            <polyline class="cls-20" points="-9.28 5.36 -9.28 5.35 0 0 9.28 -5.36"/>
          </g>
          <polygon class="cls-20" points="9.28 5.36 9.28 -5.36 0 -10.72 -9.28 -5.36 -9.28 5.36 0 10.72 9.28 5.36"/>
        </g>
      </g>
    </pattern>
    <linearGradient id="_未命名的渐变_21" data-name="未命名的渐变 21" x1="46.49" y1="86.19" x2="103.65" y2="86.19" gradientUnits="userSpaceOnUse">
      <stop offset="0" stop-color="#35455c"/>
      <stop offset=".15" stop-color="#7497d0"/>
      <stop offset=".25" stop-color="#7497d0"/>
      <stop offset=".9" stop-color="#11161a"/>
      <stop offset="1" stop-color="#263141"/>
    </linearGradient>
    <radialGradient id="_未命名的渐变_40" data-name="未命名的渐变 40" cx="62.38" cy="18.36" fx="62.38" fy="18.36" r="28.12" gradientUnits="userSpaceOnUse">
      <stop offset="0" stop-color="#7497d0"/>
      <stop offset=".89" stop-color="#263141"/>
      <stop offset="1" stop-color="#1c252f"/>
    </radialGradient>
    <linearGradient id="_未命名的渐变_47" data-name="未命名的渐变 47" x1="135.39" y1="133.45" x2="131.68" y2="139.88" gradientTransform="translate(190.97) rotate(-180) scale(1 -1)" gradientUnits="userSpaceOnUse">
      <stop offset="0" stop-color="#35455c"/>
      <stop offset=".15" stop-color="#7495ce"/>
      <stop offset=".25" stop-color="#7495ce"/>
      <stop offset=".9" stop-color="#11161a"/>
      <stop offset="1" stop-color="#263141"/>
    </linearGradient>
    <linearGradient id="_未命名的渐变_88" data-name="未命名的渐变 88" x1="138.21" y1="135.96" x2="132.39" y2="139.33" gradientTransform="translate(190.97) rotate(-180) scale(1 -1)" gradientUnits="userSpaceOnUse">
      <stop offset="0" stop-color="#263141"/>
      <stop offset="1" stop-color="#11161a"/>
    </linearGradient>
    <linearGradient id="_未命名的渐变_88-2" data-name="未命名的渐变 88" x1="164.49" y1="-58.32" x2="169.08" y2="-58.32" gradientTransform="translate(205.95 229.86) rotate(-167.85) scale(1 -1)" xlink:href="#_未命名的渐变_88"/>
    <linearGradient id="_未命名的渐变_47-2" data-name="未命名的渐变 47" x1="167.13" y1="-61.97" x2="163.47" y2="-55.1" gradientTransform="translate(205.95 229.86) rotate(-167.85) scale(1 -1)" xlink:href="#_未命名的渐变_47"/>
    <linearGradient id="_未命名的渐变_200" data-name="未命名的渐变 200" x1="132.7" y1="221.52" x2="137.84" y2="221.52" gradientTransform="translate(170.31 -94.87) rotate(174.89) scale(1 -1)" gradientUnits="userSpaceOnUse">
      <stop offset="0" stop-color="#3e5268"/>
      <stop offset="0" stop-color="#3e5268"/>
      <stop offset="1" stop-color="#556b8c"/>
    </linearGradient>
    <linearGradient id="_未命名的渐变_55" data-name="未命名的渐变 55" x1="61.13" y1="5.88" x2="70.53" y2="5.88" gradientUnits="userSpaceOnUse">
      <stop offset="0" stop-color="#263141"/>
      <stop offset=".1" stop-color="#11161a"/>
      <stop offset=".75" stop-color="#7497d0"/>
      <stop offset=".85" stop-color="#7497d0"/>
      <stop offset="1" stop-color="#35455c"/>
    </linearGradient>
    <linearGradient id="_未命名的渐变_21-2" data-name="未命名的渐变 21" x1="59.95" y1="8.92" x2="71.71" y2="8.92" xlink:href="#_未命名的渐变_21"/>
    <linearGradient id="_未命名的渐变_13" data-name="未命名的渐变 13" x1="59.97" y1="3.4" x2="71.71" y2="3.4" gradientUnits="userSpaceOnUse">
      <stop offset="0" stop-color="#81aaea"/>
      <stop offset="1" stop-color="#4d709c"/>
    </linearGradient>
    <linearGradient id="_未命名的渐变_10" data-name="未命名的渐变 10" x1="63.68" y1="50.37" x2="85.59" y2="50.37" gradientUnits="userSpaceOnUse">
      <stop offset="0" stop-color="#263141"/>
      <stop offset="1" stop-color="#11161a"/>
    </linearGradient>
    <linearGradient id="_未命名的渐变_19" data-name="未命名的渐变 19" x1="74.64" y1="57.55" x2="74.64" y2="43.2" gradientUnits="userSpaceOnUse">
      <stop offset="0" stop-color="#4cf9fd" stop-opacity=".8"/>
      <stop offset=".03" stop-color="#47f0fd" stop-opacity=".74"/>
      <stop offset=".11" stop-color="#3cd8fd" stop-opacity=".56"/>
      <stop offset=".19" stop-color="#33c3fd" stop-opacity=".41"/>
      <stop offset=".28" stop-color="#2bb2fe" stop-opacity=".28"/>
      <stop offset=".38" stop-color="#24a3fe" stop-opacity=".18"/>
      <stop offset=".49" stop-color="#1f98fe" stop-opacity=".1"/>
      <stop offset=".61" stop-color="#1b90fe" stop-opacity=".04"/>
      <stop offset=".76" stop-color="#198cfe" stop-opacity="0"/>
      <stop offset="1" stop-color="#198bff" stop-opacity="0"/>
    </linearGradient>
    <linearGradient id="_未命名的渐变_4" data-name="未命名的渐变 4" x1="51.26" y1="77.14" x2="66.67" y2="77.14" gradientUnits="userSpaceOnUse">
      <stop offset="0" stop-color="#10243b" stop-opacity=".6"/>
      <stop offset=".03" stop-color="#10243b" stop-opacity=".6"/>
      <stop offset="1" stop-color="#10243b" stop-opacity=".6"/>
    </linearGradient>
    <linearGradient id="_未命名的渐变_4-2" data-name="未命名的渐变 4" x1="67.72" y1="75.17" x2="82.36" y2="75.17" xlink:href="#_未命名的渐变_4"/>
    <linearGradient id="_未命名的渐变_4-3" data-name="未命名的渐变 4" x1="83.48" y1="72.9" x2="98.88" y2="72.9" xlink:href="#_未命名的渐变_4"/>
  </defs>
  <g id="_涂层" data-name="涂层">
    <g id="_化工罐" data-name="化工罐">
      <g id="_背景" data-name="背景" class="cls-23">
        <rect class="cls-19" y=".03" width="150" height="150"/>
        <rect id="_网格" data-name="网格" class="cls-13" x=".14" width="150" height="150"/>
      </g>
      <g>
        <path class="cls-4" d="m103.65,22.52l-.32,111.14c-.01,4.19-2.76,8.36-8.26,11.56-11.06,6.43-29.06,6.43-40.19,0-5.6-3.23-8.4-7.48-8.39-11.72l.32-111.14c-.01,4.24,2.79,8.49,8.39,11.72,11.13,6.43,29.13,6.42,40.19,0,5.5-3.19,8.25-7.37,8.26-11.56Z"/>
        <path class="cls-7" d="m103.19,21.54c-1.71-4.85-7.47-11.54-18.1-14.41-6.26-1.69-11.84-1.3-12.89-1.21-6.09.55-9.45,1.69-13.52,3.59-7.43,3.87-10.45,8.6-11.68,11.88-1.63,4.54.89,9.41,7.6,12.99,11,5.86,29.08,6.02,40.39.36,7.09-3.55,9.84-8.54,8.2-13.22Z"/>
        <g>
          <path class="cls-6" d="m55.51,133.56c.47-.28,1.13-.24,1.86.18,1.44.83,2.61,2.85,2.6,4.51,0,.82-.29,1.4-.76,1.67l-1.69.9c.47-.27.76-.85.76-1.67,0-1.66-1.16-3.68-2.6-4.51-.73-.42-1.38-.46-1.86-.18l1.69-.9Z"/>
          <path class="cls-5" d="m55.68,134.64c-1.44-.83-2.62-.16-2.62,1.49s1.16,3.68,2.6,4.51,2.62.16,2.62-1.49-1.16-3.68-2.6-4.51Z"/>
          <g class="cls-22">
            <path class="cls-11" d="m53.26,135.77s.01-.03.02-.05c0-.03.02-.06.03-.09,0-.02.01-.04.02-.06,0-.02.02-.05.03-.07,0-.02.02-.05.03-.07.02-.05.04-.09.07-.13,0-.02.02-.03.02-.05.03-.06.07-.11.11-.16,0-.01.02-.02.03-.03.03-.04.06-.07.09-.11.01-.01.03-.03.04-.04.03-.03.06-.05.09-.07.02-.01.03-.02.05-.04.03-.02.06-.04.1-.06.02,0,.03-.02.05-.03.05-.02.1-.05.15-.06l.43-.14c-.05.02-.1.04-.15.06-.02,0-.03.02-.05.03-.03.02-.07.04-.1.06-.02.01-.03.02-.05.04-.03.02-.06.05-.09.07-.01.01-.03.03-.04.04-.03.03-.06.07-.09.11,0,.01-.02.02-.03.03-.04.05-.07.1-.11.16,0,.01-.02.03-.02.05-.02.04-.05.09-.07.13-.01.02-.02.05-.03.07-.02.04-.03.09-.05.13,0,.03-.02.06-.03.09-.02.07-.04.13-.05.2-.02.08-.03.17-.04.26,0,.01,0,.02,0,.03-.01.09-.02.17-.02.26,0,0,0,.01,0,.02,0,.09,0,.19,0,.28,0,0,0,0,0,.01,0,.09,0,.19.02.28,0,0,0,.02,0,.03,0,.09.02.19.04.28,0,0,0,0,0,.01.02.1.03.2.06.3,0,0,0,.01,0,.02.02.09.04.19.07.28,0,0,0,.02,0,.03.03.09.05.18.08.27,0,.01,0,.02.01.03.03.09.06.17.1.26,0,.02.01.04.02.06.03.07.06.14.09.21.01.02.02.05.03.07.01.02.02.04.03.06.05.1.1.2.15.29.02.03.04.07.06.1.05.09.11.18.17.27.01.02.03.04.04.06.07.09.13.18.2.27.06.08.13.15.19.22,0,0,.01.01.02.02.06.07.13.13.19.19.07.07.15.13.22.18,0,0,0,0,.01.01.07.05.14.1.21.14,0,0,0,0,0,0,.07.04.14.08.21.11,0,0,.01,0,.02,0,.07.03.13.06.2.08,0,0,.01,0,.02,0,.07.02.13.04.19.05,0,0,0,0,.01,0,.07.01.13.02.2.02,0,0,0,0,0,0,.06,0,.13,0,.19-.01,0,0,0,0,.01,0,.06,0,.12-.02.18-.04h0s0,0,0,0h0s-.43.14-.43.14c0,0,0,0,0,0-.03.01-.07.02-.1.03-.02,0-.05,0-.08.01,0,0,0,0-.01,0,0,0,0,0,0,0-.03,0-.06,0-.09,0-.03,0-.06,0-.09,0,0,0,0,0,0,0,0,0,0,0,0,0-.03,0-.06,0-.09,0-.03,0-.06,0-.09-.01,0,0,0,0-.01,0,0,0,0,0-.01,0-.02,0-.04,0-.07-.01-.03,0-.06-.01-.09-.02-.01,0-.02,0-.03-.01,0,0-.01,0-.02,0-.01,0-.03,0-.04-.01-.03-.01-.06-.02-.1-.04-.02,0-.04-.02-.06-.03,0,0-.01,0-.02,0,0,0-.01,0-.02,0-.03-.02-.07-.03-.1-.05-.03-.02-.06-.03-.09-.05,0,0,0,0,0,0,0,0,0,0,0,0-.04-.02-.07-.05-.11-.07-.03-.02-.06-.04-.09-.07,0,0,0,0-.01-.01,0,0,0,0,0,0-.04-.03-.09-.07-.13-.1-.03-.02-.06-.05-.08-.07-.02-.02-.04-.04-.06-.05-.05-.04-.09-.09-.13-.13,0,0-.01-.01-.02-.02,0,0,0,0,0,0-.06-.07-.12-.14-.18-.21,0,0,0,0,0,0-.07-.09-.14-.18-.2-.27,0,0,0,0-.01-.02-.01-.02-.02-.03-.03-.05-.06-.09-.11-.18-.17-.27-.02-.03-.04-.07-.06-.1-.05-.1-.1-.19-.15-.29,0-.02-.02-.03-.02-.05,0,0,0-.01,0-.02-.01-.02-.02-.05-.03-.07-.02-.05-.05-.1-.07-.15,0-.02-.02-.04-.02-.06,0-.02-.01-.04-.02-.05,0-.02-.02-.05-.03-.07-.02-.05-.04-.1-.06-.15,0-.01,0-.02-.01-.04,0-.01,0-.02-.01-.03,0-.03-.02-.05-.03-.08-.01-.05-.03-.09-.04-.14,0-.02-.01-.04-.02-.06,0,0,0-.02,0-.03,0-.02,0-.03-.01-.05-.01-.05-.02-.09-.03-.14,0-.03-.01-.06-.02-.1,0,0,0-.01,0-.02,0,0,0-.01,0-.02,0-.04-.02-.09-.03-.13,0-.04-.02-.09-.02-.13,0,0,0,0,0-.01,0,0,0,0,0-.01,0-.03-.01-.07-.01-.1,0-.04-.01-.09-.02-.13,0-.02,0-.03,0-.05,0,0,0-.02,0-.03,0-.02,0-.03,0-.05,0-.04,0-.08,0-.13,0-.04,0-.07,0-.11,0,0,0,0,0-.01,0,0,0,0,0,0,0-.04,0-.08,0-.13,0-.04,0-.09,0-.13,0,0,0-.01,0-.02,0,0,0-.01,0-.02,0-.03,0-.06,0-.09,0-.05,0-.09.01-.14,0-.01,0-.02,0-.03,0-.01,0-.02,0-.03,0-.03,0-.05.01-.08,0-.05.02-.1.03-.15,0,0,0-.01,0-.02.01-.05.02-.1.04-.15Z"/>
            <path class="cls-10" d="m57.08,141.56s.04-.03.06-.04c.04-.03.07-.06.11-.09.02-.02.04-.03.05-.05.04-.04.08-.09.12-.13.01-.01.02-.02.03-.04.05-.06.09-.13.13-.2.01-.02.02-.04.03-.06.03-.05.06-.11.09-.17.01-.03.02-.06.04-.08.02-.05.04-.11.06-.17.01-.04.02-.07.04-.11.02-.08.05-.17.07-.25.02-.1.04-.21.05-.32,0-.01,0-.03,0-.04.01-.11.02-.22.03-.33,0,0,0-.02,0-.02,0-.12,0-.24,0-.36,0,0,0,0,0-.01,0-.12-.01-.23-.02-.35,0-.01,0-.02,0-.03-.01-.12-.03-.23-.04-.35,0,0,0-.01,0-.02-.02-.12-.04-.25-.07-.37,0,0,0-.02,0-.02-.03-.12-.05-.24-.09-.35,0-.01,0-.02-.01-.04-.03-.11-.07-.23-.1-.34,0-.01,0-.03-.01-.04-.04-.11-.08-.22-.12-.32,0-.02-.02-.05-.03-.07-.04-.09-.07-.17-.11-.26-.01-.03-.03-.06-.04-.09-.01-.03-.03-.05-.04-.08-.06-.12-.12-.24-.19-.36-.02-.04-.05-.08-.07-.12-.07-.11-.14-.22-.21-.33-.02-.03-.03-.05-.05-.08-.08-.12-.17-.23-.25-.34-.08-.09-.16-.19-.24-.27,0,0-.02-.02-.02-.02-.08-.08-.16-.16-.24-.24-.09-.08-.18-.16-.27-.23,0,0-.01,0-.02-.01-.09-.07-.18-.12-.26-.18,0,0,0,0-.01,0-.09-.05-.17-.1-.26-.14,0,0-.01,0-.02,0-.08-.04-.16-.07-.25-.1,0,0-.02,0-.03,0-.08-.03-.16-.05-.24-.06,0,0-.01,0-.02,0-.08-.01-.17-.02-.25-.02,0,0,0,0,0,0-.08,0-.16,0-.24.01,0,0-.01,0-.02,0-.08.01-.15.03-.22.05,0,0,0,0,0,0l.2-.07.23-.07s0,0,0,0c.04-.01.08-.03.13-.04.03,0,.06-.01.09-.02,0,0,.01,0,.02,0,0,0,0,0,.01,0,.04,0,.08,0,.12-.01.04,0,.07,0,.11,0,0,0,0,0,0,0,0,0,0,0,0,0,.04,0,.08,0,.12,0,.04,0,.08,0,.12.01,0,0,.01,0,.02,0,0,0,.01,0,.02,0,.03,0,.06,0,.08.02.04,0,.08.02.12.03.01,0,.03,0,.04.01,0,0,.02,0,.03,0,.02,0,.03,0,.05.02.04.01.08.03.12.05.03.01.05.02.08.03,0,0,.01,0,.02,0,0,0,.02,0,.02.01.04.02.08.04.13.06.04.02.07.04.11.06,0,0,0,0,.01,0,0,0,0,0,0,0,.05.03.09.06.14.09.04.03.08.06.12.09,0,0,.01,0,.02.01,0,0,0,0,.01,0,.05.04.11.08.16.13.03.03.07.06.1.09.02.02.05.04.07.07.06.05.11.11.17.17,0,0,.02.02.02.02,0,0,0,0,0,0,.08.08.15.17.23.26,0,0,0,0,0,0,.09.11.17.22.25.34,0,0,0,.01.01.02.01.02.03.04.04.06.07.11.14.22.21.33.02.04.05.08.07.12.07.12.13.24.19.36,0,.02.02.04.03.06,0,0,0,.02.01.02.01.03.03.06.04.09.03.06.06.12.08.19.01.02.02.05.03.07,0,.02.02.05.03.07.01.03.02.06.03.08.02.06.05.13.07.19,0,.02.01.03.02.05,0,.01,0,.03.01.04.01.03.02.06.03.09.02.06.04.12.05.18,0,.02.01.05.02.07,0,.01,0,.03.01.04,0,.02.01.04.02.06.01.06.03.11.04.17,0,.04.02.08.03.12,0,0,0,.02,0,.02,0,0,0,.02,0,.02.01.06.02.11.03.17.01.05.02.11.03.16,0,0,0,.01,0,.02,0,0,0,.01,0,.02,0,.04.01.08.02.13,0,.05.01.11.02.16,0,.02,0,.04,0,.07,0,.01,0,.02,0,.03,0,.02,0,.04,0,.06,0,.05,0,.11.01.16,0,.04,0,.09,0,.13,0,0,0,0,0,.01,0,0,0,0,0,.01,0,.05,0,.11,0,.16,0,.05,0,.11,0,.16,0,0,0,.01,0,.02,0,0,0,.02,0,.03,0,.04,0,.08,0,.12,0,.06,0,.12-.02.17,0,.01,0,.02,0,.04,0,.01,0,.03,0,.04,0,.03,0,.07-.01.1-.01.06-.02.13-.04.19,0,0,0,.02,0,.03-.01.07-.03.13-.05.19,0,.02-.01.04-.02.06-.01.04-.02.07-.04.11,0,.03-.02.05-.03.08-.01.03-.02.06-.04.09-.01.03-.02.06-.04.09-.03.06-.06.11-.09.17-.01.02-.02.04-.03.06-.04.07-.09.14-.13.2-.01.01-.02.02-.03.04-.04.05-.08.09-.12.13-.02.02-.04.03-.05.05-.04.03-.07.06-.11.09-.02.02-.04.03-.06.05-.04.03-.08.05-.12.08-.02.01-.04.02-.06.03-.06.03-.12.06-.19.08,0,0,0,0,0,0l-.43.14c.06-.02.13-.05.19-.08.02,0,.04-.02.06-.03.04-.02.08-.05.12-.08Z"/>
            <path class="cls-17" d="m57.9,140.17c-.39,1.79-1.87,2.19-3.31.89s-2.28-3.8-1.89-5.59c.39-1.79,1.87-2.19,3.31-.89s2.28,3.8,1.89,5.6Zm-3.17.24c1.15,1.04,2.34.72,2.65-.71s-.37-3.44-1.52-4.48-2.34-.72-2.65.71.37,3.44,1.52,4.48"/>
          </g>
        </g>
        <g class="cls-22">
          <path class="cls-8" d="m69.14,1.48c-1.84-1.06-4.81-1.06-6.63,0-.91.53-1.36,1.22-1.36,1.91l-.02,7.66c0-.69.46-1.38,1.36-1.91,1.82-1.06,4.8-1.06,6.63,0,.93.54,1.39,1.24,1.39,1.94l.02-7.66c0-.7-.46-1.4-1.39-1.94Z"/>
          <path class="cls-12" d="m70,5.8c-2.29,1.33-6.01,1.33-8.31,0-1.15-.67-1.73-1.54-1.73-2.42l-.02,7.66c0,.88.57,1.75,1.73,2.42,2.3,1.33,6.02,1.33,8.31,0,1.14-.66,1.7-1.52,1.71-2.39l.02-7.66c0,.87-.57,1.73-1.71,2.39Z"/>
          <path class="cls-1" d="m69.98.99c-2.29-1.32-6.01-1.32-8.3,0-2.29,1.33-2.27,3.48.02,4.81,2.3,1.33,6.02,1.33,8.31,0,2.29-1.33,2.27-3.48-.03-4.81Zm-.8,4.33c-1.82,1.06-4.8,1.06-6.64,0-1.84-1.06-1.85-2.78-.02-3.84s4.8-1.06,6.63,0c1.84,1.06,1.85,2.79.03,3.85Z"/>
        </g>
        <path class="cls-2" d="m63.68,56.21c6.98,1.73,14.91,1.78,21.91.13v-13.01c-7.01,1.65-14.93,1.6-21.91-.13v13.01Z"/>
        <path class="cls-2" d="m63.68,56.21c6.98,1.73,14.91,1.78,21.91.13v-13.01c-7.01,1.65-14.93,1.6-21.91-.13v13.01Z"/>
        <path class="cls-18" d="m63.68,54.7v1.74c6.98,1.73,14.91,1.78,21.91.13v-1.74c-7.01,1.65-14.93,1.6-21.91-.13Z"/>
        <path class="cls-3" d="m63.68,56.21c6.98,1.73,14.91,1.78,21.91.13v-13.01c-7.01,1.65-14.93,1.6-21.91-.13v13.01Z"/>
      </g>
    </g>
  </g>
</svg>