<?xml version="1.0" encoding="UTF-8"?>
<svg xmlns="http://www.w3.org/2000/svg" xmlns:xlink="http://www.w3.org/1999/xlink" viewBox="0 0 150.14 150.54">
  <defs>
    <style>
      .cls-1 {
        fill: url(#_未命名的渐变_13);
      }

      .cls-1, .cls-2, .cls-3, .cls-4, .cls-5, .cls-6, .cls-7, .cls-8, .cls-9, .cls-10, .cls-11, .cls-12, .cls-13, .cls-14, .cls-15, .cls-16, .cls-17, .cls-18, .cls-19, .cls-20, .cls-21, .cls-22, .cls-23, .cls-24, .cls-25, .cls-26, .cls-27, .cls-28, .cls-29, .cls-30, .cls-31, .cls-32, .cls-33, .cls-34, .cls-35, .cls-36, .cls-37, .cls-38, .cls-39, .cls-40, .cls-41, .cls-42 {
        stroke-width: 0px;
      }

      .cls-2 {
        fill: url(#_未命名的渐变_21);
      }

      .cls-3 {
        fill: url(#_未命名的渐变_46);
      }

      .cls-4 {
        fill: url(#_未命名的渐变_56);
      }

      .cls-5, .cls-43 {
        fill: none;
      }

      .cls-6 {
        fill: url(#_未命名的渐变_319-14);
      }

      .cls-7 {
        fill: url(#_未命名的渐变_319-13);
      }

      .cls-8 {
        fill: url(#_未命名的渐变_319-11);
      }

      .cls-9 {
        fill: url(#_未命名的渐变_319-10);
      }

      .cls-10 {
        fill: url(#_未命名的渐变_319-12);
      }

      .cls-11 {
        fill: url(#_未命名的渐变_322-13);
      }

      .cls-12 {
        fill: url(#_未命名的渐变_322-12);
      }

      .cls-13 {
        fill: url(#_未命名的渐变_322-14);
      }

      .cls-14 {
        fill: url(#_未命名的渐变_322-11);
      }

      .cls-15 {
        fill: url(#_未命名的渐变_322-10);
      }

      .cls-43 {
        stroke: #fff;
        stroke-miterlimit: 10;
        stroke-width: .1px;
      }

      .cls-16 {
        fill: url(#_未命名的渐变_56-2);
      }

      .cls-17 {
        fill: url(#_未命名的渐变_56-3);
      }

      .cls-18 {
        fill: url(#_未命名的渐变_46-2);
      }

      .cls-19 {
        fill: url(#_未命名的渐变_322-3);
      }

      .cls-20 {
        fill: url(#_未命名的渐变_322-9);
      }

      .cls-21 {
        fill: url(#_未命名的渐变_322-8);
      }

      .cls-22 {
        fill: url(#_未命名的渐变_322-7);
      }

      .cls-23 {
        fill: url(#_未命名的渐变_322-4);
      }

      .cls-24 {
        fill: url(#_未命名的渐变_322-2);
      }

      .cls-25 {
        fill: url(#_未命名的渐变_322-5);
      }

      .cls-26 {
        fill: url(#_未命名的渐变_322-6);
      }

      .cls-27 {
        fill: url(#_未命名的渐变_319-7);
      }

      .cls-28 {
        fill: url(#_未命名的渐变_319-5);
      }

      .cls-29 {
        fill: url(#_未命名的渐变_319-4);
      }

      .cls-30 {
        fill: url(#_未命名的渐变_319-6);
      }

      .cls-31 {
        fill: url(#_未命名的渐变_319-3);
      }

      .cls-32 {
        fill: url(#_未命名的渐变_319-2);
      }

      .cls-33 {
        fill: url(#_未命名的渐变_319-8);
      }

      .cls-34 {
        fill: url(#_未命名的渐变_319-9);
      }

      .cls-35 {
        fill: url(#_新建图案);
        opacity: .1;
      }

      .cls-44 {
        mix-blend-mode: soft-light;
      }

      .cls-45 {
        opacity: .2;
      }

      .cls-36 {
        fill: url(#_未命名的渐变_9);
      }

      .cls-46 {
        isolation: isolate;
      }

      .cls-37 {
        fill: url(#_未命名的渐变_9-2);
      }

      .cls-38 {
        fill: url(#_未命名的渐变_322);
      }

      .cls-39 {
        fill: url(#_未命名的渐变_319);
      }

      .cls-47 {
        mix-blend-mode: multiply;
        opacity: .45;
      }

      .cls-48 {
        opacity: 0;
      }

      .cls-40 {
        fill: #e2edff;
      }

      .cls-41 {
        fill: #000714;
      }

      .cls-42 {
        fill: #000715;
      }
    </style>
    <pattern id="_新建图案" data-name="新建图案" x="0" y="0" width="18.57" height="32.16" patternTransform="translate(3327.62 1856.5)" patternUnits="userSpaceOnUse" viewBox="0 0 18.57 32.16">
      <g>
        <rect class="cls-5" x="0" y="0" width="18.57" height="32.16"/>
        <g>
          <g>
            <polyline class="cls-43" points="18.57 21.44 18.57 32.16 18.57 42.88"/>
            <polyline class="cls-43" points="9.29 26.8 18.57 32.16 27.85 37.51 27.85 37.52"/>
            <polyline class="cls-43" points="9.29 37.52 9.29 37.51 18.57 32.16 27.85 26.8"/>
          </g>
          <polygon class="cls-43" points="27.85 37.52 27.85 26.8 18.57 21.44 9.28 26.8 9.28 37.52 18.57 42.88 27.85 37.52"/>
        </g>
        <g>
          <g>
            <polyline class="cls-43" points="0 21.44 0 32.16 0 42.88"/>
            <polyline class="cls-43" points="-9.28 26.8 0 32.16 9.28 37.51 9.28 37.52"/>
            <polyline class="cls-43" points="-9.28 37.52 -9.28 37.51 0 32.16 9.28 26.8"/>
          </g>
          <polygon class="cls-43" points="9.28 37.52 9.28 26.8 0 21.44 -9.28 26.8 -9.28 37.52 0 42.88 9.28 37.52"/>
        </g>
        <g>
          <g>
            <polyline class="cls-43" points="18.57 10.72 27.85 16.08 37.13 21.43 37.13 21.44"/>
            <polyline class="cls-43" points="18.57 21.44 18.57 21.43 27.85 16.08 37.13 10.72"/>
          </g>
          <polygon class="cls-43" points="37.14 21.44 37.14 10.72 27.85 5.36 18.57 10.72 18.57 21.44 27.85 26.8 37.14 21.44"/>
        </g>
        <g>
          <g>
            <polyline class="cls-43" points="9.28 5.36 9.28 16.08 9.28 26.8"/>
            <polyline class="cls-43" points="0 10.72 9.28 16.08 18.56 21.43 18.56 21.44"/>
            <polyline class="cls-43" points="0 21.44 0 21.43 9.28 16.08 18.56 10.72"/>
          </g>
          <polygon class="cls-43" points="18.57 21.44 18.57 10.72 9.28 5.36 0 10.72 0 21.44 9.28 26.8 18.57 21.44"/>
        </g>
        <g>
          <g>
            <polyline class="cls-43" points="-18.56 10.72 -9.28 16.08 0 21.43 0 21.44"/>
            <polyline class="cls-43" points="-18.56 21.44 -18.56 21.43 -9.28 16.08 0 10.72"/>
          </g>
          <polygon class="cls-43" points="0 21.44 0 10.72 -9.28 5.36 -18.57 10.72 -18.57 21.44 -9.28 26.8 0 21.44"/>
        </g>
        <g>
          <g>
            <polyline class="cls-43" points="18.57 -10.72 18.57 0 18.57 10.72"/>
            <polyline class="cls-43" points="9.29 -5.36 18.57 0 27.85 5.35 27.85 5.36"/>
            <polyline class="cls-43" points="9.29 5.36 9.29 5.35 18.57 0 27.85 -5.36"/>
          </g>
          <polygon class="cls-43" points="27.85 5.36 27.85 -5.36 18.57 -10.72 9.28 -5.36 9.28 5.36 18.57 10.72 27.85 5.36"/>
        </g>
        <g>
          <g>
            <polyline class="cls-43" points="0 -10.72 0 0 0 10.72"/>
            <polyline class="cls-43" points="-9.28 -5.36 0 0 9.28 5.35 9.28 5.36"/>
            <polyline class="cls-43" points="-9.28 5.36 -9.28 5.35 0 0 9.28 -5.36"/>
          </g>
          <polygon class="cls-43" points="9.28 5.36 9.28 -5.36 0 -10.72 -9.28 -5.36 -9.28 5.36 0 10.72 9.28 5.36"/>
        </g>
      </g>
    </pattern>
    <linearGradient id="_未命名的渐变_21" data-name="未命名的渐变 21" x1="25.09" y1="97.62" x2="125.25" y2="97.62" gradientUnits="userSpaceOnUse">
      <stop offset="0" stop-color="#35455c"/>
      <stop offset=".15" stop-color="#7497d0"/>
      <stop offset=".25" stop-color="#7497d0"/>
      <stop offset=".9" stop-color="#11161a"/>
      <stop offset="1" stop-color="#263141"/>
    </linearGradient>
    <linearGradient id="_未命名的渐变_13" data-name="未命名的渐变 13" x1="25.31" y1="44.85" x2="125.25" y2="44.85" gradientTransform="translate(119.92 -30.55) rotate(89.84)" gradientUnits="userSpaceOnUse">
      <stop offset="0" stop-color="#81aaea"/>
      <stop offset="1" stop-color="#4d709c"/>
    </linearGradient>
    <linearGradient id="_未命名的渐变_319" data-name="未命名的渐变 319" x1="74.28" y1="12.43" x2="75.35" y2="12.43" gradientUnits="userSpaceOnUse">
      <stop offset="0" stop-color="#506380"/>
      <stop offset=".2" stop-color="#97bcff"/>
      <stop offset=".9" stop-color="#3f4d5b"/>
      <stop offset="1" stop-color="#506380"/>
    </linearGradient>
    <linearGradient id="_未命名的渐变_322" data-name="未命名的渐变 322" x1="74.28" y1="8.68" x2="75.35" y2="8.68" gradientUnits="userSpaceOnUse">
      <stop offset="0" stop-color="#a5c6ff"/>
      <stop offset="1" stop-color="#7b9bcb"/>
    </linearGradient>
    <linearGradient id="_未命名的渐变_319-2" data-name="未命名的渐变 319" x1="113.19" y1="58.87" x2="114.26" y2="58.87" xlink:href="#_未命名的渐变_319"/>
    <linearGradient id="_未命名的渐变_322-2" data-name="未命名的渐变 322" x1="113.19" y1="55.25" x2="114.26" y2="55.25" xlink:href="#_未命名的渐变_322"/>
    <linearGradient id="_未命名的渐变_319-3" data-name="未命名的渐变 319" x1="35.39" y1="58.87" x2="36.46" y2="58.87" xlink:href="#_未命名的渐变_319"/>
    <linearGradient id="_未命名的渐变_322-3" data-name="未命名的渐变 322" x1="35.39" y1="55.25" x2="36.46" y2="55.25" xlink:href="#_未命名的渐变_322"/>
    <linearGradient id="_未命名的渐变_319-4" data-name="未命名的渐变 319" x1="113.19" y1="23.37" x2="114.26" y2="23.37" xlink:href="#_未命名的渐变_319"/>
    <linearGradient id="_未命名的渐变_322-4" data-name="未命名的渐变 322" x1="113.19" y1="19.75" x2="114.26" y2="19.75" xlink:href="#_未命名的渐变_322"/>
    <linearGradient id="_未命名的渐变_319-5" data-name="未命名的渐变 319" x1="35.39" y1="23.37" x2="36.46" y2="23.37" xlink:href="#_未命名的渐变_319"/>
    <linearGradient id="_未命名的渐变_322-5" data-name="未命名的渐变 322" x1="35.39" y1="19.75" x2="36.46" y2="19.75" xlink:href="#_未命名的渐变_322"/>
    <linearGradient id="_未命名的渐变_319-6" data-name="未命名的渐变 319" x1="74.28" y1="69.35" x2="75.35" y2="69.35" xlink:href="#_未命名的渐变_319"/>
    <linearGradient id="_未命名的渐变_322-6" data-name="未命名的渐变 322" x1="74.28" y1="65.59" x2="75.35" y2="65.59" xlink:href="#_未命名的渐变_322"/>
    <linearGradient id="_未命名的渐变_319-7" data-name="未命名的渐变 319" x1="24.83" y1="51.43" x2="124.74" y2="51.43" xlink:href="#_未命名的渐变_319"/>
    <linearGradient id="_未命名的渐变_9" data-name="未命名的渐变 9" x1="25.79" y1="22.91" x2="123.79" y2="22.91" gradientUnits="userSpaceOnUse">
      <stop offset="0" stop-color="#506380"/>
      <stop offset=".1" stop-color="#3f4d5b"/>
      <stop offset=".8" stop-color="#97bcff"/>
      <stop offset="1" stop-color="#506380"/>
    </linearGradient>
    <linearGradient id="_未命名的渐变_322-7" data-name="未命名的渐变 322" x1="24.83" y1="36.64" x2="124.74" y2="36.64" xlink:href="#_未命名的渐变_322"/>
    <linearGradient id="_未命名的渐变_319-8" data-name="未命名的渐变 319" y1="4.73" y2="4.73" xlink:href="#_未命名的渐变_319"/>
    <linearGradient id="_未命名的渐变_322-8" data-name="未命名的渐变 322" y1=".97" y2=".97" xlink:href="#_未命名的渐变_322"/>
    <linearGradient id="_未命名的渐变_319-9" data-name="未命名的渐变 319" x1="113.19" y1="51.16" x2="114.26" y2="51.16" xlink:href="#_未命名的渐变_319"/>
    <linearGradient id="_未命名的渐变_322-9" data-name="未命名的渐变 322" x1="113.19" y1="47.55" x2="114.26" y2="47.55" xlink:href="#_未命名的渐变_322"/>
    <linearGradient id="_未命名的渐变_319-10" data-name="未命名的渐变 319" x1="35.39" y1="51.16" x2="36.46" y2="51.16" xlink:href="#_未命名的渐变_319"/>
    <linearGradient id="_未命名的渐变_322-10" data-name="未命名的渐变 322" x1="35.39" y1="47.55" x2="36.46" y2="47.55" xlink:href="#_未命名的渐变_322"/>
    <linearGradient id="_未命名的渐变_319-11" data-name="未命名的渐变 319" x1="113.19" y1="15.66" x2="114.26" y2="15.66" xlink:href="#_未命名的渐变_319"/>
    <linearGradient id="_未命名的渐变_322-11" data-name="未命名的渐变 322" x1="113.19" y1="12.04" x2="114.26" y2="12.04" xlink:href="#_未命名的渐变_322"/>
    <linearGradient id="_未命名的渐变_319-12" data-name="未命名的渐变 319" x1="35.39" y1="15.66" x2="36.46" y2="15.66" xlink:href="#_未命名的渐变_319"/>
    <linearGradient id="_未命名的渐变_322-12" data-name="未命名的渐变 322" x1="35.39" y1="12.04" x2="36.46" y2="12.04" xlink:href="#_未命名的渐变_322"/>
    <linearGradient id="_未命名的渐变_319-13" data-name="未命名的渐变 319" x1="74.28" y1="61.64" x2="75.35" y2="61.64" xlink:href="#_未命名的渐变_319"/>
    <linearGradient id="_未命名的渐变_322-13" data-name="未命名的渐变 322" x1="74.28" y1="57.88" x2="75.35" y2="57.88" xlink:href="#_未命名的渐变_322"/>
    <linearGradient id="_未命名的渐变_319-14" data-name="未命名的渐变 319" x1="24.83" y1="43.72" x2="124.74" y2="43.72" xlink:href="#_未命名的渐变_319"/>
    <linearGradient id="_未命名的渐变_9-2" data-name="未命名的渐变 9" y1="15.21" y2="15.21" xlink:href="#_未命名的渐变_9"/>
    <linearGradient id="_未命名的渐变_322-14" data-name="未命名的渐变 322" x1="24.83" y1="28.93" x2="124.74" y2="28.93" xlink:href="#_未命名的渐变_322"/>
    <linearGradient id="_未命名的渐变_46" data-name="未命名的渐变 46" x1="25.15" y1="84.83" x2="125.31" y2="84.83" gradientUnits="userSpaceOnUse">
      <stop offset="0" stop-color="#38455a"/>
      <stop offset=".15" stop-color="#91b5f4"/>
      <stop offset=".25" stop-color="#91b5f4"/>
      <stop offset=".9" stop-color="#12161a"/>
      <stop offset="1" stop-color="#283140"/>
    </linearGradient>
    <linearGradient id="_未命名的渐变_46-2" data-name="未命名的渐变 46" y1="115.7" y2="115.7" xlink:href="#_未命名的渐变_46"/>
    <linearGradient id="_未命名的渐变_56" data-name="未命名的渐变 56" x1="51.26" y1="77.39" x2="66.67" y2="77.39" gradientUnits="userSpaceOnUse">
      <stop offset="0" stop-color="#09243d" stop-opacity=".6"/>
      <stop offset=".03" stop-color="#09243d" stop-opacity=".6"/>
      <stop offset="1" stop-color="#09243d" stop-opacity=".6"/>
    </linearGradient>
    <linearGradient id="_未命名的渐变_56-2" data-name="未命名的渐变 56" x1="67.72" y1="75.43" x2="82.36" y2="75.43" xlink:href="#_未命名的渐变_56"/>
    <linearGradient id="_未命名的渐变_56-3" data-name="未命名的渐变 56" x1="83.48" y1="73.15" x2="98.88" y2="73.15" xlink:href="#_未命名的渐变_56"/>
  </defs>
  <g class="cls-46">
    <g id="_图层_2" data-name="图层 2">
      <g id="_涂层" data-name="涂层">
        <g id="_化工液体真空储存罐" data-name="化工液体真空储存罐">
          <g id="_背景" data-name="背景" class="cls-48">
            <rect class="cls-42" y=".29" width="150" height="150"/>
            <rect id="_网格" data-name="网格" class="cls-35" x=".14" y=".25" width="150" height="150"/>
          </g>
          <g>
            <path class="cls-2" d="m125.25,44.99l-.22,76.74c-.02,7.36-4.86,14.71-14.52,20.32-19.45,11.3-51.09,11.31-70.67,0-9.85-5.69-14.77-13.15-14.75-20.61l.22-76.74c-.02,7.45,4.9,14.92,14.75,20.61,19.58,11.3,51.21,11.3,70.67,0,9.66-5.61,14.5-12.96,14.52-20.32Z"/>
            <ellipse class="cls-1" cx="75.28" cy="44.85" rx="28.94" ry="49.97" transform="translate(30.21 120) rotate(-89.84)"/>
            <g>
              <g>
                <g class="cls-46">
                  <path class="cls-39" d="m74.29,8.73s0,0,0,0c0,.02.01.03.03.05,0,0,0,0,0,0,.01.02.03.03.04.05.01,0,.02.02.04.03.01,0,.02.02.03.02.03.02.07.03.1.05.01,0,.03,0,.04.01.02,0,.04,0,.05.01.02,0,.04,0,.06.01,0,0,.01,0,.02,0,.03,0,.06,0,.09,0,0,0,0,0,.01,0,.03,0,.06,0,.09,0,0,0,0,0,.01,0,.03,0,.06,0,.09-.01,0,0,.01,0,.02,0,.03,0,.05-.01.07-.02,0,0,0,0,.01,0,.03-.01.06-.02.08-.04.11-.06.16-.14.16-.22v7.21c0,.08-.05.16-.15.22-.02.01-.05.03-.08.04,0,0,0,0,0,0,0,0,0,0-.01,0-.02,0-.03.01-.05.02,0,0-.02,0-.03,0,0,0-.01,0-.02,0,0,0,0,0-.01,0-.02,0-.04,0-.05,0,0,0-.01,0-.02,0,0,0,0,0-.01,0,0,0-.01,0-.02,0-.02,0-.03,0-.05,0,0,0-.01,0-.02,0,0,0,0,0-.01,0,0,0-.02,0-.02,0-.02,0-.04,0-.06,0,0,0,0,0,0,0,0,0-.01,0-.02,0-.02,0-.03,0-.05,0,0,0-.01,0-.02,0-.02,0-.04,0-.05-.01,0,0-.02,0-.03,0,0,0,0,0-.01,0-.04-.01-.07-.03-.11-.05,0,0,0,0,0,0-.01,0-.02-.01-.03-.02-.01,0-.03-.02-.04-.03,0,0,0,0,0,0-.01-.01-.02-.02-.03-.04,0,0,0,0,0,0,0,0,0,0,0,0,0,0,0,0,0-.01,0-.01-.01-.02-.01-.03,0,0,0,0,0,0,0,0,0,0,0,0,0,0,0-.01,0-.02,0-.01,0-.02,0-.03,0,0,0,0,0,0v-7.21s0,.04,0,.06Z"/>
                  <path class="cls-38" d="m74.44,8.46c-.21.12-.21.32,0,.44.21.12.54.12.75,0,.21-.12.21-.32,0-.44s-.55-.12-.76,0Z"/>
                </g>
                <g class="cls-46">
                  <path class="cls-32" d="m113.2,55.31s0,0,0,0c0,.02.01.03.03.05,0,0,0,0,0,0,.01.02.03.03.04.05.01,0,.02.02.04.03.01,0,.02.02.03.02.03.02.07.03.1.05.01,0,.03,0,.04.01.02,0,.04,0,.05.01.02,0,.04,0,.06.01,0,0,.01,0,.02,0,.03,0,.06,0,.09,0,0,0,0,0,.01,0,.03,0,.06,0,.09,0,0,0,0,0,.01,0,.03,0,.06,0,.09-.01,0,0,.01,0,.02,0,.03,0,.05-.01.07-.02,0,0,0,0,.01,0,.03-.01.06-.02.08-.04.11-.06.16-.14.16-.22v6.93c0,.08-.05.16-.15.22-.02.01-.05.03-.08.04,0,0,0,0,0,0,0,0,0,0-.01,0-.02,0-.03.01-.05.02,0,0-.02,0-.03,0,0,0-.01,0-.02,0,0,0,0,0-.01,0-.02,0-.04,0-.05,0,0,0-.01,0-.02,0,0,0,0,0-.01,0,0,0-.01,0-.02,0-.02,0-.03,0-.05,0,0,0-.01,0-.02,0,0,0,0,0-.01,0,0,0-.02,0-.02,0-.02,0-.04,0-.06,0,0,0,0,0,0,0,0,0-.01,0-.02,0-.02,0-.03,0-.05,0,0,0-.01,0-.02,0-.02,0-.04,0-.05-.01,0,0-.02,0-.03,0,0,0,0,0-.01,0-.04-.01-.07-.03-.11-.05,0,0,0,0,0,0-.01,0-.02-.01-.03-.02-.01,0-.03-.02-.04-.03,0,0,0,0,0,0-.01-.01-.02-.02-.03-.04,0,0,0,0,0,0,0,0,0,0,0,0,0,0,0,0,0-.01,0-.01-.01-.02-.01-.03,0,0,0,0,0,0,0,0,0,0,0,0,0,0,0-.01,0-.02,0-.01,0-.02,0-.03,0,0,0,0,0,0v-6.93s0,.04,0,.06Z"/>
                  <path class="cls-24" d="m113.35,55.04c-.21.12-.21.32,0,.44.21.12.54.12.75,0s.21-.32,0-.44-.55-.12-.76,0Z"/>
                </g>
                <g class="cls-46">
                  <path class="cls-31" d="m35.4,55.31s0,0,0,0c0,.02.01.03.03.05,0,0,0,0,0,0,.01.02.03.03.04.05.01,0,.02.02.04.03.01,0,.02.02.03.02.03.02.07.03.1.05.01,0,.03,0,.04.01.02,0,.04,0,.05.01.02,0,.04,0,.06.01,0,0,.01,0,.02,0,.03,0,.06,0,.09,0,0,0,0,0,.01,0,.03,0,.06,0,.09,0,0,0,0,0,.01,0,.03,0,.06,0,.09-.01,0,0,.01,0,.02,0,.03,0,.05-.01.07-.02,0,0,0,0,.01,0,.03-.01.06-.02.08-.04.11-.06.16-.14.16-.22v6.93c0,.08-.05.16-.15.22-.02.01-.05.03-.08.04,0,0,0,0,0,0,0,0,0,0-.01,0-.02,0-.03.01-.05.02,0,0-.02,0-.03,0,0,0-.01,0-.02,0,0,0,0,0-.01,0-.02,0-.04,0-.05,0,0,0-.01,0-.02,0,0,0,0,0-.01,0,0,0-.01,0-.02,0-.02,0-.03,0-.05,0,0,0-.01,0-.02,0,0,0,0,0-.01,0,0,0-.02,0-.02,0-.02,0-.04,0-.06,0,0,0,0,0,0,0,0,0-.01,0-.02,0-.02,0-.03,0-.05,0,0,0-.01,0-.02,0-.02,0-.04,0-.05-.01,0,0-.02,0-.03,0,0,0,0,0-.01,0-.04-.01-.07-.03-.11-.05,0,0,0,0,0,0-.01,0-.02-.01-.03-.02-.01,0-.03-.02-.04-.03,0,0,0,0,0,0-.01-.01-.02-.02-.03-.04,0,0,0,0,0,0,0,0,0,0,0,0,0,0,0,0,0-.01,0-.01-.01-.02-.01-.03,0,0,0,0,0,0,0,0,0,0,0,0,0,0,0-.01,0-.02,0-.01,0-.02,0-.03,0,0,0,0,0,0v-6.93s0,.04,0,.06Z"/>
                  <path class="cls-19" d="m35.55,55.04c-.21.12-.21.32,0,.44.21.12.54.12.75,0,.21-.12.21-.32,0-.44-.21-.12-.55-.12-.76,0Z"/>
                </g>
                <g class="cls-46">
                  <path class="cls-29" d="m113.2,19.8s0,0,0,0c0,.02.01.03.03.05,0,0,0,0,0,0,.01.02.03.03.04.05.01,0,.02.02.04.03.01,0,.02.02.03.02.03.02.07.03.1.05.01,0,.03,0,.04.01.02,0,.04,0,.05.01.02,0,.04,0,.06.01,0,0,.01,0,.02,0,.03,0,.06,0,.09,0,0,0,0,0,.01,0,.03,0,.06,0,.09,0,0,0,0,0,.01,0,.03,0,.06,0,.09-.01,0,0,.01,0,.02,0,.03,0,.05-.01.07-.02,0,0,0,0,.01,0,.03-.01.06-.02.08-.04.11-.06.16-.14.16-.22v6.93c0,.08-.05.16-.15.22-.02.01-.05.03-.08.04,0,0,0,0,0,0,0,0,0,0-.01,0-.02,0-.03.01-.05.02,0,0-.02,0-.03,0,0,0-.01,0-.02,0,0,0,0,0-.01,0-.02,0-.04,0-.05,0,0,0-.01,0-.02,0,0,0,0,0-.01,0,0,0-.01,0-.02,0-.02,0-.03,0-.05,0,0,0-.01,0-.02,0,0,0,0,0-.01,0,0,0-.02,0-.02,0-.02,0-.04,0-.06,0,0,0,0,0,0,0,0,0-.01,0-.02,0-.02,0-.03,0-.05,0,0,0-.01,0-.02,0-.02,0-.04,0-.05-.01,0,0-.02,0-.03,0,0,0,0,0-.01,0-.04-.01-.07-.03-.11-.05,0,0,0,0,0,0-.01,0-.02-.01-.03-.02-.01,0-.03-.02-.04-.03,0,0,0,0,0,0-.01-.01-.02-.02-.03-.04,0,0,0,0,0,0,0,0,0,0,0,0,0,0,0,0,0-.01,0-.01-.01-.02-.01-.03,0,0,0,0,0,0,0,0,0,0,0,0,0,0,0-.01,0-.02,0-.01,0-.02,0-.03,0,0,0,0,0,0v-6.93s0,.04,0,.06Z"/>
                  <path class="cls-23" d="m113.35,19.53c-.21.12-.21.32,0,.44s.54.12.75,0,.21-.32,0-.44c-.21-.12-.55-.12-.76,0Z"/>
                </g>
                <g class="cls-46">
                  <path class="cls-28" d="m35.4,19.8s0,0,0,0c0,.02.01.03.03.05,0,0,0,0,0,0,.01.02.03.03.04.05.01,0,.02.02.04.03.01,0,.02.02.03.02.03.02.07.03.1.05.01,0,.03,0,.04.01.02,0,.04,0,.05.01.02,0,.04,0,.06.01,0,0,.01,0,.02,0,.03,0,.06,0,.09,0,0,0,0,0,.01,0,.03,0,.06,0,.09,0,0,0,0,0,.01,0,.03,0,.06,0,.09-.01,0,0,.01,0,.02,0,.03,0,.05-.01.07-.02,0,0,0,0,.01,0,.03-.01.06-.02.08-.04.11-.06.16-.14.16-.22v6.93c0,.08-.05.16-.15.22-.02.01-.05.03-.08.04,0,0,0,0,0,0,0,0,0,0-.01,0-.02,0-.03.01-.05.02,0,0-.02,0-.03,0,0,0-.01,0-.02,0,0,0,0,0-.01,0-.02,0-.04,0-.05,0,0,0-.01,0-.02,0,0,0,0,0-.01,0,0,0-.01,0-.02,0-.02,0-.03,0-.05,0,0,0-.01,0-.02,0,0,0,0,0-.01,0,0,0-.02,0-.02,0-.02,0-.04,0-.06,0,0,0,0,0,0,0,0,0-.01,0-.02,0-.02,0-.03,0-.05,0,0,0-.01,0-.02,0-.02,0-.04,0-.05-.01,0,0-.02,0-.03,0,0,0,0,0-.01,0-.04-.01-.07-.03-.11-.05,0,0,0,0,0,0-.01,0-.02-.01-.03-.02-.01,0-.03-.02-.04-.03,0,0,0,0,0,0-.01-.01-.02-.02-.03-.04,0,0,0,0,0,0,0,0,0,0,0,0,0,0,0,0,0-.01,0-.01-.01-.02-.01-.03,0,0,0,0,0,0,0,0,0,0,0,0,0,0,0-.01,0-.02,0-.01,0-.02,0-.03,0,0,0,0,0,0v-6.93s0,.04,0,.06Z"/>
                  <path class="cls-25" d="m35.55,19.53c-.21.12-.21.32,0,.44.21.12.54.12.75,0s.21-.32,0-.44c-.21-.12-.55-.12-.76,0Z"/>
                </g>
                <g class="cls-46">
                  <path class="cls-30" d="m74.29,65.65s0,0,0,0c0,.02.01.03.03.05,0,0,0,0,0,0,.01.02.03.03.04.05.01,0,.02.02.04.03.01,0,.02.02.03.02.03.02.07.03.1.05.01,0,.03,0,.04.01.02,0,.04,0,.05.01.02,0,.04,0,.06.01,0,0,.01,0,.02,0,.03,0,.06,0,.09,0,0,0,0,0,.01,0,.03,0,.06,0,.09,0,0,0,0,0,.01,0,.03,0,.06,0,.09-.01,0,0,.01,0,.02,0,.03,0,.05-.01.07-.02,0,0,0,0,.01,0,.03-.01.06-.02.08-.04.11-.06.16-.14.16-.22v7.21c0,.08-.05.16-.15.22-.02.01-.05.03-.08.04,0,0,0,0,0,0,0,0,0,0-.01,0-.02,0-.03.01-.05.02,0,0-.02,0-.03,0,0,0-.01,0-.02,0,0,0,0,0-.01,0-.02,0-.04,0-.05,0,0,0-.01,0-.02,0,0,0,0,0-.01,0,0,0-.01,0-.02,0-.02,0-.03,0-.05,0,0,0-.01,0-.02,0,0,0,0,0-.01,0,0,0-.02,0-.02,0-.02,0-.04,0-.06,0,0,0,0,0,0,0,0,0-.01,0-.02,0-.02,0-.03,0-.05,0,0,0-.01,0-.02,0-.02,0-.04,0-.05-.01,0,0-.02,0-.03,0,0,0,0,0-.01,0-.04-.01-.07-.03-.11-.05,0,0,0,0,0,0-.01,0-.02-.01-.03-.02-.01,0-.03-.02-.04-.03,0,0,0,0,0,0-.01-.01-.02-.02-.03-.04,0,0,0,0,0,0,0,0,0,0,0,0,0,0,0,0,0-.01,0-.01-.01-.02-.01-.03,0,0,0,0,0,0,0,0,0,0,0,0,0,0,0-.01,0-.02,0-.01,0-.02,0-.03,0,0,0,0,0,0v-7.21s0,.04,0,.06Z"/>
                  <path class="cls-26" d="m74.44,65.37c-.21.12-.21.32,0,.44.21.12.54.12.75,0,.21-.12.21-.32,0-.44s-.55-.12-.76,0Z"/>
                </g>
              </g>
              <g class="cls-46">
                <path class="cls-27" d="m110.24,57.11c-19.43,11.29-51.14,11.28-70.68,0-9.84-5.68-14.75-13.15-14.73-20.61v.79c-.02,7.46,4.89,14.93,14.73,20.61,19.54,11.28,51.25,11.29,70.68,0,9.64-5.61,14.47-12.96,14.49-20.33v-.79c-.02,7.37-4.85,14.72-14.49,20.33Z"/>
                <path class="cls-36" d="m109.34,16.56c-19.17-11.07-50.28-11.07-69.33,0-9.46,5.5-14.2,12.71-14.22,19.94v.79c.02-7.23,4.76-14.44,14.22-19.94,19.05-11.07,50.16-11.07,69.33,0,9.65,5.57,14.47,12.9,14.45,20.22v-.79c.02-7.32-4.8-14.65-14.44-20.22Z"/>
                <path class="cls-22" d="m110.01,16.17c-19.55-11.29-51.26-11.28-70.68,0-19.43,11.29-19.32,29.65.23,40.94,19.54,11.28,51.25,11.29,70.68,0,19.42-11.28,19.31-29.66-.23-40.94Zm-.45,40.55c-19.05,11.07-50.16,11.07-69.33,0-19.17-11.07-19.27-29.09-.23-40.16,19.05-11.07,50.16-11.07,69.33,0,19.17,11.07,19.27,29.09.23,40.16Z"/>
              </g>
              <g>
                <g class="cls-46">
                  <path class="cls-33" d="m74.29,1.03s0,0,0,0c0,.02.01.03.03.05,0,0,0,0,0,0,.01.02.03.03.04.05.01,0,.02.02.04.03.01,0,.02.02.03.02.03.02.07.03.1.05.01,0,.03,0,.04.01.02,0,.04,0,.05.01.02,0,.04,0,.06.01,0,0,.01,0,.02,0,.03,0,.06,0,.09,0,0,0,0,0,.01,0,.03,0,.06,0,.09,0,0,0,0,0,.01,0,.03,0,.06,0,.09-.01,0,0,.01,0,.02,0,.03,0,.05-.01.07-.02,0,0,0,0,.01,0,.03-.01.06-.02.08-.04.11-.06.16-.14.16-.22v7.21c0,.08-.05.16-.15.22-.02.01-.05.03-.08.04,0,0,0,0,0,0,0,0,0,0-.01,0-.02,0-.03.01-.05.02,0,0-.02,0-.03,0,0,0-.01,0-.02,0,0,0,0,0-.01,0-.02,0-.04,0-.05,0,0,0-.01,0-.02,0,0,0,0,0-.01,0,0,0-.01,0-.02,0-.02,0-.03,0-.05,0,0,0-.01,0-.02,0,0,0,0,0-.01,0,0,0-.02,0-.02,0-.02,0-.04,0-.06,0,0,0,0,0,0,0,0,0-.01,0-.02,0-.02,0-.03,0-.05,0,0,0-.01,0-.02,0-.02,0-.04,0-.05-.01,0,0-.02,0-.03,0,0,0,0,0-.01,0-.04-.01-.07-.03-.11-.05,0,0,0,0,0,0-.01,0-.02-.01-.03-.02-.01,0-.03-.02-.04-.03,0,0,0,0,0,0-.01-.01-.02-.02-.03-.04,0,0,0,0,0,0,0,0,0,0,0,0,0,0,0,0,0-.01,0-.01-.01-.02-.01-.03,0,0,0,0,0,0,0,0,0,0,0,0,0,0,0-.01,0-.02,0-.01,0-.02,0-.03,0,0,0,0,0,0V.97s0,.04,0,.06Z"/>
                  <path class="cls-21" d="m74.44.75c-.21.12-.21.32,0,.44.21.12.54.12.75,0,.21-.12.21-.32,0-.44s-.55-.12-.76,0Z"/>
                </g>
                <g class="cls-46">
                  <path class="cls-34" d="m113.2,47.6s0,0,0,0c0,.02.01.03.03.05,0,0,0,0,0,0,.01.02.03.03.04.05.01,0,.02.02.04.03.01,0,.02.02.03.02.03.02.07.03.1.05.01,0,.03,0,.04.01.02,0,.04,0,.05.01.02,0,.04,0,.06.01,0,0,.01,0,.02,0,.03,0,.06,0,.09,0,0,0,0,0,.01,0,.03,0,.06,0,.09,0,0,0,0,0,.01,0,.03,0,.06,0,.09-.01,0,0,.01,0,.02,0,.03,0,.05-.01.07-.02,0,0,0,0,.01,0,.03-.01.06-.02.08-.04.11-.06.16-.14.16-.22v6.93c0,.08-.05.16-.15.22-.02.01-.05.03-.08.04,0,0,0,0,0,0,0,0,0,0-.01,0-.02,0-.03.01-.05.02,0,0-.02,0-.03,0,0,0-.01,0-.02,0,0,0,0,0-.01,0-.02,0-.04,0-.05,0,0,0-.01,0-.02,0,0,0,0,0-.01,0,0,0-.01,0-.02,0-.02,0-.03,0-.05,0,0,0-.01,0-.02,0,0,0,0,0-.01,0,0,0-.02,0-.02,0-.02,0-.04,0-.06,0,0,0,0,0,0,0,0,0-.01,0-.02,0-.02,0-.03,0-.05,0,0,0-.01,0-.02,0-.02,0-.04,0-.05-.01,0,0-.02,0-.03,0,0,0,0,0-.01,0-.04-.01-.07-.03-.11-.05,0,0,0,0,0,0-.01,0-.02-.01-.03-.02-.01,0-.03-.02-.04-.03,0,0,0,0,0,0-.01-.01-.02-.02-.03-.04,0,0,0,0,0,0,0,0,0,0,0,0,0,0,0,0,0-.01,0-.01-.01-.02-.01-.03,0,0,0,0,0,0,0,0,0,0,0,0,0,0,0-.01,0-.02,0-.01,0-.02,0-.03,0,0,0,0,0,0v-6.93s0,.04,0,.06Z"/>
                  <path class="cls-20" d="m113.35,47.33c-.21.12-.21.32,0,.44.21.12.54.12.75,0s.21-.32,0-.44c-.21-.12-.55-.12-.76,0Z"/>
                </g>
                <g class="cls-46">
                  <path class="cls-9" d="m35.4,47.6s0,0,0,0c0,.02.01.03.03.05,0,0,0,0,0,0,.01.02.03.03.04.05.01,0,.02.02.04.03.01,0,.02.02.03.02.03.02.07.03.1.05.01,0,.03,0,.04.01.02,0,.04,0,.05.01.02,0,.04,0,.06.01,0,0,.01,0,.02,0,.03,0,.06,0,.09,0,0,0,0,0,.01,0,.03,0,.06,0,.09,0,0,0,0,0,.01,0,.03,0,.06,0,.09-.01,0,0,.01,0,.02,0,.03,0,.05-.01.07-.02,0,0,0,0,.01,0,.03-.01.06-.02.08-.04.11-.06.16-.14.16-.22v6.93c0,.08-.05.16-.15.22-.02.01-.05.03-.08.04,0,0,0,0,0,0,0,0,0,0-.01,0-.02,0-.03.01-.05.02,0,0-.02,0-.03,0,0,0-.01,0-.02,0,0,0,0,0-.01,0-.02,0-.04,0-.05,0,0,0-.01,0-.02,0,0,0,0,0-.01,0,0,0-.01,0-.02,0-.02,0-.03,0-.05,0,0,0-.01,0-.02,0,0,0,0,0-.01,0,0,0-.02,0-.02,0-.02,0-.04,0-.06,0,0,0,0,0,0,0,0,0-.01,0-.02,0-.02,0-.03,0-.05,0,0,0-.01,0-.02,0-.02,0-.04,0-.05-.01,0,0-.02,0-.03,0,0,0,0,0-.01,0-.04-.01-.07-.03-.11-.05,0,0,0,0,0,0-.01,0-.02-.01-.03-.02-.01,0-.03-.02-.04-.03,0,0,0,0,0,0-.01-.01-.02-.02-.03-.04,0,0,0,0,0,0,0,0,0,0,0,0,0,0,0,0,0-.01,0-.01-.01-.02-.01-.03,0,0,0,0,0,0,0,0,0,0,0,0,0,0,0-.01,0-.02,0-.01,0-.02,0-.03,0,0,0,0,0,0v-6.93s0,.04,0,.06Z"/>
                  <path class="cls-15" d="m35.55,47.33c-.21.12-.21.32,0,.44.21.12.54.12.75,0s.21-.32,0-.44c-.21-.12-.55-.12-.76,0Z"/>
                </g>
                <g class="cls-46">
                  <path class="cls-8" d="m113.2,12.1s0,0,0,0c0,.02.01.03.03.05,0,0,0,0,0,0,.01.02.03.03.04.05.01,0,.02.02.04.03.01,0,.02.02.03.02.03.02.07.03.1.05.01,0,.03,0,.04.01.02,0,.04,0,.05.01.02,0,.04,0,.06.01,0,0,.01,0,.02,0,.03,0,.06,0,.09,0,0,0,0,0,.01,0,.03,0,.06,0,.09,0,0,0,0,0,.01,0,.03,0,.06,0,.09-.01,0,0,.01,0,.02,0,.03,0,.05-.01.07-.02,0,0,0,0,.01,0,.03-.01.06-.02.08-.04.11-.06.16-.14.16-.22v6.93c0,.08-.05.16-.15.22-.02.01-.05.03-.08.04,0,0,0,0,0,0,0,0,0,0-.01,0-.02,0-.03.01-.05.02,0,0-.02,0-.03,0,0,0-.01,0-.02,0,0,0,0,0-.01,0-.02,0-.04,0-.05,0,0,0-.01,0-.02,0,0,0,0,0-.01,0,0,0-.01,0-.02,0-.02,0-.03,0-.05,0,0,0-.01,0-.02,0,0,0,0,0-.01,0,0,0-.02,0-.02,0-.02,0-.04,0-.06,0,0,0,0,0,0,0,0,0-.01,0-.02,0-.02,0-.03,0-.05,0,0,0-.01,0-.02,0-.02,0-.04,0-.05-.01,0,0-.02,0-.03,0,0,0,0,0-.01,0-.04-.01-.07-.03-.11-.05,0,0,0,0,0,0-.01,0-.02-.01-.03-.02-.01,0-.03-.02-.04-.03,0,0,0,0,0,0-.01-.01-.02-.02-.03-.04,0,0,0,0,0,0,0,0,0,0,0,0,0,0,0,0,0-.01,0-.01-.01-.02-.01-.03,0,0,0,0,0,0,0,0,0,0,0,0,0,0,0-.01,0-.02,0-.01,0-.02,0-.03,0,0,0,0,0,0v-6.93s0,.04,0,.06Z"/>
                  <path class="cls-14" d="m113.35,11.82c-.21.12-.21.32,0,.44s.54.12.75,0,.21-.32,0-.44c-.21-.12-.55-.12-.76,0Z"/>
                </g>
                <g class="cls-46">
                  <path class="cls-10" d="m35.4,12.1s0,0,0,0c0,.02.01.03.03.05,0,0,0,0,0,0,.01.02.03.03.04.05.01,0,.02.02.04.03.01,0,.02.02.03.02.03.02.07.03.1.05.01,0,.03,0,.04.01.02,0,.04,0,.05.01.02,0,.04,0,.06.01,0,0,.01,0,.02,0,.03,0,.06,0,.09,0,0,0,0,0,.01,0,.03,0,.06,0,.09,0,0,0,0,0,.01,0,.03,0,.06,0,.09-.01,0,0,.01,0,.02,0,.03,0,.05-.01.07-.02,0,0,0,0,.01,0,.03-.01.06-.02.08-.04.11-.06.16-.14.16-.22v6.93c0,.08-.05.16-.15.22-.02.01-.05.03-.08.04,0,0,0,0,0,0,0,0,0,0-.01,0-.02,0-.03.01-.05.02,0,0-.02,0-.03,0,0,0-.01,0-.02,0,0,0,0,0-.01,0-.02,0-.04,0-.05,0,0,0-.01,0-.02,0,0,0,0,0-.01,0,0,0-.01,0-.02,0-.02,0-.03,0-.05,0,0,0-.01,0-.02,0,0,0,0,0-.01,0,0,0-.02,0-.02,0-.02,0-.04,0-.06,0,0,0,0,0,0,0,0,0-.01,0-.02,0-.02,0-.03,0-.05,0,0,0-.01,0-.02,0-.02,0-.04,0-.05-.01,0,0-.02,0-.03,0,0,0,0,0-.01,0-.04-.01-.07-.03-.11-.05,0,0,0,0,0,0-.01,0-.02-.01-.03-.02-.01,0-.03-.02-.04-.03,0,0,0,0,0,0-.01-.01-.02-.02-.03-.04,0,0,0,0,0,0,0,0,0,0,0,0,0,0,0,0,0-.01,0-.01-.01-.02-.01-.03,0,0,0,0,0,0,0,0,0,0,0,0,0,0,0-.01,0-.02,0-.01,0-.02,0-.03,0,0,0,0,0,0v-6.93s0,.04,0,.06Z"/>
                  <path class="cls-12" d="m35.55,11.82c-.21.12-.21.32,0,.44s.54.12.75,0,.21-.32,0-.44c-.21-.12-.55-.12-.76,0Z"/>
                </g>
                <g class="cls-46">
                  <path class="cls-7" d="m74.29,57.94s0,0,0,0c0,.02.01.03.03.05,0,0,0,0,0,0,.01.02.03.03.04.05.01,0,.02.02.04.03.01,0,.02.02.03.02.03.02.07.03.1.05.01,0,.03,0,.04.01.02,0,.04,0,.05.01.02,0,.04,0,.06.01,0,0,.01,0,.02,0,.03,0,.06,0,.09,0,0,0,0,0,.01,0,.03,0,.06,0,.09,0,0,0,0,0,.01,0,.03,0,.06,0,.09-.01,0,0,.01,0,.02,0,.03,0,.05-.01.07-.02,0,0,0,0,.01,0,.03-.01.06-.02.08-.04.11-.06.16-.14.16-.22v7.21c0,.08-.05.16-.15.22-.02.01-.05.03-.08.04,0,0,0,0,0,0,0,0,0,0-.01,0-.02,0-.03.01-.05.02,0,0-.02,0-.03,0,0,0-.01,0-.02,0,0,0,0,0-.01,0-.02,0-.04,0-.05,0,0,0-.01,0-.02,0,0,0,0,0-.01,0,0,0-.01,0-.02,0-.02,0-.03,0-.05,0,0,0-.01,0-.02,0,0,0,0,0-.01,0,0,0-.02,0-.02,0-.02,0-.04,0-.06,0,0,0,0,0,0,0,0,0-.01,0-.02,0-.02,0-.03,0-.05,0,0,0-.01,0-.02,0-.02,0-.04,0-.05-.01,0,0-.02,0-.03,0,0,0,0,0-.01,0-.04-.01-.07-.03-.11-.05,0,0,0,0,0,0-.01,0-.02-.01-.03-.02-.01,0-.03-.02-.04-.03,0,0,0,0,0,0-.01-.01-.02-.02-.03-.04,0,0,0,0,0,0,0,0,0,0,0,0,0,0,0,0,0-.01,0-.01-.01-.02-.01-.03,0,0,0,0,0,0,0,0,0,0,0,0,0,0,0-.01,0-.02,0-.01,0-.02,0-.03,0,0,0,0,0,0v-7.21s0,.04,0,.06Z"/>
                  <path class="cls-11" d="m74.44,57.67c-.21.12-.21.32,0,.44.21.12.54.12.75,0,.21-.12.21-.32,0-.44-.21-.12-.55-.12-.76,0Z"/>
                </g>
              </g>
              <g class="cls-46">
                <path class="cls-6" d="m110.24,49.4c-19.43,11.29-51.14,11.28-70.68,0-9.84-5.68-14.75-13.15-14.73-20.61v.79c-.02,7.46,4.89,14.93,14.73,20.61,19.54,11.28,51.25,11.29,70.68,0,9.64-5.61,14.47-12.96,14.49-20.33v-.79c-.02,7.37-4.85,14.72-14.49,20.33Z"/>
                <path class="cls-37" d="m109.34,8.86c-19.17-11.07-50.28-11.07-69.33,0-9.46,5.5-14.2,12.71-14.22,19.94v.79c.02-7.23,4.76-14.44,14.22-19.94,19.05-11.07,50.16-11.07,69.33,0,9.65,5.57,14.47,12.9,14.45,20.22v-.79c.02-7.32-4.8-14.65-14.44-20.22Z"/>
                <path class="cls-13" d="m110.01,8.46c-19.55-11.29-51.26-11.28-70.68,0-19.43,11.29-19.32,29.65.23,40.94,19.54,11.28,51.25,11.29,70.68,0,19.42-11.28,19.31-29.66-.23-40.94Zm-.45,40.55c-19.05,11.07-50.16,11.07-69.33,0-19.17-11.07-19.27-29.09-.23-40.16,19.05-11.07,50.16-11.07,69.33,0,19.17,11.07,19.27,29.09.23,40.16Z"/>
              </g>
            </g>
            <g>
              <g class="cls-44">
                <path class="cls-40" d="m125.31,70.7v6.72c-2.6,4.91-7.27,9.41-13.82,13.06-10.08,5.67-23.18,8.48-36.24,8.48s-27.38-3.07-37.63-9.24c-5.75-3.4-10-7.52-12.47-12.01v-5.59c1.51,5.92,6.22,11.42,13.57,15.79,19.44,11.68,51.66,12.01,71.77.76,8.65-4.87,13.86-11.21,14.83-17.97Z"/>
                <path class="cls-40" d="m125.31,70.45v6.72c-2.6,4.91-7.27,9.41-13.82,13.06-10.08,5.67-23.18,8.48-36.24,8.48s-27.38-3.07-37.63-9.24c-5.75-3.4-10-7.52-12.47-12.01v-5.59c1.51,5.92,6.22,11.42,13.57,15.79,19.44,11.68,51.66,12.01,71.77.76,8.65-4.87,13.86-11.21,14.83-17.97Z"/>
              </g>
              <g>
                <g class="cls-47">
                  <path class="cls-41" d="m125.31,70.95v6.72c-2.6,4.91-7.27,9.41-13.82,13.06-10.08,5.67-23.18,8.48-36.24,8.48s-27.38-3.07-37.63-9.24c-5.75-3.4-10-7.52-12.47-12.01v-5.59c1.51,5.92,6.22,11.42,13.57,15.79,19.44,11.68,51.66,12.01,71.77.76,8.65-4.87,13.86-11.21,14.83-17.97Z"/>
                </g>
                <path class="cls-3" d="m125.31,70.7v6.72c-2.6,4.91-7.27,9.41-13.82,13.06-10.08,5.67-23.18,8.48-36.24,8.48s-27.38-3.07-37.63-9.24c-5.75-3.4-10-7.52-12.47-12.01v-5.59c1.51,5.92,6.22,11.42,13.57,15.79,19.44,11.68,51.66,12.01,71.77.76,8.65-4.87,13.86-11.21,14.83-17.97Z"/>
              </g>
            </g>
            <g>
              <g class="cls-44">
                <path class="cls-40" d="m125.31,101.57v6.72c-2.6,4.91-7.27,9.41-13.82,13.06-10.08,5.67-23.18,8.48-36.24,8.48s-27.38-3.07-37.63-9.24c-5.75-3.4-10-7.52-12.47-12.01v-5.59c1.51,5.92,6.22,11.42,13.57,15.79,19.44,11.68,51.66,12.01,71.77.76,8.65-4.87,13.86-11.21,14.83-17.97Z"/>
                <path class="cls-40" d="m125.31,101.32v6.72c-2.6,4.91-7.27,9.41-13.82,13.06-10.08,5.67-23.18,8.48-36.24,8.48s-27.38-3.07-37.63-9.24c-5.75-3.4-10-7.52-12.47-12.01v-5.59c1.51,5.92,6.22,11.42,13.57,15.79,19.44,11.68,51.66,12.01,71.77.76,8.65-4.87,13.86-11.21,14.83-17.97Z"/>
              </g>
              <g>
                <g class="cls-47">
                  <path class="cls-41" d="m125.31,101.82v6.72c-2.6,4.91-7.27,9.41-13.82,13.06-10.08,5.67-23.18,8.48-36.24,8.48s-27.38-3.07-37.63-9.24c-5.75-3.4-10-7.52-12.47-12.01v-5.59c1.51,5.92,6.22,11.42,13.57,15.79,19.44,11.68,51.66,12.01,71.77.76,8.65-4.87,13.86-11.21,14.83-17.97Z"/>
                </g>
                <path class="cls-18" d="m125.31,101.57v6.72c-2.6,4.91-7.27,9.41-13.82,13.06-10.08,5.67-23.18,8.48-36.24,8.48s-27.38-3.07-37.63-9.24c-5.75-3.4-10-7.52-12.47-12.01v-5.59c1.51,5.92,6.22,11.42,13.57,15.79,19.44,11.68,51.66,12.01,71.77.76,8.65-4.87,13.86-11.21,14.83-17.97Z"/>
              </g>
            </g>
          </g>
        </g>
      </g>
    </g>
  </g>
</svg>