<svg xmlns="http://www.w3.org/2000/svg" xmlns:xlink="http://www.w3.org/1999/xlink" viewBox="0 0 150 150"><defs><style>.cls-1{fill:#fff;}.cls-2,.cls-3{fill:none;}.cls-3{stroke:#fff;stroke-miterlimit:10;stroke-width:0.1px;}.cls-4{isolation:isolate;}.cls-5{opacity:0;}.cls-6{fill:#000714;}.cls-7{opacity:0.1;fill:url(#新建图案);}.cls-8{fill:#ff9059;}.cls-9{fill:#cc1b00;}.cls-10{fill:#cc491f;}.cls-11{fill:#f5693b;}.cls-12{fill:#b7b7b7;}.cls-13{fill:#cc3914;}.cls-14{fill:#e8e8e8;}.cls-15{fill:#ffa166;}.cls-16{fill:#4e5f79;}.cls-17{fill:#2d3746;}.cls-18{fill:#7696cb;}.cls-19{fill:#bdbdbd;}.cls-20{fill:url(#未命名的渐变_3719);}.cls-21{fill:url(#未命名的渐变_3623);}.cls-22{fill:#0c1014;}.cls-23{fill:url(#未命名的渐变_61);}.cls-24{fill:url(#未命名的渐变_44);}.cls-25{fill:url(#未命名的渐变_64);}.cls-26{fill:#e3e3e3;}.cls-27{fill:#171d23;}.cls-28{mask:url(#mask);}.cls-29{mix-blend-mode:overlay;fill:url(#未命名的渐变_3736);}.cls-30{opacity:0.2;}</style><pattern id="新建图案" data-name="新建图案" width="18.57" height="32.16" patternTransform="translate(2159.51 1146.01)" patternUnits="userSpaceOnUse" viewBox="0 0 18.57 32.16"><rect class="cls-2" width="18.57" height="32.16"/><polyline class="cls-3" points="18.57 21.44 18.57 32.16 18.57 42.88"/><polyline class="cls-3" points="9.29 26.8 18.57 32.16 27.85 37.51 27.85 37.52"/><polyline class="cls-3" points="9.29 37.52 9.29 37.51 18.57 32.16 27.85 26.8"/><polygon class="cls-3" points="27.85 37.52 27.85 26.8 18.57 21.44 9.28 26.8 9.28 37.52 18.57 42.88 27.85 37.52"/><polyline class="cls-3" points="0 21.44 0 32.16 0 42.88"/><polyline class="cls-3" points="-9.28 26.8 0 32.16 9.28 37.51 9.28 37.52"/><polyline class="cls-3" points="-9.28 37.52 -9.28 37.51 0 32.16 9.28 26.8"/><polygon class="cls-3" points="9.28 37.52 9.28 26.8 0 21.44 -9.29 26.8 -9.29 37.52 0 42.88 9.28 37.52"/><polyline class="cls-3" points="18.57 10.72 27.85 16.08 37.13 21.43 37.13 21.44"/><polyline class="cls-3" points="18.57 21.44 18.57 21.43 27.85 16.08 37.13 10.72"/><polygon class="cls-3" points="37.14 21.44 37.14 10.72 27.85 5.36 18.57 10.72 18.57 21.44 27.85 26.8 37.14 21.44"/><polyline class="cls-3" points="9.29 5.36 9.29 16.08 9.29 26.8"/><polyline class="cls-3" points="0.01 10.72 9.29 16.08 18.57 21.43 18.57 21.44"/><polyline class="cls-3" points="0.01 21.44 0.01 21.43 9.29 16.08 18.57 10.72"/><polygon class="cls-3" points="18.57 21.44 18.57 10.72 9.28 5.36 0 10.72 0 21.44 9.28 26.8 18.57 21.44"/><polyline class="cls-3" points="-18.56 10.72 -9.28 16.08 0 21.43 0 21.44"/><polyline class="cls-3" points="-18.56 21.44 -18.56 21.43 -9.28 16.08 0 10.72"/><polygon class="cls-3" points="0 21.44 0 10.72 -9.29 5.36 -18.57 10.72 -18.57 21.44 -9.29 26.8 0 21.44"/><polyline class="cls-3" points="18.57 -10.72 18.57 0 18.57 10.72"/><polyline class="cls-3" points="9.29 -5.36 18.57 0 27.85 5.35 27.85 5.36"/><polyline class="cls-3" points="9.29 5.36 9.29 5.35 18.57 0 27.85 -5.36"/><polygon class="cls-3" points="27.85 5.36 27.85 -5.36 18.57 -10.72 9.28 -5.36 9.28 5.36 18.57 10.72 27.85 5.36"/><polyline class="cls-3" points="0 -10.72 0 0 0 10.72"/><polyline class="cls-3" points="-9.28 -5.36 0 0 9.28 5.35 9.28 5.36"/><polyline class="cls-3" points="-9.28 5.36 -9.28 5.35 0 0 9.28 -5.36"/><polygon class="cls-3" points="9.28 5.36 9.28 -5.36 0 -10.72 -9.29 -5.36 -9.29 5.36 0 10.72 9.28 5.36"/></pattern><linearGradient id="未命名的渐变_3719" x1="119.74" y1="106.71" x2="112.75" y2="94.6" gradientUnits="userSpaceOnUse"><stop offset="0" stop-color="#e63900"/><stop offset="0.15" stop-color="#cc1b00"/><stop offset="0.75" stop-color="#ff9059"/><stop offset="0.85" stop-color="#ff9059"/><stop offset="1" stop-color="#e63900"/></linearGradient><linearGradient id="未命名的渐变_3623" x1="115.54" y1="108.6" x2="106.04" y2="99.11" gradientUnits="userSpaceOnUse"><stop offset="0" stop-color="#e65322"/><stop offset="1" stop-color="#ff884d"/></linearGradient><linearGradient id="未命名的渐变_61" x1="118.27" y1="95.54" x2="116.3" y2="92.12" gradientUnits="userSpaceOnUse"><stop offset="0.24" stop-color="#4e5f79"/><stop offset="0.6" stop-color="#4d5d77"/><stop offset="0.73" stop-color="#475770"/><stop offset="0.78" stop-color="#43526b"/><stop offset="0.86" stop-color="#7a98cc"/><stop offset="0.95" stop-color="#7a98cc"/><stop offset="1" stop-color="#6b85b3"/></linearGradient><linearGradient id="未命名的渐变_44" x1="115.24" y1="94.82" x2="114.33" y2="93.25" gradientUnits="userSpaceOnUse"><stop offset="0.24" stop-color="#4e5f79"/><stop offset="0.43" stop-color="#4d5d77"/><stop offset="0.5" stop-color="#475770"/><stop offset="0.52" stop-color="#43526b"/><stop offset="0.71" stop-color="#7a98cc"/><stop offset="0.88" stop-color="#7a98cc"/><stop offset="1" stop-color="#6b85b3"/></linearGradient><linearGradient id="未命名的渐变_64" x1="114.41" y1="97.78" x2="112.44" y2="94.36" gradientUnits="userSpaceOnUse"><stop offset="0.24" stop-color="#4e5f79"/><stop offset="0.6" stop-color="#4d5d77"/><stop offset="0.73" stop-color="#475770"/><stop offset="0.79" stop-color="#43526b"/><stop offset="0.87" stop-color="#7a98cc"/><stop offset="0.95" stop-color="#7a98cc"/><stop offset="1" stop-color="#6b85b3"/></linearGradient><mask id="mask" x="32.97" y="15.04" width="44.34" height="21.38" maskUnits="userSpaceOnUse"><polygon class="cls-1" points="32.97 36.42 39.67 36.42 36.31 34.48 32.97 36.42"/><polygon class="cls-1" points="37.77 33.64 42.61 36.42 48.02 36.42 48.27 36.28 40.72 31.93 37.77 33.64"/><polygon class="cls-1" points="49.54 26.79 57.09 31.15 60.03 29.44 52.48 25.09 49.54 26.79"/><polygon class="cls-1" points="69.75 15.04 65.84 17.32 73.39 21.68 73.39 21.68 77.31 19.4 69.75 15.04"/></mask><linearGradient id="未命名的渐变_3736" x1="68.08" y1="35.39" x2="42.2" y2="20.44" gradientUnits="userSpaceOnUse"><stop offset="0" stop-color="#142439" stop-opacity="0"/><stop offset="1" stop-color="#142439" stop-opacity="0.8"/></linearGradient></defs><title>卸船机</title><g class="cls-4"><g id="图层_2" data-name="图层 2"><g id="图库"><g id="卸船机"><g class="cls-5"><rect class="cls-6" width="150" height="150"/><rect id="网格" class="cls-7" width="150" height="150"/></g><g class="cls-4"><polygon class="cls-8" points="61.12 110.02 57.2 112.3 85.82 128.82 89.74 126.54 61.12 110.02"/><polygon class="cls-9" points="57.29 79.69 57.2 112.3 61.12 110.02 61.21 77.41 57.29 79.69"/><polygon class="cls-8" points="61.22 75.14 57.3 77.42 85.36 93.62 89.28 91.34 61.22 75.14"/><polygon class="cls-9" points="57.47 16.82 57.3 77.42 61.22 75.14 61.39 14.54 57.47 16.82"/><polygon class="cls-10" points="62.08 14.02 58.16 16.3 85.92 92.74 89.84 90.46 62.08 14.02"/><path class="cls-11" d="M56.49,11.93l-.28,100.93L86.8,130.52l.28-100.93Zm1,4.89,27.89,76.8L57.3,77.42Zm28.35,112L57.2,112.3l.09-32.61L85.91,96.22Zm.1-36.08L58.16,16.3,86.09,32.42Z"/><polygon class="cls-9" points="87.08 29.59 86.8 130.52 90.72 128.24 91.01 27.31 87.08 29.59"/><polygon class="cls-8" points="60.42 9.65 56.49 11.93 87.08 29.59 91.01 27.31 60.42 9.65"/></g><g class="cls-4"><polygon class="cls-8" points="84.97 129.46 57.25 145.47 58.23 146.04 85.95 130.03 84.97 129.46"/><polygon class="cls-12" points="57.27 142.89 56.29 142.32 56.31 147.15 57.29 147.72 57.27 142.89"/><polygon class="cls-13" points="75.81 103.79 74.83 103.22 84.97 129.46 85.95 130.03 75.81 103.79"/><polygon class="cls-14" points="76.93 102.01 74.83 103.22 75.81 103.79 77.91 102.58 76.93 102.01"/><polygon class="cls-9" points="86.89 129.49 86.88 125.79 77.91 102.58 75.81 103.79 85.95 130.03 58.23 146.04 68.18 108.2 66.09 109.41 57.27 142.89 57.29 147.72 86.89 130.62 86.89 129.49"/><polygon class="cls-15" points="65.11 108.84 56.29 142.32 57.27 142.89 66.09 109.41 65.11 108.84"/><polygon class="cls-14" points="67.2 107.63 65.11 108.84 66.09 109.41 68.18 108.2 67.2 107.63"/></g><g class="cls-4"><polygon class="cls-8" points="55.06 112.07 27.34 128.08 28.32 128.65 56.04 112.64 55.06 112.07"/><polygon class="cls-16" points="27.36 125.5 26.38 124.93 26.4 129.75 27.38 130.32 27.36 125.5"/><polygon class="cls-17" points="45.9 86.4 44.92 85.83 55.06 112.07 56.04 112.64 45.9 86.4"/><polygon class="cls-18" points="47.02 84.62 44.92 85.83 45.9 86.4 48 85.19 47.02 84.62"/><polygon class="cls-9" points="56.98 112.1 56.97 108.4 48 85.19 45.9 86.4 56.04 112.64 28.32 128.65 38.27 90.81 36.17 92.02 27.36 125.5 27.38 130.32 56.98 113.23 56.98 112.1"/><polygon class="cls-15" points="35.19 91.45 26.38 124.93 27.36 125.5 36.17 92.02 35.19 91.45"/><polygon class="cls-18" points="37.29 90.24 35.19 91.45 36.17 92.02 38.27 90.81 37.29 90.24"/></g><g class="cls-4"><polygon class="cls-9" points="86.81 95.82 57.2 112.91 57.21 115.18 86.82 98.09 86.81 95.82"/><polygon class="cls-19" points="57.2 112.91 56.22 112.34 56.23 114.61 57.21 115.18 57.2 112.91"/><polygon class="cls-8" points="85.83 95.25 56.22 112.34 57.2 112.91 86.81 95.82 85.83 95.25"/></g><g class="cls-4"><polygon class="cls-9" points="56.9 77.86 27.29 94.95 27.3 97.21 56.91 80.12 56.9 77.86"/><polygon class="cls-19" points="27.29 94.95 26.31 94.38 26.32 96.64 27.3 97.21 27.29 94.95"/><polygon class="cls-8" points="55.92 77.29 26.31 94.38 27.29 94.95 56.9 77.86 55.92 77.29"/></g><g class="cls-4"><path class="cls-20" d="M118.5,93a2.75,2.75,0,0,0-2.85-.12l-7.84,4.56a2.73,2.73,0,0,1,2.85.12c2.62,1.51,4.73,6.38,4.72,9.38a3.33,3.33,0,0,1-1.38,3l7.84-4.56a3.35,3.35,0,0,0,1.39-3C123.23,99.42,121.12,94.56,118.5,93Z"/><path class="cls-21" d="M110.66,97.6c-2.62-1.51-4.76.9-4.77,3.91a10.46,10.46,0,0,0,4.73,8.19c2.62,1.51,4.75.3,4.76-2.72S113.28,99.11,110.66,97.6Z"/></g><g class="cls-4"><path class="cls-22" d="M116.09,92.84l0,0-.84.86.49-.28.84-.86s0,0,0,0Z"/><path class="cls-16" d="M116.81,93.06a1.38,1.38,0,0,0-.53-.62.43.43,0,0,0-.53,0l-1.2,1.23a3.07,3.07,0,0,1,.67,0l.84-.86a.18.18,0,0,1,.22,0,.65.65,0,0,1,.22.28l.84,1.84a6.56,6.56,0,0,1,.66.72Z"/><path class="cls-23" d="M117.3,92.77a1.35,1.35,0,0,0-.53-.61.46.46,0,0,0-.46,0l-.49.29a.46.46,0,0,1,.46,0,1.38,1.38,0,0,1,.53.62L118,95.69l.5-.29Z"/></g><g class="cls-4"><path class="cls-1" d="M112.66,94.83l0,0-.15.16,3.43-2,.15-.16,0,0Z"/><path class="cls-1" d="M113.37,95.05a1.42,1.42,0,0,0-.52-.62.43.43,0,0,0-.53,0l-.31.32.46.26.15-.16a.17.17,0,0,1,.22,0,.53.53,0,0,1,.23.27l.15.34.46.26Z"/><path class="cls-24" d="M116.8,93.05a1.28,1.28,0,0,0-.52-.61.46.46,0,0,0-.46,0l-3.43,2a.48.48,0,0,1,.46,0,1.42,1.42,0,0,1,.52.62l.31.67,3.43-2Z"/></g><g class="cls-4"><path class="cls-22" d="M112.24,95.08a.08.08,0,0,0,0,0l-.84.86.49-.29.84-.86,0,0Z"/><path class="cls-16" d="M113,95.3a1.35,1.35,0,0,0-.53-.61.42.42,0,0,0-.53,0l-1.2,1.24a2.19,2.19,0,0,1,.67,0l.84-.86a.16.16,0,0,1,.22,0,.55.55,0,0,1,.22.28l.84,1.84a7.64,7.64,0,0,1,.67.71Z"/><path class="cls-25" d="M113.44,95a1.4,1.4,0,0,0-.53-.61.46.46,0,0,0-.46-.05l-.49.29a.46.46,0,0,1,.46,0,1.35,1.35,0,0,1,.53.61l1.2,2.63.49-.28Z"/></g><g class="cls-4"><polygon class="cls-26" points="115.17 70.92 114.68 71.2 114.19 70.92 114.68 70.63 115.17 70.92"/><polygon class="cls-27" points="115.17 70.92 115.11 93.6 114.62 93.88 114.68 71.2 115.17 70.92"/><polygon class="cls-16" points="114.68 71.2 114.62 93.88 114.12 93.6 114.19 70.92 114.68 71.2"/></g><g class="cls-4"><polygon class="cls-9" points="12.86 15.84 12.85 20.38 21.67 15.25 21.68 10.71 12.86 15.84"/><polygon class="cls-11" points="21.68 10.71 21.67 15.25 137.14 81.91 137.16 77.38 21.68 10.71"/><g class="cls-4"><polygon class="cls-9" points="118.18 68.35 109.3 73.47 109.31 74.61 118.19 69.48 118.18 68.35"/><polygon class="cls-19" points="109.3 73.47 108.32 72.9 108.32 74.04 109.31 74.61 109.3 73.47"/><polygon class="cls-8" points="117.2 67.78 108.32 72.9 109.3 73.47 118.18 68.35 117.2 67.78"/></g><path class="cls-8" d="M21.66,7.29,7,15.84,128.35,85.93l14.71-8.55ZM128.33,82.51,12.86,15.84l8.82-5.13L137.15,77.38Z"/><polygon class="cls-9" points="128.35 85.93 128.34 90.46 143.04 81.92 143.06 77.38 128.35 85.93"/><polygon class="cls-11" points="6.96 15.84 6.95 20.38 128.34 90.46 128.35 85.93 6.96 15.84"/></g><g class="cls-4"><polygon class="cls-11" points="76.24 43.92 72.32 41.64 72.3 35.97 76.23 38.25 76.24 43.92"/><polygon class="cls-11" points="64.4 50.76 60.48 48.48 60.46 42.81 64.39 45.09 64.4 50.76"/><polygon class="cls-9" points="87.08 29.71 87.08 31.98 80.17 35.97 80.19 41.08 79.69 40.79 76.73 42.5 76.73 43.64 76.24 43.92 76.23 38.25 68.33 42.81 68.35 47.91 67.85 47.63 64.89 49.34 64.89 50.47 64.4 50.76 64.39 45.09 57.48 49.08 57.47 46.81 87.08 29.71"/><polygon class="cls-12" points="57.48 49.08 53.55 46.8 53.55 44.53 57.47 46.81 57.48 49.08"/><polygon class="cls-8" points="57.47 46.81 53.55 44.53 83.16 27.43 87.08 29.71 57.47 46.81"/></g><g class="cls-4"><polygon class="cls-8" points="27.73 129.49 23.8 131.77 52.43 148.3 56.35 146.02 27.73 129.49"/><polygon class="cls-9" points="23.9 99.17 23.8 131.77 27.73 129.49 27.82 96.89 23.9 99.17"/><polygon class="cls-8" points="27.82 94.62 23.9 96.9 51.97 113.1 55.89 110.82 27.82 94.62"/><polygon class="cls-9" points="24.07 36.3 23.9 96.9 27.82 94.62 28 34.02 24.07 36.3"/><polygon class="cls-10" points="28.69 33.5 24.77 35.78 52.53 112.22 56.45 109.94 28.69 33.5"/><path class="cls-11" d="M23.1,31.4l-.28,100.94L53.41,150,53.7,49.07Zm1,4.9L52,113.1,23.9,96.9Zm28.36,112L23.8,131.77l.1-32.6,28.62,16.52Zm.1-36.08L24.77,35.78,52.7,51.9Z"/><polygon class="cls-9" points="53.7 49.07 53.41 150 57.33 147.72 57.62 46.79 53.7 49.07"/><polygon class="cls-8" points="27.02 29.12 23.1 31.4 53.7 49.07 57.62 46.79 27.02 29.12"/></g><g class="cls-4"><polygon class="cls-11" points="23.13 21.65 23.1 30.73 32.97 36.42 32.99 27.35 23.13 21.65"/><polygon class="cls-9" points="32.99 27.35 32.97 36.42 70.23 14.77 70.25 5.7 32.99 27.35"/><polygon class="cls-8" points="60.39 0 23.13 21.65 32.99 27.35 70.25 5.7 60.39 0"/></g><g class="cls-4"><polygon class="cls-13" points="83.71 19.49 82.79 18.55 85.39 28.85 86.2 29.32 83.71 19.49"/><polygon class="cls-9" points="87.07 15.59 69.91 25.56 53.13 48.41 57.08 46.13 71.19 26.79 83.71 19.49 86.2 29.32 90.14 27.04 87.07 15.59"/><polygon class="cls-15" points="68.92 24.99 52 47.75 53.13 48.41 69.91 25.56 68.92 24.99"/><polygon class="cls-8" points="86.15 14.65 68.99 24.62 69.91 25.56 87.07 15.59 86.15 14.65"/></g><g class="cls-4"><polygon class="cls-11" points="68.93 21.59 68.92 24.99 69.91 25.56 69.92 22.16 68.93 21.59"/><polygon class="cls-9" points="69.92 22.16 69.91 25.56 87.07 15.59 87.08 12.19 69.92 22.16"/><polygon class="cls-8" points="86.09 11.62 68.93 21.59 69.92 22.16 87.08 12.19 86.09 11.62"/></g><g class="cls-4"><polygon class="cls-11" points="72.52 22.09 72.51 23.04 101.05 70.18 102.04 70.75 72.52 22.09"/><polygon class="cls-10" points="75.46 20.38 72.52 22.09 102.04 70.75 104.98 69.04 75.46 20.38"/></g><g class="cls-4"><polygon class="cls-11" points="84.34 15.27 84.33 16.21 112.87 63.36 113.86 63.93 84.34 15.27"/><polygon class="cls-10" points="87.28 13.56 84.34 15.27 113.86 63.93 116.8 62.22 87.28 13.56"/></g><g class="cls-28"><polygon class="cls-29" points="77.31 19.4 48.02 36.42 32.97 36.42 69.76 15.04 77.31 19.4"/></g></g></g></g></g></svg>