<svg xmlns="http://www.w3.org/2000/svg" xmlns:xlink="http://www.w3.org/1999/xlink" viewBox="0 0 150 150"><defs><style>.cls-1,.cls-2{fill:none;}.cls-2{stroke:#fff;stroke-miterlimit:10;stroke-width:0.1px;}.cls-3{opacity:0;}.cls-4{fill:#000714;}.cls-5{opacity:0.1;fill:url(#新建图案);}.cls-6{isolation:isolate;}.cls-7{fill:url(#未命名的渐变_309);}.cls-8{fill:#87a2c7;}.cls-9{fill:#89a3c8;}.cls-10{fill:#859cc5;}.cls-11{fill:#8aa7ca;}.cls-12{fill:#809dc2;}.cls-13{fill:#8ca6cc;}.cls-14{fill:#7e99be;}.cls-15{fill:#7893b8;}.cls-16{fill:#88a2c7;}.cls-17{fill:#5d779e;}.cls-18{fill:#5a749d;}.cls-19{fill:#7b97bc;}.cls-20{fill:#869ec6;}.cls-21{fill:#718ab3;}.cls-22{fill:#88a4c9;}.cls-23{fill:#5e7aa0;}.cls-24{fill:#59739c;}.cls-25{fill:#809dc0;}.cls-26{fill:#839ec4;}.cls-27{fill:#8da6cc;}.cls-28{fill:#6d87ae;}.cls-29{fill:#8ba8cb;}.cls-30{fill:#627ca4;}.cls-31{fill:#7a95bb;}.cls-32{fill:#6782a9;}.cls-33{fill:#657fa6;}.cls-34{fill:#8ca9cc;}.cls-35{fill:#8daacd;}.cls-36{fill:#87a5c7;}.cls-37{fill:#7c95bd;}.cls-38{fill:#7690b7;}.cls-39{fill:#627ea4;}.cls-40{fill:#8da4cd;}.cls-41{fill:#6a86ab;}.cls-42{fill:#7893b9;}.cls-43{fill:#5f7aa1;}.cls-44{fill:#728db3;}.cls-45{fill:#6d86af;}.cls-46{fill:#758db5;}.cls-47{fill:#8ba8cc;}.cls-48{fill:#728eb3;}.cls-49{fill:#6f89b0;}.cls-50{fill:#8aa6cb;}.cls-51{fill:#6a82ab;}.cls-52{fill:#6c86ae;}.cls-53{fill:#879fc7;}.cls-54{fill:#6884a9;}.cls-55{fill:#7d97bd;}.cls-56{fill:#839dc3;}.cls-57{fill:#657ea6;}.cls-58{fill:#8ca4cc;}.cls-59{fill:#627ba4;}.cls-60{fill:#809cc1;}.cls-61{fill:#839ec2;}.cls-62{fill:#7f9bbe;}.cls-63{fill:#617da3;}.cls-64{fill:#7f9ac0;}.cls-65{fill:#849fc4;}.cls-66{fill:#7d96bd;}.cls-67{fill:#5e78a0;}.cls-68{fill:#5c769e;}.cls-69{fill:#7792b8;}.cls-70{fill:#5b759e;}.cls-71{fill:#5a759c;}.cls-72{fill:#6d89af;}.cls-73{fill:#6d88ae;}.cls-74{fill:#8099c2;}.cls-75{fill:#6a86ac;}.cls-76{fill:#6783a9;}.cls-77{fill:#7d98be;}.cls-78{fill:#647fa6;}.cls-79{fill:#6581a7;}.cls-80{fill:#617ba3;}.cls-81{fill:#7791b8;}.cls-82{fill:#738fb3;}.cls-83{fill:#8ba3cc;}.cls-84{fill:#89a5ca;}.cls-85{fill:#6681a8;}.cls-86{fill:#647da4;}.cls-87{fill:#7894b8;}.cls-88{fill:#5a769d;}.cls-89{fill:#748cb4;}.cls-90{fill:#6985aa;}.cls-91{fill:#647da6;}.cls-92{fill:#607ba2;}.cls-93{fill:url(#未命名的渐变_10);}.cls-94{fill:url(#未命名的渐变_309-2);}.cls-95{fill:url(#未命名的渐变_309-3);}.cls-96{fill:url(#未命名的渐变_10-2);}.cls-97{fill:#000713;}.cls-98{opacity:0.2;}</style><pattern id="新建图案" data-name="新建图案" width="18.57" height="32.16" patternTransform="translate(3727.37 917.05)" patternUnits="userSpaceOnUse" viewBox="0 0 18.57 32.16"><rect class="cls-1" width="18.57" height="32.16"/><polyline class="cls-2" points="18.57 21.44 18.57 32.16 18.57 42.88"/><polyline class="cls-2" points="9.29 26.8 18.57 32.16 27.85 37.51 27.85 37.52"/><polyline class="cls-2" points="9.29 37.52 9.29 37.51 18.57 32.16 27.85 26.8"/><polygon class="cls-2" points="27.85 37.52 27.85 26.8 18.57 21.44 9.28 26.8 9.28 37.52 18.57 42.88 27.85 37.52"/><polyline class="cls-2" points="0 21.44 0 32.16 0 42.88"/><polyline class="cls-2" points="-9.28 26.8 0 32.16 9.28 37.51 9.28 37.52"/><polyline class="cls-2" points="-9.28 37.52 -9.28 37.51 0 32.16 9.28 26.8"/><polygon class="cls-2" points="9.28 37.52 9.28 26.8 0 21.44 -9.29 26.8 -9.29 37.52 0 42.88 9.28 37.52"/><polyline class="cls-2" points="18.57 10.72 27.85 16.08 37.13 21.43 37.13 21.44"/><polyline class="cls-2" points="18.57 21.44 18.57 21.43 27.85 16.08 37.13 10.72"/><polygon class="cls-2" points="37.14 21.44 37.14 10.72 27.85 5.36 18.57 10.72 18.57 21.44 27.85 26.8 37.14 21.44"/><polyline class="cls-2" points="9.29 5.36 9.29 16.08 9.29 26.8"/><polyline class="cls-2" points="0.01 10.72 9.29 16.08 18.57 21.43 18.57 21.44"/><polyline class="cls-2" points="0.01 21.44 0.01 21.43 9.29 16.08 18.57 10.72"/><polygon class="cls-2" points="18.57 21.44 18.57 10.72 9.28 5.36 0 10.72 0 21.44 9.28 26.8 18.57 21.44"/><polyline class="cls-2" points="-18.56 10.72 -9.28 16.08 0 21.43 0 21.44"/><polyline class="cls-2" points="-18.56 21.44 -18.56 21.43 -9.28 16.08 0 10.72"/><polygon class="cls-2" points="0 21.44 0 10.72 -9.29 5.36 -18.57 10.72 -18.57 21.44 -9.29 26.8 0 21.44"/><polyline class="cls-2" points="18.57 -10.72 18.57 0 18.57 10.72"/><polyline class="cls-2" points="9.29 -5.36 18.57 0 27.85 5.35 27.85 5.36"/><polyline class="cls-2" points="9.29 5.36 9.29 5.35 18.57 0 27.85 -5.36"/><polygon class="cls-2" points="27.85 5.36 27.85 -5.36 18.57 -10.72 9.28 -5.36 9.28 5.36 18.57 10.72 27.85 5.36"/><polyline class="cls-2" points="0 -10.72 0 0 0 10.72"/><polyline class="cls-2" points="-9.28 -5.36 0 0 9.28 5.35 9.28 5.36"/><polyline class="cls-2" points="-9.28 5.36 -9.28 5.35 0 0 9.28 -5.36"/><polygon class="cls-2" points="9.28 5.36 9.28 -5.36 0 -10.72 -9.29 -5.36 -9.29 5.36 0 10.72 9.28 5.36"/></pattern><linearGradient id="未命名的渐变_309" x1="103.67" y1="136.86" x2="103.67" y2="12.46" gradientUnits="userSpaceOnUse"><stop offset="0" stop-color="#283140"/><stop offset="0.1" stop-color="#12161a"/><stop offset="0.6" stop-color="#7a98cc"/><stop offset="0.8" stop-color="#7a98cc"/><stop offset="1" stop-color="#38455a"/></linearGradient><linearGradient id="未命名的渐变_10" x1="41.13" y1="111.38" x2="115.7" y2="36.81" gradientUnits="userSpaceOnUse"><stop offset="0" stop-color="#283140"/><stop offset="1" stop-color="#12161a"/></linearGradient><linearGradient id="未命名的渐变_309-2" x1="93.4" y1="127.14" x2="37.41" y2="30.17" xlink:href="#未命名的渐变_309"/><linearGradient id="未命名的渐变_309-3" x1="46.78" y1="150" x2="46.78" y2="0" xlink:href="#未命名的渐变_309"/><linearGradient id="未命名的渐变_10-2" x1="32.63" y1="121.97" x2="126.78" y2="27.82" xlink:href="#未命名的渐变_10"/></defs><title>变桨轴承</title><g id="图层_2" data-name="图层 2"><g id="图元"><g id="变桨轴承"><g id="背景" class="cls-3"><rect class="cls-4" width="150" height="150"/><rect id="网格" class="cls-5" width="150" height="150"/></g><g class="cls-6"><path class="cls-7" d="M113.49,136l-32.75.67H80l-8.55.15a33.18,33.18,0,0,0,4.59-.41h0A40,40,0,0,0,90,131.56c24-13.75,34.65-50.21,23.79-81.46C106.33,28.78,90.83,15.45,74.1,13.49a41.75,41.75,0,0,0-4.33-.26l41.35-.77c9,7.62,16.48,18.59,21.27,32.23C144,77.9,135.42,116,113.49,136Z"/><g class="cls-6"><polygon class="cls-8" points="121.94 70.31 118.86 70.54 118.78 69.5 121.86 69.27 121.94 70.31"/><polygon class="cls-9" points="122.18 75.08 119.11 75.31 119.08 74.3 122.15 74.06 122.18 75.08"/><polygon class="cls-10" points="121.4 65.61 118.32 65.84 118.16 64.8 121.23 64.56 121.4 65.61"/><polygon class="cls-11" points="122.09 79.83 119.02 80.07 119.05 79.01 122.13 78.78 122.09 79.83"/><polygon class="cls-12" points="120.5 60.95 117.43 61.19 117.2 60.19 120.27 59.95 120.5 60.95"/><polygon class="cls-13" points="121.66 84.53 118.58 84.77 118.7 83.72 121.77 83.48 121.66 84.53"/><polygon class="cls-14" points="119.31 56.37 116.24 56.61 115.94 55.64 119.02 55.4 119.31 56.37"/><polygon class="cls-15" points="120.16 71.59 117.08 71.83 118.86 70.54 121.94 70.31 120.16 71.59"/><polygon class="cls-16" points="120.24 72.94 117.17 73.18 117.08 71.83 120.16 71.59 120.24 72.94"/><polygon class="cls-17" points="122.15 74.06 119.08 74.3 117.17 73.18 120.24 72.94 122.15 74.06"/><polygon class="cls-18" points="121.86 69.27 118.78 69.5 116.81 68.63 119.88 68.39 121.86 69.27"/><polygon class="cls-19" points="119.72 67.04 116.64 67.28 118.32 65.84 121.4 65.61 119.72 67.04"/><polygon class="cls-20" points="119.88 68.39 116.81 68.63 116.64 67.28 119.72 67.04 119.88 68.39"/><polygon class="cls-21" points="120.27 76.13 117.19 76.37 119.11 75.31 122.18 75.08 120.27 76.13"/><polygon class="cls-22" points="120.28 77.52 117.21 77.75 117.19 76.37 120.27 76.13 120.28 77.52"/><polygon class="cls-23" points="122.13 78.78 119.05 79.01 117.21 77.75 120.28 77.52 122.13 78.78"/><polygon class="cls-24" points="121.23 64.56 118.16 64.8 116.1 64.13 119.17 63.89 121.23 64.56"/><polygon class="cls-25" points="118.94 62.58 115.86 62.82 117.43 61.19 120.5 60.95 118.94 62.58"/><polygon class="cls-26" points="119.17 63.89 116.1 64.13 115.86 62.82 118.94 62.58 119.17 63.89"/><polygon class="cls-27" points="120.87 89.17 117.79 89.41 118 88.36 121.07 88.12 120.87 89.17"/><polygon class="cls-28" points="120.1 80.67 117.02 80.91 119.02 80.07 122.09 79.83 120.1 80.67"/><polygon class="cls-29" points="120.01 82.02 116.94 82.25 117.02 80.91 120.1 80.67 120.01 82.02"/><polygon class="cls-30" points="121.77 83.48 118.7 83.72 116.94 82.25 120.01 82.02 121.77 83.48"/><polygon class="cls-24" points="120.27 59.95 117.2 60.19 115.09 59.7 118.16 59.46 120.27 59.95"/><polygon class="cls-31" points="117.77 51.94 114.7 52.17 114.33 51.24 117.41 51.01 117.77 51.94"/><polygon class="cls-26" points="117.83 58.21 114.76 58.44 116.24 56.61 119.31 56.37 117.83 58.21"/><polygon class="cls-25" points="118.16 59.46 115.09 59.7 114.76 58.44 117.83 58.21 118.16 59.46"/><polygon class="cls-32" points="119.58 85.16 116.5 85.4 118.58 84.77 121.66 84.53 119.58 85.16"/><polygon class="cls-33" points="121.07 88.12 118 88.36 116.32 86.69 119.39 86.46 121.07 88.12"/><polygon class="cls-34" points="119.39 86.46 116.32 86.69 116.5 85.4 119.58 85.16 119.39 86.46"/><polygon class="cls-24" points="119.02 55.4 115.94 55.64 113.8 55.38 116.87 55.14 119.02 55.4"/><polygon class="cls-35" points="119.78 93.67 116.71 93.91 116.97 92.93 120.05 92.69 119.78 93.67"/><polygon class="cls-36" points="116.44 53.94 113.36 54.18 114.7 52.17 117.77 51.94 116.44 53.94"/><polygon class="cls-37" points="116.87 55.14 113.8 55.38 113.36 54.18 116.44 53.94 116.87 55.14"/><polygon class="cls-38" points="115.98 47.7 112.91 47.93 112.46 47 115.53 46.77 115.98 47.7"/><polygon class="cls-39" points="118.77 89.55 115.7 89.79 117.79 89.41 120.87 89.17 118.77 89.55"/><polygon class="cls-40" points="118.49 90.8 115.42 91.04 115.7 89.79 118.77 89.55 118.49 90.8"/><polygon class="cls-41" points="120.05 92.69 116.97 92.93 115.42 91.04 118.49 90.8 120.05 92.69"/><polygon class="cls-24" points="117.41 51.01 114.33 51.24 112.2 51.23 115.28 51 117.41 51.01"/><polygon class="cls-42" points="115.28 51 112.2 51.23 111.71 50.07 114.78 49.84 115.28 51"/><polygon class="cls-22" points="114.78 49.84 111.71 50.07 112.91 47.93 115.98 47.7 114.78 49.84"/><polygon class="cls-34" points="118.38 98 115.31 98.23 115.64 97.32 118.72 97.08 118.38 98"/><polygon class="cls-43" points="117.66 93.87 114.58 94.11 116.71 93.91 119.78 93.67 117.66 93.87"/><polygon class="cls-44" points="113.86 43.65 110.78 43.89 110.29 43.04 113.36 42.8 113.86 43.65"/><polygon class="cls-27" points="117.29 95.01 114.21 95.25 114.58 94.11 117.66 93.87 117.29 95.01"/><polygon class="cls-45" points="118.72 97.08 115.64 97.32 114.21 95.25 117.29 95.01 118.72 97.08"/><polygon class="cls-29" points="112.83 45.9 109.75 46.14 110.78 43.89 113.86 43.65 112.83 45.9"/><polygon class="cls-46" points="113.44 47.05 110.36 47.28 109.75 46.14 112.83 45.9 113.44 47.05"/><polygon class="cls-47" points="116.68 102.19 113.61 102.42 113.99 101.53 117.06 101.29 116.68 102.19"/><polygon class="cls-13" points="115.8 99.13 112.73 99.36 113.18 98.22 116.25 97.99 115.8 99.13"/><polygon class="cls-48" points="117.06 101.29 113.99 101.53 112.73 99.36 115.8 99.13 117.06 101.29"/><polygon class="cls-28" points="111.49 39.8 108.41 40.04 107.86 39.27 110.94 39.03 111.49 39.8"/><polygon class="cls-49" points="111.33 43.25 108.26 43.48 107.54 42.4 110.62 42.16 111.33 43.25"/><polygon class="cls-34" points="110.62 42.16 107.54 42.4 108.41 40.04 111.49 39.8 110.62 42.16"/><polygon class="cls-50" points="114.7 106.17 111.62 106.41 112.06 105.54 115.13 105.3 114.7 106.17"/><polygon class="cls-11" points="114.02 103 110.94 103.23 111.5 102.14 114.57 101.91 114.02 103"/><polygon class="cls-38" points="115.13 105.3 112.06 105.54 110.94 103.23 114.02 103 115.13 105.3"/><polygon class="cls-51" points="108.86 36.25 105.79 36.48 105.17 35.75 108.25 35.52 108.86 36.25"/><polygon class="cls-40" points="108.18 38.66 105.11 38.9 105.79 36.48 108.86 36.25 108.18 38.66"/><polygon class="cls-52" points="108.94 39.66 105.87 39.9 105.11 38.9 108.18 38.66 108.94 39.66"/><polygon class="cls-53" points="112.4 109.88 109.32 110.11 109.84 109.35 112.92 109.11 112.4 109.88"/><polygon class="cls-31" points="112.92 109.11 109.84 109.35 108.89 106.95 111.97 106.71 112.92 109.11"/><polygon class="cls-16" points="111.97 106.71 108.89 106.95 109.55 105.9 112.62 105.67 111.97 106.71"/><polygon class="cls-32" points="105.99 33 102.92 33.23 102.27 32.52 105.34 32.28 105.99 33"/><polygon class="cls-27" points="105.49 35.46 102.42 35.69 102.92 33.23 105.99 33 105.49 35.46"/><polygon class="cls-54" points="106.3 36.38 103.23 36.62 102.42 35.69 105.49 35.46 106.3 36.38"/><polygon class="cls-10" points="109.64 110.13 106.56 110.36 107.3 109.42 110.37 109.19 109.64 110.13"/><polygon class="cls-55" points="110.45 112.61 107.38 112.84 106.56 110.36 109.64 110.13 110.45 112.61"/><polygon class="cls-56" points="109.87 113.3 106.79 113.54 107.38 112.84 110.45 112.61 109.87 113.3"/><polygon class="cls-57" points="103.47 33.42 100.39 33.66 99.53 32.81 102.6 32.58 103.47 33.42"/><polygon class="cls-58" points="102.6 32.58 99.53 32.81 99.86 30.24 102.94 30 102.6 32.58"/><polygon class="cls-59" points="102.94 30 99.86 30.24 99.18 29.65 102.26 29.42 102.94 30"/><polygon class="cls-60" points="107.72 115.83 104.64 116.07 104.02 113.54 107.09 113.3 107.72 115.83"/><polygon class="cls-61" points="107.09 113.3 104.02 113.54 104.8 112.62 107.87 112.39 107.09 113.3"/><polygon class="cls-62" points="107.07 116.47 104 116.7 104.64 116.07 107.72 115.83 107.07 116.47"/><polygon class="cls-29" points="99.55 30 96.47 30.23 96.62 27.61 99.7 27.38 99.55 30"/><polygon class="cls-63" points="100.44 30.72 97.37 30.96 96.47 30.23 99.55 30 100.44 30.72"/><polygon class="cls-23" points="99.7 27.38 96.62 27.61 95.89 27.11 98.97 26.87 99.7 27.38"/><polygon class="cls-64" points="104.34 116.18 101.27 116.42 102.09 115.58 105.16 115.35 104.34 116.18"/><polygon class="cls-65" points="104.77 118.72 101.7 118.96 101.27 116.42 104.34 116.18 104.77 118.72"/><polygon class="cls-66" points="104.11 119.32 101.03 119.55 101.7 118.96 104.77 118.72 104.11 119.32"/><polygon class="cls-67" points="97.24 28.39 94.16 28.62 93.22 27.98 96.29 27.74 97.24 28.39"/><polygon class="cls-22" points="96.29 27.74 93.22 27.98 93.2 25.35 96.28 25.11 96.29 27.74"/><polygon class="cls-68" points="96.28 25.11 93.2 25.35 92.42 24.92 95.5 24.69 96.28 25.11"/><polygon class="cls-53" points="101.61 121.27 98.54 121.51 98.29 118.91 101.37 118.68 101.61 121.27"/><polygon class="cls-31" points="101.37 118.68 98.29 118.91 99.19 118.19 102.27 117.95 101.37 118.68"/><polygon class="cls-69" points="100.91 121.78 97.84 122.02 98.54 121.51 101.61 121.27 100.91 121.78"/><polygon class="cls-70" points="93.92 26.38 90.84 26.61 89.86 26.09 92.94 25.86 93.92 26.38"/><polygon class="cls-53" points="92.94 25.86 89.86 26.09 89.63 23.43 92.7 23.2 92.94 25.86"/><polygon class="cls-71" points="92.7 23.2 89.63 23.43 88.85 23.11 91.92 22.87 92.7 23.2"/><polygon class="cls-38" points="98.22 120.85 95.15 121.09 96.08 120.45 99.15 120.21 98.22 120.85"/><polygon class="cls-9" points="98.32 123.48 95.24 123.72 95.15 121.09 98.22 120.85 98.32 123.48"/><polygon class="cls-44" points="97.55 123.93 94.48 124.16 95.24 123.72 98.32 123.48 97.55 123.93"/><polygon class="cls-71" points="90.46 24.75 87.38 24.99 86.4 24.57 89.48 24.34 90.46 24.75"/><polygon class="cls-65" points="89.48 24.34 86.4 24.57 85.97 21.93 89.05 21.69 89.48 24.34"/><polygon class="cls-24" points="89.05 21.69 85.97 21.93 85.18 21.66 88.25 21.43 89.05 21.69"/><polygon class="cls-72" points="94.93 122.65 91.85 122.89 92.85 122.42 95.93 122.18 94.93 122.65"/><polygon class="cls-50" points="94.83 125.3 91.75 125.53 91.85 122.89 94.93 122.65 94.83 125.3"/><polygon class="cls-73" points="94.06 125.63 90.98 125.87 91.75 125.53 94.83 125.3 94.06 125.63"/><polygon class="cls-24" points="86.92 23.44 83.84 23.67 82.85 23.42 85.92 23.18 86.92 23.44"/><polygon class="cls-74" points="85.92 23.18 82.85 23.42 82.23 20.83 85.31 20.59 85.92 23.18"/><polygon class="cls-24" points="85.31 20.59 82.23 20.83 81.42 20.63 84.5 20.39 85.31 20.59"/><polygon class="cls-75" points="91.52 124.16 88.44 124.39 89.47 124 92.55 123.77 91.52 124.16"/><polygon class="cls-13" points="91.23 126.75 88.16 126.99 88.44 124.39 91.52 124.16 91.23 126.75"/><polygon class="cls-76" points="90.43 127 87.36 127.24 88.16 126.99 91.23 126.75 90.43 127"/><polygon class="cls-24" points="83.35 22.55 80.27 22.79 79.22 22.62 82.3 22.38 83.35 22.55"/><polygon class="cls-77" points="82.3 22.38 79.22 22.62 78.45 20.12 81.52 19.89 82.3 22.38"/><polygon class="cls-24" points="81.52 19.89 78.45 20.12 77.63 20.02 80.71 19.79 81.52 19.89"/><polygon class="cls-78" points="88.03 125.24 84.95 125.48 86 125.23 89.07 125 88.03 125.24"/><polygon class="cls-27" points="87.54 127.74 84.47 127.98 84.95 125.48 88.03 125.24 87.54 127.74"/><polygon class="cls-24" points="79.71 22.02 76.63 22.25 75.57 22.25 78.64 22.01 79.71 22.02"/><polygon class="cls-79" points="86.72 127.96 83.65 128.19 84.47 127.98 87.54 127.74 86.72 127.96"/><polygon class="cls-31" points="78.64 22.01 75.57 22.25 74.62 19.85 77.7 19.61 78.64 22.01"/><polygon class="cls-24" points="77.7 19.61 74.62 19.85 73.79 19.81 76.87 19.57 77.7 19.61"/><polygon class="cls-30" points="84.42 125.93 81.34 126.17 82.42 126.01 85.5 125.77 84.42 125.93"/><polygon class="cls-35" points="83.75 128.38 80.67 128.62 81.34 126.17 84.42 125.93 83.75 128.38"/><polygon class="cls-24" points="76.05 21.96 72.97 22.2 71.89 22.25 74.97 22.01 76.05 21.96"/><polygon class="cls-80" points="82.94 128.49 79.86 128.73 80.67 128.62 83.75 128.38 82.94 128.49"/><polygon class="cls-81" points="74.97 22.01 71.89 22.25 70.82 19.93 73.89 19.69 74.97 22.01"/><polygon class="cls-43" points="80.79 126.26 77.72 126.5 78.78 126.4 81.86 126.17 80.79 126.26"/><polygon class="cls-27" points="79.96 128.61 76.88 128.84 77.72 126.5 80.79 126.26 79.96 128.61"/><polygon class="cls-82" points="71.33 22.41 68.25 22.65 67.04 20.5 70.12 20.27 71.33 22.41"/><polygon class="cls-83" points="76.14 128.44 73.06 128.67 74.04 126.4 77.12 126.16 76.14 128.44"/><polygon class="cls-72" points="67.75 23.18 64.68 23.42 63.32 21.41 66.39 21.18 67.75 23.18"/><polygon class="cls-84" points="72.33 127.79 69.25 128.03 70.4 125.86 73.48 125.63 72.33 127.79"/><polygon class="cls-75" points="64.28 24.41 61.2 24.65 59.69 22.78 62.77 22.55 64.28 24.41"/><polygon class="cls-36" points="68.57 126.75 65.5 126.99 66.83 124.98 69.91 124.75 68.57 126.75"/><polygon class="cls-85" points="60.9 26 57.83 26.24 56.21 24.53 59.29 24.3 60.9 26"/><polygon class="cls-10" points="64.92 125.35 61.84 125.59 63.31 123.71 66.38 123.47 64.92 125.35"/><polygon class="cls-86" points="57.67 27.97 54.6 28.2 52.84 26.64 55.91 26.4 57.67 27.97"/><polygon class="cls-12" points="61.35 123.54 58.27 123.77 59.84 122.04 62.91 121.81 61.35 123.54"/><polygon class="cls-43" points="54.58 30.27 51.5 30.51 49.66 29.14 52.73 28.91 54.58 30.27"/><polygon class="cls-55" points="57.87 121.36 54.8 121.59 56.51 120.03 59.59 119.8 57.87 121.36"/><polygon class="cls-17" points="51.68 32.88 48.61 33.11 46.68 31.95 49.75 31.71 51.68 32.88"/><polygon class="cls-87" points="54.59 118.81 51.51 119.04 53.31 117.7 56.38 117.46 54.59 118.81"/><polygon class="cls-88" points="48.95 35.8 45.88 36.03 43.88 35.12 46.96 34.88 48.95 35.8"/><polygon class="cls-89" points="51.48 115.9 48.41 116.13 50.28 115 53.36 114.76 51.48 115.9"/><polygon class="cls-24" points="46.47 39.04 43.4 39.27 41.35 38.54 44.43 38.3 46.47 39.04"/><polygon class="cls-73" points="48.58 112.66 45.5 112.9 47.45 112.03 50.52 111.8 48.58 112.66"/><polygon class="cls-24" points="44.2 42.52 41.13 42.75 39.07 42.29 42.15 42.05 44.2 42.52"/><polygon class="cls-90" points="45.9 109.19 42.83 109.43 44.81 108.75 47.88 108.52 45.9 109.19"/><polygon class="cls-24" points="42.26 46.28 39.18 46.51 37.07 46.23 40.15 46 42.26 46.28"/><polygon class="cls-91" points="43.48 105.42 40.41 105.66 42.43 105.21 45.51 104.97 43.48 105.42"/><polygon class="cls-24" points="40.57 50.2 37.5 50.43 35.37 50.42 38.44 50.18 40.57 50.2"/><polygon class="cls-92" points="41.29 101.42 38.22 101.65 40.33 101.42 43.4 101.18 41.29 101.42"/><path class="cls-93" d="M120.92,49.55C109.25,19.9,80.67,6.73,57.25,20.25S24.24,69,35.91,98.63s40.24,42.82,63.7,29.28S132.6,79.24,120.92,49.55Zm1.17,30.28-2,.84L120,82l1.76,1.46-.11,1-2.08.63-.19,1.3,1.68,1.66-.2,1-2.1.38-.28,1.25,1.56,1.89-.27,1-2.13.2L117.29,95l1.42,2.07-.33.92h-2.13l-.45,1.14,1.26,2.16-.38.9-2.11-.28L114,103l1.11,2.3-.43.87-2.08-.5-.65,1,1,2.4-.52.77-2-.69-.73.94.81,2.47-.58.7-2-.91-.78.91.63,2.53-.65.64-1.91-1.12-.81.83.42,2.54-.66.6L102.26,118l-.89.73.24,2.59-.7.51-1.76-1.57-.93.64.1,2.64-.77.44-1.62-1.75-1,.47-.11,2.65-.76.33-1.51-1.86-1,.39-.29,2.59-.8.25-1.36-2-1,.24-.49,2.5-.81.22-1.23-2.19-1.08.16-.67,2.45-.82.11-1.07-2.32-1.07.09L80,128.61h-.82l-.94-2.4-1.08,0-1,2.28-.84-.14-.74-2.52-1.08-.15-1.15,2.16-.82-.2L70.92,125l-1-.29-1.34,2-.79-.27-.43-2.64-1-.38-1.46,1.88-.8-.37-.23-2.65-1-.52-1.56,1.73-.8-.47v-2.63l-.95-.64-1.72,1.55-.71-.57.14-2.55-.92-.77-1.79,1.35-.7-.63.35-2.53-.88-.89-1.88,1.14-.63-.67.48-2.51-.81-.92-1.94.86-.62-.73.69-2.41-.77-1-2,.67-.56-.81.87-2.36-.7-1-2,.45-.5-.85,1-2.29-.6-1.1-2.11.23-.43-.88L42,98.34l-.49-1.16H39.42l-.37-.92,1.34-2L40,93l-2.12-.22-.32-1L39,90l-.35-1.3-2.09-.45-.23-1,1.56-1.63-.25-1.35-2.06-.67-.14-1,1.66-1.48L37,79.79l-2-.88-.08-1,1.78-1.28-.09-1.35-1.89-1.08,0-1.06,1.92-1V70.71L34.7,69.4l0-1,2-.88.1-1.3-1.74-1.53.1-1L37.25,63l.18-1.3-1.67-1.66.21-1,2.08-.42.29-1.25-1.56-1.89.28-.94,2.13-.2.35-1.18L38.11,51.1l.33-.92h2.13L41,49.1l-1.28-2.21.38-.89,2.12.28.58-1.12-1.15-2.28.45-.83,2.07.46.66-1-.94-2.4.5-.81,2,.74.72-1-.82-2.47.59-.7,2,.91.78-.91-.61-2.49.63-.68,1.93,1.16.8-.87-.43-2.54.68-.55,1.85,1.36.88-.77-.25-2.59.7-.51L57.67,28l.93-.64-.08-2.59.77-.44L60.9,26l1-.47.1-2.64.77-.34,1.51,1.86,1-.34.29-2.6.78-.29,1.36,2,1.07-.2.46-2.54.84-.17,1.21,2.14,1.08-.16.67-2.45.81-.11L75,22,76.05,22l.82-2.39.83,0,.94,2.4h1.07l1-2.23.81.1.78,2.49,1,.17,1.15-2.16.81.2.61,2.59,1,.26,1.33-2,.8.26.43,2.65,1,.41,1.46-1.88.78.33.23,2.66,1,.52,1.59-1.69.78.42v2.63l.95.65L99,26.87l.73.51L99.55,30l.89.72,1.82-1.3.68.58-.34,2.58.87.84,1.87-1.14L106,33l-.5,2.46.81.92,2-.86.61.73-.68,2.41.76,1,2-.64.55.77-.87,2.36.71,1.09,2-.45.5.85-1,2.25.61,1.15,2.09-.28.45.93-1.2,2.14.5,1.16h2.13l.36.92-1.33,2,.43,1.2,2.15.26.29,1-1.48,1.84.33,1.25,2.11.49.23,1-1.56,1.63.23,1.31,2.06.68.17,1L119.72,67l.16,1.35,2,.88.08,1-1.78,1.28.08,1.35,1.91,1.12,0,1-1.91,1v1.39l1.85,1.26Z"/><path class="cls-94" d="M35.91,98.63C24.24,69,33.79,33.8,57.25,20.25a38.87,38.87,0,0,1,16.55-5.2l-3.08.23a38.93,38.93,0,0,0-16.55,5.21C30.72,34,21.17,69.21,32.83,98.87c9,22.91,28.09,36,47.11,34.5l3.07-.24C64,134.6,44.93,121.55,35.91,98.63Z"/></g><path class="cls-95" d="M27.09,105.14C13.93,67.3,26.83,23.08,55.91,6.38A46.61,46.61,0,0,1,78.34,0L68.85.17A46.52,46.52,0,0,0,46.41,6.56c-29.07,16.69-42,60.91-28.81,98.75,9.86,28.36,31.55,45.09,54,44.68l9.5-.17C58.64,150.23,37,133.49,27.09,105.14Z"/><path class="cls-96" d="M132.39,44.69c-4.79-13.64-12.26-24.61-21.27-32.23C95.21-1.13,74.51-4.27,55.92,6.38c-29.09,16.69-42,60.92-28.83,98.76s47.42,55,76.46,38.31a53.43,53.43,0,0,0,9.94-7.41C135.42,116,144,77.9,132.39,44.69Zm-33,86.76a38.81,38.81,0,0,1-18.64,5.26H80a34.08,34.08,0,0,1-3.91-.26h0c-16.79-1.91-32.34-15.24-39.75-36.61-10.87-31.2-.21-67.71,23.78-81.46a39.8,39.8,0,0,1,14-4.89C94.18,10.61,114.36,24.66,123.17,50,134,81.2,123.38,117.66,99.38,131.45Z"/><path class="cls-97" d="M128.18,44.77a1.31,1.31,0,0,1,1.82.86l.05.13,0,.13a1.84,1.84,0,0,1-.63,2.22c-.69.4-1.44,0-1.77-.84l0-.08L127.6,47A1.85,1.85,0,0,1,128.18,44.77Z"/><path class="cls-97" d="M131.2,53.41a1.4,1.4,0,0,1,1.71,1.18,1.8,1.8,0,0,1-.66,2l-.16.09a1.42,1.42,0,0,1-1.71-1.18l0,0a1.8,1.8,0,0,1,.67-2.1Z"/><path class="cls-97" d="M133.26,62.24c.7-.15,1.42.47,1.59,1.41a1.8,1.8,0,0,1-.76,1.78l-.35.15a1.53,1.53,0,0,1-1.55-1.43,1.76,1.76,0,0,1,.7-1.77A1.09,1.09,0,0,1,133.26,62.24Z"/><path class="cls-97" d="M134.32,71.23a1.58,1.58,0,0,1,1.45,1.65,1.8,1.8,0,0,1-.71,1.6l-.55.16c-.75,0-1.37-.76-1.45-1.69a1.69,1.69,0,0,1,.72-1.58A.93.93,0,0,1,134.32,71.23Z"/><path class="cls-97" d="M116.17,26a1.17,1.17,0,0,1-1.46-.24,2.14,2.14,0,0,1-.15-2.45,1.47,1.47,0,0,1,.43-.4,1.16,1.16,0,0,1,1.46.29,2,2,0,0,1,.13,2.41Z"/><path class="cls-97" d="M134.45,80.3a1.66,1.66,0,0,1,1.28,1.84,1.77,1.77,0,0,1-.77,1.33l-.69.19A1.74,1.74,0,0,1,133,81.8a1.66,1.66,0,0,1,.73-1.38A1,1,0,0,1,134.45,80.3Z"/><path class="cls-97" d="M110.4,20.33a1.09,1.09,0,0,1-1.3-.12,2.1,2.1,0,0,1-.44-2.38,1.44,1.44,0,0,1,.53-.56,1.13,1.13,0,0,1,1.33.15,2,2,0,0,1,.42,2.34Z"/><path class="cls-97" d="M133.65,89.23a1.87,1.87,0,0,1,1,2,1.42,1.42,0,0,1-.74,1.1l-.87.14a1.81,1.81,0,0,1-1-2,1.62,1.62,0,0,1,.73-1.15A1.07,1.07,0,0,1,133.65,89.23Z"/><path class="cls-97" d="M104.1,15.71a1.11,1.11,0,0,1-1.15-.06,1.92,1.92,0,0,1-.64-2.27,1.58,1.58,0,0,1,.63-.8,1.08,1.08,0,0,1,1.18.07,1.88,1.88,0,0,1,.62,2.22Z"/><path class="cls-97" d="M130.82,97.94a1.11,1.11,0,0,1,1-.07,1.89,1.89,0,0,1,.85,2.19l-.67,1-1.07,0a1.92,1.92,0,0,1-.82-2.21A1.56,1.56,0,0,1,130.82,97.94Z"/><path class="cls-97" d="M97.44,12.11l-1,0A2,2,0,0,1,95.52,10a1.58,1.58,0,0,1,.7-1,1.13,1.13,0,0,1,1-.08,1.83,1.83,0,0,1,.88,2.17Z"/><path class="cls-97" d="M128,106.11a1.12,1.12,0,0,1,1.19.06,2,2,0,0,1,.6,2.29l-.59.75a1.13,1.13,0,0,1-1.25-.11,1.93,1.93,0,0,1-.56-2.26A1.54,1.54,0,0,1,128,106.11Z"/><path class="cls-97" d="M89.63,9.7a1.74,1.74,0,0,1-1.1-2,1.59,1.59,0,0,1,.74-1.17,1.05,1.05,0,0,1,.81-.13,1.8,1.8,0,0,1,1.1,2,1.61,1.61,0,0,1-.73,1.24Z"/><path class="cls-97" d="M124.27,113.68a1.11,1.11,0,0,1,1.39.21,2.07,2.07,0,0,1,.35,2.37l-.54.47a1.11,1.11,0,0,1-1.35-.15,2.06,2.06,0,0,1-.35-2.38A1.39,1.39,0,0,1,124.27,113.68Z"/><path class="cls-97" d="M82.67,8.45a1.64,1.64,0,0,1-1.31-1.82,1.63,1.63,0,0,1,.73-1.4,1.15,1.15,0,0,1,.68-.14,1.69,1.69,0,0,1,1.28,1.84,1.67,1.67,0,0,1-.76,1.37Z"/><path class="cls-97" d="M119.78,120.52a1.21,1.21,0,0,1,1.55.36,2,2,0,0,1,.06,2.34v0l-.39.34a1.14,1.14,0,0,1-1.5-.33,2,2,0,0,1-.09-2.42A1.24,1.24,0,0,1,119.78,120.52Z"/><path class="cls-97" d="M75.68,8.36c-.78.08-1.45-.61-1.51-1.61a1.72,1.72,0,0,1,.73-1.6A1,1,0,0,1,75.39,5c.77-.09,1.37.65,1.49,1.56a1.79,1.79,0,0,1-.78,1.64Z"/><path class="cls-97" d="M114.61,126.53a1.22,1.22,0,0,1,1.65.48,2,2,0,0,1-.17,2.37l-.28.21a1.15,1.15,0,0,1-1.59-.47,2,2,0,0,1,.15-2.41A1.25,1.25,0,0,1,114.61,126.53Z"/><path class="cls-97" d="M68.76,9.51a1.47,1.47,0,0,1-1.61-1.34,1.79,1.79,0,0,1,.68-1.9,1.43,1.43,0,0,1,.31-.12c.69-.19,1.46.45,1.61,1.35a1.76,1.76,0,0,1-.68,1.88Z"/><path class="cls-97" d="M108.83,131.55a1.24,1.24,0,0,1,1.72.67,1.93,1.93,0,0,1-.43,2.31l-.12.12a1.23,1.23,0,0,1-1.72-.71,1.84,1.84,0,0,1,.43-2.31Z"/><path class="cls-97" d="M62.06,11.73c-.69.3-1.46-.14-1.74-1.06A1.84,1.84,0,0,1,61,8.59l.11-.06.07,0a1.37,1.37,0,0,1,1.7,1.08,1.78,1.78,0,0,1-.64,2.07Z"/><path class="cls-97" d="M102.55,135.55c.65-.38,1.44,0,1.75.89a1.79,1.79,0,0,1-.61,2.16l0,0a1.29,1.29,0,0,1-1.79-.88,1.84,1.84,0,0,1,.62-2.16Z"/><path class="cls-97" d="M55.65,15.12a1.28,1.28,0,0,1-1.79-.77,1.93,1.93,0,0,1,.53-2.27l.06,0a1.27,1.27,0,0,1,1.76.79,1.82,1.82,0,0,1-.53,2.27Z"/><path class="cls-97" d="M96,138.29a1.45,1.45,0,0,1,1.67,1.2,2,2,0,0,1-.69,2.06l-.22.07c-.7.25-1.44-.31-1.67-1.21a1.88,1.88,0,0,1,.71-2A.88.88,0,0,1,96,138.29Z"/><path class="cls-97" d="M49.58,19.71a1.25,1.25,0,0,1-1.69-.63,2,2,0,0,1,.3-2.34l.19-.13a1.19,1.19,0,0,1,1.68.6,1.94,1.94,0,0,1-.27,2.32Z"/><path class="cls-97" d="M89.17,140c.73-.11,1.4.59,1.54,1.49a1.83,1.83,0,0,1-.74,1.82l-.33.09,0,0a1.5,1.5,0,0,1-1.54-1.49,1.75,1.75,0,0,1,.76-1.79A1.11,1.11,0,0,1,89.17,140Z"/><path class="cls-97" d="M44.1,25.2a1.22,1.22,0,0,1-1.61-.42,2,2,0,0,1,.09-2.37,1.37,1.37,0,0,1,.32-.28,1.17,1.17,0,0,1,1.55.44,2,2,0,0,1,0,2.39Z"/><path class="cls-97" d="M82.18,140.49a1.66,1.66,0,0,1,1.42,1.71,1.7,1.7,0,0,1-.77,1.53l-.54.16a1.63,1.63,0,0,1-1.38-1.69,1.66,1.66,0,0,1,.74-1.56A1,1,0,0,1,82.18,140.49Z"/><path class="cls-97" d="M39.25,31.67a1.15,1.15,0,0,1-1.43-.26,2,2,0,0,1-.24-2.4A1.41,1.41,0,0,1,38,28.6a1.18,1.18,0,0,1,1.46.24,2,2,0,0,1,.23,2.35Z"/><path class="cls-97" d="M75.2,139.82a1.74,1.74,0,0,1,1.19,1.94,1.59,1.59,0,0,1-.7,1.29l-.76.12a1.74,1.74,0,0,1-1.19-1.94,1.57,1.57,0,0,1,.71-1.3A1,1,0,0,1,75.2,139.82Z"/><path class="cls-97" d="M35.18,38.92a1.16,1.16,0,0,1-1.3-.13,2,2,0,0,1-.47-2.36,1.38,1.38,0,0,1,.54-.6,1.11,1.11,0,0,1,1.28.12,2,2,0,0,1,.51,2.34Z"/><path class="cls-97" d="M68.32,138a1.89,1.89,0,0,1,1,2.12,1.74,1.74,0,0,1-.72,1l-.92.12a1.9,1.9,0,0,1-1-2.12,1.51,1.51,0,0,1,.69-1.09A1.08,1.08,0,0,1,68.32,138Z"/><path class="cls-97" d="M31.91,46.8a1.12,1.12,0,0,1-1.17,0,2,2,0,0,1-.66-2.25,1.41,1.41,0,0,1,.64-.83,1.11,1.11,0,0,1,1.13,0A1.9,1.9,0,0,1,32.52,46Z"/><path class="cls-97" d="M60.54,135a1,1,0,0,1,1.07,0,1.87,1.87,0,0,1,.75,2.25l-.62.88H60.66a2,2,0,0,1-.76-2.25A1.43,1.43,0,0,1,60.54,135Z"/><path class="cls-97" d="M29.51,55.26l-1,0a1.87,1.87,0,0,1-.91-2.16,1.48,1.48,0,0,1,.69-1,1.08,1.08,0,0,1,.93-.09,1.92,1.92,0,0,1,.95,2.14A1.58,1.58,0,0,1,29.51,55.26Z"/><path class="cls-97" d="M54.05,130.81a1.07,1.07,0,0,1,1.25.1,2,2,0,0,1,.5,2.34l-.56.63a1.14,1.14,0,0,1-1.23-.06,2,2,0,0,1-.57-2.31A1.46,1.46,0,0,1,54.05,130.81Z"/><path class="cls-97" d="M27.28,64.14a1.74,1.74,0,0,1-1.13-2,1.53,1.53,0,0,1,.7-1.23,1.12,1.12,0,0,1,.83-.12,1.73,1.73,0,0,1,1.11,1.94A1.68,1.68,0,0,1,28,64Z"/><path class="cls-97" d="M48,125.62a1.19,1.19,0,0,1,1.45.25,2,2,0,0,1,.22,2.35l-.49.49a1.1,1.1,0,0,1-1.36-.2,2,2,0,0,1-.29-2.41A1.44,1.44,0,0,1,48,125.62Z"/><path class="cls-97" d="M27,73.16a1.65,1.65,0,0,1-1.37-1.79,1.76,1.76,0,0,1,.75-1.44,1.16,1.16,0,0,1,.64-.14c.74,0,1.28.81,1.33,1.76A1.76,1.76,0,0,1,27.54,73Z"/><path class="cls-97" d="M42.53,119.5a1.15,1.15,0,0,1,1.54.38,2,2,0,0,1,0,2.4l-.36.31a1.22,1.22,0,0,1-1.56-.39,2.11,2.11,0,0,1,0-2.42A1.31,1.31,0,0,1,42.53,119.5Z"/><path class="cls-97" d="M39.42,113.06a2,2,0,0,1-.25,2.37l-.25.19a1.19,1.19,0,0,1-1.62-.56,2,2,0,0,1,.25-2.36,1.18,1.18,0,0,1,.22-.17A1.23,1.23,0,0,1,39.42,113.06Z"/><path class="cls-97" d="M35,107.87l0,.08a1.31,1.31,0,0,1-1.77-.73,1.89,1.89,0,0,1,.48-2.3l.12-.07a1.19,1.19,0,0,1,1.7.73A1.85,1.85,0,0,1,35,107.87Z"/><path class="cls-97" d="M31.65,99.73c-.68.34-1.46-.13-1.76-1a1.85,1.85,0,0,1,.65-2.18l.06,0a1.36,1.36,0,0,1,1.76,1,1.84,1.84,0,0,1-.65,2.18Z"/><path class="cls-97" d="M29.15,91.1a1.4,1.4,0,0,1-1.65-1.26,1.8,1.8,0,0,1,.68-1.94,1.3,1.3,0,0,1,.25-.1,1.4,1.4,0,0,1,1.66,1.26,1.83,1.83,0,0,1-.69,2Z"/><path class="cls-97" d="M27.59,82.19a1.5,1.5,0,0,1-1.54-1.49A1.77,1.77,0,0,1,26.79,79a1.07,1.07,0,0,1,.41-.15,1.56,1.56,0,0,1,1.5,1.57,1.72,1.72,0,0,1-.71,1.7Z"/><path class="cls-97" d="M119.73,32.09a2,2,0,0,1,.09-2.37,1.13,1.13,0,0,1,.3-.24,1.21,1.21,0,0,1,1.61.48,2.07,2.07,0,0,1-.09,2.37l-.31.24A1.14,1.14,0,0,1,119.73,32.09Z"/><path class="cls-97" d="M124,39.26a1.9,1.9,0,0,1,.35-2.32l.18-.12a1.18,1.18,0,0,1,1.67.65,1.86,1.86,0,0,1-.35,2.32l-.16.1A1.25,1.25,0,0,1,124,39.26Z"/></g></g></g></g></svg>