<svg xmlns="http://www.w3.org/2000/svg" xmlns:xlink="http://www.w3.org/1999/xlink" viewBox="0 0 150 150"><defs><style>.cls-1,.cls-2{fill:none;}.cls-2{stroke:#fff;stroke-miterlimit:10;stroke-width:0.1px;}.cls-3{opacity:0;}.cls-4{fill:#000714;}.cls-5{opacity:0.1;fill:url(#新建图案);}.cls-6{isolation:isolate;}.cls-7{fill:#fff;}.cls-8{fill:url(#未命名的渐变_28);}.cls-9{fill:#404f67;}.cls-10{fill:#3b4a60;}.cls-11{fill:url(#未命名的渐变_53);}.cls-12{fill:#0e4ad2;}.cls-13{fill:#3477e3;}.cls-14{fill:#59b1ff;}.cls-15{fill:#54adff;}.cls-16{fill:#3da3ff;}.cls-17{fill:#58c8ff;}.cls-18{fill:#43a5ff;}.cls-19{fill:#49a5f3;}.cls-20{fill:#3ca3ff;}.cls-21{fill:#47a8ff;}.cls-22{fill:#214ed5;}.cls-23{fill:#68b8ff;}.cls-24{fill:#1040d2;}.cls-25{fill:#6fbbff;}.cls-26{fill:#0852d9;}.cls-27{fill:#6ebdff;}.cls-28{fill:#1d90ef;}.cls-29{fill:#56aeff;}.cls-30{fill:#64b5ff;}.cls-31{fill:url(#未命名的渐变_17280);}.cls-32{fill:url(#未命名的渐变_28-2);}.cls-33{fill:#65b6ff;}.cls-34{clip-path:url(#clip-path);}.cls-35{fill:#48a9ff;}.cls-36{fill:#46a7ff;}.cls-37{fill:#43a6ff;}.cls-38{clip-path:url(#clip-path-2);}.cls-39{fill:#57afff;}.cls-40{fill:#48a8ff;}.cls-41{fill:#036de3;}.cls-42{fill:#68b6ff;}.cls-43{clip-path:url(#clip-path-3);}.cls-44{fill:#51acff;}.cls-45{fill:#59aeff;}.cls-46{clip-path:url(#clip-path-4);}.cls-47{opacity:0.2;}</style><pattern id="新建图案" data-name="新建图案" width="18.57" height="32.16" patternTransform="translate(3406.57 917.05)" patternUnits="userSpaceOnUse" viewBox="0 0 18.57 32.16"><rect class="cls-1" width="18.57" height="32.16"/><polyline class="cls-2" points="18.57 21.44 18.57 32.16 18.57 42.88"/><polyline class="cls-2" points="9.29 26.8 18.57 32.16 27.85 37.51 27.85 37.52"/><polyline class="cls-2" points="9.29 37.52 9.29 37.51 18.57 32.16 27.85 26.8"/><polygon class="cls-2" points="27.85 37.52 27.85 26.8 18.57 21.44 9.28 26.8 9.28 37.52 18.57 42.88 27.85 37.52"/><polyline class="cls-2" points="0 21.44 0 32.16 0 42.88"/><polyline class="cls-2" points="-9.28 26.8 0 32.16 9.28 37.51 9.28 37.52"/><polyline class="cls-2" points="-9.28 37.52 -9.28 37.51 0 32.16 9.28 26.8"/><polygon class="cls-2" points="9.28 37.52 9.28 26.8 0 21.44 -9.29 26.8 -9.29 37.52 0 42.88 9.28 37.52"/><polyline class="cls-2" points="18.57 10.72 27.85 16.08 37.13 21.43 37.13 21.44"/><polyline class="cls-2" points="18.57 21.44 18.57 21.43 27.85 16.08 37.13 10.72"/><polygon class="cls-2" points="37.14 21.44 37.14 10.72 27.85 5.36 18.57 10.72 18.57 21.44 27.85 26.8 37.14 21.44"/><polyline class="cls-2" points="9.29 5.36 9.29 16.08 9.29 26.8"/><polyline class="cls-2" points="0.01 10.72 9.29 16.08 18.57 21.43 18.57 21.44"/><polyline class="cls-2" points="0.01 21.44 0.01 21.43 9.29 16.08 18.57 10.72"/><polygon class="cls-2" points="18.57 21.44 18.57 10.72 9.28 5.36 0 10.72 0 21.44 9.28 26.8 18.57 21.44"/><polyline class="cls-2" points="-18.56 10.72 -9.28 16.08 0 21.43 0 21.44"/><polyline class="cls-2" points="-18.56 21.44 -18.56 21.43 -9.28 16.08 0 10.72"/><polygon class="cls-2" points="0 21.44 0 10.72 -9.29 5.36 -18.57 10.72 -18.57 21.44 -9.29 26.8 0 21.44"/><polyline class="cls-2" points="18.57 -10.72 18.57 0 18.57 10.72"/><polyline class="cls-2" points="9.29 -5.36 18.57 0 27.85 5.35 27.85 5.36"/><polyline class="cls-2" points="9.29 5.36 9.29 5.35 18.57 0 27.85 -5.36"/><polygon class="cls-2" points="27.85 5.36 27.85 -5.36 18.57 -10.72 9.28 -5.36 9.28 5.36 18.57 10.72 27.85 5.36"/><polyline class="cls-2" points="0 -10.72 0 0 0 10.72"/><polyline class="cls-2" points="-9.28 -5.36 0 0 9.28 5.35 9.28 5.36"/><polyline class="cls-2" points="-9.28 5.36 -9.28 5.35 0 0 9.28 -5.36"/><polygon class="cls-2" points="9.28 5.36 9.28 -5.36 0 -10.72 -9.29 -5.36 -9.29 5.36 0 10.72 9.28 5.36"/></pattern><linearGradient id="未命名的渐变_28" x1="38.26" y1="111.85" x2="33.45" y2="66.05" gradientUnits="userSpaceOnUse"><stop offset="0" stop-color="#0073e6"/><stop offset="0.15" stop-color="#1433cc"/><stop offset="0.7" stop-color="#59c8ff"/><stop offset="0.8" stop-color="#59c8ff"/><stop offset="1" stop-color="#0073e6"/></linearGradient><linearGradient id="未命名的渐变_53" x1="66.71" y1="132.03" x2="57.29" y2="42.42" gradientUnits="userSpaceOnUse"><stop offset="0" stop-color="#283140"/><stop offset="0.1" stop-color="#12161a"/><stop offset="0.6" stop-color="#7a98cc"/><stop offset="0.7" stop-color="#7a98cc"/><stop offset="1" stop-color="#38455a"/></linearGradient><linearGradient id="未命名的渐变_17280" x1="108.55" y1="91.54" x2="139.68" y2="60.42" gradientUnits="userSpaceOnUse"><stop offset="0" stop-color="#0073e6"/><stop offset="1" stop-color="#143ccc"/></linearGradient><linearGradient id="未命名的渐变_28-2" x1="106.18" y1="102.7" x2="100.95" y2="52.95" xlink:href="#未命名的渐变_28"/><clipPath id="clip-path"><path class="cls-1" d="M117.59,45.56,95.43,46.87a23.74,23.74,0,0,1,2.68-.63l22.17-1.31A22.35,22.35,0,0,0,117.59,45.56Z"/></clipPath><clipPath id="clip-path-2"><path class="cls-1" d="M110.18,49.42,88,50.74l2.39-1.69,22.17-1.32Z"/></clipPath><clipPath id="clip-path-3"><path class="cls-1" d="M104,93.77,81.8,95.09c-.54-.93-1.09-1.86-1.55-2.83l22.17-1.32C102.88,91.91,103.42,92.84,104,93.77Z"/></clipPath><clipPath id="clip-path-4"><path class="cls-1" d="M100.18,84.69,78,86c-.22-1.1-.52-2.16-.66-3.32l22.17-1.31C99.67,82.52,100,83.58,100.18,84.69Z"/></clipPath></defs><title>变桨驱动</title><g id="图层_2" data-name="图层 2"><g id="图元"><g id="变桨驱动"><g id="背景" class="cls-3"><rect class="cls-4" width="150" height="150"/><rect id="网格" class="cls-5" width="150" height="150"/></g><g class="cls-6"><path class="cls-7" d="M87,76.84c-4.4-11.2-15.1-16.19-24-11.09s-12.38,18.32-8,29.52,15.07,16.1,23.91,11S91.35,87.94,87,76.84Z"/><path class="cls-8" d="M55.06,95.27c-4.41-11.2-.87-24.41,8-29.52a14.67,14.67,0,0,1,6.23-2L16.1,67.88a14.63,14.63,0,0,0-6.23,2C1,75-2.51,88.16,1.89,99.36c3.38,8.57,10.53,13.5,17.68,13l53.16-4.09C65.58,108.78,58.43,103.84,55.06,95.27Z"/></g><g class="cls-6"><polygon class="cls-9" points="79.09 40.96 49.57 43.23 87.58 21.29 117.1 19.02 79.09 40.96"/><path class="cls-10" d="M117.1,19l32.9,83.6-38,21.95c-18.21,10.51-40.34.34-49.41-22.71S60.88,51.48,79.09,41Z"/><path class="cls-11" d="M99.1,128.63,69.58,130.9c-14.75,1.13-29.52-9-36.52-26.77C24,81,31.36,53.75,49.57,43.23L79.09,41c-18.21,10.52-25.62,37.75-16.51,60.9C69.58,119.64,84.35,129.76,99.1,128.63Z"/></g><g class="cls-6"><path class="cls-12" d="M145.48,61.05l1,2.3a20.46,20.46,0,0,1,1,3.14l-4.66,1.85L142,65.81,141.23,64Z"/><polygon class="cls-13" points="142 65.81 141.23 64.02 119.07 65.34 119.83 67.13 120.58 69.66 142.75 68.34 142 65.81"/><polygon class="cls-14" points="141.23 64.02 119.07 65.34 123.31 62.37 145.48 61.05 141.23 64.02"/></g><g class="cls-6"><polygon class="cls-15" points="143.38 81.75 121.21 83.07 121.29 83.02 143.46 81.71 143.38 81.75"/><polygon class="cls-12" points="143.38 81.75 143.46 81.71 148.3 83.2 147.56 86.43 142.77 84.3 143.38 81.75"/><polygon class="cls-16" points="147.56 86.43 125.39 87.75 120.6 85.61 142.77 84.3 147.56 86.43"/><polygon class="cls-17" points="142.77 84.3 120.6 85.61 121.21 83.07 143.38 81.75 142.77 84.3"/></g><g class="cls-6"><polygon class="cls-18" points="143.77 73.67 121.6 74.99 126.44 74.39 148.61 73.08 143.77 73.67"/><polygon class="cls-12" points="143.88 76.31 143.77 73.67 148.61 73.08 148.82 76.52 143.88 76.31"/><polygon class="cls-19" points="143.88 76.31 121.71 77.63 121.6 74.99 143.77 73.67 143.88 76.31"/><polygon class="cls-20" points="148.82 76.52 126.66 77.84 121.71 77.63 143.88 76.31 148.82 76.52"/></g><g class="cls-6"><polygon class="cls-12" points="139.77 91.37 141 89.21 145.25 92.5 143.72 95.19 139.77 91.37"/><polygon class="cls-17" points="139.77 91.37 117.6 92.69 118.84 90.52 141 89.21 139.77 91.37"/><polygon class="cls-21" points="143.72 95.19 121.56 96.51 117.6 92.69 139.77 91.37 143.72 95.19"/></g><g class="cls-6"><polygon class="cls-12" points="138.69 59.54 137.08 57.6 140.36 53.08 142.35 55.54 138.69 59.54"/><polygon class="cls-22" points="138.69 59.54 116.52 60.86 114.92 58.92 137.08 57.6 138.69 59.54"/><polygon class="cls-23" points="137.08 57.6 114.92 58.92 118.19 54.4 140.36 53.08 137.08 57.6"/></g><g class="cls-6"><polygon class="cls-12" points="136.05 49.09 133.63 54.35 131.62 53.14 133.52 47.54 136.05 49.09"/><polygon class="cls-24" points="133.63 54.35 111.47 55.67 109.45 54.45 131.62 53.14 133.63 54.35"/><polygon class="cls-25" points="131.62 53.14 109.45 54.45 111.35 48.85 133.52 47.54 131.62 53.14"/></g><g class="cls-6"><polygon class="cls-12" points="128.37 45.48 127.5 51.49 125.28 51 125.63 44.91 128.37 45.48"/><polygon class="cls-26" points="127.5 51.49 105.33 52.8 103.11 52.32 125.28 51 127.5 51.49"/><polygon class="cls-27" points="125.28 51 103.11 52.32 103.46 46.23 125.63 44.91 125.28 51"/></g><g class="cls-6"><path class="cls-12" d="M135.08,96.79l1.74-1.58L140,99.93a27.61,27.61,0,0,1-2.15,2.06Z"/><polygon class="cls-28" points="135.07 96.79 112.91 98.11 114.65 96.53 136.82 95.21 135.07 96.79"/><polygon class="cls-29" points="137.89 101.99 115.72 103.3 112.91 98.11 135.07 96.79 137.89 101.99"/></g><g class="cls-6"><path class="cls-12" d="M130.51,106l-1.36-6,2.13-.82,1.89,5.84A22.8,22.8,0,0,1,130.51,106Z"/><polygon class="cls-30" points="130.51 105.96 108.35 107.27 106.98 101.27 129.15 99.96 130.51 105.96"/><polygon class="cls-28" points="129.15 99.96 106.98 101.27 109.11 100.46 131.28 99.14 129.15 99.96"/></g><g class="cls-6"><path class="cls-31" d="M141.85,65.74c-4.9-12.43-16.74-17.87-26.56-12.2s-13.79,20.24-8.9,32.68,16.74,17.87,26.56,12.2S146.74,78.18,141.85,65.74Z"/><path class="cls-32" d="M106.39,86.22c-4.89-12.44-.92-27,8.9-32.68a16.37,16.37,0,0,1,7-2.2L100.11,53a16.37,16.37,0,0,0-7,2.2c-9.83,5.67-13.79,20.24-8.9,32.68,3.77,9.58,11.67,15,19.59,14.4l22.14-1.7C118.06,101.23,110.16,95.8,106.39,86.22Z"/></g><g class="cls-6"><path class="cls-12" d="M118.88,51.6l-1.29-6a22.35,22.35,0,0,1,2.69-.63L121,51Z"/><polygon class="cls-33" points="118.88 51.6 96.71 52.92 95.43 46.87 117.59 45.56 118.88 51.6"/><g class="cls-6"><g class="cls-34"><g class="cls-6"><path class="cls-35" d="M117.59,45.56,95.43,46.87c.41-.11.83-.23,1.25-.33l22.16-1.32-1.25.34"/><path class="cls-36" d="M118.84,45.22,96.68,46.54a13.37,13.37,0,0,1,1.4-.29l22.17-1.32c-.48.08-.94.18-1.41.29"/><path class="cls-37" d="M120.25,44.93,98.08,46.25h0l22.17-1.31h0"/></g></g></g></g><g class="cls-6"><path class="cls-12" d="M110.18,49.42l2.39-1.69,2.29,5.61-1.94,1.32Z"/><g class="cls-6"><g class="cls-38"><g class="cls-6"><path class="cls-28" d="M110.18,49.42,88,50.74l2.39-1.69,22.17-1.32-2.39,1.69"/></g></g></g><polygon class="cls-39" points="112.92 54.66 90.75 55.98 88.01 50.74 110.18 49.42 112.92 54.66"/></g><g class="cls-6"><polygon class="cls-12" points="104.27 56.01 106.07 53.54 109.58 57.98 108.19 59.98 104.27 56.01"/><polygon class="cls-17" points="104.27 56.01 82.1 57.33 83.91 54.86 106.07 53.54 104.27 56.01"/><polygon class="cls-40" points="108.19 59.98 86.02 61.3 82.1 57.33 104.27 56.01 108.19 59.98"/></g><g class="cls-6"><polygon class="cls-12" points="122.44 106.75 122.75 100.55 124.95 100.69 125.19 106.82 122.44 106.75"/><polygon class="cls-27" points="122.44 106.75 100.27 108.06 100.59 101.87 122.75 100.55 122.44 106.75"/><polygon class="cls-41" points="125.19 106.82 103.02 108.13 100.27 108.06 122.44 106.75 125.19 106.82"/></g><g class="cls-6"><polygon class="cls-12" points="104.09 72.21 103.92 74.88 98.97 74.67 99.16 71.25 104.09 72.21"/><polygon class="cls-20" points="103.92 74.88 81.75 76.19 76.81 75.99 98.97 74.67 103.92 74.88"/><polygon class="cls-19" points="98.97 74.67 76.81 75.99 76.99 72.57 99.16 71.25 98.97 74.67"/></g><g class="cls-6"><polygon class="cls-12" points="100.36 64.82 101.41 61.65 105.87 64.46 105.06 67 100.36 64.82"/><polygon class="cls-17" points="100.36 64.82 78.19 66.13 79.24 62.97 101.41 61.65 100.36 64.82"/><polygon class="cls-16" points="105.06 67 82.89 68.31 78.19 66.13 100.36 64.82 105.06 67"/></g><g class="cls-6"><polygon class="cls-12" points="114.5 104.27 116.4 98.67 118.5 99.59 117.19 105.48 114.5 104.27"/><polygon class="cls-25" points="114.5 104.27 92.34 105.58 94.24 99.98 116.4 98.67 114.5 104.27"/><polygon class="cls-26" points="117.19 105.48 95.03 106.79 92.34 105.58 114.5 104.27 117.19 105.48"/></g><g class="cls-6"><polygon class="cls-12" points="110.86 94.25 112.58 96 109.86 100.95 107.62 98.87 110.86 94.25"/><polygon class="cls-24" points="109.86 100.95 87.69 102.26 85.45 100.19 107.62 98.87 109.86 100.95"/><polygon class="cls-42" points="107.62 98.87 85.45 100.19 88.69 95.56 110.86 94.25 107.62 98.87"/></g><g class="cls-6"><path class="cls-12" d="M106.75,87.93l1.15,2.31L104,93.77c-.54-.93-1.08-1.86-1.54-2.83Z"/><g class="cls-6"><g class="cls-43"><g class="cls-6"><path class="cls-22" d="M103.34,92.69c-.25-.43-.49-.87-.71-1.32L80.46,92.68c.23.45.47.89.71,1.33l.63,1.08L104,93.77C103.76,93.41,103.55,93.05,103.34,92.69Z"/><path class="cls-44" d="M102.63,91.37,80.46,92.68l-.21-.42,22.17-1.32.21.43"/></g></g></g><polygon class="cls-45" points="102.42 90.94 80.25 92.26 84.58 89.25 106.75 87.93 102.42 90.94"/></g><g class="cls-6"><path class="cls-12" d="M104.38,80.28,105,82.9l-4.79,1.79c-.22-1.11-.51-2.17-.65-3.32Z"/><g class="cls-6"><g class="cls-46"><path class="cls-13" d="M99.63,82.05c0-.23-.08-.45-.1-.68L77.36,82.68c0,.23.06.46.1.69.15.89.38,1.75.56,2.63l22.16-1.31C100,83.8,99.78,83,99.63,82.05Z"/></g></g><polygon class="cls-36" points="99.53 81.37 77.36 82.68 82.21 81.59 104.38 80.28 99.53 81.37"/></g>
</g></g></g></svg>