<svg xmlns="http://www.w3.org/2000/svg" xmlns:xlink="http://www.w3.org/1999/xlink" viewBox="0 0 150 150"><defs><style>.cls-1,.cls-2{fill:none;}.cls-2{stroke:#fff;stroke-miterlimit:10;stroke-width:0.1px;}.cls-3{isolation:isolate;}.cls-4{opacity:0;}.cls-5{fill:#000714;}.cls-6{opacity:0.1;fill:url(#新建图案);}.cls-7{fill:#85aae6;}.cls-8{fill:url(#未命名的渐变_10);}.cls-9{fill:#4e5f79;}.cls-10{fill:url(#未命名的渐变_13);}.cls-11{fill:#171d23;}.cls-12{fill:#7696cb;}.cls-13{fill:#14171b;}.cls-14{fill:#202733;}.cls-100,.cls-101,.cls-102,.cls-103,.cls-104,.cls-105,.cls-106,.cls-107,.cls-108,.cls-109,.cls-110,.cls-111,.cls-112,.cls-113,.cls-15,.cls-57,.cls-58,.cls-59,.cls-60,.cls-61,.cls-62,.cls-63,.cls-64,.cls-65,.cls-66,.cls-67,.cls-68,.cls-69,.cls-70,.cls-71,.cls-72,.cls-73,.cls-74,.cls-75,.cls-76,.cls-77,.cls-78,.cls-79,.cls-80,.cls-81,.cls-82,.cls-83,.cls-84,.cls-85,.cls-86,.cls-87,.cls-88,.cls-89,.cls-90,.cls-91,.cls-92,.cls-93,.cls-94,.cls-95,.cls-96,.cls-97,.cls-98,.cls-99{mix-blend-mode:multiply;}.cls-15{fill:url(#未命名的渐变_62);}.cls-16{fill:url(#未命名的渐变_10-2);}.cls-17{fill:url(#未命名的渐变_31);}.cls-18{fill:url(#未命名的渐变_10-3);}.cls-19{fill:url(#未命名的渐变_31-2);}.cls-20{fill:url(#未命名的渐变_10-4);}.cls-21{fill:url(#未命名的渐变_31-3);}.cls-22{fill:url(#未命名的渐变_10-5);}.cls-23{fill:url(#未命名的渐变_31-4);}.cls-24{fill:url(#未命名的渐变_10-6);}.cls-25{fill:url(#未命名的渐变_31-5);}.cls-26{fill:url(#未命名的渐变_10-7);}.cls-27{fill:url(#未命名的渐变_31-6);}.cls-28{fill:url(#未命名的渐变_10-8);}.cls-29{fill:url(#未命名的渐变_31-7);}.cls-30{fill:url(#未命名的渐变_10-9);}.cls-31{fill:url(#未命名的渐变_31-8);}.cls-32{fill:url(#未命名的渐变_10-10);}.cls-33{fill:url(#未命名的渐变_31-9);}.cls-34{fill:url(#未命名的渐变_10-11);}.cls-35{fill:url(#未命名的渐变_31-10);}.cls-36{fill:url(#未命名的渐变_10-12);}.cls-37{fill:url(#未命名的渐变_31-11);}.cls-38{fill:url(#未命名的渐变_10-13);}.cls-39{fill:url(#未命名的渐变_31-12);}.cls-40{fill:url(#未命名的渐变_10-14);}.cls-41{fill:url(#未命名的渐变_31-13);}.cls-42{fill:url(#未命名的渐变_10-15);}.cls-43{fill:url(#未命名的渐变_31-14);}.cls-44{fill:url(#未命名的渐变_10-16);}.cls-45{fill:url(#未命名的渐变_31-15);}.cls-46{fill:url(#未命名的渐变_10-17);}.cls-47{fill:url(#未命名的渐变_31-16);}.cls-48{fill:url(#未命名的渐变_10-18);}.cls-49{fill:url(#未命名的渐变_31-17);}.cls-50{fill:url(#未命名的渐变_10-19);}.cls-51{fill:url(#未命名的渐变_31-18);}.cls-52{fill:#262e3c;}.cls-53{fill:url(#未命名的渐变_10-20);}.cls-54{fill:#3e4d66;}.cls-55{fill:#00a9e6;}.cls-56{fill:url(#未命名的渐变_10-21);}.cls-57{fill:url(#未命名的渐变_48);}.cls-58{fill:url(#未命名的渐变_48-2);}.cls-59{fill:url(#未命名的渐变_48-3);}.cls-60{fill:url(#未命名的渐变_48-4);}.cls-61{fill:url(#未命名的渐变_48-5);}.cls-62{fill:url(#未命名的渐变_48-6);}.cls-63{fill:url(#未命名的渐变_48-7);}.cls-64{fill:url(#未命名的渐变_48-8);}.cls-65{fill:url(#未命名的渐变_48-9);}.cls-66{fill:url(#未命名的渐变_48-10);}.cls-67{fill:url(#未命名的渐变_48-11);}.cls-68{fill:url(#未命名的渐变_48-12);}.cls-69{fill:url(#未命名的渐变_48-13);}.cls-70{fill:url(#未命名的渐变_48-14);}.cls-71{fill:url(#未命名的渐变_48-15);}.cls-72{fill:url(#未命名的渐变_48-16);}.cls-73{fill:url(#未命名的渐变_48-17);}.cls-74{fill:url(#未命名的渐变_48-18);}.cls-75{fill:url(#未命名的渐变_48-19);}.cls-76{fill:url(#未命名的渐变_48-20);}.cls-77{fill:url(#未命名的渐变_48-21);}.cls-78{fill:url(#未命名的渐变_48-22);}.cls-79{fill:url(#未命名的渐变_48-23);}.cls-80{fill:url(#未命名的渐变_48-24);}.cls-81{fill:url(#未命名的渐变_48-25);}.cls-82{fill:url(#未命名的渐变_48-26);}.cls-83{fill:url(#未命名的渐变_48-27);}.cls-84{fill:url(#未命名的渐变_48-28);}.cls-85{fill:url(#未命名的渐变_48-29);}.cls-86{fill:url(#未命名的渐变_48-30);}.cls-87{fill:url(#未命名的渐变_48-31);}.cls-88{fill:url(#未命名的渐变_48-32);}.cls-89{fill:url(#未命名的渐变_48-33);}.cls-90{fill:url(#未命名的渐变_48-34);}.cls-91{fill:url(#未命名的渐变_48-35);}.cls-92{fill:url(#未命名的渐变_48-36);}.cls-93{fill:url(#未命名的渐变_48-37);}.cls-94{fill:url(#未命名的渐变_48-38);}.cls-95{fill:url(#未命名的渐变_48-39);}.cls-96{fill:url(#未命名的渐变_48-40);}.cls-97{fill:url(#未命名的渐变_48-41);}.cls-98{fill:url(#未命名的渐变_48-42);}.cls-99{fill:url(#未命名的渐变_48-43);}.cls-100{fill:url(#未命名的渐变_48-44);}.cls-101{fill:url(#未命名的渐变_48-45);}.cls-102{fill:url(#未命名的渐变_48-46);}.cls-103{fill:url(#未命名的渐变_48-47);}.cls-104{fill:url(#未命名的渐变_48-48);}.cls-105{fill:url(#未命名的渐变_48-49);}.cls-106{fill:url(#未命名的渐变_48-50);}.cls-107{fill:url(#未命名的渐变_48-51);}.cls-108{fill:url(#未命名的渐变_48-52);}.cls-109{fill:url(#未命名的渐变_48-53);}.cls-110{fill:url(#未命名的渐变_48-54);}.cls-111{fill:url(#未命名的渐变_48-55);}.cls-112{fill:url(#未命名的渐变_48-56);}.cls-113{fill:url(#未命名的渐变_48-57);}.cls-114{fill:url(#未命名的渐变_48-58);}.cls-115{opacity:0.2;}</style><pattern id="新建图案" data-name="新建图案" width="18.57" height="32.16" patternTransform="translate(3383.19 888.25)" patternUnits="userSpaceOnUse" viewBox="0 0 18.57 32.16"><rect class="cls-1" width="18.57" height="32.16"/><polyline class="cls-2" points="18.57 21.44 18.57 32.16 18.57 42.88"/><polyline class="cls-2" points="9.29 26.8 18.57 32.16 27.85 37.51 27.85 37.52"/><polyline class="cls-2" points="9.29 37.52 9.29 37.51 18.57 32.16 27.85 26.8"/><polygon class="cls-2" points="27.85 37.52 27.85 26.8 18.57 21.44 9.28 26.8 9.28 37.52 18.57 42.88 27.85 37.52"/><polyline class="cls-2" points="0 21.44 0 32.16 0 42.88"/><polyline class="cls-2" points="-9.28 26.8 0 32.16 9.28 37.51 9.28 37.52"/><polyline class="cls-2" points="-9.28 37.52 -9.28 37.51 0 32.16 9.28 26.8"/><polygon class="cls-2" points="9.28 37.52 9.28 26.8 0 21.44 -9.29 26.8 -9.29 37.52 0 42.88 9.28 37.52"/><polyline class="cls-2" points="18.57 10.72 27.85 16.08 37.13 21.43 37.13 21.44"/><polyline class="cls-2" points="18.57 21.44 18.57 21.43 27.85 16.08 37.13 10.72"/><polygon class="cls-2" points="37.14 21.44 37.14 10.72 27.85 5.36 18.57 10.72 18.57 21.44 27.85 26.8 37.14 21.44"/><polyline class="cls-2" points="9.29 5.36 9.29 16.08 9.29 26.8"/><polyline class="cls-2" points="0.01 10.72 9.29 16.08 18.57 21.43 18.57 21.44"/><polyline class="cls-2" points="0.01 21.44 0.01 21.43 9.29 16.08 18.57 10.72"/><polygon class="cls-2" points="18.57 21.44 18.57 10.72 9.28 5.36 0 10.72 0 21.44 9.28 26.8 18.57 21.44"/><polyline class="cls-2" points="-18.56 10.72 -9.28 16.08 0 21.43 0 21.44"/><polyline class="cls-2" points="-18.56 21.44 -18.56 21.43 -9.28 16.08 0 10.72"/><polygon class="cls-2" points="0 21.44 0 10.72 -9.29 5.36 -18.57 10.72 -18.57 21.44 -9.29 26.8 0 21.44"/><polyline class="cls-2" points="18.57 -10.72 18.57 0 18.57 10.72"/><polyline class="cls-2" points="9.29 -5.36 18.57 0 27.85 5.35 27.85 5.36"/><polyline class="cls-2" points="9.29 5.36 9.29 5.35 18.57 0 27.85 -5.36"/><polygon class="cls-2" points="27.85 5.36 27.85 -5.36 18.57 -10.72 9.28 -5.36 9.28 5.36 18.57 10.72 27.85 5.36"/><polyline class="cls-2" points="0 -10.72 0 0 0 10.72"/><polyline class="cls-2" points="-9.28 -5.36 0 0 9.28 5.35 9.28 5.36"/><polyline class="cls-2" points="-9.28 5.36 -9.28 5.35 0 0 9.28 -5.36"/><polygon class="cls-2" points="9.28 5.36 9.28 -5.36 0 -10.72 -9.29 -5.36 -9.29 5.36 0 10.72 9.28 5.36"/></pattern><linearGradient id="未命名的渐变_10" x1="130.46" y1="123.88" x2="158.34" y2="96" gradientUnits="userSpaceOnUse"><stop offset="0" stop-color="#283140"/><stop offset="1" stop-color="#12161a"/></linearGradient><linearGradient id="未命名的渐变_13" x1="18.49" y1="52.33" x2="149.9" y2="52.33" gradientUnits="userSpaceOnUse"><stop offset="0" stop-color="#89abe6"/><stop offset="1" stop-color="#547099"/></linearGradient><linearGradient id="未命名的渐变_62" x1="75.21" y1="86.7" x2="76.13" y2="85.09" gradientUnits="userSpaceOnUse"><stop offset="0" stop-color="#142439" stop-opacity="0"/><stop offset="1" stop-color="#142439" stop-opacity="0.3"/></linearGradient><linearGradient id="未命名的渐变_10-2" x1="113.35" y1="102.22" x2="115.2" y2="102.22" xlink:href="#未命名的渐变_10"/><linearGradient id="未命名的渐变_31" x1="114.99" y1="106.81" x2="112.51" y2="105.38" gradientUnits="userSpaceOnUse"><stop offset="0" stop-color="#283140"/><stop offset="0.1" stop-color="#12161a"/><stop offset="0.75" stop-color="#8aace6"/><stop offset="0.85" stop-color="#8aace6"/><stop offset="1" stop-color="#38455a"/></linearGradient><linearGradient id="未命名的渐变_10-3" x1="103.92" y1="96.75" x2="105.76" y2="96.75" xlink:href="#未命名的渐变_10"/><linearGradient id="未命名的渐变_31-2" x1="105.56" y1="101.34" x2="103.07" y2="99.9" xlink:href="#未命名的渐变_31"/><linearGradient id="未命名的渐变_10-4" x1="99.2" y1="93.98" x2="101.05" y2="93.98" xlink:href="#未命名的渐变_10"/><linearGradient id="未命名的渐变_31-3" x1="100.84" y1="98.57" x2="98.36" y2="97.14" xlink:href="#未命名的渐变_31"/><linearGradient id="未命名的渐变_10-5" x1="108.64" y1="99.47" x2="110.48" y2="99.47" xlink:href="#未命名的渐变_10"/><linearGradient id="未命名的渐变_31-4" x1="110.27" y1="104.06" x2="107.79" y2="102.62" xlink:href="#未命名的渐变_31"/><linearGradient id="未命名的渐变_10-6" x1="94.48" y1="91.25" x2="96.33" y2="91.25" xlink:href="#未命名的渐变_10"/><linearGradient id="未命名的渐变_31-5" x1="96.12" y1="95.84" x2="93.64" y2="94.41" xlink:href="#未命名的渐变_31"/><linearGradient id="未命名的渐变_10-7" x1="89.77" y1="88.52" x2="91.61" y2="88.52" xlink:href="#未命名的渐变_10"/><linearGradient id="未命名的渐变_31-6" x1="91.4" y1="93.11" x2="88.92" y2="91.68" xlink:href="#未命名的渐变_31"/><linearGradient id="未命名的渐变_10-8" x1="85.05" y1="85.77" x2="86.89" y2="85.77" xlink:href="#未命名的渐变_10"/><linearGradient id="未命名的渐变_31-7" x1="86.69" y1="90.37" x2="84.2" y2="88.93" xlink:href="#未命名的渐变_31"/><linearGradient id="未命名的渐变_10-9" x1="80.33" y1="83.02" x2="82.18" y2="83.02" xlink:href="#未命名的渐变_10"/><linearGradient id="未命名的渐变_31-8" x1="81.97" y1="87.62" x2="79.48" y2="86.18" xlink:href="#未命名的渐变_31"/><linearGradient id="未命名的渐变_10-10" x1="70.89" y1="77.55" x2="72.74" y2="77.55" xlink:href="#未命名的渐变_10"/><linearGradient id="未命名的渐变_31-9" x1="72.53" y1="82.14" x2="70.05" y2="80.71" xlink:href="#未命名的渐变_31"/><linearGradient id="未命名的渐变_10-11" x1="75.61" y1="80.27" x2="77.46" y2="80.27" xlink:href="#未命名的渐变_10"/><linearGradient id="未命名的渐变_31-10" x1="77.25" y1="84.87" x2="74.77" y2="83.43" xlink:href="#未命名的渐变_31"/><linearGradient id="未命名的渐变_10-12" x1="66.18" y1="74.81" x2="68.02" y2="74.81" xlink:href="#未命名的渐变_10"/><linearGradient id="未命名的渐变_31-11" x1="67.82" y1="79.4" x2="65.33" y2="77.97" xlink:href="#未命名的渐变_31"/><linearGradient id="未命名的渐变_10-13" x1="61.46" y1="72.06" x2="63.31" y2="72.06" xlink:href="#未命名的渐变_10"/><linearGradient id="未命名的渐变_31-12" x1="63.1" y1="76.65" x2="60.61" y2="75.22" xlink:href="#未命名的渐变_31"/><linearGradient id="未命名的渐变_10-14" x1="56.74" y1="69.32" x2="58.59" y2="69.32" xlink:href="#未命名的渐变_10"/><linearGradient id="未命名的渐变_31-13" x1="58.38" y1="73.91" x2="55.9" y2="72.48" xlink:href="#未命名的渐变_31"/><linearGradient id="未命名的渐变_10-15" x1="47.31" y1="63.85" x2="49.15" y2="63.85" xlink:href="#未命名的渐变_10"/><linearGradient id="未命名的渐变_31-14" x1="48.94" y1="68.44" x2="46.46" y2="67.01" xlink:href="#未命名的渐变_31"/><linearGradient id="未命名的渐变_10-16" x1="52.02" y1="66.58" x2="53.87" y2="66.58" xlink:href="#未命名的渐变_10"/><linearGradient id="未命名的渐变_31-15" x1="53.66" y1="71.17" x2="51.18" y2="69.74" xlink:href="#未命名的渐变_31"/><linearGradient id="未命名的渐变_10-17" x1="42.59" y1="61.08" x2="44.44" y2="61.08" xlink:href="#未命名的渐变_10"/><linearGradient id="未命名的渐变_31-16" x1="44.23" y1="65.68" x2="41.74" y2="64.24" xlink:href="#未命名的渐变_31"/><linearGradient id="未命名的渐变_10-18" x1="37.87" y1="58.35" x2="39.72" y2="58.35" xlink:href="#未命名的渐变_10"/><linearGradient id="未命名的渐变_31-17" x1="39.51" y1="62.94" x2="37.03" y2="61.51" xlink:href="#未命名的渐变_31"/><linearGradient id="未命名的渐变_10-19" x1="33.15" y1="55.63" x2="35" y2="55.63" xlink:href="#未命名的渐变_10"/><linearGradient id="未命名的渐变_31-18" x1="34.79" y1="60.23" x2="32.31" y2="58.79" xlink:href="#未命名的渐变_31"/><linearGradient id="未命名的渐变_10-20" x1="62.76" y1="97.41" x2="63.17" y2="97.41" xlink:href="#未命名的渐变_10"/><linearGradient id="未命名的渐变_10-21" x1="1.25" y1="61.72" x2="1.67" y2="61.72" xlink:href="#未命名的渐变_10"/><linearGradient id="未命名的渐变_48" x1="133.57" y1="94.99" x2="128.12" y2="89.55" gradientUnits="userSpaceOnUse"><stop offset="0" stop-color="#142439" stop-opacity="0"/><stop offset="1" stop-color="#142439" stop-opacity="0.6"/></linearGradient><linearGradient id="未命名的渐变_48-2" x1="100.43" y1="75.78" x2="94.98" y2="70.34" xlink:href="#未命名的渐变_48"/><linearGradient id="未命名的渐变_48-3" x1="56.79" y1="50.44" x2="51.35" y2="45" xlink:href="#未命名的渐变_48"/><linearGradient id="未命名的渐变_48-4" x1="134.92" y1="90.84" x2="132.5" y2="88.42" xlink:href="#未命名的渐变_48"/><linearGradient id="未命名的渐变_48-5" x1="101.56" y1="71.47" x2="99.14" y2="69.05" xlink:href="#未命名的渐变_48"/><linearGradient id="未命名的渐变_48-6" x1="57.69" y1="45.99" x2="55.26" y2="43.56" xlink:href="#未命名的渐变_48"/><linearGradient id="未命名的渐变_48-7" x1="20.74" y1="24.5" x2="18.3" y2="22.07" xlink:href="#未命名的渐变_48"/><linearGradient id="未命名的渐变_48-8" x1="22.82" y1="25.71" x2="20.39" y2="23.28" xlink:href="#未命名的渐变_48"/><linearGradient id="未命名的渐变_48-9" x1="24.89" y1="26.9" x2="22.48" y2="24.49" xlink:href="#未命名的渐变_48"/><linearGradient id="未命名的渐变_48-10" x1="26.97" y1="28.13" x2="24.55" y2="25.71" xlink:href="#未命名的渐变_48"/><linearGradient id="未命名的渐变_48-11" x1="29.05" y1="29.32" x2="26.64" y2="26.9" xlink:href="#未命名的渐变_48"/><linearGradient id="未命名的渐变_48-12" x1="31.13" y1="30.53" x2="28.73" y2="28.12" xlink:href="#未命名的渐变_48"/><linearGradient id="未命名的渐变_48-13" x1="33.22" y1="31.75" x2="30.8" y2="29.33" xlink:href="#未命名的渐变_48"/><linearGradient id="未命名的渐变_48-14" x1="35.3" y1="32.97" x2="32.87" y2="30.54" xlink:href="#未命名的渐变_48"/><linearGradient id="未命名的渐变_48-15" x1="37.38" y1="34.17" x2="34.97" y2="31.76" xlink:href="#未命名的渐变_48"/><linearGradient id="未命名的渐变_48-16" x1="39.46" y1="35.38" x2="37.05" y2="32.97" xlink:href="#未命名的渐变_48"/><linearGradient id="未命名的渐变_48-17" x1="41.54" y1="36.6" x2="39.12" y2="34.18" xlink:href="#未命名的渐变_48"/><linearGradient id="未命名的渐变_48-18" x1="43.63" y1="37.82" x2="41.2" y2="35.39" xlink:href="#未命名的渐变_48"/><linearGradient id="未命名的渐变_48-19" x1="45.7" y1="39" x2="43.29" y2="36.59" xlink:href="#未命名的渐变_48"/><linearGradient id="未命名的渐变_48-20" x1="47.79" y1="40.23" x2="45.37" y2="37.81" xlink:href="#未命名的渐变_48"/><linearGradient id="未命名的渐变_48-21" x1="49.87" y1="41.41" x2="47.46" y2="39" xlink:href="#未命名的渐变_48"/><linearGradient id="未命名的渐变_48-22" x1="51.15" y1="43.52" x2="49.98" y2="42.35" xlink:href="#未命名的渐变_48"/><linearGradient id="未命名的渐变_48-23" x1="59.77" y1="47.19" x2="57.34" y2="44.76" xlink:href="#未命名的渐变_48"/><linearGradient id="未命名的渐变_48-24" x1="61.85" y1="48.39" x2="59.43" y2="45.97" xlink:href="#未命名的渐变_48"/><linearGradient id="未命名的渐变_48-25" x1="63.93" y1="49.61" x2="61.51" y2="47.19" xlink:href="#未命名的渐变_48"/><linearGradient id="未命名的渐变_48-26" x1="66.01" y1="50.81" x2="63.59" y2="48.39" xlink:href="#未命名的渐变_48"/><linearGradient id="未命名的渐变_48-27" x1="68.09" y1="52.01" x2="65.68" y2="49.6" xlink:href="#未命名的渐变_48"/><linearGradient id="未命名的渐变_48-28" x1="70.17" y1="53.24" x2="67.75" y2="50.82" xlink:href="#未命名的渐变_48"/><linearGradient id="未命名的渐变_48-29" x1="72.26" y1="54.45" x2="69.83" y2="52.03" xlink:href="#未命名的渐变_48"/><linearGradient id="未命名的渐变_48-30" x1="74.34" y1="55.66" x2="71.91" y2="53.24" xlink:href="#未命名的渐变_48"/><linearGradient id="未命名的渐变_48-31" x1="76.42" y1="56.87" x2="74" y2="54.45" xlink:href="#未命名的渐变_48"/><linearGradient id="未命名的渐变_48-32" x1="78.5" y1="58.09" x2="76.07" y2="55.66" xlink:href="#未命名的渐变_48"/><linearGradient id="未命名的渐变_48-33" x1="80.58" y1="59.3" x2="78.15" y2="56.87" xlink:href="#未命名的渐变_48"/><linearGradient id="未命名的渐变_48-34" x1="82.66" y1="60.49" x2="80.24" y2="58.07" xlink:href="#未命名的渐变_48"/><linearGradient id="未命名的渐变_48-35" x1="84.74" y1="61.7" x2="82.32" y2="59.28" xlink:href="#未命名的渐变_48"/><linearGradient id="未命名的渐变_48-36" x1="86.82" y1="62.89" x2="84.41" y2="60.48" xlink:href="#未命名的渐变_48"/><linearGradient id="未命名的渐变_48-37" x1="88.96" y1="64.16" x2="86.54" y2="61.74" xlink:href="#未命名的渐变_48"/><linearGradient id="未命名的渐变_48-38" x1="91.05" y1="65.37" x2="88.63" y2="62.95" xlink:href="#未命名的渐变_48"/><linearGradient id="未命名的渐变_48-39" x1="93.13" y1="66.55" x2="90.73" y2="64.15" xlink:href="#未命名的渐变_48"/><linearGradient id="未命名的渐变_48-40" x1="94.89" y1="68.19" x2="93.09" y2="66.39" xlink:href="#未命名的渐变_48"/><linearGradient id="未命名的渐变_48-41" x1="103.66" y1="72.75" x2="101.21" y2="70.29" xlink:href="#未命名的渐变_48"/><linearGradient id="未命名的渐变_48-42" x1="105.73" y1="73.94" x2="103.29" y2="71.5" xlink:href="#未命名的渐变_48"/><linearGradient id="未命名的渐变_48-43" x1="107.82" y1="75.17" x2="105.37" y2="72.72" xlink:href="#未命名的渐变_48"/><linearGradient id="未命名的渐变_48-44" x1="109.9" y1="76.36" x2="107.45" y2="73.91" xlink:href="#未命名的渐变_48"/><linearGradient id="未命名的渐变_48-45" x1="111.97" y1="77.55" x2="109.54" y2="75.12" xlink:href="#未命名的渐变_48"/><linearGradient id="未命名的渐变_48-46" x1="114.07" y1="78.79" x2="111.61" y2="76.34" xlink:href="#未命名的渐变_48"/><linearGradient id="未命名的渐变_48-47" x1="116.15" y1="80.01" x2="113.7" y2="77.55" xlink:href="#未命名的渐变_48"/><linearGradient id="未命名的渐变_48-48" x1="118.23" y1="81.21" x2="115.78" y2="78.76" xlink:href="#未命名的渐变_48"/><linearGradient id="未命名的渐变_48-49" x1="120.31" y1="82.42" x2="117.86" y2="79.97" xlink:href="#未命名的渐变_48"/><linearGradient id="未命名的渐变_48-50" x1="122.38" y1="83.61" x2="119.95" y2="81.17" xlink:href="#未命名的渐变_48"/><linearGradient id="未命名的渐变_48-51" x1="124.47" y1="84.85" x2="122.02" y2="82.39" xlink:href="#未命名的渐变_48"/><linearGradient id="未命名的渐变_48-52" x1="126.55" y1="86.05" x2="124.1" y2="83.6" xlink:href="#未命名的渐变_48"/><linearGradient id="未命名的渐变_48-53" x1="127.92" y1="87.98" x2="126.54" y2="86.6" xlink:href="#未命名的渐变_48"/><linearGradient id="未命名的渐变_48-54" x1="136.99" y1="92.02" x2="134.61" y2="89.65" xlink:href="#未命名的渐变_48"/><linearGradient id="未命名的渐变_48-55" x1="139.13" y1="93.29" x2="136.74" y2="90.9" xlink:href="#未命名的渐变_48"/><linearGradient id="未命名的渐变_48-56" x1="141.23" y1="94.53" x2="138.81" y2="92.11" xlink:href="#未命名的渐变_48"/><linearGradient id="未命名的渐变_48-57" x1="143.56" y1="95.6" x2="141.14" y2="93.17" xlink:href="#未命名的渐变_48"/><linearGradient id="未命名的渐变_48-58" x1="20.06" y1="32.58" x2="13.82" y2="28.98" xlink:href="#未命名的渐变_48"/></defs><title>右厂房坝段</title><g class="cls-3"><g id="图层_2" data-name="图层 2"><g id="图元"><g id="右厂房坝段"><g id="背景" class="cls-4"><rect class="cls-5" width="150" height="150"/><rect id="网格" class="cls-6" width="150" height="150"/></g><g class="cls-3"><polygon class="cls-7" points="18.5 20.88 10.96 57.29 137.28 130.7 144.82 94.29 18.5 20.88"/><polygon class="cls-8" points="150 123.36 149.9 87.56 144.81 90.5 144.82 94.29 137.28 130.7 150 123.36"/><polygon class="cls-9" points="144.81 90.5 18.49 17.09 18.5 20.88 144.82 94.29 144.81 90.5"/><polygon class="cls-10" points="23.58 14.15 18.49 17.09 144.81 90.5 149.9 87.56 23.58 14.15"/></g><g class="cls-3"><polygon class="cls-11" points="136.19 85.41 135.24 85.96 135.26 93.75 136.2 89.2 136.19 85.41"/><polygon class="cls-9" points="135.24 85.96 134.76 85.69 134.78 93.48 135.26 93.75 135.24 85.96"/><polygon class="cls-12" points="135.72 85.14 134.76 85.69 135.24 85.96 136.19 85.41 135.72 85.14"/></g><g class="cls-3"><polygon class="cls-11" points="138.33 86.69 137.37 87.23 137.4 95.03 138.34 90.47 138.33 86.69"/><polygon class="cls-9" points="137.37 87.23 136.9 86.96 136.92 94.75 137.4 95.03 137.37 87.23"/><polygon class="cls-12" points="137.85 86.41 136.9 86.96 137.37 87.23 138.33 86.69 137.85 86.41"/></g><g class="cls-3"><polygon class="cls-11" points="134.11 84.24 133.16 84.79 133.18 92.58 134.12 88.03 134.11 84.24"/><polygon class="cls-9" points="133.16 84.79 132.68 84.51 132.7 92.31 133.18 92.58 133.16 84.79"/><polygon class="cls-12" points="133.63 83.96 132.68 84.51 133.16 84.79 134.11 84.24 133.63 83.96"/></g><g class="cls-3"><polygon class="cls-11" points="140.41 87.94 139.45 88.49 139.48 96.28 140.42 91.73 140.41 87.94"/><polygon class="cls-9" points="139.45 88.49 138.98 88.21 139 96 139.48 96.28 139.45 88.49"/><polygon class="cls-12" points="139.93 87.66 138.98 88.21 139.45 88.49 140.41 87.94 139.93 87.66"/></g><g class="cls-3"><polygon class="cls-11" points="142.54 89.21 141.59 89.76 141.61 97.55 142.55 93 142.54 89.21"/><polygon class="cls-9" points="141.59 89.76 141.12 89.49 141.14 97.28 141.61 97.55 141.59 89.76"/><polygon class="cls-12" points="142.07 88.94 141.12 89.49 141.59 89.76 142.54 89.21 142.07 88.94"/></g><g class="cls-3"><polygon class="cls-11" points="98.91 63.8 96.37 65.26 96.41 79.72 98.92 67.59 98.91 63.8"/><polygon class="cls-9" points="96.37 65.26 94.47 64.16 94.52 78.62 96.41 79.72 96.37 65.26"/><polygon class="cls-9" points="97.02 62.7 94.47 64.16 96.37 65.26 98.91 63.8 97.02 62.7"/></g><g class="cls-3"><polygon class="cls-11" points="49.05 34.81 48.1 35.36 48.12 43.15 49.06 38.6 49.05 34.81"/><polygon class="cls-9" points="48.1 35.36 47.63 35.09 47.65 42.88 48.12 43.15 48.1 35.36"/><polygon class="cls-12" points="48.58 34.54 47.63 35.09 48.1 35.36 49.05 34.81 48.58 34.54"/></g><g class="cls-3"><polygon class="cls-11" points="51.19 36.09 50.23 36.64 50.26 44.43 51.2 39.88 51.19 36.09"/><polygon class="cls-9" points="50.23 36.64 49.76 36.36 49.78 44.15 50.26 44.43 50.23 36.64"/><polygon class="cls-12" points="50.71 35.81 49.76 36.36 50.23 36.64 51.19 36.09 50.71 35.81"/></g><g class="cls-3"><polygon class="cls-11" points="19.92 17.91 18.96 18.46 18.98 26.25 19.93 21.7 19.92 17.91"/><polygon class="cls-9" points="18.96 18.46 18.49 18.18 18.51 25.98 18.98 26.25 18.96 18.46"/><polygon class="cls-12" points="19.44 17.64 18.49 18.18 18.96 18.46 19.92 17.91 19.44 17.64"/></g><g class="cls-3"><polygon class="cls-11" points="22 19.12 21.04 19.67 21.07 27.46 22.01 22.91 22 19.12"/><polygon class="cls-9" points="21.04 19.67 20.57 19.39 20.59 27.18 21.07 27.46 21.04 19.67"/><polygon class="cls-12" points="21.52 18.84 20.57 19.39 21.04 19.67 22 19.12 21.52 18.84"/></g><g class="cls-3"><polygon class="cls-11" points="24.08 20.31 23.13 20.86 23.15 28.65 24.09 24.1 24.08 20.31"/><polygon class="cls-9" points="23.13 20.86 22.65 20.58 22.67 28.37 23.15 28.65 23.13 20.86"/><polygon class="cls-12" points="23.6 20.03 22.65 20.58 23.13 20.86 24.08 20.31 23.6 20.03"/></g><g class="cls-3"><polygon class="cls-11" points="26.16 21.53 25.21 22.08 25.23 29.88 26.17 25.32 26.16 21.53"/><polygon class="cls-9" points="25.21 22.08 24.73 21.81 24.75 29.6 25.23 29.88 25.21 22.08"/><polygon class="cls-12" points="25.68 21.26 24.73 21.81 25.21 22.08 26.16 21.53 25.68 21.26"/></g><g class="cls-3"><polygon class="cls-11" points="28.24 22.72 27.29 23.27 27.31 31.06 28.25 26.51 28.24 22.72"/><polygon class="cls-9" points="27.29 23.27 26.81 23 26.84 30.79 27.31 31.06 27.29 23.27"/><polygon class="cls-12" points="27.77 22.45 26.81 23 27.29 23.27 28.24 22.72 27.77 22.45"/></g><g class="cls-3"><polygon class="cls-11" points="30.32 23.93 29.37 24.48 29.39 32.27 30.33 27.72 30.32 23.93"/><polygon class="cls-9" points="29.37 24.48 28.89 24.21 28.92 32 29.39 32.27 29.37 24.48"/><polygon class="cls-12" points="29.85 23.66 28.89 24.21 29.37 24.48 30.32 23.93 29.85 23.66"/></g><g class="cls-3"><polygon class="cls-11" points="36.56 27.58 35.61 28.13 35.63 35.92 36.58 31.37 36.56 27.58"/><polygon class="cls-9" points="35.61 28.13 35.14 27.86 35.16 35.65 35.63 35.92 35.61 28.13"/><polygon class="cls-12" points="36.09 27.3 35.14 27.86 35.61 28.13 36.56 27.58 36.09 27.3"/></g><g class="cls-3"><polygon class="cls-11" points="38.65 28.79 37.69 29.34 37.72 37.13 38.66 32.58 38.65 28.79"/><polygon class="cls-9" points="37.69 29.34 37.22 29.06 37.24 36.85 37.72 37.13 37.69 29.34"/><polygon class="cls-12" points="38.17 28.51 37.22 29.06 37.69 29.34 38.65 28.79 38.17 28.51"/></g><g class="cls-3"><polygon class="cls-11" points="40.73 30.01 39.77 30.56 39.8 38.35 40.74 33.8 40.73 30.01"/><polygon class="cls-9" points="39.77 30.56 39.3 30.29 39.32 38.08 39.8 38.35 39.77 30.56"/><polygon class="cls-12" points="40.25 29.74 39.3 30.29 39.77 30.56 40.73 30.01 40.25 29.74"/></g><g class="cls-3"><polygon class="cls-11" points="42.81 31.22 41.85 31.77 41.88 39.56 42.82 35.01 42.81 31.22"/><polygon class="cls-9" points="41.85 31.77 41.38 31.5 41.4 39.29 41.88 39.56 41.85 31.77"/><polygon class="cls-12" points="42.33 30.95 41.38 31.5 41.85 31.77 42.81 31.22 42.33 30.95"/></g><g class="cls-3"><polygon class="cls-11" points="44.89 32.41 43.94 32.97 43.96 40.76 44.9 36.2 44.89 32.41"/><polygon class="cls-9" points="43.94 32.97 43.46 32.69 43.48 40.48 43.96 40.76 43.94 32.97"/><polygon class="cls-12" points="44.41 32.14 43.46 32.69 43.94 32.97 44.89 32.41 44.41 32.14"/></g><g class="cls-3"><polygon class="cls-11" points="46.97 33.64 46.02 34.19 46.04 41.98 46.98 37.43 46.97 33.64"/><polygon class="cls-9" points="46.02 34.19 45.54 33.91 45.57 41.71 46.04 41.98 46.02 34.19"/><polygon class="cls-12" points="46.5 33.37 45.54 33.91 46.02 34.19 46.97 33.64 46.5 33.37"/></g><g class="cls-3"><polygon class="cls-11" points="32.4 25.16 31.45 25.71 31.47 33.5 32.41 28.95 32.4 25.16"/><polygon class="cls-9" points="31.45 25.71 30.98 25.44 31 33.23 31.47 33.5 31.45 25.71"/><polygon class="cls-12" points="31.93 24.89 30.98 25.44 31.45 25.71 32.4 25.16 31.93 24.89"/></g><g class="cls-3"><polygon class="cls-11" points="34.48 26.38 33.53 26.93 33.55 34.72 34.49 30.17 34.48 26.38"/><polygon class="cls-9" points="33.53 26.93 33.06 26.65 33.08 34.44 33.55 34.72 33.53 26.93"/><polygon class="cls-12" points="34.01 26.1 33.06 26.65 33.53 26.93 34.48 26.38 34.01 26.1"/></g><g class="cls-3"><polygon class="cls-11" points="86.01 56.3 85.05 56.85 85.08 64.64 86.02 60.09 86.01 56.3"/><polygon class="cls-9" points="85.05 56.85 84.58 56.57 84.6 64.36 85.08 64.64 85.05 56.85"/><polygon class="cls-12" points="85.53 56.02 84.58 56.57 85.05 56.85 86.01 56.3 85.53 56.02"/></g><g class="cls-3"><polygon class="cls-11" points="88.14 57.57 87.19 58.12 87.21 65.91 88.15 61.36 88.14 57.57"/><polygon class="cls-9" points="87.19 58.12 86.72 57.85 86.74 65.64 87.21 65.91 87.19 58.12"/><polygon class="cls-12" points="87.67 57.3 86.72 57.85 87.19 58.12 88.14 57.57 87.67 57.3"/></g><g class="cls-3"><polygon class="cls-11" points="56.87 39.4 55.92 39.95 55.94 47.74 56.88 43.19 56.87 39.4"/><polygon class="cls-9" points="55.92 39.95 55.44 39.67 55.47 47.46 55.94 47.74 55.92 39.95"/><polygon class="cls-12" points="56.4 39.12 55.44 39.67 55.92 39.95 56.87 39.4 56.4 39.12"/></g><g class="cls-3"><polygon class="cls-11" points="58.95 40.6 58 41.15 58.02 48.95 58.96 44.39 58.95 40.6"/><polygon class="cls-9" points="58 41.15 57.52 40.88 57.55 48.67 58.02 48.95 58 41.15"/><polygon class="cls-12" points="58.48 40.33 57.52 40.88 58 41.15 58.95 40.6 58.48 40.33"/></g><g class="cls-3"><polygon class="cls-11" points="61.03 41.79 60.08 42.34 60.1 50.13 61.04 45.58 61.03 41.79"/><polygon class="cls-9" points="60.08 42.34 59.61 42.06 59.63 49.86 60.1 50.13 60.08 42.34"/><polygon class="cls-12" points="60.56 41.52 59.61 42.06 60.08 42.34 61.03 41.79 60.56 41.52"/></g><g class="cls-3"><polygon class="cls-11" points="63.11 43.02 62.16 43.57 62.18 51.36 63.12 46.81 63.11 43.02"/><polygon class="cls-9" points="62.16 43.57 61.69 43.29 61.71 51.09 62.18 51.36 62.16 43.57"/><polygon class="cls-12" points="62.64 42.74 61.69 43.29 62.16 43.57 63.11 43.02 62.64 42.74"/></g><g class="cls-3"><polygon class="cls-11" points="65.19 44.21 64.24 44.76 64.26 52.55 65.2 48 65.19 44.21"/><polygon class="cls-9" points="64.24 44.76 63.77 44.48 63.79 52.27 64.26 52.55 64.24 44.76"/><polygon class="cls-12" points="64.72 43.93 63.77 44.48 64.24 44.76 65.19 44.21 64.72 43.93"/></g><g class="cls-3"><polygon class="cls-11" points="67.28 45.42 66.32 45.97 66.34 53.76 67.29 49.21 67.28 45.42"/><polygon class="cls-9" points="66.32 45.97 65.85 45.69 65.87 53.48 66.34 53.76 66.32 45.97"/><polygon class="cls-12" points="66.8 45.14 65.85 45.69 66.32 45.97 67.28 45.42 66.8 45.14"/></g><g class="cls-3"><polygon class="cls-11" points="73.52 49.06 72.57 49.62 72.59 57.41 73.53 52.85 73.52 49.06"/><polygon class="cls-9" points="72.57 49.62 72.09 49.34 72.11 57.13 72.59 57.41 72.57 49.62"/><polygon class="cls-12" points="73.05 48.79 72.09 49.34 72.57 49.62 73.52 49.06 73.05 48.79"/></g><g class="cls-3"><polygon class="cls-11" points="75.6 50.27 74.65 50.82 74.67 58.61 75.61 54.06 75.6 50.27"/><polygon class="cls-9" points="74.65 50.82 74.17 50.55 74.2 58.34 74.67 58.61 74.65 50.82"/><polygon class="cls-12" points="75.13 50 74.17 50.55 74.65 50.82 75.6 50.27 75.13 50"/></g><g class="cls-3"><polygon class="cls-11" points="77.68 51.5 76.73 52.05 76.75 59.84 77.69 55.29 77.68 51.5"/><polygon class="cls-9" points="76.73 52.05 76.25 51.77 76.28 59.56 76.75 59.84 76.73 52.05"/><polygon class="cls-12" points="77.21 51.22 76.25 51.77 76.73 52.05 77.68 51.5 77.21 51.22"/></g><g class="cls-3"><polygon class="cls-11" points="79.76 52.71 78.81 53.26 78.83 61.05 79.77 56.5 79.76 52.71"/><polygon class="cls-9" points="78.81 53.26 78.34 52.98 78.36 60.77 78.83 61.05 78.81 53.26"/><polygon class="cls-12" points="79.29 52.43 78.34 52.98 78.81 53.26 79.76 52.71 79.29 52.43"/></g><g class="cls-3"><polygon class="cls-11" points="81.84 53.9 80.89 54.45 80.91 62.24 81.85 57.69 81.84 53.9"/><polygon class="cls-9" points="80.89 54.45 80.42 54.17 80.44 61.97 80.91 62.24 80.89 54.45"/><polygon class="cls-12" points="81.37 53.63 80.42 54.17 80.89 54.45 81.84 53.9 81.37 53.63"/></g><g class="cls-3"><polygon class="cls-11" points="83.92 55.13 82.97 55.67 82.99 63.47 83.94 58.91 83.92 55.13"/><polygon class="cls-9" points="82.97 55.67 82.5 55.4 82.52 63.19 82.99 63.47 82.97 55.67"/><polygon class="cls-12" points="83.45 54.85 82.5 55.4 82.97 55.67 83.92 55.13 83.45 54.85"/></g><g class="cls-3"><polygon class="cls-11" points="92.31 59.95 91.36 60.5 91.38 68.29 92.32 63.74 92.31 59.95"/><polygon class="cls-9" points="91.36 60.5 90.89 60.23 90.91 68.02 91.38 68.29 91.36 60.5"/><polygon class="cls-12" points="91.84 59.68 90.89 60.23 91.36 60.5 92.31 59.95 91.84 59.68"/></g><g class="cls-3"><polygon class="cls-11" points="94.45 61.23 93.5 61.78 93.52 69.57 94.46 65.02 94.45 61.23"/><polygon class="cls-9" points="93.5 61.78 93.02 61.5 93.05 69.29 93.52 69.57 93.5 61.78"/><polygon class="cls-12" points="93.98 60.95 93.02 61.5 93.5 61.78 94.45 61.23 93.98 60.95"/></g><g class="cls-3"><polygon class="cls-11" points="90.23 58.78 89.28 59.33 89.3 67.12 90.24 62.57 90.23 58.78"/><polygon class="cls-9" points="89.28 59.33 88.81 59.05 88.83 66.85 89.3 67.12 89.28 59.33"/><polygon class="cls-12" points="89.76 58.51 88.81 59.05 89.28 59.33 90.23 58.78 89.76 58.51"/></g><g class="cls-3"><polygon class="cls-11" points="69.36 46.65 68.4 47.2 68.43 54.99 69.37 50.44 69.36 46.65"/><polygon class="cls-9" points="68.4 47.2 67.93 46.92 67.95 54.71 68.43 54.99 68.4 47.2"/><polygon class="cls-12" points="68.88 46.37 67.93 46.92 68.4 47.2 69.36 46.65 68.88 46.37"/></g><g class="cls-3"><polygon class="cls-11" points="71.44 47.86 70.48 48.41 70.51 56.2 71.45 51.65 71.44 47.86"/><polygon class="cls-9" points="70.48 48.41 70.01 48.14 70.03 55.93 70.51 56.2 70.48 48.41"/><polygon class="cls-12" points="70.96 47.59 70.01 48.14 70.48 48.41 71.44 47.86 70.96 47.59"/></g><g class="cls-3"><polygon class="cls-11" points="100.75 64.96 99.79 65.51 99.82 73.31 100.76 68.75 100.75 64.96"/><polygon class="cls-9" points="99.79 65.51 99.32 65.24 99.34 73.03 99.82 73.31 99.79 65.51"/><polygon class="cls-12" points="100.27 64.69 99.32 65.24 99.79 65.51 100.75 64.96 100.27 64.69"/></g><g class="cls-3"><polygon class="cls-11" points="102.83 66.17 101.88 66.72 101.9 74.51 102.84 69.96 102.83 66.17"/><polygon class="cls-9" points="101.88 66.72 101.4 66.45 101.42 74.24 101.9 74.51 101.88 66.72"/><polygon class="cls-12" points="102.35 65.9 101.4 66.45 101.88 66.72 102.83 66.17 102.35 65.9"/></g><g class="cls-3"><polygon class="cls-11" points="104.91 67.36 103.96 67.91 103.98 75.7 104.92 71.15 104.91 67.36"/><polygon class="cls-9" points="103.96 67.91 103.48 67.63 103.5 75.42 103.98 75.7 103.96 67.91"/><polygon class="cls-12" points="104.44 67.08 103.48 67.63 103.96 67.91 104.91 67.36 104.44 67.08"/></g><g class="cls-3"><polygon class="cls-11" points="106.99 68.59 106.04 69.14 106.06 76.93 107 72.38 106.99 68.59"/><polygon class="cls-9" points="106.04 69.14 105.56 68.86 105.58 76.65 106.06 76.93 106.04 69.14"/><polygon class="cls-12" points="106.52 68.31 105.56 68.86 106.04 69.14 106.99 68.59 106.52 68.31"/></g><g class="cls-3"><polygon class="cls-11" points="109.07 69.78 108.12 70.33 108.14 78.12 109.08 73.57 109.07 69.78"/><polygon class="cls-9" points="108.12 70.33 107.64 70.05 107.67 77.84 108.14 78.12 108.12 70.33"/><polygon class="cls-12" points="108.6 69.5 107.64 70.05 108.12 70.33 109.07 69.78 108.6 69.5"/></g><g class="cls-3"><polygon class="cls-11" points="111.15 70.99 110.2 71.54 110.22 79.33 111.16 74.78 111.15 70.99"/><polygon class="cls-9" points="110.2 71.54 109.72 71.26 109.75 79.05 110.22 79.33 110.2 71.54"/><polygon class="cls-12" points="110.68 70.71 109.72 71.26 110.2 71.54 111.15 70.99 110.68 70.71"/></g><g class="cls-3"><polygon class="cls-11" points="117.39 74.63 116.44 75.18 116.46 82.97 117.41 78.42 117.39 74.63"/><polygon class="cls-9" points="116.44 75.18 115.97 74.91 115.99 82.7 116.46 82.97 116.44 75.18"/><polygon class="cls-12" points="116.92 74.36 115.97 74.91 116.44 75.18 117.39 74.63 116.92 74.36"/></g><g class="cls-3"><polygon class="cls-11" points="119.48 75.84 118.52 76.39 118.55 84.18 119.49 79.63 119.48 75.84"/><polygon class="cls-9" points="118.52 76.39 118.05 76.12 118.07 83.91 118.55 84.18 118.52 76.39"/><polygon class="cls-12" points="119 75.57 118.05 76.12 118.52 76.39 119.48 75.84 119 75.57"/></g><g class="cls-3"><polygon class="cls-11" points="121.56 77.07 120.61 77.62 120.63 85.41 121.57 80.86 121.56 77.07"/><polygon class="cls-9" points="120.61 77.62 120.13 77.34 120.15 85.13 120.63 85.41 120.61 77.62"/><polygon class="cls-12" points="121.08 76.79 120.13 77.34 120.61 77.62 121.56 77.07 121.08 76.79"/></g><g class="cls-3"><polygon class="cls-11" points="123.64 78.28 122.69 78.83 122.71 86.62 123.65 82.07 123.64 78.28"/><polygon class="cls-9" points="122.69 78.83 122.21 78.55 122.23 86.34 122.71 86.62 122.69 78.83"/><polygon class="cls-12" points="123.17 78 122.21 78.55 122.69 78.83 123.64 78.28 123.17 78"/></g><g class="cls-3"><polygon class="cls-11" points="125.72 79.47 124.77 80.02 124.79 87.81 125.73 83.26 125.72 79.47"/><polygon class="cls-9" points="124.77 80.02 124.29 79.74 124.31 87.53 124.79 87.81 124.77 80.02"/><polygon class="cls-12" points="125.25 79.19 124.29 79.74 124.77 80.02 125.72 79.47 125.25 79.19"/></g><g class="cls-3"><polygon class="cls-11" points="127.8 80.69 126.85 81.24 126.87 89.03 127.81 84.48 127.8 80.69"/><polygon class="cls-9" points="126.85 81.24 126.37 80.97 126.4 88.76 126.87 89.03 126.85 81.24"/><polygon class="cls-12" points="127.33 80.42 126.37 80.97 126.85 81.24 127.8 80.69 127.33 80.42"/></g><g class="cls-3"><polygon class="cls-11" points="113.23 72.22 112.28 72.77 112.3 80.56 113.24 76.01 113.23 72.22"/><polygon class="cls-9" points="112.28 72.77 111.81 72.49 111.83 80.28 112.3 80.56 112.28 72.77"/><polygon class="cls-12" points="112.76 71.94 111.81 72.49 112.28 72.77 113.23 72.22 112.76 71.94"/></g><g class="cls-3"><polygon class="cls-11" points="115.31 73.43 114.36 73.98 114.38 81.77 115.33 77.22 115.31 73.43"/><polygon class="cls-9" points="114.36 73.98 113.89 73.7 113.91 81.5 114.38 81.77 114.36 73.98"/><polygon class="cls-12" points="114.84 73.16 113.89 73.7 114.36 73.98 115.31 73.43 114.84 73.16"/></g><g class="cls-3"><polygon class="cls-11" points="132.02 83.11 129.48 84.58 129.52 99.04 132.03 86.91 132.02 83.11"/><polygon class="cls-9" points="129.48 84.58 127.58 83.48 127.63 97.94 129.52 99.04 129.48 84.58"/><polygon class="cls-9" points="130.13 82.01 127.58 83.48 129.48 84.58 132.02 83.11 130.13 82.01"/></g><g class="cls-3"><polygon class="cls-11" points="55.3 38.48 52.76 39.95 52.8 54.41 55.31 42.27 55.3 38.48"/><polygon class="cls-9" points="52.76 39.95 50.86 38.84 50.9 53.31 52.8 54.41 52.76 39.95"/><polygon class="cls-9" points="53.4 37.38 50.86 38.84 52.76 39.95 55.3 38.48 53.4 37.38"/></g><g class="cls-3"><polygon class="cls-13" points="149.91 86.46 142.59 90.68 142.6 91.78 149.91 87.56 149.91 86.46"/><polygon class="cls-9" points="142.59 90.68 16.23 17.24 16.23 18.34 142.6 91.78 142.59 90.68"/><polygon class="cls-12" points="23.54 13.02 16.23 17.24 142.59 90.68 149.91 86.46 23.54 13.02"/></g><g class="cls-3"><polygon class="cls-11" points="53.06 36.25 52.74 36.43 52.75 39.99 53.07 39.8 53.06 36.25"/><polygon class="cls-9" points="52.74 36.43 50.85 35.33 50.86 38.89 52.75 39.99 52.74 36.43"/><polygon class="cls-12" points="51.16 35.15 50.85 35.33 52.74 36.43 53.06 36.25 51.16 35.15"/></g><g class="cls-3"><polygon class="cls-11" points="96.68 61.53 96.36 61.71 96.37 65.26 96.69 65.08 96.68 61.53"/><polygon class="cls-9" points="96.36 61.71 94.46 60.61 94.47 64.16 96.37 65.26 96.36 61.71"/><polygon class="cls-12" points="94.78 60.43 94.46 60.61 96.36 61.71 96.68 61.53 94.78 60.43"/></g><g class="cls-3"><polygon class="cls-11" points="129.78 80.88 129.47 81.07 129.48 84.62 129.79 84.44 129.78 80.88"/><polygon class="cls-9" points="129.47 81.07 127.57 79.97 127.58 83.52 129.48 84.62 129.47 81.07"/><polygon class="cls-12" points="127.89 79.78 127.57 79.97 129.47 81.07 129.78 80.88 127.89 79.78"/></g><g class="cls-3"><polygon class="cls-14" points="139.3 113.37 139.32 120.88 141.09 112.33 139.3 113.37"/><polygon class="cls-9" points="139.3 113.37 12.99 39.96 13.01 47.47 139.32 120.88 139.3 113.37"/><polygon class="cls-12" points="14.78 38.93 12.99 39.96 139.3 113.37 141.09 112.33 14.78 38.93"/></g><polygon class="cls-15" points="118.92 111.93 32.42 61.99 32.42 59.85 118.92 109.79 118.92 111.93"/><g class="cls-3"><polygon class="cls-16" points="113.36 104.56 113.36 104.03 113.35 99.89 114.63 100.63 115.1 100.9 115.2 100.96 113.36 104.56"/><polygon class="cls-12" points="116.71 106.51 115.46 105.78 113.36 104.56 113.78 103.28 114.63 100.63 115.1 100.9 115.2 100.96 116.7 101.83 116.71 103.53 116.71 106.51"/></g><path class="cls-17" d="M116.71,103.53l-1.25,2.25-3,5.48-.21-.11-1.63-.91-.52-.29,3.29-5.92.41-.75,1.33-2.38.1.06,1.51.87Z"/><g class="cls-3"><polygon class="cls-18" points="103.93 99.08 103.93 98.55 103.92 94.41 105.19 95.15 105.66 95.42 105.76 95.48 103.93 99.08"/><polygon class="cls-12" points="107.28 101.03 106.02 100.3 103.93 99.08 104.34 97.8 105.19 95.15 105.66 95.42 105.76 95.48 107.27 96.36 107.27 98.05 107.28 101.03"/></g><path class="cls-19" d="M107.27,98.05,106,100.3l-3,5.48-.2-.11-1.63-.91-.52-.28,3.29-5.93.41-.75,1.32-2.38.1.06,1.51.88Z"/><g class="cls-3"><polygon class="cls-20" points="99.21 96.31 99.21 95.78 99.2 91.64 100.48 92.38 100.94 92.65 101.05 92.71 99.21 96.31"/><polygon class="cls-12" points="102.56 98.26 101.31 97.53 99.21 96.31 99.62 95.03 100.48 92.38 100.94 92.65 101.05 92.71 102.55 93.59 102.56 95.28 102.56 98.26"/></g><path class="cls-21" d="M102.56,95.28l-1.25,2.25-3,5.48-.2-.11-1.63-.9-.52-.29,3.29-5.93.41-.75,1.32-2.38.11.06,1.5.88Z"/><g class="cls-3"><polygon class="cls-22" points="108.64 101.8 108.64 101.27 108.64 97.13 109.91 97.87 110.38 98.14 110.48 98.2 108.64 101.8"/><polygon class="cls-12" points="112 103.75 110.74 103.02 108.64 101.8 109.06 100.52 109.91 97.87 110.38 98.14 110.48 98.2 111.99 99.08 111.99 100.77 112 103.75"/></g><path class="cls-23" d="M112,100.77,110.74,103l-3,5.48-.2-.11-1.63-.91-.52-.28,3.28-5.93.42-.75,1.32-2.38.1.06,1.51.88Z"/><g class="cls-3"><polygon class="cls-24" points="94.49 93.59 94.49 93.05 94.48 88.91 95.76 89.65 96.23 89.93 96.33 89.98 94.49 93.59"/><polygon class="cls-12" points="97.84 95.54 96.59 94.81 94.49 93.59 94.9 92.31 95.76 89.65 96.23 89.93 96.33 89.98 97.83 90.86 97.84 92.56 97.84 95.54"/></g><path class="cls-25" d="M97.84,92.56l-1.25,2.25-3,5.48-.21-.12-1.63-.9L91.2,99l3.29-5.93.41-.75,1.33-2.37.1,0,1.5.88Z"/><g class="cls-3"><polygon class="cls-26" points="89.77 90.86 89.77 90.32 89.77 86.18 91.04 86.92 91.51 87.19 91.61 87.25 89.77 90.86"/><polygon class="cls-12" points="93.13 92.8 91.87 92.07 89.77 90.86 90.19 89.57 91.04 86.92 91.51 87.19 91.61 87.25 93.12 88.13 93.12 89.82 93.13 92.8"/></g><path class="cls-27" d="M93.12,89.82l-1.25,2.25-3,5.48-.2-.11L87,96.54l-.52-.29,3.28-5.93.42-.75,1.32-2.38.1.06,1.51.88Z"/><g class="cls-3"><polygon class="cls-28" points="85.06 88.11 85.06 87.58 85.05 83.44 86.33 84.18 86.79 84.45 86.89 84.51 85.06 88.11"/><polygon class="cls-12" points="88.41 90.06 87.15 89.33 85.06 88.11 85.47 86.83 86.33 84.18 86.79 84.45 86.89 84.51 88.4 85.39 88.4 87.08 88.41 90.06"/></g><path class="cls-29" d="M88.4,87.08l-1.25,2.25-3,5.48-.2-.11-1.63-.91-.52-.28,3.29-5.93.41-.75,1.32-2.38.1.06,1.51.88Z"/><g class="cls-3"><polygon class="cls-30" points="80.34 85.36 80.34 84.83 80.33 80.69 81.61 81.43 82.07 81.7 82.18 81.76 80.34 85.36"/><polygon class="cls-12" points="83.69 87.31 82.44 86.58 80.34 85.36 80.75 84.08 81.61 81.43 82.07 81.7 82.18 81.76 83.68 82.64 83.69 84.33 83.69 87.31"/></g><path class="cls-31" d="M83.69,84.33l-1.25,2.25-3,5.48L79.2,92,77.57,91l-.52-.29,3.29-5.92.41-.75,1.32-2.38.11.06,1.5.88Z"/><g class="cls-3"><polygon class="cls-32" points="70.9 79.89 70.9 79.35 70.89 75.21 72.17 75.95 72.64 76.23 72.74 76.28 70.9 79.89"/><polygon class="cls-12" points="74.26 81.84 73 81.11 70.9 79.89 71.32 78.61 72.17 75.95 72.64 76.23 72.74 76.28 74.25 77.16 74.25 78.86 74.26 81.84"/></g><path class="cls-33" d="M74.25,78.86,73,81.11l-3,5.48-.2-.12-1.64-.9-.52-.29,3.29-5.93.42-.74,1.32-2.38.1,0,1.51.88Z"/><g class="cls-3"><polygon class="cls-34" points="75.62 82.61 75.62 82.08 75.61 77.94 76.89 78.68 77.36 78.95 77.46 79.01 75.62 82.61"/><polygon class="cls-12" points="78.97 84.56 77.72 83.83 75.62 82.61 76.03 81.33 76.89 78.68 77.36 78.95 77.46 79.01 78.96 79.89 78.97 81.58 78.97 84.56"/></g><path class="cls-35" d="M79,81.58l-1.25,2.25-3,5.48-.21-.11-1.63-.91L72.33,88l3.29-5.93.41-.75L77.36,79l.1.06,1.5.88Z"/><g class="cls-3"><polygon class="cls-36" points="66.19 77.14 66.19 76.61 66.18 72.47 67.45 73.21 67.92 73.48 68.02 73.54 66.19 77.14"/><polygon class="cls-12" points="69.54 79.09 68.28 78.36 66.19 77.14 66.6 75.86 67.45 73.21 67.92 73.48 68.02 73.54 69.53 74.42 69.53 76.11 69.54 79.09"/></g><path class="cls-37" d="M69.53,76.11l-1.25,2.25-3,5.48-.2-.11-1.63-.9-.52-.29,3.29-5.93.41-.75,1.32-2.38.1.06,1.51.88Z"/><g class="cls-3"><polygon class="cls-38" points="61.47 74.39 61.47 73.86 61.46 69.72 62.74 70.46 63.2 70.73 63.31 70.79 61.47 74.39"/><polygon class="cls-12" points="64.82 76.34 63.57 75.61 61.47 74.39 61.88 73.11 62.74 70.46 63.2 70.73 63.31 70.79 64.81 71.67 64.82 73.36 64.82 76.34"/></g><path class="cls-39" d="M64.82,73.36l-1.25,2.25-3,5.48-.2-.11-1.63-.9-.52-.29,3.29-5.93.41-.75,1.32-2.38.11.06,1.5.88Z"/><g class="cls-3"><polygon class="cls-40" points="56.75 71.66 56.75 71.12 56.74 66.98 58.02 67.72 58.48 68 58.59 68.06 56.75 71.66"/><polygon class="cls-12" points="60.1 73.61 58.85 72.88 56.75 71.66 57.16 70.38 58.02 67.72 58.48 68 58.59 68.06 60.09 68.93 60.1 70.63 60.1 73.61"/></g><path class="cls-41" d="M60.1,70.63l-1.25,2.25-3,5.48-.2-.12L54,77.34l-.52-.29,3.29-5.93.41-.74L58.49,68l.1,0,1.5.88Z"/><g class="cls-3"><polygon class="cls-42" points="47.32 66.18 47.32 65.65 47.31 61.51 48.58 62.25 49.05 62.52 49.15 62.58 47.32 66.18"/><polygon class="cls-12" points="50.67 68.13 49.41 67.4 47.32 66.18 47.73 64.9 48.58 62.25 49.05 62.52 49.15 62.58 50.66 63.46 50.66 65.15 50.67 68.13"/></g><path class="cls-43" d="M50.66,65.15,49.41,67.4l-3,5.48-.2-.11c-.37-.2-1.1-.6-1.63-.91L44,71.58l3.29-5.93.41-.75,1.32-2.38.1.06,1.51.88Z"/><g class="cls-3"><polygon class="cls-44" points="52.03 68.92 52.03 68.38 52.02 64.24 53.3 64.98 53.77 65.26 53.87 65.31 52.03 68.92"/><polygon class="cls-12" points="55.38 70.87 54.13 70.14 52.03 68.92 52.45 67.64 53.3 64.98 53.77 65.26 53.87 65.31 55.38 66.19 55.38 67.89 55.38 70.87"/></g><path class="cls-45" d="M55.38,67.89l-1.25,2.25-3,5.48-.2-.12-1.64-.9-.52-.29L52,68.38l.42-.74,1.32-2.38.1,0,1.51.88Z"/><g class="cls-3"><polygon class="cls-46" points="42.6 63.42 42.6 62.89 42.59 58.75 43.87 59.49 44.33 59.76 44.44 59.82 42.6 63.42"/><polygon class="cls-12" points="45.95 65.37 44.7 64.64 42.6 63.42 43.01 62.14 43.87 59.49 44.33 59.76 44.44 59.82 45.94 60.7 45.95 62.39 45.95 65.37"/></g><path class="cls-47" d="M46,62.39,44.7,64.64l-3,5.48-.2-.11-1.63-.91-.52-.28,3.29-5.93.41-.75,1.32-2.38.11.06,1.5.88Z"/><g class="cls-3"><polygon class="cls-48" points="37.88 60.69 37.88 60.16 37.87 56.02 39.15 56.76 39.62 57.03 39.72 57.09 37.88 60.69"/><polygon class="cls-12" points="41.23 62.64 39.98 61.91 37.88 60.69 38.29 59.41 39.15 56.76 39.62 57.03 39.72 57.09 41.22 57.96 41.23 59.66 41.23 62.64"/></g><path class="cls-49" d="M41.23,59.66,40,61.91l-3,5.48-.2-.11-1.63-.91-.52-.29,3.29-5.92.41-.75L39.61,57l.11.06,1.5.87Z"/><g class="cls-3"><polygon class="cls-50" points="33.16 57.97 33.16 57.44 33.15 53.3 34.43 54.04 34.9 54.31 35 54.37 33.16 57.97"/><polygon class="cls-12" points="36.51 59.92 35.26 59.19 33.16 57.97 33.58 56.69 34.43 54.04 34.9 54.31 35 54.37 36.51 55.24 36.51 56.94 36.51 59.92"/></g><path class="cls-51" d="M36.51,56.94l-1.25,2.25-3,5.48L32,64.56l-1.63-.91-.52-.29,3.29-5.92.42-.75,1.32-2.38.1.06,1.51.88Z"/><g class="cls-3"><polygon class="cls-52" points="126.3 129.89 126.32 136.98 137.31 130.63 138.98 122.57 126.3 129.89"/><polygon class="cls-9" points="126.32 136.97 62.87 100.23 62.77 100.17 0.02 63.84 0 56.76 126.3 129.89 126.32 136.97"/><polygon class="cls-12" points="12.68 49.44 0 56.76 126.3 129.89 138.98 122.57 12.68 49.44"/></g><g class="cls-3"><polygon class="cls-53" points="63.17 100.05 62.87 100.23 62.77 100.17 62.76 94.59 63.16 94.82 63.17 100.05"/><polygon class="cls-54" points="123.92 135.12 63.18 100.05 63.16 94.82 123.91 129.89 123.92 135.12"/><polygon class="cls-55" points="123.92 135.12 123.92 135.58 62.87 100.23 63.18 100.05 123.92 135.12"/></g><g class="cls-3"><polygon class="cls-56" points="1.67 64.33 1.27 64.56 1.25 58.87 1.66 59.1 1.67 64.33"/><polygon class="cls-54" points="60.1 98.26 1.67 64.33 1.66 59.1 60.09 93.03 60.1 98.26"/><polygon class="cls-55" points="60.1 98.26 60.1 98.63 1.27 64.56 1.67 64.33 60.1 98.26"/></g><polygon class="cls-57" points="132.03 86.86 132.03 85.64 132.69 86.02 132.69 89.97 129.52 99.04 132.03 86.86"/><polygon class="cls-58" points="98.92 67.62 98.92 66.4 99.32 66.64 99.34 71.42 96.41 79.8 98.92 67.62"/><polygon class="cls-59" points="55.31 42.26 55.31 41.03 55.45 41.11 55.46 46.8 52.8 54.44 55.31 42.26"/><polygon class="cls-60" points="134.11 88.04 134.11 86.82 134.76 87.2 134.76 88.42 133.18 92.58 134.11 88.04"/><polygon class="cls-61" points="100.74 68.67 100.74 67.45 101.4 67.83 101.4 69.05 99.82 73.21 100.74 68.67"/><polygon class="cls-62" points="56.88 43.19 56.88 41.94 57.53 42.32 57.52 43.56 55.94 47.74 56.88 43.19"/><polygon class="cls-63" points="19.93 21.7 19.92 20.46 20.58 20.84 20.58 22.09 18.98 26.25 19.93 21.7"/><polygon class="cls-64" points="22.01 22.92 22 21.67 22.65 22.05 22.66 23.3 21.07 27.46 22.01 22.92"/><polygon class="cls-65" points="24.09 24.1 24.09 22.88 24.73 23.26 24.74 24.54 23.15 28.65 24.09 24.1"/><polygon class="cls-66" points="26.17 25.32 26.17 24.09 26.82 24.48 26.82 25.72 25.23 29.88 26.17 25.32"/><polygon class="cls-67" points="28.25 26.51 28.24 25.3 28.89 25.68 28.9 26.93 27.31 31.06 28.25 26.51"/><polygon class="cls-68" points="30.33 27.72 30.34 26.51 30.98 26.89 30.98 28.14 29.39 32.27 30.33 27.72"/><polygon class="cls-69" points="32.41 28.95 32.41 27.72 33.07 28.1 33.06 29.34 31.47 33.5 32.41 28.95"/><polygon class="cls-70" points="34.49 30.17 34.48 28.93 35.15 29.31 35.15 30.55 33.55 34.72 34.49 30.17"/><polygon class="cls-71" points="36.58 31.37 36.58 30.15 37.23 30.52 37.23 31.75 35.63 35.92 36.58 31.37"/><polygon class="cls-72" points="38.66 32.58 38.66 31.36 39.31 31.73 39.31 32.96 37.72 37.13 38.66 32.58"/><polygon class="cls-73" points="40.74 33.8 40.74 32.56 41.39 32.95 41.39 34.18 39.8 38.35 40.74 33.8"/><polygon class="cls-74" points="42.82 35.02 42.82 33.78 43.46 34.15 43.47 35.4 41.88 39.57 42.82 35.02"/><polygon class="cls-75" points="44.9 36.19 44.9 34.98 45.56 35.36 45.54 36.6 43.96 40.74 44.9 36.19"/><polygon class="cls-76" points="46.98 37.43 46.98 36.19 47.63 36.56 47.63 37.8 46.04 41.98 46.98 37.43"/><polygon class="cls-77" points="49.06 38.6 49.06 37.4 49.77 37.81 49.77 39.05 48.12 43.15 49.06 38.6"/><polygon class="cls-78" points="50.87 41.46 50.86 42.91 50.26 44.41 50.87 41.46"/><polygon class="cls-79" points="58.96 44.39 58.96 43.15 59.61 43.53 59.61 44.76 58.02 48.94 58.96 44.39"/><polygon class="cls-80" points="61.04 45.58 61.04 44.37 61.69 44.74 61.69 45.98 60.1 50.13 61.04 45.58"/><polygon class="cls-81" points="63.12 46.79 63.12 45.57 63.77 45.95 63.77 47.19 62.18 51.36 63.12 46.79"/><polygon class="cls-82" points="65.2 48 65.2 46.78 65.85 47.16 65.85 48.4 64.26 52.55 65.2 48"/><polygon class="cls-83" points="67.29 49.21 67.28 47.99 67.93 48.37 67.93 49.61 66.34 53.76 67.29 49.21"/><polygon class="cls-84" points="69.37 50.42 69.36 49.21 70.02 49.59 70.01 50.82 68.43 54.99 69.37 50.42"/><polygon class="cls-85" points="71.45 51.63 71.44 50.41 72.1 50.79 72.09 52.03 70.51 56.2 71.45 51.63"/><polygon class="cls-86" points="73.53 52.84 73.53 51.62 74.18 52 74.17 53.24 72.59 57.41 73.53 52.84"/><polygon class="cls-87" points="75.61 54.05 75.61 52.84 76.26 53.22 76.26 54.45 74.67 58.61 75.61 54.05"/><polygon class="cls-88" points="77.69 55.26 77.69 54.04 78.34 54.42 78.34 55.66 76.75 59.84 77.69 55.26"/><polygon class="cls-89" points="79.77 56.47 79.77 55.25 80.42 55.63 80.42 56.88 78.83 61.05 79.77 56.47"/><polygon class="cls-90" points="81.85 57.68 81.85 56.46 82.5 56.84 82.5 58.07 80.91 62.24 81.85 57.68"/><polygon class="cls-91" points="83.94 58.89 83.93 57.67 84.58 58.05 84.58 59.28 82.99 63.45 83.94 58.89"/><polygon class="cls-92" points="86.02 60.1 86.01 58.88 86.72 59.3 86.72 60.53 85.08 64.64 86.02 60.1"/><polygon class="cls-93" points="88.15 61.35 88.15 60.13 88.81 60.51 88.81 61.74 87.21 65.91 88.15 61.35"/><polygon class="cls-94" points="90.24 62.6 90.24 61.34 90.89 61.72 90.89 62.95 89.3 67.12 90.24 62.6"/><polygon class="cls-95" points="92.32 63.74 92.32 62.55 93.03 62.95 93.03 64.19 91.38 68.29 92.32 63.74"/><polygon class="cls-96" points="94.46 65.02 94.48 65.03 94.48 67.17 93.52 69.57 94.46 65.02"/><polygon class="cls-97" points="102.84 69.88 102.84 68.66 103.48 69.03 103.48 70.26 101.9 74.51 102.84 69.88"/><polygon class="cls-98" points="104.92 71.08 104.91 69.88 105.56 70.26 105.56 71.48 103.98 75.7 104.92 71.08"/><polygon class="cls-99" points="107 72.29 107 71.08 107.62 71.45 107.62 72.67 106.06 76.93 107 72.29"/><polygon class="cls-100" points="109.08 73.57 109.07 72.29 109.7 72.65 109.7 73.87 108.14 78.12 109.08 73.57"/><polygon class="cls-101" points="111.16 74.75 111.16 73.5 111.79 73.86 111.78 75.05 110.22 79.3 111.16 74.75"/><polygon class="cls-102" points="113.24 76.01 113.24 74.71 113.89 75.09 113.89 76.31 112.3 80.56 113.24 76.01"/><polygon class="cls-103" points="115.33 77.22 115.33 75.92 115.98 76.3 115.98 77.53 114.38 81.77 115.33 77.22"/><polygon class="cls-104" points="117.41 78.42 117.41 77.13 118.06 77.51 118.06 78.74 116.46 82.97 117.41 78.42"/><polygon class="cls-105" points="119.49 79.57 119.49 78.34 120.14 78.72 120.14 79.95 118.55 84.18 119.49 79.57"/><polygon class="cls-106" points="121.57 80.78 121.57 79.55 122.21 79.93 122.21 81.15 120.63 85.36 121.57 80.78"/><polygon class="cls-107" points="123.65 82.07 123.65 80.76 124.3 81.14 124.3 82.36 122.71 86.62 123.65 82.07"/><polygon class="cls-108" points="125.73 83.28 125.73 81.97 126.38 82.35 126.38 83.58 124.79 87.81 125.73 83.28"/><polygon class="cls-109" points="127.59 85.54 127.59 87.11 126.87 89.03 127.59 85.54"/><polygon class="cls-110" points="136.2 89.2 136.2 88.06 136.87 88.45 136.87 89.68 135.26 93.75 136.2 89.2"/><polygon class="cls-111" points="138.34 90.49 138.34 89.3 139.01 89.69 139.01 90.91 137.4 95.03 138.34 90.49"/><polygon class="cls-112" points="140.42 91.73 140.42 90.51 141.12 90.92 141.12 92.16 139.48 96.28 140.42 91.73"/><polygon class="cls-113" points="142.55 93 142.55 91.75 142.6 91.78 143.26 91.4 143.26 93.43 141.61 97.55 142.55 93"/><polygon class="cls-114" points="13.56 39.63 15.99 39.63 18.51 25.98 18.5 20.88 14.78 38.93 13.56 39.63"/></g></g></g></g></svg>