<svg xmlns="http://www.w3.org/2000/svg" xmlns:xlink="http://www.w3.org/1999/xlink" viewBox="0 0 150 150"><defs><style>.cls-1,.cls-2{fill:none;}.cls-2{stroke:#fff;stroke-miterlimit:10;stroke-width:0.1px;}.cls-3{opacity:0;}.cls-4{fill:#000714;}.cls-5{opacity:0.1;fill:url(#新建图案);}.cls-6{isolation:isolate;}.cls-7{fill:url(#未命名的渐变_309);}.cls-8{fill:#87a2c7;}.cls-9{fill:#89a3c8;}.cls-10{fill:#859cc5;}.cls-11{fill:#8aa7ca;}.cls-12{fill:#809dc2;}.cls-13{fill:#8ca6cc;}.cls-14{fill:#7e99be;}.cls-15{fill:#7893b8;}.cls-16{fill:#88a2c7;}.cls-17{fill:#5d779e;}.cls-18{fill:#5a749d;}.cls-19{fill:#7b97bc;}.cls-20{fill:#869ec6;}.cls-21{fill:#718ab3;}.cls-22{fill:#88a4c9;}.cls-23{fill:#5e7aa0;}.cls-24{fill:#59739c;}.cls-25{fill:#809dc0;}.cls-26{fill:#839ec4;}.cls-27{fill:#8da6cc;}.cls-28{fill:#6d87ae;}.cls-29{fill:#8ba8cb;}.cls-30{fill:#627ca4;}.cls-31{fill:#7a95bb;}.cls-32{fill:#6782a9;}.cls-33{fill:#657fa6;}.cls-34{fill:#8ca9cc;}.cls-35{fill:#8daacd;}.cls-36{fill:#87a5c7;}.cls-37{fill:#7c95bd;}.cls-38{fill:#7690b7;}.cls-39{fill:#627ea4;}.cls-40{fill:#8da4cd;}.cls-41{fill:#6a86ab;}.cls-42{fill:#7893b9;}.cls-43{fill:#5f7aa1;}.cls-44{fill:#728db3;}.cls-45{fill:#6d86af;}.cls-46{fill:#758db5;}.cls-47{fill:#8ba8cc;}.cls-48{fill:#728eb3;}.cls-49{fill:#6f89b0;}.cls-50{fill:#8aa6cb;}.cls-51{fill:#6a82ab;}.cls-52{fill:#6c86ae;}.cls-53{fill:#879fc7;}.cls-54{fill:#6884a9;}.cls-55{fill:#7d97bd;}.cls-56{fill:#839dc3;}.cls-57{fill:#657ea6;}.cls-58{fill:#8ca4cc;}.cls-59{fill:#627ba4;}.cls-60{fill:#809cc1;}.cls-61{fill:#839ec2;}.cls-62{fill:#7f9bbe;}.cls-63{fill:#617da3;}.cls-64{fill:#7f9ac0;}.cls-65{fill:#849fc4;}.cls-66{fill:#7d96bd;}.cls-67{fill:#5e78a0;}.cls-68{fill:#5c769e;}.cls-69{fill:#7792b8;}.cls-70{fill:#5b759e;}.cls-71{fill:#5a759c;}.cls-72{fill:#6d89af;}.cls-73{fill:#6d88ae;}.cls-74{fill:#8099c2;}.cls-75{fill:#6a86ac;}.cls-76{fill:#6783a9;}.cls-77{fill:#7d98be;}.cls-78{fill:#647fa6;}.cls-79{fill:#6581a7;}.cls-80{fill:#617ba3;}.cls-81{fill:#7791b8;}.cls-82{fill:#738fb3;}.cls-83{fill:#8ba3cc;}.cls-84{fill:#89a5ca;}.cls-85{fill:#6681a8;}.cls-86{fill:#647da4;}.cls-87{fill:#7894b8;}.cls-88{fill:#5a769d;}.cls-89{fill:#748cb4;}.cls-90{fill:#6985aa;}.cls-91{fill:#647da6;}.cls-92{fill:#607ba2;}.cls-93{fill:url(#未命名的渐变_10);}.cls-94{fill:url(#未命名的渐变_309-2);}.cls-95{fill:url(#未命名的渐变_130);}.cls-96{fill:url(#未命名的渐变_130-2);}.cls-97{fill:url(#未命名的渐变_170);}.cls-98{fill:url(#未命名的渐变_245);}.cls-99{opacity:0.2;}</style><pattern id="新建图案" data-name="新建图案" width="18.57" height="32.16" patternTransform="translate(3378.06 1111.58)" patternUnits="userSpaceOnUse" viewBox="0 0 18.57 32.16"><rect class="cls-1" width="18.57" height="32.16"/><polyline class="cls-2" points="18.57 21.44 18.57 32.16 18.57 42.88"/><polyline class="cls-2" points="9.29 26.8 18.57 32.16 27.85 37.51 27.85 37.52"/><polyline class="cls-2" points="9.29 37.52 9.29 37.51 18.57 32.16 27.85 26.8"/><polygon class="cls-2" points="27.85 37.52 27.85 26.8 18.57 21.44 9.28 26.8 9.28 37.52 18.57 42.88 27.85 37.52"/><polyline class="cls-2" points="0 21.44 0 32.16 0 42.88"/><polyline class="cls-2" points="-9.28 26.8 0 32.16 9.28 37.51 9.28 37.52"/><polyline class="cls-2" points="-9.28 37.52 -9.28 37.51 0 32.16 9.28 26.8"/><polygon class="cls-2" points="9.28 37.52 9.28 26.8 0 21.44 -9.29 26.8 -9.29 37.52 0 42.88 9.28 37.52"/><polyline class="cls-2" points="18.57 10.72 27.85 16.08 37.13 21.43 37.13 21.44"/><polyline class="cls-2" points="18.57 21.44 18.57 21.43 27.85 16.08 37.13 10.72"/><polygon class="cls-2" points="37.14 21.44 37.14 10.72 27.85 5.36 18.57 10.72 18.57 21.44 27.85 26.8 37.14 21.44"/><polyline class="cls-2" points="9.29 5.36 9.29 16.08 9.29 26.8"/><polyline class="cls-2" points="0.01 10.72 9.29 16.08 18.57 21.43 18.57 21.44"/><polyline class="cls-2" points="0.01 21.44 0.01 21.43 9.29 16.08 18.57 10.72"/><polygon class="cls-2" points="18.57 21.44 18.57 10.72 9.28 5.36 0 10.72 0 21.44 9.28 26.8 18.57 21.44"/><polyline class="cls-2" points="-18.56 10.72 -9.28 16.08 0 21.43 0 21.44"/><polyline class="cls-2" points="-18.56 21.44 -18.56 21.43 -9.28 16.08 0 10.72"/><polygon class="cls-2" points="0 21.44 0 10.72 -9.29 5.36 -18.57 10.72 -18.57 21.44 -9.29 26.8 0 21.44"/><polyline class="cls-2" points="18.57 -10.72 18.57 0 18.57 10.72"/><polyline class="cls-2" points="9.29 -5.36 18.57 0 27.85 5.35 27.85 5.36"/><polyline class="cls-2" points="9.29 5.36 9.29 5.35 18.57 0 27.85 -5.36"/><polygon class="cls-2" points="27.85 5.36 27.85 -5.36 18.57 -10.72 9.28 -5.36 9.28 5.36 18.57 10.72 27.85 5.36"/><polyline class="cls-2" points="0 -10.72 0 0 0 10.72"/><polyline class="cls-2" points="-9.28 -5.36 0 0 9.28 5.35 9.28 5.36"/><polyline class="cls-2" points="-9.28 5.36 -9.28 5.35 0 0 9.28 -5.36"/><polygon class="cls-2" points="9.28 5.36 9.28 -5.36 0 -10.72 -9.29 -5.36 -9.29 5.36 0 10.72 9.28 5.36"/></pattern><linearGradient id="未命名的渐变_309" x1="9.02" y1="92.24" x2="7.85" y2="81.14" gradientUnits="userSpaceOnUse"><stop offset="0" stop-color="#283140"/><stop offset="0.1" stop-color="#12161a"/><stop offset="0.6" stop-color="#7a98cc"/><stop offset="0.8" stop-color="#7a98cc"/><stop offset="1" stop-color="#38455a"/></linearGradient><linearGradient id="未命名的渐变_10" x1="5.07" y1="90.04" x2="11.61" y2="83.5" gradientUnits="userSpaceOnUse"><stop offset="0" stop-color="#283140"/><stop offset="1" stop-color="#12161a"/></linearGradient><linearGradient id="未命名的渐变_309-2" x1="9.65" y1="91.42" x2="4.74" y2="82.92" xlink:href="#未命名的渐变_309"/><linearGradient id="未命名的渐变_130" x1="4.78" y1="93.09" x2="3.51" y2="81.09" gradientUnits="userSpaceOnUse"><stop offset="0" stop-color="#a8b3cd"/><stop offset="0.19" stop-color="#939cb1"/><stop offset="0.3" stop-color="#8a93a6"/><stop offset="0.35" stop-color="#9ca3b3"/><stop offset="0.48" stop-color="#bfc4ce"/><stop offset="0.61" stop-color="#dbdee4"/><stop offset="0.74" stop-color="#eff0f3"/><stop offset="0.87" stop-color="#fbfbfc"/><stop offset="1" stop-color="#fff"/></linearGradient><linearGradient id="未命名的渐变_130-2" x1="6.63" y1="93.63" x2="5.25" y2="80.52" xlink:href="#未命名的渐变_130"/><linearGradient id="未命名的渐变_170" x1="4.47" y1="90.97" x2="12.73" y2="82.71" gradientUnits="userSpaceOnUse"><stop offset="0" stop-color="#7e8aa6"/><stop offset="0.5" stop-color="#a1aebf"/><stop offset="1" stop-color="#7e8aa6"/></linearGradient><linearGradient id="未命名的渐变_245" x1="78.6" y1="80.18" x2="76.69" y2="69.37" gradientUnits="userSpaceOnUse"><stop offset="0" stop-color="#a8b3cd"/><stop offset="0.06" stop-color="#98a2b8"/><stop offset="0.12" stop-color="#8e97ab"/><stop offset="0.17" stop-color="#8a93a6"/><stop offset="0.24" stop-color="#9ca3b3"/><stop offset="0.39" stop-color="#bfc4ce"/><stop offset="0.54" stop-color="#dbdee4"/><stop offset="0.69" stop-color="#eff0f3"/><stop offset="0.85" stop-color="#fbfbfc"/><stop offset="1" stop-color="#fff"/></linearGradient></defs><title>叶片2</title><g id="图层_2" data-name="图层 2"><g id="图元"><g id="叶片2"><g id="背景" class="cls-3"><rect class="cls-4" width="150" height="150"/><rect id="网格" class="cls-5" width="150" height="150"/></g><g class="cls-6"><path class="cls-7" d="M12.41,84.65A4.3,4.3,0,0,0,8.5,81.42l-4,.07c1.63,0,3.2,1.18,3.91,3.24,1,2.73,0,5.93-2.09,7.14a3.34,3.34,0,0,1-1.62.46l4-.07a3.41,3.41,0,0,0,1.63-.46C12.43,90.59,13.36,87.39,12.41,84.65Z"/><g class="cls-6"><polygon class="cls-8" points="12.15 86.44 11.88 86.46 11.88 86.36 12.15 86.34 12.15 86.44"/><polygon class="cls-9" points="12.18 86.85 11.9 86.87 11.9 86.78 12.17 86.76 12.18 86.85"/><polygon class="cls-10" points="12.11 86.02 11.84 86.04 11.82 85.95 12.09 85.93 12.11 86.02"/><polygon class="cls-11" points="12.17 87.27 11.9 87.29 11.9 87.2 12.17 87.18 12.17 87.27"/><polygon class="cls-12" points="12.03 85.61 11.76 85.64 11.74 85.55 12.01 85.53 12.03 85.61"/><polygon class="cls-13" points="12.13 87.68 11.86 87.7 11.87 87.61 12.14 87.59 12.13 87.68"/><polygon class="cls-14" points="11.92 85.21 11.65 85.23 11.63 85.15 11.9 85.13 11.92 85.21"/><polygon class="cls-15" points="12 86.55 11.73 86.57 11.88 86.46 12.15 86.44 12 86.55"/><polygon class="cls-16" points="12.01 86.67 11.73 86.69 11.73 86.57 12 86.55 12.01 86.67"/><polygon class="cls-17" points="12.17 86.76 11.9 86.78 11.73 86.69 12.01 86.67 12.17 86.76"/><polygon class="cls-18" points="12.15 86.34 11.88 86.36 11.7 86.29 11.97 86.27 12.15 86.34"/><polygon class="cls-19" points="11.96 86.15 11.69 86.17 11.84 86.04 12.11 86.02 11.96 86.15"/><polygon class="cls-20" points="11.97 86.27 11.7 86.29 11.69 86.17 11.96 86.15 11.97 86.27"/><polygon class="cls-21" points="12.01 86.95 11.74 86.97 11.9 86.87 12.18 86.85 12.01 86.95"/><polygon class="cls-22" points="12.01 87.07 11.74 87.09 11.74 86.97 12.01 86.95 12.01 87.07"/><polygon class="cls-23" points="12.17 87.18 11.9 87.2 11.74 87.09 12.01 87.07 12.17 87.18"/><polygon class="cls-24" points="12.09 85.93 11.82 85.95 11.64 85.89 11.91 85.87 12.09 85.93"/><polygon class="cls-25" points="11.89 85.76 11.62 85.78 11.76 85.64 12.03 85.61 11.89 85.76"/><polygon class="cls-26" points="11.91 85.87 11.64 85.89 11.62 85.78 11.89 85.76 11.91 85.87"/><polygon class="cls-27" points="12.06 88.09 11.79 88.11 11.81 88.02 12.08 88 12.06 88.09"/><polygon class="cls-28" points="11.99 87.34 11.72 87.36 11.9 87.29 12.17 87.27 11.99 87.34"/><polygon class="cls-29" points="11.98 87.46 11.71 87.48 11.72 87.36 11.99 87.34 11.98 87.46"/><polygon class="cls-30" points="12.14 87.59 11.87 87.61 11.71 87.48 11.98 87.46 12.14 87.59"/><polygon class="cls-24" points="12.01 85.53 11.74 85.55 11.55 85.5 11.82 85.48 12.01 85.53"/><polygon class="cls-31" points="11.79 84.82 11.52 84.84 11.49 84.76 11.76 84.74 11.79 84.82"/><polygon class="cls-26" points="11.79 85.37 11.52 85.39 11.65 85.23 11.92 85.21 11.79 85.37"/><polygon class="cls-25" points="11.82 85.48 11.55 85.5 11.52 85.39 11.79 85.37 11.82 85.48"/><polygon class="cls-32" points="11.95 87.74 11.68 87.76 11.86 87.7 12.13 87.68 11.95 87.74"/><polygon class="cls-33" points="12.08 88 11.81 88.02 11.66 87.87 11.93 87.85 12.08 88"/><polygon class="cls-34" points="11.93 87.85 11.66 87.87 11.68 87.76 11.95 87.74 11.93 87.85"/><polygon class="cls-24" points="11.9 85.13 11.63 85.15 11.44 85.13 11.71 85.11 11.9 85.13"/><polygon class="cls-35" points="11.96 88.48 11.7 88.5 11.72 88.42 11.99 88.4 11.96 88.48"/><polygon class="cls-36" points="11.67 85 11.4 85.02 11.52 84.84 11.79 84.82 11.67 85"/><polygon class="cls-37" points="11.71 85.11 11.44 85.13 11.4 85.02 11.67 85 11.71 85.11"/><polygon class="cls-38" points="11.63 84.45 11.36 84.47 11.32 84.39 11.59 84.37 11.63 84.45"/><polygon class="cls-39" points="11.88 88.12 11.61 88.14 11.79 88.11 12.06 88.09 11.88 88.12"/><polygon class="cls-40" points="11.85 88.23 11.58 88.25 11.61 88.14 11.88 88.12 11.85 88.23"/><polygon class="cls-41" points="11.99 88.4 11.72 88.42 11.58 88.25 11.85 88.23 11.99 88.4"/><polygon class="cls-24" points="11.76 84.74 11.49 84.76 11.3 84.76 11.57 84.74 11.76 84.74"/><polygon class="cls-42" points="11.57 84.74 11.3 84.76 11.26 84.66 11.53 84.64 11.57 84.74"/><polygon class="cls-22" points="11.53 84.64 11.26 84.66 11.36 84.47 11.63 84.45 11.53 84.64"/><polygon class="cls-34" points="11.84 88.86 11.57 88.88 11.6 88.8 11.87 88.78 11.84 88.86"/><polygon class="cls-43" points="11.78 88.5 11.51 88.52 11.7 88.5 11.96 88.48 11.78 88.5"/><polygon class="cls-44" points="11.45 84.1 11.18 84.12 11.13 84.04 11.4 84.02 11.45 84.1"/><polygon class="cls-27" points="11.75 88.6 11.48 88.62 11.51 88.52 11.78 88.5 11.75 88.6"/><polygon class="cls-45" points="11.87 88.78 11.6 88.8 11.48 88.62 11.75 88.6 11.87 88.78"/><polygon class="cls-29" points="11.36 84.3 11.09 84.32 11.18 84.12 11.45 84.1 11.36 84.3"/><polygon class="cls-46" points="11.41 84.39 11.14 84.42 11.09 84.32 11.36 84.3 11.41 84.39"/><polygon class="cls-47" points="11.69 89.23 11.42 89.25 11.46 89.17 11.73 89.15 11.69 89.23"/><polygon class="cls-13" points="11.62 88.96 11.35 88.98 11.39 88.88 11.65 88.86 11.62 88.96"/><polygon class="cls-48" points="11.73 89.15 11.46 89.17 11.35 88.98 11.62 88.96 11.73 89.15"/><polygon class="cls-28" points="11.24 83.76 10.97 83.78 10.92 83.71 11.19 83.69 11.24 83.76"/><polygon class="cls-49" points="11.22 84.06 10.95 84.08 10.89 83.99 11.16 83.97 11.22 84.06"/><polygon class="cls-34" points="11.16 83.97 10.89 83.99 10.97 83.78 11.24 83.76 11.16 83.97"/><polygon class="cls-50" points="11.52 89.58 11.25 89.6 11.29 89.52 11.56 89.5 11.52 89.58"/><polygon class="cls-11" points="11.46 89.3 11.19 89.32 11.24 89.23 11.51 89.21 11.46 89.3"/><polygon class="cls-38" points="11.56 89.5 11.29 89.52 11.19 89.32 11.46 89.3 11.56 89.5"/><polygon class="cls-51" points="11.01 83.45 10.74 83.47 10.68 83.41 10.95 83.38 11.01 83.45"/><polygon class="cls-40" points="10.95 83.66 10.68 83.68 10.74 83.47 11.01 83.45 10.95 83.66"/><polygon class="cls-52" points="11.01 83.75 10.74 83.77 10.68 83.68 10.95 83.66 11.01 83.75"/><polygon class="cls-53" points="11.32 89.91 11.05 89.93 11.09 89.86 11.36 89.84 11.32 89.91"/><polygon class="cls-31" points="11.36 89.84 11.09 89.86 11.01 89.65 11.28 89.63 11.36 89.84"/><polygon class="cls-16" points="11.28 89.63 11.01 89.65 11.07 89.56 11.34 89.54 11.28 89.63"/><polygon class="cls-32" points="10.76 83.16 10.49 83.18 10.43 83.12 10.7 83.1 10.76 83.16"/><polygon class="cls-27" points="10.71 83.38 10.44 83.4 10.49 83.18 10.76 83.16 10.71 83.38"/><polygon class="cls-54" points="10.78 83.46 10.51 83.48 10.44 83.4 10.71 83.38 10.78 83.46"/><polygon class="cls-10" points="11.07 89.93 10.81 89.95 10.87 89.86 11.14 89.84 11.07 89.93"/><polygon class="cls-55" points="11.15 90.14 10.88 90.17 10.81 89.95 11.07 89.93 11.15 90.14"/><polygon class="cls-56" points="11.1 90.2 10.83 90.23 10.88 90.17 11.15 90.14 11.1 90.2"/><polygon class="cls-57" points="10.53 83.2 10.26 83.22 10.19 83.15 10.46 83.13 10.53 83.2"/><polygon class="cls-58" points="10.46 83.13 10.19 83.15 10.22 82.92 10.49 82.9 10.46 83.13"/><polygon class="cls-59" points="10.49 82.9 10.22 82.92 10.16 82.87 10.43 82.85 10.49 82.9"/><polygon class="cls-60" points="10.91 90.43 10.64 90.45 10.58 90.23 10.85 90.2 10.91 90.43"/><polygon class="cls-61" points="10.85 90.2 10.58 90.23 10.65 90.15 10.92 90.13 10.85 90.2"/><polygon class="cls-62" points="10.85 90.48 10.58 90.5 10.64 90.45 10.91 90.43 10.85 90.48"/><polygon class="cls-29" points="10.19 82.9 9.92 82.92 9.93 82.69 10.2 82.67 10.19 82.9"/><polygon class="cls-63" points="10.27 82.96 10 82.98 9.92 82.92 10.19 82.9 10.27 82.96"/><polygon class="cls-23" points="10.2 82.67 9.93 82.69 9.87 82.65 10.14 82.63 10.2 82.67"/><polygon class="cls-64" points="10.61 90.46 10.34 90.48 10.41 90.41 10.68 90.39 10.61 90.46"/><polygon class="cls-65" points="10.65 90.68 10.38 90.7 10.34 90.48 10.61 90.46 10.65 90.68"/><polygon class="cls-66" points="10.59 90.73 10.32 90.75 10.38 90.7 10.65 90.68 10.59 90.73"/><polygon class="cls-67" points="9.99 82.76 9.72 82.78 9.63 82.72 9.9 82.7 9.99 82.76"/><polygon class="cls-22" points="9.9 82.7 9.63 82.72 9.63 82.49 9.9 82.47 9.9 82.7"/><polygon class="cls-68" points="9.9 82.47 9.63 82.49 9.56 82.45 9.84 82.44 9.9 82.47"/><polygon class="cls-53" points="10.37 90.9 10.1 90.92 10.08 90.7 10.35 90.68 10.37 90.9"/><polygon class="cls-31" points="10.35 90.68 10.08 90.7 10.16 90.63 10.43 90.61 10.35 90.68"/><polygon class="cls-69" points="10.31 90.95 10.04 90.97 10.1 90.92 10.37 90.9 10.31 90.95"/><polygon class="cls-70" points="9.7 82.58 9.43 82.6 9.34 82.56 9.61 82.54 9.7 82.58"/><polygon class="cls-53" points="9.61 82.54 9.34 82.56 9.32 82.33 9.59 82.3 9.61 82.54"/><polygon class="cls-71" points="9.59 82.3 9.32 82.33 9.25 82.3 9.52 82.28 9.59 82.3"/><polygon class="cls-38" points="10.07 90.87 9.8 90.89 9.89 90.83 10.16 90.81 10.07 90.87"/><polygon class="cls-9" points="10.08 91.1 9.81 91.12 9.8 90.89 10.07 90.87 10.08 91.1"/><polygon class="cls-44" points="10.02 91.14 9.75 91.16 9.81 91.12 10.08 91.1 10.02 91.14"/><polygon class="cls-71" points="9.39 82.44 9.12 82.46 9.04 82.42 9.31 82.4 9.39 82.44"/><polygon class="cls-65" points="9.31 82.4 9.04 82.42 9 82.19 9.27 82.17 9.31 82.4"/><polygon class="cls-24" points="9.27 82.17 9 82.19 8.93 82.17 9.2 82.15 9.27 82.17"/><polygon class="cls-72" points="9.79 91.03 9.52 91.05 9.6 91 9.87 90.98 9.79 91.03"/><polygon class="cls-50" points="9.78 91.26 9.51 91.28 9.52 91.05 9.79 91.03 9.78 91.26"/><polygon class="cls-73" points="9.71 91.29 9.44 91.31 9.51 91.28 9.78 91.26 9.71 91.29"/><polygon class="cls-24" points="9.08 82.33 8.81 82.35 8.73 82.32 9 82.3 9.08 82.33"/><polygon class="cls-74" points="9 82.3 8.73 82.32 8.67 82.1 8.94 82.08 9 82.3"/><polygon class="cls-24" points="8.94 82.08 8.67 82.1 8.6 82.08 8.87 82.06 8.94 82.08"/><polygon class="cls-75" points="9.49 91.16 9.22 91.18 9.31 91.14 9.58 91.12 9.49 91.16"/><polygon class="cls-13" points="9.46 91.38 9.19 91.41 9.22 91.18 9.49 91.16 9.46 91.38"/><polygon class="cls-76" points="9.39 91.41 9.12 91.43 9.19 91.41 9.46 91.38 9.39 91.41"/><polygon class="cls-24" points="8.77 82.25 8.5 82.27 8.41 82.25 8.68 82.23 8.77 82.25"/><polygon class="cls-77" points="8.68 82.23 8.41 82.25 8.34 82.03 8.61 82.01 8.68 82.23"/><polygon class="cls-24" points="8.61 82.01 8.34 82.03 8.27 82.03 8.54 82 8.61 82.01"/><polygon class="cls-78" points="9.18 91.25 8.91 91.27 9 91.25 9.27 91.23 9.18 91.25"/><polygon class="cls-27" points="9.14 91.47 8.87 91.49 8.91 91.27 9.18 91.25 9.14 91.47"/><polygon class="cls-24" points="8.45 82.2 8.18 82.22 8.09 82.22 8.36 82.2 8.45 82.2"/><polygon class="cls-79" points="9.07 91.49 8.8 91.51 8.87 91.49 9.14 91.47 9.07 91.49"/><polygon class="cls-31" points="8.36 82.2 8.09 82.22 8.01 82.01 8.27 81.99 8.36 82.2"/><polygon class="cls-24" points="8.27 81.99 8.01 82.01 7.93 82.01 8.2 81.99 8.27 81.99"/><polygon class="cls-30" points="8.86 91.31 8.59 91.33 8.69 91.32 8.96 91.3 8.86 91.31"/><polygon class="cls-35" points="8.8 91.53 8.54 91.55 8.59 91.33 8.86 91.31 8.8 91.53"/><polygon class="cls-24" points="8.13 82.19 7.86 82.22 7.76 82.22 8.04 82.2 8.13 82.19"/><polygon class="cls-80" points="8.73 91.54 8.46 91.56 8.54 91.55 8.8 91.53 8.73 91.54"/><polygon class="cls-81" points="8.04 82.2 7.76 82.22 7.67 82.02 7.94 82 8.04 82.2"/><polygon class="cls-43" points="8.55 91.34 8.28 91.36 8.37 91.35 8.64 91.33 8.55 91.34"/><polygon class="cls-27" points="8.47 91.55 8.2 91.57 8.28 91.36 8.55 91.34 8.47 91.55"/><polygon class="cls-82" points="7.72 82.23 7.45 82.26 7.34 82.07 7.61 82.05 7.72 82.23"/><polygon class="cls-83" points="8.14 91.53 7.87 91.55 7.95 91.35 8.22 91.33 8.14 91.53"/><polygon class="cls-72" points="7.4 82.3 7.13 82.32 7.01 82.15 7.28 82.13 7.4 82.3"/><polygon class="cls-84" points="7.8 91.48 7.53 91.5 7.63 91.31 7.9 91.29 7.8 91.48"/><polygon class="cls-75" points="7.1 82.41 6.83 82.43 6.7 82.27 6.96 82.25 7.1 82.41"/><polygon class="cls-36" points="7.47 91.39 7.21 91.41 7.32 91.23 7.59 91.21 7.47 91.39"/><polygon class="cls-85" points="6.8 82.55 6.53 82.57 6.39 82.42 6.66 82.4 6.8 82.55"/><polygon class="cls-10" points="7.15 91.26 6.88 91.28 7.01 91.12 7.28 91.1 7.15 91.26"/><polygon class="cls-86" points="6.52 82.72 6.25 82.74 6.09 82.61 6.36 82.58 6.52 82.72"/><polygon class="cls-12" points="6.84 91.1 6.57 91.12 6.71 90.97 6.98 90.95 6.84 91.1"/><polygon class="cls-43" points="6.25 82.92 5.98 82.94 5.82 82.83 6.08 82.81 6.25 82.92"/><polygon class="cls-55" points="6.54 90.91 6.27 90.93 6.42 90.8 6.69 90.78 6.54 90.91"/><polygon class="cls-17" points="5.99 83.15 5.72 83.17 5.55 83.07 5.82 83.05 5.99 83.15"/><polygon class="cls-87" points="6.25 90.69 5.98 90.71 6.14 90.59 6.41 90.57 6.25 90.69"/><polygon class="cls-88" points="5.75 83.41 5.48 83.43 5.31 83.35 5.58 83.33 5.75 83.41"/><polygon class="cls-89" points="5.97 90.43 5.71 90.45 5.87 90.35 6.14 90.33 5.97 90.43"/><polygon class="cls-24" points="5.54 83.69 5.27 83.71 5.09 83.65 5.36 83.63 5.54 83.69"/><polygon class="cls-73" points="5.72 90.15 5.45 90.17 5.62 90.09 5.89 90.07 5.72 90.15"/><polygon class="cls-24" points="5.34 84 5.07 84.02 4.89 83.98 5.16 83.96 5.34 84"/><polygon class="cls-90" points="5.49 89.84 5.22 89.87 5.39 89.81 5.66 89.78 5.49 89.84"/><polygon class="cls-24" points="5.17 84.33 4.9 84.35 4.71 84.32 4.98 84.3 5.17 84.33"/><polygon class="cls-91" points="5.27 89.51 5 89.53 5.18 89.5 5.45 89.47 5.27 89.51"/><polygon class="cls-24" points="5.02 84.67 4.75 84.69 4.56 84.69 4.83 84.67 5.02 84.67"/><polygon class="cls-92" points="5.08 89.16 4.81 89.18 5 89.16 5.27 89.14 5.08 89.16"/><path class="cls-93" d="M12.06,84.61c-1-2.6-3.52-3.75-5.58-2.56s-2.89,4.27-1.87,6.87,3.53,3.75,5.59,2.57S13.09,87.22,12.06,84.61Zm.11,2.66-.18.07v.12l.16.13v.09l-.18.06,0,.11.15.15,0,.09-.18,0,0,.11.14.17,0,.08-.18,0,0,.1.12.18,0,.08h-.18l0,.1.11.19,0,.08-.18,0,0,.09.1.2,0,.08-.18,0-.06.09.08.21,0,.06-.18-.06-.06.09.07.21-.05.07-.18-.09-.07.09.06.22-.06,0-.17-.1-.07.08,0,.22-.06,0-.16-.12-.08.07,0,.22-.06,0-.15-.14-.09.06v.23l-.06,0L9.87,91l-.08,0v.24l-.07,0-.13-.17-.09,0,0,.22-.07,0-.12-.18-.09,0,0,.22-.07,0L9,91.3h-.1l-.06.22H8.73l-.09-.21H8.55l-.08.21H8.4l-.08-.21h-.1l-.08.2H8.06L8,91.3H7.9l-.1.19-.07,0-.05-.23-.09,0-.12.17-.07,0,0-.23-.09,0-.13.16-.07,0,0-.23L7,91l-.14.15-.07,0v-.23l-.08-.06-.15.14-.07,0,0-.22-.08-.07-.16.12-.06-.06,0-.22-.08-.08-.16.1-.06-.06,0-.22-.07-.08-.17.08,0-.06.06-.22-.07-.08-.17,0,0-.07.07-.2-.06-.1-.18,0,0-.07.09-.2-.05-.1-.19,0,0-.08.11-.19-.05-.1H4.92l0-.08L5,88.53l0-.1-.18,0,0-.09.13-.16,0-.11-.18,0,0-.09.13-.14,0-.12-.18-.06v-.09l.15-.13,0-.11-.17-.08V87.1L4.68,87v-.12l-.17-.1v-.09l.17-.09v-.12l-.17-.11v-.09l.17-.08v-.11l-.15-.14v-.09l.18,0v-.12l-.14-.14,0-.09.18,0,0-.11-.13-.16,0-.09H4.9l0-.11-.13-.18,0-.08H5l0-.09L5,84.38l0-.08.19,0,0-.1-.1-.2,0-.07.18,0,.06-.09-.09-.21.05-.07.18.06.06-.08-.07-.22,0-.06.17.08.07-.08-.05-.22.05-.06.17.1.07-.07,0-.23.06,0,.16.12.07-.06,0-.23.06,0,.16.14.08,0v-.23l.07,0,.14.15.09,0v-.23l.06,0,.14.16.09,0,0-.23.07,0,.12.17h.1l0-.23h.07l.11.18h.09L7.87,82h.07l.09.2h.1L8.2,82h.07l.09.21h.09l.09-.2h.07l.07.22.09,0,.1-.19.07,0L9,82.3l.08,0,.12-.17.07,0,0,.23.08,0,.13-.16.07,0,0,.24.09,0,.14-.15.06,0v.23l.09.06.15-.13.06,0v.23l.08.06.16-.11.06.05,0,.23.07.07.17-.1.06.06,0,.22.07.08.17-.08.06.07-.06.21.06.09.18-.06.05.07-.08.21.06.09.18,0,0,.08-.1.19.06.11.18,0,0,.08-.1.19,0,.1h.19l0,.08-.12.18,0,.11.19,0,0,.08-.13.16,0,.11.19,0,0,.08-.14.15,0,.11.18.06,0,.09-.15.13v.12l.18.07v.1l-.15.11v.12l.17.09v.09L12,87v.12l.16.11Z"/><path class="cls-94" d="M4.61,88.92c-1-2.6-.19-5.69,1.87-6.87a3.46,3.46,0,0,1,1.45-.46l-.27,0a3.46,3.46,0,0,0-1.45.46c-2.06,1.18-2.89,4.27-1.87,6.87a4.28,4.28,0,0,0,4.13,3l.27,0A4.28,4.28,0,0,1,4.61,88.92Z"/></g><path class="cls-95" d="M3.62,89.24c-1-3,0-6.48,2.27-7.79a3.7,3.7,0,0,1,1.77-.51L4.45,81a3.7,3.7,0,0,0-1.77.51C.39,82.82-.63,86.31.41,89.3c.77,2.23,2.49,3.55,4.26,3.52l3.21-.06C6.11,92.8,4.4,91.48,3.62,89.24Z"/><path class="cls-96" d="M4,89.49c-1.16-3.32,0-7.2,2.52-8.66a4,4,0,0,1,2-.56l-.83,0a4.13,4.13,0,0,0-2,.55C3.13,82.31,2,86.19,3.16,89.5c.86,2.49,2.76,4,4.73,3.92h.84C6.75,93.44,4.85,92,4,89.49Z"/><path class="cls-97" d="M13.22,84.19c-1.15-3.32-4.16-4.82-6.71-3.36S2.83,86.17,4,89.49s4.15,4.82,6.7,3.36S14.37,87.51,13.22,84.19ZM10.33,91.8C8.22,93,5.75,91.76,4.8,89s0-5.94,2.08-7.15,4.58,0,5.53,2.77S12.43,90.59,10.33,91.8Z"/></g><path class="cls-98" d="M98.88,67C60,75.21,12.67,81.39,8.5,81.42a3.92,3.92,0,0,0-1.71.51c-2.17,1.2-3.1,4.4-2.08,7.13A4.47,4.47,0,0,0,9,92.29a5.54,5.54,0,0,0,1.41-.1C14,90.59,16,87.72,22.26,86.32,32.66,84,33.81,85.88,39,84.78c11-2.33,38.7-9.53,104.52-25.52A49,49,0,0,0,150,56.58C137.15,58.94,118.3,62.83,98.88,67Z"/></g></g></g></svg>