<svg xmlns="http://www.w3.org/2000/svg" xmlns:xlink="http://www.w3.org/1999/xlink" viewBox="0 0 150 150"><defs><style>.cls-1,.cls-2{fill:none;}.cls-2{stroke:#fff;stroke-miterlimit:10;stroke-width:0.1px;}.cls-3{opacity:0;}.cls-4{fill:#000714;}.cls-5{opacity:0.1;fill:url(#新建图案);}.cls-6{fill:url(#未命名的渐变_256);}.cls-7{isolation:isolate;}.cls-8{fill:url(#未命名的渐变_390);}.cls-9{fill:url(#未命名的渐变_184);}.cls-10{fill:url(#未命名的渐变_390-2);}.cls-11{fill:url(#未命名的渐变_86);}.cls-12{fill:url(#未命名的渐变_86-2);}.cls-13{opacity:0.2;}</style><pattern id="新建图案" data-name="新建图案" width="18.57" height="32.16" patternTransform="translate(3507.11 1111.58)" patternUnits="userSpaceOnUse" viewBox="0 0 18.57 32.16"><rect class="cls-1" width="18.57" height="32.16"/><polyline class="cls-2" points="18.57 21.44 18.57 32.16 18.57 42.88"/><polyline class="cls-2" points="9.29 26.8 18.57 32.16 27.85 37.51 27.85 37.52"/><polyline class="cls-2" points="9.29 37.52 9.29 37.51 18.57 32.16 27.85 26.8"/><polygon class="cls-2" points="27.85 37.52 27.85 26.8 18.57 21.44 9.28 26.8 9.28 37.52 18.57 42.88 27.85 37.52"/><polyline class="cls-2" points="0 21.44 0 32.16 0 42.88"/><polyline class="cls-2" points="-9.28 26.8 0 32.16 9.28 37.51 9.28 37.52"/><polyline class="cls-2" points="-9.28 37.52 -9.28 37.51 0 32.16 9.28 26.8"/><polygon class="cls-2" points="9.28 37.52 9.28 26.8 0 21.44 -9.29 26.8 -9.29 37.52 0 42.88 9.28 37.52"/><polyline class="cls-2" points="18.57 10.72 27.85 16.08 37.13 21.43 37.13 21.44"/><polyline class="cls-2" points="18.57 21.44 18.57 21.43 27.85 16.08 37.13 10.72"/><polygon class="cls-2" points="37.14 21.44 37.14 10.72 27.85 5.36 18.57 10.72 18.57 21.44 27.85 26.8 37.14 21.44"/><polyline class="cls-2" points="9.29 5.36 9.29 16.08 9.29 26.8"/><polyline class="cls-2" points="0.01 10.72 9.29 16.08 18.57 21.43 18.57 21.44"/><polyline class="cls-2" points="0.01 21.44 0.01 21.43 9.29 16.08 18.57 10.72"/><polygon class="cls-2" points="18.57 21.44 18.57 10.72 9.28 5.36 0 10.72 0 21.44 9.28 26.8 18.57 21.44"/><polyline class="cls-2" points="-18.56 10.72 -9.28 16.08 0 21.43 0 21.44"/><polyline class="cls-2" points="-18.56 21.44 -18.56 21.43 -9.28 16.08 0 10.72"/><polygon class="cls-2" points="0 21.44 0 10.72 -9.29 5.36 -18.57 10.72 -18.57 21.44 -9.29 26.8 0 21.44"/><polyline class="cls-2" points="18.57 -10.72 18.57 0 18.57 10.72"/><polyline class="cls-2" points="9.29 -5.36 18.57 0 27.85 5.35 27.85 5.36"/><polyline class="cls-2" points="9.29 5.36 9.29 5.35 18.57 0 27.85 -5.36"/><polygon class="cls-2" points="27.85 5.36 27.85 -5.36 18.57 -10.72 9.28 -5.36 9.28 5.36 18.57 10.72 27.85 5.36"/><polyline class="cls-2" points="0 -10.72 0 0 0 10.72"/><polyline class="cls-2" points="-9.28 -5.36 0 0 9.28 5.35 9.28 5.36"/><polyline class="cls-2" points="-9.28 5.36 -9.28 5.35 0 0 9.28 -5.36"/><polygon class="cls-2" points="9.28 5.36 9.28 -5.36 0 -10.72 -9.29 -5.36 -9.29 5.36 0 10.72 9.28 5.36"/></pattern><linearGradient id="未命名的渐变_256" x1="69.03" y1="76.99" x2="80.97" y2="76.99" gradientUnits="userSpaceOnUse"><stop offset="0" stop-color="#fff"/><stop offset="0.15" stop-color="#fbfbfc"/><stop offset="0.31" stop-color="#eff0f3"/><stop offset="0.46" stop-color="#dbdee4"/><stop offset="0.61" stop-color="#bfc4ce"/><stop offset="0.76" stop-color="#9ca3b3"/><stop offset="0.83" stop-color="#8a93a6"/><stop offset="0.88" stop-color="#8e97ab"/><stop offset="0.94" stop-color="#98a2b8"/><stop offset="1" stop-color="#a8b3cd"/></linearGradient><linearGradient id="未命名的渐变_390" x1="71.8" y1="6.58" x2="80.47" y2="6.58" gradientUnits="userSpaceOnUse"><stop offset="0" stop-color="#d2d6dd"/><stop offset="0.04" stop-color="#dfe2e7"/><stop offset="0.11" stop-color="#fff"/><stop offset="0.24" stop-color="#fbfbfc"/><stop offset="0.37" stop-color="#eff0f3"/><stop offset="0.51" stop-color="#dbdee4"/><stop offset="0.64" stop-color="#bfc4ce"/><stop offset="0.77" stop-color="#9ca3b3"/><stop offset="0.83" stop-color="#8a93a6"/><stop offset="0.88" stop-color="#8e97ab"/><stop offset="0.94" stop-color="#98a2b8"/><stop offset="1" stop-color="#a8b3cd"/></linearGradient><linearGradient id="未命名的渐变_184" x1="72.57" y1="2.52" x2="79.72" y2="2.52" gradientUnits="userSpaceOnUse"><stop offset="0" stop-color="#a8b3cd"/><stop offset="0.06" stop-color="#98a2b8"/><stop offset="0.12" stop-color="#8e97ab"/><stop offset="0.17" stop-color="#8a93a6"/><stop offset="0.24" stop-color="#9ca3b3"/><stop offset="0.39" stop-color="#bfc4ce"/><stop offset="0.54" stop-color="#dbdee4"/><stop offset="0.69" stop-color="#eff0f3"/><stop offset="0.85" stop-color="#fbfbfc"/><stop offset="1" stop-color="#fff"/></linearGradient><linearGradient id="未命名的渐变_390-2" x1="72.23" y1="4.74" x2="80.05" y2="4.74" xlink:href="#未命名的渐变_390"/><linearGradient id="未命名的渐变_86" x1="72.24" y1="2.26" x2="80.05" y2="2.26" gradientUnits="userSpaceOnUse"><stop offset="0" stop-color="#f9fbff"/><stop offset="1" stop-color="#e4e9f0"/></linearGradient><linearGradient id="未命名的渐变_86-2" x1="71.8" y1="5.68" x2="80.47" y2="5.68" xlink:href="#未命名的渐变_86"/></defs><title>叶片3</title><g id="图层_2" data-name="图层 2"><g id="图元"><g id="叶片3"><g id="背景" class="cls-3"><rect class="cls-4" width="150" height="150"/><rect id="网格" class="cls-5" width="150" height="150"/></g><path class="cls-6" d="M79.55,4,73.37,7.54C73,33.36,69,41,69,47.15c0,12.19,3.13,37.17,7.91,101.44.15,1.92,2.88,1.33,3,1.3C82.37,102,79.7,8.87,79.55,4Z"/><g class="cls-7"><path class="cls-8" d="M80.47,5v.7h0A1.71,1.71,0,0,1,80,6.82L79.85,7a3.86,3.86,0,0,1-.69.51A6.81,6.81,0,0,1,73,7.43,4.87,4.87,0,0,1,72.49,7l-.11-.11a1.75,1.75,0,0,1-.58-1.26V5a1.39,1.39,0,0,0,0,.35h0A2.38,2.38,0,0,0,73,6.72l0,0h0A6.86,6.86,0,0,0,78.63,7a5.2,5.2,0,0,0,.53-.26h0a2.43,2.43,0,0,0,1.25-1.43h0A1.32,1.32,0,0,0,80.47,5Z"/><path class="cls-9" d="M73.58,3.7c.17.1.73,1,.92,1.12a4.46,4.46,0,0,1,3.53,0c.17-.07.46-1,.61-1.1a1.79,1.79,0,0,0,1.08-1.48,1.79,1.79,0,0,0-1-1.45,5.6,5.6,0,0,0-5.06,0,1.79,1.79,0,0,0-1.08,1.48A1.77,1.77,0,0,0,73.58,3.7Z"/><path class="cls-10" d="M80.05,2.27V5a1.5,1.5,0,0,1-.35.93h0a2.84,2.84,0,0,1-.82.67l-.23.12a6.16,6.16,0,0,1-5.29-.17,3.09,3.09,0,0,1-.76-.64h0A1.52,1.52,0,0,1,72.23,5V2.25a1.78,1.78,0,0,0,.06.41.36.36,0,0,0,0,.09.42.42,0,0,0,0,.1.41.41,0,0,0,.05.09.41.41,0,0,0,.06.11l.08.11h0a1.86,1.86,0,0,0,.19.22h0l.2.18c.09.07.19.15.3.22l.08,0a1.51,1.51,0,0,0,.28.15l.22.1.05,0,.21.07.27.09c.19.06.38.1.57.14l.29,0h0l.23,0a1.43,1.43,0,0,0,.29,0h.82l.21,0,.18,0,.15,0,.19,0,.26-.06.2-.05a2.91,2.91,0,0,0,.39-.12l.11,0h0a.31.31,0,0,0,.12,0L78.64,4l.22-.11L79,3.8h0a2.89,2.89,0,0,0,.5-.39l.16-.17,0-.06h0l.09-.13s0-.08.07-.13A.77.77,0,0,0,80,2.76a.42.42,0,0,0,0-.1.43.43,0,0,0,0-.11s0,0,0-.06v0A1.37,1.37,0,0,0,80.05,2.27Z"/><path class="cls-11" d="M78.94.69A6.1,6.1,0,0,0,73.42.63c-1.54.87-1.58,2.3-.07,3.2a6.08,6.08,0,0,0,5.51.06C80.41,3,80.44,1.59,78.94.69Zm-.3,3.06a5.6,5.6,0,0,1-5.06,0c-1.38-.82-1.34-2.13.07-2.93a5.6,5.6,0,0,1,5.06,0C80.08,1.64,80.05,3,78.64,3.75Z"/><path class="cls-12" d="M80.47,5a1.32,1.32,0,0,1,0,.34h0a2.43,2.43,0,0,1-1.25,1.43h0a5.2,5.2,0,0,1-.53.26,6.86,6.86,0,0,1-5.55-.29h0a1.48,1.48,0,0,1-.26-.3,1.8,1.8,0,0,0,.26.3l0,0a2.38,2.38,0,0,1-1.19-1.39h0a1.39,1.39,0,0,1,0-.35h0a1.69,1.69,0,0,1,.44-1.09V5a1.52,1.52,0,0,0,.35.94h0a3.09,3.09,0,0,0,.76.64,6.16,6.16,0,0,0,5.29.17l.23-.12a2.84,2.84,0,0,0,.82-.67s0,0,0,0A1.5,1.5,0,0,0,80,5V3.89A1.65,1.65,0,0,1,80.47,5Z"/></g>
</g></g></g></svg>