<svg viewBox="0 0 150 150" xmlns="http://www.w3.org/2000/svg" xmlns:xlink="http://www.w3.org/1999/xlink"><pattern id="a" height="32.16" patternTransform="translate(-332.15 295.28)" patternUnits="userSpaceOnUse" viewBox="0 0 18.57 32.16" width="18.57"><path d="m0 0h18.57v32.16h-18.57z" fill="none"/><path d="m18.57 21.44v10.72 10.72" fill="none" stroke="#fff" stroke-miterlimit="10" stroke-width=".1"/><path d="m9.29 26.8 9.28 5.36 9.28 5.35v.01" fill="none" stroke="#fff" stroke-miterlimit="10" stroke-width=".1"/><path d="m9.29 37.52v-.01l9.28-5.35 9.28-5.36" fill="none" stroke="#fff" stroke-miterlimit="10" stroke-width=".1"/><path d="m27.85 37.52v-10.72l-9.28-5.36-9.29 5.36v10.72l9.29 5.36z" fill="none" stroke="#fff" stroke-miterlimit="10" stroke-width=".1"/><path d="m0 21.44v10.72 10.72" fill="none" stroke="#fff" stroke-miterlimit="10" stroke-width=".1"/><path d="m-9.28 26.8 9.28 5.36 9.28 5.35v.01" fill="none" stroke="#fff" stroke-miterlimit="10" stroke-width=".1"/><path d="m-9.28 37.52v-.01l9.28-5.35 9.28-5.36" fill="none" stroke="#fff" stroke-miterlimit="10" stroke-width=".1"/><path d="m9.28 37.52v-10.72l-9.28-5.36-9.28 5.36v10.72l9.28 5.36z" fill="none" stroke="#fff" stroke-miterlimit="10" stroke-width=".1"/><path d="m18.57 10.72 9.28 5.36 9.28 5.35v.01" fill="none" stroke="#fff" stroke-miterlimit="10" stroke-width=".1"/><path d="m18.57 21.44v-.01l9.28-5.35 9.28-5.36" fill="none" stroke="#fff" stroke-miterlimit="10" stroke-width=".1"/><path d="m37.14 21.44v-10.72l-9.29-5.36-9.28 5.36v10.72l9.28 5.36z" fill="none" stroke="#fff" stroke-miterlimit="10" stroke-width=".1"/><path d="m9.28 5.36v10.72 10.72" fill="none" stroke="#fff" stroke-miterlimit="10" stroke-width=".1"/><path d="m0 10.72 9.28 5.36 9.28 5.35v.01" fill="none" stroke="#fff" stroke-miterlimit="10" stroke-width=".1"/><path d="m0 21.44v-.01l9.28-5.35 9.28-5.36" fill="none" stroke="#fff" stroke-miterlimit="10" stroke-width=".1"/><path d="m18.57 21.44v-10.72l-9.29-5.36-9.28 5.36v10.72l9.28 5.36z" fill="none" stroke="#fff" stroke-miterlimit="10" stroke-width=".1"/><path d="m-18.56 10.72 9.28 5.36 9.28 5.35v.01" fill="none" stroke="#fff" stroke-miterlimit="10" stroke-width=".1"/><path d="m-18.56 21.44v-.01l9.28-5.35 9.28-5.36" fill="none" stroke="#fff" stroke-miterlimit="10" stroke-width=".1"/><path d="m0 21.44v-10.72l-9.28-5.36-9.29 5.36v10.72l9.29 5.36z" fill="none" stroke="#fff" stroke-miterlimit="10" stroke-width=".1"/><path d="m18.57-10.72v10.72 10.72" fill="none" stroke="#fff" stroke-miterlimit="10" stroke-width=".1"/><path d="m9.29-5.36 9.28 5.36 9.28 5.35v.01" fill="none" stroke="#fff" stroke-miterlimit="10" stroke-width=".1"/><path d="m9.29 5.36v-.01l9.28-5.35 9.28-5.36" fill="none" stroke="#fff" stroke-miterlimit="10" stroke-width=".1"/><path d="m27.85 5.36v-10.72l-9.28-5.36-9.29 5.36v10.72l9.29 5.36z" fill="none" stroke="#fff" stroke-miterlimit="10" stroke-width=".1"/><path d="m0-10.72v10.72 10.72" fill="none" stroke="#fff" stroke-miterlimit="10" stroke-width=".1"/><path d="m-9.28-5.36 9.28 5.36 9.28 5.35v.01" fill="none" stroke="#fff" stroke-miterlimit="10" stroke-width=".1"/><path d="m-9.28 5.36v-.01l9.28-5.35 9.28-5.36" fill="none" stroke="#fff" stroke-miterlimit="10" stroke-width=".1"/><path d="m9.28 5.36v-10.72l-9.28-5.36-9.28 5.36v10.72l9.28 5.36z" fill="none" stroke="#fff" stroke-miterlimit="10" stroke-width=".1"/></pattern><linearGradient id="b" gradientUnits="userSpaceOnUse" x1="48.27" x2="44.43" y1="117" y2="123.64"><stop offset="0" stop-color="#263141"/><stop offset="1" stop-color="#11161a"/></linearGradient><linearGradient id="c" gradientUnits="userSpaceOnUse" x1="45.65" x2="39.91" y1="122.96" y2="117.21"><stop offset="0" stop-color="#1d242d"/><stop offset="1" stop-color="#596b8c"/></linearGradient><linearGradient id="d" gradientUnits="userSpaceOnUse" x1="41.78" x2="46.93" y1="118.06" y2="115.08"><stop offset="0" stop-color="#7a98cc"/><stop offset=".17" stop-color="#6178a0"/><stop offset=".34" stop-color="#4b5d7b"/><stop offset=".51" stop-color="#3b485e"/><stop offset=".67" stop-color="#2f3949"/><stop offset=".84" stop-color="#28313d"/><stop offset="1" stop-color="#262e39"/></linearGradient><linearGradient id="e" x1="93.27" x2="89.43" xlink:href="#b" y1="143" y2="149.64"/><linearGradient id="f" x1="90.65" x2="84.91" xlink:href="#c" y1="148.96" y2="143.21"/><linearGradient id="g" x1="86.78" x2="91.93" xlink:href="#d" y1="144.06" y2="141.08"/><linearGradient id="h" x1="111.27" x2="107.43" xlink:href="#b" y1="133" y2="139.64"/><linearGradient id="i" x1="108.65" x2="102.91" xlink:href="#c" y1="138.96" y2="133.21"/><linearGradient id="j" x1="104.78" x2="109.93" xlink:href="#d" y1="134.06" y2="131.08"/><linearGradient id="k" gradientUnits="userSpaceOnUse" x1="97.46" x2="52.6" y1="141.16" y2="96.3"><stop offset="0" stop-color="#3480d3"/><stop offset=".12" stop-color="#317bcb"/><stop offset=".31" stop-color="#2c6fb7"/><stop offset=".53" stop-color="#235b96"/><stop offset=".78" stop-color="#164069"/><stop offset="1" stop-color="#0a253b"/></linearGradient><linearGradient id="l" gradientUnits="userSpaceOnUse" x1="91.05" x2="110.38" y1="146.14" y2="126.81"><stop offset="0" stop-color="#283140"/><stop offset=".34" stop-color="#222a37"/><stop offset=".9" stop-color="#14191e"/><stop offset="1" stop-color="#12161a"/></linearGradient><linearGradient id="m" x1="86.37" x2="42.93" xlink:href="#c" y1="149.39" y2="105.96"/><linearGradient id="n" x1="97.46" x2="52.6" xlink:href="#k" y1="48.72" y2="3.85"/><linearGradient id="o" x1="126.29" x2="75.09" xlink:href="#b" y1="43.85" y2="132.53"/><linearGradient id="p" gradientUnits="userSpaceOnUse" x1="108.4" x2="20.84" y1="123.18" y2="35.61"><stop offset="0" stop-color="#3e5268"/><stop offset="1" stop-color="#556b8e"/></linearGradient><linearGradient id="q" gradientUnits="userSpaceOnUse" x1="42.88" x2="86.35" y1="46.41" y2="71.51"><stop offset="0" stop-color="#81aaea"/><stop offset="1" stop-color="#4d709c"/></linearGradient><linearGradient id="r" x2="86.35" xlink:href="#q" y1="85.52" y2="110.62"/><linearGradient id="s" x1="51.79" x2="98.27" xlink:href="#q" y1="34.28" y2="7.44"/><linearGradient id="t" x1="91.05" x2="110.38" xlink:href="#b" y1="48.27" y2="28.95"/><linearGradient id="u" x1="86.37" x2="42.93" xlink:href="#p" y1="51.53" y2="8.09"/><linearGradient id="v" gradientUnits="userSpaceOnUse" x1="72.82" x2="68.43" y1="51.46" y2="59.05"><stop offset="0" stop-color="#0071ed"/><stop offset="1" stop-color="#1434d3"/></linearGradient><linearGradient id="w" gradientUnits="userSpaceOnUse" x1="71.09" x2="57.56" y1="59" y2="45.47"><stop offset="0" stop-color="#0e75f2"/><stop offset="1" stop-color="#0bc9ff"/></linearGradient><linearGradient id="x" gradientUnits="userSpaceOnUse" x1="61.45" x2="68.28" y1="49.46" y2="45.51"><stop offset="0" stop-color="#6fe3ff"/><stop offset="1" stop-color="#00b6ff"/></linearGradient><linearGradient id="y" x1="65.69" x2="65.31" xlink:href="#l" y1="54.26" y2="53.61"/><linearGradient id="z" x1="65.56" x2="61.88" xlink:href="#c" y1="53.98" y2="50.3"/><linearGradient id="A" x1="66.21" x2="64.8" xlink:href="#l" y1="53.09" y2="50.66"/><linearGradient id="B" x1="62.7" x2="65.22" xlink:href="#d" y1="49.95" y2="49.95"/><linearGradient id="C" gradientTransform="matrix(.60111785 .79916039 -.79916039 .60111785 67.09 -30.13)" gradientUnits="userSpaceOnUse" x1="62.53" x2="64.91" y1="51.71" y2="52.58"><stop offset="0" stop-color="#283140"/><stop offset=".1" stop-color="#12161a"/><stop offset=".8" stop-color="#7a98cc"/><stop offset="1" stop-color="#283140"/></linearGradient><linearGradient id="D" gradientTransform="matrix(.50794346 .75504532 -.67757327 .5693576 15.61 -34.91)" gradientUnits="userSpaceOnUse" x1="108.35" x2="106.55" y1="10.7" y2="8.85"><stop offset="0" stop-color="#596b8c"/><stop offset="1" stop-color="#1d242d"/></linearGradient><linearGradient id="E" x1="47.85" x2="40.74" xlink:href="#q" y1="44.57" y2="37.46"/><linearGradient id="F" gradientUnits="userSpaceOnUse" x1="43.38" x2="48.52" y1="35.6" y2="44.52"><stop offset="0" stop-color="#35455c"/><stop offset=".15" stop-color="#7497d0"/><stop offset=".25" stop-color="#7497d0"/><stop offset=".9" stop-color="#11161a"/><stop offset="1" stop-color="#263141"/></linearGradient><linearGradient id="G" x1="47.46" x2="41.13" xlink:href="#F" y1="42.84" y2="39.19"/><linearGradient id="H" gradientUnits="userSpaceOnUse" x1="42.06" x2="46.71" y1="40.76" y2="40.76"><stop offset="0" stop-color="#182129"/><stop offset=".25" stop-color="#19232c"/><stop offset=".46" stop-color="#1f2a36"/><stop offset=".66" stop-color="#293647"/><stop offset=".84" stop-color="#364760"/><stop offset="1" stop-color="#465b7c"/></linearGradient><linearGradient id="I" x1="43.83" x2="44.68" xlink:href="#q" y1="40.93" y2="40.93"/><linearGradient id="J" x1="44.15" x2="44.75" xlink:href="#F" y1="40.29" y2="41.34"/><linearGradient id="K" x1="45.33" x2="43.73" xlink:href="#v" y1="39.45" y2="42.22"/><linearGradient id="L" x1="43.42" x2="44.83" xlink:href="#w" y1="42.03" y2="39.58"/><linearGradient id="M" x1="47.85" x2="40.74" xlink:href="#q" y1="58.57" y2="51.46"/><linearGradient id="N" x1="43.38" x2="48.52" xlink:href="#F" y1="49.6" y2="58.52"/><linearGradient id="O" x1="47.46" x2="41.13" xlink:href="#F" y1="56.84" y2="53.19"/><linearGradient id="P" xlink:href="#H" y1="54.76" y2="54.76"/><linearGradient id="Q" x1="43.83" x2="44.68" xlink:href="#q" y1="54.93" y2="54.93"/><linearGradient id="R" x1="44.15" x2="44.75" xlink:href="#F" y1="54.29" y2="55.34"/><linearGradient id="S" x1="45.33" x2="43.73" xlink:href="#v" y1="53.45" y2="56.22"/><linearGradient id="T" x1="43.42" x2="44.83" xlink:href="#w" y1="56.03" y2="53.58"/><g opacity="0"><path d="m0 0h150v150h-150z" fill="#000714"/><path d="m0 0h150v150h-150z" fill="url(#a)" opacity=".1"/></g><path d="m47.93 116.8.01 5.2-3.17 1.84-.02-5.2z" fill="url(#b)"/><path d="m44.77 123.84-3.97-2.31-.01-5.2 3.96 2.31z" fill="url(#c)"/><path d="m44.75 118.64-3.96-2.31 3.17-1.83 3.97 2.3z" fill="url(#d)"/><path d="m92.93 142.8.01 5.2-3.17 1.84-.02-5.2z" fill="url(#e)"/><path d="m89.77 149.84-3.97-2.31-.01-5.2 3.96 2.31z" fill="url(#f)"/><path d="m89.75 144.64-3.96-2.31 3.17-1.83 3.97 2.3z" fill="url(#g)"/><path d="m110.93 132.8.01 5.2-3.17 1.84-.02-5.2z" fill="url(#h)"/><path d="m107.77 139.84-3.97-2.31-.01-5.2 3.96 2.31z" fill="url(#i)"/><path d="m107.75 134.64-3.96-2.31 3.17-1.83 3.97 2.3z" fill="url(#j)"/><path d="m111.1 127.53-20.76 12.06-51.38-29.66 20.76-12.06z" fill="url(#k)" stroke="#a4fcfe" stroke-linejoin="round" stroke-width=".1"/><path d="m111.1 127.53v5.83l-20.76 12.06v-5.83z" fill="url(#l)"/><path d="m90.34 139.59v5.83l-51.38-29.66v-5.83z" fill="url(#m)"/><path d="m111.1 35.08-20.76 12.07-51.38-29.66 20.76-12.07z" fill="url(#n)" stroke="#a4fcfe" stroke-linejoin="round" stroke-width=".1"/><path d="m111.1 35.08-.06 94.16-20.76 12.06.06-94.15z" fill="url(#o)"/><path d="m90.34 47.15-.06 94.15-51.38-29.66.06-94.15z" fill="url(#p)"/><path d="m78.89 49.88-.03 34.62-28.51-16.46.03-34.62z" fill="url(#q)"/><path d="m78.89 88.99-.03 34.61-28.51-16.45.03-34.62z" fill="url(#r)"/><path d="m111.1 29.66-20.76 12.07-51.38-29.67 20.76-12.06z" fill="url(#s)"/><path d="m111.1 29.66v5.83l-20.76 12.07v-5.83z" fill="url(#t)"/><path d="m90.34 41.73v5.83l-51.38-29.66v-5.84z" fill="url(#u)"/><path d="m71.17 50.5.02 8.86-1.11.64-.02-8.85z" fill="url(#v)"/><path d="m70.08 60-11.49-6.67-.02-8.86 11.49 6.68z" fill="url(#w)"/><path d="m70.06 51.15-11.49-6.68 1.11-.64 11.49 6.67z" fill="url(#x)"/><path d="m65.79 53.34.46-.27-1.04 1.46-.46.27z" fill="url(#y)"/><path d="m64.76 50.68 1.03 2.66-1.04 1.46-2.07-1.2-1.02-2.65 1.04-1.46z" fill="url(#z)"/><path d="m64.76 50.68.46-.26 1.03 2.65-.46.27z" fill="url(#A)"/><path d="m62.7 49.49.45-.27 2.07 1.2-.46.26z" fill="url(#B)"/><ellipse cx="63.72" cy="52.14" fill="url(#C)" rx=".74" ry="1.3" transform="matrix(.60111785 -.79916039 .79916039 .60111785 -16.25 71.73)"/><ellipse cx="63.74" cy="52.01" fill="url(#D)" rx=".62" ry="1.23" transform="matrix(.60111785 -.79916039 .79916039 .60111785 -16.14 71.68)"/><path d="m44.31 36.82c2.02 1.16 3.65 3.98 3.64 6.3s-1.65 3.25-3.66 2.09c-2.02-1.16-3.64-3.99-3.64-6.3s1.64-3.25 3.66-2.09z" fill="url(#E)"/><path d="m48.68 42.53c0-.06 0-.12 0-.18 0-.03 0-.05 0-.08 0-.01 0-.02 0-.04s0-.04 0-.06c0-.06-.01-.12-.02-.18 0-.06-.02-.12-.03-.18 0-.06-.02-.12-.03-.18-.01-.07-.03-.13-.04-.2 0-.02 0-.04-.01-.06 0-.01 0-.03-.01-.04 0-.03-.02-.07-.02-.1-.02-.07-.04-.14-.06-.22 0-.03-.02-.06-.03-.09 0-.02-.01-.04-.02-.06 0-.03-.02-.06-.03-.09-.03-.08-.05-.16-.08-.24 0-.02-.02-.04-.02-.06-.01-.03-.02-.05-.03-.08-.02-.05-.03-.09-.05-.14-.03-.07-.06-.13-.08-.2-.01-.03-.03-.06-.04-.09 0-.01-.01-.02-.02-.04-.04-.08-.07-.16-.11-.23-.03-.06-.05-.11-.08-.17 0 0 0-.01 0-.02s-.01-.02-.02-.03c-.14-.26-.28-.52-.44-.76 0 0 0 0 0-.01-.16-.24-.33-.48-.51-.7-.01-.01-.02-.03-.03-.04 0 0-.01-.02-.02-.03-.04-.05-.09-.1-.13-.15-.05-.06-.1-.12-.15-.17-.01-.01-.02-.02-.03-.04-.02-.03-.05-.05-.07-.07-.04-.04-.08-.09-.13-.13-.04-.04-.08-.08-.13-.12-.02-.02-.03-.03-.05-.05 0 0-.02-.02-.03-.03-.06-.06-.13-.11-.19-.17-.03-.03-.06-.05-.09-.07-.01-.01-.03-.02-.04-.03s-.03-.02-.04-.04c-.06-.04-.11-.09-.17-.13-.04-.03-.08-.06-.12-.09 0 0-.01-.01-.02-.02 0 0-.01 0-.02-.01-.05-.04-.1-.07-.16-.1-.05-.03-.1-.06-.16-.1-.01 0-.02-.01-.04-.02-.04-.02-.08-.04-.12-.06-.05-.03-.1-.05-.15-.08-.03-.02-.06-.03-.1-.05 0 0-.02 0-.02-.01 0 0-.02 0-.03-.01-.05-.02-.1-.04-.15-.06s-.1-.04-.15-.06h-.02s-.01 0-.02 0c-.03-.01-.07-.02-.1-.03-.05-.02-.1-.03-.15-.04-.02 0-.05-.01-.07-.02-.01 0-.02 0-.03 0-.02 0-.03 0-.05-.01-.05-.01-.11-.02-.16-.03-.03 0-.06 0-.1 0-.01 0-.02 0-.03 0s-.02 0-.03 0c-.06 0-.12 0-.17 0-.02 0-.05 0-.07 0s-.04 0-.06 0-.04 0-.06 0c-.07 0-.14.02-.21.03-.02 0-.03 0-.04.01-.07.02-.14.03-.21.06 0 0-.01 0-.02 0-.1.04-.19.08-.28.13l-.74.43c.09-.05.18-.09.28-.13.07-.03.15-.05.22-.06.01 0 .03 0 .04-.01.09-.02.18-.03.27-.03h.06.28.03c.1 0 .2.02.3.05h.03c.11.02.21.05.32.09h.02c.11.04.23.09.35.14 0 0 .02 0 .02.01.12.06.24.12.36.19s.25.15.37.23c0 0 .01.01.02.02.11.08.22.16.33.25.01.01.03.02.04.03.11.09.21.18.31.27l.05.05c.09.08.17.17.26.25l.07.07c.06.07.12.14.18.21.04.05.09.1.13.16.02.02.03.04.05.06.18.22.35.46.51.7v.01c.16.25.31.5.44.76 0 .02.02.03.03.05.03.05.05.11.08.17.04.09.09.18.13.27.01.03.03.06.04.09.05.11.09.22.13.33.01.03.02.06.03.08.05.13.09.26.13.39 0 .02.01.04.02.06.04.13.08.27.11.4 0 .01 0 .03.01.04.03.14.06.29.08.43s.04.29.05.43v.04c.01.14.02.28.02.42s0 .27-.02.4v.03c-.01.12-.03.23-.05.34v.04c-.02.11-.05.21-.08.3 0 .02-.01.04-.02.05-.03.09-.06.18-.1.26 0 0 0 .02-.01.03-.04.09-.09.18-.15.26-.07.12-.16.22-.25.31-.02.02-.04.04-.07.07-.1.09-.2.17-.31.23l.74-.43c.11-.06.21-.15.31-.23.02-.02.05-.04.07-.07.09-.09.18-.2.25-.31.05-.08.1-.16.14-.25s0-.02.01-.03c.03-.06.05-.11.07-.17.01-.03.02-.06.03-.09 0-.02.01-.04.02-.05 0-.02.01-.03.02-.05.02-.06.03-.12.05-.19 0-.02 0-.05.01-.07 0-.01 0-.03 0-.04 0-.02 0-.04.01-.07 0-.06.02-.11.03-.17 0-.03 0-.07.01-.1 0-.01 0-.02 0-.03s0-.03 0-.04c0-.06 0-.11.01-.17 0-.06 0-.12 0-.18 0 0 0 0 0-.01 0-.05 0-.11 0-.16z" fill="url(#F)"/><path d="m45.92 44.66c-.32 0-.7-.12-1.11-.36-1.69-.98-3.12-3.45-3.11-5.39 0-.57.13-1.54.97-1.54.32 0 .7.12 1.11.36 1.69.98 3.12 3.45 3.11 5.39 0 .58-.13 1.54-.98 1.54z" fill="url(#G)"/><path d="m45.84 44.15c-.29 0-.63-.12-.99-.33-1.51-.91-2.79-3.2-2.78-5.01 0-.53.12-1.43.87-1.43.29 0 .63.12 1 .33 1.52.91 2.79 3.2 2.79 5.01 0 .54-.12 1.43-.87 1.43z" fill="url(#H)"/><path d="m44.25 40.44c.24.14.43.47.43.74s-.19.38-.43.24-.43-.47-.43-.74.19-.38.43-.24z" fill="url(#I)"/><path d="m44.77 41.1s0-.01 0-.02 0-.01 0-.02c0 0 0-.01 0-.02s0-.01 0-.02v-.02s0 0 0-.01c0 0 0-.02 0-.03 0 0 0 0 0-.01s0 0 0-.01c0 0 0-.02 0-.03s0-.01 0-.02v-.02s0 0 0-.01 0-.02-.01-.03c0 0 0-.01 0-.02-.02-.03-.03-.06-.05-.09s-.04-.06-.06-.08-.01-.01-.02-.02c0 0-.01-.01-.02-.02s0-.01-.01-.02c0 0 0 0-.01-.01s-.01-.01-.02-.02c0 0 0 0-.01 0s-.01-.01-.02-.01c0 0 0 0-.01-.01s-.01 0-.02-.01c0 0-.01 0-.02-.01s0 0-.01 0c0 0-.01 0-.02 0 0 0 0 0-.01 0s-.01 0-.02 0c0 0-.01 0-.02 0s0 0-.01 0c0 0-.01 0-.02 0s-.01 0-.02 0c0 0 0 0-.01 0s-.01 0-.02 0h-.02-.02c-.01 0-.02 0-.03.02l-.09.05s.02-.01.03-.02h.03.03.03.04c.01 0 .02 0 .04.01.01 0 .03 0 .04.02.01 0 .03.01.04.02.01 0 .03.02.04.03.01 0 .03.02.04.03s.02.02.04.03c.01 0 .02.02.03.03s.01.02.02.02c0 0 .01.01.02.02.02.03.04.05.06.08s.04.06.05.09v.02c0 .01.01.02.01.03v.01c0 .01.01.03.02.04 0 .02.01.03.02.05 0 .02 0 .03.01.05v.05.05.05.05.04.04c0 .01 0 .02-.01.03 0 .01-.01.02-.02.03 0 .01-.02.03-.03.04s-.02.02-.04.03l.09-.05s.02-.02.04-.03c.01-.01.02-.02.03-.04s.01-.02.02-.03 0-.01 0-.02c0 0 0 0 0-.01s0-.01 0-.02 0-.01 0-.02c0 0 0 0 0-.01s0-.01 0-.02c0 0 0-.01 0-.02s0-.01 0-.02z" fill="url(#J)"/><path d="m45.06 39.71.37-.21-1.42 2.45-.37.21z" fill="url(#K)"/><path d="m45.06 39.71-1.42 2.45-.35-.44z" fill="url(#L)"/><path d="m44.31 50.82c2.02 1.16 3.65 3.98 3.64 6.3s-1.65 3.25-3.66 2.09c-2.02-1.16-3.64-3.99-3.64-6.3s1.64-3.25 3.66-2.09z" fill="url(#M)"/><path d="m48.68 56.53c0-.06 0-.12 0-.18 0-.03 0-.05 0-.08 0-.01 0-.02 0-.04s0-.04 0-.06c0-.06-.01-.12-.02-.18 0-.06-.02-.12-.03-.18 0-.06-.02-.12-.03-.18-.01-.07-.03-.13-.04-.2 0-.02 0-.04-.01-.06 0-.01 0-.03-.01-.04 0-.03-.02-.07-.02-.1-.02-.07-.04-.14-.06-.22 0-.03-.02-.06-.03-.09 0-.02-.01-.04-.02-.06 0-.03-.02-.06-.03-.09-.03-.08-.05-.16-.08-.24 0-.02-.02-.04-.02-.06-.01-.03-.02-.05-.03-.08-.02-.05-.03-.09-.05-.14-.03-.07-.06-.13-.08-.2-.01-.03-.03-.06-.04-.09 0-.01-.01-.02-.02-.04-.04-.08-.07-.16-.11-.23-.03-.06-.05-.11-.08-.17 0 0 0-.01 0-.02s-.01-.02-.02-.03c-.14-.26-.28-.52-.44-.76 0 0 0 0 0-.01-.16-.24-.33-.48-.51-.7-.01-.01-.02-.03-.03-.04 0 0-.01-.02-.02-.03-.04-.05-.09-.1-.13-.15-.05-.06-.1-.12-.15-.17-.01-.01-.02-.02-.03-.04-.02-.03-.05-.05-.07-.07-.04-.04-.08-.09-.13-.13-.04-.04-.08-.08-.13-.12-.02-.02-.03-.03-.05-.05 0 0-.02-.02-.03-.03-.06-.06-.13-.11-.19-.17-.03-.03-.06-.05-.09-.07-.01-.01-.03-.02-.04-.03s-.03-.02-.04-.04c-.06-.04-.11-.09-.17-.13-.04-.03-.08-.06-.12-.09 0 0-.01-.01-.02-.02 0 0-.01 0-.02-.01-.05-.04-.1-.07-.16-.1-.05-.03-.1-.06-.16-.1-.01 0-.02-.01-.04-.02-.04-.02-.08-.04-.12-.06-.05-.03-.1-.05-.15-.08-.03-.02-.06-.03-.1-.05 0 0-.02 0-.02-.01 0 0-.02 0-.03-.01-.05-.02-.1-.04-.15-.06s-.1-.04-.15-.06h-.02s-.01 0-.02 0c-.03-.01-.07-.02-.1-.03-.05-.02-.1-.03-.15-.04-.02 0-.05-.01-.07-.02-.01 0-.02 0-.03 0-.02 0-.03 0-.05-.01-.05-.01-.11-.02-.16-.03-.03 0-.06 0-.1 0-.01 0-.02 0-.03 0s-.02 0-.03 0c-.06 0-.12 0-.17 0-.02 0-.05 0-.07 0s-.04 0-.06 0-.04 0-.06 0c-.07 0-.14.02-.21.03-.02 0-.03 0-.04.01-.07.02-.14.03-.21.06 0 0-.01 0-.02 0-.1.04-.19.08-.28.13l-.74.43c.09-.05.18-.09.28-.13.07-.03.15-.05.22-.06.01 0 .03 0 .04-.01.09-.02.18-.03.27-.03h.06.28.03c.1 0 .2.02.3.05h.03c.11.02.21.05.32.09h.02c.11.04.23.09.35.14 0 0 .02 0 .02.01.12.06.24.12.36.19s.25.15.37.23c0 0 .01.01.02.02.11.08.22.16.33.25.01.01.03.02.04.03.11.09.21.18.31.27l.05.05c.09.08.17.17.26.25l.07.07c.06.07.12.14.18.21.04.05.09.1.13.16.02.02.03.04.05.06.18.22.35.46.51.7v.01c.16.25.31.5.44.76 0 .02.02.03.03.05.03.05.05.11.08.17.04.09.09.18.13.27.01.03.03.06.04.09.05.11.09.22.13.33.01.03.02.06.03.08.05.13.09.26.13.39 0 .02.01.04.02.06.04.13.08.27.11.4 0 .01 0 .03.01.04.03.14.06.29.08.43s.04.29.05.43v.04c.01.14.02.28.02.42s0 .27-.02.4v.03c-.01.12-.03.23-.05.34v.04c-.02.11-.05.21-.08.3 0 .02-.01.04-.02.05-.03.09-.06.18-.1.26 0 0 0 .02-.01.03-.04.09-.09.18-.15.26-.07.12-.16.22-.25.31-.02.02-.04.04-.07.07-.1.09-.2.17-.31.23l.74-.43c.11-.06.21-.15.31-.23.02-.02.05-.04.07-.07.09-.09.18-.2.25-.31.05-.08.1-.16.14-.25s0-.02.01-.03c.03-.06.05-.11.07-.17.01-.03.02-.06.03-.09 0-.02.01-.04.02-.05 0-.02.01-.03.02-.05.02-.06.03-.12.05-.19 0-.02 0-.05.01-.07 0-.01 0-.03 0-.04 0-.02 0-.04.01-.07 0-.06.02-.11.03-.17 0-.03 0-.07.01-.1 0-.01 0-.02 0-.03s0-.03 0-.04c0-.06 0-.11.01-.17 0-.06 0-.12 0-.18 0 0 0 0 0-.01 0-.05 0-.11 0-.16z" fill="url(#N)"/><path d="m45.92 58.66c-.32 0-.7-.12-1.11-.36-1.69-.98-3.12-3.45-3.11-5.39 0-.57.13-1.54.97-1.54.32 0 .7.12 1.11.36 1.69.98 3.12 3.45 3.11 5.39 0 .58-.13 1.54-.98 1.54z" fill="url(#O)"/><path d="m45.84 58.15c-.29 0-.63-.12-.99-.33-1.51-.91-2.79-3.2-2.78-5.01 0-.53.12-1.43.87-1.43.29 0 .63.12 1 .33 1.52.91 2.79 3.2 2.79 5.01 0 .54-.12 1.43-.87 1.43z" fill="url(#P)"/><path d="m44.25 54.44c.24.14.43.47.43.74s-.19.38-.43.24-.43-.47-.43-.74.19-.38.43-.24z" fill="url(#Q)"/><path d="m44.77 55.1s0-.01 0-.02 0-.01 0-.02c0 0 0-.01 0-.02s0-.01 0-.02v-.02s0 0 0-.01c0 0 0-.02 0-.03 0 0 0 0 0-.01s0 0 0-.01c0 0 0-.02 0-.03s0-.01 0-.02v-.02s0 0 0-.01 0-.02-.01-.03c0 0 0-.01 0-.02-.02-.03-.03-.06-.05-.09s-.04-.06-.06-.08-.01-.01-.02-.02c0 0-.01-.01-.02-.02s0-.01-.01-.02c0 0 0 0-.01-.01s-.01-.01-.02-.02c0 0 0 0-.01 0s-.01-.01-.02-.01c0 0 0 0-.01-.01s-.01 0-.02-.01c0 0-.01 0-.02-.01s0 0-.01 0c0 0-.01 0-.02 0 0 0 0 0-.01 0s-.01 0-.02 0c0 0-.01 0-.02 0s0 0-.01 0c0 0-.01 0-.02 0s-.01 0-.02 0c0 0 0 0-.01 0s-.01 0-.02 0h-.02-.02c-.01 0-.02 0-.03.02l-.09.05s.02-.01.03-.02h.03.03.03.04c.01 0 .02 0 .04.01.01 0 .03 0 .04.02.01 0 .03.01.04.02.01 0 .03.02.04.03.01 0 .03.02.04.03s.02.02.04.03c.01 0 .02.02.03.03s.01.02.02.02c0 0 .01.01.02.02.02.03.04.05.06.08s.04.06.05.09v.02c0 .01.01.02.01.03v.01c0 .01.01.03.02.04 0 .02.01.03.02.05 0 .02 0 .03.01.05v.05.05.05.05.04.04c0 .01 0 .02-.01.03 0 .01-.01.02-.02.03 0 .01-.02.03-.03.04s-.02.02-.04.03l.09-.05s.02-.02.04-.03c.01-.01.02-.02.03-.04s.01-.02.02-.03 0-.01 0-.02c0 0 0 0 0-.01s0-.01 0-.02 0-.01 0-.02c0 0 0 0 0-.01s0-.01 0-.02c0 0 0-.01 0-.02s0-.01 0-.02z" fill="url(#R)"/><path d="m45.06 53.71.37-.21-1.42 2.45-.37.21z" fill="url(#S)"/><path d="m45.06 53.71-1.42 2.45-.35-.44z" fill="url(#T)"/></svg>