<svg xmlns="http://www.w3.org/2000/svg" xmlns:xlink="http://www.w3.org/1999/xlink" viewBox="0 0 150 150"><defs><style>.cls-1,.cls-2{fill:none;}.cls-2{stroke:#fff;stroke-miterlimit:10;stroke-width:0.1px;}.cls-3{opacity:0;}.cls-4{fill:#000714;}.cls-5{opacity:0.1;fill:url(#新建图案);}.cls-6{isolation:isolate;}.cls-7{fill:url(#未命名的渐变_262);}.cls-8{fill:url(#未命名的渐变_375);}.cls-9{fill:url(#未命名的渐变_511);}.cls-10{opacity:0.2;}</style><pattern id="新建图案" data-name="新建图案" width="18.57" height="32.16" patternTransform="translate(3067.51 1110.03)" patternUnits="userSpaceOnUse" viewBox="0 0 18.57 32.16"><rect class="cls-1" width="18.57" height="32.16"/><polyline class="cls-2" points="18.57 21.44 18.57 32.16 18.57 42.88"/><polyline class="cls-2" points="9.29 26.8 18.57 32.16 27.85 37.51 27.85 37.52"/><polyline class="cls-2" points="9.29 37.52 9.29 37.51 18.57 32.16 27.85 26.8"/><polygon class="cls-2" points="27.85 37.52 27.85 26.8 18.57 21.44 9.28 26.8 9.28 37.52 18.57 42.88 27.85 37.52"/><polyline class="cls-2" points="0 21.44 0 32.16 0 42.88"/><polyline class="cls-2" points="-9.28 26.8 0 32.16 9.28 37.51 9.28 37.52"/><polyline class="cls-2" points="-9.28 37.52 -9.28 37.51 0 32.16 9.28 26.8"/><polygon class="cls-2" points="9.28 37.52 9.28 26.8 0 21.44 -9.29 26.8 -9.29 37.52 0 42.88 9.28 37.52"/><polyline class="cls-2" points="18.57 10.72 27.85 16.08 37.13 21.43 37.13 21.44"/><polyline class="cls-2" points="18.57 21.44 18.57 21.43 27.85 16.08 37.13 10.72"/><polygon class="cls-2" points="37.14 21.44 37.14 10.72 27.85 5.36 18.57 10.72 18.57 21.44 27.85 26.8 37.14 21.44"/><polyline class="cls-2" points="9.29 5.36 9.29 16.08 9.29 26.8"/><polyline class="cls-2" points="0.01 10.72 9.29 16.08 18.57 21.43 18.57 21.44"/><polyline class="cls-2" points="0.01 21.44 0.01 21.43 9.29 16.08 18.57 10.72"/><polygon class="cls-2" points="18.57 21.44 18.57 10.72 9.28 5.36 0 10.72 0 21.44 9.28 26.8 18.57 21.44"/><polyline class="cls-2" points="-18.56 10.72 -9.28 16.08 0 21.43 0 21.44"/><polyline class="cls-2" points="-18.56 21.44 -18.56 21.43 -9.28 16.08 0 10.72"/><polygon class="cls-2" points="0 21.44 0 10.72 -9.29 5.36 -18.57 10.72 -18.57 21.44 -9.29 26.8 0 21.44"/><polyline class="cls-2" points="18.57 -10.72 18.57 0 18.57 10.72"/><polyline class="cls-2" points="9.29 -5.36 18.57 0 27.85 5.35 27.85 5.36"/><polyline class="cls-2" points="9.29 5.36 9.29 5.35 18.57 0 27.85 -5.36"/><polygon class="cls-2" points="27.85 5.36 27.85 -5.36 18.57 -10.72 9.28 -5.36 9.28 5.36 18.57 10.72 27.85 5.36"/><polyline class="cls-2" points="0 -10.72 0 0 0 10.72"/><polyline class="cls-2" points="-9.28 -5.36 0 0 9.28 5.35 9.28 5.36"/><polyline class="cls-2" points="-9.28 5.36 -9.28 5.35 0 0 9.28 -5.36"/><polygon class="cls-2" points="9.28 5.36 9.28 -5.36 0 -10.72 -9.29 -5.36 -9.29 5.36 0 10.72 9.28 5.36"/></pattern><linearGradient id="未命名的渐变_262" x1="109.96" y1="121.86" x2="47.21" y2="13.18" gradientUnits="userSpaceOnUse"><stop offset="0" stop-color="#bbc1ce"/><stop offset="0.06" stop-color="#c8ced9"/><stop offset="0.17" stop-color="#eceff7"/><stop offset="0.2" stop-color="#f5f8ff"/><stop offset="0.3" stop-color="#f1f4fc"/><stop offset="0.39" stop-color="#e5e9f2"/><stop offset="0.49" stop-color="#d1d6e1"/><stop offset="0.59" stop-color="#b5bcca"/><stop offset="0.68" stop-color="#929aac"/><stop offset="0.7" stop-color="#8a93a6"/><stop offset="0.81" stop-color="#939cb1"/><stop offset="1" stop-color="#a8b3cd"/></linearGradient><linearGradient id="未命名的渐变_375" x1="125.89" y1="112.66" x2="63.14" y2="3.98" gradientUnits="userSpaceOnUse"><stop offset="0" stop-color="#a8b3cd"/><stop offset="0.19" stop-color="#939cb1"/><stop offset="0.3" stop-color="#8a93a6"/><stop offset="0.32" stop-color="#929aac"/><stop offset="0.41" stop-color="#b5bcca"/><stop offset="0.51" stop-color="#d1d6e1"/><stop offset="0.61" stop-color="#e5e9f2"/><stop offset="0.7" stop-color="#f1f4fc"/><stop offset="0.8" stop-color="#f5f8ff"/><stop offset="1" stop-color="#ced4e3"/></linearGradient><linearGradient id="未命名的渐变_511" x1="87.89" y1="130.59" x2="1.12" y2="43.82" gradientUnits="userSpaceOnUse"><stop offset="0" stop-color="#b3becc"/><stop offset="1" stop-color="#d3dae6"/></linearGradient></defs><title>导流罩</title><g id="图层_2" data-name="图层 2"><g id="图元"><g id="导流罩"><g id="背景" class="cls-3"><rect class="cls-4" width="150" height="150"/><rect id="网格" class="cls-5" width="150" height="150"/></g><g class="cls-6"><path class="cls-7" d="M149.89,49V48.7a.44.44,0,0,1,0-.16c-.05-.42-.07-.77-.11-1.1q-.07-.78-.18-1.53a24.36,24.36,0,0,0-.46-2.88,43.34,43.34,0,0,0-2-7s0-.06,0-.11c-.18-.48-.38-1-.6-1.49v0l-.15-.38a44.61,44.61,0,0,0-8.75-13.14c-.28-.31-.61-.63-1-1a.23.23,0,0,1-.09-.06c-.46-.46-1-1-1.6-1.5-.11-.08-.2-.17-.31-.26s-.42-.37-.66-.55c-.42-.35-.79-.66-1.1-.9a1,1,0,0,0-.22-.15c-.37-.31-.61-.49-.61-.49a1.1,1.1,0,0,1-.25-.17,55,55,0,0,0-4.7-3,.55.55,0,0,1-.17-.11l0,0c-.06,0-.13-.06-.2-.11-.57-.31-1.21-.63-1.86-1a3.83,3.83,0,0,1-.44-.25l-.49-.19c-.26-.14-.52-.27-.77-.38a42.27,42.27,0,0,0-5.82-2.22,60.61,60.61,0,0,0-8-2s0,0-.09,0c-.72-.13-1.4-.24-2-.3a55,55,0,0,0-6.4-.62h-.06a86.12,86.12,0,0,0-9.26,0c-1.27.07-2.5.13-3.62.26-.26,0-.53.05-.77.09l-2,.18c-2.68.31-5.82.85-8.9,1.45-1.42.26-2.79.53-4,.77s-2.42.55-3.69.88c-1.54.37-3.19.83-4.81,1.31l-2.22.64c-.6.16-1.25.35-1.89.57l-.33.09-.46.13c-1.47.49-3.41,1.12-5.58,1.91a1,1,0,0,1-.16.05c-.94.35-1.93.7-3,1.1l-.27.09c-4,1.49-8.33,3.25-12.28,5h0l-.29.13c-2,.88-4.06,1.87-6.28,2.94l-.42.18c-1.8.88-3.71,1.85-5.74,2.88l-1,.53c-1.49.76-3,1.6-4.61,2.48-.73.42-1.45.81-2.15,1.23-1.15.66-2.31,1.34-3.52,2.06a1.11,1.11,0,0,0,.31-.15C5.17,37-.17,47.44,0,62.41c.36,28.5,20.57,62.69,45.14,76.38,12.46,6.94,23.64,7.27,31.6,2.2a1.3,1.3,0,0,1-.2.15c6.26-3.51,11.82-7.16,11.87-7.21.52-.35,1.12-.77,1.71-1.16,3.16-2.09,6.11-4.15,8.75-6.07.13-.08.26-.19.39-.28,2-1.43,4.59-3.41,6.48-5,.09-.08.2-.15.29-.24,2-1.58,5.32-4.28,8.79-7.38.35-.33.72-.66,1.1-1,.68-.62,1.36-1.25,2-1.89l.55-.53c.13-.13.28-.24.42-.37l.55-.55A145.49,145.49,0,0,0,130.11,98.2c.33-.39.62-.77.93-1.14l.85-1c1.26-1.52,2.62-3.34,4-5.23.42-.57.81-1.14,1.19-1.69l.19-.33c.07-.09.13-.18.2-.29.95-1.38,1.82-2.77,2.57-4l.2-.33.13-.2a67.69,67.69,0,0,0,3.39-6.41c.81-1.67,1.56-3.32,2.15-4.79a47.44,47.44,0,0,0,2.72-8.7v0c.09-.46.2-1,.31-1.49s.26-1.19.35-1.76c.07-.33.11-.64.16-.94v-.09c.28-2.44.52-5.71.59-8.18C150,50.78,150,49.82,149.89,49ZM43.38,40c-11.4,6.7-15.47,6.15-9-1.23S55.23,20,66.61,13.27s15.47-6.17,9,1.21S54.79,33.29,43.38,40Zm61.68,73.61c-11.47,6.66-30.1,6.66-41.64,0s-11.6-17.47-.13-24.13,30.08-6.66,41.64,0S116.53,107,105.06,113.63Z"/><path class="cls-8" d="M149.89,49V48.7a.44.44,0,0,1,0-.16c-.05-.42-.07-.77-.11-1.1q-.07-.78-.18-1.53a24.36,24.36,0,0,0-.46-2.88,43.34,43.34,0,0,0-2-7s0-.06,0-.11c-.18-.48-.38-1-.6-1.49v0l-.15-.38a44.61,44.61,0,0,0-8.75-13.14c-.28-.31-.61-.63-1-1a.23.23,0,0,1-.09-.06c-.46-.46-1-1-1.6-1.5-.11-.08-.2-.17-.31-.26s-.42-.37-.66-.55c-.42-.35-.79-.66-1.1-.9a1,1,0,0,0-.22-.15c-.37-.31-.61-.49-.61-.49a1.1,1.1,0,0,1-.25-.17,55,55,0,0,0-4.7-3,.55.55,0,0,1-.17-.11l0,0c-.06,0-.13-.06-.2-.11-.57-.31-1.21-.63-1.86-1a3.83,3.83,0,0,1-.44-.25l-.49-.19c-.26-.14-.52-.27-.77-.38a42.27,42.27,0,0,0-5.82-2.22,60.61,60.61,0,0,0-8-2s0,0-.09,0c-.72-.13-1.4-.24-2-.3a55,55,0,0,0-6.4-.62h-.06a86.12,86.12,0,0,0-9.26,0c-1.27.07-2.5.13-3.62.26-.26,0-.53.05-.77.09l-2,.18c-2.68.31-5.82.85-8.9,1.45-1.42.26-2.79.53-4,.77s-2.42.55-3.69.88c-1.54.37-3.19.83-4.81,1.31l-2.22.64c-.6.16-1.25.35-1.89.57l-.33.09-.46.13c-1.47.49-3.41,1.12-5.58,1.91a1,1,0,0,1-.16.05c-.94.35-1.93.7-3,1.1l-.27.09c-4,1.49-8.33,3.25-12.28,5h0l-.29.13c-2,.88-4.06,1.87-6.28,2.94l-.42.18c-1.8.88-3.71,1.85-5.74,2.88l-1,.53c-1.49.76-3,1.6-4.61,2.48-.73.42-1.45.81-2.15,1.23-1.15.66-2.31,1.34-3.52,2.06,7.85-4.26,18.52-3.6,30.33,3C68.45,49.33,88.65,83.52,89,112c.18,14.18-4.59,24.26-12.46,29.14,6.26-3.51,11.82-7.16,11.87-7.21.52-.35,1.12-.77,1.71-1.16,3.16-2.09,6.11-4.15,8.75-6.07.13-.08.26-.19.39-.28,2-1.43,4.59-3.41,6.48-5,.09-.08.2-.15.29-.24,2-1.58,5.32-4.28,8.79-7.38.35-.33.72-.66,1.1-1,.68-.62,1.36-1.25,2-1.89l.55-.53c.13-.13.28-.24.42-.37l.55-.55A145.49,145.49,0,0,0,130.11,98.2c.33-.39.62-.77.93-1.14l.85-1c1.26-1.52,2.62-3.34,4-5.23.42-.57.81-1.14,1.19-1.69l.19-.33c.07-.09.13-.18.2-.29.95-1.38,1.82-2.77,2.57-4l.2-.33.13-.2a67.69,67.69,0,0,0,3.39-6.41c.81-1.67,1.56-3.32,2.15-4.79a47.44,47.44,0,0,0,2.72-8.7v0c.09-.46.2-1,.31-1.49s.26-1.19.35-1.76c.07-.33.11-.64.16-.94v-.09c.28-2.44.52-5.71.59-8.18C150,50.78,150,49.82,149.89,49ZM120.75,82.45C109,89,94.91,82.25,89.35,67.37s-.5-32.25,11.3-38.78,25.84.22,31.4,15.1S132.55,75.92,120.75,82.45Z"/><path class="cls-9" d="M43.89,35.64C19.3,21.93-.35,33.93,0,62.41s20.57,62.69,45.14,76.38S89.35,140.5,89,112,68.45,49.33,43.89,35.64ZM79,136.39a20,20,0,0,1-14.64,5.87c-5.62,0-11.71-1.82-18.12-5.38C22.29,123.54,2.55,90.12,2.2,62.39,2.07,51.77,4.77,43.33,10,38a20.07,20.07,0,0,1,14.66-5.87c5.63,0,11.71,1.8,18.13,5.38C66.74,50.89,86.47,84.29,86.8,112,86.93,122.66,84.23,131.08,79,136.39Z"/></g></g></g></g></svg>