<?xml version="1.0" encoding="UTF-8"?>
<svg id="_图层_2" data-name="图层 2" xmlns="http://www.w3.org/2000/svg" xmlns:xlink="http://www.w3.org/1999/xlink" viewBox="0 0 150.42 150">
  <defs>
    <style>
      .cls-1 {
        fill: url(#_未命名的渐变_67);
      }

      .cls-1, .cls-2, .cls-3, .cls-4, .cls-5, .cls-6, .cls-7, .cls-8, .cls-9, .cls-10, .cls-11, .cls-12, .cls-13, .cls-14, .cls-15, .cls-16, .cls-17, .cls-18, .cls-19, .cls-20, .cls-21, .cls-22, .cls-23, .cls-24, .cls-25, .cls-26, .cls-27, .cls-28, .cls-29, .cls-30, .cls-31 {
        stroke-width: 0px;
      }

      .cls-2 {
        fill: url(#_未命名的渐变_97);
      }

      .cls-3 {
        fill: url(#_未命名的渐变_94);
      }

      .cls-4 {
        fill: url(#_未命名的渐变_93);
      }

      .cls-5 {
        fill: url(#_未命名的渐变_45);
      }

      .cls-6 {
        fill: url(#_未命名的渐变_42);
      }

      .cls-7 {
        fill: url(#_未命名的渐变_56);
      }

      .cls-8 {
        fill: url(#_未命名的渐变_52);
      }

      .cls-9 {
        fill: url(#_未命名的渐变_51);
      }

      .cls-10, .cls-32 {
        fill: none;
      }

      .cls-32 {
        stroke: #fff;
        stroke-miterlimit: 10;
        stroke-width: .1px;
      }

      .cls-11 {
        fill: url(#_未命名的渐变_56-2);
      }

      .cls-12 {
        fill: url(#_未命名的渐变_56-3);
      }

      .cls-13 {
        fill: url(#_未命名的渐变_116-2);
      }

      .cls-14 {
        fill: url(#_未命名的渐变_252-2);
      }

      .cls-15 {
        fill: url(#_未命名的渐变_252-3);
      }

      .cls-16 {
        fill: url(#_未命名的渐变_251-3);
      }

      .cls-17 {
        fill: url(#_未命名的渐变_251-2);
      }

      .cls-18 {
        fill: url(#_新建图案);
        opacity: .1;
      }

      .cls-33 {
        opacity: .2;
      }

      .cls-19 {
        fill: url(#_未命名的渐变_3);
      }

      .cls-20 {
        fill: url(#_未命名的渐变_7);
      }

      .cls-21 {
        fill: url(#_未命名的渐变_6);
      }

      .cls-22 {
        fill: url(#_未命名的渐变_3-3);
      }

      .cls-23 {
        fill: url(#_未命名的渐变_3-2);
      }

      .cls-24 {
        fill: url(#_未命名的渐变_139);
      }

      .cls-25 {
        fill: url(#_未命名的渐变_116);
      }

      .cls-26 {
        fill: url(#_未命名的渐变_101);
      }

      .cls-27 {
        fill: url(#_未命名的渐变_100);
      }

      .cls-28 {
        fill: url(#_未命名的渐变_251);
      }

      .cls-29 {
        fill: url(#_未命名的渐变_252);
      }

      .cls-30 {
        fill: url(#_未命名的渐变_244);
      }

      .cls-34 {
        opacity: 0;
      }

      .cls-31 {
        fill: #010714;
      }
    </style>
    <pattern id="_新建图案" data-name="新建图案" x="0" y="0" width="18.57" height="32.16" patternTransform="translate(3012.36 1177.63)" patternUnits="userSpaceOnUse" viewBox="0 0 18.57 32.16">
      <g>
        <rect class="cls-10" x="0" y="0" width="18.57" height="32.16"/>
        <g>
          <g>
            <polyline class="cls-32" points="18.57 21.44 18.57 32.16 18.57 42.88"/>
            <polyline class="cls-32" points="9.29 26.8 18.57 32.16 27.85 37.51 27.85 37.52"/>
            <polyline class="cls-32" points="9.29 37.52 9.29 37.51 18.57 32.16 27.85 26.8"/>
          </g>
          <polygon class="cls-32" points="27.85 37.52 27.85 26.8 18.57 21.44 9.28 26.8 9.28 37.52 18.57 42.88 27.85 37.52"/>
        </g>
        <g>
          <g>
            <polyline class="cls-32" points="0 21.44 0 32.16 0 42.88"/>
            <polyline class="cls-32" points="-9.28 26.8 0 32.16 9.28 37.51 9.28 37.52"/>
            <polyline class="cls-32" points="-9.28 37.52 -9.28 37.51 0 32.16 9.28 26.8"/>
          </g>
          <polygon class="cls-32" points="9.28 37.52 9.28 26.8 0 21.44 -9.28 26.8 -9.28 37.52 0 42.88 9.28 37.52"/>
        </g>
        <g>
          <g>
            <polyline class="cls-32" points="18.57 10.72 27.85 16.08 37.13 21.43 37.13 21.44"/>
            <polyline class="cls-32" points="18.57 21.44 18.57 21.43 27.85 16.08 37.13 10.72"/>
          </g>
          <polygon class="cls-32" points="37.14 21.44 37.14 10.72 27.85 5.36 18.57 10.72 18.57 21.44 27.85 26.8 37.14 21.44"/>
        </g>
        <g>
          <g>
            <polyline class="cls-32" points="9.28 5.36 9.28 16.08 9.28 26.8"/>
            <polyline class="cls-32" points="0 10.72 9.28 16.08 18.56 21.43 18.56 21.44"/>
            <polyline class="cls-32" points="0 21.44 0 21.43 9.28 16.08 18.56 10.72"/>
          </g>
          <polygon class="cls-32" points="18.57 21.44 18.57 10.72 9.28 5.36 0 10.72 0 21.44 9.28 26.8 18.57 21.44"/>
        </g>
        <g>
          <g>
            <polyline class="cls-32" points="-18.56 10.72 -9.28 16.08 0 21.43 0 21.44"/>
            <polyline class="cls-32" points="-18.56 21.44 -18.56 21.43 -9.28 16.08 0 10.72"/>
          </g>
          <polygon class="cls-32" points="0 21.44 0 10.72 -9.28 5.36 -18.57 10.72 -18.57 21.44 -9.28 26.8 0 21.44"/>
        </g>
        <g>
          <g>
            <polyline class="cls-32" points="18.57 -10.72 18.57 0 18.57 10.72"/>
            <polyline class="cls-32" points="9.29 -5.36 18.57 0 27.85 5.35 27.85 5.36"/>
            <polyline class="cls-32" points="9.29 5.36 9.29 5.35 18.57 0 27.85 -5.36"/>
          </g>
          <polygon class="cls-32" points="27.85 5.36 27.85 -5.36 18.57 -10.72 9.28 -5.36 9.28 5.36 18.57 10.72 27.85 5.36"/>
        </g>
        <g>
          <g>
            <polyline class="cls-32" points="0 -10.72 0 0 0 10.72"/>
            <polyline class="cls-32" points="-9.28 -5.36 0 0 9.28 5.35 9.28 5.36"/>
            <polyline class="cls-32" points="-9.28 5.36 -9.28 5.35 0 0 9.28 -5.36"/>
          </g>
          <polygon class="cls-32" points="9.28 5.36 9.28 -5.36 0 -10.72 -9.28 -5.36 -9.28 5.36 0 10.72 9.28 5.36"/>
        </g>
      </g>
    </pattern>
    <linearGradient id="_未命名的渐变_252" data-name="未命名的渐变 252" x1="102.87" y1="37.31" x2="161.18" y2="85.65" gradientUnits="userSpaceOnUse">
      <stop offset=".12" stop-color="#4c5e7c"/>
      <stop offset=".9" stop-color="#536787"/>
    </linearGradient>
    <linearGradient id="_未命名的渐变_101" data-name="未命名的渐变 101" x1="86.8" y1="34.73" x2="113.44" y2="126.01" gradientUnits="userSpaceOnUse">
      <stop offset=".16" stop-color="#7a96ca"/>
      <stop offset=".21" stop-color="#657ca6"/>
      <stop offset=".31" stop-color="#38455a"/>
      <stop offset=".31" stop-color="#465672"/>
      <stop offset=".32" stop-color="#566a8d"/>
      <stop offset=".33" stop-color="#637aa3"/>
      <stop offset=".34" stop-color="#6d86b5"/>
      <stop offset=".35" stop-color="#748fc1"/>
      <stop offset=".37" stop-color="#7894c8"/>
      <stop offset=".42" stop-color="#7a96ca"/>
      <stop offset=".85" stop-color="#354154"/>
    </linearGradient>
    <linearGradient id="_未命名的渐变_100" data-name="未命名的渐变 100" x1="58.2" y1="59.2" x2="148.34" y2="72.22" gradientUnits="userSpaceOnUse">
      <stop offset=".12" stop-color="#80a2da"/>
      <stop offset=".9" stop-color="#5b77a1"/>
    </linearGradient>
    <linearGradient id="_未命名的渐变_97" data-name="未命名的渐变 97" x1="34.34" y1="68.17" x2="57.5" y2="29.73" gradientTransform="translate(-22.62 63.96) rotate(-20.38)" gradientUnits="userSpaceOnUse">
      <stop offset=".04" stop-color="#354154"/>
      <stop offset=".26" stop-color="#667da8"/>
      <stop offset=".36" stop-color="#7a96ca"/>
      <stop offset=".58" stop-color="#7a96ca"/>
      <stop offset=".6" stop-color="#7a96ca"/>
      <stop offset=".63" stop-color="#7792c5"/>
      <stop offset=".67" stop-color="#6f88b8"/>
      <stop offset=".7" stop-color="#6278a1"/>
      <stop offset=".73" stop-color="#4f6182"/>
      <stop offset=".77" stop-color="#38445b"/>
      <stop offset=".79" stop-color="#283140"/>
    </linearGradient>
    <linearGradient id="_未命名的渐变_42" data-name="未命名的渐变 42" x1="63.15" y1="48.71" x2="78.4" y2="14.71" gradientTransform="translate(-22.97 119.51) rotate(-36.53)" gradientUnits="userSpaceOnUse">
      <stop offset=".16" stop-color="#1434cb"/>
      <stop offset=".2" stop-color="#1a41cf"/>
      <stop offset=".49" stop-color="#47a0ed"/>
      <stop offset=".61" stop-color="#59c6f9"/>
      <stop offset=".79" stop-color="#4eb0f2"/>
      <stop offset=".82" stop-color="#4babf0"/>
      <stop offset=".86" stop-color="#459eec"/>
      <stop offset=".89" stop-color="#3b88e5"/>
      <stop offset=".93" stop-color="#2d69db"/>
      <stop offset=".97" stop-color="#1b42ce"/>
      <stop offset=".98" stop-color="#1637cb"/>
    </linearGradient>
    <linearGradient id="_未命名的渐变_94" data-name="未命名的渐变 94" x1="10.88" y1="101.16" x2="46.6" y2="79.05" gradientUnits="userSpaceOnUse">
      <stop offset=".04" stop-color="#38455a"/>
      <stop offset=".14" stop-color="#43526c"/>
      <stop offset=".33" stop-color="#60769d"/>
      <stop offset=".48" stop-color="#7a96ca"/>
      <stop offset=".69" stop-color="#7a96ca"/>
      <stop offset=".74" stop-color="#7793c6"/>
      <stop offset=".79" stop-color="#708aba"/>
      <stop offset=".84" stop-color="#657ca7"/>
      <stop offset=".88" stop-color="#55688c"/>
      <stop offset=".93" stop-color="#414f6a"/>
      <stop offset=".97" stop-color="#283140"/>
    </linearGradient>
    <linearGradient id="_未命名的渐变_93" data-name="未命名的渐变 93" x1="2.07" y1="87.53" x2="34.85" y2="68.92" gradientUnits="userSpaceOnUse">
      <stop offset="0" stop-color="#354154"/>
      <stop offset=".1" stop-color="#374458"/>
      <stop offset=".21" stop-color="#3f4e66"/>
      <stop offset=".34" stop-color="#4d5f7d"/>
      <stop offset=".46" stop-color="#60769e"/>
      <stop offset=".59" stop-color="#7894c7"/>
      <stop offset=".6" stop-color="#7a96ca"/>
      <stop offset=".67" stop-color="#7792c5"/>
      <stop offset=".75" stop-color="#6e88b7"/>
      <stop offset=".83" stop-color="#61779f"/>
      <stop offset=".92" stop-color="#4e607f"/>
      <stop offset="1" stop-color="#38455a"/>
    </linearGradient>
    <linearGradient id="_未命名的渐变_6" data-name="未命名的渐变 6" x1="1.29" y1="69.74" x2="34.24" y2="69.74" gradientUnits="userSpaceOnUse">
      <stop offset="0" stop-color="#87a9e4"/>
      <stop offset="1" stop-color="#547097"/>
    </linearGradient>
    <linearGradient id="_未命名的渐变_3" data-name="未命名的渐变 3" x1="-860.61" y1="-585.57" x2="-824.87" y2="-585.57" gradientTransform="translate(879.48 632.28) rotate(-1.88)" gradientUnits="userSpaceOnUse">
      <stop offset="0" stop-color="#38455a"/>
      <stop offset=".15" stop-color="#7a96ca"/>
      <stop offset=".25" stop-color="#7a96ca"/>
      <stop offset=".9" stop-color="#12161a"/>
      <stop offset="1" stop-color="#283140"/>
    </linearGradient>
    <linearGradient id="_未命名的渐变_7" data-name="未命名的渐变 7" x1="-866.32" y1="-583.56" x2="-830.75" y2="-583.56" gradientTransform="translate(868.01 649.89) rotate(-.16)" gradientUnits="userSpaceOnUse">
      <stop offset="0" stop-color="#87a9e4"/>
      <stop offset=".91" stop-color="#547097"/>
    </linearGradient>
    <linearGradient id="_未命名的渐变_52" data-name="未命名的渐变 52" x1="-801.52" y1="-635.64" x2="-780.63" y2="-635.64" gradientTransform="translate(1268.98 1015.2) rotate(-.15) scale(1.58 1.49)" gradientUnits="userSpaceOnUse">
      <stop offset="0" stop-color="#1d242c"/>
      <stop offset=".91" stop-color="#384559"/>
    </linearGradient>
    <linearGradient id="_未命名的渐变_67" data-name="未命名的渐变 67" x1="-801.49" y1="-648.08" x2="-780.67" y2="-648.08" gradientTransform="translate(1268.81 1001.24) rotate(-.14) scale(1.58 1.44)" gradientUnits="userSpaceOnUse">
      <stop offset="0" stop-color="#4d5f7d"/>
      <stop offset=".91" stop-color="#171d23"/>
    </linearGradient>
    <linearGradient id="_未命名的渐变_116" data-name="未命名的渐变 116" x1="-590.54" y1="-580.91" x2="-555.21" y2="-580.91" gradientTransform="translate(-506.84 707.13) rotate(175.76) scale(1 -1)" gradientUnits="userSpaceOnUse">
      <stop offset="0" stop-color="#708ec1"/>
      <stop offset=".15" stop-color="#84a6e0"/>
      <stop offset=".25" stop-color="#82a3dc"/>
      <stop offset=".9" stop-color="#60779d"/>
      <stop offset="1" stop-color="#283140"/>
    </linearGradient>
    <linearGradient id="_未命名的渐变_3-2" data-name="未命名的渐变 3" x1="-590.6" y1="-580.65" x2="-555.12" y2="-580.65" gradientTransform="translate(-506.84 707.13) rotate(175.76) scale(1 -1)" xlink:href="#_未命名的渐变_3"/>
    <linearGradient id="_未命名的渐变_116-2" data-name="未命名的渐变 116" x1="-609.28" y1="-611.26" x2="-571.74" y2="-611.26" gradientTransform="translate(-267.62 892.27) rotate(156.59) scale(1 -1)" xlink:href="#_未命名的渐变_116"/>
    <linearGradient id="_未命名的渐变_3-3" data-name="未命名的渐变 3" x1="-609.35" y1="-610.71" x2="-571.78" y2="-610.71" gradientTransform="translate(-267.62 892.27) rotate(156.59) scale(1 -1)" xlink:href="#_未命名的渐变_3"/>
    <linearGradient id="_未命名的渐变_139" data-name="未命名的渐变 139" x1="-662.1" y1="-691.89" x2="-624.32" y2="-691.89" gradientTransform="translate(127.6 900.89) rotate(123.61) scale(.96 -.73)" gradientUnits="userSpaceOnUse">
      <stop offset="0" stop-color="#546789"/>
      <stop offset=".15" stop-color="#84a6e0"/>
      <stop offset=".25" stop-color="#82a3dc"/>
      <stop offset=".9" stop-color="#60779d"/>
      <stop offset="1" stop-color="#283140"/>
    </linearGradient>
    <linearGradient id="_未命名的渐变_51" data-name="未命名的渐变 51" x1="-662.38" y1="-690.99" x2="-624.62" y2="-690.99" gradientTransform="translate(127.6 900.89) rotate(123.61) scale(.96 -.73)" gradientUnits="userSpaceOnUse">
      <stop offset="0" stop-color="#2a3443"/>
      <stop offset=".15" stop-color="#84a6e0"/>
      <stop offset=".25" stop-color="#6981ad"/>
      <stop offset=".9" stop-color="#1d242c"/>
      <stop offset="1" stop-color="#14181d"/>
    </linearGradient>
    <linearGradient id="_未命名的渐变_244" data-name="未命名的渐变 244" x1="56.35" y1="100.49" x2="70.71" y2="100.49" gradientUnits="userSpaceOnUse">
      <stop offset="0" stop-color="#5f759c"/>
      <stop offset=".91" stop-color="#547097"/>
    </linearGradient>
    <linearGradient id="_未命名的渐变_45" data-name="未命名的渐变 45" x1="67.85" y1="86.11" x2="54.67" y2="117.27" gradientUnits="userSpaceOnUse">
      <stop offset=".03" stop-color="#85a6e0"/>
      <stop offset=".19" stop-color="#82a3dc"/>
      <stop offset=".46" stop-color="#354154"/>
      <stop offset=".88" stop-color="#1b222a"/>
    </linearGradient>
    <linearGradient id="_未命名的渐变_251" data-name="未命名的渐变 251" x1="99.86" y1="45.67" x2="161.07" y2="82.15" gradientUnits="userSpaceOnUse">
      <stop offset=".12" stop-color="#80a2da"/>
      <stop offset=".24" stop-color="#7d9ed5"/>
      <stop offset=".36" stop-color="#7695c9"/>
      <stop offset=".49" stop-color="#6a86b3"/>
      <stop offset=".61" stop-color="#597196"/>
      <stop offset=".74" stop-color="#435570"/>
      <stop offset=".87" stop-color="#293442"/>
      <stop offset=".9" stop-color="#232c37"/>
    </linearGradient>
    <linearGradient id="_未命名的渐变_252-2" data-name="未命名的渐变 252" x1="85.36" y1="55.06" x2="131.69" y2="93.47" xlink:href="#_未命名的渐变_252"/>
    <linearGradient id="_未命名的渐变_251-2" data-name="未命名的渐变 251" x1="83.06" y1="61.7" x2="131.81" y2="90.74" xlink:href="#_未命名的渐变_251"/>
    <linearGradient id="_未命名的渐变_252-3" data-name="未命名的渐变 252" x1="69.31" y1="71.47" x2="104.92" y2="100.99" xlink:href="#_未命名的渐变_252"/>
    <linearGradient id="_未命名的渐变_251-3" data-name="未命名的渐变 251" x1="67.75" y1="76.5" x2="105.19" y2="98.8" xlink:href="#_未命名的渐变_251"/>
    <linearGradient id="_未命名的渐变_56" data-name="未命名的渐变 56" x1="51.4" y1="77.12" x2="66.81" y2="77.12" gradientUnits="userSpaceOnUse">
      <stop offset="0" stop-color="#10243b" stop-opacity=".6"/>
      <stop offset=".03" stop-color="#10243b" stop-opacity=".6"/>
      <stop offset="1" stop-color="#10243b" stop-opacity=".6"/>
    </linearGradient>
    <linearGradient id="_未命名的渐变_56-2" data-name="未命名的渐变 56" x1="67.86" y1="75.15" x2="82.5" y2="75.15" xlink:href="#_未命名的渐变_56"/>
    <linearGradient id="_未命名的渐变_56-3" data-name="未命名的渐变 56" x1="83.62" y1="72.88" x2="99.02" y2="72.88" xlink:href="#_未命名的渐变_56"/>
  </defs>
  <g id="_水力发电" data-name="水力发电">
    <g id="_尾水管" data-name="尾水管">
      <g id="_背景" data-name="背景" class="cls-34">
        <rect class="cls-31" x=".21" width="150" height="150"/>
        <rect id="_网格" data-name="网格" class="cls-18" x=".21" width="150" height="150"/>
      </g>
      <g>
        <polygon class="cls-29" points="111.07 31.75 149.39 54.24 149.08 97.05 147.61 96.04 148.28 54.73 111.04 32.46 111.07 31.75"/>
        <polygon class="cls-26" points="55.41 117.76 148.28 96.38 148.28 54.82 64.37 94.37 55.41 117.76"/>
        <polygon class="cls-27" points="67.44 94.91 148.37 54.78 111.04 32.46 57.82 85.02 67.44 94.91"/>
        <path class="cls-2" d="m12.92,102.66s10.16,13.63,28.6,15.1c20.58-.67,22.45-33.81,11.46-33.41-2.97,0-3.98.4-8.14-1.14,2.57,6.65-17.79,22.83-31.91,19.45Z"/>
        <path class="cls-6" d="m37.2,117.09s17.82,5.17,27.44-3.03c7.22-5.75,6.35-18.89,3.47-23.7-4.11-6.88-9.18-7.39-10.69-6.88-1.74.27-3.54.8-5.3.91,8.44,8.91,1.22,30.15-14.92,32.69Z"/>
        <path class="cls-3" d="m4.52,88.43s3.55,11.74,11.88,17.44c17.91,5.48,35.59-16.21,28.71-22.63-2.09-.73-3.83-2.05-7.15-5.52.09,7.13-21.38,18.8-33.44,10.71Z"/>
        <path class="cls-4" d="m1.3,69.97s-.04,6.95,2.85,17.73c3.03,10.56,38.84,2.67,34.12-9.44-.62-1.34-2.41-2.32-4.19-9.26-1.78-6.95,2.58,11.4-32.78.98Z"/>
        <path class="cls-21" d="m34.24,69.78c0,2.43-1.59,4.87-4.79,6.73-6.41,3.73-16.85,3.73-23.31-.01-3.24-1.87-4.86-4.33-4.86-6.78s1.59-4.86,4.78-6.71c6.42-3.74,16.86-3.74,23.31,0,3.24,1.87,4.87,4.33,4.87,6.78Z"/>
        <path class="cls-19" d="m30.52,75.54c-6.91,4.18-18.17,4.44-25.15.57-3.43-1.9-5.19-4.45-5.27-7.04l-.11,1.97c.08,2.59,1.83,5.14,5.27,7.04,6.98,3.87,18.23,3.61,25.15-.57,3.51-2.12,5.23-4.86,5.14-7.53l.1-1.97c.08,2.68-1.63,5.41-5.14,7.53Z"/>
        <ellipse class="cls-20" cx="17.82" cy="68.73" rx="17.79" ry="10.3" transform="translate(-.99 .26) rotate(-.82)"/>
        <ellipse class="cls-8" cx="17.79" cy="68.49" rx="16.49" ry="9.04" transform="translate(-1 .27) rotate(-.84)"/>
        <ellipse class="cls-1" cx="17.8" cy="69.19" rx="16.44" ry="8.7" transform="translate(-1.02 .27) rotate(-.85)"/>
        <path class="cls-25" d="m9.25,90.73c7.44,1.25,18.02-.02,25.08-4.99,3.61-2.54,4.01-6.16,3.79-7.92l.58.73c.33,2.9-.65,5.96-4.19,8.3-7.66,5.08-17.77,5.92-24.36,5.08-3.35-.43-6.48-2.25-6.1-3.94l.11-1.21c-.38,1.69,1.77,3.39,5.1,3.94Z"/>
        <path class="cls-23" d="m9.18,91.03c7.44,1.25,18.02-.02,25.08-4.99,3.61-2.54,4.42-6.05,4.04-8.01l.46.52c.33,2.9-.78,6.25-4.32,8.6-7.66,5.08-17.77,5.92-24.36,5.08-3.35-.43-6.48-2.25-6.1-3.94l.11-1.21c-.38,1.69,1.77,3.39,5.1,3.94Z"/>
        <path class="cls-13" d="m20.98,106.27c8.06-.27,18.04-6.3,23.39-13.73,2.73-3.8,1.68-7.56.85-9.25l1.03.53c1.34,2.78,1.42,6.2-1.31,9.78-5.91,7.76-15.74,12.12-22.64,13.57-3.51.74-6.2-.29-7.49-1.82l-.63-1.12c1.19,1.09,3.23,2.17,6.81,2.05Z"/>
        <path class="cls-22" d="m21.02,106.59c8.56-.37,18.04-6.3,23.39-13.73,2.73-3.8,2.03-7.75,1.08-9.46l.83.4c1.34,2.78,1.56,6.67-1.33,10.12-6.8,8.08-13.12,12.44-22.64,13.57-3.56.42-6.07-.2-7.49-1.82l-.4-.98c.6,1.05,3.51,2.51,6.58,1.91Z"/>
        <path class="cls-24" d="m44.79,113.58c3.03-1.95,6.52-5.17,8.28-9.45,2.06-4.97,1.94-9.82,1.6-12.63-.6-5.01-2.14-6.53-2.52-7.13l.82-.07c1.07,1.12,2.63,3.45,2.69,7.93.11,7.37-1.47,15.37-8.95,21.31-2.68,2.13-6.64,4.08-8.41,3.77l-2.06-.37c1.38-.2,5.71-1.56,8.53-3.37Z"/>
        <path class="cls-9" d="m46.33,113.15c3.78-2.91,5.24-4.93,6.81-8.22,2.21-4.6,2.46-10.08,1.94-14.16-.4-3.14-2.17-6.15-2.58-6.41.18-.11.83-.15.83-.15.76.55,1.69,1.89,2.56,4.02s1.2,6.21.67,10.02c-.91,6.5-4.21,12.03-8.35,15.37-2.67,2.15-7.74,4.18-9.51,3.88l-1.6-.33c1.25.07,6.89-2.2,9.24-4.01Z"/>
        <path class="cls-30" d="m58.4,83.4s11.49,1.4,11.67,17.12c-.02,15.33-12.88,17.24-13.72,17.46.38.13,1.05.16,1.63.17,1.96-.8,12.54-3.39,12.72-17.36.56-15.83-12.06-19.67-13.4-17.33.62-.15,1.11-.06,1.11-.06Z"/>
        <path class="cls-5" d="m58.75,83.12s11.54,1.54,11.63,17.04c.36,15.86-12.87,17.58-14,17.81.4.3,1.44.24,1.67.15,1.97-.77,13.49-2.68,13.09-17.73,0-15.37-12.11-18.8-13.6-17.2.31-.1.79-.14,1.22-.06Z"/>
        <polygon class="cls-28" points="111.18 31.75 112.29 31.3 150.42 53.75 150.33 96.42 149.08 97.05 149.35 54.29 111.18 31.75"/>
        <polygon class="cls-14" points="92.19 50.24 122.06 67.75 121.78 102.88 121.22 102.52 121.06 68.19 92.17 50.88 92.19 50.24"/>
        <polygon class="cls-17" points="92.29 50.24 93.3 49.84 122.98 67.31 122.9 102.7 121.76 102.93 122.02 67.79 92.29 50.24"/>
        <polygon class="cls-15" points="75.02 67.23 97.21 80.18 96.93 108.67 96.37 108.32 96.21 80.62 75 67.87 75.02 67.23"/>
        <polygon class="cls-16" points="75.12 67.23 76.12 66.83 98.13 79.74 98.05 108.49 96.9 108.72 97.17 80.22 75.12 67.23"/>
      </g>
    </g>
  </g>
</svg>