<svg xmlns="http://www.w3.org/2000/svg" xmlns:xlink="http://www.w3.org/1999/xlink" viewBox="0 0 150 150"><defs><style>.cls-1,.cls-2{fill:none;}.cls-2{stroke:#fff;stroke-miterlimit:10;stroke-width:0.1px;}.cls-3{isolation:isolate;}.cls-4{opacity:0;}.cls-5{fill:#000714;}.cls-6{opacity:0.1;fill:url(#新建图案);}.cls-7{fill:url(#未命名的渐变_140);}.cls-8{fill:url(#未命名的渐变_2179);}.cls-9{fill:url(#未命名的渐变_2050);}.cls-10{fill:url(#未命名的渐变_54);}.cls-11{opacity:0.3;}.cls-11,.cls-14,.cls-16{mix-blend-mode:multiply;}.cls-12{fill:#242d3a;}.cls-13{fill:#4cfafe;}.cls-15,.cls-16{fill:#0b131f;}.cls-17{fill:url(#未命名的渐变_140-2);}.cls-18{fill:url(#未命名的渐变_2050-2);}.cls-19{fill:url(#未命名的渐变_54-2);}.cls-20{fill:url(#未命名的渐变_140-3);}.cls-21{fill:url(#未命名的渐变_2050-3);}.cls-22{fill:url(#未命名的渐变_54-3);}.cls-23{fill:url(#未命名的渐变_140-4);}.cls-24{fill:url(#未命名的渐变_2050-4);}.cls-25{fill:url(#未命名的渐变_54-4);}.cls-26{fill:url(#未命名的渐变_140-5);}.cls-27{fill:url(#未命名的渐变_2050-5);}.cls-28{fill:url(#未命名的渐变_54-5);}.cls-29{fill:url(#未命名的渐变_140-6);}.cls-30{fill:url(#未命名的渐变_2050-6);}.cls-31{fill:url(#未命名的渐变_54-6);}.cls-32{fill:url(#未命名的渐变_140-7);}.cls-33{fill:url(#未命名的渐变_2179-2);}.cls-34{fill:url(#未命名的渐变_2050-7);}.cls-35{fill:url(#未命名的渐变_54-7);}.cls-36{fill:url(#未命名的渐变_14);}.cls-37{fill:url(#未命名的渐变_159);}.cls-38{fill:url(#未命名的渐变_2118);}.cls-39{fill:url(#未命名的渐变_181);}.cls-40{fill:url(#未命名的渐变_175);}.cls-41{opacity:0.2;}</style><pattern id="新建图案" data-name="新建图案" width="18.57" height="32.16" patternTransform="translate(1904.29 970.85)" patternUnits="userSpaceOnUse" viewBox="0 0 18.57 32.16"><rect class="cls-1" width="18.57" height="32.16"/><polyline class="cls-2" points="18.57 21.44 18.57 32.16 18.57 42.88"/><polyline class="cls-2" points="9.29 26.8 18.57 32.16 27.85 37.51 27.85 37.52"/><polyline class="cls-2" points="9.29 37.52 9.29 37.51 18.57 32.16 27.85 26.8"/><polygon class="cls-2" points="27.85 37.52 27.85 26.8 18.57 21.44 9.28 26.8 9.28 37.52 18.57 42.88 27.85 37.52"/><polyline class="cls-2" points="0 21.44 0 32.16 0 42.88"/><polyline class="cls-2" points="-9.28 26.8 0 32.16 9.28 37.51 9.28 37.52"/><polyline class="cls-2" points="-9.28 37.52 -9.28 37.51 0 32.16 9.28 26.8"/><polygon class="cls-2" points="9.28 37.52 9.28 26.8 0 21.44 -9.29 26.8 -9.29 37.52 0 42.88 9.28 37.52"/><polyline class="cls-2" points="18.57 10.72 27.85 16.08 37.13 21.43 37.13 21.44"/><polyline class="cls-2" points="18.57 21.44 18.57 21.43 27.85 16.08 37.13 10.72"/><polygon class="cls-2" points="37.14 21.44 37.14 10.72 27.85 5.36 18.57 10.72 18.57 21.44 27.85 26.8 37.14 21.44"/><polyline class="cls-2" points="9.29 5.36 9.29 16.08 9.29 26.8"/><polyline class="cls-2" points="0.01 10.72 9.29 16.08 18.57 21.43 18.57 21.44"/><polyline class="cls-2" points="0.01 21.44 0.01 21.43 9.29 16.08 18.57 10.72"/><polygon class="cls-2" points="18.57 21.44 18.57 10.72 9.28 5.36 0 10.72 0 21.44 9.28 26.8 18.57 21.44"/><polyline class="cls-2" points="-18.56 10.72 -9.28 16.08 0 21.43 0 21.44"/><polyline class="cls-2" points="-18.56 21.44 -18.56 21.43 -9.28 16.08 0 10.72"/><polygon class="cls-2" points="0 21.44 0 10.72 -9.29 5.36 -18.57 10.72 -18.57 21.44 -9.29 26.8 0 21.44"/><polyline class="cls-2" points="18.57 -10.72 18.57 0 18.57 10.72"/><polyline class="cls-2" points="9.29 -5.36 18.57 0 27.85 5.35 27.85 5.36"/><polyline class="cls-2" points="9.29 5.36 9.29 5.35 18.57 0 27.85 -5.36"/><polygon class="cls-2" points="27.85 5.36 27.85 -5.36 18.57 -10.72 9.28 -5.36 9.28 5.36 18.57 10.72 27.85 5.36"/><polyline class="cls-2" points="0 -10.72 0 0 0 10.72"/><polyline class="cls-2" points="-9.28 -5.36 0 0 9.28 5.35 9.28 5.36"/><polyline class="cls-2" points="-9.28 5.36 -9.28 5.35 0 0 9.28 -5.36"/><polygon class="cls-2" points="9.28 5.36 9.28 -5.36 0 -10.72 -9.29 -5.36 -9.29 5.36 0 10.72 9.28 5.36"/></pattern><linearGradient id="未命名的渐变_140" x1="53.5" y1="36.18" x2="96.6" y2="36.18" gradientUnits="userSpaceOnUse"><stop offset="0" stop-color="#89abe6"/><stop offset="1" stop-color="#547099"/></linearGradient><linearGradient id="未命名的渐变_2179" x1="75.05" y1="48.66" x2="75.05" y2="23.7" gradientUnits="userSpaceOnUse"><stop offset="0" stop-color="#99beff"/><stop offset="0.01" stop-color="#99beff" stop-opacity="0.96"/><stop offset="0.05" stop-color="#99beff" stop-opacity="0.78"/><stop offset="0.09" stop-color="#99beff" stop-opacity="0.61"/><stop offset="0.14" stop-color="#99beff" stop-opacity="0.47"/><stop offset="0.2" stop-color="#99beff" stop-opacity="0.34"/><stop offset="0.25" stop-color="#99beff" stop-opacity="0.23"/><stop offset="0.32" stop-color="#99beff" stop-opacity="0.15"/><stop offset="0.4" stop-color="#99beff" stop-opacity="0.08"/><stop offset="0.49" stop-color="#99beff" stop-opacity="0.03"/><stop offset="0.63" stop-color="#99beff" stop-opacity="0.01"/><stop offset="1" stop-color="#99beff" stop-opacity="0"/></linearGradient><linearGradient id="未命名的渐变_2050" x1="51.96" y1="126.95" x2="119.66" y2="59.24" gradientUnits="userSpaceOnUse"><stop offset="0" stop-color="#283140"/><stop offset="0.34" stop-color="#232b37"/><stop offset="0.9" stop-color="#15191f"/><stop offset="1" stop-color="#12161a"/></linearGradient><linearGradient id="未命名的渐变_54" x1="98.09" y1="126.92" x2="30.42" y2="59.26" gradientUnits="userSpaceOnUse"><stop offset="0" stop-color="#425266"/><stop offset="1" stop-color="#596b8c"/></linearGradient><linearGradient id="未命名的渐变_140-2" x1="59.03" y1="34.31" x2="91.05" y2="34.31" xlink:href="#未命名的渐变_140"/><linearGradient id="未命名的渐变_2050-2" x1="76.01" y1="47.36" x2="90.05" y2="33.31" xlink:href="#未命名的渐变_2050"/><linearGradient id="未命名的渐变_54-2" x1="74.03" y1="47.34" x2="60.01" y2="33.33" xlink:href="#未命名的渐变_54"/><linearGradient id="未命名的渐变_140-3" x1="73.3" y1="20.15" x2="76.71" y2="20.15" xlink:href="#未命名的渐变_140"/><linearGradient id="未命名的渐变_2050-3" x1="73.7" y1="25.76" x2="78.01" y2="21.45" xlink:href="#未命名的渐变_2050"/><linearGradient id="未命名的渐变_54-3" x1="76.3" y1="25.76" x2="72" y2="21.45" xlink:href="#未命名的渐变_54"/><linearGradient id="未命名的渐变_140-4" x1="58.96" y1="28.35" x2="62.37" y2="28.35" xlink:href="#未命名的渐变_140"/><linearGradient id="未命名的渐变_2050-4" x1="59.36" y1="33.95" x2="63.67" y2="29.65" xlink:href="#未命名的渐变_2050"/><linearGradient id="未命名的渐变_54-4" x1="61.96" y1="33.95" x2="57.66" y2="29.65" xlink:href="#未命名的渐变_54"/><linearGradient id="未命名的渐变_140-5" x1="73.3" y1="36.54" x2="76.71" y2="36.54" xlink:href="#未命名的渐变_140"/><linearGradient id="未命名的渐变_2050-5" x1="73.7" y1="42.15" x2="78.01" y2="37.84" xlink:href="#未命名的渐变_2050"/><linearGradient id="未命名的渐变_54-5" x1="76.3" y1="42.15" x2="72" y2="37.84" xlink:href="#未命名的渐变_54"/><linearGradient id="未命名的渐变_140-6" x1="87.64" y1="28.35" x2="91.05" y2="28.35" xlink:href="#未命名的渐变_140"/><linearGradient id="未命名的渐变_2050-6" x1="88.04" y1="33.95" x2="92.35" y2="29.65" xlink:href="#未命名的渐变_2050"/><linearGradient id="未命名的渐变_54-6" x1="90.64" y1="33.95" x2="86.34" y2="29.65" xlink:href="#未命名的渐变_54"/><linearGradient id="未命名的渐变_140-7" x1="57.05" y1="25.36" x2="92.95" y2="25.36" xlink:href="#未命名的渐变_140"/><linearGradient id="未命名的渐变_2179-2" x1="75" y1="35.76" x2="75" y2="14.96" xlink:href="#未命名的渐变_2179"/><linearGradient id="未命名的渐变_2050-7" x1="76.13" y1="39.98" x2="91.87" y2="24.24" xlink:href="#未命名的渐变_2050"/><linearGradient id="未命名的渐变_54-7" x1="73.91" y1="39.97" x2="58.2" y2="24.26" xlink:href="#未命名的渐变_54"/><linearGradient id="未命名的渐变_14" x1="64.83" y1="23.27" x2="85.02" y2="23.27" gradientUnits="userSpaceOnUse"><stop offset="0" stop-color="#12161a"/><stop offset="0.1" stop-color="#15191f"/><stop offset="0.66" stop-color="#232b37"/><stop offset="1" stop-color="#283140"/></linearGradient><linearGradient id="未命名的渐变_159" x1="74.92" y1="31.26" x2="74.92" gradientUnits="userSpaceOnUse"><stop offset="0" stop-color="#2f77eb"/><stop offset="0.12" stop-color="#2c7aee" stop-opacity="0.84"/><stop offset="0.36" stop-color="#2581f4" stop-opacity="0.55"/><stop offset="0.58" stop-color="#2085f9" stop-opacity="0.31"/><stop offset="0.76" stop-color="#1c89fc" stop-opacity="0.14"/><stop offset="0.91" stop-color="#1a8bfe" stop-opacity="0.04"/><stop offset="1" stop-color="#198cff" stop-opacity="0"/></linearGradient><linearGradient id="未命名的渐变_2118" x1="74.92" y1="31.26" x2="74.92" gradientUnits="userSpaceOnUse"><stop offset="0" stop-color="#4cfafe" stop-opacity="0.8"/><stop offset="0.01" stop-color="#4bf7fe" stop-opacity="0.78"/><stop offset="0.05" stop-color="#40e1fe" stop-opacity="0.62"/><stop offset="0.1" stop-color="#37ccfe" stop-opacity="0.47"/><stop offset="0.16" stop-color="#2fbbff" stop-opacity="0.34"/><stop offset="0.22" stop-color="#28acff" stop-opacity="0.23"/><stop offset="0.29" stop-color="#22a0ff" stop-opacity="0.15"/><stop offset="0.37" stop-color="#1e97ff" stop-opacity="0.08"/><stop offset="0.47" stop-color="#1b91ff" stop-opacity="0.03"/><stop offset="0.61" stop-color="#198dff" stop-opacity="0.01"/><stop offset="1" stop-color="#198cff" stop-opacity="0"/></linearGradient><linearGradient id="未命名的渐变_181" x1="64.83" y1="23.27" x2="85.02" y2="23.27" gradientUnits="userSpaceOnUse"><stop offset="0" stop-color="#bff4ff"/><stop offset="1" stop-color="#19d9ff"/></linearGradient><linearGradient id="未命名的渐变_175" x1="64.95" y1="23.9" x2="84.91" y2="23.9" gradientUnits="userSpaceOnUse"><stop offset="0" stop-color="#198cff"/><stop offset="1" stop-color="#143ccc"/></linearGradient></defs><title>建筑4</title><g class="cls-3"><g id="图层_2" data-name="图层 2"><g id="图元"><g id="建筑4"><g class="cls-4"><rect class="cls-5" width="150" height="150"/><rect id="网格" class="cls-6" width="150" height="150"/></g><polygon class="cls-7" points="74.99 23.7 53.5 36.18 75.12 48.66 96.61 36.18 74.99 23.7"/><path class="cls-8" d="M75,24,96.11,36.18l-21,12.2L54,36.18,75,24m0-.29L53.5,36.18,75.12,48.66,96.6,36.18,75,23.7Z"/><polygon class="cls-9" points="96.6 36.18 96.5 137.52 75.01 150 75.12 49.64 75.12 48.67 96.5 36.24 96.6 36.18"/><polygon class="cls-10" points="75.12 48.67 75.12 49.64 75.01 150 53.4 137.52 53.5 37.28 53.5 36.18 75.01 48.61 75.12 48.67"/><polygon class="cls-11" points="75.12 48.67 75.01 48.61 53.5 36.18 53.5 37.28 75.01 49.7 75.12 49.64 96.5 37.21 96.5 36.24 75.12 48.67"/><polygon class="cls-12" points="56.37 133.5 55.37 132.92 55.37 41.38 56.37 41.96 56.37 133.5"/><polygon class="cls-13" points="56.37 76.13 55.37 75.55 55.37 73.65 56.37 74.22 56.37 76.13"/><polygon class="cls-12" points="60.57 135.92 59.57 135.34 59.57 43.8 60.57 44.38 60.57 135.92"/><polygon class="cls-13" points="60.57 96.63 59.57 96.05 59.57 92.78 60.57 93.36 60.57 96.63"/><polygon class="cls-13" points="60.57 55.55 59.57 54.97 59.57 53.06 60.57 53.64 60.57 55.55"/><polygon class="cls-12" points="64.76 138.34 63.76 137.76 63.76 46.22 64.76 46.8 64.76 138.34"/><polygon class="cls-13" points="64.76 107.07 63.76 106.49 63.76 104.45 64.76 105.03 64.76 107.07"/><polygon class="cls-13" points="64.76 85.49 63.76 84.91 63.76 82.19 64.76 82.76 64.76 85.49"/><polygon class="cls-12" points="68.96 140.76 67.96 140.19 67.96 48.65 68.96 49.22 68.96 140.76"/><polygon class="cls-13" points="68.96 118.97 67.96 118.39 67.96 116.35 68.96 116.92 68.96 118.97"/><polygon class="cls-13" points="68.96 74.89 67.96 74.31 67.96 71.59 68.96 72.17 68.96 74.89"/><polygon class="cls-12" points="73.15 143.18 72.15 142.61 72.15 51.07 73.15 51.65 73.15 143.18"/><polygon class="cls-13" points="73.15 134.81 72.15 134.23 72.15 132.19 73.15 132.76 73.15 134.81"/><g class="cls-14"><polygon class="cls-15" points="77.91 51.07 76.91 51.65 76.91 143.18 77.91 142.61 77.91 51.07"/></g><polygon class="cls-13" points="77.91 108.43 76.91 109.01 76.91 110.92 77.91 110.34 77.91 108.43"/><g class="cls-14"><polygon class="cls-15" points="82.11 48.65 81.11 49.22 81.11 140.76 82.11 140.19 82.11 48.65"/></g><polygon class="cls-13" points="82.11 87.94 81.11 88.51 81.11 91.78 82.11 91.2 82.11 87.94"/><polygon class="cls-13" points="82.11 129.01 81.11 129.59 81.11 131.5 82.11 130.92 82.11 129.01"/><g class="cls-14"><polygon class="cls-15" points="86.31 46.22 85.31 46.8 85.31 138.34 86.31 137.76 86.31 46.22"/></g><polygon class="cls-13" points="86.31 77.49 85.31 78.07 85.31 80.12 86.31 79.54 86.31 77.49"/><polygon class="cls-13" points="86.31 99.08 85.31 99.65 85.31 102.38 86.31 101.8 86.31 99.08"/><g class="cls-14"><polygon class="cls-15" points="90.5 43.8 89.5 44.38 89.5 135.92 90.5 135.34 90.5 43.8"/></g><polygon class="cls-13" points="90.5 65.6 89.5 66.17 89.5 68.22 90.5 67.64 90.5 65.6"/><polygon class="cls-13" points="90.5 109.67 89.5 110.25 89.5 112.97 90.5 112.4 90.5 109.67"/><polygon class="cls-16" points="94.7 41.38 93.7 41.96 93.7 133.5 94.7 132.92 94.7 41.38"/><polygon class="cls-13" points="94.7 49.76 93.7 50.33 93.7 52.38 94.7 51.8 94.7 49.76"/><polygon class="cls-17" points="74.99 25.04 59.03 34.31 75.09 43.59 91.05 34.31 74.99 25.04"/><polygon class="cls-18" points="75.09 43.59 75.01 46.36 90.97 37.08 91.05 34.31 75.09 43.59"/><polygon class="cls-19" points="59.03 34.31 58.95 37.08 75.01 46.36 75.09 43.59 59.03 34.31"/><polygon class="cls-20" points="75 19.16 73.3 20.16 75.01 21.14 76.71 20.15 75 19.16"/><polygon class="cls-21" points="75.01 21.14 75 27.06 76.7 26.07 76.71 20.15 75.01 21.14"/><polygon class="cls-22" points="73.3 20.16 73.29 26.07 75 27.06 75.01 21.14 73.3 20.16"/><polygon class="cls-23" points="60.66 27.36 58.95 28.35 60.67 29.34 62.37 28.35 60.66 27.36"/><polygon class="cls-24" points="60.67 29.34 60.66 35.25 62.36 34.26 62.37 28.35 60.67 29.34"/><polygon class="cls-25" points="58.95 28.35 58.95 34.26 60.66 35.25 60.67 29.34 58.95 28.35"/><polygon class="cls-26" points="75 35.55 73.3 36.54 75.01 37.53 76.71 36.54 75 35.55"/><polygon class="cls-27" points="75.01 37.53 75 43.45 76.7 42.46 76.71 36.54 75.01 37.53"/><polygon class="cls-28" points="73.3 36.54 73.29 42.46 75 43.45 75.01 37.53 73.3 36.54"/><polygon class="cls-29" points="89.34 27.36 87.64 28.35 89.35 29.34 91.05 28.35 89.34 27.36"/><polygon class="cls-30" points="89.35 29.34 89.34 35.25 91.04 34.26 91.05 28.35 89.35 29.34"/><polygon class="cls-31" points="87.64 28.35 87.63 34.26 89.34 35.25 89.35 29.34 87.64 28.35"/><path id="_路径_" data-name="&lt;路径&gt;" class="cls-32" d="M74.94,15,57.05,25.36l8.15,4.71,7,4.06,2.82,1.63,2.87-1.67,6.64-3.86L93,25.36Zm7.15,14.59a15.76,15.76,0,0,1-14.28,0,6.19,6.19,0,0,1-2.63-2.63,6.26,6.26,0,0,1,2.58-2.56,15.76,15.76,0,0,1,14.28,0A6.21,6.21,0,0,1,84.66,27,6.17,6.17,0,0,1,82.09,29.55Z"/><g id="_路径_2" data-name="&lt;路径&gt;"><path class="cls-33" d="M74.94,15.25,92.45,25.36l-8,4.65-6.64,3.86-2.75,1.6-2.7-1.56-7-4-7.77-4.5L74.94,15.25m0,16.26a14.77,14.77,0,0,0,7.26-1.74,6.47,6.47,0,0,0,2.67-2.68l0-.1,0-.11a6.52,6.52,0,0,0-2.73-2.74,14.84,14.84,0,0,0-7.28-1.74,14.62,14.62,0,0,0-7.25,1.75A6.42,6.42,0,0,0,65,26.82l0,.1L65,27a6.55,6.55,0,0,0,2.74,2.74A14.83,14.83,0,0,0,75,31.51m0-16.55L57.05,25.36l8.15,4.71,7,4.06,2.82,1.63,2.87-1.67,6.64-3.86L93,25.36,74.94,15Zm0,16.3a14.65,14.65,0,0,1-7.15-1.71,6.19,6.19,0,0,1-2.63-2.63,6.26,6.26,0,0,1,2.58-2.56,14.48,14.48,0,0,1,7.12-1.71A14.66,14.66,0,0,1,82,24.36,6.21,6.21,0,0,1,84.66,27a6.17,6.17,0,0,1-2.57,2.56A14.49,14.49,0,0,1,75,31.26Z"/></g><polygon class="cls-34" points="75.1 35.76 75.01 38.87 92.9 28.47 92.99 25.36 75.1 35.76"/><polygon class="cls-35" points="57.1 25.36 57.01 28.47 75.01 38.87 75.1 35.76 57.1 25.36"/><path class="cls-36" d="M85,25.44A3.62,3.62,0,0,1,84.66,27,6.21,6.21,0,0,0,82,24.36a15.76,15.76,0,0,0-14.28,0,6.26,6.26,0,0,0-2.58,2.56,3.59,3.59,0,0,1-.35-1.52v0c0-1.49,1-3,2.94-4.1a15.68,15.68,0,0,1,14.27,0C84,22.42,85,23.94,85,25.44Z"/><g id="光"><path class="cls-37" d="M85,0V25.45c0,1.49-1,3-2.94,4.11a8.94,8.94,0,0,1-1.12.55,16.35,16.35,0,0,1-12.09,0,9.59,9.59,0,0,1-1.06-.54c-2-1.16-3-2.66-3-4.17V0Z"/><path class="cls-38" d="M85,0V25.45c0,1.49-1,3-2.94,4.11a8.94,8.94,0,0,1-1.12.55,16.35,16.35,0,0,1-12.09,0,9.59,9.59,0,0,1-1.06-.54c-2-1.16-3-2.66-3-4.17V0Z"/><path class="cls-39" d="M85,25.44A3.62,3.62,0,0,1,84.66,27,6.21,6.21,0,0,0,82,24.36a15.76,15.76,0,0,0-14.28,0,6.26,6.26,0,0,0-2.58,2.56,3.59,3.59,0,0,1-.35-1.52v0c0-1.49,1-3,2.94-4.1a15.68,15.68,0,0,1,14.27,0C84,22.42,85,23.94,85,25.44Z"/><path class="cls-40" d="M84.91,26.3a1.21,1.21,0,0,1,0,.18A5.75,5.75,0,0,0,82,23.36a15.74,15.74,0,0,0-14.27,0A5.64,5.64,0,0,0,65,26.43a.49.49,0,0,1,0-.16A5.56,5.56,0,0,1,67.77,23,15.68,15.68,0,0,1,82,23,5.64,5.64,0,0,1,84.91,26.3Z"/></g></g></g></g></g></svg>