<svg xmlns="http://www.w3.org/2000/svg" xmlns:xlink="http://www.w3.org/1999/xlink" viewBox="0 0 150 150"><defs><style>.cls-1,.cls-2,.cls-3,.cls-32{stroke:#5ac8f7;stroke-linejoin:round;stroke-width:0.25px;}.cls-1,.cls-30{fill:url(#未命名的渐变_2519);}.cls-2,.cls-33{fill:url(#未命名的渐变_16);}.cls-3,.cls-35{fill:url(#未命名的渐变_16-2);}.cls-28,.cls-32,.cls-4,.cls-5{fill:none;}.cls-5{stroke:#fff;stroke-width:0.1px;}.cls-28,.cls-5{stroke-miterlimit:10;}.cls-29,.cls-6{isolation:isolate;}.cls-7{opacity:0;}.cls-8{fill:#000714;}.cls-9{opacity:0.1;fill:url(#新建图案);}.cls-10{fill:url(#未命名的渐变_159);}.cls-11{fill:url(#未命名的渐变_2118);}.cls-12{fill:url(#未命名的渐变_54);}.cls-13,.cls-17{fill:#242d3a;}.cls-14{fill:#4cfafe;}.cls-15{fill:url(#未命名的渐变_79);}.cls-16,.cls-17,.cls-26{mix-blend-mode:multiply;}.cls-18{fill:url(#未命名的渐变_79-2);}.cls-19{fill:url(#未命名的渐变_54-2);}.cls-20{fill:url(#未命名的渐变_140);}.cls-21{fill:url(#未命名的渐变_2191);}.cls-22{fill:url(#未命名的渐变_79-3);}.cls-23{fill:url(#未命名的渐变_54-3);}.cls-24{fill:url(#未命名的渐变_54-4);}.cls-25{fill:url(#未命名的渐变_54-5);}.cls-26{opacity:0.3;}.cls-27{fill:url(#未命名的渐变_79-4);}.cls-28{stroke:#4cfafe;stroke-width:0.5px;}.cls-29{opacity:0.2;}.cls-31{clip-path:url(#clip-path);}.cls-34{clip-path:url(#clip-path-2);}.cls-36{clip-path:url(#clip-path-3);}.cls-37{fill:url(#未命名的渐变_140-2);}.cls-38{fill:url(#未命名的渐变_2191-2);}.cls-39{fill:url(#未命名的渐变_79-5);}.cls-40{fill:url(#未命名的渐变_54-6);}.cls-41{fill:url(#未命名的渐变_140-3);}.cls-42{fill:url(#未命名的渐变_79-6);}.cls-43{fill:url(#未命名的渐变_54-7);}.cls-44{fill:url(#未命名的渐变_54-8);}.cls-45{fill:url(#未命名的渐变_79-7);}.cls-46{fill:url(#未命名的渐变_2048);}.cls-47{fill:url(#未命名的渐变_2048-2);}.cls-48{fill:url(#未命名的渐变_17174);}.cls-49{fill:url(#未命名的渐变_140-4);}.cls-50{fill:url(#未命名的渐变_17283);}.cls-51{fill:url(#未命名的渐变_560);}.cls-52{fill:url(#未命名的渐变_2118-2);}.cls-53{opacity:0.2;}</style><linearGradient id="未命名的渐变_2519" x1="85.72" y1="71.75" x2="69.46" y2="55.5" gradientUnits="userSpaceOnUse"><stop offset="0" stop-color="#5ac8f7" stop-opacity="0.6"/><stop offset="1" stop-color="#2a6aaf" stop-opacity="0"/></linearGradient><linearGradient id="未命名的渐变_16" x1="61.55" y1="63.85" x2="77.33" y2="48.07" gradientUnits="userSpaceOnUse"><stop offset="0" stop-color="#2a6aaf" stop-opacity="0"/><stop offset="1" stop-color="#5ac8f7" stop-opacity="0.6"/></linearGradient><linearGradient id="未命名的渐变_16-2" x1="82.49" y1="59.16" x2="88.91" y2="52.75" xlink:href="#未命名的渐变_16"/><pattern id="新建图案" data-name="新建图案" width="18.57" height="32.16" patternTransform="translate(1619.13 1003.01)" patternUnits="userSpaceOnUse" viewBox="0 0 18.57 32.16"><rect class="cls-4" width="18.57" height="32.16"/><polyline class="cls-5" points="18.57 21.44 18.57 32.16 18.57 42.88"/><polyline class="cls-5" points="9.29 26.8 18.57 32.16 27.85 37.51 27.85 37.52"/><polyline class="cls-5" points="9.29 37.52 9.29 37.51 18.57 32.16 27.85 26.8"/><polygon class="cls-5" points="27.85 37.52 27.85 26.8 18.57 21.44 9.28 26.8 9.28 37.52 18.57 42.88 27.85 37.52"/><polyline class="cls-5" points="0 21.44 0 32.16 0 42.88"/><polyline class="cls-5" points="-9.28 26.8 0 32.16 9.28 37.51 9.28 37.52"/><polyline class="cls-5" points="-9.28 37.52 -9.28 37.51 0 32.16 9.28 26.8"/><polygon class="cls-5" points="9.28 37.52 9.28 26.8 0 21.44 -9.29 26.8 -9.29 37.52 0 42.88 9.28 37.52"/><polyline class="cls-5" points="18.57 10.72 27.85 16.08 37.13 21.43 37.13 21.44"/><polyline class="cls-5" points="18.57 21.44 18.57 21.43 27.85 16.08 37.13 10.72"/><polygon class="cls-5" points="37.14 21.44 37.14 10.72 27.85 5.36 18.57 10.72 18.57 21.44 27.85 26.8 37.14 21.44"/><polyline class="cls-5" points="9.29 5.36 9.29 16.08 9.29 26.8"/><polyline class="cls-5" points="0.01 10.72 9.29 16.08 18.57 21.43 18.57 21.44"/><polyline class="cls-5" points="0.01 21.44 0.01 21.43 9.29 16.08 18.57 10.72"/><polygon class="cls-5" points="18.57 21.44 18.57 10.72 9.28 5.36 0 10.72 0 21.44 9.28 26.8 18.57 21.44"/><polyline class="cls-5" points="-18.56 10.72 -9.28 16.08 0 21.43 0 21.44"/><polyline class="cls-5" points="-18.56 21.44 -18.56 21.43 -9.28 16.08 0 10.72"/><polygon class="cls-5" points="0 21.44 0 10.72 -9.29 5.36 -18.57 10.72 -18.57 21.44 -9.29 26.8 0 21.44"/><polyline class="cls-5" points="18.57 -10.72 18.57 0 18.57 10.72"/><polyline class="cls-5" points="9.29 -5.36 18.57 0 27.85 5.35 27.85 5.36"/><polyline class="cls-5" points="9.29 5.36 9.29 5.35 18.57 0 27.85 -5.36"/><polygon class="cls-5" points="27.85 5.36 27.85 -5.36 18.57 -10.72 9.28 -5.36 9.28 5.36 18.57 10.72 27.85 5.36"/><polyline class="cls-5" points="0 -10.72 0 0 0 10.72"/><polyline class="cls-5" points="-9.28 -5.36 0 0 9.28 5.35 9.28 5.36"/><polyline class="cls-5" points="-9.28 5.36 -9.28 5.35 0 0 9.28 -5.36"/><polygon class="cls-5" points="9.28 5.36 9.28 -5.36 0 -10.72 -9.29 -5.36 -9.29 5.36 0 10.72 9.28 5.36"/></pattern><linearGradient id="未命名的渐变_159" x1="90.75" y1="56.21" x2="90.75" y2="25.92" gradientTransform="matrix(1, 0.58, 0, 1, 0, -52.31)" gradientUnits="userSpaceOnUse"><stop offset="0" stop-color="#2f77eb"/><stop offset="0.12" stop-color="#2c7aee" stop-opacity="0.84"/><stop offset="0.36" stop-color="#2581f4" stop-opacity="0.55"/><stop offset="0.58" stop-color="#2085f9" stop-opacity="0.31"/><stop offset="0.76" stop-color="#1c89fc" stop-opacity="0.14"/><stop offset="0.91" stop-color="#1a8bfe" stop-opacity="0.04"/><stop offset="1" stop-color="#198cff" stop-opacity="0"/></linearGradient><linearGradient id="未命名的渐变_2118" x1="90.75" y1="56.21" x2="90.75" y2="25.92" gradientTransform="matrix(1, 0.58, 0, 1, 0, -52.31)" gradientUnits="userSpaceOnUse"><stop offset="0" stop-color="#4cfafe" stop-opacity="0.8"/><stop offset="0.01" stop-color="#4bf7fe" stop-opacity="0.78"/><stop offset="0.05" stop-color="#40e1fe" stop-opacity="0.62"/><stop offset="0.1" stop-color="#37ccfe" stop-opacity="0.47"/><stop offset="0.16" stop-color="#2fbbff" stop-opacity="0.34"/><stop offset="0.22" stop-color="#28acff" stop-opacity="0.23"/><stop offset="0.29" stop-color="#22a0ff" stop-opacity="0.15"/><stop offset="0.37" stop-color="#1e97ff" stop-opacity="0.08"/><stop offset="0.47" stop-color="#1b91ff" stop-opacity="0.03"/><stop offset="0.61" stop-color="#198dff" stop-opacity="0.01"/><stop offset="1" stop-color="#198cff" stop-opacity="0"/></linearGradient><linearGradient id="未命名的渐变_54" x1="115.86" y1="126.44" x2="73.02" y2="83.6" gradientUnits="userSpaceOnUse"><stop offset="0" stop-color="#425266"/><stop offset="1" stop-color="#596b8c"/></linearGradient><linearGradient id="未命名的渐变_79" x1="95.15" y1="141.03" x2="145.07" y2="91.11" gradientUnits="userSpaceOnUse"><stop offset="0" stop-color="#283140"/><stop offset="0.34" stop-color="#232b37"/><stop offset="0.9" stop-color="#15191f"/><stop offset="1" stop-color="#12161a"/></linearGradient><linearGradient id="未命名的渐变_79-2" x1="66.31" y1="113.93" x2="94.77" y2="85.47" xlink:href="#未命名的渐变_79"/><linearGradient id="未命名的渐变_54-2" x1="70.5" y1="100.23" x2="27.65" y2="57.38" xlink:href="#未命名的渐变_54"/><linearGradient id="未命名的渐变_140" x1="14.03" y1="65.35" x2="136.11" y2="65.35" gradientUnits="userSpaceOnUse"><stop offset="0" stop-color="#89abe6"/><stop offset="1" stop-color="#547099"/></linearGradient><linearGradient id="未命名的渐变_2191" x1="67.08" y1="79.19" x2="83.06" y2="51.52" gradientUnits="userSpaceOnUse"><stop offset="0" stop-color="#99beff"/><stop offset="0.02" stop-color="#99beff" stop-opacity="0.93"/><stop offset="0.09" stop-color="#99beff" stop-opacity="0.74"/><stop offset="0.17" stop-color="#99beff" stop-opacity="0.56"/><stop offset="0.25" stop-color="#99beff" stop-opacity="0.41"/><stop offset="0.33" stop-color="#99beff" stop-opacity="0.28"/><stop offset="0.43" stop-color="#99beff" stop-opacity="0.18"/><stop offset="0.53" stop-color="#99beff" stop-opacity="0.1"/><stop offset="0.64" stop-color="#99beff" stop-opacity="0.04"/><stop offset="0.77" stop-color="#99beff" stop-opacity="0.01"/><stop offset="1" stop-color="#99beff" stop-opacity="0"/></linearGradient><linearGradient id="未命名的渐变_79-3" x1="13.77" y1="93.2" x2="48.54" y2="58.43" xlink:href="#未命名的渐变_79"/><linearGradient id="未命名的渐变_54-3" x1="35.97" y1="92.95" x2="2.81" y2="59.79" xlink:href="#未命名的渐变_54"/><linearGradient id="未命名的渐变_54-4" x1="88.14" y1="115.72" x2="45.99" y2="73.57" xlink:href="#未命名的渐变_54"/><linearGradient id="未命名的渐变_54-5" x1="115.34" y1="138.78" x2="82.17" y2="105.6" xlink:href="#未命名的渐变_54"/><linearGradient id="未命名的渐变_79-4" x1="70.05" y1="85.43" x2="62.63" y2="78.02" xlink:href="#未命名的渐变_79"/><clipPath id="clip-path"><polygon class="cls-1" points="93.85 63.63 77.64 73.04 61.33 63.63 77.54 54.21 93.85 63.63"/></clipPath><clipPath id="clip-path-2"><polygon class="cls-2" points="61.35 57.7 77.55 48.29 77.54 54.21 61.33 63.63 61.35 57.7"/></clipPath><clipPath id="clip-path-3"><polygon class="cls-3" points="77.55 48.29 93.87 57.7 93.85 63.63 77.54 54.21 77.55 48.29"/></clipPath><linearGradient id="未命名的渐变_140-2" x1="61.35" y1="57.7" x2="93.87" y2="57.7" xlink:href="#未命名的渐变_140"/><linearGradient id="未命名的渐变_2191-2" x1="77.61" y1="67.12" x2="77.61" y2="48.29" xlink:href="#未命名的渐变_2191"/><linearGradient id="未命名的渐变_79-5" x1="77.86" y1="73.27" x2="93.65" y2="57.48" xlink:href="#未命名的渐变_79"/><linearGradient id="未命名的渐变_54-6" x1="77.4" y1="73.28" x2="61.59" y2="57.46" xlink:href="#未命名的渐变_54"/><linearGradient id="未命名的渐变_140-3" x1="68.11" y1="23.45" x2="87.1" y2="23.45" xlink:href="#未命名的渐变_140"/><linearGradient id="未命名的渐变_79-6" x1="70.12" y1="55.43" x2="94.61" y2="30.95" xlink:href="#未命名的渐变_79"/><linearGradient id="未命名的渐变_54-7" x1="85.12" y1="55.45" x2="60.61" y2="30.94" xlink:href="#未命名的渐变_54"/><linearGradient id="未命名的渐变_54-8" x1="62.04" y1="162.38" x2="72.77" y2="156.19" gradientTransform="matrix(1, 0.58, 0, 1, 0, -81.78)" xlink:href="#未命名的渐变_54"/><linearGradient id="未命名的渐变_79-7" x1="60.09" y1="115.34" x2="69.74" y2="98.63" xlink:href="#未命名的渐变_79"/><linearGradient id="未命名的渐变_2048" x1="77.56" y1="24.03" x2="77.56" y2="21.11" gradientUnits="userSpaceOnUse"><stop offset="0" stop-color="#4f607b"/><stop offset="1" stop-color="#89abe6"/></linearGradient><linearGradient id="未命名的渐变_2048-2" x1="77.56" y1="27.41" x2="77.56" y2="16.75" xlink:href="#未命名的渐变_2048"/><linearGradient id="未命名的渐变_17174" x1="77.04" y1="12.35" x2="78.18" y2="12.35" gradientUnits="userSpaceOnUse"><stop offset="0" stop-color="#283140"/><stop offset="0.2" stop-color="#7a98cc"/><stop offset="0.9" stop-color="#12161a"/><stop offset="1" stop-color="#283140"/></linearGradient><linearGradient id="未命名的渐变_140-4" x1="77.94" y1="7.73" x2="77.28" y2="7.07" xlink:href="#未命名的渐变_140"/><linearGradient id="未命名的渐变_17283" x1="74.96" y1="11.2" x2="77.5" y2="8.67" gradientUnits="userSpaceOnUse"><stop offset="0" stop-color="#2f77eb"/><stop offset="1" stop-color="#59c8ff"/></linearGradient><linearGradient id="未命名的渐变_560" x1="60.43" y1="75.44" x2="89.57" y2="24.98" gradientUnits="userSpaceOnUse"><stop offset="0" stop-color="#2f77eb"/><stop offset="0.03" stop-color="#2c7aee" stop-opacity="0.84"/><stop offset="0.08" stop-color="#287ef2" stop-opacity="0.67"/><stop offset="0.13" stop-color="#2481f5" stop-opacity="0.51"/><stop offset="0.18" stop-color="#2184f8" stop-opacity="0.37"/><stop offset="0.24" stop-color="#1f87fa" stop-opacity="0.25"/><stop offset="0.31" stop-color="#1d89fc" stop-opacity="0.16"/><stop offset="0.39" stop-color="#1b8afd" stop-opacity="0.09"/><stop offset="0.48" stop-color="#1a8bfe" stop-opacity="0.04"/><stop offset="0.62" stop-color="#198cff" stop-opacity="0.01"/><stop offset="1" stop-color="#198cff" stop-opacity="0"/></linearGradient><linearGradient id="未命名的渐变_2118-2" x1="60.43" y1="75.44" x2="89.57" y2="24.98" gradientTransform="matrix(1, 0, 0, 1, 0, 0)" xlink:href="#未命名的渐变_2118"/></defs><title>建筑2</title><g class="cls-6"><g id="图层_2" data-name="图层 2"><g id="图元"><g id="建筑2"><g class="cls-7"><rect class="cls-8" width="150" height="150"/><rect id="网格" class="cls-9" width="150" height="150"/></g><polygon class="cls-10" points="135.79 82.3 45.71 30.29 45.71 0 135.79 52.01 135.79 82.3"/><polygon class="cls-11" points="135.79 82.3 45.71 30.29 45.71 0 135.79 52.01 135.79 82.3"/><polygon class="cls-12" points="105.94 136.35 104.16 135.32 93.3 129.06 82.82 123 82.95 75.6 82.96 73.65 93.31 79.63 104.17 85.9 105.95 86.93 105.94 136.35"/><polygon class="cls-13" points="104.98 101.08 69.23 80.44 69.23 79.49 104.98 100.13 104.98 101.08"/><polygon class="cls-14" points="79.2 86.2 77.52 85.23 77.52 84.28 79.2 85.25 79.2 86.2"/><polygon class="cls-13" points="104.98 110.17 69.23 89.53 69.23 88.57 104.98 109.21 104.98 110.17"/><polygon class="cls-14" points="85.42 98.88 83.74 97.9 83.74 96.95 85.42 97.92 85.42 98.88"/><polygon class="cls-13" points="104.98 119.25 69.23 98.61 69.23 97.66 104.98 118.3 104.98 119.25"/><polygon class="cls-14" points="91.55 111.5 89.87 110.53 89.87 109.58 91.55 110.55 91.55 111.5"/><polygon class="cls-13" points="104.98 128.34 69.23 107.7 69.23 106.75 104.98 127.39 104.98 128.34"/><polygon class="cls-14" points="87.1 118.02 85.42 117.05 85.42 116.09 87.1 117.07 87.1 118.02"/><polygon class="cls-15" points="136.11 82.14 136.08 93.19 136.07 95.09 136.05 102.28 136.04 104.19 136.02 111.39 136.02 113.3 136 120.49 136 122.39 135.97 131.5 104.12 150 104.15 140.79 104.15 138.88 104.16 135.32 104.17 131.69 104.18 129.78 104.19 122.58 104.2 120.68 104.22 113.5 104.22 111.58 104.24 102.44 104.25 100.65 106.05 99.61 135.98 82.22 136.11 82.14"/><g class="cls-16"><polygon class="cls-13" points="136 121.44 136 122.39 112.92 135.72 112.92 135.73 111.23 136.7 102.94 141.48 102.94 140.53 111.23 135.75 112.92 134.77 136 121.44"/></g><polygon class="cls-14" points="112.91 134.77 111.23 135.74 111.23 136.69 112.91 135.72 112.91 134.77"/><polygon class="cls-17" points="136.02 112.34 136.02 113.3 119.13 123.05 117.44 124.02 102.94 132.4 102.94 131.45 117.44 123.07 119.13 122.1 136.02 112.34"/><polygon class="cls-14" points="119.13 122.1 117.44 123.07 117.44 124.02 119.13 123.05 119.13 122.1"/><polygon class="cls-17" points="136.05 103.23 136.04 104.19 125.26 110.43 123.58 111.39 123.58 111.4 102.94 123.31 102.94 122.36 123.58 110.44 125.26 109.47 136.05 103.23"/><polygon class="cls-14" points="125.26 109.47 123.58 110.44 123.58 111.39 125.26 110.42 125.26 109.47"/><polygon class="cls-17" points="136.08 94.14 136.07 95.09 120.81 103.91 104.22 113.5 102.94 114.23 102.94 113.28 104.22 112.53 119.13 103.93 120.81 102.96 136.08 94.14"/><polygon class="cls-14" points="120.81 102.95 119.13 103.92 119.13 104.88 120.81 103.9 120.81 102.95"/><polygon class="cls-18" points="82.96 73.65 82.82 123 78.12 125.74 78.25 78.18 78.26 76.39 82.83 73.73 82.96 73.65"/><polygon class="cls-19" points="60.71 60.81 60.56 110.16 37.44 96.8 37.56 49.39 37.57 47.46 60.57 60.73 60.71 60.81"/><polygon class="cls-13" points="66.95 79.24 31.2 58.6 31.2 57.65 66.95 78.28 66.95 79.24"/><polygon class="cls-14" points="41.17 64.36 39.49 63.39 39.49 62.43 41.17 63.41 41.17 64.36"/><polygon class="cls-13" points="66.95 88.32 31.2 67.68 31.2 66.73 66.95 87.37 66.95 88.32"/><polygon class="cls-14" points="47.39 77.03 45.71 76.06 45.71 75.11 47.39 76.08 47.39 77.03"/><polygon class="cls-13" points="66.95 97.41 31.2 76.77 31.2 75.82 66.95 96.46 66.95 97.41"/><polygon class="cls-14" points="53.52 89.66 51.84 88.69 51.84 87.73 53.52 88.71 53.52 89.66"/><polygon class="cls-13" points="66.95 106.5 31.2 85.86 31.2 84.9 66.95 105.54 66.95 106.5"/><polygon class="cls-14" points="49.07 96.18 47.39 95.21 47.39 94.25 49.07 95.22 49.07 96.18"/><polygon class="cls-20" points="102.12 62.52 79.87 49.67 45.88 30.05 14.03 48.56 24.89 54.83 37.58 47.45 60.7 60.81 56 63.54 78.26 76.39 82.96 73.66 106.08 87.01 93.39 94.38 104.26 100.65 136.11 82.14 102.12 62.52"/><path class="cls-21" d="M45.88,30.34,79.74,49.89,102,62.74l33.61,19.4-31.35,18.22-10.37-6,12.32-7.16.37-.21-.37-.22L83.09,73.44,83,73.37l-.12.07L78.26,76.1,56.5,63.54,60.83,61l.37-.21-.37-.22L37.7,47.24l-.13-.07-.12.07-12.56,7.3-10.36-6L45.88,30.34m0-.29L14,48.56l10.86,6.27,12.68-7.38L60.7,60.81,56,63.54,78.26,76.39,83,73.66,106.08,87,93.4,94.38l10.86,6.27,31.85-18.51-34-19.62L79.87,49.67l-34-19.62Z"/><polygon class="cls-22" points="37.57 47.46 37.44 96.8 24.74 104.17 24.88 56.62 24.89 54.83 37.45 47.53 37.57 47.46"/><polygon class="cls-23" points="24.89 54.83 24.88 56.62 24.74 104.17 13.89 97.92 14.02 50.5 14.03 48.56 24.75 54.75 24.89 54.83"/><polygon class="cls-24" points="78.26 76.39 78.12 125.74 55.87 112.89 56 65.48 56.01 63.54 78.13 76.31 78.26 76.39"/><polygon class="cls-25" points="104.25 100.65 104.24 102.44 104.16 135.32 104.12 150 93.26 143.73 93.3 129.06 93.38 96.32 93.39 94.38 104.13 100.57 104.25 100.65"/><polygon class="cls-26" points="105.93 86.96 105.93 87.09 104.37 88 104.14 87.87 93.28 81.6 82.93 75.63 82.94 73.68 93.29 79.66 104.15 85.93 105.93 86.96"/><polygon class="cls-26" points="135.98 82.22 135.97 84 106.05 101.4 104.24 102.44 104.12 102.52 104.13 100.57 104.25 100.65 106.05 99.61 135.98 82.22"/><polygon class="cls-26" points="82.83 73.73 82.82 75.52 78.25 78.18 78.26 76.39 82.83 73.73"/><polygon class="cls-26" points="60.57 60.73 60.57 60.88 59.03 61.78 37.56 49.39 37.57 47.46 60.57 60.73"/><polygon class="cls-26" points="37.45 47.53 37.44 49.32 24.88 56.62 24.74 56.69 24.75 54.75 24.89 54.83 37.45 47.53"/><polygon class="cls-26" points="24.75 54.75 24.74 56.69 14.02 50.5 14.03 48.56 24.75 54.75"/><polygon class="cls-26" points="78.13 76.31 78.12 78.26 56 65.48 56.01 63.54 78.13 76.31"/><polygon class="cls-26" points="104.13 100.57 104.12 102.52 93.38 96.32 93.39 94.38 104.13 100.57"/><path class="cls-27" d="M67.88,86.64a3.58,3.58,0,0,1-1.79-.54,8,8,0,0,1-3.68-6.37c0-1.78.94-2.92,2.39-2.92a3.58,3.58,0,0,1,1.79.54,8,8,0,0,1,3.68,6.37C70.26,85.5,69.32,86.64,67.88,86.64Z"/><path class="cls-17" d="M66.35,77.76a7.55,7.55,0,0,1,3.44,6c0,2.19-1.55,3.07-3.46,2a7.56,7.56,0,0,1-3.44-6C62.89,77.54,64.44,76.65,66.35,77.76Z"/><polyline class="cls-28" points="66.34 79.49 66.34 81.94 67.66 83.26"/><g class="cls-29"><polygon class="cls-30" points="93.85 63.63 77.64 73.04 61.33 63.63 77.54 54.21 93.85 63.63"/><g class="cls-31"><polygon class="cls-1" points="93.85 63.63 77.64 73.04 61.33 63.63 77.54 54.21 93.85 63.63"/></g><polygon class="cls-32" points="93.85 63.63 77.64 73.04 61.33 63.63 77.54 54.21 93.85 63.63"/></g><g class="cls-29"><polygon class="cls-33" points="61.35 57.7 77.55 48.29 77.54 54.21 61.33 63.63 61.35 57.7"/><g class="cls-34"><polygon class="cls-2" points="61.35 57.7 77.55 48.29 77.54 54.21 61.33 63.63 61.35 57.7"/></g><polygon class="cls-32" points="61.35 57.7 77.55 48.29 77.54 54.21 61.33 63.63 61.35 57.7"/></g><g class="cls-29"><polygon class="cls-35" points="77.55 48.29 93.87 57.7 93.85 63.63 77.54 54.21 77.55 48.29"/><g class="cls-36"><polygon class="cls-3" points="77.55 48.29 93.87 57.7 93.85 63.63 77.54 54.21 77.55 48.29"/></g><polygon class="cls-32" points="77.55 48.29 93.87 57.7 93.85 63.63 77.54 54.21 77.55 48.29"/></g><polygon class="cls-37" points="77.55 48.29 61.35 57.7 77.66 67.12 93.87 57.7 77.55 48.29"/><path class="cls-38" d="M77.55,48.57,93.37,57.7,77.66,66.83,61.85,57.7l15.7-9.13m0-.28L61.35,57.7l16.31,9.42L93.87,57.7,77.55,48.29Z"/><polygon class="cls-39" points="93.87 57.7 93.85 63.63 77.64 73.04 77.66 68.28 77.66 67.12 93.85 57.71 93.87 57.7"/><polygon class="cls-40" points="77.66 67.12 77.66 68.28 77.64 73.04 61.34 63.63 61.34 58.88 61.34 57.7 77.64 67.11 77.66 67.12"/><polygon class="cls-26" points="77.66 67.12 77.64 67.11 61.34 57.7 61.34 58.88 77.64 68.29 77.66 68.28 93.85 58.88 93.85 57.71 77.66 67.12"/><polygon class="cls-41" points="77.57 17.94 68.11 23.45 77.64 28.95 87.1 23.45 77.57 17.94"/><polygon class="cls-42" points="77.64 28.95 77.63 62.94 87.09 57.44 87.1 23.45 77.64 28.95"/><polygon class="cls-43" points="68.11 23.45 68.1 57.44 77.63 62.94 77.64 28.95 68.11 23.45"/><polygon class="cls-17" points="70.01 36.34 70.01 40.1 68.73 42.18 68.73 57.11 68.5 56.98 68.5 25.19 68.73 25.32 68.73 34.65 70.01 36.34"/><polygon class="cls-14" points="69.2 36.06 69.53 36.5 69.53 39.97 69.2 40.5 69.2 36.06"/><polygon class="cls-44" points="62.07 116.48 70.61 111.44 70.61 121.41 62.07 116.48"/><path class="cls-45" d="M70.61,103.41v8l-8.54,5v-18c0-2.35,1.92-3.17,4.27-1.81a9.3,9.3,0,0,1,3,3A7.34,7.34,0,0,1,70.61,103.41Z"/><path class="cls-46" d="M84,21.37a4.34,4.34,0,0,1-1.7,1.56,10.49,10.49,0,0,1-9.54-.09,4.15,4.15,0,0,1-1.55-1.5,2.09,2.09,0,0,1,.08-.23,4.17,4.17,0,0,0,1.47,1.37,10.52,10.52,0,0,0,9.54.1,4.45,4.45,0,0,0,1.62-1.44A2.09,2.09,0,0,1,84,21.37Z"/><path class="cls-47" d="M83.42,20.13A6.89,6.89,0,0,0,81,17.66a6.74,6.74,0,0,0-9.23,2.46,6.8,6.8,0,0,0-.9,3.36,3.33,3.33,0,0,0,1.91,2.73,10.5,10.5,0,0,0,9.53.1,3.4,3.4,0,0,0,2-2.79A6.82,6.82,0,0,0,83.42,20.13Z"/><g class="cls-16"><path class="cls-13" d="M84,21.37a4.34,4.34,0,0,1-1.7,1.56,10.49,10.49,0,0,1-9.54-.09,4.15,4.15,0,0,1-1.55-1.5,2.09,2.09,0,0,1,.08-.23,4.17,4.17,0,0,0,1.47,1.37,10.52,10.52,0,0,0,9.54.1,4.45,4.45,0,0,0,1.62-1.44A2.09,2.09,0,0,1,84,21.37Z"/></g><path class="cls-14" d="M75.71,23.51l0,.36a11.19,11.19,0,0,1-1.3-.31l0-.34A7.57,7.57,0,0,0,75.71,23.51Z"/><path class="cls-48" d="M78,7.63a.87.87,0,0,1-.8,0A.27.27,0,0,1,77,7.4V17a.27.27,0,0,0,.16.23.89.89,0,0,0,.81,0,.27.27,0,0,0,.17-.23V7.4A.29.29,0,0,1,78,7.63Z"/><path class="cls-49" d="M78,7.16a1,1,0,0,0-.81,0c-.22.13-.22.34,0,.47a.87.87,0,0,0,.8,0A.25.25,0,0,0,78,7.16Z"/><polygon class="cls-50" points="73.82 10.06 77.04 11.42 77.04 8.2 73.82 10.06"/><path class="cls-14" d="M75.71,23.51l0,.36a11.19,11.19,0,0,1-1.3-.31l0-.34A7.57,7.57,0,0,0,75.71,23.51Z"/><polygon class="cls-51" points="104.12 100.65 93.26 94.38 93.3 79.71 82.82 73.66 78.12 76.39 55.87 63.55 55.88 58.11 37.44 47.45 24.74 54.83 13.89 48.57 14.03 18.27 24.75 24.46 24.89 24.54 37.45 17.25 37.57 17.17 60.57 30.44 60.71 30.52 60.69 35.96 78.13 46.02 78.26 46.1 82.83 43.44 105.95 56.64 105.95 69.38 135.98 51.93 136.11 51.85 135.97 82.15 104.12 100.65"/><polygon class="cls-52" points="104.12 100.65 93.26 94.38 93.3 79.71 82.82 73.66 78.12 76.39 55.87 63.55 55.88 58.11 37.44 47.45 24.74 54.83 13.89 48.57 14.03 18.27 24.75 24.46 24.89 24.54 37.45 17.25 37.57 17.17 60.57 30.44 60.71 30.52 60.69 35.96 78.13 46.02 78.26 46.1 82.83 43.44 105.95 56.64 105.95 69.38 135.98 51.93 136.11 51.85 135.97 82.15 104.12 100.65"/></g></g></g></g></svg>