<svg xmlns="http://www.w3.org/2000/svg" xmlns:xlink="http://www.w3.org/1999/xlink" viewBox="0 0 150 150"><defs><style>.cls-1,.cls-2{fill:none;}.cls-2{stroke:#fff;stroke-miterlimit:10;stroke-width:0.1px;}.cls-3{opacity:0;}.cls-4{fill:#000714;}.cls-5{opacity:0.1;fill:url(#新建图案);}.cls-6{isolation:isolate;}.cls-7{fill:#89abe6;}.cls-8{fill:url(#未命名的渐变_54);}.cls-9{fill:#547099;}.cls-10{fill:url(#未命名的渐变_2050);}.cls-11{fill:#242d3a;mix-blend-mode:multiply;}.cls-12{fill:url(#未命名的渐变_854);}.cls-13{fill:url(#未命名的渐变_2050-2);}.cls-14{fill:url(#未命名的渐变_861);}.cls-15{fill:url(#未命名的渐变_854-2);}.cls-16{fill:url(#未命名的渐变_2050-3);}.cls-17{fill:url(#未命名的渐变_861-2);}.cls-18{fill:url(#未命名的渐变_850);}.cls-19{fill:url(#未命名的渐变_54-2);}.cls-20{fill:#fff;opacity:0.3;mix-blend-mode:overlay;}.cls-21{fill:url(#未命名的渐变_846);}.cls-22{fill:url(#未命名的渐变_835);}.cls-23{fill:#4cfafe;}.cls-24{fill:#08121b;}.cls-25{opacity:0.5;}.cls-26{fill:url(#未命名的渐变_159);}.cls-27{fill:url(#未命名的渐变_2118);}.cls-28{fill:url(#未命名的渐变_159-2);}.cls-29{fill:url(#未命名的渐变_2118-2);}.cls-30{opacity:0.2;}</style><pattern id="新建图案" data-name="新建图案" width="18.57" height="32.16" patternTransform="translate(2029.49 1035.17)" patternUnits="userSpaceOnUse" viewBox="0 0 18.57 32.16"><rect class="cls-1" width="18.57" height="32.16"/><polyline class="cls-2" points="18.57 21.44 18.57 32.16 18.57 42.88"/><polyline class="cls-2" points="9.29 26.8 18.57 32.16 27.85 37.51 27.85 37.52"/><polyline class="cls-2" points="9.29 37.52 9.29 37.51 18.57 32.16 27.85 26.8"/><polygon class="cls-2" points="27.85 37.52 27.85 26.8 18.57 21.44 9.28 26.8 9.28 37.52 18.57 42.88 27.85 37.52"/><polyline class="cls-2" points="0 21.44 0 32.16 0 42.88"/><polyline class="cls-2" points="-9.28 26.8 0 32.16 9.28 37.51 9.28 37.52"/><polyline class="cls-2" points="-9.28 37.52 -9.28 37.51 0 32.16 9.28 26.8"/><polygon class="cls-2" points="9.28 37.52 9.28 26.8 0 21.44 -9.29 26.8 -9.29 37.52 0 42.88 9.28 37.52"/><polyline class="cls-2" points="18.57 10.72 27.85 16.08 37.13 21.43 37.13 21.44"/><polyline class="cls-2" points="18.57 21.44 18.57 21.43 27.85 16.08 37.13 10.72"/><polygon class="cls-2" points="37.14 21.44 37.14 10.72 27.85 5.36 18.57 10.72 18.57 21.44 27.85 26.8 37.14 21.44"/><polyline class="cls-2" points="9.29 5.36 9.29 16.08 9.29 26.8"/><polyline class="cls-2" points="0.01 10.72 9.29 16.08 18.57 21.43 18.57 21.44"/><polyline class="cls-2" points="0.01 21.44 0.01 21.43 9.29 16.08 18.57 10.72"/><polygon class="cls-2" points="18.57 21.44 18.57 10.72 9.28 5.36 0 10.72 0 21.44 9.28 26.8 18.57 21.44"/><polyline class="cls-2" points="-18.56 10.72 -9.28 16.08 0 21.43 0 21.44"/><polyline class="cls-2" points="-18.56 21.44 -18.56 21.43 -9.28 16.08 0 10.72"/><polygon class="cls-2" points="0 21.44 0 10.72 -9.29 5.36 -18.57 10.72 -18.57 21.44 -9.29 26.8 0 21.44"/><polyline class="cls-2" points="18.57 -10.72 18.57 0 18.57 10.72"/><polyline class="cls-2" points="9.29 -5.36 18.57 0 27.85 5.35 27.85 5.36"/><polyline class="cls-2" points="9.29 5.36 9.29 5.35 18.57 0 27.85 -5.36"/><polygon class="cls-2" points="27.85 5.36 27.85 -5.36 18.57 -10.72 9.28 -5.36 9.28 5.36 18.57 10.72 27.85 5.36"/><polyline class="cls-2" points="0 -10.72 0 0 0 10.72"/><polyline class="cls-2" points="-9.28 -5.36 0 0 9.28 5.35 9.28 5.36"/><polyline class="cls-2" points="-9.28 5.36 -9.28 5.35 0 0 9.28 -5.36"/><polygon class="cls-2" points="9.28 5.36 9.28 -5.36 0 -10.72 -9.29 -5.36 -9.29 5.36 0 10.72 9.28 5.36"/></pattern><linearGradient id="未命名的渐变_54" x1="54.66" y1="151.11" x2="2.6" y2="99.05" gradientUnits="userSpaceOnUse"><stop offset="0" stop-color="#425266"/><stop offset="1" stop-color="#596b8c"/></linearGradient><linearGradient id="未命名的渐变_2050" x1="60.87" y1="155.1" x2="143.44" y2="72.53" gradientUnits="userSpaceOnUse"><stop offset="0" stop-color="#283140"/><stop offset="0.34" stop-color="#232b37"/><stop offset="0.9" stop-color="#15191f"/><stop offset="1" stop-color="#12161a"/></linearGradient><linearGradient id="未命名的渐变_854" x1="10.63" y1="123.53" x2="18.53" y2="123.53" gradientUnits="userSpaceOnUse"><stop offset="0" stop-color="#12161a"/><stop offset="0.1" stop-color="#15191f"/><stop offset="0.66" stop-color="#232b37"/><stop offset="1" stop-color="#283140"/></linearGradient><linearGradient id="未命名的渐变_2050-2" x1="10.63" y1="124.82" x2="18.53" y2="124.82" xlink:href="#未命名的渐变_2050"/><linearGradient id="未命名的渐变_861" x1="13.41" y1="125.55" x2="15.75" y2="121.5" gradientUnits="userSpaceOnUse"><stop offset="0" stop-color="#4cfafe" stop-opacity="0.8"/><stop offset="0.03" stop-color="#48f1fe" stop-opacity="0.73"/><stop offset="0.11" stop-color="#3dd9fe" stop-opacity="0.56"/><stop offset="0.19" stop-color="#33c4fe" stop-opacity="0.41"/><stop offset="0.28" stop-color="#2bb3ff" stop-opacity="0.28"/><stop offset="0.38" stop-color="#24a5ff" stop-opacity="0.18"/><stop offset="0.49" stop-color="#1f9aff" stop-opacity="0.1"/><stop offset="0.61" stop-color="#1c92ff" stop-opacity="0.04"/><stop offset="0.76" stop-color="#1a8dff" stop-opacity="0.01"/><stop offset="1" stop-color="#198cff" stop-opacity="0"/></linearGradient><linearGradient id="未命名的渐变_854-2" x1="34.17" y1="137.11" x2="42.07" y2="137.11" xlink:href="#未命名的渐变_854"/><linearGradient id="未命名的渐变_2050-3" x1="34.17" y1="138.4" x2="42.07" y2="138.4" xlink:href="#未命名的渐变_2050"/><linearGradient id="未命名的渐变_861-2" x1="36.95" y1="139.13" x2="39.29" y2="135.09" xlink:href="#未命名的渐变_861"/><linearGradient id="未命名的渐变_850" x1="96.84" y1="98.61" x2="24.7" y2="56.96" gradientUnits="userSpaceOnUse"><stop offset="0" stop-color="#89abe6"/><stop offset="1" stop-color="#82a3dc"/></linearGradient><linearGradient id="未命名的渐变_54-2" x1="51.42" y1="139.39" x2="5.85" y2="93.81" xlink:href="#未命名的渐变_54"/><linearGradient id="未命名的渐变_846" x1="111.77" y1="116.73" x2="66.83" y2="71.79" gradientUnits="userSpaceOnUse"><stop offset="0" stop-color="#89abe6"/><stop offset="1" stop-color="#6f8ec0"/></linearGradient><linearGradient id="未命名的渐变_835" x1="66.59" y1="143.07" x2="140.47" y2="69.19" gradientUnits="userSpaceOnUse"><stop offset="0" stop-color="#404e66"/><stop offset="0.34" stop-color="#3b485d"/><stop offset="0.9" stop-color="#2f3945"/><stop offset="1" stop-color="#2c3640"/></linearGradient><linearGradient id="未命名的渐变_159" x1="71.52" y1="-102.14" x2="71.52" y2="-128.16" gradientTransform="matrix(-1, 0.58, 0, 1, 175.05, 166.58)" gradientUnits="userSpaceOnUse"><stop offset="0" stop-color="#2f77eb"/><stop offset="0.12" stop-color="#2c7aee" stop-opacity="0.84"/><stop offset="0.36" stop-color="#2581f4" stop-opacity="0.55"/><stop offset="0.58" stop-color="#2085f9" stop-opacity="0.31"/><stop offset="0.76" stop-color="#1c89fc" stop-opacity="0.14"/><stop offset="0.91" stop-color="#1a8bfe" stop-opacity="0.04"/><stop offset="1" stop-color="#198cff" stop-opacity="0"/></linearGradient><linearGradient id="未命名的渐变_2118" x1="71.52" y1="-102.14" x2="71.52" y2="-128.16" gradientTransform="matrix(-1, 0.58, 0, 1, 175.05, 166.58)" gradientUnits="userSpaceOnUse"><stop offset="0" stop-color="#4cfafe" stop-opacity="0.8"/><stop offset="0.01" stop-color="#4bf7fe" stop-opacity="0.78"/><stop offset="0.05" stop-color="#40e1fe" stop-opacity="0.62"/><stop offset="0.1" stop-color="#37ccfe" stop-opacity="0.47"/><stop offset="0.16" stop-color="#2fbbff" stop-opacity="0.34"/><stop offset="0.22" stop-color="#28acff" stop-opacity="0.23"/><stop offset="0.29" stop-color="#22a0ff" stop-opacity="0.15"/><stop offset="0.37" stop-color="#1e97ff" stop-opacity="0.08"/><stop offset="0.47" stop-color="#1b91ff" stop-opacity="0.03"/><stop offset="0.61" stop-color="#198dff" stop-opacity="0.01"/><stop offset="1" stop-color="#198cff" stop-opacity="0"/></linearGradient><linearGradient id="未命名的渐变_159-2" x1="128.58" y1="-168.03" x2="128.58" y2="-194.05" xlink:href="#未命名的渐变_159"/><linearGradient id="未命名的渐变_2118-2" x1="128.58" y1="-168.03" x2="128.58" y2="-194.05" xlink:href="#未命名的渐变_2118"/></defs><title>建筑5</title><g id="图层_2" data-name="图层 2"><g id="图元"><g id="建筑5"><g class="cls-3"><rect class="cls-4" width="150" height="150"/><rect id="网格" class="cls-5" width="150" height="150"/></g><g class="cls-6"><polygon class="cls-7" points="94.22 46.27 1.49 100.16 28.71 110.02 121.44 56.13 94.22 46.27"/><polygon class="cls-8" points="28.71 110.02 1.49 100.16 1.44 118.63 55.77 150 55.82 131.52 28.71 110.02"/><polygon class="cls-9" points="121.44 56.13 28.71 110.02 55.82 131.52 148.54 77.63 121.44 56.13"/><polygon class="cls-10" points="55.82 131.52 55.77 150 148.49 96.11 148.54 77.63 55.82 131.52"/><polygon class="cls-11" points="78.95 136.53 71.05 141.08 71.05 135.69 78.95 131.13 78.95 136.53"/><polygon class="cls-11" points="112.46 117.02 104.57 121.57 104.57 116.18 112.46 111.62 112.46 117.02"/><polygon class="cls-11" points="137.19 102.64 129.3 107.2 129.3 101.81 137.19 97.25 137.19 102.64"/><polygon class="cls-12" points="10.63 123.95 18.53 128.5 18.53 123.11 10.63 118.55 10.63 123.95"/><polygon class="cls-13" points="10.63 123.95 18.53 128.5 18.53 123.11 15.12 121.14 10.63 123.95"/><polygon class="cls-14" points="10.63 123.95 18.53 128.5 18.53 123.11 10.63 118.55 10.63 123.95"/><polygon class="cls-15" points="34.17 137.53 42.07 142.09 42.07 136.69 34.17 132.13 34.17 137.53"/><polygon class="cls-16" points="34.17 137.53 42.07 142.09 42.07 136.69 38.66 134.72 34.17 137.53"/><polygon class="cls-17" points="34.17 137.53 42.07 142.09 42.07 136.69 34.17 132.13 34.17 137.53"/></g><g class="cls-6"><polygon class="cls-18" points="92.83 45.66 0.11 99.55 28.7 109.91 121.43 56.02 92.83 45.66"/><polygon class="cls-19" points="28.7 109.91 0.11 99.55 0.1 100.7 28.69 111.06 57.16 133.65 57.17 132.5 28.7 109.91"/><polygon class="cls-20" points="28.7 109.91 0.11 99.55 0.1 100.7 28.69 111.06 57.16 133.65 57.17 132.5 28.7 109.91"/><polygon class="cls-21" points="121.43 56.02 28.7 109.91 57.17 132.5 149.9 78.61 121.43 56.02"/><polygon class="cls-22" points="57.17 132.5 57.16 133.65 149.89 79.76 149.9 78.61 57.17 132.5"/></g><polygon class="cls-23" points="16.83 116.36 12.33 113.76 12.33 109.91 16.83 112.5 16.83 116.36"/><polygon class="cls-23" points="21.73 119.19 17.23 116.59 17.23 112.74 21.73 115.33 21.73 119.19"/><polygon class="cls-23" points="26.63 122.02 22.13 119.42 22.13 115.56 26.63 118.16 26.63 122.02"/><polygon class="cls-23" points="31.52 124.84 27.02 122.25 27.02 118.39 31.52 120.99 31.52 124.84"/><polygon class="cls-23" points="36.42 127.67 31.92 125.08 31.92 121.22 36.42 123.82 36.42 127.67"/><polygon class="cls-23" points="41.32 130.5 36.82 127.9 36.82 124.05 41.32 126.64 41.32 130.5"/><polygon class="cls-23" points="46.22 133.33 41.72 130.73 41.72 126.88 46.22 129.47 46.22 133.33"/><polygon class="cls-23" points="51.12 136.16 46.62 133.56 46.62 129.7 51.12 132.3 51.12 136.16"/><path class="cls-24" d="M4.76,109.71l5.45,3.15a.33.33,0,0,0,.49-.29v-3.34a.67.67,0,0,0-.32-.57l-5.46-3.15a.33.33,0,0,0-.49.29v3.34A.65.65,0,0,0,4.76,109.71Z"/><path class="cls-23" d="M7.11,109v0c.2,0,.3,0,.3-.26a.76.76,0,0,0-.16-.46,1.46,1.46,0,0,0-.47-.4l-.6-.35v1.93l.62.36a.75.75,0,0,0,.51.15q.18,0,.18-.3a.64.64,0,0,0-.1-.35A1,1,0,0,0,7.11,109Zm-.56-.9.19.12a.67.67,0,0,1,.22.17.29.29,0,0,1,.08.18c0,.06,0,.1-.08.1a.42.42,0,0,1-.22-.08l-.19-.11ZM7,109.44a.6.6,0,0,1-.27-.1l-.21-.12v-.41l.21.12a1.05,1.05,0,0,1,.27.21.28.28,0,0,1,.1.2A.09.09,0,0,1,7,109.44Z"/><path class="cls-23" d="M8.21,110.17l.26-.16a.61.61,0,0,0,.23-.22.51.51,0,0,0,.08-.28.83.83,0,0,0-.07-.34,1.07,1.07,0,0,0-.2-.32.92.92,0,0,0-.28-.24.52.52,0,0,0-.38-.08.32.32,0,0,0-.22.24l.33.34a.19.19,0,0,1,.1-.14.19.19,0,0,1,.16,0,.35.35,0,0,1,.13.14.26.26,0,0,1,.05.17.31.31,0,0,1,0,.17.74.74,0,0,1-.18.16l-.52.34v.28l1.15.66v-.39Z"/><polygon class="cls-23" points="65.27 134.59 60.77 137.19 60.77 133.34 65.27 130.74 65.27 134.59"/><polygon class="cls-23" points="70.16 131.76 65.67 134.36 65.67 130.51 70.16 127.91 70.16 131.76"/><polygon class="cls-23" points="75.06 128.94 70.56 131.53 70.56 127.68 75.06 125.08 75.06 128.94"/><polygon class="cls-23" points="79.96 126.11 75.46 128.71 75.46 124.85 79.96 122.25 79.96 126.11"/><polygon class="cls-23" points="84.86 123.28 80.36 125.88 80.36 122.02 84.86 119.43 84.86 123.28"/><polygon class="cls-23" points="89.76 120.45 85.26 123.05 85.26 119.19 89.76 116.6 89.76 120.45"/><polygon class="cls-23" points="94.66 117.63 90.16 120.22 90.16 116.37 94.66 113.77 94.66 117.63"/><polygon class="cls-23" points="99.55 114.8 95.06 117.39 95.06 113.54 99.55 110.94 99.55 114.8"/><polygon class="cls-23" points="104.45 111.97 99.95 114.57 99.95 110.71 104.45 108.11 104.45 111.97"/><polygon class="cls-23" points="109.35 109.14 104.85 111.74 104.85 107.88 109.35 105.29 109.35 109.14"/><polygon class="cls-23" points="114.25 106.31 109.75 108.91 109.75 105.06 114.25 102.46 114.25 106.31"/><polygon class="cls-23" points="119.14 103.49 114.65 106.08 114.65 102.23 119.14 99.63 119.14 103.49"/><polygon class="cls-23" points="124.04 100.66 119.55 103.25 119.55 99.4 124.04 96.8 124.04 100.66"/><polygon class="cls-23" points="128.94 97.83 124.44 100.43 124.44 96.57 128.94 93.97 128.94 97.83"/><polygon class="cls-23" points="133.84 95 129.34 97.6 129.34 93.74 133.84 91.15 133.84 95"/><polygon class="cls-23" points="138.74 92.17 134.24 94.77 134.24 90.92 138.74 88.32 138.74 92.17"/><polygon class="cls-23" points="143.64 89.35 139.14 91.94 139.14 88.09 143.64 85.49 143.64 89.35"/><g class="cls-25"><polygon class="cls-26" points="57.17 132.5 149.9 78.94 149.9 52.95 57.17 106.5 57.17 132.5"/><polygon class="cls-27" points="57.17 132.5 149.9 78.94 149.9 52.95 57.17 106.5 57.17 132.5"/></g><g class="cls-25"><polygon class="cls-28" points="0.1 99.55 92.83 45.99 92.83 20 0.1 73.56 0.1 99.55"/><polygon class="cls-29" points="0.1 99.55 92.83 45.99 92.83 20 0.1 73.56 0.1 99.55"/></g></g></g></g></svg>