<svg xmlns="http://www.w3.org/2000/svg" xmlns:xlink="http://www.w3.org/1999/xlink" viewBox="0 0 150 150"><defs><style>.cls-1,.cls-2{fill:none;}.cls-2{stroke:#fff;stroke-miterlimit:10;stroke-width:0.1px;}.cls-3{opacity:0;}.cls-4{fill:#000714;}.cls-5{opacity:0.1;fill:url(#新建图案);}.cls-6{isolation:isolate;}.cls-7{fill:#13181d;}.cls-8{fill:url(#未命名的渐变_1403);}.cls-9{fill:url(#未命名的渐变_100);}.cls-10{fill:url(#未命名的渐变_114);}.cls-11{fill:url(#未命名的渐变_1403-2);}.cls-12{fill:url(#未命名的渐变_114-2);}.cls-13{fill:url(#未命名的渐变_1403-3);}.cls-14{fill:url(#未命名的渐变_63);}.cls-15{fill:url(#未命名的渐变_77);}.cls-16{fill:url(#未命名的渐变_1403-4);}.cls-17{fill:url(#未命名的渐变_1403-5);}.cls-18{fill:url(#未命名的渐变_63-2);}.cls-19{fill:url(#未命名的渐变_1403-6);}.cls-20{fill:url(#未命名的渐变_1403-7);}.cls-21{fill:url(#未命名的渐变_100-2);}.cls-22{fill:url(#未命名的渐变_114-3);}.cls-23{fill:url(#未命名的渐变_13);}.cls-24{fill:url(#未命名的渐变_276);}.cls-25{fill:url(#未命名的渐变_13-2);}.cls-26{fill:#fff;}.cls-27{fill:url(#未命名的渐变_147);}.cls-28{fill:#4e5f79;}.cls-29{fill:#171d23;}.cls-30{fill:url(#未命名的渐变_94);}.cls-31{fill:url(#未命名的渐变_147-2);}.cls-32{fill:#7696cb;}.cls-33{fill:url(#未命名的渐变_145);}.cls-34{fill:#2f3948;}.cls-35{fill:#8eb5f5;}.cls-36{fill:url(#未命名的渐变_147-3);}.cls-37{fill:url(#未命名的渐变_129);}.cls-38{fill:url(#未命名的渐变_129-2);}.cls-39{fill:url(#未命名的渐变_147-4);}.cls-40{fill:url(#未命名的渐变_13-3);}.cls-41{fill:url(#未命名的渐变_276-2);}.cls-42{fill:url(#未命名的渐变_13-4);}.cls-43{fill:url(#未命名的渐变_42);}.cls-44{opacity:0.2;}</style><pattern id="新建图案" data-name="新建图案" width="18.57" height="32.16" patternTransform="translate(1234.02 261.82)" patternUnits="userSpaceOnUse" viewBox="0 0 18.57 32.16"><rect class="cls-1" width="18.57" height="32.16"/><polyline class="cls-2" points="18.57 21.44 18.57 32.16 18.57 42.88"/><polyline class="cls-2" points="9.29 26.8 18.57 32.16 27.85 37.51 27.85 37.52"/><polyline class="cls-2" points="9.29 37.52 9.29 37.51 18.57 32.16 27.85 26.8"/><polygon class="cls-2" points="27.85 37.52 27.85 26.8 18.57 21.44 9.28 26.8 9.28 37.52 18.57 42.88 27.85 37.52"/><polyline class="cls-2" points="0 21.44 0 32.16 0 42.88"/><polyline class="cls-2" points="-9.28 26.8 0 32.16 9.28 37.51 9.28 37.52"/><polyline class="cls-2" points="-9.28 37.52 -9.28 37.51 0 32.16 9.28 26.8"/><polygon class="cls-2" points="9.28 37.52 9.28 26.8 0 21.44 -9.29 26.8 -9.29 37.52 0 42.88 9.28 37.52"/><polyline class="cls-2" points="18.57 10.72 27.85 16.08 37.13 21.43 37.13 21.44"/><polyline class="cls-2" points="18.57 21.44 18.57 21.43 27.85 16.08 37.13 10.72"/><polygon class="cls-2" points="37.14 21.44 37.14 10.72 27.85 5.36 18.57 10.72 18.57 21.44 27.85 26.8 37.14 21.44"/><polyline class="cls-2" points="9.29 5.36 9.29 16.08 9.29 26.8"/><polyline class="cls-2" points="0.01 10.72 9.29 16.08 18.57 21.43 18.57 21.44"/><polyline class="cls-2" points="0.01 21.44 0.01 21.43 9.29 16.08 18.57 10.72"/><polygon class="cls-2" points="18.57 21.44 18.57 10.72 9.28 5.36 0 10.72 0 21.44 9.28 26.8 18.57 21.44"/><polyline class="cls-2" points="-18.56 10.72 -9.28 16.08 0 21.43 0 21.44"/><polyline class="cls-2" points="-18.56 21.44 -18.56 21.43 -9.28 16.08 0 10.72"/><polygon class="cls-2" points="0 21.44 0 10.72 -9.29 5.36 -18.57 10.72 -18.57 21.44 -9.29 26.8 0 21.44"/><polyline class="cls-2" points="18.57 -10.72 18.57 0 18.57 10.72"/><polyline class="cls-2" points="9.29 -5.36 18.57 0 27.85 5.35 27.85 5.36"/><polyline class="cls-2" points="9.29 5.36 9.29 5.35 18.57 0 27.85 -5.36"/><polygon class="cls-2" points="27.85 5.36 27.85 -5.36 18.57 -10.72 9.28 -5.36 9.28 5.36 18.57 10.72 27.85 5.36"/><polyline class="cls-2" points="0 -10.72 0 0 0 10.72"/><polyline class="cls-2" points="-9.28 -5.36 0 0 9.28 5.35 9.28 5.36"/><polyline class="cls-2" points="-9.28 5.36 -9.28 5.35 0 0 9.28 -5.36"/><polygon class="cls-2" points="9.28 5.36 9.28 -5.36 0 -10.72 -9.29 -5.36 -9.29 5.36 0 10.72 9.28 5.36"/></pattern><linearGradient id="未命名的渐变_1403" x1="111.01" y1="95.41" x2="89.71" y2="58.51" gradientUnits="userSpaceOnUse"><stop offset="0" stop-color="#283140"/><stop offset="0.1" stop-color="#12161a"/><stop offset="0.8" stop-color="#7a98cc"/><stop offset="1" stop-color="#38455a"/></linearGradient><linearGradient id="未命名的渐变_100" x1="132.3" y1="99.53" x2="96.78" y2="38.02" gradientUnits="userSpaceOnUse"><stop offset="0" stop-color="#0073e6"/><stop offset="0.1" stop-color="#1433cc"/><stop offset="0.8" stop-color="#59c8ff"/><stop offset="1" stop-color="#0073e6"/></linearGradient><linearGradient id="未命名的渐变_114" x1="77.99" y1="75.34" x2="128.36" y2="75.34" gradientUnits="userSpaceOnUse"><stop offset="0" stop-color="#425266"/><stop offset="1" stop-color="#596b8c"/></linearGradient><linearGradient id="未命名的渐变_1403-2" x1="109.46" y1="96.33" x2="88.08" y2="59.31" xlink:href="#未命名的渐变_1403"/><linearGradient id="未命名的渐变_114-2" x1="58.67" y1="91.15" x2="62.57" y2="91.15" xlink:href="#未命名的渐变_114"/><linearGradient id="未命名的渐变_1403-3" x1="99.11" y1="103.3" x2="76.74" y2="64.56" xlink:href="#未命名的渐变_1403"/><linearGradient id="未命名的渐变_63" x1="81.2" y1="110.8" x2="41.67" y2="87.98" gradientUnits="userSpaceOnUse"><stop offset="0" stop-color="#283140"/><stop offset="0.1" stop-color="#12161a"/><stop offset="0.67" stop-color="#7a98cc"/><stop offset="1" stop-color="#38455a"/></linearGradient><linearGradient id="未命名的渐变_77" x1="83.99" y1="106.9" x2="83.99" y2="67.1" gradientUnits="userSpaceOnUse"><stop offset="0" stop-color="#283140"/><stop offset="0.1" stop-color="#12161a"/><stop offset="0.9" stop-color="#7a98cc"/><stop offset="1" stop-color="#38455a"/></linearGradient><linearGradient id="未命名的渐变_1403-4" x1="87.66" y1="113.81" x2="61.95" y2="69.29" xlink:href="#未命名的渐变_1403"/><linearGradient id="未命名的渐变_1403-5" x1="73.71" y1="118.06" x2="51.34" y2="79.32" xlink:href="#未命名的渐变_1403"/><linearGradient id="未命名的渐变_63-2" x1="73.37" y1="112.87" x2="37.96" y2="92.43" xlink:href="#未命名的渐变_63"/><linearGradient id="未命名的渐变_1403-6" x1="60.71" y1="124.52" x2="39.33" y2="87.49" xlink:href="#未命名的渐变_1403"/><linearGradient id="未命名的渐变_1403-7" x1="37.77" y1="137.67" x2="16.47" y2="100.77" xlink:href="#未命名的渐变_1403"/><linearGradient id="未命名的渐变_100-2" x1="59.05" y1="141.79" x2="23.53" y2="80.28" xlink:href="#未命名的渐变_100"/><linearGradient id="未命名的渐变_114-3" x1="4.74" y1="117.6" x2="55.11" y2="117.6" xlink:href="#未命名的渐变_114"/><linearGradient id="未命名的渐变_13" x1="61.47" y1="58.44" x2="77.78" y2="58.44" gradientUnits="userSpaceOnUse"><stop offset="0" stop-color="#89abe6"/><stop offset="1" stop-color="#547099"/></linearGradient><linearGradient id="未命名的渐变_276" x1="61.47" y1="68.61" x2="77.78" y2="68.61" gradientUnits="userSpaceOnUse"><stop offset="0" stop-color="#38455a"/><stop offset="0.2" stop-color="#7a98cc"/><stop offset="0.9" stop-color="#12161a"/><stop offset="1" stop-color="#283140"/></linearGradient><linearGradient id="未命名的渐变_13-2" x1="61.47" y1="60.8" x2="77.78" y2="60.8" xlink:href="#未命名的渐变_13"/><linearGradient id="未命名的渐变_147" x1="80.93" y1="58.44" x2="87.77" y2="58.44" gradientUnits="userSpaceOnUse"><stop offset="0" stop-color="#171d23"/><stop offset="1" stop-color="#4e5f79"/></linearGradient><linearGradient id="未命名的渐变_94" x1="48.83" y1="61.52" x2="55.4" y2="61.52" gradientUnits="userSpaceOnUse"><stop offset="0" stop-color="#425266"/><stop offset="0.12" stop-color="#596b8c"/></linearGradient><linearGradient id="未命名的渐变_147-2" x1="66.49" y1="66.84" x2="73.33" y2="66.84" xlink:href="#未命名的渐变_147"/><linearGradient id="未命名的渐变_145" x1="68.72" y1="71.46" x2="71.14" y2="71.46" gradientUnits="userSpaceOnUse"><stop offset="0" stop-color="#4e5f79"/><stop offset="1" stop-color="#171d23"/></linearGradient><linearGradient id="未命名的渐变_147-3" x1="81.92" y1="56.76" x2="87.36" y2="56.76" xlink:href="#未命名的渐变_147"/><linearGradient id="未命名的渐变_129" x1="77.89" y1="58.76" x2="88.81" y2="58.76" gradientUnits="userSpaceOnUse"><stop offset="0.08" stop-color="#5c708f"/><stop offset="1" stop-color="#12161a"/></linearGradient><linearGradient id="未命名的渐变_129-2" x1="62.59" y1="60.04" x2="77.9" y2="60.04" xlink:href="#未命名的渐变_129"/><linearGradient id="未命名的渐变_147-4" x1="65.92" y1="52.47" x2="74.57" y2="52.47" xlink:href="#未命名的渐变_147"/><linearGradient id="未命名的渐变_13-3" x1="66.59" y1="52.05" x2="73.91" y2="52.05" xlink:href="#未命名的渐变_13"/><linearGradient id="未命名的渐变_276-2" x1="66.59" y1="54.56" x2="73.91" y2="54.56" xlink:href="#未命名的渐变_276"/><linearGradient id="未命名的渐变_13-4" x1="66.59" y1="53.11" x2="73.91" y2="53.11" xlink:href="#未命名的渐变_13"/><linearGradient id="未命名的渐变_42" x1="62.92" y1="52.05" x2="77.58" y2="52.05" gradientUnits="userSpaceOnUse"><stop offset="0" stop-color="#99beff"/><stop offset="0.02" stop-color="#99beff" stop-opacity="0.93"/><stop offset="0.09" stop-color="#99beff" stop-opacity="0.74"/><stop offset="0.17" stop-color="#99beff" stop-opacity="0.56"/><stop offset="0.25" stop-color="#99beff" stop-opacity="0.41"/><stop offset="0.33" stop-color="#99beff" stop-opacity="0.28"/><stop offset="0.43" stop-color="#99beff" stop-opacity="0.18"/><stop offset="0.53" stop-color="#99beff" stop-opacity="0.1"/><stop offset="0.64" stop-color="#99beff" stop-opacity="0.04"/><stop offset="0.77" stop-color="#99beff" stop-opacity="0.01"/><stop offset="1" stop-color="#99beff" stop-opacity="0"/></linearGradient></defs><title>手动阀</title><g id="图层_2" data-name="图层 2"><g id="图层_1-2" data-name="图层 1"><g id="手动阀"><g class="cls-3"><rect class="cls-4" width="150" height="150"/><rect id="网格" class="cls-5" width="150" height="150"/></g><g class="cls-6"><path class="cls-7" d="M94.32,83.38a5.17,5.17,0,0,1-1.77-1.87c-1-1.71-1-3.54,0-4.09l-5,2.91c-1,.55-1,2.38,0,4.09a5,5,0,0,0,1.77,1.87,1.77,1.77,0,0,0,1.78.17l5-2.9A1.8,1.8,0,0,1,94.32,83.38Z"/><path class="cls-7" d="M121.93,99.32a5.15,5.15,0,0,1-1.78-1.88c-1-1.71-1-3.53,0-4.09l-5,2.91c-1,.56-1,2.38,0,4.09a5.13,5.13,0,0,0,1.77,1.88,1.79,1.79,0,0,0,1.78.17l5-2.91A1.77,1.77,0,0,1,121.93,99.32Z"/><path class="cls-7" d="M94.41,51.66a5.13,5.13,0,0,1-1.77-1.88c-1-1.69-1-3.5,0-4.06l-5,2.91c-1,.56-1,2.37,0,4.06a5,5,0,0,0,1.77,1.88,1.77,1.77,0,0,0,1.78.17l5-2.91A1.77,1.77,0,0,1,94.41,51.66Z"/><path class="cls-8" d="M108.13,89.79C99.79,85,93,73.3,93.07,63.71c0-4.75,1.7-8.1,4.41-9.68l-5,2.91c-2.72,1.57-4.4,4.93-4.41,9.68,0,9.59,6.71,21.27,15.05,26.08,4.2,2.43,8,2.65,10.75,1l5-2.9C116.13,92.44,112.33,92.22,108.13,89.79Z"/><path class="cls-7" d="M122,67.6a5.1,5.1,0,0,1-1.78-1.89c-1-1.69-1-3.49,0-4l-5,2.9c-1,.57-1,2.37,0,4.06A5.09,5.09,0,0,0,117,70.51a1.76,1.76,0,0,0,1.78.16l5-2.91A1.75,1.75,0,0,1,122,67.6Z"/><path class="cls-9" d="M108.26,43.49c-7-4-13.34-4.41-17.92-1.75l-5,2.91c4.58-2.66,10.92-2.29,17.93,1.75,13.91,8,25.14,27.5,25.1,43.48,0,8-2.83,13.54-7.34,16.16l5-2.91c4.52-2.62,7.32-8.21,7.34-16.16C133.41,71,122.18,51.53,108.26,43.49Z"/><path class="cls-10" d="M103.26,46.4C89.34,38.37,78,44.82,78,60.8s11.18,35.45,25.1,43.48,25.22,1.6,25.27-14.4S117.17,54.44,103.26,46.4ZM87.65,48.61a1.75,1.75,0,0,1,1.77.16,5.18,5.18,0,0,1,1.78,1.89c1,1.7,1,3.52,0,4.08a1.77,1.77,0,0,1-1.78-.17,5,5,0,0,1-1.77-1.88C86.64,51,86.65,49.16,87.65,48.61ZM91.1,86.46a1.77,1.77,0,0,1-1.78-.17,5,5,0,0,1-1.77-1.87c-1-1.71-1-3.54,0-4.09a1.75,1.75,0,0,1,1.77.17,5.11,5.11,0,0,1,1.78,1.87C92.1,84.08,92.1,85.91,91.1,86.46Zm12,6.24C94.78,87.89,88,76.21,88.07,66.62S94.88,53.17,103.22,58s15.09,16.53,15.06,26.09S111.47,97.52,103.12,92.7Zm15.58,9.7a1.79,1.79,0,0,1-1.78-.17,5.13,5.13,0,0,1-1.77-1.88c-1-1.71-1-3.53,0-4.09a1.8,1.8,0,0,1,1.78.18,5.09,5.09,0,0,1,1.77,1.87C119.7,100,119.7,101.84,118.7,102.4Zm.09-31.73a1.76,1.76,0,0,1-1.78-.16,5.09,5.09,0,0,1-1.77-1.89c-1-1.71-1-3.53,0-4.07a1.76,1.76,0,0,1,1.78.16,5.13,5.13,0,0,1,1.77,1.88C119.79,68.29,119.79,70.11,118.79,70.67Z"/></g><g class="cls-6"><path class="cls-11" d="M103.29,57.81c-4.21-2.44-8-2.66-10.77-1.06L72.92,68.14c2.75-1.6,6.57-1.38,10.78,1C92.06,74,98.81,85.72,98.78,95.33c0,4.78-1.7,8.14-4.42,9.72L114,93.66c2.72-1.58,4.4-4.94,4.42-9.72C118.4,74.34,111.65,62.63,103.29,57.81Z"/></g><path class="cls-7" d="M98.78,95.34c0,4.77-1.7,8.13-4.41,9.71S87.8,106.42,83.6,104c-8.37-4.83-15.13-16.53-15.09-26.13,0-4.78,1.7-8.14,4.41-9.73s6.57-1.37,10.78,1.07a25.14,25.14,0,0,1,5.45,4.31,36,36,0,0,1,8.58,14.77A25.93,25.93,0,0,1,98.78,95.34Z"/><path class="cls-12" d="M58.67,89l3.9,4.25A32.36,32.36,0,0,0,58.67,89Z"/><g class="cls-6"><path class="cls-13" d="M83.36,68c-4.31-2.4-8.19-2.59-11-1l-2.49,1.45c2.82-1.64,6.7-1.45,11,.95,8.76,4.88,16,17.07,16.09,27.22.06,5.16-1.71,8.8-4.63,10.5l2.49-1.45c2.92-1.69,4.69-5.33,4.63-10.5C99.32,85.11,92.12,72.92,83.36,68Z"/><path class="cls-14" d="M61.26,78.73c-7.38-4.12-13.65-2.4-16.21,3.57L43.47,86c2.29-5.35,7.91-6.89,14.52-3.2C66.76,87.66,74,99.85,74.08,110c.1,7.83-4,12.16-10,11.49l4,.45c6.61.75,11.24-4.09,11.13-12.83C79.08,97.78,71,84.18,61.26,78.73Z"/><path class="cls-15" d="M80.87,69.49a15.27,15.27,0,0,0-5.78-2L71,67.1a16.94,16.94,0,0,1,6.45,2.2c9.78,5.45,17.83,19.06,18,30.4a17.24,17.24,0,0,1-1.28,7.2l1.65-3.74A15.57,15.57,0,0,0,97,96.71C96.84,86.56,89.63,74.37,80.87,69.49Z"/><path class="cls-16" d="M77.48,69.3c-3.75-2.09-7.21-2.68-10-2a47,47,0,0,0-10.74,5c-3.43,2-5.46,3.44-6.12,3.92-1.08.77-2,1.5-2,1.51-.49.41-1.11,1-1.56,1.44,3.16-3.32,8.33-3.74,14.21-.46,9.78,5.45,17.82,19,18,30.39.09,7-2.86,11.5-7.44,12.63a23.61,23.61,0,0,0,4.34-1.61c.73-.34,3-1.38,6.41-3.37s5.46-3.44,6.13-3.92c1.08-.76,2-1.49,2-1.5.49-.41,1.1-1,1.55-1.44,2.11-2.2,3.32-5.68,3.26-10.21C95.31,88.36,87.26,74.75,77.48,69.3Z"/><ellipse class="cls-7" cx="54.94" cy="103.07" rx="11.67" ry="20.14" transform="translate(-44.35 41.56) rotate(-30.16)"/><path class="cls-17" d="M58,82.78c-4.3-2.4-8.19-2.59-11-1l-2.56,1.49c2.82-1.64,6.7-1.46,11,1,8.76,4.88,16,17.07,16.09,27.22.06,5.16-1.72,8.8-4.63,10.5l2.56-1.49c2.91-1.69,4.69-5.33,4.62-10.49C74,99.85,66.76,87.66,58,82.78Z"/><path class="cls-18" d="M55.44,84.27c-8.76-4.89-15.76-.61-15.64,9.54S47.13,116.16,55.89,121s15.76.61,15.64-9.55S64.2,89.15,55.44,84.27Zm-.29,35.36c-7.89-4.4-14.38-15.38-14.49-24.52s6.19-13,14.08-8.6S69.12,101.89,69.23,111,63,124,55.15,119.63Z"/></g><g class="cls-6"><path class="cls-7" d="M54.44,120.79C46.07,116,39.32,104.25,39.35,94.65c0-4.78,1.7-8.14,4.42-9.72L24.17,96.32c-2.72,1.58-4.4,4.94-4.42,9.71,0,9.61,6.73,21.31,15.1,26.15,4.2,2.42,8,2.65,10.76,1l19.6-11.39C62.46,123.44,58.65,123.22,54.44,120.79Z"/><path class="cls-19" d="M54.54,86c-4.21-2.43-8-2.66-10.77-1.06L24.17,96.32C26.92,94.72,30.73,95,35,97.38c8.36,4.82,15.11,16.53,15.08,26.13,0,4.78-1.7,8.14-4.42,9.72l19.6-11.39c2.72-1.58,4.4-4.94,4.42-9.71C69.65,102.52,62.9,90.82,54.54,86Z"/></g><g class="cls-6"><path class="cls-7" d="M21.07,125.64a5.07,5.07,0,0,1-1.76-1.87c-1-1.71-1-3.54,0-4.09l-5,2.91c-1,.55-1,2.38,0,4.09a5.17,5.17,0,0,0,1.77,1.87,1.77,1.77,0,0,0,1.78.17l5-2.91A1.77,1.77,0,0,1,21.07,125.64Z"/><path class="cls-7" d="M48.68,141.58a5.13,5.13,0,0,1-1.77-1.88c-1-1.71-1-3.53,0-4.09l-5,2.91c-1,.56-1,2.38,0,4.09a5.07,5.07,0,0,0,1.78,1.88,1.77,1.77,0,0,0,1.77.17l5-2.91A1.77,1.77,0,0,1,48.68,141.58Z"/><path class="cls-7" d="M21.16,93.92A5,5,0,0,1,19.4,92c-1-1.69-1-3.5,0-4.06l-5,2.91c-1,.56-1,2.37,0,4.06a5.13,5.13,0,0,0,1.77,1.88,1.77,1.77,0,0,0,1.78.17l5-2.91A1.77,1.77,0,0,1,21.16,93.92Z"/><path class="cls-20" d="M34.88,132.05C26.54,127.24,19.8,115.56,19.82,106c0-4.75,1.7-8.1,4.42-9.68l-5,2.91c-2.71,1.57-4.4,4.93-4.41,9.68,0,9.58,6.72,21.27,15.06,26.08,4.19,2.43,8,2.65,10.75,1l5-2.9C42.88,134.7,39.08,134.48,34.88,132.05Z"/><path class="cls-7" d="M48.77,109.86A5.09,5.09,0,0,1,47,108c-1-1.69-1-3.49,0-4.06l-5,2.91c-1,.57-1,2.37,0,4.06a5,5,0,0,0,1.78,1.89,1.75,1.75,0,0,0,1.77.16l5-2.91A1.75,1.75,0,0,1,48.77,109.86Z"/><path class="cls-21" d="M35,85.75c-7-4-13.34-4.41-17.92-1.75l-5,2.91C16.67,84.24,23,84.62,30,88.66c13.92,8,25.15,27.5,25.1,43.48,0,8-2.82,13.54-7.34,16.16l5-2.91c4.52-2.62,7.32-8.21,7.35-16.16C60.16,113.25,48.93,93.79,35,85.75Z"/><path class="cls-22" d="M30,88.66c-13.92-8-25.22-1.58-25.27,14.4s11.19,35.45,25.1,43.48,25.23,1.6,25.27-14.4S43.93,96.7,30,88.66ZM14.4,90.87a1.76,1.76,0,0,1,1.78.16A5.09,5.09,0,0,1,18,92.92c1,1.7,1,3.52,0,4.08a1.77,1.77,0,0,1-1.78-.17A5.13,5.13,0,0,1,14.39,95C13.4,93.24,13.4,91.42,14.4,90.87Zm3.45,37.85a1.77,1.77,0,0,1-1.78-.17,5.17,5.17,0,0,1-1.77-1.87c-1-1.71-1-3.54,0-4.09a1.77,1.77,0,0,1,1.78.17,5.09,5.09,0,0,1,1.77,1.87C18.86,126.34,18.85,128.17,17.85,128.72Zm12,6.24c-8.34-4.81-15.09-16.5-15.06-26.08S21.63,95.42,30,100.24,45.06,116.77,45,126.32,38.22,139.78,29.88,135Zm15.57,9.7a1.77,1.77,0,0,1-1.77-.17,5.07,5.07,0,0,1-1.78-1.88c-1-1.71-1-3.53,0-4.09a1.79,1.79,0,0,1,1.78.18,5.09,5.09,0,0,1,1.77,1.87C46.45,142.28,46.45,144.1,45.45,144.66Zm.09-31.73a1.75,1.75,0,0,1-1.77-.16A5,5,0,0,1,42,110.88c-1-1.71-1-3.53,0-4.07a1.76,1.76,0,0,1,1.78.16,5.13,5.13,0,0,1,1.77,1.88C46.54,110.55,46.54,112.37,45.54,112.93Z"/></g><g class="cls-6"><path class="cls-23" d="M77.78,58.44c0,1.21-.8,2.41-2.38,3.34a12.65,12.65,0,0,1-11.52,0c-1.6-.93-2.4-2.13-2.41-3.34s.78-2.41,2.37-3.33a12.72,12.72,0,0,1,11.54,0C77,56,77.78,57.23,77.78,58.44Z"/><path class="cls-24" d="M77.78,58.44V74.06A4.07,4.07,0,0,1,75.4,77.4a12.65,12.65,0,0,1-11.52,0,4.1,4.1,0,0,1-2.41-3.34V58.44c0,1.21.81,2.41,2.41,3.34a12.65,12.65,0,0,0,11.52,0C77,60.85,77.78,59.65,77.78,58.44Z"/><path class="cls-25" d="M77.78,58.44c0,1.21-.8,2.41-2.38,3.34a12.65,12.65,0,0,1-11.52,0c-1.6-.93-2.4-2.13-2.41-3.34Z"/></g><g class="cls-6"><path class="cls-26" d="M72.22,48a4.87,4.87,0,0,0-2.42-.57,4.92,4.92,0,0,0-2.4.57,1.74,1.74,0,0,0-1,1.4V52.7a1.71,1.71,0,0,1,1-1.39,5.32,5.32,0,0,1,4.83,0,1.69,1.69,0,0,1,1,1.38V49.35A1.71,1.71,0,0,0,72.22,48Z"/><polygon class="cls-26" points="73.46 51.46 73.45 54.8 77.06 52.71 77.06 49.37 73.46 51.46"/><polygon class="cls-26" points="62.58 49.37 62.57 52.71 66.2 54.8 66.21 51.46 62.58 49.37"/><path class="cls-27" d="M86.77,56.36a5,5,0,0,0-2.43-.58,4.82,4.82,0,0,0-2.4.58,1.67,1.67,0,0,0-1,1.39v3.34a1.68,1.68,0,0,1,1-1.39,4.83,4.83,0,0,1,2.41-.58,5,5,0,0,1,2.42.58,1.7,1.7,0,0,1,1,1.4V57.76A1.7,1.7,0,0,0,86.77,56.36Z"/><path class="cls-26" d="M57.78,56.36a5.3,5.3,0,0,0-4.82,0,1.7,1.7,0,0,0-1,1.39v3.34a1.7,1.7,0,0,1,1-1.39,5.3,5.3,0,0,1,4.82,0,1.7,1.7,0,0,1,1,1.4V57.76A1.7,1.7,0,0,0,57.78,56.36Z"/><polygon class="cls-28" points="80.75 59.86 80.74 63.2 84.37 65.3 84.38 61.95 80.75 59.86"/><path class="cls-29" d="M90.4,58.46l-6,3.49V65.3l6-3.5a.83.83,0,0,0,.49-.7V57.76A.85.85,0,0,1,90.4,58.46Z"/><polygon class="cls-29" points="55.4 61.95 55.39 65.3 59.01 63.2 59.02 59.85 55.4 61.95"/><path class="cls-30" d="M49.34,58.46a.87.87,0,0,1-.5-.71v3.34a.87.87,0,0,0,.5.71l6.06,3.5V62Z"/><polygon class="cls-29" points="73.53 64.06 73.52 67.4 80.74 63.2 80.75 59.86 73.53 64.06"/><polygon class="cls-28" points="59.02 59.85 59.01 63.2 66.27 67.39 66.28 64.05 59.02 59.85"/><path class="cls-31" d="M72.33,64.75a4.88,4.88,0,0,0-2.43-.57,5,5,0,0,0-2.41.57,1.69,1.69,0,0,0-1,1.39v3.34a1.7,1.7,0,0,1,1-1.39,5.42,5.42,0,0,1,4.84,0,1.73,1.73,0,0,1,1,1.41V66.15A1.73,1.73,0,0,0,72.33,64.75Z"/><polygon class="cls-29" points="71.14 69.65 71.13 72.99 77.15 69.49 77.16 66.15 71.14 69.65"/><polygon class="cls-28" points="62.67 66.15 62.66 69.49 68.72 72.99 68.73 69.65 62.67 66.15"/><path class="cls-32" d="M90.39,57.06l-6.06-3.5-3.61,2.1-7.26-4.2,3.6-2.09-6-3.5a2.65,2.65,0,0,0-2.42,0l-6,3.5,3.63,2.09L59,55.66l-3.64-2.1-6,3.5a.74.74,0,0,0,0,1.4L55.4,62,59,59.85l7.26,4.2-3.61,2.1,6.06,3.5a2.66,2.66,0,0,0,2.41,0l6-3.5-3.63-2.1,7.22-4.19L84.38,62l6-3.49A.74.74,0,0,0,90.39,57.06Zm-32.58,2.1a5,5,0,0,1-2.42.57A4.81,4.81,0,0,1,53,59.16c-1.34-.77-1.34-2,0-2.8a5.3,5.3,0,0,1,4.82,0,1.7,1.7,0,0,1,1,1.4A1.72,1.72,0,0,1,57.81,59.16ZM67.4,48a4.92,4.92,0,0,1,2.4-.57,4.87,4.87,0,0,1,2.42.57,1.48,1.48,0,0,1,0,2.8,4.92,4.92,0,0,1-2.42.58,4.82,4.82,0,0,1-2.42-.58C66.07,50,66.07,48.74,67.4,48Zm4.94,19.59a5.32,5.32,0,0,1-4.83,0c-1.34-.77-1.35-2,0-2.8a5,5,0,0,1,2.41-.57,4.88,4.88,0,0,1,2.43.57,1.73,1.73,0,0,1,1,1.4A1.69,1.69,0,0,1,72.34,67.55Zm14.44-8.39a5.32,5.32,0,0,1-4.83,0c-1.34-.77-1.35-2,0-2.8a4.82,4.82,0,0,1,2.4-.58,5,5,0,0,1,2.43.58,1.48,1.48,0,0,1,0,2.8Z"/><path class="cls-33" d="M68.73,69.65V73a2.66,2.66,0,0,0,2.41,0V69.65A2.66,2.66,0,0,1,68.73,69.65Z"/></g><g class="cls-6"><polygon class="cls-34" points="85 53.5 73.44 46.79 74.35 48.77 85.91 55.48 85 53.5"/><polygon class="cls-35" points="83.11 30.04 73.44 46.79 85 53.5 94.67 36.75 83.11 30.04"/><polygon class="cls-32" points="83.56 29.78 83.11 30.04 94.67 36.75 95.12 36.49 83.56 29.78"/><polygon class="cls-29" points="145.26 10.06 145.25 7.55 145.25 6.71 95.12 35.66 95.12 36.49 94.67 36.75 85 53.5 85.91 55.48 95.13 39.52 95.13 39.84 145.26 10.89 145.26 10.06"/><polygon class="cls-28" points="95.12 35.66 83.56 28.94 83.56 29.78 95.12 36.49 95.12 35.66"/><polygon class="cls-32" points="133.69 0 83.56 28.94 95.12 35.66 145.25 6.71 133.69 0"/></g><g class="cls-6"><path class="cls-36" d="M86.55,55.6a4.23,4.23,0,0,0-3.84,0,1.35,1.35,0,0,0-.79,1.1v1.67a1.33,1.33,0,0,1,.78-1.1,4.25,4.25,0,0,1,3.85,0,1.34,1.34,0,0,1,.8,1.12V56.72A1.35,1.35,0,0,0,86.55,55.6Z"/><path class="cls-37" d="M87.52,58.43a7.07,7.07,0,0,1-4.61.63l-5-1v1.67l5,1a7,7,0,0,0,4.62-.63,2.22,2.22,0,0,0,1.29-1.77V56.66A2.2,2.2,0,0,1,87.52,58.43Z"/><polygon class="cls-28" points="49.67 56.6 49.66 58.27 54.8 61.24 54.81 59.57 49.67 56.6"/><polygon class="cls-34" points="54.81 59.57 54.8 61.24 62.59 59.83 62.6 58.16 54.81 59.57"/><path class="cls-38" d="M76.58,58.83a14.11,14.11,0,0,1-12.81,0l-1.17-.67v1.67l1.18.67a14.11,14.11,0,0,0,12.81,0l1.31-.78V58.05Z"/><path class="cls-32" d="M87.5,54.78,70.09,44.73,49.67,56.6l5.14,3,7.79-1.41,1.17.67a14.11,14.11,0,0,0,12.81,0l1.32-.78,5,1a7.07,7.07,0,0,0,4.61-.63,2.16,2.16,0,0,0,1.29-1.83A2.24,2.24,0,0,0,87.5,54.78Zm-.93,3a4.2,4.2,0,0,1-3.84,0c-1.06-.61-1.08-1.61,0-2.22a4.23,4.23,0,0,1,3.84,0A1.17,1.17,0,0,1,86.57,57.82Z"/></g><g class="cls-6"><path class="cls-39" d="M73.3,50.27a6.8,6.8,0,0,0-6.12,0A2.2,2.2,0,0,0,65.92,52v3.34a2.14,2.14,0,0,1,1.25-1.75,6.74,6.74,0,0,1,6.12,0,2.13,2.13,0,0,1,1.27,1.78V52.06A2.16,2.16,0,0,0,73.3,50.27Z"/><g class="cls-6"><path class="cls-40" d="M73.91,52.05a1.82,1.82,0,0,1-1.07,1.49,5.68,5.68,0,0,1-5.17,0,1.58,1.58,0,0,1,0-3,5.73,5.73,0,0,1,5.18,0A1.84,1.84,0,0,1,73.91,52.05Z"/><path class="cls-41" d="M73.91,52.05V55a1.82,1.82,0,0,1-1.07,1.49,5.68,5.68,0,0,1-5.17,0A1.83,1.83,0,0,1,66.59,55V52.05a1.83,1.83,0,0,0,1.08,1.49,5.68,5.68,0,0,0,5.17,0A1.82,1.82,0,0,0,73.91,52.05Z"/><path class="cls-42" d="M73.91,52.05a1.82,1.82,0,0,1-1.07,1.49,5.68,5.68,0,0,1-5.17,0,1.83,1.83,0,0,1-1.08-1.49Z"/></g><polygon class="cls-29" points="75.64 55.16 75.63 58.5 77.57 54.25 77.58 50.91 75.64 55.16"/><path class="cls-32" d="M72.19,47.8l-7.33,1.13-1.94,4.25,5.39,3.11,7.33-1.13,1.94-4.25Zm1.13,6a6.74,6.74,0,0,1-6.12,0c-1.69-1-1.7-2.57,0-3.55a6.8,6.8,0,0,1,6.12,0C75,51.25,75,52.84,73.32,53.82Z"/><path class="cls-43" d="M72.14,48.06,77.26,51l-1.79,3.92L68.36,56l-5.12-3L65,49.16l7.11-1.1m0-.26-7.33,1.13-1.94,4.25,5.39,3.11,7.33-1.13,1.94-4.25L72.19,47.8Z"/><polygon class="cls-34" points="68.31 56.3 68.3 59.64 75.63 58.5 75.64 55.16 68.31 56.3"/><polygon class="cls-28" points="62.92 53.18 62.91 56.52 68.3 59.64 68.31 56.3 62.92 53.18"/></g></g></g></g></svg>