<svg xmlns="http://www.w3.org/2000/svg" xmlns:xlink="http://www.w3.org/1999/xlink" viewBox="0 0 150 150"><defs><style>.cls-1,.cls-2{fill:none;}.cls-2{stroke:#fff;stroke-miterlimit:10;stroke-width:0.1px;}.cls-3{opacity:0;}.cls-4{fill:#000714;}.cls-5{opacity:0.1;fill:url(#新建图案);}.cls-6{isolation:isolate;}.cls-7{fill:url(#未命名的渐变_78);}.cls-8{mix-blend-mode:overlay;}.cls-9{fill:url(#未命名的渐变_3);}.cls-10{fill:url(#未命名的渐变_118);}.cls-11{fill:url(#未命名的渐变_73);}.cls-12{fill:url(#未命名的渐变_78-2);}.cls-13{fill:url(#未命名的渐变_78-3);}.cls-14{fill:url(#未命名的渐变_3-2);}.cls-15{opacity:0.5;}.cls-16{fill:url(#未命名的渐变_57);}.cls-17{fill:url(#未命名的渐变_65);}.cls-18{fill:url(#未命名的渐变_118-2);}.cls-19{fill:url(#未命名的渐变_3-3);}.cls-20{fill:url(#未命名的渐变_118-3);}.cls-21{fill:url(#未命名的渐变_78-4);}.cls-22{opacity:0.2;}</style><pattern id="新建图案" data-name="新建图案" width="18.57" height="32.16" patternTransform="translate(3308.91 727.44)" patternUnits="userSpaceOnUse" viewBox="0 0 18.57 32.16"><rect class="cls-1" width="18.57" height="32.16"/><polyline class="cls-2" points="18.57 21.44 18.57 32.16 18.57 42.88"/><polyline class="cls-2" points="9.29 26.8 18.57 32.16 27.85 37.51 27.85 37.52"/><polyline class="cls-2" points="9.29 37.52 9.29 37.51 18.57 32.16 27.85 26.8"/><polygon class="cls-2" points="27.85 37.52 27.85 26.8 18.57 21.44 9.28 26.8 9.28 37.52 18.57 42.88 27.85 37.52"/><polyline class="cls-2" points="0 21.44 0 32.16 0 42.88"/><polyline class="cls-2" points="-9.28 26.8 0 32.16 9.28 37.51 9.28 37.52"/><polyline class="cls-2" points="-9.28 37.52 -9.28 37.51 0 32.16 9.28 26.8"/><polygon class="cls-2" points="9.28 37.52 9.28 26.8 0 21.44 -9.29 26.8 -9.29 37.52 0 42.88 9.28 37.52"/><polyline class="cls-2" points="18.57 10.72 27.85 16.08 37.13 21.43 37.13 21.44"/><polyline class="cls-2" points="18.57 21.44 18.57 21.43 27.85 16.08 37.13 10.72"/><polygon class="cls-2" points="37.14 21.44 37.14 10.72 27.85 5.36 18.57 10.72 18.57 21.44 27.85 26.8 37.14 21.44"/><polyline class="cls-2" points="9.29 5.36 9.29 16.08 9.29 26.8"/><polyline class="cls-2" points="0.01 10.72 9.29 16.08 18.57 21.43 18.57 21.44"/><polyline class="cls-2" points="0.01 21.44 0.01 21.43 9.29 16.08 18.57 10.72"/><polygon class="cls-2" points="18.57 21.44 18.57 10.72 9.28 5.36 0 10.72 0 21.44 9.28 26.8 18.57 21.44"/><polyline class="cls-2" points="-18.56 10.72 -9.28 16.08 0 21.43 0 21.44"/><polyline class="cls-2" points="-18.56 21.44 -18.56 21.43 -9.28 16.08 0 10.72"/><polygon class="cls-2" points="0 21.44 0 10.72 -9.29 5.36 -18.57 10.72 -18.57 21.44 -9.29 26.8 0 21.44"/><polyline class="cls-2" points="18.57 -10.72 18.57 0 18.57 10.72"/><polyline class="cls-2" points="9.29 -5.36 18.57 0 27.85 5.35 27.85 5.36"/><polyline class="cls-2" points="9.29 5.36 9.29 5.35 18.57 0 27.85 -5.36"/><polygon class="cls-2" points="27.85 5.36 27.85 -5.36 18.57 -10.72 9.28 -5.36 9.28 5.36 18.57 10.72 27.85 5.36"/><polyline class="cls-2" points="0 -10.72 0 0 0 10.72"/><polyline class="cls-2" points="-9.28 -5.36 0 0 9.28 5.35 9.28 5.36"/><polyline class="cls-2" points="-9.28 5.36 -9.28 5.35 0 0 9.28 -5.36"/><polygon class="cls-2" points="9.28 5.36 9.28 -5.36 0 -10.72 -9.29 -5.36 -9.29 5.36 0 10.72 9.28 5.36"/></pattern><linearGradient id="未命名的渐变_78" x1="52.81" y1="73.37" x2="114.29" y2="73.37" gradientUnits="userSpaceOnUse"><stop offset="0" stop-color="#8ce2ff"/><stop offset="1" stop-color="#44b6ff"/></linearGradient><linearGradient id="未命名的渐变_3" x1="86.6" y1="121.34" x2="121.47" y2="86.48" gradientUnits="userSpaceOnUse"><stop offset="0" stop-color="#0073e6"/><stop offset="1" stop-color="#143ccc"/></linearGradient><linearGradient id="未命名的渐变_118" x1="98.8" y1="123.49" x2="47.78" y2="72.47" gradientUnits="userSpaceOnUse"><stop offset="0" stop-color="#2f77eb"/><stop offset="1" stop-color="#59c8ff"/></linearGradient><linearGradient id="未命名的渐变_73" x1="84.69" y1="71.27" x2="101.65" y2="71.27" gradientUnits="userSpaceOnUse"><stop offset="0" stop-color="#0073e6"/><stop offset="0.15" stop-color="#59c8ff"/><stop offset="0.25" stop-color="#59c8ff"/><stop offset="0.85" stop-color="#1433cc"/><stop offset="1" stop-color="#0073e6"/></linearGradient><linearGradient id="未命名的渐变_78-2" x1="84.76" y1="57.03" x2="101.65" y2="57.03" xlink:href="#未命名的渐变_78"/><linearGradient id="未命名的渐变_78-3" x1="36.05" y1="16" x2="91.26" y2="16" xlink:href="#未命名的渐变_78"/><linearGradient id="未命名的渐变_3-2" x1="31.07" y1="124.15" x2="117.12" y2="38.1" xlink:href="#未命名的渐变_3"/><linearGradient id="未命名的渐变_57" x1="98.42" y1="123.25" x2="49.78" y2="39" gradientUnits="userSpaceOnUse"><stop offset="0" stop-color="#fff" stop-opacity="0.3"/><stop offset="1" stop-color="#fff"/></linearGradient><linearGradient id="未命名的渐变_65" x1="98.54" y1="123.46" x2="49.65" y2="38.78" gradientUnits="userSpaceOnUse"><stop offset="0"/><stop offset="1" stop-opacity="0.3"/></linearGradient><linearGradient id="未命名的渐变_118-2" x1="84.27" y1="122.66" x2="8.71" y2="47.1" xlink:href="#未命名的渐变_118"/><linearGradient id="未命名的渐变_3-3" x1="79.55" y1="85.53" x2="85.92" y2="79.15" xlink:href="#未命名的渐变_3"/><linearGradient id="未命名的渐变_118-3" x1="79.72" y1="84.9" x2="78.06" y2="83.24" xlink:href="#未命名的渐变_118"/><linearGradient id="未命名的渐变_78-4" x1="78.46" y1="81.11" x2="86.16" y2="81.11" xlink:href="#未命名的渐变_78"/></defs><title>控制柜</title><g id="图层_2" data-name="图层 2"><g id="图元"><g id="控制柜"><g id="背景" class="cls-3"><rect class="cls-4" width="150" height="150"/><rect id="网格" class="cls-5" width="150" height="150"/></g><g class="cls-6"><polygon class="cls-7" points="73.22 55.59 52.81 67.44 93.88 91.16 114.29 79.3 73.22 55.59"/><g class="cls-8"><polygon points="73.22 55.59 52.81 67.44 93.88 91.16 114.29 79.3 73.22 55.59"/></g><polygon class="cls-9" points="93.88 91.16 93.78 128.52 114.18 116.66 114.29 79.3 93.88 91.16"/><polygon class="cls-10" points="52.81 67.44 52.7 104.81 93.78 128.52 93.88 91.16 52.81 67.44"/><g class="cls-8"><polygon points="52.81 67.44 52.7 104.81 93.78 128.52 93.88 91.16 52.81 67.44"/></g></g><g class="cls-6"><path class="cls-11" d="M99.19,60.49a13.19,13.19,0,0,1-11.94,0c-1.66-1-2.49-2.23-2.49-3.49l-.07,23.6c0,1.26.83,2.52,2.5,3.48a13.14,13.14,0,0,0,11.93,0c1.64-1,2.46-2.19,2.46-3.44l.07-23.6C101.64,58.3,100.83,59.54,99.19,60.49Z"/><path class="cls-12" d="M99.16,53.58a13.18,13.18,0,0,0-12,0c-3.28,1.9-3.27,5,0,6.92a13.19,13.19,0,0,0,11.94,0C102.48,58.58,102.46,55.48,99.16,53.58Z"/><g class="cls-8"><path d="M99.16,53.58a13.18,13.18,0,0,0-12,0c-3.28,1.9-3.27,5,0,6.92a13.19,13.19,0,0,0,11.94,0C102.48,58.58,102.46,55.48,99.16,53.58Z"/></g></g><g class="cls-6"><polygon class="cls-13" points="70.05 0 36.05 19.76 57.26 32.01 91.27 12.25 70.05 0"/><polygon class="cls-14" points="57.26 32.01 56.93 150 90.93 130.24 91.27 12.25 57.26 32.01"/><g class="cls-15"><g class="cls-8"><path class="cls-16" d="M88.59,16.88l-.32,111.83L59.6,145.37l.32-111.83L88.59,16.88m.25-.43-29.17,17-.32,112.4,29.17-17,.32-112.4Z"/></g><g class="cls-8"><path class="cls-17" d="M88.84,16.45l-.32,112.4-29.17,17,.32-112.4L88.84,16.45m.25-.44-.38.22-29.17,17-.12.07v.15L59.1,145.8v.44l.38-.22,29.17-17,.12-.08v-.14l.32-112.4V16Z"/></g></g><polygon class="cls-18" points="36.05 19.76 35.71 137.75 56.93 150 57.26 32.01 36.05 19.76"/><g class="cls-6"><polygon class="cls-19" points="86.16 79.38 79.31 83.34 79.31 85.3 86.16 81.35 86.16 79.38"/><polygon class="cls-20" points="79.31 83.34 78.46 82.84 78.47 84.81 79.31 85.3 79.31 83.34"/><polygon class="cls-21" points="85.31 78.89 78.46 82.84 79.31 83.34 86.16 79.38 85.31 78.89"/></g></g>
</g></g></g></svg>