<svg xmlns="http://www.w3.org/2000/svg" xmlns:xlink="http://www.w3.org/1999/xlink" viewBox="0 0 150 150"><defs><style>.cls-1,.cls-2{fill:none;}.cls-2{stroke:#fff;stroke-miterlimit:10;stroke-width:0.1px;}.cls-3{opacity:0;}.cls-4{fill:#000714;}.cls-5{opacity:0.1;fill:url(#新建图案);}.cls-6{isolation:isolate;}.cls-7{fill:url(#未命名的渐变_38);}.cls-8{fill:url(#未命名的渐变_112);}.cls-9{fill:url(#未命名的渐变_13);}.cls-10{fill:url(#未命名的渐变_38-2);}.cls-11{fill:url(#未命名的渐变_497);}.cls-12{fill:url(#未命名的渐变_497-2);}.cls-13{fill:url(#未命名的渐变_497-3);}.cls-14{fill:url(#未命名的渐变_497-4);}.cls-15{fill:url(#未命名的渐变_38-3);}.cls-16{fill:url(#未命名的渐变_38-4);}.cls-17{fill:url(#未命名的渐变_112-2);}.cls-18{fill:url(#未命名的渐变_13-2);}.cls-19{fill:url(#未命名的渐变_38-5);}.cls-20{fill:url(#未命名的渐变_112-3);}.cls-21{fill:url(#未命名的渐变_112-4);}.cls-22{fill:url(#未命名的渐变_21);}.cls-23{fill:url(#未命名的渐变_58);}.cls-24{fill:url(#未命名的渐变_38-6);}.cls-25{fill:url(#未命名的渐变_38-7);}.cls-26{fill:url(#未命名的渐变_112-5);}.cls-27{fill:url(#未命名的渐变_13-3);}.cls-28{fill:url(#未命名的渐变_21-2);}.cls-29{fill:url(#未命名的渐变_21-3);}.cls-30{fill:url(#未命名的渐变_21-5);}.cls-31{fill:url(#未命名的渐变_38-8);}.cls-32{fill:url(#未命名的渐变_112-6);}.cls-33{fill:url(#未命名的渐变_13-4);}.cls-34{fill:url(#未命名的渐变_110);}.cls-35{fill:url(#未命名的渐变_110-2);}.cls-36{fill:url(#未命名的渐变_110-3);}.cls-37{fill:url(#未命名的渐变_90);}.cls-38{fill:url(#未命名的渐变_38-9);}.cls-39{fill:url(#未命名的渐变_8);}.cls-40{fill:url(#未命名的渐变_100);}.cls-41{fill:url(#未命名的渐变_17283);}.cls-42{fill:url(#未命名的渐变_110-4);}.cls-43{fill:url(#未命名的渐变_110-5);}.cls-44{fill:url(#未命名的渐变_110-6);}.cls-45{fill:url(#未命名的渐变_497-5);}.cls-46{fill:url(#未命名的渐变_21-6);}.cls-47{fill:url(#未命名的渐变_58-2);}.cls-48{fill:url(#未命名的渐变_38-10);}.cls-49{opacity:0.2;}</style><pattern id="新建图案" data-name="新建图案" width="18.57" height="32.16" patternTransform="translate(492.84 455.16)" patternUnits="userSpaceOnUse" viewBox="0 0 18.57 32.16"><rect class="cls-1" width="18.57" height="32.16"/><polyline class="cls-2" points="18.57 21.44 18.57 32.16 18.57 42.88"/><polyline class="cls-2" points="9.29 26.8 18.57 32.16 27.85 37.51 27.85 37.52"/><polyline class="cls-2" points="9.29 37.52 9.29 37.51 18.57 32.16 27.85 26.8"/><polygon class="cls-2" points="27.85 37.52 27.85 26.8 18.57 21.44 9.28 26.8 9.28 37.52 18.57 42.88 27.85 37.52"/><polyline class="cls-2" points="0 21.44 0 32.16 0 42.88"/><polyline class="cls-2" points="-9.28 26.8 0 32.16 9.28 37.51 9.28 37.52"/><polyline class="cls-2" points="-9.28 37.52 -9.28 37.51 0 32.16 9.28 26.8"/><polygon class="cls-2" points="9.28 37.52 9.28 26.8 0 21.44 -9.29 26.8 -9.29 37.52 0 42.88 9.28 37.52"/><polyline class="cls-2" points="18.57 10.72 27.85 16.08 37.13 21.43 37.13 21.44"/><polyline class="cls-2" points="18.57 21.44 18.57 21.43 27.85 16.08 37.13 10.72"/><polygon class="cls-2" points="37.14 21.44 37.14 10.72 27.85 5.36 18.57 10.72 18.57 21.44 27.85 26.8 37.14 21.44"/><polyline class="cls-2" points="9.29 5.36 9.29 16.08 9.29 26.8"/><polyline class="cls-2" points="0.01 10.72 9.29 16.08 18.57 21.43 18.57 21.44"/><polyline class="cls-2" points="0.01 21.44 0.01 21.43 9.29 16.08 18.57 10.72"/><polygon class="cls-2" points="18.57 21.44 18.57 10.72 9.28 5.36 0 10.72 0 21.44 9.28 26.8 18.57 21.44"/><polyline class="cls-2" points="-18.56 10.72 -9.28 16.08 0 21.43 0 21.44"/><polyline class="cls-2" points="-18.56 21.44 -18.56 21.43 -9.28 16.08 0 10.72"/><polygon class="cls-2" points="0 21.44 0 10.72 -9.29 5.36 -18.57 10.72 -18.57 21.44 -9.29 26.8 0 21.44"/><polyline class="cls-2" points="18.57 -10.72 18.57 0 18.57 10.72"/><polyline class="cls-2" points="9.29 -5.36 18.57 0 27.85 5.35 27.85 5.36"/><polyline class="cls-2" points="9.29 5.36 9.29 5.35 18.57 0 27.85 -5.36"/><polygon class="cls-2" points="27.85 5.36 27.85 -5.36 18.57 -10.72 9.28 -5.36 9.28 5.36 18.57 10.72 27.85 5.36"/><polyline class="cls-2" points="0 -10.72 0 0 0 10.72"/><polyline class="cls-2" points="-9.28 -5.36 0 0 9.28 5.35 9.28 5.36"/><polyline class="cls-2" points="-9.28 5.36 -9.28 5.35 0 0 9.28 -5.36"/><polygon class="cls-2" points="9.28 5.36 9.28 -5.36 0 -10.72 -9.29 -5.36 -9.29 5.36 0 10.72 9.28 5.36"/></pattern><linearGradient id="未命名的渐变_38" x1="81.64" y1="152.42" x2="42.6" y2="113.37" gradientUnits="userSpaceOnUse"><stop offset="0" stop-color="#425266"/><stop offset="1" stop-color="#596b8c"/></linearGradient><linearGradient id="未命名的渐变_112" x1="79.31" y1="145.25" x2="86.6" y2="137.96" gradientUnits="userSpaceOnUse"><stop offset="0" stop-color="#283140"/><stop offset="0.34" stop-color="#232b37"/><stop offset="0.9" stop-color="#15191f"/><stop offset="1" stop-color="#12161a"/></linearGradient><linearGradient id="未命名的渐变_13" x1="42.32" y1="123.43" x2="81.85" y2="123.43" gradientUnits="userSpaceOnUse"><stop offset="0" stop-color="#89abe6"/><stop offset="1" stop-color="#547099"/></linearGradient><linearGradient id="未命名的渐变_38-2" x1="103.94" y1="70.02" x2="79.04" y2="45.11" xlink:href="#未命名的渐变_38"/><linearGradient id="未命名的渐变_497" x1="97.4" y1="67.4" x2="85.94" y2="47.55" gradientUnits="userSpaceOnUse"><stop offset="0" stop-color="#283140"/><stop offset="0.1" stop-color="#12161a"/><stop offset="0.75" stop-color="#7a98cc"/><stop offset="0.85" stop-color="#7a98cc"/><stop offset="1" stop-color="#38455a"/></linearGradient><linearGradient id="未命名的渐变_497-2" x1="105.96" y1="70" x2="87.95" y2="38.81" xlink:href="#未命名的渐变_497"/><linearGradient id="未命名的渐变_497-3" x1="95.32" y1="69.33" x2="83.23" y2="48.39" xlink:href="#未命名的渐变_497"/><linearGradient id="未命名的渐变_497-4" x1="85.04" y1="76.76" x2="71.7" y2="53.65" xlink:href="#未命名的渐变_497"/><linearGradient id="未命名的渐变_38-3" x1="75.39" y1="81.48" x2="56.98" y2="63.06" xlink:href="#未命名的渐变_38"/><linearGradient id="未命名的渐变_38-4" x1="82.13" y1="48.81" x2="61.82" y2="28.5" xlink:href="#未命名的渐变_38"/><linearGradient id="未命名的渐变_112-2" x1="63.58" y1="49.97" x2="92.36" y2="21.19" xlink:href="#未命名的渐变_112"/><linearGradient id="未命名的渐变_13-2" x1="71.68" y1="15.57" x2="83.67" y2="15.57" xlink:href="#未命名的渐变_13"/><linearGradient id="未命名的渐变_38-5" x1="111.45" y1="114.07" x2="77.89" y2="80.51" xlink:href="#未命名的渐变_38"/><linearGradient id="未命名的渐变_112-3" x1="79.92" y1="93.77" x2="121.06" y2="93.77" xlink:href="#未命名的渐变_112"/><linearGradient id="未命名的渐变_112-4" x1="109.42" y1="112.58" x2="121.06" y2="112.58" xlink:href="#未命名的渐变_112"/><linearGradient id="未命名的渐变_21" x1="103.74" y1="123.05" x2="41.9" y2="15.94" gradientUnits="userSpaceOnUse"><stop offset="0" stop-color="#38455a"/><stop offset="0.15" stop-color="#7a98cc"/><stop offset="0.25" stop-color="#7a98cc"/><stop offset="0.9" stop-color="#12161a"/><stop offset="1" stop-color="#283140"/></linearGradient><linearGradient id="未命名的渐变_58" x1="137.67" y1="108.18" x2="71.74" y2="-6.01" gradientUnits="userSpaceOnUse"><stop offset="0" stop-color="#283140"/><stop offset="0.1" stop-color="#12161a"/><stop offset="0.75" stop-color="#8aace6"/><stop offset="0.85" stop-color="#89abe6"/><stop offset="1" stop-color="#38455a"/></linearGradient><linearGradient id="未命名的渐变_38-6" x1="133.13" y1="106.59" x2="41.94" y2="15.41" xlink:href="#未命名的渐变_38"/><linearGradient id="未命名的渐变_38-7" x1="113.65" y1="134.41" x2="75.15" y2="95.91" xlink:href="#未命名的渐变_38"/><linearGradient id="未命名的渐变_112-5" x1="111.32" y1="127.25" x2="118.35" y2="120.21" xlink:href="#未命名的渐变_112"/><linearGradient id="未命名的渐变_13-3" x1="110.48" y1="116.61" x2="111.84" y2="116.61" xlink:href="#未命名的渐变_13"/><linearGradient id="未命名的渐变_21-2" x1="53.02" y1="17.58" x2="49.46" y2="11.42" xlink:href="#未命名的渐变_21"/><linearGradient id="未命名的渐变_21-3" x1="57.41" y1="7.03" x2="57.39" y2="7" xlink:href="#未命名的渐变_21"/><linearGradient id="未命名的渐变_21-5" x1="90.61" y1="130.82" x2="28.62" y2="23.46" xlink:href="#未命名的渐变_21"/><linearGradient id="未命名的渐变_38-8" x1="56.25" y1="78.13" x2="41.88" y2="63.76" xlink:href="#未命名的渐变_38"/><linearGradient id="未命名的渐变_112-6" x1="63.91" y1="67.22" x2="72.81" y2="67.22" xlink:href="#未命名的渐变_112"/><linearGradient id="未命名的渐变_13-4" x1="33.87" y1="67.37" x2="72.28" y2="67.37" xlink:href="#未命名的渐变_13"/><linearGradient id="未命名的渐变_110" x1="58.76" y1="87.82" x2="43.61" y2="72.67" gradientUnits="userSpaceOnUse"><stop offset="0" stop-color="#283140"/><stop offset="0.8" stop-color="#89abe6"/><stop offset="1" stop-color="#283140"/></linearGradient><linearGradient id="未命名的渐变_110-2" x1="56.44" y1="78.41" x2="29.94" y2="51.91" xlink:href="#未命名的渐变_110"/><linearGradient id="未命名的渐变_110-3" x1="87.58" y1="114.98" x2="64.03" y2="91.43" xlink:href="#未命名的渐变_110"/><linearGradient id="未命名的渐变_90" x1="73.55" y1="82.09" x2="50.16" y2="68.58" gradientUnits="userSpaceOnUse"><stop offset="0" stop-color="#283140"/><stop offset="0.1" stop-color="#12161a"/><stop offset="0.65" stop-color="#89abe6"/><stop offset="0.69" stop-color="#89abe6"/><stop offset="1" stop-color="#283140"/></linearGradient><linearGradient id="未命名的渐变_38-9" x1="66.08" y1="84.77" x2="50.75" y2="69.44" xlink:href="#未命名的渐变_38"/><linearGradient id="未命名的渐变_8" x1="76.39" y1="83.81" x2="61.6" y2="58.2" gradientUnits="userSpaceOnUse"><stop offset="0" stop-color="#0073e6"/><stop offset="0.1" stop-color="#1433cc"/><stop offset="0.76" stop-color="#59c8ff"/><stop offset="0.84" stop-color="#59c8ff"/><stop offset="1" stop-color="#0073e6"/></linearGradient><linearGradient id="未命名的渐变_100" x1="59.64" y1="78.52" x2="57.78" y2="75.3" gradientUnits="userSpaceOnUse"><stop offset="0" stop-color="#0073e6"/><stop offset="0.1" stop-color="#1433cc"/><stop offset="0.8" stop-color="#59c8ff"/><stop offset="1" stop-color="#0073e6"/></linearGradient><linearGradient id="未命名的渐变_17283" x1="56.58" y1="77.38" x2="59.21" y2="77.38" gradientUnits="userSpaceOnUse"><stop offset="0" stop-color="#2f77eb"/><stop offset="1" stop-color="#59c8ff"/></linearGradient><linearGradient id="未命名的渐变_110-4" x1="60.82" y1="63.15" x2="29.59" y2="31.92" xlink:href="#未命名的渐变_110"/><linearGradient id="未命名的渐变_110-5" x1="96.42" y1="80.47" x2="75.74" y2="59.79" xlink:href="#未命名的渐变_110"/><linearGradient id="未命名的渐变_110-6" x1="106.22" y1="106.68" x2="77.18" y2="77.63" xlink:href="#未命名的渐变_110"/><linearGradient id="未命名的渐变_497-5" x1="121.53" y1="112.97" x2="59.54" y2="5.6" xlink:href="#未命名的渐变_497"/><linearGradient id="未命名的渐变_21-6" x1="77.23" y1="138.48" x2="15.39" y2="31.37" xlink:href="#未命名的渐变_21"/><linearGradient id="未命名的渐变_58-2" x1="111.16" y1="123.61" x2="45.24" y2="9.42" xlink:href="#未命名的渐变_58"/><linearGradient id="未命名的渐变_38-10" x1="106.62" y1="122.03" x2="15.43" y2="30.84" xlink:href="#未命名的渐变_38"/></defs><title>收集风机</title><g id="图层_2" data-name="图层 2"><g id="图层_1-2" data-name="图层 1"><g id="收集风机"><g class="cls-3"><rect class="cls-4" width="150" height="150"/><rect id="网格" class="cls-5" width="150" height="150"/></g><g class="cls-6"><polygon class="cls-7" points="79.03 134.85 42.31 113.65 37.22 122.96 84.06 150 79.03 134.85"/><polygon class="cls-8" points="81.85 133.21 79.03 134.85 84.06 150 86.88 148.36 81.85 133.21"/><polygon class="cls-9" points="45.13 112.01 42.31 113.65 79.03 134.85 81.85 133.21 45.13 112.01"/></g><g class="cls-6"><path class="cls-10" d="M91.31,42.76c-7.06-3.93-12.69-.49-12.59,7.69s5.9,18,13,21.92,12.69.49,12.59-7.69S98.36,46.69,91.31,42.76ZM91.61,67c-4.49-2.5-8.18-8.74-8.24-13.94s3.52-7.39,8-4.89,8.18,8.74,8.24,13.94S96.09,69.48,91.61,67Z"/><path class="cls-11" d="M91.37,48.15c-2.2-1.23-4.19-1.33-5.63-.49l-5.36,3.12c1.44-.84,3.43-.75,5.64.48,4.49,2.5,8.17,8.74,8.24,13.94,0,2.65-.88,4.51-2.37,5.38l5.35-3.11c1.5-.87,2.41-2.73,2.37-5.38C99.55,56.89,95.86,50.65,91.37,48.15Z"/><path class="cls-12" d="M93.26,41.63c-3.47-1.93-6.6-2.08-8.87-.77l-2,1.14c2.27-1.32,5.4-1.17,8.87.76,7,3.93,12.85,13.75,13,21.92,0,4.16-1.38,7.09-3.72,8.45L102.49,72c2.34-1.36,3.77-4.29,3.72-8.45C106.11,55.37,100.31,45.56,93.26,41.63Z"/><path class="cls-13" d="M86,51.26a7.88,7.88,0,0,0-2.71-1l-2.68-.4A9.5,9.5,0,0,1,83.77,51c5.22,2.91,9.51,10.17,9.58,16.22a9.37,9.37,0,0,1-.57,3.56l1-2.53a8.31,8.31,0,0,0,.49-3.07C94.19,60,90.51,53.76,86,51.26Z"/><path class="cls-14" d="M83.77,51c-2.56-1.43-4.87-1.54-6.55-.56L59.49,60.76c1.68-1,4-.87,6.56.56,5.22,2.91,9.51,10.17,9.58,16.21,0,3.08-1,5.25-2.76,6.25L90.6,73.49c1.73-1,2.79-3.18,2.75-6.25C93.28,61.19,89,53.93,83.77,51Z"/><path class="cls-15" d="M66.05,61.32c-5.22-2.9-9.38-.36-9.31,5.69s4.36,13.3,9.58,16.21,9.38.36,9.31-5.69S71.27,64.23,66.05,61.32Z"/></g><g class="cls-6"><path class="cls-16" d="M71.68,18.64l-.11,39.63.41.22.3.18.11-39.62Z"/><polygon class="cls-17" points="72.39 19.05 72.28 58.67 83.56 52.11 83.67 12.5 72.39 19.05"/><polygon class="cls-18" points="82.96 12.09 71.68 18.64 72.39 19.05 83.67 12.5 82.96 12.09"/></g><g class="cls-6"><path class="cls-19" d="M79.92,78.48a3.7,3.7,0,0,1-.37.49l29.87,37.13.36-.5Z"/><polygon class="cls-20" points="91.2 71.93 79.92 78.48 109.78 115.6 121.06 109.05 91.2 71.93"/><polygon class="cls-21" points="109.78 115.6 109.42 116.1 120.7 109.55 121.06 109.05 109.78 115.6"/></g><g class="cls-6"><path class="cls-22" d="M88.83,110.6c-24.2-14-43.82-48-43.74-75.78C45.13,21,50,11.28,57.91,6.7l-1.44.84c-7.89,4.58-12.78,14.31-12.82,28.12-.08,27.81,19.54,61.8,43.74,75.78,12.18,7,23.23,7.67,31.21,3l1.45-.84C112.06,118.27,101,117.63,88.83,110.6Z"/><path class="cls-23" d="M89.13,6.4c-13-7.5-24.77-8.18-33.28-3.23L54.41,4C62.92-.94,74.7-.26,87.69,7.24,113.48,22.13,134.41,58.37,134.32,88c0,14.73-5.26,25.1-13.66,30l1.44-.84c8.4-4.88,13.62-15.26,13.66-30C135.85,57.53,114.93,21.29,89.13,6.4Z"/><path class="cls-24" d="M87.69,7.24C61.89-7.66,40.83,4.34,40.74,34s20.84,65.89,46.64,80.79,46.86,2.89,46.94-26.76S113.48,22.13,87.69,7.24Zm-.3,104.2c-24.2-14-43.82-48-43.74-75.78s19.83-39.06,44-25.09,43.82,48,43.74,75.77S111.59,125.41,87.39,111.44Z"/></g><g class="cls-6"><path class="cls-25" d="M116.06,132,69.24,105,73,98.05A73.65,73.65,0,0,0,88.84,110.6c7.86,4.54,15.24,6.41,21.64,5.92l.56.32Z"/><path class="cls-26" d="M118.89,130.36,116.06,132l-5-15.16.8-.46c.77-.1,1.53-.24,2.27-.41Z"/><path class="cls-27" d="M111.84,116.38l-.8.46-.56-.32C110.94,116.49,111.39,116.44,111.84,116.38Z"/><path class="cls-28" d="M56.52,7.34l.35,0-.41.24c-4.9,2.85-8.65,7.71-10.79,14.29C47.8,15.14,51.57,10.22,56.52,7.34Z"/><path class="cls-29" d="M56.87,7.29l1-.59L57,7.28Z"/><path class="cls-22" d="M88.83,110.6c-24.2-14-43.82-48-43.74-75.78C45.13,21,50,11.28,57.91,6.7l-1.44.84c-7.89,4.58-12.78,14.31-12.82,28.12-.08,27.81,19.54,61.8,43.74,75.78,12.18,7,23.23,7.67,31.21,3l1.45-.84C112.06,118.27,101,117.63,88.83,110.6Z"/></g><g class="cls-6"><path class="cls-30" d="M87.5,111.4c-24.27-14-43.88-48-43.8-75.87,0-13.85,4.93-23.6,12.82-28.18L31.37,22c-7.88,4.59-12.78,14.33-12.82,28.19C18.48,78,38.09,112,62.35,126c12.22,7,23.29,7.7,31.28,3.06l25.14-14.61C110.78,119.11,99.72,118.45,87.5,111.4Z"/><g class="cls-6"><path class="cls-31" d="M63.91,69.19l-30,2.58.36.92L64.27,70.1C64.14,69.8,64,69.49,63.91,69.19Z"/><path class="cls-32" d="M72.81,65.13l-8.53,5c0-.09-.08-.17-.11-.25s-.09-.21-.13-.32-.08-.23-.13-.34l8.37-4.86Z"/><polygon class="cls-33" points="72.28 64.33 63.91 69.19 33.87 71.78 45.14 65.22 71.37 62.97 72.28 64.33"/></g><polygon class="cls-34" points="66.55 72.99 60.79 85.8 35.13 86.81 39.78 76.5 66.55 72.99"/><polygon class="cls-35" points="30.38 51.48 61.41 67.77 54.02 80.83 24.42 62 30.38 51.48"/><polygon class="cls-36" points="74.48 80.98 69.54 87.86 77.14 125.42 81.12 119.88 74.48 80.98"/><g class="cls-6"><path class="cls-37" d="M61.9,62.85c-4.83-2.7-8.86-1.17-10,3.32l-.11.43-.06.22c0,.13-.08.3-.11.43s-.08.3-.11.43a1.74,1.74,0,0,0,0,.22c0,.13-.08.3-.11.43s-.08.3-.12.43l0,.22-.11.43-.11.43-.06.21c0,.13-.07.31-.11.44.86-3.37,3.88-4.52,7.51-2.5,4.34,2.42,7.91,8.47,8,13.5,0,4.28-2.46,6.46-5.88,5.52l.43.11.21.06.43.12.43.12.21.06.43.12.43.11.43.12.43.12.22.06.43.12c.06,0,.17,0,.21.06,4.57,1.25,7.91-1.64,7.84-7.36C72.45,74.13,67.69,66.07,61.9,62.85Z"/><path class="cls-38" d="M58.3,68c-4.34-2.42-7.81-.3-7.75,4.74s3.63,11.07,8,13.49,7.82.3,7.76-4.73S62.64,70.41,58.3,68Z"/><path class="cls-39" d="M68.41,59.13c-2.85-1.59-5.41-1.71-7.28-.63l-6.5,3.72c1.86-1.08,4.42-1,7.27.63,5.79,3.22,10.55,11.28,10.63,18,0,3.41-1.13,5.82-3.06,6.94L76,84.05c1.92-1.12,3.1-3.52,3.06-6.93C79,70.41,74.2,62.35,68.41,59.13Z"/></g><path class="cls-40" d="M58.6,75.45a.94.94,0,0,0-.93-.09l-.71.41a1,1,0,0,1,.94.09,2.9,2.9,0,0,1,1.31,2.29.92.92,0,0,1-.38.84l.7-.4a.93.93,0,0,0,.39-.85A2.94,2.94,0,0,0,58.6,75.45Z"/><path class="cls-41" d="M57.9,75.86c-.73-.42-1.32-.07-1.32.76a2.87,2.87,0,0,0,1.31,2.28c.73.43,1.32.08,1.32-.75A2.9,2.9,0,0,0,57.9,75.86Z"/><path class="cls-42" d="M64.13,59.85s-5.94.57-8.8,2l0,0a5.87,5.87,0,0,0-3.4,4.27c0,.13-.07.3-.11.43s0,.15-.05.21-.08.31-.11.43-.08.31-.11.44,0,.15-.06.21L28.19,33.31,38,26.22Z"/><path class="cls-43" d="M103.89,73,78.41,75.38a22.9,22.9,0,0,0-10.14-8.11c-.29-.12,27.45-.82,27.45-.82Z"/><polygon class="cls-44" points="76.8 83.41 72.7 82.11 104.02 100 110.7 102.2 76.8 83.41"/><path class="cls-45" d="M87.79,10.41c-12.21-7-23.28-7.71-31.27-3.06L31.37,22c8-4.64,19.06-4,31.27,3.06,24.27,14,43.88,48,43.81,75.87,0,13.86-4.93,23.61-12.82,28.19l25.14-14.61c7.89-4.59,12.78-14.34,12.82-28.19C131.67,58.39,112.06,24.42,87.79,10.41Z"/></g><g class="cls-6"><path class="cls-46" d="M62.33,126c-24.21-14-43.83-48-43.75-75.78,0-13.81,4.94-23.54,12.82-28.12L30,23c-7.89,4.58-12.78,14.31-12.82,28.12-.08,27.81,19.54,61.8,43.75,75.78,12.17,7,23.22,7.67,31.21,3l1.44-.84C85.55,133.7,74.5,133.06,62.33,126Z"/><path class="cls-47" d="M62.62,21.83c-13-7.49-24.77-8.18-33.28-3.23l-1.44.84c8.51-5,20.3-4.27,33.28,3.23C87,37.56,107.9,73.8,107.82,103.44c0,14.73-5.27,25.11-13.67,30l1.44-.84c8.41-4.88,13.62-15.26,13.67-30C109.34,73,88.42,36.73,62.62,21.83Z"/><path class="cls-48" d="M61.18,22.67c-25.8-14.9-46.86-2.9-46.94,26.74S35.07,115.3,60.88,130.2s46.85,2.89,46.94-26.76S87,37.56,61.18,22.67Zm-.29,104.2c-24.21-14-43.83-48-43.75-75.78S37,12,61.17,26,105,74,104.92,101.77,85.08,140.84,60.89,126.87Z"/></g></g></g></g></svg>