<svg xmlns="http://www.w3.org/2000/svg" xmlns:xlink="http://www.w3.org/1999/xlink" viewBox="0 0 150 150"><defs><style>.cls-1,.cls-2{fill:none;}.cls-2{stroke:#fff;stroke-miterlimit:10;stroke-width:0.1px;}.cls-3{opacity:0;}.cls-4{fill:#000714;}.cls-5{opacity:0.1;fill:url(#新建图案);}.cls-6{isolation:isolate;}.cls-7{fill:url(#未命名的渐变_86);}.cls-8{fill:url(#未命名的渐变_83);}.cls-9{fill:url(#未命名的渐变_343);}.cls-10{fill:url(#未命名的渐变_346);}.cls-11{fill:url(#未命名的渐变_83-2);}.cls-12{fill:url(#未命名的渐变_349);}.cls-13{opacity:0.2;}</style><pattern id="新建图案" data-name="新建图案" width="18.57" height="32.16" patternTransform="translate(3080.96 917.05)" patternUnits="userSpaceOnUse" viewBox="0 0 18.57 32.16"><rect class="cls-1" width="18.57" height="32.16"/><polyline class="cls-2" points="18.57 21.44 18.57 32.16 18.57 42.88"/><polyline class="cls-2" points="9.29 26.8 18.57 32.16 27.85 37.51 27.85 37.52"/><polyline class="cls-2" points="9.29 37.52 9.29 37.51 18.57 32.16 27.85 26.8"/><polygon class="cls-2" points="27.85 37.52 27.85 26.8 18.57 21.44 9.28 26.8 9.28 37.52 18.57 42.88 27.85 37.52"/><polyline class="cls-2" points="0 21.44 0 32.16 0 42.88"/><polyline class="cls-2" points="-9.28 26.8 0 32.16 9.28 37.51 9.28 37.52"/><polyline class="cls-2" points="-9.28 37.52 -9.28 37.51 0 32.16 9.28 26.8"/><polygon class="cls-2" points="9.28 37.52 9.28 26.8 0 21.44 -9.29 26.8 -9.29 37.52 0 42.88 9.28 37.52"/><polyline class="cls-2" points="18.57 10.72 27.85 16.08 37.13 21.43 37.13 21.44"/><polyline class="cls-2" points="18.57 21.44 18.57 21.43 27.85 16.08 37.13 10.72"/><polygon class="cls-2" points="37.14 21.44 37.14 10.72 27.85 5.36 18.57 10.72 18.57 21.44 27.85 26.8 37.14 21.44"/><polyline class="cls-2" points="9.29 5.36 9.29 16.08 9.29 26.8"/><polyline class="cls-2" points="0.01 10.72 9.29 16.08 18.57 21.43 18.57 21.44"/><polyline class="cls-2" points="0.01 21.44 0.01 21.43 9.29 16.08 18.57 10.72"/><polygon class="cls-2" points="18.57 21.44 18.57 10.72 9.28 5.36 0 10.72 0 21.44 9.28 26.8 18.57 21.44"/><polyline class="cls-2" points="-18.56 10.72 -9.28 16.08 0 21.43 0 21.44"/><polyline class="cls-2" points="-18.56 21.44 -18.56 21.43 -9.28 16.08 0 10.72"/><polygon class="cls-2" points="0 21.44 0 10.72 -9.29 5.36 -18.57 10.72 -18.57 21.44 -9.29 26.8 0 21.44"/><polyline class="cls-2" points="18.57 -10.72 18.57 0 18.57 10.72"/><polyline class="cls-2" points="9.29 -5.36 18.57 0 27.85 5.35 27.85 5.36"/><polyline class="cls-2" points="9.29 5.36 9.29 5.35 18.57 0 27.85 -5.36"/><polygon class="cls-2" points="27.85 5.36 27.85 -5.36 18.57 -10.72 9.28 -5.36 9.28 5.36 18.57 10.72 27.85 5.36"/><polyline class="cls-2" points="0 -10.72 0 0 0 10.72"/><polyline class="cls-2" points="-9.28 -5.36 0 0 9.28 5.35 9.28 5.36"/><polyline class="cls-2" points="-9.28 5.36 -9.28 5.35 0 0 9.28 -5.36"/><polygon class="cls-2" points="9.28 5.36 9.28 -5.36 0 -10.72 -9.29 -5.36 -9.29 5.36 0 10.72 9.28 5.36"/></pattern><linearGradient id="未命名的渐变_86" x1="12.52" y1="49.78" x2="135.46" y2="49.78" gradientUnits="userSpaceOnUse"><stop offset="0" stop-color="#f9fbff"/><stop offset="1" stop-color="#e4e9f0"/></linearGradient><linearGradient id="未命名的渐变_83" x1="52.02" y1="131.54" x2="139.73" y2="43.83" gradientUnits="userSpaceOnUse"><stop offset="0" stop-color="#a1aebf"/><stop offset="1" stop-color="#7e8aa6"/></linearGradient><linearGradient id="未命名的渐变_343" x1="57.24" y1="134.87" x2="-0.95" y2="76.68" gradientUnits="userSpaceOnUse"><stop offset="0" stop-color="#576380"/><stop offset="1" stop-color="#8593a6"/></linearGradient><linearGradient id="未命名的渐变_346" y1="80.55" x2="56.15" y2="80.55" gradientUnits="userSpaceOnUse"><stop offset="0" stop-color="#f9fbff"/><stop offset="1" stop-color="#fafcff"/></linearGradient><linearGradient id="未命名的渐变_83-2" x1="122.89" y1="77.35" x2="155.32" y2="44.92" xlink:href="#未命名的渐变_83"/><linearGradient id="未命名的渐变_349" x1="118.98" y1="30.06" x2="122.69" y2="23.64" gradientUnits="userSpaceOnUse"><stop offset="0" stop-color="#d3dae6"/><stop offset="1" stop-color="#b3becc"/></linearGradient></defs><title>机舱</title><g id="图层_2" data-name="图层 2"><g id="图元"><g id="机舱"><g id="背景" class="cls-3"><rect class="cls-4" width="150" height="150"/><rect id="网格" class="cls-5" width="150" height="150"/></g><g class="cls-6"><polygon class="cls-7" points="91.83 14.21 12.52 60 56.15 85.35 135.46 39.56 91.83 14.21"/><polygon class="cls-8" points="135.46 39.56 56.15 85.35 43.63 101.09 56.29 135.81 135.61 90.02 135.46 39.56"/><polygon class="cls-9" points="43.63 101.09 0 75.74 12.66 110.46 56.29 135.81 43.63 101.09"/><polygon class="cls-10" points="12.52 60 0 75.74 43.63 101.09 56.15 85.35 12.52 60"/><polygon class="cls-11" points="149.9 39.51 135.4 39.54 135.54 90 150 73.31 149.9 39.51"/><polygon class="cls-12" points="107.79 15.03 91.77 14.19 135.4 39.54 149.9 39.51 107.79 15.03"/></g></g></g></g></svg>