<svg xmlns="http://www.w3.org/2000/svg" xmlns:xlink="http://www.w3.org/1999/xlink" viewBox="0 0 150 150"><defs><style>.cls-1,.cls-2{fill:none;}.cls-2{stroke:#fff;stroke-miterlimit:10;stroke-width:0.1px;}.cls-3{opacity:0;}.cls-4{fill:#000714;}.cls-5{opacity:0.1;fill:url(#新建图案);}.cls-6{isolation:isolate;}.cls-7{fill:url(#未命名的渐变_2037);}.cls-8{fill:url(#未命名的渐变_54);}.cls-9{fill:#c4fdfe;}.cls-10{fill:url(#未命名的渐变_2034);}.cls-11{fill:#489071;}.cls-12{fill:url(#未命名的渐变_2038);}.cls-13{fill:url(#未命名的渐变_2034-2);}.cls-14{fill:url(#未命名的渐变_54-2);}.cls-15,.cls-16{opacity:0.65;}.cls-15{fill:url(#未命名的渐变_26);}.cls-16{fill:url(#未命名的渐变_26-2);}.cls-17{fill:url(#未命名的渐变_24);}.cls-18{fill:#fff;}.cls-19{fill:url(#未命名的渐变_23);}.cls-20{fill:url(#未命名的渐变_24-2);}.cls-21{fill:url(#未命名的渐变_23-2);}.cls-22{fill:url(#未命名的渐变_2030);}.cls-23{fill:url(#未命名的渐变_522);}.cls-24{fill:url(#未命名的渐变_526);}.cls-25{fill:url(#未命名的渐变_522-2);}.cls-26{fill:url(#未命名的渐变_517);}.cls-27{opacity:0.2;}</style><pattern id="新建图案" data-name="新建图案" width="18.57" height="32.16" patternTransform="translate(1062.05 630.95)" patternUnits="userSpaceOnUse" viewBox="0 0 18.57 32.16"><rect class="cls-1" width="18.57" height="32.16"/><polyline class="cls-2" points="18.57 21.44 18.57 32.16 18.57 42.88"/><polyline class="cls-2" points="9.29 26.8 18.57 32.16 27.85 37.51 27.85 37.52"/><polyline class="cls-2" points="9.29 37.52 9.29 37.51 18.57 32.16 27.85 26.8"/><polygon class="cls-2" points="27.85 37.52 27.85 26.8 18.57 21.44 9.28 26.8 9.28 37.52 18.57 42.88 27.85 37.52"/><polyline class="cls-2" points="0 21.44 0 32.16 0 42.88"/><polyline class="cls-2" points="-9.28 26.8 0 32.16 9.28 37.51 9.28 37.52"/><polyline class="cls-2" points="-9.28 37.52 -9.28 37.51 0 32.16 9.28 26.8"/><polygon class="cls-2" points="9.28 37.52 9.28 26.8 0 21.44 -9.29 26.8 -9.29 37.52 0 42.88 9.28 37.52"/><polyline class="cls-2" points="18.57 10.72 27.85 16.08 37.13 21.43 37.13 21.44"/><polyline class="cls-2" points="18.57 21.44 18.57 21.43 27.85 16.08 37.13 10.72"/><polygon class="cls-2" points="37.14 21.44 37.14 10.72 27.85 5.36 18.57 10.72 18.57 21.44 27.85 26.8 37.14 21.44"/><polyline class="cls-2" points="9.29 5.36 9.29 16.08 9.29 26.8"/><polyline class="cls-2" points="0.01 10.72 9.29 16.08 18.57 21.43 18.57 21.44"/><polyline class="cls-2" points="0.01 21.44 0.01 21.43 9.29 16.08 18.57 10.72"/><polygon class="cls-2" points="18.57 21.44 18.57 10.72 9.28 5.36 0 10.72 0 21.44 9.28 26.8 18.57 21.44"/><polyline class="cls-2" points="-18.56 10.72 -9.28 16.08 0 21.43 0 21.44"/><polyline class="cls-2" points="-18.56 21.44 -18.56 21.43 -9.28 16.08 0 10.72"/><polygon class="cls-2" points="0 21.44 0 10.72 -9.29 5.36 -18.57 10.72 -18.57 21.44 -9.29 26.8 0 21.44"/><polyline class="cls-2" points="18.57 -10.72 18.57 0 18.57 10.72"/><polyline class="cls-2" points="9.29 -5.36 18.57 0 27.85 5.35 27.85 5.36"/><polyline class="cls-2" points="9.29 5.36 9.29 5.35 18.57 0 27.85 -5.36"/><polygon class="cls-2" points="27.85 5.36 27.85 -5.36 18.57 -10.72 9.28 -5.36 9.28 5.36 18.57 10.72 27.85 5.36"/><polyline class="cls-2" points="0 -10.72 0 0 0 10.72"/><polyline class="cls-2" points="-9.28 -5.36 0 0 9.28 5.35 9.28 5.36"/><polyline class="cls-2" points="-9.28 5.36 -9.28 5.35 0 0 9.28 -5.36"/><polygon class="cls-2" points="9.28 5.36 9.28 -5.36 0 -10.72 -9.29 -5.36 -9.29 5.36 0 10.72 9.28 5.36"/></pattern><linearGradient id="未命名的渐变_2037" x1="7.89" y1="81.14" x2="12.74" y2="81.14" gradientUnits="userSpaceOnUse"><stop offset="0" stop-color="#12161a"/><stop offset="0.28" stop-color="#2b3442"/><stop offset="0.59" stop-color="#43516a"/><stop offset="0.85" stop-color="#526382"/><stop offset="1" stop-color="#586a8b"/></linearGradient><linearGradient id="未命名的渐变_54" x1="105.17" y1="155.65" x2="21.16" y2="71.64" gradientUnits="userSpaceOnUse"><stop offset="0" stop-color="#425266"/><stop offset="1" stop-color="#596b8c"/></linearGradient><linearGradient id="未命名的渐变_2034" x1="113.59" y1="140.82" x2="141.58" y2="140.82" gradientUnits="userSpaceOnUse"><stop offset="0" stop-color="#425367"/><stop offset="0.2" stop-color="#3c4c5e"/><stop offset="0.54" stop-color="#2d3946"/><stop offset="0.96" stop-color="#15191e"/><stop offset="1" stop-color="#12161a"/></linearGradient><linearGradient id="未命名的渐变_2038" x1="135.19" y1="129.32" x2="139.39" y2="129.32" gradientUnits="userSpaceOnUse"><stop offset="0" stop-color="#586a8b"/><stop offset="0.15" stop-color="#526382"/><stop offset="0.41" stop-color="#43516a"/><stop offset="0.72" stop-color="#2b3442"/><stop offset="1" stop-color="#12161a"/></linearGradient><linearGradient id="未命名的渐变_2034-2" x1="10.07" y1="69.84" x2="34.32" y2="69.84" xlink:href="#未命名的渐变_2034"/><linearGradient id="未命名的渐变_54-2" x1="34.31" y1="97.27" x2="135.2" y2="97.27" xlink:href="#未命名的渐变_54"/><linearGradient id="未命名的渐变_26" x1="29.53" y1="80.65" x2="59.32" y2="80.65" gradientUnits="userSpaceOnUse"><stop offset="0" stop-color="#0b4c48"/><stop offset="1" stop-color="#2d8566"/></linearGradient><linearGradient id="未命名的渐变_26-2" x1="104.53" y1="123.8" x2="134.32" y2="123.8" xlink:href="#未命名的渐变_26"/><linearGradient id="未命名的渐变_24" x1="33.23" y1="55.92" x2="39.94" y2="55.92" gradientUnits="userSpaceOnUse"><stop offset="0" stop-color="#2d8566"/><stop offset="1" stop-color="#0a364b"/></linearGradient><linearGradient id="未命名的渐变_23" x1="19.9" y1="35.55" x2="52.72" y2="35.55" gradientUnits="userSpaceOnUse"><stop offset="0" stop-color="#56b768"/><stop offset="1" stop-color="#063850"/></linearGradient><linearGradient id="未命名的渐变_24-2" x1="108.43" y1="99.26" x2="115.14" y2="99.26" xlink:href="#未命名的渐变_24"/><linearGradient id="未命名的渐变_23-2" x1="95.1" y1="78.9" x2="127.92" y2="78.9" xlink:href="#未命名的渐变_23"/><linearGradient id="未命名的渐变_2030" x1="10.67" y1="80.7" x2="10.67" y2="31.92" gradientUnits="userSpaceOnUse"><stop offset="0" stop-color="#4cfafe" stop-opacity="0.8"/><stop offset="0.15" stop-color="#3fddfe" stop-opacity="0.59"/><stop offset="0.29" stop-color="#33c4fe" stop-opacity="0.41"/><stop offset="0.44" stop-color="#2ab0ff" stop-opacity="0.26"/><stop offset="0.58" stop-color="#22a0ff" stop-opacity="0.15"/><stop offset="0.72" stop-color="#1d95ff" stop-opacity="0.07"/><stop offset="0.86" stop-color="#1a8eff" stop-opacity="0.02"/><stop offset="1" stop-color="#198cff" stop-opacity="0"/></linearGradient><linearGradient id="未命名的渐变_522" x1="53.02" y1="103.61" x2="70.86" y2="72.71" gradientUnits="userSpaceOnUse"><stop offset="0" stop-color="#4cfafe"/><stop offset="0.04" stop-color="#4cfafe" stop-opacity="0.6"/><stop offset="1" stop-color="#198cff" stop-opacity="0"/></linearGradient><linearGradient id="未命名的渐变_526" x1="53.02" y1="103.61" x2="70.86" y2="72.71" gradientUnits="userSpaceOnUse"><stop offset="0" stop-color="#4cfafe"/><stop offset="0.04" stop-color="#4cfafe" stop-opacity="0.6"/><stop offset="0.28" stop-color="#3ddafe" stop-opacity="0.42"/><stop offset="0.62" stop-color="#2ab0ff" stop-opacity="0.2"/><stop offset="0.87" stop-color="#1e96ff" stop-opacity="0.05"/><stop offset="1" stop-color="#198cff" stop-opacity="0"/></linearGradient><linearGradient id="未命名的渐变_522-2" x1="140.14" y1="136.44" x2="115.06" y2="93.01" xlink:href="#未命名的渐变_522"/><linearGradient id="未命名的渐变_517" x1="112.49" y1="137.95" x2="141.49" y2="87.73" gradientUnits="userSpaceOnUse"><stop offset="0" stop-color="#4cfafe"/><stop offset="0.04" stop-color="#4cfafe" stop-opacity="0.6"/><stop offset="0.05" stop-color="#4bf8fe" stop-opacity="0.59"/><stop offset="0.21" stop-color="#3cd7fe" stop-opacity="0.41"/><stop offset="0.37" stop-color="#2fbcff" stop-opacity="0.26"/><stop offset="0.53" stop-color="#25a7ff" stop-opacity="0.15"/><stop offset="0.69" stop-color="#1f98ff" stop-opacity="0.07"/><stop offset="0.85" stop-color="#1a8fff" stop-opacity="0.02"/><stop offset="1" stop-color="#198cff" stop-opacity="0"/></linearGradient></defs><title>树1</title><g id="图层_2" data-name="图层 2"><g id="图元"><g id="树1"><g class="cls-3"><rect class="cls-4" width="150" height="150"/><rect id="网格" class="cls-5" width="150" height="150"/></g><g class="cls-6"><path class="cls-7" d="M7.89,82.21l0-8.91c0,2.45,1.6,4.9,4.83,6.77l0,8.91C9.49,87.12,7.88,84.67,7.89,82.21Z"/><polygon class="cls-8" points="113.62 138.31 113.59 147.23 12.71 88.98 12.74 80.06 113.62 138.31"/><path class="cls-9" d="M136.75,124.87c6.4,3.69,6.44,9.74.08,13.44s-16.81,3.7-23.21,0L12.74,80.07c-6.41-3.7-6.44-9.75-.08-13.45s16.8-3.69,23.21,0Z"/><path class="cls-10" d="M141.58,131.64l0,8.91c0,2.42-1.59,4.84-4.75,6.68-6.36,3.69-16.8,3.69-23.21,0l0-8.92c6.4,3.7,16.85,3.7,23.21,0C140,136.47,141.57,134.06,141.58,131.64Z"/></g><g class="cls-6"><path class="cls-11" d="M139.3,132.24c-.33,1.8-1.67,3.54-4,4.91-5.52,3.21-14.55,3.21-20.11,0L14.27,78.9c-2.4-1.38-3.77-3.14-4.11-5,.33-1.8,1.68-3.54,4-4.91,5.52-3.22,14.55-3.22,20.11,0l100.88,58.24C137.59,128.67,139,130.43,139.3,132.24Z"/><path class="cls-12" d="M139.38,133.15c0-2.12-1.39-4.25-4.19-5.87V125.5c2.8,1.62,4.19,3.74,4.19,5.87Z"/><path class="cls-13" d="M10.08,73c0-2.1,1.38-4.19,4.12-5.78,5.53-3.22,14.55-3.22,20.12,0V69c-5.56-3.21-14.58-3.21-20.11,0-2.75,1.59-4.12,3.69-4.13,5.78Z"/><polygon class="cls-14" points="34.32 67.26 34.31 69.04 135.19 127.28 135.2 125.5 34.32 67.26"/></g><path class="cls-15" d="M59.32,80.65c0,3.69-6.67,6.68-14.9,6.68s-14.89-3-14.89-6.68S36.19,74,44.42,74a32.81,32.81,0,0,1,4.77.35l10.09,5.83A2.81,2.81,0,0,1,59.32,80.65Z"/><path class="cls-16" d="M134.32,123.8c0,3.69-6.67,6.68-14.9,6.68s-14.89-3-14.89-6.68,6.66-6.68,14.89-6.68a32.89,32.89,0,0,1,4.42.3h0l10.45,6h0C134.31,123.58,134.32,123.69,134.32,123.8Z"/><g class="cls-6"><path class="cls-17" d="M39,29.56a5.15,5.15,0,0,1-4.65,0,1.64,1.64,0,0,1-1-1.35l-.15,53.5a1.64,1.64,0,0,0,1,1.35,5.09,5.09,0,0,0,4.65,0,1.62,1.62,0,0,0,.95-1.33l.15-53.5A1.63,1.63,0,0,1,39,29.56Z"/><path class="cls-18" d="M39,26.87a5.13,5.13,0,0,0-4.64,0c-1.27.75-1.27,1.95,0,2.69a5.15,5.15,0,0,0,4.65,0C40.26,28.82,40.26,27.61,39,26.87Z"/></g><path class="cls-19" d="M36.31,0C29.2,0,19.9,25.87,19.9,42s8.21,29.15,16.41,29.15S52.72,58.06,52.72,42,43.42,0,36.31,0Z"/><g class="cls-6"><path class="cls-20" d="M114.19,72.9a5.09,5.09,0,0,1-4.65,0,1.64,1.64,0,0,1-1-1.35l-.15,53.51a1.63,1.63,0,0,0,1,1.35,5.15,5.15,0,0,0,4.65,0,1.63,1.63,0,0,0,.95-1.34l.15-53.5A1.62,1.62,0,0,1,114.19,72.9Z"/><path class="cls-18" d="M114.17,70.21a5.1,5.1,0,0,0-4.64,0c-1.27.74-1.27,1.94,0,2.68a5.09,5.09,0,0,0,4.65,0C115.46,72.16,115.46,71,114.17,70.21Z"/></g><path class="cls-21" d="M111.51,43.34c-7.11,0-16.41,25.87-16.41,42s8.21,29.14,16.41,29.14,16.41-13,16.41-29.14S118.62,43.34,111.51,43.34Z"/><path class="cls-22" d="M8,31.92,7.89,73.05c0,2.77,1.81,5.55,5.45,7.65l.11-41.13C9.81,37.47,8,34.69,8,31.92Z"/><polygon class="cls-23" points="13.45 39.57 13.34 80.7 110.42 136.75 110.54 95.62 13.45 39.57"/><path class="cls-24" d="M14,40.43,110,95.91l-.11,40L13.84,80.41l.11-40m-.5-.86L13.34,80.7l97.08,56.05.12-41.13-97.09-56Z"/><path class="cls-25" d="M136.76,95.62c-7.19,4.18-19,4.18-26.22,0l-.12,41.13c11.84,6.75,20.47,4.33,26.41,1.56,3.74-1.74,5.17-5.16,5.17-9.09l.11-41.13C142.11,90.82,140.32,93.55,136.76,95.62Z"/><path class="cls-26" d="M141.6,91.73l-.1,37.49c0,4.22-1.64,7.13-4.88,8.64a26.69,26.69,0,0,1-11.37,2.75,29.43,29.43,0,0,1-14.33-4.15l.12-40a27.73,27.73,0,0,0,12.63,2.79A26.92,26.92,0,0,0,137,96.05a12.19,12.19,0,0,0,4.59-4.32m.51-3.64c0,2.73-1.79,5.46-5.35,7.53a29,29,0,0,1-26.22,0l-.12,41.13c5.66,3.23,10.58,4.36,14.83,4.36a26.94,26.94,0,0,0,11.58-2.8c3.74-1.74,5.17-5.16,5.17-9.09l.11-41.13Z"/></g></g></g></svg>