<svg xmlns="http://www.w3.org/2000/svg" xmlns:xlink="http://www.w3.org/1999/xlink" viewBox="0 0 150.01 150"><defs><style>.cls-1,.cls-2{fill:none;}.cls-2{stroke:#fff;stroke-miterlimit:10;stroke-width:0.1px;}.cls-3{opacity:0;}.cls-4{fill:#000714;}.cls-5{opacity:0.1;fill:url(#新建图案);}.cls-6{isolation:isolate;}.cls-7{fill:url(#未命名的渐变_2037);}.cls-8{fill:url(#未命名的渐变_54);}.cls-9{fill:#c4fdfe;}.cls-10{fill:url(#未命名的渐变_2034);}.cls-11{fill:#489071;}.cls-12{fill:url(#未命名的渐变_2037-2);}.cls-13{fill:url(#未命名的渐变_2034-2);}.cls-14{fill:url(#未命名的渐变_54-2);}.cls-15,.cls-19,.cls-22,.cls-27,.cls-32,.cls-37{opacity:0.65;}.cls-15{fill:url(#未命名的渐变_13);}.cls-16{fill:url(#未命名的渐变_11);}.cls-17{fill:#fff;}.cls-18{fill:url(#未命名的渐变_8);}.cls-19{fill:#0b4c48;}.cls-20{fill:url(#未命名的渐变_8-2);}.cls-21{fill:url(#未命名的渐变_8-3);}.cls-22{fill:url(#未命名的渐变_13-2);}.cls-23{fill:url(#未命名的渐变_11-2);}.cls-24{fill:url(#未命名的渐变_8-4);}.cls-25{fill:url(#未命名的渐变_8-5);}.cls-26{fill:url(#未命名的渐变_8-6);}.cls-27{fill:url(#未命名的渐变_13-3);}.cls-28{fill:url(#未命名的渐变_11-3);}.cls-29{fill:url(#未命名的渐变_8-7);}.cls-30{fill:url(#未命名的渐变_8-8);}.cls-31{fill:url(#未命名的渐变_8-9);}.cls-32{fill:url(#未命名的渐变_13-4);}.cls-33{fill:url(#未命名的渐变_11-4);}.cls-34{fill:url(#未命名的渐变_8-10);}.cls-35{fill:url(#未命名的渐变_8-11);}.cls-36{fill:url(#未命名的渐变_8-12);}.cls-37{fill:url(#未命名的渐变_13-5);}.cls-38{fill:url(#未命名的渐变_11-5);}.cls-39{fill:url(#未命名的渐变_8-13);}.cls-40{fill:url(#未命名的渐变_8-14);}.cls-41{fill:url(#未命名的渐变_8-15);}.cls-42{fill:url(#未命名的渐变_2030);}.cls-43{fill:url(#未命名的渐变_514);}.cls-44{fill:url(#未命名的渐变_506);}.cls-45{fill:url(#未命名的渐变_514-2);}.cls-46{fill:url(#未命名的渐变_517);}.cls-47{opacity:0.2;}</style><pattern id="新建图案" data-name="新建图案" width="18.57" height="32.16" patternTransform="translate(1240.05 470.14)" patternUnits="userSpaceOnUse" viewBox="0 0 18.57 32.16"><rect class="cls-1" width="18.57" height="32.16"/><polyline class="cls-2" points="18.57 21.44 18.57 32.16 18.57 42.88"/><polyline class="cls-2" points="9.29 26.8 18.57 32.16 27.85 37.51 27.85 37.52"/><polyline class="cls-2" points="9.29 37.52 9.29 37.51 18.57 32.16 27.85 26.8"/><polygon class="cls-2" points="27.85 37.52 27.85 26.8 18.57 21.44 9.28 26.8 9.28 37.52 18.57 42.88 27.85 37.52"/><polyline class="cls-2" points="0 21.44 0 32.16 0 42.88"/><polyline class="cls-2" points="-9.28 26.8 0 32.16 9.28 37.51 9.28 37.52"/><polyline class="cls-2" points="-9.28 37.52 -9.28 37.51 0 32.16 9.28 26.8"/><polygon class="cls-2" points="9.28 37.52 9.28 26.8 0 21.44 -9.29 26.8 -9.29 37.52 0 42.88 9.28 37.52"/><polyline class="cls-2" points="18.57 10.72 27.85 16.08 37.13 21.43 37.13 21.44"/><polyline class="cls-2" points="18.57 21.44 18.57 21.43 27.85 16.08 37.13 10.72"/><polygon class="cls-2" points="37.14 21.44 37.14 10.72 27.85 5.36 18.57 10.72 18.57 21.44 27.85 26.8 37.14 21.44"/><polyline class="cls-2" points="9.29 5.36 9.29 16.08 9.29 26.8"/><polyline class="cls-2" points="0.01 10.72 9.29 16.08 18.57 21.43 18.57 21.44"/><polyline class="cls-2" points="0.01 21.44 0.01 21.43 9.29 16.08 18.57 10.72"/><polygon class="cls-2" points="18.57 21.44 18.57 10.72 9.28 5.36 0 10.72 0 21.44 9.28 26.8 18.57 21.44"/><polyline class="cls-2" points="-18.56 10.72 -9.28 16.08 0 21.43 0 21.44"/><polyline class="cls-2" points="-18.56 21.44 -18.56 21.43 -9.28 16.08 0 10.72"/><polygon class="cls-2" points="0 21.44 0 10.72 -9.29 5.36 -18.57 10.72 -18.57 21.44 -9.29 26.8 0 21.44"/><polyline class="cls-2" points="18.57 -10.72 18.57 0 18.57 10.72"/><polyline class="cls-2" points="9.29 -5.36 18.57 0 27.85 5.35 27.85 5.36"/><polyline class="cls-2" points="9.29 5.36 9.29 5.35 18.57 0 27.85 -5.36"/><polygon class="cls-2" points="27.85 5.36 27.85 -5.36 18.57 -10.72 9.28 -5.36 9.28 5.36 18.57 10.72 27.85 5.36"/><polyline class="cls-2" points="0 -10.72 0 0 0 10.72"/><polyline class="cls-2" points="-9.28 -5.36 0 0 9.28 5.35 9.28 5.36"/><polyline class="cls-2" points="-9.28 5.36 -9.28 5.35 0 0 9.28 -5.36"/><polygon class="cls-2" points="9.28 5.36 9.28 -5.36 0 -10.72 -9.29 -5.36 -9.29 5.36 0 10.72 9.28 5.36"/></pattern><linearGradient id="未命名的渐变_2037" y1="63.53" x2="3.52" y2="63.53" gradientUnits="userSpaceOnUse"><stop offset="0" stop-color="#12161a"/><stop offset="0.28" stop-color="#2b3442"/><stop offset="0.59" stop-color="#43516a"/><stop offset="0.85" stop-color="#526382"/><stop offset="1" stop-color="#586a8b"/></linearGradient><linearGradient id="未命名的渐变_54" x1="117.95" y1="153.71" x2="15.26" y2="51.01" gradientUnits="userSpaceOnUse"><stop offset="0" stop-color="#425266"/><stop offset="1" stop-color="#596b8c"/></linearGradient><linearGradient id="未命名的渐变_2034" x1="129.69" y1="137.32" x2="150" y2="137.32" gradientUnits="userSpaceOnUse"><stop offset="0" stop-color="#425367"/><stop offset="0.2" stop-color="#3c4c5e"/><stop offset="0.54" stop-color="#2d3946"/><stop offset="0.96" stop-color="#15191e"/><stop offset="1" stop-color="#12161a"/></linearGradient><linearGradient id="未命名的渐变_2037-2" x1="145.37" y1="128.98" x2="148.41" y2="128.98" xlink:href="#未命名的渐变_2037"/><linearGradient id="未命名的渐变_2034-2" x1="1.59" y1="55.32" x2="19.18" y2="55.32" xlink:href="#未命名的渐变_2034"/><linearGradient id="未命名的渐变_54-2" x1="19.18" y1="90.47" x2="145.37" y2="90.47" xlink:href="#未命名的渐变_54"/><linearGradient id="未命名的渐变_13" x1="12.02" y1="60.96" x2="33.65" y2="60.96" gradientUnits="userSpaceOnUse"><stop offset="0" stop-color="#0b4c48"/><stop offset="1" stop-color="#2d8566"/></linearGradient><linearGradient id="未命名的渐变_11" x1="14.71" y1="43.01" x2="19.58" y2="43.01" gradientUnits="userSpaceOnUse"><stop offset="0" stop-color="#2d8566"/><stop offset="1" stop-color="#0a364b"/></linearGradient><linearGradient id="未命名的渐变_8" x1="3" y1="32.52" x2="31.04" y2="32.52" gradientUnits="userSpaceOnUse"><stop offset="0" stop-color="#56b768"/><stop offset="1" stop-color="#063850"/></linearGradient><linearGradient id="未命名的渐变_8-2" x1="4.14" y1="26.14" x2="29.9" y2="26.14" xlink:href="#未命名的渐变_8"/><linearGradient id="未命名的渐变_8-3" x1="6.2" y1="20.34" x2="27.84" y2="20.34" xlink:href="#未命名的渐变_8"/><linearGradient id="未命名的渐变_13-2" x1="40.36" y1="77.23" x2="61.99" y2="77.23" xlink:href="#未命名的渐变_13"/><linearGradient id="未命名的渐变_11-2" x1="43.05" y1="59.27" x2="47.92" y2="59.27" xlink:href="#未命名的渐变_11"/><linearGradient id="未命名的渐变_8-4" x1="31.34" y1="48.79" x2="59.38" y2="48.79" xlink:href="#未命名的渐变_8"/><linearGradient id="未命名的渐变_8-5" x1="32.48" y1="42.41" x2="58.24" y2="42.41" xlink:href="#未命名的渐变_8"/><linearGradient id="未命名的渐变_8-6" x1="34.54" y1="36.61" x2="56.18" y2="36.61" xlink:href="#未命名的渐变_8"/><linearGradient id="未命名的渐变_13-3" x1="68.7" y1="93.76" x2="90.32" y2="93.76" xlink:href="#未命名的渐变_13"/><linearGradient id="未命名的渐变_11-3" x1="71.39" y1="75.81" x2="76.26" y2="75.81" xlink:href="#未命名的渐变_11"/><linearGradient id="未命名的渐变_8-7" x1="59.68" y1="65.32" x2="87.72" y2="65.32" xlink:href="#未命名的渐变_8"/><linearGradient id="未命名的渐变_8-8" x1="60.82" y1="58.94" x2="86.58" y2="58.94" xlink:href="#未命名的渐变_8"/><linearGradient id="未命名的渐变_8-9" x1="62.88" y1="53.14" x2="84.52" y2="53.14" xlink:href="#未命名的渐变_8"/><linearGradient id="未命名的渐变_13-4" x1="97.04" y1="109.98" x2="118.66" y2="109.98" xlink:href="#未命名的渐变_13"/><linearGradient id="未命名的渐变_11-4" x1="99.72" y1="92.03" x2="104.6" y2="92.03" xlink:href="#未命名的渐变_11"/><linearGradient id="未命名的渐变_8-10" x1="88.01" y1="81.55" x2="116.06" y2="81.55" xlink:href="#未命名的渐变_8"/><linearGradient id="未命名的渐变_8-11" x1="89.16" y1="75.17" x2="114.92" y2="75.17" xlink:href="#未命名的渐变_8"/><linearGradient id="未命名的渐变_8-12" x1="91.22" y1="69.37" x2="112.86" y2="69.37" xlink:href="#未命名的渐变_8"/><linearGradient id="未命名的渐变_13-5" x1="125.38" y1="126.43" x2="147" y2="126.43" xlink:href="#未命名的渐变_13"/><linearGradient id="未命名的渐变_11-5" x1="128.06" y1="108.47" x2="132.94" y2="108.47" xlink:href="#未命名的渐变_11"/><linearGradient id="未命名的渐变_8-13" x1="116.35" y1="97.99" x2="144.4" y2="97.99" xlink:href="#未命名的渐变_8"/><linearGradient id="未命名的渐变_8-14" x1="117.49" y1="91.61" x2="143.26" y2="91.61" xlink:href="#未命名的渐变_8"/><linearGradient id="未命名的渐变_8-15" x1="119.56" y1="85.81" x2="141.19" y2="85.81" xlink:href="#未命名的渐变_8"/><linearGradient id="未命名的渐变_2030" x1="-7.71" y1="56.2" x2="11.51" y2="22.9" gradientUnits="userSpaceOnUse"><stop offset="0" stop-color="#4cfafe" stop-opacity="0.8"/><stop offset="0.15" stop-color="#3fddfe" stop-opacity="0.59"/><stop offset="0.29" stop-color="#33c4fe" stop-opacity="0.41"/><stop offset="0.44" stop-color="#2ab0ff" stop-opacity="0.26"/><stop offset="0.58" stop-color="#22a0ff" stop-opacity="0.15"/><stop offset="0.72" stop-color="#1d95ff" stop-opacity="0.07"/><stop offset="0.86" stop-color="#1a8eff" stop-opacity="0.02"/><stop offset="1" stop-color="#198cff" stop-opacity="0"/></linearGradient><linearGradient id="未命名的渐变_514" x1="57.27" y1="93.72" x2="75.19" y2="62.69" gradientUnits="userSpaceOnUse"><stop offset="0" stop-color="#4cfafe"/><stop offset="0.04" stop-color="#4cfafe" stop-opacity="0.6"/><stop offset="1" stop-color="#198cff" stop-opacity="0"/></linearGradient><linearGradient id="未命名的渐变_506" x1="57.27" y1="93.72" x2="75.19" y2="62.69" gradientUnits="userSpaceOnUse"><stop offset="0" stop-color="#4cfafe"/><stop offset="0.04" stop-color="#4cfafe" stop-opacity="0.6"/><stop offset="0.28" stop-color="#3ddafe" stop-opacity="0.42"/><stop offset="0.62" stop-color="#2ab0ff" stop-opacity="0.2"/><stop offset="0.87" stop-color="#1e96ff" stop-opacity="0.05"/><stop offset="1" stop-color="#198cff" stop-opacity="0"/></linearGradient><linearGradient id="未命名的渐变_514-2" x1="139.34" y1="137.57" x2="139.34" y2="88.57" xlink:href="#未命名的渐变_514"/><linearGradient id="未命名的渐变_517" x1="151.42" y1="132.67" x2="128.86" y2="93.59" gradientUnits="userSpaceOnUse"><stop offset="0" stop-color="#4cfafe"/><stop offset="0.04" stop-color="#4cfafe" stop-opacity="0.6"/><stop offset="0.05" stop-color="#4bf8fe" stop-opacity="0.59"/><stop offset="0.21" stop-color="#3cd7fe" stop-opacity="0.41"/><stop offset="0.37" stop-color="#2fbcff" stop-opacity="0.26"/><stop offset="0.53" stop-color="#25a7ff" stop-opacity="0.15"/><stop offset="0.69" stop-color="#1f98ff" stop-opacity="0.07"/><stop offset="0.85" stop-color="#1a8fff" stop-opacity="0.02"/><stop offset="1" stop-color="#198cff" stop-opacity="0"/></linearGradient></defs><title>树2</title><g id="图层_2" data-name="图层 2"><g id="图元"><g id="树2"><g class="cls-3"><rect class="cls-4" width="150" height="150"/><rect id="网格" class="cls-5" width="150" height="150"/></g><g class="cls-6"><path class="cls-7" d="M0,64.31l0-6.48c0,1.78,1.16,3.57,3.5,4.92l0,6.47C1.16,67.87,0,66.09,0,64.31Z"/><polygon class="cls-8" points="129.71 135.5 129.69 141.97 3.5 69.22 3.52 62.75 129.71 135.5"/><path class="cls-9" d="M146.5,125.74c4.65,2.68,4.67,7.07.05,9.76s-12.19,2.68-16.84,0L3.52,62.75c-4.65-2.69-4.67-7.08,0-9.76s12.19-2.68,16.84,0Z"/><path class="cls-10" d="M150,130.65l0,6.48c0,1.75-1.15,3.51-3.44,4.84-4.62,2.68-12.2,2.68-16.85,0l0-6.47c4.65,2.68,12.23,2.68,16.84,0C148.85,134.16,150,132.41,150,130.65Z"/></g><g class="cls-6"><path class="cls-11" d="M148.35,131.09a5.49,5.49,0,0,1-2.93,3.56,16.12,16.12,0,0,1-14.6,0L4.63,61.9a5.55,5.55,0,0,1-3-3.59,5.49,5.49,0,0,1,2.93-3.56,16.06,16.06,0,0,1,14.6,0l126.19,72.74A5.59,5.59,0,0,1,148.35,131.09Z"/><path class="cls-12" d="M148.41,131.75c0-1.54-1-3.08-3-4.26V126.2c2,1.17,3,2.72,3,4.26Z"/><path class="cls-13" d="M1.59,57.65c0-1.52,1-3,3-4.2a16.12,16.12,0,0,1,14.6,0v1.29a16.12,16.12,0,0,0-14.6,0c-2,1.16-3,2.68-3,4.2Z"/><polygon class="cls-14" points="19.18 53.45 19.18 54.74 145.37 127.49 145.37 126.2 19.18 53.45"/></g><path class="cls-15" d="M33.65,61c0,2.68-4.84,4.85-10.81,4.85S12,63.64,12,61s4.84-4.85,10.82-4.85a22.6,22.6,0,0,1,3.46.26l7.32,4.22A2.31,2.31,0,0,1,33.65,61Z"/><g class="cls-6"><path class="cls-16" d="M18.89,23.88a3.71,3.71,0,0,1-3.37,0,1.18,1.18,0,0,1-.7-1l-.11,38.83a1.19,1.19,0,0,0,.7,1,3.71,3.71,0,0,0,3.37,0,1.18,1.18,0,0,0,.69-1l.11-38.83A1.18,1.18,0,0,1,18.89,23.88Z"/><path class="cls-17" d="M18.88,21.93a3.71,3.71,0,0,0-3.37,0,1,1,0,0,0,0,1.95,3.71,3.71,0,0,0,3.37,0A1,1,0,0,0,18.88,21.93Z"/></g><path class="cls-18" d="M31,45.92V46a.66.66,0,0,1,0,.14,3.19,3.19,0,0,1-.06.54l0,.17a5.11,5.11,0,0,1-.18.64s0,0,0,.05a5.79,5.79,0,0,1-.31.67c0,.06-.05.11-.08.16A7.33,7.33,0,0,1,30,49s0,0,0,0a7.81,7.81,0,0,1-.53.64l-.14.15c-.2.2-.4.4-.62.59l0,0c-.23.2-.49.39-.75.58l-.21.14c-.27.18-.55.36-.87.54-5.55,3.11-14.43,3-19.83-.21-.29-.18-.57-.36-.84-.55l-.18-.14a8.67,8.67,0,0,1-.72-.58l-.07-.07a5,5,0,0,1-.56-.57l-.13-.14A7.57,7.57,0,0,1,4,48.79a.41.41,0,0,0-.07-.11c-.12-.2-.23-.39-.33-.58s0-.1-.07-.14a4.51,4.51,0,0,1-.26-.66.83.83,0,0,1,0-.15,4.34,4.34,0,0,1-.14-.6s0-.08,0-.11a5.27,5.27,0,0,1,0-.68s0-.11,0-.16A4.64,4.64,0,0,1,3.08,45a.13.13,0,0,1,0-.06,4.27,4.27,0,0,1,.18-.68l.06-.16.06-.18c.42-1,1-2.29,1.37-3.27L5.45,39c.42-1,1-2.3,1.37-3.28l.17-.4c.17-.41.37-.87.52-1.24l.69-1.64.68-1.64.69-1.64c.21-.5.44-1.07.69-1.64l.68-1.64.94-2.23c.15-.36.3-.73.44-1.05l.16-.39c.17-.42.37-.88.52-1.25l.69-1.64L15.06,16c.21-.49.48-1.15.68-1.64.42-1,1-2.29,1.38-3.28.41,1,.95,2.31,1.36,3.29.2.5.47,1.15.67,1.64.41,1,1,2.31,1.36,3.29s.94,2.3,1.35,3.29c.2.49.47,1.15.68,1.64.4,1,.94,2.3,1.35,3.29s.95,2.3,1.36,3.29c.2.49.47,1.14.67,1.64.4.95.92,2.23,1.32,3.21l0,.08L28.63,39l.68,1.65c.4,1,1,2.29,1.35,3.28a3,3,0,0,1,.14.39l0,.09a4.14,4.14,0,0,1,.15.68l0,.17A4.43,4.43,0,0,1,31,45.92Z"/><path class="cls-19" d="M31,45.92V46a.66.66,0,0,1,0,.14,24.06,24.06,0,0,1-10.84,2.28c-8,0-14.5-3-14.5-6.8s6.49-6.8,14.5-6.8a28,28,0,0,1,7,.86l0,.08L28.63,39l.68,1.65c.4,1,1,2.29,1.35,3.28a3,3,0,0,1,.14.39l0,.09a4.14,4.14,0,0,1,.15.68l0,.17A4.43,4.43,0,0,1,31,45.92Z"/><path class="cls-20" d="M29.9,38.45v.06a2.09,2.09,0,0,1,0,.25c0,.13,0,.26-.06.39a.77.77,0,0,1,0,.15c0,.19-.1.39-.16.58l0,0a3.81,3.81,0,0,1-.28.62,1.09,1.09,0,0,1-.08.15,4.48,4.48,0,0,1-.36.57l0,0a6.71,6.71,0,0,1-.48.58l-.14.15c-.18.18-.36.36-.57.54l0,0a7.32,7.32,0,0,1-.69.52l-.19.13c-.25.17-.52.34-.8.5-4,2.26-9.93,2.68-14.68,1.31l-.41-3.28L9.74,44.52a13.24,13.24,0,0,1-2-1A8.56,8.56,0,0,1,7,43l-.18-.12c-.23-.18-.45-.35-.65-.54l-.07-.06c-.18-.17-.35-.34-.51-.52l-.12-.13A5.9,5.9,0,0,1,5,41.09L5,41c-.11-.18-.22-.35-.31-.53l-.06-.12a3.61,3.61,0,0,1-.24-.62.5.5,0,0,1,0-.13A3.39,3.39,0,0,1,4.19,39v-.1a4.44,4.44,0,0,1,0-.63.66.66,0,0,1,0-.14,2.88,2.88,0,0,1,.06-.59.07.07,0,0,1,0,0,4.91,4.91,0,0,1,.17-.63.88.88,0,0,1,.05-.15l.06-.16,1.26-3,.63-1.51c.38-.9.89-2.11,1.26-3,0-.11.1-.24.15-.36.17-.39.34-.81.48-1.15L8.91,26c.19-.46.45-1.06.63-1.51s.44-1.05.64-1.5l.63-1.51c.18-.46.4-1,.62-1.51l.86-2,.41-1,.15-.37c.16-.37.34-.8.48-1.14L14,14c.37-.9.88-2.1,1.26-3l.63-1.51c.38-.9.89-2.1,1.26-3l1.24,3L19,11c.37.91.87,2.11,1.24,3l1.24,3c.2.45.44,1.06.63,1.51l1.24,3c.38.91.87,2.12,1.25,3,.18.46.43,1.06.62,1.51l.06.15c.36.89.83,2,1.18,2.87l1.25,3c.18.45.43,1.06.62,1.51.38.91.87,2.12,1.25,3l.12.36,0,.08a4.75,4.75,0,0,1,.14.63c0,.05,0,.1,0,.15A5.49,5.49,0,0,1,29.9,38.45Z"/><path class="cls-19" d="M29.9,38.45v.06a2.09,2.09,0,0,1,0,.25,27.51,27.51,0,0,1-7.38,1c-8,0-14.5-3.05-14.5-6.8s6.49-6.8,14.5-6.8c.94,0,1.86,0,2.75.12.36.89.83,2,1.18,2.87l1.25,3c.18.45.43,1.06.62,1.51.38.91.87,2.12,1.25,3l.12.36,0,.08a4.75,4.75,0,0,1,.14.63c0,.05,0,.1,0,.15A5.49,5.49,0,0,1,29.9,38.45Z"/><path class="cls-21" d="M27.84,30.68v.05a3.07,3.07,0,0,1-.05.53l0,.13a4.5,4.5,0,0,1-.14.49.06.06,0,0,1,0,0,3.43,3.43,0,0,1-.23.52l-.07.13q-.14.24-.3.48s0,0,0,0l-.41.49a1.14,1.14,0,0,1-.11.11c-.15.16-.31.31-.48.46l0,0c-.18.15-.38.29-.58.44l-.16.1a5.32,5.32,0,0,1-.66.42,14.12,14.12,0,0,1-4.89,1.57L19,35.39l-.35,1.42A16.24,16.24,0,0,1,9.26,35a6.1,6.1,0,0,1-.65-.43l-.14-.1c-.2-.15-.39-.3-.56-.45l0-.06a3.49,3.49,0,0,1-.43-.43l-.1-.1a5.35,5.35,0,0,1-.37-.5l-.06-.08c-.09-.15-.18-.3-.26-.45a.6.6,0,0,0-.06-.11c-.07-.16-.14-.34-.2-.51l0-.11a3.56,3.56,0,0,1-.1-.47l0-.08a4.71,4.71,0,0,1,0-.53s0-.08,0-.12a2.63,2.63,0,0,1,0-.49.11.11,0,0,0,0-.05,3.07,3.07,0,0,1,.14-.52.5.5,0,0,1,0-.13s0-.08,0-.13l1.07-2.53c.15-.38.37-.89.52-1.26.32-.76.75-1.78,1.06-2.54a2.71,2.71,0,0,0,.13-.3c.14-.32.28-.68.4-1s.34-.83.53-1.27.37-.89.53-1.26.38-.89.53-1.27.34-.82.53-1.26.35-.82.53-1.27l.72-1.72.34-.81.13-.3.4-1c.16-.37.37-.88.53-1.26L15.51,7.6c.16-.38.37-.89.53-1.26.31-.76.74-1.78,1.06-2.53l1,2.53.53,1.27,1,2.54c.32.76.73,1.77,1.05,2.53.15.39.36.89.52,1.27l1,2.54c.32.76.73,1.77,1.05,2.53.15.39.36.89.52,1.27l1,2.54c.32.76.73,1.77,1.05,2.53.16.39.37.89.52,1.27.32.76.74,1.78,1.05,2.54,0,.1.07.2.1.3l0,.07a4.87,4.87,0,0,1,.12.52c0,.05,0,.09,0,.13A3.91,3.91,0,0,1,27.84,30.68Z"/><path class="cls-22" d="M62,77.23c0,2.67-4.84,4.84-10.82,4.84S40.36,79.9,40.36,77.23s4.84-4.85,10.81-4.85a23.76,23.76,0,0,1,3.46.25L62,76.86A2.31,2.31,0,0,1,62,77.23Z"/><g class="cls-6"><path class="cls-23" d="M47.23,40.15a3.71,3.71,0,0,1-3.37,0,1.19,1.19,0,0,1-.7-1L43.05,78a1.19,1.19,0,0,0,.7,1,3.71,3.71,0,0,0,3.37,0,1.18,1.18,0,0,0,.69-1l.11-38.83A1.18,1.18,0,0,1,47.23,40.15Z"/><path class="cls-17" d="M47.22,38.2a3.71,3.71,0,0,0-3.37,0,1,1,0,0,0,0,1.95,3.71,3.71,0,0,0,3.37,0A1,1,0,0,0,47.22,38.2Z"/></g><path class="cls-24" d="M59.38,62.18v.08s0,.09,0,.14a5,5,0,0,1-.06.54,1,1,0,0,1,0,.17,3.68,3.68,0,0,1-.17.63.14.14,0,0,1,0,.06,4.43,4.43,0,0,1-.3.67l-.09.16a5.38,5.38,0,0,1-.39.63s0,0,0,0a7.69,7.69,0,0,1-.53.63,1.14,1.14,0,0,1-.15.16c-.19.2-.4.39-.62.59l0,0a8.69,8.69,0,0,1-.75.57L56,67.4a8.06,8.06,0,0,1-.87.54c-5.55,3.12-14.43,3-19.83-.2-.3-.18-.57-.37-.84-.56l-.19-.13c-.25-.19-.49-.38-.72-.59l-.07-.07a7.23,7.23,0,0,1-.55-.56l-.13-.14c-.17-.21-.34-.42-.49-.63a.75.75,0,0,0-.07-.12c-.12-.19-.23-.39-.33-.58a.83.83,0,0,1-.07-.13,4.62,4.62,0,0,1-.26-.67.74.74,0,0,1,0-.14,4.15,4.15,0,0,1-.14-.61.36.36,0,0,1,0-.11,5.07,5.07,0,0,1,0-.68v-.15c0-.22,0-.43.07-.65,0,0,0,0,0,0a4,4,0,0,1,.18-.68l.06-.16a1.27,1.27,0,0,1,.06-.18l1.37-3.28.69-1.64L35.16,52l.17-.39c.17-.42.36-.88.52-1.25s.45-1.06.69-1.64.48-1.14.68-1.63l.69-1.65c.2-.49.44-1.06.69-1.63l.68-1.64c.28-.66.61-1.47.93-2.23l.44-1c.06-.13.11-.27.17-.4l.52-1.24L42,35.56l1.37-3.28c.21-.49.48-1.15.68-1.64.41-1,1-2.29,1.38-3.28.4,1,.95,2.3,1.35,3.29.21.49.47,1.15.68,1.64.4,1,.95,2.3,1.36,3.29s.94,2.3,1.35,3.28c.2.5.47,1.16.68,1.65.4,1,.94,2.3,1.35,3.28s1,2.31,1.35,3.29l.68,1.64c.4,1,.92,2.24,1.32,3.21l0,.08L57,55.3l.67,1.64c.41,1,1,2.3,1.36,3.29,0,.13.1.26.14.39l0,.09a3.93,3.93,0,0,1,.15.68.88.88,0,0,1,0,.17A3.18,3.18,0,0,1,59.38,62.18Z"/><path class="cls-19" d="M59.38,62.18v.08s0,.09,0,.14a24.19,24.19,0,0,1-10.84,2.28c-8,0-14.5-3.05-14.5-6.8s6.49-6.8,14.5-6.8a28.43,28.43,0,0,1,7,.85l0,.08L57,55.3l.67,1.64c.41,1,1,2.3,1.36,3.29,0,.13.1.26.14.39l0,.09a3.93,3.93,0,0,1,.15.68.88.88,0,0,1,0,.17A3.18,3.18,0,0,1,59.38,62.18Z"/><path class="cls-25" d="M58.24,54.72v.06a1.06,1.06,0,0,1,0,.25,2.47,2.47,0,0,1,0,.38.37.37,0,0,1,0,.15c0,.2-.09.39-.15.59l0,.05a5.65,5.65,0,0,1-.28.62l-.08.15a6,6,0,0,1-.36.57l0,0c-.15.2-.31.39-.48.58l-.14.15c-.18.17-.36.36-.57.53,0,0,0,0,0,0a5.45,5.45,0,0,1-.69.53,1.18,1.18,0,0,1-.18.13c-.25.17-.52.33-.8.5-4,2.25-9.93,2.68-14.68,1.31L39.25,58l-1.17,2.74a12.29,12.29,0,0,1-2-1c-.27-.16-.53-.34-.77-.51l-.18-.13c-.23-.17-.45-.35-.65-.53l-.07-.06c-.18-.17-.36-.35-.51-.52l-.12-.13-.45-.58-.07-.11c-.11-.18-.21-.35-.3-.53l-.06-.12A4,4,0,0,1,32.7,56a.65.65,0,0,1,0-.13,3.65,3.65,0,0,1-.13-.55v-.11a4.4,4.4,0,0,1,0-.62.61.61,0,0,1,0-.14,4,4,0,0,1,0-.6s0,0,0,0a6.25,6.25,0,0,1,.16-.62l.06-.15a1,1,0,0,0,0-.16c.39-.91.89-2.11,1.27-3l.63-1.51,1.26-3,.15-.37.48-1.14.63-1.51c.19-.45.45-1,.63-1.51l.63-1.5c.2-.45.42-1,.64-1.51s.4-1,.62-1.5l.86-2.05.41-1c0-.11.1-.24.15-.36.15-.38.33-.8.47-1.14s.45-1.06.64-1.51c.37-.9.88-2.11,1.26-3l.63-1.51,1.26-3,1.24,3,.63,1.51,1.24,3,1.24,3,.63,1.51,1.24,3c.38.9.87,2.12,1.25,3,.18.45.43,1.06.62,1.51l.06.15c.36.89.83,2,1.18,2.87s.88,2.11,1.25,3c.18.45.43,1.06.62,1.51l1.24,3c0,.12.09.24.13.36l0,.08a4.75,4.75,0,0,1,.14.63s0,.09,0,.15A5.49,5.49,0,0,1,58.24,54.72Z"/><path class="cls-19" d="M58.24,54.72v.06a1.06,1.06,0,0,1,0,.25,27.85,27.85,0,0,1-7.37.94c-8,0-14.5-3-14.5-6.79s6.49-6.8,14.5-6.8c.94,0,1.86,0,2.75.12.36.89.83,2,1.18,2.87s.88,2.11,1.25,3c.18.45.43,1.06.62,1.51l1.24,3c0,.12.09.24.13.36l0,.08a4.75,4.75,0,0,1,.14.63s0,.09,0,.15A5.49,5.49,0,0,1,58.24,54.72Z"/><path class="cls-26" d="M56.18,46.94V47a5,5,0,0,1,0,.53.61.61,0,0,0,0,.13,3.79,3.79,0,0,1-.14.48.07.07,0,0,1,0,0,3.93,3.93,0,0,1-.23.52l-.07.12c-.09.17-.19.32-.3.49l0,0a4.52,4.52,0,0,1-.4.49l-.11.12c-.15.15-.31.31-.48.46h0c-.18.15-.38.3-.58.44l-.16.11-.66.42A14.34,14.34,0,0,1,48,53l-.65-1.3L47,53.07a16.16,16.16,0,0,1-9.42-1.84A6.1,6.1,0,0,1,37,50.8l-.14-.1c-.2-.15-.39-.3-.56-.45l-.06-.06-.43-.43a.87.87,0,0,0-.09-.11,4.3,4.3,0,0,1-.38-.49.41.41,0,0,1,0-.09,3.91,3.91,0,0,1-.26-.44l-.06-.11c-.07-.17-.14-.34-.2-.52l0-.11a2.36,2.36,0,0,1-.1-.46l0-.09a4.41,4.41,0,0,1,0-.52s0-.08,0-.12a2.63,2.63,0,0,1,.05-.49v-.05a5.26,5.26,0,0,1,.15-.53.61.61,0,0,1,0-.12.5.5,0,0,1,0-.13c.32-.76.74-1.78,1.06-2.53l.53-1.27,1.06-2.53c0-.09.08-.2.13-.3l.4-1c.16-.37.34-.82.53-1.26l.53-1.27L39.61,34c.16-.38.34-.82.53-1.26l.53-1.27c.21-.51.47-1.14.72-1.72l.34-.81c0-.1.08-.21.13-.31l.4-1,.53-1.26c.32-.76.74-1.77,1.05-2.53l.54-1.27c.31-.76.74-1.77,1-2.53.32.76.74,1.78,1,2.54.15.38.36.89.53,1.26.31.77.73,1.78,1,2.54l1,2.54.53,1.27,1,2.53,1,2.54.53,1.27,1,2.53c.31.76.73,1.78,1,2.54.16.38.37.89.52,1.27.32.76.73,1.77,1,2.53,0,.1.07.21.1.31a.14.14,0,0,1,0,.07,3,3,0,0,1,.13.52s0,.09,0,.13A3.87,3.87,0,0,1,56.18,46.94Z"/><path class="cls-27" d="M90.32,93.76c0,2.68-4.84,4.85-10.81,4.85S68.7,96.44,68.7,93.76s4.84-4.85,10.81-4.85a22.41,22.41,0,0,1,3.46.26l7.32,4.22A1.54,1.54,0,0,1,90.32,93.76Z"/><g class="cls-6"><path class="cls-28" d="M75.57,56.68a3.71,3.71,0,0,1-3.37,0,1.18,1.18,0,0,1-.7-1l-.11,38.83a1.18,1.18,0,0,0,.7,1,3.71,3.71,0,0,0,3.37,0,1.18,1.18,0,0,0,.69-1l.11-38.83A1.18,1.18,0,0,1,75.57,56.68Z"/><path class="cls-17" d="M75.56,54.73a3.71,3.71,0,0,0-3.37,0,1,1,0,0,0,0,2,3.71,3.71,0,0,0,3.37,0A1,1,0,0,0,75.56,54.73Z"/></g><path class="cls-29" d="M87.72,78.72v.07s0,.09,0,.14a5.14,5.14,0,0,1-.06.55l0,.16a5,5,0,0,1-.17.64s0,0,0,0a4.43,4.43,0,0,1-.3.67l-.09.16a5.38,5.38,0,0,1-.39.63l0,0a7.81,7.81,0,0,1-.53.64l-.15.15c-.19.2-.4.4-.62.6h0a9.46,9.46,0,0,1-.76.58l-.2.14q-.41.27-.87.54c-5.55,3.11-14.43,3-19.83-.21-.3-.18-.58-.36-.84-.55l-.19-.14c-.25-.19-.49-.38-.72-.58l-.07-.07a5.9,5.9,0,0,1-.55-.57l-.13-.13a7.25,7.25,0,0,1-.49-.64l-.07-.11a4.27,4.27,0,0,1-.33-.58l-.07-.14a4.58,4.58,0,0,1-.27-.66.83.83,0,0,0,0-.15c0-.2-.1-.4-.14-.6,0,0,0-.08,0-.11a5.17,5.17,0,0,1,0-.68V78.4c0-.21,0-.43.07-.64a.13.13,0,0,0,0-.06A4.32,4.32,0,0,1,60,77a1,1,0,0,1,.06-.16.85.85,0,0,1,.06-.17l1.37-3.28.69-1.64,1.37-3.28.17-.4c.17-.41.36-.87.52-1.24s.45-1.07.68-1.64.49-1.15.69-1.64l.69-1.64.68-1.64.69-1.64c.28-.66.61-1.47.93-2.23L69,55.37l.17-.39c.17-.42.37-.88.52-1.25l.69-1.64c.41-1,.95-2.29,1.37-3.28.21-.49.48-1.15.68-1.64l1.38-3.28c.4,1,1,2.31,1.35,3.29.21.5.47,1.15.68,1.64.4,1,1,2.31,1.35,3.29s.95,2.3,1.35,3.29c.21.49.48,1.15.68,1.64l1.36,3.29c.4,1,1,2.3,1.35,3.29.21.49.48,1.14.68,1.64.4,1,.92,2.23,1.32,3.21l0,.08c.41,1,1,2.29,1.35,3.28.21.49.48,1.15.68,1.65l1.36,3.28c0,.13.09.26.14.4l0,.08a5.52,5.52,0,0,1,.15.68,1,1,0,0,1,0,.17A4.44,4.44,0,0,1,87.72,78.72Z"/><path class="cls-19" d="M87.72,78.72v.07s0,.09,0,.14a24.06,24.06,0,0,1-10.84,2.28c-8,0-14.5-3-14.5-6.8s6.49-6.8,14.5-6.8a28,28,0,0,1,7,.86l0,.08c.41,1,1,2.29,1.35,3.28.21.49.48,1.15.68,1.65l1.36,3.28c0,.13.09.26.14.4l0,.08a5.52,5.52,0,0,1,.15.68,1,1,0,0,1,0,.17A4.44,4.44,0,0,1,87.72,78.72Z"/><path class="cls-30" d="M86.58,71.25v.06a2,2,0,0,1,0,.25c0,.13,0,.26,0,.39a.8.8,0,0,1,0,.15c0,.19-.09.39-.15.58l0,.06a5.51,5.51,0,0,1-.28.61,1.09,1.09,0,0,1-.08.15q-.17.28-.36.57l0,0a5.37,5.37,0,0,1-.49.58c0,.06-.09.1-.13.15s-.36.36-.57.54l0,0a6.22,6.22,0,0,1-.69.52l-.18.13a9,9,0,0,1-.8.5c-4,2.26-9.93,2.68-14.68,1.31l-.41-3.28-1.17,2.75a13.24,13.24,0,0,1-2-1,7.34,7.34,0,0,1-.77-.51l-.18-.12c-.23-.18-.45-.35-.65-.54l-.07-.06a6.23,6.23,0,0,1-.51-.52.74.74,0,0,1-.12-.13c-.16-.19-.31-.38-.45-.58l-.07-.1q-.16-.27-.3-.54l-.06-.12a4.73,4.73,0,0,1-.25-.62.93.93,0,0,0,0-.13,4.88,4.88,0,0,1-.12-.55l0-.1a4.43,4.43,0,0,1,0-.63.66.66,0,0,1,0-.14,3.92,3.92,0,0,1,.05-.59.11.11,0,0,0,0-.05c0-.21.1-.42.17-.63l.06-.15a1,1,0,0,0,.05-.16c.39-.9.89-2.11,1.27-3,.18-.45.44-1.05.63-1.51l1.26-3,.15-.36L65,60.34l.63-1.5.63-1.51.63-1.5.63-1.51.63-1.51.86-2c.14-.34.28-.69.41-1a3.59,3.59,0,0,1,.15-.37L70,48.29c.19-.45.45-1.06.63-1.51l1.27-3c.18-.45.44-1.05.63-1.51l1.26-3c.37.91.87,2.11,1.24,3l.63,1.5c.37.91.87,2.11,1.24,3l1.24,3,.63,1.51,1.24,3c.38.91.87,2.12,1.25,3,.18.46.43,1.06.62,1.51a.67.67,0,0,0,.06.15c.36.89.82,2,1.18,2.88l1.24,3L85,66.44l1.24,3c0,.12.09.25.13.36a.24.24,0,0,1,0,.08,4.8,4.8,0,0,1,.15.63.77.77,0,0,0,0,.15A5.49,5.49,0,0,1,86.58,71.25Z"/><path class="cls-19" d="M86.58,71.25v.06a2,2,0,0,1,0,.25,27.43,27.43,0,0,1-7.37,1c-8,0-14.5-3.05-14.5-6.8s6.49-6.8,14.5-6.8c.94,0,1.86,0,2.75.12.36.89.82,2,1.18,2.88l1.24,3L85,66.44l1.24,3c0,.12.09.25.13.36a.24.24,0,0,1,0,.08,4.8,4.8,0,0,1,.15.63.77.77,0,0,0,0,.15A5.49,5.49,0,0,1,86.58,71.25Z"/><path class="cls-31" d="M84.52,63.48v.06a3.07,3.07,0,0,1-.06.52.61.61,0,0,1,0,.13,3,3,0,0,1-.13.49s0,0,0,0a4.83,4.83,0,0,1-.23.52.83.83,0,0,0-.07.13q-.13.24-.3.48l0,0c-.12.16-.25.32-.4.49l-.11.11c-.15.16-.31.31-.48.46l0,0c-.18.15-.38.29-.58.44l-.16.1a6.34,6.34,0,0,1-.67.42,13.86,13.86,0,0,1-4.88,1.57l-.65-1.3-.35,1.42a16.24,16.24,0,0,1-9.42-1.85,4.31,4.31,0,0,1-.65-.43l-.14-.1a6.47,6.47,0,0,1-.56-.45s0,0-.06,0-.29-.29-.43-.44l-.09-.1a5.51,5.51,0,0,1-.38-.5l-.06-.08a5.05,5.05,0,0,1-.25-.45l-.06-.11c-.07-.16-.14-.34-.2-.51l0-.11a2.46,2.46,0,0,1-.1-.47l0-.08a3.08,3.08,0,0,1,0-.52v-.13a4.1,4.1,0,0,1,.06-.49v-.05a4.44,4.44,0,0,1,.15-.52l0-.13s0-.08,0-.13l1.06-2.53c.16-.38.37-.89.53-1.26l1.06-2.54c0-.09.08-.2.13-.3l.4-1c.16-.38.34-.83.53-1.27s.37-.88.53-1.26L68,50.52c.16-.38.34-.82.53-1.26L69,48l.72-1.72.34-.81c0-.09.08-.2.12-.3.14-.32.29-.68.4-1s.37-.89.54-1.27c.32-.76.74-1.77,1.05-2.53.17-.38.37-.89.54-1.26.31-.76.74-1.78,1-2.53.32.76.73,1.77,1,2.53.15.38.36.89.52,1.27.32.76.74,1.78,1,2.54l1,2.53c.16.39.37.89.52,1.27.32.76.74,1.78,1,2.54l1,2.53.53,1.27,1,2.54c.31.76.73,1.77,1,2.53.16.39.36.89.52,1.27.31.76.73,1.78,1,2.54,0,.1.07.2.1.3a.19.19,0,0,1,0,.07,2.44,2.44,0,0,1,.12.52.68.68,0,0,1,0,.14A3.64,3.64,0,0,1,84.52,63.48Z"/><path class="cls-32" d="M118.66,110c0,2.68-4.84,4.85-10.81,4.85S97,112.66,97,110s4.84-4.84,10.81-4.84a23.76,23.76,0,0,1,3.46.25l7.32,4.23A2.19,2.19,0,0,1,118.66,110Z"/><g class="cls-6"><path class="cls-33" d="M103.91,72.91a3.77,3.77,0,0,1-3.37,0,1.21,1.21,0,0,1-.71-1l-.11,38.82a1.19,1.19,0,0,0,.71,1,3.71,3.71,0,0,0,3.37,0,1.16,1.16,0,0,0,.69-1l.11-38.83A1.18,1.18,0,0,1,103.91,72.91Z"/><path class="cls-17" d="M103.9,71a3.74,3.74,0,0,0-3.37,0,1,1,0,0,0,0,2,3.77,3.77,0,0,0,3.37,0A1,1,0,0,0,103.9,71Z"/></g><path class="cls-34" d="M116.06,94.94V95a.59.59,0,0,1,0,.14,3.41,3.41,0,0,1-.05.55,1,1,0,0,0,0,.17,4.91,4.91,0,0,1-.17.63s0,0,0,.06a6.42,6.42,0,0,1-.3.66l-.09.17A5.29,5.29,0,0,1,115,98l0,0a7.21,7.21,0,0,1-.52.63l-.15.16-.62.59a0,0,0,0,0,0,0c-.24.19-.49.38-.76.57l-.2.14a9.18,9.18,0,0,1-.87.54c-5.55,3.11-14.43,3-19.83-.2-.3-.18-.58-.37-.84-.56L91,99.81c-.26-.2-.49-.39-.72-.59l-.07-.07c-.2-.18-.38-.37-.56-.56l-.12-.14a6.73,6.73,0,0,1-.49-.63l-.07-.12a5.82,5.82,0,0,1-.34-.58.54.54,0,0,0-.07-.13,6.16,6.16,0,0,1-.26-.67s0-.1,0-.15a5.82,5.82,0,0,1-.14-.6s0-.07,0-.11a5.19,5.19,0,0,1,0-.68s0-.1,0-.15c0-.22,0-.43.07-.65a.13.13,0,0,0,0-.06,4.21,4.21,0,0,1,.19-.67,2377692833903.32,2377692833903.32,0,0,1,.12-.34l1.37-3.28L90.47,88l1.37-3.28.17-.39c.17-.42.36-.88.52-1.25l.68-1.64.69-1.64.69-1.64c.2-.49.44-1.07.68-1.63s.45-1.07.69-1.65.61-1.46.93-2.22l.44-1.05.16-.4c.18-.42.37-.88.53-1.24s.48-1.15.69-1.65L100.07,65c.21-.5.49-1.15.69-1.65l1.37-3.27c.41,1,1,2.3,1.36,3.29.2.49.47,1.14.67,1.64.41,1,1,2.3,1.36,3.29s1,2.29,1.35,3.28c.21.49.48,1.15.68,1.65.41,1,1,2.29,1.35,3.28l1.36,3.29.68,1.64c.39,1,.92,2.23,1.32,3.21l0,.08,1.35,3.28.68,1.65L115.68,93c0,.14.09.27.14.4a.32.32,0,0,0,0,.09,5.37,5.37,0,0,1,.15.67,1,1,0,0,1,0,.17C116,94.52,116.06,94.73,116.06,94.94Z"/><path class="cls-19" d="M116.06,94.94V95a.59.59,0,0,1,0,.14,24,24,0,0,1-10.83,2.28c-8,0-14.5-3-14.5-6.8s6.49-6.79,14.5-6.79a28,28,0,0,1,7.05.85l0,.08,1.35,3.28.68,1.65L115.68,93c0,.14.09.27.14.4a.32.32,0,0,0,0,.09,5.37,5.37,0,0,1,.15.67,1,1,0,0,1,0,.17C116,94.52,116.06,94.73,116.06,94.94Z"/><path class="cls-35" d="M114.92,87.47v.07a2.11,2.11,0,0,1,0,.25c0,.12,0,.25-.05.38l0,.15a4.31,4.31,0,0,1-.16.59v0a4.78,4.78,0,0,1-.28.61l-.08.15a5.5,5.5,0,0,1-.36.57l0,0a6.13,6.13,0,0,1-.48.58l-.13.14a7.54,7.54,0,0,1-.58.54l0,0a7.4,7.4,0,0,1-.69.53l-.18.12a9,9,0,0,1-.8.5c-4,2.26-9.93,2.68-14.68,1.31l-.41-3.27-1.17,2.74a14.4,14.4,0,0,1-2-1c-.27-.16-.52-.34-.77-.51l-.17-.13c-.23-.17-.45-.35-.66-.53a.46.46,0,0,0-.07-.07q-.27-.25-.51-.51l-.11-.14a6,6,0,0,1-.45-.58L90,90c-.11-.18-.21-.36-.31-.54s0-.08,0-.12a4.6,4.6,0,0,1-.25-.61s0-.09,0-.14a4.88,4.88,0,0,1-.12-.55l0-.1a3.33,3.33,0,0,1,0-.63v-.14c0-.19,0-.39.06-.59a.09.09,0,0,0,0,0,4.91,4.91,0,0,1,.17-.63.78.78,0,0,0,0-.14,1,1,0,0,0,.06-.16c.38-.91.89-2.12,1.27-3,.18-.46.44-1.06.63-1.51l1.26-3c0-.12.1-.25.15-.37.16-.38.33-.81.48-1.14l.63-1.51.63-1.51.63-1.5.63-1.51L96.45,69c.25-.61.57-1.34.86-2l.4-1c.05-.11.1-.24.15-.36.16-.38.34-.8.48-1.15s.45-1.05.63-1.5c.38-.9.88-2.11,1.27-3,.18-.46.44-1.06.62-1.51.39-.9.89-2.11,1.27-3l1.24,3c.19.45.43,1,.63,1.51l1.24,3,1.24,3,.63,1.5,1.24,3,1.24,3c.19.45.44,1.05.62,1.51,0,0,.05.09.07.15.36.88.82,2,1.18,2.87l1.24,3,.62,1.52c.38.9.87,2.11,1.25,3,.05.12.09.24.13.35s0,.06,0,.09a4.31,4.31,0,0,1,.15.62c0,.05,0,.1,0,.15A3.77,3.77,0,0,1,114.92,87.47Z"/><path class="cls-19" d="M114.92,87.47v.07a2.11,2.11,0,0,1,0,.25,27.85,27.85,0,0,1-7.37.94c-8,0-14.5-3-14.5-6.8s6.49-6.79,14.5-6.79c.94,0,1.86,0,2.75.12.36.88.82,2,1.18,2.87l1.24,3,.62,1.52c.38.9.87,2.11,1.25,3,.05.12.09.24.13.35s0,.06,0,.09a4.31,4.31,0,0,1,.15.62c0,.05,0,.1,0,.15A3.77,3.77,0,0,1,114.92,87.47Z"/><path class="cls-36" d="M112.85,79.7s0,0,0,.06a3.27,3.27,0,0,1,0,.53l0,.12a2.72,2.72,0,0,1-.13.49.11.11,0,0,0,0,0c-.07.17-.15.35-.23.51a.83.83,0,0,0-.07.13c-.09.16-.2.32-.31.48s0,0,0,0a5.74,5.74,0,0,1-.4.49l-.12.12c-.15.15-.3.3-.48.45v0c-.18.15-.38.3-.58.44l-.16.11c-.21.14-.43.28-.67.41a14.08,14.08,0,0,1-4.88,1.58l-.65-1.3-.36,1.41A16.18,16.18,0,0,1,94.27,84c-.23-.14-.44-.28-.65-.43l-.13-.11a6.41,6.41,0,0,1-.56-.44L92.87,83a5.93,5.93,0,0,1-.43-.44l-.09-.1a5.41,5.41,0,0,1-.38-.49l-.06-.09a5.05,5.05,0,0,1-.25-.45l-.06-.1a3.28,3.28,0,0,1-.2-.52l0-.11a3.84,3.84,0,0,1-.11-.46V80.1a3,3,0,0,1,0-.52v-.12a4.26,4.26,0,0,1,.06-.5v0a4.61,4.61,0,0,1,.15-.53.56.56,0,0,1,0-.12l0-.14c.32-.76.74-1.77,1.06-2.52l.53-1.27,1.06-2.53c0-.1.08-.21.13-.31l.4-1c.15-.38.34-.82.53-1.26L95.76,68c.16-.38.37-.89.53-1.26s.34-.83.52-1.27.35-.82.54-1.26.47-1.14.72-1.72c.11-.28.24-.57.33-.82l.13-.3c.14-.32.29-.68.4-1l.54-1.27c.31-.76.74-1.77,1-2.52.16-.39.37-.89.54-1.27.31-.76.74-1.77,1-2.53l1,2.54c.16.37.37.88.53,1.26.32.77.73,1.78,1,2.54l1,2.54c.16.38.37.88.52,1.27.32.76.73,1.77,1,2.53l1,2.54c.16.38.37.88.52,1.27.32.76.73,1.77,1,2.53s.73,1.78,1,2.54c.15.38.36.88.52,1.27l1,2.53.11.3s0,.05,0,.07a5,5,0,0,1,.12.53.53.53,0,0,1,0,.13A1.94,1.94,0,0,1,112.85,79.7Z"/><path class="cls-37" d="M147,126.43c0,2.67-4.84,4.84-10.81,4.84s-10.81-2.17-10.81-4.84,4.84-4.85,10.81-4.85a23.76,23.76,0,0,1,3.46.25l7.32,4.23A2.31,2.31,0,0,1,147,126.43Z"/><g class="cls-6"><path class="cls-38" d="M132.24,89.35a3.71,3.71,0,0,1-3.37,0,1.21,1.21,0,0,1-.7-1l-.11,38.83a1.21,1.21,0,0,0,.7,1,3.71,3.71,0,0,0,3.37,0,1.2,1.2,0,0,0,.7-1l.11-38.83A1.2,1.2,0,0,1,132.24,89.35Z"/><path class="cls-17" d="M132.23,87.4a3.69,3.69,0,0,0-3.36,0,1,1,0,0,0,0,1.95,3.71,3.71,0,0,0,3.37,0A1,1,0,0,0,132.23,87.4Z"/></g><path class="cls-39" d="M144.39,111.38v.08a.71.71,0,0,1,0,.14,2.48,2.48,0,0,1-.06.54l0,.17c0,.21-.1.42-.17.63a.14.14,0,0,0,0,.06,5.71,5.71,0,0,1-.3.67l-.09.16a7.18,7.18,0,0,1-.39.63l0,0a5.06,5.06,0,0,1-.53.63,1.07,1.07,0,0,1-.14.16c-.19.2-.4.39-.62.59,0,0,0,0,0,0a8.85,8.85,0,0,1-.76.57l-.2.14a9.18,9.18,0,0,1-.87.54c-5.55,3.12-14.43,3-19.83-.2-.3-.18-.58-.37-.85-.56l-.18-.13a8.38,8.38,0,0,1-.72-.59l-.07-.07c-.2-.18-.38-.37-.56-.56l-.12-.14a6.73,6.73,0,0,1-.49-.63.75.75,0,0,1-.07-.12,5.82,5.82,0,0,1-.34-.58.83.83,0,0,0-.07-.13,6.16,6.16,0,0,1-.26-.67.74.74,0,0,1,0-.14,6,6,0,0,1-.14-.61.52.52,0,0,0,0-.11,5,5,0,0,1,0-.67c0-.06,0-.11,0-.16a4.78,4.78,0,0,1,.07-.65s0,0,0,0a3.28,3.28,0,0,1,.19-.68,1,1,0,0,1,.05-.16c0-.06,0-.12.07-.18.41-1,1-2.3,1.37-3.28l.69-1.64c.41-1,1-2.29,1.37-3.27l.16-.4.53-1.25.68-1.64c.2-.49.48-1.14.69-1.63s.48-1.15.69-1.65.44-1.06.68-1.63.45-1.07.68-1.64l.94-2.23.44-1,.16-.39c.18-.42.37-.89.52-1.25s.49-1.15.69-1.64c.42-1,1-2.29,1.37-3.28l.69-1.64,1.37-3.28,1.36,3.29.67,1.64,1.36,3.29,1.35,3.28c.2.5.48,1.16.68,1.65L137.24,93c.41,1,.95,2.31,1.36,3.29.2.5.47,1.15.68,1.64.39,1,.91,2.24,1.31,3.21a.3.3,0,0,1,0,.08c.41,1,1,2.3,1.35,3.29l.68,1.64,1.36,3.29.14.39a.16.16,0,0,0,0,.09,5.15,5.15,0,0,1,.15.68c0,.06,0,.11,0,.17A4.22,4.22,0,0,1,144.39,111.38Z"/><path class="cls-19" d="M144.39,111.38v.08a.71.71,0,0,1,0,.14,24.11,24.11,0,0,1-10.83,2.28c-8,0-14.51-3-14.51-6.8s6.5-6.8,14.51-6.8a28.35,28.35,0,0,1,7,.85.3.3,0,0,1,0,.08c.41,1,1,2.3,1.35,3.29l.68,1.64,1.36,3.29.14.39a.16.16,0,0,0,0,.09,5.15,5.15,0,0,1,.15.68c0,.06,0,.11,0,.17A4.22,4.22,0,0,1,144.39,111.38Z"/><path class="cls-40" d="M143.26,103.92V104a2.11,2.11,0,0,1,0,.25c0,.13,0,.26-.05.38l0,.15a4.31,4.31,0,0,1-.16.59l0,.05a4.16,4.16,0,0,1-.27.62l-.09.15a5.84,5.84,0,0,1-.35.57l0,0a6.41,6.41,0,0,1-.48.58l-.13.15c-.18.18-.37.36-.58.54h0a7.4,7.4,0,0,1-.69.53l-.19.13c-.25.17-.51.33-.8.5-4,2.25-9.92,2.68-14.67,1.31l-.41-3.28L123.09,110a12.72,12.72,0,0,1-2-1c-.27-.16-.52-.34-.77-.51l-.17-.13c-.23-.17-.45-.34-.66-.53l-.07-.06c-.18-.17-.35-.35-.51-.52l-.11-.13a7,7,0,0,1-.45-.58l-.07-.11-.31-.53-.06-.12a5.27,5.27,0,0,1-.24-.62s0-.09,0-.13a5.41,5.41,0,0,1-.12-.55l0-.11a3.26,3.26,0,0,1,0-.62v-.14q0-.3.06-.6a.07.07,0,0,0,0,0,4.37,4.37,0,0,1,.17-.62s0-.1.05-.15a1,1,0,0,0,.06-.16c.38-.91.89-2.11,1.26-3l.64-1.51c.37-.91.88-2.11,1.26-3a3.59,3.59,0,0,1,.15-.37c.16-.38.33-.8.48-1.14s.4-1,.62-1.51.45-1,.64-1.51l.63-1.5.63-1.51.63-1.5c.25-.61.57-1.35.86-2l.4-1,.15-.37.48-1.14c.19-.46.45-1.06.63-1.51.38-.9.88-2.11,1.27-3,.18-.45.44-1.06.62-1.51l1.27-3,1.24,3c.18.45.43,1.06.62,1.51.38.9.87,2.11,1.25,3l1.24,3c.19.45.44,1.05.62,1.51l1.24,3c.38.9.88,2.12,1.25,3,.19.45.44,1.06.62,1.51a1,1,0,0,0,.07.15l1.17,2.87c.38.91.88,2.11,1.25,3,.19.45.44,1.06.62,1.51l1.25,3c.05.12.09.24.13.36a.24.24,0,0,0,0,.08q.09.31.15.63s0,.09,0,.15A3.69,3.69,0,0,1,143.26,103.92Z"/><path class="cls-19" d="M143.26,103.92V104a2.11,2.11,0,0,1,0,.25,27.84,27.84,0,0,1-7.37,1c-8,0-14.5-3.05-14.5-6.8s6.49-6.8,14.5-6.8c.94,0,1.85,0,2.75.12l1.17,2.87c.38.91.88,2.11,1.25,3,.19.45.44,1.06.62,1.51l1.25,3c.05.12.09.24.13.36a.24.24,0,0,0,0,.08q.09.31.15.63s0,.09,0,.15A3.69,3.69,0,0,1,143.26,103.92Z"/><path class="cls-41" d="M141.19,96.14s0,0,0,.06a3.07,3.07,0,0,1-.05.53l0,.13a2.62,2.62,0,0,1-.13.48.11.11,0,0,0,0,0c-.07.17-.15.35-.24.52a.75.75,0,0,1-.07.12,4.3,4.3,0,0,1-.3.49l0,0a5.82,5.82,0,0,1-.41.48l-.11.12c-.15.15-.3.31-.48.46h0a6.77,6.77,0,0,1-.58.44l-.15.11c-.21.14-.43.28-.67.42a14.28,14.28,0,0,1-4.88,1.57l-.65-1.3-.36,1.41a16.18,16.18,0,0,1-9.42-1.84A7.31,7.31,0,0,1,122,100l-.14-.1c-.19-.15-.39-.3-.55-.45l-.06-.06a5.81,5.81,0,0,1-.43-.43l-.09-.11a4.3,4.3,0,0,1-.38-.49l-.06-.09a3.83,3.83,0,0,1-.25-.44l-.06-.11a3.59,3.59,0,0,1-.2-.51.42.42,0,0,1,0-.12,2.37,2.37,0,0,1-.11-.46l0-.09a4.43,4.43,0,0,1,0-.52V95.9a3.87,3.87,0,0,1,0-.49.11.11,0,0,0,0,0,5.18,5.18,0,0,1,.14-.53l0-.12s0-.09,0-.13c.32-.76.74-1.78,1.06-2.53l.53-1.27,1.06-2.53c0-.09.08-.2.13-.3.13-.32.27-.68.4-1l.52-1.26c.17-.38.37-.89.54-1.27s.37-.88.53-1.26.34-.82.52-1.26l.54-1.27c.21-.51.47-1.14.72-1.72.11-.28.23-.57.33-.81l.13-.31.4-1,.53-1.26c.32-.76.75-1.77,1.06-2.53l.53-1.27c.32-.76.75-1.77,1.06-2.53l1,2.54c.16.38.37.89.53,1.26.31.77.73,1.78,1,2.54l1,2.54c.16.38.36.89.52,1.27.31.76.73,1.77,1.05,2.53l1,2.54c.16.38.37.89.52,1.27.32.76.73,1.78,1,2.54s.73,1.77,1.05,2.53c.15.38.36.89.52,1.27l1,2.54a2.65,2.65,0,0,1,.11.3.25.25,0,0,0,0,.07,4.37,4.37,0,0,1,.12.52.62.62,0,0,1,0,.13A1.94,1.94,0,0,1,141.19,96.14Z"/><path class="cls-42" d="M.13,16.33,0,57.64c0,1.86,1.22,3.72,3.66,5.13l.12-41.3C1.34,20.05.12,18.19.13,16.33Z"/><polygon class="cls-43" points="3.79 21.46 3.67 62.77 128.67 134.94 128.79 93.63 3.79 21.46"/><path class="cls-44" d="M4.28,22.33l124,71.59-.11,40.15L4.17,62.48l.11-40.15m-.49-.86-.12,41.3,125,72.17.12-41.31L3.79,21.47Z"/><path class="cls-45" d="M146.41,93.63c-4.83,2.81-12.77,2.81-17.62,0l-.12,41.31c5.57,3.39,13.2,3.42,17.81.58,3-1.88,3.41-2.81,3.41-5.65l.12-41.3C150,90.4,148.81,92.24,146.41,93.63Z"/><path class="cls-46" d="M149.5,91.58l-.11,38.29c0,2.65-.29,3.44-3.17,5.22a15,15,0,0,1-7.81,2,18.63,18.63,0,0,1-9.24-2.41l.11-40.19a19.16,19.16,0,0,0,8.33,1.77,18.33,18.33,0,0,0,9-2.17,9,9,0,0,0,2.84-2.49m.51-3c0,1.83-1.2,3.67-3.6,5.06a19.45,19.45,0,0,1-17.62,0l-.12,41.31a18.93,18.93,0,0,0,9.74,2.63,15.56,15.56,0,0,0,8.07-2c3-1.88,3.41-2.81,3.41-5.65l.12-41.3Z"/></g></g></g></svg>