<svg xmlns="http://www.w3.org/2000/svg" xmlns:xlink="http://www.w3.org/1999/xlink" viewBox="0 0 150 150"><defs><style>.cls-1,.cls-2{fill:none;}.cls-2{stroke:#fff;stroke-miterlimit:10;stroke-width:0.1px;}.cls-3{opacity:0;}.cls-4{fill:#000714;}.cls-5{opacity:0.1;fill:url(#新建图案);}.cls-6{isolation:isolate;}.cls-7{fill:url(#未命名的渐变_114);}.cls-8{fill:url(#未命名的渐变_102);}.cls-9{fill:#dcdcdc;}.cls-10{fill:url(#未命名的渐变_114-2);}.cls-11{fill:url(#未命名的渐变_102-2);}.cls-12{fill:url(#未命名的渐变_260);}.cls-13{fill:url(#未命名的渐变_13);}.cls-14{fill:url(#未命名的渐变_11);}.cls-15{fill:url(#未命名的渐变_217);}.cls-16{fill:url(#未命名的渐变_283);}.cls-17{fill:url(#未命名的渐变_240);}.cls-18{mix-blend-mode:multiply;}.cls-19{fill:#242d3a;}.cls-20{fill:#13181d;}.cls-21{fill:url(#未命名的渐变_1403);}.cls-22{fill:url(#未命名的渐变_12);}.cls-23{fill:url(#未命名的渐变_114-3);}.cls-24{fill:url(#未命名的渐变_42);}.cls-25{opacity:0.2;}</style><pattern id="新建图案" data-name="新建图案" width="18.57" height="32.16" patternTransform="translate(1563.65 614.31)" patternUnits="userSpaceOnUse" viewBox="0 0 18.57 32.16"><rect class="cls-1" width="18.57" height="32.16"/><polyline class="cls-2" points="18.57 21.44 18.57 32.16 18.57 42.88"/><polyline class="cls-2" points="9.29 26.8 18.57 32.16 27.85 37.51 27.85 37.52"/><polyline class="cls-2" points="9.29 37.52 9.29 37.51 18.57 32.16 27.85 26.8"/><polygon class="cls-2" points="27.85 37.52 27.85 26.8 18.57 21.44 9.28 26.8 9.28 37.52 18.57 42.88 27.85 37.52"/><polyline class="cls-2" points="0 21.44 0 32.16 0 42.88"/><polyline class="cls-2" points="-9.28 26.8 0 32.16 9.28 37.51 9.28 37.52"/><polyline class="cls-2" points="-9.28 37.52 -9.28 37.51 0 32.16 9.28 26.8"/><polygon class="cls-2" points="9.28 37.52 9.28 26.8 0 21.44 -9.29 26.8 -9.29 37.52 0 42.88 9.28 37.52"/><polyline class="cls-2" points="18.57 10.72 27.85 16.08 37.13 21.43 37.13 21.44"/><polyline class="cls-2" points="18.57 21.44 18.57 21.43 27.85 16.08 37.13 10.72"/><polygon class="cls-2" points="37.14 21.44 37.14 10.72 27.85 5.36 18.57 10.72 18.57 21.44 27.85 26.8 37.14 21.44"/><polyline class="cls-2" points="9.29 5.36 9.29 16.08 9.29 26.8"/><polyline class="cls-2" points="0.01 10.72 9.29 16.08 18.57 21.43 18.57 21.44"/><polyline class="cls-2" points="0.01 21.44 0.01 21.43 9.29 16.08 18.57 10.72"/><polygon class="cls-2" points="18.57 21.44 18.57 10.72 9.28 5.36 0 10.72 0 21.44 9.28 26.8 18.57 21.44"/><polyline class="cls-2" points="-18.56 10.72 -9.28 16.08 0 21.43 0 21.44"/><polyline class="cls-2" points="-18.56 21.44 -18.56 21.43 -9.28 16.08 0 10.72"/><polygon class="cls-2" points="0 21.44 0 10.72 -9.29 5.36 -18.57 10.72 -18.57 21.44 -9.29 26.8 0 21.44"/><polyline class="cls-2" points="18.57 -10.72 18.57 0 18.57 10.72"/><polyline class="cls-2" points="9.29 -5.36 18.57 0 27.85 5.35 27.85 5.36"/><polyline class="cls-2" points="9.29 5.36 9.29 5.35 18.57 0 27.85 -5.36"/><polygon class="cls-2" points="27.85 5.36 27.85 -5.36 18.57 -10.72 9.28 -5.36 9.28 5.36 18.57 10.72 27.85 5.36"/><polyline class="cls-2" points="0 -10.72 0 0 0 10.72"/><polyline class="cls-2" points="-9.28 -5.36 0 0 9.28 5.35 9.28 5.36"/><polyline class="cls-2" points="-9.28 5.36 -9.28 5.35 0 0 9.28 -5.36"/><polygon class="cls-2" points="9.28 5.36 9.28 -5.36 0 -10.72 -9.29 -5.36 -9.29 5.36 0 10.72 9.28 5.36"/></pattern><linearGradient id="未命名的渐变_114" x1="55.34" y1="132.72" x2="42.48" y2="119.86" gradientUnits="userSpaceOnUse"><stop offset="0" stop-color="#425266"/><stop offset="1" stop-color="#596b8c"/></linearGradient><linearGradient id="未命名的渐变_102" x1="47.84" y1="133.75" x2="62" y2="119.59" gradientUnits="userSpaceOnUse"><stop offset="0" stop-color="#283140"/><stop offset="0.34" stop-color="#232b37"/><stop offset="0.9" stop-color="#15191f"/><stop offset="1" stop-color="#12161a"/></linearGradient><linearGradient id="未命名的渐变_114-2" x1="96.42" y1="146.35" x2="81.02" y2="130.95" xlink:href="#未命名的渐变_114"/><linearGradient id="未命名的渐变_102-2" x1="88.27" y1="145.49" x2="101.19" y2="132.57" xlink:href="#未命名的渐变_102"/><linearGradient id="未命名的渐变_260" x1="47.39" y1="135.57" x2="105.26" y2="102.16" gradientUnits="userSpaceOnUse"><stop offset="0" stop-color="#283140"/><stop offset="0.1" stop-color="#728ebf"/><stop offset="0.28" stop-color="#556a8d"/><stop offset="0.48" stop-color="#38465c"/><stop offset="0.66" stop-color="#232c38"/><stop offset="0.81" stop-color="#171c22"/><stop offset="0.9" stop-color="#12161a"/><stop offset="1" stop-color="#283140"/></linearGradient><linearGradient id="未命名的渐变_13" x1="40.66" y1="30.4" x2="109.49" y2="30.4" gradientTransform="translate(105.26 -44.76) rotate(89.84)" gradientUnits="userSpaceOnUse"><stop offset="0" stop-color="#89abe6"/><stop offset="1" stop-color="#547099"/></linearGradient><linearGradient id="未命名的渐变_11" x1="45.66" y1="15.64" x2="104.47" y2="49.59" gradientUnits="userSpaceOnUse"><stop offset="0" stop-color="#283140"/><stop offset="0.35" stop-color="#89abe6"/><stop offset="0.9" stop-color="#12161a"/><stop offset="1" stop-color="#283140"/></linearGradient><linearGradient id="未命名的渐变_217" x1="37.79" y1="83.94" x2="112.21" y2="83.94" gradientUnits="userSpaceOnUse"><stop offset="0" stop-color="#283140"/><stop offset="0.2" stop-color="#89abe6"/><stop offset="0.9" stop-color="#12161a"/><stop offset="1" stop-color="#283140"/></linearGradient><radialGradient id="未命名的渐变_283" cx="62.96" cy="24.19" r="37.38" gradientTransform="matrix(0.87, -0.5, 0.51, 0.88, -3.86, 34.36)" gradientUnits="userSpaceOnUse"><stop offset="0" stop-color="#90b6f5"/><stop offset="0.14" stop-color="#89adea"/><stop offset="0.39" stop-color="#7596cc"/><stop offset="0.71" stop-color="#56719d"/><stop offset="1" stop-color="#364b6b"/></radialGradient><linearGradient id="未命名的渐变_240" x1="71.51" y1="8.87" x2="78.49" y2="8.87" gradientUnits="userSpaceOnUse"><stop offset="0" stop-color="#38455a"/><stop offset="0.15" stop-color="#89abe6"/><stop offset="0.25" stop-color="#89abe6"/><stop offset="0.9" stop-color="#12161a"/><stop offset="1" stop-color="#283140"/></linearGradient><linearGradient id="未命名的渐变_1403" x1="568.99" y1="89.24" x2="565.44" y2="83.1" gradientTransform="translate(433.25 -444.7) rotate(120)" gradientUnits="userSpaceOnUse"><stop offset="0" stop-color="#283140"/><stop offset="0.1" stop-color="#12161a"/><stop offset="0.8" stop-color="#7a98cc"/><stop offset="1" stop-color="#38455a"/></linearGradient><linearGradient id="未命名的渐变_12" x1="573.21" y1="90.52" x2="566.46" y2="78.82" gradientTransform="translate(433.25 -444.7) rotate(120)" gradientUnits="userSpaceOnUse"><stop offset="0" stop-color="#0073e6"/><stop offset="0.2" stop-color="#59c8ff"/><stop offset="0.9" stop-color="#1433cc"/><stop offset="1" stop-color="#0073e6"/></linearGradient><linearGradient id="未命名的渐变_114-3" x1="562.89" y1="85.92" x2="572.46" y2="85.92" gradientTransform="translate(433.25 -444.7) rotate(120)" xlink:href="#未命名的渐变_114"/><linearGradient id="未命名的渐变_42" x1="72.6" y1="8.11" x2="77.39" y2="-0.19" gradientUnits="userSpaceOnUse"><stop offset="0" stop-color="#99beff"/><stop offset="0.02" stop-color="#99beff" stop-opacity="0.93"/><stop offset="0.09" stop-color="#99beff" stop-opacity="0.74"/><stop offset="0.17" stop-color="#99beff" stop-opacity="0.56"/><stop offset="0.25" stop-color="#99beff" stop-opacity="0.41"/><stop offset="0.33" stop-color="#99beff" stop-opacity="0.28"/><stop offset="0.43" stop-color="#99beff" stop-opacity="0.18"/><stop offset="0.53" stop-color="#99beff" stop-opacity="0.1"/><stop offset="0.64" stop-color="#99beff" stop-opacity="0.04"/><stop offset="0.77" stop-color="#99beff" stop-opacity="0.01"/><stop offset="1" stop-color="#99beff" stop-opacity="0"/></linearGradient></defs><title>校验罐</title><g id="图层_2" data-name="图层 2"><g id="图层_1-2" data-name="图层 1"><g id="校验罐"><g class="cls-3"><rect class="cls-4" width="150" height="150"/><rect id="网格" class="cls-5" width="150" height="150"/></g><g class="cls-6"><g class="cls-6"><polygon class="cls-7" points="45.51 116.83 45.46 135.03 51.08 136.99 54.9 120.09 45.51 116.83"/><polygon class="cls-8" points="54.9 120.09 51.08 136.99 54.94 133.25 58.76 116.36 54.9 120.09"/><polygon class="cls-9" points="49.37 113.09 45.51 116.83 54.9 120.09 58.76 116.36 49.37 113.09"/></g><g class="cls-6"><polygon class="cls-10" points="83.44 128.53 87.15 148.04 92.78 150 92.83 131.8 83.44 128.53"/><polygon class="cls-11" points="92.83 131.8 92.78 150 96.63 146.26 96.69 128.06 92.83 131.8"/><polygon class="cls-9" points="87.29 124.8 83.44 128.53 92.83 131.8 96.69 128.06 87.29 124.8"/></g><path class="cls-12" d="M112.07,114c0,5.6-3.77,11.18-11.25,15.37-14.71,8.26-38.22,8-52.52-.53-7-4.2-10.52-9.63-10.51-15a19,19,0,0,0,1.12,6.45,14.79,14.79,0,0,0,.79,2,18.7,18.7,0,0,0,2.2,3.52,26.62,26.62,0,0,0,2.93,3.13,32.19,32.19,0,0,0,5,3.63,47.13,47.13,0,0,0,17,5.79,60,60,0,0,0,10.2.55,55,55,0,0,0,10.23-1.29c.42-.1,2.65-.6,5.05-1.42a40.42,40.42,0,0,0,4.91-2,32.2,32.2,0,0,0,3.16-1.72c1.06-.66,2.43-1.61,3.42-2.37a25,25,0,0,0,4.76-5,17.14,17.14,0,0,0,2.45-4.82A19.07,19.07,0,0,0,112.07,114Z" transform="translate(0 -0.05)"/><ellipse class="cls-13" cx="75.07" cy="30.4" rx="19.94" ry="34.42" transform="translate(44.46 105.33) rotate(-89.84)"/><path class="cls-14" d="M101.7,17.67l-.47-.27-1.91-1.11.43.26c13.25,7.92,12.94,20.54-.69,28.19s-35.42,7.42-48.67-.5-12.94-20.54.69-28.18l-1.9,1.08c-14.71,8.25-15,21.87-.75,30.42s37.81,8.79,52.52.53S116,26.22,101.7,17.67Z" transform="translate(0 -0.05)"/><path class="cls-15" d="M101,48.09c-14.71,8.26-38.22,8-52.52-.53-7-4.2-10.52-9.63-10.5-15.05l-.14,81.24c0,5.41,3.48,10.84,10.51,15,14.3,8.55,37.81,8.79,52.52.53,7.48-4.19,11.24-9.77,11.25-15.37l.14-81.23C112.19,38.32,108.43,43.9,101,48.09Z" transform="translate(0 -0.05)"/><path class="cls-16" d="M54,10.9c-.71.4-1.63,1-2.3,1.41a23.88,23.88,0,0,0-2.35,1.75c-1,.83-2.18,2-3,2.89a24.18,24.18,0,0,0-1.93,2.45,20.73,20.73,0,0,0-1.82,3.15,28.49,28.49,0,0,0-1.17,3.07,17,17,0,0,0-.45,1.87c-.07.34-.12.8-.17,1.14a15.63,15.63,0,0,0-.12,1.93c0,5,3.21,10,9.72,13.92,13.22,7.91,35,8.13,48.57.49,6.92-3.88,10.4-9,10.41-14.22A20.58,20.58,0,0,0,104,17.4a23.37,23.37,0,0,0-2-2,28.6,28.6,0,0,0-3.42-2.75,31.56,31.56,0,0,0-4.1-2.44,36.14,36.14,0,0,0-4.23-1.82,40.94,40.94,0,0,0-4.25-1.29c-2.22-.55-4.24-.82-4.26-.83-1.6-.2-3-.38-4.26-.42-.64,0-1.49-.06-2.13-.07s-1.49,0-2.13,0-1.5.07-2.13.12a45.52,45.52,0,0,0-8.68,1.52,41.57,41.57,0,0,0-4.41,1.52c-1.25.51-2.87,1.33-4.07,2" transform="translate(0 -0.05)"/><path class="cls-17" d="M78.49,4.37v7a1.74,1.74,0,0,1-1,1.4,5.44,5.44,0,0,1-4.94,0,1.72,1.72,0,0,1-1-1.43v-7a1.72,1.72,0,0,0,1,1.43,5.44,5.44,0,0,0,4.94,0A1.74,1.74,0,0,0,78.49,4.37Z" transform="translate(0 -0.05)"/><g class="cls-18"><path class="cls-19" d="M78.49,4.34v0a1.75,1.75,0,0,1-1,1.4,5.44,5.44,0,0,1-4.94,0,1.75,1.75,0,0,1-1-1.44,1.74,1.74,0,0,1,1-1.42,5.44,5.44,0,0,1,4.94,0A1.75,1.75,0,0,1,78.49,4.34Z" transform="translate(0 -0.05)"/></g><g class="cls-6"><path class="cls-20" d="M74.52,1.74A1,1,0,0,1,75,1.63c.38,0,.68.17.68.39V.92c0-.22-.29-.4-.67-.39a.9.9,0,0,0-.48.11.33.33,0,0,0-.19.27V2A.35.35,0,0,1,74.52,1.74Z" transform="translate(0 -0.05)"/><path class="cls-20" d="M70.81,2.63a1,1,0,0,1,1,0A.31.31,0,0,1,72,2.9V1.8a.33.33,0,0,0-.2-.27,1,1,0,0,0-1,0,.33.33,0,0,0-.2.27V2.9A.33.33,0,0,1,70.81,2.63Z" transform="translate(0 -0.05)"/><path class="cls-20" d="M78.21,2.63a1.08,1.08,0,0,1,1,0,.31.31,0,0,1,.19.27V1.8a.33.33,0,0,0-.2-.27,1.06,1.06,0,0,0-1,0,.33.33,0,0,0-.2.27V2.91A.33.33,0,0,1,78.21,2.63Z" transform="translate(0 -0.05)"/><path class="cls-20" d="M69.27,4.77a1,1,0,0,1,.48-.11c.37,0,.67.17.67.39V4c0-.22-.3-.4-.68-.4a1,1,0,0,0-.47.12.33.33,0,0,0-.2.27V5A.35.35,0,0,1,69.27,4.77Z" transform="translate(0 -0.05)"/><path class="cls-20" d="M79.73,4.77a1,1,0,0,1,.48-.11c.37,0,.67.17.67.38V3.94c0-.21-.3-.39-.67-.38a.88.88,0,0,0-.48.11.35.35,0,0,0-.2.28v1.1A.35.35,0,0,1,79.73,4.77Z" transform="translate(0 -0.05)"/><path class="cls-21" d="M72.52,3.49a5.53,5.53,0,0,1,5,0,1.75,1.75,0,0,1,1,1.44V4a1.75,1.75,0,0,0-1-1.45,5.55,5.55,0,0,0-5,0,1.76,1.76,0,0,0-1,1.47V5A1.77,1.77,0,0,1,72.52,3.49Z" transform="translate(0 -0.05)"/><path class="cls-20" d="M70.79,6.91a1.06,1.06,0,0,1,.95,0,.35.35,0,0,1,.2.28V6.09a.35.35,0,0,0-.2-.28,1.06,1.06,0,0,0-.95,0,.33.33,0,0,0-.2.28v1.1A.35.35,0,0,1,70.79,6.91Z" transform="translate(0 -0.05)"/><path class="cls-20" d="M78.19,6.91a1.06,1.06,0,0,1,1,0,.35.35,0,0,1,.2.28V6.09a.34.34,0,0,0-.19-.28,1.08,1.08,0,0,0-1,0,.34.34,0,0,0-.19.28v1.1A.35.35,0,0,1,78.19,6.91Z" transform="translate(0 -0.05)"/><path class="cls-20" d="M74.48,7.8A1,1,0,0,1,75,7.69c.37,0,.67.17.67.38V7c0-.21-.3-.39-.67-.38a.88.88,0,0,0-.48.11.35.35,0,0,0-.2.28v1.1A.33.33,0,0,1,74.48,7.8Z" transform="translate(0 -0.05)"/><path class="cls-22" d="M79.76,7.83a3.39,3.39,0,0,0,2-2.79V3.94a3.36,3.36,0,0,1-2,2.78,10.51,10.51,0,0,1-9.55,0,3.32,3.32,0,0,1-2-2.74v1.1a3.37,3.37,0,0,0,2,2.75A10.57,10.57,0,0,0,79.76,7.83Z" transform="translate(0 -0.05)"/><path class="cls-23" d="M79.76,6.72c2.64-1.52,2.65-4,0-5.52a10.51,10.51,0,0,0-9.55,0c-2.64,1.52-2.66,4,0,5.52A10.51,10.51,0,0,0,79.76,6.72Zm-.62-.36a1,1,0,0,1-1,0,.29.29,0,0,1,0-.55,1.08,1.08,0,0,1,1,0A.29.29,0,0,1,79.14,6.36ZM80.88,4a.35.35,0,0,1-.2.27.88.88,0,0,1-.48.11c-.37,0-.67-.17-.67-.38a.35.35,0,0,1,.2-.28.88.88,0,0,1,.48-.11C80.58,3.55,80.88,3.73,80.88,4ZM78.21,1.53a1.06,1.06,0,0,1,1,0,.29.29,0,0,1,0,.55,1.06,1.06,0,0,1-1,0C77.94,1.93,78,1.68,78.21,1.53ZM74.32.91a.33.33,0,0,1,.19-.27A.9.9,0,0,1,75,.53c.38,0,.68.17.67.39a.33.33,0,0,1-.19.27,1,1,0,0,1-.48.12C74.61,1.31,74.31,1.13,74.32.91Zm-3.51.62a1,1,0,0,1,1,0c.27.15.26.4,0,.55a1.06,1.06,0,0,1-1,0C70.54,1.93,70.55,1.68,70.81,1.53Zm1.7,1a5.55,5.55,0,0,1,5,0c1.38.8,1.38,2.11,0,2.91a5.55,5.55,0,0,1-5,0C71.12,4.63,71.12,3.33,72.51,2.52ZM69.07,3.94a.33.33,0,0,1,.2-.27,1,1,0,0,1,.47-.12c.38,0,.68.18.68.4a.37.37,0,0,1-.2.27.9.9,0,0,1-.48.11C69.36,4.34,69.07,4.16,69.07,3.94Zm5.21,3a.35.35,0,0,1,.2-.28A.88.88,0,0,1,75,6.59c.37,0,.67.17.67.39a.35.35,0,0,1-.2.27.88.88,0,0,1-.48.11C74.58,7.37,74.28,7.19,74.28,7ZM70.79,5.81a1.06,1.06,0,0,1,.95,0,.29.29,0,0,1,0,.55,1,1,0,0,1-1,0C70.52,6.21,70.52,6,70.79,5.81Z" transform="translate(0 -0.05)"/><path class="cls-24" d="M75,.15a9.55,9.55,0,0,1,4.72,1.13A3.27,3.27,0,0,1,81.65,4a3.29,3.29,0,0,1-1.94,2.69A9.65,9.65,0,0,1,75,7.77a9.55,9.55,0,0,1-4.72-1.13A3.27,3.27,0,0,1,68.35,4a3.3,3.3,0,0,1,1.94-2.69A9.65,9.65,0,0,1,75,.15m0-.1A9.69,9.69,0,0,0,70.24,1.2c-2.64,1.52-2.66,4,0,5.52A9.62,9.62,0,0,0,75,7.87a9.74,9.74,0,0,0,4.78-1.15c2.64-1.52,2.65-4,0-5.52A9.65,9.65,0,0,0,75,.05Z" transform="translate(0 -0.05)"/></g></g></g></g></g></svg>