<svg xmlns="http://www.w3.org/2000/svg" xmlns:xlink="http://www.w3.org/1999/xlink" viewBox="0 0 150 150"><defs><style>.cls-1,.cls-2{fill:none;}.cls-2{stroke:#fff;stroke-miterlimit:10;stroke-width:0.1px;}.cls-3{opacity:0;}.cls-4{fill:#000714;}.cls-5{opacity:0.1;fill:url(#新建图案);}.cls-6{isolation:isolate;}.cls-7{fill:#13181d;}.cls-8{fill:url(#未命名的渐变_1403);}.cls-9{fill:url(#未命名的渐变_100);}.cls-10{fill:url(#未命名的渐变_114);}.cls-11{fill:url(#未命名的渐变_1403-2);}.cls-12{fill:url(#未命名的渐变_114-2);}.cls-13{fill:url(#未命名的渐变_1403-3);}.cls-14{fill:url(#未命名的渐变_62);}.cls-15{fill:url(#未命名的渐变_77);}.cls-16{fill:url(#未命名的渐变_1403-4);}.cls-17{fill:url(#未命名的渐变_1403-5);}.cls-18{fill:url(#未命名的渐变_62-2);}.cls-19{fill:url(#未命名的渐变_1403-6);}.cls-20{fill:url(#未命名的渐变_1403-7);}.cls-21{fill:url(#未命名的渐变_100-2);}.cls-22{fill:url(#未命名的渐变_114-3);}.cls-23{fill:url(#未命名的渐变_13);}.cls-24{fill:url(#未命名的渐变_276);}.cls-25{fill:url(#未命名的渐变_13-2);}.cls-26{fill:url(#未命名的渐变_78);}.cls-27{fill:url(#未命名的渐变_17280);}.cls-28{fill:url(#未命名的渐变_78-2);}.cls-29{fill:url(#未命名的渐变_17280-2);}.cls-30{fill:url(#未命名的渐变_17283);}.cls-31{fill:url(#未命名的渐变_17280-3);}.cls-32{fill:url(#未命名的渐变_78-3);}.cls-33{fill:url(#未命名的渐变_13-3);}.cls-34{fill:url(#未命名的渐变_255);}.cls-35{fill:url(#未命名的渐变_13-4);}.cls-36{fill:url(#未命名的渐变_255-2);}.cls-37{fill:url(#未命名的渐变_114-4);}.cls-38{fill:url(#未命名的渐变_255-3);}.cls-39{fill:url(#未命名的渐变_13-5);}.cls-40{fill:url(#未命名的渐变_78-4);}.cls-41{fill:url(#未命名的渐变_17280-4);}.cls-42{fill:url(#未命名的渐变_78-5);}.cls-43{fill:url(#未命名的渐变_17280-5);}.cls-44{fill:url(#未命名的渐变_17283-2);}.cls-45{fill:url(#未命名的渐变_17280-6);}.cls-46{fill:url(#未命名的渐变_78-6);}.cls-47{fill:url(#未命名的渐变_100-3);}.cls-48{fill:url(#未命名的渐变_17283-3);}.cls-49{fill:url(#未命名的渐变_13-6);}.cls-50{fill:url(#未命名的渐变_240);}.cls-51{fill:url(#未命名的渐变_92);}.cls-52{fill:url(#未命名的渐变_240-2);}.cls-53{fill:url(#未命名的渐变_88);}.cls-54{opacity:0.2;}</style><pattern id="新建图案" data-name="新建图案" width="18.57" height="32.16" patternTransform="translate(1390.58 614.36)" patternUnits="userSpaceOnUse" viewBox="0 0 18.57 32.16"><rect class="cls-1" width="18.57" height="32.16"/><polyline class="cls-2" points="18.57 21.44 18.57 32.16 18.57 42.88"/><polyline class="cls-2" points="9.29 26.8 18.57 32.16 27.85 37.51 27.85 37.52"/><polyline class="cls-2" points="9.29 37.52 9.29 37.51 18.57 32.16 27.85 26.8"/><polygon class="cls-2" points="27.85 37.52 27.85 26.8 18.57 21.44 9.28 26.8 9.28 37.52 18.57 42.88 27.85 37.52"/><polyline class="cls-2" points="0 21.44 0 32.16 0 42.88"/><polyline class="cls-2" points="-9.28 26.8 0 32.16 9.28 37.51 9.28 37.52"/><polyline class="cls-2" points="-9.28 37.52 -9.28 37.51 0 32.16 9.28 26.8"/><polygon class="cls-2" points="9.28 37.52 9.28 26.8 0 21.44 -9.29 26.8 -9.29 37.52 0 42.88 9.28 37.52"/><polyline class="cls-2" points="18.57 10.72 27.85 16.08 37.13 21.43 37.13 21.44"/><polyline class="cls-2" points="18.57 21.44 18.57 21.43 27.85 16.08 37.13 10.72"/><polygon class="cls-2" points="37.14 21.44 37.14 10.72 27.85 5.36 18.57 10.72 18.57 21.44 27.85 26.8 37.14 21.44"/><polyline class="cls-2" points="9.29 5.36 9.29 16.08 9.29 26.8"/><polyline class="cls-2" points="0.01 10.72 9.29 16.08 18.57 21.43 18.57 21.44"/><polyline class="cls-2" points="0.01 21.44 0.01 21.43 9.29 16.08 18.57 10.72"/><polygon class="cls-2" points="18.57 21.44 18.57 10.72 9.28 5.36 0 10.72 0 21.44 9.28 26.8 18.57 21.44"/><polyline class="cls-2" points="-18.56 10.72 -9.28 16.08 0 21.43 0 21.44"/><polyline class="cls-2" points="-18.56 21.44 -18.56 21.43 -9.28 16.08 0 10.72"/><polygon class="cls-2" points="0 21.44 0 10.72 -9.29 5.36 -18.57 10.72 -18.57 21.44 -9.29 26.8 0 21.44"/><polyline class="cls-2" points="18.57 -10.72 18.57 0 18.57 10.72"/><polyline class="cls-2" points="9.29 -5.36 18.57 0 27.85 5.35 27.85 5.36"/><polyline class="cls-2" points="9.29 5.36 9.29 5.35 18.57 0 27.85 -5.36"/><polygon class="cls-2" points="27.85 5.36 27.85 -5.36 18.57 -10.72 9.28 -5.36 9.28 5.36 18.57 10.72 27.85 5.36"/><polyline class="cls-2" points="0 -10.72 0 0 0 10.72"/><polyline class="cls-2" points="-9.28 -5.36 0 0 9.28 5.35 9.28 5.36"/><polyline class="cls-2" points="-9.28 5.36 -9.28 5.35 0 0 9.28 -5.36"/><polygon class="cls-2" points="9.28 5.36 9.28 -5.36 0 -10.72 -9.29 -5.36 -9.29 5.36 0 10.72 9.28 5.36"/></pattern><linearGradient id="未命名的渐变_1403" x1="115.88" y1="96.81" x2="95.13" y2="60.87" gradientUnits="userSpaceOnUse"><stop offset="0" stop-color="#283140"/><stop offset="0.1" stop-color="#12161a"/><stop offset="0.8" stop-color="#7a98cc"/><stop offset="1" stop-color="#38455a"/></linearGradient><linearGradient id="未命名的渐变_100" x1="136.62" y1="100.83" x2="102.02" y2="40.9" gradientUnits="userSpaceOnUse"><stop offset="0" stop-color="#0073e6"/><stop offset="0.1" stop-color="#1433cc"/><stop offset="0.8" stop-color="#59c8ff"/><stop offset="1" stop-color="#0073e6"/></linearGradient><linearGradient id="未命名的渐变_114" x1="83.71" y1="77.26" x2="132.78" y2="77.26" gradientUnits="userSpaceOnUse"><stop offset="0" stop-color="#425266"/><stop offset="1" stop-color="#596b8c"/></linearGradient><linearGradient id="未命名的渐变_1403-2" x1="114.37" y1="97.71" x2="93.54" y2="61.64" xlink:href="#未命名的渐变_1403"/><linearGradient id="未命名的渐变_114-2" x1="64.89" y1="92.67" x2="68.68" y2="92.67" xlink:href="#未命名的渐变_114"/><linearGradient id="未命名的渐变_1403-3" x1="104.28" y1="104.5" x2="82.49" y2="66.75" xlink:href="#未命名的渐变_1403"/><linearGradient id="未命名的渐变_62" x1="86.83" y1="111.81" x2="48.32" y2="89.57" gradientUnits="userSpaceOnUse"><stop offset="0" stop-color="#283140"/><stop offset="0.1" stop-color="#12161a"/><stop offset="0.67" stop-color="#7a98cc"/><stop offset="1" stop-color="#38455a"/></linearGradient><linearGradient id="未命名的渐变_77" x1="89.56" y1="108.01" x2="89.56" y2="69.24" gradientUnits="userSpaceOnUse"><stop offset="0" stop-color="#283140"/><stop offset="0.1" stop-color="#12161a"/><stop offset="0.9" stop-color="#7a98cc"/><stop offset="1" stop-color="#38455a"/></linearGradient><linearGradient id="未命名的渐变_1403-4" x1="93.13" y1="114.74" x2="68.08" y2="71.36" xlink:href="#未命名的渐变_1403"/><linearGradient id="未命名的渐变_1403-5" x1="79.54" y1="118.88" x2="57.74" y2="81.13" xlink:href="#未命名的渐变_1403"/><linearGradient id="未命名的渐变_62-2" x1="79.21" y1="113.83" x2="44.71" y2="93.91" xlink:href="#未命名的渐变_62"/><linearGradient id="未命名的渐变_1403-6" x1="66.87" y1="125.17" x2="46.04" y2="89.1" xlink:href="#未命名的渐变_1403"/><linearGradient id="未命名的渐变_1403-7" x1="44.52" y1="137.98" x2="23.77" y2="102.04" xlink:href="#未命名的渐变_1403"/><linearGradient id="未命名的渐变_100-2" x1="65.25" y1="142" x2="30.65" y2="82.07" xlink:href="#未命名的渐变_100"/><linearGradient id="未命名的渐变_114-3" x1="12.34" y1="118.44" x2="61.42" y2="118.44" xlink:href="#未命名的渐变_114"/><linearGradient id="未命名的渐变_13" x1="70.11" y1="63.2" x2="83.74" y2="63.2" gradientUnits="userSpaceOnUse"><stop offset="0" stop-color="#89abe6"/><stop offset="1" stop-color="#547099"/></linearGradient><linearGradient id="未命名的渐变_276" x1="70.11" y1="71.7" x2="83.74" y2="71.7" gradientUnits="userSpaceOnUse"><stop offset="0" stop-color="#38455a"/><stop offset="0.2" stop-color="#7a98cc"/><stop offset="0.9" stop-color="#12161a"/><stop offset="1" stop-color="#283140"/></linearGradient><linearGradient id="未命名的渐变_13-2" x1="70.11" y1="65.18" x2="83.74" y2="65.18" xlink:href="#未命名的渐变_13"/><linearGradient id="未命名的渐变_78" x1="84.57" y1="10.54" x2="89.6" y2="10.54" gradientUnits="userSpaceOnUse"><stop offset="0" stop-color="#8ce2ff"/><stop offset="1" stop-color="#44b6ff"/></linearGradient><linearGradient id="未命名的渐变_17280" x1="110.16" y1="50.86" x2="117.65" y2="43.37" gradientUnits="userSpaceOnUse"><stop offset="0" stop-color="#0073e6"/><stop offset="1" stop-color="#143ccc"/></linearGradient><linearGradient id="未命名的渐变_78-2" x1="112.49" y1="26.66" x2="117.52" y2="26.66" xlink:href="#未命名的渐变_78"/><linearGradient id="未命名的渐变_17280-2" x1="110.87" y1="40.37" x2="121.18" y2="30.07" xlink:href="#未命名的渐变_17280"/><linearGradient id="未命名的渐变_17283" x1="118.84" y1="46.7" x2="80.27" y2="8.13" gradientUnits="userSpaceOnUse"><stop offset="0" stop-color="#2f77eb"/><stop offset="1" stop-color="#59c8ff"/></linearGradient><linearGradient id="未命名的渐变_17280-3" x1="110.23" y1="24.66" x2="117.72" y2="17.17" xlink:href="#未命名的渐变_17280"/><linearGradient id="未命名的渐变_78-3" x1="86.69" y1="8.31" x2="115.46" y2="8.31" xlink:href="#未命名的渐变_78"/><linearGradient id="未命名的渐变_13-3" x1="25.69" y1="28.53" x2="86.67" y2="28.53" xlink:href="#未命名的渐变_13"/><linearGradient id="未命名的渐变_255" x1="57.14" y1="90.96" x2="108.85" y2="39.25" gradientUnits="userSpaceOnUse"><stop offset="0" stop-color="#283140"/><stop offset="0.34" stop-color="#232b37"/><stop offset="0.9" stop-color="#15191f"/><stop offset="1" stop-color="#12161a"/></linearGradient><linearGradient id="未命名的渐变_13-4" x1="53.61" y1="44.65" x2="114.59" y2="44.65" xlink:href="#未命名的渐变_13"/><linearGradient id="未命名的渐变_255-2" x1="57.86" y1="80.48" x2="112.39" y2="25.95" xlink:href="#未命名的渐变_255"/><linearGradient id="未命名的渐变_114-4" x1="59.96" y1="80.94" x2="21.4" y2="42.38" xlink:href="#未命名的渐变_114"/><linearGradient id="未命名的渐变_255-3" x1="57.21" y1="64.76" x2="108.92" y2="13.05" xlink:href="#未命名的渐变_255"/><linearGradient id="未命名的渐变_13-5" x1="27.82" y1="26.3" x2="112.52" y2="26.3" xlink:href="#未命名的渐变_13"/><linearGradient id="未命名的渐变_78-4" x1="22.75" y1="46.54" x2="27.78" y2="46.54" xlink:href="#未命名的渐变_78"/><linearGradient id="未命名的渐变_17280-4" x1="48.33" y1="86.86" x2="55.82" y2="79.37" xlink:href="#未命名的渐变_17280"/><linearGradient id="未命名的渐变_78-5" x1="50.66" y1="62.66" x2="55.7" y2="62.66" xlink:href="#未命名的渐变_78"/><linearGradient id="未命名的渐变_17280-5" x1="49.05" y1="76.37" x2="59.35" y2="66.06" xlink:href="#未命名的渐变_17280"/><linearGradient id="未命名的渐变_17283-2" x1="57.01" y1="82.69" x2="18.44" y2="44.13" xlink:href="#未命名的渐变_17283"/><linearGradient id="未命名的渐变_17280-6" x1="48.41" y1="60.65" x2="55.89" y2="53.17" xlink:href="#未命名的渐变_17280"/><linearGradient id="未命名的渐变_78-6" x1="24.86" y1="44.31" x2="53.64" y2="44.31" xlink:href="#未命名的渐变_78"/><linearGradient id="未命名的渐变_100-3" x1="49.02" y1="78.66" x2="30.21" y2="46.07" xlink:href="#未命名的渐变_100"/><linearGradient id="未命名的渐变_17283-3" x1="45.05" y1="76.71" x2="22.91" y2="54.57" gradientTransform="translate(37.58 -8.18) rotate(30.16)" xlink:href="#未命名的渐变_17283"/><linearGradient id="未命名的渐变_13-6" x1="65.48" y1="14.72" x2="77.04" y2="14.72" xlink:href="#未命名的渐变_13"/><linearGradient id="未命名的渐变_240" x1="66.67" y1="15.72" x2="75.86" y2="15.72" gradientUnits="userSpaceOnUse"><stop offset="0" stop-color="#38455a"/><stop offset="0.15" stop-color="#89abe6"/><stop offset="0.25" stop-color="#89abe6"/><stop offset="0.9" stop-color="#12161a"/><stop offset="1" stop-color="#283140"/></linearGradient><radialGradient id="未命名的渐变_92" cx="70.17" cy="12.08" r="4.37" gradientUnits="userSpaceOnUse"><stop offset="0" stop-color="#89abe6"/><stop offset="1" stop-color="#547099"/></radialGradient><linearGradient id="未命名的渐变_240-2" x1="60.82" y1="26.51" x2="81.66" y2="26.51" xlink:href="#未命名的渐变_240"/><linearGradient id="未命名的渐变_88" x1="62.28" y1="16.66" x2="81.09" y2="23.5" gradientUnits="userSpaceOnUse"><stop offset="0" stop-color="#38455a"/><stop offset="0.23" stop-color="#89abe6"/><stop offset="0.35" stop-color="#89abe6"/><stop offset="0.9" stop-color="#12161a"/><stop offset="1" stop-color="#283140"/></linearGradient></defs><title>气动阀</title><g id="图层_2" data-name="图层 2"><g id="图层_1-2" data-name="图层 1"><g id="气动阀"><g class="cls-3"><rect class="cls-4" width="150" height="150"/><rect id="网格" class="cls-5" width="150" height="150"/></g><g class="cls-6"><path class="cls-7" d="M99.62,85.09a4.9,4.9,0,0,1-1.72-1.82c-1-1.67-1-3.44,0-4L93,82.12c-1,.54-1,2.32,0,4a4.9,4.9,0,0,0,1.72,1.82,1.75,1.75,0,0,0,1.74.18l4.87-2.84A1.72,1.72,0,0,1,99.62,85.09Z"/><path class="cls-7" d="M126.52,100.62a5,5,0,0,1-1.73-1.83c-1-1.66-1-3.44,0-4l-4.88,2.83c-1,.54-1,2.32,0,4a5,5,0,0,0,1.73,1.82,1.7,1.7,0,0,0,1.73.17l4.87-2.83A1.71,1.71,0,0,1,126.52,100.62Z"/><path class="cls-7" d="M99.71,54.19A4.85,4.85,0,0,1,98,52.36c-1-1.65-1-3.41,0-4l-4.88,2.84c-.94.55-.94,2.3,0,3.95A4.93,4.93,0,0,0,94.83,57a1.74,1.74,0,0,0,1.74.17l4.87-2.84A1.72,1.72,0,0,1,99.71,54.19Z"/><path class="cls-8" d="M113.07,91.34c-8.13-4.69-14.7-16.07-14.67-25.41,0-4.63,1.65-7.9,4.3-9.43l-4.88,2.83c-2.64,1.54-4.28,4.8-4.3,9.43,0,9.34,6.55,20.72,14.68,25.42,4.09,2.36,7.79,2.58,10.47,1l4.88-2.83C120.87,93.92,117.16,93.7,113.07,91.34Z"/><path class="cls-7" d="M126.6,69.72a5,5,0,0,1-1.73-1.84c-1-1.65-1-3.4,0-3.95L120,66.76c-1,.55-.94,2.31,0,4a5,5,0,0,0,1.73,1.83,1.68,1.68,0,0,0,1.72.16l4.88-2.83A1.72,1.72,0,0,1,126.6,69.72Z"/><path class="cls-9" d="M113.2,46.23c-6.82-3.94-13-4.3-17.46-1.71l-4.88,2.83c4.46-2.59,10.64-2.22,17.46,1.72,13.56,7.83,24.51,26.79,24.46,42.36,0,7.74-2.75,13.18-7.15,15.74l4.87-2.83c4.41-2.56,7.14-8,7.16-15.75C137.7,73,126.76,54.06,113.2,46.23Z"/><path class="cls-10" d="M108.32,49.07c-13.56-7.83-24.57-1.54-24.61,14s10.89,34.53,24.45,42.36,24.58,1.55,24.62-14S121.88,56.9,108.32,49.07Zm-15.2,2.15a1.72,1.72,0,0,1,1.73.16,5,5,0,0,1,1.73,1.83c1,1.66,1,3.43,0,4A1.74,1.74,0,0,1,94.83,57a4.93,4.93,0,0,1-1.72-1.83C92.14,53.53,92.15,51.75,93.12,51.22ZM96.48,88.1a1.75,1.75,0,0,1-1.74-.18A4.9,4.9,0,0,1,93,86.1c-1-1.66-1-3.44,0-4a1.72,1.72,0,0,1,1.73.16,5.11,5.11,0,0,1,1.73,1.83C97.46,85.78,97.45,87.55,96.48,88.1Zm11.72,6.08c-8.13-4.7-14.7-16.08-14.68-25.42s6.64-13.11,14.77-8.41S123,76.45,123,85.76,116.32,98.87,108.2,94.18Zm15.17,9.44a1.7,1.7,0,0,1-1.73-.17,5,5,0,0,1-1.73-1.82c-1-1.67-1-3.45,0-4a1.77,1.77,0,0,1,1.74.17,4.93,4.93,0,0,1,1.72,1.83C124.35,101.3,124.34,103.08,123.37,103.62Zm.08-30.91a1.68,1.68,0,0,1-1.72-.16A5,5,0,0,1,120,70.72c-1-1.67-1-3.45,0-4a1.72,1.72,0,0,1,1.73.17,5,5,0,0,1,1.73,1.83C124.43,70.39,124.43,72.17,123.45,72.71Z"/></g><g class="cls-6"><path class="cls-11" d="M108.36,60.18c-4.1-2.37-7.82-2.59-10.5-1L78.77,70.24c2.68-1.56,6.39-1.34,10.5,1C97.41,76,104,87.38,104,96.74c0,4.65-1.65,7.92-4.3,9.46l19.09-11.09c2.65-1.54,4.29-4.82,4.31-9.47C123.08,76.28,116.51,64.88,108.36,60.18Z"/></g><path class="cls-7" d="M104,96.74c0,4.65-1.66,7.93-4.31,9.47s-6.4,1.33-10.49-1C81,100.46,74.44,89.06,74.47,79.71c0-4.65,1.65-7.93,4.3-9.47s6.4-1.34,10.5,1a24.4,24.4,0,0,1,5.31,4.2,35,35,0,0,1,8.36,14.38A25.12,25.12,0,0,1,104,96.74Z"/><path class="cls-12" d="M64.89,90.6l3.79,4.14A30.7,30.7,0,0,0,64.89,90.6Z"/><g class="cls-6"><path class="cls-13" d="M88.94,70.15c-4.2-2.34-8-2.52-10.73-.93l-2.42,1.41c2.75-1.59,6.53-1.41,10.73.93,8.53,4.75,15.55,16.63,15.67,26.52.06,5-1.67,8.58-4.51,10.23l2.43-1.41c2.84-1.65,4.57-5.2,4.51-10.23C104.49,86.78,97.48,74.9,88.94,70.15Z"/><path class="cls-14" d="M67.41,80.56c-7.2-4-13.3-2.34-15.8,3.48l-1.54,3.59c2.24-5.22,7.71-6.71,14.16-3.12C72.76,89.27,79.78,101.14,79.9,111c.09,7.64-3.94,11.86-9.71,11.21l3.87.44c6.45.72,11-4,10.85-12.51C84.77,99.13,76.94,85.87,67.41,80.56Z"/><path class="cls-15" d="M86.52,71.56a14.89,14.89,0,0,0-5.63-1.92l-4-.4a16.46,16.46,0,0,1,6.29,2.13C92.74,76.68,100.58,90,100.71,101a16.77,16.77,0,0,1-1.25,7l1.61-3.65a15.11,15.11,0,0,0,1.12-6.28C102.07,88.19,95.05,76.31,86.52,71.56Z"/><path class="cls-16" d="M83.21,71.37c-3.65-2-7-2.61-9.78-1.92A46.35,46.35,0,0,0,63,74.32c-3.34,2-5.31,3.35-6,3.81-1,.75-1.91,1.47-1.92,1.48-.47.4-1.07,1-1.52,1.4,3.08-3.23,8.12-3.64,13.85-.45,9.53,5.31,17.36,18.57,17.5,29.61.08,6.83-2.79,11.21-7.25,12.31a23.7,23.7,0,0,0,4.23-1.57c.71-.33,2.89-1.34,6.25-3.29s5.31-3.34,6-3.81c1-.74,1.9-1.46,1.91-1.47.48-.39,1.08-1,1.52-1.4,2-2.14,3.23-5.53,3.17-10C100.58,90,92.74,76.68,83.21,71.37Z"/><ellipse class="cls-7" cx="61.25" cy="104.28" rx="11.37" ry="19.62" transform="translate(-44.1 44.9) rotate(-30.16)"/><path class="cls-17" d="M64.23,84.51c-4.2-2.34-8-2.52-10.73-.93L51,85c2.75-1.6,6.53-1.41,10.73.93,8.53,4.75,15.55,16.63,15.67,26.52.06,5-1.67,8.58-4.51,10.23l2.49-1.45c2.84-1.65,4.57-5.2,4.51-10.23C79.78,101.14,72.76,89.27,64.23,84.51Z"/><path class="cls-18" d="M61.74,86c-8.54-4.76-15.36-.6-15.24,9.3S53.64,117,62.18,121.78s15.35.59,15.23-9.3S70.27,90.71,61.74,86Zm-.29,34.45c-7.68-4.28-14-15-14.11-23.89s6-12.66,13.72-8.38,14,15,14.11,23.89S69.14,124.69,61.45,120.41Z"/></g><g class="cls-6"><path class="cls-7" d="M60.77,121.54C52.61,116.83,46,105.43,46.06,96.07c0-4.65,1.66-7.93,4.3-9.47L31.27,97.7c-2.65,1.54-4.29,4.81-4.3,9.46,0,9.36,6.55,20.77,14.7,25.47,4.1,2.37,7.81,2.59,10.49,1l19.1-11.09C68.57,124.12,64.86,123.9,60.77,121.54Z"/><path class="cls-19" d="M60.86,87.63c-4.1-2.36-7.81-2.58-10.5-1L31.27,97.7c2.68-1.56,6.4-1.34,10.5,1,8.15,4.7,14.72,16.1,14.7,25.46,0,4.66-1.66,7.93-4.31,9.47l19.1-11.09c2.64-1.54,4.29-4.82,4.3-9.47C75.59,103.74,69,92.34,60.86,87.63Z"/></g><g class="cls-6"><path class="cls-7" d="M28.25,126.26a5,5,0,0,1-1.72-1.82c-1-1.66-1-3.44,0-4l-4.87,2.83c-1,.54-1,2.32,0,4a4.85,4.85,0,0,0,1.72,1.83,1.75,1.75,0,0,0,1.73.17L30,126.44A1.75,1.75,0,0,1,28.25,126.26Z"/><path class="cls-7" d="M55.15,141.79A5.08,5.08,0,0,1,53.42,140c-1-1.67-1-3.45,0-4l-4.87,2.83c-1,.55-1,2.32,0,4a5,5,0,0,0,1.73,1.83,1.7,1.7,0,0,0,1.72.16L56.88,142A1.72,1.72,0,0,1,55.15,141.79Z"/><path class="cls-7" d="M28.34,95.36a4.93,4.93,0,0,1-1.72-1.83c-1-1.65-1-3.41,0-4l-4.87,2.83c-.95.55-.94,2.31,0,4a4.91,4.91,0,0,0,1.73,1.84,1.72,1.72,0,0,0,1.73.16l4.88-2.83A1.74,1.74,0,0,1,28.34,95.36Z"/><path class="cls-20" d="M41.71,132.52C33.58,127.82,27,116.44,27,107.1c0-4.63,1.65-7.89,4.3-9.43l-4.88,2.83c-2.65,1.54-4.29,4.81-4.3,9.44,0,9.34,6.54,20.72,14.67,25.41,4.09,2.36,7.8,2.58,10.48,1l4.87-2.83C49.5,135.1,45.8,134.88,41.71,132.52Z"/><path class="cls-7" d="M55.24,110.89a5,5,0,0,1-1.73-1.83c-1-1.65-1-3.41,0-4l-4.87,2.83c-.95.55-.94,2.31,0,4a5.07,5.07,0,0,0,1.73,1.84,1.69,1.69,0,0,0,1.73.15L57,111.05A1.72,1.72,0,0,1,55.24,110.89Z"/><path class="cls-21" d="M41.84,87.41c-6.83-3.94-13-4.31-17.46-1.72L19.5,88.53C24,85.94,30.14,86.3,37,90.24,50.52,98.07,61.46,117,61.42,132.6c0,7.74-2.75,13.19-7.16,15.75l4.88-2.84c4.4-2.56,7.13-8,7.15-15.74C66.34,114.2,55.4,95.24,41.84,87.41Z"/><path class="cls-22" d="M37,90.24c-13.56-7.83-24.57-1.54-24.62,14s10.9,34.53,24.46,42.36,24.57,1.55,24.62-14S50.52,98.07,37,90.24Zm-15.2,2.15a1.7,1.7,0,0,1,1.72.16,4.91,4.91,0,0,1,1.73,1.84c1,1.65,1,3.43,0,4a1.72,1.72,0,0,1-1.73-.16,4.91,4.91,0,0,1-1.73-1.84C20.78,94.7,20.78,92.92,21.76,92.39Zm3.35,36.88a1.75,1.75,0,0,1-1.73-.17,4.85,4.85,0,0,1-1.72-1.83c-1-1.66-1-3.44,0-4a1.72,1.72,0,0,1,1.73.17,5,5,0,0,1,1.73,1.83C26.09,127,26.09,128.73,25.11,129.27Zm11.72,6.08c-8.13-4.69-14.7-16.07-14.67-25.41s6.64-13.11,14.77-8.42,14.7,16.1,14.67,25.41S45,140,36.83,135.35ZM52,144.79a1.7,1.7,0,0,1-1.72-.16,5,5,0,0,1-1.73-1.83c-1-1.67-1-3.44,0-4a1.75,1.75,0,0,1,1.73.18A4.82,4.82,0,0,1,52,140.81C53,142.48,53,144.25,52,144.79Zm.09-30.91a1.69,1.69,0,0,1-1.73-.15,5.07,5.07,0,0,1-1.73-1.84c-1-1.67-1-3.44,0-4a1.72,1.72,0,0,1,1.73.16,4.85,4.85,0,0,1,1.72,1.83C53.07,111.56,53.07,113.34,52.09,113.88Z"/></g><g class="cls-6"><path class="cls-23" d="M83.74,63.2a3.41,3.41,0,0,1-2,2.79,10.55,10.55,0,0,1-9.63,0,3.44,3.44,0,0,1-2-2.79,3.35,3.35,0,0,1,2-2.78,10.63,10.63,0,0,1,9.64,0A3.42,3.42,0,0,1,83.74,63.2Z"/><path class="cls-24" d="M83.74,63.2V76.26a3.41,3.41,0,0,1-2,2.78,10.55,10.55,0,0,1-9.63,0,3.44,3.44,0,0,1-2-2.78V63.2a3.44,3.44,0,0,0,2,2.79,10.55,10.55,0,0,0,9.63,0A3.41,3.41,0,0,0,83.74,63.2Z"/><path class="cls-25" d="M83.74,63.2a3.41,3.41,0,0,1-2,2.79,10.55,10.55,0,0,1-9.63,0,3.44,3.44,0,0,1-2-2.79Z"/></g><g class="cls-6"><polygon class="cls-26" points="87.52 9.08 84.57 10.79 86.66 12 89.6 10.29 87.52 9.08"/><polygon class="cls-27" points="112.44 42.83 112.42 53.12 115.36 51.4 115.39 41.12 112.44 42.83"/><polygon class="cls-28" points="115.43 25.2 112.49 26.91 114.58 28.12 117.52 26.41 115.43 25.2"/><polygon class="cls-29" points="114.58 28.12 114.53 44.03 117.48 42.32 117.52 26.41 114.58 28.12"/><polygon class="cls-30" points="112.49 26.91 112.52 16.62 86.69 1.71 86.66 12 84.57 10.79 84.53 26.71 86.61 27.91 86.59 38.2 112.42 53.12 112.44 42.83 114.53 44.03 114.58 28.12 112.49 26.91"/><polygon class="cls-31" points="112.52 16.62 112.49 26.91 115.43 25.2 115.46 14.91 112.52 16.62"/><polygon class="cls-32" points="89.63 0 86.69 1.71 112.52 16.62 115.46 14.91 89.63 0"/></g><g class="cls-6"><polygon class="cls-33" points="84.58 10.82 25.7 45.04 27.79 46.25 86.67 12.03 84.58 10.82"/><polygon class="cls-34" points="53.57 77.07 53.54 87.36 112.42 53.14 112.45 42.85 53.57 77.07"/><polygon class="cls-35" points="112.49 26.94 53.61 61.16 55.7 62.37 114.58 28.15 112.49 26.94"/><polygon class="cls-36" points="55.7 62.37 55.66 78.28 114.54 44.06 114.58 28.15 55.7 62.37"/><polygon class="cls-37" points="53.61 61.16 53.64 50.87 27.82 35.96 27.79 46.25 25.7 45.04 25.65 60.95 27.74 62.16 27.71 72.45 53.54 87.36 53.57 77.07 55.66 78.28 55.7 62.37 53.61 61.16"/><polygon class="cls-38" points="53.64 50.87 53.61 61.16 112.49 26.94 112.52 16.65 53.64 50.87"/><polygon class="cls-39" points="86.7 1.74 27.82 35.96 53.64 50.87 112.52 16.65 86.7 1.74"/></g><g class="cls-6"><polygon class="cls-40" points="25.69 45.08 22.75 46.79 24.84 48 27.78 46.29 25.69 45.08"/><polygon class="cls-41" points="50.62 78.82 50.59 89.11 53.53 87.4 53.56 77.11 50.62 78.82"/><polygon class="cls-42" points="53.61 61.2 50.66 62.91 52.75 64.11 55.7 62.41 53.61 61.2"/><polygon class="cls-43" points="52.75 64.11 52.71 80.03 55.65 78.32 55.7 62.41 52.75 64.11"/><polygon class="cls-44" points="50.66 62.91 50.69 52.62 24.86 37.71 24.84 48 22.75 46.79 22.7 62.71 24.79 63.91 24.76 74.2 50.59 89.11 50.62 78.82 52.71 80.03 52.75 64.11 50.66 62.91"/><polygon class="cls-45" points="50.69 52.62 50.66 62.91 53.61 61.2 53.64 50.91 50.69 52.62"/><polygon class="cls-46" points="27.81 36 24.86 37.71 50.69 52.62 53.64 50.91 27.81 36"/></g><g class="cls-6"><path class="cls-47" d="M38.22,47.59c-5.17-2.88-9.61-2-11.77,1.78L23.8,54c1.83-3.2,5.61-4,10-1.52C40.09,56,45.24,64.7,45.33,72c.06,5.21-2.5,8.26-6.28,8.27h5.33c4.44,0,7.46-3.6,7.38-9.73C51.66,62,45.6,51.7,38.22,47.59Z"/><ellipse class="cls-48" cx="33.98" cy="65.64" rx="9.27" ry="16.01" transform="translate(-28.38 25.96) rotate(-30.16)"/></g><g class="cls-6"><path class="cls-49" d="M75.41,12.39a9,9,0,0,0-8.17-.08C65,13.59,64.9,15.71,67.12,17a9,9,0,0,0,8.17.08C77.58,15.84,77.63,13.72,75.41,12.39Zm-.94,4.24a7.16,7.16,0,0,1-6.5-.07c-1.77-1-1.73-2.74.09-3.76a7.16,7.16,0,0,1,6.5.07C76.33,13.92,76.29,15.61,74.47,16.63Z"/><path class="cls-50" d="M74.47,16a7.16,7.16,0,0,1-6.5-.07,2.27,2.27,0,0,1-1.3-1.86v.64A2.27,2.27,0,0,0,68,16.56a7.16,7.16,0,0,0,6.5.07,2.32,2.32,0,0,0,1.39-1.9v-.65A2.32,2.32,0,0,1,74.47,16Z"/><path class="cls-51" d="M75.46,13a5.55,5.55,0,0,0-3.21-2,5.38,5.38,0,0,0-3.58.59l.21-.1-.21.1A5.62,5.62,0,0,0,67.08,13c-.76,1-.46,2.14.89,2.95a7.16,7.16,0,0,0,6.5.07C75.89,15.19,76.23,14,75.46,13Z"/><path class="cls-52" d="M78.5,25.63c-4.12,2.31-10.71,2.25-14.72-.15-2-1.18-3-2.7-3-4.22V25.7c0,1.51,1,3,3,4.21,4,2.4,10.6,2.47,14.72.15,2.1-1.17,3.15-2.74,3.16-4.31V21.32C81.66,22.89,80.6,24.45,78.5,25.63Z"/><path class="cls-53" d="M80.76,18.85l-.42-.55L80.13,18l-.42-.55-.42-.55-.22-.27-.42-.55-.42-.55L78,15.28l-.42-.55-.42-.54L77,13.91c-.13-.16-.3-.38-.42-.55,1,1.25.53,2.76-1.26,3.76A9,9,0,0,1,67.12,17c-1.7-1-2.07-2.49-1.13-3.71-.13.17-.3.38-.42.55s-.43.54-.64.82l-.42.54-.22.28-.42.54-.43.55-.21.27-.42.55-.43.55-.21.27c-.13.16-.3.38-.42.55-1.7,2.18-1,4.85,2,6.68,4,2.4,10.6,2.46,14.72.15C81.72,23.82,82.49,21.1,80.76,18.85Z"/></g></g></g></g></svg>