<svg xmlns="http://www.w3.org/2000/svg" xmlns:xlink="http://www.w3.org/1999/xlink" viewBox="0 0 150 150"><defs><style>.cls-1,.cls-2{fill:none;}.cls-2{stroke:#fff;stroke-miterlimit:10;stroke-width:0.1px;}.cls-3{isolation:isolate;}.cls-4{opacity:0;}.cls-5{fill:#000714;}.cls-6{opacity:0.1;fill:url(#新建图案);}.cls-7{fill:#13181d;}.cls-8{fill:url(#未命名的渐变_115);}.cls-9{fill:url(#未命名的渐变_100);}.cls-10{fill:url(#未命名的渐变_168);}.cls-11{fill:url(#未命名的渐变_115-2);}.cls-12{fill:url(#未命名的渐变_113);}.cls-13{fill:url(#未命名的渐变_100-2);}.cls-14{fill:url(#未命名的渐变_168-2);}.cls-15{fill:url(#未命名的渐变_107);}.cls-16{fill:url(#未命名的渐变_53);}.cls-17{fill:url(#未命名的渐变_35);}.cls-18{fill:url(#未命名的渐变_107-2);}.cls-19{fill:url(#未命名的渐变_103);}.cls-20{fill:url(#未命名的渐变_7944);}.cls-21{fill:url(#未命名的渐变_37);}.cls-22{fill:url(#未命名的渐变_35-2);}.cls-23{fill:url(#未命名的渐变_107-3);}.cls-24{fill:url(#未命名的渐变_179);}.cls-25{fill:url(#未命名的渐变_132);}.cls-26{fill:url(#未命名的渐变_123);}.cls-27{fill:url(#未命名的渐变_35-3);}.cls-28{fill:url(#未命名的渐变_107-4);}.cls-29{fill:url(#未命名的渐变_179-2);}.cls-30{fill:url(#未命名的渐变_132-2);}.cls-31{fill:url(#未命名的渐变_123-2);}.cls-32{fill:url(#未命名的渐变_126);}.cls-33{fill:url(#未命名的渐变_13);}.cls-34{fill:url(#未命名的渐变_42);}.cls-35{fill:url(#未命名的渐变_66);}.cls-36{fill:#08121b;}.cls-37{opacity:0.15;}.cls-38{fill:#15b8d9;}.cls-39{mix-blend-mode:overlay;}.cls-40{fill:url(#未命名的渐变_18);}.cls-41{fill:#19d9ff;}.cls-42{opacity:0.2;}</style><pattern id="新建图案" data-name="新建图案" width="18.57" height="32.16" patternTransform="translate(2594.56 790.05)" patternUnits="userSpaceOnUse" viewBox="0 0 18.57 32.16"><rect class="cls-1" width="18.57" height="32.16"/><polyline class="cls-2" points="18.57 21.44 18.57 32.16 18.57 42.88"/><polyline class="cls-2" points="9.29 26.8 18.57 32.16 27.85 37.51 27.85 37.52"/><polyline class="cls-2" points="9.29 37.52 9.29 37.51 18.57 32.16 27.85 26.8"/><polygon class="cls-2" points="27.85 37.52 27.85 26.8 18.57 21.44 9.28 26.8 9.28 37.52 18.57 42.88 27.85 37.52"/><polyline class="cls-2" points="0 21.44 0 32.16 0 42.88"/><polyline class="cls-2" points="-9.28 26.8 0 32.16 9.28 37.51 9.28 37.52"/><polyline class="cls-2" points="-9.28 37.52 -9.28 37.51 0 32.16 9.28 26.8"/><polygon class="cls-2" points="9.28 37.52 9.28 26.8 0 21.44 -9.29 26.8 -9.29 37.52 0 42.88 9.28 37.52"/><polyline class="cls-2" points="18.57 10.72 27.85 16.08 37.13 21.43 37.13 21.44"/><polyline class="cls-2" points="18.57 21.44 18.57 21.43 27.85 16.08 37.13 10.72"/><polygon class="cls-2" points="37.14 21.44 37.14 10.72 27.85 5.36 18.57 10.72 18.57 21.44 27.85 26.8 37.14 21.44"/><polyline class="cls-2" points="9.29 5.36 9.29 16.08 9.29 26.8"/><polyline class="cls-2" points="0.01 10.72 9.29 16.08 18.57 21.43 18.57 21.44"/><polyline class="cls-2" points="0.01 21.44 0.01 21.43 9.29 16.08 18.57 10.72"/><polygon class="cls-2" points="18.57 21.44 18.57 10.72 9.28 5.36 0 10.72 0 21.44 9.28 26.8 18.57 21.44"/><polyline class="cls-2" points="-18.56 10.72 -9.28 16.08 0 21.43 0 21.44"/><polyline class="cls-2" points="-18.56 21.44 -18.56 21.43 -9.28 16.08 0 10.72"/><polygon class="cls-2" points="0 21.44 0 10.72 -9.29 5.36 -18.57 10.72 -18.57 21.44 -9.29 26.8 0 21.44"/><polyline class="cls-2" points="18.57 -10.72 18.57 0 18.57 10.72"/><polyline class="cls-2" points="9.29 -5.36 18.57 0 27.85 5.35 27.85 5.36"/><polyline class="cls-2" points="9.29 5.36 9.29 5.35 18.57 0 27.85 -5.36"/><polygon class="cls-2" points="27.85 5.36 27.85 -5.36 18.57 -10.72 9.28 -5.36 9.28 5.36 18.57 10.72 27.85 5.36"/><polyline class="cls-2" points="0 -10.72 0 0 0 10.72"/><polyline class="cls-2" points="-9.28 -5.36 0 0 9.28 5.35 9.28 5.36"/><polyline class="cls-2" points="-9.28 5.36 -9.28 5.35 0 0 9.28 -5.36"/><polygon class="cls-2" points="9.28 5.36 9.28 -5.36 0 -10.72 -9.29 -5.36 -9.29 5.36 0 10.72 9.28 5.36"/></pattern><linearGradient id="未命名的渐变_115" x1="126.05" y1="71.84" x2="103.22" y2="32.3" gradientUnits="userSpaceOnUse"><stop offset="0" stop-color="#283140"/><stop offset="0.1" stop-color="#12161a"/><stop offset="0.8" stop-color="#7a98cc"/><stop offset="1" stop-color="#38455a"/></linearGradient><linearGradient id="未命名的渐变_100" x1="148.86" y1="76.25" x2="110.79" y2="10.33" gradientUnits="userSpaceOnUse"><stop offset="0" stop-color="#0073e6"/><stop offset="0.1" stop-color="#1433cc"/><stop offset="0.8" stop-color="#59c8ff"/><stop offset="1" stop-color="#0073e6"/></linearGradient><linearGradient id="未命名的渐变_168" x1="90.65" y1="50.33" x2="144.64" y2="50.33" gradientUnits="userSpaceOnUse"><stop offset="0" stop-color="#425266"/><stop offset="1" stop-color="#596b8c"/></linearGradient><linearGradient id="未命名的渐变_115-2" x1="91.14" y1="92.16" x2="68.06" y2="52.18" xlink:href="#未命名的渐变_115"/><linearGradient id="未命名的渐变_113" x1="35.39" y1="124.29" x2="12.57" y2="84.75" gradientUnits="userSpaceOnUse"><stop offset="0" stop-color="#38455a"/><stop offset="0.2" stop-color="#7a98cc"/><stop offset="0.9" stop-color="#12161a"/><stop offset="1" stop-color="#283140"/></linearGradient><linearGradient id="未命名的渐变_100-2" x1="58.2" y1="128.7" x2="20.14" y2="62.78" xlink:href="#未命名的渐变_100"/><linearGradient id="未命名的渐变_168-2" x1="0" y1="102.78" x2="53.98" y2="102.78" xlink:href="#未命名的渐变_168"/><linearGradient id="未命名的渐变_107" x1="383.84" y1="72.81" x2="352.44" y2="41.41" gradientTransform="matrix(-1, 0, 0, 1, 454.88, 0)" gradientUnits="userSpaceOnUse"><stop offset="0" stop-color="#283140"/><stop offset="0.34" stop-color="#232b37"/><stop offset="0.9" stop-color="#15191f"/><stop offset="1" stop-color="#12161a"/></linearGradient><linearGradient id="未命名的渐变_53" x1="380.53" y1="69.61" x2="355.75" y2="44.83" gradientTransform="matrix(-1, 0, 0, 1, 454.88, 0)" gradientUnits="userSpaceOnUse"><stop offset="0" stop-color="#414d66"/><stop offset="1" stop-color="#1d242d"/></linearGradient><linearGradient id="未命名的渐变_35" x1="83.09" y1="63.93" x2="84.12" y2="62.14" gradientUnits="userSpaceOnUse"><stop offset="0" stop-color="#283140"/><stop offset="0.1" stop-color="#12161a"/><stop offset="0.8" stop-color="#89abe6"/><stop offset="1" stop-color="#283140"/></linearGradient><linearGradient id="未命名的渐变_107-2" x1="83.24" y1="63.96" x2="84.67" y2="62.53" gradientTransform="matrix(1, 0, 0, 1, 0, 0)" xlink:href="#未命名的渐变_107"/><linearGradient id="未命名的渐变_103" x1="83.55" y1="64.12" x2="84.49" y2="62.48" gradientUnits="userSpaceOnUse"><stop offset="0" stop-color="#f50"/><stop offset="0.1" stop-color="#ff4000"/><stop offset="0.8" stop-color="#ffad5c"/><stop offset="1" stop-color="#ff4000"/></linearGradient><linearGradient id="未命名的渐变_7944" x1="83.82" y1="63.58" x2="85.14" y2="63.58" gradientUnits="userSpaceOnUse"><stop offset="0" stop-color="#ff4000"/><stop offset="1" stop-color="#ff4000"/></linearGradient><linearGradient id="未命名的渐变_37" x1="84.81" y1="64.15" x2="84.15" y2="63" gradientUnits="userSpaceOnUse"><stop offset="0" stop-color="#ff4000"/><stop offset="0.2" stop-color="#ff541a"/><stop offset="0.55" stop-color="#ff7242"/><stop offset="0.83" stop-color="#ff845a"/><stop offset="1" stop-color="#ff8b63"/></linearGradient><linearGradient id="未命名的渐变_35-2" x1="86.81" y1="61.81" x2="87.84" y2="60.02" xlink:href="#未命名的渐变_35"/><linearGradient id="未命名的渐变_107-3" x1="86.96" y1="61.83" x2="88.39" y2="60.4" gradientTransform="matrix(1, 0, 0, 1, 0, 0)" xlink:href="#未命名的渐变_107"/><linearGradient id="未命名的渐变_179" x1="87.27" y1="61.99" x2="88.22" y2="60.35" gradientUnits="userSpaceOnUse"><stop offset="0" stop-color="#00bf84"/><stop offset="0.1" stop-color="#00a874"/><stop offset="0.8" stop-color="#3fb"/><stop offset="1" stop-color="#00a874"/></linearGradient><linearGradient id="未命名的渐变_132" x1="87.54" y1="61.45" x2="88.87" y2="61.45" gradientUnits="userSpaceOnUse"><stop offset="0" stop-color="#00a874"/><stop offset="1" stop-color="#00a874"/></linearGradient><linearGradient id="未命名的渐变_123" x1="88.53" y1="62.02" x2="87.87" y2="60.88" gradientUnits="userSpaceOnUse"><stop offset="0" stop-color="#00a874"/><stop offset="0.12" stop-color="#08b680"/><stop offset="0.51" stop-color="#1fdea0"/><stop offset="0.81" stop-color="#2ef6b4"/><stop offset="1" stop-color="#3fb"/></linearGradient><linearGradient id="未命名的渐变_35-3" x1="90.76" y1="59.52" x2="91.8" y2="57.73" xlink:href="#未命名的渐变_35"/><linearGradient id="未命名的渐变_107-4" x1="90.91" y1="59.54" x2="92.34" y2="58.11" gradientTransform="matrix(1, 0, 0, 1, 0, 0)" xlink:href="#未命名的渐变_107"/><linearGradient id="未命名的渐变_179-2" x1="91.22" y1="59.7" x2="92.17" y2="58.06" xlink:href="#未命名的渐变_179"/><linearGradient id="未命名的渐变_132-2" x1="91.49" y1="59.16" x2="92.82" y2="59.16" xlink:href="#未命名的渐变_132"/><linearGradient id="未命名的渐变_123-2" x1="92.49" y1="59.73" x2="91.83" y2="58.59" xlink:href="#未命名的渐变_123"/><linearGradient id="未命名的渐变_126" x1="378.65" y1="72.24" x2="405.56" y2="45.33" gradientTransform="matrix(-1, 0, 0, 1, 454.88, 0)" xlink:href="#未命名的渐变_168"/><linearGradient id="未命名的渐变_13" x1="354.7" y1="40.74" x2="402.63" y2="40.74" gradientTransform="matrix(-1, 0, 0, 1, 454.88, 0)" gradientUnits="userSpaceOnUse"><stop offset="0" stop-color="#89abe6"/><stop offset="1" stop-color="#547099"/></linearGradient><linearGradient id="未命名的渐变_42" x1="76.21" y1="54.64" x2="76.21" y2="26.84" gradientUnits="userSpaceOnUse"><stop offset="0" stop-color="#99beff"/><stop offset="0.02" stop-color="#99beff" stop-opacity="0.93"/><stop offset="0.09" stop-color="#99beff" stop-opacity="0.74"/><stop offset="0.17" stop-color="#99beff" stop-opacity="0.56"/><stop offset="0.25" stop-color="#99beff" stop-opacity="0.41"/><stop offset="0.33" stop-color="#99beff" stop-opacity="0.28"/><stop offset="0.43" stop-color="#99beff" stop-opacity="0.18"/><stop offset="0.53" stop-color="#99beff" stop-opacity="0.1"/><stop offset="0.64" stop-color="#99beff" stop-opacity="0.04"/><stop offset="0.77" stop-color="#99beff" stop-opacity="0.01"/><stop offset="1" stop-color="#99beff" stop-opacity="0"/></linearGradient><linearGradient id="未命名的渐变_66" x1="-1659.73" y1="54.67" x2="-1649.03" y2="54.67" gradientTransform="translate(1741.73)" gradientUnits="userSpaceOnUse"><stop offset="0" stop-color="#435368"/><stop offset="0.31" stop-color="#3e4c5f"/><stop offset="0.81" stop-color="#2f3947"/><stop offset="1" stop-color="#28313c"/></linearGradient><linearGradient id="未命名的渐变_18" x1="89.92" y1="57.24" x2="84.78" y2="52.1" gradientUnits="userSpaceOnUse"><stop offset="0" stop-color="#fff"/><stop offset="0.02" stop-color="#fff" stop-opacity="0.93"/><stop offset="0.09" stop-color="#fff" stop-opacity="0.74"/><stop offset="0.17" stop-color="#fff" stop-opacity="0.56"/><stop offset="0.25" stop-color="#fff" stop-opacity="0.41"/><stop offset="0.33" stop-color="#fff" stop-opacity="0.28"/><stop offset="0.43" stop-color="#fff" stop-opacity="0.18"/><stop offset="0.53" stop-color="#fff" stop-opacity="0.1"/><stop offset="0.64" stop-color="#fff" stop-opacity="0.04"/><stop offset="0.77" stop-color="#fff" stop-opacity="0.01"/><stop offset="1" stop-color="#fff" stop-opacity="0"/></linearGradient></defs><title>水处理仪</title><g class="cls-3"><g id="图层_2" data-name="图层 2"><g id="图元"><g id="水处理仪"><g class="cls-4"><rect class="cls-5" width="150" height="150"/><rect id="网格" class="cls-6" width="150" height="150"/></g><g class="cls-3"><path class="cls-7" d="M108.16,58.94a5.33,5.33,0,0,1-1.9-2c-1.06-1.83-1.06-3.79,0-4.38l-5.37,3.11c-1.07.6-1.08,2.55,0,4.39a5.55,5.55,0,0,0,1.89,2,1.92,1.92,0,0,0,1.91.19l5.37-3.12A1.9,1.9,0,0,1,108.16,58.94Z"/><path class="cls-7" d="M122.93,74.53a6,6,0,0,1-2.69-4.67,1.91,1.91,0,0,1,.79-1.72l-5.36,3.11a1.88,1.88,0,0,0-.79,1.73,6,6,0,0,0,2.69,4.67,1.88,1.88,0,0,0,1.91.18l5.36-3.12A1.88,1.88,0,0,1,122.93,74.53Z"/><path class="cls-7" d="M102.08,38.4a6,6,0,0,1-2.69-4.65,1.93,1.93,0,0,1,.79-1.73l-5.36,3.12A1.87,1.87,0,0,0,94,36.87a6,6,0,0,0,2.69,4.65,1.88,1.88,0,0,0,1.91.18L104,38.59A1.9,1.9,0,0,1,102.08,38.4Z"/><path class="cls-7" d="M137.75,76a5.55,5.55,0,0,1-1.91-2c-1.06-1.84-1.06-3.79,0-4.39l-5.36,3.12c-1.07.6-1.08,2.55,0,4.38a5.37,5.37,0,0,0,1.9,2,1.9,1.9,0,0,0,1.9.19l5.36-3.12A1.88,1.88,0,0,1,137.75,76Z"/><path class="cls-7" d="M108.25,25a5.43,5.43,0,0,1-1.89-2c-1-1.82-1.06-3.75,0-4.35L101,21.7c-1,.61-1,2.54,0,4.35a5.38,5.38,0,0,0,1.89,2,1.89,1.89,0,0,0,1.91.18l5.36-3.12A1.89,1.89,0,0,1,108.25,25Z"/><path class="cls-8" d="M123,65.82c-8.94-5.16-16.17-17.68-16.14-27.95,0-5.1,1.82-8.69,4.73-10.38l-5.37,3.12c-2.91,1.69-4.71,5.28-4.73,10.37,0,10.28,7.2,22.8,16.14,28,4.5,2.6,8.58,2.84,11.52,1.12L134.48,67C131.53,68.66,127.46,68.42,123,65.82Z"/><path class="cls-7" d="M143.92,62.56a6,6,0,0,1-2.69-4.66,1.86,1.86,0,0,1,.79-1.72l-5.37,3.11a1.9,1.9,0,0,0-.78,1.73,5.92,5.92,0,0,0,2.68,4.65,1.9,1.9,0,0,0,1.92.19l5.36-3.12A1.88,1.88,0,0,1,143.92,62.56Z"/><path class="cls-7" d="M123.07,26.45a6,6,0,0,1-2.69-4.66,1.85,1.85,0,0,1,.79-1.72l-5.36,3.11a1.87,1.87,0,0,0-.79,1.73,5.92,5.92,0,0,0,2.68,4.65,1.92,1.92,0,0,0,1.92.19L125,26.63A1.9,1.9,0,0,1,123.07,26.45Z"/><path class="cls-7" d="M137.84,42a5.52,5.52,0,0,1-1.9-2c-1.06-1.81-1.06-3.74,0-4.35l-5.36,3.12c-1.05.6-1,2.54,0,4.35a5.42,5.42,0,0,0,1.91,2,1.87,1.87,0,0,0,1.9.18l5.36-3.12A1.89,1.89,0,0,1,137.84,42Z"/><path class="cls-9" d="M123.1,16.2c-7.51-4.33-14.3-4.73-19.21-1.88l-5.36,3.11c4.9-2.85,11.7-2.45,19.2,1.89,14.92,8.61,27,29.47,26.91,46.6,0,8.51-3,14.5-7.87,17.31l5.36-3.11C147,77.3,150,71.31,150,62.8,150.05,45.67,138,24.81,123.1,16.2Z"/><path class="cls-10" d="M117.73,19.32c-14.91-8.61-27-1.7-27.08,15.43s12,38,26.91,46.6,27,1.71,27.08-15.43S132.65,27.93,117.73,19.32Zm0,4.05A6,6,0,0,1,120.41,28c0,1.7-1.22,2.4-2.71,1.54A5.92,5.92,0,0,1,115,24.91C115,23.2,116.24,22.51,117.72,23.37ZM101,21.69a1.85,1.85,0,0,1,1.9.17,5.48,5.48,0,0,1,1.9,2c1.07,1.82,1.06,3.77,0,4.37a1.89,1.89,0,0,1-1.91-.18,5.38,5.38,0,0,1-1.89-2C99.93,24.22,99.94,22.27,101,21.69ZM96.72,41.52A6,6,0,0,1,94,36.87c0-1.71,1.22-2.4,2.71-1.55A6,6,0,0,1,99.42,40C99.42,41.68,98.2,42.38,96.72,41.52Zm8,20.73a1.92,1.92,0,0,1-1.91-.19,5.55,5.55,0,0,1-1.89-2c-1.07-1.84-1.06-3.79,0-4.39a1.9,1.9,0,0,1,1.9.19,5.37,5.37,0,0,1,1.9,2C105.78,59.7,105.77,61.65,104.7,62.25Zm12.87,15.4A6,6,0,0,1,114.88,73c0-1.7,1.22-2.4,2.71-1.54a5.92,5.92,0,0,1,2.68,4.65C120.27,77.81,119.05,78.5,117.57,77.65Zm0-8.71c-8.94-5.16-16.17-17.68-16.14-28s7.31-14.42,16.25-9.25,16.17,17.71,16.14,28S126.53,74.1,117.59,68.94Zm16.69,10.39a1.9,1.9,0,0,1-1.9-.19,5.37,5.37,0,0,1-1.9-2c-1.07-1.83-1.06-3.78,0-4.38a1.92,1.92,0,0,1,1.91.19,5.43,5.43,0,0,1,1.89,2C135.36,76.78,135.35,78.73,134.28,79.33Zm.1-34a1.87,1.87,0,0,1-1.9-.18,5.42,5.42,0,0,1-1.91-2c-1.06-1.83-1.06-3.78,0-4.37a1.89,1.89,0,0,1,1.91.18,5.46,5.46,0,0,1,1.89,2C135.45,42.77,135.45,44.73,134.38,45.33Zm4.17,20.34A5.92,5.92,0,0,1,135.87,61c0-1.7,1.22-2.4,2.7-1.54a6,6,0,0,1,2.69,4.65C141.25,65.84,140,66.53,138.55,65.67Z"/></g><g class="cls-3"><path class="cls-11" d="M117.72,31.33c-4.52-2.62-8.62-2.86-11.58-1.14L18.56,81.09c3-1.72,7.05-1.48,11.57,1.13,9,5.19,16.25,17.77,16.22,28.1,0,5.13-1.82,8.74-4.74,10.44l87.58-50.9c2.92-1.7,4.73-5.31,4.75-10.44C134,49.09,126.71,36.52,117.72,31.33Z"/><path class="cls-7" d="M30.13,82.22c-9-5.19-16.29-1-16.32,9.31S21,114.43,30,119.62s16.3,1,16.32-9.3S39.12,87.41,30.13,82.22Z"/></g><g class="cls-3"><path class="cls-7" d="M17.5,111.39a5.39,5.39,0,0,1-1.89-2c-1.07-1.83-1.06-3.79,0-4.38l-5.36,3.11c-1.07.6-1.08,2.55,0,4.39a5.47,5.47,0,0,0,1.89,2,1.92,1.92,0,0,0,1.91.19l5.36-3.12A1.9,1.9,0,0,1,17.5,111.39Z"/><path class="cls-7" d="M32.28,127a5.93,5.93,0,0,1-2.69-4.67,1.86,1.86,0,0,1,.79-1.72L25,123.7a1.88,1.88,0,0,0-.79,1.73,5.94,5.94,0,0,0,2.68,4.67,1.89,1.89,0,0,0,1.92.18l5.36-3.12A1.88,1.88,0,0,1,32.28,127Z"/><path class="cls-7" d="M11.43,90.85A6,6,0,0,1,8.74,86.2a1.88,1.88,0,0,1,.79-1.73L4.17,87.59a1.87,1.87,0,0,0-.79,1.73A5.92,5.92,0,0,0,6.06,94,1.92,1.92,0,0,0,8,94.16L13.34,91A1.88,1.88,0,0,1,11.43,90.85Z"/><path class="cls-7" d="M47.09,128.48a5.45,5.45,0,0,1-1.9-2c-1.07-1.84-1.06-3.79,0-4.39l-5.36,3.12c-1.08.6-1.08,2.55,0,4.38a5.39,5.39,0,0,0,1.91,2,1.9,1.9,0,0,0,1.9.19L49,128.66A1.9,1.9,0,0,1,47.09,128.48Z"/><path class="cls-7" d="M17.6,77.4a5.35,5.35,0,0,1-1.89-2c-1.06-1.82-1.06-3.75,0-4.35l-5.37,3.11c-1,.61-1,2.54,0,4.35a5.4,5.4,0,0,0,1.9,2,1.87,1.87,0,0,0,1.9.18l5.37-3.12A1.89,1.89,0,0,1,17.6,77.4Z"/><path class="cls-12" d="M32.3,118.27c-8.94-5.16-16.17-17.68-16.14-27.95,0-5.1,1.82-8.69,4.73-10.38l-5.36,3.12c-2.91,1.69-4.72,5.28-4.73,10.37,0,10.28,7.2,22.8,16.14,28,4.5,2.6,8.57,2.84,11.52,1.13l5.36-3.12C40.88,121.11,36.8,120.87,32.3,118.27Z"/><path class="cls-7" d="M53.26,115a5.94,5.94,0,0,1-2.68-4.66,1.88,1.88,0,0,1,.78-1.72L46,111.74a1.9,1.9,0,0,0-.79,1.73,6,6,0,0,0,2.69,4.66,1.92,1.92,0,0,0,1.92.18l5.36-3.12A1.89,1.89,0,0,1,53.26,115Z"/><path class="cls-7" d="M32.41,78.9a6,6,0,0,1-2.68-4.66,1.85,1.85,0,0,1,.79-1.72l-5.37,3.11a1.89,1.89,0,0,0-.79,1.73A6,6,0,0,0,27.05,82,1.92,1.92,0,0,0,29,82.2l5.36-3.12A1.92,1.92,0,0,1,32.41,78.9Z"/><path class="cls-7" d="M47.19,94.49a5.54,5.54,0,0,1-1.91-2c-1.05-1.81-1.06-3.74,0-4.35L39.9,91.23c-1,.61-1,2.54,0,4.35a5.48,5.48,0,0,0,1.9,2,1.87,1.87,0,0,0,1.9.18l5.37-3.12A1.89,1.89,0,0,1,47.19,94.49Z"/><path class="cls-13" d="M32.44,68.65c-7.5-4.33-14.3-4.73-19.2-1.88L7.87,69.88c4.91-2.85,11.7-2.45,19.21,1.89C42,80.38,54,101.24,54,118.37c0,8.51-3,14.5-7.87,17.31l5.37-3.11c4.84-2.82,7.84-8.81,7.87-17.32C59.39,98.12,47.36,77.26,32.44,68.65Z"/><path class="cls-14" d="M27.08,71.77C12.16,63.16.05,70.07,0,87.2s12,38,26.9,46.6,27,1.71,27.08-15.43S42,80.38,27.08,71.77Zm0,4a6,6,0,0,1,2.69,4.65c0,1.7-1.23,2.4-2.71,1.54a6,6,0,0,1-2.69-4.65C24.37,75.65,25.59,75,27.07,75.82ZM10.36,74.14a1.83,1.83,0,0,1,1.89.17,5.5,5.5,0,0,1,1.91,2c1.06,1.82,1.06,3.77,0,4.37a1.87,1.87,0,0,1-1.9-.18,5.4,5.4,0,0,1-1.9-2C9.28,76.67,9.28,74.72,10.36,74.14ZM6.06,94a5.92,5.92,0,0,1-2.68-4.65c0-1.71,1.22-2.4,2.7-1.55a6,6,0,0,1,2.69,4.66C8.77,94.13,7.55,94.83,6.06,94Zm8,20.73a1.92,1.92,0,0,1-1.91-.19,5.47,5.47,0,0,1-1.89-2c-1.07-1.84-1.06-3.79,0-4.39a1.9,1.9,0,0,1,1.9.19,5.45,5.45,0,0,1,1.9,2C15.13,112.15,15.12,114.1,14.05,114.7Zm12.86,15.4a5.94,5.94,0,0,1-2.68-4.67c0-1.7,1.22-2.4,2.7-1.54a6,6,0,0,1,2.69,4.65C29.61,130.26,28.4,131,26.91,130.1Zm0-8.71c-8.94-5.16-16.17-17.68-16.14-28S18.1,79,27,84.18s16.17,17.71,16.14,27.95S35.88,126.55,26.94,121.39Zm16.69,10.39a1.9,1.9,0,0,1-1.9-.19,5.39,5.39,0,0,1-1.91-2c-1.06-1.83-1.06-3.78,0-4.38a1.92,1.92,0,0,1,1.91.19,5.51,5.51,0,0,1,1.89,2C44.7,129.23,44.7,131.18,43.63,131.78Zm.09-34a1.87,1.87,0,0,1-1.9-.18,5.48,5.48,0,0,1-1.9-2c-1.06-1.83-1.06-3.78,0-4.37a1.89,1.89,0,0,1,1.91.18,5.48,5.48,0,0,1,1.9,2C44.8,95.23,44.8,97.18,43.72,97.78Zm4.18,20.35a6,6,0,0,1-2.69-4.66c0-1.7,1.22-2.4,2.71-1.54a6,6,0,0,1,2.69,4.65C50.6,118.29,49.38,119,47.9,118.13Z"/></g><polygon class="cls-15" points="100.25 59.56 100.15 39.11 73.24 54.65 73.34 75.1 100.25 59.56"/><polygon class="cls-16" points="97.8 58.27 97.74 43.43 75.69 56.16 75.75 71 97.8 58.27"/><g class="cls-3"><path class="cls-17" d="M84.29,62.24a.53.53,0,0,0-.52,0A1.61,1.61,0,0,0,83,63.56a.52.52,0,0,0,.21.47l.18.11a.52.52,0,0,1-.21-.47A1.59,1.59,0,0,1,84,62.4a.5.5,0,0,1,.52,0Z"/><path class="cls-18" d="M84,62.4a1.59,1.59,0,0,0-.73,1.27c0,.46.33.65.73.41a1.57,1.57,0,0,0,.73-1.26C84.68,62.35,84.36,62.16,84,62.4Z"/></g><g class="cls-3"><path class="cls-19" d="M84.49,62.48a.46.46,0,0,0-.47.05,1.47,1.47,0,0,0-.66,1.14.47.47,0,0,0,.2.43l.45.28a.45.45,0,0,1-.19-.42,1.46,1.46,0,0,1,.66-1.15.48.48,0,0,1,.47,0Z"/><path class="cls-20" d="M84.48,62.81A1.46,1.46,0,0,0,83.82,64c0,.42.3.59.66.38a1.46,1.46,0,0,0,.66-1.15C85.14,62.77,84.84,62.6,84.48,62.81Z"/><path class="cls-21" d="M84.77,62.82c.17,0,.27.14.27.37a1.38,1.38,0,0,1-.61,1.06.52.52,0,0,1-.24.08c-.17,0-.27-.14-.27-.37a1.38,1.38,0,0,1,.61-1.06.49.49,0,0,1,.24-.08m0-.1a.57.57,0,0,0-.29.09A1.46,1.46,0,0,0,83.82,64c0,.3.15.47.37.47a.6.6,0,0,0,.29-.09,1.46,1.46,0,0,0,.66-1.15c0-.29-.15-.47-.37-.47Z"/></g><g class="cls-3"><path class="cls-22" d="M88,60.12a.5.5,0,0,0-.52.05,1.62,1.62,0,0,0-.73,1.26.51.51,0,0,0,.21.47l.19.11a.52.52,0,0,1-.22-.47,1.64,1.64,0,0,1,.73-1.27.5.5,0,0,1,.52-.05Z"/><path class="cls-23" d="M87.67,60.27a1.64,1.64,0,0,0-.73,1.27c0,.46.33.65.74.42a1.64,1.64,0,0,0,.73-1.27C88.41,60.23,88.08,60,87.67,60.27Z"/></g><g class="cls-3"><path class="cls-24" d="M88.22,60.35a.46.46,0,0,0-.47,0,1.43,1.43,0,0,0-.66,1.15.46.46,0,0,0,.19.42l.45.29a.47.47,0,0,1-.19-.43,1.47,1.47,0,0,1,.66-1.14.46.46,0,0,1,.47,0Z"/><path class="cls-25" d="M88.2,60.69a1.47,1.47,0,0,0-.66,1.14c0,.42.3.59.66.38a1.45,1.45,0,0,0,.67-1.14C88.86,60.65,88.57,60.48,88.2,60.69Z"/><path class="cls-26" d="M88.5,60.7c.16,0,.27.13.27.37a1.35,1.35,0,0,1-.62,1,.4.4,0,0,1-.24.08c-.17,0-.27-.14-.27-.37a1.4,1.4,0,0,1,.61-1.06.5.5,0,0,1,.25-.07m0-.1a.64.64,0,0,0-.3.09,1.47,1.47,0,0,0-.66,1.14c0,.3.15.47.37.47a.57.57,0,0,0,.29-.09,1.45,1.45,0,0,0,.67-1.14c0-.3-.16-.47-.37-.47Z"/></g><g class="cls-3"><path class="cls-27" d="M92,57.83a.5.5,0,0,0-.52.05,1.62,1.62,0,0,0-.73,1.26.53.53,0,0,0,.22.47l.18.11a.52.52,0,0,1-.21-.47A1.61,1.61,0,0,1,91.63,58a.53.53,0,0,1,.52,0Z"/><path class="cls-28" d="M91.63,58a1.61,1.61,0,0,0-.73,1.27c0,.46.33.65.73.42a1.61,1.61,0,0,0,.73-1.26C92.36,57.94,92,57.75,91.63,58Z"/></g><g class="cls-3"><path class="cls-29" d="M92.17,58.07a.45.45,0,0,0-.47,0A1.46,1.46,0,0,0,91,59.26a.46.46,0,0,0,.19.42l.46.29a.47.47,0,0,1-.2-.43,1.47,1.47,0,0,1,.66-1.14.48.48,0,0,1,.48,0Z"/><path class="cls-30" d="M92.15,58.4a1.47,1.47,0,0,0-.66,1.14c0,.42.3.59.67.38a1.47,1.47,0,0,0,.66-1.14C92.82,58.36,92.52,58.19,92.15,58.4Z"/><path class="cls-31" d="M92.45,58.41c.17,0,.27.14.27.37a1.4,1.4,0,0,1-.61,1.06.5.5,0,0,1-.25.07c-.17,0-.27-.14-.27-.37a1.4,1.4,0,0,1,.61-1.06.53.53,0,0,1,.25-.07m0-.1a.64.64,0,0,0-.3.09,1.47,1.47,0,0,0-.66,1.14c0,.3.15.47.37.47a.64.64,0,0,0,.3-.09,1.47,1.47,0,0,0,.66-1.14c0-.3-.15-.47-.37-.47Z"/></g><polygon class="cls-32" points="73.21 54.63 52.25 42.41 52.35 62.93 73.31 75.16 73.21 54.63"/><polygon class="cls-33" points="100.18 39.06 79.22 26.84 52.25 42.41 73.21 54.63 100.18 39.06"/><path class="cls-34" d="M79.22,27.13,99.68,39.06,73.21,54.35,52.75,42.41,79.22,27.13m0-.29-27,15.57,21,12.23,27-15.58-21-12.22Z"/><path class="cls-35" d="M92.71,54a1.14,1.14,0,0,1-.53.9l-9.63,5.57c-.3.17-.53,0-.53-.3v-.32l0-4.59a1.14,1.14,0,0,1,.53-.9L92,49l.22-.13c.29-.16.52,0,.52.3Z"/><path class="cls-36" d="M92,53.54a1.18,1.18,0,0,1-.52.9L82,59.89l0-4.59a1.14,1.14,0,0,1,.53-.9L92,49Z"/><g class="cls-37"><polygon class="cls-38" points="88.43 52.98 88.43 53.28 88.69 53.12 88.7 54.03 88.43 54.18 88.43 53.28 88.17 53.42 88.18 54.63 88.96 54.18 88.95 52.68 88.43 52.98"/><polygon class="cls-38" points="89.48 52.37 89.48 52.67 89.74 52.52 89.74 53.42 89.48 53.57 89.48 52.67 89.22 52.82 89.22 54.03 90.01 53.57 90 52.07 89.48 52.37"/><polygon class="cls-38" points="91.05 51.47 90.27 51.92 90.27 52.22 90.79 51.91 90.79 52.22 91.05 52.07 91.05 51.47"/><polygon class="cls-38" points="90.53 52.37 90.53 53.27 90.79 53.12 90.79 52.22 90.53 52.37"/></g><g class="cls-39"><path class="cls-40" d="M92.4,48.86c.17,0,.19.19.19.27l0,4.91a1,1,0,0,1-.48.81L82.5,60.42a.41.41,0,0,1-.19.06c-.17,0-.19-.19-.19-.27v-.32l0-4.59a1.08,1.08,0,0,1,.48-.82L92,49l.22-.12a.35.35,0,0,1,.18-.06m0-.1a.43.43,0,0,0-.23.07L92,49,82.53,54.4a1.14,1.14,0,0,0-.53.9l0,4.59v.32c0,.23.12.37.29.37a.49.49,0,0,0,.24-.07l9.63-5.57a1.14,1.14,0,0,0,.53-.9l0-4.91c0-.23-.12-.37-.29-.37Z"/></g><g class="cls-37"><polygon class="cls-38" points="84.71 55.19 84.71 55.49 84.97 55.34 84.97 56.24 84.71 56.39 84.71 55.49 84.45 55.64 84.45 56.84 85.23 56.39 85.23 54.89 84.71 55.19"/><polygon class="cls-38" points="85.75 54.58 85.76 54.88 86.02 54.73 86.02 55.63 85.76 55.78 85.76 54.88 85.49 55.03 85.5 56.24 86.28 55.78 86.28 54.28 85.75 54.58"/><polygon class="cls-38" points="87.32 53.68 86.54 54.13 86.54 54.43 87.06 54.13 87.06 54.43 87.32 54.28 87.32 53.68"/><polygon class="cls-38" points="86.8 54.58 86.8 55.48 87.07 55.33 87.06 54.43 86.8 54.58"/></g><polygon class="cls-38" points="84.81 54.94 84.82 55.24 85.08 55.09 85.08 55.99 84.82 56.14 84.82 55.24 84.56 55.39 84.56 56.59 85.34 56.14 85.34 54.64 84.81 54.94"/><polygon class="cls-38" points="85.86 54.34 85.86 54.63 86.12 54.48 86.13 55.39 85.87 55.54 85.86 54.63 85.6 54.79 85.61 55.99 86.39 55.54 86.39 54.03 85.86 54.34"/><polygon class="cls-38" points="87.43 53.43 86.65 53.88 86.65 54.18 87.17 53.88 87.17 54.18 87.43 54.03 87.43 53.43"/><polygon class="cls-38" points="86.91 54.33 86.91 55.24 87.18 55.09 87.17 54.18 86.91 54.33"/><ellipse class="cls-41" cx="83.22" cy="56.69" rx="0.31" ry="0.17" transform="translate(-12.11 89.12) rotate(-53.05)"/></g></g></g></g></svg>