<svg xmlns="http://www.w3.org/2000/svg" xmlns:xlink="http://www.w3.org/1999/xlink" viewBox="0 0 150 150"><defs><style>.cls-1,.cls-2{fill:none;}.cls-2{stroke:#fff;stroke-miterlimit:10;stroke-width:0.1px;}.cls-3{opacity:0;}.cls-4{fill:#000714;}.cls-5{opacity:0.1;fill:url(#新建图案);}.cls-6{fill:url(#未命名的渐变_217);}.cls-7{fill:url(#未命名的渐变_196);}.cls-8{fill:url(#未命名的渐变_13);}.cls-9{isolation:isolate;}.cls-10{fill:#171d23;}.cls-11{fill:#7696cb;}.cls-12{fill:#344052;}.cls-13{fill:#4e5f79;}.cls-14{fill:url(#未命名的渐变_217-2);}.cls-15{fill:url(#未命名的渐变_13-2);}.cls-16{fill:url(#未命名的渐变_51);}.cls-17{fill:url(#未命名的渐变_52);}.cls-18{fill:url(#未命名的渐变_51-2);}.cls-19{fill:url(#未命名的渐变_17283);}.cls-20{fill:url(#未命名的渐变_78);}.cls-21{fill:url(#未命名的渐变_79);}.cls-22{fill:url(#未命名的渐变_17283-2);}.cls-23{opacity:0.2;}</style><pattern id="新建图案" data-name="新建图案" width="18.57" height="32.16" patternTransform="translate(3144.42 761.35)" patternUnits="userSpaceOnUse" viewBox="0 0 18.57 32.16"><rect class="cls-1" width="18.57" height="32.16"/><polyline class="cls-2" points="18.57 21.44 18.57 32.16 18.57 42.88"/><polyline class="cls-2" points="9.29 26.8 18.57 32.16 27.85 37.51 27.85 37.52"/><polyline class="cls-2" points="9.29 37.52 9.29 37.51 18.57 32.16 27.85 26.8"/><polygon class="cls-2" points="27.85 37.52 27.85 26.8 18.57 21.44 9.28 26.8 9.28 37.52 18.57 42.88 27.85 37.52"/><polyline class="cls-2" points="0 21.44 0 32.16 0 42.88"/><polyline class="cls-2" points="-9.28 26.8 0 32.16 9.28 37.51 9.28 37.52"/><polyline class="cls-2" points="-9.28 37.52 -9.28 37.51 0 32.16 9.28 26.8"/><polygon class="cls-2" points="9.28 37.52 9.28 26.8 0 21.44 -9.29 26.8 -9.29 37.52 0 42.88 9.28 37.52"/><polyline class="cls-2" points="18.57 10.72 27.85 16.08 37.13 21.43 37.13 21.44"/><polyline class="cls-2" points="18.57 21.44 18.57 21.43 27.85 16.08 37.13 10.72"/><polygon class="cls-2" points="37.14 21.44 37.14 10.72 27.85 5.36 18.57 10.72 18.57 21.44 27.85 26.8 37.14 21.44"/><polyline class="cls-2" points="9.29 5.36 9.29 16.08 9.29 26.8"/><polyline class="cls-2" points="0.01 10.72 9.29 16.08 18.57 21.43 18.57 21.44"/><polyline class="cls-2" points="0.01 21.44 0.01 21.43 9.29 16.08 18.57 10.72"/><polygon class="cls-2" points="18.57 21.44 18.57 10.72 9.28 5.36 0 10.72 0 21.44 9.28 26.8 18.57 21.44"/><polyline class="cls-2" points="-18.56 10.72 -9.28 16.08 0 21.43 0 21.44"/><polyline class="cls-2" points="-18.56 21.44 -18.56 21.43 -9.28 16.08 0 10.72"/><polygon class="cls-2" points="0 21.44 0 10.72 -9.29 5.36 -18.57 10.72 -18.57 21.44 -9.29 26.8 0 21.44"/><polyline class="cls-2" points="18.57 -10.72 18.57 0 18.57 10.72"/><polyline class="cls-2" points="9.29 -5.36 18.57 0 27.85 5.35 27.85 5.36"/><polyline class="cls-2" points="9.29 5.36 9.29 5.35 18.57 0 27.85 -5.36"/><polygon class="cls-2" points="27.85 5.36 27.85 -5.36 18.57 -10.72 9.28 -5.36 9.28 5.36 18.57 10.72 27.85 5.36"/><polyline class="cls-2" points="0 -10.72 0 0 0 10.72"/><polyline class="cls-2" points="-9.28 -5.36 0 0 9.28 5.35 9.28 5.36"/><polyline class="cls-2" points="-9.28 5.36 -9.28 5.35 0 0 9.28 -5.36"/><polygon class="cls-2" points="9.28 5.36 9.28 -5.36 0 -10.72 -9.29 -5.36 -9.29 5.36 0 10.72 9.28 5.36"/></pattern><linearGradient id="未命名的渐变_217" x1="60.14" y1="131.39" x2="83.25" y2="131.39" gradientUnits="userSpaceOnUse"><stop offset="0" stop-color="#283140"/><stop offset="0.2" stop-color="#89abe6"/><stop offset="0.9" stop-color="#12161a"/><stop offset="1" stop-color="#283140"/></linearGradient><linearGradient id="未命名的渐变_196" x1="71.7" y1="131.46" x2="71.7" y2="112.78" gradientUnits="userSpaceOnUse"><stop offset="0" stop-color="#142439" stop-opacity="0"/><stop offset="1" stop-color="#142439" stop-opacity="0.6"/></linearGradient><linearGradient id="未命名的渐变_13" x1="60.14" y1="112.87" x2="83.25" y2="112.87" gradientUnits="userSpaceOnUse"><stop offset="0" stop-color="#89abe6"/><stop offset="1" stop-color="#547099"/></linearGradient><linearGradient id="未命名的渐变_217-2" x1="53.31" y1="78.98" x2="90.08" y2="78.98" xlink:href="#未命名的渐变_217"/><linearGradient id="未命名的渐变_13-2" x1="53.31" y1="52.01" x2="90.08" y2="52.01" xlink:href="#未命名的渐变_13"/><linearGradient id="未命名的渐变_51" x1="105.6" y1="32.35" x2="94.92" y2="13.85" gradientUnits="userSpaceOnUse"><stop offset="0" stop-color="#0073e6"/><stop offset="0.15" stop-color="#1433cc"/><stop offset="0.75" stop-color="#59c8ff"/><stop offset="0.85" stop-color="#59c8ff"/><stop offset="1" stop-color="#0073e6"/></linearGradient><linearGradient id="未命名的渐变_52" x1="101.84" y1="33.84" x2="87.08" y2="19.08" gradientUnits="userSpaceOnUse"><stop offset="0" stop-color="#143ccc"/><stop offset="1" stop-color="#0073e6"/></linearGradient><linearGradient id="未命名的渐变_51-2" x1="95.43" y1="38.27" x2="84.74" y2="19.75" xlink:href="#未命名的渐变_51"/><linearGradient id="未命名的渐变_17283" x1="88.53" y1="41.57" x2="73.78" y2="26.81" gradientUnits="userSpaceOnUse"><stop offset="0" stop-color="#2f77eb"/><stop offset="1" stop-color="#59c8ff"/></linearGradient><linearGradient id="未命名的渐变_78" x1="51.15" y1="11.65" x2="91.39" y2="11.65" gradientUnits="userSpaceOnUse"><stop offset="0" stop-color="#8ce2ff"/><stop offset="1" stop-color="#44b6ff"/></linearGradient><linearGradient id="未命名的渐变_79" x1="64.66" y1="51.53" x2="97.96" y2="18.23" gradientUnits="userSpaceOnUse"><stop offset="0" stop-color="#0073e6"/><stop offset="1" stop-color="#143ccc"/></linearGradient><linearGradient id="未命名的渐变_17283-2" x1="77.82" y1="51.51" x2="44.56" y2="18.25" xlink:href="#未命名的渐变_17283"/></defs><title>水管压力传感器</title><g id="图层_2" data-name="图层 2"><g id="图元"><g id="水管压力传感器"><g class="cls-3"><rect class="cls-4" width="150" height="150"/><rect id="网格" class="cls-5" width="150" height="150"/></g><path class="cls-6" d="M83.25,112.9v30.51c0,1.7-1.15,3.35-3.35,4.63-4.5,2.61-11.82,2.61-16.37,0-2.27-1.31-3.39-3-3.39-4.74V112.78c0,1.7,1.12,3.43,3.39,4.74,4.55,2.62,11.87,2.62,16.37,0C82.1,116.25,83.22,114.55,83.25,112.9Z"/><path class="cls-7" d="M83.25,112.9v12c0,1.69-1.15,3.35-3.35,4.62-4.5,2.62-11.82,2.62-16.37,0-2.27-1.31-3.39-3-3.39-4.74v-12c0,1.7,1.12,3.43,3.39,4.74,4.55,2.62,11.87,2.62,16.37,0C82.1,116.25,83.22,114.55,83.25,112.9Z"/><path class="cls-8" d="M83.25,112.82V113c0,1.68-1.16,3.35-3.36,4.63-4.5,2.61-11.82,2.61-16.34,0-2.28-1.32-3.41-3-3.41-4.76s1.12-3.41,3.36-4.71c4.49-2.61,11.81-2.61,16.34,0C82.08,109.44,83.21,111.12,83.25,112.82Z"/><g class="cls-9"><polygon class="cls-10" points="84.39 109.47 84.35 122.52 96.88 109.88 96.91 96.84 84.39 109.47"/><polygon class="cls-11" points="84.24 84.19 59.05 84.19 46.52 96.84 59.19 109.47 84.39 109.47 96.91 96.84 84.24 84.19"/><polygon class="cls-12" points="59.19 109.47 59.15 122.52 84.35 122.52 84.39 109.47 59.19 109.47"/><polygon class="cls-13" points="46.52 96.84 46.48 109.88 59.15 122.52 59.19 109.47 46.52 96.84"/></g><path class="cls-14" d="M90.08,52v43.6c0,2.67-1.83,5.33-5.34,7.36-7.16,4.16-18.8,4.16-26,0-3.62-2.09-5.43-4.82-5.43-7.56V51.84c0,2.74,1.81,5.48,5.43,7.57,7.2,4.16,18.84,4.16,26,0C88.25,57.37,90,54.71,90.08,52Z"/><path class="cls-15" d="M90.08,51.93v.25c0,2.67-1.83,5.33-5.34,7.36-7.16,4.16-18.8,4.17-26,0-3.62-2.09-5.43-4.82-5.43-7.56s1.78-5.43,5.35-7.5c7.15-4.16,18.79-4.16,26,0C88.22,46.54,90,49.23,90.08,51.93Z"/><g class="cls-9"><polygon class="cls-10" points="86.8 60.55 86.75 76.08 101.65 61.04 101.7 45.52 86.8 60.55"/><polygon class="cls-11" points="86.62 30.48 56.65 30.48 41.74 45.52 56.81 60.55 86.8 60.55 101.7 45.52 86.62 30.48"/><polygon class="cls-12" points="56.81 60.55 56.77 76.08 86.75 76.08 86.8 60.55 56.81 60.55"/><polygon class="cls-13" points="41.74 45.52 41.7 61.04 56.77 76.08 56.81 60.55 41.74 45.52"/></g><g class="cls-9"><path class="cls-16" d="M100.75,14.12c-2.1-1.22-4-1.33-5.38-.53L89.1,17.23c1.38-.8,3.28-.68,5.39.53A16.66,16.66,0,0,1,102,30.83c0,2.39-.85,4.07-2.21,4.86L106.09,32c1.36-.79,2.21-2.47,2.21-4.85A16.58,16.58,0,0,0,100.75,14.12Z"/><path class="cls-17" d="M94.49,17.76c-4.18-2.41-7.58-.48-7.6,4.33a16.65,16.65,0,0,0,7.55,13.07c4.18,2.41,7.58.48,7.6-4.33A16.66,16.66,0,0,0,94.49,17.76Z"/></g><g class="cls-9"><path class="cls-18" d="M93.71,18.21c-2.1-1.21-4-1.33-5.38-.53L75.79,25c1.38-.8,3.28-.69,5.39.52a16.65,16.65,0,0,1,7.55,13.07c0,2.39-.85,4.06-2.21,4.85l12.53-7.28c1.36-.79,2.2-2.47,2.21-4.85A16.62,16.62,0,0,0,93.71,18.21Z"/><path class="cls-19" d="M81.18,25.49C77,23.08,73.6,25,73.59,29.82a16.63,16.63,0,0,0,7.54,13.07c4.18,2.41,7.58.47,7.6-4.33A16.65,16.65,0,0,0,81.18,25.49Z"/></g><g class="cls-9"><polygon class="cls-20" points="71.2 0 51.15 11.66 71.33 23.31 91.39 11.65 71.2 0"/><polygon class="cls-21" points="71.33 23.31 71.23 58.1 91.29 46.44 91.39 11.65 71.33 23.31"/><polygon class="cls-22" points="51.15 11.66 51.05 46.45 71.23 58.1 71.33 23.31 51.15 11.66"/></g></g></g></g></svg>