<svg xmlns="http://www.w3.org/2000/svg" xmlns:xlink="http://www.w3.org/1999/xlink" viewBox="0 0 150 150"><defs><style>.cls-1,.cls-2{fill:none;}.cls-2{stroke:#fff;stroke-miterlimit:10;stroke-width:0.1px;}.cls-3{isolation:isolate;}.cls-4{opacity:0;}.cls-5{fill:#000714;}.cls-6{opacity:0.1;fill:url(#新建图案);}.cls-7{fill:url(#未命名的渐变_119);}.cls-8{fill:url(#未命名的渐变_112);}.cls-9{fill:url(#未命名的渐变_13);}.cls-10{fill:#171d23;}.cls-11{fill:#7696cb;}.cls-12{fill:url(#未命名的渐变_106);}.cls-13{fill:#4e5f79;}.cls-14{fill:url(#未命名的渐变_106-2);}.cls-15{fill:url(#未命名的渐变_106-3);}.cls-16{fill:#fff;}.cls-17{fill:url(#未命名的渐变_106-4);}.cls-18{fill:#13181d;}.cls-19{fill:url(#未命名的渐变_115);}.cls-20{fill:url(#未命名的渐变_113);}.cls-21{fill:url(#未命名的渐变_100);}.cls-22{fill:url(#未命名的渐变_106-5);}.cls-23{fill:url(#未命名的渐变_13-2);}.cls-24{fill:url(#未命名的渐变_119-2);}.cls-25{fill:url(#未命名的渐变_112-2);}.cls-26{fill:url(#未命名的渐变_13-3);}.cls-27{fill:url(#未命名的渐变_107);}.cls-28{fill:url(#未命名的渐变_106-6);}.cls-29{fill:url(#未命名的渐变_13-4);}.cls-30{fill:url(#未命名的渐变_106-7);}.cls-31{fill:url(#未命名的渐变_107-2);}.cls-32{fill:url(#未命名的渐变_13-5);}.cls-33{fill:url(#未命名的渐变_112-3);}.cls-34{fill:url(#未命名的渐变_13-6);}.cls-35{fill:url(#未命名的渐变_106-8);}.cls-36{fill:url(#未命名的渐变_218);}.cls-37{fill:url(#未命名的渐变_13-7);}.cls-38{fill:url(#未命名的渐变_107-3);}.cls-39{fill:url(#未命名的渐变_210);}.cls-40{fill:url(#未命名的渐变_13-8);}.cls-41{fill:url(#未命名的渐变_112-4);}.cls-42{opacity:0.4;}.cls-42,.cls-49,.cls-53,.cls-63{mix-blend-mode:multiply;}.cls-43{fill:url(#未命名的渐变_13-9);}.cls-44{fill:url(#未命名的渐变_42);}.cls-45{fill:url(#未命名的渐变_112-5);}.cls-46{fill:url(#未命名的渐变_13-10);}.cls-47{fill:url(#未命名的渐变_112-6);}.cls-48{fill:url(#未命名的渐变_13-11);}.cls-50{fill:url(#未命名的渐变_42-2);}.cls-51{fill:url(#未命名的渐变_184);}.cls-52{fill:url(#未命名的渐变_112-7);}.cls-53{opacity:0.45;}.cls-54{fill:url(#未命名的渐变_13-12);}.cls-55{fill:url(#未命名的渐变_112-8);}.cls-56{fill:url(#未命名的渐变_13-13);}.cls-57{fill:url(#未命名的渐变_13-14);}.cls-58{fill:url(#未命名的渐变_107-4);}.cls-59{fill:url(#未命名的渐变_106-9);}.cls-60{fill:url(#未命名的渐变_141);}.cls-61{fill:url(#未命名的渐变_119-3);}.cls-62{fill:url(#未命名的渐变_112-9);}.cls-63{opacity:0.65;}.cls-64{fill:url(#未命名的渐变_13-15);}.cls-65{opacity:0.2;}</style><pattern id="新建图案" data-name="新建图案" width="18.57" height="32.16" patternTransform="translate(2912.86 974.22)" patternUnits="userSpaceOnUse" viewBox="0 0 18.57 32.16"><rect class="cls-1" width="18.57" height="32.16"/><polyline class="cls-2" points="18.57 21.44 18.57 32.16 18.57 42.88"/><polyline class="cls-2" points="9.29 26.8 18.57 32.16 27.85 37.51 27.85 37.52"/><polyline class="cls-2" points="9.29 37.52 9.29 37.51 18.57 32.16 27.85 26.8"/><polygon class="cls-2" points="27.85 37.52 27.85 26.8 18.57 21.44 9.28 26.8 9.28 37.52 18.57 42.88 27.85 37.52"/><polyline class="cls-2" points="0 21.44 0 32.16 0 42.88"/><polyline class="cls-2" points="-9.28 26.8 0 32.16 9.28 37.51 9.28 37.52"/><polyline class="cls-2" points="-9.28 37.52 -9.28 37.51 0 32.16 9.28 26.8"/><polygon class="cls-2" points="9.28 37.52 9.28 26.8 0 21.44 -9.29 26.8 -9.29 37.52 0 42.88 9.28 37.52"/><polyline class="cls-2" points="18.57 10.72 27.85 16.08 37.13 21.43 37.13 21.44"/><polyline class="cls-2" points="18.57 21.44 18.57 21.43 27.85 16.08 37.13 10.72"/><polygon class="cls-2" points="37.14 21.44 37.14 10.72 27.85 5.36 18.57 10.72 18.57 21.44 27.85 26.8 37.14 21.44"/><polyline class="cls-2" points="9.29 5.36 9.29 16.08 9.29 26.8"/><polyline class="cls-2" points="0.01 10.72 9.29 16.08 18.57 21.43 18.57 21.44"/><polyline class="cls-2" points="0.01 21.44 0.01 21.43 9.29 16.08 18.57 10.72"/><polygon class="cls-2" points="18.57 21.44 18.57 10.72 9.28 5.36 0 10.72 0 21.44 9.28 26.8 18.57 21.44"/><polyline class="cls-2" points="-18.56 10.72 -9.28 16.08 0 21.43 0 21.44"/><polyline class="cls-2" points="-18.56 21.44 -18.56 21.43 -9.28 16.08 0 10.72"/><polygon class="cls-2" points="0 21.44 0 10.72 -9.29 5.36 -18.57 10.72 -18.57 21.44 -9.29 26.8 0 21.44"/><polyline class="cls-2" points="18.57 -10.72 18.57 0 18.57 10.72"/><polyline class="cls-2" points="9.29 -5.36 18.57 0 27.85 5.35 27.85 5.36"/><polyline class="cls-2" points="9.29 5.36 9.29 5.35 18.57 0 27.85 -5.36"/><polygon class="cls-2" points="27.85 5.36 27.85 -5.36 18.57 -10.72 9.28 -5.36 9.28 5.36 18.57 10.72 27.85 5.36"/><polyline class="cls-2" points="0 -10.72 0 0 0 10.72"/><polyline class="cls-2" points="-9.28 -5.36 0 0 9.28 5.35 9.28 5.36"/><polyline class="cls-2" points="-9.28 5.36 -9.28 5.35 0 0 9.28 -5.36"/><polygon class="cls-2" points="9.28 5.36 9.28 -5.36 0 -10.72 -9.29 -5.36 -9.29 5.36 0 10.72 9.28 5.36"/></pattern><linearGradient id="未命名的渐变_119" x1="67.81" y1="137.55" x2="92.47" y2="137.55" gradientUnits="userSpaceOnUse"><stop offset="0" stop-color="#283140"/><stop offset="0.1" stop-color="#12161a"/><stop offset="0.75" stop-color="#7a98cc"/><stop offset="0.85" stop-color="#7a98cc"/><stop offset="1" stop-color="#38455a"/></linearGradient><linearGradient id="未命名的渐变_112" x1="65.57" y1="145.3" x2="94.7" y2="145.3" gradientUnits="userSpaceOnUse"><stop offset="0" stop-color="#38455a"/><stop offset="0.15" stop-color="#7a98cc"/><stop offset="0.25" stop-color="#7a98cc"/><stop offset="0.9" stop-color="#12161a"/><stop offset="1" stop-color="#283140"/></linearGradient><linearGradient id="未命名的渐变_13" x1="65.57" y1="140.65" x2="94.71" y2="140.65" gradientUnits="userSpaceOnUse"><stop offset="0" stop-color="#89abe6"/><stop offset="1" stop-color="#547099"/></linearGradient><linearGradient id="未命名的渐变_106" x1="84.15" y1="133.28" x2="75.9" y2="125.03" gradientUnits="userSpaceOnUse"><stop offset="0" stop-color="#425266"/><stop offset="1" stop-color="#596b8c"/></linearGradient><linearGradient id="未命名的渐变_106-2" x1="70.63" y1="139.91" x2="66.07" y2="135.35" xlink:href="#未命名的渐变_106"/><linearGradient id="未命名的渐变_106-3" x1="85.44" y1="147.13" x2="74.78" y2="136.47" xlink:href="#未命名的渐变_106"/><linearGradient id="未命名的渐变_106-4" x1="95.26" y1="141.08" x2="88.36" y2="134.18" xlink:href="#未命名的渐变_106"/><linearGradient id="未命名的渐变_115" x1="68.91" y1="130.73" x2="64.61" y2="123.28" gradientUnits="userSpaceOnUse"><stop offset="0" stop-color="#283140"/><stop offset="0.1" stop-color="#12161a"/><stop offset="0.8" stop-color="#7a98cc"/><stop offset="1" stop-color="#38455a"/></linearGradient><linearGradient id="未命名的渐变_113" x1="60.25" y1="135.71" x2="55.97" y2="128.29" gradientUnits="userSpaceOnUse"><stop offset="0" stop-color="#38455a"/><stop offset="0.2" stop-color="#7a98cc"/><stop offset="0.9" stop-color="#12161a"/><stop offset="1" stop-color="#283140"/></linearGradient><linearGradient id="未命名的渐变_100" x1="64.53" y1="136.54" x2="57.39" y2="124.17" gradientUnits="userSpaceOnUse"><stop offset="0" stop-color="#0073e6"/><stop offset="0.1" stop-color="#1433cc"/><stop offset="0.8" stop-color="#59c8ff"/><stop offset="1" stop-color="#0073e6"/></linearGradient><linearGradient id="未命名的渐变_106-5" x1="53.61" y1="131.68" x2="63.73" y2="131.68" xlink:href="#未命名的渐变_106"/><linearGradient id="未命名的渐变_13-2" x1="68.95" y1="123.61" x2="91.35" y2="123.61" xlink:href="#未命名的渐变_13"/><linearGradient id="未命名的渐变_119-2" x1="89.68" y1="137.73" x2="70.59" y2="118.64" xlink:href="#未命名的渐变_119"/><linearGradient id="未命名的渐变_112-2" x1="67.67" y1="127.49" x2="92.6" y2="127.49" xlink:href="#未命名的渐变_112"/><linearGradient id="未命名的渐变_13-3" x1="67.67" y1="123.53" x2="92.6" y2="123.53" xlink:href="#未命名的渐变_13"/><linearGradient id="未命名的渐变_107" x1="83.45" y1="120.49" x2="87.79" y2="116.15" gradientUnits="userSpaceOnUse"><stop offset="0" stop-color="#283140"/><stop offset="0.34" stop-color="#232b37"/><stop offset="0.9" stop-color="#15191f"/><stop offset="1" stop-color="#12161a"/></linearGradient><linearGradient id="未命名的渐变_106-6" x1="86.11" y1="120.15" x2="82.3" y2="116.34" xlink:href="#未命名的渐变_106"/><linearGradient id="未命名的渐变_13-4" x1="83.8" y1="114.64" x2="86.08" y2="114.64" xlink:href="#未命名的渐变_13"/><linearGradient id="未命名的渐变_106-7" x1="76.98" y1="120.48" x2="72.64" y2="116.15" xlink:href="#未命名的渐变_106"/><linearGradient id="未命名的渐变_107-2" x1="74.33" y1="120.14" x2="78.13" y2="116.34" xlink:href="#未命名的渐变_107"/><linearGradient id="未命名的渐变_13-5" x1="74.35" y1="114.64" x2="76.63" y2="114.64" xlink:href="#未命名的渐变_13"/><linearGradient id="未命名的渐变_112-3" x1="74.45" y1="122.1" x2="85.83" y2="122.1" xlink:href="#未命名的渐变_112"/><linearGradient id="未命名的渐变_13-6" x1="74.45" y1="117.27" x2="85.83" y2="117.27" xlink:href="#未命名的渐变_13"/><linearGradient id="未命名的渐变_106-8" x1="88.72" y1="127.72" x2="82.3" y2="121.3" xlink:href="#未命名的渐变_106"/><linearGradient id="未命名的渐变_218" x1="84.9" y1="120.91" x2="88.96" y2="127.95" gradientUnits="userSpaceOnUse"><stop offset="0" stop-color="#303b4d"/><stop offset="1" stop-color="#12161a"/></linearGradient><linearGradient id="未命名的渐变_13-7" x1="83.74" y1="120.07" x2="86.01" y2="120.07" xlink:href="#未命名的渐变_13"/><linearGradient id="未命名的渐变_107-3" x1="71.61" y1="127.72" x2="78.03" y2="121.3" xlink:href="#未命名的渐变_107"/><linearGradient id="未命名的渐变_210" x1="75.43" y1="120.91" x2="71.37" y2="127.96" gradientUnits="userSpaceOnUse"><stop offset="0" stop-color="#708ec0"/><stop offset="1" stop-color="#425266"/></linearGradient><linearGradient id="未命名的渐变_13-8" x1="74.32" y1="120.07" x2="76.6" y2="120.07" xlink:href="#未命名的渐变_13"/><linearGradient id="未命名的渐变_112-4" x1="72.34" y1="121.29" x2="87.94" y2="121.29" xlink:href="#未命名的渐变_112"/><linearGradient id="未命名的渐变_13-9" x1="65.42" y1="114.18" x2="81.02" y2="114.18" gradientTransform="translate(6.92 3.7)" xlink:href="#未命名的渐变_13"/><linearGradient id="未命名的渐变_42" x1="80.14" y1="122.39" x2="80.14" y2="113.36" gradientUnits="userSpaceOnUse"><stop offset="0" stop-color="#99beff"/><stop offset="0.02" stop-color="#99beff" stop-opacity="0.93"/><stop offset="0.09" stop-color="#99beff" stop-opacity="0.74"/><stop offset="0.17" stop-color="#99beff" stop-opacity="0.56"/><stop offset="0.25" stop-color="#99beff" stop-opacity="0.41"/><stop offset="0.33" stop-color="#99beff" stop-opacity="0.28"/><stop offset="0.43" stop-color="#99beff" stop-opacity="0.18"/><stop offset="0.53" stop-color="#99beff" stop-opacity="0.1"/><stop offset="0.64" stop-color="#99beff" stop-opacity="0.04"/><stop offset="0.77" stop-color="#99beff" stop-opacity="0.01"/><stop offset="1" stop-color="#99beff" stop-opacity="0"/></linearGradient><linearGradient id="未命名的渐变_112-5" x1="74.45" y1="72.7" x2="85.83" y2="72.7" xlink:href="#未命名的渐变_112"/><linearGradient id="未命名的渐变_13-10" x1="74.45" y1="24.46" x2="85.83" y2="24.46" xlink:href="#未命名的渐变_13"/><linearGradient id="未命名的渐变_112-6" x1="72.34" y1="27.27" x2="87.94" y2="27.27" xlink:href="#未命名的渐变_112"/><linearGradient id="未命名的渐变_13-11" x1="65.42" y1="20.16" x2="81.02" y2="20.16" gradientTransform="translate(6.92 3.7)" xlink:href="#未命名的渐变_13"/><linearGradient id="未命名的渐变_42-2" x1="80.14" y1="28.38" x2="80.14" y2="19.34" xlink:href="#未命名的渐变_42"/><linearGradient id="未命名的渐变_184" x1="67.06" y1="11.49" x2="91.61" y2="18.07" gradientUnits="userSpaceOnUse"><stop offset="0" stop-color="#283140"/><stop offset="0.1" stop-color="#12161a"/><stop offset="0.69" stop-color="#7a98cc"/><stop offset="0.79" stop-color="#7a98cc"/><stop offset="1" stop-color="#38455a"/></linearGradient><linearGradient id="未命名的渐变_112-7" x1="77.7" y1="18.12" x2="82.57" y2="18.12" xlink:href="#未命名的渐变_112"/><linearGradient id="未命名的渐变_13-12" x1="77.7" y1="10.89" x2="82.57" y2="10.89" xlink:href="#未命名的渐变_13"/><linearGradient id="未命名的渐变_112-8" x1="76.89" y1="12.43" x2="83.39" y2="12.43" xlink:href="#未命名的渐变_112"/><linearGradient id="未命名的渐变_13-13" x1="76.89" y1="10.75" x2="83.39" y2="10.75" xlink:href="#未命名的渐变_13"/><linearGradient id="未命名的渐变_13-14" x1="66.56" y1="11.79" x2="93.71" y2="11.79" xlink:href="#未命名的渐变_13"/><linearGradient id="未命名的渐变_107-4" x1="76.11" y1="24.97" x2="78.48" y2="22.6" xlink:href="#未命名的渐变_107"/><linearGradient id="未命名的渐变_106-9" x1="83.99" y1="24.97" x2="81.62" y2="22.6" xlink:href="#未命名的渐变_106"/><linearGradient id="未命名的渐变_141" x1="69.42" y1="22.35" x2="93.43" y2="15.92" gradientUnits="userSpaceOnUse"><stop offset="0" stop-color="#38455a"/><stop offset="0.25" stop-color="#7a98cc"/><stop offset="0.35" stop-color="#7a98cc"/><stop offset="0.9" stop-color="#12161a"/><stop offset="1" stop-color="#283140"/></linearGradient><linearGradient id="未命名的渐变_119-3" x1="68.04" y1="7.92" x2="92.22" y2="7.92" xlink:href="#未命名的渐变_119"/><linearGradient id="未命名的渐变_112-9" x1="63.88" y1="15.3" x2="96.39" y2="15.3" xlink:href="#未命名的渐变_112"/><linearGradient id="未命名的渐变_13-15" x1="63.89" y1="9.41" x2="96.39" y2="9.41" xlink:href="#未命名的渐变_13"/></defs><title>污泥泵</title><g class="cls-3"><g id="图层_2" data-name="图层 2"><g id="图元"><g id="污泥泵"><g class="cls-4"><rect class="cls-5" width="150" height="150"/><rect id="网格" class="cls-6" width="150" height="150"/></g><g class="cls-3"><path class="cls-7" d="M88.83,135.6c-4.82-2.79-12.65-2.79-17.44,0-2.38,1.39-3.57,3.2-3.58,5v.92c0-1.82,1.2-3.64,3.58-5,4.79-2.79,12.62-2.78,17.44,0,2.43,1.4,3.64,3.25,3.64,5.09v-.92C92.47,138.84,91.26,137,88.83,135.6Z"/><path class="cls-8" d="M90.48,146.62c-5.67,3.29-14.91,3.29-20.61,0-2.87-1.66-4.31-3.84-4.3-6v.91c0,2.18,1.43,4.36,4.3,6,5.69,3.29,14.94,3.29,20.61,0,2.81-1.63,4.22-3.78,4.22-5.93v-.91C94.7,142.84,93.29,145,90.48,146.62Z"/><path class="cls-9" d="M90.41,134.68c-5.7-3.29-15-3.29-20.61,0s-5.64,8.65.07,11.94,14.94,3.29,20.61,0S96.11,138,90.41,134.68Zm-1.52,11c-4.79,2.78-12.62,2.79-17.44,0s-4.85-7.32-.06-10.11,12.62-2.78,17.44,0S93.68,142.91,88.89,145.7Z"/></g><g class="cls-3"><polygon class="cls-10" points="83.94 124.79 83.91 133.52 84.07 133.21 84.1 124.48 83.94 124.79"/><path class="cls-11" d="M76,124.48l.17.31a22.7,22.7,0,0,1,7.8,0l.16-.31A23.61,23.61,0,0,0,76,124.48Z"/><path class="cls-12" d="M76.14,124.79l0,8.73a22.22,22.22,0,0,1,7.8,0l0-8.73A22.7,22.7,0,0,0,76.14,124.79Z"/><polygon class="cls-13" points="75.97 124.48 75.94 133.21 76.11 133.52 76.14 124.79 75.97 124.48"/></g><g class="cls-3"><path class="cls-10" d="M66.87,140.77l2.27-11a4.83,4.83,0,0,1,.59-2.23l-2.28,11A4.78,4.78,0,0,0,66.87,140.77Z"/><path class="cls-11" d="M68.58,129.8l-2.27,11a5,5,0,0,0,.64,2.4l2.27-11A5,5,0,0,1,68.58,129.8Z"/><path class="cls-11" d="M69.73,127.58l-.54-.1a4.78,4.78,0,0,0,0,4.72l.53-.1A4.58,4.58,0,0,1,69.73,127.58Z"/><polygon class="cls-14" points="69.22 132.2 66.95 143.17 67.48 143.07 69.75 132.1 69.22 132.2"/></g><g class="cls-3"><path class="cls-11" d="M84,134.89a22.22,22.22,0,0,1-7.8,0l-.16.31a23.13,23.13,0,0,0,8.13,0Z"/><path class="cls-15" d="M76.06,135.2l0,13.21a23.61,23.61,0,0,0,8.13,0l0-13.21A23.13,23.13,0,0,1,76.06,135.2Z"/></g><g class="cls-3"><path class="cls-16" d="M92.86,139.07l.36,1.77A4.63,4.63,0,0,0,92.86,139.07Z"/><path class="cls-13" d="M91,129.88a4.84,4.84,0,0,0-.6-2.3l2.21,11a4.9,4.9,0,0,1,.24.52Z"/><path class="cls-10" d="M91.57,129.88a5,5,0,0,1-.6,2.32l2.21,11a5,5,0,0,0,.6-2.32Z"/><path class="cls-11" d="M91,127.48l-.54.1a4.66,4.66,0,0,1,0,4.52l.53.1A4.86,4.86,0,0,0,91,127.48Z"/><polygon class="cls-17" points="90.97 132.19 90.44 132.1 92.65 143.07 93.18 143.16 90.97 132.19"/></g><g class="cls-3"><path class="cls-18" d="M62.71,132.87a2.12,2.12,0,0,1-.88,1.95,2.18,2.18,0,0,1-2.17-.21,6.71,6.71,0,0,1-3-5.26,2.12,2.12,0,0,1,.88-1.95,2.16,2.16,0,0,1,2.16.21,5.1,5.1,0,0,1,1.12.88,7.33,7.33,0,0,1,1.71,2.94A5.23,5.23,0,0,1,62.71,132.87Z"/><path class="cls-19" d="M74.76,125.89a2.14,2.14,0,0,1-.89,2l-12,7a2.12,2.12,0,0,0,.88-1.95,5.23,5.23,0,0,0-.21-1.44,7.33,7.33,0,0,0-1.71-2.94,5.1,5.1,0,0,0-1.12-.88,2.16,2.16,0,0,0-2.16-.21l12.05-7a2.13,2.13,0,0,1,2.17.21A6.69,6.69,0,0,1,74.76,125.89Z"/></g><g class="cls-3"><path class="cls-18" d="M56.89,133.29a.9.9,0,0,1-.35-.37c-.2-.35-.2-.71,0-.83l-1,.59c-.2.11-.2.48,0,.82a1.1,1.1,0,0,0,.36.38.35.35,0,0,0,.35,0l1-.58A.37.37,0,0,1,56.89,133.29Z"/><path class="cls-18" d="M59.66,136.22a1.16,1.16,0,0,1-.5-.88.34.34,0,0,1,.15-.32l-1,.58a.36.36,0,0,0-.15.32,1.11,1.11,0,0,0,.51.88.34.34,0,0,0,.36,0l1-.58A.37.37,0,0,1,59.66,136.22Z"/><path class="cls-18" d="M55.75,129.44a1.1,1.1,0,0,1-.5-.87.37.37,0,0,1,.15-.33l-1,.59a.34.34,0,0,0-.15.32,1.11,1.11,0,0,0,.51.87.37.37,0,0,0,.36,0l1-.59A.34.34,0,0,1,55.75,129.44Z"/><path class="cls-18" d="M62.44,136.5a1.1,1.1,0,0,1-.36-.38c-.2-.34-.19-.71,0-.82l-1,.58c-.2.11-.2.48,0,.82a1,1,0,0,0,.36.38.34.34,0,0,0,.35,0l1-.58A.36.36,0,0,1,62.44,136.5Z"/><path class="cls-18" d="M56.91,126.92a1,1,0,0,1-.35-.38c-.2-.34-.2-.7,0-.82l-1,.59c-.2.11-.2.47,0,.81a1.09,1.09,0,0,0,.35.38.34.34,0,0,0,.36,0l1-.58A.36.36,0,0,1,56.91,126.92Z"/><path class="cls-20" d="M59.67,134.58a6.67,6.67,0,0,1-3-5.24,2.12,2.12,0,0,1,.89-2l-1,.59a2.14,2.14,0,0,0-.89,1.94,6.69,6.69,0,0,0,3,5.25,2.16,2.16,0,0,0,2.16.21l1-.59A2.14,2.14,0,0,1,59.67,134.58Z"/><path class="cls-18" d="M63.6,134a1.08,1.08,0,0,1-.5-.87.37.37,0,0,1,.14-.33l-1,.59a.34.34,0,0,0-.15.32,1.13,1.13,0,0,0,.5.87.37.37,0,0,0,.36,0l1-.59A.34.34,0,0,1,63.6,134Z"/><path class="cls-18" d="M59.69,127.2a1.13,1.13,0,0,1-.51-.88.37.37,0,0,1,.15-.32l-1,.58a.37.37,0,0,0-.15.33,1.1,1.1,0,0,0,.5.87.37.37,0,0,0,.36,0l1-.59A.37.37,0,0,1,59.69,127.2Z"/><path class="cls-18" d="M62.46,130.12a1,1,0,0,1-.36-.38c-.2-.34-.2-.7,0-.81l-1,.58c-.19.11-.19.48,0,.82a1.08,1.08,0,0,0,.35.38.36.36,0,0,0,.36,0l1-.59A.36.36,0,0,1,62.46,130.12Z"/><path class="cls-21" d="M59.69,125.27a3.58,3.58,0,0,0-3.6-.35l-1,.59a3.56,3.56,0,0,1,3.6.35,11.1,11.1,0,0,1,5,8.74,3.53,3.53,0,0,1-1.47,3.25l1-.59A3.54,3.54,0,0,0,64.74,134,11.13,11.13,0,0,0,59.69,125.27Z"/><path class="cls-22" d="M58.69,125.86c-2.8-1.62-5.07-.32-5.08,2.89a11.09,11.09,0,0,0,5,8.74c2.79,1.62,5.06.32,5.07-2.89A11.1,11.1,0,0,0,58.69,125.86Zm0,.76a1.13,1.13,0,0,1,.5.87c0,.32-.23.45-.51.29a1.1,1.1,0,0,1-.5-.87C58.18,126.59,58.41,126.46,58.69,126.62Zm-3.14-.32a.35.35,0,0,1,.36,0,.87.87,0,0,1,.35.38c.2.34.2.7,0,.81a.34.34,0,0,1-.36,0,1.09,1.09,0,0,1-.35-.38C55.35,126.78,55.35,126.41,55.55,126.3Zm-.8,3.72a1.11,1.11,0,0,1-.51-.87c0-.32.23-.45.51-.29a1.09,1.09,0,0,1,.5.87C55.25,130.05,55,130.18,54.75,130Zm1.49,3.89a.35.35,0,0,1-.35,0,1.1,1.1,0,0,1-.36-.38c-.2-.34-.2-.71,0-.82a.36.36,0,0,1,.36,0,1.1,1.1,0,0,1,.36.38C56.45,133.43,56.45,133.8,56.24,133.91Zm2.42,2.89a1.11,1.11,0,0,1-.51-.88c0-.32.23-.45.51-.29a1.11,1.11,0,0,1,.5.88C59.16,136.83,58.94,137,58.66,136.8Zm0-1.63a6.69,6.69,0,0,1-3-5.25c0-1.92,1.37-2.7,3-1.73a6.67,6.67,0,0,1,3,5.24C61.7,135.36,60.34,136.13,58.66,135.17Zm3.13,1.94a.34.34,0,0,1-.35,0,1,1,0,0,1-.36-.38c-.2-.34-.2-.71,0-.82a.35.35,0,0,1,.36,0,.9.9,0,0,1,.35.37C62,136.64,62,137,61.79,137.11Zm0-6.37a.36.36,0,0,1-.36,0,1.08,1.08,0,0,1-.35-.38c-.2-.35-.2-.71,0-.82a.36.36,0,0,1,.36,0,1,1,0,0,1,.35.38C62,130.26,62,130.63,61.81,130.74Zm.78,3.81a1.13,1.13,0,0,1-.5-.87c0-.32.23-.45.51-.29a1.15,1.15,0,0,1,.5.88C63.1,134.58,62.87,134.71,62.59,134.55Z"/></g><g class="cls-3"><path class="cls-23" d="M88,119c-4.38-2.54-11.48-2.54-15.83,0s-4.34,6.64,0,9.17,11.5,2.53,15.85,0S92.43,121.56,88,119Z"/><path class="cls-24" d="M94.7,127.72h0a9.56,9.56,0,0,0-1.41-5.06,9.8,9.8,0,0,0-1.59-2A12.2,12.2,0,0,0,89.36,119c-5.13-2.93-11.85-2.66-15.92-1.18a14.72,14.72,0,0,0-3,1.44,11.26,11.26,0,0,0-2.69,2.35,9.18,9.18,0,0,0-1.52,2.6,9.64,9.64,0,0,0-.65,3.48v1a9.58,9.58,0,0,0,2.63,6.65,13.9,13.9,0,0,0,7.18,3.85,21.5,21.5,0,0,0,9.6,0,16,16,0,0,0,3.66-1.31,12.58,12.58,0,0,0,3.4-2.46,9.29,9.29,0,0,0,1.9-2.89,9.47,9.47,0,0,0,.76-3.74v-1ZM72.21,119c4.35-2.54,11.45-2.54,15.83,0s4.42,6.64.06,9.17-11.46,2.54-15.85,0S67.85,121.56,72.21,119Z"/></g><path class="cls-25" d="M92.6,123.55v.91c0,1.81-1.24,3.62-3.62,5-4.85,2.82-12.74,2.82-17.63,0-2.45-1.42-3.68-3.28-3.68-5.13v-.92c0,1.86,1.23,3.71,3.68,5.13,4.89,2.82,12.78,2.82,17.63,0C91.36,127.16,92.57,125.36,92.6,123.55Z"/><path class="cls-26" d="M92.6,123.47v.17c0,1.81-1.24,3.61-3.62,5-4.85,2.82-12.74,2.83-17.63,0-2.45-1.41-3.68-3.27-3.68-5.13s1.21-3.67,3.63-5.08c4.85-2.82,12.74-2.82,17.62,0C91.34,119.82,92.57,121.64,92.6,123.47Z"/><g class="cls-3"><path class="cls-27" d="M86.08,114.44l-1.49.86,0,6.35,4.13-2.39A7.3,7.3,0,0,1,86.08,114.44Z"/><polygon class="cls-28" points="84.59 115.3 83.8 114.84 83.82 121.19 84.61 121.65 84.59 115.3"/><polygon class="cls-29" points="85.29 113.98 83.8 114.84 84.59 115.3 86.08 114.44 85.29 113.98"/></g><g class="cls-3"><path class="cls-30" d="M74.35,114.44a7.26,7.26,0,0,1-2.66,4.81l4.13,2.39,0-6.34Z"/><polygon class="cls-31" points="75.84 115.3 75.82 121.64 76.61 121.18 76.63 114.84 75.84 115.3"/><polygon class="cls-32" points="75.14 113.98 74.35 114.44 75.84 115.3 76.63 114.84 75.14 113.98"/></g><path class="cls-33" d="M85.83,117.28v6.45A2.85,2.85,0,0,1,84.17,126a8.84,8.84,0,0,1-8,0,2.84,2.84,0,0,1-1.68-2.34v-6.45a2.84,2.84,0,0,0,1.68,2.34,8.84,8.84,0,0,0,8,0A2.85,2.85,0,0,0,85.83,117.28Z"/><path class="cls-34" d="M85.83,117.25v.07a2.85,2.85,0,0,1-1.66,2.28,8.84,8.84,0,0,1-8,0,2.46,2.46,0,0,1,0-4.66,8.92,8.92,0,0,1,8.05,0A2.89,2.89,0,0,1,85.83,117.25Z"/><g class="cls-3"><path class="cls-35" d="M85.22,120.73l-1.48-.86,0,6.34,4.13,2.38A22.56,22.56,0,0,1,85.22,120.73Z"/><path class="cls-36" d="M86,120.27l-.79.46a22.56,22.56,0,0,0,2.63,7.86l.79-.46A22.56,22.56,0,0,1,86,120.27Z"/><polygon class="cls-37" points="84.53 119.41 83.74 119.87 85.22 120.73 86.01 120.27 84.53 119.41"/></g><g class="cls-3"><path class="cls-38" d="M76.6,119.87l-1.49.86a22.63,22.63,0,0,1-2.63,7.87l4.13-2.38Z"/><path class="cls-39" d="M74.32,120.27a22.63,22.63,0,0,1-2.63,7.87l.79.46a22.63,22.63,0,0,0,2.63-7.87Z"/><polygon class="cls-40" points="75.81 119.41 74.32 120.27 75.11 120.73 76.6 119.87 75.81 119.41"/></g><path class="cls-41" d="M87.94,117.89v2.43a3.91,3.91,0,0,1-2.27,3.12,12.12,12.12,0,0,1-11,0,3.89,3.89,0,0,1-2.3-3.2V117.8a3.9,3.9,0,0,0,2.3,3.21,12.12,12.12,0,0,0,11,0A3.91,3.91,0,0,0,87.94,117.89Z"/><g class="cls-42"><path class="cls-5" d="M87.94,118.84v.77a4.33,4.33,0,0,1-2.22,2.57,12.23,12.23,0,0,1-11.13,0,4.33,4.33,0,0,1-2.25-2.6v-.83h0a3.89,3.89,0,0,0,2.29,3.19,12.18,12.18,0,0,0,11,0,3.91,3.91,0,0,0,2.26-3.1Z"/></g><path class="cls-43" d="M87.94,117.84V118a3.91,3.91,0,0,1-2.27,3.12,12.15,12.15,0,0,1-11,0,3.92,3.92,0,0,1-2.3-3.21,3.87,3.87,0,0,1,2.26-3.18,12.18,12.18,0,0,1,11,0A4,4,0,0,1,87.94,117.84Z"/><path class="cls-44" d="M80.11,113.36v.1a11,11,0,0,1,5.47,1.31,3.88,3.88,0,0,1,2.26,3.07v.1a3.8,3.8,0,0,1-2.22,3,12.05,12.05,0,0,1-10.93,0,3.81,3.81,0,0,1-2.25-3.12,3.77,3.77,0,0,1,2.21-3.09,11,11,0,0,1,5.46-1.31v-.1m0,0a11.23,11.23,0,0,0-5.51,1.32,3.87,3.87,0,0,0-2.26,3.18,3.92,3.92,0,0,0,2.3,3.21,12.18,12.18,0,0,0,11,0A3.91,3.91,0,0,0,87.94,118v-.11a4,4,0,0,0-2.31-3.16,11.27,11.27,0,0,0-5.52-1.32Z"/><path class="cls-45" d="M85.83,24.47v93.27A2.86,2.86,0,0,1,84.17,120a8.9,8.9,0,0,1-8,0,2.86,2.86,0,0,1-1.68-2.34V24.41a2.85,2.85,0,0,0,1.68,2.34,8.84,8.84,0,0,0,8,0A2.85,2.85,0,0,0,85.83,24.47Z"/><path class="cls-46" d="M85.83,24.44v.07a2.85,2.85,0,0,1-1.66,2.28,8.84,8.84,0,0,1-8,0,2.84,2.84,0,0,1-1.68-2.34,2.82,2.82,0,0,1,1.65-2.32,8.92,8.92,0,0,1,8.05,0A2.89,2.89,0,0,1,85.83,24.44Z"/><path class="cls-47" d="M87.94,23.87V26.3a3.93,3.93,0,0,1-2.27,3.13,12.18,12.18,0,0,1-11,0,3.92,3.92,0,0,1-2.3-3.21V23.79A3.92,3.92,0,0,0,74.64,27a12.18,12.18,0,0,0,11,0A3.91,3.91,0,0,0,87.94,23.87Z"/><g class="cls-42"><path class="cls-5" d="M87.94,24.82v.77a4.37,4.37,0,0,1-2.22,2.58,12.31,12.31,0,0,1-11.13,0,4.37,4.37,0,0,1-2.25-2.61v-.82h0a3.87,3.87,0,0,0,2.29,3.18,12.18,12.18,0,0,0,11,0,3.9,3.9,0,0,0,2.26-3.1Z"/></g><path class="cls-48" d="M87.94,23.82v.11a3.91,3.91,0,0,1-2.27,3.12,12.12,12.12,0,0,1-11,0,3.9,3.9,0,0,1-2.3-3.21,3.88,3.88,0,0,1,2.26-3.18,12.15,12.15,0,0,1,11,0A3.94,3.94,0,0,1,87.94,23.82Z"/><g class="cls-49"><path class="cls-5" d="M86.85,23.78v.09a3.38,3.38,0,0,1-1.95,2.72,10.37,10.37,0,0,1-9.5,0,3.39,3.39,0,0,1-2-2.79,3.36,3.36,0,0,1,2-2.77,10.34,10.34,0,0,1,9.5,0A3.4,3.4,0,0,1,86.85,23.78Z"/></g><path class="cls-50" d="M80.11,19.34v.1a11.15,11.15,0,0,1,5.47,1.31,3.88,3.88,0,0,1,2.26,3.07v.11a3.83,3.83,0,0,1-2.22,3,12.05,12.05,0,0,1-10.93,0,3.82,3.82,0,0,1-2.25-3.13,3.77,3.77,0,0,1,2.21-3.09,11.13,11.13,0,0,1,5.46-1.31v-.1m0,0a11.23,11.23,0,0,0-5.51,1.32,3.88,3.88,0,0,0-2.26,3.18,3.9,3.9,0,0,0,2.3,3.21,12.1,12.1,0,0,0,11,0,3.91,3.91,0,0,0,2.27-3.12v-.11a3.94,3.94,0,0,0-2.31-3.15,11.16,11.16,0,0,0-5.52-1.33Z"/><g class="cls-3"><path class="cls-51" d="M89.46,6.56c-5-3-13.24-3.08-18.38-.19-3.7,2.08-4.8,5.12-3.27,7.78l6.12,10.67c-.76-1.33-.21-2.85,1.64-3.89a10.13,10.13,0,0,1,9.19.1c1.76,1,2.26,2.53,1.5,3.83l6.19-10.64C94,11.63,93,8.66,89.46,6.56Z"/><path class="cls-52" d="M82.57,10.89V24a1.2,1.2,0,0,1-.7,1,3.81,3.81,0,0,1-3.45,0,1.22,1.22,0,0,1-.72-1V10.87a1.22,1.22,0,0,0,.72,1,3.81,3.81,0,0,0,3.45,0A1.2,1.2,0,0,0,82.57,10.89Z"/><g class="cls-53"><path class="cls-5" d="M82.57,10.89V24a1.2,1.2,0,0,1-.7,1,3.81,3.81,0,0,1-3.45,0,1.22,1.22,0,0,1-.72-1V10.87a1.22,1.22,0,0,0,.72,1,3.81,3.81,0,0,0,3.45,0A1.2,1.2,0,0,0,82.57,10.89Z"/></g><path class="cls-54" d="M82.57,10.88v0a1.21,1.21,0,0,1-.7,1,3.81,3.81,0,0,1-3.45,0,1.23,1.23,0,0,1-.72-1,1.19,1.19,0,0,1,.71-1,3.81,3.81,0,0,1,3.45,0A1.21,1.21,0,0,1,82.57,10.88Z"/><path class="cls-55" d="M83.39,10.76v1.52a1.63,1.63,0,0,1-1,1.3,5,5,0,0,1-4.59,0,1.62,1.62,0,0,1-1-1.33V10.72a1.62,1.62,0,0,0,1,1.34,5,5,0,0,0,4.59,0A1.63,1.63,0,0,0,83.39,10.76Z"/><g class="cls-53"><path class="cls-5" d="M83.39,10.76v1.52a1.63,1.63,0,0,1-1,1.3,5,5,0,0,1-4.59,0,1.62,1.62,0,0,1-1-1.33V10.72a1.62,1.62,0,0,0,1,1.34,5,5,0,0,0,4.59,0A1.63,1.63,0,0,0,83.39,10.76Z"/></g><path class="cls-56" d="M83.39,10.74v0a1.63,1.63,0,0,1-1,1.3,5,5,0,0,1-4.59,0,1.62,1.62,0,0,1-1-1.33,1.62,1.62,0,0,1,.94-1.33,5.1,5.1,0,0,1,4.6,0A1.65,1.65,0,0,1,83.39,10.74Z"/><path class="cls-57" d="M89.87,6.33c-5.23-3.13-13.82-3.21-19.2-.2s-5.49,8-.27,11.12,13.82,3.21,19.2.19S95.1,9.45,89.87,6.33ZM89.2,17.2C84.05,20.09,75.82,20,70.82,17s-4.89-7.76.26-10.65,13.37-2.8,18.38.19S94.34,14.32,89.2,17.2Z"/><polygon class="cls-58" points="75.89 20.01 75.53 19.98 78.8 27.66 79.15 27.49 75.89 20.01"/><polygon class="cls-59" points="84.21 20.01 84.57 19.98 81.3 27.66 80.94 27.49 84.21 20.01"/><path class="cls-60" d="M93,14.33,86.8,25A4.49,4.49,0,0,1,85,26.59a9.71,9.71,0,0,1-3.75,1.09l3.25-7.63a23.3,23.3,0,0,1-9-.07l3.27,7.68A9.48,9.48,0,0,1,75,26.49a4.59,4.59,0,0,1-1.64-1.56L67.26,14.26a8.57,8.57,0,0,0,3.14,3c5.23,3.12,13.83,3.21,19.2.19A8.81,8.81,0,0,0,93,14.33Z"/></g><g class="cls-3"><path class="cls-61" d="M88.8,4.55c-4.65-2.78-12.3-2.86-17.08-.17-2.44,1.36-3.66,3.18-3.66,5l0,4c0-1.82,1.23-3.63,3.67-5,4.78-2.68,12.43-2.61,17.08.17,2.29,1.37,3.43,3.14,3.42,4.9v-4C92.23,7.69,91.09,5.92,88.8,4.55Z"/><path class="cls-62" d="M96.39,9.46v2.39a2.83,2.83,0,0,1,0,.41h0a3.24,3.24,0,0,1-.11.75c-.44,2-2,4-4.79,5.56-6.43,3.61-16.72,3.5-23-.23-2.56-1.53-4-3.43-4.47-5.4a4.63,4.63,0,0,1-.11-.81,2.48,2.48,0,0,1,0-.38V9.38c0,2.37,1.53,4.74,4.6,6.58,6.25,3.73,16.54,3.84,23,.22C94.74,14.35,96.38,11.91,96.39,9.46Z"/><g class="cls-63"><path class="cls-5" d="M96.36,12.27a3.24,3.24,0,0,1-.11.75,10.34,10.34,0,0,1-4.45,4.33,24.29,24.29,0,0,1-11.61,2.71,24,24,0,0,1-12-2.95A10.32,10.32,0,0,1,64,13a4.63,4.63,0,0,1-.11-.81,9.39,9.39,0,0,0,4.34,4.79c6.38,3.81,16.89,3.92,23.45.24A9.65,9.65,0,0,0,96.36,12.27Z"/></g><path class="cls-64" d="M91.79,2.87C85.54-.87,75.25-1,68.81,2.64S62.23,12.21,68.48,16s16.55,3.85,23,.23S98.05,6.61,91.79,2.87ZM88.56,14.45c-4.78,2.68-12.43,2.61-17.09-.17s-4.54-7.22.25-9.9,12.43-2.61,17.08.17S93.35,11.76,88.56,14.45Z"/></g></g></g></g></g></svg>