<svg xmlns="http://www.w3.org/2000/svg" xmlns:xlink="http://www.w3.org/1999/xlink" viewBox="0 0 150 150"><defs><style>.cls-1,.cls-2{fill:none;}.cls-2{stroke:#fff;stroke-miterlimit:10;stroke-width:0.1px;}.cls-3{opacity:0;}.cls-4{fill:#000714;}.cls-5{opacity:0.1;fill:url(#新建图案);}.cls-6{isolation:isolate;}.cls-7{fill:url(#未命名的渐变_2040);}.cls-8{fill:url(#未命名的渐变_2040-2);}.cls-9{fill:url(#未命名的渐变_2040-3);}.cls-10{fill:url(#未命名的渐变_9);}.cls-11{fill:url(#未命名的渐变_12);}.cls-12{fill:url(#未命名的渐变_2040-4);}.cls-13{fill:url(#未命名的渐变_9-2);}.cls-14{fill:url(#未命名的渐变_12-2);}.cls-15{fill:url(#未命名的渐变_2);}.cls-16{fill:url(#未命名的渐变_102);}.cls-17{fill:url(#未命名的渐变_102-2);}.cls-18{fill:url(#未命名的渐变_34);}.cls-19{fill:#e60049;}.cls-20{fill:#ffd8bd;}.cls-21{fill:url(#未命名的渐变_19);}.cls-22{fill:url(#未命名的渐变_54);}.cls-23{fill:url(#未命名的渐变_2040-5);}.cls-24{fill:url(#未命名的渐变_19-2);}.cls-25{fill:url(#未命名的渐变_102-3);}.cls-26{fill:url(#未命名的渐变_102-4);}.cls-27{fill:#fff;mix-blend-mode:soft-light;}.cls-28{opacity:0.2;}</style><pattern id="新建图案" data-name="新建图案" width="18.57" height="32.16" patternTransform="translate(2085.19 1170.92)" patternUnits="userSpaceOnUse" viewBox="0 0 18.57 32.16"><rect class="cls-1" width="18.57" height="32.16"/><polyline class="cls-2" points="18.57 21.44 18.57 32.16 18.57 42.88"/><polyline class="cls-2" points="9.29 26.8 18.57 32.16 27.85 37.51 27.85 37.52"/><polyline class="cls-2" points="9.29 37.52 9.29 37.51 18.57 32.16 27.85 26.8"/><polygon class="cls-2" points="27.85 37.52 27.85 26.8 18.57 21.44 9.28 26.8 9.28 37.52 18.57 42.88 27.85 37.52"/><polyline class="cls-2" points="0 21.44 0 32.16 0 42.88"/><polyline class="cls-2" points="-9.28 26.8 0 32.16 9.28 37.51 9.28 37.52"/><polyline class="cls-2" points="-9.28 37.52 -9.28 37.51 0 32.16 9.28 26.8"/><polygon class="cls-2" points="9.28 37.52 9.28 26.8 0 21.44 -9.29 26.8 -9.29 37.52 0 42.88 9.28 37.52"/><polyline class="cls-2" points="18.57 10.72 27.85 16.08 37.13 21.43 37.13 21.44"/><polyline class="cls-2" points="18.57 21.44 18.57 21.43 27.85 16.08 37.13 10.72"/><polygon class="cls-2" points="37.14 21.44 37.14 10.72 27.85 5.36 18.57 10.72 18.57 21.44 27.85 26.8 37.14 21.44"/><polyline class="cls-2" points="9.29 5.36 9.29 16.08 9.29 26.8"/><polyline class="cls-2" points="0.01 10.72 9.29 16.08 18.57 21.43 18.57 21.44"/><polyline class="cls-2" points="0.01 21.44 0.01 21.43 9.29 16.08 18.57 10.72"/><polygon class="cls-2" points="18.57 21.44 18.57 10.72 9.28 5.36 0 10.72 0 21.44 9.28 26.8 18.57 21.44"/><polyline class="cls-2" points="-18.56 10.72 -9.28 16.08 0 21.43 0 21.44"/><polyline class="cls-2" points="-18.56 21.44 -18.56 21.43 -9.28 16.08 0 10.72"/><polygon class="cls-2" points="0 21.44 0 10.72 -9.29 5.36 -18.57 10.72 -18.57 21.44 -9.29 26.8 0 21.44"/><polyline class="cls-2" points="18.57 -10.72 18.57 0 18.57 10.72"/><polyline class="cls-2" points="9.29 -5.36 18.57 0 27.85 5.35 27.85 5.36"/><polyline class="cls-2" points="9.29 5.36 9.29 5.35 18.57 0 27.85 -5.36"/><polygon class="cls-2" points="27.85 5.36 27.85 -5.36 18.57 -10.72 9.28 -5.36 9.28 5.36 18.57 10.72 27.85 5.36"/><polyline class="cls-2" points="0 -10.72 0 0 0 10.72"/><polyline class="cls-2" points="-9.28 -5.36 0 0 9.28 5.35 9.28 5.36"/><polyline class="cls-2" points="-9.28 5.36 -9.28 5.35 0 0 9.28 -5.36"/><polygon class="cls-2" points="9.28 5.36 9.28 -5.36 0 -10.72 -9.29 -5.36 -9.29 5.36 0 10.72 9.28 5.36"/></pattern><linearGradient id="未命名的渐变_2040" x1="3.36" y1="55.37" x2="56.92" y2="55.37" gradientUnits="userSpaceOnUse"><stop offset="0" stop-color="#283140"/><stop offset="0.34" stop-color="#232b37"/><stop offset="0.9" stop-color="#15191f"/><stop offset="1" stop-color="#12161a"/></linearGradient><linearGradient id="未命名的渐变_2040-2" x1="73.75" y1="96.02" x2="127.3" y2="96.02" xlink:href="#未命名的渐变_2040"/><linearGradient id="未命名的渐变_2040-3" x1="371.73" y1="117.35" x2="392.27" y2="117.35" gradientTransform="matrix(-1, 0, 0, 1, 467.17, 0)" xlink:href="#未命名的渐变_2040"/><linearGradient id="未命名的渐变_9" x1="79.41" y1="117.35" x2="90.92" y2="117.35" gradientUnits="userSpaceOnUse"><stop offset="0" stop-color="#283140"/><stop offset="0.5" stop-color="#7a98cc"/><stop offset="1" stop-color="#12161a"/></linearGradient><linearGradient id="未命名的渐变_12" x1="366.77" y1="125.27" x2="381.26" y2="100.18" gradientTransform="matrix(-1, 0, 0, 1, 467.17, 0)" gradientUnits="userSpaceOnUse"><stop offset="0" stop-color="#455672"/><stop offset="0.5" stop-color="#12161a"/><stop offset="0.75" stop-color="#171c23"/><stop offset="1" stop-color="#283140"/></linearGradient><linearGradient id="未命名的渐变_2040-4" x1="441.99" y1="76.56" x2="462.65" y2="76.56" gradientTransform="matrix(-1, 0, 0, 1, 467.17, 0)" xlink:href="#未命名的渐变_2040"/><linearGradient id="未命名的渐变_9-2" x1="9.05" y1="76.56" x2="20.64" y2="76.56" xlink:href="#未命名的渐变_9"/><linearGradient id="未命名的渐变_12-2" x1="436.99" y1="84.53" x2="451.57" y2="59.28" xlink:href="#未命名的渐变_12"/><linearGradient id="未命名的渐变_2" x1="0.06" y1="63.63" x2="144.55" y2="63.63" gradientUnits="userSpaceOnUse"><stop offset="0" stop-color="#f9fbff"/><stop offset="1" stop-color="#e4e9f0"/></linearGradient><linearGradient id="未命名的渐变_102" x1="9.38" y1="34.62" x2="63.34" y2="34.62" gradientUnits="userSpaceOnUse"><stop offset="0" stop-color="#1d242d"/><stop offset="1" stop-color="#596b8c"/></linearGradient><linearGradient id="未命名的渐变_102-2" x1="59.21" y1="66.39" x2="125.34" y2="66.39" xlink:href="#未命名的渐变_102"/><linearGradient id="未命名的渐变_34" x1="101.13" y1="132.92" x2="148.4" y2="85.66" gradientUnits="userSpaceOnUse"><stop offset="0" stop-color="#a1aebf"/><stop offset="1" stop-color="#7e8aa6"/></linearGradient><linearGradient id="未命名的渐变_19" x1="94.13" y1="97.92" x2="150" y2="97.92" gradientUnits="userSpaceOnUse"><stop offset="0" stop-color="#b3becc"/><stop offset="1" stop-color="#d3dae6"/></linearGradient><linearGradient id="未命名的渐变_54" x1="94.26" y1="136.59" x2="4.41" y2="46.75" gradientUnits="userSpaceOnUse"><stop offset="0" stop-color="#425266"/><stop offset="1" stop-color="#596b8c"/></linearGradient><linearGradient id="未命名的渐变_2040-5" x1="25.18" y1="93.51" x2="71.93" y2="93.51" xlink:href="#未命名的渐变_2040"/><linearGradient id="未命名的渐变_19-2" x1="0" y1="89.86" x2="99.57" y2="89.86" xlink:href="#未命名的渐变_19"/><linearGradient id="未命名的渐变_102-3" x1="36.19" y1="72.87" x2="10.72" y2="47.41" xlink:href="#未命名的渐变_102"/><linearGradient id="未命名的渐变_102-4" x1="70.84" y1="96.68" x2="39.58" y2="65.42" xlink:href="#未命名的渐变_102"/></defs><title>汽车1</title><g id="图层_2" data-name="图层 2"><g id="图元"><g id="汽车1"><g class="cls-3"><rect class="cls-4" width="150" height="150"/><rect id="网格" class="cls-5" width="150" height="150"/></g><g class="cls-6"><path class="cls-7" d="M56.92,34.39,6.49,63.69c-1.93,1.12-3.12,3.5-3.13,6.88a18.76,18.76,0,0,0,1,5.79L54.77,47.05a18.41,18.41,0,0,1-1-5.78C53.8,37.89,55,35.51,56.92,34.39Z"/><path class="cls-8" d="M127.3,75,76.87,104.33c-1.92,1.12-3.11,3.5-3.12,6.88a18.34,18.34,0,0,0,1,5.8L125.18,87.7a18.58,18.58,0,0,1-1-5.79C124.18,78.52,125.38,76.14,127.3,75Z"/><path class="cls-9" d="M85.2,105.56c5.67,3.27,10.25,11.21,10.23,17.72s-4.63,9.14-10.29,5.87S74.88,117.94,74.9,111.43,79.53,102.28,85.2,105.56Z"/><path class="cls-10" d="M87.31,124.49a5.29,5.29,0,0,1-2.64-.79,11.44,11.44,0,0,1-5.26-9.12A3.86,3.86,0,0,1,85.66,111h0a11.41,11.41,0,0,1,5.26,9.12A4.25,4.25,0,0,1,89,124,3.46,3.46,0,0,1,87.31,124.49ZM83,112.15a1.49,1.49,0,0,0-.77.19,2.49,2.49,0,0,0-.93,2.25,9.62,9.62,0,0,0,4.3,7.44,2.54,2.54,0,0,0,2.45.34,2.51,2.51,0,0,0,.92-2.25,9.62,9.62,0,0,0-4.3-7.44h0A3.44,3.44,0,0,0,83,112.15Z"/><path class="cls-11" d="M86.64,99.76c1.87-1.08,4.45-.93,7.3.72,5.67,3.27,10.25,11.21,10.23,17.72,0,3.24-1.15,5.52-3,6.59l-8.74,5.08c1.84-1.07,3-3.35,3-6.59,0-6.51-4.56-14.45-10.23-17.72-2.85-1.65-5.44-1.8-7.3-.72Z"/><path class="cls-12" d="M14.89,64.69C20.59,68,25.2,76,25.18,82.52s-4.66,9.2-10.36,5.91S4.5,77.15,4.52,70.59,9.18,61.39,14.89,64.69Z"/><path class="cls-13" d="M17,83.74a5.37,5.37,0,0,1-2.65-.8,11.52,11.52,0,0,1-5.3-9.17A4.28,4.28,0,0,1,11,69.83a4.3,4.3,0,0,1,4.39.34h0a11.51,11.51,0,0,1,5.29,9.18,4.27,4.27,0,0,1-1.9,3.93A3.35,3.35,0,0,1,17,83.74ZM12.7,71.32a1.53,1.53,0,0,0-.78.19A2.5,2.5,0,0,0,11,73.77a9.69,9.69,0,0,0,4.33,7.49,2.56,2.56,0,0,0,2.46.34,2.53,2.53,0,0,0,.93-2.26,9.7,9.7,0,0,0-4.33-7.49h0A3.5,3.5,0,0,0,12.7,71.32Z"/><path class="cls-14" d="M16.33,58.85c1.88-1.09,4.48-.93,7.35.72C29.39,62.87,34,70.85,34,77.41,34,80.67,32.82,83,31,84l-8.79,5.12c1.85-1.08,3-3.37,3-6.63C25.2,76,20.59,68,14.89,64.69,12,63,9.41,62.87,7.53,64Z"/><path class="cls-15" d="M126.58,63.43,107,39.68a24,24,0,0,0-6.5-5.49L76.38,20.29a12,12,0,0,0-7.95-1.45L50.49,21.79.06,51.1l14.6-2.4a21.45,21.45,0,0,1,14.22,2.59l18.19,10.5a43,43,0,0,1,11.62,9.82L77.48,94.33l16.65,14.24,50.42-29.3-15.07-12.9A23.69,23.69,0,0,1,126.58,63.43Z"/><polygon class="cls-16" points="51.11 23.5 63.34 21.49 21.62 45.74 9.38 47.75 51.11 23.5"/><polygon class="cls-17" points="80.04 91.81 59.21 66.63 103.37 40.97 125.34 67.55 80.04 91.81"/><polygon class="cls-18" points="99.57 116.57 99.53 131.32 149.96 102.01 150 87.26 99.57 116.57"/><polygon class="cls-19" points="102.23 119.66 115.96 111.65 113.67 118.47 102.22 125.14 102.23 119.66"/><polygon class="cls-20" points="103.23 120.23 114.16 113.86 112.84 117.8 103.22 123.4 103.23 120.23"/><polygon class="cls-19" points="147.63 93.28 147.61 98.76 139.93 103.21 134.49 100.89 147.63 93.28"/><polygon class="cls-20" points="136.72 100.76 146.62 95.02 146.61 98.18 139.86 102.09 136.72 100.76"/><polygon class="cls-21" points="144.56 79.27 94.13 108.57 99.57 116.57 150 87.26 144.56 79.27"/><path class="cls-22" d="M94.13,108.57l-2.56-2.19A214.81,214.81,0,0,1,65.66,80.05l-7-8.44a43,43,0,0,0-11.62-9.82L28.88,51.29A21.45,21.45,0,0,0,14.66,48.7L.06,51.1,0,70.85l4.34,5.51a18.76,18.76,0,0,1-1-5.79c0-8,6.6-10.36,13.85-3.85a23.22,23.22,0,0,1,7.13,12.33c.79,3.67.48,6.54-.59,8.52l2.73,1.57,9,.32,25.33,14.63L71,114.82,74.75,117a18.34,18.34,0,0,1-1-5.8c0-6.81,4.83-9.55,10.75-6.13s10.7,11.7,10.68,18.51a9.64,9.64,0,0,1-1,4.63l5.37,3.1,0-14.75Z"/><polygon class="cls-23" points="71.93 115.35 25.18 88.36 25.18 71.66 71.93 98.66 71.93 115.35"/><path class="cls-24" d="M94.13,108.57l-2.56-2.19A214.81,214.81,0,0,1,65.66,80.05l-7-8.44a43,43,0,0,0-11.62-9.82L28.88,51.29A21.45,21.45,0,0,0,14.66,48.7L.06,51.1,0,70.85l4.34,5.51a18.76,18.76,0,0,1-1-5.79c0-8,6.6-10.36,13.85-3.85a23.22,23.22,0,0,1,7.13,12.33c.79,3.67.48,6.54-.59,8.52l2.73,1.57,9,.32,25.33,14.63L71,114.82,74.75,117a18.34,18.34,0,0,1-1-5.8c0-6.81,4.83-9.55,10.75-6.13s10.7,11.7,10.68,18.51a9.64,9.64,0,0,1-1,4.63l5.37,3.1,0-14.75Z"/><path class="cls-25" d="M27.09,54.39l9.27,5.35v13L4.07,54.07l11.18-1.85a17.54,17.54,0,0,1,2.9-.23A17.8,17.8,0,0,1,27.09,54.39Z"/><path class="cls-26" d="M64,83.65c-.4-.43-.75-.88-1.13-1.32l-7-8.45a39.16,39.16,0,0,0-10.64-9L42,63V76l22,12.7,9.39,5.42Q68.52,89,64,83.65Z"/><polygon class="cls-27" points="45.82 82.63 42.01 80.42 42.01 79.06 45.82 81.26 45.82 82.63"/><polygon class="cls-27" points="36.36 77.49 32.55 75.29 32.55 73.93 36.36 76.13 36.36 77.49"/></g></g></g></g></svg>