<svg xmlns="http://www.w3.org/2000/svg" xmlns:xlink="http://www.w3.org/1999/xlink" viewBox="0 0 150 150"><defs><style>.cls-1,.cls-2{fill:none;}.cls-2{stroke:#fff;stroke-width:0.1px;}.cls-2,.cls-33,.cls-35{stroke-miterlimit:10;}.cls-3{opacity:0;}.cls-4{fill:#000714;}.cls-5{opacity:0.1;fill:url(#新建图案);}.cls-6{isolation:isolate;}.cls-7{fill:url(#未命名的渐变_2040);}.cls-8{fill:url(#未命名的渐变_2040-2);}.cls-9{fill:url(#未命名的渐变_2040-3);}.cls-10{fill:url(#未命名的渐变_9);}.cls-11{fill:url(#未命名的渐变_12);}.cls-12{fill:url(#未命名的渐变_2040-4);}.cls-13{fill:url(#未命名的渐变_9-2);}.cls-14{fill:url(#未命名的渐变_12-2);}.cls-15{fill:url(#未命名的渐变_163);}.cls-16{fill:url(#未命名的渐变_163-2);}.cls-17{fill:url(#未命名的渐变_2);}.cls-18{fill:url(#未命名的渐变_102);}.cls-19{fill:url(#未命名的渐变_102-2);}.cls-20{fill:url(#未命名的渐变_34);}.cls-21{fill:#e60049;}.cls-22{fill:#ffd8bd;}.cls-23{fill:url(#未命名的渐变_19);}.cls-24{fill:url(#未命名的渐变_54);}.cls-25{fill:url(#未命名的渐变_2040-5);}.cls-26{fill:url(#未命名的渐变_19-2);}.cls-27{fill:url(#未命名的渐变_102-3);}.cls-28{fill:url(#未命名的渐变_102-4);}.cls-29{fill:#fff;}.cls-29,.cls-72{mix-blend-mode:soft-light;}.cls-30{fill:url(#未命名的渐变_163-3);}.cls-31{fill:url(#未命名的渐变_163-4);}.cls-32{fill:url(#未命名的渐变_169);}.cls-33,.cls-35{opacity:0.41;}.cls-33{fill:url(#未命名的渐变_167);stroke:url(#未命名的渐变_167-2);}.cls-34{fill:url(#未命名的渐变_169-2);}.cls-35{fill:url(#未命名的渐变_167-3);stroke:url(#未命名的渐变_168);}.cls-36{opacity:0.36;}.cls-37{fill:url(#未命名的渐变_163-5);}.cls-38{fill:url(#未命名的渐变_163-7);}.cls-39{fill:url(#未命名的渐变_163-8);}.cls-40{fill:url(#未命名的渐变_163-9);}.cls-41{fill:url(#未命名的渐变_163-10);}.cls-42{fill:url(#未命名的渐变_163-11);}.cls-43{fill:url(#未命名的渐变_163-12);}.cls-44{fill:url(#未命名的渐变_163-13);}.cls-45{fill:url(#未命名的渐变_163-14);}.cls-46{fill:url(#未命名的渐变_163-15);}.cls-47{fill:url(#未命名的渐变_163-16);}.cls-48{fill:url(#未命名的渐变_163-17);}.cls-49{fill:url(#未命名的渐变_163-19);}.cls-50{fill:url(#未命名的渐变_163-20);}.cls-51{fill:url(#未命名的渐变_163-21);}.cls-52{fill:url(#未命名的渐变_163-23);}.cls-53{fill:url(#未命名的渐变_163-24);}.cls-54{fill:url(#未命名的渐变_163-25);}.cls-55{fill:url(#未命名的渐变_163-26);}.cls-56{fill:url(#未命名的渐变_163-27);}.cls-57{fill:url(#未命名的渐变_163-28);}.cls-58{fill:url(#未命名的渐变_163-29);}.cls-59{fill:url(#未命名的渐变_163-31);}.cls-60{fill:url(#未命名的渐变_163-33);}.cls-61{fill:url(#未命名的渐变_163-35);}.cls-62{fill:url(#未命名的渐变_163-36);}.cls-63{fill:url(#未命名的渐变_163-37);}.cls-64{fill:url(#未命名的渐变_163-38);}.cls-65{fill:url(#未命名的渐变_163-39);}.cls-66{fill:url(#未命名的渐变_163-40);}.cls-67{fill:url(#未命名的渐变_163-41);}.cls-68{fill:url(#未命名的渐变_163-45);}.cls-69{fill:url(#未命名的渐变_163-46);}.cls-70{fill:url(#未命名的渐变_163-47);}.cls-71{fill:url(#未命名的渐变_163-48);}.cls-73{fill:url(#未命名的渐变_163-49);}.cls-74{fill:url(#未命名的渐变_163-51);}.cls-75{opacity:0.2;}</style><pattern id="新建图案" data-name="新建图案" width="18.57" height="32.16" patternTransform="translate(2010.92 1351.82)" patternUnits="userSpaceOnUse" viewBox="0 0 18.57 32.16"><rect class="cls-1" width="18.57" height="32.16"/><polyline class="cls-2" points="18.57 21.44 18.57 32.16 18.57 42.88"/><polyline class="cls-2" points="9.29 26.8 18.57 32.16 27.85 37.51 27.85 37.52"/><polyline class="cls-2" points="9.29 37.52 9.29 37.51 18.57 32.16 27.85 26.8"/><polygon class="cls-2" points="27.85 37.52 27.85 26.8 18.57 21.44 9.28 26.8 9.28 37.52 18.57 42.88 27.85 37.52"/><polyline class="cls-2" points="0 21.44 0 32.16 0 42.88"/><polyline class="cls-2" points="-9.28 26.8 0 32.16 9.28 37.51 9.28 37.52"/><polyline class="cls-2" points="-9.28 37.52 -9.28 37.51 0 32.16 9.28 26.8"/><polygon class="cls-2" points="9.28 37.52 9.28 26.8 0 21.44 -9.29 26.8 -9.29 37.52 0 42.88 9.28 37.52"/><polyline class="cls-2" points="18.57 10.72 27.85 16.08 37.13 21.43 37.13 21.44"/><polyline class="cls-2" points="18.57 21.44 18.57 21.43 27.85 16.08 37.13 10.72"/><polygon class="cls-2" points="37.14 21.44 37.14 10.72 27.85 5.36 18.57 10.72 18.57 21.44 27.85 26.8 37.14 21.44"/><polyline class="cls-2" points="9.29 5.36 9.29 16.08 9.29 26.8"/><polyline class="cls-2" points="0.01 10.72 9.29 16.08 18.57 21.43 18.57 21.44"/><polyline class="cls-2" points="0.01 21.44 0.01 21.43 9.29 16.08 18.57 10.72"/><polygon class="cls-2" points="18.57 21.44 18.57 10.72 9.28 5.36 0 10.72 0 21.44 9.28 26.8 18.57 21.44"/><polyline class="cls-2" points="-18.56 10.72 -9.28 16.08 0 21.43 0 21.44"/><polyline class="cls-2" points="-18.56 21.44 -18.56 21.43 -9.28 16.08 0 10.72"/><polygon class="cls-2" points="0 21.44 0 10.72 -9.29 5.36 -18.57 10.72 -18.57 21.44 -9.29 26.8 0 21.44"/><polyline class="cls-2" points="18.57 -10.72 18.57 0 18.57 10.72"/><polyline class="cls-2" points="9.29 -5.36 18.57 0 27.85 5.35 27.85 5.36"/><polyline class="cls-2" points="9.29 5.36 9.29 5.35 18.57 0 27.85 -5.36"/><polygon class="cls-2" points="27.85 5.36 27.85 -5.36 18.57 -10.72 9.28 -5.36 9.28 5.36 18.57 10.72 27.85 5.36"/><polyline class="cls-2" points="0 -10.72 0 0 0 10.72"/><polyline class="cls-2" points="-9.28 -5.36 0 0 9.28 5.35 9.28 5.36"/><polyline class="cls-2" points="-9.28 5.36 -9.28 5.35 0 0 9.28 -5.36"/><polygon class="cls-2" points="9.28 5.36 9.28 -5.36 0 -10.72 -9.29 -5.36 -9.29 5.36 0 10.72 9.28 5.36"/></pattern><linearGradient id="未命名的渐变_2040" x1="50.81" y1="74.56" x2="87.04" y2="74.56" gradientUnits="userSpaceOnUse"><stop offset="0" stop-color="#283140"/><stop offset="0.34" stop-color="#232b37"/><stop offset="0.9" stop-color="#15191f"/><stop offset="1" stop-color="#12161a"/></linearGradient><linearGradient id="未命名的渐变_2040-2" x1="98.42" y1="102.05" x2="134.65" y2="102.05" xlink:href="#未命名的渐变_2040"/><linearGradient id="未命名的渐变_2040-3" x1="354.08" y1="116.49" x2="367.96" y2="116.49" gradientTransform="matrix(-1, 0, 0, 1, 467.17, 0)" xlink:href="#未命名的渐变_2040"/><linearGradient id="未命名的渐变_9" x1="102.25" y1="116.49" x2="110.04" y2="116.49" gradientUnits="userSpaceOnUse"><stop offset="0" stop-color="#283140"/><stop offset="0.5" stop-color="#7a98cc"/><stop offset="1" stop-color="#12161a"/></linearGradient><linearGradient id="未命名的渐变_12" x1="350.72" y1="121.84" x2="360.52" y2="104.87" gradientTransform="matrix(-1, 0, 0, 1, 467.17, 0)" gradientUnits="userSpaceOnUse"><stop offset="0" stop-color="#455672"/><stop offset="0.5" stop-color="#12161a"/><stop offset="0.75" stop-color="#171c23"/><stop offset="1" stop-color="#283140"/></linearGradient><linearGradient id="未命名的渐变_2040-4" x1="401.59" y1="88.89" x2="415.57" y2="88.89" gradientTransform="matrix(-1, 0, 0, 1, 467.17, 0)" xlink:href="#未命名的渐变_2040"/><linearGradient id="未命名的渐变_9-2" x1="54.66" y1="88.89" x2="62.5" y2="88.89" xlink:href="#未命名的渐变_9"/><linearGradient id="未命名的渐变_12-2" x1="398.22" y1="94.28" x2="408.08" y2="77.2" xlink:href="#未命名的渐变_12"/><linearGradient id="未命名的渐变_163" x1="33.79" y1="125.46" x2="82.33" y2="125.46" gradientTransform="matrix(1, 0.58, 0, 1, 0, -114.22)" gradientUnits="userSpaceOnUse"><stop offset="0" stop-color="#198cff" stop-opacity="0"/><stop offset="0.13" stop-color="#1e96ff" stop-opacity="0.05"/><stop offset="0.38" stop-color="#2ab0ff" stop-opacity="0.2"/><stop offset="0.72" stop-color="#3ddafe" stop-opacity="0.42"/><stop offset="0.96" stop-color="#4cfafe" stop-opacity="0.6"/><stop offset="1" stop-color="#4cfafe"/></linearGradient><linearGradient id="未命名的渐变_163-2" x1="30.9" y1="29.08" x2="85.23" y2="60.45" gradientTransform="matrix(1, 0, 0, 1, 0, 0)" xlink:href="#未命名的渐变_163"/><linearGradient id="未命名的渐变_2" x1="48.58" y1="80.14" x2="146.32" y2="80.14" gradientUnits="userSpaceOnUse"><stop offset="0" stop-color="#f9fbff"/><stop offset="1" stop-color="#e4e9f0"/></linearGradient><linearGradient id="未命名的渐变_102" x1="54.88" y1="60.53" x2="91.39" y2="60.53" gradientUnits="userSpaceOnUse"><stop offset="0" stop-color="#1d242d"/><stop offset="1" stop-color="#596b8c"/></linearGradient><linearGradient id="未命名的渐变_102-2" x1="88.59" y1="82.01" x2="133.32" y2="82.01" xlink:href="#未命名的渐变_102"/><linearGradient id="未命名的渐变_34" x1="116.95" y1="127.01" x2="148.92" y2="95.05" gradientUnits="userSpaceOnUse"><stop offset="0" stop-color="#a1aebf"/><stop offset="1" stop-color="#7e8aa6"/></linearGradient><linearGradient id="未命名的渐变_19" x1="112.21" y1="103.34" x2="150" y2="103.34" gradientUnits="userSpaceOnUse"><stop offset="0" stop-color="#b3becc"/><stop offset="1" stop-color="#d3dae6"/></linearGradient><linearGradient id="未命名的渐变_54" x1="112.29" y1="129.5" x2="51.52" y2="68.73" gradientUnits="userSpaceOnUse"><stop offset="0" stop-color="#425266"/><stop offset="1" stop-color="#596b8c"/></linearGradient><linearGradient id="未命名的渐变_2040-5" x1="65.57" y1="100.36" x2="97.2" y2="100.36" xlink:href="#未命名的渐变_2040"/><linearGradient id="未命名的渐变_19-2" x1="48.54" y1="97.89" x2="115.89" y2="97.89" xlink:href="#未命名的渐变_19"/><linearGradient id="未命名的渐变_102-3" x1="73.02" y1="86.4" x2="55.79" y2="69.18" xlink:href="#未命名的渐变_102"/><linearGradient id="未命名的渐变_102-4" x1="96.45" y1="102.5" x2="75.31" y2="81.36" xlink:href="#未命名的渐变_102"/><linearGradient id="未命名的渐变_163-3" x1="0" y1="164.47" x2="48.54" y2="164.47" xlink:href="#未命名的渐变_163"/><linearGradient id="未命名的渐变_163-4" x1="0" y1="64.26" x2="48.54" y2="64.26" gradientTransform="matrix(1, 0, 0, 1, 0, 0)" xlink:href="#未命名的渐变_163"/><linearGradient id="未命名的渐变_169" x1="50.01" y1="88.32" x2="63.98" y2="88.32" gradientUnits="userSpaceOnUse"><stop offset="0" stop-color="#4cfafe"/><stop offset="0.04" stop-color="#4cfafe" stop-opacity="0.6"/><stop offset="0.28" stop-color="#3ddafe" stop-opacity="0.42"/><stop offset="0.62" stop-color="#2ab0ff" stop-opacity="0.2"/><stop offset="0.87" stop-color="#1e96ff" stop-opacity="0.05"/><stop offset="1" stop-color="#198cff" stop-opacity="0"/></linearGradient><linearGradient id="未命名的渐变_167" x1="59.66" y1="85.58" x2="45.68" y2="85.58" gradientUnits="userSpaceOnUse"><stop offset="0" stop-color="#198cff" stop-opacity="0"/><stop offset="0.35" stop-color="#1a8dff" stop-opacity="0.01"/><stop offset="0.5" stop-color="#1c93ff" stop-opacity="0.04"/><stop offset="0.61" stop-color="#209cff" stop-opacity="0.09"/><stop offset="0.7" stop-color="#26a8ff" stop-opacity="0.15"/><stop offset="0.78" stop-color="#2eb9ff" stop-opacity="0.25"/><stop offset="0.85" stop-color="#37cdfe" stop-opacity="0.36"/><stop offset="0.91" stop-color="#42e5fe" stop-opacity="0.49"/><stop offset="0.96" stop-color="#4cfafe" stop-opacity="0.6"/><stop offset="1" stop-color="#4cfafe"/></linearGradient><linearGradient id="未命名的渐变_167-2" x1="60.16" y1="85.58" x2="45.18" y2="85.58" xlink:href="#未命名的渐变_167"/><linearGradient id="未命名的渐变_169-2" x1="98.2" y1="116.25" x2="112.09" y2="116.25" xlink:href="#未命名的渐变_169"/><linearGradient id="未命名的渐变_167-3" x1="109.19" y1="114.12" x2="95.31" y2="114.12" xlink:href="#未命名的渐变_167"/><linearGradient id="未命名的渐变_168" x1="94.81" y1="114.12" x2="109.69" y2="114.12" gradientUnits="userSpaceOnUse"><stop offset="0" stop-color="#4cfafe"/><stop offset="0.04" stop-color="#4cfafe" stop-opacity="0.6"/><stop offset="0.09" stop-color="#42e5fe" stop-opacity="0.49"/><stop offset="0.15" stop-color="#37cdfe" stop-opacity="0.36"/><stop offset="0.22" stop-color="#2eb9ff" stop-opacity="0.25"/><stop offset="0.3" stop-color="#26a8ff" stop-opacity="0.15"/><stop offset="0.39" stop-color="#209cff" stop-opacity="0.09"/><stop offset="0.5" stop-color="#1c93ff" stop-opacity="0.04"/><stop offset="0.65" stop-color="#1a8dff" stop-opacity="0.01"/><stop offset="1" stop-color="#198cff" stop-opacity="0"/></linearGradient><linearGradient id="未命名的渐变_163-5" x1="41.48" y1="69.01" x2="79.3" y2="69.01" gradientTransform="matrix(1, 0, 0, 1, 0, 0)" xlink:href="#未命名的渐变_163"/><linearGradient id="未命名的渐变_163-7" x1="91.18" y1="97.71" x2="129" y2="97.71" gradientTransform="matrix(1, 0, 0, 1, 0, 0)" xlink:href="#未命名的渐变_163"/><linearGradient id="未命名的渐变_163-8" x1="91.18" y1="97.71" x2="129" y2="97.71" gradientTransform="matrix(1, 0, 0, 1, 0, 0)" xlink:href="#未命名的渐变_163"/><linearGradient id="未命名的渐变_163-9" x1="360.67" y1="112.78" x2="375.17" y2="112.78" gradientTransform="matrix(-1, 0, 0, 1, 467.17, 0)" xlink:href="#未命名的渐变_163"/><linearGradient id="未命名的渐变_163-10" x1="92" y1="112.78" x2="106.5" y2="112.78" gradientTransform="matrix(1, 0, 0, 1, 0, 0)" xlink:href="#未命名的渐变_163"/><linearGradient id="未命名的渐变_163-11" x1="95.18" y1="112.78" x2="103.31" y2="112.78" gradientTransform="matrix(1, 0, 0, 1, 0, 0)" xlink:href="#未命名的渐变_163"/><linearGradient id="未命名的渐变_163-12" x1="95.18" y1="112.78" x2="103.31" y2="112.78" gradientTransform="matrix(1, 0, 0, 1, 0, 0)" xlink:href="#未命名的渐变_163"/><linearGradient id="未命名的渐变_163-13" x1="357.17" y1="118.37" x2="367.4" y2="100.65" gradientTransform="matrix(-1, 0, 0, 1, 467.17, 0)" xlink:href="#未命名的渐变_163"/><linearGradient id="未命名的渐变_163-14" x1="94.11" y1="110.74" x2="112.67" y2="110.74" gradientTransform="matrix(1, 0, 0, 1, 0, 0)" xlink:href="#未命名的渐变_163"/><linearGradient id="未命名的渐变_163-15" x1="410.28" y1="83.97" x2="424.87" y2="83.97" gradientTransform="matrix(-1, 0, 0, 1, 467.17, 0)" xlink:href="#未命名的渐变_163"/><linearGradient id="未命名的渐变_163-16" x1="42.3" y1="83.97" x2="56.89" y2="83.97" gradientTransform="matrix(1, 0, 0, 1, 0, 0)" xlink:href="#未命名的渐变_163"/><linearGradient id="未命名的渐变_163-17" x1="45.5" y1="83.97" x2="53.68" y2="83.97" gradientTransform="matrix(1, 0, 0, 1, 0, 0)" xlink:href="#未命名的渐变_163"/><linearGradient id="未命名的渐变_163-19" x1="406.75" y1="89.6" x2="417.05" y2="71.77" gradientTransform="matrix(-1, 0, 0, 1, 467.17, 0)" xlink:href="#未命名的渐变_163"/><linearGradient id="未命名的渐变_163-20" x1="44.43" y1="81.92" x2="63.1" y2="81.92" gradientTransform="matrix(1, 0, 0, 1, 0, 0)" xlink:href="#未命名的渐变_163"/><linearGradient id="未命名的渐变_163-21" x1="39.15" y1="74.84" x2="141.18" y2="74.84" gradientTransform="matrix(1, 0, 0, 1, 0, 0)" xlink:href="#未命名的渐变_163"/><linearGradient id="未命名的渐变_163-23" x1="45.73" y1="54.36" x2="83.84" y2="54.36" gradientTransform="matrix(1, 0, 0, 1, 0, 0)" xlink:href="#未命名的渐变_163"/><linearGradient id="未命名的渐变_163-24" x1="45.73" y1="54.36" x2="83.84" y2="54.36" gradientTransform="matrix(1, 0, 0, 1, 0, 0)" xlink:href="#未命名的渐变_163"/><linearGradient id="未命名的渐变_163-25" x1="80.92" y1="76.79" x2="127.62" y2="76.79" gradientTransform="matrix(1, 0, 0, 1, 0, 0)" xlink:href="#未命名的渐变_163"/><linearGradient id="未命名的渐变_163-26" x1="80.92" y1="76.79" x2="127.62" y2="76.79" gradientTransform="matrix(1, 0, 0, 1, 0, 0)" xlink:href="#未命名的渐变_163"/><linearGradient id="未命名的渐变_163-27" x1="110.52" y1="123.77" x2="143.9" y2="90.39" gradientTransform="matrix(1, 0, 0, 1, 0, 0)" xlink:href="#未命名的渐变_163"/><linearGradient id="未命名的渐变_163-28" x1="109.39" y1="107.08" x2="145.03" y2="107.08" gradientTransform="matrix(1, 0, 0, 1, 0, 0)" xlink:href="#未命名的渐变_163"/><linearGradient id="未命名的渐变_163-29" x1="111.29" y1="113.52" x2="120.99" y2="113.52" gradientTransform="matrix(1, 0, 0, 1, 0, 0)" xlink:href="#未命名的渐变_163"/><linearGradient id="未命名的渐变_163-31" x1="112" y1="113.68" x2="119.72" y2="113.68" gradientTransform="matrix(1, 0, 0, 1, 0, 0)" xlink:href="#未命名的渐变_163"/><linearGradient id="未命名的渐变_163-33" x1="134.08" y1="99.28" x2="143.35" y2="99.28" gradientTransform="matrix(1, 0, 0, 1, 0, 0)" xlink:href="#未命名的渐变_163"/><linearGradient id="未命名的渐变_163-35" x1="135.65" y1="99.5" x2="142.64" y2="99.5" gradientTransform="matrix(1, 0, 0, 1, 0, 0)" xlink:href="#未命名的渐变_163"/><linearGradient id="未命名的渐变_163-36" x1="135.65" y1="99.5" x2="142.64" y2="99.5" gradientTransform="matrix(1, 0, 0, 1, 0, 0)" xlink:href="#未命名的渐变_163"/><linearGradient id="未命名的渐变_163-37" x1="105.57" y1="99.05" x2="145.03" y2="99.05" gradientTransform="matrix(1, 0, 0, 1, 0, 0)" xlink:href="#未命名的渐变_163"/><linearGradient id="未命名的渐变_163-38" x1="105.57" y1="99.05" x2="145.03" y2="99.05" gradientTransform="matrix(1, 0, 0, 1, 0, 0)" xlink:href="#未命名的渐变_163"/><linearGradient id="未命名的渐变_163-39" x1="105.66" y1="126.36" x2="42.22" y2="62.92" gradientTransform="matrix(1, 0, 0, 1, 0, 0)" xlink:href="#未命名的渐变_163"/><linearGradient id="未命名的渐变_163-40" x1="39.11" y1="93.37" x2="109.42" y2="93.37" gradientTransform="matrix(1, 0, 0, 1, 0, 0)" xlink:href="#未命名的渐变_163"/><linearGradient id="未命名的渐变_163-41" x1="56.89" y1="95.94" x2="89.9" y2="95.94" gradientTransform="matrix(1, 0, 0, 1, 0, 0)" xlink:href="#未命名的渐变_163"/><linearGradient id="未命名的渐变_163-45" x1="64.66" y1="81.37" x2="46.68" y2="63.39" gradientTransform="matrix(1, 0, 0, 1, 0, 0)" xlink:href="#未命名的渐变_163"/><linearGradient id="未命名的渐变_163-46" x1="41.98" y1="73.93" x2="64.78" y2="73.93" gradientTransform="matrix(1, 0, 0, 1, 0, 0)" xlink:href="#未命名的渐变_163"/><linearGradient id="未命名的渐变_163-47" x1="89.13" y1="98.18" x2="67.06" y2="76.1" gradientTransform="matrix(1, 0, 0, 1, 0, 0)" xlink:href="#未命名的渐变_163"/><linearGradient id="未命名的渐变_163-48" x1="68.77" y1="85.37" x2="90.95" y2="85.37" gradientTransform="matrix(1, 0, 0, 1, 0, 0)" xlink:href="#未命名的渐变_163"/><linearGradient id="未命名的渐变_163-49" x1="68.77" y1="87" x2="71.46" y2="87" gradientTransform="matrix(1, 0, 0, 1, 0, 0)" xlink:href="#未命名的渐变_163"/><linearGradient id="未命名的渐变_163-51" x1="62.09" y1="83.37" x2="64.78" y2="83.37" gradientTransform="matrix(1, 0, 0, 1, 0, 0)" xlink:href="#未命名的渐变_163"/></defs><title>汽车2</title><g id="图层_2" data-name="图层 2"><g id="图元"><g id="汽车2"><g class="cls-3"><rect class="cls-4" width="150" height="150"/><rect id="网格" class="cls-5" width="150" height="150"/></g><g class="cls-6"><path class="cls-7" d="M87,60.37,52.93,80.19c-1.3.76-2.11,2.37-2.12,4.65a12.86,12.86,0,0,0,.67,3.92L85.59,68.93A12.75,12.75,0,0,1,84.92,65C84.93,62.73,85.74,61.12,87,60.37Z"/><path class="cls-8" d="M134.65,87.85l-34.11,19.83c-1.31.75-2.11,2.36-2.12,4.65a12.59,12.59,0,0,0,.68,3.92l34.11-19.82a12.59,12.59,0,0,1-.68-3.92C132.54,90.22,133.34,88.61,134.65,87.85Z"/><path class="cls-9" d="M106.17,108.51a15.24,15.24,0,0,1,6.92,12c0,4.4-3.13,6.18-7,4a15.25,15.25,0,0,1-6.93-12C99.21,108.07,102.34,106.29,106.17,108.51Z"/><path class="cls-10" d="M107.59,121.31a3.66,3.66,0,0,1-1.78-.53,7.75,7.75,0,0,1-3.56-6.17,2.62,2.62,0,0,1,4.23-2.42h0a7.73,7.73,0,0,1,3.56,6.17,2.87,2.87,0,0,1-1.28,2.65A2.34,2.34,0,0,1,107.59,121.31ZM104.7,113a1.08,1.08,0,0,0-.52.13,1.69,1.69,0,0,0-.63,1.52,6.53,6.53,0,0,0,2.91,5,1.73,1.73,0,0,0,1.65.23,1.67,1.67,0,0,0,.63-1.52,6.53,6.53,0,0,0-2.91-5h0A2.42,2.42,0,0,0,104.7,113Z"/><path class="cls-11" d="M107.14,104.59c1.27-.74,3-.63,4.94.48a15.21,15.21,0,0,1,6.92,12c0,2.19-.77,3.73-2,4.45L111.07,125c1.24-.72,2-2.26,2-4.45a15.24,15.24,0,0,0-6.92-12c-1.93-1.12-3.68-1.22-4.94-.49Z"/><path class="cls-12" d="M58.61,80.86a15.35,15.35,0,0,1,7,12.06c0,4.44-3.15,6.23-7,4a15.33,15.33,0,0,1-7-12.06C51.61,80.42,54.75,78.63,58.61,80.86Z"/><path class="cls-13" d="M60,93.75a3.61,3.61,0,0,1-1.79-.54A7.8,7.8,0,0,1,54.66,87a2.63,2.63,0,0,1,4.26-2.43h0a7.76,7.76,0,0,1,3.58,6.21,2.9,2.9,0,0,1-1.28,2.66A2.42,2.42,0,0,1,60,93.75Zm-2.91-8.4a1,1,0,0,0-.53.13A1.72,1.72,0,0,0,56,87a6.58,6.58,0,0,0,2.93,5.06,1.72,1.72,0,0,0,1.66.23,1.67,1.67,0,0,0,.63-1.53,6.51,6.51,0,0,0-2.92-5.06h0A2.35,2.35,0,0,0,57.13,85.35Z"/><path class="cls-14" d="M59.59,76.92c1.27-.74,3-.64,5,.48a15.36,15.36,0,0,1,7,12.07c0,2.2-.78,3.75-2,4.48l-6,3.46c1.26-.73,2-2.28,2-4.49a15.35,15.35,0,0,0-7-12.06c-1.94-1.12-3.7-1.22-5-.49Z"/><polygon class="cls-15" points="82.33 65.47 33.79 37.49 33.79 24.07 82.33 52.05 82.33 65.47"/><path class="cls-16" d="M34,24.5l48,27.69V65L34,37.34V24.5m-.25-.43V37.49l48.54,28V52.05l-48.54-28Z"/><path class="cls-17" d="M134.16,80,120.88,64a16.33,16.33,0,0,0-4.39-3.72l-16.29-9.4a8.13,8.13,0,0,0-5.38-1l-12.13,2L48.58,71.67l9.88-1.62a14.45,14.45,0,0,1,9.61,1.75l12.31,7.1a29.16,29.16,0,0,1,7.86,6.65L101,100.91l11.26,9.64,34.11-19.83L136.12,82A16,16,0,0,1,134.16,80Z"/><polygon class="cls-18" points="83.11 53.01 91.39 51.64 63.16 68.05 54.88 69.41 83.11 53.01"/><polygon class="cls-19" points="102.68 99.21 88.59 82.18 118.46 64.82 133.32 82.79 102.68 99.21"/><polygon class="cls-20" points="115.89 115.95 115.86 125.93 149.97 106.11 150 96.13 115.89 115.95"/><polygon class="cls-21" points="117.69 118.04 126.97 112.63 125.42 117.24 117.68 121.75 117.69 118.04"/><polygon class="cls-22" points="118.37 118.43 125.76 114.12 124.86 116.78 118.36 120.58 118.37 118.43"/><polygon class="cls-21" points="148.4 100.2 148.38 103.91 143.19 106.92 139.51 105.35 148.4 100.2"/><polygon class="cls-22" points="141.02 105.26 147.72 101.38 147.71 103.52 143.14 106.16 141.02 105.26"/><polygon class="cls-23" points="146.32 90.72 112.21 110.55 115.89 115.95 150 96.13 146.32 90.72"/><path class="cls-24" d="M112.21,110.55l-1.73-1.49A144.57,144.57,0,0,1,93,91.25l-4.71-5.7a29.16,29.16,0,0,0-7.86-6.65L68.07,71.8a14.45,14.45,0,0,0-9.61-1.75l-9.88,1.62,0,13.36,2.94,3.73a12.86,12.86,0,0,1-.67-3.92c0-5.38,4.47-7,9.37-2.6A15.65,15.65,0,0,1,65,90.58a8.43,8.43,0,0,1-.39,5.76l1.84,1.06,6.11.22,17.13,9.89,6.84,7.26,2.57,1.48a12.59,12.59,0,0,1-.68-3.92c0-4.61,3.27-6.46,7.28-4.15a15.94,15.94,0,0,1,7.22,12.52,6.59,6.59,0,0,1-.69,3.13l3.63,2.1,0-10Z"/><polygon class="cls-25" points="97.2 115.13 65.57 96.87 65.57 85.58 97.2 103.84 97.2 115.13"/><path class="cls-26" d="M112.21,110.55l-1.73-1.49A144.57,144.57,0,0,1,93,91.25l-4.71-5.7a29.16,29.16,0,0,0-7.86-6.65L68.07,71.8a14.45,14.45,0,0,0-9.61-1.75l-9.88,1.62,0,13.36,2.94,3.73a12.86,12.86,0,0,1-.67-3.92c0-5.38,4.47-7,9.37-2.6A15.65,15.65,0,0,1,65,90.58a8.43,8.43,0,0,1-.39,5.76l1.84,1.06,6.11.22,17.13,9.89,6.84,7.26,2.57,1.48a12.59,12.59,0,0,1-.68-3.92c0-4.61,3.27-6.46,7.28-4.15a15.94,15.94,0,0,1,7.22,12.52,6.59,6.59,0,0,1-.69,3.13l3.63,2.1,0-10Z"/><path class="cls-27" d="M66.86,73.89l6.27,3.62v8.77L51.29,73.68l7.56-1.25a11.78,11.78,0,0,1,2-.16A12.13,12.13,0,0,1,66.86,73.89Z"/><path class="cls-28" d="M91.85,93.69c-.27-.29-.51-.59-.76-.9l-4.72-5.71A26.48,26.48,0,0,0,79.17,81L77,79.71V88.5l14.9,8.59,6.35,3.66Q94.89,97.33,91.85,93.69Z"/><polygon class="cls-29" points="79.53 93 76.95 91.5 76.95 90.58 79.53 92.07 79.53 93"/><polygon class="cls-29" points="73.14 89.52 70.56 88.03 70.56 87.11 73.14 88.6 73.14 89.52"/><polygon class="cls-30" points="48.54 84.96 0 56.98 0 43.57 48.54 71.55 48.54 84.96"/><path class="cls-31" d="M.25,44l48,27.69V84.53L.25,56.84V44M0,43.57V57L48.54,85V71.54L0,43.57Z"/><path class="cls-32" d="M57,80.29a15.35,15.35,0,0,1,7,12.06c0,4.44-3.15,6.23-7,4a15.35,15.35,0,0,1-7-12.06C50,79.85,53.16,78.06,57,80.29Z"/><path class="cls-33" d="M52.7,77.55a15.35,15.35,0,0,1,7,12.06c0,4.44-3.15,6.23-7,4a15.33,15.33,0,0,1-7-12.06C45.7,77.11,48.84,75.32,52.7,77.55Z"/><path class="cls-34" d="M105.17,108.27a15.3,15.3,0,0,1,6.92,12c0,4.41-3.13,6.18-7,4a15.26,15.26,0,0,1-6.92-12C98.21,107.84,101.33,106.06,105.17,108.27Z"/><path class="cls-35" d="M102.27,106.14a15.24,15.24,0,0,1,6.92,12c0,4.41-3.13,6.18-7,4a15.21,15.21,0,0,1-6.92-12C95.32,105.71,98.44,103.93,102.27,106.14Z"/><g class="cls-36"><path class="cls-37" d="M79.3,54.19,43.69,74.88c-1.36.79-2.2,2.47-2.21,4.86a13.29,13.29,0,0,0,.69,4.09l35.61-20.7a13.23,13.23,0,0,1-.69-4.08C77.1,56.66,77.94,55,79.3,54.19Z"/><path class="cls-37" d="M77.74,55.38a7,7,0,0,0-.9,3.67,13.41,13.41,0,0,0,.64,4L42.32,83.45a12.56,12.56,0,0,1-.59-3.71c0-2.21.75-3.86,2.08-4.64L77.74,55.38m1.56-1.19L43.69,74.88c-1.36.79-2.2,2.47-2.21,4.86a13.29,13.29,0,0,0,.69,4.09l35.61-20.7a13.23,13.23,0,0,1-.69-4.08c0-2.39.85-4.07,2.21-4.86Z"/><path class="cls-38" d="M129,82.89,93.39,103.58c-1.36.79-2.2,2.47-2.21,4.86a13,13,0,0,0,.71,4.09L127.5,91.84a13.14,13.14,0,0,1-.71-4.09C126.8,85.36,127.64,83.68,129,82.89Z"/><path class="cls-39" d="M127.45,84.08a7,7,0,0,0-.91,3.66,13.25,13.25,0,0,0,.66,4L92,112.16a12.7,12.7,0,0,1-.6-3.72c0-2.22.75-3.87,2.09-4.64l33.93-19.72M129,82.89,93.39,103.58c-1.36.79-2.2,2.47-2.21,4.86a13,13,0,0,0,.71,4.09L127.5,91.84a13.14,13.14,0,0,1-.71-4.09c0-2.39.85-4.07,2.21-4.86Z"/><path class="cls-40" d="M99.27,104.45A15.91,15.91,0,0,1,106.5,117c0,4.61-3.27,6.46-7.28,4.15A15.92,15.92,0,0,1,92,108.59C92,104,95.27,102.14,99.27,104.45Z"/><path class="cls-41" d="M96,103.45v.25a6.44,6.44,0,0,1,3.13,1,15.71,15.71,0,0,1,7.1,12.3c0,3-1.46,4.89-3.77,4.89a6.3,6.3,0,0,1-3.13-1,15.64,15.64,0,0,1-7.1-12.3c0-3,1.45-4.89,3.77-4.89v-.25m0,0c-2.38,0-4,1.89-4,5.14a15.92,15.92,0,0,0,7.22,12.52,6.67,6.67,0,0,0,3.26,1c2.37,0,4-1.88,4-5.14a15.91,15.91,0,0,0-7.23-12.51,6.55,6.55,0,0,0-3.25-1Z"/><path class="cls-42" d="M100.76,117.82a3.75,3.75,0,0,1-1.86-.56,8.07,8.07,0,0,1-3.72-6.44,3,3,0,0,1,1.33-2.76,3,3,0,0,1,3.09.24h0a8.05,8.05,0,0,1,3.71,6.44A3,3,0,0,1,102,117.5,2.44,2.44,0,0,1,100.76,117.82Zm-3-8.72a1.1,1.1,0,0,0-.55.14,1.74,1.74,0,0,0-.65,1.58,6.76,6.76,0,0,0,3,5.26,1.41,1.41,0,0,0,2.37-1.35,6.81,6.81,0,0,0-3-5.26h0A2.54,2.54,0,0,0,97.74,109.1Z"/><path class="cls-43" d="M97.74,108a3.44,3.44,0,0,1,1.73.52,7.81,7.81,0,0,1,3.59,6.23,2.74,2.74,0,0,1-1.21,2.54,2.14,2.14,0,0,1-1.09.29A3.49,3.49,0,0,1,99,117a7.79,7.79,0,0,1-3.59-6.22,2.77,2.77,0,0,1,1.21-2.55,2.17,2.17,0,0,1,1.1-.28m3,8.71a1.35,1.35,0,0,0,.67-.16,2,2,0,0,0,.77-1.81A7.06,7.06,0,0,0,99,109.26a2.65,2.65,0,0,0-1.3-.41,1.33,1.33,0,0,0-.67.17,2,2,0,0,0-.78,1.8,7.07,7.07,0,0,0,3.16,5.48,2.73,2.73,0,0,0,1.31.4m-3-9a2.38,2.38,0,0,0-1.23.32,3,3,0,0,0-1.33,2.76,8.07,8.07,0,0,0,3.72,6.44,3.75,3.75,0,0,0,1.86.56,2.44,2.44,0,0,0,1.22-.32,3,3,0,0,0,1.33-2.76,8.05,8.05,0,0,0-3.71-6.44,3.78,3.78,0,0,0-1.86-.56Zm3,8.71a2.37,2.37,0,0,1-1.18-.37,6.76,6.76,0,0,1-3-5.26,1.74,1.74,0,0,1,.65-1.58,1.1,1.1,0,0,1,.55-.14,2.54,2.54,0,0,1,1.18.37,6.81,6.81,0,0,1,3,5.26,1.77,1.77,0,0,1-.65,1.59,1.05,1.05,0,0,1-.54.13Z"/><path class="cls-44" d="M100.29,100.36c1.31-.77,3.14-.66,5.16.5a15.94,15.94,0,0,1,7.22,12.52c0,2.28-.81,3.89-2.11,4.65l-6.18,3.58c1.3-.75,2.11-2.36,2.12-4.65a15.91,15.91,0,0,0-7.23-12.51c-2-1.17-3.84-1.27-5.16-.51Z"/><path class="cls-45" d="M102.19,100.12h0a6.3,6.3,0,0,1,3.13,1,15.65,15.65,0,0,1,7.1,12.3c0,2.11-.71,3.69-2,4.43l-4.53,2.63a6.72,6.72,0,0,0,.85-3.47,16.26,16.26,0,0,0-7.35-12.74,6.85,6.85,0,0,0-3.38-1h-.14l4.53-2.64a3.51,3.51,0,0,1,1.78-.45m0-.25a3.63,3.63,0,0,0-1.9.49l-6.18,3.58a3.8,3.8,0,0,1,1.91-.49,6.55,6.55,0,0,1,3.25,1A15.91,15.91,0,0,1,106.5,117c0,2.29-.82,3.9-2.12,4.65l6.18-3.58c1.3-.76,2.1-2.37,2.11-4.65a15.94,15.94,0,0,0-7.22-12.52,6.57,6.57,0,0,0-3.26-1Z"/><path class="cls-46" d="M49.62,75.59a16,16,0,0,1,7.27,12.59c0,4.63-3.29,6.5-7.32,4.17A16,16,0,0,1,42.3,79.76C42.31,75.13,45.59,73.26,49.62,75.59Z"/><path class="cls-47" d="M46.34,74.83h0a6.39,6.39,0,0,1,3.15,1,15.8,15.8,0,0,1,7.15,12.38c0,3-1.47,4.92-3.8,4.92a6.35,6.35,0,0,1-3.15-1,15.74,15.74,0,0,1-7.14-12.37c0-3,1.46-4.92,3.79-4.93m0-.25c-2.39,0-4,1.9-4,5.18a16,16,0,0,0,7.27,12.59,6.65,6.65,0,0,0,3.27,1c2.39,0,4-1.89,4-5.17a16,16,0,0,0-7.27-12.59,6.68,6.68,0,0,0-3.28-1Z"/><path class="cls-48" d="M51.11,89a3.82,3.82,0,0,1-1.87-.56A8.12,8.12,0,0,1,45.5,82a3,3,0,0,1,1.34-2.78,3.05,3.05,0,0,1,3.11.24h0a8.12,8.12,0,0,1,3.73,6.48,3,3,0,0,1-1.34,2.78A2.48,2.48,0,0,1,51.11,89Zm-3-8.77a1.12,1.12,0,0,0-.55.13,1.79,1.79,0,0,0-.65,1.6,6.83,6.83,0,0,0,3.05,5.29,1.43,1.43,0,0,0,2.4-1.36,6.88,6.88,0,0,0-3.06-5.29h0A2.54,2.54,0,0,0,48.07,80.27Z"/><path class="cls-48" d="M48.07,79.15a3.43,3.43,0,0,1,1.75.53,7.84,7.84,0,0,1,3.61,6.26,2.78,2.78,0,0,1-1.21,2.56,2.24,2.24,0,0,1-1.11.29,3.55,3.55,0,0,1-1.75-.53A7.84,7.84,0,0,1,45.75,82,2.78,2.78,0,0,1,47,79.43a2.17,2.17,0,0,1,1.1-.28m3,8.77a1.33,1.33,0,0,0,.67-.17,2,2,0,0,0,.79-1.82,7.14,7.14,0,0,0-3.18-5.5A2.71,2.71,0,0,0,48.07,80a1.33,1.33,0,0,0-.67.17A2,2,0,0,0,46.62,82a7.11,7.11,0,0,0,3.18,5.51,2.65,2.65,0,0,0,1.31.41m-3-9a2.38,2.38,0,0,0-1.23.32A3,3,0,0,0,45.5,82a8.12,8.12,0,0,0,3.74,6.48,3.82,3.82,0,0,0,1.87.56,2.48,2.48,0,0,0,1.23-.32,3,3,0,0,0,1.34-2.78A8.12,8.12,0,0,0,50,79.46a3.75,3.75,0,0,0-1.88-.56Zm3,8.77a2.45,2.45,0,0,1-1.19-.38A6.83,6.83,0,0,1,46.87,82a1.79,1.79,0,0,1,.65-1.6,1.12,1.12,0,0,1,.55-.13,2.54,2.54,0,0,1,1.19.37,6.88,6.88,0,0,1,3.06,5.29,1.81,1.81,0,0,1-.66,1.6,1.1,1.1,0,0,1-.55.14Z"/><path class="cls-49" d="M50.64,71.47c1.32-.77,3.16-.67,5.19.5a16,16,0,0,1,7.27,12.6c0,2.3-.82,3.92-2.13,4.68l-6.21,3.61c1.31-.76,2.12-2.38,2.13-4.68a16,16,0,0,0-7.27-12.59c-2-1.18-3.87-1.28-5.19-.51Z"/><path class="cls-50" d="M52.56,71.22h0a6.39,6.39,0,0,1,3.14,1,15.77,15.77,0,0,1,7.15,12.38c0,2.13-.72,3.72-2,4.46l-4.57,2.65a6.71,6.71,0,0,0,.86-3.5,16.34,16.34,0,0,0-7.4-12.81,6.83,6.83,0,0,0-3.4-1H46.2l4.56-2.66a3.6,3.6,0,0,1,1.8-.46m0-.25a3.71,3.71,0,0,0-1.92.5l-6.21,3.61a3.68,3.68,0,0,1,1.91-.5,6.68,6.68,0,0,1,3.28,1,16,16,0,0,1,7.27,12.59c0,2.3-.82,3.92-2.13,4.68L61,89.25c1.31-.76,2.12-2.38,2.13-4.68A16,16,0,0,0,55.83,72a6.76,6.76,0,0,0-3.27-1Z"/><path class="cls-51" d="M128.49,74.7,114.63,57.93A16.93,16.93,0,0,0,110,54.05L93,44.24a8.52,8.52,0,0,0-5.61-1L74.76,45.3,39.15,66l10.31-1.7a15.23,15.23,0,0,1,10,1.83l12.85,7.42a30.52,30.52,0,0,1,8.2,6.94l13.27,16,11.75,10.06,35.61-20.7-10.64-9.1A17.51,17.51,0,0,1,128.49,74.7Z"/><path class="cls-51" d="M88.8,43.35a8.22,8.22,0,0,1,4.11,1.1l17,9.82a16.7,16.7,0,0,1,4.51,3.82L128.3,74.86A17.27,17.27,0,0,0,130.38,77l10.37,8.87L105.6,106.27,94,96.36l-13.27-16a30.17,30.17,0,0,0-8.27-7L59.62,65.91a15.43,15.43,0,0,0-7.7-2.07,14.89,14.89,0,0,0-2.5.21l-9,1.47,34.4-20,12.62-2.07a8.52,8.52,0,0,1,1.33-.11m0-.25a8.94,8.94,0,0,0-1.37.11L74.76,45.3,39.15,66l10.31-1.7a15.7,15.7,0,0,1,2.46-.2,15.24,15.24,0,0,1,7.58,2l12.85,7.42a30.52,30.52,0,0,1,8.2,6.94l13.27,16,11.75,10.06,35.61-20.7-10.64-9.1a18.3,18.3,0,0,1-2-2.08L114.63,57.93A16.93,16.93,0,0,0,110,54.05L93,44.24A8.48,8.48,0,0,0,88.8,43.1Z"/><polygon class="cls-52" points="75.2 46.5 83.84 45.08 54.37 62.21 45.73 63.63 75.2 46.5"/><path class="cls-53" d="M82.54,45.55,54.29,62,47,63.16,75.28,46.74l7.26-1.19m1.3-.47L75.2,46.5,45.73,63.63l8.64-1.42L83.84,45.08Z"/><polygon class="cls-54" points="95.63 94.74 80.92 76.96 112.1 58.84 127.62 77.6 95.63 94.74"/><path class="cls-55" d="M112,59.16l15.19,18.37L95.69,94.43,81.3,77,112,59.16m.06-.32L80.92,77l14.7,17.78,32-17.14L112.1,58.84Z"/><polygon class="cls-56" points="109.42 112.22 109.39 122.64 145 101.94 145.03 91.53 109.42 112.22"/><path class="cls-57" d="M144.78,92l0,9.84-35.11,20.4,0-9.83L144.78,92m.25-.43-35.61,20.69,0,10.42L145,101.94l0-10.41Z"/><polygon class="cls-58" points="111.3 114.4 120.99 108.75 119.37 113.57 111.29 118.28 111.3 114.4"/><path class="cls-58" d="M120.54,109.3l-1.38,4.1-7.62,4.44v-3.29l9-5.25m.45-.55-9.69,5.65v3.88l8.08-4.71,1.62-4.82Z"/><polygon class="cls-59" points="112 114.81 119.72 110.31 118.79 113.09 112 117.05 112 114.81"/><path class="cls-59" d="M119.27,110.86l-.69,2.06-6.33,3.69V115l7-4.09m.45-.55-7.72,4.5v2.24l6.79-4,.93-2.78Z"/><polygon class="cls-60" points="143.35 95.78 143.34 99.64 137.92 102.79 134.08 101.15 143.35 95.78"/><path class="cls-60" d="M143.1,96.21V99.5l-5.19,3-3.26-1.39,8.46-4.91m.25-.43-9.27,5.37,3.84,1.64,5.42-3.15V95.78Z"/><polygon class="cls-61" points="135.65 101.06 142.64 97 142.64 99.24 137.87 102 135.65 101.06"/><path class="cls-62" d="M142.39,97.44v1.65l-4.54,2.63-1.64-.7,6.18-3.58m.25-.44-7,4.06,2.22.94,4.77-2.76V97Z"/><polygon class="cls-63" points="141.18 85.88 105.57 106.58 109.42 112.22 145.03 91.53 141.18 85.88"/><path class="cls-64" d="M141.11,86.21l3.56,5.24-35.18,20.44-3.56-5.23,35.18-20.45m.07-.33-35.61,20.7,3.85,5.64L145,91.53l-3.85-5.65Z"/><path class="cls-65" d="M105.57,106.58l-1.8-1.55a151.68,151.68,0,0,1-18.3-18.6l-4.92-6a30.52,30.52,0,0,0-8.2-6.94L59.5,66.12a15.23,15.23,0,0,0-10-1.83L39.15,66l0,14,3.06,3.89a13.29,13.29,0,0,1-.69-4.09c0-5.62,4.66-7.32,9.78-2.72a16.41,16.41,0,0,1,5,8.71,8.82,8.82,0,0,1-.41,6l1.93,1.12,6.37.22,17.89,10.33L89.21,111l2.68,1.54a13,13,0,0,1-.71-4.09c0-4.81,3.41-6.75,7.6-4.33a16.62,16.62,0,0,1,7.54,13.07,6.88,6.88,0,0,1-.72,3.27l3.79,2.19,0-10.42Z"/><path class="cls-66" d="M51.92,64.34a14.88,14.88,0,0,1,7.45,2l12.85,7.42a30,30,0,0,1,8.14,6.88l4.92,6a152.8,152.8,0,0,0,18.32,18.63l1.79,1.52,3.78,5.56,0,9.91-3.21-1.86a7.28,7.28,0,0,0,.64-3.17,17,17,0,0,0-7.67-13.29,7.12,7.12,0,0,0-3.52-1.07c-2.69,0-4.44,2.21-4.45,5.62a13.19,13.19,0,0,0,.53,3.56l-2.09-1.21-7.12-7.55,0,0,0,0L64.31,92.87l-.06,0h-.06l-6.31-.22-1.67-1a9.37,9.37,0,0,0,.33-6,16.7,16.7,0,0,0-5.12-8.83c-2-1.78-4-2.72-5.74-2.72-2.7,0-4.44,2.21-4.45,5.62a12.92,12.92,0,0,0,.36,3l-2.23-2.84,0-13.65,10.1-1.66a15.1,15.1,0,0,1,2.42-.2m0-.25a15.7,15.7,0,0,0-2.46.2L39.15,66l0,14,3.06,3.89a13.29,13.29,0,0,1-.69-4.09c0-3.4,1.71-5.37,4.2-5.37,1.61,0,3.56.84,5.58,2.65a16.41,16.41,0,0,1,5,8.71,8.82,8.82,0,0,1-.41,6l1.93,1.12,6.37.22,17.89,10.33L89.21,111l2.68,1.54a13,13,0,0,1-.71-4.09c0-3.4,1.72-5.37,4.2-5.37a6.86,6.86,0,0,1,3.4,1,16.62,16.62,0,0,1,7.54,13.07,6.88,6.88,0,0,1-.72,3.27l3.79,2.19,0-10.42-3.85-5.64-1.8-1.55a151.68,151.68,0,0,1-18.3-18.6l-4.92-6a30.52,30.52,0,0,0-8.2-6.94L59.5,66.12a15.24,15.24,0,0,0-7.58-2Z"/><polygon class="cls-67" points="89.9 111.36 56.89 92.3 56.89 80.51 89.9 99.57 89.9 111.36"/><path class="cls-67" d="M57.14,80.94,89.65,99.72v11.21L57.14,92.16V80.94m-.25-.43V92.3l33,19.06V99.57l-33-19.06Z"/><path class="cls-66" d="M105.57,106.58l-1.8-1.55a151.68,151.68,0,0,1-18.3-18.6l-4.92-6a30.52,30.52,0,0,0-8.2-6.94L59.5,66.12a15.23,15.23,0,0,0-10-1.83L39.15,66l0,14,3.06,3.89a13.29,13.29,0,0,1-.69-4.09c0-5.62,4.66-7.32,9.78-2.72a16.41,16.41,0,0,1,5,8.71,8.82,8.82,0,0,1-.41,6l1.93,1.12,6.37.22,17.89,10.33L89.21,111l2.68,1.54a13,13,0,0,1-.71-4.09c0-4.81,3.41-6.75,7.6-4.33a16.62,16.62,0,0,1,7.54,13.07,6.88,6.88,0,0,1-.72,3.27l3.79,2.19,0-10.42Z"/><path class="cls-66" d="M51.92,64.34a14.88,14.88,0,0,1,7.45,2l12.85,7.42a30,30,0,0,1,8.14,6.88l4.92,6a152.8,152.8,0,0,0,18.32,18.63l1.79,1.52,3.78,5.56,0,9.91-3.21-1.86a7.28,7.28,0,0,0,.64-3.17,17,17,0,0,0-7.67-13.29,7.12,7.12,0,0,0-3.52-1.07c-2.69,0-4.44,2.21-4.45,5.62a13.19,13.19,0,0,0,.53,3.56l-2.09-1.21-7.12-7.55,0,0,0,0L64.31,92.87l-.06,0h-.06l-6.31-.22-1.67-1a9.37,9.37,0,0,0,.33-6,16.7,16.7,0,0,0-5.12-8.83c-2-1.78-4-2.72-5.74-2.72-2.7,0-4.44,2.21-4.45,5.62a12.92,12.92,0,0,0,.36,3l-2.23-2.84,0-13.65,10.1-1.66a15.1,15.1,0,0,1,2.42-.2m0-.25a15.7,15.7,0,0,0-2.46.2L39.15,66l0,14,3.06,3.89a13.29,13.29,0,0,1-.69-4.09c0-3.4,1.71-5.37,4.2-5.37,1.61,0,3.56.84,5.58,2.65a16.41,16.41,0,0,1,5,8.71,8.82,8.82,0,0,1-.41,6l1.93,1.12,6.37.22,17.89,10.33L89.21,111l2.68,1.54a13,13,0,0,1-.71-4.09c0-3.4,1.72-5.37,4.2-5.37a6.86,6.86,0,0,1,3.4,1,16.62,16.62,0,0,1,7.54,13.07,6.88,6.88,0,0,1-.72,3.27l3.79,2.19,0-10.42-3.85-5.64-1.8-1.55a151.68,151.68,0,0,1-18.3-18.6l-4.92-6a30.52,30.52,0,0,0-8.2-6.94L59.5,66.12a15.24,15.24,0,0,0-7.58-2Z"/><path class="cls-68" d="M58.24,68.31l6.54,3.78v9.16L42,68.09l7.89-1.31a12.78,12.78,0,0,1,2.05-.16A12.65,12.65,0,0,1,58.24,68.31Z"/><path class="cls-69" d="M51.92,66.87a12.32,12.32,0,0,1,6.19,1.66l6.42,3.7v8.58L42.71,68.22,49.92,67a11.58,11.58,0,0,1,2-.16m0-.25a12.78,12.78,0,0,0-2.05.16L42,68.09l22.8,13.16V72.09l-6.54-3.78a12.65,12.65,0,0,0-6.32-1.69Z"/><path class="cls-70" d="M84.32,89c-.28-.31-.53-.62-.8-.94l-4.92-6a27.84,27.84,0,0,0-7.52-6.35l-2.31-1.34v9.17l15.55,9L91,96.35C88.64,94,86.43,91.5,84.32,89Z"/><path class="cls-71" d="M69,74.82,71,75.94a27.67,27.67,0,0,1,7.44,6.3l4.93,6,.21.25c.19.24.39.47.59.69,1.75,2.1,3.57,4.15,5.44,6.13l-5.13-3L69,83.41V74.82m-.25-.43v9.17l15.55,9L91,96.35C88.64,94,86.43,91.5,84.32,89c-.28-.31-.53-.62-.8-.94l-4.92-6a27.84,27.84,0,0,0-7.52-6.35l-2.31-1.34Z"/><g class="cls-72"><polygon class="cls-73" points="71.46 88.25 68.77 86.7 68.77 85.74 71.46 87.29 71.46 88.25"/><path class="cls-73" d="M69,86.17l2.19,1.27v.38L69,86.55v-.38m-.25-.43v1l2.69,1.55v-1l-2.69-1.55Z"/></g><g class="cls-72"><polygon class="cls-74" points="64.78 84.63 62.09 83.08 62.09 82.11 64.78 83.67 64.78 84.63"/><path class="cls-74" d="M62.34,82.55l2.19,1.26v.39l-2.19-1.27v-.38m-.25-.44v1l2.69,1.55v-1l-2.69-1.56Z"/></g></g></g></g></g></g></svg>