<svg xmlns="http://www.w3.org/2000/svg" xmlns:xlink="http://www.w3.org/1999/xlink" viewBox="0 0 150 150"><defs><style>.cls-1,.cls-2{fill:none;}.cls-2{stroke:#fff;stroke-miterlimit:10;stroke-width:0.1px;}.cls-3{isolation:isolate;}.cls-4{opacity:0;}.cls-5{fill:#000714;}.cls-6{opacity:0.1;fill:url(#新建图案);}.cls-7{fill:#85aae6;}.cls-8{fill:url(#未命名的渐变_10);}.cls-9{fill:#4e5f79;}.cls-10{fill:#7696cb;}.cls-11{fill:#13161a;}.cls-12{fill:#6784b3;}.cls-13{fill:#00c4fa;}.cls-14{fill:url(#未命名的渐变_10-2);}.cls-15{fill:#597199;}.cls-16{fill:#00a9e6;}.cls-17{fill:url(#未命名的渐变_10-3);}.cls-18{fill:url(#未命名的渐变_10-4);}.cls-19,.cls-24{mix-blend-mode:multiply;}.cls-19{fill:url(#未命名的渐变_48);}.cls-20{fill:#00d5ff;}.cls-21{fill:url(#未命名的渐变_10-5);}.cls-22{fill:url(#未命名的渐变_13);}.cls-23{fill:url(#未命名的渐变_10-6);}.cls-24{fill:url(#未命名的渐变_48-2);}.cls-25{fill:url(#未命名的渐变_10-7);}.cls-26{fill:url(#未命名的渐变_10-8);}.cls-27{fill:url(#未命名的渐变_10-9);}.cls-28{fill:#14171b;}.cls-29{opacity:0.2;}</style><pattern id="新建图案" data-name="新建图案" width="18.57" height="32.16" patternTransform="translate(3633.77 727.44)" patternUnits="userSpaceOnUse" viewBox="0 0 18.57 32.16"><rect class="cls-1" width="18.57" height="32.16"/><polyline class="cls-2" points="18.57 21.44 18.57 32.16 18.57 42.88"/><polyline class="cls-2" points="9.29 26.8 18.57 32.16 27.85 37.51 27.85 37.52"/><polyline class="cls-2" points="9.29 37.52 9.29 37.51 18.57 32.16 27.85 26.8"/><polygon class="cls-2" points="27.85 37.52 27.85 26.8 18.57 21.44 9.28 26.8 9.28 37.52 18.57 42.88 27.85 37.52"/><polyline class="cls-2" points="0 21.44 0 32.16 0 42.88"/><polyline class="cls-2" points="-9.28 26.8 0 32.16 9.28 37.51 9.28 37.52"/><polyline class="cls-2" points="-9.28 37.52 -9.28 37.51 0 32.16 9.28 26.8"/><polygon class="cls-2" points="9.28 37.52 9.28 26.8 0 21.44 -9.29 26.8 -9.29 37.52 0 42.88 9.28 37.52"/><polyline class="cls-2" points="18.57 10.72 27.85 16.08 37.13 21.43 37.13 21.44"/><polyline class="cls-2" points="18.57 21.44 18.57 21.43 27.85 16.08 37.13 10.72"/><polygon class="cls-2" points="37.14 21.44 37.14 10.72 27.85 5.36 18.57 10.72 18.57 21.44 27.85 26.8 37.14 21.44"/><polyline class="cls-2" points="9.29 5.36 9.29 16.08 9.29 26.8"/><polyline class="cls-2" points="0.01 10.72 9.29 16.08 18.57 21.43 18.57 21.44"/><polyline class="cls-2" points="0.01 21.44 0.01 21.43 9.29 16.08 18.57 10.72"/><polygon class="cls-2" points="18.57 21.44 18.57 10.72 9.28 5.36 0 10.72 0 21.44 9.28 26.8 18.57 21.44"/><polyline class="cls-2" points="-18.56 10.72 -9.28 16.08 0 21.43 0 21.44"/><polyline class="cls-2" points="-18.56 21.44 -18.56 21.43 -9.28 16.08 0 10.72"/><polygon class="cls-2" points="0 21.44 0 10.72 -9.29 5.36 -18.57 10.72 -18.57 21.44 -9.29 26.8 0 21.44"/><polyline class="cls-2" points="18.57 -10.72 18.57 0 18.57 10.72"/><polyline class="cls-2" points="9.29 -5.36 18.57 0 27.85 5.35 27.85 5.36"/><polyline class="cls-2" points="9.29 5.36 9.29 5.35 18.57 0 27.85 -5.36"/><polygon class="cls-2" points="27.85 5.36 27.85 -5.36 18.57 -10.72 9.28 -5.36 9.28 5.36 18.57 10.72 27.85 5.36"/><polyline class="cls-2" points="0 -10.72 0 0 0 10.72"/><polyline class="cls-2" points="-9.28 -5.36 0 0 9.28 5.35 9.28 5.36"/><polyline class="cls-2" points="-9.28 5.36 -9.28 5.35 0 0 9.28 -5.36"/><polygon class="cls-2" points="9.28 5.36 9.28 -5.36 0 -10.72 -9.29 -5.36 -9.29 5.36 0 10.72 9.28 5.36"/></pattern><linearGradient id="未命名的渐变_10" x1="37.5" y1="39" x2="53.84" y2="39" gradientUnits="userSpaceOnUse"><stop offset="0" stop-color="#283140"/><stop offset="1" stop-color="#12161a"/></linearGradient><linearGradient id="未命名的渐变_10-2" x1="4.33" y1="64.51" x2="40.12" y2="64.51" xlink:href="#未命名的渐变_10"/><linearGradient id="未命名的渐变_10-3" x1="1.56" y1="53.12" x2="37.35" y2="53.12" xlink:href="#未命名的渐变_10"/><linearGradient id="未命名的渐变_10-4" x1="4.33" y1="54.74" x2="40.12" y2="54.74" xlink:href="#未命名的渐变_10"/><linearGradient id="未命名的渐变_48" x1="44.49" y1="48.65" x2="36.33" y2="43.94" gradientUnits="userSpaceOnUse"><stop offset="0" stop-color="#142439" stop-opacity="0"/><stop offset="1" stop-color="#142439" stop-opacity="0.6"/></linearGradient><linearGradient id="未命名的渐变_10-5" x1="119.26" y1="110.05" x2="154.21" y2="75.11" xlink:href="#未命名的渐变_10"/><linearGradient id="未命名的渐变_13" x1="46.94" y1="40.13" x2="143.63" y2="40.13" gradientUnits="userSpaceOnUse"><stop offset="0" stop-color="#89abe6"/><stop offset="1" stop-color="#547099"/></linearGradient><linearGradient id="未命名的渐变_10-6" x1="133.66" y1="95.31" x2="150" y2="95.31" xlink:href="#未命名的渐变_10"/><linearGradient id="未命名的渐变_48-2" x1="140.69" y1="104.97" x2="132.53" y2="100.26" xlink:href="#未命名的渐变_48"/><linearGradient id="未命名的渐变_10-7" x1="100.49" y1="120.82" x2="136.28" y2="120.82" xlink:href="#未命名的渐变_10"/><linearGradient id="未命名的渐变_10-8" x1="97.72" y1="109.44" x2="133.51" y2="109.44" xlink:href="#未命名的渐变_10"/><linearGradient id="未命名的渐变_10-9" x1="100.49" y1="111.05" x2="136.28" y2="111.05" xlink:href="#未命名的渐变_10"/></defs><title>泄洪道</title><g class="cls-3"><g id="图层_2" data-name="图层 2"><g id="图元"><g id="泄洪道"><g id="背景" class="cls-4"><rect class="cls-5" width="150" height="150"/><rect id="网格" class="cls-6" width="150" height="150"/></g><g class="cls-3"><polygon class="cls-7" points="39.41 22.68 31.17 62.47 37.5 66.15 45.74 26.36 39.41 22.68"/><polygon class="cls-8" points="53.84 56.72 53.71 11.85 45.71 16.47 45.74 26.36 37.5 66.15 53.84 56.72"/><polygon class="cls-9" points="45.71 16.47 39.38 12.79 39.41 22.68 45.74 26.36 45.71 16.47"/><polygon class="cls-10" points="47.38 8.17 39.38 12.79 45.71 16.47 53.71 11.85 47.38 8.17"/></g><polygon class="cls-11" points="43.06 25.91 37.58 52.55 37.5 52.94 34.91 51.44 40.67 24.52 41.82 25.18 43.06 25.91"/><polygon class="cls-12" points="43.06 25.91 37.58 52.55 36.33 51.82 41.82 25.18 43.06 25.91"/><polygon class="cls-13" points="43.06 25.91 37.58 52.55 36.33 51.82 41.82 25.18 43.06 25.91"/><g class="cls-3"><polygon class="cls-11" points="40.89 33.67 40.91 42.32 43.01 32.45 40.89 33.67"/><polygon class="cls-9" points="40.89 33.67 39.7 32.98 39.73 41.63 40.91 42.32 40.89 33.67"/><polygon class="cls-10" points="41.82 31.76 39.7 32.98 40.89 33.67 43.01 32.45 41.82 31.76"/></g><g class="cls-3"><polygon class="cls-11" points="37.29 31.67 37.31 40.32 39.4 30.45 37.29 31.67"/><polygon class="cls-9" points="37.29 31.67 36.1 30.98 36.12 39.63 37.31 40.32 37.29 31.67"/><polygon class="cls-10" points="38.22 29.76 36.1 30.98 37.29 31.67 39.4 30.45 38.22 29.76"/></g><g class="cls-3"><polygon class="cls-14" points="32.96 54.27 4.33 70.79 5.25 87.11 34.4 69.28 40.12 41.9 32.96 54.27"/><polygon class="cls-9" points="4.33 70.79 1.17 68.95 0 84.06 5.25 87.11 4.33 70.79"/><polygon class="cls-15" points="32.58 50.86 1.17 68.95 4.33 70.79 32.96 54.27 34.35 51.89 32.58 50.86"/><polygon class="cls-16" points="32.58 50.86 1.17 68.95 4.33 70.79 32.96 54.27 34.35 51.89 32.58 50.86"/></g><g class="cls-3"><polygon class="cls-7" points="36.94 36.82 28.97 50.63 29.36 50.86 37.34 37.05 36.94 36.82"/><polygon class="cls-17" points="37.34 37.05 29.36 50.86 1.56 66.91 1.57 69.2 35.51 49.61 37.35 40.29 37.34 37.05"/><polygon class="cls-9" points="1.56 66.91 1.17 66.68 1.17 68.97 1.57 69.2 1.56 66.91"/><polygon class="cls-10" points="28.97 50.63 1.17 66.68 1.56 66.91 29.36 50.86 28.97 50.63"/></g><g class="cls-3"><polygon class="cls-7" points="39.71 38.43 31.74 52.24 32.13 52.47 40.11 38.66 39.71 38.43"/><polygon class="cls-18" points="40.11 38.66 32.13 52.47 4.33 68.52 4.34 70.81 32.96 54.29 40.12 41.9 40.11 38.66"/><polygon class="cls-9" points="4.33 68.52 3.94 68.29 3.94 70.58 4.34 70.81 4.33 68.52"/><polygon class="cls-10" points="31.74 52.24 3.94 68.29 4.33 68.52 32.13 52.47 31.74 52.24"/></g><polygon class="cls-19" points="42.97 32.45 43.78 35.65 39.18 57.85 36.44 59.33 40.08 41.9 40.07 38.66 40.87 42.32 42.97 32.45"/><polygon class="cls-20" points="3.94 86.35 1.57 84.97 1.57 69.2 3.94 70.58 3.94 86.35"/><g class="cls-3"><polygon class="cls-7" points="46.96 20.47 37.51 66.11 127.82 118.61 137.27 72.97 46.96 20.47"/><polygon class="cls-21" points="143.76 109.41 143.63 64.53 137.26 68.22 137.27 72.97 127.82 118.61 143.76 109.41"/><polygon class="cls-9" points="137.26 68.22 46.95 15.72 46.96 20.47 137.27 72.97 137.26 68.22"/><polygon class="cls-22" points="53.32 12.04 46.95 15.72 137.26 68.22 143.63 64.53 53.32 12.04"/></g><polygon class="cls-20" points="50.82 18 50.82 22.75 48.47 21.39 48.47 16.64 50.82 18"/><polygon class="cls-13" points="49.71 22.1 43.76 50.96 42.51 50.24 48.47 21.38 49.71 22.1"/><g class="cls-3"><polygon class="cls-9" points="37.37 50.51 36.98 50.27 37.03 67.71 37.37 67.98 37.37 50.51"/><polygon class="cls-10" points="40.55 48.21 36.98 50.27 37.37 50.51 40.95 48.44 40.55 48.21"/><polygon class="cls-7" points="45.89 22.41 40.55 48.21 40.95 48.44 46.28 22.64 45.89 22.41"/><polygon class="cls-11" points="48.45 16.63 46.27 17.89 46.28 22.64 40.95 48.44 37.37 50.51 37.37 67.98 39.02 67.02 48.47 21.38 48.45 16.63"/><polygon class="cls-9" points="46.27 17.89 45.88 17.66 45.89 22.41 46.28 22.64 46.27 17.89"/><polygon class="cls-10" points="48.06 16.4 45.88 17.66 46.27 17.89 48.45 16.63 48.06 16.4"/></g><polygon class="cls-10" points="42.52 50.19 37.37 53.18 39.77 54.56 44.91 51.57 42.52 50.19"/><polygon class="cls-16" points="42.52 50.19 37.37 53.18 39.77 54.56 44.91 51.57 42.52 50.19"/><g class="cls-3"><polygon class="cls-9" points="40.15 52.11 39.75 51.88 39.8 69.31 40.15 69.58 40.15 52.11"/><polygon class="cls-10" points="43.32 49.82 39.75 51.88 40.15 52.11 43.72 50.05 43.32 49.82"/><polygon class="cls-7" points="48.66 24.01 43.32 49.82 43.72 50.05 49.06 24.24 48.66 24.01"/><polygon class="cls-11" points="51.23 18.23 49.05 19.49 49.06 24.24 43.72 50.05 40.15 52.11 40.15 69.58 41.79 68.62 51.24 22.98 51.23 18.23"/><polygon class="cls-9" points="49.05 19.49 48.65 19.26 48.66 24.01 49.06 24.24 49.05 19.49"/><polygon class="cls-10" points="50.83 18 48.65 19.26 49.05 19.49 51.23 18.23 50.83 18"/></g><g class="cls-3"><polygon class="cls-10" points="37.38 60.58 31.05 64.26 33.44 65.64 39.77 61.96 37.38 60.58"/><polygon class="cls-16" points="37.38 60.58 31.05 64.26 33.44 65.64 39.77 61.96 37.38 60.58"/><polygon class="cls-10" points="36.99 55.86 30.66 59.54 31.06 59.77 37.39 56.09 36.99 55.86"/><polygon class="cls-11" points="31.06 59.77 31.05 64.26 37.38 60.58 37.39 56.09 31.06 59.77"/><polygon class="cls-9" points="33.45 61.15 33.44 65.64 31.05 64.26 31.06 59.77 30.66 59.54 30.63 71.42 31.02 71.65 33.42 73.03 33.81 73.26 33.85 61.38 33.45 61.15"/><polygon class="cls-11" points="33.85 61.38 33.81 73.26 40.15 69.58 40.18 57.7 33.85 61.38"/><polygon class="cls-10" points="39.78 57.47 33.45 61.15 33.85 61.38 40.18 57.7 39.78 57.47"/></g><polygon class="cls-9" points="40.15 54.79 40.15 57.7 36.99 55.88 36.98 52.96 40.15 54.79"/><polygon class="cls-20" points="55.66 20.83 55.66 25.58 53.31 24.22 53.3 19.47 55.66 20.83"/><polygon class="cls-13" points="54.55 24.93 48.6 53.79 47.34 53.07 53.3 24.21 54.55 24.93"/><g class="cls-3"><polygon class="cls-9" points="42.21 53.34 41.81 53.11 41.86 70.54 42.21 70.81 42.21 53.34"/><polygon class="cls-10" points="45.39 51.04 41.81 53.11 42.21 53.34 45.78 51.27 45.39 51.04"/><polygon class="cls-7" points="50.73 25.24 45.39 51.04 45.78 51.27 51.12 25.47 50.73 25.24"/><polygon class="cls-11" points="53.29 19.46 51.11 20.72 51.12 25.47 45.78 51.27 42.21 53.34 42.21 70.81 43.85 69.85 53.3 24.21 53.29 19.46"/><polygon class="cls-9" points="51.11 20.72 50.71 20.49 50.73 25.24 51.12 25.47 51.11 20.72"/><polygon class="cls-10" points="52.89 19.23 50.71 20.49 51.11 20.72 53.29 19.46 52.89 19.23"/></g><polygon class="cls-10" points="47.36 53.02 42.21 56.01 44.6 57.39 49.75 54.4 47.36 53.02"/><polygon class="cls-16" points="47.36 53.02 42.21 56.01 44.6 57.39 49.75 54.4 47.36 53.02"/><g class="cls-3"><polygon class="cls-9" points="44.98 54.94 44.59 54.71 44.64 72.14 44.98 72.41 44.98 54.94"/><polygon class="cls-10" points="48.16 52.65 44.59 54.71 44.98 54.94 48.56 52.88 48.16 52.65"/><polygon class="cls-7" points="53.5 26.84 48.16 52.65 48.56 52.88 53.9 27.07 53.5 26.84"/><polygon class="cls-11" points="56.06 21.06 53.88 22.32 53.9 27.07 48.56 52.88 44.98 54.94 44.98 72.41 46.63 71.45 56.08 25.81 56.06 21.06"/><polygon class="cls-9" points="53.88 22.32 53.49 22.09 53.5 26.84 53.9 27.07 53.88 22.32"/><polygon class="cls-10" points="55.67 20.83 53.49 22.09 53.88 22.32 56.06 21.06 55.67 20.83"/></g><g class="cls-3"><polygon class="cls-10" points="42.22 63.41 35.88 67.09 38.27 68.47 44.61 64.79 42.22 63.41"/><polygon class="cls-16" points="42.22 63.41 35.88 67.09 38.27 68.47 44.61 64.79 42.22 63.41"/><polygon class="cls-10" points="41.83 58.69 35.5 62.37 35.9 62.6 42.23 58.92 41.83 58.69"/><polygon class="cls-11" points="35.9 62.6 35.88 67.09 42.22 63.41 42.23 58.92 35.9 62.6"/><polygon class="cls-9" points="38.29 63.98 38.27 68.47 35.88 67.09 35.9 62.6 35.5 62.37 35.46 74.25 35.86 74.48 38.25 75.86 38.65 76.09 38.69 64.21 38.29 63.98"/><polygon class="cls-11" points="38.69 64.21 38.65 76.09 44.98 72.41 45.02 60.53 38.69 64.21"/><polygon class="cls-10" points="44.62 60.3 38.29 63.98 38.69 64.21 45.02 60.53 44.62 60.3"/></g><polygon class="cls-9" points="44.99 57.62 44.99 60.53 41.83 58.71 41.82 55.79 44.99 57.62"/><polygon class="cls-20" points="60.5 23.66 60.5 28.41 58.15 27.05 58.14 22.3 60.5 23.66"/><polygon class="cls-13" points="59.39 27.76 53.44 56.62 52.18 55.9 58.14 27.04 59.39 27.76"/><g class="cls-3"><polygon class="cls-9" points="47.05 56.16 46.65 55.94 46.7 73.37 47.05 73.64 47.05 56.16"/><polygon class="cls-10" points="50.22 53.87 46.65 55.94 47.05 56.16 50.62 54.1 50.22 53.87"/><polygon class="cls-7" points="55.56 28.07 50.22 53.87 50.62 54.1 55.96 28.3 55.56 28.07"/><polygon class="cls-11" points="58.13 22.29 55.95 23.55 55.96 28.3 50.62 54.1 47.05 56.16 47.05 73.64 48.69 72.68 58.14 27.04 58.13 22.29"/><polygon class="cls-9" points="55.95 23.55 55.55 23.32 55.56 28.07 55.96 28.3 55.95 23.55"/><polygon class="cls-10" points="57.73 22.06 55.55 23.32 55.95 23.55 58.13 22.29 57.73 22.06"/></g><polygon class="cls-10" points="52.2 55.84 47.05 58.84 49.44 60.22 54.59 57.23 52.2 55.84"/><polygon class="cls-16" points="52.2 55.84 47.05 58.84 49.44 60.22 54.59 57.23 52.2 55.84"/><g class="cls-3"><polygon class="cls-9" points="49.82 57.77 49.42 57.54 49.47 74.97 49.82 75.24 49.82 57.77"/><polygon class="cls-10" points="53 55.48 49.42 57.54 49.82 57.77 53.39 55.71 53 55.48"/><polygon class="cls-7" points="58.34 29.67 53 55.48 53.39 55.71 58.73 29.9 58.34 29.67"/><polygon class="cls-11" points="60.9 23.89 58.72 25.15 58.73 29.9 53.39 55.71 49.82 57.77 49.82 75.24 51.47 74.28 60.91 28.64 60.9 23.89"/><polygon class="cls-9" points="58.72 25.15 58.32 24.92 58.34 29.67 58.73 29.9 58.72 25.15"/><polygon class="cls-10" points="60.5 23.66 58.32 24.92 58.72 25.15 60.9 23.89 60.5 23.66"/></g><g class="cls-3"><polygon class="cls-10" points="47.05 66.24 40.72 69.92 43.11 71.3 49.44 67.62 47.05 66.24"/><polygon class="cls-16" points="47.05 66.24 40.72 69.92 43.11 71.3 49.44 67.62 47.05 66.24"/><polygon class="cls-10" points="46.67 61.52 40.33 65.2 40.73 65.43 47.06 61.75 46.67 61.52"/><polygon class="cls-11" points="40.73 65.43 40.72 69.92 47.05 66.24 47.06 61.75 40.73 65.43"/><polygon class="cls-9" points="43.12 66.81 43.11 71.3 40.72 69.92 40.73 65.43 40.33 65.2 40.3 77.08 40.7 77.31 43.09 78.69 43.49 78.92 43.52 67.04 43.12 66.81"/><polygon class="cls-11" points="43.52 67.04 43.49 78.92 49.82 75.24 49.85 63.36 43.52 67.04"/><polygon class="cls-10" points="49.46 63.13 43.12 66.81 43.52 67.04 49.85 63.36 49.46 63.13"/></g><polygon class="cls-9" points="49.82 60.45 49.82 63.36 46.67 61.53 46.65 58.62 49.82 60.45"/><polygon class="cls-20" points="65.33 26.46 65.33 31.2 62.98 29.84 62.98 25.1 65.33 26.46"/><polygon class="cls-13" points="64.22 30.56 58.27 59.42 57.02 58.7 62.98 29.84 64.22 30.56"/><g class="cls-3"><polygon class="cls-9" points="51.88 58.96 51.49 58.73 51.54 76.17 51.88 76.44 51.88 58.96"/><polygon class="cls-10" points="55.06 56.67 51.49 58.73 51.88 58.96 55.45 56.9 55.06 56.67"/><polygon class="cls-7" points="60.4 30.86 55.06 56.67 55.45 56.9 60.8 31.09 60.4 30.86"/><polygon class="cls-11" points="62.96 25.09 60.78 26.34 60.8 31.09 55.45 56.9 51.88 58.96 51.88 76.44 53.53 75.48 62.98 29.84 62.96 25.09"/><polygon class="cls-9" points="60.78 26.34 60.39 26.11 60.4 30.86 60.8 31.09 60.78 26.34"/><polygon class="cls-10" points="62.57 24.86 60.39 26.11 60.78 26.34 62.96 25.09 62.57 24.86"/></g><polygon class="cls-10" points="57.03 58.64 51.88 61.64 54.27 63.02 59.42 60.02 57.03 58.64"/><polygon class="cls-16" points="57.03 58.64 51.88 61.64 54.27 63.02 59.42 60.02 57.03 58.64"/><g class="cls-3"><polygon class="cls-9" points="54.66 60.57 54.26 60.34 54.31 77.77 54.66 78.04 54.66 60.57"/><polygon class="cls-10" points="57.83 58.27 54.26 60.34 54.66 60.57 58.23 58.5 57.83 58.27"/><polygon class="cls-7" points="63.17 32.47 57.83 58.27 58.23 58.5 63.57 32.7 63.17 32.47"/><polygon class="cls-11" points="65.74 26.69 63.56 27.95 63.57 32.7 58.23 58.5 54.66 60.57 54.66 78.04 56.3 77.08 65.75 31.44 65.74 26.69"/><polygon class="cls-9" points="63.56 27.95 63.16 27.72 63.17 32.47 63.57 32.7 63.56 27.95"/><polygon class="cls-10" points="65.34 26.46 63.16 27.72 63.56 27.95 65.74 26.69 65.34 26.46"/></g><g class="cls-3"><polygon class="cls-10" points="51.89 69.03 45.55 72.72 47.95 74.1 54.28 70.42 51.89 69.03"/><polygon class="cls-16" points="51.89 69.03 45.55 72.72 47.95 74.1 54.28 70.42 51.89 69.03"/><polygon class="cls-10" points="51.5 64.32 45.17 68 45.57 68.23 51.9 64.55 51.5 64.32"/><polygon class="cls-11" points="45.57 68.23 45.55 72.72 51.89 69.03 51.9 64.55 45.57 68.23"/><polygon class="cls-9" points="47.96 69.61 47.95 74.1 45.55 72.72 45.57 68.23 45.17 68 45.14 79.88 45.53 80.11 47.93 81.49 48.32 81.72 48.36 69.84 47.96 69.61"/><polygon class="cls-11" points="48.36 69.84 48.32 81.72 54.66 78.04 54.69 66.16 48.36 69.84"/><polygon class="cls-10" points="54.29 65.93 47.96 69.61 48.36 69.84 54.69 66.16 54.29 65.93"/></g><polygon class="cls-9" points="54.66 63.25 54.66 66.16 51.5 64.33 51.49 61.41 54.66 63.25"/><polygon class="cls-20" points="70.17 29.26 70.17 34 67.82 32.64 67.81 27.9 70.17 29.26"/><polygon class="cls-13" points="69.06 33.36 63.11 62.22 61.85 61.49 67.81 32.63 69.06 33.36"/><g class="cls-3"><polygon class="cls-9" points="56.72 61.76 56.32 61.53 56.37 78.97 56.72 79.23 56.72 61.76"/><polygon class="cls-10" points="59.9 59.47 56.32 61.53 56.72 61.76 60.29 59.7 59.9 59.47"/><polygon class="cls-7" points="65.24 33.66 59.9 59.47 60.29 59.7 65.63 33.89 65.24 33.66"/><polygon class="cls-11" points="67.8 27.88 65.62 29.14 65.63 33.89 60.29 59.7 56.72 61.76 56.72 79.23 58.37 78.28 67.81 32.63 67.8 27.88"/><polygon class="cls-9" points="65.62 29.14 65.22 28.91 65.24 33.66 65.63 33.89 65.62 29.14"/><polygon class="cls-10" points="67.4 27.65 65.22 28.91 65.62 29.14 67.8 27.88 67.4 27.65"/></g><polygon class="cls-10" points="61.87 61.44 56.72 64.44 59.11 65.82 64.26 62.82 61.87 61.44"/><polygon class="cls-16" points="61.87 61.44 56.72 64.44 59.11 65.82 64.26 62.82 61.87 61.44"/><g class="cls-3"><polygon class="cls-9" points="59.49 63.37 59.1 63.13 59.15 80.57 59.49 80.84 59.49 63.37"/><polygon class="cls-10" points="62.67 61.07 59.1 63.13 59.49 63.37 63.07 61.3 62.67 61.07"/><polygon class="cls-7" points="68.01 35.27 62.67 61.07 63.07 61.3 68.41 35.5 68.01 35.27"/><polygon class="cls-11" points="70.57 29.49 68.39 30.75 68.41 35.5 63.07 61.3 59.49 63.37 59.49 80.84 61.14 79.88 70.59 34.24 70.57 29.49"/><polygon class="cls-9" points="68.39 30.75 68 30.52 68.01 35.27 68.41 35.5 68.39 30.75"/><polygon class="cls-10" points="70.18 29.26 68 30.52 68.39 30.75 70.57 29.49 70.18 29.26"/></g><g class="cls-3"><polygon class="cls-10" points="56.73 71.83 50.39 75.52 52.78 76.9 59.12 73.22 56.73 71.83"/><polygon class="cls-16" points="56.73 71.83 50.39 75.52 52.78 76.9 59.12 73.22 56.73 71.83"/><polygon class="cls-10" points="56.34 67.12 50.01 70.8 50.41 71.03 56.74 67.35 56.34 67.12"/><polygon class="cls-11" points="50.41 71.03 50.39 75.52 56.73 71.83 56.74 67.35 50.41 71.03"/><polygon class="cls-9" points="52.8 72.41 52.78 76.9 50.39 75.52 50.41 71.03 50.01 70.8 49.97 82.68 50.37 82.91 52.76 84.29 53.16 84.52 53.2 72.64 52.8 72.41"/><polygon class="cls-11" points="53.2 72.64 53.16 84.52 59.49 80.84 59.53 68.96 53.2 72.64"/><polygon class="cls-10" points="59.13 68.73 52.8 72.41 53.2 72.64 59.53 68.96 59.13 68.73"/></g><polygon class="cls-9" points="59.5 66.05 59.5 68.96 56.34 67.13 56.33 64.21 59.5 66.05"/><polygon class="cls-20" points="75.01 32.08 75.01 36.82 72.66 35.46 72.65 30.71 75.01 32.08"/><polygon class="cls-13" points="73.9 36.18 67.94 65.04 66.69 64.31 72.65 35.45 73.9 36.18"/><g class="cls-3"><polygon class="cls-9" points="61.56 64.58 61.16 64.35 61.21 81.78 61.56 82.05 61.56 64.58"/><polygon class="cls-10" points="64.73 62.29 61.16 64.35 61.56 64.58 65.13 62.52 64.73 62.29"/><polygon class="cls-7" points="70.07 36.48 64.73 62.29 65.13 62.52 70.47 36.71 70.07 36.48"/><polygon class="cls-11" points="72.64 30.7 70.45 31.96 70.47 36.71 65.13 62.52 61.56 64.58 61.56 82.05 63.2 81.09 72.65 35.45 72.64 30.7"/><polygon class="cls-9" points="70.45 31.96 70.06 31.73 70.07 36.48 70.47 36.71 70.45 31.96"/><polygon class="cls-10" points="72.24 30.47 70.06 31.73 70.45 31.96 72.64 30.7 72.24 30.47"/></g><polygon class="cls-10" points="66.71 64.26 61.56 67.26 63.95 68.64 69.1 65.64 66.71 64.26"/><polygon class="cls-16" points="66.71 64.26 61.56 67.26 63.95 68.64 69.1 65.64 66.71 64.26"/><g class="cls-3"><polygon class="cls-9" points="64.33 66.18 63.94 65.95 63.98 83.39 64.33 83.66 64.33 66.18"/><polygon class="cls-10" points="67.51 63.89 63.94 65.95 64.33 66.18 67.9 64.12 67.51 63.89"/><polygon class="cls-7" points="72.85 38.09 67.51 63.89 67.9 64.12 73.24 38.32 72.85 38.09"/><polygon class="cls-11" points="75.41 32.31 73.23 33.56 73.24 38.32 67.9 64.12 64.33 66.18 64.33 83.66 65.98 82.7 75.42 37.06 75.41 32.31"/><polygon class="cls-9" points="73.23 33.56 72.83 33.34 72.85 38.09 73.24 38.32 73.23 33.56"/><polygon class="cls-10" points="75.01 32.08 72.83 33.34 73.23 33.56 75.41 32.31 75.01 32.08"/></g><g class="cls-3"><polygon class="cls-10" points="61.56 74.65 55.23 78.33 57.62 79.71 63.95 76.03 61.56 74.65"/><polygon class="cls-16" points="61.56 74.65 55.23 78.33 57.62 79.71 63.95 76.03 61.56 74.65"/><polygon class="cls-10" points="61.18 69.94 54.84 73.62 55.24 73.85 61.58 70.17 61.18 69.94"/><polygon class="cls-11" points="55.24 73.85 55.23 78.33 61.56 74.65 61.58 70.17 55.24 73.85"/><polygon class="cls-9" points="57.63 75.23 57.62 79.71 55.23 78.33 55.24 73.85 54.84 73.62 54.81 85.5 55.21 85.73 57.6 87.11 58 87.34 58.03 75.46 57.63 75.23"/><polygon class="cls-11" points="58.03 75.46 58 87.34 64.33 83.66 64.36 71.78 58.03 75.46"/><polygon class="cls-10" points="63.97 71.55 57.63 75.23 58.03 75.46 64.36 71.78 63.97 71.55"/></g><polygon class="cls-9" points="64.33 68.86 64.33 71.78 61.18 69.95 61.16 67.03 64.33 68.86"/><polygon class="cls-20" points="79.84 34.91 79.84 39.65 77.49 38.29 77.49 33.55 79.84 34.91"/><polygon class="cls-13" points="78.73 39.01 72.78 67.87 71.53 67.14 77.49 38.28 78.73 39.01"/><g class="cls-3"><polygon class="cls-9" points="66.39 67.41 66 67.18 66.05 84.61 66.39 84.88 66.39 67.41"/><polygon class="cls-10" points="69.57 65.12 66 67.18 66.39 67.41 69.97 65.35 69.57 65.12"/><polygon class="cls-7" points="74.91 39.31 69.57 65.12 69.97 65.35 75.31 39.54 74.91 39.31"/><polygon class="cls-11" points="77.47 33.53 75.29 34.79 75.31 39.54 69.97 65.35 66.39 67.41 66.39 84.88 68.04 83.92 77.49 38.28 77.47 33.53"/><polygon class="cls-9" points="75.29 34.79 74.9 34.56 74.91 39.31 75.31 39.54 75.29 34.79"/><polygon class="cls-10" points="77.08 33.3 74.9 34.56 75.29 34.79 77.47 33.53 77.08 33.3"/></g><polygon class="cls-10" points="71.54 67.09 66.39 70.09 68.78 71.47 73.94 68.47 71.54 67.09"/><polygon class="cls-16" points="71.54 67.09 66.39 70.09 68.78 71.47 73.94 68.47 71.54 67.09"/><g class="cls-3"><polygon class="cls-9" points="69.17 69.01 68.77 68.78 68.82 86.22 69.17 86.49 69.17 69.01"/><polygon class="cls-10" points="72.34 66.72 68.77 68.78 69.17 69.01 72.74 66.95 72.34 66.72"/><polygon class="cls-7" points="77.68 40.92 72.34 66.72 72.74 66.95 78.08 41.15 77.68 40.92"/><polygon class="cls-11" points="80.25 35.14 78.07 36.4 78.08 41.15 72.74 66.95 69.17 69.01 69.17 86.49 70.81 85.53 80.26 39.89 80.25 35.14"/><polygon class="cls-9" points="78.07 36.4 77.67 36.17 77.68 40.92 78.08 41.15 78.07 36.4"/><polygon class="cls-10" points="79.85 34.91 77.67 36.17 78.07 36.4 80.25 35.14 79.85 34.91"/></g><g class="cls-3"><polygon class="cls-10" points="66.4 77.48 60.06 81.16 62.46 82.55 68.79 78.86 66.4 77.48"/><polygon class="cls-16" points="66.4 77.48 60.06 81.16 62.46 82.55 68.79 78.86 66.4 77.48"/><polygon class="cls-10" points="66.01 72.77 59.68 76.45 60.08 76.68 66.41 73 66.01 72.77"/><polygon class="cls-11" points="60.08 76.68 60.06 81.16 66.4 77.48 66.41 73 60.08 76.68"/><polygon class="cls-9" points="62.47 78.06 62.46 82.55 60.06 81.16 60.08 76.68 59.68 76.45 59.65 88.33 60.04 88.56 62.44 89.94 62.83 90.17 62.87 78.29 62.47 78.06"/><polygon class="cls-11" points="62.87 78.29 62.83 90.17 69.17 86.49 69.2 74.61 62.87 78.29"/><polygon class="cls-10" points="68.8 74.38 62.47 78.06 62.87 78.29 69.2 74.61 68.8 74.38"/></g><polygon class="cls-9" points="69.17 71.69 69.17 74.61 66.01 72.78 66 69.86 69.17 71.69"/><polygon class="cls-20" points="84.68 37.68 84.68 42.43 82.33 41.07 82.32 36.32 84.68 37.68"/><polygon class="cls-13" points="83.57 41.78 77.62 70.64 76.36 69.92 82.32 41.06 83.57 41.78"/><g class="cls-3"><polygon class="cls-9" points="71.23 70.19 70.83 69.96 70.88 87.39 71.23 87.66 71.23 70.19"/><polygon class="cls-10" points="74.41 67.89 70.83 69.96 71.23 70.19 74.8 68.12 74.41 67.89"/><polygon class="cls-7" points="79.75 42.09 74.41 67.89 74.8 68.12 80.14 42.32 79.75 42.09"/><polygon class="cls-11" points="82.31 36.31 80.13 37.57 80.14 42.32 74.8 68.12 71.23 70.19 71.23 87.66 72.88 86.7 82.32 41.06 82.31 36.31"/><polygon class="cls-9" points="80.13 37.57 79.73 37.34 79.75 42.09 80.14 42.32 80.13 37.57"/><polygon class="cls-10" points="81.91 36.08 79.73 37.34 80.13 37.57 82.31 36.31 81.91 36.08"/></g><polygon class="cls-10" points="76.38 69.87 71.23 72.86 73.62 74.24 78.77 71.25 76.38 69.87"/><polygon class="cls-16" points="76.38 69.87 71.23 72.86 73.62 74.24 78.77 71.25 76.38 69.87"/><g class="cls-3"><polygon class="cls-9" points="74 71.79 73.61 71.56 73.66 89 74 89.26 74 71.79"/><polygon class="cls-10" points="77.18 69.5 73.61 71.56 74 71.79 77.58 69.73 77.18 69.5"/><polygon class="cls-7" points="82.52 43.69 77.18 69.5 77.58 69.73 82.92 43.92 82.52 43.69"/><polygon class="cls-11" points="85.08 37.91 82.9 39.17 82.92 43.92 77.58 69.73 74 71.79 74 89.26 75.65 88.3 85.1 42.66 85.08 37.91"/><polygon class="cls-9" points="82.9 39.17 82.51 38.94 82.52 43.69 82.92 43.92 82.9 39.17"/><polygon class="cls-10" points="84.69 37.68 82.51 38.94 82.9 39.17 85.08 37.91 84.69 37.68"/></g><g class="cls-3"><polygon class="cls-10" points="71.24 80.26 64.9 83.94 67.29 85.32 73.63 81.64 71.24 80.26"/><polygon class="cls-16" points="71.24 80.26 64.9 83.94 67.29 85.32 73.63 81.64 71.24 80.26"/><polygon class="cls-10" points="70.85 75.54 64.52 79.22 64.92 79.45 71.25 75.77 70.85 75.54"/><polygon class="cls-11" points="64.92 79.45 64.9 83.94 71.24 80.26 71.25 75.77 64.92 79.45"/><polygon class="cls-9" points="67.31 80.83 67.29 85.32 64.9 83.94 64.92 79.45 64.52 79.22 64.48 91.1 64.88 91.33 67.27 92.71 67.67 92.94 67.7 81.06 67.31 80.83"/><polygon class="cls-11" points="67.7 81.06 67.67 92.94 74 89.26 74.04 77.38 67.7 81.06"/><polygon class="cls-10" points="73.64 77.15 67.31 80.83 67.7 81.06 74.04 77.38 73.64 77.15"/></g><polygon class="cls-9" points="74 74.47 74 77.38 70.85 75.56 70.84 72.64 74 74.47"/><polygon class="cls-20" points="89.52 40.53 89.52 45.27 87.17 43.92 87.16 39.17 89.52 40.53"/><polygon class="cls-13" points="88.41 44.63 82.45 73.49 81.2 72.77 87.16 43.91 88.41 44.63"/><g class="cls-3"><polygon class="cls-9" points="76.07 73.03 75.67 72.8 75.72 90.24 76.07 90.51 76.07 73.03"/><polygon class="cls-10" points="79.24 70.74 75.67 72.8 76.07 73.03 79.64 70.97 79.24 70.74"/><polygon class="cls-7" points="84.58 44.94 79.24 70.74 79.64 70.97 84.98 45.17 84.58 44.94"/><polygon class="cls-11" points="87.15 39.16 84.97 40.41 84.98 45.17 79.64 70.97 76.07 73.03 76.07 90.51 77.71 89.55 87.16 43.91 87.15 39.16"/><polygon class="cls-9" points="84.97 40.41 84.57 40.19 84.58 44.94 84.98 45.17 84.97 40.41"/><polygon class="cls-10" points="86.75 38.93 84.57 40.19 84.97 40.41 87.15 39.16 86.75 38.93"/></g><polygon class="cls-10" points="81.22 72.71 76.07 75.71 78.46 77.09 83.61 74.09 81.22 72.71"/><polygon class="cls-16" points="81.22 72.71 76.07 75.71 78.46 77.09 83.61 74.09 81.22 72.71"/><g class="cls-3"><polygon class="cls-9" points="78.84 74.64 78.44 74.41 78.49 91.84 78.84 92.11 78.84 74.64"/><polygon class="cls-10" points="82.02 72.35 78.44 74.41 78.84 74.64 82.41 72.58 82.02 72.35"/><polygon class="cls-7" points="87.36 46.54 82.02 72.35 82.41 72.58 87.75 46.77 87.36 46.54"/><polygon class="cls-11" points="89.92 40.76 87.74 42.02 87.75 46.77 82.41 72.58 78.84 74.64 78.84 92.11 80.49 91.15 89.93 45.51 89.92 40.76"/><polygon class="cls-9" points="87.74 42.02 87.34 41.79 87.36 46.54 87.75 46.77 87.74 42.02"/><polygon class="cls-10" points="89.52 40.53 87.34 41.79 87.74 42.02 89.92 40.76 89.52 40.53"/></g><g class="cls-3"><polygon class="cls-10" points="76.07 83.11 69.74 86.79 72.13 88.17 78.46 84.49 76.07 83.11"/><polygon class="cls-16" points="76.07 83.11 69.74 86.79 72.13 88.17 78.46 84.49 76.07 83.11"/><polygon class="cls-10" points="75.69 78.39 69.35 82.07 69.75 82.3 76.08 78.62 75.69 78.39"/><polygon class="cls-11" points="69.75 82.3 69.74 86.79 76.07 83.11 76.08 78.62 69.75 82.3"/><polygon class="cls-9" points="72.14 83.68 72.13 88.17 69.74 86.79 69.75 82.3 69.35 82.07 69.32 93.95 69.72 94.18 72.11 95.56 72.51 95.79 72.54 83.91 72.14 83.68"/><polygon class="cls-11" points="72.54 83.91 72.51 95.79 78.84 92.11 78.88 80.23 72.54 83.91"/><polygon class="cls-10" points="78.48 80 72.14 83.68 72.54 83.91 78.88 80.23 78.48 80"/></g><polygon class="cls-9" points="78.84 77.32 78.84 80.23 75.69 78.4 75.67 75.49 78.84 77.32"/><polygon class="cls-20" points="94.35 43.32 94.35 48.06 92 46.71 92 41.96 94.35 43.32"/><polygon class="cls-13" points="93.24 47.42 87.29 76.28 86.04 75.56 92 46.7 93.24 47.42"/><g class="cls-3"><polygon class="cls-9" points="80.9 75.82 80.51 75.59 80.56 93.03 80.9 93.3 80.9 75.82"/><polygon class="cls-10" points="84.08 73.53 80.51 75.59 80.9 75.82 84.47 73.76 84.08 73.53"/><polygon class="cls-7" points="89.42 47.73 84.08 73.53 84.47 73.76 89.81 47.96 89.42 47.73"/><polygon class="cls-11" points="91.98 41.95 89.8 43.2 89.81 47.96 84.47 73.76 80.9 75.82 80.9 93.3 82.55 92.34 92 46.7 91.98 41.95"/><polygon class="cls-9" points="89.8 43.2 89.41 42.97 89.42 47.73 89.81 47.96 89.8 43.2"/><polygon class="cls-10" points="91.59 41.72 89.41 42.97 89.8 43.2 91.98 41.95 91.59 41.72"/></g><polygon class="cls-10" points="86.05 75.5 80.9 78.5 83.29 79.88 88.44 76.88 86.05 75.5"/><polygon class="cls-16" points="86.05 75.5 80.9 78.5 83.29 79.88 88.44 76.88 86.05 75.5"/><g class="cls-3"><polygon class="cls-9" points="83.68 77.43 83.28 77.2 83.33 94.63 83.68 94.9 83.68 77.43"/><polygon class="cls-10" points="86.85 75.14 83.28 77.2 83.68 77.43 87.25 75.36 86.85 75.14"/><polygon class="cls-7" points="92.19 49.33 86.85 75.14 87.25 75.36 92.59 49.56 92.19 49.33"/><polygon class="cls-11" points="94.76 43.55 92.58 44.81 92.59 49.56 87.25 75.36 83.68 77.43 83.68 94.9 85.32 93.94 94.77 48.3 94.76 43.55"/><polygon class="cls-9" points="92.58 44.81 92.18 44.58 92.19 49.33 92.59 49.56 92.58 44.81"/><polygon class="cls-10" points="94.36 43.32 92.18 44.58 92.58 44.81 94.76 43.55 94.36 43.32"/></g><g class="cls-3"><polygon class="cls-10" points="80.91 85.89 74.58 89.58 76.97 90.96 83.3 87.28 80.91 85.89"/><polygon class="cls-16" points="80.91 85.89 74.58 89.58 76.97 90.96 83.3 87.28 80.91 85.89"/><polygon class="cls-10" points="80.52 81.18 74.19 84.86 74.59 85.09 80.92 81.41 80.52 81.18"/><polygon class="cls-11" points="74.59 85.09 74.58 89.58 80.91 85.89 80.92 81.41 74.59 85.09"/><polygon class="cls-9" points="76.98 86.47 76.97 90.96 74.58 89.58 74.59 85.09 74.19 84.86 74.16 96.74 74.55 96.97 76.95 98.35 77.34 98.58 77.38 86.7 76.98 86.47"/><polygon class="cls-11" points="77.38 86.7 77.34 98.58 83.68 94.9 83.71 83.02 77.38 86.7"/><polygon class="cls-10" points="83.31 82.79 76.98 86.47 77.38 86.7 83.71 83.02 83.31 82.79"/></g><polygon class="cls-9" points="83.68 80.11 83.68 83.02 80.52 81.19 80.51 78.28 83.68 80.11"/><polygon class="cls-20" points="99.19 46.15 99.19 50.9 96.84 49.54 96.83 44.79 99.19 46.15"/><polygon class="cls-13" points="98.08 50.25 92.13 79.11 90.88 78.39 96.83 49.53 98.08 50.25"/><g class="cls-3"><polygon class="cls-9" points="85.74 78.65 85.34 78.42 85.39 95.86 85.74 96.13 85.74 78.65"/><polygon class="cls-10" points="88.92 76.36 85.34 78.42 85.74 78.65 89.31 76.59 88.92 76.36"/><polygon class="cls-7" points="94.26 50.56 88.92 76.36 89.31 76.59 94.65 50.79 94.26 50.56"/><polygon class="cls-11" points="96.82 44.78 94.64 46.03 94.65 50.79 89.31 76.59 85.74 78.65 85.74 96.13 87.39 95.17 96.83 49.53 96.82 44.78"/><polygon class="cls-9" points="94.64 46.03 94.24 45.8 94.26 50.56 94.65 50.79 94.64 46.03"/><polygon class="cls-10" points="96.42 44.55 94.24 45.8 94.64 46.03 96.82 44.78 96.42 44.55"/></g><polygon class="cls-10" points="90.89 78.33 85.74 81.33 88.13 82.71 93.28 79.72 90.89 78.33"/><polygon class="cls-16" points="90.89 78.33 85.74 81.33 88.13 82.71 93.28 79.72 90.89 78.33"/><g class="cls-3"><polygon class="cls-9" points="88.51 80.26 88.12 80.03 88.17 97.46 88.52 97.73 88.51 80.26"/><polygon class="cls-10" points="91.69 77.97 88.12 80.03 88.51 80.26 92.09 78.2 91.69 77.97"/><polygon class="cls-7" points="97.03 52.16 91.69 77.97 92.09 78.2 97.43 52.39 97.03 52.16"/><polygon class="cls-11" points="99.59 46.38 97.41 47.64 97.43 52.39 92.09 78.2 88.51 80.26 88.52 97.73 90.16 96.77 99.61 51.13 99.59 46.38"/><polygon class="cls-9" points="97.41 47.64 97.02 47.41 97.03 52.16 97.43 52.39 97.41 47.64"/><polygon class="cls-10" points="99.2 46.15 97.02 47.41 97.41 47.64 99.59 46.38 99.2 46.15"/></g><g class="cls-3"><polygon class="cls-10" points="85.75 88.73 79.41 92.41 81.8 93.79 88.14 90.11 85.75 88.73"/><polygon class="cls-16" points="85.75 88.73 79.41 92.41 81.8 93.79 88.14 90.11 85.75 88.73"/><polygon class="cls-10" points="85.36 84.01 79.03 87.69 79.42 87.92 85.76 84.24 85.36 84.01"/><polygon class="cls-11" points="79.42 87.92 79.41 92.41 85.75 88.73 85.76 84.24 79.42 87.92"/><polygon class="cls-9" points="81.82 89.3 81.8 93.79 79.41 92.41 79.42 87.92 79.03 87.69 78.99 99.57 79.39 99.8 81.78 101.18 82.18 101.41 82.22 89.53 81.82 89.3"/><polygon class="cls-11" points="82.22 89.53 82.18 101.41 88.52 97.73 88.55 85.85 82.22 89.53"/><polygon class="cls-10" points="88.15 85.62 81.82 89.3 82.22 89.53 88.55 85.85 88.15 85.62"/></g><polygon class="cls-9" points="88.52 82.94 88.52 85.85 85.36 84.02 85.35 81.11 88.52 82.94"/><polygon class="cls-20" points="104.03 48.96 104.03 53.71 101.68 52.35 101.67 47.6 104.03 48.96"/><polygon class="cls-13" points="102.92 53.07 96.96 81.92 95.71 81.2 101.67 52.34 102.92 53.07"/><g class="cls-3"><polygon class="cls-9" points="90.58 81.47 90.18 81.24 90.23 98.67 90.58 98.94 90.58 81.47"/><polygon class="cls-10" points="93.75 79.17 90.18 81.24 90.58 81.47 94.15 79.41 93.75 79.17"/><polygon class="cls-7" points="99.09 53.37 93.75 79.17 94.15 79.41 99.49 53.6 99.09 53.37"/><polygon class="cls-11" points="101.66 47.59 99.47 48.85 99.49 53.6 94.15 79.41 90.58 81.47 90.58 98.94 92.22 97.98 101.67 52.34 101.66 47.59"/><polygon class="cls-9" points="99.47 48.85 99.08 48.62 99.09 53.37 99.49 53.6 99.47 48.85"/><polygon class="cls-10" points="101.26 47.36 99.08 48.62 99.47 48.85 101.66 47.59 101.26 47.36"/></g><polygon class="cls-10" points="95.73 81.15 90.58 84.14 92.97 85.53 98.12 82.53 95.73 81.15"/><polygon class="cls-16" points="95.73 81.15 90.58 84.14 92.97 85.53 98.12 82.53 95.73 81.15"/><g class="cls-3"><polygon class="cls-9" points="93.35 83.07 92.95 82.84 93 100.28 93.35 100.54 93.35 83.07"/><polygon class="cls-10" points="96.53 80.78 92.95 82.84 93.35 83.07 96.92 81.01 96.53 80.78"/><polygon class="cls-7" points="101.87 54.97 96.53 80.78 96.92 81.01 102.26 55.2 101.87 54.97"/><polygon class="cls-11" points="104.43 49.19 102.25 50.45 102.26 55.2 96.92 81.01 93.35 83.07 93.35 100.54 95 99.58 104.44 53.95 104.43 49.19"/><polygon class="cls-9" points="102.25 50.45 101.85 50.22 101.87 54.97 102.26 55.2 102.25 50.45"/><polygon class="cls-10" points="104.03 48.96 101.85 50.22 102.25 50.45 104.43 49.19 104.03 48.96"/></g><g class="cls-3"><polygon class="cls-10" points="90.58 91.54 84.25 95.22 86.64 96.6 92.97 92.92 90.58 91.54"/><polygon class="cls-16" points="90.58 91.54 84.25 95.22 86.64 96.6 92.97 92.92 90.58 91.54"/><polygon class="cls-10" points="90.2 86.82 83.86 90.5 84.26 90.73 90.59 87.05 90.2 86.82"/><polygon class="cls-11" points="84.26 90.73 84.25 95.22 90.58 91.54 90.59 87.05 84.26 90.73"/><polygon class="cls-9" points="86.65 92.11 86.64 96.6 84.25 95.22 84.26 90.73 83.86 90.5 83.83 102.38 84.23 102.61 86.62 104 87.02 104.22 87.05 92.34 86.65 92.11"/><polygon class="cls-11" points="87.05 92.34 87.02 104.22 93.35 100.54 93.39 88.66 87.05 92.34"/><polygon class="cls-10" points="92.99 88.43 86.65 92.11 87.05 92.34 93.39 88.66 92.99 88.43"/></g><polygon class="cls-9" points="93.35 85.75 93.35 88.66 90.19 86.84 90.18 83.92 93.35 85.75"/><polygon class="cls-20" points="108.86 51.76 108.86 56.5 106.51 55.14 106.51 50.4 108.86 51.76"/><polygon class="cls-13" points="107.75 55.86 101.8 84.72 100.55 84 106.51 55.13 107.75 55.86"/><g class="cls-3"><polygon class="cls-9" points="95.41 84.26 95.02 84.03 95.07 101.47 95.41 101.73 95.41 84.26"/><polygon class="cls-10" points="98.59 81.97 95.02 84.03 95.41 84.26 98.98 82.2 98.59 81.97"/><polygon class="cls-7" points="103.93 56.16 98.59 81.97 98.98 82.2 104.33 56.39 103.93 56.16"/><polygon class="cls-11" points="106.49 50.38 104.31 51.64 104.33 56.39 98.98 82.2 95.41 84.26 95.41 101.73 97.06 100.78 106.51 55.13 106.49 50.38"/><polygon class="cls-9" points="104.31 51.64 103.92 51.41 103.93 56.16 104.33 56.39 104.31 51.64"/><polygon class="cls-10" points="106.1 50.15 103.92 51.41 104.31 51.64 106.49 50.38 106.1 50.15"/></g><polygon class="cls-10" points="100.56 83.94 95.41 86.94 97.8 88.32 102.95 85.32 100.56 83.94"/><polygon class="cls-16" points="100.56 83.94 95.41 86.94 97.8 88.32 102.95 85.32 100.56 83.94"/><g class="cls-3"><polygon class="cls-9" points="98.19 85.86 97.79 85.64 97.84 103.07 98.19 103.34 98.19 85.86"/><polygon class="cls-10" points="101.36 83.57 97.79 85.64 98.19 85.86 101.76 83.8 101.36 83.57"/><polygon class="cls-7" points="106.7 57.77 101.36 83.57 101.76 83.8 107.1 58 106.7 57.77"/><polygon class="cls-11" points="109.27 51.99 107.09 53.25 107.1 58 101.76 83.8 98.19 85.86 98.19 103.34 99.83 102.38 109.28 56.74 109.27 51.99"/><polygon class="cls-9" points="107.09 53.25 106.69 53.02 106.7 57.77 107.1 58 107.09 53.25"/><polygon class="cls-10" points="108.87 51.76 106.69 53.02 107.09 53.25 109.27 51.99 108.87 51.76"/></g><g class="cls-3"><polygon class="cls-10" points="95.42 94.33 89.08 98.02 91.48 99.4 97.81 95.72 95.42 94.33"/><polygon class="cls-16" points="95.42 94.33 89.08 98.02 91.48 99.4 97.81 95.72 95.42 94.33"/><polygon class="cls-10" points="95.03 89.62 88.7 93.3 89.1 93.53 95.43 89.85 95.03 89.62"/><polygon class="cls-11" points="89.1 93.53 89.08 98.02 95.42 94.33 95.43 89.85 89.1 93.53"/><polygon class="cls-9" points="91.49 94.91 91.48 99.4 89.08 98.02 89.1 93.53 88.7 93.3 88.67 105.18 89.06 105.41 91.46 106.79 91.85 107.02 91.89 95.14 91.49 94.91"/><polygon class="cls-11" points="91.89 95.14 91.85 107.02 98.19 103.34 98.22 91.46 91.89 95.14"/><polygon class="cls-10" points="97.82 91.23 91.49 94.91 91.89 95.14 98.22 91.46 97.82 91.23"/></g><polygon class="cls-9" points="98.19 88.55 98.19 91.46 95.03 89.63 95.02 86.71 98.19 88.55"/><polygon class="cls-20" points="113.7 54.56 113.7 59.31 111.35 57.95 111.34 53.2 113.7 54.56"/><polygon class="cls-13" points="112.59 58.67 106.64 87.53 105.39 86.8 111.34 57.94 112.59 58.67"/><g class="cls-3"><polygon class="cls-9" points="100.25 87.07 99.85 86.84 99.9 104.27 100.25 104.54 100.25 87.07"/><polygon class="cls-10" points="103.43 84.78 99.85 86.84 100.25 87.07 103.82 85 103.43 84.78"/><polygon class="cls-7" points="108.77 58.97 103.43 84.78 103.82 85 109.16 59.2 108.77 58.97"/><polygon class="cls-11" points="111.33 53.19 109.15 54.45 109.16 59.2 103.82 85 100.25 87.07 100.25 104.54 101.89 103.58 111.34 57.94 111.33 53.19"/><polygon class="cls-9" points="109.15 54.45 108.75 54.22 108.77 58.97 109.16 59.2 109.15 54.45"/><polygon class="cls-10" points="110.93 52.96 108.75 54.22 109.15 54.45 111.33 53.19 110.93 52.96"/></g><polygon class="cls-10" points="105.4 86.75 100.25 89.74 102.64 91.13 107.79 88.13 105.4 86.75"/><polygon class="cls-16" points="105.4 86.75 100.25 89.74 102.64 91.13 107.79 88.13 105.4 86.75"/><g class="cls-3"><polygon class="cls-9" points="103.02 88.67 102.63 88.44 102.68 105.88 103.03 106.14 103.02 88.67"/><polygon class="cls-10" points="106.2 86.38 102.63 88.44 103.02 88.67 106.6 86.61 106.2 86.38"/><polygon class="cls-7" points="111.54 60.57 106.2 86.38 106.6 86.61 111.94 60.8 111.54 60.57"/><polygon class="cls-11" points="114.1 54.79 111.92 56.05 111.94 60.8 106.6 86.61 103.02 88.67 103.03 106.14 104.67 105.19 114.12 59.55 114.1 54.79"/><polygon class="cls-9" points="111.92 56.05 111.53 55.82 111.54 60.57 111.94 60.8 111.92 56.05"/><polygon class="cls-10" points="113.71 54.56 111.53 55.82 111.92 56.05 114.1 54.79 113.71 54.56"/></g><g class="cls-3"><polygon class="cls-10" points="100.26 97.14 93.92 100.82 96.31 102.2 102.65 98.52 100.26 97.14"/><polygon class="cls-16" points="100.26 97.14 93.92 100.82 96.31 102.2 102.65 98.52 100.26 97.14"/><polygon class="cls-10" points="99.87 92.42 93.54 96.1 93.94 96.33 100.27 92.65 99.87 92.42"/><polygon class="cls-11" points="93.94 96.33 93.92 100.82 100.26 97.14 100.27 92.65 93.94 96.33"/><polygon class="cls-9" points="96.33 97.71 96.31 102.2 93.92 100.82 93.94 96.33 93.54 96.1 93.5 107.98 93.9 108.21 96.29 109.59 96.69 109.82 96.72 97.94 96.33 97.71"/><polygon class="cls-11" points="96.72 97.94 96.69 109.82 103.03 106.14 103.06 94.26 96.72 97.94"/><polygon class="cls-10" points="102.66 94.03 96.33 97.71 96.72 97.94 103.06 94.26 102.66 94.03"/></g><polygon class="cls-9" points="103.03 91.35 103.03 94.26 99.87 92.44 99.86 89.52 103.03 91.35"/><polygon class="cls-20" points="118.54 57.39 118.54 62.13 116.19 60.77 116.18 56.03 118.54 57.39"/><polygon class="cls-13" points="117.43 61.49 111.47 90.35 110.22 89.63 116.18 60.77 117.43 61.49"/><g class="cls-3"><polygon class="cls-9" points="105.09 89.89 104.69 89.66 104.74 107.1 105.09 107.36 105.09 89.89"/><polygon class="cls-10" points="108.26 87.6 104.69 89.66 105.09 89.89 108.66 87.83 108.26 87.6"/><polygon class="cls-7" points="113.6 61.79 108.26 87.6 108.66 87.83 114 62.02 113.6 61.79"/><polygon class="cls-11" points="116.17 56.01 113.98 57.27 114 62.02 108.66 87.83 105.09 89.89 105.09 107.36 106.73 106.41 116.18 60.77 116.17 56.01"/><polygon class="cls-9" points="113.98 57.27 113.59 57.04 113.6 61.79 114 62.02 113.98 57.27"/><polygon class="cls-10" points="115.77 55.78 113.59 57.04 113.98 57.27 116.17 56.01 115.77 55.78"/></g><polygon class="cls-10" points="110.24 89.57 105.09 92.57 107.48 93.95 112.63 90.95 110.24 89.57"/><polygon class="cls-16" points="110.24 89.57 105.09 92.57 107.48 93.95 112.63 90.95 110.24 89.57"/><g class="cls-3"><polygon class="cls-9" points="107.86 91.5 107.47 91.27 107.51 108.7 107.86 108.97 107.86 91.5"/><polygon class="cls-10" points="111.04 89.2 107.47 91.27 107.86 91.5 111.43 89.43 111.04 89.2"/><polygon class="cls-7" points="116.38 63.4 111.04 89.2 111.43 89.43 116.77 63.63 116.38 63.4"/><polygon class="cls-11" points="118.94 57.62 116.76 58.88 116.77 63.63 111.43 89.43 107.86 91.5 107.86 108.97 109.51 108.01 118.95 62.37 118.94 57.62"/><polygon class="cls-9" points="116.76 58.88 116.36 58.65 116.38 63.4 116.77 63.63 116.76 58.88"/><polygon class="cls-10" points="118.54 57.39 116.36 58.65 116.76 58.88 118.94 57.62 118.54 57.39"/></g><g class="cls-3"><polygon class="cls-10" points="105.09 99.96 98.76 103.64 101.15 105.03 107.48 101.34 105.09 99.96"/><polygon class="cls-16" points="105.09 99.96 98.76 103.64 101.15 105.03 107.48 101.34 105.09 99.96"/><polygon class="cls-10" points="104.71 95.25 98.37 98.93 98.77 99.16 105.11 95.48 104.71 95.25"/><polygon class="cls-11" points="98.77 99.16 98.76 103.64 105.09 99.96 105.11 95.48 98.77 99.16"/><polygon class="cls-9" points="101.16 100.54 101.15 105.03 98.76 103.64 98.77 99.16 98.37 98.93 98.34 110.81 98.74 111.04 101.13 112.42 101.53 112.65 101.56 100.77 101.16 100.54"/><polygon class="cls-11" points="101.56 100.77 101.53 112.65 107.86 108.97 107.89 97.09 101.56 100.77"/><polygon class="cls-10" points="107.5 96.86 101.16 100.54 101.56 100.77 107.89 97.09 107.5 96.86"/></g><polygon class="cls-9" points="107.86 94.17 107.86 97.09 104.7 95.26 104.69 92.34 107.86 94.17"/><polygon class="cls-20" points="123.37 60.19 123.37 64.93 121.02 63.58 121.02 58.83 123.37 60.19"/><polygon class="cls-13" points="122.26 64.29 116.31 93.15 115.06 92.42 121.02 63.57 122.26 64.29"/><g class="cls-3"><polygon class="cls-9" points="109.92 92.69 109.53 92.46 109.58 109.9 109.92 110.16 109.92 92.69"/><polygon class="cls-10" points="113.1 90.4 109.53 92.46 109.92 92.69 113.5 90.63 113.1 90.4"/><polygon class="cls-7" points="118.44 64.59 113.1 90.4 113.5 90.63 118.83 64.83 118.44 64.59"/><polygon class="cls-11" points="121 58.81 118.82 60.07 118.83 64.83 113.5 90.63 109.92 92.69 109.92 110.16 111.57 109.21 121.02 63.57 121 58.81"/><polygon class="cls-9" points="118.82 60.07 118.43 59.84 118.44 64.59 118.83 64.83 118.82 60.07"/><polygon class="cls-10" points="120.61 58.59 118.43 59.84 118.82 60.07 121 58.81 120.61 58.59"/></g><polygon class="cls-10" points="115.07 92.37 109.92 95.37 112.31 96.75 117.47 93.75 115.07 92.37"/><polygon class="cls-16" points="115.07 92.37 109.92 95.37 112.31 96.75 117.47 93.75 115.07 92.37"/><g class="cls-3"><polygon class="cls-9" points="112.7 94.3 112.3 94.07 112.35 111.5 112.7 111.77 112.7 94.3"/><polygon class="cls-10" points="115.87 92 112.3 94.07 112.7 94.3 116.27 92.23 115.87 92"/><polygon class="cls-7" points="121.21 66.2 115.87 92 116.27 92.23 121.61 66.43 121.21 66.2"/><polygon class="cls-11" points="123.78 60.42 121.6 61.68 121.61 66.43 116.27 92.23 112.7 94.3 112.7 111.77 114.34 110.81 123.79 65.17 123.78 60.42"/><polygon class="cls-9" points="121.6 61.68 121.2 61.45 121.21 66.2 121.61 66.43 121.6 61.68"/><polygon class="cls-10" points="123.38 60.19 121.2 61.45 121.6 61.68 123.78 60.42 123.38 60.19"/></g><g class="cls-3"><polygon class="cls-10" points="109.93 102.77 103.59 106.45 105.99 107.83 112.32 104.15 109.93 102.77"/><polygon class="cls-16" points="109.93 102.77 103.59 106.45 105.99 107.83 112.32 104.15 109.93 102.77"/><polygon class="cls-10" points="109.54 98.05 103.21 101.73 103.61 101.96 109.94 98.28 109.54 98.05"/><polygon class="cls-11" points="103.61 101.96 103.59 106.45 109.93 102.77 109.94 98.28 103.61 101.96"/><polygon class="cls-9" points="106 103.34 105.99 107.83 103.59 106.45 103.61 101.96 103.21 101.73 103.18 113.61 103.57 113.84 105.97 115.22 106.36 115.45 106.4 103.57 106 103.34"/><polygon class="cls-11" points="106.4 103.57 106.36 115.45 112.7 111.77 112.73 99.89 106.4 103.57"/><polygon class="cls-10" points="112.33 99.66 106 103.34 106.4 103.57 112.73 99.89 112.33 99.66"/></g><polygon class="cls-9" points="112.7 96.98 112.7 99.89 109.54 98.06 109.53 95.14 112.7 96.98"/><polygon class="cls-20" points="128.21 62.99 128.21 67.73 125.86 66.38 125.85 61.63 128.21 62.99"/><polygon class="cls-13" points="127.1 67.09 121.15 95.95 119.89 95.23 125.85 66.37 127.1 67.09"/><g class="cls-3"><polygon class="cls-9" points="114.76 95.49 114.36 95.26 114.41 112.7 114.76 112.97 114.76 95.49"/><polygon class="cls-10" points="117.94 93.2 114.36 95.26 114.76 95.49 118.33 93.43 117.94 93.2"/><polygon class="cls-7" points="123.28 67.4 117.94 93.2 118.33 93.43 123.67 67.63 123.28 67.4"/><polygon class="cls-11" points="125.84 61.62 123.66 62.88 123.67 67.63 118.33 93.43 114.76 95.49 114.76 112.97 116.41 112.01 125.85 66.37 125.84 61.62"/><polygon class="cls-9" points="123.66 62.88 123.26 62.65 123.28 67.4 123.67 67.63 123.66 62.88"/><polygon class="cls-10" points="125.44 61.39 123.26 62.65 123.66 62.88 125.84 61.62 125.44 61.39"/></g><polygon class="cls-10" points="119.91 95.17 114.76 98.17 117.15 99.55 122.3 96.55 119.91 95.17"/><polygon class="cls-16" points="119.91 95.17 114.76 98.17 117.15 99.55 122.3 96.55 119.91 95.17"/><g class="cls-3"><polygon class="cls-9" points="117.53 97.1 117.14 96.87 117.19 114.3 117.53 114.57 117.53 97.1"/><polygon class="cls-10" points="120.71 94.81 117.14 96.87 117.53 97.1 121.11 95.03 120.71 94.81"/><polygon class="cls-7" points="126.05 69 120.71 94.81 121.11 95.03 126.45 69.23 126.05 69"/><polygon class="cls-11" points="128.61 63.22 126.43 64.48 126.45 69.23 121.11 95.03 117.53 97.1 117.53 114.57 119.18 113.61 128.63 67.97 128.61 63.22"/><polygon class="cls-9" points="126.43 64.48 126.04 64.25 126.05 69 126.45 69.23 126.43 64.48"/><polygon class="cls-10" points="128.22 62.99 126.04 64.25 126.43 64.48 128.61 63.22 128.22 62.99"/></g><g class="cls-3"><polygon class="cls-10" points="114.77 105.57 108.43 109.25 110.82 110.63 117.16 106.95 114.77 105.57"/><polygon class="cls-16" points="114.77 105.57 108.43 109.25 110.82 110.63 117.16 106.95 114.77 105.57"/><polygon class="cls-10" points="114.38 100.85 108.05 104.53 108.44 104.76 114.78 101.08 114.38 100.85"/><polygon class="cls-11" points="108.44 104.76 108.43 109.25 114.77 105.57 114.78 101.08 108.44 104.76"/><polygon class="cls-9" points="110.84 106.14 110.82 110.63 108.43 109.25 108.44 104.76 108.05 104.53 108.01 116.41 108.41 116.64 110.8 118.02 111.2 118.25 111.23 106.37 110.84 106.14"/><polygon class="cls-11" points="111.23 106.37 111.2 118.25 117.53 114.57 117.57 102.69 111.23 106.37"/><polygon class="cls-10" points="117.17 102.46 110.84 106.14 111.23 106.37 117.57 102.69 117.17 102.46"/></g><polygon class="cls-9" points="117.53 99.78 117.53 102.69 114.38 100.86 114.37 97.95 117.53 99.78"/><polygon class="cls-20" points="133.05 65.84 133.05 70.58 130.7 69.22 130.69 64.47 133.05 65.84"/><polygon class="cls-13" points="131.94 69.94 125.98 98.8 124.73 98.07 130.69 69.21 131.94 69.94"/><g class="cls-3"><polygon class="cls-9" points="119.6 98.34 119.2 98.11 119.25 115.55 119.6 115.81 119.6 98.34"/><polygon class="cls-10" points="122.77 96.05 119.2 98.11 119.6 98.34 123.17 96.28 122.77 96.05"/><polygon class="cls-7" points="128.11 70.24 122.77 96.05 123.17 96.28 128.51 70.47 128.11 70.24"/><polygon class="cls-11" points="130.68 64.46 128.5 65.72 128.51 70.47 123.17 96.28 119.6 98.34 119.6 115.81 121.24 114.85 130.69 69.21 130.68 64.46"/><polygon class="cls-9" points="128.5 65.72 128.1 65.49 128.11 70.24 128.51 70.47 128.5 65.72"/><polygon class="cls-10" points="130.28 64.23 128.1 65.49 128.5 65.72 130.68 64.46 130.28 64.23"/></g><polygon class="cls-10" points="124.75 98.02 119.6 101.02 121.99 102.4 127.14 99.4 124.75 98.02"/><polygon class="cls-16" points="124.75 98.02 119.6 101.02 121.99 102.4 127.14 99.4 124.75 98.02"/><g class="cls-3"><polygon class="cls-9" points="122.37 99.94 121.97 99.71 122.02 117.15 122.37 117.42 122.37 99.94"/><polygon class="cls-10" points="125.55 97.65 121.97 99.71 122.37 99.94 125.94 97.88 125.55 97.65"/><polygon class="cls-7" points="130.89 71.85 125.55 97.65 125.94 97.88 131.28 72.08 130.89 71.85"/><polygon class="cls-11" points="133.45 66.07 131.27 67.33 131.28 72.08 125.94 97.88 122.37 99.94 122.37 117.42 124.02 116.46 133.46 70.82 133.45 66.07"/><polygon class="cls-9" points="131.27 67.33 130.87 67.1 130.89 71.85 131.28 72.08 131.27 67.33"/><polygon class="cls-10" points="133.05 65.84 130.87 67.1 131.27 67.33 133.45 66.07 133.05 65.84"/></g><g class="cls-3"><polygon class="cls-10" points="119.6 108.41 113.27 112.09 115.66 113.47 121.99 109.79 119.6 108.41"/><polygon class="cls-16" points="119.6 108.41 113.27 112.09 115.66 113.47 121.99 109.79 119.6 108.41"/><polygon class="cls-10" points="119.22 103.7 112.88 107.38 113.28 107.61 119.61 103.93 119.22 103.7"/><polygon class="cls-11" points="113.28 107.61 113.27 112.09 119.6 108.41 119.61 103.93 113.28 107.61"/><polygon class="cls-9" points="115.67 108.99 115.66 113.47 113.27 112.09 113.28 107.61 112.88 107.38 112.85 119.26 113.25 119.49 115.64 120.87 116.04 121.1 116.07 109.22 115.67 108.99"/><polygon class="cls-11" points="116.07 109.22 116.04 121.1 122.37 117.42 122.41 105.54 116.07 109.22"/><polygon class="cls-10" points="122.01 105.31 115.67 108.99 116.07 109.22 122.41 105.54 122.01 105.31"/></g><polygon class="cls-9" points="122.37 102.62 122.37 105.54 119.22 103.71 119.2 100.79 122.37 102.62"/><g class="cls-3"><polygon class="cls-7" points="135.57 79 127.33 118.79 133.66 122.47 141.9 82.68 135.57 79"/><polygon class="cls-23" points="150 113.03 149.87 68.16 141.87 72.78 141.9 82.68 133.66 122.47 150 113.03"/><polygon class="cls-9" points="141.87 72.78 135.54 69.1 135.57 79 141.9 82.68 141.87 72.78"/><polygon class="cls-10" points="143.54 64.48 135.54 69.1 141.87 72.78 149.87 68.16 143.54 64.48"/></g><polygon class="cls-24" points="139.17 88.77 139.98 91.96 135.38 114.17 132.64 115.64 136.28 98.22 136.27 94.98 137.07 98.63 139.17 88.77"/><polygon class="cls-11" points="139.22 82.22 133.74 108.86 133.66 109.25 131.07 107.75 136.83 80.84 137.98 81.5 139.22 82.22"/><polygon class="cls-12" points="139.22 82.22 133.74 108.86 132.49 108.14 137.98 81.5 139.22 82.22"/><polygon class="cls-13" points="139.22 82.22 133.74 108.86 132.49 108.14 137.98 81.5 139.22 82.22"/><g class="cls-3"><polygon class="cls-11" points="137.05 89.98 137.07 98.63 139.17 88.77 137.05 89.98"/><polygon class="cls-9" points="137.05 89.98 135.86 89.29 135.88 97.94 137.07 98.63 137.05 89.98"/><polygon class="cls-10" points="137.98 88.08 135.86 89.29 137.05 89.98 139.17 88.77 137.98 88.08"/></g><g class="cls-3"><polygon class="cls-11" points="133.45 87.98 133.47 96.63 135.56 86.77 133.45 87.98"/><polygon class="cls-9" points="133.45 87.98 132.26 87.3 132.28 95.94 133.47 96.63 133.45 87.98"/><polygon class="cls-10" points="134.38 86.08 132.26 87.3 133.45 87.98 135.56 86.77 134.38 86.08"/></g><g class="cls-3"><polygon class="cls-25" points="129.12 110.58 100.49 127.11 101.41 143.43 130.56 125.59 136.28 98.22 129.12 110.58"/><polygon class="cls-9" points="100.49 127.11 97.33 125.27 96.16 140.38 101.41 143.43 100.49 127.11"/><polygon class="cls-15" points="128.74 107.17 97.33 125.27 100.49 127.11 129.12 110.58 130.51 108.21 128.74 107.17"/><polygon class="cls-16" points="128.74 107.17 97.33 125.27 100.49 127.11 129.12 110.58 130.51 108.21 128.74 107.17"/></g><g class="cls-3"><polygon class="cls-7" points="133.1 93.13 125.13 106.94 125.52 107.17 133.5 93.36 133.1 93.13"/><polygon class="cls-26" points="133.5 93.36 125.52 107.17 97.72 123.22 97.73 125.52 131.67 105.92 133.51 96.6 133.5 93.36"/><polygon class="cls-9" points="97.72 123.22 97.33 123 97.33 125.29 97.73 125.52 97.72 123.22"/><polygon class="cls-10" points="125.13 106.94 97.33 123 97.72 123.22 125.52 107.17 125.13 106.94"/></g><g class="cls-3"><polygon class="cls-7" points="135.87 94.75 127.9 108.56 128.29 108.79 136.27 94.98 135.87 94.75"/><polygon class="cls-27" points="136.27 94.98 128.29 108.79 100.49 124.84 100.5 127.13 129.12 110.6 136.28 98.22 136.27 94.98"/><polygon class="cls-9" points="100.49 124.84 100.1 124.61 100.1 126.9 100.5 127.13 100.49 124.84"/><polygon class="cls-10" points="127.9 108.56 100.1 124.61 100.49 124.84 128.29 108.79 127.9 108.56"/></g><polygon class="cls-20" points="100.1 142.66 97.73 141.29 97.73 125.52 100.1 126.9 100.1 142.66"/><g class="cls-3"><polygon class="cls-28" points="149.87 66.79 140.71 72.08 140.71 73.45 149.87 68.16 149.87 66.79"/><polygon class="cls-9" points="140.71 72.08 36.87 11.86 36.87 13.23 140.71 73.45 140.71 72.08"/><polygon class="cls-10" points="46.03 6.57 36.87 11.86 140.71 72.08 149.87 66.79 46.03 6.57"/></g></g></g></g></g></svg>