<svg xmlns="http://www.w3.org/2000/svg" xmlns:xlink="http://www.w3.org/1999/xlink" viewBox="0 0 150 150"><defs><style>.cls-1,.cls-2,.cls-30{fill:none;}.cls-2{stroke:#fff;stroke-miterlimit:10;stroke-width:0.1px;}.cls-3{opacity:0;}.cls-4{fill:#000714;}.cls-5{opacity:0.1;fill:url(#新建图案);}.cls-6{isolation:isolate;}.cls-7{fill:url(#未命名的渐变_107);}.cls-8{fill:url(#未命名的渐变_107-2);}.cls-9{fill:url(#未命名的渐变_114);}.cls-10{fill:url(#未命名的渐变_13);}.cls-11{fill:url(#未命名的渐变_107-3);}.cls-12{fill:url(#未命名的渐变_114-2);}.cls-13{fill:url(#未命名的渐变_13-2);}.cls-14{fill:url(#未命名的渐变_107-4);}.cls-15{fill:#c5c5c5;}.cls-16{fill:url(#未命名的渐变_107-5);}.cls-17{fill:url(#未命名的渐变_13-3);}.cls-18{fill:url(#未命名的渐变_114-3);}.cls-19{fill:url(#未命名的渐变_114-4);}.cls-20{fill:url(#未命名的渐变_45);}.cls-21{opacity:0.3;}.cls-22{fill:url(#未命名的渐变_13-4);}.cls-23{fill:url(#未命名的渐变_42);}.cls-24{fill:url(#未命名的渐变_17283);}.cls-25{fill:url(#未命名的渐变_17280);}.cls-26{fill:url(#未命名的渐变_78);}.cls-27{fill:url(#未命名的渐变_17283-2);}.cls-28{fill:url(#未命名的渐变_17280-2);}.cls-29{fill:url(#未命名的渐变_78-2);}.cls-30{stroke:#e0ebff;stroke-linecap:round;stroke-linejoin:round;stroke-width:0.75px;}.cls-31{fill:url(#未命名的渐变_17283-3);}.cls-32{fill:url(#未命名的渐变_17280-3);}.cls-33{fill:url(#未命名的渐变_78-3);}.cls-34{fill:url(#未命名的渐变_17283-4);}.cls-35{fill:url(#未命名的渐变_17280-4);}.cls-36{fill:url(#未命名的渐变_78-4);}.cls-37{fill:url(#未命名的渐变_17283-5);}.cls-38{fill:url(#未命名的渐变_17280-5);}.cls-39{fill:url(#未命名的渐变_78-5);}.cls-40{fill:url(#未命名的渐变_17283-6);}.cls-41{fill:url(#未命名的渐变_17280-6);}.cls-42{fill:url(#未命名的渐变_78-6);}.cls-43{fill:#191f27;}.cls-44{fill:#161b21;}.cls-45{fill:#1f2630;}.cls-46{fill:#354559;}.cls-47{fill:#2f3c4f;}.cls-48{fill:url(#未命名的渐变_35);}.cls-49{opacity:0.4;mix-blend-mode:multiply;fill:url(#未命名的渐变_41);}.cls-50{fill:url(#未命名的渐变_35-2);}.cls-51{fill:url(#未命名的渐变_32);}.cls-52{fill:url(#未命名的渐变_32-2);}.cls-53{fill:url(#未命名的渐变_40);}.cls-54{opacity:0.2;}</style><pattern id="新建图案" data-name="新建图案" width="18.57" height="32.16" patternTransform="translate(16.47 294.35)" patternUnits="userSpaceOnUse" viewBox="0 0 18.57 32.16"><rect class="cls-1" width="18.57" height="32.16"/><polyline class="cls-2" points="18.57 21.44 18.57 32.16 18.57 42.88"/><polyline class="cls-2" points="9.29 26.8 18.57 32.16 27.85 37.51 27.85 37.52"/><polyline class="cls-2" points="9.29 37.52 9.29 37.51 18.57 32.16 27.85 26.8"/><polygon class="cls-2" points="27.85 37.52 27.85 26.8 18.57 21.44 9.28 26.8 9.28 37.52 18.57 42.88 27.85 37.52"/><polyline class="cls-2" points="0 21.44 0 32.16 0 42.88"/><polyline class="cls-2" points="-9.28 26.8 0 32.16 9.28 37.51 9.28 37.52"/><polyline class="cls-2" points="-9.28 37.52 -9.28 37.51 0 32.16 9.28 26.8"/><polygon class="cls-2" points="9.28 37.52 9.28 26.8 0 21.44 -9.29 26.8 -9.29 37.52 0 42.88 9.28 37.52"/><polyline class="cls-2" points="18.57 10.72 27.85 16.08 37.13 21.43 37.13 21.44"/><polyline class="cls-2" points="18.57 21.44 18.57 21.43 27.85 16.08 37.13 10.72"/><polygon class="cls-2" points="37.14 21.44 37.14 10.72 27.85 5.36 18.57 10.72 18.57 21.44 27.85 26.8 37.14 21.44"/><polyline class="cls-2" points="9.29 5.36 9.29 16.08 9.29 26.8"/><polyline class="cls-2" points="0.01 10.72 9.29 16.08 18.57 21.43 18.57 21.44"/><polyline class="cls-2" points="0.01 21.44 0.01 21.43 9.29 16.08 18.57 10.72"/><polygon class="cls-2" points="18.57 21.44 18.57 10.72 9.28 5.36 0 10.72 0 21.44 9.28 26.8 18.57 21.44"/><polyline class="cls-2" points="-18.56 10.72 -9.28 16.08 0 21.43 0 21.44"/><polyline class="cls-2" points="-18.56 21.44 -18.56 21.43 -9.28 16.08 0 10.72"/><polygon class="cls-2" points="0 21.44 0 10.72 -9.29 5.36 -18.57 10.72 -18.57 21.44 -9.29 26.8 0 21.44"/><polyline class="cls-2" points="18.57 -10.72 18.57 0 18.57 10.72"/><polyline class="cls-2" points="9.29 -5.36 18.57 0 27.85 5.35 27.85 5.36"/><polyline class="cls-2" points="9.29 5.36 9.29 5.35 18.57 0 27.85 -5.36"/><polygon class="cls-2" points="27.85 5.36 27.85 -5.36 18.57 -10.72 9.28 -5.36 9.28 5.36 18.57 10.72 27.85 5.36"/><polyline class="cls-2" points="0 -10.72 0 0 0 10.72"/><polyline class="cls-2" points="-9.28 -5.36 0 0 9.28 5.35 9.28 5.36"/><polyline class="cls-2" points="-9.28 5.36 -9.28 5.35 0 0 9.28 -5.36"/><polygon class="cls-2" points="9.28 5.36 9.28 -5.36 0 -10.72 -9.29 -5.36 -9.29 5.36 0 10.72 9.28 5.36"/></pattern><linearGradient id="未命名的渐变_107" x1="136.34" y1="119.57" x2="140.79" y2="119.57" gradientUnits="userSpaceOnUse"><stop offset="0" stop-color="#283140"/><stop offset="0.34" stop-color="#232b37"/><stop offset="0.9" stop-color="#15191f"/><stop offset="1" stop-color="#12161a"/></linearGradient><linearGradient id="未命名的渐变_107-2" x1="137.75" y1="123.25" x2="142.85" y2="118.16" xlink:href="#未命名的渐变_107"/><linearGradient id="未命名的渐变_114" x1="140.24" y1="124.35" x2="135.6" y2="119.71" gradientUnits="userSpaceOnUse"><stop offset="0" stop-color="#425266"/><stop offset="1" stop-color="#596b8c"/></linearGradient><linearGradient id="未命名的渐变_13" x1="136.29" y1="116.91" x2="141.59" y2="116.91" gradientUnits="userSpaceOnUse"><stop offset="0" stop-color="#89abe6"/><stop offset="1" stop-color="#547099"/></linearGradient><linearGradient id="未命名的渐变_107-3" x1="15.43" y1="99.22" x2="19.88" y2="99.22" xlink:href="#未命名的渐变_107"/><linearGradient id="未命名的渐变_114-2" x1="18.43" y1="102.9" x2="13.36" y2="97.83" xlink:href="#未命名的渐变_114"/><linearGradient id="未命名的渐变_13-2" x1="14.63" y1="96.55" x2="19.89" y2="96.55" xlink:href="#未命名的渐变_13"/><linearGradient id="未命名的渐变_107-4" x1="15.95" y1="103.99" x2="20.59" y2="99.35" xlink:href="#未命名的渐变_107"/><linearGradient id="未命名的渐变_107-5" x1="94.24" y1="148.45" x2="101.23" y2="141.47" xlink:href="#未命名的渐变_107"/><linearGradient id="未命名的渐变_13-3" x1="91.34" y1="141.51" x2="100.21" y2="141.51" xlink:href="#未命名的渐变_13"/><linearGradient id="未命名的渐变_114-3" x1="97.3" y1="148.47" x2="90.31" y2="141.48" xlink:href="#未命名的渐变_114"/><linearGradient id="未命名的渐变_114-4" x1="104.88" y1="134.56" x2="5.82" y2="35.5" xlink:href="#未命名的渐变_114"/><linearGradient id="未命名的渐变_45" x1="83.25" y1="130.82" x2="154.43" y2="59.64" xlink:href="#未命名的渐变_107"/><linearGradient id="未命名的渐变_13-4" x1="14.77" y1="36.75" x2="141.75" y2="36.75" xlink:href="#未命名的渐变_13"/><linearGradient id="未命名的渐变_42" x1="14.77" y1="36.75" x2="141.75" y2="36.75" gradientUnits="userSpaceOnUse"><stop offset="0" stop-color="#99beff"/><stop offset="0.02" stop-color="#99beff" stop-opacity="0.93"/><stop offset="0.09" stop-color="#99beff" stop-opacity="0.74"/><stop offset="0.17" stop-color="#99beff" stop-opacity="0.56"/><stop offset="0.25" stop-color="#99beff" stop-opacity="0.41"/><stop offset="0.33" stop-color="#99beff" stop-opacity="0.28"/><stop offset="0.43" stop-color="#99beff" stop-opacity="0.18"/><stop offset="0.53" stop-color="#99beff" stop-opacity="0.1"/><stop offset="0.64" stop-color="#99beff" stop-opacity="0.04"/><stop offset="0.77" stop-color="#99beff" stop-opacity="0.01"/><stop offset="1" stop-color="#99beff" stop-opacity="0"/></linearGradient><linearGradient id="未命名的渐变_17283" x1="34.61" y1="82.04" x2="2.84" y2="50.27" gradientUnits="userSpaceOnUse"><stop offset="0" stop-color="#2f77eb"/><stop offset="1" stop-color="#59c8ff"/></linearGradient><linearGradient id="未命名的渐变_17280" x1="8" y1="81.62" x2="36.45" y2="53.17" gradientUnits="userSpaceOnUse"><stop offset="0" stop-color="#0073e6"/><stop offset="1" stop-color="#143ccc"/></linearGradient><linearGradient id="未命名的渐变_78" x1="15.94" y1="38.41" x2="22.93" y2="38.41" gradientUnits="userSpaceOnUse"><stop offset="0" stop-color="#8ce2ff"/><stop offset="1" stop-color="#44b6ff"/></linearGradient><linearGradient id="未命名的渐变_17283-2" x1="52.1" y1="78.27" x2="23.33" y2="49.51" xlink:href="#未命名的渐变_17283"/><linearGradient id="未命名的渐变_17280-2" x1="47.77" y1="75.57" x2="56.23" y2="67.12" xlink:href="#未命名的渐变_17280"/><linearGradient id="未命名的渐变_78-2" x1="24.14" y1="56.15" x2="52.71" y2="56.15" xlink:href="#未命名的渐变_78"/><linearGradient id="未命名的渐变_17283-3" x1="52.1" y1="103.07" x2="23.33" y2="74.3" xlink:href="#未命名的渐变_17283"/><linearGradient id="未命名的渐变_17280-3" x1="47.77" y1="100.36" x2="56.23" y2="91.91" xlink:href="#未命名的渐变_17280"/><linearGradient id="未命名的渐变_78-3" x1="24.14" y1="80.94" x2="52.71" y2="80.94" xlink:href="#未命名的渐变_78"/><linearGradient id="未命名的渐变_17283-4" x1="85.47" y1="97.36" x2="56.7" y2="68.59" xlink:href="#未命名的渐变_17283"/><linearGradient id="未命名的渐变_17280-4" x1="81.15" y1="94.65" x2="89.6" y2="86.2" xlink:href="#未命名的渐变_17280"/><linearGradient id="未命名的渐变_78-4" x1="57.51" y1="75.23" x2="86.08" y2="75.23" xlink:href="#未命名的渐变_78"/><linearGradient id="未命名的渐变_17283-5" x1="85.47" y1="122.15" x2="56.7" y2="93.38" xlink:href="#未命名的渐变_17283"/><linearGradient id="未命名的渐变_17280-5" x1="81.15" y1="119.44" x2="89.6" y2="110.99" xlink:href="#未命名的渐变_17280"/><linearGradient id="未命名的渐变_78-5" x1="57.51" y1="100.03" x2="86.08" y2="100.03" xlink:href="#未命名的渐变_78"/><linearGradient id="未命名的渐变_17283-6" x1="106.17" y1="123.45" x2="74.4" y2="91.68" xlink:href="#未命名的渐变_17283"/><linearGradient id="未命名的渐变_17280-6" x1="79.56" y1="123.03" x2="108.01" y2="94.58" xlink:href="#未命名的渐变_17280"/><linearGradient id="未命名的渐变_78-6" x1="87.5" y1="79.82" x2="94.49" y2="79.82" xlink:href="#未命名的渐变_78"/><linearGradient id="未命名的渐变_35" x1="122.99" y1="112.22" x2="135.37" y2="90.78" gradientUnits="userSpaceOnUse"><stop offset="0" stop-color="#38455a"/><stop offset="0.15" stop-color="#89abe6"/><stop offset="0.25" stop-color="#89abe6"/><stop offset="0.9" stop-color="#12161a"/><stop offset="1" stop-color="#283140"/></linearGradient><linearGradient id="未命名的渐变_41" x1="120.62" y1="110.06" x2="137.74" y2="92.94" gradientUnits="userSpaceOnUse"><stop offset="0" stop-color="#000714"/><stop offset="0.6" stop-color="#090e17"/><stop offset="1" stop-color="#12161a"/></linearGradient><linearGradient id="未命名的渐变_35-2" x1="123.03" y1="112.24" x2="135.42" y2="90.79" xlink:href="#未命名的渐变_35"/><linearGradient id="未命名的渐变_32" x1="116" y1="109.08" x2="129.16" y2="86.27" gradientUnits="userSpaceOnUse"><stop offset="0" stop-color="#283140"/><stop offset="0.1" stop-color="#12161a"/><stop offset="0.75" stop-color="#89abe6"/><stop offset="0.85" stop-color="#89abe6"/><stop offset="1" stop-color="#38455a"/></linearGradient><linearGradient id="未命名的渐变_32-2" x1="118.17" y1="111.68" x2="132.49" y2="86.87" xlink:href="#未命名的渐变_32"/><linearGradient id="未命名的渐变_40" x1="119.27" y1="111.41" x2="139.09" y2="91.59" xlink:href="#未命名的渐变_107"/></defs><title>活性炭吸附箱</title><g id="图层_2" data-name="图层 2"><g id="图层_1-2" data-name="图层 1"><g id="活性炭吸附箱"><g class="cls-3"><rect class="cls-4" width="150" height="150"/><rect id="网格" class="cls-5" width="150" height="150"/></g><g class="cls-6"><g class="cls-6"><polygon class="cls-7" points="136.34 114.8 138.75 123.17 140.76 124.34 140.78 117.37 136.34 114.8"/><polygon class="cls-8" points="141.59 116.9 137.1 119.48 139.54 125.05 141.56 123.88 141.56 123.88 141.57 123.87 141.59 116.9"/></g><g class="cls-6"><polygon class="cls-9" points="137.1 119.48 136.29 119.01 138.74 124.58 139.54 125.05 137.1 119.48"/><polygon class="cls-10" points="141.59 116.9 137.14 114.33 136.34 114.8 139.96 116.89 136.29 119.01 137.1 119.48 141.59 116.9"/></g><g class="cls-6"><polygon class="cls-11" points="15.43 97.02 15.45 103.99 17.48 102.82 19.88 94.45 15.43 97.02"/><polygon class="cls-12" points="14.64 96.55 14.64 96.56 14.63 96.56 14.63 98.83 14.62 103.52 16.64 104.69 19.09 99.12 14.64 96.55"/></g><g class="cls-6"><polygon class="cls-13" points="19.89 98.66 16.25 96.55 19.88 94.45 19.08 93.99 14.63 96.56 19.09 99.12 19.89 98.66"/><polygon class="cls-14" points="19.09 99.12 16.64 104.69 17.45 104.22 19.89 98.66 19.09 99.12"/></g><polygon class="cls-15" points="95.78 143.03 96.59 142.56 96.57 149.53 95.76 150 95.78 143.03"/><g class="cls-6"><polygon class="cls-16" points="95.76 143.02 95.78 149.99 97.8 148.82 100.21 140.45 95.76 143.02"/><polygon class="cls-17" points="100.21 140.45 99.4 139.98 95.76 142.09 92.14 140 91.33 140.46 95.76 143.02 95.76 143.02 95.78 143.03 100.21 140.45"/><polygon class="cls-18" points="95.77 147.69 95.78 143.03 95.08 142.63 94.95 142.55 94.95 142.55 91.33 140.46 93.74 148.83 95.76 150 95.76 149.98 95.78 149.99 95.77 147.69"/></g><polygon class="cls-19" points="96.09 73.51 96.09 75.3 95.94 143.5 38.48 110.33 26.9 103.65 14.61 96.55 14.78 28.54 14.78 26.55 95.94 73.42 96.09 73.51"/><polygon class="cls-20" points="141.75 46.95 141.59 116.95 95.94 143.5 96.09 73.51 141.75 46.95"/><polygon class="cls-21" points="96.09 73.51 95.94 73.42 14.78 26.55 14.78 28.54 26.9 35.54 38.48 42.22 95.94 75.39 96.09 75.3 141.59 48.83 141.59 47.04 96.09 73.51"/><polygon class="cls-22" points="60.43 0 14.78 26.56 96.1 73.51 141.75 46.95 60.43 0"/><path class="cls-23" d="M60.43.58,140.75,47l-44.65,26L15.77,26.55,60.43.58m0-.58L14.77,26.56l81.33,47L141.75,47,60.43,0Z"/></g><g class="cls-6"><polygon class="cls-24" points="15.94 37.17 15.88 91.86 21.51 95.14 21.57 40.45 15.94 37.17"/><polygon class="cls-25" points="21.57 40.45 21.51 95.14 22.87 94.34 22.93 39.65 21.57 40.45"/><polygon class="cls-26" points="17.3 36.38 15.94 37.17 21.57 40.45 22.93 39.65 17.3 36.38"/></g><g class="cls-6"><polygon class="cls-27" points="24.14 48.7 24.08 63.39 51.29 79.08 51.35 64.39 24.14 48.7"/><polygon class="cls-28" points="51.35 64.39 51.29 79.08 52.65 78.29 52.71 63.6 51.35 64.39"/><polygon class="cls-29" points="25.5 47.91 24.14 48.7 51.35 64.39 52.71 63.6 25.5 47.91"/><path class="cls-30" d="M39.36,65.32v1a.24.24,0,0,1-.37.21l-3.49-2a.48.48,0,0,1-.25-.43V63"/></g><g class="cls-6"><polygon class="cls-31" points="24.14 73.49 24.08 88.18 51.29 103.88 51.35 89.18 24.14 73.49"/><polygon class="cls-32" points="51.35 89.18 51.29 103.88 52.65 103.08 52.71 88.39 51.35 89.18"/><polygon class="cls-33" points="25.5 72.7 24.14 73.49 51.35 89.18 52.71 88.39 25.5 72.7"/><path class="cls-30" d="M39.36,90.12v1a.24.24,0,0,1-.37.21l-3.49-2a.48.48,0,0,1-.25-.43V87.74"/></g><g class="cls-6"><polygon class="cls-34" points="57.51 67.78 57.45 82.47 84.67 98.17 84.72 83.48 57.51 67.78"/><polygon class="cls-35" points="84.72 83.48 84.67 98.17 86.03 97.38 86.08 82.69 84.72 83.48"/><polygon class="cls-36" points="58.87 66.99 57.51 67.78 84.72 83.48 86.08 82.69 58.87 66.99"/><path class="cls-30" d="M72.73,84.41v1a.25.25,0,0,1-.37.22l-3.49-2a.5.5,0,0,1-.25-.43V82"/></g><g class="cls-6"><polygon class="cls-37" points="57.51 92.58 57.45 107.27 84.67 122.96 84.72 108.27 57.51 92.58"/><polygon class="cls-38" points="84.72 108.27 84.67 122.96 86.03 122.17 86.08 107.48 84.72 108.27"/><polygon class="cls-39" points="58.87 91.78 57.51 92.58 84.72 108.27 86.08 107.48 58.87 91.78"/><path class="cls-30" d="M72.73,109.2v1a.24.24,0,0,1-.37.22l-3.49-2a.52.52,0,0,1-.25-.44v-1.17"/></g><g class="cls-6"><polygon class="cls-40" points="87.5 78.58 87.44 133.28 93.07 136.55 93.13 81.86 87.5 78.58"/><polygon class="cls-41" points="93.13 81.86 93.07 136.55 94.43 135.76 94.49 81.06 93.13 81.86"/><polygon class="cls-42" points="88.86 77.79 87.5 78.58 93.13 81.86 94.49 81.06 88.86 77.79"/></g><g class="cls-6"><polygon class="cls-43" points="134.41 104.18 138.51 112.47 99.3 135.13 112.22 117.01 134.41 104.18"/><polygon class="cls-44" points="134.33 78.59 138.38 55.31 138.51 112.47 134.41 104.18 134.33 78.59"/><polygon class="cls-45" points="134.33 78.59 134.41 104.18 112.22 117.01 112.14 91.41 134.33 78.59"/><polygon class="cls-46" points="112.22 117.01 99.3 135.13 99.17 77.97 112.14 91.41 112.22 117.01"/><polygon class="cls-47" points="112.14 91.41 99.17 77.97 138.38 55.31 134.33 78.59 112.14 91.41"/></g><g class="cls-6"><path class="cls-48" d="M129.05,111.68c-4.85,2.7-8.72.33-8.65-5.29s4-12.37,8.9-15.07S138,91,138,96.61,133.9,109,129.05,111.68Z"/><path class="cls-49" d="M129.05,111.68c-4.85,2.7-8.72.33-8.65-5.29s4-12.37,8.9-15.07S138,91,138,96.61,133.9,109,129.05,111.68Z"/><path class="cls-50" d="M135.4,90.8l-6.09-3.54c1.61.94,2.6,2.95,2.56,5.81-.07,5.62-4.05,12.37-8.9,15.07-2.39,1.33-4.54,1.43-6.1.52L123,112.2c1.56.91,3.71.8,6.09-.52,4.85-2.71,8.84-9.45,8.91-15.07C138,93.75,137,91.73,135.4,90.8Z"/><path class="cls-51" d="M129.7,86.59c-1.65-1-3.94-.86-6.47.55-5.16,2.88-9.4,10-9.47,16,0,3,1,5.18,2.72,6.18l5.54,3.22c-1.71-1-2.76-3.14-2.72-6.18.07-6,4.31-13.14,9.47-16,2.53-1.41,4.82-1.52,6.48-.55Z"/><path class="cls-52" d="M135.83,88.8c-1.8-1-4.29-.94-7.05.6-5.61,3.13-10.23,10.94-10.31,17.45,0,3.3,1.1,5.64,3,6.72l.54.32c-1.87-1.09-3-3.42-3-6.73.08-6.5,4.7-14.31,10.31-17.44,2.76-1.54,5.25-1.66,7.06-.61Z"/><path class="cls-53" d="M129.32,89.72c-5.61,3.13-10.23,10.94-10.31,17.44s4.41,9.25,10,6.12,10.23-10.94,10.31-17.44S134.94,86.59,129.32,89.72Zm-.27,22c-4.85,2.7-8.72.33-8.65-5.29s4-12.37,8.9-15.07S138,91,138,96.61,133.9,109,129.05,111.68Z"/></g></g></g></g></svg>