<svg xmlns="http://www.w3.org/2000/svg" xmlns:xlink="http://www.w3.org/1999/xlink" viewBox="0 0 150 150"><defs><style>.cls-1,.cls-2{fill:none;}.cls-2{stroke:#fff;stroke-miterlimit:10;stroke-width:0.1px;}.cls-3{opacity:0;}.cls-4{fill:#000714;}.cls-5{opacity:0.1;fill:url(#新建图案);}.cls-6{isolation:isolate;}.cls-7{fill:url(#未命名的渐变_13);}.cls-8{fill:url(#未命名的渐变_43);}.cls-9{fill:url(#未命名的渐变_3);}.cls-10{fill:url(#未命名的渐变_73);}.cls-11{fill:url(#未命名的渐变_73-2);}.cls-12{fill:url(#未命名的渐变_73-3);}.cls-13{fill:url(#未命名的渐变_3-2);}.cls-14{fill:url(#未命名的渐变_3-3);}.cls-15{fill:url(#未命名的渐变_3-4);}.cls-16{fill:url(#未命名的渐变_3-5);}.cls-17{fill:url(#未命名的渐变_13-2);}.cls-18{fill:url(#未命名的渐变_55);}.cls-19{fill:url(#未命名的渐变_3-6);}.cls-20{fill:url(#未命名的渐变_13-3);}.cls-21{opacity:0.2;}</style><pattern id="新建图案" data-name="新建图案" width="18.57" height="32.16" patternTransform="translate(3564.19 727.44)" patternUnits="userSpaceOnUse" viewBox="0 0 18.57 32.16"><rect class="cls-1" width="18.57" height="32.16"/><polyline class="cls-2" points="18.57 21.44 18.57 32.16 18.57 42.88"/><polyline class="cls-2" points="9.29 26.8 18.57 32.16 27.85 37.51 27.85 37.52"/><polyline class="cls-2" points="9.29 37.52 9.29 37.51 18.57 32.16 27.85 26.8"/><polygon class="cls-2" points="27.85 37.52 27.85 26.8 18.57 21.44 9.28 26.8 9.28 37.52 18.57 42.88 27.85 37.52"/><polyline class="cls-2" points="0 21.44 0 32.16 0 42.88"/><polyline class="cls-2" points="-9.28 26.8 0 32.16 9.28 37.51 9.28 37.52"/><polyline class="cls-2" points="-9.28 37.52 -9.28 37.51 0 32.16 9.28 26.8"/><polygon class="cls-2" points="9.28 37.52 9.28 26.8 0 21.44 -9.29 26.8 -9.29 37.52 0 42.88 9.28 37.52"/><polyline class="cls-2" points="18.57 10.72 27.85 16.08 37.13 21.43 37.13 21.44"/><polyline class="cls-2" points="18.57 21.44 18.57 21.43 27.85 16.08 37.13 10.72"/><polygon class="cls-2" points="37.14 21.44 37.14 10.72 27.85 5.36 18.57 10.72 18.57 21.44 27.85 26.8 37.14 21.44"/><polyline class="cls-2" points="9.29 5.36 9.29 16.08 9.29 26.8"/><polyline class="cls-2" points="0.01 10.72 9.29 16.08 18.57 21.43 18.57 21.44"/><polyline class="cls-2" points="0.01 21.44 0.01 21.43 9.29 16.08 18.57 10.72"/><polygon class="cls-2" points="18.57 21.44 18.57 10.72 9.28 5.36 0 10.72 0 21.44 9.28 26.8 18.57 21.44"/><polyline class="cls-2" points="-18.56 10.72 -9.28 16.08 0 21.43 0 21.44"/><polyline class="cls-2" points="-18.56 21.44 -18.56 21.43 -9.28 16.08 0 10.72"/><polygon class="cls-2" points="0 21.44 0 10.72 -9.29 5.36 -18.57 10.72 -18.57 21.44 -9.29 26.8 0 21.44"/><polyline class="cls-2" points="18.57 -10.72 18.57 0 18.57 10.72"/><polyline class="cls-2" points="9.29 -5.36 18.57 0 27.85 5.35 27.85 5.36"/><polyline class="cls-2" points="9.29 5.36 9.29 5.35 18.57 0 27.85 -5.36"/><polygon class="cls-2" points="27.85 5.36 27.85 -5.36 18.57 -10.72 9.28 -5.36 9.28 5.36 18.57 10.72 27.85 5.36"/><polyline class="cls-2" points="0 -10.72 0 0 0 10.72"/><polyline class="cls-2" points="-9.28 -5.36 0 0 9.28 5.35 9.28 5.36"/><polyline class="cls-2" points="-9.28 5.36 -9.28 5.35 0 0 9.28 -5.36"/><polygon class="cls-2" points="9.28 5.36 9.28 -5.36 0 -10.72 -9.29 -5.36 -9.29 5.36 0 10.72 9.28 5.36"/></pattern><linearGradient id="未命名的渐变_13" x1="62.76" y1="140.54" x2="87.25" y2="140.54" gradientUnits="userSpaceOnUse"><stop offset="0" stop-color="#89abe6"/><stop offset="1" stop-color="#547099"/></linearGradient><linearGradient id="未命名的渐变_43" x1="62.88" y1="136.96" x2="87.13" y2="145.79" gradientUnits="userSpaceOnUse"><stop offset="0" stop-color="#38455a"/><stop offset="0.24" stop-color="#7a98cc"/><stop offset="0.34" stop-color="#7a98cc"/><stop offset="0.9" stop-color="#12161a"/><stop offset="1" stop-color="#283140"/></linearGradient><linearGradient id="未命名的渐变_3" x1="61.57" y1="145.67" x2="88.43" y2="145.67" gradientUnits="userSpaceOnUse"><stop offset="0" stop-color="#38455a"/><stop offset="0.15" stop-color="#7a98cc"/><stop offset="0.25" stop-color="#7a98cc"/><stop offset="0.9" stop-color="#12161a"/><stop offset="1" stop-color="#283140"/></linearGradient><linearGradient id="未命名的渐变_73" x1="65.57" y1="48.33" x2="84.95" y2="48.33" gradientUnits="userSpaceOnUse"><stop offset="0" stop-color="#0073e6"/><stop offset="0.15" stop-color="#59c8ff"/><stop offset="0.25" stop-color="#59c8ff"/><stop offset="0.85" stop-color="#1433cc"/><stop offset="1" stop-color="#0073e6"/></linearGradient><linearGradient id="未命名的渐变_73-2" x1="65.84" y1="35.32" x2="84.76" y2="35.32" xlink:href="#未命名的渐变_73"/><linearGradient id="未命名的渐变_73-3" x1="66.12" y1="22.32" x2="84.55" y2="22.32" xlink:href="#未命名的渐变_73"/><linearGradient id="未命名的渐变_3-2" x1="64.39" y1="97.67" x2="87.11" y2="98.07" xlink:href="#未命名的渐变_3"/><linearGradient id="未命名的渐变_3-3" x1="65.72" y1="41.61" x2="84.86" y2="41.94" xlink:href="#未命名的渐变_3"/><linearGradient id="未命名的渐变_3-4" x1="66" y1="28.61" x2="84.65" y2="28.93" xlink:href="#未命名的渐变_3"/><linearGradient id="未命名的渐变_3-5" x1="66.27" y1="15.6" x2="84.46" y2="15.92" xlink:href="#未命名的渐变_3"/><linearGradient id="未命名的渐变_13-2" x1="66.4" y1="9.99" x2="84.35" y2="9.99" xlink:href="#未命名的渐变_13"/><linearGradient id="未命名的渐变_55" x1="71.12" y1="5.17" x2="79.4" y2="5.17" gradientUnits="userSpaceOnUse"><stop offset="0" stop-color="#283140"/><stop offset="0.1" stop-color="#12161a"/><stop offset="0.75" stop-color="#7a98cc"/><stop offset="0.85" stop-color="#7a98cc"/><stop offset="1" stop-color="#38455a"/></linearGradient><linearGradient id="未命名的渐变_3-6" x1="70.08" y1="7.85" x2="80.44" y2="7.85" xlink:href="#未命名的渐变_3"/><linearGradient id="未命名的渐变_13-3" x1="70.1" y1="2.99" x2="80.44" y2="2.99" xlink:href="#未命名的渐变_13"/></defs><title>烟囱</title><g id="图层_2" data-name="图层 2"><g id="图元"><g id="烟囱"><g id="背景" class="cls-3"><rect class="cls-4" width="150" height="150"/><rect id="网格" class="cls-5" width="150" height="150"/></g><g class="cls-6"><path class="cls-7" d="M83.79,135.61c-4.72-2.82-12.47-2.9-17.32-.17s-5,7.21-.25,10,12.47,2.89,17.32.17S88.5,138.43,83.79,135.61Zm-.87,9.66c-4.5,2.53-11.69,2.46-16.07-.16s-4.27-6.78.23-9.31,11.7-2.45,16.07.17S87.42,142.75,82.92,145.27Z"/><path class="cls-8" d="M84.63,136a13.91,13.91,0,0,0-1.81-.91l-.68-.28a12.68,12.68,0,0,1,1.65.82c4.71,2.82,4.6,7.31-.25,10s-12.6,2.65-17.32-.17-4.6-7.31.25-10l-.83.35c-5.32,3-5.44,7.9-.27,11S79,150,84.36,147,89.8,139.07,84.63,136Z"/><path class="cls-9" d="M84.36,147c-5.32,3-13.82,2.89-19-.2-2.54-1.52-3.8-3.48-3.8-5.44v.84c0,2,1.26,3.93,3.8,5.45,5.17,3.09,13.67,3.17,19,.19,2.7-1.52,4.06-3.54,4.07-5.56v-.84C88.42,143.44,87.06,145.46,84.36,147Z"/><path class="cls-10" d="M84.85,42.3c0,1.46-.95,2.93-2.9,4a14.87,14.87,0,0,1-13.53-.14c-1.84-1.09-2.74-2.52-2.71-3.93l-.14,6.46c0,1.44.88,2.88,2.75,4a15.1,15.1,0,0,0,13.7.14c2-1.11,3-2.59,2.93-4.07Z"/><path class="cls-11" d="M84.65,29.36c0,1.42-.92,2.85-2.83,3.92a14.56,14.56,0,0,1-13.19-.13C66.84,32.08,66,30.69,66,29.3l-.15,6.47c0,1.4.86,2.81,2.68,3.9a14.75,14.75,0,0,0,13.37.13c1.93-1.08,2.89-2.53,2.87-4Z"/><path class="cls-12" d="M84.45,16.42c0,1.39-.9,2.78-2.76,3.82a14.12,14.12,0,0,1-12.86-.13c-1.74-1-2.6-2.39-2.57-3.74-.05,2.16-.09,4.32-.14,6.47,0,1.37.84,2.74,2.61,3.8a14.35,14.35,0,0,0,13,.13c1.88-1.06,2.81-2.47,2.79-3.87C84.52,20.74,84.48,18.58,84.45,16.42Z"/><path class="cls-13" d="M85,48.77c0,1.48-1,3-2.93,4.07a15.1,15.1,0,0,1-13.7-.14c-1.86-1.11-2.78-2.55-2.75-4q-1,45.87-1.93,91.73c0,1.68,1,3.37,3.21,4.67,4.38,2.62,11.57,2.69,16.07.16,2.32-1.3,3.47-3,3.45-4.77Q85.67,94.63,85,48.77Z"/><path class="cls-14" d="M68.42,46.18A14.87,14.87,0,0,0,82,46.32c2-1.09,2.92-2.55,2.9-4l-.09-6.48c0,1.45-.94,2.89-2.87,4a14.75,14.75,0,0,1-13.37-.13c-1.82-1.09-2.7-2.49-2.68-3.89l-.13,6.47C65.69,43.67,66.58,45.09,68.42,46.18Z"/><path class="cls-15" d="M68.63,33.15a14.56,14.56,0,0,0,13.19.13c1.9-1.07,2.85-2.49,2.83-3.91l-.1-6.47c0,1.41-.91,2.81-2.79,3.87a14.35,14.35,0,0,1-13-.13c-1.77-1.06-2.64-2.43-2.61-3.79,0,2.15-.08,4.31-.13,6.46C66,30.69,66.84,32.08,68.63,33.15Z"/><path class="cls-16" d="M68.83,20.11a14.12,14.12,0,0,0,12.86.13c1.86-1,2.78-2.43,2.76-3.82L84.35,10c0,1.37-.89,2.74-2.72,3.77a14,14,0,0,1-12.69-.13c-1.72-1-2.57-2.37-2.54-3.69-.05,2.15-.09,4.31-.14,6.46C66.23,17.72,67.09,19.07,68.83,20.11Z"/><path class="cls-17" d="M81.81,6.38a14,14,0,0,0-12.69-.13c-3.55,2-3.64,5.28-.18,7.35a14,14,0,0,0,12.69.13C85.18,11.73,85.26,8.44,81.81,6.38Z"/></g><g class="cls-6"><path class="cls-18" d="M78.18,1.3a6.46,6.46,0,0,0-5.84,0A2,2,0,0,0,71.14,3l0,6.74A2,2,0,0,1,72.32,8a6.46,6.46,0,0,1,5.84,0,2.08,2.08,0,0,1,1.22,1.71L79.4,3A2.08,2.08,0,0,0,78.18,1.3Z"/><path class="cls-19" d="M78.93,5.11a8.05,8.05,0,0,1-7.31,0A2.6,2.6,0,0,1,70.1,3l0,6.74a2.6,2.6,0,0,0,1.52,2.13,8.05,8.05,0,0,0,7.31,0,2.59,2.59,0,0,0,1.51-2.11l0-6.73A2.59,2.59,0,0,1,78.93,5.11Z"/><path class="cls-20" d="M78.91.87a8.08,8.08,0,0,0-7.31,0c-2,1.17-2,3.06,0,4.23a8.05,8.05,0,0,0,7.31,0C81,3.94,80.93,2,78.91.87ZM78.2,4.69a6.45,6.45,0,0,1-5.85,0c-1.61-.93-1.62-2.45,0-3.38a6.46,6.46,0,0,1,5.84,0C79.8,2.24,79.81,3.75,78.2,4.69Z"/></g></g></g></g></svg>