<svg xmlns="http://www.w3.org/2000/svg" xmlns:xlink="http://www.w3.org/1999/xlink" viewBox="0 0 150 150"><defs><style>.cls-1,.cls-2{fill:none;}.cls-2{stroke:#fff;stroke-miterlimit:10;stroke-width:0.1px;}.cls-3{isolation:isolate;}.cls-4{opacity:0;}.cls-5{fill:#000714;}.cls-6{opacity:0.1;fill:url(#新建图案);}.cls-7{fill:#13181d;}.cls-8{fill:url(#未命名的渐变_115);}.cls-9{fill:url(#未命名的渐变_31);}.cls-10{fill:url(#未命名的渐变_83);}.cls-11{fill:url(#未命名的渐变_115-2);}.cls-12{fill:url(#未命名的渐变_115-3);}.cls-13{fill:url(#未命名的渐变_107);}.cls-14{fill:url(#未命名的渐变_66);}.cls-15{fill:#08121b;}.cls-16{opacity:0.15;}.cls-17{fill:#15b8d9;}.cls-18{mix-blend-mode:overlay;}.cls-19{fill:url(#未命名的渐变_18);}.cls-20{fill:#19d9ff;}.cls-21{fill:url(#未命名的渐变_133);}.cls-22{fill:url(#未命名的渐变_42);}.cls-23{fill:url(#未命名的渐变_83-2);}.cls-24{fill:url(#未命名的渐变_128);}.cls-25{opacity:0.3;}.cls-26,.cls-35,.cls-41{mix-blend-mode:multiply;}.cls-26{fill:url(#未命名的渐变_154);}.cls-27{fill:url(#未命名的渐变_107-2);}.cls-28{fill:url(#未命名的渐变_133-2);}.cls-29{fill:url(#未命名的渐变_42-2);}.cls-30{fill:url(#未命名的渐变_16);}.cls-31{fill:url(#未命名的渐变_19);}.cls-32{fill:url(#未命名的渐变_42-3);}.cls-33{fill:url(#未命名的渐变_83-3);}.cls-34{fill:url(#未命名的渐变_128-2);}.cls-35{fill:url(#未命名的渐变_5);}.cls-36{fill:url(#未命名的渐变_83-4);}.cls-37{fill:url(#未命名的渐变_115-4);}.cls-38{fill:url(#未命名的渐变_114);}.cls-39{fill:url(#未命名的渐变_31-2);}.cls-40{fill:url(#未命名的渐变_83-5);}.cls-41{fill:url(#未命名的渐变_154-2);}.cls-42{fill:url(#未命名的渐变_114-2);}.cls-43{fill:url(#未命名的渐变_133-3);}.cls-44{fill:url(#未命名的渐变_114-3);}.cls-45{fill:url(#未命名的渐变_133-4);}.cls-46{fill:url(#未命名的渐变_114-4);}.cls-47{fill:url(#未命名的渐变_133-5);}.cls-48{fill:url(#未命名的渐变_107-3);}.cls-49{fill:url(#未命名的渐变_133-6);}.cls-50{fill:url(#未命名的渐变_131);}.cls-51{fill:url(#未命名的渐变_83-6);}.cls-52{fill:url(#未命名的渐变_107-4);}.cls-53{fill:url(#未命名的渐变_133-7);}.cls-54{fill:url(#未命名的渐变_133-8);}.cls-55{fill:url(#未命名的渐变_131-2);}.cls-56{fill:url(#未命名的渐变_107-5);}.cls-57{fill:url(#未命名的渐变_107-6);}.cls-58{fill:url(#未命名的渐变_133-9);}.cls-59{fill:url(#未命名的渐变_133-10);}.cls-60{fill:url(#未命名的渐变_114-5);}.cls-61{fill:url(#未命名的渐变_115-5);}.cls-62{fill:url(#未命名的渐变_133-11);}.cls-63{fill:url(#未命名的渐变_133-12);}.cls-64{fill:url(#未命名的渐变_159);}.cls-65{fill:url(#未命名的渐变_155);}.cls-66{opacity:0.2;}</style><pattern id="新建图案" data-name="新建图案" width="18.57" height="32.16" patternTransform="translate(1802.48 277.16)" patternUnits="userSpaceOnUse" viewBox="0 0 18.57 32.16"><rect class="cls-1" width="18.57" height="32.16"/><polyline class="cls-2" points="18.57 21.44 18.57 32.16 18.57 42.88"/><polyline class="cls-2" points="9.29 26.8 18.57 32.16 27.85 37.51 27.85 37.52"/><polyline class="cls-2" points="9.29 37.52 9.29 37.51 18.57 32.16 27.85 26.8"/><polygon class="cls-2" points="27.85 37.52 27.85 26.8 18.57 21.44 9.28 26.8 9.28 37.52 18.57 42.88 27.85 37.52"/><polyline class="cls-2" points="0 21.44 0 32.16 0 42.88"/><polyline class="cls-2" points="-9.28 26.8 0 32.16 9.28 37.51 9.28 37.52"/><polyline class="cls-2" points="-9.28 37.52 -9.28 37.51 0 32.16 9.28 26.8"/><polygon class="cls-2" points="9.28 37.52 9.28 26.8 0 21.44 -9.29 26.8 -9.29 37.52 0 42.88 9.28 37.52"/><polyline class="cls-2" points="18.57 10.72 27.85 16.08 37.13 21.43 37.13 21.44"/><polyline class="cls-2" points="18.57 21.44 18.57 21.43 27.85 16.08 37.13 10.72"/><polygon class="cls-2" points="37.14 21.44 37.14 10.72 27.85 5.36 18.57 10.72 18.57 21.44 27.85 26.8 37.14 21.44"/><polyline class="cls-2" points="9.29 5.36 9.29 16.08 9.29 26.8"/><polyline class="cls-2" points="0.01 10.72 9.29 16.08 18.57 21.43 18.57 21.44"/><polyline class="cls-2" points="0.01 21.44 0.01 21.43 9.29 16.08 18.57 10.72"/><polygon class="cls-2" points="18.57 21.44 18.57 10.72 9.28 5.36 0 10.72 0 21.44 9.28 26.8 18.57 21.44"/><polyline class="cls-2" points="-18.56 10.72 -9.28 16.08 0 21.43 0 21.44"/><polyline class="cls-2" points="-18.56 21.44 -18.56 21.43 -9.28 16.08 0 10.72"/><polygon class="cls-2" points="0 21.44 0 10.72 -9.29 5.36 -18.57 10.72 -18.57 21.44 -9.29 26.8 0 21.44"/><polyline class="cls-2" points="18.57 -10.72 18.57 0 18.57 10.72"/><polyline class="cls-2" points="9.29 -5.36 18.57 0 27.85 5.35 27.85 5.36"/><polyline class="cls-2" points="9.29 5.36 9.29 5.35 18.57 0 27.85 -5.36"/><polygon class="cls-2" points="27.85 5.36 27.85 -5.36 18.57 -10.72 9.28 -5.36 9.28 5.36 18.57 10.72 27.85 5.36"/><polyline class="cls-2" points="0 -10.72 0 0 0 10.72"/><polyline class="cls-2" points="-9.28 -5.36 0 0 9.28 5.35 9.28 5.36"/><polyline class="cls-2" points="-9.28 5.36 -9.28 5.35 0 0 9.28 -5.36"/><polygon class="cls-2" points="9.28 5.36 9.28 -5.36 0 -10.72 -9.29 -5.36 -9.29 5.36 0 10.72 9.28 5.36"/></pattern><linearGradient id="未命名的渐变_115" x1="121.27" y1="89.37" x2="100.49" y2="53.36" gradientUnits="userSpaceOnUse"><stop offset="0" stop-color="#283140"/><stop offset="0.1" stop-color="#12161a"/><stop offset="0.8" stop-color="#7a98cc"/><stop offset="1" stop-color="#38455a"/></linearGradient><linearGradient id="未命名的渐变_31" x1="142.05" y1="93.39" x2="107.39" y2="33.36" gradientUnits="userSpaceOnUse"><stop offset="0" stop-color="#0073e6"/><stop offset="0.1" stop-color="#1433cc"/><stop offset="0.8" stop-color="#59c8ff"/><stop offset="1" stop-color="#0073e6"/></linearGradient><linearGradient id="未命名的渐变_83" x1="89.04" y1="69.79" x2="138.2" y2="69.79" gradientUnits="userSpaceOnUse"><stop offset="0" stop-color="#425266"/><stop offset="1" stop-color="#596b8c"/></linearGradient><linearGradient id="未命名的渐变_115-2" x1="109.36" y1="96.28" x2="88.49" y2="60.15" xlink:href="#未命名的渐变_115"/><linearGradient id="未命名的渐变_115-3" x1="119.76" y1="90.27" x2="98.89" y2="54.14" xlink:href="#未命名的渐变_115"/><linearGradient id="未命名的渐变_107" x1="71" y1="127.63" x2="122.8" y2="75.83" gradientUnits="userSpaceOnUse"><stop offset="0" stop-color="#283140"/><stop offset="0.34" stop-color="#232b37"/><stop offset="0.9" stop-color="#15191f"/><stop offset="1" stop-color="#12161a"/></linearGradient><linearGradient id="未命名的渐变_66" x1="89.14" y1="90.82" x2="106.33" y2="90.82" gradientUnits="userSpaceOnUse"><stop offset="0" stop-color="#435368"/><stop offset="0.31" stop-color="#3e4c5f"/><stop offset="0.81" stop-color="#2f3947"/><stop offset="1" stop-color="#28313c"/></linearGradient><linearGradient id="未命名的渐变_18" x1="101.86" y1="94.94" x2="93.61" y2="86.69" gradientUnits="userSpaceOnUse"><stop offset="0" stop-color="#fff"/><stop offset="0.02" stop-color="#fff" stop-opacity="0.93"/><stop offset="0.09" stop-color="#fff" stop-opacity="0.74"/><stop offset="0.17" stop-color="#fff" stop-opacity="0.56"/><stop offset="0.25" stop-color="#fff" stop-opacity="0.41"/><stop offset="0.33" stop-color="#fff" stop-opacity="0.28"/><stop offset="0.43" stop-color="#fff" stop-opacity="0.18"/><stop offset="0.53" stop-color="#fff" stop-opacity="0.1"/><stop offset="0.64" stop-color="#fff" stop-opacity="0.04"/><stop offset="0.77" stop-color="#fff" stop-opacity="0.01"/><stop offset="1" stop-color="#fff" stop-opacity="0"/></linearGradient><linearGradient id="未命名的渐变_133" x1="40.92" y1="68.37" x2="115.36" y2="68.37" gradientUnits="userSpaceOnUse"><stop offset="0" stop-color="#89abe6"/><stop offset="1" stop-color="#547099"/></linearGradient><linearGradient id="未命名的渐变_42" x1="78.14" y1="89.94" x2="78.14" y2="46.82" gradientUnits="userSpaceOnUse"><stop offset="0" stop-color="#99beff"/><stop offset="0.02" stop-color="#99beff" stop-opacity="0.93"/><stop offset="0.09" stop-color="#99beff" stop-opacity="0.74"/><stop offset="0.17" stop-color="#99beff" stop-opacity="0.56"/><stop offset="0.25" stop-color="#99beff" stop-opacity="0.41"/><stop offset="0.33" stop-color="#99beff" stop-opacity="0.28"/><stop offset="0.43" stop-color="#99beff" stop-opacity="0.18"/><stop offset="0.53" stop-color="#99beff" stop-opacity="0.1"/><stop offset="0.64" stop-color="#99beff" stop-opacity="0.04"/><stop offset="0.77" stop-color="#99beff" stop-opacity="0.01"/><stop offset="1" stop-color="#99beff" stop-opacity="0"/></linearGradient><linearGradient id="未命名的渐变_83-2" x1="85.29" y1="127.72" x2="33.42" y2="75.86" xlink:href="#未命名的渐变_83"/><linearGradient id="未命名的渐变_128" x1="63.16" y1="134.82" x2="63.16" y2="89.23" gradientTransform="matrix(-1, 0, 0, 1, 139.85, 0)" gradientUnits="userSpaceOnUse"><stop offset="0" stop-color="#6a84b3" stop-opacity="0"/><stop offset="0.25" stop-color="#6a84b3" stop-opacity="0.01"/><stop offset="0.41" stop-color="#6a84b3" stop-opacity="0.06"/><stop offset="0.53" stop-color="#6a84b3" stop-opacity="0.14"/><stop offset="0.64" stop-color="#6a84b3" stop-opacity="0.25"/><stop offset="0.75" stop-color="#6a84b3" stop-opacity="0.4"/><stop offset="0.84" stop-color="#6a85b3" stop-opacity="0.58"/><stop offset="0.93" stop-color="#6a85b3" stop-opacity="0.79"/><stop offset="1" stop-color="#6a85b3"/></linearGradient><linearGradient id="未命名的渐变_154" x1="78.16" y1="67.66" x2="115.36" y2="67.66" gradientUnits="userSpaceOnUse"><stop offset="0" stop-color="#142439" stop-opacity="0.6"/><stop offset="1" stop-color="#142439" stop-opacity="0"/></linearGradient><linearGradient id="未命名的渐变_107-2" x1="80.16" y1="85.96" x2="105.18" y2="60.94" xlink:href="#未命名的渐变_107"/><linearGradient id="未命名的渐变_133-2" x1="49.26" y1="62.73" x2="106.98" y2="62.73" xlink:href="#未命名的渐变_133"/><linearGradient id="未命名的渐变_42-2" x1="78.12" y1="74.34" x2="78.12" y2="51.12" xlink:href="#未命名的渐变_42"/><linearGradient id="未命名的渐变_16" x1="78.12" y1="73.99" x2="78.12" y2="51.46" gradientUnits="userSpaceOnUse"><stop offset="0" stop-color="#425266"/><stop offset="1" stop-color="#697fa6"/></linearGradient><linearGradient id="未命名的渐变_19" x1="78.12" y1="73.74" x2="78.12" y2="51.71" gradientUnits="userSpaceOnUse"><stop offset="0" stop-color="#99beff" stop-opacity="0"/><stop offset="0.23" stop-color="#99beff" stop-opacity="0.01"/><stop offset="0.36" stop-color="#99beff" stop-opacity="0.04"/><stop offset="0.47" stop-color="#99beff" stop-opacity="0.1"/><stop offset="0.57" stop-color="#99beff" stop-opacity="0.18"/><stop offset="0.67" stop-color="#99beff" stop-opacity="0.28"/><stop offset="0.75" stop-color="#99beff" stop-opacity="0.41"/><stop offset="0.83" stop-color="#99beff" stop-opacity="0.56"/><stop offset="0.91" stop-color="#99beff" stop-opacity="0.74"/><stop offset="0.98" stop-color="#99beff" stop-opacity="0.93"/><stop offset="1" stop-color="#99beff"/></linearGradient><linearGradient id="未命名的渐变_42-3" x1="78.12" y1="79.44" x2="78.12" y2="46.01" xlink:href="#未命名的渐变_42"/><linearGradient id="未命名的渐变_83-3" x1="76.1" y1="86.03" x2="51.03" y2="60.96" xlink:href="#未命名的渐变_83"/><linearGradient id="未命名的渐变_128-2" x1="62.85" y1="83.96" x2="62.85" y2="78.9" xlink:href="#未命名的渐变_128"/><linearGradient id="未命名的渐变_5" x1="82.42" y1="130.59" x2="54.91" y2="103.08" gradientUnits="userSpaceOnUse"><stop offset="0" stop-color="#142439" stop-opacity="0"/><stop offset="1" stop-color="#142439" stop-opacity="0.6"/></linearGradient><linearGradient id="未命名的渐变_83-4" x1="59.55" y1="92.57" x2="63.35" y2="92.57" xlink:href="#未命名的渐变_83"/><linearGradient id="未命名的渐变_115-4" x1="61.53" y1="125.13" x2="40.67" y2="88.99" xlink:href="#未命名的渐变_115"/><linearGradient id="未命名的渐变_114" x1="39.14" y1="137.96" x2="18.36" y2="101.96" gradientUnits="userSpaceOnUse"><stop offset="0" stop-color="#38455a"/><stop offset="0.2" stop-color="#7a98cc"/><stop offset="0.9" stop-color="#12161a"/><stop offset="1" stop-color="#283140"/></linearGradient><linearGradient id="未命名的渐变_31-2" x1="59.91" y1="141.99" x2="25.25" y2="81.95" xlink:href="#未命名的渐变_31"/><linearGradient id="未命名的渐变_83-5" x1="6.91" y1="118.38" x2="56.07" y2="118.38" xlink:href="#未命名的渐变_83"/><linearGradient id="未命名的渐变_154-2" x1="78.16" y1="62.91" x2="106.98" y2="62.91" xlink:href="#未命名的渐变_154"/><linearGradient id="未命名的渐变_114-2" x1="67.44" y1="59.85" x2="88.63" y2="59.85" xlink:href="#未命名的渐变_114"/><linearGradient id="未命名的渐变_133-3" x1="67.53" y1="50.95" x2="88.63" y2="50.95" xlink:href="#未命名的渐变_133"/><linearGradient id="未命名的渐变_114-3" x1="72.53" y1="44.49" x2="83.54" y2="44.49" xlink:href="#未命名的渐变_114"/><linearGradient id="未命名的渐变_133-4" x1="72.57" y1="35.19" x2="83.54" y2="35.19" xlink:href="#未命名的渐变_133"/><linearGradient id="未命名的渐变_114-4" x1="70.46" y1="35.57" x2="85.6" y2="35.57" xlink:href="#未命名的渐变_114"/><linearGradient id="未命名的渐变_133-5" x1="70.53" y1="31.3" x2="85.6" y2="31.3" xlink:href="#未命名的渐变_133"/><linearGradient id="未命名的渐变_107-3" x1="71.9" y1="31.3" x2="84.23" y2="31.3" xlink:href="#未命名的渐变_107"/><linearGradient id="未命名的渐变_133-6" x1="81.42" y1="36.8" x2="88.81" y2="36.8" xlink:href="#未命名的渐变_133"/><linearGradient id="未命名的渐变_131" x1="92.53" y1="40.19" x2="88.11" y2="35.76" gradientUnits="userSpaceOnUse"><stop offset="0" stop-color="#596b8c"/><stop offset="1" stop-color="#425266"/></linearGradient><linearGradient id="未命名的渐变_83-6" x1="93.96" y1="45.08" x2="83.61" y2="34.73" xlink:href="#未命名的渐变_83"/><linearGradient id="未命名的渐变_107-4" x1="96.14" y1="41.2" x2="100.02" y2="41.2" xlink:href="#未命名的渐变_107"/><linearGradient id="未命名的渐变_133-7" x1="91.83" y1="39.38" x2="100.02" y2="39.38" xlink:href="#未命名的渐变_133"/><linearGradient id="未命名的渐变_133-8" x1="67.18" y1="36.8" x2="74.57" y2="36.8" gradientTransform="matrix(-1, 0, 0, 1, 142.07, 0)" xlink:href="#未命名的渐变_133"/><linearGradient id="未命名的渐变_131-2" x1="78.29" y1="40.19" x2="73.87" y2="35.76" gradientTransform="matrix(-1, 0, 0, 1, 142.07, 0)" xlink:href="#未命名的渐变_131"/><linearGradient id="未命名的渐变_107-5" x1="79.72" y1="45.08" x2="69.37" y2="34.73" gradientTransform="matrix(-1, 0, 0, 1, 142.07, 0)" xlink:href="#未命名的渐变_107"/><linearGradient id="未命名的渐变_107-6" x1="81.9" y1="41.2" x2="85.79" y2="41.2" gradientTransform="matrix(-1, 0, 0, 1, 142.07, 0)" xlink:href="#未命名的渐变_107"/><linearGradient id="未命名的渐变_133-9" x1="77.59" y1="39.38" x2="85.79" y2="39.38" gradientTransform="matrix(-1, 0, 0, 1, 142.07, 0)" xlink:href="#未命名的渐变_133"/><linearGradient id="未命名的渐变_133-10" x1="43.89" y1="30.2" x2="112.37" y2="30.2" xlink:href="#未命名的渐变_133"/><linearGradient id="未命名的渐变_114-5" x1="43.87" y1="40.44" x2="112.36" y2="40.44" xlink:href="#未命名的渐变_114"/><linearGradient id="未命名的渐变_115-5" x1="51.81" y1="22.07" x2="104.42" y2="22.07" xlink:href="#未命名的渐变_115"/><linearGradient id="未命名的渐变_133-11" x1="78.03" y1="27.3" x2="78.03" y2="19.58" xlink:href="#未命名的渐变_133"/><linearGradient id="未命名的渐变_133-12" x1="78.03" y1="19.58" x2="78.03" y2="15.24" xlink:href="#未命名的渐变_133"/><linearGradient id="未命名的渐变_159" x1="78.04" y1="34.66" x2="78.04" gradientUnits="userSpaceOnUse"><stop offset="0" stop-color="#2f77eb"/><stop offset="0.12" stop-color="#2c7aee" stop-opacity="0.84"/><stop offset="0.36" stop-color="#2581f4" stop-opacity="0.55"/><stop offset="0.58" stop-color="#2085f9" stop-opacity="0.31"/><stop offset="0.76" stop-color="#1c89fc" stop-opacity="0.14"/><stop offset="0.91" stop-color="#1a8bfe" stop-opacity="0.04"/><stop offset="1" stop-color="#198cff" stop-opacity="0"/></linearGradient><linearGradient id="未命名的渐变_155" x1="78.04" y1="34.66" x2="78.04" gradientUnits="userSpaceOnUse"><stop offset="0" stop-color="#4cfafe" stop-opacity="0.8"/><stop offset="0.01" stop-color="#4bf7fe" stop-opacity="0.78"/><stop offset="0.05" stop-color="#40e1fe" stop-opacity="0.62"/><stop offset="0.1" stop-color="#37ccfe" stop-opacity="0.47"/><stop offset="0.16" stop-color="#2fbbff" stop-opacity="0.34"/><stop offset="0.22" stop-color="#28acff" stop-opacity="0.23"/><stop offset="0.29" stop-color="#22a0ff" stop-opacity="0.15"/><stop offset="0.37" stop-color="#1e97ff" stop-opacity="0.08"/><stop offset="0.47" stop-color="#1b91ff" stop-opacity="0.03"/><stop offset="0.61" stop-color="#198dff" stop-opacity="0.01"/><stop offset="1" stop-color="#198cff" stop-opacity="0"/></linearGradient></defs><title>电磁阀</title><g class="cls-3"><g id="图层_2" data-name="图层 2"><g id="图元"><g id="电磁阀"><g class="cls-4"><rect class="cls-5" width="150" height="150"/><rect id="网格" class="cls-6" width="150" height="150"/></g><g class="cls-3"><path class="cls-7" d="M105,77.63a4.93,4.93,0,0,1-1.72-1.83c-1-1.66-1-3.44,0-4l-4.88,2.84c-1,.54-1,2.32,0,4a5,5,0,0,0,1.73,1.83,1.74,1.74,0,0,0,1.74.17l4.88-2.84A1.74,1.74,0,0,1,105,77.63Z"/><path class="cls-7" d="M118.44,91.82A5.42,5.42,0,0,1,116,87.57a1.72,1.72,0,0,1,.72-1.57l-4.89,2.84a1.71,1.71,0,0,0-.71,1.57,5.4,5.4,0,0,0,2.44,4.25,1.74,1.74,0,0,0,1.75.17L120.18,92A1.7,1.7,0,0,1,118.44,91.82Z"/><path class="cls-7" d="M99.45,58.93A5.43,5.43,0,0,1,97,54.69a1.76,1.76,0,0,1,.72-1.58L92.84,56a1.72,1.72,0,0,0-.72,1.57,5.41,5.41,0,0,0,2.45,4.24,1.7,1.7,0,0,0,1.74.17l4.89-2.84A1.74,1.74,0,0,1,99.45,58.93Z"/><path class="cls-7" d="M131.93,93.19a5,5,0,0,1-1.73-1.83c-1-1.67-1-3.45,0-4l-4.89,2.84c-1,.55-1,2.33,0,4A5,5,0,0,0,127,96a1.7,1.7,0,0,0,1.73.17l4.89-2.84A1.72,1.72,0,0,1,131.93,93.19Z"/><path class="cls-7" d="M105.07,46.68a5,5,0,0,1-1.72-1.84c-1-1.65-1-3.41,0-4l-4.89,2.84c-.94.55-.94,2.31,0,4a5,5,0,0,0,1.73,1.83,1.7,1.7,0,0,0,1.73.17l4.89-2.84A1.74,1.74,0,0,1,105.07,46.68Z"/><path class="cls-8" d="M118.46,83.89c-8.14-4.7-14.72-16.1-14.7-25.45,0-4.64,1.66-7.91,4.31-9.45l-4.88,2.83c-2.65,1.54-4.3,4.82-4.31,9.45,0,9.36,6.55,20.76,14.7,25.46,4.09,2.37,7.81,2.59,10.49,1L129,84.92C126.27,86.48,122.56,86.26,118.46,83.89Z"/><path class="cls-7" d="M137.55,80.92a5.43,5.43,0,0,1-2.45-4.24,1.72,1.72,0,0,1,.72-1.57L130.94,78a1.7,1.7,0,0,0-.72,1.57,5.4,5.4,0,0,0,2.44,4.24,1.74,1.74,0,0,0,1.75.17l4.88-2.84A1.73,1.73,0,0,1,137.55,80.92Z"/><path class="cls-7" d="M118.56,48a5.4,5.4,0,0,1-2.45-4.23,1.75,1.75,0,0,1,.72-1.58L112,45.06a1.72,1.72,0,0,0-.72,1.57,5.43,5.43,0,0,0,2.45,4.24,1.7,1.7,0,0,0,1.74.17l4.89-2.84A1.72,1.72,0,0,1,118.56,48Z"/><path class="cls-7" d="M132,62.23a4.93,4.93,0,0,1-1.74-1.84c-1-1.65-1-3.41,0-4l-4.88,2.84c-.95.55-.94,2.31,0,4a4.91,4.91,0,0,0,1.73,1.84,1.72,1.72,0,0,0,1.73.16l4.89-2.84A1.72,1.72,0,0,1,132,62.23Z"/><path class="cls-9" d="M118.59,38.7c-6.84-3.94-13-4.31-17.49-1.71l-4.89,2.84c4.47-2.6,10.66-2.23,17.49,1.71,13.59,7.85,24.55,26.84,24.5,42.44,0,7.75-2.75,13.21-7.16,15.77l4.88-2.84c4.41-2.56,7.15-8,7.17-15.77C143.13,65.54,132.17,46.55,118.59,38.7Z"/><path class="cls-10" d="M113.7,41.54C100.12,33.7,89.09,40,89,55.6S100,90.19,113.54,98s24.62,1.56,24.66-14S127.29,49.39,113.7,41.54Zm0,3.69a5.41,5.41,0,0,1,2.45,4.24c0,1.55-1.11,2.18-2.46,1.4a5.43,5.43,0,0,1-2.45-4.24C111.23,45.08,112.34,44.45,113.69,45.23ZM98.47,43.7a1.7,1.7,0,0,1,1.73.16,4.93,4.93,0,0,1,1.74,1.84c1,1.65,1,3.43,0,4a1.7,1.7,0,0,1-1.73-.17,5,5,0,0,1-1.73-1.83C97.49,46,97.5,44.23,98.47,43.7Zm-3.9,18.06a5.41,5.41,0,0,1-2.45-4.24c0-1.55,1.11-2.18,2.46-1.4A5.43,5.43,0,0,1,97,60.36C97,61.91,95.92,62.54,94.57,61.76Zm7.27,18.88a1.74,1.74,0,0,1-1.74-.17,5,5,0,0,1-1.73-1.83c-1-1.67-1-3.45,0-4a1.72,1.72,0,0,1,1.73.17,5,5,0,0,1,1.73,1.83C102.82,78.32,102.81,80.1,101.84,80.64Zm11.71,14a5.4,5.4,0,0,1-2.44-4.25c0-1.55,1.11-2.18,2.46-1.4A5.43,5.43,0,0,1,116,93.25C116,94.81,114.9,95.44,113.55,94.66Zm0-7.93c-8.15-4.7-14.73-16.1-14.7-25.46s6.65-13.13,14.79-8.43S128.4,69,128.37,78.3,121.72,91.43,113.58,86.73Zm15.19,9.46A1.7,1.7,0,0,1,127,96a5,5,0,0,1-1.73-1.83c-1-1.66-1-3.44,0-4a1.77,1.77,0,0,1,1.74.17,4.93,4.93,0,0,1,1.72,1.83C129.75,93.87,129.75,95.65,128.77,96.19Zm.09-31a1.72,1.72,0,0,1-1.73-.16,4.91,4.91,0,0,1-1.73-1.84c-1-1.67-1-3.45,0-4a1.74,1.74,0,0,1,1.74.16,5,5,0,0,1,1.72,1.84C129.84,62.91,129.84,64.68,128.86,65.23Zm3.8,18.53a5.4,5.4,0,0,1-2.44-4.24c0-1.55,1.11-2.18,2.46-1.4a5.4,5.4,0,0,1,2.45,4.24C135.12,83.91,134,84.54,132.66,83.76Z"/></g><g class="cls-3"><path class="cls-11" d="M113.64,86.64c-8.17-4.72-14.75-16.14-14.73-25.52,0-4.66,1.66-7.94,4.31-9.48L84.1,62.75c-2.66,1.55-4.3,4.83-4.31,9.49,0,9.37,6.56,20.79,14.73,25.51,4.1,2.37,7.82,2.59,10.5,1l19.13-11.12C121.47,89.23,117.75,89,113.64,86.64Z"/><path class="cls-12" d="M113.74,52.67c-4.11-2.37-7.83-2.59-10.52-1L84.1,62.75c2.68-1.56,6.4-1.34,10.51,1,8.16,4.71,14.75,16.13,14.73,25.51,0,4.66-1.66,7.94-4.32,9.48l19.13-11.12c2.65-1.54,4.3-4.82,4.31-9.48C128.49,68.8,121.9,57.38,113.74,52.67Z"/></g><g class="cls-3"><path class="cls-13" d="M114.16,70.06l-33,19.17h0a5.84,5.84,0,0,1-3,.7v44.89a6,6,0,0,0,2.86-.7h0L114,115h0a2,2,0,0,0,1.19-1.68l.13-44.88A2.06,2.06,0,0,1,114.16,70.06Z"/><path class="cls-14" d="M106.33,89.81a1.84,1.84,0,0,1-.84,1.44L90,100.19c-.47.27-.85.06-.85-.47v-.53l0-7.36A1.87,1.87,0,0,1,90,90.38l15.14-8.74.35-.2c.46-.26.84,0,.84.48Z"/><path class="cls-15" d="M105.15,89a1.87,1.87,0,0,1-.84,1.45L89.17,99.19l0-7.36A1.87,1.87,0,0,1,90,90.38l15.14-8.74Z"/><g class="cls-16"><polygon class="cls-17" points="92.86 91.94 92.86 92.42 93.28 92.18 93.28 93.63 92.86 93.87 92.86 92.42 92.44 92.66 92.45 94.6 93.7 93.88 93.69 91.46 92.86 91.94"/><polygon class="cls-17" points="94.54 90.97 94.54 91.45 94.96 91.21 94.96 92.66 94.55 92.9 94.54 91.45 94.12 91.69 94.12 93.63 95.39 92.9 95.38 90.49 94.54 90.97"/><polygon class="cls-17" points="97.06 89.52 95.8 90.24 95.8 90.72 96.64 90.24 96.64 90.72 97.06 90.48 97.06 89.52"/><polygon class="cls-17" points="96.22 90.97 96.22 92.42 96.65 92.17 96.64 90.72 96.22 90.97"/></g><polygon class="cls-17" points="93.07 92.12 93.07 92.6 93.49 92.36 93.5 93.81 93.07 94.05 93.07 92.6 92.65 92.84 92.66 94.78 93.91 94.05 93.91 91.64 93.07 92.12"/><polygon class="cls-17" points="94.75 91.15 94.75 91.63 95.17 91.39 95.17 92.84 94.76 93.08 94.75 91.63 94.33 91.87 94.34 93.81 95.6 93.08 95.59 90.67 94.75 91.15"/><polygon class="cls-17" points="97.27 89.7 96.02 90.42 96.02 90.9 96.86 90.41 96.86 90.9 97.27 90.66 97.27 89.7"/><polygon class="cls-17" points="96.43 91.14 96.44 92.59 96.86 92.35 96.86 90.9 96.43 91.14"/><g class="cls-16"><polygon class="cls-17" points="99.1 88.5 99.1 88.97 99.52 88.73 99.53 90.18 99.1 90.42 99.1 88.97 98.68 89.21 98.69 91.15 99.94 90.42 99.94 88.01 99.1 88.5"/><polygon class="cls-17" points="100.78 87.52 100.78 88 101.2 87.76 101.2 89.21 100.79 89.45 100.78 88 100.36 88.24 100.37 90.18 101.63 89.45 101.62 87.04 100.78 87.52"/><polygon class="cls-17" points="103.3 86.07 102.04 86.79 102.05 87.27 102.89 86.79 102.89 87.27 103.3 87.03 103.3 86.07"/><polygon class="cls-17" points="102.46 87.52 102.47 88.97 102.89 88.72 102.89 87.27 102.46 87.52"/></g><g class="cls-18"><path class="cls-19" d="M105.84,81.43h0c.23,0,.37.18.37.49l0,7.89a1.73,1.73,0,0,1-.79,1.35L90,100.1a.71.71,0,0,1-.34.11c-.23,0-.36-.19-.36-.49v-.53l0-7.36A1.79,1.79,0,0,1,90,90.46l15.14-8.73.35-.2a.6.6,0,0,1,.32-.1m0-.1a.71.71,0,0,0-.37.11l-.35.2L90,90.38a1.87,1.87,0,0,0-.84,1.45l0,7.36v.53c0,.37.19.59.46.59a.79.79,0,0,0,.39-.12l15.47-8.94a1.84,1.84,0,0,0,.84-1.44l0-7.89c0-.38-.19-.59-.47-.59Z"/></g><ellipse class="cls-20" cx="91.39" cy="94.24" rx="0.5" ry="0.28" transform="translate(-38.86 110.63) rotate(-53.05)"/><path class="cls-21" d="M114.16,70.06,90.24,84l-9.07,5.27a6.43,6.43,0,0,1-5.84,0L42.12,70.07c-1.6-.93-1.61-2.45,0-3.39l33-19.17a6.46,6.46,0,0,1,5.84,0l6.69,3.86,26.51,15.31C115.75,67.61,115.76,69.13,114.16,70.06Z"/><path class="cls-22" d="M78,47.32a5.52,5.52,0,0,1,2.67.63l33.2,19.17a1.65,1.65,0,0,1,1,1.26,1.58,1.58,0,0,1-1,1.25l-33,19.17a5.93,5.93,0,0,1-5.34,0L42.38,69.64a1.67,1.67,0,0,1-1-1.27,1.58,1.58,0,0,1,1-1.25L75.36,48A5.42,5.42,0,0,1,78,47.32m0-.5a6,6,0,0,0-2.92.69l-33,19.17c-1.61.94-1.6,2.46,0,3.39l33.2,19.17a6,6,0,0,0,2.92.7,5.9,5.9,0,0,0,2.92-.71l33-19.17c1.6-.93,1.59-2.45,0-3.38L80.94,47.51A6,6,0,0,0,78,46.82Z"/><path class="cls-23" d="M78.19,89.93v44.89h-.1a5.81,5.81,0,0,1-2.89-.7l-1.54-.89-.28-.16-.07,0-.27-.16-28.7-16.56-.35-.2-.34-.2L42,115a2.05,2.05,0,0,1-1.21-1.71l.12-44.88a2.09,2.09,0,0,0,1.21,1.7l2.16,1.25.35.19.34.2L72.41,87.55l.27.17.07,0,.27.17,2.32,1.33A6,6,0,0,0,78.19,89.93Z"/><path class="cls-24" d="M75.2,89.23l.12,44.89a6.06,6.06,0,0,0,2.87.7V89.93A5.88,5.88,0,0,1,75.2,89.23Z"/><path class="cls-25" d="M115.23,69v1.81a2.06,2.06,0,0,1-1.2,1.68l-33,19.16a6,6,0,0,1-2.86.7h-.1a5.81,5.81,0,0,1-2.89-.7l-1.54-.9-.28-.15-.07,0L73,90.34,44.34,73.78,44,73.59l-.34-.2-1.65-1a2.41,2.41,0,0,1-1.1-1.13V68.37a2.09,2.09,0,0,0,1.21,1.7l2.16,1.25.35.19.34.2L72.41,87.55l.27.17.07,0,.27.17,2.32,1.33a6,6,0,0,0,2.85.69h.09a5.81,5.81,0,0,0,2.89-.7l33-19.16A2.32,2.32,0,0,0,115.23,69Z"/></g><path class="cls-26" d="M114.16,70.06,90.24,84H78.16V51.37h9.47l26.51,15.31C115.75,67.61,115.76,69.13,114.16,70.06Z"/><g class="cls-3"><path class="cls-27" d="M106.05,64,80.48,78.9h0a4.65,4.65,0,0,1-2.32.54V84a4.7,4.7,0,0,0,2.22-.54h0L106,68.55h0a1.57,1.57,0,0,0,.92-1.3l.1-4.51A1.58,1.58,0,0,1,106.05,64Z"/><path class="cls-28" d="M106.05,64l-8.14,4.73L80.47,78.9a5,5,0,0,1-4.53,0L50.2,64a1.39,1.39,0,0,1,0-2.62L75.77,46.55a5,5,0,0,1,4.52,0l18.2,10.51L106,61.42A1.39,1.39,0,0,1,106.05,64Z"/><path class="cls-29" d="M78,51.37a1,1,0,0,1,.51.14L96.47,61.85a1,1,0,0,1,0,1.79L78.72,74a1,1,0,0,1-1,0L59.77,63.61a1,1,0,0,1,0-1.79L77.52,51.51a1,1,0,0,1,.52-.14m0-.25a1.34,1.34,0,0,0-.65.17L59.65,61.61a1.27,1.27,0,0,0,0,2.21L77.56,74.17a1.31,1.31,0,0,0,1.29,0L96.6,63.85a1.26,1.26,0,0,0,.63-1.11,1.28,1.28,0,0,0-.64-1.11L78.68,51.29a1.33,1.33,0,0,0-.64-.17Z"/><path class="cls-30" d="M78,51.71a.72.72,0,0,1,.34.09L96.29,62.15a.69.69,0,0,1,0,1.19L78.55,73.65a.72.72,0,0,1-.34.09.73.73,0,0,1-.35-.09L60,63.31a.69.69,0,0,1,0-1.19L77.69,51.81a.64.64,0,0,1,.35-.1m0-.25a1,1,0,0,0-.48.13L59.82,61.9a.94.94,0,0,0,0,1.63L77.74,73.87a.94.94,0,0,0,.47.12,1,1,0,0,0,.47-.12L96.42,63.56a1,1,0,0,0,.47-.82.93.93,0,0,0-.47-.81L78.5,51.59a.94.94,0,0,0-.46-.13Z"/><path class="cls-31" d="M78,52a.39.39,0,0,1,.21.06L96.17,62.36a.44.44,0,0,1,.22.38.43.43,0,0,1-.22.38L78.43,73.44a.59.59,0,0,1-.22,0,.51.51,0,0,1-.22,0L60.07,63.09a.43.43,0,0,1-.22-.38.44.44,0,0,1,.22-.38L77.82,52A.4.4,0,0,1,78,52m0-.25a.64.64,0,0,0-.35.1L60,62.12a.69.69,0,0,0,0,1.19L77.86,73.65a.73.73,0,0,0,.35.09.72.72,0,0,0,.34-.09L96.3,63.34a.69.69,0,0,0,0-1.19L78.38,51.8a.72.72,0,0,0-.34-.09Z"/><path class="cls-32" d="M78,46.51A4,4,0,0,1,80,47l25.75,14.86a1.14,1.14,0,0,1,.69.88c0,.31-.25.62-.68.87L80.23,78.47a4.55,4.55,0,0,1-4,0L50.45,63.61a.91.91,0,0,1,0-1.76L76,47a4.15,4.15,0,0,1,2-.47m0-.5a4.61,4.61,0,0,0-2.26.54L50.19,61.42a1.39,1.39,0,0,0,0,2.62L76,78.91a5.06,5.06,0,0,0,4.53,0L106.05,64a1.39,1.39,0,0,0,0-2.62L80.29,46.55A4.61,4.61,0,0,0,78,46Z"/><path class="cls-33" d="M76,78.91,50.2,64a1.59,1.59,0,0,1-.94-1.32l-.1,4.52a1.61,1.61,0,0,0,.94,1.32L75.85,83.42h0a4.59,4.59,0,0,0,2.31.54V79.44A4.75,4.75,0,0,1,76,78.91Z"/><path class="cls-34" d="M75.84,78.9l.1,4.52a4.7,4.7,0,0,0,2.22.54V79.44A4.68,4.68,0,0,1,75.84,78.9Z"/></g><path class="cls-35" d="M78.19,110.86v24h-.1a5.81,5.81,0,0,1-2.89-.7l-14.48-8.36a1.2,1.2,0,0,1,0-.2c1.85-1.06,3.62-2.09,5.23-3,2.66-1.55,4.31-4.82,4.32-9.49,0-6.06-2.74-13-6.89-18.39Z"/><path class="cls-36" d="M59.55,90.5l3.8,4.14A31.38,31.38,0,0,0,59.55,90.5Z"/><g class="cls-3"><path class="cls-7" d="M55.42,121.49C47.25,116.77,40.66,105.35,40.69,96c0-4.66,1.66-7.94,4.31-9.49L25.87,97.61c-2.65,1.54-4.29,4.82-4.31,9.48,0,9.38,6.56,20.8,14.73,25.51,4.11,2.37,7.83,2.59,10.51,1l19.13-11.11C63.24,124.08,59.52,123.86,55.42,121.49Z"/><path class="cls-37" d="M55.52,87.53c-4.11-2.38-7.83-2.6-10.52-1L25.87,97.61c2.69-1.56,6.41-1.34,10.52,1,8.16,4.71,14.75,16.13,14.72,25.51,0,4.66-1.66,7.94-4.31,9.48l19.13-11.11c2.65-1.54,4.29-4.82,4.31-9.48C70.26,103.66,63.68,92.24,55.52,87.53Z"/></g><g class="cls-3"><path class="cls-7" d="M22.85,126.22a5,5,0,0,1-1.72-1.82c-1-1.67-1-3.45,0-4l-4.89,2.83c-1,.55-1,2.33,0,4A5,5,0,0,0,18,129.06a1.74,1.74,0,0,0,1.74.17l4.88-2.83A1.77,1.77,0,0,1,22.85,126.22Z"/><path class="cls-7" d="M36.31,140.42a5.41,5.41,0,0,1-2.45-4.26,1.72,1.72,0,0,1,.72-1.57l-4.89,2.84A1.74,1.74,0,0,0,29,139a5.44,5.44,0,0,0,2.45,4.26,1.72,1.72,0,0,0,1.74.16l4.89-2.84A1.72,1.72,0,0,1,36.31,140.42Z"/><path class="cls-7" d="M17.32,107.52a5.43,5.43,0,0,1-2.45-4.24,1.71,1.71,0,0,1,.72-1.57l-4.88,2.84a1.69,1.69,0,0,0-.72,1.57,5.42,5.42,0,0,0,2.44,4.24,1.74,1.74,0,0,0,1.75.16l4.88-2.83A1.73,1.73,0,0,1,17.32,107.52Z"/><path class="cls-7" d="M49.8,141.78A5,5,0,0,1,48.06,140c-1-1.67-1-3.45,0-4l-4.88,2.84c-1,.54-1,2.32,0,4a5,5,0,0,0,1.73,1.83,1.75,1.75,0,0,0,1.73.17L51.53,142A1.72,1.72,0,0,1,49.8,141.78Z"/><path class="cls-7" d="M22.94,95.27a4.82,4.82,0,0,1-1.72-1.84c-1-1.65-1-3.41,0-4l-4.89,2.84c-.94.55-.94,2.31,0,4a4.83,4.83,0,0,0,1.73,1.84,1.72,1.72,0,0,0,1.73.16l4.89-2.84A1.74,1.74,0,0,1,22.94,95.27Z"/><path class="cls-38" d="M36.33,132.49c-8.14-4.7-14.73-16.11-14.7-25.46,0-4.64,1.66-7.91,4.31-9.45l-4.89,2.84c-2.65,1.54-4.29,4.81-4.3,9.45,0,9.35,6.55,20.75,14.69,25.45,4.1,2.37,7.81,2.59,10.5,1l4.88-2.84C44.14,135.07,40.43,134.85,36.33,132.49Z"/><path class="cls-7" d="M55.42,129.51A5.39,5.39,0,0,1,53,125.27a1.72,1.72,0,0,1,.72-1.57l-4.89,2.84a1.74,1.74,0,0,0-.72,1.57,5.43,5.43,0,0,0,2.45,4.24,1.74,1.74,0,0,0,1.75.17l4.88-2.84A1.7,1.7,0,0,1,55.42,129.51Z"/><path class="cls-7" d="M36.43,96.63A5.43,5.43,0,0,1,34,92.39a1.71,1.71,0,0,1,.72-1.57l-4.88,2.84a1.69,1.69,0,0,0-.72,1.57,5.41,5.41,0,0,0,2.45,4.24,1.72,1.72,0,0,0,1.74.16l4.89-2.84A1.74,1.74,0,0,1,36.43,96.63Z"/><path class="cls-7" d="M49.88,110.82A5,5,0,0,1,48.15,109c-1-1.65-1-3.41,0-4l-4.88,2.84c-1,.55-.94,2.31,0,4A4.91,4.91,0,0,0,45,113.66a1.67,1.67,0,0,0,1.73.16L51.61,111A1.67,1.67,0,0,1,49.88,110.82Z"/><path class="cls-39" d="M36.46,87.3c-6.84-4-13-4.31-17.49-1.72l-4.89,2.84c4.47-2.6,10.66-2.23,17.49,1.72C45.16,98,56.12,117,56.07,132.57c0,7.76-2.75,13.21-7.17,15.77l4.89-2.84c4.41-2.56,7.14-8,7.17-15.77C61,114.14,50,95.14,36.46,87.3Z"/><path class="cls-40" d="M31.57,90.14C18,82.29,7,88.59,6.91,104.19s10.92,34.59,24.5,42.43S56,148.18,56.07,132.57,45.16,98,31.57,90.14Zm0,3.68A5.43,5.43,0,0,1,34,98.06c0,1.55-1.12,2.19-2.46,1.41a5.41,5.41,0,0,1-2.45-4.24C29.1,93.68,30.21,93,31.56,93.82ZM16.34,92.29a1.72,1.72,0,0,1,1.73.16,4.91,4.91,0,0,1,1.73,1.84c1,1.66,1,3.44,0,4a1.72,1.72,0,0,1-1.73-.16,4.83,4.83,0,0,1-1.73-1.84C15.36,94.6,15.37,92.82,16.34,92.29Zm-3.91,18.07A5.42,5.42,0,0,1,10,106.12c0-1.55,1.11-2.19,2.46-1.41A5.43,5.43,0,0,1,14.9,109C14.89,110.5,13.78,111.14,12.43,110.36Zm7.28,18.87a1.74,1.74,0,0,1-1.74-.17,5,5,0,0,1-1.73-1.82c-1-1.67-1-3.45,0-4a1.75,1.75,0,0,1,1.73.17,5,5,0,0,1,1.74,1.83C20.69,126.91,20.68,128.69,19.71,129.23Zm11.71,14A5.44,5.44,0,0,1,29,139c0-1.55,1.12-2.18,2.47-1.4a5.43,5.43,0,0,1,2.45,4.24C33.88,143.4,32.77,144,31.42,143.26Zm0-7.94c-8.14-4.7-14.72-16.1-14.69-25.45s6.65-13.13,14.79-8.43,14.72,16.12,14.7,25.45S39.59,140,31.44,135.32Zm15.2,9.47a1.75,1.75,0,0,1-1.73-.17,5,5,0,0,1-1.73-1.83c-1-1.67-1-3.45,0-4a1.74,1.74,0,0,1,1.74.17,5,5,0,0,1,1.72,1.82C47.62,142.46,47.62,144.24,46.64,144.79Zm.09-31a1.67,1.67,0,0,1-1.73-.16,4.91,4.91,0,0,1-1.73-1.84c-1-1.67-1-3.44,0-4A1.74,1.74,0,0,1,45,108a4.93,4.93,0,0,1,1.72,1.83C47.71,111.5,47.71,113.28,46.73,113.82Zm3.8,18.53a5.43,5.43,0,0,1-2.45-4.24c0-1.55,1.12-2.18,2.47-1.4A5.43,5.43,0,0,1,53,131C53,132.5,51.88,133.13,50.53,132.35Z"/></g><path class="cls-41" d="M106.05,64l-8.14,4.73H78.16V57.06H98.49L106,61.42A1.39,1.39,0,0,1,106.05,64Z"/><g class="cls-3"><path class="cls-42" d="M88.44,52.05l0,.12a4.78,4.78,0,0,1-.5,1l-.12.18a6,6,0,0,1-.84.93,8.84,8.84,0,0,1-.74.54,6.5,6.5,0,0,1-.66.47,11.91,11.91,0,0,1-2.08.92l-.79.24c-.35.1-.7.19-1.06.26s-.84.17-1.27.22L80,57a14.88,14.88,0,0,1-1.77.1,2.62,2.62,0,0,1-.28,0A17,17,0,0,1,76.23,57l-.26,0c-.58-.07-1.14-.17-1.7-.29l-.3-.08a13.72,13.72,0,0,1-1.46-.44L72.25,56a11.35,11.35,0,0,1-1.61-.76c-2.08-1.2-3.11-2.77-3.11-4.34l-.09,11.71c0,1.57,1,3.15,3.11,4.35a14.22,14.22,0,0,0,1.52.73l.09,0,.25.08c.31.11.62.23.94.32l.53.13.3.07.27.07q.52.1,1,.18l.38,0,.26,0,.38,0c.35,0,.69.05,1,.06h1.08c.39,0,.78,0,1.17-.07l.13,0,.31,0c.3,0,.61-.07.9-.12.13,0,.25-.07.38-.1.36-.07.71-.16,1.06-.26.18,0,.38-.08.56-.14a2.29,2.29,0,0,0,.23-.1A12.68,12.68,0,0,0,85.46,67l.13-.08c.2-.12.34-.26.52-.39a9.09,9.09,0,0,0,.75-.55l.07,0a7.08,7.08,0,0,0,.65-.71A1,1,0,0,0,87.7,65l.12-.17.19-.29a3.71,3.71,0,0,0,.28-.61l0-.09,0-.11a2.85,2.85,0,0,0,.11-.39,3.17,3.17,0,0,0,.07-.61s0-.06,0-.09L88.63,51A3.42,3.42,0,0,1,88.44,52.05Z"/><path class="cls-43" d="M85.53,46.62c4.13,2.39,4.12,6.27,0,8.65a16.4,16.4,0,0,1-14.91,0c-4.13-2.38-4.15-6.25,0-8.63A16.49,16.49,0,0,1,85.53,46.62Z"/></g><g class="cls-3"><path class="cls-44" d="M83.44,35.76s0,0,0,.06a2,2,0,0,1-.27.52.47.47,0,0,1-.06.09,3.72,3.72,0,0,1-.43.48,3,3,0,0,1-.39.28c-.11.08-.21.17-.34.25a6.18,6.18,0,0,1-1.08.47l-.41.13a4.9,4.9,0,0,1-.55.13c-.22,0-.44.09-.67.12l-.16,0c-.3,0-.61,0-.92,0H78c-.3,0-.6,0-.91,0H77c-.3,0-.59-.09-.88-.15l-.16,0c-.26-.07-.51-.14-.76-.23L75,37.83a5.39,5.39,0,0,1-.84-.39,2.76,2.76,0,0,1-1.62-2.26l0,15.44a2.71,2.71,0,0,0,1.61,2.26,6.55,6.55,0,0,0,.8.38l0,0,.13,0,.49.17.27.06.16,0,.14,0,.55.09.19,0,.14,0,.2,0,.54,0h.56l.61,0H79l.17,0c.15,0,.31,0,.46-.06l.2-.05.55-.14.29-.07.12,0a6.66,6.66,0,0,0,1.08-.48l.07,0a2.69,2.69,0,0,0,.27-.2,4,4,0,0,0,.39-.29l0,0c.12-.12.24-.25.34-.37a.47.47,0,0,1,.06-.09l.06-.09.1-.15a2.2,2.2,0,0,0,.15-.31.07.07,0,0,1,0,0s0,0,0-.06a1.94,1.94,0,0,0,0-.2,1.17,1.17,0,0,0,0-.32v0l.05-15.44A1.78,1.78,0,0,1,83.44,35.76Z"/><path class="cls-45" d="M81.93,32.94c2.15,1.24,2.14,3.26,0,4.5a8.54,8.54,0,0,1-7.75,0C72,36.2,72,34.19,74.17,33A8.56,8.56,0,0,1,81.93,32.94Z"/></g><g class="cls-3"><path class="cls-46" d="M85.47,32.08s0,.06,0,.09a3.1,3.1,0,0,1-.36.7L85,33a4.15,4.15,0,0,1-.61.66,5.42,5.42,0,0,1-.52.39c-.16.11-.29.23-.48.34a8.28,8.28,0,0,1-1.48.65l-.57.17c-.24.07-.49.14-.75.19s-.6.12-.91.16l-.23,0c-.42,0-.84.07-1.26.07H78c-.42,0-.83,0-1.25-.07l-.18,0a11.74,11.74,0,0,1-1.21-.21l-.22,0a10.53,10.53,0,0,1-1-.32l-.19-.06a10.12,10.12,0,0,1-1.15-.54,3.77,3.77,0,0,1-2.22-3.11l-.07,4.2a3.79,3.79,0,0,0,2.23,3.11,9,9,0,0,0,1.08.52l.07,0,.17.06.68.23.37.09.22.05.2,0,.74.13.27,0,.19,0,.27,0,.75,0h.77c.28,0,.55,0,.83-.06h.1l.22,0c.21,0,.43,0,.64-.09l.27-.07c.26-.05.51-.12.76-.19l.4-.1.17-.07a8.61,8.61,0,0,0,1.48-.65l.09-.06a3.52,3.52,0,0,0,.37-.27,4.73,4.73,0,0,0,.54-.4l0,0a4.37,4.37,0,0,0,.47-.5l.08-.12.08-.13.14-.2a4.39,4.39,0,0,0,.21-.44s0,0,0-.06l0-.09a2.76,2.76,0,0,0,.08-.27,3.29,3.29,0,0,0,.05-.44v-.06l.06-4.2A2.54,2.54,0,0,1,85.47,32.08Z"/><path class="cls-47" d="M83.39,28.2c3,1.71,3,4.48,0,6.19a11.76,11.76,0,0,1-10.65,0c-3-1.71-3-4.47,0-6.17A11.77,11.77,0,0,1,83.39,28.2Z"/><path class="cls-48" d="M78.09,34.29a9.57,9.57,0,0,1-4.65-1.1c-1-.56-1.53-1.25-1.54-1.9s.55-1.33,1.51-1.88a10.4,10.4,0,0,1,9.29,0c1,.56,1.53,1.25,1.53,1.9s-.55,1.34-1.52,1.9A9.53,9.53,0,0,1,78.09,34.29Z"/></g><g class="cls-3"><polygon class="cls-49" points="85.3 34.66 81.42 36.92 84.93 38.94 88.81 36.69 85.3 34.66"/><polygon class="cls-50" points="88.81 36.69 84.93 38.94 91.83 39.27 95.71 37.01 88.81 36.69"/><polygon class="cls-51" points="91.83 39.27 84.93 38.94 81.42 36.92 81.42 38.06 85.24 40.27 92.14 40.59 96.14 42.9 96.14 41.76 91.83 39.27"/><polygon class="cls-52" points="96.14 41.76 96.14 42.9 100.02 40.64 100.02 39.5 96.14 41.76"/><polygon class="cls-53" points="95.71 37.01 91.83 39.27 96.14 41.76 100.02 39.5 95.71 37.01"/></g><g class="cls-3"><polygon class="cls-54" points="71.01 34.66 74.89 36.92 71.38 38.94 67.5 36.69 71.01 34.66"/><polygon class="cls-55" points="67.5 36.69 71.38 38.94 64.48 39.27 60.6 37.01 67.5 36.69"/><polygon class="cls-56" points="64.48 39.27 71.38 38.94 74.89 36.92 74.89 38.06 71.07 40.27 64.17 40.59 60.17 42.9 60.17 41.76 64.48 39.27"/><polygon class="cls-57" points="60.17 41.76 60.17 42.9 56.29 40.64 56.29 39.5 60.17 41.76"/><polygon class="cls-58" points="60.6 37.01 64.48 39.27 60.17 41.76 56.29 39.5 60.6 37.01"/></g><path class="cls-59" d="M78.23,51.73c-8.42,0-16.84-1.9-23.42-5.69-7-4.06-10.91-9.7-10.92-15.87s3.82-11.75,10.77-15.8c13.08-7.59,33.63-7.59,46.79,0h0c7,4.06,10.91,9.69,10.92,15.87S108.55,42,101.6,46C95.06,49.83,86.65,51.73,78.23,51.73ZM78,16.67c-7.08,0-14.14,1.52-19.38,4.57-4.4,2.56-6.82,5.72-6.82,8.91s2.54,6.46,7,9c10.57,6.1,28.35,6.1,38.83,0,4.4-2.56,6.82-5.73,6.82-8.92s-2.54-6.46-7-9h0C92.2,18.2,85.11,16.67,78,16.67Z"/><path class="cls-60" d="M112.32,29.26c-.44,5.64-4.25,10.8-10.72,14.57s-15,5.72-23.39,5.72-16.83-1.91-23.38-5.72-10.44-9-10.92-14.69a9,9,0,0,0,0,1c0,6.16,3.89,11.79,11,15.84,6.55,3.81,15,5.72,23.38,5.72S95.05,49.82,101.6,46c7-4,10.8-9.64,10.76-15.8A7.55,7.55,0,0,0,112.32,29.26Z"/><path class="cls-61" d="M104.42,29.06a3.88,3.88,0,0,1,0,.68c-.24-3-2.74-6.08-6.91-8.5C92.19,18.18,85.12,16.68,78,16.68s-14.14,1.5-19.38,4.56c-4.17,2.42-6.59,5.4-6.79,8.46a3.44,3.44,0,0,1,0-.64c0-8.06,11.79-14.65,26.32-14.65S104.42,21,104.42,29.06Z"/><path class="cls-62" d="M81,19.58v7.68a12.7,12.7,0,0,0-5.88,0V19.58Z"/><rect class="cls-63" x="75.09" y="15.24" width="5.88" height="4.35"/><path class="cls-64" d="M84.23,0V31.1a3.12,3.12,0,0,1-1.8,2.52,5.52,5.52,0,0,1-.69.34,10,10,0,0,1-7.41,0,6.59,6.59,0,0,1-.65-.33,3.12,3.12,0,0,1-1.83-2.56V0Z"/><path class="cls-65" d="M84.23,0V31.1a3.12,3.12,0,0,1-1.8,2.52,5.52,5.52,0,0,1-.69.34,10,10,0,0,1-7.41,0,6.59,6.59,0,0,1-.65-.33,3.12,3.12,0,0,1-1.83-2.56V0Z"/></g></g></g></g></svg>