<svg xmlns="http://www.w3.org/2000/svg" xmlns:xlink="http://www.w3.org/1999/xlink" viewBox="0 0 150 150"><defs><style>.cls-1,.cls-2{fill:none;}.cls-2{stroke:#fff;stroke-miterlimit:10;stroke-width:0.1px;}.cls-3{opacity:0;}.cls-4,.cls-9{fill:#000714;}.cls-5{opacity:0.1;fill:url(#新建图案);}.cls-6{isolation:isolate;}.cls-7{fill:url(#未命名的渐变_163);}.cls-8{fill:url(#未命名的渐变_107);}.cls-9{opacity:0.2;}.cls-15,.cls-9{mix-blend-mode:overlay;}.cls-10{fill:url(#未命名的渐变_313);}.cls-11{fill:url(#未命名的渐变_13);}.cls-12{fill:url(#未命名的渐变_42);}.cls-13{fill:url(#未命名的渐变_107-2);}.cls-14{fill:url(#未命名的渐变_71);}.cls-15{opacity:0.4;}.cls-16{fill:url(#未命名的渐变_130);}.cls-17{fill:url(#未命名的渐变_130-2);}.cls-18{fill:url(#未命名的渐变_7944);}.cls-19{fill:url(#未命名的渐变_8245);}.cls-20{fill:url(#未命名的渐变_129);}.cls-21{fill:url(#未命名的渐变_7944-2);}.cls-22{fill:url(#未命名的渐变_8245-2);}.cls-23{fill:url(#未命名的渐变_129-2);}.cls-24{fill:url(#未命名的渐变_132);}.cls-25{fill:url(#未命名的渐变_8227);}.cls-26{fill:url(#未命名的渐变_129-3);}.cls-27{fill:url(#未命名的渐变_132-2);}.cls-28{fill:url(#未命名的渐变_8227-2);}.cls-29{fill:url(#未命名的渐变_129-4);}.cls-30{fill:url(#未命名的渐变_17161);}.cls-31{fill:url(#未命名的渐变_2046);}.cls-32{fill:url(#未命名的渐变_17161-2);}.cls-33{fill:url(#未命名的渐变_1944);}.cls-34{fill:url(#未命名的渐变_1944-2);}.cls-35{fill:url(#未命名的渐变_163-2);}.cls-36{fill:url(#未命名的渐变_107-3);}.cls-37{fill:url(#未命名的渐变_2133);}.cls-38{fill:url(#未命名的渐变_17280);}.cls-39{fill:url(#未命名的渐变_17259);}.cls-40{fill:url(#未命名的渐变_277);}.cls-41{fill:#08121b;}.cls-42{fill:url(#未命名的渐变_2139);}.cls-43{fill:url(#未命名的渐变_264);}.cls-44{fill:url(#未命名的渐变_2127);}.cls-45{opacity:0.15;}.cls-46{fill:#15b8d9;}.cls-47{fill:#19d9ff;}.cls-48{opacity:0.2;}</style><pattern id="新建图案" data-name="新建图案" width="18.57" height="32.16" patternTransform="translate(2778.79 470.05)" patternUnits="userSpaceOnUse" viewBox="0 0 18.57 32.16"><rect class="cls-1" width="18.57" height="32.16"/><polyline class="cls-2" points="18.57 21.44 18.57 32.16 18.57 42.88"/><polyline class="cls-2" points="9.29 26.8 18.57 32.16 27.85 37.51 27.85 37.52"/><polyline class="cls-2" points="9.29 37.52 9.29 37.51 18.57 32.16 27.85 26.8"/><polygon class="cls-2" points="27.85 37.52 27.85 26.8 18.57 21.44 9.28 26.8 9.28 37.52 18.57 42.88 27.85 37.52"/><polyline class="cls-2" points="0 21.44 0 32.16 0 42.88"/><polyline class="cls-2" points="-9.28 26.8 0 32.16 9.28 37.51 9.28 37.52"/><polyline class="cls-2" points="-9.28 37.52 -9.28 37.51 0 32.16 9.28 26.8"/><polygon class="cls-2" points="9.28 37.52 9.28 26.8 0 21.44 -9.29 26.8 -9.29 37.52 0 42.88 9.28 37.52"/><polyline class="cls-2" points="18.57 10.72 27.85 16.08 37.13 21.43 37.13 21.44"/><polyline class="cls-2" points="18.57 21.44 18.57 21.43 27.85 16.08 37.13 10.72"/><polygon class="cls-2" points="37.14 21.44 37.14 10.72 27.85 5.36 18.57 10.72 18.57 21.44 27.85 26.8 37.14 21.44"/><polyline class="cls-2" points="9.29 5.36 9.29 16.08 9.29 26.8"/><polyline class="cls-2" points="0.01 10.72 9.29 16.08 18.57 21.43 18.57 21.44"/><polyline class="cls-2" points="0.01 21.44 0.01 21.43 9.29 16.08 18.57 10.72"/><polygon class="cls-2" points="18.57 21.44 18.57 10.72 9.28 5.36 0 10.72 0 21.44 9.28 26.8 18.57 21.44"/><polyline class="cls-2" points="-18.56 10.72 -9.28 16.08 0 21.43 0 21.44"/><polyline class="cls-2" points="-18.56 21.44 -18.56 21.43 -9.28 16.08 0 10.72"/><polygon class="cls-2" points="0 21.44 0 10.72 -9.29 5.36 -18.57 10.72 -18.57 21.44 -9.29 26.8 0 21.44"/><polyline class="cls-2" points="18.57 -10.72 18.57 0 18.57 10.72"/><polyline class="cls-2" points="9.29 -5.36 18.57 0 27.85 5.35 27.85 5.36"/><polyline class="cls-2" points="9.29 5.36 9.29 5.35 18.57 0 27.85 -5.36"/><polygon class="cls-2" points="27.85 5.36 27.85 -5.36 18.57 -10.72 9.28 -5.36 9.28 5.36 18.57 10.72 27.85 5.36"/><polyline class="cls-2" points="0 -10.72 0 0 0 10.72"/><polyline class="cls-2" points="-9.28 -5.36 0 0 9.28 5.35 9.28 5.36"/><polyline class="cls-2" points="-9.28 5.36 -9.28 5.35 0 0 9.28 -5.36"/><polygon class="cls-2" points="9.28 5.36 9.28 -5.36 0 -10.72 -9.29 -5.36 -9.29 5.36 0 10.72 9.28 5.36"/></pattern><linearGradient id="未命名的渐变_163" x1="40.28" y1="109.15" x2="109.9" y2="109.15" gradientUnits="userSpaceOnUse"><stop offset="0" stop-color="#7a98cc"/><stop offset="1" stop-color="#262e39"/></linearGradient><linearGradient id="未命名的渐变_107" x1="73.52" y1="148.51" x2="111.39" y2="110.64" gradientUnits="userSpaceOnUse"><stop offset="0" stop-color="#283140"/><stop offset="0.34" stop-color="#232b37"/><stop offset="0.9" stop-color="#15191f"/><stop offset="1" stop-color="#12161a"/></linearGradient><linearGradient id="未命名的渐变_313" x1="79.52" y1="142.2" x2="35.78" y2="116.95" gradientUnits="userSpaceOnUse"><stop offset="0" stop-color="#425266"/><stop offset="1" stop-color="#596b8c"/></linearGradient><linearGradient id="未命名的渐变_13" x1="47.42" y1="37.35" x2="102.78" y2="5.4" gradientUnits="userSpaceOnUse"><stop offset="0" stop-color="#89abe6"/><stop offset="1" stop-color="#547099"/></linearGradient><linearGradient id="未命名的渐变_42" x1="75.1" y1="42.75" x2="75.1" gradientUnits="userSpaceOnUse"><stop offset="0" stop-color="#99beff"/><stop offset="0.02" stop-color="#99beff" stop-opacity="0.93"/><stop offset="0.09" stop-color="#99beff" stop-opacity="0.74"/><stop offset="0.17" stop-color="#99beff" stop-opacity="0.56"/><stop offset="0.25" stop-color="#99beff" stop-opacity="0.41"/><stop offset="0.33" stop-color="#99beff" stop-opacity="0.28"/><stop offset="0.43" stop-color="#99beff" stop-opacity="0.18"/><stop offset="0.53" stop-color="#99beff" stop-opacity="0.1"/><stop offset="0.64" stop-color="#99beff" stop-opacity="0.04"/><stop offset="0.77" stop-color="#99beff" stop-opacity="0.01"/><stop offset="1" stop-color="#99beff" stop-opacity="0"/></linearGradient><linearGradient id="未命名的渐变_107-2" x1="53.84" y1="121.88" x2="133.17" y2="42.55" xlink:href="#未命名的渐变_107"/><linearGradient id="未命名的渐变_71" x1="96.23" y1="121.84" x2="16.98" y2="42.59" gradientUnits="userSpaceOnUse"><stop offset="0" stop-color="#425266"/><stop offset="1" stop-color="#596b8c"/></linearGradient><linearGradient id="未命名的渐变_130" x1="72.33" y1="93.52" x2="72.33" y2="87.81" gradientUnits="userSpaceOnUse"><stop offset="0" stop-color="#12161a"/><stop offset="0.1" stop-color="#15191f"/><stop offset="0.66" stop-color="#232b37"/><stop offset="1" stop-color="#283140"/></linearGradient><linearGradient id="未命名的渐变_130-2" x1="55.99" y1="66.14" x2="57.4" y2="63.7" xlink:href="#未命名的渐变_130"/><linearGradient id="未命名的渐变_7944" x1="54.79" y1="64.69" x2="55.34" y2="63.73" gradientTransform="translate(39.72 -18.98) rotate(30.16)" gradientUnits="userSpaceOnUse"><stop offset="0" stop-color="#ff4000"/><stop offset="1" stop-color="#ff4000"/></linearGradient><linearGradient id="未命名的渐变_8245" x1="54.79" y1="64.69" x2="55.34" y2="63.73" gradientUnits="userSpaceOnUse"><stop offset="0" stop-color="#ff8b63"/><stop offset="0.17" stop-color="#ff845a"/><stop offset="0.45" stop-color="#ff7242"/><stop offset="0.8" stop-color="#ff541a"/><stop offset="1" stop-color="#ff4000"/></linearGradient><linearGradient id="未命名的渐变_129" x1="55.65" y1="65.03" x2="54.65" y2="63.29" gradientUnits="userSpaceOnUse"><stop offset="0" stop-color="#283140"/><stop offset="0.1" stop-color="#12161a"/><stop offset="0.6" stop-color="#7a98cc"/><stop offset="1" stop-color="#283140"/></linearGradient><linearGradient id="未命名的渐变_7944-2" x1="56.53" y1="65.67" x2="57.08" y2="64.72" gradientTransform="translate(40.45 -19.71) rotate(30.16)" xlink:href="#未命名的渐变_7944"/><linearGradient id="未命名的渐变_8245-2" x1="56.53" y1="65.67" x2="57.08" y2="64.72" xlink:href="#未命名的渐变_8245"/><linearGradient id="未命名的渐变_129-2" x1="57.39" y1="66.02" x2="56.38" y2="64.28" xlink:href="#未命名的渐变_129"/><linearGradient id="未命名的渐变_132" x1="58.26" y1="66.66" x2="58.81" y2="65.7" gradientTransform="translate(41.18 -20.45) rotate(30.16)" gradientUnits="userSpaceOnUse"><stop offset="0" stop-color="#00a874"/><stop offset="1" stop-color="#00a874"/></linearGradient><linearGradient id="未命名的渐变_8227" x1="58.26" y1="66.66" x2="58.81" y2="65.7" gradientUnits="userSpaceOnUse"><stop offset="0" stop-color="#3fb"/><stop offset="0.19" stop-color="#2ef6b4"/><stop offset="0.49" stop-color="#1fdea0"/><stop offset="0.88" stop-color="#08b680"/><stop offset="1" stop-color="#00a874"/></linearGradient><linearGradient id="未命名的渐变_129-3" x1="59.12" y1="67" x2="58.12" y2="65.26" xlink:href="#未命名的渐变_129"/><linearGradient id="未命名的渐变_132-2" x1="60" y1="67.67" x2="60.55" y2="66.71" gradientTransform="translate(41.92 -21.19) rotate(30.16)" xlink:href="#未命名的渐变_132"/><linearGradient id="未命名的渐变_8227-2" x1="60" y1="67.67" x2="60.55" y2="66.71" xlink:href="#未命名的渐变_8227"/><linearGradient id="未命名的渐变_129-4" x1="60.86" y1="68.01" x2="59.85" y2="66.27" xlink:href="#未命名的渐变_129"/><linearGradient id="未命名的渐变_17161" x1="53.8" y1="63.66" x2="52.85" y2="62.02" gradientUnits="userSpaceOnUse"><stop offset="0" stop-color="#283140"/><stop offset="0.1" stop-color="#12161a"/><stop offset="0.8" stop-color="#7a98cc"/><stop offset="1" stop-color="#283140"/></linearGradient><linearGradient id="未命名的渐变_2046" x1="52.59" y1="63.44" x2="53.42" y2="62.61" gradientUnits="userSpaceOnUse"><stop offset="0" stop-color="#697fa6"/><stop offset="1" stop-color="#1d242d"/></linearGradient><linearGradient id="未命名的渐变_17161-2" x1="52.35" y1="62.78" x2="53.66" y2="63.26" xlink:href="#未命名的渐变_17161"/><linearGradient id="未命名的渐变_1944" x1="52.73" y1="63.3" x2="53.34" y2="62.69" gradientUnits="userSpaceOnUse"><stop offset="0" stop-color="#596b8c"/><stop offset="1" stop-color="#1d242d"/></linearGradient><linearGradient id="未命名的渐变_1944-2" x1="52.76" y1="63.37" x2="53.1" y2="63.02" xlink:href="#未命名的渐变_1944"/><linearGradient id="未命名的渐变_163-2" x1="52.96" y1="63.1" x2="53.05" y2="62.94" xlink:href="#未命名的渐变_163"/><linearGradient id="未命名的渐变_107-3" x1="53.47" y1="63.59" x2="53.65" y2="63.4" xlink:href="#未命名的渐变_107"/><linearGradient id="未命名的渐变_2133" x1="61.86" y1="59.66" x2="61.77" y2="59.52" gradientUnits="userSpaceOnUse"><stop offset="0" stop-color="#3f99f3"/><stop offset="1" stop-color="#0271e5"/></linearGradient><linearGradient id="未命名的渐变_17280" x1="61.9" y1="59.66" x2="61.9" y2="50.88" gradientUnits="userSpaceOnUse"><stop offset="0" stop-color="#0073e6"/><stop offset="1" stop-color="#143ccc"/></linearGradient><linearGradient id="未命名的渐变_17259" x1="62.58" y1="58.75" x2="49.87" y2="46.04" gradientUnits="userSpaceOnUse"><stop offset="0" stop-color="#096dd9"/><stop offset="1" stop-color="#40a9ff"/></linearGradient><linearGradient id="未命名的渐变_277" x1="54.84" y1="54.73" x2="57.61" y2="49.94" gradientUnits="userSpaceOnUse"><stop offset="0" stop-color="#143ccc"/><stop offset="1" stop-color="#0073e6"/></linearGradient><linearGradient id="未命名的渐变_2139" x1="51.56" y1="44.76" x2="51.48" y2="44.62" gradientUnits="userSpaceOnUse"><stop offset="0" stop-color="#7fd9ff"/><stop offset="1" stop-color="#1056dc"/></linearGradient><linearGradient id="未命名的渐变_264" x1="60.56" y1="51.51" x2="52.63" y2="43.59" gradientUnits="userSpaceOnUse"><stop offset="0" stop-color="#008dff"/><stop offset="1" stop-color="#8ce2ff"/></linearGradient><linearGradient id="未命名的渐变_2127" x1="61.96" y1="51.06" x2="61.57" y2="50.37" gradientUnits="userSpaceOnUse"><stop offset="0" stop-color="#133dcd"/><stop offset="1" stop-color="#0a93ff"/></linearGradient></defs><title>电锅炉</title><g id="图层_2" data-name="图层 2"><g id="图元"><g id="电锅炉"><g class="cls-3"><rect class="cls-4" width="150" height="150"/><rect id="网格" class="cls-5" width="150" height="150"/></g><g class="cls-6"><polygon class="cls-7" points="109.9 109.14 75.2 129.31 40.28 109.15 74.98 88.98 109.9 109.14"/><polygon class="cls-8" points="109.9 109.14 109.71 129.84 75.02 150 75.2 129.31 109.9 109.14"/><polygon class="cls-9" points="109.9 109.14 109.71 129.84 75.02 150 75.2 129.31 109.9 109.14"/><polygon class="cls-10" points="75.2 129.31 75.02 150 40.09 129.84 40.28 109.15 75.2 129.31"/><polygon class="cls-9" points="75.2 129.31 75.02 150 40.09 129.84 40.28 109.15 75.2 129.31"/></g><g class="cls-6"><polygon class="cls-11" points="112 21.37 75.22 42.75 38.2 21.38 74.98 0 112 21.37"/><path class="cls-12" d="M75,.87,110.5,21.38,75.21,41.88,39.69,21.37,75,.87M75,0,38.19,21.38l37,21.37L112,21.37,75,0Z"/><polygon class="cls-13" points="112 21.37 111.8 121.68 75.02 143.05 75.22 42.75 112 21.37"/><polygon class="cls-14" points="75.22 42.75 75.08 105.37 75.08 105.9 75.02 143.05 38 121.68 38.05 84.53 38.05 83.99 38.19 21.38 75.22 42.75"/><g class="cls-15"><polygon class="cls-4" points="75.08 104.45 75.08 104.99 38.05 83.62 38.05 83.08 75.08 104.45"/></g></g><polygon class="cls-16" points="73.14 88.74 73.13 93.52 71.52 92.59 71.53 87.81 73.14 88.74"/><polygon class="cls-17" points="61.47 66.05 61.46 69.3 51.92 63.79 51.93 60.54 61.47 66.05"/><g class="cls-6"><ellipse class="cls-18" cx="55.07" cy="64.21" rx="0.45" ry="0.78" transform="translate(-24.81 36.36) rotate(-30.16)"/><path class="cls-19" d="M54.82,63.6h0a.4.4,0,0,1,.21.07,1.11,1.11,0,0,1,.49.87c0,.08,0,.28-.21.28a.35.35,0,0,1-.2-.07,1.11,1.11,0,0,1-.49-.87c0-.08,0-.28.2-.28m0-.1c-.18,0-.3.14-.3.38a1.18,1.18,0,0,0,.54,1,.56.56,0,0,0,.25.08c.18,0,.31-.14.31-.38a1.21,1.21,0,0,0-.54-1,.46.46,0,0,0-.26-.08Z"/><path class="cls-20" d="M55.14,65c.39.24.71.06.72-.38a1.57,1.57,0,0,0-.69-1.24c-.4-.23-.72-.06-.73.39A1.54,1.54,0,0,0,55.14,65Zm-.06-1.39a1.21,1.21,0,0,1,.54,1c0,.35-.26.48-.56.3a1.18,1.18,0,0,1-.54-1C54.52,63.53,54.78,63.4,55.08,63.58Z"/></g><g class="cls-6"><ellipse class="cls-21" cx="56.8" cy="65.2" rx="0.45" ry="0.78" transform="translate(-25.07 37.37) rotate(-30.16)"/><path class="cls-22" d="M56.56,64.58h0a.44.44,0,0,1,.2.07,1.12,1.12,0,0,1,.5.87c0,.09,0,.29-.21.29a.52.52,0,0,1-.21-.07,1.13,1.13,0,0,1-.49-.87c0-.09,0-.29.21-.29m0-.1c-.18,0-.3.14-.31.39a1.23,1.23,0,0,0,.54.95.48.48,0,0,0,.26.09c.18,0,.3-.14.31-.38a1.24,1.24,0,0,0-.54-1,.54.54,0,0,0-.26-.09Z"/><path class="cls-23" d="M56.87,66c.39.23.72.06.73-.39a1.59,1.59,0,0,0-.7-1.23c-.39-.24-.72-.06-.73.38A1.61,1.61,0,0,0,56.87,66Zm-.06-1.39a1.22,1.22,0,0,1,.55,1c0,.34-.26.48-.57.29a1.23,1.23,0,0,1-.54-.95C56.26,64.52,56.51,64.38,56.81,64.57Z"/></g><g class="cls-6"><ellipse class="cls-24" cx="58.54" cy="66.18" rx="0.45" ry="0.78" transform="translate(-25.33 38.37) rotate(-30.16)"/><path class="cls-25" d="M58.29,65.57h0a.4.4,0,0,1,.21.07,1.11,1.11,0,0,1,.49.87c0,.08,0,.28-.21.28a.35.35,0,0,1-.2-.07,1.11,1.11,0,0,1-.49-.87c0-.08,0-.28.2-.28m0-.1c-.18,0-.3.14-.3.38a1.18,1.18,0,0,0,.54,1,.56.56,0,0,0,.25.08c.18,0,.31-.14.31-.38a1.21,1.21,0,0,0-.54-1,.56.56,0,0,0-.26-.08Z"/><path class="cls-26" d="M58.61,66.94c.39.24.71.07.72-.38a1.55,1.55,0,0,0-.7-1.24c-.39-.23-.71-.06-.72.39A1.52,1.52,0,0,0,58.61,66.94Zm-.06-1.39a1.21,1.21,0,0,1,.54,1c0,.35-.26.48-.56.3a1.18,1.18,0,0,1-.54-1C58,65.5,58.25,65.37,58.55,65.55Z"/></g><g class="cls-6"><ellipse class="cls-27" cx="60.27" cy="67.19" rx="0.45" ry="0.78" transform="translate(-25.6 39.38) rotate(-30.16)"/><path class="cls-28" d="M60,66.58h0a.35.35,0,0,1,.2.07,1.12,1.12,0,0,1,.5.87c0,.08,0,.28-.21.28a.4.4,0,0,1-.21-.07,1.13,1.13,0,0,1-.49-.87c0-.08,0-.28.21-.28m0-.1c-.18,0-.3.14-.31.38a1.21,1.21,0,0,0,.54,1,.56.56,0,0,0,.26.08c.18,0,.3-.14.31-.38a1.24,1.24,0,0,0-.54-1,.59.59,0,0,0-.26-.08Z"/><path class="cls-29" d="M60.34,68c.39.24.72.06.73-.38a1.61,1.61,0,0,0-.7-1.24c-.39-.23-.72-.06-.73.39A1.59,1.59,0,0,0,60.34,68Zm-.06-1.39a1.22,1.22,0,0,1,.55,1c0,.35-.26.48-.57.3a1.24,1.24,0,0,1-.54-1C59.73,66.51,60,66.38,60.28,66.56Z"/></g><g class="cls-6"><path class="cls-30" d="M53.84,63.29v0h0v-.07h0v-.08h0V63h0v-.07h0v-.08h0l0,0,0,0h0l0,0,0,0v0h0l0,0,0,0h0l0-.05h0l0,0,0,0h0l0,0,0,0h0l0,0,0,0h0l0,0h0l0,0h0l0,0h-.47l-.05,0h0l-.16.09,0,0h.29l.07,0h0l.07,0,.06,0h0l.06.05h0s0,0,.05,0h0l.06.06h0l.06.07h0a.18.18,0,0,1,.05.07h0a.18.18,0,0,1,0,.07l0,0,0,0h0l0,.07h0l0,.08h0l0,.07h0l0,.08h0a.19.19,0,0,0,0,.08h0s0,0,0,.08h0v.08h0v.08a.22.22,0,0,1,0,.08h0v.07h0s0,0,0,.06h0s0,0,0,0h0a.08.08,0,0,1,0,0h0l0,0h0l0,0h0l0,0h0l.17-.1,0,0h0l0,0h0l0,0h0l0,0h0v0h0v0h0V63.4h0v-.06h0Z"/><path class="cls-31" d="M53,62.25a1.47,1.47,0,0,1,.67,1.16c0,.43-.31.6-.68.39a1.5,1.5,0,0,1-.67-1.17C52.33,62.21,52.63,62,53,62.25Z"/><path class="cls-32" d="M53.57,63.41a.48.48,0,0,1-.07.27h0a.25.25,0,0,1-.2.1.52.52,0,0,1-.24-.08,1.37,1.37,0,0,1-.62-1.07.38.38,0,0,1,.13-.32h0a.2.2,0,0,1,.13,0,.52.52,0,0,1,.25.08A1.39,1.39,0,0,1,53.57,63.41Z"/><path class="cls-33" d="M53.57,63.41a.48.48,0,0,1-.07.27h0a.23.23,0,0,1-.14,0,.56.56,0,0,1-.25-.08,1.38,1.38,0,0,1-.61-1.06.41.41,0,0,1,.07-.27h0a.2.2,0,0,1,.13,0,.52.52,0,0,1,.25.08A1.39,1.39,0,0,1,53.57,63.41Z"/><path class="cls-34" d="M52.91,63c.15.08.58.38.6.39v.21s-.46-.21-.6-.29L52.35,63v-.21Z"/><path class="cls-35" d="M53.06,62.94c-.14-.08-.54-.26-.56-.27l-.15.08.56.28c.15.08.58.38.6.39l.08-.05h0l0,0a.18.18,0,0,0,0-.06h0Z"/><polygon class="cls-36" points="53.51 63.42 53.61 63.36 53.61 63.57 53.51 63.63 53.51 63.42"/></g><path class="cls-37" d="M61.53,59.66a.38.38,0,0,1,0,.16h0a.28.28,0,0,1-.09.1l.69-.4.07-.07s0,0,0,0h0v-.16h0Z"/><polygon class="cls-38" points="61.58 51.28 62.27 50.88 62.22 59.26 61.53 59.66 61.58 51.28"/><path class="cls-39" d="M61.19,50.6a.88.88,0,0,1,.39.68l0,8.38c0,.25-.18.35-.4.23l-9.87-5.7a.88.88,0,0,1-.39-.68l.05-8.38c0-.25.18-.35.4-.23Z"/><path class="cls-40" d="M52.45,53.1l0-5.75a.21.21,0,0,1,.31-.18l7,4a.44.44,0,0,1,.21.37l0,5.75a.21.21,0,0,1-.31.18l-7-4A.41.41,0,0,1,52.45,53.1Z"/><path class="cls-41" d="M53,53l0-4.76a.13.13,0,0,1,.2-.11l6.19,3.57a.14.14,0,0,1,.06.12l0,4.75a.13.13,0,0,1-.2.11L53,53.14A.14.14,0,0,1,53,53Z"/><path class="cls-42" d="M51.32,44.9l.69-.4h-.26l0,0-.68.39a.23.23,0,0,1,.12,0h0A.37.37,0,0,1,51.32,44.9Z"/><polygon class="cls-43" points="51.32 44.9 52.01 44.5 61.87 50.2 61.19 50.6 51.32 44.9"/><path class="cls-44" d="M61.46,50.89h0a1.54,1.54,0,0,1,.08.19h0a.75.75,0,0,1,0,.2l.69-.4v-.06h0V50.7h0v-.16l0,0h0l0,0,0,0,0,0v0l0,0v0h0v0h0l0,0h0v0h-.06l-.68.4.15.12h0A.66.66,0,0,1,61.46,50.89Z"/><g class="cls-45"><polygon class="cls-46" points="55.84 51.67 55.84 52.01 56.13 52.18 56.13 52.87 55.54 52.52 55.54 52.86 56.13 53.2 56.13 53.55 55.24 53.03 55.24 52.01 55.84 52.35 55.84 52.01 55.24 51.67 55.25 51.33 55.84 51.67"/><polygon class="cls-46" points="57.02 52.35 57.02 54.06 56.72 53.89 56.72 52.87 56.43 52.69 56.43 52.35 56.73 52.52 56.73 52.18 57.02 52.35"/></g><polygon class="cls-46" points="55.7 51.48 55.7 51.82 56 51.99 56 52.68 55.41 52.33 55.4 52.67 56 53.02 56 53.36 55.11 52.84 55.11 51.82 55.7 52.16 55.7 51.82 55.11 51.48 55.11 51.14 55.7 51.48"/><polygon class="cls-46" points="56.89 52.16 56.88 53.87 56.59 53.7 56.59 52.68 56.29 52.5 56.3 52.16 56.59 52.33 56.59 51.99 56.89 52.16"/><ellipse class="cls-47" cx="54.47" cy="51.73" rx="0.14" ry="0.25" transform="translate(-20.16 43.13) rotate(-36.95)"/></g></g></g></svg>