<svg xmlns="http://www.w3.org/2000/svg" xmlns:xlink="http://www.w3.org/1999/xlink" viewBox="0 0 150 150"><defs><style>.cls-1,.cls-2{fill:none;}.cls-2{stroke:#fff;stroke-miterlimit:10;stroke-width:0.1px;}.cls-3{opacity:0;}.cls-4{fill:#000714;}.cls-5{opacity:0.1;fill:url(#新建图案);}.cls-6{isolation:isolate;}.cls-7{fill:url(#未命名的渐变_497);}.cls-8{fill:url(#未命名的渐变_48);}.cls-9{fill:url(#未命名的渐变_102);}.cls-10{fill:#fff;opacity:0.2;mix-blend-mode:overlay;}.cls-11{fill:url(#未命名的渐变_102-2);}.cls-12{fill:url(#未命名的渐变_366);}.cls-13{fill:url(#未命名的渐变_2);}.cls-14{fill:url(#未命名的渐变_1403);}.cls-15{fill:url(#未命名的渐变_1403-2);}.cls-16{fill:url(#未命名的渐变_1403-3);}.cls-17{fill:url(#未命名的渐变_100);}.cls-18{fill:url(#未命名的渐变_102-3);}.cls-19{fill:url(#未命名的渐变_102-4);}.cls-20{fill:url(#未命名的渐变_102-5);}.cls-21{fill:url(#未命名的渐变_102-6);}.cls-22{fill:url(#未命名的渐变_102-7);}.cls-23{fill:url(#未命名的渐变_102-8);}.cls-24{fill:url(#未命名的渐变_102-9);}.cls-25{fill:url(#未命名的渐变_102-10);}.cls-26{fill:url(#未命名的渐变_102-11);}.cls-27{fill:url(#未命名的渐变_102-12);}.cls-28{fill:url(#未命名的渐变_102-13);}.cls-29{fill:url(#未命名的渐变_127);}.cls-30{fill:url(#未命名的渐变_1827);}.cls-31{fill:#171d23;}.cls-32{fill:#4e5f79;}.cls-33{fill:#7696cb;}.cls-34{fill:gray;}.cls-35{fill:#85a9e5;}.cls-36{fill:#e6e6e6;}.cls-37{fill:#2d3746;}.cls-38{fill:#191d26;}.cls-39{fill:#14191e;}.cls-40{fill:url(#未命名的渐变_6);}.cls-41{fill:url(#未命名的渐变_171);}.cls-42{fill:url(#未命名的渐变_6-2);}.cls-43{fill:url(#未命名的渐变_6-3);}.cls-44{fill:url(#未命名的渐变_171-2);}.cls-45{fill:url(#未命名的渐变_6-4);}.cls-46{fill:url(#未命名的渐变_4);}.cls-47{fill:url(#未命名的渐变_497-2);}.cls-48{fill:url(#未命名的渐变_6-5);}.cls-49{fill:url(#未命名的渐变_171-3);}.cls-50{fill:url(#未命名的渐变_6-6);}.cls-51{fill:url(#未命名的渐变_6-7);}.cls-52{fill:url(#未命名的渐变_171-4);}.cls-53{fill:url(#未命名的渐变_6-8);}.cls-54{fill:url(#未命名的渐变_4-2);}.cls-55{fill:url(#未命名的渐变_497-3);}.cls-56{fill:url(#未命名的渐变_497-4);}.cls-57{fill:url(#未命名的渐变_6-9);}.cls-58{fill:url(#未命名的渐变_4-3);}.cls-59{fill:url(#未命名的渐变_497-5);}.cls-60{fill:url(#未命名的渐变_6-10);}.cls-61{fill:url(#未命名的渐变_4-4);}.cls-62{fill:url(#未命名的渐变_497-6);}.cls-63{fill:url(#未命名的渐变_6-11);}.cls-64{fill:url(#未命名的渐变_4-5);}.cls-65{fill:url(#未命名的渐变_497-7);}.cls-66{fill:url(#未命名的渐变_6-12);}.cls-67{fill:url(#未命名的渐变_4-6);}.cls-68{fill:url(#未命名的渐变_497-8);}.cls-69{fill:url(#未命名的渐变_6-13);}.cls-70{fill:url(#未命名的渐变_4-7);}.cls-71{fill:url(#未命名的渐变_497-9);}.cls-72{fill:url(#未命名的渐变_6-14);}.cls-73{fill:url(#未命名的渐变_4-8);}.cls-74{fill:url(#未命名的渐变_497-10);}.cls-75{fill:url(#未命名的渐变_6-15);}.cls-76{fill:url(#未命名的渐变_4-9);}.cls-77{fill:url(#未命名的渐变_497-11);}.cls-78{fill:url(#未命名的渐变_6-16);}.cls-79{fill:url(#未命名的渐变_4-10);}.cls-80{fill:url(#未命名的渐变_497-12);}.cls-81{fill:url(#未命名的渐变_6-17);}.cls-82{fill:url(#未命名的渐变_4-11);}.cls-83{fill:url(#未命名的渐变_497-13);}.cls-84{fill:url(#未命名的渐变_6-18);}.cls-85{fill:url(#未命名的渐变_4-12);}.cls-86{fill:url(#未命名的渐变_497-14);}.cls-87{fill:url(#未命名的渐变_6-19);}.cls-88{fill:url(#未命名的渐变_4-13);}.cls-89{fill:url(#未命名的渐变_497-15);}.cls-90{fill:url(#未命名的渐变_6-20);}.cls-91{fill:url(#未命名的渐变_4-14);}.cls-92{fill:#bcbcbc;}.cls-93{fill:#222a33;}.cls-94{fill:url(#未命名的渐变_6-21);}.cls-95{fill:url(#未命名的渐变_1149);}.cls-96{fill:#1d232d;}.cls-97{fill:url(#未命名的渐变_37);}.cls-98{fill:url(#未命名的渐变_26);}.cls-99{fill:url(#未命名的渐变_58);}.cls-100{opacity:0.2;}</style><pattern id="新建图案" data-name="新建图案" width="18.57" height="32.16" patternTransform="translate(2294.91 952.58)" patternUnits="userSpaceOnUse" viewBox="0 0 18.57 32.16"><rect class="cls-1" width="18.57" height="32.16"/><polyline class="cls-2" points="18.57 21.44 18.57 32.16 18.57 42.88"/><polyline class="cls-2" points="9.29 26.8 18.57 32.16 27.85 37.51 27.85 37.52"/><polyline class="cls-2" points="9.29 37.52 9.29 37.51 18.57 32.16 27.85 26.8"/><polygon class="cls-2" points="27.85 37.52 27.85 26.8 18.57 21.44 9.28 26.8 9.28 37.52 18.57 42.88 27.85 37.52"/><polyline class="cls-2" points="0 21.44 0 32.16 0 42.88"/><polyline class="cls-2" points="-9.28 26.8 0 32.16 9.28 37.51 9.28 37.52"/><polyline class="cls-2" points="-9.28 37.52 -9.28 37.51 0 32.16 9.28 26.8"/><polygon class="cls-2" points="9.28 37.52 9.28 26.8 0 21.44 -9.29 26.8 -9.29 37.52 0 42.88 9.28 37.52"/><polyline class="cls-2" points="18.57 10.72 27.85 16.08 37.13 21.43 37.13 21.44"/><polyline class="cls-2" points="18.57 21.44 18.57 21.43 27.85 16.08 37.13 10.72"/><polygon class="cls-2" points="37.14 21.44 37.14 10.72 27.85 5.36 18.57 10.72 18.57 21.44 27.85 26.8 37.14 21.44"/><polyline class="cls-2" points="9.29 5.36 9.29 16.08 9.29 26.8"/><polyline class="cls-2" points="0.01 10.72 9.29 16.08 18.57 21.43 18.57 21.44"/><polyline class="cls-2" points="0.01 21.44 0.01 21.43 9.29 16.08 18.57 10.72"/><polygon class="cls-2" points="18.57 21.44 18.57 10.72 9.28 5.36 0 10.72 0 21.44 9.28 26.8 18.57 21.44"/><polyline class="cls-2" points="-18.56 10.72 -9.28 16.08 0 21.43 0 21.44"/><polyline class="cls-2" points="-18.56 21.44 -18.56 21.43 -9.28 16.08 0 10.72"/><polygon class="cls-2" points="0 21.44 0 10.72 -9.29 5.36 -18.57 10.72 -18.57 21.44 -9.29 26.8 0 21.44"/><polyline class="cls-2" points="18.57 -10.72 18.57 0 18.57 10.72"/><polyline class="cls-2" points="9.29 -5.36 18.57 0 27.85 5.35 27.85 5.36"/><polyline class="cls-2" points="9.29 5.36 9.29 5.35 18.57 0 27.85 -5.36"/><polygon class="cls-2" points="27.85 5.36 27.85 -5.36 18.57 -10.72 9.28 -5.36 9.28 5.36 18.57 10.72 27.85 5.36"/><polyline class="cls-2" points="0 -10.72 0 0 0 10.72"/><polyline class="cls-2" points="-9.28 -5.36 0 0 9.28 5.35 9.28 5.36"/><polyline class="cls-2" points="-9.28 5.36 -9.28 5.35 0 0 9.28 -5.36"/><polygon class="cls-2" points="9.28 5.36 9.28 -5.36 0 -10.72 -9.29 -5.36 -9.29 5.36 0 10.72 9.28 5.36"/></pattern><linearGradient id="未命名的渐变_497" x1="1295.96" y1="42.64" x2="1299.91" y2="35.79" gradientTransform="translate(-1165.66)" gradientUnits="userSpaceOnUse"><stop offset="0" stop-color="#283140"/><stop offset="0.1" stop-color="#12161a"/><stop offset="0.75" stop-color="#7a98cc"/><stop offset="0.85" stop-color="#7a98cc"/><stop offset="1" stop-color="#38455a"/></linearGradient><linearGradient id="未命名的渐变_48" x1="134.69" y1="41.25" x2="130.79" y2="37.35" gradientUnits="userSpaceOnUse"><stop offset="0.6" stop-color="#99beff" stop-opacity="0"/><stop offset="0.75" stop-color="#99beff" stop-opacity="0.01"/><stop offset="0.8" stop-color="#99beff" stop-opacity="0.03"/><stop offset="0.84" stop-color="#99beff" stop-opacity="0.08"/><stop offset="0.87" stop-color="#99beff" stop-opacity="0.15"/><stop offset="0.9" stop-color="#99beff" stop-opacity="0.23"/><stop offset="0.92" stop-color="#99beff" stop-opacity="0.34"/><stop offset="0.94" stop-color="#99beff" stop-opacity="0.47"/><stop offset="0.96" stop-color="#99beff" stop-opacity="0.61"/><stop offset="0.98" stop-color="#99beff" stop-opacity="0.78"/><stop offset="1" stop-color="#99beff" stop-opacity="0.96"/><stop offset="1" stop-color="#99beff"/></linearGradient><linearGradient id="未命名的渐变_102" x1="1299.85" y1="43.93" x2="1299.85" y2="36.71" gradientTransform="translate(-1165.66)" gradientUnits="userSpaceOnUse"><stop offset="0" stop-color="#283140"/><stop offset="0.34" stop-color="#232b37"/><stop offset="0.9" stop-color="#15191f"/><stop offset="1" stop-color="#12161a"/></linearGradient><linearGradient id="未命名的渐变_102-2" x1="1299.85" y1="43.33" x2="1299.85" y2="37.3" xlink:href="#未命名的渐变_102"/><linearGradient id="未命名的渐变_366" x1="1300.53" y1="45.23" x2="1304.27" y2="38.75" xlink:href="#未命名的渐变_497"/><linearGradient id="未命名的渐变_2" x1="140.92" y1="45.82" x2="133.43" y2="38.32" gradientUnits="userSpaceOnUse"><stop offset="0.8" stop-color="#99beff" stop-opacity="0"/><stop offset="0.87" stop-color="#99beff" stop-opacity="0.01"/><stop offset="0.9" stop-color="#99beff" stop-opacity="0.03"/><stop offset="0.92" stop-color="#99beff" stop-opacity="0.08"/><stop offset="0.94" stop-color="#99beff" stop-opacity="0.15"/><stop offset="0.95" stop-color="#99beff" stop-opacity="0.23"/><stop offset="0.96" stop-color="#99beff" stop-opacity="0.34"/><stop offset="0.97" stop-color="#99beff" stop-opacity="0.47"/><stop offset="0.98" stop-color="#99beff" stop-opacity="0.61"/><stop offset="0.99" stop-color="#99beff" stop-opacity="0.78"/><stop offset="1" stop-color="#99beff" stop-opacity="0.96"/><stop offset="1" stop-color="#99beff"/></linearGradient><linearGradient id="未命名的渐变_1403" x1="1300.05" y1="44.95" x2="1300.06" y2="44.93" gradientTransform="translate(-1165.66)" gradientUnits="userSpaceOnUse"><stop offset="0" stop-color="#283140"/><stop offset="0.1" stop-color="#12161a"/><stop offset="0.8" stop-color="#7a98cc"/><stop offset="1" stop-color="#38455a"/></linearGradient><linearGradient id="未命名的渐变_1403-2" x1="1305.85" y1="39.7" x2="1305.86" y2="39.69" xlink:href="#未命名的渐变_1403"/><linearGradient id="未命名的渐变_1403-3" x1="1300.05" y1="44.95" x2="1303.78" y2="38.48" xlink:href="#未命名的渐变_1403"/><linearGradient id="未命名的渐变_100" x1="1300.23" y1="45.08" x2="1303.98" y2="38.58" gradientTransform="translate(-1165.66)" gradientUnits="userSpaceOnUse"><stop offset="0" stop-color="#0073e6"/><stop offset="0.1" stop-color="#1433cc"/><stop offset="0.8" stop-color="#59c8ff"/><stop offset="1" stop-color="#0073e6"/></linearGradient><linearGradient id="未命名的渐变_102-3" x1="1301.31" y1="38.92" x2="1306.17" y2="38.92" xlink:href="#未命名的渐变_102"/><linearGradient id="未命名的渐变_102-4" x1="1300.54" y1="39.24" x2="1305.11" y2="39.24" xlink:href="#未命名的渐变_102"/><linearGradient id="未命名的渐变_102-5" x1="1299.94" y1="39.72" x2="1304.4" y2="39.72" xlink:href="#未命名的渐变_102"/><linearGradient id="未命名的渐变_102-6" x1="1299.43" y1="40.26" x2="1303.83" y2="40.26" xlink:href="#未命名的渐变_102"/><linearGradient id="未命名的渐变_102-7" x1="1299.01" y1="40.86" x2="1303.36" y2="40.86" xlink:href="#未命名的渐变_102"/><linearGradient id="未命名的渐变_102-8" x1="1298.67" y1="41.49" x2="1302.96" y2="41.49" xlink:href="#未命名的渐变_102"/><linearGradient id="未命名的渐变_102-9" x1="1298.39" y1="42.18" x2="1302.64" y2="42.18" xlink:href="#未命名的渐变_102"/><linearGradient id="未命名的渐变_102-10" x1="1298.22" y1="42.91" x2="1302.4" y2="42.91" xlink:href="#未命名的渐变_102"/><linearGradient id="未命名的渐变_102-11" x1="1298.17" y1="43.71" x2="1302.26" y2="43.71" xlink:href="#未命名的渐变_102"/><linearGradient id="未命名的渐变_102-12" x1="1298.21" y1="44.65" x2="1302.53" y2="44.65" xlink:href="#未命名的渐变_102"/><linearGradient id="未命名的渐变_102-13" x1="1303.97" y1="44.44" x2="1309.26" y2="44.44" xlink:href="#未命名的渐变_102"/><linearGradient id="未命名的渐变_127" x1="1011.17" y1="45.92" x2="1009.93" y2="43.78" gradientTransform="matrix(-1, 0, 0, 1, 1152.12, 0)" gradientUnits="userSpaceOnUse"><stop offset="0" stop-color="#283140"/><stop offset="0.1" stop-color="#12161a"/><stop offset="0.75" stop-color="#89abe6"/><stop offset="0.85" stop-color="#89abe6"/><stop offset="1" stop-color="#38455a"/></linearGradient><linearGradient id="未命名的渐变_1827" x1="1010.23" y1="46.39" x2="1008.52" y2="44.68" gradientTransform="matrix(-1, 0, 0, 1, 1152.12, 0)" gradientUnits="userSpaceOnUse"><stop offset="0" stop-color="#425266"/><stop offset="1" stop-color="#596b8c"/></linearGradient><linearGradient id="未命名的渐变_6" x1="1076.09" y1="37.4" x2="1073.14" y2="34.45" gradientTransform="matrix(-1, 0, 0, 1, 1220.11, 0)" gradientUnits="userSpaceOnUse"><stop offset="0" stop-color="#0073e6"/><stop offset="1" stop-color="#143ccc"/></linearGradient><linearGradient id="未命名的渐变_171" x1="1075.62" y1="37.34" x2="1073.89" y2="34.35" gradientTransform="matrix(-1, 0, 0, 1, 1220.11, 0)" gradientUnits="userSpaceOnUse"><stop offset="0" stop-color="#0073e6"/><stop offset="0.15" stop-color="#1433cc"/><stop offset="0.45" stop-color="#59c8ff"/><stop offset="0.85" stop-color="#59c8ff"/><stop offset="1" stop-color="#0073e6"/></linearGradient><linearGradient id="未命名的渐变_6-2" x1="1075.43" y1="37.1" x2="1073.34" y2="35.02" xlink:href="#未命名的渐变_6"/><linearGradient id="未命名的渐变_6-3" x1="1074.58" y1="36.61" x2="1073.75" y2="35.77" xlink:href="#未命名的渐变_6"/><linearGradient id="未命名的渐变_171-2" x1="1074.82" y1="36.78" x2="1073.98" y2="35.32" xlink:href="#未命名的渐变_171"/><linearGradient id="未命名的渐变_6-4" x1="146.43" y1="36.58" x2="146.82" y2="36.58" gradientTransform="matrix(1, 0, 0, 1, 0, 0)" xlink:href="#未命名的渐变_6"/><linearGradient id="未命名的渐变_4" x1="1074.03" y1="36.59" x2="1073.76" y2="36.11" gradientTransform="matrix(-1, 0, 0, 1, 1220.11, 0)" gradientUnits="userSpaceOnUse"><stop offset="0" stop-color="#0073e6"/><stop offset="0.15" stop-color="#1433cc"/><stop offset="0.75" stop-color="#59c8ff"/><stop offset="0.85" stop-color="#59c8ff"/><stop offset="1" stop-color="#0073e6"/></linearGradient><linearGradient id="未命名的渐变_497-2" x1="1084.92" y1="32.44" x2="1082.76" y2="28.7" gradientTransform="matrix(-1, 0, 0, 1, 1220.11, 0)" xlink:href="#未命名的渐变_497"/><linearGradient id="未命名的渐变_6-5" x1="1202.7" y1="121.11" x2="1199.75" y2="118.16" xlink:href="#未命名的渐变_6"/><linearGradient id="未命名的渐变_171-3" x1="1202.22" y1="121.05" x2="1200.5" y2="118.06" xlink:href="#未命名的渐变_171"/><linearGradient id="未命名的渐变_6-6" x1="1202.03" y1="120.81" x2="1199.95" y2="118.73" xlink:href="#未命名的渐变_6"/><linearGradient id="未命名的渐变_6-7" x1="1201.18" y1="120.32" x2="1200.35" y2="119.48" xlink:href="#未命名的渐变_6"/><linearGradient id="未命名的渐变_171-4" x1="1201.43" y1="120.49" x2="1200.59" y2="119.03" xlink:href="#未命名的渐变_171"/><linearGradient id="未命名的渐变_6-8" x1="19.82" y1="120.29" x2="20.21" y2="120.29" gradientTransform="matrix(1, 0, 0, 1, 0, 0)" xlink:href="#未命名的渐变_6"/><linearGradient id="未命名的渐变_4-2" x1="1200.64" y1="120.3" x2="1200.36" y2="119.82" xlink:href="#未命名的渐变_4"/><linearGradient id="未命名的渐变_497-3" x1="1211.53" y1="116.15" x2="1209.36" y2="112.41" gradientTransform="matrix(-1, 0, 0, 1, 1220.11, 0)" xlink:href="#未命名的渐变_497"/><linearGradient id="未命名的渐变_497-4" x1="1040.86" y1="34.74" x2="1039.69" y2="32.71" gradientTransform="matrix(-1, 0, 0, 1, 1168.7, 0)" xlink:href="#未命名的渐变_497"/><linearGradient id="未命名的渐变_6-9" x1="1033.22" y1="38.44" x2="1032.42" y2="37.64" gradientTransform="matrix(-1, 0, 0, 1, 1168.7, 0)" xlink:href="#未命名的渐变_6"/><linearGradient id="未命名的渐变_4-3" x1="1033.49" y1="38.32" x2="1032.91" y2="37.32" gradientTransform="matrix(-1, 0, 0, 1, 1168.7, 0)" xlink:href="#未命名的渐变_4"/><linearGradient id="未命名的渐变_497-5" x1="1050.07" y1="40.85" x2="1048.9" y2="38.83" gradientTransform="matrix(-1, 0, 0, 1, 1168.7, 0)" xlink:href="#未命名的渐变_497"/><linearGradient id="未命名的渐变_6-10" x1="1042.44" y1="44.55" x2="1041.63" y2="43.75" gradientTransform="matrix(-1, 0, 0, 1, 1168.7, 0)" xlink:href="#未命名的渐变_6"/><linearGradient id="未命名的渐变_4-4" x1="1042.7" y1="44.44" x2="1042.12" y2="43.43" gradientTransform="matrix(-1, 0, 0, 1, 1168.7, 0)" xlink:href="#未命名的渐变_4"/><linearGradient id="未命名的渐变_497-6" x1="1059.28" y1="46.96" x2="1058.12" y2="44.94" gradientTransform="matrix(-1, 0, 0, 1, 1168.7, 0)" xlink:href="#未命名的渐变_497"/><linearGradient id="未命名的渐变_6-11" x1="1051.65" y1="50.66" x2="1050.85" y2="49.86" gradientTransform="matrix(-1, 0, 0, 1, 1168.7, 0)" xlink:href="#未命名的渐变_6"/><linearGradient id="未命名的渐变_4-5" x1="1051.92" y1="50.54" x2="1051.34" y2="49.54" gradientTransform="matrix(-1, 0, 0, 1, 1168.7, 0)" xlink:href="#未命名的渐变_4"/><linearGradient id="未命名的渐变_497-7" x1="1068.5" y1="53.07" x2="1067.33" y2="51.04" gradientTransform="matrix(-1, 0, 0, 1, 1168.7, 0)" xlink:href="#未命名的渐变_497"/><linearGradient id="未命名的渐变_6-12" x1="1060.86" y1="56.77" x2="1060.06" y2="55.97" gradientTransform="matrix(-1, 0, 0, 1, 1168.7, 0)" xlink:href="#未命名的渐变_6"/><linearGradient id="未命名的渐变_4-6" x1="1061.13" y1="56.65" x2="1060.55" y2="55.65" gradientTransform="matrix(-1, 0, 0, 1, 1168.7, 0)" xlink:href="#未命名的渐变_4"/><linearGradient id="未命名的渐变_497-8" x1="1077.71" y1="59.18" x2="1076.54" y2="57.15" gradientTransform="matrix(-1, 0, 0, 1, 1168.7, 0)" xlink:href="#未命名的渐变_497"/><linearGradient id="未命名的渐变_6-13" x1="1070.08" y1="62.88" x2="1069.28" y2="62.08" gradientTransform="matrix(-1, 0, 0, 1, 1168.7, 0)" xlink:href="#未命名的渐变_6"/><linearGradient id="未命名的渐变_4-7" x1="1070.35" y1="62.76" x2="1069.77" y2="61.76" gradientTransform="matrix(-1, 0, 0, 1, 1168.7, 0)" xlink:href="#未命名的渐变_4"/><linearGradient id="未命名的渐变_497-9" x1="1086.93" y1="65.29" x2="1085.76" y2="63.26" gradientTransform="matrix(-1, 0, 0, 1, 1168.7, 0)" xlink:href="#未命名的渐变_497"/><linearGradient id="未命名的渐变_6-14" x1="1079.29" y1="68.99" x2="1078.49" y2="68.19" gradientTransform="matrix(-1, 0, 0, 1, 1168.7, 0)" xlink:href="#未命名的渐变_6"/><linearGradient id="未命名的渐变_4-8" x1="1079.56" y1="68.87" x2="1078.98" y2="67.87" gradientTransform="matrix(-1, 0, 0, 1, 1168.7, 0)" xlink:href="#未命名的渐变_4"/><linearGradient id="未命名的渐变_497-10" x1="1096.14" y1="71.51" x2="1094.97" y2="69.49" gradientTransform="matrix(-1, 0, 0, 1, 1168.7, 0)" xlink:href="#未命名的渐变_497"/><linearGradient id="未命名的渐变_6-15" x1="1088.51" y1="75.21" x2="1087.71" y2="74.41" gradientTransform="matrix(-1, 0, 0, 1, 1168.7, 0)" xlink:href="#未命名的渐变_6"/><linearGradient id="未命名的渐变_4-9" x1="1088.78" y1="75.09" x2="1088.2" y2="74.09" gradientTransform="matrix(-1, 0, 0, 1, 1168.7, 0)" xlink:href="#未命名的渐变_4"/><linearGradient id="未命名的渐变_497-11" x1="1105.36" y1="77.47" x2="1104.19" y2="75.45" gradientTransform="matrix(-1, 0, 0, 1, 1168.7, 0)" xlink:href="#未命名的渐变_497"/><linearGradient id="未命名的渐变_6-16" x1="1097.72" y1="81.18" x2="1096.92" y2="80.37" gradientTransform="matrix(-1, 0, 0, 1, 1168.7, 0)" xlink:href="#未命名的渐变_6"/><linearGradient id="未命名的渐变_4-10" x1="1097.99" y1="81.06" x2="1097.41" y2="80.05" gradientTransform="matrix(-1, 0, 0, 1, 1168.7, 0)" xlink:href="#未命名的渐变_4"/><linearGradient id="未命名的渐变_497-12" x1="1114.57" y1="83.58" x2="1113.4" y2="81.56" gradientTransform="matrix(-1, 0, 0, 1, 1168.7, 0)" xlink:href="#未命名的渐变_497"/><linearGradient id="未命名的渐变_6-17" x1="1106.94" y1="87.28" x2="1106.14" y2="86.48" gradientTransform="matrix(-1, 0, 0, 1, 1168.7, 0)" xlink:href="#未命名的渐变_6"/><linearGradient id="未命名的渐变_4-11" x1="1107.21" y1="87.17" x2="1106.63" y2="86.16" gradientTransform="matrix(-1, 0, 0, 1, 1168.7, 0)" xlink:href="#未命名的渐变_4"/><linearGradient id="未命名的渐变_497-13" x1="1123.79" y1="89.69" x2="1122.62" y2="87.67" gradientTransform="matrix(-1, 0, 0, 1, 1168.7, 0)" xlink:href="#未命名的渐变_497"/><linearGradient id="未命名的渐变_6-18" x1="1116.15" y1="93.39" x2="1115.35" y2="92.59" gradientTransform="matrix(-1, 0, 0, 1, 1168.7, 0)" xlink:href="#未命名的渐变_6"/><linearGradient id="未命名的渐变_4-12" x1="1116.42" y1="93.28" x2="1115.84" y2="92.27" gradientTransform="matrix(-1, 0, 0, 1, 1168.7, 0)" xlink:href="#未命名的渐变_4"/><linearGradient id="未命名的渐变_497-14" x1="1133" y1="95.8" x2="1131.83" y2="93.78" gradientTransform="matrix(-1, 0, 0, 1, 1168.7, 0)" xlink:href="#未命名的渐变_497"/><linearGradient id="未命名的渐变_6-19" x1="1125.37" y1="99.5" x2="1124.56" y2="98.7" gradientTransform="matrix(-1, 0, 0, 1, 1168.7, 0)" xlink:href="#未命名的渐变_6"/><linearGradient id="未命名的渐变_4-13" x1="1125.63" y1="99.39" x2="1125.05" y2="98.38" gradientTransform="matrix(-1, 0, 0, 1, 1168.7, 0)" xlink:href="#未命名的渐变_4"/><linearGradient id="未命名的渐变_497-15" x1="1142.21" y1="101.91" x2="1141.05" y2="99.89" gradientTransform="matrix(-1, 0, 0, 1, 1168.7, 0)" xlink:href="#未命名的渐变_497"/><linearGradient id="未命名的渐变_6-20" x1="1134.58" y1="105.61" x2="1133.78" y2="104.81" gradientTransform="matrix(-1, 0, 0, 1, 1168.7, 0)" xlink:href="#未命名的渐变_6"/><linearGradient id="未命名的渐变_4-14" x1="1134.85" y1="105.49" x2="1134.27" y2="104.49" gradientTransform="matrix(-1, 0, 0, 1, 1168.7, 0)" xlink:href="#未命名的渐变_4"/><linearGradient id="未命名的渐变_6-21" x1="140.55" y1="46.39" x2="150.64" y2="36.3" gradientTransform="matrix(1, 0, 0, 1, 0, 0)" xlink:href="#未命名的渐变_6"/><linearGradient id="未命名的渐变_1149" x1="140.71" y1="46.97" x2="148.04" y2="34.27" gradientUnits="userSpaceOnUse"><stop offset="0" stop-color="#0073e6"/><stop offset="0.06" stop-color="#1433cc"/><stop offset="0.2" stop-color="#59c8ff"/><stop offset="0.81" stop-color="#59c8ff"/><stop offset="1" stop-color="#2ea5ff"/></linearGradient><linearGradient id="未命名的渐变_37" x1="12.99" y1="114.58" x2="22.57" y2="97.99" gradientUnits="userSpaceOnUse"><stop offset="0" stop-color="#212733"/><stop offset="0.86" stop-color="#212733"/><stop offset="0.88" stop-color="#212733"/><stop offset="1" stop-color="#1b202a"/></linearGradient><linearGradient id="未命名的渐变_26" x1="130.25" y1="34.51" x2="134.54" y2="27.08" gradientUnits="userSpaceOnUse"><stop offset="0" stop-color="#1d232d"/><stop offset="0.12" stop-color="#141820"/><stop offset="0.14" stop-color="#161a22"/><stop offset="1" stop-color="#161a22"/></linearGradient><linearGradient id="未命名的渐变_58" x1="8.47" y1="116.08" x2="10.28" y2="112.95" gradientUnits="userSpaceOnUse"><stop offset="0" stop-color="#0f1217"/><stop offset="0.84" stop-color="#212733"/><stop offset="1" stop-color="#1c222c"/></linearGradient></defs><title>皮带机</title><g id="图层_2" data-name="图层 2"><g id="图库"><g id="皮带机"><g class="cls-3"><rect class="cls-4" width="150" height="150"/><rect id="网格" class="cls-5" width="150" height="150"/></g><g class="cls-6"><path class="cls-7" d="M134.32,35.83a2,2,0,0,0-2,.2,6.17,6.17,0,0,0-2.8,4.84,2,2,0,0,0,.82,1.8l1.85,1.07a2,2,0,0,1-.82-1.8,6.16,6.16,0,0,1,2.79-4.85,2,2,0,0,1,2-.19Z"/><g id="高光"><path class="cls-8" d="M133.59,35.89a1.26,1.26,0,0,1,.61.16l.79.45a3.2,3.2,0,0,0-.94.38,6.41,6.41,0,0,0-2.92,5.06,3.31,3.31,0,0,0,.14,1l-.79-.46a1.72,1.72,0,0,1-.7-1.59,5.88,5.88,0,0,1,2.67-4.62,2.36,2.36,0,0,1,1.14-.36m0-.25a2.57,2.57,0,0,0-1.26.39,6.17,6.17,0,0,0-2.8,4.84,2,2,0,0,0,.82,1.8l1.85,1.07a2,2,0,0,1-.82-1.8,6.16,6.16,0,0,1,2.79-4.85,2.58,2.58,0,0,1,1.26-.38,1.46,1.46,0,0,1,.73.18l-1.84-1.06a1.47,1.47,0,0,0-.73-.19Zm2.57,1.25h0Z"/></g><path class="cls-9" d="M134.17,37.09a6.17,6.17,0,0,0-2.79,4.85c0,1.78,1.26,2.5,2.81,1.6A6.17,6.17,0,0,0,137,38.7C137,36.92,135.72,36.2,134.17,37.09ZM133.89,43a1.94,1.94,0,0,1-1,.3c-.86,0-1-1-1-1.4a5.59,5.59,0,0,1,2.5-4.32,2,2,0,0,1,1-.31c.87,0,1,1,1,1.4A5.57,5.57,0,0,1,133.89,43Z"/><path class="cls-10" d="M134.17,37.09a6.17,6.17,0,0,0-2.79,4.85c0,1.78,1.26,2.5,2.81,1.6A6.17,6.17,0,0,0,137,38.7C137,36.92,135.72,36.2,134.17,37.09ZM133.89,43a1.94,1.94,0,0,1-1,.3c-.86,0-1-1-1-1.4a5.59,5.59,0,0,1,2.5-4.32,2,2,0,0,1,1-.31c.87,0,1,1,1,1.4A5.57,5.57,0,0,1,133.89,43Z"/><path class="cls-11" d="M132.93,43.33c-.86,0-1-1-1-1.4a5.59,5.59,0,0,1,2.5-4.32,2,2,0,0,1,1-.31c.87,0,1,1,1,1.4A5.65,5.65,0,0,1,133.9,43a2,2,0,0,1-1,.3Z"/></g><g class="cls-6"><path class="cls-12" d="M136.25,37.4a1.87,1.87,0,0,0-1.88.18,5.83,5.83,0,0,0-2.64,4.57,1.85,1.85,0,0,0,.78,1.69l6.56,3.82a1.85,1.85,0,0,1-.77-1.7,5.83,5.83,0,0,1,2.64-4.56,1.85,1.85,0,0,1,1.88-.19Z"/><g id="高光-2" data-name="高光"><path class="cls-13" d="M135.56,37.47a1.2,1.2,0,0,1,.57.14l5.54,3.23a3,3,0,0,0-.86.34A6.13,6.13,0,0,0,138.05,46a3,3,0,0,0,.13.89l-5.55-3.22a1.65,1.65,0,0,1-.65-1.48,5.57,5.57,0,0,1,2.51-4.35,2.16,2.16,0,0,1,1.07-.33m0-.25a2.38,2.38,0,0,0-1.19.36,5.83,5.83,0,0,0-2.64,4.57,1.85,1.85,0,0,0,.78,1.69l6.56,3.82a1.85,1.85,0,0,1-.77-1.7,5.83,5.83,0,0,1,2.64-4.56,2.35,2.35,0,0,1,1.19-.36,1.44,1.44,0,0,1,.69.17l-6.57-3.81a1.34,1.34,0,0,0-.69-.18Z"/></g><path class="cls-14" d="M133.13,44.2l2.53,1.48-2.38-1.38Z"/><path class="cls-15" d="M141.08,40.21l-.11-.06-1.67-1Z"/><path class="cls-16" d="M141.08,40.21a1.36,1.36,0,0,0-.58-.17,1.94,1.94,0,0,0-.76.12,1.88,1.88,0,0,0-.3.12l-.23.12-.25.16-.22.16c-.14.11-.26.22-.39.34l-.18.19a4,4,0,0,0-.32.38,1.56,1.56,0,0,0-.16.2l-.26.4-.13.22a4.51,4.51,0,0,0-.22.44c0,.07-.07.15-.11.23s-.11.31-.16.46-.06.17-.08.25a4.91,4.91,0,0,0-.1.5c0,.1,0,.19,0,.28s0,.24,0,.36v.19a2.91,2.91,0,0,0,0,.31,2,2,0,0,0,.24.71,1.32,1.32,0,0,0,.49.48l-4.07-2.36a1.32,1.32,0,0,1-.47-.47,2,2,0,0,1-.26-.7,3.11,3.11,0,0,1,0-.32c0-.07,0-.14,0-.21s0-.23,0-.34l0-.28a5,5,0,0,1,.11-.5,2.33,2.33,0,0,1,.07-.25c.05-.15.11-.31.17-.46a2.44,2.44,0,0,1,.1-.24c.07-.14.14-.29.22-.43a2.53,2.53,0,0,1,.13-.22,3.51,3.51,0,0,1,.27-.4,1.59,1.59,0,0,1,.15-.21c.1-.13.21-.26.32-.38l.18-.18a3,3,0,0,1,.38-.34l.23-.17.26-.17.22-.11a1.78,1.78,0,0,1,.29-.12,1.93,1.93,0,0,1,.76-.13,1.28,1.28,0,0,1,.61.18Z"/><path class="cls-17" d="M141.8,40.64h0l-5.11-3a1.39,1.39,0,0,0-.51-.16,1.89,1.89,0,0,0-1,.15,3.86,3.86,0,0,0-.41.2,5.42,5.42,0,0,0-1.91,2.05,5.34,5.34,0,0,0-.72,2.46.43.43,0,0,1,0,0s0,0,0,0a1.82,1.82,0,0,0,.77,1.66l.18.11h0l2.76,1.62-.23-.14,2.4,1.41h0a1.76,1.76,0,0,1-.77-1.49c0-.07,0-.14,0-.21s0-.16,0-.25a5.77,5.77,0,0,1,.84-2.48,5.24,5.24,0,0,1,1.79-1.83l.18-.1a1.9,1.9,0,0,1,1.51-.18l.19.09Z"/><path class="cls-18" d="M136.41,37.67a1.93,1.93,0,0,0-.76.13l4.09,2.36a1.94,1.94,0,0,1,.76-.12Z"/><path class="cls-19" d="M135.14,38l-.26.17L139,40.56l.25-.16.23-.12-4.08-2.36Z"/><path class="cls-20" d="M134.27,38.71l4.08,2.35c.13-.12.25-.23.39-.34l-4.09-2.35A3,3,0,0,0,134.27,38.71Z"/><path class="cls-21" d="M133.77,39.27l4.08,2.36a4,4,0,0,1,.32-.38l-4.08-2.36C134,39,133.87,39.14,133.77,39.27Z"/><path class="cls-22" d="M133.35,39.88l4.08,2.35.26-.4-4.07-2.35A3.51,3.51,0,0,0,133.35,39.88Z"/><path class="cls-23" d="M133,40.53l4.08,2.36a4.51,4.51,0,0,1,.22-.44l-4.08-2.35C133.14,40.24,133.07,40.39,133,40.53Z"/><path class="cls-24" d="M132.73,41.23l4.08,2.35c.05-.15.1-.31.16-.46l-4.07-2.35C132.84,40.92,132.78,41.08,132.73,41.23Z"/><path class="cls-25" d="M136.73,43.83l-4.07-2.35a5,5,0,0,0-.11.5l4.08,2.35A4.91,4.91,0,0,1,136.73,43.83Z"/><path class="cls-26" d="M136.58,45c0-.12,0-.24,0-.36l-4.07-2.35c0,.11,0,.23,0,.34s0,.14,0,.21l4.07,2.35Z"/><path class="cls-27" d="M132.55,43.13a2,2,0,0,0,.26.7l4.05,2.35a2,2,0,0,1-.24-.71Z"/><path class="cls-28" d="M140.94,41.4A5.83,5.83,0,0,0,138.3,46c0,1.68,1.2,2.36,2.66,1.52a5.81,5.81,0,0,0,2.63-4.57C143.59,41.23,142.4,40.55,140.94,41.4Z"/></g><g class="cls-6"><path class="cls-29" d="M141,43.52a.62.62,0,0,1,.62-.06l1.74,1a.64.64,0,0,0-.63.06,1.94,1.94,0,0,0-.87,1.51.6.6,0,0,0,.26.56l-1.74-1a.59.59,0,0,1-.25-.56A1.91,1.91,0,0,1,141,43.52Z"/><path class="cls-30" d="M142.74,44.53c.49-.28.88-.05.88.5a1.94,1.94,0,0,1-.87,1.51c-.48.28-.88.05-.88-.5A1.94,1.94,0,0,1,142.74,44.53Z"/></g><g class="cls-6"><polygon class="cls-31" points="33.9 123.42 29.75 125.81 29.75 126.12 33.9 123.72 33.9 123.42"/><polygon class="cls-32" points="29.75 125.81 29.23 125.52 29.24 125.82 29.75 126.12 29.75 125.81"/><polygon class="cls-33" points="33.39 123.12 29.23 125.52 29.75 125.81 33.9 123.42 33.39 123.12"/></g><g class="cls-6"><polygon class="cls-31" points="42.76 104.92 30.71 121.18 31.87 122.49 43.92 106.23 42.76 104.92"/><polygon class="cls-34" points="30.71 121.18 30.2 120.88 31.36 122.19 31.87 122.49 30.71 121.18"/><polygon class="cls-35" points="42.24 104.62 30.2 120.88 30.71 121.18 42.76 104.92 42.24 104.62"/></g><g class="cls-6"><polygon class="cls-33" points="15.43 111.13 12.85 112.63 30.24 122.66 32.81 121.16 15.43 111.13"/><polygon class="cls-31" points="30.24 122.66 30.23 123.26 32.81 121.76 32.81 121.16 30.24 122.66"/><polygon class="cls-32" points="12.85 112.63 12.85 113.22 30.23 123.26 30.24 122.66 12.85 112.63"/></g><g class="cls-6"><polygon class="cls-33" points="65.27 81.32 62.69 82.82 80.07 92.86 82.65 91.36 65.27 81.32"/><polygon class="cls-31" points="80.07 92.86 80.07 93.45 82.65 91.95 82.65 91.36 80.07 92.86"/><polygon class="cls-32" points="62.69 82.82 62.69 83.41 80.07 93.45 80.07 92.86 62.69 82.82"/></g><g class="cls-6"><polygon class="cls-33" points="115.56 51.32 112.98 52.81 130.37 62.85 132.95 61.35 115.56 51.32"/><polygon class="cls-31" points="130.37 62.85 130.37 63.45 132.94 61.95 132.95 61.35 130.37 62.85"/><polygon class="cls-32" points="112.98 52.81 112.98 53.41 130.37 63.45 130.37 62.85 112.98 52.81"/></g><g class="cls-6"><polygon class="cls-33" points="115.56 43.72 112.98 45.22 130.37 55.26 132.95 53.76 115.56 43.72"/><polygon class="cls-31" points="130.37 55.26 130.37 55.85 132.94 54.36 132.95 53.76 130.37 55.26"/><polygon class="cls-32" points="112.98 45.22 112.98 45.82 130.37 55.85 130.37 55.26 112.98 45.22"/></g><g class="cls-6"><polygon class="cls-31" points="33.01 113.06 30.41 114.56 30.45 125.29 33.04 123.79 33.01 113.06"/><polygon class="cls-32" points="30.41 114.56 29.9 114.25 29.93 124.99 30.45 125.29 30.41 114.56"/><polygon class="cls-36" points="32.49 112.76 29.9 114.25 30.41 114.56 33.01 113.06 32.49 112.76"/></g><g class="cls-6"><polygon class="cls-31" points="83.98 94.43 79.83 96.83 79.83 97.13 83.99 94.73 83.98 94.43"/><polygon class="cls-32" points="79.83 96.83 79.32 96.53 79.32 96.83 79.83 97.13 79.83 96.83"/><polygon class="cls-33" points="83.47 94.13 79.32 96.53 79.83 96.83 83.98 94.43 83.47 94.13"/></g><g class="cls-6"><polygon class="cls-31" points="98.76 67.45 81.55 90.68 82.71 91.99 99.92 68.76 98.76 67.45"/><polygon class="cls-37" points="82.71 91.99 82.19 91.69 81.03 90.38 81.55 90.68 82.71 91.99"/><polygon class="cls-35" points="98.25 67.15 81.03 90.38 81.55 90.68 98.76 67.45 98.25 67.15"/></g><polygon class="cls-38" points="128.79 27.53 1.82 111.53 18.84 121.42 145.8 37.41 128.79 27.53"/><g class="cls-6"><polygon class="cls-31" points="83.08 79.72 80.49 81.22 80.53 96.43 83.13 94.93 83.08 79.72"/><polygon class="cls-32" points="80.49 81.22 79.97 80.92 80.02 96.13 80.53 96.43 80.49 81.22"/><polygon class="cls-36" points="82.57 79.42 79.97 80.92 80.49 81.22 83.08 79.72 82.57 79.42"/></g><g class="cls-6"><polygon class="cls-31" points="80.38 90.04 80.38 92.91 66.73 90.32 67.88 87.67 80.38 90.04"/><polygon class="cls-35" points="67.37 87.37 66.22 90.02 66.73 90.32 67.88 87.67 67.37 87.37"/><polygon class="cls-39" points="80.38 90.04 67.88 87.67 67.37 87.37 79.86 89.74 80.38 90.04"/></g><g class="cls-6"><polygon class="cls-31" points="134.27 65.6 130.12 68 130.12 68.3 134.27 65.9 134.27 65.6"/><polygon class="cls-32" points="130.12 68 129.6 67.7 129.6 68 130.12 68.3 130.12 68"/><polygon class="cls-33" points="133.76 65.3 129.6 67.7 130.12 68 134.27 65.6 133.76 65.3"/></g><g class="cls-6"><path class="cls-40" d="M144,36.77c0,1,.66,1.38,1.5.91a3.32,3.32,0,0,0,1.53-2.6c0-1-.66-1.37-1.49-.91A3.35,3.35,0,0,0,144,36.77Zm.29-.16a2.71,2.71,0,0,1,1.24-2.1c.68-.38,1.22,0,1.21.73a2.66,2.66,0,0,1-1.24,2.1C144.8,37.72,144.26,37.39,144.27,36.61Z"/><path class="cls-41" d="M145.51,34.51c.55-.31,1-.15,1.16.34v0h0V35h0v.06h0v0c-.13-.43-.53-.56-1-.3a2.35,2.35,0,0,0-1.08,1.84c0,.56.31.86.76.76l-.28.06c-.51.11-.87-.22-.87-.87A2.71,2.71,0,0,1,145.51,34.51Z"/><path class="cls-42" d="M144.66,36.66c0,.68.46,1,1.05.64a2.36,2.36,0,0,0,1.09-1.83c0-.69-.47-1-1.06-.65A2.35,2.35,0,0,0,144.66,36.66Zm.47-.27a1.32,1.32,0,0,1,.61-1c.32-.18.59,0,.58.36a1.28,1.28,0,0,1-.6,1C145.39,36.93,145.13,36.77,145.13,36.39Z"/><path class="cls-43" d="M145.52,36.43c0,.27.19.39.43.26a1,1,0,0,0,.43-.74c0-.27-.19-.39-.42-.25A1,1,0,0,0,145.52,36.43Zm.24-.13A.44.44,0,0,1,146,36a.13.13,0,0,1,.2.12.42.42,0,0,1-.2.34C145.84,36.48,145.75,36.43,145.76,36.3Z"/><path class="cls-44" d="M145.74,35.37c.28-.15.51-.06.57.21l.06.26c0-.19-.21-.26-.41-.14a1,1,0,0,0-.44.73c0,.24.14.35.34.29h-.27c-.26.08-.46-.09-.46-.42A1.32,1.32,0,0,1,145.74,35.37Z"/><path class="cls-45" d="M146.63,36.35c.11-.06.19,0,.19.12a.42.42,0,0,1-.2.34c-.11.06-.19,0-.19-.12A.44.44,0,0,1,146.63,36.35Z"/><path class="cls-46" d="M146,36a.14.14,0,0,1,.14,0l.67.39a.12.12,0,0,0-.13,0,.44.44,0,0,0-.2.34.14.14,0,0,0,.06.13l-.68-.39a.13.13,0,0,1-.05-.13A.44.44,0,0,1,146,36Z"/><path class="cls-47" d="M128.14,24.08a1,1,0,0,1,1.05-.09l17.38,10.09a1,1,0,0,0-1,.09,3.35,3.35,0,0,0-1.54,2.6,1.1,1.1,0,0,0,.44,1L127.05,27.68a1.06,1.06,0,0,1-.44-1A3.32,3.32,0,0,1,128.14,24.08Z"/></g><g class="cls-6"><path class="cls-48" d="M17.38,120.48c0,1,.65,1.38,1.49.91a3.33,3.33,0,0,0,1.54-2.6c0-1-.66-1.37-1.5-.91A3.34,3.34,0,0,0,17.38,120.48Zm.29-.16a2.66,2.66,0,0,1,1.24-2.1c.67-.38,1.21,0,1.2.73a2.63,2.63,0,0,1-1.24,2.1C18.2,121.43,17.66,121.1,17.67,120.32Z"/><path class="cls-49" d="M18.91,118.22c.55-.31,1-.15,1.15.34v0h0v.12h0v.06h0v0c-.13-.43-.53-.57-1-.3a2.36,2.36,0,0,0-1.09,1.84c0,.56.32.86.76.76l-.28.06c-.5.11-.87-.23-.86-.87A2.66,2.66,0,0,1,18.91,118.22Z"/><path class="cls-50" d="M18.05,120.37c0,.68.47,1,1.06.64a2.35,2.35,0,0,0,1.08-1.84c0-.68-.46-1-1.05-.64A2.36,2.36,0,0,0,18.05,120.37Zm.48-.27a1.28,1.28,0,0,1,.6-1c.33-.18.59,0,.59.36a1.32,1.32,0,0,1-.61,1C18.78,120.64,18.52,120.48,18.53,120.1Z"/><path class="cls-51" d="M18.92,120.14c0,.27.18.39.42.25a.9.9,0,0,0,.43-.73c0-.27-.18-.39-.42-.25A.92.92,0,0,0,18.92,120.14Zm.23-.13a.42.42,0,0,1,.2-.34c.11-.06.19,0,.19.12a.42.42,0,0,1-.2.34C19.23,120.19,19.15,120.14,19.15,120Z"/><path class="cls-52" d="M19.13,119.08c.28-.16.51-.06.57.2l.06.27c0-.19-.21-.26-.41-.14a.92.92,0,0,0-.43.73c0,.24.14.35.33.29H19c-.27.09-.47-.08-.46-.41A1.28,1.28,0,0,1,19.13,119.08Z"/><path class="cls-53" d="M20,120.06c.11-.06.2,0,.19.12a.44.44,0,0,1-.19.34c-.11.06-.2,0-.2-.12A.42.42,0,0,1,20,120.06Z"/><path class="cls-54" d="M19.35,119.67a.12.12,0,0,1,.13,0l.68.39a.14.14,0,0,0-.14,0,.42.42,0,0,0-.2.34.14.14,0,0,0,.06.13l-.67-.39a.14.14,0,0,1-.06-.13A.42.42,0,0,1,19.35,119.67Z"/><path class="cls-55" d="M1.54,107.79a1,1,0,0,1,1-.09L20,117.79a1,1,0,0,0-1.05.09,3.34,3.34,0,0,0-1.53,2.6,1.06,1.06,0,0,0,.44,1L.44,111.39a1.06,1.06,0,0,1-.44-1A3.31,3.31,0,0,1,1.54,107.79Z"/></g><g class="cls-6"><polygon class="cls-31" points="133.37 46.11 130.77 47.61 130.83 67.59 133.42 66.09 133.37 46.11"/><polygon class="cls-32" points="130.77 47.61 130.26 47.31 130.31 67.29 130.83 67.59 130.77 47.61"/><polygon class="cls-33" points="132.85 45.81 130.26 47.31 130.77 47.61 133.37 46.11 132.85 45.81"/></g><g class="cls-6"><polygon class="cls-31" points="130.67 60 130.67 62.86 113.46 59.6 114.61 56.95 130.67 60"/><polygon class="cls-32" points="113.46 59.6 112.95 59.3 114.1 56.65 114.61 56.95 113.46 59.6"/><polygon class="cls-39" points="130.67 60 114.61 56.95 114.1 56.65 130.29 59.72 130.67 60"/></g><g class="cls-6"><polygon class="cls-32" points="120.17 32.5 120.16 33.02 136.57 42.5 136.58 41.98 120.17 32.5"/><polygon class="cls-31" points="136.58 41.98 136.57 42.5 136.96 42.27 136.96 41.75 136.58 41.98"/><polygon class="cls-33" points="120.55 32.28 120.17 32.5 136.58 41.98 136.96 41.75 120.55 32.28"/></g><g class="cls-6"><path class="cls-56" d="M121.45,28.73a.62.62,0,0,1,.58-.05h0l14,8.09a.57.57,0,0,1,.24.54,1.81,1.81,0,0,1-.83,1.41.57.57,0,0,1-.57.05s-13.71-7.94-14-8.08a.6.6,0,0,1-.24-.55A1.83,1.83,0,0,1,121.45,28.73Z"/><path class="cls-32" d="M134.59,38.23c0,.52.35.74.81.49a1.81,1.81,0,0,0,.83-1.41c0-.53-.36-.75-.81-.5A1.82,1.82,0,0,0,134.59,38.23ZM135,38a.91.91,0,0,1,.41-.71c.23-.13.41,0,.41.25a.88.88,0,0,1-.42.7C135.18,38.37,135,38.26,135,38Z"/><path class="cls-57" d="M135.88,37.56c.23-.12.41,0,.41.25a.94.94,0,0,1-.42.71c-.23.12-.41,0-.41-.25A.94.94,0,0,1,135.88,37.56Z"/><path class="cls-58" d="M135.41,37.29a.28.28,0,0,1,.29,0l.47.27a.3.3,0,0,0-.29,0,.94.94,0,0,0-.42.71.3.3,0,0,0,.12.27l-.46-.27A.29.29,0,0,1,135,38,.91.91,0,0,1,135.41,37.29Z"/></g><g class="cls-6"><polygon class="cls-31" points="119.74 29.31 120.18 29.05 120.18 32.51 119.74 32.76 119.74 29.31"/><path class="cls-33" d="M121.07,29.06a1.78,1.78,0,0,0-.25.36l-1.53-.88.44-.26Z"/><polygon class="cls-33" points="120.18 32.51 136.61 41.98 136.17 42.24 119.74 32.76 120.18 32.51"/><polygon class="cls-33" points="136.05 37.69 137.06 38.27 136.62 38.53 135.61 37.94 136.05 37.69"/><polygon class="cls-31" points="136.62 38.53 136.61 43 137.05 42.74 137.06 38.27 136.62 38.53"/><path class="cls-32" d="M136.62,38.53V43L119.3,33V28.54l1.53.88a2.14,2.14,0,0,0-.16.42l-.92-.53v3.45l16.43,9.48V38.77l-.48-.28-.08-.05v-.5l.35.21Z"/></g><g class="cls-6"><polygon class="cls-32" points="119.37 32.95 119.37 33.47 135.78 42.94 135.78 42.42 119.37 32.95"/><polygon class="cls-31" points="135.78 42.42 135.78 42.94 136.16 42.72 136.17 42.2 135.78 42.42"/><polygon class="cls-33" points="119.75 32.72 119.37 32.95 135.78 42.42 136.17 42.2 119.75 32.72"/></g><g class="cls-6"><polygon class="cls-32" points="110.95 38.61 110.95 39.13 127.36 48.61 127.36 48.09 110.95 38.61"/><polygon class="cls-31" points="127.36 48.09 127.36 48.61 127.75 48.38 127.75 47.86 127.36 48.09"/><polygon class="cls-33" points="111.34 38.39 110.95 38.61 127.36 48.09 127.75 47.86 111.34 38.39"/></g><g class="cls-6"><path class="cls-59" d="M112.24,34.84a.59.59,0,0,1,.57-.05h0l14,8.09a.6.6,0,0,1,.24.54,1.79,1.79,0,0,1-.84,1.41.55.55,0,0,1-.57.05l-14-8.08a.58.58,0,0,1-.24-.54A1.82,1.82,0,0,1,112.24,34.84Z"/><path class="cls-32" d="M125.37,44.34c0,.53.36.75.81.49a1.79,1.79,0,0,0,.84-1.41c0-.52-.36-.75-.81-.49A1.79,1.79,0,0,0,125.37,44.34Zm.41-.23a.94.94,0,0,1,.42-.71c.23-.12.41,0,.4.25a.9.9,0,0,1-.41.71C126,44.48,125.78,44.37,125.78,44.11Z"/><path class="cls-60" d="M126.67,43.68c.22-.13.41,0,.4.24a.91.91,0,0,1-.41.71c-.23.13-.41,0-.41-.25A.88.88,0,0,1,126.67,43.68Z"/><path class="cls-61" d="M126.2,43.4a.3.3,0,0,1,.29,0l.46.27a.27.27,0,0,0-.28,0,.88.88,0,0,0-.42.7q0,.21.12.27l-.47-.27a.3.3,0,0,1-.12-.27A.94.94,0,0,1,126.2,43.4Z"/></g><g class="cls-6"><polygon class="cls-31" points="110.53 35.42 110.96 35.17 110.96 38.62 110.53 38.88 110.53 35.42"/><path class="cls-33" d="M111.85,35.17a2.25,2.25,0,0,0-.24.36l-1.54-.88.44-.25Z"/><polygon class="cls-33" points="110.96 38.62 127.4 48.09 126.96 48.35 110.53 38.88 110.96 38.62"/><polygon class="cls-33" points="126.83 43.8 127.85 44.39 127.41 44.64 126.39 44.05 126.83 43.8"/><polygon class="cls-31" points="127.41 44.64 127.4 49.11 127.84 48.86 127.85 44.39 127.41 44.64"/><path class="cls-32" d="M127.41,44.64v4.47l-17.32-10V34.65l1.54.88a1.81,1.81,0,0,0-.16.42l-.93-.53v3.46L127,48.35V44.89l-.47-.28-.09,0v-.51l.36.21Z"/></g><g class="cls-6"><polygon class="cls-32" points="110.15 39.06 110.15 39.58 126.56 49.05 126.56 48.53 110.15 39.06"/><polygon class="cls-31" points="126.56 48.53 126.56 49.05 126.95 48.83 126.95 48.31 126.56 48.53"/><polygon class="cls-33" points="110.54 38.84 110.15 39.06 126.56 48.53 126.95 48.31 110.54 38.84"/></g><g class="cls-6"><polygon class="cls-32" points="101.74 44.72 101.73 45.24 118.15 54.72 118.15 54.2 101.74 44.72"/><polygon class="cls-31" points="118.15 54.2 118.15 54.72 118.53 54.49 118.53 53.97 118.15 54.2"/><polygon class="cls-33" points="102.12 44.5 101.74 44.72 118.15 54.2 118.53 53.97 102.12 44.5"/></g><g class="cls-6"><path class="cls-62" d="M103,41a.59.59,0,0,1,.57-.05h0c1.48.87,14,8.09,14,8.09a.58.58,0,0,1,.24.54,1.78,1.78,0,0,1-.83,1.41.55.55,0,0,1-.57.05l-14-8.08a.6.6,0,0,1-.24-.55A1.83,1.83,0,0,1,103,41Z"/><path class="cls-32" d="M116.16,50.45c0,.52.35.75.81.49a1.78,1.78,0,0,0,.83-1.41c0-.52-.35-.75-.81-.49A1.78,1.78,0,0,0,116.16,50.45Zm.41-.23a.91.91,0,0,1,.42-.71c.22-.12.4,0,.4.25a.91.91,0,0,1-.42.71A.25.25,0,0,1,116.57,50.22Z"/><path class="cls-63" d="M117.45,49.78c.23-.12.41,0,.41.25a.92.92,0,0,1-.42.71c-.23.12-.41,0-.4-.25A.92.92,0,0,1,117.45,49.78Z"/><path class="cls-64" d="M117,49.51a.29.29,0,0,1,.28,0l.47.27a.3.3,0,0,0-.29,0,.92.92,0,0,0-.41.71.26.26,0,0,0,.12.27l-.47-.27a.28.28,0,0,1-.12-.27A.91.91,0,0,1,117,49.51Z"/></g><g class="cls-6"><polygon class="cls-31" points="101.31 41.53 101.75 41.27 101.75 44.73 101.31 44.98 101.31 41.53"/><path class="cls-33" d="M102.64,41.28a2.31,2.31,0,0,0-.25.36l-1.53-.88.44-.26Z"/><polygon class="cls-33" points="101.75 44.73 118.18 54.2 117.75 54.46 101.31 44.98 101.75 44.73"/><polygon class="cls-33" points="117.62 49.91 118.63 50.5 118.19 50.75 117.18 50.16 117.62 49.91"/><polygon class="cls-31" points="118.19 50.75 118.19 55.22 118.62 54.97 118.63 50.5 118.19 50.75"/><path class="cls-32" d="M118.19,50.75v4.47l-17.32-10V40.76l1.53.88a2.41,2.41,0,0,0-.16.42l-.92-.53V45l16.43,9.47V51l-.48-.28-.08,0v-.51l.36.21Z"/></g><g class="cls-6"><polygon class="cls-32" points="100.94 45.17 100.94 45.69 117.35 55.16 117.35 54.64 100.94 45.17"/><polygon class="cls-31" points="117.35 54.64 117.35 55.16 117.73 54.94 117.74 54.42 117.35 54.64"/><polygon class="cls-33" points="101.33 44.94 100.94 45.17 117.35 54.64 117.74 54.42 101.33 44.94"/></g><g class="cls-6"><polygon class="cls-32" points="92.52 50.83 92.52 51.35 108.93 60.83 108.93 60.31 92.52 50.83"/><polygon class="cls-31" points="108.93 60.31 108.93 60.83 109.32 60.6 109.32 60.08 108.93 60.31"/><polygon class="cls-33" points="92.91 50.61 92.52 50.83 108.93 60.31 109.32 60.08 92.91 50.61"/></g><g class="cls-6"><path class="cls-65" d="M93.81,47.06a.6.6,0,0,1,.57-.05h0l14,8.09a.57.57,0,0,1,.24.54,1.79,1.79,0,0,1-.84,1.41.55.55,0,0,1-.57.05L93.22,49a.58.58,0,0,1-.24-.55A1.8,1.8,0,0,1,93.81,47.06Z"/><path class="cls-32" d="M106.94,56.56c0,.52.36.74.81.49a1.79,1.79,0,0,0,.84-1.41c0-.53-.36-.75-.81-.49A1.79,1.79,0,0,0,106.94,56.56Zm.41-.23a.92.92,0,0,1,.42-.71c.23-.12.41,0,.41.25a.94.94,0,0,1-.42.71C107.53,56.7,107.35,56.59,107.35,56.33Z"/><path class="cls-66" d="M108.24,55.89c.23-.12.41,0,.4.25a.92.92,0,0,1-.41.71c-.23.12-.41,0-.41-.25A.91.91,0,0,1,108.24,55.89Z"/><path class="cls-67" d="M107.77,55.62a.3.3,0,0,1,.29,0l.46.27a.29.29,0,0,0-.28,0,.91.91,0,0,0-.42.71.3.3,0,0,0,.12.27l-.47-.27a.3.3,0,0,1-.12-.27A.92.92,0,0,1,107.77,55.62Z"/></g><g class="cls-6"><polygon class="cls-31" points="92.1 47.64 92.53 47.38 92.53 50.84 92.1 51.09 92.1 47.64"/><path class="cls-33" d="M93.43,47.39a1.78,1.78,0,0,0-.25.36l-1.54-.88.44-.26Z"/><polygon class="cls-33" points="92.53 50.84 108.97 60.31 108.53 60.57 92.1 51.09 92.53 50.84"/><polygon class="cls-33" points="108.4 56.02 109.42 56.6 108.98 56.86 107.96 56.27 108.4 56.02"/><polygon class="cls-31" points="108.98 56.86 108.97 61.33 109.41 61.08 109.42 56.6 108.98 56.86"/><path class="cls-32" d="M109,56.86v4.47l-17.32-10V46.87l1.54.88a1.81,1.81,0,0,0-.16.42l-.93-.53v3.45l16.44,9.48V57.1l-.47-.27-.09-.06v-.5l.36.21Z"/></g><g class="cls-6"><polygon class="cls-32" points="91.72 51.28 91.72 51.8 108.13 61.27 108.14 60.75 91.72 51.28"/><polygon class="cls-31" points="108.14 60.75 108.13 61.27 108.52 61.05 108.52 60.53 108.14 60.75"/><polygon class="cls-33" points="92.11 51.05 91.72 51.28 108.14 60.75 108.52 60.53 92.11 51.05"/></g><g class="cls-6"><polygon class="cls-32" points="83.31 56.94 83.31 57.46 99.72 66.94 99.72 66.42 83.31 56.94"/><polygon class="cls-31" points="99.72 66.42 99.72 66.94 100.1 66.71 100.11 66.19 99.72 66.42"/><polygon class="cls-33" points="83.69 56.72 83.31 56.94 99.72 66.42 100.11 66.19 83.69 56.72"/></g><g class="cls-6"><path class="cls-68" d="M84.6,53.17a.59.59,0,0,1,.57-.05h0l14,8.09a.55.55,0,0,1,.24.54,1.78,1.78,0,0,1-.83,1.41.57.57,0,0,1-.57.05s-13.71-7.94-14-8.08a.6.6,0,0,1-.24-.55A1.81,1.81,0,0,1,84.6,53.17Z"/><path class="cls-32" d="M97.73,62.67c0,.52.35.74.81.49a1.78,1.78,0,0,0,.83-1.41c0-.53-.35-.75-.81-.5A1.82,1.82,0,0,0,97.73,62.67Zm.41-.23a.89.89,0,0,1,.42-.71c.22-.13.4,0,.4.25a.88.88,0,0,1-.42.7C98.32,62.81,98.14,62.7,98.14,62.44Z"/><path class="cls-69" d="M99,62c.23-.12.41,0,.41.25A.91.91,0,0,1,99,63c-.23.12-.41,0-.4-.25A.92.92,0,0,1,99,62Z"/><path class="cls-70" d="M98.56,61.73a.26.26,0,0,1,.28,0l.47.27A.3.3,0,0,0,99,62a.92.92,0,0,0-.41.71.28.28,0,0,0,.12.27l-.47-.27a.29.29,0,0,1-.12-.27A.89.89,0,0,1,98.56,61.73Z"/></g><g class="cls-6"><polygon class="cls-31" points="82.88 53.75 83.32 53.49 83.32 56.95 82.88 57.2 82.88 53.75"/><path class="cls-33" d="M84.21,53.5a2.31,2.31,0,0,0-.25.36L82.43,53l.44-.26Z"/><polygon class="cls-33" points="83.32 56.95 99.75 66.42 99.32 66.68 82.88 57.2 83.32 56.95"/><polygon class="cls-33" points="99.19 62.13 100.2 62.71 99.77 62.97 98.75 62.38 99.19 62.13"/><polygon class="cls-31" points="99.77 62.97 99.76 67.44 100.19 67.19 100.2 62.71 99.77 62.97"/><path class="cls-32" d="M99.76,63v4.47l-17.32-10V53l1.53.88a2.14,2.14,0,0,0-.16.42l-.92-.53V57.2l16.43,9.48V63.21l-.47-.27-.09-.06v-.5l.36.21Z"/></g><g class="cls-6"><polygon class="cls-32" points="82.51 57.39 82.51 57.91 98.92 67.38 98.92 66.86 82.51 57.39"/><polygon class="cls-31" points="98.92 66.86 98.92 67.38 99.31 67.16 99.31 66.64 98.92 66.86"/><polygon class="cls-33" points="82.9 57.16 82.51 57.39 98.92 66.86 99.31 66.64 82.9 57.16"/></g><g class="cls-6"><polygon class="cls-32" points="74.09 63.05 74.09 63.57 90.5 73.05 90.5 72.53 74.09 63.05"/><polygon class="cls-31" points="90.5 72.53 90.5 73.05 90.89 72.82 90.89 72.3 90.5 72.53"/><polygon class="cls-33" points="74.48 62.83 74.09 63.05 90.5 72.53 90.89 72.3 74.48 62.83"/></g><g class="cls-6"><path class="cls-71" d="M75.38,59.28a.6.6,0,0,1,.57-.05h0l14,8.08a.6.6,0,0,1,.24.55,1.81,1.81,0,0,1-.84,1.41.59.59,0,0,1-.57,0l-14-8.08a.58.58,0,0,1-.24-.55A1.78,1.78,0,0,1,75.38,59.28Z"/><path class="cls-32" d="M88.51,68.77c0,.53.36.75.81.5a1.81,1.81,0,0,0,.84-1.41c0-.53-.36-.75-.81-.5A1.83,1.83,0,0,0,88.51,68.77Zm.41-.22a.92.92,0,0,1,.42-.71c.23-.13.41,0,.41.25a.9.9,0,0,1-.42.7C89.1,68.92,88.92,68.81,88.92,68.55Z"/><path class="cls-72" d="M89.81,68.11c.23-.12.41,0,.4.25a.89.89,0,0,1-.41.7c-.23.13-.41,0-.41-.24A.92.92,0,0,1,89.81,68.11Z"/><path class="cls-73" d="M89.34,67.84a.28.28,0,0,1,.29,0l.46.27a.26.26,0,0,0-.28,0,.92.92,0,0,0-.42.71.3.3,0,0,0,.12.27L89,68.82a.32.32,0,0,1-.12-.27A.92.92,0,0,1,89.34,67.84Z"/></g><g class="cls-6"><polygon class="cls-31" points="73.67 59.86 74.11 59.6 74.11 63.06 73.67 63.31 73.67 59.86"/><path class="cls-33" d="M75,59.61a1.78,1.78,0,0,0-.25.36l-1.53-.88.43-.26Z"/><polygon class="cls-33" points="74.11 63.06 90.54 72.53 90.1 72.78 73.67 63.31 74.11 63.06"/><polygon class="cls-33" points="89.97 68.23 90.99 68.82 90.55 69.08 89.53 68.49 89.97 68.23"/><polygon class="cls-31" points="90.55 69.08 90.54 73.55 90.98 73.29 90.99 68.82 90.55 69.08"/><path class="cls-32" d="M90.55,69.08v4.47l-17.32-10V59.09l1.53.88a1.52,1.52,0,0,0-.16.42l-.92-.53v3.45L90.1,72.79V69.32L89.62,69,89.53,69v-.5l.36.21Z"/></g><g class="cls-6"><polygon class="cls-32" points="73.3 63.49 73.29 64.02 89.7 73.49 89.71 72.97 73.3 63.49"/><polygon class="cls-31" points="89.71 72.97 89.7 73.49 90.09 73.27 90.09 72.75 89.71 72.97"/><polygon class="cls-33" points="73.68 63.27 73.3 63.49 89.71 72.97 90.09 72.75 73.68 63.27"/></g><g class="cls-6"><polygon class="cls-32" points="64.88 69.27 64.88 69.79 81.29 79.27 81.29 78.75 64.88 69.27"/><polygon class="cls-31" points="81.29 78.75 81.29 79.27 81.67 79.04 81.68 78.52 81.29 78.75"/><polygon class="cls-33" points="65.27 69.05 64.88 69.27 81.29 78.75 81.68 78.52 65.27 69.05"/></g><g class="cls-6"><path class="cls-74" d="M66.17,65.5a.59.59,0,0,1,.57,0h0c1.48.87,14,8.09,14,8.09a.55.55,0,0,1,.24.54,1.78,1.78,0,0,1-.83,1.41.55.55,0,0,1-.57.05l-14-8.08a.6.6,0,0,1-.24-.55A1.83,1.83,0,0,1,66.17,65.5Z"/><path class="cls-32" d="M79.3,75c0,.52.36.75.81.49a1.78,1.78,0,0,0,.83-1.41c0-.53-.35-.75-.81-.49A1.81,1.81,0,0,0,79.3,75Zm.41-.23a.91.91,0,0,1,.42-.71.25.25,0,0,1,.4.25.92.92,0,0,1-.41.71C79.89,75.14,79.71,75,79.71,74.77Z"/><path class="cls-75" d="M80.59,74.33c.23-.12.41,0,.41.25a.91.91,0,0,1-.42.71.25.25,0,0,1-.4-.25A.92.92,0,0,1,80.59,74.33Z"/><path class="cls-76" d="M80.13,74.06a.29.29,0,0,1,.28,0l.47.27a.3.3,0,0,0-.29,0,.92.92,0,0,0-.41.71.28.28,0,0,0,.12.27L79.83,75a.28.28,0,0,1-.12-.27A.91.91,0,0,1,80.13,74.06Z"/></g><g class="cls-6"><polygon class="cls-31" points="64.45 66.08 64.89 65.82 64.89 69.28 64.45 69.53 64.45 66.08"/><path class="cls-33" d="M65.78,65.83a2.31,2.31,0,0,0-.25.36L64,65.31l.44-.26Z"/><polygon class="cls-33" points="64.89 69.28 81.33 78.75 80.89 79.01 64.45 69.53 64.89 69.28"/><polygon class="cls-33" points="80.76 74.46 81.78 75.05 81.34 75.3 80.32 74.71 80.76 74.46"/><polygon class="cls-31" points="81.34 75.3 81.33 79.77 81.77 79.52 81.78 75.05 81.34 75.3"/><path class="cls-32" d="M81.34,75.3v4.47L64,69.79V65.31l1.53.88a2.41,2.41,0,0,0-.16.42l-.92-.53v3.45L80.89,79V75.54l-.47-.27-.09,0v-.51l.36.21Z"/></g><g class="cls-6"><polygon class="cls-32" points="64.08 69.72 64.08 70.24 80.49 79.71 80.49 79.19 64.08 69.72"/><polygon class="cls-31" points="80.49 79.19 80.49 79.71 80.88 79.49 80.88 78.97 80.49 79.19"/><polygon class="cls-33" points="64.47 69.49 64.08 69.72 80.49 79.19 80.88 78.97 64.47 69.49"/></g><g class="cls-6"><polygon class="cls-32" points="55.66 75.24 55.66 75.76 72.07 85.23 72.08 84.71 55.66 75.24"/><polygon class="cls-31" points="72.08 84.71 72.07 85.23 72.46 85.01 72.46 84.49 72.08 84.71"/><polygon class="cls-33" points="56.05 75.01 55.66 75.24 72.08 84.71 72.46 84.49 56.05 75.01"/></g><g class="cls-6"><path class="cls-77" d="M57,71.47a.55.55,0,0,1,.57,0h0l14,8.08a.6.6,0,0,1,.24.54,1.83,1.83,0,0,1-.84,1.42.59.59,0,0,1-.57.05l-14-8.09a.58.58,0,0,1-.24-.54A1.81,1.81,0,0,1,57,71.47Z"/><path class="cls-32" d="M70.08,81c0,.53.36.75.81.5A1.83,1.83,0,0,0,71.73,80c0-.52-.36-.74-.81-.49A1.81,1.81,0,0,0,70.08,81Zm.42-.23a.89.89,0,0,1,.41-.7c.23-.13.41,0,.41.24a.92.92,0,0,1-.42.71C70.67,81.11,70.49,81,70.5,80.73Z"/><path class="cls-78" d="M71.38,80.3c.23-.13.41,0,.41.25a.9.9,0,0,1-.42.7c-.23.13-.41,0-.41-.25A.92.92,0,0,1,71.38,80.3Z"/><path class="cls-79" d="M70.91,80a.28.28,0,0,1,.29,0l.47.27a.31.31,0,0,0-.29,0A.92.92,0,0,0,71,81a.32.32,0,0,0,.12.28L70.62,81a.26.26,0,0,1-.12-.27A.89.89,0,0,1,70.91,80Z"/></g><g class="cls-6"><polygon class="cls-31" points="55.24 72.04 55.68 71.79 55.68 75.24 55.24 75.5 55.24 72.04"/><path class="cls-33" d="M56.57,71.79a1.6,1.6,0,0,0-.25.37l-1.53-.89.44-.25Z"/><polygon class="cls-33" points="55.68 75.24 72.11 84.72 71.67 84.97 55.24 75.5 55.68 75.24"/><polygon class="cls-33" points="71.54 80.42 72.56 81.01 72.12 81.27 71.11 80.67 71.54 80.42"/><polygon class="cls-31" points="72.12 81.27 72.11 85.73 72.55 85.48 72.56 81.01 72.12 81.27"/><path class="cls-32" d="M72.12,81.26v4.48l-17.32-10V71.27l1.53.89a1.59,1.59,0,0,0-.16.41L55.24,72V75.5L71.67,85V81.51l-.47-.28-.09,0v-.51l.36.21Z"/></g><g class="cls-6"><polygon class="cls-32" points="54.87 75.68 54.87 76.2 71.28 85.68 71.28 85.16 54.87 75.68"/><polygon class="cls-31" points="71.28 85.16 71.28 85.68 71.66 85.45 71.66 84.93 71.28 85.16"/><polygon class="cls-33" points="55.25 75.46 54.87 75.68 71.28 85.16 71.66 84.93 55.25 75.46"/></g><g class="cls-6"><polygon class="cls-32" points="46.45 81.34 46.45 81.87 62.86 91.34 62.86 90.82 46.45 81.34"/><polygon class="cls-31" points="62.86 90.82 62.86 91.34 63.24 91.12 63.25 90.59 62.86 90.82"/><polygon class="cls-33" points="46.84 81.12 46.45 81.34 62.86 90.82 63.25 90.59 46.84 81.12"/></g><g class="cls-6"><path class="cls-80" d="M47.74,77.58a.55.55,0,0,1,.57,0h0l14,8.08a.56.56,0,0,1,.24.54,1.82,1.82,0,0,1-.83,1.42.56.56,0,0,1-.57,0l-14-8.08A.6.6,0,0,1,46.9,79,1.79,1.79,0,0,1,47.74,77.58Z"/><path class="cls-32" d="M60.87,87.07c0,.53.36.75.81.5a1.82,1.82,0,0,0,.83-1.42c0-.52-.35-.74-.81-.49A1.81,1.81,0,0,0,60.87,87.07Zm.41-.23a.88.88,0,0,1,.42-.7c.22-.13.41,0,.4.24a.91.91,0,0,1-.41.71C61.46,87.22,61.28,87.1,61.28,86.84Z"/><path class="cls-81" d="M62.17,86.41c.22-.13.4,0,.4.24a.89.89,0,0,1-.42.71c-.22.13-.4,0-.4-.25A.88.88,0,0,1,62.17,86.41Z"/><path class="cls-82" d="M61.7,86.14a.27.27,0,0,1,.28,0l.47.27a.29.29,0,0,0-.28,0,.88.88,0,0,0-.42.7.3.3,0,0,0,.12.28l-.47-.28a.29.29,0,0,1-.12-.27A.88.88,0,0,1,61.7,86.14Z"/></g><g class="cls-6"><polygon class="cls-31" points="46.02 78.15 46.46 77.9 46.46 81.35 46.02 81.61 46.02 78.15"/><path class="cls-33" d="M47.35,77.9a2.31,2.31,0,0,0-.25.36l-1.53-.88.44-.25Z"/><polygon class="cls-33" points="46.46 81.35 62.9 90.83 62.46 91.08 46.02 81.61 46.46 81.35"/><polygon class="cls-33" points="62.33 86.53 63.34 87.12 62.91 87.37 61.89 86.78 62.33 86.53"/><polygon class="cls-31" points="62.91 87.37 62.9 91.84 63.34 91.59 63.35 87.12 62.91 87.37"/><path class="cls-32" d="M62.91,87.37v4.48l-17.32-10V77.38l1.53.88a3.61,3.61,0,0,0-.16.42L46,78.15v3.46l16.44,9.47V87.62L62,87.34l-.09,0v-.51l.36.21Z"/></g><g class="cls-6"><polygon class="cls-32" points="45.65 81.79 45.65 82.31 62.06 91.79 62.06 91.27 45.65 81.79"/><polygon class="cls-31" points="62.06 91.27 62.06 91.79 62.45 91.56 62.45 91.04 62.06 91.27"/><polygon class="cls-33" points="46.04 81.57 45.65 81.79 62.06 91.27 62.45 91.04 46.04 81.57"/></g><g class="cls-6"><polygon class="cls-32" points="37.23 87.45 37.23 87.97 53.64 97.45 53.65 96.93 37.23 87.45"/><polygon class="cls-31" points="53.65 96.93 53.64 97.45 54.03 97.22 54.03 96.7 53.65 96.93"/><polygon class="cls-33" points="37.62 87.23 37.23 87.45 53.65 96.93 54.03 96.7 37.62 87.23"/></g><g class="cls-6"><path class="cls-83" d="M38.52,83.68a.6.6,0,0,1,.57-.05h0l14,8.09a.6.6,0,0,1,.24.54,1.81,1.81,0,0,1-.83,1.41.55.55,0,0,1-.57,0l-14-8.08a.6.6,0,0,1-.24-.54A1.84,1.84,0,0,1,38.52,83.68Z"/><path class="cls-32" d="M51.66,93.18c0,.53.35.75.81.49a1.81,1.81,0,0,0,.83-1.41c0-.52-.36-.75-.81-.49A1.78,1.78,0,0,0,51.66,93.18Zm.41-.23a.92.92,0,0,1,.41-.71c.23-.12.41,0,.41.25a.89.89,0,0,1-.42.71C52.24,93.32,52.06,93.21,52.07,93Z"/><path class="cls-84" d="M53,92.52c.23-.13.41,0,.41.24a.92.92,0,0,1-.42.71c-.23.13-.41,0-.41-.25A.9.9,0,0,1,53,92.52Z"/><path class="cls-85" d="M52.48,92.24a.3.3,0,0,1,.29,0l.47.27a.28.28,0,0,0-.29,0,.9.9,0,0,0-.42.7.29.29,0,0,0,.12.27l-.46-.27a.26.26,0,0,1-.12-.27A.92.92,0,0,1,52.48,92.24Z"/></g><g class="cls-6"><polygon class="cls-31" points="36.81 84.26 37.25 84.01 37.25 87.46 36.81 87.72 36.81 84.26"/><path class="cls-33" d="M38.14,84a1.78,1.78,0,0,0-.25.36l-1.53-.88.44-.25Z"/><polygon class="cls-33" points="37.25 87.46 53.68 96.94 53.24 97.19 36.81 87.72 37.25 87.46"/><polygon class="cls-33" points="53.12 92.64 54.13 93.23 53.69 93.48 52.68 92.89 53.12 92.64"/><polygon class="cls-31" points="53.69 93.48 53.68 97.95 54.12 97.7 54.13 93.23 53.69 93.48"/><path class="cls-32" d="M53.69,93.48V98L36.36,88V83.49l1.53.88a2.41,2.41,0,0,0-.16.42l-.92-.53v3.46l16.43,9.47V93.73l-.47-.28-.09,0v-.51l.36.21Z"/></g><g class="cls-6"><polygon class="cls-32" points="36.44 87.9 36.44 88.42 52.85 97.89 52.85 97.38 36.44 87.9"/><polygon class="cls-31" points="52.85 97.38 52.85 97.89 53.23 97.67 53.23 97.15 52.85 97.38"/><polygon class="cls-33" points="36.82 87.67 36.44 87.9 52.85 97.38 53.23 97.15 36.82 87.67"/></g><g class="cls-6"><polygon class="cls-32" points="28.02 93.56 28.02 94.08 44.43 103.56 44.43 103.04 28.02 93.56"/><polygon class="cls-31" points="44.43 103.04 44.43 103.56 44.82 103.33 44.82 102.81 44.43 103.04"/><polygon class="cls-33" points="28.41 93.34 28.02 93.56 44.43 103.04 44.82 102.81 28.41 93.34"/></g><g class="cls-6"><path class="cls-86" d="M29.31,89.79a.59.59,0,0,1,.57-.05h0l14,8.09a.58.58,0,0,1,.24.54,1.79,1.79,0,0,1-.84,1.41.55.55,0,0,1-.57,0l-14-8.08a.56.56,0,0,1-.24-.55A1.81,1.81,0,0,1,29.31,89.79Z"/><path class="cls-32" d="M42.44,99.29c0,.52.36.75.81.49a1.79,1.79,0,0,0,.84-1.41c0-.52-.36-.75-.82-.49A1.81,1.81,0,0,0,42.44,99.29Zm.41-.23a.94.94,0,0,1,.42-.71c.23-.12.41,0,.4.25a.92.92,0,0,1-.41.71C43,99.43,42.85,99.32,42.85,99.06Z"/><path class="cls-87" d="M43.74,98.63c.22-.13.41,0,.4.24a.89.89,0,0,1-.42.71c-.22.12-.4,0-.4-.25A.88.88,0,0,1,43.74,98.63Z"/><path class="cls-88" d="M43.27,98.35a.29.29,0,0,1,.28,0l.47.27a.27.27,0,0,0-.28,0,.88.88,0,0,0-.42.7.28.28,0,0,0,.12.27L43,99.33a.3.3,0,0,1-.12-.27A.94.94,0,0,1,43.27,98.35Z"/></g><g class="cls-6"><polygon class="cls-31" points="27.59 90.37 28.03 90.11 28.03 93.57 27.59 93.82 27.59 90.37"/><path class="cls-33" d="M28.92,90.12a2.25,2.25,0,0,0-.24.36l-1.54-.88.44-.26Z"/><polygon class="cls-33" points="28.03 93.57 44.47 103.04 44.03 103.3 27.59 93.82 28.03 93.57"/><polygon class="cls-33" points="43.9 98.75 44.92 99.34 44.48 99.59 43.46 99 43.9 98.75"/><polygon class="cls-31" points="44.48 99.59 44.47 104.06 44.91 103.81 44.92 99.34 44.48 99.59"/><path class="cls-32" d="M44.48,99.59v4.47l-17.32-10V89.6l1.54.88a2.47,2.47,0,0,0-.17.42l-.92-.53v3.46L44,103.3V99.84l-.47-.28-.09,0V99l.36.21Z"/></g><g class="cls-6"><polygon class="cls-32" points="27.22 94.01 27.22 94.53 43.63 104 43.63 103.48 27.22 94.01"/><polygon class="cls-31" points="43.63 103.48 43.63 104 44.02 103.78 44.02 103.26 43.63 103.48"/><polygon class="cls-33" points="27.61 93.78 27.22 94.01 43.63 103.48 44.02 103.26 27.61 93.78"/></g><g class="cls-6"><polygon class="cls-32" points="18.81 99.67 18.8 100.19 35.22 109.67 35.22 109.15 18.81 99.67"/><polygon class="cls-31" points="35.22 109.15 35.22 109.67 35.6 109.44 35.6 108.92 35.22 109.15"/><polygon class="cls-33" points="19.19 99.45 18.81 99.67 35.22 109.15 35.6 108.92 19.19 99.45"/></g><g class="cls-6"><path class="cls-89" d="M20.09,95.9a.62.62,0,0,1,.58-.05h0c1.48.87,14,8.09,14,8.09a.57.57,0,0,1,.24.54,1.81,1.81,0,0,1-.83,1.41.55.55,0,0,1-.57,0l-14-8.08a.6.6,0,0,1-.24-.55A1.84,1.84,0,0,1,20.09,95.9Z"/><path class="cls-32" d="M33.23,105.4c0,.52.35.75.81.49a1.81,1.81,0,0,0,.83-1.41c0-.53-.36-.75-.81-.49A1.78,1.78,0,0,0,33.23,105.4Zm.41-.23a.91.91,0,0,1,.41-.71c.23-.12.41,0,.41.25a.91.91,0,0,1-.42.71A.25.25,0,0,1,33.64,105.17Z"/><path class="cls-90" d="M34.52,104.73c.23-.12.41,0,.41.25a.94.94,0,0,1-.42.71c-.23.12-.41,0-.4-.25A.92.92,0,0,1,34.52,104.73Z"/><path class="cls-91" d="M34.05,104.46a.3.3,0,0,1,.29,0l.47.27a.3.3,0,0,0-.29,0,.92.92,0,0,0-.41.71.26.26,0,0,0,.12.27l-.47-.27a.28.28,0,0,1-.12-.27A.91.91,0,0,1,34.05,104.46Z"/></g><g class="cls-6"><polygon class="cls-31" points="18.38 96.48 18.82 96.22 18.82 99.68 18.38 99.93 18.38 96.48"/><path class="cls-33" d="M19.71,96.23a1.78,1.78,0,0,0-.25.36l-1.53-.88.44-.26Z"/><polygon class="cls-33" points="18.82 99.68 35.25 109.15 34.81 109.41 18.38 99.93 18.82 99.68"/><polygon class="cls-33" points="34.69 104.86 35.7 105.44 35.26 105.7 34.25 105.11 34.69 104.86"/><polygon class="cls-31" points="35.26 105.7 35.25 110.17 35.69 109.92 35.7 105.44 35.26 105.7"/><path class="cls-32" d="M35.26,105.7v4.47l-17.32-10V95.71l1.53.88a2.41,2.41,0,0,0-.16.42l-.92-.53v3.45l16.43,9.48v-3.47l-.48-.27-.08,0v-.51l.35.21Z"/></g><g class="cls-6"><polygon class="cls-32" points="18.01 100.12 18.01 100.64 34.42 110.11 34.42 109.59 18.01 100.12"/><polygon class="cls-31" points="34.42 109.59 34.42 110.11 34.8 109.89 34.81 109.37 34.42 109.59"/><polygon class="cls-33" points="18.39 99.89 18.01 100.12 34.42 109.59 34.81 109.37 18.39 99.89"/></g><g class="cls-6"><polygon class="cls-31" points="18.77 122.59 18.76 119.9 148.25 34.17 148.26 36.85 18.77 122.59"/><polygon class="cls-92" points="148.25 34.17 147.73 33.87 147.74 36.55 148.26 36.85 148.25 34.17"/><polygon class="cls-33" points="147.74 36.55 18.25 122.29 18.77 122.59 148.26 36.85 147.74 36.55"/><path class="cls-93" d="M148.51,33.72l-130,86V123l130-86ZM18.77,122.59V119.9L148.25,34.17v2.68Z"/><polygon class="cls-33" points="147.99 33.42 17.99 119.45 18.5 119.75 148.51 33.72 147.99 33.42"/><polygon class="cls-32" points="18.5 119.75 17.99 119.45 18 122.73 18.51 123.03 18.5 119.75"/></g><g class="cls-6"><path class="cls-94" d="M149.36,35.08c-.85-.49-2.21.25-3,1.63l-4.52,7.53c-.83,1.38-.82,2.9,0,3.38s2.21-.25,3-1.64l4.52-7.52C150.21,37.07,150.21,35.56,149.36,35.08Z"/><path class="cls-95" d="M148.4,34.48l0,0c-.85-.48-2.21.25-3,1.64l-4.52,7.52C140,45,140,46.48,140.8,47l1,.62c-.81-.5-.81-2,0-3.36l4.52-7.53c.83-1.38,2.19-2.12,3-1.63l0,0Z"/></g><polygon class="cls-96" points="135.43 37.5 33.97 104.63 16.95 94.74 118.42 27.62 135.43 37.5"/><polygon class="cls-97" points="33.97 104.63 18.61 117.82 1.6 107.94 16.95 94.74 33.97 104.63"/><path class="cls-98" d="M129.2,24h0a1.11,1.11,0,0,0-.72.09l-10.06,3.53,17,9.88L145.5,34a1,1,0,0,1,.87,0Z"/><path class="cls-99" d="M17.23,120.45a1.81,1.81,0,0,0,.15.78L.51,111.43h0a.79.79,0,0,1-.3-.77,3.64,3.64,0,0,1,1.39-2.71l17,9.88A3.71,3.71,0,0,0,17.23,120.45Z"/></g></g></g></svg>