<svg xmlns="http://www.w3.org/2000/svg" xmlns:xlink="http://www.w3.org/1999/xlink" viewBox="0 0 150 150"><defs><style>.cls-1,.cls-2{fill:none;}.cls-2{stroke:#fff;stroke-miterlimit:10;stroke-width:0.1px;}.cls-3{opacity:0;}.cls-4{fill:#000714;}.cls-5{opacity:0.1;fill:url(#新建图案);}.cls-6{isolation:isolate;}.cls-7{fill:#7696cb;}.cls-8{fill:#5d779e;}.cls-9{fill:url(#未命名的渐变_163);}.cls-10{fill:#4e5f79;}.cls-11{fill:#171d23;}.cls-12{fill:url(#未命名的渐变_163-2);}.cls-13{fill:#191d26;}.cls-14{fill:url(#未命名的渐变_118);}.cls-15{fill:url(#未命名的渐变_171);}.cls-16{fill:url(#未命名的渐变_272);}.cls-17{fill:url(#未命名的渐变_118-2);}.cls-18{fill:url(#未命名的渐变_171-2);}.cls-19{fill:#fff;}.cls-20{fill:url(#未命名的渐变_4);}.cls-21{fill:url(#未命名的渐变_497);}.cls-22{fill:url(#未命名的渐变_163-3);}.cls-23{fill:url(#未命名的渐变_118-3);}.cls-24{fill:url(#未命名的渐变_171-3);}.cls-25{fill:url(#未命名的渐变_272-2);}.cls-26{fill:url(#未命名的渐变_118-4);}.cls-27{fill:url(#未命名的渐变_171-4);}.cls-28{fill:url(#未命名的渐变_4-2);}.cls-29{fill:url(#未命名的渐变_497-2);}.cls-30{fill:url(#未命名的渐变_163-4);}.cls-31{fill:#627da6;}.cls-32{fill:url(#未命名的渐变_163-5);}.cls-33{fill:url(#未命名的渐变_497-3);}.cls-34{fill:url(#未命名的渐变_118-5);}.cls-35{fill:url(#未命名的渐变_4-3);}.cls-36{fill:#868686;}.cls-37{fill:#85a9e5;}.cls-38{fill:url(#未命名的渐变_497-4);}.cls-39{fill:url(#未命名的渐变_118-6);}.cls-40{fill:url(#未命名的渐变_4-4);}.cls-41{fill:url(#未命名的渐变_497-5);}.cls-42{fill:url(#未命名的渐变_118-7);}.cls-43{fill:url(#未命名的渐变_4-5);}.cls-44{fill:url(#未命名的渐变_497-6);}.cls-45{fill:url(#未命名的渐变_118-8);}.cls-46{fill:url(#未命名的渐变_4-6);}.cls-47{fill:url(#未命名的渐变_497-7);}.cls-48{fill:url(#未命名的渐变_118-9);}.cls-49{fill:url(#未命名的渐变_4-7);}.cls-50{fill:#212733;}.cls-51{fill:url(#未命名的渐变_340);}.cls-52{fill:url(#未命名的渐变_302);}.cls-53{opacity:0.2;}</style><pattern id="新建图案" data-name="新建图案" width="18.57" height="32.16" patternTransform="translate(1931.99 952.58)" patternUnits="userSpaceOnUse" viewBox="0 0 18.57 32.16"><rect class="cls-1" width="18.57" height="32.16"/><polyline class="cls-2" points="18.57 21.44 18.57 32.16 18.57 42.88"/><polyline class="cls-2" points="9.29 26.8 18.57 32.16 27.85 37.51 27.85 37.52"/><polyline class="cls-2" points="9.29 37.52 9.29 37.51 18.57 32.16 27.85 26.8"/><polygon class="cls-2" points="27.85 37.52 27.85 26.8 18.57 21.44 9.28 26.8 9.28 37.52 18.57 42.88 27.85 37.52"/><polyline class="cls-2" points="0 21.44 0 32.16 0 42.88"/><polyline class="cls-2" points="-9.28 26.8 0 32.16 9.28 37.51 9.28 37.52"/><polyline class="cls-2" points="-9.28 37.52 -9.28 37.51 0 32.16 9.28 26.8"/><polygon class="cls-2" points="9.28 37.52 9.28 26.8 0 21.44 -9.29 26.8 -9.29 37.52 0 42.88 9.28 37.52"/><polyline class="cls-2" points="18.57 10.72 27.85 16.08 37.13 21.43 37.13 21.44"/><polyline class="cls-2" points="18.57 21.44 18.57 21.43 27.85 16.08 37.13 10.72"/><polygon class="cls-2" points="37.14 21.44 37.14 10.72 27.85 5.36 18.57 10.72 18.57 21.44 27.85 26.8 37.14 21.44"/><polyline class="cls-2" points="9.29 5.36 9.29 16.08 9.29 26.8"/><polyline class="cls-2" points="0.01 10.72 9.29 16.08 18.57 21.43 18.57 21.44"/><polyline class="cls-2" points="0.01 21.44 0.01 21.43 9.29 16.08 18.57 10.72"/><polygon class="cls-2" points="18.57 21.44 18.57 10.72 9.28 5.36 0 10.72 0 21.44 9.28 26.8 18.57 21.44"/><polyline class="cls-2" points="-18.56 10.72 -9.28 16.08 0 21.43 0 21.44"/><polyline class="cls-2" points="-18.56 21.44 -18.56 21.43 -9.28 16.08 0 10.72"/><polygon class="cls-2" points="0 21.44 0 10.72 -9.29 5.36 -18.57 10.72 -18.57 21.44 -9.29 26.8 0 21.44"/><polyline class="cls-2" points="18.57 -10.72 18.57 0 18.57 10.72"/><polyline class="cls-2" points="9.29 -5.36 18.57 0 27.85 5.35 27.85 5.36"/><polyline class="cls-2" points="9.29 5.36 9.29 5.35 18.57 0 27.85 -5.36"/><polygon class="cls-2" points="27.85 5.36 27.85 -5.36 18.57 -10.72 9.28 -5.36 9.28 5.36 18.57 10.72 27.85 5.36"/><polyline class="cls-2" points="0 -10.72 0 0 0 10.72"/><polyline class="cls-2" points="-9.28 -5.36 0 0 9.28 5.35 9.28 5.36"/><polyline class="cls-2" points="-9.28 5.36 -9.28 5.35 0 0 9.28 -5.36"/><polygon class="cls-2" points="9.28 5.36 9.28 -5.36 0 -10.72 -9.29 -5.36 -9.29 5.36 0 10.72 9.28 5.36"/></pattern><linearGradient id="未命名的渐变_163" x1="138.42" y1="85.83" x2="137.34" y2="83.95" gradientUnits="userSpaceOnUse"><stop offset="0" stop-color="#51688a"/><stop offset="0.55" stop-color="#7696cb"/><stop offset="0.65" stop-color="#7696cb"/><stop offset="1" stop-color="#6f8dbe"/></linearGradient><linearGradient id="未命名的渐变_163-2" x1="140.97" y1="87.41" x2="139.88" y2="85.54" xlink:href="#未命名的渐变_163"/><linearGradient id="未命名的渐变_118" x1="115.96" y1="113.97" x2="104.43" y2="102.44" gradientUnits="userSpaceOnUse"><stop offset="0" stop-color="#2f77eb"/><stop offset="1" stop-color="#59c8ff"/></linearGradient><linearGradient id="未命名的渐变_171" x1="114.1" y1="113.73" x2="107.36" y2="102.07" gradientUnits="userSpaceOnUse"><stop offset="0" stop-color="#0073e6"/><stop offset="0.15" stop-color="#1433cc"/><stop offset="0.45" stop-color="#59c8ff"/><stop offset="0.85" stop-color="#59c8ff"/><stop offset="1" stop-color="#0073e6"/></linearGradient><linearGradient id="未命名的渐变_272" x1="113.37" y1="112.8" x2="105.23" y2="104.66" xlink:href="#未命名的渐变_118"/><linearGradient id="未命名的渐变_118-2" x1="110.05" y1="110.86" x2="106.8" y2="107.61" xlink:href="#未命名的渐变_118"/><linearGradient id="未命名的渐变_171-2" x1="111" y1="111.53" x2="107.73" y2="105.85" xlink:href="#未命名的渐变_171"/><linearGradient id="未命名的渐变_4" x1="107.92" y1="110.79" x2="106.84" y2="108.91" gradientUnits="userSpaceOnUse"><stop offset="0" stop-color="#0073e6"/><stop offset="0.15" stop-color="#1433cc"/><stop offset="0.75" stop-color="#59c8ff"/><stop offset="0.85" stop-color="#59c8ff"/><stop offset="1" stop-color="#0073e6"/></linearGradient><linearGradient id="未命名的渐变_497" x1="133.42" y1="104.43" x2="125.03" y2="89.89" gradientUnits="userSpaceOnUse"><stop offset="0" stop-color="#283140"/><stop offset="0.1" stop-color="#12161a"/><stop offset="0.75" stop-color="#7a98cc"/><stop offset="0.85" stop-color="#7a98cc"/><stop offset="1" stop-color="#38455a"/></linearGradient><linearGradient id="未命名的渐变_163-3" x1="46.52" y1="32.73" x2="45.44" y2="30.85" xlink:href="#未命名的渐变_163"/><linearGradient id="未命名的渐变_118-3" x1="21.52" y1="59.29" x2="9.99" y2="47.76" xlink:href="#未命名的渐变_118"/><linearGradient id="未命名的渐变_171-3" x1="19.66" y1="59.05" x2="12.92" y2="47.38" xlink:href="#未命名的渐变_171"/><linearGradient id="未命名的渐变_272-2" x1="18.92" y1="58.12" x2="10.78" y2="49.97" xlink:href="#未命名的渐变_118"/><linearGradient id="未命名的渐变_118-4" x1="15.6" y1="56.18" x2="12.35" y2="52.93" xlink:href="#未命名的渐变_118"/><linearGradient id="未命名的渐变_171-4" x1="16.56" y1="56.84" x2="13.28" y2="51.17" xlink:href="#未命名的渐变_171"/><linearGradient id="未命名的渐变_4-2" x1="13.48" y1="56.1" x2="12.39" y2="54.22" xlink:href="#未命名的渐变_4"/><linearGradient id="未命名的渐变_497-2" x1="38.97" y1="49.74" x2="30.58" y2="35.21" xlink:href="#未命名的渐变_497"/><linearGradient id="未命名的渐变_163-4" x1="9.75" y1="53.96" x2="8.67" y2="52.08" xlink:href="#未命名的渐变_163"/><linearGradient id="未命名的渐变_163-5" x1="104.2" y1="108.64" x2="103.11" y2="106.77" xlink:href="#未命名的渐变_163"/><linearGradient id="未命名的渐变_497-3" x1="104.09" y1="82.47" x2="100.89" y2="76.92" xlink:href="#未命名的渐变_497"/><linearGradient id="未命名的渐变_118-5" x1="90.77" y1="88.24" x2="88.58" y2="86.05" xlink:href="#未命名的渐变_118"/><linearGradient id="未命名的渐变_4-3" x1="91.5" y1="87.92" x2="89.91" y2="85.17" xlink:href="#未命名的渐变_4"/><linearGradient id="未命名的渐变_497-4" x1="90.72" y1="74.76" x2="87.52" y2="69.2" xlink:href="#未命名的渐变_497"/><linearGradient id="未命名的渐变_118-6" x1="77.4" y1="80.53" x2="75.2" y2="78.34" xlink:href="#未命名的渐变_118"/><linearGradient id="未命名的渐变_4-4" x1="78.13" y1="80.21" x2="76.54" y2="77.46" xlink:href="#未命名的渐变_4"/><linearGradient id="未命名的渐变_497-5" x1="76.7" y1="66.54" x2="73.49" y2="60.99" xlink:href="#未命名的渐变_497"/><linearGradient id="未命名的渐变_118-7" x1="63.37" y1="72.31" x2="61.18" y2="70.12" xlink:href="#未命名的渐变_118"/><linearGradient id="未命名的渐变_4-5" x1="64.1" y1="71.99" x2="62.52" y2="69.24" xlink:href="#未命名的渐变_4"/><linearGradient id="未命名的渐变_497-6" x1="63.06" y1="58.64" x2="59.85" y2="53.09" xlink:href="#未命名的渐变_497"/><linearGradient id="未命名的渐变_118-8" x1="49.73" y1="64.41" x2="47.54" y2="62.22" xlink:href="#未命名的渐变_118"/><linearGradient id="未命名的渐变_4-6" x1="50.46" y1="64.09" x2="48.88" y2="61.34" xlink:href="#未命名的渐变_4"/><linearGradient id="未命名的渐变_497-7" x1="49.43" y1="50.78" x2="46.23" y2="45.23" xlink:href="#未命名的渐变_497"/><linearGradient id="未命名的渐变_118-9" x1="36.11" y1="56.55" x2="33.91" y2="54.36" xlink:href="#未命名的渐变_118"/><linearGradient id="未命名的渐变_4-7" x1="36.84" y1="56.23" x2="35.25" y2="53.48" xlink:href="#未命名的渐变_4"/><linearGradient id="未命名的渐变_340" x1="31.31" y1="37.75" x2="30.04" y2="35.56" gradientUnits="userSpaceOnUse"><stop offset="0" stop-color="#191d26"/><stop offset="0.47" stop-color="#1e232e"/><stop offset="1" stop-color="#14171f"/></linearGradient><linearGradient id="未命名的渐变_302" x1="133.9" y1="104.18" x2="127.01" y2="92.25" gradientUnits="userSpaceOnUse"><stop offset="0" stop-color="#212733"/><stop offset="0.38" stop-color="#13161d"/><stop offset="1" stop-color="#1d212b"/></linearGradient></defs><title>皮带机</title><g id="图层_2" data-name="图层 2"><g id="图元"><g id="皮带机"><g class="cls-3"><rect class="cls-4" width="150" height="150"/><rect id="网格" class="cls-5" width="150" height="150"/></g><g class="cls-6"><polygon class="cls-7" points="133.52 85.78 128.73 88.56 131.29 90.04 136.09 87.26 133.52 85.78"/><polygon class="cls-8" points="141.21 84.2 136.42 86.98 139.42 94.74 144.22 91.95 141.21 84.2"/><path class="cls-9" d="M140.17,82.9a.85.85,0,0,0-.86-.08l-4.79,2.78a.88.88,0,0,1,.86.09,2.59,2.59,0,0,1,1,1.3l4.79-2.79A2.58,2.58,0,0,0,140.17,82.9Z"/><path class="cls-10" d="M139.42,94.74l-3-7.75a2.59,2.59,0,0,0-1-1.3c-.41-.23-.82-.24-1,.09l-3,4.26-2.56-1.48V91L142,98.62v-2.4Z"/><polygon class="cls-7" points="144.22 91.95 139.42 94.74 141.99 96.22 146.78 93.43 144.22 91.95"/><polygon class="cls-11" points="141.99 96.22 141.98 98.62 146.78 95.83 146.78 93.43 141.99 96.22"/></g><polygon class="cls-7" points="131.28 94.57 99.39 113.09 112.58 120.7 144.46 102.19 131.28 94.57"/><g class="cls-6"><polygon class="cls-10" points="149.12 97.99 135.81 90.27 135.82 92.17 149.12 99.89 149.12 97.99"/><polygon class="cls-11" points="149.41 97.47 144.51 100.3 144.52 102.55 144.82 102.37 144.82 100.47 149.12 97.99 149.12 99.89 149.42 99.72 149.41 97.47"/><polygon class="cls-10" points="144.51 100.3 131.21 92.58 131.22 94.83 144.52 102.55 144.51 100.3"/><polygon class="cls-7" points="136.11 89.75 131.21 92.58 144.51 100.3 149.41 97.47 136.11 89.75"/></g><g class="cls-6"><polygon class="cls-7" points="136.07 87.36 131.27 90.15 133.84 91.63 138.63 88.84 136.07 87.36"/><polygon class="cls-8" points="143.76 85.78 138.96 88.57 141.97 96.32 146.76 93.53 143.76 85.78"/><path class="cls-12" d="M142.72,84.49a.86.86,0,0,0-.86-.09l-4.8,2.79a.85.85,0,0,1,.86.08,2.58,2.58,0,0,1,1,1.3l4.8-2.79A2.61,2.61,0,0,0,142.72,84.49Z"/><path class="cls-10" d="M142,96.32l-3-7.75a2.58,2.58,0,0,0-1-1.3c-.41-.23-.81-.24-1,.09l-3,4.27-2.57-1.48v2.39l13.26,7.66V97.8Z"/><polygon class="cls-7" points="146.76 93.53 141.97 96.32 144.53 97.8 149.33 95.02 146.76 93.53"/><polygon class="cls-11" points="144.53 97.8 144.53 100.2 149.32 97.41 149.33 95.02 144.53 97.8"/></g><g class="cls-6"><polygon class="cls-10" points="131.08 92.96 131.07 95.04 143.95 102.47 143.96 100.39 131.08 92.96"/><polygon class="cls-11" points="99.92 111.06 99.91 113.14 131.07 95.04 131.08 92.96 99.92 111.06"/><path class="cls-7" d="M131.07,92.61,99.32,111.06l13.49,7.79,31.75-18.46ZM112.8,118.5l-12.88-7.44L131.08,93,144,100.39Z"/><polygon class="cls-11" points="112.81 118.85 112.8 120.93 144.56 102.47 144.56 100.39 112.81 118.85"/><polygon class="cls-10" points="99.32 111.06 99.31 113.14 112.8 120.93 112.81 118.85 99.32 111.06"/></g><polygon class="cls-13" points="45.17 42.87 15.72 59.99 113.24 116.29 142.69 99.17 45.17 42.87"/><g class="cls-6"><path class="cls-14" d="M110.11,101.35c-3.26-1.82-5.87-.22-5.83,3.56a13,13,0,0,0,6,10.15c3.27,1.82,5.88.23,5.83-3.56A13,13,0,0,0,110.11,101.35Zm.16,12.4a10.52,10.52,0,0,1-4.85-8.21c0-3.05,2.07-4.34,4.71-2.87a10.5,10.5,0,0,1,4.85,8.2C115,113.93,112.91,115.22,110.27,113.75Z"/><path class="cls-15" d="M110.13,102.67c-2.14-1.19-3.93-.57-4.51,1.33l0,.1,0,.06,0,.1,0,.11,0,0,0,.11,0,.1,0,.05,0,.11,0,.1,0,.06,0,.1c.51-1.66,2.07-2.2,3.94-1.16a9.19,9.19,0,0,1,4.23,7.17c0,2.21-1.22,3.36-3,3l1.08.24c2,.44,3.42-.87,3.39-3.4A10.5,10.5,0,0,0,110.13,102.67Z"/><path class="cls-16" d="M109.24,103.89c-2.31-1.28-4.15-.16-4.12,2.51a9.15,9.15,0,0,0,4.24,7.17c2.3,1.29,4.15.16,4.11-2.51A9.19,9.19,0,0,0,109.24,103.89Zm.09,7.54a5.14,5.14,0,0,1-2.36-4c0-1.49,1-2.12,2.29-1.4a5.09,5.09,0,0,1,2.36,4C111.64,111.51,110.61,112.14,109.33,111.43Z"/><path class="cls-17" d="M108.4,107.31c-.92-.52-1.66-.07-1.64,1a3.64,3.64,0,0,0,1.69,2.86c.92.51,1.65.07,1.64-1A3.64,3.64,0,0,0,108.4,107.31Zm0,2.82a1.68,1.68,0,0,1-.77-1.32c0-.49.33-.69.75-.46a1.69,1.69,0,0,1,.78,1.32C109.19,110.16,108.86,110.36,108.43,110.13Z"/><path class="cls-18" d="M109.26,106c-1.09-.61-2-.25-2.23.79-.08.35-.15.7-.23,1,.16-.75.81-1,1.6-.57a3.64,3.64,0,0,1,1.69,2.86c0,.92-.54,1.39-1.29,1.16l.1,0h0l.11,0,.1,0h0l.1,0,.1,0,.06,0,.1,0,.1,0,0,0,.1,0c1.05.32,1.82-.32,1.8-1.61A5.09,5.09,0,0,0,109.26,106Z"/><path class="cls-19" d="M105.78,109.88c-.42-.24-.76,0-.75.46a1.66,1.66,0,0,0,.78,1.31c.42.24.76,0,.75-.46A1.64,1.64,0,0,0,105.78,109.88Z"/><path class="cls-20" d="M108.41,108.35a.54.54,0,0,0-.53,0l-2.63,1.52a.52.52,0,0,1,.53,0,1.64,1.64,0,0,1,.78,1.31.55.55,0,0,1-.22.51l2.63-1.53a.53.53,0,0,0,.22-.5A1.69,1.69,0,0,0,108.41,108.35Z"/><path class="cls-21" d="M144,81.66a4.12,4.12,0,0,0-4.1-.35L106,101a4.12,4.12,0,0,1,4.1.35,13,13,0,0,1,6,10.15c0,1.93-.64,3.28-1.72,3.92l33.88-19.7c1.09-.63,1.75-2,1.73-3.91A13,13,0,0,0,144,81.66Z"/></g><g class="cls-6"><polygon class="cls-10" points="54.67 43.3 41.37 35.59 41.38 37.49 54.68 45.21 54.67 43.3"/><polygon class="cls-11" points="54.97 42.78 50.07 45.61 50.08 47.86 50.38 47.69 50.38 45.78 54.67 43.3 54.68 45.21 54.98 45.03 54.97 42.78"/><polygon class="cls-10" points="50.07 45.61 36.77 37.89 36.78 40.14 50.08 47.86 50.07 45.61"/><polygon class="cls-7" points="41.67 35.06 36.77 37.89 50.07 45.61 54.97 42.78 41.67 35.06"/></g><g class="cls-6"><polygon class="cls-7" points="41.62 32.67 36.83 35.46 39.39 36.94 44.19 34.15 41.62 32.67"/><polygon class="cls-8" points="49.31 31.09 44.52 33.88 47.52 41.63 52.32 38.85 49.31 31.09"/><path class="cls-22" d="M48.27,29.8a.88.88,0,0,0-.86-.09L42.62,32.5a.86.86,0,0,1,.86.09,2.61,2.61,0,0,1,1,1.29l4.79-2.78A2.54,2.54,0,0,0,48.27,29.8Z"/><path class="cls-10" d="M47.52,41.63l-3-7.75a2.61,2.61,0,0,0-1-1.29c-.41-.24-.82-.24-1,.09l-3,4.26-2.56-1.48v2.4l13.26,7.65V43.12Z"/><polygon class="cls-7" points="52.32 38.85 47.52 41.63 50.09 43.12 54.88 40.33 52.32 38.85"/><polygon class="cls-11" points="50.09 43.12 50.08 45.51 54.88 42.73 54.88 40.33 50.09 43.12"/></g><g class="cls-6"><polygon class="cls-10" points="36.63 38.27 36.63 40.35 49.51 47.79 49.51 45.71 36.63 38.27"/><polygon class="cls-11" points="5.47 56.38 5.47 58.46 36.63 40.35 36.63 38.27 5.47 56.38"/><path class="cls-7" d="M36.63,37.92,4.87,56.37l13.49,7.79L50.12,45.71ZM18.36,63.82,5.47,56.38,36.63,38.27l12.88,7.44Z"/><polygon class="cls-11" points="18.36 64.16 18.36 66.24 50.11 47.79 50.12 45.71 18.36 64.16"/><polygon class="cls-10" points="4.87 56.38 4.87 58.45 18.36 66.24 18.36 64.16 4.87 56.38"/></g><g class="cls-6"><path class="cls-23" d="M15.67,46.67c-3.27-1.82-5.88-.23-5.83,3.56a13,13,0,0,0,6,10.15c3.26,1.81,5.87.22,5.83-3.56A13,13,0,0,0,15.67,46.67Zm.15,12.39A10.46,10.46,0,0,1,11,50.86c0-3.06,2.07-4.35,4.71-2.88a10.46,10.46,0,0,1,4.84,8.2C20.57,59.24,18.46,60.53,15.82,59.06Z"/><path class="cls-24" d="M15.69,48c-2.14-1.19-3.93-.57-4.51,1.33l0,.11v0l0,.11,0,.1v0l0,.11,0,.1V50l0,.1,0,.11,0,0,0,.11c.51-1.67,2.08-2.21,3.94-1.17A9.18,9.18,0,0,1,19,56.37c0,2.21-1.23,3.36-3,3l1.08.24c2,.45,3.41-.87,3.38-3.4A10.46,10.46,0,0,0,15.69,48Z"/><path class="cls-25" d="M14.79,49.2c-2.3-1.28-4.15-.16-4.11,2.52a9.16,9.16,0,0,0,4.23,7.16c2.31,1.29,4.15.16,4.12-2.51A9.18,9.18,0,0,0,14.79,49.2Zm.1,7.54a5.1,5.1,0,0,1-2.36-4c0-1.49,1-2.11,2.29-1.4a5.13,5.13,0,0,1,2.36,4C17.2,56.83,16.17,57.45,14.89,56.74Z"/><path class="cls-26" d="M14,52.62c-.93-.51-1.66-.06-1.65,1A3.67,3.67,0,0,0,14,56.48c.92.52,1.66.07,1.65-1A3.67,3.67,0,0,0,14,52.62Zm0,2.82a1.7,1.7,0,0,1-.78-1.31c0-.49.34-.7.76-.46A1.65,1.65,0,0,1,14.74,55C14.75,55.47,14.41,55.68,14,55.44Z"/><path class="cls-27" d="M14.82,51.35c-1.09-.61-2-.24-2.23.8l-.24,1c.17-.75.82-1,1.61-.57a3.67,3.67,0,0,1,1.69,2.86c0,.93-.55,1.39-1.29,1.16l.1,0,0,0,.1,0,.1,0h.06l.1,0,.1,0h0l.1,0,.11,0h0l.1,0c1,.32,1.81-.32,1.8-1.61A5.13,5.13,0,0,0,14.82,51.35Z"/><path class="cls-19" d="M11.34,55.19c-.42-.23-.76,0-.75.46A1.68,1.68,0,0,0,11.36,57c.43.23.76,0,.76-.46A1.72,1.72,0,0,0,11.34,55.19Z"/><path class="cls-28" d="M14,53.67a.52.52,0,0,0-.53-.05l-2.63,1.53a.54.54,0,0,1,.53,0,1.72,1.72,0,0,1,.78,1.32.54.54,0,0,1-.23.5l2.63-1.52a.54.54,0,0,0,.22-.51A1.65,1.65,0,0,0,14,53.67Z"/><path class="cls-29" d="M49.56,27a4.14,4.14,0,0,0-4.11-.35L11.57,46.31c1-.61,2.49-.54,4.1.36a13,13,0,0,1,6,10.15c0,1.92-.64,3.28-1.73,3.91L53.83,41c1.09-.64,1.75-2,1.73-3.92A13,13,0,0,0,49.56,27Z"/></g><g class="cls-6"><polygon class="cls-10" points="17.9 64.53 4.6 56.82 4.61 58.72 17.91 66.44 17.9 64.53"/><polygon class="cls-11" points="18.2 64.01 13.3 66.84 13.31 69.09 13.61 68.92 13.61 67.01 17.9 64.53 17.91 66.44 18.21 66.26 18.2 64.01"/><polygon class="cls-10" points="13.3 66.84 0 59.12 0.01 61.38 13.31 69.09 13.3 66.84"/><polygon class="cls-7" points="4.9 56.29 0 59.12 13.3 66.84 18.2 64.01 4.9 56.29"/></g><g class="cls-6"><polygon class="cls-7" points="4.85 53.91 0.06 56.69 2.62 58.17 7.42 55.38 4.85 53.91"/><polygon class="cls-8" points="12.54 52.33 7.75 55.11 10.75 62.87 15.55 60.08 12.54 52.33"/><path class="cls-30" d="M11.5,51a.88.88,0,0,0-.86-.09L5.85,53.73a.86.86,0,0,1,.86.09,2.61,2.61,0,0,1,1,1.29l4.79-2.78A2.53,2.53,0,0,0,11.5,51Z"/><path class="cls-10" d="M10.75,62.87l-3-7.76a2.61,2.61,0,0,0-1-1.29c-.41-.24-.82-.24-1,.09l-3,4.26L.06,56.69v2.4l13.26,7.65V64.35Z"/><polygon class="cls-7" points="15.55 60.08 10.75 62.87 13.32 64.35 18.12 61.56 15.55 60.08"/><polygon class="cls-11" points="13.32 64.35 13.31 66.75 18.11 63.96 18.12 61.56 13.32 64.35"/></g><g class="cls-6"><polygon class="cls-31" points="20.21 64.06 17.81 65.45 27.42 82.1 29.82 80.71 20.21 64.06"/><polygon class="cls-11" points="28.66 71.72 28.63 82.81 31.03 81.42 31.06 70.32 28.66 71.72"/><polygon class="cls-7" points="31.03 81.42 28.63 82.81 41.05 89.98 43.45 88.59 31.03 81.42"/><polygon class="cls-11" points="42.28 79.58 42.25 90.68 44.65 89.28 44.68 78.19 42.28 79.58"/><polygon class="cls-7" points="44.65 89.28 42.25 90.68 54.68 97.85 57.08 96.46 44.65 89.28"/><polygon class="cls-11" points="55.92 87.45 55.88 98.55 58.28 97.15 58.31 86.06 55.92 87.45"/><polygon class="cls-7" points="58.28 97.15 55.88 98.55 68.3 105.72 70.7 104.32 58.28 97.15"/><polygon class="cls-11" points="69.54 95.32 69.51 106.41 71.91 105.02 71.94 93.92 69.54 95.32"/><polygon class="cls-7" points="71.91 105.02 69.51 106.41 81.94 113.59 84.33 112.19 71.91 105.02"/><polygon class="cls-11" points="83.17 103.19 83.14 114.28 85.54 112.89 85.57 101.79 83.17 103.19"/><polygon class="cls-7" points="85.54 112.89 83.14 114.28 92.95 119.95 95.35 118.55 85.54 112.89"/><polygon class="cls-7" points="17.3 60.99 14.9 62.38 94.19 108.16 96.59 106.77 17.3 60.99"/><path class="cls-10" d="M14.9,62.38l12,20.84L94.16,122l0-13.87ZM27.42,82.1,17.81,65.45,27.45,71ZM41.05,90,28.63,82.81l0-11.1,12.42,7.18Zm13.63,7.87L42.25,90.68l0-11.1,12.42,7.17Zm13.62,7.87L55.88,98.55l0-11.1,12.42,7.17Zm13.64,7.87-12.43-7.18,0-11.09L82,102.49ZM93,120l-9.81-5.67,0-11.09L93,108.85Z"/><polygon class="cls-11" points="94.19 108.16 94.16 122.03 96.55 120.64 96.59 106.77 94.19 108.16"/></g><g class="cls-6"><polygon class="cls-10" points="112.35 119.22 99.05 111.5 99.05 113.41 112.35 121.12 112.35 119.22"/><polygon class="cls-11" points="112.64 118.7 107.75 121.53 107.75 123.78 108.06 123.6 108.05 121.7 112.35 119.22 112.35 121.12 112.65 120.95 112.64 118.7"/><polygon class="cls-10" points="107.75 121.53 94.44 113.81 94.45 116.06 107.75 123.78 107.75 121.53"/><polygon class="cls-7" points="99.34 110.98 94.44 113.81 107.75 121.53 112.64 118.7 99.34 110.98"/></g><g class="cls-6"><polygon class="cls-7" points="99.3 108.59 94.5 111.38 97.07 112.86 101.86 110.07 99.3 108.59"/><polygon class="cls-8" points="106.99 107.01 102.19 109.8 105.19 117.55 109.99 114.77 106.99 107.01"/><path class="cls-32" d="M106,105.72a.86.86,0,0,0-.86-.09l-4.8,2.79a.85.85,0,0,1,.86.08,2.58,2.58,0,0,1,1,1.3L107,107A2.61,2.61,0,0,0,106,105.72Z"/><path class="cls-10" d="M105.2,117.55l-3-7.75a2.58,2.58,0,0,0-1-1.3c-.41-.23-.81-.23-1.05.09l-3,4.27-2.57-1.48v2.39l13.26,7.66V119Z"/><polygon class="cls-7" points="109.99 114.77 105.19 117.55 107.76 119.03 112.56 116.25 109.99 114.77"/><polygon class="cls-11" points="107.76 119.03 107.76 121.43 112.55 118.64 112.56 116.25 107.76 119.03"/></g><g class="cls-6"><path class="cls-33" d="M114,70.38a1.57,1.57,0,0,0-1.56-.13h0L98.81,78.17l-9.45,5.49a1.59,1.59,0,0,0-.66,1.49A5,5,0,0,0,91,89a1.57,1.57,0,0,0,1.56.13l2.16-1.25,1.2-.7,8.18-4.76c.64-.36,1.27-.73,1.9-1.1l1.42-.82,2.27-1.32.83-.48,1.76-1,1.2-.7,2.16-1.25a1.59,1.59,0,0,0,.66-1.49A5,5,0,0,0,114,70.38Z"/><path class="cls-10" d="M90.92,83.8c-1.24-.7-2.24-.09-2.22,1.35A5,5,0,0,0,91,89c1.24.69,2.24.08,2.22-1.36A4.93,4.93,0,0,0,90.92,83.8Zm0,3.9a2.41,2.41,0,0,1-1.14-1.93c0-.72.48-1,1.1-.67A2.47,2.47,0,0,1,92.07,87C92.08,87.75,91.59,88.05,91,87.7Z"/><path class="cls-34" d="M89.66,85.84c-.63-.34-1.12,0-1.11.68a2.48,2.48,0,0,0,1.14,1.93c.62.34,1.11,0,1.11-.68A2.48,2.48,0,0,0,89.66,85.84Z"/><path class="cls-35" d="M90.93,85.1a.77.77,0,0,0-.78-.07l-1.28.74a.82.82,0,0,1,.79.07,2.48,2.48,0,0,1,1.14,1.93.81.81,0,0,1-.33.74l1.28-.74a.8.8,0,0,0,.32-.74A2.47,2.47,0,0,0,90.93,85.1Z"/></g><g class="cls-6"><polygon class="cls-10" points="119.52 72.61 118.32 71.91 118.34 78.99 119.54 79.69 119.52 72.61"/><polygon class="cls-36" points="117.95 69.76 116.75 69.06 119.53 70.64 120.72 71.34 117.95 69.76"/><polygon class="cls-10" points="114.08 71.99 112.88 71.3 112.89 72.68 114.08 73.38 114.08 71.99"/><polygon class="cls-7" points="116.75 69.06 112.88 71.3 114.08 71.99 117.95 69.76 116.75 69.06"/><polygon class="cls-7" points="118.34 78.99 83.34 99.2 84.54 99.89 119.54 79.69 118.34 78.99"/><polygon class="cls-10" points="83.31 92.94 82.11 92.24 82.14 101.28 83.34 101.98 83.31 92.94"/><polygon class="cls-7" points="88.74 85.23 84.88 87.47 86.08 88.16 89.94 85.93 88.74 85.23"/><polygon class="cls-37" points="84.88 87.47 82.11 92.24 83.31 92.94 86.08 88.16 84.88 87.47"/><polygon class="cls-11" points="120.72 71.34 117.95 69.76 114.08 71.99 114.08 73.38 117.45 71.44 119.52 72.61 119.54 79.69 84.54 99.89 84.52 92.82 86.58 89.26 89.94 87.32 89.94 85.93 86.08 88.16 83.31 92.94 83.34 101.98 120.75 80.38 120.72 71.34"/></g><g class="cls-6"><path class="cls-38" d="M100.63,62.67a1.54,1.54,0,0,0-1.56-.13h0L85.44,70.45,76,76a1.58,1.58,0,0,0-.66,1.49,4.94,4.94,0,0,0,2.28,3.85,1.57,1.57,0,0,0,1.56.14l2.16-1.26,1.2-.69,8.18-4.76,1.9-1.1L94,72.79l2.27-1.31.83-.49,1.76-1,1.2-.7L102.25,68a1.59,1.59,0,0,0,.66-1.49A5,5,0,0,0,100.63,62.67Z"/><path class="cls-10" d="M77.55,76.08c-1.24-.69-2.24-.08-2.22,1.36a4.94,4.94,0,0,0,2.28,3.85c1.24.7,2.24.09,2.22-1.35A5,5,0,0,0,77.55,76.08Zm0,3.91a2.41,2.41,0,0,1-1.14-1.93c0-.72.48-1,1.1-.67a2.47,2.47,0,0,1,1.14,1.93C78.71,80,78.22,80.34,77.6,80Z"/><path class="cls-39" d="M76.28,78.13c-.62-.35-1.11,0-1.1.68a2.46,2.46,0,0,0,1.14,1.92c.62.35,1.11,0,1.1-.67A2.41,2.41,0,0,0,76.28,78.13Z"/><path class="cls-40" d="M77.56,77.39a.77.77,0,0,0-.78-.07l-1.28.74a.8.8,0,0,1,.78.07,2.41,2.41,0,0,1,1.14,1.93.8.8,0,0,1-.32.74l1.28-.74a.8.8,0,0,0,.32-.74A2.47,2.47,0,0,0,77.56,77.39Z"/></g><g class="cls-6"><polygon class="cls-10" points="106.15 64.9 104.95 64.2 104.97 71.28 106.17 71.97 106.15 64.9"/><polygon class="cls-36" points="104.58 62.05 103.38 61.35 106.16 62.93 107.36 63.63 104.58 62.05"/><polygon class="cls-10" points="100.71 64.28 99.51 63.59 99.52 64.97 100.71 65.67 100.71 64.28"/><polygon class="cls-7" points="103.38 61.35 99.51 63.59 100.71 64.28 104.58 62.05 103.38 61.35"/><polygon class="cls-7" points="104.97 71.28 69.97 91.48 71.17 92.18 106.17 71.97 104.97 71.28"/><polygon class="cls-10" points="69.94 85.23 68.75 84.53 68.77 93.57 69.97 94.27 69.94 85.23"/><polygon class="cls-7" points="75.37 77.52 71.51 79.75 72.7 80.45 76.57 78.22 75.37 77.52"/><polygon class="cls-37" points="71.51 79.75 68.75 84.53 69.94 85.23 72.7 80.45 71.51 79.75"/><polygon class="cls-11" points="107.36 63.63 104.58 62.05 100.71 64.28 100.71 65.67 104.08 63.72 106.15 64.9 106.17 71.97 71.17 92.18 71.15 85.1 73.21 81.55 76.58 79.6 76.57 78.22 72.7 80.45 69.94 85.23 69.97 94.27 107.38 72.67 107.36 63.63"/></g><g class="cls-6"><path class="cls-41" d="M86.6,54.45A1.57,1.57,0,0,0,85,54.32h0L71.42,62.24,62,67.73a1.6,1.6,0,0,0-.65,1.49,4.92,4.92,0,0,0,2.28,3.86,1.57,1.57,0,0,0,1.56.13L67.31,72l1.2-.7,8.18-4.75,1.9-1.11L80,64.58l2.27-1.32.83-.48,1.77-1,1.2-.7,2.16-1.25a1.6,1.6,0,0,0,.65-1.49A4.91,4.91,0,0,0,86.6,54.45Z"/><path class="cls-10" d="M63.52,67.87c-1.24-.7-2.23-.09-2.21,1.35a4.92,4.92,0,0,0,2.28,3.86c1.24.69,2.23.08,2.21-1.36A4.92,4.92,0,0,0,63.52,67.87Zm0,3.9a2.45,2.45,0,0,1-1.14-1.92c0-.72.49-1,1.11-.68a2.48,2.48,0,0,1,1.14,1.93C64.69,71.82,64.19,72.12,63.57,71.77Z"/><path class="cls-42" d="M62.26,69.91c-.62-.34-1.12,0-1.11.68a2.48,2.48,0,0,0,1.14,1.93c.62.34,1.12,0,1.11-.68A2.48,2.48,0,0,0,62.26,69.91Z"/><path class="cls-43" d="M63.54,69.17a.8.8,0,0,0-.78-.07l-1.28.75a.77.77,0,0,1,.78.06,2.48,2.48,0,0,1,1.14,1.93.81.81,0,0,1-.33.75l1.28-.75a.8.8,0,0,0,.33-.74A2.48,2.48,0,0,0,63.54,69.17Z"/></g><g class="cls-6"><polygon class="cls-10" points="92.13 56.68 90.93 55.98 90.95 63.06 92.15 63.76 92.13 56.68"/><polygon class="cls-36" points="90.55 53.83 89.35 53.14 92.13 54.71 93.33 55.41 90.55 53.83"/><polygon class="cls-10" points="86.69 56.06 85.49 55.37 85.49 56.75 86.69 57.45 86.69 56.06"/><polygon class="cls-7" points="89.35 53.14 85.49 55.37 86.69 56.06 90.55 53.83 89.35 53.14"/><polygon class="cls-7" points="90.95 63.06 55.95 83.27 57.15 83.96 92.15 63.76 90.95 63.06"/><polygon class="cls-10" points="55.92 77.01 54.72 76.31 54.75 85.35 55.95 86.05 55.92 77.01"/><polygon class="cls-7" points="61.35 69.31 57.48 71.54 58.68 72.23 62.55 70 61.35 69.31"/><polygon class="cls-37" points="57.48 71.54 54.72 76.31 55.92 77.01 58.68 72.23 57.48 71.54"/><polygon class="cls-11" points="93.33 55.41 90.55 53.83 86.69 56.06 86.69 57.45 90.06 55.51 92.13 56.68 92.15 63.76 57.15 83.96 57.13 76.89 59.18 73.33 62.55 71.39 62.55 70 58.68 72.23 55.92 77.01 55.95 86.05 93.36 64.45 93.33 55.41"/></g><g class="cls-6"><path class="cls-44" d="M73,46.55a1.54,1.54,0,0,0-1.56-.13h0c-4.06,2.36-8.91,5.17-13.62,7.92l-9.46,5.49a1.6,1.6,0,0,0-.65,1.49A4.91,4.91,0,0,0,50,65.18a1.57,1.57,0,0,0,1.56.13l2.16-1.26,1.2-.69,8.18-4.76L65,57.5l1.41-.82,2.27-1.32.83-.48,1.77-1,1.2-.7,2.16-1.25a1.6,1.6,0,0,0,.65-1.49A4.92,4.92,0,0,0,73,46.55Z"/><path class="cls-10" d="M49.88,60c-1.24-.69-2.23-.08-2.21,1.36A4.91,4.91,0,0,0,50,65.18c1.24.69,2.23.08,2.21-1.36A5,5,0,0,0,49.88,60Zm0,3.91a2.47,2.47,0,0,1-1.14-1.93c0-.72.49-1,1.11-.67A2.47,2.47,0,0,1,51,63.2C51.05,63.92,50.55,64.22,49.93,63.87Z"/><path class="cls-45" d="M48.62,62c-.62-.35-1.12,0-1.11.68a2.48,2.48,0,0,0,1.14,1.93c.62.34,1.12,0,1.11-.68A2.48,2.48,0,0,0,48.62,62Z"/><path class="cls-46" d="M49.9,61.27a.77.77,0,0,0-.78-.07l-1.28.74a.8.8,0,0,1,.78.07,2.48,2.48,0,0,1,1.14,1.93.79.79,0,0,1-.33.74l1.28-.74A.8.8,0,0,0,51,63.2,2.47,2.47,0,0,0,49.9,61.27Z"/></g><g class="cls-6"><polygon class="cls-10" points="78.49 48.78 77.29 48.08 77.31 55.16 78.51 55.85 78.49 48.78"/><polygon class="cls-36" points="76.91 45.93 75.71 45.23 78.49 46.81 79.69 47.51 76.91 45.93"/><polygon class="cls-10" points="73.05 48.16 71.85 47.47 71.85 48.85 73.05 49.55 73.05 48.16"/><polygon class="cls-7" points="75.71 45.23 71.85 47.47 73.05 48.16 76.91 45.93 75.71 45.23"/><polygon class="cls-7" points="77.31 55.16 42.31 75.36 43.51 76.06 78.51 55.85 77.31 55.16"/><polygon class="cls-10" points="42.28 69.11 41.08 68.41 41.1 77.45 42.3 78.15 42.28 69.11"/><polygon class="cls-7" points="47.71 61.4 43.84 63.63 45.04 64.33 48.91 62.1 47.71 61.4"/><polygon class="cls-37" points="43.84 63.63 41.08 68.41 42.28 69.11 45.04 64.33 43.84 63.63"/><polygon class="cls-11" points="79.69 47.51 76.91 45.93 73.05 48.16 73.05 49.55 76.42 47.6 78.49 48.78 78.51 55.85 43.51 76.06 43.49 68.98 45.54 65.43 48.91 63.48 48.91 62.1 45.04 64.33 42.28 69.11 42.3 78.15 79.72 56.55 79.69 47.51"/></g><g class="cls-6"><path class="cls-47" d="M59.34,38.69a1.57,1.57,0,0,0-1.56-.13h0L44.15,46.48,34.7,52A1.59,1.59,0,0,0,34,53.46a5,5,0,0,0,2.28,3.86,1.57,1.57,0,0,0,1.56.13L40,56.2l1.2-.7,8.18-4.76c.64-.36,1.27-.73,1.9-1.1l1.42-.82L55,47.5l.83-.48,1.76-1,1.2-.7L61,44a1.59,1.59,0,0,0,.66-1.49A5,5,0,0,0,59.34,38.69Z"/><path class="cls-10" d="M36.26,52.11C35,51.41,34,52,34,53.46a5,5,0,0,0,2.28,3.86c1.24.69,2.23.08,2.22-1.36A4.93,4.93,0,0,0,36.26,52.11Zm0,3.9a2.47,2.47,0,0,1-1.14-1.93c0-.71.49-1,1.11-.67a2.47,2.47,0,0,1,1.14,1.93C37.42,56.06,36.93,56.36,36.3,56Z"/><path class="cls-48" d="M35,54.15c-.62-.34-1.11,0-1.1.68A2.46,2.46,0,0,0,35,56.76c.62.34,1.11,0,1.1-.68A2.46,2.46,0,0,0,35,54.15Z"/><path class="cls-49" d="M36.27,53.41a.8.8,0,0,0-.78-.07l-1.28.74a.8.8,0,0,1,.78.07,2.46,2.46,0,0,1,1.14,1.93.79.79,0,0,1-.32.74l1.27-.74a.78.78,0,0,0,.33-.74A2.47,2.47,0,0,0,36.27,53.41Z"/></g><g class="cls-6"><polygon class="cls-10" points="64.86 40.92 63.66 40.22 63.68 47.3 64.88 47.99 64.86 40.92"/><polygon class="cls-36" points="63.29 38.07 62.09 37.38 64.87 38.95 66.06 39.65 63.29 38.07"/><polygon class="cls-10" points="59.42 40.3 58.22 39.61 58.22 40.99 59.42 41.69 59.42 40.3"/><polygon class="cls-7" points="62.09 37.38 58.22 39.61 59.42 40.3 63.29 38.07 62.09 37.38"/><polygon class="cls-7" points="63.68 47.3 28.68 67.51 29.88 68.2 64.88 47.99 63.68 47.3"/><polygon class="cls-10" points="28.65 61.25 27.45 60.55 27.48 69.59 28.68 70.29 28.65 61.25"/><polygon class="cls-7" points="34.08 53.54 30.21 55.78 31.41 56.47 35.28 54.24 34.08 53.54"/><polygon class="cls-37" points="30.21 55.78 27.45 60.55 28.65 61.25 31.41 56.47 30.21 55.78"/><polygon class="cls-11" points="66.06 39.65 63.29 38.07 59.42 40.3 59.42 41.69 62.79 39.75 64.86 40.92 64.88 47.99 29.88 68.2 29.86 61.13 31.92 57.57 35.28 55.63 35.28 54.24 31.41 56.47 28.65 61.25 28.68 70.29 66.09 48.69 66.06 39.65"/></g><polygon class="cls-50" points="47.47 28.3 18.02 45.42 113.24 100.39 142.69 83.28 47.47 28.3"/><path class="cls-51" d="M47.52,28.3,18,45.42l-.09-.05c-1.61-.9-3-1-4.1-.36L43.32,27.89a4.14,4.14,0,0,1,4.11.35A.47.47,0,0,1,47.52,28.3Z"/><path class="cls-52" d="M142.56,83.26l-29.39,17.13a12.49,12.49,0,0,1,5.66,9.8c0,1.8-.64,3.06-1.66,3.65l29.39-17.12a4,4,0,0,0,1.66-3.65A12.48,12.48,0,0,0,142.56,83.26Z"/></g></g></g></svg>