<?xml version="1.0" encoding="UTF-8"?>
<svg id="_图层_2" data-name="图层 2" xmlns="http://www.w3.org/2000/svg" xmlns:xlink="http://www.w3.org/1999/xlink" viewBox="0 0 150.2 150">
  <defs>
    <style>
      .cls-1 {
        fill: url(#_未命名的渐变_13);
      }

      .cls-1, .cls-2, .cls-3, .cls-4, .cls-5, .cls-6, .cls-7, .cls-8, .cls-9, .cls-10, .cls-11, .cls-12, .cls-13, .cls-14, .cls-15, .cls-16, .cls-17, .cls-18 {
        stroke-width: 0px;
      }

      .cls-2 {
        fill: url(#_未命名的渐变_10);
      }

      .cls-3 {
        fill: url(#_未命名的渐变_22);
      }

      .cls-4 {
        fill: url(#_未命名的渐变_21);
      }

      .cls-5, .cls-19 {
        fill: none;
      }

      .cls-19 {
        stroke: #fff;
        stroke-miterlimit: 10;
        stroke-width: .1px;
      }

      .cls-6 {
        fill: url(#_未命名的渐变_13-3);
      }

      .cls-7 {
        fill: url(#_未命名的渐变_13-2);
      }

      .cls-8 {
        fill: url(#_未命名的渐变_21-5);
      }

      .cls-9 {
        fill: url(#_未命名的渐变_21-2);
      }

      .cls-10 {
        fill: url(#_未命名的渐变_21-3);
      }

      .cls-11 {
        fill: url(#_未命名的渐变_21-4);
      }

      .cls-12 {
        fill: url(#_新建图案);
        opacity: .1;
      }

      .cls-20 {
        opacity: .2;
      }

      .cls-21 {
        isolation: isolate;
      }

      .cls-22 {
        opacity: 0;
      }

      .cls-14 {
        fill: #49647b;
      }

      .cls-15 {
        fill: #5d7392;
      }

      .cls-16 {
        fill: #7695ca;
      }

      .cls-17 {
        fill: #171d23;
      }

      .cls-18 {
        fill: #000714;
      }
    </style>
    <pattern id="_新建图案" data-name="新建图案" x="0" y="0" width="18.57" height="32.16" patternTransform="translate(3513.27 727.44)" patternUnits="userSpaceOnUse" viewBox="0 0 18.57 32.16">
      <g>
        <rect class="cls-5" x="0" y="0" width="18.57" height="32.16"/>
        <g>
          <g>
            <polyline class="cls-19" points="18.57 21.44 18.57 32.16 18.57 42.88"/>
            <polyline class="cls-19" points="9.29 26.8 18.57 32.16 27.85 37.51 27.85 37.52"/>
            <polyline class="cls-19" points="9.29 37.52 9.29 37.51 18.57 32.16 27.85 26.8"/>
          </g>
          <polygon class="cls-19" points="27.85 37.52 27.85 26.8 18.57 21.44 9.28 26.8 9.28 37.52 18.57 42.88 27.85 37.52"/>
        </g>
        <g>
          <g>
            <polyline class="cls-19" points="0 21.44 0 32.16 0 42.88"/>
            <polyline class="cls-19" points="-9.28 26.8 0 32.16 9.28 37.51 9.28 37.52"/>
            <polyline class="cls-19" points="-9.28 37.52 -9.28 37.51 0 32.16 9.28 26.8"/>
          </g>
          <polygon class="cls-19" points="9.28 37.52 9.28 26.8 0 21.44 -9.28 26.8 -9.28 37.52 0 42.88 9.28 37.52"/>
        </g>
        <g>
          <g>
            <polyline class="cls-19" points="18.57 10.72 27.85 16.08 37.13 21.43 37.13 21.44"/>
            <polyline class="cls-19" points="18.57 21.44 18.57 21.43 27.85 16.08 37.13 10.72"/>
          </g>
          <polygon class="cls-19" points="37.14 21.44 37.14 10.72 27.85 5.36 18.57 10.72 18.57 21.44 27.85 26.8 37.14 21.44"/>
        </g>
        <g>
          <g>
            <polyline class="cls-19" points="9.28 5.36 9.28 16.08 9.28 26.8"/>
            <polyline class="cls-19" points="0 10.72 9.28 16.08 18.56 21.43 18.56 21.44"/>
            <polyline class="cls-19" points="0 21.44 0 21.43 9.28 16.08 18.56 10.72"/>
          </g>
          <polygon class="cls-19" points="18.57 21.44 18.57 10.72 9.28 5.36 0 10.72 0 21.44 9.28 26.8 18.57 21.44"/>
        </g>
        <g>
          <g>
            <polyline class="cls-19" points="-18.56 10.72 -9.28 16.08 0 21.43 0 21.44"/>
            <polyline class="cls-19" points="-18.56 21.44 -18.56 21.43 -9.28 16.08 0 10.72"/>
          </g>
          <polygon class="cls-19" points="0 21.44 0 10.72 -9.28 5.36 -18.57 10.72 -18.57 21.44 -9.28 26.8 0 21.44"/>
        </g>
        <g>
          <g>
            <polyline class="cls-19" points="18.57 -10.72 18.57 0 18.57 10.72"/>
            <polyline class="cls-19" points="9.29 -5.36 18.57 0 27.85 5.35 27.85 5.36"/>
            <polyline class="cls-19" points="9.29 5.36 9.29 5.35 18.57 0 27.85 -5.36"/>
          </g>
          <polygon class="cls-19" points="27.85 5.36 27.85 -5.36 18.57 -10.72 9.28 -5.36 9.28 5.36 18.57 10.72 27.85 5.36"/>
        </g>
        <g>
          <g>
            <polyline class="cls-19" points="0 -10.72 0 0 0 10.72"/>
            <polyline class="cls-19" points="-9.28 -5.36 0 0 9.28 5.35 9.28 5.36"/>
            <polyline class="cls-19" points="-9.28 5.36 -9.28 5.35 0 0 9.28 -5.36"/>
          </g>
          <polygon class="cls-19" points="9.28 5.36 9.28 -5.36 0 -10.72 -9.28 -5.36 -9.28 5.36 0 10.72 9.28 5.36"/>
        </g>
      </g>
    </pattern>
    <linearGradient id="_未命名的渐变_21" data-name="未命名的渐变 21" x1="90.76" y1="49.58" x2="150.2" y2="49.58" gradientUnits="userSpaceOnUse">
      <stop offset="0" stop-color="#38455a"/>
      <stop offset=".15" stop-color="#7a97cb"/>
      <stop offset=".25" stop-color="#7a97cb"/>
      <stop offset=".9" stop-color="#12161a"/>
      <stop offset="1" stop-color="#283140"/>
    </linearGradient>
    <linearGradient id="_未命名的渐变_21-2" data-name="未命名的渐变 21" x1="65.56" y1="31.51" x2="107.41" y2="104" xlink:href="#_未命名的渐变_21"/>
    <linearGradient id="_未命名的渐变_13" data-name="未命名的渐变 13" x1="8.91" y1="95.1" x2="68.12" y2="95.1" gradientUnits="userSpaceOnUse">
      <stop offset="0" stop-color="#88aae5"/>
      <stop offset="1" stop-color="#547098"/>
    </linearGradient>
    <linearGradient id="_未命名的渐变_21-3" data-name="未命名的渐变 21" x1="9.67" y1="96.63" x2="69.1" y2="96.63" xlink:href="#_未命名的渐变_21"/>
    <linearGradient id="_未命名的渐变_13-2" data-name="未命名的渐变 13" x1="8.21" y1="106.3" x2="39.15" y2="106.3" xlink:href="#_未命名的渐变_13"/>
    <linearGradient id="_未命名的渐变_21-4" data-name="未命名的渐变 21" x1="18.17" y1="73.1" x2="39.21" y2="109.54" xlink:href="#_未命名的渐变_21"/>
    <linearGradient id="_未命名的渐变_21-5" data-name="未命名的渐变 21" x1="14.24" y1="82.38" x2="29.07" y2="108.06" xlink:href="#_未命名的渐变_21"/>
    <linearGradient id="_未命名的渐变_13-3" data-name="未命名的渐变 13" x1="6.45" y1="97.98" x2="27.48" y2="97.98" xlink:href="#_未命名的渐变_13"/>
    <linearGradient id="_未命名的渐变_10" data-name="未命名的渐变 10" x1="7.75" y1="98.22" x2="25.55" y2="98.22" gradientUnits="userSpaceOnUse">
      <stop offset="0" stop-color="#283140"/>
      <stop offset="1" stop-color="#12161a"/>
    </linearGradient>
    <linearGradient id="_未命名的渐变_22" data-name="未命名的渐变 22" x1="11.25" y1="104" x2="22.18" y2="93.07" gradientUnits="userSpaceOnUse">
      <stop offset="0" stop-color="#4cf9fd" stop-opacity=".8"/>
      <stop offset=".04" stop-color="#4cf9fd" stop-opacity=".68"/>
      <stop offset=".11" stop-color="#4cf9fd" stop-opacity=".52"/>
      <stop offset=".18" stop-color="#4cf9fd" stop-opacity=".38"/>
      <stop offset=".26" stop-color="#4cf9fd" stop-opacity=".26"/>
      <stop offset=".35" stop-color="#4cf9fd" stop-opacity=".17"/>
      <stop offset=".45" stop-color="#4cf9fd" stop-opacity=".09"/>
      <stop offset=".56" stop-color="#4cf9fd" stop-opacity=".04"/>
      <stop offset=".71" stop-color="#4cf9fd" stop-opacity="0"/>
      <stop offset="1" stop-color="#4cf9fd" stop-opacity="0"/>
    </linearGradient>
  </defs>
  <g id="_图元" data-name="图元">
    <g id="_磨煤机" data-name="磨煤机">
      <g id="_背景" data-name="背景" class="cls-22">
        <rect class="cls-18" x=".1" width="150" height="150"/>
        <rect id="_网格" data-name="网格" class="cls-12" x=".1" width="150" height="150"/>
      </g>
      <g>
        <g>
          <path class="cls-4" d="m150.18,67.42c0-.09,0-.19-.01-.28,0-.2-.02-.4-.03-.6-.01-.24-.02-.47-.03-.71-.01-.18-.03-.37-.04-.55-.02-.21-.03-.42-.05-.64-.01-.14-.02-.28-.03-.42-.03-.3-.07-.61-.1-.91-.02-.18-.04-.35-.06-.53,0-.06-.01-.12-.02-.18-.07-.55-.15-1.11-.24-1.66,0-.01,0-.03,0-.04-.01-.08-.03-.15-.04-.23-.08-.47-.15-.94-.24-1.41-.02-.08-.03-.17-.05-.25-.04-.22-.09-.44-.13-.66-.06-.27-.11-.54-.16-.81-.03-.15-.07-.3-.11-.45-.05-.24-.11-.48-.17-.72-.04-.19-.08-.37-.13-.56-.06-.22-.12-.45-.18-.67-.06-.24-.13-.48-.19-.73-.03-.12-.06-.24-.09-.36-.09-.32-.18-.63-.28-.95-.06-.21-.12-.41-.18-.62-.02-.06-.03-.12-.05-.17-.17-.57-.36-1.14-.55-1.71,0,0,0-.01,0-.02-.02-.05-.04-.11-.06-.16-.17-.5-.34-1-.52-1.51-.03-.08-.06-.16-.09-.24-.07-.19-.14-.38-.22-.57-.1-.27-.2-.54-.3-.81-.07-.17-.14-.34-.21-.52-.08-.21-.17-.42-.25-.63-.06-.15-.12-.31-.19-.46-.13-.3-.26-.61-.39-.91-.07-.16-.14-.33-.21-.49-.02-.06-.05-.11-.07-.17-.24-.53-.48-1.07-.73-1.6-.01-.02-.02-.04-.03-.07-.07-.15-.15-.31-.22-.46-.19-.41-.39-.81-.59-1.22-.03-.06-.07-.13-.1-.19-.17-.33-.34-.66-.51-.99-.14-.27-.27-.54-.41-.8-.03-.05-.05-.1-.08-.14-.46-.86-.94-1.7-1.43-2.54-.04-.07-.08-.14-.12-.22-.05-.08-.1-.16-.15-.24-.7-1.18-1.43-2.34-2.18-3.48-.04-.06-.08-.13-.12-.19-.07-.1-.14-.2-.21-.31-.61-.9-1.23-1.8-1.88-2.67,0,0,0,0,0,0,0,0,0-.01-.01-.02-.46-.62-.92-1.23-1.39-1.83-.02-.03-.04-.05-.06-.08-.35-.44-.7-.87-1.06-1.31-.07-.08-.14-.17-.21-.25,0,0,0-.01-.01-.02-.42-.51-.85-1-1.28-1.49-.02-.02-.04-.05-.06-.07-.13-.15-.27-.3-.41-.45-.27-.3-.54-.61-.82-.9-.05-.06-.1-.11-.16-.16-.19-.2-.38-.4-.57-.6-.21-.22-.41-.44-.62-.65-.08-.08-.16-.15-.24-.23-.21-.21-.42-.41-.62-.62-.18-.17-.35-.35-.53-.53-.1-.1-.2-.19-.31-.29-.23-.21-.45-.42-.68-.63-.16-.14-.31-.29-.47-.43-.12-.11-.25-.22-.37-.33-.23-.2-.45-.4-.68-.6-.14-.12-.27-.24-.41-.36-.15-.13-.3-.25-.45-.37-.22-.18-.44-.37-.67-.55-.12-.09-.23-.19-.35-.28-.19-.15-.38-.29-.57-.44-.21-.16-.42-.32-.62-.48-.08-.06-.17-.13-.25-.19-.26-.19-.51-.37-.77-.55-.18-.13-.35-.25-.53-.38-.05-.03-.09-.07-.14-.1-.47-.32-.93-.63-1.4-.93,0,0,0,0-.01,0-.04-.02-.07-.04-.11-.07-.42-.27-.85-.53-1.28-.78-.11-.06-.22-.13-.32-.19-.35-.2-.7-.4-1.05-.59-.13-.07-.26-.14-.4-.21-.18-.1-.36-.19-.54-.28-.14-.07-.28-.15-.42-.22-.22-.11-.44-.21-.67-.31-.16-.07-.32-.15-.48-.22-.07-.03-.13-.06-.2-.09-.44-.2-.88-.38-1.31-.56,0,0-.02,0-.03-.01-.44-.18-.88-.34-1.32-.5-.06-.02-.11-.04-.17-.06-.16-.06-.32-.1-.48-.16-.23-.07-.45-.15-.68-.22-.11-.03-.22-.06-.33-.09-.2-.06-.39-.11-.58-.16-.15-.04-.3-.09-.45-.12-.16-.04-.31-.07-.47-.1-.19-.04-.39-.09-.58-.13-.1-.02-.21-.05-.31-.07-.18-.04-.36-.06-.54-.09-.22-.04-.45-.08-.67-.11-.08-.01-.16-.03-.24-.04-.19-.02-.37-.04-.55-.06-.24-.03-.48-.05-.71-.07-.07,0-.14-.02-.21-.02-.16-.01-.32,0-.48-.02-.28-.01-.56-.03-.84-.03-.08,0-.16,0-.24,0-.12,0-.24.01-.36.02-.35,0-.7.02-1.04.05-.1,0-.21,0-.31.01-.08,0-.15.02-.23.03-.52.05-1.04.13-1.55.22-.04,0-.09.01-.13.02-.01,0-.02,0-.04,0-.1.02-.2.05-.3.07-.32.07-.63.14-.94.23-.15.04-.3.09-.44.14-.2.06-.4.12-.59.19-.05.02-.09.04-.14.06-.3.11-.58.23-.87.36-.14.06-.29.12-.42.18-.42.2-.83.41-1.24.64l-2.99,1.74c.4-.23.81-.45,1.24-.64.14-.06.28-.12.42-.18.29-.13.58-.25.88-.36.24-.09.48-.17.73-.24.15-.05.29-.1.44-.14.31-.09.62-.16.93-.23.1-.02.21-.05.31-.07.05-.01.11-.02.16-.03.51-.1,1.03-.17,1.55-.23.18-.02.36-.03.54-.05.34-.03.69-.04,1.04-.05.2,0,.39-.01.59,0,.28,0,.56.01.84.03.23.01.45.02.69.04.24.02.48.05.71.07.26.03.52.06.78.09.22.03.45.07.67.11.28.05.56.1.85.16.19.04.39.08.58.13.3.07.61.15.92.23.19.05.39.1.58.16.33.1.67.2,1.01.31.16.05.32.1.48.16.99.34,2,.75,3.02,1.21.16.07.32.15.48.23.36.17.72.34,1.08.53.18.09.36.18.54.28.48.25.96.51,1.45.79.54.31,1.08.64,1.62.98.03.02.06.04.09.06.52.33,1.04.68,1.55,1.03.18.12.35.25.52.37.34.24.69.49,1.03.74.21.16.42.32.63.48.31.24.61.47.92.72.22.18.45.36.67.55.29.24.58.49.87.74.23.2.45.39.68.59.28.25.56.51.84.76.23.21.45.41.67.63.28.27.57.54.85.82.21.2.41.4.62.61.29.29.58.59.87.89.19.2.38.39.56.59.33.36.66.72.98,1.08.13.15.26.29.39.44.46.52.91,1.05,1.36,1.58.07.08.14.17.21.25.38.46.75.92,1.12,1.39.47.6.94,1.22,1.4,1.84,0,0,0,0,0,0,.64.87,1.27,1.77,1.88,2.67.11.17.22.33.33.5.76,1.14,1.48,2.3,2.18,3.48.09.15.18.3.27.45.49.84.97,1.69,1.43,2.55.17.31.33.63.49.94.17.33.35.66.51.99.24.47.47.94.69,1.42.07.15.15.3.22.45.29.61.56,1.22.83,1.84.07.16.14.33.21.49.2.46.39.91.57,1.37.09.21.17.42.25.63.18.44.35.88.51,1.33.07.19.14.38.21.57.21.58.42,1.17.62,1.75.02.05.04.1.05.15.21.63.41,1.27.61,1.9.06.21.12.41.18.62.13.44.25.87.37,1.31.07.24.13.48.19.73.11.41.21.82.31,1.23.06.24.11.48.17.72.1.42.18.84.27,1.26.05.22.09.44.14.67.11.55.2,1.1.29,1.64.01.08.03.16.04.24.1.63.19,1.25.26,1.87.02.18.04.36.06.53.05.44.1.89.13,1.33.02.21.04.43.05.64.03.42.06.84.08,1.25,0,.2.02.41.03.61.02.59.04,1.19.03,1.77,0,.62-.02,1.22-.05,1.82,0,.17-.02.33-.03.5-.02.41-.05.81-.09,1.21-.02.23-.05.46-.07.68-.04.34-.08.67-.12,1-.03.24-.07.48-.11.72-.05.3-.1.6-.15.9-.05.27-.1.53-.16.79-.06.27-.12.53-.18.79-.07.31-.15.61-.24.91-.06.23-.13.46-.2.69-.11.36-.23.71-.35,1.05-.07.19-.13.37-.2.55-.22.58-.45,1.14-.71,1.68-.39.84-.83,1.62-1.3,2.36-.34.53-.7,1.02-1.07,1.5-.09.11-.18.23-.28.34-.36.44-.74.86-1.14,1.25-.03.03-.06.06-.09.09-.42.41-.87.79-1.33,1.15-.11.09-.22.17-.34.26-.47.35-.95.68-1.45.97l2.99-1.74c.5-.29.98-.62,1.45-.97.11-.08.23-.17.34-.26.46-.36.9-.74,1.33-1.15.03-.03.06-.06.09-.09.4-.39.77-.81,1.14-1.25.09-.11.19-.22.28-.34.38-.48.74-.97,1.07-1.5,0-.02.02-.03.03-.04.23-.35.44-.72.65-1.1,0,0,0,0,0,0,.21-.37.4-.76.59-1.16,0-.02.02-.04.02-.06.25-.54.49-1.1.71-1.68.02-.05.04-.1.06-.15.05-.13.09-.28.14-.41.12-.34.24-.69.35-1.05.03-.1.06-.18.09-.28.04-.13.07-.28.11-.41.08-.3.16-.6.23-.9.03-.13.07-.24.1-.37.03-.14.05-.28.08-.42.06-.26.11-.52.16-.79.03-.14.06-.27.08-.41.03-.16.05-.33.07-.49.04-.24.07-.48.11-.72.02-.12.04-.24.05-.37.03-.21.04-.42.07-.63.02-.23.05-.45.07-.68,0-.09.02-.18.03-.28.03-.31.04-.63.06-.94,0-.17.02-.33.03-.5,0-.04,0-.08,0-.12.02-.52.03-1.06.04-1.6,0-.03,0-.06,0-.09,0-.49,0-.99-.02-1.49Z"/>
          <ellipse class="cls-15" cx="114.14" cy="51.49" rx="26.98" ry="46.58" transform="translate(-10.42 64.32) rotate(-30.16)"/>
        </g>
        <path class="cls-9" d="m142.99,67.83c0-.08,0-.17-.01-.25,0-.18-.02-.36-.03-.54-.01-.21-.02-.43-.03-.64-.01-.16-.03-.33-.04-.49-.01-.19-.03-.38-.05-.57-.01-.13-.02-.25-.03-.38-.03-.27-.06-.55-.09-.82-.02-.16-.03-.31-.05-.47,0-.05-.01-.11-.02-.16-.06-.49-.13-.99-.21-1.49,0-.01,0-.02,0-.03-.01-.07-.02-.14-.04-.21-.07-.42-.14-.84-.22-1.26-.01-.07-.03-.15-.05-.22-.04-.2-.08-.4-.12-.59-.05-.24-.09-.49-.15-.73-.03-.13-.06-.27-.09-.4-.05-.22-.1-.43-.15-.65-.04-.17-.08-.33-.12-.5-.05-.2-.11-.4-.16-.6-.06-.22-.11-.43-.17-.65-.03-.11-.05-.22-.08-.32-.08-.28-.17-.57-.25-.85-.05-.18-.11-.37-.16-.55-.02-.05-.03-.11-.05-.16-.16-.51-.32-1.02-.49-1.53,0,0,0-.01,0-.02-.02-.05-.03-.09-.05-.14-.15-.45-.31-.91-.47-1.36-.03-.07-.05-.14-.08-.21-.06-.17-.13-.34-.19-.51-.09-.24-.18-.49-.27-.73-.06-.15-.12-.31-.19-.46-.07-.19-.15-.37-.23-.56-.06-.14-.11-.28-.17-.41-.11-.27-.23-.54-.35-.81-.06-.15-.13-.3-.19-.44-.02-.05-.05-.11-.07-.16-.21-.48-.43-.96-.65-1.43,0-.02-.02-.04-.03-.05-.06-.13-.12-.25-.18-.38-.18-.38-.36-.75-.55-1.13-.03-.06-.06-.11-.09-.17-.15-.3-.3-.59-.46-.88-.12-.24-.24-.48-.37-.72-.02-.04-.05-.08-.07-.13-.41-.77-.84-1.53-1.28-2.28-.04-.06-.07-.13-.11-.19-.04-.07-.09-.14-.13-.21-.63-1.06-1.28-2.1-1.96-3.12-.04-.06-.07-.11-.11-.17-.06-.09-.13-.18-.19-.28-.55-.81-1.1-1.61-1.68-2.39,0,0,0,0,0,0,0,0,0,0,0-.01-.41-.56-.83-1.1-1.25-1.64-.02-.02-.04-.05-.06-.07-.31-.4-.63-.79-.96-1.18-.06-.07-.12-.14-.17-.22,0,0,0,0-.01-.01-.38-.45-.76-.9-1.14-1.34-.02-.02-.04-.04-.06-.07-.12-.13-.24-.26-.36-.4-.24-.27-.49-.55-.74-.81-.05-.05-.1-.1-.14-.15-.17-.18-.34-.35-.51-.53-.19-.2-.37-.39-.56-.59-.07-.07-.14-.14-.21-.21-.18-.19-.37-.37-.55-.55-.16-.16-.32-.32-.48-.47-.09-.09-.19-.17-.28-.26-.2-.19-.4-.38-.6-.56-.14-.13-.28-.26-.42-.39-.11-.1-.22-.19-.34-.29-.2-.18-.41-.36-.61-.54-.12-.11-.24-.22-.37-.32-.13-.11-.27-.22-.41-.33-.2-.16-.4-.33-.6-.49-.1-.08-.21-.17-.31-.25-.17-.14-.35-.26-.52-.39-.18-.14-.37-.28-.56-.42-.08-.06-.15-.12-.23-.17-.23-.17-.46-.33-.7-.5-.16-.11-.31-.22-.47-.33-.04-.03-.08-.06-.12-.09-.42-.29-.84-.56-1.26-.83,0,0,0,0-.01,0-.03-.02-.07-.04-.1-.06-.38-.24-.76-.48-1.14-.7-.1-.06-.19-.11-.29-.17-.31-.18-.63-.36-.94-.53-.12-.06-.24-.12-.36-.18-.16-.09-.32-.17-.48-.25-.12-.06-.25-.13-.37-.19-.2-.1-.4-.19-.59-.28-.14-.07-.29-.14-.43-.2-.06-.03-.12-.06-.17-.08-.4-.18-.79-.34-1.18-.5,0,0,0,0,0,0,0,0,0,0,0,0-.4-.16-.8-.31-1.19-.45-.05-.02-.1-.03-.15-.05-.14-.05-.29-.09-.43-.14-.2-.07-.4-.14-.6-.2-.1-.03-.2-.05-.3-.08-.18-.05-.35-.1-.52-.14-.13-.04-.27-.08-.4-.11-.14-.03-.28-.06-.42-.09-.17-.04-.35-.08-.52-.12-.09-.02-.18-.04-.28-.06-.16-.03-.32-.05-.48-.08-.2-.03-.4-.07-.6-.1-.07-.01-.14-.03-.21-.04-.17-.02-.33-.03-.49-.05-.21-.02-.43-.05-.64-.07-.06,0-.13-.01-.19-.02-.14,0-.28,0-.43-.01-.25-.01-.5-.02-.75-.02-.07,0-.14,0-.21,0-.11,0-.21.01-.32.02-.31,0-.62.02-.93.04-.09,0-.19,0-.28.01-.07,0-.13.02-.2.03-.47.05-.93.11-1.39.2-.04,0-.08,0-.12.02-.01,0-.02,0-.03,0-.09.02-.18.04-.27.06-.28.06-.57.13-.84.21-.13.04-.26.08-.4.12-.18.06-.36.1-.53.17-.04.02-.08.04-.13.05-.27.1-.53.21-.78.32-.13.05-.25.1-.38.16-.38.18-.75.37-1.11.58L17.76,59.38c.36-.21.73-.4,1.11-.58.12-.06.25-.11.38-.16.26-.11.52-.22.78-.32.22-.08.44-.15.66-.22.13-.04.26-.09.4-.12.28-.08.56-.14.84-.21.09-.02.18-.05.27-.06.05,0,.1-.02.15-.02.45-.09.92-.15,1.39-.2.16-.02.32-.03.48-.04.31-.02.62-.04.93-.04.18,0,.35,0,.53,0,.25,0,.5.01.75.02.2,0,.41.02.61.03.21.02.43.04.64.07.23.03.47.05.7.08.2.03.4.06.6.1.25.04.5.09.76.14.17.04.35.08.52.12.27.06.54.13.82.2.17.05.35.09.52.14.3.09.6.18.9.28.14.05.29.09.43.14.44.15.89.32,1.34.5,0,0,0,0,0,0,0,0,0,0,.01,0,.45.18.9.37,1.35.58.14.07.29.14.43.2.32.15.64.31.97.47.16.08.32.17.48.25.43.23.86.46,1.3.71.48.28.96.57,1.44.87.03.02.07.04.1.06.47.3.93.61,1.39.93.16.11.31.22.47.33.31.22.62.44.92.67.19.14.37.28.56.43.28.21.55.43.82.65.2.16.4.33.6.49.26.21.52.43.78.65.21.18.41.35.61.54.25.22.5.45.75.68.2.19.4.37.6.56.25.24.51.48.76.73.19.18.37.37.56.55.26.26.51.53.77.79.17.18.34.36.51.54.29.31.58.63.86.95.12.14.25.27.37.41.41.46.81.94,1.21,1.42.06.07.12.14.17.22.34.41.68.83,1.01,1.25.42.54.84,1.09,1.25,1.64,0,0,0,0,0,.01.58.78,1.13,1.58,1.68,2.39.1.15.2.3.3.45.68,1.02,1.33,2.06,1.96,3.12.08.14.16.27.24.41.44.75.87,1.51,1.28,2.28.15.28.3.56.44.84.15.3.31.59.46.89.21.42.42.85.62,1.28.06.13.13.26.19.39.26.55.5,1.09.75,1.64.07.15.13.3.19.45.18.41.35.81.51,1.22.08.19.15.38.23.56.16.4.31.79.46,1.19.06.17.13.34.19.51.19.52.38,1.04.55,1.57.02.05.03.09.05.14.19.57.37,1.14.54,1.7.06.19.11.37.16.56.11.39.23.78.33,1.17.06.22.12.44.17.66.09.36.19.73.27,1.09.05.22.1.43.15.65.09.38.16.75.24,1.13.04.2.08.4.12.59.1.49.18.99.26,1.48.01.07.02.14.04.21.09.56.17,1.12.23,1.68.02.16.03.32.05.48.05.4.09.8.12,1.19.02.19.03.38.05.57.03.38.05.75.07,1.13,0,.18.02.36.03.54.02.53.03,1.06.03,1.59,0,.55-.02,1.09-.04,1.63,0,.15-.02.3-.03.45-.02.36-.05.73-.08,1.08-.02.21-.04.41-.06.62-.03.3-.07.6-.11.89-.03.22-.06.43-.1.65-.04.27-.09.54-.14.8-.04.24-.09.48-.14.71-.05.24-.1.47-.16.71-.07.28-.14.55-.21.81-.06.21-.12.41-.18.62-.1.32-.2.63-.31.94-.06.17-.11.33-.18.5-.2.52-.41,1.02-.63,1.5-.17.37-.36.73-.55,1.08,0,0,0,0,0,.01-.19.35-.4.69-.61,1.02-.3.47-.63.91-.96,1.34-.08.1-.16.2-.25.3-.33.39-.66.77-1.02,1.12-.03.03-.05.06-.08.08-.38.37-.78.71-1.19,1.03-.1.08-.2.15-.3.23-.42.31-.85.61-1.3.87l74.67-43.4c.45-.26.88-.56,1.3-.87.1-.08.2-.15.3-.23.41-.32.81-.66,1.19-1.03.03-.03.05-.06.08-.08.36-.35.69-.73,1.02-1.12.08-.1.17-.2.25-.3.34-.43.66-.87.96-1.34,0-.01.02-.02.03-.04.2-.32.4-.64.58-.98,0,0,0,0,0-.01.18-.33.36-.68.53-1.03,0-.02.01-.03.02-.05.23-.48.44-.98.63-1.5.02-.04.04-.08.05-.13.04-.12.08-.25.12-.37.11-.31.21-.62.31-.94.03-.08.06-.16.08-.25.04-.12.06-.25.1-.37.07-.27.14-.54.21-.81.03-.11.06-.22.09-.33.03-.12.05-.25.08-.38.05-.23.1-.47.14-.71.02-.12.05-.24.07-.36.03-.14.04-.3.07-.44.03-.21.07-.43.1-.64.02-.11.04-.22.05-.33.02-.19.04-.38.06-.57.02-.2.04-.4.06-.61,0-.08.02-.16.03-.25.02-.28.04-.56.05-.84,0-.15.02-.3.03-.45,0-.04,0-.07,0-.11.02-.47.03-.95.03-1.43,0-.03,0-.06,0-.09,0-.44,0-.89-.02-1.34Z"/>
        <path class="cls-1" d="m38.61,61.08c16.36,9.44,29.57,32.32,29.51,51.12-.05,18.79-13.35,26.36-29.71,16.92-16.35-9.44-29.56-32.32-29.51-51.11.05-18.8,13.35-26.37,29.7-16.93Z"/>
        <g>
          <path class="cls-10" d="m69.08,114.47c0-.09,0-.19-.01-.28,0-.2-.02-.4-.03-.6-.01-.24-.02-.47-.03-.71-.01-.18-.03-.37-.04-.55-.02-.21-.03-.42-.05-.64-.01-.14-.02-.28-.03-.42-.03-.3-.07-.61-.1-.91-.02-.18-.04-.35-.06-.53,0-.06-.01-.12-.02-.18-.07-.55-.15-1.11-.24-1.66,0-.01,0-.03,0-.04-.01-.08-.03-.15-.04-.23-.08-.47-.15-.94-.24-1.41-.02-.08-.03-.17-.05-.25-.04-.22-.09-.44-.13-.66-.06-.27-.11-.54-.16-.81-.03-.15-.07-.3-.11-.45-.05-.24-.11-.48-.17-.72-.04-.19-.08-.37-.13-.56-.06-.22-.12-.45-.18-.67-.06-.24-.13-.48-.19-.73-.03-.12-.06-.24-.09-.36-.09-.32-.18-.63-.28-.95-.06-.21-.12-.41-.18-.62-.02-.06-.03-.12-.05-.17-.17-.57-.36-1.14-.55-1.71,0,0,0-.01,0-.02-.02-.05-.04-.11-.06-.16-.17-.5-.34-1-.52-1.51-.03-.08-.06-.16-.09-.24-.07-.19-.14-.38-.22-.57-.1-.27-.2-.54-.3-.81-.07-.17-.14-.34-.21-.52-.08-.21-.17-.42-.25-.63-.06-.15-.12-.31-.19-.46-.13-.3-.26-.61-.39-.91-.07-.16-.14-.33-.21-.49-.02-.06-.05-.11-.07-.17-.24-.53-.48-1.07-.73-1.6-.01-.02-.02-.04-.03-.07-.07-.15-.15-.31-.22-.46-.19-.41-.39-.81-.59-1.22-.03-.06-.07-.13-.1-.19-.17-.33-.34-.66-.51-.99-.14-.27-.27-.54-.41-.8-.03-.05-.05-.1-.08-.14-.46-.86-.94-1.7-1.43-2.54-.04-.07-.08-.14-.12-.22-.05-.08-.1-.16-.15-.24-.7-1.18-1.43-2.34-2.18-3.48-.04-.06-.08-.13-.12-.19-.07-.1-.14-.2-.21-.31-.61-.9-1.23-1.8-1.88-2.67,0,0,0,0,0,0,0,0,0-.01-.01-.02-.46-.62-.92-1.23-1.39-1.83-.02-.03-.04-.05-.06-.08-.35-.44-.7-.87-1.06-1.31-.07-.08-.14-.17-.21-.25,0,0,0-.01-.01-.02-.42-.51-.85-1-1.28-1.49-.02-.02-.04-.05-.06-.07-.13-.15-.27-.3-.41-.45-.27-.3-.54-.61-.82-.9-.05-.06-.1-.11-.16-.16-.19-.2-.38-.4-.57-.6-.21-.22-.41-.44-.62-.65-.08-.08-.16-.15-.24-.23-.21-.21-.42-.41-.62-.62-.18-.17-.35-.35-.53-.53-.1-.1-.2-.19-.31-.29-.23-.21-.45-.42-.68-.63-.16-.14-.31-.29-.47-.43-.12-.11-.25-.22-.37-.33-.23-.2-.45-.4-.68-.6-.14-.12-.27-.24-.41-.36-.15-.13-.3-.25-.45-.37-.22-.18-.44-.37-.67-.55-.12-.09-.23-.19-.35-.28-.19-.15-.38-.29-.57-.44-.21-.16-.42-.32-.62-.48-.08-.06-.17-.13-.25-.19-.26-.19-.51-.37-.77-.55-.18-.13-.35-.25-.53-.38-.05-.03-.09-.07-.14-.1-.47-.32-.93-.63-1.4-.93,0,0,0,0-.01,0-.04-.02-.07-.04-.11-.07-.42-.27-.85-.53-1.28-.78-.11-.06-.22-.13-.32-.19-.35-.2-.7-.4-1.05-.59-.13-.07-.26-.14-.4-.21-.18-.1-.36-.19-.54-.28-.14-.07-.28-.15-.42-.22-.22-.11-.44-.21-.67-.31-.16-.07-.32-.15-.48-.22-.07-.03-.13-.06-.2-.09-.44-.2-.88-.38-1.31-.56,0,0-.02,0-.03-.01-.44-.18-.88-.34-1.32-.5-.06-.02-.11-.04-.17-.06-.16-.06-.32-.1-.48-.16-.23-.07-.45-.15-.68-.22-.11-.03-.22-.06-.33-.09-.2-.06-.39-.11-.58-.16-.15-.04-.3-.09-.45-.12-.16-.04-.31-.07-.47-.1-.19-.04-.39-.09-.58-.13-.1-.02-.21-.05-.31-.07-.18-.04-.36-.06-.54-.09-.22-.04-.45-.08-.67-.11-.08-.01-.16-.03-.24-.04-.19-.02-.37-.04-.55-.06-.24-.03-.48-.05-.71-.07-.07,0-.14-.02-.21-.02-.16-.01-.32,0-.48-.02-.28-.01-.56-.03-.84-.03-.08,0-.16,0-.24,0-.12,0-.24.01-.36.02-.35,0-.7.02-1.04.05-.1,0-.21,0-.31.01-.08,0-.15.02-.23.03-.52.05-1.04.13-1.55.22-.04,0-.09.01-.13.02-.01,0-.02,0-.04,0-.1.02-.2.05-.3.07-.32.07-.63.14-.94.23-.15.04-.3.09-.44.14-.2.06-.4.12-.59.19-.05.02-.09.04-.14.06-.3.11-.58.23-.87.36-.14.06-.29.12-.42.18-.42.2-.83.41-1.24.64l-2.99,1.74c.4-.23.81-.45,1.24-.64.14-.06.28-.12.42-.18.29-.13.58-.25.88-.36.24-.09.48-.17.73-.24.15-.05.29-.1.44-.14.31-.09.62-.16.93-.23.1-.02.21-.05.31-.07.05-.01.11-.02.16-.03.51-.1,1.03-.17,1.55-.23.18-.02.36-.03.54-.05.34-.03.69-.04,1.04-.05.2,0,.39-.01.59,0,.28,0,.56.01.84.03.23.01.45.02.69.04.24.02.48.05.71.07.26.03.52.06.78.09.22.03.45.07.67.11.28.05.56.1.85.16.19.04.39.08.58.13.3.07.61.15.92.23.19.05.39.1.58.16.33.1.67.2,1.01.31.16.05.32.1.48.16.99.34,2,.75,3.02,1.21.16.07.32.15.48.23.36.17.72.34,1.08.53.18.09.36.18.54.28.48.25.96.51,1.45.79.54.31,1.08.64,1.62.98.03.02.06.04.09.06.52.33,1.04.68,1.55,1.03.18.12.35.25.52.37.34.24.69.49,1.03.74.21.16.42.32.63.48.31.24.61.47.92.72.22.18.45.36.67.55.29.24.58.49.87.74.23.2.45.39.68.59.28.25.56.51.84.76.23.21.45.41.67.63.28.27.57.54.85.82.21.2.41.4.62.61.29.29.58.59.87.89.19.2.38.39.56.59.33.36.66.72.98,1.08.13.15.26.29.39.44.46.52.91,1.05,1.36,1.58.07.08.14.17.21.25.38.46.75.92,1.12,1.39.47.6.94,1.22,1.4,1.84,0,0,0,0,0,0,.64.87,1.27,1.77,1.88,2.67.11.17.22.33.33.5.76,1.14,1.48,2.3,2.18,3.48.09.15.18.3.27.45.49.84.97,1.69,1.43,2.55.17.31.33.63.49.94.17.33.35.66.51.99.24.47.47.94.69,1.42.07.15.15.3.22.45.29.61.56,1.22.83,1.84.07.16.14.33.21.49.2.46.39.91.57,1.37.09.21.17.42.25.63.18.44.35.88.51,1.33.07.19.14.38.21.57.21.58.42,1.17.62,1.75.02.05.04.1.05.15.21.63.41,1.27.61,1.9.06.21.12.41.18.62.13.44.25.87.37,1.31.07.24.13.48.19.73.11.41.21.82.31,1.23.06.24.11.48.17.72.1.42.18.84.27,1.26.05.22.09.44.14.67.11.55.2,1.1.29,1.64.01.08.03.16.04.24.1.63.19,1.25.26,1.87.02.18.04.36.06.53.05.44.1.89.13,1.33.02.21.04.43.05.64.03.42.06.84.08,1.25,0,.2.02.41.03.61.02.59.04,1.19.03,1.77,0,.62-.02,1.22-.05,1.82,0,.17-.02.33-.03.5-.02.41-.05.81-.09,1.21-.02.23-.05.46-.07.68-.04.34-.08.67-.12,1-.03.24-.07.48-.11.72-.05.3-.1.6-.15.9-.05.27-.1.53-.16.79-.06.27-.12.53-.18.79-.07.31-.15.61-.24.91-.06.23-.13.46-.2.69-.11.36-.23.71-.35,1.05-.07.19-.13.37-.2.55-.22.58-.45,1.14-.71,1.68-.39.84-.83,1.62-1.3,2.36-.34.53-.7,1.02-1.07,1.5-.09.11-.18.23-.28.34-.36.44-.74.86-1.14,1.25-.03.03-.06.06-.09.09-.42.41-.87.79-1.33,1.15-.11.09-.22.17-.34.26-.47.35-.95.68-1.45.97l2.99-1.74c.5-.29.98-.62,1.45-.97.11-.08.23-.17.34-.26.46-.36.9-.74,1.33-1.15.03-.03.06-.06.09-.09.4-.39.77-.81,1.14-1.25.09-.11.19-.22.28-.34.38-.48.74-.97,1.07-1.5,0-.02.02-.03.03-.04.23-.35.44-.72.65-1.1,0,0,0,0,0,0,.21-.37.4-.76.59-1.16,0-.02.02-.04.02-.06.25-.54.49-1.1.71-1.68.02-.05.04-.1.06-.15.05-.13.09-.28.14-.41.12-.34.24-.69.35-1.05.03-.1.06-.18.09-.28.04-.13.07-.28.11-.41.08-.3.16-.6.23-.9.03-.13.07-.24.1-.37.03-.14.05-.28.08-.42.06-.26.11-.52.16-.79.03-.14.06-.27.08-.41.03-.16.05-.33.07-.49.04-.24.07-.48.11-.72.02-.12.04-.24.05-.37.03-.21.04-.42.07-.63.02-.23.05-.45.07-.68,0-.09.02-.18.03-.28.03-.31.04-.63.06-.94,0-.17.02-.33.03-.5,0-.04,0-.08,0-.12.02-.52.03-1.06.04-1.6,0-.03,0-.06,0-.09,0-.49,0-.99-.02-1.49Z"/>
          <ellipse class="cls-15" cx="33.05" cy="98.54" rx="26.98" ry="46.58" transform="translate(-45.04 29.94) rotate(-30.16)"/>
        </g>
        <g>
          <g class="cls-21">
            <polygon class="cls-15" points="2.73 123.84 2.74 118.95 35.36 137.78 35.34 142.67 2.73 123.84"/>
            <polygon class="cls-16" points="2.74 118.95 12.68 113.17 45.3 132 35.36 137.78 2.74 118.95"/>
            <polygon class="cls-17" points="35.36 137.78 45.3 132 45.28 136.9 35.34 142.67 35.36 137.78"/>
          </g>
          <g class="cls-21">
            <polygon class="cls-15" points="4.97 120.24 4.97 117.98 32.45 133.84 32.45 136.1 4.97 120.24"/>
            <polygon class="cls-16" points="4.97 117.98 14.91 112.2 42.39 128.07 32.45 133.84 4.97 117.98"/>
            <polygon class="cls-17" points="32.45 133.84 42.39 128.07 42.39 130.33 32.45 136.1 32.45 133.84"/>
          </g>
          <g class="cls-21">
            <polygon class="cls-15" points="8.16 119.89 8.21 103.13 29.21 115.25 29.16 132.01 8.16 119.89"/>
            <polygon class="cls-7" points="8.21 103.13 18.15 97.35 39.15 109.48 29.21 115.25 8.21 103.13"/>
            <polygon class="cls-17" points="29.21 115.25 39.15 109.48 39.1 126.23 29.16 132.01 29.21 115.25"/>
          </g>
          <g class="cls-21">
            <ellipse class="cls-15" cx="18.54" cy="97.13" rx="12.17" ry="21.02" transform="translate(-46.3 22.47) rotate(-30.16)"/>
            <path class="cls-11" d="m43.31,99.4c0-.24-.02-.48-.03-.72,0-.11-.02-.22-.03-.33,0-.05,0-.09-.01-.14,0-.08-.01-.17-.02-.25-.02-.24-.05-.49-.08-.73-.03-.25-.07-.5-.11-.75,0,0,0-.01,0-.02,0,0,0-.02,0-.03-.04-.23-.08-.47-.12-.7-.05-.26-.1-.52-.16-.78-.02-.09-.04-.18-.06-.28-.01-.05-.03-.11-.04-.16-.03-.11-.05-.23-.08-.34-.07-.26-.13-.53-.21-.79-.05-.19-.11-.39-.17-.58-.01-.04-.02-.07-.03-.11-.01-.03-.02-.07-.03-.1-.08-.26-.16-.51-.25-.77-.08-.25-.17-.51-.26-.76-.02-.05-.04-.09-.05-.14-.01-.04-.03-.08-.04-.11-.06-.16-.12-.32-.18-.48-.09-.24-.19-.48-.29-.72-.07-.17-.15-.35-.22-.52-.01-.03-.03-.06-.04-.09-.01-.03-.03-.07-.04-.1-.11-.24-.22-.48-.33-.72-.12-.26-.25-.53-.38-.79-.02-.04-.04-.08-.06-.12-.03-.05-.05-.1-.08-.15-.11-.21-.21-.42-.32-.62-.14-.26-.29-.51-.43-.77-.07-.13-.14-.26-.22-.39-.03-.05-.06-.1-.09-.15-.13-.22-.28-.44-.41-.66-.2-.32-.39-.64-.6-.95-.03-.05-.06-.1-.1-.15-.3-.45-.62-.9-.94-1.34,0,0,0,0,0,0,0,0,0,0,0,0-.22-.29-.44-.58-.66-.87-.18-.23-.37-.46-.55-.69,0,0,0-.01-.01-.02,0,0,0,0,0,0-.19-.23-.38-.45-.58-.67-.19-.22-.38-.43-.58-.64-.03-.03-.07-.07-.1-.1-.03-.04-.07-.07-.1-.1-.14-.15-.27-.29-.41-.43-.21-.21-.42-.42-.63-.62-.06-.06-.13-.12-.2-.18-.05-.05-.1-.09-.15-.14-.1-.1-.21-.2-.31-.29-.22-.2-.44-.39-.66-.58-.1-.08-.2-.16-.29-.24-.05-.04-.1-.08-.15-.12-.07-.06-.15-.12-.22-.18-.22-.17-.43-.34-.65-.5-.16-.12-.32-.23-.48-.34-.03-.02-.06-.04-.09-.06-.03-.02-.05-.04-.08-.06-.21-.14-.42-.28-.63-.42-.21-.13-.42-.26-.63-.39-.05-.03-.1-.06-.15-.09-.16-.09-.32-.18-.47-.27-.06-.03-.12-.06-.18-.09-.08-.04-.16-.08-.24-.13-.06-.03-.13-.07-.19-.1-.1-.05-.2-.09-.3-.14-.07-.03-.14-.07-.21-.1-.03-.01-.06-.03-.09-.04-.2-.09-.4-.17-.6-.25-.2-.08-.4-.16-.6-.23-.03,0-.05-.02-.08-.03-.07-.02-.14-.05-.21-.07-.1-.03-.2-.07-.3-.1-.05-.02-.1-.03-.15-.04-.09-.03-.18-.05-.26-.07-.07-.02-.14-.04-.2-.06-.07-.02-.14-.03-.21-.05-.09-.02-.18-.04-.26-.06-.05,0-.09-.02-.14-.03-.08-.02-.16-.03-.24-.04-.1-.02-.2-.04-.3-.05-.04,0-.07-.01-.11-.02-.08-.01-.16-.02-.25-.03-.11-.01-.22-.02-.32-.03-.03,0-.06,0-.09,0-.07,0-.14,0-.22,0-.13,0-.25-.01-.38-.01-.04,0-.07,0-.11,0-.05,0-.11,0-.16,0-.16,0-.32.01-.47.02-.05,0-.1,0-.14,0-.03,0-.07.01-.1.01-.24.02-.47.06-.7.1-.02,0-.04,0-.06,0,0,0,0,0-.01,0-.33.07-.64.16-.95.26-.03,0-.06.01-.08.02-.02,0-.04.02-.06.03-.13.05-.27.1-.4.16-.06.03-.13.05-.19.08-.19.09-.38.19-.56.29l-9.94,5.78c.18-.11.37-.2.56-.29.06-.03.13-.05.19-.08.13-.06.26-.11.4-.16.05-.02.1-.03.15-.05.31-.1.62-.19.95-.26.02,0,.05,0,.07-.01.23-.04.46-.08.7-.1.08,0,.16-.02.24-.02.15-.01.31-.02.47-.02.09,0,.18,0,.27,0,.13,0,.25,0,.38.01.1,0,.21,0,.31.02.11,0,.21.02.32.03.12.01.23.03.35.04.1.01.2.03.3.05.13.02.25.04.38.07.09.02.17.04.26.06.14.03.27.07.41.1.09.02.18.05.26.07.15.04.3.09.45.14.07.02.14.05.22.07.45.15.9.34,1.36.55.07.03.14.07.22.1.16.08.32.16.49.24.08.04.16.08.24.13.22.11.43.23.65.36.5.29,1,.61,1.49.95.03.02.06.04.09.06.46.32.91.66,1.35,1.02.05.04.1.08.15.12.43.35.85.72,1.27,1.11.05.05.1.09.15.14.42.4.83.81,1.24,1.24.03.04.07.07.1.11.43.46.85.94,1.26,1.43,0,0,0,.01.01.02.42.5.82,1.02,1.22,1.56,0,0,0,0,0,0,.36.48.7.98,1.03,1.49.21.31.4.64.6.96.17.27.34.53.5.81.08.13.15.26.22.39.26.46.51.92.75,1.39.03.05.05.1.08.15.29.57.56,1.15.81,1.73.01.03.03.06.04.09.25.57.48,1.14.69,1.72.01.04.03.08.04.12.22.59.42,1.18.59,1.77.01.04.02.07.03.11.17.57.32,1.14.46,1.71.01.05.03.11.04.16.13.59.25,1.17.34,1.76,0,0,0,.02,0,.03.09.59.16,1.17.21,1.75,0,.05,0,.1.01.14.05.58.07,1.16.07,1.72,0,.28,0,.55-.02.82,0,.08,0,.15-.01.23-.01.18-.02.37-.04.54,0,.1-.02.21-.03.31-.02.15-.03.3-.05.45-.01.11-.03.22-.05.32-.02.14-.05.27-.07.41-.02.12-.05.24-.07.36-.03.12-.05.24-.08.36-.03.14-.07.27-.11.41-.03.1-.06.21-.09.31-.05.16-.1.32-.16.47-.03.08-.06.17-.09.25-.1.26-.2.51-.32.76-.01.03-.03.05-.04.08-.16.32-.32.63-.51.92-.01.02-.03.05-.04.07-.15.24-.31.46-.48.67-.04.05-.08.1-.12.15-.16.2-.33.39-.51.56-.01.01-.03.03-.04.04-.19.19-.39.36-.6.52-.05.04-.1.08-.15.12-.21.16-.43.31-.66.44l9.94-5.78c.23-.13.44-.28.66-.44.05-.04.1-.08.15-.12.21-.16.41-.33.6-.52.01-.01.03-.03.04-.04.18-.18.35-.37.51-.56.04-.05.08-.1.12-.15.17-.21.33-.44.48-.67,0,0,0-.01.01-.02.01-.02.02-.03.03-.05.18-.29.35-.6.51-.92,0-.02.02-.03.03-.05,0,0,0-.02.01-.03.11-.24.22-.5.32-.76,0-.02.02-.04.03-.07.02-.06.04-.12.06-.19.05-.16.11-.31.16-.47.01-.04.03-.08.04-.13.02-.06.03-.13.05-.19.04-.13.07-.27.11-.41.01-.06.03-.11.04-.17.01-.06.02-.13.04-.19.03-.12.05-.24.07-.36.01-.06.03-.12.04-.18.01-.07.02-.15.03-.22.02-.11.03-.22.05-.33,0-.06.02-.11.02-.17.01-.09.02-.19.03-.29.01-.1.02-.2.03-.31,0-.04,0-.08.01-.12.01-.14.02-.28.03-.43,0-.07.01-.15.01-.22,0-.02,0-.04,0-.06.01-.24.02-.48.02-.72,0-.01,0-.03,0-.04,0-.22,0-.45,0-.67Z"/>
          </g>
          <g class="cls-21">
            <path class="cls-8" d="m29.46,102.37c0-.17-.01-.34-.02-.51,0-.08-.01-.15-.02-.23,0-.03,0-.07,0-.1,0-.06,0-.12-.01-.18-.02-.17-.04-.34-.06-.51-.02-.18-.05-.35-.08-.53,0,0,0-.01,0-.02,0,0,0-.01,0-.02-.03-.16-.05-.33-.09-.49-.03-.18-.07-.37-.11-.55-.01-.07-.03-.13-.05-.2,0-.04-.02-.08-.03-.11-.02-.08-.04-.16-.06-.24-.05-.19-.09-.37-.15-.56-.04-.14-.08-.27-.12-.41,0-.02-.01-.05-.02-.07,0-.02-.01-.05-.02-.07-.06-.18-.11-.36-.17-.54-.06-.18-.12-.36-.19-.54-.01-.03-.03-.07-.04-.1,0-.03-.02-.05-.03-.08-.04-.11-.08-.22-.13-.33-.07-.17-.13-.34-.21-.51-.05-.12-.1-.25-.16-.37,0-.02-.02-.04-.03-.06-.01-.02-.02-.05-.03-.07-.08-.17-.15-.34-.23-.51-.09-.19-.18-.37-.27-.56-.01-.03-.03-.06-.04-.09-.02-.04-.04-.07-.06-.11-.07-.15-.15-.29-.23-.44-.1-.18-.2-.36-.3-.54-.05-.09-.1-.18-.15-.27-.02-.04-.04-.07-.06-.11-.09-.16-.19-.31-.29-.46-.14-.23-.28-.45-.42-.68-.02-.04-.04-.07-.07-.11-.21-.32-.43-.63-.66-.94,0,0,0,0,0,0-.15-.21-.31-.41-.47-.61-.13-.16-.26-.32-.39-.48,0,0,0,0,0-.01,0,0,0,0,0,0-.13-.16-.27-.32-.41-.48-.13-.15-.27-.3-.41-.45-.02-.02-.05-.05-.07-.07-.02-.02-.05-.05-.07-.07-.1-.1-.19-.21-.29-.31-.15-.15-.29-.3-.44-.44-.05-.04-.09-.09-.14-.13-.03-.03-.07-.06-.1-.1-.07-.07-.15-.14-.22-.2-.15-.14-.31-.28-.47-.41-.07-.06-.14-.11-.21-.17-.03-.03-.07-.06-.1-.09-.05-.04-.1-.09-.16-.13-.15-.12-.31-.24-.46-.35-.11-.08-.22-.16-.34-.24-.02-.01-.04-.03-.06-.04-.02-.01-.04-.03-.06-.04-.15-.1-.3-.2-.45-.3-.15-.09-.3-.18-.44-.27-.03-.02-.07-.04-.1-.06-.11-.06-.22-.13-.33-.19-.14-.08-.29-.15-.43-.22-.09-.05-.18-.09-.28-.13-.02-.01-.04-.02-.07-.03-.03-.01-.05-.03-.08-.04-.14-.06-.28-.12-.42-.18-.14-.06-.28-.11-.42-.16-.02,0-.05-.02-.07-.02-.02,0-.04-.01-.06-.02-.1-.03-.19-.06-.28-.09-.15-.04-.29-.08-.43-.12-.07-.02-.14-.03-.21-.05-.03,0-.06-.01-.09-.02-.04,0-.09-.02-.13-.03-.15-.03-.31-.06-.46-.08-.09-.01-.18-.02-.28-.03-.03,0-.07,0-.1,0-.03,0-.06,0-.09,0-.17-.01-.33-.02-.49-.02-.07,0-.14,0-.21.01-.05,0-.11,0-.16,0-.06,0-.11,0-.17,0-.21.02-.41.05-.61.09,0,0,0,0-.01,0-.04,0-.09.03-.13.04-.2.05-.4.1-.59.16-.02,0-.03.02-.05.02-.28.1-.55.22-.81.37l-1.99,1.16c.26-.15.53-.27.81-.37.21-.08.42-.13.64-.18.04-.01.09-.03.13-.04.25-.05.52-.08.79-.1.05,0,.11,0,.16,0,.26,0,.53,0,.8.02.03,0,.06,0,.1,0,.28.03.58.07.87.13.03,0,.06.01.09.02.3.07.61.15.93.26.02,0,.04.01.06.02.33.11.66.25,1,.4.02.01.04.02.07.03.34.16.69.34,1.04.54.36.21.71.43,1.05.67.02.01.04.03.06.04.32.23.64.47.95.72.04.03.07.06.1.09.3.25.6.51.89.78.03.03.07.06.1.1.3.28.59.57.87.87.02.03.05.05.07.08.3.32.6.66.89,1.01,0,0,0,0,.01.01.29.36.58.72.86,1.1,0,0,0,0,0,0,.25.34.5.7.73,1.05.15.22.28.45.42.68.12.19.24.38.35.57.05.09.1.18.15.27.18.32.36.65.53.98.02.04.04.07.06.11.2.4.39.81.57,1.22,0,.02.02.04.03.06.18.4.34.81.49,1.21,0,.03.02.05.03.08.15.42.29.83.42,1.25,0,.02.01.05.02.07.12.4.23.81.32,1.21,0,.04.02.08.03.11.09.41.18.83.24,1.24,0,0,0,.01,0,.02.07.42.11.83.15,1.24,0,.03,0,.07,0,.1.03.41.05.81.05,1.21,0,.4-.02.78-.06,1.15,0,.03,0,.07-.01.1-.03.34-.08.67-.14.98,0,.04-.02.08-.03.13-.06.3-.14.6-.23.87-.02.05-.03.1-.05.15-.09.26-.18.51-.29.75-.01.03-.02.06-.03.08-.13.27-.27.53-.42.77-.02.03-.04.06-.07.09-.13.19-.26.37-.41.54-.05.06-.11.12-.16.18-.13.14-.26.26-.39.38-.06.05-.11.1-.17.15-.19.15-.4.3-.61.42l1.99-1.16c.21-.12.41-.27.61-.42.06-.05.11-.1.17-.15.14-.12.27-.25.39-.38.05-.06.11-.12.16-.18.14-.17.28-.35.41-.54.02-.03.04-.06.06-.09,0,0,.01-.01.01-.02.14-.23.28-.47.4-.72,0,0,0-.02.01-.03.01-.03.02-.05.03-.08.07-.16.14-.32.21-.49.03-.08.06-.17.09-.26.02-.05.03-.1.05-.15.01-.05.03-.09.05-.14.05-.17.1-.35.14-.54.01-.06.03-.13.04-.2,0-.04.02-.08.03-.13.01-.06.03-.13.04-.19.03-.16.05-.33.08-.5.01-.09.02-.19.03-.29,0-.03,0-.07.01-.1,0-.04,0-.08.01-.12.01-.16.02-.33.03-.5,0-.17.01-.34.01-.51,0-.01,0-.02,0-.03,0-.16,0-.31,0-.47Z"/>
            <path class="cls-6" d="m16.99,85.89c5.81,3.35,10.5,11.48,10.48,18.15-.02,6.67-4.74,9.37-10.55,6.01s-10.5-11.48-10.48-18.15,4.74-9.36,10.55-6.01Z"/>
          </g>
          <g class="cls-21">
            <polygon class="cls-15" points="30.04 97.26 30.05 93.33 32.05 94.48 32.04 98.42 30.04 97.26"/>
            <polygon class="cls-16" points="30.05 93.33 39.99 87.55 41.99 88.7 32.05 94.48 30.05 93.33"/>
            <polygon class="cls-17" points="32.05 94.48 41.99 88.7 41.98 92.64 32.04 98.42 32.05 94.48"/>
          </g>
          <path class="cls-2" d="m16.68,87.99c4.92,2.84,8.89,9.72,8.87,15.37s-4.01,7.93-8.93,5.09c-4.92-2.84-8.89-9.72-8.87-15.37.02-5.65,4.01-7.93,8.93-5.09Z"/>
          <path class="cls-3" d="m16.74,88.3c4.92,2.84,8.89,9.72,8.87,15.37s-4.01,7.93-8.93,5.09-8.89-9.72-8.87-15.37c.02-5.65,4.01-7.93,8.93-5.09Z"/>
          <path class="cls-14" d="m17.14,108.07c-4.92-2.84-8.89-9.72-8.87-15.37,0-2.46.77-4.28,2.03-5.32-1.57.94-2.55,2.9-2.55,5.68-.02,5.65,3.96,12.53,8.87,15.37,2.78,1.6,5.26,1.57,6.9.23-1.62.97-3.88.86-6.38-.59Z"/>
        </g>
      </g>
    </g>
  </g>
</svg>