<svg xmlns="http://www.w3.org/2000/svg" xmlns:xlink="http://www.w3.org/1999/xlink" viewBox="0 0 150 150"><defs><style>.cls-1,.cls-2{fill:none;}.cls-2{stroke:#fff;stroke-miterlimit:10;stroke-width:0.1px;}.cls-3{opacity:0;}.cls-4{fill:#000714;}.cls-5{opacity:0.1;fill:url(#新建图案);}.cls-6{isolation:isolate;}.cls-7{fill:#4e5f79;}.cls-8{fill:url(#未命名的渐变_1827);}.cls-9{fill:url(#未命名的渐变_333);}.cls-10{fill:#171d23;}.cls-11{fill:#7696cb;}.cls-12{fill:#0e4ad2;}.cls-13{fill:#439ef5;}.cls-14{fill:#5bc5ff;}.cls-15{fill:url(#未命名的渐变_1827-2);}.cls-16{fill:url(#未命名的渐变_333-2);}.cls-17{fill:#0663de;}.cls-18{fill:url(#未命名的渐变_337);}.cls-19{fill:url(#未命名的渐变_78);}.cls-20{fill:url(#未命名的渐变_1827-3);}.cls-21{fill:url(#未命名的渐变_333-3);}.cls-22{fill:url(#未命名的渐变_1827-4);}.cls-23{fill:url(#未命名的渐变_333-4);}.cls-24{fill:url(#未命名的渐变_337-2);}.cls-25{fill:url(#未命名的渐变_78-2);}.cls-26{fill:#8c8c8c;}.cls-27{fill:#c2c2c2;}.cls-28{fill:url(#未命名的渐变_78-3);}.cls-29{fill:url(#未命名的渐变_337-3);}.cls-30{fill:url(#未命名的渐变_339);}.cls-31{fill:#d2d2d2;}.cls-32{fill:url(#未命名的渐变_337-4);}.cls-33{fill:url(#未命名的渐变_339-2);}.cls-34{fill:#f0f0f0;}.cls-35{fill:url(#未命名的渐变_78-4);}.cls-36{fill:url(#未命名的渐变_337-5);}.cls-37{opacity:0.2;mix-blend-mode:overlay;}.cls-38{fill:#fff;}.cls-39{fill:url(#未命名的渐变_339-3);}.cls-40{fill:url(#未命名的渐变_78-5);}.cls-41{opacity:0.2;}</style><pattern id="新建图案" data-name="新建图案" width="18.57" height="32.16" patternTransform="translate(3637.65 727.44)" patternUnits="userSpaceOnUse" viewBox="0 0 18.57 32.16"><rect class="cls-1" width="18.57" height="32.16"/><polyline class="cls-2" points="18.57 21.44 18.57 32.16 18.57 42.88"/><polyline class="cls-2" points="9.29 26.8 18.57 32.16 27.85 37.51 27.85 37.52"/><polyline class="cls-2" points="9.29 37.52 9.29 37.51 18.57 32.16 27.85 26.8"/><polygon class="cls-2" points="27.85 37.52 27.85 26.8 18.57 21.44 9.28 26.8 9.28 37.52 18.57 42.88 27.85 37.52"/><polyline class="cls-2" points="0 21.44 0 32.16 0 42.88"/><polyline class="cls-2" points="-9.28 26.8 0 32.16 9.28 37.51 9.28 37.52"/><polyline class="cls-2" points="-9.28 37.52 -9.28 37.51 0 32.16 9.28 26.8"/><polygon class="cls-2" points="9.28 37.52 9.28 26.8 0 21.44 -9.29 26.8 -9.29 37.52 0 42.88 9.28 37.52"/><polyline class="cls-2" points="18.57 10.72 27.85 16.08 37.13 21.43 37.13 21.44"/><polyline class="cls-2" points="18.57 21.44 18.57 21.43 27.85 16.08 37.13 10.72"/><polygon class="cls-2" points="37.14 21.44 37.14 10.72 27.85 5.36 18.57 10.72 18.57 21.44 27.85 26.8 37.14 21.44"/><polyline class="cls-2" points="9.29 5.36 9.29 16.08 9.29 26.8"/><polyline class="cls-2" points="0.01 10.72 9.29 16.08 18.57 21.43 18.57 21.44"/><polyline class="cls-2" points="0.01 21.44 0.01 21.43 9.29 16.08 18.57 10.72"/><polygon class="cls-2" points="18.57 21.44 18.57 10.72 9.28 5.36 0 10.72 0 21.44 9.28 26.8 18.57 21.44"/><polyline class="cls-2" points="-18.56 10.72 -9.28 16.08 0 21.43 0 21.44"/><polyline class="cls-2" points="-18.56 21.44 -18.56 21.43 -9.28 16.08 0 10.72"/><polygon class="cls-2" points="0 21.44 0 10.72 -9.29 5.36 -18.57 10.72 -18.57 21.44 -9.29 26.8 0 21.44"/><polyline class="cls-2" points="18.57 -10.72 18.57 0 18.57 10.72"/><polyline class="cls-2" points="9.29 -5.36 18.57 0 27.85 5.35 27.85 5.36"/><polyline class="cls-2" points="9.29 5.36 9.29 5.35 18.57 0 27.85 -5.36"/><polygon class="cls-2" points="27.85 5.36 27.85 -5.36 18.57 -10.72 9.28 -5.36 9.28 5.36 18.57 10.72 27.85 5.36"/><polyline class="cls-2" points="0 -10.72 0 0 0 10.72"/><polyline class="cls-2" points="-9.28 -5.36 0 0 9.28 5.35 9.28 5.36"/><polyline class="cls-2" points="-9.28 5.36 -9.28 5.35 0 0 9.28 -5.36"/><polygon class="cls-2" points="9.28 5.36 9.28 -5.36 0 -10.72 -9.29 -5.36 -9.29 5.36 0 10.72 9.28 5.36"/></pattern><linearGradient id="未命名的渐变_1827" x1="43.22" y1="122.7" x2="39.03" y2="118.5" gradientUnits="userSpaceOnUse"><stop offset="0" stop-color="#425266"/><stop offset="1" stop-color="#596b8c"/></linearGradient><linearGradient id="未命名的渐变_333" x1="43.94" y1="122.48" x2="40.9" y2="117.22" gradientUnits="userSpaceOnUse"><stop offset="0" stop-color="#283140"/><stop offset="0.1" stop-color="#12161a"/><stop offset="0.75" stop-color="#7a98cc"/><stop offset="0.85" stop-color="#7a98cc"/><stop offset="1" stop-color="#38455a"/></linearGradient><linearGradient id="未命名的渐变_1827-2" x1="65.11" y1="110.03" x2="60.91" y2="105.84" xlink:href="#未命名的渐变_1827"/><linearGradient id="未命名的渐变_333-2" x1="65.83" y1="109.81" x2="62.79" y2="104.56" xlink:href="#未命名的渐变_333"/><linearGradient id="未命名的渐变_337" x1="40.99" y1="49.9" x2="69.75" y2="21.14" gradientUnits="userSpaceOnUse"><stop offset="0" stop-color="#0073e6"/><stop offset="1" stop-color="#143ccc"/></linearGradient><linearGradient id="未命名的渐变_78" x1="32.3" y1="31.72" x2="71.8" y2="31.72" gradientUnits="userSpaceOnUse"><stop offset="0" stop-color="#8ce2ff"/><stop offset="1" stop-color="#44b6ff"/></linearGradient><linearGradient id="未命名的渐变_1827-3" x1="89.14" y1="149.33" x2="84.94" y2="145.14" xlink:href="#未命名的渐变_1827"/><linearGradient id="未命名的渐变_333-3" x1="89.85" y1="149.11" x2="86.82" y2="143.85" xlink:href="#未命名的渐变_333"/><linearGradient id="未命名的渐变_1827-4" x1="111.03" y1="136.66" x2="106.83" y2="132.47" xlink:href="#未命名的渐变_1827"/><linearGradient id="未命名的渐变_333-4" x1="111.74" y1="136.44" x2="108.71" y2="131.19" xlink:href="#未命名的渐变_333"/><linearGradient id="未命名的渐变_337-2" x1="86.9" y1="76.53" x2="115.66" y2="47.77" xlink:href="#未命名的渐变_337"/><linearGradient id="未命名的渐变_78-2" x1="78.22" y1="58.35" x2="117.72" y2="58.35" xlink:href="#未命名的渐变_78"/><linearGradient id="未命名的渐变_78-3" x1="27.44" y1="42.31" x2="122.57" y2="42.31" xlink:href="#未命名的渐变_78"/><linearGradient id="未命名的渐变_337-3" x1="91.18" y1="75.59" x2="119.7" y2="47.07" xlink:href="#未命名的渐变_337"/><linearGradient id="未命名的渐变_339" x1="82.6" y1="78.43" x2="33.15" y2="28.97" gradientUnits="userSpaceOnUse"><stop offset="0" stop-color="#2f77eb"/><stop offset="1" stop-color="#59c8ff"/></linearGradient><linearGradient id="未命名的渐变_337-4" x1="85.39" y1="63.27" x2="116.72" y2="31.94" xlink:href="#未命名的渐变_337"/><linearGradient id="未命名的渐变_339-2" x1="87.82" y1="65.7" x2="38.05" y2="15.93" xlink:href="#未命名的渐变_339"/><linearGradient id="未命名的渐变_78-4" x1="51.33" y1="17.35" x2="115.39" y2="17.35" xlink:href="#未命名的渐变_78"/><linearGradient id="未命名的渐变_337-5" x1="89.56" y1="49.06" x2="112.56" y2="26.06" xlink:href="#未命名的渐变_337"/><linearGradient id="未命名的渐变_339-3" x1="81.72" y1="51.24" x2="42.02" y2="11.54" xlink:href="#未命名的渐变_339"/><linearGradient id="未命名的渐变_78-5" x1="37.01" y1="25.62" x2="101.05" y2="25.62" xlink:href="#未命名的渐变_78"/></defs><title>移动式进水闸门启闭机</title><g id="图层_2" data-name="图层 2"><g id="图元"><g id="移动式进水闸门启闭机"><g id="背景" class="cls-3"><rect class="cls-4" width="150" height="150"/><rect id="网格" class="cls-5" width="150" height="150"/></g><g class="cls-6"><polygon class="cls-7" points="44.52 117.75 40.24 115.25 40.24 117.8 44.53 120.29 44.52 117.75"/><g class="cls-6"><path class="cls-8" d="M41.12,118.12C40,117.44,39,118,39,119.34a4.78,4.78,0,0,0,2.13,3.73c1.21.69,2.18.14,2.18-1.24A4.73,4.73,0,0,0,41.12,118.12Z"/><path class="cls-9" d="M42.19,117.49a1.52,1.52,0,0,0-1.52-.13L39.6,118a1.5,1.5,0,0,1,1.52.14,4.73,4.73,0,0,1,2.16,3.71,1.51,1.51,0,0,1-.63,1.39l1.07-.62a1.55,1.55,0,0,0,.64-1.4A4.8,4.8,0,0,0,42.19,117.49Z"/></g><polygon class="cls-10" points="44.99 116.99 42 118.71 42.01 121.75 42.44 121.5 42.43 118.96 44.52 117.75 44.53 120.29 45 120.02 44.99 116.99"/><polygon class="cls-7" points="42 118.71 37.71 116.22 37.72 119.25 42.01 121.75 42 118.71"/><polygon class="cls-11" points="40.7 114.5 37.71 116.22 42 118.71 44.99 116.99 40.7 114.5"/></g><g class="cls-6"><polygon class="cls-12" points="40.44 48.97 42.31 119.33 45.27 117.63 46.74 45.33 40.44 48.97"/><polygon class="cls-13" points="40.44 48.97 35.47 46.09 37.34 116.44 42.31 119.33 40.44 48.97"/><polygon class="cls-14" points="41.77 42.45 35.47 46.09 40.44 48.97 46.74 45.33 41.77 42.45"/></g><g class="cls-6"><polygon class="cls-7" points="66.41 105.08 62.13 102.59 62.13 105.13 66.42 107.62 66.41 105.08"/><g class="cls-6"><path class="cls-15" d="M63,105.45c-1.17-.67-2.14-.12-2.15,1.22A4.78,4.78,0,0,0,63,110.4c1.21.7,2.18.14,2.18-1.24A4.73,4.73,0,0,0,63,105.45Z"/><path class="cls-16" d="M64.08,104.83a1.5,1.5,0,0,0-1.52-.14l-1.07.62a1.5,1.5,0,0,1,1.52.14,4.73,4.73,0,0,1,2.16,3.71,1.53,1.53,0,0,1-.63,1.4l1.07-.63a1.51,1.51,0,0,0,.63-1.39A4.73,4.73,0,0,0,64.08,104.83Z"/></g><polygon class="cls-10" points="66.88 104.32 63.89 106.05 63.9 109.08 64.32 108.83 64.32 106.29 66.41 105.08 66.42 107.62 66.89 107.35 66.88 104.32"/><polygon class="cls-7" points="63.89 106.05 59.6 103.55 59.61 106.59 63.9 109.08 63.89 106.05"/><polygon class="cls-11" points="62.59 101.83 59.6 103.55 63.89 106.05 66.88 104.32 62.59 101.83"/></g><g class="cls-6"><polygon class="cls-12" points="62.33 36.31 64.2 106.67 67.16 104.96 68.63 32.67 62.33 36.31"/><polygon class="cls-13" points="62.33 36.31 57.36 33.42 59.23 103.78 64.2 106.67 62.33 36.31"/><polygon class="cls-14" points="63.66 29.78 57.36 33.42 62.33 36.31 68.63 32.67 63.66 29.78"/></g><g class="cls-6"><polygon class="cls-17" points="61.7 35.2 56.73 32.31 57.36 33.48 62.33 36.37 61.7 35.2"/><polygon class="cls-17" points="37.28 46.2 32.31 43.31 35.5 46.11 40.47 49 37.28 46.2"/><polygon class="cls-18" points="71.8 23.2 37.27 43.13 37.28 46.2 40.47 49 46.77 45.36 47.4 43.45 61.7 35.2 62.33 36.37 68.65 32.73 71.81 26.26 71.8 23.2"/><polygon class="cls-13" points="37.27 43.13 32.3 40.24 32.31 43.31 37.28 46.2 37.27 43.13"/><polygon class="cls-19" points="66.83 20.31 32.3 40.24 37.27 43.13 71.8 23.2 66.83 20.31"/></g><g class="cls-6"><polygon class="cls-7" points="90.44 144.38 86.15 141.88 86.16 144.43 90.45 146.92 90.44 144.38"/><g class="cls-6"><path class="cls-20" d="M87,144.75c-1.16-.67-2.14-.12-2.14,1.22A4.75,4.75,0,0,0,87,149.7c1.2.7,2.18.14,2.18-1.24A4.74,4.74,0,0,0,87,144.75Z"/><path class="cls-21" d="M88.1,144.12a1.5,1.5,0,0,0-1.51-.13l-1.07.62a1.48,1.48,0,0,1,1.51.14,4.74,4.74,0,0,1,2.17,3.71,1.51,1.51,0,0,1-.63,1.39l1.07-.62a1.53,1.53,0,0,0,.63-1.4A4.75,4.75,0,0,0,88.1,144.12Z"/></g><polygon class="cls-10" points="90.91 143.62 87.92 145.34 87.92 148.38 88.35 148.13 88.34 145.59 90.44 144.38 90.45 146.92 90.91 146.65 90.91 143.62"/><polygon class="cls-7" points="87.92 145.34 83.63 142.85 83.64 145.89 87.92 148.38 87.92 145.34"/><polygon class="cls-11" points="86.62 141.13 83.63 142.85 87.92 145.34 90.91 143.62 86.62 141.13"/></g><g class="cls-6"><polygon class="cls-12" points="86.36 75.61 88.22 145.97 91.18 144.25 92.66 71.97 86.36 75.61"/><polygon class="cls-13" points="86.36 75.61 81.38 72.72 83.25 143.08 88.22 145.97 86.36 75.61"/><polygon class="cls-14" points="87.69 69.08 81.38 72.72 86.36 75.61 92.66 71.97 87.69 69.08"/></g><g class="cls-6"><polygon class="cls-7" points="112.33 131.71 108.04 129.22 108.05 131.76 112.34 134.25 112.33 131.71"/><g class="cls-6"><path class="cls-22" d="M108.92,132.08c-1.16-.67-2.14-.12-2.14,1.22a4.75,4.75,0,0,0,2.13,3.73c1.2.7,2.18.14,2.18-1.24A4.76,4.76,0,0,0,108.92,132.08Z"/><path class="cls-23" d="M110,131.46a1.48,1.48,0,0,0-1.51-.14l-1.07.62a1.48,1.48,0,0,1,1.51.14,4.76,4.76,0,0,1,2.17,3.71,1.53,1.53,0,0,1-.63,1.4l1.07-.63a1.51,1.51,0,0,0,.63-1.39A4.74,4.74,0,0,0,110,131.46Z"/></g><polygon class="cls-10" points="112.79 130.95 109.8 132.68 109.81 135.71 110.24 135.46 110.23 132.92 112.33 131.71 112.34 134.25 112.8 133.98 112.79 130.95"/><polygon class="cls-7" points="109.8 132.68 105.52 130.19 105.53 133.22 109.81 135.71 109.8 132.68"/><polygon class="cls-11" points="108.51 128.46 105.52 130.19 109.8 132.68 112.79 130.95 108.51 128.46"/></g><g class="cls-6"><polygon class="cls-12" points="108.24 62.94 110.11 133.3 113.07 131.59 114.55 59.3 108.24 62.94"/><polygon class="cls-13" points="108.24 62.94 103.27 60.05 105.14 130.41 110.11 133.3 108.24 62.94"/><polygon class="cls-14" points="109.58 56.41 103.27 60.05 108.24 62.94 114.55 59.3 109.58 56.41"/></g><g class="cls-6"><polygon class="cls-17" points="107.61 61.83 102.64 58.94 103.28 60.11 108.25 63 107.61 61.83"/><polygon class="cls-17" points="83.2 72.83 78.23 69.94 81.41 72.74 86.39 75.63 83.2 72.83"/><polygon class="cls-24" points="117.72 49.83 83.19 69.76 83.2 72.83 86.39 75.63 92.69 71.99 93.32 70.08 107.61 61.83 108.25 63 114.57 59.36 117.73 52.89 117.72 49.83"/><polygon class="cls-13" points="83.19 69.76 78.22 66.87 78.23 69.94 83.2 72.83 83.19 69.76"/><polygon class="cls-25" points="112.75 46.94 78.22 66.87 83.19 69.76 117.72 49.83 112.75 46.94"/></g><g class="cls-6"><polygon class="cls-26" points="42.4 34.69 42.39 37.57 61.73 26.33 61.73 23.45 42.4 34.69"/><polygon class="cls-27" points="61.73 23.45 61.73 26.33 107.59 52.81 107.6 49.94 61.73 23.45"/><path class="cls-28" d="M61.69,14.78,27.44,34.69,88.32,69.84l34.25-19.9Zm26.57,46.4L42.39,34.69,61.73,23.45,107.6,49.94Z"/><polygon class="cls-29" points="88.32 69.84 88.31 72.72 122.56 52.81 122.57 49.94 88.32 69.84"/><polygon class="cls-30" points="27.43 34.69 27.43 37.56 88.31 72.72 88.32 69.84 27.43 34.69"/></g><g class="cls-6"><polygon class="cls-31" points="64.58 0.61 51.31 5.98 101.02 34.87 114.29 29.5 64.58 0.61"/><polygon class="cls-32" points="114.29 29.5 101.02 34.87 87.76 44.82 87.82 65.7 114.35 50.39 114.29 29.5"/><polygon class="cls-33" points="87.76 44.82 38.05 15.93 38.11 36.81 87.82 65.7 87.76 44.82"/><polygon class="cls-34" points="51.31 5.98 38.05 15.93 87.76 44.82 101.02 34.87 51.31 5.98"/></g><g class="cls-6"><polygon class="cls-35" points="65.67 0 51.34 5.8 101.05 34.69 115.39 28.89 65.67 0"/><polygon class="cls-36" points="115.39 28.89 101.05 34.69 86.72 45.44 86.72 46.23 101.05 35.48 115.39 29.68 115.39 28.89"/><g class="cls-37"><polygon class="cls-38" points="115.39 28.89 101.05 34.69 86.72 45.44 86.72 46.23 101.05 35.48 115.39 29.68 115.39 28.89"/></g><polygon class="cls-39" points="86.72 45.44 37.01 16.55 37.01 17.34 86.72 46.23 86.72 45.44"/><g class="cls-37"><polygon class="cls-38" points="86.72 45.44 37.01 16.55 37.01 17.34 86.72 46.23 86.72 45.44"/></g><polygon class="cls-40" points="51.34 5.8 37.01 16.55 86.72 45.44 101.05 34.69 51.34 5.8"/></g></g></g></g></svg>