<svg xmlns="http://www.w3.org/2000/svg" xmlns:xlink="http://www.w3.org/1999/xlink" viewBox="0 0 150 150"><defs><style>.cls-1,.cls-19,.cls-2{fill:none;}.cls-2{stroke:#fff;stroke-width:0.1px;}.cls-19,.cls-2{stroke-miterlimit:10;}.cls-3{opacity:0;}.cls-4{fill:#000714;}.cls-5{opacity:0.1;fill:url(#新建图案);}.cls-6{isolation:isolate;}.cls-7{fill:url(#未命名的渐变_19);}.cls-8{fill:url(#未命名的渐变_1823);}.cls-9{fill:url(#未命名的渐变_1823-2);}.cls-10{fill:url(#未命名的渐变_33);}.cls-11{fill:url(#未命名的渐变_44);}.cls-12{fill:url(#未命名的渐变_168);}.cls-13{fill:url(#未命名的渐变_1823-3);}.cls-14{fill:url(#未命名的渐变_13);}.cls-15{fill:#7696cb;}.cls-16{fill:#171d23;}.cls-17{fill:#526480;}.cls-18{opacity:0.2;mix-blend-mode:multiply;}.cls-19{stroke:#000714;stroke-width:0.25px;}.cls-20{fill:url(#未命名的渐变_29);}.cls-21{opacity:0.2;}</style><pattern id="新建图案" data-name="新建图案" width="18.57" height="32.16" patternTransform="translate(3035.82 761.35)" patternUnits="userSpaceOnUse" viewBox="0 0 18.57 32.16"><rect class="cls-1" width="18.57" height="32.16"/><polyline class="cls-2" points="18.57 21.44 18.57 32.16 18.57 42.88"/><polyline class="cls-2" points="9.29 26.8 18.57 32.16 27.85 37.51 27.85 37.52"/><polyline class="cls-2" points="9.29 37.52 9.29 37.51 18.57 32.16 27.85 26.8"/><polygon class="cls-2" points="27.85 37.52 27.85 26.8 18.57 21.44 9.28 26.8 9.28 37.52 18.57 42.88 27.85 37.52"/><polyline class="cls-2" points="0 21.44 0 32.16 0 42.88"/><polyline class="cls-2" points="-9.28 26.8 0 32.16 9.28 37.51 9.28 37.52"/><polyline class="cls-2" points="-9.28 37.52 -9.28 37.51 0 32.16 9.28 26.8"/><polygon class="cls-2" points="9.28 37.52 9.28 26.8 0 21.44 -9.29 26.8 -9.29 37.52 0 42.88 9.28 37.52"/><polyline class="cls-2" points="18.57 10.72 27.85 16.08 37.13 21.43 37.13 21.44"/><polyline class="cls-2" points="18.57 21.44 18.57 21.43 27.85 16.08 37.13 10.72"/><polygon class="cls-2" points="37.14 21.44 37.14 10.72 27.85 5.36 18.57 10.72 18.57 21.44 27.85 26.8 37.14 21.44"/><polyline class="cls-2" points="9.29 5.36 9.29 16.08 9.29 26.8"/><polyline class="cls-2" points="0.01 10.72 9.29 16.08 18.57 21.43 18.57 21.44"/><polyline class="cls-2" points="0.01 21.44 0.01 21.43 9.29 16.08 18.57 10.72"/><polygon class="cls-2" points="18.57 21.44 18.57 10.72 9.28 5.36 0 10.72 0 21.44 9.28 26.8 18.57 21.44"/><polyline class="cls-2" points="-18.56 10.72 -9.28 16.08 0 21.43 0 21.44"/><polyline class="cls-2" points="-18.56 21.44 -18.56 21.43 -9.28 16.08 0 10.72"/><polygon class="cls-2" points="0 21.44 0 10.72 -9.29 5.36 -18.57 10.72 -18.57 21.44 -9.29 26.8 0 21.44"/><polyline class="cls-2" points="18.57 -10.72 18.57 0 18.57 10.72"/><polyline class="cls-2" points="9.29 -5.36 18.57 0 27.85 5.35 27.85 5.36"/><polyline class="cls-2" points="9.29 5.36 9.29 5.35 18.57 0 27.85 -5.36"/><polygon class="cls-2" points="27.85 5.36 27.85 -5.36 18.57 -10.72 9.28 -5.36 9.28 5.36 18.57 10.72 27.85 5.36"/><polyline class="cls-2" points="0 -10.72 0 0 0 10.72"/><polyline class="cls-2" points="-9.28 -5.36 0 0 9.28 5.35 9.28 5.36"/><polyline class="cls-2" points="-9.28 5.36 -9.28 5.35 0 0 9.28 -5.36"/><polygon class="cls-2" points="9.28 5.36 9.28 -5.36 0 -10.72 -9.29 -5.36 -9.29 5.36 0 10.72 9.28 5.36"/></pattern><linearGradient id="未命名的渐变_19" y1="103.82" x2="149.84" y2="103.82" gradientUnits="userSpaceOnUse"><stop offset="0" stop-color="#5d7db3"/><stop offset="1" stop-color="#2d4466"/></linearGradient><linearGradient id="未命名的渐变_1823" x1="158.99" y1="80.19" x2="90.69" y2="11.89" gradientUnits="userSpaceOnUse"><stop offset="0" stop-color="#283140"/><stop offset="1" stop-color="#12161a"/></linearGradient><linearGradient id="未命名的渐变_1823-2" x1="-3.93" y1="114.37" x2="103.77" y2="6.67" xlink:href="#未命名的渐变_1823"/><linearGradient id="未命名的渐变_33" x1="96.68" y1="79.2" x2="137.41" y2="38.48" gradientUnits="userSpaceOnUse"><stop offset="0" stop-color="#0073e6"/><stop offset="1" stop-color="#143ccc"/></linearGradient><linearGradient id="未命名的渐变_44" x1="83.96" y1="73.07" x2="113.82" y2="21.36" gradientUnits="userSpaceOnUse"><stop offset="0" stop-color="#0073e6"/><stop offset="0.45" stop-color="#59c8ff"/><stop offset="0.8" stop-color="#59c8ff"/><stop offset="1" stop-color="#2596f0"/></linearGradient><linearGradient id="未命名的渐变_168" x1="59.31" y1="138.11" x2="-8.99" y2="69.81" gradientUnits="userSpaceOnUse"><stop offset="0" stop-color="#425266"/><stop offset="1" stop-color="#596b8c"/></linearGradient><linearGradient id="未命名的渐变_1823-3" x1="46.24" y1="143.33" x2="153.93" y2="35.63" xlink:href="#未命名的渐变_1823"/><linearGradient id="未命名的渐变_13" x1="0.16" y1="46.19" x2="150" y2="46.19" gradientUnits="userSpaceOnUse"><stop offset="0" stop-color="#89abe6"/><stop offset="1" stop-color="#547099"/></linearGradient><linearGradient id="未命名的渐变_29" x1="153.5" y1="97.54" x2="115.99" y2="60.03" gradientUnits="userSpaceOnUse"><stop offset="0" stop-color="#1b2533"/><stop offset="1" stop-color="#354359"/></linearGradient></defs><title>空调</title><g id="图层_2" data-name="图层 2"><g id="图元"><g id="空调"><g class="cls-3"><rect class="cls-4" width="150" height="150"/><rect id="网格" class="cls-5" width="150" height="150"/></g><g class="cls-6"><polygon class="cls-7" points="99.67 60.38 0 118.3 50.16 147.26 149.84 89.34 99.67 60.38"/><polygon class="cls-8" points="99.84 2.74 99.67 60.38 149.84 89.34 150 31.7 99.84 2.74"/><polygon class="cls-9" points="0.16 60.66 0 118.3 99.67 60.38 99.84 2.74 0.16 60.66"/><g class="cls-6"><path class="cls-10" d="M129.36,30.42C112.83,40,99.49,63.08,99.54,82.06l29.91-17.27Z"/><path class="cls-11" d="M104.44,15.94C87.92,25.48,74.57,48.6,74.62,67.58L99.54,82.06c-.05-19,13.29-42.1,29.82-51.64Z"/></g><path class="cls-12" d="M.16,60.66,0,118.3l50.16,29,.16-57.63Zm41.72,73.08L7.37,113.82l.12-39.63L42,94.11Z"/><path class="cls-13" d="M50.32,89.63l-.16,57.63,99.68-57.92L150,31.7Zm96-2.34-19.78,11.5.14-49.43,19.79-11.5Z"/><path class="cls-14" d="M99.84,2.74.16,60.66l50.16,29L150,31.7Zm.53,53.72L57.27,31.57,79.14,18.86l43.11,24.89ZM81,17.77,99.84,6.83,143,31.72,124.12,42.65Z"/><g class="cls-6"><polygon class="cls-15" points="7.37 113.82 5.5 114.9 41.87 135.9 43.74 134.81 7.37 113.82"/><polygon class="cls-16" points="5.62 73.11 5.5 114.9 7.37 113.82 7.49 72.02 5.62 73.11"/><path class="cls-17" d="M5,72l-.12,43.23L42.5,137l.12-43.23ZM41.87,135.9,5.5,114.9l.12-41.79L42,94.11Z"/><polygon class="cls-15" points="6.86 70.94 5 72.03 42.62 93.75 44.49 92.66 6.86 70.94"/><polygon class="cls-16" points="42.62 93.75 42.5 136.98 44.37 135.9 44.49 92.66 42.62 93.75"/></g><g class="cls-18"><polygon class="cls-19" points="20.93 52.69 7.22 60.65 50.32 85.54 64.03 77.57 20.93 52.69"/><polygon class="cls-19" points="65.9 76.48 98.5 57.54 55.39 32.66 22.8 51.6 65.9 76.48"/></g><g class="cls-6"><polygon class="cls-20" points="126.66 49.37 126.52 98.79 142.83 108.21 142.97 58.78 126.66 49.37"/><polygon class="cls-16" points="142.97 58.78 142.83 108.21 143.45 107.84 143.59 58.41 142.97 58.78"/><polygon class="cls-15" points="127.28 49 126.66 49.37 142.97 58.78 143.59 58.41 127.28 49"/></g></g></g></g></g></svg>