<?xml version="1.0" encoding="UTF-8"?>
<svg id="_图层_2" data-name="图层 2" xmlns="http://www.w3.org/2000/svg" xmlns:xlink="http://www.w3.org/1999/xlink" viewBox="0 0 150.14 150.03">
  <defs>
    <style>
      .cls-1 {
        fill: url(#_未命名的渐变_13);
      }

      .cls-1, .cls-2, .cls-3, .cls-4, .cls-5, .cls-6, .cls-7, .cls-8, .cls-9, .cls-10, .cls-11, .cls-12, .cls-13, .cls-14, .cls-15, .cls-16, .cls-17, .cls-18, .cls-19, .cls-20, .cls-21 {
        stroke-width: 0px;
      }

      .cls-2 {
        fill: url(#_未命名的渐变_17);
      }

      .cls-3 {
        fill: url(#_未命名的渐变_21);
      }

      .cls-4 {
        fill: url(#_未命名的渐变_55);
      }

      .cls-22 {
        stroke: url(#_未命名的渐变_231-2);
      }

      .cls-22, .cls-5, .cls-23, .cls-24, .cls-25, .cls-26, .cls-27, .cls-28 {
        fill: none;
      }

      .cls-22, .cls-23, .cls-24, .cls-25, .cls-26, .cls-27, .cls-28 {
        stroke-miterlimit: 10;
      }

      .cls-22, .cls-24, .cls-25, .cls-26, .cls-27, .cls-28 {
        stroke-linecap: round;
      }

      .cls-23 {
        stroke: #fff;
        stroke-width: .1px;
      }

      .cls-6 {
        fill: url(#_未命名的渐变_13-2);
      }

      .cls-7 {
        fill: url(#_未命名的渐变_21-2);
      }

      .cls-24 {
        stroke: url(#_未命名的渐变_231);
      }

      .cls-25 {
        stroke: url(#_未命名的渐变_207);
      }

      .cls-8 {
        fill: url(#_新建图案);
        opacity: .1;
      }

      .cls-29 {
        opacity: .2;
      }

      .cls-9 {
        fill: url(#_未命名的渐变_3);
      }

      .cls-10 {
        fill: url(#_未命名的渐变_4);
      }

      .cls-11 {
        fill: url(#_未命名的渐变_5);
      }

      .cls-12 {
        fill: url(#_未命名的渐变_6);
      }

      .cls-30 {
        isolation: isolate;
      }

      .cls-26 {
        stroke: url(#_未命名的渐变_17184);
      }

      .cls-13 {
        fill: url(#_未命名的渐变_4-3);
      }

      .cls-14 {
        fill: url(#_未命名的渐变_4-2);
      }

      .cls-31 {
        opacity: 0;
      }

      .cls-15 {
        fill: #6f95cf;
      }

      .cls-16 {
        fill: #344052;
      }

      .cls-17 {
        fill: #171d23;
      }

      .cls-18 {
        fill: #728fc2;
      }

      .cls-19 {
        fill: #84a7e3;
      }

      .cls-20 {
        fill: #6781b0;
      }

      .cls-21 {
        fill: #000715;
      }

      .cls-27 {
        stroke: url(#_未命名的渐变_17184-3);
      }

      .cls-28 {
        stroke: url(#_未命名的渐变_17184-2);
      }
    </style>
    <pattern id="_新建图案" data-name="新建图案" x="0" y="0" width="18.57" height="32.16" patternTransform="translate(3680.43 1856.24)" patternUnits="userSpaceOnUse" viewBox="0 0 18.57 32.16">
      <g>
        <rect class="cls-5" x="0" y="0" width="18.57" height="32.16"/>
        <g>
          <g>
            <polyline class="cls-23" points="18.57 21.44 18.57 32.16 18.57 42.88"/>
            <polyline class="cls-23" points="9.29 26.8 18.57 32.16 27.85 37.51 27.85 37.52"/>
            <polyline class="cls-23" points="9.29 37.52 9.29 37.51 18.57 32.16 27.85 26.8"/>
          </g>
          <polygon class="cls-23" points="27.85 37.52 27.85 26.8 18.57 21.44 9.28 26.8 9.28 37.52 18.57 42.88 27.85 37.52"/>
        </g>
        <g>
          <g>
            <polyline class="cls-23" points="0 21.44 0 32.16 0 42.88"/>
            <polyline class="cls-23" points="-9.28 26.8 0 32.16 9.28 37.51 9.28 37.52"/>
            <polyline class="cls-23" points="-9.28 37.52 -9.28 37.51 0 32.16 9.28 26.8"/>
          </g>
          <polygon class="cls-23" points="9.28 37.52 9.28 26.8 0 21.44 -9.28 26.8 -9.28 37.52 0 42.88 9.28 37.52"/>
        </g>
        <g>
          <g>
            <polyline class="cls-23" points="18.57 10.72 27.85 16.08 37.13 21.43 37.13 21.44"/>
            <polyline class="cls-23" points="18.57 21.44 18.57 21.43 27.85 16.08 37.13 10.72"/>
          </g>
          <polygon class="cls-23" points="37.14 21.44 37.14 10.72 27.85 5.36 18.57 10.72 18.57 21.44 27.85 26.8 37.14 21.44"/>
        </g>
        <g>
          <g>
            <polyline class="cls-23" points="9.28 5.36 9.28 16.08 9.28 26.8"/>
            <polyline class="cls-23" points="0 10.72 9.28 16.08 18.56 21.43 18.56 21.44"/>
            <polyline class="cls-23" points="0 21.44 0 21.43 9.28 16.08 18.56 10.72"/>
          </g>
          <polygon class="cls-23" points="18.57 21.44 18.57 10.72 9.28 5.36 0 10.72 0 21.44 9.28 26.8 18.57 21.44"/>
        </g>
        <g>
          <g>
            <polyline class="cls-23" points="-18.56 10.72 -9.28 16.08 0 21.43 0 21.44"/>
            <polyline class="cls-23" points="-18.56 21.44 -18.56 21.43 -9.28 16.08 0 10.72"/>
          </g>
          <polygon class="cls-23" points="0 21.44 0 10.72 -9.28 5.36 -18.57 10.72 -18.57 21.44 -9.28 26.8 0 21.44"/>
        </g>
        <g>
          <g>
            <polyline class="cls-23" points="18.57 -10.72 18.57 0 18.57 10.72"/>
            <polyline class="cls-23" points="9.29 -5.36 18.57 0 27.85 5.35 27.85 5.36"/>
            <polyline class="cls-23" points="9.29 5.36 9.29 5.35 18.57 0 27.85 -5.36"/>
          </g>
          <polygon class="cls-23" points="27.85 5.36 27.85 -5.36 18.57 -10.72 9.28 -5.36 9.28 5.36 18.57 10.72 27.85 5.36"/>
        </g>
        <g>
          <g>
            <polyline class="cls-23" points="0 -10.72 0 0 0 10.72"/>
            <polyline class="cls-23" points="-9.28 -5.36 0 0 9.28 5.35 9.28 5.36"/>
            <polyline class="cls-23" points="-9.28 5.36 -9.28 5.35 0 0 9.28 -5.36"/>
          </g>
          <polygon class="cls-23" points="9.28 5.36 9.28 -5.36 0 -10.72 -9.28 -5.36 -9.28 5.36 0 10.72 9.28 5.36"/>
        </g>
      </g>
    </pattern>
    <linearGradient id="_未命名的渐变_21" data-name="未命名的渐变 21" x1="52.64" y1="82.47" x2="98.58" y2="82.47" gradientUnits="userSpaceOnUse">
      <stop offset="0" stop-color="#35455c"/>
      <stop offset=".15" stop-color="#7497d0"/>
      <stop offset=".25" stop-color="#7497d0"/>
      <stop offset=".9" stop-color="#11161a"/>
      <stop offset="1" stop-color="#263141"/>
    </linearGradient>
    <linearGradient id="_未命名的渐变_13" data-name="未命名的渐变 13" x1="52.98" y1="14.98" x2="98.58" y2="14.98" gradientUnits="userSpaceOnUse">
      <stop offset="0" stop-color="#81aaea"/>
      <stop offset="1" stop-color="#4d709c"/>
    </linearGradient>
    <linearGradient id="_未命名的渐变_55" data-name="未命名的渐变 55" x1="67.81" y1="8.41" x2="83.78" y2="8.41" gradientUnits="userSpaceOnUse">
      <stop offset="0" stop-color="#263141"/>
      <stop offset=".1" stop-color="#11161a"/>
      <stop offset=".75" stop-color="#7497d0"/>
      <stop offset=".85" stop-color="#7497d0"/>
      <stop offset="1" stop-color="#35455c"/>
    </linearGradient>
    <linearGradient id="_未命名的渐变_21-2" data-name="未命名的渐变 21" x1="65.82" y1="11.58" x2="85.78" y2="11.58" xlink:href="#_未命名的渐变_21"/>
    <linearGradient id="_未命名的渐变_13-2" data-name="未命名的渐变 13" x1="65.85" y1="5.81" x2="85.78" y2="5.81" xlink:href="#_未命名的渐变_13"/>
    <linearGradient id="_未命名的渐变_17184" data-name="未命名的渐变 17184" x1="82.7" y1="19.57" x2="83.7" y2="19.57" gradientUnits="userSpaceOnUse">
      <stop offset="0" stop-color="#2c75dd"/>
      <stop offset=".2" stop-color="#75c6f9"/>
      <stop offset=".9" stop-color="#153bc3"/>
      <stop offset="1" stop-color="#2c75dd"/>
    </linearGradient>
    <linearGradient id="_未命名的渐变_231" data-name="未命名的渐变 231" x1="60.67" y1="336.32" x2="60.67" y2="335.25" gradientTransform="translate(-296.38 -1.26) rotate(-29.71) scale(1.15 .87) skewX(23.41)" gradientUnits="userSpaceOnUse">
      <stop offset="0" stop-color="#4a5f7b"/>
      <stop offset=".1" stop-color="#161d24"/>
      <stop offset=".8" stop-color="#6f95cf"/>
      <stop offset="1" stop-color="#4a5f7b"/>
    </linearGradient>
    <linearGradient id="_未命名的渐变_17184-2" data-name="未命名的渐变 17184" x1="92.9" y1="66.65" x2="93.9" y2="66.65" xlink:href="#_未命名的渐变_17184"/>
    <linearGradient id="_未命名的渐变_17184-3" data-name="未命名的渐变 17184" x1="54.62" y1="79.56" x2="55.62" y2="79.56" xlink:href="#_未命名的渐变_17184"/>
    <linearGradient id="_未命名的渐变_231-2" data-name="未命名的渐变 231" x1="153.41" y1="228.22" x2="153.41" y2="227.14" xlink:href="#_未命名的渐变_231"/>
    <linearGradient id="_未命名的渐变_207" data-name="未命名的渐变 207" x1="88.38" y1="215.39" x2="88.38" y2="214.39" gradientTransform="translate(0 -245.6) rotate(30) scale(1.15 .87) skewX(23.41)" gradientUnits="userSpaceOnUse">
      <stop offset="0" stop-color="#2c75dd"/>
      <stop offset=".1" stop-color="#153bc3"/>
      <stop offset=".8" stop-color="#75c6f9"/>
      <stop offset="1" stop-color="#2c75dd"/>
    </linearGradient>
    <linearGradient id="_未命名的渐变_5" data-name="未命名的渐变 5" x1="66.09" y1="37.52" x2="84.04" y2="37.52" gradientUnits="userSpaceOnUse">
      <stop offset="0" stop-color="#38455a"/>
      <stop offset=".15" stop-color="#7a96ca"/>
      <stop offset=".25" stop-color="#7a96ca"/>
      <stop offset=".9" stop-color="#12161a"/>
      <stop offset="1" stop-color="#283140"/>
    </linearGradient>
    <linearGradient id="_未命名的渐变_17" data-name="未命名的渐变 17" x1="75.06" y1="44.32" x2="75.06" y2="35.57" gradientUnits="userSpaceOnUse">
      <stop offset="0" stop-color="#1a2128"/>
      <stop offset=".25" stop-color="#1b232b"/>
      <stop offset=".47" stop-color="#222a35"/>
      <stop offset=".66" stop-color="#2c3746"/>
      <stop offset=".85" stop-color="#3a485f"/>
      <stop offset="1" stop-color="#4a5b79"/>
    </linearGradient>
    <linearGradient id="_未命名的渐变_6" data-name="未命名的渐变 6" x1="73.82" y1="39.94" x2="76.31" y2="39.94" gradientUnits="userSpaceOnUse">
      <stop offset="0" stop-color="#87a9e4"/>
      <stop offset="1" stop-color="#547097"/>
    </linearGradient>
    <linearGradient id="_未命名的渐变_3" data-name="未命名的渐变 3" x1="71.86" y1="39.94" x2="78.92" y2="39.94" gradientUnits="userSpaceOnUse">
      <stop offset="0" stop-color="#2f77e9"/>
      <stop offset="1" stop-color="#59c6f9"/>
    </linearGradient>
    <linearGradient id="_未命名的渐变_4" data-name="未命名的渐变 4" x1="51.26" y1="77.14" x2="66.67" y2="77.14" gradientUnits="userSpaceOnUse">
      <stop offset="0" stop-color="#10243b" stop-opacity=".6"/>
      <stop offset=".03" stop-color="#10243b" stop-opacity=".6"/>
      <stop offset="1" stop-color="#10243b" stop-opacity=".6"/>
    </linearGradient>
    <linearGradient id="_未命名的渐变_4-2" data-name="未命名的渐变 4" x1="67.72" y1="75.17" x2="82.36" y2="75.17" xlink:href="#_未命名的渐变_4"/>
    <linearGradient id="_未命名的渐变_4-3" data-name="未命名的渐变 4" x1="83.48" y1="72.9" x2="98.88" y2="72.9" xlink:href="#_未命名的渐变_4"/>
  </defs>
  <g id="_涂层" data-name="涂层">
    <g id="_立式棕榈油储存罐" data-name="立式棕榈油储存罐">
      <g id="_背景" data-name="背景" class="cls-31">
        <rect class="cls-21" y=".03" width="150" height="150"/>
        <rect id="_网格" data-name="网格" class="cls-8" x=".14" width="150" height="150"/>
      </g>
      <g>
        <path class="cls-3" d="m98.58,15.05l-.35,121.83c0,3.36-2.22,6.71-6.62,9.27-8.88,5.16-23.31,5.16-32.24,0-4.49-2.59-6.74-6-6.73-9.4l.35-121.83c0,3.4,2.23,6.8,6.73,9.4,8.94,5.16,23.37,5.16,32.24,0,4.41-2.56,6.61-5.91,6.62-9.27Z"/>
        <path class="cls-1" d="m91.84,5.65c8.94,5.16,8.98,13.52.11,18.67-8.88,5.16-23.31,5.16-32.24,0-8.93-5.15-8.98-13.51-.1-18.67,8.87-5.16,23.3-5.16,32.23,0Z"/>
        <g class="cls-30">
          <path class="cls-4" d="m81.42,2.54c-3.12-1.8-8.16-1.8-11.26,0-1.54.89-2.31,2.07-2.31,3.24l-.04,5.8c0-1.17.77,4.85,2.31,3.96,3.1-1.8,8.14-1.8,11.26,0,1.58.91,2.36-5.09,2.36-3.9l.04-5.8c0-1.19-.78-2.38-2.36-3.29Z"/>
          <path class="cls-7" d="m82.88,9.89c-3.88,2.26-10.2,2.26-14.1,0-1.96-1.13-2.94-2.62-2.93-4.1l-.04,5.8c0,1.49.97,2.97,2.93,4.1,3.91,2.26,10.22,2.26,14.1,0,1.93-1.12,2.89-2.59,2.9-4.06l.04-5.8c0,1.47-.97,2.94-2.9,4.06Z"/>
          <path class="cls-6" d="m82.84,1.72c-3.89-2.25-10.21-2.25-14.09,0-3.88,2.26-3.86,5.91.03,8.16,3.91,2.26,10.22,2.26,14.1,0,3.88-2.25,3.86-5.91-.05-8.17Zm-1.37,7.35c-3.1,1.8-8.14,1.8-11.27,0-3.12-1.8-3.13-4.72-.04-6.52,3.1-1.8,8.14-1.8,11.26,0,3.13,1.81,3.15,4.73.05,6.53Z"/>
        </g>
        <line class="cls-26" x1="83.2" y1="17.38" x2="83.2" y2="21.77"/>
        <line class="cls-24" x1="55.1" y1="132.96" x2="53.7" y2="133.84"/>
        <line class="cls-28" x1="93.4" y1="23.27" x2="93.4" y2="110.03"/>
        <line class="cls-27" x1="55.12" y1="26.55" x2="55.12" y2="132.57"/>
        <g class="cls-30">
          <path class="cls-17" d="m53.33,134.83s0,0,0,0c-.03,0-.05,0-.08,0,0,0,0,0,0,0-.03,0-.06,0-.09-.02,0,0,0,0,0,0-.03-.01-.07-.03-.1-.05-.03-.02-.06-.04-.09-.06-.04-.03-.08-.07-.12-.11-.03-.03-.05-.06-.07-.09,0,0,0,0,0,0-.03-.04-.05-.07-.07-.11,0,0,0,0,0,0-.02-.04-.04-.08-.06-.12,0,0,0,0,0,0-.02-.04-.03-.08-.05-.12,0,0,0,0,0,0-.01-.04-.02-.08-.03-.12,0,0,0,0,0,0,0-.04,0-.08,0-.12,0-.02,0-.03,0-.04,0-.06.02-.12.04-.17,0,0,0,0,0-.01.02-.05.06-.08.1-.11l-.22.13s-.07.06-.1.11c0,0,0,0,0,.01-.02.05-.04.1-.04.17,0,0,0,0,0,.01,0,0,0,.02,0,.03,0,0,0,.02,0,.03,0,.01,0,.03,0,.04,0,.01,0,.03,0,.04,0,0,0,0,0,.01h0s0,.02,0,.02c0,.01,0,.02,0,.03,0,.01,0,.02,0,.03,0,.01,0,.02,0,.03,0,0,0,0,0,0,0,0,0,0,0,0,0,0,0,.01,0,.02,0,0,0,.02.01.03,0,0,0,.02.01.03,0,0,0,.02.01.03,0,0,0,.01,0,.02,0,0,0,0,0,0,0,0,0,0,0,0,0,0,0,.02.01.03,0,0,0,.02.01.03,0,0,.01.02.02.03,0,0,0,.01.01.02,0,0,0,0,0,0,0,0,0,0,0,0,0,.01.01.02.02.03,0,.01.01.02.02.03,0,.01.02.02.02.03,0,0,0,0,0,0,0,0,0,0,0,0,0,0,.01.02.02.02.02.02.03.04.05.06,0,0,0,0,0,0,.04.04.08.08.12.11,0,0,0,0,0,0,.02.02.04.03.06.05,0,0,.01,0,.02.01,0,0,.02,0,.02.01.01,0,.02.01.04.02.01,0,.02,0,.03.01,0,0,0,0,0,0,0,0,0,0,0,0,0,0,.01,0,.02,0,0,0,.02,0,.03,0,0,0,.02,0,.02,0,0,0,.02,0,.02,0,0,0,0,0,0,0,0,0,0,0,0,0,0,0,0,0,.01,0,0,0,.01,0,.02,0,0,0,.01,0,.02,0,0,0,.01,0,.02,0,0,0,0,0,.01,0,0,0,0,0,0,0,0,0,0,0,0,0,0,0,.01,0,.02,0,0,0,.01,0,.02,0,0,0,.01,0,.02,0,0,0,0,0,.01,0l.22-.13s-.05.02-.07.03Z"/>
          <path class="cls-16" d="m53.38,134.83s.01-.08.01-.13c0,0,0,0,0-.01,0-.02,0-.05,0-.08,0-.02,0-.05,0-.07,0-.03-.01-.06-.02-.08,0-.02,0-.05-.02-.07,0-.03-.02-.06-.03-.08,0-.02-.02-.05-.03-.07-.01-.03-.03-.05-.04-.08-.01-.02-.02-.05-.03-.07-.02-.03-.03-.05-.05-.08-.01-.02-.03-.04-.04-.06-.02-.03-.04-.05-.06-.07-.01-.02-.03-.03-.04-.05-.02-.02-.05-.05-.07-.07-.01-.01-.03-.03-.04-.04-.04-.03-.08-.06-.12-.09-.05-.03-.1-.05-.15-.06-.01,0-.03,0-.04,0-.03,0-.07-.01-.1,0-.01,0-.03,0-.04,0-.04,0-.07.01-.1.03,0,0,0,0-.01,0-.03.02-.06.05-.09.08,0,0,0,0,0,0,0,0-.01.02-.02.03-.01.02-.02.04-.03.06,0,0,0,.01,0,.02,0,.02,0,.03-.01.05,0,.01,0,.02,0,.03,0,0,0,0,0,.01,0,.03,0,.06,0,.09,0,0,0,.02,0,.02,0,.02,0,.04,0,.06,0,.03,0,.05,0,.08,0,0,0,0,0,0,0,0,0,0,0,0,0,.03.01.06.02.09,0,.02,0,.03.01.05,0,0,0,.01,0,.02,0,0,0,.01,0,.02,0,.03.02.06.03.09,0,0,0,.02.01.02,0,.01,0,.02.01.03,0,.01.01.03.02.04.01.02.02.04.03.06,0,.01.01.02.02.03,0,0,0,0,0,.01.01.02.03.04.04.06.01.02.03.04.04.06,0,0,0,0,0,0,0,0,.01.01.02.02.04.05.08.09.12.13.01.01.03.03.04.04.05.04.1.08.16.12,0,0,.01,0,.02.01.02.01.04.02.06.03.02,0,.03.02.05.02,0,0,0,0,0,0,.03,0,.06.02.08.02,0,0,0,0,.01,0,0,0,.01,0,.02,0,.01,0,.03,0,.04,0,.01,0,.03,0,.04,0,0,0,0,0,.01,0,0,0,0,0,0,0,.02,0,.04-.01.06-.02,0,0,.01,0,.02,0,0,0,0,0,.01,0,0,0,.01,0,.02-.01.02-.01.03-.02.04-.04,0,0,0,0,0,0,0,0,0,0,0-.01,0-.01.02-.02.03-.04,0,0,.01-.02.02-.03,0,0,0-.01.01-.02,0,0,0,0,0-.01,0-.02.02-.05.02-.07,0,0,0,0,0-.02,0,0,0,0,0,0Zm-.68-.03s-.02-.02-.03-.03c-.03-.03-.07-.07-.1-.11,0,0-.01-.02-.02-.02-.01-.02-.02-.03-.03-.05-.01-.02-.03-.04-.04-.06,0,0-.01-.02-.02-.03-.02-.03-.03-.06-.04-.09,0,0,0-.02-.01-.03-.02-.04-.03-.07-.04-.11,0,0,0-.01,0-.02-.01-.04-.02-.08-.03-.12,0,0,0,0,0,0,0-.04,0-.08,0-.12,0-.04,0-.07,0-.1,0,0,0-.02,0-.03,0-.02.01-.04.02-.06,0-.02.02-.03.02-.05,0-.01.01-.02.02-.03.02-.03.04-.05.07-.06,0,0,0,0,0,0,.03-.01.05-.02.08-.03.01,0,.02,0,.03,0,.03,0,.05,0,.08,0,.01,0,.02,0,.03,0,.04.01.08.03.12.05.03.02.07.04.1.07,0,0,.02.02.03.03.02.02.05.04.07.06.01.01.02.03.03.04.02.02.04.04.05.06.01.01.02.03.03.05.01.02.03.04.04.07,0,.02.02.03.03.05.01.02.03.05.04.07,0,.02.01.04.02.06,0,.02.02.05.03.07,0,.02,0,.04.01.06,0,.02.01.05.02.07,0,.02,0,.04,0,.06,0,.02,0,.05,0,.07,0,.04,0,.08-.01.11,0,0,0,0,0,.01,0,.03-.01.05-.02.07,0,0,0,.01,0,.02-.01.02-.02.04-.04.06,0,0,0,0,0,0-.02.02-.03.03-.05.04,0,0,0,0-.01,0-.02.01-.04.02-.07.02,0,0,0,0-.01,0-.02,0-.04,0-.07,0,0,0,0,0-.01,0-.03,0-.06,0-.08-.02-.01,0-.03-.01-.04-.02-.02,0-.04-.02-.07-.03-.04-.03-.09-.06-.13-.1Z"/>
          <path class="cls-20" d="m52.85,133.3c.5.29.9.98.9,1.55,0,.57-.41.8-.9.51-.5-.29-.9-.98-.9-1.55,0-.57.41-.8.9-.51Zm-.08,1.75c.34.2.62.04.62-.35,0-.39-.27-.87-.61-1.06-.34-.2-.62-.04-.62.35,0,.39.27.87.61,1.06"/>
          <path class="cls-19" d="m54.07,135.1s.03-.07.03-.11c0-.03,0-.06.01-.09,0-.03.01-.06.01-.09,0-.02,0-.04,0-.06,0-.02,0-.03,0-.05,0-.03,0-.06,0-.09,0-.03,0-.05,0-.08,0,0,0-.02,0-.03,0,0,0,0,0,0,0-.01,0-.02,0-.03,0-.02,0-.04-.01-.07,0-.02,0-.04-.02-.06,0-.02-.01-.04-.02-.06,0,0,0-.01,0-.02,0,0,0,0,0,0,0-.01,0-.02-.01-.04,0-.02-.01-.04-.02-.06,0-.02-.01-.04-.02-.06,0-.02-.02-.04-.02-.06,0-.01,0-.02-.01-.03,0,0,0,0,0,0,0,0,0-.01,0-.02,0-.02-.02-.04-.03-.06,0-.02-.02-.04-.03-.06-.01-.02-.02-.04-.03-.06,0-.01-.02-.03-.02-.04,0,0,0,0,0,0,0,0,0,0,0-.01-.01-.02-.02-.04-.04-.06-.01-.02-.03-.04-.04-.06-.01-.02-.03-.04-.05-.07,0,0,0-.01-.01-.02,0,0,0,0,0-.01-.01-.01-.02-.03-.03-.04-.03-.04-.06-.08-.09-.11,0,0-.01,0-.02-.02-.07-.08-.15-.15-.23-.22,0,0,0,0-.01-.01-.04-.03-.08-.06-.13-.09-.01,0-.03-.02-.04-.02-.02,0-.03-.02-.05-.03-.02-.01-.05-.02-.07-.03-.02,0-.04-.02-.06-.02,0,0-.01,0-.02,0,0,0,0,0,0,0,0,0-.02,0-.03,0-.02,0-.03,0-.05-.01-.02,0-.03,0-.05,0-.02,0-.03,0-.04,0,0,0,0,0-.01,0,0,0,0,0,0,0,0,0-.02,0-.03,0-.01,0-.03,0-.04,0-.01,0-.03,0-.04,0-.01,0-.03,0-.04,0,0,0-.01,0-.02,0,0,0,0,0,0,0,0,0,0,0-.01,0-.01,0-.03,0-.04.01-.01,0-.03,0-.04.01-.01,0-.03.01-.04.02,0,0-.01,0-.02.01l-.22.13s.09-.04.15-.06c0,0,0,0,0,0,.05-.01.11-.01.17,0,0,0,0,0,0,0,.06,0,.12.02.18.04,0,0,0,0,0,0,.06.02.13.05.2.09.06.04.12.08.18.13.08.06.16.14.23.22.05.05.1.11.14.17,0,0,0,0,0,.01.05.07.1.14.14.22,0,0,0,0,0,0,.04.08.08.16.12.24,0,0,0,0,0,0,.03.08.07.16.09.24,0,0,0,0,0,0,.02.08.04.16.06.24h0c.01.09.02.17.02.25,0,.05,0,.1-.01.15,0,.03,0,.06-.01.09,0,.04-.02.07-.03.11,0,.02-.01.05-.02.07-.02.03-.04.06-.06.09-.01.01-.02.03-.03.04-.04.04-.07.07-.12.1l.22-.13s.08-.06.12-.1c.01-.01.02-.03.03-.04.02-.03.04-.06.06-.09,0-.02.02-.04.02-.07Z"/>
          <path class="cls-18" d="m53.9,134.78s0-.09-.02-.14c0,0,0,0,0,0,0,0,0,0,0,0,0-.05-.02-.09-.03-.14,0-.03-.02-.06-.02-.08,0-.01,0-.02-.01-.04,0,0,0-.02,0-.03-.02-.05-.03-.1-.05-.15,0-.01-.01-.03-.02-.04,0-.02-.01-.03-.02-.05-.01-.02-.02-.05-.03-.07-.02-.03-.04-.07-.06-.1-.01-.02-.02-.04-.03-.05,0,0,0-.02-.01-.02-.02-.04-.05-.07-.07-.1-.02-.03-.04-.07-.07-.1,0,0,0-.01-.01-.02-.04-.06-.09-.11-.14-.16-.01-.01-.02-.02-.04-.04-.04-.04-.09-.09-.13-.13-.02-.01-.03-.03-.05-.04-.06-.05-.12-.09-.18-.13-.01,0-.02-.01-.04-.02-.03-.02-.07-.03-.1-.04-.03-.01-.05-.03-.08-.03,0,0,0,0-.01,0-.05-.01-.09-.02-.14-.03,0,0-.01,0-.02,0-.01,0-.02,0-.03,0-.02,0-.05,0-.07,0-.02,0-.05,0-.07,0,0,0-.01,0-.02,0,0,0,0,0-.01,0-.03,0-.06.02-.09.03,0,0-.02.01-.03.02,0,0-.02,0-.02.01,0,0-.02.01-.03.02-.03.02-.05.04-.07.06,0,0,0,0,0,0,0,0,0,.01-.01.02-.02.02-.03.04-.05.06,0,.02-.02.03-.03.05,0,.01-.01.02-.02.04,0,0,0,.02-.01.02-.01.04-.03.08-.03.12,0,0,0,.02,0,.03,0,0,0,0,0,0-.01.07-.02.14-.02.21,0,0,0,.01,0,.02,0,.04,0,.08.01.12,0,.04,0,.07.01.11,0,.05.02.09.03.14,0,.04.02.08.03.11.01.05.03.09.05.13.01.04.03.08.04.11.02.05.04.09.07.13.02.04.03.07.05.11.03.05.06.09.09.13.02.03.04.06.06.09.03.04.07.08.1.12.02.03.04.06.07.08.04.04.08.08.13.12.02.02.04.04.06.06.07.05.13.1.2.14.06.04.12.06.18.08.01,0,.03.01.04.01.06.02.11.03.17.04,0,0,0,0,0,0,.05,0,.1,0,.15,0,.01,0,.02,0,.04,0,.05-.01.09-.03.13-.05,0,0,0,0,0,0,.04-.02.07-.05.1-.08,0,0,.02-.02.02-.03,0,0,.01-.01.02-.02.01-.01.02-.03.03-.05.02-.03.04-.06.05-.09,0,0,.01-.02.01-.03,0-.03.01-.06.02-.09,0-.02,0-.03.01-.05,0,0,0-.01,0-.02,0-.05.01-.1.01-.15,0-.01,0-.03,0-.04,0-.03,0-.07,0-.11Zm-.82-1.31s.04.04.06.05c.06.06.12.12.17.19.01.01.02.03.04.04.02.03.04.06.06.09.02.04.05.07.07.11,0,.02.02.03.03.05.03.05.05.1.08.15,0,.01.01.03.02.04.03.06.05.13.07.19,0,.01,0,.02,0,.03.02.07.04.14.05.2,0,0,0,0,0,0,.01.07.02.15.02.22,0,.07,0,.13-.02.18,0,.02,0,.03-.01.05,0,.04-.02.07-.03.1-.01.03-.03.06-.04.08-.01.02-.03.04-.04.06,0,0-.01.02-.02.02-.03.03-.06.05-.09.07,0,0,0,0,0,0-.04.02-.08.03-.12.04-.01,0-.02,0-.03,0-.04,0-.08,0-.13,0,0,0,0,0,0,0-.05,0-.1-.02-.15-.03-.01,0-.03,0-.04-.01-.05-.02-.11-.04-.16-.07-.06-.04-.12-.08-.18-.12-.02-.02-.04-.04-.06-.06-.04-.03-.07-.06-.11-.1-.02-.02-.04-.05-.06-.08-.03-.03-.06-.07-.09-.11-.02-.03-.04-.06-.06-.09-.02-.04-.05-.07-.07-.11-.02-.03-.03-.06-.05-.1-.02-.04-.04-.08-.06-.12-.01-.03-.03-.07-.04-.1-.02-.04-.03-.08-.04-.12-.01-.03-.02-.07-.02-.1,0-.04-.02-.08-.03-.12,0-.03,0-.07,0-.1,0-.04-.01-.08-.01-.13,0-.07,0-.13.02-.19,0,0,0-.01,0-.02.01-.05.02-.09.04-.13,0-.01.01-.02.02-.03.02-.04.04-.07.06-.1,0,0,0-.01.01-.01.03-.03.06-.06.1-.08,0,0,.01,0,.02-.01.04-.02.07-.03.12-.04,0,0,.01,0,.02,0,.04,0,.08,0,.12,0,0,0,.02,0,.03,0,.05,0,.1.02.15.03.02,0,.05.02.07.03.04.02.08.03.12.06.08.05.16.11.23.17Z"/>
        </g>
        <line class="cls-22" x1="54.77" y1="25.37" x2="53.37" y2="26.24"/>
        <g class="cls-30">
          <path class="cls-17" d="m53,27.24s0,0,0,0c-.03,0-.05,0-.08,0,0,0,0,0,0,0-.03,0-.06,0-.09-.02,0,0,0,0,0,0-.03-.01-.07-.03-.1-.05-.03-.02-.06-.04-.09-.06-.04-.03-.08-.07-.12-.11-.03-.03-.05-.06-.07-.09,0,0,0,0,0,0-.03-.04-.05-.07-.07-.11,0,0,0,0,0,0-.02-.04-.04-.08-.06-.12,0,0,0,0,0,0-.02-.04-.03-.08-.05-.12,0,0,0,0,0,0-.01-.04-.02-.08-.03-.12,0,0,0,0,0,0,0-.04,0-.08,0-.12,0-.02,0-.03,0-.04,0-.06.02-.12.04-.17,0,0,0,0,0-.01.02-.05.06-.08.1-.11l-.22.13s-.07.06-.1.11c0,0,0,0,0,.01-.02.05-.04.1-.04.17,0,0,0,0,0,.01,0,0,0,.02,0,.03,0,0,0,.02,0,.03,0,.01,0,.03,0,.04,0,.01,0,.03,0,.04,0,0,0,0,0,.01h0s0,.02,0,.02c0,.01,0,.02,0,.03,0,.01,0,.02,0,.03,0,.01,0,.02,0,.03,0,0,0,0,0,0,0,0,0,0,0,0,0,0,0,.01,0,.02,0,0,0,.02.01.03,0,0,0,.02.01.03,0,0,0,.02.01.03,0,0,0,.01,0,.02,0,0,0,0,0,0,0,0,0,0,0,0,0,0,0,.02.01.03,0,0,0,.02.01.03,0,0,.01.02.02.03,0,0,0,.01.01.02,0,0,0,0,0,0,0,0,0,0,0,0,0,.01.01.02.02.03,0,.01.01.02.02.03,0,.01.02.02.02.03,0,0,0,0,0,0,0,0,0,0,0,0,0,0,.01.02.02.02.02.02.03.04.05.06,0,0,0,0,0,0,.04.04.08.08.12.11,0,0,0,0,0,0,.02.02.04.03.06.05,0,0,.01,0,.02.01,0,0,.02,0,.02.01.01,0,.02.01.04.02.01,0,.02,0,.03.01,0,0,0,0,0,0,0,0,0,0,0,0,0,0,.01,0,.02,0,0,0,.02,0,.03,0,0,0,.02,0,.02,0,0,0,.02,0,.02,0,0,0,0,0,0,0,0,0,0,0,0,0,0,0,0,0,.01,0,0,0,.01,0,.02,0,0,0,.01,0,.02,0,0,0,.01,0,.02,0,0,0,0,0,.01,0,0,0,0,0,0,0,0,0,0,0,0,0,0,0,.01,0,.02,0,0,0,.01,0,.02,0,0,0,.01,0,.02,0,0,0,0,0,.01,0l.22-.13s-.05.02-.07.03Z"/>
          <path class="cls-16" d="m53.05,27.23s.01-.08.01-.13c0,0,0,0,0-.01,0-.02,0-.05,0-.08,0-.02,0-.05,0-.07,0-.03-.01-.06-.02-.08,0-.02,0-.05-.02-.07,0-.03-.02-.06-.03-.08,0-.02-.02-.05-.03-.07-.01-.03-.03-.05-.04-.08-.01-.02-.02-.05-.03-.07-.02-.03-.03-.05-.05-.08-.01-.02-.03-.04-.04-.06-.02-.03-.04-.05-.06-.07-.01-.02-.03-.03-.04-.05-.02-.02-.05-.05-.07-.07-.01-.01-.03-.03-.04-.04-.04-.03-.08-.06-.12-.09-.05-.03-.1-.05-.15-.06-.01,0-.03,0-.04,0-.03,0-.07-.01-.1,0-.01,0-.03,0-.04,0-.04,0-.07.01-.1.03,0,0,0,0-.01,0-.03.02-.06.05-.09.08,0,0,0,0,0,0,0,0-.01.02-.02.03-.01.02-.02.04-.03.06,0,0,0,.01,0,.02,0,.02,0,.03-.01.05,0,.01,0,.02,0,.03,0,0,0,0,0,.01,0,.03,0,.06,0,.09,0,0,0,.02,0,.02,0,.02,0,.04,0,.06,0,.03,0,.05,0,.08,0,0,0,0,0,0,0,0,0,0,0,0,0,.03.01.06.02.09,0,.02,0,.03.01.05,0,0,0,.01,0,.02,0,0,0,.01,0,.02,0,.03.02.06.03.09,0,0,0,.02.01.02,0,.01,0,.02.01.03,0,.01.01.03.02.04.01.02.02.04.03.06,0,.01.01.02.02.03,0,0,0,0,0,.01.01.02.03.04.04.06.01.02.03.04.04.06,0,0,0,0,0,0,0,0,.01.01.02.02.04.05.08.09.12.13.01.01.03.03.04.04.05.04.1.08.16.12,0,0,.01,0,.02.01.02.01.04.02.06.03.02,0,.03.02.05.02,0,0,0,0,0,0,.03,0,.06.02.08.02,0,0,0,0,.01,0,0,0,.01,0,.02,0,.01,0,.03,0,.04,0,.01,0,.03,0,.04,0,0,0,0,0,.01,0,0,0,0,0,0,0,.02,0,.04-.01.06-.02,0,0,.01,0,.02,0,0,0,0,0,.01,0,0,0,.01,0,.02-.01.02-.01.03-.02.04-.04,0,0,0,0,0,0,0,0,0,0,0-.01,0-.01.02-.02.03-.04,0,0,.01-.02.02-.03,0,0,0-.01.01-.02,0,0,0,0,0-.01,0-.02.02-.05.02-.07,0,0,0,0,0-.02,0,0,0,0,0,0Zm-.68-.03s-.02-.02-.03-.03c-.03-.03-.07-.07-.1-.11,0,0-.01-.02-.02-.02-.01-.02-.02-.03-.03-.05-.01-.02-.03-.04-.04-.06,0,0-.01-.02-.02-.03-.02-.03-.03-.06-.04-.09,0,0,0-.02-.01-.03-.02-.04-.03-.07-.04-.11,0,0,0-.01,0-.02-.01-.04-.02-.08-.03-.12,0,0,0,0,0,0,0-.04,0-.08,0-.12,0-.04,0-.07,0-.1,0,0,0-.02,0-.03,0-.02.01-.04.02-.06,0-.02.02-.03.02-.05,0-.01.01-.02.02-.03.02-.03.04-.05.07-.06,0,0,0,0,0,0,.03-.01.05-.02.08-.03.01,0,.02,0,.03,0,.03,0,.05,0,.08,0,.01,0,.02,0,.03,0,.04.01.08.03.12.05.03.02.07.04.1.07,0,0,.02.02.03.03.02.02.05.04.07.06.01.01.02.03.03.04.02.02.04.04.05.06.01.01.02.03.03.05.01.02.03.04.04.07,0,.02.02.03.03.05.01.02.03.05.04.07,0,.02.01.04.02.06,0,.02.02.05.03.07,0,.02,0,.04.01.06,0,.02.01.05.02.07,0,.02,0,.04,0,.06,0,.02,0,.05,0,.07,0,.04,0,.08-.01.11,0,0,0,0,0,.01,0,.03-.01.05-.02.07,0,0,0,.01,0,.02-.01.02-.02.04-.04.06,0,0,0,0,0,0-.02.02-.03.03-.05.04,0,0,0,0-.01,0-.02.01-.04.02-.07.02,0,0,0,0-.01,0-.02,0-.04,0-.07,0,0,0,0,0-.01,0-.03,0-.06,0-.08-.02-.01,0-.03-.01-.04-.02-.02,0-.04-.02-.07-.03-.04-.03-.09-.06-.13-.1Z"/>
          <path class="cls-20" d="m52.52,25.71c.5.29.9.98.9,1.55,0,.57-.41.8-.9.51-.5-.29-.9-.98-.9-1.55,0-.57.41-.8.9-.51Zm-.08,1.75c.34.2.62.04.62-.35,0-.39-.27-.87-.61-1.06-.34-.2-.62-.04-.62.35,0,.39.27.87.61,1.06"/>
          <path class="cls-19" d="m53.73,27.51s.03-.07.03-.11c0-.03,0-.06.01-.09,0-.03.01-.06.01-.09,0-.02,0-.04,0-.06,0-.02,0-.03,0-.05,0-.03,0-.06,0-.09,0-.03,0-.05,0-.08,0,0,0-.02,0-.03,0,0,0,0,0,0,0-.01,0-.02,0-.03,0-.02,0-.04-.01-.07,0-.02,0-.04-.02-.06,0-.02-.01-.04-.02-.06,0,0,0-.01,0-.02,0,0,0,0,0,0,0-.01,0-.02-.01-.04,0-.02-.01-.04-.02-.06,0-.02-.01-.04-.02-.06,0-.02-.02-.04-.02-.06,0-.01,0-.02-.01-.03,0,0,0,0,0,0,0,0,0-.01,0-.02,0-.02-.02-.04-.03-.06,0-.02-.02-.04-.03-.06-.01-.02-.02-.04-.03-.06,0-.01-.02-.03-.02-.04,0,0,0,0,0,0,0,0,0,0,0-.01-.01-.02-.02-.04-.04-.06-.01-.02-.03-.04-.04-.06-.01-.02-.03-.04-.05-.07,0,0,0-.01-.01-.02,0,0,0,0,0-.01-.01-.01-.02-.03-.03-.04-.03-.04-.06-.08-.09-.11,0,0-.01,0-.02-.02-.07-.08-.15-.15-.23-.22,0,0,0,0-.01-.01-.04-.03-.08-.06-.13-.09-.01,0-.03-.02-.04-.02-.02,0-.03-.02-.05-.03-.02-.01-.05-.02-.07-.03-.02,0-.04-.02-.06-.02,0,0-.01,0-.02,0,0,0,0,0,0,0,0,0-.02,0-.03,0-.02,0-.03,0-.05-.01-.02,0-.03,0-.05,0-.02,0-.03,0-.04,0,0,0,0,0-.01,0,0,0,0,0,0,0,0,0-.02,0-.03,0-.01,0-.03,0-.04,0-.01,0-.03,0-.04,0-.01,0-.03,0-.04,0,0,0-.01,0-.02,0,0,0,0,0,0,0,0,0,0,0-.01,0-.01,0-.03,0-.04.01-.01,0-.03,0-.04.01-.01,0-.03.01-.04.02,0,0-.01,0-.02.01l-.22.13s.09-.04.15-.06c0,0,0,0,0,0,.05-.01.11-.01.17,0,0,0,0,0,0,0,.06,0,.12.02.18.04,0,0,0,0,0,0,.06.02.13.05.2.09.06.04.12.08.18.13.08.06.16.14.23.22.05.05.1.11.14.17,0,0,0,0,0,.01.05.07.1.14.14.22,0,0,0,0,0,0,.04.08.08.16.12.24,0,0,0,0,0,0,.03.08.07.16.09.24,0,0,0,0,0,0,.02.08.04.16.06.24h0c.01.09.02.17.02.25,0,.05,0,.1-.01.15,0,.03,0,.06-.01.09,0,.04-.02.07-.03.11,0,.02-.01.05-.02.07-.02.03-.04.06-.06.09-.01.01-.02.03-.03.04-.04.04-.07.07-.12.1l.22-.13s.08-.06.12-.1c.01-.01.02-.03.03-.04.02-.03.04-.06.06-.09,0-.02.02-.04.02-.07Z"/>
          <path class="cls-18" d="m53.57,27.18s0-.09-.02-.14c0,0,0,0,0,0,0,0,0,0,0,0,0-.05-.02-.09-.03-.14,0-.03-.02-.06-.02-.08,0-.01,0-.02-.01-.04,0,0,0-.02,0-.03-.02-.05-.03-.1-.05-.15,0-.01-.01-.03-.02-.04,0-.02-.01-.03-.02-.05-.01-.02-.02-.05-.03-.07-.02-.03-.04-.07-.06-.1-.01-.02-.02-.04-.03-.05,0,0,0-.02-.01-.02-.02-.04-.05-.07-.07-.1-.02-.03-.04-.07-.07-.1,0,0,0-.01-.01-.02-.04-.06-.09-.11-.14-.16-.01-.01-.02-.02-.04-.04-.04-.04-.09-.09-.13-.13-.02-.01-.03-.03-.05-.04-.06-.05-.12-.09-.18-.13-.01,0-.02-.01-.04-.02-.03-.02-.07-.03-.1-.04-.03-.01-.05-.03-.08-.03,0,0,0,0-.01,0-.05-.01-.09-.02-.14-.03,0,0-.01,0-.02,0-.01,0-.02,0-.03,0-.02,0-.05,0-.07,0-.02,0-.05,0-.07,0,0,0-.01,0-.02,0,0,0,0,0-.01,0-.03,0-.06.02-.09.03,0,0-.02.01-.03.02,0,0-.02,0-.02.01,0,0-.02.01-.03.02-.03.02-.05.04-.07.06,0,0,0,0,0,0,0,0,0,.01-.01.02-.02.02-.03.04-.05.06,0,.02-.02.03-.03.05,0,.01-.01.02-.02.04,0,0,0,.02-.01.02-.01.04-.03.08-.03.12,0,0,0,.02,0,.03,0,0,0,0,0,0-.01.07-.02.14-.02.21,0,0,0,.01,0,.02,0,.04,0,.08.01.12,0,.04,0,.07.01.11,0,.05.02.09.03.14,0,.04.02.08.03.11.01.05.03.09.05.13.01.04.03.08.04.11.02.05.04.09.07.13.02.04.03.07.05.11.03.05.06.09.09.13.02.03.04.06.06.09.03.04.07.08.1.12.02.03.04.06.07.08.04.04.08.08.13.12.02.02.04.04.06.06.07.05.13.1.2.14.06.04.12.06.18.08.01,0,.03.01.04.01.06.02.11.03.17.04,0,0,0,0,0,0,.05,0,.1,0,.15,0,.01,0,.02,0,.04,0,.05-.01.09-.03.13-.05,0,0,0,0,0,0,.04-.02.07-.05.1-.08,0,0,.02-.02.02-.03,0,0,.01-.01.02-.02.01-.01.02-.03.03-.05.02-.03.04-.06.05-.09,0,0,.01-.02.01-.03,0-.03.01-.06.02-.09,0-.02,0-.03.01-.05,0,0,0-.01,0-.02,0-.05.01-.1.01-.15,0-.01,0-.03,0-.04,0-.03,0-.07,0-.11Zm-.82-1.31s.04.04.06.05c.06.06.12.12.17.19.01.01.02.03.04.04.02.03.04.06.06.09.02.04.05.07.07.11,0,.02.02.03.03.05.03.05.05.1.08.15,0,.01.01.03.02.04.03.06.05.13.07.19,0,.01,0,.02,0,.03.02.07.04.14.05.2,0,0,0,0,0,0,.01.07.02.15.02.22,0,.07,0,.13-.02.18,0,.02,0,.03-.01.05,0,.04-.02.07-.03.1-.01.03-.03.06-.04.08-.01.02-.03.04-.04.06,0,0-.01.02-.02.02-.03.03-.06.05-.09.07,0,0,0,0,0,0-.04.02-.08.03-.12.04-.01,0-.02,0-.03,0-.04,0-.08,0-.13,0,0,0,0,0,0,0-.05,0-.1-.02-.15-.03-.01,0-.03,0-.04-.01-.05-.02-.11-.04-.16-.07-.06-.04-.12-.08-.18-.12-.02-.02-.04-.04-.06-.06-.04-.03-.07-.06-.11-.1-.02-.02-.04-.05-.06-.08-.03-.03-.06-.07-.09-.11-.02-.03-.04-.06-.06-.09-.02-.04-.05-.07-.07-.11-.02-.03-.03-.06-.05-.1-.02-.04-.04-.08-.06-.12-.01-.03-.03-.07-.04-.1-.02-.04-.03-.08-.04-.12-.01-.03-.02-.07-.02-.1,0-.04-.02-.08-.03-.12,0-.03,0-.07,0-.1,0-.04-.01-.08-.01-.13,0-.07,0-.13.02-.19,0,0,0-.01,0-.02.01-.05.02-.09.04-.13,0-.01.01-.02.02-.03.02-.04.04-.07.06-.1,0,0,0-.01.01-.01.03-.03.06-.06.1-.08,0,0,.01,0,.02-.01.04-.02.07-.03.12-.04,0,0,.01,0,.02,0,.04,0,.08,0,.12,0,0,0,.02,0,.03,0,.05,0,.1.02.15.03.02,0,.05.02.07.03.04.02.08.03.12.06.08.05.16.11.23.17Z"/>
        </g>
        <line class="cls-25" x1="93.48" y1="23.27" x2="83.28" y2="17.38"/>
        <g>
          <path class="cls-11" d="m68.69,37.78c3.49-1.86,9.18-1.86,12.71,0,1.36.72,2.19,1.62,2.5,2.55.5-1.49-.33-3.08-2.5-4.23-3.52-1.87-9.21-1.87-12.71,0-2.14,1.14-2.96,2.71-2.46,4.19.31-.92,1.13-1.8,2.46-2.51Z"/>
          <path class="cls-15" d="m81.4,36.57c3.51,1.86,3.53,4.88.04,6.74s-9.18,1.86-12.69,0-3.55-4.88-.05-6.75,9.18-1.86,12.7,0Z"/>
          <path class="cls-2" d="m80.87,36.85c3.22,1.71,3.24,4.48.04,6.19s-8.42,1.71-11.64,0-3.25-4.48-.04-6.19,8.42-1.71,11.65,0Z"/>
          <path class="cls-12" d="m75.94,39.43c.49.28.49.74,0,1.02s-1.27.29-1.76,0-.49-.74,0-1.02,1.27-.28,1.75,0Z"/>
          <polygon class="cls-9" points="71.86 41.8 78.92 37.35 72.66 42.54 71.86 41.8"/>
        </g>
      </g>
    </g>
  </g>
</svg>