<svg xmlns="http://www.w3.org/2000/svg" xmlns:xlink="http://www.w3.org/1999/xlink" viewBox="0 0 150 150"><defs><style>.cls-1,.cls-2{fill:none;}.cls-2{stroke:#fff;stroke-miterlimit:10;stroke-width:0.1px;}.cls-3{opacity:0;}.cls-4{fill:#000714;}.cls-5{opacity:0.1;fill:url(#新建图案);}.cls-6{isolation:isolate;}.cls-7{fill:url(#未命名的渐变_1827);}.cls-8{fill:url(#未命名的渐变_40);}.cls-9{fill:#7696cb;}.cls-10{fill:url(#未命名的渐变_1827-2);}.cls-11{fill:url(#未命名的渐变_1827-3);}.cls-12{fill:url(#未命名的渐变_40-2);}.cls-13{fill:url(#未命名的渐变_1827-4);}.cls-14{opacity:0.2;}</style><pattern id="新建图案" data-name="新建图案" width="18.57" height="32.16" patternTransform="translate(2359.08 1058.25)" patternUnits="userSpaceOnUse" viewBox="0 0 18.57 32.16"><rect class="cls-1" width="18.57" height="32.16"/><polyline class="cls-2" points="18.57 21.44 18.57 32.16 18.57 42.88"/><polyline class="cls-2" points="9.29 26.8 18.57 32.16 27.85 37.51 27.85 37.52"/><polyline class="cls-2" points="9.29 37.52 9.29 37.51 18.57 32.16 27.85 26.8"/><polygon class="cls-2" points="27.85 37.52 27.85 26.8 18.57 21.44 9.28 26.8 9.28 37.52 18.57 42.88 27.85 37.52"/><polyline class="cls-2" points="0 21.44 0 32.16 0 42.88"/><polyline class="cls-2" points="-9.28 26.8 0 32.16 9.28 37.51 9.28 37.52"/><polyline class="cls-2" points="-9.28 37.52 -9.28 37.51 0 32.16 9.28 26.8"/><polygon class="cls-2" points="9.28 37.52 9.28 26.8 0 21.44 -9.29 26.8 -9.29 37.52 0 42.88 9.28 37.52"/><polyline class="cls-2" points="18.57 10.72 27.85 16.08 37.13 21.43 37.13 21.44"/><polyline class="cls-2" points="18.57 21.44 18.57 21.43 27.85 16.08 37.13 10.72"/><polygon class="cls-2" points="37.14 21.44 37.14 10.72 27.85 5.36 18.57 10.72 18.57 21.44 27.85 26.8 37.14 21.44"/><polyline class="cls-2" points="9.29 5.36 9.29 16.08 9.29 26.8"/><polyline class="cls-2" points="0.01 10.72 9.29 16.08 18.57 21.43 18.57 21.44"/><polyline class="cls-2" points="0.01 21.44 0.01 21.43 9.29 16.08 18.57 10.72"/><polygon class="cls-2" points="18.57 21.44 18.57 10.72 9.28 5.36 0 10.72 0 21.44 9.28 26.8 18.57 21.44"/><polyline class="cls-2" points="-18.56 10.72 -9.28 16.08 0 21.43 0 21.44"/><polyline class="cls-2" points="-18.56 21.44 -18.56 21.43 -9.28 16.08 0 10.72"/><polygon class="cls-2" points="0 21.44 0 10.72 -9.29 5.36 -18.57 10.72 -18.57 21.44 -9.29 26.8 0 21.44"/><polyline class="cls-2" points="18.57 -10.72 18.57 0 18.57 10.72"/><polyline class="cls-2" points="9.29 -5.36 18.57 0 27.85 5.35 27.85 5.36"/><polyline class="cls-2" points="9.29 5.36 9.29 5.35 18.57 0 27.85 -5.36"/><polygon class="cls-2" points="27.85 5.36 27.85 -5.36 18.57 -10.72 9.28 -5.36 9.28 5.36 18.57 10.72 27.85 5.36"/><polyline class="cls-2" points="0 -10.72 0 0 0 10.72"/><polyline class="cls-2" points="-9.28 -5.36 0 0 9.28 5.35 9.28 5.36"/><polyline class="cls-2" points="-9.28 5.36 -9.28 5.35 0 0 9.28 -5.36"/><polygon class="cls-2" points="9.28 5.36 9.28 -5.36 0 -10.72 -9.29 -5.36 -9.29 5.36 0 10.72 9.28 5.36"/></pattern><linearGradient id="未命名的渐变_1827" x1="98.98" y1="150" x2="98.98" y2="52.93" gradientUnits="userSpaceOnUse"><stop offset="0" stop-color="#425266"/><stop offset="1" stop-color="#596b8c"/></linearGradient><linearGradient id="未命名的渐变_40" x1="54.47" y1="96.67" x2="95.53" y2="96.67" gradientUnits="userSpaceOnUse"><stop offset="0" stop-color="#38455a"/><stop offset="0.4" stop-color="#89abe6"/><stop offset="0.6" stop-color="#89abe6"/><stop offset="1" stop-color="#283140"/></linearGradient><linearGradient id="未命名的渐变_1827-2" x1="51.03" y1="150" x2="51.03" y2="52.93" xlink:href="#未命名的渐变_1827"/><linearGradient id="未命名的渐变_1827-3" x1="106.34" y1="55.65" x2="106.34" y2="20.17" xlink:href="#未命名的渐变_1827"/><linearGradient id="未命名的渐变_40-2" x1="47.1" y1="29.84" x2="102.91" y2="29.84" xlink:href="#未命名的渐变_40"/><linearGradient id="未命名的渐变_1827-4" x1="43.67" y1="55.65" x2="43.67" y2="20.17" xlink:href="#未命名的渐变_1827"/></defs><title>竖井</title><g id="图层_2" data-name="图层 2"><g id="图元"><g id="竖井"><g class="cls-3"><rect class="cls-4" width="150" height="150"/><rect id="网格" class="cls-5" width="150" height="150"/></g><g class="cls-6"><polygon class="cls-7" points="95.53 52.93 95.33 150 102.42 150 102.62 52.93 95.53 52.93"/><path class="cls-8" d="M89.84,46.9a30.1,30.1,0,0,0-14.79-3.55c-10,0-18.41,4.11-20.38,9.58L54.47,150c2-5.47,10.34-9.58,20.38-9.58A30.13,30.13,0,0,1,89.64,144a12.32,12.32,0,0,1,5.69,6l.2-97.07A12.32,12.32,0,0,0,89.84,46.9Z"/><path class="cls-9" d="M94.74,44c-5-2.91-12-4.72-19.71-4.72-13.9,0-25.39,5.9-27.45,13.61h7.09c2-5.47,10.34-9.58,20.38-9.58A30.1,30.1,0,0,1,89.84,46.9a12.32,12.32,0,0,1,5.69,6h7.09C101.66,49.48,98.83,46.4,94.74,44Z"/><polygon class="cls-10" points="47.58 52.93 47.38 150 54.47 150 54.67 52.93 47.58 52.93"/></g><g class="cls-6"><polygon class="cls-11" points="102.91 20.17 102.81 55.65 109.77 55.65 109.87 20.17 102.91 20.17"/><path class="cls-12" d="M102.55,17.64c-1-3.44-3.79-6.52-7.87-8.88C89.62,5.84,82.65,4,75,4c-13.9,0-25.38,5.89-27.44,13.6A9.18,9.18,0,0,0,47.2,20l-.1,35.48a9.18,9.18,0,0,1,.32-2.39C49.48,45.41,61,39.52,74.86,39.51c7.69,0,14.66,1.81,19.72,4.73,4.08,2.36,6.92,5.44,7.87,8.88a9.78,9.78,0,0,1,.36,2.53l.1-35.48A9.85,9.85,0,0,0,102.55,17.64Z"/><path class="cls-9" d="M109.58,17.64c-1-4.56-4.64-8.65-10-11.73C93.27,2.26,84.55,0,74.94,0,57.19,0,42.58,7.7,40.49,17.64a12.56,12.56,0,0,0-.26,2.53h7a9.34,9.34,0,0,1,.32-2.53C49.58,9.93,61.06,4,75,4c7.69,0,14.66,1.8,19.72,4.72,4.08,2.36,6.92,5.44,7.87,8.88a9.85,9.85,0,0,1,.36,2.53h7A11.9,11.9,0,0,0,109.58,17.64Z"/><polygon class="cls-13" points="40.23 20.17 40.13 55.65 47.1 55.65 47.2 20.17 40.23 20.17"/></g></g></g></g></svg>