<svg xmlns="http://www.w3.org/2000/svg" xmlns:xlink="http://www.w3.org/1999/xlink" viewBox="0 0 150 150"><defs><style>.cls-1,.cls-2{fill:none;}.cls-2{stroke:#fff;stroke-miterlimit:10;stroke-width:0.1px;}.cls-3{opacity:0;}.cls-4{fill:#000714;}.cls-5{opacity:0.1;fill:url(#新建图案);}.cls-6{isolation:isolate;}.cls-7{fill:#4e5f79;}.cls-8{fill:#5d779e;}.cls-9{fill:#171d23;}.cls-10{fill:#85a9e5;}.cls-11{fill:url(#未命名的渐变_13);}.cls-12{fill:url(#未命名的渐变_13-2);}.cls-13{fill:url(#未命名的渐变_222);}.cls-14{fill:url(#未命名的渐变_178);}.cls-15{fill:url(#未命名的渐变_178-2);}.cls-16{fill:url(#未命名的渐变_13-3);}.cls-17{fill:#7696cb;}.cls-18{opacity:0.2;}</style><pattern id="新建图案" data-name="新建图案" width="18.57" height="32.16" patternTransform="translate(2482.37 1058.25)" patternUnits="userSpaceOnUse" viewBox="0 0 18.57 32.16"><rect class="cls-1" width="18.57" height="32.16"/><polyline class="cls-2" points="18.57 21.44 18.57 32.16 18.57 42.88"/><polyline class="cls-2" points="9.29 26.8 18.57 32.16 27.85 37.51 27.85 37.52"/><polyline class="cls-2" points="9.29 37.52 9.29 37.51 18.57 32.16 27.85 26.8"/><polygon class="cls-2" points="27.85 37.52 27.85 26.8 18.57 21.44 9.28 26.8 9.28 37.52 18.57 42.88 27.85 37.52"/><polyline class="cls-2" points="0 21.44 0 32.16 0 42.88"/><polyline class="cls-2" points="-9.28 26.8 0 32.16 9.28 37.51 9.28 37.52"/><polyline class="cls-2" points="-9.28 37.52 -9.28 37.51 0 32.16 9.28 26.8"/><polygon class="cls-2" points="9.28 37.52 9.28 26.8 0 21.44 -9.29 26.8 -9.29 37.52 0 42.88 9.28 37.52"/><polyline class="cls-2" points="18.57 10.72 27.85 16.08 37.13 21.43 37.13 21.44"/><polyline class="cls-2" points="18.57 21.44 18.57 21.43 27.85 16.08 37.13 10.72"/><polygon class="cls-2" points="37.14 21.44 37.14 10.72 27.85 5.36 18.57 10.72 18.57 21.44 27.85 26.8 37.14 21.44"/><polyline class="cls-2" points="9.29 5.36 9.29 16.08 9.29 26.8"/><polyline class="cls-2" points="0.01 10.72 9.29 16.08 18.57 21.43 18.57 21.44"/><polyline class="cls-2" points="0.01 21.44 0.01 21.43 9.29 16.08 18.57 10.72"/><polygon class="cls-2" points="18.57 21.44 18.57 10.72 9.28 5.36 0 10.72 0 21.44 9.28 26.8 18.57 21.44"/><polyline class="cls-2" points="-18.56 10.72 -9.28 16.08 0 21.43 0 21.44"/><polyline class="cls-2" points="-18.56 21.44 -18.56 21.43 -9.28 16.08 0 10.72"/><polygon class="cls-2" points="0 21.44 0 10.72 -9.29 5.36 -18.57 10.72 -18.57 21.44 -9.29 26.8 0 21.44"/><polyline class="cls-2" points="18.57 -10.72 18.57 0 18.57 10.72"/><polyline class="cls-2" points="9.29 -5.36 18.57 0 27.85 5.35 27.85 5.36"/><polyline class="cls-2" points="9.29 5.36 9.29 5.35 18.57 0 27.85 -5.36"/><polygon class="cls-2" points="27.85 5.36 27.85 -5.36 18.57 -10.72 9.28 -5.36 9.28 5.36 18.57 10.72 27.85 5.36"/><polyline class="cls-2" points="0 -10.72 0 0 0 10.72"/><polyline class="cls-2" points="-9.28 -5.36 0 0 9.28 5.35 9.28 5.36"/><polyline class="cls-2" points="-9.28 5.36 -9.28 5.35 0 0 9.28 -5.36"/><polygon class="cls-2" points="9.28 5.36 9.28 -5.36 0 -10.72 -9.29 -5.36 -9.29 5.36 0 10.72 9.28 5.36"/></pattern><linearGradient id="未命名的渐变_13" x1="42.93" y1="66.08" x2="48.3" y2="66.08" gradientUnits="userSpaceOnUse"><stop offset="0" stop-color="#89abe6"/><stop offset="1" stop-color="#547099"/></linearGradient><linearGradient id="未命名的渐变_13-2" x1="101.22" y1="68.05" x2="106.58" y2="68.05" xlink:href="#未命名的渐变_13"/><linearGradient id="未命名的渐变_222" x1="56.71" y1="97.05" x2="96.08" y2="74.33" gradientUnits="userSpaceOnUse"><stop offset="0" stop-color="#283140"/><stop offset="0.14" stop-color="#7a98cc"/><stop offset="0.9" stop-color="#12161a"/><stop offset="1" stop-color="#283140"/></linearGradient><linearGradient id="未命名的渐变_178" x1="42.83" y1="57.92" x2="107.03" y2="57.92" gradientUnits="userSpaceOnUse"><stop offset="0" stop-color="#38455a"/><stop offset="0.15" stop-color="#89abe6"/><stop offset="0.25" stop-color="#89abe6"/><stop offset="0.9" stop-color="#12161a"/><stop offset="1" stop-color="#283140"/></linearGradient><linearGradient id="未命名的渐变_178-2" x1="39.64" y1="32.92" x2="110.36" y2="32.92" xlink:href="#未命名的渐变_178"/><linearGradient id="未命名的渐变_13-3" x1="39.65" y1="20.48" x2="110.36" y2="20.48" gradientTransform="translate(95.27 -54.58) rotate(89.84)" xlink:href="#未命名的渐变_13"/></defs><title>竖井仓</title><g id="图层_2" data-name="图层 2"><g id="图元"><g id="竖井仓"><g class="cls-3"><rect class="cls-4" width="150" height="150"/><rect id="网格" class="cls-5" width="150" height="150"/></g><g class="cls-6"><polygon class="cls-7" points="89.59 97.55 88.72 98.14 102.22 123.04 103.17 122.59 89.59 97.55"/><polygon class="cls-8" points="75.86 70.68 75.22 71.05 88.72 95.94 89.36 95.57 75.86 70.68"/><polygon class="cls-7" points="102.32 86.7 88.72 95.94 87.85 96.54 74.17 105.84 74.17 108.03 88.72 98.14 89.59 97.55 103.27 88.24 102.32 86.7"/><polygon class="cls-8" points="90.23 97.17 89.59 97.55 103.17 122.59 103.81 122.22 90.23 97.17"/><polygon class="cls-7" points="75.22 71.05 74.27 71.49 87.85 96.54 88.72 95.94 75.22 71.05"/><polygon class="cls-8" points="102.96 86.33 102.32 86.7 103.27 88.24 103.91 87.87 102.96 86.33"/></g><g class="cls-6"><polygon class="cls-9" points="60.86 93.97 61.73 94.57 48.23 119.46 47.28 119.01 60.86 93.97"/><polygon class="cls-10" points="74.59 67.11 75.23 67.48 61.73 92.37 61.09 92 74.59 67.11"/><polygon class="cls-9" points="48.13 83.13 61.73 92.37 62.6 92.97 76.28 102.27 76.28 104.46 61.73 94.57 60.86 93.97 47.18 84.67 48.13 83.13"/><polygon class="cls-10" points="60.22 93.6 60.86 93.97 47.28 119.01 46.64 118.64 60.22 93.6"/><polygon class="cls-9" points="75.23 67.48 76.18 67.92 62.6 92.97 61.73 92.37 75.23 67.48"/><polygon class="cls-10" points="47.49 82.75 48.13 83.13 47.18 84.67 46.54 84.3 47.49 82.75"/></g><g class="cls-6"><polygon class="cls-11" points="45.61 64.52 42.93 66.08 45.62 67.63 48.3 66.08 45.61 64.52"/><polygon class="cls-9" points="45.62 67.63 45.52 132.29 48.19 130.74 48.3 66.08 45.62 67.63"/><polygon class="cls-7" points="42.93 66.08 42.83 130.74 45.52 132.29 45.62 67.63 42.93 66.08"/></g><g class="cls-6"><polygon class="cls-12" points="103.89 66.5 101.22 68.05 103.91 69.61 106.58 68.05 103.89 66.5"/><polygon class="cls-9" points="103.91 69.61 103.81 134.26 106.48 132.71 106.58 68.05 103.91 69.61"/><polygon class="cls-7" points="101.22 68.05 101.11 132.71 103.81 134.26 103.91 69.61 101.22 68.05"/></g><g class="cls-6"><polygon class="cls-7" points="61.96 113.85 61.09 114.45 74.59 139.34 75.55 138.9 61.96 113.85"/><polygon class="cls-8" points="48.23 86.99 47.6 87.36 61.1 112.25 61.73 111.88 48.23 86.99"/><polygon class="cls-7" points="74.7 103.01 61.1 112.25 60.22 112.85 46.54 122.15 46.54 124.34 61.09 114.45 61.96 113.85 75.64 104.55 74.7 103.01"/><polygon class="cls-8" points="62.6 113.48 61.96 113.85 75.55 138.9 76.18 138.52 62.6 113.48"/><polygon class="cls-7" points="47.6 87.36 46.64 87.8 60.22 112.85 61.1 112.25 47.6 87.36"/><polygon class="cls-8" points="75.33 102.64 74.7 103.01 75.64 104.55 76.28 104.18 75.33 102.64"/></g><g class="cls-6"><path class="cls-13" d="M97.19,85.72c-12.69,7.11-33,6.91-45.3-.46a26.75,26.75,0,0,1-3.35-2.36l17.63,17.43a8.54,8.54,0,0,0,1.1.77c4,2.42,10.69,2.48,14.84.15a8.06,8.06,0,0,0,1.29-.87c5.91-4.87,11.81-12.46,17.71-17.33h0A27.12,27.12,0,0,1,97.19,85.72Z"/><path class="cls-14" d="M107,25.07l-.14,47.39c0,4.83-3.26,9.64-9.7,13.26-12.69,7.12-33,6.91-45.3-.46-6.06-3.63-9.08-8.31-9.06-13l.11-39.35,0-8c0,4.67,3,9.34,9.06,13,12.33,7.37,32.61,7.57,45.3.46,5.76-3.23,9-7.41,9.58-11.71A9,9,0,0,0,107,25.07Z"/><path class="cls-15" d="M99.65,35.21c-14,7.86-36.39,7.63-50-.5-6.69-4-10-9.17-10-14.33v4.5c0,5.16,3.31,10.32,10,14.33,13.61,8.13,36,8.36,50,.5,7.11-4,10.7-9.3,10.71-14.63v-4.5C110.35,25.91,106.77,31.22,99.65,35.21Z"/><ellipse class="cls-16" cx="75.01" cy="20.48" rx="20.48" ry="35.36" transform="translate(54.31 95.43) rotate(-89.84)"/></g><g class="cls-6"><polygon class="cls-7" points="46.61 86.47 46.61 87.95 75.77 104.78 75.78 103.31 46.61 86.47"/><polygon class="cls-9" points="75.78 103.31 75.77 104.78 76.41 104.41 76.41 102.94 75.78 103.31"/><polygon class="cls-17" points="47.25 86.1 46.61 86.47 75.78 103.31 76.41 102.94 47.25 86.1"/></g><g class="cls-6"><polygon class="cls-9" points="87.43 116.77 88.31 117.36 77.78 136.78 76.82 136.33 87.43 116.77"/><polygon class="cls-10" points="101.16 89.91 101.8 90.28 88.3 115.17 87.66 114.8 101.16 89.91"/><polygon class="cls-9" points="78.52 108.54 88.3 115.17 89.17 115.76 102.86 125.06 102.86 127.26 88.31 117.36 87.43 116.77 77.57 110.08 78.52 108.54"/><polygon class="cls-10" points="86.79 116.4 87.43 116.77 76.82 136.33 76.18 135.96 86.79 116.4"/><polygon class="cls-9" points="101.8 90.28 102.76 90.72 89.17 115.76 88.3 115.17 101.8 90.28"/><polygon class="cls-8" points="77.88 108.17 78.52 108.54 77.57 110.08 76.94 109.71 77.88 108.17"/></g><g class="cls-6"><polygon class="cls-9" points="102.78 89.38 102.78 90.86 78.12 105.06 78.11 103.58 102.78 89.38"/><polygon class="cls-9" points="78.11 103.58 78.12 105.06 77.48 104.69 77.47 103.21 78.11 103.58"/><polygon class="cls-17" points="102.14 89.01 102.78 89.38 78.11 103.58 77.47 103.21 102.14 89.01"/></g><g class="cls-6"><path class="cls-9" d="M79.33,90.75l-.1,57.7L76.56,150l.1-59.1C77.55,90.87,78.45,90.82,79.33,90.75Z"/><path class="cls-7" d="M76.66,90.9l-.1,59.1-2.68-1.55L74,90.92C74.86,90.93,75.76,90.92,76.66,90.9Z"/></g></g></g></g></svg>