<?xml version="1.0" encoding="UTF-8"?>
<svg id="_图层_2" data-name="图层 2" xmlns="http://www.w3.org/2000/svg" xmlns:xlink="http://www.w3.org/1999/xlink" viewBox="0 0 149.68 150.78">
  <defs>
    <style>
      .cls-1 {
        fill: url(#_未命名的渐变_25);
      }

      .cls-1, .cls-2, .cls-3, .cls-4, .cls-5, .cls-6, .cls-7, .cls-8, .cls-9, .cls-10, .cls-11, .cls-12, .cls-13, .cls-14, .cls-15, .cls-16, .cls-17, .cls-18, .cls-19, .cls-20, .cls-21, .cls-22, .cls-23, .cls-24, .cls-25, .cls-26, .cls-27, .cls-28, .cls-29, .cls-30, .cls-31, .cls-32, .cls-33, .cls-34, .cls-35, .cls-36, .cls-37, .cls-38, .cls-39, .cls-40, .cls-41, .cls-42, .cls-43, .cls-44, .cls-45, .cls-46, .cls-47, .cls-48, .cls-49, .cls-50, .cls-51, .cls-52, .cls-53, .cls-54, .cls-55, .cls-56, .cls-57, .cls-58, .cls-59, .cls-60, .cls-61, .cls-62, .cls-63, .cls-64, .cls-65, .cls-66, .cls-67, .cls-68 {
        stroke-width: 0px;
      }

      .cls-2 {
        fill: url(#_未命名的渐变_41);
      }

      .cls-3 {
        fill: url(#_未命名的渐变_40);
      }

      .cls-69 {
        clip-path: url(#clippath);
      }

      .cls-4 {
        fill: none;
      }

      .cls-5 {
        fill: url(#_未命名的渐变_201-2);
      }

      .cls-6 {
        fill: url(#_未命名的渐变_202-3);
      }

      .cls-7 {
        fill: url(#_未命名的渐变_202-4);
      }

      .cls-8 {
        fill: url(#_未命名的渐变_202-5);
      }

      .cls-9 {
        fill: url(#_未命名的渐变_202-2);
      }

      .cls-10 {
        fill: url(#_未命名的渐变_218-9);
      }

      .cls-11 {
        fill: url(#_未命名的渐变_218-6);
      }

      .cls-12 {
        fill: url(#_未命名的渐变_218-5);
      }

      .cls-13 {
        fill: url(#_未命名的渐变_218-4);
      }

      .cls-14 {
        fill: url(#_未命名的渐变_218-2);
      }

      .cls-15 {
        fill: url(#_未命名的渐变_218-7);
      }

      .cls-16 {
        fill: url(#_未命名的渐变_218-3);
      }

      .cls-17 {
        fill: url(#_未命名的渐变_218-8);
      }

      .cls-18 {
        fill: url(#_未命名的渐变_222-2);
      }

      .cls-19 {
        fill: url(#_未命名的渐变_222-3);
      }

      .cls-20 {
        fill: url(#_未命名的渐变_222-4);
      }

      .cls-70 {
        clip-path: url(#clippath-1);
      }

      .cls-71 {
        clip-path: url(#clippath-4);
      }

      .cls-72 {
        clip-path: url(#clippath-3);
      }

      .cls-73 {
        clip-path: url(#clippath-2);
      }

      .cls-74 {
        clip-path: url(#clippath-7);
      }

      .cls-75 {
        clip-path: url(#clippath-8);
      }

      .cls-76 {
        clip-path: url(#clippath-6);
      }

      .cls-77 {
        clip-path: url(#clippath-5);
      }

      .cls-78 {
        clip-path: url(#clippath-9);
      }

      .cls-79 {
        clip-path: url(#clippath-12);
      }

      .cls-80 {
        clip-path: url(#clippath-10);
      }

      .cls-81 {
        clip-path: url(#clippath-11);
      }

      .cls-82 {
        opacity: .2;
      }

      .cls-83 {
        isolation: isolate;
      }

      .cls-22 {
        fill: url(#_未命名的渐变_202);
      }

      .cls-23 {
        fill: url(#_未命名的渐变_201);
      }

      .cls-24 {
        fill: url(#_未命名的渐变_218);
      }

      .cls-25 {
        fill: url(#_未命名的渐变_222);
      }

      .cls-26 {
        fill: url(#_未命名的渐变_220);
      }

      .cls-27 {
        fill: #010714;
        opacity: 0;
      }

      .cls-28 {
        fill: #4b5c7c;
      }

      .cls-29 {
        fill: #627aa2;
      }

      .cls-30 {
        fill: #60779e;
      }

      .cls-31 {
        fill: #758fc1;
      }

      .cls-32 {
        fill: #5e749a;
      }

      .cls-33 {
        fill: #7893c6;
      }

      .cls-34 {
        fill: #526586;
      }

      .cls-35 {
        fill: #7690c3;
      }

      .cls-36 {
        fill: #4d5f80;
      }

      .cls-37 {
        fill: #4f6282;
      }

      .cls-38 {
        fill: #262f3e;
      }

      .cls-39 {
        fill: #485978;
      }

      .cls-40 {
        fill: #293242;
      }

      .cls-41 {
        fill: #5c7196;
      }

      .cls-42 {
        fill: #566b8f;
      }

      .cls-43 {
        fill: #283141;
      }

      .cls-44 {
        fill: #637ba4;
      }

      .cls-45 {
        fill: #6f87b7;
      }

      .cls-46 {
        fill: #9aafd4;
      }

      .cls-47 {
        fill: #6c84b3;
      }

      .cls-48 {
        fill: #465674;
      }

      .cls-49 {
        fill: #465774;
      }

      .cls-50 {
        fill: #86a0cd;
      }

      .cls-51 {
        fill: #96acd3;
      }

      .cls-52 {
        fill: #54688b;
      }

      .cls-53 {
        fill: #a1b5d8;
      }

      .cls-54 {
        fill: #718abb;
      }

      .cls-55 {
        fill: #596e93;
      }

      .cls-56 {
        fill: #3e4d69;
      }

      .cls-57 {
        fill: #41506c;
      }

      .cls-58 {
        fill: #42516c;
      }

      .cls-59 {
        fill: #435370;
      }

      .cls-60 {
        fill: #252d3c;
      }

      .cls-61 {
        fill: #242c3a;
      }

      .cls-62 {
        fill: #92a9d1;
      }

      .cls-63 {
        fill: #9db2d6;
      }

      .cls-64 {
        fill: #8da5cf;
      }

      .cls-65 {
        fill: #6a81ae;
      }

      .cls-66 {
        fill: #657da6;
      }

      .cls-67 {
        fill: #6780aa;
      }

      .cls-68 {
        fill: #738dbf;
      }
    </style>
    <linearGradient id="_未命名的渐变_218" data-name="未命名的渐变 218" x1="64.94" y1="133.68" x2="85.01" y2="133.68" gradientTransform="translate(-.01 .01)" gradientUnits="userSpaceOnUse">
      <stop offset="0" stop-color="#38455a"/>
      <stop offset=".15" stop-color="#7a95c9"/>
      <stop offset=".25" stop-color="#7a95c9"/>
      <stop offset=".9" stop-color="#12161a"/>
      <stop offset="1" stop-color="#283140"/>
    </linearGradient>
    <linearGradient id="_未命名的渐变_201" data-name="未命名的渐变 201" x1="59.95" y1="122.44" x2="88.42" y2="122.44" gradientTransform="translate(-.01 .01)" gradientUnits="userSpaceOnUse">
      <stop offset="0" stop-color="#283140"/>
      <stop offset="1" stop-color="#12161a"/>
    </linearGradient>
    <linearGradient id="_未命名的渐变_218-2" data-name="未命名的渐变 218" x1="59.18" y1="122.01" x2="87.64" y2="122.01" xlink:href="#_未命名的渐变_218"/>
    <clipPath id="clippath">
      <path class="cls-4" d="m77.15,106.03l-.05,1.19c0-.19-.07-.39-.25-.59l.05-1.19c.18.19.26.39.25.59Z"/>
    </clipPath>
    <clipPath id="clippath-1">
      <path class="cls-4" d="m71.61,107l.05-1.19c.02-.49.61-.94,1.6-1.13,1.38-.27,3.01.07,3.65.76l-.05,1.19c-.64-.68-2.27-1.02-3.65-.76-.99.19-1.58.64-1.6,1.13Z"/>
    </clipPath>
    <clipPath id="clippath-2">
      <path class="cls-4" d="m71.66,105.82c0,.19.07.39.25.59.64.68,2.27,1.02,3.65.76.99-.19,1.58-.64,1.6-1.13l-.05,1.19c-.02.49-.61.94-1.6,1.13-1.38.27-3.01-.07-3.65-.76-.18-.19-.26-.39-.25-.59.01-.36.03-.83.05-1.19Z"/>
    </clipPath>
    <clipPath id="clippath-3">
      <path class="cls-4" d="m36.18,63.31c-4.72-9.24,4.47-18.69,22.77-22.22,20.68-3.98,45.17,1.11,54.7,11.38l-25.14,51.91c-3.6-3.88-12.85-5.8-20.66-4.3-6.91,1.33-10.38,4.9-8.6,8.39-7.69-15.06-15.37-30.11-23.06-45.17Z"/>
    </clipPath>
    <clipPath id="clippath-4">
      <path class="cls-4" d="m60.13,107.22c-7.3-14.3-14.6-28.59-21.9-42.88-4.47-8.76,4.23-17.71,21.57-21.05,19.6-3.78,42.8,1.05,51.83,10.78l-23.87,49.29c-3.4-3.66-12.13-5.48-19.51-4.06-6.53,1.26-9.81,4.63-8.12,7.93Z"/>
    </clipPath>
    <clipPath id="clippath-5">
      <path class="cls-4" d="m89.32,109.65c1.01-1.65.82-3.51-.81-5.26l25.14-51.91c4.32,4.66,4.82,9.57,2.15,13.93-8.83,14.41-17.65,28.83-26.48,43.24Z"/>
    </clipPath>
    <clipPath id="clippath-6">
      <path class="cls-4" d="m113.67,67.26c-8.38,13.69-16.76,27.37-25.14,41.06.95-1.55.77-3.31-.77-4.97l23.87-49.29c4.09,4.41,4.57,9.07,2.04,13.2Z"/>
    </clipPath>
    <clipPath id="clippath-7">
      <path class="cls-4" d="m76.14,61.29s-.01,0-.02,0,0,0,0,0,.01,0,.02,0,0,0,0,0l35.49-7.23c9.03,9.73.46,20.68-19.14,24.45-19.6,3.78-42.8-1.05-51.83-10.78-9.03-9.73-.46-20.68,19.14-24.45,19.6-3.78,42.8,1.05,51.83,10.78l-35.49,7.23Z"/>
    </clipPath>
    <clipPath id="clippath-8">
      <path class="cls-4" d="m38.23,64.33c.58,1.14,1.39,2.28,2.43,3.4,9.03,9.73,32.23,14.56,51.83,10.78,10.71-2.06,18.13-6.27,21.18-11.25-8.38,13.69-16.76,27.37-25.14,41.06-1.15,1.87-3.94,3.46-7.97,4.24-7.38,1.42-16.11-.4-19.51-4.06-.39-.42-.7-.85-.92-1.28-7.3-14.3-14.6-28.59-21.9-42.88Z"/>
    </clipPath>
    <clipPath id="clippath-9">
      <path class="cls-4" d="m113.64,52.47l-37.47,7.63,37.47-7.63c9.53,10.27.48,21.82-20.2,25.81s-45.17-1.11-54.7-11.38-.48-21.82,20.2-25.81c20.68-3.98,45.17,1.11,54.7,11.38Z"/>
    </clipPath>
    <linearGradient id="_未命名的渐变_41" data-name="未命名的渐变 41" x1="36.18" y1="88.97" x2="115.8" y2="88.97" gradientTransform="translate(-.01 .01)" gradientUnits="userSpaceOnUse">
      <stop offset=".12" stop-color="#38455a"/>
      <stop offset=".34" stop-color="#7a95c9"/>
      <stop offset=".44" stop-color="#7a95c9"/>
      <stop offset=".84" stop-color="#12161a"/>
      <stop offset="1" stop-color="#283140"/>
    </linearGradient>
    <linearGradient id="_未命名的渐变_218-3" data-name="未命名的渐变 218" x1="34.57" y1="53.04" x2="118.68" y2="53.04" xlink:href="#_未命名的渐变_218"/>
    <linearGradient id="_未命名的渐变_202" data-name="未命名的渐变 202" x1="34.66" y1="24.33" x2="118.68" y2="24.33" gradientTransform="translate(-.01 .01)" gradientUnits="userSpaceOnUse">
      <stop offset="0" stop-color="#86a8e3"/>
      <stop offset="1" stop-color="#547096"/>
      <stop offset="1" stop-color="#547096"/>
    </linearGradient>
    <linearGradient id="_未命名的渐变_222" data-name="未命名的渐变 222" x1="78.99" y1="15.34" x2="107.83" y2="15.34" gradientTransform="translate(-.01 .01)" gradientUnits="userSpaceOnUse">
      <stop offset="0" stop-color="#2a73e3"/>
      <stop offset="1" stop-color="#143cc9"/>
    </linearGradient>
    <linearGradient id="_未命名的渐变_222-2" data-name="未命名的渐变 222" x1="46.04" y1="15.34" x2="75.07" y2="15.34" xlink:href="#_未命名的渐变_222"/>
    <linearGradient id="_未命名的渐变_222-3" data-name="未命名的渐变 222" x1="77.03" y1="33.23" x2="106.05" y2="33.23" xlink:href="#_未命名的渐变_222"/>
    <linearGradient id="_未命名的渐变_222-4" data-name="未命名的渐变 222" x1="48.2" y1="33.23" x2="77.04" y2="33.23" xlink:href="#_未命名的渐变_222"/>
    <linearGradient id="_未命名的渐变_220" data-name="未命名的渐变 220" x1="46.05" y1="22.5" x2="108" y2="22.5" gradientTransform="translate(-.01 .01)" gradientUnits="userSpaceOnUse">
      <stop offset="0" stop-color="#8adff9"/>
      <stop offset="1" stop-color="#4eb3f7"/>
    </linearGradient>
    <linearGradient id="_未命名的渐变_201-2" data-name="未命名的渐变 201" x1="67.72" y1="12.85" x2="85.87" y2="12.85" xlink:href="#_未命名的渐变_201"/>
    <linearGradient id="_未命名的渐变_218-4" data-name="未命名的渐变 218" x1="66.22" y1="18.5" x2="87.38" y2="18.5" xlink:href="#_未命名的渐变_218"/>
    <linearGradient id="_未命名的渐变_202-2" data-name="未命名的渐变 202" x1="66.26" y1="7.16" x2="87.38" y2="7.16" xlink:href="#_未命名的渐变_202"/>
    <clipPath id="clippath-10">
      <path class="cls-4" d="m87.44,35.97v5.54c-.01-1.35-.9-2.7-2.69-3.73-3.55-2.05-9.27-2.05-12.79,0-1.75,1.02-2.63,2.35-2.63,3.69v-5.54c.02-1.33.9-2.67,2.65-3.69,3.52-2.05,9.24-2.05,12.79,0,1.78,1.03,2.68,2.38,2.67,3.73Z"/>
    </clipPath>
    <linearGradient id="_未命名的渐变_218-5" data-name="未命名的渐变 218" x1="67.83" y1="41.75" x2="88.96" y2="41.75" xlink:href="#_未命名的渐变_218"/>
    <linearGradient id="_未命名的渐变_218-6" data-name="未命名的渐变 218" x1="66.63" y1="40.71" x2="90.68" y2="40.71" xlink:href="#_未命名的渐变_218"/>
    <linearGradient id="_未命名的渐变_202-3" data-name="未命名的渐变 202" x1="66.63" y1="36.7" x2="90.68" y2="36.7" xlink:href="#_未命名的渐变_202"/>
    <clipPath id="clippath-11">
      <path class="cls-4" d="m113.09,18.41v5.54c-.01-1.35-.9-2.7-2.69-3.73-3.55-2.05-9.27-2.05-12.79,0-1.75,1.02-2.63,2.35-2.63,3.69v-5.54c.02-1.33.9-2.67,2.65-3.69,3.52-2.05,9.24-2.05,12.79,0,1.78,1.03,2.68,2.38,2.67,3.73Z"/>
    </clipPath>
    <linearGradient id="_未命名的渐变_218-7" data-name="未命名的渐变 218" x1="93.48" y1="24.19" x2="114.61" y2="24.19" xlink:href="#_未命名的渐变_218"/>
    <linearGradient id="_未命名的渐变_218-8" data-name="未命名的渐变 218" x1="92.28" y1="23.15" x2="116.33" y2="23.15" xlink:href="#_未命名的渐变_218"/>
    <linearGradient id="_未命名的渐变_202-4" data-name="未命名的渐变 202" x1="92.29" y1="19.14" x2="116.33" y2="19.14" xlink:href="#_未命名的渐变_202"/>
    <clipPath id="clippath-12">
      <path class="cls-4" d="m57.14,18.76v5.54c-.01-1.35-.9-2.7-2.69-3.73-3.55-2.05-9.27-2.05-12.79,0-1.75,1.02-2.63,2.35-2.63,3.69v-5.54c.02-1.33.9-2.67,2.65-3.69,3.52-2.05,9.24-2.05,12.79,0,1.78,1.03,2.68,2.38,2.67,3.73Z"/>
    </clipPath>
    <linearGradient id="_未命名的渐变_218-9" data-name="未命名的渐变 218" x1="37.53" y1="24.54" x2="58.66" y2="24.54" xlink:href="#_未命名的渐变_218"/>
    <linearGradient id="_未命名的渐变_202-5" data-name="未命名的渐变 202" x1="37.54" y1="18.73" x2="58.66" y2="18.73" xlink:href="#_未命名的渐变_202"/>
    <linearGradient id="_未命名的渐变_25" data-name="未命名的渐变 25" x1="98.8" y1="93.84" x2="77.13" y2="83.84" gradientTransform="translate(-.01 .01)" gradientUnits="userSpaceOnUse">
      <stop offset="0" stop-color="#283140"/>
      <stop offset=".6" stop-color="#12161a" stop-opacity="0"/>
    </linearGradient>
    <linearGradient id="_未命名的渐变_40" data-name="未命名的渐变 40" x1="1791.08" y1="118.56" x2="1768.72" y2="108.24" gradientTransform="translate(1850.02 -21.7) rotate(179.99) scale(1 -.97) skewX(6.53)" gradientUnits="userSpaceOnUse">
      <stop offset="0" stop-color="#44546f"/>
      <stop offset=".6" stop-color="#12161a" stop-opacity="0"/>
    </linearGradient>
  </defs>
  <g id="_图元" data-name="图元">
    <g id="_粗粉分离器" data-name="粗粉分离器">
      <rect class="cls-27" x=".01" y=".01" width="149.66" height="149.92"/>
      <g>
        <g class="cls-83">
          <path class="cls-24" d="m84.79,146s.02-.1.04-.14c.07-.28.12-.56.12-.84l.08-28.37c0,.28-.05.56-.12.84-.01.05-.02.1-.04.14-.08.27-.19.53-.34.79-.03.05-.06.1-.09.15-.16.26-.35.52-.58.78-.02.02-.04.04-.06.06-.23.24-.49.47-.78.7-.05.04-.09.08-.15.12-.23.17-.48.34-.75.5-.44.26-.92.48-1.42.67-.08.03-.16.07-.25.1-.47.18-.96.32-1.46.45-.16.04-.32.07-.48.1-.4.09-.81.16-1.23.21-.17.02-.34.05-.51.06-.47.05-.95.07-1.43.08-.11,0-.22.01-.33.01-.58,0-1.16-.04-1.74-.1-.16-.02-.31-.05-.46-.07-.42-.06-.84-.12-1.24-.21-.19-.04-.38-.09-.56-.14-.4-.1-.79-.22-1.16-.35-.13-.05-.26-.09-.39-.14-.51-.2-1-.43-1.46-.69-.25-.15-.49-.3-.71-.46-.07-.05-.14-.11-.21-.16-.14-.11-.28-.21-.4-.32-.05-.04-.09-.09-.14-.14-.15-.14-.29-.28-.42-.43-.06-.07-.11-.14-.16-.2-.1-.13-.2-.26-.28-.39-.05-.08-.11-.17-.15-.25-.04-.07-.07-.13-.1-.2-.05-.11-.09-.21-.14-.32-.02-.07-.05-.13-.07-.2-.04-.12-.06-.23-.09-.35-.01-.06-.03-.11-.04-.17-.03-.17-.04-.35-.04-.52l-.08,28.37c0,.17.02.35.04.52,0,.06.02.11.04.17.02.12.05.24.09.35.02.07.05.13.07.2.04.11.08.21.13.32.03.07.07.13.1.2.02.05.04.09.07.14.02.04.06.08.08.12.08.13.18.26.28.39.05.07.11.14.16.2.13.15.27.29.42.43.04.04.07.08.11.11,0,0,.02.02.03.03.12.11.26.22.4.32.07.05.14.11.21.17.22.16.46.31.71.46.04.02.08.05.13.07.42.23.87.43,1.33.62.13.05.26.09.39.14.21.08.42.16.64.23.17.05.34.08.51.12.19.05.37.1.57.14.41.09.82.16,1.24.21.16.02.31.05.46.07.58.06,1.16.09,1.74.1.11,0,.22-.01.33-.01.38,0,.75-.01,1.13-.04.1,0,.2-.03.3-.04.17-.02.34-.04.51-.06.42-.05.82-.13,1.23-.21.16-.03.32-.07.48-.1.09-.02.18-.03.26-.06.41-.11.81-.25,1.2-.39.08-.03.16-.07.25-.1.17-.07.34-.13.51-.2.32-.14.62-.3.91-.47.27-.16.52-.32.75-.49.02-.01.04-.03.06-.04.03-.02.05-.05.08-.07.29-.22.55-.46.78-.7.02-.02.04-.04.06-.06.23-.25.42-.51.58-.77.03-.05.06-.1.09-.15.15-.26.26-.52.34-.79Z"/>
          <path class="cls-31" d="m82.07,112.53c3.92,2.26,3.93,5.93.04,8.19-3.88,2.26-10.21,2.26-14.13,0-3.92-2.26-3.94-5.93-.05-8.19,3.89-2.26,10.23-2.26,14.14,0Z"/>
        </g>
        <path class="cls-23" d="m88.42,108.39s-6.88,22.5-15.6,28.47c-8.72,5.97-12.85,5.51-12.86-6.43v-26.17s28.46,4.13,28.46,4.13Z"/>
        <path class="cls-14" d="m87.65,107.96s-6.88,22.5-15.6,28.47c-8.72,5.97-12.85,5.51-12.86-6.43v-26.17s28.46,4.13,28.46,4.13Z"/>
        <g class="cls-83">
          <path class="cls-44" d="m88.51,104.38c3.6,3.88.18,8.24-7.63,9.75s-17.06-.42-20.66-4.3c-3.6-3.88-.18-8.24,7.63-9.75s17.06.42,20.66,4.3Zm-11.65,2.24c-.64-.68-2.27-1.02-3.65-.76-1.38.27-1.98,1.04-1.35,1.72s2.27,1.02,3.65.76c1.38-.27,1.98-1.04,1.35-1.72"/>
          <g class="cls-83">
            <g class="cls-69">
              <g class="cls-83">
                <path class="cls-56" d="m77.15,106.03l-.05,1.19c0-.19-.07-.39-.25-.59l.05-1.19c.18.19.26.39.25.59"/>
              </g>
            </g>
          </g>
          <g class="cls-83">
            <g class="cls-70">
              <g class="cls-83">
                <path class="cls-56" d="m76.9,105.44l-.05,1.19c-.17-.18-.4-.33-.68-.46l.05-1.19c.28.13.51.28.68.46"/>
                <path class="cls-57" d="m76.22,104.98l-.05,1.19c-.09-.04-.18-.08-.28-.11l.05-1.19c.1.03.19.07.28.11"/>
                <path class="cls-59" d="m75.95,104.87l-.05,1.19c-.08-.03-.16-.05-.24-.08l.05-1.19c.08.02.16.05.24.08"/>
                <path class="cls-48" d="m75.7,104.79l-.05,1.19c-.07-.02-.15-.04-.23-.06l.05-1.19c.08.02.15.04.23.06"/>
                <path class="cls-39" d="m75.48,104.73l-.05,1.19c-.07-.02-.15-.03-.22-.05l.05-1.19c.08.01.15.03.22.05"/>
                <path class="cls-28" d="m75.25,104.69l-.05,1.19c-.07-.01-.15-.03-.22-.04l.05-1.19c.07.01.15.02.22.04"/>
                <path class="cls-36" d="m75.03,104.65l-.05,1.19c-.07-.01-.15-.02-.22-.03l.05-1.19c.08,0,.15.02.22.03"/>
                <path class="cls-37" d="m74.81,104.62l-.05,1.19c-.08,0-.15-.01-.23-.02l.05-1.19c.08,0,.16.01.23.02"/>
                <path class="cls-34" d="m74.58,104.6l-.05,1.19c-.08,0-.16,0-.25,0l.05-1.19c.08,0,.16,0,.25,0"/>
                <path class="cls-52" d="m74.33,104.59l-.05,1.19c-.09,0-.18,0-.27,0l.05-1.19c.09,0,.18,0,.27,0"/>
                <path class="cls-42" d="m74.05,104.6l-.05,1.19c-.11,0-.22.01-.33.02l.05-1.19c.11-.01.22-.02.33-.02"/>
                <path class="cls-55" d="m73.73,104.62l-.05,1.19c-.16.01-.32.04-.47.07-.03,0-.06.01-.09.02l.05-1.19s.06-.01.09-.02c.15-.03.31-.05.47-.07"/>
                <path class="cls-41" d="m73.17,104.7l-.05,1.19c-.15.03-.29.07-.42.12l.05-1.19c.13-.04.27-.08.42-.12"/>
                <path class="cls-55" d="m72.74,104.82l-.05,1.19c-.16.05-.3.11-.43.18l.05-1.19c.13-.07.27-.13.43-.18"/>
                <path class="cls-42" d="m72.31,105l-.05,1.19c-.07.04-.14.08-.21.13l.05-1.19c.06-.04.13-.09.21-.13"/>
                <path class="cls-52" d="m72.11,105.12l-.05,1.19c-.05.04-.1.07-.14.11l.05-1.19s.09-.08.14-.11"/>
                <path class="cls-34" d="m71.97,105.23l-.05,1.19s-.07.07-.11.11l.05-1.19s.07-.07.11-.11"/>
                <path class="cls-37" d="m71.86,105.34l-.05,1.19s-.06.07-.08.1l.05-1.19s.05-.07.08-.1"/>
                <path class="cls-36" d="m71.78,105.45l-.05,1.19s-.04.07-.06.11l.05-1.19s.04-.07.06-.11"/>
                <path class="cls-28" d="m71.72,105.55l-.05,1.19s-.03.07-.04.11l.05-1.19s.02-.07.04-.11"/>
                <path class="cls-39" d="m71.68,105.66l-.05,1.19s-.02.07-.02.11l.05-1.19s.01-.08.02-.11"/>
                <path class="cls-48" d="m71.66,105.77l-.05,1.19s0,.03,0,.05l.05-1.19s0-.03,0-.05"/>
              </g>
            </g>
          </g>
          <g class="cls-83">
            <g class="cls-73">
              <g class="cls-83">
                <path class="cls-56" d="m71.66,105.82l-.05,1.19c0,.19.07.39.25.59.17.18.4.33.68.46l.05-1.19c-.28-.13-.51-.28-.68-.46-.18-.19-.26-.39-.25-.59"/>
                <path class="cls-57" d="m72.59,106.86l-.05,1.19c.09.04.18.08.28.11l.05-1.19c-.1-.03-.19-.07-.28-.11"/>
                <path class="cls-59" d="m72.86,106.98l-.05,1.19c.08.03.16.05.24.08l.05-1.19c-.08-.02-.16-.05-.24-.08"/>
                <path class="cls-48" d="m73.11,107.05l-.05,1.19c.07.02.15.04.23.06l.05-1.19c-.08-.02-.15-.04-.23-.06"/>
                <path class="cls-39" d="m73.33,107.11l-.05,1.19c.07.02.15.03.22.05l.05-1.19c-.08-.01-.15-.03-.22-.05"/>
                <path class="cls-28" d="m73.55,107.16l-.05,1.19c.07.01.15.03.22.04l.05-1.19c-.07-.01-.15-.02-.22-.04"/>
                <path class="cls-36" d="m73.78,107.2l-.05,1.19c.07.01.15.02.22.03l.05-1.19c-.08,0-.15-.02-.22-.03"/>
                <path class="cls-37" d="m74,107.22l-.05,1.19c.08,0,.15.01.23.02l.05-1.19c-.08,0-.16-.01-.23-.02"/>
                <path class="cls-34" d="m74.23,107.24l-.05,1.19c.08,0,.16,0,.25,0l.05-1.19c-.08,0-.16,0-.25,0"/>
                <path class="cls-52" d="m74.48,107.25l-.05,1.19c.09,0,.18,0,.27,0l.05-1.19c-.09,0-.18,0-.27,0"/>
                <path class="cls-42" d="m74.75,107.25l-.05,1.19c.11,0,.22-.01.33-.02l.05-1.19c-.11.01-.22.02-.33.02"/>
                <path class="cls-55" d="m75.08,107.23l-.05,1.19c.16-.01.32-.04.47-.07.03,0,.06-.01.09-.02l.05-1.19s-.06.01-.09.02c-.15.03-.31.05-.47.07"/>
                <path class="cls-41" d="m75.64,107.14l-.05,1.19c.15-.03.29-.07.42-.12l.05-1.19c-.13.04-.27.08-.42.12"/>
                <path class="cls-55" d="m76.07,107.03l-.05,1.19c.16-.05.3-.11.43-.18l.05-1.19c-.13.07-.27.13-.43.18"/>
                <path class="cls-42" d="m76.5,106.85l-.05,1.19c.07-.04.14-.08.21-.13l.05-1.19c-.06.04-.13.09-.21.13"/>
                <path class="cls-52" d="m76.7,106.72l-.05,1.19c.05-.04.1-.07.14-.11l.05-1.19s-.09.08-.14.11"/>
                <path class="cls-34" d="m76.84,106.61l-.05,1.19s.07-.07.11-.11l.05-1.19s-.07.07-.11.11"/>
                <path class="cls-37" d="m76.95,106.5l-.05,1.19s.06-.07.08-.1l.05-1.19s-.05.07-.08.1"/>
                <path class="cls-36" d="m77.03,106.4l-.05,1.19s.04-.07.06-.11l.05-1.19s-.04.07-.06.11"/>
                <path class="cls-28" d="m77.09,106.29l-.05,1.19s.03-.07.04-.11l.05-1.19s-.02.07-.04.11"/>
                <path class="cls-39" d="m77.13,106.19l-.05,1.19s.02-.07.02-.11l.05-1.19s-.01.08-.02.11"/>
                <path class="cls-48" d="m77.15,106.07l-.05,1.19s0-.03,0-.05l.05-1.19s0,.03,0,.05"/>
              </g>
            </g>
          </g>
          <g class="cls-83">
            <g class="cls-72">
              <g class="cls-83">
                <path class="cls-57" d="m88.51,104.38l25.14-51.91c-.52-.56-1.07-1.1-1.67-1.62l-24.1,52.92c.23.2.44.4.63.61"/>
                <path class="cls-59" d="m87.87,103.77l24.1-52.92c-.69-.6-1.44-1.19-2.23-1.75l-22.71,54.01c.3.21.58.43.84.66"/>
                <path class="cls-48" d="m87.03,103.11l22.71-54.01c-.68-.48-1.41-.95-2.16-1.4l-21.36,54.88c.29.17.56.35.82.53"/>
                <path class="cls-39" d="m86.21,102.58l21.36-54.88c-.68-.41-1.39-.8-2.12-1.18l-20.04,55.61c.28.14.54.29.8.44"/>
                <path class="cls-28" d="m85.41,102.14l20.04-55.61c-.68-.35-1.38-.69-2.11-1.02l-18.73,56.25c.27.12.54.25.8.38"/>
                <path class="cls-36" d="m84.62,101.75l18.73-56.25c-.68-.31-1.39-.61-2.1-.89l-17.42,56.8c.27.11.54.22.8.34"/>
                <path class="cls-37" d="m83.82,101.42l17.42-56.8c-.69-.27-1.39-.54-2.1-.79l-16.11,57.29c.27.1.54.19.79.3"/>
                <path class="cls-34" d="m83.03,101.12l16.11-57.29c-.69-.24-1.39-.48-2.11-.7l-14.8,57.73c.27.08.53.17.8.26"/>
                <path class="cls-52" d="m82.23,100.85l14.8-57.73c-.69-.22-1.4-.42-2.11-.62l-13.49,58.11c.27.07.54.15.8.23"/>
                <path class="cls-42" d="m81.43,100.62l13.49-58.11c-.69-.19-1.39-.37-2.1-.54l-12.18,58.45c.27.06.53.13.79.21"/>
                <path class="cls-55" d="m80.64,100.42l12.18-58.45c-.68-.16-1.36-.32-2.06-.47l-10.9,58.74c.26.06.52.11.78.18"/>
                <path class="cls-41" d="m79.86,100.24l10.9-58.74c-.63-.13-1.27-.26-1.91-.38l-9.71,58.98c.24.05.48.09.72.14"/>
                <path class="cls-32" d="m79.14,100.1l9.71-58.98c-.61-.11-1.22-.22-1.83-.32l-8.57,59.17c.23.04.46.08.69.12"/>
                <path class="cls-30" d="m78.45,99.98l8.57-59.17c-.54-.09-1.09-.17-1.64-.25l-7.55,59.33c.21.03.41.06.62.09"/>
                <path class="cls-29" d="m77.83,99.88l7.55-59.33c-.51-.07-1.02-.14-1.53-.2l-6.6,59.45c.19.02.39.05.58.08"/>
                <path class="cls-66" d="m77.25,99.81l6.6-59.45c-.45-.05-.9-.11-1.36-.15l-5.75,59.55c.17.02.34.04.51.06"/>
                <path class="cls-67" d="m76.74,99.75l5.75-59.55c-.45-.05-.89-.09-1.34-.13l-4.92,59.63c.17.01.34.03.51.05"/>
                <path class="cls-65" d="m76.23,99.7l4.92-59.63c-.37-.03-.74-.06-1.12-.09l-4.22,59.69c.14.01.28.02.42.03"/>
                <path class="cls-47" d="m75.81,99.66l4.22-59.69c-.37-.03-.75-.05-1.12-.08l-3.53,59.73c.14,0,.28.02.42.03"/>
                <path class="cls-45" d="m75.38,99.64l3.53-59.73c-.36-.02-.73-.04-1.09-.06l-2.85,59.77c.14,0,.27.01.41.02"/>
                <path class="cls-54" d="m74.97,99.61l2.85-59.77c-.33-.02-.66-.03-.99-.04l-2.23,59.8c.13,0,.25.01.38.02"/>
                <path class="cls-68" d="m74.6,99.6l2.23-59.8c-.33-.01-.66-.02-1-.03l-1.61,59.82c.13,0,.25,0,.38.01"/>
                <path class="cls-35" d="m74.22,99.58l1.61-59.82c-.33,0-.66-.02-1-.02l-.99,59.83c.13,0,.25,0,.38,0"/>
                <path class="cls-33" d="m73.84,99.58l.99-59.83c-.33,0-.67,0-1,0l-.37,59.84c.13,0,.25,0,.38,0"/>
                <path class="cls-50" d="m73.47,99.57l.37-59.84c-.33,0-.67,0-1,0l.25,59.83c.13,0,.25,0,.38,0"/>
                <path class="cls-64" d="m73.09,99.58l-.25-59.83c-.33,0-.67,0-1,.02l.87,59.82c.13,0,.25,0,.38,0"/>
                <path class="cls-62" d="m72.71,99.58l-.87-59.82c-.4,0-.79.02-1.19.03l1.62,59.8c.15,0,.3,0,.45-.01"/>
                <path class="cls-51" d="m72.26,99.59l-1.62-59.8c-.41.01-.82.03-1.23.05l2.38,59.77c.15,0,.31-.01.46-.02"/>
                <path class="cls-46" d="m71.8,99.61l-2.38-59.77c-.49.02-.98.05-1.47.09l3.29,59.71c.18-.01.37-.02.55-.03"/>
                <path class="cls-63" d="m71.24,99.65l-3.29-59.71c-.79.05-1.58.12-2.37.2l4.77,59.59c.3-.03.6-.05.9-.08"/>
                <path class="cls-53" d="m70.35,99.72l-4.77-59.59c-1.06.11-2.12.23-3.18.38l6.74,59.35c.4-.06.8-.1,1.2-.14"/>
                <path class="cls-63" d="m69.15,99.87l-6.74-59.35c-.82.12-1.63.25-2.44.39l8.26,59.11c.31-.05.61-.1.92-.15"/>
                <path class="cls-46" d="m68.23,100.01l-8.26-59.11c-.34.06-.68.12-1.01.19-.26.05-.51.1-.77.15l9.37,58.9c.1-.02.19-.04.29-.06.13-.02.26-.05.38-.07"/>
                <path class="cls-51" d="m67.55,100.14l-9.37-58.9c-.48.1-.96.2-1.43.31l10.26,58.7c.18-.04.36-.08.54-.12"/>
                <path class="cls-62" d="m67.01,100.26l-10.26-58.7c-.47.11-.93.22-1.38.33l11.12,58.5c.17-.04.35-.08.52-.13"/>
                <path class="cls-64" d="m66.49,100.39l-11.12-58.5c-.45.11-.89.23-1.33.35l11.95,58.28c.16-.05.33-.09.5-.13"/>
                <path class="cls-50" d="m65.99,100.52l-11.95-58.28c-.46.13-.92.26-1.36.4l12.8,58.03c.17-.05.34-.1.51-.15"/>
                <path class="cls-33" d="m65.47,100.67l-12.8-58.03c-.51.16-1.01.32-1.51.48l13.73,57.73c.19-.06.38-.12.57-.18"/>
                <path class="cls-35" d="m64.91,100.85l-13.73-57.73c-.57.19-1.14.4-1.68.6l14.78,57.36c.21-.08.42-.15.64-.23"/>
                <path class="cls-68" d="m64.27,101.08l-14.78-57.36c-.66.25-1.29.51-1.91.78l15.97,56.87c.23-.1.47-.2.72-.29"/>
                <path class="cls-54" d="m63.55,101.37l-15.97-56.87c-.78.34-1.53.69-2.24,1.06l17.36,56.21c.27-.14.55-.27.85-.4"/>
                <path class="cls-45" d="m62.7,101.77l-17.36-56.21c-.79.41-1.55.84-2.26,1.28l18.76,55.42c.27-.17.55-.33.85-.48"/>
                <path class="cls-47" d="m61.85,102.25l-18.76-55.42c-.69.43-1.33.87-1.94,1.32l19.97,54.6c.23-.17.47-.34.73-.5"/>
                <path class="cls-65" d="m61.12,102.75l-19.97-54.6c-.56.42-1.08.85-1.56,1.28l20.94,53.8c.18-.17.38-.33.59-.48"/>
                <path class="cls-67" d="m60.53,103.24l-20.94-53.8c-.45.4-.86.82-1.25,1.24l21.72,53.03c.15-.16.3-.31.47-.47"/>
                <path class="cls-66" d="m60.06,103.71l-21.72-53.03c-.36.39-.69.79-1,1.2l22.34,52.28c.12-.15.24-.3.38-.45"/>
                <path class="cls-29" d="m59.68,104.16l-22.34-52.28c-.29.39-.56.78-.79,1.17l22.83,51.55c.09-.15.19-.3.3-.44"/>
                <path class="cls-30" d="m59.38,104.6l-22.83-51.55c-.23.38-.43.76-.61,1.15l23.22,50.84c.07-.15.15-.29.23-.43"/>
                <path class="cls-32" d="m59.15,105.04l-23.22-50.84c-.18.38-.33.76-.46,1.14l23.5,50.13c.05-.15.11-.29.17-.43"/>
                <path class="cls-41" d="m58.97,105.47l-23.5-50.13c-.13.38-.23.76-.31,1.14l23.69,49.41c.03-.15.07-.29.12-.43"/>
                <path class="cls-55" d="m58.86,105.9l-23.69-49.41c-.08.38-.14.76-.17,1.15l23.8,48.7c.01-.15.03-.29.06-.43"/>
                <path class="cls-42" d="m58.79,106.33l-23.8-48.7c-.03.38-.04.77-.03,1.16l23.82,47.98c0-.15,0-.29.01-.44"/>
                <path class="cls-52" d="m58.78,106.77l-23.82-47.98c.01.39.05.78.11,1.18l23.75,47.25c-.02-.15-.04-.3-.04-.44"/>
                <path class="cls-34" d="m58.82,107.22l-23.75-47.25c.06.4.15.8.26,1.2l23.59,46.5c-.04-.15-.08-.3-.1-.45"/>
                <path class="cls-37" d="m58.92,107.67l-23.59-46.5c.12.41.26.82.43,1.23l23.32,45.73c-.06-.16-.12-.31-.16-.47"/>
                <path class="cls-36" d="m59.08,108.14l-23.32-45.73c.12.3.26.6.42.91l23.06,45.17c-.06-.11-.11-.23-.16-.34"/>
              </g>
            </g>
          </g>
          <g class="cls-83">
            <g class="cls-71">
              <g class="cls-83">
                <path class="cls-57" d="m111.63,54.06l-23.87,49.29c-.18-.2-.38-.39-.6-.58l22.88-50.25c.57.5,1.1,1.01,1.59,1.53"/>
                <path class="cls-59" d="m110.05,52.53l-22.88,50.25c-.25-.22-.51-.42-.8-.62l21.56-51.28c.75.53,1.46,1.08,2.11,1.66"/>
                <path class="cls-48" d="m107.93,50.87l-21.56,51.28c-.24-.17-.5-.34-.77-.5l20.29-52.11c.72.43,1.4.87,2.05,1.33"/>
                <path class="cls-39" d="m105.88,49.54l-20.29,52.11c-.24-.14-.5-.28-.76-.42l19.03-52.8c.7.36,1.37.73,2.01,1.11"/>
                <path class="cls-28" d="m103.87,48.42l-19.03,52.8c-.24-.13-.49-.25-.75-.36l17.79-53.4c.68.31,1.35.63,2,.96"/>
                <path class="cls-36" d="m101.88,47.46l-17.79,53.4c-.24-.11-.49-.22-.75-.32l16.54-53.93c.68.27,1.35.55,1.99.85"/>
                <path class="cls-37" d="m99.88,46.62l-16.54,53.93c-.24-.1-.5-.19-.75-.28l15.3-54.4c.68.24,1.34.49,1.99.75"/>
                <path class="cls-34" d="m97.89,45.87l-15.3,54.4c-.25-.09-.5-.17-.75-.25l14.06-54.81c.68.21,1.34.43,1.99.66"/>
                <path class="cls-52" d="m95.9,45.21l-14.06,54.81c-.25-.08-.5-.15-.75-.22l12.81-55.17c.68.19,1.34.38,2,.59"/>
                <path class="cls-42" d="m93.9,44.62l-12.81,55.17c-.25-.07-.5-.13-.75-.19l11.57-55.5c.67.16,1.33.33,1.99.51"/>
                <path class="cls-55" d="m91.91,44.1l-11.57,55.5c-.24-.06-.49-.11-.73-.17l10.35-55.77c.66.14,1.31.29,1.95.44"/>
                <path class="cls-41" d="m89.96,43.66l-10.35,55.77c-.23-.05-.45-.09-.68-.14l9.22-56c.61.11,1.21.23,1.81.36"/>
                <path class="cls-32" d="m88.14,43.3l-9.22,56c-.22-.04-.43-.08-.65-.11l8.14-56.18c.58.09,1.16.19,1.74.3"/>
                <path class="cls-30" d="m86.41,43l-8.14,56.18c-.19-.03-.39-.06-.58-.09l7.17-56.33c.52.07,1.04.15,1.55.23"/>
                <path class="cls-29" d="m84.85,42.77l-7.17,56.33c-.18-.03-.36-.05-.55-.07l6.27-56.45c.49.06.97.12,1.45.19"/>
                <path class="cls-66" d="m83.4,42.58l-6.27,56.45c-.16-.02-.32-.04-.48-.05l5.47-56.54c.43.05.86.09,1.29.15"/>
                <path class="cls-67" d="m82.12,42.43l-5.47,56.54c-.16-.02-.32-.03-.48-.05l4.67-56.62c.43.04.85.08,1.27.12"/>
                <path class="cls-65" d="m80.84,42.31l-4.67,56.62c-.13-.01-.27-.02-.4-.03l4.01-56.67c.35.03.71.06,1.06.09"/>
                <path class="cls-47" d="m79.79,42.22l-4.01,56.67c-.13-.01-.27-.02-.4-.03l3.35-56.72c.36.02.71.05,1.06.07"/>
                <path class="cls-45" d="m78.72,42.15l-3.35,56.72c-.13,0-.26-.02-.39-.02l2.7-56.75c.34.02.69.04,1.03.06"/>
                <path class="cls-54" d="m77.69,42.09l-2.7,56.75c-.12,0-.24-.01-.35-.02l2.12-56.78c.31.01.63.03.94.04"/>
                <path class="cls-68" d="m76.75,42.05l-2.12,56.78c-.12,0-.24,0-.36-.01l1.53-56.8c.31,0,.63.02.94.03"/>
                <path class="cls-35" d="m75.8,42.02l-1.53,56.8c-.12,0-.24,0-.36,0l.94-56.81c.31,0,.63.01.94.02"/>
                <path class="cls-33" d="m74.86,42l-.94,56.81c-.12,0-.24,0-.35,0l.36-56.81c.31,0,.63,0,.94,0"/>
                <path class="cls-50" d="m73.92,41.99l-.36,56.81c-.12,0-.24,0-.35,0l-.23-56.81c.31,0,.63,0,.94,0"/>
                <path class="cls-64" d="m72.98,42l.23,56.81c-.12,0-.24,0-.35,0l-.82-56.8c.31,0,.63-.01.94-.01"/>
                <path class="cls-62" d="m72.04,42.01l.82,56.8c-.14,0-.28,0-.43.01l-1.52-56.78c.38-.01.75-.02,1.13-.03"/>
                <path class="cls-51" d="m70.91,42.04l1.52,56.78c-.15,0-.3.01-.44.02l-2.25-56.75c.39-.02.78-.04,1.18-.05"/>
                <path class="cls-46" d="m69.74,42.09l2.25,56.75c-.18,0-.35.02-.53.03l-3.13-56.7c.47-.03.93-.06,1.4-.08"/>
                <path class="cls-63" d="m68.34,42.18l3.13,56.7c-.28.02-.56.04-.85.07l-4.53-56.58c.75-.07,1.5-.14,2.25-.19"/>
                <path class="cls-53" d="m66.09,42.37l4.53,56.58c-.38.04-.76.08-1.14.14l-6.41-56.35c1-.14,2.01-.26,3.02-.37"/>
                <path class="cls-63" d="m63.07,42.73l6.41,56.35c-.29.04-.58.09-.87.14l-7.85-56.12c.76-.14,1.53-.26,2.3-.37"/>
                <path class="cls-46" d="m60.76,43.1l7.85,56.12c-.12.02-.24.04-.36.07-.09.02-.18.04-.27.05l-8.9-55.92c.24-.05.48-.1.73-.14.32-.06.64-.12.96-.18"/>
                <path class="cls-51" d="m59.08,43.42l8.9,55.92c-.17.04-.34.07-.51.11l-9.75-55.74c.45-.1.9-.2,1.36-.29"/>
                <path class="cls-62" d="m57.72,43.72l9.75,55.74c-.17.04-.33.08-.49.12l-10.56-55.54c.43-.11.87-.21,1.31-.31"/>
                <path class="cls-64" d="m56.41,44.03l10.56,55.54c-.16.04-.32.08-.47.13l-11.35-55.34c.41-.11.83-.23,1.26-.33"/>
                <path class="cls-50" d="m55.15,44.36l11.35,55.34c-.16.05-.33.09-.49.14l-12.15-55.1c.42-.13.85-.25,1.29-.37"/>
                <path class="cls-33" d="m53.86,44.74l12.15,55.1c-.18.06-.36.11-.54.17l-13.04-54.82c.47-.16.94-.31,1.43-.46"/>
                <path class="cls-35" d="m52.44,45.2l13.04,54.82c-.21.07-.41.14-.6.22l-14.03-54.46c.52-.2,1.05-.39,1.59-.57"/>
                <path class="cls-68" d="m50.84,45.77l14.03,54.46c-.23.09-.46.18-.68.28l-15.16-54c.58-.25,1.19-.5,1.81-.74"/>
                <path class="cls-54" d="m49.03,46.5l15.16,54c-.28.12-.54.25-.8.38l-16.49-53.37c.67-.35,1.38-.68,2.12-1"/>
                <path class="cls-45" d="m46.91,47.51l16.49,53.37c-.28.15-.55.3-.8.46l-17.82-52.62c.67-.42,1.38-.82,2.14-1.21"/>
                <path class="cls-47" d="m44.77,48.72l17.82,52.62c-.25.15-.48.31-.69.47l-18.96-51.84c.57-.43,1.19-.85,1.84-1.25"/>
                <path class="cls-65" d="m42.94,49.97l18.96,51.84c-.2.15-.38.3-.56.46l-19.89-51.08c.46-.41.95-.82,1.48-1.22"/>
                <path class="cls-67" d="m41.46,51.19l19.89,51.08c-.16.14-.31.29-.45.44l-20.62-50.35c.36-.4.76-.79,1.18-1.17"/>
                <path class="cls-66" d="m40.28,52.36l20.62,50.35c-.13.14-.25.28-.36.43l-21.21-49.64c.29-.38.61-.76.95-1.14"/>
                <path class="cls-29" d="m39.33,53.5l21.21,49.64c-.1.14-.2.28-.28.42l-21.68-48.95c.23-.38.48-.75.75-1.11"/>
                <path class="cls-30" d="m38.58,54.61l21.68,48.95c-.08.14-.15.27-.22.41l-22.04-48.27c.17-.37.36-.73.58-1.09"/>
                <path class="cls-32" d="m38,55.7l22.04,48.27c-.06.13-.12.27-.16.41l-22.31-47.59c.12-.36.27-.73.43-1.08"/>
                <path class="cls-41" d="m37.56,56.78l22.31,47.59c-.05.14-.08.27-.11.41l-22.5-46.92c.08-.36.18-.73.3-1.08"/>
                <path class="cls-55" d="m37.27,57.87l22.5,46.92c-.03.14-.05.27-.06.41l-22.6-46.24c.03-.36.09-.73.16-1.09"/>
                <path class="cls-42" d="m37.11,58.95l22.6,46.24c-.01.14-.02.27-.01.41l-22.62-45.55c-.01-.37,0-.73.03-1.1"/>
                <path class="cls-52" d="m37.08,60.05l22.62,45.55c0,.14.02.28.04.42l-22.55-44.86c-.06-.37-.09-.74-.11-1.12"/>
                <path class="cls-34" d="m37.18,61.16l22.55,44.86c.02.14.05.29.09.43l-22.4-44.15c-.11-.38-.19-.76-.25-1.14"/>
                <path class="cls-37" d="m37.43,62.3l22.4,44.15c.04.15.09.29.15.44l-22.14-43.42c-.16-.39-.3-.78-.41-1.17"/>
                <path class="cls-36" d="m37.84,63.47l22.14,43.42c.04.11.09.22.15.32l-21.9-42.88c-.15-.29-.28-.57-.4-.86"/>
              </g>
            </g>
          </g>
          <g class="cls-83">
            <g class="cls-77">
              <g class="cls-83">
                <path class="cls-56" d="m89.32,109.65l26.48-43.24c2.5-4.08,2.22-8.65-1.37-13.04l-25.63,51.35c1.36,1.66,1.46,3.38.52,4.93"/>
                <path class="cls-57" d="m88.8,104.72l25.63-51.35c-.25-.3-.51-.6-.78-.9l-25.14,51.91c.1.11.2.23.3.34"/>
              </g>
            </g>
          </g>
          <g class="cls-83">
            <g class="cls-76">
              <g class="cls-83">
                <path class="cls-56" d="m113.67,67.26l-25.14,41.06c.89-1.46.79-3.09-.49-4.65l24.33-48.76c3.4,4.16,3.66,8.49,1.3,12.35"/>
                <path class="cls-57" d="m112.38,54.91l-24.33,48.76c-.09-.11-.18-.21-.28-.32l23.87-49.29c.26.28.51.57.74.85"/>
              </g>
            </g>
          </g>
          <g class="cls-83">
            <g class="cls-74">
              <g class="cls-83">
                <path class="cls-41" d="m76.14,61.29l35.49-7.23c-3-3.24-7.58-5.93-13.07-7.95l-22.42,15.18s0,0,0,0"/>
                <path class="cls-32" d="m76.14,61.29l22.42-15.18c-11-4.04-25.68-5.35-38.76-2.83-16.25,3.13-24.92,11.2-22.26,19.41l38.57-1.4s0,0,0,0c0,0,0,0,.01,0"/>
                <path class="cls-41" d="m76.12,61.29l-38.57,1.4c.55,1.69,1.58,3.38,3.12,5.04,9.03,9.73,32.23,14.56,51.83,10.78,19.6-3.78,28.17-14.72,19.14-24.45l-35.49,7.23s0,0,0,0-.01,0-.02,0c0,0,0,0,0,0"/>
              </g>
            </g>
          </g>
          <g class="cls-83">
            <g class="cls-75">
              <g class="cls-83">
                <path class="cls-56" d="m38.23,64.33l21.9,42.88c.22.43.52.86.92,1.28,2.32,2.5,7.13,4.14,12.29,4.48l-.02-33.35c-13.72-.9-26.49-5.25-32.65-11.9-1.04-1.12-1.85-2.26-2.43-3.4"/>
                <path class="cls-57" d="m73.32,79.63l.02,33.35c1.35.09,2.73.09,4.09-.01l6.75-33.36c-3.62.26-7.27.26-10.86.03"/>
                <path class="cls-59" d="m84.18,79.6l-6.75,33.36c1.06-.08,2.11-.21,3.13-.41,2.22-.43,4.06-1.1,5.46-1.93l20.98-37.24c-3.72,2.2-8.62,3.99-14.51,5.12-2.72.52-5.51.88-8.31,1.08"/>
                <path class="cls-57" d="m107,73.39l-20.98,37.24c.85-.5,1.54-1.06,2.04-1.67l24.37-39.99c-1.35,1.6-3.17,3.09-5.43,4.42"/>
                <path class="cls-56" d="m112.43,68.97l-24.37,39.99c.18-.21.33-.42.47-.64l25.14-41.06c-.35.58-.77,1.15-1.24,1.7"/>
              </g>
            </g>
          </g>
          <g class="cls-83">
            <g class="cls-78">
              <g class="cls-83">
                <path class="cls-41" d="m113.64,52.47l-37.47,7.63,23.65-16.03c5.8,2.13,10.64,4.98,13.81,8.4"/>
                <path class="cls-32" d="m99.83,44.07l-23.65,16.03-40.73,1.46c-2.8-8.66,6.35-17.17,23.49-20.47,13.79-2.66,29.27-1.28,40.88,2.98"/>
                <path class="cls-41" d="m35.45,61.57l40.73-1.46,37.47-7.63c9.53,10.27.48,21.82-20.2,25.81s-45.17-1.11-54.7-11.38c-1.63-1.76-2.71-3.55-3.29-5.34"/>
              </g>
            </g>
          </g>
          <path class="cls-2" d="m115.16,67.35c-.07.1-.16.2-.24.3-.16.2-.31.41-.48.6-.32.38-.67.75-1.04,1.11-.09.09-.19.18-.29.27-.3.28-.61.56-.93.83-.13.11-.26.22-.4.33-.35.28-.72.55-1.1.82-.1.07-.19.14-.3.21-.48.33-.99.66-1.52.97-.18.11-.37.21-.55.31-.29.17-.59.33-.89.5-.21.11-.43.22-.64.33-.3.15-.61.3-.92.45-.23.11-.46.21-.7.32-.32.14-.64.28-.97.42-.25.1-.5.2-.75.3-.34.13-.68.26-1.03.39-.26.1-.52.19-.79.28-.36.13-.73.25-1.1.37-.27.09-.54.17-.81.26-.39.12-.8.23-1.2.35-.27.07-.53.15-.8.22-.45.12-.92.23-1.39.35-.24.06-.47.12-.71.17-.71.16-1.44.32-2.18.46-1.4.27-2.81.49-4.24.68-.11.01-.22.03-.33.04-1.33.17-2.67.3-4.01.4-.19.01-.39.03-.58.04-.72.05-1.44.09-2.17.12-.14,0-.29.01-.43.02-.85.03-1.69.04-2.54.05-.21,0-.42,0-.64,0-.69,0-1.37-.01-2.06-.03-.2,0-.41,0-.61-.02-.84-.03-1.68-.07-2.52-.12-.17-.01-.33-.03-.5-.04-.65-.05-1.3-.1-1.95-.16-.24-.02-.48-.05-.72-.07-.67-.07-1.33-.14-1.99-.23-.14-.02-.29-.03-.43-.05-.79-.1-1.57-.22-2.34-.34-.2-.03-.4-.07-.6-.1-.6-.1-1.19-.21-1.78-.32-.22-.04-.45-.09-.67-.13-.73-.15-1.46-.3-2.17-.47-.03,0-.06-.01-.09-.02-.74-.17-1.47-.36-2.2-.56-.21-.06-.41-.11-.62-.17-.55-.15-1.09-.31-1.62-.47-.19-.06-.38-.12-.57-.18-.69-.22-1.38-.45-2.05-.69-.09-.03-.18-.07-.28-.1-.58-.21-1.15-.43-1.71-.65-.19-.08-.38-.16-.57-.23-.5-.21-.99-.42-1.48-.64-.14-.06-.29-.13-.43-.19-.6-.28-1.19-.57-1.77-.87-.13-.07-.25-.14-.38-.2-.45-.24-.89-.49-1.32-.74-.16-.1-.33-.19-.49-.29-.45-.27-.89-.55-1.32-.84-.08-.05-.16-.1-.24-.16-.5-.34-.97-.69-1.43-1.04-.12-.09-.24-.19-.36-.29-.34-.28-.68-.56-1-.84-.12-.11-.24-.21-.36-.32-.41-.38-.8-.76-1.17-1.15-1.1-1.18-1.95-2.39-2.57-3.59,7.69,15.06,15.37,30.11,23.06,45.17.23.46.55.91.97,1.36.28.3.59.58.93.85.1.08.2.16.31.23.27.2.56.4.86.59.11.07.21.13.32.2.41.24.84.47,1.3.68.07.03.15.06.23.1.4.18.81.34,1.23.5.15.06.3.11.45.16.41.14.83.27,1.26.39.12.03.24.07.36.1.54.15,1.1.28,1.67.39.13.03.27.05.41.07.45.09.92.16,1.38.23.18.02.35.05.53.07.52.06,1.05.12,1.58.15.07,0,.13.02.2.02.02,0,.03,0,.05,0,.63.04,1.27.06,1.91.06.17,0,.34,0,.5,0,.52,0,1.04-.03,1.56-.06.1,0,.2,0,.3-.01.05,0,.1-.01.15-.02.36-.03.72-.07,1.07-.11.17-.02.35-.03.52-.06.53-.07,1.05-.15,1.57-.25.56-.11,1.1-.23,1.62-.37.17-.05.33-.1.5-.15.33-.1.67-.19.98-.3.19-.06.36-.14.53-.2.27-.1.54-.21.79-.32.18-.08.34-.16.5-.24.23-.11.46-.23.67-.35.06-.04.14-.07.2-.1.07-.04.12-.09.19-.13.29-.18.57-.37.82-.57.09-.07.19-.14.28-.22.32-.27.61-.54.85-.82,0,0,.02-.01.02-.02.19-.22.35-.45.49-.68,8.83-14.41,17.65-28.83,26.48-43.24-.19.32-.41.63-.63.94Z"/>
        </g>
        <g class="cls-83">
          <path class="cls-16" d="m115.25,67.12c.39-.53.75-1.07,1.07-1.62.05-.08.09-.17.14-.25.31-.54.58-1.08.82-1.63.02-.05.04-.09.06-.14.24-.57.44-1.14.61-1.71.03-.11.07-.22.1-.33.15-.56.27-1.13.36-1.69.02-.1.03-.2.04-.31.08-.59.13-1.18.13-1.78l.09-33.21c0,.59-.05,1.18-.13,1.78-.01.1-.02.2-.04.31-.08.57-.21,1.13-.36,1.69-.03.11-.06.22-.1.33-.17.57-.37,1.15-.61,1.71-.02.05-.04.09-.06.14-.24.55-.52,1.09-.82,1.63-.05.08-.09.17-.14.25-.32.55-.68,1.09-1.07,1.62-.08.11-.16.21-.24.32-.41.53-.84,1.06-1.32,1.58-.06.07-.13.14-.2.21-.47.5-.97,1-1.51,1.48-.06.06-.12.11-.18.17-.56.5-1.17.99-1.81,1.47-.14.11-.29.22-.44.33-.34.25-.69.49-1.04.73-.16.11-.32.22-.49.33-.53.35-1.07.69-1.64,1.02-.92.54-1.88,1.03-2.87,1.51-.18.09-.36.18-.54.26-.46.22-.95.41-1.42.61-.81.35-1.62.68-2.46.99-.49.18-1,.35-1.51.52-.81.27-1.63.53-2.46.76-.66.19-1.32.37-1.99.54-.34.08-.69.17-1.03.25-1.05.24-2.11.46-3.18.65-.1.02-.19.04-.29.06-1.17.2-2.35.36-3.54.5-.34.04-.69.07-1.03.11-.86.09-1.73.16-2.6.22-.42.03-.84.05-1.26.08-.91.04-1.81.07-2.72.08-.33,0-.65.02-.98.01-1.23,0-2.45-.04-3.67-.1-.25-.01-.5-.04-.74-.05-.98-.06-1.95-.14-2.92-.24-.41-.04-.81-.1-1.22-.15-.83-.1-1.65-.22-2.47-.35-.41-.07-.82-.13-1.23-.2-.88-.16-1.76-.34-2.63-.53-.3-.07-.61-.13-.91-.2-1.15-.27-2.29-.58-3.41-.92-.19-.06-.37-.12-.56-.18-.91-.28-1.8-.59-2.68-.92-.31-.12-.62-.23-.93-.36-.85-.33-1.68-.68-2.49-1.06-.2-.09-.4-.17-.59-.27-1.05-.5-2.08-1.03-3.07-1.6-.53-.31-1.05-.62-1.55-.94-.16-.11-.32-.21-.48-.32-.33-.22-.65-.43-.96-.65-.18-.13-.36-.27-.54-.4-.27-.2-.55-.4-.81-.61-.18-.14-.35-.29-.53-.44-.24-.2-.48-.4-.71-.6-.14-.12-.27-.25-.41-.38-.29-.27-.57-.54-.84-.81-.14-.14-.28-.29-.41-.43-.25-.27-.49-.53-.73-.8-.12-.14-.24-.28-.36-.42-.26-.31-.5-.63-.73-.94-.07-.1-.15-.19-.22-.29-.29-.41-.57-.83-.82-1.25-.04-.06-.06-.12-.1-.18-.32-.56-.61-1.12-.86-1.68-.03-.07-.07-.14-.1-.22-.25-.58-.45-1.16-.63-1.74-.03-.11-.07-.22-.1-.33-.16-.58-.28-1.16-.37-1.74-.01-.1-.02-.2-.04-.29-.08-.61-.13-1.22-.13-1.84l-.09,33.21c0,.61.05,1.22.13,1.84.01.1.02.2.04.3.09.58.21,1.16.37,1.74.03.11.06.22.1.33.17.58.38,1.17.63,1.74.03.07.07.14.1.22.25.57.54,1.13.86,1.68.02.04.04.08.06.12.01.02.03.04.04.06.25.42.52.84.82,1.25.07.1.15.19.22.29.23.32.47.63.73.94.12.14.24.28.36.42.23.27.47.54.72.8.14.14.27.29.42.43.27.27.55.54.84.81.1.09.18.18.28.27.04.04.09.07.13.11.23.2.47.4.7.6.18.15.35.3.53.44.26.2.53.4.8.6.18.14.36.27.54.41.31.22.63.43.95.64.17.11.32.22.49.33.5.32,1.01.63,1.54.94.18.1.36.2.53.3.82.46,1.67.89,2.53,1.3.19.09.4.18.59.27.81.37,1.64.72,2.49,1.06.31.12.62.24.93.36.88.33,1.78.63,2.69.92.19.06.37.12.55.18.06.02.11.04.17.06,1.06.32,2.15.6,3.24.86.3.07.61.13.91.2.87.19,1.74.37,2.63.53.41.07.82.14,1.23.2.82.13,1.64.25,2.47.35.4.05.81.1,1.21.14.97.1,1.95.18,2.93.24.25.02.49.04.74.05,1.22.07,2.45.1,3.67.1.33,0,.65-.01.98-.01.91,0,1.82-.03,2.72-.08.42-.02.84-.05,1.26-.08.39-.03.78-.04,1.16-.07.48-.04.96-.1,1.43-.15.35-.04.69-.07,1.03-.11,1.19-.14,2.37-.3,3.54-.5.1-.02.19-.04.29-.06,1.07-.19,2.13-.41,3.18-.65.35-.08.69-.16,1.03-.25.4-.1.8-.18,1.19-.29.27-.07.53-.17.81-.25.83-.24,1.65-.49,2.46-.76.51-.17,1.01-.33,1.51-.52.84-.31,1.65-.64,2.46-.99.33-.14.67-.25.99-.4.15-.07.29-.14.43-.21.18-.09.36-.17.54-.26.98-.48,1.95-.97,2.87-1.51.57-.33,1.11-.67,1.64-1.02.17-.11.33-.22.49-.33.36-.24.71-.48,1.04-.73.08-.06.17-.11.24-.17.07-.05.12-.11.19-.16.63-.48,1.24-.97,1.81-1.47.06-.05.12-.11.18-.17.54-.49,1.04-.98,1.51-1.48.06-.07.13-.14.2-.21.48-.52.91-1.05,1.32-1.58.08-.11.16-.21.24-.32Z"/>
          <path class="cls-22" d="m106.27,7.12c16.46,9.5,16.56,24.9.21,34.41s-42.95,9.51-59.41,0c-16.46-9.5-16.55-24.91-.2-34.41,16.35-9.5,42.94-9.5,59.4,0Z"/>
        </g>
        <g class="cls-83">
          <polygon class="cls-25" points="107.81 5.74 107.81 8.18 78.98 24.94 78.99 22.5 107.81 5.74"/>
          <polygon class="cls-18" points="75.06 22.5 75.06 24.94 46.03 8.19 46.04 5.75 75.06 22.5"/>
          <polygon class="cls-19" points="106.04 40.38 106.04 42.82 77.02 26.08 77.03 23.64 106.04 40.38"/>
          <polygon class="cls-49" points="108 39.25 107.99 41.69 106.04 42.82 106.04 40.38 108 39.25"/>
          <polygon class="cls-28" points="48.2 40.4 48.2 42.84 46.23 41.7 46.23 39.26 48.2 40.4"/>
          <polygon class="cls-20" points="77.03 23.64 77.02 26.08 48.2 42.84 48.2 40.4 77.03 23.64"/>
          <polygon class="cls-26" points="107.81 5.74 78.99 22.5 108 39.25 106.04 40.38 77.03 23.64 48.2 40.4 46.23 39.26 75.06 22.5 46.04 5.75 48 4.62 77.02 21.37 105.85 4.61 107.81 5.74"/>
        </g>
        <g class="cls-83">
          <path class="cls-5" d="m84.35,20.91s.08.08.13.12c.14.13.26.26.38.39.05.06.1.12.15.18.09.12.18.24.25.36.04.06.07.11.1.17.14.24.25.49.32.74.01.04.02.08.03.13.07.26.11.52.11.79l.04-16.61c0-.26-.04-.53-.11-.79-.01-.04-.02-.08-.03-.13-.07-.25-.18-.49-.32-.74-.01-.02-.02-.05-.03-.07-.02-.04-.05-.07-.07-.11-.08-.12-.16-.24-.25-.36-.05-.06-.09-.12-.15-.18-.12-.13-.24-.26-.38-.39-.04-.03-.06-.07-.1-.1,0,0-.02-.01-.03-.02-.11-.1-.24-.19-.36-.29-.07-.05-.12-.1-.19-.15-.2-.14-.41-.28-.64-.41-.04-.02-.08-.04-.12-.07-.38-.21-.78-.39-1.2-.56-.12-.05-.24-.08-.36-.13-.19-.07-.38-.15-.58-.21-.15-.05-.31-.07-.47-.11-.17-.04-.34-.09-.51-.12-.37-.08-.74-.14-1.13-.19-.14-.02-.28-.05-.42-.06-.52-.05-1.05-.09-1.58-.09-.1,0-.2,0-.3.01-.34,0-.69.01-1.03.04-.09,0-.18.02-.27.03-.16.02-.31.04-.46.06-.38.05-.75.11-1.11.19-.15.03-.29.06-.44.1-.08.02-.16.03-.24.05-.15.04-.28.11-.43.15-.37.11-.73.23-1.07.38-.09.04-.19.06-.28.1-.29.13-.56.27-.83.43-.25.14-.47.29-.68.45-.02.01-.04.02-.06.04-.03.02-.05.05-.08.07-.26.2-.5.41-.71.63-.02.02-.04.04-.06.05-.21.23-.38.46-.52.7-.03.05-.06.09-.08.14-.13.23-.23.47-.31.71-.01.04-.02.09-.03.13-.06.25-.11.51-.11.76l-.04,16.61c0-.25.04-.51.11-.76.01-.04.02-.09.03-.13.07-.24.18-.48.31-.71.03-.05.05-.09.08-.14.15-.24.32-.47.52-.7.02-.02.04-.04.05-.05.21-.22.44-.43.71-.63.04-.03.08-.07.13-.1.21-.15.44-.3.68-.45.34-.2.72-.36,1.1-.52.34-.14.7-.27,1.07-.38.22-.07.44-.15.66-.2.14-.04.29-.06.44-.1.36-.08.73-.14,1.11-.19.15-.02.31-.04.46-.06.43-.04.86-.07,1.3-.07.1,0,.2-.01.3-.01.53,0,1.06.03,1.58.09.14.01.28.04.42.06.38.05.76.11,1.13.19.17.04.34.08.51.12.36.09.71.2,1.05.32.12.04.24.08.35.13.46.18.91.39,1.32.62.23.13.44.27.64.41.07.05.12.1.19.15.13.1.25.19.37.29Z"/>
          <path class="cls-13" d="m87.16,24.84c.02-.05.03-.1.04-.15.08-.3.13-.59.13-.89l.04-16.61c0,.3-.05.6-.13.89-.01.05-.02.1-.04.15-.08.28-.21.56-.36.84-.03.05-.06.11-.1.16-.17.28-.37.55-.61.82-.02.02-.04.04-.06.06-.24.25-.52.5-.82.73-.05.04-.1.08-.15.12-.25.18-.51.36-.79.52-.4.23-.84.42-1.29.61-.4.17-.82.31-1.25.44-.26.08-.51.17-.78.24-.17.04-.34.07-.51.11-.43.09-.86.17-1.3.22-.18.02-.36.05-.54.07-.5.05-1.01.08-1.51.08-.12,0-.23.01-.35.01-.62,0-1.23-.04-1.84-.1-.17-.02-.33-.05-.5-.07-.44-.06-.88-.13-1.31-.22-.2-.04-.4-.09-.6-.15-.42-.11-.83-.23-1.22-.37-.14-.05-.28-.09-.42-.15-.54-.21-1.06-.45-1.54-.73-.27-.15-.52-.32-.75-.48-.08-.05-.14-.11-.21-.17-.15-.11-.3-.23-.44-.35-.05-.05-.1-.1-.15-.14-.16-.15-.31-.3-.44-.46-.06-.07-.12-.14-.17-.21-.11-.14-.21-.28-.3-.42-.04-.07-.08-.13-.12-.2-.16-.28-.29-.57-.37-.86-.01-.05-.02-.1-.04-.15-.08-.31-.13-.61-.13-.92l-.04,16.61c0,.31.05.62.13.92.01.05.02.1.04.15.09.29.21.58.37.86.01.03.02.05.03.08.02.04.06.08.09.12.09.14.19.28.3.42.06.07.11.14.17.22.13.16.28.31.44.46.04.04.07.08.11.12.01,0,.02.02.03.03.13.12.28.23.43.34.07.06.14.11.22.17.23.17.48.33.75.48.04.03.09.05.13.08.44.25.92.46,1.41.65.14.05.28.1.42.15.23.08.45.17.68.24.18.05.36.09.54.13.2.05.4.1.6.15.43.09.87.17,1.31.22.17.02.33.05.49.07.61.06,1.22.1,1.84.1.12,0,.23-.01.35-.01.4,0,.8-.01,1.2-.04.11,0,.21-.03.32-.04.18-.02.36-.04.54-.07.44-.06.87-.13,1.3-.22.17-.04.34-.07.51-.11.09-.02.19-.04.28-.06.17-.05.33-.12.5-.18.43-.13.85-.27,1.25-.44.1-.04.22-.07.32-.12.33-.15.66-.32.96-.5.29-.17.55-.34.79-.52.02-.02.05-.03.07-.04.03-.02.05-.05.09-.08.31-.24.58-.48.82-.73.02-.02.05-.04.06-.06.24-.26.44-.54.61-.82.03-.05.07-.1.1-.16.15-.27.27-.55.36-.84Z"/>
          <path class="cls-9" d="m84.26,2.83c4.14,2.39,4.16,6.26.05,8.65-4.11,2.39-10.8,2.39-14.94,0s-4.16-6.26-.05-8.65c4.11-2.39,10.8-2.39,14.94,0Zm-13.82,8.03c3.55,2.05,9.27,2.05,12.79,0s3.51-5.37-.03-7.41c-3.55-2.05-9.29-2.05-12.81,0s-3.5,5.37.05,7.41"/>
        </g>
        <g>
          <g class="cls-83">
            <g class="cls-83">
              <g class="cls-80">
                <g class="cls-83">
                  <path class="cls-61" d="m87.44,35.97v5.54c-.01-.58-.18-1.16-.51-1.72v-5.54c.34.56.51,1.14.51,1.72"/>
                  <path class="cls-60" d="m86.95,34.25v5.54c-.25-.4-.57-.78-.97-1.14v-5.54c.42.36.73.74.97,1.14"/>
                  <path class="cls-38" d="m86,33.12v5.54c-.36-.31-.77-.61-1.24-.88-.04-.02-.08-.04-.12-.07v-5.54c.05.02.09.04.13.07.47.27.88.57,1.23.88"/>
                  <path class="cls-43" d="m84.66,32.17v5.54c-.67-.36-1.39-.66-2.16-.89v-5.54c.78.23,1.51.53,2.16.89"/>
                  <path class="cls-40" d="m82.51,31.28v5.54c-1.7-.5-3.6-.68-5.43-.53v-5.54c1.85-.15,3.74.03,5.43.53"/>
                  <path class="cls-43" d="m77.1,30.76v5.54c-.88.07-1.73.21-2.53.43v-5.54c.82-.22,1.67-.36,2.53-.43"/>
                  <path class="cls-38" d="m74.58,31.19v5.54c-.64.17-1.23.38-1.79.63v-5.54c.57-.25,1.17-.46,1.79-.63"/>
                  <path class="cls-60" d="m72.81,31.82v5.54c-.3.13-.58.27-.84.43s-.51.32-.74.49v-5.54c.24-.17.49-.33.75-.49s.54-.3.83-.43"/>
                  <path class="cls-61" d="m71.24,32.73v5.54c-1.27.94-1.91,2.07-1.91,3.2v-5.54c.02-1.13.65-2.26,1.91-3.2"/>
                </g>
              </g>
            </g>
            <path class="cls-12" d="m88.78,42.55c.02-.05.03-.1.04-.15.08-.3.13-.59.13-.89v-5.54c.01.3-.04.6-.11.89-.01.05-.02.1-.04.15-.08.28-.21.56-.36.83-.03.05-.06.11-.1.16-.17.28-.37.55-.61.82-.02.02-.04.04-.06.06-.24.25-.52.5-.83.74-.05.04-.1.08-.15.12-.25.18-.51.36-.79.52-.4.23-.84.42-1.29.61-.4.17-.82.31-1.25.44-.26.08-.51.17-.78.24-.17.04-.34.07-.51.11-.43.09-.86.17-1.3.22-.18.02-.36.05-.54.07-.5.05-1.01.08-1.52.08-.11,0-.23.01-.34.01-.62,0-1.23-.04-1.84-.1-.17-.02-.33-.05-.49-.07-.44-.06-.88-.13-1.31-.22-.2-.04-.4-.09-.6-.15-.42-.11-.83-.23-1.23-.37-.14-.05-.28-.09-.41-.15-.54-.21-1.06-.45-1.54-.73-.27-.15-.52-.32-.75-.48-.08-.06-.15-.12-.22-.17-.15-.11-.29-.22-.43-.34-.05-.05-.1-.1-.15-.14-.16-.15-.31-.3-.44-.46-.06-.07-.12-.14-.17-.21-.11-.14-.21-.28-.3-.42-.04-.07-.08-.13-.12-.2-.16-.28-.29-.57-.37-.86-.01-.05-.02-.1-.04-.15-.08-.31-.13-.61-.13-.92v5.54c-.02.31.04.62.11.92.01.05.02.1.04.15.09.29.21.58.37.86.01.03.02.05.03.08.02.04.06.08.09.12.09.14.19.28.3.42.06.07.11.14.17.21.13.16.28.31.44.46.04.04.07.08.11.12.01,0,.02.02.03.03.13.12.28.23.43.34.07.06.14.12.22.17.23.17.48.33.75.48.04.03.09.05.13.08.44.25.92.46,1.41.65.14.05.28.1.41.15.23.08.45.17.68.24.18.05.36.09.54.13.2.05.4.1.6.14.43.09.87.17,1.31.22.17.02.33.05.49.07.61.06,1.22.1,1.84.1.11,0,.23-.01.34-.01.4,0,.8-.01,1.2-.04.11,0,.21-.03.32-.04.18-.02.36-.04.54-.07.44-.06.87-.13,1.3-.22.17-.04.34-.07.51-.11.09-.02.19-.04.28-.06.17-.05.33-.12.5-.18.43-.13.85-.27,1.25-.44.1-.04.22-.07.32-.11.33-.15.66-.32.96-.5.29-.17.55-.34.79-.52.02-.01.05-.03.07-.04.03-.02.05-.05.09-.08.31-.24.59-.48.83-.74.02-.02.04-.04.06-.06.24-.26.44-.54.61-.82.03-.05.07-.1.1-.16.15-.27.27-.55.36-.84Z"/>
            <path class="cls-58" d="m85.84,31.62c4.14,2.39,4.16,6.26.05,8.65s-10.8,2.39-14.94,0c-4.14-2.39-4.16-6.26-.05-8.65s10.8-2.39,14.94,0Zm-13.83,8.04c3.55,2.05,9.28,2.04,12.8,0,3.52-2.05,3.5-5.36-.04-7.41s-9.27-2.05-12.79,0c-3.52,2.05-3.51,5.37.03,7.41"/>
          </g>
          <g>
            <path class="cls-11" d="m89.88,40.29c.08-.13.16-.25.23-.38.04-.08.08-.15.12-.23.06-.13.11-.25.16-.38.03-.08.06-.15.08-.23.04-.14.08-.28.1-.42.01-.07.03-.13.04-.2.03-.21.05-.41.05-.62v-1.11c0,.21-.02.41-.05.62-.01.07-.03.13-.04.2-.03.14-.06.28-.1.42-.02.08-.05.15-.08.23-.05.13-.1.26-.16.38-.04.08-.07.15-.12.23-.07.13-.15.26-.23.38-.05.07-.09.14-.14.21-.1.14-.22.28-.34.42-.04.05-.08.1-.12.15-.17.19-.36.37-.56.55-.04.04-.1.08-.14.11-.16.13-.32.27-.5.39-.28.21-.58.41-.91.6-.53.31-1.11.57-1.71.81-.1.04-.19.08-.3.12-.56.21-1.16.39-1.76.54-.19.05-.39.09-.58.13-.48.1-.98.19-1.48.25-.2.03-.4.06-.61.08-.57.06-1.15.09-1.74.1-.13,0-.25.01-.38.01-.7,0-1.4-.04-2.09-.12-.19-.02-.38-.06-.57-.08-.5-.07-1-.15-1.49-.26-.23-.05-.46-.11-.68-.17-.48-.12-.94-.26-1.39-.42-.16-.06-.32-.11-.47-.17-.61-.24-1.21-.51-1.75-.83-.3-.18-.59-.36-.85-.55-.09-.06-.16-.13-.25-.2-.17-.13-.34-.26-.49-.39-.06-.05-.11-.11-.17-.17-.18-.17-.35-.34-.5-.52-.07-.08-.13-.16-.2-.24-.12-.16-.24-.31-.34-.47-.06-.1-.13-.2-.18-.3-.04-.08-.08-.16-.12-.24-.06-.13-.11-.26-.16-.39-.03-.08-.06-.16-.08-.24-.04-.14-.08-.28-.1-.42-.01-.07-.03-.14-.04-.2-.03-.21-.05-.42-.05-.63v1.11c0,.21.02.42.05.63.01.07.03.13.04.2.03.14.06.28.11.42.02.08.06.16.08.24.05.13.1.26.16.39.04.08.08.16.12.24.03.05.05.11.08.16.03.05.07.09.1.14.1.16.21.32.34.47.06.08.13.16.2.24.15.18.32.35.5.52.05.04.08.09.13.14.01.01.03.02.04.03.15.13.32.26.48.38.09.07.16.14.26.2.27.19.55.37.85.55.05.03.1.06.15.09.5.28,1.04.52,1.6.74.15.06.31.11.47.17.26.09.51.2.78.28.2.06.41.1.62.15.23.06.45.12.68.17.49.11.99.19,1.49.26.19.03.37.06.56.08.69.07,1.39.11,2.09.12.13,0,.25-.01.38-.01.46,0,.92-.01,1.38-.05.12,0,.24-.03.36-.04.2-.02.4-.05.61-.08.5-.07.99-.15,1.48-.25.19-.04.39-.08.58-.13.11-.03.22-.04.32-.07.5-.13.97-.29,1.44-.47.1-.04.2-.08.3-.12.21-.08.42-.16.61-.25.38-.17.75-.36,1.1-.56.33-.19.62-.39.91-.59.02-.02.05-.03.08-.05.15-.11.29-.23.42-.34.05-.04.1-.08.14-.11.2-.18.39-.36.56-.55.04-.05.08-.1.12-.15.12-.14.24-.28.34-.42.05-.07.09-.14.14-.21Z"/>
            <path class="cls-6" d="m87.12,31.77c4.71,2.72,4.74,7.13.06,9.85-4.68,2.72-12.29,2.72-17,0-4.71-2.72-4.73-7.12-.06-9.84,4.69-2.72,12.29-2.73,17,0Z"/>
          </g>
        </g>
        <g>
          <g class="cls-83">
            <g class="cls-83">
              <g class="cls-81">
                <g class="cls-83">
                  <path class="cls-61" d="m113.09,18.41v5.54c-.01-.58-.18-1.16-.51-1.72v-5.54c.34.56.51,1.14.51,1.72"/>
                  <path class="cls-60" d="m112.6,16.69v5.54c-.25-.4-.57-.78-.97-1.14v-5.54c.42.36.73.74.97,1.14"/>
                  <path class="cls-38" d="m111.65,15.55v5.54c-.36-.31-.77-.61-1.24-.88-.04-.02-.08-.04-.12-.07v-5.54c.05.02.09.04.13.07.47.27.88.57,1.23.88"/>
                  <path class="cls-43" d="m110.31,14.61v5.54c-.67-.36-1.39-.66-2.16-.89v-5.54c.78.23,1.51.53,2.16.89"/>
                  <path class="cls-40" d="m108.16,13.72v5.54c-1.7-.5-3.6-.68-5.43-.53v-5.54c1.85-.15,3.74.03,5.43.53"/>
                  <path class="cls-43" d="m102.75,13.19v5.54c-.88.07-1.73.21-2.53.43v-5.54c.82-.22,1.67-.36,2.53-.43"/>
                  <path class="cls-38" d="m100.23,13.62v5.54c-.64.17-1.23.38-1.79.63v-5.54c.57-.25,1.17-.46,1.79-.63"/>
                  <path class="cls-60" d="m98.46,14.25v5.54c-.3.13-.58.27-.84.43s-.51.32-.74.49v-5.54c.24-.17.49-.33.75-.49s.54-.3.83-.43"/>
                  <path class="cls-61" d="m96.89,15.16v5.54c-1.27.94-1.91,2.07-1.91,3.2v-5.54c.02-1.13.65-2.26,1.91-3.2"/>
                </g>
              </g>
            </g>
            <path class="cls-15" d="m114.43,24.99c.02-.05.03-.1.04-.15.08-.3.13-.59.13-.89v-5.54c.01.3-.04.6-.11.89-.01.05-.02.1-.04.15-.08.28-.21.56-.36.83-.03.05-.06.11-.1.16-.17.28-.37.55-.61.82-.02.02-.04.04-.06.06-.24.25-.52.5-.83.74-.05.04-.1.08-.15.12-.25.18-.51.36-.79.52-.4.23-.84.42-1.29.61-.4.17-.82.31-1.25.44-.26.08-.51.17-.78.24-.17.04-.34.07-.51.11-.43.09-.86.17-1.3.22-.18.02-.36.05-.54.07-.5.05-1.01.08-1.52.08-.11,0-.23.01-.34.01-.62,0-1.23-.04-1.84-.1-.17-.02-.33-.05-.49-.07-.44-.06-.88-.13-1.31-.22-.2-.04-.4-.09-.6-.15-.42-.11-.83-.23-1.23-.37-.14-.05-.28-.09-.41-.15-.54-.21-1.06-.45-1.54-.73-.27-.15-.52-.32-.75-.48-.08-.06-.15-.12-.22-.17-.15-.11-.29-.22-.43-.34-.05-.05-.1-.1-.15-.14-.16-.15-.31-.3-.44-.46-.06-.07-.12-.14-.17-.21-.11-.14-.21-.28-.3-.42-.04-.07-.08-.13-.12-.2-.16-.28-.29-.57-.37-.86-.01-.05-.02-.1-.04-.15-.08-.31-.13-.61-.13-.92v5.54c-.02.31.04.62.11.92.01.05.02.1.04.15.09.29.21.58.37.86.01.03.02.05.03.08.02.04.06.08.09.12.09.14.19.28.3.42.06.07.11.14.17.21.13.16.28.31.44.46.04.04.07.08.11.12.01,0,.02.02.03.03.13.12.28.23.43.34.07.06.14.12.22.17.23.17.48.33.75.48.04.03.09.05.13.08.44.25.92.46,1.41.65.14.05.28.1.41.15.23.08.45.17.68.24.18.05.36.09.54.13.2.05.4.1.6.14.43.09.87.17,1.31.22.17.02.33.05.49.07.61.06,1.22.1,1.84.1.11,0,.23-.01.34-.01.4,0,.8-.01,1.2-.04.11,0,.21-.03.32-.04.18-.02.36-.04.54-.07.44-.06.87-.13,1.3-.22.17-.04.34-.07.51-.11.09-.02.19-.04.28-.06.17-.05.33-.12.5-.18.43-.13.85-.27,1.25-.44.1-.04.22-.07.32-.11.33-.15.66-.32.96-.5.29-.17.55-.34.79-.52.02-.01.05-.03.07-.04.03-.02.05-.05.09-.08.31-.24.59-.48.83-.74.02-.02.04-.04.06-.06.24-.26.44-.54.61-.82.03-.05.07-.1.1-.16.15-.27.27-.55.36-.84Z"/>
            <path class="cls-58" d="m111.49,14.05c4.14,2.39,4.16,6.26.05,8.65s-10.8,2.39-14.94,0c-4.14-2.39-4.16-6.26-.05-8.65,4.11-2.39,10.8-2.39,14.94,0Zm-13.83,8.04c3.55,2.05,9.28,2.04,12.8,0,3.52-2.05,3.5-5.36-.04-7.41-3.55-2.05-9.27-2.05-12.79,0-3.52,2.05-3.51,5.37.03,7.41"/>
          </g>
          <g>
            <path class="cls-17" d="m115.53,22.73c.08-.13.16-.25.23-.38.04-.08.08-.15.12-.23.06-.13.11-.25.16-.38.03-.08.06-.15.08-.23.04-.14.08-.28.1-.42.01-.07.03-.13.04-.2.03-.21.05-.41.05-.62v-1.11c0,.21-.02.41-.05.62-.01.07-.03.13-.04.2-.03.14-.06.28-.1.42-.02.08-.05.15-.08.23-.05.13-.1.26-.16.38-.04.08-.07.15-.12.23-.07.13-.15.26-.23.38-.05.07-.09.14-.14.21-.1.14-.22.28-.34.42-.04.05-.08.1-.12.15-.17.19-.36.37-.56.55-.04.04-.1.08-.14.11-.16.13-.32.27-.5.39-.28.21-.58.41-.91.6-.53.31-1.11.57-1.71.81-.1.04-.19.08-.3.12-.56.21-1.16.39-1.76.54-.19.05-.39.09-.58.13-.48.1-.98.19-1.48.25-.2.03-.4.06-.61.08-.57.06-1.15.09-1.74.1-.13,0-.25.01-.38.01-.7,0-1.4-.04-2.09-.12-.19-.02-.38-.06-.57-.08-.5-.07-1-.15-1.49-.26-.23-.05-.46-.11-.68-.17-.48-.12-.94-.26-1.39-.42-.16-.06-.32-.11-.47-.17-.61-.24-1.21-.51-1.75-.83-.3-.18-.59-.36-.85-.55-.09-.06-.16-.13-.25-.2-.17-.13-.34-.26-.49-.39-.06-.05-.11-.11-.17-.17-.18-.17-.35-.34-.5-.52-.07-.08-.13-.16-.2-.24-.12-.16-.24-.31-.34-.47-.06-.1-.13-.2-.18-.3-.04-.08-.08-.16-.12-.24-.06-.13-.11-.26-.16-.39-.03-.08-.06-.16-.08-.24-.04-.14-.08-.28-.1-.42-.01-.07-.03-.14-.04-.2-.03-.21-.05-.42-.05-.63v1.11c0,.21.02.42.05.63.01.07.03.13.04.2.03.14.06.28.11.42.02.08.06.16.08.24.05.13.1.26.16.39.04.08.08.16.12.24.03.05.05.11.08.16.03.05.07.09.1.14.1.16.21.32.34.47.06.08.13.16.2.24.15.18.32.35.5.52.05.04.08.09.13.14.01.01.03.02.04.03.15.13.32.26.48.38.09.07.16.14.26.2.27.19.55.37.85.55.05.03.1.06.15.09.5.28,1.04.52,1.6.74.15.06.31.11.47.17.26.09.51.2.78.28.2.06.41.1.62.15.23.06.45.12.68.17.49.11.99.19,1.49.26.19.03.37.06.56.08.69.07,1.39.11,2.09.12.13,0,.25-.01.38-.01.46,0,.92-.01,1.38-.05.12,0,.24-.03.36-.04.2-.02.4-.05.61-.08.5-.07.99-.15,1.48-.25.19-.04.39-.08.58-.13.11-.03.22-.04.32-.07.5-.13.97-.29,1.44-.47.1-.04.2-.08.3-.12.21-.08.42-.16.61-.25.38-.17.75-.36,1.1-.56.33-.19.62-.39.91-.59.02-.02.05-.03.08-.05.15-.11.29-.23.42-.34.05-.04.1-.08.14-.11.2-.18.39-.36.56-.55.04-.05.08-.1.12-.15.12-.14.24-.28.34-.42.05-.07.09-.14.14-.21Z"/>
            <path class="cls-7" d="m112.77,14.21c4.71,2.72,4.74,7.13.06,9.85-4.68,2.72-12.29,2.72-17,0-4.71-2.72-4.73-7.12-.06-9.84,4.69-2.72,12.29-2.73,17,0Z"/>
          </g>
        </g>
        <g class="cls-83">
          <g class="cls-83">
            <g class="cls-79">
              <g class="cls-83">
                <path class="cls-61" d="m57.14,18.76v5.54c-.01-.58-.18-1.16-.51-1.72v-5.54c.34.56.51,1.14.51,1.72"/>
                <path class="cls-60" d="m56.65,17.04v5.54c-.25-.4-.57-.78-.97-1.14v-5.54c.42.36.73.74.97,1.14"/>
                <path class="cls-38" d="m55.7,15.91v5.54c-.36-.31-.77-.61-1.24-.88-.04-.02-.08-.04-.12-.07v-5.54c.05.02.09.04.13.07.47.27.88.57,1.23.88"/>
                <path class="cls-43" d="m54.35,14.96v5.54c-.67-.36-1.39-.66-2.16-.89v-5.54c.78.23,1.51.53,2.16.89"/>
                <path class="cls-40" d="m52.21,14.07v5.54c-1.7-.5-3.6-.68-5.43-.53v-5.54c1.85-.15,3.74.03,5.43.53"/>
                <path class="cls-43" d="m46.79,13.55v5.54c-.88.07-1.73.21-2.53.43v-5.54c.82-.22,1.67-.36,2.53-.43"/>
                <path class="cls-38" d="m44.28,13.97v5.54c-.64.17-1.23.38-1.79.63v-5.54c.57-.25,1.17-.46,1.79-.63"/>
                <path class="cls-60" d="m42.51,14.6v5.54c-.3.13-.58.27-.84.43s-.51.32-.74.49v-5.54c.24-.17.49-.33.75-.49s.54-.3.83-.43"/>
                <path class="cls-61" d="m40.94,15.52v5.54c-1.27.94-1.91,2.07-1.91,3.2v-5.54c.02-1.13.65-2.26,1.91-3.2"/>
              </g>
            </g>
          </g>
          <path class="cls-10" d="m58.47,25.34c.02-.05.03-.1.04-.15.08-.3.13-.59.13-.89v-5.54c.01.3-.04.6-.11.89-.01.05-.02.1-.04.15-.08.28-.21.56-.36.83-.03.05-.06.11-.1.16-.17.28-.37.55-.61.82-.02.02-.04.04-.06.06-.24.25-.52.5-.83.74-.05.04-.1.08-.15.12-.25.18-.51.36-.79.52-.4.23-.84.42-1.29.61-.4.17-.82.31-1.25.44-.26.08-.51.17-.78.24-.17.04-.34.07-.51.11-.43.09-.86.17-1.3.22-.18.02-.36.05-.54.07-.5.05-1.01.08-1.52.08-.11,0-.23.01-.34.01-.62,0-1.23-.04-1.84-.1-.17-.02-.33-.05-.49-.07-.44-.06-.88-.13-1.31-.22-.2-.04-.4-.09-.6-.15-.42-.11-.83-.23-1.23-.37-.14-.05-.28-.09-.41-.15-.54-.21-1.06-.45-1.54-.73-.27-.15-.52-.32-.75-.48-.08-.06-.15-.12-.22-.17-.15-.11-.29-.22-.43-.34-.05-.05-.1-.1-.15-.14-.16-.15-.31-.3-.44-.46-.06-.07-.12-.14-.17-.21-.11-.14-.21-.28-.3-.42-.04-.07-.08-.13-.12-.2-.16-.28-.29-.57-.37-.86-.01-.05-.02-.1-.04-.15-.08-.31-.13-.61-.13-.92v5.54c-.02.31.04.62.11.92.01.05.02.1.04.15.09.29.21.58.37.86.01.03.02.05.03.08.02.04.06.08.09.12.09.14.19.28.3.42.06.07.11.14.17.21.13.16.28.31.44.46.04.04.07.08.11.12.01,0,.02.02.03.03.13.12.28.23.43.34.07.06.14.12.22.17.23.17.48.33.75.48.04.03.09.05.13.08.44.25.92.46,1.41.65.14.05.28.1.41.15.23.08.45.17.68.24.18.05.36.09.54.13.2.05.4.1.6.14.43.09.87.17,1.31.22.17.02.33.05.49.07.61.06,1.22.1,1.84.1.11,0,.23-.01.34-.01.4,0,.8-.01,1.2-.04.11,0,.21-.03.32-.04.18-.02.36-.04.54-.07.44-.06.87-.13,1.3-.22.17-.04.34-.07.51-.11.09-.02.19-.04.28-.06.17-.05.33-.12.5-.18.43-.13.85-.27,1.25-.44.1-.04.22-.07.32-.11.33-.15.66-.32.96-.5.29-.17.55-.34.79-.52.02-.01.05-.03.07-.04.03-.02.05-.05.09-.08.31-.24.59-.48.83-.74.02-.02.04-.04.06-.06.24-.26.44-.54.61-.82.03-.05.07-.1.1-.16.15-.27.27-.55.36-.84Z"/>
          <path class="cls-8" d="m55.54,14.41c4.14,2.39,4.16,6.26.05,8.65s-10.8,2.39-14.94,0c-4.14-2.39-4.16-6.26-.05-8.65s10.8-2.39,14.94,0Zm-13.83,8.04c3.55,2.05,9.28,2.04,12.8,0,3.52-2.05,3.5-5.36-.04-7.41-3.55-2.05-9.27-2.05-12.79,0s-3.51,5.37.03,7.41"/>
        </g>
      </g>
      <path class="cls-1" d="m107.81,70.22c-.07.09-.14.18-.21.27-.14.18-.28.36-.43.53-.28.33-.59.66-.92.98-.08.08-.17.16-.25.23-.26.25-.53.49-.82.73-.11.1-.23.19-.35.29-.31.25-.63.49-.97.73-.09.06-.17.13-.26.19-.43.29-.87.58-1.34.86-.16.09-.32.18-.48.28-.26.15-.52.29-.79.44-.18.1-.38.19-.57.29-.27.13-.54.27-.81.4-.2.09-.41.19-.61.28-.28.13-.56.25-.85.37-.22.09-.44.18-.66.27-.3.12-.6.23-.9.34-.23.08-.46.17-.69.25-.32.11-.64.22-.97.32-.24.08-.47.15-.71.23-.35.11-.7.21-1.06.31-.23.07-.47.13-.7.2-.4.11-.81.21-1.22.3-.21.05-.41.1-.62.15-.63.14-1.27.28-1.92.41-.06.01-.12.02-.18.03l-13.43,31.88c.24-.02.47-.04.71-.07.15-.02.31-.03.46-.05.46-.06.93-.13,1.38-.22.5-.1.97-.21,1.42-.33.15-.04.29-.09.44-.13.29-.09.59-.17.86-.27.16-.06.31-.12.47-.18.24-.09.47-.18.7-.28.15-.07.3-.14.44-.21.2-.1.4-.2.59-.31.06-.03.12-.06.18-.09.06-.04.11-.08.17-.12.26-.16.5-.33.72-.5.08-.06.17-.13.25-.19.28-.23.53-.48.75-.73,0,0,.01-.01.02-.02.17-.19.31-.39.43-.6,7.77-12.69,15.54-25.38,23.31-38.07-.17.28-.36.56-.56.83Z"/>
      <path class="cls-3" d="m38.88,70.24c.06.09.12.18.19.27.12.18.24.36.38.53.25.33.53.66.83.98.07.08.16.16.23.24.24.25.49.49.76.73.11.1.22.19.33.29.29.25.59.49.91.73.08.06.16.13.25.19.4.29.83.58,1.28.86.15.09.31.18.47.28.25.15.5.3.76.44.18.1.36.19.55.29.26.14.52.27.79.4.2.1.4.19.6.28.27.13.55.25.84.37.21.09.43.18.65.27.29.12.59.23.89.35.23.08.45.17.68.25.31.11.64.22.96.32.23.08.47.15.71.23.34.11.7.21,1.05.31.23.07.46.13.7.2.4.11.81.21,1.23.3.21.05.41.1.62.15.63.14,1.28.28,1.94.41.06.01.12.02.19.03l10.1,32c-.24-.02-.48-.04-.72-.07-.16-.02-.31-.03-.47-.05-.47-.06-.94-.13-1.4-.22-.5-.1-.97-.21-1.43-.33-.15-.04-.29-.09-.44-.13-.29-.09-.58-.17-.86-.27-.16-.06-.31-.12-.46-.18-.23-.09-.47-.18-.69-.28-.15-.07-.29-.14-.43-.21-.2-.1-.39-.2-.57-.31-.05-.03-.12-.06-.17-.09-.06-.04-.1-.08-.16-.12-.25-.16-.47-.33-.68-.5-.08-.06-.16-.13-.23-.19-.26-.24-.49-.48-.69-.73,0,0-.01-.01-.02-.02-.15-.2-.27-.4-.38-.6-6.52-12.74-13.04-25.48-19.56-38.22.14.28.3.56.48.83Z"/>
    </g>
  </g>
</svg>