<svg xmlns="http://www.w3.org/2000/svg" xmlns:xlink="http://www.w3.org/1999/xlink" viewBox="0 0 150 150"><defs><style>.cls-1,.cls-2{fill:none;}.cls-2{stroke:#fff;stroke-miterlimit:10;stroke-width:0.1px;}.cls-3{opacity:0;}.cls-4{fill:#000714;}.cls-5{opacity:0.1;fill:url(#新建图案);}.cls-6{isolation:isolate;}.cls-7{fill:url(#未命名的渐变_217);}.cls-8{fill:url(#未命名的渐变_140);}.cls-9{fill:url(#未命名的渐变_217-2);}.cls-10{fill:url(#未命名的渐变_140-2);}.cls-11{fill:url(#未命名的渐变_25);}.cls-12{fill:url(#未命名的渐变_18);}.cls-13{fill:#596b8c;}.cls-14{fill:#89abe6;}.cls-15{fill:url(#未命名的渐变_79);}.cls-16{fill:url(#未命名的渐变_17);}.cls-17{fill:#1b1708;}.cls-18{fill:url(#未命名的渐变_7);}.cls-19{fill:#1b0d08;}.cls-20{fill:url(#未命名的渐变_5);}.cls-21{fill:#08121b;}.cls-22{fill:url(#未命名的渐变_55);}.cls-23{fill:url(#未命名的渐变_132);}.cls-24{fill:#eafff7;}.cls-25{opacity:0.2;}</style><pattern id="新建图案" data-name="新建图案" width="18.57" height="32.16" patternTransform="translate(1453.84 1250.34)" patternUnits="userSpaceOnUse" viewBox="0 0 18.57 32.16"><rect class="cls-1" width="18.57" height="32.16"/><polyline class="cls-2" points="18.57 21.44 18.57 32.16 18.57 42.88"/><polyline class="cls-2" points="9.29 26.8 18.57 32.16 27.85 37.51 27.85 37.52"/><polyline class="cls-2" points="9.29 37.52 9.29 37.51 18.57 32.16 27.85 26.8"/><polygon class="cls-2" points="27.85 37.52 27.85 26.8 18.57 21.44 9.28 26.8 9.28 37.52 18.57 42.88 27.85 37.52"/><polyline class="cls-2" points="0 21.44 0 32.16 0 42.88"/><polyline class="cls-2" points="-9.28 26.8 0 32.16 9.28 37.51 9.28 37.52"/><polyline class="cls-2" points="-9.28 37.52 -9.28 37.51 0 32.16 9.28 26.8"/><polygon class="cls-2" points="9.28 37.52 9.28 26.8 0 21.44 -9.29 26.8 -9.29 37.52 0 42.88 9.28 37.52"/><polyline class="cls-2" points="18.57 10.72 27.85 16.08 37.13 21.43 37.13 21.44"/><polyline class="cls-2" points="18.57 21.44 18.57 21.43 27.85 16.08 37.13 10.72"/><polygon class="cls-2" points="37.14 21.44 37.14 10.72 27.85 5.36 18.57 10.72 18.57 21.44 27.85 26.8 37.14 21.44"/><polyline class="cls-2" points="9.29 5.36 9.29 16.08 9.29 26.8"/><polyline class="cls-2" points="0.01 10.72 9.29 16.08 18.57 21.43 18.57 21.44"/><polyline class="cls-2" points="0.01 21.44 0.01 21.43 9.29 16.08 18.57 10.72"/><polygon class="cls-2" points="18.57 21.44 18.57 10.72 9.28 5.36 0 10.72 0 21.44 9.28 26.8 18.57 21.44"/><polyline class="cls-2" points="-18.56 10.72 -9.28 16.08 0 21.43 0 21.44"/><polyline class="cls-2" points="-18.56 21.44 -18.56 21.43 -9.28 16.08 0 10.72"/><polygon class="cls-2" points="0 21.44 0 10.72 -9.29 5.36 -18.57 10.72 -18.57 21.44 -9.29 26.8 0 21.44"/><polyline class="cls-2" points="18.57 -10.72 18.57 0 18.57 10.72"/><polyline class="cls-2" points="9.29 -5.36 18.57 0 27.85 5.35 27.85 5.36"/><polyline class="cls-2" points="9.29 5.36 9.29 5.35 18.57 0 27.85 -5.36"/><polygon class="cls-2" points="27.85 5.36 27.85 -5.36 18.57 -10.72 9.28 -5.36 9.28 5.36 18.57 10.72 27.85 5.36"/><polyline class="cls-2" points="0 -10.72 0 0 0 10.72"/><polyline class="cls-2" points="-9.28 -5.36 0 0 9.28 5.35 9.28 5.36"/><polyline class="cls-2" points="-9.28 5.36 -9.28 5.35 0 0 9.28 -5.36"/><polygon class="cls-2" points="9.28 5.36 9.28 -5.36 0 -10.72 -9.29 -5.36 -9.29 5.36 0 10.72 9.28 5.36"/></pattern><linearGradient id="未命名的渐变_217" x1="71.28" y1="148.06" x2="78.73" y2="148.06" gradientUnits="userSpaceOnUse"><stop offset="0" stop-color="#283140"/><stop offset="0.2" stop-color="#89abe6"/><stop offset="0.9" stop-color="#12161a"/><stop offset="1" stop-color="#283140"/></linearGradient><linearGradient id="未命名的渐变_140" x1="71.27" y1="146.14" x2="78.73" y2="146.14" gradientUnits="userSpaceOnUse"><stop offset="0" stop-color="#89abe6"/><stop offset="1" stop-color="#547099"/></linearGradient><linearGradient id="未命名的渐变_217-2" x1="72.11" y1="85.28" x2="78.02" y2="85.28" xlink:href="#未命名的渐变_217"/><linearGradient id="未命名的渐变_140-2" x1="72.11" y1="23.44" x2="78.02" y2="23.44" xlink:href="#未命名的渐变_140"/><linearGradient id="未命名的渐变_25" x1="69.77" y1="31.18" x2="70.1" y2="30.61" gradientUnits="userSpaceOnUse"><stop offset="0" stop-color="#425266"/><stop offset="1" stop-color="#596b8c"/></linearGradient><linearGradient id="未命名的渐变_18" x1="79.24" y1="1.36" x2="79.57" y2="0.79" gradientUnits="userSpaceOnUse"><stop offset="0" stop-color="#89abe6"/><stop offset="1" stop-color="#596b8c"/></linearGradient><linearGradient id="未命名的渐变_79" x1="66.58" y1="27.19" x2="86.71" y2="7.06" gradientUnits="userSpaceOnUse"><stop offset="0" stop-color="#283140"/><stop offset="0.34" stop-color="#232b37"/><stop offset="0.9" stop-color="#15191f"/><stop offset="1" stop-color="#12161a"/></linearGradient><linearGradient id="未命名的渐变_17" x1="69.48" y1="8.17" x2="71.06" y2="5.43" gradientUnits="userSpaceOnUse"><stop offset="0" stop-color="#596b8c"/><stop offset="1" stop-color="#89abe6"/></linearGradient><linearGradient id="未命名的渐变_7" x1="75.55" y1="17.21" x2="78.99" y2="17.21" gradientUnits="userSpaceOnUse"><stop offset="0" stop-color="#a86c00"/><stop offset="1" stop-color="#a86c00"/></linearGradient><linearGradient id="未命名的渐变_5" x1="75.55" y1="9.18" x2="78.99" y2="9.18" gradientUnits="userSpaceOnUse"><stop offset="0" stop-color="#a82a00"/><stop offset="1" stop-color="#a82a00"/></linearGradient><radialGradient id="未命名的渐变_55" cx="77.27" cy="24.94" r="4.13" gradientTransform="translate(8.53 65.47) rotate(-45) scale(1 0.8)" gradientUnits="userSpaceOnUse"><stop offset="0" stop-color="#00a874"/><stop offset="1" stop-color="#00a874" stop-opacity="0"/></radialGradient><linearGradient id="未命名的渐变_132" x1="75.55" y1="24.94" x2="78.99" y2="24.94" gradientUnits="userSpaceOnUse"><stop offset="0" stop-color="#00a874"/><stop offset="1" stop-color="#00a874"/></linearGradient></defs><title>红绿灯</title><g id="图层_2" data-name="图层 2"><g id="图元"><g id="红绿灯"><g class="cls-3"><rect class="cls-4" width="150" height="150"/><rect id="网格" class="cls-5" width="150" height="150"/></g><g class="cls-6"><path class="cls-7" d="M78.73,146.14v1.71a1.86,1.86,0,0,1-1.08,1.52,5.85,5.85,0,0,1-5.28,0,1.88,1.88,0,0,1-1.09-1.54v-1.7a1.87,1.87,0,0,0,1.09,1.53,5.79,5.79,0,0,0,5.28,0A1.85,1.85,0,0,0,78.73,146.14Z"/><path class="cls-8" d="M77.63,144.61a5.83,5.83,0,0,0-5.27,0c-1.45.84-1.45,2.21,0,3a5.76,5.76,0,0,0,5.27,0C79.09,146.82,79.09,145.45,77.63,144.61Z"/></g><path class="cls-9" d="M78,23.45v122a1.46,1.46,0,0,1-.85,1.18,4.6,4.6,0,0,1-4.18,0,1.48,1.48,0,0,1-.88-1.22v-122A1.46,1.46,0,0,0,73,24.63a4.6,4.6,0,0,0,4.18,0A1.44,1.44,0,0,0,78,23.45Z"/><path class="cls-10" d="M78,23.43v0a1.44,1.44,0,0,1-.85,1.18,4.6,4.6,0,0,1-4.18,0,1.46,1.46,0,0,1-.88-1.21A1.48,1.48,0,0,1,73,22.23a4.6,4.6,0,0,1,4.18,0A1.49,1.49,0,0,1,78,23.43Z"/><g class="cls-6"><path class="cls-11" d="M71.28,31.31l-3.15-1.83a1.12,1.12,0,0,0,.46,1l3.15,1.83A1.12,1.12,0,0,1,71.28,31.31Z"/><path class="cls-12" d="M78.4.11a1.1,1.1,0,0,0-1.13.11L80.42,2a1.1,1.1,0,0,1,1.12-.1Z"/><polygon class="cls-13" points="71.22 9.18 68.07 7.35 68.13 29.48 71.28 31.31 71.22 9.18"/><polygon class="cls-14" points="77.27 0.21 69.64 4.62 72.79 6.45 80.42 2.04 77.27 0.21"/><path class="cls-15" d="M82,3c0-1-.72-1.41-1.59-.91L72.79,6.45a3.46,3.46,0,0,0-1.57,2.73l.06,22.13c0,1,.72,1.4,1.59.9l7.62-4.4a3.49,3.49,0,0,0,1.58-2.73Z"/><path class="cls-16" d="M69.65,4.62a3.49,3.49,0,0,0-1.58,2.73l3.15,1.83a3.46,3.46,0,0,1,1.57-2.73Z"/><path class="cls-17" d="M76.51,19.92a1.52,1.52,0,0,1-1.46-1.71,4.29,4.29,0,0,1,2-3.41,2,2,0,0,1,1-.3,1.52,1.52,0,0,1,1.46,1.72,4.29,4.29,0,0,1-2,3.4,2.05,2.05,0,0,1-1,.3Z"/><path class="cls-18" d="M77.27,15.24a3.78,3.78,0,0,0-1.72,3c0,1.08.78,1.53,1.73,1a3.81,3.81,0,0,0,1.71-3C79,15.13,78.21,14.69,77.27,15.24Z"/><path class="cls-19" d="M76.51,11.89a1.52,1.52,0,0,1-1.46-1.72,4.27,4.27,0,0,1,2-3.4,2,2,0,0,1,1-.3,1.52,1.52,0,0,1,1.46,1.72,4.3,4.3,0,0,1-2,3.4,2.05,2.05,0,0,1-1,.3Z"/><path class="cls-20" d="M77.27,7.2a3.8,3.8,0,0,0-1.72,3c0,1.09.78,1.53,1.73,1a3.8,3.8,0,0,0,1.71-3C79,7.1,78.21,6.66,77.27,7.2Z"/><path class="cls-21" d="M76.51,27.65a1.52,1.52,0,0,1-1.46-1.72,4.27,4.27,0,0,1,2-3.4,2,2,0,0,1,1-.3,1.52,1.52,0,0,1,1.46,1.71,4.31,4.31,0,0,1-2,3.41,2.05,2.05,0,0,1-1,.3Z"/><path class="cls-22" d="M76,29.46c-1.45,0-2.42-1.15-2.43-2.86a7.14,7.14,0,0,1,3.28-5.68,3.41,3.41,0,0,1,1.69-.5C80,20.42,81,21.57,81,23.28A7.1,7.1,0,0,1,77.7,29a3.36,3.36,0,0,1-1.7.51Z"/><path class="cls-23" d="M77.27,23a3.8,3.8,0,0,0-1.72,3c0,1.09.78,1.53,1.73,1A3.8,3.8,0,0,0,79,24C79,22.86,78.21,22.42,77.27,23Z"/><path class="cls-24" d="M76.51,26.65c-.4,0-.46-.45-.46-.72a3.32,3.32,0,0,1,1.47-2.54,1.15,1.15,0,0,1,.51-.16c.4,0,.46.45.46.72A3.3,3.3,0,0,1,77,26.48,1.09,1.09,0,0,1,76.51,26.65Z"/></g></g></g></g></svg>