<svg xmlns="http://www.w3.org/2000/svg" xmlns:xlink="http://www.w3.org/1999/xlink" viewBox="0 0 150 150"><defs><style>.cls-1,.cls-2{fill:none;}.cls-2{stroke:#fff;stroke-miterlimit:10;stroke-width:0.1px;}.cls-3{opacity:0;}.cls-4{fill:#000714;}.cls-5{opacity:0.1;fill:url(#新建图案);}.cls-6{fill:#468b67;}.cls-7{isolation:isolate;}.cls-8{fill:#247157;}.cls-9{fill:#2b825c;}.cls-10{opacity:0.2;}</style><pattern id="新建图案" data-name="新建图案" width="18.57" height="32.16" patternTransform="translate(1676.67 828.67)" patternUnits="userSpaceOnUse" viewBox="0 0 18.57 32.16"><rect class="cls-1" width="18.57" height="32.16"/><polyline class="cls-2" points="18.57 21.44 18.57 32.16 18.57 42.88"/><polyline class="cls-2" points="9.29 26.8 18.57 32.16 27.85 37.51 27.85 37.52"/><polyline class="cls-2" points="9.29 37.52 9.29 37.51 18.57 32.16 27.85 26.8"/><polygon class="cls-2" points="27.85 37.52 27.85 26.8 18.57 21.44 9.28 26.8 9.28 37.52 18.57 42.88 27.85 37.52"/><polyline class="cls-2" points="0 21.44 0 32.16 0 42.88"/><polyline class="cls-2" points="-9.28 26.8 0 32.16 9.28 37.51 9.28 37.52"/><polyline class="cls-2" points="-9.28 37.52 -9.28 37.51 0 32.16 9.28 26.8"/><polygon class="cls-2" points="9.28 37.52 9.28 26.8 0 21.44 -9.29 26.8 -9.29 37.52 0 42.88 9.28 37.52"/><polyline class="cls-2" points="18.57 10.72 27.85 16.08 37.13 21.43 37.13 21.44"/><polyline class="cls-2" points="18.57 21.44 18.57 21.43 27.85 16.08 37.13 10.72"/><polygon class="cls-2" points="37.14 21.44 37.14 10.72 27.85 5.36 18.57 10.72 18.57 21.44 27.85 26.8 37.14 21.44"/><polyline class="cls-2" points="9.29 5.36 9.29 16.08 9.29 26.8"/><polyline class="cls-2" points="0.01 10.72 9.29 16.08 18.57 21.43 18.57 21.44"/><polyline class="cls-2" points="0.01 21.44 0.01 21.43 9.29 16.08 18.57 10.72"/><polygon class="cls-2" points="18.57 21.44 18.57 10.72 9.28 5.36 0 10.72 0 21.44 9.28 26.8 18.57 21.44"/><polyline class="cls-2" points="-18.56 10.72 -9.28 16.08 0 21.43 0 21.44"/><polyline class="cls-2" points="-18.56 21.44 -18.56 21.43 -9.28 16.08 0 10.72"/><polygon class="cls-2" points="0 21.44 0 10.72 -9.29 5.36 -18.57 10.72 -18.57 21.44 -9.29 26.8 0 21.44"/><polyline class="cls-2" points="18.57 -10.72 18.57 0 18.57 10.72"/><polyline class="cls-2" points="9.29 -5.36 18.57 0 27.85 5.35 27.85 5.36"/><polyline class="cls-2" points="9.29 5.36 9.29 5.35 18.57 0 27.85 -5.36"/><polygon class="cls-2" points="27.85 5.36 27.85 -5.36 18.57 -10.72 9.28 -5.36 9.28 5.36 18.57 10.72 27.85 5.36"/><polyline class="cls-2" points="0 -10.72 0 0 0 10.72"/><polyline class="cls-2" points="-9.28 -5.36 0 0 9.28 5.35 9.28 5.36"/><polyline class="cls-2" points="-9.28 5.36 -9.28 5.35 0 0 9.28 -5.36"/><polygon class="cls-2" points="9.28 5.36 9.28 -5.36 0 -10.72 -9.29 -5.36 -9.29 5.36 0 10.72 9.28 5.36"/></pattern></defs><title>草地</title><g id="图层_2" data-name="图层 2"><g id="图元"><g id="草地"><g class="cls-3"><rect class="cls-4" width="150" height="150"/><rect id="网格" class="cls-5" width="150" height="150"/></g><polygon class="cls-6" points="150 75 75.24 118.44 0 75 74.76 31.56 150 75"/><g class="cls-7"><polygon class="cls-8" points="50.42 82.32 47.43 84.06 47.44 75.75 50.42 82.32"/><polygon class="cls-9" points="47.44 75.75 47.43 84.06 44.42 82.32 47.44 75.75"/></g><g class="cls-7"><polygon class="cls-8" points="115.35 77.42 112.36 79.16 112.38 70.84 115.35 77.42"/><polygon class="cls-9" points="112.38 70.84 112.36 79.16 109.35 77.42 112.38 70.84"/></g><g class="cls-7"><polygon class="cls-8" points="85.7 55.24 83.7 56.4 83.71 50.86 85.7 55.24"/><polygon class="cls-9" points="83.71 50.86 83.7 56.4 81.7 55.24 83.71 50.86"/></g></g></g></g></svg>