<?xml version="1.0" encoding="UTF-8"?>
<svg id="_图层_2" data-name="图层 2" xmlns="http://www.w3.org/2000/svg" xmlns:xlink="http://www.w3.org/1999/xlink" viewBox="0 0 149.66 149.92">
  <defs>
    <style>
      .cls-1 {
        fill: url(#_未命名的渐变_56);
      }

      .cls-1, .cls-2, .cls-3, .cls-4, .cls-5, .cls-6, .cls-7, .cls-8, .cls-9, .cls-10, .cls-11, .cls-12, .cls-13, .cls-14, .cls-15, .cls-16, .cls-17, .cls-18, .cls-19, .cls-20, .cls-21, .cls-22, .cls-23, .cls-24, .cls-25, .cls-26, .cls-27, .cls-28, .cls-29, .cls-30, .cls-31, .cls-32, .cls-33, .cls-34, .cls-35, .cls-36, .cls-37, .cls-38, .cls-39, .cls-40, .cls-41, .cls-42, .cls-43, .cls-44, .cls-45, .cls-46, .cls-47, .cls-48, .cls-49, .cls-50, .cls-51, .cls-52, .cls-53, .cls-54, .cls-55, .cls-56, .cls-57, .cls-58, .cls-59, .cls-60, .cls-61, .cls-62, .cls-63, .cls-64, .cls-65, .cls-66, .cls-67, .cls-68, .cls-69, .cls-70, .cls-71 {
        stroke-width: 0px;
      }

      .cls-72 {
        clip-path: url(#clippath);
      }

      .cls-2 {
        fill: none;
      }

      .cls-3 {
        fill: url(#_未命名的渐变_175-20);
      }

      .cls-4 {
        fill: url(#_未命名的渐变_175-19);
      }

      .cls-5 {
        fill: url(#_未命名的渐变_175-18);
      }

      .cls-6 {
        fill: url(#_未命名的渐变_175-11);
      }

      .cls-7 {
        fill: url(#_未命名的渐变_175-10);
      }

      .cls-8 {
        fill: url(#_未命名的渐变_175-13);
      }

      .cls-9 {
        fill: url(#_未命名的渐变_175-16);
      }

      .cls-10 {
        fill: url(#_未命名的渐变_175-12);
      }

      .cls-11 {
        fill: url(#_未命名的渐变_175-15);
      }

      .cls-12 {
        fill: url(#_未命名的渐变_175-14);
      }

      .cls-13 {
        fill: url(#_未命名的渐变_175-17);
      }

      .cls-14 {
        fill: url(#_未命名的渐变_56-2);
      }

      .cls-15 {
        fill: url(#_未命名的渐变_56-3);
      }

      .cls-16 {
        fill: url(#_未命名的渐变_170-2);
      }

      .cls-17 {
        fill: url(#_未命名的渐变_170-3);
      }

      .cls-18 {
        fill: url(#_未命名的渐变_175-4);
      }

      .cls-19 {
        fill: url(#_未命名的渐变_175-5);
      }

      .cls-20 {
        fill: url(#_未命名的渐变_175-8);
      }

      .cls-21 {
        fill: url(#_未命名的渐变_175-9);
      }

      .cls-22 {
        fill: url(#_未命名的渐变_175-2);
      }

      .cls-23 {
        fill: url(#_未命名的渐变_175-6);
      }

      .cls-24 {
        fill: url(#_未命名的渐变_175-7);
      }

      .cls-25 {
        fill: url(#_未命名的渐变_175-3);
      }

      .cls-26 {
        fill: url(#_未命名的渐变_201-2);
      }

      .cls-27 {
        fill: url(#_未命名的渐变_201-3);
      }

      .cls-28 {
        fill: url(#_未命名的渐变_201-5);
      }

      .cls-29 {
        fill: url(#_未命名的渐变_201-4);
      }

      .cls-30 {
        fill: url(#_未命名的渐变_200-2);
      }

      .cls-31 {
        fill: url(#_未命名的渐变_200-3);
      }

      .cls-32 {
        fill: url(#_未命名的渐变_200-4);
      }

      .cls-33 {
        fill: url(#_未命名的渐变_202-2);
      }

      .cls-34 {
        fill: url(#_未命名的渐变_218-6);
      }

      .cls-35 {
        fill: url(#_未命名的渐变_218-5);
      }

      .cls-36 {
        fill: url(#_未命名的渐变_218-4);
      }

      .cls-37 {
        fill: url(#_未命名的渐变_218-2);
      }

      .cls-38 {
        fill: url(#_未命名的渐变_218-3);
      }

      .cls-39 {
        fill: url(#_新建渐变色板_4);
      }

      .cls-73 {
        clip-path: url(#clippath-1);
      }

      .cls-74 {
        clip-path: url(#clippath-4);
      }

      .cls-75 {
        clip-path: url(#clippath-3);
      }

      .cls-76 {
        clip-path: url(#clippath-2);
      }

      .cls-77 {
        clip-path: url(#clippath-7);
      }

      .cls-78 {
        clip-path: url(#clippath-6);
      }

      .cls-79 {
        clip-path: url(#clippath-5);
      }

      .cls-80 {
        opacity: .2;
      }

      .cls-81 {
        isolation: isolate;
      }

      .cls-40 {
        fill: url(#_未命名的渐变_170);
      }

      .cls-41 {
        fill: url(#_未命名的渐变_175);
      }

      .cls-42 {
        fill: url(#_未命名的渐变_202);
      }

      .cls-43 {
        fill: url(#_未命名的渐变_201);
      }

      .cls-44 {
        fill: url(#_未命名的渐变_200);
      }

      .cls-45 {
        fill: url(#_未命名的渐变_218);
      }

      .cls-46 {
        fill: url(#_未命名的渐变_219);
      }

      .cls-47 {
        fill: #010714;
        opacity: 0;
      }

      .cls-48 {
        fill: #2c5949;
      }

      .cls-49 {
        fill: #2a5647;
      }

      .cls-50 {
        fill: #2b3543;
      }

      .cls-51 {
        fill: #295344;
      }

      .cls-52 {
        fill: #275142;
      }

      .cls-53 {
        fill: #2f5e4e;
      }

      .cls-54 {
        fill: #39735e;
      }

      .cls-55 {
        fill: #264e40;
      }

      .cls-56 {
        fill: #38705b;
      }

      .cls-57 {
        fill: #2d5b4b;
      }

      .cls-58 {
        fill: #366d59;
      }

      .cls-59 {
        fill: #356a57;
      }

      .cls-60 {
        fill: #439cf3;
      }

      .cls-61 {
        fill: #244b3d;
      }

      .cls-62 {
        fill: #171d23;
      }

      .cls-63 {
        fill: #9d9d9d;
      }

      .cls-64 {
        fill: #c1cee5;
      }

      .cls-65 {
        fill: #306150;
      }

      .cls-66 {
        fill: #336755;
      }

      .cls-67 {
        fill: #316452;
      }

      .cls-68 {
        fill: #6781b0;
      }

      .cls-69 {
        fill: url(#_新建渐变色板_4-4);
      }

      .cls-70 {
        fill: url(#_新建渐变色板_4-2);
      }

      .cls-71 {
        fill: url(#_新建渐变色板_4-3);
      }
    </style>
    <clipPath id="clippath">
      <path class="cls-2" d="m75.72,60.03l2.97,1.72c3.42,1.99,5.53,6.21,5.55,12.21.03,12.08-8.46,26.79-18.97,32.86l-2.97-1.72c10.52-6.07,19.01-20.78,18.97-32.86-.02-6-2.13-10.23-5.55-12.21Z"/>
    </clipPath>
    <clipPath id="clippath-1">
      <path class="cls-2" d="m51.71,108.15l-2.97-1.72c3.46,2.01,8.25,1.73,13.55-1.33l2.97,1.72c-5.29,3.06-10.09,3.34-13.55,1.33Z"/>
    </clipPath>
    <linearGradient id="_未命名的渐变_175" data-name="未命名的渐变 175" x1="87.72" y1="60.53" x2="54.55" y2="104.99" gradientUnits="userSpaceOnUse">
      <stop offset="0" stop-color="#12161a"/>
      <stop offset=".73" stop-color="#38455a"/>
      <stop offset="1" stop-color="#283140"/>
    </linearGradient>
    <clipPath id="clippath-2">
      <path class="cls-2" d="m75.4,60.09l2.97,1.72c-2.68-1.56-6.15-1.72-10.02-.28l-2.97-1.72c3.88-1.45,7.35-1.28,10.02.28Z"/>
    </clipPath>
    <clipPath id="clippath-3">
      <path class="cls-2" d="m51.92,108.02l-2.97-1.72c-3.42-1.99-5.54-6.23-5.56-12.27-.03-8.85,4.49-19.08,10.99-26.26l2.97,1.72c-6.5,7.18-11.01,17.42-10.99,26.26.02,6.03,2.14,10.28,5.56,12.27Z"/>
    </clipPath>
    <linearGradient id="_未命名的渐变_175-2" data-name="未命名的渐变 175" x1="88.38" y1="87.5" x2="80.02" y2="98.71" xlink:href="#_未命名的渐变_175"/>
    <linearGradient id="_未命名的渐变_175-3" data-name="未命名的渐变 175" x1="69.77" y1="107.27" x2="61.41" y2="118.48" xlink:href="#_未命名的渐变_175"/>
    <linearGradient id="_未命名的渐变_175-4" data-name="未命名的渐变 175" x1="95.97" y1="61.57" x2="87.61" y2="72.78" xlink:href="#_未命名的渐变_175"/>
    <linearGradient id="_未命名的渐变_175-5" data-name="未命名的渐变 175" x1="51.01" y1="109.31" x2="42.65" y2="120.5" xlink:href="#_未命名的渐变_175"/>
    <linearGradient id="_未命名的渐变_175-6" data-name="未命名的渐变 175" x1="88.06" y1="44.68" x2="79.71" y2="55.87" xlink:href="#_未命名的渐变_175"/>
    <linearGradient id="_未命名的渐变_175-7" data-name="未命名的渐变 175" x1="43.12" y1="92.41" x2="34.76" y2="103.62" xlink:href="#_未命名的渐变_175"/>
    <linearGradient id="_未命名的渐变_175-8" data-name="未命名的渐变 175" x1="69.32" y1="46.71" x2="60.96" y2="57.91" xlink:href="#_未命名的渐变_175"/>
    <linearGradient id="_未命名的渐变_175-9" data-name="未命名的渐变 175" x1="50.7" y1="66.47" x2="42.34" y2="77.68" xlink:href="#_未命名的渐变_175"/>
    <linearGradient id="_新建渐变色板_4" data-name="新建渐变色板 4" x1="101.99" y1="29.29" x2="-45.51" y2="191.01" gradientUnits="userSpaceOnUse">
      <stop offset="0" stop-color="#87a9e4"/>
      <stop offset="1" stop-color="#547097"/>
      <stop offset="1" stop-color="#547097"/>
    </linearGradient>
    <linearGradient id="_未命名的渐变_175-10" data-name="未命名的渐变 175" x1="108.41" y1="28.55" x2="35.16" y2="126.75" xlink:href="#_未命名的渐变_175"/>
    <linearGradient id="_未命名的渐变_170" data-name="未命名的渐变 170" x1="40" y1="127.86" x2="86.22" y2="51.58" gradientUnits="userSpaceOnUse">
      <stop offset="0" stop-color="#38455a"/>
      <stop offset=".53" stop-color="#12161a"/>
      <stop offset="1" stop-color="#283140"/>
    </linearGradient>
    <linearGradient id="_未命名的渐变_170-2" data-name="未命名的渐变 170" x1="76.27" y1="112.75" x2="96.85" y2="78.78" xlink:href="#_未命名的渐变_170"/>
    <linearGradient id="_未命名的渐变_218" data-name="未命名的渐变 218" x1="62.88" y1="109.24" x2="87.3" y2="68.93" gradientUnits="userSpaceOnUse">
      <stop offset="0" stop-color="#38455a"/>
      <stop offset=".15" stop-color="#7a96ca"/>
      <stop offset=".25" stop-color="#7a96ca"/>
      <stop offset=".9" stop-color="#12161a"/>
      <stop offset="1" stop-color="#283140"/>
    </linearGradient>
    <linearGradient id="_未命名的渐变_175-11" data-name="未命名的渐变 175" x1="119.74" y1="69.51" x2="81.51" y2="120.75" xlink:href="#_未命名的渐变_175"/>
    <clipPath id="clippath-4">
      <path class="cls-2" d="m110.1,77.1l2.97,1.72c3.42,1.99,5.53,6.21,5.55,12.21.03,12.08-8.46,26.79-18.97,32.86l-2.97-1.72c10.52-6.07,19.01-20.78,18.97-32.86-.02-6-2.13-10.23-5.55-12.21Z"/>
    </clipPath>
    <clipPath id="clippath-5">
      <path class="cls-2" d="m86.1,125.23l-2.97-1.72c3.46,2.01,8.25,1.73,13.55-1.33l2.97,1.72c-5.29,3.06-10.09,3.34-13.55,1.33Z"/>
    </clipPath>
    <linearGradient id="_未命名的渐变_175-12" data-name="未命名的渐变 175" x1="122.11" y1="77.61" x2="88.94" y2="122.07" xlink:href="#_未命名的渐变_175"/>
    <clipPath id="clippath-6">
      <path class="cls-2" d="m109.78,77.16l2.97,1.72c-2.68-1.56-6.15-1.72-10.02-.28l-2.97-1.72c3.88-1.45,7.35-1.28,10.02.28Z"/>
    </clipPath>
    <clipPath id="clippath-7">
      <path class="cls-2" d="m86.3,125.1l-2.97-1.72c-3.42-1.99-5.54-6.23-5.56-12.27-.03-8.85,4.49-19.08,10.99-26.26l2.97,1.72c-6.5,7.18-11.01,17.42-10.99,26.26.02,6.03,2.14,10.28,5.56,12.27Z"/>
    </clipPath>
    <linearGradient id="_未命名的渐变_175-13" data-name="未命名的渐变 175" x1="122.76" y1="104.58" x2="114.4" y2="115.78" xlink:href="#_未命名的渐变_175"/>
    <linearGradient id="_未命名的渐变_175-14" data-name="未命名的渐变 175" x1="104.15" y1="124.34" x2="95.79" y2="135.55" xlink:href="#_未命名的渐变_175"/>
    <linearGradient id="_未命名的渐变_175-15" data-name="未命名的渐变 175" x1="130.35" y1="78.65" x2="121.99" y2="89.85" xlink:href="#_未命名的渐变_175"/>
    <linearGradient id="_未命名的渐变_175-16" data-name="未命名的渐变 175" x1="85.39" y1="126.38" x2="77.04" y2="137.58" xlink:href="#_未命名的渐变_175"/>
    <linearGradient id="_未命名的渐变_175-17" data-name="未命名的渐变 175" x1="122.44" y1="61.75" x2="114.09" y2="72.95" xlink:href="#_未命名的渐变_175"/>
    <linearGradient id="_未命名的渐变_175-18" data-name="未命名的渐变 175" x1="77.51" y1="109.48" x2="69.14" y2="120.69" xlink:href="#_未命名的渐变_175"/>
    <linearGradient id="_未命名的渐变_175-19" data-name="未命名的渐变 175" x1="103.7" y1="63.78" x2="95.35" y2="74.98" xlink:href="#_未命名的渐变_175"/>
    <linearGradient id="_未命名的渐变_175-20" data-name="未命名的渐变 175" x1="85.08" y1="83.55" x2="76.72" y2="94.75" xlink:href="#_未命名的渐变_175"/>
    <linearGradient id="_新建渐变色板_4-2" data-name="新建渐变色板 4" x1="136.37" y1="46.37" x2="-11.12" y2="208.09" xlink:href="#_新建渐变色板_4"/>
    <linearGradient id="_未命名的渐变_170-3" data-name="未命名的渐变 170" x1="74.38" y1="144.94" x2="120.6" y2="68.65" xlink:href="#_未命名的渐变_170"/>
    <linearGradient id="_未命名的渐变_201" data-name="未命名的渐变 201" x1="72.93" y1="56.7" x2="87.84" y2="56.7" gradientUnits="userSpaceOnUse">
      <stop offset="0" stop-color="#283140"/>
      <stop offset="1" stop-color="#12161a"/>
    </linearGradient>
    <linearGradient id="_未命名的渐变_201-2" data-name="未命名的渐变 201" x1="67.8" y1="41.5" y2="41.5" xlink:href="#_未命名的渐变_201"/>
    <linearGradient id="_未命名的渐变_200" data-name="未命名的渐变 200" x1="67.73" y1="59.5" x2="73" y2="59.5" gradientUnits="userSpaceOnUse">
      <stop offset="0" stop-color="#425266"/>
      <stop offset="0" stop-color="#425266"/>
      <stop offset="1" stop-color="#596b8a"/>
    </linearGradient>
    <linearGradient id="_未命名的渐变_201-3" data-name="未命名的渐变 201" x1="73.25" y1="32.9" x2="88.13" y2="32.9" xlink:href="#_未命名的渐变_201"/>
    <linearGradient id="_未命名的渐变_200-2" data-name="未命名的渐变 200" x1="69.89" y1="36.24" x2="73.3" y2="36.24" xlink:href="#_未命名的渐变_200"/>
    <linearGradient id="_未命名的渐变_201-4" data-name="未命名的渐变 201" x1="78.55" y1="30.96" x2="98.38" y2="30.96" xlink:href="#_未命名的渐变_201"/>
    <linearGradient id="_未命名的渐变_202" data-name="未命名的渐变 202" x1="52.02" y1="13.48" x2="98.38" y2="13.48" gradientUnits="userSpaceOnUse">
      <stop offset="0" stop-color="#87a9e4"/>
      <stop offset="1" stop-color="#547097"/>
      <stop offset="1" stop-color="#547097"/>
    </linearGradient>
    <linearGradient id="_未命名的渐变_200-3" data-name="未命名的渐变 200" x1="52" y1="29.04" x2="78.57" y2="29.04" xlink:href="#_未命名的渐变_200"/>
    <linearGradient id="_未命名的渐变_201-5" data-name="未命名的渐变 201" x1="77.68" y1="18.85" x2="92.52" y2="18.85" xlink:href="#_未命名的渐变_201"/>
    <linearGradient id="_未命名的渐变_202-2" data-name="未命名的渐变 202" x1="57.13" y1="11.73" x2="92.52" y2="11.73" xlink:href="#_未命名的渐变_202"/>
    <linearGradient id="_未命名的渐变_200-4" data-name="未命名的渐变 200" x1="57.15" y1="17.22" x2="77.66" y2="17.22" xlink:href="#_未命名的渐变_200"/>
    <linearGradient id="_新建渐变色板_4-3" data-name="新建渐变色板 4" x1="63.07" y1="24.68" x2="74.76" y2="46.32" xlink:href="#_新建渐变色板_4"/>
    <linearGradient id="_未命名的渐变_218-2" data-name="未命名的渐变 218" x1="56.37" y1="19.51" x2="68.73" y2="40.67" xlink:href="#_未命名的渐变_218"/>
    <linearGradient id="_未命名的渐变_218-3" data-name="未命名的渐变 218" x1="51.57" y1="30.98" x2="58.09" y2="42.48" xlink:href="#_未命名的渐变_218"/>
    <linearGradient id="_未命名的渐变_218-4" data-name="未命名的渐变 218" x1="52.19" y1="-19.43" x2="21.84" y2="36.06" xlink:href="#_未命名的渐变_218"/>
    <linearGradient id="_未命名的渐变_218-5" data-name="未命名的渐变 218" x1="35.95" y1="50.57" x2="53.5" y2="68.82" xlink:href="#_未命名的渐变_218"/>
    <linearGradient id="_新建渐变色板_4-4" data-name="新建渐变色板 4" x1="41.77" y1="16.22" x2="89.91" y2="105.38" xlink:href="#_新建渐变色板_4"/>
    <linearGradient id="_未命名的渐变_218-6" data-name="未命名的渐变 218" x1="13.75" y1="-4.8" x2="64.61" y2="82.34" xlink:href="#_未命名的渐变_218"/>
    <linearGradient id="_未命名的渐变_219" data-name="未命名的渐变 219" x1="36.35" y1="33.36" x2="50.58" y2="52.8" gradientUnits="userSpaceOnUse">
      <stop offset="0" stop-color="#2a73e4"/>
      <stop offset=".15" stop-color="#59c6f9"/>
      <stop offset=".25" stop-color="#59c6f9"/>
      <stop offset=".85" stop-color="#1433ca"/>
      <stop offset="1" stop-color="#2a73e4"/>
    </linearGradient>
    <linearGradient id="_未命名的渐变_56" data-name="未命名的渐变 56" x1="51.02" y1="77.08" x2="66.43" y2="77.08" gradientUnits="userSpaceOnUse">
      <stop offset="0" stop-color="#10243b" stop-opacity=".6"/>
      <stop offset=".03" stop-color="#10243b" stop-opacity=".6"/>
      <stop offset="1" stop-color="#10243b" stop-opacity=".6"/>
    </linearGradient>
    <linearGradient id="_未命名的渐变_56-2" data-name="未命名的渐变 56" x1="67.48" y1="75.11" x2="82.12" y2="75.11" xlink:href="#_未命名的渐变_56"/>
    <linearGradient id="_未命名的渐变_56-3" data-name="未命名的渐变 56" x1="83.24" y1="72.84" x2="98.64" y2="72.84" xlink:href="#_未命名的渐变_56"/>
  </defs>
  <g id="_水力发电" data-name="水力发电">
    <g id="_蝶阀" data-name="蝶阀">
      <rect class="cls-47" width="149.66" height="149.92"/>
      <g>
        <g class="cls-81">
          <g class="cls-81">
            <g class="cls-72">
              <g class="cls-81">
                <path class="cls-54" d="m65.26,106.82l-2.97-1.72c2.23-1.29,4.37-2.97,6.36-4.93l2.97,1.72c-1.99,1.96-4.13,3.64-6.36,4.93"/>
                <path class="cls-56" d="m71.62,101.9l-2.97-1.72c.71-.7,1.41-1.44,2.08-2.22l2.97,1.72c-.67.77-1.37,1.51-2.08,2.22"/>
                <path class="cls-58" d="m73.7,99.68l-2.97-1.72c.53-.61,1.04-1.24,1.54-1.88l2.97,1.72c-.5.64-1.02,1.27-1.54,1.88"/>
                <path class="cls-59" d="m75.25,97.8l-2.97-1.72c.43-.56.86-1.13,1.27-1.72l2.97,1.72c-.41.58-.83,1.16-1.27,1.72"/>
                <path class="cls-66" d="m76.51,96.08l-2.97-1.72c.38-.54.75-1.09,1.1-1.64l2.97,1.72c-.36.56-.72,1.11-1.1,1.64"/>
                <path class="cls-67" d="m77.61,94.44l-2.97-1.72c.34-.53.67-1.07.98-1.61l2.97,1.72c-.32.54-.64,1.08-.98,1.61"/>
                <path class="cls-65" d="m78.6,92.83l-2.97-1.72c.31-.53.61-1.06.89-1.6l2.97,1.72c-.29.54-.58,1.07-.89,1.6"/>
                <path class="cls-53" d="m79.49,91.23l-2.97-1.72c.28-.53.56-1.07.82-1.62l2.97,1.72c-.26.54-.54,1.08-.82,1.62"/>
                <path class="cls-57" d="m80.31,89.61l-2.97-1.72c.26-.55.52-1.1.76-1.65l2.97,1.72c-.24.55-.49,1.1-.76,1.65"/>
                <path class="cls-48" d="m81.07,87.96l-2.97-1.72c.25-.57.48-1.14.7-1.71l2.97,1.72c-.22.57-.45,1.14-.7,1.71"/>
                <path class="cls-49" d="m81.76,86.25l-2.97-1.72c.23-.6.44-1.2.64-1.8l2.97,1.72c-.2.6-.41,1.2-.64,1.8"/>
                <path class="cls-51" d="m82.41,84.46l-2.97-1.72c.22-.65.41-1.29.59-1.94l2.97,1.72c-.18.65-.38,1.29-.59,1.94"/>
                <path class="cls-52" d="m83,82.52l-2.97-1.72c.2-.73.38-1.46.54-2.18l2.97,1.72c-.15.73-.33,1.46-.54,2.18"/>
                <path class="cls-55" d="m83.54,80.33l-2.97-1.72c.19-.88.34-1.77.45-2.64l2.97,1.72c-.11.87-.27,1.76-.45,2.64"/>
                <path class="cls-61" d="m83.99,77.69l-2.97-1.72c.16-1.26.25-2.51.24-3.73-.02-6-2.13-10.23-5.55-12.21l2.97,1.72c3.42,1.99,5.53,6.21,5.55,12.21,0,1.22-.08,2.47-.24,3.73"/>
              </g>
            </g>
          </g>
          <g class="cls-81">
            <g class="cls-73">
              <g class="cls-81">
                <path class="cls-48" d="m51.71,108.15l-2.97-1.72s.07.04.1.06l2.97,1.72s-.07-.04-.1-.06"/>
                <path class="cls-57" d="m51.82,108.21l-2.97-1.72c.31.17.63.33.96.47l2.97,1.72c-.33-.14-.65-.29-.96-.47"/>
                <path class="cls-53" d="m52.77,108.68l-2.97-1.72c.33.14.66.25,1,.35l2.97,1.72c-.34-.1-.68-.22-1-.35"/>
                <path class="cls-65" d="m53.78,109.03l-2.97-1.72c.35.1.7.18,1.07.25l2.97,1.72c-.36-.06-.72-.15-1.07-.25"/>
                <path class="cls-67" d="m54.85,109.28l-2.97-1.72c.37.06.76.11,1.15.13l2.97,1.72c-.39-.02-.78-.07-1.15-.13"/>
                <path class="cls-66" d="m56,109.42l-2.97-1.72c.41.03.83.03,1.26.01l2.97,1.72c-.43.02-.85.02-1.26-.01"/>
                <path class="cls-59" d="m57.26,109.43l-2.97-1.72c.46-.02.94-.07,1.42-.14l2.97,1.72c-.48.07-.96.12-1.42.14"/>
                <path class="cls-58" d="m58.68,109.28l-2.97-1.72c.55-.08,1.11-.2,1.68-.36l2.97,1.72c-.57.15-1.13.27-1.68.36"/>
                <path class="cls-56" d="m60.35,108.92l-2.97-1.72c.73-.2,1.48-.46,2.24-.77l2.97,1.72c-.76.32-1.51.57-2.24.77"/>
                <path class="cls-54" d="m62.59,108.15l-2.97-1.72c.87-.36,1.76-.8,2.67-1.33l2.97,1.72c-.91.52-1.8.96-2.67,1.33"/>
              </g>
            </g>
          </g>
          <path class="cls-41" d="m80.72,78.96c.04-.27.05-.55.08-.82.02-.19.04-.38.06-.57.04-.6.07-1.19.07-1.77-.01-5.07-1.8-8.64-4.67-10.31l-2.97-1.72c2.87,1.67,4.66,5.24,4.67,10.31,0,.58-.03,1.18-.07,1.77-.01.19-.04.38-.06.57-.04.38-.08.77-.14,1.15-.06.44-.14.88-.23,1.32-.05.28-.1.55-.16.83-.06.27-.13.55-.2.82-.09.38-.19.75-.3,1.13-.06.22-.13.44-.2.66-.13.42-.27.84-.42,1.25-.07.19-.13.37-.2.55-.21.57-.44,1.15-.68,1.71,0,.01-.01.03-.02.04-.25.58-.53,1.16-.81,1.73-.08.16-.16.31-.24.47-.23.46-.48.91-.73,1.36-.07.12-.14.25-.21.37-.32.55-.65,1.1-.99,1.63-.08.13-.17.26-.26.39-.27.41-.54.81-.83,1.2-.14.2-.29.39-.43.59-.24.32-.48.62-.72.93-.2.25-.4.5-.61.74-.21.24-.41.48-.63.71-.34.38-.68.74-1.03,1.1-.22.22-.44.45-.66.67-.17.16-.35.33-.52.49-.3.27-.6.53-.9.79-.18.15-.35.3-.53.44-.33.26-.66.51-1,.75-.16.11-.31.23-.47.34-.49.34-.99.66-1.5.96-.49.28-.96.52-1.44.75-.12.06-.24.11-.36.17-.26.12-.52.21-.78.31-.37.14-.74.27-1.1.38-.23.07-.47.14-.7.2-.22.05-.43.1-.64.14-.28.05-.56.1-.83.13-.16.02-.31.04-.47.05-.35.02-.69.03-1.03.02-.07,0-.14,0-.21,0-.4-.02-.79-.08-1.16-.15-.1-.02-.19-.04-.28-.07-.29-.07-.58-.15-.86-.25-.09-.03-.18-.06-.27-.09-.36-.14-.7-.3-1.03-.49l2.97,1.72s.06.03.09.05c.26.15.52.28.8.39.05.02.1.03.15.05.09.03.18.06.27.09.14.05.27.11.42.15.14.04.3.07.44.1.09.02.19.05.28.07.05.01.1.03.16.04.31.05.63.09.95.11.02,0,.04,0,.05,0,.07,0,.14,0,.21,0,.26,0,.51.02.78,0,.08,0,.17-.02.25-.03.15-.01.31-.03.47-.05.15-.02.3-.02.45-.05.13-.02.26-.06.38-.08.21-.04.42-.08.64-.14.12-.03.23-.04.35-.08.11-.03.23-.09.35-.12.36-.11.73-.24,1.1-.38.13-.05.26-.08.39-.14.13-.05.25-.12.38-.17.12-.05.24-.11.36-.17.47-.22.95-.47,1.44-.75.51-.29,1.01-.62,1.5-.96.16-.11.31-.23.47-.34.33-.24.67-.49,1-.75.18-.14.35-.29.53-.44.3-.26.6-.52.9-.79.17-.16.35-.32.52-.49.1-.1.21-.19.31-.29.12-.12.24-.26.36-.38.35-.36.69-.72,1.03-1.1.11-.12.22-.22.32-.35.1-.12.2-.25.3-.37.21-.24.41-.49.61-.74.12-.15.25-.29.37-.45.12-.16.24-.32.36-.49.15-.2.29-.39.44-.59.08-.12.17-.23.26-.35.2-.28.38-.56.57-.85.09-.13.18-.26.26-.39.03-.04.06-.09.09-.13.28-.44.55-.89.82-1.34.03-.05.06-.11.09-.16.07-.12.14-.25.21-.37.15-.27.31-.53.45-.81.1-.18.19-.37.28-.55.08-.15.16-.31.24-.46.06-.11.12-.22.17-.34.22-.46.43-.92.63-1.39,0,0,0,0,0,0,0-.01,0-.02.01-.03.2-.46.39-.93.57-1.39.04-.11.08-.22.12-.33.07-.19.13-.37.2-.56.07-.21.16-.42.23-.63.07-.21.13-.42.19-.62.07-.22.14-.44.2-.66.03-.12.08-.24.11-.35.07-.26.13-.52.19-.78.07-.28.14-.55.2-.82.02-.08.04-.17.06-.25.04-.2.06-.39.1-.58.08-.44.16-.88.23-1.32.02-.11.04-.22.06-.34Z"/>
          <g class="cls-81">
            <g class="cls-76">
              <g class="cls-81">
                <path class="cls-56" d="m68.35,61.54l-2.97-1.72c.52-.19,1.03-.36,1.53-.49l2.97,1.72c-.5.14-1.01.3-1.53.49"/>
                <path class="cls-58" d="m69.87,61.04l-2.97-1.72c.56-.15,1.1-.27,1.64-.35l2.97,1.72c-.53.08-1.08.2-1.64.35"/>
                <path class="cls-59" d="m71.51,60.69l-2.97-1.72c.47-.07.94-.12,1.39-.14l2.97,1.72c-.45.02-.92.07-1.39.14"/>
                <path class="cls-66" d="m72.9,60.56l-2.97-1.72c.42-.02.83-.02,1.24.01l2.97,1.72c-.4-.03-.82-.03-1.24-.01"/>
                <path class="cls-67" d="m74.14,60.57l-2.97-1.72c.39.02.76.07,1.13.13l2.97,1.72c-.37-.06-.75-.11-1.13-.13"/>
                <path class="cls-65" d="m75.27,60.7l-2.97-1.72c.36.06.71.14,1.05.24l2.97,1.72c-.34-.1-.69-.18-1.05-.24"/>
                <path class="cls-53" d="m76.32,60.94l-2.97-1.72c.34.1.67.22.99.35l2.97,1.72c-.32-.13-.65-.25-.99-.35"/>
                <path class="cls-57" d="m77.32,61.29l-2.97-1.72c.33.14.64.29.95.46l2.97,1.72c-.31-.17-.62-.33-.95-.46"/>
                <path class="cls-48" d="m78.27,61.76l-2.97-1.72s.07.04.1.06l2.97,1.72s-.07-.04-.1-.06"/>
              </g>
            </g>
          </g>
          <g class="cls-81">
            <g class="cls-75">
              <g class="cls-81">
                <path class="cls-61" d="m51.92,108.02l-2.97-1.72c-3.42-1.99-5.54-6.23-5.56-12.27,0-1.22.08-2.47.24-3.74l2.97,1.72c-.16,1.26-.25,2.51-.24,3.74.02,6.03,2.14,10.28,5.56,12.27"/>
                <path class="cls-55" d="m46.6,92.02l-2.97-1.72c.12-.89.27-1.79.46-2.7l2.97,1.72c-.19.9-.35,1.81-.46,2.7"/>
                <path class="cls-52" d="m47.07,89.32l-2.97-1.72c.16-.73.34-1.46.54-2.19l2.97,1.72c-.2.73-.38,1.46-.54,2.19"/>
                <path class="cls-51" d="m47.6,87.13l-2.97-1.72c.18-.65.38-1.3.59-1.94l2.97,1.72c-.22.65-.41,1.29-.59,1.94"/>
                <path class="cls-49" d="m48.2,85.19l-2.97-1.72c.2-.6.42-1.2.65-1.8l2.97,1.72c-.23.6-.45,1.2-.65,1.8"/>
                <path class="cls-48" d="m48.84,83.39l-2.97-1.72c.22-.57.45-1.14.7-1.7l2.97,1.72c-.24.56-.48,1.13-.7,1.7"/>
                <path class="cls-57" d="m49.54,81.69l-2.97-1.72c.24-.55.49-1.1.75-1.64l2.97,1.72c-.26.54-.51,1.09-.75,1.64"/>
                <path class="cls-53" d="m50.29,80.04l-2.97-1.72c.26-.54.53-1.08.82-1.61l2.97,1.72c-.28.53-.56,1.07-.82,1.61"/>
                <path class="cls-65" d="m51.11,78.43l-2.97-1.72c.29-.54.58-1.07.89-1.59l2.97,1.72c-.31.52-.6,1.06-.89,1.59"/>
                <path class="cls-67" d="m52,76.84l-2.97-1.72c.31-.54.64-1.07.98-1.6l2.97,1.72c-.34.53-.66,1.06-.98,1.6"/>
                <path class="cls-66" d="m52.97,75.24l-2.97-1.72c.35-.55.72-1.1,1.09-1.63l2.97,1.72c-.38.53-.74,1.08-1.09,1.63"/>
                <path class="cls-59" d="m54.07,73.61l-2.97-1.72c.4-.57.82-1.14,1.25-1.69l2.97,1.72c-.43.55-.84,1.11-1.25,1.69"/>
                <path class="cls-58" d="m55.31,71.92l-2.97-1.72c.49-.63.99-1.24,1.51-1.84l2.97,1.72c-.52.59-1.02,1.21-1.51,1.84"/>
                <path class="cls-56" d="m56.82,70.08l-2.97-1.72c.17-.2.35-.4.52-.59l2.97,1.72c-.18.19-.35.39-.52.59"/>
              </g>
            </g>
          </g>
          <path class="cls-22" d="m87.57,91c-.03-.1-.05-.2-.09-.29-.06-.17-.15-.33-.24-.47-.04-.07-.08-.14-.13-.2-.15-.19-.33-.36-.55-.48l-2.97-1.72c.21.12.39.29.55.48.05.06.09.14.13.21.09.15.18.3.24.47.03.09.06.19.09.29.05.18.08.36.1.56.01.11.03.21.03.32,0,.23,0,.46-.03.7,0,.11,0,.21-.02.31,0,.04-.02.09-.02.13-.05.27-.1.56-.19.84,0,.02-.01.04-.02.06-.09.31-.2.62-.34.94,0,0,0,.01,0,.02-.14.33-.31.66-.49.98-.18.31-.38.61-.58.88-.02.02-.03.04-.05.06-.19.25-.38.48-.58.69-.04.04-.08.09-.12.13-.16.16-.32.3-.48.44-.08.06-.15.14-.22.2-.23.18-.47.35-.71.49-.23.13-.46.23-.68.32-.05.02-.09.03-.14.05-.21.07-.42.12-.62.15-.02,0-.04,0-.06,0-.22.02-.44.02-.65-.02,0,0,0,0,0,0-.22-.04-.42-.11-.61-.22l2.97,1.72s0,0,.01,0c.06.03.12.06.18.09.07.03.14.05.21.07.07.02.14.04.21.05,0,0,0,0,0,0,0,0,0,0,0,0,.08.01.15.02.23.03.08,0,.17,0,.26,0,.05,0,.1-.01.15-.02.02,0,.04,0,.06,0,.03,0,.05,0,.08,0,.11-.02.23-.04.35-.07.06-.02.13-.05.19-.07.05-.02.09-.03.14-.05.04-.02.08-.03.13-.04.18-.08.37-.17.55-.28.24-.14.47-.3.71-.49.08-.06.15-.13.23-.2.13-.11.26-.21.38-.34.03-.03.06-.07.1-.1.04-.04.08-.09.12-.13.07-.07.14-.14.2-.22.1-.12.21-.25.31-.38.02-.03.05-.06.07-.1.02-.02.03-.04.05-.06.05-.06.09-.12.14-.19.08-.11.15-.22.22-.33.07-.11.14-.22.2-.33,0-.01.01-.02.02-.04.06-.1.11-.2.16-.29.06-.11.11-.22.17-.33.05-.11.11-.22.15-.34,0,0,0-.01,0-.02,0,0,0-.01,0-.02.04-.1.09-.21.13-.31.05-.12.09-.24.13-.37.03-.09.05-.18.08-.26,0-.02.01-.04.02-.06,0-.02.02-.05.02-.07.04-.15.08-.3.11-.45.02-.11.04-.21.05-.32,0-.04.02-.09.02-.13,0-.03.01-.06.02-.09,0-.08,0-.14,0-.22.02-.24.03-.48.03-.7,0-.11-.02-.22-.03-.32-.02-.2-.06-.38-.1-.56Z"/>
          <path class="cls-25" d="m67.96,109.32l-2.97-1.72c.7.41,1.13,1.27,1.14,2.5,0,.29-.03.59-.07.89,0,.05-.02.09-.02.14-.05.28-.11.57-.2.85,0,.03-.02.05-.02.08-.09.31-.21.62-.34.92,0,0,0,0,0,.01-.14.31-.29.62-.46.91,0,0-.01.02-.02.03-.17.29-.35.57-.54.83-.02.02-.03.05-.05.07-.18.24-.37.47-.57.69-.04.05-.08.09-.13.14-.16.16-.32.31-.49.46-.08.07-.15.14-.23.2-.24.19-.48.36-.73.51-.25.14-.49.25-.72.33-.05.02-.09.03-.14.05-.22.07-.44.12-.64.14-.02,0-.04,0-.06,0-.22.02-.43,0-.63-.03-.01,0-.02,0-.03,0-.2-.04-.39-.11-.56-.21l2.97,1.72s.01,0,.02.01c.06.04.13.07.2.1.07.03.13.05.21.07.05.01.09.02.14.03.01,0,.02,0,.03,0,.02,0,.03,0,.05.01.08.01.15.02.23.03.08,0,.17,0,.26,0,.03,0,.06,0,.09,0,.02,0,.04,0,.06,0,.05,0,.1,0,.15-.01.11-.02.23-.04.34-.07.05-.01.1-.04.15-.05.05-.01.09-.03.14-.05.06-.02.11-.04.17-.06.18-.07.36-.17.55-.27.25-.14.49-.32.73-.51.08-.06.15-.13.23-.2.11-.1.23-.19.34-.3.05-.05.1-.11.15-.16.04-.04.09-.09.13-.14.05-.05.1-.1.15-.16.11-.12.21-.25.31-.38.04-.05.07-.1.11-.15.02-.02.04-.05.05-.07.03-.04.07-.09.1-.13.08-.11.15-.22.22-.34.07-.11.14-.22.2-.33,0-.01.01-.02.02-.03,0-.01.01-.02.02-.03.05-.09.1-.17.15-.26.06-.11.11-.22.17-.33.05-.1.1-.21.14-.31,0,0,0,0,0-.01h0c.05-.13.1-.24.14-.36.05-.12.09-.25.13-.37.02-.06.04-.13.06-.19,0-.03.02-.05.02-.08.01-.04.03-.09.04-.13.04-.15.08-.3.11-.45.02-.09.03-.18.05-.27,0-.05.02-.09.02-.14,0-.04.02-.09.02-.13.03-.26.05-.51.05-.76,0-1.23-.44-2.1-1.14-2.5Z"/>
          <path class="cls-18" d="m94.16,63.63l-2.97-1.72c.7.41,1.13,1.27,1.14,2.5,0,.29-.03.59-.07.89,0,.05-.02.09-.02.14-.05.28-.11.57-.2.85,0,.03-.02.05-.02.08-.09.31-.21.61-.34.92,0,0,0,.02-.01.02-.14.31-.29.61-.46.91,0,0,0,.02-.01.02-.17.29-.35.56-.54.83-.02.02-.04.05-.05.07-.18.24-.37.47-.57.68-.04.05-.09.09-.13.14-.16.16-.32.31-.49.46-.08.07-.15.14-.23.2-.24.19-.48.36-.73.51-.25.14-.49.25-.72.33-.05.02-.09.03-.14.05-.22.07-.44.12-.64.14-.02,0-.04,0-.06,0-.22.02-.43,0-.63-.03-.01,0-.02,0-.03,0-.2-.04-.39-.11-.56-.21l2.97,1.72s.01,0,.02.01c.06.04.13.07.2.1.07.03.14.05.21.07.05.01.09.02.14.03.01,0,.02,0,.03,0,.02,0,.03,0,.05.01.08.01.16.02.24.03.08,0,.17,0,.26,0,.03,0,.06,0,.09,0,.02,0,.04,0,.06,0,.05,0,.1,0,.15-.01.11-.02.23-.04.34-.07.05-.01.1-.04.15-.05.05-.01.09-.03.14-.05.06-.02.11-.04.17-.06.18-.07.36-.16.55-.27.25-.15.49-.32.73-.51.08-.06.15-.13.23-.2.12-.1.23-.19.35-.3.05-.05.1-.1.14-.15.04-.05.09-.09.13-.14.05-.05.1-.11.15-.16.11-.12.21-.25.32-.39.03-.04.07-.09.1-.13.02-.02.04-.05.05-.07.03-.05.07-.09.11-.14.08-.11.15-.22.23-.34.07-.11.14-.22.2-.33,0,0,0-.01.01-.02,0,0,0-.01.01-.02.05-.09.11-.19.16-.28.06-.11.11-.22.17-.33.05-.1.09-.2.13-.29,0,0,0-.01,0-.02,0,0,0-.02.01-.02.05-.12.1-.23.14-.35.05-.12.09-.24.13-.37.02-.06.04-.12.05-.18,0-.03.02-.05.02-.08.01-.05.03-.09.04-.14.04-.15.08-.3.11-.45.02-.09.03-.18.05-.27,0-.05.02-.09.02-.14,0-.04.02-.09.02-.13.03-.26.05-.51.05-.76,0-1.23-.44-2.09-1.14-2.5Z"/>
          <path class="cls-19" d="m50.2,112.81c-.03-.1-.05-.2-.09-.29-.06-.17-.15-.33-.24-.47-.04-.07-.08-.14-.13-.21-.15-.19-.33-.36-.55-.48l-2.97-1.72c.21.12.39.29.55.48.05.06.09.14.13.21.09.15.18.3.24.47.03.09.06.19.09.29.05.18.08.36.1.56.01.11.03.21.03.33,0,.23,0,.46-.03.7,0,.11,0,.21-.02.31,0,.04-.02.09-.02.13-.05.27-.1.56-.19.84,0,.02-.01.04-.02.06-.09.31-.2.62-.34.93,0,0,0,.01,0,.02-.14.33-.31.66-.49.98-.18.31-.38.61-.58.89-.02.02-.03.04-.05.06-.19.25-.38.48-.58.69-.04.04-.08.09-.12.13-.16.16-.32.3-.48.44-.08.07-.15.14-.23.2-.23.18-.47.35-.71.49-.23.13-.46.23-.68.32-.05.02-.09.03-.14.05-.21.07-.42.12-.62.15-.02,0-.04,0-.06,0-.22.02-.44.02-.65-.02,0,0,0,0,0,0-.21-.04-.42-.11-.61-.22l2.97,1.72s0,0,0,0c.06.04.13.07.2.1.07.03.13.05.2.07.07.02.13.03.2.05,0,0,0,0,0,0,0,0,0,0,0,0,.08.01.15.02.23.03.08,0,.17,0,.26,0,.05,0,.1,0,.15-.01.02,0,.04,0,.06,0,.03,0,.05,0,.08,0,.11-.02.23-.04.34-.07.06-.02.13-.04.19-.07.05-.02.09-.03.14-.05.04-.02.08-.03.13-.04.18-.08.37-.17.55-.27.24-.14.47-.3.71-.49.08-.06.15-.13.22-.2.13-.11.26-.21.38-.34.03-.03.06-.07.1-.1.04-.04.08-.08.12-.13.07-.07.14-.14.2-.22.1-.12.21-.25.31-.38.02-.03.05-.06.07-.1.02-.02.03-.04.05-.06.05-.06.09-.12.14-.19.08-.11.15-.22.22-.33.07-.11.14-.22.2-.33,0-.01.01-.02.02-.04.06-.1.11-.2.16-.29.06-.11.12-.22.17-.33.05-.11.11-.22.15-.34,0,0,0-.01,0-.02,0,0,0-.01,0-.02.04-.1.09-.2.13-.31.05-.12.09-.24.13-.37.03-.09.05-.17.08-.26,0-.02.01-.04.02-.06,0-.02.02-.05.02-.07.04-.15.08-.3.11-.45.02-.11.04-.21.05-.32,0-.04.02-.09.02-.13,0-.03.01-.06.02-.09,0-.08,0-.14,0-.22.02-.24.03-.48.03-.7,0-.11-.02-.22-.03-.33-.02-.2-.06-.38-.1-.56Z"/>
          <path class="cls-23" d="m80.78,56.24c.06.04.13.07.2.1.07.03.13.05.2.07.06.02.12.03.19.04,0,0,0,0,.01,0,0,0,0,0,.01,0,.08.01.15.02.23.03.08,0,.17,0,.25,0,.05,0,.09,0,.14-.01.02,0,.04,0,.06,0,.03,0,.06,0,.09,0,.11-.02.23-.04.34-.07.06-.02.13-.04.19-.06.05-.02.09-.03.14-.05.04-.02.09-.03.13-.04.18-.08.37-.17.55-.27.24-.14.47-.3.7-.48.08-.06.15-.13.22-.2.13-.11.25-.21.38-.33.03-.03.07-.07.1-.11.04-.04.08-.09.12-.13.07-.07.13-.14.2-.21.1-.12.21-.25.31-.38.03-.03.05-.07.08-.11.02-.02.03-.04.05-.07.04-.06.09-.11.13-.17.08-.11.15-.22.22-.33.07-.11.14-.22.2-.33,0-.02.02-.03.03-.05.06-.1.11-.19.16-.29.06-.11.12-.22.17-.34.05-.11.11-.22.15-.34,0,0,0-.01,0-.02,0,0,0-.01,0-.02.04-.1.09-.21.13-.31.05-.12.09-.24.13-.37.03-.09.05-.18.08-.26,0-.02.01-.04.02-.06,0-.02.02-.05.02-.07.04-.15.08-.3.11-.45.02-.11.04-.21.05-.32,0-.04.02-.09.02-.13,0-.03.01-.06.02-.09,0-.08,0-.14,0-.22.02-.24.03-.48.03-.7,0-.11-.02-.22-.03-.32-.02-.2-.06-.38-.1-.56-.03-.1-.05-.2-.09-.29-.06-.17-.15-.33-.24-.47-.04-.07-.08-.14-.13-.2-.15-.19-.33-.36-.55-.48l-2.97-1.72c.21.12.39.29.55.48.05.06.09.14.13.2.09.15.18.3.24.47.03.09.06.19.09.29.05.18.08.36.1.56.01.11.03.21.03.32,0,.23,0,.46-.03.7,0,.11,0,.21-.02.31,0,.04-.02.09-.02.13-.05.28-.11.56-.19.84,0,.02-.01.04-.02.06-.09.31-.2.62-.34.94,0,0,0,.01,0,.02-.14.33-.31.66-.49.98-.18.31-.38.61-.58.89-.02.02-.03.04-.05.07-.19.25-.38.48-.58.69-.04.04-.08.09-.12.13-.16.16-.32.3-.48.44-.07.06-.15.14-.22.2-.23.18-.47.35-.7.48-.23.13-.45.23-.68.32-.05.02-.09.03-.14.05-.21.07-.42.12-.62.15-.02,0-.04,0-.06,0-.22.02-.44.02-.64-.02,0,0,0,0-.01,0-.21-.04-.42-.11-.6-.22l2.97,1.72s.01,0,.02,0Z"/>
          <path class="cls-24" d="m40.87,101.49c.08-.11.15-.22.23-.34.07-.11.14-.22.2-.33,0,0,.01-.02.02-.03,0,0,0-.02.01-.02.05-.09.1-.18.15-.28.06-.11.11-.22.17-.33.05-.1.09-.2.14-.3,0,0,0-.01,0-.02,0,0,0-.01,0-.02.05-.12.1-.23.14-.35.05-.12.09-.25.13-.37.02-.06.04-.12.06-.18,0-.03.02-.05.02-.08.01-.04.03-.09.04-.13.04-.15.08-.3.11-.45.02-.09.03-.18.05-.27,0-.05.02-.09.02-.14,0-.04.02-.09.02-.13.03-.26.05-.51.05-.76,0-1.23-.44-2.09-1.14-2.5l-2.97-1.72c.7.41,1.13,1.27,1.14,2.5,0,.29-.03.59-.07.89,0,.05-.02.09-.02.14-.05.28-.11.57-.2.85,0,.03-.02.05-.02.08-.09.31-.21.62-.34.92,0,0,0,.01,0,.02-.14.31-.29.61-.46.91,0,0,0,.02-.01.03-.17.29-.35.57-.54.83-.02.02-.04.05-.05.07-.18.24-.37.47-.57.68-.04.05-.09.09-.13.14-.16.16-.32.31-.49.46-.08.07-.15.14-.23.2-.24.19-.48.36-.73.51-.25.14-.49.25-.72.33-.05.02-.09.03-.14.05-.22.07-.44.12-.64.14-.02,0-.04,0-.06,0-.22.02-.43,0-.63-.03-.01,0-.02,0-.03,0-.2-.04-.39-.11-.56-.21l2.97,1.72s.01,0,.02.01c.06.04.13.07.2.1.07.03.14.05.21.07.05.01.09.02.14.03.01,0,.02,0,.03,0,.02,0,.03,0,.05.01.08.01.16.02.24.03.08,0,.17,0,.26,0,.03,0,.06,0,.09,0,.02,0,.04,0,.06,0,.05,0,.1,0,.15-.01.11-.02.23-.04.34-.07.05-.01.1-.04.15-.05.05-.01.09-.03.14-.05.06-.02.12-.04.17-.06.18-.07.36-.16.54-.27.25-.14.49-.32.73-.51.08-.06.15-.13.23-.2.11-.1.23-.19.34-.3.05-.05.1-.11.15-.16.04-.05.09-.09.13-.14.05-.05.1-.1.15-.16.11-.12.21-.25.32-.39.04-.05.07-.1.11-.14.02-.02.04-.05.05-.07.03-.05.07-.09.1-.14Z"/>
          <path class="cls-20" d="m62.02,58.27c.06.04.13.07.2.1.07.03.13.05.21.07.05.01.09.02.14.03.01,0,.02,0,.03,0,.02,0,.03,0,.05.01.08.01.15.02.23.03.08,0,.17,0,.26,0,.03,0,.06,0,.09,0,.02,0,.04,0,.06,0,.05,0,.1,0,.15-.01.11-.02.23-.04.34-.07.05-.01.1-.04.15-.05.05-.01.09-.03.14-.05.06-.02.11-.04.17-.06.18-.07.36-.17.55-.27.25-.14.49-.32.73-.51.08-.06.15-.13.22-.2.11-.1.23-.19.34-.3.05-.05.1-.11.15-.16.04-.05.09-.09.13-.14.05-.05.1-.1.15-.15.11-.12.21-.25.32-.38.04-.05.07-.1.11-.15.02-.02.04-.05.05-.07.03-.04.07-.09.1-.13.08-.11.15-.22.22-.34.07-.11.14-.22.2-.33,0-.01.01-.02.02-.03,0-.01.01-.02.02-.03.05-.09.1-.17.15-.26.06-.11.11-.22.17-.33.05-.1.1-.21.14-.31,0,0,0,0,0-.01,0,0,0,0,0-.01.05-.12.1-.23.14-.35.05-.12.09-.25.13-.37.02-.06.04-.13.06-.19,0-.03.02-.05.02-.08.01-.04.03-.09.04-.13.04-.15.08-.3.11-.45.02-.09.03-.18.05-.27,0-.05.02-.09.02-.14,0-.04.02-.09.02-.13.03-.26.05-.51.05-.76,0-1.23-.44-2.09-1.13-2.5l-2.97-1.72c.7.41,1.13,1.27,1.13,2.5,0,.29-.03.59-.07.89,0,.05-.02.09-.02.14-.05.28-.11.57-.2.85,0,.03-.02.05-.02.08-.09.31-.21.62-.34.92,0,0,0,0,0,.01-.14.31-.29.62-.46.91,0,0-.01.02-.02.03-.17.29-.35.57-.54.83-.02.02-.03.05-.05.07-.18.24-.37.47-.57.69-.04.05-.08.09-.13.14-.16.16-.32.31-.49.46-.08.07-.15.14-.23.2-.24.19-.48.36-.73.51-.25.14-.49.25-.72.33-.05.02-.09.03-.14.05-.22.07-.43.12-.64.14-.02,0-.04,0-.06,0-.22.02-.43,0-.63-.03-.01,0-.02,0-.03,0-.2-.04-.39-.11-.56-.21l2.97,1.72s.01,0,.02.01Z"/>
          <path class="cls-21" d="m43.4,78.04c.06.04.13.07.2.1.07.03.14.05.21.07.06.02.13.03.19.04,0,0,0,0,.01,0s0,0,.01,0c.08.01.15.02.23.03.08,0,.17,0,.26,0,.05,0,.1,0,.14-.01.02,0,.04,0,.06,0,.03,0,.06,0,.09,0,.11-.02.23-.04.34-.07.06-.02.13-.04.19-.06.05-.02.09-.03.14-.05.04-.02.09-.03.13-.04.18-.08.37-.17.55-.27.24-.14.47-.3.71-.49.08-.06.15-.13.22-.2.13-.11.26-.21.38-.33.03-.03.07-.07.1-.11.04-.04.08-.09.12-.13.07-.07.13-.14.2-.21.11-.12.21-.25.31-.38.03-.03.05-.07.08-.1.02-.02.03-.04.05-.06.04-.06.09-.12.13-.18.08-.11.15-.22.23-.34.07-.11.14-.22.2-.33,0-.01.01-.03.02-.04.05-.09.11-.19.16-.28.06-.11.11-.22.17-.33.05-.11.11-.22.15-.34,0-.01,0-.02.01-.03,0,0,0-.02.01-.03.04-.1.08-.19.12-.29.05-.12.09-.24.13-.37.03-.09.06-.18.08-.27,0-.02.01-.04.02-.06,0-.02.01-.04.02-.06.04-.15.08-.3.11-.45.02-.11.04-.22.06-.33,0-.04.02-.09.02-.13,0-.03.01-.06.02-.09,0-.08,0-.14,0-.22.02-.24.03-.48.03-.71,0-.11-.02-.22-.03-.32-.02-.2-.06-.38-.1-.56-.03-.1-.05-.2-.09-.29-.06-.17-.15-.33-.24-.47-.04-.07-.08-.14-.13-.21-.15-.19-.33-.36-.54-.49l-2.97-1.72c.21.12.39.29.54.49.05.06.08.14.13.21.09.15.18.3.24.47.03.09.06.19.09.29.05.18.08.37.1.56.01.11.03.21.03.32,0,.23,0,.47-.03.71,0,.1,0,.2-.02.31,0,.04-.02.09-.02.13-.04.28-.1.56-.19.84,0,.02-.01.04-.02.06-.09.31-.2.62-.33.93,0,0,0,.02-.01.03-.14.33-.3.65-.49.98-.18.32-.38.61-.58.89-.02.02-.03.04-.05.07-.19.25-.38.48-.59.69-.04.04-.08.09-.12.13-.16.16-.32.3-.48.44-.07.06-.15.14-.22.2-.23.18-.47.35-.71.49-.23.13-.45.23-.68.32-.05.02-.09.03-.14.05-.21.07-.42.12-.62.15-.02,0-.04,0-.06,0-.22.02-.44.02-.64-.02,0,0,0,0-.01,0-.21-.04-.42-.11-.61-.22l2.97,1.72s0,0,0,0Z"/>
          <path class="cls-39" d="m29.37,104.04c.07-1,.17-2.01.3-3.03.04-.28.08-.57.12-.85.07-.47.14-.95.21-1.42.05-.32.11-.64.17-.96.08-.46.17-.92.27-1.38.05-.26.11-.52.17-.77.26-1.18.54-2.35.87-3.53.05-.2.11-.39.17-.59.29-1.02.59-2.03.93-3.05.03-.08.05-.15.07-.23.33-.98.68-1.96,1.06-2.94.09-.24.19-.49.28-.73.32-.83.66-1.66,1.02-2.48.05-.12.1-.25.16-.37.4-.91.81-1.81,1.24-2.71.11-.24.23-.47.35-.71.35-.71.71-1.42,1.08-2.13.11-.22.22-.43.34-.65.47-.88.96-1.76,1.46-2.63.1-.17.2-.33.29-.49.44-.75.9-1.5,1.37-2.24.14-.22.27-.43.41-.65.58-.9,1.17-1.79,1.79-2.67.09-.13.19-.26.28-.4.64-.9,1.29-1.79,1.96-2.66.09-.12.17-.23.26-.35.84-1.08,1.71-2.14,2.6-3.17.12-.13.23-.27.35-.4.55-.63,1.11-1.25,1.68-1.85.03-.03.05-.06.08-.08.59-.63,1.2-1.25,1.81-1.85.13-.13.26-.25.38-.37.79-.78,1.6-1.53,2.42-2.25.07-.06.14-.13.22-.19.85-.74,1.71-1.45,2.58-2.13.17-.13.33-.26.5-.39.86-.66,1.72-1.29,2.6-1.89.16-.11.31-.21.47-.31.92-.61,1.84-1.2,2.78-1.74.75-.43,1.5-.83,2.24-1.2.21-.11.43-.21.64-.31.57-.27,1.13-.53,1.68-.77.2-.08.4-.17.59-.25.53-.22,1.05-.41,1.57-.6.13-.05.26-.1.38-.14.64-.22,1.28-.41,1.91-.59.37-.1.73-.19,1.1-.27.17-.04.35-.09.52-.13.54-.12,1.07-.22,1.6-.3.8-.12,1.59-.19,2.36-.24.16,0,.31-.02.47-.03.69-.02,1.38-.02,2.05.02.12,0,.23.02.35.03.54.04,1.07.1,1.59.19.16.03.33.05.49.08.6.11,1.19.24,1.76.41.03,0,.05.02.08.03.54.16,1.07.35,1.59.56.15.06.3.13.45.19.44.19.88.41,1.3.64.14.08.29.14.42.22l-2.97-1.72c-.06-.04-.13-.07-.19-.11-.07-.04-.16-.07-.23-.11-.42-.23-.86-.44-1.3-.64-.08-.04-.16-.08-.24-.12-.07-.03-.14-.05-.21-.07-.52-.21-1.05-.4-1.59-.56-.02,0-.04-.02-.07-.02,0,0,0,0-.01,0-.57-.17-1.16-.3-1.76-.41-.07-.01-.14-.04-.21-.05-.09-.02-.19-.02-.28-.03-.52-.08-1.05-.15-1.59-.19-.09,0-.17-.02-.26-.03-.03,0-.06,0-.09,0-.67-.04-1.35-.04-2.05-.02-.07,0-.13,0-.2,0-.09,0-.18.02-.27.03-.77.04-1.56.11-2.36.24,0,0,0,0,0,0-.52.08-1.05.18-1.59.3-.17.04-.35.09-.52.13-.33.08-.66.15-1,.24-.03,0-.07.02-.1.03-.63.17-1.26.37-1.9.59-.13.04-.26.1-.38.14-.52.18-1.04.38-1.56.6-.07.03-.14.05-.21.08-.13.05-.26.12-.38.18-.56.24-1.12.5-1.68.77-.21.1-.42.2-.64.31-.74.37-1.49.77-2.24,1.2-.94.54-1.86,1.13-2.78,1.74-.16.1-.31.21-.47.31-.88.6-1.74,1.23-2.6,1.89-.17.13-.33.26-.5.39-.87.68-1.73,1.39-2.58,2.13-.07.06-.14.13-.21.19-.82.73-1.63,1.48-2.42,2.26-.08.08-.16.15-.24.22-.05.05-.1.1-.14.15-.61.6-1.21,1.22-1.8,1.85-.03.03-.06.06-.09.1-.56.6-1.12,1.22-1.66,1.84-.05.06-.11.11-.16.17-.07.08-.13.16-.19.23-.89,1.03-1.76,2.08-2.6,3.16-.02.03-.05.06-.07.09-.06.08-.12.17-.19.26-.67.87-1.33,1.76-1.97,2.67-.06.09-.13.17-.2.26-.03.04-.06.09-.09.13-.61.88-1.21,1.77-1.79,2.67-.06.09-.12.17-.17.25-.08.13-.16.26-.24.39-.47.74-.92,1.49-1.37,2.24-.07.12-.15.23-.22.35-.03.05-.05.09-.08.14-.5.87-.99,1.74-1.46,2.63-.04.07-.08.14-.12.21-.08.14-.14.29-.22.44-.37.71-.73,1.42-1.08,2.13-.07.15-.15.29-.22.44-.04.09-.08.18-.12.27-.43.9-.85,1.81-1.24,2.72-.01.03-.03.05-.04.08-.04.1-.08.19-.12.29-.35.82-.69,1.65-1.01,2.48-.05.13-.11.27-.16.4-.04.11-.08.23-.12.34-.37.98-.73,1.96-1.05,2.94,0,.02-.01.04-.02.05-.02.06-.03.11-.05.17-.34,1.01-.64,2.03-.93,3.04-.04.13-.08.26-.12.38-.02.07-.03.14-.05.21-.32,1.18-.61,2.36-.87,3.53-.02.1-.05.21-.08.31-.03.15-.06.31-.09.46-.09.46-.18.92-.27,1.38-.06.32-.12.64-.17.96-.08.48-.15.95-.21,1.42-.03.22-.07.45-.1.67,0,.06,0,.12-.02.18-.13,1.02-.23,2.03-.3,3.03-.02.21-.03.43-.04.64-.06,1.03-.1,2.06-.1,3.07.03,11.13,3.96,18.96,10.3,22.65l2.97,1.72c-6.34-3.68-10.27-11.52-10.3-22.65,0-1.01.04-2.04.1-3.07.01-.21.02-.43.04-.64Z"/>
          <g>
            <path class="cls-7" d="m64.43,46.78c19.5-11.26,35.36-2.22,35.43,20.2.06,22.41-15.7,49.7-35.2,60.96-19.5,11.26-35.36,2.22-35.43-20.19s15.7-49.71,35.2-60.97Zm16.5,29.02c-.03-10.13-7.12-14.27-15.84-9.23-8.72,5.03-15.76,17.34-15.73,27.47.03,10.14,7.12,14.27,15.84,9.24,8.72-5.04,15.77-17.33,15.74-27.47m-37.55-4.09c-1.52,2.63-1.51,5.46.02,6.33.76.44,1.76.3,2.76-.28,1-.58,1.99-1.59,2.75-2.9,1.51-2.62,1.5-5.45-.02-6.33-.76-.44-1.76-.3-2.76.28s-1.99,1.59-2.75,2.9m37.37-21.8c-1.52,2.63-1.51,5.46.02,6.33.76.44,1.76.3,2.75-.28s1.99-1.59,2.75-2.9c1.52-2.63,1.51-5.46-.02-6.33-.76-.44-1.76-.3-2.75.28-1,.58-1.99,1.59-2.75,2.9m-31.53,67.79c1.52-2.63,1.51-5.46-.02-6.33-.76-.44-1.76-.3-2.75.28s-1.99,1.59-2.75,2.9c-1.52,2.63-1.51,5.46.02,6.33.76.43,1.76.29,2.75-.28,1-.58,1.99-1.59,2.75-2.89m37.37-21.8c1.52-2.63,1.51-5.46-.02-6.33-.76-.44-1.76-.3-2.75.28s-2,1.59-2.75,2.9c-1.51,2.62-1.5,5.45.02,6.33.76.43,1.76.29,2.76-.29s1.99-1.59,2.75-2.89m-48.02,7.8c2.15-1.24,3.89-4.26,3.88-6.73,0-2.47-1.76-3.47-3.91-2.23-2.15,1.24-3.89,4.26-3.88,6.73,0,2.47,1.76,3.47,3.91,2.23m52.85-30.84c2.15-1.24,3.89-4.25,3.88-6.72,0-2.47-1.76-3.47-3.91-2.23-2.15,1.24-3.89,4.26-3.88,6.73,0,2.47,1.76,3.46,3.91,2.22m-26.2,45.7c2.15-1.24,3.88-4.25,3.87-6.72,0-2.47-1.75-3.47-3.9-2.23s-3.89,4.26-3.88,6.73c0,2.47,1.75,3.47,3.91,2.23m-.48-69.51c-2.16,1.25-3.89,4.25-3.88,6.72,0,2.47,1.75,3.47,3.91,2.23,2.15-1.24,3.88-4.25,3.87-6.72,0-2.47-1.75-3.46-3.9-2.22"/>
            <path class="cls-40" d="m64.43,46.78c19.5-11.26,35.36-2.22,35.43,20.2.06,22.41-15.7,49.7-35.2,60.96-19.5,11.26-35.36,2.22-35.43-20.19s15.7-49.71,35.2-60.97Zm16.5,29.02c-.03-10.13-7.12-14.27-15.84-9.23-8.72,5.03-15.76,17.34-15.73,27.47.03,10.14,7.12,14.27,15.84,9.24,8.72-5.04,15.77-17.33,15.74-27.47m-37.55-4.09c-1.52,2.63-1.51,5.46.02,6.33.76.44,1.76.3,2.76-.28,1-.58,1.99-1.59,2.75-2.9,1.51-2.62,1.5-5.45-.02-6.33-.76-.44-1.76-.3-2.76.28s-1.99,1.59-2.75,2.9m37.37-21.8c-1.52,2.63-1.51,5.46.02,6.33.76.44,1.76.3,2.75-.28s1.99-1.59,2.75-2.9c1.52-2.63,1.51-5.46-.02-6.33-.76-.44-1.76-.3-2.75.28-1,.58-1.99,1.59-2.75,2.9m-31.53,67.79c1.52-2.63,1.51-5.46-.02-6.33-.76-.44-1.76-.3-2.75.28s-1.99,1.59-2.75,2.9c-1.52,2.63-1.51,5.46.02,6.33.76.43,1.76.29,2.75-.28,1-.58,1.99-1.59,2.75-2.89m37.37-21.8c1.52-2.63,1.51-5.46-.02-6.33-.76-.44-1.76-.3-2.75.28s-2,1.59-2.75,2.9c-1.51,2.62-1.5,5.45.02,6.33.76.43,1.76.29,2.76-.29s1.99-1.59,2.75-2.89m-48.02,7.8c2.15-1.24,3.89-4.26,3.88-6.73,0-2.47-1.76-3.47-3.91-2.23-2.15,1.24-3.89,4.26-3.88,6.73,0,2.47,1.76,3.47,3.91,2.23m52.85-30.84c2.15-1.24,3.89-4.25,3.88-6.72,0-2.47-1.76-3.47-3.91-2.23-2.15,1.24-3.89,4.26-3.88,6.73,0,2.47,1.76,3.46,3.91,2.22m-26.2,45.7c2.15-1.24,3.88-4.25,3.87-6.72,0-2.47-1.75-3.47-3.9-2.23s-3.89,4.26-3.88,6.73c0,2.47,1.75,3.47,3.91,2.23m-.48-69.51c-2.16,1.25-3.89,4.25-3.88,6.72,0,2.47,1.75,3.47,3.91,2.23,2.15-1.24,3.88-4.25,3.87-6.72,0-2.47-1.75-3.46-3.9-2.22"/>
          </g>
        </g>
        <g class="cls-81">
          <path class="cls-16" d="m112.06,94.38c.03-.27.05-.53.08-.8.02-.19.04-.37.05-.56.04-.58.07-1.16.07-1.73-.01-4.96-1.76-8.44-4.56-10.07l-29.67-17.24c2.8,1.63,4.55,5.12,4.56,10.07,0,.57-.03,1.15-.07,1.73-.01.19-.04.37-.05.56-.04.37-.08.75-.13,1.12-.06.43-.14.86-.22,1.29-.05.27-.1.54-.16.81-.06.27-.13.54-.2.8-.09.37-.18.73-.29,1.1-.06.21-.13.43-.2.64-.13.41-.26.82-.41,1.23-.06.18-.13.36-.19.54-.21.56-.43,1.13-.67,1.69,0,0,0,.02-.01.03-.25.57-.51,1.13-.79,1.69-.08.15-.15.3-.23.45-.23.45-.47.89-.71,1.32-.07.12-.13.24-.2.36-.31.54-.64,1.07-.97,1.59-.08.13-.17.25-.25.38-.26.4-.53.79-.81,1.17-.14.19-.28.38-.42.57-.23.31-.47.61-.71.91-.19.24-.39.48-.59.72-.2.24-.41.47-.61.7-.33.37-.66.72-1,1.07-.21.22-.43.44-.65.65-.17.16-.34.32-.51.47-.29.26-.58.52-.88.77-.17.15-.35.29-.52.43-.32.25-.64.5-.97.73-.16.11-.31.23-.47.34-.48.33-.97.65-1.47.93-.47.27-.94.51-1.4.73-.12.06-.24.11-.36.16-.26.11-.51.21-.76.3-.36.14-.72.27-1.08.37-.23.07-.46.14-.69.19-.21.05-.42.09-.62.13-.28.05-.55.09-.82.12-.15.02-.31.04-.46.05-.34.02-.68.03-1,.02-.07,0-.14,0-.21,0-.39-.02-.77-.07-1.13-.14-.09-.02-.18-.04-.28-.06-.29-.07-.57-.15-.84-.24-.09-.03-.18-.06-.26-.09-.35-.14-.69-.29-1.01-.48l29.67,17.24s.06.03.08.05c.25.14.51.27.78.38.05.02.1.03.15.05.09.03.17.06.26.09.14.05.27.1.41.14.14.04.29.07.43.1.09.02.18.05.28.06.05.01.1.03.15.04.3.05.61.09.93.11.02,0,.03,0,.05,0,.07,0,.14,0,.21,0,.25,0,.5.02.76,0,.08,0,.16-.02.24-.02.15-.01.3-.03.46-.05.15-.02.29-.02.44-.04.12-.02.25-.06.37-.08.21-.04.41-.08.62-.13.12-.03.23-.04.35-.07.11-.03.23-.08.34-.12.35-.11.71-.23,1.08-.37.13-.05.25-.08.39-.13.12-.05.25-.11.37-.17.12-.05.24-.11.36-.16.46-.22.93-.45,1.4-.73.5-.29.98-.6,1.47-.93.16-.11.31-.23.46-.34.33-.24.65-.48.97-.73.18-.14.35-.29.52-.43.3-.25.59-.51.88-.77.17-.16.34-.31.51-.47.1-.1.2-.18.3-.28.12-.12.23-.25.35-.37.34-.35.68-.7,1-1.07.1-.12.21-.22.32-.34.1-.12.2-.24.29-.36.2-.24.4-.48.59-.72.12-.15.24-.29.36-.44.12-.15.23-.32.35-.47.14-.19.28-.38.42-.57.08-.12.17-.23.25-.34.19-.27.37-.55.55-.83.08-.13.17-.25.25-.38.03-.04.06-.08.09-.13.27-.43.54-.87.8-1.31.03-.05.06-.1.09-.16.07-.12.13-.24.2-.36.15-.26.3-.52.44-.79.09-.18.18-.36.27-.53.08-.15.16-.31.23-.46.05-.11.11-.22.17-.33.22-.45.42-.9.62-1.35,0,0,0,0,0,0,0,0,0-.02.01-.03.2-.45.38-.91.56-1.37.04-.11.07-.21.11-.32.07-.18.13-.36.2-.54.07-.2.15-.41.22-.61.07-.2.12-.41.19-.61.07-.21.13-.43.2-.64.03-.12.07-.23.11-.35.07-.25.12-.5.19-.76.07-.27.14-.53.2-.8.02-.08.04-.16.06-.24.04-.19.06-.38.1-.57.08-.43.16-.86.22-1.29.02-.11.04-.22.06-.33Z"/>
          <path class="cls-45" d="m78.65,108.06c.04-.44.1-.89.16-1.33.07-.51.17-1.02.26-1.53.06-.32.12-.65.19-.97.07-.32.15-.64.23-.96.11-.44.22-.88.35-1.31.07-.26.15-.51.23-.77.15-.49.31-.97.48-1.45.08-.22.15-.43.23-.65.25-.67.51-1.33.8-1.99,0-.02.01-.03.02-.05.29-.68.61-1.34.94-2.01.09-.18.18-.37.28-.55.27-.53.55-1.05.84-1.57.08-.15.16-.29.24-.44.37-.64.75-1.27,1.15-1.89.1-.15.2-.3.31-.46.31-.47.63-.93.96-1.39.17-.23.34-.46.51-.69.27-.37.56-.73.84-1.08.23-.29.47-.58.71-.86.24-.28.48-.55.72-.83.39-.44.79-.86,1.2-1.27.25-.26.51-.52.77-.77.2-.19.4-.38.6-.56.34-.31.69-.62,1.04-.92.21-.17.41-.35.62-.51.38-.3.76-.59,1.15-.87.18-.13.36-.27.55-.4.57-.39,1.15-.77,1.74-1.11.56-.33,1.12-.61,1.67-.87.14-.07.28-.13.43-.19.53-.24,1.06-.45,1.57-.63.04-.01.07-.02.11-.03.45-.15.88-.26,1.31-.37.25-.06.5-.11.74-.16.33-.06.65-.11.97-.15.18-.02.36-.04.54-.05.41-.03.8-.04,1.19-.02.08,0,.16,0,.24,0,.46.03.91.09,1.35.17.11.02.22.05.33.08.34.08.68.18,1,.29.1.04.21.07.31.11.41.16.82.35,1.2.57l-29.67-17.24s-.07-.04-.1-.06c-.3-.17-.61-.32-.93-.45-.06-.02-.12-.04-.18-.06-.1-.04-.2-.07-.31-.11-.16-.06-.32-.12-.49-.17-.17-.05-.34-.08-.52-.12-.11-.03-.22-.05-.33-.08-.06-.01-.12-.03-.18-.04-.36-.06-.73-.11-1.1-.13-.02,0-.04,0-.06,0-.08,0-.16,0-.24,0-.3-.01-.6-.02-.9,0-.09,0-.19.02-.29.03-.18.01-.36.03-.54.05-.18.02-.35.03-.52.05-.15.02-.3.07-.45.1-.25.05-.49.1-.74.16-.14.03-.27.05-.41.09-.3.08-.6.18-.9.28-.04.01-.07.02-.11.03-.37.13-.75.27-1.13.43-.15.06-.3.14-.44.2-.14.06-.28.13-.43.19-.55.26-1.11.54-1.67.87-.59.34-1.17.71-1.74,1.11-.18.13-.37.27-.55.4-.39.28-.77.57-1.15.87-.21.17-.41.34-.62.51-.35.3-.7.6-1.04.92-.2.19-.4.37-.6.56-.12.11-.24.22-.35.33-.14.14-.27.3-.41.44-.41.41-.8.84-1.2,1.27-.12.14-.25.26-.37.4-.12.14-.23.29-.35.43-.24.28-.47.57-.71.86-.14.17-.29.34-.42.51-.14.18-.28.38-.42.57-.17.23-.34.45-.5.68-.1.14-.2.27-.3.41-.23.32-.44.66-.66.99-.1.15-.21.3-.3.45-.03.05-.07.1-.1.15-.33.51-.64,1.03-.95,1.56-.04.06-.07.13-.1.19-.08.14-.16.29-.24.44-.17.31-.35.62-.52.93-.11.21-.21.43-.32.64-.09.18-.19.36-.28.54-.06.13-.14.26-.2.39-.26.53-.5,1.07-.74,1.61,0,0,0,0,0,0,0,.02-.01.03-.02.05-.23.54-.45,1.07-.66,1.61-.05.13-.09.25-.14.38-.08.22-.16.43-.23.65-.09.24-.18.49-.26.73-.08.24-.15.48-.22.72-.08.26-.16.51-.23.77-.04.14-.09.28-.13.41-.08.3-.15.6-.22.9-.08.32-.16.64-.23.96-.02.1-.05.19-.07.29-.05.23-.07.45-.12.68-.1.51-.19,1.03-.26,1.54-.02.13-.05.26-.07.39-.04.32-.06.63-.09.95-.02.22-.05.44-.06.66-.05.69-.08,1.38-.08,2.06.02,5.89,2.09,10.03,5.42,11.97l29.67,17.24c-3.33-1.94-5.41-6.08-5.42-11.97,0-.68.03-1.36.08-2.06.02-.22.04-.44.07-.66Z"/>
          <path class="cls-6" d="m96.78,78.88c10.13-5.85,18.36-1.04,18.4,10.73.03,11.76-8.14,26.04-18.28,31.89-10.12,5.84-18.36,1.04-18.4-10.72-.03-11.78,8.15-26.06,18.28-31.9Zm.11,39.23c8.52-4.92,15.39-16.92,15.37-26.81-.03-9.9-6.95-13.94-15.47-9.02-8.51,4.91-15.39,16.92-15.37,26.82.03,9.89,6.96,13.92,15.47,9.01"/>
        </g>
        <g class="cls-81">
          <g class="cls-81">
            <g class="cls-74">
              <g class="cls-81">
                <path class="cls-54" d="m99.64,123.9l-2.97-1.72c2.23-1.29,4.37-2.97,6.36-4.93l2.97,1.72c-1.99,1.96-4.13,3.64-6.36,4.93"/>
                <path class="cls-56" d="m106.01,118.97l-2.97-1.72c.71-.7,1.41-1.44,2.08-2.22l2.97,1.72c-.67.77-1.37,1.51-2.08,2.22"/>
                <path class="cls-58" d="m108.09,116.75l-2.97-1.72c.53-.61,1.04-1.24,1.54-1.88l2.97,1.72c-.5.64-1.02,1.27-1.54,1.88"/>
                <path class="cls-59" d="m109.63,114.87l-2.97-1.72c.43-.56.86-1.13,1.27-1.72l2.97,1.72c-.41.58-.83,1.16-1.27,1.72"/>
                <path class="cls-66" d="m110.9,113.16l-2.97-1.72c.38-.54.75-1.09,1.1-1.64l2.97,1.72c-.36.56-.72,1.11-1.1,1.64"/>
                <path class="cls-67" d="m112,111.51l-2.97-1.72c.34-.53.67-1.07.98-1.61l2.97,1.72c-.32.54-.64,1.08-.98,1.61"/>
                <path class="cls-65" d="m112.98,109.9l-2.97-1.72c.31-.53.61-1.06.89-1.6l2.97,1.72c-.29.54-.58,1.07-.89,1.6"/>
                <path class="cls-53" d="m113.87,108.3l-2.97-1.72c.28-.53.56-1.07.82-1.62l2.97,1.72c-.26.54-.54,1.08-.82,1.62"/>
                <path class="cls-57" d="m114.69,106.68l-2.97-1.72c.26-.55.52-1.1.76-1.65l2.97,1.72c-.24.55-.49,1.1-.76,1.65"/>
                <path class="cls-48" d="m115.45,105.03l-2.97-1.72c.25-.57.48-1.14.7-1.71l2.97,1.72c-.22.57-.45,1.14-.7,1.71"/>
                <path class="cls-49" d="m116.15,103.32l-2.97-1.72c.23-.6.44-1.2.64-1.8l2.97,1.72c-.2.6-.41,1.2-.64,1.8"/>
                <path class="cls-51" d="m116.79,101.53l-2.97-1.72c.22-.65.41-1.29.59-1.94l2.97,1.72c-.18.65-.38,1.29-.59,1.94"/>
                <path class="cls-52" d="m117.38,99.59l-2.97-1.72c.2-.73.38-1.46.54-2.18l2.97,1.72c-.15.73-.33,1.46-.54,2.18"/>
                <path class="cls-55" d="m117.92,97.4l-2.97-1.72c.19-.88.34-1.77.45-2.64l2.97,1.72c-.11.87-.27,1.76-.45,2.64"/>
                <path class="cls-61" d="m118.37,94.76l-2.97-1.72c.16-1.26.25-2.51.24-3.73-.02-6-2.13-10.23-5.55-12.21l2.97,1.72c3.42,1.99,5.53,6.21,5.55,12.21,0,1.22-.08,2.47-.24,3.73"/>
              </g>
            </g>
          </g>
          <g class="cls-81">
            <g class="cls-79">
              <g class="cls-81">
                <path class="cls-48" d="m86.1,125.23l-2.97-1.72s.07.04.1.06l2.97,1.72s-.07-.04-.1-.06"/>
                <path class="cls-57" d="m86.2,125.29l-2.97-1.72c.31.17.63.33.96.47l2.97,1.72c-.33-.14-.65-.29-.96-.47"/>
                <path class="cls-53" d="m87.16,125.75l-2.97-1.72c.33.14.66.25,1,.35l2.97,1.72c-.34-.1-.68-.22-1-.35"/>
                <path class="cls-65" d="m88.16,126.11l-2.97-1.72c.35.1.7.18,1.07.25l2.97,1.72c-.36-.06-.72-.15-1.07-.25"/>
                <path class="cls-67" d="m89.23,126.35l-2.97-1.72c.37.06.76.11,1.15.13l2.97,1.72c-.39-.02-.78-.07-1.15-.13"/>
                <path class="cls-66" d="m90.38,126.49l-2.97-1.72c.41.03.83.03,1.26.01l2.97,1.72c-.43.02-.85.02-1.26-.01"/>
                <path class="cls-59" d="m91.64,126.5l-2.97-1.72c.46-.02.94-.07,1.42-.14l2.97,1.72c-.48.07-.96.12-1.42.14"/>
                <path class="cls-58" d="m93.06,126.36l-2.97-1.72c.55-.08,1.11-.2,1.68-.36l2.97,1.72c-.57.15-1.13.27-1.68.36"/>
                <path class="cls-56" d="m94.73,126l-2.97-1.72c.73-.2,1.48-.46,2.24-.77l2.97,1.72c-.76.32-1.51.57-2.24.77"/>
                <path class="cls-54" d="m96.98,125.23l-2.97-1.72c.87-.36,1.76-.8,2.67-1.33l2.97,1.72c-.91.52-1.8.96-2.67,1.33"/>
              </g>
            </g>
          </g>
          <path class="cls-10" d="m115.11,96.03c.04-.27.05-.55.08-.82.02-.19.04-.38.06-.57.04-.6.07-1.19.07-1.77-.01-5.07-1.8-8.64-4.67-10.31l-2.97-1.72c2.87,1.67,4.66,5.24,4.67,10.31,0,.58-.03,1.18-.07,1.77-.01.19-.04.38-.06.57-.04.38-.08.77-.14,1.15-.06.44-.14.88-.23,1.32-.05.28-.1.55-.16.83-.06.27-.13.55-.2.82-.09.38-.19.75-.3,1.13-.06.22-.13.44-.2.66-.13.42-.27.84-.42,1.25-.07.19-.13.37-.2.55-.21.57-.44,1.15-.68,1.71,0,.01-.01.03-.02.04-.25.58-.53,1.16-.81,1.73-.08.16-.16.31-.24.47-.23.46-.48.91-.73,1.36-.07.12-.14.25-.21.37-.32.55-.65,1.1-.99,1.63-.08.13-.17.26-.26.39-.27.41-.54.81-.83,1.2-.14.2-.29.39-.43.59-.24.32-.48.62-.72.93-.2.25-.4.5-.61.74-.21.24-.41.48-.63.71-.34.38-.68.74-1.03,1.1-.22.22-.44.45-.66.67-.17.16-.35.33-.52.49-.3.27-.6.53-.9.79-.18.15-.35.3-.53.44-.33.26-.66.51-1,.75-.16.11-.31.23-.47.34-.49.34-.99.66-1.5.96-.49.28-.96.52-1.44.75-.12.06-.24.11-.36.17-.26.12-.52.21-.78.31-.37.14-.74.27-1.1.38-.23.07-.47.14-.7.2-.22.05-.43.1-.64.14-.28.05-.56.1-.83.13-.16.02-.31.04-.47.05-.35.02-.69.03-1.03.02-.07,0-.14,0-.21,0-.4-.02-.79-.08-1.16-.15-.1-.02-.19-.04-.28-.07-.29-.07-.58-.15-.86-.25-.09-.03-.18-.06-.27-.09-.36-.14-.7-.3-1.03-.49l2.97,1.72s.06.03.09.05c.26.15.52.28.8.39.05.02.1.03.15.05.09.03.18.06.27.09.14.05.27.11.42.15.14.04.3.07.44.1.09.02.19.05.28.07.05.01.1.03.16.04.31.05.63.09.95.11.02,0,.04,0,.05,0,.07,0,.14,0,.21,0,.26,0,.51.02.78,0,.08,0,.17-.02.25-.03.15-.01.31-.03.47-.05.15-.02.3-.02.45-.05.13-.02.26-.06.38-.08.21-.04.42-.08.64-.14.12-.03.23-.04.35-.08.11-.03.23-.09.35-.12.36-.11.73-.24,1.1-.38.13-.05.26-.08.39-.14.13-.05.25-.12.38-.17.12-.05.24-.11.36-.17.47-.22.95-.47,1.44-.75.51-.29,1.01-.62,1.5-.96.16-.11.31-.23.47-.34.33-.24.67-.49,1-.75.18-.14.35-.29.53-.44.3-.26.6-.52.9-.79.17-.16.35-.32.52-.49.1-.1.21-.19.31-.29.12-.12.24-.26.36-.38.35-.36.69-.72,1.03-1.1.11-.12.22-.22.32-.35.1-.12.2-.25.3-.37.21-.24.41-.49.61-.74.12-.15.25-.29.37-.45.12-.16.24-.32.36-.49.15-.2.29-.39.44-.59.08-.12.17-.23.26-.35.2-.28.38-.56.57-.85.09-.13.18-.26.26-.39.03-.04.06-.09.09-.13.28-.44.55-.89.82-1.34.03-.05.06-.11.09-.16.07-.12.14-.25.21-.37.15-.27.31-.53.45-.81.1-.18.19-.37.28-.55.08-.15.16-.31.24-.46.06-.11.12-.22.17-.34.22-.46.43-.92.63-1.39,0,0,0,0,0,0,0-.01,0-.02.01-.03.2-.46.39-.93.57-1.39.04-.11.08-.22.12-.33.07-.19.13-.37.2-.56.07-.21.16-.42.23-.63.07-.21.13-.42.19-.62.07-.22.14-.44.2-.66.03-.12.08-.24.11-.35.07-.26.13-.52.19-.78.07-.28.14-.55.2-.82.02-.08.04-.17.06-.25.04-.2.06-.39.1-.58.08-.44.16-.88.23-1.32.02-.11.04-.22.06-.34Z"/>
          <g class="cls-81">
            <g class="cls-78">
              <g class="cls-81">
                <path class="cls-56" d="m102.73,78.61l-2.97-1.72c.52-.19,1.03-.36,1.53-.49l2.97,1.72c-.5.14-1.01.3-1.53.49"/>
                <path class="cls-58" d="m104.26,78.12l-2.97-1.72c.56-.15,1.1-.27,1.64-.35l2.97,1.72c-.53.08-1.08.2-1.64.35"/>
                <path class="cls-59" d="m105.89,77.77l-2.97-1.72c.47-.07.94-.12,1.39-.14l2.97,1.72c-.45.02-.92.07-1.39.14"/>
                <path class="cls-66" d="m107.28,77.63l-2.97-1.72c.42-.02.83-.02,1.24.01l2.97,1.72c-.4-.03-.82-.03-1.24-.01"/>
                <path class="cls-67" d="m108.52,77.64l-2.97-1.72c.39.02.76.07,1.13.13l2.97,1.72c-.37-.06-.75-.11-1.13-.13"/>
                <path class="cls-65" d="m109.65,77.77l-2.97-1.72c.36.06.71.14,1.05.24l2.97,1.72c-.34-.1-.69-.18-1.05-.24"/>
                <path class="cls-53" d="m110.71,78.01l-2.97-1.72c.34.1.67.22.99.35l2.97,1.72c-.32-.13-.65-.25-.99-.35"/>
                <path class="cls-57" d="m111.7,78.36l-2.97-1.72c.33.14.64.29.95.46l2.97,1.72c-.31-.17-.62-.33-.95-.46"/>
                <path class="cls-48" d="m112.65,78.83l-2.97-1.72s.07.04.1.06l2.97,1.72s-.07-.04-.1-.06"/>
              </g>
            </g>
          </g>
          <g class="cls-81">
            <g class="cls-77">
              <g class="cls-81">
                <path class="cls-61" d="m86.3,125.1l-2.97-1.72c-3.42-1.99-5.54-6.23-5.56-12.27,0-1.22.08-2.47.24-3.74l2.97,1.72c-.16,1.26-.25,2.51-.24,3.74.02,6.03,2.14,10.28,5.56,12.27"/>
                <path class="cls-55" d="m80.99,109.09l-2.97-1.72c.12-.89.27-1.79.46-2.7l2.97,1.72c-.19.9-.35,1.81-.46,2.7"/>
                <path class="cls-52" d="m81.45,106.39l-2.97-1.72c.16-.73.34-1.46.54-2.19l2.97,1.72c-.2.73-.38,1.46-.54,2.19"/>
                <path class="cls-51" d="m81.99,104.2l-2.97-1.72c.18-.65.38-1.3.59-1.94l2.97,1.72c-.22.65-.41,1.29-.59,1.94"/>
                <path class="cls-49" d="m82.58,102.26l-2.97-1.72c.2-.6.42-1.2.65-1.8l2.97,1.72c-.23.6-.45,1.2-.65,1.8"/>
                <path class="cls-48" d="m83.23,100.46l-2.97-1.72c.22-.57.45-1.14.7-1.7l2.97,1.72c-.24.56-.48,1.13-.7,1.7"/>
                <path class="cls-57" d="m83.92,98.76l-2.97-1.72c.24-.55.49-1.1.75-1.64l2.97,1.72c-.26.54-.51,1.09-.75,1.64"/>
                <path class="cls-53" d="m84.68,97.12l-2.97-1.72c.26-.54.53-1.08.82-1.61l2.97,1.72c-.28.53-.56,1.07-.82,1.61"/>
                <path class="cls-65" d="m85.49,95.51l-2.97-1.72c.29-.54.58-1.07.89-1.59l2.97,1.72c-.31.52-.6,1.06-.89,1.59"/>
                <path class="cls-67" d="m86.38,93.91l-2.97-1.72c.31-.54.64-1.07.98-1.6l2.97,1.72c-.34.53-.66,1.06-.98,1.6"/>
                <path class="cls-66" d="m87.36,92.32l-2.97-1.72c.35-.55.72-1.1,1.09-1.63l2.97,1.72c-.38.53-.74,1.08-1.09,1.63"/>
                <path class="cls-59" d="m88.45,90.68l-2.97-1.72c.4-.57.82-1.14,1.25-1.69l2.97,1.72c-.43.55-.84,1.11-1.25,1.69"/>
                <path class="cls-58" d="m89.7,88.99l-2.97-1.72c.49-.63.99-1.24,1.51-1.84l2.97,1.72c-.52.59-1.02,1.21-1.51,1.84"/>
                <path class="cls-56" d="m91.21,87.15l-2.97-1.72c.17-.2.35-.4.52-.59l2.97,1.72c-.18.19-.35.39-.52.59"/>
              </g>
            </g>
          </g>
          <path class="cls-8" d="m121.95,108.08c-.03-.1-.05-.2-.09-.29-.06-.17-.15-.33-.24-.47-.04-.07-.08-.14-.13-.2-.15-.19-.33-.36-.55-.48l-2.97-1.72c.21.12.39.29.55.48.05.06.09.14.13.21.09.15.18.3.24.47.03.09.06.19.09.29.05.18.08.36.1.56.01.11.03.21.03.32,0,.23,0,.46-.03.7,0,.11,0,.21-.02.31,0,.04-.02.09-.02.13-.05.27-.1.56-.19.84,0,.02-.01.04-.02.06-.09.31-.2.62-.34.94,0,0,0,.01,0,.02-.14.33-.31.66-.49.98-.18.31-.38.61-.58.88-.02.02-.03.04-.05.06-.19.25-.38.48-.58.69-.04.04-.08.09-.12.13-.16.16-.32.3-.48.44-.08.06-.15.14-.22.2-.23.18-.47.35-.71.49-.23.13-.46.23-.68.32-.05.02-.09.03-.14.05-.21.07-.42.12-.62.15-.02,0-.04,0-.06,0-.22.02-.44.02-.65-.02,0,0,0,0,0,0-.22-.04-.42-.11-.61-.22l2.97,1.72s0,0,.01,0c.06.03.12.06.18.09.07.03.14.05.21.07.07.02.14.04.21.05,0,0,0,0,0,0,0,0,0,0,0,0,.08.01.15.02.23.03.08,0,.17,0,.26,0,.05,0,.1-.01.15-.02.02,0,.04,0,.06,0,.03,0,.05,0,.08,0,.11-.02.23-.04.35-.07.06-.02.13-.05.19-.07.05-.02.09-.03.14-.05.04-.02.08-.03.13-.04.18-.08.37-.17.55-.28.24-.14.47-.3.71-.49.08-.06.15-.13.23-.2.13-.11.26-.21.38-.34.03-.03.06-.07.1-.1.04-.04.08-.09.12-.13.07-.07.14-.14.2-.22.1-.12.21-.25.31-.38.02-.03.05-.06.07-.1.02-.02.03-.04.05-.06.05-.06.09-.12.14-.19.08-.11.15-.22.22-.33.07-.11.14-.22.2-.33,0-.01.01-.02.02-.04.06-.1.11-.2.16-.29.06-.11.11-.22.17-.33.05-.11.11-.22.15-.34,0,0,0-.01,0-.02,0,0,0-.01,0-.02.04-.1.09-.21.13-.31.05-.12.09-.24.13-.37.03-.09.05-.18.08-.26,0-.02.01-.04.02-.06,0-.02.02-.05.02-.07.04-.15.08-.3.11-.45.02-.11.04-.21.05-.32,0-.04.02-.09.02-.13,0-.03.01-.06.02-.09,0-.08,0-.14,0-.22.02-.24.03-.48.03-.7,0-.11-.02-.22-.03-.32-.02-.2-.06-.38-.1-.56Z"/>
          <path class="cls-12" d="m102.34,126.4l-2.97-1.72c.7.41,1.13,1.27,1.14,2.5,0,.29-.03.59-.07.89,0,.05-.02.09-.02.14-.05.28-.11.57-.2.85,0,.03-.02.05-.02.08-.09.31-.21.62-.34.92,0,0,0,0,0,.01-.14.31-.29.62-.46.91,0,0-.01.02-.02.03-.17.29-.35.57-.54.83-.02.02-.03.05-.05.07-.18.24-.37.47-.57.69-.04.05-.08.09-.13.14-.16.16-.32.31-.49.46-.08.07-.15.14-.23.2-.24.19-.48.36-.73.51-.25.14-.49.25-.72.33-.05.02-.09.03-.14.05-.22.07-.44.12-.64.14-.02,0-.04,0-.06,0-.22.02-.43,0-.63-.03-.01,0-.02,0-.03,0-.2-.04-.39-.11-.56-.21l2.97,1.72s.01,0,.02.01c.06.04.13.07.2.1.07.03.13.05.21.07.05.01.09.02.14.03.01,0,.02,0,.03,0,.02,0,.03,0,.05.01.08.01.15.02.23.03.08,0,.17,0,.26,0,.03,0,.06,0,.09,0,.02,0,.04,0,.06,0,.05,0,.1,0,.15-.01.11-.02.23-.04.34-.07.05-.01.1-.04.15-.05.05-.01.09-.03.14-.05.06-.02.11-.04.17-.06.18-.07.36-.17.55-.27.25-.14.49-.32.73-.51.08-.06.15-.13.23-.2.11-.1.23-.19.34-.3.05-.05.1-.11.15-.16.04-.04.09-.09.13-.14.05-.05.1-.1.15-.16.11-.12.21-.25.31-.38.04-.05.07-.1.11-.15.02-.02.04-.05.05-.07.03-.04.07-.09.1-.13.08-.11.15-.22.22-.34.07-.11.14-.22.2-.33,0-.01.01-.02.02-.03,0-.01.01-.02.02-.03.05-.09.1-.17.15-.26.06-.11.11-.22.17-.33.05-.1.1-.21.14-.31,0,0,0,0,0-.01h0c.05-.13.1-.24.14-.36.05-.12.09-.25.13-.37.02-.06.04-.13.06-.19,0-.03.02-.05.02-.08.01-.04.03-.09.04-.13.04-.15.08-.3.11-.45.02-.09.03-.18.05-.27,0-.05.02-.09.02-.14,0-.04.02-.09.02-.13.03-.26.05-.51.05-.76,0-1.23-.44-2.1-1.14-2.5Z"/>
          <path class="cls-11" d="m128.55,80.7l-2.97-1.72c.7.41,1.13,1.27,1.14,2.5,0,.29-.03.59-.07.89,0,.05-.02.09-.02.14-.05.28-.11.57-.2.85,0,.03-.02.05-.02.08-.09.31-.21.61-.34.92,0,0,0,.02-.01.02-.14.31-.29.61-.46.91,0,0,0,.02-.01.02-.17.29-.35.56-.54.83-.02.02-.04.05-.05.07-.18.24-.37.47-.57.68-.04.05-.09.09-.13.14-.16.16-.32.31-.49.46-.08.07-.15.14-.23.2-.24.19-.48.36-.73.51-.25.14-.49.25-.72.33-.05.02-.09.03-.14.05-.22.07-.44.12-.64.14-.02,0-.04,0-.06,0-.22.02-.43,0-.63-.03-.01,0-.02,0-.03,0-.2-.04-.39-.11-.56-.21l2.97,1.72s.01,0,.02.01c.06.04.13.07.2.1.07.03.14.05.21.07.05.01.09.02.14.03.01,0,.02,0,.03,0,.02,0,.03,0,.05.01.08.01.16.02.24.03.08,0,.17,0,.26,0,.03,0,.06,0,.09,0,.02,0,.04,0,.06,0,.05,0,.1,0,.15-.01.11-.02.23-.04.34-.07.05-.01.1-.04.15-.05.05-.01.09-.03.14-.05.06-.02.11-.04.17-.06.18-.07.36-.16.55-.27.25-.15.49-.32.73-.51.08-.06.15-.13.23-.2.12-.1.23-.19.35-.3.05-.05.1-.1.14-.15.04-.05.09-.09.13-.14.05-.05.1-.11.15-.16.11-.12.21-.25.32-.39.03-.04.07-.09.1-.13.02-.02.04-.05.05-.07.03-.05.07-.09.11-.14.08-.11.15-.22.23-.34.07-.11.14-.22.2-.33,0,0,0-.01.01-.02,0,0,0-.01.01-.02.05-.09.11-.19.16-.28.06-.11.11-.22.17-.33.05-.1.09-.2.13-.29,0,0,0-.01,0-.02,0,0,0-.02.01-.02.05-.12.1-.23.14-.35.05-.12.09-.24.13-.37.02-.06.04-.12.05-.18,0-.03.02-.05.02-.08.01-.05.03-.09.04-.14.04-.15.08-.3.11-.45.02-.09.03-.18.05-.27,0-.05.02-.09.02-.14,0-.04.02-.09.02-.13.03-.26.05-.51.05-.76,0-1.23-.44-2.09-1.14-2.5Z"/>
          <path class="cls-9" d="m84.58,129.88c-.03-.1-.05-.2-.09-.29-.06-.17-.15-.33-.24-.47-.04-.07-.08-.14-.13-.21-.15-.19-.33-.36-.55-.48l-2.97-1.72c.21.12.39.29.55.48.05.06.09.14.13.21.09.15.18.3.24.47.03.09.06.19.09.29.05.18.08.36.1.56.01.11.03.21.03.33,0,.23,0,.46-.03.7,0,.11,0,.21-.02.31,0,.04-.02.09-.02.13-.05.27-.1.56-.19.84,0,.02-.01.04-.02.06-.09.31-.2.62-.34.93,0,0,0,.01,0,.02-.14.33-.31.66-.49.98-.18.31-.38.61-.58.89-.02.02-.03.04-.05.06-.19.25-.38.48-.58.69-.04.04-.08.09-.12.13-.16.16-.32.3-.48.44-.08.07-.15.14-.23.2-.23.18-.47.35-.71.49-.23.13-.46.23-.68.32-.05.02-.09.03-.14.05-.21.07-.42.12-.62.15-.02,0-.04,0-.06,0-.22.02-.44.02-.65-.02,0,0,0,0,0,0-.21-.04-.42-.11-.61-.22l2.97,1.72s0,0,0,0c.06.04.13.07.2.1.07.03.13.05.2.07.07.02.13.03.2.05,0,0,0,0,0,0,0,0,0,0,0,0,.08.01.15.02.23.03.08,0,.17,0,.26,0,.05,0,.1,0,.15-.01.02,0,.04,0,.06,0,.03,0,.05,0,.08,0,.11-.02.23-.04.34-.07.06-.02.13-.04.19-.07.05-.02.09-.03.14-.05.04-.02.08-.03.13-.04.18-.08.37-.17.55-.27.24-.14.47-.3.71-.49.08-.06.15-.13.22-.2.13-.11.26-.21.38-.34.03-.03.06-.07.1-.1.04-.04.08-.08.12-.13.07-.07.14-.14.2-.22.1-.12.21-.25.31-.38.02-.03.05-.06.07-.1.02-.02.03-.04.05-.06.05-.06.09-.12.14-.19.08-.11.15-.22.22-.33.07-.11.14-.22.2-.33,0-.01.01-.02.02-.04.06-.1.11-.2.16-.29.06-.11.12-.22.17-.33.05-.11.11-.22.15-.34,0,0,0-.01,0-.02,0,0,0-.01,0-.02.04-.1.09-.2.13-.31.05-.12.09-.24.13-.37.03-.09.05-.17.08-.26,0-.02.01-.04.02-.06,0-.02.02-.05.02-.07.04-.15.08-.3.11-.45.02-.11.04-.21.05-.32,0-.04.02-.09.02-.13,0-.03.01-.06.02-.09,0-.08,0-.14,0-.22.02-.24.03-.48.03-.7,0-.11-.02-.22-.03-.33-.02-.2-.06-.38-.1-.56Z"/>
          <path class="cls-13" d="m115.16,73.31c.06.04.13.07.2.1.07.03.13.05.2.07.06.02.12.03.19.04,0,0,0,0,.01,0,0,0,0,0,.01,0,.08.01.15.02.23.03.08,0,.17,0,.25,0,.05,0,.09,0,.14-.01.02,0,.04,0,.06,0,.03,0,.06,0,.09,0,.11-.02.23-.04.34-.07.06-.02.13-.04.19-.06.05-.02.09-.03.14-.05.04-.02.09-.03.13-.04.18-.08.37-.17.55-.27.24-.14.47-.3.7-.48.08-.06.15-.13.22-.2.13-.11.25-.21.38-.33.03-.03.07-.07.1-.11.04-.04.08-.09.12-.13.07-.07.13-.14.2-.21.1-.12.21-.25.31-.38.03-.03.05-.07.08-.11.02-.02.03-.04.05-.07.04-.06.09-.11.13-.17.08-.11.15-.22.22-.33.07-.11.14-.22.2-.33,0-.02.02-.03.03-.05.06-.1.11-.19.16-.29.06-.11.12-.22.17-.34.05-.11.11-.22.15-.34,0,0,0-.01,0-.02,0,0,0-.01,0-.02.04-.1.09-.21.13-.31.05-.12.09-.24.13-.37.03-.09.05-.18.08-.26,0-.02.01-.04.02-.06,0-.02.02-.05.02-.07.04-.15.08-.3.11-.45.02-.11.04-.21.05-.32,0-.04.02-.09.02-.13,0-.03.01-.06.02-.09,0-.08,0-.14,0-.22.02-.24.03-.48.03-.7,0-.11-.02-.22-.03-.32-.02-.2-.06-.38-.1-.56-.03-.1-.05-.2-.09-.29-.06-.17-.15-.33-.24-.47-.04-.07-.08-.14-.13-.2-.15-.19-.33-.36-.55-.48l-2.97-1.72c.21.12.39.29.55.48.05.06.09.14.13.2.09.15.18.3.24.47.03.09.06.19.09.29.05.18.08.36.1.56.01.11.03.21.03.32,0,.23,0,.46-.03.7,0,.11,0,.21-.02.31,0,.04-.02.09-.02.13-.05.28-.11.56-.19.84,0,.02-.01.04-.02.06-.09.31-.2.62-.34.94,0,0,0,.01,0,.02-.14.33-.31.66-.49.98-.18.31-.38.61-.58.89-.02.02-.03.04-.05.07-.19.25-.38.48-.58.69-.04.04-.08.09-.12.13-.16.16-.32.3-.48.44-.07.06-.15.14-.22.2-.23.18-.47.35-.7.48-.23.13-.45.23-.68.32-.05.02-.09.03-.14.05-.21.07-.42.12-.62.15-.02,0-.04,0-.06,0-.22.02-.44.02-.64-.02,0,0,0,0-.01,0-.21-.04-.42-.11-.6-.22l2.97,1.72s.01,0,.02,0Z"/>
          <path class="cls-5" d="m75.25,118.56c.08-.11.15-.22.23-.34.07-.11.14-.22.2-.33,0,0,.01-.02.02-.03,0,0,0-.02.01-.02.05-.09.1-.18.15-.28.06-.11.11-.22.17-.33.05-.1.09-.2.14-.3,0,0,0-.01,0-.02,0,0,0-.01,0-.02.05-.12.1-.23.14-.35.05-.12.09-.25.13-.37.02-.06.04-.12.06-.18,0-.03.02-.05.02-.08.01-.04.03-.09.04-.13.04-.15.08-.3.11-.45.02-.09.03-.18.05-.27,0-.05.02-.09.02-.14,0-.04.02-.09.02-.13.03-.26.05-.51.05-.76,0-1.23-.44-2.09-1.14-2.5l-2.97-1.72c.7.41,1.13,1.27,1.14,2.5,0,.29-.03.59-.07.89,0,.05-.02.09-.02.14-.05.28-.11.57-.2.85,0,.03-.02.05-.02.08-.09.31-.21.62-.34.92,0,0,0,.01,0,.02-.14.31-.29.61-.46.91,0,0,0,.02-.01.03-.17.29-.35.57-.54.83-.02.02-.04.05-.05.07-.18.24-.37.47-.57.68-.04.05-.09.09-.13.14-.16.16-.32.31-.49.46-.08.07-.15.14-.23.2-.24.19-.48.36-.73.51-.25.14-.49.25-.72.33-.05.02-.09.03-.14.05-.22.07-.44.12-.64.14-.02,0-.04,0-.06,0-.22.02-.43,0-.63-.03-.01,0-.02,0-.03,0-.2-.04-.39-.11-.56-.21l2.97,1.72s.01,0,.02.01c.06.04.13.07.2.1.07.03.14.05.21.07.05.01.09.02.14.03.01,0,.02,0,.03,0,.02,0,.03,0,.05.01.08.01.16.02.24.03.08,0,.17,0,.26,0,.03,0,.06,0,.09,0,.02,0,.04,0,.06,0,.05,0,.1,0,.15-.01.11-.02.23-.04.34-.07.05-.01.1-.04.15-.05.05-.01.09-.03.14-.05.06-.02.12-.04.17-.06.18-.07.36-.16.54-.27.25-.14.49-.32.73-.51.08-.06.15-.13.23-.2.11-.1.23-.19.34-.3.05-.05.1-.11.15-.16.04-.05.09-.09.13-.14.05-.05.1-.1.15-.16.11-.12.21-.25.32-.39.04-.05.07-.1.11-.14.02-.02.04-.05.05-.07.03-.05.07-.09.1-.14Z"/>
          <path class="cls-4" d="m96.4,75.34c.06.04.13.07.2.1.07.03.13.05.21.07.05.01.09.02.14.03.01,0,.02,0,.03,0,.02,0,.03,0,.05.01.08.01.15.02.23.03.08,0,.17,0,.26,0,.03,0,.06,0,.09,0,.02,0,.04,0,.06,0,.05,0,.1,0,.15-.01.11-.02.23-.04.34-.07.05-.01.1-.04.15-.05.05-.01.09-.03.14-.05.06-.02.11-.04.17-.06.18-.07.36-.17.55-.27.25-.14.49-.32.73-.51.08-.06.15-.13.22-.2.11-.1.23-.19.34-.3.05-.05.1-.11.15-.16.04-.05.09-.09.13-.14.05-.05.1-.1.15-.15.11-.12.21-.25.32-.38.04-.05.07-.1.11-.15.02-.02.04-.05.05-.07.03-.04.07-.09.1-.13.08-.11.15-.22.22-.34.07-.11.14-.22.2-.33,0-.01.01-.02.02-.03,0-.01.01-.02.02-.03.05-.09.1-.17.15-.26.06-.11.11-.22.17-.33.05-.1.1-.21.14-.31,0,0,0,0,0-.01,0,0,0,0,0-.01.05-.12.1-.23.14-.35.05-.12.09-.25.13-.37.02-.06.04-.13.06-.19,0-.03.02-.05.02-.08.01-.04.03-.09.04-.13.04-.15.08-.3.11-.45.02-.09.03-.18.05-.27,0-.05.02-.09.02-.14,0-.04.02-.09.02-.13.03-.26.05-.51.05-.76,0-1.23-.44-2.09-1.13-2.5l-2.97-1.72c.7.41,1.13,1.27,1.13,2.5,0,.29-.03.59-.07.89,0,.05-.02.09-.02.14-.05.28-.11.57-.2.85,0,.03-.02.05-.02.08-.09.31-.21.62-.34.92,0,0,0,0,0,.01-.14.31-.29.62-.46.91,0,0-.01.02-.02.03-.17.29-.35.57-.54.83-.02.02-.03.05-.05.07-.18.24-.37.47-.57.69-.04.05-.08.09-.13.14-.16.16-.32.31-.49.46-.08.07-.15.14-.23.2-.24.19-.48.36-.73.51-.25.14-.49.25-.72.33-.05.02-.09.03-.14.05-.22.07-.43.12-.64.14-.02,0-.04,0-.06,0-.22.02-.43,0-.63-.03-.01,0-.02,0-.03,0-.2-.04-.39-.11-.56-.21l2.97,1.72s.01,0,.02.01Z"/>
          <path class="cls-3" d="m77.79,95.11c.06.04.13.07.2.1.07.03.14.05.21.07.06.02.13.03.19.04,0,0,0,0,.01,0s0,0,.01,0c.08.01.15.02.23.03.08,0,.17,0,.26,0,.05,0,.1,0,.14-.01.02,0,.04,0,.06,0,.03,0,.06,0,.09,0,.11-.02.23-.04.34-.07.06-.02.13-.04.19-.06.05-.02.09-.03.14-.05.04-.02.09-.03.13-.04.18-.08.37-.17.55-.27.24-.14.47-.3.71-.49.08-.06.15-.13.22-.2.13-.11.26-.21.38-.33.03-.03.07-.07.1-.11.04-.04.08-.09.12-.13.07-.07.13-.14.2-.21.11-.12.21-.25.31-.38.03-.03.05-.07.08-.1.02-.02.03-.04.05-.06.04-.06.09-.12.13-.18.08-.11.15-.22.23-.34.07-.11.14-.22.2-.33,0-.01.01-.03.02-.04.05-.09.11-.19.16-.28.06-.11.11-.22.17-.33.05-.11.11-.22.15-.34,0-.01,0-.02.01-.03,0,0,0-.02.01-.03.04-.1.08-.19.12-.29.05-.12.09-.24.13-.37.03-.09.06-.18.08-.27,0-.02.01-.04.02-.06,0-.02.01-.04.02-.06.04-.15.08-.3.11-.45.02-.11.04-.22.06-.33,0-.04.02-.09.02-.13,0-.03.01-.06.02-.09,0-.08,0-.14,0-.22.02-.24.03-.48.03-.71,0-.11-.02-.22-.03-.32-.02-.2-.06-.38-.1-.56-.03-.1-.05-.2-.09-.29-.06-.17-.15-.33-.24-.47-.04-.07-.08-.14-.13-.21-.15-.19-.33-.36-.54-.49l-2.97-1.72c.21.12.39.29.54.49.05.06.08.14.13.21.09.15.18.3.24.47.03.09.06.19.09.29.05.18.08.37.1.56.01.11.03.21.03.32,0,.23,0,.47-.03.71,0,.1,0,.2-.02.31,0,.04-.02.09-.02.13-.04.28-.1.56-.19.84,0,.02-.01.04-.02.06-.09.31-.2.62-.33.93,0,0,0,.02-.01.03-.14.33-.3.65-.49.98-.18.32-.38.61-.58.89-.02.02-.03.04-.05.07-.19.25-.38.48-.59.69-.04.04-.08.09-.12.13-.16.16-.32.3-.48.44-.07.06-.15.14-.22.2-.23.18-.47.35-.71.49-.23.13-.45.23-.68.32-.05.02-.09.03-.14.05-.21.07-.42.12-.62.15-.02,0-.04,0-.06,0-.22.02-.44.02-.64-.02,0,0,0,0-.01,0-.21-.04-.42-.11-.61-.22l2.97,1.72s0,0,0,0Z"/>
          <path class="cls-70" d="m63.75,121.11c.07-1,.17-2.01.3-3.03.04-.28.08-.57.12-.85.07-.47.14-.95.21-1.42.05-.32.11-.64.17-.96.08-.46.17-.92.27-1.38.05-.26.11-.52.17-.77.26-1.18.54-2.35.87-3.53.05-.2.11-.39.17-.59.29-1.02.59-2.03.93-3.05.03-.08.05-.15.07-.23.33-.98.68-1.96,1.06-2.94.09-.24.19-.49.28-.73.32-.83.66-1.66,1.02-2.48.05-.12.1-.25.16-.37.4-.91.81-1.81,1.24-2.71.11-.24.23-.47.35-.71.35-.71.71-1.42,1.08-2.13.11-.22.22-.43.34-.65.47-.88.96-1.76,1.46-2.63.1-.17.2-.33.29-.49.44-.75.9-1.5,1.37-2.24.14-.22.27-.43.41-.65.58-.9,1.17-1.79,1.79-2.67.09-.13.19-.26.28-.4.64-.9,1.29-1.79,1.96-2.66.09-.12.17-.23.26-.35.84-1.08,1.71-2.14,2.6-3.17.12-.13.23-.27.35-.4.55-.63,1.11-1.25,1.68-1.85.03-.03.05-.06.08-.08.59-.63,1.2-1.25,1.81-1.85.13-.13.26-.25.38-.37.79-.78,1.6-1.53,2.42-2.25.07-.06.14-.13.22-.19.85-.74,1.71-1.45,2.58-2.13.17-.13.33-.26.5-.39.86-.66,1.72-1.29,2.6-1.89.16-.11.31-.21.47-.31.92-.61,1.84-1.2,2.78-1.74.75-.43,1.5-.83,2.24-1.2.21-.11.43-.21.64-.31.57-.27,1.13-.53,1.68-.77.2-.08.4-.17.59-.25.53-.22,1.05-.41,1.57-.6.13-.05.26-.1.38-.14.64-.22,1.28-.41,1.91-.59.37-.1.73-.19,1.1-.27.17-.04.35-.09.52-.13.54-.12,1.07-.22,1.6-.3.8-.12,1.59-.19,2.36-.24.16,0,.31-.02.47-.03.69-.02,1.38-.02,2.05.02.12,0,.23.02.35.03.54.04,1.07.1,1.59.19.16.03.33.05.49.08.6.11,1.19.24,1.76.41.03,0,.05.02.08.03.54.16,1.07.35,1.59.56.15.06.3.13.45.19.44.19.88.41,1.3.64.14.08.29.14.42.22l-2.97-1.72c-.06-.04-.13-.07-.19-.11-.07-.04-.16-.07-.23-.11-.42-.23-.86-.44-1.3-.64-.08-.04-.16-.08-.24-.12-.07-.03-.14-.05-.21-.07-.52-.21-1.05-.4-1.59-.56-.02,0-.04-.02-.07-.02,0,0,0,0-.01,0-.57-.17-1.16-.3-1.76-.41-.07-.01-.14-.04-.21-.05-.09-.02-.19-.02-.28-.03-.52-.08-1.05-.15-1.59-.19-.09,0-.17-.02-.26-.03-.03,0-.06,0-.09,0-.67-.04-1.35-.04-2.05-.02-.07,0-.13,0-.2,0-.09,0-.18.02-.27.03-.77.04-1.56.11-2.36.24,0,0,0,0,0,0-.52.08-1.05.18-1.59.3-.17.04-.35.09-.52.13-.33.08-.66.15-1,.24-.03,0-.07.02-.1.03-.63.17-1.26.37-1.9.59-.13.04-.26.1-.38.14-.52.18-1.04.38-1.56.6-.07.03-.14.05-.21.08-.13.05-.26.12-.38.18-.56.24-1.12.5-1.68.77-.21.1-.42.2-.64.31-.74.37-1.49.77-2.24,1.2-.94.54-1.86,1.13-2.78,1.74-.16.1-.31.21-.47.31-.88.6-1.74,1.23-2.6,1.89-.17.13-.33.26-.5.39-.87.68-1.73,1.39-2.58,2.13-.07.06-.14.13-.21.19-.82.73-1.63,1.48-2.42,2.26-.08.08-.16.15-.24.22-.05.05-.1.1-.14.15-.61.6-1.21,1.22-1.8,1.85-.03.03-.06.06-.09.1-.56.6-1.12,1.22-1.66,1.84-.05.06-.11.11-.16.17-.07.08-.13.16-.19.23-.89,1.03-1.76,2.08-2.6,3.16-.02.03-.05.06-.07.09-.06.08-.12.17-.19.26-.67.87-1.33,1.76-1.97,2.67-.06.09-.13.17-.2.26-.03.04-.06.09-.09.13-.61.88-1.21,1.77-1.79,2.67-.06.09-.12.17-.17.25-.08.13-.16.26-.24.39-.47.74-.92,1.49-1.37,2.24-.07.12-.15.23-.22.35-.03.05-.05.09-.08.14-.5.87-.99,1.74-1.46,2.63-.04.07-.08.14-.12.21-.08.14-.14.29-.22.44-.37.71-.73,1.42-1.08,2.13-.07.15-.15.29-.22.44-.04.09-.08.18-.12.27-.43.9-.85,1.81-1.24,2.72-.01.03-.03.05-.04.08-.04.1-.08.19-.12.29-.35.82-.69,1.65-1.01,2.48-.05.13-.11.27-.16.4-.04.11-.08.23-.12.34-.37.98-.73,1.96-1.05,2.94,0,.02-.01.04-.02.05-.02.06-.03.11-.05.17-.34,1.01-.64,2.03-.93,3.04-.04.13-.08.26-.12.38-.02.07-.03.14-.05.21-.32,1.18-.61,2.36-.87,3.53-.02.1-.05.21-.08.31-.03.15-.06.31-.09.46-.09.46-.18.92-.27,1.38-.06.32-.12.64-.17.96-.08.48-.15.95-.21,1.42-.03.22-.07.45-.1.67,0,.06,0,.12-.02.18-.13,1.02-.23,2.03-.3,3.03-.02.21-.03.43-.04.64-.06,1.03-.1,2.06-.1,3.07.03,11.13,3.96,18.96,10.3,22.65l2.97,1.72c-6.34-3.68-10.27-11.52-10.3-22.65,0-1.01.04-2.04.1-3.07.01-.21.02-.43.04-.64Z"/>
          <path class="cls-17" d="m98.81,63.85c19.5-11.26,35.36-2.22,35.43,20.2.06,22.41-15.7,49.7-35.2,60.96s-35.36,2.22-35.43-20.19c-.06-22.42,15.7-49.71,35.2-60.97Zm16.5,29.02c-.03-10.13-7.12-14.27-15.84-9.23-8.72,5.03-15.76,17.34-15.73,27.47s7.12,14.27,15.84,9.24,15.77-17.33,15.74-27.47m-37.55-4.09c-1.52,2.63-1.51,5.46.02,6.33.76.44,1.76.3,2.76-.28,1-.58,1.99-1.59,2.75-2.9,1.51-2.62,1.5-5.45-.02-6.33-.76-.44-1.76-.3-2.76.28-1,.58-1.99,1.59-2.75,2.9m37.37-21.8c-1.52,2.63-1.51,5.46.02,6.33.76.44,1.76.3,2.75-.28s1.99-1.59,2.75-2.9c1.52-2.63,1.51-5.46-.02-6.33-.76-.44-1.76-.3-2.75.28-1,.58-1.99,1.59-2.75,2.9m-31.53,67.79c1.52-2.63,1.51-5.46-.02-6.33-.76-.44-1.76-.3-2.75.28-1,.58-1.99,1.59-2.75,2.9-1.52,2.63-1.51,5.46.02,6.33.76.43,1.76.29,2.75-.28s1.99-1.59,2.75-2.89m37.37-21.8c1.52-2.63,1.51-5.46-.02-6.33-.76-.44-1.76-.3-2.75.28-1,.58-2,1.59-2.75,2.9-1.51,2.62-1.5,5.45.02,6.33.76.43,1.76.29,2.76-.29,1-.58,1.99-1.59,2.75-2.89m-48.02,7.8c2.15-1.24,3.89-4.26,3.88-6.73,0-2.47-1.76-3.47-3.91-2.23-2.15,1.24-3.89,4.26-3.88,6.73s1.76,3.47,3.91,2.23m52.85-30.84c2.15-1.24,3.89-4.25,3.88-6.72,0-2.47-1.76-3.47-3.91-2.23s-3.89,4.26-3.88,6.73c0,2.47,1.76,3.46,3.91,2.22m-26.2,45.7c2.15-1.24,3.88-4.25,3.87-6.72,0-2.47-1.75-3.47-3.9-2.23-2.16,1.25-3.89,4.26-3.88,6.73,0,2.47,1.75,3.47,3.91,2.23m-.48-69.51c-2.16,1.25-3.89,4.25-3.88,6.72,0,2.47,1.75,3.47,3.91,2.23s3.88-4.25,3.87-6.72c0-2.47-1.75-3.46-3.9-2.22"/>
        </g>
        <polygon class="cls-43" points="73.01 47.31 87.84 38.69 87.77 66.08 72.93 74.7 73.01 47.31"/>
        <polygon class="cls-26" points="67.8 44.3 82.63 35.68 87.84 38.69 73.01 47.31 67.8 44.3"/>
        <polygon class="cls-44" points="73.01 47.31 72.93 74.7 67.72 71.69 67.8 44.3 73.01 47.31"/>
        <g class="cls-81">
          <polygon class="cls-27" points="73.3 27.44 88.13 18.82 88.08 38.35 73.25 46.97 73.3 27.44"/>
          <polygon class="cls-64" points="69.94 25.5 84.78 16.88 88.13 18.82 73.3 27.44 69.94 25.5"/>
          <polygon class="cls-30" points="73.3 27.44 73.25 46.97 69.89 45.03 69.94 25.5 73.3 27.44"/>
        </g>
        <polygon class="cls-29" points="78.6 26.9 98.38 15.41 98.32 35.03 78.55 46.52 78.6 26.9"/>
        <polygon class="cls-42" points="52.02 11.56 71.8 .06 98.38 15.41 78.6 26.9 52.02 11.56"/>
        <polygon class="cls-31" points="78.6 26.9 78.55 46.52 51.97 31.18 52.02 11.56 78.6 26.9"/>
        <polygon class="cls-28" points="77.69 21.97 92.52 13.35 92.51 15.72 77.68 24.34 77.69 21.97"/>
        <polygon class="cls-33" points="57.13 10.1 71.96 1.48 92.52 13.35 77.69 21.97 57.13 10.1"/>
        <polygon class="cls-32" points="77.69 21.97 77.68 24.34 57.12 12.47 57.13 10.1 77.69 21.97"/>
        <g class="cls-81">
          <path class="cls-71" d="m69.92,36.27c.08-.2.16-.39.21-.6.04-.15.06-.32.08-.48.04-.22.07-.44.09-.67,0-.05.02-.1.02-.15.01-.22.01-.44,0-.67,0-.06,0-.11-.01-.17,0-.04,0-.07,0-.11,0-.08,0-.17-.02-.25-.01-.15-.03-.31-.05-.47-.02-.14-.04-.29-.07-.44,0-.03-.01-.05-.02-.08,0-.02,0-.03,0-.05-.02-.1-.04-.19-.06-.29-.03-.13-.06-.26-.09-.39-.03-.13-.07-.25-.1-.38-.03-.09-.06-.19-.09-.28,0-.01,0-.02,0-.03,0-.02-.01-.04-.02-.06-.04-.12-.08-.24-.12-.37-.04-.12-.09-.24-.14-.37-.05-.12-.1-.24-.15-.37-.04-.09-.08-.18-.12-.27-.01-.03-.03-.07-.04-.1-.06-.13-.12-.25-.18-.38-.06-.12-.12-.24-.18-.36-.02-.05-.05-.09-.07-.13-.01-.02-.02-.04-.04-.07-.03-.05-.06-.11-.09-.16-.07-.12-.14-.24-.21-.36-.07-.12-.15-.25-.22-.37,0,0,0-.01-.01-.02,0,0-.01-.02-.02-.02-.07-.11-.14-.22-.22-.33-.09-.14-.19-.28-.28-.41-.02-.03-.04-.06-.06-.09-.03-.04-.06-.07-.08-.11-.07-.09-.14-.19-.21-.28-.08-.1-.17-.2-.25-.3-.07-.09-.14-.17-.21-.26-.03-.03-.06-.07-.09-.11-.06-.07-.13-.13-.2-.2-.16-.18-.33-.35-.5-.51-.1-.1-.2-.19-.3-.28-.17-.15-.33-.29-.5-.43-.06-.05-.12-.1-.18-.15-.05-.04-.09-.06-.14-.1-.15-.11-.3-.21-.45-.31-.07-.05-.15-.11-.22-.15-.08-.05-.16-.1-.24-.14-.1-.06-.21-.12-.31-.17-.15-.08-.3-.15-.44-.21-.04-.02-.08-.03-.12-.05-.03-.01-.05-.02-.08-.03-.06-.02-.12-.05-.18-.07-.11-.04-.23-.08-.34-.11-.11-.03-.21-.06-.31-.08,0,0-.01,0-.02,0,0,0-.01,0-.02,0-.09-.02-.17-.04-.26-.05-.09-.02-.19-.03-.28-.04-.09,0-.18-.02-.27-.02-.02,0-.03,0-.05,0-.01,0-.02,0-.03,0-.06,0-.12,0-.18,0-.08,0-.17,0-.25.01-.08,0-.17.02-.25.03-.05,0-.1.02-.15.03-.03,0-.06.01-.09.02-.08.02-.16.04-.24.07-.08.03-.16.05-.24.09-.08.03-.15.07-.23.11-.05.02-.09.05-.13.07l-.99.57c.28-.16.59-.28.92-.35.27-.05.54-.08.82-.07.01,0,.02,0,.03,0,.28,0,.57.05.86.11,0,0,.01,0,.02,0,.28.07.57.16.86.27.03.01.05.02.08.03.29.12.59.26.88.43.15.09.31.2.46.3.15.1.3.2.45.31.11.08.21.17.32.25.17.14.33.28.5.43.1.09.2.18.3.28.17.16.33.34.5.52.09.1.19.2.28.31.07.08.14.17.22.26.15.19.31.38.45.57.03.04.06.07.08.11.19.27.38.54.56.83,0,0,.01.02.02.03.18.29.36.6.53.91.01.02.02.04.03.06.17.32.33.64.47.97.21.48.39.96.54,1.43,0,.01,0,.02,0,.03.14.46.26.91.34,1.35,0,.02,0,.03,0,.05.08.43.13.84.16,1.24,0,.04,0,.07,0,.11.02.34,0,.67-.01.99-.02.23-.05.45-.09.67-.03.16-.05.33-.08.48-.05.22-.13.41-.21.6-.05.13-.09.27-.15.39-.1.2-.23.37-.36.54-.06.09-.11.19-.18.26-.21.23-.45.43-.72.59l.99-.57c.27-.16.51-.36.72-.59.07-.08.12-.18.18-.26.13-.17.26-.34.36-.54.06-.12.1-.26.15-.39Z"/>
          <path class="cls-37" d="m63.08,23.75c2.01,1.16,3.97,3.4,5.18,6.15,1.95,4.43,1.2,8.48-1.67,9.08-1.09.22-2.32-.08-3.54-.79-2.01-1.16-3.97-3.4-5.18-6.15-1.95-4.42-1.2-8.48,1.67-9.08,1.09-.22,2.32.08,3.54.79Z"/>
        </g>
        <g class="cls-81">
          <path class="cls-38" d="m67.13,35.69c.06-.14.12-.29.16-.45.03-.11.04-.23.06-.35.03-.16.05-.32.07-.5,0-.04.01-.07.01-.11,0-.16,0-.33,0-.5,0-.04,0-.08,0-.13,0-.03,0-.05,0-.08,0-.06,0-.12-.01-.19-.01-.11-.02-.23-.04-.35-.01-.11-.03-.21-.05-.32,0-.02,0-.04-.01-.06,0-.01,0-.02,0-.03-.01-.07-.03-.14-.04-.22-.02-.1-.04-.19-.07-.29-.02-.09-.05-.19-.08-.28-.02-.07-.04-.14-.06-.21,0,0,0-.02,0-.03,0-.02,0-.03-.01-.05-.03-.09-.06-.18-.09-.27-.03-.09-.07-.18-.1-.27-.03-.09-.07-.18-.11-.27-.03-.07-.06-.13-.09-.2-.01-.02-.02-.05-.03-.07-.04-.09-.08-.18-.13-.27-.04-.09-.09-.18-.13-.27-.05-.09-.09-.18-.14-.27-.05-.09-.1-.18-.15-.27-.05-.09-.11-.18-.17-.27,0,0,0-.01-.01-.02,0,0,0,0,0-.01-.05-.08-.11-.17-.16-.25-.07-.1-.14-.2-.21-.3-.09-.12-.17-.24-.26-.35-.08-.1-.17-.2-.25-.3-.02-.03-.05-.06-.07-.09-.03-.03-.06-.07-.09-.11-.27-.3-.55-.57-.83-.82-.06-.05-.12-.11-.18-.16-.08-.06-.15-.13-.23-.19-.2-.15-.4-.29-.6-.42-.06-.04-.12-.07-.18-.11-.08-.04-.15-.09-.23-.13-.11-.06-.22-.11-.33-.16-.03-.01-.06-.02-.09-.04-.02,0-.04-.02-.06-.02-.04-.02-.09-.04-.13-.05-.08-.03-.17-.06-.25-.08-.08-.02-.16-.04-.23-.06,0,0-.01,0-.02,0,0,0,0,0-.01,0-.06-.01-.13-.03-.19-.04-.07-.01-.14-.02-.21-.03-.07,0-.13-.01-.2-.02-.01,0-.03,0-.04,0,0,0-.01,0-.02,0-.04,0-.09,0-.13,0-.06,0-.13,0-.19.01-.06,0-.12.01-.18.02-.04,0-.07.01-.11.02-.02,0-.04,0-.07.01-.06.01-.12.03-.18.05-.06.02-.12.04-.18.06-.06.02-.11.05-.17.08-.03.02-.07.04-.1.05l-19.78,11.49c.21-.12.44-.21.69-.26.2-.04.4-.06.61-.05,0,0,.01,0,.02,0,.21,0,.42.03.64.08,0,0,0,0,.01,0,.21.05.42.12.64.2.02,0,.04.02.06.02.22.09.43.2.65.32.34.2.68.44,1.01.72.06.05.12.1.18.16.32.28.63.59.92.93.02.03.05.06.07.08.31.37.61.78.89,1.21,0,0,0,0,0,0,.29.45.54.94.77,1.45.16.36.29.71.4,1.06,0,0,0,.02,0,.02.11.34.19.67.25,1,0,.01,0,.02,0,.03.06.32.1.62.12.92,0,.03,0,.05,0,.08.01.26,0,.5,0,.74-.01.17-.04.33-.07.5-.02.12-.03.24-.06.35-.04.16-.1.3-.16.45-.04.1-.07.2-.11.29-.08.15-.17.27-.27.4-.05.06-.08.14-.14.2-.16.17-.33.32-.53.44l19.78-11.49c.2-.12.38-.27.53-.44.05-.06.09-.13.14-.2.09-.13.19-.25.26-.4.04-.09.07-.19.11-.29Z"/>
          <path class="cls-63" d="m43.01,37.48c1.49.86,2.94,2.52,3.84,4.56,1.44,3.28.89,6.3-1.25,6.73-.8.16-1.71-.06-2.62-.58-1.49-.86-2.95-2.52-3.85-4.56-1.44-3.28-.89-6.29,1.24-6.73.81-.17,1.72.06,2.63.58Z"/>
        </g>
        <g class="cls-81">
          <polygon class="cls-68" points="22.57 41.54 27.51 38.67 44.02 37.25 39.07 40.12 22.57 41.54"/>
          <path class="cls-36" d="m26.68,35.75c-.21-.85-.39-1.71-.54-2.56-.02-.1-.03-.2-.05-.3-.14-.85-.26-1.69-.33-2.53,0-.07,0-.14-.01-.21-.07-.86-.11-1.71-.11-2.54,0-.62.04-1.21.09-1.8.02-.34.05-.67.09-.99.05-.39.1-.78.17-1.15.05-.31.11-.61.17-.91.08-.36.17-.71.27-1.06.08-.28.16-.56.25-.82.11-.33.24-.65.38-.97.1-.24.2-.49.31-.73.15-.31.32-.59.48-.87.12-.21.24-.43.37-.62.19-.28.39-.54.6-.79.14-.17.26-.35.4-.51.24-.27.5-.5.76-.74.13-.12.25-.25.38-.36.41-.33.83-.63,1.28-.89l-4.94,2.87c-.45.26-.87.56-1.28.89-.13.11-.25.24-.38.36-.26.24-.52.47-.76.74-.14.16-.27.34-.4.51-.21.26-.41.51-.6.79-.13.2-.25.41-.37.62-.17.28-.33.57-.48.87-.11.23-.21.48-.31.73-.13.31-.26.63-.38.96-.09.27-.17.54-.25.82-.1.35-.19.69-.27,1.06-.07.3-.12.6-.17.91-.06.38-.12.76-.17,1.15-.04.33-.07.66-.09.99-.02.21-.05.4-.06.61-.02.39-.03.79-.03,1.19,0,.35,0,.71.02,1.06.02.49.05.99.1,1.48,0,.07,0,.14.01.21,0,.03,0,.05,0,.07.05.52.11,1.04.18,1.56.04.3.09.59.14.89.02.1.03.2.05.3.01.08.03.16.04.25.08.45.17.91.27,1.36.07.32.15.63.23.95.02.06.03.13.05.19.01.05.02.11.04.16.11.42.22.84.35,1.27.12.41.25.83.38,1.24,0,.02.01.04.02.06l4.94-2.87c-.3-.91-.56-1.82-.79-2.73-.02-.06-.03-.13-.05-.19Z"/>
          <path class="cls-35" d="m59.42,65.27c-.06.02-.12.04-.18.07-.45.17-.92.3-1.41.41-.06.01-.12.02-.18.04-.49.1-.99.16-1.51.19-.06,0-.13,0-.19.01-.52.02-1.06.01-1.61-.03-.06,0-.12,0-.19-.01-.56-.05-1.12-.14-1.7-.26-.07-.01-.14-.03-.2-.04-.57-.13-1.15-.29-1.74-.49-.1-.03-.2-.06-.3-.1-.59-.2-1.18-.44-1.79-.72-.14-.06-.28-.14-.42-.2-.61-.29-1.22-.59-1.84-.95-1.63-.94-3.2-2.07-4.72-3.36-.04-.03-.08-.06-.12-.09-.69-.59-1.35-1.21-2.01-1.86-.13-.13-.27-.26-.4-.39-.62-.63-1.23-1.28-1.82-1.96-.24-.28-.47-.57-.7-.85-.44-.52-.87-1.05-1.29-1.6-.12-.15-.23-.31-.34-.46-.55-.74-1.09-1.5-1.6-2.28-.06-.09-.11-.17-.17-.26-.53-.81-1.03-1.64-1.51-2.49-.05-.09-.1-.17-.15-.26-.51-.9-.99-1.82-1.44-2.75l-4.94,2.87c.18.38.37.75.56,1.13.21.4.42.8.64,1.19.08.14.16.28.24.43.05.09.1.17.15.26.1.17.2.35.3.52.24.41.49.82.74,1.23.16.25.32.49.48.74.06.09.11.17.17.26.06.09.12.18.18.28.31.46.62.91.94,1.36.16.22.32.43.48.64.12.16.23.31.35.46.11.15.22.3.33.45.31.4.64.77.95,1.15.24.28.46.57.71.85.06.06.11.13.16.19.54.61,1.1,1.19,1.66,1.77.13.13.26.26.4.39.66.65,1.32,1.27,2.01,1.86.04.03.08.06.12.09.42.35.84.7,1.26,1.03l.03-.02c.54.42,1.09.82,1.64,1.19.31.22.62.44.94.65l.04-.02s.03.02.05.03l-.03.02c.26.16.53.32.79.47.35.2.7.39,1.04.57.27.14.53.26.8.38.14.07.28.14.42.2.08.03.15.08.23.11.42.19.84.36,1.26.51.1.04.2.06.3.1.1.04.2.07.3.1.17.06.35.12.52.17.35.1.69.19,1.03.27.06.01.12.02.19.04.07.02.13.03.2.04.19.04.39.08.58.12.31.05.61.1.91.13.07,0,.14,0,.21.02.06,0,.12,0,.19.01.16.01.32.03.48.04.29.01.57.02.84.01.1,0,.19-.01.29-.02.06,0,.13,0,.19-.01.11,0,.23,0,.34-.02.27-.02.54-.06.8-.1.13-.02.25-.05.37-.07.06-.01.12-.02.18-.04.08-.02.16-.03.23-.05.26-.06.52-.13.78-.22.14-.04.27-.1.4-.15.06-.02.12-.04.18-.07.06-.02.13-.04.19-.07.26-.11.52-.23.77-.35.15-.08.3-.16.44-.24l4.94-2.87c-.45.26-.91.48-1.4.66Z"/>
          <polygon class="cls-50" points="43.67 43 48.61 40.13 64.86 60.32 59.91 63.2 43.67 43"/>
          <polygon class="cls-62" points="43.73 20.23 48.67 17.36 48.61 40.13 43.67 43 43.73 20.23"/>
          <path class="cls-69" d="m69.32,66.11c.21-.36.42-.71.61-1.1.14-.29.27-.6.39-.91.17-.39.33-.79.47-1.21.11-.33.21-.68.31-1.03.12-.43.24-.87.34-1.33.08-.37.15-.76.22-1.14.08-.47.15-.95.21-1.45.05-.41.08-.82.12-1.24.02-.26.06-.5.07-.76.02-.49.04-1,.04-1.51,0-.42,0-.85-.02-1.27-.02-.47-.06-.94-.09-1.41-.01-.2-.02-.4-.04-.6,0-.08,0-.16-.01-.24-.06-.66-.14-1.32-.23-1.99-.03-.18-.06-.37-.09-.55-.03-.17-.05-.34-.08-.51-.04-.25-.08-.5-.12-.74-.1-.56-.22-1.12-.34-1.68-.03-.12-.06-.24-.09-.36-.03-.12-.06-.25-.09-.37-.07-.3-.14-.6-.21-.9-.13-.52-.28-1.05-.43-1.57-.04-.13-.08-.26-.12-.39-.03-.11-.07-.23-.1-.34-.08-.27-.16-.54-.25-.81-.16-.51-.33-1.01-.51-1.52-.06-.18-.13-.36-.2-.53-.04-.12-.09-.23-.13-.35-.08-.2-.15-.41-.23-.61-.19-.5-.39-1-.6-1.49-.1-.24-.21-.48-.31-.72-.05-.11-.1-.23-.15-.34-.06-.14-.12-.29-.19-.43-.22-.5-.46-1-.69-1.49-.14-.3-.3-.6-.45-.89-.05-.1-.1-.2-.15-.3-.05-.1-.1-.2-.15-.3-.26-.5-.53-1.01-.8-1.5-.18-.33-.37-.65-.55-.98-.05-.1-.11-.19-.16-.29-.05-.08-.09-.16-.14-.24-.3-.52-.61-1.03-.93-1.54-.18-.29-.37-.57-.55-.85-.09-.13-.17-.27-.26-.4-.08-.12-.15-.24-.23-.36-.38-.58-.78-1.14-1.18-1.7-.1-.13-.2-.26-.29-.39-.16-.21-.32-.42-.47-.63-.23-.3-.45-.61-.68-.91-.17-.22-.36-.42-.53-.64-.42-.53-.85-1.04-1.29-1.55-.19-.22-.37-.46-.56-.67-.23-.26-.47-.5-.7-.76-.18-.19-.36-.39-.54-.58-.69-.72-1.39-1.43-2.1-2.1-.08-.08-.17-.15-.25-.22-.65-.6-1.3-1.17-1.97-1.72-.2-.17-.41-.33-.61-.5-.19-.15-.37-.31-.57-.46-.55-.43-1.11-.83-1.67-1.22-.04-.03-.08-.05-.12-.08-.49-.34-.99-.67-1.49-.99-.35-.22-.7-.43-1.05-.63-.42-.24-.84-.47-1.25-.69-.01,0-.02-.01-.04-.02-.55-.29-1.1-.55-1.64-.79-.06-.02-.11-.06-.17-.08-.11-.05-.21-.08-.32-.13-.33-.14-.66-.27-.99-.4-.09-.04-.19-.08-.28-.11-.08-.03-.17-.05-.25-.08-.27-.1-.55-.19-.82-.27-.12-.04-.24-.08-.36-.12-.06-.02-.13-.03-.19-.05-.23-.07-.45-.12-.67-.18-.14-.04-.28-.08-.42-.11-.06-.01-.11-.02-.17-.03-.21-.05-.41-.09-.62-.13-.14-.03-.29-.06-.43-.09-.06,0-.11-.01-.17-.02-.18-.03-.37-.05-.55-.08-.14-.02-.29-.05-.43-.06-.06,0-.13,0-.19-.01-.17-.02-.34-.03-.51-.04-.13,0-.27-.02-.4-.03-.07,0-.15,0-.22,0-.17,0-.33,0-.5,0-.12,0-.23,0-.35,0-.09,0-.17.01-.25.01-.16,0-.32.02-.48.03-.1,0-.2,0-.3.02-.1,0-.19.03-.29.04-.16.02-.31.04-.47.06-.08.01-.17.02-.25.03-.11.02-.21.04-.31.06-.16.03-.31.06-.46.09-.07.02-.14.03-.21.04-.11.03-.21.06-.32.09-.16.04-.32.08-.47.13-.06.02-.12.03-.18.05-.11.03-.21.08-.32.12-.16.05-.31.11-.47.17-.06.02-.11.04-.17.06-.1.04-.19.09-.29.13-.17.08-.34.15-.51.24-.06.03-.12.05-.18.08-.18.09-.37.19-.54.3l-4.94,2.87c.23-.14.48-.26.72-.38.17-.08.34-.16.51-.24.15-.07.3-.13.45-.19.15-.06.31-.12.47-.17.17-.06.33-.12.5-.17.16-.05.31-.09.47-.13.18-.05.35-.09.53-.13.15-.03.31-.06.46-.09.19-.03.37-.07.56-.09.16-.02.31-.04.47-.06.19-.02.39-.04.58-.05.16-.01.32-.02.48-.03.2,0,.4,0,.6,0,.16,0,.33,0,.5,0,.2,0,.41.02.62.03.17.01.34.02.51.04.21.02.41.05.62.07.18.02.36.05.55.08.2.03.4.07.6.11.2.04.41.08.62.13.19.04.39.1.59.15.22.06.45.11.67.18.18.05.37.11.55.17.27.09.54.17.82.27.18.06.35.13.53.2.33.12.66.26.99.4.16.07.32.14.49.21.54.24,1.09.5,1.64.79.43.22.86.46,1.29.71.86.5,1.71,1.04,2.54,1.62.04.03.09.05.13.08.76.53,1.5,1.1,2.24,1.68.21.16.41.33.61.5.67.55,1.32,1.12,1.97,1.72.08.08.17.15.25.22.72.67,1.42,1.38,2.1,2.1.18.19.36.38.54.58.43.47.85.95,1.27,1.43.44.51.87,1.02,1.29,1.55.41.51.82,1.02,1.21,1.55.16.21.32.42.47.63.59.8,1.16,1.62,1.7,2.45.09.13.17.27.26.4.56.86,1.1,1.74,1.62,2.63.06.1.11.19.16.29.52.91,1.03,1.84,1.5,2.77.05.1.1.2.15.3.47.93.91,1.87,1.33,2.81.05.11.1.23.15.34.41.94.79,1.88,1.14,2.83.04.12.09.23.13.35.35.95.67,1.91.96,2.86.03.11.07.23.1.34.28.96.54,1.91.76,2.87.03.12.06.25.09.37.21.93.39,1.86.55,2.79.03.17.06.34.08.51.14.93.26,1.86.34,2.78.02.2.02.4.04.6.06.9.11,1.8.11,2.68,0,.79-.05,1.53-.11,2.27-.03.42-.07.84-.12,1.24-.06.49-.13.97-.21,1.45-.07.39-.13.77-.22,1.14-.1.46-.22.89-.34,1.33-.1.35-.2.7-.31,1.03-.14.42-.31.82-.47,1.21-.13.31-.25.62-.39.91-.19.38-.4.74-.61,1.1-.15.26-.3.53-.46.78-.24.35-.5.67-.75,1-.17.21-.33.44-.51.64-.3.34-.63.63-.96.93-.16.15-.31.31-.48.45-.51.42-1.04.79-1.61,1.12l4.94-2.87c.56-.33,1.1-.7,1.61-1.12.17-.14.32-.3.48-.45.33-.3.66-.59.96-.93.18-.2.34-.43.51-.64.26-.32.52-.64.75-1,.16-.25.31-.52.46-.78Z"/>
          <path class="cls-34" d="m41.37,12.65c14.29,8.25,25.83,28.24,25.79,44.65-.05,16.42-11.67,23.04-25.95,14.79-14.28-8.24-25.82-28.24-25.78-44.66.05-16.41,11.67-23.03,25.95-14.79Zm-.15,53.39c6.6,3.81,12.49,3.63,16.28.26l-16.3-20.26-16.24,1.4c3.76,7.77,9.64,14.77,16.27,18.6m-18.65-24.5l16.5-1.42.06-22.56c-10.34-4.7-18.41.71-18.45,12.92-.01,3.56.67,7.34,1.88,11.07m21.1,1.46l16.25,20.19c1.25-2.34,1.96-5.33,1.97-8.93.03-12.15-7.9-26.75-18.15-34.03l-.06,22.77"/>
        </g>
      </g>
    </g>
  </g>
</svg>