<svg xmlns="http://www.w3.org/2000/svg" xmlns:xlink="http://www.w3.org/1999/xlink" viewBox="0 0 182.68 150"><defs><style>.cls-1,.cls-2,.cls-3,.cls-4,.cls-5,.cls-58,.cls-59,.cls-60,.cls-61{opacity:0.2;}.cls-1{fill:url(#未命名的渐变_79);}.cls-2,.cls-58{fill:url(#未命名的渐变_79-2);}.cls-2{clip-path:url(#clip-path);}.cls-3,.cls-59{fill:url(#未命名的渐变_79-3);}.cls-3{clip-path:url(#clip-path-2);}.cls-4,.cls-60{fill:url(#未命名的渐变_79-4);}.cls-4{clip-path:url(#clip-path-3);}.cls-5,.cls-61{fill:url(#未命名的渐变_79-5);}.cls-5{clip-path:url(#clip-path-4);}.cls-6,.cls-7{fill:none;}.cls-7{stroke:#fff;stroke-miterlimit:10;stroke-width:0.1px;}.cls-8{isolation:isolate;}.cls-9{opacity:0;}.cls-10{fill:#000714;}.cls-11{opacity:0.1;fill:url(#新建图案);}.cls-12{fill:url(#未命名的渐变_77);}.cls-13{fill:url(#未命名的渐变_77-2);}.cls-14{fill:#ef4f77;}.cls-15{fill:url(#未命名的渐变_66);}.cls-16{fill:url(#未命名的渐变_79-6);}.cls-17{fill:url(#未命名的渐变_9);}.cls-18{fill:url(#未命名的渐变_79-7);}.cls-19{fill:url(#未命名的渐变_66-2);}.cls-20{fill:url(#未命名的渐变_79-8);}.cls-21{fill:url(#未命名的渐变_9-2);}.cls-22{fill:url(#未命名的渐变_79-9);}.cls-23{fill:url(#未命名的渐变_66-3);}.cls-24{fill:url(#未命名的渐变_79-10);}.cls-25{fill:url(#未命名的渐变_9-3);}.cls-26{fill:url(#未命名的渐变_79-11);}.cls-27{fill:url(#未命名的渐变_2);}.cls-28{fill:url(#未命名的渐变_85);}.cls-29{fill:url(#未命名的渐变_75);}.cls-30{fill:url(#未命名的渐变_1847);}.cls-31{fill:url(#未命名的渐变_34);}.cls-32{fill:url(#未命名的渐变_19);}.cls-33{fill:url(#未命名的渐变_36);}.cls-34{fill:url(#未命名的渐变_2-2);}.cls-35{fill:url(#未命名的渐变_44);}.cls-36{fill:url(#未命名的渐变_66-4);}.cls-37{fill:url(#未命名的渐变_79-12);}.cls-38{fill:url(#未命名的渐变_9-4);}.cls-39{fill:url(#未命名的渐变_79-13);}.cls-40{fill:url(#未命名的渐变_30);}.cls-41{fill:#a9b4ce;}.cls-42{fill:url(#未命名的渐变_96);}.cls-43{fill:#fff;}.cls-44{fill:url(#未命名的渐变_19-2);}.cls-45{fill:url(#未命名的渐变_77-3);}.cls-46{fill:url(#未命名的渐变_77-4);}.cls-47{fill:url(#未命名的渐变_143);}.cls-48{fill:url(#未命名的渐变_19-3);}.cls-49{fill:url(#未命名的渐变_19-4);}.cls-50{fill:url(#未命名的渐变_75-2);}.cls-51{fill:url(#未命名的渐变_2-3);}.cls-52{fill:url(#未命名的渐变_30-2);}.cls-53{fill:url(#未命名的渐变_2-4);}.cls-54{fill:#e60049;}.cls-55{fill:#ffd8bd;}.cls-56{fill:url(#未命名的渐变_77-5);}.cls-57{mix-blend-mode:overlay;}.cls-62{clip-path:url(#clip-path-5);}.cls-63{fill:url(#未命名的渐变_79-19);}.cls-64{opacity:0.2;}</style><linearGradient id="未命名的渐变_79" x1="144.06" y1="43.15" x2="150" y2="43.15" gradientUnits="userSpaceOnUse"><stop offset="0" stop-color="#283140"/><stop offset="0.34" stop-color="#232b37"/><stop offset="0.9" stop-color="#15191f"/><stop offset="1" stop-color="#12161a"/></linearGradient><linearGradient id="未命名的渐变_79-2" x1="123.28" y1="56.15" x2="147.87" y2="56.15" xlink:href="#未命名的渐变_79"/><clipPath id="clip-path"><polygon class="cls-1" points="150 37.53 150 48.77 144.06 40.96 150 37.53"/></clipPath><linearGradient id="未命名的渐变_79-3" x1="102.5" y1="68.15" x2="127.08" y2="68.15" xlink:href="#未命名的渐变_79"/><clipPath id="clip-path-2"><polygon class="cls-2" points="123.28 52.97 134.15 67.26 147.87 59.34 137 45.05 123.28 52.97"/></clipPath><linearGradient id="未命名的渐变_79-4" x1="99.17" y1="71.2" x2="88.84" y2="89.1" xlink:href="#未命名的渐变_79"/><clipPath id="clip-path-3"><polygon class="cls-3" points="102.5 64.96 113.36 79.26 127.08 71.34 116.22 57.05 102.5 64.96"/></clipPath><linearGradient id="未命名的渐变_79-5" x1="80.02" y1="84.14" x2="69.68" y2="102.05" xlink:href="#未命名的渐变_79"/><clipPath id="clip-path-4"><polygon class="cls-4" points="81.72 76.96 92.58 91.26 106.3 83.34 95.43 69.04 81.72 76.96"/></clipPath><pattern id="新建图案" data-name="新建图案" width="18.57" height="32.16" patternTransform="translate(1332.9 1203.09)" patternUnits="userSpaceOnUse" viewBox="0 0 18.57 32.16"><rect class="cls-6" width="18.57" height="32.16"/><polyline class="cls-7" points="18.57 21.44 18.57 32.16 18.57 42.88"/><polyline class="cls-7" points="9.29 26.8 18.57 32.16 27.85 37.51 27.85 37.52"/><polyline class="cls-7" points="9.29 37.52 9.29 37.51 18.57 32.16 27.85 26.8"/><polygon class="cls-7" points="27.85 37.52 27.85 26.8 18.57 21.44 9.28 26.8 9.28 37.52 18.57 42.88 27.85 37.52"/><polyline class="cls-7" points="0 21.44 0 32.16 0 42.88"/><polyline class="cls-7" points="-9.28 26.8 0 32.16 9.28 37.51 9.28 37.52"/><polyline class="cls-7" points="-9.28 37.52 -9.28 37.51 0 32.16 9.28 26.8"/><polygon class="cls-7" points="9.28 37.52 9.28 26.8 0 21.44 -9.29 26.8 -9.29 37.52 0 42.88 9.28 37.52"/><polyline class="cls-7" points="18.57 10.72 27.85 16.08 37.13 21.43 37.13 21.44"/><polyline class="cls-7" points="18.57 21.44 18.57 21.43 27.85 16.08 37.13 10.72"/><polygon class="cls-7" points="37.14 21.44 37.14 10.72 27.85 5.36 18.57 10.72 18.57 21.44 27.85 26.8 37.14 21.44"/><polyline class="cls-7" points="9.29 5.36 9.29 16.08 9.29 26.8"/><polyline class="cls-7" points="0.01 10.72 9.29 16.08 18.57 21.43 18.57 21.44"/><polyline class="cls-7" points="0.01 21.44 0.01 21.43 9.29 16.08 18.57 10.72"/><polygon class="cls-7" points="18.57 21.44 18.57 10.72 9.28 5.36 0 10.72 0 21.44 9.28 26.8 18.57 21.44"/><polyline class="cls-7" points="-18.56 10.72 -9.28 16.08 0 21.43 0 21.44"/><polyline class="cls-7" points="-18.56 21.44 -18.56 21.43 -9.28 16.08 0 10.72"/><polygon class="cls-7" points="0 21.44 0 10.72 -9.29 5.36 -18.57 10.72 -18.57 21.44 -9.29 26.8 0 21.44"/><polyline class="cls-7" points="18.57 -10.72 18.57 0 18.57 10.72"/><polyline class="cls-7" points="9.29 -5.36 18.57 0 27.85 5.35 27.85 5.36"/><polyline class="cls-7" points="9.29 5.36 9.29 5.35 18.57 0 27.85 -5.36"/><polygon class="cls-7" points="27.85 5.36 27.85 -5.36 18.57 -10.72 9.28 -5.36 9.28 5.36 18.57 10.72 27.85 5.36"/><polyline class="cls-7" points="0 -10.72 0 0 0 10.72"/><polyline class="cls-7" points="-9.28 -5.36 0 0 9.28 5.35 9.28 5.36"/><polyline class="cls-7" points="-9.28 5.36 -9.28 5.35 0 0 9.28 -5.36"/><polygon class="cls-7" points="9.28 5.36 9.28 -5.36 0 -10.72 -9.29 -5.36 -9.29 5.36 0 10.72 9.28 5.36"/></pattern><linearGradient id="未命名的渐变_77" x1="88.46" y1="106.48" x2="79.82" y2="97.84" gradientUnits="userSpaceOnUse"><stop offset="0" stop-color="#1d242d"/><stop offset="1" stop-color="#596b8c"/></linearGradient><linearGradient id="未命名的渐变_77-2" x1="57.23" y1="119.69" x2="53" y2="112.37" xlink:href="#未命名的渐变_77"/><linearGradient id="未命名的渐变_66" x1="71.6" y1="114.08" x2="80.84" y2="98.08" gradientUnits="userSpaceOnUse"><stop offset="0" stop-color="#283140"/><stop offset="0.25" stop-color="#171c23"/><stop offset="0.5" stop-color="#12161a"/><stop offset="1" stop-color="#2d3848"/></linearGradient><linearGradient id="未命名的渐变_79-6" x1="75.84" y1="116.45" x2="85.05" y2="100.49" xlink:href="#未命名的渐变_79"/><linearGradient id="未命名的渐变_9" x1="77.64" y1="108.61" x2="83.25" y2="108.61" gradientUnits="userSpaceOnUse"><stop offset="0" stop-color="#283140"/><stop offset="0.5" stop-color="#7a98cc"/><stop offset="1" stop-color="#12161a"/></linearGradient><linearGradient id="未命名的渐变_79-7" x1="79.09" y1="108.61" x2="81.8" y2="108.61" xlink:href="#未命名的渐变_79"/><linearGradient id="未命名的渐变_66-2" x1="131.78" y1="79.6" x2="141.03" y2="63.6" xlink:href="#未命名的渐变_66"/><linearGradient id="未命名的渐变_79-8" x1="136.02" y1="81.97" x2="145.24" y2="66.01" xlink:href="#未命名的渐变_79"/><linearGradient id="未命名的渐变_9-2" x1="137.82" y1="74.13" x2="143.44" y2="74.13" xlink:href="#未命名的渐变_9"/><linearGradient id="未命名的渐变_79-9" x1="139.27" y1="74.13" x2="141.99" y2="74.13" xlink:href="#未命名的渐变_79"/><linearGradient id="未命名的渐变_66-3" x1="117.62" y1="87.9" x2="126.86" y2="71.89" xlink:href="#未命名的渐变_66"/><linearGradient id="未命名的渐变_79-10" x1="121.86" y1="90.26" x2="131.08" y2="74.3" xlink:href="#未命名的渐变_79"/><linearGradient id="未命名的渐变_9-3" x1="123.66" y1="82.42" x2="129.27" y2="82.42" xlink:href="#未命名的渐变_9"/><linearGradient id="未命名的渐变_79-11" x1="125.11" y1="82.42" x2="127.82" y2="82.42" xlink:href="#未命名的渐变_79"/><linearGradient id="未命名的渐变_2" x1="35.79" y1="46.06" x2="150" y2="46.06" gradientUnits="userSpaceOnUse"><stop offset="0" stop-color="#f9fbff"/><stop offset="1" stop-color="#e4e9f0"/></linearGradient><linearGradient id="未命名的渐变_85" x1="37.79" y1="46.06" x2="148" y2="46.06" gradientUnits="userSpaceOnUse"><stop offset="0" stop-color="#e4e9f0"/><stop offset="1" stop-color="#f9fbff"/></linearGradient><linearGradient id="未命名的渐变_75" x1="51.62" y1="111.57" x2="51.62" y2="60.65" gradientUnits="userSpaceOnUse"><stop offset="0" stop-color="#c2cbd6"/><stop offset="1" stop-color="#929cb3"/></linearGradient><linearGradient id="未命名的渐变_1847" x1="35.79" y1="72.7" x2="67.45" y2="72.7" gradientUnits="userSpaceOnUse"><stop offset="0" stop-color="#d3dbe6"/><stop offset="1" stop-color="#eef3fa"/></linearGradient><linearGradient id="未命名的渐变_34" x1="67.45" y1="71.47" x2="150" y2="71.47" gradientUnits="userSpaceOnUse"><stop offset="0" stop-color="#a1aebf"/><stop offset="1" stop-color="#7e8aa6"/></linearGradient><linearGradient id="未命名的渐变_19" x1="118.29" y1="23.31" x2="148.09" y2="23.31" gradientUnits="userSpaceOnUse"><stop offset="0" stop-color="#b3becc"/><stop offset="1" stop-color="#d3dae6"/></linearGradient><linearGradient id="未命名的渐变_36" x1="46.76" y1="69.58" x2="110.21" y2="6.12" gradientUnits="userSpaceOnUse"><stop offset="0" stop-color="#7e8aa6"/><stop offset="1" stop-color="#a1aebf"/></linearGradient><linearGradient id="未命名的渐变_2-2" x1="5.29" y1="87.9" x2="64.41" y2="87.9" xlink:href="#未命名的渐变_2"/><linearGradient id="未命名的渐变_44" x1="16.22" y1="107.41" x2="25.18" y2="91.89" gradientUnits="userSpaceOnUse"><stop offset="0" stop-color="#b3becc"/><stop offset="1" stop-color="#eff3f7"/></linearGradient><linearGradient id="未命名的渐变_66-4" x1="43.22" y1="130.13" x2="52.46" y2="114.12" xlink:href="#未命名的渐变_66"/><linearGradient id="未命名的渐变_79-12" x1="46.03" y1="124.51" x2="58.1" y2="124.51" xlink:href="#未命名的渐变_79"/><linearGradient id="未命名的渐变_9-4" x1="49.26" y1="124.65" x2="54.87" y2="124.65" xlink:href="#未命名的渐变_9"/><linearGradient id="未命名的渐变_79-13" x1="50.71" y1="124.65" x2="53.42" y2="124.65" xlink:href="#未命名的渐变_79"/><linearGradient id="未命名的渐变_30" x1="30.07" y1="129.65" x2="69.52" y2="90.21" gradientUnits="userSpaceOnUse"><stop offset="0" stop-color="#a1aebf"/><stop offset="1" stop-color="#8891a6"/></linearGradient><linearGradient id="未命名的渐变_96" x1="43.19" y1="120.66" x2="59.21" y2="120.66" gradientUnits="userSpaceOnUse"><stop offset="0" stop-color="#abb3bc"/><stop offset="1" stop-color="#7d869a"/></linearGradient><linearGradient id="未命名的渐变_19-2" x1="1.97" y1="116.25" x2="33.69" y2="116.25" xlink:href="#未命名的渐变_19"/><linearGradient id="未命名的渐变_77-3" x1="7.27" y1="116.1" x2="28.47" y2="116.1" xlink:href="#未命名的渐变_77"/><linearGradient id="未命名的渐变_77-4" x1="4.02" y1="99.64" x2="36.61" y2="99.64" xlink:href="#未命名的渐变_77"/><linearGradient id="未命名的渐变_143" x1="16.55" y1="106.25" x2="24.11" y2="93.16" gradientUnits="userSpaceOnUse"><stop offset="0" stop-color="#c8dcfa" stop-opacity="0.4"/><stop offset="0.1" stop-color="#cbdcf4" stop-opacity="0.29"/><stop offset="0.22" stop-color="#cedbef" stop-opacity="0.18"/><stop offset="0.36" stop-color="#d0dbeb" stop-opacity="0.1"/><stop offset="0.51" stop-color="#d2dbe8" stop-opacity="0.04"/><stop offset="0.69" stop-color="#d3dbe7" stop-opacity="0.01"/><stop offset="1" stop-color="#d3dbe6" stop-opacity="0"/></linearGradient><linearGradient id="未命名的渐变_19-3" x1="28.25" y1="133.58" x2="33.8" y2="133.58" xlink:href="#未命名的渐变_19"/><linearGradient id="未命名的渐变_19-4" x1="0" y1="117.26" x2="5.48" y2="117.26" xlink:href="#未命名的渐变_19"/><linearGradient id="未命名的渐变_75-2" x1="5.48" y1="125.43" x2="28.29" y2="125.43" xlink:href="#未命名的渐变_75"/><linearGradient id="未命名的渐变_2-3" x1="9.32" y1="125.23" x2="23.72" y2="125.23" xlink:href="#未命名的渐变_2"/><linearGradient id="未命名的渐变_30-2" x1="33.41" y1="136.49" x2="40.52" y2="129.38" xlink:href="#未命名的渐变_30"/><linearGradient id="未命名的渐变_2-4" x1="0" y1="123.25" x2="39.76" y2="123.25" xlink:href="#未命名的渐变_2"/><linearGradient id="未命名的渐变_77-5" x1="34.73" y1="113.56" x2="49.33" y2="98.96" xlink:href="#未命名的渐变_77"/><clipPath id="clip-path-5"><polygon class="cls-5" points="85.52 95.34 71.8 103.27 67.45 97.54 67.45 85.2 74.65 81.04 85.52 95.34"/></clipPath><linearGradient id="未命名的渐变_79-19" x1="62.73" y1="53.97" x2="-22.73" y2="185.04" gradientTransform="matrix(0.77, 0.48, -0.43, 0.88, 148.21, -45.99)" xlink:href="#未命名的渐变_79"/></defs><title>货车1</title><g class="cls-8"><g id="图层_2" data-name="图层 2"><g id="图元"><g id="货车1"><g class="cls-9"><rect class="cls-10" width="150" height="150"/><rect id="网格" class="cls-11" width="150" height="150"/></g><polygon class="cls-12" points="80.82 96.84 87.46 100.68 87.46 107.48 80.82 103.64 80.82 96.84"/><path class="cls-13" d="M58.46,119l-4.63-2.8-3.12-2.49s2.48-.92,2.71-1.06S59.66,114.62,58.46,119Z"/><polygon class="cls-14" points="33.02 66.91 33.02 97.35 36.45 95.13 10.05 79.93 33.02 66.91"/><polygon class="cls-14" points="27.53 100.27 2.04 114.99 2.04 99.21 5.29 88.21 27.53 100.27"/><path class="cls-15" d="M79.41,110.46a16.09,16.09,0,0,0,2-4.48l2.7-6L80,97.64h0a3.82,3.82,0,0,0-4,.25c-3.33,1.92-6,7.08-6,11.53,0,2.61.93,4.38,2.38,5l4.27,2.41Z"/><path class="cls-16" d="M80.44,100.42c-3.33,1.93-6,7.09-6,11.53s2.7,6.49,6,4.56,6-7.08,6-11.52S83.78,98.5,80.44,100.42Z"/><path class="cls-17" d="M83.25,107a6.71,6.71,0,0,1-2.81,5.36c-1.55.9-2.8,0-2.8-2.12a6.71,6.71,0,0,1,2.8-5.36C82,104,83.25,104.92,83.25,107Z"/><path class="cls-18" d="M81.8,107.83a3.24,3.24,0,0,1-1.36,2.59c-.75.43-1.35,0-1.35-1a3.26,3.26,0,0,1,1.35-2.59C81.19,106.37,81.8,106.83,81.8,107.83Z"/><path class="cls-19" d="M139.6,76a16.07,16.07,0,0,0,2-4.48l2.71-6-4.18-2.34h0a3.81,3.81,0,0,0-4,.25c-3.34,1.92-6,7.08-6,11.53,0,2.61.94,4.38,2.38,5l4.28,2.41Z"/><path class="cls-20" d="M140.63,65.94c-3.33,1.93-6,7.09-6,11.53s2.7,6.49,6,4.56,6-7.08,6-11.52S144,64,140.63,65.94Z"/><path class="cls-21" d="M143.44,72.51a6.71,6.71,0,0,1-2.81,5.36c-1.55.9-2.81-.05-2.81-2.12a6.72,6.72,0,0,1,2.81-5.36C142.18,69.49,143.44,70.44,143.44,72.51Z"/><path class="cls-22" d="M142,73.35a3.24,3.24,0,0,1-1.36,2.59c-.75.43-1.36,0-1.36-1a3.26,3.26,0,0,1,1.36-2.59C141.38,71.89,142,72.35,142,73.35Z"/><path class="cls-23" d="M125.44,84.27a16.07,16.07,0,0,0,2-4.48l2.7-6L126,71.46h0a3.82,3.82,0,0,0-4,.25c-3.33,1.93-6,7.09-6,11.53,0,2.61.94,4.38,2.38,5l4.28,2.4Z"/><path class="cls-24" d="M126.47,74.24c-3.33,1.92-6,7.08-6,11.53s2.71,6.48,6,4.56,6-7.09,6-11.53S129.8,72.31,126.47,74.24Z"/><path class="cls-25" d="M129.27,80.8a6.73,6.73,0,0,1-2.8,5.37c-1.55.89-2.81-.06-2.81-2.13a6.74,6.74,0,0,1,2.81-5.36C128,77.79,129.27,78.74,129.27,80.8Z"/><path class="cls-26" d="M127.82,81.64a3.23,3.23,0,0,1-1.35,2.59c-.75.44-1.36,0-1.36-1a3.27,3.27,0,0,1,1.36-2.6C127.22,80.18,127.82,80.64,127.82,81.64Z"/><polygon class="cls-27" points="67.45 78.93 150 31.48 118.34 13.19 35.79 60.65 67.45 78.93"/><polygon class="cls-28" points="37.79 60.65 118.34 14.35 148 31.47 67.45 77.78 37.79 60.65"/><polygon class="cls-29" points="35.78 60.65 35.78 87.89 35.78 91.19 35.78 93.3 67.45 111.57 67.45 109.46 67.45 106.18 67.45 78.93 35.78 60.65"/><polygon class="cls-30" points="35.78 60.65 35.78 66.48 67.45 84.75 67.45 78.93 35.78 60.65"/><polygon class="cls-31" points="150 31.38 150 64.13 67.45 111.57 67.45 78.84 150 31.38"/><g class="cls-8"><polygon class="cls-32" points="118.29 14.21 118.3 15.89 146.64 32.41 148.09 31.58 118.29 14.21"/><polygon class="cls-33" points="118.29 14.21 37.83 60.65 39.3 61.5 118.3 15.89 118.29 14.21"/></g><path class="cls-34" d="M64.41,85.11,32.75,66.82,10.05,79.93,9.93,80a7.7,7.7,0,0,0-3.55,4.5L5.29,88.21l22.24,12.06,16,8.71,1-9.17-2.83-1.62Z"/><path class="cls-35" d="M7.56,82.13,40,100.46l-6.35,17L2,99.22S5.28,87.75,6.72,83.59A10.55,10.55,0,0,1,7.56,82.13Z"/><path class="cls-36" d="M51,126.5a16.07,16.07,0,0,0,2-4.48l2.7-6-4.18-2.34h0a3.8,3.8,0,0,0-4,.24c-3.33,1.93-6,7.09-6,11.53,0,2.61.94,4.38,2.38,5l4.28,2.4Z"/><path class="cls-37" d="M52.07,116.47c-3.33,1.92-6,7.08-6,11.53s2.71,6.48,6,4.56,6-7.09,6-11.53S55.4,114.54,52.07,116.47Z"/><path class="cls-38" d="M54.87,123a6.73,6.73,0,0,1-2.8,5.37c-1.55.89-2.81-.06-2.81-2.12a6.74,6.74,0,0,1,2.81-5.37C53.62,120,54.87,121,54.87,123Z"/><path class="cls-39" d="M53.42,123.87a3.23,3.23,0,0,1-1.35,2.59c-.75.44-1.36,0-1.36-1a3.24,3.24,0,0,1,1.36-2.59C52.82,122.41,53.42,122.87,53.42,123.87Z"/><path class="cls-40" d="M64.41,85.11,41.58,98.29a7.73,7.73,0,0,0-3.54,4.5L33.69,117.5v15.78l9.5-5.49c.78-5.39,4.07-11,8-13.27s7.23-.46,8,4l5.2-3Z"/><polygon class="cls-41" points="48.22 116.92 48.22 94.47 48.88 94.09 48.88 116.92 48.22 116.92"/><path class="cls-42" d="M51.2,115.33c-3.57,2.06-6.55,7.14-7.26,12l-.75.43c.78-5.39,4.07-11,8-13.27s7.23-.46,8,4l-.75.43C57.75,114.91,54.77,113.27,51.2,115.33Z"/><polygon class="cls-43" points="2.04 99.22 33.7 117.5 33.7 118.74 2.04 100.47 2.04 99.22"/><polygon class="cls-41" points="64.41 99.76 33.7 117.5 33.7 118.74 64.41 101.01 64.41 99.76"/><polygon class="cls-44" points="2.04 99.22 2.04 102.68 1.98 102.64 1.98 111.21 2.04 111.25 2.04 115 33.7 133.28 33.7 129.52 33.7 120.98 33.7 117.5 2.04 99.22"/><path class="cls-45" d="M28.46,119.89a3.65,3.65,0,0,0-.22-1.06,3.37,3.37,0,0,0-1.31-1.77L8.81,106.6a.89.89,0,0,0-1.32.25,1.69,1.69,0,0,0-.22.81v4.53a2.64,2.64,0,0,0,0,.29,3.64,3.64,0,0,0,.28,1.1,3.29,3.29,0,0,0,1.24,1.56L26.93,125.6a.89.89,0,0,0,1.23-.13,1.54,1.54,0,0,0,.29-.77,2.28,2.28,0,0,0,0-.27V120S28.46,119.93,28.46,119.89Z"/><path class="cls-46" d="M36.51,102.69a.11.11,0,0,0,0,0l-3,10.21-.13.43a1.77,1.77,0,0,1-2.58,1l-7.28-4.19-3-1.75-3.78-2.17-.95-.55L5.58,99.94a3.09,3.09,0,0,1-1.42-3.6l.08-.28L7.46,85.49a1.22,1.22,0,0,1,1.21-.86,1.24,1.24,0,0,1,.55.16L20.2,91,25,93.65l1.79,1,6.87,3.86,1.52.86A2.93,2.93,0,0,1,36.51,102.69Z"/><path class="cls-47" d="M25,93.65l-4.52,14.83-3.78-2.17-.95-.55c0-.08,0-.16.07-.24l.12-.44L20.2,91Z"/><polygon class="cls-48" points="33.8 133.53 33.73 136.81 28.25 133.64 28.3 130.36 33.8 133.53"/><polygon class="cls-49" points="0 114.06 5.48 117.22 5.48 120.46 0 117.29 0 114.06"/><polygon class="cls-50" points="28.3 130.36 28.25 133.64 5.48 120.46 5.48 117.22 28.3 130.36"/><polygon class="cls-51" points="9.32 120.1 23.72 128.4 23.68 130.35 9.32 122.04 9.32 120.1"/><path class="cls-52" d="M37.7,130.61l.07.63-4.05,2.34v3.23l4.05-2.34a2.11,2.11,0,0,0,.36-.27h0a3.27,3.27,0,0,0,1.63-2.52v-3.06Z"/><path class="cls-53" d="M39.76,128.62l-6,3.49L2,113.81v-.89l-2,1.14,33.72,19.52,4.17-2.41a3.81,3.81,0,0,0,1.64-1.48Z"/><path class="cls-54" d="M25,130.12a2,2,0,0,0,.85,1.62c.47.27.85,0,.85-.64a2,2,0,0,0-.85-1.62C25.37,129.21,25,129.5,25,130.12Z"/><path class="cls-55" d="M26.18,131.59a.43.43,0,0,1-.22-.07,1.78,1.78,0,0,1-.72-1.4c0-.23.07-.49.26-.49a.37.37,0,0,1,.21.07,1.74,1.74,0,0,1,.73,1.4.74.74,0,0,1-.1.4A.19.19,0,0,1,26.18,131.59Z"/><path class="cls-54" d="M6.42,119.4A2,2,0,0,0,7.27,121c.46.27.84,0,.84-.64a2,2,0,0,0-.84-1.62C6.8,118.48,6.42,118.77,6.42,119.4Z"/><path class="cls-55" d="M7.6,120.87a.4.4,0,0,1-.21-.07,1.79,1.79,0,0,1-.72-1.4c0-.23.07-.5.26-.5a.52.52,0,0,1,.21.07,1.8,1.8,0,0,1,.72,1.41.74.74,0,0,1-.09.4A.19.19,0,0,1,7.6,120.87Z"/><path class="cls-56" d="M39,103.07a6.7,6.7,0,0,1,3.08-3.92l4.39-2.53a.5.5,0,0,1,.75.43v11.19a.52.52,0,0,1-.25.44l-10.53,6.07a.5.5,0,0,1-.73-.57Z"/><g class="cls-57"><polygon class="cls-1" points="150 37.53 150 48.77 144.06 40.96 150 37.53"/><polygon class="cls-58" points="123.28 52.97 134.15 67.26 147.87 59.34 137 45.05 123.28 52.97"/><polygon class="cls-59" points="102.5 64.96 113.36 79.26 127.08 71.34 116.22 57.05 102.5 64.96"/><polygon class="cls-60" points="81.72 76.96 92.58 91.26 106.3 83.34 95.43 69.04 81.72 76.96"/><polygon class="cls-61" points="85.52 95.34 71.8 103.27 67.45 97.54 67.45 85.2 74.65 81.04 85.52 95.34"/><g class="cls-62"><rect class="cls-63" x="45.08" y="46.02" width="135.26" height="44.53" transform="translate(-18.96 63.03) rotate(-28.92)"/></g></g></g></g></g></g></svg>