<svg xmlns="http://www.w3.org/2000/svg" xmlns:xlink="http://www.w3.org/1999/xlink" viewBox="0 0 150 150"><defs><style>.cls-1,.cls-2{fill:none;}.cls-2{stroke:#fff;stroke-miterlimit:10;stroke-width:0.1px;}.cls-3{opacity:0;}.cls-4{fill:#000714;}.cls-5{opacity:0.1;fill:url(#新建图案);}.cls-6{fill:url(#未命名的渐变_142);}.cls-7{isolation:isolate;}.cls-8{fill:url(#未命名的渐变_55);}.cls-9{fill:url(#未命名的渐变_54);}.cls-10{fill:url(#未命名的渐变_78);}.cls-11{fill:url(#未命名的渐变_91);}.cls-12{fill:url(#未命名的渐变_91-2);}.cls-13{fill:url(#未命名的渐变_67);}.cls-14{fill:url(#未命名的渐变_64);}.cls-15{fill:url(#未命名的渐变_55-2);}.cls-16{fill:url(#未命名的渐变_118);}.cls-17{fill:url(#未命名的渐变_155);}.cls-18{fill:url(#未命名的渐变_64-2);}.cls-19{fill:url(#未命名的渐变_55-3);}.cls-20{fill:url(#未命名的渐变_118-2);}.cls-21{fill:url(#未命名的渐变_64-3);}.cls-22{fill:url(#未命名的渐变_55-4);}.cls-23{fill:url(#未命名的渐变_67-2);}.cls-24{opacity:0.2;}</style><pattern id="新建图案" data-name="新建图案" width="18.57" height="32.16" patternTransform="translate(3247.15 917.05)" patternUnits="userSpaceOnUse" viewBox="0 0 18.57 32.16"><rect class="cls-1" width="18.57" height="32.16"/><polyline class="cls-2" points="18.57 21.44 18.57 32.16 18.57 42.88"/><polyline class="cls-2" points="9.29 26.8 18.57 32.16 27.85 37.51 27.85 37.52"/><polyline class="cls-2" points="9.29 37.52 9.29 37.51 18.57 32.16 27.85 26.8"/><polygon class="cls-2" points="27.85 37.52 27.85 26.8 18.57 21.44 9.28 26.8 9.28 37.52 18.57 42.88 27.85 37.52"/><polyline class="cls-2" points="0 21.44 0 32.16 0 42.88"/><polyline class="cls-2" points="-9.28 26.8 0 32.16 9.28 37.51 9.28 37.52"/><polyline class="cls-2" points="-9.28 37.52 -9.28 37.51 0 32.16 9.28 26.8"/><polygon class="cls-2" points="9.28 37.52 9.28 26.8 0 21.44 -9.29 26.8 -9.29 37.52 0 42.88 9.28 37.52"/><polyline class="cls-2" points="18.57 10.72 27.85 16.08 37.13 21.43 37.13 21.44"/><polyline class="cls-2" points="18.57 21.44 18.57 21.43 27.85 16.08 37.13 10.72"/><polygon class="cls-2" points="37.14 21.44 37.14 10.72 27.85 5.36 18.57 10.72 18.57 21.44 27.85 26.8 37.14 21.44"/><polyline class="cls-2" points="9.29 5.36 9.29 16.08 9.29 26.8"/><polyline class="cls-2" points="0.01 10.72 9.29 16.08 18.57 21.43 18.57 21.44"/><polyline class="cls-2" points="0.01 21.44 0.01 21.43 9.29 16.08 18.57 10.72"/><polygon class="cls-2" points="18.57 21.44 18.57 10.72 9.28 5.36 0 10.72 0 21.44 9.28 26.8 18.57 21.44"/><polyline class="cls-2" points="-18.56 10.72 -9.28 16.08 0 21.43 0 21.44"/><polyline class="cls-2" points="-18.56 21.44 -18.56 21.43 -9.28 16.08 0 10.72"/><polygon class="cls-2" points="0 21.44 0 10.72 -9.29 5.36 -18.57 10.72 -18.57 21.44 -9.29 26.8 0 21.44"/><polyline class="cls-2" points="18.57 -10.72 18.57 0 18.57 10.72"/><polyline class="cls-2" points="9.29 -5.36 18.57 0 27.85 5.35 27.85 5.36"/><polyline class="cls-2" points="9.29 5.36 9.29 5.35 18.57 0 27.85 -5.36"/><polygon class="cls-2" points="27.85 5.36 27.85 -5.36 18.57 -10.72 9.28 -5.36 9.28 5.36 18.57 10.72 27.85 5.36"/><polyline class="cls-2" points="0 -10.72 0 0 0 10.72"/><polyline class="cls-2" points="-9.28 -5.36 0 0 9.28 5.35 9.28 5.36"/><polyline class="cls-2" points="-9.28 5.36 -9.28 5.35 0 0 9.28 -5.36"/><polygon class="cls-2" points="9.28 5.36 9.28 -5.36 0 -10.72 -9.29 -5.36 -9.29 5.36 0 10.72 9.28 5.36"/></pattern><linearGradient id="未命名的渐变_142" x1="0.18" y1="72.53" x2="143.53" y2="72.53" gradientUnits="userSpaceOnUse"><stop offset="0" stop-color="#143ccc"/><stop offset="1" stop-color="#4eb2fa"/><stop offset="1" stop-color="#4aaff9"/><stop offset="1" stop-color="#3ea5f6"/><stop offset="1" stop-color="#2994f1"/><stop offset="1" stop-color="#0d7de9"/><stop offset="1" stop-color="#0073e6"/></linearGradient><linearGradient id="未命名的渐变_55" x1="37.85" y1="114.1" x2="105.82" y2="114.1" gradientUnits="userSpaceOnUse"><stop offset="0" stop-color="#0073e6"/><stop offset="0.15" stop-color="#1433cc"/><stop offset="0.75" stop-color="#59c8ff"/><stop offset="0.85" stop-color="#59c8ff"/><stop offset="1" stop-color="#0073e6"/></linearGradient><linearGradient id="未命名的渐变_54" x1="30.76" y1="135.73" x2="112.93" y2="135.73" gradientUnits="userSpaceOnUse"><stop offset="0" stop-color="#0073e6"/><stop offset="0.15" stop-color="#59c8ff"/><stop offset="0.25" stop-color="#59c8ff"/><stop offset="0.85" stop-color="#1433cc"/><stop offset="1" stop-color="#0073e6"/></linearGradient><linearGradient id="未命名的渐变_78" x1="30.77" y1="121.59" x2="112.93" y2="121.59" gradientUnits="userSpaceOnUse"><stop offset="0" stop-color="#8ce2ff"/><stop offset="1" stop-color="#44b6ff"/></linearGradient><linearGradient id="未命名的渐变_91" x1="5.98" y1="27.66" x2="63.88" y2="27.66" gradientUnits="userSpaceOnUse"><stop offset="0" stop-color="#0073e6"/><stop offset="0.4" stop-color="#59c8ff"/><stop offset="0.6" stop-color="#59c8ff"/><stop offset="1" stop-color="#0073e6"/></linearGradient><linearGradient id="未命名的渐变_91-2" x1="0.1" y1="27.17" x2="69.39" y2="27.17" xlink:href="#未命名的渐变_91"/><linearGradient id="未命名的渐变_67" x1="3.46" y1="29.68" x2="69.61" y2="29.68" gradientUnits="userSpaceOnUse"><stop offset="0" stop-color="#0073e6"/><stop offset="1" stop-color="#143ccc"/></linearGradient><linearGradient id="未命名的渐变_64" x1="123.88" y1="76.99" x2="94.14" y2="25.49" gradientUnits="userSpaceOnUse"><stop offset="0" stop-color="#0073e6"/><stop offset="0.15" stop-color="#59c8ff"/><stop offset="0.25" stop-color="#59c8ff"/><stop offset="0.85" stop-color="#1433cc"/></linearGradient><linearGradient id="未命名的渐变_55-2" x1="144.04" y1="73.55" x2="107.2" y2="9.75" xlink:href="#未命名的渐变_55"/><linearGradient id="未命名的渐变_118" x1="139.9" y1="73.58" x2="88.96" y2="22.64" gradientUnits="userSpaceOnUse"><stop offset="0" stop-color="#2f77eb"/><stop offset="1" stop-color="#59c8ff"/></linearGradient><radialGradient id="未命名的渐变_155" cx="52.28" cy="53.35" r="101.99" gradientUnits="userSpaceOnUse"><stop offset="0" stop-color="#59c8ff"/><stop offset="0.1" stop-color="#55bffc"/><stop offset="0.25" stop-color="#4aa7f4"/><stop offset="0.45" stop-color="#3880e6"/><stop offset="0.67" stop-color="#1f4bd4"/><stop offset="0.76" stop-color="#1433cc"/><stop offset="0.82" stop-color="#1337ce"/><stop offset="0.88" stop-color="#0f43d3"/><stop offset="0.94" stop-color="#0858db"/><stop offset="0.94" stop-color="#0858db"/></radialGradient><linearGradient id="未命名的渐变_64-2" x1="36.14" y1="127.8" x2="6.4" y2="76.29" xlink:href="#未命名的渐变_64"/><linearGradient id="未命名的渐变_55-3" x1="56.3" y1="124.35" x2="19.47" y2="60.54" xlink:href="#未命名的渐变_55"/><linearGradient id="未命名的渐变_118-2" x1="52.16" y1="124.38" x2="1.22" y2="73.45" xlink:href="#未命名的渐变_118"/><linearGradient id="未命名的渐变_64-3" x1="132.04" y1="101.13" x2="124.93" y2="33.42" xlink:href="#未命名的渐变_64"/><linearGradient id="未命名的渐变_55-4" x1="103.88" y1="111.17" x2="95.29" y2="29.37" xlink:href="#未命名的渐变_55"/><linearGradient id="未命名的渐变_67-2" x1="90.99" y1="94.53" x2="142.94" y2="42.58" xlink:href="#未命名的渐变_67"/></defs><title>轮毂</title><g id="图层_2" data-name="图层 2"><g id="图元"><g id="轮毂"><g id="背景" class="cls-3"><rect class="cls-4" width="150" height="150"/><rect id="网格" class="cls-5" width="150" height="150"/></g><path class="cls-6" d="M143.44,68.85v0c0-.73-.08-1.44-.14-2.18-.08-1.16-.23-2.32-.37-3.45-.28-2.19-.68-4.34-1.16-6.46-.29-1.32-.65-2.61-1-3.9h0v0c-.54-1.93-1.15-3.83-1.86-5.68-.34-.93-.71-1.81-1.1-2.72-.32-.73-.66-1.5-1-2.24-.22-.51-.48-1-.7-1.47a67.93,67.93,0,0,0-3.89-6.8,15.3,15.3,0,0,0-.93-1.39,21.48,21.48,0,0,0-1.39-2,66.6,66.6,0,0,0-8-9.23c-.54-.57-1.1-1.08-1.67-1.62s-.88-.79-1.33-1.16c-.6-.54-1.22-1.08-1.87-1.56a.5.5,0,0,0-.17-.14c-.82-.71-1.65-1.33-2.52-2s-1.87-1.36-2.84-2A71.15,71.15,0,0,0,71.85.86c-1,0-1.9,0-2.86.06s-1.7.08-2.55.17-1.56.11-2.32.19a2.53,2.53,0,0,0-.46.06c-.87.09-1.75.2-2.63.34l-.34,0c-.91.14-1.84.31-2.75.51-.23,0-.42.06-.65.11-2.24,1-4.9,2.44-7.9,4.22A237,237,0,0,0,10,36.3c-.77,1.3-1.51,2.64-2.19,4-.28.54-.53,1.08-.82,1.62C6.29,43.47,5.61,45,5,46.61c0,0,0,.09-.06.14-.25.66-.51,1.34-.73,2-.51,1.47-1,2.94-1.39,4.44S2,56.3,1.68,57.89c-.12.48-.2,1-.29,1.5s-.17.93-.25,1.42-.17,1-.23,1.5c-.14,1-.28,1.92-.37,2.92S.35,67.29.29,68.34c0,.29,0,.54,0,.82C.2,70.27.18,71.4.18,72.53a68.32,68.32,0,0,0,.53,8.62v0a71.47,71.47,0,0,0,29,49.35s0,0,.06,0h0l2.29,1.61a0,0,0,0,0,0,0,24.64,24.64,0,0,0,2.1,1.33,62.87,62.87,0,0,0,6.71,3.65q1.74.85,3.57,1.62c1.19.48,2.41,1,3.66,1.39.93.34,1.92.65,2.89.93,1.58.51,3.2.94,4.84,1.31,1.93.45,3.88.79,5.87,1.07a69.64,69.64,0,0,0,10.08.71c1.42,0,2.81,0,4.17-.11,2.06-.14,4.13-.34,6.14-.63a71,71,0,0,0,7.91-1.61c1.1-.28,2.21-.6,3.31-1a10.73,10.73,0,0,0,1.05-.32c.94-.31,1.84-.65,2.75-1a61.49,61.49,0,0,0,5.92-2.52h0s0,0,.05,0,.06,0,.06,0a66.85,66.85,0,0,0,8.42-4.85c1.19-.79,2.38-1.64,3.51-2.52.48-.37,1-.74,1.44-1.13a71.12,71.12,0,0,0,12.3-12.58c.42-.57.88-1.13,1.27-1.73a69.76,69.76,0,0,0,3.86-6c.42-.7.82-1.44,1.21-2.18,0,0,0,0,.06-.11.77-1.47,1.5-3,2.18-4.56.06-.11.12-.26.17-.37.34-.76.65-1.56,1-2.35s.7-1.84,1-2.78.62-1.87.9-2.83.57-1.9.8-2.86c.17-.71.34-1.42.51-2.16.11-.51.22-1,.31-1.52.37-1.85.65-3.72.85-5.59.14-.93.22-1.87.28-2.8V78c.09-.9.14-1.81.17-2.72s.06-1.84.06-2.75C143.53,71.29,143.5,70.07,143.44,68.85ZM43.52,123.19l0,0a12.43,12.43,0,0,1-5.35.37c.93-4.14,4.11-8.16,9.57-11.31,0,0,0,0,.06,0C47.54,117.16,46,120.87,43.52,123.19ZM97.38,32.48c.2-4.91,1.75-8.65,4.25-11h0c3.57-1.1,8-.39,12.87,2.38a31.42,31.42,0,0,1,5.35,3.94,45.5,45.5,0,0,1,8.7,10.46,50.1,50.1,0,0,1,3,5.63v0a40,40,0,0,1,3.94,16.38c0,5.49-1.65,9.63-4.34,12.12-3.54,1.11-8,.4-12.83-2.38-9-5.24-16.77-16.26-19.75-27.22a34.12,34.12,0,0,1-1.24-7.88,10.09,10.09,0,0,1-.06-1.33A6.89,6.89,0,0,1,97.38,32.48Z"/><g class="cls-7"><path class="cls-8" d="M105.82,121.68v4.62a13,13,0,0,0-.23-2.32v0c-.88-4.25-4.13-8.39-9.8-11.67-10.6-6.12-26.43-7.37-39.12-3.71A36.17,36.17,0,0,0,52.59,110a33.44,33.44,0,0,0-4.82,2.3s0,0-.06,0c-5.46,3.14-8.64,7.16-9.57,11.3,0,.06,0,.14,0,.2v0a10.76,10.76,0,0,0-.26,2.09l0-2.35v-2.07c0-.31,0-.62,0-.93a11.66,11.66,0,0,1,.23-1.42,10.61,10.61,0,0,1,.37-1.39,15.94,15.94,0,0,1,.73-1.81A17,17,0,0,1,41,113.24a19.32,19.32,0,0,1,1.5-1.67,24.79,24.79,0,0,1,5.1-3.83.44.44,0,0,0,.11-.08c.71-.4,1.45-.79,2.21-1.16.34-.14.66-.31,1-.46s.68-.31,1-.42a18.25,18.25,0,0,1,1.73-.68c.43-.17.88-.34,1.33-.48s.71-.23,1.08-.34a50.53,50.53,0,0,1,6.32-1.48c.93-.14,1.87-.25,2.83-.36.74-.09,1.47-.17,2.21-.2a12.58,12.58,0,0,1,1.5-.09c.94,0,1.87-.08,2.81-.08a53.72,53.72,0,0,1,6.49.37,49.75,49.75,0,0,1,6.31,1.07,48.42,48.42,0,0,1,5.92,1.79,38.26,38.26,0,0,1,5.36,2.52C102.5,111.54,105.85,116.61,105.82,121.68Z"/><path class="cls-9" d="M101,138.41c-16,9.29-42,9.29-58.09,0-8.1-4.68-12.14-10.81-12.13-16.94v4.62c0,6.13,4,12.26,12.13,16.94C59,152.32,85,152.32,101,143c7.94-4.62,11.92-10.66,11.94-16.71V121.7C112.91,127.75,108.94,133.79,101,138.41Z"/><path class="cls-10" d="M106,108.42s0,0,0,0a31.48,31.48,0,0,0-5.16-3.63A46.89,46.89,0,0,0,95,102c-11.87-4.73-27.06-5.43-39.89-2.12-1.45.37-2.89.79-4.28,1.27s-2.77,1-4.08,1.62a39.79,39.79,0,0,0-4,2C35,109.25,31,115.05,30.8,120.92a3.89,3.89,0,0,0,0,.59c0,.37,0,.77.06,1.14a9.4,9.4,0,0,0,.14,1.16c.09.48.17,1,.31,1.44s.23.74.37,1.11.2.56.31.85a18,18,0,0,0,2.67,4.36c.17.2.34.43.53.62a19.64,19.64,0,0,0,1.33,1.45l.74.68A7.12,7.12,0,0,0,38,135l.29.25c.56.46,1.13.91,1.75,1.33.29.2.57.4.88.6a.83.83,0,0,0,.12.08s0,0,0,0l.09.06c.54.37,1.1.71,1.7,1.05,16.09,9.32,42.1,9.32,58.1,0,.54-.31,1-.63,1.56-1a.41.41,0,0,0,.17-.11,1.15,1.15,0,0,0,.37-.25h0s0,0,.05,0,.06,0,.06-.06c.4-.25.77-.51,1.11-.76.68-.51,1.3-1,1.87-1.53.36-.32.7-.66,1-1a19.53,19.53,0,0,0,1.87-2l0,0a19.72,19.72,0,0,0,2.07-3.2,12.63,12.63,0,0,0,.94-2.21c.08-.29.17-.54.25-.83a2.08,2.08,0,0,0,.11-.48,7.72,7.72,0,0,0,.2-.93,6.69,6.69,0,0,0,.14-1.14c0-.36.06-.76.06-1.13C113,117.09,110.64,112.45,106,108.42Zm-.4,15.53v0c-.88,4.22-4.08,8.3-9.63,11.53-13.2,7.68-34.76,7.68-48.08,0a26,26,0,0,1-5-3.71,16.06,16.06,0,0,1-4.19-6,9.47,9.47,0,0,1-.54-2v0a.39.39,0,0,1-.06-.2,8.63,8.63,0,0,1-.17-1.1v-.37a9,9,0,0,1,0-1.56,11.66,11.66,0,0,1,.23-1.42,10.61,10.61,0,0,1,.37-1.39,9.27,9.27,0,0,1,.73-1.81A17,17,0,0,1,41,113.24a19.32,19.32,0,0,1,1.5-1.67,24.79,24.79,0,0,1,5.1-3.83.44.44,0,0,0,.11-.08c.71-.4,1.45-.79,2.21-1.16.34-.14.66-.31,1-.46s.68-.31,1-.42a18.25,18.25,0,0,1,1.73-.68c.43-.17.88-.34,1.33-.48s.71-.23,1.08-.34a50.53,50.53,0,0,1,6.32-1.48c.93-.14,1.87-.25,2.83-.36.74-.09,1.47-.17,2.21-.2a12.58,12.58,0,0,1,1.5-.09c.94,0,1.87-.08,2.81-.08a53.72,53.72,0,0,1,6.49.37,49.75,49.75,0,0,1,6.31,1.07,48.42,48.42,0,0,1,5.92,1.79,38.26,38.26,0,0,1,5.36,2.52c6.68,3.88,10,9,10,14A12.48,12.48,0,0,1,105.59,124Z"/></g><g class="cls-7"><path class="cls-11" d="M63.83,9.52c.32,1-.79,3.06-3.45,6.15-7.4,8.5-24.11,21.7-37.26,29.44C16.47,49,12,50.8,10.12,50.49l-.28-.09a.84.84,0,0,1-.32-.14.67.67,0,0,1-.28-.34l-2-2.69L6,45.62c.34.45,1.14.53,2.35.28a19.1,19.1,0,0,0,3.49-1.13,0,0,0,0,1,0,0,73.74,73.74,0,0,0,7.9-4.11C32.9,32.92,49.61,19.69,57,11.19c.34-.39.65-.76.93-1.13A18.81,18.81,0,0,0,60,7.11c.57-1.1.68-1.89.34-2.32l1.19,1.59,2.15,2.89s0,.05.06.08Z"/><path class="cls-12" d="M69.39,5a.64.64,0,0,0-.2-.2,0,0,0,0,1,0,0,1.3,1.3,0,0,0-.51-.2,2.8,2.8,0,0,0-.74-.08,18,18,0,0,0-6.37,1.89c-.48.23-1,.49-1.53.74-2.1,1-4.53,2.29-7.25,3.91C37.2,20.18,17.57,35.62,8.33,45.9l-.62.71a4.7,4.7,0,0,0-.51.63c-.54.59-1,1.16-1.36,1.67C4.23,51,3.46,52.59,3.46,53.58a.92.92,0,0,0,.12.51s0,.09,0,.12a.22.22,0,0,0,.06.14l-.85-1.14L.32,49.87c-.77-1,.48-3.63,4.05-7.73C5.93,40.35,7.82,38.37,10,36.3A237,237,0,0,1,49.39,6.55c3-1.78,5.66-3.17,7.9-4.22C62.19,0,65.19-.56,66,.52l.42.57Z"/><path class="cls-13" d="M69.19,4.8a0,0,0,0,1,0,0,2,2,0,0,0-.51-.2,2.8,2.8,0,0,0-.74-.08,18,18,0,0,0-6.37,1.89c-.48.23-1,.49-1.53.74-2.1,1-4.53,2.29-7.25,3.91C37.2,20.18,17.57,35.62,8.33,45.9l-.62.71a4.7,4.7,0,0,0-.51.63c-.54.59-1,1.16-1.36,1.67C4.23,51,3.46,52.59,3.46,53.58a.92.92,0,0,0,.12.51s0,.09,0,.12c.91,1.84,6.8-.06,16.69-5.87C36.24,39,56.38,23,65.34,12.73,69.16,8.34,70.35,5.68,69.19,4.8ZM60.38,15.68C53,24.17,36.27,37.38,23.12,45.11c-6.65,3.91-11.16,5.7-13,5.38a1.58,1.58,0,0,1-.28-.08,1.34,1.34,0,0,1-.32-.14.71.71,0,0,1-.28-.34c-.37-.85.45-2.58,2.58-5.16a0,0,0,0,1,0,0,11.11,11.11,0,0,1,.82-1C20.09,35.2,36.81,22,50,14.23a71.16,71.16,0,0,1,8-4.16c3.2-1.31,5.19-1.59,5.75-.8,0,0,0,.06.06.09s.06.11.08.17C64.15,10.55,63,12.59,60.38,15.68Z"/></g><g class="cls-7"><path class="cls-14" d="M133.36,71.51l-3.52,2s0,0,0,0-.06,0-.09.06a1.43,1.43,0,0,1-.37.19c-.31.17-.62.34-1,.49l-.2.08a1.41,1.41,0,0,1-.31.14,5.51,5.51,0,0,1-1,.34l-.26.06a7.49,7.49,0,0,1-1.07.2,1.4,1.4,0,0,1-.34,0,11,11,0,0,1-1.42.09,19.2,19.2,0,0,1-9.43-2.89c-.63-.37-1.25-.74-1.85-1.16l-.85-.6a2.93,2.93,0,0,1-.36-.28c-.06-.06-.15-.11-.2-.17a14,14,0,0,1-1.31-1s0,0-.08-.06a.47.47,0,0,1-.14-.14c-.63-.51-1.22-1.05-1.82-1.61a49.64,49.64,0,0,1-3.59-3.88c-.54-.66-1.05-1.31-1.56-2S101.51,59.87,101,59c-.11-.14-.19-.31-.28-.45a48.64,48.64,0,0,1-2.55-4.42c-.37-.71-.71-1.44-1-2.18a14.71,14.71,0,0,1-.62-1.47,8.23,8.23,0,0,1-.43-1.05,10.13,10.13,0,0,1-.48-1.33,1.72,1.72,0,0,1-.11-.29,3.73,3.73,0,0,1-.2-.56,2.09,2.09,0,0,1-.08-.23c-.17-.54-.34-1.08-.49-1.61a4.64,4.64,0,0,1-.11-.51c-.17-.63-.34-1.22-.45-1.82A29.25,29.25,0,0,1,93.5,39v0a8.77,8.77,0,0,1-.09-1.22c-.06-.63-.08-1.22-.08-1.84v-.48c0-.37,0-.71,0-1.05s.06-.88.12-1.28a18.58,18.58,0,0,1,.39-2.35,6.77,6.77,0,0,1,.31-1.1c.09-.23.15-.49.23-.68v-.06s0-.06,0-.09a11.25,11.25,0,0,1,.59-1.41c0-.06,0-.12.09-.14s.06-.15.08-.2a4.73,4.73,0,0,1,.43-.8s0,0,0,0a5.69,5.69,0,0,1,.51-.77,0,0,0,0,1,0,0,.35.35,0,0,1,0-.08,4.08,4.08,0,0,1,.57-.74,2.61,2.61,0,0,1,.28-.31,7,7,0,0,1,.77-.77s0,0,0,0l0,0a.74.74,0,0,1,.23-.2l.11-.09,0,0a8.52,8.52,0,0,1,1.16-.8s0,0,.06,0l3.94-2.29a10.78,10.78,0,0,0-1.85,1.39h0c-2.5,2.35-4,6.09-4.25,11a7,7,0,0,0-.06,1.13,10.24,10.24,0,0,0,.06,1.34,34,34,0,0,0,1.24,7.87c3,11,10.71,22,19.75,27.23,4.82,2.77,9.29,3.48,12.83,2.38A8.39,8.39,0,0,0,133.36,71.51Z"/><path class="cls-15" d="M118.52,15.77c-7.26-4.19-13.85-4.58-18.6-1.82l-4,2.32c4.75-2.76,11.33-2.37,18.6,1.82,14.41,8.32,26.08,28.53,26,45.11,0,8.24-2.93,14-7.62,16.76l4-2.32c4.68-2.73,7.59-8.52,7.61-16.76C144.6,44.3,132.94,24.09,118.52,15.77Z"/><path class="cls-16" d="M140.38,59.75c0-.45-.08-.93-.14-1.39a30.49,30.49,0,0,0-.51-3.23c-.06-.36-.14-.7-.23-1a15.21,15.21,0,0,0-.39-1.68,5.18,5.18,0,0,0-.14-.53c-.09-.4-.2-.77-.32-1.16s-.31-1-.48-1.53c-.28-.85-.56-1.68-.88-2.53a0,0,0,0,1,0,0v0s0,0,0-.06v-.06l0,0a8.45,8.45,0,0,0-.43-1.11l-.68-1.61c-.45-1.08-1-2.13-1.5-3.18-.22-.42-.45-.88-.71-1.33,0-.08-.08-.14-.11-.23-.37-.68-.76-1.36-1.16-2s-.74-1.25-1.13-1.87l-1-1.53c-.12-.17-.23-.37-.37-.54-.6-.85-1.19-1.7-1.81-2.52a1.07,1.07,0,0,1-.15-.17c-.76-1-1.55-1.9-2.32-2.81s-1.56-1.67-2.35-2.46a7.07,7.07,0,0,0-.74-.71c-.34-.34-.68-.65-1-1-.56-.53-1.16-1-1.73-1.5s-1.19-1-1.78-1.39-1.22-.87-1.84-1.27-1.22-.79-1.84-1.16c-1-.6-2.07-1.11-3.06-1.56a.1.1,0,0,1-.06,0c-.51-.22-1-.39-1.47-.59s-1-.34-1.45-.48a17.56,17.56,0,0,0-4.19-.83,15.78,15.78,0,0,0-2.75,0,4.46,4.46,0,0,0-.88.09h0a13.46,13.46,0,0,0-1.36.25.75.75,0,0,0-.34.09,7.06,7.06,0,0,0-1,.34c-.12.06-.26.08-.37.14a1,1,0,0,0-.37.17,4.38,4.38,0,0,0-.79.37,2.2,2.2,0,0,0-.46.23C91.23,19,88.34,24.79,88.31,33a38.35,38.35,0,0,0,.74,7.53,37.14,37.14,0,0,0,.85,3.74v0a55.05,55.05,0,0,0,2.8,8c4.65,10.71,12.61,20.6,21.65,25.81,7.48,4.33,14.25,4.59,19,1.53,0,0,0,0,.06,0a5.77,5.77,0,0,0,.54-.37,13.75,13.75,0,0,0,1.16-1,2.61,2.61,0,0,0,.45-.43l.12-.11c.25-.28.54-.57.79-.91s.62-.79.91-1.21.37-.63.56-1c0-.05.06-.08.09-.14.14-.25.25-.54.4-.82a18.65,18.65,0,0,0,1.47-4.51,4.1,4.1,0,0,0,.17-.82c.06-.25.08-.54.14-.82,0-.11,0-.22.06-.37a1.71,1.71,0,0,0,0-.39,13.69,13.69,0,0,0,.14-1.45,5.78,5.78,0,0,0,0-.93.06.06,0,0,0,0-.06,8.78,8.78,0,0,0,.05-1.16A34.23,34.23,0,0,0,140.38,59.75ZM131.2,72.42a9.62,9.62,0,0,1-1.36,1.1s0,0,0,0-.06,0-.09.06a1.43,1.43,0,0,1-.37.19,4.58,4.58,0,0,1-1,.49l-.2.08a1.41,1.41,0,0,1-.31.14,5.51,5.51,0,0,1-1,.34l-.26.06a7.49,7.49,0,0,1-1.07.2,1.4,1.4,0,0,1-.34,0,11,11,0,0,1-1.42.09,19.2,19.2,0,0,1-9.43-2.89c-.63-.37-1.25-.74-1.85-1.16l-.85-.6a2.93,2.93,0,0,1-.36-.28c-.06-.06-.15-.11-.2-.17a14,14,0,0,1-1.31-1s0,0-.08-.06a.47.47,0,0,1-.14-.14c-.63-.51-1.22-1.05-1.82-1.61a49.64,49.64,0,0,1-3.59-3.88c-.54-.66-1.05-1.31-1.56-2S101.51,59.87,101,59c-.11-.14-.19-.31-.28-.45a48.64,48.64,0,0,1-2.55-4.42c-.37-.71-.71-1.44-1-2.18a14.71,14.71,0,0,1-.62-1.47,8.23,8.23,0,0,1-.43-1.05,10.13,10.13,0,0,1-.48-1.33,1.72,1.72,0,0,1-.11-.29,3.73,3.73,0,0,1-.2-.56,2.09,2.09,0,0,1-.08-.23c-.17-.54-.34-1.08-.49-1.61a4.64,4.64,0,0,1-.11-.51c-.17-.63-.34-1.22-.45-1.82A29.25,29.25,0,0,1,93.5,39v0a8.77,8.77,0,0,1-.09-1.22c-.06-.63-.08-1.22-.08-1.84v-.48c0-.37,0-.71,0-1.05s.06-.88.12-1.28a18.58,18.58,0,0,1,.39-2.35,6.77,6.77,0,0,1,.31-1.1c.09-.23.15-.49.23-.68v-.06s0-.06,0-.09a11.25,11.25,0,0,1,.59-1.41c0-.06,0-.12.09-.14s.06-.15.08-.2a4.73,4.73,0,0,1,.43-.8s0,0,0,0a5.69,5.69,0,0,1,.51-.77,0,0,0,0,1,0,0,.35.35,0,0,1,0-.08,4.08,4.08,0,0,1,.57-.74,2.61,2.61,0,0,1,.28-.31,7,7,0,0,1,.77-.77s0,0,0,0l0,0a.74.74,0,0,1,.23-.2l.11-.09,0,0a8.52,8.52,0,0,1,1.16-.8s0,0,.06,0a8.12,8.12,0,0,1,2.07-.9h0c3.57-1.11,8-.4,12.87,2.38a30.89,30.89,0,0,1,5.35,3.94,45.44,45.44,0,0,1,8.7,10.45,49.37,49.37,0,0,1,3,5.64v0a40,40,0,0,1,3.94,16.37C135.51,65.79,133.89,69.92,131.2,72.42Z"/></g><path class="cls-17" d="M143.44,68.85v0c0-.73-.08-1.44-.14-2.18-.08-1.16-.23-2.29-.37-3.45-.28-2.19-.68-4.34-1.16-6.46-.31-1.31-.65-2.61-1-3.88v0a.18.18,0,0,0-.06-.14c-.53-1.9-1.13-3.74-1.81-5.56-.34-.93-.71-1.81-1.1-2.72-.32-.73-.66-1.5-1-2.24-.22-.51-.48-1-.7-1.47a67.93,67.93,0,0,0-3.89-6.8,15.3,15.3,0,0,0-.93-1.39,5.58,5.58,0,0,0-.45-.7c-.29-.43-.6-.85-.94-1.28a66.6,66.6,0,0,0-8-9.23c-.54-.57-1.1-1.08-1.67-1.62s-.88-.79-1.33-1.16c-.6-.54-1.22-1.08-1.87-1.56a.5.5,0,0,0-.17-.14c-.82-.71-1.65-1.33-2.52-2s-1.87-1.36-2.84-2A71.15,71.15,0,0,0,71.85.86c-1,0-1.9,0-2.86.06s-1.7.08-2.55.17-1.56.11-2.32.19a2.53,2.53,0,0,0-.46.06c-.87.09-1.75.2-2.63.34l-.34,0c-.91.14-1.84.31-2.75.51-.23,0-.42.06-.65.11-2.24,1-4.9,2.44-7.9,4.22A237,237,0,0,0,10,36.3c-.77,1.3-1.51,2.64-2.19,4-.28.54-.53,1.08-.82,1.62C6.29,43.47,5.61,45,5,46.61c0,0,0,.09-.06.14-.25.66-.51,1.34-.73,2-.51,1.47-1,2.94-1.39,4.44S2,56.3,1.68,57.89c-.12.48-.2,1-.29,1.5s-.17.93-.25,1.42-.17,1-.23,1.5c-.14,1-.28,1.92-.37,2.92S.35,67.29.29,68.34c0,.29,0,.54,0,.82C.2,70.27.18,71.4.18,72.53a68.32,68.32,0,0,0,.53,8.62v0a71.47,71.47,0,0,0,29,49.35s0,0,.06,0h0l2.29,1.61a0,0,0,0,0,0,0,24.64,24.64,0,0,0,2.1,1.33,60.93,60.93,0,0,0,6.83,3.74s0,0,0,0,.06,0,.09,0c1.07.51,2.18,1,3.31,1.45s2.41,1,3.66,1.39c.93.34,1.92.65,2.89.93,1.58.51,3.2.94,4.84,1.31,1.93.42,3.88.79,5.87,1.07a69.64,69.64,0,0,0,10.08.71c1.42,0,2.81,0,4.17-.11,2.06-.12,4.13-.31,6.14-.63a59.59,59.59,0,0,0,7.91-1.61,28,28,0,0,0,3.31-1,10.73,10.73,0,0,0,1.05-.32c.94-.28,1.84-.62,2.75-1a61.49,61.49,0,0,0,5.92-2.52h0s0,0,.05,0,.06,0,.06,0a66.85,66.85,0,0,0,8.42-4.85c1.19-.79,2.38-1.64,3.51-2.52.48-.37,1-.74,1.44-1.13a71.12,71.12,0,0,0,12.3-12.58c.42-.57.88-1.13,1.27-1.73a69.76,69.76,0,0,0,3.86-6c.42-.7.82-1.44,1.21-2.18,0,0,0,0,.06-.11.77-1.47,1.5-3,2.18-4.56.06-.11.12-.26.17-.37.34-.76.65-1.56,1-2.35s.7-1.84,1-2.78.62-1.87.9-2.83.57-1.9.8-2.86c.17-.71.34-1.42.51-2.16.11-.51.22-1,.31-1.52.37-1.85.65-3.72.85-5.59.11-.87.2-1.78.25-2.66,0-.06,0-.08,0-.14V78c.09-.9.14-1.81.17-2.72s.06-1.84.06-2.75C143.53,71.29,143.5,70.07,143.44,68.85ZM43.52,123.19l0,0a12.43,12.43,0,0,1-5.35.37h-.09a.32.32,0,0,0-.17,0,21.4,21.4,0,0,1-7.08-2.64l-.17-.08C19,114.12,9.55,97.78,9.58,84.43c0-5.49,1.62-9.63,4.31-12.15h0c3.57-1.1,8-.4,12.86,2.38C36,80,43.92,91.52,46.72,102.74a34.42,34.42,0,0,1,.88,5,27.07,27.07,0,0,1,.2,3.34c0,.4,0,.8,0,1.16C47.54,117.16,46,120.87,43.52,123.19Zm97-48.7c-1.3,10.85-6.8,20.6-15.35,25.36a22.47,22.47,0,0,1-7.79,2.63h-.06C107,102.34,97,94.8,92.31,82.22a41.26,41.26,0,0,1,.39-29.88,31.56,31.56,0,0,1,2.58-5.05,31.91,31.91,0,0,1,3.34-4.47,26.41,26.41,0,0,1,6.72-5.36,21.89,21.89,0,0,1,7.85-2.63h.17c6.68.14,13.23,3.37,18.24,9.06v0a35.53,35.53,0,0,1,6.63,11.16,40.35,40.35,0,0,1,2.27,9.3s0,.05,0,.05a.79.79,0,0,1,0,.2.06.06,0,0,1,0,.09A41.48,41.48,0,0,1,140.55,74.49Z"/><g class="cls-7"><path class="cls-18" d="M45.62,122.31l-3.57,2.06a0,0,0,0,1,0,0s-.06,0-.09.06c-.36.2-.73.4-1.1.57a1,1,0,0,1-.37.17l-.37.14s0,0-.05,0a4.44,4.44,0,0,1-.83.25,4.58,4.58,0,0,1-.56.14,3.2,3.2,0,0,1-.8.14,1.28,1.28,0,0,1-.34.06,10.78,10.78,0,0,1-1.41.09,15.83,15.83,0,0,1-4.82-.8l-.51-.17c-.54-.2-1.07-.39-1.61-.65s-.82-.37-1.25-.59-.85-.43-1.27-.68C15,116.44,5.56,100.1,5.59,86.72a17.87,17.87,0,0,1,.08-1.81c0-.11,0-.23,0-.34s0-.34,0-.51A19,19,0,0,1,6,82.13a14.42,14.42,0,0,1,.42-1.72c.06-.2.12-.34.17-.51a12.57,12.57,0,0,1,.57-1.48c0-.08.09-.17.11-.22.12-.26.23-.49.34-.68a0,0,0,0,1,0,0c.14-.26.29-.51.46-.77l.25-.37a4.16,4.16,0,0,1,.57-.7,1.31,1.31,0,0,1,.25-.32A1.76,1.76,0,0,1,9.5,75a3.66,3.66,0,0,1,.59-.59,6,6,0,0,1,1-.77,6.54,6.54,0,0,1,.71-.45s0,0,.06,0l3.94-2.29a10.65,10.65,0,0,0-1.84,1.38h0C11.2,74.8,9.61,78.93,9.58,84.43c0,13.34,9.41,29.69,21,36.4l.17.09a21.59,21.59,0,0,0,7.08,2.63.32.32,0,0,1,.17,0h.09a12.27,12.27,0,0,0,5.35-.37l0,0A7.9,7.9,0,0,0,45.62,122.31Z"/><path class="cls-19" d="M30.78,66.57c-7.26-4.19-13.84-4.58-18.6-1.82l-4,2.32c4.75-2.76,11.34-2.37,18.6,1.82,14.42,8.32,26.08,28.53,26,45.11,0,8.24-2.93,14-7.62,16.76l4-2.32c4.69-2.73,7.59-8.52,7.62-16.76C56.86,95.1,45.2,74.89,30.78,66.57Z"/><path class="cls-20" d="M52.76,112c0-.68-.09-1.36-.17-2s-.17-1.45-.29-2.18-.22-1.42-.37-2.16l-.08-.34c-.11-.62-.28-1.27-.45-1.92s-.4-1.47-.6-2.24c-.17-.57-.37-1.13-.56-1.7s-.37-1.08-.57-1.61c-.26-.68-.51-1.36-.79-2s-.57-1.34-.88-2-.71-1.53-1.11-2.29S46,89.79,45.56,89c-.28-.51-.57-1-.88-1.53l-.08-.14c-.91-1.51-1.84-3-2.86-4.34-.51-.71-1-1.39-1.56-2.07s-1.08-1.33-1.65-2-.87-1-1.33-1.47A19.12,19.12,0,0,0,35.81,76,17,17,0,0,0,34.6,74.8a1.89,1.89,0,0,0-.2-.2c-.37-.34-.74-.68-1.11-1a.55.55,0,0,0-.17-.14c-.56-.48-1.13-.94-1.7-1.39-.36-.28-.7-.57-1.07-.82l-1.11-.76s-.08-.09-.14-.12a6.17,6.17,0,0,0-.91-.59c-.45-.31-.93-.6-1.41-.88a31.71,31.71,0,0,0-3.12-1.59c-.51-.22-1-.42-1.53-.62-.25-.11-.48-.17-.71-.26s-.51-.14-.73-.22-.57-.17-.85-.23-.68-.2-1-.25l-1-.17a15.79,15.79,0,0,0-4.47-.15,1.93,1.93,0,0,0-.6.09h0a.17.17,0,0,0-.11,0h-.08a6.92,6.92,0,0,0-.77.14c-.06,0-.14,0-.2.06l-.39.08s-.06,0-.09,0-.06,0-.08,0a3.84,3.84,0,0,0-.77.25s0,0-.06,0a2.43,2.43,0,0,0-.76.31.17.17,0,0,0-.11.06l-.12,0a3.25,3.25,0,0,0-.56.28,2.2,2.2,0,0,0-.46.23C4,69.5,1.28,74.35.71,81.15v0a20.65,20.65,0,0,0-.14,2.66c0,16.57,11.62,36.77,26,45.1,1.05.6,2.09,1.13,3.11,1.59,0,0,0,0,.06,0h0c.68.28,1.3.53,2,.76a19.63,19.63,0,0,0,3.38.88h0a15,15,0,0,0,7.68-.4,11,11,0,0,0,2.75-1.3h0s0,0,0,0,0,0,.05,0c.29-.2.57-.37.85-.59a12.8,12.8,0,0,0,1.31-1.16l.11-.12c.25-.28.54-.56.79-.9s.63-.8.91-1.22.62-1,.91-1.62c.19-.42.39-.85.56-1.27a2,2,0,0,0,.09-.2c.17-.48.37-1,.51-1.5a15.6,15.6,0,0,0,.45-1.79c.11-.53.23-1.1.31-1.67a.89.89,0,0,0,0-.28c.08-.62.17-1.3.2-2s.08-1.41.08-2.15v-.11C52.81,113.27,52.78,112.62,52.76,112Zm-5,.25c-.23,4.91-1.78,8.62-4.25,10.94l0,0a8,8,0,0,1-1.44,1.16,0,0,0,0,1,0,0s-.06,0-.09,0c-.36.2-.73.4-1.1.57a.84.84,0,0,1-.37.17,2.61,2.61,0,0,1-.37.14s0,0-.05,0a4.46,4.46,0,0,1-.83.26c-.19.05-.39.11-.56.14a4.47,4.47,0,0,1-.8.14,1.28,1.28,0,0,1-.34.06,12.89,12.89,0,0,1-1.41.08,15.81,15.81,0,0,1-4.82-.79l-.51-.17c-.54-.2-1.07-.4-1.61-.65s-.82-.37-1.25-.6a13.09,13.09,0,0,1-1.27-.68C15,116.45,5.56,100.1,5.59,86.73a17.48,17.48,0,0,1,.08-1.81c0-.12,0-.23,0-.34s0-.34,0-.51A18.53,18.53,0,0,1,6,82.14a14.59,14.59,0,0,1,.42-1.73c.06-.2.12-.34.17-.51a12.42,12.42,0,0,1,.57-1.47c0-.09.09-.17.11-.23.12-.25.23-.48.34-.68a0,0,0,0,1,0,0c.14-.25.29-.51.46-.76l.25-.37A4.23,4.23,0,0,1,9,75.65a1.26,1.26,0,0,1,.25-.31A1.46,1.46,0,0,1,9.5,75a3.36,3.36,0,0,1,.59-.6,5.94,5.94,0,0,1,1-.76c.23-.17.46-.31.71-.46,0,0,0,0,.06,0a7.81,7.81,0,0,1,2.07-.91h0c3.57-1.1,8-.4,12.86,2.38C36,80,43.92,91.52,46.72,102.74a34.42,34.42,0,0,1,.88,5,27.07,27.07,0,0,1,.2,3.34C47.8,111.49,47.8,111.89,47.77,112.25Z"/></g><g class="cls-7"><path class="cls-21" d="M143.92,74.06c0,.51-.11,1-.19,1.53v.11a.22.22,0,0,1,0,.14c-.12.71-.23,1.45-.4,2.16v0c0,.06,0,.09,0,.15-.08.39-.2.82-.31,1.21-.14.57-.28,1.11-.45,1.68,0,.08,0,.14-.06.22a14,14,0,0,1-.51,1.59,1.67,1.67,0,0,0-.08.2.09.09,0,0,1,0,.08c-.17.48-.34,1-.54,1.42,0,.05-.06.14-.09.2-.11.28-.25.53-.36.82-.23.54-.49,1.07-.77,1.61s-.68,1.31-1,2c-.28.48-.56.93-.88,1.39s-.42.62-.65.93-.51.74-.79,1.08a1.15,1.15,0,0,0-.14.17c-.4.51-.82,1-1.25,1.47A25.23,25.23,0,0,1,132.36,97a7.39,7.39,0,0,1-.79.62,0,0,0,0,1,0,0c-.17.14-.34.25-.51.37a8.43,8.43,0,0,1-1.07.73,14.37,14.37,0,0,1-1.39.85,13.93,13.93,0,0,1-1.33.68c-.54.26-1.11.51-1.65.71,0,0,0,0,0,0l-.14,0-.85.29a12.33,12.33,0,0,1-1.28.37c-.48.14-1,.25-1.44.34a8.51,8.51,0,0,1-1.11.17,1.81,1.81,0,0,1-.51.08c-.42.06-.82.09-1.22.11h-.14a5.78,5.78,0,0,1-.71,0l-1.67.12c.28-.06.6-.09.88-.15h.06a22.06,22.06,0,0,0,7.79-2.63c8.55-4.76,14-14.51,15.35-25.36a41.48,41.48,0,0,0,0-9.77s0-.06,0-.08a.75.75,0,0,0,0-.2.06.06,0,0,0,0-.06,40.27,40.27,0,0,0-2.27-9.29,35.53,35.53,0,0,0-6.63-11.16v0c-5-5.7-11.56-8.93-18.24-9.07h-.17a11.36,11.36,0,0,0-1.65,0l3.15-.17a9.16,9.16,0,0,1,.93,0h.68c.62,0,1.22,0,1.84.08h.12c.51.06,1,.11,1.5.2l.11,0a5.4,5.4,0,0,1,.74.14,10.21,10.21,0,0,1,1.3.31s.09,0,.11,0l.12,0s0,0,0,0a1.55,1.55,0,0,1,.23,0A11.33,11.33,0,0,1,124,36a31.24,31.24,0,0,1,3.34,1.5c.43.23.85.49,1.28.77s.71.45,1.08.71.93.65,1.41,1a10,10,0,0,1,1.13.93l0,0a10.24,10.24,0,0,1,1,.94c.34.31.65.65,1,1,.51.54,1,1.1,1.51,1.67s1,1.25,1.47,1.93l0,0v.06s0,0,0,.06,0,0,0,0c.17.23.32.46.49.68s.42.63.62.94a33.94,33.94,0,0,1,2.24,4.28.18.18,0,0,1,.05.11.2.2,0,0,1,.06.14v0a20.76,20.76,0,0,1,.85,2c.34.88.62,1.78.91,2.69a.73.73,0,0,0,.05.2c.23.82.46,1.64.63,2.49a5.17,5.17,0,0,1,.11.54c0,.09,0,.17.06.26a1.74,1.74,0,0,1,0,.39c.12.6.23,1.19.32,1.76a1,1,0,0,1,0,.23c.06.31.09.65.15,1,0,.08,0,.17,0,.25a13.09,13.09,0,0,1,.15,1.56v0A37.75,37.75,0,0,1,143.92,74.06Z"/><path class="cls-22" d="M119.19,109.56l-3.17.2a26.88,26.88,0,0,1-10-1.34s0,0,0,0A30.87,30.87,0,0,1,95,102,41.49,41.49,0,0,1,83.78,85.25C78,69.7,80.46,52.19,89.05,40.57a34.87,34.87,0,0,1,4.28-4.87,30.68,30.68,0,0,1,4-3.23c.71-.45,1.41-.91,2.15-1.3a26.9,26.9,0,0,1,11.59-3.43l2.94-.17a.42.42,0,0,0-.19,0c-.37,0-.74,0-1.11.11-.68.09-1.33.2-2,.34-.34.06-.68.14-1,.23s-.4.08-.6.14c-.45.14-.9.25-1.33.42a13.54,13.54,0,0,0-1.64.6,4.75,4.75,0,0,0-.82.34c-.26.11-.51.25-.8.37-.53.25-1.07.54-1.61.82-.74.42-1.47.85-2.18,1.33l-.23.14c-.42.29-.82.6-1.22.91a8.65,8.65,0,0,0-1,.76c-.34.29-.65.54-1,.83s-.54.45-.8.7c-.42.4-.85.82-1.24,1.25a11.57,11.57,0,0,0-.94,1c-.31.34-.59.68-.9,1.05v0c-.2.23-.4.49-.57.71A14.85,14.85,0,0,0,92,40.94c-.48.65-.9,1.33-1.36,2a1.2,1.2,0,0,0-.11.2c-.23.37-.45.74-.65,1.13v0a17.71,17.71,0,0,0-1.22,2.32s-.06.06-.06.09-.11.25-.17.37a25.21,25.21,0,0,0-1.07,2.49c-.17.37-.29.74-.43,1.13a10.32,10.32,0,0,0-.4,1.14,8.13,8.13,0,0,0-.34,1s0,.08,0,.11c-.2.57-.34,1.13-.49,1.73a.32.32,0,0,0,0,.14,1.91,1.91,0,0,0-.17.62.11.11,0,0,0,0,.09c-.12.39-.2.79-.29,1.19s-.19.79-.25,1.19c0,.14-.06.25-.09.37a1.06,1.06,0,0,0,0,.25l-.17,1c-.06.34-.12.68-.15,1-.11.74-.19,1.47-.25,2.21s-.11,1.19-.14,1.76a51.11,51.11,0,0,0,.68,11.73c.25,1.47.59,2.91,1,4.39s.85,2.92,1.39,4.33c.34.94.73,1.87,1.13,2.75l.09.17s0,.06,0,.08c.23.54.49,1,.74,1.53l.09.17a7.26,7.26,0,0,0,.45.88c.34.65.68,1.28,1,1.87,0,0,0,0,0,.06a10.9,10.9,0,0,0,.68,1.08,37.07,37.07,0,0,0,2.46,3.45c.34.43.68.85,1,1.25.06.06.08.11.14.17a10.76,10.76,0,0,0,1,1.08,34.83,34.83,0,0,0,3.83,3.51c.62.48,1.24.93,1.9,1.36a11,11,0,0,0,1.47.93,7.17,7.17,0,0,0,1.22.71c.59.34,1.19.62,1.78.91s1.11.48,1.65.68a7.26,7.26,0,0,0,1.16.42,18.75,18.75,0,0,0,2.89.82,8.17,8.17,0,0,0,1.44.29c.51.08,1,.14,1.48.2a6.64,6.64,0,0,0,1.24.11,5.16,5.16,0,0,0,.68,0A18.9,18.9,0,0,0,119.19,109.56Z"/><path class="cls-23" d="M146.76,52a42.61,42.61,0,0,0-8-13.54,33.11,33.11,0,0,0-7.9-6.69,25.61,25.61,0,0,0-2.67-1.44,26.24,26.24,0,0,0-8.27-2.55,24.54,24.54,0,0,0-5.81-.23.42.42,0,0,0-.19,0c-.37,0-.74,0-1.11.11-.68.09-1.33.2-2,.34-.34.06-.68.14-1,.23s-.4.08-.6.14c-.45.14-.9.25-1.33.42a16.09,16.09,0,0,0-1.64.6,5.5,5.5,0,0,0-.82.34c-.26.11-.51.25-.8.37-.53.25-1.07.54-1.61.82-.74.42-1.47.85-2.18,1.33l-.23.14c-.42.29-.82.6-1.22.91l-1,.76c-.34.29-.65.54-1,.83s-.54.45-.8.7c-.42.4-.85.82-1.24,1.25s-.63.68-.94,1-.59.68-.9,1.05v0c-.2.23-.4.49-.57.71A14.85,14.85,0,0,0,92,40.94c-.48.65-.9,1.33-1.36,2a1.2,1.2,0,0,0-.11.2c-.23.37-.43.74-.65,1.13v0c-.43.77-.85,1.53-1.22,2.32,0,0-.06.06-.06.09s-.11.25-.17.37c-.39.82-.73,1.64-1.07,2.49-.17.37-.29.74-.43,1.13s-.25.77-.4,1.14a8.13,8.13,0,0,0-.34,1s0,.08,0,.11c-.2.57-.34,1.13-.49,1.73a.32.32,0,0,0,0,.14,1.91,1.91,0,0,0-.17.62.11.11,0,0,0,0,.09c-.09.39-.2.79-.29,1.19s-.19.79-.25,1.19c0,.14-.06.25-.09.37a1.06,1.06,0,0,0,0,.25l-.17,1c-.06.34-.12.68-.15,1-.11.74-.19,1.47-.25,2.21s-.11,1.19-.14,1.76a51.11,51.11,0,0,0,.68,11.73c.28,1.47.59,2.94,1,4.39s.85,2.92,1.39,4.33c.34.94.73,1.87,1.13,2.75l.09.17s0,.06,0,.08c.23.54.49,1,.74,1.53l.09.17a7.26,7.26,0,0,0,.45.88c.34.65.68,1.28,1,1.87,0,0,0,0,0,.06a10.9,10.9,0,0,0,.68,1.08,37.07,37.07,0,0,0,2.46,3.45c.34.43.68.85,1,1.25.06.06.08.11.14.17a10.76,10.76,0,0,0,1,1.08,34.83,34.83,0,0,0,3.83,3.51c.62.48,1.24.93,1.9,1.36.48.34,1,.65,1.47.93s.79.48,1.22.71c.59.34,1.19.62,1.78.91s1.11.48,1.65.68c.39.17.76.28,1.16.42,1,.31,1.92.6,2.89.82l1.44.29c.51.08,1,.14,1.48.2s.82.08,1.24.11a5.16,5.16,0,0,0,.68,0,23.62,23.62,0,0,0,2.38,0A26.68,26.68,0,0,0,131,106.13a30.14,30.14,0,0,0,6.49-4.82C149.16,90.12,153.39,69.81,146.76,52Zm-3,23.57v.11a.22.22,0,0,1,0,.14c-.12.71-.23,1.45-.4,2.16v0c0,.06,0,.09,0,.15-.08.39-.2.82-.31,1.21-.14.57-.28,1.11-.45,1.68,0,.08,0,.14-.06.22a14,14,0,0,1-.51,1.59,1.67,1.67,0,0,0-.08.2.09.09,0,0,1,0,.08c-.17.48-.34,1-.54,1.42,0,.05-.06.14-.09.2-.11.28-.25.53-.36.82-.23.54-.49,1.07-.77,1.61s-.68,1.31-1,2c-.28.48-.56.93-.88,1.39s-.42.62-.65.93-.51.74-.79,1.08a1.15,1.15,0,0,0-.14.17c-.4.51-.82,1-1.25,1.47A25.23,25.23,0,0,1,132.36,97a7.39,7.39,0,0,1-.79.62,0,0,0,0,1,0,0c-.17.14-.34.25-.51.37a8.43,8.43,0,0,1-1.07.73,14.37,14.37,0,0,1-1.39.85,13.93,13.93,0,0,1-1.33.68c-.54.26-1.11.51-1.65.71,0,0,0,0,0,0l-.14,0-.85.29a12.33,12.33,0,0,1-1.28.37c-.48.14-1,.25-1.44.34a8.51,8.51,0,0,1-1.11.17,1.81,1.81,0,0,1-.51.08c-.42.06-.82.09-1.22.11h-.14a5.78,5.78,0,0,1-.71,0,5.7,5.7,0,0,1-.73,0h-.06C107,102.33,97,94.8,92.31,82.22a41.29,41.29,0,0,1,.39-29.89,33.62,33.62,0,0,1,5.92-9.52,26.37,26.37,0,0,1,6.72-5.35,21.72,21.72,0,0,1,7.85-2.64h.17a11,11,0,0,1,1.33-.17,9.16,9.16,0,0,1,.93,0h.68c.62,0,1.22,0,1.84.08h.12c.51.06,1,.11,1.5.2l.11,0a5.4,5.4,0,0,1,.74.14,5.88,5.88,0,0,1,1.3.31s.09,0,.11,0l.12,0s0,0,0,0a1.55,1.55,0,0,1,.23,0A11.33,11.33,0,0,1,124,36a31.24,31.24,0,0,1,3.34,1.5c.43.23.85.49,1.28.77s.71.45,1.08.71.93.65,1.41,1a10,10,0,0,1,1.13.93l0,0a10.24,10.24,0,0,1,1,.94c.34.31.65.65,1,1,.51.54,1,1.1,1.51,1.67s1,1.25,1.47,1.93l0,0v.06s0,0,0,.06v0a0,0,0,0,0,0,0c.17.23.32.46.49.68s.42.63.62.94a38.37,38.37,0,0,1,2.24,4.28.18.18,0,0,1,.05.11.2.2,0,0,1,.06.14v0a20.76,20.76,0,0,1,.85,2c.34.88.62,1.78.91,2.69a.73.73,0,0,0,.05.2c.23.82.46,1.64.63,2.49a5.17,5.17,0,0,1,.11.54c0,.09,0,.17.06.26a1.74,1.74,0,0,1,0,.39c.12.6.23,1.19.32,1.76a1,1,0,0,1,0,.23c.06.31.09.65.15,1,0,.08,0,.17,0,.25a13.09,13.09,0,0,1,.15,1.56v0a42.43,42.43,0,0,1-.15,7.82C143.87,74.57,143.81,75.08,143.73,75.59Z"/></g></g></g></g></svg>