<?xml version="1.0" encoding="UTF-8"?>
<svg id="_图层_2" data-name="图层 2" xmlns="http://www.w3.org/2000/svg" xmlns:xlink="http://www.w3.org/1999/xlink" viewBox="0 0 150 150">
  <defs>
    <style>
      .cls-1 {
        fill: url(#_未命名的渐变_10);
      }

      .cls-1, .cls-2, .cls-3, .cls-4, .cls-5, .cls-6, .cls-7, .cls-8, .cls-9 {
        stroke-width: 0px;
      }

      .cls-2, .cls-10 {
        fill: none;
      }

      .cls-10 {
        stroke: #fff;
        stroke-miterlimit: 10;
        stroke-width: .1px;
      }

      .cls-3 {
        fill: url(#_未命名的渐变_1827);
      }

      .cls-4 {
        fill: url(#_新建图案);
        opacity: .1;
      }

      .cls-11 {
        opacity: .2;
      }

      .cls-12 {
        isolation: isolate;
      }

      .cls-13 {
        opacity: 0;
      }

      .cls-6 {
        fill: #7695ca;
      }

      .cls-7 {
        fill: #35445c;
      }

      .cls-8 {
        fill: #1f2630;
      }

      .cls-9 {
        fill: #000714;
      }
    </style>
    <pattern id="_新建图案" data-name="新建图案" x="0" y="0" width="18.57" height="32.16" patternTransform="translate(3531.74 727.44)" patternUnits="userSpaceOnUse" viewBox="0 0 18.57 32.16">
      <g>
        <rect class="cls-2" x="0" y="0" width="18.57" height="32.16"/>
        <g>
          <g>
            <polyline class="cls-10" points="18.57 21.44 18.57 32.16 18.57 42.88"/>
            <polyline class="cls-10" points="9.29 26.8 18.57 32.16 27.85 37.51 27.85 37.52"/>
            <polyline class="cls-10" points="9.29 37.52 9.29 37.51 18.57 32.16 27.85 26.8"/>
          </g>
          <polygon class="cls-10" points="27.85 37.52 27.85 26.8 18.57 21.44 9.28 26.8 9.28 37.52 18.57 42.88 27.85 37.52"/>
        </g>
        <g>
          <g>
            <polyline class="cls-10" points="0 21.44 0 32.16 0 42.88"/>
            <polyline class="cls-10" points="-9.28 26.8 0 32.16 9.28 37.51 9.28 37.52"/>
            <polyline class="cls-10" points="-9.28 37.52 -9.28 37.51 0 32.16 9.28 26.8"/>
          </g>
          <polygon class="cls-10" points="9.28 37.52 9.28 26.8 0 21.44 -9.28 26.8 -9.28 37.52 0 42.88 9.28 37.52"/>
        </g>
        <g>
          <g>
            <polyline class="cls-10" points="18.57 10.72 27.85 16.08 37.13 21.43 37.13 21.44"/>
            <polyline class="cls-10" points="18.57 21.44 18.57 21.43 27.85 16.08 37.13 10.72"/>
          </g>
          <polygon class="cls-10" points="37.14 21.44 37.14 10.72 27.85 5.36 18.57 10.72 18.57 21.44 27.85 26.8 37.14 21.44"/>
        </g>
        <g>
          <g>
            <polyline class="cls-10" points="9.28 5.36 9.28 16.08 9.28 26.8"/>
            <polyline class="cls-10" points="0 10.72 9.28 16.08 18.56 21.43 18.56 21.44"/>
            <polyline class="cls-10" points="0 21.44 0 21.43 9.28 16.08 18.56 10.72"/>
          </g>
          <polygon class="cls-10" points="18.57 21.44 18.57 10.72 9.28 5.36 0 10.72 0 21.44 9.28 26.8 18.57 21.44"/>
        </g>
        <g>
          <g>
            <polyline class="cls-10" points="-18.56 10.72 -9.28 16.08 0 21.43 0 21.44"/>
            <polyline class="cls-10" points="-18.56 21.44 -18.56 21.43 -9.28 16.08 0 10.72"/>
          </g>
          <polygon class="cls-10" points="0 21.44 0 10.72 -9.28 5.36 -18.57 10.72 -18.57 21.44 -9.28 26.8 0 21.44"/>
        </g>
        <g>
          <g>
            <polyline class="cls-10" points="18.57 -10.72 18.57 0 18.57 10.72"/>
            <polyline class="cls-10" points="9.29 -5.36 18.57 0 27.85 5.35 27.85 5.36"/>
            <polyline class="cls-10" points="9.29 5.36 9.29 5.35 18.57 0 27.85 -5.36"/>
          </g>
          <polygon class="cls-10" points="27.85 5.36 27.85 -5.36 18.57 -10.72 9.28 -5.36 9.28 5.36 18.57 10.72 27.85 5.36"/>
        </g>
        <g>
          <g>
            <polyline class="cls-10" points="0 -10.72 0 0 0 10.72"/>
            <polyline class="cls-10" points="-9.28 -5.36 0 0 9.28 5.35 9.28 5.36"/>
            <polyline class="cls-10" points="-9.28 5.36 -9.28 5.35 0 0 9.28 -5.36"/>
          </g>
          <polygon class="cls-10" points="9.28 5.36 9.28 -5.36 0 -10.72 -9.28 -5.36 -9.28 5.36 0 10.72 9.28 5.36"/>
        </g>
      </g>
    </pattern>
    <linearGradient id="_未命名的渐变_1827" data-name="未命名的渐变 1827" x1="39.81" y1="85.24" x2="146.04" y2="85.24" gradientTransform="translate(150.31) rotate(-180) scale(1 -1)" gradientUnits="userSpaceOnUse">
      <stop offset="0" stop-color="#425266"/>
      <stop offset="1" stop-color="#596b8b"/>
    </linearGradient>
    <linearGradient id="_未命名的渐变_10" data-name="未命名的渐变 10" x1="110.4" y1="116.87" x2="145.73" y2="116.87" gradientUnits="userSpaceOnUse">
      <stop offset="0" stop-color="#283140"/>
      <stop offset="1" stop-color="#12161a"/>
    </linearGradient>
  </defs>
  <g id="_图元" data-name="图元">
    <g id="_输煤皮带" data-name="输煤皮带">
      <g id="_背景" data-name="背景" class="cls-13">
        <rect class="cls-9" width="150" height="150"/>
        <rect id="_网格" data-name="网格" class="cls-4" width="150" height="150"/>
      </g>
      <g>
        <g class="cls-12">
          <polygon class="cls-3" points="4.36 26.55 4.27 60.19 110.4 143.93 110.49 110.29 4.36 26.55"/>
          <polygon class="cls-1" points="110.4 143.93 145.64 123.45 145.73 89.81 110.49 110.29 110.4 143.93"/>
          <polygon class="cls-6" points="110.49 110.29 145.73 89.81 39.6 6.07 4.36 26.55 110.49 110.29"/>
        </g>
        <g>
          <circle class="cls-7" cx="11.23" cy="49.87" r="1.3"/>
          <path class="cls-8" d="m10.5,49.87c0-.62.44-1.11,1.01-1.24-.09-.02-.19-.06-.29-.06-.72,0-1.3.58-1.3,1.3s.58,1.3,1.3,1.3c.1,0,.19-.04.29-.06-.57-.13-1.01-.63-1.01-1.24Z"/>
        </g>
        <g>
          <circle class="cls-7" cx="28.22" cy="62.92" r="1.3"/>
          <path class="cls-8" d="m27.49,62.92c0-.62.44-1.11,1.01-1.24-.09-.02-.19-.06-.29-.06-.72,0-1.3.58-1.3,1.3s.58,1.3,1.3,1.3c.1,0,.19-.04.29-.06-.57-.13-1.01-.63-1.01-1.24Z"/>
        </g>
        <g>
          <circle class="cls-7" cx="44.77" cy="76.32" r="1.3"/>
          <path class="cls-8" d="m44.05,76.32c0-.62.44-1.11,1.01-1.24-.09-.02-.19-.06-.29-.06-.72,0-1.3.58-1.3,1.3s.58,1.3,1.3,1.3c.1,0,.19-.04.29-.06-.57-.13-1.01-.63-1.01-1.24Z"/>
        </g>
        <g>
          <circle class="cls-7" cx="61.46" cy="89.6" r="1.3"/>
          <path class="cls-8" d="m60.73,89.6c0-.62.44-1.11,1.01-1.24-.09-.02-.19-.06-.29-.06-.72,0-1.3.58-1.3,1.3s.58,1.3,1.3,1.3c.1,0,.19-.04.29-.06-.57-.13-1.01-.63-1.01-1.24Z"/>
        </g>
        <g>
          <circle class="cls-7" cx="76.21" cy="100.99" r="1.3"/>
          <path class="cls-8" d="m75.48,100.99c0-.62.44-1.11,1.01-1.24-.09-.02-.19-.06-.29-.06-.72,0-1.3.58-1.3,1.3s.58,1.3,1.3,1.3c.1,0,.19-.04.29-.06-.57-.13-1.01-.63-1.01-1.24Z"/>
        </g>
        <g>
          <circle class="cls-7" cx="92.67" cy="114.08" r="1.3"/>
          <path class="cls-8" d="m91.94,114.08c0-.62.44-1.11,1.01-1.24-.09-.02-.19-.06-.29-.06-.72,0-1.3.58-1.3,1.3s.58,1.3,1.3,1.3c.1,0,.19-.04.29-.06-.57-.13-1.01-.63-1.01-1.24Z"/>
        </g>
      </g>
      <g>
        <circle class="cls-7" cx="106.68" cy="123.12" r="1.3"/>
        <path class="cls-8" d="m105.96,123.12c0-.62.44-1.11,1.01-1.24-.09-.02-.19-.06-.29-.06-.72,0-1.3.58-1.3,1.3s.58,1.3,1.3,1.3c.1,0,.19-.04.29-.06-.57-.13-1.01-.63-1.01-1.24Z"/>
      </g>
    </g>
  </g>
</svg>