<svg xmlns="http://www.w3.org/2000/svg" xmlns:xlink="http://www.w3.org/1999/xlink" viewBox="0 0 150 150"><defs><style>.cls-1,.cls-2{fill:none;}.cls-2{stroke:#fff;stroke-miterlimit:10;stroke-width:0.1px;}.cls-3{isolation:isolate;}.cls-4{opacity:0;}.cls-5{fill:#000714;}.cls-6{opacity:0.1;fill:url(#新建图案);}.cls-7{fill:url(#未命名的渐变_271);}.cls-8{fill:url(#未命名的渐变_13);}.cls-9{fill:url(#未命名的渐变_525);}.cls-10{fill:url(#未命名的渐变_271-2);}.cls-11{fill:url(#未命名的渐变_13-2);}.cls-12{fill:url(#未命名的渐变_525-2);}.cls-13{fill:url(#未命名的渐变_271-3);}.cls-14{fill:url(#未命名的渐变_13-3);}.cls-15{fill:url(#未命名的渐变_525-3);}.cls-16{fill:url(#未命名的渐变_260);}.cls-17{fill:url(#未命名的渐变_217);}.cls-18{opacity:0.3;mix-blend-mode:multiply;}.cls-19{fill:url(#未命名的渐变_283);}.cls-20{fill:url(#未命名的渐变_217-2);}.cls-21{fill:#13181d;}.cls-22{fill:url(#未命名的渐变_115);}.cls-23{fill:url(#未命名的渐变_329);}.cls-24{fill:url(#未命名的渐变_13-4);}.cls-25{fill:url(#未命名的渐变_24);}.cls-26{fill:url(#未命名的渐变_272);}.cls-27{fill:url(#未命名的渐变_113);}.cls-28{fill:url(#未命名的渐变_100);}.cls-29{mix-blend-mode:overlay;}.cls-30{fill:url(#未命名的渐变_268);}.cls-31{opacity:0.2;}</style><pattern id="新建图案" data-name="新建图案" width="18.57" height="32.16" patternTransform="translate(2871.64 605.1)" patternUnits="userSpaceOnUse" viewBox="0 0 18.57 32.16"><rect class="cls-1" width="18.57" height="32.16"/><polyline class="cls-2" points="18.57 21.44 18.57 32.16 18.57 42.88"/><polyline class="cls-2" points="9.29 26.8 18.57 32.16 27.85 37.51 27.85 37.52"/><polyline class="cls-2" points="9.29 37.52 9.29 37.51 18.57 32.16 27.85 26.8"/><polygon class="cls-2" points="27.85 37.52 27.85 26.8 18.57 21.44 9.28 26.8 9.28 37.52 18.57 42.88 27.85 37.52"/><polyline class="cls-2" points="0 21.44 0 32.16 0 42.88"/><polyline class="cls-2" points="-9.28 26.8 0 32.16 9.28 37.51 9.28 37.52"/><polyline class="cls-2" points="-9.28 37.52 -9.28 37.51 0 32.16 9.28 26.8"/><polygon class="cls-2" points="9.28 37.52 9.28 26.8 0 21.44 -9.29 26.8 -9.29 37.52 0 42.88 9.28 37.52"/><polyline class="cls-2" points="18.57 10.72 27.85 16.08 37.13 21.43 37.13 21.44"/><polyline class="cls-2" points="18.57 21.44 18.57 21.43 27.85 16.08 37.13 10.72"/><polygon class="cls-2" points="37.14 21.44 37.14 10.72 27.85 5.36 18.57 10.72 18.57 21.44 27.85 26.8 37.14 21.44"/><polyline class="cls-2" points="9.29 5.36 9.29 16.08 9.29 26.8"/><polyline class="cls-2" points="0.01 10.72 9.29 16.08 18.57 21.43 18.57 21.44"/><polyline class="cls-2" points="0.01 21.44 0.01 21.43 9.29 16.08 18.57 10.72"/><polygon class="cls-2" points="18.57 21.44 18.57 10.72 9.28 5.36 0 10.72 0 21.44 9.28 26.8 18.57 21.44"/><polyline class="cls-2" points="-18.56 10.72 -9.28 16.08 0 21.43 0 21.44"/><polyline class="cls-2" points="-18.56 21.44 -18.56 21.43 -9.28 16.08 0 10.72"/><polygon class="cls-2" points="0 21.44 0 10.72 -9.29 5.36 -18.57 10.72 -18.57 21.44 -9.29 26.8 0 21.44"/><polyline class="cls-2" points="18.57 -10.72 18.57 0 18.57 10.72"/><polyline class="cls-2" points="9.29 -5.36 18.57 0 27.85 5.35 27.85 5.36"/><polyline class="cls-2" points="9.29 5.36 9.29 5.35 18.57 0 27.85 -5.36"/><polygon class="cls-2" points="27.85 5.36 27.85 -5.36 18.57 -10.72 9.28 -5.36 9.28 5.36 18.57 10.72 27.85 5.36"/><polyline class="cls-2" points="0 -10.72 0 0 0 10.72"/><polyline class="cls-2" points="-9.28 -5.36 0 0 9.28 5.35 9.28 5.36"/><polyline class="cls-2" points="-9.28 5.36 -9.28 5.35 0 0 9.28 -5.36"/><polygon class="cls-2" points="9.28 5.36 9.28 -5.36 0 -10.72 -9.29 -5.36 -9.29 5.36 0 10.72 9.28 5.36"/></pattern><linearGradient id="未命名的渐变_271" x1="64.13" y1="132.68" x2="74.13" y2="132.68" gradientTransform="translate(6.92 3.7)" gradientUnits="userSpaceOnUse"><stop offset="0" stop-color="#283140"/><stop offset="0.2" stop-color="#7a98cc"/><stop offset="0.9" stop-color="#12161a"/><stop offset="1" stop-color="#283140"/></linearGradient><linearGradient id="未命名的渐变_13" x1="64.13" y1="119.06" x2="74.13" y2="119.06" gradientTransform="translate(6.92 3.7)" gradientUnits="userSpaceOnUse"><stop offset="0" stop-color="#89abe6"/><stop offset="1" stop-color="#547099"/></linearGradient><linearGradient id="未命名的渐变_525" x1="71.05" y1="122.76" x2="81.05" y2="122.76" gradientUnits="userSpaceOnUse"><stop offset="0" stop-color="#adcbff"/><stop offset="0.02" stop-color="#accaff" stop-opacity="0.93"/><stop offset="0.09" stop-color="#a8c8ff" stop-opacity="0.74"/><stop offset="0.17" stop-color="#a4c5ff" stop-opacity="0.56"/><stop offset="0.25" stop-color="#a1c3ff" stop-opacity="0.41"/><stop offset="0.33" stop-color="#9fc2ff" stop-opacity="0.28"/><stop offset="0.43" stop-color="#9dc0ff" stop-opacity="0.18"/><stop offset="0.53" stop-color="#9bbfff" stop-opacity="0.1"/><stop offset="0.64" stop-color="#9abfff" stop-opacity="0.04"/><stop offset="0.77" stop-color="#99beff" stop-opacity="0.01"/><stop offset="1" stop-color="#99beff" stop-opacity="0"/></linearGradient><linearGradient id="未命名的渐变_271-2" x1="44.13" y1="122.68" x2="54.13" y2="122.68" xlink:href="#未命名的渐变_271"/><linearGradient id="未命名的渐变_13-2" x1="44.13" y1="109.06" x2="54.13" y2="109.06" xlink:href="#未命名的渐变_13"/><linearGradient id="未命名的渐变_525-2" x1="51.05" y1="112.76" x2="61.05" y2="112.76" xlink:href="#未命名的渐变_525"/><linearGradient id="未命名的渐变_271-3" x1="84.13" y1="122.68" x2="94.13" y2="122.68" xlink:href="#未命名的渐变_271"/><linearGradient id="未命名的渐变_13-3" x1="84.13" y1="109.06" x2="94.13" y2="109.06" xlink:href="#未命名的渐变_13"/><linearGradient id="未命名的渐变_525-3" x1="91.05" y1="112.76" x2="101.05" y2="112.76" xlink:href="#未命名的渐变_525"/><linearGradient id="未命名的渐变_260" x1="52.47" y1="128.67" x2="102.22" y2="99.94" gradientUnits="userSpaceOnUse"><stop offset="0" stop-color="#283140"/><stop offset="0.1" stop-color="#728ebf"/><stop offset="0.28" stop-color="#556a8d"/><stop offset="0.48" stop-color="#38465c"/><stop offset="0.66" stop-color="#232c38"/><stop offset="0.81" stop-color="#171c22"/><stop offset="0.9" stop-color="#12161a"/><stop offset="1" stop-color="#283140"/></linearGradient><linearGradient id="未命名的渐变_217" x1="44.05" y1="79.47" x2="108.05" y2="79.47" gradientUnits="userSpaceOnUse"><stop offset="0" stop-color="#283140"/><stop offset="0.2" stop-color="#89abe6"/><stop offset="0.9" stop-color="#12161a"/><stop offset="1" stop-color="#283140"/></linearGradient><radialGradient id="未命名的渐变_283" cx="64.87" cy="24.97" r="34.69" gradientTransform="translate(-4.01 35.41) rotate(-30) scale(1 1.02)" gradientUnits="userSpaceOnUse"><stop offset="0" stop-color="#90b6f5"/><stop offset="0.14" stop-color="#89adea"/><stop offset="0.39" stop-color="#7596cc"/><stop offset="0.71" stop-color="#56719d"/><stop offset="1" stop-color="#364b6b"/></radialGradient><linearGradient id="未命名的渐变_217-2" x1="66.28" y1="15.67" x2="85.62" y2="15.67" xlink:href="#未命名的渐变_217"/><linearGradient id="未命名的渐变_115" x1="-534.06" y1="-272.84" x2="-541.26" y2="-285.31" gradientTransform="translate(-434.47 332) rotate(120)" gradientUnits="userSpaceOnUse"><stop offset="0" stop-color="#283140"/><stop offset="0.1" stop-color="#12161a"/><stop offset="0.8" stop-color="#7a98cc"/><stop offset="1" stop-color="#38455a"/></linearGradient><linearGradient id="未命名的渐变_329" x1="-526.87" y1="-271.45" x2="-538.87" y2="-292.23" gradientTransform="translate(-434.47 332) rotate(120)" gradientUnits="userSpaceOnUse"><stop offset="0" stop-color="#0073e6"/><stop offset="0.12" stop-color="#59c8ff"/><stop offset="0.32" stop-color="#59c8ff"/><stop offset="0.9" stop-color="#1433cc"/><stop offset="1" stop-color="#0073e6"/></linearGradient><linearGradient id="未命名的渐变_13-4" x1="-530.71" y1="-269.23" x2="-542.71" y2="-290.01" gradientTransform="translate(-434.47 332) rotate(120)" xlink:href="#未命名的渐变_13"/><linearGradient id="未命名的渐变_24" x1="71.79" y1="14.37" x2="80.3" y2="-0.37" gradientUnits="userSpaceOnUse"><stop offset="0" stop-color="#99beff"/><stop offset="0.02" stop-color="#99beff" stop-opacity="0.93"/><stop offset="0.09" stop-color="#99beff" stop-opacity="0.74"/><stop offset="0.17" stop-color="#99beff" stop-opacity="0.56"/><stop offset="0.25" stop-color="#99beff" stop-opacity="0.41"/><stop offset="0.33" stop-color="#99beff" stop-opacity="0.28"/><stop offset="0.43" stop-color="#99beff" stop-opacity="0.18"/><stop offset="0.53" stop-color="#99beff" stop-opacity="0.1"/><stop offset="0.64" stop-color="#99beff" stop-opacity="0.04"/><stop offset="0.77" stop-color="#99beff" stop-opacity="0.01"/><stop offset="1" stop-color="#99beff" stop-opacity="0"/></linearGradient><linearGradient id="未命名的渐变_272" x1="57.85" y1="100.01" x2="50.42" y2="87.15" gradientUnits="userSpaceOnUse"><stop offset="0" stop-color="#283140"/><stop offset="0.1" stop-color="#12161a"/><stop offset="0.8" stop-color="#89abe6"/><stop offset="1" stop-color="#283140"/></linearGradient><linearGradient id="未命名的渐变_113" x1="50.83" y1="102.12" x2="45.1" y2="92.19" gradientUnits="userSpaceOnUse"><stop offset="0" stop-color="#38455a"/><stop offset="0.2" stop-color="#7a98cc"/><stop offset="0.9" stop-color="#12161a"/><stop offset="1" stop-color="#283140"/></linearGradient><linearGradient id="未命名的渐变_100" x1="56.55" y1="103.22" x2="47" y2="86.68" gradientUnits="userSpaceOnUse"><stop offset="0" stop-color="#0073e6"/><stop offset="0.1" stop-color="#1433cc"/><stop offset="0.8" stop-color="#59c8ff"/><stop offset="1" stop-color="#0073e6"/></linearGradient><linearGradient id="未命名的渐变_268" x1="41.95" y1="96.72" x2="55.5" y2="96.72" gradientUnits="userSpaceOnUse"><stop offset="0" stop-color="#425266"/><stop offset="1" stop-color="#596b8c"/></linearGradient></defs><title>过滤器</title><g class="cls-3"><g id="图层_2" data-name="图层 2"><g id="图元"><g id="过滤器"><g class="cls-4"><rect class="cls-5" width="150" height="150"/><rect id="网格" class="cls-6" width="150" height="150"/></g><path class="cls-7" d="M81.05,122.77V147.2a2.49,2.49,0,0,1-1.45,2,7.8,7.8,0,0,1-7.07,0,2.5,2.5,0,0,1-1.48-2.06V122.71a2.5,2.5,0,0,0,1.48,2.06,7.8,7.8,0,0,0,7.07,0A2.49,2.49,0,0,0,81.05,122.77Z" transform="translate(0 -0.05)"/><path class="cls-8" d="M81.05,122.73v.07a2.51,2.51,0,0,1-1.45,2,7.8,7.8,0,0,1-7.07,0,2.17,2.17,0,0,1,0-4.1,7.82,7.82,0,0,1,7.08,0A2.53,2.53,0,0,1,81.05,122.73Z" transform="translate(0 -0.05)"/><path class="cls-9" d="M76,119.86v.1a7.13,7.13,0,0,1,3.5.84A2.42,2.42,0,0,1,81,122.73v.07a2.4,2.4,0,0,1-1.4,1.92,7.73,7.73,0,0,1-7,0,2.41,2.41,0,0,1-1.43-2,2.39,2.39,0,0,1,1.4-2A7.05,7.05,0,0,1,76,120v-.1m0,0a7.15,7.15,0,0,0-3.53.85,2.17,2.17,0,0,0,0,4.1,7.86,7.86,0,0,0,7.07,0,2.51,2.51,0,0,0,1.45-2v-.07a2.53,2.53,0,0,0-1.47-2,7.36,7.36,0,0,0-3.55-.85Z" transform="translate(0 -0.05)"/><path class="cls-10" d="M61.05,112.77V137.2a2.49,2.49,0,0,1-1.45,2,7.8,7.8,0,0,1-7.07,0,2.5,2.5,0,0,1-1.48-2.06V112.71a2.5,2.5,0,0,0,1.48,2.06,7.8,7.8,0,0,0,7.07,0A2.49,2.49,0,0,0,61.05,112.77Z" transform="translate(0 -0.05)"/><path class="cls-11" d="M61.05,112.73v.07a2.51,2.51,0,0,1-1.45,2,7.8,7.8,0,0,1-7.07,0,2.17,2.17,0,0,1,0-4.1,7.82,7.82,0,0,1,7.08,0A2.53,2.53,0,0,1,61.05,112.73Z" transform="translate(0 -0.05)"/><path class="cls-12" d="M56,109.86v.1a7.13,7.13,0,0,1,3.5.84A2.42,2.42,0,0,1,61,112.73v.07a2.4,2.4,0,0,1-1.4,1.92,7.73,7.73,0,0,1-7,0,2.41,2.41,0,0,1-1.43-2,2.39,2.39,0,0,1,1.4-2A7.05,7.05,0,0,1,56,110v-.1m0,0a7.15,7.15,0,0,0-3.53.85,2.17,2.17,0,0,0,0,4.1,7.86,7.86,0,0,0,7.07,0,2.51,2.51,0,0,0,1.45-2v-.07a2.53,2.53,0,0,0-1.47-2,7.36,7.36,0,0,0-3.55-.85Z" transform="translate(0 -0.05)"/><path class="cls-13" d="M101.05,112.77V137.2a2.49,2.49,0,0,1-1.45,2,7.8,7.8,0,0,1-7.07,0,2.5,2.5,0,0,1-1.48-2.06V112.71a2.5,2.5,0,0,0,1.48,2.06,7.8,7.8,0,0,0,7.07,0A2.49,2.49,0,0,0,101.05,112.77Z" transform="translate(0 -0.05)"/><path class="cls-14" d="M101.05,112.73v.07a2.51,2.51,0,0,1-1.45,2,7.8,7.8,0,0,1-7.07,0,2.17,2.17,0,0,1,0-4.1,7.82,7.82,0,0,1,7.08,0A2.53,2.53,0,0,1,101.05,112.73Z" transform="translate(0 -0.05)"/><path class="cls-15" d="M96,109.86v.1a7.13,7.13,0,0,1,3.5.84,2.42,2.42,0,0,1,1.42,1.93v.07a2.4,2.4,0,0,1-1.4,1.92,7.73,7.73,0,0,1-7,0,2.41,2.41,0,0,1-1.43-2,2.39,2.39,0,0,1,1.4-2A7.05,7.05,0,0,1,96,110v-.1m0,0a7.15,7.15,0,0,0-3.53.85,2.17,2.17,0,0,0,0,4.1,7.86,7.86,0,0,0,7.07,0,2.51,2.51,0,0,0,1.45-2v-.07a2.53,2.53,0,0,0-1.47-2,7.36,7.36,0,0,0-3.55-.85Z" transform="translate(0 -0.05)"/><path class="cls-16" d="M98.17,122.85c-12.63,7.08-32.82,6.88-45.1-.46-6-3.61-9-8.27-9-12.92a16.46,16.46,0,0,0,.58,4.3,27.14,27.14,0,0,0,1,2.83A16.07,16.07,0,0,0,46.88,119,35.54,35.54,0,0,0,49,121.87a24.68,24.68,0,0,0,1.8,1.89c.45.42,1,1,1.54,1.34,1,.74,2.34,1.7,3.4,2.35a30.88,30.88,0,0,0,3.94,2,37.54,37.54,0,0,0,4,1.45,40.76,40.76,0,0,0,7.93,1.56c.59.06,1.38.14,2,.15s1.39.06,2,.07l2,0c1.21,0,2.61-.16,4-.31a40.89,40.89,0,0,0,8-1.82,35.26,35.26,0,0,0,4-1.65,28.41,28.41,0,0,0,4-2.28,26.7,26.7,0,0,0,5-4.31,23.12,23.12,0,0,0,2.74-3.75,22.25,22.25,0,0,0,1.37-2.89,17,17,0,0,0,.88-3.15,16.65,16.65,0,0,0,.28-2.85C107.81,114.45,104.58,119.25,98.17,122.85Z" transform="translate(0 -0.05)"/><path class="cls-17" d="M108.05,31.07l0,10v1.49l-.19,67.13c0,4.81-3.25,9.6-9.67,13.2-12.63,7.09-32.81,6.88-45.09-.46-6-3.61-9-8.27-9-12.92l.19-66.24V42l0-11.1c0,4.65,3,9.3,9,12.9,12.28,7.34,32.47,7.55,45.1.46C104.8,40.67,108,35.88,108.05,31.07Z" transform="translate(0 -0.05)"/><g class="cls-18"><path class="cls-5" d="M98.67,50.26c-12.9,7.24-33.59,7-46.12-.46-4.16-2.48-7-5.51-8.31-8.79v1.22a20.49,20.49,0,0,0,8,8c6.48,3.87,15.12,5.82,23.76,5.82,8.25,0,16.49-1.78,22.86-5.35,4.54-2.55,7.65-5.71,9.11-9.18V40C106.89,43.9,103.66,47.46,98.67,50.26Z" transform="translate(0 -0.05)"/></g><g class="cls-18"><path class="cls-5" d="M98.48,117c-12.9,7.24-33.59,7-46.12-.46-4.16-2.48-7-5.51-8.31-8.79V109a20.49,20.49,0,0,0,8.05,8c6.48,3.87,15.12,5.82,23.76,5.82,8.25,0,16.49-1.78,22.86-5.35,4.54-2.55,7.65-5.71,9.11-9.18v-1.49C106.7,110.62,103.47,114.18,98.48,117Z" transform="translate(0 -0.05)"/></g><path class="cls-19" d="M56.56,12.64C55.9,13,55,13.53,54.42,14a24.61,24.61,0,0,0-2.18,1.62c-.88.78-2,1.83-2.82,2.69a20.77,20.77,0,0,0-1.79,2.27,20,20,0,0,0-1.7,2.93,27.86,27.86,0,0,0-1.08,2.85A16.74,16.74,0,0,0,44.44,28c-.07.31-.12.74-.16,1.06a17.73,17.73,0,0,0-.12,1.79c0,4.65,3,9.31,9,12.92,12.28,7.34,32.47,7.54,45.1.46,6.42-3.6,9.65-8.39,9.66-13.2a19.1,19.1,0,0,0-5-12.39,20.1,20.1,0,0,0-1.8-1.89A28.4,28.4,0,0,0,98,14.23,30.55,30.55,0,0,0,94.19,12a34.84,34.84,0,0,0-3.92-1.69,36.92,36.92,0,0,0-4-1.19c-2.06-.51-3.93-.77-3.95-.77-1.48-.19-2.77-.36-4-.4l-2-.06c-.59,0-1.39,0-2,0s-1.39.07-2,.12a41.57,41.57,0,0,0-8,1.41,39.24,39.24,0,0,0-4.09,1.41c-1.17.48-2.67,1.24-3.78,1.82" transform="translate(0 -0.05)"/><path class="cls-20" d="M85.62,7.16V18.77c0,1.41-1,2.81-2.81,3.88a15.06,15.06,0,0,1-13.68,0c-1.9-1.1-2.85-2.54-2.85-4V7.06c0,1.44,1,2.88,2.85,4a15.13,15.13,0,0,0,13.68,0C84.65,10,85.59,8.56,85.62,7.16Z" transform="translate(0 -0.05)"/><path class="cls-5" d="M85.62,7.1v.13c0,1.41-1,2.81-2.81,3.88a15.09,15.09,0,0,1-13.68,0c-1.9-1.1-2.85-2.54-2.85-4s.94-2.86,2.81-3.95a15.07,15.07,0,0,1,13.67,0C84.64,4.27,85.59,5.68,85.62,7.1Z" transform="translate(0 -0.05)"/><g class="cls-3"><path class="cls-21" d="M75.19,3.05a1.81,1.81,0,0,1,.85-.2c.67,0,1.2.31,1.19.69V1.59c0-.39-.53-.7-1.2-.7a1.63,1.63,0,0,0-.84.21.61.61,0,0,0-.36.49v2A.62.62,0,0,1,75.19,3.05Z" transform="translate(0 -0.05)"/><path class="cls-21" d="M68.61,4.63a1.89,1.89,0,0,1,1.7,0,.58.58,0,0,1,.34.49v-2a.62.62,0,0,0-.35-.49,1.89,1.89,0,0,0-1.7,0,.62.62,0,0,0-.35.5v2A.57.57,0,0,1,68.61,4.63Z" transform="translate(0 -0.05)"/><path class="cls-21" d="M81.76,4.63a1.86,1.86,0,0,1,1.69,0,.59.59,0,0,1,.35.49v-2a.61.61,0,0,0-.34-.49,1.89,1.89,0,0,0-1.7,0,.62.62,0,0,0-.35.5v2A.6.6,0,0,1,81.76,4.63Z" transform="translate(0 -0.05)"/><path class="cls-21" d="M65.86,8.44a1.7,1.7,0,0,1,.85-.21c.67,0,1.2.31,1.2.7V7c0-.38-.52-.69-1.19-.69a1.81,1.81,0,0,0-.85.2.6.6,0,0,0-.35.49v2A.61.61,0,0,1,65.86,8.44Z" transform="translate(0 -0.05)"/><path class="cls-21" d="M84.46,8.44a1.6,1.6,0,0,1,.85-.2c.66,0,1.19.3,1.19.68V7c0-.38-.53-.68-1.19-.68a1.81,1.81,0,0,0-.85.2A.62.62,0,0,0,84.1,7v2A.59.59,0,0,1,84.46,8.44Z" transform="translate(0 -0.05)"/><path class="cls-22" d="M71,6A11.21,11.21,0,0,1,81.16,6a3.57,3.57,0,0,1,2.09,2.93V7a3.57,3.57,0,0,0-2.09-2.93A11.19,11.19,0,0,0,71,4.05a3.62,3.62,0,0,0-2.13,3V9A3.59,3.59,0,0,1,71,6Z" transform="translate(0 -0.05)"/><path class="cls-21" d="M68.57,12.25a1.86,1.86,0,0,1,1.69,0,.59.59,0,0,1,.35.48v-2a.58.58,0,0,0-.34-.49,1.89,1.89,0,0,0-1.7,0,.61.61,0,0,0-.35.49v2A.57.57,0,0,1,68.57,12.25Z" transform="translate(0 -0.05)"/><path class="cls-21" d="M81.72,12.25a1.86,1.86,0,0,1,1.69,0,.59.59,0,0,1,.35.48v-2a.57.57,0,0,0-.35-.49,1.86,1.86,0,0,0-1.69,0,.59.59,0,0,0-.35.49v2A.59.59,0,0,1,81.72,12.25Z" transform="translate(0 -0.05)"/><path class="cls-21" d="M75.13,13.82a1.81,1.81,0,0,1,.85-.2c.66,0,1.19.3,1.19.68v-2c0-.38-.53-.69-1.19-.68a1.61,1.61,0,0,0-.86.2.56.56,0,0,0-.34.49v2A.6.6,0,0,1,75.13,13.82Z" transform="translate(0 -0.05)"/><path class="cls-23" d="M84.51,13.87c2.36-1.37,3.55-3.16,3.54-4.95V7c0,1.78-1.17,3.58-3.54,4.94-4.7,2.72-12.29,2.72-17,0C65.22,10.56,64.06,8.8,64.05,7V9c0,1.77,1.16,3.53,3.48,4.88C72.21,16.58,79.81,16.58,84.51,13.87Z" transform="translate(0 -0.05)"/><path class="cls-24" d="M84.5,11.91c4.71-2.71,4.73-7.11.06-9.82s-12.26-2.72-17,0-4.72,7.11,0,9.82S79.8,14.63,84.5,11.91Zm-1.1-.64a1.89,1.89,0,0,1-1.7,0,.52.52,0,0,1,0-1,1.86,1.86,0,0,1,1.69,0A.52.52,0,0,1,83.4,11.27ZM86.49,7a.56.56,0,0,1-.34.49,1.71,1.71,0,0,1-.86.21c-.66,0-1.19-.31-1.19-.7a.62.62,0,0,1,.35-.49,1.81,1.81,0,0,1,.85-.2C86,6.28,86.5,6.59,86.49,7Zm-4.74-4.3a1.89,1.89,0,0,1,1.7,0,.53.53,0,0,1,0,1,1.86,1.86,0,0,1-1.69,0A.53.53,0,0,1,81.75,2.67ZM74.83,1.59a.61.61,0,0,1,.36-.49A1.63,1.63,0,0,1,76,.89c.67,0,1.2.31,1.2.7a.6.6,0,0,1-.35.49,1.81,1.81,0,0,1-.85.2C75.36,2.28,74.83,2,74.83,1.59ZM68.6,2.67a1.89,1.89,0,0,1,1.7,0,.53.53,0,0,1,0,1,1.89,1.89,0,0,1-1.7,0C68.13,3.38,68.13,2.94,68.6,2.67ZM71,4.05a11.19,11.19,0,0,1,10.17,0c2.8,1.63,2.79,4.27,0,5.9a11.27,11.27,0,0,1-10.18,0C68.14,8.32,68.16,5.68,71,4.05ZM65.51,7a.6.6,0,0,1,.35-.49,1.81,1.81,0,0,1,.85-.2c.67,0,1.2.31,1.19.69a.58.58,0,0,1-.35.49,1.7,1.7,0,0,1-.85.21C66,7.67,65.5,7.36,65.51,7Zm9.27,5.39a.56.56,0,0,1,.34-.49,1.61,1.61,0,0,1,.86-.2c.66,0,1.2.3,1.19.69a.62.62,0,0,1-.35.49,1.7,1.7,0,0,1-.85.2C75.3,13.05,74.77,12.74,74.78,12.36Zm-6.22-2.07a1.89,1.89,0,0,1,1.7,0,.52.52,0,0,1,0,1,1.86,1.86,0,0,1-1.69,0A.52.52,0,0,1,68.56,10.29Z" transform="translate(0 -0.05)"/><path class="cls-25" d="M76.09.15a17.11,17.11,0,0,1,8.42,2C86.73,3.46,88,5.17,87.94,7s-1.24,3.55-3.49,4.85a17.19,17.19,0,0,1-8.44,2,17.05,17.05,0,0,1-8.42-2c-2.22-1.29-3.44-3-3.44-4.81s1.24-3.55,3.49-4.85a17.23,17.23,0,0,1,8.45-2m0-.1a17.38,17.38,0,0,0-8.5,2c-4.7,2.71-4.72,7.11,0,9.82A17.18,17.18,0,0,0,76,14a17.31,17.31,0,0,0,8.49-2c4.71-2.71,4.73-7.11.06-9.82a17.21,17.21,0,0,0-8.47-2Z" transform="translate(0 -0.05)"/></g><g class="cls-3"><path class="cls-26" d="M56.37,86.25a3.75,3.75,0,0,0-3.75-.37l-8.14,4.7a3.72,3.72,0,0,1,3.75.36,11.57,11.57,0,0,1,5.25,9.1,3.69,3.69,0,0,1-1.54,3.38l8.15-4.7a3.67,3.67,0,0,0,1.53-3.37A11.57,11.57,0,0,0,56.37,86.25Z" transform="translate(0 -0.05)"/><path class="cls-21" d="M48.23,90.94c-2.91-1.68-5.28-.33-5.29,3a11.57,11.57,0,0,0,5.25,9.09c2.91,1.68,5.28.33,5.29-3A11.57,11.57,0,0,0,48.23,90.94Z" transform="translate(0 -0.05)"/></g><g class="cls-3"><path class="cls-27" d="M50.06,100.61a8.92,8.92,0,0,1-4.05-7A2.82,2.82,0,0,1,47.19,91l-1.34.78a2.83,2.83,0,0,0-1.19,2.6,8.94,8.94,0,0,0,4.05,7,2.87,2.87,0,0,0,2.89.28l1.35-.78A2.86,2.86,0,0,1,50.06,100.61Z" transform="translate(0 -0.05)"/><path class="cls-28" d="M56.84,99.85a5.55,5.55,0,0,1-1.08,3.56,0,0,0,0,0,0,0,1.38,1.38,0,0,1-.27.27,2.84,2.84,0,0,1-.62.49l-1.34.78c1.21-.7,2-2.21,2-4.34a14.88,14.88,0,0,0-6.75-11.7c-1.88-1.08-3.59-1.18-4.82-.47l1.35-.78a1.15,1.15,0,0,1,.25-.12,1.3,1.3,0,0,1,.3-.13,5.12,5.12,0,0,1,4.27.72A14.9,14.9,0,0,1,56.84,99.85Z" transform="translate(0 -0.05)"/><g class="cls-29"><path class="cls-5" d="M56.29,100.62a6.91,6.91,0,0,1-.53,2.79,0,0,0,0,0,0,0,1.38,1.38,0,0,1-.27.27,6.35,6.35,0,0,0,.71-3.08,15.46,15.46,0,0,0-7-12.13,6,6,0,0,0-3.67-.93,1.3,1.3,0,0,1,.3-.13,6.29,6.29,0,0,1,3.42,1A15.57,15.57,0,0,1,56.29,100.62Z" transform="translate(0 -0.05)"/></g><path class="cls-30" d="M48.74,88.94C45,86.78,42,88.51,42,92.81A14.88,14.88,0,0,0,48.7,104.5c3.74,2.16,6.78.43,6.8-3.87A14.86,14.86,0,0,0,48.74,88.94Z" transform="translate(0 -0.05)"/></g></g></g></g></g></svg>