<svg xmlns="http://www.w3.org/2000/svg" xmlns:xlink="http://www.w3.org/1999/xlink" viewBox="0 0 150 150"><defs><style>.cls-1,.cls-2{fill:none;}.cls-2{stroke:#fff;stroke-width:0.1px;}.cls-2,.cls-25{stroke-miterlimit:10;}.cls-3{opacity:0;}.cls-4{fill:#000714;}.cls-5{opacity:0.1;fill:url(#新建图案);}.cls-6{isolation:isolate;}.cls-7{fill:url(#未命名的渐变_163);}.cls-8{fill:url(#未命名的渐变_25);}.cls-9{fill:url(#未命名的渐变_21);}.cls-10{fill:url(#未命名的渐变_13);}.cls-11{fill:url(#未命名的渐变_42);}.cls-12{fill:url(#未命名的渐变_107);}.cls-13{fill:url(#未命名的渐变_455);}.cls-14{fill:url(#未命名的渐变_13-2);}.cls-15{fill:url(#未命名的渐变_42-2);}.cls-16{fill:url(#未命名的渐变_107-2);}.cls-17{fill:url(#未命名的渐变_71);}.cls-18{fill:url(#未命名的渐变_71-2);}.cls-19{fill:url(#未命名的渐变_107-3);}.cls-20{fill:#7696cb;}.cls-21{fill:url(#未命名的渐变_71-3);}.cls-22{fill:url(#未命名的渐变_107-4);}.cls-23{fill:url(#未命名的渐变_71-4);}.cls-24{fill:url(#未命名的渐变_107-5);}.cls-25,.cls-32{fill:#08121b;}.cls-25{stroke:#1d83e7;stroke-width:0.25px;}.cls-26{fill:url(#未命名的渐变_17259);}.cls-27{fill:url(#未命名的渐变_17259-2);}.cls-28{fill:url(#未命名的渐变_2133);}.cls-29{fill:url(#未命名的渐变_17280);}.cls-30{fill:url(#未命名的渐变_17259-3);}.cls-31{fill:url(#未命名的渐变_277);}.cls-33{fill:url(#未命名的渐变_2139);}.cls-34{fill:url(#未命名的渐变_264);}.cls-35{fill:url(#未命名的渐变_2127);}.cls-36{opacity:0.15;}.cls-37{fill:#15b8d9;}.cls-38{fill:#19d9ff;}.cls-39{fill:url(#未命名的渐变_35);}.cls-40{fill:url(#未命名的渐变_107-6);}.cls-41{fill:url(#未命名的渐变_4);}.cls-42{fill:url(#未命名的渐变_3);}.cls-43{fill:url(#未命名的渐变_2);}.cls-44{fill:url(#未命名的渐变_35-2);}.cls-45{fill:url(#未命名的渐变_107-7);}.cls-46{fill:url(#未命名的渐变_179);}.cls-47{fill:url(#未命名的渐变_132);}.cls-48{fill:url(#未命名的渐变_123);}.cls-49{fill:url(#未命名的渐变_35-3);}.cls-50{fill:url(#未命名的渐变_107-8);}.cls-51{fill:url(#未命名的渐变_179-2);}.cls-52{fill:url(#未命名的渐变_132-2);}.cls-53{fill:url(#未命名的渐变_123-2);}.cls-54{fill:url(#未命名的渐变_35-4);}.cls-55{fill:url(#未命名的渐变_107-9);}.cls-56{fill:url(#未命名的渐变_103);}.cls-57{fill:url(#未命名的渐变_7944);}.cls-58{fill:url(#未命名的渐变_37);}.cls-59{opacity:0.2;}</style><pattern id="新建图案" data-name="新建图案" width="18.57" height="32.16" patternTransform="translate(3160.36 663.11)" patternUnits="userSpaceOnUse" viewBox="0 0 18.57 32.16"><rect class="cls-1" width="18.57" height="32.16"/><polyline class="cls-2" points="18.57 21.44 18.57 32.16 18.57 42.88"/><polyline class="cls-2" points="9.29 26.8 18.57 32.16 27.85 37.51 27.85 37.52"/><polyline class="cls-2" points="9.29 37.52 9.29 37.51 18.57 32.16 27.85 26.8"/><polygon class="cls-2" points="27.85 37.52 27.85 26.8 18.57 21.44 9.28 26.8 9.28 37.52 18.57 42.88 27.85 37.52"/><polyline class="cls-2" points="0 21.44 0 32.16 0 42.88"/><polyline class="cls-2" points="-9.28 26.8 0 32.16 9.28 37.51 9.28 37.52"/><polyline class="cls-2" points="-9.28 37.52 -9.28 37.51 0 32.16 9.28 26.8"/><polygon class="cls-2" points="9.28 37.52 9.28 26.8 0 21.44 -9.29 26.8 -9.29 37.52 0 42.88 9.28 37.52"/><polyline class="cls-2" points="18.57 10.72 27.85 16.08 37.13 21.43 37.13 21.44"/><polyline class="cls-2" points="18.57 21.44 18.57 21.43 27.85 16.08 37.13 10.72"/><polygon class="cls-2" points="37.14 21.44 37.14 10.72 27.85 5.36 18.57 10.72 18.57 21.44 27.85 26.8 37.14 21.44"/><polyline class="cls-2" points="9.29 5.36 9.29 16.08 9.29 26.8"/><polyline class="cls-2" points="0.01 10.72 9.29 16.08 18.57 21.43 18.57 21.44"/><polyline class="cls-2" points="0.01 21.44 0.01 21.43 9.29 16.08 18.57 10.72"/><polygon class="cls-2" points="18.57 21.44 18.57 10.72 9.28 5.36 0 10.72 0 21.44 9.28 26.8 18.57 21.44"/><polyline class="cls-2" points="-18.56 10.72 -9.28 16.08 0 21.43 0 21.44"/><polyline class="cls-2" points="-18.56 21.44 -18.56 21.43 -9.28 16.08 0 10.72"/><polygon class="cls-2" points="0 21.44 0 10.72 -9.29 5.36 -18.57 10.72 -18.57 21.44 -9.29 26.8 0 21.44"/><polyline class="cls-2" points="18.57 -10.72 18.57 0 18.57 10.72"/><polyline class="cls-2" points="9.29 -5.36 18.57 0 27.85 5.35 27.85 5.36"/><polyline class="cls-2" points="9.29 5.36 9.29 5.35 18.57 0 27.85 -5.36"/><polygon class="cls-2" points="27.85 5.36 27.85 -5.36 18.57 -10.72 9.28 -5.36 9.28 5.36 18.57 10.72 27.85 5.36"/><polyline class="cls-2" points="0 -10.72 0 0 0 10.72"/><polyline class="cls-2" points="-9.28 -5.36 0 0 9.28 5.35 9.28 5.36"/><polyline class="cls-2" points="-9.28 5.36 -9.28 5.35 0 0 9.28 -5.36"/><polygon class="cls-2" points="9.28 5.36 9.28 -5.36 0 -10.72 -9.29 -5.36 -9.29 5.36 0 10.72 9.28 5.36"/></pattern><linearGradient id="未命名的渐变_163" x1="31.23" y1="108.27" x2="117.13" y2="108.27" gradientUnits="userSpaceOnUse"><stop offset="0" stop-color="#7a98cc"/><stop offset="1" stop-color="#262e39"/></linearGradient><linearGradient id="未命名的渐变_25" x1="87.43" y1="148.78" x2="118.35" y2="117.86" gradientUnits="userSpaceOnUse"><stop offset="0" stop-color="#0e1729"/><stop offset="0.53" stop-color="#0b1320"/><stop offset="1" stop-color="#070e14"/></linearGradient><linearGradient id="未命名的渐变_21" x1="92.31" y1="143.64" x2="27.56" y2="106.26" gradientUnits="userSpaceOnUse"><stop offset="0" stop-color="#1c2633"/><stop offset="1" stop-color="#222d3d"/></linearGradient><linearGradient id="未命名的渐变_13" x1="36.04" y1="28.74" x2="79.25" y2="3.8" gradientUnits="userSpaceOnUse"><stop offset="0" stop-color="#89abe6"/><stop offset="1" stop-color="#547099"/></linearGradient><linearGradient id="未命名的渐变_42" x1="57.64" y1="32.54" x2="57.64" gradientUnits="userSpaceOnUse"><stop offset="0" stop-color="#99beff"/><stop offset="0.02" stop-color="#99beff" stop-opacity="0.93"/><stop offset="0.09" stop-color="#99beff" stop-opacity="0.74"/><stop offset="0.17" stop-color="#99beff" stop-opacity="0.56"/><stop offset="0.25" stop-color="#99beff" stop-opacity="0.41"/><stop offset="0.33" stop-color="#99beff" stop-opacity="0.28"/><stop offset="0.43" stop-color="#99beff" stop-opacity="0.18"/><stop offset="0.53" stop-color="#99beff" stop-opacity="0.1"/><stop offset="0.64" stop-color="#99beff" stop-opacity="0.04"/><stop offset="0.77" stop-color="#99beff" stop-opacity="0.01"/><stop offset="1" stop-color="#99beff" stop-opacity="0"/></linearGradient><linearGradient id="未命名的渐变_107" x1="35.05" y1="106.86" x2="106.29" y2="35.61" gradientUnits="userSpaceOnUse"><stop offset="0" stop-color="#283140"/><stop offset="0.34" stop-color="#232b37"/><stop offset="0.9" stop-color="#15191f"/><stop offset="1" stop-color="#12161a"/></linearGradient><linearGradient id="未命名的渐变_455" x1="69.6" y1="119.28" x2="15.49" y2="25.55" gradientUnits="userSpaceOnUse"><stop offset="0" stop-color="#425266"/><stop offset="1" stop-color="#596b8c"/></linearGradient><linearGradient id="未命名的渐变_13-2" x1="64.77" y1="47.71" x2="112.08" y2="20.4" xlink:href="#未命名的渐变_13"/><linearGradient id="未命名的渐变_42-2" x1="88.43" y1="52.67" x2="88.43" y2="15.43" xlink:href="#未命名的渐变_42"/><linearGradient id="未命名的渐变_107-2" x1="69.92" y1="126.98" x2="141.16" y2="55.74" xlink:href="#未命名的渐变_107"/><linearGradient id="未命名的渐变_71" x1="102.42" y1="140.59" x2="44.24" y2="39.8" xlink:href="#未命名的渐变_455"/><linearGradient id="未命名的渐变_71-2" x1="50.53" y1="114.54" x2="32.26" y2="96.27" xlink:href="#未命名的渐变_455"/><linearGradient id="未命名的渐变_107-3" x1="42.58" y1="113.43" x2="52.44" y2="103.57" xlink:href="#未命名的渐变_107"/><linearGradient id="未命名的渐变_71-3" x1="74.26" y1="126.41" x2="55.99" y2="108.14" xlink:href="#未命名的渐变_455"/><linearGradient id="未命名的渐变_107-4" x1="66.32" y1="125.3" x2="76.18" y2="115.44" xlink:href="#未命名的渐变_107"/><linearGradient id="未命名的渐变_71-4" x1="87.21" y1="133.96" x2="68.94" y2="115.69" xlink:href="#未命名的渐变_455"/><linearGradient id="未命名的渐变_107-5" x1="79.27" y1="132.85" x2="89.13" y2="122.99" xlink:href="#未命名的渐变_107"/><linearGradient id="未命名的渐变_17259" x1="41.36" y1="90.65" x2="43.39" y2="90.65" gradientUnits="userSpaceOnUse"><stop offset="0" stop-color="#096dd9"/><stop offset="1" stop-color="#40a9ff"/></linearGradient><linearGradient id="未命名的渐变_17259-2" x1="71.57" y1="106.83" x2="73.6" y2="106.83" xlink:href="#未命名的渐变_17259"/><linearGradient id="未命名的渐变_2133" x1="46.68" y1="70.29" x2="46.61" y2="70.17" gradientUnits="userSpaceOnUse"><stop offset="0" stop-color="#3f99f3"/><stop offset="1" stop-color="#0271e5"/></linearGradient><linearGradient id="未命名的渐变_17280" x1="46.72" y1="70.28" x2="46.72" y2="63.12" gradientUnits="userSpaceOnUse"><stop offset="0" stop-color="#0073e6"/><stop offset="1" stop-color="#143ccc"/></linearGradient><linearGradient id="未命名的渐变_17259-3" x1="47.28" y1="69.54" x2="36.89" y2="59.16" xlink:href="#未命名的渐变_17259"/><linearGradient id="未命名的渐变_277" x1="40.96" y1="66.26" x2="43.21" y2="62.35" gradientUnits="userSpaceOnUse"><stop offset="0" stop-color="#143ccc"/><stop offset="1" stop-color="#0073e6"/></linearGradient><linearGradient id="未命名的渐变_2139" x1="38.28" y1="58.12" x2="38.21" y2="58" gradientUnits="userSpaceOnUse"><stop offset="0" stop-color="#7fd9ff"/><stop offset="1" stop-color="#1056dc"/></linearGradient><linearGradient id="未命名的渐变_264" x1="45.62" y1="63.63" x2="39.15" y2="57.16" gradientUnits="userSpaceOnUse"><stop offset="0" stop-color="#008dff"/><stop offset="1" stop-color="#8ce2ff"/></linearGradient><linearGradient id="未命名的渐变_2127" x1="46.77" y1="63.26" x2="46.45" y2="62.7" gradientUnits="userSpaceOnUse"><stop offset="0" stop-color="#133dcd"/><stop offset="1" stop-color="#0a93ff"/></linearGradient><linearGradient id="未命名的渐变_35" x1="36.7" y1="57.65" x2="37.55" y2="56.19" gradientTransform="matrix(-1, 0, 0, 1, 83.35, 0)" gradientUnits="userSpaceOnUse"><stop offset="0" stop-color="#283140"/><stop offset="0.1" stop-color="#12161a"/><stop offset="0.8" stop-color="#89abe6"/><stop offset="1" stop-color="#283140"/></linearGradient><linearGradient id="未命名的渐变_107-6" x1="36.83" y1="57.67" x2="38" y2="56.5" gradientTransform="matrix(-1, 0, 0, 1, 83.35, 0)" xlink:href="#未命名的渐变_107"/><linearGradient id="未命名的渐变_4" x1="37.08" y1="57.8" x2="37.86" y2="56.46" gradientTransform="matrix(-1, 0, 0, 1, 83.35, 0)" gradientUnits="userSpaceOnUse"><stop offset="0" stop-color="#ffb700"/><stop offset="0.1" stop-color="#ffa400"/><stop offset="0.8" stop-color="#ffe95c"/><stop offset="1" stop-color="#ffa400"/></linearGradient><linearGradient id="未命名的渐变_3" x1="37.3" y1="57.36" x2="38.39" y2="57.36" gradientTransform="matrix(-1, 0, 0, 1, 83.35, 0)" gradientUnits="userSpaceOnUse"><stop offset="0" stop-color="#ffa400"/><stop offset="1" stop-color="#ffa400"/></linearGradient><linearGradient id="未命名的渐变_2" x1="45.23" y1="57.83" x2="45.78" y2="56.89" gradientUnits="userSpaceOnUse"><stop offset="0" stop-color="#ffa400"/><stop offset="0.2" stop-color="#ffae1a"/><stop offset="0.55" stop-color="#ffbc42"/><stop offset="0.83" stop-color="#ffc55a"/><stop offset="1" stop-color="#ffc863"/></linearGradient><linearGradient id="未命名的渐变_35-2" x1="39.76" y1="55.91" x2="40.61" y2="54.44" xlink:href="#未命名的渐变_35"/><linearGradient id="未命名的渐变_107-7" x1="39.88" y1="55.93" x2="41.05" y2="54.76" gradientTransform="matrix(-1, 0, 0, 1, 83.35, 0)" xlink:href="#未命名的渐变_107"/><linearGradient id="未命名的渐变_179" x1="40.14" y1="56.06" x2="40.91" y2="54.72" gradientTransform="matrix(-1, 0, 0, 1, 83.35, 0)" gradientUnits="userSpaceOnUse"><stop offset="0" stop-color="#00bf84"/><stop offset="0.1" stop-color="#00a874"/><stop offset="0.8" stop-color="#3fb"/><stop offset="1" stop-color="#00a874"/></linearGradient><linearGradient id="未命名的渐变_132" x1="40.36" y1="55.61" x2="41.45" y2="55.61" gradientTransform="matrix(-1, 0, 0, 1, 83.35, 0)" gradientUnits="userSpaceOnUse"><stop offset="0" stop-color="#00a874"/><stop offset="1" stop-color="#00a874"/></linearGradient><linearGradient id="未命名的渐变_123" x1="42.18" y1="56.08" x2="42.72" y2="55.15" gradientUnits="userSpaceOnUse"><stop offset="0" stop-color="#00a874"/><stop offset="0.12" stop-color="#08b680"/><stop offset="0.51" stop-color="#1fdea0"/><stop offset="0.81" stop-color="#2ef6b4"/><stop offset="1" stop-color="#3fb"/></linearGradient><linearGradient id="未命名的渐变_35-3" x1="43" y1="54.03" x2="43.85" y2="52.56" xlink:href="#未命名的渐变_35"/><linearGradient id="未命名的渐变_107-8" x1="43.13" y1="54.05" x2="44.3" y2="52.88" gradientTransform="matrix(-1, 0, 0, 1, 83.35, 0)" xlink:href="#未命名的渐变_107"/><linearGradient id="未命名的渐变_179-2" x1="43.38" y1="54.18" x2="44.15" y2="52.84" xlink:href="#未命名的渐变_179"/><linearGradient id="未命名的渐变_132-2" x1="43.6" y1="53.74" x2="44.69" y2="53.74" xlink:href="#未命名的渐变_132"/><linearGradient id="未命名的渐变_123-2" x1="38.94" y1="54.21" x2="39.48" y2="53.27" xlink:href="#未命名的渐变_123"/><linearGradient id="未命名的渐变_35-4" x1="39.76" y1="74.92" x2="40.61" y2="73.45" xlink:href="#未命名的渐变_35"/><linearGradient id="未命名的渐变_107-9" x1="39.88" y1="74.94" x2="41.05" y2="73.77" gradientTransform="matrix(-1, 0, 0, 1, 83.35, 0)" xlink:href="#未命名的渐变_107"/><linearGradient id="未命名的渐变_103" x1="40.14" y1="75.07" x2="40.91" y2="73.73" gradientTransform="matrix(-1, 0, 0, 1, 83.35, 0)" gradientUnits="userSpaceOnUse"><stop offset="0" stop-color="#f50"/><stop offset="0.1" stop-color="#ff4000"/><stop offset="0.8" stop-color="#ffad5c"/><stop offset="1" stop-color="#ff4000"/></linearGradient><linearGradient id="未命名的渐变_7944" x1="40.36" y1="74.63" x2="41.45" y2="74.63" gradientTransform="matrix(-1, 0, 0, 1, 83.35, 0)" gradientUnits="userSpaceOnUse"><stop offset="0" stop-color="#ff4000"/><stop offset="1" stop-color="#ff4000"/></linearGradient><linearGradient id="未命名的渐变_37" x1="42.18" y1="75.1" x2="42.72" y2="74.16" gradientUnits="userSpaceOnUse"><stop offset="0" stop-color="#ff4000"/><stop offset="0.2" stop-color="#ff541a"/><stop offset="0.55" stop-color="#ff7242"/><stop offset="0.83" stop-color="#ff845a"/><stop offset="1" stop-color="#ff8b63"/></linearGradient></defs><title>逆变器</title><g id="图层_2" data-name="图层 2"><g id="图层_1-2" data-name="图层 1"><g id="逆变器"><g class="cls-3"><rect class="cls-4" width="150" height="150"/><rect id="网格" class="cls-5" width="150" height="150"/></g><g class="cls-6"><polygon class="cls-7" points="117.13 116.64 88.8 133.11 31.23 99.9 59.56 83.44 117.13 116.64"/><polygon class="cls-8" points="117.13 116.64 116.97 133.54 88.64 150 88.8 133.11 117.13 116.64"/><polygon class="cls-9" points="88.8 133.11 88.64 150 31.07 116.79 31.23 99.9 88.8 133.11"/></g><g class="cls-6"><polygon class="cls-10" points="85.76 15.09 55.73 32.54 29.52 17.45 59.55 0 85.76 15.09"/><path class="cls-11" d="M59.56.87,84.27,15.09,55.73,31.68,31,17.45,59.56.87m0-.87-30,17.45L55.73,32.54l30-17.45L59.56,0Z"/><polygon class="cls-12" points="85.76 15.09 85.6 109.93 55.57 127.38 55.73 32.54 85.76 15.09"/><polygon class="cls-13" points="55.73 32.54 55.57 127.38 29.36 112.29 29.52 17.46 55.73 32.54"/></g><g class="cls-6"><polygon class="cls-14" points="120.64 35.22 90.6 52.67 56.22 32.89 86.25 15.43 120.64 35.22"/><path class="cls-15" d="M86.25,16.3l32.89,18.92L90.6,51.8,57.71,32.88,86.25,16.3m0-.87-30,17.46L90.6,52.67l30-17.45L86.25,15.43Z"/><polygon class="cls-16" points="120.64 35.22 120.47 130.06 90.44 147.51 90.6 52.67 120.64 35.22"/><polygon class="cls-17" points="90.61 52.67 90.44 147.51 56.06 127.73 56.21 32.89 90.61 52.67"/></g><g class="cls-6"><polygon class="cls-18" points="47.16 99.49 47.16 101.31 47.15 102.41 47.15 104.39 47.14 105.26 47.14 108.34 47.13 109.22 47.13 112.3 47.12 113.18 47.12 115.16 47.11 116.26 47.11 117.96 35.62 111.33 35.62 109.62 35.63 108.52 35.63 106.55 35.64 105.66 35.64 102.59 35.65 101.72 35.65 98.63 35.66 97.75 35.66 95.77 35.67 94.67 35.67 92.86 47.16 99.49"/><polygon class="cls-19" points="47.16 99.49 47.11 117.96 47.87 117.52 47.92 99.05 47.16 99.49"/><polygon class="cls-20" points="36.44 92.42 35.68 92.86 47.16 99.49 47.92 99.05 36.44 92.42"/><polygon class="cls-4" points="47.16 100.43 47.16 101.31 35.67 94.67 35.67 93.8 47.16 100.43"/><polygon class="cls-4" points="47.15 102.41 47.15 103.29 35.66 96.66 35.66 95.77 47.15 102.41"/><polygon class="cls-4" points="47.15 104.39 47.14 105.26 35.65 98.63 35.66 97.75 47.15 104.39"/><polygon class="cls-4" points="47.14 106.36 47.14 107.25 35.65 100.61 35.65 99.73 47.14 106.36"/><polygon class="cls-4" points="47.14 108.34 47.13 109.22 35.64 102.59 35.65 101.72 47.14 108.34"/><polygon class="cls-4" points="47.13 110.32 47.13 111.2 35.64 104.56 35.64 103.69 47.13 110.32"/><polygon class="cls-4" points="47.13 112.3 47.12 113.18 35.63 106.55 35.64 105.66 47.13 112.3"/><polygon class="cls-4" points="47.12 114.28 47.12 115.16 35.63 108.52 35.63 107.65 47.12 114.28"/><polygon class="cls-4" points="47.11 116.26 47.11 117.14 35.62 110.51 35.62 109.62 47.11 116.26"/></g><g class="cls-6"><polygon class="cls-21" points="70.9 111.36 70.9 113.17 70.89 114.27 70.89 116.26 70.88 117.13 70.88 120.21 70.87 121.09 70.87 124.17 70.86 125.05 70.86 127.03 70.85 128.13 70.85 129.83 59.36 123.19 59.36 121.49 59.37 120.39 59.37 118.42 59.38 117.53 59.38 114.46 59.39 113.58 59.39 110.5 59.4 109.62 59.4 107.64 59.41 106.54 59.41 104.72 70.9 111.36"/><polygon class="cls-22" points="70.89 111.36 70.84 129.82 71.6 129.38 71.66 110.92 70.89 111.36"/><polygon class="cls-20" points="60.17 104.29 59.41 104.73 70.89 111.36 71.66 110.92 60.17 104.29"/><polygon class="cls-4" points="70.9 112.3 70.9 113.17 59.41 106.54 59.41 105.66 70.9 112.3"/><polygon class="cls-4" points="70.89 114.27 70.89 115.16 59.4 108.52 59.4 107.64 70.89 114.27"/><polygon class="cls-4" points="70.89 116.26 70.88 117.13 59.39 110.5 59.4 109.62 70.89 116.26"/><polygon class="cls-4" points="70.88 118.23 70.88 119.12 59.39 112.48 59.39 111.6 70.88 118.23"/><polygon class="cls-4" points="70.88 120.21 70.87 121.09 59.38 114.46 59.39 113.58 70.88 120.21"/><polygon class="cls-4" points="70.87 122.19 70.87 123.06 59.38 116.43 59.38 115.56 70.87 122.19"/><polygon class="cls-4" points="70.87 124.17 70.86 125.05 59.37 118.42 59.38 117.53 70.87 124.17"/><polygon class="cls-4" points="70.86 126.15 70.86 127.03 59.37 120.39 59.37 119.52 70.86 126.15"/><polygon class="cls-4" points="70.85 128.13 70.85 129.01 59.36 122.38 59.36 121.49 70.85 128.13"/></g><g class="cls-6"><polygon class="cls-23" points="83.85 118.91 83.85 120.72 83.83 121.83 83.83 123.81 83.82 124.68 83.82 127.76 83.81 128.64 83.81 131.72 83.8 132.6 83.8 134.58 83.79 135.68 83.79 137.38 72.3 130.75 72.3 129.04 72.31 127.94 72.31 125.97 72.32 125.08 72.32 122.01 72.33 121.13 72.33 118.05 72.34 117.17 72.34 115.19 72.36 114.09 72.36 112.28 83.85 118.91"/><polygon class="cls-24" points="83.84 118.91 83.79 137.38 84.55 136.94 84.6 118.47 83.84 118.91"/><polygon class="cls-20" points="73.12 111.84 72.36 112.28 83.84 118.91 84.6 118.47 73.12 111.84"/><polygon class="cls-4" points="83.85 119.85 83.85 120.72 72.36 114.09 72.36 113.22 83.85 119.85"/><polygon class="cls-4" points="83.83 121.83 83.83 122.71 72.34 116.07 72.34 115.19 83.83 121.83"/><polygon class="cls-4" points="83.83 123.81 83.82 124.68 72.33 118.05 72.34 117.17 83.83 123.81"/><polygon class="cls-4" points="83.82 125.78 83.82 126.67 72.33 120.03 72.33 119.15 83.82 125.78"/><polygon class="cls-4" points="83.82 127.76 83.81 128.64 72.32 122.01 72.33 121.13 83.82 127.76"/><polygon class="cls-4" points="83.81 129.74 83.81 130.62 72.32 123.98 72.32 123.11 83.81 129.74"/><polygon class="cls-4" points="83.81 131.72 83.8 132.6 72.31 125.97 72.32 125.08 83.81 131.72"/><polygon class="cls-4" points="83.8 133.7 83.8 134.58 72.31 127.94 72.31 127.07 83.8 133.7"/><polygon class="cls-4" points="83.79 135.68 83.79 136.56 72.3 129.93 72.3 129.04 83.79 135.68"/></g><path class="cls-25" d="M42.44,87.13c-.11-.06-.22-.06-.28,0l-2.84,4c-.13.17,0,.58.28.72l5.65,3.27c.25.14.41-.08.28-.41l-2.81-7.25a.67.67,0,0,0-.28-.35"/><polygon class="cls-26" points="43.39 90.87 42.51 90.36 42.83 89.67 41.79 89.06 41.36 90.33 42.19 90.81 41.77 92.23 43.39 90.87"/><path class="cls-25" d="M72.65,103.31a.21.21,0,0,0-.29,0l-2.84,4c-.12.18,0,.58.28.73l5.65,3.26c.25.14.41-.08.29-.4l-2.81-7.26a.72.72,0,0,0-.28-.35"/><polygon class="cls-27" points="73.6 107.06 72.72 106.55 73.04 105.85 72 105.25 71.57 106.51 72.4 106.99 71.98 108.41 73.6 107.06"/><path class="cls-28" d="M46.42,70.28a.23.23,0,0,1,0,.13h0a.16.16,0,0,1-.07.07l.56-.32a.17.17,0,0,0,.06-.06v0h0v0h0v0h0v0h0v0h0Z"/><polygon class="cls-29" points="46.46 63.44 47.02 63.12 46.98 69.96 46.41 70.28 46.46 63.44"/><path class="cls-30" d="M46.14,62.89a.72.72,0,0,1,.32.55l0,6.84c0,.21-.15.29-.33.19L38,65.82a.71.71,0,0,1-.33-.56l0-6.83c0-.21.15-.3.33-.19Z"/><path class="cls-31" d="M39,64.93l0-4.69a.17.17,0,0,1,.26-.15L45,63.38a.36.36,0,0,1,.17.3l0,4.69a.17.17,0,0,1-.26.15l-5.71-3.29A.36.36,0,0,1,39,64.93Z"/><path class="cls-32" d="M39.43,64.87l0-3.88a.1.1,0,0,1,.16-.09l5,2.91a.11.11,0,0,1,.06.1l0,3.88a.11.11,0,0,1-.16.09l-5-2.92A.1.1,0,0,1,39.43,64.87Z"/><path class="cls-33" d="M38.08,58.24l.56-.33h-.23l-.56.32.1,0h0A.35.35,0,0,1,38.08,58.24Z"/><polygon class="cls-34" points="38.08 58.24 38.64 57.91 46.7 62.56 46.14 62.88 38.08 58.24"/><path class="cls-35" d="M46.36,63.12h0a.51.51,0,0,1,.07.15h0a.5.5,0,0,1,0,.16l.56-.32v0h0v0h0v0h0v0h0v0h0v0h0v0l0,0h0l0,0,0,0,0,0v0h0l0,0h0l0,0H46.7l-.56.33a.53.53,0,0,1,.12.1h0A.64.64,0,0,1,46.36,63.12Z"/><g class="cls-36"><polygon class="cls-37" points="41.77 63.76 41.77 64.04 42.01 64.18 42.01 64.74 41.52 64.46 41.52 64.73 42.01 65.02 42.01 65.29 41.28 64.88 41.28 64.04 41.77 64.32 41.77 64.04 41.28 63.76 41.29 63.48 41.77 63.76"/><polygon class="cls-37" points="42.74 64.32 42.73 65.71 42.49 65.57 42.49 64.74 42.25 64.6 42.25 64.32 42.49 64.46 42.49 64.18 42.74 64.32"/></g><polygon class="cls-37" points="41.66 63.61 41.66 63.89 41.9 64.03 41.9 64.58 41.42 64.3 41.41 64.58 41.9 64.86 41.9 65.14 41.17 64.72 41.18 63.88 41.66 64.17 41.66 63.89 41.18 63.61 41.18 63.33 41.66 63.61"/><polygon class="cls-37" points="42.63 64.17 42.62 65.56 42.38 65.42 42.38 64.58 42.14 64.44 42.14 64.16 42.38 64.3 42.39 64.03 42.63 64.17"/><ellipse class="cls-38" cx="40.66" cy="63.81" rx="0.12" ry="0.21" transform="translate(-30.19 37.25) rotate(-36.95)"/><g class="cls-6"><path class="cls-39" d="M45.66,56.26a.43.43,0,0,1,.43.05,1.32,1.32,0,0,1,.6,1,.42.42,0,0,1-.18.38l-.15.09a.42.42,0,0,0,.18-.39,1.35,1.35,0,0,0-.6-1,.45.45,0,0,0-.43,0Z"/><path class="cls-40" d="M45.94,56.39a1.35,1.35,0,0,1,.6,1c0,.38-.27.54-.6.35a1.32,1.32,0,0,1-.6-1C45.34,56.36,45.61,56.2,45.94,56.39Z"/></g><g class="cls-6"><path class="cls-41" d="M45.49,56.46a.38.38,0,0,1,.39,0,1.19,1.19,0,0,1,.54.94.38.38,0,0,1-.16.35l-.37.23a.38.38,0,0,0,.16-.35,1.22,1.22,0,0,0-.54-.94.4.4,0,0,0-.39,0Z"/><path class="cls-42" d="M45.51,56.73a1.22,1.22,0,0,1,.54.94c0,.35-.25.49-.55.31A1.19,1.19,0,0,1,45,57C45,56.7,45.21,56.56,45.51,56.73Z"/><path class="cls-43" d="M45.26,56.76h0a.41.41,0,0,1,.2.06,1.11,1.11,0,0,1,.49.85c0,.18-.08.29-.2.29a.41.41,0,0,1-.2-.06,1.14,1.14,0,0,1-.49-.85c0-.18.08-.29.2-.29m0-.1c-.17,0-.3.14-.3.38a1.19,1.19,0,0,0,.54.94.52.52,0,0,0,.25.08c.18,0,.3-.14.3-.39a1.22,1.22,0,0,0-.54-.94.5.5,0,0,0-.25-.07Z"/></g><g class="cls-6"><path class="cls-44" d="M42.61,54.52a.45.45,0,0,1,.43,0,1.3,1.3,0,0,1,.59,1,.43.43,0,0,1-.17.39l-.15.08a.4.4,0,0,0,.18-.38,1.33,1.33,0,0,0-.6-1,.4.4,0,0,0-.43,0Z"/><path class="cls-45" d="M42.89,54.65a1.33,1.33,0,0,1,.6,1c0,.38-.27.53-.61.34a1.33,1.33,0,0,1-.6-1C42.29,54.61,42.55,54.46,42.89,54.65Z"/></g><g class="cls-6"><path class="cls-46" d="M42.44,54.72a.4.4,0,0,1,.39,0,1.22,1.22,0,0,1,.54.94.37.37,0,0,1-.16.35l-.37.24a.38.38,0,0,0,.16-.35,1.2,1.2,0,0,0-.55-.94.36.36,0,0,0-.38,0Z"/><path class="cls-47" d="M42.45,55a1.2,1.2,0,0,1,.55.94c0,.34-.25.48-.55.31a1.19,1.19,0,0,1-.54-.94C41.91,55,42.15,54.82,42.45,55Z"/><path class="cls-48" d="M42.21,55h0a.35.35,0,0,1,.19.06,1.09,1.09,0,0,1,.5.85c0,.18-.08.28-.21.28a.41.41,0,0,1-.19-.06A1.08,1.08,0,0,1,42,55.3c0-.18.07-.28.2-.28m0-.1c-.18,0-.3.14-.3.38a1.19,1.19,0,0,0,.54.94.49.49,0,0,0,.24.07c.18,0,.31-.14.31-.38a1.2,1.2,0,0,0-.55-.94.47.47,0,0,0-.24-.07Z"/></g><g class="cls-6"><path class="cls-49" d="M39.37,52.64a.41.41,0,0,1,.42,0,1.29,1.29,0,0,1,.6,1,.44.44,0,0,1-.17.39l-.15.09a.43.43,0,0,0,.17-.39,1.31,1.31,0,0,0-.6-1,.43.43,0,0,0-.42,0Z"/><path class="cls-50" d="M39.64,52.77a1.31,1.31,0,0,1,.6,1c0,.38-.27.54-.6.34a1.32,1.32,0,0,1-.6-1C39,52.74,39.31,52.58,39.64,52.77Z"/></g><g class="cls-6"><path class="cls-51" d="M39.2,52.84a.36.36,0,0,1,.38,0,1.2,1.2,0,0,1,.55.94.37.37,0,0,1-.16.34l-.38.24a.38.38,0,0,0,.16-.35,1.22,1.22,0,0,0-.54-.94.4.4,0,0,0-.39,0Z"/><path class="cls-52" d="M39.21,53.11a1.22,1.22,0,0,1,.54.94c0,.35-.24.49-.54.31a1.16,1.16,0,0,1-.54-.94C38.67,53.08,38.91,52.94,39.21,53.11Z"/><path class="cls-53" d="M39,53v.1a.38.38,0,0,1,.19.06,1.08,1.08,0,0,1,.49.85c0,.18-.07.29-.2.29a.38.38,0,0,1-.19-.06,1.09,1.09,0,0,1-.49-.86c0-.18.07-.28.2-.28V53m0,0c-.18,0-.3.14-.3.38a1.16,1.16,0,0,0,.54.94.52.52,0,0,0,.24.08c.18,0,.3-.14.3-.39a1.22,1.22,0,0,0-.54-.94A.49.49,0,0,0,39,53Z"/></g><g class="cls-6"><path class="cls-54" d="M42.61,73.53a.45.45,0,0,1,.43,0,1.31,1.31,0,0,1,.59,1,.42.42,0,0,1-.17.39l-.15.09a.43.43,0,0,0,.18-.39,1.33,1.33,0,0,0-.6-1,.43.43,0,0,0-.43,0Z"/><path class="cls-55" d="M42.89,73.66a1.33,1.33,0,0,1,.6,1c0,.38-.27.54-.61.34a1.32,1.32,0,0,1-.6-1C42.29,73.63,42.55,73.47,42.89,73.66Z"/></g><g class="cls-6"><path class="cls-56" d="M42.44,73.73a.38.38,0,0,1,.39,0,1.19,1.19,0,0,1,.54.94.35.35,0,0,1-.16.34l-.37.24a.38.38,0,0,0,.16-.35,1.21,1.21,0,0,0-.55-.94.38.38,0,0,0-.38,0Z"/><path class="cls-57" d="M42.45,74a1.21,1.21,0,0,1,.55.94c0,.35-.25.48-.55.31a1.19,1.19,0,0,1-.54-.94C41.91,74,42.15,73.83,42.45,74Z"/><path class="cls-58" d="M42.21,74h0a.35.35,0,0,1,.19.06,1.09,1.09,0,0,1,.5.85c0,.18-.08.29-.21.29a.41.41,0,0,1-.19-.06,1.12,1.12,0,0,1-.49-.86c0-.18.07-.28.2-.28m0-.1c-.18,0-.3.14-.3.38a1.19,1.19,0,0,0,.54.94.52.52,0,0,0,.24.08c.18,0,.31-.15.31-.39a1.21,1.21,0,0,0-.55-.94.47.47,0,0,0-.24-.07Z"/></g></g></g></g></svg>