<svg xmlns="http://www.w3.org/2000/svg" xmlns:xlink="http://www.w3.org/1999/xlink" viewBox="0 0 150 150"><defs><style>.cls-1,.cls-2,.cls-20{fill:none;}.cls-2{stroke:#fff;stroke-width:0.1px;}.cls-2,.cls-20{stroke-miterlimit:10;}.cls-3{opacity:0;}.cls-4{fill:#000714;}.cls-5{opacity:0.1;fill:url(#新建图案);}.cls-6{isolation:isolate;}.cls-7{fill:url(#未命名的渐变_102);}.cls-8{fill:url(#未命名的渐变_102-2);}.cls-9{fill:url(#未命名的渐变_114);}.cls-10{fill:url(#未命名的渐变_13);}.cls-11{fill:#c5c5c5;}.cls-12{fill:url(#未命名的渐变_102-3);}.cls-13{fill:url(#未命名的渐变_13-2);}.cls-14{fill:url(#未命名的渐变_114-2);}.cls-15{fill:url(#未命名的渐变_102-4);}.cls-16{fill:url(#未命名的渐变_114-3);}.cls-17{fill:url(#未命名的渐变_13-3);}.cls-18{fill:url(#未命名的渐变_102-5);}.cls-19{fill:url(#未命名的渐变_114-4);}.cls-20{stroke:#000714;stroke-width:0.25px;opacity:0.45;mix-blend-mode:multiply;}.cls-21{fill:url(#未命名的渐变_57);}.cls-22{fill:url(#未命名的渐变_234);}.cls-23{fill:url(#未命名的渐变_102-6);}.cls-24{fill:url(#未命名的渐变_114-5);}.cls-25{fill:url(#未命名的渐变_16);}.cls-26{fill:url(#未命名的渐变_13-4);}.cls-27{fill:url(#未命名的渐变_328);}.cls-28{fill:url(#未命名的渐变_605);}.cls-29{fill:url(#未命名的渐变_608);}.cls-30{fill:url(#未命名的渐变_328-2);}.cls-31{fill:url(#未命名的渐变_291);}.cls-32{fill:url(#未命名的渐变_17280);}.cls-33{fill:url(#未命名的渐变_17283);}.cls-34{fill:#fff;opacity:0.08;}.cls-35{fill:url(#未命名的渐变_631);}.cls-36{fill:url(#未命名的渐变_328-3);}.cls-37{fill:url(#未命名的渐变_605-2);}.cls-38{fill:url(#未命名的渐变_608-2);}.cls-39{fill:url(#未命名的渐变_328-4);}.cls-40{fill:url(#未命名的渐变_291-2);}.cls-41{fill:url(#未命名的渐变_17280-2);}.cls-42{fill:url(#未命名的渐变_17283-2);}.cls-43{fill:url(#未命名的渐变_631-2);}.cls-44{fill:url(#未命名的渐变_328-5);}.cls-45{fill:url(#未命名的渐变_605-3);}.cls-46{fill:url(#未命名的渐变_608-3);}.cls-47{fill:url(#未命名的渐变_328-6);}.cls-48{fill:url(#未命名的渐变_291-3);}.cls-49{fill:url(#未命名的渐变_17280-3);}.cls-50{fill:url(#未命名的渐变_17283-3);}.cls-51{fill:url(#未命名的渐变_631-3);}.cls-52{fill:url(#未命名的渐变_328-7);}.cls-53{fill:url(#未命名的渐变_605-4);}.cls-54{fill:url(#未命名的渐变_608-4);}.cls-55{fill:url(#未命名的渐变_328-8);}.cls-56{fill:url(#未命名的渐变_291-4);}.cls-57{fill:url(#未命名的渐变_17280-4);}.cls-58{fill:url(#未命名的渐变_17283-4);}.cls-59{fill:url(#未命名的渐变_631-4);}.cls-60{fill:url(#未命名的渐变_328-9);}.cls-61{fill:url(#未命名的渐变_605-5);}.cls-62{fill:url(#未命名的渐变_608-5);}.cls-63{fill:url(#未命名的渐变_328-10);}.cls-64{fill:url(#未命名的渐变_291-5);}.cls-65{fill:url(#未命名的渐变_17280-5);}.cls-66{fill:url(#未命名的渐变_17283-5);}.cls-67{fill:url(#未命名的渐变_631-5);}.cls-68{fill:url(#未命名的渐变_328-11);}.cls-69{fill:url(#未命名的渐变_605-6);}.cls-70{fill:url(#未命名的渐变_608-6);}.cls-71{fill:url(#未命名的渐变_328-12);}.cls-72{fill:url(#未命名的渐变_291-6);}.cls-73{fill:url(#未命名的渐变_17280-6);}.cls-74{fill:url(#未命名的渐变_17283-6);}.cls-75{fill:url(#未命名的渐变_631-6);}.cls-76{fill:url(#未命名的渐变_245);}.cls-77{fill:url(#未命名的渐变_497);}.cls-78{fill:url(#未命名的渐变_245-2);}.cls-79{fill:url(#未命名的渐变_497-2);}.cls-80{fill:url(#未命名的渐变_262);}.cls-81{fill:url(#未命名的渐变_248);}.cls-82{fill:url(#未命名的渐变_245-3);}.cls-83{fill:url(#未命名的渐变_497-3);}.cls-84{fill:url(#未命名的渐变_245-4);}.cls-85{fill:url(#未命名的渐变_497-4);}.cls-86{fill:url(#未命名的渐变_262-2);}.cls-87{fill:url(#未命名的渐变_248-2);}.cls-88{fill:url(#未命名的渐变_245-5);}.cls-89{fill:url(#未命名的渐变_497-5);}.cls-90{fill:url(#未命名的渐变_245-6);}.cls-91{fill:url(#未命名的渐变_497-6);}.cls-92{fill:url(#未命名的渐变_262-3);}.cls-93{fill:url(#未命名的渐变_248-3);}.cls-94{fill:url(#未命名的渐变_245-7);}.cls-95{fill:url(#未命名的渐变_497-7);}.cls-96{fill:url(#未命名的渐变_245-8);}.cls-97{fill:url(#未命名的渐变_497-8);}.cls-98{fill:url(#未命名的渐变_262-4);}.cls-99{fill:url(#未命名的渐变_248-4);}.cls-100{fill:url(#未命名的渐变_245-9);}.cls-101{fill:url(#未命名的渐变_497-9);}.cls-102{fill:url(#未命名的渐变_245-10);}.cls-103{fill:url(#未命名的渐变_497-10);}.cls-104{fill:url(#未命名的渐变_262-5);}.cls-105{fill:url(#未命名的渐变_248-5);}.cls-106{fill:url(#未命名的渐变_245-11);}.cls-107{fill:url(#未命名的渐变_497-11);}.cls-108{fill:url(#未命名的渐变_245-12);}.cls-109{fill:url(#未命名的渐变_497-12);}.cls-110{fill:url(#未命名的渐变_262-6);}.cls-111{fill:url(#未命名的渐变_248-6);}.cls-112{fill:url(#未命名的渐变_245-13);}.cls-113{fill:url(#未命名的渐变_497-13);}.cls-114{fill:url(#未命名的渐变_245-14);}.cls-115{fill:url(#未命名的渐变_497-14);}.cls-116{fill:url(#未命名的渐变_262-7);}.cls-117{fill:url(#未命名的渐变_248-7);}.cls-118{fill:url(#未命名的渐变_245-15);}.cls-119{fill:url(#未命名的渐变_497-15);}.cls-120{fill:url(#未命名的渐变_245-16);}.cls-121{fill:url(#未命名的渐变_497-16);}.cls-122{fill:url(#未命名的渐变_262-8);}.cls-123{fill:url(#未命名的渐变_248-8);}.cls-124{fill:url(#未命名的渐变_245-17);}.cls-125{fill:url(#未命名的渐变_497-17);}.cls-126{fill:url(#未命名的渐变_245-18);}.cls-127{fill:url(#未命名的渐变_497-18);}.cls-128{fill:url(#未命名的渐变_262-9);}.cls-129{fill:url(#未命名的渐变_248-9);}.cls-130{fill:url(#未命名的渐变_245-19);}.cls-131{fill:url(#未命名的渐变_497-19);}.cls-132{fill:url(#未命名的渐变_245-20);}.cls-133{fill:url(#未命名的渐变_497-20);}.cls-134{fill:url(#未命名的渐变_262-10);}.cls-135{fill:url(#未命名的渐变_248-10);}.cls-136{fill:url(#未命名的渐变_245-21);}.cls-137{fill:url(#未命名的渐变_497-21);}.cls-138{fill:url(#未命名的渐变_245-22);}.cls-139{fill:url(#未命名的渐变_497-22);}.cls-140{fill:url(#未命名的渐变_262-11);}.cls-141{fill:url(#未命名的渐变_248-11);}.cls-142{fill:url(#未命名的渐变_245-23);}.cls-143{fill:url(#未命名的渐变_497-23);}.cls-144{fill:url(#未命名的渐变_245-24);}.cls-145{fill:url(#未命名的渐变_497-24);}.cls-146{fill:url(#未命名的渐变_262-12);}.cls-147{fill:url(#未命名的渐变_248-12);}.cls-148{fill:url(#未命名的渐变_102-7);}.cls-149{fill:url(#未命名的渐变_328-13);}.cls-150{fill:url(#未命名的渐变_102-8);}.cls-151{fill:url(#未命名的渐变_323);}.cls-152{fill:url(#未命名的渐变_102-9);}.cls-153{fill:url(#未命名的渐变_328-14);}.cls-154{fill:url(#未命名的渐变_102-10);}.cls-155{fill:url(#未命名的渐变_323-2);}.cls-156{opacity:0.2;}</style><pattern id="新建图案" data-name="新建图案" width="18.57" height="32.16" patternTransform="translate(1577.53 614.36)" patternUnits="userSpaceOnUse" viewBox="0 0 18.57 32.16"><rect class="cls-1" width="18.57" height="32.16"/><polyline class="cls-2" points="18.57 21.44 18.57 32.16 18.57 42.88"/><polyline class="cls-2" points="9.29 26.8 18.57 32.16 27.85 37.51 27.85 37.52"/><polyline class="cls-2" points="9.29 37.52 9.29 37.51 18.57 32.16 27.85 26.8"/><polygon class="cls-2" points="27.85 37.52 27.85 26.8 18.57 21.44 9.28 26.8 9.28 37.52 18.57 42.88 27.85 37.52"/><polyline class="cls-2" points="0 21.44 0 32.16 0 42.88"/><polyline class="cls-2" points="-9.28 26.8 0 32.16 9.28 37.51 9.28 37.52"/><polyline class="cls-2" points="-9.28 37.52 -9.28 37.51 0 32.16 9.28 26.8"/><polygon class="cls-2" points="9.28 37.52 9.28 26.8 0 21.44 -9.29 26.8 -9.29 37.52 0 42.88 9.28 37.52"/><polyline class="cls-2" points="18.57 10.72 27.85 16.08 37.13 21.43 37.13 21.44"/><polyline class="cls-2" points="18.57 21.44 18.57 21.43 27.85 16.08 37.13 10.72"/><polygon class="cls-2" points="37.14 21.44 37.14 10.72 27.85 5.36 18.57 10.72 18.57 21.44 27.85 26.8 37.14 21.44"/><polyline class="cls-2" points="9.29 5.36 9.29 16.08 9.29 26.8"/><polyline class="cls-2" points="0.01 10.72 9.29 16.08 18.57 21.43 18.57 21.44"/><polyline class="cls-2" points="0.01 21.44 0.01 21.43 9.29 16.08 18.57 10.72"/><polygon class="cls-2" points="18.57 21.44 18.57 10.72 9.28 5.36 0 10.72 0 21.44 9.28 26.8 18.57 21.44"/><polyline class="cls-2" points="-18.56 10.72 -9.28 16.08 0 21.43 0 21.44"/><polyline class="cls-2" points="-18.56 21.44 -18.56 21.43 -9.28 16.08 0 10.72"/><polygon class="cls-2" points="0 21.44 0 10.72 -9.29 5.36 -18.57 10.72 -18.57 21.44 -9.29 26.8 0 21.44"/><polyline class="cls-2" points="18.57 -10.72 18.57 0 18.57 10.72"/><polyline class="cls-2" points="9.29 -5.36 18.57 0 27.85 5.35 27.85 5.36"/><polyline class="cls-2" points="9.29 5.36 9.29 5.35 18.57 0 27.85 -5.36"/><polygon class="cls-2" points="27.85 5.36 27.85 -5.36 18.57 -10.72 9.28 -5.36 9.28 5.36 18.57 10.72 27.85 5.36"/><polyline class="cls-2" points="0 -10.72 0 0 0 10.72"/><polyline class="cls-2" points="-9.28 -5.36 0 0 9.28 5.35 9.28 5.36"/><polyline class="cls-2" points="-9.28 5.36 -9.28 5.35 0 0 9.28 -5.36"/><polygon class="cls-2" points="9.28 5.36 9.28 -5.36 0 -10.72 -9.29 -5.36 -9.29 5.36 0 10.72 9.28 5.36"/></pattern><linearGradient id="未命名的渐变_102" x1="130.66" y1="121.37" x2="134.91" y2="121.37" gradientUnits="userSpaceOnUse"><stop offset="0" stop-color="#283140"/><stop offset="0.34" stop-color="#232b37"/><stop offset="0.9" stop-color="#15191f"/><stop offset="1" stop-color="#12161a"/></linearGradient><linearGradient id="未命名的渐变_102-2" x1="132.02" y1="124.89" x2="136.88" y2="120.02" xlink:href="#未命名的渐变_102"/><linearGradient id="未命名的渐变_114" x1="134.39" y1="125.93" x2="129.95" y2="121.5" gradientUnits="userSpaceOnUse"><stop offset="0" stop-color="#425266"/><stop offset="1" stop-color="#596b8c"/></linearGradient><linearGradient id="未命名的渐变_13" x1="130.62" y1="118.82" x2="135.68" y2="118.82" gradientUnits="userSpaceOnUse"><stop offset="0" stop-color="#89abe6"/><stop offset="1" stop-color="#547099"/></linearGradient><linearGradient id="未命名的渐变_102-3" x1="91.87" y1="148.52" x2="98.54" y2="141.85" xlink:href="#未命名的渐变_102"/><linearGradient id="未命名的渐变_13-2" x1="89.09" y1="141.88" x2="97.57" y2="141.88" xlink:href="#未命名的渐变_13"/><linearGradient id="未命名的渐变_114-2" x1="94.79" y1="148.53" x2="88.11" y2="141.86" xlink:href="#未命名的渐变_114"/><linearGradient id="未命名的渐变_102-4" x1="15.21" y1="100.04" x2="19.46" y2="100.04" xlink:href="#未命名的渐变_102"/><linearGradient id="未命名的渐变_114-3" x1="18.07" y1="103.56" x2="13.23" y2="98.71" xlink:href="#未命名的渐变_114"/><linearGradient id="未命名的渐变_13-3" x1="14.44" y1="97.49" x2="19.47" y2="97.49" xlink:href="#未命名的渐变_13"/><linearGradient id="未命名的渐变_102-5" x1="15.7" y1="104.6" x2="20.14" y2="100.16" xlink:href="#未命名的渐变_102"/><linearGradient id="未命名的渐变_114-4" x1="94.77" y1="141.93" x2="12.87" y2="60.03" xlink:href="#未命名的渐变_114"/><linearGradient id="未命名的渐变_57" x1="14.32" y1="68.09" x2="119.66" y2="68.09" gradientUnits="userSpaceOnUse"><stop offset="0" stop-color="#8baeea"/><stop offset="1" stop-color="#5d7ca9"/></linearGradient><linearGradient id="未命名的渐变_234" x1="17.38" y1="68.08" x2="116.53" y2="68.08" gradientUnits="userSpaceOnUse"><stop offset="0" stop-color="#354664"/><stop offset="1" stop-color="#2c3e54"/></linearGradient><linearGradient id="未命名的渐变_102-6" x1="82.28" y1="132.32" x2="152.12" y2="62.49" xlink:href="#未命名的渐变_102"/><linearGradient id="未命名的渐变_114-5" x1="117.02" y1="80.23" x2="43.33" y2="6.54" xlink:href="#未命名的渐变_114"/><linearGradient id="未命名的渐变_16" x1="114.4" y1="77.61" x2="45.95" y2="9.16" gradientUnits="userSpaceOnUse"><stop offset="0" stop-color="#1b2633"/><stop offset="1" stop-color="#253146"/></linearGradient><linearGradient id="未命名的渐变_13-4" x1="40.7" y1="27.51" x2="135.47" y2="27.51" xlink:href="#未命名的渐变_13"/><linearGradient id="未命名的渐变_328" x1="106.04" y1="61.39" x2="108.92" y2="58.51" gradientUnits="userSpaceOnUse"><stop offset="0" stop-color="#1d242d"/><stop offset="1" stop-color="#596b8c"/></linearGradient><linearGradient id="未命名的渐变_605" x1="104.27" y1="60.16" x2="109.98" y2="60.16" gradientUnits="userSpaceOnUse"><stop offset="0" stop-color="#12161a"/><stop offset="0.8" stop-color="#7a98cc"/><stop offset="1" stop-color="#283140"/></linearGradient><linearGradient id="未命名的渐变_608" x1="110.25" y1="63.75" x2="105.57" y2="55.65" gradientUnits="userSpaceOnUse"><stop offset="0.12" stop-color="#12161a"/><stop offset="0.76" stop-color="#7a98cc"/><stop offset="1" stop-color="#283140"/></linearGradient><linearGradient id="未命名的渐变_328-2" x1="107.25" y1="60.52" x2="107.25" y2="59.39" xlink:href="#未命名的渐变_328"/><linearGradient id="未命名的渐变_291" x1="107.76" y1="60.38" x2="107.14" y2="59.3" gradientUnits="userSpaceOnUse"><stop offset="0" stop-color="#283140"/><stop offset="0.1" stop-color="#12161a"/><stop offset="0.8" stop-color="#7a98cc"/><stop offset="1" stop-color="#283140"/></linearGradient><linearGradient id="未命名的渐变_17280" x1="106.4" y1="61" x2="108.69" y2="58.71" gradientUnits="userSpaceOnUse"><stop offset="0" stop-color="#0073e6"/><stop offset="1" stop-color="#143ccc"/></linearGradient><linearGradient id="未命名的渐变_17283" x1="106.39" y1="61.09" x2="107.85" y2="58.57" gradientUnits="userSpaceOnUse"><stop offset="0" stop-color="#2f77eb"/><stop offset="1" stop-color="#59c8ff"/></linearGradient><linearGradient id="未命名的渐变_631" x1="106.95" y1="60.11" x2="108.4" y2="57.6" gradientUnits="userSpaceOnUse"><stop offset="0" stop-color="#addbff" stop-opacity="0.08"/><stop offset="1" stop-color="#addbff" stop-opacity="0.4"/></linearGradient><linearGradient id="未命名的渐变_328-3" x1="94.51" y1="54.67" x2="97.39" y2="51.79" xlink:href="#未命名的渐变_328"/><linearGradient id="未命名的渐变_605-2" x1="92.74" y1="53.43" x2="98.46" y2="53.43" xlink:href="#未命名的渐变_605"/><linearGradient id="未命名的渐变_608-2" x1="98.72" y1="57.03" x2="94.04" y2="48.93" xlink:href="#未命名的渐变_608"/><linearGradient id="未命名的渐变_328-4" x1="95.72" y1="53.8" x2="95.72" y2="52.67" xlink:href="#未命名的渐变_328"/><linearGradient id="未命名的渐变_291-2" x1="96.23" y1="53.66" x2="95.61" y2="52.58" xlink:href="#未命名的渐变_291"/><linearGradient id="未命名的渐变_17280-2" x1="94.87" y1="54.28" x2="97.16" y2="51.99" xlink:href="#未命名的渐变_17280"/><linearGradient id="未命名的渐变_17283-2" x1="94.86" y1="54.37" x2="96.32" y2="51.85" xlink:href="#未命名的渐变_17283"/><linearGradient id="未命名的渐变_631-2" x1="95.42" y1="53.39" x2="96.87" y2="50.88" xlink:href="#未命名的渐变_631"/><linearGradient id="未命名的渐变_328-5" x1="83.43" y1="46.46" x2="85.49" y2="44.4" xlink:href="#未命名的渐变_328"/><linearGradient id="未命名的渐变_605-3" x1="82.17" y1="45.58" x2="86.25" y2="45.58" xlink:href="#未命名的渐变_605"/><linearGradient id="未命名的渐变_608-3" x1="86.44" y1="48.15" x2="83.1" y2="42.36" xlink:href="#未命名的渐变_608"/><linearGradient id="未命名的渐变_328-6" x1="84.3" y1="45.84" x2="84.3" y2="45.03" xlink:href="#未命名的渐变_328"/><linearGradient id="未命名的渐变_291-3" x1="84.66" y1="45.74" x2="84.22" y2="44.97" xlink:href="#未命名的渐变_291"/><linearGradient id="未命名的渐变_17280-3" x1="83.69" y1="46.18" x2="85.32" y2="44.55" xlink:href="#未命名的渐变_17280"/><linearGradient id="未命名的渐变_17283-3" x1="83.68" y1="46.25" x2="84.72" y2="44.45" xlink:href="#未命名的渐变_17283"/><linearGradient id="未命名的渐变_631-3" x1="84.08" y1="45.54" x2="85.12" y2="43.75" xlink:href="#未命名的渐变_631"/><linearGradient id="未命名的渐变_328-7" x1="71.9" y1="39.75" x2="73.96" y2="37.69" xlink:href="#未命名的渐变_328"/><linearGradient id="未命名的渐变_605-4" x1="70.64" y1="38.86" x2="74.72" y2="38.86" xlink:href="#未命名的渐变_605"/><linearGradient id="未命名的渐变_608-4" x1="74.91" y1="41.43" x2="71.57" y2="35.64" xlink:href="#未命名的渐变_608"/><linearGradient id="未命名的渐变_328-8" x1="72.77" y1="39.12" x2="72.77" y2="38.32" xlink:href="#未命名的渐变_328"/><linearGradient id="未命名的渐变_291-4" x1="73.13" y1="39.02" x2="72.69" y2="38.26" xlink:href="#未命名的渐变_291"/><linearGradient id="未命名的渐变_17280-4" x1="72.16" y1="39.47" x2="73.79" y2="37.83" xlink:href="#未命名的渐变_17280"/><linearGradient id="未命名的渐变_17283-4" x1="72.15" y1="39.53" x2="73.19" y2="37.73" xlink:href="#未命名的渐变_17283"/><linearGradient id="未命名的渐变_631-4" x1="72.55" y1="38.83" x2="73.59" y2="37.04" xlink:href="#未命名的渐变_631"/><linearGradient id="未命名的渐变_328-9" x1="60.37" y1="33.08" x2="62.43" y2="31.02" xlink:href="#未命名的渐变_328"/><linearGradient id="未命名的渐变_605-5" x1="59.11" y1="32.2" x2="63.19" y2="32.2" xlink:href="#未命名的渐变_605"/><linearGradient id="未命名的渐变_608-5" x1="63.38" y1="34.77" x2="60.04" y2="28.98" xlink:href="#未命名的渐变_608"/><linearGradient id="未命名的渐变_328-10" x1="61.24" y1="32.46" x2="61.24" y2="31.65" xlink:href="#未命名的渐变_328"/><linearGradient id="未命名的渐变_291-5" x1="61.6" y1="32.36" x2="61.16" y2="31.59" xlink:href="#未命名的渐变_291"/><linearGradient id="未命名的渐变_17280-5" x1="60.63" y1="32.8" x2="62.26" y2="31.17" xlink:href="#未命名的渐变_17280"/><linearGradient id="未命名的渐变_17283-5" x1="60.62" y1="32.87" x2="61.66" y2="31.07" xlink:href="#未命名的渐变_17283"/><linearGradient id="未命名的渐变_631-5" x1="61.02" y1="32.16" x2="62.06" y2="30.37" xlink:href="#未命名的渐变_631"/><linearGradient id="未命名的渐变_328-11" x1="48.84" y1="26.35" x2="50.9" y2="24.29" xlink:href="#未命名的渐变_328"/><linearGradient id="未命名的渐变_605-6" x1="47.58" y1="25.47" x2="51.66" y2="25.47" xlink:href="#未命名的渐变_605"/><linearGradient id="未命名的渐变_608-6" x1="51.85" y1="28.03" x2="48.51" y2="22.25" xlink:href="#未命名的渐变_608"/><linearGradient id="未命名的渐变_328-12" x1="49.71" y1="25.73" x2="49.71" y2="24.92" xlink:href="#未命名的渐变_328"/><linearGradient id="未命名的渐变_291-6" x1="50.07" y1="25.62" x2="49.63" y2="24.86" xlink:href="#未命名的渐变_291"/><linearGradient id="未命名的渐变_17280-6" x1="49.1" y1="26.07" x2="50.74" y2="24.43" xlink:href="#未命名的渐变_17280"/><linearGradient id="未命名的渐变_17283-6" x1="49.09" y1="26.14" x2="50.13" y2="24.33" xlink:href="#未命名的渐变_17283"/><linearGradient id="未命名的渐变_631-6" x1="49.49" y1="25.43" x2="50.53" y2="23.64" xlink:href="#未命名的渐变_631"/><linearGradient id="未命名的渐变_245" x1="100.01" y1="82.44" x2="98.3" y2="80.73" gradientUnits="userSpaceOnUse"><stop offset="0" stop-color="#5d7ca9"/><stop offset="1" stop-color="#8baeea"/></linearGradient><linearGradient id="未命名的渐变_497" x1="99.19" y1="83.26" x2="100.62" y2="80.77" gradientUnits="userSpaceOnUse"><stop offset="0" stop-color="#283140"/><stop offset="0.1" stop-color="#12161a"/><stop offset="0.75" stop-color="#7a98cc"/><stop offset="0.85" stop-color="#7a98cc"/><stop offset="1" stop-color="#38455a"/></linearGradient><linearGradient id="未命名的渐变_245-2" x1="98.64" y1="81.42" x2="98.07" y2="80.86" xlink:href="#未命名的渐变_245"/><linearGradient id="未命名的渐变_497-2" x1="98.75" y1="81.92" x2="99.23" y2="81.09" xlink:href="#未命名的渐变_497"/><linearGradient id="未命名的渐变_262" x1="96.16" y1="83.9" x2="95.49" y2="83.22" xlink:href="#未命名的渐变_17283"/><linearGradient id="未命名的渐变_248" x1="98.76" y1="81.34" x2="98.07" y2="80.64" gradientUnits="userSpaceOnUse"><stop offset="0" stop-color="#0073e6"/><stop offset="0.1" stop-color="#1433cc"/><stop offset="0.68" stop-color="#59c8ff"/><stop offset="0.88" stop-color="#59c8ff"/><stop offset="1" stop-color="#0073e6"/></linearGradient><linearGradient id="未命名的渐变_245-3" x1="88.27" y1="75.62" x2="86.56" y2="73.91" xlink:href="#未命名的渐变_245"/><linearGradient id="未命名的渐变_497-3" x1="87.45" y1="76.44" x2="88.88" y2="73.96" xlink:href="#未命名的渐变_497"/><linearGradient id="未命名的渐变_245-4" x1="86.9" y1="74.61" x2="86.33" y2="74.04" xlink:href="#未命名的渐变_245"/><linearGradient id="未命名的渐变_497-4" x1="87.01" y1="75.1" x2="87.48" y2="74.28" xlink:href="#未命名的渐变_497"/><linearGradient id="未命名的渐变_262-2" x1="84.42" y1="77.08" x2="83.75" y2="76.41" xlink:href="#未命名的渐变_17283"/><linearGradient id="未命名的渐变_248-2" x1="87.02" y1="74.52" x2="86.33" y2="73.83" xlink:href="#未命名的渐变_248"/><linearGradient id="未命名的渐变_245-5" x1="76.53" y1="68.81" x2="74.82" y2="67.1" xlink:href="#未命名的渐变_245"/><linearGradient id="未命名的渐变_497-5" x1="75.71" y1="69.63" x2="77.14" y2="67.14" xlink:href="#未命名的渐变_497"/><linearGradient id="未命名的渐变_245-6" x1="75.16" y1="67.79" x2="74.59" y2="67.23" xlink:href="#未命名的渐变_245"/><linearGradient id="未命名的渐变_497-6" x1="75.27" y1="68.29" x2="75.74" y2="67.46" xlink:href="#未命名的渐变_497"/><linearGradient id="未命名的渐变_262-3" x1="72.68" y1="70.27" x2="72.01" y2="69.59" xlink:href="#未命名的渐变_17283"/><linearGradient id="未命名的渐变_248-3" x1="75.28" y1="67.71" x2="74.59" y2="67.01" xlink:href="#未命名的渐变_248"/><linearGradient id="未命名的渐变_245-7" x1="64.79" y1="61.96" x2="63.08" y2="60.25" xlink:href="#未命名的渐变_245"/><linearGradient id="未命名的渐变_497-7" x1="63.97" y1="62.78" x2="65.4" y2="60.3" xlink:href="#未命名的渐变_497"/><linearGradient id="未命名的渐变_245-8" x1="63.42" y1="60.95" x2="62.85" y2="60.38" xlink:href="#未命名的渐变_245"/><linearGradient id="未命名的渐变_497-8" x1="63.53" y1="61.44" x2="64" y2="60.62" xlink:href="#未命名的渐变_497"/><linearGradient id="未命名的渐变_262-4" x1="60.94" y1="63.42" x2="60.27" y2="62.75" xlink:href="#未命名的渐变_17283"/><linearGradient id="未命名的渐变_248-4" x1="63.54" y1="60.86" x2="62.85" y2="60.17" xlink:href="#未命名的渐变_248"/><linearGradient id="未命名的渐变_245-9" x1="53.05" y1="55.14" x2="51.34" y2="53.43" xlink:href="#未命名的渐变_245"/><linearGradient id="未命名的渐变_497-9" x1="52.23" y1="55.96" x2="53.66" y2="53.48" xlink:href="#未命名的渐变_497"/><linearGradient id="未命名的渐变_245-10" x1="51.67" y1="54.13" x2="51.11" y2="53.56" xlink:href="#未命名的渐变_245"/><linearGradient id="未命名的渐变_497-10" x1="51.79" y1="54.62" x2="52.26" y2="53.8" xlink:href="#未命名的渐变_497"/><linearGradient id="未命名的渐变_262-5" x1="49.2" y1="56.6" x2="48.53" y2="55.93" xlink:href="#未命名的渐变_17283"/><linearGradient id="未命名的渐变_248-5" x1="51.8" y1="54.04" x2="51.1" y2="53.35" xlink:href="#未命名的渐变_248"/><linearGradient id="未命名的渐变_245-11" x1="41.31" y1="48.3" x2="39.6" y2="46.59" xlink:href="#未命名的渐变_245"/><linearGradient id="未命名的渐变_497-11" x1="40.49" y1="49.11" x2="41.92" y2="46.63" xlink:href="#未命名的渐变_497"/><linearGradient id="未命名的渐变_245-12" x1="39.93" y1="47.28" x2="39.37" y2="46.71" xlink:href="#未命名的渐变_245"/><linearGradient id="未命名的渐变_497-12" x1="40.04" y1="47.78" x2="40.52" y2="46.95" xlink:href="#未命名的渐变_497"/><linearGradient id="未命名的渐变_262-6" x1="37.46" y1="49.76" x2="36.78" y2="49.08" xlink:href="#未命名的渐变_17283"/><linearGradient id="未命名的渐变_248-6" x1="40.06" y1="47.2" x2="39.36" y2="46.5" xlink:href="#未命名的渐变_248"/><linearGradient id="未命名的渐变_245-13" x1="91.25" y1="91.28" x2="89.54" y2="89.57" xlink:href="#未命名的渐变_245"/><linearGradient id="未命名的渐变_497-13" x1="90.43" y1="92.1" x2="91.86" y2="89.62" xlink:href="#未命名的渐变_497"/><linearGradient id="未命名的渐变_245-14" x1="89.88" y1="90.27" x2="89.31" y2="89.7" xlink:href="#未命名的渐变_245"/><linearGradient id="未命名的渐变_497-14" x1="89.99" y1="90.76" x2="90.47" y2="89.93" xlink:href="#未命名的渐变_497"/><linearGradient id="未命名的渐变_262-7" x1="87.4" y1="92.74" x2="86.73" y2="92.07" xlink:href="#未命名的渐变_17283"/><linearGradient id="未命名的渐变_248-7" x1="90.01" y1="90.18" x2="89.31" y2="89.49" xlink:href="#未命名的渐变_248"/><linearGradient id="未命名的渐变_245-15" x1="79.51" y1="84.46" x2="77.8" y2="82.75" xlink:href="#未命名的渐变_245"/><linearGradient id="未命名的渐变_497-15" x1="78.69" y1="85.28" x2="80.12" y2="82.8" xlink:href="#未命名的渐变_497"/><linearGradient id="未命名的渐变_245-16" x1="78.14" y1="83.45" x2="77.57" y2="82.88" xlink:href="#未命名的渐变_245"/><linearGradient id="未命名的渐变_497-16" x1="78.25" y1="83.95" x2="78.73" y2="83.12" xlink:href="#未命名的渐变_497"/><linearGradient id="未命名的渐变_262-8" x1="75.66" y1="85.92" x2="74.99" y2="85.25" xlink:href="#未命名的渐变_17283"/><linearGradient id="未命名的渐变_248-8" x1="78.27" y1="83.37" x2="77.57" y2="82.67" xlink:href="#未命名的渐变_248"/><linearGradient id="未命名的渐变_245-17" x1="67.77" y1="77.65" x2="66.06" y2="75.94" xlink:href="#未命名的渐变_245"/><linearGradient id="未命名的渐变_497-17" x1="66.95" y1="78.47" x2="68.38" y2="75.99" xlink:href="#未命名的渐变_497"/><linearGradient id="未命名的渐变_245-18" x1="66.4" y1="76.64" x2="65.83" y2="76.07" xlink:href="#未命名的渐变_245"/><linearGradient id="未命名的渐变_497-18" x1="66.51" y1="77.13" x2="66.99" y2="76.3" xlink:href="#未命名的渐变_497"/><linearGradient id="未命名的渐变_262-9" x1="63.92" y1="79.11" x2="63.25" y2="78.44" xlink:href="#未命名的渐变_17283"/><linearGradient id="未命名的渐变_248-9" x1="66.52" y1="76.55" x2="65.83" y2="75.86" xlink:href="#未命名的渐变_248"/><linearGradient id="未命名的渐变_245-19" x1="56.03" y1="70.8" x2="54.32" y2="69.09" xlink:href="#未命名的渐变_245"/><linearGradient id="未命名的渐变_497-19" x1="55.21" y1="71.62" x2="56.64" y2="69.14" xlink:href="#未命名的渐变_497"/><linearGradient id="未命名的渐变_245-20" x1="54.66" y1="69.79" x2="54.09" y2="69.22" xlink:href="#未命名的渐变_245"/><linearGradient id="未命名的渐变_497-20" x1="54.77" y1="70.29" x2="55.25" y2="69.46" xlink:href="#未命名的渐变_497"/><linearGradient id="未命名的渐变_262-10" x1="52.18" y1="72.26" x2="51.51" y2="71.59" xlink:href="#未命名的渐变_17283"/><linearGradient id="未命名的渐变_248-10" x1="54.78" y1="69.71" x2="54.09" y2="69.01" xlink:href="#未命名的渐变_248"/><linearGradient id="未命名的渐变_245-21" x1="44.29" y1="63.98" x2="42.58" y2="62.27" xlink:href="#未命名的渐变_245"/><linearGradient id="未命名的渐变_497-21" x1="43.47" y1="64.8" x2="44.9" y2="62.32" xlink:href="#未命名的渐变_497"/><linearGradient id="未命名的渐变_245-22" x1="42.92" y1="62.97" x2="42.35" y2="62.4" xlink:href="#未命名的渐变_245"/><linearGradient id="未命名的渐变_497-22" x1="43.03" y1="63.46" x2="43.5" y2="62.64" xlink:href="#未命名的渐变_497"/><linearGradient id="未命名的渐变_262-11" x1="40.44" y1="65.44" x2="39.77" y2="64.77" xlink:href="#未命名的渐变_17283"/><linearGradient id="未命名的渐变_248-11" x1="43.04" y1="62.89" x2="42.35" y2="62.19" xlink:href="#未命名的渐变_248"/><linearGradient id="未命名的渐变_245-23" x1="32.55" y1="57.14" x2="30.84" y2="55.43" xlink:href="#未命名的渐变_245"/><linearGradient id="未命名的渐变_497-23" x1="31.73" y1="57.96" x2="33.16" y2="55.48" xlink:href="#未命名的渐变_497"/><linearGradient id="未命名的渐变_245-24" x1="31.18" y1="56.13" x2="30.61" y2="55.56" xlink:href="#未命名的渐变_245"/><linearGradient id="未命名的渐变_497-24" x1="31.29" y1="56.62" x2="31.76" y2="55.79" xlink:href="#未命名的渐变_497"/><linearGradient id="未命名的渐变_262-12" x1="28.7" y1="58.6" x2="28.03" y2="57.92" xlink:href="#未命名的渐变_17283"/><linearGradient id="未命名的渐变_248-12" x1="31.3" y1="56.04" x2="30.61" y2="55.35" xlink:href="#未命名的渐变_248"/><linearGradient id="未命名的渐变_102-7" x1="19.91" y1="80.89" x2="19.02" y2="79.35" xlink:href="#未命名的渐变_102"/><linearGradient id="未命名的渐变_328-13" x1="18.85" y1="81.34" x2="18.85" y2="76.49" xlink:href="#未命名的渐变_328"/><linearGradient id="未命名的渐变_102-8" x1="20" y1="78.78" x2="18.93" y2="76.93" xlink:href="#未命名的渐变_102"/><linearGradient id="未命名的渐变_323" x1="18.85" y1="76.76" x2="19.36" y2="76.25" gradientUnits="userSpaceOnUse"><stop offset="0" stop-color="#7a98cc"/><stop offset="1" stop-color="#262e39"/></linearGradient><linearGradient id="未命名的渐变_102-9" x1="57.44" y1="100.54" x2="56.55" y2="99" xlink:href="#未命名的渐变_102"/><linearGradient id="未命名的渐变_328-14" x1="56.38" y1="101" x2="56.38" y2="96.15" xlink:href="#未命名的渐变_328"/><linearGradient id="未命名的渐变_102-10" x1="57.54" y1="98.43" x2="56.47" y2="96.58" xlink:href="#未命名的渐变_102"/><linearGradient id="未命名的渐变_323-2" x1="56.38" y1="96.42" x2="56.89" y2="95.91" xlink:href="#未命名的渐变_323"/></defs><title>配气台</title><g id="图层_2" data-name="图层 2"><g id="图层_1-2" data-name="图层 1"><g id="配气台"><g class="cls-3"><rect class="cls-4" width="150" height="150"/><rect id="网格" class="cls-5" width="150" height="150"/></g><g class="cls-6"><g class="cls-6"><polygon class="cls-7" points="130.66 116.81 132.96 124.81 134.9 125.93 134.91 119.27 130.66 116.81"/><polygon class="cls-8" points="135.68 118.82 131.39 121.28 133.73 126.6 135.66 125.48 135.66 125.48 135.66 125.48 135.68 118.82"/></g><g class="cls-6"><polygon class="cls-9" points="131.39 121.28 130.62 120.83 132.96 126.15 133.73 126.6 131.39 121.28"/><polygon class="cls-10" points="135.68 118.82 131.43 116.36 130.66 116.81 134.12 118.81 130.62 120.83 131.39 121.28 135.68 118.82"/></g><polygon class="cls-11" points="93.34 143.34 94.11 142.89 94.09 149.55 93.32 150 93.34 143.34"/><g class="cls-6"><polygon class="cls-12" points="93.31 143.33 93.33 149.99 95.27 148.87 97.57 140.87 93.31 143.33"/><polygon class="cls-13" points="97.57 140.87 96.8 140.43 93.32 142.44 89.86 140.44 89.09 140.88 93.31 143.33 93.32 143.32 93.34 143.34 97.57 140.87"/><polygon class="cls-14" points="93.33 147.79 93.34 143.34 92.67 142.95 92.55 142.88 92.55 142.88 89.09 140.88 91.39 148.88 93.32 150 93.32 149.98 93.33 149.99 93.33 147.79"/></g><g class="cls-6"><polygon class="cls-15" points="15.21 97.94 15.23 104.6 17.16 103.48 19.46 95.48 15.21 97.94"/><polygon class="cls-16" points="14.45 97.49 14.45 97.5 14.44 97.49 14.45 99.66 14.43 104.15 16.36 105.27 18.7 99.94 14.45 97.49"/></g><g class="cls-6"><polygon class="cls-17" points="19.47 99.5 15.99 97.49 19.46 95.48 18.69 95.04 14.44 97.49 18.7 99.94 19.47 99.5"/><polygon class="cls-18" points="18.7 99.94 16.36 105.27 17.13 104.82 19.47 99.5 18.7 99.94"/></g><polygon class="cls-19" points="93.22 104.44 14.32 58.59 14.43 97.52 93.33 143.37 93.22 104.44"/><polygon class="cls-20" points="16.24 61.92 51.89 82.64 51.89 117.08 16.33 96.42 16.24 61.92"/><polygon class="cls-20" points="91.4 140.04 53.59 118.07 53.59 83.62 91.31 105.54 91.4 140.04"/><polygon class="cls-21" points="40.76 31.75 14.32 58.59 93.22 104.44 119.66 77.6 40.76 31.75"/><polygon class="cls-22" points="17.38 58.16 41.05 34.14 116.53 78 92.86 102.03 17.38 58.16"/><polygon class="cls-23" points="135.57 79.98 135.47 45.85 119.59 55.02 119.66 77.6 93.22 104.44 93.33 143.37 135.68 118.92 135.57 79.98"/><polygon class="cls-24" points="119.59 55.02 40.7 9.17 40.76 31.75 119.66 77.6 119.59 55.02"/><polygon class="cls-25" points="42.67 30.65 42.62 12.5 117.68 56.12 117.74 74.27 42.67 30.65"/><polygon class="cls-26" points="56.58 0 40.7 9.17 119.59 55.02 135.47 45.85 56.58 0"/><g class="cls-6"><path class="cls-27" d="M107.53,57.28c-1.3-.78-2.37-.21-2.4,1.27a5.15,5.15,0,0,0,2.3,4.08c1.3.77,2.37.2,2.4-1.28A5.18,5.18,0,0,0,107.53,57.28Z"/><path class="cls-28" d="M107.19,56.9c-1.58-.94-2.89-.25-2.92,1.55a6.27,6.27,0,0,0,2.8,5c1.58.94,2.88.25,2.91-1.55A6.26,6.26,0,0,0,107.19,56.9Zm.24,5.73a5.15,5.15,0,0,1-2.3-4.08c0-1.48,1.1-2,2.4-1.27a5.18,5.18,0,0,1,2.3,4.07C109.8,62.83,108.73,63.4,107.43,62.63Z"/><path class="cls-29" d="M107.71,56.08c-1.75-1-3.21-.36-3.37,1.51l-.06.62c.14-1.62,1.4-2.21,2.91-1.31a6.26,6.26,0,0,1,2.79,5c0,1.67-1.15,2.38-2.57,1.73l.06,0h0l0,0,.06,0h0l0,0,.06,0,0,0,0,0,.06,0h0l0,0c1.65.76,3-.08,3-2A7.27,7.27,0,0,0,107.71,56.08Z"/><path class="cls-30" d="M107.25,59.45a1,1,0,0,1,.44.76c0,.28-.2.39-.44.25a1,1,0,0,1-.44-.76C106.81,59.42,107,59.31,107.25,59.45Z"/><path class="cls-31" d="M107.78,60.14v0h0v0h0v0h0v0h0v0h0v0h0v0h0l-.06-.09h0l-.06-.09h0v0l0,0h0l0,0h0l0,0h-.39l0,0-.09.05,0,0h.2l0,0h0l0,0,0,0h0l0,0h0l0,0h0l0,0h0l0,0,0,0h0l.06.09h0l.06.09h0v0l0,0h0l0,0h0l0,.05h0v0h0a.09.09,0,0,1,0,.05h0a.11.11,0,0,1,0,0h0v.1h0s0,0,0,0h0a0,0,0,0,1,0,0h0s0,0,0,0h0l0,0,0,0h0l0,0,.09-.05,0,0h0l0,0h0s0,0,0,0h0v0h0v0h0v0h0v0h0Z"/><polygon class="cls-32" points="108.08 58.71 108.46 58.48 107 61.01 106.62 61.23 108.08 58.71"/><polygon class="cls-33" points="108.08 58.71 106.62 61.23 106.26 60.78 108.08 58.71"/><path class="cls-34" d="M107.19,56.9c-1.58-.94-2.89-.25-2.92,1.55a6.27,6.27,0,0,0,2.8,5c1.58.94,2.88.25,2.91-1.55A6.26,6.26,0,0,0,107.19,56.9Z"/><path class="cls-35" d="M110,61.86a6.26,6.26,0,0,0-2.79-5c-1.58-.94-2.89-.25-2.92,1.55Z"/></g><g class="cls-6"><path class="cls-36" d="M96,50.55c-1.3-.77-2.37-.2-2.4,1.28a5.13,5.13,0,0,0,2.3,4.07c1.3.78,2.37.21,2.4-1.27A5.18,5.18,0,0,0,96,50.55Z"/><path class="cls-37" d="M95.66,50.18c-1.58-.94-2.89-.25-2.92,1.55a6.3,6.3,0,0,0,2.8,5c1.58.94,2.88.25,2.91-1.55A6.26,6.26,0,0,0,95.66,50.18Zm.24,5.72a5.13,5.13,0,0,1-2.3-4.07c0-1.48,1.1-2,2.4-1.28a5.18,5.18,0,0,1,2.3,4.08C98.27,56.11,97.2,56.68,95.9,55.9Z"/><path class="cls-38" d="M96.18,49.35c-1.75-1-3.21-.36-3.37,1.52l-.06.62c.15-1.62,1.4-2.21,2.91-1.31a6.26,6.26,0,0,1,2.79,5c0,1.66-1.15,2.38-2.57,1.73l.06,0,0,0,0,0,.06,0h0l0,0,.06,0,0,0,0,0,.06,0h0l0,0c1.65.75,3-.08,3-2A7.31,7.31,0,0,0,96.18,49.35Z"/><path class="cls-39" d="M95.72,52.73a1,1,0,0,1,.44.76c0,.28-.2.39-.44.25a1,1,0,0,1-.44-.76C95.28,52.7,95.48,52.59,95.72,52.73Z"/><path class="cls-40" d="M96.25,53.42v0h0v0h0v0h0v0h0v0h0v0h0v-.05h0L96.09,53h0L96,52.87h0l0,0,0,0h0l0,0h0l0,0h-.39l0,0-.09.05,0,0h.23l0,0,0,0h0l0,0h0l0,0h0l0,0h0l0,0,0,0h0L96,53h0a.41.41,0,0,0,0,.09h0v0l0,0h0l0,0h0l0,.05h0a.43.43,0,0,0,0,0h0a.09.09,0,0,1,0,.05h0a.11.11,0,0,1,0,0h0v.1h0a.06.06,0,0,1,0,0h0a0,0,0,0,1,0,0h0v0h0s0,0,0,0l0,0h0l0,0,.09-.05,0,0h0l0,0h0l0,0h0v0h0v0h0v0h0v0h0Z"/><polygon class="cls-41" points="96.55 51.98 96.93 51.76 95.47 54.28 95.09 54.51 96.55 51.98"/><polygon class="cls-42" points="96.55 51.98 95.09 54.51 94.73 54.05 96.55 51.98"/><path class="cls-34" d="M95.66,50.18c-1.58-.94-2.89-.25-2.92,1.55a6.3,6.3,0,0,0,2.8,5c1.58.94,2.88.25,2.91-1.55A6.26,6.26,0,0,0,95.66,50.18Z"/><path class="cls-43" d="M98.45,55.14a6.26,6.26,0,0,0-2.79-5c-1.58-.94-2.89-.25-2.92,1.55Z"/></g><g class="cls-6"><path class="cls-44" d="M84.49,43.52c-.92-.55-1.69-.15-1.71.91a3.69,3.69,0,0,0,1.64,2.91c.93.56,1.7.15,1.72-.91A3.68,3.68,0,0,0,84.49,43.52Z"/><path class="cls-45" d="M84.25,43.25c-1.13-.67-2.06-.18-2.08,1.11a4.48,4.48,0,0,0,2,3.54c1.12.67,2.06.18,2.08-1.1A4.5,4.5,0,0,0,84.25,43.25Zm.17,4.09a3.69,3.69,0,0,1-1.64-2.91c0-1.06.79-1.46,1.71-.91a3.68,3.68,0,0,1,1.65,2.91C86.12,47.49,85.35,47.9,84.42,47.34Z"/><path class="cls-46" d="M84.63,42.66c-1.25-.74-2.3-.25-2.41,1.09l0,.44c.1-1.16,1-1.58,2.07-.94a4.5,4.5,0,0,1,2,3.55c0,1.18-.82,1.7-1.84,1.23l0,0h0l0,0,0,0h0l0,0,0,0h0l0,0,0,0h.06c1.18.55,2.11-.05,2.14-1.43A5.27,5.27,0,0,0,84.63,42.66Z"/><path class="cls-47" d="M84.3,45.07a.71.71,0,0,1,.31.55c0,.19-.14.28-.31.18a.69.69,0,0,1-.32-.55C84,45.05,84.13,45,84.3,45.07Z"/><path class="cls-48" d="M84.68,45.56h0v0h0v0h0v0h0v0h0v0h0v0h0l0-.06h0l0-.06h0v0h-.35l-.06,0h.16l0,0h0l0,0h0l0,0h0l0,0h0l0,0h0l0,0v0h0l0,.06h0l0,.07h0v0h0v0h0v0h0v0h0v0h0v0h0v.07h0v0h0v0h0v0h0l0,0s0,0,0,0h0l0,0,.06,0,0,0h0l0,0h0v0h0v0h0v0h0v0h0Z"/><polygon class="cls-49" points="84.89 44.54 85.16 44.38 84.12 46.19 83.85 46.34 84.89 44.54"/><polygon class="cls-50" points="84.89 44.54 83.85 46.34 83.59 46.02 84.89 44.54"/><path class="cls-34" d="M84.25,43.25c-1.13-.67-2.06-.18-2.08,1.11a4.48,4.48,0,0,0,2,3.54c1.12.67,2.06.18,2.08-1.1A4.5,4.5,0,0,0,84.25,43.25Z"/><path class="cls-51" d="M86.25,46.8a4.5,4.5,0,0,0-2-3.55c-1.13-.67-2.06-.18-2.08,1.11Z"/></g><g class="cls-6"><path class="cls-52" d="M73,36.81c-.93-.56-1.7-.15-1.72.91a3.68,3.68,0,0,0,1.65,2.91c.92.55,1.69.15,1.71-.91A3.68,3.68,0,0,0,73,36.81Z"/><path class="cls-53" d="M72.72,36.54c-1.13-.67-2.06-.18-2.08,1.1a4.5,4.5,0,0,0,2,3.55c1.12.67,2.06.18,2.08-1.11A4.48,4.48,0,0,0,72.72,36.54Zm.18,4.09a3.68,3.68,0,0,1-1.65-2.91c0-1.06.79-1.47,1.72-.91a3.68,3.68,0,0,1,1.64,2.91C74.59,40.78,73.82,41.18,72.9,40.63Z"/><path class="cls-54" d="M73.1,36c-1.25-.75-2.3-.26-2.41,1.08l0,.44c.1-1.15,1-1.57,2.07-.93a4.48,4.48,0,0,1,2,3.54c0,1.19-.82,1.7-1.84,1.24l0,0h0l0,0,0,0h0l0,0,0,0h0l0,0h.06l0,0c1.18.54,2.11,0,2.14-1.43A5.23,5.23,0,0,0,73.1,36Z"/><path class="cls-55" d="M72.77,38.36a.69.69,0,0,1,.31.54c0,.2-.14.28-.31.18a.68.68,0,0,1-.32-.54C72.46,38.34,72.6,38.26,72.77,38.36Z"/><path class="cls-56" d="M73.15,38.85h0v0h0v0h0v0h0v0h0v0h0v0h0a.25.25,0,0,0,0-.07h0l0-.06h0v0h-.36l-.06,0s0,0,0,0h.17l0,0,0,0h0l0,0h0l0,0h0l0,0h0l0,0h0l0,.06h0a.43.43,0,0,1,0,.07h0v0h0v0h0v0h0v0h0v0h0v0h0v.07h0v0h0v0h0v0h0v0l0,0h0l0,0,.06,0,0,0h0l0,0h0v0h0v0h0v0h0v0h0v0h0Z"/><polygon class="cls-57" points="73.36 37.83 73.63 37.67 72.59 39.47 72.32 39.63 73.36 37.83"/><polygon class="cls-58" points="73.36 37.83 72.32 39.63 72.06 39.31 73.36 37.83"/><path class="cls-34" d="M72.72,36.54c-1.13-.67-2.06-.18-2.08,1.1a4.5,4.5,0,0,0,2,3.55c1.12.67,2.06.18,2.08-1.11A4.48,4.48,0,0,0,72.72,36.54Z"/><path class="cls-59" d="M74.72,40.08a4.48,4.48,0,0,0-2-3.54c-1.13-.67-2.06-.18-2.08,1.1Z"/></g><g class="cls-6"><path class="cls-60" d="M61.44,30.14c-.93-.55-1.7-.15-1.72.91A3.68,3.68,0,0,0,61.37,34c.92.56,1.69.15,1.71-.91A3.69,3.69,0,0,0,61.44,30.14Z"/><path class="cls-61" d="M61.19,29.87c-1.12-.67-2.06-.17-2.08,1.11a4.48,4.48,0,0,0,2,3.54c1.12.67,2.06.18,2.08-1.1A4.5,4.5,0,0,0,61.19,29.87ZM61.37,34a3.68,3.68,0,0,1-1.65-2.91c0-1.06.79-1.46,1.72-.91a3.69,3.69,0,0,1,1.64,2.91C63.06,34.11,62.29,34.52,61.37,34Z"/><path class="cls-62" d="M61.57,29.28c-1.25-.74-2.3-.25-2.41,1.09l0,.44c.1-1.16,1-1.58,2.07-.94a4.5,4.5,0,0,1,2,3.55c0,1.19-.82,1.7-1.84,1.23l0,0h0l0,0,0,0h0l0,0,0,0h0l0,0,0,0h0l0,0c1.18.54,2.11-.06,2.14-1.44A5.21,5.21,0,0,0,61.57,29.28Z"/><path class="cls-63" d="M61.24,31.69a.71.71,0,0,1,.31.55c0,.2-.14.28-.31.18a.66.66,0,0,1-.31-.55C60.93,31.67,61.07,31.59,61.24,31.69Z"/><path class="cls-64" d="M61.62,32.19v0h0v0h0v0h0v0h0v0h0v0h0v0h0a.21.21,0,0,0,0-.06h0a.16.16,0,0,0,0-.07h0v0H61.1l0,0-.06,0h.22l0,0h0l0,0h0l0,0h0l0,0h0v0h0l0,.06h0l0,.07h0v0h0v0h0v0h0v0h0v0h0v0h0v.07h0v0h0v0h0v0h0v0l0,0h0l0,0,.07,0,0,0h0l0,0h0v0h0v0h0Z"/><polygon class="cls-65" points="61.83 31.16 62.1 31 61.06 32.81 60.79 32.96 61.83 31.16"/><polygon class="cls-66" points="61.83 31.16 60.79 32.96 60.53 32.64 61.83 31.16"/><path class="cls-34" d="M61.19,29.87c-1.12-.67-2.06-.17-2.08,1.11a4.48,4.48,0,0,0,2,3.54c1.12.67,2.06.18,2.08-1.1A4.5,4.5,0,0,0,61.19,29.87Z"/><path class="cls-67" d="M63.19,33.42a4.5,4.5,0,0,0-2-3.55c-1.12-.67-2.06-.17-2.08,1.11Z"/></g><g class="cls-6"><path class="cls-68" d="M49.91,23.41c-.93-.55-1.7-.15-1.72.91a3.7,3.7,0,0,0,1.65,2.91c.92.55,1.69.15,1.71-.91A3.69,3.69,0,0,0,49.91,23.41Z"/><path class="cls-69" d="M49.66,23.14c-1.12-.67-2.06-.18-2.08,1.11a4.48,4.48,0,0,0,2,3.54c1.13.67,2.06.18,2.08-1.11A4.48,4.48,0,0,0,49.66,23.14Zm.18,4.09a3.7,3.7,0,0,1-1.65-2.91c0-1.06.79-1.46,1.72-.91a3.69,3.69,0,0,1,1.64,2.91C51.53,27.38,50.76,27.78,49.84,27.23Z"/><path class="cls-70" d="M50,22.55c-1.25-.74-2.3-.26-2.41,1.09l0,.43c.1-1.15,1-1.57,2.07-.93a4.48,4.48,0,0,1,2,3.54c0,1.19-.82,1.71-1.84,1.24l0,0h.06l0,0h0l0,0,0,0h0l0,0,0,0h0l0,0c1.18.54,2.11-.05,2.14-1.43A5.2,5.2,0,0,0,50,22.55Z"/><path class="cls-71" d="M49.71,25a.69.69,0,0,1,.31.54c0,.2-.14.28-.31.18a.69.69,0,0,1-.31-.54C49.4,24.94,49.54,24.86,49.71,25Z"/><path class="cls-72" d="M50.09,25.45h0v0h0v0h0v0h0v0h0v0h0v0h0l0-.07h0a.21.21,0,0,0,0-.06h0l0,0h-.36l-.06,0h.22l0,0h0l0,0h0l0,0h0l0,0h0v0h0l0,.06h0a.16.16,0,0,1,0,.07h0v0h0v0h0v0h0v0h0v0h0v0h0v.07h0v0h0v0h0v0h0v0l0,0h0l0,0,.07,0,0,0h0l0,0h0v0h0v0h0v0h0v0h0Z"/><polygon class="cls-73" points="50.3 24.43 50.57 24.27 49.53 26.07 49.26 26.23 50.3 24.43"/><polygon class="cls-74" points="50.3 24.43 49.26 26.23 49 25.91 50.3 24.43"/><path class="cls-34" d="M49.66,23.14c-1.12-.67-2.06-.18-2.08,1.11a4.48,4.48,0,0,0,2,3.54c1.13.67,2.06.18,2.08-1.11A4.48,4.48,0,0,0,49.66,23.14Z"/><path class="cls-75" d="M51.66,26.68a4.48,4.48,0,0,0-2-3.54c-1.12-.67-2.06-.18-2.08,1.11Z"/></g><g class="cls-6"><path class="cls-76" d="M99.87,80.34a1.45,1.45,0,1,0,.32,1.84A1.33,1.33,0,0,0,99.87,80.34Z"/><path class="cls-77" d="M100.34,80.61l-.47-.27a1.45,1.45,0,0,1-1.43,2.48l.46.27a1.46,1.46,0,0,0,1.44-2.48Z"/></g><g class="cls-6"><path class="cls-78" d="M98.59,80.72a.49.49,0,0,0-.48.83.49.49,0,0,0,.48-.83Z"/><path class="cls-79" d="M99.52,81.26l-.93-.54a.49.49,0,0,1-.48.83l.93.54a.44.44,0,0,0,.58-.22A.43.43,0,0,0,99.52,81.26Z"/></g><g class="cls-6"><path class="cls-80" d="M96.17,83.76a1.13,1.13,0,0,0-.45-.5c-.19-.11-.29-.06-.24.1a1.16,1.16,0,0,0,.44.5C96.12,84,96.22,83.92,96.17,83.76Z"/><path class="cls-81" d="M100.78,78.24c-.11-.06-.19-.07-.23,0l-5.06,5s.12,0,.23,0a1.13,1.13,0,0,1,.45.5c0,.07,0,.11,0,.14l5.06-5s0-.07,0-.13A1.15,1.15,0,0,0,100.78,78.24Z"/></g><g class="cls-6"><path class="cls-82" d="M88.13,73.53a1.31,1.31,0,0,0-1.74.64,1.21,1.21,0,1,0,1.74-.64Z"/><path class="cls-83" d="M88.6,73.79l-.47-.26A1.46,1.46,0,0,1,86.7,76l.46.27a1.46,1.46,0,0,0,1.44-2.49Z"/></g><g class="cls-6"><path class="cls-84" d="M86.85,73.91a.44.44,0,0,0-.58.21.46.46,0,0,0,.1.62.45.45,0,0,0,.59-.22A.44.44,0,0,0,86.85,73.91Z"/><path class="cls-85" d="M87.77,74.44l-.92-.53a.44.44,0,0,1,.11.61.45.45,0,0,1-.59.22l.93.53a.44.44,0,0,0,.58-.22A.43.43,0,0,0,87.77,74.44Z"/></g><g class="cls-6"><path class="cls-86" d="M84.43,76.94a1.18,1.18,0,0,0-.45-.5c-.19-.11-.3-.06-.24.11a1.14,1.14,0,0,0,.44.49C84.38,77.15,84.48,77.11,84.43,76.94Z"/><path class="cls-87" d="M89,71.43c-.11-.07-.19-.08-.23,0l-5.06,5s.12,0,.23,0a1.18,1.18,0,0,1,.45.5c0,.07,0,.12,0,.14l5.06-5s0-.07,0-.14A1.13,1.13,0,0,0,89,71.43Z"/></g><g class="cls-6"><path class="cls-88" d="M76.39,66.71a1.45,1.45,0,1,0,.32,1.84A1.33,1.33,0,0,0,76.39,66.71Z"/><path class="cls-89" d="M76.86,67l-.47-.27A1.45,1.45,0,0,1,75,69.19l.46.27A1.46,1.46,0,0,0,76.86,67Z"/></g><g class="cls-6"><path class="cls-90" d="M75.11,67.09a.49.49,0,0,0-.48.83.49.49,0,0,0,.48-.83Z"/><path class="cls-91" d="M76,67.63l-.92-.54a.49.49,0,0,1-.48.83l.93.54a.44.44,0,0,0,.58-.22A.43.43,0,0,0,76,67.63Z"/></g><g class="cls-6"><path class="cls-92" d="M72.69,70.13a1.13,1.13,0,0,0-.45-.5c-.19-.11-.3-.06-.24.1a1.16,1.16,0,0,0,.44.5C72.63,70.34,72.74,70.29,72.69,70.13Z"/><path class="cls-93" d="M77.3,64.61c-.11-.06-.19-.07-.23,0l-5.06,5s.12,0,.23,0a1.13,1.13,0,0,1,.45.5c0,.07,0,.11,0,.14l5.06-5s0-.07,0-.13A1.15,1.15,0,0,0,77.3,64.61Z"/></g><g class="cls-6"><path class="cls-94" d="M64.65,59.87a1.31,1.31,0,0,0-1.74.64,1.21,1.21,0,1,0,1.74-.64Z"/><path class="cls-95" d="M65.11,60.13l-.46-.26a1.46,1.46,0,0,1-1.43,2.48l.46.27A1.34,1.34,0,0,0,65.43,62,1.33,1.33,0,0,0,65.11,60.13Z"/></g><g class="cls-6"><path class="cls-96" d="M63.37,60.25a.44.44,0,0,0-.58.21.41.41,0,1,0,.69.4A.44.44,0,0,0,63.37,60.25Z"/><path class="cls-97" d="M64.29,60.78l-.92-.53a.44.44,0,0,1,.11.61.45.45,0,0,1-.59.22l.93.53a.44.44,0,0,0,.58-.22A.43.43,0,0,0,64.29,60.78Z"/></g><g class="cls-6"><path class="cls-98" d="M61,63.28a1.18,1.18,0,0,0-.45-.5c-.19-.11-.3-.06-.24.11a1.14,1.14,0,0,0,.44.49C60.89,63.49,61,63.45,61,63.28Z"/><path class="cls-99" d="M65.56,57.77c-.11-.07-.2-.08-.23,0l-5.06,5s.12,0,.23,0a1.18,1.18,0,0,1,.45.5.15.15,0,0,1,0,.14l5.06-5a.16.16,0,0,0,0-.14A1.13,1.13,0,0,0,65.56,57.77Z"/></g><g class="cls-6"><path class="cls-100" d="M52.91,53.05a1.31,1.31,0,0,0-1.74.64,1.21,1.21,0,1,0,1.74-.64Z"/><path class="cls-101" d="M53.37,53.31l-.46-.26a1.32,1.32,0,0,1,.32,1.83,1.34,1.34,0,0,1-1.75.65l.46.26a1.45,1.45,0,0,0,1.43-2.48Z"/></g><g class="cls-6"><path class="cls-102" d="M51.63,53.43a.44.44,0,0,0-.58.21.41.41,0,1,0,.69.4A.44.44,0,0,0,51.63,53.43Z"/><path class="cls-103" d="M52.55,54l-.92-.53a.44.44,0,0,1,.11.61.45.45,0,0,1-.59.22l.93.53a.44.44,0,0,0,.58-.22A.43.43,0,0,0,52.55,54Z"/></g><g class="cls-6"><path class="cls-104" d="M49.21,56.46a1.18,1.18,0,0,0-.45-.5c-.19-.11-.3-.06-.24.11a1.14,1.14,0,0,0,.44.49C49.15,56.67,49.26,56.63,49.21,56.46Z"/><path class="cls-105" d="M53.82,51c-.11-.07-.2-.08-.23,0l-5.06,5s.12,0,.23,0a1.18,1.18,0,0,1,.45.5.15.15,0,0,1,0,.14l5.06-5a.16.16,0,0,0,0-.14A1.13,1.13,0,0,0,53.82,51Z"/></g><g class="cls-6"><path class="cls-106" d="M41.17,46.2A1.46,1.46,0,1,0,41.49,48,1.33,1.33,0,0,0,41.17,46.2Z"/><path class="cls-107" d="M41.63,46.47l-.46-.27a1.46,1.46,0,0,1-1.43,2.48l.46.27a1.46,1.46,0,0,0,1.43-2.48Z"/></g><g class="cls-6"><path class="cls-108" d="M39.89,46.58a.45.45,0,0,0-.58.22.44.44,0,0,0,.1.61.45.45,0,0,0,.59-.22A.44.44,0,0,0,39.89,46.58Z"/><path class="cls-109" d="M40.81,47.12l-.92-.54a.44.44,0,0,1,.11.61.45.45,0,0,1-.59.22l.92.54a.45.45,0,0,0,.59-.22A.44.44,0,0,0,40.81,47.12Z"/></g><g class="cls-6"><path class="cls-110" d="M37.47,49.62a1.13,1.13,0,0,0-.45-.5c-.19-.11-.3-.06-.24.1a1.16,1.16,0,0,0,.44.5C37.41,49.83,37.52,49.78,37.47,49.62Z"/><path class="cls-111" d="M42.08,44.1c-.11-.06-.2-.07-.23,0l-5.06,5s.12,0,.23,0a1.13,1.13,0,0,1,.45.5.16.16,0,0,1,0,.14l5.06-5a.12.12,0,0,0,0-.13A1.07,1.07,0,0,0,42.08,44.1Z"/></g><g class="cls-6"><path class="cls-112" d="M91.12,89.19a1.46,1.46,0,0,0-1.44,2.48A1.34,1.34,0,0,0,91.43,91,1.32,1.32,0,0,0,91.12,89.19Z"/><path class="cls-113" d="M91.58,89.45l-.46-.26A1.32,1.32,0,0,1,91.43,91a1.34,1.34,0,0,1-1.75.65l.47.26a1.46,1.46,0,0,0,1.43-2.48Z"/></g><g class="cls-6"><path class="cls-114" d="M89.83,89.57a.43.43,0,0,0-.57.21.44.44,0,0,0,.09.61.48.48,0,0,0,.48-.82Z"/><path class="cls-115" d="M90.76,90.1l-.93-.53a.48.48,0,0,1-.48.82l.93.54a.45.45,0,0,0,.59-.22A.44.44,0,0,0,90.76,90.1Z"/></g><g class="cls-6"><path class="cls-116" d="M87.41,92.6a1.13,1.13,0,0,0-.45-.5c-.18-.11-.29-.06-.24.11a1.16,1.16,0,0,0,.45.49C87.36,92.81,87.47,92.77,87.41,92.6Z"/><path class="cls-117" d="M92,87.08c-.11-.06-.19-.07-.23,0l-5.06,5s.12,0,.23,0a1.13,1.13,0,0,1,.45.5c0,.07,0,.11,0,.14l5.06-5a.13.13,0,0,0,0-.14A1.15,1.15,0,0,0,92,87.08Z"/></g><g class="cls-6"><path class="cls-118" d="M79.37,82.37a1.46,1.46,0,1,0,.32,1.83A1.32,1.32,0,0,0,79.37,82.37Z"/><path class="cls-119" d="M79.84,82.64l-.47-.27a1.46,1.46,0,0,1-1.43,2.48l.47.27a1.34,1.34,0,0,0,1.75-.65A1.33,1.33,0,0,0,79.84,82.64Z"/></g><g class="cls-6"><path class="cls-120" d="M78.09,82.75a.44.44,0,0,0-.58.22.4.4,0,1,0,.69.39A.44.44,0,0,0,78.09,82.75Z"/><path class="cls-121" d="M79,83.29l-.93-.54a.44.44,0,0,1,.11.61.45.45,0,0,1-.59.22l.93.53a.45.45,0,0,0,.59-.21A.44.44,0,0,0,79,83.29Z"/></g><g class="cls-6"><path class="cls-122" d="M75.67,85.79a1.15,1.15,0,0,0-.45-.51c-.19-.1-.29-.06-.24.11a1.18,1.18,0,0,0,.45.5C75.62,86,75.73,86,75.67,85.79Z"/><path class="cls-123" d="M80.28,80.27c-.11-.06-.19-.07-.23,0l-5.06,5s.12,0,.23,0a1.15,1.15,0,0,1,.45.51c0,.06,0,.11,0,.13l5.06-5s0-.07,0-.14A1.13,1.13,0,0,0,80.28,80.27Z"/></g><g class="cls-6"><path class="cls-124" d="M67.63,75.56a1.31,1.31,0,0,0-1.74.64A1.33,1.33,0,0,0,66.2,78,1.34,1.34,0,0,0,68,77.39,1.31,1.31,0,0,0,67.63,75.56Z"/><path class="cls-125" d="M68.1,75.82l-.47-.26A1.31,1.31,0,0,1,68,77.39,1.34,1.34,0,0,1,66.2,78l.46.26a1.46,1.46,0,0,0,1.44-2.48Z"/></g><g class="cls-6"><path class="cls-126" d="M66.35,75.94a.44.44,0,0,0-.58.21.41.41,0,1,0,.69.4A.44.44,0,0,0,66.35,75.94Z"/><path class="cls-127" d="M67.28,76.47l-.93-.53a.48.48,0,0,1-.48.82l.93.54a.45.45,0,0,0,.59-.22A.44.44,0,0,0,67.28,76.47Z"/></g><g class="cls-6"><path class="cls-128" d="M63.93,79a1.13,1.13,0,0,0-.45-.5c-.19-.11-.29-.06-.24.11a1.16,1.16,0,0,0,.45.49C63.88,79.18,64,79.14,63.93,79Z"/><path class="cls-129" d="M68.54,73.45c-.11-.06-.19-.07-.23,0l-5.06,5s.12,0,.23,0a1.13,1.13,0,0,1,.45.5c0,.07,0,.11,0,.14l5.06-5A.13.13,0,0,0,69,74,1.15,1.15,0,0,0,68.54,73.45Z"/></g><g class="cls-6"><path class="cls-130" d="M55.89,68.71a1.46,1.46,0,1,0,.32,1.83A1.32,1.32,0,0,0,55.89,68.71Z"/><path class="cls-131" d="M56.36,69l-.47-.27a1.46,1.46,0,0,1-1.43,2.48l.46.27A1.46,1.46,0,0,0,56.36,69Z"/></g><g class="cls-6"><path class="cls-132" d="M54.61,69.09a.44.44,0,0,0-.58.21.46.46,0,0,0,.1.62.45.45,0,0,0,.59-.22A.44.44,0,0,0,54.61,69.09Z"/><path class="cls-133" d="M55.54,69.63l-.93-.54a.44.44,0,0,1,.11.61.45.45,0,0,1-.59.22l.93.53a.44.44,0,0,0,.58-.21A.43.43,0,0,0,55.54,69.63Z"/></g><g class="cls-6"><path class="cls-134" d="M52.19,72.13a1.15,1.15,0,0,0-.45-.51c-.19-.1-.29-.06-.24.11a1.18,1.18,0,0,0,.45.5C52.14,72.34,52.24,72.29,52.19,72.13Z"/><path class="cls-135" d="M56.8,66.61c-.11-.06-.19-.07-.23,0l-5.06,5s.12,0,.23,0a1.15,1.15,0,0,1,.45.51c0,.06,0,.11,0,.13l5.06-5s0-.07,0-.14A1.13,1.13,0,0,0,56.8,66.61Z"/></g><g class="cls-6"><path class="cls-136" d="M44.15,61.89a1.31,1.31,0,0,0-1.74.64,1.21,1.21,0,1,0,1.74-.64Z"/><path class="cls-137" d="M44.62,62.16l-.47-.27a1.46,1.46,0,0,1-1.43,2.48l.46.27A1.34,1.34,0,0,0,44.93,64,1.32,1.32,0,0,0,44.62,62.16Z"/></g><g class="cls-6"><path class="cls-138" d="M42.87,62.27a.44.44,0,0,0-.58.21.46.46,0,0,0,.1.62.45.45,0,0,0,.59-.22A.44.44,0,0,0,42.87,62.27Z"/><path class="cls-139" d="M43.79,62.8l-.92-.53a.44.44,0,0,1,.11.61.45.45,0,0,1-.59.22l.93.53a.43.43,0,0,0,.58-.22A.43.43,0,0,0,43.79,62.8Z"/></g><g class="cls-6"><path class="cls-140" d="M40.45,65.31A1.15,1.15,0,0,0,40,64.8c-.19-.1-.3-.06-.24.11a1.14,1.14,0,0,0,.44.49C40.4,65.52,40.5,65.47,40.45,65.31Z"/><path class="cls-141" d="M45.06,59.79c-.11-.07-.19-.08-.23,0l-5.06,5s.12,0,.23,0a1.15,1.15,0,0,1,.45.51c0,.06,0,.11,0,.13l5.06-5s0-.07,0-.14A1.13,1.13,0,0,0,45.06,59.79Z"/></g><g class="cls-6"><path class="cls-142" d="M32.41,55.05a1.31,1.31,0,0,0-1.74.64A1.33,1.33,0,0,0,31,57.53a1.35,1.35,0,0,0,1.75-.65A1.31,1.31,0,0,0,32.41,55.05Z"/><path class="cls-143" d="M32.88,55.31l-.47-.26a1.31,1.31,0,0,1,.32,1.83,1.35,1.35,0,0,1-1.75.65l.46.26a1.46,1.46,0,0,0,1.44-2.48Z"/></g><g class="cls-6"><path class="cls-144" d="M31.13,55.43a.44.44,0,0,0-.58.21.41.41,0,1,0,.69.4A.44.44,0,0,0,31.13,55.43Z"/><path class="cls-145" d="M32.05,56l-.92-.53a.44.44,0,0,1,.11.61.45.45,0,0,1-.59.21l.93.54a.44.44,0,0,0,.58-.22A.43.43,0,0,0,32.05,56Z"/></g><g class="cls-6"><path class="cls-146" d="M28.71,58.46a1.13,1.13,0,0,0-.45-.5c-.19-.11-.3-.06-.24.11a1.2,1.2,0,0,0,.44.49C28.66,58.67,28.76,58.63,28.71,58.46Z"/><path class="cls-147" d="M33.32,52.94c-.11-.06-.19-.07-.23,0l-5.06,5s.12,0,.23,0a1.13,1.13,0,0,1,.45.5c0,.07,0,.11,0,.14l5.06-5a.13.13,0,0,0,0-.14A1.15,1.15,0,0,0,33.32,52.94Z"/></g><polygon class="cls-148" points="19.31 79.18 19.81 78.89 19.62 81.05 19.12 81.34 19.31 79.18"/><polygon class="cls-149" points="19.13 76.81 19.31 79.18 19.12 81.34 18.56 81.02 18.39 78.65 18.58 76.49 19.13 76.81"/><polygon class="cls-150" points="19.13 76.81 19.63 76.52 19.81 78.89 19.31 79.18 19.13 76.81"/><polygon class="cls-151" points="18.58 76.49 19.07 76.2 19.63 76.52 19.13 76.81 18.58 76.49"/><polygon class="cls-152" points="56.84 98.84 57.34 98.55 57.15 100.71 56.65 101 56.84 98.84"/><polygon class="cls-153" points="56.66 96.47 56.84 98.84 56.65 101 56.1 100.67 55.92 98.31 56.11 96.15 56.66 96.47"/><polygon class="cls-154" points="56.66 96.47 57.16 96.18 57.34 98.55 56.84 98.84 56.66 96.47"/><polygon class="cls-155" points="56.11 96.15 56.61 95.86 57.16 96.18 56.66 96.47 56.11 96.15"/></g></g></g></g></svg>