<svg xmlns="http://www.w3.org/2000/svg" xmlns:xlink="http://www.w3.org/1999/xlink" viewBox="0 0 150 150"><defs><style>.cls-1,.cls-2{fill:none;}.cls-2{stroke:#fff;stroke-miterlimit:10;stroke-width:0.1px;}.cls-3{opacity:0;}.cls-4{fill:#000714;}.cls-5{opacity:0.1;fill:url(#新建图案);}.cls-6{isolation:isolate;}.cls-7{fill:url(#未命名的渐变_217);}.cls-8{fill:url(#未命名的渐变_20);}.cls-9{fill:url(#未命名的渐变_20-2);}.cls-10{fill:url(#未命名的渐变_325);}.cls-11{fill:url(#未命名的渐变_13);}.cls-12{fill:url(#未命名的渐变_42);}.cls-13{fill:url(#未命名的渐变_107);}.cls-14{fill:url(#未命名的渐变_126);}.cls-15{fill:#fff;opacity:0.16;mix-blend-mode:overlay;}.cls-16{fill:url(#未命名的渐变_107-2);}.cls-17{fill:url(#未命名的渐变_126-2);}.cls-18{fill:url(#未命名的渐变_154);}.cls-19{fill:#13181d;}.cls-20{fill:url(#未命名的渐变_17283);}.cls-21{fill:url(#未命名的渐变_17283-2);}.cls-22{fill:url(#未命名的渐变_17283-3);}.cls-23{fill:url(#未命名的渐变_17283-4);}.cls-24{fill:url(#未命名的渐变_17283-5);}.cls-25{fill:url(#未命名的渐变_17283-6);}.cls-26{fill:url(#未命名的渐变_217-2);}.cls-27{fill:url(#未命名的渐变_13-2);}.cls-28{fill:url(#未命名的渐变_42-2);}.cls-29{fill:url(#未命名的渐变_13-3);}.cls-30{opacity:0.2;}</style><pattern id="新建图案" data-name="新建图案" width="18.57" height="32.16" patternTransform="translate(2774.01 765.96)" patternUnits="userSpaceOnUse" viewBox="0 0 18.57 32.16"><rect class="cls-1" width="18.57" height="32.16"/><polyline class="cls-2" points="18.57 21.44 18.57 32.16 18.57 42.88"/><polyline class="cls-2" points="9.29 26.8 18.57 32.16 27.85 37.51 27.85 37.52"/><polyline class="cls-2" points="9.29 37.52 9.29 37.51 18.57 32.16 27.85 26.8"/><polygon class="cls-2" points="27.85 37.52 27.85 26.8 18.57 21.44 9.28 26.8 9.28 37.52 18.57 42.88 27.85 37.52"/><polyline class="cls-2" points="0 21.44 0 32.16 0 42.88"/><polyline class="cls-2" points="-9.28 26.8 0 32.16 9.28 37.51 9.28 37.52"/><polyline class="cls-2" points="-9.28 37.52 -9.28 37.51 0 32.16 9.28 26.8"/><polygon class="cls-2" points="9.28 37.52 9.28 26.8 0 21.44 -9.29 26.8 -9.29 37.52 0 42.88 9.28 37.52"/><polyline class="cls-2" points="18.57 10.72 27.85 16.08 37.13 21.43 37.13 21.44"/><polyline class="cls-2" points="18.57 21.44 18.57 21.43 27.85 16.08 37.13 10.72"/><polygon class="cls-2" points="37.14 21.44 37.14 10.72 27.85 5.36 18.57 10.72 18.57 21.44 27.85 26.8 37.14 21.44"/><polyline class="cls-2" points="9.29 5.36 9.29 16.08 9.29 26.8"/><polyline class="cls-2" points="0.01 10.72 9.29 16.08 18.57 21.43 18.57 21.44"/><polyline class="cls-2" points="0.01 21.44 0.01 21.43 9.29 16.08 18.57 10.72"/><polygon class="cls-2" points="18.57 21.44 18.57 10.72 9.28 5.36 0 10.72 0 21.44 9.28 26.8 18.57 21.44"/><polyline class="cls-2" points="-18.56 10.72 -9.28 16.08 0 21.43 0 21.44"/><polyline class="cls-2" points="-18.56 21.44 -18.56 21.43 -9.28 16.08 0 10.72"/><polygon class="cls-2" points="0 21.44 0 10.72 -9.29 5.36 -18.57 10.72 -18.57 21.44 -9.29 26.8 0 21.44"/><polyline class="cls-2" points="18.57 -10.72 18.57 0 18.57 10.72"/><polyline class="cls-2" points="9.29 -5.36 18.57 0 27.85 5.35 27.85 5.36"/><polyline class="cls-2" points="9.29 5.36 9.29 5.35 18.57 0 27.85 -5.36"/><polygon class="cls-2" points="27.85 5.36 27.85 -5.36 18.57 -10.72 9.28 -5.36 9.28 5.36 18.57 10.72 27.85 5.36"/><polyline class="cls-2" points="0 -10.72 0 0 0 10.72"/><polyline class="cls-2" points="-9.28 -5.36 0 0 9.28 5.35 9.28 5.36"/><polyline class="cls-2" points="-9.28 5.36 -9.28 5.35 0 0 9.28 -5.36"/><polygon class="cls-2" points="9.28 5.36 9.28 -5.36 0 -10.72 -9.29 -5.36 -9.29 5.36 0 10.72 9.28 5.36"/></pattern><linearGradient id="未命名的渐变_217" x1="39.32" y1="73.61" x2="110.68" y2="73.61" gradientUnits="userSpaceOnUse"><stop offset="0" stop-color="#283140"/><stop offset="0.2" stop-color="#89abe6"/><stop offset="0.9" stop-color="#12161a"/><stop offset="1" stop-color="#283140"/></linearGradient><linearGradient id="未命名的渐变_20" x1="39.32" y1="73.61" x2="110.68" y2="73.61" gradientUnits="userSpaceOnUse"><stop offset="0" stop-color="#198cff" stop-opacity="0"/><stop offset="0.13" stop-color="#1e96ff" stop-opacity="0.05"/><stop offset="0.38" stop-color="#2ab0ff" stop-opacity="0.2"/><stop offset="0.72" stop-color="#3ddafe" stop-opacity="0.42"/><stop offset="0.96" stop-color="#4cfafe" stop-opacity="0.6"/><stop offset="1" stop-color="#4cfafe"/></linearGradient><linearGradient id="未命名的渐变_20-2" x1="39.32" y1="73.61" x2="110.68" y2="73.61" xlink:href="#未命名的渐变_20"/><linearGradient id="未命名的渐变_325" x1="39.32" y1="73.61" x2="110.68" y2="73.61" gradientUnits="userSpaceOnUse"><stop offset="0" stop-color="#4cfafe"/><stop offset="0.04" stop-color="#4cfafe" stop-opacity="0.6"/><stop offset="0.28" stop-color="#3ddafe" stop-opacity="0.42"/><stop offset="0.62" stop-color="#2ab0ff" stop-opacity="0.2"/><stop offset="0.87" stop-color="#1e96ff" stop-opacity="0.05"/><stop offset="1" stop-color="#198cff" stop-opacity="0"/></linearGradient><linearGradient id="未命名的渐变_13" x1="43.2" y1="43.08" x2="107.04" y2="6.23" gradientUnits="userSpaceOnUse"><stop offset="0" stop-color="#89abe6"/><stop offset="1" stop-color="#547099"/></linearGradient><linearGradient id="未命名的渐变_42" x1="75.11" y1="49.31" x2="75.11" gradientUnits="userSpaceOnUse"><stop offset="0" stop-color="#99beff"/><stop offset="0.02" stop-color="#99beff" stop-opacity="0.93"/><stop offset="0.09" stop-color="#99beff" stop-opacity="0.74"/><stop offset="0.17" stop-color="#99beff" stop-opacity="0.56"/><stop offset="0.25" stop-color="#99beff" stop-opacity="0.41"/><stop offset="0.33" stop-color="#99beff" stop-opacity="0.28"/><stop offset="0.43" stop-color="#99beff" stop-opacity="0.18"/><stop offset="0.53" stop-color="#99beff" stop-opacity="0.1"/><stop offset="0.64" stop-color="#99beff" stop-opacity="0.04"/><stop offset="0.77" stop-color="#99beff" stop-opacity="0.01"/><stop offset="1" stop-color="#99beff" stop-opacity="0"/></linearGradient><linearGradient id="未命名的渐变_107" x1="54.35" y1="129.33" x2="138.35" y2="45.33" gradientUnits="userSpaceOnUse"><stop offset="0" stop-color="#283140"/><stop offset="0.34" stop-color="#232b37"/><stop offset="0.9" stop-color="#15191f"/><stop offset="1" stop-color="#12161a"/></linearGradient><linearGradient id="未命名的渐变_126" x1="95.74" y1="129.28" x2="11.83" y2="45.37" gradientUnits="userSpaceOnUse"><stop offset="0" stop-color="#425266"/><stop offset="1" stop-color="#596b8c"/></linearGradient><linearGradient id="未命名的渐变_107-2" x1="77.19" y1="66.38" x2="115.29" y2="66.38" xlink:href="#未命名的渐变_107"/><linearGradient id="未命名的渐变_126-2" x1="55.32" y1="66.38" x2="93.43" y2="66.38" gradientTransform="matrix(-1, 0, 0, 1, 128.17, 0)" xlink:href="#未命名的渐变_126"/><linearGradient id="未命名的渐变_154" x1="74.58" y1="25.63" x2="117.67" y2="25.63" gradientUnits="userSpaceOnUse"><stop offset="0" stop-color="#142439" stop-opacity="0.6"/><stop offset="1" stop-color="#142439" stop-opacity="0"/></linearGradient><linearGradient id="未命名的渐变_17283" x1="58.85" y1="17.28" x2="72.38" y2="17.28" gradientUnits="userSpaceOnUse"><stop offset="0" stop-color="#2f77eb"/><stop offset="1" stop-color="#59c8ff"/></linearGradient><linearGradient id="未命名的渐变_17283-2" x1="71.05" y1="14.43" x2="87.45" y2="14.43" xlink:href="#未命名的渐变_17283"/><linearGradient id="未命名的渐变_17283-3" x1="71.52" y1="19.78" x2="78.53" y2="19.78" xlink:href="#未命名的渐变_17283"/><linearGradient id="未命名的渐变_17283-4" x1="73.9" y1="19.78" x2="76.15" y2="19.78" xlink:href="#未命名的渐变_17283"/><linearGradient id="未命名的渐变_17283-5" x1="77.29" y1="22.24" x2="91.15" y2="22.24" xlink:href="#未命名的渐变_17283"/><linearGradient id="未命名的渐变_17283-6" x1="62.54" y1="24.89" x2="78.95" y2="24.89" xlink:href="#未命名的渐变_17283"/><linearGradient id="未命名的渐变_217-2" x1="53.76" y1="25.6" x2="96.24" y2="25.6" xlink:href="#未命名的渐变_217"/><linearGradient id="未命名的渐变_13-2" x1="53.77" y1="14.86" x2="96.24" y2="14.86" xlink:href="#未命名的渐变_13"/><linearGradient id="未命名的渐变_42-2" x1="75" y1="27.16" x2="75" y2="2.56" xlink:href="#未命名的渐变_42"/><linearGradient id="未命名的渐变_13-3" x1="56.08" y1="14.87" x2="93.93" y2="14.87" xlink:href="#未命名的渐变_13"/></defs><title>采暖系统</title><g id="图层_2" data-name="图层 2"><g id="图元"><g id="采暖系统"><g class="cls-3"><rect class="cls-4" width="150" height="150"/><rect id="网格" class="cls-5" width="150" height="150"/></g><g class="cls-6"><path class="cls-7" d="M110.68,21.33v84.6c-.1,5.18-3.56,10.35-10.36,14.3-13.89,8.07-36.49,8.07-50.46,0-7-4.06-10.54-9.37-10.54-14.68V20.94c0,5.31,3.52,10.63,10.54,14.68,14,8.08,36.57,8.07,50.46,0C107.12,31.68,110.58,26.51,110.68,21.33Z"/><path class="cls-8" d="M110.68,21.33v84.6c-.1,5.18-3.56,10.35-10.36,14.3-13.89,8.07-36.49,8.07-50.46,0-7-4.06-10.54-9.37-10.54-14.68V20.94c0,5.31,3.52,10.63,10.54,14.68,14,8.08,36.57,8.07,50.46,0C107.12,31.68,110.58,26.51,110.68,21.33Z"/><path class="cls-9" d="M39.57,24.46c1.24,4.29,4.74,8.25,10.16,11.38,6.79,3.93,15.81,6.09,25.38,6.09s18.57-2.16,25.33-6.09c5.31-3.08,8.76-7,10-11.23v81.32c-.1,5.31-3.74,10.31-10.24,14.08-6.68,3.88-15.58,6-25.07,6S56.7,123.89,50,120s-10.41-9-10.41-14.46V24.46m-.25-3.52v84.61c0,5.31,3.52,10.62,10.54,14.68s16.13,6,25.26,6,18.25-2,25.2-6,10.26-9.12,10.36-14.3V21.33c-.1,5.18-3.56,10.35-10.36,14.29s-16.07,6.06-25.21,6.06-18.27-2-25.25-6.06S39.32,26.25,39.32,20.94Z"/><path class="cls-10" d="M110.68,21.33v84.6c-.1,5.18-3.56,10.35-10.36,14.3-13.89,8.07-36.49,8.07-50.46,0-7-4.06-10.54-9.37-10.54-14.68V20.94c0,5.31,3.52,10.63,10.54,14.68,14,8.08,36.57,8.07,50.46,0C107.12,31.68,110.58,26.51,110.68,21.33Z"/><path class="cls-9" d="M39.57,24.46c1.24,4.29,4.74,8.25,10.16,11.38,6.79,3.93,15.81,6.09,25.38,6.09s18.57-2.16,25.33-6.09c5.31-3.08,8.76-7,10-11.23v81.32c-.1,5.31-3.74,10.31-10.24,14.08-6.68,3.88-15.58,6-25.07,6S56.7,123.89,50,120s-10.41-9-10.41-14.46V24.46m-.25-3.52v84.61c0,5.31,3.52,10.62,10.54,14.68s16.13,6,25.26,6,18.25-2,25.2-6,10.26-9.12,10.36-14.3V21.33c-.1,5.18-3.56,10.35-10.36,14.29s-16.07,6.06-25.21,6.06-18.27-2-25.25-6.06S39.32,26.25,39.32,20.94Z"/><polygon class="cls-11" points="117.67 24.65 97.4 36.44 75.25 49.31 32.55 24.65 74.98 0 100.63 14.81 117.67 24.65"/><path class="cls-12" d="M75,.87l41.2,23.78L75.25,48.44,34.05,24.65,75,.87M75,0,32.55,24.66l42.7,24.65,42.43-24.66L75,0Z"/><path id="路径" class="cls-13" d="M75.25,49.31,75,150l42.42-24.66.23-100.69Zm2.16,54.8-.22-53.47,38.1-22,.22,53.47Z"/><path id="_路径_" data-name="&lt;路径&gt;" class="cls-14" d="M32.54,24.66l-.22,100.69L75,150l.23-100.69Zm40.19,79.45-38.1-22,.22-53.47,38.1,22Z"/><polygon class="cls-15" points="34.64 124.02 34.85 84.39 72.94 106.37 72.72 146.01 34.64 124.02"/><polygon class="cls-15" points="115.5 124.02 115.29 84.39 77.19 106.37 77.41 146.01 115.5 124.02"/><path class="cls-16" d="M77.19,50.58h0v53.6l1.15-.66,6.24-3.6,1.15-.67L92,95.65,93.12,95l6.24-3.61,1.15-.66,6.24-3.6,1.15-.67,6.24-3.6,1.15-.67V28.58h0ZM93.12,62.36V53l6.24-3.6v9.34Zm6.24-2.45v9.34l-6.24,3.6V63.51Zm-6.24-8V42.53l6.24-3.6v9.34ZM92,52.53l-6.24,3.6V46.8L92,43.2ZM84.58,56.8l-6.24,3.6V51.06l6.24-3.6Zm0,1.15v9.34l-6.24,3.6V61.55Zm1.15-.66L92,53.69V63l-6.24,3.61ZM92,64.18v9.34l-6.24,3.6V67.78Zm0,10.49V84l-6.24,3.6V78.27ZM93.12,74l6.24-3.6v9.34l-6.24,3.6Zm7.39-4.26,6.24-3.6v9.33l-6.24,3.6Zm0-1.16V59.25l6.24-3.61V65Zm0-10.49V48.75l6.24-3.6v9.34Zm0-10.49V38.26l6.24-3.6V44ZM78.34,72.05l6.24-3.61v9.34l-6.24,3.6Zm0,10.49,6.24-3.6v9.33l-6.24,3.6Zm0,19.83V93l6.24-3.6v9.33Zm7.39-4.27V88.76L92,85.16V94.5Zm7.39-4.27V84.49l6.24-3.6v9.34Zm7.39-4.27V80.23l6.24-3.6V86Zm13.63-7.86-6.24,3.6V76l6.24-3.6Zm0-10.49-6.24,3.6V65.47l6.24-3.6Zm0-10.49-6.24,3.6V55l6.24-3.6Zm0-10.5-6.24,3.61V44.49l6.24-3.6Zm0-10.49-6.24,3.6V34l6.24-3.6Z"/><path class="cls-17" d="M34.74,28.58h0v53.6l1.15.67,6.24,3.6,1.15.67,6.24,3.6,1.15.66L56.91,95l1.15.66,6.24,3.6,1.15.67,6.24,3.6,1.15.66V50.58h0ZM50.67,58.76V49.42L56.91,53v9.34Zm6.24,4.75v9.34l-6.24-3.6V59.91ZM50.67,48.27V38.93l6.24,3.6v9.34Zm7.39-5.07,6.24,3.6v9.33l-6.24-3.6Zm7.39,4.26,6.24,3.6V60.4l-6.24-3.6Zm6.24,14.09v9.34l-6.24-3.6V58ZM64.3,66.63,58.06,63V53.69l6.24,3.6Zm0,1.15v9.34l-6.24-3.6V64.18Zm0,10.49v9.34L58.06,84V74.67Zm-7.39,5.07-6.24-3.6V70.4L56.91,74Zm-7.39-4.27-6.24-3.6V66.14l6.24,3.6ZM43.28,65V55.64l6.24,3.61v9.33Zm0-10.49V45.15l6.24,3.6v9.34Zm0-10.49V34.66l6.24,3.6V47.6ZM71.69,81.38l-6.24-3.6V68.44l6.24,3.61Zm0,10.49-6.24-3.6V78.94l6.24,3.6Zm-6.24,6.89V89.43L71.69,93v9.34ZM58.06,94.5V85.16l6.24,3.6V98.1Zm-7.39-4.27V80.89l6.24,3.6v9.34ZM43.28,86V76.63l6.24,3.6v9.33Zm-7.39-13.6L42.13,76V85.3l-6.24-3.6Zm0-10.49,6.24,3.6v9.34l-6.24-3.6Zm0-10.49L42.13,55v9.34l-6.24-3.6Zm0-10.49,6.24,3.6v9.34l-6.24-3.61Zm0-10.49L42.13,34v9.33l-6.24-3.6Z"/></g><polygon class="cls-18" points="117.67 24.65 97.4 36.44 74.58 36.44 74.58 14.81 100.63 14.81 117.67 24.65"/><path class="cls-4" d="M90,6.16c-8.33-4.81-21.77-4.8-30,0s-8.23,12.59.1,17.4,21.76,4.8,30,0S98.29,11,90,6.16Z"/><path class="cls-19" d="M90.06,15.91c-8.25-4.8-21.71-4.8-30,0-4.18,2.41-6.27,5.59-6.26,8.75V15.43c0-3.16,2.08-6.33,6.26-8.75,8.32-4.8,21.78-4.8,30,0,4.11,2.39,6.17,5.51,6.18,8.64v9.23C96.23,21.42,94.17,18.3,90.06,15.91Z"/><path class="cls-20" d="M72.38,18.44a3.12,3.12,0,0,1-1.33-2.59l-3.46-3.06c-2.81-1.22-11.58,2-7.81,6.13a7.46,7.46,0,0,0,1.85,1.46A14,14,0,0,0,68.25,22l3.63-1.37C71.27,20,71.43,19.07,72.38,18.44Z"/><path class="cls-21" d="M85.07,11.74A11,11,0,0,0,76.4,11c-3.6,1.1-5.3,3.09-5.35,4.9a3.12,3.12,0,0,0,1.33,2.59l.15-.09a5.48,5.48,0,0,1,4.76-.11,11.3,11.3,0,0,1,4.45-.75l5.27-2C88.07,14.67,87.16,13,85.07,11.74Z"/><path class="cls-22" d="M77.5,18.35l-.21-.11a5.48,5.48,0,0,0-4.76.11l-.15.09c-.95.63-1.11,1.51-.5,2.23a2.53,2.53,0,0,0,.67.55,5.49,5.49,0,0,0,5,0l.16-.1C78.87,20.32,78.81,19.11,77.5,18.35Zm-1.68,1.89a1.72,1.72,0,0,1-1.59,0,.49.49,0,0,1,0-.92,1.8,1.8,0,0,1,1.6,0A.49.49,0,0,1,75.82,20.24Z"/><path class="cls-23" d="M75.82,19.32a1.8,1.8,0,0,0-1.6,0,.49.49,0,0,0,0,.92,1.72,1.72,0,0,0,1.59,0A.49.49,0,0,0,75.82,19.32Z"/><path class="cls-24" d="M90.22,20.61a7.74,7.74,0,0,0-1.86-1.47,14,14,0,0,0-6.62-1.65,11.3,11.3,0,0,0-4.45.75l.21.11c1.31.76,1.37,2,.17,2.77A3.11,3.11,0,0,1,79,23.68l3.45,3.05C85.22,28,94,24.74,90.22,20.61Z"/><path class="cls-25" d="M77.67,21.12l-.16.1a5.49,5.49,0,0,1-5,0,2.53,2.53,0,0,1-.67-.55L68.25,22,63,24c-1.07.83-.15,2.55,1.94,3.76a11.06,11.06,0,0,0,8.66.79c3.61-1.1,5.31-3.1,5.36-4.9A3.11,3.11,0,0,0,77.67,21.12Z"/><g class="cls-6"><path class="cls-26" d="M90.06,23.56c-8.25,4.8-21.71,4.8-30,0-4.18-2.41-6.27-5.58-6.26-8.75V24c0,3.16,2.08,6.34,6.26,8.75,8.32,4.8,21.78,4.8,30,0,4.11-2.38,6.17-5.51,6.18-8.64V14.92C96.23,18.05,94.17,21.18,90.06,23.56Z"/><path id="路径-2" data-name="路径" class="cls-27" d="M90,6.16c-8.33-4.81-21.77-4.8-30,0s-8.23,12.59.1,17.4,21.76,4.8,30,0S98.29,11,90,6.16ZM88.63,22.49l-.19.13-.22.12a27.38,27.38,0,0,1-12.87,3.09h-.57a27.46,27.46,0,0,1-12.92-3.1l-.19-.12-.21-.12C58,20.42,56.16,17.73,56.08,15a1.82,1.82,0,0,1,0-.33c.05-2.7,1.81-5.39,5.29-7.46l.19-.13L61.78,7A27.35,27.35,0,0,1,74.65,3.9h.57A27.35,27.35,0,0,1,88.12,7l.22.12.2.11c3.51,2.09,5.29,4.78,5.39,7.48,0,.1,0,.22,0,.33C93.88,17.73,92.12,20.42,88.63,22.49Z"/><path class="cls-28" d="M75,2.81a30.27,30.27,0,0,1,14.9,3.57c4,2.28,6.13,5.3,6.14,8.51s-2.15,6.19-6,8.46a30.09,30.09,0,0,1-14.87,3.56,30.3,30.3,0,0,1-14.91-3.56C56.2,21.06,54,18,54,14.84s2.14-6.18,6-8.45A30.09,30.09,0,0,1,75,2.81m0-.25a30.58,30.58,0,0,0-15,3.61c-8.26,4.8-8.23,12.59.09,17.4a30.86,30.86,0,0,0,15,3.59,30.47,30.47,0,0,0,15-3.6c8.27-4.8,8.23-12.6-.08-17.4a30.74,30.74,0,0,0-15-3.6Z"/><path id="路径-3" data-name="路径" class="cls-29" d="M93.93,14.7c-.09-2.7-1.88-5.39-5.4-7.47l-.19-.12L88.13,7A27.31,27.31,0,0,0,75.22,3.9h-.57A27.11,27.11,0,0,0,61.78,7l-.21.11-.2.12C57.89,9.31,56.13,12,56.08,14.7c0,.11,0,.22,0,.33.09,2.7,1.88,5.39,5.38,7.46l.2.13.21.11a27.5,27.5,0,0,0,12.9,3.1h.58a27.14,27.14,0,0,0,12.87-3.1l.21-.11.2-.12c3.48-2.09,5.25-4.77,5.3-7.47C93.93,14.92,93.94,14.81,93.93,14.7ZM74.76,23.63a21.83,21.83,0,0,1-10.22-2.46l1.86-1.08a18.1,18.1,0,0,0,8.35,2ZM66.33,15H69a3,3,0,0,0,1.57,2.19L68.68,18.3A4.29,4.29,0,0,1,66.33,15Zm1.94,3.5L66.4,19.62c-2.12-1.29-3.22-2.93-3.28-4.59h2.62A4.6,4.6,0,0,0,68.27,18.53ZM69.55,15h2.63a1.41,1.41,0,0,0,.64.86L70.94,17A2.69,2.69,0,0,1,69.55,15Zm3.24,0H74.3l-1.07.62A1,1,0,0,1,72.79,15Zm0-.33a1,1,0,0,1,.43-.63l1.08.63Zm-.6,0H69.56a2.67,2.67,0,0,1,1.37-1.95l1.88,1.09A1.33,1.33,0,0,0,72.19,14.7ZM69,14.7H66.33a4.21,4.21,0,0,1,2.31-3.27l1.88,1.09A2.9,2.9,0,0,0,69,14.7Zm-3.23,0H63.11c.06-1.66,1.15-3.31,3.24-4.59l1.88,1.09A4.52,4.52,0,0,0,65.74,14.7Zm-3.21,0H59.88c0-2.14,1.45-4.26,4.18-5.91l1.88,1.08C63.72,11.23,62.58,13,62.53,14.7Zm0,.33c.07,1.74,1.23,3.47,3.47,4.83l-1.87,1.08C61.39,19.3,60,17.17,59.89,15Zm12.22,6.72a17.39,17.39,0,0,1-7.94-1.89l1.87-1.09a13.32,13.32,0,0,0,6.06,1.46Zm0-1.86a12.51,12.51,0,0,1-5.66-1.36L71,17.45a8.74,8.74,0,0,0,3.78.91Zm0-1.87a7.9,7.9,0,0,1-3.38-.8l1.87-1.09a4.08,4.08,0,0,0,1.5.36Zm-1.09-2.13,1.07-.63v.88A3.16,3.16,0,0,1,73.64,15.89Zm1.07-1.43-1.08-.62a2.9,2.9,0,0,1,1.08-.25Zm0-1.22a3.93,3.93,0,0,0-1.48.36l-1.88-1.09a7.73,7.73,0,0,1,3.35-.8Zm0-1.87a8.62,8.62,0,0,0-3.76.91l-1.88-1.09a12.41,12.41,0,0,1,5.63-1.35Zm0-1.87a13.17,13.17,0,0,0-6,1.46L66.76,9.87A17.2,17.2,0,0,1,74.67,8Zm0-1.87a18.1,18.1,0,0,0-8.33,2L64.47,8.55A21.76,21.76,0,0,1,74.66,6.1Zm0-3.39V5.77A22.46,22.46,0,0,0,64.07,8.32L62.19,7.23A26.25,26.25,0,0,1,74.65,4.24ZM61.78,7.47l1.88,1.09c-2.86,1.71-4.3,3.91-4.36,6.14H56.67C56.71,12.08,58.43,9.48,61.78,7.47Zm.09,14.79c-3.39-2-5.12-4.61-5.2-7.23H59.3c.06,2.22,1.55,4.43,4.43,6.14Zm.4.23,1.87-1.08A22.67,22.67,0,0,0,74.76,24v1.52A26.66,26.66,0,0,1,62.27,22.49Zm25.86-15c3.39,2,5.13,4.62,5.21,7.24H90.71c-.08-2.23-1.57-4.43-4.45-6.15ZM86.9,14.7H84.27a4.65,4.65,0,0,0-2.55-3.51L83.6,10.1C85.72,11.39,86.82,13,86.9,14.7ZM84,9.87l1.86-1.08c2.76,1.65,4.19,3.77,4.27,5.91H87.48C87.41,13,86.24,11.23,84,9.87Zm-.32,4.83H81a3,3,0,0,0-1.59-2.19l1.87-1.09A4.31,4.31,0,0,1,83.68,14.7Zm-3.23,0H77.81a1.41,1.41,0,0,0-.63-.87L79,12.75A2.66,2.66,0,0,1,80.45,14.7Zm-3.23,0H75.69l1.07-.62A1,1,0,0,1,77.22,14.7Zm0,.33a1,1,0,0,1-.44.63L75.7,15Zm.59,0h2.64a2.61,2.61,0,0,1-1.38,2L77.2,15.9A1.41,1.41,0,0,0,77.81,15ZM81,15h2.65a4.27,4.27,0,0,1-2.32,3.26l-1.88-1.08A3,3,0,0,0,81,15Zm3.23,0H86.9c-.06,1.66-1.14,3.31-3.25,4.59l-1.88-1.08A4.56,4.56,0,0,0,84.26,15Zm3.22,0h2.65c-.06,2.13-1.45,4.26-4.2,5.9l-1.87-1.08C86.28,18.5,87.44,16.77,87.48,15ZM75.23,4.24a26.56,26.56,0,0,1,12.5,3L85.85,8.32A22.55,22.55,0,0,0,75.23,5.77Zm0,1.87A21.87,21.87,0,0,1,85.45,8.55L83.59,9.63a18.31,18.31,0,0,0-8.35-2Zm0,1.86a17.36,17.36,0,0,1,7.94,1.9L81.32,11A13.59,13.59,0,0,0,75.25,9.5Zm0,1.87a12.44,12.44,0,0,1,5.66,1.35L79,12.28a8.56,8.56,0,0,0-3.77-.91Zm0,1.87a7.81,7.81,0,0,1,3.36.8l-1.85,1.08a4.4,4.4,0,0,0-1.51-.36Zm1.09,2.13-1.08.62v-.89A3.23,3.23,0,0,1,76.36,13.84Zm-1.08,1.42,1.09.63a2.77,2.77,0,0,1-1.08.26Zm0,1.22a4,4,0,0,0,1.5-.34l1.87,1.08a7.77,7.77,0,0,1-3.36.8Zm0,1.88a8.56,8.56,0,0,0,3.77-.91L81,18.54a12.29,12.29,0,0,1-5.64,1.35Zm0,1.87a13.39,13.39,0,0,0,6-1.45l1.88,1.08a17.22,17.22,0,0,1-7.92,1.9Zm0,1.87a18.06,18.06,0,0,0,8.32-2l1.87,1.08a21.67,21.67,0,0,1-10.19,2.45Zm0,3.39V24a22.62,22.62,0,0,0,10.6-2.55l1.87,1.08A26.32,26.32,0,0,1,75.34,25.49Zm12.88-3.23-1.87-1.08c2.84-1.71,4.3-3.92,4.36-6.14h2.64C93.29,17.65,91.58,20.25,88.22,22.26Z"/></g></g></g></g></svg>