<?xml version="1.0" encoding="UTF-8"?>
<svg id="_图层_2" data-name="图层 2" xmlns="http://www.w3.org/2000/svg" xmlns:xlink="http://www.w3.org/1999/xlink" viewBox="0 0 149.8 149.92">
  <defs>
    <style>
      .cls-1 {
        fill: url(#_未命名的渐变_56);
      }

      .cls-1, .cls-2, .cls-3, .cls-4, .cls-5, .cls-6, .cls-7, .cls-8, .cls-9, .cls-10, .cls-11, .cls-12, .cls-13, .cls-14, .cls-15, .cls-16, .cls-17, .cls-18, .cls-19, .cls-20, .cls-21, .cls-22, .cls-23, .cls-24, .cls-25, .cls-26, .cls-27, .cls-28, .cls-29, .cls-30, .cls-31, .cls-32, .cls-33, .cls-34, .cls-35, .cls-36, .cls-37, .cls-38, .cls-39, .cls-40, .cls-41, .cls-42, .cls-43, .cls-44, .cls-45, .cls-46, .cls-47, .cls-48, .cls-49, .cls-50, .cls-51, .cls-52, .cls-53, .cls-54, .cls-55, .cls-56, .cls-57, .cls-58, .cls-59, .cls-60, .cls-61, .cls-62, .cls-63, .cls-64, .cls-65, .cls-66, .cls-67, .cls-68, .cls-69, .cls-70, .cls-71, .cls-72, .cls-73, .cls-74, .cls-75, .cls-76, .cls-77, .cls-78, .cls-79, .cls-80, .cls-81, .cls-82, .cls-83, .cls-84, .cls-85, .cls-86, .cls-87, .cls-88, .cls-89, .cls-90, .cls-91, .cls-92, .cls-93, .cls-94, .cls-95, .cls-96, .cls-97, .cls-98, .cls-99, .cls-100, .cls-101, .cls-102, .cls-103, .cls-104, .cls-105, .cls-106, .cls-107, .cls-108, .cls-109, .cls-110, .cls-111, .cls-112, .cls-113, .cls-114, .cls-115, .cls-116, .cls-117, .cls-118, .cls-119, .cls-120, .cls-121, .cls-122, .cls-123, .cls-124, .cls-125, .cls-126, .cls-127, .cls-128, .cls-129, .cls-130, .cls-131, .cls-132, .cls-133, .cls-134, .cls-135, .cls-136, .cls-137, .cls-138, .cls-139, .cls-140, .cls-141, .cls-142, .cls-143, .cls-144, .cls-145, .cls-146, .cls-147, .cls-148, .cls-149, .cls-150, .cls-151, .cls-152, .cls-153, .cls-154, .cls-155, .cls-156, .cls-157, .cls-158 {
        stroke-width: 0px;
      }

      .cls-2 {
        fill: url(#_未命名的渐变_201-29);
      }

      .cls-3 {
        fill: url(#_未命名的渐变_201-25);
      }

      .cls-4 {
        fill: url(#_未命名的渐变_201-28);
      }

      .cls-5 {
        fill: url(#_未命名的渐变_201-27);
      }

      .cls-6 {
        fill: url(#_未命名的渐变_201-21);
      }

      .cls-7 {
        fill: url(#_未命名的渐变_201-24);
      }

      .cls-8 {
        fill: url(#_未命名的渐变_201-22);
      }

      .cls-9 {
        fill: url(#_未命名的渐变_201-20);
      }

      .cls-10 {
        fill: url(#_未命名的渐变_201-23);
      }

      .cls-11 {
        fill: url(#_未命名的渐变_201-26);
      }

      .cls-12 {
        fill: url(#_未命名的渐变_201-53);
      }

      .cls-13 {
        fill: url(#_未命名的渐变_201-56);
      }

      .cls-14 {
        fill: url(#_未命名的渐变_201-59);
      }

      .cls-15 {
        fill: url(#_未命名的渐变_201-55);
      }

      .cls-16 {
        fill: url(#_未命名的渐变_201-58);
      }

      .cls-17 {
        fill: url(#_未命名的渐变_201-54);
      }

      .cls-18 {
        fill: url(#_未命名的渐变_201-57);
      }

      .cls-19 {
        fill: url(#_未命名的渐变_201-52);
      }

      .cls-20 {
        fill: url(#_未命名的渐变_201-51);
      }

      .cls-21 {
        fill: url(#_未命名的渐变_201-50);
      }

      .cls-22 {
        fill: url(#_未命名的渐变_201-70);
      }

      .cls-23 {
        fill: url(#_未命名的渐变_201-78);
      }

      .cls-24 {
        fill: url(#_未命名的渐变_201-79);
      }

      .cls-25 {
        fill: url(#_未命名的渐变_201-77);
      }

      .cls-26 {
        fill: url(#_未命名的渐变_201-76);
      }

      .cls-27 {
        fill: url(#_未命名的渐变_201-74);
      }

      .cls-28 {
        fill: url(#_未命名的渐变_201-75);
      }

      .cls-29 {
        fill: url(#_未命名的渐变_201-73);
      }

      .cls-30 {
        fill: url(#_未命名的渐变_201-72);
      }

      .cls-31 {
        fill: url(#_未命名的渐变_201-71);
      }

      .cls-32 {
        fill: url(#_未命名的渐变_201-89);
      }

      .cls-33 {
        fill: url(#_未命名的渐变_201-88);
      }

      .cls-34 {
        fill: url(#_未命名的渐变_201-84);
      }

      .cls-35 {
        fill: url(#_未命名的渐变_201-85);
      }

      .cls-36 {
        fill: url(#_未命名的渐变_201-87);
      }

      .cls-37 {
        fill: url(#_未命名的渐变_201-86);
      }

      .cls-38 {
        fill: url(#_未命名的渐变_201-83);
      }

      .cls-39 {
        fill: url(#_未命名的渐变_201-80);
      }

      .cls-40 {
        fill: url(#_未命名的渐变_201-82);
      }

      .cls-41 {
        fill: url(#_未命名的渐变_201-81);
      }

      .cls-42 {
        fill: url(#_未命名的渐变_201-46);
      }

      .cls-43 {
        fill: url(#_未命名的渐变_201-40);
      }

      .cls-44 {
        fill: url(#_未命名的渐变_201-41);
      }

      .cls-45 {
        fill: url(#_未命名的渐变_201-42);
      }

      .cls-46 {
        fill: url(#_未命名的渐变_201-10);
      }

      .cls-47 {
        fill: url(#_未命名的渐变_201-15);
      }

      .cls-48 {
        fill: url(#_未命名的渐变_201-17);
      }

      .cls-49 {
        fill: url(#_未命名的渐变_201-19);
      }

      .cls-50 {
        fill: url(#_未命名的渐变_201-14);
      }

      .cls-51 {
        fill: url(#_未命名的渐变_201-18);
      }

      .cls-52 {
        fill: url(#_未命名的渐变_201-11);
      }

      .cls-53 {
        fill: url(#_未命名的渐变_201-12);
      }

      .cls-54 {
        fill: url(#_未命名的渐变_201-13);
      }

      .cls-55 {
        fill: url(#_未命名的渐变_201-16);
      }

      .cls-56 {
        fill: url(#_未命名的渐变_201-60);
      }

      .cls-57 {
        fill: url(#_未命名的渐变_201-62);
      }

      .cls-58 {
        fill: url(#_未命名的渐变_201-61);
      }

      .cls-59 {
        fill: url(#_未命名的渐变_201-69);
      }

      .cls-60 {
        fill: url(#_未命名的渐变_201-99);
      }

      .cls-61 {
        fill: url(#_未命名的渐变_201-68);
      }

      .cls-62 {
        fill: url(#_未命名的渐变_201-67);
      }

      .cls-63 {
        fill: url(#_未命名的渐变_201-63);
      }

      .cls-64 {
        fill: url(#_未命名的渐变_201-64);
      }

      .cls-65 {
        fill: url(#_未命名的渐变_201-65);
      }

      .cls-66 {
        fill: url(#_未命名的渐变_201-66);
      }

      .cls-67 {
        fill: url(#_未命名的渐变_201-95);
      }

      .cls-68 {
        fill: url(#_未命名的渐变_201-90);
      }

      .cls-69 {
        fill: url(#_未命名的渐变_201-98);
      }

      .cls-70 {
        fill: url(#_未命名的渐变_201-97);
      }

      .cls-71 {
        fill: url(#_未命名的渐变_201-91);
      }

      .cls-72 {
        fill: url(#_未命名的渐变_201-93);
      }

      .cls-73 {
        fill: url(#_未命名的渐变_201-96);
      }

      .cls-74 {
        fill: url(#_未命名的渐变_201-92);
      }

      .cls-75 {
        fill: url(#_未命名的渐变_201-94);
      }

      .cls-76 {
        fill: url(#_未命名的渐变_201-30);
      }

      .cls-77 {
        fill: url(#_未命名的渐变_201-36);
      }

      .cls-78 {
        fill: url(#_未命名的渐变_201-38);
      }

      .cls-79 {
        fill: url(#_未命名的渐变_201-39);
      }

      .cls-80 {
        fill: url(#_未命名的渐变_201-37);
      }

      .cls-81 {
        fill: url(#_未命名的渐变_201-34);
      }

      .cls-82 {
        fill: url(#_未命名的渐变_201-31);
      }

      .cls-83 {
        fill: url(#_未命名的渐变_201-33);
      }

      .cls-84 {
        fill: url(#_未命名的渐变_201-35);
      }

      .cls-85 {
        fill: url(#_未命名的渐变_201-32);
      }

      .cls-86 {
        fill: url(#_未命名的渐变_201-44);
      }

      .cls-87 {
        fill: url(#_未命名的渐变_201-43);
      }

      .cls-88 {
        fill: url(#_未命名的渐变_201-45);
      }

      .cls-89 {
        fill: url(#_未命名的渐变_201-49);
      }

      .cls-90 {
        fill: url(#_未命名的渐变_201-48);
      }

      .cls-91 {
        fill: url(#_未命名的渐变_201-47);
      }

      .cls-92 {
        fill: url(#_未命名的渐变_56-2);
      }

      .cls-93 {
        fill: url(#_未命名的渐变_56-3);
      }

      .cls-94 {
        fill: url(#_未命名的渐变_114-3);
      }

      .cls-95 {
        fill: url(#_未命名的渐变_114-2);
      }

      .cls-96 {
        fill: url(#_未命名的渐变_201-9);
      }

      .cls-97 {
        fill: url(#_未命名的渐变_201-2);
      }

      .cls-98 {
        fill: url(#_未命名的渐变_201-7);
      }

      .cls-99 {
        fill: url(#_未命名的渐变_201-3);
      }

      .cls-100 {
        fill: url(#_未命名的渐变_201-5);
      }

      .cls-101 {
        fill: url(#_未命名的渐变_201-8);
      }

      .cls-102 {
        fill: url(#_未命名的渐变_201-6);
      }

      .cls-103 {
        fill: url(#_未命名的渐变_201-4);
      }

      .cls-104 {
        fill: url(#_未命名的渐变_200-2);
      }

      .cls-105 {
        fill: url(#_未命名的渐变_200-3);
      }

      .cls-106 {
        fill: url(#_未命名的渐变_200-5);
      }

      .cls-107 {
        fill: url(#_未命名的渐变_200-4);
      }

      .cls-108 {
        fill: url(#_未命名的渐变_202-3);
      }

      .cls-109 {
        fill: url(#_未命名的渐变_202-2);
      }

      .cls-159 {
        opacity: .2;
      }

      .cls-160 {
        isolation: isolate;
      }

      .cls-110 {
        fill: url(#_未命名的渐变_114);
      }

      .cls-111 {
        fill: url(#_未命名的渐变_202);
      }

      .cls-112 {
        fill: url(#_未命名的渐变_201);
      }

      .cls-113 {
        fill: url(#_未命名的渐变_200);
      }

      .cls-114 {
        fill: #010714;
        opacity: 0;
      }

      .cls-115 {
        fill: #265e92;
      }

      .cls-116 {
        fill: #347ec3;
      }

      .cls-117 {
        fill: #29649a;
      }

      .cls-118 {
        fill: #2d3746;
      }

      .cls-119 {
        fill: #3987d2;
      }

      .cls-120 {
        fill: #439cf3;
      }

      .cls-121 {
        fill: #0f45c3;
      }

      .cls-122 {
        fill: #104ad0;
      }

      .cls-123 {
        fill: #0a3699;
      }

      .cls-124 {
        fill: #06266b;
      }

      .cls-125 {
        fill: #062569;
      }

      .cls-126 {
        fill: #1f4f7a;
      }

      .cls-127 {
        fill: #171d23;
      }

      .cls-128 {
        fill: #245989;
      }

      .cls-129 {
        fill: #728fc2;
      }

      .cls-130 {
        fill: #6781b0;
      }

      .cls-131 {
        fill: url(#_未命名的渐变_201-126);
      }

      .cls-132 {
        fill: url(#_未命名的渐变_201-110);
      }

      .cls-133 {
        fill: url(#_未命名的渐变_201-124);
      }

      .cls-134 {
        fill: url(#_未命名的渐变_201-121);
      }

      .cls-135 {
        fill: url(#_未命名的渐变_201-120);
      }

      .cls-136 {
        fill: url(#_未命名的渐变_201-123);
      }

      .cls-137 {
        fill: url(#_未命名的渐变_201-125);
      }

      .cls-138 {
        fill: url(#_未命名的渐变_201-122);
      }

      .cls-139 {
        fill: url(#_未命名的渐变_201-127);
      }

      .cls-140 {
        fill: url(#_未命名的渐变_201-108);
      }

      .cls-141 {
        fill: url(#_未命名的渐变_201-115);
      }

      .cls-142 {
        fill: url(#_未命名的渐变_201-112);
      }

      .cls-143 {
        fill: url(#_未命名的渐变_201-118);
      }

      .cls-144 {
        fill: url(#_未命名的渐变_201-117);
      }

      .cls-145 {
        fill: url(#_未命名的渐变_201-114);
      }

      .cls-146 {
        fill: url(#_未命名的渐变_201-111);
      }

      .cls-147 {
        fill: url(#_未命名的渐变_201-113);
      }

      .cls-148 {
        fill: url(#_未命名的渐变_201-119);
      }

      .cls-149 {
        fill: url(#_未命名的渐变_201-106);
      }

      .cls-150 {
        fill: url(#_未命名的渐变_201-109);
      }

      .cls-151 {
        fill: url(#_未命名的渐变_201-103);
      }

      .cls-152 {
        fill: url(#_未命名的渐变_201-102);
      }

      .cls-153 {
        fill: url(#_未命名的渐变_201-101);
      }

      .cls-154 {
        fill: url(#_未命名的渐变_201-107);
      }

      .cls-155 {
        fill: url(#_未命名的渐变_201-104);
      }

      .cls-156 {
        fill: url(#_未命名的渐变_201-116);
      }

      .cls-157 {
        fill: url(#_未命名的渐变_201-105);
      }

      .cls-158 {
        fill: url(#_未命名的渐变_201-100);
      }
    </style>
    <linearGradient id="_未命名的渐变_200" data-name="未命名的渐变 200" x1=".01" y1="84.57" x2="9.64" y2="84.57" gradientUnits="userSpaceOnUse">
      <stop offset="0" stop-color="#425266"/>
      <stop offset="0" stop-color="#425266"/>
      <stop offset="1" stop-color="#596b8a"/>
    </linearGradient>
    <linearGradient id="_未命名的渐变_202" data-name="未命名的渐变 202" x1="0" y1="68.52" x2="59.32" y2="68.52" gradientUnits="userSpaceOnUse">
      <stop offset="0" stop-color="#87a9e4"/>
      <stop offset="1" stop-color="#547097"/>
      <stop offset="1" stop-color="#547097"/>
    </linearGradient>
    <linearGradient id="_未命名的渐变_201" data-name="未命名的渐变 201" x1="9.64" y1="72.53" x2="59.33" y2="72.53" gradientUnits="userSpaceOnUse">
      <stop offset="0" stop-color="#283140"/>
      <stop offset="1" stop-color="#12161a"/>
    </linearGradient>
    <linearGradient id="_未命名的渐变_114" data-name="未命名的渐变 114" x1="-.5" y1="82.08" x2="29.91" y2="68.6" gradientUnits="userSpaceOnUse">
      <stop offset="0" stop-color="#142439"/>
      <stop offset="1" stop-color="#142439" stop-opacity="0"/>
    </linearGradient>
    <linearGradient id="_未命名的渐变_200-2" data-name="未命名的渐变 200" x1="90.48" y1="134.58" x2="100.11" y2="134.58" xlink:href="#_未命名的渐变_200"/>
    <linearGradient id="_未命名的渐变_202-2" data-name="未命名的渐变 202" x1="90.47" y1="118.53" x2="149.79" y2="118.53" xlink:href="#_未命名的渐变_202"/>
    <linearGradient id="_未命名的渐变_201-2" data-name="未命名的渐变 201" x1="100.11" y1="122.54" x2="149.8" y2="122.54" xlink:href="#_未命名的渐变_201"/>
    <linearGradient id="_未命名的渐变_114-2" data-name="未命名的渐变 114" x1="89.98" y1="132.09" x2="120.39" y2="118.61" xlink:href="#_未命名的渐变_114"/>
    <linearGradient id="_未命名的渐变_114-3" data-name="未命名的渐变 114" x1="89.63" y1="132.34" x2="120.04" y2="118.86" xlink:href="#_未命名的渐变_114"/>
    <linearGradient id="_未命名的渐变_201-3" data-name="未命名的渐变 201" x1="41.77" y1="52.76" x2="43.57" y2="52.76" xlink:href="#_未命名的渐变_201"/>
    <linearGradient id="_未命名的渐变_201-4" data-name="未命名的渐变 201" x1="39.65" y1="49.35" x2="41.72" y2="49.35" xlink:href="#_未命名的渐变_201"/>
    <linearGradient id="_未命名的渐变_201-5" data-name="未命名的渐变 201" x1="39.56" y1="48.55" x2="41.22" y2="48.55" xlink:href="#_未命名的渐变_201"/>
    <linearGradient id="_未命名的渐变_201-6" data-name="未命名的渐变 201" x1="41.04" y1="49.46" x2="41.73" y2="49.46" xlink:href="#_未命名的渐变_201"/>
    <linearGradient id="_未命名的渐变_201-7" data-name="未命名的渐变 201" x1="37.46" y1="45.56" x2="39.48" y2="45.56" xlink:href="#_未命名的渐变_201"/>
    <linearGradient id="_未命名的渐变_201-8" data-name="未命名的渐变 201" x1="35.06" y1="41.51" x2="37.17" y2="41.51" xlink:href="#_未命名的渐变_201"/>
    <linearGradient id="_未命名的渐变_201-9" data-name="未命名的渐变 201" x1="21.75" y1="39.55" x2="47.19" y2="39.55" xlink:href="#_未命名的渐变_201"/>
    <linearGradient id="_未命名的渐变_201-10" data-name="未命名的渐变 201" x1="131.71" y1="102.94" x2="133.51" y2="102.94" xlink:href="#_未命名的渐变_201"/>
    <linearGradient id="_未命名的渐变_201-11" data-name="未命名的渐变 201" x1="129.59" y1="99.52" x2="131.66" y2="99.52" xlink:href="#_未命名的渐变_201"/>
    <linearGradient id="_未命名的渐变_201-12" data-name="未命名的渐变 201" x1="129.5" y1="98.72" x2="131.16" y2="98.72" xlink:href="#_未命名的渐变_201"/>
    <linearGradient id="_未命名的渐变_201-13" data-name="未命名的渐变 201" x1="130.98" y1="99.63" x2="131.67" y2="99.63" xlink:href="#_未命名的渐变_201"/>
    <linearGradient id="_未命名的渐变_201-14" data-name="未命名的渐变 201" x1="127.4" y1="95.73" x2="129.42" y2="95.73" xlink:href="#_未命名的渐变_201"/>
    <linearGradient id="_未命名的渐变_201-15" data-name="未命名的渐变 201" x1="125" y1="91.68" x2="127.11" y2="91.68" xlink:href="#_未命名的渐变_201"/>
    <linearGradient id="_未命名的渐变_201-16" data-name="未命名的渐变 201" x1="111.69" y1="89.72" x2="137.13" y2="89.72" xlink:href="#_未命名的渐变_201"/>
    <linearGradient id="_未命名的渐变_201-17" data-name="未命名的渐变 201" x1="97.45" y1="129.04" x2="100.88" y2="129.04" xlink:href="#_未命名的渐变_201"/>
    <linearGradient id="_未命名的渐变_201-18" data-name="未命名的渐变 201" x1="100.43" y1="124.81" x2="101.06" y2="124.81" xlink:href="#_未命名的渐变_201"/>
    <linearGradient id="_未命名的渐变_201-19" data-name="未命名的渐变 201" x1="98.25" y1="125.26" x2="99.13" y2="125.26" xlink:href="#_未命名的渐变_201"/>
    <linearGradient id="_未命名的渐变_201-20" data-name="未命名的渐变 201" x1="98.94" y1="125.25" x2="99.8" y2="125.25" xlink:href="#_未命名的渐变_201"/>
    <linearGradient id="_未命名的渐变_201-21" data-name="未命名的渐变 201" x1="98.9" y1="121.28" x2="99.93" y2="121.28" xlink:href="#_未命名的渐变_201"/>
    <linearGradient id="_未命名的渐变_201-22" data-name="未命名的渐变 201" x1="99.74" y1="116.31" x2="100.89" y2="116.31" xlink:href="#_未命名的渐变_201"/>
    <linearGradient id="_未命名的渐变_201-23" data-name="未命名的渐变 201" x1="101.23" y1="116.79" x2="103.12" y2="116.79" xlink:href="#_未命名的渐变_201"/>
    <linearGradient id="_未命名的渐变_201-24" data-name="未命名的渐变 201" x1="100.76" y1="110.79" x2="101.88" y2="110.79" xlink:href="#_未命名的渐变_201"/>
    <linearGradient id="_未命名的渐变_201-25" data-name="未命名的渐变 201" x1="102.28" y1="113.17" x2="103.03" y2="113.17" xlink:href="#_未命名的渐变_201"/>
    <linearGradient id="_未命名的渐变_201-26" data-name="未命名的渐变 201" x1="101.8" y1="104.9" x2="102.97" y2="104.9" xlink:href="#_未命名的渐变_201"/>
    <linearGradient id="_未命名的渐变_201-27" data-name="未命名的渐变 201" x1="102.8" y1="99.14" x2="104.06" y2="99.14" xlink:href="#_未命名的渐变_201"/>
    <linearGradient id="_未命名的渐变_201-28" data-name="未命名的渐变 201" x1="103.93" y1="92.51" x2="105.34" y2="92.51" xlink:href="#_未命名的渐变_201"/>
    <linearGradient id="_未命名的渐变_201-29" data-name="未命名的渐变 201" x1="105.23" y1="84.55" x2="106.92" y2="84.55" xlink:href="#_未命名的渐变_201"/>
    <linearGradient id="_未命名的渐变_201-30" data-name="未命名的渐变 201" x1="106.83" y1="75.67" x2="108.54" y2="75.67" xlink:href="#_未命名的渐变_201"/>
    <linearGradient id="_未命名的渐变_201-31" data-name="未命名的渐变 201" x1="98.9" y1="122.95" x2="99.63" y2="122.95" xlink:href="#_未命名的渐变_201"/>
    <linearGradient id="_未命名的渐变_201-32" data-name="未命名的渐变 201" x1="99.67" y1="123.4" x2="100.33" y2="123.4" xlink:href="#_未命名的渐变_201"/>
    <linearGradient id="_未命名的渐变_201-33" data-name="未命名的渐变 201" x1="99.85" y1="118.72" x2="100.77" y2="118.72" xlink:href="#_未命名的渐变_201"/>
    <linearGradient id="_未命名的渐变_201-34" data-name="未命名的渐变 201" x1="100.8" y1="119.31" x2="101.73" y2="119.31" xlink:href="#_未命名的渐变_201"/>
    <linearGradient id="_未命名的渐变_201-35" data-name="未命名的渐变 201" x1="101.01" y1="113.19" x2="102.25" y2="113.19" xlink:href="#_未命名的渐变_201"/>
    <linearGradient id="_未命名的渐变_201-36" data-name="未命名的渐变 201" x1="102.28" y1="113.98" x2="103.54" y2="113.98" xlink:href="#_未命名的渐变_201"/>
    <linearGradient id="_未命名的渐变_201-37" data-name="未命名的渐变 201" x1="101.87" y1="107.65" x2="103.7" y2="107.65" xlink:href="#_未命名的渐变_201"/>
    <linearGradient id="_未命名的渐变_201-38" data-name="未命名的渐变 201" x1="103.74" y1="108.8" x2="105.6" y2="108.8" xlink:href="#_未命名的渐变_201"/>
    <linearGradient id="_未命名的渐变_201-39" data-name="未命名的渐变 201" x1="102.95" y1="102.29" x2="105.13" y2="102.29" xlink:href="#_未命名的渐变_201"/>
    <linearGradient id="_未命名的渐变_201-40" data-name="未命名的渐变 201" x1="105.17" y1="103.66" x2="107.39" y2="103.66" xlink:href="#_未命名的渐变_201"/>
    <linearGradient id="_未命名的渐变_201-41" data-name="未命名的渐变 201" x1="104.22" y1="96.17" x2="106.77" y2="96.17" xlink:href="#_未命名的渐变_201"/>
    <linearGradient id="_未命名的渐变_201-42" data-name="未命名的渐变 201" x1="106.8" y1="97.77" x2="109.38" y2="97.77" xlink:href="#_未命名的渐变_201"/>
    <linearGradient id="_未命名的渐变_201-43" data-name="未命名的渐变 201" x1="105.43" y1="89.41" x2="108.56" y2="89.41" xlink:href="#_未命名的渐变_201"/>
    <linearGradient id="_未命名的渐变_201-44" data-name="未命名的渐变 201" x1="108.59" y1="91.37" x2="111.76" y2="91.37" xlink:href="#_未命名的渐变_201"/>
    <linearGradient id="_未命名的渐变_201-45" data-name="未命名的渐变 201" x1="107.2" y1="80.7" x2="110.88" y2="80.7" xlink:href="#_未命名的渐变_201"/>
    <linearGradient id="_未命名的渐变_201-46" data-name="未命名的渐变 201" x1="110.92" y1="83" x2="114.63" y2="83" xlink:href="#_未命名的渐变_201"/>
    <linearGradient id="_未命名的渐变_201-47" data-name="未命名的渐变 201" x1="101.23" y1="118.38" x2="101.94" y2="118.38" xlink:href="#_未命名的渐变_201"/>
    <linearGradient id="_未命名的渐变_201-48" data-name="未命名的渐变 201" x1="100.64" y1="115.18" x2="101.47" y2="115.18" xlink:href="#_未命名的渐变_201"/>
    <linearGradient id="_未命名的渐变_201-49" data-name="未命名的渐变 201" x1="101.55" y1="109.75" x2="102.87" y2="109.75" xlink:href="#_未命名的渐变_201"/>
    <linearGradient id="_未命名的渐变_201-50" data-name="未命名的渐变 201" x1="102.73" y1="113.11" x2="103.81" y2="113.11" xlink:href="#_未命名的渐变_201"/>
    <linearGradient id="_未命名的渐变_201-51" data-name="未命名的渐变 201" x1="102.84" y1="104.32" x2="104.37" y2="104.32" xlink:href="#_未命名的渐变_201"/>
    <linearGradient id="_未命名的渐变_201-52" data-name="未命名的渐变 201" x1="104.26" y1="107.68" x2="105.74" y2="107.68" xlink:href="#_未命名的渐变_201"/>
    <linearGradient id="_未命名的渐变_201-53" data-name="未命名的渐变 201" x1="103.8" y1="98.38" x2="105.86" y2="98.38" xlink:href="#_未命名的渐变_201"/>
    <linearGradient id="_未命名的渐变_201-54" data-name="未命名的渐变 201" x1="105.78" y1="102.43" x2="107.6" y2="102.43" xlink:href="#_未命名的渐变_201"/>
    <linearGradient id="_未命名的渐变_201-55" data-name="未命名的渐变 201" x1="105.22" y1="91.82" x2="107.58" y2="91.82" xlink:href="#_未命名的渐变_201"/>
    <linearGradient id="_未命名的渐变_201-56" data-name="未命名的渐变 201" x1="107.51" y1="96.48" x2="109.69" y2="96.48" xlink:href="#_未命名的渐变_201"/>
    <linearGradient id="_未命名的渐变_201-57" data-name="未命名的渐变 201" x1="108.66" y1="75.02" x2="111.95" y2="75.02" xlink:href="#_未命名的渐变_201"/>
    <linearGradient id="_未命名的渐变_201-58" data-name="未命名的渐变 201" x1="111.98" y1="81.29" x2="115.07" y2="81.29" xlink:href="#_未命名的渐变_201"/>
    <linearGradient id="_未命名的渐变_201-59" data-name="未命名的渐变 201" x1="99.67" y1="121.82" x2="100.94" y2="121.82" xlink:href="#_未命名的渐变_201"/>
    <linearGradient id="_未命名的渐变_201-60" data-name="未命名的渐变 201" x1="100.8" y1="118.67" x2="101.52" y2="118.67" xlink:href="#_未命名的渐变_201"/>
    <linearGradient id="_未命名的渐变_201-61" data-name="未命名的渐变 201" x1="101.49" y1="115.75" x2="102.42" y2="115.75" xlink:href="#_未命名的渐变_201"/>
    <linearGradient id="_未命名的渐变_201-62" data-name="未命名的渐变 201" x1="102.9" y1="110.48" x2="103.88" y2="110.48" xlink:href="#_未命名的渐变_201"/>
    <linearGradient id="_未命名的渐变_201-63" data-name="未命名的渐变 201" x1="103.74" y1="107.61" x2="104.6" y2="107.61" xlink:href="#_未命名的渐变_201"/>
    <linearGradient id="_未命名的渐变_201-64" data-name="未命名的渐变 201" x1="104.4" y1="105.1" x2="105.31" y2="105.1" xlink:href="#_未命名的渐变_201"/>
    <linearGradient id="_未命名的渐变_201-65" data-name="未命名的渐变 201" x1="105.17" y1="102.25" x2="106.09" y2="102.25" xlink:href="#_未命名的渐变_201"/>
    <linearGradient id="_未命名的渐变_201-66" data-name="未命名的渐变 201" x1="105.89" y1="99.37" x2="106.94" y2="99.37" xlink:href="#_未命名的渐变_201"/>
    <linearGradient id="_未命名的渐变_201-67" data-name="未命名的渐变 201" x1="106.8" y1="96.11" x2="107.8" y2="96.11" xlink:href="#_未命名的渐变_201"/>
    <linearGradient id="_未命名的渐变_201-68" data-name="未命名的渐变 201" x1="107.6" y1="92.93" x2="108.73" y2="92.93" xlink:href="#_未命名的渐变_201"/>
    <linearGradient id="_未命名的渐变_201-69" data-name="未命名的渐变 201" x1="110.92" y1="80.58" x2="112.14" y2="80.58" xlink:href="#_未命名的渐变_201"/>
    <linearGradient id="_未命名的渐变_201-70" data-name="未命名的渐变 201" x1="111.98" y1="76.48" x2="113.31" y2="76.48" xlink:href="#_未命名的渐变_201"/>
    <linearGradient id="_未命名的渐变_201-71" data-name="未命名的渐变 201" x1="100.61" y1="100.66" x2="118.8" y2="100.66" xlink:href="#_未命名的渐变_201"/>
    <linearGradient id="_未命名的渐变_200-3" data-name="未命名的渐变 200" x1="96.31" y1="101.76" x2="118.32" y2="101.76" xlink:href="#_未命名的渐变_200"/>
    <linearGradient id="_未命名的渐变_201-72" data-name="未命名的渐变 201" x1="7.97" y1="78.64" x2="11.4" y2="78.64" xlink:href="#_未命名的渐变_201"/>
    <linearGradient id="_未命名的渐变_201-73" data-name="未命名的渐变 201" x1="10.95" y1="74.41" x2="11.58" y2="74.41" xlink:href="#_未命名的渐变_201"/>
    <linearGradient id="_未命名的渐变_201-74" data-name="未命名的渐变 201" x1="8.77" y1="74.86" x2="9.66" y2="74.86" xlink:href="#_未命名的渐变_201"/>
    <linearGradient id="_未命名的渐变_201-75" data-name="未命名的渐变 201" x1="9.46" y1="74.85" x2="10.33" y2="74.85" xlink:href="#_未命名的渐变_201"/>
    <linearGradient id="_未命名的渐变_201-76" data-name="未命名的渐变 201" x1="9.42" y1="70.87" x2="10.45" y2="70.87" xlink:href="#_未命名的渐变_201"/>
    <linearGradient id="_未命名的渐变_201-77" data-name="未命名的渐变 201" x1="10.26" y1="65.91" x2="11.41" y2="65.91" xlink:href="#_未命名的渐变_201"/>
    <linearGradient id="_未命名的渐变_201-78" data-name="未命名的渐变 201" x1="11.75" y1="66.38" x2="13.65" y2="66.38" xlink:href="#_未命名的渐变_201"/>
    <linearGradient id="_未命名的渐变_201-79" data-name="未命名的渐变 201" x1="11.28" y1="60.38" x2="12.4" y2="60.38" xlink:href="#_未命名的渐变_201"/>
    <linearGradient id="_未命名的渐变_201-80" data-name="未命名的渐变 201" x1="12.8" y1="62.76" x2="13.56" y2="62.76" xlink:href="#_未命名的渐变_201"/>
    <linearGradient id="_未命名的渐变_201-81" data-name="未命名的渐变 201" x1="12.32" y1="54.5" x2="13.49" y2="54.5" xlink:href="#_未命名的渐变_201"/>
    <linearGradient id="_未命名的渐变_201-82" data-name="未命名的渐变 201" x1="13.32" y1="48.74" x2="14.58" y2="48.74" xlink:href="#_未命名的渐变_201"/>
    <linearGradient id="_未命名的渐变_201-83" data-name="未命名的渐变 201" x1="14.45" y1="42.11" x2="15.86" y2="42.11" xlink:href="#_未命名的渐变_201"/>
    <linearGradient id="_未命名的渐变_201-84" data-name="未命名的渐变 201" x1="15.75" y1="34.15" x2="17.45" y2="34.15" xlink:href="#_未命名的渐变_201"/>
    <linearGradient id="_未命名的渐变_201-85" data-name="未命名的渐变 201" x1="17.36" y1="25.26" x2="19.07" y2="25.26" xlink:href="#_未命名的渐变_201"/>
    <linearGradient id="_未命名的渐变_201-86" data-name="未命名的渐变 201" x1="9.42" y1="72.55" x2="10.15" y2="72.55" xlink:href="#_未命名的渐变_201"/>
    <linearGradient id="_未命名的渐变_201-87" data-name="未命名的渐变 201" x1="10.19" y1="73" x2="10.86" y2="73" xlink:href="#_未命名的渐变_201"/>
    <linearGradient id="_未命名的渐变_201-88" data-name="未命名的渐变 201" x1="10.37" y1="68.32" x2="11.29" y2="68.32" xlink:href="#_未命名的渐变_201"/>
    <linearGradient id="_未命名的渐变_201-89" data-name="未命名的渐变 201" x1="11.32" y1="68.91" x2="12.26" y2="68.91" xlink:href="#_未命名的渐变_201"/>
    <linearGradient id="_未命名的渐变_201-90" data-name="未命名的渐变 201" x1="11.54" y1="62.79" x2="12.77" y2="62.79" xlink:href="#_未命名的渐变_201"/>
    <linearGradient id="_未命名的渐变_201-91" data-name="未命名的渐变 201" x1="12.8" y1="63.57" x2="14.06" y2="63.57" xlink:href="#_未命名的渐变_201"/>
    <linearGradient id="_未命名的渐变_201-92" data-name="未命名的渐变 201" x1="12.4" y1="57.24" x2="14.23" y2="57.24" xlink:href="#_未命名的渐变_201"/>
    <linearGradient id="_未命名的渐变_201-93" data-name="未命名的渐变 201" x1="14.26" y1="58.4" x2="16.12" y2="58.4" xlink:href="#_未命名的渐变_201"/>
    <linearGradient id="_未命名的渐变_201-94" data-name="未命名的渐变 201" x1="13.47" y1="51.88" x2="15.66" y2="51.88" xlink:href="#_未命名的渐变_201"/>
    <linearGradient id="_未命名的渐变_201-95" data-name="未命名的渐变 201" x1="15.69" y1="53.26" x2="17.91" y2="53.26" xlink:href="#_未命名的渐变_201"/>
    <linearGradient id="_未命名的渐变_201-96" data-name="未命名的渐变 201" x1="14.75" y1="45.77" x2="17.29" y2="45.77" xlink:href="#_未命名的渐变_201"/>
    <linearGradient id="_未命名的渐变_201-97" data-name="未命名的渐变 201" x1="17.33" y1="47.37" x2="19.9" y2="47.37" xlink:href="#_未命名的渐变_201"/>
    <linearGradient id="_未命名的渐变_201-98" data-name="未命名的渐变 201" x1="15.95" y1="39.01" x2="19.08" y2="39.01" xlink:href="#_未命名的渐变_201"/>
    <linearGradient id="_未命名的渐变_201-99" data-name="未命名的渐变 201" x1="19.12" y1="40.97" x2="22.28" y2="40.97" xlink:href="#_未命名的渐变_201"/>
    <linearGradient id="_未命名的渐变_201-100" data-name="未命名的渐变 201" x1="17.72" y1="30.3" x2="21.41" y2="30.3" xlink:href="#_未命名的渐变_201"/>
    <linearGradient id="_未命名的渐变_201-101" data-name="未命名的渐变 201" x1="21.44" y1="32.6" x2="25.15" y2="32.6" xlink:href="#_未命名的渐变_201"/>
    <linearGradient id="_未命名的渐变_201-102" data-name="未命名的渐变 201" x1="11.75" y1="67.97" x2="12.46" y2="67.97" xlink:href="#_未命名的渐变_201"/>
    <linearGradient id="_未命名的渐变_201-103" data-name="未命名的渐变 201" x1="11.16" y1="64.77" x2="11.99" y2="64.77" xlink:href="#_未命名的渐变_201"/>
    <linearGradient id="_未命名的渐变_201-104" data-name="未命名的渐变 201" x1="12.08" y1="59.34" x2="13.39" y2="59.34" xlink:href="#_未命名的渐变_201"/>
    <linearGradient id="_未命名的渐变_201-105" data-name="未命名的渐变 201" x1="13.25" y1="62.71" x2="14.34" y2="62.71" xlink:href="#_未命名的渐变_201"/>
    <linearGradient id="_未命名的渐变_201-106" data-name="未命名的渐变 201" x1="13.37" y1="53.92" x2="14.89" y2="53.92" xlink:href="#_未命名的渐变_201"/>
    <linearGradient id="_未命名的渐变_201-107" data-name="未命名的渐变 201" x1="14.79" y1="57.28" x2="16.27" y2="57.28" xlink:href="#_未命名的渐变_201"/>
    <linearGradient id="_未命名的渐变_201-108" data-name="未命名的渐变 201" x1="14.33" y1="47.98" x2="16.39" y2="47.98" xlink:href="#_未命名的渐变_201"/>
    <linearGradient id="_未命名的渐变_201-109" data-name="未命名的渐变 201" x1="16.3" y1="52.03" x2="18.12" y2="52.03" xlink:href="#_未命名的渐变_201"/>
    <linearGradient id="_未命名的渐变_201-110" data-name="未命名的渐变 201" x1="15.74" y1="41.42" x2="18.1" y2="41.42" xlink:href="#_未命名的渐变_201"/>
    <linearGradient id="_未命名的渐变_201-111" data-name="未命名的渐变 201" x1="18.04" y1="46.08" x2="20.21" y2="46.08" xlink:href="#_未命名的渐变_201"/>
    <linearGradient id="_未命名的渐变_201-112" data-name="未命名的渐变 201" x1="19.18" y1="24.62" x2="22.47" y2="24.62" xlink:href="#_未命名的渐变_201"/>
    <linearGradient id="_未命名的渐变_201-113" data-name="未命名的渐变 201" x1="22.51" y1="30.89" x2="25.6" y2="30.89" xlink:href="#_未命名的渐变_201"/>
    <linearGradient id="_未命名的渐变_201-114" data-name="未命名的渐变 201" x1="10.19" y1="71.42" x2="11.46" y2="71.42" xlink:href="#_未命名的渐变_201"/>
    <linearGradient id="_未命名的渐变_201-115" data-name="未命名的渐变 201" x1="11.32" y1="68.27" x2="12.04" y2="68.27" xlink:href="#_未命名的渐变_201"/>
    <linearGradient id="_未命名的渐变_201-116" data-name="未命名的渐变 201" x1="12.01" y1="65.35" x2="12.94" y2="65.35" xlink:href="#_未命名的渐变_201"/>
    <linearGradient id="_未命名的渐变_201-117" data-name="未命名的渐变 201" x1="13.42" y1="60.08" x2="14.4" y2="60.08" xlink:href="#_未命名的渐变_201"/>
    <linearGradient id="_未命名的渐变_201-118" data-name="未命名的渐变 201" x1="14.26" y1="57.2" x2="15.13" y2="57.2" xlink:href="#_未命名的渐变_201"/>
    <linearGradient id="_未命名的渐变_201-119" data-name="未命名的渐变 201" x1="14.92" y1="54.7" x2="15.83" y2="54.7" xlink:href="#_未命名的渐变_201"/>
    <linearGradient id="_未命名的渐变_201-120" data-name="未命名的渐变 201" x1="15.69" y1="51.84" x2="16.61" y2="51.84" xlink:href="#_未命名的渐变_201"/>
    <linearGradient id="_未命名的渐变_201-121" data-name="未命名的渐变 201" x1="16.41" y1="48.96" x2="17.46" y2="48.96" xlink:href="#_未命名的渐变_201"/>
    <linearGradient id="_未命名的渐变_201-122" data-name="未命名的渐变 201" x1="17.33" y1="45.7" x2="18.32" y2="45.7" xlink:href="#_未命名的渐变_201"/>
    <linearGradient id="_未命名的渐变_201-123" data-name="未命名的渐变 201" x1="18.13" y1="42.52" x2="19.25" y2="42.52" xlink:href="#_未命名的渐变_201"/>
    <linearGradient id="_未命名的渐变_201-124" data-name="未命名的渐变 201" x1="21.44" y1="30.18" x2="22.66" y2="30.18" xlink:href="#_未命名的渐变_201"/>
    <linearGradient id="_未命名的渐变_201-125" data-name="未命名的渐变 201" x1="22.5" y1="26.07" x2="23.83" y2="26.07" xlink:href="#_未命名的渐变_201"/>
    <linearGradient id="_未命名的渐变_201-126" data-name="未命名的渐变 201" x1="11.13" y1="50.26" x2="29.32" y2="50.26" xlink:href="#_未命名的渐变_201"/>
    <linearGradient id="_未命名的渐变_200-4" data-name="未命名的渐变 200" x1="6.84" y1="51.36" x2="28.85" y2="51.36" xlink:href="#_未命名的渐变_200"/>
    <linearGradient id="_未命名的渐变_201-127" data-name="未命名的渐变 201" x1="116.28" y1="74.92" x2="124.9" y2="74.92" xlink:href="#_未命名的渐变_201"/>
    <linearGradient id="_未命名的渐变_200-5" data-name="未命名的渐变 200" x1="15.43" y1="48.27" x2="116.18" y2="48.27" xlink:href="#_未命名的渐变_200"/>
    <linearGradient id="_未命名的渐变_202-3" data-name="未命名的渐变 202" x1="15.32" y1="42.98" x2="124.9" y2="42.98" xlink:href="#_未命名的渐变_202"/>
    <linearGradient id="_未命名的渐变_56" data-name="未命名的渐变 56" x1="51.09" y1="77.08" x2="66.5" y2="77.08" gradientUnits="userSpaceOnUse">
      <stop offset="0" stop-color="#10243b" stop-opacity=".6"/>
      <stop offset=".03" stop-color="#10243b" stop-opacity=".6"/>
      <stop offset="1" stop-color="#10243b" stop-opacity=".6"/>
    </linearGradient>
    <linearGradient id="_未命名的渐变_56-2" data-name="未命名的渐变 56" x1="67.55" y1="75.11" x2="82.19" y2="75.11" xlink:href="#_未命名的渐变_56"/>
    <linearGradient id="_未命名的渐变_56-3" data-name="未命名的渐变 56" x1="83.31" y1="72.84" x2="98.71" y2="72.84" xlink:href="#_未命名的渐变_56"/>
  </defs>
  <g id="_水力发电" data-name="水力发电">
    <g id="_门式起重机" data-name="门式起重机">
      <rect class="cls-114" x=".07" width="149.66" height="149.92"/>
      <g>
        <g class="cls-160">
          <polygon class="cls-113" points="9.65 88.58 0 82.97 0 80.56 9.64 86.17 9.65 88.58"/>
          <polygon class="cls-111" points="9.64 86.17 0 80.56 49.68 50.88 59.32 56.48 9.64 86.17"/>
          <polygon class="cls-112" points="59.32 56.48 59.33 58.89 9.65 88.58 9.64 86.17 59.32 56.48"/>
        </g>
        <polygon class="cls-110" points="7.43 82.8 37.07 69.12 30.14 64.27 6.16 81.88 7.43 82.8"/>
        <g>
          <g class="cls-160">
            <polygon class="cls-104" points="100.12 138.59 90.48 132.98 90.47 130.58 100.11 136.18 100.12 138.59"/>
            <polygon class="cls-109" points="100.11 136.18 90.47 130.58 140.15 100.89 149.79 106.49 100.11 136.18"/>
            <polygon class="cls-97" points="149.79 106.49 149.8 108.9 100.12 138.59 100.11 136.18 149.79 106.49"/>
          </g>
          <polygon class="cls-95" points="97.9 132.81 127.55 119.13 120.61 114.28 96.63 131.89 97.9 132.81"/>
        </g>
        <polygon class="cls-94" points="97.56 133.06 127.2 119.38 120.27 114.53 96.29 132.14 97.56 133.06"/>
        <g class="cls-160">
          <polygon class="cls-123" points="46.98 60.81 47.5 60.41 47.66 60.67 47.13 61.08 46.98 60.81"/>
          <polygon class="cls-123" points="43.53 54.89 44.05 54.48 45.01 56.13 44.49 56.53 43.53 54.89"/>
          <polygon class="cls-118" points="43.91 55.13 44.44 54.73 45.01 55.79 44.48 56.19 43.91 55.13"/>
          <polygon class="cls-121" points="43.04 54.06 43.57 53.65 43.74 53.76 43.21 54.16 43.04 54.06"/>
          <polygon class="cls-121" points="43.49 54.34 44.01 53.94 44.14 54.02 43.61 54.43 43.49 54.34"/>
          <polygon class="cls-118" points="44.53 55.53 45.06 55.13 47.72 60.56 47.19 60.97 44.53 55.53"/>
          <polygon class="cls-99" points="41.77 51.87 42.3 51.47 43.57 53.65 43.04 54.06 41.77 51.87"/>
          <polygon class="cls-118" points="44.28 55.07 44.81 54.67 45.06 55.13 44.53 55.53 44.28 55.07"/>
          <polygon class="cls-118" points="42.36 52.25 42.88 51.85 44.01 53.94 43.49 54.34 42.36 52.25"/>
          <g>
            <polygon class="cls-130" points="41.38 51.11 41.91 50.7 42.18 50.88 41.65 51.28 41.38 51.11"/>
            <polygon class="cls-121" points="41.38 51.11 41.91 50.7 42.18 50.88 41.65 51.28 41.38 51.11"/>
          </g>
          <polygon class="cls-103" points="39.65 48.23 40.17 47.82 41.72 50.47 41.19 50.88 39.65 48.23"/>
          <polygon class="cls-124" points="41.29 50.62 41.82 50.21 41.91 50.7 41.38 51.11 41.29 50.62"/>
          <polygon class="cls-121" points="41.93 51.46 42.45 51.05 42.73 51.23 42.2 51.64 41.93 51.46"/>
          <polygon class="cls-118" points="41.56 50.78 42.09 50.37 42.45 51.05 41.93 51.46 41.56 50.78"/>
          <polygon class="cls-130" points="41.34 50.37 41.86 49.96 42.65 51.02 42.13 51.42 41.34 50.37"/>
          <polygon class="cls-100" points="39.56 48 40.08 47.59 41.22 49.1 40.69 49.51 39.56 48"/>
          <polygon class="cls-118" points="41.2 50.11 41.73 49.71 41.86 49.96 41.34 50.37 41.2 50.11"/>
          <polygon class="cls-118" points="40.33 48.49 40.85 48.09 41.51 49.3 40.98 49.7 40.33 48.49"/>
          <polygon class="cls-130" points="39.17 47.23 39.69 46.83 40.15 47.12 39.62 47.52 39.17 47.23"/>
          <polygon class="cls-102" points="41.04 49.21 41.57 48.81 41.73 49.71 41.2 50.11 41.04 49.21"/>
          <polygon class="cls-98" points="37.46 44.47 37.99 44.07 39.48 46.64 38.96 47.04 37.46 44.47"/>
          <polygon class="cls-127" points="39.21 46.77 39.74 46.36 39.69 46.83 39.17 47.23 39.21 46.77"/>
          <polygon class="cls-118" points="39.48 46.93 40.01 46.52 40.43 47.3 39.9 47.7 39.48 46.93"/>
          <polygon class="cls-130" points="37.25 44.09 37.77 43.69 39.29 45.53 38.76 45.93 37.25 44.09"/>
          <polygon class="cls-130" points="39.9 47.7 40.43 47.3 40.89 47.6 40.37 48 39.9 47.7"/>
          <polygon class="cls-118" points="39.25 46.49 39.77 46.09 39.82 46.17 39.29 46.57 39.25 46.49"/>
          <polygon class="cls-130" points="39.29 46.57 39.82 46.17 40.93 47.52 40.4 47.93 39.29 46.57"/>
          <polygon class="cls-118" points="38.33 44.79 38.85 44.39 39.58 45.73 39.05 46.14 38.33 44.79"/>
          <polygon class="cls-129" points="36.82 43.3 37.34 42.9 38.15 43.42 37.62 43.82 36.82 43.3"/>
          <polygon class="cls-101" points="35.06 40.35 35.58 39.95 37.17 42.67 36.65 43.08 35.06 40.35"/>
          <polygon class="cls-127" points="39.33 45.74 39.85 45.34 39.77 46.09 39.25 46.49 39.33 45.74"/>
          <polygon class="cls-127" points="37.06 42.78 37.59 42.38 37.34 42.9 36.82 43.3 37.06 42.78"/>
          <polygon class="cls-118" points="37.33 42.94 37.86 42.54 38.43 43.59 37.9 44 37.33 42.94"/>
          <polygon class="cls-129" points="35.2 40.41 35.73 40 37.24 41.72 36.71 42.13 35.2 40.41"/>
          <polygon class="cls-118" points="37.14 42.6 37.67 42.19 37.71 42.27 37.18 42.67 37.14 42.6"/>
          <polygon class="cls-129" points="37.9 44 38.43 43.59 39.24 44.12 38.72 44.53 37.9 44"/>
          <polygon class="cls-129" points="37.18 42.67 37.71 42.27 39.15 43.9 38.62 44.31 37.18 42.67"/>
          <polygon class="cls-118" points="36.37 41.16 36.89 40.76 37.52 41.92 37 42.32 36.37 41.16"/>
          <polygon class="cls-129" points="34.66 39.54 35.19 39.14 36.19 39.79 35.66 40.19 34.66 39.54"/>
          <polygon class="cls-127" points="32.67 36.24 33.19 35.84 34.97 38.88 34.44 39.29 32.67 36.24"/>
          <polygon class="cls-125" points="35.02 39.01 35.55 38.6 35.19 39.14 34.66 39.54 35.02 39.01"/>
          <polygon class="cls-118" points="35.29 39.17 35.82 38.76 36.47 39.96 35.94 40.37 35.29 39.17"/>
          <polygon class="cls-129" points="32.58 36.02 33.11 35.62 35.19 37.94 34.67 38.34 32.58 36.02"/>
          <polygon class="cls-127" points="37.45 41.95 37.98 41.55 37.67 42.19 37.14 42.6 37.45 41.95"/>
          <polygon class="cls-129" points="35.94 40.37 36.47 39.96 37.48 40.62 36.96 41.03 35.94 40.37"/>
          <polygon class="cls-129" points="35.12 38.85 35.65 38.45 37.43 40.43 36.9 40.84 35.12 38.85"/>
          <polygon class="cls-118" points="34.13 37.02 34.66 36.62 35.48 38.14 34.95 38.54 34.13 37.02"/>
          <polygon class="cls-127" points="29.84 31.4 30.37 30.99 32.48 34.62 31.96 35.03 29.84 31.4"/>
          <polygon class="cls-129" points="32.22 35.27 32.74 34.87 33.95 35.65 33.43 36.05 32.22 35.27"/>
          <polygon class="cls-118" points="29.74 31.22 30.27 30.82 30.27 30.83 29.75 31.23 29.74 31.22"/>
          <polygon class="cls-118" points="32.95 34.83 33.47 34.42 34.23 35.82 33.7 36.23 32.95 34.83"/>
          <polygon class="cls-129" points="29.91 31.33 30.43 30.93 32.84 33.58 32.31 33.99 29.91 31.33"/>
          <polygon class="cls-125" points="35.59 38.18 36.12 37.77 35.65 38.45 35.12 38.85 35.59 38.18"/>
          <polygon class="cls-129" points="33.7 36.23 34.23 35.82 35.46 36.62 34.93 37.02 33.7 36.23"/>
          <polygon class="cls-129" points="32.79 34.52 33.32 34.12 35.5 36.53 34.97 36.93 32.79 34.52"/>
          <polygon class="cls-118" points="31.67 32.47 32.2 32.07 33.13 33.79 32.6 34.19 31.67 32.47"/>
          <polygon class="cls-129" points="29.42 30.5 29.95 30.1 31.5 31.1 30.97 31.5 29.42 30.5"/>
          <polygon class="cls-127" points="26.33 25.37 26.86 24.97 29.61 29.7 29.09 30.1 26.33 25.37"/>
          <polygon class="cls-127" points="29.93 29.58 30.46 29.18 29.95 30.1 29.42 30.5 29.93 29.58"/>
          <polygon class="cls-118" points="30.2 29.73 30.72 29.33 31.77 31.28 31.25 31.68 30.2 29.73"/>
          <polygon class="cls-129" points="26.33 25.18 26.86 24.77 29.99 28.3 29.46 28.71 26.33 25.18"/>
          <polygon class="cls-127" points="32.94 34.31 33.32 34.09 32.74 34.87 32.22 35.27 32.94 34.31"/>
          <polygon class="cls-127" points="33.4 33.76 33.93 33.34 33.32 34.14 32.79 34.55 33.4 33.76"/>
          <polygon class="cls-129" points="31.25 31.68 31.77 31.28 33.35 32.29 32.82 32.69 31.25 31.68"/>
          <polygon class="cls-129" points="30.05 29.37 30.57 28.97 33.27 32.01 32.74 32.42 30.05 29.37"/>
          <polygon class="cls-127" points="22.76 19.24 23.29 18.83 26.08 23.63 25.55 24.04 22.76 19.24"/>
          <polygon class="cls-118" points="28.49 26.57 29.01 26.16 30.28 28.51 29.75 28.91 28.49 26.57"/>
          <polygon class="cls-129" points="25.91 24.39 26.44 23.98 28.31 25.19 27.78 25.6 25.91 24.39"/>
          <polygon class="cls-125" points="26.73 23.65 27.26 23.25 26.44 23.98 25.91 24.39 26.73 23.65"/>
          <polygon class="cls-118" points="27 23.82 27.53 23.41 28.59 25.37 28.06 25.78 27 23.82"/>
          <polygon class="cls-127" points="30.69 28.24 31.21 27.84 30.57 28.97 30.05 29.37 30.69 28.24"/>
          <polygon class="cls-129" points="28.06 25.78 28.59 25.37 30.47 26.59 29.94 26.99 28.06 25.78"/>
          <polygon class="cls-129" points="22.96 19.27 23.49 18.86 26.85 22.49 26.32 22.9 22.96 19.27"/>
          <polygon class="cls-129" points="26.89 23.51 27.42 23.11 30.53 26.46 30 26.86 26.89 23.51"/>
          <polygon class="cls-118" points="25.39 20.84 25.92 20.43 27.13 22.68 26.6 23.08 25.39 20.84"/>
          <polygon class="cls-125" points="27.9 22.6 28.43 22.2 27.42 23.11 26.89 23.51 27.9 22.6"/>
          <polygon class="cls-118" points="27.94 21.95 28.46 21.55 44.81 54.67 44.28 55.07 27.94 21.95"/>
          <path class="cls-96" d="m27.94,21.95l16.34,33.12.25.46,2.66,5.43-.21-.15.16.27-.61-.54L21.75,18.02l6.19,3.93Zm-5.18-2.71l2.79,4.8.9-.81-3.7-3.99m7.24,7.63l-2.1-4.26-1.01.91,3.11,3.35m-3.67-1.49l2.75,4.73.56-.99-3.31-3.74m6.41,7.04l-2.06-4.17-.64,1.13,2.7,3.04m-.79,2.61l.54-.69-2.66-2.94,2.12,3.63m3.02,1.91l-1.57-3.18-.61.77,2.18,2.41m-9.58-16.1l1.21,2.25.95-.85-2.17-1.4m.93,2.06l-1.21-2.24-2.16-1.39,3.36,3.63m2.16,3.67l1.27,2.35.63-1.12-1.9-1.22m.98,2.14l-1.25-2.32-1.88-1.21,3.13,3.53m5.39,9.98v-.03s-2.19-2.42-2.19-2.42l1.77,3.05.41-.6m-7.85-14.87l1.06,1.96,1.89,1.22-2.94-3.17m.78,1.78l-1.05-1.95-.82.74,1.87,1.21m9.12,15.24l-1.31-2.66-.47.68,1.78,1.98m-6.71-11.1l1.05,1.95,1.57,1.01-2.62-2.96m.78,1.77l-1.04-1.92-.51.92,1.55,1m5.94,11.01l-.05-.1-1.8-2.06,1.59,2.73.27-.57m-5.24-10.04l.93,1.72.58-.74-1.51-.97m.64,1.51l-.91-1.69-1.49-.96,2.41,2.66m6.31,10.32l-1.17-2.36-.31.65.04.07,1.44,1.64m-3.67-5.77l.47-.69-1.29-.83.82,1.52m4.07,7.87l-.07-.13-1.49-1.81,1.5,2.57.07-.63m-4.36-8.07l-.81-1.5-1.27-.82,2.08,2.32m-1.72-3.52l.76,1.4,1.23.79-1.98-2.19m7.46,13.1l-1.08-2.18-.08.75.04.08,1.12,1.35m-6.98-11.88l-.75-1.38-.46.6,1.21.78m7.65,14.17l-.17-.31-1.26-1.68,1.55,2.65-.12-.66m-5.14-9.85l1.02.66-1.67-1.86.65,1.2m-.28-.18l-.64-1.18-.36.54,1,.65m6.47,11.23l-1.09-2.21.16.9.14.25.79,1.05m-3.37-5.49l-.71-1.32-.8-.52,1.52,1.84m-2.4-4.77l.63,1.16.27-.58-.9-.58m2.77,4.2l-.03-.07-.77-.5.73,1.35.08-.78m-2.42-3.23l-.62-1.15-.89-.57,1.51,1.72m1.19,1.87l.82.53-1.39-1.58.57,1.06m-.28-.18l-.56-1.04-.24.52.8.52m5.59,10.34l-1.13-2.09-.31-.2,1.27,2.18.17.11m-2.23-4.46l-.16-.89-.5-.32.65,1.21m-.29-.2l-.64-1.19-.49-.32,1.13,1.51m2.92,4.92l-.99-2-.27-.17,1.13,2.09.13.08m-4.13-7.5l.42.77.47.3-.88-1.07m.14.6l-.41-.76-.05.46.45.29m2.31,3.94l.28.18-.64-.86.37.68m-.28-.18l-.36-.66.09.49.27.17m2.83,5.25l-.85-1.57-.11-.07.96,1.65m0-.34l-.5-1.01-.07-.05.57,1.06m-14.74-24.96h0s0,0,0,0h0"/>
          <polygon class="cls-130" points="21.75 18.02 22.27 17.61 28.46 21.55 27.94 21.95 21.75 18.02"/>
        </g>
        <g class="cls-160">
          <polygon class="cls-123" points="136.92 110.98 137.44 110.58 137.6 110.85 137.07 111.25 136.92 110.98"/>
          <polygon class="cls-123" points="133.47 105.06 133.99 104.65 134.95 106.3 134.43 106.7 133.47 105.06"/>
          <polygon class="cls-118" points="133.85 105.31 134.38 104.9 134.95 105.96 134.42 106.36 133.85 105.31"/>
          <polygon class="cls-121" points="132.98 104.23 133.51 103.82 133.67 103.93 133.15 104.34 132.98 104.23"/>
          <polygon class="cls-121" points="133.42 104.52 133.95 104.11 134.08 104.19 133.55 104.6 133.42 104.52"/>
          <polygon class="cls-118" points="134.47 105.71 135 105.3 137.66 110.73 137.13 111.14 134.47 105.71"/>
          <polygon class="cls-46" points="131.71 102.05 132.24 101.64 133.51 103.82 132.98 104.23 131.71 102.05"/>
          <polygon class="cls-118" points="134.22 105.24 134.75 104.84 135 105.3 134.47 105.71 134.22 105.24"/>
          <polygon class="cls-118" points="132.29 102.42 132.82 102.02 133.95 104.11 133.42 104.52 132.29 102.42"/>
          <g>
            <polygon class="cls-130" points="131.32 101.28 131.85 100.87 132.12 101.05 131.59 101.45 131.32 101.28"/>
            <polygon class="cls-121" points="131.32 101.28 131.85 100.87 132.12 101.05 131.59 101.45 131.32 101.28"/>
          </g>
          <polygon class="cls-52" points="129.59 98.4 130.11 97.99 131.66 100.65 131.13 101.05 129.59 98.4"/>
          <polygon class="cls-124" points="131.23 100.79 131.76 100.38 131.85 100.87 131.32 101.28 131.23 100.79"/>
          <polygon class="cls-121" points="131.87 101.63 132.39 101.23 132.67 101.4 132.14 101.81 131.87 101.63"/>
          <polygon class="cls-118" points="131.5 100.95 132.03 100.54 132.39 101.23 131.87 101.63 131.5 100.95"/>
          <polygon class="cls-130" points="131.28 100.54 131.8 100.13 132.59 101.19 132.07 101.59 131.28 100.54"/>
          <polygon class="cls-53" points="129.5 98.17 130.02 97.76 131.16 99.27 130.63 99.68 129.5 98.17"/>
          <polygon class="cls-118" points="131.14 100.28 131.67 99.88 131.8 100.13 131.28 100.54 131.14 100.28"/>
          <polygon class="cls-118" points="130.27 98.67 130.79 98.26 131.45 99.47 130.92 99.88 130.27 98.67"/>
          <polygon class="cls-130" points="129.11 97.4 129.63 97 130.09 97.29 129.56 97.7 129.11 97.4"/>
          <polygon class="cls-54" points="130.98 99.39 131.51 98.98 131.67 99.88 131.14 100.28 130.98 99.39"/>
          <polygon class="cls-50" points="127.4 94.65 127.93 94.24 129.42 96.81 128.9 97.21 127.4 94.65"/>
          <polygon class="cls-127" points="129.15 96.94 129.68 96.54 129.63 97 129.11 97.4 129.15 96.94"/>
          <polygon class="cls-118" points="129.42 97.1 129.95 96.7 130.36 97.47 129.84 97.87 129.42 97.1"/>
          <polygon class="cls-130" points="127.19 94.26 127.71 93.86 129.23 95.7 128.7 96.1 127.19 94.26"/>
          <polygon class="cls-130" points="129.84 97.87 130.36 97.47 130.83 97.77 130.31 98.17 129.84 97.87"/>
          <polygon class="cls-118" points="129.18 96.66 129.71 96.26 129.76 96.34 129.23 96.75 129.18 96.66"/>
          <polygon class="cls-130" points="129.23 96.75 129.76 96.34 130.87 97.69 130.34 98.1 129.23 96.75"/>
          <polygon class="cls-118" points="128.27 94.96 128.79 94.56 129.52 95.9 128.99 96.31 128.27 94.96"/>
          <polygon class="cls-129" points="126.76 93.47 127.28 93.07 128.09 93.59 127.56 93.99 126.76 93.47"/>
          <polygon class="cls-47" points="125 90.52 125.52 90.12 127.11 92.84 126.58 93.25 125 90.52"/>
          <polygon class="cls-127" points="129.26 95.91 129.79 95.51 129.71 96.26 129.18 96.66 129.26 95.91"/>
          <polygon class="cls-127" points="127 92.96 127.53 92.55 127.28 93.07 126.76 93.47 127 92.96"/>
          <polygon class="cls-118" points="127.27 93.12 127.8 92.71 128.37 93.77 127.84 94.17 127.27 93.12"/>
          <polygon class="cls-129" points="125.14 90.58 125.67 90.17 127.17 91.9 126.65 92.3 125.14 90.58"/>
          <polygon class="cls-118" points="127.08 92.77 127.61 92.36 127.65 92.44 127.12 92.84 127.08 92.77"/>
          <polygon class="cls-129" points="127.84 94.17 128.37 93.77 129.18 94.29 128.66 94.7 127.84 94.17"/>
          <polygon class="cls-129" points="127.12 92.84 127.65 92.44 129.08 94.08 128.56 94.48 127.12 92.84"/>
          <polygon class="cls-118" points="126.31 91.33 126.83 90.93 127.46 92.09 126.93 92.5 126.31 91.33"/>
          <polygon class="cls-129" points="124.6 89.72 125.13 89.31 126.13 89.96 125.6 90.36 124.6 89.72"/>
          <polygon class="cls-127" points="122.61 86.41 123.13 86.01 124.91 89.06 124.38 89.46 122.61 86.41"/>
          <polygon class="cls-125" points="124.96 89.18 125.49 88.77 125.13 89.31 124.6 89.72 124.96 89.18"/>
          <polygon class="cls-118" points="125.23 89.34 125.76 88.93 126.4 90.14 125.88 90.54 125.23 89.34"/>
          <polygon class="cls-129" points="122.52 86.19 123.05 85.79 125.13 88.11 124.6 88.52 122.52 86.19"/>
          <polygon class="cls-127" points="127.39 92.12 127.92 91.72 127.61 92.36 127.08 92.77 127.39 92.12"/>
          <polygon class="cls-129" points="125.88 90.54 126.4 90.14 127.42 90.79 126.9 91.2 125.88 90.54"/>
          <polygon class="cls-129" points="125.06 89.03 125.59 88.62 127.37 90.6 126.84 91.01 125.06 89.03"/>
          <polygon class="cls-118" points="124.07 87.19 124.6 86.79 125.42 88.31 124.89 88.71 124.07 87.19"/>
          <polygon class="cls-127" points="119.78 81.57 120.31 81.16 122.42 84.79 121.9 85.2 119.78 81.57"/>
          <polygon class="cls-129" points="122.16 85.44 122.68 85.04 123.89 85.82 123.37 86.22 122.16 85.44"/>
          <polygon class="cls-118" points="119.68 81.4 120.21 80.99 120.21 81 119.68 81.4 119.68 81.4"/>
          <polygon class="cls-118" points="122.89 85 123.41 84.6 124.17 86 123.64 86.4 122.89 85"/>
          <polygon class="cls-129" points="119.85 81.5 120.37 81.1 122.78 83.75 122.25 84.16 119.85 81.5"/>
          <polygon class="cls-125" points="125.53 88.35 126.06 87.94 125.59 88.62 125.06 89.03 125.53 88.35"/>
          <polygon class="cls-129" points="123.64 86.4 124.17 86 125.4 86.79 124.87 87.19 123.64 86.4"/>
          <polygon class="cls-129" points="122.73 84.69 123.26 84.29 125.44 86.7 124.91 87.1 122.73 84.69"/>
          <polygon class="cls-118" points="121.61 82.64 122.14 82.24 123.07 83.96 122.54 84.36 121.61 82.64"/>
          <polygon class="cls-129" points="119.36 80.68 119.89 80.27 121.44 81.27 120.91 81.67 119.36 80.68"/>
          <polygon class="cls-127" points="116.27 75.55 116.8 75.14 119.55 79.87 119.03 80.27 116.27 75.55"/>
          <polygon class="cls-127" points="119.87 79.75 120.4 79.35 119.89 80.27 119.36 80.68 119.87 79.75"/>
          <polygon class="cls-118" points="120.14 79.91 120.66 79.5 121.71 81.45 121.19 81.85 120.14 79.91"/>
          <polygon class="cls-129" points="116.27 75.35 116.8 74.94 119.93 78.48 119.4 78.88 116.27 75.35"/>
          <polygon class="cls-127" points="122.88 84.49 123.26 84.26 122.68 85.04 122.16 85.44 122.88 84.49"/>
          <polygon class="cls-127" points="123.34 83.93 123.87 83.51 123.26 84.31 122.73 84.73 123.34 83.93"/>
          <polygon class="cls-129" points="121.19 81.85 121.71 81.45 123.29 82.46 122.76 82.87 121.19 81.85"/>
          <polygon class="cls-129" points="119.99 79.54 120.51 79.14 123.21 82.18 122.68 82.59 119.99 79.54"/>
          <polygon class="cls-127" points="112.7 69.41 113.23 69.01 116.02 73.8 115.49 74.21 112.7 69.41"/>
          <polygon class="cls-118" points="118.43 76.74 118.95 76.33 120.22 78.68 119.69 79.09 118.43 76.74"/>
          <polygon class="cls-129" points="115.85 74.56 116.38 74.16 118.25 75.36 117.72 75.77 115.85 74.56"/>
          <polygon class="cls-125" points="116.67 73.82 117.2 73.42 116.38 74.16 115.85 74.56 116.67 73.82"/>
          <polygon class="cls-118" points="116.94 73.99 117.47 73.59 118.52 75.54 118 75.95 116.94 73.99"/>
          <polygon class="cls-127" points="120.63 78.41 121.15 78.01 120.51 79.14 119.99 79.54 120.63 78.41"/>
          <polygon class="cls-129" points="118 75.95 118.52 75.54 120.41 76.76 119.88 77.16 118 75.95"/>
          <polygon class="cls-129" points="112.9 69.44 113.42 69.03 116.79 72.66 116.26 73.07 112.9 69.44"/>
          <polygon class="cls-129" points="116.83 73.68 117.36 73.28 120.47 76.63 119.94 77.04 116.83 73.68"/>
          <polygon class="cls-118" points="115.33 71.01 115.86 70.6 117.07 72.85 116.54 73.25 115.33 71.01"/>
          <polygon class="cls-125" points="117.84 72.78 118.37 72.37 117.36 73.28 116.83 73.68 117.84 72.78"/>
          <polygon class="cls-118" points="117.88 72.12 118.4 71.72 134.75 104.84 134.22 105.24 117.88 72.12"/>
          <path class="cls-55" d="m117.88,72.12l16.34,33.12.25.46,2.66,5.43-.21-.15.16.27-.61-.54-24.77-42.52,6.19,3.93Zm-5.18-2.71l2.79,4.8.9-.81-3.7-3.99m7.24,7.63l-2.1-4.26-1.01.91,3.11,3.35m-3.67-1.49l2.75,4.73.56-.99-3.31-3.74m6.41,7.04l-2.06-4.17-.64,1.13,2.7,3.04m-.79,2.61l.54-.69-2.66-2.94,2.12,3.63m3.02,1.91l-1.57-3.18-.61.77,2.18,2.41m-9.58-16.1l1.21,2.25.95-.85-2.17-1.4m.93,2.06l-1.21-2.24-2.16-1.39,3.36,3.63m2.16,3.67l1.27,2.35.63-1.12-1.9-1.22m.98,2.14l-1.25-2.32-1.88-1.21,3.13,3.53m5.39,9.98v-.03s-2.19-2.42-2.19-2.42l1.77,3.05.41-.6m-7.85-14.87l1.06,1.96,1.89,1.22-2.94-3.17m.78,1.78l-1.05-1.95-.82.74,1.87,1.21m9.12,15.24l-1.31-2.66-.47.68,1.78,1.98m-6.71-11.1l1.05,1.95,1.57,1.01-2.62-2.96m.78,1.77l-1.04-1.92-.51.92,1.55,1m5.94,11.01l-.05-.1-1.8-2.06,1.59,2.73.27-.57m-5.24-10.04l.93,1.72.58-.74-1.51-.97m.64,1.51l-.91-1.69-1.49-.96,2.41,2.66m6.31,10.32l-1.17-2.36-.31.65.04.07,1.44,1.64m-3.67-5.77l.47-.69-1.29-.83.82,1.52m4.07,7.87l-.07-.13-1.49-1.81,1.5,2.57.07-.63m-4.36-8.07l-.81-1.5-1.27-.82,2.08,2.32m-1.72-3.52l.76,1.4,1.23.79-1.98-2.19m7.46,13.1l-1.08-2.18-.08.75.04.08,1.12,1.35m-6.98-11.88l-.75-1.38-.46.6,1.21.78m7.65,14.17l-.17-.31-1.26-1.68,1.55,2.65-.12-.66m-5.14-9.85l1.02.66-1.67-1.86.65,1.2m-.28-.18l-.64-1.18-.36.54,1,.65m6.47,11.23l-1.09-2.21.16.9.14.25.79,1.05m-3.37-5.49l-.71-1.32-.8-.52,1.52,1.84m-2.4-4.77l.63,1.16.27-.58-.9-.58m2.77,4.2l-.03-.07-.77-.5.73,1.35.08-.78m-2.42-3.23l-.62-1.15-.89-.57,1.51,1.72m1.19,1.87l.82.53-1.39-1.58.57,1.06m-.28-.18l-.56-1.04-.24.52.8.52m5.59,10.34l-1.13-2.09-.31-.2,1.27,2.18.17.11m-2.23-4.46l-.16-.89-.5-.32.65,1.21m-.29-.2l-.64-1.19-.49-.32,1.13,1.51m2.92,4.92l-.99-2-.27-.17,1.13,2.09.13.08m-4.13-7.5l.42.77.47.3-.88-1.07m.14.6l-.41-.76-.05.46.45.29m2.31,3.94l.28.18-.64-.86.37.68m-.28-.18l-.36-.66.09.49.27.17m2.83,5.25l-.85-1.57-.11-.07.96,1.65m0-.34l-.5-1.01-.07-.05.57,1.06m-14.74-24.96h0s0,0,0,0h0"/>
          <polygon class="cls-130" points="111.69 68.19 112.21 67.78 118.4 71.72 117.88 72.12 111.69 68.19"/>
        </g>
        <g>
          <g class="cls-160">
            <polygon class="cls-115" points="97.12 132.75 97.57 132.64 97.5 133.03 97.05 133.14 97.12 132.75"/>
            <polygon class="cls-48" points="100.43 125.19 100.88 125.09 97.9 132.9 97.45 133 100.43 125.19"/>
            <polygon class="cls-51" points="100.61 124.53 101.06 124.42 100.88 125.09 100.43 125.19 100.61 124.53"/>
            <polygon class="cls-126" points="100.58 117.96 101.03 117.86 100.3 118.53 99.85 118.63 100.58 117.96"/>
            <polygon class="cls-126" points="102.09 112.39 102.54 112.29 101.46 112.9 101.01 113 102.09 112.39"/>
            <polygon class="cls-128" points="102.76 112.03 103.21 111.92 103.17 112.04 102.73 112.15 102.76 112.03"/>
            <polygon class="cls-126" points="104.53 111.04 104.98 110.94 103.21 111.92 102.76 112.03 104.53 111.04"/>
            <polygon class="cls-126" points="103.66 106.62 104.11 106.51 102.32 107.17 101.87 107.27 103.66 106.62"/>
            <polygon class="cls-128" points="104.29 106.4 104.74 106.29 104.71 106.39 104.26 106.49 104.29 106.4"/>
            <polygon class="cls-126" points="105.15 101.16 105.6 101.06 103.4 101.7 102.95 101.81 105.15 101.16"/>
            <polygon class="cls-126" points="106.55 105.59 107 105.48 104.74 106.29 104.29 106.4 106.55 105.59"/>
            <polygon class="cls-116" points="104.93 89.67 105.38 89.56 105.38 89.58 104.94 89.69 104.93 89.67"/>
            <polygon class="cls-126" points="106.86 94.89 107.31 94.78 104.67 95.48 104.22 95.58 106.86 94.89"/>
            <polygon class="cls-126" points="108.58 100.16 109.03 100.05 106.23 100.87 105.78 100.98 108.58 100.16"/>
            <polygon class="cls-126" points="108.87 87.51 109.31 87.41 105.87 88.53 105.43 88.64 108.87 87.51"/>
            <polygon class="cls-126" points="110.95 93.79 111.4 93.69 107.96 94.6 107.51 94.71 110.95 93.79"/>
            <polygon class="cls-49" points="98.69 124.12 98.25 126.51 98.7 126.41 99.13 124.02 98.69 124.12"/>
            <polygon class="cls-9" points="98.94 126.07 99.38 125.96 99.8 124.43 99.35 124.53 98.94 126.07"/>
            <polygon class="cls-6" points="98.9 122.92 99.35 122.81 99.93 119.63 99.48 119.74 98.9 122.92"/>
            <polygon class="cls-8" points="99.74 118.3 100.19 118.19 100.89 114.32 100.44 114.43 99.74 118.3"/>
            <polygon class="cls-10" points="101.33 117.27 101.23 117.65 101.68 117.54 101.78 117.16 103.12 115.93 102.67 116.03 101.33 117.27"/>
            <polygon class="cls-7" points="101.43 108.97 100.76 112.7 101.2 112.6 101.88 108.87 101.43 108.97"/>
            <polygon class="cls-3" points="102.73 113.68 103.03 112.55 102.59 112.66 102.28 113.78 102.73 113.68"/>
            <polygon class="cls-11" points="102.97 102.87 102.52 102.98 101.8 106.94 102.25 106.83 102.97 102.87"/>
            <polygon class="cls-5" points="102.8 101.42 103.25 101.32 104.06 96.87 103.61 96.97 102.8 101.42"/>
            <polygon class="cls-4" points="103.93 95.21 104.37 95.1 105.34 89.82 104.89 89.93 103.93 95.21"/>
            <polygon class="cls-2" points="105.23 88.05 105.68 87.94 106.92 81.05 106.48 81.16 105.23 88.05"/>
            <polygon class="cls-76" points="108.09 72.23 106.83 79.2 107.28 79.1 108.54 72.13 108.09 72.23"/>
            <polygon class="cls-117" points="106.83 79.2 107.28 79.1 111.68 78.2 111.23 78.31 106.83 79.2"/>
            <polygon class="cls-126" points="113.89 85.88 114.34 85.77 110.09 87.15 109.64 87.25 113.89 85.88"/>
            <polygon class="cls-82" points="98.9 122.92 99.18 123.09 99.63 122.99 99.35 122.81 98.9 122.92"/>
            <polygon class="cls-85" points="99.67 123.39 99.89 123.52 100.33 123.42 100.11 123.28 99.67 123.39"/>
            <polygon class="cls-83" points="99.85 118.63 100.32 118.92 100.77 118.81 100.3 118.53 99.85 118.63"/>
            <polygon class="cls-81" points="100.8 119.22 101.28 119.51 101.73 119.41 101.25 119.11 100.8 119.22"/>
            <polygon class="cls-84" points="101.01 113 101.8 113.48 102.25 113.38 101.46 112.9 101.01 113"/>
            <polygon class="cls-77" points="102.28 113.78 103.09 114.28 103.54 114.17 102.73 113.68 102.28 113.78"/>
            <polygon class="cls-80" points="101.87 107.27 103.26 108.12 103.7 108.02 102.32 107.17 101.87 107.27"/>
            <polygon class="cls-78" points="103.74 108.42 105.15 109.29 105.6 109.18 104.19 108.32 103.74 108.42"/>
            <polygon class="cls-79" points="105.13 102.77 103.4 101.7 102.95 101.81 104.68 102.87 105.13 102.77"/>
            <polygon class="cls-43" points="105.17 103.17 106.94 104.26 107.39 104.15 105.62 103.07 105.17 103.17"/>
            <polygon class="cls-44" points="106.77 96.77 104.67 95.48 104.22 95.58 106.32 96.87 106.77 96.77"/>
            <polygon class="cls-45" points="106.8 97.17 108.93 98.48 109.38 98.37 107.25 97.06 106.8 97.17"/>
            <polygon class="cls-87" points="108.56 90.19 105.87 88.53 105.43 88.64 108.11 90.29 108.56 90.19"/>
            <polygon class="cls-86" points="108.59 90.59 111.31 92.26 111.76 92.16 109.04 90.48 108.59 90.59"/>
            <polygon class="cls-88" points="110.88 81.64 107.64 79.65 107.2 79.76 110.43 81.75 110.88 81.64"/>
            <polygon class="cls-42" points="111.37 81.94 110.92 82.05 114.18 84.06 114.63 83.95 111.37 81.94"/>
            <polygon class="cls-91" points="101.23 117.65 101.49 119.21 101.94 119.1 101.68 117.54 101.23 117.65"/>
            <polygon class="cls-90" points="101.09 114 100.64 114.11 101.02 116.35 101.47 116.24 101.09 114"/>
            <polygon class="cls-89" points="102 108.31 101.55 108.41 102.42 111.18 102.87 111.08 102 108.31"/>
            <polygon class="cls-21" points="102.73 112.15 103.36 114.18 103.81 114.07 103.17 112.04 102.73 112.15"/>
            <polygon class="cls-20" points="103.29 102.97 102.84 103.07 103.92 105.67 104.37 105.57 103.29 102.97"/>
            <polygon class="cls-19" points="104.26 106.49 105.29 108.97 105.74 108.87 104.71 106.39 104.26 106.49"/>
            <polygon class="cls-12" points="105.86 100.09 104.25 96.57 103.8 96.67 105.41 100.19 105.86 100.09"/>
            <polygon class="cls-17" points="105.78 100.98 107.15 104 107.6 103.89 106.23 100.87 105.78 100.98"/>
            <polygon class="cls-15" points="107.58 93.79 105.67 89.74 105.22 89.85 107.13 93.9 107.58 93.79"/>
            <polygon class="cls-13" points="107.51 94.71 109.24 98.36 109.69 98.26 107.96 94.6 107.51 94.71"/>
            <polygon class="cls-122" points="109.66 86.15 107.32 80.79 106.88 80.9 109.21 86.26 109.66 86.15"/>
            <polygon class="cls-122" points="109.64 87.25 111.65 91.87 112.1 91.77 110.09 87.15 109.64 87.25"/>
            <polygon class="cls-18" points="111.95 77.73 109.11 72.21 108.66 72.31 111.5 77.84 111.95 77.73"/>
            <polygon class="cls-16" points="112.43 78.67 111.98 78.77 114.62 83.91 115.07 83.8 112.43 78.67"/>
            <polygon class="cls-14" points="99.67 123.39 100.11 123.28 100.94 120.26 100.49 120.36 99.67 123.39"/>
            <polygon class="cls-56" points="100.8 119.22 101.25 119.11 101.52 118.12 101.07 118.23 100.8 119.22"/>
            <polygon class="cls-58" points="101.49 116.68 101.94 116.57 102.42 114.82 101.97 114.92 101.49 116.68"/>
            <polygon class="cls-57" points="102.9 111.5 103.35 111.4 103.88 109.46 103.43 109.57 102.9 111.5"/>
            <polygon class="cls-63" points="103.74 108.42 104.19 108.32 104.6 106.79 104.15 106.9 103.74 108.42"/>
            <polygon class="cls-64" points="104.4 105.99 104.85 105.89 105.31 104.21 104.86 104.31 104.4 105.99"/>
            <polygon class="cls-65" points="105.17 103.17 105.62 103.07 106.09 101.32 105.64 101.43 105.17 103.17"/>
            <polygon class="cls-66" points="105.89 100.51 106.34 100.41 106.94 98.22 106.49 98.32 105.89 100.51"/>
            <polygon class="cls-62" points="106.8 97.17 107.25 97.06 107.8 95.05 107.35 95.15 106.8 97.17"/>
            <polygon class="cls-61" points="107.6 94.23 108.05 94.12 108.73 91.63 108.28 91.73 107.6 94.23"/>
            <polygon class="cls-122" points="108.59 90.59 109.04 90.48 109.81 87.67 109.36 87.78 108.59 90.59"/>
            <polygon class="cls-122" points="109.68 86.59 110.13 86.49 111.06 83.09 110.61 83.19 109.68 86.59"/>
            <polygon class="cls-59" points="110.92 82.05 111.37 81.94 112.14 79.11 111.69 79.22 110.92 82.05"/>
            <polygon class="cls-22" points="112.86 74.9 111.98 78.16 112.43 78.05 113.31 74.8 112.86 74.9"/>
            <polygon class="cls-117" points="111.98 78.16 112.43 78.05 117.07 77.11 116.62 77.21 111.98 78.16"/>
            <g>
              <polygon class="cls-122" points="118.35 76.9 118.8 76.8 101.06 124.42 100.61 124.53 118.35 76.9"/>
              <polygon class="cls-31" points="118.35 76.9 118.8 76.8 101.06 124.42 100.61 124.53 118.35 76.9"/>
            </g>
            <path class="cls-105" d="m118.35,76.9l-17.74,47.63-.18.66-2.98,7.81-.33-.25-.07.39-.76-.85,11.22-61.9,10.84,6.52Zm-10.26-4.67l-1.26,6.97,4.39-.9-3.13-6.07m6.53,11.67l2.29-6.14-4.93,1,2.64,5.13m-8.15-2.75l-1.25,6.89,3.72-1.22-2.47-5.67m5.18,10.72l2.24-6-4.25,1.38,2.01,4.62m-7.73,3.33l3.07-.82-2.1-4.46-.97,5.28m5.32,3.16l1.71-4.57-3.43.91,1.73,3.66m3.62-23.46l-.89,3.26,4.64-.95-3.76-2.31m-1.36,2.94l.88-3.24-3.72-2.29,2.84,5.53m-.89,5.35l-.93,3.4,4.22-1.37-3.29-2.02m-1.4,3.07l.92-3.37-3.25-2,2.33,5.36m-3.93,14.43v-.04s-1.67-3.68-1.67-3.68l-.81,4.45,2.48-.73m6.41-21.48l-.77,2.83,3.26,2.01-2.49-4.84m-1.25,2.53l.76-2.81-4,.82,3.24,1.99m-3.28,22.25l1.43-3.84-2.8.82,1.38,3.02m2.21-16.22l-.77,2.81,2.72,1.67-1.95-4.48m-1.25,2.51l.76-2.78-3.44,1.13,2.68,1.65m-4.34,15.93l.04-.14-1.29-3.1-.72,3.96,1.97-.72m4.51-14.48l-.68,2.49,3.29-.89-2.61-1.61m-1.15,2.16l.67-2.46-2.58-1.59,1.91,4.05m-1.83,15.07l1.26-3.38-2.26.81-.03.1,1.03,2.48m.6-8.46l2.82-.82-2.23-1.37-.6,2.19m-3.66,11.37l.05-.19-.85-2.72-.68,3.73,1.48-.82m3.18-11.69l.59-2.17-2.2-1.35,1.61,3.52m1.94-5.04l-.55,2.02,2.13,1.31-1.58-3.33m-3.99,19.03l1.16-3.14-1.77.99-.03.12.64,2.03m2.95-17.31l.54-1.98-2.63.69,2.09,1.29m-5.58,20.5l.12-.44-.42-2.51-.7,3.87,1-.92m4.43-14.2l1.77,1.09-1.29-2.83-.47,1.74m-.48-.3l.47-1.71-2.2.64,1.73,1.07m-3.19,16.34l1.18-3.18-1.34,1.23-.1.38.26,1.56m.93-8.02l.52-1.92-1.39-.86.87,2.77m2.44-6.87l-.46,1.68,2.01-.72-1.56-.96m-.12,6.18l.04-.1-1.35-.83-.53,1.94,1.84-1.01m-.81-4.82l.45-1.66-1.53-.94,1.08,2.6m-.18,2.75l1.41.87-.99-2.39-.42,1.53m-.48-.3l.41-1.5-1.79.65,1.38.85m-4.07,14.97l.82-3.03-.53-.32-.58,3.18.28.17m2.79-8.17l-.48,1.75,1.33-1.23-.85-.53m-.95,1.42l.47-1.72-.84-.52.38,2.24m-1.13,7.18l1.07-2.88-.47-.29-.82,3.03.22.14m2.7-10.87l-.31,1.12.81.5-.5-1.62m-.79.82l.3-1.09-1.08.61.78.48m-1,5.73l.48.3-.21-1.29-.27.99m-.48-.3l.26-.96-.73.67.47.29m-2.07,7.59l.62-2.28-.18-.11-.43,2.39m.69-.44l.54-1.46-.12-.08-.42,1.54m6-36.38h0s0-.02,0-.02v.02"/>
            <polygon class="cls-119" points="107.51 70.39 107.96 70.28 118.8 76.8 118.35 76.9 107.51 70.39"/>
          </g>
          <polygon class="cls-120" points="106.52 80.74 106.91 80.95 111.65 91.87 111.46 92.33 111.31 92.26 106.48 81.16 106.52 80.74"/>
          <polygon class="cls-120" points="105.23 88.05 113.9 85.22 114.13 85.41 113.87 86 105.36 88.66 105.1 88.53 105.23 88.05"/>
          <polygon class="cls-120" points="110.1 82.96 110.61 83.19 108.59 90.59 108.09 90.37 110.1 82.96"/>
        </g>
        <g>
          <g class="cls-160">
            <polygon class="cls-115" points="7.64 82.34 8.09 82.24 8.02 82.63 7.58 82.74 7.64 82.34"/>
            <polygon class="cls-30" points="10.95 74.79 11.4 74.69 8.42 82.49 7.97 82.6 10.95 74.79"/>
            <polygon class="cls-29" points="11.13 74.13 11.58 74.02 11.4 74.69 10.95 74.79 11.13 74.13"/>
            <polygon class="cls-126" points="11.1 67.56 11.55 67.45 10.82 68.12 10.37 68.23 11.1 67.56"/>
            <polygon class="cls-126" points="12.62 61.99 13.06 61.89 11.99 62.49 11.54 62.6 12.62 61.99"/>
            <polygon class="cls-128" points="13.28 61.62 13.73 61.52 13.7 61.64 13.25 61.74 13.28 61.62"/>
            <polygon class="cls-126" points="15.05 60.64 15.5 60.53 13.73 61.52 13.28 61.62 15.05 60.64"/>
            <polygon class="cls-126" points="14.19 56.22 14.64 56.11 12.85 56.77 12.4 56.87 14.19 56.22"/>
            <polygon class="cls-128" points="14.81 55.99 15.26 55.89 15.24 55.98 14.79 56.09 14.81 55.99"/>
            <polygon class="cls-126" points="15.67 50.76 16.12 50.65 13.92 51.3 13.47 51.4 15.67 50.76"/>
            <polygon class="cls-126" points="17.08 55.18 17.53 55.08 15.26 55.89 14.81 55.99 17.08 55.18"/>
            <polygon class="cls-116" points="15.45 39.27 15.9 39.16 15.91 39.18 15.46 39.28 15.45 39.27"/>
            <polygon class="cls-126" points="17.38 44.48 17.83 44.38 15.2 45.07 14.75 45.18 17.38 44.48"/>
            <polygon class="cls-126" points="19.1 49.75 19.55 49.65 16.75 50.47 16.3 50.57 19.1 49.75"/>
            <polygon class="cls-126" points="19.39 37.11 19.84 37 16.4 38.13 15.95 38.24 19.39 37.11"/>
            <polygon class="cls-126" points="21.47 43.39 21.92 43.28 18.49 44.2 18.04 44.3 21.47 43.39"/>
            <polygon class="cls-27" points="9.21 73.72 8.77 76.11 9.22 76 9.66 73.61 9.21 73.72"/>
            <polygon class="cls-28" points="9.46 75.67 9.91 75.56 10.33 74.02 9.88 74.13 9.46 75.67"/>
            <polygon class="cls-26" points="9.42 72.52 9.87 72.41 10.45 69.23 10 69.34 9.42 72.52"/>
            <polygon class="cls-25" points="10.26 67.89 10.71 67.79 11.41 63.92 10.96 64.03 10.26 67.89"/>
            <polygon class="cls-23" points="11.85 66.86 11.75 67.25 12.2 67.14 12.3 66.76 13.65 65.52 13.2 65.63 11.85 66.86"/>
            <polygon class="cls-24" points="11.95 58.57 11.28 62.3 11.73 62.19 12.4 58.46 11.95 58.57"/>
            <polygon class="cls-39" points="13.25 63.27 13.56 62.15 13.11 62.26 12.8 63.38 13.25 63.27"/>
            <polygon class="cls-41" points="13.49 52.47 13.04 52.57 12.32 56.53 12.77 56.43 13.49 52.47"/>
            <polygon class="cls-40" points="13.32 51.02 13.77 50.91 14.58 46.46 14.13 46.57 13.32 51.02"/>
            <polygon class="cls-38" points="14.45 44.8 14.9 44.7 15.86 39.42 15.41 39.52 14.45 44.8"/>
            <polygon class="cls-34" points="15.75 37.64 16.2 37.54 17.45 30.65 17 30.76 15.75 37.64"/>
            <polygon class="cls-35" points="18.62 21.83 17.36 28.8 17.8 28.7 19.07 21.73 18.62 21.83"/>
            <polygon class="cls-117" points="17.36 28.8 17.8 28.7 22.2 27.8 21.75 27.91 17.36 28.8"/>
            <polygon class="cls-126" points="24.42 35.47 24.86 35.37 20.62 36.75 20.17 36.85 24.42 35.47"/>
            <polygon class="cls-37" points="9.42 72.52 9.7 72.69 10.15 72.58 9.87 72.41 9.42 72.52"/>
            <polygon class="cls-36" points="10.19 72.99 10.41 73.12 10.86 73.02 10.64 72.88 10.19 72.99"/>
            <polygon class="cls-33" points="10.37 68.23 10.84 68.52 11.29 68.41 10.82 68.12 10.37 68.23"/>
            <polygon class="cls-32" points="11.32 68.81 11.81 69.11 12.26 69.01 11.77 68.71 11.32 68.81"/>
            <polygon class="cls-68" points="11.54 62.6 12.32 63.08 12.77 62.97 11.99 62.49 11.54 62.6"/>
            <polygon class="cls-71" points="12.8 63.38 13.61 63.88 14.06 63.77 13.25 63.27 12.8 63.38"/>
            <polygon class="cls-74" points="12.4 56.87 13.78 57.72 14.23 57.62 12.85 56.77 12.4 56.87"/>
            <polygon class="cls-72" points="14.26 58.02 15.67 58.88 16.12 58.78 14.71 57.91 14.26 58.02"/>
            <polygon class="cls-75" points="15.66 52.36 13.92 51.3 13.47 51.4 15.21 52.47 15.66 52.36"/>
            <polygon class="cls-67" points="15.69 52.77 17.46 53.86 17.91 53.75 16.14 52.66 15.69 52.77"/>
            <polygon class="cls-73" points="17.29 46.36 15.2 45.07 14.75 45.18 16.84 46.47 17.29 46.36"/>
            <polygon class="cls-70" points="17.33 46.77 19.45 48.08 19.9 47.97 17.77 46.66 17.33 46.77"/>
            <polygon class="cls-69" points="19.08 39.78 16.4 38.13 15.95 38.24 18.63 39.89 19.08 39.78"/>
            <polygon class="cls-60" points="19.12 40.19 21.84 41.86 22.28 41.75 19.57 40.08 19.12 40.19"/>
            <polygon class="cls-158" points="21.41 31.24 18.17 29.25 17.72 29.35 20.96 31.35 21.41 31.24"/>
            <polygon class="cls-153" points="21.89 31.54 21.44 31.64 24.71 33.65 25.15 33.55 21.89 31.54"/>
            <polygon class="cls-152" points="11.75 67.25 12.01 68.81 12.46 68.7 12.2 67.14 11.75 67.25"/>
            <polygon class="cls-151" points="11.61 63.6 11.16 63.7 11.54 65.95 11.99 65.84 11.61 63.6"/>
            <polygon class="cls-155" points="12.53 57.9 12.08 58.01 12.94 60.78 13.39 60.68 12.53 57.9"/>
            <polygon class="cls-157" points="13.25 61.74 13.89 63.78 14.34 63.67 13.7 61.64 13.25 61.74"/>
            <polygon class="cls-149" points="13.81 52.57 13.37 52.67 14.45 55.27 14.89 55.16 13.81 52.57"/>
            <polygon class="cls-154" points="14.79 56.09 15.82 58.57 16.27 58.46 15.24 55.98 14.79 56.09"/>
            <polygon class="cls-140" points="16.39 49.68 14.78 46.16 14.33 46.27 15.94 49.79 16.39 49.68"/>
            <polygon class="cls-150" points="16.3 50.57 17.68 53.59 18.12 53.49 16.75 50.47 16.3 50.57"/>
            <polygon class="cls-132" points="18.1 43.39 16.19 39.34 15.74 39.45 17.65 43.49 18.1 43.39"/>
            <polygon class="cls-146" points="18.04 44.3 19.76 47.96 20.21 47.85 18.49 44.2 18.04 44.3"/>
            <polygon class="cls-122" points="20.18 35.75 17.85 30.39 17.4 30.49 19.73 35.86 20.18 35.75"/>
            <polygon class="cls-122" points="20.17 36.85 22.18 41.47 22.63 41.37 20.62 36.75 20.17 36.85"/>
            <polygon class="cls-142" points="22.47 27.33 19.63 21.81 19.18 21.91 22.02 27.44 22.47 27.33"/>
            <polygon class="cls-147" points="22.96 28.27 22.51 28.37 25.15 33.51 25.6 33.4 22.96 28.27"/>
            <polygon class="cls-145" points="10.19 72.99 10.64 72.88 11.46 69.85 11.01 69.96 10.19 72.99"/>
            <polygon class="cls-141" points="11.32 68.81 11.77 68.71 12.04 67.72 11.59 67.82 11.32 68.81"/>
            <polygon class="cls-156" points="12.01 66.28 12.46 66.17 12.94 64.42 12.49 64.52 12.01 66.28"/>
            <polygon class="cls-144" points="13.42 61.1 13.87 61 14.4 59.06 13.95 59.16 13.42 61.1"/>
            <polygon class="cls-143" points="14.26 58.02 14.71 57.91 15.13 56.39 14.68 56.49 14.26 58.02"/>
            <polygon class="cls-148" points="14.92 55.59 15.37 55.48 15.83 53.81 15.38 53.91 14.92 55.59"/>
            <polygon class="cls-135" points="15.69 52.77 16.14 52.66 16.61 50.92 16.17 51.02 15.69 52.77"/>
            <polygon class="cls-134" points="16.41 50.11 16.86 50 17.46 47.81 17.01 47.92 16.41 50.11"/>
            <polygon class="cls-138" points="17.33 46.77 17.77 46.66 18.32 44.64 17.87 44.75 17.33 46.77"/>
            <polygon class="cls-136" points="18.13 43.82 18.57 43.72 19.25 41.22 18.8 41.33 18.13 43.82"/>
            <polygon class="cls-122" points="19.12 40.19 19.57 40.08 20.33 37.27 19.88 37.37 19.12 40.19"/>
            <polygon class="cls-122" points="20.2 36.19 20.65 36.08 21.58 32.68 21.13 32.79 20.2 36.19"/>
            <polygon class="cls-133" points="21.44 31.64 21.89 31.54 22.66 28.71 22.21 28.81 21.44 31.64"/>
            <polygon class="cls-137" points="23.39 24.5 22.5 27.76 22.95 27.65 23.83 24.39 23.39 24.5"/>
            <polygon class="cls-117" points="22.5 27.76 22.95 27.65 27.59 26.71 27.14 26.81 22.5 27.76"/>
            <g>
              <polygon class="cls-122" points="28.87 26.5 29.32 26.39 11.58 74.02 11.13 74.13 28.87 26.5"/>
              <polygon class="cls-131" points="28.87 26.5 29.32 26.39 11.58 74.02 11.13 74.13 28.87 26.5"/>
            </g>
            <path class="cls-107" d="m28.87,26.5l-17.74,47.63-.18.66-2.98,7.81-.33-.25-.07.39-.76-.85,11.22-61.9,10.84,6.52Zm-10.26-4.67l-1.26,6.97,4.39-.9-3.13-6.07m6.53,11.67l2.29-6.14-4.93,1,2.64,5.13m-8.15-2.75l-1.25,6.89,3.72-1.22-2.47-5.67m5.18,10.72l2.24-6-4.25,1.38,2.01,4.62m-7.73,3.33l3.07-.82-2.1-4.46-.97,5.28m5.32,3.16l1.71-4.57-3.43.91,1.73,3.66m3.62-23.46l-.89,3.26,4.64-.95-3.76-2.31m-1.36,2.94l.88-3.24-3.72-2.29,2.84,5.53m-.89,5.35l-.93,3.4,4.22-1.37-3.29-2.02m-1.4,3.07l.92-3.37-3.25-2,2.33,5.36m-3.93,14.43v-.04s-1.67-3.68-1.67-3.68l-.81,4.45,2.48-.73m6.41-21.48l-.77,2.83,3.26,2.01-2.49-4.84m-1.25,2.53l.76-2.81-4,.82,3.24,1.99m-3.28,22.25l1.43-3.84-2.8.82,1.38,3.02m2.21-16.22l-.77,2.81,2.72,1.67-1.95-4.48m-1.25,2.51l.76-2.78-3.44,1.13,2.68,1.65m-4.34,15.93l.04-.14-1.29-3.1-.72,3.96,1.97-.72m4.51-14.48l-.68,2.49,3.29-.89-2.61-1.61m-1.15,2.16l.67-2.46-2.58-1.59,1.91,4.05m-1.83,15.07l1.26-3.38-2.26.81-.03.1,1.03,2.48m.6-8.46l2.82-.82-2.23-1.37-.6,2.19m-3.66,11.37l.05-.19-.85-2.72-.68,3.73,1.48-.82m3.18-11.69l.59-2.17-2.2-1.35,1.61,3.52m1.94-5.04l-.55,2.02,2.13,1.31-1.58-3.33m-3.99,19.03l1.16-3.14-1.77.99-.03.12.64,2.03m2.95-17.31l.54-1.98-2.63.69,2.09,1.29m-5.58,20.5l.12-.44-.42-2.51-.7,3.87,1-.92m4.43-14.2l1.77,1.09-1.29-2.83-.47,1.74m-.48-.3l.47-1.71-2.2.64,1.73,1.07m-3.19,16.34l1.18-3.18-1.34,1.23-.1.38.26,1.56m.93-8.02l.52-1.92-1.39-.86.87,2.77m2.44-6.87l-.46,1.68,2.01-.72-1.56-.96m-.12,6.18l.04-.1-1.35-.83-.53,1.94,1.84-1.01m-.81-4.82l.45-1.66-1.53-.94,1.08,2.6m-.18,2.75l1.41.87-.99-2.39-.42,1.53m-.48-.3l.41-1.5-1.79.65,1.38.85m-4.07,14.97l.82-3.03-.53-.32-.58,3.18.28.17m2.79-8.17l-.48,1.75,1.33-1.23-.85-.53m-.95,1.42l.47-1.72-.84-.52.38,2.24m-1.13,7.18l1.07-2.88-.47-.29-.82,3.03.22.14m2.7-10.87l-.31,1.12.81.5-.5-1.62m-.79.82l.3-1.09-1.08.61.78.48m-1,5.73l.48.3-.21-1.29-.27.99m-.48-.3l.26-.96-.73.67.47.29m-2.07,7.59l.62-2.28-.18-.11-.43,2.39m.69-.44l.54-1.46-.12-.08-.42,1.54m6-36.38h0s0-.02,0-.02v.02"/>
            <polygon class="cls-119" points="18.03 19.98 18.48 19.88 29.32 26.39 28.87 26.5 18.03 19.98"/>
          </g>
          <polygon class="cls-120" points="17.04 30.33 17.43 30.55 22.18 41.47 21.99 41.92 21.84 41.86 17 30.76 17.04 30.33"/>
          <polygon class="cls-120" points="15.75 37.64 24.42 34.81 24.66 35.01 24.4 35.59 15.88 38.26 15.62 38.13 15.75 37.64"/>
          <polygon class="cls-120" points="20.63 32.56 21.13 32.79 19.12 40.19 18.61 39.97 20.63 32.56"/>
        </g>
        <g class="cls-160">
          <polygon class="cls-139" points="124.9 69.63 124.88 75.21 116.28 80.21 116.3 74.63 124.9 69.63"/>
          <polygon class="cls-106" points="116.3 74.63 116.28 80.21 15.3 21.9 15.32 16.33 116.3 74.63"/>
          <polygon class="cls-108" points="124.9 69.63 116.3 74.63 15.32 16.33 23.92 11.33 124.9 69.63"/>
        </g>
      </g>
    </g>
  </g>
</svg>