<?xml version="1.0" encoding="UTF-8"?>
<svg id="_图层_2" data-name="图层 2" xmlns="http://www.w3.org/2000/svg" xmlns:xlink="http://www.w3.org/1999/xlink" viewBox="0 0 150 150">
  <defs>
    <style>
      .cls-1 {
        fill: url(#_未命名的渐变_13);
      }

      .cls-1, .cls-2, .cls-3, .cls-4, .cls-5, .cls-6, .cls-7, .cls-8, .cls-9, .cls-10, .cls-11, .cls-12, .cls-13, .cls-14, .cls-15, .cls-16, .cls-17, .cls-18, .cls-19, .cls-20, .cls-21, .cls-22, .cls-23, .cls-24, .cls-25, .cls-26, .cls-27, .cls-28, .cls-29, .cls-30, .cls-31, .cls-32, .cls-33, .cls-34, .cls-35, .cls-36, .cls-37, .cls-38, .cls-39, .cls-40, .cls-41, .cls-42, .cls-43, .cls-44, .cls-45, .cls-46, .cls-47, .cls-48, .cls-49, .cls-50, .cls-51, .cls-52, .cls-53, .cls-54, .cls-55, .cls-56, .cls-57, .cls-58, .cls-59, .cls-60 {
        stroke-width: 0px;
      }

      .cls-2 {
        fill: url(#_未命名的渐变_10);
      }

      .cls-3 {
        fill: url(#_未命名的渐变_1827-13);
      }

      .cls-4 {
        fill: url(#_未命名的渐变_1827-19);
      }

      .cls-5 {
        fill: url(#_未命名的渐变_1827-18);
      }

      .cls-6 {
        fill: url(#_未命名的渐变_1827-16);
      }

      .cls-7 {
        fill: url(#_未命名的渐变_1827-10);
      }

      .cls-8 {
        fill: url(#_未命名的渐变_1827-11);
      }

      .cls-9 {
        fill: url(#_未命名的渐变_1827-17);
      }

      .cls-10 {
        fill: url(#_未命名的渐变_1827-15);
      }

      .cls-11 {
        fill: url(#_未命名的渐变_1827-14);
      }

      .cls-12 {
        fill: url(#_未命名的渐变_1827-12);
      }

      .cls-13 {
        fill: url(#_未命名的渐变_1827-20);
      }

      .cls-14 {
        fill: url(#_未命名的渐变_1827-22);
      }

      .cls-15 {
        fill: url(#_未命名的渐变_1827-24);
      }

      .cls-16 {
        fill: url(#_未命名的渐变_1827-26);
      }

      .cls-17 {
        fill: url(#_未命名的渐变_1827-25);
      }

      .cls-18 {
        fill: url(#_未命名的渐变_1827-21);
      }

      .cls-19 {
        fill: url(#_未命名的渐变_1827-23);
      }

      .cls-20, .cls-61 {
        fill: none;
      }

      .cls-21 {
        fill: url(#_未命名的渐变_1827-7);
      }

      .cls-22 {
        fill: url(#_未命名的渐变_1827-5);
      }

      .cls-23 {
        fill: url(#_未命名的渐变_1827-2);
      }

      .cls-24 {
        fill: url(#_未命名的渐变_1827-3);
      }

      .cls-25 {
        fill: url(#_未命名的渐变_1827-4);
      }

      .cls-26 {
        fill: url(#_未命名的渐变_1827-6);
      }

      .cls-27 {
        fill: url(#_未命名的渐变_1827-9);
      }

      .cls-28 {
        fill: url(#_未命名的渐变_1827-8);
      }

      .cls-61 {
        stroke: #fff;
        stroke-miterlimit: 10;
        stroke-width: .1px;
      }

      .cls-29 {
        fill: url(#_未命名的渐变_10-9);
      }

      .cls-30 {
        fill: url(#_未命名的渐变_10-6);
      }

      .cls-31 {
        fill: url(#_未命名的渐变_10-7);
      }

      .cls-32 {
        fill: url(#_未命名的渐变_10-8);
      }

      .cls-33 {
        fill: url(#_未命名的渐变_10-4);
      }

      .cls-34 {
        fill: url(#_未命名的渐变_10-5);
      }

      .cls-35 {
        fill: url(#_未命名的渐变_10-2);
      }

      .cls-36 {
        fill: url(#_未命名的渐变_10-3);
      }

      .cls-37 {
        fill: url(#_未命名的渐变_13-2);
      }

      .cls-38 {
        fill: url(#_未命名的渐变_1827);
      }

      .cls-39 {
        fill: url(#_未命名的渐变_10-10);
      }

      .cls-40 {
        fill: url(#_未命名的渐变_10-17);
      }

      .cls-41 {
        fill: url(#_未命名的渐变_10-11);
      }

      .cls-42 {
        fill: url(#_未命名的渐变_10-16);
      }

      .cls-43 {
        fill: url(#_未命名的渐变_10-18);
      }

      .cls-44 {
        fill: url(#_未命名的渐变_10-19);
      }

      .cls-45 {
        fill: url(#_未命名的渐变_10-22);
      }

      .cls-46 {
        fill: url(#_未命名的渐变_10-20);
      }

      .cls-47 {
        fill: url(#_未命名的渐变_10-21);
      }

      .cls-48 {
        fill: url(#_未命名的渐变_10-23);
      }

      .cls-49 {
        fill: url(#_未命名的渐变_10-26);
      }

      .cls-50 {
        fill: url(#_未命名的渐变_10-25);
      }

      .cls-51 {
        fill: url(#_未命名的渐变_10-24);
      }

      .cls-52 {
        fill: url(#_未命名的渐变_10-14);
      }

      .cls-53 {
        fill: url(#_未命名的渐变_10-12);
      }

      .cls-54 {
        fill: url(#_未命名的渐变_10-15);
      }

      .cls-55 {
        fill: url(#_未命名的渐变_10-13);
      }

      .cls-62 {
        filter: url(#drop-shadow-1);
      }

      .cls-56 {
        fill: url(#_新建图案);
        opacity: .1;
      }

      .cls-63 {
        isolation: isolate;
      }

      .cls-64 {
        opacity: 0;
      }

      .cls-58 {
        fill: #171d23;
      }

      .cls-59 {
        fill: #6680ae;
      }

      .cls-60 {
        fill: #000714;
      }
    </style>
    <pattern id="_新建图案" data-name="新建图案" x="0" y="0" width="18.57" height="32.16" patternTransform="translate(2993.24 598.79)" patternUnits="userSpaceOnUse" viewBox="0 0 18.57 32.16">
      <g>
        <rect class="cls-20" x="0" y="0" width="18.57" height="32.16"/>
        <g>
          <g>
            <polyline class="cls-61" points="18.57 21.44 18.57 32.16 18.57 42.88"/>
            <polyline class="cls-61" points="9.29 26.8 18.57 32.16 27.85 37.51 27.85 37.52"/>
            <polyline class="cls-61" points="9.29 37.52 9.29 37.51 18.57 32.16 27.85 26.8"/>
          </g>
          <polygon class="cls-61" points="27.85 37.52 27.85 26.8 18.57 21.44 9.28 26.8 9.28 37.52 18.57 42.88 27.85 37.52"/>
        </g>
        <g>
          <g>
            <polyline class="cls-61" points="0 21.44 0 32.16 0 42.88"/>
            <polyline class="cls-61" points="-9.28 26.8 0 32.16 9.28 37.51 9.28 37.52"/>
            <polyline class="cls-61" points="-9.28 37.52 -9.28 37.51 0 32.16 9.28 26.8"/>
          </g>
          <polygon class="cls-61" points="9.28 37.52 9.28 26.8 0 21.44 -9.28 26.8 -9.28 37.52 0 42.88 9.28 37.52"/>
        </g>
        <g>
          <g>
            <polyline class="cls-61" points="18.57 10.72 27.85 16.08 37.13 21.43 37.13 21.44"/>
            <polyline class="cls-61" points="18.57 21.44 18.57 21.43 27.85 16.08 37.13 10.72"/>
          </g>
          <polygon class="cls-61" points="37.14 21.44 37.14 10.72 27.85 5.36 18.57 10.72 18.57 21.44 27.85 26.8 37.14 21.44"/>
        </g>
        <g>
          <g>
            <polyline class="cls-61" points="9.28 5.36 9.28 16.08 9.28 26.8"/>
            <polyline class="cls-61" points="0 10.72 9.28 16.08 18.56 21.43 18.56 21.44"/>
            <polyline class="cls-61" points="0 21.44 0 21.43 9.28 16.08 18.56 10.72"/>
          </g>
          <polygon class="cls-61" points="18.57 21.44 18.57 10.72 9.28 5.36 0 10.72 0 21.44 9.28 26.8 18.57 21.44"/>
        </g>
        <g>
          <g>
            <polyline class="cls-61" points="-18.56 10.72 -9.28 16.08 0 21.43 0 21.44"/>
            <polyline class="cls-61" points="-18.56 21.44 -18.56 21.43 -9.28 16.08 0 10.72"/>
          </g>
          <polygon class="cls-61" points="0 21.44 0 10.72 -9.28 5.36 -18.57 10.72 -18.57 21.44 -9.28 26.8 0 21.44"/>
        </g>
        <g>
          <g>
            <polyline class="cls-61" points="18.57 -10.72 18.57 0 18.57 10.72"/>
            <polyline class="cls-61" points="9.29 -5.36 18.57 0 27.85 5.35 27.85 5.36"/>
            <polyline class="cls-61" points="9.29 5.36 9.29 5.35 18.57 0 27.85 -5.36"/>
          </g>
          <polygon class="cls-61" points="27.85 5.36 27.85 -5.36 18.57 -10.72 9.28 -5.36 9.28 5.36 18.57 10.72 27.85 5.36"/>
        </g>
        <g>
          <g>
            <polyline class="cls-61" points="0 -10.72 0 0 0 10.72"/>
            <polyline class="cls-61" points="-9.28 -5.36 0 0 9.28 5.35 9.28 5.36"/>
            <polyline class="cls-61" points="-9.28 5.36 -9.28 5.35 0 0 9.28 -5.36"/>
          </g>
          <polygon class="cls-61" points="9.28 5.36 9.28 -5.36 0 -10.72 -9.28 -5.36 -9.28 5.36 0 10.72 9.28 5.36"/>
        </g>
      </g>
    </pattern>
    <linearGradient id="_未命名的渐变_10" data-name="未命名的渐变 10" x1="98.41" y1="143.5" x2="108.14" y2="143.5" gradientUnits="userSpaceOnUse">
      <stop offset="0" stop-color="#283140"/>
      <stop offset="1" stop-color="#12161a"/>
    </linearGradient>
    <linearGradient id="_未命名的渐变_13" data-name="未命名的渐变 13" x1="41.88" y1="123.71" x2="108.14" y2="123.71" gradientUnits="userSpaceOnUse">
      <stop offset="0" stop-color="#88aae5"/>
      <stop offset="1" stop-color="#547098"/>
    </linearGradient>
    <filter id="drop-shadow-1" filterUnits="userSpaceOnUse">
      <feOffset dx="0" dy=".25"/>
      <feGaussianBlur result="blur" stdDeviation="0"/>
      <feFlood flood-color="#e5efff" flood-opacity="1"/>
      <feComposite in2="blur" operator="in"/>
      <feComposite in="SourceGraphic"/>
    </filter>
    <linearGradient id="_未命名的渐变_1827" data-name="未命名的渐变 1827" x1="70.15" y1="149.79" x2="70.15" y2="110.2" gradientUnits="userSpaceOnUse">
      <stop offset="0" stop-color="#425266"/>
      <stop offset="1" stop-color="#596b8b"/>
    </linearGradient>
    <linearGradient id="_未命名的渐变_1827-2" data-name="未命名的渐变 1827" x1="51.85" y1="110.8" x2="98.14" y2="30.62" xlink:href="#_未命名的渐变_1827"/>
    <linearGradient id="_未命名的渐变_1827-3" data-name="未命名的渐变 1827" x1="47.71" y1="54.64" x2="46.53" y2="54.64" xlink:href="#_未命名的渐变_1827"/>
    <linearGradient id="_未命名的渐变_10-2" data-name="未命名的渐变 10" x1="47.41" y1="54.49" x2="49.1" y2="54.49" xlink:href="#_未命名的渐变_10"/>
    <linearGradient id="_未命名的渐变_1827-4" data-name="未命名的渐变 1827" x1="49.97" y1="55.95" x2="48.79" y2="55.95" xlink:href="#_未命名的渐变_1827"/>
    <linearGradient id="_未命名的渐变_10-3" data-name="未命名的渐变 10" x1="49.67" y1="55.8" x2="51.36" y2="55.8" xlink:href="#_未命名的渐变_10"/>
    <linearGradient id="_未命名的渐变_1827-5" data-name="未命名的渐变 1827" x1="52.28" y1="57.26" x2="51.1" y2="57.26" xlink:href="#_未命名的渐变_1827"/>
    <linearGradient id="_未命名的渐变_10-4" data-name="未命名的渐变 10" x1="51.98" y1="57.11" x2="53.67" y2="57.11" xlink:href="#_未命名的渐变_10"/>
    <linearGradient id="_未命名的渐变_1827-6" data-name="未命名的渐变 1827" x1="54.54" y1="58.58" x2="53.36" y2="58.58" xlink:href="#_未命名的渐变_1827"/>
    <linearGradient id="_未命名的渐变_10-5" data-name="未命名的渐变 10" x1="54.24" y1="58.43" x2="55.93" y2="58.43" xlink:href="#_未命名的渐变_10"/>
    <linearGradient id="_未命名的渐变_1827-7" data-name="未命名的渐变 1827" x1="56.77" y1="59.89" x2="55.59" y2="59.89" xlink:href="#_未命名的渐变_1827"/>
    <linearGradient id="_未命名的渐变_10-6" data-name="未命名的渐变 10" x1="56.47" y1="59.74" x2="58.15" y2="59.74" xlink:href="#_未命名的渐变_10"/>
    <linearGradient id="_未命名的渐变_1827-8" data-name="未命名的渐变 1827" x1="59.02" y1="61.2" x2="57.84" y2="61.2" xlink:href="#_未命名的渐变_1827"/>
    <linearGradient id="_未命名的渐变_10-7" data-name="未命名的渐变 10" x1="58.72" y1="61.05" x2="60.41" y2="61.05" xlink:href="#_未命名的渐变_10"/>
    <linearGradient id="_未命名的渐变_1827-9" data-name="未命名的渐变 1827" x1="61.36" y1="62.52" x2="60.18" y2="62.52" xlink:href="#_未命名的渐变_1827"/>
    <linearGradient id="_未命名的渐变_10-8" data-name="未命名的渐变 10" x1="61.06" y1="62.37" x2="62.75" y2="62.37" xlink:href="#_未命名的渐变_10"/>
    <linearGradient id="_未命名的渐变_1827-10" data-name="未命名的渐变 1827" x1="63.62" y1="63.83" x2="62.44" y2="63.83" xlink:href="#_未命名的渐变_1827"/>
    <linearGradient id="_未命名的渐变_10-9" data-name="未命名的渐变 10" x1="63.32" y1="63.68" x2="65" y2="63.68" xlink:href="#_未命名的渐变_10"/>
    <linearGradient id="_未命名的渐变_1827-11" data-name="未命名的渐变 1827" x1="65.93" y1="65.14" x2="64.75" y2="65.14" xlink:href="#_未命名的渐变_1827"/>
    <linearGradient id="_未命名的渐变_10-10" data-name="未命名的渐变 10" x1="65.63" y1="65" x2="67.31" y2="65" xlink:href="#_未命名的渐变_10"/>
    <linearGradient id="_未命名的渐变_1827-12" data-name="未命名的渐变 1827" x1="68.19" y1="66.46" x2="67.01" y2="66.46" xlink:href="#_未命名的渐变_1827"/>
    <linearGradient id="_未命名的渐变_10-11" data-name="未命名的渐变 10" x1="67.88" y1="66.31" x2="69.57" y2="66.31" xlink:href="#_未命名的渐变_10"/>
    <linearGradient id="_未命名的渐变_1827-13" data-name="未命名的渐变 1827" x1="70.41" y1="67.77" x2="69.23" y2="67.77" xlink:href="#_未命名的渐变_1827"/>
    <linearGradient id="_未命名的渐变_10-12" data-name="未命名的渐变 10" x1="70.11" y1="67.62" x2="71.8" y2="67.62" xlink:href="#_未命名的渐变_10"/>
    <linearGradient id="_未命名的渐变_1827-14" data-name="未命名的渐变 1827" x1="72.67" y1="69.09" x2="71.49" y2="69.09" xlink:href="#_未命名的渐变_1827"/>
    <linearGradient id="_未命名的渐变_10-13" data-name="未命名的渐变 10" x1="72.37" y1="68.94" x2="74.06" y2="68.94" xlink:href="#_未命名的渐变_10"/>
    <linearGradient id="_未命名的渐变_1827-15" data-name="未命名的渐变 1827" x1="74.9" y1="70.4" x2="73.72" y2="70.4" xlink:href="#_未命名的渐变_1827"/>
    <linearGradient id="_未命名的渐变_10-14" data-name="未命名的渐变 10" x1="74.6" y1="70.25" x2="76.29" y2="70.25" xlink:href="#_未命名的渐变_10"/>
    <linearGradient id="_未命名的渐变_1827-16" data-name="未命名的渐变 1827" x1="77.16" y1="71.71" x2="75.98" y2="71.71" xlink:href="#_未命名的渐变_1827"/>
    <linearGradient id="_未命名的渐变_10-15" data-name="未命名的渐变 10" x1="76.86" y1="71.56" x2="78.55" y2="71.56" xlink:href="#_未命名的渐变_10"/>
    <linearGradient id="_未命名的渐变_1827-17" data-name="未命名的渐变 1827" x1="79.47" y1="73.03" x2="78.29" y2="73.03" xlink:href="#_未命名的渐变_1827"/>
    <linearGradient id="_未命名的渐变_10-16" data-name="未命名的渐变 10" x1="79.17" y1="72.88" x2="80.86" y2="72.88" xlink:href="#_未命名的渐变_10"/>
    <linearGradient id="_未命名的渐变_1827-18" data-name="未命名的渐变 1827" x1="81.73" y1="74.34" x2="80.55" y2="74.34" xlink:href="#_未命名的渐变_1827"/>
    <linearGradient id="_未命名的渐变_10-17" data-name="未命名的渐变 10" x1="81.43" y1="74.19" x2="83.12" y2="74.19" xlink:href="#_未命名的渐变_10"/>
    <linearGradient id="_未命名的渐变_1827-19" data-name="未命名的渐变 1827" x1="83.96" y1="75.65" x2="82.78" y2="75.65" xlink:href="#_未命名的渐变_1827"/>
    <linearGradient id="_未命名的渐变_10-18" data-name="未命名的渐变 10" x1="83.66" y1="75.51" x2="85.34" y2="75.51" xlink:href="#_未命名的渐变_10"/>
    <linearGradient id="_未命名的渐变_1827-20" data-name="未命名的渐变 1827" x1="86.21" y1="76.97" x2="85.04" y2="76.97" xlink:href="#_未命名的渐变_1827"/>
    <linearGradient id="_未命名的渐变_10-19" data-name="未命名的渐变 10" x1="85.91" y1="76.82" x2="87.6" y2="76.82" xlink:href="#_未命名的渐变_10"/>
    <linearGradient id="_未命名的渐变_1827-21" data-name="未命名的渐变 1827" x1="88.4" y1="78.08" x2="87.22" y2="78.08" xlink:href="#_未命名的渐变_1827"/>
    <linearGradient id="_未命名的渐变_10-20" data-name="未命名的渐变 10" x1="88.1" y1="77.93" x2="89.79" y2="77.93" xlink:href="#_未命名的渐变_10"/>
    <linearGradient id="_未命名的渐变_1827-22" data-name="未命名的渐变 1827" x1="90.66" y1="79.39" x2="89.48" y2="79.39" xlink:href="#_未命名的渐变_1827"/>
    <linearGradient id="_未命名的渐变_10-21" data-name="未命名的渐变 10" x1="90.36" y1="79.24" x2="92.05" y2="79.24" xlink:href="#_未命名的渐变_10"/>
    <linearGradient id="_未命名的渐变_1827-23" data-name="未命名的渐变 1827" x1="92.97" y1="80.7" x2="91.79" y2="80.7" xlink:href="#_未命名的渐变_1827"/>
    <linearGradient id="_未命名的渐变_10-22" data-name="未命名的渐变 10" x1="92.67" y1="80.55" x2="94.36" y2="80.55" xlink:href="#_未命名的渐变_10"/>
    <linearGradient id="_未命名的渐变_1827-24" data-name="未命名的渐变 1827" x1="95.23" y1="82.02" x2="94.05" y2="82.02" xlink:href="#_未命名的渐变_1827"/>
    <linearGradient id="_未命名的渐变_10-23" data-name="未命名的渐变 10" x1="94.93" y1="81.87" x2="96.62" y2="81.87" xlink:href="#_未命名的渐变_10"/>
    <linearGradient id="_未命名的渐变_1827-25" data-name="未命名的渐变 1827" x1="97.46" y1="83.33" x2="96.28" y2="83.33" xlink:href="#_未命名的渐变_1827"/>
    <linearGradient id="_未命名的渐变_10-24" data-name="未命名的渐变 10" x1="97.16" y1="83.18" x2="98.84" y2="83.18" xlink:href="#_未命名的渐变_10"/>
    <linearGradient id="_未命名的渐变_1827-26" data-name="未命名的渐变 1827" x1="99.71" y1="84.64" x2="98.54" y2="84.64" xlink:href="#_未命名的渐变_1827"/>
    <linearGradient id="_未命名的渐变_10-25" data-name="未命名的渐变 10" x1="99.41" y1="84.5" x2="101.1" y2="84.5" xlink:href="#_未命名的渐变_10"/>
    <linearGradient id="_未命名的渐变_10-26" data-name="未命名的渐变 10" x1="102.28" y1="86.63" x2="103.97" y2="86.63" xlink:href="#_未命名的渐变_10"/>
    <linearGradient id="_未命名的渐变_13-2" data-name="未命名的渐变 13" x1="46.03" y1="16.94" x2="103.97" y2="16.94" xlink:href="#_未命名的渐变_13"/>
  </defs>
  <g id="_图元" data-name="图元">
    <g id="_除尘板" data-name="除尘板">
      <g id="_背景" data-name="背景" class="cls-64">
        <rect class="cls-60" width="150" height="150"/>
        <rect id="_网格" data-name="网格" class="cls-56" width="150" height="150"/>
      </g>
      <g>
        <g>
          <polygon class="cls-2" points="98.43 142.85 108.14 137.21 108.12 144.14 98.41 149.79 98.43 142.85"/>
          <polygon class="cls-1" points="41.88 110.2 51.59 104.56 108.14 137.21 98.43 142.85 41.88 110.2"/>
          <g class="cls-62">
            <polygon class="cls-58" points="45.94 108.11 46.48 107.39 103.03 140.04 102.48 140.75 45.94 108.11"/>
          </g>
          <path class="cls-38" d="m41.88,110.2l-.02,6.94,56.55,32.65.02-6.94-56.55-32.65Zm6.69,8.94l-3.25-1.88v-2.26s3.26,1.88,3.26,1.88v2.26Zm6.22,3.2l-3.25-1.88v-2.26s3.26,1.88,3.26,1.88v2.26Zm6.86,4.14l-3.25-1.88v-2.26s3.26,1.88,3.26,1.88v2.26Zm6.22,3.38l-3.25-1.88v-2.26s3.26,1.88,3.26,1.88v2.26Zm6.22,3.2l-3.25-1.88v-2.26s3.26,1.88,3.26,1.88v2.26Zm6.86,4.14l-3.25-1.88v-2.26s3.26,1.88,3.26,1.88v2.26Zm6.35,4.04l-3.25-1.88v-2.26s3.26,1.88,3.26,1.88v2.26Zm6.22,3.2l-3.25-1.88v-2.26s3.26,1.88,3.26,1.88v2.26Z"/>
          <polygon class="cls-23" points="103.43 33.67 103.13 140.4 46.57 107.75 46.87 1.02 103.43 33.67"/>
          <g class="cls-63">
            <polygon class="cls-24" points="46.83 1.47 46.53 107.3 47.41 107.8 47.71 1.97 46.83 1.47"/>
            <polygon class="cls-35" points="47.71 1.97 47.41 107.8 48.8 107 49.1 1.17 47.71 1.97"/>
            <polygon class="cls-59" points="46.83 1.47 48.22 .66 49.1 1.17 47.71 1.97 46.83 1.47"/>
          </g>
          <g class="cls-63">
            <polygon class="cls-25" points="49.09 2.78 48.79 108.61 49.67 109.12 49.97 3.29 49.09 2.78"/>
            <polygon class="cls-36" points="49.97 3.29 49.67 109.12 51.06 108.31 51.36 2.48 49.97 3.29"/>
            <polygon class="cls-59" points="49.09 2.78 50.48 1.97 51.36 2.48 49.97 3.29 49.09 2.78"/>
          </g>
          <g class="cls-63">
            <polygon class="cls-22" points="51.4 4.09 51.1 109.92 51.98 110.43 52.28 4.6 51.4 4.09"/>
            <polygon class="cls-33" points="52.28 4.6 51.98 110.43 53.37 109.63 53.67 3.79 52.28 4.6"/>
            <polygon class="cls-59" points="51.4 4.09 52.79 3.29 53.67 3.79 52.28 4.6 51.4 4.09"/>
          </g>
          <g class="cls-63">
            <polygon class="cls-26" points="53.66 5.41 53.36 111.24 54.24 111.75 54.54 5.91 53.66 5.41"/>
            <polygon class="cls-34" points="54.54 5.91 54.24 111.75 55.63 110.94 55.93 5.11 54.54 5.91"/>
            <polygon class="cls-59" points="53.66 5.41 55.05 4.6 55.93 5.11 54.54 5.91 53.66 5.41"/>
          </g>
          <g class="cls-63">
            <polygon class="cls-21" points="55.89 6.72 55.59 112.55 56.47 113.06 56.77 7.23 55.89 6.72"/>
            <polygon class="cls-30" points="56.77 7.23 56.47 113.06 57.85 112.25 58.15 6.42 56.77 7.23"/>
            <polygon class="cls-59" points="55.89 6.72 57.27 5.91 58.15 6.42 56.77 7.23 55.89 6.72"/>
          </g>
          <g class="cls-63">
            <polygon class="cls-28" points="58.14 8.03 57.84 113.87 58.72 114.37 59.02 8.54 58.14 8.03"/>
            <polygon class="cls-31" points="59.02 8.54 58.72 114.37 60.11 113.57 60.41 7.74 59.02 8.54"/>
            <polygon class="cls-59" points="58.14 8.03 59.53 7.23 60.41 7.74 59.02 8.54 58.14 8.03"/>
          </g>
          <g class="cls-63">
            <polygon class="cls-27" points="60.48 9.35 60.18 115.18 61.06 115.69 61.36 9.86 60.48 9.35"/>
            <polygon class="cls-32" points="61.36 9.86 61.06 115.69 62.45 114.88 62.75 9.05 61.36 9.86"/>
            <polygon class="cls-59" points="60.48 9.35 61.87 8.54 62.75 9.05 61.36 9.86 60.48 9.35"/>
          </g>
          <g class="cls-63">
            <polygon class="cls-7" points="62.74 10.66 62.44 116.49 63.32 117 63.62 11.17 62.74 10.66"/>
            <polygon class="cls-29" points="63.62 11.17 63.32 117 64.7 116.19 65 10.36 63.62 11.17"/>
            <polygon class="cls-59" points="62.74 10.66 64.12 9.86 65 10.36 63.62 11.17 62.74 10.66"/>
          </g>
          <g class="cls-63">
            <polygon class="cls-8" points="65.05 11.97 64.75 117.81 65.63 118.31 65.93 12.48 65.05 11.97"/>
            <polygon class="cls-39" points="65.93 12.48 65.63 118.31 67.01 117.51 67.31 11.68 65.93 12.48"/>
            <polygon class="cls-59" points="65.05 11.97 66.44 11.17 67.31 11.68 65.93 12.48 65.05 11.97"/>
          </g>
          <g class="cls-63">
            <polygon class="cls-12" points="67.31 13.29 67.01 119.12 67.88 119.63 68.19 13.8 67.31 13.29"/>
            <polygon class="cls-41" points="68.19 13.8 67.88 119.63 69.27 118.82 69.57 12.99 68.19 13.8"/>
            <polygon class="cls-59" points="67.31 13.29 68.69 12.48 69.57 12.99 68.19 13.8 67.31 13.29"/>
          </g>
          <g class="cls-63">
            <polygon class="cls-3" points="69.53 14.6 69.23 120.43 70.11 120.94 70.41 15.11 69.53 14.6"/>
            <polygon class="cls-53" points="70.41 15.11 70.11 120.94 71.5 120.14 71.8 14.3 70.41 15.11"/>
            <polygon class="cls-59" points="69.53 14.6 70.92 13.8 71.8 14.3 70.41 15.11 69.53 14.6"/>
          </g>
          <g class="cls-63">
            <polygon class="cls-11" points="71.79 15.92 71.49 121.75 72.37 122.26 72.67 16.42 71.79 15.92"/>
            <polygon class="cls-55" points="72.67 16.42 72.37 122.26 73.76 121.45 74.06 15.62 72.67 16.42"/>
            <polygon class="cls-59" points="71.79 15.92 73.18 15.11 74.06 15.62 72.67 16.42 71.79 15.92"/>
          </g>
          <g class="cls-63">
            <polygon class="cls-10" points="74.02 17.23 73.72 123.06 74.6 123.57 74.9 17.74 74.02 17.23"/>
            <polygon class="cls-52" points="74.9 17.74 74.6 123.57 75.99 122.76 76.29 16.93 74.9 17.74"/>
            <polygon class="cls-59" points="74.02 17.23 75.41 16.42 76.29 16.93 74.9 17.74 74.02 17.23"/>
          </g>
          <g class="cls-63">
            <polygon class="cls-6" points="76.28 18.54 75.98 124.38 76.86 124.88 77.16 19.05 76.28 18.54"/>
            <polygon class="cls-54" points="77.16 19.05 76.86 124.88 78.25 124.08 78.55 18.25 77.16 19.05"/>
            <polygon class="cls-59" points="76.28 18.54 77.67 17.74 78.55 18.25 77.16 19.05 76.28 18.54"/>
          </g>
          <g class="cls-63">
            <polygon class="cls-9" points="78.59 19.86 78.29 125.69 79.17 126.2 79.47 20.36 78.59 19.86"/>
            <polygon class="cls-42" points="79.47 20.36 79.17 126.2 80.56 125.39 80.86 19.56 79.47 20.36"/>
            <polygon class="cls-59" points="78.59 19.86 79.98 19.05 80.86 19.56 79.47 20.36 78.59 19.86"/>
          </g>
          <g class="cls-63">
            <polygon class="cls-5" points="80.85 21.17 80.55 127 81.43 127.51 81.73 21.68 80.85 21.17"/>
            <polygon class="cls-40" points="81.73 21.68 81.43 127.51 82.82 126.7 83.12 20.87 81.73 21.68"/>
            <polygon class="cls-59" points="80.85 21.17 82.24 20.36 83.12 20.87 81.73 21.68 80.85 21.17"/>
          </g>
          <g class="cls-63">
            <polygon class="cls-4" points="83.08 22.48 82.78 128.32 83.66 128.82 83.96 22.99 83.08 22.48"/>
            <polygon class="cls-43" points="83.96 22.99 83.66 128.82 85.04 128.02 85.34 22.19 83.96 22.99"/>
            <polygon class="cls-59" points="83.08 22.48 84.47 21.68 85.34 22.19 83.96 22.99 83.08 22.48"/>
          </g>
          <g class="cls-63">
            <polygon class="cls-13" points="85.34 23.8 85.04 129.63 85.91 130.14 86.21 24.31 85.34 23.8"/>
            <polygon class="cls-44" points="86.21 24.31 85.91 130.14 87.3 129.33 87.6 23.5 86.21 24.31"/>
            <polygon class="cls-59" points="85.34 23.8 86.72 22.99 87.6 23.5 86.21 24.31 85.34 23.8"/>
          </g>
          <g class="cls-63">
            <polygon class="cls-18" points="87.52 24.91 87.22 130.74 88.1 131.25 88.4 25.41 87.52 24.91"/>
            <polygon class="cls-46" points="88.4 25.41 88.1 131.25 89.49 130.44 89.79 24.61 88.4 25.41"/>
            <polygon class="cls-59" points="87.52 24.91 88.91 24.1 89.79 24.61 88.4 25.41 87.52 24.91"/>
          </g>
          <g class="cls-63">
            <polygon class="cls-14" points="89.78 26.22 89.48 132.05 90.36 132.56 90.66 26.73 89.78 26.22"/>
            <polygon class="cls-47" points="90.66 26.73 90.36 132.56 91.75 131.75 92.05 25.92 90.66 26.73"/>
            <polygon class="cls-59" points="89.78 26.22 91.17 25.41 92.05 25.92 90.66 26.73 89.78 26.22"/>
          </g>
          <g class="cls-63">
            <polygon class="cls-19" points="92.09 27.53 91.79 133.37 92.67 133.87 92.97 28.04 92.09 27.53"/>
            <polygon class="cls-45" points="92.97 28.04 92.67 133.87 94.06 133.07 94.36 27.24 92.97 28.04"/>
            <polygon class="cls-59" points="92.09 27.53 93.48 26.73 94.36 27.24 92.97 28.04 92.09 27.53"/>
          </g>
          <g class="cls-63">
            <polygon class="cls-15" points="94.35 28.85 94.05 134.68 94.93 135.19 95.23 29.35 94.35 28.85"/>
            <polygon class="cls-48" points="95.23 29.35 94.93 135.19 96.32 134.38 96.62 28.55 95.23 29.35"/>
            <polygon class="cls-59" points="94.35 28.85 95.74 28.04 96.62 28.55 95.23 29.35 94.35 28.85"/>
          </g>
          <g class="cls-63">
            <polygon class="cls-17" points="96.58 30.16 96.28 135.99 97.16 136.5 97.46 30.67 96.58 30.16"/>
            <polygon class="cls-51" points="97.46 30.67 97.16 136.5 98.54 135.69 98.84 29.86 97.46 30.67"/>
            <polygon class="cls-59" points="96.58 30.16 97.96 29.35 98.84 29.86 97.46 30.67 96.58 30.16"/>
          </g>
          <g class="cls-63">
            <polygon class="cls-16" points="98.84 31.47 98.54 137.31 99.41 137.81 99.71 31.98 98.84 31.47"/>
            <polygon class="cls-50" points="99.71 31.98 99.41 137.81 100.8 137.01 101.1 31.18 99.71 31.98"/>
            <polygon class="cls-59" points="98.84 31.47 100.22 30.67 101.1 31.18 99.71 31.98 98.84 31.47"/>
          </g>
          <polygon class="cls-49" points="102.58 33.67 103.97 32.86 103.67 139.59 102.28 140.4 102.58 33.67"/>
          <polygon class="cls-37" points="46.03 1.02 47.42 .21 103.97 32.86 102.58 33.67 46.03 1.02"/>
        </g>
      </g>
    </g>
  </g>
</svg>