<svg xmlns="http://www.w3.org/2000/svg" xmlns:xlink="http://www.w3.org/1999/xlink" viewBox="0 0 150 150"><defs><style>.cls-1,.cls-2{fill:none;}.cls-2{stroke:#fff;stroke-miterlimit:10;stroke-width:0.1px;}.cls-3{opacity:0;}.cls-4{fill:#000714;}.cls-5{opacity:0.1;fill:url(#新建图案);}.cls-6{isolation:isolate;}.cls-7{fill:url(#未命名的渐变_114);}.cls-8{fill:url(#未命名的渐变_1906);}.cls-9{fill:url(#未命名的渐变_45);}.cls-10{fill:url(#未命名的渐变_13);}.cls-11{fill:url(#未命名的渐变_93);}.cls-12{fill:url(#未命名的渐变_98);}.cls-13{fill:url(#未命名的渐变_13-2);}.cls-14{opacity:0.2;}</style><pattern id="新建图案" data-name="新建图案" width="18.57" height="32.16" patternTransform="translate(13.32 294.35)" patternUnits="userSpaceOnUse" viewBox="0 0 18.57 32.16"><rect class="cls-1" width="18.57" height="32.16"/><polyline class="cls-2" points="18.57 21.44 18.57 32.16 18.57 42.88"/><polyline class="cls-2" points="9.29 26.8 18.57 32.16 27.85 37.51 27.85 37.52"/><polyline class="cls-2" points="9.29 37.52 9.29 37.51 18.57 32.16 27.85 26.8"/><polygon class="cls-2" points="27.85 37.52 27.85 26.8 18.57 21.44 9.28 26.8 9.28 37.52 18.57 42.88 27.85 37.52"/><polyline class="cls-2" points="0 21.44 0 32.16 0 42.88"/><polyline class="cls-2" points="-9.28 26.8 0 32.16 9.28 37.51 9.28 37.52"/><polyline class="cls-2" points="-9.28 37.52 -9.28 37.51 0 32.16 9.28 26.8"/><polygon class="cls-2" points="9.28 37.52 9.28 26.8 0 21.44 -9.29 26.8 -9.29 37.52 0 42.88 9.28 37.52"/><polyline class="cls-2" points="18.57 10.72 27.85 16.08 37.13 21.43 37.13 21.44"/><polyline class="cls-2" points="18.57 21.44 18.57 21.43 27.85 16.08 37.13 10.72"/><polygon class="cls-2" points="37.14 21.44 37.14 10.72 27.85 5.36 18.57 10.72 18.57 21.44 27.85 26.8 37.14 21.44"/><polyline class="cls-2" points="9.29 5.36 9.29 16.08 9.29 26.8"/><polyline class="cls-2" points="0.01 10.72 9.29 16.08 18.57 21.43 18.57 21.44"/><polyline class="cls-2" points="0.01 21.44 0.01 21.43 9.29 16.08 18.57 10.72"/><polygon class="cls-2" points="18.57 21.44 18.57 10.72 9.28 5.36 0 10.72 0 21.44 9.28 26.8 18.57 21.44"/><polyline class="cls-2" points="-18.56 10.72 -9.28 16.08 0 21.43 0 21.44"/><polyline class="cls-2" points="-18.56 21.44 -18.56 21.43 -9.28 16.08 0 10.72"/><polygon class="cls-2" points="0 21.44 0 10.72 -9.29 5.36 -18.57 10.72 -18.57 21.44 -9.29 26.8 0 21.44"/><polyline class="cls-2" points="18.57 -10.72 18.57 0 18.57 10.72"/><polyline class="cls-2" points="9.29 -5.36 18.57 0 27.85 5.35 27.85 5.36"/><polyline class="cls-2" points="9.29 5.36 9.29 5.35 18.57 0 27.85 -5.36"/><polygon class="cls-2" points="27.85 5.36 27.85 -5.36 18.57 -10.72 9.28 -5.36 9.28 5.36 18.57 10.72 27.85 5.36"/><polyline class="cls-2" points="0 -10.72 0 0 0 10.72"/><polyline class="cls-2" points="-9.28 -5.36 0 0 9.28 5.35 9.28 5.36"/><polyline class="cls-2" points="-9.28 5.36 -9.28 5.35 0 0 9.28 -5.36"/><polygon class="cls-2" points="9.28 5.36 9.28 -5.36 0 -10.72 -9.29 -5.36 -9.29 5.36 0 10.72 9.28 5.36"/></pattern><linearGradient id="未命名的渐变_114" x1="100.8" y1="143.21" x2="-2.68" y2="39.74" gradientUnits="userSpaceOnUse"><stop offset="0" stop-color="#425266"/><stop offset="1" stop-color="#596b8c"/></linearGradient><linearGradient id="未命名的渐变_1906" x1="44.31" y1="106.01" x2="5.69" y2="67.39" gradientUnits="userSpaceOnUse"><stop offset="0" stop-color="#1d242d"/><stop offset="1" stop-color="#414d66"/></linearGradient><linearGradient id="未命名的渐变_45" x1="85.31" y1="138.96" x2="157.11" y2="67.16" gradientUnits="userSpaceOnUse"><stop offset="0" stop-color="#283140"/><stop offset="0.34" stop-color="#232b37"/><stop offset="0.9" stop-color="#15191f"/><stop offset="1" stop-color="#12161a"/></linearGradient><linearGradient id="未命名的渐变_13" x1="2.95" y1="45.71" x2="147.24" y2="45.71" gradientUnits="userSpaceOnUse"><stop offset="0" stop-color="#89abe6"/><stop offset="1" stop-color="#547099"/></linearGradient><linearGradient id="未命名的渐变_93" x1="86.44" y1="99.75" x2="9.69" y2="23" gradientUnits="userSpaceOnUse"><stop offset="0" stop-color="#526680"/><stop offset="1" stop-color="#697fa6"/></linearGradient><linearGradient id="未命名的渐变_98" x1="101.04" y1="95.34" x2="144.91" y2="51.47" gradientUnits="userSpaceOnUse"><stop offset="0" stop-color="#38455a"/><stop offset="0.34" stop-color="#333f51"/><stop offset="0.89" stop-color="#262f39"/><stop offset="1" stop-color="#232b33"/></linearGradient><linearGradient id="未命名的渐变_13-2" x1="0.2" y1="44.53" x2="150" y2="44.53" xlink:href="#未命名的渐变_13"/></defs><title>集气室</title><g id="图层_2" data-name="图层 2"><g id="图层_1-2" data-name="图层 1"><g id="集气室"><g class="cls-3"><rect class="cls-4" width="150" height="150"/><rect id="网格" class="cls-5" width="150" height="150"/></g><g class="cls-6"><polygon class="cls-7" points="95.36 87.47 95.18 148.83 35.78 114.53 14.09 102.02 2.76 95.47 2.95 34.11 95.36 87.47"/><polygon class="cls-8" points="35.92 71.38 35.78 114.53 14.09 102.02 14.22 58.86 35.92 71.38"/><polygon class="cls-9" points="147.24 57.29 147.06 118.66 95.18 148.83 95.36 87.47 147.24 57.29"/><polygon class="cls-10" points="54.83 3.94 2.95 34.12 95.36 87.47 147.24 57.3 54.83 3.94"/><polygon class="cls-11" points="96.14 87.89 95.95 90.24 0 34.85 0.2 32.49 96.14 87.89"/><polygon class="cls-12" points="150 56.56 149.81 58.92 95.95 90.24 96.14 87.89 150 56.56"/><polygon class="cls-13" points="54.06 1.17 0.2 32.5 96.14 87.89 150 56.56 54.06 1.17"/></g></g></g></g></svg>