<svg xmlns="http://www.w3.org/2000/svg" xmlns:xlink="http://www.w3.org/1999/xlink" viewBox="0 0 150 150"><defs><style>.cls-1,.cls-2{fill:none;}.cls-2{stroke:#fff;stroke-miterlimit:10;stroke-width:0.1px;}.cls-3{opacity:0;}.cls-38,.cls-4{fill:#000714;}.cls-5{opacity:0.1;fill:url(#新建图案);}.cls-6{isolation:isolate;}.cls-7{fill:#fff;}.cls-8{fill:url(#未命名的渐变_302);}.cls-9{fill:url(#未命名的渐变_13);}.cls-10{fill:url(#未命名的渐变_76);}.cls-11{fill:url(#未命名的渐变_107);}.cls-12{fill:url(#未命名的渐变_13-2);}.cls-13{fill:url(#未命名的渐变_131);}.cls-14{fill:url(#未命名的渐变_126);}.cls-15{fill:url(#未命名的渐变_107-2);}.cls-16{fill:url(#未命名的渐变_126-2);}.cls-17{fill:url(#未命名的渐变_13-3);}.cls-18{fill:url(#未命名的渐变_107-3);}.cls-19{fill:url(#未命名的渐变_126-3);}.cls-20{fill:url(#未命名的渐变_107-4);}.cls-21{fill:url(#未命名的渐变_13-4);}.cls-22{fill:url(#未命名的渐变_126-4);}.cls-23{fill:url(#未命名的渐变_13-5);}.cls-24{fill:url(#未命名的渐变_302-2);}.cls-25{fill:url(#未命名的渐变_13-6);}.cls-26{fill:url(#未命名的渐变_76-2);}.cls-27{fill:url(#未命名的渐变_13-7);}.cls-28{fill:url(#未命名的渐变_76-3);}.cls-29{fill:url(#未命名的渐变_302-3);}.cls-30{fill:url(#未命名的渐变_302-4);}.cls-31{fill:url(#未命名的渐变_302-5);}.cls-32,.cls-38{mix-blend-mode:multiply;}.cls-32{fill:url(#未命名的渐变_78);}.cls-33{fill:url(#未命名的渐变_302-6);}.cls-34{fill:url(#未命名的渐变_302-7);}.cls-35{fill:url(#未命名的渐变_13-8);}.cls-36{fill:url(#未命名的渐变_76-4);}.cls-37{fill:url(#未命名的渐变_302-8);}.cls-38{opacity:0.2;}.cls-39{fill:url(#未命名的渐变_302-9);}.cls-40{fill:url(#未命名的渐变_13-9);}.cls-41{fill:url(#未命名的渐变_76-5);}.cls-42{fill:url(#未命名的渐变_88);}.cls-43{fill:#13181d;}.cls-44{fill:url(#未命名的渐变_113);}.cls-45{fill:url(#未命名的渐变_100);}.cls-46{fill:url(#未命名的渐变_106);}.cls-47{opacity:0.2;}</style><pattern id="新建图案" data-name="新建图案" width="18.57" height="32.16" patternTransform="translate(2945.91 790.05)" patternUnits="userSpaceOnUse" viewBox="0 0 18.57 32.16"><rect class="cls-1" width="18.57" height="32.16"/><polyline class="cls-2" points="18.57 21.44 18.57 32.16 18.57 42.88"/><polyline class="cls-2" points="9.29 26.8 18.57 32.16 27.85 37.51 27.85 37.52"/><polyline class="cls-2" points="9.29 37.52 9.29 37.51 18.57 32.16 27.85 26.8"/><polygon class="cls-2" points="27.85 37.52 27.85 26.8 18.57 21.44 9.28 26.8 9.28 37.52 18.57 42.88 27.85 37.52"/><polyline class="cls-2" points="0 21.44 0 32.16 0 42.88"/><polyline class="cls-2" points="-9.28 26.8 0 32.16 9.28 37.51 9.28 37.52"/><polyline class="cls-2" points="-9.28 37.52 -9.28 37.51 0 32.16 9.28 26.8"/><polygon class="cls-2" points="9.28 37.52 9.28 26.8 0 21.44 -9.29 26.8 -9.29 37.52 0 42.88 9.28 37.52"/><polyline class="cls-2" points="18.57 10.72 27.85 16.08 37.13 21.43 37.13 21.44"/><polyline class="cls-2" points="18.57 21.44 18.57 21.43 27.85 16.08 37.13 10.72"/><polygon class="cls-2" points="37.14 21.44 37.14 10.72 27.85 5.36 18.57 10.72 18.57 21.44 27.85 26.8 37.14 21.44"/><polyline class="cls-2" points="9.29 5.36 9.29 16.08 9.29 26.8"/><polyline class="cls-2" points="0.01 10.72 9.29 16.08 18.57 21.43 18.57 21.44"/><polyline class="cls-2" points="0.01 21.44 0.01 21.43 9.29 16.08 18.57 10.72"/><polygon class="cls-2" points="18.57 21.44 18.57 10.72 9.28 5.36 0 10.72 0 21.44 9.28 26.8 18.57 21.44"/><polyline class="cls-2" points="-18.56 10.72 -9.28 16.08 0 21.43 0 21.44"/><polyline class="cls-2" points="-18.56 21.44 -18.56 21.43 -9.28 16.08 0 10.72"/><polygon class="cls-2" points="0 21.44 0 10.72 -9.29 5.36 -18.57 10.72 -18.57 21.44 -9.29 26.8 0 21.44"/><polyline class="cls-2" points="18.57 -10.72 18.57 0 18.57 10.72"/><polyline class="cls-2" points="9.29 -5.36 18.57 0 27.85 5.35 27.85 5.36"/><polyline class="cls-2" points="9.29 5.36 9.29 5.35 18.57 0 27.85 -5.36"/><polygon class="cls-2" points="27.85 5.36 27.85 -5.36 18.57 -10.72 9.28 -5.36 9.28 5.36 18.57 10.72 27.85 5.36"/><polyline class="cls-2" points="0 -10.72 0 0 0 10.72"/><polyline class="cls-2" points="-9.28 -5.36 0 0 9.28 5.35 9.28 5.36"/><polyline class="cls-2" points="-9.28 5.36 -9.28 5.35 0 0 9.28 -5.36"/><polygon class="cls-2" points="9.28 5.36 9.28 -5.36 0 -10.72 -9.29 -5.36 -9.29 5.36 0 10.72 9.28 5.36"/></pattern><linearGradient id="未命名的渐变_302" x1="60.38" y1="141.52" x2="111.49" y2="141.52" gradientUnits="userSpaceOnUse"><stop offset="0" stop-color="#38455a"/><stop offset="0.15" stop-color="#7a98cc"/><stop offset="0.25" stop-color="#7a98cc"/><stop offset="0.9" stop-color="#12161a"/><stop offset="1" stop-color="#283140"/></linearGradient><linearGradient id="未命名的渐变_13" x1="60.39" y1="133.28" x2="111.49" y2="133.28" gradientUnits="userSpaceOnUse"><stop offset="0" stop-color="#89abe6"/><stop offset="1" stop-color="#547099"/></linearGradient><linearGradient id="未命名的渐变_76" x1="60.39" y1="133.28" x2="111.49" y2="133.28" gradientUnits="userSpaceOnUse"><stop offset="0" stop-color="#99beff"/><stop offset="0.02" stop-color="#99beff" stop-opacity="0.93"/><stop offset="0.09" stop-color="#99beff" stop-opacity="0.74"/><stop offset="0.17" stop-color="#99beff" stop-opacity="0.56"/><stop offset="0.25" stop-color="#99beff" stop-opacity="0.41"/><stop offset="0.33" stop-color="#99beff" stop-opacity="0.28"/><stop offset="0.43" stop-color="#99beff" stop-opacity="0.18"/><stop offset="0.53" stop-color="#99beff" stop-opacity="0.1"/><stop offset="0.64" stop-color="#99beff" stop-opacity="0.04"/><stop offset="0.77" stop-color="#99beff" stop-opacity="0.01"/><stop offset="1" stop-color="#99beff" stop-opacity="0"/></linearGradient><linearGradient id="未命名的渐变_107" x1="92.05" y1="120.34" x2="100.11" y2="112.29" gradientUnits="userSpaceOnUse"><stop offset="0" stop-color="#283140"/><stop offset="0.34" stop-color="#232b37"/><stop offset="0.9" stop-color="#15191f"/><stop offset="1" stop-color="#12161a"/></linearGradient><linearGradient id="未命名的渐变_13-2" x1="74.17" y1="109.26" x2="97.07" y2="109.26" xlink:href="#未命名的渐变_13"/><linearGradient id="未命名的渐变_131" x1="85.61" y1="123.38" x2="85.61" y2="109.58" gradientUnits="userSpaceOnUse"><stop offset="0" stop-color="#596b8c"/><stop offset="1" stop-color="#425266"/></linearGradient><linearGradient id="未命名的渐变_126" x1="79.15" y1="120.33" x2="71.12" y2="112.3" gradientUnits="userSpaceOnUse"><stop offset="0" stop-color="#425266"/><stop offset="1" stop-color="#596b8c"/></linearGradient><linearGradient id="未命名的渐变_107-2" x1="62.12" y1="129.08" x2="73.38" y2="117.82" xlink:href="#未命名的渐变_107"/><linearGradient id="未命名的渐变_126-2" x1="69.3" y1="134.51" x2="59.3" y2="124.51" xlink:href="#未命名的渐变_126"/><linearGradient id="未命名的渐变_13-3" x1="63.78" y1="120.09" x2="70.21" y2="120.09" xlink:href="#未命名的渐变_13"/><linearGradient id="未命名的渐变_107-3" x1="62.82" y1="136.99" x2="72.22" y2="127.59" xlink:href="#未命名的渐变_107"/><linearGradient id="未命名的渐变_126-3" x1="109.2" y1="129.14" x2="97.9" y2="117.84" xlink:href="#未命名的渐变_126"/><linearGradient id="未命名的渐变_107-4" x1="102.09" y1="134.54" x2="112.03" y2="124.6" xlink:href="#未命名的渐变_107"/><linearGradient id="未命名的渐变_13-4" x1="101.15" y1="120.09" x2="107.58" y2="120.09" xlink:href="#未命名的渐变_13"/><linearGradient id="未命名的渐变_126-4" x1="108.55" y1="136.97" x2="99.19" y2="127.6" xlink:href="#未命名的渐变_126"/><linearGradient id="未命名的渐变_13-5" x1="74.29" y1="130.92" x2="97.19" y2="130.92" xlink:href="#未命名的渐变_13"/><linearGradient id="未命名的渐变_302-2" x1="74.25" y1="138.7" x2="97.19" y2="138.7" xlink:href="#未命名的渐变_302"/><linearGradient id="未命名的渐变_13-6" x1="58.39" y1="103.38" x2="112.98" y2="103.38" xlink:href="#未命名的渐变_13"/><linearGradient id="未命名的渐变_76-2" x1="58.39" y1="103.38" x2="112.98" y2="103.38" xlink:href="#未命名的渐变_76"/><linearGradient id="未命名的渐变_13-7" x1="63.78" y1="99.55" x2="107.61" y2="99.55" xlink:href="#未命名的渐变_13"/><linearGradient id="未命名的渐变_76-3" x1="63.78" y1="99.55" x2="107.61" y2="99.55" xlink:href="#未命名的渐变_76"/><linearGradient id="未命名的渐变_302-3" x1="63.77" y1="107.78" x2="107.61" y2="107.78" xlink:href="#未命名的渐变_302"/><linearGradient id="未命名的渐变_302-4" x1="58.34" y1="118.9" x2="112.98" y2="118.9" xlink:href="#未命名的渐变_302"/><linearGradient id="未命名的渐变_302-5" x1="68.22" y1="95.25" x2="103.22" y2="95.25" xlink:href="#未命名的渐变_302"/><linearGradient id="未命名的渐变_78" x1="85.72" y1="96.84" x2="85.72" y2="80.9" gradientUnits="userSpaceOnUse"><stop offset="0" stop-color="#142439" stop-opacity="0"/><stop offset="1" stop-color="#142439" stop-opacity="0.6"/></linearGradient><linearGradient id="未命名的渐变_302-6" x1="62.26" y1="61.83" x2="109.39" y2="61.83" xlink:href="#未命名的渐变_302"/><linearGradient id="未命名的渐变_302-7" x1="60.09" y1="30.69" x2="111.73" y2="30.69" xlink:href="#未命名的渐变_302"/><linearGradient id="未命名的渐变_13-8" x1="60.11" y1="20.47" x2="111.73" y2="20.47" xlink:href="#未命名的渐变_13"/><linearGradient id="未命名的渐变_76-4" x1="60.11" y1="20.47" x2="111.73" y2="20.47" xlink:href="#未命名的渐变_76"/><linearGradient id="未命名的渐变_302-8" x1="62.52" y1="37.57" x2="109.25" y2="37.57" xlink:href="#未命名的渐变_302"/><linearGradient id="未命名的渐变_302-9" x1="67.19" y1="21.14" x2="104.68" y2="21.14" xlink:href="#未命名的渐变_302"/><linearGradient id="未命名的渐变_13-9" x1="67.22" y1="11.02" x2="104.68" y2="11.02" xlink:href="#未命名的渐变_13"/><linearGradient id="未命名的渐变_76-5" x1="67.22" y1="11.02" x2="104.68" y2="11.02" xlink:href="#未命名的渐变_76"/><linearGradient id="未命名的渐变_88" x1="54.67" y1="143.81" x2="52.4" y2="111.25" gradientUnits="userSpaceOnUse"><stop offset="0" stop-color="#283140"/><stop offset="0.1" stop-color="#12161a"/><stop offset="0.75" stop-color="#7a98cc"/><stop offset="0.85" stop-color="#7a98cc"/><stop offset="1" stop-color="#38455a"/></linearGradient><linearGradient id="未命名的渐变_113" x1="54.74" y1="138.27" x2="43.31" y2="118.47" gradientUnits="userSpaceOnUse"><stop offset="0" stop-color="#38455a"/><stop offset="0.2" stop-color="#7a98cc"/><stop offset="0.9" stop-color="#12161a"/><stop offset="1" stop-color="#283140"/></linearGradient><linearGradient id="未命名的渐变_100" x1="66.16" y1="140.48" x2="47.1" y2="107.47" gradientUnits="userSpaceOnUse"><stop offset="0" stop-color="#0073e6"/><stop offset="0.1" stop-color="#1433cc"/><stop offset="0.8" stop-color="#59c8ff"/><stop offset="1" stop-color="#0073e6"/></linearGradient><linearGradient id="未命名的渐变_106" x1="37.02" y1="127.5" x2="64.05" y2="127.5" xlink:href="#未命名的渐变_126"/></defs><title>集水池提升泵</title><g id="图层_2" data-name="图层 2"><g id="图元"><g id="集水池提升泵"><g class="cls-3"><rect class="cls-4" width="150" height="150"/><rect id="网格" class="cls-5" width="150" height="150"/></g><g id="集水池提升泵-2" data-name="集水池提升泵" class="cls-6"><g class="cls-6"><path class="cls-7" d="M98.88,125.76c-7.19-4.15-18.84-4.15-26,0-3.55,2.06-5.32,4.76-5.33,7.46V135c0-2.71,1.78-5.41,5.32-7.47,7.14-4.14,18.79-4.14,26,0,3.61,2.08,5.42,4.83,5.41,7.57v-1.76C104.3,130.59,102.5,127.85,98.88,125.76Z"/><path class="cls-8" d="M104.06,143.74c-9.94,5.78-26.12,5.78-36.13,0-5-2.91-7.55-6.73-7.54-10.54V135c0,3.82,2.51,7.63,7.55,10.54,10,5.78,26.18,5.78,36.13,0,4.94-2.87,7.41-6.63,7.42-10.39v-1.76C111.47,137.11,109,140.87,104.06,143.74Z"/><path class="cls-9" d="M103.94,122.82c-10-5.78-26.18-5.78-36.13,0s-9.89,15.15.12,20.94,26.19,5.77,36.13,0S114,128.59,103.94,122.82Zm-5,18c-7.14,4.15-18.79,4.15-26,0s-7.23-10.9-.09-15,18.78-4.15,26,0S106.1,136.65,99,140.8Z"/><path class="cls-10" d="M85.85,119c6.74,0,13.08,1.52,17.84,4.27s7.29,6.29,7.3,10.07-2.55,7.3-7.18,10-11,4.27-17.79,4.27-13.08-1.52-17.84-4.27-7.29-6.29-7.29-10.07,2.54-7.3,7.17-10,11-4.27,17.79-4.27m0-.5c-6.54,0-13.07,1.44-18,4.33-9.94,5.78-9.89,15.15.12,20.94,5,2.88,11.55,4.33,18.09,4.33s13.07-1.45,18-4.34c10-5.78,9.89-15.15-.12-20.92-5-2.89-11.55-4.34-18.09-4.34Z"/></g><polygon class="cls-11" points="95.12 111.11 95.09 123.38 97.04 121.52 97.07 109.25 95.12 111.11"/><path class="cls-12" d="M74.17,109.26l2,1.86a30.06,30.06,0,0,1,19,0l1.95-1.86A36.38,36.38,0,0,0,74.17,109.26Z"/><path class="cls-13" d="M76.14,111.12l0,12.26a30.06,30.06,0,0,1,19,0l0-12.27A30.06,30.06,0,0,0,76.14,111.12Z"/><polygon class="cls-14" points="74.17 109.26 74.13 121.52 76.11 123.38 76.14 111.12 74.17 109.26"/><path class="cls-15" d="M67.53,120,65.34,132.3A7.59,7.59,0,0,1,68,126.86l2.19-12.26A7.57,7.57,0,0,0,67.53,120Z"/><path class="cls-16" d="M63.78,120l-2.19,12.27a9.21,9.21,0,0,0,3.23,6.7L67,126.72A9.2,9.2,0,0,1,63.78,120Z"/><path class="cls-17" d="M70.15,114.6l-3.21-1.14c-4.24,4-4.21,9.23.07,13.26l3.2-1.13C66.66,122.24,66.64,117.93,70.15,114.6Z"/><polygon class="cls-18" points="67.01 126.72 64.82 138.99 68.02 137.85 70.21 125.59 67.01 126.72"/><path class="cls-19" d="M101.15,114.59l2.12,12.27A7.63,7.63,0,0,1,106,132.4l-2.12-12.27A7.66,7.66,0,0,0,101.15,114.59Z"/><path class="cls-20" d="M104.42,126.72,106.54,139a9.12,9.12,0,0,0,3.16-6.57l-2.12-12.27A9.1,9.1,0,0,1,104.42,126.72Z"/><path class="cls-21" d="M104.35,113.45l-3.2,1.14c3.55,3.34,3.57,7.65,0,11l3.22,1.13C108.66,122.7,108.63,117.48,104.35,113.45Z"/><polygon class="cls-22" points="101.2 125.59 103.32 137.85 106.54 138.99 104.42 126.72 101.2 125.59"/><path class="cls-23" d="M95.22,129.07a30.2,30.2,0,0,1-19,0l-1.95,1.85a36.31,36.31,0,0,0,22.9,0Z"/><path class="cls-24" d="M74.29,130.92l0,13.71a36.45,36.45,0,0,0,22.9,0l0-13.71A36.31,36.31,0,0,1,74.29,130.92Z"/><path class="cls-25" d="M105.26,92.4c-10.51-6.28-27.79-6.46-38.6-.39s-11.06,16.07-.55,22.36,27.79,6.45,38.6.39S115.77,98.68,105.26,92.4Z"/><path class="cls-26" d="M85.59,88.07c7.39,0,14.28,1.69,19.41,4.76,4.88,2.91,7.54,6.72,7.48,10.72s-2.9,7.9-8,10.77-11.67,4.37-18.69,4.37c-7.39,0-14.28-1.69-19.41-4.75-4.88-2.92-7.54-6.73-7.48-10.73s2.9-7.9,8-10.77,11.67-4.37,18.69-4.37m0-.5C78.77,87.57,71.94,89,66.66,92c-10.81,6.06-11.06,16.07-.55,22.36,5.37,3.21,12.52,4.82,19.67,4.82,6.82,0,13.65-1.47,18.93-4.43,10.81-6.07,11.06-16.08.55-22.36-5.37-3.21-12.52-4.83-19.67-4.83Z"/><path class="cls-27" d="M101.41,90.73c-8.43-5-22.31-5.19-31-.32s-8.88,12.91-.44,18,22.31,5.19,31,.32S109.85,95.77,101.41,90.73Z"/><path class="cls-28" d="M85.62,87.35a30.83,30.83,0,0,1,15.54,3.8c3.88,2.33,6,5.36,6,8.53s-2.31,6.28-6.38,8.56a31.08,31.08,0,0,1-15,3.5,30.76,30.76,0,0,1-15.53-3.8c-3.89-2.33-6-5.35-6-8.53s2.31-6.28,6.38-8.56a31.11,31.11,0,0,1,15-3.5m0-.5a31.7,31.7,0,0,0-15.2,3.56c-8.68,4.87-8.88,12.91-.44,18,4.31,2.58,10,3.88,15.79,3.88a31.7,31.7,0,0,0,15.2-3.56c8.68-4.87,8.88-12.91.44-18-4.31-2.58-10-3.88-15.79-3.88Z"/><path class="cls-29" d="M101,108.68c-8.68,4.87-22.55,4.73-31-.32-4.15-2.48-6.21-5.68-6.2-8.88v3.84c0,3.2,2,6.4,6.2,8.88,8.44,5,22.31,5.19,31,.31,4.41-2.47,6.63-5.76,6.64-9.07V99.61C107.61,102.91,105.39,106.2,101,108.68Z"/><path class="cls-30" d="M104.71,114.76c-10.81,6.06-28.09,5.89-38.6-.39-5.17-3.09-7.73-7.08-7.72-11.06l0,15.3c0,4,2.56,8,7.73,11.06,10.51,6.28,27.79,6.45,38.6.39,5.49-3.09,8.26-7.19,8.27-11.3l0-15.3C113,107.57,110.21,111.67,104.71,114.76Z"/><path class="cls-31" d="M103.22,81l0,18.56c0,2.63-1.77,5.26-5.29,7.23-6.92,3.88-18,3.77-24.72-.25-3.3-2-5-4.53-4.94-7.08l0-12.19V80.9c0,2.54,1.65,5.09,4.94,7.06C80,92,91,92.1,97.93,88.21c3.24-1.82,5-4.2,5.26-6.62A4.16,4.16,0,0,0,103.22,81Z"/><path class="cls-32" d="M103.19,81.59l0,5.18c0,2.63-1.77,5.25-5.29,7.23-6.92,3.89-18,3.77-24.72-.25-3-1.83-4.69-4.14-4.9-6.5V80.9c0,2.54,1.65,5.09,4.94,7.06C80,92,91,92.1,97.93,88.21,101.17,86.39,102.93,84,103.19,81.59Z"/><path class="cls-33" d="M102.27,39c-9.3,5.22-24.18,5.07-33.22-.34-4.44-2.66-6.65-6.09-6.64-9.52l-.15,51.73c0,3.43,2.2,6.86,6.65,9.52,9,5.41,23.91,5.56,33.21.34,4.73-2.66,7.11-6.19,7.12-9.72l.15-51.74C109.38,32.8,107,36.33,102.27,39Z"/><path class="cls-34" d="M103.91,31.22c-10.22,5.74-26.56,5.57-36.5-.37-4.88-2.92-7.31-6.69-7.3-10.46l0,5.57c0,3.77,2.42,7.54,7.31,10.46,9.93,5.94,26.27,6.11,36.49.37,5.2-2.91,7.81-6.79,7.83-10.68V20.54C111.72,24.43,109.11,28.3,103.91,31.22Z"/><path class="cls-35" d="M104.43,10.08C94.49,4.14,78.15,4,67.93,9.71s-10.45,15.2-.52,21.14,26.28,6.11,36.5.37S114.36,16,104.43,10.08Z"/><path class="cls-36" d="M85.83,6c7,0,13.49,1.6,18.34,4.5,4.61,2.75,7.11,6.34,7.06,10.12s-2.74,7.45-7.56,10.15A36.66,36.66,0,0,1,86,34.92c-7,0-13.49-1.6-18.34-4.5-4.6-2.75-7.11-6.34-7.06-10.11s2.74-7.46,7.56-10.16A36.66,36.66,0,0,1,85.83,6m0-.5c-6.45,0-12.91,1.4-17.9,4.2-10.22,5.74-10.45,15.2-.52,21.14,5.08,3,11.84,4.57,18.6,4.57,6.45,0,12.91-1.4,17.9-4.2,10.22-5.74,10.45-15.2.52-21.14-5.08-3-11.84-4.57-18.6-4.57Z"/><path class="cls-37" d="M103.89,36.79c-10.22,5.74-26.56,5.57-36.49-.37a18.11,18.11,0,0,1-4.88-4.09c.7.86,1.4,1.73,2.09,2.6a16.46,16.46,0,0,0,4.44,3.72c9,5.41,23.92,5.56,33.22.34a17,17,0,0,0,4.87-3.94c.71-.86,1.41-1.72,2.11-2.59A18.32,18.32,0,0,1,103.89,36.79Z"/><path class="cls-38" d="M103.89,36.79c-10.22,5.74-26.56,5.57-36.49-.37a18.11,18.11,0,0,1-4.88-4.09c.7.86,1.4,1.73,2.09,2.6a16.46,16.46,0,0,0,4.44,3.72c9,5.41,23.92,5.56,33.22.34a17,17,0,0,0,4.87-3.94c.71-.86,1.41-1.72,2.11-2.59A18.32,18.32,0,0,1,103.89,36.79Z"/><path class="cls-39" d="M99,18.82c-7.42,4.16-19.27,4-26.48-.27C69,16.43,67.21,13.69,67.22,11l0,9.45c0,2.73,1.75,5.47,5.3,7.59,7.21,4.31,19.07,4.43,26.49.27,3.77-2.12,5.66-4.93,5.67-7.75l0-9.45C104.67,13.89,102.77,16.7,99,18.82Z"/><path class="cls-40" d="M99.38,3.48C92.17-.83,80.31-.95,72.89,3.21s-7.58,11-.37,15.34S91.58,23,99,18.82,106.59,7.79,99.38,3.48Z"/><path class="cls-41" d="M85.88.67A26.19,26.19,0,0,1,99.12,3.91c3.3,2,5.09,4.53,5.06,7.22s-2,5.31-5.42,7.25a26.45,26.45,0,0,1-12.75,3,26.22,26.22,0,0,1-13.24-3.24c-3.29-2-5.09-4.53-5-7.22s2-5.31,5.42-7.25a26.39,26.39,0,0,1,12.74-3m0-.5a27.16,27.16,0,0,0-13,3c-7.42,4.16-7.58,11-.37,15.34A26.81,26.81,0,0,0,86,21.86a27.14,27.14,0,0,0,13-3c7.42-4.16,7.59-11,.38-15.34A26.85,26.85,0,0,0,85.88.17Z"/><g class="cls-6"><g class="cls-6"><path class="cls-42" d="M68.05,124.42l.06-.27c0-.06,0-.12,0-.19a3,3,0,0,0,0-.33.88.88,0,0,0,0-.17,4.7,4.7,0,0,0,0-.54,10.64,10.64,0,0,0-4.9-8.3l-.47-.23-.14-.06-.31-.11-.17,0L62,114.1l-.17,0-.11,0-15.6-2.17c-4.75-.66-8.1,2.74-8,9,.1,7.94,5.73,17.47,12.58,21.29,5.26,2.93,9.71,1.64,11.45-2.71h0q2.93-7.32,5.84-14.63l.06-.18Z"/><ellipse class="cls-43" cx="50.47" cy="127.74" rx="10.13" ry="17.48" transform="translate(-57.35 42.65) rotate(-30.16)"/></g></g><g class="cls-6"><path class="cls-43" d="M45.78,131.82a2.74,2.74,0,0,1-1-1c-.53-.92-.53-1.89,0-2.19l-2.69,1.56c-.53.3-.54,1.27,0,2.19a2.66,2.66,0,0,0,1,1,1,1,0,0,0,.95.09l2.69-1.56A1,1,0,0,1,45.78,131.82Z"/><path class="cls-43" d="M53.18,139.62a3,3,0,0,1-1.35-2.34.94.94,0,0,1,.4-.86L49.54,138a.94.94,0,0,0-.39.86,3,3,0,0,0,1.34,2.34.93.93,0,0,0,1,.09l2.69-1.56A.92.92,0,0,1,53.18,139.62Z"/><path class="cls-43" d="M42.74,121.53a3,3,0,0,1-1.35-2.33.94.94,0,0,1,.4-.86L39.1,119.9a.94.94,0,0,0-.39.86,3,3,0,0,0,1.34,2.33.93.93,0,0,0,1,.09l2.69-1.56A1,1,0,0,1,42.74,121.53Z"/><path class="cls-43" d="M60.6,140.37a2.76,2.76,0,0,1-1-1c-.53-.91-.53-1.89,0-2.19L57,138.73c-.53.3-.53,1.28,0,2.19a2.74,2.74,0,0,0,.95,1,.93.93,0,0,0,1,.09l2.69-1.56A1,1,0,0,1,60.6,140.37Z"/><path class="cls-43" d="M45.83,114.79a2.67,2.67,0,0,1-.95-1c-.53-.9-.53-1.87,0-2.17l-2.68,1.56c-.53.3-.52,1.27,0,2.18a2.8,2.8,0,0,0,.94,1,1,1,0,0,0,1,.08l2.69-1.56A.94.94,0,0,1,45.83,114.79Z"/><path class="cls-43" d="M50.51,136.82c-4.48-2.58-8.1-8.85-8.09-14s3.66-7.22,8.14-4.63,8.1,8.86,8.08,14S55,139.4,50.51,136.82Z"/><path class="cls-44" d="M53.19,135.26c-4.48-2.59-8.09-8.85-8.08-14,0-2.55.91-4.35,2.37-5.2l-2.69,1.57c-1.45.84-2.36,2.64-2.37,5.19,0,5.15,3.61,11.42,8.09,14,2.25,1.3,4.29,1.42,5.76.56L59,135.82C57.49,136.68,55.44,136.56,53.19,135.26Z"/><path class="cls-43" d="M63.69,133.62a3,3,0,0,1-1.35-2.33.92.92,0,0,1,.4-.86L60.05,132a.94.94,0,0,0-.39.86A3,3,0,0,0,61,135.19a1,1,0,0,0,1,.09l2.69-1.56A1,1,0,0,1,63.69,133.62Z"/><path class="cls-43" d="M53.25,115.54a3,3,0,0,1-1.35-2.33.92.92,0,0,1,.4-.86l-2.69,1.56a.94.94,0,0,0-.39.86,3,3,0,0,0,1.34,2.33.93.93,0,0,0,1,.09l2.69-1.56A.92.92,0,0,1,53.25,115.54Z"/><path class="cls-43" d="M60.65,123.35a2.76,2.76,0,0,1-1-1c-.53-.91-.53-1.88,0-2.18L57,121.72c-.52.3-.52,1.27,0,2.18a2.74,2.74,0,0,0,1,1,1,1,0,0,0,.95.09l2.69-1.56A1,1,0,0,1,60.65,123.35Z"/><path class="cls-45" d="M53.26,110.41c-3.76-2.17-7.16-2.37-9.62-.94L41,111c2.46-1.43,5.86-1.23,9.62.94,7.47,4.31,13.49,14.76,13.47,23.34,0,4.26-1.52,7.26-3.94,8.67l2.68-1.56c2.43-1.41,3.93-4.41,3.94-8.67C66.76,125.17,60.73,114.72,53.26,110.41Z"/><path class="cls-46" d="M50.58,112C43.11,107.66,37,111.12,37,119.7s6,19,13.47,23.33,13.53.86,13.56-7.72S58.05,116.28,50.58,112Zm0,2a3,3,0,0,1,1.35,2.33c0,.85-.62,1.2-1.36.77a3,3,0,0,1-1.34-2.33C49.22,113.92,49.83,113.57,50.57,114Zm-8.37-.84a.94.94,0,0,1,.95.08,2.8,2.8,0,0,1,1,1c.53.91.53,1.89,0,2.18a1,1,0,0,1-1-.08,2.8,2.8,0,0,1-.94-1C41.66,114.43,41.66,113.45,42.2,113.16Zm-2.15,9.93a3,3,0,0,1-1.34-2.33c0-.85.61-1.2,1.35-.77a3,3,0,0,1,1.35,2.33C41.41,123.17,40.8,123.52,40.05,123.09Zm4,10.38a1,1,0,0,1-.95-.09,2.66,2.66,0,0,1-1-1c-.54-.92-.53-1.89,0-2.19a.92.92,0,0,1,1,.09,2.76,2.76,0,0,1,1,1C44.59,132.19,44.59,133.17,44.05,133.47Zm6.44,7.71a3,3,0,0,1-1.34-2.34c0-.85.61-1.2,1.35-.77a3,3,0,0,1,1.35,2.33C51.85,141.26,51.24,141.61,50.49,141.18Zm0-4.36c-4.48-2.58-8.1-8.85-8.09-14s3.66-7.22,8.14-4.63,8.1,8.86,8.08,14S55,139.4,50.51,136.82Zm8.35,5.2a.93.93,0,0,1-1-.09,2.74,2.74,0,0,1-.95-1c-.53-.91-.53-1.89,0-2.19a1,1,0,0,1,1,.09,2.74,2.74,0,0,1,.95,1C59.4,140.75,59.4,141.72,58.86,142Zm0-17a1,1,0,0,1-.95-.09,2.74,2.74,0,0,1-1-1c-.54-.92-.53-1.9,0-2.19a.94.94,0,0,1,1,.09,2.74,2.74,0,0,1,1,1C59.45,123.72,59.45,124.7,58.91,125ZM61,135.19a3,3,0,0,1-1.34-2.34c0-.85.61-1.2,1.35-.77a3,3,0,0,1,1.35,2.33C62.35,135.27,61.74,135.61,61,135.19Z"/></g></g></g></g></g></svg>