<svg xmlns="http://www.w3.org/2000/svg" xmlns:xlink="http://www.w3.org/1999/xlink" viewBox="0 0 150 150"><defs><style>.cls-1,.cls-2{fill:none;}.cls-2{stroke:#fff;stroke-miterlimit:10;stroke-width:0.1px;}.cls-3{opacity:0;}.cls-10,.cls-11,.cls-26,.cls-4{fill:#000714;}.cls-5{opacity:0.1;fill:url(#新建图案);}.cls-6{isolation:isolate;}.cls-7{fill:url(#未命名的渐变_4);}.cls-8{fill:url(#未命名的渐变_102);}.cls-9{fill:#fff;opacity:0.45;mix-blend-mode:overlay;}.cls-10{opacity:0.2;}.cls-10,.cls-11,.cls-26{mix-blend-mode:multiply;}.cls-11{opacity:0.12;}.cls-12{fill:url(#未命名的渐变_276);}.cls-13{fill:url(#未命名的渐变_276-2);}.cls-14{fill:url(#未命名的渐变_276-3);}.cls-15{fill:url(#未命名的渐变_276-4);}.cls-16{fill:url(#未命名的渐变_276-5);}.cls-17{fill:url(#未命名的渐变_276-6);}.cls-18{fill:url(#未命名的渐变_276-7);}.cls-19{fill:url(#未命名的渐变_1403);}.cls-20{fill:url(#未命名的渐变_102-2);}.cls-21{fill:url(#未命名的渐变_100);}.cls-22{fill:url(#未命名的渐变_17280);}.cls-23{fill:url(#未命名的渐变_13);}.cls-24{fill:url(#未命名的渐变_102-3);}.cls-25{fill:url(#未命名的渐变_13-2);}.cls-26{opacity:0.6;}.cls-27{fill:url(#未命名的渐变_102-4);}.cls-28{fill:url(#未命名的渐变_54);}.cls-29{fill:url(#未命名的渐变_102-5);}.cls-30{fill:url(#未命名的渐变_13-3);}.cls-31{fill:url(#未命名的渐变_54-2);}.cls-32{fill:url(#未命名的渐变_102-6);}.cls-33{fill:url(#未命名的渐变_13-4);}.cls-34{fill:url(#未命名的渐变_54-3);}.cls-35{fill:url(#未命名的渐变_102-7);}.cls-36{fill:url(#未命名的渐变_13-5);}.cls-37{fill:url(#未命名的渐变_414);}.cls-38{fill:url(#未命名的渐变_102-8);}.cls-39{fill:url(#未命名的渐变_1403-2);}.cls-40{fill:url(#未命名的渐变_102-9);}.cls-41{fill:url(#未命名的渐变_1403-3);}.cls-42{fill:url(#未命名的渐变_102-10);}.cls-43{fill:url(#未命名的渐变_1827);}.cls-44{fill:url(#未命名的渐变_13-6);}.cls-45{fill:url(#未命名的渐变_102-11);}.cls-46{fill:url(#未命名的渐变_1827-2);}.cls-47{fill:url(#未命名的渐变_13-7);}.cls-48{fill:url(#未命名的渐变_13-8);}.cls-49{fill:url(#未命名的渐变_102-12);}.cls-50{fill:url(#未命名的渐变_13-9);}.cls-51{fill:url(#未命名的渐变_102-13);}.cls-52{fill:url(#未命名的渐变_102-14);}.cls-53{fill:url(#未命名的渐变_13-10);}.cls-54{fill:url(#未命名的渐变_4-2);}.cls-55{fill:url(#未命名的渐变_102-15);}.cls-56{fill:url(#未命名的渐变_276-8);}.cls-57{fill:url(#未命名的渐变_276-9);}.cls-58{fill:url(#未命名的渐变_276-10);}.cls-59{fill:url(#未命名的渐变_276-11);}.cls-60{fill:url(#未命名的渐变_276-12);}.cls-61{fill:url(#未命名的渐变_276-13);}.cls-62{fill:url(#未命名的渐变_276-14);}.cls-63{fill:url(#未命名的渐变_1403-4);}.cls-64{fill:url(#未命名的渐变_102-16);}.cls-65{fill:url(#未命名的渐变_100-2);}.cls-66{fill:url(#未命名的渐变_17280-2);}.cls-67{fill:#191e26;}.cls-68{fill:url(#未命名的渐变_1827-3);}.cls-69{fill:#232a37;}.cls-70{fill:url(#未命名的渐变_13-11);}.cls-71{fill:url(#未命名的渐变_1827-4);}.cls-72{fill:url(#未命名的渐变_13-12);}.cls-73{fill:url(#未命名的渐变_1827-5);}.cls-74{fill:url(#未命名的渐变_13-13);}.cls-75{fill:url(#未命名的渐变_1827-6);}.cls-76{fill:url(#未命名的渐变_13-14);}.cls-77{opacity:0.2;}</style><pattern id="新建图案" data-name="新建图案" width="18.57" height="32.16" patternTransform="translate(1879.09 952.58)" patternUnits="userSpaceOnUse" viewBox="0 0 18.57 32.16"><rect class="cls-1" width="18.57" height="32.16"/><polyline class="cls-2" points="18.57 21.44 18.57 32.16 18.57 42.88"/><polyline class="cls-2" points="9.29 26.8 18.57 32.16 27.85 37.51 27.85 37.52"/><polyline class="cls-2" points="9.29 37.52 9.29 37.51 18.57 32.16 27.85 26.8"/><polygon class="cls-2" points="27.85 37.52 27.85 26.8 18.57 21.44 9.28 26.8 9.28 37.52 18.57 42.88 27.85 37.52"/><polyline class="cls-2" points="0 21.44 0 32.16 0 42.88"/><polyline class="cls-2" points="-9.28 26.8 0 32.16 9.28 37.51 9.28 37.52"/><polyline class="cls-2" points="-9.28 37.52 -9.28 37.51 0 32.16 9.28 26.8"/><polygon class="cls-2" points="9.28 37.52 9.28 26.8 0 21.44 -9.29 26.8 -9.29 37.52 0 42.88 9.28 37.52"/><polyline class="cls-2" points="18.57 10.72 27.85 16.08 37.13 21.43 37.13 21.44"/><polyline class="cls-2" points="18.57 21.44 18.57 21.43 27.85 16.08 37.13 10.72"/><polygon class="cls-2" points="37.14 21.44 37.14 10.72 27.85 5.36 18.57 10.72 18.57 21.44 27.85 26.8 37.14 21.44"/><polyline class="cls-2" points="9.29 5.36 9.29 16.08 9.29 26.8"/><polyline class="cls-2" points="0.01 10.72 9.29 16.08 18.57 21.43 18.57 21.44"/><polyline class="cls-2" points="0.01 21.44 0.01 21.43 9.29 16.08 18.57 10.72"/><polygon class="cls-2" points="18.57 21.44 18.57 10.72 9.28 5.36 0 10.72 0 21.44 9.28 26.8 18.57 21.44"/><polyline class="cls-2" points="-18.56 10.72 -9.28 16.08 0 21.43 0 21.44"/><polyline class="cls-2" points="-18.56 21.44 -18.56 21.43 -9.28 16.08 0 10.72"/><polygon class="cls-2" points="0 21.44 0 10.72 -9.29 5.36 -18.57 10.72 -18.57 21.44 -9.29 26.8 0 21.44"/><polyline class="cls-2" points="18.57 -10.72 18.57 0 18.57 10.72"/><polyline class="cls-2" points="9.29 -5.36 18.57 0 27.85 5.35 27.85 5.36"/><polyline class="cls-2" points="9.29 5.36 9.29 5.35 18.57 0 27.85 -5.36"/><polygon class="cls-2" points="27.85 5.36 27.85 -5.36 18.57 -10.72 9.28 -5.36 9.28 5.36 18.57 10.72 27.85 5.36"/><polyline class="cls-2" points="0 -10.72 0 0 0 10.72"/><polyline class="cls-2" points="-9.28 -5.36 0 0 9.28 5.35 9.28 5.36"/><polyline class="cls-2" points="-9.28 5.36 -9.28 5.35 0 0 9.28 -5.36"/><polygon class="cls-2" points="9.28 5.36 9.28 -5.36 0 -10.72 -9.29 -5.36 -9.29 5.36 0 10.72 9.28 5.36"/></pattern><linearGradient id="未命名的渐变_4" x1="22.24" y1="62.87" x2="58.68" y2="-0.25" gradientUnits="userSpaceOnUse"><stop offset="0" stop-color="#0073e6"/><stop offset="0.15" stop-color="#1433cc"/><stop offset="0.75" stop-color="#59c8ff"/><stop offset="0.85" stop-color="#59c8ff"/><stop offset="1" stop-color="#0073e6"/></linearGradient><linearGradient id="未命名的渐变_102" x1="30.08" y1="65.07" x2="80.46" y2="14.69" gradientUnits="userSpaceOnUse"><stop offset="0" stop-color="#283140"/><stop offset="0.34" stop-color="#232b37"/><stop offset="0.9" stop-color="#15191f"/><stop offset="1" stop-color="#12161a"/></linearGradient><linearGradient id="未命名的渐变_276" x1="53.76" y1="23.07" x2="57.42" y2="16.71" gradientUnits="userSpaceOnUse"><stop offset="0" stop-color="#38455a"/><stop offset="0.2" stop-color="#7a98cc"/><stop offset="0.9" stop-color="#12161a"/><stop offset="1" stop-color="#283140"/></linearGradient><linearGradient id="未命名的渐变_276-2" x1="53.86" y1="60.55" x2="57.53" y2="54.19" xlink:href="#未命名的渐变_276"/><linearGradient id="未命名的渐变_276-3" x1="39.66" y1="40.59" x2="43.33" y2="34.24" xlink:href="#未命名的渐变_276"/><linearGradient id="未命名的渐变_276-4" x1="67.96" y1="43.02" x2="71.63" y2="36.67" xlink:href="#未命名的渐变_276"/><linearGradient id="未命名的渐变_276-5" x1="39.71" y1="59.33" x2="43.38" y2="52.97" xlink:href="#未命名的渐变_276"/><linearGradient id="未命名的渐变_276-6" x1="67.9" y1="24.28" x2="71.57" y2="17.93" xlink:href="#未命名的渐变_276"/><linearGradient id="未命名的渐变_276-7" x1="44.47" y1="72.53" x2="78.14" y2="14.21" xlink:href="#未命名的渐变_276"/><linearGradient id="未命名的渐变_1403" x1="47.51" y1="48.02" x2="60.36" y2="25.78" gradientUnits="userSpaceOnUse"><stop offset="0" stop-color="#283140"/><stop offset="0.1" stop-color="#12161a"/><stop offset="0.8" stop-color="#7a98cc"/><stop offset="1" stop-color="#38455a"/></linearGradient><linearGradient id="未命名的渐变_102-2" x1="50.2" y1="48.76" x2="67.96" y2="31" xlink:href="#未命名的渐变_102"/><linearGradient id="未命名的渐变_100" x1="52.95" y1="47.26" x2="62.12" y2="31.38" gradientUnits="userSpaceOnUse"><stop offset="0" stop-color="#0073e6"/><stop offset="0.1" stop-color="#1433cc"/><stop offset="0.8" stop-color="#59c8ff"/><stop offset="1" stop-color="#0073e6"/></linearGradient><linearGradient id="未命名的渐变_17280" x1="53.81" y1="47.17" x2="66.49" y2="34.49" gradientUnits="userSpaceOnUse"><stop offset="0" stop-color="#0073e6"/><stop offset="1" stop-color="#143ccc"/></linearGradient><linearGradient id="未命名的渐变_13" x1="9.58" y1="97.26" x2="96.88" y2="97.26" gradientUnits="userSpaceOnUse"><stop offset="0" stop-color="#89abe6"/><stop offset="1" stop-color="#547099"/></linearGradient><linearGradient id="未命名的渐变_102-3" x1="14.7" y1="122.48" x2="102.46" y2="34.71" xlink:href="#未命名的渐变_102"/><linearGradient id="未命名的渐变_13-2" x1="53.12" y1="122.4" x2="140.42" y2="122.4" xlink:href="#未命名的渐变_13"/><linearGradient id="未命名的渐变_102-4" x1="67.68" y1="157.88" x2="132.54" y2="93.02" xlink:href="#未命名的渐变_102"/><linearGradient id="未命名的渐变_54" x1="48.96" y1="133.27" x2="20.43" y2="104.74" gradientUnits="userSpaceOnUse"><stop offset="0" stop-color="#425266"/><stop offset="1" stop-color="#596b8c"/></linearGradient><linearGradient id="未命名的渐变_102-5" x1="51.32" y1="131.22" x2="64.66" y2="117.88" xlink:href="#未命名的渐变_102"/><linearGradient id="未命名的渐变_13-3" x1="18.22" y1="112.49" x2="64.82" y2="112.49" xlink:href="#未命名的渐变_13"/><linearGradient id="未命名的渐变_54-2" x1="48.96" y1="119.52" x2="20.43" y2="90.99" xlink:href="#未命名的渐变_54"/><linearGradient id="未命名的渐变_102-6" x1="51.32" y1="117.47" x2="64.66" y2="104.12" xlink:href="#未命名的渐变_102"/><linearGradient id="未命名的渐变_13-4" x1="18.22" y1="98.74" x2="64.82" y2="98.74" xlink:href="#未命名的渐变_13"/><linearGradient id="未命名的渐变_54-3" x1="69.16" y1="140.65" x2="4.25" y2="75.74" xlink:href="#未命名的渐变_54"/><linearGradient id="未命名的渐变_102-7" x1="46.84" y1="137.62" x2="140.19" y2="44.27" xlink:href="#未命名的渐变_102"/><linearGradient id="未命名的渐变_13-5" x1="16.43" y1="50.78" x2="133.91" y2="50.78" xlink:href="#未命名的渐变_13"/><linearGradient id="未命名的渐变_414" x1="75.17" y1="84.85" x2="75.17" y2="16.71" gradientUnits="userSpaceOnUse"><stop offset="0" stop-color="#99beff"/><stop offset="0.01" stop-color="#99beff" stop-opacity="0.96"/><stop offset="0.05" stop-color="#99beff" stop-opacity="0.78"/><stop offset="0.09" stop-color="#99beff" stop-opacity="0.61"/><stop offset="0.14" stop-color="#99beff" stop-opacity="0.47"/><stop offset="0.2" stop-color="#99beff" stop-opacity="0.34"/><stop offset="0.25" stop-color="#99beff" stop-opacity="0.23"/><stop offset="0.32" stop-color="#99beff" stop-opacity="0.15"/><stop offset="0.4" stop-color="#99beff" stop-opacity="0.08"/><stop offset="0.49" stop-color="#99beff" stop-opacity="0.03"/><stop offset="0.63" stop-color="#99beff" stop-opacity="0.01"/><stop offset="1" stop-color="#99beff" stop-opacity="0"/></linearGradient><linearGradient id="未命名的渐变_102-8" x1="46.97" y1="52.75" x2="71.99" y2="27.73" xlink:href="#未命名的渐变_102"/><linearGradient id="未命名的渐变_1403-2" x1="46.1" y1="52.2" x2="63.21" y2="22.57" xlink:href="#未命名的渐变_1403"/><linearGradient id="未命名的渐变_102-9" x1="76.85" y1="68.25" x2="99.76" y2="45.33" xlink:href="#未命名的渐变_102"/><linearGradient id="未命名的渐变_1403-3" x1="64.48" y1="61.06" x2="80.2" y2="33.84" xlink:href="#未命名的渐变_1403"/><linearGradient id="未命名的渐变_102-10" x1="65.2" y1="125.27" x2="130.09" y2="60.38" xlink:href="#未命名的渐变_102"/><linearGradient id="未命名的渐变_1827" x1="57.55" y1="117.19" x2="53.01" y2="112.65" xlink:href="#未命名的渐变_54"/><linearGradient id="未命名的渐变_13-6" x1="53.23" y1="90.33" x2="137.95" y2="90.33" xlink:href="#未命名的渐变_13"/><linearGradient id="未命名的渐变_102-11" x1="90.55" y1="83.65" x2="92.01" y2="83.65" xlink:href="#未命名的渐变_102"/><linearGradient id="未命名的渐变_1827-2" x1="95.12" y1="89.2" x2="83.2" y2="77.28" xlink:href="#未命名的渐变_54"/><linearGradient id="未命名的渐变_13-7" x1="87.73" y1="73.16" x2="91.97" y2="73.16" xlink:href="#未命名的渐变_13"/><linearGradient id="未命名的渐变_13-8" x1="73.54" y1="84.35" x2="77.78" y2="84.35" xlink:href="#未命名的渐变_13"/><linearGradient id="未命名的渐变_102-12" x1="58.13" y1="108.92" x2="80.03" y2="87.01" xlink:href="#未命名的渐变_102"/><linearGradient id="未命名的渐变_13-9" x1="70.48" y1="101.07" x2="63.44" y2="94.04" xlink:href="#未命名的渐变_13"/><linearGradient id="未命名的渐变_102-13" x1="103.33" y1="71.1" x2="122.22" y2="71.1" xlink:href="#未命名的渐变_102"/><linearGradient id="未命名的渐变_102-14" x1="104.73" y1="72.33" x2="122.22" y2="72.33" xlink:href="#未命名的渐变_102"/><linearGradient id="未命名的渐变_13-10" x1="101.92" y1="67.97" x2="106.15" y2="67.97" xlink:href="#未命名的渐变_13"/><linearGradient id="未命名的渐变_4-2" x1="62.4" y1="85.93" x2="98.84" y2="22.8" xlink:href="#未命名的渐变_4"/><linearGradient id="未命名的渐变_102-15" x1="70.23" y1="88.13" x2="120.62" y2="37.74" xlink:href="#未命名的渐变_102"/><linearGradient id="未命名的渐变_276-8" x1="93.91" y1="46.12" x2="97.58" y2="39.77" xlink:href="#未命名的渐变_276"/><linearGradient id="未命名的渐变_276-9" x1="94.02" y1="83.6" x2="97.69" y2="77.24" xlink:href="#未命名的渐变_276"/><linearGradient id="未命名的渐变_276-10" x1="79.81" y1="63.64" x2="83.48" y2="57.29" xlink:href="#未命名的渐变_276"/><linearGradient id="未命名的渐变_276-11" x1="108.12" y1="66.07" x2="111.79" y2="59.72" xlink:href="#未命名的渐变_276"/><linearGradient id="未命名的渐变_276-12" x1="79.87" y1="82.38" x2="83.53" y2="76.03" xlink:href="#未命名的渐变_276"/><linearGradient id="未命名的渐变_276-13" x1="108.06" y1="47.34" x2="111.73" y2="40.98" xlink:href="#未命名的渐变_276"/><linearGradient id="未命名的渐变_276-14" x1="84.63" y1="95.59" x2="118.3" y2="37.27" xlink:href="#未命名的渐变_276"/><linearGradient id="未命名的渐变_1403-4" x1="87.67" y1="71.08" x2="100.51" y2="48.83" xlink:href="#未命名的渐变_1403"/><linearGradient id="未命名的渐变_102-16" x1="90.36" y1="71.81" x2="108.11" y2="54.05" xlink:href="#未命名的渐变_102"/><linearGradient id="未命名的渐变_100-2" x1="93.11" y1="70.31" x2="102.28" y2="54.43" xlink:href="#未命名的渐变_100"/><linearGradient id="未命名的渐变_17280-2" x1="93.97" y1="70.22" x2="106.65" y2="57.54" xlink:href="#未命名的渐变_17280"/><linearGradient id="未命名的渐变_1827-3" x1="67.08" y1="141" x2="55.31" y2="129.23" xlink:href="#未命名的渐变_54"/><linearGradient id="未命名的渐变_13-11" x1="58.77" y1="125.86" x2="63.01" y2="125.86" xlink:href="#未命名的渐变_13"/><linearGradient id="未命名的渐变_1827-4" x1="95.41" y1="124.83" x2="83.64" y2="113.06" xlink:href="#未命名的渐变_54"/><linearGradient id="未命名的渐变_13-12" x1="87.1" y1="109.69" x2="91.34" y2="109.69" xlink:href="#未命名的渐变_13"/><linearGradient id="未命名的渐变_1827-5" x1="119.98" y1="110.44" x2="108.2" y2="98.67" xlink:href="#未命名的渐变_54"/><linearGradient id="未命名的渐变_13-13" x1="111.67" y1="95.3" x2="115.91" y2="95.3" xlink:href="#未命名的渐变_13"/><linearGradient id="未命名的渐变_1827-6" x1="139.04" y1="99.23" x2="127.27" y2="87.46" xlink:href="#未命名的渐变_54"/><linearGradient id="未命名的渐变_13-14" x1="130.74" y1="84.09" x2="134.97" y2="84.09" xlink:href="#未命名的渐变_13"/></defs><title>颚式破碎机</title><g id="图层_2" data-name="图层 2"><g id="图元"><g id="颚式破碎机"><g class="cls-3"><rect class="cls-4" width="150" height="150"/><rect id="网格" class="cls-5" width="150" height="150"/></g><g class="cls-6"><path class="cls-7" d="M62.14,1.74C57.44-1,50.94-.6,43.76,3.54,29.48,11.78,18,31.76,18,48.16,18,56.3,20.9,62,25.54,64.74L37,71.38c-4.64-2.7-7.52-8.43-7.54-16.58-.05-16.4,11.48-36.38,25.75-44.62C62.36,6,68.87,5.65,73.57,8.38Z"/><path class="cls-8" d="M73.57,8.39l-.35-.2a2.49,2.49,0,0,0-.4-.2,11.09,11.09,0,0,0-1.59-.66c-.28-.09-.56-.17-.85-.24s-.57-.14-.86-.2-.6-.1-.89-.13-.6-.07-.92-.09a14,14,0,0,0-1.59,0,12.69,12.69,0,0,0-1.35.11l-.69.09h0c-.46.07-.92.16-1.4.27-.24.06-.48.11-.71.18-.48.13-1,.27-1.46.44s-1,.35-1.49.55a30.11,30.11,0,0,0-3.83,1.89c-14.27,8.24-25.8,28.22-25.75,44.6,0,.4,0,.78,0,1.16,0,.06,0,.13,0,.2s0,.25,0,.37,0,.48.05.72c0,0,0,.06,0,.09,0,.2,0,.4.05.6a.89.89,0,0,0,0,.22s0,.06,0,.1a8.27,8.27,0,0,0,.11.87c.05.41.13.82.21,1.22l0,.19c.07.33.14.65.22,1a3,3,0,0,0,.11.4v0c.08.27.15.54.23.79s.08.23.11.34l0,.09c.1.32.21.61.33.9s.29.71.44,1l.09.17c.09.2.2.41.3.6,0,0,0,0,0,.06s.15.29.24.43l0,0q.2.34.39.66l0,.05a10.29,10.29,0,0,0,.61.86c.18.24.36.47.56.7l0,0,.16.18.62.66h0a.57.57,0,0,0,.14.13c.15.16.32.3.48.44l0,0,.16.14,0,0c.22.18.45.34.68.51l.06,0,.55.35.11.07,0,0h.05a.31.31,0,0,0,.09.07c4.7,2.73,11.21,2.35,18.38-1.8C69.62,61.34,81.16,41.36,81.11,25,81.08,16.82,78.21,11.08,73.57,8.39ZM41.87,36.52a5.67,5.67,0,0,1-2.25,2.79,2.3,2.3,0,0,1-1.09.34,3.55,3.55,0,0,1,.12-2.77,5.65,5.65,0,0,1,2.25-2.8A2.33,2.33,0,0,1,42,33.73,3.54,3.54,0,0,1,41.87,36.52ZM39.65,54a4.69,4.69,0,0,1,1.29-1.15A2.39,2.39,0,0,1,42,52.47c.55,1.07.09,3-1.06,4.42a4.58,4.58,0,0,1-1.29,1.16,2.42,2.42,0,0,1-1.1.35C38,57.33,38.49,55.42,39.65,54ZM55.1,54a2.31,2.31,0,0,1,1.09-.35,2.33,2.33,0,0,1,.23,1.08v0a5.41,5.41,0,0,1-1.05,2.95,4.94,4.94,0,0,1-1.55,1.51,2.18,2.18,0,0,1-1.09.34,2.45,2.45,0,0,1-.23-1.09A5.72,5.72,0,0,1,55.1,54Zm1.21-36.75a5.68,5.68,0,0,1-2.6,4.49,2.24,2.24,0,0,1-1.08.35,2.3,2.3,0,0,1-.23-1.08A5.7,5.7,0,0,1,55,16.56a2.31,2.31,0,0,1,1.09-.35A2.3,2.3,0,0,1,56.31,17.29Zm10.63,22a5.71,5.71,0,0,1,2.26-2.8,2.36,2.36,0,0,1,1.08-.35A3.63,3.63,0,0,1,70.17,39a2.43,2.43,0,0,1-.16.37h0a5.55,5.55,0,0,1-2.09,2.42,2.42,2.42,0,0,1-1,.34h-.13A3.52,3.52,0,0,1,66.94,39.31Zm2.22-17.46A4.56,4.56,0,0,1,67.86,23a2.32,2.32,0,0,1-1.08.35c-.55-1.07-.1-3,1-4.42a4.73,4.73,0,0,1,1.31-1.15,2.32,2.32,0,0,1,1.09-.35C70.77,18.51,70.32,20.41,69.16,21.85Z"/><path class="cls-9" d="M73.57,8.39l-.35-.2a2.49,2.49,0,0,0-.4-.2,11.09,11.09,0,0,0-1.59-.66c-.28-.09-.56-.17-.85-.24s-.57-.14-.86-.2-.6-.1-.89-.13-.6-.07-.92-.09a14,14,0,0,0-1.59,0,12.69,12.69,0,0,0-1.35.11l-.69.09h0c-.46.07-.92.16-1.4.27-.24.06-.48.11-.71.18-.48.13-1,.27-1.46.44s-1,.35-1.49.55a30.11,30.11,0,0,0-3.83,1.89c-14.27,8.24-25.8,28.22-25.75,44.6,0,.4,0,.78,0,1.16,0,.06,0,.13,0,.2s0,.25,0,.37,0,.48.05.72c0,0,0,.06,0,.09,0,.2,0,.4.05.6a.89.89,0,0,0,0,.22s0,.06,0,.1a8.27,8.27,0,0,0,.11.87c.05.41.13.82.21,1.22l0,.19c.07.33.14.65.22,1a3,3,0,0,0,.11.4v0c.08.27.15.54.23.79s.08.23.11.34l0,.09c.1.32.21.61.33.9s.29.71.44,1l.09.17c.09.2.2.41.3.6,0,0,0,0,0,.06s.15.29.24.43l0,0q.2.34.39.66l0,.05a10.29,10.29,0,0,0,.61.86c.18.24.36.47.56.7l0,0,.16.18.62.66h0a.57.57,0,0,0,.14.13c.15.16.32.3.48.44l0,0,.16.14,0,0c.22.18.45.34.68.51l.06,0,.55.35.11.07,0,0h.05a.31.31,0,0,0,.09.07c4.7,2.73,11.21,2.35,18.38-1.8C69.62,61.34,81.16,41.36,81.11,25,81.08,16.82,78.21,11.08,73.57,8.39ZM41.87,36.52a5.67,5.67,0,0,1-2.25,2.79,2.3,2.3,0,0,1-1.09.34,3.55,3.55,0,0,1,.12-2.77,5.65,5.65,0,0,1,2.25-2.8A2.33,2.33,0,0,1,42,33.73,3.54,3.54,0,0,1,41.87,36.52ZM39.65,54a4.69,4.69,0,0,1,1.29-1.15A2.39,2.39,0,0,1,42,52.47c.55,1.07.09,3-1.06,4.42a4.58,4.58,0,0,1-1.29,1.16,2.42,2.42,0,0,1-1.1.35C38,57.33,38.49,55.42,39.65,54ZM55.1,54a2.31,2.31,0,0,1,1.09-.35,2.33,2.33,0,0,1,.23,1.08v0a5.41,5.41,0,0,1-1.05,2.95,4.94,4.94,0,0,1-1.55,1.51,2.18,2.18,0,0,1-1.09.34,2.45,2.45,0,0,1-.23-1.09A5.72,5.72,0,0,1,55.1,54Zm1.21-36.75a5.68,5.68,0,0,1-2.6,4.49,2.24,2.24,0,0,1-1.08.35,2.3,2.3,0,0,1-.23-1.08A5.7,5.7,0,0,1,55,16.56a2.31,2.31,0,0,1,1.09-.35A2.3,2.3,0,0,1,56.31,17.29Zm10.63,22a5.71,5.71,0,0,1,2.26-2.8,2.36,2.36,0,0,1,1.08-.35A3.63,3.63,0,0,1,70.17,39a2.43,2.43,0,0,1-.16.37h0a5.55,5.55,0,0,1-2.09,2.42,2.42,2.42,0,0,1-1,.34h-.13A3.52,3.52,0,0,1,66.94,39.31Zm2.22-17.46A4.56,4.56,0,0,1,67.86,23a2.32,2.32,0,0,1-1.08.35c-.55-1.07-.1-3,1-4.42a4.73,4.73,0,0,1,1.31-1.15,2.32,2.32,0,0,1,1.09-.35C70.77,18.51,70.32,20.41,69.16,21.85Z"/><path class="cls-10" d="M78.29,23c0-.2,0-.4-.05-.59s0-.5-.07-.74l-.06-.44s0-.06,0-.09c0-.28-.08-.57-.14-.83s-.1-.56-.16-.84a.7.7,0,0,0,0-.12c-.08-.37-.17-.74-.27-1.1s-.15-.49-.23-.73-.17-.48-.26-.71-.17-.45-.26-.67-.27-.57-.42-.85c0,0,0,0,0,0q-.18-.34-.39-.69a2.39,2.39,0,0,0-.21-.34.18.18,0,0,0,0-.08l0-.05a.09.09,0,0,0,0-.06l-.2-.28s0,0,0,0,0,0-.05-.06a1.62,1.62,0,0,0-.2-.28s0,0,0,0h0a3.15,3.15,0,0,0-.24-.3L74.82,13a2.2,2.2,0,0,0-.2-.23,3.32,3.32,0,0,0-.25-.27,1.94,1.94,0,0,0-.28-.29l0,0s0,0,0,0-.2-.2-.31-.29h0l0,0q-.18-.16-.36-.3a8.14,8.14,0,0,0-.79-.56h0a2.85,2.85,0,0,0-.37-.23l-.27-.16a2,2,0,0,1-.27-.13A9.69,9.69,0,0,0,70.35,10a5.46,5.46,0,0,0-.66-.19c-.22-.07-.44-.11-.67-.16s-.49-.08-.72-.11-.49-.06-.78-.07-.5,0-.76,0l-.53,0c-.37,0-.74,0-1.14.09l-.66.09c-.38.06-.76.14-1.18.23-.19,0-.39.09-.58.15-.43.11-.86.24-1.28.38s-.9.32-1.34.5a25.6,25.6,0,0,0-3.49,1.72C43.07,20.36,32.13,39.3,32.18,54.79c0,.35,0,.69,0,1,0,0,0,.25,0,.32l0,.27c0,.19,0,.36,0,.57l0,.16v.18a1.77,1.77,0,0,0,0,.23l0,.09,0,.16v.32c0,.18,0,.39.08.64s.11.69.18,1l0,.23c.06.26.12.53.18.78l.06.23.14.39v.11a3.57,3.57,0,0,0,.12.4l.13.43c.08.23.16.45.27.71s.2.51.33.81l0,.05s.13.3.16.34h0l.22.44a1.14,1.14,0,0,0,.1.19l.05.07,0,.1c.09.16.18.3.27.45l.13.16,0,.08a2.14,2.14,0,0,0,.13.19,4.73,4.73,0,0,0,.28.39l.39.48.11.13.1.11.3.33h.16l.69.76.11.09a3.59,3.59,0,0,0,.33.25l.08.05H38l.56.56a10.64,10.64,0,0,0,5.22,1.26A21,21,0,0,0,54,67.2C67.47,59.4,78.4,40.46,78.36,25,78.36,24.3,78.33,23.65,78.29,23ZM66.94,39.31a5.71,5.71,0,0,1,2.26-2.8,2.36,2.36,0,0,1,1.08-.35A3.63,3.63,0,0,1,70.17,39a2.43,2.43,0,0,1-.16.37h0a5.55,5.55,0,0,1-2.09,2.42,2.42,2.42,0,0,1-1,.34h-.13A3.52,3.52,0,0,1,66.94,39.31Zm.89-20.38a4.73,4.73,0,0,1,1.31-1.15,2.32,2.32,0,0,1,1.09-.35c.54,1.08.09,3-1.07,4.42A4.56,4.56,0,0,1,67.86,23a2.32,2.32,0,0,1-1.08.35C66.23,22.28,66.68,20.36,67.83,18.93ZM55.1,54a2.31,2.31,0,0,1,1.09-.35,2.33,2.33,0,0,1,.23,1.08v0a5.41,5.41,0,0,1-1.05,2.95,4.94,4.94,0,0,1-1.55,1.51,2.18,2.18,0,0,1-1.09.34,2.45,2.45,0,0,1-.23-1.09A5.72,5.72,0,0,1,55.1,54ZM55,16.56a2.31,2.31,0,0,1,1.09-.35,2.3,2.3,0,0,1,.23,1.08,5.68,5.68,0,0,1-2.6,4.49,2.24,2.24,0,0,1-1.08.35,2.3,2.3,0,0,1-.23-1.08A5.7,5.7,0,0,1,55,16.56ZM39.65,54a4.69,4.69,0,0,1,1.29-1.15A2.39,2.39,0,0,1,42,52.47c.55,1.07.09,3-1.06,4.42a4.58,4.58,0,0,1-1.29,1.16,2.42,2.42,0,0,1-1.1.35C38,57.33,38.49,55.42,39.65,54Zm-1-17.09a5.65,5.65,0,0,1,2.25-2.8A2.33,2.33,0,0,1,42,33.73a3.54,3.54,0,0,1-.11,2.79,5.67,5.67,0,0,1-2.25,2.79,2.3,2.3,0,0,1-1.09.34A3.55,3.55,0,0,1,38.65,36.88Z"/><path class="cls-11" d="M43.16,37.27a5.67,5.67,0,0,1-2.25,2.79,2.37,2.37,0,0,1-1.31.35,1.26,1.26,0,0,1-1.07-.76,2.3,2.3,0,0,0,1.09-.34,5.67,5.67,0,0,0,2.25-2.79A3.54,3.54,0,0,0,42,33.73h.22a1.19,1.19,0,0,1,.55.18C43.55,34.37,43.76,35.73,43.16,37.27Z"/><path class="cls-11" d="M42.26,57.64A4.58,4.58,0,0,1,41,58.8a1.83,1.83,0,0,1-1.85.18,1.22,1.22,0,0,1-.42-.37l-.12-.21a2.42,2.42,0,0,0,1.1-.35A4.58,4.58,0,0,0,41,56.89c1.15-1.44,1.61-3.35,1.06-4.42a1.28,1.28,0,0,1,.76.17,1.47,1.47,0,0,1,.42.37C43.92,54,43.5,56.1,42.26,57.64Z"/><path class="cls-11" d="M57.71,55.53A5.17,5.17,0,0,1,57,58h0a5.32,5.32,0,0,1-1.88,2,1.86,1.86,0,0,1-1.86.18,1.39,1.39,0,0,1-.53-.59,2.18,2.18,0,0,0,1.09-.34,4.94,4.94,0,0,0,1.55-1.51,5.41,5.41,0,0,0,1.05-2.95v0a2.33,2.33,0,0,0-.23-1.08,1.3,1.3,0,0,1,.76.17.67.67,0,0,1,.19.14A1.93,1.93,0,0,1,57.71,55.53Z"/><path class="cls-11" d="M57.6,18A5.72,5.72,0,0,1,55,22.54a1.86,1.86,0,0,1-1.86.18,1.31,1.31,0,0,1-.52-.59,2.24,2.24,0,0,0,1.08-.35,5.68,5.68,0,0,0,2.6-4.49,2.3,2.3,0,0,0-.23-1.08,1.29,1.29,0,0,1,.76.16A1.83,1.83,0,0,1,57.6,18Z"/><path class="cls-11" d="M70.46,22.6a5.13,5.13,0,0,1-1.31,1.16,1.86,1.86,0,0,1-1.84.18,1.34,1.34,0,0,1-.41-.38,1.05,1.05,0,0,1-.12-.21A2.32,2.32,0,0,0,67.86,23a4.56,4.56,0,0,0,1.3-1.15c1.16-1.44,1.61-3.34,1.07-4.42a1.33,1.33,0,0,1,.77.16,1.55,1.55,0,0,1,.4.37C72.11,19,71.69,21.06,70.46,22.6Z"/><path class="cls-11" d="M71.46,39.7a5.9,5.9,0,0,1-1.81,2.49,3.94,3.94,0,0,1-.44.31,2.34,2.34,0,0,1-1.3.35,1.32,1.32,0,0,1-.55-.18,1.19,1.19,0,0,1-.45-.44l-.08-.14H67a2.42,2.42,0,0,0,1-.34A5.55,5.55,0,0,0,70,39.32h0a2.43,2.43,0,0,0,.16-.37,3.63,3.63,0,0,0,.11-2.79h.21a1.19,1.19,0,0,1,.55.17C71.85,36.79,72.05,38.16,71.46,39.7Z"/><g class="cls-6"><path class="cls-12" d="M57.6,18A5.72,5.72,0,0,1,55,22.54a1.86,1.86,0,0,1-1.86.18,1.31,1.31,0,0,1-.52-.59,2.24,2.24,0,0,0,1.08-.35,5.68,5.68,0,0,0,2.6-4.49,2.3,2.3,0,0,0-.23-1.08,1.29,1.29,0,0,1,.76.16A1.83,1.83,0,0,1,57.6,18Z"/></g><g class="cls-6"><path class="cls-13" d="M57.71,55.53A5.17,5.17,0,0,1,57,58h0a5.32,5.32,0,0,1-1.88,2,1.86,1.86,0,0,1-1.86.18,1.39,1.39,0,0,1-.53-.59,2.18,2.18,0,0,0,1.09-.34,4.94,4.94,0,0,0,1.55-1.51,5.41,5.41,0,0,0,1.05-2.95v0a2.33,2.33,0,0,0-.23-1.08,1.3,1.3,0,0,1,.76.17.67.67,0,0,1,.19.14A1.93,1.93,0,0,1,57.71,55.53Z"/></g><g class="cls-6"><path class="cls-14" d="M43.16,37.27a5.67,5.67,0,0,1-2.25,2.79,2.37,2.37,0,0,1-1.31.35,1.26,1.26,0,0,1-1.07-.76,2.3,2.3,0,0,0,1.09-.34,5.67,5.67,0,0,0,2.25-2.79A3.54,3.54,0,0,0,42,33.73h.22a1.19,1.19,0,0,1,.55.18C43.55,34.37,43.76,35.73,43.16,37.27Z"/></g><g class="cls-6"><path class="cls-15" d="M71.46,39.7a5.9,5.9,0,0,1-1.81,2.49,3.94,3.94,0,0,1-.44.31,2.34,2.34,0,0,1-1.3.35,1.32,1.32,0,0,1-.55-.18,1.19,1.19,0,0,1-.45-.44l-.08-.14H67a2.42,2.42,0,0,0,1-.34A5.55,5.55,0,0,0,70,39.32h0a2.43,2.43,0,0,0,.16-.37,3.63,3.63,0,0,0,.11-2.79h.21a1.19,1.19,0,0,1,.55.17C71.85,36.79,72.05,38.16,71.46,39.7Z"/></g><g class="cls-6"><path class="cls-16" d="M42.26,57.64A4.58,4.58,0,0,1,41,58.8a1.83,1.83,0,0,1-1.85.18,1.22,1.22,0,0,1-.42-.37l-.12-.21a2.42,2.42,0,0,0,1.1-.35A4.58,4.58,0,0,0,41,56.89c1.15-1.44,1.61-3.35,1.06-4.42a1.28,1.28,0,0,1,.76.17,1.47,1.47,0,0,1,.42.37C43.92,54,43.5,56.1,42.26,57.64Z"/></g><g class="cls-6"><path class="cls-17" d="M70.46,22.6a5.13,5.13,0,0,1-1.31,1.16,1.86,1.86,0,0,1-1.84.18,1.34,1.34,0,0,1-.41-.38,1.05,1.05,0,0,1-.12-.21A2.32,2.32,0,0,0,67.86,23a4.56,4.56,0,0,0,1.3-1.15c1.16-1.44,1.61-3.34,1.07-4.42a1.33,1.33,0,0,1,.77.16,1.55,1.55,0,0,1,.4.37C72.11,19,71.69,21.06,70.46,22.6Z"/></g><path class="cls-18" d="M78.36,25C78.4,40.46,67.47,59.4,54,67.2a21,21,0,0,1-10.21,3.17,10.64,10.64,0,0,1-5.22-1.26L38,68.55h-.34l-.08-.05a3.59,3.59,0,0,1-.33-.25l-.11-.09-.69-.76h-.16l-.3-.33-.1-.11-.11-.13-.39-.48A4.73,4.73,0,0,1,35.1,66h.14l.56.56A10.74,10.74,0,0,0,41,67.78,21,21,0,0,0,51.23,64.6c13.49-7.78,24.42-26.73,24.38-42.23,0-4.79-1.09-8.71-3.11-11.41C76.29,13.39,78.34,18.32,78.36,25Z"/><g class="cls-6"><path class="cls-19" d="M61.65,26.52c-1.65-1-3.94-.82-6.47.64-5,2.9-9.1,9.94-9.08,15.72,0,2.87,1,4.89,2.65,5.85L52.63,51C51,50,50,48,50,45.14c0-5.78,4.05-12.82,9.08-15.73,2.53-1.46,4.82-1.6,6.48-.63Z"/><path class="cls-20" d="M59.05,29.41C54,32.32,50,39.36,50,45.14s4.11,8.11,9.14,5.2,9.09-9.94,9.08-15.72S64.08,26.51,59.05,29.41Z"/></g><g class="cls-6"><path class="cls-21" d="M64.11,32.53c-1.18-.69-2.82-.59-4.63.45A14.3,14.3,0,0,0,53,44.21c0,2,.73,3.49,1.9,4.17l.64.38c-1.16-.68-1.89-2.12-1.89-4.18a14.28,14.28,0,0,1,6.48-11.22c1.81-1,3.44-1.14,4.63-.46Z"/><path class="cls-22" d="M60.13,33.36a14.28,14.28,0,0,0-6.48,11.22c0,4.13,2.93,5.8,6.52,3.72a14.23,14.23,0,0,0,6.48-11.23C66.64,33,63.72,31.28,60.13,33.36Z"/></g></g><g class="cls-6"><polygon class="cls-23" points="90.2 71.91 9.58 118.76 16.26 122.62 96.88 75.76 90.2 71.91"/><polygon class="cls-24" points="18.34 78.06 18.2 125.98 98.82 79.13 98.95 31.2 18.34 78.06"/><polygon class="cls-25" points="133.74 97.05 53.12 143.9 59.81 147.76 140.42 100.91 133.74 97.05"/><polygon class="cls-26" points="133.74 97.05 53.12 143.9 59.81 147.76 140.42 100.91 133.74 97.05"/><polygon class="cls-27" points="59.81 147.76 59.8 150 140.42 103.15 140.42 100.91 59.81 147.76"/><g class="cls-6"><polygon class="cls-28" points="18.22 106.95 18.2 112.04 51.16 131.06 51.18 125.98 18.22 106.95"/><polygon class="cls-29" points="51.18 125.98 51.16 131.06 64.81 123.12 64.82 118.03 51.18 125.98"/><polygon class="cls-30" points="31.86 99 18.22 106.95 51.18 125.98 64.82 118.03 31.86 99"/></g><g class="cls-6"><polygon class="cls-31" points="18.22 93.2 18.2 98.28 51.16 117.31 51.18 112.23 18.22 93.2"/><polygon class="cls-32" points="51.18 112.23 51.16 117.31 64.81 109.36 64.82 104.28 51.18 112.23"/><polygon class="cls-33" points="31.86 85.25 18.22 93.2 51.18 112.23 64.82 104.28 31.86 85.25"/></g><polygon class="cls-34" points="53.12 143.9 53.29 84.85 16.43 63.56 16.26 122.62 9.58 118.76 9.58 121 18.2 125.98 18.34 78.06 51.3 97.08 51.16 145.01 59.8 150 59.81 147.76 53.12 143.9"/><polygon class="cls-35" points="53.29 84.85 53.12 143.9 133.74 97.05 133.91 37.99 53.29 84.85"/><polygon class="cls-36" points="97.04 16.71 16.43 63.56 53.29 84.85 133.91 37.99 97.04 16.71"/><path class="cls-37" d="M97,17.29,132.91,38,53.29,84.27,17.43,63.56,97,17.29m0-.58L16.43,63.57,53.29,84.85,133.91,38,97,16.71Z"/></g><g class="cls-6"><path class="cls-38" d="M61,28.12C53.13,32.64,46.8,43.61,46.82,52.61L75.2,36.23C75.17,27.23,68.81,23.59,61,28.12Z"/><path class="cls-39" d="M65.42,23.85c-2.58-1.5-6.15-1.28-10.09,1-7.84,4.53-14.17,15.49-14.14,24.5l5.63,3.27c0-9,6.31-20,14.14-24.49,3.95-2.28,7.52-2.49,10.1-1Z"/></g><g class="cls-6"><path class="cls-40" d="M89.67,45.69c-7.18,4.14-13,14.18-13,22.43l26-15C102.68,44.87,96.85,41.54,89.67,45.69Z"/><path class="cls-41" d="M70.66,28.33c-2.37-1.37-5.64-1.18-9.25.91-7.18,4.14-13,14.18-13,22.43L76.71,68.12c0-8.25,5.78-18.29,13-22.43,3.61-2.09,6.88-2.28,9.25-.91Z"/></g><g class="cls-6"><polygon class="cls-42" points="137.95 68.24 57.33 114.78 57.34 117.41 137.95 70.86 137.95 68.24"/><polygon class="cls-43" points="57.33 114.78 53.23 112.43 53.23 115.05 57.34 117.41 57.33 114.78"/><polygon class="cls-44" points="133.85 65.88 53.23 112.43 57.33 114.78 137.95 68.24 133.85 65.88"/><polygon class="cls-26" points="133.85 65.88 53.23 112.43 57.33 114.78 137.95 68.24 133.85 65.88"/></g><g class="cls-6"><polygon class="cls-45" points="91.97 73.57 92.01 92.91 90.59 93.73 90.55 74.39 91.97 73.57"/><polygon class="cls-46" points="90.59 93.73 87.78 92.09 87.73 72.75 90.55 74.39 90.59 93.73"/><polygon class="cls-47" points="90.55 74.39 87.73 72.75 89.15 71.93 91.97 73.57 90.55 74.39"/></g><g class="cls-6"><polygon class="cls-48" points="74.96 83.12 73.54 83.94 76.36 85.58 77.78 84.76 74.96 83.12"/><polygon class="cls-49" points="76.36 85.58 60.38 111.17 61.8 110.36 77.78 84.76 76.36 85.58"/><polygon class="cls-50" points="73.54 83.94 57.56 109.53 60.38 111.17 76.36 85.58 73.54 83.94"/><polygon class="cls-26" points="73.54 83.94 57.56 109.53 60.38 111.17 76.36 85.58 73.54 83.94"/></g><g class="cls-6"><polygon class="cls-51" points="119.41 73.83 103.33 66.74 106.15 68.38 122.22 75.47 119.41 73.83"/><polygon class="cls-52" points="106.15 68.38 104.73 69.19 120.81 76.29 122.22 75.47 106.15 68.38"/><polygon class="cls-53" points="103.33 66.74 101.92 67.56 104.73 69.19 106.15 68.38 103.33 66.74"/></g><g class="cls-6"><path class="cls-54" d="M102.3,24.8c-4.7-2.73-11.21-2.35-18.39,1.8-14.27,8.24-25.8,28.22-25.75,44.61,0,8.15,2.9,13.88,7.54,16.58l11.42,6.64c-4.64-2.7-7.51-8.43-7.54-16.58,0-16.39,11.49-36.37,25.76-44.61,7.18-4.15,13.69-4.53,18.39-1.8Z"/><path class="cls-55" d="M113.73,31.44l-.35-.2L113,31a10.52,10.52,0,0,0-1.6-.65c-.27-.09-.56-.18-.84-.25S110,30,109.68,30s-.6-.1-.89-.14-.61-.06-.92-.08a12.14,12.14,0,0,0-1.6,0c-.44,0-.88.05-1.34.11l-.69.09h0c-.47.07-.93.17-1.4.28l-.72.17c-.47.13-1,.28-1.46.44s-1,.35-1.48.55a30.8,30.8,0,0,0-3.83,1.89c-14.27,8.24-25.8,28.22-25.76,44.6,0,.4,0,.78,0,1.16,0,.06,0,.14,0,.2s0,.25,0,.37,0,.48,0,.72c0,0,0,.07,0,.09,0,.21,0,.4.06.6a1.64,1.64,0,0,0,0,.22s0,.06,0,.1c0,.29.07.59.11.87s.13.83.21,1.22a1.06,1.06,0,0,0,0,.19c.06.33.14.66.22,1,0,.13.06.26.1.39a.09.09,0,0,0,0,0c.07.26.15.53.23.79s.07.23.11.34l0,.09c.1.31.21.6.33.9s.28.7.44,1a.56.56,0,0,0,.09.17c.09.21.19.41.29.6,0,0,0,0,0,.06a4.77,4.77,0,0,0,.24.44l0,0a7.16,7.16,0,0,0,.39.66l0,.06c.19.29.39.57.6.85s.37.48.57.71h0c0,.06.1.12.15.18l.63.66,0,0,.14.12c.16.16.32.31.49.45h0l.16.14,0,0c.22.18.45.35.68.51l0,0,.55.36a.39.39,0,0,1,.11.06l0,0H77l.09.06c4.69,2.73,11.2,2.35,18.38-1.8,14.27-8.24,25.8-28.22,25.76-44.62C121.24,39.87,118.37,34.14,113.73,31.44ZM82,59.57a5.56,5.56,0,0,1-2.24,2.79,2.47,2.47,0,0,1-1.09.35,3.56,3.56,0,0,1,.11-2.78,5.7,5.7,0,0,1,2.25-2.8,2.36,2.36,0,0,1,1.08-.35A3.54,3.54,0,0,1,82,59.57ZM79.8,77a5.05,5.05,0,0,1,1.3-1.15,2.22,2.22,0,0,1,1.09-.34c.55,1.06.09,3-1.07,4.41a4.58,4.58,0,0,1-1.29,1.16,2.35,2.35,0,0,1-1.09.35C78.19,80.38,78.65,78.47,79.8,77Zm15.45.07a2.34,2.34,0,0,1,1.09-.35,2.38,2.38,0,0,1,.23,1.09v0a5.48,5.48,0,0,1-1,3A5,5,0,0,1,94,82.32a2.34,2.34,0,0,1-1.09.35,2.35,2.35,0,0,1-.23-1.09A5.73,5.73,0,0,1,95.25,77.09Zm1.21-36.75a5.69,5.69,0,0,1-2.59,4.5,2.27,2.27,0,0,1-1.08.35,2.38,2.38,0,0,1-.23-1.09,5.7,5.7,0,0,1,2.58-4.49,2.34,2.34,0,0,1,1.09-.35A2.33,2.33,0,0,1,96.46,40.34Zm10.64,22a5.76,5.76,0,0,1,2.26-2.8,2.33,2.33,0,0,1,1.08-.35,3.63,3.63,0,0,1-.11,2.79,2.48,2.48,0,0,1-.17.37h0a5.54,5.54,0,0,1-2.09,2.42,2.66,2.66,0,0,1-.95.34H107A3.54,3.54,0,0,1,107.1,62.36Zm2.22-17.46a4.61,4.61,0,0,1-1.3,1.16,2.35,2.35,0,0,1-1.09.35c-.55-1.08-.1-3,1.06-4.42a4.75,4.75,0,0,1,1.3-1.16,2.35,2.35,0,0,1,1.09-.35C110.92,41.56,110.47,43.46,109.32,44.9Z"/><path class="cls-9" d="M113.73,31.44l-.35-.2L113,31a10.52,10.52,0,0,0-1.6-.65c-.27-.09-.56-.18-.84-.25S110,30,109.68,30s-.6-.1-.89-.14-.61-.06-.92-.08a12.14,12.14,0,0,0-1.6,0c-.44,0-.88.05-1.34.11l-.69.09h0c-.47.07-.93.17-1.4.28l-.72.17c-.47.13-1,.28-1.46.44s-1,.35-1.48.55a30.8,30.8,0,0,0-3.83,1.89c-14.27,8.24-25.8,28.22-25.76,44.6,0,.4,0,.78,0,1.16,0,.06,0,.14,0,.2s0,.25,0,.37,0,.48,0,.72c0,0,0,.07,0,.09,0,.21,0,.4.06.6a1.64,1.64,0,0,0,0,.22s0,.06,0,.1c0,.29.07.59.11.87s.13.83.21,1.22a1.06,1.06,0,0,0,0,.19c.06.33.14.66.22,1,0,.13.06.26.1.39a.09.09,0,0,0,0,0c.07.26.15.53.23.79s.07.23.11.34l0,.09c.1.31.21.6.33.9s.28.7.44,1a.56.56,0,0,0,.09.17c.09.21.19.41.29.6,0,0,0,0,0,.06a4.77,4.77,0,0,0,.24.44l0,0a7.16,7.16,0,0,0,.39.66l0,.06c.19.29.39.57.6.85s.37.48.57.71h0c0,.06.1.12.15.18l.63.66,0,0,.14.12c.16.16.32.31.49.45h0l.16.14,0,0c.22.18.45.35.68.51l0,0,.55.36a.39.39,0,0,1,.11.06l0,0H77l.09.06c4.69,2.73,11.2,2.35,18.38-1.8,14.27-8.24,25.8-28.22,25.76-44.62C121.24,39.87,118.37,34.14,113.73,31.44ZM82,59.57a5.56,5.56,0,0,1-2.24,2.79,2.47,2.47,0,0,1-1.09.35,3.56,3.56,0,0,1,.11-2.78,5.7,5.7,0,0,1,2.25-2.8,2.36,2.36,0,0,1,1.08-.35A3.54,3.54,0,0,1,82,59.57ZM79.8,77a5.05,5.05,0,0,1,1.3-1.15,2.22,2.22,0,0,1,1.09-.34c.55,1.06.09,3-1.07,4.41a4.58,4.58,0,0,1-1.29,1.16,2.35,2.35,0,0,1-1.09.35C78.19,80.38,78.65,78.47,79.8,77Zm15.45.07a2.34,2.34,0,0,1,1.09-.35,2.38,2.38,0,0,1,.23,1.09v0a5.48,5.48,0,0,1-1,3A5,5,0,0,1,94,82.32a2.34,2.34,0,0,1-1.09.35,2.35,2.35,0,0,1-.23-1.09A5.73,5.73,0,0,1,95.25,77.09Zm1.21-36.75a5.69,5.69,0,0,1-2.59,4.5,2.27,2.27,0,0,1-1.08.35,2.38,2.38,0,0,1-.23-1.09,5.7,5.7,0,0,1,2.58-4.49,2.34,2.34,0,0,1,1.09-.35A2.33,2.33,0,0,1,96.46,40.34Zm10.64,22a5.76,5.76,0,0,1,2.26-2.8,2.33,2.33,0,0,1,1.08-.35,3.63,3.63,0,0,1-.11,2.79,2.48,2.48,0,0,1-.17.37h0a5.54,5.54,0,0,1-2.09,2.42,2.66,2.66,0,0,1-.95.34H107A3.54,3.54,0,0,1,107.1,62.36Zm2.22-17.46a4.61,4.61,0,0,1-1.3,1.16,2.35,2.35,0,0,1-1.09.35c-.55-1.08-.1-3,1.06-4.42a4.75,4.75,0,0,1,1.3-1.16,2.35,2.35,0,0,1,1.09-.35C110.92,41.56,110.47,43.46,109.32,44.9Z"/><path class="cls-10" d="M118.44,46.07c0-.21,0-.41,0-.6s-.05-.5-.08-.73l0-.44s0-.07,0-.1c-.05-.28-.08-.56-.14-.83s-.1-.56-.16-.83a.42.42,0,0,0,0-.12c-.08-.38-.18-.75-.28-1.1s-.14-.5-.23-.74-.16-.47-.25-.71l-.27-.66c-.13-.3-.26-.58-.41-.85,0,0,0,0,0,0-.12-.24-.26-.47-.4-.7a1.36,1.36,0,0,0-.21-.34.16.16,0,0,0,0-.07s0,0,0-.06l0-.05a1.87,1.87,0,0,0-.2-.29s0,0,0,0a.15.15,0,0,0,0-.06,2.34,2.34,0,0,0-.2-.27v0h0l-.24-.31-.07-.09a2.19,2.19,0,0,0-.21-.23,3.27,3.27,0,0,0-.24-.27c-.1-.1-.19-.2-.29-.29l0,0s0,0,0,0a2.7,2.7,0,0,0-.31-.28h0l0,0a3.05,3.05,0,0,0-.36-.29,7.06,7.06,0,0,0-.78-.57,0,0,0,0,0,0,0c-.12-.08-.24-.16-.37-.23l-.28-.16-.26-.12a9.45,9.45,0,0,0-1.24-.5c-.22-.07-.44-.14-.66-.19s-.45-.11-.68-.16l-.71-.11-.78-.07c-.25,0-.51,0-.76,0l-.54,0c-.36,0-.74,0-1.13.09l-.66.09c-.39.06-.76.14-1.19.23-.19.05-.38.09-.57.15-.43.11-.86.25-1.29.38s-.9.32-1.34.5a28.13,28.13,0,0,0-3.49,1.72c-13.49,7.8-24.42,26.73-24.38,42.22,0,.35,0,.69,0,1,0,0,0,.25,0,.32l0,.28c0,.18,0,.36,0,.57l0,.15v.19c0,.07,0,.14,0,.22l0,.1,0,.15v.32c0,.19,0,.39.09.64s.11.69.18,1l0,.23c0,.27.12.53.18.78l0,.23.14.39v.11l.12.4.14.43c.07.23.15.45.26.72s.21.5.33.8l0,.06s.13.29.16.34h0l.22.44a.81.81,0,0,0,.1.18l0,.07.06.1c.09.16.17.31.26.45l.13.17,0,.07a1.07,1.07,0,0,0,.13.19c.08.13.18.26.28.4s.27.34.39.47L76,90l.1.11.3.33h.16l.68.76.11.1a3.43,3.43,0,0,0,.33.24l.09,0h.33l.56.56a10.8,10.8,0,0,0,5.22,1.25,21,21,0,0,0,10.22-3.17c13.48-7.79,24.42-26.74,24.37-42.23C118.51,47.35,118.49,46.7,118.44,46.07ZM107.1,62.36a5.76,5.76,0,0,1,2.26-2.8,2.33,2.33,0,0,1,1.08-.35,3.63,3.63,0,0,1-.11,2.79,2.48,2.48,0,0,1-.17.37h0a5.54,5.54,0,0,1-2.09,2.42,2.66,2.66,0,0,1-.95.34H107A3.54,3.54,0,0,1,107.1,62.36ZM108,42a4.75,4.75,0,0,1,1.3-1.16,2.35,2.35,0,0,1,1.09-.35c.54,1.08.09,3-1.06,4.42a4.61,4.61,0,0,1-1.3,1.16,2.35,2.35,0,0,1-1.09.35C106.38,45.33,106.83,43.42,108,42ZM95.25,77.09a2.34,2.34,0,0,1,1.09-.35,2.38,2.38,0,0,1,.23,1.09v0a5.48,5.48,0,0,1-1,3A5,5,0,0,1,94,82.32a2.34,2.34,0,0,1-1.09.35,2.35,2.35,0,0,1-.23-1.09A5.73,5.73,0,0,1,95.25,77.09Zm-.11-37.48a2.34,2.34,0,0,1,1.09-.35,2.33,2.33,0,0,1,.23,1.08,5.69,5.69,0,0,1-2.59,4.5,2.27,2.27,0,0,1-1.08.35,2.38,2.38,0,0,1-.23-1.09A5.7,5.7,0,0,1,95.14,39.61ZM79.8,77a5.05,5.05,0,0,1,1.3-1.15,2.22,2.22,0,0,1,1.09-.34c.55,1.06.09,3-1.07,4.41a4.58,4.58,0,0,1-1.29,1.16,2.35,2.35,0,0,1-1.09.35C78.19,80.38,78.65,78.47,79.8,77Zm-1-17.09a5.7,5.7,0,0,1,2.25-2.8,2.36,2.36,0,0,1,1.08-.35A3.54,3.54,0,0,1,82,59.57a5.56,5.56,0,0,1-2.24,2.79,2.47,2.47,0,0,1-1.09.35A3.56,3.56,0,0,1,78.8,59.93Z"/><path class="cls-11" d="M83.32,60.32a5.62,5.62,0,0,1-2.25,2.79,2.24,2.24,0,0,1-1.31.35,1.15,1.15,0,0,1-.55-.17,1.23,1.23,0,0,1-.52-.58,2.47,2.47,0,0,0,1.09-.35A5.56,5.56,0,0,0,82,59.57a3.54,3.54,0,0,0,.11-2.79h.22a1.28,1.28,0,0,1,.55.18C83.71,57.43,83.91,58.78,83.32,60.32Z"/><path class="cls-11" d="M82.42,80.7a4.87,4.87,0,0,1-1.3,1.15,1.84,1.84,0,0,1-1.85.19,1.46,1.46,0,0,1-.41-.38,2.25,2.25,0,0,1-.12-.21,2.35,2.35,0,0,0,1.09-.35,4.58,4.58,0,0,0,1.29-1.16c1.16-1.43,1.62-3.35,1.07-4.41a1.29,1.29,0,0,1,.76.16,1.34,1.34,0,0,1,.41.38C84.08,77.08,83.66,79.16,82.42,80.7Z"/><path class="cls-11" d="M97.87,78.58A5.29,5.29,0,0,1,97.16,81h0a5.36,5.36,0,0,1-1.88,2,1.84,1.84,0,0,1-1.85.18,1.36,1.36,0,0,1-.53-.58A2.34,2.34,0,0,0,94,82.32a5,5,0,0,0,1.55-1.5,5.48,5.48,0,0,0,1-3v0a2.38,2.38,0,0,0-.23-1.09,1.39,1.39,0,0,1,.77.17.9.9,0,0,1,.19.15A1.89,1.89,0,0,1,97.87,78.58Z"/><path class="cls-11" d="M97.76,41.1a5.71,5.71,0,0,1-2.6,4.49,1.81,1.81,0,0,1-1.85.18,1.34,1.34,0,0,1-.52-.58,2.27,2.27,0,0,0,1.08-.35,5.69,5.69,0,0,0,2.59-4.5,2.33,2.33,0,0,0-.23-1.08,1.31,1.31,0,0,1,.77.17A1.83,1.83,0,0,1,97.76,41.1Z"/><path class="cls-11" d="M110.61,45.65a4.77,4.77,0,0,1-1.3,1.16,1.84,1.84,0,0,1-1.84.18,1.47,1.47,0,0,1-.42-.37l-.12-.21a2.35,2.35,0,0,0,1.09-.35,4.61,4.61,0,0,0,1.3-1.16c1.15-1.44,1.6-3.34,1.06-4.42a1.24,1.24,0,0,1,.77.17,1.27,1.27,0,0,1,.41.36C112.27,42,111.85,44.11,110.61,45.65Z"/><path class="cls-11" d="M111.62,62.75a5.93,5.93,0,0,1-1.82,2.5,2.45,2.45,0,0,1-.44.3,2.26,2.26,0,0,1-1.3.35,1.24,1.24,0,0,1-.55-.18,1.18,1.18,0,0,1-.45-.44.83.83,0,0,0-.07-.13h.13a2.66,2.66,0,0,0,.95-.34,5.54,5.54,0,0,0,2.09-2.42h0a2.48,2.48,0,0,0,.17-.37,3.63,3.63,0,0,0,.11-2.79h.21a1.37,1.37,0,0,1,.55.17C112,59.85,112.21,61.21,111.62,62.75Z"/><g class="cls-6"><path class="cls-56" d="M97.76,41.1a5.71,5.71,0,0,1-2.6,4.49,1.81,1.81,0,0,1-1.85.18,1.34,1.34,0,0,1-.52-.58,2.27,2.27,0,0,0,1.08-.35,5.69,5.69,0,0,0,2.59-4.5,2.33,2.33,0,0,0-.23-1.08,1.31,1.31,0,0,1,.77.17A1.83,1.83,0,0,1,97.76,41.1Z"/></g><g class="cls-6"><path class="cls-57" d="M97.87,78.58A5.29,5.29,0,0,1,97.16,81h0a5.36,5.36,0,0,1-1.88,2,1.84,1.84,0,0,1-1.85.18,1.36,1.36,0,0,1-.53-.58A2.34,2.34,0,0,0,94,82.32a5,5,0,0,0,1.55-1.5,5.48,5.48,0,0,0,1-3v0a2.38,2.38,0,0,0-.23-1.09,1.39,1.39,0,0,1,.77.17.9.9,0,0,1,.19.15A1.89,1.89,0,0,1,97.87,78.58Z"/></g><g class="cls-6"><path class="cls-58" d="M83.32,60.32a5.62,5.62,0,0,1-2.25,2.79,2.24,2.24,0,0,1-1.31.35,1.15,1.15,0,0,1-.55-.17,1.23,1.23,0,0,1-.52-.58,2.47,2.47,0,0,0,1.09-.35A5.56,5.56,0,0,0,82,59.57a3.54,3.54,0,0,0,.11-2.79h.22a1.28,1.28,0,0,1,.55.18C83.71,57.43,83.91,58.78,83.32,60.32Z"/></g><g class="cls-6"><path class="cls-59" d="M111.62,62.75a5.93,5.93,0,0,1-1.82,2.5,2.45,2.45,0,0,1-.44.3,2.26,2.26,0,0,1-1.3.35,1.24,1.24,0,0,1-.55-.18,1.18,1.18,0,0,1-.45-.44.83.83,0,0,0-.07-.13h.13a2.66,2.66,0,0,0,.95-.34,5.54,5.54,0,0,0,2.09-2.42h0a2.48,2.48,0,0,0,.17-.37,3.63,3.63,0,0,0,.11-2.79h.21a1.37,1.37,0,0,1,.55.17C112,59.85,112.21,61.21,111.62,62.75Z"/></g><g class="cls-6"><path class="cls-60" d="M82.42,80.7a4.87,4.87,0,0,1-1.3,1.15,1.84,1.84,0,0,1-1.85.19,1.46,1.46,0,0,1-.41-.38,2.25,2.25,0,0,1-.12-.21,2.35,2.35,0,0,0,1.09-.35,4.58,4.58,0,0,0,1.29-1.16c1.16-1.43,1.62-3.35,1.07-4.41a1.29,1.29,0,0,1,.76.16,1.34,1.34,0,0,1,.41.38C84.08,77.08,83.66,79.16,82.42,80.7Z"/></g><g class="cls-6"><path class="cls-61" d="M110.61,45.65a4.77,4.77,0,0,1-1.3,1.16,1.84,1.84,0,0,1-1.84.18,1.47,1.47,0,0,1-.42-.37l-.12-.21a2.35,2.35,0,0,0,1.09-.35,4.61,4.61,0,0,0,1.3-1.16c1.15-1.44,1.6-3.34,1.06-4.42a1.24,1.24,0,0,1,.77.17,1.27,1.27,0,0,1,.41.36C112.27,42,111.85,44.11,110.61,45.65Z"/></g><path class="cls-62" d="M118.51,48c0,15.49-10.89,34.44-24.37,42.23a21,21,0,0,1-10.22,3.17,10.8,10.8,0,0,1-5.22-1.25l-.56-.56h-.33l-.09,0a3.43,3.43,0,0,1-.33-.24l-.11-.1-.68-.76h-.16l-.3-.33L76,90l-.11-.13c-.12-.13-.25-.3-.39-.47s-.2-.27-.28-.4h.13l.56.56a10.7,10.7,0,0,0,5.22,1.27,21,21,0,0,0,10.21-3.18c13.49-7.79,24.43-26.74,24.38-42.24,0-4.79-1.09-8.71-3.1-11.41C116.44,36.44,118.5,41.37,118.51,48Z"/><g class="cls-6"><path class="cls-63" d="M101.81,49.58c-1.66-1-4-.83-6.48.63-5,2.91-9.09,9.95-9.08,15.72,0,2.88,1,4.9,2.66,5.85L92.79,74c-1.64-1-2.65-3-2.66-5.84,0-5.78,4.05-12.82,9.08-15.73,2.53-1.46,4.82-1.59,6.47-.63Z"/><path class="cls-64" d="M99.21,52.46c-5,2.91-9.1,9.95-9.08,15.73s4.1,8.11,9.14,5.21,9.09-10,9.07-15.73S104.24,49.56,99.21,52.46Z"/></g><g class="cls-6"><path class="cls-65" d="M104.27,55.58c-1.19-.69-2.82-.59-4.63.45a14.32,14.32,0,0,0-6.48,11.23c0,2,.73,3.5,1.89,4.17l.65.38c-1.17-.68-1.89-2.12-1.9-4.17a14.27,14.27,0,0,1,6.49-11.23c1.8-1,3.44-1.14,4.62-.45Z"/><path class="cls-66" d="M100.29,56.41A14.27,14.27,0,0,0,93.8,67.64c0,4.13,2.93,5.79,6.53,3.71a14.27,14.27,0,0,0,6.48-11.22C106.8,56,103.88,54.33,100.29,56.41Z"/></g></g><g class="cls-6"><polygon class="cls-67" points="64.33 139.09 64.31 143.77 66.25 142.64 66.26 137.97 64.33 139.09"/><polygon class="cls-68" points="61.08 127.09 58.77 125.76 58.73 140.55 64.31 143.77 64.33 139.09 61.08 127.09"/><polygon class="cls-26" points="61.08 127.09 58.77 125.76 58.73 140.55 64.31 143.77 64.33 139.09 61.08 127.09"/><polygon class="cls-69" points="63.01 125.97 61.08 127.09 64.33 139.09 66.26 137.97 63.01 125.97"/><polygon class="cls-70" points="60.71 124.64 58.77 125.76 61.08 127.09 63.01 125.97 60.71 124.64"/><polygon class="cls-26" points="60.71 124.64 58.77 125.76 61.08 127.09 63.01 125.97 60.71 124.64"/></g><g class="cls-6"><polygon class="cls-67" points="92.66 122.92 92.64 127.6 94.58 126.47 94.59 121.8 92.66 122.92"/><polygon class="cls-71" points="89.41 110.92 87.11 109.59 87.06 124.38 92.64 127.6 92.66 122.92 89.41 110.92"/><polygon class="cls-26" points="89.41 110.92 87.11 109.59 87.06 124.38 92.64 127.6 92.66 122.92 89.41 110.92"/><polygon class="cls-69" points="91.34 109.79 89.41 110.92 92.66 122.92 94.59 121.8 91.34 109.79"/><polygon class="cls-72" points="89.04 108.47 87.11 109.59 89.41 110.92 91.34 109.79 89.04 108.47"/><polygon class="cls-26" points="89.04 108.47 87.11 109.59 89.41 110.92 91.34 109.79 89.04 108.47"/></g><g class="cls-6"><polygon class="cls-67" points="117.22 108.53 117.2 113.21 119.14 112.08 119.16 107.41 117.22 108.53"/><polygon class="cls-73" points="113.97 96.53 111.67 95.2 111.63 109.99 117.2 113.21 117.22 108.53 113.97 96.53"/><polygon class="cls-26" points="113.97 96.53 111.67 95.2 111.63 109.99 117.2 113.21 117.22 108.53 113.97 96.53"/><polygon class="cls-69" points="115.91 95.41 113.97 96.53 117.22 108.53 119.16 107.41 115.91 95.41"/><polygon class="cls-74" points="113.61 94.08 111.67 95.2 113.97 96.53 115.91 95.41 113.61 94.08"/><polygon class="cls-26" points="113.61 94.08 111.67 95.2 113.97 96.53 115.91 95.41 113.61 94.08"/></g><g class="cls-6"><polygon class="cls-67" points="136.28 97.32 136.27 102 138.21 100.87 138.22 96.2 136.28 97.32"/><polygon class="cls-75" points="133.04 85.32 130.74 83.99 130.69 98.78 136.27 102 136.28 97.32 133.04 85.32"/><polygon class="cls-26" points="133.04 85.32 130.74 83.99 130.69 98.78 136.27 102 136.28 97.32 133.04 85.32"/><polygon class="cls-69" points="134.97 84.19 133.04 85.32 136.28 97.32 138.22 96.2 134.97 84.19"/><polygon class="cls-76" points="132.67 82.86 130.74 83.99 133.04 85.32 134.97 84.19 132.67 82.86"/><polygon class="cls-26" points="132.67 82.86 130.74 83.99 133.04 85.32 134.97 84.19 132.67 82.86"/></g></g></g></g></svg>