<svg xmlns="http://www.w3.org/2000/svg" xmlns:xlink="http://www.w3.org/1999/xlink" viewBox="0 0 150 150"><defs><style>.cls-1,.cls-2,.cls-23{fill:none;}.cls-2{stroke:#fff;}.cls-2,.cls-23{stroke-miterlimit:10;stroke-width:0.1px;}.cls-3{opacity:0;}.cls-4{fill:#000714;}.cls-5{opacity:0.1;fill:url(#新建图案);}.cls-6{isolation:isolate;}.cls-7{fill:url(#未命名的渐变_144);}.cls-8{fill:url(#未命名的渐变_2040);}.cls-9{fill:url(#未命名的渐变_28);}.cls-10{fill:url(#未命名的渐变_144-2);}.cls-11{fill:url(#未命名的渐变_20);}.cls-12{opacity:0.5;}.cls-13{fill:url(#未命名的渐变_159);}.cls-14{fill:url(#未命名的渐变_2118);}.cls-15{fill:url(#未命名的渐变_2040-2);}.cls-16{fill:#4cfafe;}.cls-17{fill:url(#未命名的渐变_54);}.cls-18{fill:url(#未命名的渐变_89);}.cls-19{fill:url(#未命名的渐变_82);}.cls-20{fill:#0b131f;}.cls-21{mix-blend-mode:overlay;}.cls-22{fill:url(#未命名的渐变_32);}.cls-23{stroke:url(#未命名的渐变_32-2);}.cls-24,.cls-30,.cls-38{mix-blend-mode:multiply;}.cls-24{fill:url(#未命名的渐变_41);}.cls-25{fill:url(#未命名的渐变_144-3);}.cls-26{fill:url(#未命名的渐变_54-2);}.cls-27{fill:url(#未命名的渐变_2040-3);}.cls-28{fill:url(#未命名的渐变_2040-4);}.cls-29{fill:url(#未命名的渐变_144-4);}.cls-30{fill:url(#未命名的渐变_41-2);}.cls-31{fill:url(#未命名的渐变_144-5);}.cls-32{fill:url(#未命名的渐变_54-3);}.cls-33{fill:url(#未命名的渐变_2040-5);}.cls-34{fill:url(#未命名的渐变_2040-6);}.cls-35{fill:url(#未命名的渐变_144-6);}.cls-36{fill:url(#未命名的渐变_54-4);}.cls-37{fill:url(#未命名的渐变_2040-7);}.cls-38{opacity:0.3;}.cls-39{fill:url(#未命名的渐变_144-7);}.cls-40{fill:url(#未命名的渐变_2179);}.cls-41{fill:url(#未命名的渐变_121);}.cls-42{fill:url(#未命名的渐变_2040-8);}.cls-43{fill:url(#未命名的渐变_861);}.cls-44{fill:url(#未命名的渐变_159-2);}.cls-45{fill:url(#未命名的渐变_2118-2);}.cls-46{opacity:0.2;}</style><pattern id="新建图案" data-name="新建图案" width="18.57" height="32.16" patternTransform="translate(2062.38 938.68)" patternUnits="userSpaceOnUse" viewBox="0 0 18.57 32.16"><rect class="cls-1" width="18.57" height="32.16"/><polyline class="cls-2" points="18.57 21.44 18.57 32.16 18.57 42.88"/><polyline class="cls-2" points="9.29 26.8 18.57 32.16 27.85 37.51 27.85 37.52"/><polyline class="cls-2" points="9.29 37.52 9.29 37.51 18.57 32.16 27.85 26.8"/><polygon class="cls-2" points="27.85 37.52 27.85 26.8 18.57 21.44 9.28 26.8 9.28 37.52 18.57 42.88 27.85 37.52"/><polyline class="cls-2" points="0 21.44 0 32.16 0 42.88"/><polyline class="cls-2" points="-9.28 26.8 0 32.16 9.28 37.51 9.28 37.52"/><polyline class="cls-2" points="-9.28 37.52 -9.28 37.51 0 32.16 9.28 26.8"/><polygon class="cls-2" points="9.28 37.52 9.28 26.8 0 21.44 -9.29 26.8 -9.29 37.52 0 42.88 9.28 37.52"/><polyline class="cls-2" points="18.57 10.72 27.85 16.08 37.13 21.43 37.13 21.44"/><polyline class="cls-2" points="18.57 21.44 18.57 21.43 27.85 16.08 37.13 10.72"/><polygon class="cls-2" points="37.14 21.44 37.14 10.72 27.85 5.36 18.57 10.72 18.57 21.44 27.85 26.8 37.14 21.44"/><polyline class="cls-2" points="9.29 5.36 9.29 16.08 9.29 26.8"/><polyline class="cls-2" points="0.01 10.72 9.29 16.08 18.57 21.43 18.57 21.44"/><polyline class="cls-2" points="0.01 21.44 0.01 21.43 9.29 16.08 18.57 10.72"/><polygon class="cls-2" points="18.57 21.44 18.57 10.72 9.28 5.36 0 10.72 0 21.44 9.28 26.8 18.57 21.44"/><polyline class="cls-2" points="-18.56 10.72 -9.28 16.08 0 21.43 0 21.44"/><polyline class="cls-2" points="-18.56 21.44 -18.56 21.43 -9.28 16.08 0 10.72"/><polygon class="cls-2" points="0 21.44 0 10.72 -9.29 5.36 -18.57 10.72 -18.57 21.44 -9.29 26.8 0 21.44"/><polyline class="cls-2" points="18.57 -10.72 18.57 0 18.57 10.72"/><polyline class="cls-2" points="9.29 -5.36 18.57 0 27.85 5.35 27.85 5.36"/><polyline class="cls-2" points="9.29 5.36 9.29 5.35 18.57 0 27.85 -5.36"/><polygon class="cls-2" points="27.85 5.36 27.85 -5.36 18.57 -10.72 9.28 -5.36 9.28 5.36 18.57 10.72 27.85 5.36"/><polyline class="cls-2" points="0 -10.72 0 0 0 10.72"/><polyline class="cls-2" points="-9.28 -5.36 0 0 9.28 5.35 9.28 5.36"/><polyline class="cls-2" points="-9.28 5.36 -9.28 5.35 0 0 9.28 -5.36"/><polygon class="cls-2" points="9.28 5.36 9.28 -5.36 0 -10.72 -9.29 -5.36 -9.29 5.36 0 10.72 9.28 5.36"/></pattern><linearGradient id="未命名的渐变_144" x1="16.32" y1="65.67" x2="133.68" y2="65.67" gradientUnits="userSpaceOnUse"><stop offset="0" stop-color="#89abe6"/><stop offset="1" stop-color="#547099"/></linearGradient><linearGradient id="未命名的渐变_2040" x1="25.56" y1="58.83" x2="52.69" y2="31.69" gradientUnits="userSpaceOnUse"><stop offset="0" stop-color="#283140"/><stop offset="0.34" stop-color="#232b37"/><stop offset="0.9" stop-color="#15191f"/><stop offset="1" stop-color="#12161a"/></linearGradient><linearGradient id="未命名的渐变_28" x1="120.3" y1="85.27" x2="62.58" y2="27.55" gradientUnits="userSpaceOnUse"><stop offset="0" stop-color="#425266"/><stop offset="1" stop-color="#596b8c"/></linearGradient><linearGradient id="未命名的渐变_144-2" x1="23.71" y1="67.1" x2="126.27" y2="67.1" xlink:href="#未命名的渐变_144"/><linearGradient id="未命名的渐变_20" x1="23.71" y1="67.1" x2="126.27" y2="67.1" gradientUnits="userSpaceOnUse"><stop offset="0" stop-color="#547099"/><stop offset="1" stop-color="#89abe6"/></linearGradient><linearGradient id="未命名的渐变_159" x1="94.7" y1="31.32" x2="94.7" y2="-0.41" gradientTransform="matrix(1, 0.58, 0, 1, 0, -31.67)" gradientUnits="userSpaceOnUse"><stop offset="0" stop-color="#2f77eb"/><stop offset="0.12" stop-color="#2c7aee" stop-opacity="0.84"/><stop offset="0.36" stop-color="#2581f4" stop-opacity="0.55"/><stop offset="0.58" stop-color="#2085f9" stop-opacity="0.31"/><stop offset="0.76" stop-color="#1c89fc" stop-opacity="0.14"/><stop offset="0.91" stop-color="#1a8bfe" stop-opacity="0.04"/><stop offset="1" stop-color="#198cff" stop-opacity="0"/></linearGradient><linearGradient id="未命名的渐变_2118" x1="94.7" y1="31.32" x2="94.7" y2="-0.41" gradientTransform="matrix(1, 0.58, 0, 1, 0, -31.67)" gradientUnits="userSpaceOnUse"><stop offset="0" stop-color="#4cfafe" stop-opacity="0.8"/><stop offset="0.01" stop-color="#4bf7fe" stop-opacity="0.78"/><stop offset="0.05" stop-color="#40e1fe" stop-opacity="0.62"/><stop offset="0.1" stop-color="#37ccfe" stop-opacity="0.47"/><stop offset="0.16" stop-color="#2fbbff" stop-opacity="0.34"/><stop offset="0.22" stop-color="#28acff" stop-opacity="0.23"/><stop offset="0.29" stop-color="#22a0ff" stop-opacity="0.15"/><stop offset="0.37" stop-color="#1e97ff" stop-opacity="0.08"/><stop offset="0.47" stop-color="#1b91ff" stop-opacity="0.03"/><stop offset="0.61" stop-color="#198dff" stop-opacity="0.01"/><stop offset="1" stop-color="#198cff" stop-opacity="0"/></linearGradient><linearGradient id="未命名的渐变_2040-2" x1="85.84" y1="141.55" x2="142.13" y2="85.26" xlink:href="#未命名的渐变_2040"/><linearGradient id="未命名的渐变_54" x1="98.67" y1="145.63" x2="11.94" y2="58.9" xlink:href="#未命名的渐变_28"/><linearGradient id="未命名的渐变_89" x1="87" y1="110.5" x2="23.67" y2="47.17" gradientUnits="userSpaceOnUse"><stop offset="0" stop-color="#536780"/><stop offset="1" stop-color="#697ea5"/></linearGradient><linearGradient id="未命名的渐变_82" x1="118.89" y1="95" x2="108.87" y2="84.98" gradientUnits="userSpaceOnUse"><stop offset="0" stop-color="#485873"/><stop offset="0.34" stop-color="#44536a"/><stop offset="0.9" stop-color="#374452"/><stop offset="1" stop-color="#35414d"/></linearGradient><linearGradient id="未命名的渐变_32" x1="16.3" y1="89.29" x2="39.68" y2="89.29" gradientUnits="userSpaceOnUse"><stop offset="0" stop-color="#19d9ff"/><stop offset="1" stop-color="#bff4ff"/></linearGradient><linearGradient id="未命名的渐变_32-2" x1="16.27" y1="89.95" x2="39.71" y2="89.95" xlink:href="#未命名的渐变_32"/><linearGradient id="未命名的渐变_41" x1="32.15" y1="54.54" x2="39.69" y2="54.54" gradientUnits="userSpaceOnUse"><stop offset="0" stop-color="#142439" stop-opacity="0.6"/><stop offset="1" stop-color="#142439" stop-opacity="0"/></linearGradient><linearGradient id="未命名的渐变_144-3" x1="29.22" y1="52.14" x2="35.08" y2="52.14" xlink:href="#未命名的渐变_144"/><linearGradient id="未命名的渐变_54-2" x1="32.44" y1="55.94" x2="28.93" y2="52.43" xlink:href="#未命名的渐变_28"/><linearGradient id="未命名的渐变_2040-3" x1="31.86" y1="55.94" x2="35.37" y2="52.43" xlink:href="#未命名的渐变_2040"/><linearGradient id="未命名的渐变_2040-4" x1="30.36" y1="52.14" x2="33.94" y2="52.14" xlink:href="#未命名的渐变_2040"/><linearGradient id="未命名的渐变_144-4" x1="30.4" y1="52.14" x2="33.9" y2="52.14" xlink:href="#未命名的渐变_144"/><linearGradient id="未命名的渐变_41-2" x1="38.02" y1="51.15" x2="45.56" y2="51.15" xlink:href="#未命名的渐变_41"/><linearGradient id="未命名的渐变_144-5" x1="35.09" y1="48.74" x2="40.95" y2="48.74" xlink:href="#未命名的渐变_144"/><linearGradient id="未命名的渐变_54-3" x1="38.31" y1="52.55" x2="34.8" y2="49.03" xlink:href="#未命名的渐变_28"/><linearGradient id="未命名的渐变_2040-5" x1="37.73" y1="52.55" x2="41.24" y2="49.03" xlink:href="#未命名的渐变_2040"/><linearGradient id="未命名的渐变_2040-6" x1="36.23" y1="48.74" x2="39.81" y2="48.74" xlink:href="#未命名的渐变_2040"/><linearGradient id="未命名的渐变_144-6" x1="36.27" y1="48.74" x2="39.77" y2="48.74" xlink:href="#未命名的渐变_144"/><linearGradient id="未命名的渐变_54-4" x1="45.53" y1="129.04" x2="31.46" y2="114.97" xlink:href="#未命名的渐变_28"/><linearGradient id="未命名的渐变_2040-7" x1="44.35" y1="128.3" x2="52.87" y2="119.78" xlink:href="#未命名的渐变_2040"/><linearGradient id="未命名的渐变_144-7" x1="31.68" y1="116.79" x2="51.91" y2="116.79" xlink:href="#未命名的渐变_144"/><linearGradient id="未命名的渐变_2179" x1="41.8" y1="122.63" x2="41.8" y2="110.95" gradientUnits="userSpaceOnUse"><stop offset="0" stop-color="#99beff"/><stop offset="0.01" stop-color="#99beff" stop-opacity="0.96"/><stop offset="0.05" stop-color="#99beff" stop-opacity="0.78"/><stop offset="0.09" stop-color="#99beff" stop-opacity="0.61"/><stop offset="0.14" stop-color="#99beff" stop-opacity="0.47"/><stop offset="0.2" stop-color="#99beff" stop-opacity="0.34"/><stop offset="0.25" stop-color="#99beff" stop-opacity="0.23"/><stop offset="0.32" stop-color="#99beff" stop-opacity="0.15"/><stop offset="0.4" stop-color="#99beff" stop-opacity="0.08"/><stop offset="0.49" stop-color="#99beff" stop-opacity="0.03"/><stop offset="0.63" stop-color="#99beff" stop-opacity="0.01"/><stop offset="1" stop-color="#99beff" stop-opacity="0"/></linearGradient><linearGradient id="未命名的渐变_121" x1="34.91" y1="122.87" x2="41.37" y2="122.87" gradientUnits="userSpaceOnUse"><stop offset="0" stop-color="#12161a"/><stop offset="0.1" stop-color="#15191f"/><stop offset="0.66" stop-color="#232b37"/><stop offset="1" stop-color="#283140"/></linearGradient><linearGradient id="未命名的渐变_2040-8" x1="34.91" y1="123.93" x2="41.37" y2="123.93" xlink:href="#未命名的渐变_2040"/><linearGradient id="未命名的渐变_861" x1="37.18" y1="124.52" x2="39.09" y2="121.21" gradientUnits="userSpaceOnUse"><stop offset="0" stop-color="#4cfafe" stop-opacity="0.8"/><stop offset="0.03" stop-color="#48f1fe" stop-opacity="0.73"/><stop offset="0.11" stop-color="#3dd9fe" stop-opacity="0.56"/><stop offset="0.19" stop-color="#33c4fe" stop-opacity="0.41"/><stop offset="0.28" stop-color="#2bb3ff" stop-opacity="0.28"/><stop offset="0.38" stop-color="#24a5ff" stop-opacity="0.18"/><stop offset="0.49" stop-color="#1f9aff" stop-opacity="0.1"/><stop offset="0.61" stop-color="#1c92ff" stop-opacity="0.04"/><stop offset="0.76" stop-color="#1a8dff" stop-opacity="0.01"/><stop offset="1" stop-color="#198cff" stop-opacity="0"/></linearGradient><linearGradient id="未命名的渐变_159-2" x1="55.3" y1="76.77" x2="55.3" y2="45.04" xlink:href="#未命名的渐变_159"/><linearGradient id="未命名的渐变_2118-2" x1="55.3" y1="76.77" x2="55.3" y2="45.04" xlink:href="#未命名的渐变_2118"/></defs><title>建筑6</title><g id="图层_2" data-name="图层 2"><g id="图元"><g id="建筑6"><g class="cls-3"><rect class="cls-4" width="150" height="150"/><rect id="网格" class="cls-5" width="150" height="150"/></g><g class="cls-6"><polygon class="cls-7" points="55.56 31.72 16.32 54.52 94.43 99.62 133.68 76.82 55.56 31.72"/><polygon class="cls-8" points="55.57 37.44 23.71 55.94 21.25 54.52 55.57 34.57 55.57 37.44"/><polygon class="cls-9" points="128.74 76.82 126.27 78.25 55.57 37.44 55.57 34.57 128.74 76.82"/><polygon class="cls-10" points="126.27 78.25 94.43 96.77 23.71 55.94 55.57 37.44 126.27 78.25"/><polygon class="cls-11" points="126.27 78.25 94.43 96.77 23.71 55.94 55.57 37.44 126.27 78.25"/><g class="cls-12"><polygon class="cls-13" points="133.82 76.92 55.57 31.73 55.57 0 133.82 45.18 133.82 76.92"/><polygon class="cls-14" points="133.82 76.92 55.57 31.73 55.57 0 133.82 45.18 133.82 76.92"/></g><polygon class="cls-15" points="133.68 76.81 133.53 127.19 94.29 150 94.42 103.08 94.43 99.63 94.43 99.62 133.54 76.89 133.68 76.81"/><polygon class="cls-16" points="128.71 93.28 128.66 109.14 99.33 126.19 99.37 110.33 128.71 93.28"/><polygon class="cls-17" points="94.43 99.63 94.42 103.08 94.29 150 16.18 104.9 16.3 83.19 18.36 82.4 18.42 65.67 16.29 64.46 16.32 58.14 16.32 54.52 94.3 99.55 94.43 99.63"/><polygon class="cls-18" points="94.43 99.62 94.43 99.63 94.3 99.55 16.32 54.52 16.32 58.14 94.29 103.15 94.29 103.16 94.42 103.08 94.43 99.62"/><polygon class="cls-19" points="94.43 99.62 94.43 99.63 94.3 99.55 94.29 103.15 94.29 103.16 94.42 103.08 133.53 80.35 133.54 76.89 94.43 99.62"/><polygon class="cls-20" points="39.68 96.7 16.3 83.2 18.37 81.87 18.36 82.41 39.68 94.72 39.68 96.7"/><g class="cls-21"><polygon class="cls-22" points="39.68 96.7 16.3 83.2 18.37 81.87 18.36 82.41 39.68 94.72 39.68 96.7"/></g><line class="cls-23" x1="39.68" y1="96.7" x2="16.3" y2="83.2"/><polygon class="cls-16" points="39.74 77.99 39.68 94.72 18.36 82.41 18.42 65.67 39.74 77.99"/><polygon class="cls-16" points="18.36 82.41 18.42 65.67 32.13 73.59 18.36 82.41"/><polygon class="cls-16" points="63.35 108.78 53.52 103.1 53.52 88.83 63.35 94.5 63.35 108.78"/><polygon class="cls-16" points="73.95 114.77 64.12 109.1 64.12 94.83 73.95 100.5 73.95 114.77"/><polygon class="cls-16" points="84.63 120.92 74.8 115.24 74.8 100.97 84.63 106.65 84.63 120.92"/><polygon class="cls-24" points="39.69 54.54 36.77 56.24 32.15 56.24 32.16 52.84 36.75 52.84 39.69 54.54"/><g class="cls-6"><polygon class="cls-25" points="35.08 52.14 32.16 53.83 29.22 52.14 32.14 50.44 35.08 52.14"/><polygon class="cls-26" points="32.16 53.83 32.15 56.24 29.21 54.54 29.22 52.14 32.16 53.83"/><polygon class="cls-27" points="35.08 52.14 35.07 54.54 32.15 56.24 32.16 53.83 35.08 52.14"/></g><path class="cls-28" d="M33.93,52.24h0a.93.93,0,0,1-.51.62,2.76,2.76,0,0,1-2.53,0,.92.92,0,0,1-.52-.63h0a.82.82,0,0,1,.51-.84,2.76,2.76,0,0,1,2.53,0C33.81,51.63,34,52,33.93,52.24Z"/><path class="cls-20" d="M33.93,52.24h0a.93.93,0,0,1-.51.62,2.76,2.76,0,0,1-2.53,0,.92.92,0,0,1-.52-.63h0a.91.91,0,0,1,.51-.63,2.76,2.76,0,0,1,2.53,0A1,1,0,0,1,33.93,52.24Z"/><polygon class="cls-29" points="33.9 52.17 33.9 52.1 32.28 52.1 33.42 51.44 33.34 51.39 32.2 52.06 32.2 51.12 32.09 51.12 32.1 52.06 30.95 51.4 30.87 51.44 32.02 52.1 30.4 52.1 30.41 52.16 32.02 52.16 30.88 52.83 30.96 52.87 32.1 52.21 32.1 53.15 32.21 53.15 32.21 52.21 33.35 52.87 33.43 52.83 32.28 52.16 33.9 52.17"/><polygon class="cls-30" points="45.56 51.15 42.64 52.84 38.02 52.84 38.03 49.45 42.62 49.45 45.56 51.15"/><g class="cls-6"><polygon class="cls-31" points="40.95 48.74 38.03 50.44 35.09 48.74 38.01 47.05 40.95 48.74"/><polygon class="cls-32" points="38.03 50.44 38.02 52.84 35.08 51.15 35.09 48.74 38.03 50.44"/><polygon class="cls-33" points="40.95 48.74 40.94 51.15 38.02 52.84 38.03 50.44 40.95 48.74"/></g><path class="cls-34" d="M39.8,48.85h0a.93.93,0,0,1-.51.62,2.82,2.82,0,0,1-2.53,0,1,1,0,0,1-.52-.63h0a.82.82,0,0,1,.51-.84,2.79,2.79,0,0,1,2.53,0C39.68,48.24,39.86,48.55,39.8,48.85Z"/><path class="cls-20" d="M39.8,48.85h0a.93.93,0,0,1-.51.62,2.82,2.82,0,0,1-2.53,0,1,1,0,0,1-.52-.63h0a.89.89,0,0,1,.51-.63,2.76,2.76,0,0,1,2.53,0A.94.94,0,0,1,39.8,48.85Z"/><polygon class="cls-35" points="39.77 48.77 39.77 48.71 38.16 48.71 39.29 48.05 39.21 48 38.08 48.66 38.07 47.73 37.96 47.73 37.97 48.66 36.82 48 36.74 48.05 37.89 48.71 36.27 48.71 36.27 48.77 37.89 48.77 36.75 49.43 36.83 49.48 37.97 48.82 37.97 49.75 38.08 49.75 38.08 48.81 39.22 49.48 39.3 49.43 38.15 48.77 39.77 48.77"/><g class="cls-6"><polygon class="cls-36" points="45.32 122.63 45.32 123.17 45.31 129.26 31.67 121.38 31.67 115.31 31.67 114.75 45.31 122.63 45.32 122.63"/><polygon class="cls-37" points="51.92 118.82 51.9 125.46 45.31 129.26 45.32 123.17 45.32 122.63 51.9 118.83 51.92 118.82"/><polygon class="cls-38" points="45.32 122.63 45.31 122.63 31.67 114.75 31.67 115.31 45.31 123.18 45.32 123.17 51.9 119.37 51.9 118.83 45.32 122.63"/><polygon class="cls-39" points="38.27 110.95 31.68 114.75 45.32 122.63 51.91 118.83 38.27 110.95"/><path class="cls-40" d="M38.27,111.24l13.14,7.59-6.09,3.51-13.14-7.59,6.09-3.51m0-.29-6.59,3.8,13.64,7.88,6.59-3.8L38.27,111Z"/><polygon class="cls-41" points="34.91 123.21 41.37 126.94 41.37 122.52 34.91 118.79 34.91 123.21"/><polygon class="cls-42" points="34.91 123.21 41.37 126.94 41.37 122.52 38.58 120.91 34.91 123.21"/><polygon class="cls-43" points="34.91 123.21 41.37 126.94 41.37 122.52 34.91 118.79 34.91 123.21"/></g><g class="cls-12"><polygon class="cls-44" points="94.43 99.62 16.18 54.44 16.18 22.71 94.43 67.89 94.43 99.62"/><polygon class="cls-45" points="94.43 99.62 16.18 54.44 16.18 22.71 94.43 67.89 94.43 99.62"/></g></g></g></g></g></svg>