<svg xmlns="http://www.w3.org/2000/svg" xmlns:xlink="http://www.w3.org/1999/xlink" viewBox="0 0 150 150"><defs><style>.cls-1,.cls-2{fill:none;}.cls-2{stroke:#fff;stroke-miterlimit:10;stroke-width:0.1px;}.cls-3{opacity:0;}.cls-4{fill:#000714;}.cls-5{opacity:0.1;fill:url(#新建图案);}.cls-6{fill:#547099;}.cls-7{fill:#7693c6;}.cls-8{opacity:0.2;}</style><pattern id="新建图案" data-name="新建图案" width="18.57" height="32.16" patternTransform="translate(1489.14 1150.29)" patternUnits="userSpaceOnUse" viewBox="0 0 18.57 32.16"><rect class="cls-1" width="18.57" height="32.16"/><polyline class="cls-2" points="18.57 21.44 18.57 32.16 18.57 42.88"/><polyline class="cls-2" points="9.29 26.8 18.57 32.16 27.85 37.51 27.85 37.52"/><polyline class="cls-2" points="9.29 37.52 9.29 37.51 18.57 32.16 27.85 26.8"/><polygon class="cls-2" points="27.85 37.52 27.85 26.8 18.57 21.44 9.28 26.8 9.28 37.52 18.57 42.88 27.85 37.52"/><polyline class="cls-2" points="0 21.44 0 32.16 0 42.88"/><polyline class="cls-2" points="-9.28 26.8 0 32.16 9.28 37.51 9.28 37.52"/><polyline class="cls-2" points="-9.28 37.52 -9.28 37.51 0 32.16 9.28 26.8"/><polygon class="cls-2" points="9.28 37.52 9.28 26.8 0 21.44 -9.29 26.8 -9.29 37.52 0 42.88 9.28 37.52"/><polyline class="cls-2" points="18.57 10.72 27.85 16.08 37.13 21.43 37.13 21.44"/><polyline class="cls-2" points="18.57 21.44 18.57 21.43 27.85 16.08 37.13 10.72"/><polygon class="cls-2" points="37.14 21.44 37.14 10.72 27.85 5.36 18.57 10.72 18.57 21.44 27.85 26.8 37.14 21.44"/><polyline class="cls-2" points="9.29 5.36 9.29 16.08 9.29 26.8"/><polyline class="cls-2" points="0.01 10.72 9.29 16.08 18.57 21.43 18.57 21.44"/><polyline class="cls-2" points="0.01 21.44 0.01 21.43 9.29 16.08 18.57 10.72"/><polygon class="cls-2" points="18.57 21.44 18.57 10.72 9.28 5.36 0 10.72 0 21.44 9.28 26.8 18.57 21.44"/><polyline class="cls-2" points="-18.56 10.72 -9.28 16.08 0 21.43 0 21.44"/><polyline class="cls-2" points="-18.56 21.44 -18.56 21.43 -9.28 16.08 0 10.72"/><polygon class="cls-2" points="0 21.44 0 10.72 -9.29 5.36 -18.57 10.72 -18.57 21.44 -9.29 26.8 0 21.44"/><polyline class="cls-2" points="18.57 -10.72 18.57 0 18.57 10.72"/><polyline class="cls-2" points="9.29 -5.36 18.57 0 27.85 5.35 27.85 5.36"/><polyline class="cls-2" points="9.29 5.36 9.29 5.35 18.57 0 27.85 -5.36"/><polygon class="cls-2" points="27.85 5.36 27.85 -5.36 18.57 -10.72 9.28 -5.36 9.28 5.36 18.57 10.72 27.85 5.36"/><polyline class="cls-2" points="0 -10.72 0 0 0 10.72"/><polyline class="cls-2" points="-9.28 -5.36 0 0 9.28 5.35 9.28 5.36"/><polyline class="cls-2" points="-9.28 5.36 -9.28 5.35 0 0 9.28 -5.36"/><polygon class="cls-2" points="9.28 5.36 9.28 -5.36 0 -10.72 -9.29 -5.36 -9.29 5.36 0 10.72 9.28 5.36"/></pattern></defs><title>马路1</title><g id="图层_2" data-name="图层 2"><g id="图元"><g id="马路1"><g class="cls-3"><rect class="cls-4" width="150" height="150"/><rect id="网格" class="cls-5" width="150" height="150"/></g><polygon class="cls-6" points="150 75 114.42 95.67 113.01 96.49 75.24 118.44 0 75 74.76 31.56 150 75"/><polygon class="cls-7" points="114.42 95.67 113.01 96.49 110.7 95.16 112.1 94.34 114.42 95.67"/><polygon class="cls-7" points="105.14 91.95 107.92 93.56 109.33 92.74 106.54 91.13 105.14 91.95"/><polygon class="cls-7" points="99.58 88.74 102.36 90.35 103.77 89.53 100.99 87.92 99.58 88.74"/><polygon class="cls-7" points="94.02 85.53 96.8 87.14 98.2 86.32 95.43 84.71 94.02 85.53"/><polygon class="cls-7" points="88.46 82.33 91.24 83.93 92.65 83.11 89.87 81.51 88.46 82.33"/><polygon class="cls-7" points="82.9 79.11 85.68 80.72 87.09 79.9 84.31 78.3 82.9 79.11"/><polygon class="cls-7" points="77.35 75.91 80.13 77.51 81.53 76.69 78.76 75.09 77.35 75.91"/><polygon class="cls-7" points="71.79 72.7 74.56 74.3 75.97 73.48 73.2 71.88 71.79 72.7"/><polygon class="cls-7" points="66.23 69.49 69.01 71.09 70.42 70.27 67.64 68.67 66.23 69.49"/><polygon class="cls-7" points="60.67 66.28 63.45 67.88 64.86 67.06 62.08 65.46 60.67 66.28"/><polygon class="cls-7" points="55.11 63.07 57.9 64.67 59.3 63.86 56.52 62.25 55.11 63.07"/><polygon class="cls-7" points="49.56 59.86 52.33 61.46 53.74 60.65 50.97 59.04 49.56 59.86"/><polygon class="cls-7" points="43.99 56.65 46.77 58.25 48.18 57.44 45.4 55.83 43.99 56.65"/><polygon class="cls-7" points="38.44 53.44 41.22 55.05 42.63 54.23 39.85 52.63 38.44 53.44"/></g></g></g></svg>